<?xml version='1.0' encoding='ascii'?>
<svg xmlns="http://www.w3.org/2000/svg" xmlns:inkscape="http://www.inkscape.org/namespaces/inkscape" version="1.1" width="1024" height="1024">
    <g id="ViewLayer_LineSet" inkscape:groupmode="lineset" inkscape:label="ViewLayer_LineSet">
        <g inkscape:groupmode="layer" id="strokes" inkscape:label="strokes">
            <path fill="none" stroke-width="3.0" stroke-linecap="butt" stroke-opacity="1.0" stroke="rgb(0, 0, 0)" stroke-linejoin="round" d=" M 274.963, 677.926 274.963, 687.926 274.963, 697.926 274.963, 707.926 274.963, 717.926 274.963, 725.333 " />
            <path fill="none" stroke-width="3.0" stroke-linecap="butt" stroke-opacity="1.0" stroke="rgb(0, 0, 0)" stroke-linejoin="round" d=" M 749.037, 725.333 749.037, 715.333 749.037, 705.333 749.037, 695.333 749.037, 685.333 749.037, 677.926 " />
            <path fill="none" stroke-width="3.0" stroke-linecap="butt" stroke-opacity="1.0" stroke="rgb(0, 0, 0)" stroke-linejoin="round" d=" M 227.556, 274.963 227.556, 284.963 227.556, 294.963 227.556, 304.963 227.556, 314.963 227.556, 324.963 227.556, 334.963 227.556, 344.963 227.556, 354.963 227.556, 364.963 227.556, 374.963 227.556, 384.963 227.556, 394.963 227.556, 404.963 227.556, 414.963 227.556, 424.963 227.556, 434.963 227.556, 444.963 227.556, 454.963 227.556, 464.963 227.556, 474.963 227.556, 484.963 227.556, 494.963 227.556, 504.963 227.556, 514.963 227.556, 524.963 227.556, 534.963 227.556, 544.963 227.556, 554.963 227.556, 564.963 227.556, 574.963 227.556, 584.963 227.556, 594.963 227.556, 604.963 227.556, 614.963 227.556, 624.963 227.556, 634.963 227.556, 644.963 227.556, 654.963 227.556, 664.963 227.556, 674.963 227.556, 684.963 227.556, 694.963 227.556, 704.963 227.556, 714.963 227.556, 724.963 227.556, 734.963 227.556, 749.037 237.556, 749.037 247.556, 749.037 257.556, 749.037 267.556, 749.037 274.963, 749.037 " />
            <path fill="none" stroke-width="3.0" stroke-linecap="butt" stroke-opacity="1.0" stroke="rgb(0, 0, 0)" stroke-linejoin="round" d=" M 796.444, 749.037 796.444, 739.037 796.444, 729.037 796.444, 719.037 796.444, 709.037 796.444, 699.037 796.444, 689.037 796.444, 679.037 796.444, 669.037 796.444, 659.037 796.444, 649.037 796.444, 639.037 796.444, 629.037 796.444, 619.037 796.444, 609.037 796.444, 599.037 796.444, 589.037 796.444, 579.037 796.444, 569.037 796.444, 559.037 796.444, 549.037 796.444, 539.037 796.444, 529.037 796.444, 519.037 796.444, 509.037 796.444, 499.037 796.444, 489.037 796.444, 479.037 796.444, 469.037 796.444, 459.037 796.444, 449.037 796.444, 439.037 796.444, 429.037 796.444, 419.037 796.444, 409.037 796.444, 399.037 796.444, 389.037 796.444, 379.037 796.444, 369.037 796.444, 359.037 796.444, 349.037 796.444, 339.037 796.444, 329.037 796.444, 319.037 796.444, 309.037 796.444, 299.037 796.444, 289.037 796.444, 274.963 " />
            <path fill="none" stroke-width="3.0" stroke-linecap="butt" stroke-opacity="1.0" stroke="rgb(0, 0, 0)" stroke-linejoin="round" d=" M 274.963, 274.963 264.963, 274.963 254.963, 274.963 244.963, 274.963 234.963, 274.963 227.556, 274.963 " />
            <path fill="none" stroke-width="3.0" stroke-linecap="butt" stroke-opacity="1.0" stroke="rgb(0, 0, 0)" stroke-linejoin="round" d=" M 274.963, 677.926 274.963, 667.926 274.963, 657.926 274.963, 647.926 274.963, 637.926 274.963, 627.926 274.963, 617.926 274.963, 607.926 274.963, 597.926 274.963, 587.926 274.963, 577.926 274.963, 567.926 274.963, 557.926 274.963, 547.926 274.963, 537.926 274.963, 527.926 274.963, 517.926 274.963, 507.926 274.963, 497.926 274.963, 487.926 274.963, 477.926 274.963, 467.926 274.963, 457.926 274.963, 447.926 274.963, 437.926 274.963, 427.926 274.963, 417.926 274.963, 407.926 274.963, 397.926 274.963, 387.926 274.963, 377.926 274.963, 367.926 274.963, 357.926 274.963, 347.926 274.963, 337.926 274.963, 327.926 274.963, 317.926 274.963, 307.926 274.963, 297.926 274.963, 287.926 274.963, 274.963 " />
            <path fill="none" stroke-width="3.0" stroke-linecap="butt" stroke-opacity="1.0" stroke="rgb(0, 0, 0)" stroke-linejoin="round" d=" M 274.963, 749.037 274.963, 739.037 274.963, 729.037 274.963, 725.333 " />
            <path fill="none" stroke-width="3.0" stroke-linecap="butt" stroke-opacity="1.0" stroke="rgb(0, 0, 0)" stroke-linejoin="round" d=" M 274.963, 749.037 284.963, 749.037 294.963, 749.037 304.963, 749.037 314.963, 749.037 324.963, 749.037 334.963, 749.037 344.963, 749.037 354.963, 749.037 364.963, 749.037 374.963, 749.037 384.963, 749.037 394.963, 749.037 404.963, 749.037 414.963, 749.037 424.963, 749.037 434.963, 749.037 444.963, 749.037 454.963, 749.037 464.963, 749.037 474.963, 749.037 484.963, 749.037 494.963, 749.037 504.963, 749.037 514.963, 749.037 524.963, 749.037 534.963, 749.037 544.963, 749.037 554.963, 749.037 564.963, 749.037 574.963, 749.037 584.963, 749.037 594.963, 749.037 604.963, 749.037 614.963, 749.037 624.963, 749.037 634.963, 749.037 644.963, 749.037 654.963, 749.037 664.963, 749.037 674.963, 749.037 684.963, 749.037 694.963, 749.037 704.963, 749.037 714.963, 749.037 724.963, 749.037 734.963, 749.037 749.037, 749.037 " />
            <path fill="none" stroke-width="3.0" stroke-linecap="butt" stroke-opacity="1.0" stroke="rgb(0, 0, 0)" stroke-linejoin="round" d=" M 274.963, 725.333 284.963, 725.333 294.963, 725.333 304.963, 725.333 314.963, 725.333 324.963, 725.333 334.963, 725.333 344.963, 725.333 354.963, 725.333 364.963, 725.333 374.963, 725.333 384.963, 725.333 394.963, 725.333 404.963, 725.333 414.963, 725.333 424.963, 725.333 434.963, 725.333 444.963, 725.333 454.963, 725.333 464.963, 725.333 474.963, 725.333 484.963, 725.333 494.963, 725.333 504.963, 725.333 514.963, 725.333 524.963, 725.333 534.963, 725.333 544.963, 725.333 554.963, 725.333 564.963, 725.333 574.963, 725.333 584.963, 725.333 594.963, 725.333 604.963, 725.333 614.963, 725.333 624.963, 725.333 634.963, 725.333 644.963, 725.333 654.963, 725.333 664.963, 725.333 674.963, 725.333 684.963, 725.333 694.963, 725.333 704.963, 725.333 714.963, 725.333 724.963, 725.333 734.963, 725.333 749.037, 725.333 " />
            <path fill="none" stroke-width="3.0" stroke-linecap="butt" stroke-opacity="1.0" stroke="rgb(0, 0, 0)" stroke-linejoin="round" d=" M 749.037, 677.926 739.037, 677.926 729.037, 677.926 719.037, 677.926 709.037, 677.926 699.037, 677.926 689.037, 677.926 679.037, 677.926 669.037, 677.926 659.037, 677.926 649.037, 677.926 639.037, 677.926 629.037, 677.926 619.037, 677.926 609.037, 677.926 599.037, 677.926 589.037, 677.926 579.037, 677.926 569.037, 677.926 559.037, 677.926 549.037, 677.926 539.037, 677.926 529.037, 677.926 519.037, 677.926 509.037, 677.926 499.037, 677.926 489.037, 677.926 479.037, 677.926 469.037, 677.926 459.037, 677.926 449.037, 677.926 439.037, 677.926 429.037, 677.926 419.037, 677.926 409.037, 677.926 399.037, 677.926 389.037, 677.926 379.037, 677.926 369.037, 677.926 359.037, 677.926 349.037, 677.926 339.037, 677.926 329.037, 677.926 319.037, 677.926 309.037, 677.926 299.037, 677.926 289.037, 677.926 274.963, 677.926 " />
            <path fill="none" stroke-width="3.0" stroke-linecap="butt" stroke-opacity="1.0" stroke="rgb(0, 0, 0)" stroke-linejoin="round" d=" M 749.037, 274.963 739.037, 274.963 729.037, 274.963 719.037, 274.963 709.037, 274.963 699.037, 274.963 689.037, 274.963 679.037, 274.963 669.037, 274.963 659.037, 274.963 649.037, 274.963 639.037, 274.963 629.037, 274.963 619.037, 274.963 609.037, 274.963 599.037, 274.963 589.037, 274.963 579.037, 274.963 569.037, 274.963 559.037, 274.963 549.037, 274.963 539.037, 274.963 529.037, 274.963 519.037, 274.963 509.037, 274.963 499.037, 274.963 489.037, 274.963 479.037, 274.963 469.037, 274.963 459.037, 274.963 449.037, 274.963 439.037, 274.963 429.037, 274.963 419.037, 274.963 409.037, 274.963 399.037, 274.963 389.037, 274.963 379.037, 274.963 369.037, 274.963 359.037, 274.963 349.037, 274.963 339.037, 274.963 329.037, 274.963 319.037, 274.963 309.037, 274.963 299.037, 274.963 289.037, 274.963 274.963, 274.963 " />
            <path fill="none" stroke-width="3.0" stroke-linecap="butt" stroke-opacity="1.0" stroke="rgb(0, 0, 0)" stroke-linejoin="round" d=" M 749.037, 725.333 749.037, 735.333 749.037, 745.333 749.037, 749.037 " />
            <path fill="none" stroke-width="3.0" stroke-linecap="butt" stroke-opacity="1.0" stroke="rgb(0, 0, 0)" stroke-linejoin="round" d=" M 749.037, 274.963 749.037, 284.963 749.037, 294.963 749.037, 304.963 749.037, 314.963 749.037, 324.963 749.037, 334.963 749.037, 344.963 749.037, 354.963 749.037, 364.963 749.037, 374.963 749.037, 384.963 749.037, 394.963 749.037, 404.963 749.037, 414.963 749.037, 424.963 749.037, 434.963 749.037, 444.963 749.037, 454.963 749.037, 464.963 749.037, 474.963 749.037, 484.963 749.037, 494.963 749.037, 504.963 749.037, 514.963 749.037, 524.963 749.037, 534.963 749.037, 544.963 749.037, 554.963 749.037, 564.963 749.037, 574.963 749.037, 584.963 749.037, 594.963 749.037, 604.963 749.037, 614.963 749.037, 624.963 749.037, 634.963 749.037, 644.963 749.037, 654.963 749.037, 664.963 749.037, 677.926 " />
            <path fill="none" stroke-width="3.0" stroke-linecap="butt" stroke-opacity="1.0" stroke="rgb(0, 0, 0)" stroke-linejoin="round" d=" M 749.037, 749.037 759.037, 749.037 769.037, 749.037 779.037, 749.037 789.037, 749.037 796.444, 749.037 " />
            <path fill="none" stroke-width="3.0" stroke-linecap="butt" stroke-opacity="1.0" stroke="rgb(0, 0, 0)" stroke-linejoin="round" d=" M 796.444, 274.963 786.444, 274.963 776.444, 274.963 766.444, 274.963 756.444, 274.963 749.037, 274.963 " />
        </g>
    </g>
    <g id="ViewLayer_TechnicalLines" inkscape:groupmode="lineset" inkscape:label="ViewLayer_TechnicalLines">
        <g inkscape:groupmode="layer" id="strokes" inkscape:label="strokes">
            <path fill="none" stroke-width="3.0" stroke-linecap="butt" stroke-opacity="1.0" stroke="rgb(0, 0, 0)" stroke-linejoin="round" d=" M 274.963, 677.926 274.963, 687.926 274.963, 697.926 274.963, 707.926 274.963, 717.926 274.963, 725.333 " />
            <path fill="none" stroke-width="3.0" stroke-linecap="butt" stroke-opacity="1.0" stroke="rgb(0, 0, 0)" stroke-linejoin="round" d=" M 749.037, 725.333 749.037, 715.333 749.037, 705.333 749.037, 695.333 749.037, 685.333 749.037, 677.926 " />
            <path fill="none" stroke-width="3.0" stroke-linecap="butt" stroke-opacity="1.0" stroke="rgb(0, 0, 0)" stroke-linejoin="round" d=" M 227.556, 274.963 227.556, 284.963 227.556, 294.963 227.556, 304.963 227.556, 314.963 227.556, 324.963 227.556, 334.963 227.556, 344.963 227.556, 354.963 227.556, 364.963 227.556, 374.963 227.556, 384.963 227.556, 394.963 227.556, 404.963 227.556, 414.963 227.556, 424.963 227.556, 434.963 227.556, 444.963 227.556, 454.963 227.556, 464.963 227.556, 474.963 227.556, 484.963 227.556, 494.963 227.556, 504.963 227.556, 514.963 227.556, 524.963 227.556, 534.963 227.556, 544.963 227.556, 554.963 227.556, 564.963 227.556, 574.963 227.556, 584.963 227.556, 594.963 227.556, 604.963 227.556, 614.963 227.556, 624.963 227.556, 634.963 227.556, 644.963 227.556, 654.963 227.556, 664.963 227.556, 674.963 227.556, 684.963 227.556, 694.963 227.556, 704.963 227.556, 714.963 227.556, 724.963 227.556, 734.963 227.556, 749.037 237.556, 749.037 247.556, 749.037 257.556, 749.037 267.556, 749.037 274.963, 749.037 " />
            <path fill="none" stroke-width="3.0" stroke-linecap="butt" stroke-opacity="1.0" stroke="rgb(0, 0, 0)" stroke-linejoin="round" d=" M 796.444, 749.037 796.444, 739.037 796.444, 729.037 796.444, 719.037 796.444, 709.037 796.444, 699.037 796.444, 689.037 796.444, 679.037 796.444, 669.037 796.444, 659.037 796.444, 649.037 796.444, 639.037 796.444, 629.037 796.444, 619.037 796.444, 609.037 796.444, 599.037 796.444, 589.037 796.444, 579.037 796.444, 569.037 796.444, 559.037 796.444, 549.037 796.444, 539.037 796.444, 529.037 796.444, 519.037 796.444, 509.037 796.444, 499.037 796.444, 489.037 796.444, 479.037 796.444, 469.037 796.444, 459.037 796.444, 449.037 796.444, 439.037 796.444, 429.037 796.444, 419.037 796.444, 409.037 796.444, 399.037 796.444, 389.037 796.444, 379.037 796.444, 369.037 796.444, 359.037 796.444, 349.037 796.444, 339.037 796.444, 329.037 796.444, 319.037 796.444, 309.037 796.444, 299.037 796.444, 289.037 796.444, 274.963 " />
            <path fill="none" stroke-width="3.0" stroke-linecap="butt" stroke-opacity="1.0" stroke="rgb(0, 0, 0)" stroke-linejoin="round" d=" M 274.963, 274.963 264.963, 274.963 254.963, 274.963 244.963, 274.963 234.963, 274.963 227.556, 274.963 " />
            <path fill="none" stroke-width="3.0" stroke-linecap="butt" stroke-opacity="1.0" stroke="rgb(0, 0, 0)" stroke-linejoin="round" d=" M 274.963, 677.926 274.963, 667.926 274.963, 657.926 274.963, 647.926 274.963, 637.926 274.963, 627.926 274.963, 617.926 274.963, 607.926 274.963, 597.926 274.963, 587.926 274.963, 577.926 274.963, 567.926 274.963, 557.926 274.963, 547.926 274.963, 537.926 274.963, 527.926 274.963, 517.926 274.963, 507.926 274.963, 497.926 274.963, 487.926 274.963, 477.926 274.963, 467.926 274.963, 457.926 274.963, 447.926 274.963, 437.926 274.963, 427.926 274.963, 417.926 274.963, 407.926 274.963, 397.926 274.963, 387.926 274.963, 377.926 274.963, 367.926 274.963, 357.926 274.963, 347.926 274.963, 337.926 274.963, 327.926 274.963, 317.926 274.963, 307.926 274.963, 297.926 274.963, 287.926 274.963, 274.963 " />
            <path fill="none" stroke-width="3.0" stroke-linecap="butt" stroke-opacity="1.0" stroke="rgb(0, 0, 0)" stroke-linejoin="round" d=" M 274.963, 749.037 274.963, 739.037 274.963, 729.037 274.963, 725.333 " />
            <path fill="none" stroke-width="3.0" stroke-linecap="butt" stroke-opacity="1.0" stroke="rgb(0, 0, 0)" stroke-linejoin="round" d=" M 274.963, 749.037 284.963, 749.037 294.963, 749.037 304.963, 749.037 314.963, 749.037 324.963, 749.037 334.963, 749.037 344.963, 749.037 354.963, 749.037 364.963, 749.037 374.963, 749.037 384.963, 749.037 394.963, 749.037 404.963, 749.037 414.963, 749.037 424.963, 749.037 434.963, 749.037 444.963, 749.037 454.963, 749.037 464.963, 749.037 474.963, 749.037 484.963, 749.037 494.963, 749.037 504.963, 749.037 514.963, 749.037 524.963, 749.037 534.963, 749.037 544.963, 749.037 554.963, 749.037 564.963, 749.037 574.963, 749.037 584.963, 749.037 594.963, 749.037 604.963, 749.037 614.963, 749.037 624.963, 749.037 634.963, 749.037 644.963, 749.037 654.963, 749.037 664.963, 749.037 674.963, 749.037 684.963, 749.037 694.963, 749.037 704.963, 749.037 714.963, 749.037 724.963, 749.037 734.963, 749.037 749.037, 749.037 " />
            <path fill="none" stroke-width="3.0" stroke-linecap="butt" stroke-opacity="1.0" stroke="rgb(0, 0, 0)" stroke-linejoin="round" d=" M 274.963, 725.333 284.963, 725.333 294.963, 725.333 304.963, 725.333 314.963, 725.333 324.963, 725.333 334.963, 725.333 344.963, 725.333 354.963, 725.333 364.963, 725.333 374.963, 725.333 384.963, 725.333 394.963, 725.333 404.963, 725.333 414.963, 725.333 424.963, 725.333 434.963, 725.333 444.963, 725.333 454.963, 725.333 464.963, 725.333 474.963, 725.333 484.963, 725.333 494.963, 725.333 504.963, 725.333 514.963, 725.333 524.963, 725.333 534.963, 725.333 544.963, 725.333 554.963, 725.333 564.963, 725.333 574.963, 725.333 584.963, 725.333 594.963, 725.333 604.963, 725.333 614.963, 725.333 624.963, 725.333 634.963, 725.333 644.963, 725.333 654.963, 725.333 664.963, 725.333 674.963, 725.333 684.963, 725.333 694.963, 725.333 704.963, 725.333 714.963, 725.333 724.963, 725.333 734.963, 725.333 749.037, 725.333 " />
            <path fill="none" stroke-width="3.0" stroke-linecap="butt" stroke-opacity="1.0" stroke="rgb(0, 0, 0)" stroke-linejoin="round" d=" M 749.037, 677.926 739.037, 677.926 729.037, 677.926 719.037, 677.926 709.037, 677.926 699.037, 677.926 689.037, 677.926 679.037, 677.926 669.037, 677.926 659.037, 677.926 649.037, 677.926 639.037, 677.926 629.037, 677.926 619.037, 677.926 609.037, 677.926 599.037, 677.926 589.037, 677.926 579.037, 677.926 569.037, 677.926 559.037, 677.926 549.037, 677.926 539.037, 677.926 529.037, 677.926 519.037, 677.926 509.037, 677.926 499.037, 677.926 489.037, 677.926 479.037, 677.926 469.037, 677.926 459.037, 677.926 449.037, 677.926 439.037, 677.926 429.037, 677.926 419.037, 677.926 409.037, 677.926 399.037, 677.926 389.037, 677.926 379.037, 677.926 369.037, 677.926 359.037, 677.926 349.037, 677.926 339.037, 677.926 329.037, 677.926 319.037, 677.926 309.037, 677.926 299.037, 677.926 289.037, 677.926 274.963, 677.926 " />
            <path fill="none" stroke-width="3.0" stroke-linecap="butt" stroke-opacity="1.0" stroke="rgb(0, 0, 0)" stroke-linejoin="round" d=" M 749.037, 274.963 739.037, 274.963 729.037, 274.963 719.037, 274.963 709.037, 274.963 699.037, 274.963 689.037, 274.963 679.037, 274.963 669.037, 274.963 659.037, 274.963 649.037, 274.963 639.037, 274.963 629.037, 274.963 619.037, 274.963 609.037, 274.963 599.037, 274.963 589.037, 274.963 579.037, 274.963 569.037, 274.963 559.037, 274.963 549.037, 274.963 539.037, 274.963 529.037, 274.963 519.037, 274.963 509.037, 274.963 499.037, 274.963 489.037, 274.963 479.037, 274.963 469.037, 274.963 459.037, 274.963 449.037, 274.963 439.037, 274.963 429.037, 274.963 419.037, 274.963 409.037, 274.963 399.037, 274.963 389.037, 274.963 379.037, 274.963 369.037, 274.963 359.037, 274.963 349.037, 274.963 339.037, 274.963 329.037, 274.963 319.037, 274.963 309.037, 274.963 299.037, 274.963 289.037, 274.963 274.963, 274.963 " />
            <path fill="none" stroke-width="3.0" stroke-linecap="butt" stroke-opacity="1.0" stroke="rgb(0, 0, 0)" stroke-linejoin="round" d=" M 749.037, 725.333 749.037, 735.333 749.037, 745.333 749.037, 749.037 " />
            <path fill="none" stroke-width="3.0" stroke-linecap="butt" stroke-opacity="1.0" stroke="rgb(0, 0, 0)" stroke-linejoin="round" d=" M 749.037, 274.963 749.037, 284.963 749.037, 294.963 749.037, 304.963 749.037, 314.963 749.037, 324.963 749.037, 334.963 749.037, 344.963 749.037, 354.963 749.037, 364.963 749.037, 374.963 749.037, 384.963 749.037, 394.963 749.037, 404.963 749.037, 414.963 749.037, 424.963 749.037, 434.963 749.037, 444.963 749.037, 454.963 749.037, 464.963 749.037, 474.963 749.037, 484.963 749.037, 494.963 749.037, 504.963 749.037, 514.963 749.037, 524.963 749.037, 534.963 749.037, 544.963 749.037, 554.963 749.037, 564.963 749.037, 574.963 749.037, 584.963 749.037, 594.963 749.037, 604.963 749.037, 614.963 749.037, 624.963 749.037, 634.963 749.037, 644.963 749.037, 654.963 749.037, 664.963 749.037, 677.926 " />
            <path fill="none" stroke-width="3.0" stroke-linecap="butt" stroke-opacity="1.0" stroke="rgb(0, 0, 0)" stroke-linejoin="round" d=" M 749.037, 749.037 759.037, 749.037 769.037, 749.037 779.037, 749.037 789.037, 749.037 796.444, 749.037 " />
            <path fill="none" stroke-width="3.0" stroke-linecap="butt" stroke-opacity="1.0" stroke="rgb(0, 0, 0)" stroke-linejoin="round" d=" M 796.444, 274.963 786.444, 274.963 776.444, 274.963 766.444, 274.963 756.444, 274.963 749.037, 274.963 " />
        </g>
    </g>
    <g id="ViewLayer_TechnicalLines.001" inkscape:groupmode="lineset" inkscape:label="ViewLayer_TechnicalLines.001">
        <g inkscape:groupmode="layer" id="strokes" inkscape:label="strokes">
            <path fill="none" stroke-width="1.5" stroke-linecap="round" stroke-opacity="1.0" stroke="rgb(0, 0, 0)" stroke-linejoin="round" d=" M 274.963, 677.926 274.963, 687.926 274.963, 697.926 274.963, 707.926 274.963, 717.926 274.963, 725.333 " />
            <path fill="none" stroke-width="1.5" stroke-linecap="round" stroke-opacity="1.0" stroke="rgb(0, 0, 0)" stroke-linejoin="round" d=" M 749.037, 725.333 749.037, 715.333 749.037, 705.333 749.037, 695.333 749.037, 685.333 749.037, 677.926 " />
            <path fill="none" stroke-width="1.5" stroke-linecap="round" stroke-opacity="1.0" stroke="rgb(0, 0, 0)" stroke-linejoin="round" d=" M 227.556, 274.963 227.556, 284.963 227.556, 294.963 227.556, 304.963 227.556, 314.963 227.556, 324.963 227.556, 334.963 227.556, 344.963 227.556, 354.963 227.556, 364.963 227.556, 374.963 227.556, 384.963 227.556, 394.963 227.556, 404.963 227.556, 414.963 227.556, 424.963 227.556, 434.963 227.556, 444.963 227.556, 454.963 227.556, 464.963 227.556, 474.963 227.556, 484.963 227.556, 494.963 227.556, 504.963 227.556, 514.963 227.556, 524.963 227.556, 534.963 227.556, 544.963 227.556, 554.963 227.556, 564.963 227.556, 574.963 227.556, 584.963 227.556, 594.963 227.556, 604.963 227.556, 614.963 227.556, 624.963 227.556, 634.963 227.556, 644.963 227.556, 654.963 227.556, 664.963 227.556, 674.963 227.556, 684.963 227.556, 694.963 227.556, 704.963 227.556, 714.963 227.556, 724.963 227.556, 734.963 227.556, 749.037 237.556, 749.037 247.556, 749.037 257.556, 749.037 267.556, 749.037 274.963, 749.037 " />
            <path fill="none" stroke-width="1.5" stroke-linecap="round" stroke-opacity="1.0" stroke="rgb(0, 0, 0)" stroke-linejoin="round" d=" M 796.444, 749.037 796.444, 739.037 796.444, 729.037 796.444, 719.037 796.444, 709.037 796.444, 699.037 796.444, 689.037 796.444, 679.037 796.444, 669.037 796.444, 659.037 796.444, 649.037 796.444, 639.037 796.444, 629.037 796.444, 619.037 796.444, 609.037 796.444, 599.037 796.444, 589.037 796.444, 579.037 796.444, 569.037 796.444, 559.037 796.444, 549.037 796.444, 539.037 796.444, 529.037 796.444, 519.037 796.444, 509.037 796.444, 499.037 796.444, 489.037 796.444, 479.037 796.444, 469.037 796.444, 459.037 796.444, 449.037 796.444, 439.037 796.444, 429.037 796.444, 419.037 796.444, 409.037 796.444, 399.037 796.444, 389.037 796.444, 379.037 796.444, 369.037 796.444, 359.037 796.444, 349.037 796.444, 339.037 796.444, 329.037 796.444, 319.037 796.444, 309.037 796.444, 299.037 796.444, 289.037 796.444, 274.963 " />
            <path fill="none" stroke-width="1.5" stroke-linecap="round" stroke-opacity="1.0" stroke="rgb(0, 0, 0)" stroke-linejoin="round" d=" M 274.963, 274.963 264.963, 274.963 254.963, 274.963 244.963, 274.963 234.963, 274.963 227.556, 274.963 " />
            <path fill="none" stroke-width="1.5" stroke-linecap="round" stroke-opacity="1.0" stroke="rgb(0, 0, 0)" stroke-linejoin="round" d=" M 274.963, 677.926 274.963, 667.926 274.963, 657.926 274.963, 647.926 274.963, 637.926 274.963, 627.926 274.963, 617.926 274.963, 607.926 274.963, 597.926 274.963, 587.926 274.963, 577.926 274.963, 567.926 274.963, 557.926 274.963, 547.926 274.963, 537.926 274.963, 527.926 274.963, 517.926 274.963, 507.926 274.963, 497.926 274.963, 487.926 274.963, 477.926 274.963, 467.926 274.963, 457.926 274.963, 447.926 274.963, 437.926 274.963, 427.926 274.963, 417.926 274.963, 407.926 274.963, 397.926 274.963, 387.926 274.963, 377.926 274.963, 367.926 274.963, 357.926 274.963, 347.926 274.963, 337.926 274.963, 327.926 274.963, 317.926 274.963, 307.926 274.963, 297.926 274.963, 287.926 274.963, 274.963 " />
            <path fill="none" stroke-width="1.5" stroke-linecap="round" stroke-opacity="1.0" stroke="rgb(0, 0, 0)" stroke-linejoin="round" d=" M 274.963, 749.037 274.963, 739.037 274.963, 729.037 274.963, 725.333 " />
            <path fill="none" stroke-width="1.5" stroke-linecap="round" stroke-opacity="1.0" stroke="rgb(0, 0, 0)" stroke-linejoin="round" d=" M 274.963, 749.037 284.963, 749.037 294.963, 749.037 304.963, 749.037 314.963, 749.037 324.963, 749.037 334.963, 749.037 344.963, 749.037 354.963, 749.037 364.963, 749.037 374.963, 749.037 384.963, 749.037 394.963, 749.037 404.963, 749.037 414.963, 749.037 424.963, 749.037 434.963, 749.037 444.963, 749.037 454.963, 749.037 464.963, 749.037 474.963, 749.037 484.963, 749.037 494.963, 749.037 504.963, 749.037 514.963, 749.037 524.963, 749.037 534.963, 749.037 544.963, 749.037 554.963, 749.037 564.963, 749.037 574.963, 749.037 584.963, 749.037 594.963, 749.037 604.963, 749.037 614.963, 749.037 624.963, 749.037 634.963, 749.037 644.963, 749.037 654.963, 749.037 664.963, 749.037 674.963, 749.037 684.963, 749.037 694.963, 749.037 704.963, 749.037 714.963, 749.037 724.963, 749.037 734.963, 749.037 749.037, 749.037 " />
            <path fill="none" stroke-width="1.5" stroke-linecap="round" stroke-opacity="1.0" stroke="rgb(0, 0, 0)" stroke-linejoin="round" d=" M 274.963, 725.333 284.963, 725.333 294.963, 725.333 304.963, 725.333 314.963, 725.333 324.963, 725.333 334.963, 725.333 344.963, 725.333 354.963, 725.333 364.963, 725.333 374.963, 725.333 384.963, 725.333 394.963, 725.333 404.963, 725.333 414.963, 725.333 424.963, 725.333 434.963, 725.333 444.963, 725.333 454.963, 725.333 464.963, 725.333 474.963, 725.333 484.963, 725.333 494.963, 725.333 504.963, 725.333 514.963, 725.333 524.963, 725.333 534.963, 725.333 544.963, 725.333 554.963, 725.333 564.963, 725.333 574.963, 725.333 584.963, 725.333 594.963, 725.333 604.963, 725.333 614.963, 725.333 624.963, 725.333 634.963, 725.333 644.963, 725.333 654.963, 725.333 664.963, 725.333 674.963, 725.333 684.963, 725.333 694.963, 725.333 704.963, 725.333 714.963, 725.333 724.963, 725.333 734.963, 725.333 749.037, 725.333 " />
            <path fill="none" stroke-width="1.5" stroke-linecap="round" stroke-opacity="1.0" stroke="rgb(0, 0, 0)" stroke-linejoin="round" d=" M 749.037, 677.926 739.037, 677.926 729.037, 677.926 719.037, 677.926 709.037, 677.926 699.037, 677.926 689.037, 677.926 679.037, 677.926 669.037, 677.926 659.037, 677.926 649.037, 677.926 639.037, 677.926 629.037, 677.926 619.037, 677.926 609.037, 677.926 599.037, 677.926 589.037, 677.926 579.037, 677.926 569.037, 677.926 559.037, 677.926 549.037, 677.926 539.037, 677.926 529.037, 677.926 519.037, 677.926 509.037, 677.926 499.037, 677.926 489.037, 677.926 479.037, 677.926 469.037, 677.926 459.037, 677.926 449.037, 677.926 439.037, 677.926 429.037, 677.926 419.037, 677.926 409.037, 677.926 399.037, 677.926 389.037, 677.926 379.037, 677.926 369.037, 677.926 359.037, 677.926 349.037, 677.926 339.037, 677.926 329.037, 677.926 319.037, 677.926 309.037, 677.926 299.037, 677.926 289.037, 677.926 274.963, 677.926 " />
            <path fill="none" stroke-width="1.5" stroke-linecap="round" stroke-opacity="1.0" stroke="rgb(0, 0, 0)" stroke-linejoin="round" d=" M 749.037, 274.963 739.037, 274.963 729.037, 274.963 719.037, 274.963 709.037, 274.963 699.037, 274.963 689.037, 274.963 679.037, 274.963 669.037, 274.963 659.037, 274.963 649.037, 274.963 639.037, 274.963 629.037, 274.963 619.037, 274.963 609.037, 274.963 599.037, 274.963 589.037, 274.963 579.037, 274.963 569.037, 274.963 559.037, 274.963 549.037, 274.963 539.037, 274.963 529.037, 274.963 519.037, 274.963 509.037, 274.963 499.037, 274.963 489.037, 274.963 479.037, 274.963 469.037, 274.963 459.037, 274.963 449.037, 274.963 439.037, 274.963 429.037, 274.963 419.037, 274.963 409.037, 274.963 399.037, 274.963 389.037, 274.963 379.037, 274.963 369.037, 274.963 359.037, 274.963 349.037, 274.963 339.037, 274.963 329.037, 274.963 319.037, 274.963 309.037, 274.963 299.037, 274.963 289.037, 274.963 274.963, 274.963 " />
            <path fill="none" stroke-width="1.5" stroke-linecap="round" stroke-opacity="1.0" stroke="rgb(0, 0, 0)" stroke-linejoin="round" d=" M 749.037, 725.333 749.037, 735.333 749.037, 745.333 749.037, 749.037 " />
            <path fill="none" stroke-width="1.5" stroke-linecap="round" stroke-opacity="1.0" stroke="rgb(0, 0, 0)" stroke-linejoin="round" d=" M 749.037, 274.963 749.037, 284.963 749.037, 294.963 749.037, 304.963 749.037, 314.963 749.037, 324.963 749.037, 334.963 749.037, 344.963 749.037, 354.963 749.037, 364.963 749.037, 374.963 749.037, 384.963 749.037, 394.963 749.037, 404.963 749.037, 414.963 749.037, 424.963 749.037, 434.963 749.037, 444.963 749.037, 454.963 749.037, 464.963 749.037, 474.963 749.037, 484.963 749.037, 494.963 749.037, 504.963 749.037, 514.963 749.037, 524.963 749.037, 534.963 749.037, 544.963 749.037, 554.963 749.037, 564.963 749.037, 574.963 749.037, 584.963 749.037, 594.963 749.037, 604.963 749.037, 614.963 749.037, 624.963 749.037, 634.963 749.037, 644.963 749.037, 654.963 749.037, 664.963 749.037, 677.926 " />
            <path fill="none" stroke-width="1.5" stroke-linecap="round" stroke-opacity="1.0" stroke="rgb(0, 0, 0)" stroke-linejoin="round" d=" M 749.037, 749.037 759.037, 749.037 769.037, 749.037 779.037, 749.037 789.037, 749.037 796.444, 749.037 " />
            <path fill="none" stroke-width="1.5" stroke-linecap="round" stroke-opacity="1.0" stroke="rgb(0, 0, 0)" stroke-linejoin="round" d=" M 796.444, 274.963 786.444, 274.963 776.444, 274.963 766.444, 274.963 756.444, 274.963 749.037, 274.963 " />
        </g>
    </g>
    <g id="ViewLayer_TechnicalLines.002" inkscape:groupmode="lineset" inkscape:label="ViewLayer_TechnicalLines.002">
        <g inkscape:groupmode="layer" id="strokes" inkscape:label="strokes">
            <path fill="none" stroke-width="1.5" stroke-linecap="round" stroke-opacity="1.0" stroke="rgb(0, 0, 0)" stroke-linejoin="round" d=" M 274.963, 677.926 274.963, 687.926 274.963, 697.926 274.963, 707.926 274.963, 717.926 274.963, 725.333 " />
            <path fill="none" stroke-width="1.5" stroke-linecap="round" stroke-opacity="1.0" stroke="rgb(0, 0, 0)" stroke-linejoin="round" d=" M 749.037, 725.333 749.037, 715.333 749.037, 705.333 749.037, 695.333 749.037, 685.333 749.037, 677.926 " />
            <path fill="none" stroke-width="1.5" stroke-linecap="round" stroke-opacity="1.0" stroke="rgb(0, 0, 0)" stroke-linejoin="round" d=" M 227.556, 274.963 227.556, 284.963 227.556, 294.963 227.556, 304.963 227.556, 314.963 227.556, 324.963 227.556, 334.963 227.556, 344.963 227.556, 354.963 227.556, 364.963 227.556, 374.963 227.556, 384.963 227.556, 394.963 227.556, 404.963 227.556, 414.963 227.556, 424.963 227.556, 434.963 227.556, 444.963 227.556, 454.963 227.556, 464.963 227.556, 474.963 227.556, 484.963 227.556, 494.963 227.556, 504.963 227.556, 514.963 227.556, 524.963 227.556, 534.963 227.556, 544.963 227.556, 554.963 227.556, 564.963 227.556, 574.963 227.556, 584.963 227.556, 594.963 227.556, 604.963 227.556, 614.963 227.556, 624.963 227.556, 634.963 227.556, 644.963 227.556, 654.963 227.556, 664.963 227.556, 674.963 227.556, 684.963 227.556, 694.963 227.556, 704.963 227.556, 714.963 227.556, 724.963 227.556, 734.963 227.556, 749.037 237.556, 749.037 247.556, 749.037 257.556, 749.037 267.556, 749.037 274.963, 749.037 " />
            <path fill="none" stroke-width="1.5" stroke-linecap="round" stroke-opacity="1.0" stroke="rgb(0, 0, 0)" stroke-linejoin="round" d=" M 796.444, 749.037 796.444, 739.037 796.444, 729.037 796.444, 719.037 796.444, 709.037 796.444, 699.037 796.444, 689.037 796.444, 679.037 796.444, 669.037 796.444, 659.037 796.444, 649.037 796.444, 639.037 796.444, 629.037 796.444, 619.037 796.444, 609.037 796.444, 599.037 796.444, 589.037 796.444, 579.037 796.444, 569.037 796.444, 559.037 796.444, 549.037 796.444, 539.037 796.444, 529.037 796.444, 519.037 796.444, 509.037 796.444, 499.037 796.444, 489.037 796.444, 479.037 796.444, 469.037 796.444, 459.037 796.444, 449.037 796.444, 439.037 796.444, 429.037 796.444, 419.037 796.444, 409.037 796.444, 399.037 796.444, 389.037 796.444, 379.037 796.444, 369.037 796.444, 359.037 796.444, 349.037 796.444, 339.037 796.444, 329.037 796.444, 319.037 796.444, 309.037 796.444, 299.037 796.444, 289.037 796.444, 274.963 " />
            <path fill="none" stroke-width="1.5" stroke-linecap="round" stroke-opacity="1.0" stroke="rgb(0, 0, 0)" stroke-linejoin="round" d=" M 274.963, 274.963 264.963, 274.963 254.963, 274.963 244.963, 274.963 234.963, 274.963 227.556, 274.963 " />
            <path fill="none" stroke-width="1.5" stroke-linecap="round" stroke-opacity="1.0" stroke="rgb(0, 0, 0)" stroke-linejoin="round" d=" M 274.963, 677.926 274.963, 667.926 274.963, 657.926 274.963, 647.926 274.963, 637.926 274.963, 627.926 274.963, 617.926 274.963, 607.926 274.963, 597.926 274.963, 587.926 274.963, 577.926 274.963, 567.926 274.963, 557.926 274.963, 547.926 274.963, 537.926 274.963, 527.926 274.963, 517.926 274.963, 507.926 274.963, 497.926 274.963, 487.926 274.963, 477.926 274.963, 467.926 274.963, 457.926 274.963, 447.926 274.963, 437.926 274.963, 427.926 274.963, 417.926 274.963, 407.926 274.963, 397.926 274.963, 387.926 274.963, 377.926 274.963, 367.926 274.963, 357.926 274.963, 347.926 274.963, 337.926 274.963, 327.926 274.963, 317.926 274.963, 307.926 274.963, 297.926 274.963, 287.926 274.963, 274.963 " />
            <path fill="none" stroke-width="1.5" stroke-linecap="round" stroke-opacity="1.0" stroke="rgb(0, 0, 0)" stroke-linejoin="round" d=" M 274.963, 749.037 274.963, 739.037 274.963, 729.037 274.963, 725.333 " />
            <path fill="none" stroke-width="1.5" stroke-linecap="round" stroke-opacity="1.0" stroke="rgb(0, 0, 0)" stroke-linejoin="round" d=" M 274.963, 749.037 284.963, 749.037 294.963, 749.037 304.963, 749.037 314.963, 749.037 324.963, 749.037 334.963, 749.037 344.963, 749.037 354.963, 749.037 364.963, 749.037 374.963, 749.037 384.963, 749.037 394.963, 749.037 404.963, 749.037 414.963, 749.037 424.963, 749.037 434.963, 749.037 444.963, 749.037 454.963, 749.037 464.963, 749.037 474.963, 749.037 484.963, 749.037 494.963, 749.037 504.963, 749.037 514.963, 749.037 524.963, 749.037 534.963, 749.037 544.963, 749.037 554.963, 749.037 564.963, 749.037 574.963, 749.037 584.963, 749.037 594.963, 749.037 604.963, 749.037 614.963, 749.037 624.963, 749.037 634.963, 749.037 644.963, 749.037 654.963, 749.037 664.963, 749.037 674.963, 749.037 684.963, 749.037 694.963, 749.037 704.963, 749.037 714.963, 749.037 724.963, 749.037 734.963, 749.037 749.037, 749.037 " />
            <path fill="none" stroke-width="1.5" stroke-linecap="round" stroke-opacity="1.0" stroke="rgb(0, 0, 0)" stroke-linejoin="round" d=" M 274.963, 725.333 284.963, 725.333 294.963, 725.333 304.963, 725.333 314.963, 725.333 324.963, 725.333 334.963, 725.333 344.963, 725.333 354.963, 725.333 364.963, 725.333 374.963, 725.333 384.963, 725.333 394.963, 725.333 404.963, 725.333 414.963, 725.333 424.963, 725.333 434.963, 725.333 444.963, 725.333 454.963, 725.333 464.963, 725.333 474.963, 725.333 484.963, 725.333 494.963, 725.333 504.963, 725.333 514.963, 725.333 524.963, 725.333 534.963, 725.333 544.963, 725.333 554.963, 725.333 564.963, 725.333 574.963, 725.333 584.963, 725.333 594.963, 725.333 604.963, 725.333 614.963, 725.333 624.963, 725.333 634.963, 725.333 644.963, 725.333 654.963, 725.333 664.963, 725.333 674.963, 725.333 684.963, 725.333 694.963, 725.333 704.963, 725.333 714.963, 725.333 724.963, 725.333 734.963, 725.333 749.037, 725.333 " />
            <path fill="none" stroke-width="1.5" stroke-linecap="round" stroke-opacity="1.0" stroke="rgb(0, 0, 0)" stroke-linejoin="round" d=" M 749.037, 677.926 739.037, 677.926 729.037, 677.926 719.037, 677.926 709.037, 677.926 699.037, 677.926 689.037, 677.926 679.037, 677.926 669.037, 677.926 659.037, 677.926 649.037, 677.926 639.037, 677.926 629.037, 677.926 619.037, 677.926 609.037, 677.926 599.037, 677.926 589.037, 677.926 579.037, 677.926 569.037, 677.926 559.037, 677.926 549.037, 677.926 539.037, 677.926 529.037, 677.926 519.037, 677.926 509.037, 677.926 499.037, 677.926 489.037, 677.926 479.037, 677.926 469.037, 677.926 459.037, 677.926 449.037, 677.926 439.037, 677.926 429.037, 677.926 419.037, 677.926 409.037, 677.926 399.037, 677.926 389.037, 677.926 379.037, 677.926 369.037, 677.926 359.037, 677.926 349.037, 677.926 339.037, 677.926 329.037, 677.926 319.037, 677.926 309.037, 677.926 299.037, 677.926 289.037, 677.926 274.963, 677.926 " />
            <path fill="none" stroke-width="1.5" stroke-linecap="round" stroke-opacity="1.0" stroke="rgb(0, 0, 0)" stroke-linejoin="round" d=" M 749.037, 274.963 739.037, 274.963 729.037, 274.963 719.037, 274.963 709.037, 274.963 699.037, 274.963 689.037, 274.963 679.037, 274.963 669.037, 274.963 659.037, 274.963 649.037, 274.963 639.037, 274.963 629.037, 274.963 619.037, 274.963 609.037, 274.963 599.037, 274.963 589.037, 274.963 579.037, 274.963 569.037, 274.963 559.037, 274.963 549.037, 274.963 539.037, 274.963 529.037, 274.963 519.037, 274.963 509.037, 274.963 499.037, 274.963 489.037, 274.963 479.037, 274.963 469.037, 274.963 459.037, 274.963 449.037, 274.963 439.037, 274.963 429.037, 274.963 419.037, 274.963 409.037, 274.963 399.037, 274.963 389.037, 274.963 379.037, 274.963 369.037, 274.963 359.037, 274.963 349.037, 274.963 339.037, 274.963 329.037, 274.963 319.037, 274.963 309.037, 274.963 299.037, 274.963 289.037, 274.963 274.963, 274.963 " />
            <path fill="none" stroke-width="1.5" stroke-linecap="round" stroke-opacity="1.0" stroke="rgb(0, 0, 0)" stroke-linejoin="round" d=" M 749.037, 725.333 749.037, 735.333 749.037, 745.333 749.037, 749.037 " />
            <path fill="none" stroke-width="1.5" stroke-linecap="round" stroke-opacity="1.0" stroke="rgb(0, 0, 0)" stroke-linejoin="round" d=" M 749.037, 274.963 749.037, 284.963 749.037, 294.963 749.037, 304.963 749.037, 314.963 749.037, 324.963 749.037, 334.963 749.037, 344.963 749.037, 354.963 749.037, 364.963 749.037, 374.963 749.037, 384.963 749.037, 394.963 749.037, 404.963 749.037, 414.963 749.037, 424.963 749.037, 434.963 749.037, 444.963 749.037, 454.963 749.037, 464.963 749.037, 474.963 749.037, 484.963 749.037, 494.963 749.037, 504.963 749.037, 514.963 749.037, 524.963 749.037, 534.963 749.037, 544.963 749.037, 554.963 749.037, 564.963 749.037, 574.963 749.037, 584.963 749.037, 594.963 749.037, 604.963 749.037, 614.963 749.037, 624.963 749.037, 634.963 749.037, 644.963 749.037, 654.963 749.037, 664.963 749.037, 677.926 " />
            <path fill="none" stroke-width="1.5" stroke-linecap="round" stroke-opacity="1.0" stroke="rgb(0, 0, 0)" stroke-linejoin="round" d=" M 749.037, 749.037 759.037, 749.037 769.037, 749.037 779.037, 749.037 789.037, 749.037 796.444, 749.037 " />
            <path fill="none" stroke-width="1.5" stroke-linecap="round" stroke-opacity="1.0" stroke="rgb(0, 0, 0)" stroke-linejoin="round" d=" M 796.444, 274.963 786.444, 274.963 776.444, 274.963 766.444, 274.963 756.444, 274.963 749.037, 274.963 " />
        </g>
    </g>
    <g id="ViewLayer_TechnicalLines.003" inkscape:groupmode="lineset" inkscape:label="ViewLayer_TechnicalLines.003">
        <g inkscape:groupmode="layer" id="strokes" inkscape:label="strokes">
            <path fill="none" stroke-width="1.5" stroke-linecap="round" stroke-opacity="1.0" stroke="rgb(0, 0, 0)" stroke-linejoin="round" d=" M 274.963, 677.926 274.963, 687.926 274.963, 697.926 274.963, 707.926 274.963, 717.926 274.963, 725.333 " />
            <path fill="none" stroke-width="1.5" stroke-linecap="round" stroke-opacity="1.0" stroke="rgb(0, 0, 0)" stroke-linejoin="round" d=" M 749.037, 725.333 749.037, 715.333 749.037, 705.333 749.037, 695.333 749.037, 685.333 749.037, 677.926 " />
            <path fill="none" stroke-width="1.5" stroke-linecap="round" stroke-opacity="1.0" stroke="rgb(0, 0, 0)" stroke-linejoin="round" d=" M 227.556, 274.963 227.556, 284.963 227.556, 294.963 227.556, 304.963 227.556, 314.963 227.556, 324.963 227.556, 334.963 227.556, 344.963 227.556, 354.963 227.556, 364.963 227.556, 374.963 227.556, 384.963 227.556, 394.963 227.556, 404.963 227.556, 414.963 227.556, 424.963 227.556, 434.963 227.556, 444.963 227.556, 454.963 227.556, 464.963 227.556, 474.963 227.556, 484.963 227.556, 494.963 227.556, 504.963 227.556, 514.963 227.556, 524.963 227.556, 534.963 227.556, 544.963 227.556, 554.963 227.556, 564.963 227.556, 574.963 227.556, 584.963 227.556, 594.963 227.556, 604.963 227.556, 614.963 227.556, 624.963 227.556, 634.963 227.556, 644.963 227.556, 654.963 227.556, 664.963 227.556, 674.963 227.556, 684.963 227.556, 694.963 227.556, 704.963 227.556, 714.963 227.556, 724.963 227.556, 734.963 227.556, 749.037 237.556, 749.037 247.556, 749.037 257.556, 749.037 267.556, 749.037 274.963, 749.037 " />
            <path fill="none" stroke-width="1.5" stroke-linecap="round" stroke-opacity="1.0" stroke="rgb(0, 0, 0)" stroke-linejoin="round" d=" M 796.444, 749.037 796.444, 739.037 796.444, 729.037 796.444, 719.037 796.444, 709.037 796.444, 699.037 796.444, 689.037 796.444, 679.037 796.444, 669.037 796.444, 659.037 796.444, 649.037 796.444, 639.037 796.444, 629.037 796.444, 619.037 796.444, 609.037 796.444, 599.037 796.444, 589.037 796.444, 579.037 796.444, 569.037 796.444, 559.037 796.444, 549.037 796.444, 539.037 796.444, 529.037 796.444, 519.037 796.444, 509.037 796.444, 499.037 796.444, 489.037 796.444, 479.037 796.444, 469.037 796.444, 459.037 796.444, 449.037 796.444, 439.037 796.444, 429.037 796.444, 419.037 796.444, 409.037 796.444, 399.037 796.444, 389.037 796.444, 379.037 796.444, 369.037 796.444, 359.037 796.444, 349.037 796.444, 339.037 796.444, 329.037 796.444, 319.037 796.444, 309.037 796.444, 299.037 796.444, 289.037 796.444, 274.963 " />
            <path fill="none" stroke-width="1.5" stroke-linecap="round" stroke-opacity="1.0" stroke="rgb(0, 0, 0)" stroke-linejoin="round" d=" M 274.963, 274.963 264.963, 274.963 254.963, 274.963 244.963, 274.963 234.963, 274.963 227.556, 274.963 " />
            <path fill="none" stroke-width="1.5" stroke-linecap="round" stroke-opacity="1.0" stroke="rgb(0, 0, 0)" stroke-linejoin="round" d=" M 274.963, 677.926 274.963, 667.926 274.963, 657.926 274.963, 647.926 274.963, 637.926 274.963, 627.926 274.963, 617.926 274.963, 607.926 274.963, 597.926 274.963, 587.926 274.963, 577.926 274.963, 567.926 274.963, 557.926 274.963, 547.926 274.963, 537.926 274.963, 527.926 274.963, 517.926 274.963, 507.926 274.963, 497.926 274.963, 487.926 274.963, 477.926 274.963, 467.926 274.963, 457.926 274.963, 447.926 274.963, 437.926 274.963, 427.926 274.963, 417.926 274.963, 407.926 274.963, 397.926 274.963, 387.926 274.963, 377.926 274.963, 367.926 274.963, 357.926 274.963, 347.926 274.963, 337.926 274.963, 327.926 274.963, 317.926 274.963, 307.926 274.963, 297.926 274.963, 287.926 274.963, 274.963 " />
            <path fill="none" stroke-width="1.5" stroke-linecap="round" stroke-opacity="1.0" stroke="rgb(0, 0, 0)" stroke-linejoin="round" d=" M 274.963, 749.037 274.963, 739.037 274.963, 729.037 274.963, 725.333 " />
            <path fill="none" stroke-width="1.5" stroke-linecap="round" stroke-opacity="1.0" stroke="rgb(0, 0, 0)" stroke-linejoin="round" d=" M 274.963, 749.037 284.963, 749.037 294.963, 749.037 304.963, 749.037 314.963, 749.037 324.963, 749.037 334.963, 749.037 344.963, 749.037 354.963, 749.037 364.963, 749.037 374.963, 749.037 384.963, 749.037 394.963, 749.037 404.963, 749.037 414.963, 749.037 424.963, 749.037 434.963, 749.037 444.963, 749.037 454.963, 749.037 464.963, 749.037 474.963, 749.037 484.963, 749.037 494.963, 749.037 504.963, 749.037 514.963, 749.037 524.963, 749.037 534.963, 749.037 544.963, 749.037 554.963, 749.037 564.963, 749.037 574.963, 749.037 584.963, 749.037 594.963, 749.037 604.963, 749.037 614.963, 749.037 624.963, 749.037 634.963, 749.037 644.963, 749.037 654.963, 749.037 664.963, 749.037 674.963, 749.037 684.963, 749.037 694.963, 749.037 704.963, 749.037 714.963, 749.037 724.963, 749.037 734.963, 749.037 749.037, 749.037 " />
            <path fill="none" stroke-width="1.5" stroke-linecap="round" stroke-opacity="1.0" stroke="rgb(0, 0, 0)" stroke-linejoin="round" d=" M 274.963, 725.333 284.963, 725.333 294.963, 725.333 304.963, 725.333 314.963, 725.333 324.963, 725.333 334.963, 725.333 344.963, 725.333 354.963, 725.333 364.963, 725.333 374.963, 725.333 384.963, 725.333 394.963, 725.333 404.963, 725.333 414.963, 725.333 424.963, 725.333 434.963, 725.333 444.963, 725.333 454.963, 725.333 464.963, 725.333 474.963, 725.333 484.963, 725.333 494.963, 725.333 504.963, 725.333 514.963, 725.333 524.963, 725.333 534.963, 725.333 544.963, 725.333 554.963, 725.333 564.963, 725.333 574.963, 725.333 584.963, 725.333 594.963, 725.333 604.963, 725.333 614.963, 725.333 624.963, 725.333 634.963, 725.333 644.963, 725.333 654.963, 725.333 664.963, 725.333 674.963, 725.333 684.963, 725.333 694.963, 725.333 704.963, 725.333 714.963, 725.333 724.963, 725.333 734.963, 725.333 749.037, 725.333 " />
            <path fill="none" stroke-width="1.5" stroke-linecap="round" stroke-opacity="1.0" stroke="rgb(0, 0, 0)" stroke-linejoin="round" d=" M 749.037, 677.926 739.037, 677.926 729.037, 677.926 719.037, 677.926 709.037, 677.926 699.037, 677.926 689.037, 677.926 679.037, 677.926 669.037, 677.926 659.037, 677.926 649.037, 677.926 639.037, 677.926 629.037, 677.926 619.037, 677.926 609.037, 677.926 599.037, 677.926 589.037, 677.926 579.037, 677.926 569.037, 677.926 559.037, 677.926 549.037, 677.926 539.037, 677.926 529.037, 677.926 519.037, 677.926 509.037, 677.926 499.037, 677.926 489.037, 677.926 479.037, 677.926 469.037, 677.926 459.037, 677.926 449.037, 677.926 439.037, 677.926 429.037, 677.926 419.037, 677.926 409.037, 677.926 399.037, 677.926 389.037, 677.926 379.037, 677.926 369.037, 677.926 359.037, 677.926 349.037, 677.926 339.037, 677.926 329.037, 677.926 319.037, 677.926 309.037, 677.926 299.037, 677.926 289.037, 677.926 274.963, 677.926 " />
            <path fill="none" stroke-width="1.5" stroke-linecap="round" stroke-opacity="1.0" stroke="rgb(0, 0, 0)" stroke-linejoin="round" d=" M 749.037, 274.963 739.037, 274.963 729.037, 274.963 719.037, 274.963 709.037, 274.963 699.037, 274.963 689.037, 274.963 679.037, 274.963 669.037, 274.963 659.037, 274.963 649.037, 274.963 639.037, 274.963 629.037, 274.963 619.037, 274.963 609.037, 274.963 599.037, 274.963 589.037, 274.963 579.037, 274.963 569.037, 274.963 559.037, 274.963 549.037, 274.963 539.037, 274.963 529.037, 274.963 519.037, 274.963 509.037, 274.963 499.037, 274.963 489.037, 274.963 479.037, 274.963 469.037, 274.963 459.037, 274.963 449.037, 274.963 439.037, 274.963 429.037, 274.963 419.037, 274.963 409.037, 274.963 399.037, 274.963 389.037, 274.963 379.037, 274.963 369.037, 274.963 359.037, 274.963 349.037, 274.963 339.037, 274.963 329.037, 274.963 319.037, 274.963 309.037, 274.963 299.037, 274.963 289.037, 274.963 274.963, 274.963 " />
            <path fill="none" stroke-width="1.5" stroke-linecap="round" stroke-opacity="1.0" stroke="rgb(0, 0, 0)" stroke-linejoin="round" d=" M 749.037, 725.333 749.037, 735.333 749.037, 745.333 749.037, 749.037 " />
            <path fill="none" stroke-width="1.5" stroke-linecap="round" stroke-opacity="1.0" stroke="rgb(0, 0, 0)" stroke-linejoin="round" d=" M 749.037, 274.963 749.037, 284.963 749.037, 294.963 749.037, 304.963 749.037, 314.963 749.037, 324.963 749.037, 334.963 749.037, 344.963 749.037, 354.963 749.037, 364.963 749.037, 374.963 749.037, 384.963 749.037, 394.963 749.037, 404.963 749.037, 414.963 749.037, 424.963 749.037, 434.963 749.037, 444.963 749.037, 454.963 749.037, 464.963 749.037, 474.963 749.037, 484.963 749.037, 494.963 749.037, 504.963 749.037, 514.963 749.037, 524.963 749.037, 534.963 749.037, 544.963 749.037, 554.963 749.037, 564.963 749.037, 574.963 749.037, 584.963 749.037, 594.963 749.037, 604.963 749.037, 614.963 749.037, 624.963 749.037, 634.963 749.037, 644.963 749.037, 654.963 749.037, 664.963 749.037, 677.926 " />
            <path fill="none" stroke-width="1.5" stroke-linecap="round" stroke-opacity="1.0" stroke="rgb(0, 0, 0)" stroke-linejoin="round" d=" M 749.037, 749.037 759.037, 749.037 769.037, 749.037 779.037, 749.037 789.037, 749.037 796.444, 749.037 " />
            <path fill="none" stroke-width="1.5" stroke-linecap="round" stroke-opacity="1.0" stroke="rgb(0, 0, 0)" stroke-linejoin="round" d=" M 796.444, 274.963 786.444, 274.963 776.444, 274.963 766.444, 274.963 756.444, 274.963 749.037, 274.963 " />
        </g>
    </g>
    <g id="ViewLayer_TechnicalLines.004" xmlns:inkscape="http://www.inkscape.org/namespaces/inkscape" inkscape:groupmode="lineset" inkscape:label="ViewLayer_TechnicalLines.004">
        <g xmlns:inkscape="http://www.inkscape.org/namespaces/inkscape" inkscape:groupmode="layer" id="strokes" inkscape:label="strokes">
            <path fill="none" stroke-width="1.5" stroke-linecap="round" stroke-opacity="1.0" stroke="rgb(0, 0, 0)" stroke-linejoin="round" d=" M 274.963, 677.926 274.963, 687.926 274.963, 697.926 274.963, 707.926 274.963, 717.926 274.963, 725.333 " />
            <path fill="none" stroke-width="1.5" stroke-linecap="round" stroke-opacity="1.0" stroke="rgb(0, 0, 0)" stroke-linejoin="round" d=" M 749.037, 725.333 749.037, 715.333 749.037, 705.333 749.037, 695.333 749.037, 685.333 749.037, 677.926 " />
            <path fill="none" stroke-width="1.5" stroke-linecap="round" stroke-opacity="1.0" stroke="rgb(0, 0, 0)" stroke-linejoin="round" d=" M 227.556, 274.963 227.556, 284.963 227.556, 294.963 227.556, 304.963 227.556, 314.963 227.556, 324.963 227.556, 334.963 227.556, 344.963 227.556, 354.963 227.556, 364.963 227.556, 374.963 227.556, 384.963 227.556, 394.963 227.556, 404.963 227.556, 414.963 227.556, 424.963 227.556, 434.963 227.556, 444.963 227.556, 454.963 227.556, 464.963 227.556, 474.963 227.556, 484.963 227.556, 494.963 227.556, 504.963 227.556, 514.963 227.556, 524.963 227.556, 534.963 227.556, 544.963 227.556, 554.963 227.556, 564.963 227.556, 574.963 227.556, 584.963 227.556, 594.963 227.556, 604.963 227.556, 614.963 227.556, 624.963 227.556, 634.963 227.556, 644.963 227.556, 654.963 227.556, 664.963 227.556, 674.963 227.556, 684.963 227.556, 694.963 227.556, 704.963 227.556, 714.963 227.556, 724.963 227.556, 734.963 227.556, 749.037 237.556, 749.037 247.556, 749.037 257.556, 749.037 267.556, 749.037 274.963, 749.037 " />
            <path fill="none" stroke-width="1.5" stroke-linecap="round" stroke-opacity="1.0" stroke="rgb(0, 0, 0)" stroke-linejoin="round" d=" M 796.444, 749.037 796.444, 739.037 796.444, 729.037 796.444, 719.037 796.444, 709.037 796.444, 699.037 796.444, 689.037 796.444, 679.037 796.444, 669.037 796.444, 659.037 796.444, 649.037 796.444, 639.037 796.444, 629.037 796.444, 619.037 796.444, 609.037 796.444, 599.037 796.444, 589.037 796.444, 579.037 796.444, 569.037 796.444, 559.037 796.444, 549.037 796.444, 539.037 796.444, 529.037 796.444, 519.037 796.444, 509.037 796.444, 499.037 796.444, 489.037 796.444, 479.037 796.444, 469.037 796.444, 459.037 796.444, 449.037 796.444, 439.037 796.444, 429.037 796.444, 419.037 796.444, 409.037 796.444, 399.037 796.444, 389.037 796.444, 379.037 796.444, 369.037 796.444, 359.037 796.444, 349.037 796.444, 339.037 796.444, 329.037 796.444, 319.037 796.444, 309.037 796.444, 299.037 796.444, 289.037 796.444, 274.963 " />
            <path fill="none" stroke-width="1.5" stroke-linecap="round" stroke-opacity="1.0" stroke="rgb(0, 0, 0)" stroke-linejoin="round" d=" M 274.963, 274.963 264.963, 274.963 254.963, 274.963 244.963, 274.963 234.963, 274.963 227.556, 274.963 " />
            <path fill="none" stroke-width="1.5" stroke-linecap="round" stroke-opacity="1.0" stroke="rgb(0, 0, 0)" stroke-linejoin="round" d=" M 274.963, 677.926 274.963, 667.926 274.963, 657.926 274.963, 647.926 274.963, 637.926 274.963, 627.926 274.963, 617.926 274.963, 607.926 274.963, 597.926 274.963, 587.926 274.963, 577.926 274.963, 567.926 274.963, 557.926 274.963, 547.926 274.963, 537.926 274.963, 527.926 274.963, 517.926 274.963, 507.926 274.963, 497.926 274.963, 487.926 274.963, 477.926 274.963, 467.926 274.963, 457.926 274.963, 447.926 274.963, 437.926 274.963, 427.926 274.963, 417.926 274.963, 407.926 274.963, 397.926 274.963, 387.926 274.963, 377.926 274.963, 367.926 274.963, 357.926 274.963, 347.926 274.963, 337.926 274.963, 327.926 274.963, 317.926 274.963, 307.926 274.963, 297.926 274.963, 287.926 274.963, 274.963 " />
            <path fill="none" stroke-width="1.5" stroke-linecap="round" stroke-opacity="1.0" stroke="rgb(0, 0, 0)" stroke-linejoin="round" d=" M 274.963, 749.037 274.963, 739.037 274.963, 729.037 274.963, 725.333 " />
            <path fill="none" stroke-width="1.5" stroke-linecap="round" stroke-opacity="1.0" stroke="rgb(0, 0, 0)" stroke-linejoin="round" d=" M 274.963, 749.037 284.963, 749.037 294.963, 749.037 304.963, 749.037 314.963, 749.037 324.963, 749.037 334.963, 749.037 344.963, 749.037 354.963, 749.037 364.963, 749.037 374.963, 749.037 384.963, 749.037 394.963, 749.037 404.963, 749.037 414.963, 749.037 424.963, 749.037 434.963, 749.037 444.963, 749.037 454.963, 749.037 464.963, 749.037 474.963, 749.037 484.963, 749.037 494.963, 749.037 504.963, 749.037 514.963, 749.037 524.963, 749.037 534.963, 749.037 544.963, 749.037 554.963, 749.037 564.963, 749.037 574.963, 749.037 584.963, 749.037 594.963, 749.037 604.963, 749.037 614.963, 749.037 624.963, 749.037 634.963, 749.037 644.963, 749.037 654.963, 749.037 664.963, 749.037 674.963, 749.037 684.963, 749.037 694.963, 749.037 704.963, 749.037 714.963, 749.037 724.963, 749.037 734.963, 749.037 749.037, 749.037 " />
            <path fill="none" stroke-width="1.5" stroke-linecap="round" stroke-opacity="1.0" stroke="rgb(0, 0, 0)" stroke-linejoin="round" d=" M 274.963, 725.333 284.963, 725.333 294.963, 725.333 304.963, 725.333 314.963, 725.333 324.963, 725.333 334.963, 725.333 344.963, 725.333 354.963, 725.333 364.963, 725.333 374.963, 725.333 384.963, 725.333 394.963, 725.333 404.963, 725.333 414.963, 725.333 424.963, 725.333 434.963, 725.333 444.963, 725.333 454.963, 725.333 464.963, 725.333 474.963, 725.333 484.963, 725.333 494.963, 725.333 504.963, 725.333 514.963, 725.333 524.963, 725.333 534.963, 725.333 544.963, 725.333 554.963, 725.333 564.963, 725.333 574.963, 725.333 584.963, 725.333 594.963, 725.333 604.963, 725.333 614.963, 725.333 624.963, 725.333 634.963, 725.333 644.963, 725.333 654.963, 725.333 664.963, 725.333 674.963, 725.333 684.963, 725.333 694.963, 725.333 704.963, 725.333 714.963, 725.333 724.963, 725.333 734.963, 725.333 749.037, 725.333 " />
            <path fill="none" stroke-width="1.5" stroke-linecap="round" stroke-opacity="1.0" stroke="rgb(0, 0, 0)" stroke-linejoin="round" d=" M 749.037, 677.926 739.037, 677.926 729.037, 677.926 719.037, 677.926 709.037, 677.926 699.037, 677.926 689.037, 677.926 679.037, 677.926 669.037, 677.926 659.037, 677.926 649.037, 677.926 639.037, 677.926 629.037, 677.926 619.037, 677.926 609.037, 677.926 599.037, 677.926 589.037, 677.926 579.037, 677.926 569.037, 677.926 559.037, 677.926 549.037, 677.926 539.037, 677.926 529.037, 677.926 519.037, 677.926 509.037, 677.926 499.037, 677.926 489.037, 677.926 479.037, 677.926 469.037, 677.926 459.037, 677.926 449.037, 677.926 439.037, 677.926 429.037, 677.926 419.037, 677.926 409.037, 677.926 399.037, 677.926 389.037, 677.926 379.037, 677.926 369.037, 677.926 359.037, 677.926 349.037, 677.926 339.037, 677.926 329.037, 677.926 319.037, 677.926 309.037, 677.926 299.037, 677.926 289.037, 677.926 274.963, 677.926 " />
            <path fill="none" stroke-width="1.5" stroke-linecap="round" stroke-opacity="1.0" stroke="rgb(0, 0, 0)" stroke-linejoin="round" d=" M 749.037, 274.963 739.037, 274.963 729.037, 274.963 719.037, 274.963 709.037, 274.963 699.037, 274.963 689.037, 274.963 679.037, 274.963 669.037, 274.963 659.037, 274.963 649.037, 274.963 639.037, 274.963 629.037, 274.963 619.037, 274.963 609.037, 274.963 599.037, 274.963 589.037, 274.963 579.037, 274.963 569.037, 274.963 559.037, 274.963 549.037, 274.963 539.037, 274.963 529.037, 274.963 519.037, 274.963 509.037, 274.963 499.037, 274.963 489.037, 274.963 479.037, 274.963 469.037, 274.963 459.037, 274.963 449.037, 274.963 439.037, 274.963 429.037, 274.963 419.037, 274.963 409.037, 274.963 399.037, 274.963 389.037, 274.963 379.037, 274.963 369.037, 274.963 359.037, 274.963 349.037, 274.963 339.037, 274.963 329.037, 274.963 319.037, 274.963 309.037, 274.963 299.037, 274.963 289.037, 274.963 274.963, 274.963 " />
            <path fill="none" stroke-width="1.5" stroke-linecap="round" stroke-opacity="1.0" stroke="rgb(0, 0, 0)" stroke-linejoin="round" d=" M 749.037, 725.333 749.037, 735.333 749.037, 745.333 749.037, 749.037 " />
            <path fill="none" stroke-width="1.5" stroke-linecap="round" stroke-opacity="1.0" stroke="rgb(0, 0, 0)" stroke-linejoin="round" d=" M 749.037, 274.963 749.037, 284.963 749.037, 294.963 749.037, 304.963 749.037, 314.963 749.037, 324.963 749.037, 334.963 749.037, 344.963 749.037, 354.963 749.037, 364.963 749.037, 374.963 749.037, 384.963 749.037, 394.963 749.037, 404.963 749.037, 414.963 749.037, 424.963 749.037, 434.963 749.037, 444.963 749.037, 454.963 749.037, 464.963 749.037, 474.963 749.037, 484.963 749.037, 494.963 749.037, 504.963 749.037, 514.963 749.037, 524.963 749.037, 534.963 749.037, 544.963 749.037, 554.963 749.037, 564.963 749.037, 574.963 749.037, 584.963 749.037, 594.963 749.037, 604.963 749.037, 614.963 749.037, 624.963 749.037, 634.963 749.037, 644.963 749.037, 654.963 749.037, 664.963 749.037, 677.926 " />
            <path fill="none" stroke-width="1.5" stroke-linecap="round" stroke-opacity="1.0" stroke="rgb(0, 0, 0)" stroke-linejoin="round" d=" M 749.037, 749.037 759.037, 749.037 769.037, 749.037 779.037, 749.037 789.037, 749.037 796.444, 749.037 " />
            <path fill="none" stroke-width="1.5" stroke-linecap="round" stroke-opacity="1.0" stroke="rgb(0, 0, 0)" stroke-linejoin="round" d=" M 796.444, 274.963 786.444, 274.963 776.444, 274.963 766.444, 274.963 756.444, 274.963 749.037, 274.963 " />
        </g>
    </g>
</svg>
