<?xml version='1.0' encoding='ascii'?>
<svg xmlns="http://www.w3.org/2000/svg" xmlns:inkscape="http://www.inkscape.org/namespaces/inkscape" version="1.1" width="1024" height="1024">
    <g id="ViewLayer_LineSet" inkscape:groupmode="lineset" inkscape:label="ViewLayer_LineSet">
        <g inkscape:groupmode="layer" id="strokes" inkscape:label="strokes">
            <path fill="none" stroke-width="3.0" stroke-linecap="butt" stroke-opacity="1.0" stroke="rgb(0, 0, 0)" stroke-linejoin="round" d=" M 274.963, 630.519 274.963, 640.519 274.963, 650.519 274.963, 660.519 274.963, 666.074 274.963, 666.074 284.963, 666.074 294.963, 666.074 304.963, 666.074 314.963, 666.074 324.963, 666.074 334.963, 666.074 344.963, 666.074 354.963, 666.074 364.963, 666.074 374.963, 666.074 384.963, 666.074 394.963, 666.074 404.963, 666.074 414.963, 666.074 424.963, 666.074 434.963, 666.074 444.963, 666.074 454.963, 666.074 464.963, 666.074 474.963, 666.074 484.963, 666.074 494.963, 666.074 504.963, 666.074 514.963, 666.074 524.963, 666.074 534.963, 666.074 544.963, 666.074 554.963, 666.074 564.963, 666.074 574.963, 666.074 584.963, 666.074 594.963, 666.074 604.963, 666.074 614.963, 666.074 624.963, 666.074 634.963, 666.074 644.963, 666.074 654.963, 666.074 664.963, 666.074 674.963, 666.074 684.963, 666.074 694.963, 666.074 704.963, 666.074 714.963, 666.074 724.963, 666.074 734.963, 666.074 749.037, 666.074 749.037, 656.074 749.037, 646.074 749.037, 636.074 749.037, 630.519 " />
            <path fill="none" stroke-width="3.0" stroke-linecap="butt" stroke-opacity="1.0" stroke="rgb(0, 0, 0)" stroke-linejoin="round" d=" M 749.037, 666.074 749.037, 666.074 " />
            <path fill="none" stroke-width="3.0" stroke-linecap="butt" stroke-opacity="1.0" stroke="rgb(0, 0, 0)" stroke-linejoin="round" d=" M 274.963, 666.074 284.963, 666.074 294.963, 666.074 304.963, 666.074 314.963, 666.074 324.963, 666.074 334.963, 666.074 344.963, 666.074 354.963, 666.074 364.963, 666.074 374.963, 666.074 384.963, 666.074 394.963, 666.074 404.963, 666.074 414.963, 666.074 424.963, 666.074 434.963, 666.074 444.963, 666.074 454.963, 666.074 464.963, 666.074 474.963, 666.074 484.963, 666.074 494.963, 666.074 504.963, 666.074 514.963, 666.074 524.963, 666.074 534.963, 666.074 544.963, 666.074 554.963, 666.074 564.963, 666.074 574.963, 666.074 584.963, 666.074 594.963, 666.074 604.963, 666.074 614.963, 666.074 624.963, 666.074 634.963, 666.074 644.963, 666.074 654.963, 666.074 664.963, 666.074 674.963, 666.074 684.963, 666.074 694.963, 666.074 704.963, 666.074 714.963, 666.074 724.963, 666.074 734.963, 666.074 749.037, 666.074 749.037, 656.074 749.037, 646.074 749.037, 636.074 749.037, 630.519 " />
            <path fill="none" stroke-width="3.0" stroke-linecap="butt" stroke-opacity="1.0" stroke="rgb(0, 0, 0)" stroke-linejoin="round" d=" M 346.074, 488.296 346.074, 478.296 346.074, 468.296 346.074, 458.296 346.074, 448.296 346.074, 438.296 346.074, 428.296 346.074, 418.296 346.074, 408.296 346.074, 398.296 346.074, 388.296 346.074, 378.296 346.074, 368.296 346.074, 357.926 346.074, 357.926 336.074, 357.926 326.074, 357.926 316.074, 357.926 306.074, 357.926 298.667, 357.926 298.667, 367.926 298.667, 377.926 298.667, 387.926 298.667, 397.926 298.667, 407.926 298.667, 417.926 298.667, 427.926 298.667, 437.926 298.667, 447.926 298.667, 457.926 298.667, 467.926 298.667, 477.926 298.667, 488.296 " />
            <path fill="none" stroke-width="3.0" stroke-linecap="butt" stroke-opacity="1.0" stroke="rgb(0, 0, 0)" stroke-linejoin="round" d=" M 346.074, 357.926 346.074, 367.926 346.074, 377.926 346.074, 387.926 346.074, 397.926 346.074, 407.926 346.074, 417.926 346.074, 427.926 346.074, 437.926 346.074, 447.926 346.074, 457.926 346.074, 467.926 346.074, 477.926 346.074, 488.296 " />
            <path fill="none" stroke-width="3.0" stroke-linecap="butt" stroke-opacity="1.0" stroke="rgb(0, 0, 0)" stroke-linejoin="round" d=" M 749.037, 630.519 749.037, 620.519 749.037, 610.519 749.037, 600.519 749.037, 590.519 749.037, 580.519 749.037, 571.259 " />
            <path fill="none" stroke-width="3.0" stroke-linecap="butt" stroke-opacity="1.0" stroke="rgb(0, 0, 0)" stroke-linejoin="round" d=" M 749.037, 630.519 749.037, 620.519 749.037, 610.519 749.037, 600.519 749.037, 590.519 749.037, 580.519 749.037, 571.259 749.037, 571.259 749.037, 561.259 749.037, 551.259 749.037, 541.259 749.037, 531.259 749.037, 521.259 749.037, 511.259 749.037, 501.259 749.037, 491.259 749.037, 488.296 " />
            <path fill="none" stroke-width="3.0" stroke-linecap="butt" stroke-opacity="1.0" stroke="rgb(0, 0, 0)" stroke-linejoin="round" d=" M 274.963, 488.296 274.963, 498.296 274.963, 508.296 274.963, 518.296 274.963, 528.296 274.963, 538.296 274.963, 548.296 274.963, 558.296 274.963, 568.296 274.963, 578.296 274.963, 588.296 274.963, 598.296 274.963, 608.296 274.963, 618.296 274.963, 628.296 274.963, 630.519 " />
            <path fill="none" stroke-width="3.0" stroke-linecap="butt" stroke-opacity="1.0" stroke="rgb(0, 0, 0)" stroke-linejoin="round" d=" M 274.963, 630.519 274.963, 630.519 " />
            <path fill="none" stroke-width="3.0" stroke-linecap="butt" stroke-opacity="1.0" stroke="rgb(0, 0, 0)" stroke-linejoin="round" d=" M 274.963, 630.519 274.963, 630.519 284.963, 630.519 294.963, 630.519 304.963, 630.519 314.963, 630.519 324.963, 630.519 334.963, 630.519 344.963, 630.519 354.963, 630.519 364.963, 630.519 374.963, 630.519 384.963, 630.519 394.963, 630.519 404.963, 630.519 414.963, 630.519 424.963, 630.519 434.963, 630.519 444.963, 630.519 454.963, 630.519 464.963, 630.519 474.963, 630.519 484.963, 630.519 494.963, 630.519 504.963, 630.519 514.963, 630.519 524.963, 630.519 534.963, 630.519 544.963, 630.519 554.963, 630.519 564.963, 630.519 574.963, 630.519 584.963, 630.519 594.963, 630.519 604.963, 630.519 614.963, 630.519 624.963, 630.519 634.963, 630.519 644.963, 630.519 654.963, 630.519 664.963, 630.519 674.963, 630.519 684.963, 630.519 694.963, 630.519 704.963, 630.519 714.963, 630.519 724.963, 630.519 734.963, 630.519 749.037, 630.519 " />
            <path fill="none" stroke-width="3.0" stroke-linecap="butt" stroke-opacity="1.0" stroke="rgb(0, 0, 0)" stroke-linejoin="round" d=" M 274.963, 630.519 274.963, 630.519 " />
            <path fill="none" stroke-width="3.0" stroke-linecap="butt" stroke-opacity="1.0" stroke="rgb(0, 0, 0)" stroke-linejoin="round" d=" M 274.963, 488.296 284.963, 488.296 294.963, 488.296 298.667, 488.296 " />
            <path fill="none" stroke-width="3.0" stroke-linecap="butt" stroke-opacity="1.0" stroke="rgb(0, 0, 0)" stroke-linejoin="round" d=" M 749.037, 488.296 749.037, 488.296 " />
            <path fill="none" stroke-width="3.0" stroke-linecap="butt" stroke-opacity="1.0" stroke="rgb(0, 0, 0)" stroke-linejoin="round" d=" M 749.037, 488.296 739.037, 488.296 729.037, 488.296 719.037, 488.296 709.037, 488.296 699.037, 488.296 689.037, 488.296 679.037, 488.296 669.037, 488.296 659.037, 488.296 649.037, 488.296 639.037, 488.296 629.037, 488.296 619.037, 488.296 609.037, 488.296 599.037, 488.296 589.037, 488.296 579.037, 488.296 569.037, 488.296 559.037, 488.296 549.037, 488.296 539.037, 488.296 529.037, 488.296 519.037, 488.296 509.037, 488.296 499.037, 488.296 489.037, 488.296 479.037, 488.296 469.037, 488.296 459.037, 488.296 449.037, 488.296 439.037, 488.296 429.037, 488.296 419.037, 488.296 409.037, 488.296 399.037, 488.296 389.037, 488.296 379.037, 488.296 369.037, 488.296 359.037, 488.296 346.074, 488.296 346.074, 488.296 336.074, 488.296 326.074, 488.296 316.074, 488.296 306.074, 488.296 298.667, 488.296 298.667, 488.296 288.667, 488.296 278.667, 488.296 274.963, 488.296 " />
            <path fill="none" stroke-width="3.0" stroke-linecap="butt" stroke-opacity="1.0" stroke="rgb(0, 0, 0)" stroke-linejoin="round" d=" M 749.037, 630.519 749.037, 630.519 " />
            <path fill="none" stroke-width="3.0" stroke-linecap="butt" stroke-opacity="1.0" stroke="rgb(0, 0, 0)" stroke-linejoin="round" d=" M 749.037, 571.259 749.037, 571.259 " />
            <path fill="none" stroke-width="3.0" stroke-linecap="butt" stroke-opacity="1.0" stroke="rgb(0, 0, 0)" stroke-linejoin="round" d=" M 749.037, 630.519 749.037, 620.519 749.037, 610.519 749.037, 600.519 749.037, 590.519 749.037, 580.519 749.037, 571.259 " />
            <path fill="none" stroke-width="3.0" stroke-linecap="butt" stroke-opacity="1.0" stroke="rgb(0, 0, 0)" stroke-linejoin="round" d=" M 749.037, 571.259 749.037, 571.259 " />
            <path fill="none" stroke-width="3.0" stroke-linecap="butt" stroke-opacity="1.0" stroke="rgb(0, 0, 0)" stroke-linejoin="round" d=" M 749.037, 571.259 749.037, 561.259 749.037, 551.259 749.037, 541.259 749.037, 531.259 749.037, 521.259 749.037, 511.259 749.037, 501.259 749.037, 491.259 749.037, 488.296 " />
            <path fill="none" stroke-width="3.0" stroke-linecap="butt" stroke-opacity="1.0" stroke="rgb(0, 0, 0)" stroke-linejoin="round" d=" M 749.037, 488.296 749.037, 488.296 " />
        </g>
    </g>
    <g id="ViewLayer_TechnicalLines" inkscape:groupmode="lineset" inkscape:label="ViewLayer_TechnicalLines">
        <g inkscape:groupmode="layer" id="strokes" inkscape:label="strokes">
            <path fill="none" stroke-width="3.0" stroke-linecap="butt" stroke-opacity="1.0" stroke="rgb(0, 0, 0)" stroke-linejoin="round" d=" M 274.963, 630.519 274.963, 640.519 274.963, 650.519 274.963, 660.519 274.963, 666.074 274.963, 666.074 284.963, 666.074 294.963, 666.074 304.963, 666.074 314.963, 666.074 324.963, 666.074 334.963, 666.074 344.963, 666.074 354.963, 666.074 364.963, 666.074 374.963, 666.074 384.963, 666.074 394.963, 666.074 404.963, 666.074 414.963, 666.074 424.963, 666.074 434.963, 666.074 444.963, 666.074 454.963, 666.074 464.963, 666.074 474.963, 666.074 484.963, 666.074 494.963, 666.074 504.963, 666.074 514.963, 666.074 524.963, 666.074 534.963, 666.074 544.963, 666.074 554.963, 666.074 564.963, 666.074 574.963, 666.074 584.963, 666.074 594.963, 666.074 604.963, 666.074 614.963, 666.074 624.963, 666.074 634.963, 666.074 644.963, 666.074 654.963, 666.074 664.963, 666.074 674.963, 666.074 684.963, 666.074 694.963, 666.074 704.963, 666.074 714.963, 666.074 724.963, 666.074 734.963, 666.074 749.037, 666.074 749.037, 656.074 749.037, 646.074 749.037, 636.074 749.037, 630.519 " />
            <path fill="none" stroke-width="3.0" stroke-linecap="butt" stroke-opacity="1.0" stroke="rgb(0, 0, 0)" stroke-linejoin="round" d=" M 749.037, 666.074 749.037, 666.074 " />
            <path fill="none" stroke-width="3.0" stroke-linecap="butt" stroke-opacity="1.0" stroke="rgb(0, 0, 0)" stroke-linejoin="round" d=" M 274.963, 666.074 284.963, 666.074 294.963, 666.074 304.963, 666.074 314.963, 666.074 324.963, 666.074 334.963, 666.074 344.963, 666.074 354.963, 666.074 364.963, 666.074 374.963, 666.074 384.963, 666.074 394.963, 666.074 404.963, 666.074 414.963, 666.074 424.963, 666.074 434.963, 666.074 444.963, 666.074 454.963, 666.074 464.963, 666.074 474.963, 666.074 484.963, 666.074 494.963, 666.074 504.963, 666.074 514.963, 666.074 524.963, 666.074 534.963, 666.074 544.963, 666.074 554.963, 666.074 564.963, 666.074 574.963, 666.074 584.963, 666.074 594.963, 666.074 604.963, 666.074 614.963, 666.074 624.963, 666.074 634.963, 666.074 644.963, 666.074 654.963, 666.074 664.963, 666.074 674.963, 666.074 684.963, 666.074 694.963, 666.074 704.963, 666.074 714.963, 666.074 724.963, 666.074 734.963, 666.074 749.037, 666.074 749.037, 656.074 749.037, 646.074 749.037, 636.074 749.037, 630.519 " />
            <path fill="none" stroke-width="3.0" stroke-linecap="butt" stroke-opacity="1.0" stroke="rgb(0, 0, 0)" stroke-linejoin="round" d=" M 346.074, 488.296 346.074, 478.296 346.074, 468.296 346.074, 458.296 346.074, 448.296 346.074, 438.296 346.074, 428.296 346.074, 418.296 346.074, 408.296 346.074, 398.296 346.074, 388.296 346.074, 378.296 346.074, 368.296 346.074, 357.926 346.074, 357.926 336.074, 357.926 326.074, 357.926 316.074, 357.926 306.074, 357.926 298.667, 357.926 298.667, 367.926 298.667, 377.926 298.667, 387.926 298.667, 397.926 298.667, 407.926 298.667, 417.926 298.667, 427.926 298.667, 437.926 298.667, 447.926 298.667, 457.926 298.667, 467.926 298.667, 477.926 298.667, 488.296 " />
            <path fill="none" stroke-width="3.0" stroke-linecap="butt" stroke-opacity="1.0" stroke="rgb(0, 0, 0)" stroke-linejoin="round" d=" M 346.074, 357.926 346.074, 367.926 346.074, 377.926 346.074, 387.926 346.074, 397.926 346.074, 407.926 346.074, 417.926 346.074, 427.926 346.074, 437.926 346.074, 447.926 346.074, 457.926 346.074, 467.926 346.074, 477.926 346.074, 488.296 " />
            <path fill="none" stroke-width="3.0" stroke-linecap="butt" stroke-opacity="1.0" stroke="rgb(0, 0, 0)" stroke-linejoin="round" d=" M 749.037, 630.519 749.037, 620.519 749.037, 610.519 749.037, 600.519 749.037, 590.519 749.037, 580.519 749.037, 571.259 " />
            <path fill="none" stroke-width="3.0" stroke-linecap="butt" stroke-opacity="1.0" stroke="rgb(0, 0, 0)" stroke-linejoin="round" d=" M 749.037, 630.519 749.037, 620.519 749.037, 610.519 749.037, 600.519 749.037, 590.519 749.037, 580.519 749.037, 571.259 749.037, 571.259 749.037, 561.259 749.037, 551.259 749.037, 541.259 749.037, 531.259 749.037, 521.259 749.037, 511.259 749.037, 501.259 749.037, 491.259 749.037, 488.296 " />
            <path fill="none" stroke-width="3.0" stroke-linecap="butt" stroke-opacity="1.0" stroke="rgb(0, 0, 0)" stroke-linejoin="round" d=" M 274.963, 488.296 274.963, 498.296 274.963, 508.296 274.963, 518.296 274.963, 528.296 274.963, 538.296 274.963, 548.296 274.963, 558.296 274.963, 568.296 274.963, 578.296 274.963, 588.296 274.963, 598.296 274.963, 608.296 274.963, 618.296 274.963, 628.296 274.963, 630.519 " />
            <path fill="none" stroke-width="3.0" stroke-linecap="butt" stroke-opacity="1.0" stroke="rgb(0, 0, 0)" stroke-linejoin="round" d=" M 274.963, 630.519 274.963, 630.519 " />
            <path fill="none" stroke-width="3.0" stroke-linecap="butt" stroke-opacity="1.0" stroke="rgb(0, 0, 0)" stroke-linejoin="round" d=" M 274.963, 630.519 274.963, 630.519 284.963, 630.519 294.963, 630.519 304.963, 630.519 314.963, 630.519 324.963, 630.519 334.963, 630.519 344.963, 630.519 354.963, 630.519 364.963, 630.519 374.963, 630.519 384.963, 630.519 394.963, 630.519 404.963, 630.519 414.963, 630.519 424.963, 630.519 434.963, 630.519 444.963, 630.519 454.963, 630.519 464.963, 630.519 474.963, 630.519 484.963, 630.519 494.963, 630.519 504.963, 630.519 514.963, 630.519 524.963, 630.519 534.963, 630.519 544.963, 630.519 554.963, 630.519 564.963, 630.519 574.963, 630.519 584.963, 630.519 594.963, 630.519 604.963, 630.519 614.963, 630.519 624.963, 630.519 634.963, 630.519 644.963, 630.519 654.963, 630.519 664.963, 630.519 674.963, 630.519 684.963, 630.519 694.963, 630.519 704.963, 630.519 714.963, 630.519 724.963, 630.519 734.963, 630.519 749.037, 630.519 " />
            <path fill="none" stroke-width="3.0" stroke-linecap="butt" stroke-opacity="1.0" stroke="rgb(0, 0, 0)" stroke-linejoin="round" d=" M 274.963, 630.519 274.963, 630.519 " />
            <path fill="none" stroke-width="3.0" stroke-linecap="butt" stroke-opacity="1.0" stroke="rgb(0, 0, 0)" stroke-linejoin="round" d=" M 274.963, 488.296 284.963, 488.296 294.963, 488.296 298.667, 488.296 " />
            <path fill="none" stroke-width="3.0" stroke-linecap="butt" stroke-opacity="1.0" stroke="rgb(0, 0, 0)" stroke-linejoin="round" d=" M 749.037, 488.296 749.037, 488.296 " />
            <path fill="none" stroke-width="3.0" stroke-linecap="butt" stroke-opacity="1.0" stroke="rgb(0, 0, 0)" stroke-linejoin="round" d=" M 749.037, 488.296 739.037, 488.296 729.037, 488.296 719.037, 488.296 709.037, 488.296 699.037, 488.296 689.037, 488.296 679.037, 488.296 669.037, 488.296 659.037, 488.296 649.037, 488.296 639.037, 488.296 629.037, 488.296 619.037, 488.296 609.037, 488.296 599.037, 488.296 589.037, 488.296 579.037, 488.296 569.037, 488.296 559.037, 488.296 549.037, 488.296 539.037, 488.296 529.037, 488.296 519.037, 488.296 509.037, 488.296 499.037, 488.296 489.037, 488.296 479.037, 488.296 469.037, 488.296 459.037, 488.296 449.037, 488.296 439.037, 488.296 429.037, 488.296 419.037, 488.296 409.037, 488.296 399.037, 488.296 389.037, 488.296 379.037, 488.296 369.037, 488.296 359.037, 488.296 346.074, 488.296 346.074, 488.296 336.074, 488.296 326.074, 488.296 316.074, 488.296 306.074, 488.296 298.667, 488.296 298.667, 488.296 288.667, 488.296 278.667, 488.296 274.963, 488.296 " />
            <path fill="none" stroke-width="3.0" stroke-linecap="butt" stroke-opacity="1.0" stroke="rgb(0, 0, 0)" stroke-linejoin="round" d=" M 749.037, 630.519 749.037, 630.519 " />
            <path fill="none" stroke-width="3.0" stroke-linecap="butt" stroke-opacity="1.0" stroke="rgb(0, 0, 0)" stroke-linejoin="round" d=" M 749.037, 571.259 749.037, 571.259 " />
            <path fill="none" stroke-width="3.0" stroke-linecap="butt" stroke-opacity="1.0" stroke="rgb(0, 0, 0)" stroke-linejoin="round" d=" M 749.037, 630.519 749.037, 620.519 749.037, 610.519 749.037, 600.519 749.037, 590.519 749.037, 580.519 749.037, 571.259 " />
            <path fill="none" stroke-width="3.0" stroke-linecap="butt" stroke-opacity="1.0" stroke="rgb(0, 0, 0)" stroke-linejoin="round" d=" M 749.037, 571.259 749.037, 571.259 " />
            <path fill="none" stroke-width="3.0" stroke-linecap="butt" stroke-opacity="1.0" stroke="rgb(0, 0, 0)" stroke-linejoin="round" d=" M 749.037, 571.259 749.037, 561.259 749.037, 551.259 749.037, 541.259 749.037, 531.259 749.037, 521.259 749.037, 511.259 749.037, 501.259 749.037, 491.259 749.037, 488.296 " />
            <path fill="none" stroke-width="3.0" stroke-linecap="butt" stroke-opacity="1.0" stroke="rgb(0, 0, 0)" stroke-linejoin="round" d=" M 749.037, 488.296 749.037, 488.296 " />
        </g>
    </g>
    <g id="ViewLayer_TechnicalLines.001" inkscape:groupmode="lineset" inkscape:label="ViewLayer_TechnicalLines.001">
        <g inkscape:groupmode="layer" id="strokes" inkscape:label="strokes">
            <path fill="none" stroke-width="1.5" stroke-linecap="round" stroke-opacity="1.0" stroke="rgb(0, 0, 0)" stroke-linejoin="round" d=" M 274.963, 630.519 274.963, 640.519 274.963, 650.519 274.963, 660.519 274.963, 666.074 274.963, 666.074 284.963, 666.074 294.963, 666.074 304.963, 666.074 314.963, 666.074 324.963, 666.074 334.963, 666.074 344.963, 666.074 354.963, 666.074 364.963, 666.074 374.963, 666.074 384.963, 666.074 394.963, 666.074 404.963, 666.074 414.963, 666.074 424.963, 666.074 434.963, 666.074 444.963, 666.074 454.963, 666.074 464.963, 666.074 474.963, 666.074 484.963, 666.074 494.963, 666.074 504.963, 666.074 514.963, 666.074 524.963, 666.074 534.963, 666.074 544.963, 666.074 554.963, 666.074 564.963, 666.074 574.963, 666.074 584.963, 666.074 594.963, 666.074 604.963, 666.074 614.963, 666.074 624.963, 666.074 634.963, 666.074 644.963, 666.074 654.963, 666.074 664.963, 666.074 674.963, 666.074 684.963, 666.074 694.963, 666.074 704.963, 666.074 714.963, 666.074 724.963, 666.074 734.963, 666.074 749.037, 666.074 749.037, 656.074 749.037, 646.074 749.037, 636.074 749.037, 630.519 " />
            <path fill="none" stroke-width="1.5" stroke-linecap="round" stroke-opacity="1.0" stroke="rgb(0, 0, 0)" stroke-linejoin="round" d=" M 749.037, 666.074 749.037, 666.074 " />
            <path fill="none" stroke-width="1.5" stroke-linecap="round" stroke-opacity="1.0" stroke="rgb(0, 0, 0)" stroke-linejoin="round" d=" M 274.963, 666.074 284.963, 666.074 294.963, 666.074 304.963, 666.074 314.963, 666.074 324.963, 666.074 334.963, 666.074 344.963, 666.074 354.963, 666.074 364.963, 666.074 374.963, 666.074 384.963, 666.074 394.963, 666.074 404.963, 666.074 414.963, 666.074 424.963, 666.074 434.963, 666.074 444.963, 666.074 454.963, 666.074 464.963, 666.074 474.963, 666.074 484.963, 666.074 494.963, 666.074 504.963, 666.074 514.963, 666.074 524.963, 666.074 534.963, 666.074 544.963, 666.074 554.963, 666.074 564.963, 666.074 574.963, 666.074 584.963, 666.074 594.963, 666.074 604.963, 666.074 614.963, 666.074 624.963, 666.074 634.963, 666.074 644.963, 666.074 654.963, 666.074 664.963, 666.074 674.963, 666.074 684.963, 666.074 694.963, 666.074 704.963, 666.074 714.963, 666.074 724.963, 666.074 734.963, 666.074 749.037, 666.074 749.037, 656.074 749.037, 646.074 749.037, 636.074 749.037, 630.519 " />
            <path fill="none" stroke-width="1.5" stroke-linecap="round" stroke-opacity="1.0" stroke="rgb(0, 0, 0)" stroke-linejoin="round" d=" M 346.074, 488.296 346.074, 478.296 346.074, 468.296 346.074, 458.296 346.074, 448.296 346.074, 438.296 346.074, 428.296 346.074, 418.296 346.074, 408.296 346.074, 398.296 346.074, 388.296 346.074, 378.296 346.074, 368.296 346.074, 357.926 346.074, 357.926 336.074, 357.926 326.074, 357.926 316.074, 357.926 306.074, 357.926 298.667, 357.926 298.667, 367.926 298.667, 377.926 298.667, 387.926 298.667, 397.926 298.667, 407.926 298.667, 417.926 298.667, 427.926 298.667, 437.926 298.667, 447.926 298.667, 457.926 298.667, 467.926 298.667, 477.926 298.667, 488.296 " />
            <path fill="none" stroke-width="1.5" stroke-linecap="round" stroke-opacity="1.0" stroke="rgb(0, 0, 0)" stroke-linejoin="round" d=" M 346.074, 357.926 346.074, 367.926 346.074, 377.926 346.074, 387.926 346.074, 397.926 346.074, 407.926 346.074, 417.926 346.074, 427.926 346.074, 437.926 346.074, 447.926 346.074, 457.926 346.074, 467.926 346.074, 477.926 346.074, 488.296 " />
            <path fill="none" stroke-width="1.5" stroke-linecap="round" stroke-opacity="1.0" stroke="rgb(0, 0, 0)" stroke-linejoin="round" d=" M 749.037, 630.519 749.037, 620.519 749.037, 610.519 749.037, 600.519 749.037, 590.519 749.037, 580.519 749.037, 571.259 " />
            <path fill="none" stroke-width="1.5" stroke-linecap="round" stroke-opacity="1.0" stroke="rgb(0, 0, 0)" stroke-linejoin="round" d=" M 749.037, 630.519 749.037, 620.519 749.037, 610.519 749.037, 600.519 749.037, 590.519 749.037, 580.519 749.037, 571.259 749.037, 571.259 749.037, 561.259 749.037, 551.259 749.037, 541.259 749.037, 531.259 749.037, 521.259 749.037, 511.259 749.037, 501.259 749.037, 491.259 749.037, 488.296 " />
            <path fill="none" stroke-width="1.5" stroke-linecap="round" stroke-opacity="1.0" stroke="rgb(0, 0, 0)" stroke-linejoin="round" d=" M 274.963, 488.296 274.963, 498.296 274.963, 508.296 274.963, 518.296 274.963, 528.296 274.963, 538.296 274.963, 548.296 274.963, 558.296 274.963, 568.296 274.963, 578.296 274.963, 588.296 274.963, 598.296 274.963, 608.296 274.963, 618.296 274.963, 628.296 274.963, 630.519 " />
            <path fill="none" stroke-width="1.5" stroke-linecap="round" stroke-opacity="1.0" stroke="rgb(0, 0, 0)" stroke-linejoin="round" d=" M 274.963, 630.519 274.963, 630.519 " />
            <path fill="none" stroke-width="1.5" stroke-linecap="round" stroke-opacity="1.0" stroke="rgb(0, 0, 0)" stroke-linejoin="round" d=" M 274.963, 630.519 274.963, 630.519 284.963, 630.519 294.963, 630.519 304.963, 630.519 314.963, 630.519 324.963, 630.519 334.963, 630.519 344.963, 630.519 354.963, 630.519 364.963, 630.519 374.963, 630.519 384.963, 630.519 394.963, 630.519 404.963, 630.519 414.963, 630.519 424.963, 630.519 434.963, 630.519 444.963, 630.519 454.963, 630.519 464.963, 630.519 474.963, 630.519 484.963, 630.519 494.963, 630.519 504.963, 630.519 514.963, 630.519 524.963, 630.519 534.963, 630.519 544.963, 630.519 554.963, 630.519 564.963, 630.519 574.963, 630.519 584.963, 630.519 594.963, 630.519 604.963, 630.519 614.963, 630.519 624.963, 630.519 634.963, 630.519 644.963, 630.519 654.963, 630.519 664.963, 630.519 674.963, 630.519 684.963, 630.519 694.963, 630.519 704.963, 630.519 714.963, 630.519 724.963, 630.519 734.963, 630.519 749.037, 630.519 " />
            <path fill="none" stroke-width="1.5" stroke-linecap="round" stroke-opacity="1.0" stroke="rgb(0, 0, 0)" stroke-linejoin="round" d=" M 274.963, 630.519 274.963, 630.519 " />
            <path fill="none" stroke-width="1.5" stroke-linecap="round" stroke-opacity="1.0" stroke="rgb(0, 0, 0)" stroke-linejoin="round" d=" M 274.963, 488.296 284.963, 488.296 294.963, 488.296 298.667, 488.296 " />
            <path fill="none" stroke-width="1.5" stroke-linecap="round" stroke-opacity="1.0" stroke="rgb(0, 0, 0)" stroke-linejoin="round" d=" M 749.037, 488.296 749.037, 488.296 " />
            <path fill="none" stroke-width="1.5" stroke-linecap="round" stroke-opacity="1.0" stroke="rgb(0, 0, 0)" stroke-linejoin="round" d=" M 749.037, 488.296 739.037, 488.296 729.037, 488.296 719.037, 488.296 709.037, 488.296 699.037, 488.296 689.037, 488.296 679.037, 488.296 669.037, 488.296 659.037, 488.296 649.037, 488.296 639.037, 488.296 629.037, 488.296 619.037, 488.296 609.037, 488.296 599.037, 488.296 589.037, 488.296 579.037, 488.296 569.037, 488.296 559.037, 488.296 549.037, 488.296 539.037, 488.296 529.037, 488.296 519.037, 488.296 509.037, 488.296 499.037, 488.296 489.037, 488.296 479.037, 488.296 469.037, 488.296 459.037, 488.296 449.037, 488.296 439.037, 488.296 429.037, 488.296 419.037, 488.296 409.037, 488.296 399.037, 488.296 389.037, 488.296 379.037, 488.296 369.037, 488.296 359.037, 488.296 346.074, 488.296 346.074, 488.296 336.074, 488.296 326.074, 488.296 316.074, 488.296 306.074, 488.296 298.667, 488.296 298.667, 488.296 288.667, 488.296 278.667, 488.296 274.963, 488.296 " />
            <path fill="none" stroke-width="1.5" stroke-linecap="round" stroke-opacity="1.0" stroke="rgb(0, 0, 0)" stroke-linejoin="round" d=" M 749.037, 630.519 749.037, 630.519 " />
            <path fill="none" stroke-width="1.5" stroke-linecap="round" stroke-opacity="1.0" stroke="rgb(0, 0, 0)" stroke-linejoin="round" d=" M 749.037, 571.259 749.037, 571.259 " />
            <path fill="none" stroke-width="1.5" stroke-linecap="round" stroke-opacity="1.0" stroke="rgb(0, 0, 0)" stroke-linejoin="round" d=" M 749.037, 630.519 749.037, 620.519 749.037, 610.519 749.037, 600.519 749.037, 590.519 749.037, 580.519 749.037, 571.259 " />
            <path fill="none" stroke-width="1.5" stroke-linecap="round" stroke-opacity="1.0" stroke="rgb(0, 0, 0)" stroke-linejoin="round" d=" M 749.037, 571.259 749.037, 571.259 " />
            <path fill="none" stroke-width="1.5" stroke-linecap="round" stroke-opacity="1.0" stroke="rgb(0, 0, 0)" stroke-linejoin="round" d=" M 749.037, 571.259 749.037, 561.259 749.037, 551.259 749.037, 541.259 749.037, 531.259 749.037, 521.259 749.037, 511.259 749.037, 501.259 749.037, 491.259 749.037, 488.296 " />
            <path fill="none" stroke-width="1.5" stroke-linecap="round" stroke-opacity="1.0" stroke="rgb(0, 0, 0)" stroke-linejoin="round" d=" M 749.037, 488.296 749.037, 488.296 " />
        </g>
    </g>
    <g id="ViewLayer_TechnicalLines.002" inkscape:groupmode="lineset" inkscape:label="ViewLayer_TechnicalLines.002">
        <g inkscape:groupmode="layer" id="strokes" inkscape:label="strokes">
            <path fill="none" stroke-width="1.5" stroke-linecap="round" stroke-opacity="1.0" stroke="rgb(0, 0, 0)" stroke-linejoin="round" d=" M 274.963, 630.519 274.963, 640.519 274.963, 650.519 274.963, 660.519 274.963, 666.074 274.963, 666.074 284.963, 666.074 294.963, 666.074 304.963, 666.074 314.963, 666.074 324.963, 666.074 334.963, 666.074 344.963, 666.074 354.963, 666.074 364.963, 666.074 374.963, 666.074 384.963, 666.074 394.963, 666.074 404.963, 666.074 414.963, 666.074 424.963, 666.074 434.963, 666.074 444.963, 666.074 454.963, 666.074 464.963, 666.074 474.963, 666.074 484.963, 666.074 494.963, 666.074 504.963, 666.074 514.963, 666.074 524.963, 666.074 534.963, 666.074 544.963, 666.074 554.963, 666.074 564.963, 666.074 574.963, 666.074 584.963, 666.074 594.963, 666.074 604.963, 666.074 614.963, 666.074 624.963, 666.074 634.963, 666.074 644.963, 666.074 654.963, 666.074 664.963, 666.074 674.963, 666.074 684.963, 666.074 694.963, 666.074 704.963, 666.074 714.963, 666.074 724.963, 666.074 734.963, 666.074 749.037, 666.074 749.037, 656.074 749.037, 646.074 749.037, 636.074 749.037, 630.519 " />
            <path fill="none" stroke-width="1.5" stroke-linecap="round" stroke-opacity="1.0" stroke="rgb(0, 0, 0)" stroke-linejoin="round" d=" M 749.037, 666.074 749.037, 666.074 " />
            <path fill="none" stroke-width="1.5" stroke-linecap="round" stroke-opacity="1.0" stroke="rgb(0, 0, 0)" stroke-linejoin="round" d=" M 274.963, 666.074 284.963, 666.074 294.963, 666.074 304.963, 666.074 314.963, 666.074 324.963, 666.074 334.963, 666.074 344.963, 666.074 354.963, 666.074 364.963, 666.074 374.963, 666.074 384.963, 666.074 394.963, 666.074 404.963, 666.074 414.963, 666.074 424.963, 666.074 434.963, 666.074 444.963, 666.074 454.963, 666.074 464.963, 666.074 474.963, 666.074 484.963, 666.074 494.963, 666.074 504.963, 666.074 514.963, 666.074 524.963, 666.074 534.963, 666.074 544.963, 666.074 554.963, 666.074 564.963, 666.074 574.963, 666.074 584.963, 666.074 594.963, 666.074 604.963, 666.074 614.963, 666.074 624.963, 666.074 634.963, 666.074 644.963, 666.074 654.963, 666.074 664.963, 666.074 674.963, 666.074 684.963, 666.074 694.963, 666.074 704.963, 666.074 714.963, 666.074 724.963, 666.074 734.963, 666.074 749.037, 666.074 749.037, 656.074 749.037, 646.074 749.037, 636.074 749.037, 630.519 " />
            <path fill="none" stroke-width="1.5" stroke-linecap="round" stroke-opacity="1.0" stroke="rgb(0, 0, 0)" stroke-linejoin="round" d=" M 346.074, 488.296 346.074, 478.296 346.074, 468.296 346.074, 458.296 346.074, 448.296 346.074, 438.296 346.074, 428.296 346.074, 418.296 346.074, 408.296 346.074, 398.296 346.074, 388.296 346.074, 378.296 346.074, 368.296 346.074, 357.926 346.074, 357.926 336.074, 357.926 326.074, 357.926 316.074, 357.926 306.074, 357.926 298.667, 357.926 298.667, 367.926 298.667, 377.926 298.667, 387.926 298.667, 397.926 298.667, 407.926 298.667, 417.926 298.667, 427.926 298.667, 437.926 298.667, 447.926 298.667, 457.926 298.667, 467.926 298.667, 477.926 298.667, 488.296 " />
            <path fill="none" stroke-width="1.5" stroke-linecap="round" stroke-opacity="1.0" stroke="rgb(0, 0, 0)" stroke-linejoin="round" d=" M 346.074, 357.926 346.074, 367.926 346.074, 377.926 346.074, 387.926 346.074, 397.926 346.074, 407.926 346.074, 417.926 346.074, 427.926 346.074, 437.926 346.074, 447.926 346.074, 457.926 346.074, 467.926 346.074, 477.926 346.074, 488.296 " />
            <path fill="none" stroke-width="1.5" stroke-linecap="round" stroke-opacity="1.0" stroke="rgb(0, 0, 0)" stroke-linejoin="round" d=" M 749.037, 630.519 749.037, 620.519 749.037, 610.519 749.037, 600.519 749.037, 590.519 749.037, 580.519 749.037, 571.259 " />
            <path fill="none" stroke-width="1.5" stroke-linecap="round" stroke-opacity="1.0" stroke="rgb(0, 0, 0)" stroke-linejoin="round" d=" M 749.037, 630.519 749.037, 620.519 749.037, 610.519 749.037, 600.519 749.037, 590.519 749.037, 580.519 749.037, 571.259 749.037, 571.259 749.037, 561.259 749.037, 551.259 749.037, 541.259 749.037, 531.259 749.037, 521.259 749.037, 511.259 749.037, 501.259 749.037, 491.259 749.037, 488.296 " />
            <path fill="none" stroke-width="1.5" stroke-linecap="round" stroke-opacity="1.0" stroke="rgb(0, 0, 0)" stroke-linejoin="round" d=" M 274.963, 488.296 274.963, 498.296 274.963, 508.296 274.963, 518.296 274.963, 528.296 274.963, 538.296 274.963, 548.296 274.963, 558.296 274.963, 568.296 274.963, 578.296 274.963, 588.296 274.963, 598.296 274.963, 608.296 274.963, 618.296 274.963, 628.296 274.963, 630.519 " />
            <path fill="none" stroke-width="1.5" stroke-linecap="round" stroke-opacity="1.0" stroke="rgb(0, 0, 0)" stroke-linejoin="round" d=" M 274.963, 630.519 274.963, 630.519 " />
            <path fill="none" stroke-width="1.5" stroke-linecap="round" stroke-opacity="1.0" stroke="rgb(0, 0, 0)" stroke-linejoin="round" d=" M 274.963, 630.519 274.963, 630.519 284.963, 630.519 294.963, 630.519 304.963, 630.519 314.963, 630.519 324.963, 630.519 334.963, 630.519 344.963, 630.519 354.963, 630.519 364.963, 630.519 374.963, 630.519 384.963, 630.519 394.963, 630.519 404.963, 630.519 414.963, 630.519 424.963, 630.519 434.963, 630.519 444.963, 630.519 454.963, 630.519 464.963, 630.519 474.963, 630.519 484.963, 630.519 494.963, 630.519 504.963, 630.519 514.963, 630.519 524.963, 630.519 534.963, 630.519 544.963, 630.519 554.963, 630.519 564.963, 630.519 574.963, 630.519 584.963, 630.519 594.963, 630.519 604.963, 630.519 614.963, 630.519 624.963, 630.519 634.963, 630.519 644.963, 630.519 654.963, 630.519 664.963, 630.519 674.963, 630.519 684.963, 630.519 694.963, 630.519 704.963, 630.519 714.963, 630.519 724.963, 630.519 734.963, 630.519 749.037, 630.519 " />
            <path fill="none" stroke-width="1.5" stroke-linecap="round" stroke-opacity="1.0" stroke="rgb(0, 0, 0)" stroke-linejoin="round" d=" M 274.963, 630.519 274.963, 630.519 " />
            <path fill="none" stroke-width="1.5" stroke-linecap="round" stroke-opacity="1.0" stroke="rgb(0, 0, 0)" stroke-linejoin="round" d=" M 274.963, 488.296 284.963, 488.296 294.963, 488.296 298.667, 488.296 " />
            <path fill="none" stroke-width="1.5" stroke-linecap="round" stroke-opacity="1.0" stroke="rgb(0, 0, 0)" stroke-linejoin="round" d=" M 749.037, 488.296 749.037, 488.296 " />
            <path fill="none" stroke-width="1.5" stroke-linecap="round" stroke-opacity="1.0" stroke="rgb(0, 0, 0)" stroke-linejoin="round" d=" M 749.037, 488.296 739.037, 488.296 729.037, 488.296 719.037, 488.296 709.037, 488.296 699.037, 488.296 689.037, 488.296 679.037, 488.296 669.037, 488.296 659.037, 488.296 649.037, 488.296 639.037, 488.296 629.037, 488.296 619.037, 488.296 609.037, 488.296 599.037, 488.296 589.037, 488.296 579.037, 488.296 569.037, 488.296 559.037, 488.296 549.037, 488.296 539.037, 488.296 529.037, 488.296 519.037, 488.296 509.037, 488.296 499.037, 488.296 489.037, 488.296 479.037, 488.296 469.037, 488.296 459.037, 488.296 449.037, 488.296 439.037, 488.296 429.037, 488.296 419.037, 488.296 409.037, 488.296 399.037, 488.296 389.037, 488.296 379.037, 488.296 369.037, 488.296 359.037, 488.296 346.074, 488.296 346.074, 488.296 336.074, 488.296 326.074, 488.296 316.074, 488.296 306.074, 488.296 298.667, 488.296 298.667, 488.296 288.667, 488.296 278.667, 488.296 274.963, 488.296 " />
            <path fill="none" stroke-width="1.5" stroke-linecap="round" stroke-opacity="1.0" stroke="rgb(0, 0, 0)" stroke-linejoin="round" d=" M 749.037, 630.519 749.037, 630.519 " />
            <path fill="none" stroke-width="1.5" stroke-linecap="round" stroke-opacity="1.0" stroke="rgb(0, 0, 0)" stroke-linejoin="round" d=" M 749.037, 571.259 749.037, 571.259 " />
            <path fill="none" stroke-width="1.5" stroke-linecap="round" stroke-opacity="1.0" stroke="rgb(0, 0, 0)" stroke-linejoin="round" d=" M 749.037, 630.519 749.037, 620.519 749.037, 610.519 749.037, 600.519 749.037, 590.519 749.037, 580.519 749.037, 571.259 " />
            <path fill="none" stroke-width="1.5" stroke-linecap="round" stroke-opacity="1.0" stroke="rgb(0, 0, 0)" stroke-linejoin="round" d=" M 749.037, 571.259 749.037, 571.259 " />
            <path fill="none" stroke-width="1.5" stroke-linecap="round" stroke-opacity="1.0" stroke="rgb(0, 0, 0)" stroke-linejoin="round" d=" M 749.037, 571.259 749.037, 561.259 749.037, 551.259 749.037, 541.259 749.037, 531.259 749.037, 521.259 749.037, 511.259 749.037, 501.259 749.037, 491.259 749.037, 488.296 " />
            <path fill="none" stroke-width="1.5" stroke-linecap="round" stroke-opacity="1.0" stroke="rgb(0, 0, 0)" stroke-linejoin="round" d=" M 749.037, 488.296 749.037, 488.296 " />
        </g>
    </g>
    <g id="ViewLayer_TechnicalLines.003" inkscape:groupmode="lineset" inkscape:label="ViewLayer_TechnicalLines.003">
        <g inkscape:groupmode="layer" id="strokes" inkscape:label="strokes">
            <path fill="none" stroke-width="1.5" stroke-linecap="round" stroke-opacity="1.0" stroke="rgb(0, 0, 0)" stroke-linejoin="round" d=" M 274.963, 630.519 274.963, 640.519 274.963, 650.519 274.963, 660.519 274.963, 666.074 274.963, 666.074 284.963, 666.074 294.963, 666.074 304.963, 666.074 314.963, 666.074 324.963, 666.074 334.963, 666.074 344.963, 666.074 354.963, 666.074 364.963, 666.074 374.963, 666.074 384.963, 666.074 394.963, 666.074 404.963, 666.074 414.963, 666.074 424.963, 666.074 434.963, 666.074 444.963, 666.074 454.963, 666.074 464.963, 666.074 474.963, 666.074 484.963, 666.074 494.963, 666.074 504.963, 666.074 514.963, 666.074 524.963, 666.074 534.963, 666.074 544.963, 666.074 554.963, 666.074 564.963, 666.074 574.963, 666.074 584.963, 666.074 594.963, 666.074 604.963, 666.074 614.963, 666.074 624.963, 666.074 634.963, 666.074 644.963, 666.074 654.963, 666.074 664.963, 666.074 674.963, 666.074 684.963, 666.074 694.963, 666.074 704.963, 666.074 714.963, 666.074 724.963, 666.074 734.963, 666.074 749.037, 666.074 749.037, 656.074 749.037, 646.074 749.037, 636.074 749.037, 630.519 " />
            <path fill="none" stroke-width="1.5" stroke-linecap="round" stroke-opacity="1.0" stroke="rgb(0, 0, 0)" stroke-linejoin="round" d=" M 749.037, 666.074 749.037, 666.074 " />
            <path fill="none" stroke-width="1.5" stroke-linecap="round" stroke-opacity="1.0" stroke="rgb(0, 0, 0)" stroke-linejoin="round" d=" M 274.963, 666.074 284.963, 666.074 294.963, 666.074 304.963, 666.074 314.963, 666.074 324.963, 666.074 334.963, 666.074 344.963, 666.074 354.963, 666.074 364.963, 666.074 374.963, 666.074 384.963, 666.074 394.963, 666.074 404.963, 666.074 414.963, 666.074 424.963, 666.074 434.963, 666.074 444.963, 666.074 454.963, 666.074 464.963, 666.074 474.963, 666.074 484.963, 666.074 494.963, 666.074 504.963, 666.074 514.963, 666.074 524.963, 666.074 534.963, 666.074 544.963, 666.074 554.963, 666.074 564.963, 666.074 574.963, 666.074 584.963, 666.074 594.963, 666.074 604.963, 666.074 614.963, 666.074 624.963, 666.074 634.963, 666.074 644.963, 666.074 654.963, 666.074 664.963, 666.074 674.963, 666.074 684.963, 666.074 694.963, 666.074 704.963, 666.074 714.963, 666.074 724.963, 666.074 734.963, 666.074 749.037, 666.074 749.037, 656.074 749.037, 646.074 749.037, 636.074 749.037, 630.519 " />
            <path fill="none" stroke-width="1.5" stroke-linecap="round" stroke-opacity="1.0" stroke="rgb(0, 0, 0)" stroke-linejoin="round" d=" M 346.074, 488.296 346.074, 478.296 346.074, 468.296 346.074, 458.296 346.074, 448.296 346.074, 438.296 346.074, 428.296 346.074, 418.296 346.074, 408.296 346.074, 398.296 346.074, 388.296 346.074, 378.296 346.074, 368.296 346.074, 357.926 346.074, 357.926 336.074, 357.926 326.074, 357.926 316.074, 357.926 306.074, 357.926 298.667, 357.926 298.667, 367.926 298.667, 377.926 298.667, 387.926 298.667, 397.926 298.667, 407.926 298.667, 417.926 298.667, 427.926 298.667, 437.926 298.667, 447.926 298.667, 457.926 298.667, 467.926 298.667, 477.926 298.667, 488.296 " />
            <path fill="none" stroke-width="1.5" stroke-linecap="round" stroke-opacity="1.0" stroke="rgb(0, 0, 0)" stroke-linejoin="round" d=" M 346.074, 357.926 346.074, 367.926 346.074, 377.926 346.074, 387.926 346.074, 397.926 346.074, 407.926 346.074, 417.926 346.074, 427.926 346.074, 437.926 346.074, 447.926 346.074, 457.926 346.074, 467.926 346.074, 477.926 346.074, 488.296 " />
            <path fill="none" stroke-width="1.5" stroke-linecap="round" stroke-opacity="1.0" stroke="rgb(0, 0, 0)" stroke-linejoin="round" d=" M 749.037, 630.519 749.037, 620.519 749.037, 610.519 749.037, 600.519 749.037, 590.519 749.037, 580.519 749.037, 571.259 " />
            <path fill="none" stroke-width="1.5" stroke-linecap="round" stroke-opacity="1.0" stroke="rgb(0, 0, 0)" stroke-linejoin="round" d=" M 749.037, 630.519 749.037, 620.519 749.037, 610.519 749.037, 600.519 749.037, 590.519 749.037, 580.519 749.037, 571.259 749.037, 571.259 749.037, 561.259 749.037, 551.259 749.037, 541.259 749.037, 531.259 749.037, 521.259 749.037, 511.259 749.037, 501.259 749.037, 491.259 749.037, 488.296 " />
            <path fill="none" stroke-width="1.5" stroke-linecap="round" stroke-opacity="1.0" stroke="rgb(0, 0, 0)" stroke-linejoin="round" d=" M 274.963, 488.296 274.963, 498.296 274.963, 508.296 274.963, 518.296 274.963, 528.296 274.963, 538.296 274.963, 548.296 274.963, 558.296 274.963, 568.296 274.963, 578.296 274.963, 588.296 274.963, 598.296 274.963, 608.296 274.963, 618.296 274.963, 628.296 274.963, 630.519 " />
            <path fill="none" stroke-width="1.5" stroke-linecap="round" stroke-opacity="1.0" stroke="rgb(0, 0, 0)" stroke-linejoin="round" d=" M 274.963, 630.519 274.963, 630.519 " />
            <path fill="none" stroke-width="1.5" stroke-linecap="round" stroke-opacity="1.0" stroke="rgb(0, 0, 0)" stroke-linejoin="round" d=" M 274.963, 630.519 274.963, 630.519 284.963, 630.519 294.963, 630.519 304.963, 630.519 314.963, 630.519 324.963, 630.519 334.963, 630.519 344.963, 630.519 354.963, 630.519 364.963, 630.519 374.963, 630.519 384.963, 630.519 394.963, 630.519 404.963, 630.519 414.963, 630.519 424.963, 630.519 434.963, 630.519 444.963, 630.519 454.963, 630.519 464.963, 630.519 474.963, 630.519 484.963, 630.519 494.963, 630.519 504.963, 630.519 514.963, 630.519 524.963, 630.519 534.963, 630.519 544.963, 630.519 554.963, 630.519 564.963, 630.519 574.963, 630.519 584.963, 630.519 594.963, 630.519 604.963, 630.519 614.963, 630.519 624.963, 630.519 634.963, 630.519 644.963, 630.519 654.963, 630.519 664.963, 630.519 674.963, 630.519 684.963, 630.519 694.963, 630.519 704.963, 630.519 714.963, 630.519 724.963, 630.519 734.963, 630.519 749.037, 630.519 " />
            <path fill="none" stroke-width="1.5" stroke-linecap="round" stroke-opacity="1.0" stroke="rgb(0, 0, 0)" stroke-linejoin="round" d=" M 274.963, 630.519 274.963, 630.519 " />
            <path fill="none" stroke-width="1.5" stroke-linecap="round" stroke-opacity="1.0" stroke="rgb(0, 0, 0)" stroke-linejoin="round" d=" M 274.963, 488.296 284.963, 488.296 294.963, 488.296 298.667, 488.296 " />
            <path fill="none" stroke-width="1.5" stroke-linecap="round" stroke-opacity="1.0" stroke="rgb(0, 0, 0)" stroke-linejoin="round" d=" M 749.037, 488.296 749.037, 488.296 " />
            <path fill="none" stroke-width="1.5" stroke-linecap="round" stroke-opacity="1.0" stroke="rgb(0, 0, 0)" stroke-linejoin="round" d=" M 749.037, 488.296 739.037, 488.296 729.037, 488.296 719.037, 488.296 709.037, 488.296 699.037, 488.296 689.037, 488.296 679.037, 488.296 669.037, 488.296 659.037, 488.296 649.037, 488.296 639.037, 488.296 629.037, 488.296 619.037, 488.296 609.037, 488.296 599.037, 488.296 589.037, 488.296 579.037, 488.296 569.037, 488.296 559.037, 488.296 549.037, 488.296 539.037, 488.296 529.037, 488.296 519.037, 488.296 509.037, 488.296 499.037, 488.296 489.037, 488.296 479.037, 488.296 469.037, 488.296 459.037, 488.296 449.037, 488.296 439.037, 488.296 429.037, 488.296 419.037, 488.296 409.037, 488.296 399.037, 488.296 389.037, 488.296 379.037, 488.296 369.037, 488.296 359.037, 488.296 346.074, 488.296 346.074, 488.296 336.074, 488.296 326.074, 488.296 316.074, 488.296 306.074, 488.296 298.667, 488.296 298.667, 488.296 288.667, 488.296 278.667, 488.296 274.963, 488.296 " />
            <path fill="none" stroke-width="1.5" stroke-linecap="round" stroke-opacity="1.0" stroke="rgb(0, 0, 0)" stroke-linejoin="round" d=" M 749.037, 630.519 749.037, 630.519 " />
            <path fill="none" stroke-width="1.5" stroke-linecap="round" stroke-opacity="1.0" stroke="rgb(0, 0, 0)" stroke-linejoin="round" d=" M 749.037, 571.259 749.037, 571.259 " />
            <path fill="none" stroke-width="1.5" stroke-linecap="round" stroke-opacity="1.0" stroke="rgb(0, 0, 0)" stroke-linejoin="round" d=" M 749.037, 630.519 749.037, 620.519 749.037, 610.519 749.037, 600.519 749.037, 590.519 749.037, 580.519 749.037, 571.259 " />
            <path fill="none" stroke-width="1.5" stroke-linecap="round" stroke-opacity="1.0" stroke="rgb(0, 0, 0)" stroke-linejoin="round" d=" M 749.037, 571.259 749.037, 571.259 " />
            <path fill="none" stroke-width="1.5" stroke-linecap="round" stroke-opacity="1.0" stroke="rgb(0, 0, 0)" stroke-linejoin="round" d=" M 749.037, 571.259 749.037, 561.259 749.037, 551.259 749.037, 541.259 749.037, 531.259 749.037, 521.259 749.037, 511.259 749.037, 501.259 749.037, 491.259 749.037, 488.296 " />
            <path fill="none" stroke-width="1.5" stroke-linecap="round" stroke-opacity="1.0" stroke="rgb(0, 0, 0)" stroke-linejoin="round" d=" M 749.037, 488.296 749.037, 488.296 " />
        </g>
    </g>
    <g id="ViewLayer_TechnicalLines.004" xmlns:inkscape="http://www.inkscape.org/namespaces/inkscape" inkscape:groupmode="lineset" inkscape:label="ViewLayer_TechnicalLines.004">
        <g xmlns:inkscape="http://www.inkscape.org/namespaces/inkscape" inkscape:groupmode="layer" id="strokes" inkscape:label="strokes">
            <path fill="none" stroke-width="1.5" stroke-linecap="round" stroke-opacity="1.0" stroke="rgb(0, 0, 0)" stroke-linejoin="round" d=" M 274.963, 630.519 274.963, 640.519 274.963, 650.519 274.963, 660.519 274.963, 666.074 274.963, 666.074 284.963, 666.074 294.963, 666.074 304.963, 666.074 314.963, 666.074 324.963, 666.074 334.963, 666.074 344.963, 666.074 354.963, 666.074 364.963, 666.074 374.963, 666.074 384.963, 666.074 394.963, 666.074 404.963, 666.074 414.963, 666.074 424.963, 666.074 434.963, 666.074 444.963, 666.074 454.963, 666.074 464.963, 666.074 474.963, 666.074 484.963, 666.074 494.963, 666.074 504.963, 666.074 514.963, 666.074 524.963, 666.074 534.963, 666.074 544.963, 666.074 554.963, 666.074 564.963, 666.074 574.963, 666.074 584.963, 666.074 594.963, 666.074 604.963, 666.074 614.963, 666.074 624.963, 666.074 634.963, 666.074 644.963, 666.074 654.963, 666.074 664.963, 666.074 674.963, 666.074 684.963, 666.074 694.963, 666.074 704.963, 666.074 714.963, 666.074 724.963, 666.074 734.963, 666.074 749.037, 666.074 749.037, 656.074 749.037, 646.074 749.037, 636.074 749.037, 630.519 " />
            <path fill="none" stroke-width="1.5" stroke-linecap="round" stroke-opacity="1.0" stroke="rgb(0, 0, 0)" stroke-linejoin="round" d=" M 749.037, 666.074 749.037, 666.074 " />
            <path fill="none" stroke-width="1.5" stroke-linecap="round" stroke-opacity="1.0" stroke="rgb(0, 0, 0)" stroke-linejoin="round" d=" M 274.963, 666.074 284.963, 666.074 294.963, 666.074 304.963, 666.074 314.963, 666.074 324.963, 666.074 334.963, 666.074 344.963, 666.074 354.963, 666.074 364.963, 666.074 374.963, 666.074 384.963, 666.074 394.963, 666.074 404.963, 666.074 414.963, 666.074 424.963, 666.074 434.963, 666.074 444.963, 666.074 454.963, 666.074 464.963, 666.074 474.963, 666.074 484.963, 666.074 494.963, 666.074 504.963, 666.074 514.963, 666.074 524.963, 666.074 534.963, 666.074 544.963, 666.074 554.963, 666.074 564.963, 666.074 574.963, 666.074 584.963, 666.074 594.963, 666.074 604.963, 666.074 614.963, 666.074 624.963, 666.074 634.963, 666.074 644.963, 666.074 654.963, 666.074 664.963, 666.074 674.963, 666.074 684.963, 666.074 694.963, 666.074 704.963, 666.074 714.963, 666.074 724.963, 666.074 734.963, 666.074 749.037, 666.074 749.037, 656.074 749.037, 646.074 749.037, 636.074 749.037, 630.519 " />
            <path fill="none" stroke-width="1.5" stroke-linecap="round" stroke-opacity="1.0" stroke="rgb(0, 0, 0)" stroke-linejoin="round" d=" M 346.074, 488.296 346.074, 478.296 346.074, 468.296 346.074, 458.296 346.074, 448.296 346.074, 438.296 346.074, 428.296 346.074, 418.296 346.074, 408.296 346.074, 398.296 346.074, 388.296 346.074, 378.296 346.074, 368.296 346.074, 357.926 346.074, 357.926 336.074, 357.926 326.074, 357.926 316.074, 357.926 306.074, 357.926 298.667, 357.926 298.667, 367.926 298.667, 377.926 298.667, 387.926 298.667, 397.926 298.667, 407.926 298.667, 417.926 298.667, 427.926 298.667, 437.926 298.667, 447.926 298.667, 457.926 298.667, 467.926 298.667, 477.926 298.667, 488.296 " />
            <path fill="none" stroke-width="1.5" stroke-linecap="round" stroke-opacity="1.0" stroke="rgb(0, 0, 0)" stroke-linejoin="round" d=" M 346.074, 357.926 346.074, 367.926 346.074, 377.926 346.074, 387.926 346.074, 397.926 346.074, 407.926 346.074, 417.926 346.074, 427.926 346.074, 437.926 346.074, 447.926 346.074, 457.926 346.074, 467.926 346.074, 477.926 346.074, 488.296 " />
            <path fill="none" stroke-width="1.5" stroke-linecap="round" stroke-opacity="1.0" stroke="rgb(0, 0, 0)" stroke-linejoin="round" d=" M 749.037, 630.519 749.037, 620.519 749.037, 610.519 749.037, 600.519 749.037, 590.519 749.037, 580.519 749.037, 571.259 " />
            <path fill="none" stroke-width="1.5" stroke-linecap="round" stroke-opacity="1.0" stroke="rgb(0, 0, 0)" stroke-linejoin="round" d=" M 749.037, 630.519 749.037, 620.519 749.037, 610.519 749.037, 600.519 749.037, 590.519 749.037, 580.519 749.037, 571.259 749.037, 571.259 749.037, 561.259 749.037, 551.259 749.037, 541.259 749.037, 531.259 749.037, 521.259 749.037, 511.259 749.037, 501.259 749.037, 491.259 749.037, 488.296 " />
            <path fill="none" stroke-width="1.5" stroke-linecap="round" stroke-opacity="1.0" stroke="rgb(0, 0, 0)" stroke-linejoin="round" d=" M 274.963, 488.296 274.963, 498.296 274.963, 508.296 274.963, 518.296 274.963, 528.296 274.963, 538.296 274.963, 548.296 274.963, 558.296 274.963, 568.296 274.963, 578.296 274.963, 588.296 274.963, 598.296 274.963, 608.296 274.963, 618.296 274.963, 628.296 274.963, 630.519 " />
            <path fill="none" stroke-width="1.5" stroke-linecap="round" stroke-opacity="1.0" stroke="rgb(0, 0, 0)" stroke-linejoin="round" d=" M 274.963, 630.519 274.963, 630.519 " />
            <path fill="none" stroke-width="1.5" stroke-linecap="round" stroke-opacity="1.0" stroke="rgb(0, 0, 0)" stroke-linejoin="round" d=" M 274.963, 630.519 274.963, 630.519 284.963, 630.519 294.963, 630.519 304.963, 630.519 314.963, 630.519 324.963, 630.519 334.963, 630.519 344.963, 630.519 354.963, 630.519 364.963, 630.519 374.963, 630.519 384.963, 630.519 394.963, 630.519 404.963, 630.519 414.963, 630.519 424.963, 630.519 434.963, 630.519 444.963, 630.519 454.963, 630.519 464.963, 630.519 474.963, 630.519 484.963, 630.519 494.963, 630.519 504.963, 630.519 514.963, 630.519 524.963, 630.519 534.963, 630.519 544.963, 630.519 554.963, 630.519 564.963, 630.519 574.963, 630.519 584.963, 630.519 594.963, 630.519 604.963, 630.519 614.963, 630.519 624.963, 630.519 634.963, 630.519 644.963, 630.519 654.963, 630.519 664.963, 630.519 674.963, 630.519 684.963, 630.519 694.963, 630.519 704.963, 630.519 714.963, 630.519 724.963, 630.519 734.963, 630.519 749.037, 630.519 " />
            <path fill="none" stroke-width="1.5" stroke-linecap="round" stroke-opacity="1.0" stroke="rgb(0, 0, 0)" stroke-linejoin="round" d=" M 274.963, 630.519 274.963, 630.519 " />
            <path fill="none" stroke-width="1.5" stroke-linecap="round" stroke-opacity="1.0" stroke="rgb(0, 0, 0)" stroke-linejoin="round" d=" M 274.963, 488.296 284.963, 488.296 294.963, 488.296 298.667, 488.296 " />
            <path fill="none" stroke-width="1.5" stroke-linecap="round" stroke-opacity="1.0" stroke="rgb(0, 0, 0)" stroke-linejoin="round" d=" M 749.037, 488.296 749.037, 488.296 " />
            <path fill="none" stroke-width="1.5" stroke-linecap="round" stroke-opacity="1.0" stroke="rgb(0, 0, 0)" stroke-linejoin="round" d=" M 749.037, 488.296 739.037, 488.296 729.037, 488.296 719.037, 488.296 709.037, 488.296 699.037, 488.296 689.037, 488.296 679.037, 488.296 669.037, 488.296 659.037, 488.296 649.037, 488.296 639.037, 488.296 629.037, 488.296 619.037, 488.296 609.037, 488.296 599.037, 488.296 589.037, 488.296 579.037, 488.296 569.037, 488.296 559.037, 488.296 549.037, 488.296 539.037, 488.296 529.037, 488.296 519.037, 488.296 509.037, 488.296 499.037, 488.296 489.037, 488.296 479.037, 488.296 469.037, 488.296 459.037, 488.296 449.037, 488.296 439.037, 488.296 429.037, 488.296 419.037, 488.296 409.037, 488.296 399.037, 488.296 389.037, 488.296 379.037, 488.296 369.037, 488.296 359.037, 488.296 346.074, 488.296 346.074, 488.296 336.074, 488.296 326.074, 488.296 316.074, 488.296 306.074, 488.296 298.667, 488.296 298.667, 488.296 288.667, 488.296 278.667, 488.296 274.963, 488.296 " />
            <path fill="none" stroke-width="1.5" stroke-linecap="round" stroke-opacity="1.0" stroke="rgb(0, 0, 0)" stroke-linejoin="round" d=" M 749.037, 630.519 749.037, 630.519 " />
            <path fill="none" stroke-width="1.5" stroke-linecap="round" stroke-opacity="1.0" stroke="rgb(0, 0, 0)" stroke-linejoin="round" d=" M 749.037, 571.259 749.037, 571.259 " />
            <path fill="none" stroke-width="1.5" stroke-linecap="round" stroke-opacity="1.0" stroke="rgb(0, 0, 0)" stroke-linejoin="round" d=" M 749.037, 630.519 749.037, 620.519 749.037, 610.519 749.037, 600.519 749.037, 590.519 749.037, 580.519 749.037, 571.259 " />
            <path fill="none" stroke-width="1.5" stroke-linecap="round" stroke-opacity="1.0" stroke="rgb(0, 0, 0)" stroke-linejoin="round" d=" M 749.037, 571.259 749.037, 571.259 " />
            <path fill="none" stroke-width="1.5" stroke-linecap="round" stroke-opacity="1.0" stroke="rgb(0, 0, 0)" stroke-linejoin="round" d=" M 749.037, 571.259 749.037, 561.259 749.037, 551.259 749.037, 541.259 749.037, 531.259 749.037, 521.259 749.037, 511.259 749.037, 501.259 749.037, 491.259 749.037, 488.296 " />
            <path fill="none" stroke-width="1.5" stroke-linecap="round" stroke-opacity="1.0" stroke="rgb(0, 0, 0)" stroke-linejoin="round" d=" M 749.037, 488.296 749.037, 488.296 " />
        </g>
    </g>
</svg>
