<?xml version='1.0' encoding='ascii'?>
<svg xmlns="http://www.w3.org/2000/svg" xmlns:inkscape="http://www.inkscape.org/namespaces/inkscape" version="1.1" width="1024" height="1024">
    <g id="ViewLayer_LineSet" inkscape:groupmode="lineset" inkscape:label="ViewLayer_LineSet">
        <g inkscape:groupmode="layer" id="strokes" inkscape:label="strokes">
            <path fill="none" stroke-width="3.0" stroke-linecap="butt" stroke-opacity="1.0" stroke="rgb(0, 0, 0)" stroke-linejoin="round" d=" M 451.663, 796.444 451.663, 796.444 451.663, 786.444 451.663, 776.444 451.663, 766.444 451.663, 756.444 451.663, 746.444 451.663, 736.444 451.663, 726.444 451.663, 716.444 451.663, 706.444 451.663, 696.444 451.663, 686.444 451.663, 676.444 451.663, 666.444 451.663, 656.444 451.663, 646.444 451.663, 636.444 451.663, 626.444 451.663, 616.444 451.663, 606.444 451.663, 596.444 451.663, 589.576 451.663, 589.576 " />
            <path fill="none" stroke-width="3.0" stroke-linecap="butt" stroke-opacity="1.0" stroke="rgb(0, 0, 0)" stroke-linejoin="round" d=" M 451.663, 589.576 451.332, 589.576 450.351, 589.576 448.758, 589.576 446.614, 589.576 444.002, 589.576 441.021, 589.576 437.787, 589.576 434.424, 589.576 431.061, 589.576 427.827, 589.576 424.847, 589.576 422.234, 589.576 420.091, 589.576 418.497, 589.576 417.516, 589.576 417.185, 589.576 417.185, 599.576 417.185, 609.576 417.185, 619.576 417.185, 629.576 417.185, 639.576 417.185, 649.576 417.185, 659.576 417.185, 669.576 417.185, 679.576 417.185, 689.576 417.185, 699.576 417.185, 709.576 417.185, 719.576 417.185, 729.576 417.185, 739.576 417.185, 749.576 417.185, 759.576 417.185, 769.576 417.185, 779.576 417.185, 789.576 417.185, 796.444 417.516, 796.444 418.497, 796.444 420.091, 796.444 422.234, 796.444 424.847, 796.444 427.827, 796.444 431.061, 796.444 434.424, 796.444 437.787, 796.444 441.021, 796.444 444.002, 796.444 446.614, 796.444 448.758, 796.444 450.351, 796.444 451.332, 796.444 451.663, 796.444 " />
            <path fill="none" stroke-width="3.0" stroke-linecap="butt" stroke-opacity="1.0" stroke="rgb(0, 0, 0)" stroke-linejoin="round" d=" M 624.054, 796.444 624.054, 796.444 624.054, 786.444 624.054, 776.444 624.054, 766.444 624.054, 756.444 624.054, 746.444 624.054, 736.444 624.054, 726.444 624.054, 716.444 624.054, 706.444 624.054, 696.444 624.054, 686.444 624.054, 676.444 624.054, 666.444 624.054, 656.444 624.054, 646.444 624.054, 636.444 624.054, 626.444 624.054, 616.444 624.054, 606.444 624.054, 596.444 624.054, 589.576 624.054, 589.576 " />
            <path fill="none" stroke-width="3.0" stroke-linecap="butt" stroke-opacity="1.0" stroke="rgb(0, 0, 0)" stroke-linejoin="round" d=" M 624.054, 589.576 623.723, 589.576 622.742, 589.576 621.149, 589.576 619.005, 589.576 616.392, 589.576 613.412, 589.576 610.178, 589.576 606.815, 589.576 603.452, 589.576 600.218, 589.576 597.237, 589.576 594.625, 589.576 592.481, 589.576 590.888, 589.576 589.907, 589.576 589.576, 589.576 589.576, 589.576 589.576, 599.576 589.576, 609.576 589.576, 619.576 589.576, 629.576 589.576, 639.576 589.576, 649.576 589.576, 659.576 589.576, 669.576 589.576, 679.576 589.576, 689.576 589.576, 699.576 589.576, 709.576 589.576, 719.576 589.576, 729.576 589.576, 739.576 589.576, 749.576 589.576, 759.576 589.576, 769.576 589.576, 779.576 589.576, 789.576 589.576, 796.444 589.576, 796.444 589.907, 796.444 590.888, 796.444 592.481, 796.444 594.625, 796.444 597.237, 796.444 600.218, 796.444 603.452, 796.444 606.815, 796.444 610.178, 796.444 613.412, 796.444 616.392, 796.444 619.005, 796.444 621.149, 796.444 622.742, 796.444 623.723, 796.444 624.054, 796.444 " />
            <path fill="none" stroke-width="3.0" stroke-linecap="butt" stroke-opacity="1.0" stroke="rgb(0, 0, 0)" stroke-linejoin="round" d=" M 417.185, 503.380 427.185, 503.380 437.185, 503.380 447.185, 503.380 457.185, 503.380 467.185, 503.380 477.185, 503.380 487.185, 503.380 497.185, 503.380 507.185, 503.380 517.185, 503.380 527.185, 503.380 537.185, 503.380 547.185, 503.380 557.185, 503.380 567.185, 503.380 577.185, 503.380 587.185, 503.380 597.185, 503.380 607.185, 503.380 617.185, 503.380 624.054, 503.380 624.054, 503.380 624.054, 493.380 624.054, 483.380 624.054, 473.380 624.054, 468.902 624.054, 468.902 614.054, 468.902 604.054, 468.902 594.054, 468.902 584.054, 468.902 574.054, 468.902 564.054, 468.902 554.054, 468.902 544.054, 468.902 534.054, 468.902 524.054, 468.902 514.054, 468.902 504.054, 468.902 494.054, 468.902 484.054, 468.902 474.054, 468.902 464.054, 468.902 454.054, 468.902 444.054, 468.902 434.054, 468.902 424.054, 468.902 417.185, 468.902 417.185, 478.902 417.185, 488.902 417.185, 498.902 417.185, 503.380 417.185, 503.380 " />
            <path fill="none" stroke-width="3.0" stroke-linecap="butt" stroke-opacity="1.0" stroke="rgb(0, 0, 0)" stroke-linejoin="round" d=" M 417.185, 503.380 427.185, 503.380 437.185, 503.380 447.185, 503.380 457.185, 503.380 467.185, 503.380 477.185, 503.380 487.185, 503.380 497.185, 503.380 507.185, 503.380 517.185, 503.380 527.185, 503.380 537.185, 503.380 547.185, 503.380 557.185, 503.380 567.185, 503.380 577.185, 503.380 587.185, 503.380 597.185, 503.380 607.185, 503.380 617.185, 503.380 624.054, 503.380 " />
            <path fill="none" stroke-width="3.0" stroke-linecap="butt" stroke-opacity="1.0" stroke="rgb(0, 0, 0)" stroke-linejoin="round" d=" M 434.424, 399.946 434.424, 389.946 434.424, 379.946 434.424, 369.946 434.424, 359.946 434.424, 349.946 434.424, 339.946 434.424, 329.946 434.424, 319.946 434.424, 309.946 434.424, 299.946 434.424, 289.946 434.424, 279.946 434.424, 269.946 434.424, 259.946 434.424, 249.946 434.424, 239.946 434.424, 229.946 434.424, 227.556 434.424, 227.556 424.424, 227.556 414.424, 227.556 404.424, 227.556 399.946, 227.556 399.946, 237.556 399.946, 247.556 399.946, 257.556 399.946, 267.556 399.946, 277.556 399.946, 287.556 399.946, 297.556 399.946, 307.556 399.946, 317.556 399.946, 327.556 399.946, 337.556 399.946, 347.556 399.946, 357.556 399.946, 367.556 399.946, 377.556 399.946, 387.556 399.946, 397.556 399.946, 407.556 399.946, 417.556 399.946, 427.556 399.946, 434.424 409.946, 434.424 419.946, 434.424 429.946, 434.424 434.424, 434.424 434.424, 434.424 " />
            <path fill="none" stroke-width="3.0" stroke-linecap="butt" stroke-opacity="1.0" stroke="rgb(0, 0, 0)" stroke-linejoin="round" d=" M 434.424, 227.556 434.424, 237.556 434.424, 247.556 434.424, 257.556 434.424, 267.556 434.424, 277.556 434.424, 287.556 434.424, 297.556 434.424, 307.556 434.424, 317.556 434.424, 327.556 434.424, 337.556 434.424, 347.556 434.424, 357.556 434.424, 367.556 434.424, 377.556 434.424, 387.556 434.424, 397.556 434.424, 399.946 " />
            <path fill="none" stroke-width="3.0" stroke-linecap="butt" stroke-opacity="1.0" stroke="rgb(0, 0, 0)" stroke-linejoin="round" d=" M 434.424, 434.424 444.424, 434.424 454.424, 434.424 464.424, 434.424 474.424, 434.424 484.424, 434.424 494.424, 434.424 504.424, 434.424 514.424, 434.424 524.424, 434.424 534.424, 434.424 544.424, 434.424 554.424, 434.424 564.424, 434.424 574.424, 434.424 584.424, 434.424 594.424, 434.424 604.424, 434.424 614.424, 434.424 624.054, 434.424 624.054, 434.424 624.054, 424.424 624.054, 414.424 624.054, 404.424 624.054, 399.946 " />
            <path fill="none" stroke-width="3.0" stroke-linecap="butt" stroke-opacity="1.0" stroke="rgb(0, 0, 0)" stroke-linejoin="round" d=" M 624.054, 399.946 624.054, 399.946 614.054, 399.946 604.054, 399.946 594.054, 399.946 584.054, 399.946 574.054, 399.946 564.054, 399.946 554.054, 399.946 544.054, 399.946 534.054, 399.946 524.054, 399.946 514.054, 399.946 504.054, 399.946 494.054, 399.946 484.054, 399.946 474.054, 399.946 464.054, 399.946 454.054, 399.946 444.054, 399.946 434.424, 399.946 434.424, 399.946 424.424, 399.946 417.185, 399.946 417.185, 409.946 417.185, 419.946 417.185, 429.946 417.185, 434.424 417.185, 434.424 417.185, 434.424 " />
            <path fill="none" stroke-width="3.0" stroke-linecap="butt" stroke-opacity="1.0" stroke="rgb(0, 0, 0)" stroke-linejoin="round" d=" M 417.185, 434.424 427.185, 434.424 434.424, 434.424 434.424, 434.424 444.424, 434.424 454.424, 434.424 464.424, 434.424 474.424, 434.424 484.424, 434.424 494.424, 434.424 504.424, 434.424 514.424, 434.424 524.424, 434.424 534.424, 434.424 544.424, 434.424 554.424, 434.424 564.424, 434.424 574.424, 434.424 584.424, 434.424 594.424, 434.424 604.424, 434.424 614.424, 434.424 624.054, 434.424 624.054, 434.424 624.054, 424.424 624.054, 414.424 624.054, 404.424 624.054, 399.946 " />
            <path fill="none" stroke-width="3.0" stroke-linecap="butt" stroke-opacity="1.0" stroke="rgb(0, 0, 0)" stroke-linejoin="round" d=" M 417.185, 434.424 417.185, 434.424 427.185, 434.424 434.424, 434.424 444.424, 434.424 454.424, 434.424 464.424, 434.424 474.424, 434.424 484.424, 434.424 494.424, 434.424 504.424, 434.424 514.424, 434.424 524.424, 434.424 534.424, 434.424 544.424, 434.424 554.424, 434.424 564.424, 434.424 574.424, 434.424 584.424, 434.424 594.424, 434.424 604.424, 434.424 614.424, 434.424 624.054, 434.424 " />
            <path fill="none" stroke-width="3.0" stroke-linecap="butt" stroke-opacity="1.0" stroke="rgb(0, 0, 0)" stroke-linejoin="round" d=" M 417.185, 546.478 427.185, 546.478 437.185, 546.478 447.185, 546.478 457.185, 546.478 467.185, 546.478 477.185, 546.478 487.185, 546.478 497.185, 546.478 507.185, 546.478 517.185, 546.478 527.185, 546.478 537.185, 546.478 547.185, 546.478 557.185, 546.478 567.185, 546.478 577.185, 546.478 587.185, 546.478 597.185, 546.478 607.185, 546.478 617.185, 546.478 624.054, 546.478 624.054, 546.478 624.054, 536.478 624.054, 529.239 624.054, 529.239 614.054, 529.239 604.054, 529.239 594.054, 529.239 584.054, 529.239 574.054, 529.239 564.054, 529.239 554.054, 529.239 544.054, 529.239 534.054, 529.239 524.054, 529.239 514.054, 529.239 504.054, 529.239 494.054, 529.239 484.054, 529.239 474.054, 529.239 464.054, 529.239 454.054, 529.239 444.054, 529.239 434.054, 529.239 424.054, 529.239 417.185, 529.239 417.185, 539.239 417.185, 546.478 417.185, 546.478 " />
            <path fill="none" stroke-width="3.0" stroke-linecap="butt" stroke-opacity="1.0" stroke="rgb(0, 0, 0)" stroke-linejoin="round" d=" M 417.185, 546.478 427.185, 546.478 437.185, 546.478 447.185, 546.478 457.185, 546.478 467.185, 546.478 477.185, 546.478 487.185, 546.478 497.185, 546.478 507.185, 546.478 517.185, 546.478 527.185, 546.478 537.185, 546.478 547.185, 546.478 557.185, 546.478 567.185, 546.478 577.185, 546.478 587.185, 546.478 597.185, 546.478 607.185, 546.478 617.185, 546.478 624.054, 546.478 " />
            <path fill="none" stroke-width="3.0" stroke-linecap="butt" stroke-opacity="1.0" stroke="rgb(0, 0, 0)" stroke-linejoin="round" d=" M 434.424, 434.424 434.424, 434.424 " />
            <path fill="none" stroke-width="3.0" stroke-linecap="butt" stroke-opacity="1.0" stroke="rgb(0, 0, 0)" stroke-linejoin="round" d=" M 434.424, 434.424 434.424, 434.424 434.424, 434.424 " />
            <path fill="none" stroke-width="3.0" stroke-linecap="butt" stroke-opacity="1.0" stroke="rgb(0, 0, 0)" stroke-linejoin="round" d=" M 451.663, 796.444 451.663, 786.444 451.663, 776.444 451.663, 766.444 451.663, 756.444 451.663, 746.444 451.663, 736.444 451.663, 726.444 451.663, 716.444 451.663, 706.444 451.663, 696.444 451.663, 686.444 451.663, 676.444 451.663, 666.444 451.663, 656.444 451.663, 646.444 451.663, 636.444 451.663, 626.444 451.663, 616.444 451.663, 606.444 451.663, 596.444 451.663, 589.576 " />
            <path fill="none" stroke-width="3.0" stroke-linecap="butt" stroke-opacity="1.0" stroke="rgb(0, 0, 0)" stroke-linejoin="round" d=" M 624.054, 796.444 624.054, 786.444 624.054, 776.444 624.054, 766.444 624.054, 756.444 624.054, 746.444 624.054, 736.444 624.054, 726.444 624.054, 716.444 624.054, 706.444 624.054, 696.444 624.054, 686.444 624.054, 676.444 624.054, 666.444 624.054, 656.444 624.054, 646.444 624.054, 636.444 624.054, 626.444 624.054, 616.444 624.054, 606.444 624.054, 596.444 624.054, 589.576 " />
            <path fill="none" stroke-width="3.0" stroke-linecap="butt" stroke-opacity="1.0" stroke="rgb(0, 0, 0)" stroke-linejoin="round" d=" M 434.424, 434.424 444.424, 434.424 454.424, 434.424 464.424, 434.424 474.424, 434.424 484.424, 434.424 494.424, 434.424 504.424, 434.424 514.424, 434.424 524.424, 434.424 534.424, 434.424 544.424, 434.424 554.424, 434.424 564.424, 434.424 574.424, 434.424 584.424, 434.424 594.424, 434.424 604.424, 434.424 614.424, 434.424 624.054, 434.424 " />
            <path fill="none" stroke-width="3.0" stroke-linecap="butt" stroke-opacity="1.0" stroke="rgb(0, 0, 0)" stroke-linejoin="round" d=" M 624.054, 399.946 624.054, 399.946 " />
        </g>
    </g>
    <g id="ViewLayer_TechnicalLines" inkscape:groupmode="lineset" inkscape:label="ViewLayer_TechnicalLines">
        <g inkscape:groupmode="layer" id="strokes" inkscape:label="strokes">
            <path fill="none" stroke-width="3.0" stroke-linecap="butt" stroke-opacity="1.0" stroke="rgb(0, 0, 0)" stroke-linejoin="round" d=" M 451.663, 796.444 451.663, 796.444 451.663, 786.444 451.663, 776.444 451.663, 766.444 451.663, 756.444 451.663, 746.444 451.663, 736.444 451.663, 726.444 451.663, 716.444 451.663, 706.444 451.663, 696.444 451.663, 686.444 451.663, 676.444 451.663, 666.444 451.663, 656.444 451.663, 646.444 451.663, 636.444 451.663, 626.444 451.663, 616.444 451.663, 606.444 451.663, 596.444 451.663, 589.576 451.663, 589.576 " />
            <path fill="none" stroke-width="3.0" stroke-linecap="butt" stroke-opacity="1.0" stroke="rgb(0, 0, 0)" stroke-linejoin="round" d=" M 451.663, 589.576 451.332, 589.576 450.351, 589.576 448.758, 589.576 446.614, 589.576 444.002, 589.576 441.021, 589.576 437.787, 589.576 434.424, 589.576 431.061, 589.576 427.827, 589.576 424.847, 589.576 422.234, 589.576 420.091, 589.576 418.497, 589.576 417.516, 589.576 417.185, 589.576 417.185, 599.576 417.185, 609.576 417.185, 619.576 417.185, 629.576 417.185, 639.576 417.185, 649.576 417.185, 659.576 417.185, 669.576 417.185, 679.576 417.185, 689.576 417.185, 699.576 417.185, 709.576 417.185, 719.576 417.185, 729.576 417.185, 739.576 417.185, 749.576 417.185, 759.576 417.185, 769.576 417.185, 779.576 417.185, 789.576 417.185, 796.444 417.516, 796.444 418.497, 796.444 420.091, 796.444 422.234, 796.444 424.847, 796.444 427.827, 796.444 431.061, 796.444 434.424, 796.444 437.787, 796.444 441.021, 796.444 444.002, 796.444 446.614, 796.444 448.758, 796.444 450.351, 796.444 451.332, 796.444 451.663, 796.444 " />
            <path fill="none" stroke-width="3.0" stroke-linecap="butt" stroke-opacity="1.0" stroke="rgb(0, 0, 0)" stroke-linejoin="round" d=" M 624.054, 796.444 624.054, 796.444 624.054, 786.444 624.054, 776.444 624.054, 766.444 624.054, 756.444 624.054, 746.444 624.054, 736.444 624.054, 726.444 624.054, 716.444 624.054, 706.444 624.054, 696.444 624.054, 686.444 624.054, 676.444 624.054, 666.444 624.054, 656.444 624.054, 646.444 624.054, 636.444 624.054, 626.444 624.054, 616.444 624.054, 606.444 624.054, 596.444 624.054, 589.576 624.054, 589.576 " />
            <path fill="none" stroke-width="3.0" stroke-linecap="butt" stroke-opacity="1.0" stroke="rgb(0, 0, 0)" stroke-linejoin="round" d=" M 624.054, 589.576 623.723, 589.576 622.742, 589.576 621.149, 589.576 619.005, 589.576 616.392, 589.576 613.412, 589.576 610.178, 589.576 606.815, 589.576 603.452, 589.576 600.218, 589.576 597.237, 589.576 594.625, 589.576 592.481, 589.576 590.888, 589.576 589.907, 589.576 589.576, 589.576 589.576, 589.576 589.576, 599.576 589.576, 609.576 589.576, 619.576 589.576, 629.576 589.576, 639.576 589.576, 649.576 589.576, 659.576 589.576, 669.576 589.576, 679.576 589.576, 689.576 589.576, 699.576 589.576, 709.576 589.576, 719.576 589.576, 729.576 589.576, 739.576 589.576, 749.576 589.576, 759.576 589.576, 769.576 589.576, 779.576 589.576, 789.576 589.576, 796.444 589.576, 796.444 589.907, 796.444 590.888, 796.444 592.481, 796.444 594.625, 796.444 597.237, 796.444 600.218, 796.444 603.452, 796.444 606.815, 796.444 610.178, 796.444 613.412, 796.444 616.392, 796.444 619.005, 796.444 621.149, 796.444 622.742, 796.444 623.723, 796.444 624.054, 796.444 " />
            <path fill="none" stroke-width="3.0" stroke-linecap="butt" stroke-opacity="1.0" stroke="rgb(0, 0, 0)" stroke-linejoin="round" d=" M 417.185, 503.380 427.185, 503.380 437.185, 503.380 447.185, 503.380 457.185, 503.380 467.185, 503.380 477.185, 503.380 487.185, 503.380 497.185, 503.380 507.185, 503.380 517.185, 503.380 527.185, 503.380 537.185, 503.380 547.185, 503.380 557.185, 503.380 567.185, 503.380 577.185, 503.380 587.185, 503.380 597.185, 503.380 607.185, 503.380 617.185, 503.380 624.054, 503.380 624.054, 503.380 624.054, 493.380 624.054, 483.380 624.054, 473.380 624.054, 468.902 624.054, 468.902 614.054, 468.902 604.054, 468.902 594.054, 468.902 584.054, 468.902 574.054, 468.902 564.054, 468.902 554.054, 468.902 544.054, 468.902 534.054, 468.902 524.054, 468.902 514.054, 468.902 504.054, 468.902 494.054, 468.902 484.054, 468.902 474.054, 468.902 464.054, 468.902 454.054, 468.902 444.054, 468.902 434.054, 468.902 424.054, 468.902 417.185, 468.902 417.185, 478.902 417.185, 488.902 417.185, 498.902 417.185, 503.380 417.185, 503.380 " />
            <path fill="none" stroke-width="3.0" stroke-linecap="butt" stroke-opacity="1.0" stroke="rgb(0, 0, 0)" stroke-linejoin="round" d=" M 417.185, 503.380 427.185, 503.380 437.185, 503.380 447.185, 503.380 457.185, 503.380 467.185, 503.380 477.185, 503.380 487.185, 503.380 497.185, 503.380 507.185, 503.380 517.185, 503.380 527.185, 503.380 537.185, 503.380 547.185, 503.380 557.185, 503.380 567.185, 503.380 577.185, 503.380 587.185, 503.380 597.185, 503.380 607.185, 503.380 617.185, 503.380 624.054, 503.380 " />
            <path fill="none" stroke-width="3.0" stroke-linecap="butt" stroke-opacity="1.0" stroke="rgb(0, 0, 0)" stroke-linejoin="round" d=" M 434.424, 399.946 434.424, 389.946 434.424, 379.946 434.424, 369.946 434.424, 359.946 434.424, 349.946 434.424, 339.946 434.424, 329.946 434.424, 319.946 434.424, 309.946 434.424, 299.946 434.424, 289.946 434.424, 279.946 434.424, 269.946 434.424, 259.946 434.424, 249.946 434.424, 239.946 434.424, 229.946 434.424, 227.556 434.424, 227.556 424.424, 227.556 414.424, 227.556 404.424, 227.556 399.946, 227.556 399.946, 237.556 399.946, 247.556 399.946, 257.556 399.946, 267.556 399.946, 277.556 399.946, 287.556 399.946, 297.556 399.946, 307.556 399.946, 317.556 399.946, 327.556 399.946, 337.556 399.946, 347.556 399.946, 357.556 399.946, 367.556 399.946, 377.556 399.946, 387.556 399.946, 397.556 399.946, 407.556 399.946, 417.556 399.946, 427.556 399.946, 434.424 409.946, 434.424 419.946, 434.424 429.946, 434.424 434.424, 434.424 434.424, 434.424 " />
            <path fill="none" stroke-width="3.0" stroke-linecap="butt" stroke-opacity="1.0" stroke="rgb(0, 0, 0)" stroke-linejoin="round" d=" M 434.424, 227.556 434.424, 237.556 434.424, 247.556 434.424, 257.556 434.424, 267.556 434.424, 277.556 434.424, 287.556 434.424, 297.556 434.424, 307.556 434.424, 317.556 434.424, 327.556 434.424, 337.556 434.424, 347.556 434.424, 357.556 434.424, 367.556 434.424, 377.556 434.424, 387.556 434.424, 397.556 434.424, 399.946 " />
            <path fill="none" stroke-width="3.0" stroke-linecap="butt" stroke-opacity="1.0" stroke="rgb(0, 0, 0)" stroke-linejoin="round" d=" M 434.424, 434.424 444.424, 434.424 454.424, 434.424 464.424, 434.424 474.424, 434.424 484.424, 434.424 494.424, 434.424 504.424, 434.424 514.424, 434.424 524.424, 434.424 534.424, 434.424 544.424, 434.424 554.424, 434.424 564.424, 434.424 574.424, 434.424 584.424, 434.424 594.424, 434.424 604.424, 434.424 614.424, 434.424 624.054, 434.424 624.054, 434.424 624.054, 424.424 624.054, 414.424 624.054, 404.424 624.054, 399.946 " />
            <path fill="none" stroke-width="3.0" stroke-linecap="butt" stroke-opacity="1.0" stroke="rgb(0, 0, 0)" stroke-linejoin="round" d=" M 624.054, 399.946 624.054, 399.946 614.054, 399.946 604.054, 399.946 594.054, 399.946 584.054, 399.946 574.054, 399.946 564.054, 399.946 554.054, 399.946 544.054, 399.946 534.054, 399.946 524.054, 399.946 514.054, 399.946 504.054, 399.946 494.054, 399.946 484.054, 399.946 474.054, 399.946 464.054, 399.946 454.054, 399.946 444.054, 399.946 434.424, 399.946 434.424, 399.946 424.424, 399.946 417.185, 399.946 417.185, 409.946 417.185, 419.946 417.185, 429.946 417.185, 434.424 417.185, 434.424 417.185, 434.424 " />
            <path fill="none" stroke-width="3.0" stroke-linecap="butt" stroke-opacity="1.0" stroke="rgb(0, 0, 0)" stroke-linejoin="round" d=" M 417.185, 434.424 427.185, 434.424 434.424, 434.424 434.424, 434.424 444.424, 434.424 454.424, 434.424 464.424, 434.424 474.424, 434.424 484.424, 434.424 494.424, 434.424 504.424, 434.424 514.424, 434.424 524.424, 434.424 534.424, 434.424 544.424, 434.424 554.424, 434.424 564.424, 434.424 574.424, 434.424 584.424, 434.424 594.424, 434.424 604.424, 434.424 614.424, 434.424 624.054, 434.424 624.054, 434.424 624.054, 424.424 624.054, 414.424 624.054, 404.424 624.054, 399.946 " />
            <path fill="none" stroke-width="3.0" stroke-linecap="butt" stroke-opacity="1.0" stroke="rgb(0, 0, 0)" stroke-linejoin="round" d=" M 417.185, 434.424 417.185, 434.424 427.185, 434.424 434.424, 434.424 444.424, 434.424 454.424, 434.424 464.424, 434.424 474.424, 434.424 484.424, 434.424 494.424, 434.424 504.424, 434.424 514.424, 434.424 524.424, 434.424 534.424, 434.424 544.424, 434.424 554.424, 434.424 564.424, 434.424 574.424, 434.424 584.424, 434.424 594.424, 434.424 604.424, 434.424 614.424, 434.424 624.054, 434.424 " />
            <path fill="none" stroke-width="3.0" stroke-linecap="butt" stroke-opacity="1.0" stroke="rgb(0, 0, 0)" stroke-linejoin="round" d=" M 417.185, 546.478 427.185, 546.478 437.185, 546.478 447.185, 546.478 457.185, 546.478 467.185, 546.478 477.185, 546.478 487.185, 546.478 497.185, 546.478 507.185, 546.478 517.185, 546.478 527.185, 546.478 537.185, 546.478 547.185, 546.478 557.185, 546.478 567.185, 546.478 577.185, 546.478 587.185, 546.478 597.185, 546.478 607.185, 546.478 617.185, 546.478 624.054, 546.478 624.054, 546.478 624.054, 536.478 624.054, 529.239 624.054, 529.239 614.054, 529.239 604.054, 529.239 594.054, 529.239 584.054, 529.239 574.054, 529.239 564.054, 529.239 554.054, 529.239 544.054, 529.239 534.054, 529.239 524.054, 529.239 514.054, 529.239 504.054, 529.239 494.054, 529.239 484.054, 529.239 474.054, 529.239 464.054, 529.239 454.054, 529.239 444.054, 529.239 434.054, 529.239 424.054, 529.239 417.185, 529.239 417.185, 539.239 417.185, 546.478 417.185, 546.478 " />
            <path fill="none" stroke-width="3.0" stroke-linecap="butt" stroke-opacity="1.0" stroke="rgb(0, 0, 0)" stroke-linejoin="round" d=" M 417.185, 546.478 427.185, 546.478 437.185, 546.478 447.185, 546.478 457.185, 546.478 467.185, 546.478 477.185, 546.478 487.185, 546.478 497.185, 546.478 507.185, 546.478 517.185, 546.478 527.185, 546.478 537.185, 546.478 547.185, 546.478 557.185, 546.478 567.185, 546.478 577.185, 546.478 587.185, 546.478 597.185, 546.478 607.185, 546.478 617.185, 546.478 624.054, 546.478 " />
            <path fill="none" stroke-width="3.0" stroke-linecap="butt" stroke-opacity="1.0" stroke="rgb(0, 0, 0)" stroke-linejoin="round" d=" M 434.424, 434.424 434.424, 434.424 " />
            <path fill="none" stroke-width="3.0" stroke-linecap="butt" stroke-opacity="1.0" stroke="rgb(0, 0, 0)" stroke-linejoin="round" d=" M 434.424, 434.424 434.424, 434.424 434.424, 434.424 " />
            <path fill="none" stroke-width="3.0" stroke-linecap="butt" stroke-opacity="1.0" stroke="rgb(0, 0, 0)" stroke-linejoin="round" d=" M 451.663, 796.444 451.663, 786.444 451.663, 776.444 451.663, 766.444 451.663, 756.444 451.663, 746.444 451.663, 736.444 451.663, 726.444 451.663, 716.444 451.663, 706.444 451.663, 696.444 451.663, 686.444 451.663, 676.444 451.663, 666.444 451.663, 656.444 451.663, 646.444 451.663, 636.444 451.663, 626.444 451.663, 616.444 451.663, 606.444 451.663, 596.444 451.663, 589.576 " />
            <path fill="none" stroke-width="3.0" stroke-linecap="butt" stroke-opacity="1.0" stroke="rgb(0, 0, 0)" stroke-linejoin="round" d=" M 624.054, 796.444 624.054, 786.444 624.054, 776.444 624.054, 766.444 624.054, 756.444 624.054, 746.444 624.054, 736.444 624.054, 726.444 624.054, 716.444 624.054, 706.444 624.054, 696.444 624.054, 686.444 624.054, 676.444 624.054, 666.444 624.054, 656.444 624.054, 646.444 624.054, 636.444 624.054, 626.444 624.054, 616.444 624.054, 606.444 624.054, 596.444 624.054, 589.576 " />
            <path fill="none" stroke-width="3.0" stroke-linecap="butt" stroke-opacity="1.0" stroke="rgb(0, 0, 0)" stroke-linejoin="round" d=" M 434.424, 434.424 444.424, 434.424 454.424, 434.424 464.424, 434.424 474.424, 434.424 484.424, 434.424 494.424, 434.424 504.424, 434.424 514.424, 434.424 524.424, 434.424 534.424, 434.424 544.424, 434.424 554.424, 434.424 564.424, 434.424 574.424, 434.424 584.424, 434.424 594.424, 434.424 604.424, 434.424 614.424, 434.424 624.054, 434.424 " />
            <path fill="none" stroke-width="3.0" stroke-linecap="butt" stroke-opacity="1.0" stroke="rgb(0, 0, 0)" stroke-linejoin="round" d=" M 624.054, 399.946 624.054, 399.946 " />
        </g>
    </g>
    <g id="ViewLayer_TechnicalLines.001" inkscape:groupmode="lineset" inkscape:label="ViewLayer_TechnicalLines.001">
        <g inkscape:groupmode="layer" id="strokes" inkscape:label="strokes">
            <path fill="none" stroke-width="1.5" stroke-linecap="round" stroke-opacity="1.0" stroke="rgb(0, 0, 0)" stroke-linejoin="round" d=" M 451.663, 796.444 451.663, 796.444 451.663, 786.444 451.663, 776.444 451.663, 766.444 451.663, 756.444 451.663, 746.444 451.663, 736.444 451.663, 726.444 451.663, 716.444 451.663, 706.444 451.663, 696.444 451.663, 686.444 451.663, 676.444 451.663, 666.444 451.663, 656.444 451.663, 646.444 451.663, 636.444 451.663, 626.444 451.663, 616.444 451.663, 606.444 451.663, 596.444 451.663, 589.576 451.663, 589.576 " />
            <path fill="none" stroke-width="1.5" stroke-linecap="round" stroke-opacity="1.0" stroke="rgb(0, 0, 0)" stroke-linejoin="round" d=" M 451.663, 589.576 451.332, 589.576 450.351, 589.576 448.758, 589.576 446.614, 589.576 444.002, 589.576 441.021, 589.576 437.787, 589.576 434.424, 589.576 431.061, 589.576 427.827, 589.576 424.847, 589.576 422.234, 589.576 420.091, 589.576 418.497, 589.576 417.516, 589.576 417.185, 589.576 417.185, 599.576 417.185, 609.576 417.185, 619.576 417.185, 629.576 417.185, 639.576 417.185, 649.576 417.185, 659.576 417.185, 669.576 417.185, 679.576 417.185, 689.576 417.185, 699.576 417.185, 709.576 417.185, 719.576 417.185, 729.576 417.185, 739.576 417.185, 749.576 417.185, 759.576 417.185, 769.576 417.185, 779.576 417.185, 789.576 417.185, 796.444 417.516, 796.444 418.497, 796.444 420.091, 796.444 422.234, 796.444 424.847, 796.444 427.827, 796.444 431.061, 796.444 434.424, 796.444 437.787, 796.444 441.021, 796.444 444.002, 796.444 446.614, 796.444 448.758, 796.444 450.351, 796.444 451.332, 796.444 451.663, 796.444 " />
            <path fill="none" stroke-width="1.5" stroke-linecap="round" stroke-opacity="1.0" stroke="rgb(0, 0, 0)" stroke-linejoin="round" d=" M 624.054, 796.444 624.054, 796.444 624.054, 786.444 624.054, 776.444 624.054, 766.444 624.054, 756.444 624.054, 746.444 624.054, 736.444 624.054, 726.444 624.054, 716.444 624.054, 706.444 624.054, 696.444 624.054, 686.444 624.054, 676.444 624.054, 666.444 624.054, 656.444 624.054, 646.444 624.054, 636.444 624.054, 626.444 624.054, 616.444 624.054, 606.444 624.054, 596.444 624.054, 589.576 624.054, 589.576 " />
            <path fill="none" stroke-width="1.5" stroke-linecap="round" stroke-opacity="1.0" stroke="rgb(0, 0, 0)" stroke-linejoin="round" d=" M 624.054, 589.576 623.723, 589.576 622.742, 589.576 621.149, 589.576 619.005, 589.576 616.392, 589.576 613.412, 589.576 610.178, 589.576 606.815, 589.576 603.452, 589.576 600.218, 589.576 597.237, 589.576 594.625, 589.576 592.481, 589.576 590.888, 589.576 589.907, 589.576 589.576, 589.576 589.576, 589.576 589.576, 599.576 589.576, 609.576 589.576, 619.576 589.576, 629.576 589.576, 639.576 589.576, 649.576 589.576, 659.576 589.576, 669.576 589.576, 679.576 589.576, 689.576 589.576, 699.576 589.576, 709.576 589.576, 719.576 589.576, 729.576 589.576, 739.576 589.576, 749.576 589.576, 759.576 589.576, 769.576 589.576, 779.576 589.576, 789.576 589.576, 796.444 589.576, 796.444 589.907, 796.444 590.888, 796.444 592.481, 796.444 594.625, 796.444 597.237, 796.444 600.218, 796.444 603.452, 796.444 606.815, 796.444 610.178, 796.444 613.412, 796.444 616.392, 796.444 619.005, 796.444 621.149, 796.444 622.742, 796.444 623.723, 796.444 624.054, 796.444 " />
            <path fill="none" stroke-width="1.5" stroke-linecap="round" stroke-opacity="1.0" stroke="rgb(0, 0, 0)" stroke-linejoin="round" d=" M 417.185, 503.380 427.185, 503.380 437.185, 503.380 447.185, 503.380 457.185, 503.380 467.185, 503.380 477.185, 503.380 487.185, 503.380 497.185, 503.380 507.185, 503.380 517.185, 503.380 527.185, 503.380 537.185, 503.380 547.185, 503.380 557.185, 503.380 567.185, 503.380 577.185, 503.380 587.185, 503.380 597.185, 503.380 607.185, 503.380 617.185, 503.380 624.054, 503.380 624.054, 503.380 624.054, 493.380 624.054, 483.380 624.054, 473.380 624.054, 468.902 624.054, 468.902 614.054, 468.902 604.054, 468.902 594.054, 468.902 584.054, 468.902 574.054, 468.902 564.054, 468.902 554.054, 468.902 544.054, 468.902 534.054, 468.902 524.054, 468.902 514.054, 468.902 504.054, 468.902 494.054, 468.902 484.054, 468.902 474.054, 468.902 464.054, 468.902 454.054, 468.902 444.054, 468.902 434.054, 468.902 424.054, 468.902 417.185, 468.902 417.185, 478.902 417.185, 488.902 417.185, 498.902 417.185, 503.380 417.185, 503.380 " />
            <path fill="none" stroke-width="1.5" stroke-linecap="round" stroke-opacity="1.0" stroke="rgb(0, 0, 0)" stroke-linejoin="round" d=" M 417.185, 503.380 427.185, 503.380 437.185, 503.380 447.185, 503.380 457.185, 503.380 467.185, 503.380 477.185, 503.380 487.185, 503.380 497.185, 503.380 507.185, 503.380 517.185, 503.380 527.185, 503.380 537.185, 503.380 547.185, 503.380 557.185, 503.380 567.185, 503.380 577.185, 503.380 587.185, 503.380 597.185, 503.380 607.185, 503.380 617.185, 503.380 624.054, 503.380 " />
            <path fill="none" stroke-width="1.5" stroke-linecap="round" stroke-opacity="1.0" stroke="rgb(0, 0, 0)" stroke-linejoin="round" d=" M 434.424, 399.946 434.424, 389.946 434.424, 379.946 434.424, 369.946 434.424, 359.946 434.424, 349.946 434.424, 339.946 434.424, 329.946 434.424, 319.946 434.424, 309.946 434.424, 299.946 434.424, 289.946 434.424, 279.946 434.424, 269.946 434.424, 259.946 434.424, 249.946 434.424, 239.946 434.424, 229.946 434.424, 227.556 434.424, 227.556 424.424, 227.556 414.424, 227.556 404.424, 227.556 399.946, 227.556 399.946, 237.556 399.946, 247.556 399.946, 257.556 399.946, 267.556 399.946, 277.556 399.946, 287.556 399.946, 297.556 399.946, 307.556 399.946, 317.556 399.946, 327.556 399.946, 337.556 399.946, 347.556 399.946, 357.556 399.946, 367.556 399.946, 377.556 399.946, 387.556 399.946, 397.556 399.946, 407.556 399.946, 417.556 399.946, 427.556 399.946, 434.424 409.946, 434.424 419.946, 434.424 429.946, 434.424 434.424, 434.424 434.424, 434.424 " />
            <path fill="none" stroke-width="1.5" stroke-linecap="round" stroke-opacity="1.0" stroke="rgb(0, 0, 0)" stroke-linejoin="round" d=" M 434.424, 227.556 434.424, 237.556 434.424, 247.556 434.424, 257.556 434.424, 267.556 434.424, 277.556 434.424, 287.556 434.424, 297.556 434.424, 307.556 434.424, 317.556 434.424, 327.556 434.424, 337.556 434.424, 347.556 434.424, 357.556 434.424, 367.556 434.424, 377.556 434.424, 387.556 434.424, 397.556 434.424, 399.946 " />
            <path fill="none" stroke-width="1.5" stroke-linecap="round" stroke-opacity="1.0" stroke="rgb(0, 0, 0)" stroke-linejoin="round" d=" M 434.424, 434.424 444.424, 434.424 454.424, 434.424 464.424, 434.424 474.424, 434.424 484.424, 434.424 494.424, 434.424 504.424, 434.424 514.424, 434.424 524.424, 434.424 534.424, 434.424 544.424, 434.424 554.424, 434.424 564.424, 434.424 574.424, 434.424 584.424, 434.424 594.424, 434.424 604.424, 434.424 614.424, 434.424 624.054, 434.424 624.054, 434.424 624.054, 424.424 624.054, 414.424 624.054, 404.424 624.054, 399.946 " />
            <path fill="none" stroke-width="1.5" stroke-linecap="round" stroke-opacity="1.0" stroke="rgb(0, 0, 0)" stroke-linejoin="round" d=" M 624.054, 399.946 624.054, 399.946 614.054, 399.946 604.054, 399.946 594.054, 399.946 584.054, 399.946 574.054, 399.946 564.054, 399.946 554.054, 399.946 544.054, 399.946 534.054, 399.946 524.054, 399.946 514.054, 399.946 504.054, 399.946 494.054, 399.946 484.054, 399.946 474.054, 399.946 464.054, 399.946 454.054, 399.946 444.054, 399.946 434.424, 399.946 434.424, 399.946 424.424, 399.946 417.185, 399.946 417.185, 409.946 417.185, 419.946 417.185, 429.946 417.185, 434.424 417.185, 434.424 417.185, 434.424 " />
            <path fill="none" stroke-width="1.5" stroke-linecap="round" stroke-opacity="1.0" stroke="rgb(0, 0, 0)" stroke-linejoin="round" d=" M 417.185, 434.424 427.185, 434.424 434.424, 434.424 434.424, 434.424 444.424, 434.424 454.424, 434.424 464.424, 434.424 474.424, 434.424 484.424, 434.424 494.424, 434.424 504.424, 434.424 514.424, 434.424 524.424, 434.424 534.424, 434.424 544.424, 434.424 554.424, 434.424 564.424, 434.424 574.424, 434.424 584.424, 434.424 594.424, 434.424 604.424, 434.424 614.424, 434.424 624.054, 434.424 624.054, 434.424 624.054, 424.424 624.054, 414.424 624.054, 404.424 624.054, 399.946 " />
            <path fill="none" stroke-width="1.5" stroke-linecap="round" stroke-opacity="1.0" stroke="rgb(0, 0, 0)" stroke-linejoin="round" d=" M 417.185, 434.424 417.185, 434.424 427.185, 434.424 434.424, 434.424 444.424, 434.424 454.424, 434.424 464.424, 434.424 474.424, 434.424 484.424, 434.424 494.424, 434.424 504.424, 434.424 514.424, 434.424 524.424, 434.424 534.424, 434.424 544.424, 434.424 554.424, 434.424 564.424, 434.424 574.424, 434.424 584.424, 434.424 594.424, 434.424 604.424, 434.424 614.424, 434.424 624.054, 434.424 " />
            <path fill="none" stroke-width="1.5" stroke-linecap="round" stroke-opacity="1.0" stroke="rgb(0, 0, 0)" stroke-linejoin="round" d=" M 417.185, 546.478 427.185, 546.478 437.185, 546.478 447.185, 546.478 457.185, 546.478 467.185, 546.478 477.185, 546.478 487.185, 546.478 497.185, 546.478 507.185, 546.478 517.185, 546.478 527.185, 546.478 537.185, 546.478 547.185, 546.478 557.185, 546.478 567.185, 546.478 577.185, 546.478 587.185, 546.478 597.185, 546.478 607.185, 546.478 617.185, 546.478 624.054, 546.478 624.054, 546.478 624.054, 536.478 624.054, 529.239 624.054, 529.239 614.054, 529.239 604.054, 529.239 594.054, 529.239 584.054, 529.239 574.054, 529.239 564.054, 529.239 554.054, 529.239 544.054, 529.239 534.054, 529.239 524.054, 529.239 514.054, 529.239 504.054, 529.239 494.054, 529.239 484.054, 529.239 474.054, 529.239 464.054, 529.239 454.054, 529.239 444.054, 529.239 434.054, 529.239 424.054, 529.239 417.185, 529.239 417.185, 539.239 417.185, 546.478 417.185, 546.478 " />
            <path fill="none" stroke-width="1.5" stroke-linecap="round" stroke-opacity="1.0" stroke="rgb(0, 0, 0)" stroke-linejoin="round" d=" M 417.185, 546.478 427.185, 546.478 437.185, 546.478 447.185, 546.478 457.185, 546.478 467.185, 546.478 477.185, 546.478 487.185, 546.478 497.185, 546.478 507.185, 546.478 517.185, 546.478 527.185, 546.478 537.185, 546.478 547.185, 546.478 557.185, 546.478 567.185, 546.478 577.185, 546.478 587.185, 546.478 597.185, 546.478 607.185, 546.478 617.185, 546.478 624.054, 546.478 " />
            <path fill="none" stroke-width="1.5" stroke-linecap="round" stroke-opacity="1.0" stroke="rgb(0, 0, 0)" stroke-linejoin="round" d=" M 434.424, 434.424 434.424, 434.424 " />
            <path fill="none" stroke-width="1.5" stroke-linecap="round" stroke-opacity="1.0" stroke="rgb(0, 0, 0)" stroke-linejoin="round" d=" M 434.424, 434.424 434.424, 434.424 434.424, 434.424 " />
            <path fill="none" stroke-width="1.5" stroke-linecap="round" stroke-opacity="1.0" stroke="rgb(0, 0, 0)" stroke-linejoin="round" d=" M 451.663, 796.444 451.663, 786.444 451.663, 776.444 451.663, 766.444 451.663, 756.444 451.663, 746.444 451.663, 736.444 451.663, 726.444 451.663, 716.444 451.663, 706.444 451.663, 696.444 451.663, 686.444 451.663, 676.444 451.663, 666.444 451.663, 656.444 451.663, 646.444 451.663, 636.444 451.663, 626.444 451.663, 616.444 451.663, 606.444 451.663, 596.444 451.663, 589.576 " />
            <path fill="none" stroke-width="1.5" stroke-linecap="round" stroke-opacity="1.0" stroke="rgb(0, 0, 0)" stroke-linejoin="round" d=" M 624.054, 796.444 624.054, 786.444 624.054, 776.444 624.054, 766.444 624.054, 756.444 624.054, 746.444 624.054, 736.444 624.054, 726.444 624.054, 716.444 624.054, 706.444 624.054, 696.444 624.054, 686.444 624.054, 676.444 624.054, 666.444 624.054, 656.444 624.054, 646.444 624.054, 636.444 624.054, 626.444 624.054, 616.444 624.054, 606.444 624.054, 596.444 624.054, 589.576 " />
            <path fill="none" stroke-width="1.5" stroke-linecap="round" stroke-opacity="1.0" stroke="rgb(0, 0, 0)" stroke-linejoin="round" d=" M 434.424, 434.424 444.424, 434.424 454.424, 434.424 464.424, 434.424 474.424, 434.424 484.424, 434.424 494.424, 434.424 504.424, 434.424 514.424, 434.424 524.424, 434.424 534.424, 434.424 544.424, 434.424 554.424, 434.424 564.424, 434.424 574.424, 434.424 584.424, 434.424 594.424, 434.424 604.424, 434.424 614.424, 434.424 624.054, 434.424 " />
            <path fill="none" stroke-width="1.5" stroke-linecap="round" stroke-opacity="1.0" stroke="rgb(0, 0, 0)" stroke-linejoin="round" d=" M 624.054, 399.946 624.054, 399.946 " />
        </g>
    </g>
    <g id="ViewLayer_TechnicalLines.002" inkscape:groupmode="lineset" inkscape:label="ViewLayer_TechnicalLines.002">
        <g inkscape:groupmode="layer" id="strokes" inkscape:label="strokes">
            <path fill="none" stroke-width="1.5" stroke-linecap="round" stroke-opacity="1.0" stroke="rgb(0, 0, 0)" stroke-linejoin="round" d=" M 451.663, 796.444 451.663, 796.444 451.663, 786.444 451.663, 776.444 451.663, 766.444 451.663, 756.444 451.663, 746.444 451.663, 736.444 451.663, 726.444 451.663, 716.444 451.663, 706.444 451.663, 696.444 451.663, 686.444 451.663, 676.444 451.663, 666.444 451.663, 656.444 451.663, 646.444 451.663, 636.444 451.663, 626.444 451.663, 616.444 451.663, 606.444 451.663, 596.444 451.663, 589.576 451.663, 589.576 " />
            <path fill="none" stroke-width="1.5" stroke-linecap="round" stroke-opacity="1.0" stroke="rgb(0, 0, 0)" stroke-linejoin="round" d=" M 451.663, 589.576 451.332, 589.576 450.351, 589.576 448.758, 589.576 446.614, 589.576 444.002, 589.576 441.021, 589.576 437.787, 589.576 434.424, 589.576 431.061, 589.576 427.827, 589.576 424.847, 589.576 422.234, 589.576 420.091, 589.576 418.497, 589.576 417.516, 589.576 417.185, 589.576 417.185, 599.576 417.185, 609.576 417.185, 619.576 417.185, 629.576 417.185, 639.576 417.185, 649.576 417.185, 659.576 417.185, 669.576 417.185, 679.576 417.185, 689.576 417.185, 699.576 417.185, 709.576 417.185, 719.576 417.185, 729.576 417.185, 739.576 417.185, 749.576 417.185, 759.576 417.185, 769.576 417.185, 779.576 417.185, 789.576 417.185, 796.444 417.516, 796.444 418.497, 796.444 420.091, 796.444 422.234, 796.444 424.847, 796.444 427.827, 796.444 431.061, 796.444 434.424, 796.444 437.787, 796.444 441.021, 796.444 444.002, 796.444 446.614, 796.444 448.758, 796.444 450.351, 796.444 451.332, 796.444 451.663, 796.444 " />
            <path fill="none" stroke-width="1.5" stroke-linecap="round" stroke-opacity="1.0" stroke="rgb(0, 0, 0)" stroke-linejoin="round" d=" M 624.054, 796.444 624.054, 796.444 624.054, 786.444 624.054, 776.444 624.054, 766.444 624.054, 756.444 624.054, 746.444 624.054, 736.444 624.054, 726.444 624.054, 716.444 624.054, 706.444 624.054, 696.444 624.054, 686.444 624.054, 676.444 624.054, 666.444 624.054, 656.444 624.054, 646.444 624.054, 636.444 624.054, 626.444 624.054, 616.444 624.054, 606.444 624.054, 596.444 624.054, 589.576 624.054, 589.576 " />
            <path fill="none" stroke-width="1.5" stroke-linecap="round" stroke-opacity="1.0" stroke="rgb(0, 0, 0)" stroke-linejoin="round" d=" M 624.054, 589.576 623.723, 589.576 622.742, 589.576 621.149, 589.576 619.005, 589.576 616.392, 589.576 613.412, 589.576 610.178, 589.576 606.815, 589.576 603.452, 589.576 600.218, 589.576 597.237, 589.576 594.625, 589.576 592.481, 589.576 590.888, 589.576 589.907, 589.576 589.576, 589.576 589.576, 589.576 589.576, 599.576 589.576, 609.576 589.576, 619.576 589.576, 629.576 589.576, 639.576 589.576, 649.576 589.576, 659.576 589.576, 669.576 589.576, 679.576 589.576, 689.576 589.576, 699.576 589.576, 709.576 589.576, 719.576 589.576, 729.576 589.576, 739.576 589.576, 749.576 589.576, 759.576 589.576, 769.576 589.576, 779.576 589.576, 789.576 589.576, 796.444 589.576, 796.444 589.907, 796.444 590.888, 796.444 592.481, 796.444 594.625, 796.444 597.237, 796.444 600.218, 796.444 603.452, 796.444 606.815, 796.444 610.178, 796.444 613.412, 796.444 616.392, 796.444 619.005, 796.444 621.149, 796.444 622.742, 796.444 623.723, 796.444 624.054, 796.444 " />
            <path fill="none" stroke-width="1.5" stroke-linecap="round" stroke-opacity="1.0" stroke="rgb(0, 0, 0)" stroke-linejoin="round" d=" M 417.185, 503.380 427.185, 503.380 437.185, 503.380 447.185, 503.380 457.185, 503.380 467.185, 503.380 477.185, 503.380 487.185, 503.380 497.185, 503.380 507.185, 503.380 517.185, 503.380 527.185, 503.380 537.185, 503.380 547.185, 503.380 557.185, 503.380 567.185, 503.380 577.185, 503.380 587.185, 503.380 597.185, 503.380 607.185, 503.380 617.185, 503.380 624.054, 503.380 624.054, 503.380 624.054, 493.380 624.054, 483.380 624.054, 473.380 624.054, 468.902 624.054, 468.902 614.054, 468.902 604.054, 468.902 594.054, 468.902 584.054, 468.902 574.054, 468.902 564.054, 468.902 554.054, 468.902 544.054, 468.902 534.054, 468.902 524.054, 468.902 514.054, 468.902 504.054, 468.902 494.054, 468.902 484.054, 468.902 474.054, 468.902 464.054, 468.902 454.054, 468.902 444.054, 468.902 434.054, 468.902 424.054, 468.902 417.185, 468.902 417.185, 478.902 417.185, 488.902 417.185, 498.902 417.185, 503.380 417.185, 503.380 " />
            <path fill="none" stroke-width="1.5" stroke-linecap="round" stroke-opacity="1.0" stroke="rgb(0, 0, 0)" stroke-linejoin="round" d=" M 417.185, 503.380 427.185, 503.380 437.185, 503.380 447.185, 503.380 457.185, 503.380 467.185, 503.380 477.185, 503.380 487.185, 503.380 497.185, 503.380 507.185, 503.380 517.185, 503.380 527.185, 503.380 537.185, 503.380 547.185, 503.380 557.185, 503.380 567.185, 503.380 577.185, 503.380 587.185, 503.380 597.185, 503.380 607.185, 503.380 617.185, 503.380 624.054, 503.380 " />
            <path fill="none" stroke-width="1.5" stroke-linecap="round" stroke-opacity="1.0" stroke="rgb(0, 0, 0)" stroke-linejoin="round" d=" M 434.424, 399.946 434.424, 389.946 434.424, 379.946 434.424, 369.946 434.424, 359.946 434.424, 349.946 434.424, 339.946 434.424, 329.946 434.424, 319.946 434.424, 309.946 434.424, 299.946 434.424, 289.946 434.424, 279.946 434.424, 269.946 434.424, 259.946 434.424, 249.946 434.424, 239.946 434.424, 229.946 434.424, 227.556 434.424, 227.556 424.424, 227.556 414.424, 227.556 404.424, 227.556 399.946, 227.556 399.946, 237.556 399.946, 247.556 399.946, 257.556 399.946, 267.556 399.946, 277.556 399.946, 287.556 399.946, 297.556 399.946, 307.556 399.946, 317.556 399.946, 327.556 399.946, 337.556 399.946, 347.556 399.946, 357.556 399.946, 367.556 399.946, 377.556 399.946, 387.556 399.946, 397.556 399.946, 407.556 399.946, 417.556 399.946, 427.556 399.946, 434.424 409.946, 434.424 419.946, 434.424 429.946, 434.424 434.424, 434.424 434.424, 434.424 " />
            <path fill="none" stroke-width="1.5" stroke-linecap="round" stroke-opacity="1.0" stroke="rgb(0, 0, 0)" stroke-linejoin="round" d=" M 434.424, 227.556 434.424, 237.556 434.424, 247.556 434.424, 257.556 434.424, 267.556 434.424, 277.556 434.424, 287.556 434.424, 297.556 434.424, 307.556 434.424, 317.556 434.424, 327.556 434.424, 337.556 434.424, 347.556 434.424, 357.556 434.424, 367.556 434.424, 377.556 434.424, 387.556 434.424, 397.556 434.424, 399.946 " />
            <path fill="none" stroke-width="1.5" stroke-linecap="round" stroke-opacity="1.0" stroke="rgb(0, 0, 0)" stroke-linejoin="round" d=" M 434.424, 434.424 444.424, 434.424 454.424, 434.424 464.424, 434.424 474.424, 434.424 484.424, 434.424 494.424, 434.424 504.424, 434.424 514.424, 434.424 524.424, 434.424 534.424, 434.424 544.424, 434.424 554.424, 434.424 564.424, 434.424 574.424, 434.424 584.424, 434.424 594.424, 434.424 604.424, 434.424 614.424, 434.424 624.054, 434.424 624.054, 434.424 624.054, 424.424 624.054, 414.424 624.054, 404.424 624.054, 399.946 " />
            <path fill="none" stroke-width="1.5" stroke-linecap="round" stroke-opacity="1.0" stroke="rgb(0, 0, 0)" stroke-linejoin="round" d=" M 624.054, 399.946 624.054, 399.946 614.054, 399.946 604.054, 399.946 594.054, 399.946 584.054, 399.946 574.054, 399.946 564.054, 399.946 554.054, 399.946 544.054, 399.946 534.054, 399.946 524.054, 399.946 514.054, 399.946 504.054, 399.946 494.054, 399.946 484.054, 399.946 474.054, 399.946 464.054, 399.946 454.054, 399.946 444.054, 399.946 434.424, 399.946 434.424, 399.946 424.424, 399.946 417.185, 399.946 417.185, 409.946 417.185, 419.946 417.185, 429.946 417.185, 434.424 417.185, 434.424 417.185, 434.424 " />
            <path fill="none" stroke-width="1.5" stroke-linecap="round" stroke-opacity="1.0" stroke="rgb(0, 0, 0)" stroke-linejoin="round" d=" M 417.185, 434.424 427.185, 434.424 434.424, 434.424 434.424, 434.424 444.424, 434.424 454.424, 434.424 464.424, 434.424 474.424, 434.424 484.424, 434.424 494.424, 434.424 504.424, 434.424 514.424, 434.424 524.424, 434.424 534.424, 434.424 544.424, 434.424 554.424, 434.424 564.424, 434.424 574.424, 434.424 584.424, 434.424 594.424, 434.424 604.424, 434.424 614.424, 434.424 624.054, 434.424 624.054, 434.424 624.054, 424.424 624.054, 414.424 624.054, 404.424 624.054, 399.946 " />
            <path fill="none" stroke-width="1.5" stroke-linecap="round" stroke-opacity="1.0" stroke="rgb(0, 0, 0)" stroke-linejoin="round" d=" M 417.185, 434.424 417.185, 434.424 427.185, 434.424 434.424, 434.424 444.424, 434.424 454.424, 434.424 464.424, 434.424 474.424, 434.424 484.424, 434.424 494.424, 434.424 504.424, 434.424 514.424, 434.424 524.424, 434.424 534.424, 434.424 544.424, 434.424 554.424, 434.424 564.424, 434.424 574.424, 434.424 584.424, 434.424 594.424, 434.424 604.424, 434.424 614.424, 434.424 624.054, 434.424 " />
            <path fill="none" stroke-width="1.5" stroke-linecap="round" stroke-opacity="1.0" stroke="rgb(0, 0, 0)" stroke-linejoin="round" d=" M 417.185, 546.478 427.185, 546.478 437.185, 546.478 447.185, 546.478 457.185, 546.478 467.185, 546.478 477.185, 546.478 487.185, 546.478 497.185, 546.478 507.185, 546.478 517.185, 546.478 527.185, 546.478 537.185, 546.478 547.185, 546.478 557.185, 546.478 567.185, 546.478 577.185, 546.478 587.185, 546.478 597.185, 546.478 607.185, 546.478 617.185, 546.478 624.054, 546.478 624.054, 546.478 624.054, 536.478 624.054, 529.239 624.054, 529.239 614.054, 529.239 604.054, 529.239 594.054, 529.239 584.054, 529.239 574.054, 529.239 564.054, 529.239 554.054, 529.239 544.054, 529.239 534.054, 529.239 524.054, 529.239 514.054, 529.239 504.054, 529.239 494.054, 529.239 484.054, 529.239 474.054, 529.239 464.054, 529.239 454.054, 529.239 444.054, 529.239 434.054, 529.239 424.054, 529.239 417.185, 529.239 417.185, 539.239 417.185, 546.478 417.185, 546.478 " />
            <path fill="none" stroke-width="1.5" stroke-linecap="round" stroke-opacity="1.0" stroke="rgb(0, 0, 0)" stroke-linejoin="round" d=" M 417.185, 546.478 427.185, 546.478 437.185, 546.478 447.185, 546.478 457.185, 546.478 467.185, 546.478 477.185, 546.478 487.185, 546.478 497.185, 546.478 507.185, 546.478 517.185, 546.478 527.185, 546.478 537.185, 546.478 547.185, 546.478 557.185, 546.478 567.185, 546.478 577.185, 546.478 587.185, 546.478 597.185, 546.478 607.185, 546.478 617.185, 546.478 624.054, 546.478 " />
            <path fill="none" stroke-width="1.5" stroke-linecap="round" stroke-opacity="1.0" stroke="rgb(0, 0, 0)" stroke-linejoin="round" d=" M 434.424, 434.424 434.424, 434.424 " />
            <path fill="none" stroke-width="1.5" stroke-linecap="round" stroke-opacity="1.0" stroke="rgb(0, 0, 0)" stroke-linejoin="round" d=" M 434.424, 434.424 434.424, 434.424 434.424, 434.424 " />
            <path fill="none" stroke-width="1.5" stroke-linecap="round" stroke-opacity="1.0" stroke="rgb(0, 0, 0)" stroke-linejoin="round" d=" M 451.663, 796.444 451.663, 786.444 451.663, 776.444 451.663, 766.444 451.663, 756.444 451.663, 746.444 451.663, 736.444 451.663, 726.444 451.663, 716.444 451.663, 706.444 451.663, 696.444 451.663, 686.444 451.663, 676.444 451.663, 666.444 451.663, 656.444 451.663, 646.444 451.663, 636.444 451.663, 626.444 451.663, 616.444 451.663, 606.444 451.663, 596.444 451.663, 589.576 " />
            <path fill="none" stroke-width="1.5" stroke-linecap="round" stroke-opacity="1.0" stroke="rgb(0, 0, 0)" stroke-linejoin="round" d=" M 624.054, 796.444 624.054, 786.444 624.054, 776.444 624.054, 766.444 624.054, 756.444 624.054, 746.444 624.054, 736.444 624.054, 726.444 624.054, 716.444 624.054, 706.444 624.054, 696.444 624.054, 686.444 624.054, 676.444 624.054, 666.444 624.054, 656.444 624.054, 646.444 624.054, 636.444 624.054, 626.444 624.054, 616.444 624.054, 606.444 624.054, 596.444 624.054, 589.576 " />
            <path fill="none" stroke-width="1.5" stroke-linecap="round" stroke-opacity="1.0" stroke="rgb(0, 0, 0)" stroke-linejoin="round" d=" M 434.424, 434.424 444.424, 434.424 454.424, 434.424 464.424, 434.424 474.424, 434.424 484.424, 434.424 494.424, 434.424 504.424, 434.424 514.424, 434.424 524.424, 434.424 534.424, 434.424 544.424, 434.424 554.424, 434.424 564.424, 434.424 574.424, 434.424 584.424, 434.424 594.424, 434.424 604.424, 434.424 614.424, 434.424 624.054, 434.424 " />
            <path fill="none" stroke-width="1.5" stroke-linecap="round" stroke-opacity="1.0" stroke="rgb(0, 0, 0)" stroke-linejoin="round" d=" M 624.054, 399.946 624.054, 399.946 " />
        </g>
    </g>
    <g id="ViewLayer_TechnicalLines.003" inkscape:groupmode="lineset" inkscape:label="ViewLayer_TechnicalLines.003">
        <g inkscape:groupmode="layer" id="strokes" inkscape:label="strokes">
            <path fill="none" stroke-width="1.5" stroke-linecap="round" stroke-opacity="1.0" stroke="rgb(0, 0, 0)" stroke-linejoin="round" d=" M 451.663, 796.444 451.663, 796.444 451.663, 786.444 451.663, 776.444 451.663, 766.444 451.663, 756.444 451.663, 746.444 451.663, 736.444 451.663, 726.444 451.663, 716.444 451.663, 706.444 451.663, 696.444 451.663, 686.444 451.663, 676.444 451.663, 666.444 451.663, 656.444 451.663, 646.444 451.663, 636.444 451.663, 626.444 451.663, 616.444 451.663, 606.444 451.663, 596.444 451.663, 589.576 451.663, 589.576 " />
            <path fill="none" stroke-width="1.5" stroke-linecap="round" stroke-opacity="1.0" stroke="rgb(0, 0, 0)" stroke-linejoin="round" d=" M 451.663, 589.576 451.332, 589.576 450.351, 589.576 448.758, 589.576 446.614, 589.576 444.002, 589.576 441.021, 589.576 437.787, 589.576 434.424, 589.576 431.061, 589.576 427.827, 589.576 424.847, 589.576 422.234, 589.576 420.091, 589.576 418.497, 589.576 417.516, 589.576 417.185, 589.576 417.185, 599.576 417.185, 609.576 417.185, 619.576 417.185, 629.576 417.185, 639.576 417.185, 649.576 417.185, 659.576 417.185, 669.576 417.185, 679.576 417.185, 689.576 417.185, 699.576 417.185, 709.576 417.185, 719.576 417.185, 729.576 417.185, 739.576 417.185, 749.576 417.185, 759.576 417.185, 769.576 417.185, 779.576 417.185, 789.576 417.185, 796.444 417.516, 796.444 418.497, 796.444 420.091, 796.444 422.234, 796.444 424.847, 796.444 427.827, 796.444 431.061, 796.444 434.424, 796.444 437.787, 796.444 441.021, 796.444 444.002, 796.444 446.614, 796.444 448.758, 796.444 450.351, 796.444 451.332, 796.444 451.663, 796.444 " />
            <path fill="none" stroke-width="1.5" stroke-linecap="round" stroke-opacity="1.0" stroke="rgb(0, 0, 0)" stroke-linejoin="round" d=" M 624.054, 796.444 624.054, 796.444 624.054, 786.444 624.054, 776.444 624.054, 766.444 624.054, 756.444 624.054, 746.444 624.054, 736.444 624.054, 726.444 624.054, 716.444 624.054, 706.444 624.054, 696.444 624.054, 686.444 624.054, 676.444 624.054, 666.444 624.054, 656.444 624.054, 646.444 624.054, 636.444 624.054, 626.444 624.054, 616.444 624.054, 606.444 624.054, 596.444 624.054, 589.576 624.054, 589.576 " />
            <path fill="none" stroke-width="1.5" stroke-linecap="round" stroke-opacity="1.0" stroke="rgb(0, 0, 0)" stroke-linejoin="round" d=" M 624.054, 589.576 623.723, 589.576 622.742, 589.576 621.149, 589.576 619.005, 589.576 616.392, 589.576 613.412, 589.576 610.178, 589.576 606.815, 589.576 603.452, 589.576 600.218, 589.576 597.237, 589.576 594.625, 589.576 592.481, 589.576 590.888, 589.576 589.907, 589.576 589.576, 589.576 589.576, 589.576 589.576, 599.576 589.576, 609.576 589.576, 619.576 589.576, 629.576 589.576, 639.576 589.576, 649.576 589.576, 659.576 589.576, 669.576 589.576, 679.576 589.576, 689.576 589.576, 699.576 589.576, 709.576 589.576, 719.576 589.576, 729.576 589.576, 739.576 589.576, 749.576 589.576, 759.576 589.576, 769.576 589.576, 779.576 589.576, 789.576 589.576, 796.444 589.576, 796.444 589.907, 796.444 590.888, 796.444 592.481, 796.444 594.625, 796.444 597.237, 796.444 600.218, 796.444 603.452, 796.444 606.815, 796.444 610.178, 796.444 613.412, 796.444 616.392, 796.444 619.005, 796.444 621.149, 796.444 622.742, 796.444 623.723, 796.444 624.054, 796.444 " />
            <path fill="none" stroke-width="1.5" stroke-linecap="round" stroke-opacity="1.0" stroke="rgb(0, 0, 0)" stroke-linejoin="round" d=" M 417.185, 503.380 427.185, 503.380 437.185, 503.380 447.185, 503.380 457.185, 503.380 467.185, 503.380 477.185, 503.380 487.185, 503.380 497.185, 503.380 507.185, 503.380 517.185, 503.380 527.185, 503.380 537.185, 503.380 547.185, 503.380 557.185, 503.380 567.185, 503.380 577.185, 503.380 587.185, 503.380 597.185, 503.380 607.185, 503.380 617.185, 503.380 624.054, 503.380 624.054, 503.380 624.054, 493.380 624.054, 483.380 624.054, 473.380 624.054, 468.902 624.054, 468.902 614.054, 468.902 604.054, 468.902 594.054, 468.902 584.054, 468.902 574.054, 468.902 564.054, 468.902 554.054, 468.902 544.054, 468.902 534.054, 468.902 524.054, 468.902 514.054, 468.902 504.054, 468.902 494.054, 468.902 484.054, 468.902 474.054, 468.902 464.054, 468.902 454.054, 468.902 444.054, 468.902 434.054, 468.902 424.054, 468.902 417.185, 468.902 417.185, 478.902 417.185, 488.902 417.185, 498.902 417.185, 503.380 417.185, 503.380 " />
            <path fill="none" stroke-width="1.5" stroke-linecap="round" stroke-opacity="1.0" stroke="rgb(0, 0, 0)" stroke-linejoin="round" d=" M 417.185, 503.380 427.185, 503.380 437.185, 503.380 447.185, 503.380 457.185, 503.380 467.185, 503.380 477.185, 503.380 487.185, 503.380 497.185, 503.380 507.185, 503.380 517.185, 503.380 527.185, 503.380 537.185, 503.380 547.185, 503.380 557.185, 503.380 567.185, 503.380 577.185, 503.380 587.185, 503.380 597.185, 503.380 607.185, 503.380 617.185, 503.380 624.054, 503.380 " />
            <path fill="none" stroke-width="1.5" stroke-linecap="round" stroke-opacity="1.0" stroke="rgb(0, 0, 0)" stroke-linejoin="round" d=" M 434.424, 399.946 434.424, 389.946 434.424, 379.946 434.424, 369.946 434.424, 359.946 434.424, 349.946 434.424, 339.946 434.424, 329.946 434.424, 319.946 434.424, 309.946 434.424, 299.946 434.424, 289.946 434.424, 279.946 434.424, 269.946 434.424, 259.946 434.424, 249.946 434.424, 239.946 434.424, 229.946 434.424, 227.556 434.424, 227.556 424.424, 227.556 414.424, 227.556 404.424, 227.556 399.946, 227.556 399.946, 237.556 399.946, 247.556 399.946, 257.556 399.946, 267.556 399.946, 277.556 399.946, 287.556 399.946, 297.556 399.946, 307.556 399.946, 317.556 399.946, 327.556 399.946, 337.556 399.946, 347.556 399.946, 357.556 399.946, 367.556 399.946, 377.556 399.946, 387.556 399.946, 397.556 399.946, 407.556 399.946, 417.556 399.946, 427.556 399.946, 434.424 409.946, 434.424 419.946, 434.424 429.946, 434.424 434.424, 434.424 434.424, 434.424 " />
            <path fill="none" stroke-width="1.5" stroke-linecap="round" stroke-opacity="1.0" stroke="rgb(0, 0, 0)" stroke-linejoin="round" d=" M 434.424, 227.556 434.424, 237.556 434.424, 247.556 434.424, 257.556 434.424, 267.556 434.424, 277.556 434.424, 287.556 434.424, 297.556 434.424, 307.556 434.424, 317.556 434.424, 327.556 434.424, 337.556 434.424, 347.556 434.424, 357.556 434.424, 367.556 434.424, 377.556 434.424, 387.556 434.424, 397.556 434.424, 399.946 " />
            <path fill="none" stroke-width="1.5" stroke-linecap="round" stroke-opacity="1.0" stroke="rgb(0, 0, 0)" stroke-linejoin="round" d=" M 434.424, 434.424 444.424, 434.424 454.424, 434.424 464.424, 434.424 474.424, 434.424 484.424, 434.424 494.424, 434.424 504.424, 434.424 514.424, 434.424 524.424, 434.424 534.424, 434.424 544.424, 434.424 554.424, 434.424 564.424, 434.424 574.424, 434.424 584.424, 434.424 594.424, 434.424 604.424, 434.424 614.424, 434.424 624.054, 434.424 624.054, 434.424 624.054, 424.424 624.054, 414.424 624.054, 404.424 624.054, 399.946 " />
            <path fill="none" stroke-width="1.5" stroke-linecap="round" stroke-opacity="1.0" stroke="rgb(0, 0, 0)" stroke-linejoin="round" d=" M 624.054, 399.946 624.054, 399.946 614.054, 399.946 604.054, 399.946 594.054, 399.946 584.054, 399.946 574.054, 399.946 564.054, 399.946 554.054, 399.946 544.054, 399.946 534.054, 399.946 524.054, 399.946 514.054, 399.946 504.054, 399.946 494.054, 399.946 484.054, 399.946 474.054, 399.946 464.054, 399.946 454.054, 399.946 444.054, 399.946 434.424, 399.946 434.424, 399.946 424.424, 399.946 417.185, 399.946 417.185, 409.946 417.185, 419.946 417.185, 429.946 417.185, 434.424 417.185, 434.424 417.185, 434.424 " />
            <path fill="none" stroke-width="1.5" stroke-linecap="round" stroke-opacity="1.0" stroke="rgb(0, 0, 0)" stroke-linejoin="round" d=" M 417.185, 434.424 427.185, 434.424 434.424, 434.424 434.424, 434.424 444.424, 434.424 454.424, 434.424 464.424, 434.424 474.424, 434.424 484.424, 434.424 494.424, 434.424 504.424, 434.424 514.424, 434.424 524.424, 434.424 534.424, 434.424 544.424, 434.424 554.424, 434.424 564.424, 434.424 574.424, 434.424 584.424, 434.424 594.424, 434.424 604.424, 434.424 614.424, 434.424 624.054, 434.424 624.054, 434.424 624.054, 424.424 624.054, 414.424 624.054, 404.424 624.054, 399.946 " />
            <path fill="none" stroke-width="1.5" stroke-linecap="round" stroke-opacity="1.0" stroke="rgb(0, 0, 0)" stroke-linejoin="round" d=" M 417.185, 434.424 417.185, 434.424 427.185, 434.424 434.424, 434.424 444.424, 434.424 454.424, 434.424 464.424, 434.424 474.424, 434.424 484.424, 434.424 494.424, 434.424 504.424, 434.424 514.424, 434.424 524.424, 434.424 534.424, 434.424 544.424, 434.424 554.424, 434.424 564.424, 434.424 574.424, 434.424 584.424, 434.424 594.424, 434.424 604.424, 434.424 614.424, 434.424 624.054, 434.424 " />
            <path fill="none" stroke-width="1.5" stroke-linecap="round" stroke-opacity="1.0" stroke="rgb(0, 0, 0)" stroke-linejoin="round" d=" M 417.185, 546.478 427.185, 546.478 437.185, 546.478 447.185, 546.478 457.185, 546.478 467.185, 546.478 477.185, 546.478 487.185, 546.478 497.185, 546.478 507.185, 546.478 517.185, 546.478 527.185, 546.478 537.185, 546.478 547.185, 546.478 557.185, 546.478 567.185, 546.478 577.185, 546.478 587.185, 546.478 597.185, 546.478 607.185, 546.478 617.185, 546.478 624.054, 546.478 624.054, 546.478 624.054, 536.478 624.054, 529.239 624.054, 529.239 614.054, 529.239 604.054, 529.239 594.054, 529.239 584.054, 529.239 574.054, 529.239 564.054, 529.239 554.054, 529.239 544.054, 529.239 534.054, 529.239 524.054, 529.239 514.054, 529.239 504.054, 529.239 494.054, 529.239 484.054, 529.239 474.054, 529.239 464.054, 529.239 454.054, 529.239 444.054, 529.239 434.054, 529.239 424.054, 529.239 417.185, 529.239 417.185, 539.239 417.185, 546.478 417.185, 546.478 " />
            <path fill="none" stroke-width="1.5" stroke-linecap="round" stroke-opacity="1.0" stroke="rgb(0, 0, 0)" stroke-linejoin="round" d=" M 417.185, 546.478 427.185, 546.478 437.185, 546.478 447.185, 546.478 457.185, 546.478 467.185, 546.478 477.185, 546.478 487.185, 546.478 497.185, 546.478 507.185, 546.478 517.185, 546.478 527.185, 546.478 537.185, 546.478 547.185, 546.478 557.185, 546.478 567.185, 546.478 577.185, 546.478 587.185, 546.478 597.185, 546.478 607.185, 546.478 617.185, 546.478 624.054, 546.478 " />
            <path fill="none" stroke-width="1.5" stroke-linecap="round" stroke-opacity="1.0" stroke="rgb(0, 0, 0)" stroke-linejoin="round" d=" M 434.424, 434.424 434.424, 434.424 " />
            <path fill="none" stroke-width="1.5" stroke-linecap="round" stroke-opacity="1.0" stroke="rgb(0, 0, 0)" stroke-linejoin="round" d=" M 434.424, 434.424 434.424, 434.424 434.424, 434.424 " />
            <path fill="none" stroke-width="1.5" stroke-linecap="round" stroke-opacity="1.0" stroke="rgb(0, 0, 0)" stroke-linejoin="round" d=" M 451.663, 796.444 451.663, 786.444 451.663, 776.444 451.663, 766.444 451.663, 756.444 451.663, 746.444 451.663, 736.444 451.663, 726.444 451.663, 716.444 451.663, 706.444 451.663, 696.444 451.663, 686.444 451.663, 676.444 451.663, 666.444 451.663, 656.444 451.663, 646.444 451.663, 636.444 451.663, 626.444 451.663, 616.444 451.663, 606.444 451.663, 596.444 451.663, 589.576 " />
            <path fill="none" stroke-width="1.5" stroke-linecap="round" stroke-opacity="1.0" stroke="rgb(0, 0, 0)" stroke-linejoin="round" d=" M 624.054, 796.444 624.054, 786.444 624.054, 776.444 624.054, 766.444 624.054, 756.444 624.054, 746.444 624.054, 736.444 624.054, 726.444 624.054, 716.444 624.054, 706.444 624.054, 696.444 624.054, 686.444 624.054, 676.444 624.054, 666.444 624.054, 656.444 624.054, 646.444 624.054, 636.444 624.054, 626.444 624.054, 616.444 624.054, 606.444 624.054, 596.444 624.054, 589.576 " />
            <path fill="none" stroke-width="1.5" stroke-linecap="round" stroke-opacity="1.0" stroke="rgb(0, 0, 0)" stroke-linejoin="round" d=" M 434.424, 434.424 444.424, 434.424 454.424, 434.424 464.424, 434.424 474.424, 434.424 484.424, 434.424 494.424, 434.424 504.424, 434.424 514.424, 434.424 524.424, 434.424 534.424, 434.424 544.424, 434.424 554.424, 434.424 564.424, 434.424 574.424, 434.424 584.424, 434.424 594.424, 434.424 604.424, 434.424 614.424, 434.424 624.054, 434.424 " />
            <path fill="none" stroke-width="1.5" stroke-linecap="round" stroke-opacity="1.0" stroke="rgb(0, 0, 0)" stroke-linejoin="round" d=" M 624.054, 399.946 624.054, 399.946 " />
        </g>
    </g>
    <g id="ViewLayer_TechnicalLines.004" xmlns:inkscape="http://www.inkscape.org/namespaces/inkscape" inkscape:groupmode="lineset" inkscape:label="ViewLayer_TechnicalLines.004">
        <g xmlns:inkscape="http://www.inkscape.org/namespaces/inkscape" inkscape:groupmode="layer" id="strokes" inkscape:label="strokes">
            <path fill="none" stroke-width="1.5" stroke-linecap="round" stroke-opacity="1.0" stroke="rgb(0, 0, 0)" stroke-linejoin="round" d=" M 451.663, 796.444 451.663, 796.444 451.663, 786.444 451.663, 776.444 451.663, 766.444 451.663, 756.444 451.663, 746.444 451.663, 736.444 451.663, 726.444 451.663, 716.444 451.663, 706.444 451.663, 696.444 451.663, 686.444 451.663, 676.444 451.663, 666.444 451.663, 656.444 451.663, 646.444 451.663, 636.444 451.663, 626.444 451.663, 616.444 451.663, 606.444 451.663, 596.444 451.663, 589.576 451.663, 589.576 " />
            <path fill="none" stroke-width="1.5" stroke-linecap="round" stroke-opacity="1.0" stroke="rgb(0, 0, 0)" stroke-linejoin="round" d=" M 451.663, 589.576 451.332, 589.576 450.351, 589.576 448.758, 589.576 446.614, 589.576 444.002, 589.576 441.021, 589.576 437.787, 589.576 434.424, 589.576 431.061, 589.576 427.827, 589.576 424.847, 589.576 422.234, 589.576 420.091, 589.576 418.497, 589.576 417.516, 589.576 417.185, 589.576 417.185, 599.576 417.185, 609.576 417.185, 619.576 417.185, 629.576 417.185, 639.576 417.185, 649.576 417.185, 659.576 417.185, 669.576 417.185, 679.576 417.185, 689.576 417.185, 699.576 417.185, 709.576 417.185, 719.576 417.185, 729.576 417.185, 739.576 417.185, 749.576 417.185, 759.576 417.185, 769.576 417.185, 779.576 417.185, 789.576 417.185, 796.444 417.516, 796.444 418.497, 796.444 420.091, 796.444 422.234, 796.444 424.847, 796.444 427.827, 796.444 431.061, 796.444 434.424, 796.444 437.787, 796.444 441.021, 796.444 444.002, 796.444 446.614, 796.444 448.758, 796.444 450.351, 796.444 451.332, 796.444 451.663, 796.444 " />
            <path fill="none" stroke-width="1.5" stroke-linecap="round" stroke-opacity="1.0" stroke="rgb(0, 0, 0)" stroke-linejoin="round" d=" M 624.054, 796.444 624.054, 796.444 624.054, 786.444 624.054, 776.444 624.054, 766.444 624.054, 756.444 624.054, 746.444 624.054, 736.444 624.054, 726.444 624.054, 716.444 624.054, 706.444 624.054, 696.444 624.054, 686.444 624.054, 676.444 624.054, 666.444 624.054, 656.444 624.054, 646.444 624.054, 636.444 624.054, 626.444 624.054, 616.444 624.054, 606.444 624.054, 596.444 624.054, 589.576 624.054, 589.576 " />
            <path fill="none" stroke-width="1.5" stroke-linecap="round" stroke-opacity="1.0" stroke="rgb(0, 0, 0)" stroke-linejoin="round" d=" M 624.054, 589.576 623.723, 589.576 622.742, 589.576 621.149, 589.576 619.005, 589.576 616.392, 589.576 613.412, 589.576 610.178, 589.576 606.815, 589.576 603.452, 589.576 600.218, 589.576 597.237, 589.576 594.625, 589.576 592.481, 589.576 590.888, 589.576 589.907, 589.576 589.576, 589.576 589.576, 589.576 589.576, 599.576 589.576, 609.576 589.576, 619.576 589.576, 629.576 589.576, 639.576 589.576, 649.576 589.576, 659.576 589.576, 669.576 589.576, 679.576 589.576, 689.576 589.576, 699.576 589.576, 709.576 589.576, 719.576 589.576, 729.576 589.576, 739.576 589.576, 749.576 589.576, 759.576 589.576, 769.576 589.576, 779.576 589.576, 789.576 589.576, 796.444 589.576, 796.444 589.907, 796.444 590.888, 796.444 592.481, 796.444 594.625, 796.444 597.237, 796.444 600.218, 796.444 603.452, 796.444 606.815, 796.444 610.178, 796.444 613.412, 796.444 616.392, 796.444 619.005, 796.444 621.149, 796.444 622.742, 796.444 623.723, 796.444 624.054, 796.444 " />
            <path fill="none" stroke-width="1.5" stroke-linecap="round" stroke-opacity="1.0" stroke="rgb(0, 0, 0)" stroke-linejoin="round" d=" M 417.185, 503.380 427.185, 503.380 437.185, 503.380 447.185, 503.380 457.185, 503.380 467.185, 503.380 477.185, 503.380 487.185, 503.380 497.185, 503.380 507.185, 503.380 517.185, 503.380 527.185, 503.380 537.185, 503.380 547.185, 503.380 557.185, 503.380 567.185, 503.380 577.185, 503.380 587.185, 503.380 597.185, 503.380 607.185, 503.380 617.185, 503.380 624.054, 503.380 624.054, 503.380 624.054, 493.380 624.054, 483.380 624.054, 473.380 624.054, 468.902 624.054, 468.902 614.054, 468.902 604.054, 468.902 594.054, 468.902 584.054, 468.902 574.054, 468.902 564.054, 468.902 554.054, 468.902 544.054, 468.902 534.054, 468.902 524.054, 468.902 514.054, 468.902 504.054, 468.902 494.054, 468.902 484.054, 468.902 474.054, 468.902 464.054, 468.902 454.054, 468.902 444.054, 468.902 434.054, 468.902 424.054, 468.902 417.185, 468.902 417.185, 478.902 417.185, 488.902 417.185, 498.902 417.185, 503.380 417.185, 503.380 " />
            <path fill="none" stroke-width="1.5" stroke-linecap="round" stroke-opacity="1.0" stroke="rgb(0, 0, 0)" stroke-linejoin="round" d=" M 417.185, 503.380 427.185, 503.380 437.185, 503.380 447.185, 503.380 457.185, 503.380 467.185, 503.380 477.185, 503.380 487.185, 503.380 497.185, 503.380 507.185, 503.380 517.185, 503.380 527.185, 503.380 537.185, 503.380 547.185, 503.380 557.185, 503.380 567.185, 503.380 577.185, 503.380 587.185, 503.380 597.185, 503.380 607.185, 503.380 617.185, 503.380 624.054, 503.380 " />
            <path fill="none" stroke-width="1.5" stroke-linecap="round" stroke-opacity="1.0" stroke="rgb(0, 0, 0)" stroke-linejoin="round" d=" M 434.424, 399.946 434.424, 389.946 434.424, 379.946 434.424, 369.946 434.424, 359.946 434.424, 349.946 434.424, 339.946 434.424, 329.946 434.424, 319.946 434.424, 309.946 434.424, 299.946 434.424, 289.946 434.424, 279.946 434.424, 269.946 434.424, 259.946 434.424, 249.946 434.424, 239.946 434.424, 229.946 434.424, 227.556 434.424, 227.556 424.424, 227.556 414.424, 227.556 404.424, 227.556 399.946, 227.556 399.946, 237.556 399.946, 247.556 399.946, 257.556 399.946, 267.556 399.946, 277.556 399.946, 287.556 399.946, 297.556 399.946, 307.556 399.946, 317.556 399.946, 327.556 399.946, 337.556 399.946, 347.556 399.946, 357.556 399.946, 367.556 399.946, 377.556 399.946, 387.556 399.946, 397.556 399.946, 407.556 399.946, 417.556 399.946, 427.556 399.946, 434.424 409.946, 434.424 419.946, 434.424 429.946, 434.424 434.424, 434.424 434.424, 434.424 " />
            <path fill="none" stroke-width="1.5" stroke-linecap="round" stroke-opacity="1.0" stroke="rgb(0, 0, 0)" stroke-linejoin="round" d=" M 434.424, 227.556 434.424, 237.556 434.424, 247.556 434.424, 257.556 434.424, 267.556 434.424, 277.556 434.424, 287.556 434.424, 297.556 434.424, 307.556 434.424, 317.556 434.424, 327.556 434.424, 337.556 434.424, 347.556 434.424, 357.556 434.424, 367.556 434.424, 377.556 434.424, 387.556 434.424, 397.556 434.424, 399.946 " />
            <path fill="none" stroke-width="1.5" stroke-linecap="round" stroke-opacity="1.0" stroke="rgb(0, 0, 0)" stroke-linejoin="round" d=" M 434.424, 434.424 444.424, 434.424 454.424, 434.424 464.424, 434.424 474.424, 434.424 484.424, 434.424 494.424, 434.424 504.424, 434.424 514.424, 434.424 524.424, 434.424 534.424, 434.424 544.424, 434.424 554.424, 434.424 564.424, 434.424 574.424, 434.424 584.424, 434.424 594.424, 434.424 604.424, 434.424 614.424, 434.424 624.054, 434.424 624.054, 434.424 624.054, 424.424 624.054, 414.424 624.054, 404.424 624.054, 399.946 " />
            <path fill="none" stroke-width="1.5" stroke-linecap="round" stroke-opacity="1.0" stroke="rgb(0, 0, 0)" stroke-linejoin="round" d=" M 624.054, 399.946 624.054, 399.946 614.054, 399.946 604.054, 399.946 594.054, 399.946 584.054, 399.946 574.054, 399.946 564.054, 399.946 554.054, 399.946 544.054, 399.946 534.054, 399.946 524.054, 399.946 514.054, 399.946 504.054, 399.946 494.054, 399.946 484.054, 399.946 474.054, 399.946 464.054, 399.946 454.054, 399.946 444.054, 399.946 434.424, 399.946 434.424, 399.946 424.424, 399.946 417.185, 399.946 417.185, 409.946 417.185, 419.946 417.185, 429.946 417.185, 434.424 417.185, 434.424 417.185, 434.424 " />
            <path fill="none" stroke-width="1.5" stroke-linecap="round" stroke-opacity="1.0" stroke="rgb(0, 0, 0)" stroke-linejoin="round" d=" M 417.185, 434.424 427.185, 434.424 434.424, 434.424 434.424, 434.424 444.424, 434.424 454.424, 434.424 464.424, 434.424 474.424, 434.424 484.424, 434.424 494.424, 434.424 504.424, 434.424 514.424, 434.424 524.424, 434.424 534.424, 434.424 544.424, 434.424 554.424, 434.424 564.424, 434.424 574.424, 434.424 584.424, 434.424 594.424, 434.424 604.424, 434.424 614.424, 434.424 624.054, 434.424 624.054, 434.424 624.054, 424.424 624.054, 414.424 624.054, 404.424 624.054, 399.946 " />
            <path fill="none" stroke-width="1.5" stroke-linecap="round" stroke-opacity="1.0" stroke="rgb(0, 0, 0)" stroke-linejoin="round" d=" M 417.185, 434.424 417.185, 434.424 427.185, 434.424 434.424, 434.424 444.424, 434.424 454.424, 434.424 464.424, 434.424 474.424, 434.424 484.424, 434.424 494.424, 434.424 504.424, 434.424 514.424, 434.424 524.424, 434.424 534.424, 434.424 544.424, 434.424 554.424, 434.424 564.424, 434.424 574.424, 434.424 584.424, 434.424 594.424, 434.424 604.424, 434.424 614.424, 434.424 624.054, 434.424 " />
            <path fill="none" stroke-width="1.5" stroke-linecap="round" stroke-opacity="1.0" stroke="rgb(0, 0, 0)" stroke-linejoin="round" d=" M 417.185, 546.478 427.185, 546.478 437.185, 546.478 447.185, 546.478 457.185, 546.478 467.185, 546.478 477.185, 546.478 487.185, 546.478 497.185, 546.478 507.185, 546.478 517.185, 546.478 527.185, 546.478 537.185, 546.478 547.185, 546.478 557.185, 546.478 567.185, 546.478 577.185, 546.478 587.185, 546.478 597.185, 546.478 607.185, 546.478 617.185, 546.478 624.054, 546.478 624.054, 546.478 624.054, 536.478 624.054, 529.239 624.054, 529.239 614.054, 529.239 604.054, 529.239 594.054, 529.239 584.054, 529.239 574.054, 529.239 564.054, 529.239 554.054, 529.239 544.054, 529.239 534.054, 529.239 524.054, 529.239 514.054, 529.239 504.054, 529.239 494.054, 529.239 484.054, 529.239 474.054, 529.239 464.054, 529.239 454.054, 529.239 444.054, 529.239 434.054, 529.239 424.054, 529.239 417.185, 529.239 417.185, 539.239 417.185, 546.478 417.185, 546.478 " />
            <path fill="none" stroke-width="1.5" stroke-linecap="round" stroke-opacity="1.0" stroke="rgb(0, 0, 0)" stroke-linejoin="round" d=" M 417.185, 546.478 427.185, 546.478 437.185, 546.478 447.185, 546.478 457.185, 546.478 467.185, 546.478 477.185, 546.478 487.185, 546.478 497.185, 546.478 507.185, 546.478 517.185, 546.478 527.185, 546.478 537.185, 546.478 547.185, 546.478 557.185, 546.478 567.185, 546.478 577.185, 546.478 587.185, 546.478 597.185, 546.478 607.185, 546.478 617.185, 546.478 624.054, 546.478 " />
            <path fill="none" stroke-width="1.5" stroke-linecap="round" stroke-opacity="1.0" stroke="rgb(0, 0, 0)" stroke-linejoin="round" d=" M 434.424, 434.424 434.424, 434.424 " />
            <path fill="none" stroke-width="1.5" stroke-linecap="round" stroke-opacity="1.0" stroke="rgb(0, 0, 0)" stroke-linejoin="round" d=" M 434.424, 434.424 434.424, 434.424 434.424, 434.424 " />
            <path fill="none" stroke-width="1.5" stroke-linecap="round" stroke-opacity="1.0" stroke="rgb(0, 0, 0)" stroke-linejoin="round" d=" M 451.663, 796.444 451.663, 786.444 451.663, 776.444 451.663, 766.444 451.663, 756.444 451.663, 746.444 451.663, 736.444 451.663, 726.444 451.663, 716.444 451.663, 706.444 451.663, 696.444 451.663, 686.444 451.663, 676.444 451.663, 666.444 451.663, 656.444 451.663, 646.444 451.663, 636.444 451.663, 626.444 451.663, 616.444 451.663, 606.444 451.663, 596.444 451.663, 589.576 " />
            <path fill="none" stroke-width="1.5" stroke-linecap="round" stroke-opacity="1.0" stroke="rgb(0, 0, 0)" stroke-linejoin="round" d=" M 624.054, 796.444 624.054, 786.444 624.054, 776.444 624.054, 766.444 624.054, 756.444 624.054, 746.444 624.054, 736.444 624.054, 726.444 624.054, 716.444 624.054, 706.444 624.054, 696.444 624.054, 686.444 624.054, 676.444 624.054, 666.444 624.054, 656.444 624.054, 646.444 624.054, 636.444 624.054, 626.444 624.054, 616.444 624.054, 606.444 624.054, 596.444 624.054, 589.576 " />
            <path fill="none" stroke-width="1.5" stroke-linecap="round" stroke-opacity="1.0" stroke="rgb(0, 0, 0)" stroke-linejoin="round" d=" M 434.424, 434.424 444.424, 434.424 454.424, 434.424 464.424, 434.424 474.424, 434.424 484.424, 434.424 494.424, 434.424 504.424, 434.424 514.424, 434.424 524.424, 434.424 534.424, 434.424 544.424, 434.424 554.424, 434.424 564.424, 434.424 574.424, 434.424 584.424, 434.424 594.424, 434.424 604.424, 434.424 614.424, 434.424 624.054, 434.424 " />
            <path fill="none" stroke-width="1.5" stroke-linecap="round" stroke-opacity="1.0" stroke="rgb(0, 0, 0)" stroke-linejoin="round" d=" M 624.054, 399.946 624.054, 399.946 " />
        </g>
    </g>
</svg>
