<?xml version='1.0' encoding='ascii'?>
<svg xmlns="http://www.w3.org/2000/svg" xmlns:inkscape="http://www.inkscape.org/namespaces/inkscape" version="1.1" width="1024" height="1024">
    <g id="ViewLayer_LineSet" inkscape:groupmode="lineset" inkscape:label="ViewLayer_LineSet">
        <g inkscape:groupmode="layer" id="strokes" inkscape:label="strokes">
            <path fill="none" stroke-width="3.0" stroke-linecap="butt" stroke-opacity="1.0" stroke="rgb(0, 0, 0)" stroke-linejoin="round" d=" M 436.148, 796.444 436.148, 786.444 436.148, 776.444 436.148, 766.444 436.148, 756.444 436.148, 746.444 436.148, 736.444 436.148, 726.444 436.148, 716.444 436.148, 706.444 436.148, 696.444 436.148, 686.444 436.148, 676.444 436.148, 670.025 436.148, 670.025 " />
            <path fill="none" stroke-width="3.0" stroke-linecap="butt" stroke-opacity="1.0" stroke="rgb(0, 0, 0)" stroke-linejoin="round" d=" M 410.864, 568.889 410.864, 578.889 410.864, 588.889 410.864, 598.889 410.864, 608.889 410.864, 618.889 410.864, 628.889 410.864, 638.889 410.864, 648.889 410.864, 658.889 410.864, 668.889 410.864, 678.889 410.864, 688.889 410.864, 698.889 410.864, 708.889 410.864, 718.889 410.864, 728.889 410.864, 738.889 410.864, 748.889 410.864, 758.889 410.864, 768.889 410.864, 778.889 410.864, 788.889 410.864, 796.444 411.107, 796.444 411.827, 796.444 412.995, 796.444 414.567, 796.444 416.483, 796.444 418.668, 796.444 421.040, 796.444 423.506, 796.444 425.973, 796.444 428.344, 796.444 430.530, 796.444 432.445, 796.444 434.018, 796.444 435.186, 796.444 435.905, 796.444 436.148, 796.444 " />
            <path fill="none" stroke-width="3.0" stroke-linecap="butt" stroke-opacity="1.0" stroke="rgb(0, 0, 0)" stroke-linejoin="round" d=" M 587.852, 670.025 587.852, 670.025 587.852, 680.025 587.852, 690.025 587.852, 700.025 587.852, 710.025 587.852, 720.025 587.852, 730.025 587.852, 740.025 587.852, 750.025 587.852, 760.025 587.852, 770.025 587.852, 780.025 587.852, 790.025 587.852, 796.444 588.095, 796.444 588.814, 796.444 589.982, 796.444 591.555, 796.444 593.470, 796.444 595.656, 796.444 598.027, 796.444 600.494, 796.444 602.960, 796.444 605.332, 796.444 607.517, 796.444 609.433, 796.444 611.005, 796.444 612.173, 796.444 612.893, 796.444 613.136, 796.444 613.136, 786.444 613.136, 776.444 613.136, 766.444 613.136, 756.444 613.136, 746.444 613.136, 736.444 613.136, 726.444 613.136, 716.444 613.136, 706.444 613.136, 696.444 613.136, 686.444 613.136, 676.444 613.136, 670.025 613.136, 670.025 " />
            <path fill="none" stroke-width="3.0" stroke-linecap="butt" stroke-opacity="1.0" stroke="rgb(0, 0, 0)" stroke-linejoin="round" d=" M 410.864, 467.753 410.864, 467.753 410.864, 477.753 410.864, 487.753 410.864, 497.753 410.864, 507.753 410.864, 517.753 410.864, 527.753 410.864, 530.963 " />
            <path fill="none" stroke-width="3.0" stroke-linecap="butt" stroke-opacity="1.0" stroke="rgb(0, 0, 0)" stroke-linejoin="round" d=" M 613.136, 670.025 613.136, 660.025 613.136, 650.025 613.136, 640.025 613.136, 630.025 613.136, 620.025 613.136, 610.025 613.136, 600.025 613.136, 590.025 613.136, 580.025 613.136, 570.025 613.136, 560.025 613.136, 550.025 613.136, 540.025 613.136, 530.025 613.136, 520.025 613.136, 510.025 613.136, 500.025 613.136, 490.025 613.136, 480.025 613.136, 470.025 613.136, 467.753 " />
            <path fill="none" stroke-width="3.0" stroke-linecap="butt" stroke-opacity="1.0" stroke="rgb(0, 0, 0)" stroke-linejoin="round" d=" M 410.864, 568.889 410.864, 578.889 410.864, 588.889 410.864, 598.889 410.864, 608.889 410.864, 618.889 410.864, 628.889 410.864, 638.889 410.864, 648.889 410.864, 658.889 410.864, 668.889 410.864, 670.025 420.864, 670.025 430.864, 670.025 436.148, 670.025 " />
            <path fill="none" stroke-width="3.0" stroke-linecap="butt" stroke-opacity="1.0" stroke="rgb(0, 0, 0)" stroke-linejoin="round" d=" M 410.864, 530.963 410.864, 540.963 410.864, 550.963 410.864, 560.963 410.864, 568.889 " />
            <path fill="none" stroke-width="3.0" stroke-linecap="butt" stroke-opacity="1.0" stroke="rgb(0, 0, 0)" stroke-linejoin="round" d=" M 410.864, 227.556 410.864, 237.556 410.864, 247.556 410.864, 257.556 410.864, 267.556 410.864, 277.556 410.864, 287.556 410.864, 297.556 410.864, 307.556 410.864, 317.556 410.864, 327.556 410.864, 337.556 410.864, 347.556 410.864, 357.556 410.864, 367.556 410.864, 377.556 410.864, 387.556 410.864, 397.556 410.864, 407.556 410.864, 417.556 410.864, 427.556 410.864, 437.556 410.864, 447.556 410.864, 457.556 410.864, 467.753 " />
            <path fill="none" stroke-width="3.0" stroke-linecap="butt" stroke-opacity="1.0" stroke="rgb(0, 0, 0)" stroke-linejoin="round" d=" M 436.148, 670.025 446.148, 670.025 456.148, 670.025 466.148, 670.025 476.148, 670.025 486.148, 670.025 496.148, 670.025 506.148, 670.025 516.148, 670.025 526.148, 670.025 536.148, 670.025 546.148, 670.025 556.148, 670.025 566.148, 670.025 576.148, 670.025 586.148, 670.025 587.852, 670.025 " />
            <path fill="none" stroke-width="3.0" stroke-linecap="butt" stroke-opacity="1.0" stroke="rgb(0, 0, 0)" stroke-linejoin="round" d=" M 587.852, 670.025 597.852, 670.025 607.852, 670.025 613.136, 670.025 " />
            <path fill="none" stroke-width="3.0" stroke-linecap="butt" stroke-opacity="1.0" stroke="rgb(0, 0, 0)" stroke-linejoin="round" d=" M 436.148, 670.025 446.148, 670.025 456.148, 670.025 466.148, 670.025 476.148, 670.025 486.148, 670.025 496.148, 670.025 506.148, 670.025 516.148, 670.025 526.148, 670.025 536.148, 670.025 546.148, 670.025 556.148, 670.025 566.148, 670.025 576.148, 670.025 586.148, 670.025 587.852, 670.025 " />
            <path fill="none" stroke-width="3.0" stroke-linecap="butt" stroke-opacity="1.0" stroke="rgb(0, 0, 0)" stroke-linejoin="round" d=" M 613.136, 467.753 603.136, 467.753 593.136, 467.753 583.136, 467.753 573.136, 467.753 563.136, 467.753 553.136, 467.753 543.136, 467.753 533.136, 467.753 523.136, 467.753 513.136, 467.753 503.136, 467.753 493.136, 467.753 483.136, 467.753 473.136, 467.753 463.136, 467.753 453.136, 467.753 443.136, 467.753 433.136, 467.753 423.136, 467.753 413.136, 467.753 410.864, 467.753 " />
            <path fill="none" stroke-width="3.0" stroke-linecap="butt" stroke-opacity="1.0" stroke="rgb(0, 0, 0)" stroke-linejoin="round" d=" M 613.136, 467.753 613.136, 457.753 613.136, 447.753 613.136, 437.753 613.136, 427.753 613.136, 417.753 613.136, 407.753 613.136, 397.753 613.136, 387.753 613.136, 377.753 613.136, 367.753 613.136, 357.753 613.136, 347.753 613.136, 337.753 613.136, 327.753 613.136, 317.753 613.136, 307.753 613.136, 297.753 613.136, 287.753 613.136, 277.753 613.136, 267.753 613.136, 257.753 613.136, 247.753 613.136, 237.753 613.136, 227.556 " />
            <path fill="none" stroke-width="3.0" stroke-linecap="butt" stroke-opacity="1.0" stroke="rgb(0, 0, 0)" stroke-linejoin="round" d=" M 613.136, 227.556 603.136, 227.556 593.136, 227.556 583.136, 227.556 573.136, 227.556 563.136, 227.556 553.136, 227.556 543.136, 227.556 533.136, 227.556 523.136, 227.556 513.136, 227.556 503.136, 227.556 493.136, 227.556 483.136, 227.556 473.136, 227.556 463.136, 227.556 453.136, 227.556 443.136, 227.556 433.136, 227.556 423.136, 227.556 413.136, 227.556 410.864, 227.556 " />
        </g>
    </g>
    <g id="ViewLayer_TechnicalLines" inkscape:groupmode="lineset" inkscape:label="ViewLayer_TechnicalLines">
        <g inkscape:groupmode="layer" id="strokes" inkscape:label="strokes">
            <path fill="none" stroke-width="3.0" stroke-linecap="butt" stroke-opacity="1.0" stroke="rgb(0, 0, 0)" stroke-linejoin="round" d=" M 436.148, 796.444 436.148, 786.444 436.148, 776.444 436.148, 766.444 436.148, 756.444 436.148, 746.444 436.148, 736.444 436.148, 726.444 436.148, 716.444 436.148, 706.444 436.148, 696.444 436.148, 686.444 436.148, 676.444 436.148, 670.025 436.148, 670.025 " />
            <path fill="none" stroke-width="3.0" stroke-linecap="butt" stroke-opacity="1.0" stroke="rgb(0, 0, 0)" stroke-linejoin="round" d=" M 410.864, 568.889 410.864, 578.889 410.864, 588.889 410.864, 598.889 410.864, 608.889 410.864, 618.889 410.864, 628.889 410.864, 638.889 410.864, 648.889 410.864, 658.889 410.864, 668.889 410.864, 678.889 410.864, 688.889 410.864, 698.889 410.864, 708.889 410.864, 718.889 410.864, 728.889 410.864, 738.889 410.864, 748.889 410.864, 758.889 410.864, 768.889 410.864, 778.889 410.864, 788.889 410.864, 796.444 411.107, 796.444 411.827, 796.444 412.995, 796.444 414.567, 796.444 416.483, 796.444 418.668, 796.444 421.040, 796.444 423.506, 796.444 425.973, 796.444 428.344, 796.444 430.530, 796.444 432.445, 796.444 434.018, 796.444 435.186, 796.444 435.905, 796.444 436.148, 796.444 " />
            <path fill="none" stroke-width="3.0" stroke-linecap="butt" stroke-opacity="1.0" stroke="rgb(0, 0, 0)" stroke-linejoin="round" d=" M 587.852, 670.025 587.852, 670.025 587.852, 680.025 587.852, 690.025 587.852, 700.025 587.852, 710.025 587.852, 720.025 587.852, 730.025 587.852, 740.025 587.852, 750.025 587.852, 760.025 587.852, 770.025 587.852, 780.025 587.852, 790.025 587.852, 796.444 588.095, 796.444 588.814, 796.444 589.982, 796.444 591.555, 796.444 593.470, 796.444 595.656, 796.444 598.027, 796.444 600.494, 796.444 602.960, 796.444 605.332, 796.444 607.517, 796.444 609.433, 796.444 611.005, 796.444 612.173, 796.444 612.893, 796.444 613.136, 796.444 613.136, 786.444 613.136, 776.444 613.136, 766.444 613.136, 756.444 613.136, 746.444 613.136, 736.444 613.136, 726.444 613.136, 716.444 613.136, 706.444 613.136, 696.444 613.136, 686.444 613.136, 676.444 613.136, 670.025 613.136, 670.025 " />
            <path fill="none" stroke-width="3.0" stroke-linecap="butt" stroke-opacity="1.0" stroke="rgb(0, 0, 0)" stroke-linejoin="round" d=" M 410.864, 467.753 410.864, 467.753 410.864, 477.753 410.864, 487.753 410.864, 497.753 410.864, 507.753 410.864, 517.753 410.864, 527.753 410.864, 530.963 " />
            <path fill="none" stroke-width="3.0" stroke-linecap="butt" stroke-opacity="1.0" stroke="rgb(0, 0, 0)" stroke-linejoin="round" d=" M 613.136, 670.025 613.136, 660.025 613.136, 650.025 613.136, 640.025 613.136, 630.025 613.136, 620.025 613.136, 610.025 613.136, 600.025 613.136, 590.025 613.136, 580.025 613.136, 570.025 613.136, 560.025 613.136, 550.025 613.136, 540.025 613.136, 530.025 613.136, 520.025 613.136, 510.025 613.136, 500.025 613.136, 490.025 613.136, 480.025 613.136, 470.025 613.136, 467.753 " />
            <path fill="none" stroke-width="3.0" stroke-linecap="butt" stroke-opacity="1.0" stroke="rgb(0, 0, 0)" stroke-linejoin="round" d=" M 410.864, 568.889 410.864, 578.889 410.864, 588.889 410.864, 598.889 410.864, 608.889 410.864, 618.889 410.864, 628.889 410.864, 638.889 410.864, 648.889 410.864, 658.889 410.864, 668.889 410.864, 670.025 420.864, 670.025 430.864, 670.025 436.148, 670.025 " />
            <path fill="none" stroke-width="3.0" stroke-linecap="butt" stroke-opacity="1.0" stroke="rgb(0, 0, 0)" stroke-linejoin="round" d=" M 410.864, 530.963 410.864, 540.963 410.864, 550.963 410.864, 560.963 410.864, 568.889 " />
            <path fill="none" stroke-width="3.0" stroke-linecap="butt" stroke-opacity="1.0" stroke="rgb(0, 0, 0)" stroke-linejoin="round" d=" M 410.864, 227.556 410.864, 237.556 410.864, 247.556 410.864, 257.556 410.864, 267.556 410.864, 277.556 410.864, 287.556 410.864, 297.556 410.864, 307.556 410.864, 317.556 410.864, 327.556 410.864, 337.556 410.864, 347.556 410.864, 357.556 410.864, 367.556 410.864, 377.556 410.864, 387.556 410.864, 397.556 410.864, 407.556 410.864, 417.556 410.864, 427.556 410.864, 437.556 410.864, 447.556 410.864, 457.556 410.864, 467.753 " />
            <path fill="none" stroke-width="3.0" stroke-linecap="butt" stroke-opacity="1.0" stroke="rgb(0, 0, 0)" stroke-linejoin="round" d=" M 436.148, 670.025 446.148, 670.025 456.148, 670.025 466.148, 670.025 476.148, 670.025 486.148, 670.025 496.148, 670.025 506.148, 670.025 516.148, 670.025 526.148, 670.025 536.148, 670.025 546.148, 670.025 556.148, 670.025 566.148, 670.025 576.148, 670.025 586.148, 670.025 587.852, 670.025 " />
            <path fill="none" stroke-width="3.0" stroke-linecap="butt" stroke-opacity="1.0" stroke="rgb(0, 0, 0)" stroke-linejoin="round" d=" M 587.852, 670.025 597.852, 670.025 607.852, 670.025 613.136, 670.025 " />
            <path fill="none" stroke-width="3.0" stroke-linecap="butt" stroke-opacity="1.0" stroke="rgb(0, 0, 0)" stroke-linejoin="round" d=" M 436.148, 670.025 446.148, 670.025 456.148, 670.025 466.148, 670.025 476.148, 670.025 486.148, 670.025 496.148, 670.025 506.148, 670.025 516.148, 670.025 526.148, 670.025 536.148, 670.025 546.148, 670.025 556.148, 670.025 566.148, 670.025 576.148, 670.025 586.148, 670.025 587.852, 670.025 " />
            <path fill="none" stroke-width="3.0" stroke-linecap="butt" stroke-opacity="1.0" stroke="rgb(0, 0, 0)" stroke-linejoin="round" d=" M 613.136, 467.753 603.136, 467.753 593.136, 467.753 583.136, 467.753 573.136, 467.753 563.136, 467.753 553.136, 467.753 543.136, 467.753 533.136, 467.753 523.136, 467.753 513.136, 467.753 503.136, 467.753 493.136, 467.753 483.136, 467.753 473.136, 467.753 463.136, 467.753 453.136, 467.753 443.136, 467.753 433.136, 467.753 423.136, 467.753 413.136, 467.753 410.864, 467.753 " />
            <path fill="none" stroke-width="3.0" stroke-linecap="butt" stroke-opacity="1.0" stroke="rgb(0, 0, 0)" stroke-linejoin="round" d=" M 613.136, 467.753 613.136, 457.753 613.136, 447.753 613.136, 437.753 613.136, 427.753 613.136, 417.753 613.136, 407.753 613.136, 397.753 613.136, 387.753 613.136, 377.753 613.136, 367.753 613.136, 357.753 613.136, 347.753 613.136, 337.753 613.136, 327.753 613.136, 317.753 613.136, 307.753 613.136, 297.753 613.136, 287.753 613.136, 277.753 613.136, 267.753 613.136, 257.753 613.136, 247.753 613.136, 237.753 613.136, 227.556 " />
            <path fill="none" stroke-width="3.0" stroke-linecap="butt" stroke-opacity="1.0" stroke="rgb(0, 0, 0)" stroke-linejoin="round" d=" M 613.136, 227.556 603.136, 227.556 593.136, 227.556 583.136, 227.556 573.136, 227.556 563.136, 227.556 553.136, 227.556 543.136, 227.556 533.136, 227.556 523.136, 227.556 513.136, 227.556 503.136, 227.556 493.136, 227.556 483.136, 227.556 473.136, 227.556 463.136, 227.556 453.136, 227.556 443.136, 227.556 433.136, 227.556 423.136, 227.556 413.136, 227.556 410.864, 227.556 " />
        </g>
    </g>
    <g id="ViewLayer_TechnicalLines.001" inkscape:groupmode="lineset" inkscape:label="ViewLayer_TechnicalLines.001">
        <g inkscape:groupmode="layer" id="strokes" inkscape:label="strokes">
            <path fill="none" stroke-width="1.5" stroke-linecap="round" stroke-opacity="1.0" stroke="rgb(0, 0, 0)" stroke-linejoin="round" d=" M 436.148, 796.444 436.148, 786.444 436.148, 776.444 436.148, 766.444 436.148, 756.444 436.148, 746.444 436.148, 736.444 436.148, 726.444 436.148, 716.444 436.148, 706.444 436.148, 696.444 436.148, 686.444 436.148, 676.444 436.148, 670.025 436.148, 670.025 " />
            <path fill="none" stroke-width="1.5" stroke-linecap="round" stroke-opacity="1.0" stroke="rgb(0, 0, 0)" stroke-linejoin="round" d=" M 410.864, 568.889 410.864, 578.889 410.864, 588.889 410.864, 598.889 410.864, 608.889 410.864, 618.889 410.864, 628.889 410.864, 638.889 410.864, 648.889 410.864, 658.889 410.864, 668.889 410.864, 678.889 410.864, 688.889 410.864, 698.889 410.864, 708.889 410.864, 718.889 410.864, 728.889 410.864, 738.889 410.864, 748.889 410.864, 758.889 410.864, 768.889 410.864, 778.889 410.864, 788.889 410.864, 796.444 411.107, 796.444 411.827, 796.444 412.995, 796.444 414.567, 796.444 416.483, 796.444 418.668, 796.444 421.040, 796.444 423.506, 796.444 425.973, 796.444 428.344, 796.444 430.530, 796.444 432.445, 796.444 434.018, 796.444 435.186, 796.444 435.905, 796.444 436.148, 796.444 " />
            <path fill="none" stroke-width="1.5" stroke-linecap="round" stroke-opacity="1.0" stroke="rgb(0, 0, 0)" stroke-linejoin="round" d=" M 587.852, 670.025 587.852, 670.025 587.852, 680.025 587.852, 690.025 587.852, 700.025 587.852, 710.025 587.852, 720.025 587.852, 730.025 587.852, 740.025 587.852, 750.025 587.852, 760.025 587.852, 770.025 587.852, 780.025 587.852, 790.025 587.852, 796.444 588.095, 796.444 588.814, 796.444 589.982, 796.444 591.555, 796.444 593.470, 796.444 595.656, 796.444 598.027, 796.444 600.494, 796.444 602.960, 796.444 605.332, 796.444 607.517, 796.444 609.433, 796.444 611.005, 796.444 612.173, 796.444 612.893, 796.444 613.136, 796.444 613.136, 786.444 613.136, 776.444 613.136, 766.444 613.136, 756.444 613.136, 746.444 613.136, 736.444 613.136, 726.444 613.136, 716.444 613.136, 706.444 613.136, 696.444 613.136, 686.444 613.136, 676.444 613.136, 670.025 613.136, 670.025 " />
            <path fill="none" stroke-width="1.5" stroke-linecap="round" stroke-opacity="1.0" stroke="rgb(0, 0, 0)" stroke-linejoin="round" d=" M 410.864, 467.753 410.864, 467.753 410.864, 477.753 410.864, 487.753 410.864, 497.753 410.864, 507.753 410.864, 517.753 410.864, 527.753 410.864, 530.963 " />
            <path fill="none" stroke-width="1.5" stroke-linecap="round" stroke-opacity="1.0" stroke="rgb(0, 0, 0)" stroke-linejoin="round" d=" M 613.136, 670.025 613.136, 660.025 613.136, 650.025 613.136, 640.025 613.136, 630.025 613.136, 620.025 613.136, 610.025 613.136, 600.025 613.136, 590.025 613.136, 580.025 613.136, 570.025 613.136, 560.025 613.136, 550.025 613.136, 540.025 613.136, 530.025 613.136, 520.025 613.136, 510.025 613.136, 500.025 613.136, 490.025 613.136, 480.025 613.136, 470.025 613.136, 467.753 " />
            <path fill="none" stroke-width="1.5" stroke-linecap="round" stroke-opacity="1.0" stroke="rgb(0, 0, 0)" stroke-linejoin="round" d=" M 410.864, 568.889 410.864, 578.889 410.864, 588.889 410.864, 598.889 410.864, 608.889 410.864, 618.889 410.864, 628.889 410.864, 638.889 410.864, 648.889 410.864, 658.889 410.864, 668.889 410.864, 670.025 420.864, 670.025 430.864, 670.025 436.148, 670.025 " />
            <path fill="none" stroke-width="1.5" stroke-linecap="round" stroke-opacity="1.0" stroke="rgb(0, 0, 0)" stroke-linejoin="round" d=" M 410.864, 530.963 410.864, 540.963 410.864, 550.963 410.864, 560.963 410.864, 568.889 " />
            <path fill="none" stroke-width="1.5" stroke-linecap="round" stroke-opacity="1.0" stroke="rgb(0, 0, 0)" stroke-linejoin="round" d=" M 410.864, 227.556 410.864, 237.556 410.864, 247.556 410.864, 257.556 410.864, 267.556 410.864, 277.556 410.864, 287.556 410.864, 297.556 410.864, 307.556 410.864, 317.556 410.864, 327.556 410.864, 337.556 410.864, 347.556 410.864, 357.556 410.864, 367.556 410.864, 377.556 410.864, 387.556 410.864, 397.556 410.864, 407.556 410.864, 417.556 410.864, 427.556 410.864, 437.556 410.864, 447.556 410.864, 457.556 410.864, 467.753 " />
            <path fill="none" stroke-width="1.5" stroke-linecap="round" stroke-opacity="1.0" stroke="rgb(0, 0, 0)" stroke-linejoin="round" d=" M 436.148, 670.025 446.148, 670.025 456.148, 670.025 466.148, 670.025 476.148, 670.025 486.148, 670.025 496.148, 670.025 506.148, 670.025 516.148, 670.025 526.148, 670.025 536.148, 670.025 546.148, 670.025 556.148, 670.025 566.148, 670.025 576.148, 670.025 586.148, 670.025 587.852, 670.025 " />
            <path fill="none" stroke-width="1.5" stroke-linecap="round" stroke-opacity="1.0" stroke="rgb(0, 0, 0)" stroke-linejoin="round" d=" M 587.852, 670.025 597.852, 670.025 607.852, 670.025 613.136, 670.025 " />
            <path fill="none" stroke-width="1.5" stroke-linecap="round" stroke-opacity="1.0" stroke="rgb(0, 0, 0)" stroke-linejoin="round" d=" M 436.148, 670.025 446.148, 670.025 456.148, 670.025 466.148, 670.025 476.148, 670.025 486.148, 670.025 496.148, 670.025 506.148, 670.025 516.148, 670.025 526.148, 670.025 536.148, 670.025 546.148, 670.025 556.148, 670.025 566.148, 670.025 576.148, 670.025 586.148, 670.025 587.852, 670.025 " />
            <path fill="none" stroke-width="1.5" stroke-linecap="round" stroke-opacity="1.0" stroke="rgb(0, 0, 0)" stroke-linejoin="round" d=" M 613.136, 467.753 603.136, 467.753 593.136, 467.753 583.136, 467.753 573.136, 467.753 563.136, 467.753 553.136, 467.753 543.136, 467.753 533.136, 467.753 523.136, 467.753 513.136, 467.753 503.136, 467.753 493.136, 467.753 483.136, 467.753 473.136, 467.753 463.136, 467.753 453.136, 467.753 443.136, 467.753 433.136, 467.753 423.136, 467.753 413.136, 467.753 410.864, 467.753 " />
            <path fill="none" stroke-width="1.5" stroke-linecap="round" stroke-opacity="1.0" stroke="rgb(0, 0, 0)" stroke-linejoin="round" d=" M 613.136, 467.753 613.136, 457.753 613.136, 447.753 613.136, 437.753 613.136, 427.753 613.136, 417.753 613.136, 407.753 613.136, 397.753 613.136, 387.753 613.136, 377.753 613.136, 367.753 613.136, 357.753 613.136, 347.753 613.136, 337.753 613.136, 327.753 613.136, 317.753 613.136, 307.753 613.136, 297.753 613.136, 287.753 613.136, 277.753 613.136, 267.753 613.136, 257.753 613.136, 247.753 613.136, 237.753 613.136, 227.556 " />
            <path fill="none" stroke-width="1.5" stroke-linecap="round" stroke-opacity="1.0" stroke="rgb(0, 0, 0)" stroke-linejoin="round" d=" M 613.136, 227.556 603.136, 227.556 593.136, 227.556 583.136, 227.556 573.136, 227.556 563.136, 227.556 553.136, 227.556 543.136, 227.556 533.136, 227.556 523.136, 227.556 513.136, 227.556 503.136, 227.556 493.136, 227.556 483.136, 227.556 473.136, 227.556 463.136, 227.556 453.136, 227.556 443.136, 227.556 433.136, 227.556 423.136, 227.556 413.136, 227.556 410.864, 227.556 " />
        </g>
    </g>
    <g id="ViewLayer_TechnicalLines.002" inkscape:groupmode="lineset" inkscape:label="ViewLayer_TechnicalLines.002">
        <g inkscape:groupmode="layer" id="strokes" inkscape:label="strokes">
            <path fill="none" stroke-width="1.5" stroke-linecap="round" stroke-opacity="1.0" stroke="rgb(0, 0, 0)" stroke-linejoin="round" d=" M 436.148, 796.444 436.148, 786.444 436.148, 776.444 436.148, 766.444 436.148, 756.444 436.148, 746.444 436.148, 736.444 436.148, 726.444 436.148, 716.444 436.148, 706.444 436.148, 696.444 436.148, 686.444 436.148, 676.444 436.148, 670.025 436.148, 670.025 " />
            <path fill="none" stroke-width="1.5" stroke-linecap="round" stroke-opacity="1.0" stroke="rgb(0, 0, 0)" stroke-linejoin="round" d=" M 410.864, 568.889 410.864, 578.889 410.864, 588.889 410.864, 598.889 410.864, 608.889 410.864, 618.889 410.864, 628.889 410.864, 638.889 410.864, 648.889 410.864, 658.889 410.864, 668.889 410.864, 678.889 410.864, 688.889 410.864, 698.889 410.864, 708.889 410.864, 718.889 410.864, 728.889 410.864, 738.889 410.864, 748.889 410.864, 758.889 410.864, 768.889 410.864, 778.889 410.864, 788.889 410.864, 796.444 411.107, 796.444 411.827, 796.444 412.995, 796.444 414.567, 796.444 416.483, 796.444 418.668, 796.444 421.040, 796.444 423.506, 796.444 425.973, 796.444 428.344, 796.444 430.530, 796.444 432.445, 796.444 434.018, 796.444 435.186, 796.444 435.905, 796.444 436.148, 796.444 " />
            <path fill="none" stroke-width="1.5" stroke-linecap="round" stroke-opacity="1.0" stroke="rgb(0, 0, 0)" stroke-linejoin="round" d=" M 587.852, 670.025 587.852, 670.025 587.852, 680.025 587.852, 690.025 587.852, 700.025 587.852, 710.025 587.852, 720.025 587.852, 730.025 587.852, 740.025 587.852, 750.025 587.852, 760.025 587.852, 770.025 587.852, 780.025 587.852, 790.025 587.852, 796.444 588.095, 796.444 588.814, 796.444 589.982, 796.444 591.555, 796.444 593.470, 796.444 595.656, 796.444 598.027, 796.444 600.494, 796.444 602.960, 796.444 605.332, 796.444 607.517, 796.444 609.433, 796.444 611.005, 796.444 612.173, 796.444 612.893, 796.444 613.136, 796.444 613.136, 786.444 613.136, 776.444 613.136, 766.444 613.136, 756.444 613.136, 746.444 613.136, 736.444 613.136, 726.444 613.136, 716.444 613.136, 706.444 613.136, 696.444 613.136, 686.444 613.136, 676.444 613.136, 670.025 613.136, 670.025 " />
            <path fill="none" stroke-width="1.5" stroke-linecap="round" stroke-opacity="1.0" stroke="rgb(0, 0, 0)" stroke-linejoin="round" d=" M 410.864, 467.753 410.864, 467.753 410.864, 477.753 410.864, 487.753 410.864, 497.753 410.864, 507.753 410.864, 517.753 410.864, 527.753 410.864, 530.963 " />
            <path fill="none" stroke-width="1.5" stroke-linecap="round" stroke-opacity="1.0" stroke="rgb(0, 0, 0)" stroke-linejoin="round" d=" M 613.136, 670.025 613.136, 660.025 613.136, 650.025 613.136, 640.025 613.136, 630.025 613.136, 620.025 613.136, 610.025 613.136, 600.025 613.136, 590.025 613.136, 580.025 613.136, 570.025 613.136, 560.025 613.136, 550.025 613.136, 540.025 613.136, 530.025 613.136, 520.025 613.136, 510.025 613.136, 500.025 613.136, 490.025 613.136, 480.025 613.136, 470.025 613.136, 467.753 " />
            <path fill="none" stroke-width="1.5" stroke-linecap="round" stroke-opacity="1.0" stroke="rgb(0, 0, 0)" stroke-linejoin="round" d=" M 410.864, 568.889 410.864, 578.889 410.864, 588.889 410.864, 598.889 410.864, 608.889 410.864, 618.889 410.864, 628.889 410.864, 638.889 410.864, 648.889 410.864, 658.889 410.864, 668.889 410.864, 670.025 420.864, 670.025 430.864, 670.025 436.148, 670.025 " />
            <path fill="none" stroke-width="1.5" stroke-linecap="round" stroke-opacity="1.0" stroke="rgb(0, 0, 0)" stroke-linejoin="round" d=" M 410.864, 530.963 410.864, 540.963 410.864, 550.963 410.864, 560.963 410.864, 568.889 " />
            <path fill="none" stroke-width="1.5" stroke-linecap="round" stroke-opacity="1.0" stroke="rgb(0, 0, 0)" stroke-linejoin="round" d=" M 410.864, 227.556 410.864, 237.556 410.864, 247.556 410.864, 257.556 410.864, 267.556 410.864, 277.556 410.864, 287.556 410.864, 297.556 410.864, 307.556 410.864, 317.556 410.864, 327.556 410.864, 337.556 410.864, 347.556 410.864, 357.556 410.864, 367.556 410.864, 377.556 410.864, 387.556 410.864, 397.556 410.864, 407.556 410.864, 417.556 410.864, 427.556 410.864, 437.556 410.864, 447.556 410.864, 457.556 410.864, 467.753 " />
            <path fill="none" stroke-width="1.5" stroke-linecap="round" stroke-opacity="1.0" stroke="rgb(0, 0, 0)" stroke-linejoin="round" d=" M 436.148, 670.025 446.148, 670.025 456.148, 670.025 466.148, 670.025 476.148, 670.025 486.148, 670.025 496.148, 670.025 506.148, 670.025 516.148, 670.025 526.148, 670.025 536.148, 670.025 546.148, 670.025 556.148, 670.025 566.148, 670.025 576.148, 670.025 586.148, 670.025 587.852, 670.025 " />
            <path fill="none" stroke-width="1.5" stroke-linecap="round" stroke-opacity="1.0" stroke="rgb(0, 0, 0)" stroke-linejoin="round" d=" M 587.852, 670.025 597.852, 670.025 607.852, 670.025 613.136, 670.025 " />
            <path fill="none" stroke-width="1.5" stroke-linecap="round" stroke-opacity="1.0" stroke="rgb(0, 0, 0)" stroke-linejoin="round" d=" M 436.148, 670.025 446.148, 670.025 456.148, 670.025 466.148, 670.025 476.148, 670.025 486.148, 670.025 496.148, 670.025 506.148, 670.025 516.148, 670.025 526.148, 670.025 536.148, 670.025 546.148, 670.025 556.148, 670.025 566.148, 670.025 576.148, 670.025 586.148, 670.025 587.852, 670.025 " />
            <path fill="none" stroke-width="1.5" stroke-linecap="round" stroke-opacity="1.0" stroke="rgb(0, 0, 0)" stroke-linejoin="round" d=" M 613.136, 467.753 603.136, 467.753 593.136, 467.753 583.136, 467.753 573.136, 467.753 563.136, 467.753 553.136, 467.753 543.136, 467.753 533.136, 467.753 523.136, 467.753 513.136, 467.753 503.136, 467.753 493.136, 467.753 483.136, 467.753 473.136, 467.753 463.136, 467.753 453.136, 467.753 443.136, 467.753 433.136, 467.753 423.136, 467.753 413.136, 467.753 410.864, 467.753 " />
            <path fill="none" stroke-width="1.5" stroke-linecap="round" stroke-opacity="1.0" stroke="rgb(0, 0, 0)" stroke-linejoin="round" d=" M 613.136, 467.753 613.136, 457.753 613.136, 447.753 613.136, 437.753 613.136, 427.753 613.136, 417.753 613.136, 407.753 613.136, 397.753 613.136, 387.753 613.136, 377.753 613.136, 367.753 613.136, 357.753 613.136, 347.753 613.136, 337.753 613.136, 327.753 613.136, 317.753 613.136, 307.753 613.136, 297.753 613.136, 287.753 613.136, 277.753 613.136, 267.753 613.136, 257.753 613.136, 247.753 613.136, 237.753 613.136, 227.556 " />
            <path fill="none" stroke-width="1.5" stroke-linecap="round" stroke-opacity="1.0" stroke="rgb(0, 0, 0)" stroke-linejoin="round" d=" M 613.136, 227.556 603.136, 227.556 593.136, 227.556 583.136, 227.556 573.136, 227.556 563.136, 227.556 553.136, 227.556 543.136, 227.556 533.136, 227.556 523.136, 227.556 513.136, 227.556 503.136, 227.556 493.136, 227.556 483.136, 227.556 473.136, 227.556 463.136, 227.556 453.136, 227.556 443.136, 227.556 433.136, 227.556 423.136, 227.556 413.136, 227.556 410.864, 227.556 " />
        </g>
    </g>
    <g id="ViewLayer_TechnicalLines.003" inkscape:groupmode="lineset" inkscape:label="ViewLayer_TechnicalLines.003">
        <g inkscape:groupmode="layer" id="strokes" inkscape:label="strokes">
            <path fill="none" stroke-width="1.5" stroke-linecap="round" stroke-opacity="1.0" stroke="rgb(0, 0, 0)" stroke-linejoin="round" d=" M 436.148, 796.444 436.148, 786.444 436.148, 776.444 436.148, 766.444 436.148, 756.444 436.148, 746.444 436.148, 736.444 436.148, 726.444 436.148, 716.444 436.148, 706.444 436.148, 696.444 436.148, 686.444 436.148, 676.444 436.148, 670.025 436.148, 670.025 " />
            <path fill="none" stroke-width="1.5" stroke-linecap="round" stroke-opacity="1.0" stroke="rgb(0, 0, 0)" stroke-linejoin="round" d=" M 410.864, 568.889 410.864, 578.889 410.864, 588.889 410.864, 598.889 410.864, 608.889 410.864, 618.889 410.864, 628.889 410.864, 638.889 410.864, 648.889 410.864, 658.889 410.864, 668.889 410.864, 678.889 410.864, 688.889 410.864, 698.889 410.864, 708.889 410.864, 718.889 410.864, 728.889 410.864, 738.889 410.864, 748.889 410.864, 758.889 410.864, 768.889 410.864, 778.889 410.864, 788.889 410.864, 796.444 411.107, 796.444 411.827, 796.444 412.995, 796.444 414.567, 796.444 416.483, 796.444 418.668, 796.444 421.040, 796.444 423.506, 796.444 425.973, 796.444 428.344, 796.444 430.530, 796.444 432.445, 796.444 434.018, 796.444 435.186, 796.444 435.905, 796.444 436.148, 796.444 " />
            <path fill="none" stroke-width="1.5" stroke-linecap="round" stroke-opacity="1.0" stroke="rgb(0, 0, 0)" stroke-linejoin="round" d=" M 587.852, 670.025 587.852, 670.025 587.852, 680.025 587.852, 690.025 587.852, 700.025 587.852, 710.025 587.852, 720.025 587.852, 730.025 587.852, 740.025 587.852, 750.025 587.852, 760.025 587.852, 770.025 587.852, 780.025 587.852, 790.025 587.852, 796.444 588.095, 796.444 588.814, 796.444 589.982, 796.444 591.555, 796.444 593.470, 796.444 595.656, 796.444 598.027, 796.444 600.494, 796.444 602.960, 796.444 605.332, 796.444 607.517, 796.444 609.433, 796.444 611.005, 796.444 612.173, 796.444 612.893, 796.444 613.136, 796.444 613.136, 786.444 613.136, 776.444 613.136, 766.444 613.136, 756.444 613.136, 746.444 613.136, 736.444 613.136, 726.444 613.136, 716.444 613.136, 706.444 613.136, 696.444 613.136, 686.444 613.136, 676.444 613.136, 670.025 613.136, 670.025 " />
            <path fill="none" stroke-width="1.5" stroke-linecap="round" stroke-opacity="1.0" stroke="rgb(0, 0, 0)" stroke-linejoin="round" d=" M 410.864, 467.753 410.864, 467.753 410.864, 477.753 410.864, 487.753 410.864, 497.753 410.864, 507.753 410.864, 517.753 410.864, 527.753 410.864, 530.963 " />
            <path fill="none" stroke-width="1.5" stroke-linecap="round" stroke-opacity="1.0" stroke="rgb(0, 0, 0)" stroke-linejoin="round" d=" M 613.136, 670.025 613.136, 660.025 613.136, 650.025 613.136, 640.025 613.136, 630.025 613.136, 620.025 613.136, 610.025 613.136, 600.025 613.136, 590.025 613.136, 580.025 613.136, 570.025 613.136, 560.025 613.136, 550.025 613.136, 540.025 613.136, 530.025 613.136, 520.025 613.136, 510.025 613.136, 500.025 613.136, 490.025 613.136, 480.025 613.136, 470.025 613.136, 467.753 " />
            <path fill="none" stroke-width="1.5" stroke-linecap="round" stroke-opacity="1.0" stroke="rgb(0, 0, 0)" stroke-linejoin="round" d=" M 410.864, 568.889 410.864, 578.889 410.864, 588.889 410.864, 598.889 410.864, 608.889 410.864, 618.889 410.864, 628.889 410.864, 638.889 410.864, 648.889 410.864, 658.889 410.864, 668.889 410.864, 670.025 420.864, 670.025 430.864, 670.025 436.148, 670.025 " />
            <path fill="none" stroke-width="1.5" stroke-linecap="round" stroke-opacity="1.0" stroke="rgb(0, 0, 0)" stroke-linejoin="round" d=" M 410.864, 530.963 410.864, 540.963 410.864, 550.963 410.864, 560.963 410.864, 568.889 " />
            <path fill="none" stroke-width="1.5" stroke-linecap="round" stroke-opacity="1.0" stroke="rgb(0, 0, 0)" stroke-linejoin="round" d=" M 410.864, 227.556 410.864, 237.556 410.864, 247.556 410.864, 257.556 410.864, 267.556 410.864, 277.556 410.864, 287.556 410.864, 297.556 410.864, 307.556 410.864, 317.556 410.864, 327.556 410.864, 337.556 410.864, 347.556 410.864, 357.556 410.864, 367.556 410.864, 377.556 410.864, 387.556 410.864, 397.556 410.864, 407.556 410.864, 417.556 410.864, 427.556 410.864, 437.556 410.864, 447.556 410.864, 457.556 410.864, 467.753 " />
            <path fill="none" stroke-width="1.5" stroke-linecap="round" stroke-opacity="1.0" stroke="rgb(0, 0, 0)" stroke-linejoin="round" d=" M 436.148, 670.025 446.148, 670.025 456.148, 670.025 466.148, 670.025 476.148, 670.025 486.148, 670.025 496.148, 670.025 506.148, 670.025 516.148, 670.025 526.148, 670.025 536.148, 670.025 546.148, 670.025 556.148, 670.025 566.148, 670.025 576.148, 670.025 586.148, 670.025 587.852, 670.025 " />
            <path fill="none" stroke-width="1.5" stroke-linecap="round" stroke-opacity="1.0" stroke="rgb(0, 0, 0)" stroke-linejoin="round" d=" M 587.852, 670.025 597.852, 670.025 607.852, 670.025 613.136, 670.025 " />
            <path fill="none" stroke-width="1.5" stroke-linecap="round" stroke-opacity="1.0" stroke="rgb(0, 0, 0)" stroke-linejoin="round" d=" M 436.148, 670.025 446.148, 670.025 456.148, 670.025 466.148, 670.025 476.148, 670.025 486.148, 670.025 496.148, 670.025 506.148, 670.025 516.148, 670.025 526.148, 670.025 536.148, 670.025 546.148, 670.025 556.148, 670.025 566.148, 670.025 576.148, 670.025 586.148, 670.025 587.852, 670.025 " />
            <path fill="none" stroke-width="1.5" stroke-linecap="round" stroke-opacity="1.0" stroke="rgb(0, 0, 0)" stroke-linejoin="round" d=" M 613.136, 467.753 603.136, 467.753 593.136, 467.753 583.136, 467.753 573.136, 467.753 563.136, 467.753 553.136, 467.753 543.136, 467.753 533.136, 467.753 523.136, 467.753 513.136, 467.753 503.136, 467.753 493.136, 467.753 483.136, 467.753 473.136, 467.753 463.136, 467.753 453.136, 467.753 443.136, 467.753 433.136, 467.753 423.136, 467.753 413.136, 467.753 410.864, 467.753 " />
            <path fill="none" stroke-width="1.5" stroke-linecap="round" stroke-opacity="1.0" stroke="rgb(0, 0, 0)" stroke-linejoin="round" d=" M 613.136, 467.753 613.136, 457.753 613.136, 447.753 613.136, 437.753 613.136, 427.753 613.136, 417.753 613.136, 407.753 613.136, 397.753 613.136, 387.753 613.136, 377.753 613.136, 367.753 613.136, 357.753 613.136, 347.753 613.136, 337.753 613.136, 327.753 613.136, 317.753 613.136, 307.753 613.136, 297.753 613.136, 287.753 613.136, 277.753 613.136, 267.753 613.136, 257.753 613.136, 247.753 613.136, 237.753 613.136, 227.556 " />
            <path fill="none" stroke-width="1.5" stroke-linecap="round" stroke-opacity="1.0" stroke="rgb(0, 0, 0)" stroke-linejoin="round" d=" M 613.136, 227.556 603.136, 227.556 593.136, 227.556 583.136, 227.556 573.136, 227.556 563.136, 227.556 553.136, 227.556 543.136, 227.556 533.136, 227.556 523.136, 227.556 513.136, 227.556 503.136, 227.556 493.136, 227.556 483.136, 227.556 473.136, 227.556 463.136, 227.556 453.136, 227.556 443.136, 227.556 433.136, 227.556 423.136, 227.556 413.136, 227.556 410.864, 227.556 " />
        </g>
    </g>
    <g id="ViewLayer_TechnicalLines.004" xmlns:inkscape="http://www.inkscape.org/namespaces/inkscape" inkscape:groupmode="lineset" inkscape:label="ViewLayer_TechnicalLines.004">
        <g xmlns:inkscape="http://www.inkscape.org/namespaces/inkscape" inkscape:groupmode="layer" id="strokes" inkscape:label="strokes">
            <path fill="none" stroke-width="1.5" stroke-linecap="round" stroke-opacity="1.0" stroke="rgb(0, 0, 0)" stroke-linejoin="round" d=" M 436.148, 796.444 436.148, 786.444 436.148, 776.444 436.148, 766.444 436.148, 756.444 436.148, 746.444 436.148, 736.444 436.148, 726.444 436.148, 716.444 436.148, 706.444 436.148, 696.444 436.148, 686.444 436.148, 676.444 436.148, 670.025 436.148, 670.025 " />
            <path fill="none" stroke-width="1.5" stroke-linecap="round" stroke-opacity="1.0" stroke="rgb(0, 0, 0)" stroke-linejoin="round" d=" M 410.864, 568.889 410.864, 578.889 410.864, 588.889 410.864, 598.889 410.864, 608.889 410.864, 618.889 410.864, 628.889 410.864, 638.889 410.864, 648.889 410.864, 658.889 410.864, 668.889 410.864, 678.889 410.864, 688.889 410.864, 698.889 410.864, 708.889 410.864, 718.889 410.864, 728.889 410.864, 738.889 410.864, 748.889 410.864, 758.889 410.864, 768.889 410.864, 778.889 410.864, 788.889 410.864, 796.444 411.107, 796.444 411.827, 796.444 412.995, 796.444 414.567, 796.444 416.483, 796.444 418.668, 796.444 421.040, 796.444 423.506, 796.444 425.973, 796.444 428.344, 796.444 430.530, 796.444 432.445, 796.444 434.018, 796.444 435.186, 796.444 435.905, 796.444 436.148, 796.444 " />
            <path fill="none" stroke-width="1.5" stroke-linecap="round" stroke-opacity="1.0" stroke="rgb(0, 0, 0)" stroke-linejoin="round" d=" M 587.852, 670.025 587.852, 670.025 587.852, 680.025 587.852, 690.025 587.852, 700.025 587.852, 710.025 587.852, 720.025 587.852, 730.025 587.852, 740.025 587.852, 750.025 587.852, 760.025 587.852, 770.025 587.852, 780.025 587.852, 790.025 587.852, 796.444 588.095, 796.444 588.814, 796.444 589.982, 796.444 591.555, 796.444 593.470, 796.444 595.656, 796.444 598.027, 796.444 600.494, 796.444 602.960, 796.444 605.332, 796.444 607.517, 796.444 609.433, 796.444 611.005, 796.444 612.173, 796.444 612.893, 796.444 613.136, 796.444 613.136, 786.444 613.136, 776.444 613.136, 766.444 613.136, 756.444 613.136, 746.444 613.136, 736.444 613.136, 726.444 613.136, 716.444 613.136, 706.444 613.136, 696.444 613.136, 686.444 613.136, 676.444 613.136, 670.025 613.136, 670.025 " />
            <path fill="none" stroke-width="1.5" stroke-linecap="round" stroke-opacity="1.0" stroke="rgb(0, 0, 0)" stroke-linejoin="round" d=" M 410.864, 467.753 410.864, 467.753 410.864, 477.753 410.864, 487.753 410.864, 497.753 410.864, 507.753 410.864, 517.753 410.864, 527.753 410.864, 530.963 " />
            <path fill="none" stroke-width="1.5" stroke-linecap="round" stroke-opacity="1.0" stroke="rgb(0, 0, 0)" stroke-linejoin="round" d=" M 613.136, 670.025 613.136, 660.025 613.136, 650.025 613.136, 640.025 613.136, 630.025 613.136, 620.025 613.136, 610.025 613.136, 600.025 613.136, 590.025 613.136, 580.025 613.136, 570.025 613.136, 560.025 613.136, 550.025 613.136, 540.025 613.136, 530.025 613.136, 520.025 613.136, 510.025 613.136, 500.025 613.136, 490.025 613.136, 480.025 613.136, 470.025 613.136, 467.753 " />
            <path fill="none" stroke-width="1.5" stroke-linecap="round" stroke-opacity="1.0" stroke="rgb(0, 0, 0)" stroke-linejoin="round" d=" M 410.864, 568.889 410.864, 578.889 410.864, 588.889 410.864, 598.889 410.864, 608.889 410.864, 618.889 410.864, 628.889 410.864, 638.889 410.864, 648.889 410.864, 658.889 410.864, 668.889 410.864, 670.025 420.864, 670.025 430.864, 670.025 436.148, 670.025 " />
            <path fill="none" stroke-width="1.5" stroke-linecap="round" stroke-opacity="1.0" stroke="rgb(0, 0, 0)" stroke-linejoin="round" d=" M 410.864, 530.963 410.864, 540.963 410.864, 550.963 410.864, 560.963 410.864, 568.889 " />
            <path fill="none" stroke-width="1.5" stroke-linecap="round" stroke-opacity="1.0" stroke="rgb(0, 0, 0)" stroke-linejoin="round" d=" M 410.864, 227.556 410.864, 237.556 410.864, 247.556 410.864, 257.556 410.864, 267.556 410.864, 277.556 410.864, 287.556 410.864, 297.556 410.864, 307.556 410.864, 317.556 410.864, 327.556 410.864, 337.556 410.864, 347.556 410.864, 357.556 410.864, 367.556 410.864, 377.556 410.864, 387.556 410.864, 397.556 410.864, 407.556 410.864, 417.556 410.864, 427.556 410.864, 437.556 410.864, 447.556 410.864, 457.556 410.864, 467.753 " />
            <path fill="none" stroke-width="1.5" stroke-linecap="round" stroke-opacity="1.0" stroke="rgb(0, 0, 0)" stroke-linejoin="round" d=" M 436.148, 670.025 446.148, 670.025 456.148, 670.025 466.148, 670.025 476.148, 670.025 486.148, 670.025 496.148, 670.025 506.148, 670.025 516.148, 670.025 526.148, 670.025 536.148, 670.025 546.148, 670.025 556.148, 670.025 566.148, 670.025 576.148, 670.025 586.148, 670.025 587.852, 670.025 " />
            <path fill="none" stroke-width="1.5" stroke-linecap="round" stroke-opacity="1.0" stroke="rgb(0, 0, 0)" stroke-linejoin="round" d=" M 587.852, 670.025 597.852, 670.025 607.852, 670.025 613.136, 670.025 " />
            <path fill="none" stroke-width="1.5" stroke-linecap="round" stroke-opacity="1.0" stroke="rgb(0, 0, 0)" stroke-linejoin="round" d=" M 436.148, 670.025 446.148, 670.025 456.148, 670.025 466.148, 670.025 476.148, 670.025 486.148, 670.025 496.148, 670.025 506.148, 670.025 516.148, 670.025 526.148, 670.025 536.148, 670.025 546.148, 670.025 556.148, 670.025 566.148, 670.025 576.148, 670.025 586.148, 670.025 587.852, 670.025 " />
            <path fill="none" stroke-width="1.5" stroke-linecap="round" stroke-opacity="1.0" stroke="rgb(0, 0, 0)" stroke-linejoin="round" d=" M 613.136, 467.753 603.136, 467.753 593.136, 467.753 583.136, 467.753 573.136, 467.753 563.136, 467.753 553.136, 467.753 543.136, 467.753 533.136, 467.753 523.136, 467.753 513.136, 467.753 503.136, 467.753 493.136, 467.753 483.136, 467.753 473.136, 467.753 463.136, 467.753 453.136, 467.753 443.136, 467.753 433.136, 467.753 423.136, 467.753 413.136, 467.753 410.864, 467.753 " />
            <path fill="none" stroke-width="1.5" stroke-linecap="round" stroke-opacity="1.0" stroke="rgb(0, 0, 0)" stroke-linejoin="round" d=" M 613.136, 467.753 613.136, 457.753 613.136, 447.753 613.136, 437.753 613.136, 427.753 613.136, 417.753 613.136, 407.753 613.136, 397.753 613.136, 387.753 613.136, 377.753 613.136, 367.753 613.136, 357.753 613.136, 347.753 613.136, 337.753 613.136, 327.753 613.136, 317.753 613.136, 307.753 613.136, 297.753 613.136, 287.753 613.136, 277.753 613.136, 267.753 613.136, 257.753 613.136, 247.753 613.136, 237.753 613.136, 227.556 " />
            <path fill="none" stroke-width="1.5" stroke-linecap="round" stroke-opacity="1.0" stroke="rgb(0, 0, 0)" stroke-linejoin="round" d=" M 613.136, 227.556 603.136, 227.556 593.136, 227.556 583.136, 227.556 573.136, 227.556 563.136, 227.556 553.136, 227.556 543.136, 227.556 533.136, 227.556 523.136, 227.556 513.136, 227.556 503.136, 227.556 493.136, 227.556 483.136, 227.556 473.136, 227.556 463.136, 227.556 453.136, 227.556 443.136, 227.556 433.136, 227.556 423.136, 227.556 413.136, 227.556 410.864, 227.556 " />
        </g>
    </g>
</svg>
