<?xml version='1.0' encoding='ascii'?>
<svg xmlns="http://www.w3.org/2000/svg" xmlns:inkscape="http://www.inkscape.org/namespaces/inkscape" version="1.1" width="1024" height="1024">
    <g id="ViewLayer_LineSet" inkscape:groupmode="lineset" inkscape:label="ViewLayer_LineSet">
        <g inkscape:groupmode="layer" id="strokes" inkscape:label="strokes">
            <path fill="none" stroke-width="3.0" stroke-linecap="butt" stroke-opacity="1.0" stroke="rgb(0, 0, 0)" stroke-linejoin="round" d=" M 298.667, 636.444 298.667, 636.444 298.667, 646.444 298.667, 656.444 298.667, 666.444 298.667, 676.444 298.667, 686.444 298.667, 696.444 298.667, 706.444 298.667, 707.556 298.667, 707.556 308.667, 707.556 318.667, 707.556 328.667, 707.556 338.667, 707.556 348.667, 707.556 358.667, 707.556 368.667, 707.556 378.667, 707.556 388.667, 707.556 398.667, 707.556 408.667, 707.556 418.667, 707.556 428.667, 707.556 438.667, 707.556 448.667, 707.556 458.667, 707.556 468.667, 707.556 478.667, 707.556 488.667, 707.556 498.667, 707.556 508.667, 707.556 518.667, 707.556 528.667, 707.556 538.667, 707.556 548.667, 707.556 558.667, 707.556 568.667, 707.556 578.667, 707.556 588.667, 707.556 598.667, 707.556 608.667, 707.556 618.667, 707.556 628.667, 707.556 638.667, 707.556 648.667, 707.556 658.667, 707.556 668.667, 707.556 678.667, 707.556 688.667, 707.556 698.667, 707.556 708.667, 707.556 718.667, 707.556 725.333, 707.556 725.333, 707.556 725.333, 697.556 725.333, 687.556 725.333, 677.556 725.333, 667.556 725.333, 657.556 725.333, 647.556 725.333, 637.556 725.333, 636.444 715.333, 636.444 705.333, 636.444 695.333, 636.444 685.333, 636.444 675.333, 636.444 665.333, 636.444 655.333, 636.444 645.333, 636.444 635.333, 636.444 625.333, 636.444 615.333, 636.444 605.333, 636.444 595.333, 636.444 585.333, 636.444 575.333, 636.444 565.333, 636.444 555.333, 636.444 545.333, 636.444 535.333, 636.444 525.333, 636.444 515.333, 636.444 505.333, 636.444 495.333, 636.444 485.333, 636.444 475.333, 636.444 465.333, 636.444 455.333, 636.444 445.333, 636.444 435.333, 636.444 425.333, 636.444 415.333, 636.444 405.333, 636.444 395.333, 636.444 385.333, 636.444 375.333, 636.444 365.333, 636.444 355.333, 636.444 345.333, 636.444 335.333, 636.444 325.333, 636.444 315.333, 636.444 305.333, 636.444 298.667, 636.444 " />
            <path fill="none" stroke-width="3.0" stroke-linecap="butt" stroke-opacity="1.0" stroke="rgb(0, 0, 0)" stroke-linejoin="round" d=" M 298.667, 707.556 308.667, 707.556 318.667, 707.556 328.667, 707.556 338.667, 707.556 348.667, 707.556 358.667, 707.556 368.667, 707.556 378.667, 707.556 388.667, 707.556 398.667, 707.556 408.667, 707.556 418.667, 707.556 428.667, 707.556 438.667, 707.556 448.667, 707.556 458.667, 707.556 468.667, 707.556 478.667, 707.556 488.667, 707.556 498.667, 707.556 508.667, 707.556 518.667, 707.556 528.667, 707.556 538.667, 707.556 548.667, 707.556 558.667, 707.556 568.667, 707.556 578.667, 707.556 588.667, 707.556 598.667, 707.556 608.667, 707.556 618.667, 707.556 628.667, 707.556 638.667, 707.556 648.667, 707.556 658.667, 707.556 668.667, 707.556 678.667, 707.556 688.667, 707.556 698.667, 707.556 708.667, 707.556 718.667, 707.556 725.333, 707.556 " />
            <path fill="none" stroke-width="3.0" stroke-linecap="butt" stroke-opacity="1.0" stroke="rgb(0, 0, 0)" stroke-linejoin="round" d=" M 725.333, 600.889 725.333, 590.889 725.333, 580.889 725.333, 570.889 725.333, 560.889 725.333, 550.889 725.333, 540.889 725.333, 530.889 725.333, 529.778 725.333, 529.778 725.333, 519.778 725.333, 509.778 725.333, 499.778 725.333, 489.778 725.333, 479.778 725.333, 469.778 725.333, 459.778 725.333, 449.778 725.333, 439.778 725.333, 429.778 725.333, 419.778 725.333, 409.778 725.333, 399.778 725.333, 389.778 725.333, 379.778 725.333, 369.778 725.333, 359.778 725.333, 349.778 725.333, 339.778 725.333, 329.778 725.333, 319.778 725.333, 316.444 715.333, 316.444 705.333, 316.444 695.333, 316.444 685.333, 316.444 675.333, 316.444 665.333, 316.444 655.333, 316.444 645.333, 316.444 635.333, 316.444 625.333, 316.444 615.333, 316.444 605.333, 316.444 595.333, 316.444 585.333, 316.444 575.333, 316.444 565.333, 316.444 555.333, 316.444 545.333, 316.444 535.333, 316.444 525.333, 316.444 515.333, 316.444 505.333, 316.444 495.333, 316.444 485.333, 316.444 475.333, 316.444 465.333, 316.444 455.333, 316.444 445.333, 316.444 435.333, 316.444 425.333, 316.444 415.333, 316.444 405.333, 316.444 395.333, 316.444 385.333, 316.444 375.333, 316.444 365.333, 316.444 355.333, 316.444 345.333, 316.444 335.333, 316.444 325.333, 316.444 315.333, 316.444 305.333, 316.444 298.667, 316.444 " />
            <path fill="none" stroke-width="3.0" stroke-linecap="butt" stroke-opacity="1.0" stroke="rgb(0, 0, 0)" stroke-linejoin="round" d=" M 298.667, 316.444 298.667, 326.444 298.667, 336.444 298.667, 346.444 298.667, 356.444 298.667, 366.444 298.667, 376.444 298.667, 386.444 298.667, 396.444 298.667, 406.444 298.667, 416.444 298.667, 426.444 298.667, 436.444 298.667, 446.444 298.667, 456.444 298.667, 466.444 298.667, 476.444 298.667, 486.444 298.667, 496.444 298.667, 506.444 298.667, 516.444 298.667, 526.444 298.667, 529.778 298.667, 529.778 298.667, 539.778 298.667, 549.778 298.667, 559.778 298.667, 569.778 298.667, 579.778 298.667, 589.778 298.667, 599.778 298.667, 600.889 298.667, 600.889 " />
            <path fill="none" stroke-width="3.0" stroke-linecap="butt" stroke-opacity="1.0" stroke="rgb(0, 0, 0)" stroke-linejoin="round" d=" M 298.667, 529.778 288.667, 529.778 278.667, 529.778 268.667, 529.778 258.667, 529.778 248.667, 529.778 238.667, 529.778 228.667, 529.778 227.556, 529.778 227.556, 539.778 227.556, 549.778 227.556, 559.778 227.556, 569.778 227.556, 579.778 227.556, 589.778 227.556, 599.778 227.556, 600.889 227.556, 600.889 237.556, 600.889 247.556, 600.889 257.556, 600.889 267.556, 600.889 277.556, 600.889 287.556, 600.889 297.556, 600.889 298.667, 600.889 298.667, 600.889 " />
            <path fill="none" stroke-width="3.0" stroke-linecap="butt" stroke-opacity="1.0" stroke="rgb(0, 0, 0)" stroke-linejoin="round" d=" M 227.556, 600.889 237.556, 600.889 247.556, 600.889 257.556, 600.889 267.556, 600.889 277.556, 600.889 287.556, 600.889 297.556, 600.889 298.667, 600.889 " />
            <path fill="none" stroke-width="3.0" stroke-linecap="butt" stroke-opacity="1.0" stroke="rgb(0, 0, 0)" stroke-linejoin="round" d=" M 725.333, 600.889 725.333, 600.889 735.333, 600.889 745.333, 600.889 755.333, 600.889 765.333, 600.889 775.333, 600.889 785.333, 600.889 795.333, 600.889 796.444, 600.889 796.444, 600.889 796.444, 590.889 796.444, 580.889 796.444, 570.889 796.444, 560.889 796.444, 550.889 796.444, 540.889 796.444, 530.889 796.444, 529.778 796.444, 529.778 786.444, 529.778 776.444, 529.778 766.444, 529.778 756.444, 529.778 746.444, 529.778 736.444, 529.778 726.444, 529.778 725.333, 529.778 " />
            <path fill="none" stroke-width="3.0" stroke-linecap="butt" stroke-opacity="1.0" stroke="rgb(0, 0, 0)" stroke-linejoin="round" d=" M 298.667, 600.889 298.667, 600.889 " />
            <path fill="none" stroke-width="3.0" stroke-linecap="butt" stroke-opacity="1.0" stroke="rgb(0, 0, 0)" stroke-linejoin="round" d=" M 725.333, 600.889 725.333, 600.889 " />
            <path fill="none" stroke-width="3.0" stroke-linecap="butt" stroke-opacity="1.0" stroke="rgb(0, 0, 0)" stroke-linejoin="round" d=" M 725.333, 600.889 725.333, 600.889 " />
            <path fill="none" stroke-width="3.0" stroke-linecap="butt" stroke-opacity="1.0" stroke="rgb(0, 0, 0)" stroke-linejoin="round" d=" M 298.667, 600.889 308.667, 600.889 318.667, 600.889 328.667, 600.889 338.667, 600.889 348.667, 600.889 358.667, 600.889 368.667, 600.889 378.667, 600.889 388.667, 600.889 398.667, 600.889 408.667, 600.889 418.667, 600.889 428.667, 600.889 438.667, 600.889 448.667, 600.889 458.667, 600.889 468.667, 600.889 478.667, 600.889 488.667, 600.889 498.667, 600.889 508.667, 600.889 518.667, 600.889 528.667, 600.889 538.667, 600.889 548.667, 600.889 558.667, 600.889 568.667, 600.889 578.667, 600.889 588.667, 600.889 598.667, 600.889 608.667, 600.889 618.667, 600.889 628.667, 600.889 638.667, 600.889 648.667, 600.889 658.667, 600.889 668.667, 600.889 678.667, 600.889 688.667, 600.889 698.667, 600.889 708.667, 600.889 718.667, 600.889 725.333, 600.889 " />
            <path fill="none" stroke-width="3.0" stroke-linecap="butt" stroke-opacity="1.0" stroke="rgb(0, 0, 0)" stroke-linejoin="round" d=" M 725.333, 600.889 735.333, 600.889 745.333, 600.889 755.333, 600.889 765.333, 600.889 775.333, 600.889 785.333, 600.889 795.333, 600.889 796.444, 600.889 " />
        </g>
    </g>
    <g id="ViewLayer_TechnicalLines" inkscape:groupmode="lineset" inkscape:label="ViewLayer_TechnicalLines">
        <g inkscape:groupmode="layer" id="strokes" inkscape:label="strokes">
            <path fill="none" stroke-width="3.0" stroke-linecap="butt" stroke-opacity="1.0" stroke="rgb(0, 0, 0)" stroke-linejoin="round" d=" M 298.667, 636.444 298.667, 636.444 298.667, 646.444 298.667, 656.444 298.667, 666.444 298.667, 676.444 298.667, 686.444 298.667, 696.444 298.667, 706.444 298.667, 707.556 298.667, 707.556 308.667, 707.556 318.667, 707.556 328.667, 707.556 338.667, 707.556 348.667, 707.556 358.667, 707.556 368.667, 707.556 378.667, 707.556 388.667, 707.556 398.667, 707.556 408.667, 707.556 418.667, 707.556 428.667, 707.556 438.667, 707.556 448.667, 707.556 458.667, 707.556 468.667, 707.556 478.667, 707.556 488.667, 707.556 498.667, 707.556 508.667, 707.556 518.667, 707.556 528.667, 707.556 538.667, 707.556 548.667, 707.556 558.667, 707.556 568.667, 707.556 578.667, 707.556 588.667, 707.556 598.667, 707.556 608.667, 707.556 618.667, 707.556 628.667, 707.556 638.667, 707.556 648.667, 707.556 658.667, 707.556 668.667, 707.556 678.667, 707.556 688.667, 707.556 698.667, 707.556 708.667, 707.556 718.667, 707.556 725.333, 707.556 725.333, 707.556 725.333, 697.556 725.333, 687.556 725.333, 677.556 725.333, 667.556 725.333, 657.556 725.333, 647.556 725.333, 637.556 725.333, 636.444 715.333, 636.444 705.333, 636.444 695.333, 636.444 685.333, 636.444 675.333, 636.444 665.333, 636.444 655.333, 636.444 645.333, 636.444 635.333, 636.444 625.333, 636.444 615.333, 636.444 605.333, 636.444 595.333, 636.444 585.333, 636.444 575.333, 636.444 565.333, 636.444 555.333, 636.444 545.333, 636.444 535.333, 636.444 525.333, 636.444 515.333, 636.444 505.333, 636.444 495.333, 636.444 485.333, 636.444 475.333, 636.444 465.333, 636.444 455.333, 636.444 445.333, 636.444 435.333, 636.444 425.333, 636.444 415.333, 636.444 405.333, 636.444 395.333, 636.444 385.333, 636.444 375.333, 636.444 365.333, 636.444 355.333, 636.444 345.333, 636.444 335.333, 636.444 325.333, 636.444 315.333, 636.444 305.333, 636.444 298.667, 636.444 " />
            <path fill="none" stroke-width="3.0" stroke-linecap="butt" stroke-opacity="1.0" stroke="rgb(0, 0, 0)" stroke-linejoin="round" d=" M 298.667, 707.556 308.667, 707.556 318.667, 707.556 328.667, 707.556 338.667, 707.556 348.667, 707.556 358.667, 707.556 368.667, 707.556 378.667, 707.556 388.667, 707.556 398.667, 707.556 408.667, 707.556 418.667, 707.556 428.667, 707.556 438.667, 707.556 448.667, 707.556 458.667, 707.556 468.667, 707.556 478.667, 707.556 488.667, 707.556 498.667, 707.556 508.667, 707.556 518.667, 707.556 528.667, 707.556 538.667, 707.556 548.667, 707.556 558.667, 707.556 568.667, 707.556 578.667, 707.556 588.667, 707.556 598.667, 707.556 608.667, 707.556 618.667, 707.556 628.667, 707.556 638.667, 707.556 648.667, 707.556 658.667, 707.556 668.667, 707.556 678.667, 707.556 688.667, 707.556 698.667, 707.556 708.667, 707.556 718.667, 707.556 725.333, 707.556 " />
            <path fill="none" stroke-width="3.0" stroke-linecap="butt" stroke-opacity="1.0" stroke="rgb(0, 0, 0)" stroke-linejoin="round" d=" M 725.333, 600.889 725.333, 590.889 725.333, 580.889 725.333, 570.889 725.333, 560.889 725.333, 550.889 725.333, 540.889 725.333, 530.889 725.333, 529.778 725.333, 529.778 725.333, 519.778 725.333, 509.778 725.333, 499.778 725.333, 489.778 725.333, 479.778 725.333, 469.778 725.333, 459.778 725.333, 449.778 725.333, 439.778 725.333, 429.778 725.333, 419.778 725.333, 409.778 725.333, 399.778 725.333, 389.778 725.333, 379.778 725.333, 369.778 725.333, 359.778 725.333, 349.778 725.333, 339.778 725.333, 329.778 725.333, 319.778 725.333, 316.444 715.333, 316.444 705.333, 316.444 695.333, 316.444 685.333, 316.444 675.333, 316.444 665.333, 316.444 655.333, 316.444 645.333, 316.444 635.333, 316.444 625.333, 316.444 615.333, 316.444 605.333, 316.444 595.333, 316.444 585.333, 316.444 575.333, 316.444 565.333, 316.444 555.333, 316.444 545.333, 316.444 535.333, 316.444 525.333, 316.444 515.333, 316.444 505.333, 316.444 495.333, 316.444 485.333, 316.444 475.333, 316.444 465.333, 316.444 455.333, 316.444 445.333, 316.444 435.333, 316.444 425.333, 316.444 415.333, 316.444 405.333, 316.444 395.333, 316.444 385.333, 316.444 375.333, 316.444 365.333, 316.444 355.333, 316.444 345.333, 316.444 335.333, 316.444 325.333, 316.444 315.333, 316.444 305.333, 316.444 298.667, 316.444 " />
            <path fill="none" stroke-width="3.0" stroke-linecap="butt" stroke-opacity="1.0" stroke="rgb(0, 0, 0)" stroke-linejoin="round" d=" M 298.667, 316.444 298.667, 326.444 298.667, 336.444 298.667, 346.444 298.667, 356.444 298.667, 366.444 298.667, 376.444 298.667, 386.444 298.667, 396.444 298.667, 406.444 298.667, 416.444 298.667, 426.444 298.667, 436.444 298.667, 446.444 298.667, 456.444 298.667, 466.444 298.667, 476.444 298.667, 486.444 298.667, 496.444 298.667, 506.444 298.667, 516.444 298.667, 526.444 298.667, 529.778 298.667, 529.778 298.667, 539.778 298.667, 549.778 298.667, 559.778 298.667, 569.778 298.667, 579.778 298.667, 589.778 298.667, 599.778 298.667, 600.889 298.667, 600.889 " />
            <path fill="none" stroke-width="3.0" stroke-linecap="butt" stroke-opacity="1.0" stroke="rgb(0, 0, 0)" stroke-linejoin="round" d=" M 298.667, 529.778 288.667, 529.778 278.667, 529.778 268.667, 529.778 258.667, 529.778 248.667, 529.778 238.667, 529.778 228.667, 529.778 227.556, 529.778 227.556, 539.778 227.556, 549.778 227.556, 559.778 227.556, 569.778 227.556, 579.778 227.556, 589.778 227.556, 599.778 227.556, 600.889 227.556, 600.889 237.556, 600.889 247.556, 600.889 257.556, 600.889 267.556, 600.889 277.556, 600.889 287.556, 600.889 297.556, 600.889 298.667, 600.889 298.667, 600.889 " />
            <path fill="none" stroke-width="3.0" stroke-linecap="butt" stroke-opacity="1.0" stroke="rgb(0, 0, 0)" stroke-linejoin="round" d=" M 227.556, 600.889 237.556, 600.889 247.556, 600.889 257.556, 600.889 267.556, 600.889 277.556, 600.889 287.556, 600.889 297.556, 600.889 298.667, 600.889 " />
            <path fill="none" stroke-width="3.0" stroke-linecap="butt" stroke-opacity="1.0" stroke="rgb(0, 0, 0)" stroke-linejoin="round" d=" M 725.333, 600.889 725.333, 600.889 735.333, 600.889 745.333, 600.889 755.333, 600.889 765.333, 600.889 775.333, 600.889 785.333, 600.889 795.333, 600.889 796.444, 600.889 796.444, 600.889 796.444, 590.889 796.444, 580.889 796.444, 570.889 796.444, 560.889 796.444, 550.889 796.444, 540.889 796.444, 530.889 796.444, 529.778 796.444, 529.778 786.444, 529.778 776.444, 529.778 766.444, 529.778 756.444, 529.778 746.444, 529.778 736.444, 529.778 726.444, 529.778 725.333, 529.778 " />
            <path fill="none" stroke-width="3.0" stroke-linecap="butt" stroke-opacity="1.0" stroke="rgb(0, 0, 0)" stroke-linejoin="round" d=" M 298.667, 600.889 298.667, 600.889 " />
            <path fill="none" stroke-width="3.0" stroke-linecap="butt" stroke-opacity="1.0" stroke="rgb(0, 0, 0)" stroke-linejoin="round" d=" M 725.333, 600.889 725.333, 600.889 " />
            <path fill="none" stroke-width="3.0" stroke-linecap="butt" stroke-opacity="1.0" stroke="rgb(0, 0, 0)" stroke-linejoin="round" d=" M 725.333, 600.889 725.333, 600.889 " />
            <path fill="none" stroke-width="3.0" stroke-linecap="butt" stroke-opacity="1.0" stroke="rgb(0, 0, 0)" stroke-linejoin="round" d=" M 298.667, 600.889 308.667, 600.889 318.667, 600.889 328.667, 600.889 338.667, 600.889 348.667, 600.889 358.667, 600.889 368.667, 600.889 378.667, 600.889 388.667, 600.889 398.667, 600.889 408.667, 600.889 418.667, 600.889 428.667, 600.889 438.667, 600.889 448.667, 600.889 458.667, 600.889 468.667, 600.889 478.667, 600.889 488.667, 600.889 498.667, 600.889 508.667, 600.889 518.667, 600.889 528.667, 600.889 538.667, 600.889 548.667, 600.889 558.667, 600.889 568.667, 600.889 578.667, 600.889 588.667, 600.889 598.667, 600.889 608.667, 600.889 618.667, 600.889 628.667, 600.889 638.667, 600.889 648.667, 600.889 658.667, 600.889 668.667, 600.889 678.667, 600.889 688.667, 600.889 698.667, 600.889 708.667, 600.889 718.667, 600.889 725.333, 600.889 " />
            <path fill="none" stroke-width="3.0" stroke-linecap="butt" stroke-opacity="1.0" stroke="rgb(0, 0, 0)" stroke-linejoin="round" d=" M 725.333, 600.889 735.333, 600.889 745.333, 600.889 755.333, 600.889 765.333, 600.889 775.333, 600.889 785.333, 600.889 795.333, 600.889 796.444, 600.889 " />
        </g>
    </g>
    <g id="ViewLayer_TechnicalLines.001" inkscape:groupmode="lineset" inkscape:label="ViewLayer_TechnicalLines.001">
        <g inkscape:groupmode="layer" id="strokes" inkscape:label="strokes">
            <path fill="none" stroke-width="1.5" stroke-linecap="round" stroke-opacity="1.0" stroke="rgb(0, 0, 0)" stroke-linejoin="round" d=" M 298.667, 636.444 298.667, 636.444 298.667, 646.444 298.667, 656.444 298.667, 666.444 298.667, 676.444 298.667, 686.444 298.667, 696.444 298.667, 706.444 298.667, 707.556 298.667, 707.556 308.667, 707.556 318.667, 707.556 328.667, 707.556 338.667, 707.556 348.667, 707.556 358.667, 707.556 368.667, 707.556 378.667, 707.556 388.667, 707.556 398.667, 707.556 408.667, 707.556 418.667, 707.556 428.667, 707.556 438.667, 707.556 448.667, 707.556 458.667, 707.556 468.667, 707.556 478.667, 707.556 488.667, 707.556 498.667, 707.556 508.667, 707.556 518.667, 707.556 528.667, 707.556 538.667, 707.556 548.667, 707.556 558.667, 707.556 568.667, 707.556 578.667, 707.556 588.667, 707.556 598.667, 707.556 608.667, 707.556 618.667, 707.556 628.667, 707.556 638.667, 707.556 648.667, 707.556 658.667, 707.556 668.667, 707.556 678.667, 707.556 688.667, 707.556 698.667, 707.556 708.667, 707.556 718.667, 707.556 725.333, 707.556 725.333, 707.556 725.333, 697.556 725.333, 687.556 725.333, 677.556 725.333, 667.556 725.333, 657.556 725.333, 647.556 725.333, 637.556 725.333, 636.444 715.333, 636.444 705.333, 636.444 695.333, 636.444 685.333, 636.444 675.333, 636.444 665.333, 636.444 655.333, 636.444 645.333, 636.444 635.333, 636.444 625.333, 636.444 615.333, 636.444 605.333, 636.444 595.333, 636.444 585.333, 636.444 575.333, 636.444 565.333, 636.444 555.333, 636.444 545.333, 636.444 535.333, 636.444 525.333, 636.444 515.333, 636.444 505.333, 636.444 495.333, 636.444 485.333, 636.444 475.333, 636.444 465.333, 636.444 455.333, 636.444 445.333, 636.444 435.333, 636.444 425.333, 636.444 415.333, 636.444 405.333, 636.444 395.333, 636.444 385.333, 636.444 375.333, 636.444 365.333, 636.444 355.333, 636.444 345.333, 636.444 335.333, 636.444 325.333, 636.444 315.333, 636.444 305.333, 636.444 298.667, 636.444 " />
            <path fill="none" stroke-width="1.5" stroke-linecap="round" stroke-opacity="1.0" stroke="rgb(0, 0, 0)" stroke-linejoin="round" d=" M 298.667, 707.556 308.667, 707.556 318.667, 707.556 328.667, 707.556 338.667, 707.556 348.667, 707.556 358.667, 707.556 368.667, 707.556 378.667, 707.556 388.667, 707.556 398.667, 707.556 408.667, 707.556 418.667, 707.556 428.667, 707.556 438.667, 707.556 448.667, 707.556 458.667, 707.556 468.667, 707.556 478.667, 707.556 488.667, 707.556 498.667, 707.556 508.667, 707.556 518.667, 707.556 528.667, 707.556 538.667, 707.556 548.667, 707.556 558.667, 707.556 568.667, 707.556 578.667, 707.556 588.667, 707.556 598.667, 707.556 608.667, 707.556 618.667, 707.556 628.667, 707.556 638.667, 707.556 648.667, 707.556 658.667, 707.556 668.667, 707.556 678.667, 707.556 688.667, 707.556 698.667, 707.556 708.667, 707.556 718.667, 707.556 725.333, 707.556 " />
            <path fill="none" stroke-width="1.5" stroke-linecap="round" stroke-opacity="1.0" stroke="rgb(0, 0, 0)" stroke-linejoin="round" d=" M 725.333, 600.889 725.333, 590.889 725.333, 580.889 725.333, 570.889 725.333, 560.889 725.333, 550.889 725.333, 540.889 725.333, 530.889 725.333, 529.778 725.333, 529.778 725.333, 519.778 725.333, 509.778 725.333, 499.778 725.333, 489.778 725.333, 479.778 725.333, 469.778 725.333, 459.778 725.333, 449.778 725.333, 439.778 725.333, 429.778 725.333, 419.778 725.333, 409.778 725.333, 399.778 725.333, 389.778 725.333, 379.778 725.333, 369.778 725.333, 359.778 725.333, 349.778 725.333, 339.778 725.333, 329.778 725.333, 319.778 725.333, 316.444 715.333, 316.444 705.333, 316.444 695.333, 316.444 685.333, 316.444 675.333, 316.444 665.333, 316.444 655.333, 316.444 645.333, 316.444 635.333, 316.444 625.333, 316.444 615.333, 316.444 605.333, 316.444 595.333, 316.444 585.333, 316.444 575.333, 316.444 565.333, 316.444 555.333, 316.444 545.333, 316.444 535.333, 316.444 525.333, 316.444 515.333, 316.444 505.333, 316.444 495.333, 316.444 485.333, 316.444 475.333, 316.444 465.333, 316.444 455.333, 316.444 445.333, 316.444 435.333, 316.444 425.333, 316.444 415.333, 316.444 405.333, 316.444 395.333, 316.444 385.333, 316.444 375.333, 316.444 365.333, 316.444 355.333, 316.444 345.333, 316.444 335.333, 316.444 325.333, 316.444 315.333, 316.444 305.333, 316.444 298.667, 316.444 " />
            <path fill="none" stroke-width="1.5" stroke-linecap="round" stroke-opacity="1.0" stroke="rgb(0, 0, 0)" stroke-linejoin="round" d=" M 298.667, 316.444 298.667, 326.444 298.667, 336.444 298.667, 346.444 298.667, 356.444 298.667, 366.444 298.667, 376.444 298.667, 386.444 298.667, 396.444 298.667, 406.444 298.667, 416.444 298.667, 426.444 298.667, 436.444 298.667, 446.444 298.667, 456.444 298.667, 466.444 298.667, 476.444 298.667, 486.444 298.667, 496.444 298.667, 506.444 298.667, 516.444 298.667, 526.444 298.667, 529.778 298.667, 529.778 298.667, 539.778 298.667, 549.778 298.667, 559.778 298.667, 569.778 298.667, 579.778 298.667, 589.778 298.667, 599.778 298.667, 600.889 298.667, 600.889 " />
            <path fill="none" stroke-width="1.5" stroke-linecap="round" stroke-opacity="1.0" stroke="rgb(0, 0, 0)" stroke-linejoin="round" d=" M 298.667, 529.778 288.667, 529.778 278.667, 529.778 268.667, 529.778 258.667, 529.778 248.667, 529.778 238.667, 529.778 228.667, 529.778 227.556, 529.778 227.556, 539.778 227.556, 549.778 227.556, 559.778 227.556, 569.778 227.556, 579.778 227.556, 589.778 227.556, 599.778 227.556, 600.889 227.556, 600.889 237.556, 600.889 247.556, 600.889 257.556, 600.889 267.556, 600.889 277.556, 600.889 287.556, 600.889 297.556, 600.889 298.667, 600.889 298.667, 600.889 " />
            <path fill="none" stroke-width="1.5" stroke-linecap="round" stroke-opacity="1.0" stroke="rgb(0, 0, 0)" stroke-linejoin="round" d=" M 227.556, 600.889 237.556, 600.889 247.556, 600.889 257.556, 600.889 267.556, 600.889 277.556, 600.889 287.556, 600.889 297.556, 600.889 298.667, 600.889 " />
            <path fill="none" stroke-width="1.5" stroke-linecap="round" stroke-opacity="1.0" stroke="rgb(0, 0, 0)" stroke-linejoin="round" d=" M 725.333, 600.889 725.333, 600.889 735.333, 600.889 745.333, 600.889 755.333, 600.889 765.333, 600.889 775.333, 600.889 785.333, 600.889 795.333, 600.889 796.444, 600.889 796.444, 600.889 796.444, 590.889 796.444, 580.889 796.444, 570.889 796.444, 560.889 796.444, 550.889 796.444, 540.889 796.444, 530.889 796.444, 529.778 796.444, 529.778 786.444, 529.778 776.444, 529.778 766.444, 529.778 756.444, 529.778 746.444, 529.778 736.444, 529.778 726.444, 529.778 725.333, 529.778 " />
            <path fill="none" stroke-width="1.5" stroke-linecap="round" stroke-opacity="1.0" stroke="rgb(0, 0, 0)" stroke-linejoin="round" d=" M 298.667, 600.889 298.667, 600.889 " />
            <path fill="none" stroke-width="1.5" stroke-linecap="round" stroke-opacity="1.0" stroke="rgb(0, 0, 0)" stroke-linejoin="round" d=" M 725.333, 600.889 725.333, 600.889 " />
            <path fill="none" stroke-width="1.5" stroke-linecap="round" stroke-opacity="1.0" stroke="rgb(0, 0, 0)" stroke-linejoin="round" d=" M 725.333, 600.889 725.333, 600.889 " />
            <path fill="none" stroke-width="1.5" stroke-linecap="round" stroke-opacity="1.0" stroke="rgb(0, 0, 0)" stroke-linejoin="round" d=" M 298.667, 600.889 308.667, 600.889 318.667, 600.889 328.667, 600.889 338.667, 600.889 348.667, 600.889 358.667, 600.889 368.667, 600.889 378.667, 600.889 388.667, 600.889 398.667, 600.889 408.667, 600.889 418.667, 600.889 428.667, 600.889 438.667, 600.889 448.667, 600.889 458.667, 600.889 468.667, 600.889 478.667, 600.889 488.667, 600.889 498.667, 600.889 508.667, 600.889 518.667, 600.889 528.667, 600.889 538.667, 600.889 548.667, 600.889 558.667, 600.889 568.667, 600.889 578.667, 600.889 588.667, 600.889 598.667, 600.889 608.667, 600.889 618.667, 600.889 628.667, 600.889 638.667, 600.889 648.667, 600.889 658.667, 600.889 668.667, 600.889 678.667, 600.889 688.667, 600.889 698.667, 600.889 708.667, 600.889 718.667, 600.889 725.333, 600.889 " />
            <path fill="none" stroke-width="1.5" stroke-linecap="round" stroke-opacity="1.0" stroke="rgb(0, 0, 0)" stroke-linejoin="round" d=" M 725.333, 600.889 735.333, 600.889 745.333, 600.889 755.333, 600.889 765.333, 600.889 775.333, 600.889 785.333, 600.889 795.333, 600.889 796.444, 600.889 " />
        </g>
    </g>
    <g id="ViewLayer_TechnicalLines.002" inkscape:groupmode="lineset" inkscape:label="ViewLayer_TechnicalLines.002">
        <g inkscape:groupmode="layer" id="strokes" inkscape:label="strokes">
            <path fill="none" stroke-width="1.5" stroke-linecap="round" stroke-opacity="1.0" stroke="rgb(0, 0, 0)" stroke-linejoin="round" d=" M 298.667, 636.444 298.667, 636.444 298.667, 646.444 298.667, 656.444 298.667, 666.444 298.667, 676.444 298.667, 686.444 298.667, 696.444 298.667, 706.444 298.667, 707.556 298.667, 707.556 308.667, 707.556 318.667, 707.556 328.667, 707.556 338.667, 707.556 348.667, 707.556 358.667, 707.556 368.667, 707.556 378.667, 707.556 388.667, 707.556 398.667, 707.556 408.667, 707.556 418.667, 707.556 428.667, 707.556 438.667, 707.556 448.667, 707.556 458.667, 707.556 468.667, 707.556 478.667, 707.556 488.667, 707.556 498.667, 707.556 508.667, 707.556 518.667, 707.556 528.667, 707.556 538.667, 707.556 548.667, 707.556 558.667, 707.556 568.667, 707.556 578.667, 707.556 588.667, 707.556 598.667, 707.556 608.667, 707.556 618.667, 707.556 628.667, 707.556 638.667, 707.556 648.667, 707.556 658.667, 707.556 668.667, 707.556 678.667, 707.556 688.667, 707.556 698.667, 707.556 708.667, 707.556 718.667, 707.556 725.333, 707.556 725.333, 707.556 725.333, 697.556 725.333, 687.556 725.333, 677.556 725.333, 667.556 725.333, 657.556 725.333, 647.556 725.333, 637.556 725.333, 636.444 715.333, 636.444 705.333, 636.444 695.333, 636.444 685.333, 636.444 675.333, 636.444 665.333, 636.444 655.333, 636.444 645.333, 636.444 635.333, 636.444 625.333, 636.444 615.333, 636.444 605.333, 636.444 595.333, 636.444 585.333, 636.444 575.333, 636.444 565.333, 636.444 555.333, 636.444 545.333, 636.444 535.333, 636.444 525.333, 636.444 515.333, 636.444 505.333, 636.444 495.333, 636.444 485.333, 636.444 475.333, 636.444 465.333, 636.444 455.333, 636.444 445.333, 636.444 435.333, 636.444 425.333, 636.444 415.333, 636.444 405.333, 636.444 395.333, 636.444 385.333, 636.444 375.333, 636.444 365.333, 636.444 355.333, 636.444 345.333, 636.444 335.333, 636.444 325.333, 636.444 315.333, 636.444 305.333, 636.444 298.667, 636.444 " />
            <path fill="none" stroke-width="1.5" stroke-linecap="round" stroke-opacity="1.0" stroke="rgb(0, 0, 0)" stroke-linejoin="round" d=" M 298.667, 707.556 308.667, 707.556 318.667, 707.556 328.667, 707.556 338.667, 707.556 348.667, 707.556 358.667, 707.556 368.667, 707.556 378.667, 707.556 388.667, 707.556 398.667, 707.556 408.667, 707.556 418.667, 707.556 428.667, 707.556 438.667, 707.556 448.667, 707.556 458.667, 707.556 468.667, 707.556 478.667, 707.556 488.667, 707.556 498.667, 707.556 508.667, 707.556 518.667, 707.556 528.667, 707.556 538.667, 707.556 548.667, 707.556 558.667, 707.556 568.667, 707.556 578.667, 707.556 588.667, 707.556 598.667, 707.556 608.667, 707.556 618.667, 707.556 628.667, 707.556 638.667, 707.556 648.667, 707.556 658.667, 707.556 668.667, 707.556 678.667, 707.556 688.667, 707.556 698.667, 707.556 708.667, 707.556 718.667, 707.556 725.333, 707.556 " />
            <path fill="none" stroke-width="1.5" stroke-linecap="round" stroke-opacity="1.0" stroke="rgb(0, 0, 0)" stroke-linejoin="round" d=" M 725.333, 600.889 725.333, 590.889 725.333, 580.889 725.333, 570.889 725.333, 560.889 725.333, 550.889 725.333, 540.889 725.333, 530.889 725.333, 529.778 725.333, 529.778 725.333, 519.778 725.333, 509.778 725.333, 499.778 725.333, 489.778 725.333, 479.778 725.333, 469.778 725.333, 459.778 725.333, 449.778 725.333, 439.778 725.333, 429.778 725.333, 419.778 725.333, 409.778 725.333, 399.778 725.333, 389.778 725.333, 379.778 725.333, 369.778 725.333, 359.778 725.333, 349.778 725.333, 339.778 725.333, 329.778 725.333, 319.778 725.333, 316.444 715.333, 316.444 705.333, 316.444 695.333, 316.444 685.333, 316.444 675.333, 316.444 665.333, 316.444 655.333, 316.444 645.333, 316.444 635.333, 316.444 625.333, 316.444 615.333, 316.444 605.333, 316.444 595.333, 316.444 585.333, 316.444 575.333, 316.444 565.333, 316.444 555.333, 316.444 545.333, 316.444 535.333, 316.444 525.333, 316.444 515.333, 316.444 505.333, 316.444 495.333, 316.444 485.333, 316.444 475.333, 316.444 465.333, 316.444 455.333, 316.444 445.333, 316.444 435.333, 316.444 425.333, 316.444 415.333, 316.444 405.333, 316.444 395.333, 316.444 385.333, 316.444 375.333, 316.444 365.333, 316.444 355.333, 316.444 345.333, 316.444 335.333, 316.444 325.333, 316.444 315.333, 316.444 305.333, 316.444 298.667, 316.444 " />
            <path fill="none" stroke-width="1.5" stroke-linecap="round" stroke-opacity="1.0" stroke="rgb(0, 0, 0)" stroke-linejoin="round" d=" M 298.667, 316.444 298.667, 326.444 298.667, 336.444 298.667, 346.444 298.667, 356.444 298.667, 366.444 298.667, 376.444 298.667, 386.444 298.667, 396.444 298.667, 406.444 298.667, 416.444 298.667, 426.444 298.667, 436.444 298.667, 446.444 298.667, 456.444 298.667, 466.444 298.667, 476.444 298.667, 486.444 298.667, 496.444 298.667, 506.444 298.667, 516.444 298.667, 526.444 298.667, 529.778 298.667, 529.778 298.667, 539.778 298.667, 549.778 298.667, 559.778 298.667, 569.778 298.667, 579.778 298.667, 589.778 298.667, 599.778 298.667, 600.889 298.667, 600.889 " />
            <path fill="none" stroke-width="1.5" stroke-linecap="round" stroke-opacity="1.0" stroke="rgb(0, 0, 0)" stroke-linejoin="round" d=" M 298.667, 529.778 288.667, 529.778 278.667, 529.778 268.667, 529.778 258.667, 529.778 248.667, 529.778 238.667, 529.778 228.667, 529.778 227.556, 529.778 227.556, 539.778 227.556, 549.778 227.556, 559.778 227.556, 569.778 227.556, 579.778 227.556, 589.778 227.556, 599.778 227.556, 600.889 227.556, 600.889 237.556, 600.889 247.556, 600.889 257.556, 600.889 267.556, 600.889 277.556, 600.889 287.556, 600.889 297.556, 600.889 298.667, 600.889 298.667, 600.889 " />
            <path fill="none" stroke-width="1.5" stroke-linecap="round" stroke-opacity="1.0" stroke="rgb(0, 0, 0)" stroke-linejoin="round" d=" M 227.556, 600.889 237.556, 600.889 247.556, 600.889 257.556, 600.889 267.556, 600.889 277.556, 600.889 287.556, 600.889 297.556, 600.889 298.667, 600.889 " />
            <path fill="none" stroke-width="1.5" stroke-linecap="round" stroke-opacity="1.0" stroke="rgb(0, 0, 0)" stroke-linejoin="round" d=" M 725.333, 600.889 725.333, 600.889 735.333, 600.889 745.333, 600.889 755.333, 600.889 765.333, 600.889 775.333, 600.889 785.333, 600.889 795.333, 600.889 796.444, 600.889 796.444, 600.889 796.444, 590.889 796.444, 580.889 796.444, 570.889 796.444, 560.889 796.444, 550.889 796.444, 540.889 796.444, 530.889 796.444, 529.778 796.444, 529.778 786.444, 529.778 776.444, 529.778 766.444, 529.778 756.444, 529.778 746.444, 529.778 736.444, 529.778 726.444, 529.778 725.333, 529.778 " />
            <path fill="none" stroke-width="1.5" stroke-linecap="round" stroke-opacity="1.0" stroke="rgb(0, 0, 0)" stroke-linejoin="round" d=" M 298.667, 600.889 298.667, 600.889 " />
            <path fill="none" stroke-width="1.5" stroke-linecap="round" stroke-opacity="1.0" stroke="rgb(0, 0, 0)" stroke-linejoin="round" d=" M 725.333, 600.889 725.333, 600.889 " />
            <path fill="none" stroke-width="1.5" stroke-linecap="round" stroke-opacity="1.0" stroke="rgb(0, 0, 0)" stroke-linejoin="round" d=" M 725.333, 600.889 725.333, 600.889 " />
            <path fill="none" stroke-width="1.5" stroke-linecap="round" stroke-opacity="1.0" stroke="rgb(0, 0, 0)" stroke-linejoin="round" d=" M 298.667, 600.889 308.667, 600.889 318.667, 600.889 328.667, 600.889 338.667, 600.889 348.667, 600.889 358.667, 600.889 368.667, 600.889 378.667, 600.889 388.667, 600.889 398.667, 600.889 408.667, 600.889 418.667, 600.889 428.667, 600.889 438.667, 600.889 448.667, 600.889 458.667, 600.889 468.667, 600.889 478.667, 600.889 488.667, 600.889 498.667, 600.889 508.667, 600.889 518.667, 600.889 528.667, 600.889 538.667, 600.889 548.667, 600.889 558.667, 600.889 568.667, 600.889 578.667, 600.889 588.667, 600.889 598.667, 600.889 608.667, 600.889 618.667, 600.889 628.667, 600.889 638.667, 600.889 648.667, 600.889 658.667, 600.889 668.667, 600.889 678.667, 600.889 688.667, 600.889 698.667, 600.889 708.667, 600.889 718.667, 600.889 725.333, 600.889 " />
            <path fill="none" stroke-width="1.5" stroke-linecap="round" stroke-opacity="1.0" stroke="rgb(0, 0, 0)" stroke-linejoin="round" d=" M 725.333, 600.889 735.333, 600.889 745.333, 600.889 755.333, 600.889 765.333, 600.889 775.333, 600.889 785.333, 600.889 795.333, 600.889 796.444, 600.889 " />
        </g>
    </g>
    <g id="ViewLayer_TechnicalLines.003" inkscape:groupmode="lineset" inkscape:label="ViewLayer_TechnicalLines.003">
        <g inkscape:groupmode="layer" id="strokes" inkscape:label="strokes">
            <path fill="none" stroke-width="1.5" stroke-linecap="round" stroke-opacity="1.0" stroke="rgb(0, 0, 0)" stroke-linejoin="round" d=" M 298.667, 636.444 298.667, 636.444 298.667, 646.444 298.667, 656.444 298.667, 666.444 298.667, 676.444 298.667, 686.444 298.667, 696.444 298.667, 706.444 298.667, 707.556 298.667, 707.556 308.667, 707.556 318.667, 707.556 328.667, 707.556 338.667, 707.556 348.667, 707.556 358.667, 707.556 368.667, 707.556 378.667, 707.556 388.667, 707.556 398.667, 707.556 408.667, 707.556 418.667, 707.556 428.667, 707.556 438.667, 707.556 448.667, 707.556 458.667, 707.556 468.667, 707.556 478.667, 707.556 488.667, 707.556 498.667, 707.556 508.667, 707.556 518.667, 707.556 528.667, 707.556 538.667, 707.556 548.667, 707.556 558.667, 707.556 568.667, 707.556 578.667, 707.556 588.667, 707.556 598.667, 707.556 608.667, 707.556 618.667, 707.556 628.667, 707.556 638.667, 707.556 648.667, 707.556 658.667, 707.556 668.667, 707.556 678.667, 707.556 688.667, 707.556 698.667, 707.556 708.667, 707.556 718.667, 707.556 725.333, 707.556 725.333, 707.556 725.333, 697.556 725.333, 687.556 725.333, 677.556 725.333, 667.556 725.333, 657.556 725.333, 647.556 725.333, 637.556 725.333, 636.444 715.333, 636.444 705.333, 636.444 695.333, 636.444 685.333, 636.444 675.333, 636.444 665.333, 636.444 655.333, 636.444 645.333, 636.444 635.333, 636.444 625.333, 636.444 615.333, 636.444 605.333, 636.444 595.333, 636.444 585.333, 636.444 575.333, 636.444 565.333, 636.444 555.333, 636.444 545.333, 636.444 535.333, 636.444 525.333, 636.444 515.333, 636.444 505.333, 636.444 495.333, 636.444 485.333, 636.444 475.333, 636.444 465.333, 636.444 455.333, 636.444 445.333, 636.444 435.333, 636.444 425.333, 636.444 415.333, 636.444 405.333, 636.444 395.333, 636.444 385.333, 636.444 375.333, 636.444 365.333, 636.444 355.333, 636.444 345.333, 636.444 335.333, 636.444 325.333, 636.444 315.333, 636.444 305.333, 636.444 298.667, 636.444 " />
            <path fill="none" stroke-width="1.5" stroke-linecap="round" stroke-opacity="1.0" stroke="rgb(0, 0, 0)" stroke-linejoin="round" d=" M 298.667, 707.556 308.667, 707.556 318.667, 707.556 328.667, 707.556 338.667, 707.556 348.667, 707.556 358.667, 707.556 368.667, 707.556 378.667, 707.556 388.667, 707.556 398.667, 707.556 408.667, 707.556 418.667, 707.556 428.667, 707.556 438.667, 707.556 448.667, 707.556 458.667, 707.556 468.667, 707.556 478.667, 707.556 488.667, 707.556 498.667, 707.556 508.667, 707.556 518.667, 707.556 528.667, 707.556 538.667, 707.556 548.667, 707.556 558.667, 707.556 568.667, 707.556 578.667, 707.556 588.667, 707.556 598.667, 707.556 608.667, 707.556 618.667, 707.556 628.667, 707.556 638.667, 707.556 648.667, 707.556 658.667, 707.556 668.667, 707.556 678.667, 707.556 688.667, 707.556 698.667, 707.556 708.667, 707.556 718.667, 707.556 725.333, 707.556 " />
            <path fill="none" stroke-width="1.5" stroke-linecap="round" stroke-opacity="1.0" stroke="rgb(0, 0, 0)" stroke-linejoin="round" d=" M 725.333, 600.889 725.333, 590.889 725.333, 580.889 725.333, 570.889 725.333, 560.889 725.333, 550.889 725.333, 540.889 725.333, 530.889 725.333, 529.778 725.333, 529.778 725.333, 519.778 725.333, 509.778 725.333, 499.778 725.333, 489.778 725.333, 479.778 725.333, 469.778 725.333, 459.778 725.333, 449.778 725.333, 439.778 725.333, 429.778 725.333, 419.778 725.333, 409.778 725.333, 399.778 725.333, 389.778 725.333, 379.778 725.333, 369.778 725.333, 359.778 725.333, 349.778 725.333, 339.778 725.333, 329.778 725.333, 319.778 725.333, 316.444 715.333, 316.444 705.333, 316.444 695.333, 316.444 685.333, 316.444 675.333, 316.444 665.333, 316.444 655.333, 316.444 645.333, 316.444 635.333, 316.444 625.333, 316.444 615.333, 316.444 605.333, 316.444 595.333, 316.444 585.333, 316.444 575.333, 316.444 565.333, 316.444 555.333, 316.444 545.333, 316.444 535.333, 316.444 525.333, 316.444 515.333, 316.444 505.333, 316.444 495.333, 316.444 485.333, 316.444 475.333, 316.444 465.333, 316.444 455.333, 316.444 445.333, 316.444 435.333, 316.444 425.333, 316.444 415.333, 316.444 405.333, 316.444 395.333, 316.444 385.333, 316.444 375.333, 316.444 365.333, 316.444 355.333, 316.444 345.333, 316.444 335.333, 316.444 325.333, 316.444 315.333, 316.444 305.333, 316.444 298.667, 316.444 " />
            <path fill="none" stroke-width="1.5" stroke-linecap="round" stroke-opacity="1.0" stroke="rgb(0, 0, 0)" stroke-linejoin="round" d=" M 298.667, 316.444 298.667, 326.444 298.667, 336.444 298.667, 346.444 298.667, 356.444 298.667, 366.444 298.667, 376.444 298.667, 386.444 298.667, 396.444 298.667, 406.444 298.667, 416.444 298.667, 426.444 298.667, 436.444 298.667, 446.444 298.667, 456.444 298.667, 466.444 298.667, 476.444 298.667, 486.444 298.667, 496.444 298.667, 506.444 298.667, 516.444 298.667, 526.444 298.667, 529.778 298.667, 529.778 298.667, 539.778 298.667, 549.778 298.667, 559.778 298.667, 569.778 298.667, 579.778 298.667, 589.778 298.667, 599.778 298.667, 600.889 298.667, 600.889 " />
            <path fill="none" stroke-width="1.5" stroke-linecap="round" stroke-opacity="1.0" stroke="rgb(0, 0, 0)" stroke-linejoin="round" d=" M 298.667, 529.778 288.667, 529.778 278.667, 529.778 268.667, 529.778 258.667, 529.778 248.667, 529.778 238.667, 529.778 228.667, 529.778 227.556, 529.778 227.556, 539.778 227.556, 549.778 227.556, 559.778 227.556, 569.778 227.556, 579.778 227.556, 589.778 227.556, 599.778 227.556, 600.889 227.556, 600.889 237.556, 600.889 247.556, 600.889 257.556, 600.889 267.556, 600.889 277.556, 600.889 287.556, 600.889 297.556, 600.889 298.667, 600.889 298.667, 600.889 " />
            <path fill="none" stroke-width="1.5" stroke-linecap="round" stroke-opacity="1.0" stroke="rgb(0, 0, 0)" stroke-linejoin="round" d=" M 227.556, 600.889 237.556, 600.889 247.556, 600.889 257.556, 600.889 267.556, 600.889 277.556, 600.889 287.556, 600.889 297.556, 600.889 298.667, 600.889 " />
            <path fill="none" stroke-width="1.5" stroke-linecap="round" stroke-opacity="1.0" stroke="rgb(0, 0, 0)" stroke-linejoin="round" d=" M 725.333, 600.889 725.333, 600.889 735.333, 600.889 745.333, 600.889 755.333, 600.889 765.333, 600.889 775.333, 600.889 785.333, 600.889 795.333, 600.889 796.444, 600.889 796.444, 600.889 796.444, 590.889 796.444, 580.889 796.444, 570.889 796.444, 560.889 796.444, 550.889 796.444, 540.889 796.444, 530.889 796.444, 529.778 796.444, 529.778 786.444, 529.778 776.444, 529.778 766.444, 529.778 756.444, 529.778 746.444, 529.778 736.444, 529.778 726.444, 529.778 725.333, 529.778 " />
            <path fill="none" stroke-width="1.5" stroke-linecap="round" stroke-opacity="1.0" stroke="rgb(0, 0, 0)" stroke-linejoin="round" d=" M 298.667, 600.889 298.667, 600.889 " />
            <path fill="none" stroke-width="1.5" stroke-linecap="round" stroke-opacity="1.0" stroke="rgb(0, 0, 0)" stroke-linejoin="round" d=" M 725.333, 600.889 725.333, 600.889 " />
            <path fill="none" stroke-width="1.5" stroke-linecap="round" stroke-opacity="1.0" stroke="rgb(0, 0, 0)" stroke-linejoin="round" d=" M 725.333, 600.889 725.333, 600.889 " />
            <path fill="none" stroke-width="1.5" stroke-linecap="round" stroke-opacity="1.0" stroke="rgb(0, 0, 0)" stroke-linejoin="round" d=" M 298.667, 600.889 308.667, 600.889 318.667, 600.889 328.667, 600.889 338.667, 600.889 348.667, 600.889 358.667, 600.889 368.667, 600.889 378.667, 600.889 388.667, 600.889 398.667, 600.889 408.667, 600.889 418.667, 600.889 428.667, 600.889 438.667, 600.889 448.667, 600.889 458.667, 600.889 468.667, 600.889 478.667, 600.889 488.667, 600.889 498.667, 600.889 508.667, 600.889 518.667, 600.889 528.667, 600.889 538.667, 600.889 548.667, 600.889 558.667, 600.889 568.667, 600.889 578.667, 600.889 588.667, 600.889 598.667, 600.889 608.667, 600.889 618.667, 600.889 628.667, 600.889 638.667, 600.889 648.667, 600.889 658.667, 600.889 668.667, 600.889 678.667, 600.889 688.667, 600.889 698.667, 600.889 708.667, 600.889 718.667, 600.889 725.333, 600.889 " />
            <path fill="none" stroke-width="1.5" stroke-linecap="round" stroke-opacity="1.0" stroke="rgb(0, 0, 0)" stroke-linejoin="round" d=" M 725.333, 600.889 735.333, 600.889 745.333, 600.889 755.333, 600.889 765.333, 600.889 775.333, 600.889 785.333, 600.889 795.333, 600.889 796.444, 600.889 " />
        </g>
    </g>
    <g id="ViewLayer_TechnicalLines.004" xmlns:inkscape="http://www.inkscape.org/namespaces/inkscape" inkscape:groupmode="lineset" inkscape:label="ViewLayer_TechnicalLines.004">
        <g xmlns:inkscape="http://www.inkscape.org/namespaces/inkscape" inkscape:groupmode="layer" id="strokes" inkscape:label="strokes">
            <path fill="none" stroke-width="1.5" stroke-linecap="round" stroke-opacity="1.0" stroke="rgb(0, 0, 0)" stroke-linejoin="round" d=" M 298.667, 636.444 298.667, 636.444 298.667, 646.444 298.667, 656.444 298.667, 666.444 298.667, 676.444 298.667, 686.444 298.667, 696.444 298.667, 706.444 298.667, 707.556 298.667, 707.556 308.667, 707.556 318.667, 707.556 328.667, 707.556 338.667, 707.556 348.667, 707.556 358.667, 707.556 368.667, 707.556 378.667, 707.556 388.667, 707.556 398.667, 707.556 408.667, 707.556 418.667, 707.556 428.667, 707.556 438.667, 707.556 448.667, 707.556 458.667, 707.556 468.667, 707.556 478.667, 707.556 488.667, 707.556 498.667, 707.556 508.667, 707.556 518.667, 707.556 528.667, 707.556 538.667, 707.556 548.667, 707.556 558.667, 707.556 568.667, 707.556 578.667, 707.556 588.667, 707.556 598.667, 707.556 608.667, 707.556 618.667, 707.556 628.667, 707.556 638.667, 707.556 648.667, 707.556 658.667, 707.556 668.667, 707.556 678.667, 707.556 688.667, 707.556 698.667, 707.556 708.667, 707.556 718.667, 707.556 725.333, 707.556 725.333, 707.556 725.333, 697.556 725.333, 687.556 725.333, 677.556 725.333, 667.556 725.333, 657.556 725.333, 647.556 725.333, 637.556 725.333, 636.444 715.333, 636.444 705.333, 636.444 695.333, 636.444 685.333, 636.444 675.333, 636.444 665.333, 636.444 655.333, 636.444 645.333, 636.444 635.333, 636.444 625.333, 636.444 615.333, 636.444 605.333, 636.444 595.333, 636.444 585.333, 636.444 575.333, 636.444 565.333, 636.444 555.333, 636.444 545.333, 636.444 535.333, 636.444 525.333, 636.444 515.333, 636.444 505.333, 636.444 495.333, 636.444 485.333, 636.444 475.333, 636.444 465.333, 636.444 455.333, 636.444 445.333, 636.444 435.333, 636.444 425.333, 636.444 415.333, 636.444 405.333, 636.444 395.333, 636.444 385.333, 636.444 375.333, 636.444 365.333, 636.444 355.333, 636.444 345.333, 636.444 335.333, 636.444 325.333, 636.444 315.333, 636.444 305.333, 636.444 298.667, 636.444 " />
            <path fill="none" stroke-width="1.5" stroke-linecap="round" stroke-opacity="1.0" stroke="rgb(0, 0, 0)" stroke-linejoin="round" d=" M 298.667, 707.556 308.667, 707.556 318.667, 707.556 328.667, 707.556 338.667, 707.556 348.667, 707.556 358.667, 707.556 368.667, 707.556 378.667, 707.556 388.667, 707.556 398.667, 707.556 408.667, 707.556 418.667, 707.556 428.667, 707.556 438.667, 707.556 448.667, 707.556 458.667, 707.556 468.667, 707.556 478.667, 707.556 488.667, 707.556 498.667, 707.556 508.667, 707.556 518.667, 707.556 528.667, 707.556 538.667, 707.556 548.667, 707.556 558.667, 707.556 568.667, 707.556 578.667, 707.556 588.667, 707.556 598.667, 707.556 608.667, 707.556 618.667, 707.556 628.667, 707.556 638.667, 707.556 648.667, 707.556 658.667, 707.556 668.667, 707.556 678.667, 707.556 688.667, 707.556 698.667, 707.556 708.667, 707.556 718.667, 707.556 725.333, 707.556 " />
            <path fill="none" stroke-width="1.5" stroke-linecap="round" stroke-opacity="1.0" stroke="rgb(0, 0, 0)" stroke-linejoin="round" d=" M 725.333, 600.889 725.333, 590.889 725.333, 580.889 725.333, 570.889 725.333, 560.889 725.333, 550.889 725.333, 540.889 725.333, 530.889 725.333, 529.778 725.333, 529.778 725.333, 519.778 725.333, 509.778 725.333, 499.778 725.333, 489.778 725.333, 479.778 725.333, 469.778 725.333, 459.778 725.333, 449.778 725.333, 439.778 725.333, 429.778 725.333, 419.778 725.333, 409.778 725.333, 399.778 725.333, 389.778 725.333, 379.778 725.333, 369.778 725.333, 359.778 725.333, 349.778 725.333, 339.778 725.333, 329.778 725.333, 319.778 725.333, 316.444 715.333, 316.444 705.333, 316.444 695.333, 316.444 685.333, 316.444 675.333, 316.444 665.333, 316.444 655.333, 316.444 645.333, 316.444 635.333, 316.444 625.333, 316.444 615.333, 316.444 605.333, 316.444 595.333, 316.444 585.333, 316.444 575.333, 316.444 565.333, 316.444 555.333, 316.444 545.333, 316.444 535.333, 316.444 525.333, 316.444 515.333, 316.444 505.333, 316.444 495.333, 316.444 485.333, 316.444 475.333, 316.444 465.333, 316.444 455.333, 316.444 445.333, 316.444 435.333, 316.444 425.333, 316.444 415.333, 316.444 405.333, 316.444 395.333, 316.444 385.333, 316.444 375.333, 316.444 365.333, 316.444 355.333, 316.444 345.333, 316.444 335.333, 316.444 325.333, 316.444 315.333, 316.444 305.333, 316.444 298.667, 316.444 " />
            <path fill="none" stroke-width="1.5" stroke-linecap="round" stroke-opacity="1.0" stroke="rgb(0, 0, 0)" stroke-linejoin="round" d=" M 298.667, 316.444 298.667, 326.444 298.667, 336.444 298.667, 346.444 298.667, 356.444 298.667, 366.444 298.667, 376.444 298.667, 386.444 298.667, 396.444 298.667, 406.444 298.667, 416.444 298.667, 426.444 298.667, 436.444 298.667, 446.444 298.667, 456.444 298.667, 466.444 298.667, 476.444 298.667, 486.444 298.667, 496.444 298.667, 506.444 298.667, 516.444 298.667, 526.444 298.667, 529.778 298.667, 529.778 298.667, 539.778 298.667, 549.778 298.667, 559.778 298.667, 569.778 298.667, 579.778 298.667, 589.778 298.667, 599.778 298.667, 600.889 298.667, 600.889 " />
            <path fill="none" stroke-width="1.5" stroke-linecap="round" stroke-opacity="1.0" stroke="rgb(0, 0, 0)" stroke-linejoin="round" d=" M 298.667, 529.778 288.667, 529.778 278.667, 529.778 268.667, 529.778 258.667, 529.778 248.667, 529.778 238.667, 529.778 228.667, 529.778 227.556, 529.778 227.556, 539.778 227.556, 549.778 227.556, 559.778 227.556, 569.778 227.556, 579.778 227.556, 589.778 227.556, 599.778 227.556, 600.889 227.556, 600.889 237.556, 600.889 247.556, 600.889 257.556, 600.889 267.556, 600.889 277.556, 600.889 287.556, 600.889 297.556, 600.889 298.667, 600.889 298.667, 600.889 " />
            <path fill="none" stroke-width="1.5" stroke-linecap="round" stroke-opacity="1.0" stroke="rgb(0, 0, 0)" stroke-linejoin="round" d=" M 227.556, 600.889 237.556, 600.889 247.556, 600.889 257.556, 600.889 267.556, 600.889 277.556, 600.889 287.556, 600.889 297.556, 600.889 298.667, 600.889 " />
            <path fill="none" stroke-width="1.5" stroke-linecap="round" stroke-opacity="1.0" stroke="rgb(0, 0, 0)" stroke-linejoin="round" d=" M 725.333, 600.889 725.333, 600.889 735.333, 600.889 745.333, 600.889 755.333, 600.889 765.333, 600.889 775.333, 600.889 785.333, 600.889 795.333, 600.889 796.444, 600.889 796.444, 600.889 796.444, 590.889 796.444, 580.889 796.444, 570.889 796.444, 560.889 796.444, 550.889 796.444, 540.889 796.444, 530.889 796.444, 529.778 796.444, 529.778 786.444, 529.778 776.444, 529.778 766.444, 529.778 756.444, 529.778 746.444, 529.778 736.444, 529.778 726.444, 529.778 725.333, 529.778 " />
            <path fill="none" stroke-width="1.5" stroke-linecap="round" stroke-opacity="1.0" stroke="rgb(0, 0, 0)" stroke-linejoin="round" d=" M 298.667, 600.889 298.667, 600.889 " />
            <path fill="none" stroke-width="1.5" stroke-linecap="round" stroke-opacity="1.0" stroke="rgb(0, 0, 0)" stroke-linejoin="round" d=" M 725.333, 600.889 725.333, 600.889 " />
            <path fill="none" stroke-width="1.5" stroke-linecap="round" stroke-opacity="1.0" stroke="rgb(0, 0, 0)" stroke-linejoin="round" d=" M 725.333, 600.889 725.333, 600.889 " />
            <path fill="none" stroke-width="1.5" stroke-linecap="round" stroke-opacity="1.0" stroke="rgb(0, 0, 0)" stroke-linejoin="round" d=" M 298.667, 600.889 308.667, 600.889 318.667, 600.889 328.667, 600.889 338.667, 600.889 348.667, 600.889 358.667, 600.889 368.667, 600.889 378.667, 600.889 388.667, 600.889 398.667, 600.889 408.667, 600.889 418.667, 600.889 428.667, 600.889 438.667, 600.889 448.667, 600.889 458.667, 600.889 468.667, 600.889 478.667, 600.889 488.667, 600.889 498.667, 600.889 508.667, 600.889 518.667, 600.889 528.667, 600.889 538.667, 600.889 548.667, 600.889 558.667, 600.889 568.667, 600.889 578.667, 600.889 588.667, 600.889 598.667, 600.889 608.667, 600.889 618.667, 600.889 628.667, 600.889 638.667, 600.889 648.667, 600.889 658.667, 600.889 668.667, 600.889 678.667, 600.889 688.667, 600.889 698.667, 600.889 708.667, 600.889 718.667, 600.889 725.333, 600.889 " />
            <path fill="none" stroke-width="1.5" stroke-linecap="round" stroke-opacity="1.0" stroke="rgb(0, 0, 0)" stroke-linejoin="round" d=" M 725.333, 600.889 735.333, 600.889 745.333, 600.889 755.333, 600.889 765.333, 600.889 775.333, 600.889 785.333, 600.889 795.333, 600.889 796.444, 600.889 " />
        </g>
    </g>
</svg>
