<?xml version='1.0' encoding='ascii'?>
<svg xmlns="http://www.w3.org/2000/svg" xmlns:inkscape="http://www.inkscape.org/namespaces/inkscape" version="1.1" width="1024" height="1024">
    <g id="ViewLayer_LineSet" inkscape:groupmode="lineset" inkscape:label="ViewLayer_LineSet">
        <g inkscape:groupmode="layer" id="strokes" inkscape:label="strokes">
            <path fill="none" stroke-width="3.0" stroke-linecap="butt" stroke-opacity="1.0" stroke="rgb(0, 0, 0)" stroke-linejoin="round" d=" M 311.216, 662.588 311.216, 662.588 321.216, 662.588 327.948, 662.588 " />
            <path fill="none" stroke-width="3.0" stroke-linecap="butt" stroke-opacity="1.0" stroke="rgb(0, 0, 0)" stroke-linejoin="round" d=" M 696.052, 662.588 706.052, 662.588 712.784, 662.588 712.784, 662.588 712.784, 652.588 712.784, 642.588 712.784, 632.588 712.784, 629.124 " />
            <path fill="none" stroke-width="3.0" stroke-linecap="butt" stroke-opacity="1.0" stroke="rgb(0, 0, 0)" stroke-linejoin="round" d=" M 311.216, 662.588 321.216, 662.588 327.948, 662.588 " />
            <path fill="none" stroke-width="3.0" stroke-linecap="butt" stroke-opacity="1.0" stroke="rgb(0, 0, 0)" stroke-linejoin="round" d=" M 712.784, 629.124 712.784, 619.124 712.784, 609.124 712.784, 599.124 712.784, 595.660 712.784, 595.660 712.784, 585.660 712.784, 578.928 712.784, 578.928 712.784, 568.928 712.784, 558.928 712.784, 548.928 712.784, 538.928 712.784, 528.928 712.784, 518.928 712.784, 512.000 712.784, 512.000 712.784, 502.000 712.784, 492.000 712.784, 482.000 712.784, 472.000 712.784, 462.000 712.784, 452.000 712.784, 442.000 712.784, 432.000 712.784, 422.000 712.784, 412.000 712.784, 402.000 712.784, 392.000 712.784, 382.000 712.784, 372.000 712.784, 362.000 712.784, 352.000 712.784, 342.000 712.784, 332.000 712.784, 322.000 712.784, 312.000 712.784, 302.000 712.784, 292.000 712.784, 282.000 712.784, 272.000 712.784, 262.000 712.784, 252.000 712.784, 242.000 712.784, 232.000 712.784, 227.556 " />
            <path fill="none" stroke-width="3.0" stroke-linecap="butt" stroke-opacity="1.0" stroke="rgb(0, 0, 0)" stroke-linejoin="round" d=" M 311.216, 512.000 301.216, 512.000 291.216, 512.000 281.216, 512.000 277.752, 512.000 277.752, 512.000 277.752, 522.000 277.752, 532.000 277.752, 542.000 277.752, 552.000 277.752, 562.000 277.752, 572.000 277.752, 578.928 277.752, 578.928 287.752, 578.928 297.752, 578.928 307.752, 578.928 311.216, 578.928 " />
            <path fill="none" stroke-width="3.0" stroke-linecap="butt" stroke-opacity="1.0" stroke="rgb(0, 0, 0)" stroke-linejoin="round" d=" M 277.752, 578.928 287.752, 578.928 297.752, 578.928 307.752, 578.928 311.216, 578.928 " />
            <path fill="none" stroke-width="3.0" stroke-linecap="butt" stroke-opacity="1.0" stroke="rgb(0, 0, 0)" stroke-linejoin="round" d=" M 712.784, 578.928 722.784, 578.928 732.784, 578.928 742.784, 578.928 746.248, 578.928 746.248, 578.928 746.248, 568.928 746.248, 558.928 746.248, 548.928 746.248, 538.928 746.248, 528.928 746.248, 518.928 746.248, 512.000 746.248, 512.000 736.248, 512.000 726.248, 512.000 716.248, 512.000 712.784, 512.000 " />
            <path fill="none" stroke-width="3.0" stroke-linecap="butt" stroke-opacity="1.0" stroke="rgb(0, 0, 0)" stroke-linejoin="round" d=" M 327.948, 796.444 328.269, 796.444 329.221, 796.444 330.768, 796.444 332.848, 796.444 335.384, 796.444 338.277, 796.444 341.415, 796.444 344.680, 796.444 347.944, 796.444 351.083, 796.444 353.976, 796.444 356.511, 796.444 358.592, 796.444 360.138, 796.444 361.090, 796.444 361.412, 796.444 361.412, 786.444 361.412, 776.444 361.412, 766.444 361.412, 756.444 361.412, 746.444 361.412, 736.444 361.412, 726.444 361.412, 716.444 361.412, 706.444 361.412, 696.444 361.412, 686.444 361.412, 676.444 361.412, 666.444 361.412, 662.588 361.412, 662.588 " />
            <path fill="none" stroke-width="3.0" stroke-linecap="butt" stroke-opacity="1.0" stroke="rgb(0, 0, 0)" stroke-linejoin="round" d=" M 662.588, 796.444 662.910, 796.444 663.862, 796.444 665.408, 796.444 667.489, 796.444 670.024, 796.444 672.917, 796.444 676.056, 796.444 679.320, 796.444 682.585, 796.444 685.723, 796.444 688.616, 796.444 691.152, 796.444 693.232, 796.444 694.779, 796.444 695.731, 796.444 696.052, 796.444 696.052, 786.444 696.052, 776.444 696.052, 766.444 696.052, 756.444 696.052, 746.444 696.052, 736.444 696.052, 726.444 696.052, 716.444 696.052, 706.444 696.052, 696.444 696.052, 686.444 696.052, 676.444 696.052, 666.444 696.052, 662.588 696.052, 662.588 " />
            <path fill="none" stroke-width="3.0" stroke-linecap="butt" stroke-opacity="1.0" stroke="rgb(0, 0, 0)" stroke-linejoin="round" d=" M 311.216, 227.556 311.216, 237.556 311.216, 247.556 311.216, 257.556 311.216, 267.556 311.216, 277.556 311.216, 287.556 311.216, 297.556 311.216, 307.556 311.216, 317.556 311.216, 327.556 311.216, 337.556 311.216, 347.556 311.216, 357.556 311.216, 367.556 311.216, 377.556 311.216, 387.556 311.216, 397.556 311.216, 407.556 311.216, 417.556 311.216, 427.556 311.216, 437.556 311.216, 447.556 311.216, 457.556 311.216, 467.556 311.216, 477.556 311.216, 487.556 311.216, 497.556 311.216, 507.556 311.216, 512.000 311.216, 512.000 311.216, 522.000 311.216, 532.000 311.216, 542.000 311.216, 552.000 311.216, 562.000 311.216, 572.000 311.216, 578.928 311.216, 578.928 311.216, 588.928 311.216, 595.660 311.216, 595.660 311.216, 605.660 311.216, 615.660 311.216, 625.660 311.216, 629.124 " />
            <path fill="none" stroke-width="3.0" stroke-linecap="butt" stroke-opacity="1.0" stroke="rgb(0, 0, 0)" stroke-linejoin="round" d=" M 327.948, 662.588 327.948, 662.588 327.948, 672.588 327.948, 682.588 327.948, 692.588 327.948, 702.588 327.948, 712.588 327.948, 722.588 327.948, 732.588 327.948, 742.588 327.948, 752.588 327.948, 762.588 327.948, 772.588 327.948, 782.588 327.948, 792.588 327.948, 796.444 " />
            <path fill="none" stroke-width="3.0" stroke-linecap="butt" stroke-opacity="1.0" stroke="rgb(0, 0, 0)" stroke-linejoin="round" d=" M 662.588, 662.588 662.588, 662.588 662.588, 672.588 662.588, 682.588 662.588, 692.588 662.588, 702.588 662.588, 712.588 662.588, 722.588 662.588, 732.588 662.588, 742.588 662.588, 752.588 662.588, 762.588 662.588, 772.588 662.588, 782.588 662.588, 792.588 662.588, 796.444 " />
            <path fill="none" stroke-width="3.0" stroke-linecap="butt" stroke-opacity="1.0" stroke="rgb(0, 0, 0)" stroke-linejoin="round" d=" M 361.412, 662.588 371.412, 662.588 381.412, 662.588 391.412, 662.588 401.412, 662.588 411.412, 662.588 421.412, 662.588 431.412, 662.588 441.412, 662.588 451.412, 662.588 461.412, 662.588 471.412, 662.588 481.412, 662.588 491.412, 662.588 501.412, 662.588 511.412, 662.588 521.412, 662.588 531.412, 662.588 541.412, 662.588 551.412, 662.588 561.412, 662.588 571.412, 662.588 581.412, 662.588 591.412, 662.588 601.412, 662.588 611.412, 662.588 621.412, 662.588 631.412, 662.588 641.412, 662.588 651.412, 662.588 662.588, 662.588 " />
            <path fill="none" stroke-width="3.0" stroke-linecap="butt" stroke-opacity="1.0" stroke="rgb(0, 0, 0)" stroke-linejoin="round" d=" M 696.052, 662.588 706.052, 662.588 712.784, 662.588 " />
            <path fill="none" stroke-width="3.0" stroke-linecap="butt" stroke-opacity="1.0" stroke="rgb(0, 0, 0)" stroke-linejoin="round" d=" M 662.588, 662.588 672.588, 662.588 682.588, 662.588 692.588, 662.588 696.052, 662.588 " />
            <path fill="none" stroke-width="3.0" stroke-linecap="butt" stroke-opacity="1.0" stroke="rgb(0, 0, 0)" stroke-linejoin="round" d=" M 361.412, 662.588 371.412, 662.588 381.412, 662.588 391.412, 662.588 401.412, 662.588 411.412, 662.588 421.412, 662.588 431.412, 662.588 441.412, 662.588 451.412, 662.588 461.412, 662.588 471.412, 662.588 481.412, 662.588 491.412, 662.588 501.412, 662.588 511.412, 662.588 521.412, 662.588 531.412, 662.588 541.412, 662.588 551.412, 662.588 561.412, 662.588 571.412, 662.588 581.412, 662.588 591.412, 662.588 601.412, 662.588 611.412, 662.588 621.412, 662.588 631.412, 662.588 641.412, 662.588 651.412, 662.588 662.588, 662.588 " />
            <path fill="none" stroke-width="3.0" stroke-linecap="butt" stroke-opacity="1.0" stroke="rgb(0, 0, 0)" stroke-linejoin="round" d=" M 327.948, 662.588 337.948, 662.588 347.948, 662.588 357.948, 662.588 361.412, 662.588 " />
            <path fill="none" stroke-width="3.0" stroke-linecap="butt" stroke-opacity="1.0" stroke="rgb(0, 0, 0)" stroke-linejoin="round" d=" M 696.052, 629.124 706.052, 629.124 712.784, 629.124 " />
            <path fill="none" stroke-width="3.0" stroke-linecap="butt" stroke-opacity="1.0" stroke="rgb(0, 0, 0)" stroke-linejoin="round" d=" M 662.588, 629.124 672.588, 629.124 682.588, 629.124 692.588, 629.124 696.052, 629.124 " />
            <path fill="none" stroke-width="3.0" stroke-linecap="butt" stroke-opacity="1.0" stroke="rgb(0, 0, 0)" stroke-linejoin="round" d=" M 361.412, 629.124 371.412, 629.124 381.412, 629.124 391.412, 629.124 401.412, 629.124 411.412, 629.124 421.412, 629.124 431.412, 629.124 441.412, 629.124 451.412, 629.124 461.412, 629.124 471.412, 629.124 481.412, 629.124 491.412, 629.124 501.412, 629.124 511.412, 629.124 521.412, 629.124 531.412, 629.124 541.412, 629.124 551.412, 629.124 561.412, 629.124 571.412, 629.124 581.412, 629.124 591.412, 629.124 601.412, 629.124 611.412, 629.124 621.412, 629.124 631.412, 629.124 641.412, 629.124 651.412, 629.124 662.588, 629.124 " />
            <path fill="none" stroke-width="3.0" stroke-linecap="butt" stroke-opacity="1.0" stroke="rgb(0, 0, 0)" stroke-linejoin="round" d=" M 327.948, 629.124 337.948, 629.124 347.948, 629.124 357.948, 629.124 361.412, 629.124 " />
            <path fill="none" stroke-width="3.0" stroke-linecap="butt" stroke-opacity="1.0" stroke="rgb(0, 0, 0)" stroke-linejoin="round" d=" M 311.216, 629.124 321.216, 629.124 327.948, 629.124 " />
            <path fill="none" stroke-width="3.0" stroke-linecap="butt" stroke-opacity="1.0" stroke="rgb(0, 0, 0)" stroke-linejoin="round" d=" M 712.784, 227.556 702.784, 227.556 692.784, 227.556 682.784, 227.556 672.784, 227.556 662.784, 227.556 652.784, 227.556 642.784, 227.556 632.784, 227.556 622.784, 227.556 612.784, 227.556 602.784, 227.556 592.784, 227.556 582.784, 227.556 572.784, 227.556 562.784, 227.556 552.784, 227.556 542.784, 227.556 532.784, 227.556 522.784, 227.556 512.784, 227.556 502.784, 227.556 492.784, 227.556 482.784, 227.556 472.784, 227.556 462.784, 227.556 452.784, 227.556 442.784, 227.556 432.784, 227.556 422.784, 227.556 412.784, 227.556 402.784, 227.556 392.784, 227.556 382.784, 227.556 372.784, 227.556 362.784, 227.556 352.784, 227.556 342.784, 227.556 332.784, 227.556 322.784, 227.556 311.216, 227.556 " />
            <path fill="none" stroke-width="3.0" stroke-linecap="butt" stroke-opacity="1.0" stroke="rgb(0, 0, 0)" stroke-linejoin="round" d=" M 712.784, 578.928 722.784, 578.928 732.784, 578.928 742.784, 578.928 746.248, 578.928 " />
        </g>
    </g>
    <g id="ViewLayer_TechnicalLines" inkscape:groupmode="lineset" inkscape:label="ViewLayer_TechnicalLines">
        <g inkscape:groupmode="layer" id="strokes" inkscape:label="strokes">
            <path fill="none" stroke-width="3.0" stroke-linecap="butt" stroke-opacity="1.0" stroke="rgb(0, 0, 0)" stroke-linejoin="round" d=" M 311.216, 662.588 311.216, 662.588 321.216, 662.588 327.948, 662.588 " />
            <path fill="none" stroke-width="3.0" stroke-linecap="butt" stroke-opacity="1.0" stroke="rgb(0, 0, 0)" stroke-linejoin="round" d=" M 696.052, 662.588 706.052, 662.588 712.784, 662.588 712.784, 662.588 712.784, 652.588 712.784, 642.588 712.784, 632.588 712.784, 629.124 " />
            <path fill="none" stroke-width="3.0" stroke-linecap="butt" stroke-opacity="1.0" stroke="rgb(0, 0, 0)" stroke-linejoin="round" d=" M 311.216, 662.588 321.216, 662.588 327.948, 662.588 " />
            <path fill="none" stroke-width="3.0" stroke-linecap="butt" stroke-opacity="1.0" stroke="rgb(0, 0, 0)" stroke-linejoin="round" d=" M 712.784, 629.124 712.784, 619.124 712.784, 609.124 712.784, 599.124 712.784, 595.660 712.784, 595.660 712.784, 585.660 712.784, 578.928 712.784, 578.928 712.784, 568.928 712.784, 558.928 712.784, 548.928 712.784, 538.928 712.784, 528.928 712.784, 518.928 712.784, 512.000 712.784, 512.000 712.784, 502.000 712.784, 492.000 712.784, 482.000 712.784, 472.000 712.784, 462.000 712.784, 452.000 712.784, 442.000 712.784, 432.000 712.784, 422.000 712.784, 412.000 712.784, 402.000 712.784, 392.000 712.784, 382.000 712.784, 372.000 712.784, 362.000 712.784, 352.000 712.784, 342.000 712.784, 332.000 712.784, 322.000 712.784, 312.000 712.784, 302.000 712.784, 292.000 712.784, 282.000 712.784, 272.000 712.784, 262.000 712.784, 252.000 712.784, 242.000 712.784, 232.000 712.784, 227.556 " />
            <path fill="none" stroke-width="3.0" stroke-linecap="butt" stroke-opacity="1.0" stroke="rgb(0, 0, 0)" stroke-linejoin="round" d=" M 311.216, 512.000 301.216, 512.000 291.216, 512.000 281.216, 512.000 277.752, 512.000 277.752, 512.000 277.752, 522.000 277.752, 532.000 277.752, 542.000 277.752, 552.000 277.752, 562.000 277.752, 572.000 277.752, 578.928 277.752, 578.928 287.752, 578.928 297.752, 578.928 307.752, 578.928 311.216, 578.928 " />
            <path fill="none" stroke-width="3.0" stroke-linecap="butt" stroke-opacity="1.0" stroke="rgb(0, 0, 0)" stroke-linejoin="round" d=" M 277.752, 578.928 287.752, 578.928 297.752, 578.928 307.752, 578.928 311.216, 578.928 " />
            <path fill="none" stroke-width="3.0" stroke-linecap="butt" stroke-opacity="1.0" stroke="rgb(0, 0, 0)" stroke-linejoin="round" d=" M 712.784, 578.928 722.784, 578.928 732.784, 578.928 742.784, 578.928 746.248, 578.928 746.248, 578.928 746.248, 568.928 746.248, 558.928 746.248, 548.928 746.248, 538.928 746.248, 528.928 746.248, 518.928 746.248, 512.000 746.248, 512.000 736.248, 512.000 726.248, 512.000 716.248, 512.000 712.784, 512.000 " />
            <path fill="none" stroke-width="3.0" stroke-linecap="butt" stroke-opacity="1.0" stroke="rgb(0, 0, 0)" stroke-linejoin="round" d=" M 327.948, 796.444 328.269, 796.444 329.221, 796.444 330.768, 796.444 332.848, 796.444 335.384, 796.444 338.277, 796.444 341.415, 796.444 344.680, 796.444 347.944, 796.444 351.083, 796.444 353.976, 796.444 356.511, 796.444 358.592, 796.444 360.138, 796.444 361.090, 796.444 361.412, 796.444 361.412, 786.444 361.412, 776.444 361.412, 766.444 361.412, 756.444 361.412, 746.444 361.412, 736.444 361.412, 726.444 361.412, 716.444 361.412, 706.444 361.412, 696.444 361.412, 686.444 361.412, 676.444 361.412, 666.444 361.412, 662.588 361.412, 662.588 " />
            <path fill="none" stroke-width="3.0" stroke-linecap="butt" stroke-opacity="1.0" stroke="rgb(0, 0, 0)" stroke-linejoin="round" d=" M 662.588, 796.444 662.910, 796.444 663.862, 796.444 665.408, 796.444 667.489, 796.444 670.024, 796.444 672.917, 796.444 676.056, 796.444 679.320, 796.444 682.585, 796.444 685.723, 796.444 688.616, 796.444 691.152, 796.444 693.232, 796.444 694.779, 796.444 695.731, 796.444 696.052, 796.444 696.052, 786.444 696.052, 776.444 696.052, 766.444 696.052, 756.444 696.052, 746.444 696.052, 736.444 696.052, 726.444 696.052, 716.444 696.052, 706.444 696.052, 696.444 696.052, 686.444 696.052, 676.444 696.052, 666.444 696.052, 662.588 696.052, 662.588 " />
            <path fill="none" stroke-width="3.0" stroke-linecap="butt" stroke-opacity="1.0" stroke="rgb(0, 0, 0)" stroke-linejoin="round" d=" M 311.216, 227.556 311.216, 237.556 311.216, 247.556 311.216, 257.556 311.216, 267.556 311.216, 277.556 311.216, 287.556 311.216, 297.556 311.216, 307.556 311.216, 317.556 311.216, 327.556 311.216, 337.556 311.216, 347.556 311.216, 357.556 311.216, 367.556 311.216, 377.556 311.216, 387.556 311.216, 397.556 311.216, 407.556 311.216, 417.556 311.216, 427.556 311.216, 437.556 311.216, 447.556 311.216, 457.556 311.216, 467.556 311.216, 477.556 311.216, 487.556 311.216, 497.556 311.216, 507.556 311.216, 512.000 311.216, 512.000 311.216, 522.000 311.216, 532.000 311.216, 542.000 311.216, 552.000 311.216, 562.000 311.216, 572.000 311.216, 578.928 311.216, 578.928 311.216, 588.928 311.216, 595.660 311.216, 595.660 311.216, 605.660 311.216, 615.660 311.216, 625.660 311.216, 629.124 " />
            <path fill="none" stroke-width="3.0" stroke-linecap="butt" stroke-opacity="1.0" stroke="rgb(0, 0, 0)" stroke-linejoin="round" d=" M 327.948, 662.588 327.948, 662.588 327.948, 672.588 327.948, 682.588 327.948, 692.588 327.948, 702.588 327.948, 712.588 327.948, 722.588 327.948, 732.588 327.948, 742.588 327.948, 752.588 327.948, 762.588 327.948, 772.588 327.948, 782.588 327.948, 792.588 327.948, 796.444 " />
            <path fill="none" stroke-width="3.0" stroke-linecap="butt" stroke-opacity="1.0" stroke="rgb(0, 0, 0)" stroke-linejoin="round" d=" M 662.588, 662.588 662.588, 662.588 662.588, 672.588 662.588, 682.588 662.588, 692.588 662.588, 702.588 662.588, 712.588 662.588, 722.588 662.588, 732.588 662.588, 742.588 662.588, 752.588 662.588, 762.588 662.588, 772.588 662.588, 782.588 662.588, 792.588 662.588, 796.444 " />
            <path fill="none" stroke-width="3.0" stroke-linecap="butt" stroke-opacity="1.0" stroke="rgb(0, 0, 0)" stroke-linejoin="round" d=" M 361.412, 662.588 371.412, 662.588 381.412, 662.588 391.412, 662.588 401.412, 662.588 411.412, 662.588 421.412, 662.588 431.412, 662.588 441.412, 662.588 451.412, 662.588 461.412, 662.588 471.412, 662.588 481.412, 662.588 491.412, 662.588 501.412, 662.588 511.412, 662.588 521.412, 662.588 531.412, 662.588 541.412, 662.588 551.412, 662.588 561.412, 662.588 571.412, 662.588 581.412, 662.588 591.412, 662.588 601.412, 662.588 611.412, 662.588 621.412, 662.588 631.412, 662.588 641.412, 662.588 651.412, 662.588 662.588, 662.588 " />
            <path fill="none" stroke-width="3.0" stroke-linecap="butt" stroke-opacity="1.0" stroke="rgb(0, 0, 0)" stroke-linejoin="round" d=" M 696.052, 662.588 706.052, 662.588 712.784, 662.588 " />
            <path fill="none" stroke-width="3.0" stroke-linecap="butt" stroke-opacity="1.0" stroke="rgb(0, 0, 0)" stroke-linejoin="round" d=" M 662.588, 662.588 672.588, 662.588 682.588, 662.588 692.588, 662.588 696.052, 662.588 " />
            <path fill="none" stroke-width="3.0" stroke-linecap="butt" stroke-opacity="1.0" stroke="rgb(0, 0, 0)" stroke-linejoin="round" d=" M 361.412, 662.588 371.412, 662.588 381.412, 662.588 391.412, 662.588 401.412, 662.588 411.412, 662.588 421.412, 662.588 431.412, 662.588 441.412, 662.588 451.412, 662.588 461.412, 662.588 471.412, 662.588 481.412, 662.588 491.412, 662.588 501.412, 662.588 511.412, 662.588 521.412, 662.588 531.412, 662.588 541.412, 662.588 551.412, 662.588 561.412, 662.588 571.412, 662.588 581.412, 662.588 591.412, 662.588 601.412, 662.588 611.412, 662.588 621.412, 662.588 631.412, 662.588 641.412, 662.588 651.412, 662.588 662.588, 662.588 " />
            <path fill="none" stroke-width="3.0" stroke-linecap="butt" stroke-opacity="1.0" stroke="rgb(0, 0, 0)" stroke-linejoin="round" d=" M 327.948, 662.588 337.948, 662.588 347.948, 662.588 357.948, 662.588 361.412, 662.588 " />
            <path fill="none" stroke-width="3.0" stroke-linecap="butt" stroke-opacity="1.0" stroke="rgb(0, 0, 0)" stroke-linejoin="round" d=" M 696.052, 629.124 706.052, 629.124 712.784, 629.124 " />
            <path fill="none" stroke-width="3.0" stroke-linecap="butt" stroke-opacity="1.0" stroke="rgb(0, 0, 0)" stroke-linejoin="round" d=" M 662.588, 629.124 672.588, 629.124 682.588, 629.124 692.588, 629.124 696.052, 629.124 " />
            <path fill="none" stroke-width="3.0" stroke-linecap="butt" stroke-opacity="1.0" stroke="rgb(0, 0, 0)" stroke-linejoin="round" d=" M 361.412, 629.124 371.412, 629.124 381.412, 629.124 391.412, 629.124 401.412, 629.124 411.412, 629.124 421.412, 629.124 431.412, 629.124 441.412, 629.124 451.412, 629.124 461.412, 629.124 471.412, 629.124 481.412, 629.124 491.412, 629.124 501.412, 629.124 511.412, 629.124 521.412, 629.124 531.412, 629.124 541.412, 629.124 551.412, 629.124 561.412, 629.124 571.412, 629.124 581.412, 629.124 591.412, 629.124 601.412, 629.124 611.412, 629.124 621.412, 629.124 631.412, 629.124 641.412, 629.124 651.412, 629.124 662.588, 629.124 " />
            <path fill="none" stroke-width="3.0" stroke-linecap="butt" stroke-opacity="1.0" stroke="rgb(0, 0, 0)" stroke-linejoin="round" d=" M 327.948, 629.124 337.948, 629.124 347.948, 629.124 357.948, 629.124 361.412, 629.124 " />
            <path fill="none" stroke-width="3.0" stroke-linecap="butt" stroke-opacity="1.0" stroke="rgb(0, 0, 0)" stroke-linejoin="round" d=" M 311.216, 629.124 321.216, 629.124 327.948, 629.124 " />
            <path fill="none" stroke-width="3.0" stroke-linecap="butt" stroke-opacity="1.0" stroke="rgb(0, 0, 0)" stroke-linejoin="round" d=" M 712.784, 227.556 702.784, 227.556 692.784, 227.556 682.784, 227.556 672.784, 227.556 662.784, 227.556 652.784, 227.556 642.784, 227.556 632.784, 227.556 622.784, 227.556 612.784, 227.556 602.784, 227.556 592.784, 227.556 582.784, 227.556 572.784, 227.556 562.784, 227.556 552.784, 227.556 542.784, 227.556 532.784, 227.556 522.784, 227.556 512.784, 227.556 502.784, 227.556 492.784, 227.556 482.784, 227.556 472.784, 227.556 462.784, 227.556 452.784, 227.556 442.784, 227.556 432.784, 227.556 422.784, 227.556 412.784, 227.556 402.784, 227.556 392.784, 227.556 382.784, 227.556 372.784, 227.556 362.784, 227.556 352.784, 227.556 342.784, 227.556 332.784, 227.556 322.784, 227.556 311.216, 227.556 " />
            <path fill="none" stroke-width="3.0" stroke-linecap="butt" stroke-opacity="1.0" stroke="rgb(0, 0, 0)" stroke-linejoin="round" d=" M 712.784, 578.928 722.784, 578.928 732.784, 578.928 742.784, 578.928 746.248, 578.928 " />
        </g>
    </g>
    <g id="ViewLayer_TechnicalLines.001" inkscape:groupmode="lineset" inkscape:label="ViewLayer_TechnicalLines.001">
        <g inkscape:groupmode="layer" id="strokes" inkscape:label="strokes">
            <path fill="none" stroke-width="1.5" stroke-linecap="round" stroke-opacity="1.0" stroke="rgb(0, 0, 0)" stroke-linejoin="round" d=" M 311.216, 662.588 311.216, 662.588 321.216, 662.588 327.948, 662.588 " />
            <path fill="none" stroke-width="1.5" stroke-linecap="round" stroke-opacity="1.0" stroke="rgb(0, 0, 0)" stroke-linejoin="round" d=" M 696.052, 662.588 706.052, 662.588 712.784, 662.588 712.784, 662.588 712.784, 652.588 712.784, 642.588 712.784, 632.588 712.784, 629.124 " />
            <path fill="none" stroke-width="1.5" stroke-linecap="round" stroke-opacity="1.0" stroke="rgb(0, 0, 0)" stroke-linejoin="round" d=" M 311.216, 662.588 321.216, 662.588 327.948, 662.588 " />
            <path fill="none" stroke-width="1.5" stroke-linecap="round" stroke-opacity="1.0" stroke="rgb(0, 0, 0)" stroke-linejoin="round" d=" M 712.784, 629.124 712.784, 619.124 712.784, 609.124 712.784, 599.124 712.784, 595.660 712.784, 595.660 712.784, 585.660 712.784, 578.928 712.784, 578.928 712.784, 568.928 712.784, 558.928 712.784, 548.928 712.784, 538.928 712.784, 528.928 712.784, 518.928 712.784, 512.000 712.784, 512.000 712.784, 502.000 712.784, 492.000 712.784, 482.000 712.784, 472.000 712.784, 462.000 712.784, 452.000 712.784, 442.000 712.784, 432.000 712.784, 422.000 712.784, 412.000 712.784, 402.000 712.784, 392.000 712.784, 382.000 712.784, 372.000 712.784, 362.000 712.784, 352.000 712.784, 342.000 712.784, 332.000 712.784, 322.000 712.784, 312.000 712.784, 302.000 712.784, 292.000 712.784, 282.000 712.784, 272.000 712.784, 262.000 712.784, 252.000 712.784, 242.000 712.784, 232.000 712.784, 227.556 " />
            <path fill="none" stroke-width="1.5" stroke-linecap="round" stroke-opacity="1.0" stroke="rgb(0, 0, 0)" stroke-linejoin="round" d=" M 311.216, 512.000 301.216, 512.000 291.216, 512.000 281.216, 512.000 277.752, 512.000 277.752, 512.000 277.752, 522.000 277.752, 532.000 277.752, 542.000 277.752, 552.000 277.752, 562.000 277.752, 572.000 277.752, 578.928 277.752, 578.928 287.752, 578.928 297.752, 578.928 307.752, 578.928 311.216, 578.928 " />
            <path fill="none" stroke-width="1.5" stroke-linecap="round" stroke-opacity="1.0" stroke="rgb(0, 0, 0)" stroke-linejoin="round" d=" M 277.752, 578.928 287.752, 578.928 297.752, 578.928 307.752, 578.928 311.216, 578.928 " />
            <path fill="none" stroke-width="1.5" stroke-linecap="round" stroke-opacity="1.0" stroke="rgb(0, 0, 0)" stroke-linejoin="round" d=" M 712.784, 578.928 722.784, 578.928 732.784, 578.928 742.784, 578.928 746.248, 578.928 746.248, 578.928 746.248, 568.928 746.248, 558.928 746.248, 548.928 746.248, 538.928 746.248, 528.928 746.248, 518.928 746.248, 512.000 746.248, 512.000 736.248, 512.000 726.248, 512.000 716.248, 512.000 712.784, 512.000 " />
            <path fill="none" stroke-width="1.5" stroke-linecap="round" stroke-opacity="1.0" stroke="rgb(0, 0, 0)" stroke-linejoin="round" d=" M 327.948, 796.444 328.269, 796.444 329.221, 796.444 330.768, 796.444 332.848, 796.444 335.384, 796.444 338.277, 796.444 341.415, 796.444 344.680, 796.444 347.944, 796.444 351.083, 796.444 353.976, 796.444 356.511, 796.444 358.592, 796.444 360.138, 796.444 361.090, 796.444 361.412, 796.444 361.412, 786.444 361.412, 776.444 361.412, 766.444 361.412, 756.444 361.412, 746.444 361.412, 736.444 361.412, 726.444 361.412, 716.444 361.412, 706.444 361.412, 696.444 361.412, 686.444 361.412, 676.444 361.412, 666.444 361.412, 662.588 361.412, 662.588 " />
            <path fill="none" stroke-width="1.5" stroke-linecap="round" stroke-opacity="1.0" stroke="rgb(0, 0, 0)" stroke-linejoin="round" d=" M 662.588, 796.444 662.910, 796.444 663.862, 796.444 665.408, 796.444 667.489, 796.444 670.024, 796.444 672.917, 796.444 676.056, 796.444 679.320, 796.444 682.585, 796.444 685.723, 796.444 688.616, 796.444 691.152, 796.444 693.232, 796.444 694.779, 796.444 695.731, 796.444 696.052, 796.444 696.052, 786.444 696.052, 776.444 696.052, 766.444 696.052, 756.444 696.052, 746.444 696.052, 736.444 696.052, 726.444 696.052, 716.444 696.052, 706.444 696.052, 696.444 696.052, 686.444 696.052, 676.444 696.052, 666.444 696.052, 662.588 696.052, 662.588 " />
            <path fill="none" stroke-width="1.5" stroke-linecap="round" stroke-opacity="1.0" stroke="rgb(0, 0, 0)" stroke-linejoin="round" d=" M 311.216, 227.556 311.216, 237.556 311.216, 247.556 311.216, 257.556 311.216, 267.556 311.216, 277.556 311.216, 287.556 311.216, 297.556 311.216, 307.556 311.216, 317.556 311.216, 327.556 311.216, 337.556 311.216, 347.556 311.216, 357.556 311.216, 367.556 311.216, 377.556 311.216, 387.556 311.216, 397.556 311.216, 407.556 311.216, 417.556 311.216, 427.556 311.216, 437.556 311.216, 447.556 311.216, 457.556 311.216, 467.556 311.216, 477.556 311.216, 487.556 311.216, 497.556 311.216, 507.556 311.216, 512.000 311.216, 512.000 311.216, 522.000 311.216, 532.000 311.216, 542.000 311.216, 552.000 311.216, 562.000 311.216, 572.000 311.216, 578.928 311.216, 578.928 311.216, 588.928 311.216, 595.660 311.216, 595.660 311.216, 605.660 311.216, 615.660 311.216, 625.660 311.216, 629.124 " />
            <path fill="none" stroke-width="1.5" stroke-linecap="round" stroke-opacity="1.0" stroke="rgb(0, 0, 0)" stroke-linejoin="round" d=" M 327.948, 662.588 327.948, 662.588 327.948, 672.588 327.948, 682.588 327.948, 692.588 327.948, 702.588 327.948, 712.588 327.948, 722.588 327.948, 732.588 327.948, 742.588 327.948, 752.588 327.948, 762.588 327.948, 772.588 327.948, 782.588 327.948, 792.588 327.948, 796.444 " />
            <path fill="none" stroke-width="1.5" stroke-linecap="round" stroke-opacity="1.0" stroke="rgb(0, 0, 0)" stroke-linejoin="round" d=" M 662.588, 662.588 662.588, 662.588 662.588, 672.588 662.588, 682.588 662.588, 692.588 662.588, 702.588 662.588, 712.588 662.588, 722.588 662.588, 732.588 662.588, 742.588 662.588, 752.588 662.588, 762.588 662.588, 772.588 662.588, 782.588 662.588, 792.588 662.588, 796.444 " />
            <path fill="none" stroke-width="1.5" stroke-linecap="round" stroke-opacity="1.0" stroke="rgb(0, 0, 0)" stroke-linejoin="round" d=" M 361.412, 662.588 371.412, 662.588 381.412, 662.588 391.412, 662.588 401.412, 662.588 411.412, 662.588 421.412, 662.588 431.412, 662.588 441.412, 662.588 451.412, 662.588 461.412, 662.588 471.412, 662.588 481.412, 662.588 491.412, 662.588 501.412, 662.588 511.412, 662.588 521.412, 662.588 531.412, 662.588 541.412, 662.588 551.412, 662.588 561.412, 662.588 571.412, 662.588 581.412, 662.588 591.412, 662.588 601.412, 662.588 611.412, 662.588 621.412, 662.588 631.412, 662.588 641.412, 662.588 651.412, 662.588 662.588, 662.588 " />
            <path fill="none" stroke-width="1.5" stroke-linecap="round" stroke-opacity="1.0" stroke="rgb(0, 0, 0)" stroke-linejoin="round" d=" M 696.052, 662.588 706.052, 662.588 712.784, 662.588 " />
            <path fill="none" stroke-width="1.5" stroke-linecap="round" stroke-opacity="1.0" stroke="rgb(0, 0, 0)" stroke-linejoin="round" d=" M 662.588, 662.588 672.588, 662.588 682.588, 662.588 692.588, 662.588 696.052, 662.588 " />
            <path fill="none" stroke-width="1.5" stroke-linecap="round" stroke-opacity="1.0" stroke="rgb(0, 0, 0)" stroke-linejoin="round" d=" M 361.412, 662.588 371.412, 662.588 381.412, 662.588 391.412, 662.588 401.412, 662.588 411.412, 662.588 421.412, 662.588 431.412, 662.588 441.412, 662.588 451.412, 662.588 461.412, 662.588 471.412, 662.588 481.412, 662.588 491.412, 662.588 501.412, 662.588 511.412, 662.588 521.412, 662.588 531.412, 662.588 541.412, 662.588 551.412, 662.588 561.412, 662.588 571.412, 662.588 581.412, 662.588 591.412, 662.588 601.412, 662.588 611.412, 662.588 621.412, 662.588 631.412, 662.588 641.412, 662.588 651.412, 662.588 662.588, 662.588 " />
            <path fill="none" stroke-width="1.5" stroke-linecap="round" stroke-opacity="1.0" stroke="rgb(0, 0, 0)" stroke-linejoin="round" d=" M 327.948, 662.588 337.948, 662.588 347.948, 662.588 357.948, 662.588 361.412, 662.588 " />
            <path fill="none" stroke-width="1.5" stroke-linecap="round" stroke-opacity="1.0" stroke="rgb(0, 0, 0)" stroke-linejoin="round" d=" M 696.052, 629.124 706.052, 629.124 712.784, 629.124 " />
            <path fill="none" stroke-width="1.5" stroke-linecap="round" stroke-opacity="1.0" stroke="rgb(0, 0, 0)" stroke-linejoin="round" d=" M 662.588, 629.124 672.588, 629.124 682.588, 629.124 692.588, 629.124 696.052, 629.124 " />
            <path fill="none" stroke-width="1.5" stroke-linecap="round" stroke-opacity="1.0" stroke="rgb(0, 0, 0)" stroke-linejoin="round" d=" M 361.412, 629.124 371.412, 629.124 381.412, 629.124 391.412, 629.124 401.412, 629.124 411.412, 629.124 421.412, 629.124 431.412, 629.124 441.412, 629.124 451.412, 629.124 461.412, 629.124 471.412, 629.124 481.412, 629.124 491.412, 629.124 501.412, 629.124 511.412, 629.124 521.412, 629.124 531.412, 629.124 541.412, 629.124 551.412, 629.124 561.412, 629.124 571.412, 629.124 581.412, 629.124 591.412, 629.124 601.412, 629.124 611.412, 629.124 621.412, 629.124 631.412, 629.124 641.412, 629.124 651.412, 629.124 662.588, 629.124 " />
            <path fill="none" stroke-width="1.5" stroke-linecap="round" stroke-opacity="1.0" stroke="rgb(0, 0, 0)" stroke-linejoin="round" d=" M 327.948, 629.124 337.948, 629.124 347.948, 629.124 357.948, 629.124 361.412, 629.124 " />
            <path fill="none" stroke-width="1.5" stroke-linecap="round" stroke-opacity="1.0" stroke="rgb(0, 0, 0)" stroke-linejoin="round" d=" M 311.216, 629.124 321.216, 629.124 327.948, 629.124 " />
            <path fill="none" stroke-width="1.5" stroke-linecap="round" stroke-opacity="1.0" stroke="rgb(0, 0, 0)" stroke-linejoin="round" d=" M 712.784, 227.556 702.784, 227.556 692.784, 227.556 682.784, 227.556 672.784, 227.556 662.784, 227.556 652.784, 227.556 642.784, 227.556 632.784, 227.556 622.784, 227.556 612.784, 227.556 602.784, 227.556 592.784, 227.556 582.784, 227.556 572.784, 227.556 562.784, 227.556 552.784, 227.556 542.784, 227.556 532.784, 227.556 522.784, 227.556 512.784, 227.556 502.784, 227.556 492.784, 227.556 482.784, 227.556 472.784, 227.556 462.784, 227.556 452.784, 227.556 442.784, 227.556 432.784, 227.556 422.784, 227.556 412.784, 227.556 402.784, 227.556 392.784, 227.556 382.784, 227.556 372.784, 227.556 362.784, 227.556 352.784, 227.556 342.784, 227.556 332.784, 227.556 322.784, 227.556 311.216, 227.556 " />
            <path fill="none" stroke-width="1.5" stroke-linecap="round" stroke-opacity="1.0" stroke="rgb(0, 0, 0)" stroke-linejoin="round" d=" M 712.784, 578.928 722.784, 578.928 732.784, 578.928 742.784, 578.928 746.248, 578.928 " />
        </g>
    </g>
    <g id="ViewLayer_TechnicalLines.002" inkscape:groupmode="lineset" inkscape:label="ViewLayer_TechnicalLines.002">
        <g inkscape:groupmode="layer" id="strokes" inkscape:label="strokes">
            <path fill="none" stroke-width="1.5" stroke-linecap="round" stroke-opacity="1.0" stroke="rgb(0, 0, 0)" stroke-linejoin="round" d=" M 311.216, 662.588 311.216, 662.588 321.216, 662.588 327.948, 662.588 " />
            <path fill="none" stroke-width="1.5" stroke-linecap="round" stroke-opacity="1.0" stroke="rgb(0, 0, 0)" stroke-linejoin="round" d=" M 696.052, 662.588 706.052, 662.588 712.784, 662.588 712.784, 662.588 712.784, 652.588 712.784, 642.588 712.784, 632.588 712.784, 629.124 " />
            <path fill="none" stroke-width="1.5" stroke-linecap="round" stroke-opacity="1.0" stroke="rgb(0, 0, 0)" stroke-linejoin="round" d=" M 311.216, 662.588 321.216, 662.588 327.948, 662.588 " />
            <path fill="none" stroke-width="1.5" stroke-linecap="round" stroke-opacity="1.0" stroke="rgb(0, 0, 0)" stroke-linejoin="round" d=" M 712.784, 629.124 712.784, 619.124 712.784, 609.124 712.784, 599.124 712.784, 595.660 712.784, 595.660 712.784, 585.660 712.784, 578.928 712.784, 578.928 712.784, 568.928 712.784, 558.928 712.784, 548.928 712.784, 538.928 712.784, 528.928 712.784, 518.928 712.784, 512.000 712.784, 512.000 712.784, 502.000 712.784, 492.000 712.784, 482.000 712.784, 472.000 712.784, 462.000 712.784, 452.000 712.784, 442.000 712.784, 432.000 712.784, 422.000 712.784, 412.000 712.784, 402.000 712.784, 392.000 712.784, 382.000 712.784, 372.000 712.784, 362.000 712.784, 352.000 712.784, 342.000 712.784, 332.000 712.784, 322.000 712.784, 312.000 712.784, 302.000 712.784, 292.000 712.784, 282.000 712.784, 272.000 712.784, 262.000 712.784, 252.000 712.784, 242.000 712.784, 232.000 712.784, 227.556 " />
            <path fill="none" stroke-width="1.5" stroke-linecap="round" stroke-opacity="1.0" stroke="rgb(0, 0, 0)" stroke-linejoin="round" d=" M 311.216, 512.000 301.216, 512.000 291.216, 512.000 281.216, 512.000 277.752, 512.000 277.752, 512.000 277.752, 522.000 277.752, 532.000 277.752, 542.000 277.752, 552.000 277.752, 562.000 277.752, 572.000 277.752, 578.928 277.752, 578.928 287.752, 578.928 297.752, 578.928 307.752, 578.928 311.216, 578.928 " />
            <path fill="none" stroke-width="1.5" stroke-linecap="round" stroke-opacity="1.0" stroke="rgb(0, 0, 0)" stroke-linejoin="round" d=" M 277.752, 578.928 287.752, 578.928 297.752, 578.928 307.752, 578.928 311.216, 578.928 " />
            <path fill="none" stroke-width="1.5" stroke-linecap="round" stroke-opacity="1.0" stroke="rgb(0, 0, 0)" stroke-linejoin="round" d=" M 712.784, 578.928 722.784, 578.928 732.784, 578.928 742.784, 578.928 746.248, 578.928 746.248, 578.928 746.248, 568.928 746.248, 558.928 746.248, 548.928 746.248, 538.928 746.248, 528.928 746.248, 518.928 746.248, 512.000 746.248, 512.000 736.248, 512.000 726.248, 512.000 716.248, 512.000 712.784, 512.000 " />
            <path fill="none" stroke-width="1.5" stroke-linecap="round" stroke-opacity="1.0" stroke="rgb(0, 0, 0)" stroke-linejoin="round" d=" M 327.948, 796.444 328.269, 796.444 329.221, 796.444 330.768, 796.444 332.848, 796.444 335.384, 796.444 338.277, 796.444 341.415, 796.444 344.680, 796.444 347.944, 796.444 351.083, 796.444 353.976, 796.444 356.511, 796.444 358.592, 796.444 360.138, 796.444 361.090, 796.444 361.412, 796.444 361.412, 786.444 361.412, 776.444 361.412, 766.444 361.412, 756.444 361.412, 746.444 361.412, 736.444 361.412, 726.444 361.412, 716.444 361.412, 706.444 361.412, 696.444 361.412, 686.444 361.412, 676.444 361.412, 666.444 361.412, 662.588 361.412, 662.588 " />
            <path fill="none" stroke-width="1.5" stroke-linecap="round" stroke-opacity="1.0" stroke="rgb(0, 0, 0)" stroke-linejoin="round" d=" M 662.588, 796.444 662.910, 796.444 663.862, 796.444 665.408, 796.444 667.489, 796.444 670.024, 796.444 672.917, 796.444 676.056, 796.444 679.320, 796.444 682.585, 796.444 685.723, 796.444 688.616, 796.444 691.152, 796.444 693.232, 796.444 694.779, 796.444 695.731, 796.444 696.052, 796.444 696.052, 786.444 696.052, 776.444 696.052, 766.444 696.052, 756.444 696.052, 746.444 696.052, 736.444 696.052, 726.444 696.052, 716.444 696.052, 706.444 696.052, 696.444 696.052, 686.444 696.052, 676.444 696.052, 666.444 696.052, 662.588 696.052, 662.588 " />
            <path fill="none" stroke-width="1.5" stroke-linecap="round" stroke-opacity="1.0" stroke="rgb(0, 0, 0)" stroke-linejoin="round" d=" M 311.216, 227.556 311.216, 237.556 311.216, 247.556 311.216, 257.556 311.216, 267.556 311.216, 277.556 311.216, 287.556 311.216, 297.556 311.216, 307.556 311.216, 317.556 311.216, 327.556 311.216, 337.556 311.216, 347.556 311.216, 357.556 311.216, 367.556 311.216, 377.556 311.216, 387.556 311.216, 397.556 311.216, 407.556 311.216, 417.556 311.216, 427.556 311.216, 437.556 311.216, 447.556 311.216, 457.556 311.216, 467.556 311.216, 477.556 311.216, 487.556 311.216, 497.556 311.216, 507.556 311.216, 512.000 311.216, 512.000 311.216, 522.000 311.216, 532.000 311.216, 542.000 311.216, 552.000 311.216, 562.000 311.216, 572.000 311.216, 578.928 311.216, 578.928 311.216, 588.928 311.216, 595.660 311.216, 595.660 311.216, 605.660 311.216, 615.660 311.216, 625.660 311.216, 629.124 " />
            <path fill="none" stroke-width="1.5" stroke-linecap="round" stroke-opacity="1.0" stroke="rgb(0, 0, 0)" stroke-linejoin="round" d=" M 327.948, 662.588 327.948, 662.588 327.948, 672.588 327.948, 682.588 327.948, 692.588 327.948, 702.588 327.948, 712.588 327.948, 722.588 327.948, 732.588 327.948, 742.588 327.948, 752.588 327.948, 762.588 327.948, 772.588 327.948, 782.588 327.948, 792.588 327.948, 796.444 " />
            <path fill="none" stroke-width="1.5" stroke-linecap="round" stroke-opacity="1.0" stroke="rgb(0, 0, 0)" stroke-linejoin="round" d=" M 662.588, 662.588 662.588, 662.588 662.588, 672.588 662.588, 682.588 662.588, 692.588 662.588, 702.588 662.588, 712.588 662.588, 722.588 662.588, 732.588 662.588, 742.588 662.588, 752.588 662.588, 762.588 662.588, 772.588 662.588, 782.588 662.588, 792.588 662.588, 796.444 " />
            <path fill="none" stroke-width="1.5" stroke-linecap="round" stroke-opacity="1.0" stroke="rgb(0, 0, 0)" stroke-linejoin="round" d=" M 361.412, 662.588 371.412, 662.588 381.412, 662.588 391.412, 662.588 401.412, 662.588 411.412, 662.588 421.412, 662.588 431.412, 662.588 441.412, 662.588 451.412, 662.588 461.412, 662.588 471.412, 662.588 481.412, 662.588 491.412, 662.588 501.412, 662.588 511.412, 662.588 521.412, 662.588 531.412, 662.588 541.412, 662.588 551.412, 662.588 561.412, 662.588 571.412, 662.588 581.412, 662.588 591.412, 662.588 601.412, 662.588 611.412, 662.588 621.412, 662.588 631.412, 662.588 641.412, 662.588 651.412, 662.588 662.588, 662.588 " />
            <path fill="none" stroke-width="1.5" stroke-linecap="round" stroke-opacity="1.0" stroke="rgb(0, 0, 0)" stroke-linejoin="round" d=" M 696.052, 662.588 706.052, 662.588 712.784, 662.588 " />
            <path fill="none" stroke-width="1.5" stroke-linecap="round" stroke-opacity="1.0" stroke="rgb(0, 0, 0)" stroke-linejoin="round" d=" M 662.588, 662.588 672.588, 662.588 682.588, 662.588 692.588, 662.588 696.052, 662.588 " />
            <path fill="none" stroke-width="1.5" stroke-linecap="round" stroke-opacity="1.0" stroke="rgb(0, 0, 0)" stroke-linejoin="round" d=" M 361.412, 662.588 371.412, 662.588 381.412, 662.588 391.412, 662.588 401.412, 662.588 411.412, 662.588 421.412, 662.588 431.412, 662.588 441.412, 662.588 451.412, 662.588 461.412, 662.588 471.412, 662.588 481.412, 662.588 491.412, 662.588 501.412, 662.588 511.412, 662.588 521.412, 662.588 531.412, 662.588 541.412, 662.588 551.412, 662.588 561.412, 662.588 571.412, 662.588 581.412, 662.588 591.412, 662.588 601.412, 662.588 611.412, 662.588 621.412, 662.588 631.412, 662.588 641.412, 662.588 651.412, 662.588 662.588, 662.588 " />
            <path fill="none" stroke-width="1.5" stroke-linecap="round" stroke-opacity="1.0" stroke="rgb(0, 0, 0)" stroke-linejoin="round" d=" M 327.948, 662.588 337.948, 662.588 347.948, 662.588 357.948, 662.588 361.412, 662.588 " />
            <path fill="none" stroke-width="1.5" stroke-linecap="round" stroke-opacity="1.0" stroke="rgb(0, 0, 0)" stroke-linejoin="round" d=" M 696.052, 629.124 706.052, 629.124 712.784, 629.124 " />
            <path fill="none" stroke-width="1.5" stroke-linecap="round" stroke-opacity="1.0" stroke="rgb(0, 0, 0)" stroke-linejoin="round" d=" M 662.588, 629.124 672.588, 629.124 682.588, 629.124 692.588, 629.124 696.052, 629.124 " />
            <path fill="none" stroke-width="1.5" stroke-linecap="round" stroke-opacity="1.0" stroke="rgb(0, 0, 0)" stroke-linejoin="round" d=" M 361.412, 629.124 371.412, 629.124 381.412, 629.124 391.412, 629.124 401.412, 629.124 411.412, 629.124 421.412, 629.124 431.412, 629.124 441.412, 629.124 451.412, 629.124 461.412, 629.124 471.412, 629.124 481.412, 629.124 491.412, 629.124 501.412, 629.124 511.412, 629.124 521.412, 629.124 531.412, 629.124 541.412, 629.124 551.412, 629.124 561.412, 629.124 571.412, 629.124 581.412, 629.124 591.412, 629.124 601.412, 629.124 611.412, 629.124 621.412, 629.124 631.412, 629.124 641.412, 629.124 651.412, 629.124 662.588, 629.124 " />
            <path fill="none" stroke-width="1.5" stroke-linecap="round" stroke-opacity="1.0" stroke="rgb(0, 0, 0)" stroke-linejoin="round" d=" M 327.948, 629.124 337.948, 629.124 347.948, 629.124 357.948, 629.124 361.412, 629.124 " />
            <path fill="none" stroke-width="1.5" stroke-linecap="round" stroke-opacity="1.0" stroke="rgb(0, 0, 0)" stroke-linejoin="round" d=" M 311.216, 629.124 321.216, 629.124 327.948, 629.124 " />
            <path fill="none" stroke-width="1.5" stroke-linecap="round" stroke-opacity="1.0" stroke="rgb(0, 0, 0)" stroke-linejoin="round" d=" M 712.784, 227.556 702.784, 227.556 692.784, 227.556 682.784, 227.556 672.784, 227.556 662.784, 227.556 652.784, 227.556 642.784, 227.556 632.784, 227.556 622.784, 227.556 612.784, 227.556 602.784, 227.556 592.784, 227.556 582.784, 227.556 572.784, 227.556 562.784, 227.556 552.784, 227.556 542.784, 227.556 532.784, 227.556 522.784, 227.556 512.784, 227.556 502.784, 227.556 492.784, 227.556 482.784, 227.556 472.784, 227.556 462.784, 227.556 452.784, 227.556 442.784, 227.556 432.784, 227.556 422.784, 227.556 412.784, 227.556 402.784, 227.556 392.784, 227.556 382.784, 227.556 372.784, 227.556 362.784, 227.556 352.784, 227.556 342.784, 227.556 332.784, 227.556 322.784, 227.556 311.216, 227.556 " />
            <path fill="none" stroke-width="1.5" stroke-linecap="round" stroke-opacity="1.0" stroke="rgb(0, 0, 0)" stroke-linejoin="round" d=" M 712.784, 578.928 722.784, 578.928 732.784, 578.928 742.784, 578.928 746.248, 578.928 " />
        </g>
    </g>
    <g id="ViewLayer_TechnicalLines.003" inkscape:groupmode="lineset" inkscape:label="ViewLayer_TechnicalLines.003">
        <g inkscape:groupmode="layer" id="strokes" inkscape:label="strokes">
            <path fill="none" stroke-width="1.5" stroke-linecap="round" stroke-opacity="1.0" stroke="rgb(0, 0, 0)" stroke-linejoin="round" d=" M 311.216, 662.588 311.216, 662.588 321.216, 662.588 327.948, 662.588 " />
            <path fill="none" stroke-width="1.5" stroke-linecap="round" stroke-opacity="1.0" stroke="rgb(0, 0, 0)" stroke-linejoin="round" d=" M 696.052, 662.588 706.052, 662.588 712.784, 662.588 712.784, 662.588 712.784, 652.588 712.784, 642.588 712.784, 632.588 712.784, 629.124 " />
            <path fill="none" stroke-width="1.5" stroke-linecap="round" stroke-opacity="1.0" stroke="rgb(0, 0, 0)" stroke-linejoin="round" d=" M 311.216, 662.588 321.216, 662.588 327.948, 662.588 " />
            <path fill="none" stroke-width="1.5" stroke-linecap="round" stroke-opacity="1.0" stroke="rgb(0, 0, 0)" stroke-linejoin="round" d=" M 712.784, 629.124 712.784, 619.124 712.784, 609.124 712.784, 599.124 712.784, 595.660 712.784, 595.660 712.784, 585.660 712.784, 578.928 712.784, 578.928 712.784, 568.928 712.784, 558.928 712.784, 548.928 712.784, 538.928 712.784, 528.928 712.784, 518.928 712.784, 512.000 712.784, 512.000 712.784, 502.000 712.784, 492.000 712.784, 482.000 712.784, 472.000 712.784, 462.000 712.784, 452.000 712.784, 442.000 712.784, 432.000 712.784, 422.000 712.784, 412.000 712.784, 402.000 712.784, 392.000 712.784, 382.000 712.784, 372.000 712.784, 362.000 712.784, 352.000 712.784, 342.000 712.784, 332.000 712.784, 322.000 712.784, 312.000 712.784, 302.000 712.784, 292.000 712.784, 282.000 712.784, 272.000 712.784, 262.000 712.784, 252.000 712.784, 242.000 712.784, 232.000 712.784, 227.556 " />
            <path fill="none" stroke-width="1.5" stroke-linecap="round" stroke-opacity="1.0" stroke="rgb(0, 0, 0)" stroke-linejoin="round" d=" M 311.216, 512.000 301.216, 512.000 291.216, 512.000 281.216, 512.000 277.752, 512.000 277.752, 512.000 277.752, 522.000 277.752, 532.000 277.752, 542.000 277.752, 552.000 277.752, 562.000 277.752, 572.000 277.752, 578.928 277.752, 578.928 287.752, 578.928 297.752, 578.928 307.752, 578.928 311.216, 578.928 " />
            <path fill="none" stroke-width="1.5" stroke-linecap="round" stroke-opacity="1.0" stroke="rgb(0, 0, 0)" stroke-linejoin="round" d=" M 277.752, 578.928 287.752, 578.928 297.752, 578.928 307.752, 578.928 311.216, 578.928 " />
            <path fill="none" stroke-width="1.5" stroke-linecap="round" stroke-opacity="1.0" stroke="rgb(0, 0, 0)" stroke-linejoin="round" d=" M 712.784, 578.928 722.784, 578.928 732.784, 578.928 742.784, 578.928 746.248, 578.928 746.248, 578.928 746.248, 568.928 746.248, 558.928 746.248, 548.928 746.248, 538.928 746.248, 528.928 746.248, 518.928 746.248, 512.000 746.248, 512.000 736.248, 512.000 726.248, 512.000 716.248, 512.000 712.784, 512.000 " />
            <path fill="none" stroke-width="1.5" stroke-linecap="round" stroke-opacity="1.0" stroke="rgb(0, 0, 0)" stroke-linejoin="round" d=" M 327.948, 796.444 328.269, 796.444 329.221, 796.444 330.768, 796.444 332.848, 796.444 335.384, 796.444 338.277, 796.444 341.415, 796.444 344.680, 796.444 347.944, 796.444 351.083, 796.444 353.976, 796.444 356.511, 796.444 358.592, 796.444 360.138, 796.444 361.090, 796.444 361.412, 796.444 361.412, 786.444 361.412, 776.444 361.412, 766.444 361.412, 756.444 361.412, 746.444 361.412, 736.444 361.412, 726.444 361.412, 716.444 361.412, 706.444 361.412, 696.444 361.412, 686.444 361.412, 676.444 361.412, 666.444 361.412, 662.588 361.412, 662.588 " />
            <path fill="none" stroke-width="1.5" stroke-linecap="round" stroke-opacity="1.0" stroke="rgb(0, 0, 0)" stroke-linejoin="round" d=" M 662.588, 796.444 662.910, 796.444 663.862, 796.444 665.408, 796.444 667.489, 796.444 670.024, 796.444 672.917, 796.444 676.056, 796.444 679.320, 796.444 682.585, 796.444 685.723, 796.444 688.616, 796.444 691.152, 796.444 693.232, 796.444 694.779, 796.444 695.731, 796.444 696.052, 796.444 696.052, 786.444 696.052, 776.444 696.052, 766.444 696.052, 756.444 696.052, 746.444 696.052, 736.444 696.052, 726.444 696.052, 716.444 696.052, 706.444 696.052, 696.444 696.052, 686.444 696.052, 676.444 696.052, 666.444 696.052, 662.588 696.052, 662.588 " />
            <path fill="none" stroke-width="1.5" stroke-linecap="round" stroke-opacity="1.0" stroke="rgb(0, 0, 0)" stroke-linejoin="round" d=" M 311.216, 227.556 311.216, 237.556 311.216, 247.556 311.216, 257.556 311.216, 267.556 311.216, 277.556 311.216, 287.556 311.216, 297.556 311.216, 307.556 311.216, 317.556 311.216, 327.556 311.216, 337.556 311.216, 347.556 311.216, 357.556 311.216, 367.556 311.216, 377.556 311.216, 387.556 311.216, 397.556 311.216, 407.556 311.216, 417.556 311.216, 427.556 311.216, 437.556 311.216, 447.556 311.216, 457.556 311.216, 467.556 311.216, 477.556 311.216, 487.556 311.216, 497.556 311.216, 507.556 311.216, 512.000 311.216, 512.000 311.216, 522.000 311.216, 532.000 311.216, 542.000 311.216, 552.000 311.216, 562.000 311.216, 572.000 311.216, 578.928 311.216, 578.928 311.216, 588.928 311.216, 595.660 311.216, 595.660 311.216, 605.660 311.216, 615.660 311.216, 625.660 311.216, 629.124 " />
            <path fill="none" stroke-width="1.5" stroke-linecap="round" stroke-opacity="1.0" stroke="rgb(0, 0, 0)" stroke-linejoin="round" d=" M 327.948, 662.588 327.948, 662.588 327.948, 672.588 327.948, 682.588 327.948, 692.588 327.948, 702.588 327.948, 712.588 327.948, 722.588 327.948, 732.588 327.948, 742.588 327.948, 752.588 327.948, 762.588 327.948, 772.588 327.948, 782.588 327.948, 792.588 327.948, 796.444 " />
            <path fill="none" stroke-width="1.5" stroke-linecap="round" stroke-opacity="1.0" stroke="rgb(0, 0, 0)" stroke-linejoin="round" d=" M 662.588, 662.588 662.588, 662.588 662.588, 672.588 662.588, 682.588 662.588, 692.588 662.588, 702.588 662.588, 712.588 662.588, 722.588 662.588, 732.588 662.588, 742.588 662.588, 752.588 662.588, 762.588 662.588, 772.588 662.588, 782.588 662.588, 792.588 662.588, 796.444 " />
            <path fill="none" stroke-width="1.5" stroke-linecap="round" stroke-opacity="1.0" stroke="rgb(0, 0, 0)" stroke-linejoin="round" d=" M 361.412, 662.588 371.412, 662.588 381.412, 662.588 391.412, 662.588 401.412, 662.588 411.412, 662.588 421.412, 662.588 431.412, 662.588 441.412, 662.588 451.412, 662.588 461.412, 662.588 471.412, 662.588 481.412, 662.588 491.412, 662.588 501.412, 662.588 511.412, 662.588 521.412, 662.588 531.412, 662.588 541.412, 662.588 551.412, 662.588 561.412, 662.588 571.412, 662.588 581.412, 662.588 591.412, 662.588 601.412, 662.588 611.412, 662.588 621.412, 662.588 631.412, 662.588 641.412, 662.588 651.412, 662.588 662.588, 662.588 " />
            <path fill="none" stroke-width="1.5" stroke-linecap="round" stroke-opacity="1.0" stroke="rgb(0, 0, 0)" stroke-linejoin="round" d=" M 696.052, 662.588 706.052, 662.588 712.784, 662.588 " />
            <path fill="none" stroke-width="1.5" stroke-linecap="round" stroke-opacity="1.0" stroke="rgb(0, 0, 0)" stroke-linejoin="round" d=" M 662.588, 662.588 672.588, 662.588 682.588, 662.588 692.588, 662.588 696.052, 662.588 " />
            <path fill="none" stroke-width="1.5" stroke-linecap="round" stroke-opacity="1.0" stroke="rgb(0, 0, 0)" stroke-linejoin="round" d=" M 361.412, 662.588 371.412, 662.588 381.412, 662.588 391.412, 662.588 401.412, 662.588 411.412, 662.588 421.412, 662.588 431.412, 662.588 441.412, 662.588 451.412, 662.588 461.412, 662.588 471.412, 662.588 481.412, 662.588 491.412, 662.588 501.412, 662.588 511.412, 662.588 521.412, 662.588 531.412, 662.588 541.412, 662.588 551.412, 662.588 561.412, 662.588 571.412, 662.588 581.412, 662.588 591.412, 662.588 601.412, 662.588 611.412, 662.588 621.412, 662.588 631.412, 662.588 641.412, 662.588 651.412, 662.588 662.588, 662.588 " />
            <path fill="none" stroke-width="1.5" stroke-linecap="round" stroke-opacity="1.0" stroke="rgb(0, 0, 0)" stroke-linejoin="round" d=" M 327.948, 662.588 337.948, 662.588 347.948, 662.588 357.948, 662.588 361.412, 662.588 " />
            <path fill="none" stroke-width="1.5" stroke-linecap="round" stroke-opacity="1.0" stroke="rgb(0, 0, 0)" stroke-linejoin="round" d=" M 696.052, 629.124 706.052, 629.124 712.784, 629.124 " />
            <path fill="none" stroke-width="1.5" stroke-linecap="round" stroke-opacity="1.0" stroke="rgb(0, 0, 0)" stroke-linejoin="round" d=" M 662.588, 629.124 672.588, 629.124 682.588, 629.124 692.588, 629.124 696.052, 629.124 " />
            <path fill="none" stroke-width="1.5" stroke-linecap="round" stroke-opacity="1.0" stroke="rgb(0, 0, 0)" stroke-linejoin="round" d=" M 361.412, 629.124 371.412, 629.124 381.412, 629.124 391.412, 629.124 401.412, 629.124 411.412, 629.124 421.412, 629.124 431.412, 629.124 441.412, 629.124 451.412, 629.124 461.412, 629.124 471.412, 629.124 481.412, 629.124 491.412, 629.124 501.412, 629.124 511.412, 629.124 521.412, 629.124 531.412, 629.124 541.412, 629.124 551.412, 629.124 561.412, 629.124 571.412, 629.124 581.412, 629.124 591.412, 629.124 601.412, 629.124 611.412, 629.124 621.412, 629.124 631.412, 629.124 641.412, 629.124 651.412, 629.124 662.588, 629.124 " />
            <path fill="none" stroke-width="1.5" stroke-linecap="round" stroke-opacity="1.0" stroke="rgb(0, 0, 0)" stroke-linejoin="round" d=" M 327.948, 629.124 337.948, 629.124 347.948, 629.124 357.948, 629.124 361.412, 629.124 " />
            <path fill="none" stroke-width="1.5" stroke-linecap="round" stroke-opacity="1.0" stroke="rgb(0, 0, 0)" stroke-linejoin="round" d=" M 311.216, 629.124 321.216, 629.124 327.948, 629.124 " />
            <path fill="none" stroke-width="1.5" stroke-linecap="round" stroke-opacity="1.0" stroke="rgb(0, 0, 0)" stroke-linejoin="round" d=" M 712.784, 227.556 702.784, 227.556 692.784, 227.556 682.784, 227.556 672.784, 227.556 662.784, 227.556 652.784, 227.556 642.784, 227.556 632.784, 227.556 622.784, 227.556 612.784, 227.556 602.784, 227.556 592.784, 227.556 582.784, 227.556 572.784, 227.556 562.784, 227.556 552.784, 227.556 542.784, 227.556 532.784, 227.556 522.784, 227.556 512.784, 227.556 502.784, 227.556 492.784, 227.556 482.784, 227.556 472.784, 227.556 462.784, 227.556 452.784, 227.556 442.784, 227.556 432.784, 227.556 422.784, 227.556 412.784, 227.556 402.784, 227.556 392.784, 227.556 382.784, 227.556 372.784, 227.556 362.784, 227.556 352.784, 227.556 342.784, 227.556 332.784, 227.556 322.784, 227.556 311.216, 227.556 " />
            <path fill="none" stroke-width="1.5" stroke-linecap="round" stroke-opacity="1.0" stroke="rgb(0, 0, 0)" stroke-linejoin="round" d=" M 712.784, 578.928 722.784, 578.928 732.784, 578.928 742.784, 578.928 746.248, 578.928 " />
        </g>
    </g>
    <g id="ViewLayer_TechnicalLines.004" xmlns:inkscape="http://www.inkscape.org/namespaces/inkscape" inkscape:groupmode="lineset" inkscape:label="ViewLayer_TechnicalLines.004">
        <g xmlns:inkscape="http://www.inkscape.org/namespaces/inkscape" inkscape:groupmode="layer" id="strokes" inkscape:label="strokes">
            <path fill="none" stroke-width="1.5" stroke-linecap="round" stroke-opacity="1.0" stroke="rgb(0, 0, 0)" stroke-linejoin="round" d=" M 311.216, 662.588 311.216, 662.588 321.216, 662.588 327.948, 662.588 " />
            <path fill="none" stroke-width="1.5" stroke-linecap="round" stroke-opacity="1.0" stroke="rgb(0, 0, 0)" stroke-linejoin="round" d=" M 696.052, 662.588 706.052, 662.588 712.784, 662.588 712.784, 662.588 712.784, 652.588 712.784, 642.588 712.784, 632.588 712.784, 629.124 " />
            <path fill="none" stroke-width="1.5" stroke-linecap="round" stroke-opacity="1.0" stroke="rgb(0, 0, 0)" stroke-linejoin="round" d=" M 311.216, 662.588 321.216, 662.588 327.948, 662.588 " />
            <path fill="none" stroke-width="1.5" stroke-linecap="round" stroke-opacity="1.0" stroke="rgb(0, 0, 0)" stroke-linejoin="round" d=" M 712.784, 629.124 712.784, 619.124 712.784, 609.124 712.784, 599.124 712.784, 595.660 712.784, 595.660 712.784, 585.660 712.784, 578.928 712.784, 578.928 712.784, 568.928 712.784, 558.928 712.784, 548.928 712.784, 538.928 712.784, 528.928 712.784, 518.928 712.784, 512.000 712.784, 512.000 712.784, 502.000 712.784, 492.000 712.784, 482.000 712.784, 472.000 712.784, 462.000 712.784, 452.000 712.784, 442.000 712.784, 432.000 712.784, 422.000 712.784, 412.000 712.784, 402.000 712.784, 392.000 712.784, 382.000 712.784, 372.000 712.784, 362.000 712.784, 352.000 712.784, 342.000 712.784, 332.000 712.784, 322.000 712.784, 312.000 712.784, 302.000 712.784, 292.000 712.784, 282.000 712.784, 272.000 712.784, 262.000 712.784, 252.000 712.784, 242.000 712.784, 232.000 712.784, 227.556 " />
            <path fill="none" stroke-width="1.5" stroke-linecap="round" stroke-opacity="1.0" stroke="rgb(0, 0, 0)" stroke-linejoin="round" d=" M 311.216, 512.000 301.216, 512.000 291.216, 512.000 281.216, 512.000 277.752, 512.000 277.752, 512.000 277.752, 522.000 277.752, 532.000 277.752, 542.000 277.752, 552.000 277.752, 562.000 277.752, 572.000 277.752, 578.928 277.752, 578.928 287.752, 578.928 297.752, 578.928 307.752, 578.928 311.216, 578.928 " />
            <path fill="none" stroke-width="1.5" stroke-linecap="round" stroke-opacity="1.0" stroke="rgb(0, 0, 0)" stroke-linejoin="round" d=" M 277.752, 578.928 287.752, 578.928 297.752, 578.928 307.752, 578.928 311.216, 578.928 " />
            <path fill="none" stroke-width="1.5" stroke-linecap="round" stroke-opacity="1.0" stroke="rgb(0, 0, 0)" stroke-linejoin="round" d=" M 712.784, 578.928 722.784, 578.928 732.784, 578.928 742.784, 578.928 746.248, 578.928 746.248, 578.928 746.248, 568.928 746.248, 558.928 746.248, 548.928 746.248, 538.928 746.248, 528.928 746.248, 518.928 746.248, 512.000 746.248, 512.000 736.248, 512.000 726.248, 512.000 716.248, 512.000 712.784, 512.000 " />
            <path fill="none" stroke-width="1.5" stroke-linecap="round" stroke-opacity="1.0" stroke="rgb(0, 0, 0)" stroke-linejoin="round" d=" M 327.948, 796.444 328.269, 796.444 329.221, 796.444 330.768, 796.444 332.848, 796.444 335.384, 796.444 338.277, 796.444 341.415, 796.444 344.680, 796.444 347.944, 796.444 351.083, 796.444 353.976, 796.444 356.511, 796.444 358.592, 796.444 360.138, 796.444 361.090, 796.444 361.412, 796.444 361.412, 786.444 361.412, 776.444 361.412, 766.444 361.412, 756.444 361.412, 746.444 361.412, 736.444 361.412, 726.444 361.412, 716.444 361.412, 706.444 361.412, 696.444 361.412, 686.444 361.412, 676.444 361.412, 666.444 361.412, 662.588 361.412, 662.588 " />
            <path fill="none" stroke-width="1.5" stroke-linecap="round" stroke-opacity="1.0" stroke="rgb(0, 0, 0)" stroke-linejoin="round" d=" M 662.588, 796.444 662.910, 796.444 663.862, 796.444 665.408, 796.444 667.489, 796.444 670.024, 796.444 672.917, 796.444 676.056, 796.444 679.320, 796.444 682.585, 796.444 685.723, 796.444 688.616, 796.444 691.152, 796.444 693.232, 796.444 694.779, 796.444 695.731, 796.444 696.052, 796.444 696.052, 786.444 696.052, 776.444 696.052, 766.444 696.052, 756.444 696.052, 746.444 696.052, 736.444 696.052, 726.444 696.052, 716.444 696.052, 706.444 696.052, 696.444 696.052, 686.444 696.052, 676.444 696.052, 666.444 696.052, 662.588 696.052, 662.588 " />
            <path fill="none" stroke-width="1.5" stroke-linecap="round" stroke-opacity="1.0" stroke="rgb(0, 0, 0)" stroke-linejoin="round" d=" M 311.216, 227.556 311.216, 237.556 311.216, 247.556 311.216, 257.556 311.216, 267.556 311.216, 277.556 311.216, 287.556 311.216, 297.556 311.216, 307.556 311.216, 317.556 311.216, 327.556 311.216, 337.556 311.216, 347.556 311.216, 357.556 311.216, 367.556 311.216, 377.556 311.216, 387.556 311.216, 397.556 311.216, 407.556 311.216, 417.556 311.216, 427.556 311.216, 437.556 311.216, 447.556 311.216, 457.556 311.216, 467.556 311.216, 477.556 311.216, 487.556 311.216, 497.556 311.216, 507.556 311.216, 512.000 311.216, 512.000 311.216, 522.000 311.216, 532.000 311.216, 542.000 311.216, 552.000 311.216, 562.000 311.216, 572.000 311.216, 578.928 311.216, 578.928 311.216, 588.928 311.216, 595.660 311.216, 595.660 311.216, 605.660 311.216, 615.660 311.216, 625.660 311.216, 629.124 " />
            <path fill="none" stroke-width="1.5" stroke-linecap="round" stroke-opacity="1.0" stroke="rgb(0, 0, 0)" stroke-linejoin="round" d=" M 327.948, 662.588 327.948, 662.588 327.948, 672.588 327.948, 682.588 327.948, 692.588 327.948, 702.588 327.948, 712.588 327.948, 722.588 327.948, 732.588 327.948, 742.588 327.948, 752.588 327.948, 762.588 327.948, 772.588 327.948, 782.588 327.948, 792.588 327.948, 796.444 " />
            <path fill="none" stroke-width="1.5" stroke-linecap="round" stroke-opacity="1.0" stroke="rgb(0, 0, 0)" stroke-linejoin="round" d=" M 662.588, 662.588 662.588, 662.588 662.588, 672.588 662.588, 682.588 662.588, 692.588 662.588, 702.588 662.588, 712.588 662.588, 722.588 662.588, 732.588 662.588, 742.588 662.588, 752.588 662.588, 762.588 662.588, 772.588 662.588, 782.588 662.588, 792.588 662.588, 796.444 " />
            <path fill="none" stroke-width="1.5" stroke-linecap="round" stroke-opacity="1.0" stroke="rgb(0, 0, 0)" stroke-linejoin="round" d=" M 361.412, 662.588 371.412, 662.588 381.412, 662.588 391.412, 662.588 401.412, 662.588 411.412, 662.588 421.412, 662.588 431.412, 662.588 441.412, 662.588 451.412, 662.588 461.412, 662.588 471.412, 662.588 481.412, 662.588 491.412, 662.588 501.412, 662.588 511.412, 662.588 521.412, 662.588 531.412, 662.588 541.412, 662.588 551.412, 662.588 561.412, 662.588 571.412, 662.588 581.412, 662.588 591.412, 662.588 601.412, 662.588 611.412, 662.588 621.412, 662.588 631.412, 662.588 641.412, 662.588 651.412, 662.588 662.588, 662.588 " />
            <path fill="none" stroke-width="1.5" stroke-linecap="round" stroke-opacity="1.0" stroke="rgb(0, 0, 0)" stroke-linejoin="round" d=" M 696.052, 662.588 706.052, 662.588 712.784, 662.588 " />
            <path fill="none" stroke-width="1.5" stroke-linecap="round" stroke-opacity="1.0" stroke="rgb(0, 0, 0)" stroke-linejoin="round" d=" M 662.588, 662.588 672.588, 662.588 682.588, 662.588 692.588, 662.588 696.052, 662.588 " />
            <path fill="none" stroke-width="1.5" stroke-linecap="round" stroke-opacity="1.0" stroke="rgb(0, 0, 0)" stroke-linejoin="round" d=" M 361.412, 662.588 371.412, 662.588 381.412, 662.588 391.412, 662.588 401.412, 662.588 411.412, 662.588 421.412, 662.588 431.412, 662.588 441.412, 662.588 451.412, 662.588 461.412, 662.588 471.412, 662.588 481.412, 662.588 491.412, 662.588 501.412, 662.588 511.412, 662.588 521.412, 662.588 531.412, 662.588 541.412, 662.588 551.412, 662.588 561.412, 662.588 571.412, 662.588 581.412, 662.588 591.412, 662.588 601.412, 662.588 611.412, 662.588 621.412, 662.588 631.412, 662.588 641.412, 662.588 651.412, 662.588 662.588, 662.588 " />
            <path fill="none" stroke-width="1.5" stroke-linecap="round" stroke-opacity="1.0" stroke="rgb(0, 0, 0)" stroke-linejoin="round" d=" M 327.948, 662.588 337.948, 662.588 347.948, 662.588 357.948, 662.588 361.412, 662.588 " />
            <path fill="none" stroke-width="1.5" stroke-linecap="round" stroke-opacity="1.0" stroke="rgb(0, 0, 0)" stroke-linejoin="round" d=" M 696.052, 629.124 706.052, 629.124 712.784, 629.124 " />
            <path fill="none" stroke-width="1.5" stroke-linecap="round" stroke-opacity="1.0" stroke="rgb(0, 0, 0)" stroke-linejoin="round" d=" M 662.588, 629.124 672.588, 629.124 682.588, 629.124 692.588, 629.124 696.052, 629.124 " />
            <path fill="none" stroke-width="1.5" stroke-linecap="round" stroke-opacity="1.0" stroke="rgb(0, 0, 0)" stroke-linejoin="round" d=" M 361.412, 629.124 371.412, 629.124 381.412, 629.124 391.412, 629.124 401.412, 629.124 411.412, 629.124 421.412, 629.124 431.412, 629.124 441.412, 629.124 451.412, 629.124 461.412, 629.124 471.412, 629.124 481.412, 629.124 491.412, 629.124 501.412, 629.124 511.412, 629.124 521.412, 629.124 531.412, 629.124 541.412, 629.124 551.412, 629.124 561.412, 629.124 571.412, 629.124 581.412, 629.124 591.412, 629.124 601.412, 629.124 611.412, 629.124 621.412, 629.124 631.412, 629.124 641.412, 629.124 651.412, 629.124 662.588, 629.124 " />
            <path fill="none" stroke-width="1.5" stroke-linecap="round" stroke-opacity="1.0" stroke="rgb(0, 0, 0)" stroke-linejoin="round" d=" M 327.948, 629.124 337.948, 629.124 347.948, 629.124 357.948, 629.124 361.412, 629.124 " />
            <path fill="none" stroke-width="1.5" stroke-linecap="round" stroke-opacity="1.0" stroke="rgb(0, 0, 0)" stroke-linejoin="round" d=" M 311.216, 629.124 321.216, 629.124 327.948, 629.124 " />
            <path fill="none" stroke-width="1.5" stroke-linecap="round" stroke-opacity="1.0" stroke="rgb(0, 0, 0)" stroke-linejoin="round" d=" M 712.784, 227.556 702.784, 227.556 692.784, 227.556 682.784, 227.556 672.784, 227.556 662.784, 227.556 652.784, 227.556 642.784, 227.556 632.784, 227.556 622.784, 227.556 612.784, 227.556 602.784, 227.556 592.784, 227.556 582.784, 227.556 572.784, 227.556 562.784, 227.556 552.784, 227.556 542.784, 227.556 532.784, 227.556 522.784, 227.556 512.784, 227.556 502.784, 227.556 492.784, 227.556 482.784, 227.556 472.784, 227.556 462.784, 227.556 452.784, 227.556 442.784, 227.556 432.784, 227.556 422.784, 227.556 412.784, 227.556 402.784, 227.556 392.784, 227.556 382.784, 227.556 372.784, 227.556 362.784, 227.556 352.784, 227.556 342.784, 227.556 332.784, 227.556 322.784, 227.556 311.216, 227.556 " />
            <path fill="none" stroke-width="1.5" stroke-linecap="round" stroke-opacity="1.0" stroke="rgb(0, 0, 0)" stroke-linejoin="round" d=" M 712.784, 578.928 722.784, 578.928 732.784, 578.928 742.784, 578.928 746.248, 578.928 " />
        </g>
    </g>
</svg>
