<?xml version='1.0' encoding='ascii'?>
<svg xmlns="http://www.w3.org/2000/svg" xmlns:inkscape="http://www.inkscape.org/namespaces/inkscape" version="1.1" width="1024" height="1024">
    <g id="ViewLayer_LineSet" inkscape:groupmode="lineset" inkscape:label="ViewLayer_LineSet">
        <g inkscape:groupmode="layer" id="strokes" inkscape:label="strokes">
            <path fill="none" stroke-width="3.0" stroke-linecap="butt" stroke-opacity="1.0" stroke="rgb(0, 0, 0)" stroke-linejoin="round" d=" M 630.518, 606.815 630.518, 596.815 630.518, 586.815 630.518, 576.815 630.518, 566.815 630.518, 556.815 630.518, 546.815 630.518, 536.815 630.518, 526.815 630.518, 516.815 630.518, 506.815 630.518, 496.815 630.518, 486.815 630.518, 476.815 630.518, 466.815 630.518, 456.815 630.518, 446.815 630.518, 436.815 630.518, 426.815 630.518, 416.815 630.518, 406.815 630.518, 396.815 630.518, 386.815 630.518, 376.815 630.518, 369.778 " />
            <path fill="none" stroke-width="3.0" stroke-linecap="butt" stroke-opacity="1.0" stroke="rgb(0, 0, 0)" stroke-linejoin="round" d=" M 393.481, 654.222 403.481, 654.222 413.481, 654.222 423.481, 654.222 433.481, 654.222 443.481, 654.222 453.481, 654.222 463.481, 654.222 473.481, 654.222 483.481, 654.222 493.481, 654.222 503.481, 654.222 513.482, 654.222 523.482, 654.222 533.482, 654.222 543.482, 654.222 553.482, 654.222 563.482, 654.222 573.482, 654.222 583.482, 654.222 593.482, 654.222 603.482, 654.222 613.482, 654.222 623.482, 654.222 630.518, 654.222 630.518, 644.222 630.518, 634.222 630.518, 624.222 630.518, 614.222 630.518, 606.815 620.518, 606.815 610.518, 606.815 600.518, 606.815 590.518, 606.815 580.518, 606.815 570.518, 606.815 560.518, 606.815 550.518, 606.815 540.518, 606.815 530.518, 606.815 520.518, 606.815 510.519, 606.815 500.519, 606.815 490.519, 606.815 480.519, 606.815 470.519, 606.815 460.519, 606.815 450.519, 606.815 440.519, 606.815 430.519, 606.815 420.519, 606.815 410.519, 606.815 400.519, 606.815 393.481, 606.815 393.481, 616.815 393.481, 626.815 393.481, 636.815 393.481, 646.815 393.481, 654.222 " />
            <path fill="none" stroke-width="3.0" stroke-linecap="butt" stroke-opacity="1.0" stroke="rgb(0, 0, 0)" stroke-linejoin="round" d=" M 274.963, 606.815 274.963, 596.815 274.963, 586.815 274.963, 576.815 274.963, 566.815 274.963, 556.815 274.963, 546.815 274.963, 536.815 274.963, 526.815 274.963, 516.815 274.963, 506.815 274.963, 496.815 274.963, 486.815 274.963, 476.815 274.963, 466.815 274.963, 456.815 274.963, 446.815 274.963, 436.815 274.963, 426.815 274.963, 416.815 274.963, 406.815 274.963, 396.815 274.963, 386.815 274.963, 376.815 274.963, 369.778 " />
            <path fill="none" stroke-width="3.0" stroke-linecap="butt" stroke-opacity="1.0" stroke="rgb(0, 0, 0)" stroke-linejoin="round" d=" M 796.444, 606.815 796.444, 596.815 796.444, 586.815 796.444, 576.815 796.444, 566.815 796.444, 556.815 796.444, 546.815 796.444, 536.815 796.444, 526.815 796.444, 516.815 796.444, 506.815 796.444, 496.815 796.444, 486.815 796.444, 476.815 796.444, 466.815 796.444, 456.815 796.444, 446.815 796.444, 436.815 796.444, 426.815 796.444, 416.815 796.444, 406.815 796.444, 396.815 796.444, 386.815 796.444, 376.815 796.444, 369.778 " />
            <path fill="none" stroke-width="3.0" stroke-linecap="butt" stroke-opacity="1.0" stroke="rgb(0, 0, 0)" stroke-linejoin="round" d=" M 436.148, 521.481 436.148, 531.481 436.148, 541.481 436.148, 551.481 436.148, 561.481 436.148, 571.481 436.148, 581.481 436.148, 591.481 436.148, 597.333 446.148, 597.333 456.148, 597.333 466.148, 597.333 476.148, 597.333 486.148, 597.333 496.148, 597.333 506.148, 597.333 516.148, 597.333 526.148, 597.333 536.148, 597.333 546.148, 597.333 556.148, 597.333 566.148, 597.333 576.148, 597.333 586.148, 597.333 587.852, 597.333 587.852, 587.333 587.852, 577.333 587.852, 567.333 587.852, 557.333 587.852, 547.333 587.852, 537.333 587.852, 527.333 587.852, 521.481 577.852, 521.481 567.852, 521.481 557.852, 521.481 547.852, 521.481 537.852, 521.481 527.852, 521.481 517.852, 521.481 507.852, 521.481 497.852, 521.481 487.852, 521.481 477.852, 521.481 467.852, 521.481 457.852, 521.481 447.852, 521.481 437.852, 521.481 436.148, 521.481 " />
            <path fill="none" stroke-width="3.0" stroke-linecap="butt" stroke-opacity="1.0" stroke="rgb(0, 0, 0)" stroke-linejoin="round" d=" M 436.148, 379.259 436.148, 389.259 436.148, 399.259 436.148, 409.259 436.148, 419.259 436.148, 429.259 436.148, 439.259 436.148, 449.259 436.148, 455.111 446.148, 455.111 456.148, 455.111 466.148, 455.111 476.148, 455.111 486.148, 455.111 496.148, 455.111 506.148, 455.111 516.148, 455.111 526.148, 455.111 536.148, 455.111 546.148, 455.111 556.148, 455.111 566.148, 455.111 576.148, 455.111 586.148, 455.111 587.852, 455.111 587.852, 445.111 587.852, 435.111 587.852, 425.111 587.852, 415.111 587.852, 405.111 587.852, 395.111 587.852, 385.111 587.852, 379.259 577.852, 379.259 567.852, 379.259 557.852, 379.259 547.852, 379.259 537.852, 379.259 527.852, 379.259 517.852, 379.259 507.852, 379.259 497.852, 379.259 487.852, 379.259 477.852, 379.259 467.852, 379.259 457.852, 379.259 447.852, 379.259 437.852, 379.259 436.148, 379.259 " />
            <path fill="none" stroke-width="3.0" stroke-linecap="butt" stroke-opacity="1.0" stroke="rgb(0, 0, 0)" stroke-linejoin="round" d=" M 227.556, 369.778 227.556, 379.778 227.556, 389.778 227.556, 399.778 227.556, 409.778 227.556, 419.778 227.556, 429.778 227.556, 439.778 227.556, 449.778 227.556, 459.778 227.556, 469.778 227.556, 479.778 227.556, 489.778 227.556, 499.778 227.556, 509.778 227.556, 519.778 227.556, 529.778 227.556, 539.778 227.556, 549.778 227.556, 559.778 227.556, 569.778 227.556, 579.778 227.556, 589.778 227.556, 599.778 227.556, 606.815 " />
            <path fill="none" stroke-width="3.0" stroke-linecap="butt" stroke-opacity="1.0" stroke="rgb(0, 0, 0)" stroke-linejoin="round" d=" M 227.556, 606.815 237.556, 606.815 247.556, 606.815 257.556, 606.815 267.556, 606.815 274.963, 606.815 " />
            <path fill="none" stroke-width="3.0" stroke-linecap="butt" stroke-opacity="1.0" stroke="rgb(0, 0, 0)" stroke-linejoin="round" d=" M 274.963, 369.778 264.963, 369.778 254.963, 369.778 244.963, 369.778 234.963, 369.778 227.556, 369.778 " />
            <path fill="none" stroke-width="3.0" stroke-linecap="butt" stroke-opacity="1.0" stroke="rgb(0, 0, 0)" stroke-linejoin="round" d=" M 393.481, 369.778 393.481, 379.778 393.481, 389.778 393.481, 399.778 393.481, 409.778 393.481, 419.778 393.481, 429.778 393.481, 439.778 393.481, 449.778 393.481, 459.778 393.481, 469.778 393.481, 479.778 393.481, 489.778 393.481, 499.778 393.481, 509.778 393.481, 519.778 393.481, 529.778 393.481, 539.778 393.481, 549.778 393.481, 559.778 393.481, 569.778 393.481, 579.778 393.481, 589.778 393.481, 599.778 393.481, 606.815 " />
            <path fill="none" stroke-width="3.0" stroke-linecap="butt" stroke-opacity="1.0" stroke="rgb(0, 0, 0)" stroke-linejoin="round" d=" M 393.481, 606.815 403.481, 606.815 413.481, 606.815 423.481, 606.815 433.481, 606.815 443.481, 606.815 453.481, 606.815 463.481, 606.815 473.481, 606.815 483.481, 606.815 493.481, 606.815 503.481, 606.815 513.482, 606.815 523.482, 606.815 533.482, 606.815 543.482, 606.815 553.482, 606.815 563.482, 606.815 573.482, 606.815 583.482, 606.815 593.482, 606.815 603.482, 606.815 613.482, 606.815 623.482, 606.815 630.518, 606.815 " />
            <path fill="none" stroke-width="3.0" stroke-linecap="butt" stroke-opacity="1.0" stroke="rgb(0, 0, 0)" stroke-linejoin="round" d=" M 630.518, 369.778 620.518, 369.778 610.518, 369.778 600.518, 369.778 590.518, 369.778 580.518, 369.778 570.518, 369.778 560.518, 369.778 550.518, 369.778 540.518, 369.778 530.518, 369.778 520.518, 369.778 510.519, 369.778 500.519, 369.778 490.519, 369.778 480.519, 369.778 470.519, 369.778 460.519, 369.778 450.519, 369.778 440.519, 369.778 430.519, 369.778 420.519, 369.778 410.519, 369.778 400.519, 369.778 393.481, 369.778 " />
            <path fill="none" stroke-width="3.0" stroke-linecap="butt" stroke-opacity="1.0" stroke="rgb(0, 0, 0)" stroke-linejoin="round" d=" M 749.037, 369.778 749.037, 379.778 749.037, 389.778 749.037, 399.778 749.037, 409.778 749.037, 419.778 749.037, 429.778 749.037, 439.778 749.037, 449.778 749.037, 459.778 749.037, 469.778 749.037, 479.778 749.037, 489.778 749.037, 499.778 749.037, 509.778 749.037, 519.778 749.037, 529.778 749.037, 539.778 749.037, 549.778 749.037, 559.778 749.037, 569.778 749.037, 579.778 749.037, 589.778 749.037, 599.778 749.037, 606.815 " />
            <path fill="none" stroke-width="3.0" stroke-linecap="butt" stroke-opacity="1.0" stroke="rgb(0, 0, 0)" stroke-linejoin="round" d=" M 749.037, 606.815 759.037, 606.815 769.037, 606.815 779.037, 606.815 789.037, 606.815 796.444, 606.815 " />
            <path fill="none" stroke-width="3.0" stroke-linecap="butt" stroke-opacity="1.0" stroke="rgb(0, 0, 0)" stroke-linejoin="round" d=" M 796.444, 369.778 786.444, 369.778 776.444, 369.778 766.444, 369.778 756.444, 369.778 749.037, 369.778 " />
        </g>
    </g>
    <g id="ViewLayer_TechnicalLines" inkscape:groupmode="lineset" inkscape:label="ViewLayer_TechnicalLines">
        <g inkscape:groupmode="layer" id="strokes" inkscape:label="strokes">
            <path fill="none" stroke-width="3.0" stroke-linecap="butt" stroke-opacity="1.0" stroke="rgb(0, 0, 0)" stroke-linejoin="round" d=" M 630.518, 606.815 630.518, 596.815 630.518, 586.815 630.518, 576.815 630.518, 566.815 630.518, 556.815 630.518, 546.815 630.518, 536.815 630.518, 526.815 630.518, 516.815 630.518, 506.815 630.518, 496.815 630.518, 486.815 630.518, 476.815 630.518, 466.815 630.518, 456.815 630.518, 446.815 630.518, 436.815 630.518, 426.815 630.518, 416.815 630.518, 406.815 630.518, 396.815 630.518, 386.815 630.518, 376.815 630.518, 369.778 " />
            <path fill="none" stroke-width="3.0" stroke-linecap="butt" stroke-opacity="1.0" stroke="rgb(0, 0, 0)" stroke-linejoin="round" d=" M 393.481, 654.222 403.481, 654.222 413.481, 654.222 423.481, 654.222 433.481, 654.222 443.481, 654.222 453.481, 654.222 463.481, 654.222 473.481, 654.222 483.481, 654.222 493.481, 654.222 503.481, 654.222 513.482, 654.222 523.482, 654.222 533.482, 654.222 543.482, 654.222 553.482, 654.222 563.482, 654.222 573.482, 654.222 583.482, 654.222 593.482, 654.222 603.482, 654.222 613.482, 654.222 623.482, 654.222 630.518, 654.222 630.518, 644.222 630.518, 634.222 630.518, 624.222 630.518, 614.222 630.518, 606.815 620.518, 606.815 610.518, 606.815 600.518, 606.815 590.518, 606.815 580.518, 606.815 570.518, 606.815 560.518, 606.815 550.518, 606.815 540.518, 606.815 530.518, 606.815 520.518, 606.815 510.519, 606.815 500.519, 606.815 490.519, 606.815 480.519, 606.815 470.519, 606.815 460.519, 606.815 450.519, 606.815 440.519, 606.815 430.519, 606.815 420.519, 606.815 410.519, 606.815 400.519, 606.815 393.481, 606.815 393.481, 616.815 393.481, 626.815 393.481, 636.815 393.481, 646.815 393.481, 654.222 " />
            <path fill="none" stroke-width="3.0" stroke-linecap="butt" stroke-opacity="1.0" stroke="rgb(0, 0, 0)" stroke-linejoin="round" d=" M 274.963, 606.815 274.963, 596.815 274.963, 586.815 274.963, 576.815 274.963, 566.815 274.963, 556.815 274.963, 546.815 274.963, 536.815 274.963, 526.815 274.963, 516.815 274.963, 506.815 274.963, 496.815 274.963, 486.815 274.963, 476.815 274.963, 466.815 274.963, 456.815 274.963, 446.815 274.963, 436.815 274.963, 426.815 274.963, 416.815 274.963, 406.815 274.963, 396.815 274.963, 386.815 274.963, 376.815 274.963, 369.778 " />
            <path fill="none" stroke-width="3.0" stroke-linecap="butt" stroke-opacity="1.0" stroke="rgb(0, 0, 0)" stroke-linejoin="round" d=" M 796.444, 606.815 796.444, 596.815 796.444, 586.815 796.444, 576.815 796.444, 566.815 796.444, 556.815 796.444, 546.815 796.444, 536.815 796.444, 526.815 796.444, 516.815 796.444, 506.815 796.444, 496.815 796.444, 486.815 796.444, 476.815 796.444, 466.815 796.444, 456.815 796.444, 446.815 796.444, 436.815 796.444, 426.815 796.444, 416.815 796.444, 406.815 796.444, 396.815 796.444, 386.815 796.444, 376.815 796.444, 369.778 " />
            <path fill="none" stroke-width="3.0" stroke-linecap="butt" stroke-opacity="1.0" stroke="rgb(0, 0, 0)" stroke-linejoin="round" d=" M 436.148, 521.481 436.148, 531.481 436.148, 541.481 436.148, 551.481 436.148, 561.481 436.148, 571.481 436.148, 581.481 436.148, 591.481 436.148, 597.333 446.148, 597.333 456.148, 597.333 466.148, 597.333 476.148, 597.333 486.148, 597.333 496.148, 597.333 506.148, 597.333 516.148, 597.333 526.148, 597.333 536.148, 597.333 546.148, 597.333 556.148, 597.333 566.148, 597.333 576.148, 597.333 586.148, 597.333 587.852, 597.333 587.852, 587.333 587.852, 577.333 587.852, 567.333 587.852, 557.333 587.852, 547.333 587.852, 537.333 587.852, 527.333 587.852, 521.481 577.852, 521.481 567.852, 521.481 557.852, 521.481 547.852, 521.481 537.852, 521.481 527.852, 521.481 517.852, 521.481 507.852, 521.481 497.852, 521.481 487.852, 521.481 477.852, 521.481 467.852, 521.481 457.852, 521.481 447.852, 521.481 437.852, 521.481 436.148, 521.481 " />
            <path fill="none" stroke-width="3.0" stroke-linecap="butt" stroke-opacity="1.0" stroke="rgb(0, 0, 0)" stroke-linejoin="round" d=" M 436.148, 379.259 436.148, 389.259 436.148, 399.259 436.148, 409.259 436.148, 419.259 436.148, 429.259 436.148, 439.259 436.148, 449.259 436.148, 455.111 446.148, 455.111 456.148, 455.111 466.148, 455.111 476.148, 455.111 486.148, 455.111 496.148, 455.111 506.148, 455.111 516.148, 455.111 526.148, 455.111 536.148, 455.111 546.148, 455.111 556.148, 455.111 566.148, 455.111 576.148, 455.111 586.148, 455.111 587.852, 455.111 587.852, 445.111 587.852, 435.111 587.852, 425.111 587.852, 415.111 587.852, 405.111 587.852, 395.111 587.852, 385.111 587.852, 379.259 577.852, 379.259 567.852, 379.259 557.852, 379.259 547.852, 379.259 537.852, 379.259 527.852, 379.259 517.852, 379.259 507.852, 379.259 497.852, 379.259 487.852, 379.259 477.852, 379.259 467.852, 379.259 457.852, 379.259 447.852, 379.259 437.852, 379.259 436.148, 379.259 " />
            <path fill="none" stroke-width="3.0" stroke-linecap="butt" stroke-opacity="1.0" stroke="rgb(0, 0, 0)" stroke-linejoin="round" d=" M 227.556, 369.778 227.556, 379.778 227.556, 389.778 227.556, 399.778 227.556, 409.778 227.556, 419.778 227.556, 429.778 227.556, 439.778 227.556, 449.778 227.556, 459.778 227.556, 469.778 227.556, 479.778 227.556, 489.778 227.556, 499.778 227.556, 509.778 227.556, 519.778 227.556, 529.778 227.556, 539.778 227.556, 549.778 227.556, 559.778 227.556, 569.778 227.556, 579.778 227.556, 589.778 227.556, 599.778 227.556, 606.815 " />
            <path fill="none" stroke-width="3.0" stroke-linecap="butt" stroke-opacity="1.0" stroke="rgb(0, 0, 0)" stroke-linejoin="round" d=" M 227.556, 606.815 237.556, 606.815 247.556, 606.815 257.556, 606.815 267.556, 606.815 274.963, 606.815 " />
            <path fill="none" stroke-width="3.0" stroke-linecap="butt" stroke-opacity="1.0" stroke="rgb(0, 0, 0)" stroke-linejoin="round" d=" M 274.963, 369.778 264.963, 369.778 254.963, 369.778 244.963, 369.778 234.963, 369.778 227.556, 369.778 " />
            <path fill="none" stroke-width="3.0" stroke-linecap="butt" stroke-opacity="1.0" stroke="rgb(0, 0, 0)" stroke-linejoin="round" d=" M 393.481, 369.778 393.481, 379.778 393.481, 389.778 393.481, 399.778 393.481, 409.778 393.481, 419.778 393.481, 429.778 393.481, 439.778 393.481, 449.778 393.481, 459.778 393.481, 469.778 393.481, 479.778 393.481, 489.778 393.481, 499.778 393.481, 509.778 393.481, 519.778 393.481, 529.778 393.481, 539.778 393.481, 549.778 393.481, 559.778 393.481, 569.778 393.481, 579.778 393.481, 589.778 393.481, 599.778 393.481, 606.815 " />
            <path fill="none" stroke-width="3.0" stroke-linecap="butt" stroke-opacity="1.0" stroke="rgb(0, 0, 0)" stroke-linejoin="round" d=" M 393.481, 606.815 403.481, 606.815 413.481, 606.815 423.481, 606.815 433.481, 606.815 443.481, 606.815 453.481, 606.815 463.481, 606.815 473.481, 606.815 483.481, 606.815 493.481, 606.815 503.481, 606.815 513.482, 606.815 523.482, 606.815 533.482, 606.815 543.482, 606.815 553.482, 606.815 563.482, 606.815 573.482, 606.815 583.482, 606.815 593.482, 606.815 603.482, 606.815 613.482, 606.815 623.482, 606.815 630.518, 606.815 " />
            <path fill="none" stroke-width="3.0" stroke-linecap="butt" stroke-opacity="1.0" stroke="rgb(0, 0, 0)" stroke-linejoin="round" d=" M 630.518, 369.778 620.518, 369.778 610.518, 369.778 600.518, 369.778 590.518, 369.778 580.518, 369.778 570.518, 369.778 560.518, 369.778 550.518, 369.778 540.518, 369.778 530.518, 369.778 520.518, 369.778 510.519, 369.778 500.519, 369.778 490.519, 369.778 480.519, 369.778 470.519, 369.778 460.519, 369.778 450.519, 369.778 440.519, 369.778 430.519, 369.778 420.519, 369.778 410.519, 369.778 400.519, 369.778 393.481, 369.778 " />
            <path fill="none" stroke-width="3.0" stroke-linecap="butt" stroke-opacity="1.0" stroke="rgb(0, 0, 0)" stroke-linejoin="round" d=" M 749.037, 369.778 749.037, 379.778 749.037, 389.778 749.037, 399.778 749.037, 409.778 749.037, 419.778 749.037, 429.778 749.037, 439.778 749.037, 449.778 749.037, 459.778 749.037, 469.778 749.037, 479.778 749.037, 489.778 749.037, 499.778 749.037, 509.778 749.037, 519.778 749.037, 529.778 749.037, 539.778 749.037, 549.778 749.037, 559.778 749.037, 569.778 749.037, 579.778 749.037, 589.778 749.037, 599.778 749.037, 606.815 " />
            <path fill="none" stroke-width="3.0" stroke-linecap="butt" stroke-opacity="1.0" stroke="rgb(0, 0, 0)" stroke-linejoin="round" d=" M 749.037, 606.815 759.037, 606.815 769.037, 606.815 779.037, 606.815 789.037, 606.815 796.444, 606.815 " />
            <path fill="none" stroke-width="3.0" stroke-linecap="butt" stroke-opacity="1.0" stroke="rgb(0, 0, 0)" stroke-linejoin="round" d=" M 796.444, 369.778 786.444, 369.778 776.444, 369.778 766.444, 369.778 756.444, 369.778 749.037, 369.778 " />
        </g>
    </g>
    <g id="ViewLayer_TechnicalLines.001" inkscape:groupmode="lineset" inkscape:label="ViewLayer_TechnicalLines.001">
        <g inkscape:groupmode="layer" id="strokes" inkscape:label="strokes">
            <path fill="none" stroke-width="1.5" stroke-linecap="round" stroke-opacity="1.0" stroke="rgb(0, 0, 0)" stroke-linejoin="round" d=" M 630.518, 606.815 630.518, 596.815 630.518, 586.815 630.518, 576.815 630.518, 566.815 630.518, 556.815 630.518, 546.815 630.518, 536.815 630.518, 526.815 630.518, 516.815 630.518, 506.815 630.518, 496.815 630.518, 486.815 630.518, 476.815 630.518, 466.815 630.518, 456.815 630.518, 446.815 630.518, 436.815 630.518, 426.815 630.518, 416.815 630.518, 406.815 630.518, 396.815 630.518, 386.815 630.518, 376.815 630.518, 369.778 " />
            <path fill="none" stroke-width="1.5" stroke-linecap="round" stroke-opacity="1.0" stroke="rgb(0, 0, 0)" stroke-linejoin="round" d=" M 393.481, 654.222 403.481, 654.222 413.481, 654.222 423.481, 654.222 433.481, 654.222 443.481, 654.222 453.481, 654.222 463.481, 654.222 473.481, 654.222 483.481, 654.222 493.481, 654.222 503.481, 654.222 513.482, 654.222 523.482, 654.222 533.482, 654.222 543.482, 654.222 553.482, 654.222 563.482, 654.222 573.482, 654.222 583.482, 654.222 593.482, 654.222 603.482, 654.222 613.482, 654.222 623.482, 654.222 630.518, 654.222 630.518, 644.222 630.518, 634.222 630.518, 624.222 630.518, 614.222 630.518, 606.815 620.518, 606.815 610.518, 606.815 600.518, 606.815 590.518, 606.815 580.518, 606.815 570.518, 606.815 560.518, 606.815 550.518, 606.815 540.518, 606.815 530.518, 606.815 520.518, 606.815 510.519, 606.815 500.519, 606.815 490.519, 606.815 480.519, 606.815 470.519, 606.815 460.519, 606.815 450.519, 606.815 440.519, 606.815 430.519, 606.815 420.519, 606.815 410.519, 606.815 400.519, 606.815 393.481, 606.815 393.481, 616.815 393.481, 626.815 393.481, 636.815 393.481, 646.815 393.481, 654.222 " />
            <path fill="none" stroke-width="1.5" stroke-linecap="round" stroke-opacity="1.0" stroke="rgb(0, 0, 0)" stroke-linejoin="round" d=" M 274.963, 606.815 274.963, 596.815 274.963, 586.815 274.963, 576.815 274.963, 566.815 274.963, 556.815 274.963, 546.815 274.963, 536.815 274.963, 526.815 274.963, 516.815 274.963, 506.815 274.963, 496.815 274.963, 486.815 274.963, 476.815 274.963, 466.815 274.963, 456.815 274.963, 446.815 274.963, 436.815 274.963, 426.815 274.963, 416.815 274.963, 406.815 274.963, 396.815 274.963, 386.815 274.963, 376.815 274.963, 369.778 " />
            <path fill="none" stroke-width="1.5" stroke-linecap="round" stroke-opacity="1.0" stroke="rgb(0, 0, 0)" stroke-linejoin="round" d=" M 796.444, 606.815 796.444, 596.815 796.444, 586.815 796.444, 576.815 796.444, 566.815 796.444, 556.815 796.444, 546.815 796.444, 536.815 796.444, 526.815 796.444, 516.815 796.444, 506.815 796.444, 496.815 796.444, 486.815 796.444, 476.815 796.444, 466.815 796.444, 456.815 796.444, 446.815 796.444, 436.815 796.444, 426.815 796.444, 416.815 796.444, 406.815 796.444, 396.815 796.444, 386.815 796.444, 376.815 796.444, 369.778 " />
            <path fill="none" stroke-width="1.5" stroke-linecap="round" stroke-opacity="1.0" stroke="rgb(0, 0, 0)" stroke-linejoin="round" d=" M 436.148, 521.481 436.148, 531.481 436.148, 541.481 436.148, 551.481 436.148, 561.481 436.148, 571.481 436.148, 581.481 436.148, 591.481 436.148, 597.333 446.148, 597.333 456.148, 597.333 466.148, 597.333 476.148, 597.333 486.148, 597.333 496.148, 597.333 506.148, 597.333 516.148, 597.333 526.148, 597.333 536.148, 597.333 546.148, 597.333 556.148, 597.333 566.148, 597.333 576.148, 597.333 586.148, 597.333 587.852, 597.333 587.852, 587.333 587.852, 577.333 587.852, 567.333 587.852, 557.333 587.852, 547.333 587.852, 537.333 587.852, 527.333 587.852, 521.481 577.852, 521.481 567.852, 521.481 557.852, 521.481 547.852, 521.481 537.852, 521.481 527.852, 521.481 517.852, 521.481 507.852, 521.481 497.852, 521.481 487.852, 521.481 477.852, 521.481 467.852, 521.481 457.852, 521.481 447.852, 521.481 437.852, 521.481 436.148, 521.481 " />
            <path fill="none" stroke-width="1.5" stroke-linecap="round" stroke-opacity="1.0" stroke="rgb(0, 0, 0)" stroke-linejoin="round" d=" M 436.148, 379.259 436.148, 389.259 436.148, 399.259 436.148, 409.259 436.148, 419.259 436.148, 429.259 436.148, 439.259 436.148, 449.259 436.148, 455.111 446.148, 455.111 456.148, 455.111 466.148, 455.111 476.148, 455.111 486.148, 455.111 496.148, 455.111 506.148, 455.111 516.148, 455.111 526.148, 455.111 536.148, 455.111 546.148, 455.111 556.148, 455.111 566.148, 455.111 576.148, 455.111 586.148, 455.111 587.852, 455.111 587.852, 445.111 587.852, 435.111 587.852, 425.111 587.852, 415.111 587.852, 405.111 587.852, 395.111 587.852, 385.111 587.852, 379.259 577.852, 379.259 567.852, 379.259 557.852, 379.259 547.852, 379.259 537.852, 379.259 527.852, 379.259 517.852, 379.259 507.852, 379.259 497.852, 379.259 487.852, 379.259 477.852, 379.259 467.852, 379.259 457.852, 379.259 447.852, 379.259 437.852, 379.259 436.148, 379.259 " />
            <path fill="none" stroke-width="1.5" stroke-linecap="round" stroke-opacity="1.0" stroke="rgb(0, 0, 0)" stroke-linejoin="round" d=" M 227.556, 369.778 227.556, 379.778 227.556, 389.778 227.556, 399.778 227.556, 409.778 227.556, 419.778 227.556, 429.778 227.556, 439.778 227.556, 449.778 227.556, 459.778 227.556, 469.778 227.556, 479.778 227.556, 489.778 227.556, 499.778 227.556, 509.778 227.556, 519.778 227.556, 529.778 227.556, 539.778 227.556, 549.778 227.556, 559.778 227.556, 569.778 227.556, 579.778 227.556, 589.778 227.556, 599.778 227.556, 606.815 " />
            <path fill="none" stroke-width="1.5" stroke-linecap="round" stroke-opacity="1.0" stroke="rgb(0, 0, 0)" stroke-linejoin="round" d=" M 227.556, 606.815 237.556, 606.815 247.556, 606.815 257.556, 606.815 267.556, 606.815 274.963, 606.815 " />
            <path fill="none" stroke-width="1.5" stroke-linecap="round" stroke-opacity="1.0" stroke="rgb(0, 0, 0)" stroke-linejoin="round" d=" M 274.963, 369.778 264.963, 369.778 254.963, 369.778 244.963, 369.778 234.963, 369.778 227.556, 369.778 " />
            <path fill="none" stroke-width="1.5" stroke-linecap="round" stroke-opacity="1.0" stroke="rgb(0, 0, 0)" stroke-linejoin="round" d=" M 393.481, 369.778 393.481, 379.778 393.481, 389.778 393.481, 399.778 393.481, 409.778 393.481, 419.778 393.481, 429.778 393.481, 439.778 393.481, 449.778 393.481, 459.778 393.481, 469.778 393.481, 479.778 393.481, 489.778 393.481, 499.778 393.481, 509.778 393.481, 519.778 393.481, 529.778 393.481, 539.778 393.481, 549.778 393.481, 559.778 393.481, 569.778 393.481, 579.778 393.481, 589.778 393.481, 599.778 393.481, 606.815 " />
            <path fill="none" stroke-width="1.5" stroke-linecap="round" stroke-opacity="1.0" stroke="rgb(0, 0, 0)" stroke-linejoin="round" d=" M 393.481, 606.815 403.481, 606.815 413.481, 606.815 423.481, 606.815 433.481, 606.815 443.481, 606.815 453.481, 606.815 463.481, 606.815 473.481, 606.815 483.481, 606.815 493.481, 606.815 503.481, 606.815 513.482, 606.815 523.482, 606.815 533.482, 606.815 543.482, 606.815 553.482, 606.815 563.482, 606.815 573.482, 606.815 583.482, 606.815 593.482, 606.815 603.482, 606.815 613.482, 606.815 623.482, 606.815 630.518, 606.815 " />
            <path fill="none" stroke-width="1.5" stroke-linecap="round" stroke-opacity="1.0" stroke="rgb(0, 0, 0)" stroke-linejoin="round" d=" M 630.518, 369.778 620.518, 369.778 610.518, 369.778 600.518, 369.778 590.518, 369.778 580.518, 369.778 570.518, 369.778 560.518, 369.778 550.518, 369.778 540.518, 369.778 530.518, 369.778 520.518, 369.778 510.519, 369.778 500.519, 369.778 490.519, 369.778 480.519, 369.778 470.519, 369.778 460.519, 369.778 450.519, 369.778 440.519, 369.778 430.519, 369.778 420.519, 369.778 410.519, 369.778 400.519, 369.778 393.481, 369.778 " />
            <path fill="none" stroke-width="1.5" stroke-linecap="round" stroke-opacity="1.0" stroke="rgb(0, 0, 0)" stroke-linejoin="round" d=" M 749.037, 369.778 749.037, 379.778 749.037, 389.778 749.037, 399.778 749.037, 409.778 749.037, 419.778 749.037, 429.778 749.037, 439.778 749.037, 449.778 749.037, 459.778 749.037, 469.778 749.037, 479.778 749.037, 489.778 749.037, 499.778 749.037, 509.778 749.037, 519.778 749.037, 529.778 749.037, 539.778 749.037, 549.778 749.037, 559.778 749.037, 569.778 749.037, 579.778 749.037, 589.778 749.037, 599.778 749.037, 606.815 " />
            <path fill="none" stroke-width="1.5" stroke-linecap="round" stroke-opacity="1.0" stroke="rgb(0, 0, 0)" stroke-linejoin="round" d=" M 749.037, 606.815 759.037, 606.815 769.037, 606.815 779.037, 606.815 789.037, 606.815 796.444, 606.815 " />
            <path fill="none" stroke-width="1.5" stroke-linecap="round" stroke-opacity="1.0" stroke="rgb(0, 0, 0)" stroke-linejoin="round" d=" M 796.444, 369.778 786.444, 369.778 776.444, 369.778 766.444, 369.778 756.444, 369.778 749.037, 369.778 " />
        </g>
    </g>
    <g id="ViewLayer_TechnicalLines.002" inkscape:groupmode="lineset" inkscape:label="ViewLayer_TechnicalLines.002">
        <g inkscape:groupmode="layer" id="strokes" inkscape:label="strokes">
            <path fill="none" stroke-width="1.5" stroke-linecap="round" stroke-opacity="1.0" stroke="rgb(0, 0, 0)" stroke-linejoin="round" d=" M 630.518, 606.815 630.518, 596.815 630.518, 586.815 630.518, 576.815 630.518, 566.815 630.518, 556.815 630.518, 546.815 630.518, 536.815 630.518, 526.815 630.518, 516.815 630.518, 506.815 630.518, 496.815 630.518, 486.815 630.518, 476.815 630.518, 466.815 630.518, 456.815 630.518, 446.815 630.518, 436.815 630.518, 426.815 630.518, 416.815 630.518, 406.815 630.518, 396.815 630.518, 386.815 630.518, 376.815 630.518, 369.778 " />
            <path fill="none" stroke-width="1.5" stroke-linecap="round" stroke-opacity="1.0" stroke="rgb(0, 0, 0)" stroke-linejoin="round" d=" M 393.481, 654.222 403.481, 654.222 413.481, 654.222 423.481, 654.222 433.481, 654.222 443.481, 654.222 453.481, 654.222 463.481, 654.222 473.481, 654.222 483.481, 654.222 493.481, 654.222 503.481, 654.222 513.482, 654.222 523.482, 654.222 533.482, 654.222 543.482, 654.222 553.482, 654.222 563.482, 654.222 573.482, 654.222 583.482, 654.222 593.482, 654.222 603.482, 654.222 613.482, 654.222 623.482, 654.222 630.518, 654.222 630.518, 644.222 630.518, 634.222 630.518, 624.222 630.518, 614.222 630.518, 606.815 620.518, 606.815 610.518, 606.815 600.518, 606.815 590.518, 606.815 580.518, 606.815 570.518, 606.815 560.518, 606.815 550.518, 606.815 540.518, 606.815 530.518, 606.815 520.518, 606.815 510.519, 606.815 500.519, 606.815 490.519, 606.815 480.519, 606.815 470.519, 606.815 460.519, 606.815 450.519, 606.815 440.519, 606.815 430.519, 606.815 420.519, 606.815 410.519, 606.815 400.519, 606.815 393.481, 606.815 393.481, 616.815 393.481, 626.815 393.481, 636.815 393.481, 646.815 393.481, 654.222 " />
            <path fill="none" stroke-width="1.5" stroke-linecap="round" stroke-opacity="1.0" stroke="rgb(0, 0, 0)" stroke-linejoin="round" d=" M 274.963, 606.815 274.963, 596.815 274.963, 586.815 274.963, 576.815 274.963, 566.815 274.963, 556.815 274.963, 546.815 274.963, 536.815 274.963, 526.815 274.963, 516.815 274.963, 506.815 274.963, 496.815 274.963, 486.815 274.963, 476.815 274.963, 466.815 274.963, 456.815 274.963, 446.815 274.963, 436.815 274.963, 426.815 274.963, 416.815 274.963, 406.815 274.963, 396.815 274.963, 386.815 274.963, 376.815 274.963, 369.778 " />
            <path fill="none" stroke-width="1.5" stroke-linecap="round" stroke-opacity="1.0" stroke="rgb(0, 0, 0)" stroke-linejoin="round" d=" M 796.444, 606.815 796.444, 596.815 796.444, 586.815 796.444, 576.815 796.444, 566.815 796.444, 556.815 796.444, 546.815 796.444, 536.815 796.444, 526.815 796.444, 516.815 796.444, 506.815 796.444, 496.815 796.444, 486.815 796.444, 476.815 796.444, 466.815 796.444, 456.815 796.444, 446.815 796.444, 436.815 796.444, 426.815 796.444, 416.815 796.444, 406.815 796.444, 396.815 796.444, 386.815 796.444, 376.815 796.444, 369.778 " />
            <path fill="none" stroke-width="1.5" stroke-linecap="round" stroke-opacity="1.0" stroke="rgb(0, 0, 0)" stroke-linejoin="round" d=" M 436.148, 521.481 436.148, 531.481 436.148, 541.481 436.148, 551.481 436.148, 561.481 436.148, 571.481 436.148, 581.481 436.148, 591.481 436.148, 597.333 446.148, 597.333 456.148, 597.333 466.148, 597.333 476.148, 597.333 486.148, 597.333 496.148, 597.333 506.148, 597.333 516.148, 597.333 526.148, 597.333 536.148, 597.333 546.148, 597.333 556.148, 597.333 566.148, 597.333 576.148, 597.333 586.148, 597.333 587.852, 597.333 587.852, 587.333 587.852, 577.333 587.852, 567.333 587.852, 557.333 587.852, 547.333 587.852, 537.333 587.852, 527.333 587.852, 521.481 577.852, 521.481 567.852, 521.481 557.852, 521.481 547.852, 521.481 537.852, 521.481 527.852, 521.481 517.852, 521.481 507.852, 521.481 497.852, 521.481 487.852, 521.481 477.852, 521.481 467.852, 521.481 457.852, 521.481 447.852, 521.481 437.852, 521.481 436.148, 521.481 " />
            <path fill="none" stroke-width="1.5" stroke-linecap="round" stroke-opacity="1.0" stroke="rgb(0, 0, 0)" stroke-linejoin="round" d=" M 436.148, 379.259 436.148, 389.259 436.148, 399.259 436.148, 409.259 436.148, 419.259 436.148, 429.259 436.148, 439.259 436.148, 449.259 436.148, 455.111 446.148, 455.111 456.148, 455.111 466.148, 455.111 476.148, 455.111 486.148, 455.111 496.148, 455.111 506.148, 455.111 516.148, 455.111 526.148, 455.111 536.148, 455.111 546.148, 455.111 556.148, 455.111 566.148, 455.111 576.148, 455.111 586.148, 455.111 587.852, 455.111 587.852, 445.111 587.852, 435.111 587.852, 425.111 587.852, 415.111 587.852, 405.111 587.852, 395.111 587.852, 385.111 587.852, 379.259 577.852, 379.259 567.852, 379.259 557.852, 379.259 547.852, 379.259 537.852, 379.259 527.852, 379.259 517.852, 379.259 507.852, 379.259 497.852, 379.259 487.852, 379.259 477.852, 379.259 467.852, 379.259 457.852, 379.259 447.852, 379.259 437.852, 379.259 436.148, 379.259 " />
            <path fill="none" stroke-width="1.5" stroke-linecap="round" stroke-opacity="1.0" stroke="rgb(0, 0, 0)" stroke-linejoin="round" d=" M 227.556, 369.778 227.556, 379.778 227.556, 389.778 227.556, 399.778 227.556, 409.778 227.556, 419.778 227.556, 429.778 227.556, 439.778 227.556, 449.778 227.556, 459.778 227.556, 469.778 227.556, 479.778 227.556, 489.778 227.556, 499.778 227.556, 509.778 227.556, 519.778 227.556, 529.778 227.556, 539.778 227.556, 549.778 227.556, 559.778 227.556, 569.778 227.556, 579.778 227.556, 589.778 227.556, 599.778 227.556, 606.815 " />
            <path fill="none" stroke-width="1.5" stroke-linecap="round" stroke-opacity="1.0" stroke="rgb(0, 0, 0)" stroke-linejoin="round" d=" M 227.556, 606.815 237.556, 606.815 247.556, 606.815 257.556, 606.815 267.556, 606.815 274.963, 606.815 " />
            <path fill="none" stroke-width="1.5" stroke-linecap="round" stroke-opacity="1.0" stroke="rgb(0, 0, 0)" stroke-linejoin="round" d=" M 274.963, 369.778 264.963, 369.778 254.963, 369.778 244.963, 369.778 234.963, 369.778 227.556, 369.778 " />
            <path fill="none" stroke-width="1.5" stroke-linecap="round" stroke-opacity="1.0" stroke="rgb(0, 0, 0)" stroke-linejoin="round" d=" M 393.481, 369.778 393.481, 379.778 393.481, 389.778 393.481, 399.778 393.481, 409.778 393.481, 419.778 393.481, 429.778 393.481, 439.778 393.481, 449.778 393.481, 459.778 393.481, 469.778 393.481, 479.778 393.481, 489.778 393.481, 499.778 393.481, 509.778 393.481, 519.778 393.481, 529.778 393.481, 539.778 393.481, 549.778 393.481, 559.778 393.481, 569.778 393.481, 579.778 393.481, 589.778 393.481, 599.778 393.481, 606.815 " />
            <path fill="none" stroke-width="1.5" stroke-linecap="round" stroke-opacity="1.0" stroke="rgb(0, 0, 0)" stroke-linejoin="round" d=" M 393.481, 606.815 403.481, 606.815 413.481, 606.815 423.481, 606.815 433.481, 606.815 443.481, 606.815 453.481, 606.815 463.481, 606.815 473.481, 606.815 483.481, 606.815 493.481, 606.815 503.481, 606.815 513.482, 606.815 523.482, 606.815 533.482, 606.815 543.482, 606.815 553.482, 606.815 563.482, 606.815 573.482, 606.815 583.482, 606.815 593.482, 606.815 603.482, 606.815 613.482, 606.815 623.482, 606.815 630.518, 606.815 " />
            <path fill="none" stroke-width="1.5" stroke-linecap="round" stroke-opacity="1.0" stroke="rgb(0, 0, 0)" stroke-linejoin="round" d=" M 630.518, 369.778 620.518, 369.778 610.518, 369.778 600.518, 369.778 590.518, 369.778 580.518, 369.778 570.518, 369.778 560.518, 369.778 550.518, 369.778 540.518, 369.778 530.518, 369.778 520.518, 369.778 510.519, 369.778 500.519, 369.778 490.519, 369.778 480.519, 369.778 470.519, 369.778 460.519, 369.778 450.519, 369.778 440.519, 369.778 430.519, 369.778 420.519, 369.778 410.519, 369.778 400.519, 369.778 393.481, 369.778 " />
            <path fill="none" stroke-width="1.5" stroke-linecap="round" stroke-opacity="1.0" stroke="rgb(0, 0, 0)" stroke-linejoin="round" d=" M 749.037, 369.778 749.037, 379.778 749.037, 389.778 749.037, 399.778 749.037, 409.778 749.037, 419.778 749.037, 429.778 749.037, 439.778 749.037, 449.778 749.037, 459.778 749.037, 469.778 749.037, 479.778 749.037, 489.778 749.037, 499.778 749.037, 509.778 749.037, 519.778 749.037, 529.778 749.037, 539.778 749.037, 549.778 749.037, 559.778 749.037, 569.778 749.037, 579.778 749.037, 589.778 749.037, 599.778 749.037, 606.815 " />
            <path fill="none" stroke-width="1.5" stroke-linecap="round" stroke-opacity="1.0" stroke="rgb(0, 0, 0)" stroke-linejoin="round" d=" M 749.037, 606.815 759.037, 606.815 769.037, 606.815 779.037, 606.815 789.037, 606.815 796.444, 606.815 " />
            <path fill="none" stroke-width="1.5" stroke-linecap="round" stroke-opacity="1.0" stroke="rgb(0, 0, 0)" stroke-linejoin="round" d=" M 796.444, 369.778 786.444, 369.778 776.444, 369.778 766.444, 369.778 756.444, 369.778 749.037, 369.778 " />
        </g>
    </g>
    <g id="ViewLayer_TechnicalLines.003" inkscape:groupmode="lineset" inkscape:label="ViewLayer_TechnicalLines.003">
        <g inkscape:groupmode="layer" id="strokes" inkscape:label="strokes">
            <path fill="none" stroke-width="1.5" stroke-linecap="round" stroke-opacity="1.0" stroke="rgb(0, 0, 0)" stroke-linejoin="round" d=" M 630.518, 606.815 630.518, 596.815 630.518, 586.815 630.518, 576.815 630.518, 566.815 630.518, 556.815 630.518, 546.815 630.518, 536.815 630.518, 526.815 630.518, 516.815 630.518, 506.815 630.518, 496.815 630.518, 486.815 630.518, 476.815 630.518, 466.815 630.518, 456.815 630.518, 446.815 630.518, 436.815 630.518, 426.815 630.518, 416.815 630.518, 406.815 630.518, 396.815 630.518, 386.815 630.518, 376.815 630.518, 369.778 " />
            <path fill="none" stroke-width="1.5" stroke-linecap="round" stroke-opacity="1.0" stroke="rgb(0, 0, 0)" stroke-linejoin="round" d=" M 393.481, 654.222 403.481, 654.222 413.481, 654.222 423.481, 654.222 433.481, 654.222 443.481, 654.222 453.481, 654.222 463.481, 654.222 473.481, 654.222 483.481, 654.222 493.481, 654.222 503.481, 654.222 513.482, 654.222 523.482, 654.222 533.482, 654.222 543.482, 654.222 553.482, 654.222 563.482, 654.222 573.482, 654.222 583.482, 654.222 593.482, 654.222 603.482, 654.222 613.482, 654.222 623.482, 654.222 630.518, 654.222 630.518, 644.222 630.518, 634.222 630.518, 624.222 630.518, 614.222 630.518, 606.815 620.518, 606.815 610.518, 606.815 600.518, 606.815 590.518, 606.815 580.518, 606.815 570.518, 606.815 560.518, 606.815 550.518, 606.815 540.518, 606.815 530.518, 606.815 520.518, 606.815 510.519, 606.815 500.519, 606.815 490.519, 606.815 480.519, 606.815 470.519, 606.815 460.519, 606.815 450.519, 606.815 440.519, 606.815 430.519, 606.815 420.519, 606.815 410.519, 606.815 400.519, 606.815 393.481, 606.815 393.481, 616.815 393.481, 626.815 393.481, 636.815 393.481, 646.815 393.481, 654.222 " />
            <path fill="none" stroke-width="1.5" stroke-linecap="round" stroke-opacity="1.0" stroke="rgb(0, 0, 0)" stroke-linejoin="round" d=" M 274.963, 606.815 274.963, 596.815 274.963, 586.815 274.963, 576.815 274.963, 566.815 274.963, 556.815 274.963, 546.815 274.963, 536.815 274.963, 526.815 274.963, 516.815 274.963, 506.815 274.963, 496.815 274.963, 486.815 274.963, 476.815 274.963, 466.815 274.963, 456.815 274.963, 446.815 274.963, 436.815 274.963, 426.815 274.963, 416.815 274.963, 406.815 274.963, 396.815 274.963, 386.815 274.963, 376.815 274.963, 369.778 " />
            <path fill="none" stroke-width="1.5" stroke-linecap="round" stroke-opacity="1.0" stroke="rgb(0, 0, 0)" stroke-linejoin="round" d=" M 796.444, 606.815 796.444, 596.815 796.444, 586.815 796.444, 576.815 796.444, 566.815 796.444, 556.815 796.444, 546.815 796.444, 536.815 796.444, 526.815 796.444, 516.815 796.444, 506.815 796.444, 496.815 796.444, 486.815 796.444, 476.815 796.444, 466.815 796.444, 456.815 796.444, 446.815 796.444, 436.815 796.444, 426.815 796.444, 416.815 796.444, 406.815 796.444, 396.815 796.444, 386.815 796.444, 376.815 796.444, 369.778 " />
            <path fill="none" stroke-width="1.5" stroke-linecap="round" stroke-opacity="1.0" stroke="rgb(0, 0, 0)" stroke-linejoin="round" d=" M 436.148, 521.481 436.148, 531.481 436.148, 541.481 436.148, 551.481 436.148, 561.481 436.148, 571.481 436.148, 581.481 436.148, 591.481 436.148, 597.333 446.148, 597.333 456.148, 597.333 466.148, 597.333 476.148, 597.333 486.148, 597.333 496.148, 597.333 506.148, 597.333 516.148, 597.333 526.148, 597.333 536.148, 597.333 546.148, 597.333 556.148, 597.333 566.148, 597.333 576.148, 597.333 586.148, 597.333 587.852, 597.333 587.852, 587.333 587.852, 577.333 587.852, 567.333 587.852, 557.333 587.852, 547.333 587.852, 537.333 587.852, 527.333 587.852, 521.481 577.852, 521.481 567.852, 521.481 557.852, 521.481 547.852, 521.481 537.852, 521.481 527.852, 521.481 517.852, 521.481 507.852, 521.481 497.852, 521.481 487.852, 521.481 477.852, 521.481 467.852, 521.481 457.852, 521.481 447.852, 521.481 437.852, 521.481 436.148, 521.481 " />
            <path fill="none" stroke-width="1.5" stroke-linecap="round" stroke-opacity="1.0" stroke="rgb(0, 0, 0)" stroke-linejoin="round" d=" M 436.148, 379.259 436.148, 389.259 436.148, 399.259 436.148, 409.259 436.148, 419.259 436.148, 429.259 436.148, 439.259 436.148, 449.259 436.148, 455.111 446.148, 455.111 456.148, 455.111 466.148, 455.111 476.148, 455.111 486.148, 455.111 496.148, 455.111 506.148, 455.111 516.148, 455.111 526.148, 455.111 536.148, 455.111 546.148, 455.111 556.148, 455.111 566.148, 455.111 576.148, 455.111 586.148, 455.111 587.852, 455.111 587.852, 445.111 587.852, 435.111 587.852, 425.111 587.852, 415.111 587.852, 405.111 587.852, 395.111 587.852, 385.111 587.852, 379.259 577.852, 379.259 567.852, 379.259 557.852, 379.259 547.852, 379.259 537.852, 379.259 527.852, 379.259 517.852, 379.259 507.852, 379.259 497.852, 379.259 487.852, 379.259 477.852, 379.259 467.852, 379.259 457.852, 379.259 447.852, 379.259 437.852, 379.259 436.148, 379.259 " />
            <path fill="none" stroke-width="1.5" stroke-linecap="round" stroke-opacity="1.0" stroke="rgb(0, 0, 0)" stroke-linejoin="round" d=" M 227.556, 369.778 227.556, 379.778 227.556, 389.778 227.556, 399.778 227.556, 409.778 227.556, 419.778 227.556, 429.778 227.556, 439.778 227.556, 449.778 227.556, 459.778 227.556, 469.778 227.556, 479.778 227.556, 489.778 227.556, 499.778 227.556, 509.778 227.556, 519.778 227.556, 529.778 227.556, 539.778 227.556, 549.778 227.556, 559.778 227.556, 569.778 227.556, 579.778 227.556, 589.778 227.556, 599.778 227.556, 606.815 " />
            <path fill="none" stroke-width="1.5" stroke-linecap="round" stroke-opacity="1.0" stroke="rgb(0, 0, 0)" stroke-linejoin="round" d=" M 227.556, 606.815 237.556, 606.815 247.556, 606.815 257.556, 606.815 267.556, 606.815 274.963, 606.815 " />
            <path fill="none" stroke-width="1.5" stroke-linecap="round" stroke-opacity="1.0" stroke="rgb(0, 0, 0)" stroke-linejoin="round" d=" M 274.963, 369.778 264.963, 369.778 254.963, 369.778 244.963, 369.778 234.963, 369.778 227.556, 369.778 " />
            <path fill="none" stroke-width="1.5" stroke-linecap="round" stroke-opacity="1.0" stroke="rgb(0, 0, 0)" stroke-linejoin="round" d=" M 393.481, 369.778 393.481, 379.778 393.481, 389.778 393.481, 399.778 393.481, 409.778 393.481, 419.778 393.481, 429.778 393.481, 439.778 393.481, 449.778 393.481, 459.778 393.481, 469.778 393.481, 479.778 393.481, 489.778 393.481, 499.778 393.481, 509.778 393.481, 519.778 393.481, 529.778 393.481, 539.778 393.481, 549.778 393.481, 559.778 393.481, 569.778 393.481, 579.778 393.481, 589.778 393.481, 599.778 393.481, 606.815 " />
            <path fill="none" stroke-width="1.5" stroke-linecap="round" stroke-opacity="1.0" stroke="rgb(0, 0, 0)" stroke-linejoin="round" d=" M 393.481, 606.815 403.481, 606.815 413.481, 606.815 423.481, 606.815 433.481, 606.815 443.481, 606.815 453.481, 606.815 463.481, 606.815 473.481, 606.815 483.481, 606.815 493.481, 606.815 503.481, 606.815 513.482, 606.815 523.482, 606.815 533.482, 606.815 543.482, 606.815 553.482, 606.815 563.482, 606.815 573.482, 606.815 583.482, 606.815 593.482, 606.815 603.482, 606.815 613.482, 606.815 623.482, 606.815 630.518, 606.815 " />
            <path fill="none" stroke-width="1.5" stroke-linecap="round" stroke-opacity="1.0" stroke="rgb(0, 0, 0)" stroke-linejoin="round" d=" M 630.518, 369.778 620.518, 369.778 610.518, 369.778 600.518, 369.778 590.518, 369.778 580.518, 369.778 570.518, 369.778 560.518, 369.778 550.518, 369.778 540.518, 369.778 530.518, 369.778 520.518, 369.778 510.519, 369.778 500.519, 369.778 490.519, 369.778 480.519, 369.778 470.519, 369.778 460.519, 369.778 450.519, 369.778 440.519, 369.778 430.519, 369.778 420.519, 369.778 410.519, 369.778 400.519, 369.778 393.481, 369.778 " />
            <path fill="none" stroke-width="1.5" stroke-linecap="round" stroke-opacity="1.0" stroke="rgb(0, 0, 0)" stroke-linejoin="round" d=" M 749.037, 369.778 749.037, 379.778 749.037, 389.778 749.037, 399.778 749.037, 409.778 749.037, 419.778 749.037, 429.778 749.037, 439.778 749.037, 449.778 749.037, 459.778 749.037, 469.778 749.037, 479.778 749.037, 489.778 749.037, 499.778 749.037, 509.778 749.037, 519.778 749.037, 529.778 749.037, 539.778 749.037, 549.778 749.037, 559.778 749.037, 569.778 749.037, 579.778 749.037, 589.778 749.037, 599.778 749.037, 606.815 " />
            <path fill="none" stroke-width="1.5" stroke-linecap="round" stroke-opacity="1.0" stroke="rgb(0, 0, 0)" stroke-linejoin="round" d=" M 749.037, 606.815 759.037, 606.815 769.037, 606.815 779.037, 606.815 789.037, 606.815 796.444, 606.815 " />
            <path fill="none" stroke-width="1.5" stroke-linecap="round" stroke-opacity="1.0" stroke="rgb(0, 0, 0)" stroke-linejoin="round" d=" M 796.444, 369.778 786.444, 369.778 776.444, 369.778 766.444, 369.778 756.444, 369.778 749.037, 369.778 " />
        </g>
    </g>
    <g id="ViewLayer_TechnicalLines.004" xmlns:inkscape="http://www.inkscape.org/namespaces/inkscape" inkscape:groupmode="lineset" inkscape:label="ViewLayer_TechnicalLines.004">
        <g xmlns:inkscape="http://www.inkscape.org/namespaces/inkscape" inkscape:groupmode="layer" id="strokes" inkscape:label="strokes">
            <path fill="none" stroke-width="1.5" stroke-linecap="round" stroke-opacity="1.0" stroke="rgb(0, 0, 0)" stroke-linejoin="round" d=" M 630.518, 606.815 630.518, 596.815 630.518, 586.815 630.518, 576.815 630.518, 566.815 630.518, 556.815 630.518, 546.815 630.518, 536.815 630.518, 526.815 630.518, 516.815 630.518, 506.815 630.518, 496.815 630.518, 486.815 630.518, 476.815 630.518, 466.815 630.518, 456.815 630.518, 446.815 630.518, 436.815 630.518, 426.815 630.518, 416.815 630.518, 406.815 630.518, 396.815 630.518, 386.815 630.518, 376.815 630.518, 369.778 " />
            <path fill="none" stroke-width="1.5" stroke-linecap="round" stroke-opacity="1.0" stroke="rgb(0, 0, 0)" stroke-linejoin="round" d=" M 393.481, 654.222 403.481, 654.222 413.481, 654.222 423.481, 654.222 433.481, 654.222 443.481, 654.222 453.481, 654.222 463.481, 654.222 473.481, 654.222 483.481, 654.222 493.481, 654.222 503.481, 654.222 513.482, 654.222 523.482, 654.222 533.482, 654.222 543.482, 654.222 553.482, 654.222 563.482, 654.222 573.482, 654.222 583.482, 654.222 593.482, 654.222 603.482, 654.222 613.482, 654.222 623.482, 654.222 630.518, 654.222 630.518, 644.222 630.518, 634.222 630.518, 624.222 630.518, 614.222 630.518, 606.815 620.518, 606.815 610.518, 606.815 600.518, 606.815 590.518, 606.815 580.518, 606.815 570.518, 606.815 560.518, 606.815 550.518, 606.815 540.518, 606.815 530.518, 606.815 520.518, 606.815 510.519, 606.815 500.519, 606.815 490.519, 606.815 480.519, 606.815 470.519, 606.815 460.519, 606.815 450.519, 606.815 440.519, 606.815 430.519, 606.815 420.519, 606.815 410.519, 606.815 400.519, 606.815 393.481, 606.815 393.481, 616.815 393.481, 626.815 393.481, 636.815 393.481, 646.815 393.481, 654.222 " />
            <path fill="none" stroke-width="1.5" stroke-linecap="round" stroke-opacity="1.0" stroke="rgb(0, 0, 0)" stroke-linejoin="round" d=" M 274.963, 606.815 274.963, 596.815 274.963, 586.815 274.963, 576.815 274.963, 566.815 274.963, 556.815 274.963, 546.815 274.963, 536.815 274.963, 526.815 274.963, 516.815 274.963, 506.815 274.963, 496.815 274.963, 486.815 274.963, 476.815 274.963, 466.815 274.963, 456.815 274.963, 446.815 274.963, 436.815 274.963, 426.815 274.963, 416.815 274.963, 406.815 274.963, 396.815 274.963, 386.815 274.963, 376.815 274.963, 369.778 " />
            <path fill="none" stroke-width="1.5" stroke-linecap="round" stroke-opacity="1.0" stroke="rgb(0, 0, 0)" stroke-linejoin="round" d=" M 796.444, 606.815 796.444, 596.815 796.444, 586.815 796.444, 576.815 796.444, 566.815 796.444, 556.815 796.444, 546.815 796.444, 536.815 796.444, 526.815 796.444, 516.815 796.444, 506.815 796.444, 496.815 796.444, 486.815 796.444, 476.815 796.444, 466.815 796.444, 456.815 796.444, 446.815 796.444, 436.815 796.444, 426.815 796.444, 416.815 796.444, 406.815 796.444, 396.815 796.444, 386.815 796.444, 376.815 796.444, 369.778 " />
            <path fill="none" stroke-width="1.5" stroke-linecap="round" stroke-opacity="1.0" stroke="rgb(0, 0, 0)" stroke-linejoin="round" d=" M 436.148, 521.481 436.148, 531.481 436.148, 541.481 436.148, 551.481 436.148, 561.481 436.148, 571.481 436.148, 581.481 436.148, 591.481 436.148, 597.333 446.148, 597.333 456.148, 597.333 466.148, 597.333 476.148, 597.333 486.148, 597.333 496.148, 597.333 506.148, 597.333 516.148, 597.333 526.148, 597.333 536.148, 597.333 546.148, 597.333 556.148, 597.333 566.148, 597.333 576.148, 597.333 586.148, 597.333 587.852, 597.333 587.852, 587.333 587.852, 577.333 587.852, 567.333 587.852, 557.333 587.852, 547.333 587.852, 537.333 587.852, 527.333 587.852, 521.481 577.852, 521.481 567.852, 521.481 557.852, 521.481 547.852, 521.481 537.852, 521.481 527.852, 521.481 517.852, 521.481 507.852, 521.481 497.852, 521.481 487.852, 521.481 477.852, 521.481 467.852, 521.481 457.852, 521.481 447.852, 521.481 437.852, 521.481 436.148, 521.481 " />
            <path fill="none" stroke-width="1.5" stroke-linecap="round" stroke-opacity="1.0" stroke="rgb(0, 0, 0)" stroke-linejoin="round" d=" M 436.148, 379.259 436.148, 389.259 436.148, 399.259 436.148, 409.259 436.148, 419.259 436.148, 429.259 436.148, 439.259 436.148, 449.259 436.148, 455.111 446.148, 455.111 456.148, 455.111 466.148, 455.111 476.148, 455.111 486.148, 455.111 496.148, 455.111 506.148, 455.111 516.148, 455.111 526.148, 455.111 536.148, 455.111 546.148, 455.111 556.148, 455.111 566.148, 455.111 576.148, 455.111 586.148, 455.111 587.852, 455.111 587.852, 445.111 587.852, 435.111 587.852, 425.111 587.852, 415.111 587.852, 405.111 587.852, 395.111 587.852, 385.111 587.852, 379.259 577.852, 379.259 567.852, 379.259 557.852, 379.259 547.852, 379.259 537.852, 379.259 527.852, 379.259 517.852, 379.259 507.852, 379.259 497.852, 379.259 487.852, 379.259 477.852, 379.259 467.852, 379.259 457.852, 379.259 447.852, 379.259 437.852, 379.259 436.148, 379.259 " />
            <path fill="none" stroke-width="1.5" stroke-linecap="round" stroke-opacity="1.0" stroke="rgb(0, 0, 0)" stroke-linejoin="round" d=" M 227.556, 369.778 227.556, 379.778 227.556, 389.778 227.556, 399.778 227.556, 409.778 227.556, 419.778 227.556, 429.778 227.556, 439.778 227.556, 449.778 227.556, 459.778 227.556, 469.778 227.556, 479.778 227.556, 489.778 227.556, 499.778 227.556, 509.778 227.556, 519.778 227.556, 529.778 227.556, 539.778 227.556, 549.778 227.556, 559.778 227.556, 569.778 227.556, 579.778 227.556, 589.778 227.556, 599.778 227.556, 606.815 " />
            <path fill="none" stroke-width="1.5" stroke-linecap="round" stroke-opacity="1.0" stroke="rgb(0, 0, 0)" stroke-linejoin="round" d=" M 227.556, 606.815 237.556, 606.815 247.556, 606.815 257.556, 606.815 267.556, 606.815 274.963, 606.815 " />
            <path fill="none" stroke-width="1.5" stroke-linecap="round" stroke-opacity="1.0" stroke="rgb(0, 0, 0)" stroke-linejoin="round" d=" M 274.963, 369.778 264.963, 369.778 254.963, 369.778 244.963, 369.778 234.963, 369.778 227.556, 369.778 " />
            <path fill="none" stroke-width="1.5" stroke-linecap="round" stroke-opacity="1.0" stroke="rgb(0, 0, 0)" stroke-linejoin="round" d=" M 393.481, 369.778 393.481, 379.778 393.481, 389.778 393.481, 399.778 393.481, 409.778 393.481, 419.778 393.481, 429.778 393.481, 439.778 393.481, 449.778 393.481, 459.778 393.481, 469.778 393.481, 479.778 393.481, 489.778 393.481, 499.778 393.481, 509.778 393.481, 519.778 393.481, 529.778 393.481, 539.778 393.481, 549.778 393.481, 559.778 393.481, 569.778 393.481, 579.778 393.481, 589.778 393.481, 599.778 393.481, 606.815 " />
            <path fill="none" stroke-width="1.5" stroke-linecap="round" stroke-opacity="1.0" stroke="rgb(0, 0, 0)" stroke-linejoin="round" d=" M 393.481, 606.815 403.481, 606.815 413.481, 606.815 423.481, 606.815 433.481, 606.815 443.481, 606.815 453.481, 606.815 463.481, 606.815 473.481, 606.815 483.481, 606.815 493.481, 606.815 503.481, 606.815 513.482, 606.815 523.482, 606.815 533.482, 606.815 543.482, 606.815 553.482, 606.815 563.482, 606.815 573.482, 606.815 583.482, 606.815 593.482, 606.815 603.482, 606.815 613.482, 606.815 623.482, 606.815 630.518, 606.815 " />
            <path fill="none" stroke-width="1.5" stroke-linecap="round" stroke-opacity="1.0" stroke="rgb(0, 0, 0)" stroke-linejoin="round" d=" M 630.518, 369.778 620.518, 369.778 610.518, 369.778 600.518, 369.778 590.518, 369.778 580.518, 369.778 570.518, 369.778 560.518, 369.778 550.518, 369.778 540.518, 369.778 530.518, 369.778 520.518, 369.778 510.519, 369.778 500.519, 369.778 490.519, 369.778 480.519, 369.778 470.519, 369.778 460.519, 369.778 450.519, 369.778 440.519, 369.778 430.519, 369.778 420.519, 369.778 410.519, 369.778 400.519, 369.778 393.481, 369.778 " />
            <path fill="none" stroke-width="1.5" stroke-linecap="round" stroke-opacity="1.0" stroke="rgb(0, 0, 0)" stroke-linejoin="round" d=" M 749.037, 369.778 749.037, 379.778 749.037, 389.778 749.037, 399.778 749.037, 409.778 749.037, 419.778 749.037, 429.778 749.037, 439.778 749.037, 449.778 749.037, 459.778 749.037, 469.778 749.037, 479.778 749.037, 489.778 749.037, 499.778 749.037, 509.778 749.037, 519.778 749.037, 529.778 749.037, 539.778 749.037, 549.778 749.037, 559.778 749.037, 569.778 749.037, 579.778 749.037, 589.778 749.037, 599.778 749.037, 606.815 " />
            <path fill="none" stroke-width="1.5" stroke-linecap="round" stroke-opacity="1.0" stroke="rgb(0, 0, 0)" stroke-linejoin="round" d=" M 749.037, 606.815 759.037, 606.815 769.037, 606.815 779.037, 606.815 789.037, 606.815 796.444, 606.815 " />
            <path fill="none" stroke-width="1.5" stroke-linecap="round" stroke-opacity="1.0" stroke="rgb(0, 0, 0)" stroke-linejoin="round" d=" M 796.444, 369.778 786.444, 369.778 776.444, 369.778 766.444, 369.778 756.444, 369.778 749.037, 369.778 " />
        </g>
    </g>
</svg>
