<?xml version='1.0' encoding='ascii'?>
<svg xmlns="http://www.w3.org/2000/svg" xmlns:inkscape="http://www.inkscape.org/namespaces/inkscape" version="1.1" width="1024" height="1024">
    <g id="ViewLayer_LineSet" inkscape:groupmode="lineset" inkscape:label="ViewLayer_LineSet">
        <g inkscape:groupmode="layer" id="strokes" inkscape:label="strokes">
            <path fill="none" stroke-width="3.0" stroke-linecap="butt" stroke-opacity="1.0" stroke="rgb(0, 0, 0)" stroke-linejoin="round" d=" M 417.185, 618.667 417.185, 628.667 417.185, 638.667 417.185, 642.370 417.185, 642.370 427.185, 642.370 437.185, 642.370 447.185, 642.370 457.185, 642.370 467.185, 642.370 477.185, 642.370 487.185, 642.370 497.185, 642.370 507.185, 642.370 517.185, 642.370 527.185, 642.370 537.185, 642.370 547.185, 642.370 557.185, 642.370 567.185, 642.370 577.185, 642.370 587.185, 642.370 597.185, 642.370 607.185, 642.370 617.185, 642.370 627.185, 642.370 637.185, 642.370 647.185, 642.370 654.222, 642.370 654.222, 632.370 654.222, 622.370 654.222, 612.370 654.222, 602.370 654.222, 594.963 654.222, 594.963 644.222, 594.963 634.222, 594.963 624.222, 594.963 614.222, 594.963 604.222, 594.963 594.222, 594.963 584.222, 594.963 574.222, 594.963 564.222, 594.963 554.222, 594.963 544.222, 594.963 534.222, 594.963 524.222, 594.963 514.222, 594.963 504.222, 594.963 494.222, 594.963 484.222, 594.963 474.222, 594.963 464.222, 594.963 454.222, 594.963 444.222, 594.963 434.222, 594.963 424.222, 594.963 417.185, 594.963 417.185, 604.963 417.185, 614.963 417.185, 618.667 " />
            <path fill="none" stroke-width="3.0" stroke-linecap="butt" stroke-opacity="1.0" stroke="rgb(0, 0, 0)" stroke-linejoin="round" d=" M 654.222, 594.963 654.222, 604.963 654.222, 614.963 654.222, 624.963 654.222, 634.963 654.222, 642.370 " />
            <path fill="none" stroke-width="3.0" stroke-linecap="butt" stroke-opacity="1.0" stroke="rgb(0, 0, 0)" stroke-linejoin="round" d=" M 417.185, 642.370 427.185, 642.370 437.185, 642.370 447.185, 642.370 457.185, 642.370 467.185, 642.370 477.185, 642.370 487.185, 642.370 497.185, 642.370 507.185, 642.370 517.185, 642.370 527.185, 642.370 537.185, 642.370 547.185, 642.370 557.185, 642.370 567.185, 642.370 577.185, 642.370 587.185, 642.370 597.185, 642.370 607.185, 642.370 617.185, 642.370 627.185, 642.370 637.185, 642.370 647.185, 642.370 654.222, 642.370 654.222, 642.370 " />
            <path fill="none" stroke-width="3.0" stroke-linecap="butt" stroke-opacity="1.0" stroke="rgb(0, 0, 0)" stroke-linejoin="round" d=" M 417.185, 535.704 417.185, 525.704 417.185, 515.704 417.185, 505.704 417.185, 495.704 417.185, 485.704 417.185, 475.704 417.185, 465.704 417.185, 455.704 417.185, 445.704 417.185, 435.704 417.185, 425.704 417.185, 415.704 417.185, 405.704 417.185, 395.704 417.185, 385.704 417.185, 381.630 417.185, 381.630 407.185, 381.630 397.185, 381.630 387.185, 381.630 377.185, 381.630 369.778, 381.630 369.778, 391.630 369.778, 401.630 369.778, 411.630 369.778, 421.630 369.778, 431.630 369.778, 441.630 369.778, 451.630 369.778, 461.630 369.778, 471.630 369.778, 481.630 369.778, 491.630 369.778, 501.630 369.778, 511.630 369.778, 521.630 369.778, 531.630 369.778, 541.630 369.778, 551.630 369.778, 561.630 369.778, 571.630 369.778, 581.630 369.778, 591.630 369.778, 601.630 369.778, 611.630 369.778, 618.667 369.778, 618.667 379.778, 618.667 389.778, 618.667 399.778, 618.667 409.778, 618.667 417.185, 618.667 " />
            <path fill="none" stroke-width="3.0" stroke-linecap="butt" stroke-opacity="1.0" stroke="rgb(0, 0, 0)" stroke-linejoin="round" d=" M 417.185, 381.630 417.185, 391.630 417.185, 401.630 417.185, 411.630 417.185, 421.630 417.185, 431.630 417.185, 441.630 417.185, 451.630 417.185, 461.630 417.185, 471.630 417.185, 481.630 417.185, 491.630 417.185, 501.630 417.185, 511.630 417.185, 521.630 417.185, 531.630 417.185, 535.704 " />
            <path fill="none" stroke-width="3.0" stroke-linecap="butt" stroke-opacity="1.0" stroke="rgb(0, 0, 0)" stroke-linejoin="round" d=" M 417.185, 618.667 417.185, 618.667 " />
            <path fill="none" stroke-width="3.0" stroke-linecap="butt" stroke-opacity="1.0" stroke="rgb(0, 0, 0)" stroke-linejoin="round" d=" M 369.778, 618.667 379.778, 618.667 389.778, 618.667 399.778, 618.667 409.778, 618.667 417.185, 618.667 417.185, 608.667 417.185, 598.667 417.185, 588.667 417.185, 583.111 " />
            <path fill="none" stroke-width="3.0" stroke-linecap="butt" stroke-opacity="1.0" stroke="rgb(0, 0, 0)" stroke-linejoin="round" d=" M 417.185, 583.111 417.185, 583.111 417.185, 583.111 427.185, 583.111 437.185, 583.111 447.185, 583.111 457.185, 583.111 467.185, 583.111 477.185, 583.111 487.185, 583.111 497.185, 583.111 507.185, 583.111 517.185, 583.111 527.185, 583.111 537.185, 583.111 547.185, 583.111 557.185, 583.111 567.185, 583.111 577.185, 583.111 587.185, 583.111 597.185, 583.111 607.185, 583.111 617.185, 583.111 627.185, 583.111 637.185, 583.111 647.185, 583.111 654.222, 583.111 654.222, 583.111 654.222, 573.111 654.222, 563.111 654.222, 553.111 654.222, 543.111 654.222, 535.704 654.222, 535.704 654.222, 535.704 " />
            <path fill="none" stroke-width="3.0" stroke-linecap="butt" stroke-opacity="1.0" stroke="rgb(0, 0, 0)" stroke-linejoin="round" d=" M 417.185, 583.111 427.185, 583.111 437.185, 583.111 447.185, 583.111 457.185, 583.111 467.185, 583.111 477.185, 583.111 487.185, 583.111 497.185, 583.111 507.185, 583.111 517.185, 583.111 527.185, 583.111 537.185, 583.111 547.185, 583.111 557.185, 583.111 567.185, 583.111 577.185, 583.111 587.185, 583.111 597.185, 583.111 607.185, 583.111 617.185, 583.111 627.185, 583.111 637.185, 583.111 647.185, 583.111 654.222, 583.111 " />
            <path fill="none" stroke-width="3.0" stroke-linecap="butt" stroke-opacity="1.0" stroke="rgb(0, 0, 0)" stroke-linejoin="round" d=" M 417.185, 583.111 427.185, 583.111 437.185, 583.111 447.185, 583.111 457.185, 583.111 467.185, 583.111 477.185, 583.111 487.185, 583.111 497.185, 583.111 507.185, 583.111 517.185, 583.111 527.185, 583.111 537.185, 583.111 547.185, 583.111 557.185, 583.111 567.185, 583.111 577.185, 583.111 587.185, 583.111 597.185, 583.111 607.185, 583.111 617.185, 583.111 627.185, 583.111 637.185, 583.111 647.185, 583.111 654.222, 583.111 654.222, 573.111 654.222, 563.111 654.222, 553.111 654.222, 543.111 654.222, 535.704 654.222, 535.704 654.222, 535.704 654.222, 535.704 644.222, 535.704 634.222, 535.704 624.222, 535.704 614.222, 535.704 604.222, 535.704 594.222, 535.704 584.222, 535.704 574.222, 535.704 564.222, 535.704 554.222, 535.704 544.222, 535.704 534.222, 535.704 524.222, 535.704 514.222, 535.704 504.222, 535.704 494.222, 535.704 484.222, 535.704 474.222, 535.704 464.222, 535.704 454.222, 535.704 444.222, 535.704 434.222, 535.704 424.222, 535.704 417.185, 535.704 417.185, 535.704 " />
            <path fill="none" stroke-width="3.0" stroke-linecap="butt" stroke-opacity="1.0" stroke="rgb(0, 0, 0)" stroke-linejoin="round" d=" M 417.185, 535.704 417.185, 545.704 417.185, 555.704 417.185, 565.704 417.185, 575.704 417.185, 583.111 " />
            <path fill="none" stroke-width="3.0" stroke-linecap="butt" stroke-opacity="1.0" stroke="rgb(0, 0, 0)" stroke-linejoin="round" d=" M 644.741, 521.482 644.741, 511.482 644.741, 502.519 644.741, 502.519 634.741, 502.519 624.741, 502.519 614.741, 502.519 604.741, 502.519 594.741, 502.519 584.741, 502.519 574.741, 502.519 568.889, 502.519 568.889, 512.519 568.889, 521.482 568.889, 521.482 578.889, 521.482 588.889, 521.482 598.889, 521.482 608.889, 521.482 618.889, 521.482 628.889, 521.482 638.889, 521.482 644.741, 521.482 " />
            <path fill="none" stroke-width="3.0" stroke-linecap="butt" stroke-opacity="1.0" stroke="rgb(0, 0, 0)" stroke-linejoin="round" d=" M 644.741, 502.519 644.741, 512.519 644.741, 521.482 " />
            <path fill="none" stroke-width="3.0" stroke-linecap="butt" stroke-opacity="1.0" stroke="rgb(0, 0, 0)" stroke-linejoin="round" d=" M 568.889, 521.482 578.889, 521.482 588.889, 521.482 598.889, 521.482 608.889, 521.482 618.889, 521.482 628.889, 521.482 638.889, 521.482 644.741, 521.482 644.741, 521.482 " />
            <path fill="none" stroke-width="3.0" stroke-linecap="butt" stroke-opacity="1.0" stroke="rgb(0, 0, 0)" stroke-linejoin="round" d=" M 417.185, 583.111 417.185, 583.111 417.185, 583.111 " />
        </g>
    </g>
    <g id="ViewLayer_TechnicalLines" inkscape:groupmode="lineset" inkscape:label="ViewLayer_TechnicalLines">
        <g inkscape:groupmode="layer" id="strokes" inkscape:label="strokes">
            <path fill="none" stroke-width="3.0" stroke-linecap="butt" stroke-opacity="1.0" stroke="rgb(0, 0, 0)" stroke-linejoin="round" d=" M 417.185, 618.667 417.185, 628.667 417.185, 638.667 417.185, 642.370 417.185, 642.370 427.185, 642.370 437.185, 642.370 447.185, 642.370 457.185, 642.370 467.185, 642.370 477.185, 642.370 487.185, 642.370 497.185, 642.370 507.185, 642.370 517.185, 642.370 527.185, 642.370 537.185, 642.370 547.185, 642.370 557.185, 642.370 567.185, 642.370 577.185, 642.370 587.185, 642.370 597.185, 642.370 607.185, 642.370 617.185, 642.370 627.185, 642.370 637.185, 642.370 647.185, 642.370 654.222, 642.370 654.222, 632.370 654.222, 622.370 654.222, 612.370 654.222, 602.370 654.222, 594.963 654.222, 594.963 644.222, 594.963 634.222, 594.963 624.222, 594.963 614.222, 594.963 604.222, 594.963 594.222, 594.963 584.222, 594.963 574.222, 594.963 564.222, 594.963 554.222, 594.963 544.222, 594.963 534.222, 594.963 524.222, 594.963 514.222, 594.963 504.222, 594.963 494.222, 594.963 484.222, 594.963 474.222, 594.963 464.222, 594.963 454.222, 594.963 444.222, 594.963 434.222, 594.963 424.222, 594.963 417.185, 594.963 417.185, 604.963 417.185, 614.963 417.185, 618.667 " />
            <path fill="none" stroke-width="3.0" stroke-linecap="butt" stroke-opacity="1.0" stroke="rgb(0, 0, 0)" stroke-linejoin="round" d=" M 654.222, 594.963 654.222, 604.963 654.222, 614.963 654.222, 624.963 654.222, 634.963 654.222, 642.370 " />
            <path fill="none" stroke-width="3.0" stroke-linecap="butt" stroke-opacity="1.0" stroke="rgb(0, 0, 0)" stroke-linejoin="round" d=" M 417.185, 642.370 427.185, 642.370 437.185, 642.370 447.185, 642.370 457.185, 642.370 467.185, 642.370 477.185, 642.370 487.185, 642.370 497.185, 642.370 507.185, 642.370 517.185, 642.370 527.185, 642.370 537.185, 642.370 547.185, 642.370 557.185, 642.370 567.185, 642.370 577.185, 642.370 587.185, 642.370 597.185, 642.370 607.185, 642.370 617.185, 642.370 627.185, 642.370 637.185, 642.370 647.185, 642.370 654.222, 642.370 654.222, 642.370 " />
            <path fill="none" stroke-width="3.0" stroke-linecap="butt" stroke-opacity="1.0" stroke="rgb(0, 0, 0)" stroke-linejoin="round" d=" M 417.185, 535.704 417.185, 525.704 417.185, 515.704 417.185, 505.704 417.185, 495.704 417.185, 485.704 417.185, 475.704 417.185, 465.704 417.185, 455.704 417.185, 445.704 417.185, 435.704 417.185, 425.704 417.185, 415.704 417.185, 405.704 417.185, 395.704 417.185, 385.704 417.185, 381.630 417.185, 381.630 407.185, 381.630 397.185, 381.630 387.185, 381.630 377.185, 381.630 369.778, 381.630 369.778, 391.630 369.778, 401.630 369.778, 411.630 369.778, 421.630 369.778, 431.630 369.778, 441.630 369.778, 451.630 369.778, 461.630 369.778, 471.630 369.778, 481.630 369.778, 491.630 369.778, 501.630 369.778, 511.630 369.778, 521.630 369.778, 531.630 369.778, 541.630 369.778, 551.630 369.778, 561.630 369.778, 571.630 369.778, 581.630 369.778, 591.630 369.778, 601.630 369.778, 611.630 369.778, 618.667 369.778, 618.667 379.778, 618.667 389.778, 618.667 399.778, 618.667 409.778, 618.667 417.185, 618.667 " />
            <path fill="none" stroke-width="3.0" stroke-linecap="butt" stroke-opacity="1.0" stroke="rgb(0, 0, 0)" stroke-linejoin="round" d=" M 417.185, 381.630 417.185, 391.630 417.185, 401.630 417.185, 411.630 417.185, 421.630 417.185, 431.630 417.185, 441.630 417.185, 451.630 417.185, 461.630 417.185, 471.630 417.185, 481.630 417.185, 491.630 417.185, 501.630 417.185, 511.630 417.185, 521.630 417.185, 531.630 417.185, 535.704 " />
            <path fill="none" stroke-width="3.0" stroke-linecap="butt" stroke-opacity="1.0" stroke="rgb(0, 0, 0)" stroke-linejoin="round" d=" M 417.185, 618.667 417.185, 618.667 " />
            <path fill="none" stroke-width="3.0" stroke-linecap="butt" stroke-opacity="1.0" stroke="rgb(0, 0, 0)" stroke-linejoin="round" d=" M 369.778, 618.667 379.778, 618.667 389.778, 618.667 399.778, 618.667 409.778, 618.667 417.185, 618.667 417.185, 608.667 417.185, 598.667 417.185, 588.667 417.185, 583.111 " />
            <path fill="none" stroke-width="3.0" stroke-linecap="butt" stroke-opacity="1.0" stroke="rgb(0, 0, 0)" stroke-linejoin="round" d=" M 417.185, 583.111 417.185, 583.111 417.185, 583.111 427.185, 583.111 437.185, 583.111 447.185, 583.111 457.185, 583.111 467.185, 583.111 477.185, 583.111 487.185, 583.111 497.185, 583.111 507.185, 583.111 517.185, 583.111 527.185, 583.111 537.185, 583.111 547.185, 583.111 557.185, 583.111 567.185, 583.111 577.185, 583.111 587.185, 583.111 597.185, 583.111 607.185, 583.111 617.185, 583.111 627.185, 583.111 637.185, 583.111 647.185, 583.111 654.222, 583.111 654.222, 583.111 654.222, 573.111 654.222, 563.111 654.222, 553.111 654.222, 543.111 654.222, 535.704 654.222, 535.704 654.222, 535.704 " />
            <path fill="none" stroke-width="3.0" stroke-linecap="butt" stroke-opacity="1.0" stroke="rgb(0, 0, 0)" stroke-linejoin="round" d=" M 417.185, 583.111 427.185, 583.111 437.185, 583.111 447.185, 583.111 457.185, 583.111 467.185, 583.111 477.185, 583.111 487.185, 583.111 497.185, 583.111 507.185, 583.111 517.185, 583.111 527.185, 583.111 537.185, 583.111 547.185, 583.111 557.185, 583.111 567.185, 583.111 577.185, 583.111 587.185, 583.111 597.185, 583.111 607.185, 583.111 617.185, 583.111 627.185, 583.111 637.185, 583.111 647.185, 583.111 654.222, 583.111 " />
            <path fill="none" stroke-width="3.0" stroke-linecap="butt" stroke-opacity="1.0" stroke="rgb(0, 0, 0)" stroke-linejoin="round" d=" M 417.185, 583.111 427.185, 583.111 437.185, 583.111 447.185, 583.111 457.185, 583.111 467.185, 583.111 477.185, 583.111 487.185, 583.111 497.185, 583.111 507.185, 583.111 517.185, 583.111 527.185, 583.111 537.185, 583.111 547.185, 583.111 557.185, 583.111 567.185, 583.111 577.185, 583.111 587.185, 583.111 597.185, 583.111 607.185, 583.111 617.185, 583.111 627.185, 583.111 637.185, 583.111 647.185, 583.111 654.222, 583.111 654.222, 573.111 654.222, 563.111 654.222, 553.111 654.222, 543.111 654.222, 535.704 654.222, 535.704 654.222, 535.704 654.222, 535.704 644.222, 535.704 634.222, 535.704 624.222, 535.704 614.222, 535.704 604.222, 535.704 594.222, 535.704 584.222, 535.704 574.222, 535.704 564.222, 535.704 554.222, 535.704 544.222, 535.704 534.222, 535.704 524.222, 535.704 514.222, 535.704 504.222, 535.704 494.222, 535.704 484.222, 535.704 474.222, 535.704 464.222, 535.704 454.222, 535.704 444.222, 535.704 434.222, 535.704 424.222, 535.704 417.185, 535.704 417.185, 535.704 " />
            <path fill="none" stroke-width="3.0" stroke-linecap="butt" stroke-opacity="1.0" stroke="rgb(0, 0, 0)" stroke-linejoin="round" d=" M 417.185, 535.704 417.185, 545.704 417.185, 555.704 417.185, 565.704 417.185, 575.704 417.185, 583.111 " />
            <path fill="none" stroke-width="3.0" stroke-linecap="butt" stroke-opacity="1.0" stroke="rgb(0, 0, 0)" stroke-linejoin="round" d=" M 644.741, 521.482 644.741, 511.482 644.741, 502.519 644.741, 502.519 634.741, 502.519 624.741, 502.519 614.741, 502.519 604.741, 502.519 594.741, 502.519 584.741, 502.519 574.741, 502.519 568.889, 502.519 568.889, 512.519 568.889, 521.482 568.889, 521.482 578.889, 521.482 588.889, 521.482 598.889, 521.482 608.889, 521.482 618.889, 521.482 628.889, 521.482 638.889, 521.482 644.741, 521.482 " />
            <path fill="none" stroke-width="3.0" stroke-linecap="butt" stroke-opacity="1.0" stroke="rgb(0, 0, 0)" stroke-linejoin="round" d=" M 644.741, 502.519 644.741, 512.519 644.741, 521.482 " />
            <path fill="none" stroke-width="3.0" stroke-linecap="butt" stroke-opacity="1.0" stroke="rgb(0, 0, 0)" stroke-linejoin="round" d=" M 568.889, 521.482 578.889, 521.482 588.889, 521.482 598.889, 521.482 608.889, 521.482 618.889, 521.482 628.889, 521.482 638.889, 521.482 644.741, 521.482 644.741, 521.482 " />
            <path fill="none" stroke-width="3.0" stroke-linecap="butt" stroke-opacity="1.0" stroke="rgb(0, 0, 0)" stroke-linejoin="round" d=" M 417.185, 583.111 417.185, 583.111 417.185, 583.111 " />
        </g>
    </g>
    <g id="ViewLayer_TechnicalLines.001" inkscape:groupmode="lineset" inkscape:label="ViewLayer_TechnicalLines.001">
        <g inkscape:groupmode="layer" id="strokes" inkscape:label="strokes">
            <path fill="none" stroke-width="1.5" stroke-linecap="round" stroke-opacity="1.0" stroke="rgb(0, 0, 0)" stroke-linejoin="round" d=" M 417.185, 618.667 417.185, 628.667 417.185, 638.667 417.185, 642.370 417.185, 642.370 427.185, 642.370 437.185, 642.370 447.185, 642.370 457.185, 642.370 467.185, 642.370 477.185, 642.370 487.185, 642.370 497.185, 642.370 507.185, 642.370 517.185, 642.370 527.185, 642.370 537.185, 642.370 547.185, 642.370 557.185, 642.370 567.185, 642.370 577.185, 642.370 587.185, 642.370 597.185, 642.370 607.185, 642.370 617.185, 642.370 627.185, 642.370 637.185, 642.370 647.185, 642.370 654.222, 642.370 654.222, 632.370 654.222, 622.370 654.222, 612.370 654.222, 602.370 654.222, 594.963 654.222, 594.963 644.222, 594.963 634.222, 594.963 624.222, 594.963 614.222, 594.963 604.222, 594.963 594.222, 594.963 584.222, 594.963 574.222, 594.963 564.222, 594.963 554.222, 594.963 544.222, 594.963 534.222, 594.963 524.222, 594.963 514.222, 594.963 504.222, 594.963 494.222, 594.963 484.222, 594.963 474.222, 594.963 464.222, 594.963 454.222, 594.963 444.222, 594.963 434.222, 594.963 424.222, 594.963 417.185, 594.963 417.185, 604.963 417.185, 614.963 417.185, 618.667 " />
            <path fill="none" stroke-width="1.5" stroke-linecap="round" stroke-opacity="1.0" stroke="rgb(0, 0, 0)" stroke-linejoin="round" d=" M 654.222, 594.963 654.222, 604.963 654.222, 614.963 654.222, 624.963 654.222, 634.963 654.222, 642.370 " />
            <path fill="none" stroke-width="1.5" stroke-linecap="round" stroke-opacity="1.0" stroke="rgb(0, 0, 0)" stroke-linejoin="round" d=" M 417.185, 642.370 427.185, 642.370 437.185, 642.370 447.185, 642.370 457.185, 642.370 467.185, 642.370 477.185, 642.370 487.185, 642.370 497.185, 642.370 507.185, 642.370 517.185, 642.370 527.185, 642.370 537.185, 642.370 547.185, 642.370 557.185, 642.370 567.185, 642.370 577.185, 642.370 587.185, 642.370 597.185, 642.370 607.185, 642.370 617.185, 642.370 627.185, 642.370 637.185, 642.370 647.185, 642.370 654.222, 642.370 654.222, 642.370 " />
            <path fill="none" stroke-width="1.5" stroke-linecap="round" stroke-opacity="1.0" stroke="rgb(0, 0, 0)" stroke-linejoin="round" d=" M 417.185, 535.704 417.185, 525.704 417.185, 515.704 417.185, 505.704 417.185, 495.704 417.185, 485.704 417.185, 475.704 417.185, 465.704 417.185, 455.704 417.185, 445.704 417.185, 435.704 417.185, 425.704 417.185, 415.704 417.185, 405.704 417.185, 395.704 417.185, 385.704 417.185, 381.630 417.185, 381.630 407.185, 381.630 397.185, 381.630 387.185, 381.630 377.185, 381.630 369.778, 381.630 369.778, 391.630 369.778, 401.630 369.778, 411.630 369.778, 421.630 369.778, 431.630 369.778, 441.630 369.778, 451.630 369.778, 461.630 369.778, 471.630 369.778, 481.630 369.778, 491.630 369.778, 501.630 369.778, 511.630 369.778, 521.630 369.778, 531.630 369.778, 541.630 369.778, 551.630 369.778, 561.630 369.778, 571.630 369.778, 581.630 369.778, 591.630 369.778, 601.630 369.778, 611.630 369.778, 618.667 369.778, 618.667 379.778, 618.667 389.778, 618.667 399.778, 618.667 409.778, 618.667 417.185, 618.667 " />
            <path fill="none" stroke-width="1.5" stroke-linecap="round" stroke-opacity="1.0" stroke="rgb(0, 0, 0)" stroke-linejoin="round" d=" M 417.185, 381.630 417.185, 391.630 417.185, 401.630 417.185, 411.630 417.185, 421.630 417.185, 431.630 417.185, 441.630 417.185, 451.630 417.185, 461.630 417.185, 471.630 417.185, 481.630 417.185, 491.630 417.185, 501.630 417.185, 511.630 417.185, 521.630 417.185, 531.630 417.185, 535.704 " />
            <path fill="none" stroke-width="1.5" stroke-linecap="round" stroke-opacity="1.0" stroke="rgb(0, 0, 0)" stroke-linejoin="round" d=" M 417.185, 618.667 417.185, 618.667 " />
            <path fill="none" stroke-width="1.5" stroke-linecap="round" stroke-opacity="1.0" stroke="rgb(0, 0, 0)" stroke-linejoin="round" d=" M 369.778, 618.667 379.778, 618.667 389.778, 618.667 399.778, 618.667 409.778, 618.667 417.185, 618.667 417.185, 608.667 417.185, 598.667 417.185, 588.667 417.185, 583.111 " />
            <path fill="none" stroke-width="1.5" stroke-linecap="round" stroke-opacity="1.0" stroke="rgb(0, 0, 0)" stroke-linejoin="round" d=" M 417.185, 583.111 417.185, 583.111 417.185, 583.111 427.185, 583.111 437.185, 583.111 447.185, 583.111 457.185, 583.111 467.185, 583.111 477.185, 583.111 487.185, 583.111 497.185, 583.111 507.185, 583.111 517.185, 583.111 527.185, 583.111 537.185, 583.111 547.185, 583.111 557.185, 583.111 567.185, 583.111 577.185, 583.111 587.185, 583.111 597.185, 583.111 607.185, 583.111 617.185, 583.111 627.185, 583.111 637.185, 583.111 647.185, 583.111 654.222, 583.111 654.222, 583.111 654.222, 573.111 654.222, 563.111 654.222, 553.111 654.222, 543.111 654.222, 535.704 654.222, 535.704 654.222, 535.704 " />
            <path fill="none" stroke-width="1.5" stroke-linecap="round" stroke-opacity="1.0" stroke="rgb(0, 0, 0)" stroke-linejoin="round" d=" M 417.185, 583.111 427.185, 583.111 437.185, 583.111 447.185, 583.111 457.185, 583.111 467.185, 583.111 477.185, 583.111 487.185, 583.111 497.185, 583.111 507.185, 583.111 517.185, 583.111 527.185, 583.111 537.185, 583.111 547.185, 583.111 557.185, 583.111 567.185, 583.111 577.185, 583.111 587.185, 583.111 597.185, 583.111 607.185, 583.111 617.185, 583.111 627.185, 583.111 637.185, 583.111 647.185, 583.111 654.222, 583.111 " />
            <path fill="none" stroke-width="1.5" stroke-linecap="round" stroke-opacity="1.0" stroke="rgb(0, 0, 0)" stroke-linejoin="round" d=" M 417.185, 583.111 427.185, 583.111 437.185, 583.111 447.185, 583.111 457.185, 583.111 467.185, 583.111 477.185, 583.111 487.185, 583.111 497.185, 583.111 507.185, 583.111 517.185, 583.111 527.185, 583.111 537.185, 583.111 547.185, 583.111 557.185, 583.111 567.185, 583.111 577.185, 583.111 587.185, 583.111 597.185, 583.111 607.185, 583.111 617.185, 583.111 627.185, 583.111 637.185, 583.111 647.185, 583.111 654.222, 583.111 654.222, 573.111 654.222, 563.111 654.222, 553.111 654.222, 543.111 654.222, 535.704 654.222, 535.704 654.222, 535.704 654.222, 535.704 644.222, 535.704 634.222, 535.704 624.222, 535.704 614.222, 535.704 604.222, 535.704 594.222, 535.704 584.222, 535.704 574.222, 535.704 564.222, 535.704 554.222, 535.704 544.222, 535.704 534.222, 535.704 524.222, 535.704 514.222, 535.704 504.222, 535.704 494.222, 535.704 484.222, 535.704 474.222, 535.704 464.222, 535.704 454.222, 535.704 444.222, 535.704 434.222, 535.704 424.222, 535.704 417.185, 535.704 417.185, 535.704 " />
            <path fill="none" stroke-width="1.5" stroke-linecap="round" stroke-opacity="1.0" stroke="rgb(0, 0, 0)" stroke-linejoin="round" d=" M 417.185, 535.704 417.185, 545.704 417.185, 555.704 417.185, 565.704 417.185, 575.704 417.185, 583.111 " />
            <path fill="none" stroke-width="1.5" stroke-linecap="round" stroke-opacity="1.0" stroke="rgb(0, 0, 0)" stroke-linejoin="round" d=" M 644.741, 521.482 644.741, 511.482 644.741, 502.519 644.741, 502.519 634.741, 502.519 624.741, 502.519 614.741, 502.519 604.741, 502.519 594.741, 502.519 584.741, 502.519 574.741, 502.519 568.889, 502.519 568.889, 512.519 568.889, 521.482 568.889, 521.482 578.889, 521.482 588.889, 521.482 598.889, 521.482 608.889, 521.482 618.889, 521.482 628.889, 521.482 638.889, 521.482 644.741, 521.482 " />
            <path fill="none" stroke-width="1.5" stroke-linecap="round" stroke-opacity="1.0" stroke="rgb(0, 0, 0)" stroke-linejoin="round" d=" M 644.741, 502.519 644.741, 512.519 644.741, 521.482 " />
            <path fill="none" stroke-width="1.5" stroke-linecap="round" stroke-opacity="1.0" stroke="rgb(0, 0, 0)" stroke-linejoin="round" d=" M 568.889, 521.482 578.889, 521.482 588.889, 521.482 598.889, 521.482 608.889, 521.482 618.889, 521.482 628.889, 521.482 638.889, 521.482 644.741, 521.482 644.741, 521.482 " />
            <path fill="none" stroke-width="1.5" stroke-linecap="round" stroke-opacity="1.0" stroke="rgb(0, 0, 0)" stroke-linejoin="round" d=" M 417.185, 583.111 417.185, 583.111 417.185, 583.111 " />
        </g>
    </g>
    <g id="ViewLayer_TechnicalLines.002" inkscape:groupmode="lineset" inkscape:label="ViewLayer_TechnicalLines.002">
        <g inkscape:groupmode="layer" id="strokes" inkscape:label="strokes">
            <path fill="none" stroke-width="1.5" stroke-linecap="round" stroke-opacity="1.0" stroke="rgb(0, 0, 0)" stroke-linejoin="round" d=" M 417.185, 618.667 417.185, 628.667 417.185, 638.667 417.185, 642.370 417.185, 642.370 427.185, 642.370 437.185, 642.370 447.185, 642.370 457.185, 642.370 467.185, 642.370 477.185, 642.370 487.185, 642.370 497.185, 642.370 507.185, 642.370 517.185, 642.370 527.185, 642.370 537.185, 642.370 547.185, 642.370 557.185, 642.370 567.185, 642.370 577.185, 642.370 587.185, 642.370 597.185, 642.370 607.185, 642.370 617.185, 642.370 627.185, 642.370 637.185, 642.370 647.185, 642.370 654.222, 642.370 654.222, 632.370 654.222, 622.370 654.222, 612.370 654.222, 602.370 654.222, 594.963 654.222, 594.963 644.222, 594.963 634.222, 594.963 624.222, 594.963 614.222, 594.963 604.222, 594.963 594.222, 594.963 584.222, 594.963 574.222, 594.963 564.222, 594.963 554.222, 594.963 544.222, 594.963 534.222, 594.963 524.222, 594.963 514.222, 594.963 504.222, 594.963 494.222, 594.963 484.222, 594.963 474.222, 594.963 464.222, 594.963 454.222, 594.963 444.222, 594.963 434.222, 594.963 424.222, 594.963 417.185, 594.963 417.185, 604.963 417.185, 614.963 417.185, 618.667 " />
            <path fill="none" stroke-width="1.5" stroke-linecap="round" stroke-opacity="1.0" stroke="rgb(0, 0, 0)" stroke-linejoin="round" d=" M 654.222, 594.963 654.222, 604.963 654.222, 614.963 654.222, 624.963 654.222, 634.963 654.222, 642.370 " />
            <path fill="none" stroke-width="1.5" stroke-linecap="round" stroke-opacity="1.0" stroke="rgb(0, 0, 0)" stroke-linejoin="round" d=" M 417.185, 642.370 427.185, 642.370 437.185, 642.370 447.185, 642.370 457.185, 642.370 467.185, 642.370 477.185, 642.370 487.185, 642.370 497.185, 642.370 507.185, 642.370 517.185, 642.370 527.185, 642.370 537.185, 642.370 547.185, 642.370 557.185, 642.370 567.185, 642.370 577.185, 642.370 587.185, 642.370 597.185, 642.370 607.185, 642.370 617.185, 642.370 627.185, 642.370 637.185, 642.370 647.185, 642.370 654.222, 642.370 654.222, 642.370 " />
            <path fill="none" stroke-width="1.5" stroke-linecap="round" stroke-opacity="1.0" stroke="rgb(0, 0, 0)" stroke-linejoin="round" d=" M 417.185, 535.704 417.185, 525.704 417.185, 515.704 417.185, 505.704 417.185, 495.704 417.185, 485.704 417.185, 475.704 417.185, 465.704 417.185, 455.704 417.185, 445.704 417.185, 435.704 417.185, 425.704 417.185, 415.704 417.185, 405.704 417.185, 395.704 417.185, 385.704 417.185, 381.630 417.185, 381.630 407.185, 381.630 397.185, 381.630 387.185, 381.630 377.185, 381.630 369.778, 381.630 369.778, 391.630 369.778, 401.630 369.778, 411.630 369.778, 421.630 369.778, 431.630 369.778, 441.630 369.778, 451.630 369.778, 461.630 369.778, 471.630 369.778, 481.630 369.778, 491.630 369.778, 501.630 369.778, 511.630 369.778, 521.630 369.778, 531.630 369.778, 541.630 369.778, 551.630 369.778, 561.630 369.778, 571.630 369.778, 581.630 369.778, 591.630 369.778, 601.630 369.778, 611.630 369.778, 618.667 369.778, 618.667 379.778, 618.667 389.778, 618.667 399.778, 618.667 409.778, 618.667 417.185, 618.667 " />
            <path fill="none" stroke-width="1.5" stroke-linecap="round" stroke-opacity="1.0" stroke="rgb(0, 0, 0)" stroke-linejoin="round" d=" M 417.185, 381.630 417.185, 391.630 417.185, 401.630 417.185, 411.630 417.185, 421.630 417.185, 431.630 417.185, 441.630 417.185, 451.630 417.185, 461.630 417.185, 471.630 417.185, 481.630 417.185, 491.630 417.185, 501.630 417.185, 511.630 417.185, 521.630 417.185, 531.630 417.185, 535.704 " />
            <path fill="none" stroke-width="1.5" stroke-linecap="round" stroke-opacity="1.0" stroke="rgb(0, 0, 0)" stroke-linejoin="round" d=" M 417.185, 618.667 417.185, 618.667 " />
            <path fill="none" stroke-width="1.5" stroke-linecap="round" stroke-opacity="1.0" stroke="rgb(0, 0, 0)" stroke-linejoin="round" d=" M 369.778, 618.667 379.778, 618.667 389.778, 618.667 399.778, 618.667 409.778, 618.667 417.185, 618.667 417.185, 608.667 417.185, 598.667 417.185, 588.667 417.185, 583.111 " />
            <path fill="none" stroke-width="1.5" stroke-linecap="round" stroke-opacity="1.0" stroke="rgb(0, 0, 0)" stroke-linejoin="round" d=" M 417.185, 583.111 417.185, 583.111 417.185, 583.111 427.185, 583.111 437.185, 583.111 447.185, 583.111 457.185, 583.111 467.185, 583.111 477.185, 583.111 487.185, 583.111 497.185, 583.111 507.185, 583.111 517.185, 583.111 527.185, 583.111 537.185, 583.111 547.185, 583.111 557.185, 583.111 567.185, 583.111 577.185, 583.111 587.185, 583.111 597.185, 583.111 607.185, 583.111 617.185, 583.111 627.185, 583.111 637.185, 583.111 647.185, 583.111 654.222, 583.111 654.222, 583.111 654.222, 573.111 654.222, 563.111 654.222, 553.111 654.222, 543.111 654.222, 535.704 654.222, 535.704 654.222, 535.704 " />
            <path fill="none" stroke-width="1.5" stroke-linecap="round" stroke-opacity="1.0" stroke="rgb(0, 0, 0)" stroke-linejoin="round" d=" M 417.185, 583.111 427.185, 583.111 437.185, 583.111 447.185, 583.111 457.185, 583.111 467.185, 583.111 477.185, 583.111 487.185, 583.111 497.185, 583.111 507.185, 583.111 517.185, 583.111 527.185, 583.111 537.185, 583.111 547.185, 583.111 557.185, 583.111 567.185, 583.111 577.185, 583.111 587.185, 583.111 597.185, 583.111 607.185, 583.111 617.185, 583.111 627.185, 583.111 637.185, 583.111 647.185, 583.111 654.222, 583.111 " />
            <path fill="none" stroke-width="1.5" stroke-linecap="round" stroke-opacity="1.0" stroke="rgb(0, 0, 0)" stroke-linejoin="round" d=" M 417.185, 583.111 427.185, 583.111 437.185, 583.111 447.185, 583.111 457.185, 583.111 467.185, 583.111 477.185, 583.111 487.185, 583.111 497.185, 583.111 507.185, 583.111 517.185, 583.111 527.185, 583.111 537.185, 583.111 547.185, 583.111 557.185, 583.111 567.185, 583.111 577.185, 583.111 587.185, 583.111 597.185, 583.111 607.185, 583.111 617.185, 583.111 627.185, 583.111 637.185, 583.111 647.185, 583.111 654.222, 583.111 654.222, 573.111 654.222, 563.111 654.222, 553.111 654.222, 543.111 654.222, 535.704 654.222, 535.704 654.222, 535.704 654.222, 535.704 644.222, 535.704 634.222, 535.704 624.222, 535.704 614.222, 535.704 604.222, 535.704 594.222, 535.704 584.222, 535.704 574.222, 535.704 564.222, 535.704 554.222, 535.704 544.222, 535.704 534.222, 535.704 524.222, 535.704 514.222, 535.704 504.222, 535.704 494.222, 535.704 484.222, 535.704 474.222, 535.704 464.222, 535.704 454.222, 535.704 444.222, 535.704 434.222, 535.704 424.222, 535.704 417.185, 535.704 417.185, 535.704 " />
            <path fill="none" stroke-width="1.5" stroke-linecap="round" stroke-opacity="1.0" stroke="rgb(0, 0, 0)" stroke-linejoin="round" d=" M 417.185, 535.704 417.185, 545.704 417.185, 555.704 417.185, 565.704 417.185, 575.704 417.185, 583.111 " />
            <path fill="none" stroke-width="1.5" stroke-linecap="round" stroke-opacity="1.0" stroke="rgb(0, 0, 0)" stroke-linejoin="round" d=" M 644.741, 521.482 644.741, 511.482 644.741, 502.519 644.741, 502.519 634.741, 502.519 624.741, 502.519 614.741, 502.519 604.741, 502.519 594.741, 502.519 584.741, 502.519 574.741, 502.519 568.889, 502.519 568.889, 512.519 568.889, 521.482 568.889, 521.482 578.889, 521.482 588.889, 521.482 598.889, 521.482 608.889, 521.482 618.889, 521.482 628.889, 521.482 638.889, 521.482 644.741, 521.482 " />
            <path fill="none" stroke-width="1.5" stroke-linecap="round" stroke-opacity="1.0" stroke="rgb(0, 0, 0)" stroke-linejoin="round" d=" M 644.741, 502.519 644.741, 512.519 644.741, 521.482 " />
            <path fill="none" stroke-width="1.5" stroke-linecap="round" stroke-opacity="1.0" stroke="rgb(0, 0, 0)" stroke-linejoin="round" d=" M 568.889, 521.482 578.889, 521.482 588.889, 521.482 598.889, 521.482 608.889, 521.482 618.889, 521.482 628.889, 521.482 638.889, 521.482 644.741, 521.482 644.741, 521.482 " />
            <path fill="none" stroke-width="1.5" stroke-linecap="round" stroke-opacity="1.0" stroke="rgb(0, 0, 0)" stroke-linejoin="round" d=" M 417.185, 583.111 417.185, 583.111 417.185, 583.111 " />
        </g>
    </g>
    <g id="ViewLayer_TechnicalLines.003" inkscape:groupmode="lineset" inkscape:label="ViewLayer_TechnicalLines.003">
        <g inkscape:groupmode="layer" id="strokes" inkscape:label="strokes">
            <path fill="none" stroke-width="1.5" stroke-linecap="round" stroke-opacity="1.0" stroke="rgb(0, 0, 0)" stroke-linejoin="round" d=" M 417.185, 618.667 417.185, 628.667 417.185, 638.667 417.185, 642.370 417.185, 642.370 427.185, 642.370 437.185, 642.370 447.185, 642.370 457.185, 642.370 467.185, 642.370 477.185, 642.370 487.185, 642.370 497.185, 642.370 507.185, 642.370 517.185, 642.370 527.185, 642.370 537.185, 642.370 547.185, 642.370 557.185, 642.370 567.185, 642.370 577.185, 642.370 587.185, 642.370 597.185, 642.370 607.185, 642.370 617.185, 642.370 627.185, 642.370 637.185, 642.370 647.185, 642.370 654.222, 642.370 654.222, 632.370 654.222, 622.370 654.222, 612.370 654.222, 602.370 654.222, 594.963 654.222, 594.963 644.222, 594.963 634.222, 594.963 624.222, 594.963 614.222, 594.963 604.222, 594.963 594.222, 594.963 584.222, 594.963 574.222, 594.963 564.222, 594.963 554.222, 594.963 544.222, 594.963 534.222, 594.963 524.222, 594.963 514.222, 594.963 504.222, 594.963 494.222, 594.963 484.222, 594.963 474.222, 594.963 464.222, 594.963 454.222, 594.963 444.222, 594.963 434.222, 594.963 424.222, 594.963 417.185, 594.963 417.185, 604.963 417.185, 614.963 417.185, 618.667 " />
            <path fill="none" stroke-width="1.5" stroke-linecap="round" stroke-opacity="1.0" stroke="rgb(0, 0, 0)" stroke-linejoin="round" d=" M 654.222, 594.963 654.222, 604.963 654.222, 614.963 654.222, 624.963 654.222, 634.963 654.222, 642.370 " />
            <path fill="none" stroke-width="1.5" stroke-linecap="round" stroke-opacity="1.0" stroke="rgb(0, 0, 0)" stroke-linejoin="round" d=" M 417.185, 642.370 427.185, 642.370 437.185, 642.370 447.185, 642.370 457.185, 642.370 467.185, 642.370 477.185, 642.370 487.185, 642.370 497.185, 642.370 507.185, 642.370 517.185, 642.370 527.185, 642.370 537.185, 642.370 547.185, 642.370 557.185, 642.370 567.185, 642.370 577.185, 642.370 587.185, 642.370 597.185, 642.370 607.185, 642.370 617.185, 642.370 627.185, 642.370 637.185, 642.370 647.185, 642.370 654.222, 642.370 654.222, 642.370 " />
            <path fill="none" stroke-width="1.5" stroke-linecap="round" stroke-opacity="1.0" stroke="rgb(0, 0, 0)" stroke-linejoin="round" d=" M 417.185, 535.704 417.185, 525.704 417.185, 515.704 417.185, 505.704 417.185, 495.704 417.185, 485.704 417.185, 475.704 417.185, 465.704 417.185, 455.704 417.185, 445.704 417.185, 435.704 417.185, 425.704 417.185, 415.704 417.185, 405.704 417.185, 395.704 417.185, 385.704 417.185, 381.630 417.185, 381.630 407.185, 381.630 397.185, 381.630 387.185, 381.630 377.185, 381.630 369.778, 381.630 369.778, 391.630 369.778, 401.630 369.778, 411.630 369.778, 421.630 369.778, 431.630 369.778, 441.630 369.778, 451.630 369.778, 461.630 369.778, 471.630 369.778, 481.630 369.778, 491.630 369.778, 501.630 369.778, 511.630 369.778, 521.630 369.778, 531.630 369.778, 541.630 369.778, 551.630 369.778, 561.630 369.778, 571.630 369.778, 581.630 369.778, 591.630 369.778, 601.630 369.778, 611.630 369.778, 618.667 369.778, 618.667 379.778, 618.667 389.778, 618.667 399.778, 618.667 409.778, 618.667 417.185, 618.667 " />
            <path fill="none" stroke-width="1.5" stroke-linecap="round" stroke-opacity="1.0" stroke="rgb(0, 0, 0)" stroke-linejoin="round" d=" M 417.185, 381.630 417.185, 391.630 417.185, 401.630 417.185, 411.630 417.185, 421.630 417.185, 431.630 417.185, 441.630 417.185, 451.630 417.185, 461.630 417.185, 471.630 417.185, 481.630 417.185, 491.630 417.185, 501.630 417.185, 511.630 417.185, 521.630 417.185, 531.630 417.185, 535.704 " />
            <path fill="none" stroke-width="1.5" stroke-linecap="round" stroke-opacity="1.0" stroke="rgb(0, 0, 0)" stroke-linejoin="round" d=" M 417.185, 618.667 417.185, 618.667 " />
            <path fill="none" stroke-width="1.5" stroke-linecap="round" stroke-opacity="1.0" stroke="rgb(0, 0, 0)" stroke-linejoin="round" d=" M 369.778, 618.667 379.778, 618.667 389.778, 618.667 399.778, 618.667 409.778, 618.667 417.185, 618.667 417.185, 608.667 417.185, 598.667 417.185, 588.667 417.185, 583.111 " />
            <path fill="none" stroke-width="1.5" stroke-linecap="round" stroke-opacity="1.0" stroke="rgb(0, 0, 0)" stroke-linejoin="round" d=" M 417.185, 583.111 417.185, 583.111 417.185, 583.111 427.185, 583.111 437.185, 583.111 447.185, 583.111 457.185, 583.111 467.185, 583.111 477.185, 583.111 487.185, 583.111 497.185, 583.111 507.185, 583.111 517.185, 583.111 527.185, 583.111 537.185, 583.111 547.185, 583.111 557.185, 583.111 567.185, 583.111 577.185, 583.111 587.185, 583.111 597.185, 583.111 607.185, 583.111 617.185, 583.111 627.185, 583.111 637.185, 583.111 647.185, 583.111 654.222, 583.111 654.222, 583.111 654.222, 573.111 654.222, 563.111 654.222, 553.111 654.222, 543.111 654.222, 535.704 654.222, 535.704 654.222, 535.704 " />
            <path fill="none" stroke-width="1.5" stroke-linecap="round" stroke-opacity="1.0" stroke="rgb(0, 0, 0)" stroke-linejoin="round" d=" M 417.185, 583.111 427.185, 583.111 437.185, 583.111 447.185, 583.111 457.185, 583.111 467.185, 583.111 477.185, 583.111 487.185, 583.111 497.185, 583.111 507.185, 583.111 517.185, 583.111 527.185, 583.111 537.185, 583.111 547.185, 583.111 557.185, 583.111 567.185, 583.111 577.185, 583.111 587.185, 583.111 597.185, 583.111 607.185, 583.111 617.185, 583.111 627.185, 583.111 637.185, 583.111 647.185, 583.111 654.222, 583.111 " />
            <path fill="none" stroke-width="1.5" stroke-linecap="round" stroke-opacity="1.0" stroke="rgb(0, 0, 0)" stroke-linejoin="round" d=" M 417.185, 583.111 427.185, 583.111 437.185, 583.111 447.185, 583.111 457.185, 583.111 467.185, 583.111 477.185, 583.111 487.185, 583.111 497.185, 583.111 507.185, 583.111 517.185, 583.111 527.185, 583.111 537.185, 583.111 547.185, 583.111 557.185, 583.111 567.185, 583.111 577.185, 583.111 587.185, 583.111 597.185, 583.111 607.185, 583.111 617.185, 583.111 627.185, 583.111 637.185, 583.111 647.185, 583.111 654.222, 583.111 654.222, 573.111 654.222, 563.111 654.222, 553.111 654.222, 543.111 654.222, 535.704 654.222, 535.704 654.222, 535.704 654.222, 535.704 644.222, 535.704 634.222, 535.704 624.222, 535.704 614.222, 535.704 604.222, 535.704 594.222, 535.704 584.222, 535.704 574.222, 535.704 564.222, 535.704 554.222, 535.704 544.222, 535.704 534.222, 535.704 524.222, 535.704 514.222, 535.704 504.222, 535.704 494.222, 535.704 484.222, 535.704 474.222, 535.704 464.222, 535.704 454.222, 535.704 444.222, 535.704 434.222, 535.704 424.222, 535.704 417.185, 535.704 417.185, 535.704 " />
            <path fill="none" stroke-width="1.5" stroke-linecap="round" stroke-opacity="1.0" stroke="rgb(0, 0, 0)" stroke-linejoin="round" d=" M 417.185, 535.704 417.185, 545.704 417.185, 555.704 417.185, 565.704 417.185, 575.704 417.185, 583.111 " />
            <path fill="none" stroke-width="1.5" stroke-linecap="round" stroke-opacity="1.0" stroke="rgb(0, 0, 0)" stroke-linejoin="round" d=" M 644.741, 521.482 644.741, 511.482 644.741, 502.519 644.741, 502.519 634.741, 502.519 624.741, 502.519 614.741, 502.519 604.741, 502.519 594.741, 502.519 584.741, 502.519 574.741, 502.519 568.889, 502.519 568.889, 512.519 568.889, 521.482 568.889, 521.482 578.889, 521.482 588.889, 521.482 598.889, 521.482 608.889, 521.482 618.889, 521.482 628.889, 521.482 638.889, 521.482 644.741, 521.482 " />
            <path fill="none" stroke-width="1.5" stroke-linecap="round" stroke-opacity="1.0" stroke="rgb(0, 0, 0)" stroke-linejoin="round" d=" M 644.741, 502.519 644.741, 512.519 644.741, 521.482 " />
            <path fill="none" stroke-width="1.5" stroke-linecap="round" stroke-opacity="1.0" stroke="rgb(0, 0, 0)" stroke-linejoin="round" d=" M 568.889, 521.482 578.889, 521.482 588.889, 521.482 598.889, 521.482 608.889, 521.482 618.889, 521.482 628.889, 521.482 638.889, 521.482 644.741, 521.482 644.741, 521.482 " />
            <path fill="none" stroke-width="1.5" stroke-linecap="round" stroke-opacity="1.0" stroke="rgb(0, 0, 0)" stroke-linejoin="round" d=" M 417.185, 583.111 417.185, 583.111 417.185, 583.111 " />
        </g>
    </g>
    <g id="ViewLayer_TechnicalLines.004" xmlns:inkscape="http://www.inkscape.org/namespaces/inkscape" inkscape:groupmode="lineset" inkscape:label="ViewLayer_TechnicalLines.004">
        <g xmlns:inkscape="http://www.inkscape.org/namespaces/inkscape" inkscape:groupmode="layer" id="strokes" inkscape:label="strokes">
            <path fill="none" stroke-width="1.5" stroke-linecap="round" stroke-opacity="1.0" stroke="rgb(0, 0, 0)" stroke-linejoin="round" d=" M 417.185, 618.667 417.185, 628.667 417.185, 638.667 417.185, 642.370 417.185, 642.370 427.185, 642.370 437.185, 642.370 447.185, 642.370 457.185, 642.370 467.185, 642.370 477.185, 642.370 487.185, 642.370 497.185, 642.370 507.185, 642.370 517.185, 642.370 527.185, 642.370 537.185, 642.370 547.185, 642.370 557.185, 642.370 567.185, 642.370 577.185, 642.370 587.185, 642.370 597.185, 642.370 607.185, 642.370 617.185, 642.370 627.185, 642.370 637.185, 642.370 647.185, 642.370 654.222, 642.370 654.222, 632.370 654.222, 622.370 654.222, 612.370 654.222, 602.370 654.222, 594.963 654.222, 594.963 644.222, 594.963 634.222, 594.963 624.222, 594.963 614.222, 594.963 604.222, 594.963 594.222, 594.963 584.222, 594.963 574.222, 594.963 564.222, 594.963 554.222, 594.963 544.222, 594.963 534.222, 594.963 524.222, 594.963 514.222, 594.963 504.222, 594.963 494.222, 594.963 484.222, 594.963 474.222, 594.963 464.222, 594.963 454.222, 594.963 444.222, 594.963 434.222, 594.963 424.222, 594.963 417.185, 594.963 417.185, 604.963 417.185, 614.963 417.185, 618.667 " />
            <path fill="none" stroke-width="1.5" stroke-linecap="round" stroke-opacity="1.0" stroke="rgb(0, 0, 0)" stroke-linejoin="round" d=" M 654.222, 594.963 654.222, 604.963 654.222, 614.963 654.222, 624.963 654.222, 634.963 654.222, 642.370 " />
            <path fill="none" stroke-width="1.5" stroke-linecap="round" stroke-opacity="1.0" stroke="rgb(0, 0, 0)" stroke-linejoin="round" d=" M 417.185, 642.370 427.185, 642.370 437.185, 642.370 447.185, 642.370 457.185, 642.370 467.185, 642.370 477.185, 642.370 487.185, 642.370 497.185, 642.370 507.185, 642.370 517.185, 642.370 527.185, 642.370 537.185, 642.370 547.185, 642.370 557.185, 642.370 567.185, 642.370 577.185, 642.370 587.185, 642.370 597.185, 642.370 607.185, 642.370 617.185, 642.370 627.185, 642.370 637.185, 642.370 647.185, 642.370 654.222, 642.370 654.222, 642.370 " />
            <path fill="none" stroke-width="1.5" stroke-linecap="round" stroke-opacity="1.0" stroke="rgb(0, 0, 0)" stroke-linejoin="round" d=" M 417.185, 535.704 417.185, 525.704 417.185, 515.704 417.185, 505.704 417.185, 495.704 417.185, 485.704 417.185, 475.704 417.185, 465.704 417.185, 455.704 417.185, 445.704 417.185, 435.704 417.185, 425.704 417.185, 415.704 417.185, 405.704 417.185, 395.704 417.185, 385.704 417.185, 381.630 417.185, 381.630 407.185, 381.630 397.185, 381.630 387.185, 381.630 377.185, 381.630 369.778, 381.630 369.778, 391.630 369.778, 401.630 369.778, 411.630 369.778, 421.630 369.778, 431.630 369.778, 441.630 369.778, 451.630 369.778, 461.630 369.778, 471.630 369.778, 481.630 369.778, 491.630 369.778, 501.630 369.778, 511.630 369.778, 521.630 369.778, 531.630 369.778, 541.630 369.778, 551.630 369.778, 561.630 369.778, 571.630 369.778, 581.630 369.778, 591.630 369.778, 601.630 369.778, 611.630 369.778, 618.667 369.778, 618.667 379.778, 618.667 389.778, 618.667 399.778, 618.667 409.778, 618.667 417.185, 618.667 " />
            <path fill="none" stroke-width="1.5" stroke-linecap="round" stroke-opacity="1.0" stroke="rgb(0, 0, 0)" stroke-linejoin="round" d=" M 417.185, 381.630 417.185, 391.630 417.185, 401.630 417.185, 411.630 417.185, 421.630 417.185, 431.630 417.185, 441.630 417.185, 451.630 417.185, 461.630 417.185, 471.630 417.185, 481.630 417.185, 491.630 417.185, 501.630 417.185, 511.630 417.185, 521.630 417.185, 531.630 417.185, 535.704 " />
            <path fill="none" stroke-width="1.5" stroke-linecap="round" stroke-opacity="1.0" stroke="rgb(0, 0, 0)" stroke-linejoin="round" d=" M 417.185, 618.667 417.185, 618.667 " />
            <path fill="none" stroke-width="1.5" stroke-linecap="round" stroke-opacity="1.0" stroke="rgb(0, 0, 0)" stroke-linejoin="round" d=" M 369.778, 618.667 379.778, 618.667 389.778, 618.667 399.778, 618.667 409.778, 618.667 417.185, 618.667 417.185, 608.667 417.185, 598.667 417.185, 588.667 417.185, 583.111 " />
            <path fill="none" stroke-width="1.5" stroke-linecap="round" stroke-opacity="1.0" stroke="rgb(0, 0, 0)" stroke-linejoin="round" d=" M 417.185, 583.111 417.185, 583.111 417.185, 583.111 427.185, 583.111 437.185, 583.111 447.185, 583.111 457.185, 583.111 467.185, 583.111 477.185, 583.111 487.185, 583.111 497.185, 583.111 507.185, 583.111 517.185, 583.111 527.185, 583.111 537.185, 583.111 547.185, 583.111 557.185, 583.111 567.185, 583.111 577.185, 583.111 587.185, 583.111 597.185, 583.111 607.185, 583.111 617.185, 583.111 627.185, 583.111 637.185, 583.111 647.185, 583.111 654.222, 583.111 654.222, 583.111 654.222, 573.111 654.222, 563.111 654.222, 553.111 654.222, 543.111 654.222, 535.704 654.222, 535.704 654.222, 535.704 " />
            <path fill="none" stroke-width="1.5" stroke-linecap="round" stroke-opacity="1.0" stroke="rgb(0, 0, 0)" stroke-linejoin="round" d=" M 417.185, 583.111 427.185, 583.111 437.185, 583.111 447.185, 583.111 457.185, 583.111 467.185, 583.111 477.185, 583.111 487.185, 583.111 497.185, 583.111 507.185, 583.111 517.185, 583.111 527.185, 583.111 537.185, 583.111 547.185, 583.111 557.185, 583.111 567.185, 583.111 577.185, 583.111 587.185, 583.111 597.185, 583.111 607.185, 583.111 617.185, 583.111 627.185, 583.111 637.185, 583.111 647.185, 583.111 654.222, 583.111 " />
            <path fill="none" stroke-width="1.5" stroke-linecap="round" stroke-opacity="1.0" stroke="rgb(0, 0, 0)" stroke-linejoin="round" d=" M 417.185, 583.111 427.185, 583.111 437.185, 583.111 447.185, 583.111 457.185, 583.111 467.185, 583.111 477.185, 583.111 487.185, 583.111 497.185, 583.111 507.185, 583.111 517.185, 583.111 527.185, 583.111 537.185, 583.111 547.185, 583.111 557.185, 583.111 567.185, 583.111 577.185, 583.111 587.185, 583.111 597.185, 583.111 607.185, 583.111 617.185, 583.111 627.185, 583.111 637.185, 583.111 647.185, 583.111 654.222, 583.111 654.222, 573.111 654.222, 563.111 654.222, 553.111 654.222, 543.111 654.222, 535.704 654.222, 535.704 654.222, 535.704 654.222, 535.704 644.222, 535.704 634.222, 535.704 624.222, 535.704 614.222, 535.704 604.222, 535.704 594.222, 535.704 584.222, 535.704 574.222, 535.704 564.222, 535.704 554.222, 535.704 544.222, 535.704 534.222, 535.704 524.222, 535.704 514.222, 535.704 504.222, 535.704 494.222, 535.704 484.222, 535.704 474.222, 535.704 464.222, 535.704 454.222, 535.704 444.222, 535.704 434.222, 535.704 424.222, 535.704 417.185, 535.704 417.185, 535.704 " />
            <path fill="none" stroke-width="1.5" stroke-linecap="round" stroke-opacity="1.0" stroke="rgb(0, 0, 0)" stroke-linejoin="round" d=" M 417.185, 535.704 417.185, 545.704 417.185, 555.704 417.185, 565.704 417.185, 575.704 417.185, 583.111 " />
            <path fill="none" stroke-width="1.5" stroke-linecap="round" stroke-opacity="1.0" stroke="rgb(0, 0, 0)" stroke-linejoin="round" d=" M 644.741, 521.482 644.741, 511.482 644.741, 502.519 644.741, 502.519 634.741, 502.519 624.741, 502.519 614.741, 502.519 604.741, 502.519 594.741, 502.519 584.741, 502.519 574.741, 502.519 568.889, 502.519 568.889, 512.519 568.889, 521.482 568.889, 521.482 578.889, 521.482 588.889, 521.482 598.889, 521.482 608.889, 521.482 618.889, 521.482 628.889, 521.482 638.889, 521.482 644.741, 521.482 " />
            <path fill="none" stroke-width="1.5" stroke-linecap="round" stroke-opacity="1.0" stroke="rgb(0, 0, 0)" stroke-linejoin="round" d=" M 644.741, 502.519 644.741, 512.519 644.741, 521.482 " />
            <path fill="none" stroke-width="1.5" stroke-linecap="round" stroke-opacity="1.0" stroke="rgb(0, 0, 0)" stroke-linejoin="round" d=" M 568.889, 521.482 578.889, 521.482 588.889, 521.482 598.889, 521.482 608.889, 521.482 618.889, 521.482 628.889, 521.482 638.889, 521.482 644.741, 521.482 644.741, 521.482 " />
            <path fill="none" stroke-width="1.5" stroke-linecap="round" stroke-opacity="1.0" stroke="rgb(0, 0, 0)" stroke-linejoin="round" d=" M 417.185, 583.111 417.185, 583.111 417.185, 583.111 " />
        </g>
    </g>
</svg>
