<?xml version='1.0' encoding='ascii'?>
<svg xmlns="http://www.w3.org/2000/svg" xmlns:inkscape="http://www.inkscape.org/namespaces/inkscape" version="1.1" width="1024" height="1024">
    <g id="ViewLayer_LineSet" inkscape:groupmode="lineset" inkscape:label="ViewLayer_LineSet">
        <g inkscape:groupmode="layer" id="strokes" inkscape:label="strokes">
            <path fill="none" stroke-width="3.0" stroke-linecap="butt" stroke-opacity="1.0" stroke="rgb(0, 0, 0)" stroke-linejoin="round" d=" M 437.937, 796.445 438.143, 796.445 438.754, 796.445 439.746, 796.445 441.081, 796.445 442.708, 796.445 444.563, 796.445 446.577, 796.445 448.671, 796.445 450.765, 796.445 452.779, 796.445 454.634, 796.445 456.261, 796.445 457.596, 796.445 458.588, 796.445 459.198, 796.445 459.405, 796.445 459.405, 786.445 459.405, 776.445 459.405, 766.444 459.405, 756.444 459.405, 746.444 459.405, 736.444 459.405, 726.444 459.405, 716.444 459.405, 706.444 459.405, 696.444 459.405, 686.444 459.405, 676.444 459.405, 666.444 459.405, 656.444 459.405, 646.444 459.405, 636.444 459.405, 626.444 459.405, 616.444 459.405, 606.444 459.405, 596.444 459.405, 586.063 459.405, 586.063 " />
            <path fill="none" stroke-width="3.0" stroke-linecap="butt" stroke-opacity="1.0" stroke="rgb(0, 0, 0)" stroke-linejoin="round" d=" M 566.742, 796.445 566.948, 796.445 567.559, 796.445 568.551, 796.445 569.886, 796.445 571.513, 796.445 573.368, 796.445 575.382, 796.445 577.476, 796.445 579.570, 796.445 581.584, 796.445 583.439, 796.445 585.066, 796.445 586.401, 796.445 587.393, 796.445 588.003, 796.445 588.210, 796.445 588.210, 786.445 588.210, 776.445 588.210, 766.444 588.210, 756.444 588.210, 746.444 588.210, 736.444 588.210, 726.444 588.210, 716.444 588.210, 706.444 588.210, 696.444 588.210, 686.444 588.210, 676.444 588.210, 666.444 588.210, 656.444 588.210, 646.444 588.210, 636.444 588.210, 626.444 588.210, 616.444 588.210, 606.444 588.210, 596.444 588.210, 586.063 588.210, 586.063 " />
            <path fill="none" stroke-width="3.0" stroke-linecap="butt" stroke-opacity="1.0" stroke="rgb(0, 0, 0)" stroke-linejoin="round" d=" M 588.210, 586.063 598.210, 586.063 608.210, 586.063 618.210, 586.063 628.210, 586.063 638.210, 586.063 641.878, 586.063 641.878, 586.063 641.878, 576.063 641.878, 566.063 641.878, 556.063 641.878, 546.063 641.878, 536.063 641.878, 534.541 641.878, 534.541 631.878, 534.541 621.878, 534.541 611.878, 534.541 601.878, 534.541 591.878, 534.541 581.878, 534.541 571.878, 534.541 561.878, 534.541 551.878, 534.541 541.878, 534.541 531.878, 534.541 521.878, 534.541 511.878, 534.541 501.878, 534.541 491.878, 534.541 481.878, 534.541 471.878, 534.541 461.878, 534.541 451.878, 534.541 441.878, 534.541 431.878, 534.541 421.878, 534.541 411.878, 534.541 407.883, 534.541 407.883, 534.541 397.883, 534.541 387.883, 534.541 384.268, 534.541 384.268, 544.541 384.268, 554.541 384.268, 564.541 384.268, 574.541 384.268, 584.541 384.268, 586.063 " />
            <path fill="none" stroke-width="3.0" stroke-linecap="butt" stroke-opacity="1.0" stroke="rgb(0, 0, 0)" stroke-linejoin="round" d=" M 384.268, 586.063 394.268, 586.063 404.268, 586.063 407.883, 586.063 417.883, 586.063 427.883, 586.063 437.937, 586.063 " />
            <path fill="none" stroke-width="3.0" stroke-linecap="butt" stroke-opacity="1.0" stroke="rgb(0, 0, 0)" stroke-linejoin="round" d=" M 382.122, 613.971 392.122, 613.971 402.122, 613.971 407.883, 613.971 407.883, 613.971 407.883, 603.971 407.883, 593.971 407.883, 586.063 407.883, 586.063 " />
            <path fill="none" stroke-width="3.0" stroke-linecap="butt" stroke-opacity="1.0" stroke="rgb(0, 0, 0)" stroke-linejoin="round" d=" M 407.883, 448.671 407.883, 438.671 407.883, 428.671 407.883, 418.671 407.883, 408.671 407.883, 398.671 407.883, 388.671 407.883, 378.671 407.883, 368.671 407.883, 358.671 407.883, 348.671 407.883, 338.671 407.883, 328.671 407.883, 318.671 407.883, 308.671 407.883, 298.671 407.883, 288.671 407.883, 278.671 407.883, 268.671 407.883, 258.671 407.883, 248.671 407.883, 238.671 407.883, 227.556 407.883, 227.556 397.883, 227.556 387.883, 227.556 382.122, 227.556 " />
            <path fill="none" stroke-width="3.0" stroke-linecap="butt" stroke-opacity="1.0" stroke="rgb(0, 0, 0)" stroke-linejoin="round" d=" M 407.883, 227.556 407.883, 237.556 407.883, 247.556 407.883, 257.556 407.883, 267.556 407.883, 277.556 407.883, 287.556 407.883, 297.556 407.883, 307.556 407.883, 317.556 407.883, 327.556 407.883, 337.556 407.883, 347.556 407.883, 357.556 407.883, 367.556 407.883, 377.556 407.883, 387.556 407.883, 397.556 407.883, 407.556 407.883, 417.556 407.883, 427.556 407.883, 437.556 407.883, 448.671 " />
            <path fill="none" stroke-width="3.0" stroke-linecap="butt" stroke-opacity="1.0" stroke="rgb(0, 0, 0)" stroke-linejoin="round" d=" M 641.878, 500.193 641.878, 490.193 641.878, 480.193 641.878, 470.193 641.878, 460.193 641.878, 450.193 641.878, 448.671 641.878, 448.671 " />
            <path fill="none" stroke-width="3.0" stroke-linecap="butt" stroke-opacity="1.0" stroke="rgb(0, 0, 0)" stroke-linejoin="round" d=" M 384.268, 500.193 394.268, 500.193 404.268, 500.193 407.883, 500.193 407.883, 500.193 417.883, 500.193 427.883, 500.193 437.883, 500.193 447.883, 500.193 457.883, 500.193 467.883, 500.193 477.883, 500.193 487.883, 500.193 497.883, 500.193 507.883, 500.193 517.883, 500.193 527.883, 500.193 537.883, 500.193 547.883, 500.193 557.883, 500.193 567.883, 500.193 577.883, 500.193 587.883, 500.193 597.883, 500.193 607.883, 500.193 617.883, 500.193 627.883, 500.193 637.883, 500.193 641.878, 500.193 641.878, 490.193 641.878, 480.193 641.878, 470.193 641.878, 460.193 641.878, 450.193 641.878, 448.671 " />
            <path fill="none" stroke-width="3.0" stroke-linecap="butt" stroke-opacity="1.0" stroke="rgb(0, 0, 0)" stroke-linejoin="round" d=" M 641.878, 448.671 641.878, 448.671 631.878, 448.671 621.878, 448.671 611.878, 448.671 601.878, 448.671 591.878, 448.671 581.878, 448.671 571.878, 448.671 561.878, 448.671 551.878, 448.671 541.878, 448.671 531.878, 448.671 521.878, 448.671 511.878, 448.671 501.878, 448.671 491.878, 448.671 481.878, 448.671 471.878, 448.671 461.878, 448.671 451.878, 448.671 441.878, 448.671 431.878, 448.671 421.878, 448.671 411.878, 448.671 407.883, 448.671 407.883, 448.671 397.883, 448.671 387.883, 448.671 384.268, 448.671 384.268, 458.671 384.268, 468.671 384.268, 478.671 384.268, 488.671 384.268, 498.671 384.268, 500.193 " />
            <path fill="none" stroke-width="3.0" stroke-linecap="butt" stroke-opacity="1.0" stroke="rgb(0, 0, 0)" stroke-linejoin="round" d=" M 382.122, 227.556 382.122, 237.556 382.122, 247.556 382.122, 257.556 382.122, 267.556 382.122, 277.556 382.122, 287.556 382.122, 297.556 382.122, 307.556 382.122, 317.556 382.122, 327.556 382.122, 337.556 382.122, 347.556 382.122, 357.556 382.122, 367.556 382.122, 377.556 382.122, 387.556 382.122, 397.556 382.122, 407.556 382.122, 417.556 382.122, 427.556 382.122, 437.556 382.122, 447.556 382.122, 457.556 382.122, 467.556 382.122, 477.556 382.122, 487.556 382.122, 497.556 382.122, 507.556 382.122, 517.556 382.122, 527.556 382.122, 537.556 382.122, 547.556 382.122, 557.556 382.122, 567.556 382.122, 577.556 382.122, 587.556 382.122, 597.556 382.122, 607.556 382.122, 613.971 " />
            <path fill="none" stroke-width="3.0" stroke-linecap="butt" stroke-opacity="1.0" stroke="rgb(0, 0, 0)" stroke-linejoin="round" d=" M 407.883, 500.193 407.883, 500.193 407.883, 510.193 407.883, 520.193 407.883, 530.193 407.883, 534.541 407.883, 544.541 407.883, 554.541 407.883, 564.541 407.883, 574.541 407.883, 584.541 407.883, 586.063 407.883, 596.063 407.883, 606.063 407.883, 613.971 " />
            <path fill="none" stroke-width="3.0" stroke-linecap="butt" stroke-opacity="1.0" stroke="rgb(0, 0, 0)" stroke-linejoin="round" d=" M 407.883, 534.541 407.883, 524.541 407.883, 514.541 407.883, 504.541 407.883, 500.193 " />
            <path fill="none" stroke-width="3.0" stroke-linecap="butt" stroke-opacity="1.0" stroke="rgb(0, 0, 0)" stroke-linejoin="round" d=" M 437.937, 586.063 437.937, 586.063 437.937, 596.063 437.937, 606.063 437.937, 616.063 437.937, 626.063 437.937, 636.063 437.937, 646.063 437.937, 656.063 437.937, 666.063 437.937, 676.063 437.937, 686.063 437.937, 696.063 437.937, 706.063 437.937, 716.063 437.937, 726.063 437.937, 736.063 437.937, 746.063 437.937, 756.063 437.937, 766.063 437.937, 776.063 437.937, 786.063 437.937, 796.445 " />
            <path fill="none" stroke-width="3.0" stroke-linecap="butt" stroke-opacity="1.0" stroke="rgb(0, 0, 0)" stroke-linejoin="round" d=" M 566.742, 586.063 566.742, 586.063 566.742, 596.063 566.742, 606.063 566.742, 616.063 566.742, 626.063 566.742, 636.063 566.742, 646.063 566.742, 656.063 566.742, 666.063 566.742, 676.063 566.742, 686.063 566.742, 696.063 566.742, 706.063 566.742, 716.063 566.742, 726.063 566.742, 736.063 566.742, 746.063 566.742, 756.063 566.742, 766.063 566.742, 776.063 566.742, 786.063 566.742, 796.445 " />
            <path fill="none" stroke-width="3.0" stroke-linecap="butt" stroke-opacity="1.0" stroke="rgb(0, 0, 0)" stroke-linejoin="round" d=" M 384.268, 500.193 384.268, 500.193 " />
            <path fill="none" stroke-width="3.0" stroke-linecap="butt" stroke-opacity="1.0" stroke="rgb(0, 0, 0)" stroke-linejoin="round" d=" M 459.405, 586.063 469.405, 586.063 479.405, 586.063 489.405, 586.063 499.405, 586.063 509.405, 586.063 519.405, 586.063 529.405, 586.063 539.405, 586.063 549.405, 586.063 559.405, 586.063 566.742, 586.063 " />
            <path fill="none" stroke-width="3.0" stroke-linecap="butt" stroke-opacity="1.0" stroke="rgb(0, 0, 0)" stroke-linejoin="round" d=" M 407.883, 586.063 407.883, 586.063 417.883, 586.063 427.883, 586.063 437.937, 586.063 " />
            <path fill="none" stroke-width="3.0" stroke-linecap="butt" stroke-opacity="1.0" stroke="rgb(0, 0, 0)" stroke-linejoin="round" d=" M 588.210, 586.063 598.210, 586.063 608.210, 586.063 618.210, 586.063 628.210, 586.063 638.210, 586.063 641.878, 586.063 " />
            <path fill="none" stroke-width="3.0" stroke-linecap="butt" stroke-opacity="1.0" stroke="rgb(0, 0, 0)" stroke-linejoin="round" d=" M 566.742, 586.063 576.742, 586.063 586.742, 586.063 588.210, 586.063 " />
            <path fill="none" stroke-width="3.0" stroke-linecap="butt" stroke-opacity="1.0" stroke="rgb(0, 0, 0)" stroke-linejoin="round" d=" M 459.405, 586.063 469.405, 586.063 479.405, 586.063 489.405, 586.063 499.405, 586.063 509.405, 586.063 519.405, 586.063 529.405, 586.063 539.405, 586.063 549.405, 586.063 559.405, 586.063 566.742, 586.063 " />
            <path fill="none" stroke-width="3.0" stroke-linecap="butt" stroke-opacity="1.0" stroke="rgb(0, 0, 0)" stroke-linejoin="round" d=" M 437.937, 586.063 447.937, 586.063 457.937, 586.063 459.405, 586.063 " />
            <path fill="none" stroke-width="3.0" stroke-linecap="butt" stroke-opacity="1.0" stroke="rgb(0, 0, 0)" stroke-linejoin="round" d=" M 407.883, 500.193 407.883, 500.193 417.883, 500.193 427.883, 500.193 437.883, 500.193 447.883, 500.193 457.883, 500.193 467.883, 500.193 477.883, 500.193 487.883, 500.193 497.883, 500.193 507.883, 500.193 517.883, 500.193 527.883, 500.193 537.883, 500.193 547.883, 500.193 557.883, 500.193 567.883, 500.193 577.883, 500.193 587.883, 500.193 597.883, 500.193 607.883, 500.193 617.883, 500.193 627.883, 500.193 637.883, 500.193 641.878, 500.193 " />
        </g>
    </g>
    <g id="ViewLayer_TechnicalLines" inkscape:groupmode="lineset" inkscape:label="ViewLayer_TechnicalLines">
        <g inkscape:groupmode="layer" id="strokes" inkscape:label="strokes">
            <path fill="none" stroke-width="3.0" stroke-linecap="butt" stroke-opacity="1.0" stroke="rgb(0, 0, 0)" stroke-linejoin="round" d=" M 437.937, 796.445 438.143, 796.445 438.754, 796.445 439.746, 796.445 441.081, 796.445 442.708, 796.445 444.563, 796.445 446.577, 796.445 448.671, 796.445 450.765, 796.445 452.779, 796.445 454.634, 796.445 456.261, 796.445 457.596, 796.445 458.588, 796.445 459.198, 796.445 459.405, 796.445 459.405, 786.445 459.405, 776.445 459.405, 766.444 459.405, 756.444 459.405, 746.444 459.405, 736.444 459.405, 726.444 459.405, 716.444 459.405, 706.444 459.405, 696.444 459.405, 686.444 459.405, 676.444 459.405, 666.444 459.405, 656.444 459.405, 646.444 459.405, 636.444 459.405, 626.444 459.405, 616.444 459.405, 606.444 459.405, 596.444 459.405, 586.063 459.405, 586.063 " />
            <path fill="none" stroke-width="3.0" stroke-linecap="butt" stroke-opacity="1.0" stroke="rgb(0, 0, 0)" stroke-linejoin="round" d=" M 566.742, 796.445 566.948, 796.445 567.559, 796.445 568.551, 796.445 569.886, 796.445 571.513, 796.445 573.368, 796.445 575.382, 796.445 577.476, 796.445 579.570, 796.445 581.584, 796.445 583.439, 796.445 585.066, 796.445 586.401, 796.445 587.393, 796.445 588.003, 796.445 588.210, 796.445 588.210, 786.445 588.210, 776.445 588.210, 766.444 588.210, 756.444 588.210, 746.444 588.210, 736.444 588.210, 726.444 588.210, 716.444 588.210, 706.444 588.210, 696.444 588.210, 686.444 588.210, 676.444 588.210, 666.444 588.210, 656.444 588.210, 646.444 588.210, 636.444 588.210, 626.444 588.210, 616.444 588.210, 606.444 588.210, 596.444 588.210, 586.063 588.210, 586.063 " />
            <path fill="none" stroke-width="3.0" stroke-linecap="butt" stroke-opacity="1.0" stroke="rgb(0, 0, 0)" stroke-linejoin="round" d=" M 588.210, 586.063 598.210, 586.063 608.210, 586.063 618.210, 586.063 628.210, 586.063 638.210, 586.063 641.878, 586.063 641.878, 586.063 641.878, 576.063 641.878, 566.063 641.878, 556.063 641.878, 546.063 641.878, 536.063 641.878, 534.541 641.878, 534.541 631.878, 534.541 621.878, 534.541 611.878, 534.541 601.878, 534.541 591.878, 534.541 581.878, 534.541 571.878, 534.541 561.878, 534.541 551.878, 534.541 541.878, 534.541 531.878, 534.541 521.878, 534.541 511.878, 534.541 501.878, 534.541 491.878, 534.541 481.878, 534.541 471.878, 534.541 461.878, 534.541 451.878, 534.541 441.878, 534.541 431.878, 534.541 421.878, 534.541 411.878, 534.541 407.883, 534.541 407.883, 534.541 397.883, 534.541 387.883, 534.541 384.268, 534.541 384.268, 544.541 384.268, 554.541 384.268, 564.541 384.268, 574.541 384.268, 584.541 384.268, 586.063 " />
            <path fill="none" stroke-width="3.0" stroke-linecap="butt" stroke-opacity="1.0" stroke="rgb(0, 0, 0)" stroke-linejoin="round" d=" M 384.268, 586.063 394.268, 586.063 404.268, 586.063 407.883, 586.063 417.883, 586.063 427.883, 586.063 437.937, 586.063 " />
            <path fill="none" stroke-width="3.0" stroke-linecap="butt" stroke-opacity="1.0" stroke="rgb(0, 0, 0)" stroke-linejoin="round" d=" M 382.122, 613.971 392.122, 613.971 402.122, 613.971 407.883, 613.971 407.883, 613.971 407.883, 603.971 407.883, 593.971 407.883, 586.063 407.883, 586.063 " />
            <path fill="none" stroke-width="3.0" stroke-linecap="butt" stroke-opacity="1.0" stroke="rgb(0, 0, 0)" stroke-linejoin="round" d=" M 407.883, 448.671 407.883, 438.671 407.883, 428.671 407.883, 418.671 407.883, 408.671 407.883, 398.671 407.883, 388.671 407.883, 378.671 407.883, 368.671 407.883, 358.671 407.883, 348.671 407.883, 338.671 407.883, 328.671 407.883, 318.671 407.883, 308.671 407.883, 298.671 407.883, 288.671 407.883, 278.671 407.883, 268.671 407.883, 258.671 407.883, 248.671 407.883, 238.671 407.883, 227.556 407.883, 227.556 397.883, 227.556 387.883, 227.556 382.122, 227.556 " />
            <path fill="none" stroke-width="3.0" stroke-linecap="butt" stroke-opacity="1.0" stroke="rgb(0, 0, 0)" stroke-linejoin="round" d=" M 407.883, 227.556 407.883, 237.556 407.883, 247.556 407.883, 257.556 407.883, 267.556 407.883, 277.556 407.883, 287.556 407.883, 297.556 407.883, 307.556 407.883, 317.556 407.883, 327.556 407.883, 337.556 407.883, 347.556 407.883, 357.556 407.883, 367.556 407.883, 377.556 407.883, 387.556 407.883, 397.556 407.883, 407.556 407.883, 417.556 407.883, 427.556 407.883, 437.556 407.883, 448.671 " />
            <path fill="none" stroke-width="3.0" stroke-linecap="butt" stroke-opacity="1.0" stroke="rgb(0, 0, 0)" stroke-linejoin="round" d=" M 641.878, 500.193 641.878, 490.193 641.878, 480.193 641.878, 470.193 641.878, 460.193 641.878, 450.193 641.878, 448.671 641.878, 448.671 " />
            <path fill="none" stroke-width="3.0" stroke-linecap="butt" stroke-opacity="1.0" stroke="rgb(0, 0, 0)" stroke-linejoin="round" d=" M 384.268, 500.193 394.268, 500.193 404.268, 500.193 407.883, 500.193 407.883, 500.193 417.883, 500.193 427.883, 500.193 437.883, 500.193 447.883, 500.193 457.883, 500.193 467.883, 500.193 477.883, 500.193 487.883, 500.193 497.883, 500.193 507.883, 500.193 517.883, 500.193 527.883, 500.193 537.883, 500.193 547.883, 500.193 557.883, 500.193 567.883, 500.193 577.883, 500.193 587.883, 500.193 597.883, 500.193 607.883, 500.193 617.883, 500.193 627.883, 500.193 637.883, 500.193 641.878, 500.193 641.878, 490.193 641.878, 480.193 641.878, 470.193 641.878, 460.193 641.878, 450.193 641.878, 448.671 " />
            <path fill="none" stroke-width="3.0" stroke-linecap="butt" stroke-opacity="1.0" stroke="rgb(0, 0, 0)" stroke-linejoin="round" d=" M 641.878, 448.671 641.878, 448.671 631.878, 448.671 621.878, 448.671 611.878, 448.671 601.878, 448.671 591.878, 448.671 581.878, 448.671 571.878, 448.671 561.878, 448.671 551.878, 448.671 541.878, 448.671 531.878, 448.671 521.878, 448.671 511.878, 448.671 501.878, 448.671 491.878, 448.671 481.878, 448.671 471.878, 448.671 461.878, 448.671 451.878, 448.671 441.878, 448.671 431.878, 448.671 421.878, 448.671 411.878, 448.671 407.883, 448.671 407.883, 448.671 397.883, 448.671 387.883, 448.671 384.268, 448.671 384.268, 458.671 384.268, 468.671 384.268, 478.671 384.268, 488.671 384.268, 498.671 384.268, 500.193 " />
            <path fill="none" stroke-width="3.0" stroke-linecap="butt" stroke-opacity="1.0" stroke="rgb(0, 0, 0)" stroke-linejoin="round" d=" M 382.122, 227.556 382.122, 237.556 382.122, 247.556 382.122, 257.556 382.122, 267.556 382.122, 277.556 382.122, 287.556 382.122, 297.556 382.122, 307.556 382.122, 317.556 382.122, 327.556 382.122, 337.556 382.122, 347.556 382.122, 357.556 382.122, 367.556 382.122, 377.556 382.122, 387.556 382.122, 397.556 382.122, 407.556 382.122, 417.556 382.122, 427.556 382.122, 437.556 382.122, 447.556 382.122, 457.556 382.122, 467.556 382.122, 477.556 382.122, 487.556 382.122, 497.556 382.122, 507.556 382.122, 517.556 382.122, 527.556 382.122, 537.556 382.122, 547.556 382.122, 557.556 382.122, 567.556 382.122, 577.556 382.122, 587.556 382.122, 597.556 382.122, 607.556 382.122, 613.971 " />
            <path fill="none" stroke-width="3.0" stroke-linecap="butt" stroke-opacity="1.0" stroke="rgb(0, 0, 0)" stroke-linejoin="round" d=" M 407.883, 500.193 407.883, 500.193 407.883, 510.193 407.883, 520.193 407.883, 530.193 407.883, 534.541 407.883, 544.541 407.883, 554.541 407.883, 564.541 407.883, 574.541 407.883, 584.541 407.883, 586.063 407.883, 596.063 407.883, 606.063 407.883, 613.971 " />
            <path fill="none" stroke-width="3.0" stroke-linecap="butt" stroke-opacity="1.0" stroke="rgb(0, 0, 0)" stroke-linejoin="round" d=" M 407.883, 534.541 407.883, 524.541 407.883, 514.541 407.883, 504.541 407.883, 500.193 " />
            <path fill="none" stroke-width="3.0" stroke-linecap="butt" stroke-opacity="1.0" stroke="rgb(0, 0, 0)" stroke-linejoin="round" d=" M 437.937, 586.063 437.937, 586.063 437.937, 596.063 437.937, 606.063 437.937, 616.063 437.937, 626.063 437.937, 636.063 437.937, 646.063 437.937, 656.063 437.937, 666.063 437.937, 676.063 437.937, 686.063 437.937, 696.063 437.937, 706.063 437.937, 716.063 437.937, 726.063 437.937, 736.063 437.937, 746.063 437.937, 756.063 437.937, 766.063 437.937, 776.063 437.937, 786.063 437.937, 796.445 " />
            <path fill="none" stroke-width="3.0" stroke-linecap="butt" stroke-opacity="1.0" stroke="rgb(0, 0, 0)" stroke-linejoin="round" d=" M 566.742, 586.063 566.742, 586.063 566.742, 596.063 566.742, 606.063 566.742, 616.063 566.742, 626.063 566.742, 636.063 566.742, 646.063 566.742, 656.063 566.742, 666.063 566.742, 676.063 566.742, 686.063 566.742, 696.063 566.742, 706.063 566.742, 716.063 566.742, 726.063 566.742, 736.063 566.742, 746.063 566.742, 756.063 566.742, 766.063 566.742, 776.063 566.742, 786.063 566.742, 796.445 " />
            <path fill="none" stroke-width="3.0" stroke-linecap="butt" stroke-opacity="1.0" stroke="rgb(0, 0, 0)" stroke-linejoin="round" d=" M 384.268, 500.193 384.268, 500.193 " />
            <path fill="none" stroke-width="3.0" stroke-linecap="butt" stroke-opacity="1.0" stroke="rgb(0, 0, 0)" stroke-linejoin="round" d=" M 459.405, 586.063 469.405, 586.063 479.405, 586.063 489.405, 586.063 499.405, 586.063 509.405, 586.063 519.405, 586.063 529.405, 586.063 539.405, 586.063 549.405, 586.063 559.405, 586.063 566.742, 586.063 " />
            <path fill="none" stroke-width="3.0" stroke-linecap="butt" stroke-opacity="1.0" stroke="rgb(0, 0, 0)" stroke-linejoin="round" d=" M 407.883, 586.063 407.883, 586.063 417.883, 586.063 427.883, 586.063 437.937, 586.063 " />
            <path fill="none" stroke-width="3.0" stroke-linecap="butt" stroke-opacity="1.0" stroke="rgb(0, 0, 0)" stroke-linejoin="round" d=" M 588.210, 586.063 598.210, 586.063 608.210, 586.063 618.210, 586.063 628.210, 586.063 638.210, 586.063 641.878, 586.063 " />
            <path fill="none" stroke-width="3.0" stroke-linecap="butt" stroke-opacity="1.0" stroke="rgb(0, 0, 0)" stroke-linejoin="round" d=" M 566.742, 586.063 576.742, 586.063 586.742, 586.063 588.210, 586.063 " />
            <path fill="none" stroke-width="3.0" stroke-linecap="butt" stroke-opacity="1.0" stroke="rgb(0, 0, 0)" stroke-linejoin="round" d=" M 459.405, 586.063 469.405, 586.063 479.405, 586.063 489.405, 586.063 499.405, 586.063 509.405, 586.063 519.405, 586.063 529.405, 586.063 539.405, 586.063 549.405, 586.063 559.405, 586.063 566.742, 586.063 " />
            <path fill="none" stroke-width="3.0" stroke-linecap="butt" stroke-opacity="1.0" stroke="rgb(0, 0, 0)" stroke-linejoin="round" d=" M 437.937, 586.063 447.937, 586.063 457.937, 586.063 459.405, 586.063 " />
            <path fill="none" stroke-width="3.0" stroke-linecap="butt" stroke-opacity="1.0" stroke="rgb(0, 0, 0)" stroke-linejoin="round" d=" M 407.883, 500.193 407.883, 500.193 417.883, 500.193 427.883, 500.193 437.883, 500.193 447.883, 500.193 457.883, 500.193 467.883, 500.193 477.883, 500.193 487.883, 500.193 497.883, 500.193 507.883, 500.193 517.883, 500.193 527.883, 500.193 537.883, 500.193 547.883, 500.193 557.883, 500.193 567.883, 500.193 577.883, 500.193 587.883, 500.193 597.883, 500.193 607.883, 500.193 617.883, 500.193 627.883, 500.193 637.883, 500.193 641.878, 500.193 " />
        </g>
    </g>
    <g id="ViewLayer_TechnicalLines.001" inkscape:groupmode="lineset" inkscape:label="ViewLayer_TechnicalLines.001">
        <g inkscape:groupmode="layer" id="strokes" inkscape:label="strokes">
            <path fill="none" stroke-width="1.5" stroke-linecap="round" stroke-opacity="1.0" stroke="rgb(0, 0, 0)" stroke-linejoin="round" d=" M 437.937, 796.445 438.143, 796.445 438.754, 796.445 439.746, 796.445 441.081, 796.445 442.708, 796.445 444.563, 796.445 446.577, 796.445 448.671, 796.445 450.765, 796.445 452.779, 796.445 454.634, 796.445 456.261, 796.445 457.596, 796.445 458.588, 796.445 459.198, 796.445 459.405, 796.445 459.405, 786.445 459.405, 776.445 459.405, 766.444 459.405, 756.444 459.405, 746.444 459.405, 736.444 459.405, 726.444 459.405, 716.444 459.405, 706.444 459.405, 696.444 459.405, 686.444 459.405, 676.444 459.405, 666.444 459.405, 656.444 459.405, 646.444 459.405, 636.444 459.405, 626.444 459.405, 616.444 459.405, 606.444 459.405, 596.444 459.405, 586.063 459.405, 586.063 " />
            <path fill="none" stroke-width="1.5" stroke-linecap="round" stroke-opacity="1.0" stroke="rgb(0, 0, 0)" stroke-linejoin="round" d=" M 566.742, 796.445 566.948, 796.445 567.559, 796.445 568.551, 796.445 569.886, 796.445 571.513, 796.445 573.368, 796.445 575.382, 796.445 577.476, 796.445 579.570, 796.445 581.584, 796.445 583.439, 796.445 585.066, 796.445 586.401, 796.445 587.393, 796.445 588.003, 796.445 588.210, 796.445 588.210, 786.445 588.210, 776.445 588.210, 766.444 588.210, 756.444 588.210, 746.444 588.210, 736.444 588.210, 726.444 588.210, 716.444 588.210, 706.444 588.210, 696.444 588.210, 686.444 588.210, 676.444 588.210, 666.444 588.210, 656.444 588.210, 646.444 588.210, 636.444 588.210, 626.444 588.210, 616.444 588.210, 606.444 588.210, 596.444 588.210, 586.063 588.210, 586.063 " />
            <path fill="none" stroke-width="1.5" stroke-linecap="round" stroke-opacity="1.0" stroke="rgb(0, 0, 0)" stroke-linejoin="round" d=" M 588.210, 586.063 598.210, 586.063 608.210, 586.063 618.210, 586.063 628.210, 586.063 638.210, 586.063 641.878, 586.063 641.878, 586.063 641.878, 576.063 641.878, 566.063 641.878, 556.063 641.878, 546.063 641.878, 536.063 641.878, 534.541 641.878, 534.541 631.878, 534.541 621.878, 534.541 611.878, 534.541 601.878, 534.541 591.878, 534.541 581.878, 534.541 571.878, 534.541 561.878, 534.541 551.878, 534.541 541.878, 534.541 531.878, 534.541 521.878, 534.541 511.878, 534.541 501.878, 534.541 491.878, 534.541 481.878, 534.541 471.878, 534.541 461.878, 534.541 451.878, 534.541 441.878, 534.541 431.878, 534.541 421.878, 534.541 411.878, 534.541 407.883, 534.541 407.883, 534.541 397.883, 534.541 387.883, 534.541 384.268, 534.541 384.268, 544.541 384.268, 554.541 384.268, 564.541 384.268, 574.541 384.268, 584.541 384.268, 586.063 " />
            <path fill="none" stroke-width="1.5" stroke-linecap="round" stroke-opacity="1.0" stroke="rgb(0, 0, 0)" stroke-linejoin="round" d=" M 384.268, 586.063 394.268, 586.063 404.268, 586.063 407.883, 586.063 417.883, 586.063 427.883, 586.063 437.937, 586.063 " />
            <path fill="none" stroke-width="1.5" stroke-linecap="round" stroke-opacity="1.0" stroke="rgb(0, 0, 0)" stroke-linejoin="round" d=" M 382.122, 613.971 392.122, 613.971 402.122, 613.971 407.883, 613.971 407.883, 613.971 407.883, 603.971 407.883, 593.971 407.883, 586.063 407.883, 586.063 " />
            <path fill="none" stroke-width="1.5" stroke-linecap="round" stroke-opacity="1.0" stroke="rgb(0, 0, 0)" stroke-linejoin="round" d=" M 407.883, 448.671 407.883, 438.671 407.883, 428.671 407.883, 418.671 407.883, 408.671 407.883, 398.671 407.883, 388.671 407.883, 378.671 407.883, 368.671 407.883, 358.671 407.883, 348.671 407.883, 338.671 407.883, 328.671 407.883, 318.671 407.883, 308.671 407.883, 298.671 407.883, 288.671 407.883, 278.671 407.883, 268.671 407.883, 258.671 407.883, 248.671 407.883, 238.671 407.883, 227.556 407.883, 227.556 397.883, 227.556 387.883, 227.556 382.122, 227.556 " />
            <path fill="none" stroke-width="1.5" stroke-linecap="round" stroke-opacity="1.0" stroke="rgb(0, 0, 0)" stroke-linejoin="round" d=" M 407.883, 227.556 407.883, 237.556 407.883, 247.556 407.883, 257.556 407.883, 267.556 407.883, 277.556 407.883, 287.556 407.883, 297.556 407.883, 307.556 407.883, 317.556 407.883, 327.556 407.883, 337.556 407.883, 347.556 407.883, 357.556 407.883, 367.556 407.883, 377.556 407.883, 387.556 407.883, 397.556 407.883, 407.556 407.883, 417.556 407.883, 427.556 407.883, 437.556 407.883, 448.671 " />
            <path fill="none" stroke-width="1.5" stroke-linecap="round" stroke-opacity="1.0" stroke="rgb(0, 0, 0)" stroke-linejoin="round" d=" M 641.878, 500.193 641.878, 490.193 641.878, 480.193 641.878, 470.193 641.878, 460.193 641.878, 450.193 641.878, 448.671 641.878, 448.671 " />
            <path fill="none" stroke-width="1.5" stroke-linecap="round" stroke-opacity="1.0" stroke="rgb(0, 0, 0)" stroke-linejoin="round" d=" M 384.268, 500.193 394.268, 500.193 404.268, 500.193 407.883, 500.193 407.883, 500.193 417.883, 500.193 427.883, 500.193 437.883, 500.193 447.883, 500.193 457.883, 500.193 467.883, 500.193 477.883, 500.193 487.883, 500.193 497.883, 500.193 507.883, 500.193 517.883, 500.193 527.883, 500.193 537.883, 500.193 547.883, 500.193 557.883, 500.193 567.883, 500.193 577.883, 500.193 587.883, 500.193 597.883, 500.193 607.883, 500.193 617.883, 500.193 627.883, 500.193 637.883, 500.193 641.878, 500.193 641.878, 490.193 641.878, 480.193 641.878, 470.193 641.878, 460.193 641.878, 450.193 641.878, 448.671 " />
            <path fill="none" stroke-width="1.5" stroke-linecap="round" stroke-opacity="1.0" stroke="rgb(0, 0, 0)" stroke-linejoin="round" d=" M 641.878, 448.671 641.878, 448.671 631.878, 448.671 621.878, 448.671 611.878, 448.671 601.878, 448.671 591.878, 448.671 581.878, 448.671 571.878, 448.671 561.878, 448.671 551.878, 448.671 541.878, 448.671 531.878, 448.671 521.878, 448.671 511.878, 448.671 501.878, 448.671 491.878, 448.671 481.878, 448.671 471.878, 448.671 461.878, 448.671 451.878, 448.671 441.878, 448.671 431.878, 448.671 421.878, 448.671 411.878, 448.671 407.883, 448.671 407.883, 448.671 397.883, 448.671 387.883, 448.671 384.268, 448.671 384.268, 458.671 384.268, 468.671 384.268, 478.671 384.268, 488.671 384.268, 498.671 384.268, 500.193 " />
            <path fill="none" stroke-width="1.5" stroke-linecap="round" stroke-opacity="1.0" stroke="rgb(0, 0, 0)" stroke-linejoin="round" d=" M 382.122, 227.556 382.122, 237.556 382.122, 247.556 382.122, 257.556 382.122, 267.556 382.122, 277.556 382.122, 287.556 382.122, 297.556 382.122, 307.556 382.122, 317.556 382.122, 327.556 382.122, 337.556 382.122, 347.556 382.122, 357.556 382.122, 367.556 382.122, 377.556 382.122, 387.556 382.122, 397.556 382.122, 407.556 382.122, 417.556 382.122, 427.556 382.122, 437.556 382.122, 447.556 382.122, 457.556 382.122, 467.556 382.122, 477.556 382.122, 487.556 382.122, 497.556 382.122, 507.556 382.122, 517.556 382.122, 527.556 382.122, 537.556 382.122, 547.556 382.122, 557.556 382.122, 567.556 382.122, 577.556 382.122, 587.556 382.122, 597.556 382.122, 607.556 382.122, 613.971 " />
            <path fill="none" stroke-width="1.5" stroke-linecap="round" stroke-opacity="1.0" stroke="rgb(0, 0, 0)" stroke-linejoin="round" d=" M 407.883, 500.193 407.883, 500.193 407.883, 510.193 407.883, 520.193 407.883, 530.193 407.883, 534.541 407.883, 544.541 407.883, 554.541 407.883, 564.541 407.883, 574.541 407.883, 584.541 407.883, 586.063 407.883, 596.063 407.883, 606.063 407.883, 613.971 " />
            <path fill="none" stroke-width="1.5" stroke-linecap="round" stroke-opacity="1.0" stroke="rgb(0, 0, 0)" stroke-linejoin="round" d=" M 407.883, 534.541 407.883, 524.541 407.883, 514.541 407.883, 504.541 407.883, 500.193 " />
            <path fill="none" stroke-width="1.5" stroke-linecap="round" stroke-opacity="1.0" stroke="rgb(0, 0, 0)" stroke-linejoin="round" d=" M 437.937, 586.063 437.937, 586.063 437.937, 596.063 437.937, 606.063 437.937, 616.063 437.937, 626.063 437.937, 636.063 437.937, 646.063 437.937, 656.063 437.937, 666.063 437.937, 676.063 437.937, 686.063 437.937, 696.063 437.937, 706.063 437.937, 716.063 437.937, 726.063 437.937, 736.063 437.937, 746.063 437.937, 756.063 437.937, 766.063 437.937, 776.063 437.937, 786.063 437.937, 796.445 " />
            <path fill="none" stroke-width="1.5" stroke-linecap="round" stroke-opacity="1.0" stroke="rgb(0, 0, 0)" stroke-linejoin="round" d=" M 566.742, 586.063 566.742, 586.063 566.742, 596.063 566.742, 606.063 566.742, 616.063 566.742, 626.063 566.742, 636.063 566.742, 646.063 566.742, 656.063 566.742, 666.063 566.742, 676.063 566.742, 686.063 566.742, 696.063 566.742, 706.063 566.742, 716.063 566.742, 726.063 566.742, 736.063 566.742, 746.063 566.742, 756.063 566.742, 766.063 566.742, 776.063 566.742, 786.063 566.742, 796.445 " />
            <path fill="none" stroke-width="1.5" stroke-linecap="round" stroke-opacity="1.0" stroke="rgb(0, 0, 0)" stroke-linejoin="round" d=" M 384.268, 500.193 384.268, 500.193 " />
            <path fill="none" stroke-width="1.5" stroke-linecap="round" stroke-opacity="1.0" stroke="rgb(0, 0, 0)" stroke-linejoin="round" d=" M 459.405, 586.063 469.405, 586.063 479.405, 586.063 489.405, 586.063 499.405, 586.063 509.405, 586.063 519.405, 586.063 529.405, 586.063 539.405, 586.063 549.405, 586.063 559.405, 586.063 566.742, 586.063 " />
            <path fill="none" stroke-width="1.5" stroke-linecap="round" stroke-opacity="1.0" stroke="rgb(0, 0, 0)" stroke-linejoin="round" d=" M 407.883, 586.063 407.883, 586.063 417.883, 586.063 427.883, 586.063 437.937, 586.063 " />
            <path fill="none" stroke-width="1.5" stroke-linecap="round" stroke-opacity="1.0" stroke="rgb(0, 0, 0)" stroke-linejoin="round" d=" M 588.210, 586.063 598.210, 586.063 608.210, 586.063 618.210, 586.063 628.210, 586.063 638.210, 586.063 641.878, 586.063 " />
            <path fill="none" stroke-width="1.5" stroke-linecap="round" stroke-opacity="1.0" stroke="rgb(0, 0, 0)" stroke-linejoin="round" d=" M 566.742, 586.063 576.742, 586.063 586.742, 586.063 588.210, 586.063 " />
            <path fill="none" stroke-width="1.5" stroke-linecap="round" stroke-opacity="1.0" stroke="rgb(0, 0, 0)" stroke-linejoin="round" d=" M 459.405, 586.063 469.405, 586.063 479.405, 586.063 489.405, 586.063 499.405, 586.063 509.405, 586.063 519.405, 586.063 529.405, 586.063 539.405, 586.063 549.405, 586.063 559.405, 586.063 566.742, 586.063 " />
            <path fill="none" stroke-width="1.5" stroke-linecap="round" stroke-opacity="1.0" stroke="rgb(0, 0, 0)" stroke-linejoin="round" d=" M 437.937, 586.063 447.937, 586.063 457.937, 586.063 459.405, 586.063 " />
            <path fill="none" stroke-width="1.5" stroke-linecap="round" stroke-opacity="1.0" stroke="rgb(0, 0, 0)" stroke-linejoin="round" d=" M 407.883, 500.193 407.883, 500.193 417.883, 500.193 427.883, 500.193 437.883, 500.193 447.883, 500.193 457.883, 500.193 467.883, 500.193 477.883, 500.193 487.883, 500.193 497.883, 500.193 507.883, 500.193 517.883, 500.193 527.883, 500.193 537.883, 500.193 547.883, 500.193 557.883, 500.193 567.883, 500.193 577.883, 500.193 587.883, 500.193 597.883, 500.193 607.883, 500.193 617.883, 500.193 627.883, 500.193 637.883, 500.193 641.878, 500.193 " />
        </g>
    </g>
    <g id="ViewLayer_TechnicalLines.002" inkscape:groupmode="lineset" inkscape:label="ViewLayer_TechnicalLines.002">
        <g inkscape:groupmode="layer" id="strokes" inkscape:label="strokes">
            <path fill="none" stroke-width="1.5" stroke-linecap="round" stroke-opacity="1.0" stroke="rgb(0, 0, 0)" stroke-linejoin="round" d=" M 437.937, 796.445 438.143, 796.445 438.754, 796.445 439.746, 796.445 441.081, 796.445 442.708, 796.445 444.563, 796.445 446.577, 796.445 448.671, 796.445 450.765, 796.445 452.779, 796.445 454.634, 796.445 456.261, 796.445 457.596, 796.445 458.588, 796.445 459.198, 796.445 459.405, 796.445 459.405, 786.445 459.405, 776.445 459.405, 766.444 459.405, 756.444 459.405, 746.444 459.405, 736.444 459.405, 726.444 459.405, 716.444 459.405, 706.444 459.405, 696.444 459.405, 686.444 459.405, 676.444 459.405, 666.444 459.405, 656.444 459.405, 646.444 459.405, 636.444 459.405, 626.444 459.405, 616.444 459.405, 606.444 459.405, 596.444 459.405, 586.063 459.405, 586.063 " />
            <path fill="none" stroke-width="1.5" stroke-linecap="round" stroke-opacity="1.0" stroke="rgb(0, 0, 0)" stroke-linejoin="round" d=" M 566.742, 796.445 566.948, 796.445 567.559, 796.445 568.551, 796.445 569.886, 796.445 571.513, 796.445 573.368, 796.445 575.382, 796.445 577.476, 796.445 579.570, 796.445 581.584, 796.445 583.439, 796.445 585.066, 796.445 586.401, 796.445 587.393, 796.445 588.003, 796.445 588.210, 796.445 588.210, 786.445 588.210, 776.445 588.210, 766.444 588.210, 756.444 588.210, 746.444 588.210, 736.444 588.210, 726.444 588.210, 716.444 588.210, 706.444 588.210, 696.444 588.210, 686.444 588.210, 676.444 588.210, 666.444 588.210, 656.444 588.210, 646.444 588.210, 636.444 588.210, 626.444 588.210, 616.444 588.210, 606.444 588.210, 596.444 588.210, 586.063 588.210, 586.063 " />
            <path fill="none" stroke-width="1.5" stroke-linecap="round" stroke-opacity="1.0" stroke="rgb(0, 0, 0)" stroke-linejoin="round" d=" M 588.210, 586.063 598.210, 586.063 608.210, 586.063 618.210, 586.063 628.210, 586.063 638.210, 586.063 641.878, 586.063 641.878, 586.063 641.878, 576.063 641.878, 566.063 641.878, 556.063 641.878, 546.063 641.878, 536.063 641.878, 534.541 641.878, 534.541 631.878, 534.541 621.878, 534.541 611.878, 534.541 601.878, 534.541 591.878, 534.541 581.878, 534.541 571.878, 534.541 561.878, 534.541 551.878, 534.541 541.878, 534.541 531.878, 534.541 521.878, 534.541 511.878, 534.541 501.878, 534.541 491.878, 534.541 481.878, 534.541 471.878, 534.541 461.878, 534.541 451.878, 534.541 441.878, 534.541 431.878, 534.541 421.878, 534.541 411.878, 534.541 407.883, 534.541 407.883, 534.541 397.883, 534.541 387.883, 534.541 384.268, 534.541 384.268, 544.541 384.268, 554.541 384.268, 564.541 384.268, 574.541 384.268, 584.541 384.268, 586.063 " />
            <path fill="none" stroke-width="1.5" stroke-linecap="round" stroke-opacity="1.0" stroke="rgb(0, 0, 0)" stroke-linejoin="round" d=" M 384.268, 586.063 394.268, 586.063 404.268, 586.063 407.883, 586.063 417.883, 586.063 427.883, 586.063 437.937, 586.063 " />
            <path fill="none" stroke-width="1.5" stroke-linecap="round" stroke-opacity="1.0" stroke="rgb(0, 0, 0)" stroke-linejoin="round" d=" M 382.122, 613.971 392.122, 613.971 402.122, 613.971 407.883, 613.971 407.883, 613.971 407.883, 603.971 407.883, 593.971 407.883, 586.063 407.883, 586.063 " />
            <path fill="none" stroke-width="1.5" stroke-linecap="round" stroke-opacity="1.0" stroke="rgb(0, 0, 0)" stroke-linejoin="round" d=" M 407.883, 448.671 407.883, 438.671 407.883, 428.671 407.883, 418.671 407.883, 408.671 407.883, 398.671 407.883, 388.671 407.883, 378.671 407.883, 368.671 407.883, 358.671 407.883, 348.671 407.883, 338.671 407.883, 328.671 407.883, 318.671 407.883, 308.671 407.883, 298.671 407.883, 288.671 407.883, 278.671 407.883, 268.671 407.883, 258.671 407.883, 248.671 407.883, 238.671 407.883, 227.556 407.883, 227.556 397.883, 227.556 387.883, 227.556 382.122, 227.556 " />
            <path fill="none" stroke-width="1.5" stroke-linecap="round" stroke-opacity="1.0" stroke="rgb(0, 0, 0)" stroke-linejoin="round" d=" M 407.883, 227.556 407.883, 237.556 407.883, 247.556 407.883, 257.556 407.883, 267.556 407.883, 277.556 407.883, 287.556 407.883, 297.556 407.883, 307.556 407.883, 317.556 407.883, 327.556 407.883, 337.556 407.883, 347.556 407.883, 357.556 407.883, 367.556 407.883, 377.556 407.883, 387.556 407.883, 397.556 407.883, 407.556 407.883, 417.556 407.883, 427.556 407.883, 437.556 407.883, 448.671 " />
            <path fill="none" stroke-width="1.5" stroke-linecap="round" stroke-opacity="1.0" stroke="rgb(0, 0, 0)" stroke-linejoin="round" d=" M 641.878, 500.193 641.878, 490.193 641.878, 480.193 641.878, 470.193 641.878, 460.193 641.878, 450.193 641.878, 448.671 641.878, 448.671 " />
            <path fill="none" stroke-width="1.5" stroke-linecap="round" stroke-opacity="1.0" stroke="rgb(0, 0, 0)" stroke-linejoin="round" d=" M 384.268, 500.193 394.268, 500.193 404.268, 500.193 407.883, 500.193 407.883, 500.193 417.883, 500.193 427.883, 500.193 437.883, 500.193 447.883, 500.193 457.883, 500.193 467.883, 500.193 477.883, 500.193 487.883, 500.193 497.883, 500.193 507.883, 500.193 517.883, 500.193 527.883, 500.193 537.883, 500.193 547.883, 500.193 557.883, 500.193 567.883, 500.193 577.883, 500.193 587.883, 500.193 597.883, 500.193 607.883, 500.193 617.883, 500.193 627.883, 500.193 637.883, 500.193 641.878, 500.193 641.878, 490.193 641.878, 480.193 641.878, 470.193 641.878, 460.193 641.878, 450.193 641.878, 448.671 " />
            <path fill="none" stroke-width="1.5" stroke-linecap="round" stroke-opacity="1.0" stroke="rgb(0, 0, 0)" stroke-linejoin="round" d=" M 641.878, 448.671 641.878, 448.671 631.878, 448.671 621.878, 448.671 611.878, 448.671 601.878, 448.671 591.878, 448.671 581.878, 448.671 571.878, 448.671 561.878, 448.671 551.878, 448.671 541.878, 448.671 531.878, 448.671 521.878, 448.671 511.878, 448.671 501.878, 448.671 491.878, 448.671 481.878, 448.671 471.878, 448.671 461.878, 448.671 451.878, 448.671 441.878, 448.671 431.878, 448.671 421.878, 448.671 411.878, 448.671 407.883, 448.671 407.883, 448.671 397.883, 448.671 387.883, 448.671 384.268, 448.671 384.268, 458.671 384.268, 468.671 384.268, 478.671 384.268, 488.671 384.268, 498.671 384.268, 500.193 " />
            <path fill="none" stroke-width="1.5" stroke-linecap="round" stroke-opacity="1.0" stroke="rgb(0, 0, 0)" stroke-linejoin="round" d=" M 382.122, 227.556 382.122, 237.556 382.122, 247.556 382.122, 257.556 382.122, 267.556 382.122, 277.556 382.122, 287.556 382.122, 297.556 382.122, 307.556 382.122, 317.556 382.122, 327.556 382.122, 337.556 382.122, 347.556 382.122, 357.556 382.122, 367.556 382.122, 377.556 382.122, 387.556 382.122, 397.556 382.122, 407.556 382.122, 417.556 382.122, 427.556 382.122, 437.556 382.122, 447.556 382.122, 457.556 382.122, 467.556 382.122, 477.556 382.122, 487.556 382.122, 497.556 382.122, 507.556 382.122, 517.556 382.122, 527.556 382.122, 537.556 382.122, 547.556 382.122, 557.556 382.122, 567.556 382.122, 577.556 382.122, 587.556 382.122, 597.556 382.122, 607.556 382.122, 613.971 " />
            <path fill="none" stroke-width="1.5" stroke-linecap="round" stroke-opacity="1.0" stroke="rgb(0, 0, 0)" stroke-linejoin="round" d=" M 407.883, 500.193 407.883, 500.193 407.883, 510.193 407.883, 520.193 407.883, 530.193 407.883, 534.541 407.883, 544.541 407.883, 554.541 407.883, 564.541 407.883, 574.541 407.883, 584.541 407.883, 586.063 407.883, 596.063 407.883, 606.063 407.883, 613.971 " />
            <path fill="none" stroke-width="1.5" stroke-linecap="round" stroke-opacity="1.0" stroke="rgb(0, 0, 0)" stroke-linejoin="round" d=" M 407.883, 534.541 407.883, 524.541 407.883, 514.541 407.883, 504.541 407.883, 500.193 " />
            <path fill="none" stroke-width="1.5" stroke-linecap="round" stroke-opacity="1.0" stroke="rgb(0, 0, 0)" stroke-linejoin="round" d=" M 437.937, 586.063 437.937, 586.063 437.937, 596.063 437.937, 606.063 437.937, 616.063 437.937, 626.063 437.937, 636.063 437.937, 646.063 437.937, 656.063 437.937, 666.063 437.937, 676.063 437.937, 686.063 437.937, 696.063 437.937, 706.063 437.937, 716.063 437.937, 726.063 437.937, 736.063 437.937, 746.063 437.937, 756.063 437.937, 766.063 437.937, 776.063 437.937, 786.063 437.937, 796.445 " />
            <path fill="none" stroke-width="1.5" stroke-linecap="round" stroke-opacity="1.0" stroke="rgb(0, 0, 0)" stroke-linejoin="round" d=" M 566.742, 586.063 566.742, 586.063 566.742, 596.063 566.742, 606.063 566.742, 616.063 566.742, 626.063 566.742, 636.063 566.742, 646.063 566.742, 656.063 566.742, 666.063 566.742, 676.063 566.742, 686.063 566.742, 696.063 566.742, 706.063 566.742, 716.063 566.742, 726.063 566.742, 736.063 566.742, 746.063 566.742, 756.063 566.742, 766.063 566.742, 776.063 566.742, 786.063 566.742, 796.445 " />
            <path fill="none" stroke-width="1.5" stroke-linecap="round" stroke-opacity="1.0" stroke="rgb(0, 0, 0)" stroke-linejoin="round" d=" M 384.268, 500.193 384.268, 500.193 " />
            <path fill="none" stroke-width="1.5" stroke-linecap="round" stroke-opacity="1.0" stroke="rgb(0, 0, 0)" stroke-linejoin="round" d=" M 459.405, 586.063 469.405, 586.063 479.405, 586.063 489.405, 586.063 499.405, 586.063 509.405, 586.063 519.405, 586.063 529.405, 586.063 539.405, 586.063 549.405, 586.063 559.405, 586.063 566.742, 586.063 " />
            <path fill="none" stroke-width="1.5" stroke-linecap="round" stroke-opacity="1.0" stroke="rgb(0, 0, 0)" stroke-linejoin="round" d=" M 407.883, 586.063 407.883, 586.063 417.883, 586.063 427.883, 586.063 437.937, 586.063 " />
            <path fill="none" stroke-width="1.5" stroke-linecap="round" stroke-opacity="1.0" stroke="rgb(0, 0, 0)" stroke-linejoin="round" d=" M 588.210, 586.063 598.210, 586.063 608.210, 586.063 618.210, 586.063 628.210, 586.063 638.210, 586.063 641.878, 586.063 " />
            <path fill="none" stroke-width="1.5" stroke-linecap="round" stroke-opacity="1.0" stroke="rgb(0, 0, 0)" stroke-linejoin="round" d=" M 566.742, 586.063 576.742, 586.063 586.742, 586.063 588.210, 586.063 " />
            <path fill="none" stroke-width="1.5" stroke-linecap="round" stroke-opacity="1.0" stroke="rgb(0, 0, 0)" stroke-linejoin="round" d=" M 459.405, 586.063 469.405, 586.063 479.405, 586.063 489.405, 586.063 499.405, 586.063 509.405, 586.063 519.405, 586.063 529.405, 586.063 539.405, 586.063 549.405, 586.063 559.405, 586.063 566.742, 586.063 " />
            <path fill="none" stroke-width="1.5" stroke-linecap="round" stroke-opacity="1.0" stroke="rgb(0, 0, 0)" stroke-linejoin="round" d=" M 437.937, 586.063 447.937, 586.063 457.937, 586.063 459.405, 586.063 " />
            <path fill="none" stroke-width="1.5" stroke-linecap="round" stroke-opacity="1.0" stroke="rgb(0, 0, 0)" stroke-linejoin="round" d=" M 407.883, 500.193 407.883, 500.193 417.883, 500.193 427.883, 500.193 437.883, 500.193 447.883, 500.193 457.883, 500.193 467.883, 500.193 477.883, 500.193 487.883, 500.193 497.883, 500.193 507.883, 500.193 517.883, 500.193 527.883, 500.193 537.883, 500.193 547.883, 500.193 557.883, 500.193 567.883, 500.193 577.883, 500.193 587.883, 500.193 597.883, 500.193 607.883, 500.193 617.883, 500.193 627.883, 500.193 637.883, 500.193 641.878, 500.193 " />
        </g>
    </g>
    <g id="ViewLayer_TechnicalLines.003" inkscape:groupmode="lineset" inkscape:label="ViewLayer_TechnicalLines.003">
        <g inkscape:groupmode="layer" id="strokes" inkscape:label="strokes">
            <path fill="none" stroke-width="1.5" stroke-linecap="round" stroke-opacity="1.0" stroke="rgb(0, 0, 0)" stroke-linejoin="round" d=" M 437.937, 796.445 438.143, 796.445 438.754, 796.445 439.746, 796.445 441.081, 796.445 442.708, 796.445 444.563, 796.445 446.577, 796.445 448.671, 796.445 450.765, 796.445 452.779, 796.445 454.634, 796.445 456.261, 796.445 457.596, 796.445 458.588, 796.445 459.198, 796.445 459.405, 796.445 459.405, 786.445 459.405, 776.445 459.405, 766.444 459.405, 756.444 459.405, 746.444 459.405, 736.444 459.405, 726.444 459.405, 716.444 459.405, 706.444 459.405, 696.444 459.405, 686.444 459.405, 676.444 459.405, 666.444 459.405, 656.444 459.405, 646.444 459.405, 636.444 459.405, 626.444 459.405, 616.444 459.405, 606.444 459.405, 596.444 459.405, 586.063 459.405, 586.063 " />
            <path fill="none" stroke-width="1.5" stroke-linecap="round" stroke-opacity="1.0" stroke="rgb(0, 0, 0)" stroke-linejoin="round" d=" M 566.742, 796.445 566.948, 796.445 567.559, 796.445 568.551, 796.445 569.886, 796.445 571.513, 796.445 573.368, 796.445 575.382, 796.445 577.476, 796.445 579.570, 796.445 581.584, 796.445 583.439, 796.445 585.066, 796.445 586.401, 796.445 587.393, 796.445 588.003, 796.445 588.210, 796.445 588.210, 786.445 588.210, 776.445 588.210, 766.444 588.210, 756.444 588.210, 746.444 588.210, 736.444 588.210, 726.444 588.210, 716.444 588.210, 706.444 588.210, 696.444 588.210, 686.444 588.210, 676.444 588.210, 666.444 588.210, 656.444 588.210, 646.444 588.210, 636.444 588.210, 626.444 588.210, 616.444 588.210, 606.444 588.210, 596.444 588.210, 586.063 588.210, 586.063 " />
            <path fill="none" stroke-width="1.5" stroke-linecap="round" stroke-opacity="1.0" stroke="rgb(0, 0, 0)" stroke-linejoin="round" d=" M 588.210, 586.063 598.210, 586.063 608.210, 586.063 618.210, 586.063 628.210, 586.063 638.210, 586.063 641.878, 586.063 641.878, 586.063 641.878, 576.063 641.878, 566.063 641.878, 556.063 641.878, 546.063 641.878, 536.063 641.878, 534.541 641.878, 534.541 631.878, 534.541 621.878, 534.541 611.878, 534.541 601.878, 534.541 591.878, 534.541 581.878, 534.541 571.878, 534.541 561.878, 534.541 551.878, 534.541 541.878, 534.541 531.878, 534.541 521.878, 534.541 511.878, 534.541 501.878, 534.541 491.878, 534.541 481.878, 534.541 471.878, 534.541 461.878, 534.541 451.878, 534.541 441.878, 534.541 431.878, 534.541 421.878, 534.541 411.878, 534.541 407.883, 534.541 407.883, 534.541 397.883, 534.541 387.883, 534.541 384.268, 534.541 384.268, 544.541 384.268, 554.541 384.268, 564.541 384.268, 574.541 384.268, 584.541 384.268, 586.063 " />
            <path fill="none" stroke-width="1.5" stroke-linecap="round" stroke-opacity="1.0" stroke="rgb(0, 0, 0)" stroke-linejoin="round" d=" M 384.268, 586.063 394.268, 586.063 404.268, 586.063 407.883, 586.063 417.883, 586.063 427.883, 586.063 437.937, 586.063 " />
            <path fill="none" stroke-width="1.5" stroke-linecap="round" stroke-opacity="1.0" stroke="rgb(0, 0, 0)" stroke-linejoin="round" d=" M 382.122, 613.971 392.122, 613.971 402.122, 613.971 407.883, 613.971 407.883, 613.971 407.883, 603.971 407.883, 593.971 407.883, 586.063 407.883, 586.063 " />
            <path fill="none" stroke-width="1.5" stroke-linecap="round" stroke-opacity="1.0" stroke="rgb(0, 0, 0)" stroke-linejoin="round" d=" M 407.883, 448.671 407.883, 438.671 407.883, 428.671 407.883, 418.671 407.883, 408.671 407.883, 398.671 407.883, 388.671 407.883, 378.671 407.883, 368.671 407.883, 358.671 407.883, 348.671 407.883, 338.671 407.883, 328.671 407.883, 318.671 407.883, 308.671 407.883, 298.671 407.883, 288.671 407.883, 278.671 407.883, 268.671 407.883, 258.671 407.883, 248.671 407.883, 238.671 407.883, 227.556 407.883, 227.556 397.883, 227.556 387.883, 227.556 382.122, 227.556 " />
            <path fill="none" stroke-width="1.5" stroke-linecap="round" stroke-opacity="1.0" stroke="rgb(0, 0, 0)" stroke-linejoin="round" d=" M 407.883, 227.556 407.883, 237.556 407.883, 247.556 407.883, 257.556 407.883, 267.556 407.883, 277.556 407.883, 287.556 407.883, 297.556 407.883, 307.556 407.883, 317.556 407.883, 327.556 407.883, 337.556 407.883, 347.556 407.883, 357.556 407.883, 367.556 407.883, 377.556 407.883, 387.556 407.883, 397.556 407.883, 407.556 407.883, 417.556 407.883, 427.556 407.883, 437.556 407.883, 448.671 " />
            <path fill="none" stroke-width="1.5" stroke-linecap="round" stroke-opacity="1.0" stroke="rgb(0, 0, 0)" stroke-linejoin="round" d=" M 641.878, 500.193 641.878, 490.193 641.878, 480.193 641.878, 470.193 641.878, 460.193 641.878, 450.193 641.878, 448.671 641.878, 448.671 " />
            <path fill="none" stroke-width="1.5" stroke-linecap="round" stroke-opacity="1.0" stroke="rgb(0, 0, 0)" stroke-linejoin="round" d=" M 384.268, 500.193 394.268, 500.193 404.268, 500.193 407.883, 500.193 407.883, 500.193 417.883, 500.193 427.883, 500.193 437.883, 500.193 447.883, 500.193 457.883, 500.193 467.883, 500.193 477.883, 500.193 487.883, 500.193 497.883, 500.193 507.883, 500.193 517.883, 500.193 527.883, 500.193 537.883, 500.193 547.883, 500.193 557.883, 500.193 567.883, 500.193 577.883, 500.193 587.883, 500.193 597.883, 500.193 607.883, 500.193 617.883, 500.193 627.883, 500.193 637.883, 500.193 641.878, 500.193 641.878, 490.193 641.878, 480.193 641.878, 470.193 641.878, 460.193 641.878, 450.193 641.878, 448.671 " />
            <path fill="none" stroke-width="1.5" stroke-linecap="round" stroke-opacity="1.0" stroke="rgb(0, 0, 0)" stroke-linejoin="round" d=" M 641.878, 448.671 641.878, 448.671 631.878, 448.671 621.878, 448.671 611.878, 448.671 601.878, 448.671 591.878, 448.671 581.878, 448.671 571.878, 448.671 561.878, 448.671 551.878, 448.671 541.878, 448.671 531.878, 448.671 521.878, 448.671 511.878, 448.671 501.878, 448.671 491.878, 448.671 481.878, 448.671 471.878, 448.671 461.878, 448.671 451.878, 448.671 441.878, 448.671 431.878, 448.671 421.878, 448.671 411.878, 448.671 407.883, 448.671 407.883, 448.671 397.883, 448.671 387.883, 448.671 384.268, 448.671 384.268, 458.671 384.268, 468.671 384.268, 478.671 384.268, 488.671 384.268, 498.671 384.268, 500.193 " />
            <path fill="none" stroke-width="1.5" stroke-linecap="round" stroke-opacity="1.0" stroke="rgb(0, 0, 0)" stroke-linejoin="round" d=" M 382.122, 227.556 382.122, 237.556 382.122, 247.556 382.122, 257.556 382.122, 267.556 382.122, 277.556 382.122, 287.556 382.122, 297.556 382.122, 307.556 382.122, 317.556 382.122, 327.556 382.122, 337.556 382.122, 347.556 382.122, 357.556 382.122, 367.556 382.122, 377.556 382.122, 387.556 382.122, 397.556 382.122, 407.556 382.122, 417.556 382.122, 427.556 382.122, 437.556 382.122, 447.556 382.122, 457.556 382.122, 467.556 382.122, 477.556 382.122, 487.556 382.122, 497.556 382.122, 507.556 382.122, 517.556 382.122, 527.556 382.122, 537.556 382.122, 547.556 382.122, 557.556 382.122, 567.556 382.122, 577.556 382.122, 587.556 382.122, 597.556 382.122, 607.556 382.122, 613.971 " />
            <path fill="none" stroke-width="1.5" stroke-linecap="round" stroke-opacity="1.0" stroke="rgb(0, 0, 0)" stroke-linejoin="round" d=" M 407.883, 500.193 407.883, 500.193 407.883, 510.193 407.883, 520.193 407.883, 530.193 407.883, 534.541 407.883, 544.541 407.883, 554.541 407.883, 564.541 407.883, 574.541 407.883, 584.541 407.883, 586.063 407.883, 596.063 407.883, 606.063 407.883, 613.971 " />
            <path fill="none" stroke-width="1.5" stroke-linecap="round" stroke-opacity="1.0" stroke="rgb(0, 0, 0)" stroke-linejoin="round" d=" M 407.883, 534.541 407.883, 524.541 407.883, 514.541 407.883, 504.541 407.883, 500.193 " />
            <path fill="none" stroke-width="1.5" stroke-linecap="round" stroke-opacity="1.0" stroke="rgb(0, 0, 0)" stroke-linejoin="round" d=" M 437.937, 586.063 437.937, 586.063 437.937, 596.063 437.937, 606.063 437.937, 616.063 437.937, 626.063 437.937, 636.063 437.937, 646.063 437.937, 656.063 437.937, 666.063 437.937, 676.063 437.937, 686.063 437.937, 696.063 437.937, 706.063 437.937, 716.063 437.937, 726.063 437.937, 736.063 437.937, 746.063 437.937, 756.063 437.937, 766.063 437.937, 776.063 437.937, 786.063 437.937, 796.445 " />
            <path fill="none" stroke-width="1.5" stroke-linecap="round" stroke-opacity="1.0" stroke="rgb(0, 0, 0)" stroke-linejoin="round" d=" M 566.742, 586.063 566.742, 586.063 566.742, 596.063 566.742, 606.063 566.742, 616.063 566.742, 626.063 566.742, 636.063 566.742, 646.063 566.742, 656.063 566.742, 666.063 566.742, 676.063 566.742, 686.063 566.742, 696.063 566.742, 706.063 566.742, 716.063 566.742, 726.063 566.742, 736.063 566.742, 746.063 566.742, 756.063 566.742, 766.063 566.742, 776.063 566.742, 786.063 566.742, 796.445 " />
            <path fill="none" stroke-width="1.5" stroke-linecap="round" stroke-opacity="1.0" stroke="rgb(0, 0, 0)" stroke-linejoin="round" d=" M 384.268, 500.193 384.268, 500.193 " />
            <path fill="none" stroke-width="1.5" stroke-linecap="round" stroke-opacity="1.0" stroke="rgb(0, 0, 0)" stroke-linejoin="round" d=" M 459.405, 586.063 469.405, 586.063 479.405, 586.063 489.405, 586.063 499.405, 586.063 509.405, 586.063 519.405, 586.063 529.405, 586.063 539.405, 586.063 549.405, 586.063 559.405, 586.063 566.742, 586.063 " />
            <path fill="none" stroke-width="1.5" stroke-linecap="round" stroke-opacity="1.0" stroke="rgb(0, 0, 0)" stroke-linejoin="round" d=" M 407.883, 586.063 407.883, 586.063 417.883, 586.063 427.883, 586.063 437.937, 586.063 " />
            <path fill="none" stroke-width="1.5" stroke-linecap="round" stroke-opacity="1.0" stroke="rgb(0, 0, 0)" stroke-linejoin="round" d=" M 588.210, 586.063 598.210, 586.063 608.210, 586.063 618.210, 586.063 628.210, 586.063 638.210, 586.063 641.878, 586.063 " />
            <path fill="none" stroke-width="1.5" stroke-linecap="round" stroke-opacity="1.0" stroke="rgb(0, 0, 0)" stroke-linejoin="round" d=" M 566.742, 586.063 576.742, 586.063 586.742, 586.063 588.210, 586.063 " />
            <path fill="none" stroke-width="1.5" stroke-linecap="round" stroke-opacity="1.0" stroke="rgb(0, 0, 0)" stroke-linejoin="round" d=" M 459.405, 586.063 469.405, 586.063 479.405, 586.063 489.405, 586.063 499.405, 586.063 509.405, 586.063 519.405, 586.063 529.405, 586.063 539.405, 586.063 549.405, 586.063 559.405, 586.063 566.742, 586.063 " />
            <path fill="none" stroke-width="1.5" stroke-linecap="round" stroke-opacity="1.0" stroke="rgb(0, 0, 0)" stroke-linejoin="round" d=" M 437.937, 586.063 447.937, 586.063 457.937, 586.063 459.405, 586.063 " />
            <path fill="none" stroke-width="1.5" stroke-linecap="round" stroke-opacity="1.0" stroke="rgb(0, 0, 0)" stroke-linejoin="round" d=" M 407.883, 500.193 407.883, 500.193 417.883, 500.193 427.883, 500.193 437.883, 500.193 447.883, 500.193 457.883, 500.193 467.883, 500.193 477.883, 500.193 487.883, 500.193 497.883, 500.193 507.883, 500.193 517.883, 500.193 527.883, 500.193 537.883, 500.193 547.883, 500.193 557.883, 500.193 567.883, 500.193 577.883, 500.193 587.883, 500.193 597.883, 500.193 607.883, 500.193 617.883, 500.193 627.883, 500.193 637.883, 500.193 641.878, 500.193 " />
        </g>
    </g>
    <g id="ViewLayer_TechnicalLines.004" xmlns:inkscape="http://www.inkscape.org/namespaces/inkscape" inkscape:groupmode="lineset" inkscape:label="ViewLayer_TechnicalLines.004">
        <g xmlns:inkscape="http://www.inkscape.org/namespaces/inkscape" inkscape:groupmode="layer" id="strokes" inkscape:label="strokes">
            <path fill="none" stroke-width="1.5" stroke-linecap="round" stroke-opacity="1.0" stroke="rgb(0, 0, 0)" stroke-linejoin="round" d=" M 437.937, 796.445 438.143, 796.445 438.754, 796.445 439.746, 796.445 441.081, 796.445 442.708, 796.445 444.563, 796.445 446.577, 796.445 448.671, 796.445 450.765, 796.445 452.779, 796.445 454.634, 796.445 456.261, 796.445 457.596, 796.445 458.588, 796.445 459.198, 796.445 459.405, 796.445 459.405, 786.445 459.405, 776.445 459.405, 766.444 459.405, 756.444 459.405, 746.444 459.405, 736.444 459.405, 726.444 459.405, 716.444 459.405, 706.444 459.405, 696.444 459.405, 686.444 459.405, 676.444 459.405, 666.444 459.405, 656.444 459.405, 646.444 459.405, 636.444 459.405, 626.444 459.405, 616.444 459.405, 606.444 459.405, 596.444 459.405, 586.063 459.405, 586.063 " />
            <path fill="none" stroke-width="1.5" stroke-linecap="round" stroke-opacity="1.0" stroke="rgb(0, 0, 0)" stroke-linejoin="round" d=" M 566.742, 796.445 566.948, 796.445 567.559, 796.445 568.551, 796.445 569.886, 796.445 571.513, 796.445 573.368, 796.445 575.382, 796.445 577.476, 796.445 579.570, 796.445 581.584, 796.445 583.439, 796.445 585.066, 796.445 586.401, 796.445 587.393, 796.445 588.003, 796.445 588.210, 796.445 588.210, 786.445 588.210, 776.445 588.210, 766.444 588.210, 756.444 588.210, 746.444 588.210, 736.444 588.210, 726.444 588.210, 716.444 588.210, 706.444 588.210, 696.444 588.210, 686.444 588.210, 676.444 588.210, 666.444 588.210, 656.444 588.210, 646.444 588.210, 636.444 588.210, 626.444 588.210, 616.444 588.210, 606.444 588.210, 596.444 588.210, 586.063 588.210, 586.063 " />
            <path fill="none" stroke-width="1.5" stroke-linecap="round" stroke-opacity="1.0" stroke="rgb(0, 0, 0)" stroke-linejoin="round" d=" M 588.210, 586.063 598.210, 586.063 608.210, 586.063 618.210, 586.063 628.210, 586.063 638.210, 586.063 641.878, 586.063 641.878, 586.063 641.878, 576.063 641.878, 566.063 641.878, 556.063 641.878, 546.063 641.878, 536.063 641.878, 534.541 641.878, 534.541 631.878, 534.541 621.878, 534.541 611.878, 534.541 601.878, 534.541 591.878, 534.541 581.878, 534.541 571.878, 534.541 561.878, 534.541 551.878, 534.541 541.878, 534.541 531.878, 534.541 521.878, 534.541 511.878, 534.541 501.878, 534.541 491.878, 534.541 481.878, 534.541 471.878, 534.541 461.878, 534.541 451.878, 534.541 441.878, 534.541 431.878, 534.541 421.878, 534.541 411.878, 534.541 407.883, 534.541 407.883, 534.541 397.883, 534.541 387.883, 534.541 384.268, 534.541 384.268, 544.541 384.268, 554.541 384.268, 564.541 384.268, 574.541 384.268, 584.541 384.268, 586.063 " />
            <path fill="none" stroke-width="1.5" stroke-linecap="round" stroke-opacity="1.0" stroke="rgb(0, 0, 0)" stroke-linejoin="round" d=" M 384.268, 586.063 394.268, 586.063 404.268, 586.063 407.883, 586.063 417.883, 586.063 427.883, 586.063 437.937, 586.063 " />
            <path fill="none" stroke-width="1.5" stroke-linecap="round" stroke-opacity="1.0" stroke="rgb(0, 0, 0)" stroke-linejoin="round" d=" M 382.122, 613.971 392.122, 613.971 402.122, 613.971 407.883, 613.971 407.883, 613.971 407.883, 603.971 407.883, 593.971 407.883, 586.063 407.883, 586.063 " />
            <path fill="none" stroke-width="1.5" stroke-linecap="round" stroke-opacity="1.0" stroke="rgb(0, 0, 0)" stroke-linejoin="round" d=" M 407.883, 448.671 407.883, 438.671 407.883, 428.671 407.883, 418.671 407.883, 408.671 407.883, 398.671 407.883, 388.671 407.883, 378.671 407.883, 368.671 407.883, 358.671 407.883, 348.671 407.883, 338.671 407.883, 328.671 407.883, 318.671 407.883, 308.671 407.883, 298.671 407.883, 288.671 407.883, 278.671 407.883, 268.671 407.883, 258.671 407.883, 248.671 407.883, 238.671 407.883, 227.556 407.883, 227.556 397.883, 227.556 387.883, 227.556 382.122, 227.556 " />
            <path fill="none" stroke-width="1.5" stroke-linecap="round" stroke-opacity="1.0" stroke="rgb(0, 0, 0)" stroke-linejoin="round" d=" M 407.883, 227.556 407.883, 237.556 407.883, 247.556 407.883, 257.556 407.883, 267.556 407.883, 277.556 407.883, 287.556 407.883, 297.556 407.883, 307.556 407.883, 317.556 407.883, 327.556 407.883, 337.556 407.883, 347.556 407.883, 357.556 407.883, 367.556 407.883, 377.556 407.883, 387.556 407.883, 397.556 407.883, 407.556 407.883, 417.556 407.883, 427.556 407.883, 437.556 407.883, 448.671 " />
            <path fill="none" stroke-width="1.5" stroke-linecap="round" stroke-opacity="1.0" stroke="rgb(0, 0, 0)" stroke-linejoin="round" d=" M 641.878, 500.193 641.878, 490.193 641.878, 480.193 641.878, 470.193 641.878, 460.193 641.878, 450.193 641.878, 448.671 641.878, 448.671 " />
            <path fill="none" stroke-width="1.5" stroke-linecap="round" stroke-opacity="1.0" stroke="rgb(0, 0, 0)" stroke-linejoin="round" d=" M 384.268, 500.193 394.268, 500.193 404.268, 500.193 407.883, 500.193 407.883, 500.193 417.883, 500.193 427.883, 500.193 437.883, 500.193 447.883, 500.193 457.883, 500.193 467.883, 500.193 477.883, 500.193 487.883, 500.193 497.883, 500.193 507.883, 500.193 517.883, 500.193 527.883, 500.193 537.883, 500.193 547.883, 500.193 557.883, 500.193 567.883, 500.193 577.883, 500.193 587.883, 500.193 597.883, 500.193 607.883, 500.193 617.883, 500.193 627.883, 500.193 637.883, 500.193 641.878, 500.193 641.878, 490.193 641.878, 480.193 641.878, 470.193 641.878, 460.193 641.878, 450.193 641.878, 448.671 " />
            <path fill="none" stroke-width="1.5" stroke-linecap="round" stroke-opacity="1.0" stroke="rgb(0, 0, 0)" stroke-linejoin="round" d=" M 641.878, 448.671 641.878, 448.671 631.878, 448.671 621.878, 448.671 611.878, 448.671 601.878, 448.671 591.878, 448.671 581.878, 448.671 571.878, 448.671 561.878, 448.671 551.878, 448.671 541.878, 448.671 531.878, 448.671 521.878, 448.671 511.878, 448.671 501.878, 448.671 491.878, 448.671 481.878, 448.671 471.878, 448.671 461.878, 448.671 451.878, 448.671 441.878, 448.671 431.878, 448.671 421.878, 448.671 411.878, 448.671 407.883, 448.671 407.883, 448.671 397.883, 448.671 387.883, 448.671 384.268, 448.671 384.268, 458.671 384.268, 468.671 384.268, 478.671 384.268, 488.671 384.268, 498.671 384.268, 500.193 " />
            <path fill="none" stroke-width="1.5" stroke-linecap="round" stroke-opacity="1.0" stroke="rgb(0, 0, 0)" stroke-linejoin="round" d=" M 382.122, 227.556 382.122, 237.556 382.122, 247.556 382.122, 257.556 382.122, 267.556 382.122, 277.556 382.122, 287.556 382.122, 297.556 382.122, 307.556 382.122, 317.556 382.122, 327.556 382.122, 337.556 382.122, 347.556 382.122, 357.556 382.122, 367.556 382.122, 377.556 382.122, 387.556 382.122, 397.556 382.122, 407.556 382.122, 417.556 382.122, 427.556 382.122, 437.556 382.122, 447.556 382.122, 457.556 382.122, 467.556 382.122, 477.556 382.122, 487.556 382.122, 497.556 382.122, 507.556 382.122, 517.556 382.122, 527.556 382.122, 537.556 382.122, 547.556 382.122, 557.556 382.122, 567.556 382.122, 577.556 382.122, 587.556 382.122, 597.556 382.122, 607.556 382.122, 613.971 " />
            <path fill="none" stroke-width="1.5" stroke-linecap="round" stroke-opacity="1.0" stroke="rgb(0, 0, 0)" stroke-linejoin="round" d=" M 407.883, 500.193 407.883, 500.193 407.883, 510.193 407.883, 520.193 407.883, 530.193 407.883, 534.541 407.883, 544.541 407.883, 554.541 407.883, 564.541 407.883, 574.541 407.883, 584.541 407.883, 586.063 407.883, 596.063 407.883, 606.063 407.883, 613.971 " />
            <path fill="none" stroke-width="1.5" stroke-linecap="round" stroke-opacity="1.0" stroke="rgb(0, 0, 0)" stroke-linejoin="round" d=" M 407.883, 534.541 407.883, 524.541 407.883, 514.541 407.883, 504.541 407.883, 500.193 " />
            <path fill="none" stroke-width="1.5" stroke-linecap="round" stroke-opacity="1.0" stroke="rgb(0, 0, 0)" stroke-linejoin="round" d=" M 437.937, 586.063 437.937, 586.063 437.937, 596.063 437.937, 606.063 437.937, 616.063 437.937, 626.063 437.937, 636.063 437.937, 646.063 437.937, 656.063 437.937, 666.063 437.937, 676.063 437.937, 686.063 437.937, 696.063 437.937, 706.063 437.937, 716.063 437.937, 726.063 437.937, 736.063 437.937, 746.063 437.937, 756.063 437.937, 766.063 437.937, 776.063 437.937, 786.063 437.937, 796.445 " />
            <path fill="none" stroke-width="1.5" stroke-linecap="round" stroke-opacity="1.0" stroke="rgb(0, 0, 0)" stroke-linejoin="round" d=" M 566.742, 586.063 566.742, 586.063 566.742, 596.063 566.742, 606.063 566.742, 616.063 566.742, 626.063 566.742, 636.063 566.742, 646.063 566.742, 656.063 566.742, 666.063 566.742, 676.063 566.742, 686.063 566.742, 696.063 566.742, 706.063 566.742, 716.063 566.742, 726.063 566.742, 736.063 566.742, 746.063 566.742, 756.063 566.742, 766.063 566.742, 776.063 566.742, 786.063 566.742, 796.445 " />
            <path fill="none" stroke-width="1.5" stroke-linecap="round" stroke-opacity="1.0" stroke="rgb(0, 0, 0)" stroke-linejoin="round" d=" M 384.268, 500.193 384.268, 500.193 " />
            <path fill="none" stroke-width="1.5" stroke-linecap="round" stroke-opacity="1.0" stroke="rgb(0, 0, 0)" stroke-linejoin="round" d=" M 459.405, 586.063 469.405, 586.063 479.405, 586.063 489.405, 586.063 499.405, 586.063 509.405, 586.063 519.405, 586.063 529.405, 586.063 539.405, 586.063 549.405, 586.063 559.405, 586.063 566.742, 586.063 " />
            <path fill="none" stroke-width="1.5" stroke-linecap="round" stroke-opacity="1.0" stroke="rgb(0, 0, 0)" stroke-linejoin="round" d=" M 407.883, 586.063 407.883, 586.063 417.883, 586.063 427.883, 586.063 437.937, 586.063 " />
            <path fill="none" stroke-width="1.5" stroke-linecap="round" stroke-opacity="1.0" stroke="rgb(0, 0, 0)" stroke-linejoin="round" d=" M 588.210, 586.063 598.210, 586.063 608.210, 586.063 618.210, 586.063 628.210, 586.063 638.210, 586.063 641.878, 586.063 " />
            <path fill="none" stroke-width="1.5" stroke-linecap="round" stroke-opacity="1.0" stroke="rgb(0, 0, 0)" stroke-linejoin="round" d=" M 566.742, 586.063 576.742, 586.063 586.742, 586.063 588.210, 586.063 " />
            <path fill="none" stroke-width="1.5" stroke-linecap="round" stroke-opacity="1.0" stroke="rgb(0, 0, 0)" stroke-linejoin="round" d=" M 459.405, 586.063 469.405, 586.063 479.405, 586.063 489.405, 586.063 499.405, 586.063 509.405, 586.063 519.405, 586.063 529.405, 586.063 539.405, 586.063 549.405, 586.063 559.405, 586.063 566.742, 586.063 " />
            <path fill="none" stroke-width="1.5" stroke-linecap="round" stroke-opacity="1.0" stroke="rgb(0, 0, 0)" stroke-linejoin="round" d=" M 437.937, 586.063 447.937, 586.063 457.937, 586.063 459.405, 586.063 " />
            <path fill="none" stroke-width="1.5" stroke-linecap="round" stroke-opacity="1.0" stroke="rgb(0, 0, 0)" stroke-linejoin="round" d=" M 407.883, 500.193 407.883, 500.193 417.883, 500.193 427.883, 500.193 437.883, 500.193 447.883, 500.193 457.883, 500.193 467.883, 500.193 477.883, 500.193 487.883, 500.193 497.883, 500.193 507.883, 500.193 517.883, 500.193 527.883, 500.193 537.883, 500.193 547.883, 500.193 557.883, 500.193 567.883, 500.193 577.883, 500.193 587.883, 500.193 597.883, 500.193 607.883, 500.193 617.883, 500.193 627.883, 500.193 637.883, 500.193 641.878, 500.193 " />
        </g>
    </g>
</svg>
