<?xml version='1.0' encoding='ascii'?>
<svg xmlns="http://www.w3.org/2000/svg" xmlns:inkscape="http://www.inkscape.org/namespaces/inkscape" version="1.1" width="1024" height="1024">
    <g id="ViewLayer_LineSet" inkscape:groupmode="lineset" inkscape:label="ViewLayer_LineSet">
        <g inkscape:groupmode="layer" id="strokes" inkscape:label="strokes">
            <path fill="none" stroke-width="3.0" stroke-linecap="butt" stroke-opacity="1.0" stroke="rgb(0, 0, 0)" stroke-linejoin="round" d=" M 458.331, 796.445 458.331, 786.445 458.331, 776.445 458.331, 766.444 458.331, 756.444 458.331, 746.444 458.331, 736.444 458.331, 726.444 458.331, 716.444 458.331, 706.444 458.331, 696.444 458.331, 686.444 458.331, 676.444 458.331, 666.444 458.331, 656.444 458.331, 646.444 458.331, 636.444 458.331, 626.444 458.331, 616.444 458.331, 613.971 " />
            <path fill="none" stroke-width="3.0" stroke-linecap="butt" stroke-opacity="1.0" stroke="rgb(0, 0, 0)" stroke-linejoin="round" d=" M 436.864, 796.445 437.070, 796.445 437.681, 796.445 438.673, 796.445 440.008, 796.445 441.634, 796.445 443.490, 796.445 445.503, 796.445 447.597, 796.445 449.692, 796.445 451.705, 796.445 453.561, 796.445 455.187, 796.445 456.522, 796.445 457.514, 796.445 458.125, 796.445 458.331, 796.445 " />
            <path fill="none" stroke-width="3.0" stroke-linecap="butt" stroke-opacity="1.0" stroke="rgb(0, 0, 0)" stroke-linejoin="round" d=" M 565.669, 796.445 565.875, 796.445 566.486, 796.445 567.478, 796.445 568.813, 796.445 570.439, 796.445 572.295, 796.445 574.308, 796.445 576.403, 796.445 578.497, 796.445 580.510, 796.445 582.366, 796.445 583.992, 796.445 585.327, 796.445 586.319, 796.445 586.930, 796.445 587.136, 796.445 587.136, 786.445 587.136, 776.445 587.136, 766.444 587.136, 756.444 587.136, 746.444 587.136, 736.444 587.136, 726.444 587.136, 716.444 587.136, 706.444 587.136, 696.444 587.136, 686.444 587.136, 676.444 587.136, 666.444 587.136, 656.444 587.136, 646.444 587.136, 636.444 587.136, 626.444 587.136, 616.444 587.136, 613.971 " />
            <path fill="none" stroke-width="3.0" stroke-linecap="butt" stroke-opacity="1.0" stroke="rgb(0, 0, 0)" stroke-linejoin="round" d=" M 587.136, 613.971 597.136, 613.971 607.136, 613.971 617.136, 613.971 627.136, 613.971 637.136, 613.971 640.805, 613.971 640.805, 603.971 640.805, 593.971 640.805, 586.063 640.805, 586.063 640.805, 576.063 640.805, 566.063 640.805, 556.063 640.805, 546.063 640.805, 536.063 640.805, 534.541 640.805, 534.541 640.805, 524.541 640.805, 514.541 640.805, 504.541 640.805, 500.193 640.805, 500.193 640.805, 490.193 640.805, 480.193 640.805, 470.193 640.805, 460.193 640.805, 450.193 640.805, 448.671 640.805, 448.671 640.805, 438.671 640.805, 428.671 640.805, 418.671 640.805, 408.671 640.805, 398.671 640.805, 388.671 640.805, 378.671 640.805, 368.671 640.805, 358.671 640.805, 348.671 640.805, 338.671 640.805, 328.671 640.805, 318.671 640.805, 308.671 640.805, 298.671 640.805, 288.671 640.805, 278.671 640.805, 268.671 640.805, 258.671 640.805, 248.671 640.805, 238.671 640.805, 227.556 " />
            <path fill="none" stroke-width="3.0" stroke-linecap="butt" stroke-opacity="1.0" stroke="rgb(0, 0, 0)" stroke-linejoin="round" d=" M 383.195, 227.556 383.195, 237.556 383.195, 247.556 383.195, 257.556 383.195, 267.556 383.195, 277.556 383.195, 287.556 383.195, 297.556 383.195, 307.556 383.195, 317.556 383.195, 327.556 383.195, 337.556 383.195, 347.556 383.195, 357.556 383.195, 367.556 383.195, 377.556 383.195, 387.556 383.195, 397.556 383.195, 407.556 383.195, 417.556 383.195, 427.556 383.195, 437.556 383.195, 448.671 383.195, 448.671 383.195, 458.671 383.195, 468.671 383.195, 478.671 383.195, 488.671 383.195, 498.671 383.195, 500.193 383.195, 500.193 383.195, 510.193 383.195, 520.193 383.195, 530.193 383.195, 534.541 383.195, 534.541 383.195, 544.541 383.195, 554.541 383.195, 564.541 383.195, 574.541 383.195, 584.541 383.195, 586.063 383.195, 586.063 383.195, 596.063 383.195, 606.063 383.195, 613.971 393.195, 613.971 403.195, 613.971 413.195, 613.971 423.195, 613.971 433.195, 613.971 436.864, 613.971 " />
            <path fill="none" stroke-width="3.0" stroke-linecap="butt" stroke-opacity="1.0" stroke="rgb(0, 0, 0)" stroke-linejoin="round" d=" M 383.195, 448.671 381.048, 448.671 381.048, 448.671 381.048, 458.671 381.048, 468.671 381.048, 478.671 381.048, 488.671 381.048, 498.671 381.048, 500.193 381.048, 500.193 383.195, 500.193 " />
            <path fill="none" stroke-width="3.0" stroke-linecap="butt" stroke-opacity="1.0" stroke="rgb(0, 0, 0)" stroke-linejoin="round" d=" M 381.048, 500.193 383.195, 500.193 " />
            <path fill="none" stroke-width="3.0" stroke-linecap="butt" stroke-opacity="1.0" stroke="rgb(0, 0, 0)" stroke-linejoin="round" d=" M 640.805, 500.193 642.952, 500.193 642.952, 500.193 642.952, 490.193 642.952, 480.193 642.952, 470.193 642.952, 460.193 642.952, 450.193 642.952, 448.671 642.952, 448.671 640.805, 448.671 " />
            <path fill="none" stroke-width="3.0" stroke-linecap="butt" stroke-opacity="1.0" stroke="rgb(0, 0, 0)" stroke-linejoin="round" d=" M 436.864, 613.971 436.864, 623.971 436.864, 633.971 436.864, 643.971 436.864, 653.971 436.864, 663.971 436.864, 673.971 436.864, 683.971 436.864, 693.971 436.864, 703.971 436.864, 713.971 436.864, 723.971 436.864, 733.971 436.864, 743.971 436.864, 753.971 436.864, 763.971 436.864, 773.971 436.864, 783.971 436.864, 793.971 436.864, 796.445 " />
            <path fill="none" stroke-width="3.0" stroke-linecap="butt" stroke-opacity="1.0" stroke="rgb(0, 0, 0)" stroke-linejoin="round" d=" M 565.669, 613.971 565.669, 623.971 565.669, 633.971 565.669, 643.971 565.669, 653.971 565.669, 663.971 565.669, 673.971 565.669, 683.971 565.669, 693.971 565.669, 703.971 565.669, 713.971 565.669, 723.971 565.669, 733.971 565.669, 743.971 565.669, 753.971 565.669, 763.971 565.669, 773.971 565.669, 783.971 565.669, 793.971 565.669, 796.445 " />
            <path fill="none" stroke-width="3.0" stroke-linecap="butt" stroke-opacity="1.0" stroke="rgb(0, 0, 0)" stroke-linejoin="round" d=" M 565.669, 613.971 575.669, 613.971 585.669, 613.971 587.136, 613.971 " />
            <path fill="none" stroke-width="3.0" stroke-linecap="butt" stroke-opacity="1.0" stroke="rgb(0, 0, 0)" stroke-linejoin="round" d=" M 458.331, 613.971 468.331, 613.971 478.331, 613.971 488.331, 613.971 498.331, 613.971 508.331, 613.971 518.331, 613.971 528.331, 613.971 538.331, 613.971 548.331, 613.971 558.331, 613.971 565.669, 613.971 " />
            <path fill="none" stroke-width="3.0" stroke-linecap="butt" stroke-opacity="1.0" stroke="rgb(0, 0, 0)" stroke-linejoin="round" d=" M 436.864, 613.971 446.864, 613.971 456.864, 613.971 458.331, 613.971 " />
            <path fill="none" stroke-width="3.0" stroke-linecap="butt" stroke-opacity="1.0" stroke="rgb(0, 0, 0)" stroke-linejoin="round" d=" M 640.805, 227.556 630.805, 227.556 620.805, 227.556 610.805, 227.556 600.805, 227.556 590.805, 227.556 580.805, 227.556 570.805, 227.556 560.805, 227.556 550.805, 227.556 540.805, 227.556 530.805, 227.556 520.805, 227.556 510.805, 227.556 500.805, 227.556 490.805, 227.556 480.805, 227.556 470.805, 227.556 460.805, 227.556 450.805, 227.556 440.805, 227.556 430.805, 227.556 420.805, 227.556 410.805, 227.556 400.805, 227.556 390.805, 227.556 383.195, 227.556 " />
            <path fill="none" stroke-width="3.0" stroke-linecap="butt" stroke-opacity="1.0" stroke="rgb(0, 0, 0)" stroke-linejoin="round" d=" M 640.805, 500.193 642.952, 500.193 " />
        </g>
    </g>
    <g id="ViewLayer_TechnicalLines" inkscape:groupmode="lineset" inkscape:label="ViewLayer_TechnicalLines">
        <g inkscape:groupmode="layer" id="strokes" inkscape:label="strokes">
            <path fill="none" stroke-width="3.0" stroke-linecap="butt" stroke-opacity="1.0" stroke="rgb(0, 0, 0)" stroke-linejoin="round" d=" M 458.331, 796.445 458.331, 786.445 458.331, 776.445 458.331, 766.444 458.331, 756.444 458.331, 746.444 458.331, 736.444 458.331, 726.444 458.331, 716.444 458.331, 706.444 458.331, 696.444 458.331, 686.444 458.331, 676.444 458.331, 666.444 458.331, 656.444 458.331, 646.444 458.331, 636.444 458.331, 626.444 458.331, 616.444 458.331, 613.971 " />
            <path fill="none" stroke-width="3.0" stroke-linecap="butt" stroke-opacity="1.0" stroke="rgb(0, 0, 0)" stroke-linejoin="round" d=" M 436.864, 796.445 437.070, 796.445 437.681, 796.445 438.673, 796.445 440.008, 796.445 441.634, 796.445 443.490, 796.445 445.503, 796.445 447.597, 796.445 449.692, 796.445 451.705, 796.445 453.561, 796.445 455.187, 796.445 456.522, 796.445 457.514, 796.445 458.125, 796.445 458.331, 796.445 " />
            <path fill="none" stroke-width="3.0" stroke-linecap="butt" stroke-opacity="1.0" stroke="rgb(0, 0, 0)" stroke-linejoin="round" d=" M 565.669, 796.445 565.875, 796.445 566.486, 796.445 567.478, 796.445 568.813, 796.445 570.439, 796.445 572.295, 796.445 574.308, 796.445 576.403, 796.445 578.497, 796.445 580.510, 796.445 582.366, 796.445 583.992, 796.445 585.327, 796.445 586.319, 796.445 586.930, 796.445 587.136, 796.445 587.136, 786.445 587.136, 776.445 587.136, 766.444 587.136, 756.444 587.136, 746.444 587.136, 736.444 587.136, 726.444 587.136, 716.444 587.136, 706.444 587.136, 696.444 587.136, 686.444 587.136, 676.444 587.136, 666.444 587.136, 656.444 587.136, 646.444 587.136, 636.444 587.136, 626.444 587.136, 616.444 587.136, 613.971 " />
            <path fill="none" stroke-width="3.0" stroke-linecap="butt" stroke-opacity="1.0" stroke="rgb(0, 0, 0)" stroke-linejoin="round" d=" M 587.136, 613.971 597.136, 613.971 607.136, 613.971 617.136, 613.971 627.136, 613.971 637.136, 613.971 640.805, 613.971 640.805, 603.971 640.805, 593.971 640.805, 586.063 640.805, 586.063 640.805, 576.063 640.805, 566.063 640.805, 556.063 640.805, 546.063 640.805, 536.063 640.805, 534.541 640.805, 534.541 640.805, 524.541 640.805, 514.541 640.805, 504.541 640.805, 500.193 640.805, 500.193 640.805, 490.193 640.805, 480.193 640.805, 470.193 640.805, 460.193 640.805, 450.193 640.805, 448.671 640.805, 448.671 640.805, 438.671 640.805, 428.671 640.805, 418.671 640.805, 408.671 640.805, 398.671 640.805, 388.671 640.805, 378.671 640.805, 368.671 640.805, 358.671 640.805, 348.671 640.805, 338.671 640.805, 328.671 640.805, 318.671 640.805, 308.671 640.805, 298.671 640.805, 288.671 640.805, 278.671 640.805, 268.671 640.805, 258.671 640.805, 248.671 640.805, 238.671 640.805, 227.556 " />
            <path fill="none" stroke-width="3.0" stroke-linecap="butt" stroke-opacity="1.0" stroke="rgb(0, 0, 0)" stroke-linejoin="round" d=" M 383.195, 227.556 383.195, 237.556 383.195, 247.556 383.195, 257.556 383.195, 267.556 383.195, 277.556 383.195, 287.556 383.195, 297.556 383.195, 307.556 383.195, 317.556 383.195, 327.556 383.195, 337.556 383.195, 347.556 383.195, 357.556 383.195, 367.556 383.195, 377.556 383.195, 387.556 383.195, 397.556 383.195, 407.556 383.195, 417.556 383.195, 427.556 383.195, 437.556 383.195, 448.671 383.195, 448.671 383.195, 458.671 383.195, 468.671 383.195, 478.671 383.195, 488.671 383.195, 498.671 383.195, 500.193 383.195, 500.193 383.195, 510.193 383.195, 520.193 383.195, 530.193 383.195, 534.541 383.195, 534.541 383.195, 544.541 383.195, 554.541 383.195, 564.541 383.195, 574.541 383.195, 584.541 383.195, 586.063 383.195, 586.063 383.195, 596.063 383.195, 606.063 383.195, 613.971 393.195, 613.971 403.195, 613.971 413.195, 613.971 423.195, 613.971 433.195, 613.971 436.864, 613.971 " />
            <path fill="none" stroke-width="3.0" stroke-linecap="butt" stroke-opacity="1.0" stroke="rgb(0, 0, 0)" stroke-linejoin="round" d=" M 383.195, 448.671 381.048, 448.671 381.048, 448.671 381.048, 458.671 381.048, 468.671 381.048, 478.671 381.048, 488.671 381.048, 498.671 381.048, 500.193 381.048, 500.193 383.195, 500.193 " />
            <path fill="none" stroke-width="3.0" stroke-linecap="butt" stroke-opacity="1.0" stroke="rgb(0, 0, 0)" stroke-linejoin="round" d=" M 381.048, 500.193 383.195, 500.193 " />
            <path fill="none" stroke-width="3.0" stroke-linecap="butt" stroke-opacity="1.0" stroke="rgb(0, 0, 0)" stroke-linejoin="round" d=" M 640.805, 500.193 642.952, 500.193 642.952, 500.193 642.952, 490.193 642.952, 480.193 642.952, 470.193 642.952, 460.193 642.952, 450.193 642.952, 448.671 642.952, 448.671 640.805, 448.671 " />
            <path fill="none" stroke-width="3.0" stroke-linecap="butt" stroke-opacity="1.0" stroke="rgb(0, 0, 0)" stroke-linejoin="round" d=" M 436.864, 613.971 436.864, 623.971 436.864, 633.971 436.864, 643.971 436.864, 653.971 436.864, 663.971 436.864, 673.971 436.864, 683.971 436.864, 693.971 436.864, 703.971 436.864, 713.971 436.864, 723.971 436.864, 733.971 436.864, 743.971 436.864, 753.971 436.864, 763.971 436.864, 773.971 436.864, 783.971 436.864, 793.971 436.864, 796.445 " />
            <path fill="none" stroke-width="3.0" stroke-linecap="butt" stroke-opacity="1.0" stroke="rgb(0, 0, 0)" stroke-linejoin="round" d=" M 565.669, 613.971 565.669, 623.971 565.669, 633.971 565.669, 643.971 565.669, 653.971 565.669, 663.971 565.669, 673.971 565.669, 683.971 565.669, 693.971 565.669, 703.971 565.669, 713.971 565.669, 723.971 565.669, 733.971 565.669, 743.971 565.669, 753.971 565.669, 763.971 565.669, 773.971 565.669, 783.971 565.669, 793.971 565.669, 796.445 " />
            <path fill="none" stroke-width="3.0" stroke-linecap="butt" stroke-opacity="1.0" stroke="rgb(0, 0, 0)" stroke-linejoin="round" d=" M 565.669, 613.971 575.669, 613.971 585.669, 613.971 587.136, 613.971 " />
            <path fill="none" stroke-width="3.0" stroke-linecap="butt" stroke-opacity="1.0" stroke="rgb(0, 0, 0)" stroke-linejoin="round" d=" M 458.331, 613.971 468.331, 613.971 478.331, 613.971 488.331, 613.971 498.331, 613.971 508.331, 613.971 518.331, 613.971 528.331, 613.971 538.331, 613.971 548.331, 613.971 558.331, 613.971 565.669, 613.971 " />
            <path fill="none" stroke-width="3.0" stroke-linecap="butt" stroke-opacity="1.0" stroke="rgb(0, 0, 0)" stroke-linejoin="round" d=" M 436.864, 613.971 446.864, 613.971 456.864, 613.971 458.331, 613.971 " />
            <path fill="none" stroke-width="3.0" stroke-linecap="butt" stroke-opacity="1.0" stroke="rgb(0, 0, 0)" stroke-linejoin="round" d=" M 640.805, 227.556 630.805, 227.556 620.805, 227.556 610.805, 227.556 600.805, 227.556 590.805, 227.556 580.805, 227.556 570.805, 227.556 560.805, 227.556 550.805, 227.556 540.805, 227.556 530.805, 227.556 520.805, 227.556 510.805, 227.556 500.805, 227.556 490.805, 227.556 480.805, 227.556 470.805, 227.556 460.805, 227.556 450.805, 227.556 440.805, 227.556 430.805, 227.556 420.805, 227.556 410.805, 227.556 400.805, 227.556 390.805, 227.556 383.195, 227.556 " />
            <path fill="none" stroke-width="3.0" stroke-linecap="butt" stroke-opacity="1.0" stroke="rgb(0, 0, 0)" stroke-linejoin="round" d=" M 640.805, 500.193 642.952, 500.193 " />
        </g>
    </g>
    <g id="ViewLayer_TechnicalLines.001" inkscape:groupmode="lineset" inkscape:label="ViewLayer_TechnicalLines.001">
        <g inkscape:groupmode="layer" id="strokes" inkscape:label="strokes">
            <path fill="none" stroke-width="1.5" stroke-linecap="round" stroke-opacity="1.0" stroke="rgb(0, 0, 0)" stroke-linejoin="round" d=" M 458.331, 796.445 458.331, 786.445 458.331, 776.445 458.331, 766.444 458.331, 756.444 458.331, 746.444 458.331, 736.444 458.331, 726.444 458.331, 716.444 458.331, 706.444 458.331, 696.444 458.331, 686.444 458.331, 676.444 458.331, 666.444 458.331, 656.444 458.331, 646.444 458.331, 636.444 458.331, 626.444 458.331, 616.444 458.331, 613.971 " />
            <path fill="none" stroke-width="1.5" stroke-linecap="round" stroke-opacity="1.0" stroke="rgb(0, 0, 0)" stroke-linejoin="round" d=" M 436.864, 796.445 437.070, 796.445 437.681, 796.445 438.673, 796.445 440.008, 796.445 441.634, 796.445 443.490, 796.445 445.503, 796.445 447.597, 796.445 449.692, 796.445 451.705, 796.445 453.561, 796.445 455.187, 796.445 456.522, 796.445 457.514, 796.445 458.125, 796.445 458.331, 796.445 " />
            <path fill="none" stroke-width="1.5" stroke-linecap="round" stroke-opacity="1.0" stroke="rgb(0, 0, 0)" stroke-linejoin="round" d=" M 565.669, 796.445 565.875, 796.445 566.486, 796.445 567.478, 796.445 568.813, 796.445 570.439, 796.445 572.295, 796.445 574.308, 796.445 576.403, 796.445 578.497, 796.445 580.510, 796.445 582.366, 796.445 583.992, 796.445 585.327, 796.445 586.319, 796.445 586.930, 796.445 587.136, 796.445 587.136, 786.445 587.136, 776.445 587.136, 766.444 587.136, 756.444 587.136, 746.444 587.136, 736.444 587.136, 726.444 587.136, 716.444 587.136, 706.444 587.136, 696.444 587.136, 686.444 587.136, 676.444 587.136, 666.444 587.136, 656.444 587.136, 646.444 587.136, 636.444 587.136, 626.444 587.136, 616.444 587.136, 613.971 " />
            <path fill="none" stroke-width="1.5" stroke-linecap="round" stroke-opacity="1.0" stroke="rgb(0, 0, 0)" stroke-linejoin="round" d=" M 587.136, 613.971 597.136, 613.971 607.136, 613.971 617.136, 613.971 627.136, 613.971 637.136, 613.971 640.805, 613.971 640.805, 603.971 640.805, 593.971 640.805, 586.063 640.805, 586.063 640.805, 576.063 640.805, 566.063 640.805, 556.063 640.805, 546.063 640.805, 536.063 640.805, 534.541 640.805, 534.541 640.805, 524.541 640.805, 514.541 640.805, 504.541 640.805, 500.193 640.805, 500.193 640.805, 490.193 640.805, 480.193 640.805, 470.193 640.805, 460.193 640.805, 450.193 640.805, 448.671 640.805, 448.671 640.805, 438.671 640.805, 428.671 640.805, 418.671 640.805, 408.671 640.805, 398.671 640.805, 388.671 640.805, 378.671 640.805, 368.671 640.805, 358.671 640.805, 348.671 640.805, 338.671 640.805, 328.671 640.805, 318.671 640.805, 308.671 640.805, 298.671 640.805, 288.671 640.805, 278.671 640.805, 268.671 640.805, 258.671 640.805, 248.671 640.805, 238.671 640.805, 227.556 " />
            <path fill="none" stroke-width="1.5" stroke-linecap="round" stroke-opacity="1.0" stroke="rgb(0, 0, 0)" stroke-linejoin="round" d=" M 383.195, 227.556 383.195, 237.556 383.195, 247.556 383.195, 257.556 383.195, 267.556 383.195, 277.556 383.195, 287.556 383.195, 297.556 383.195, 307.556 383.195, 317.556 383.195, 327.556 383.195, 337.556 383.195, 347.556 383.195, 357.556 383.195, 367.556 383.195, 377.556 383.195, 387.556 383.195, 397.556 383.195, 407.556 383.195, 417.556 383.195, 427.556 383.195, 437.556 383.195, 448.671 383.195, 448.671 383.195, 458.671 383.195, 468.671 383.195, 478.671 383.195, 488.671 383.195, 498.671 383.195, 500.193 383.195, 500.193 383.195, 510.193 383.195, 520.193 383.195, 530.193 383.195, 534.541 383.195, 534.541 383.195, 544.541 383.195, 554.541 383.195, 564.541 383.195, 574.541 383.195, 584.541 383.195, 586.063 383.195, 586.063 383.195, 596.063 383.195, 606.063 383.195, 613.971 393.195, 613.971 403.195, 613.971 413.195, 613.971 423.195, 613.971 433.195, 613.971 436.864, 613.971 " />
            <path fill="none" stroke-width="1.5" stroke-linecap="round" stroke-opacity="1.0" stroke="rgb(0, 0, 0)" stroke-linejoin="round" d=" M 383.195, 448.671 381.048, 448.671 381.048, 448.671 381.048, 458.671 381.048, 468.671 381.048, 478.671 381.048, 488.671 381.048, 498.671 381.048, 500.193 381.048, 500.193 383.195, 500.193 " />
            <path fill="none" stroke-width="1.5" stroke-linecap="round" stroke-opacity="1.0" stroke="rgb(0, 0, 0)" stroke-linejoin="round" d=" M 381.048, 500.193 383.195, 500.193 " />
            <path fill="none" stroke-width="1.5" stroke-linecap="round" stroke-opacity="1.0" stroke="rgb(0, 0, 0)" stroke-linejoin="round" d=" M 640.805, 500.193 642.952, 500.193 642.952, 500.193 642.952, 490.193 642.952, 480.193 642.952, 470.193 642.952, 460.193 642.952, 450.193 642.952, 448.671 642.952, 448.671 640.805, 448.671 " />
            <path fill="none" stroke-width="1.5" stroke-linecap="round" stroke-opacity="1.0" stroke="rgb(0, 0, 0)" stroke-linejoin="round" d=" M 436.864, 613.971 436.864, 623.971 436.864, 633.971 436.864, 643.971 436.864, 653.971 436.864, 663.971 436.864, 673.971 436.864, 683.971 436.864, 693.971 436.864, 703.971 436.864, 713.971 436.864, 723.971 436.864, 733.971 436.864, 743.971 436.864, 753.971 436.864, 763.971 436.864, 773.971 436.864, 783.971 436.864, 793.971 436.864, 796.445 " />
            <path fill="none" stroke-width="1.5" stroke-linecap="round" stroke-opacity="1.0" stroke="rgb(0, 0, 0)" stroke-linejoin="round" d=" M 565.669, 613.971 565.669, 623.971 565.669, 633.971 565.669, 643.971 565.669, 653.971 565.669, 663.971 565.669, 673.971 565.669, 683.971 565.669, 693.971 565.669, 703.971 565.669, 713.971 565.669, 723.971 565.669, 733.971 565.669, 743.971 565.669, 753.971 565.669, 763.971 565.669, 773.971 565.669, 783.971 565.669, 793.971 565.669, 796.445 " />
            <path fill="none" stroke-width="1.5" stroke-linecap="round" stroke-opacity="1.0" stroke="rgb(0, 0, 0)" stroke-linejoin="round" d=" M 565.669, 613.971 575.669, 613.971 585.669, 613.971 587.136, 613.971 " />
            <path fill="none" stroke-width="1.5" stroke-linecap="round" stroke-opacity="1.0" stroke="rgb(0, 0, 0)" stroke-linejoin="round" d=" M 458.331, 613.971 468.331, 613.971 478.331, 613.971 488.331, 613.971 498.331, 613.971 508.331, 613.971 518.331, 613.971 528.331, 613.971 538.331, 613.971 548.331, 613.971 558.331, 613.971 565.669, 613.971 " />
            <path fill="none" stroke-width="1.5" stroke-linecap="round" stroke-opacity="1.0" stroke="rgb(0, 0, 0)" stroke-linejoin="round" d=" M 436.864, 613.971 446.864, 613.971 456.864, 613.971 458.331, 613.971 " />
            <path fill="none" stroke-width="1.5" stroke-linecap="round" stroke-opacity="1.0" stroke="rgb(0, 0, 0)" stroke-linejoin="round" d=" M 640.805, 227.556 630.805, 227.556 620.805, 227.556 610.805, 227.556 600.805, 227.556 590.805, 227.556 580.805, 227.556 570.805, 227.556 560.805, 227.556 550.805, 227.556 540.805, 227.556 530.805, 227.556 520.805, 227.556 510.805, 227.556 500.805, 227.556 490.805, 227.556 480.805, 227.556 470.805, 227.556 460.805, 227.556 450.805, 227.556 440.805, 227.556 430.805, 227.556 420.805, 227.556 410.805, 227.556 400.805, 227.556 390.805, 227.556 383.195, 227.556 " />
            <path fill="none" stroke-width="1.5" stroke-linecap="round" stroke-opacity="1.0" stroke="rgb(0, 0, 0)" stroke-linejoin="round" d=" M 640.805, 500.193 642.952, 500.193 " />
        </g>
    </g>
    <g id="ViewLayer_TechnicalLines.002" inkscape:groupmode="lineset" inkscape:label="ViewLayer_TechnicalLines.002">
        <g inkscape:groupmode="layer" id="strokes" inkscape:label="strokes">
            <path fill="none" stroke-width="1.5" stroke-linecap="round" stroke-opacity="1.0" stroke="rgb(0, 0, 0)" stroke-linejoin="round" d=" M 458.331, 796.445 458.331, 786.445 458.331, 776.445 458.331, 766.444 458.331, 756.444 458.331, 746.444 458.331, 736.444 458.331, 726.444 458.331, 716.444 458.331, 706.444 458.331, 696.444 458.331, 686.444 458.331, 676.444 458.331, 666.444 458.331, 656.444 458.331, 646.444 458.331, 636.444 458.331, 626.444 458.331, 616.444 458.331, 613.971 " />
            <path fill="none" stroke-width="1.5" stroke-linecap="round" stroke-opacity="1.0" stroke="rgb(0, 0, 0)" stroke-linejoin="round" d=" M 436.864, 796.445 437.070, 796.445 437.681, 796.445 438.673, 796.445 440.008, 796.445 441.634, 796.445 443.490, 796.445 445.503, 796.445 447.597, 796.445 449.692, 796.445 451.705, 796.445 453.561, 796.445 455.187, 796.445 456.522, 796.445 457.514, 796.445 458.125, 796.445 458.331, 796.445 " />
            <path fill="none" stroke-width="1.5" stroke-linecap="round" stroke-opacity="1.0" stroke="rgb(0, 0, 0)" stroke-linejoin="round" d=" M 565.669, 796.445 565.875, 796.445 566.486, 796.445 567.478, 796.445 568.813, 796.445 570.439, 796.445 572.295, 796.445 574.308, 796.445 576.403, 796.445 578.497, 796.445 580.510, 796.445 582.366, 796.445 583.992, 796.445 585.327, 796.445 586.319, 796.445 586.930, 796.445 587.136, 796.445 587.136, 786.445 587.136, 776.445 587.136, 766.444 587.136, 756.444 587.136, 746.444 587.136, 736.444 587.136, 726.444 587.136, 716.444 587.136, 706.444 587.136, 696.444 587.136, 686.444 587.136, 676.444 587.136, 666.444 587.136, 656.444 587.136, 646.444 587.136, 636.444 587.136, 626.444 587.136, 616.444 587.136, 613.971 " />
            <path fill="none" stroke-width="1.5" stroke-linecap="round" stroke-opacity="1.0" stroke="rgb(0, 0, 0)" stroke-linejoin="round" d=" M 587.136, 613.971 597.136, 613.971 607.136, 613.971 617.136, 613.971 627.136, 613.971 637.136, 613.971 640.805, 613.971 640.805, 603.971 640.805, 593.971 640.805, 586.063 640.805, 586.063 640.805, 576.063 640.805, 566.063 640.805, 556.063 640.805, 546.063 640.805, 536.063 640.805, 534.541 640.805, 534.541 640.805, 524.541 640.805, 514.541 640.805, 504.541 640.805, 500.193 640.805, 500.193 640.805, 490.193 640.805, 480.193 640.805, 470.193 640.805, 460.193 640.805, 450.193 640.805, 448.671 640.805, 448.671 640.805, 438.671 640.805, 428.671 640.805, 418.671 640.805, 408.671 640.805, 398.671 640.805, 388.671 640.805, 378.671 640.805, 368.671 640.805, 358.671 640.805, 348.671 640.805, 338.671 640.805, 328.671 640.805, 318.671 640.805, 308.671 640.805, 298.671 640.805, 288.671 640.805, 278.671 640.805, 268.671 640.805, 258.671 640.805, 248.671 640.805, 238.671 640.805, 227.556 " />
            <path fill="none" stroke-width="1.5" stroke-linecap="round" stroke-opacity="1.0" stroke="rgb(0, 0, 0)" stroke-linejoin="round" d=" M 383.195, 227.556 383.195, 237.556 383.195, 247.556 383.195, 257.556 383.195, 267.556 383.195, 277.556 383.195, 287.556 383.195, 297.556 383.195, 307.556 383.195, 317.556 383.195, 327.556 383.195, 337.556 383.195, 347.556 383.195, 357.556 383.195, 367.556 383.195, 377.556 383.195, 387.556 383.195, 397.556 383.195, 407.556 383.195, 417.556 383.195, 427.556 383.195, 437.556 383.195, 448.671 383.195, 448.671 383.195, 458.671 383.195, 468.671 383.195, 478.671 383.195, 488.671 383.195, 498.671 383.195, 500.193 383.195, 500.193 383.195, 510.193 383.195, 520.193 383.195, 530.193 383.195, 534.541 383.195, 534.541 383.195, 544.541 383.195, 554.541 383.195, 564.541 383.195, 574.541 383.195, 584.541 383.195, 586.063 383.195, 586.063 383.195, 596.063 383.195, 606.063 383.195, 613.971 393.195, 613.971 403.195, 613.971 413.195, 613.971 423.195, 613.971 433.195, 613.971 436.864, 613.971 " />
            <path fill="none" stroke-width="1.5" stroke-linecap="round" stroke-opacity="1.0" stroke="rgb(0, 0, 0)" stroke-linejoin="round" d=" M 383.195, 448.671 381.048, 448.671 381.048, 448.671 381.048, 458.671 381.048, 468.671 381.048, 478.671 381.048, 488.671 381.048, 498.671 381.048, 500.193 381.048, 500.193 383.195, 500.193 " />
            <path fill="none" stroke-width="1.5" stroke-linecap="round" stroke-opacity="1.0" stroke="rgb(0, 0, 0)" stroke-linejoin="round" d=" M 381.048, 500.193 383.195, 500.193 " />
            <path fill="none" stroke-width="1.5" stroke-linecap="round" stroke-opacity="1.0" stroke="rgb(0, 0, 0)" stroke-linejoin="round" d=" M 640.805, 500.193 642.952, 500.193 642.952, 500.193 642.952, 490.193 642.952, 480.193 642.952, 470.193 642.952, 460.193 642.952, 450.193 642.952, 448.671 642.952, 448.671 640.805, 448.671 " />
            <path fill="none" stroke-width="1.5" stroke-linecap="round" stroke-opacity="1.0" stroke="rgb(0, 0, 0)" stroke-linejoin="round" d=" M 436.864, 613.971 436.864, 623.971 436.864, 633.971 436.864, 643.971 436.864, 653.971 436.864, 663.971 436.864, 673.971 436.864, 683.971 436.864, 693.971 436.864, 703.971 436.864, 713.971 436.864, 723.971 436.864, 733.971 436.864, 743.971 436.864, 753.971 436.864, 763.971 436.864, 773.971 436.864, 783.971 436.864, 793.971 436.864, 796.445 " />
            <path fill="none" stroke-width="1.5" stroke-linecap="round" stroke-opacity="1.0" stroke="rgb(0, 0, 0)" stroke-linejoin="round" d=" M 565.669, 613.971 565.669, 623.971 565.669, 633.971 565.669, 643.971 565.669, 653.971 565.669, 663.971 565.669, 673.971 565.669, 683.971 565.669, 693.971 565.669, 703.971 565.669, 713.971 565.669, 723.971 565.669, 733.971 565.669, 743.971 565.669, 753.971 565.669, 763.971 565.669, 773.971 565.669, 783.971 565.669, 793.971 565.669, 796.445 " />
            <path fill="none" stroke-width="1.5" stroke-linecap="round" stroke-opacity="1.0" stroke="rgb(0, 0, 0)" stroke-linejoin="round" d=" M 565.669, 613.971 575.669, 613.971 585.669, 613.971 587.136, 613.971 " />
            <path fill="none" stroke-width="1.5" stroke-linecap="round" stroke-opacity="1.0" stroke="rgb(0, 0, 0)" stroke-linejoin="round" d=" M 458.331, 613.971 468.331, 613.971 478.331, 613.971 488.331, 613.971 498.331, 613.971 508.331, 613.971 518.331, 613.971 528.331, 613.971 538.331, 613.971 548.331, 613.971 558.331, 613.971 565.669, 613.971 " />
            <path fill="none" stroke-width="1.5" stroke-linecap="round" stroke-opacity="1.0" stroke="rgb(0, 0, 0)" stroke-linejoin="round" d=" M 436.864, 613.971 446.864, 613.971 456.864, 613.971 458.331, 613.971 " />
            <path fill="none" stroke-width="1.5" stroke-linecap="round" stroke-opacity="1.0" stroke="rgb(0, 0, 0)" stroke-linejoin="round" d=" M 640.805, 227.556 630.805, 227.556 620.805, 227.556 610.805, 227.556 600.805, 227.556 590.805, 227.556 580.805, 227.556 570.805, 227.556 560.805, 227.556 550.805, 227.556 540.805, 227.556 530.805, 227.556 520.805, 227.556 510.805, 227.556 500.805, 227.556 490.805, 227.556 480.805, 227.556 470.805, 227.556 460.805, 227.556 450.805, 227.556 440.805, 227.556 430.805, 227.556 420.805, 227.556 410.805, 227.556 400.805, 227.556 390.805, 227.556 383.195, 227.556 " />
            <path fill="none" stroke-width="1.5" stroke-linecap="round" stroke-opacity="1.0" stroke="rgb(0, 0, 0)" stroke-linejoin="round" d=" M 640.805, 500.193 642.952, 500.193 " />
        </g>
    </g>
    <g id="ViewLayer_TechnicalLines.003" inkscape:groupmode="lineset" inkscape:label="ViewLayer_TechnicalLines.003">
        <g inkscape:groupmode="layer" id="strokes" inkscape:label="strokes">
            <path fill="none" stroke-width="1.5" stroke-linecap="round" stroke-opacity="1.0" stroke="rgb(0, 0, 0)" stroke-linejoin="round" d=" M 458.331, 796.445 458.331, 786.445 458.331, 776.445 458.331, 766.444 458.331, 756.444 458.331, 746.444 458.331, 736.444 458.331, 726.444 458.331, 716.444 458.331, 706.444 458.331, 696.444 458.331, 686.444 458.331, 676.444 458.331, 666.444 458.331, 656.444 458.331, 646.444 458.331, 636.444 458.331, 626.444 458.331, 616.444 458.331, 613.971 " />
            <path fill="none" stroke-width="1.5" stroke-linecap="round" stroke-opacity="1.0" stroke="rgb(0, 0, 0)" stroke-linejoin="round" d=" M 436.864, 796.445 437.070, 796.445 437.681, 796.445 438.673, 796.445 440.008, 796.445 441.634, 796.445 443.490, 796.445 445.503, 796.445 447.597, 796.445 449.692, 796.445 451.705, 796.445 453.561, 796.445 455.187, 796.445 456.522, 796.445 457.514, 796.445 458.125, 796.445 458.331, 796.445 " />
            <path fill="none" stroke-width="1.5" stroke-linecap="round" stroke-opacity="1.0" stroke="rgb(0, 0, 0)" stroke-linejoin="round" d=" M 565.669, 796.445 565.875, 796.445 566.486, 796.445 567.478, 796.445 568.813, 796.445 570.439, 796.445 572.295, 796.445 574.308, 796.445 576.403, 796.445 578.497, 796.445 580.510, 796.445 582.366, 796.445 583.992, 796.445 585.327, 796.445 586.319, 796.445 586.930, 796.445 587.136, 796.445 587.136, 786.445 587.136, 776.445 587.136, 766.444 587.136, 756.444 587.136, 746.444 587.136, 736.444 587.136, 726.444 587.136, 716.444 587.136, 706.444 587.136, 696.444 587.136, 686.444 587.136, 676.444 587.136, 666.444 587.136, 656.444 587.136, 646.444 587.136, 636.444 587.136, 626.444 587.136, 616.444 587.136, 613.971 " />
            <path fill="none" stroke-width="1.5" stroke-linecap="round" stroke-opacity="1.0" stroke="rgb(0, 0, 0)" stroke-linejoin="round" d=" M 587.136, 613.971 597.136, 613.971 607.136, 613.971 617.136, 613.971 627.136, 613.971 637.136, 613.971 640.805, 613.971 640.805, 603.971 640.805, 593.971 640.805, 586.063 640.805, 586.063 640.805, 576.063 640.805, 566.063 640.805, 556.063 640.805, 546.063 640.805, 536.063 640.805, 534.541 640.805, 534.541 640.805, 524.541 640.805, 514.541 640.805, 504.541 640.805, 500.193 640.805, 500.193 640.805, 490.193 640.805, 480.193 640.805, 470.193 640.805, 460.193 640.805, 450.193 640.805, 448.671 640.805, 448.671 640.805, 438.671 640.805, 428.671 640.805, 418.671 640.805, 408.671 640.805, 398.671 640.805, 388.671 640.805, 378.671 640.805, 368.671 640.805, 358.671 640.805, 348.671 640.805, 338.671 640.805, 328.671 640.805, 318.671 640.805, 308.671 640.805, 298.671 640.805, 288.671 640.805, 278.671 640.805, 268.671 640.805, 258.671 640.805, 248.671 640.805, 238.671 640.805, 227.556 " />
            <path fill="none" stroke-width="1.5" stroke-linecap="round" stroke-opacity="1.0" stroke="rgb(0, 0, 0)" stroke-linejoin="round" d=" M 383.195, 227.556 383.195, 237.556 383.195, 247.556 383.195, 257.556 383.195, 267.556 383.195, 277.556 383.195, 287.556 383.195, 297.556 383.195, 307.556 383.195, 317.556 383.195, 327.556 383.195, 337.556 383.195, 347.556 383.195, 357.556 383.195, 367.556 383.195, 377.556 383.195, 387.556 383.195, 397.556 383.195, 407.556 383.195, 417.556 383.195, 427.556 383.195, 437.556 383.195, 448.671 383.195, 448.671 383.195, 458.671 383.195, 468.671 383.195, 478.671 383.195, 488.671 383.195, 498.671 383.195, 500.193 383.195, 500.193 383.195, 510.193 383.195, 520.193 383.195, 530.193 383.195, 534.541 383.195, 534.541 383.195, 544.541 383.195, 554.541 383.195, 564.541 383.195, 574.541 383.195, 584.541 383.195, 586.063 383.195, 586.063 383.195, 596.063 383.195, 606.063 383.195, 613.971 393.195, 613.971 403.195, 613.971 413.195, 613.971 423.195, 613.971 433.195, 613.971 436.864, 613.971 " />
            <path fill="none" stroke-width="1.5" stroke-linecap="round" stroke-opacity="1.0" stroke="rgb(0, 0, 0)" stroke-linejoin="round" d=" M 383.195, 448.671 381.048, 448.671 381.048, 448.671 381.048, 458.671 381.048, 468.671 381.048, 478.671 381.048, 488.671 381.048, 498.671 381.048, 500.193 381.048, 500.193 383.195, 500.193 " />
            <path fill="none" stroke-width="1.5" stroke-linecap="round" stroke-opacity="1.0" stroke="rgb(0, 0, 0)" stroke-linejoin="round" d=" M 381.048, 500.193 383.195, 500.193 " />
            <path fill="none" stroke-width="1.5" stroke-linecap="round" stroke-opacity="1.0" stroke="rgb(0, 0, 0)" stroke-linejoin="round" d=" M 640.805, 500.193 642.952, 500.193 642.952, 500.193 642.952, 490.193 642.952, 480.193 642.952, 470.193 642.952, 460.193 642.952, 450.193 642.952, 448.671 642.952, 448.671 640.805, 448.671 " />
            <path fill="none" stroke-width="1.5" stroke-linecap="round" stroke-opacity="1.0" stroke="rgb(0, 0, 0)" stroke-linejoin="round" d=" M 436.864, 613.971 436.864, 623.971 436.864, 633.971 436.864, 643.971 436.864, 653.971 436.864, 663.971 436.864, 673.971 436.864, 683.971 436.864, 693.971 436.864, 703.971 436.864, 713.971 436.864, 723.971 436.864, 733.971 436.864, 743.971 436.864, 753.971 436.864, 763.971 436.864, 773.971 436.864, 783.971 436.864, 793.971 436.864, 796.445 " />
            <path fill="none" stroke-width="1.5" stroke-linecap="round" stroke-opacity="1.0" stroke="rgb(0, 0, 0)" stroke-linejoin="round" d=" M 565.669, 613.971 565.669, 623.971 565.669, 633.971 565.669, 643.971 565.669, 653.971 565.669, 663.971 565.669, 673.971 565.669, 683.971 565.669, 693.971 565.669, 703.971 565.669, 713.971 565.669, 723.971 565.669, 733.971 565.669, 743.971 565.669, 753.971 565.669, 763.971 565.669, 773.971 565.669, 783.971 565.669, 793.971 565.669, 796.445 " />
            <path fill="none" stroke-width="1.5" stroke-linecap="round" stroke-opacity="1.0" stroke="rgb(0, 0, 0)" stroke-linejoin="round" d=" M 565.669, 613.971 575.669, 613.971 585.669, 613.971 587.136, 613.971 " />
            <path fill="none" stroke-width="1.5" stroke-linecap="round" stroke-opacity="1.0" stroke="rgb(0, 0, 0)" stroke-linejoin="round" d=" M 458.331, 613.971 468.331, 613.971 478.331, 613.971 488.331, 613.971 498.331, 613.971 508.331, 613.971 518.331, 613.971 528.331, 613.971 538.331, 613.971 548.331, 613.971 558.331, 613.971 565.669, 613.971 " />
            <path fill="none" stroke-width="1.5" stroke-linecap="round" stroke-opacity="1.0" stroke="rgb(0, 0, 0)" stroke-linejoin="round" d=" M 436.864, 613.971 446.864, 613.971 456.864, 613.971 458.331, 613.971 " />
            <path fill="none" stroke-width="1.5" stroke-linecap="round" stroke-opacity="1.0" stroke="rgb(0, 0, 0)" stroke-linejoin="round" d=" M 640.805, 227.556 630.805, 227.556 620.805, 227.556 610.805, 227.556 600.805, 227.556 590.805, 227.556 580.805, 227.556 570.805, 227.556 560.805, 227.556 550.805, 227.556 540.805, 227.556 530.805, 227.556 520.805, 227.556 510.805, 227.556 500.805, 227.556 490.805, 227.556 480.805, 227.556 470.805, 227.556 460.805, 227.556 450.805, 227.556 440.805, 227.556 430.805, 227.556 420.805, 227.556 410.805, 227.556 400.805, 227.556 390.805, 227.556 383.195, 227.556 " />
            <path fill="none" stroke-width="1.5" stroke-linecap="round" stroke-opacity="1.0" stroke="rgb(0, 0, 0)" stroke-linejoin="round" d=" M 640.805, 500.193 642.952, 500.193 " />
        </g>
    </g>
    <g id="ViewLayer_TechnicalLines.004" xmlns:inkscape="http://www.inkscape.org/namespaces/inkscape" inkscape:groupmode="lineset" inkscape:label="ViewLayer_TechnicalLines.004">
        <g xmlns:inkscape="http://www.inkscape.org/namespaces/inkscape" inkscape:groupmode="layer" id="strokes" inkscape:label="strokes">
            <path fill="none" stroke-width="1.5" stroke-linecap="round" stroke-opacity="1.0" stroke="rgb(0, 0, 0)" stroke-linejoin="round" d=" M 458.331, 796.445 458.331, 786.445 458.331, 776.445 458.331, 766.444 458.331, 756.444 458.331, 746.444 458.331, 736.444 458.331, 726.444 458.331, 716.444 458.331, 706.444 458.331, 696.444 458.331, 686.444 458.331, 676.444 458.331, 666.444 458.331, 656.444 458.331, 646.444 458.331, 636.444 458.331, 626.444 458.331, 616.444 458.331, 613.971 " />
            <path fill="none" stroke-width="1.5" stroke-linecap="round" stroke-opacity="1.0" stroke="rgb(0, 0, 0)" stroke-linejoin="round" d=" M 436.864, 796.445 437.070, 796.445 437.681, 796.445 438.673, 796.445 440.008, 796.445 441.634, 796.445 443.490, 796.445 445.503, 796.445 447.597, 796.445 449.692, 796.445 451.705, 796.445 453.561, 796.445 455.187, 796.445 456.522, 796.445 457.514, 796.445 458.125, 796.445 458.331, 796.445 " />
            <path fill="none" stroke-width="1.5" stroke-linecap="round" stroke-opacity="1.0" stroke="rgb(0, 0, 0)" stroke-linejoin="round" d=" M 565.669, 796.445 565.875, 796.445 566.486, 796.445 567.478, 796.445 568.813, 796.445 570.439, 796.445 572.295, 796.445 574.308, 796.445 576.403, 796.445 578.497, 796.445 580.510, 796.445 582.366, 796.445 583.992, 796.445 585.327, 796.445 586.319, 796.445 586.930, 796.445 587.136, 796.445 587.136, 786.445 587.136, 776.445 587.136, 766.444 587.136, 756.444 587.136, 746.444 587.136, 736.444 587.136, 726.444 587.136, 716.444 587.136, 706.444 587.136, 696.444 587.136, 686.444 587.136, 676.444 587.136, 666.444 587.136, 656.444 587.136, 646.444 587.136, 636.444 587.136, 626.444 587.136, 616.444 587.136, 613.971 " />
            <path fill="none" stroke-width="1.5" stroke-linecap="round" stroke-opacity="1.0" stroke="rgb(0, 0, 0)" stroke-linejoin="round" d=" M 587.136, 613.971 597.136, 613.971 607.136, 613.971 617.136, 613.971 627.136, 613.971 637.136, 613.971 640.805, 613.971 640.805, 603.971 640.805, 593.971 640.805, 586.063 640.805, 586.063 640.805, 576.063 640.805, 566.063 640.805, 556.063 640.805, 546.063 640.805, 536.063 640.805, 534.541 640.805, 534.541 640.805, 524.541 640.805, 514.541 640.805, 504.541 640.805, 500.193 640.805, 500.193 640.805, 490.193 640.805, 480.193 640.805, 470.193 640.805, 460.193 640.805, 450.193 640.805, 448.671 640.805, 448.671 640.805, 438.671 640.805, 428.671 640.805, 418.671 640.805, 408.671 640.805, 398.671 640.805, 388.671 640.805, 378.671 640.805, 368.671 640.805, 358.671 640.805, 348.671 640.805, 338.671 640.805, 328.671 640.805, 318.671 640.805, 308.671 640.805, 298.671 640.805, 288.671 640.805, 278.671 640.805, 268.671 640.805, 258.671 640.805, 248.671 640.805, 238.671 640.805, 227.556 " />
            <path fill="none" stroke-width="1.5" stroke-linecap="round" stroke-opacity="1.0" stroke="rgb(0, 0, 0)" stroke-linejoin="round" d=" M 383.195, 227.556 383.195, 237.556 383.195, 247.556 383.195, 257.556 383.195, 267.556 383.195, 277.556 383.195, 287.556 383.195, 297.556 383.195, 307.556 383.195, 317.556 383.195, 327.556 383.195, 337.556 383.195, 347.556 383.195, 357.556 383.195, 367.556 383.195, 377.556 383.195, 387.556 383.195, 397.556 383.195, 407.556 383.195, 417.556 383.195, 427.556 383.195, 437.556 383.195, 448.671 383.195, 448.671 383.195, 458.671 383.195, 468.671 383.195, 478.671 383.195, 488.671 383.195, 498.671 383.195, 500.193 383.195, 500.193 383.195, 510.193 383.195, 520.193 383.195, 530.193 383.195, 534.541 383.195, 534.541 383.195, 544.541 383.195, 554.541 383.195, 564.541 383.195, 574.541 383.195, 584.541 383.195, 586.063 383.195, 586.063 383.195, 596.063 383.195, 606.063 383.195, 613.971 393.195, 613.971 403.195, 613.971 413.195, 613.971 423.195, 613.971 433.195, 613.971 436.864, 613.971 " />
            <path fill="none" stroke-width="1.5" stroke-linecap="round" stroke-opacity="1.0" stroke="rgb(0, 0, 0)" stroke-linejoin="round" d=" M 383.195, 448.671 381.048, 448.671 381.048, 448.671 381.048, 458.671 381.048, 468.671 381.048, 478.671 381.048, 488.671 381.048, 498.671 381.048, 500.193 381.048, 500.193 383.195, 500.193 " />
            <path fill="none" stroke-width="1.5" stroke-linecap="round" stroke-opacity="1.0" stroke="rgb(0, 0, 0)" stroke-linejoin="round" d=" M 381.048, 500.193 383.195, 500.193 " />
            <path fill="none" stroke-width="1.5" stroke-linecap="round" stroke-opacity="1.0" stroke="rgb(0, 0, 0)" stroke-linejoin="round" d=" M 640.805, 500.193 642.952, 500.193 642.952, 500.193 642.952, 490.193 642.952, 480.193 642.952, 470.193 642.952, 460.193 642.952, 450.193 642.952, 448.671 642.952, 448.671 640.805, 448.671 " />
            <path fill="none" stroke-width="1.5" stroke-linecap="round" stroke-opacity="1.0" stroke="rgb(0, 0, 0)" stroke-linejoin="round" d=" M 436.864, 613.971 436.864, 623.971 436.864, 633.971 436.864, 643.971 436.864, 653.971 436.864, 663.971 436.864, 673.971 436.864, 683.971 436.864, 693.971 436.864, 703.971 436.864, 713.971 436.864, 723.971 436.864, 733.971 436.864, 743.971 436.864, 753.971 436.864, 763.971 436.864, 773.971 436.864, 783.971 436.864, 793.971 436.864, 796.445 " />
            <path fill="none" stroke-width="1.5" stroke-linecap="round" stroke-opacity="1.0" stroke="rgb(0, 0, 0)" stroke-linejoin="round" d=" M 565.669, 613.971 565.669, 623.971 565.669, 633.971 565.669, 643.971 565.669, 653.971 565.669, 663.971 565.669, 673.971 565.669, 683.971 565.669, 693.971 565.669, 703.971 565.669, 713.971 565.669, 723.971 565.669, 733.971 565.669, 743.971 565.669, 753.971 565.669, 763.971 565.669, 773.971 565.669, 783.971 565.669, 793.971 565.669, 796.445 " />
            <path fill="none" stroke-width="1.5" stroke-linecap="round" stroke-opacity="1.0" stroke="rgb(0, 0, 0)" stroke-linejoin="round" d=" M 565.669, 613.971 575.669, 613.971 585.669, 613.971 587.136, 613.971 " />
            <path fill="none" stroke-width="1.5" stroke-linecap="round" stroke-opacity="1.0" stroke="rgb(0, 0, 0)" stroke-linejoin="round" d=" M 458.331, 613.971 468.331, 613.971 478.331, 613.971 488.331, 613.971 498.331, 613.971 508.331, 613.971 518.331, 613.971 528.331, 613.971 538.331, 613.971 548.331, 613.971 558.331, 613.971 565.669, 613.971 " />
            <path fill="none" stroke-width="1.5" stroke-linecap="round" stroke-opacity="1.0" stroke="rgb(0, 0, 0)" stroke-linejoin="round" d=" M 436.864, 613.971 446.864, 613.971 456.864, 613.971 458.331, 613.971 " />
            <path fill="none" stroke-width="1.5" stroke-linecap="round" stroke-opacity="1.0" stroke="rgb(0, 0, 0)" stroke-linejoin="round" d=" M 640.805, 227.556 630.805, 227.556 620.805, 227.556 610.805, 227.556 600.805, 227.556 590.805, 227.556 580.805, 227.556 570.805, 227.556 560.805, 227.556 550.805, 227.556 540.805, 227.556 530.805, 227.556 520.805, 227.556 510.805, 227.556 500.805, 227.556 490.805, 227.556 480.805, 227.556 470.805, 227.556 460.805, 227.556 450.805, 227.556 440.805, 227.556 430.805, 227.556 420.805, 227.556 410.805, 227.556 400.805, 227.556 390.805, 227.556 383.195, 227.556 " />
            <path fill="none" stroke-width="1.5" stroke-linecap="round" stroke-opacity="1.0" stroke="rgb(0, 0, 0)" stroke-linejoin="round" d=" M 640.805, 500.193 642.952, 500.193 " />
        </g>
    </g>
</svg>
