<?xml version='1.0' encoding='ascii'?>
<svg xmlns="http://www.w3.org/2000/svg" xmlns:inkscape="http://www.inkscape.org/namespaces/inkscape" version="1.1" width="1024" height="1024">
    <g id="ViewLayer_LineSet" inkscape:groupmode="lineset" inkscape:label="ViewLayer_LineSet">
        <g inkscape:groupmode="layer" id="strokes" inkscape:label="strokes">
            <path fill="none" stroke-width="3.0" stroke-linecap="butt" stroke-opacity="1.0" stroke="rgb(0, 0, 0)" stroke-linejoin="round" d=" M 440.889, 583.111 440.889, 583.111 440.889, 583.111 450.889, 583.111 460.889, 583.111 470.889, 583.111 480.889, 583.111 490.889, 583.111 500.889, 583.111 510.889, 583.111 520.889, 583.111 530.889, 583.111 540.889, 583.111 550.889, 583.111 560.889, 583.111 570.889, 583.111 580.889, 583.111 583.111, 583.111 583.111, 573.111 583.111, 563.111 583.111, 554.667 583.111, 554.667 583.111, 554.667 " />
            <path fill="none" stroke-width="3.0" stroke-linecap="butt" stroke-opacity="1.0" stroke="rgb(0, 0, 0)" stroke-linejoin="round" d=" M 583.111, 554.667 583.111, 564.667 583.111, 574.667 583.111, 583.111 " />
            <path fill="none" stroke-width="3.0" stroke-linecap="butt" stroke-opacity="1.0" stroke="rgb(0, 0, 0)" stroke-linejoin="round" d=" M 440.889, 583.111 450.889, 583.111 460.889, 583.111 470.889, 583.111 480.889, 583.111 490.889, 583.111 500.889, 583.111 510.889, 583.111 520.889, 583.111 530.889, 583.111 540.889, 583.111 550.889, 583.111 560.889, 583.111 570.889, 583.111 580.889, 583.111 583.111, 583.111 583.111, 583.111 " />
            <path fill="none" stroke-width="3.0" stroke-linecap="butt" stroke-opacity="1.0" stroke="rgb(0, 0, 0)" stroke-linejoin="round" d=" M 490.667, 526.222 490.667, 516.222 490.667, 506.222 490.667, 496.222 490.667, 486.222 490.667, 476.222 490.667, 466.222 490.667, 456.222 490.667, 446.222 490.667, 440.889 490.667, 440.889 480.667, 440.889 476.444, 440.889 476.444, 450.889 476.444, 460.889 476.444, 470.889 476.444, 480.889 476.444, 490.889 476.444, 500.889 476.444, 510.889 476.444, 520.889 476.444, 526.222 476.444, 526.222 486.444, 526.222 490.667, 526.222 " />
            <path fill="none" stroke-width="3.0" stroke-linecap="butt" stroke-opacity="1.0" stroke="rgb(0, 0, 0)" stroke-linejoin="round" d=" M 490.667, 440.889 490.667, 450.889 490.667, 460.889 490.667, 470.889 490.667, 480.889 490.667, 490.889 490.667, 500.889 490.667, 510.889 490.667, 520.889 490.667, 526.222 " />
            <path fill="none" stroke-width="3.0" stroke-linecap="butt" stroke-opacity="1.0" stroke="rgb(0, 0, 0)" stroke-linejoin="round" d=" M 476.444, 526.222 486.444, 526.222 490.667, 526.222 490.667, 526.222 " />
            <path fill="none" stroke-width="3.0" stroke-linecap="butt" stroke-opacity="1.0" stroke="rgb(0, 0, 0)" stroke-linejoin="round" d=" M 583.111, 583.111 583.111, 573.111 583.111, 563.111 583.111, 554.667 583.111, 554.667 583.111, 554.667 583.111, 554.667 573.111, 554.667 563.111, 554.667 553.111, 554.667 543.111, 554.667 533.111, 554.667 523.111, 554.667 513.111, 554.667 503.111, 554.667 493.111, 554.667 490.667, 554.667 490.667, 554.667 480.667, 554.667 476.444, 554.667 476.444, 554.667 466.444, 554.667 456.444, 554.667 446.444, 554.667 440.889, 554.667 440.889, 564.667 440.889, 574.667 440.889, 583.111 440.889, 583.111 440.889, 583.111 440.889, 583.111 450.889, 583.111 460.889, 583.111 470.889, 583.111 480.889, 583.111 490.889, 583.111 500.889, 583.111 510.889, 583.111 520.889, 583.111 530.889, 583.111 540.889, 583.111 550.889, 583.111 560.889, 583.111 570.889, 583.111 580.889, 583.111 583.111, 583.111 " />
            <path fill="none" stroke-width="3.0" stroke-linecap="butt" stroke-opacity="1.0" stroke="rgb(0, 0, 0)" stroke-linejoin="round" d=" M 583.111, 554.667 583.111, 554.667 583.111, 564.667 583.111, 574.667 583.111, 583.111 " />
            <path fill="none" stroke-width="3.0" stroke-linecap="butt" stroke-opacity="1.0" stroke="rgb(0, 0, 0)" stroke-linejoin="round" d=" M 440.889, 583.111 440.889, 583.111 450.889, 583.111 460.889, 583.111 470.889, 583.111 480.889, 583.111 490.889, 583.111 500.889, 583.111 510.889, 583.111 520.889, 583.111 530.889, 583.111 540.889, 583.111 550.889, 583.111 560.889, 583.111 570.889, 583.111 580.889, 583.111 583.111, 583.111 583.111, 583.111 " />
            <path fill="none" stroke-width="3.0" stroke-linecap="butt" stroke-opacity="1.0" stroke="rgb(0, 0, 0)" stroke-linejoin="round" d=" M 490.667, 554.667 490.667, 544.667 490.667, 534.667 490.667, 533.333 490.667, 533.333 480.667, 533.333 476.444, 533.333 476.444, 543.333 476.444, 553.333 476.444, 554.667 476.444, 554.667 476.444, 554.667 476.444, 554.667 476.444, 564.667 476.444, 574.667 476.444, 576.000 " />
            <path fill="none" stroke-width="3.0" stroke-linecap="butt" stroke-opacity="1.0" stroke="rgb(0, 0, 0)" stroke-linejoin="round" d=" M 490.667, 533.333 490.667, 543.333 490.667, 553.333 490.667, 554.667 490.667, 554.667 490.667, 564.667 490.667, 574.667 490.667, 576.000 480.667, 576.000 476.444, 576.000 " />
        </g>
    </g>
    <g id="ViewLayer_TechnicalLines" inkscape:groupmode="lineset" inkscape:label="ViewLayer_TechnicalLines">
        <g inkscape:groupmode="layer" id="strokes" inkscape:label="strokes">
            <path fill="none" stroke-width="3.0" stroke-linecap="butt" stroke-opacity="1.0" stroke="rgb(0, 0, 0)" stroke-linejoin="round" d=" M 440.889, 583.111 440.889, 583.111 440.889, 583.111 450.889, 583.111 460.889, 583.111 470.889, 583.111 480.889, 583.111 490.889, 583.111 500.889, 583.111 510.889, 583.111 520.889, 583.111 530.889, 583.111 540.889, 583.111 550.889, 583.111 560.889, 583.111 570.889, 583.111 580.889, 583.111 583.111, 583.111 583.111, 573.111 583.111, 563.111 583.111, 554.667 583.111, 554.667 583.111, 554.667 " />
            <path fill="none" stroke-width="3.0" stroke-linecap="butt" stroke-opacity="1.0" stroke="rgb(0, 0, 0)" stroke-linejoin="round" d=" M 583.111, 554.667 583.111, 564.667 583.111, 574.667 583.111, 583.111 " />
            <path fill="none" stroke-width="3.0" stroke-linecap="butt" stroke-opacity="1.0" stroke="rgb(0, 0, 0)" stroke-linejoin="round" d=" M 440.889, 583.111 450.889, 583.111 460.889, 583.111 470.889, 583.111 480.889, 583.111 490.889, 583.111 500.889, 583.111 510.889, 583.111 520.889, 583.111 530.889, 583.111 540.889, 583.111 550.889, 583.111 560.889, 583.111 570.889, 583.111 580.889, 583.111 583.111, 583.111 583.111, 583.111 " />
            <path fill="none" stroke-width="3.0" stroke-linecap="butt" stroke-opacity="1.0" stroke="rgb(0, 0, 0)" stroke-linejoin="round" d=" M 490.667, 526.222 490.667, 516.222 490.667, 506.222 490.667, 496.222 490.667, 486.222 490.667, 476.222 490.667, 466.222 490.667, 456.222 490.667, 446.222 490.667, 440.889 490.667, 440.889 480.667, 440.889 476.444, 440.889 476.444, 450.889 476.444, 460.889 476.444, 470.889 476.444, 480.889 476.444, 490.889 476.444, 500.889 476.444, 510.889 476.444, 520.889 476.444, 526.222 476.444, 526.222 486.444, 526.222 490.667, 526.222 " />
            <path fill="none" stroke-width="3.0" stroke-linecap="butt" stroke-opacity="1.0" stroke="rgb(0, 0, 0)" stroke-linejoin="round" d=" M 490.667, 440.889 490.667, 450.889 490.667, 460.889 490.667, 470.889 490.667, 480.889 490.667, 490.889 490.667, 500.889 490.667, 510.889 490.667, 520.889 490.667, 526.222 " />
            <path fill="none" stroke-width="3.0" stroke-linecap="butt" stroke-opacity="1.0" stroke="rgb(0, 0, 0)" stroke-linejoin="round" d=" M 476.444, 526.222 486.444, 526.222 490.667, 526.222 490.667, 526.222 " />
            <path fill="none" stroke-width="3.0" stroke-linecap="butt" stroke-opacity="1.0" stroke="rgb(0, 0, 0)" stroke-linejoin="round" d=" M 583.111, 583.111 583.111, 573.111 583.111, 563.111 583.111, 554.667 583.111, 554.667 583.111, 554.667 583.111, 554.667 573.111, 554.667 563.111, 554.667 553.111, 554.667 543.111, 554.667 533.111, 554.667 523.111, 554.667 513.111, 554.667 503.111, 554.667 493.111, 554.667 490.667, 554.667 490.667, 554.667 480.667, 554.667 476.444, 554.667 476.444, 554.667 466.444, 554.667 456.444, 554.667 446.444, 554.667 440.889, 554.667 440.889, 564.667 440.889, 574.667 440.889, 583.111 440.889, 583.111 440.889, 583.111 440.889, 583.111 450.889, 583.111 460.889, 583.111 470.889, 583.111 480.889, 583.111 490.889, 583.111 500.889, 583.111 510.889, 583.111 520.889, 583.111 530.889, 583.111 540.889, 583.111 550.889, 583.111 560.889, 583.111 570.889, 583.111 580.889, 583.111 583.111, 583.111 " />
            <path fill="none" stroke-width="3.0" stroke-linecap="butt" stroke-opacity="1.0" stroke="rgb(0, 0, 0)" stroke-linejoin="round" d=" M 583.111, 554.667 583.111, 554.667 583.111, 564.667 583.111, 574.667 583.111, 583.111 " />
            <path fill="none" stroke-width="3.0" stroke-linecap="butt" stroke-opacity="1.0" stroke="rgb(0, 0, 0)" stroke-linejoin="round" d=" M 440.889, 583.111 440.889, 583.111 450.889, 583.111 460.889, 583.111 470.889, 583.111 480.889, 583.111 490.889, 583.111 500.889, 583.111 510.889, 583.111 520.889, 583.111 530.889, 583.111 540.889, 583.111 550.889, 583.111 560.889, 583.111 570.889, 583.111 580.889, 583.111 583.111, 583.111 583.111, 583.111 " />
            <path fill="none" stroke-width="3.0" stroke-linecap="butt" stroke-opacity="1.0" stroke="rgb(0, 0, 0)" stroke-linejoin="round" d=" M 490.667, 554.667 490.667, 544.667 490.667, 534.667 490.667, 533.333 490.667, 533.333 480.667, 533.333 476.444, 533.333 476.444, 543.333 476.444, 553.333 476.444, 554.667 476.444, 554.667 476.444, 554.667 476.444, 554.667 476.444, 564.667 476.444, 574.667 476.444, 576.000 " />
            <path fill="none" stroke-width="3.0" stroke-linecap="butt" stroke-opacity="1.0" stroke="rgb(0, 0, 0)" stroke-linejoin="round" d=" M 490.667, 533.333 490.667, 543.333 490.667, 553.333 490.667, 554.667 490.667, 554.667 490.667, 564.667 490.667, 574.667 490.667, 576.000 480.667, 576.000 476.444, 576.000 " />
        </g>
    </g>
    <g id="ViewLayer_TechnicalLines.001" inkscape:groupmode="lineset" inkscape:label="ViewLayer_TechnicalLines.001">
        <g inkscape:groupmode="layer" id="strokes" inkscape:label="strokes">
            <path fill="none" stroke-width="1.5" stroke-linecap="round" stroke-opacity="1.0" stroke="rgb(0, 0, 0)" stroke-linejoin="round" d=" M 440.889, 583.111 440.889, 583.111 440.889, 583.111 450.889, 583.111 460.889, 583.111 470.889, 583.111 480.889, 583.111 490.889, 583.111 500.889, 583.111 510.889, 583.111 520.889, 583.111 530.889, 583.111 540.889, 583.111 550.889, 583.111 560.889, 583.111 570.889, 583.111 580.889, 583.111 583.111, 583.111 583.111, 573.111 583.111, 563.111 583.111, 554.667 583.111, 554.667 583.111, 554.667 " />
            <path fill="none" stroke-width="1.5" stroke-linecap="round" stroke-opacity="1.0" stroke="rgb(0, 0, 0)" stroke-linejoin="round" d=" M 583.111, 554.667 583.111, 564.667 583.111, 574.667 583.111, 583.111 " />
            <path fill="none" stroke-width="1.5" stroke-linecap="round" stroke-opacity="1.0" stroke="rgb(0, 0, 0)" stroke-linejoin="round" d=" M 440.889, 583.111 450.889, 583.111 460.889, 583.111 470.889, 583.111 480.889, 583.111 490.889, 583.111 500.889, 583.111 510.889, 583.111 520.889, 583.111 530.889, 583.111 540.889, 583.111 550.889, 583.111 560.889, 583.111 570.889, 583.111 580.889, 583.111 583.111, 583.111 583.111, 583.111 " />
            <path fill="none" stroke-width="1.5" stroke-linecap="round" stroke-opacity="1.0" stroke="rgb(0, 0, 0)" stroke-linejoin="round" d=" M 490.667, 526.222 490.667, 516.222 490.667, 506.222 490.667, 496.222 490.667, 486.222 490.667, 476.222 490.667, 466.222 490.667, 456.222 490.667, 446.222 490.667, 440.889 490.667, 440.889 480.667, 440.889 476.444, 440.889 476.444, 450.889 476.444, 460.889 476.444, 470.889 476.444, 480.889 476.444, 490.889 476.444, 500.889 476.444, 510.889 476.444, 520.889 476.444, 526.222 476.444, 526.222 486.444, 526.222 490.667, 526.222 " />
            <path fill="none" stroke-width="1.5" stroke-linecap="round" stroke-opacity="1.0" stroke="rgb(0, 0, 0)" stroke-linejoin="round" d=" M 490.667, 440.889 490.667, 450.889 490.667, 460.889 490.667, 470.889 490.667, 480.889 490.667, 490.889 490.667, 500.889 490.667, 510.889 490.667, 520.889 490.667, 526.222 " />
            <path fill="none" stroke-width="1.5" stroke-linecap="round" stroke-opacity="1.0" stroke="rgb(0, 0, 0)" stroke-linejoin="round" d=" M 476.444, 526.222 486.444, 526.222 490.667, 526.222 490.667, 526.222 " />
            <path fill="none" stroke-width="1.5" stroke-linecap="round" stroke-opacity="1.0" stroke="rgb(0, 0, 0)" stroke-linejoin="round" d=" M 583.111, 583.111 583.111, 573.111 583.111, 563.111 583.111, 554.667 583.111, 554.667 583.111, 554.667 583.111, 554.667 573.111, 554.667 563.111, 554.667 553.111, 554.667 543.111, 554.667 533.111, 554.667 523.111, 554.667 513.111, 554.667 503.111, 554.667 493.111, 554.667 490.667, 554.667 490.667, 554.667 480.667, 554.667 476.444, 554.667 476.444, 554.667 466.444, 554.667 456.444, 554.667 446.444, 554.667 440.889, 554.667 440.889, 564.667 440.889, 574.667 440.889, 583.111 440.889, 583.111 440.889, 583.111 440.889, 583.111 450.889, 583.111 460.889, 583.111 470.889, 583.111 480.889, 583.111 490.889, 583.111 500.889, 583.111 510.889, 583.111 520.889, 583.111 530.889, 583.111 540.889, 583.111 550.889, 583.111 560.889, 583.111 570.889, 583.111 580.889, 583.111 583.111, 583.111 " />
            <path fill="none" stroke-width="1.5" stroke-linecap="round" stroke-opacity="1.0" stroke="rgb(0, 0, 0)" stroke-linejoin="round" d=" M 583.111, 554.667 583.111, 554.667 583.111, 564.667 583.111, 574.667 583.111, 583.111 " />
            <path fill="none" stroke-width="1.5" stroke-linecap="round" stroke-opacity="1.0" stroke="rgb(0, 0, 0)" stroke-linejoin="round" d=" M 440.889, 583.111 440.889, 583.111 450.889, 583.111 460.889, 583.111 470.889, 583.111 480.889, 583.111 490.889, 583.111 500.889, 583.111 510.889, 583.111 520.889, 583.111 530.889, 583.111 540.889, 583.111 550.889, 583.111 560.889, 583.111 570.889, 583.111 580.889, 583.111 583.111, 583.111 583.111, 583.111 " />
            <path fill="none" stroke-width="1.5" stroke-linecap="round" stroke-opacity="1.0" stroke="rgb(0, 0, 0)" stroke-linejoin="round" d=" M 490.667, 554.667 490.667, 544.667 490.667, 534.667 490.667, 533.333 490.667, 533.333 480.667, 533.333 476.444, 533.333 476.444, 543.333 476.444, 553.333 476.444, 554.667 476.444, 554.667 476.444, 554.667 476.444, 554.667 476.444, 564.667 476.444, 574.667 476.444, 576.000 " />
            <path fill="none" stroke-width="1.5" stroke-linecap="round" stroke-opacity="1.0" stroke="rgb(0, 0, 0)" stroke-linejoin="round" d=" M 490.667, 533.333 490.667, 543.333 490.667, 553.333 490.667, 554.667 490.667, 554.667 490.667, 564.667 490.667, 574.667 490.667, 576.000 480.667, 576.000 476.444, 576.000 " />
        </g>
    </g>
    <g id="ViewLayer_TechnicalLines.002" inkscape:groupmode="lineset" inkscape:label="ViewLayer_TechnicalLines.002">
        <g inkscape:groupmode="layer" id="strokes" inkscape:label="strokes">
            <path fill="none" stroke-width="1.5" stroke-linecap="round" stroke-opacity="1.0" stroke="rgb(0, 0, 0)" stroke-linejoin="round" d=" M 440.889, 583.111 440.889, 583.111 440.889, 583.111 450.889, 583.111 460.889, 583.111 470.889, 583.111 480.889, 583.111 490.889, 583.111 500.889, 583.111 510.889, 583.111 520.889, 583.111 530.889, 583.111 540.889, 583.111 550.889, 583.111 560.889, 583.111 570.889, 583.111 580.889, 583.111 583.111, 583.111 583.111, 573.111 583.111, 563.111 583.111, 554.667 583.111, 554.667 583.111, 554.667 " />
            <path fill="none" stroke-width="1.5" stroke-linecap="round" stroke-opacity="1.0" stroke="rgb(0, 0, 0)" stroke-linejoin="round" d=" M 583.111, 554.667 583.111, 564.667 583.111, 574.667 583.111, 583.111 " />
            <path fill="none" stroke-width="1.5" stroke-linecap="round" stroke-opacity="1.0" stroke="rgb(0, 0, 0)" stroke-linejoin="round" d=" M 440.889, 583.111 450.889, 583.111 460.889, 583.111 470.889, 583.111 480.889, 583.111 490.889, 583.111 500.889, 583.111 510.889, 583.111 520.889, 583.111 530.889, 583.111 540.889, 583.111 550.889, 583.111 560.889, 583.111 570.889, 583.111 580.889, 583.111 583.111, 583.111 583.111, 583.111 " />
            <path fill="none" stroke-width="1.5" stroke-linecap="round" stroke-opacity="1.0" stroke="rgb(0, 0, 0)" stroke-linejoin="round" d=" M 490.667, 526.222 490.667, 516.222 490.667, 506.222 490.667, 496.222 490.667, 486.222 490.667, 476.222 490.667, 466.222 490.667, 456.222 490.667, 446.222 490.667, 440.889 490.667, 440.889 480.667, 440.889 476.444, 440.889 476.444, 450.889 476.444, 460.889 476.444, 470.889 476.444, 480.889 476.444, 490.889 476.444, 500.889 476.444, 510.889 476.444, 520.889 476.444, 526.222 476.444, 526.222 486.444, 526.222 490.667, 526.222 " />
            <path fill="none" stroke-width="1.5" stroke-linecap="round" stroke-opacity="1.0" stroke="rgb(0, 0, 0)" stroke-linejoin="round" d=" M 490.667, 440.889 490.667, 450.889 490.667, 460.889 490.667, 470.889 490.667, 480.889 490.667, 490.889 490.667, 500.889 490.667, 510.889 490.667, 520.889 490.667, 526.222 " />
            <path fill="none" stroke-width="1.5" stroke-linecap="round" stroke-opacity="1.0" stroke="rgb(0, 0, 0)" stroke-linejoin="round" d=" M 476.444, 526.222 486.444, 526.222 490.667, 526.222 490.667, 526.222 " />
            <path fill="none" stroke-width="1.5" stroke-linecap="round" stroke-opacity="1.0" stroke="rgb(0, 0, 0)" stroke-linejoin="round" d=" M 583.111, 583.111 583.111, 573.111 583.111, 563.111 583.111, 554.667 583.111, 554.667 583.111, 554.667 583.111, 554.667 573.111, 554.667 563.111, 554.667 553.111, 554.667 543.111, 554.667 533.111, 554.667 523.111, 554.667 513.111, 554.667 503.111, 554.667 493.111, 554.667 490.667, 554.667 490.667, 554.667 480.667, 554.667 476.444, 554.667 476.444, 554.667 466.444, 554.667 456.444, 554.667 446.444, 554.667 440.889, 554.667 440.889, 564.667 440.889, 574.667 440.889, 583.111 440.889, 583.111 440.889, 583.111 440.889, 583.111 450.889, 583.111 460.889, 583.111 470.889, 583.111 480.889, 583.111 490.889, 583.111 500.889, 583.111 510.889, 583.111 520.889, 583.111 530.889, 583.111 540.889, 583.111 550.889, 583.111 560.889, 583.111 570.889, 583.111 580.889, 583.111 583.111, 583.111 " />
            <path fill="none" stroke-width="1.5" stroke-linecap="round" stroke-opacity="1.0" stroke="rgb(0, 0, 0)" stroke-linejoin="round" d=" M 583.111, 554.667 583.111, 554.667 583.111, 564.667 583.111, 574.667 583.111, 583.111 " />
            <path fill="none" stroke-width="1.5" stroke-linecap="round" stroke-opacity="1.0" stroke="rgb(0, 0, 0)" stroke-linejoin="round" d=" M 440.889, 583.111 440.889, 583.111 450.889, 583.111 460.889, 583.111 470.889, 583.111 480.889, 583.111 490.889, 583.111 500.889, 583.111 510.889, 583.111 520.889, 583.111 530.889, 583.111 540.889, 583.111 550.889, 583.111 560.889, 583.111 570.889, 583.111 580.889, 583.111 583.111, 583.111 583.111, 583.111 " />
            <path fill="none" stroke-width="1.5" stroke-linecap="round" stroke-opacity="1.0" stroke="rgb(0, 0, 0)" stroke-linejoin="round" d=" M 490.667, 554.667 490.667, 544.667 490.667, 534.667 490.667, 533.333 490.667, 533.333 480.667, 533.333 476.444, 533.333 476.444, 543.333 476.444, 553.333 476.444, 554.667 476.444, 554.667 476.444, 554.667 476.444, 554.667 476.444, 564.667 476.444, 574.667 476.444, 576.000 " />
            <path fill="none" stroke-width="1.5" stroke-linecap="round" stroke-opacity="1.0" stroke="rgb(0, 0, 0)" stroke-linejoin="round" d=" M 490.667, 533.333 490.667, 543.333 490.667, 553.333 490.667, 554.667 490.667, 554.667 490.667, 564.667 490.667, 574.667 490.667, 576.000 480.667, 576.000 476.444, 576.000 " />
        </g>
    </g>
    <g id="ViewLayer_TechnicalLines.003" inkscape:groupmode="lineset" inkscape:label="ViewLayer_TechnicalLines.003">
        <g inkscape:groupmode="layer" id="strokes" inkscape:label="strokes">
            <path fill="none" stroke-width="1.5" stroke-linecap="round" stroke-opacity="1.0" stroke="rgb(0, 0, 0)" stroke-linejoin="round" d=" M 440.889, 583.111 440.889, 583.111 440.889, 583.111 450.889, 583.111 460.889, 583.111 470.889, 583.111 480.889, 583.111 490.889, 583.111 500.889, 583.111 510.889, 583.111 520.889, 583.111 530.889, 583.111 540.889, 583.111 550.889, 583.111 560.889, 583.111 570.889, 583.111 580.889, 583.111 583.111, 583.111 583.111, 573.111 583.111, 563.111 583.111, 554.667 583.111, 554.667 583.111, 554.667 " />
            <path fill="none" stroke-width="1.5" stroke-linecap="round" stroke-opacity="1.0" stroke="rgb(0, 0, 0)" stroke-linejoin="round" d=" M 583.111, 554.667 583.111, 564.667 583.111, 574.667 583.111, 583.111 " />
            <path fill="none" stroke-width="1.5" stroke-linecap="round" stroke-opacity="1.0" stroke="rgb(0, 0, 0)" stroke-linejoin="round" d=" M 440.889, 583.111 450.889, 583.111 460.889, 583.111 470.889, 583.111 480.889, 583.111 490.889, 583.111 500.889, 583.111 510.889, 583.111 520.889, 583.111 530.889, 583.111 540.889, 583.111 550.889, 583.111 560.889, 583.111 570.889, 583.111 580.889, 583.111 583.111, 583.111 583.111, 583.111 " />
            <path fill="none" stroke-width="1.5" stroke-linecap="round" stroke-opacity="1.0" stroke="rgb(0, 0, 0)" stroke-linejoin="round" d=" M 490.667, 526.222 490.667, 516.222 490.667, 506.222 490.667, 496.222 490.667, 486.222 490.667, 476.222 490.667, 466.222 490.667, 456.222 490.667, 446.222 490.667, 440.889 490.667, 440.889 480.667, 440.889 476.444, 440.889 476.444, 450.889 476.444, 460.889 476.444, 470.889 476.444, 480.889 476.444, 490.889 476.444, 500.889 476.444, 510.889 476.444, 520.889 476.444, 526.222 476.444, 526.222 486.444, 526.222 490.667, 526.222 " />
            <path fill="none" stroke-width="1.5" stroke-linecap="round" stroke-opacity="1.0" stroke="rgb(0, 0, 0)" stroke-linejoin="round" d=" M 490.667, 440.889 490.667, 450.889 490.667, 460.889 490.667, 470.889 490.667, 480.889 490.667, 490.889 490.667, 500.889 490.667, 510.889 490.667, 520.889 490.667, 526.222 " />
            <path fill="none" stroke-width="1.5" stroke-linecap="round" stroke-opacity="1.0" stroke="rgb(0, 0, 0)" stroke-linejoin="round" d=" M 476.444, 526.222 486.444, 526.222 490.667, 526.222 490.667, 526.222 " />
            <path fill="none" stroke-width="1.5" stroke-linecap="round" stroke-opacity="1.0" stroke="rgb(0, 0, 0)" stroke-linejoin="round" d=" M 583.111, 583.111 583.111, 573.111 583.111, 563.111 583.111, 554.667 583.111, 554.667 583.111, 554.667 583.111, 554.667 573.111, 554.667 563.111, 554.667 553.111, 554.667 543.111, 554.667 533.111, 554.667 523.111, 554.667 513.111, 554.667 503.111, 554.667 493.111, 554.667 490.667, 554.667 490.667, 554.667 480.667, 554.667 476.444, 554.667 476.444, 554.667 466.444, 554.667 456.444, 554.667 446.444, 554.667 440.889, 554.667 440.889, 564.667 440.889, 574.667 440.889, 583.111 440.889, 583.111 440.889, 583.111 440.889, 583.111 450.889, 583.111 460.889, 583.111 470.889, 583.111 480.889, 583.111 490.889, 583.111 500.889, 583.111 510.889, 583.111 520.889, 583.111 530.889, 583.111 540.889, 583.111 550.889, 583.111 560.889, 583.111 570.889, 583.111 580.889, 583.111 583.111, 583.111 " />
            <path fill="none" stroke-width="1.5" stroke-linecap="round" stroke-opacity="1.0" stroke="rgb(0, 0, 0)" stroke-linejoin="round" d=" M 583.111, 554.667 583.111, 554.667 583.111, 564.667 583.111, 574.667 583.111, 583.111 " />
            <path fill="none" stroke-width="1.5" stroke-linecap="round" stroke-opacity="1.0" stroke="rgb(0, 0, 0)" stroke-linejoin="round" d=" M 440.889, 583.111 440.889, 583.111 450.889, 583.111 460.889, 583.111 470.889, 583.111 480.889, 583.111 490.889, 583.111 500.889, 583.111 510.889, 583.111 520.889, 583.111 530.889, 583.111 540.889, 583.111 550.889, 583.111 560.889, 583.111 570.889, 583.111 580.889, 583.111 583.111, 583.111 583.111, 583.111 " />
            <path fill="none" stroke-width="1.5" stroke-linecap="round" stroke-opacity="1.0" stroke="rgb(0, 0, 0)" stroke-linejoin="round" d=" M 490.667, 554.667 490.667, 544.667 490.667, 534.667 490.667, 533.333 490.667, 533.333 480.667, 533.333 476.444, 533.333 476.444, 543.333 476.444, 553.333 476.444, 554.667 476.444, 554.667 476.444, 554.667 476.444, 554.667 476.444, 564.667 476.444, 574.667 476.444, 576.000 " />
            <path fill="none" stroke-width="1.5" stroke-linecap="round" stroke-opacity="1.0" stroke="rgb(0, 0, 0)" stroke-linejoin="round" d=" M 490.667, 533.333 490.667, 543.333 490.667, 553.333 490.667, 554.667 490.667, 554.667 490.667, 564.667 490.667, 574.667 490.667, 576.000 480.667, 576.000 476.444, 576.000 " />
        </g>
    </g>
    <g id="ViewLayer_TechnicalLines.004" xmlns:inkscape="http://www.inkscape.org/namespaces/inkscape" inkscape:groupmode="lineset" inkscape:label="ViewLayer_TechnicalLines.004">
        <g xmlns:inkscape="http://www.inkscape.org/namespaces/inkscape" inkscape:groupmode="layer" id="strokes" inkscape:label="strokes">
            <path fill="none" stroke-width="1.5" stroke-linecap="round" stroke-opacity="1.0" stroke="rgb(0, 0, 0)" stroke-linejoin="round" d=" M 440.889, 583.111 440.889, 583.111 440.889, 583.111 450.889, 583.111 460.889, 583.111 470.889, 583.111 480.889, 583.111 490.889, 583.111 500.889, 583.111 510.889, 583.111 520.889, 583.111 530.889, 583.111 540.889, 583.111 550.889, 583.111 560.889, 583.111 570.889, 583.111 580.889, 583.111 583.111, 583.111 583.111, 573.111 583.111, 563.111 583.111, 554.667 583.111, 554.667 583.111, 554.667 " />
            <path fill="none" stroke-width="1.5" stroke-linecap="round" stroke-opacity="1.0" stroke="rgb(0, 0, 0)" stroke-linejoin="round" d=" M 583.111, 554.667 583.111, 564.667 583.111, 574.667 583.111, 583.111 " />
            <path fill="none" stroke-width="1.5" stroke-linecap="round" stroke-opacity="1.0" stroke="rgb(0, 0, 0)" stroke-linejoin="round" d=" M 440.889, 583.111 450.889, 583.111 460.889, 583.111 470.889, 583.111 480.889, 583.111 490.889, 583.111 500.889, 583.111 510.889, 583.111 520.889, 583.111 530.889, 583.111 540.889, 583.111 550.889, 583.111 560.889, 583.111 570.889, 583.111 580.889, 583.111 583.111, 583.111 583.111, 583.111 " />
            <path fill="none" stroke-width="1.5" stroke-linecap="round" stroke-opacity="1.0" stroke="rgb(0, 0, 0)" stroke-linejoin="round" d=" M 490.667, 526.222 490.667, 516.222 490.667, 506.222 490.667, 496.222 490.667, 486.222 490.667, 476.222 490.667, 466.222 490.667, 456.222 490.667, 446.222 490.667, 440.889 490.667, 440.889 480.667, 440.889 476.444, 440.889 476.444, 450.889 476.444, 460.889 476.444, 470.889 476.444, 480.889 476.444, 490.889 476.444, 500.889 476.444, 510.889 476.444, 520.889 476.444, 526.222 476.444, 526.222 486.444, 526.222 490.667, 526.222 " />
            <path fill="none" stroke-width="1.5" stroke-linecap="round" stroke-opacity="1.0" stroke="rgb(0, 0, 0)" stroke-linejoin="round" d=" M 490.667, 440.889 490.667, 450.889 490.667, 460.889 490.667, 470.889 490.667, 480.889 490.667, 490.889 490.667, 500.889 490.667, 510.889 490.667, 520.889 490.667, 526.222 " />
            <path fill="none" stroke-width="1.5" stroke-linecap="round" stroke-opacity="1.0" stroke="rgb(0, 0, 0)" stroke-linejoin="round" d=" M 476.444, 526.222 486.444, 526.222 490.667, 526.222 490.667, 526.222 " />
            <path fill="none" stroke-width="1.5" stroke-linecap="round" stroke-opacity="1.0" stroke="rgb(0, 0, 0)" stroke-linejoin="round" d=" M 583.111, 583.111 583.111, 573.111 583.111, 563.111 583.111, 554.667 583.111, 554.667 583.111, 554.667 583.111, 554.667 573.111, 554.667 563.111, 554.667 553.111, 554.667 543.111, 554.667 533.111, 554.667 523.111, 554.667 513.111, 554.667 503.111, 554.667 493.111, 554.667 490.667, 554.667 490.667, 554.667 480.667, 554.667 476.444, 554.667 476.444, 554.667 466.444, 554.667 456.444, 554.667 446.444, 554.667 440.889, 554.667 440.889, 564.667 440.889, 574.667 440.889, 583.111 440.889, 583.111 440.889, 583.111 440.889, 583.111 450.889, 583.111 460.889, 583.111 470.889, 583.111 480.889, 583.111 490.889, 583.111 500.889, 583.111 510.889, 583.111 520.889, 583.111 530.889, 583.111 540.889, 583.111 550.889, 583.111 560.889, 583.111 570.889, 583.111 580.889, 583.111 583.111, 583.111 " />
            <path fill="none" stroke-width="1.5" stroke-linecap="round" stroke-opacity="1.0" stroke="rgb(0, 0, 0)" stroke-linejoin="round" d=" M 583.111, 554.667 583.111, 554.667 583.111, 564.667 583.111, 574.667 583.111, 583.111 " />
            <path fill="none" stroke-width="1.5" stroke-linecap="round" stroke-opacity="1.0" stroke="rgb(0, 0, 0)" stroke-linejoin="round" d=" M 440.889, 583.111 440.889, 583.111 450.889, 583.111 460.889, 583.111 470.889, 583.111 480.889, 583.111 490.889, 583.111 500.889, 583.111 510.889, 583.111 520.889, 583.111 530.889, 583.111 540.889, 583.111 550.889, 583.111 560.889, 583.111 570.889, 583.111 580.889, 583.111 583.111, 583.111 583.111, 583.111 " />
            <path fill="none" stroke-width="1.5" stroke-linecap="round" stroke-opacity="1.0" stroke="rgb(0, 0, 0)" stroke-linejoin="round" d=" M 490.667, 554.667 490.667, 544.667 490.667, 534.667 490.667, 533.333 490.667, 533.333 480.667, 533.333 476.444, 533.333 476.444, 543.333 476.444, 553.333 476.444, 554.667 476.444, 554.667 476.444, 554.667 476.444, 554.667 476.444, 564.667 476.444, 574.667 476.444, 576.000 " />
            <path fill="none" stroke-width="1.5" stroke-linecap="round" stroke-opacity="1.0" stroke="rgb(0, 0, 0)" stroke-linejoin="round" d=" M 490.667, 533.333 490.667, 543.333 490.667, 553.333 490.667, 554.667 490.667, 554.667 490.667, 564.667 490.667, 574.667 490.667, 576.000 480.667, 576.000 476.444, 576.000 " />
        </g>
    </g>
</svg>
