<?xml version='1.0' encoding='ascii'?>
<svg xmlns="http://www.w3.org/2000/svg" xmlns:inkscape="http://www.inkscape.org/namespaces/inkscape" version="1.1" width="1024" height="1024">
    <g id="ViewLayer_LineSet" inkscape:groupmode="lineset" inkscape:label="ViewLayer_LineSet">
        <g inkscape:groupmode="layer" id="strokes" inkscape:label="strokes">
            <path fill="none" stroke-width="3.0" stroke-linecap="butt" stroke-opacity="1.0" stroke="rgb(0, 0, 0)" stroke-linejoin="round" d=" M 330.272, 701.630 330.272, 701.630 340.272, 701.630 350.272, 701.630 360.272, 701.630 370.272, 701.630 380.272, 701.630 390.272, 701.630 400.272, 701.630 410.272, 701.630 420.272, 701.630 430.272, 701.630 440.272, 701.630 450.272, 701.630 460.272, 701.630 470.272, 701.630 480.272, 701.630 490.272, 701.630 500.272, 701.630 510.272, 701.630 520.272, 701.630 530.272, 701.630 540.272, 701.630 550.272, 701.630 560.272, 701.630 570.272, 701.630 580.272, 701.630 590.272, 701.630 600.272, 701.630 610.272, 701.630 620.272, 701.630 630.272, 701.630 640.272, 701.630 650.272, 701.630 660.272, 701.630 670.272, 701.630 680.272, 701.630 690.272, 701.630 700.272, 701.630 710.272, 701.630 720.272, 701.630 730.272, 701.630 740.272, 701.630 750.272, 701.630 756.938, 701.630 756.938, 691.630 756.938, 681.630 756.938, 671.630 756.938, 670.025 " />
            <path fill="none" stroke-width="3.0" stroke-linecap="butt" stroke-opacity="1.0" stroke="rgb(0, 0, 0)" stroke-linejoin="round" d=" M 756.938, 701.630 756.938, 701.630 " />
            <path fill="none" stroke-width="3.0" stroke-linecap="butt" stroke-opacity="1.0" stroke="rgb(0, 0, 0)" stroke-linejoin="round" d=" M 282.864, 638.420 282.864, 638.420 282.864, 648.420 282.864, 658.420 282.864, 668.420 282.864, 678.420 282.864, 688.420 282.864, 698.420 282.864, 701.630 " />
            <path fill="none" stroke-width="3.0" stroke-linecap="butt" stroke-opacity="1.0" stroke="rgb(0, 0, 0)" stroke-linejoin="round" d=" M 282.864, 701.630 292.864, 701.630 302.864, 701.630 312.864, 701.630 322.864, 701.630 330.272, 701.630 340.272, 701.630 350.272, 701.630 360.272, 701.630 370.272, 701.630 380.272, 701.630 390.272, 701.630 400.272, 701.630 410.272, 701.630 420.272, 701.630 430.272, 701.630 440.272, 701.630 450.272, 701.630 460.272, 701.630 470.272, 701.630 480.272, 701.630 490.272, 701.630 500.272, 701.630 510.272, 701.630 520.272, 701.630 530.272, 701.630 540.272, 701.630 550.272, 701.630 560.272, 701.630 570.272, 701.630 580.272, 701.630 590.272, 701.630 600.272, 701.630 610.272, 701.630 620.272, 701.630 630.272, 701.630 640.272, 701.630 650.272, 701.630 660.272, 701.630 670.272, 701.630 680.272, 701.630 690.272, 701.630 700.272, 701.630 710.272, 701.630 720.272, 701.630 730.272, 701.630 740.272, 701.630 750.272, 701.630 756.938, 701.630 756.938, 691.630 756.938, 681.630 756.938, 671.630 756.938, 670.025 756.938, 670.025 " />
            <path fill="none" stroke-width="3.0" stroke-linecap="butt" stroke-opacity="1.0" stroke="rgb(0, 0, 0)" stroke-linejoin="round" d=" M 330.272, 512.000 330.272, 502.000 330.272, 492.000 330.272, 482.000 330.272, 472.000 330.272, 462.000 330.272, 452.000 330.272, 442.000 330.272, 432.000 330.272, 422.000 330.272, 412.000 330.272, 402.000 330.272, 392.000 330.272, 382.000 330.272, 372.000 330.272, 362.000 330.272, 352.000 330.272, 342.000 330.272, 332.000 330.272, 322.000 330.272, 312.000 330.272, 302.000 330.272, 292.000 330.272, 282.000 330.272, 274.963 330.272, 274.963 320.272, 274.963 310.272, 274.963 300.272, 274.963 290.272, 274.963 280.272, 274.963 270.272, 274.963 267.062, 274.963 267.062, 284.963 267.062, 294.963 267.062, 304.963 267.062, 314.963 267.062, 324.963 267.062, 334.963 267.062, 344.963 267.062, 354.963 267.062, 364.963 267.062, 374.963 267.062, 384.963 267.062, 394.963 267.062, 404.963 267.062, 414.963 267.062, 424.963 267.062, 434.963 267.062, 444.963 267.062, 454.963 267.062, 464.963 267.062, 474.963 267.062, 484.963 267.062, 494.963 267.062, 504.963 267.062, 514.963 267.062, 524.963 267.062, 534.963 267.062, 544.963 267.062, 554.963 267.062, 564.963 267.062, 574.963 267.062, 584.963 267.062, 594.963 267.062, 604.963 267.062, 614.963 267.062, 624.963 267.062, 634.963 267.062, 644.963 267.062, 654.963 267.062, 664.963 267.062, 674.963 267.062, 684.963 267.062, 694.963 267.062, 704.963 267.062, 714.963 267.062, 724.963 267.062, 734.963 267.062, 749.037 267.062, 749.037 277.062, 749.037 287.062, 749.037 297.062, 749.037 307.062, 749.037 317.062, 749.037 327.062, 749.037 330.272, 749.037 330.272, 739.037 330.272, 729.037 330.272, 719.037 330.272, 709.037 330.272, 701.630 330.272, 701.630 " />
            <path fill="none" stroke-width="3.0" stroke-linecap="butt" stroke-opacity="1.0" stroke="rgb(0, 0, 0)" stroke-linejoin="round" d=" M 330.272, 274.963 330.272, 284.963 330.272, 294.963 330.272, 304.963 330.272, 314.963 330.272, 324.963 330.272, 334.963 330.272, 344.963 330.272, 354.963 330.272, 364.963 330.272, 374.963 330.272, 384.963 330.272, 394.963 330.272, 404.963 330.272, 414.963 330.272, 424.963 330.272, 434.963 330.272, 444.963 330.272, 454.963 330.272, 464.963 330.272, 474.963 330.272, 484.963 330.272, 494.963 330.272, 504.963 330.272, 512.000 " />
            <path fill="none" stroke-width="3.0" stroke-linecap="butt" stroke-opacity="1.0" stroke="rgb(0, 0, 0)" stroke-linejoin="round" d=" M 330.272, 749.037 330.272, 749.037 " />
            <path fill="none" stroke-width="3.0" stroke-linecap="butt" stroke-opacity="1.0" stroke="rgb(0, 0, 0)" stroke-linejoin="round" d=" M 267.062, 749.037 277.062, 749.037 287.062, 749.037 297.062, 749.037 307.062, 749.037 317.062, 749.037 327.062, 749.037 330.272, 749.037 330.272, 739.037 330.272, 729.037 330.272, 719.037 330.272, 709.037 330.272, 701.630 330.272, 691.630 330.272, 681.630 330.272, 671.630 330.272, 670.025 330.272, 670.025 " />
            <path fill="none" stroke-width="3.0" stroke-linecap="butt" stroke-opacity="1.0" stroke="rgb(0, 0, 0)" stroke-linejoin="round" d=" M 756.938, 670.025 756.938, 660.025 756.938, 650.025 756.938, 640.025 756.938, 638.420 " />
            <path fill="none" stroke-width="3.0" stroke-linecap="butt" stroke-opacity="1.0" stroke="rgb(0, 0, 0)" stroke-linejoin="round" d=" M 282.864, 670.025 292.864, 670.025 302.864, 670.025 312.864, 670.025 322.864, 670.025 330.272, 670.025 330.272, 670.025 340.272, 670.025 350.272, 670.025 360.272, 670.025 370.272, 670.025 380.272, 670.025 390.272, 670.025 400.272, 670.025 410.272, 670.025 420.272, 670.025 430.272, 670.025 440.272, 670.025 450.272, 670.025 460.272, 670.025 470.272, 670.025 480.272, 670.025 490.272, 670.025 500.272, 670.025 510.272, 670.025 520.272, 670.025 530.272, 670.025 540.272, 670.025 550.272, 670.025 560.272, 670.025 570.272, 670.025 580.272, 670.025 590.272, 670.025 600.272, 670.025 610.272, 670.025 620.272, 670.025 630.272, 670.025 640.272, 670.025 650.272, 670.025 660.272, 670.025 670.272, 670.025 680.272, 670.025 690.272, 670.025 700.272, 670.025 710.272, 670.025 720.272, 670.025 730.272, 670.025 740.272, 670.025 750.272, 670.025 756.938, 670.025 756.938, 670.025 756.938, 660.025 756.938, 650.025 756.938, 640.025 756.938, 638.420 756.938, 638.420 756.938, 628.420 756.938, 618.420 756.938, 608.420 756.938, 598.420 756.938, 588.420 756.938, 578.420 756.938, 568.420 756.938, 558.420 756.938, 548.420 756.938, 538.420 756.938, 528.420 756.938, 518.420 756.938, 512.000 " />
            <path fill="none" stroke-width="3.0" stroke-linecap="butt" stroke-opacity="1.0" stroke="rgb(0, 0, 0)" stroke-linejoin="round" d=" M 282.864, 512.000 282.864, 522.000 282.864, 532.000 282.864, 542.000 282.864, 552.000 282.864, 562.000 282.864, 572.000 282.864, 582.000 282.864, 592.000 282.864, 602.000 282.864, 612.000 282.864, 622.000 282.864, 632.000 282.864, 638.420 282.864, 638.420 282.864, 648.420 282.864, 658.420 282.864, 668.420 282.864, 670.025 282.864, 670.025 " />
            <path fill="none" stroke-width="3.0" stroke-linecap="butt" stroke-opacity="1.0" stroke="rgb(0, 0, 0)" stroke-linejoin="round" d=" M 756.938, 512.000 756.938, 512.000 " />
            <path fill="none" stroke-width="3.0" stroke-linecap="butt" stroke-opacity="1.0" stroke="rgb(0, 0, 0)" stroke-linejoin="round" d=" M 756.938, 512.000 746.938, 512.000 736.938, 512.000 726.938, 512.000 716.938, 512.000 706.938, 512.000 696.938, 512.000 686.938, 512.000 676.938, 512.000 666.938, 512.000 656.938, 512.000 646.938, 512.000 636.938, 512.000 626.938, 512.000 616.938, 512.000 606.938, 512.000 596.938, 512.000 586.938, 512.000 576.938, 512.000 566.938, 512.000 556.938, 512.000 546.938, 512.000 536.938, 512.000 526.938, 512.000 516.938, 512.000 506.938, 512.000 496.938, 512.000 486.938, 512.000 476.938, 512.000 466.938, 512.000 456.938, 512.000 446.938, 512.000 436.938, 512.000 426.938, 512.000 416.938, 512.000 406.938, 512.000 396.938, 512.000 386.938, 512.000 376.938, 512.000 366.938, 512.000 356.938, 512.000 346.938, 512.000 336.938, 512.000 330.272, 512.000 330.272, 512.000 320.272, 512.000 310.272, 512.000 300.272, 512.000 290.272, 512.000 282.864, 512.000 " />
            <path fill="none" stroke-width="3.0" stroke-linecap="butt" stroke-opacity="1.0" stroke="rgb(0, 0, 0)" stroke-linejoin="round" d=" M 756.938, 670.025 756.938, 670.025 " />
            <path fill="none" stroke-width="3.0" stroke-linecap="butt" stroke-opacity="1.0" stroke="rgb(0, 0, 0)" stroke-linejoin="round" d=" M 756.938, 638.420 756.938, 638.420 " />
            <path fill="none" stroke-width="3.0" stroke-linecap="butt" stroke-opacity="1.0" stroke="rgb(0, 0, 0)" stroke-linejoin="round" d=" M 756.938, 638.420 756.938, 628.420 756.938, 618.420 756.938, 608.420 756.938, 598.420 756.938, 588.420 756.938, 578.420 756.938, 568.420 756.938, 558.420 756.938, 548.420 756.938, 538.420 756.938, 528.420 756.938, 518.420 756.938, 512.000 " />
            <path fill="none" stroke-width="3.0" stroke-linecap="butt" stroke-opacity="1.0" stroke="rgb(0, 0, 0)" stroke-linejoin="round" d=" M 756.938, 512.000 756.938, 512.000 " />
        </g>
    </g>
    <g id="ViewLayer_TechnicalLines" inkscape:groupmode="lineset" inkscape:label="ViewLayer_TechnicalLines">
        <g inkscape:groupmode="layer" id="strokes" inkscape:label="strokes">
            <path fill="none" stroke-width="3.0" stroke-linecap="butt" stroke-opacity="1.0" stroke="rgb(0, 0, 0)" stroke-linejoin="round" d=" M 330.272, 701.630 330.272, 701.630 340.272, 701.630 350.272, 701.630 360.272, 701.630 370.272, 701.630 380.272, 701.630 390.272, 701.630 400.272, 701.630 410.272, 701.630 420.272, 701.630 430.272, 701.630 440.272, 701.630 450.272, 701.630 460.272, 701.630 470.272, 701.630 480.272, 701.630 490.272, 701.630 500.272, 701.630 510.272, 701.630 520.272, 701.630 530.272, 701.630 540.272, 701.630 550.272, 701.630 560.272, 701.630 570.272, 701.630 580.272, 701.630 590.272, 701.630 600.272, 701.630 610.272, 701.630 620.272, 701.630 630.272, 701.630 640.272, 701.630 650.272, 701.630 660.272, 701.630 670.272, 701.630 680.272, 701.630 690.272, 701.630 700.272, 701.630 710.272, 701.630 720.272, 701.630 730.272, 701.630 740.272, 701.630 750.272, 701.630 756.938, 701.630 756.938, 691.630 756.938, 681.630 756.938, 671.630 756.938, 670.025 " />
            <path fill="none" stroke-width="3.0" stroke-linecap="butt" stroke-opacity="1.0" stroke="rgb(0, 0, 0)" stroke-linejoin="round" d=" M 756.938, 701.630 756.938, 701.630 " />
            <path fill="none" stroke-width="3.0" stroke-linecap="butt" stroke-opacity="1.0" stroke="rgb(0, 0, 0)" stroke-linejoin="round" d=" M 282.864, 638.420 282.864, 638.420 282.864, 648.420 282.864, 658.420 282.864, 668.420 282.864, 678.420 282.864, 688.420 282.864, 698.420 282.864, 701.630 " />
            <path fill="none" stroke-width="3.0" stroke-linecap="butt" stroke-opacity="1.0" stroke="rgb(0, 0, 0)" stroke-linejoin="round" d=" M 282.864, 701.630 292.864, 701.630 302.864, 701.630 312.864, 701.630 322.864, 701.630 330.272, 701.630 340.272, 701.630 350.272, 701.630 360.272, 701.630 370.272, 701.630 380.272, 701.630 390.272, 701.630 400.272, 701.630 410.272, 701.630 420.272, 701.630 430.272, 701.630 440.272, 701.630 450.272, 701.630 460.272, 701.630 470.272, 701.630 480.272, 701.630 490.272, 701.630 500.272, 701.630 510.272, 701.630 520.272, 701.630 530.272, 701.630 540.272, 701.630 550.272, 701.630 560.272, 701.630 570.272, 701.630 580.272, 701.630 590.272, 701.630 600.272, 701.630 610.272, 701.630 620.272, 701.630 630.272, 701.630 640.272, 701.630 650.272, 701.630 660.272, 701.630 670.272, 701.630 680.272, 701.630 690.272, 701.630 700.272, 701.630 710.272, 701.630 720.272, 701.630 730.272, 701.630 740.272, 701.630 750.272, 701.630 756.938, 701.630 756.938, 691.630 756.938, 681.630 756.938, 671.630 756.938, 670.025 756.938, 670.025 " />
            <path fill="none" stroke-width="3.0" stroke-linecap="butt" stroke-opacity="1.0" stroke="rgb(0, 0, 0)" stroke-linejoin="round" d=" M 330.272, 512.000 330.272, 502.000 330.272, 492.000 330.272, 482.000 330.272, 472.000 330.272, 462.000 330.272, 452.000 330.272, 442.000 330.272, 432.000 330.272, 422.000 330.272, 412.000 330.272, 402.000 330.272, 392.000 330.272, 382.000 330.272, 372.000 330.272, 362.000 330.272, 352.000 330.272, 342.000 330.272, 332.000 330.272, 322.000 330.272, 312.000 330.272, 302.000 330.272, 292.000 330.272, 282.000 330.272, 274.963 330.272, 274.963 320.272, 274.963 310.272, 274.963 300.272, 274.963 290.272, 274.963 280.272, 274.963 270.272, 274.963 267.062, 274.963 267.062, 284.963 267.062, 294.963 267.062, 304.963 267.062, 314.963 267.062, 324.963 267.062, 334.963 267.062, 344.963 267.062, 354.963 267.062, 364.963 267.062, 374.963 267.062, 384.963 267.062, 394.963 267.062, 404.963 267.062, 414.963 267.062, 424.963 267.062, 434.963 267.062, 444.963 267.062, 454.963 267.062, 464.963 267.062, 474.963 267.062, 484.963 267.062, 494.963 267.062, 504.963 267.062, 514.963 267.062, 524.963 267.062, 534.963 267.062, 544.963 267.062, 554.963 267.062, 564.963 267.062, 574.963 267.062, 584.963 267.062, 594.963 267.062, 604.963 267.062, 614.963 267.062, 624.963 267.062, 634.963 267.062, 644.963 267.062, 654.963 267.062, 664.963 267.062, 674.963 267.062, 684.963 267.062, 694.963 267.062, 704.963 267.062, 714.963 267.062, 724.963 267.062, 734.963 267.062, 749.037 267.062, 749.037 277.062, 749.037 287.062, 749.037 297.062, 749.037 307.062, 749.037 317.062, 749.037 327.062, 749.037 330.272, 749.037 330.272, 739.037 330.272, 729.037 330.272, 719.037 330.272, 709.037 330.272, 701.630 330.272, 701.630 " />
            <path fill="none" stroke-width="3.0" stroke-linecap="butt" stroke-opacity="1.0" stroke="rgb(0, 0, 0)" stroke-linejoin="round" d=" M 330.272, 274.963 330.272, 284.963 330.272, 294.963 330.272, 304.963 330.272, 314.963 330.272, 324.963 330.272, 334.963 330.272, 344.963 330.272, 354.963 330.272, 364.963 330.272, 374.963 330.272, 384.963 330.272, 394.963 330.272, 404.963 330.272, 414.963 330.272, 424.963 330.272, 434.963 330.272, 444.963 330.272, 454.963 330.272, 464.963 330.272, 474.963 330.272, 484.963 330.272, 494.963 330.272, 504.963 330.272, 512.000 " />
            <path fill="none" stroke-width="3.0" stroke-linecap="butt" stroke-opacity="1.0" stroke="rgb(0, 0, 0)" stroke-linejoin="round" d=" M 330.272, 749.037 330.272, 749.037 " />
            <path fill="none" stroke-width="3.0" stroke-linecap="butt" stroke-opacity="1.0" stroke="rgb(0, 0, 0)" stroke-linejoin="round" d=" M 267.062, 749.037 277.062, 749.037 287.062, 749.037 297.062, 749.037 307.062, 749.037 317.062, 749.037 327.062, 749.037 330.272, 749.037 330.272, 739.037 330.272, 729.037 330.272, 719.037 330.272, 709.037 330.272, 701.630 330.272, 691.630 330.272, 681.630 330.272, 671.630 330.272, 670.025 330.272, 670.025 " />
            <path fill="none" stroke-width="3.0" stroke-linecap="butt" stroke-opacity="1.0" stroke="rgb(0, 0, 0)" stroke-linejoin="round" d=" M 756.938, 670.025 756.938, 660.025 756.938, 650.025 756.938, 640.025 756.938, 638.420 " />
            <path fill="none" stroke-width="3.0" stroke-linecap="butt" stroke-opacity="1.0" stroke="rgb(0, 0, 0)" stroke-linejoin="round" d=" M 282.864, 670.025 292.864, 670.025 302.864, 670.025 312.864, 670.025 322.864, 670.025 330.272, 670.025 330.272, 670.025 340.272, 670.025 350.272, 670.025 360.272, 670.025 370.272, 670.025 380.272, 670.025 390.272, 670.025 400.272, 670.025 410.272, 670.025 420.272, 670.025 430.272, 670.025 440.272, 670.025 450.272, 670.025 460.272, 670.025 470.272, 670.025 480.272, 670.025 490.272, 670.025 500.272, 670.025 510.272, 670.025 520.272, 670.025 530.272, 670.025 540.272, 670.025 550.272, 670.025 560.272, 670.025 570.272, 670.025 580.272, 670.025 590.272, 670.025 600.272, 670.025 610.272, 670.025 620.272, 670.025 630.272, 670.025 640.272, 670.025 650.272, 670.025 660.272, 670.025 670.272, 670.025 680.272, 670.025 690.272, 670.025 700.272, 670.025 710.272, 670.025 720.272, 670.025 730.272, 670.025 740.272, 670.025 750.272, 670.025 756.938, 670.025 756.938, 670.025 756.938, 660.025 756.938, 650.025 756.938, 640.025 756.938, 638.420 756.938, 638.420 756.938, 628.420 756.938, 618.420 756.938, 608.420 756.938, 598.420 756.938, 588.420 756.938, 578.420 756.938, 568.420 756.938, 558.420 756.938, 548.420 756.938, 538.420 756.938, 528.420 756.938, 518.420 756.938, 512.000 " />
            <path fill="none" stroke-width="3.0" stroke-linecap="butt" stroke-opacity="1.0" stroke="rgb(0, 0, 0)" stroke-linejoin="round" d=" M 282.864, 512.000 282.864, 522.000 282.864, 532.000 282.864, 542.000 282.864, 552.000 282.864, 562.000 282.864, 572.000 282.864, 582.000 282.864, 592.000 282.864, 602.000 282.864, 612.000 282.864, 622.000 282.864, 632.000 282.864, 638.420 282.864, 638.420 282.864, 648.420 282.864, 658.420 282.864, 668.420 282.864, 670.025 282.864, 670.025 " />
            <path fill="none" stroke-width="3.0" stroke-linecap="butt" stroke-opacity="1.0" stroke="rgb(0, 0, 0)" stroke-linejoin="round" d=" M 756.938, 512.000 756.938, 512.000 " />
            <path fill="none" stroke-width="3.0" stroke-linecap="butt" stroke-opacity="1.0" stroke="rgb(0, 0, 0)" stroke-linejoin="round" d=" M 756.938, 512.000 746.938, 512.000 736.938, 512.000 726.938, 512.000 716.938, 512.000 706.938, 512.000 696.938, 512.000 686.938, 512.000 676.938, 512.000 666.938, 512.000 656.938, 512.000 646.938, 512.000 636.938, 512.000 626.938, 512.000 616.938, 512.000 606.938, 512.000 596.938, 512.000 586.938, 512.000 576.938, 512.000 566.938, 512.000 556.938, 512.000 546.938, 512.000 536.938, 512.000 526.938, 512.000 516.938, 512.000 506.938, 512.000 496.938, 512.000 486.938, 512.000 476.938, 512.000 466.938, 512.000 456.938, 512.000 446.938, 512.000 436.938, 512.000 426.938, 512.000 416.938, 512.000 406.938, 512.000 396.938, 512.000 386.938, 512.000 376.938, 512.000 366.938, 512.000 356.938, 512.000 346.938, 512.000 336.938, 512.000 330.272, 512.000 330.272, 512.000 320.272, 512.000 310.272, 512.000 300.272, 512.000 290.272, 512.000 282.864, 512.000 " />
            <path fill="none" stroke-width="3.0" stroke-linecap="butt" stroke-opacity="1.0" stroke="rgb(0, 0, 0)" stroke-linejoin="round" d=" M 756.938, 670.025 756.938, 670.025 " />
            <path fill="none" stroke-width="3.0" stroke-linecap="butt" stroke-opacity="1.0" stroke="rgb(0, 0, 0)" stroke-linejoin="round" d=" M 756.938, 638.420 756.938, 638.420 " />
            <path fill="none" stroke-width="3.0" stroke-linecap="butt" stroke-opacity="1.0" stroke="rgb(0, 0, 0)" stroke-linejoin="round" d=" M 756.938, 638.420 756.938, 628.420 756.938, 618.420 756.938, 608.420 756.938, 598.420 756.938, 588.420 756.938, 578.420 756.938, 568.420 756.938, 558.420 756.938, 548.420 756.938, 538.420 756.938, 528.420 756.938, 518.420 756.938, 512.000 " />
            <path fill="none" stroke-width="3.0" stroke-linecap="butt" stroke-opacity="1.0" stroke="rgb(0, 0, 0)" stroke-linejoin="round" d=" M 756.938, 512.000 756.938, 512.000 " />
        </g>
    </g>
    <g id="ViewLayer_TechnicalLines.001" inkscape:groupmode="lineset" inkscape:label="ViewLayer_TechnicalLines.001">
        <g inkscape:groupmode="layer" id="strokes" inkscape:label="strokes">
            <path fill="none" stroke-width="1.5" stroke-linecap="round" stroke-opacity="1.0" stroke="rgb(0, 0, 0)" stroke-linejoin="round" d=" M 330.272, 701.630 330.272, 701.630 340.272, 701.630 350.272, 701.630 360.272, 701.630 370.272, 701.630 380.272, 701.630 390.272, 701.630 400.272, 701.630 410.272, 701.630 420.272, 701.630 430.272, 701.630 440.272, 701.630 450.272, 701.630 460.272, 701.630 470.272, 701.630 480.272, 701.630 490.272, 701.630 500.272, 701.630 510.272, 701.630 520.272, 701.630 530.272, 701.630 540.272, 701.630 550.272, 701.630 560.272, 701.630 570.272, 701.630 580.272, 701.630 590.272, 701.630 600.272, 701.630 610.272, 701.630 620.272, 701.630 630.272, 701.630 640.272, 701.630 650.272, 701.630 660.272, 701.630 670.272, 701.630 680.272, 701.630 690.272, 701.630 700.272, 701.630 710.272, 701.630 720.272, 701.630 730.272, 701.630 740.272, 701.630 750.272, 701.630 756.938, 701.630 756.938, 691.630 756.938, 681.630 756.938, 671.630 756.938, 670.025 " />
            <path fill="none" stroke-width="1.5" stroke-linecap="round" stroke-opacity="1.0" stroke="rgb(0, 0, 0)" stroke-linejoin="round" d=" M 756.938, 701.630 756.938, 701.630 " />
            <path fill="none" stroke-width="1.5" stroke-linecap="round" stroke-opacity="1.0" stroke="rgb(0, 0, 0)" stroke-linejoin="round" d=" M 282.864, 638.420 282.864, 638.420 282.864, 648.420 282.864, 658.420 282.864, 668.420 282.864, 678.420 282.864, 688.420 282.864, 698.420 282.864, 701.630 " />
            <path fill="none" stroke-width="1.5" stroke-linecap="round" stroke-opacity="1.0" stroke="rgb(0, 0, 0)" stroke-linejoin="round" d=" M 282.864, 701.630 292.864, 701.630 302.864, 701.630 312.864, 701.630 322.864, 701.630 330.272, 701.630 340.272, 701.630 350.272, 701.630 360.272, 701.630 370.272, 701.630 380.272, 701.630 390.272, 701.630 400.272, 701.630 410.272, 701.630 420.272, 701.630 430.272, 701.630 440.272, 701.630 450.272, 701.630 460.272, 701.630 470.272, 701.630 480.272, 701.630 490.272, 701.630 500.272, 701.630 510.272, 701.630 520.272, 701.630 530.272, 701.630 540.272, 701.630 550.272, 701.630 560.272, 701.630 570.272, 701.630 580.272, 701.630 590.272, 701.630 600.272, 701.630 610.272, 701.630 620.272, 701.630 630.272, 701.630 640.272, 701.630 650.272, 701.630 660.272, 701.630 670.272, 701.630 680.272, 701.630 690.272, 701.630 700.272, 701.630 710.272, 701.630 720.272, 701.630 730.272, 701.630 740.272, 701.630 750.272, 701.630 756.938, 701.630 756.938, 691.630 756.938, 681.630 756.938, 671.630 756.938, 670.025 756.938, 670.025 " />
            <path fill="none" stroke-width="1.5" stroke-linecap="round" stroke-opacity="1.0" stroke="rgb(0, 0, 0)" stroke-linejoin="round" d=" M 330.272, 512.000 330.272, 502.000 330.272, 492.000 330.272, 482.000 330.272, 472.000 330.272, 462.000 330.272, 452.000 330.272, 442.000 330.272, 432.000 330.272, 422.000 330.272, 412.000 330.272, 402.000 330.272, 392.000 330.272, 382.000 330.272, 372.000 330.272, 362.000 330.272, 352.000 330.272, 342.000 330.272, 332.000 330.272, 322.000 330.272, 312.000 330.272, 302.000 330.272, 292.000 330.272, 282.000 330.272, 274.963 330.272, 274.963 320.272, 274.963 310.272, 274.963 300.272, 274.963 290.272, 274.963 280.272, 274.963 270.272, 274.963 267.062, 274.963 267.062, 284.963 267.062, 294.963 267.062, 304.963 267.062, 314.963 267.062, 324.963 267.062, 334.963 267.062, 344.963 267.062, 354.963 267.062, 364.963 267.062, 374.963 267.062, 384.963 267.062, 394.963 267.062, 404.963 267.062, 414.963 267.062, 424.963 267.062, 434.963 267.062, 444.963 267.062, 454.963 267.062, 464.963 267.062, 474.963 267.062, 484.963 267.062, 494.963 267.062, 504.963 267.062, 514.963 267.062, 524.963 267.062, 534.963 267.062, 544.963 267.062, 554.963 267.062, 564.963 267.062, 574.963 267.062, 584.963 267.062, 594.963 267.062, 604.963 267.062, 614.963 267.062, 624.963 267.062, 634.963 267.062, 644.963 267.062, 654.963 267.062, 664.963 267.062, 674.963 267.062, 684.963 267.062, 694.963 267.062, 704.963 267.062, 714.963 267.062, 724.963 267.062, 734.963 267.062, 749.037 267.062, 749.037 277.062, 749.037 287.062, 749.037 297.062, 749.037 307.062, 749.037 317.062, 749.037 327.062, 749.037 330.272, 749.037 330.272, 739.037 330.272, 729.037 330.272, 719.037 330.272, 709.037 330.272, 701.630 330.272, 701.630 " />
            <path fill="none" stroke-width="1.5" stroke-linecap="round" stroke-opacity="1.0" stroke="rgb(0, 0, 0)" stroke-linejoin="round" d=" M 330.272, 274.963 330.272, 284.963 330.272, 294.963 330.272, 304.963 330.272, 314.963 330.272, 324.963 330.272, 334.963 330.272, 344.963 330.272, 354.963 330.272, 364.963 330.272, 374.963 330.272, 384.963 330.272, 394.963 330.272, 404.963 330.272, 414.963 330.272, 424.963 330.272, 434.963 330.272, 444.963 330.272, 454.963 330.272, 464.963 330.272, 474.963 330.272, 484.963 330.272, 494.963 330.272, 504.963 330.272, 512.000 " />
            <path fill="none" stroke-width="1.5" stroke-linecap="round" stroke-opacity="1.0" stroke="rgb(0, 0, 0)" stroke-linejoin="round" d=" M 330.272, 749.037 330.272, 749.037 " />
            <path fill="none" stroke-width="1.5" stroke-linecap="round" stroke-opacity="1.0" stroke="rgb(0, 0, 0)" stroke-linejoin="round" d=" M 267.062, 749.037 277.062, 749.037 287.062, 749.037 297.062, 749.037 307.062, 749.037 317.062, 749.037 327.062, 749.037 330.272, 749.037 330.272, 739.037 330.272, 729.037 330.272, 719.037 330.272, 709.037 330.272, 701.630 330.272, 691.630 330.272, 681.630 330.272, 671.630 330.272, 670.025 330.272, 670.025 " />
            <path fill="none" stroke-width="1.5" stroke-linecap="round" stroke-opacity="1.0" stroke="rgb(0, 0, 0)" stroke-linejoin="round" d=" M 756.938, 670.025 756.938, 660.025 756.938, 650.025 756.938, 640.025 756.938, 638.420 " />
            <path fill="none" stroke-width="1.5" stroke-linecap="round" stroke-opacity="1.0" stroke="rgb(0, 0, 0)" stroke-linejoin="round" d=" M 282.864, 670.025 292.864, 670.025 302.864, 670.025 312.864, 670.025 322.864, 670.025 330.272, 670.025 330.272, 670.025 340.272, 670.025 350.272, 670.025 360.272, 670.025 370.272, 670.025 380.272, 670.025 390.272, 670.025 400.272, 670.025 410.272, 670.025 420.272, 670.025 430.272, 670.025 440.272, 670.025 450.272, 670.025 460.272, 670.025 470.272, 670.025 480.272, 670.025 490.272, 670.025 500.272, 670.025 510.272, 670.025 520.272, 670.025 530.272, 670.025 540.272, 670.025 550.272, 670.025 560.272, 670.025 570.272, 670.025 580.272, 670.025 590.272, 670.025 600.272, 670.025 610.272, 670.025 620.272, 670.025 630.272, 670.025 640.272, 670.025 650.272, 670.025 660.272, 670.025 670.272, 670.025 680.272, 670.025 690.272, 670.025 700.272, 670.025 710.272, 670.025 720.272, 670.025 730.272, 670.025 740.272, 670.025 750.272, 670.025 756.938, 670.025 756.938, 670.025 756.938, 660.025 756.938, 650.025 756.938, 640.025 756.938, 638.420 756.938, 638.420 756.938, 628.420 756.938, 618.420 756.938, 608.420 756.938, 598.420 756.938, 588.420 756.938, 578.420 756.938, 568.420 756.938, 558.420 756.938, 548.420 756.938, 538.420 756.938, 528.420 756.938, 518.420 756.938, 512.000 " />
            <path fill="none" stroke-width="1.5" stroke-linecap="round" stroke-opacity="1.0" stroke="rgb(0, 0, 0)" stroke-linejoin="round" d=" M 282.864, 512.000 282.864, 522.000 282.864, 532.000 282.864, 542.000 282.864, 552.000 282.864, 562.000 282.864, 572.000 282.864, 582.000 282.864, 592.000 282.864, 602.000 282.864, 612.000 282.864, 622.000 282.864, 632.000 282.864, 638.420 282.864, 638.420 282.864, 648.420 282.864, 658.420 282.864, 668.420 282.864, 670.025 282.864, 670.025 " />
            <path fill="none" stroke-width="1.5" stroke-linecap="round" stroke-opacity="1.0" stroke="rgb(0, 0, 0)" stroke-linejoin="round" d=" M 756.938, 512.000 756.938, 512.000 " />
            <path fill="none" stroke-width="1.5" stroke-linecap="round" stroke-opacity="1.0" stroke="rgb(0, 0, 0)" stroke-linejoin="round" d=" M 756.938, 512.000 746.938, 512.000 736.938, 512.000 726.938, 512.000 716.938, 512.000 706.938, 512.000 696.938, 512.000 686.938, 512.000 676.938, 512.000 666.938, 512.000 656.938, 512.000 646.938, 512.000 636.938, 512.000 626.938, 512.000 616.938, 512.000 606.938, 512.000 596.938, 512.000 586.938, 512.000 576.938, 512.000 566.938, 512.000 556.938, 512.000 546.938, 512.000 536.938, 512.000 526.938, 512.000 516.938, 512.000 506.938, 512.000 496.938, 512.000 486.938, 512.000 476.938, 512.000 466.938, 512.000 456.938, 512.000 446.938, 512.000 436.938, 512.000 426.938, 512.000 416.938, 512.000 406.938, 512.000 396.938, 512.000 386.938, 512.000 376.938, 512.000 366.938, 512.000 356.938, 512.000 346.938, 512.000 336.938, 512.000 330.272, 512.000 330.272, 512.000 320.272, 512.000 310.272, 512.000 300.272, 512.000 290.272, 512.000 282.864, 512.000 " />
            <path fill="none" stroke-width="1.5" stroke-linecap="round" stroke-opacity="1.0" stroke="rgb(0, 0, 0)" stroke-linejoin="round" d=" M 756.938, 670.025 756.938, 670.025 " />
            <path fill="none" stroke-width="1.5" stroke-linecap="round" stroke-opacity="1.0" stroke="rgb(0, 0, 0)" stroke-linejoin="round" d=" M 756.938, 638.420 756.938, 638.420 " />
            <path fill="none" stroke-width="1.5" stroke-linecap="round" stroke-opacity="1.0" stroke="rgb(0, 0, 0)" stroke-linejoin="round" d=" M 756.938, 638.420 756.938, 628.420 756.938, 618.420 756.938, 608.420 756.938, 598.420 756.938, 588.420 756.938, 578.420 756.938, 568.420 756.938, 558.420 756.938, 548.420 756.938, 538.420 756.938, 528.420 756.938, 518.420 756.938, 512.000 " />
            <path fill="none" stroke-width="1.5" stroke-linecap="round" stroke-opacity="1.0" stroke="rgb(0, 0, 0)" stroke-linejoin="round" d=" M 756.938, 512.000 756.938, 512.000 " />
        </g>
    </g>
    <g id="ViewLayer_TechnicalLines.002" inkscape:groupmode="lineset" inkscape:label="ViewLayer_TechnicalLines.002">
        <g inkscape:groupmode="layer" id="strokes" inkscape:label="strokes">
            <path fill="none" stroke-width="1.5" stroke-linecap="round" stroke-opacity="1.0" stroke="rgb(0, 0, 0)" stroke-linejoin="round" d=" M 330.272, 701.630 330.272, 701.630 340.272, 701.630 350.272, 701.630 360.272, 701.630 370.272, 701.630 380.272, 701.630 390.272, 701.630 400.272, 701.630 410.272, 701.630 420.272, 701.630 430.272, 701.630 440.272, 701.630 450.272, 701.630 460.272, 701.630 470.272, 701.630 480.272, 701.630 490.272, 701.630 500.272, 701.630 510.272, 701.630 520.272, 701.630 530.272, 701.630 540.272, 701.630 550.272, 701.630 560.272, 701.630 570.272, 701.630 580.272, 701.630 590.272, 701.630 600.272, 701.630 610.272, 701.630 620.272, 701.630 630.272, 701.630 640.272, 701.630 650.272, 701.630 660.272, 701.630 670.272, 701.630 680.272, 701.630 690.272, 701.630 700.272, 701.630 710.272, 701.630 720.272, 701.630 730.272, 701.630 740.272, 701.630 750.272, 701.630 756.938, 701.630 756.938, 691.630 756.938, 681.630 756.938, 671.630 756.938, 670.025 " />
            <path fill="none" stroke-width="1.5" stroke-linecap="round" stroke-opacity="1.0" stroke="rgb(0, 0, 0)" stroke-linejoin="round" d=" M 756.938, 701.630 756.938, 701.630 " />
            <path fill="none" stroke-width="1.5" stroke-linecap="round" stroke-opacity="1.0" stroke="rgb(0, 0, 0)" stroke-linejoin="round" d=" M 282.864, 638.420 282.864, 638.420 282.864, 648.420 282.864, 658.420 282.864, 668.420 282.864, 678.420 282.864, 688.420 282.864, 698.420 282.864, 701.630 " />
            <path fill="none" stroke-width="1.5" stroke-linecap="round" stroke-opacity="1.0" stroke="rgb(0, 0, 0)" stroke-linejoin="round" d=" M 282.864, 701.630 292.864, 701.630 302.864, 701.630 312.864, 701.630 322.864, 701.630 330.272, 701.630 340.272, 701.630 350.272, 701.630 360.272, 701.630 370.272, 701.630 380.272, 701.630 390.272, 701.630 400.272, 701.630 410.272, 701.630 420.272, 701.630 430.272, 701.630 440.272, 701.630 450.272, 701.630 460.272, 701.630 470.272, 701.630 480.272, 701.630 490.272, 701.630 500.272, 701.630 510.272, 701.630 520.272, 701.630 530.272, 701.630 540.272, 701.630 550.272, 701.630 560.272, 701.630 570.272, 701.630 580.272, 701.630 590.272, 701.630 600.272, 701.630 610.272, 701.630 620.272, 701.630 630.272, 701.630 640.272, 701.630 650.272, 701.630 660.272, 701.630 670.272, 701.630 680.272, 701.630 690.272, 701.630 700.272, 701.630 710.272, 701.630 720.272, 701.630 730.272, 701.630 740.272, 701.630 750.272, 701.630 756.938, 701.630 756.938, 691.630 756.938, 681.630 756.938, 671.630 756.938, 670.025 756.938, 670.025 " />
            <path fill="none" stroke-width="1.5" stroke-linecap="round" stroke-opacity="1.0" stroke="rgb(0, 0, 0)" stroke-linejoin="round" d=" M 330.272, 512.000 330.272, 502.000 330.272, 492.000 330.272, 482.000 330.272, 472.000 330.272, 462.000 330.272, 452.000 330.272, 442.000 330.272, 432.000 330.272, 422.000 330.272, 412.000 330.272, 402.000 330.272, 392.000 330.272, 382.000 330.272, 372.000 330.272, 362.000 330.272, 352.000 330.272, 342.000 330.272, 332.000 330.272, 322.000 330.272, 312.000 330.272, 302.000 330.272, 292.000 330.272, 282.000 330.272, 274.963 330.272, 274.963 320.272, 274.963 310.272, 274.963 300.272, 274.963 290.272, 274.963 280.272, 274.963 270.272, 274.963 267.062, 274.963 267.062, 284.963 267.062, 294.963 267.062, 304.963 267.062, 314.963 267.062, 324.963 267.062, 334.963 267.062, 344.963 267.062, 354.963 267.062, 364.963 267.062, 374.963 267.062, 384.963 267.062, 394.963 267.062, 404.963 267.062, 414.963 267.062, 424.963 267.062, 434.963 267.062, 444.963 267.062, 454.963 267.062, 464.963 267.062, 474.963 267.062, 484.963 267.062, 494.963 267.062, 504.963 267.062, 514.963 267.062, 524.963 267.062, 534.963 267.062, 544.963 267.062, 554.963 267.062, 564.963 267.062, 574.963 267.062, 584.963 267.062, 594.963 267.062, 604.963 267.062, 614.963 267.062, 624.963 267.062, 634.963 267.062, 644.963 267.062, 654.963 267.062, 664.963 267.062, 674.963 267.062, 684.963 267.062, 694.963 267.062, 704.963 267.062, 714.963 267.062, 724.963 267.062, 734.963 267.062, 749.037 267.062, 749.037 277.062, 749.037 287.062, 749.037 297.062, 749.037 307.062, 749.037 317.062, 749.037 327.062, 749.037 330.272, 749.037 330.272, 739.037 330.272, 729.037 330.272, 719.037 330.272, 709.037 330.272, 701.630 330.272, 701.630 " />
            <path fill="none" stroke-width="1.5" stroke-linecap="round" stroke-opacity="1.0" stroke="rgb(0, 0, 0)" stroke-linejoin="round" d=" M 330.272, 274.963 330.272, 284.963 330.272, 294.963 330.272, 304.963 330.272, 314.963 330.272, 324.963 330.272, 334.963 330.272, 344.963 330.272, 354.963 330.272, 364.963 330.272, 374.963 330.272, 384.963 330.272, 394.963 330.272, 404.963 330.272, 414.963 330.272, 424.963 330.272, 434.963 330.272, 444.963 330.272, 454.963 330.272, 464.963 330.272, 474.963 330.272, 484.963 330.272, 494.963 330.272, 504.963 330.272, 512.000 " />
            <path fill="none" stroke-width="1.5" stroke-linecap="round" stroke-opacity="1.0" stroke="rgb(0, 0, 0)" stroke-linejoin="round" d=" M 330.272, 749.037 330.272, 749.037 " />
            <path fill="none" stroke-width="1.5" stroke-linecap="round" stroke-opacity="1.0" stroke="rgb(0, 0, 0)" stroke-linejoin="round" d=" M 267.062, 749.037 277.062, 749.037 287.062, 749.037 297.062, 749.037 307.062, 749.037 317.062, 749.037 327.062, 749.037 330.272, 749.037 330.272, 739.037 330.272, 729.037 330.272, 719.037 330.272, 709.037 330.272, 701.630 330.272, 691.630 330.272, 681.630 330.272, 671.630 330.272, 670.025 330.272, 670.025 " />
            <path fill="none" stroke-width="1.5" stroke-linecap="round" stroke-opacity="1.0" stroke="rgb(0, 0, 0)" stroke-linejoin="round" d=" M 756.938, 670.025 756.938, 660.025 756.938, 650.025 756.938, 640.025 756.938, 638.420 " />
            <path fill="none" stroke-width="1.5" stroke-linecap="round" stroke-opacity="1.0" stroke="rgb(0, 0, 0)" stroke-linejoin="round" d=" M 282.864, 670.025 292.864, 670.025 302.864, 670.025 312.864, 670.025 322.864, 670.025 330.272, 670.025 330.272, 670.025 340.272, 670.025 350.272, 670.025 360.272, 670.025 370.272, 670.025 380.272, 670.025 390.272, 670.025 400.272, 670.025 410.272, 670.025 420.272, 670.025 430.272, 670.025 440.272, 670.025 450.272, 670.025 460.272, 670.025 470.272, 670.025 480.272, 670.025 490.272, 670.025 500.272, 670.025 510.272, 670.025 520.272, 670.025 530.272, 670.025 540.272, 670.025 550.272, 670.025 560.272, 670.025 570.272, 670.025 580.272, 670.025 590.272, 670.025 600.272, 670.025 610.272, 670.025 620.272, 670.025 630.272, 670.025 640.272, 670.025 650.272, 670.025 660.272, 670.025 670.272, 670.025 680.272, 670.025 690.272, 670.025 700.272, 670.025 710.272, 670.025 720.272, 670.025 730.272, 670.025 740.272, 670.025 750.272, 670.025 756.938, 670.025 756.938, 670.025 756.938, 660.025 756.938, 650.025 756.938, 640.025 756.938, 638.420 756.938, 638.420 756.938, 628.420 756.938, 618.420 756.938, 608.420 756.938, 598.420 756.938, 588.420 756.938, 578.420 756.938, 568.420 756.938, 558.420 756.938, 548.420 756.938, 538.420 756.938, 528.420 756.938, 518.420 756.938, 512.000 " />
            <path fill="none" stroke-width="1.5" stroke-linecap="round" stroke-opacity="1.0" stroke="rgb(0, 0, 0)" stroke-linejoin="round" d=" M 282.864, 512.000 282.864, 522.000 282.864, 532.000 282.864, 542.000 282.864, 552.000 282.864, 562.000 282.864, 572.000 282.864, 582.000 282.864, 592.000 282.864, 602.000 282.864, 612.000 282.864, 622.000 282.864, 632.000 282.864, 638.420 282.864, 638.420 282.864, 648.420 282.864, 658.420 282.864, 668.420 282.864, 670.025 282.864, 670.025 " />
            <path fill="none" stroke-width="1.5" stroke-linecap="round" stroke-opacity="1.0" stroke="rgb(0, 0, 0)" stroke-linejoin="round" d=" M 756.938, 512.000 756.938, 512.000 " />
            <path fill="none" stroke-width="1.5" stroke-linecap="round" stroke-opacity="1.0" stroke="rgb(0, 0, 0)" stroke-linejoin="round" d=" M 756.938, 512.000 746.938, 512.000 736.938, 512.000 726.938, 512.000 716.938, 512.000 706.938, 512.000 696.938, 512.000 686.938, 512.000 676.938, 512.000 666.938, 512.000 656.938, 512.000 646.938, 512.000 636.938, 512.000 626.938, 512.000 616.938, 512.000 606.938, 512.000 596.938, 512.000 586.938, 512.000 576.938, 512.000 566.938, 512.000 556.938, 512.000 546.938, 512.000 536.938, 512.000 526.938, 512.000 516.938, 512.000 506.938, 512.000 496.938, 512.000 486.938, 512.000 476.938, 512.000 466.938, 512.000 456.938, 512.000 446.938, 512.000 436.938, 512.000 426.938, 512.000 416.938, 512.000 406.938, 512.000 396.938, 512.000 386.938, 512.000 376.938, 512.000 366.938, 512.000 356.938, 512.000 346.938, 512.000 336.938, 512.000 330.272, 512.000 330.272, 512.000 320.272, 512.000 310.272, 512.000 300.272, 512.000 290.272, 512.000 282.864, 512.000 " />
            <path fill="none" stroke-width="1.5" stroke-linecap="round" stroke-opacity="1.0" stroke="rgb(0, 0, 0)" stroke-linejoin="round" d=" M 756.938, 670.025 756.938, 670.025 " />
            <path fill="none" stroke-width="1.5" stroke-linecap="round" stroke-opacity="1.0" stroke="rgb(0, 0, 0)" stroke-linejoin="round" d=" M 756.938, 638.420 756.938, 638.420 " />
            <path fill="none" stroke-width="1.5" stroke-linecap="round" stroke-opacity="1.0" stroke="rgb(0, 0, 0)" stroke-linejoin="round" d=" M 756.938, 638.420 756.938, 628.420 756.938, 618.420 756.938, 608.420 756.938, 598.420 756.938, 588.420 756.938, 578.420 756.938, 568.420 756.938, 558.420 756.938, 548.420 756.938, 538.420 756.938, 528.420 756.938, 518.420 756.938, 512.000 " />
            <path fill="none" stroke-width="1.5" stroke-linecap="round" stroke-opacity="1.0" stroke="rgb(0, 0, 0)" stroke-linejoin="round" d=" M 756.938, 512.000 756.938, 512.000 " />
        </g>
    </g>
    <g id="ViewLayer_TechnicalLines.003" inkscape:groupmode="lineset" inkscape:label="ViewLayer_TechnicalLines.003">
        <g inkscape:groupmode="layer" id="strokes" inkscape:label="strokes">
            <path fill="none" stroke-width="1.5" stroke-linecap="round" stroke-opacity="1.0" stroke="rgb(0, 0, 0)" stroke-linejoin="round" d=" M 330.272, 701.630 330.272, 701.630 340.272, 701.630 350.272, 701.630 360.272, 701.630 370.272, 701.630 380.272, 701.630 390.272, 701.630 400.272, 701.630 410.272, 701.630 420.272, 701.630 430.272, 701.630 440.272, 701.630 450.272, 701.630 460.272, 701.630 470.272, 701.630 480.272, 701.630 490.272, 701.630 500.272, 701.630 510.272, 701.630 520.272, 701.630 530.272, 701.630 540.272, 701.630 550.272, 701.630 560.272, 701.630 570.272, 701.630 580.272, 701.630 590.272, 701.630 600.272, 701.630 610.272, 701.630 620.272, 701.630 630.272, 701.630 640.272, 701.630 650.272, 701.630 660.272, 701.630 670.272, 701.630 680.272, 701.630 690.272, 701.630 700.272, 701.630 710.272, 701.630 720.272, 701.630 730.272, 701.630 740.272, 701.630 750.272, 701.630 756.938, 701.630 756.938, 691.630 756.938, 681.630 756.938, 671.630 756.938, 670.025 " />
            <path fill="none" stroke-width="1.5" stroke-linecap="round" stroke-opacity="1.0" stroke="rgb(0, 0, 0)" stroke-linejoin="round" d=" M 756.938, 701.630 756.938, 701.630 " />
            <path fill="none" stroke-width="1.5" stroke-linecap="round" stroke-opacity="1.0" stroke="rgb(0, 0, 0)" stroke-linejoin="round" d=" M 282.864, 638.420 282.864, 638.420 282.864, 648.420 282.864, 658.420 282.864, 668.420 282.864, 678.420 282.864, 688.420 282.864, 698.420 282.864, 701.630 " />
            <path fill="none" stroke-width="1.5" stroke-linecap="round" stroke-opacity="1.0" stroke="rgb(0, 0, 0)" stroke-linejoin="round" d=" M 282.864, 701.630 292.864, 701.630 302.864, 701.630 312.864, 701.630 322.864, 701.630 330.272, 701.630 340.272, 701.630 350.272, 701.630 360.272, 701.630 370.272, 701.630 380.272, 701.630 390.272, 701.630 400.272, 701.630 410.272, 701.630 420.272, 701.630 430.272, 701.630 440.272, 701.630 450.272, 701.630 460.272, 701.630 470.272, 701.630 480.272, 701.630 490.272, 701.630 500.272, 701.630 510.272, 701.630 520.272, 701.630 530.272, 701.630 540.272, 701.630 550.272, 701.630 560.272, 701.630 570.272, 701.630 580.272, 701.630 590.272, 701.630 600.272, 701.630 610.272, 701.630 620.272, 701.630 630.272, 701.630 640.272, 701.630 650.272, 701.630 660.272, 701.630 670.272, 701.630 680.272, 701.630 690.272, 701.630 700.272, 701.630 710.272, 701.630 720.272, 701.630 730.272, 701.630 740.272, 701.630 750.272, 701.630 756.938, 701.630 756.938, 691.630 756.938, 681.630 756.938, 671.630 756.938, 670.025 756.938, 670.025 " />
            <path fill="none" stroke-width="1.5" stroke-linecap="round" stroke-opacity="1.0" stroke="rgb(0, 0, 0)" stroke-linejoin="round" d=" M 330.272, 512.000 330.272, 502.000 330.272, 492.000 330.272, 482.000 330.272, 472.000 330.272, 462.000 330.272, 452.000 330.272, 442.000 330.272, 432.000 330.272, 422.000 330.272, 412.000 330.272, 402.000 330.272, 392.000 330.272, 382.000 330.272, 372.000 330.272, 362.000 330.272, 352.000 330.272, 342.000 330.272, 332.000 330.272, 322.000 330.272, 312.000 330.272, 302.000 330.272, 292.000 330.272, 282.000 330.272, 274.963 330.272, 274.963 320.272, 274.963 310.272, 274.963 300.272, 274.963 290.272, 274.963 280.272, 274.963 270.272, 274.963 267.062, 274.963 267.062, 284.963 267.062, 294.963 267.062, 304.963 267.062, 314.963 267.062, 324.963 267.062, 334.963 267.062, 344.963 267.062, 354.963 267.062, 364.963 267.062, 374.963 267.062, 384.963 267.062, 394.963 267.062, 404.963 267.062, 414.963 267.062, 424.963 267.062, 434.963 267.062, 444.963 267.062, 454.963 267.062, 464.963 267.062, 474.963 267.062, 484.963 267.062, 494.963 267.062, 504.963 267.062, 514.963 267.062, 524.963 267.062, 534.963 267.062, 544.963 267.062, 554.963 267.062, 564.963 267.062, 574.963 267.062, 584.963 267.062, 594.963 267.062, 604.963 267.062, 614.963 267.062, 624.963 267.062, 634.963 267.062, 644.963 267.062, 654.963 267.062, 664.963 267.062, 674.963 267.062, 684.963 267.062, 694.963 267.062, 704.963 267.062, 714.963 267.062, 724.963 267.062, 734.963 267.062, 749.037 267.062, 749.037 277.062, 749.037 287.062, 749.037 297.062, 749.037 307.062, 749.037 317.062, 749.037 327.062, 749.037 330.272, 749.037 330.272, 739.037 330.272, 729.037 330.272, 719.037 330.272, 709.037 330.272, 701.630 330.272, 701.630 " />
            <path fill="none" stroke-width="1.5" stroke-linecap="round" stroke-opacity="1.0" stroke="rgb(0, 0, 0)" stroke-linejoin="round" d=" M 330.272, 274.963 330.272, 284.963 330.272, 294.963 330.272, 304.963 330.272, 314.963 330.272, 324.963 330.272, 334.963 330.272, 344.963 330.272, 354.963 330.272, 364.963 330.272, 374.963 330.272, 384.963 330.272, 394.963 330.272, 404.963 330.272, 414.963 330.272, 424.963 330.272, 434.963 330.272, 444.963 330.272, 454.963 330.272, 464.963 330.272, 474.963 330.272, 484.963 330.272, 494.963 330.272, 504.963 330.272, 512.000 " />
            <path fill="none" stroke-width="1.5" stroke-linecap="round" stroke-opacity="1.0" stroke="rgb(0, 0, 0)" stroke-linejoin="round" d=" M 330.272, 749.037 330.272, 749.037 " />
            <path fill="none" stroke-width="1.5" stroke-linecap="round" stroke-opacity="1.0" stroke="rgb(0, 0, 0)" stroke-linejoin="round" d=" M 267.062, 749.037 277.062, 749.037 287.062, 749.037 297.062, 749.037 307.062, 749.037 317.062, 749.037 327.062, 749.037 330.272, 749.037 330.272, 739.037 330.272, 729.037 330.272, 719.037 330.272, 709.037 330.272, 701.630 330.272, 691.630 330.272, 681.630 330.272, 671.630 330.272, 670.025 330.272, 670.025 " />
            <path fill="none" stroke-width="1.5" stroke-linecap="round" stroke-opacity="1.0" stroke="rgb(0, 0, 0)" stroke-linejoin="round" d=" M 756.938, 670.025 756.938, 660.025 756.938, 650.025 756.938, 640.025 756.938, 638.420 " />
            <path fill="none" stroke-width="1.5" stroke-linecap="round" stroke-opacity="1.0" stroke="rgb(0, 0, 0)" stroke-linejoin="round" d=" M 282.864, 670.025 292.864, 670.025 302.864, 670.025 312.864, 670.025 322.864, 670.025 330.272, 670.025 330.272, 670.025 340.272, 670.025 350.272, 670.025 360.272, 670.025 370.272, 670.025 380.272, 670.025 390.272, 670.025 400.272, 670.025 410.272, 670.025 420.272, 670.025 430.272, 670.025 440.272, 670.025 450.272, 670.025 460.272, 670.025 470.272, 670.025 480.272, 670.025 490.272, 670.025 500.272, 670.025 510.272, 670.025 520.272, 670.025 530.272, 670.025 540.272, 670.025 550.272, 670.025 560.272, 670.025 570.272, 670.025 580.272, 670.025 590.272, 670.025 600.272, 670.025 610.272, 670.025 620.272, 670.025 630.272, 670.025 640.272, 670.025 650.272, 670.025 660.272, 670.025 670.272, 670.025 680.272, 670.025 690.272, 670.025 700.272, 670.025 710.272, 670.025 720.272, 670.025 730.272, 670.025 740.272, 670.025 750.272, 670.025 756.938, 670.025 756.938, 670.025 756.938, 660.025 756.938, 650.025 756.938, 640.025 756.938, 638.420 756.938, 638.420 756.938, 628.420 756.938, 618.420 756.938, 608.420 756.938, 598.420 756.938, 588.420 756.938, 578.420 756.938, 568.420 756.938, 558.420 756.938, 548.420 756.938, 538.420 756.938, 528.420 756.938, 518.420 756.938, 512.000 " />
            <path fill="none" stroke-width="1.5" stroke-linecap="round" stroke-opacity="1.0" stroke="rgb(0, 0, 0)" stroke-linejoin="round" d=" M 282.864, 512.000 282.864, 522.000 282.864, 532.000 282.864, 542.000 282.864, 552.000 282.864, 562.000 282.864, 572.000 282.864, 582.000 282.864, 592.000 282.864, 602.000 282.864, 612.000 282.864, 622.000 282.864, 632.000 282.864, 638.420 282.864, 638.420 282.864, 648.420 282.864, 658.420 282.864, 668.420 282.864, 670.025 282.864, 670.025 " />
            <path fill="none" stroke-width="1.5" stroke-linecap="round" stroke-opacity="1.0" stroke="rgb(0, 0, 0)" stroke-linejoin="round" d=" M 756.938, 512.000 756.938, 512.000 " />
            <path fill="none" stroke-width="1.5" stroke-linecap="round" stroke-opacity="1.0" stroke="rgb(0, 0, 0)" stroke-linejoin="round" d=" M 756.938, 512.000 746.938, 512.000 736.938, 512.000 726.938, 512.000 716.938, 512.000 706.938, 512.000 696.938, 512.000 686.938, 512.000 676.938, 512.000 666.938, 512.000 656.938, 512.000 646.938, 512.000 636.938, 512.000 626.938, 512.000 616.938, 512.000 606.938, 512.000 596.938, 512.000 586.938, 512.000 576.938, 512.000 566.938, 512.000 556.938, 512.000 546.938, 512.000 536.938, 512.000 526.938, 512.000 516.938, 512.000 506.938, 512.000 496.938, 512.000 486.938, 512.000 476.938, 512.000 466.938, 512.000 456.938, 512.000 446.938, 512.000 436.938, 512.000 426.938, 512.000 416.938, 512.000 406.938, 512.000 396.938, 512.000 386.938, 512.000 376.938, 512.000 366.938, 512.000 356.938, 512.000 346.938, 512.000 336.938, 512.000 330.272, 512.000 330.272, 512.000 320.272, 512.000 310.272, 512.000 300.272, 512.000 290.272, 512.000 282.864, 512.000 " />
            <path fill="none" stroke-width="1.5" stroke-linecap="round" stroke-opacity="1.0" stroke="rgb(0, 0, 0)" stroke-linejoin="round" d=" M 756.938, 670.025 756.938, 670.025 " />
            <path fill="none" stroke-width="1.5" stroke-linecap="round" stroke-opacity="1.0" stroke="rgb(0, 0, 0)" stroke-linejoin="round" d=" M 756.938, 638.420 756.938, 638.420 " />
            <path fill="none" stroke-width="1.5" stroke-linecap="round" stroke-opacity="1.0" stroke="rgb(0, 0, 0)" stroke-linejoin="round" d=" M 756.938, 638.420 756.938, 628.420 756.938, 618.420 756.938, 608.420 756.938, 598.420 756.938, 588.420 756.938, 578.420 756.938, 568.420 756.938, 558.420 756.938, 548.420 756.938, 538.420 756.938, 528.420 756.938, 518.420 756.938, 512.000 " />
            <path fill="none" stroke-width="1.5" stroke-linecap="round" stroke-opacity="1.0" stroke="rgb(0, 0, 0)" stroke-linejoin="round" d=" M 756.938, 512.000 756.938, 512.000 " />
        </g>
    </g>
    <g id="ViewLayer_TechnicalLines.004" xmlns:inkscape="http://www.inkscape.org/namespaces/inkscape" inkscape:groupmode="lineset" inkscape:label="ViewLayer_TechnicalLines.004">
        <g xmlns:inkscape="http://www.inkscape.org/namespaces/inkscape" inkscape:groupmode="layer" id="strokes" inkscape:label="strokes">
            <path fill="none" stroke-width="1.5" stroke-linecap="round" stroke-opacity="1.0" stroke="rgb(0, 0, 0)" stroke-linejoin="round" d=" M 330.272, 701.630 330.272, 701.630 340.272, 701.630 350.272, 701.630 360.272, 701.630 370.272, 701.630 380.272, 701.630 390.272, 701.630 400.272, 701.630 410.272, 701.630 420.272, 701.630 430.272, 701.630 440.272, 701.630 450.272, 701.630 460.272, 701.630 470.272, 701.630 480.272, 701.630 490.272, 701.630 500.272, 701.630 510.272, 701.630 520.272, 701.630 530.272, 701.630 540.272, 701.630 550.272, 701.630 560.272, 701.630 570.272, 701.630 580.272, 701.630 590.272, 701.630 600.272, 701.630 610.272, 701.630 620.272, 701.630 630.272, 701.630 640.272, 701.630 650.272, 701.630 660.272, 701.630 670.272, 701.630 680.272, 701.630 690.272, 701.630 700.272, 701.630 710.272, 701.630 720.272, 701.630 730.272, 701.630 740.272, 701.630 750.272, 701.630 756.938, 701.630 756.938, 691.630 756.938, 681.630 756.938, 671.630 756.938, 670.025 " />
            <path fill="none" stroke-width="1.5" stroke-linecap="round" stroke-opacity="1.0" stroke="rgb(0, 0, 0)" stroke-linejoin="round" d=" M 756.938, 701.630 756.938, 701.630 " />
            <path fill="none" stroke-width="1.5" stroke-linecap="round" stroke-opacity="1.0" stroke="rgb(0, 0, 0)" stroke-linejoin="round" d=" M 282.864, 638.420 282.864, 638.420 282.864, 648.420 282.864, 658.420 282.864, 668.420 282.864, 678.420 282.864, 688.420 282.864, 698.420 282.864, 701.630 " />
            <path fill="none" stroke-width="1.5" stroke-linecap="round" stroke-opacity="1.0" stroke="rgb(0, 0, 0)" stroke-linejoin="round" d=" M 282.864, 701.630 292.864, 701.630 302.864, 701.630 312.864, 701.630 322.864, 701.630 330.272, 701.630 340.272, 701.630 350.272, 701.630 360.272, 701.630 370.272, 701.630 380.272, 701.630 390.272, 701.630 400.272, 701.630 410.272, 701.630 420.272, 701.630 430.272, 701.630 440.272, 701.630 450.272, 701.630 460.272, 701.630 470.272, 701.630 480.272, 701.630 490.272, 701.630 500.272, 701.630 510.272, 701.630 520.272, 701.630 530.272, 701.630 540.272, 701.630 550.272, 701.630 560.272, 701.630 570.272, 701.630 580.272, 701.630 590.272, 701.630 600.272, 701.630 610.272, 701.630 620.272, 701.630 630.272, 701.630 640.272, 701.630 650.272, 701.630 660.272, 701.630 670.272, 701.630 680.272, 701.630 690.272, 701.630 700.272, 701.630 710.272, 701.630 720.272, 701.630 730.272, 701.630 740.272, 701.630 750.272, 701.630 756.938, 701.630 756.938, 691.630 756.938, 681.630 756.938, 671.630 756.938, 670.025 756.938, 670.025 " />
            <path fill="none" stroke-width="1.5" stroke-linecap="round" stroke-opacity="1.0" stroke="rgb(0, 0, 0)" stroke-linejoin="round" d=" M 330.272, 512.000 330.272, 502.000 330.272, 492.000 330.272, 482.000 330.272, 472.000 330.272, 462.000 330.272, 452.000 330.272, 442.000 330.272, 432.000 330.272, 422.000 330.272, 412.000 330.272, 402.000 330.272, 392.000 330.272, 382.000 330.272, 372.000 330.272, 362.000 330.272, 352.000 330.272, 342.000 330.272, 332.000 330.272, 322.000 330.272, 312.000 330.272, 302.000 330.272, 292.000 330.272, 282.000 330.272, 274.963 330.272, 274.963 320.272, 274.963 310.272, 274.963 300.272, 274.963 290.272, 274.963 280.272, 274.963 270.272, 274.963 267.062, 274.963 267.062, 284.963 267.062, 294.963 267.062, 304.963 267.062, 314.963 267.062, 324.963 267.062, 334.963 267.062, 344.963 267.062, 354.963 267.062, 364.963 267.062, 374.963 267.062, 384.963 267.062, 394.963 267.062, 404.963 267.062, 414.963 267.062, 424.963 267.062, 434.963 267.062, 444.963 267.062, 454.963 267.062, 464.963 267.062, 474.963 267.062, 484.963 267.062, 494.963 267.062, 504.963 267.062, 514.963 267.062, 524.963 267.062, 534.963 267.062, 544.963 267.062, 554.963 267.062, 564.963 267.062, 574.963 267.062, 584.963 267.062, 594.963 267.062, 604.963 267.062, 614.963 267.062, 624.963 267.062, 634.963 267.062, 644.963 267.062, 654.963 267.062, 664.963 267.062, 674.963 267.062, 684.963 267.062, 694.963 267.062, 704.963 267.062, 714.963 267.062, 724.963 267.062, 734.963 267.062, 749.037 267.062, 749.037 277.062, 749.037 287.062, 749.037 297.062, 749.037 307.062, 749.037 317.062, 749.037 327.062, 749.037 330.272, 749.037 330.272, 739.037 330.272, 729.037 330.272, 719.037 330.272, 709.037 330.272, 701.630 330.272, 701.630 " />
            <path fill="none" stroke-width="1.5" stroke-linecap="round" stroke-opacity="1.0" stroke="rgb(0, 0, 0)" stroke-linejoin="round" d=" M 330.272, 274.963 330.272, 284.963 330.272, 294.963 330.272, 304.963 330.272, 314.963 330.272, 324.963 330.272, 334.963 330.272, 344.963 330.272, 354.963 330.272, 364.963 330.272, 374.963 330.272, 384.963 330.272, 394.963 330.272, 404.963 330.272, 414.963 330.272, 424.963 330.272, 434.963 330.272, 444.963 330.272, 454.963 330.272, 464.963 330.272, 474.963 330.272, 484.963 330.272, 494.963 330.272, 504.963 330.272, 512.000 " />
            <path fill="none" stroke-width="1.5" stroke-linecap="round" stroke-opacity="1.0" stroke="rgb(0, 0, 0)" stroke-linejoin="round" d=" M 330.272, 749.037 330.272, 749.037 " />
            <path fill="none" stroke-width="1.5" stroke-linecap="round" stroke-opacity="1.0" stroke="rgb(0, 0, 0)" stroke-linejoin="round" d=" M 267.062, 749.037 277.062, 749.037 287.062, 749.037 297.062, 749.037 307.062, 749.037 317.062, 749.037 327.062, 749.037 330.272, 749.037 330.272, 739.037 330.272, 729.037 330.272, 719.037 330.272, 709.037 330.272, 701.630 330.272, 691.630 330.272, 681.630 330.272, 671.630 330.272, 670.025 330.272, 670.025 " />
            <path fill="none" stroke-width="1.5" stroke-linecap="round" stroke-opacity="1.0" stroke="rgb(0, 0, 0)" stroke-linejoin="round" d=" M 756.938, 670.025 756.938, 660.025 756.938, 650.025 756.938, 640.025 756.938, 638.420 " />
            <path fill="none" stroke-width="1.5" stroke-linecap="round" stroke-opacity="1.0" stroke="rgb(0, 0, 0)" stroke-linejoin="round" d=" M 282.864, 670.025 292.864, 670.025 302.864, 670.025 312.864, 670.025 322.864, 670.025 330.272, 670.025 330.272, 670.025 340.272, 670.025 350.272, 670.025 360.272, 670.025 370.272, 670.025 380.272, 670.025 390.272, 670.025 400.272, 670.025 410.272, 670.025 420.272, 670.025 430.272, 670.025 440.272, 670.025 450.272, 670.025 460.272, 670.025 470.272, 670.025 480.272, 670.025 490.272, 670.025 500.272, 670.025 510.272, 670.025 520.272, 670.025 530.272, 670.025 540.272, 670.025 550.272, 670.025 560.272, 670.025 570.272, 670.025 580.272, 670.025 590.272, 670.025 600.272, 670.025 610.272, 670.025 620.272, 670.025 630.272, 670.025 640.272, 670.025 650.272, 670.025 660.272, 670.025 670.272, 670.025 680.272, 670.025 690.272, 670.025 700.272, 670.025 710.272, 670.025 720.272, 670.025 730.272, 670.025 740.272, 670.025 750.272, 670.025 756.938, 670.025 756.938, 670.025 756.938, 660.025 756.938, 650.025 756.938, 640.025 756.938, 638.420 756.938, 638.420 756.938, 628.420 756.938, 618.420 756.938, 608.420 756.938, 598.420 756.938, 588.420 756.938, 578.420 756.938, 568.420 756.938, 558.420 756.938, 548.420 756.938, 538.420 756.938, 528.420 756.938, 518.420 756.938, 512.000 " />
            <path fill="none" stroke-width="1.5" stroke-linecap="round" stroke-opacity="1.0" stroke="rgb(0, 0, 0)" stroke-linejoin="round" d=" M 282.864, 512.000 282.864, 522.000 282.864, 532.000 282.864, 542.000 282.864, 552.000 282.864, 562.000 282.864, 572.000 282.864, 582.000 282.864, 592.000 282.864, 602.000 282.864, 612.000 282.864, 622.000 282.864, 632.000 282.864, 638.420 282.864, 638.420 282.864, 648.420 282.864, 658.420 282.864, 668.420 282.864, 670.025 282.864, 670.025 " />
            <path fill="none" stroke-width="1.5" stroke-linecap="round" stroke-opacity="1.0" stroke="rgb(0, 0, 0)" stroke-linejoin="round" d=" M 756.938, 512.000 756.938, 512.000 " />
            <path fill="none" stroke-width="1.5" stroke-linecap="round" stroke-opacity="1.0" stroke="rgb(0, 0, 0)" stroke-linejoin="round" d=" M 756.938, 512.000 746.938, 512.000 736.938, 512.000 726.938, 512.000 716.938, 512.000 706.938, 512.000 696.938, 512.000 686.938, 512.000 676.938, 512.000 666.938, 512.000 656.938, 512.000 646.938, 512.000 636.938, 512.000 626.938, 512.000 616.938, 512.000 606.938, 512.000 596.938, 512.000 586.938, 512.000 576.938, 512.000 566.938, 512.000 556.938, 512.000 546.938, 512.000 536.938, 512.000 526.938, 512.000 516.938, 512.000 506.938, 512.000 496.938, 512.000 486.938, 512.000 476.938, 512.000 466.938, 512.000 456.938, 512.000 446.938, 512.000 436.938, 512.000 426.938, 512.000 416.938, 512.000 406.938, 512.000 396.938, 512.000 386.938, 512.000 376.938, 512.000 366.938, 512.000 356.938, 512.000 346.938, 512.000 336.938, 512.000 330.272, 512.000 330.272, 512.000 320.272, 512.000 310.272, 512.000 300.272, 512.000 290.272, 512.000 282.864, 512.000 " />
            <path fill="none" stroke-width="1.5" stroke-linecap="round" stroke-opacity="1.0" stroke="rgb(0, 0, 0)" stroke-linejoin="round" d=" M 756.938, 670.025 756.938, 670.025 " />
            <path fill="none" stroke-width="1.5" stroke-linecap="round" stroke-opacity="1.0" stroke="rgb(0, 0, 0)" stroke-linejoin="round" d=" M 756.938, 638.420 756.938, 638.420 " />
            <path fill="none" stroke-width="1.5" stroke-linecap="round" stroke-opacity="1.0" stroke="rgb(0, 0, 0)" stroke-linejoin="round" d=" M 756.938, 638.420 756.938, 628.420 756.938, 618.420 756.938, 608.420 756.938, 598.420 756.938, 588.420 756.938, 578.420 756.938, 568.420 756.938, 558.420 756.938, 548.420 756.938, 538.420 756.938, 528.420 756.938, 518.420 756.938, 512.000 " />
            <path fill="none" stroke-width="1.5" stroke-linecap="round" stroke-opacity="1.0" stroke="rgb(0, 0, 0)" stroke-linejoin="round" d=" M 756.938, 512.000 756.938, 512.000 " />
        </g>
    </g>
</svg>
