<?xml version='1.0' encoding='ascii'?>
<svg xmlns="http://www.w3.org/2000/svg" xmlns:inkscape="http://www.inkscape.org/namespaces/inkscape" version="1.1" width="1024" height="1024">
    <g id="ViewLayer_LineSet" inkscape:groupmode="lineset" inkscape:label="ViewLayer_LineSet">
        <g inkscape:groupmode="layer" id="strokes" inkscape:label="strokes">
            <path fill="none" stroke-width="3.0" stroke-linecap="butt" stroke-opacity="1.0" stroke="rgb(0, 0, 0)" stroke-linejoin="round" d=" M 406.650, 796.444 406.650, 786.444 406.650, 776.444 406.650, 766.444 406.650, 756.444 406.650, 746.444 406.650, 736.444 406.650, 726.444 406.650, 716.444 406.650, 706.444 406.650, 696.444 406.650, 686.444 406.650, 676.444 406.650, 666.444 406.650, 656.444 406.650, 646.444 406.650, 636.444 406.650, 626.444 406.650, 616.444 406.650, 606.444 406.650, 596.444 406.650, 585.745 " />
            <path fill="none" stroke-width="3.0" stroke-linecap="butt" stroke-opacity="1.0" stroke="rgb(0, 0, 0)" stroke-linejoin="round" d=" M 364.510, 796.444 364.915, 796.444 366.114, 796.444 368.061, 796.444 370.682, 796.444 373.874, 796.444 377.517, 796.444 381.470, 796.444 385.580, 796.444 389.691, 796.444 393.643, 796.444 397.286, 796.444 400.479, 796.444 403.099, 796.444 405.046, 796.444 406.245, 796.444 406.650, 796.444 " />
            <path fill="none" stroke-width="3.0" stroke-linecap="butt" stroke-opacity="1.0" stroke="rgb(0, 0, 0)" stroke-linejoin="round" d=" M 406.650, 585.745 406.245, 585.745 405.046, 585.745 403.099, 585.745 400.479, 585.745 397.286, 585.745 393.643, 585.745 389.691, 585.745 385.580, 585.745 381.470, 585.745 377.517, 585.745 373.874, 585.745 370.682, 585.745 368.061, 585.745 366.114, 585.745 364.915, 585.745 364.510, 585.745 364.510, 595.745 364.510, 605.745 364.510, 615.745 364.510, 625.745 364.510, 635.745 364.510, 645.745 364.510, 655.745 364.510, 665.745 364.510, 675.745 364.510, 685.745 364.510, 695.745 364.510, 705.745 364.510, 715.745 364.510, 725.745 364.510, 735.745 364.510, 745.745 364.510, 755.745 364.510, 765.745 364.510, 775.745 364.510, 785.745 364.510, 796.444 " />
            <path fill="none" stroke-width="3.0" stroke-linecap="butt" stroke-opacity="1.0" stroke="rgb(0, 0, 0)" stroke-linejoin="round" d=" M 659.490, 796.444 659.490, 786.444 659.490, 776.444 659.490, 766.444 659.490, 756.444 659.490, 746.444 659.490, 736.444 659.490, 726.444 659.490, 716.444 659.490, 706.444 659.490, 696.444 659.490, 686.444 659.490, 676.444 659.490, 666.444 659.490, 656.444 659.490, 646.444 659.490, 636.444 659.490, 626.444 659.490, 616.444 659.490, 606.444 659.490, 596.444 659.490, 585.745 " />
            <path fill="none" stroke-width="3.0" stroke-linecap="butt" stroke-opacity="1.0" stroke="rgb(0, 0, 0)" stroke-linejoin="round" d=" M 659.490, 585.745 659.085, 585.745 657.886, 585.745 655.939, 585.745 653.318, 585.745 650.126, 585.745 646.483, 585.745 642.530, 585.745 638.420, 585.745 634.309, 585.745 630.357, 585.745 626.714, 585.745 623.521, 585.745 620.901, 585.745 618.954, 585.745 617.755, 585.745 617.350, 585.745 617.350, 595.745 617.350, 605.745 617.350, 615.745 617.350, 625.745 617.350, 635.745 617.350, 645.745 617.350, 655.745 617.350, 665.745 617.350, 675.745 617.350, 685.745 617.350, 695.745 617.350, 705.745 617.350, 715.745 617.350, 725.745 617.350, 735.745 617.350, 745.745 617.350, 755.745 617.350, 765.745 617.350, 775.745 617.350, 785.745 617.350, 796.444 617.755, 796.444 618.954, 796.444 620.901, 796.444 623.521, 796.444 626.714, 796.444 630.357, 796.444 634.309, 796.444 638.420, 796.444 642.530, 796.444 646.483, 796.444 650.126, 796.444 653.318, 796.444 655.939, 796.444 657.886, 796.444 659.085, 796.444 659.490, 796.444 " />
            <path fill="none" stroke-width="3.0" stroke-linecap="butt" stroke-opacity="1.0" stroke="rgb(0, 0, 0)" stroke-linejoin="round" d=" M 364.915, 585.745 364.510, 585.745 " />
            <path fill="none" stroke-width="3.0" stroke-linecap="butt" stroke-opacity="1.0" stroke="rgb(0, 0, 0)" stroke-linejoin="round" d=" M 617.755, 585.745 617.350, 585.745 " />
            <path fill="none" stroke-width="3.0" stroke-linecap="butt" stroke-opacity="1.0" stroke="rgb(0, 0, 0)" stroke-linejoin="round" d=" M 343.440, 463.539 343.440, 473.539 343.440, 483.539 343.440, 493.539 343.440, 497.251 343.440, 497.251 353.440, 497.251 363.440, 497.251 373.440, 497.251 383.440, 497.251 393.440, 497.251 403.440, 497.251 413.440, 497.251 423.440, 497.251 433.440, 497.251 443.440, 497.251 453.440, 497.251 463.440, 497.251 473.440, 497.251 483.440, 497.251 493.440, 497.251 503.440, 497.251 513.440, 497.251 523.440, 497.251 533.440, 497.251 543.440, 497.251 553.440, 497.251 563.440, 497.251 573.440, 497.251 583.440, 497.251 593.440, 497.251 603.440, 497.251 613.440, 497.251 623.440, 497.251 633.440, 497.251 643.440, 497.251 653.440, 497.251 663.440, 497.251 673.440, 497.251 680.560, 497.251 680.560, 497.251 680.560, 487.251 680.560, 477.251 680.560, 467.251 680.560, 463.539 670.560, 463.539 660.560, 463.539 650.560, 463.539 640.560, 463.539 630.560, 463.539 620.560, 463.539 610.560, 463.539 600.560, 463.539 590.560, 463.539 580.560, 463.539 570.560, 463.539 560.560, 463.539 550.560, 463.539 540.560, 463.539 530.560, 463.539 520.560, 463.539 510.560, 463.539 500.560, 463.539 490.560, 463.539 480.560, 463.539 470.560, 463.539 460.560, 463.539 450.560, 463.539 440.560, 463.539 430.560, 463.539 420.560, 463.539 410.560, 463.539 400.560, 463.539 390.560, 463.539 380.560, 463.539 370.560, 463.539 360.560, 463.539 350.560, 463.539 343.440, 463.539 " />
            <path fill="none" stroke-width="3.0" stroke-linecap="butt" stroke-opacity="1.0" stroke="rgb(0, 0, 0)" stroke-linejoin="round" d=" M 343.440, 497.251 353.440, 497.251 363.440, 497.251 373.440, 497.251 383.440, 497.251 393.440, 497.251 403.440, 497.251 413.440, 497.251 423.440, 497.251 433.440, 497.251 443.440, 497.251 453.440, 497.251 463.440, 497.251 473.440, 497.251 483.440, 497.251 493.440, 497.251 503.440, 497.251 513.440, 497.251 523.440, 497.251 533.440, 497.251 543.440, 497.251 553.440, 497.251 563.440, 497.251 573.440, 497.251 583.440, 497.251 593.440, 497.251 603.440, 497.251 613.440, 497.251 623.440, 497.251 633.440, 497.251 643.440, 497.251 653.440, 497.251 663.440, 497.251 673.440, 497.251 680.560, 497.251 " />
            <path fill="none" stroke-width="3.0" stroke-linecap="butt" stroke-opacity="1.0" stroke="rgb(0, 0, 0)" stroke-linejoin="round" d=" M 343.440, 227.556 343.440, 237.556 343.440, 247.556 343.440, 257.556 343.440, 267.556 343.440, 277.556 343.440, 287.556 343.440, 297.556 343.440, 307.556 343.440, 317.556 343.440, 327.556 343.440, 337.556 343.440, 347.556 343.440, 357.556 343.440, 367.556 343.440, 377.556 343.440, 387.556 343.440, 396.115 353.440, 396.115 363.440, 396.115 373.440, 396.115 383.440, 396.115 393.440, 396.115 403.440, 396.115 413.440, 396.115 423.440, 396.115 433.440, 396.115 443.440, 396.115 453.440, 396.115 463.440, 396.115 473.440, 396.115 483.440, 396.115 493.440, 396.115 503.440, 396.115 513.440, 396.115 523.440, 396.115 533.440, 396.115 543.440, 396.115 553.440, 396.115 563.440, 396.115 573.440, 396.115 583.440, 396.115 593.440, 396.115 603.440, 396.115 613.440, 396.115 623.440, 396.115 633.440, 396.115 643.440, 396.115 653.440, 396.115 663.440, 396.115 673.440, 396.115 680.560, 396.115 680.560, 386.115 680.560, 376.115 680.560, 366.115 680.560, 356.115 680.560, 346.115 680.560, 336.115 680.560, 326.115 680.560, 316.115 680.560, 306.115 680.560, 296.115 680.560, 286.115 680.560, 276.115 680.560, 266.115 680.560, 256.115 680.560, 246.115 680.560, 236.115 680.560, 227.556 " />
            <path fill="none" stroke-width="3.0" stroke-linecap="butt" stroke-opacity="1.0" stroke="rgb(0, 0, 0)" stroke-linejoin="round" d=" M 305.514, 362.403 305.514, 372.403 305.514, 382.403 305.514, 392.403 305.514, 402.403 305.514, 412.403 305.514, 422.403 305.514, 429.827 305.514, 429.827 315.514, 429.827 325.514, 429.827 335.514, 429.827 339.226, 429.827 339.226, 429.827 339.226, 419.827 339.226, 409.827 339.226, 399.827 339.226, 389.827 339.226, 379.827 339.226, 369.827 339.226, 362.403 339.226, 362.403 329.226, 362.403 319.226, 362.403 309.226, 362.403 305.514, 362.403 " />
            <path fill="none" stroke-width="3.0" stroke-linecap="butt" stroke-opacity="1.0" stroke="rgb(0, 0, 0)" stroke-linejoin="round" d=" M 305.514, 429.827 315.514, 429.827 325.514, 429.827 335.514, 429.827 339.226, 429.827 " />
            <path fill="none" stroke-width="3.0" stroke-linecap="butt" stroke-opacity="1.0" stroke="rgb(0, 0, 0)" stroke-linejoin="round" d=" M 684.774, 362.403 684.774, 362.403 684.774, 372.403 684.774, 382.403 684.774, 392.403 684.774, 402.403 684.774, 412.403 684.774, 422.403 684.774, 429.827 684.774, 429.827 694.774, 429.827 704.774, 429.827 714.774, 429.827 718.486, 429.827 718.486, 429.827 718.486, 419.827 718.486, 409.827 718.486, 399.827 718.486, 389.827 718.486, 379.827 718.486, 369.827 718.486, 362.403 718.486, 362.403 708.486, 362.403 698.486, 362.403 688.486, 362.403 684.774, 362.403 " />
            <path fill="none" stroke-width="3.0" stroke-linecap="butt" stroke-opacity="1.0" stroke="rgb(0, 0, 0)" stroke-linejoin="round" d=" M 684.774, 429.827 694.774, 429.827 704.774, 429.827 714.774, 429.827 718.486, 429.827 " />
            <path fill="none" stroke-width="3.0" stroke-linecap="butt" stroke-opacity="1.0" stroke="rgb(0, 0, 0)" stroke-linejoin="round" d=" M 406.650, 585.745 406.245, 585.745 " />
            <path fill="none" stroke-width="3.0" stroke-linecap="butt" stroke-opacity="1.0" stroke="rgb(0, 0, 0)" stroke-linejoin="round" d=" M 659.490, 585.745 659.085, 585.745 " />
            <path fill="none" stroke-width="3.0" stroke-linecap="butt" stroke-opacity="1.0" stroke="rgb(0, 0, 0)" stroke-linejoin="round" d=" M 680.560, 227.556 670.560, 227.556 660.560, 227.556 650.560, 227.556 640.560, 227.556 630.560, 227.556 620.560, 227.556 610.560, 227.556 600.560, 227.556 590.560, 227.556 580.560, 227.556 570.560, 227.556 560.560, 227.556 550.560, 227.556 540.560, 227.556 530.560, 227.556 520.560, 227.556 510.560, 227.556 500.560, 227.556 490.560, 227.556 480.560, 227.556 470.560, 227.556 460.560, 227.556 450.560, 227.556 440.560, 227.556 430.560, 227.556 420.560, 227.556 410.560, 227.556 400.560, 227.556 390.560, 227.556 380.560, 227.556 370.560, 227.556 360.560, 227.556 350.560, 227.556 343.440, 227.556 " />
        </g>
    </g>
    <g id="ViewLayer_TechnicalLines" inkscape:groupmode="lineset" inkscape:label="ViewLayer_TechnicalLines">
        <g inkscape:groupmode="layer" id="strokes" inkscape:label="strokes">
            <path fill="none" stroke-width="3.0" stroke-linecap="butt" stroke-opacity="1.0" stroke="rgb(0, 0, 0)" stroke-linejoin="round" d=" M 406.650, 796.444 406.650, 786.444 406.650, 776.444 406.650, 766.444 406.650, 756.444 406.650, 746.444 406.650, 736.444 406.650, 726.444 406.650, 716.444 406.650, 706.444 406.650, 696.444 406.650, 686.444 406.650, 676.444 406.650, 666.444 406.650, 656.444 406.650, 646.444 406.650, 636.444 406.650, 626.444 406.650, 616.444 406.650, 606.444 406.650, 596.444 406.650, 585.745 " />
            <path fill="none" stroke-width="3.0" stroke-linecap="butt" stroke-opacity="1.0" stroke="rgb(0, 0, 0)" stroke-linejoin="round" d=" M 364.510, 796.444 364.915, 796.444 366.114, 796.444 368.061, 796.444 370.682, 796.444 373.874, 796.444 377.517, 796.444 381.470, 796.444 385.580, 796.444 389.691, 796.444 393.643, 796.444 397.286, 796.444 400.479, 796.444 403.099, 796.444 405.046, 796.444 406.245, 796.444 406.650, 796.444 " />
            <path fill="none" stroke-width="3.0" stroke-linecap="butt" stroke-opacity="1.0" stroke="rgb(0, 0, 0)" stroke-linejoin="round" d=" M 406.650, 585.745 406.245, 585.745 405.046, 585.745 403.099, 585.745 400.479, 585.745 397.286, 585.745 393.643, 585.745 389.691, 585.745 385.580, 585.745 381.470, 585.745 377.517, 585.745 373.874, 585.745 370.682, 585.745 368.061, 585.745 366.114, 585.745 364.915, 585.745 364.510, 585.745 364.510, 595.745 364.510, 605.745 364.510, 615.745 364.510, 625.745 364.510, 635.745 364.510, 645.745 364.510, 655.745 364.510, 665.745 364.510, 675.745 364.510, 685.745 364.510, 695.745 364.510, 705.745 364.510, 715.745 364.510, 725.745 364.510, 735.745 364.510, 745.745 364.510, 755.745 364.510, 765.745 364.510, 775.745 364.510, 785.745 364.510, 796.444 " />
            <path fill="none" stroke-width="3.0" stroke-linecap="butt" stroke-opacity="1.0" stroke="rgb(0, 0, 0)" stroke-linejoin="round" d=" M 659.490, 796.444 659.490, 786.444 659.490, 776.444 659.490, 766.444 659.490, 756.444 659.490, 746.444 659.490, 736.444 659.490, 726.444 659.490, 716.444 659.490, 706.444 659.490, 696.444 659.490, 686.444 659.490, 676.444 659.490, 666.444 659.490, 656.444 659.490, 646.444 659.490, 636.444 659.490, 626.444 659.490, 616.444 659.490, 606.444 659.490, 596.444 659.490, 585.745 " />
            <path fill="none" stroke-width="3.0" stroke-linecap="butt" stroke-opacity="1.0" stroke="rgb(0, 0, 0)" stroke-linejoin="round" d=" M 659.490, 585.745 659.085, 585.745 657.886, 585.745 655.939, 585.745 653.318, 585.745 650.126, 585.745 646.483, 585.745 642.530, 585.745 638.420, 585.745 634.309, 585.745 630.357, 585.745 626.714, 585.745 623.521, 585.745 620.901, 585.745 618.954, 585.745 617.755, 585.745 617.350, 585.745 617.350, 595.745 617.350, 605.745 617.350, 615.745 617.350, 625.745 617.350, 635.745 617.350, 645.745 617.350, 655.745 617.350, 665.745 617.350, 675.745 617.350, 685.745 617.350, 695.745 617.350, 705.745 617.350, 715.745 617.350, 725.745 617.350, 735.745 617.350, 745.745 617.350, 755.745 617.350, 765.745 617.350, 775.745 617.350, 785.745 617.350, 796.444 617.755, 796.444 618.954, 796.444 620.901, 796.444 623.521, 796.444 626.714, 796.444 630.357, 796.444 634.309, 796.444 638.420, 796.444 642.530, 796.444 646.483, 796.444 650.126, 796.444 653.318, 796.444 655.939, 796.444 657.886, 796.444 659.085, 796.444 659.490, 796.444 " />
            <path fill="none" stroke-width="3.0" stroke-linecap="butt" stroke-opacity="1.0" stroke="rgb(0, 0, 0)" stroke-linejoin="round" d=" M 364.915, 585.745 364.510, 585.745 " />
            <path fill="none" stroke-width="3.0" stroke-linecap="butt" stroke-opacity="1.0" stroke="rgb(0, 0, 0)" stroke-linejoin="round" d=" M 617.755, 585.745 617.350, 585.745 " />
            <path fill="none" stroke-width="3.0" stroke-linecap="butt" stroke-opacity="1.0" stroke="rgb(0, 0, 0)" stroke-linejoin="round" d=" M 343.440, 463.539 343.440, 473.539 343.440, 483.539 343.440, 493.539 343.440, 497.251 343.440, 497.251 353.440, 497.251 363.440, 497.251 373.440, 497.251 383.440, 497.251 393.440, 497.251 403.440, 497.251 413.440, 497.251 423.440, 497.251 433.440, 497.251 443.440, 497.251 453.440, 497.251 463.440, 497.251 473.440, 497.251 483.440, 497.251 493.440, 497.251 503.440, 497.251 513.440, 497.251 523.440, 497.251 533.440, 497.251 543.440, 497.251 553.440, 497.251 563.440, 497.251 573.440, 497.251 583.440, 497.251 593.440, 497.251 603.440, 497.251 613.440, 497.251 623.440, 497.251 633.440, 497.251 643.440, 497.251 653.440, 497.251 663.440, 497.251 673.440, 497.251 680.560, 497.251 680.560, 497.251 680.560, 487.251 680.560, 477.251 680.560, 467.251 680.560, 463.539 670.560, 463.539 660.560, 463.539 650.560, 463.539 640.560, 463.539 630.560, 463.539 620.560, 463.539 610.560, 463.539 600.560, 463.539 590.560, 463.539 580.560, 463.539 570.560, 463.539 560.560, 463.539 550.560, 463.539 540.560, 463.539 530.560, 463.539 520.560, 463.539 510.560, 463.539 500.560, 463.539 490.560, 463.539 480.560, 463.539 470.560, 463.539 460.560, 463.539 450.560, 463.539 440.560, 463.539 430.560, 463.539 420.560, 463.539 410.560, 463.539 400.560, 463.539 390.560, 463.539 380.560, 463.539 370.560, 463.539 360.560, 463.539 350.560, 463.539 343.440, 463.539 " />
            <path fill="none" stroke-width="3.0" stroke-linecap="butt" stroke-opacity="1.0" stroke="rgb(0, 0, 0)" stroke-linejoin="round" d=" M 343.440, 497.251 353.440, 497.251 363.440, 497.251 373.440, 497.251 383.440, 497.251 393.440, 497.251 403.440, 497.251 413.440, 497.251 423.440, 497.251 433.440, 497.251 443.440, 497.251 453.440, 497.251 463.440, 497.251 473.440, 497.251 483.440, 497.251 493.440, 497.251 503.440, 497.251 513.440, 497.251 523.440, 497.251 533.440, 497.251 543.440, 497.251 553.440, 497.251 563.440, 497.251 573.440, 497.251 583.440, 497.251 593.440, 497.251 603.440, 497.251 613.440, 497.251 623.440, 497.251 633.440, 497.251 643.440, 497.251 653.440, 497.251 663.440, 497.251 673.440, 497.251 680.560, 497.251 " />
            <path fill="none" stroke-width="3.0" stroke-linecap="butt" stroke-opacity="1.0" stroke="rgb(0, 0, 0)" stroke-linejoin="round" d=" M 343.440, 227.556 343.440, 237.556 343.440, 247.556 343.440, 257.556 343.440, 267.556 343.440, 277.556 343.440, 287.556 343.440, 297.556 343.440, 307.556 343.440, 317.556 343.440, 327.556 343.440, 337.556 343.440, 347.556 343.440, 357.556 343.440, 367.556 343.440, 377.556 343.440, 387.556 343.440, 396.115 353.440, 396.115 363.440, 396.115 373.440, 396.115 383.440, 396.115 393.440, 396.115 403.440, 396.115 413.440, 396.115 423.440, 396.115 433.440, 396.115 443.440, 396.115 453.440, 396.115 463.440, 396.115 473.440, 396.115 483.440, 396.115 493.440, 396.115 503.440, 396.115 513.440, 396.115 523.440, 396.115 533.440, 396.115 543.440, 396.115 553.440, 396.115 563.440, 396.115 573.440, 396.115 583.440, 396.115 593.440, 396.115 603.440, 396.115 613.440, 396.115 623.440, 396.115 633.440, 396.115 643.440, 396.115 653.440, 396.115 663.440, 396.115 673.440, 396.115 680.560, 396.115 680.560, 386.115 680.560, 376.115 680.560, 366.115 680.560, 356.115 680.560, 346.115 680.560, 336.115 680.560, 326.115 680.560, 316.115 680.560, 306.115 680.560, 296.115 680.560, 286.115 680.560, 276.115 680.560, 266.115 680.560, 256.115 680.560, 246.115 680.560, 236.115 680.560, 227.556 " />
            <path fill="none" stroke-width="3.0" stroke-linecap="butt" stroke-opacity="1.0" stroke="rgb(0, 0, 0)" stroke-linejoin="round" d=" M 305.514, 362.403 305.514, 372.403 305.514, 382.403 305.514, 392.403 305.514, 402.403 305.514, 412.403 305.514, 422.403 305.514, 429.827 305.514, 429.827 315.514, 429.827 325.514, 429.827 335.514, 429.827 339.226, 429.827 339.226, 429.827 339.226, 419.827 339.226, 409.827 339.226, 399.827 339.226, 389.827 339.226, 379.827 339.226, 369.827 339.226, 362.403 339.226, 362.403 329.226, 362.403 319.226, 362.403 309.226, 362.403 305.514, 362.403 " />
            <path fill="none" stroke-width="3.0" stroke-linecap="butt" stroke-opacity="1.0" stroke="rgb(0, 0, 0)" stroke-linejoin="round" d=" M 305.514, 429.827 315.514, 429.827 325.514, 429.827 335.514, 429.827 339.226, 429.827 " />
            <path fill="none" stroke-width="3.0" stroke-linecap="butt" stroke-opacity="1.0" stroke="rgb(0, 0, 0)" stroke-linejoin="round" d=" M 684.774, 362.403 684.774, 362.403 684.774, 372.403 684.774, 382.403 684.774, 392.403 684.774, 402.403 684.774, 412.403 684.774, 422.403 684.774, 429.827 684.774, 429.827 694.774, 429.827 704.774, 429.827 714.774, 429.827 718.486, 429.827 718.486, 429.827 718.486, 419.827 718.486, 409.827 718.486, 399.827 718.486, 389.827 718.486, 379.827 718.486, 369.827 718.486, 362.403 718.486, 362.403 708.486, 362.403 698.486, 362.403 688.486, 362.403 684.774, 362.403 " />
            <path fill="none" stroke-width="3.0" stroke-linecap="butt" stroke-opacity="1.0" stroke="rgb(0, 0, 0)" stroke-linejoin="round" d=" M 684.774, 429.827 694.774, 429.827 704.774, 429.827 714.774, 429.827 718.486, 429.827 " />
            <path fill="none" stroke-width="3.0" stroke-linecap="butt" stroke-opacity="1.0" stroke="rgb(0, 0, 0)" stroke-linejoin="round" d=" M 406.650, 585.745 406.245, 585.745 " />
            <path fill="none" stroke-width="3.0" stroke-linecap="butt" stroke-opacity="1.0" stroke="rgb(0, 0, 0)" stroke-linejoin="round" d=" M 659.490, 585.745 659.085, 585.745 " />
            <path fill="none" stroke-width="3.0" stroke-linecap="butt" stroke-opacity="1.0" stroke="rgb(0, 0, 0)" stroke-linejoin="round" d=" M 680.560, 227.556 670.560, 227.556 660.560, 227.556 650.560, 227.556 640.560, 227.556 630.560, 227.556 620.560, 227.556 610.560, 227.556 600.560, 227.556 590.560, 227.556 580.560, 227.556 570.560, 227.556 560.560, 227.556 550.560, 227.556 540.560, 227.556 530.560, 227.556 520.560, 227.556 510.560, 227.556 500.560, 227.556 490.560, 227.556 480.560, 227.556 470.560, 227.556 460.560, 227.556 450.560, 227.556 440.560, 227.556 430.560, 227.556 420.560, 227.556 410.560, 227.556 400.560, 227.556 390.560, 227.556 380.560, 227.556 370.560, 227.556 360.560, 227.556 350.560, 227.556 343.440, 227.556 " />
        </g>
    </g>
    <g id="ViewLayer_TechnicalLines.001" inkscape:groupmode="lineset" inkscape:label="ViewLayer_TechnicalLines.001">
        <g inkscape:groupmode="layer" id="strokes" inkscape:label="strokes">
            <path fill="none" stroke-width="1.5" stroke-linecap="round" stroke-opacity="1.0" stroke="rgb(0, 0, 0)" stroke-linejoin="round" d=" M 406.650, 796.444 406.650, 786.444 406.650, 776.444 406.650, 766.444 406.650, 756.444 406.650, 746.444 406.650, 736.444 406.650, 726.444 406.650, 716.444 406.650, 706.444 406.650, 696.444 406.650, 686.444 406.650, 676.444 406.650, 666.444 406.650, 656.444 406.650, 646.444 406.650, 636.444 406.650, 626.444 406.650, 616.444 406.650, 606.444 406.650, 596.444 406.650, 585.745 " />
            <path fill="none" stroke-width="1.5" stroke-linecap="round" stroke-opacity="1.0" stroke="rgb(0, 0, 0)" stroke-linejoin="round" d=" M 364.510, 796.444 364.915, 796.444 366.114, 796.444 368.061, 796.444 370.682, 796.444 373.874, 796.444 377.517, 796.444 381.470, 796.444 385.580, 796.444 389.691, 796.444 393.643, 796.444 397.286, 796.444 400.479, 796.444 403.099, 796.444 405.046, 796.444 406.245, 796.444 406.650, 796.444 " />
            <path fill="none" stroke-width="1.5" stroke-linecap="round" stroke-opacity="1.0" stroke="rgb(0, 0, 0)" stroke-linejoin="round" d=" M 406.650, 585.745 406.245, 585.745 405.046, 585.745 403.099, 585.745 400.479, 585.745 397.286, 585.745 393.643, 585.745 389.691, 585.745 385.580, 585.745 381.470, 585.745 377.517, 585.745 373.874, 585.745 370.682, 585.745 368.061, 585.745 366.114, 585.745 364.915, 585.745 364.510, 585.745 364.510, 595.745 364.510, 605.745 364.510, 615.745 364.510, 625.745 364.510, 635.745 364.510, 645.745 364.510, 655.745 364.510, 665.745 364.510, 675.745 364.510, 685.745 364.510, 695.745 364.510, 705.745 364.510, 715.745 364.510, 725.745 364.510, 735.745 364.510, 745.745 364.510, 755.745 364.510, 765.745 364.510, 775.745 364.510, 785.745 364.510, 796.444 " />
            <path fill="none" stroke-width="1.5" stroke-linecap="round" stroke-opacity="1.0" stroke="rgb(0, 0, 0)" stroke-linejoin="round" d=" M 659.490, 796.444 659.490, 786.444 659.490, 776.444 659.490, 766.444 659.490, 756.444 659.490, 746.444 659.490, 736.444 659.490, 726.444 659.490, 716.444 659.490, 706.444 659.490, 696.444 659.490, 686.444 659.490, 676.444 659.490, 666.444 659.490, 656.444 659.490, 646.444 659.490, 636.444 659.490, 626.444 659.490, 616.444 659.490, 606.444 659.490, 596.444 659.490, 585.745 " />
            <path fill="none" stroke-width="1.5" stroke-linecap="round" stroke-opacity="1.0" stroke="rgb(0, 0, 0)" stroke-linejoin="round" d=" M 659.490, 585.745 659.085, 585.745 657.886, 585.745 655.939, 585.745 653.318, 585.745 650.126, 585.745 646.483, 585.745 642.530, 585.745 638.420, 585.745 634.309, 585.745 630.357, 585.745 626.714, 585.745 623.521, 585.745 620.901, 585.745 618.954, 585.745 617.755, 585.745 617.350, 585.745 617.350, 595.745 617.350, 605.745 617.350, 615.745 617.350, 625.745 617.350, 635.745 617.350, 645.745 617.350, 655.745 617.350, 665.745 617.350, 675.745 617.350, 685.745 617.350, 695.745 617.350, 705.745 617.350, 715.745 617.350, 725.745 617.350, 735.745 617.350, 745.745 617.350, 755.745 617.350, 765.745 617.350, 775.745 617.350, 785.745 617.350, 796.444 617.755, 796.444 618.954, 796.444 620.901, 796.444 623.521, 796.444 626.714, 796.444 630.357, 796.444 634.309, 796.444 638.420, 796.444 642.530, 796.444 646.483, 796.444 650.126, 796.444 653.318, 796.444 655.939, 796.444 657.886, 796.444 659.085, 796.444 659.490, 796.444 " />
            <path fill="none" stroke-width="1.5" stroke-linecap="round" stroke-opacity="1.0" stroke="rgb(0, 0, 0)" stroke-linejoin="round" d=" M 364.915, 585.745 364.510, 585.745 " />
            <path fill="none" stroke-width="1.5" stroke-linecap="round" stroke-opacity="1.0" stroke="rgb(0, 0, 0)" stroke-linejoin="round" d=" M 617.755, 585.745 617.350, 585.745 " />
            <path fill="none" stroke-width="1.5" stroke-linecap="round" stroke-opacity="1.0" stroke="rgb(0, 0, 0)" stroke-linejoin="round" d=" M 343.440, 463.539 343.440, 473.539 343.440, 483.539 343.440, 493.539 343.440, 497.251 343.440, 497.251 353.440, 497.251 363.440, 497.251 373.440, 497.251 383.440, 497.251 393.440, 497.251 403.440, 497.251 413.440, 497.251 423.440, 497.251 433.440, 497.251 443.440, 497.251 453.440, 497.251 463.440, 497.251 473.440, 497.251 483.440, 497.251 493.440, 497.251 503.440, 497.251 513.440, 497.251 523.440, 497.251 533.440, 497.251 543.440, 497.251 553.440, 497.251 563.440, 497.251 573.440, 497.251 583.440, 497.251 593.440, 497.251 603.440, 497.251 613.440, 497.251 623.440, 497.251 633.440, 497.251 643.440, 497.251 653.440, 497.251 663.440, 497.251 673.440, 497.251 680.560, 497.251 680.560, 497.251 680.560, 487.251 680.560, 477.251 680.560, 467.251 680.560, 463.539 670.560, 463.539 660.560, 463.539 650.560, 463.539 640.560, 463.539 630.560, 463.539 620.560, 463.539 610.560, 463.539 600.560, 463.539 590.560, 463.539 580.560, 463.539 570.560, 463.539 560.560, 463.539 550.560, 463.539 540.560, 463.539 530.560, 463.539 520.560, 463.539 510.560, 463.539 500.560, 463.539 490.560, 463.539 480.560, 463.539 470.560, 463.539 460.560, 463.539 450.560, 463.539 440.560, 463.539 430.560, 463.539 420.560, 463.539 410.560, 463.539 400.560, 463.539 390.560, 463.539 380.560, 463.539 370.560, 463.539 360.560, 463.539 350.560, 463.539 343.440, 463.539 " />
            <path fill="none" stroke-width="1.5" stroke-linecap="round" stroke-opacity="1.0" stroke="rgb(0, 0, 0)" stroke-linejoin="round" d=" M 343.440, 497.251 353.440, 497.251 363.440, 497.251 373.440, 497.251 383.440, 497.251 393.440, 497.251 403.440, 497.251 413.440, 497.251 423.440, 497.251 433.440, 497.251 443.440, 497.251 453.440, 497.251 463.440, 497.251 473.440, 497.251 483.440, 497.251 493.440, 497.251 503.440, 497.251 513.440, 497.251 523.440, 497.251 533.440, 497.251 543.440, 497.251 553.440, 497.251 563.440, 497.251 573.440, 497.251 583.440, 497.251 593.440, 497.251 603.440, 497.251 613.440, 497.251 623.440, 497.251 633.440, 497.251 643.440, 497.251 653.440, 497.251 663.440, 497.251 673.440, 497.251 680.560, 497.251 " />
            <path fill="none" stroke-width="1.5" stroke-linecap="round" stroke-opacity="1.0" stroke="rgb(0, 0, 0)" stroke-linejoin="round" d=" M 343.440, 227.556 343.440, 237.556 343.440, 247.556 343.440, 257.556 343.440, 267.556 343.440, 277.556 343.440, 287.556 343.440, 297.556 343.440, 307.556 343.440, 317.556 343.440, 327.556 343.440, 337.556 343.440, 347.556 343.440, 357.556 343.440, 367.556 343.440, 377.556 343.440, 387.556 343.440, 396.115 353.440, 396.115 363.440, 396.115 373.440, 396.115 383.440, 396.115 393.440, 396.115 403.440, 396.115 413.440, 396.115 423.440, 396.115 433.440, 396.115 443.440, 396.115 453.440, 396.115 463.440, 396.115 473.440, 396.115 483.440, 396.115 493.440, 396.115 503.440, 396.115 513.440, 396.115 523.440, 396.115 533.440, 396.115 543.440, 396.115 553.440, 396.115 563.440, 396.115 573.440, 396.115 583.440, 396.115 593.440, 396.115 603.440, 396.115 613.440, 396.115 623.440, 396.115 633.440, 396.115 643.440, 396.115 653.440, 396.115 663.440, 396.115 673.440, 396.115 680.560, 396.115 680.560, 386.115 680.560, 376.115 680.560, 366.115 680.560, 356.115 680.560, 346.115 680.560, 336.115 680.560, 326.115 680.560, 316.115 680.560, 306.115 680.560, 296.115 680.560, 286.115 680.560, 276.115 680.560, 266.115 680.560, 256.115 680.560, 246.115 680.560, 236.115 680.560, 227.556 " />
            <path fill="none" stroke-width="1.5" stroke-linecap="round" stroke-opacity="1.0" stroke="rgb(0, 0, 0)" stroke-linejoin="round" d=" M 305.514, 362.403 305.514, 372.403 305.514, 382.403 305.514, 392.403 305.514, 402.403 305.514, 412.403 305.514, 422.403 305.514, 429.827 305.514, 429.827 315.514, 429.827 325.514, 429.827 335.514, 429.827 339.226, 429.827 339.226, 429.827 339.226, 419.827 339.226, 409.827 339.226, 399.827 339.226, 389.827 339.226, 379.827 339.226, 369.827 339.226, 362.403 339.226, 362.403 329.226, 362.403 319.226, 362.403 309.226, 362.403 305.514, 362.403 " />
            <path fill="none" stroke-width="1.5" stroke-linecap="round" stroke-opacity="1.0" stroke="rgb(0, 0, 0)" stroke-linejoin="round" d=" M 305.514, 429.827 315.514, 429.827 325.514, 429.827 335.514, 429.827 339.226, 429.827 " />
            <path fill="none" stroke-width="1.5" stroke-linecap="round" stroke-opacity="1.0" stroke="rgb(0, 0, 0)" stroke-linejoin="round" d=" M 684.774, 362.403 684.774, 362.403 684.774, 372.403 684.774, 382.403 684.774, 392.403 684.774, 402.403 684.774, 412.403 684.774, 422.403 684.774, 429.827 684.774, 429.827 694.774, 429.827 704.774, 429.827 714.774, 429.827 718.486, 429.827 718.486, 429.827 718.486, 419.827 718.486, 409.827 718.486, 399.827 718.486, 389.827 718.486, 379.827 718.486, 369.827 718.486, 362.403 718.486, 362.403 708.486, 362.403 698.486, 362.403 688.486, 362.403 684.774, 362.403 " />
            <path fill="none" stroke-width="1.5" stroke-linecap="round" stroke-opacity="1.0" stroke="rgb(0, 0, 0)" stroke-linejoin="round" d=" M 684.774, 429.827 694.774, 429.827 704.774, 429.827 714.774, 429.827 718.486, 429.827 " />
            <path fill="none" stroke-width="1.5" stroke-linecap="round" stroke-opacity="1.0" stroke="rgb(0, 0, 0)" stroke-linejoin="round" d=" M 406.650, 585.745 406.245, 585.745 " />
            <path fill="none" stroke-width="1.5" stroke-linecap="round" stroke-opacity="1.0" stroke="rgb(0, 0, 0)" stroke-linejoin="round" d=" M 659.490, 585.745 659.085, 585.745 " />
            <path fill="none" stroke-width="1.5" stroke-linecap="round" stroke-opacity="1.0" stroke="rgb(0, 0, 0)" stroke-linejoin="round" d=" M 680.560, 227.556 670.560, 227.556 660.560, 227.556 650.560, 227.556 640.560, 227.556 630.560, 227.556 620.560, 227.556 610.560, 227.556 600.560, 227.556 590.560, 227.556 580.560, 227.556 570.560, 227.556 560.560, 227.556 550.560, 227.556 540.560, 227.556 530.560, 227.556 520.560, 227.556 510.560, 227.556 500.560, 227.556 490.560, 227.556 480.560, 227.556 470.560, 227.556 460.560, 227.556 450.560, 227.556 440.560, 227.556 430.560, 227.556 420.560, 227.556 410.560, 227.556 400.560, 227.556 390.560, 227.556 380.560, 227.556 370.560, 227.556 360.560, 227.556 350.560, 227.556 343.440, 227.556 " />
        </g>
    </g>
    <g id="ViewLayer_TechnicalLines.002" inkscape:groupmode="lineset" inkscape:label="ViewLayer_TechnicalLines.002">
        <g inkscape:groupmode="layer" id="strokes" inkscape:label="strokes">
            <path fill="none" stroke-width="1.5" stroke-linecap="round" stroke-opacity="1.0" stroke="rgb(0, 0, 0)" stroke-linejoin="round" d=" M 406.650, 796.444 406.650, 786.444 406.650, 776.444 406.650, 766.444 406.650, 756.444 406.650, 746.444 406.650, 736.444 406.650, 726.444 406.650, 716.444 406.650, 706.444 406.650, 696.444 406.650, 686.444 406.650, 676.444 406.650, 666.444 406.650, 656.444 406.650, 646.444 406.650, 636.444 406.650, 626.444 406.650, 616.444 406.650, 606.444 406.650, 596.444 406.650, 585.745 " />
            <path fill="none" stroke-width="1.5" stroke-linecap="round" stroke-opacity="1.0" stroke="rgb(0, 0, 0)" stroke-linejoin="round" d=" M 364.510, 796.444 364.915, 796.444 366.114, 796.444 368.061, 796.444 370.682, 796.444 373.874, 796.444 377.517, 796.444 381.470, 796.444 385.580, 796.444 389.691, 796.444 393.643, 796.444 397.286, 796.444 400.479, 796.444 403.099, 796.444 405.046, 796.444 406.245, 796.444 406.650, 796.444 " />
            <path fill="none" stroke-width="1.5" stroke-linecap="round" stroke-opacity="1.0" stroke="rgb(0, 0, 0)" stroke-linejoin="round" d=" M 406.650, 585.745 406.245, 585.745 405.046, 585.745 403.099, 585.745 400.479, 585.745 397.286, 585.745 393.643, 585.745 389.691, 585.745 385.580, 585.745 381.470, 585.745 377.517, 585.745 373.874, 585.745 370.682, 585.745 368.061, 585.745 366.114, 585.745 364.915, 585.745 364.510, 585.745 364.510, 595.745 364.510, 605.745 364.510, 615.745 364.510, 625.745 364.510, 635.745 364.510, 645.745 364.510, 655.745 364.510, 665.745 364.510, 675.745 364.510, 685.745 364.510, 695.745 364.510, 705.745 364.510, 715.745 364.510, 725.745 364.510, 735.745 364.510, 745.745 364.510, 755.745 364.510, 765.745 364.510, 775.745 364.510, 785.745 364.510, 796.444 " />
            <path fill="none" stroke-width="1.5" stroke-linecap="round" stroke-opacity="1.0" stroke="rgb(0, 0, 0)" stroke-linejoin="round" d=" M 659.490, 796.444 659.490, 786.444 659.490, 776.444 659.490, 766.444 659.490, 756.444 659.490, 746.444 659.490, 736.444 659.490, 726.444 659.490, 716.444 659.490, 706.444 659.490, 696.444 659.490, 686.444 659.490, 676.444 659.490, 666.444 659.490, 656.444 659.490, 646.444 659.490, 636.444 659.490, 626.444 659.490, 616.444 659.490, 606.444 659.490, 596.444 659.490, 585.745 " />
            <path fill="none" stroke-width="1.5" stroke-linecap="round" stroke-opacity="1.0" stroke="rgb(0, 0, 0)" stroke-linejoin="round" d=" M 659.490, 585.745 659.085, 585.745 657.886, 585.745 655.939, 585.745 653.318, 585.745 650.126, 585.745 646.483, 585.745 642.530, 585.745 638.420, 585.745 634.309, 585.745 630.357, 585.745 626.714, 585.745 623.521, 585.745 620.901, 585.745 618.954, 585.745 617.755, 585.745 617.350, 585.745 617.350, 595.745 617.350, 605.745 617.350, 615.745 617.350, 625.745 617.350, 635.745 617.350, 645.745 617.350, 655.745 617.350, 665.745 617.350, 675.745 617.350, 685.745 617.350, 695.745 617.350, 705.745 617.350, 715.745 617.350, 725.745 617.350, 735.745 617.350, 745.745 617.350, 755.745 617.350, 765.745 617.350, 775.745 617.350, 785.745 617.350, 796.444 617.755, 796.444 618.954, 796.444 620.901, 796.444 623.521, 796.444 626.714, 796.444 630.357, 796.444 634.309, 796.444 638.420, 796.444 642.530, 796.444 646.483, 796.444 650.126, 796.444 653.318, 796.444 655.939, 796.444 657.886, 796.444 659.085, 796.444 659.490, 796.444 " />
            <path fill="none" stroke-width="1.5" stroke-linecap="round" stroke-opacity="1.0" stroke="rgb(0, 0, 0)" stroke-linejoin="round" d=" M 364.915, 585.745 364.510, 585.745 " />
            <path fill="none" stroke-width="1.5" stroke-linecap="round" stroke-opacity="1.0" stroke="rgb(0, 0, 0)" stroke-linejoin="round" d=" M 617.755, 585.745 617.350, 585.745 " />
            <path fill="none" stroke-width="1.5" stroke-linecap="round" stroke-opacity="1.0" stroke="rgb(0, 0, 0)" stroke-linejoin="round" d=" M 343.440, 463.539 343.440, 473.539 343.440, 483.539 343.440, 493.539 343.440, 497.251 343.440, 497.251 353.440, 497.251 363.440, 497.251 373.440, 497.251 383.440, 497.251 393.440, 497.251 403.440, 497.251 413.440, 497.251 423.440, 497.251 433.440, 497.251 443.440, 497.251 453.440, 497.251 463.440, 497.251 473.440, 497.251 483.440, 497.251 493.440, 497.251 503.440, 497.251 513.440, 497.251 523.440, 497.251 533.440, 497.251 543.440, 497.251 553.440, 497.251 563.440, 497.251 573.440, 497.251 583.440, 497.251 593.440, 497.251 603.440, 497.251 613.440, 497.251 623.440, 497.251 633.440, 497.251 643.440, 497.251 653.440, 497.251 663.440, 497.251 673.440, 497.251 680.560, 497.251 680.560, 497.251 680.560, 487.251 680.560, 477.251 680.560, 467.251 680.560, 463.539 670.560, 463.539 660.560, 463.539 650.560, 463.539 640.560, 463.539 630.560, 463.539 620.560, 463.539 610.560, 463.539 600.560, 463.539 590.560, 463.539 580.560, 463.539 570.560, 463.539 560.560, 463.539 550.560, 463.539 540.560, 463.539 530.560, 463.539 520.560, 463.539 510.560, 463.539 500.560, 463.539 490.560, 463.539 480.560, 463.539 470.560, 463.539 460.560, 463.539 450.560, 463.539 440.560, 463.539 430.560, 463.539 420.560, 463.539 410.560, 463.539 400.560, 463.539 390.560, 463.539 380.560, 463.539 370.560, 463.539 360.560, 463.539 350.560, 463.539 343.440, 463.539 " />
            <path fill="none" stroke-width="1.5" stroke-linecap="round" stroke-opacity="1.0" stroke="rgb(0, 0, 0)" stroke-linejoin="round" d=" M 343.440, 497.251 353.440, 497.251 363.440, 497.251 373.440, 497.251 383.440, 497.251 393.440, 497.251 403.440, 497.251 413.440, 497.251 423.440, 497.251 433.440, 497.251 443.440, 497.251 453.440, 497.251 463.440, 497.251 473.440, 497.251 483.440, 497.251 493.440, 497.251 503.440, 497.251 513.440, 497.251 523.440, 497.251 533.440, 497.251 543.440, 497.251 553.440, 497.251 563.440, 497.251 573.440, 497.251 583.440, 497.251 593.440, 497.251 603.440, 497.251 613.440, 497.251 623.440, 497.251 633.440, 497.251 643.440, 497.251 653.440, 497.251 663.440, 497.251 673.440, 497.251 680.560, 497.251 " />
            <path fill="none" stroke-width="1.5" stroke-linecap="round" stroke-opacity="1.0" stroke="rgb(0, 0, 0)" stroke-linejoin="round" d=" M 343.440, 227.556 343.440, 237.556 343.440, 247.556 343.440, 257.556 343.440, 267.556 343.440, 277.556 343.440, 287.556 343.440, 297.556 343.440, 307.556 343.440, 317.556 343.440, 327.556 343.440, 337.556 343.440, 347.556 343.440, 357.556 343.440, 367.556 343.440, 377.556 343.440, 387.556 343.440, 396.115 353.440, 396.115 363.440, 396.115 373.440, 396.115 383.440, 396.115 393.440, 396.115 403.440, 396.115 413.440, 396.115 423.440, 396.115 433.440, 396.115 443.440, 396.115 453.440, 396.115 463.440, 396.115 473.440, 396.115 483.440, 396.115 493.440, 396.115 503.440, 396.115 513.440, 396.115 523.440, 396.115 533.440, 396.115 543.440, 396.115 553.440, 396.115 563.440, 396.115 573.440, 396.115 583.440, 396.115 593.440, 396.115 603.440, 396.115 613.440, 396.115 623.440, 396.115 633.440, 396.115 643.440, 396.115 653.440, 396.115 663.440, 396.115 673.440, 396.115 680.560, 396.115 680.560, 386.115 680.560, 376.115 680.560, 366.115 680.560, 356.115 680.560, 346.115 680.560, 336.115 680.560, 326.115 680.560, 316.115 680.560, 306.115 680.560, 296.115 680.560, 286.115 680.560, 276.115 680.560, 266.115 680.560, 256.115 680.560, 246.115 680.560, 236.115 680.560, 227.556 " />
            <path fill="none" stroke-width="1.5" stroke-linecap="round" stroke-opacity="1.0" stroke="rgb(0, 0, 0)" stroke-linejoin="round" d=" M 305.514, 362.403 305.514, 372.403 305.514, 382.403 305.514, 392.403 305.514, 402.403 305.514, 412.403 305.514, 422.403 305.514, 429.827 305.514, 429.827 315.514, 429.827 325.514, 429.827 335.514, 429.827 339.226, 429.827 339.226, 429.827 339.226, 419.827 339.226, 409.827 339.226, 399.827 339.226, 389.827 339.226, 379.827 339.226, 369.827 339.226, 362.403 339.226, 362.403 329.226, 362.403 319.226, 362.403 309.226, 362.403 305.514, 362.403 " />
            <path fill="none" stroke-width="1.5" stroke-linecap="round" stroke-opacity="1.0" stroke="rgb(0, 0, 0)" stroke-linejoin="round" d=" M 305.514, 429.827 315.514, 429.827 325.514, 429.827 335.514, 429.827 339.226, 429.827 " />
            <path fill="none" stroke-width="1.5" stroke-linecap="round" stroke-opacity="1.0" stroke="rgb(0, 0, 0)" stroke-linejoin="round" d=" M 684.774, 362.403 684.774, 362.403 684.774, 372.403 684.774, 382.403 684.774, 392.403 684.774, 402.403 684.774, 412.403 684.774, 422.403 684.774, 429.827 684.774, 429.827 694.774, 429.827 704.774, 429.827 714.774, 429.827 718.486, 429.827 718.486, 429.827 718.486, 419.827 718.486, 409.827 718.486, 399.827 718.486, 389.827 718.486, 379.827 718.486, 369.827 718.486, 362.403 718.486, 362.403 708.486, 362.403 698.486, 362.403 688.486, 362.403 684.774, 362.403 " />
            <path fill="none" stroke-width="1.5" stroke-linecap="round" stroke-opacity="1.0" stroke="rgb(0, 0, 0)" stroke-linejoin="round" d=" M 684.774, 429.827 694.774, 429.827 704.774, 429.827 714.774, 429.827 718.486, 429.827 " />
            <path fill="none" stroke-width="1.5" stroke-linecap="round" stroke-opacity="1.0" stroke="rgb(0, 0, 0)" stroke-linejoin="round" d=" M 406.650, 585.745 406.245, 585.745 " />
            <path fill="none" stroke-width="1.5" stroke-linecap="round" stroke-opacity="1.0" stroke="rgb(0, 0, 0)" stroke-linejoin="round" d=" M 659.490, 585.745 659.085, 585.745 " />
            <path fill="none" stroke-width="1.5" stroke-linecap="round" stroke-opacity="1.0" stroke="rgb(0, 0, 0)" stroke-linejoin="round" d=" M 680.560, 227.556 670.560, 227.556 660.560, 227.556 650.560, 227.556 640.560, 227.556 630.560, 227.556 620.560, 227.556 610.560, 227.556 600.560, 227.556 590.560, 227.556 580.560, 227.556 570.560, 227.556 560.560, 227.556 550.560, 227.556 540.560, 227.556 530.560, 227.556 520.560, 227.556 510.560, 227.556 500.560, 227.556 490.560, 227.556 480.560, 227.556 470.560, 227.556 460.560, 227.556 450.560, 227.556 440.560, 227.556 430.560, 227.556 420.560, 227.556 410.560, 227.556 400.560, 227.556 390.560, 227.556 380.560, 227.556 370.560, 227.556 360.560, 227.556 350.560, 227.556 343.440, 227.556 " />
        </g>
    </g>
    <g id="ViewLayer_TechnicalLines.003" inkscape:groupmode="lineset" inkscape:label="ViewLayer_TechnicalLines.003">
        <g inkscape:groupmode="layer" id="strokes" inkscape:label="strokes">
            <path fill="none" stroke-width="1.5" stroke-linecap="round" stroke-opacity="1.0" stroke="rgb(0, 0, 0)" stroke-linejoin="round" d=" M 406.650, 796.444 406.650, 786.444 406.650, 776.444 406.650, 766.444 406.650, 756.444 406.650, 746.444 406.650, 736.444 406.650, 726.444 406.650, 716.444 406.650, 706.444 406.650, 696.444 406.650, 686.444 406.650, 676.444 406.650, 666.444 406.650, 656.444 406.650, 646.444 406.650, 636.444 406.650, 626.444 406.650, 616.444 406.650, 606.444 406.650, 596.444 406.650, 585.745 " />
            <path fill="none" stroke-width="1.5" stroke-linecap="round" stroke-opacity="1.0" stroke="rgb(0, 0, 0)" stroke-linejoin="round" d=" M 364.510, 796.444 364.915, 796.444 366.114, 796.444 368.061, 796.444 370.682, 796.444 373.874, 796.444 377.517, 796.444 381.470, 796.444 385.580, 796.444 389.691, 796.444 393.643, 796.444 397.286, 796.444 400.479, 796.444 403.099, 796.444 405.046, 796.444 406.245, 796.444 406.650, 796.444 " />
            <path fill="none" stroke-width="1.5" stroke-linecap="round" stroke-opacity="1.0" stroke="rgb(0, 0, 0)" stroke-linejoin="round" d=" M 406.650, 585.745 406.245, 585.745 405.046, 585.745 403.099, 585.745 400.479, 585.745 397.286, 585.745 393.643, 585.745 389.691, 585.745 385.580, 585.745 381.470, 585.745 377.517, 585.745 373.874, 585.745 370.682, 585.745 368.061, 585.745 366.114, 585.745 364.915, 585.745 364.510, 585.745 364.510, 595.745 364.510, 605.745 364.510, 615.745 364.510, 625.745 364.510, 635.745 364.510, 645.745 364.510, 655.745 364.510, 665.745 364.510, 675.745 364.510, 685.745 364.510, 695.745 364.510, 705.745 364.510, 715.745 364.510, 725.745 364.510, 735.745 364.510, 745.745 364.510, 755.745 364.510, 765.745 364.510, 775.745 364.510, 785.745 364.510, 796.444 " />
            <path fill="none" stroke-width="1.5" stroke-linecap="round" stroke-opacity="1.0" stroke="rgb(0, 0, 0)" stroke-linejoin="round" d=" M 659.490, 796.444 659.490, 786.444 659.490, 776.444 659.490, 766.444 659.490, 756.444 659.490, 746.444 659.490, 736.444 659.490, 726.444 659.490, 716.444 659.490, 706.444 659.490, 696.444 659.490, 686.444 659.490, 676.444 659.490, 666.444 659.490, 656.444 659.490, 646.444 659.490, 636.444 659.490, 626.444 659.490, 616.444 659.490, 606.444 659.490, 596.444 659.490, 585.745 " />
            <path fill="none" stroke-width="1.5" stroke-linecap="round" stroke-opacity="1.0" stroke="rgb(0, 0, 0)" stroke-linejoin="round" d=" M 659.490, 585.745 659.085, 585.745 657.886, 585.745 655.939, 585.745 653.318, 585.745 650.126, 585.745 646.483, 585.745 642.530, 585.745 638.420, 585.745 634.309, 585.745 630.357, 585.745 626.714, 585.745 623.521, 585.745 620.901, 585.745 618.954, 585.745 617.755, 585.745 617.350, 585.745 617.350, 595.745 617.350, 605.745 617.350, 615.745 617.350, 625.745 617.350, 635.745 617.350, 645.745 617.350, 655.745 617.350, 665.745 617.350, 675.745 617.350, 685.745 617.350, 695.745 617.350, 705.745 617.350, 715.745 617.350, 725.745 617.350, 735.745 617.350, 745.745 617.350, 755.745 617.350, 765.745 617.350, 775.745 617.350, 785.745 617.350, 796.444 617.755, 796.444 618.954, 796.444 620.901, 796.444 623.521, 796.444 626.714, 796.444 630.357, 796.444 634.309, 796.444 638.420, 796.444 642.530, 796.444 646.483, 796.444 650.126, 796.444 653.318, 796.444 655.939, 796.444 657.886, 796.444 659.085, 796.444 659.490, 796.444 " />
            <path fill="none" stroke-width="1.5" stroke-linecap="round" stroke-opacity="1.0" stroke="rgb(0, 0, 0)" stroke-linejoin="round" d=" M 364.915, 585.745 364.510, 585.745 " />
            <path fill="none" stroke-width="1.5" stroke-linecap="round" stroke-opacity="1.0" stroke="rgb(0, 0, 0)" stroke-linejoin="round" d=" M 617.755, 585.745 617.350, 585.745 " />
            <path fill="none" stroke-width="1.5" stroke-linecap="round" stroke-opacity="1.0" stroke="rgb(0, 0, 0)" stroke-linejoin="round" d=" M 343.440, 463.539 343.440, 473.539 343.440, 483.539 343.440, 493.539 343.440, 497.251 343.440, 497.251 353.440, 497.251 363.440, 497.251 373.440, 497.251 383.440, 497.251 393.440, 497.251 403.440, 497.251 413.440, 497.251 423.440, 497.251 433.440, 497.251 443.440, 497.251 453.440, 497.251 463.440, 497.251 473.440, 497.251 483.440, 497.251 493.440, 497.251 503.440, 497.251 513.440, 497.251 523.440, 497.251 533.440, 497.251 543.440, 497.251 553.440, 497.251 563.440, 497.251 573.440, 497.251 583.440, 497.251 593.440, 497.251 603.440, 497.251 613.440, 497.251 623.440, 497.251 633.440, 497.251 643.440, 497.251 653.440, 497.251 663.440, 497.251 673.440, 497.251 680.560, 497.251 680.560, 497.251 680.560, 487.251 680.560, 477.251 680.560, 467.251 680.560, 463.539 670.560, 463.539 660.560, 463.539 650.560, 463.539 640.560, 463.539 630.560, 463.539 620.560, 463.539 610.560, 463.539 600.560, 463.539 590.560, 463.539 580.560, 463.539 570.560, 463.539 560.560, 463.539 550.560, 463.539 540.560, 463.539 530.560, 463.539 520.560, 463.539 510.560, 463.539 500.560, 463.539 490.560, 463.539 480.560, 463.539 470.560, 463.539 460.560, 463.539 450.560, 463.539 440.560, 463.539 430.560, 463.539 420.560, 463.539 410.560, 463.539 400.560, 463.539 390.560, 463.539 380.560, 463.539 370.560, 463.539 360.560, 463.539 350.560, 463.539 343.440, 463.539 " />
            <path fill="none" stroke-width="1.5" stroke-linecap="round" stroke-opacity="1.0" stroke="rgb(0, 0, 0)" stroke-linejoin="round" d=" M 343.440, 497.251 353.440, 497.251 363.440, 497.251 373.440, 497.251 383.440, 497.251 393.440, 497.251 403.440, 497.251 413.440, 497.251 423.440, 497.251 433.440, 497.251 443.440, 497.251 453.440, 497.251 463.440, 497.251 473.440, 497.251 483.440, 497.251 493.440, 497.251 503.440, 497.251 513.440, 497.251 523.440, 497.251 533.440, 497.251 543.440, 497.251 553.440, 497.251 563.440, 497.251 573.440, 497.251 583.440, 497.251 593.440, 497.251 603.440, 497.251 613.440, 497.251 623.440, 497.251 633.440, 497.251 643.440, 497.251 653.440, 497.251 663.440, 497.251 673.440, 497.251 680.560, 497.251 " />
            <path fill="none" stroke-width="1.5" stroke-linecap="round" stroke-opacity="1.0" stroke="rgb(0, 0, 0)" stroke-linejoin="round" d=" M 343.440, 227.556 343.440, 237.556 343.440, 247.556 343.440, 257.556 343.440, 267.556 343.440, 277.556 343.440, 287.556 343.440, 297.556 343.440, 307.556 343.440, 317.556 343.440, 327.556 343.440, 337.556 343.440, 347.556 343.440, 357.556 343.440, 367.556 343.440, 377.556 343.440, 387.556 343.440, 396.115 353.440, 396.115 363.440, 396.115 373.440, 396.115 383.440, 396.115 393.440, 396.115 403.440, 396.115 413.440, 396.115 423.440, 396.115 433.440, 396.115 443.440, 396.115 453.440, 396.115 463.440, 396.115 473.440, 396.115 483.440, 396.115 493.440, 396.115 503.440, 396.115 513.440, 396.115 523.440, 396.115 533.440, 396.115 543.440, 396.115 553.440, 396.115 563.440, 396.115 573.440, 396.115 583.440, 396.115 593.440, 396.115 603.440, 396.115 613.440, 396.115 623.440, 396.115 633.440, 396.115 643.440, 396.115 653.440, 396.115 663.440, 396.115 673.440, 396.115 680.560, 396.115 680.560, 386.115 680.560, 376.115 680.560, 366.115 680.560, 356.115 680.560, 346.115 680.560, 336.115 680.560, 326.115 680.560, 316.115 680.560, 306.115 680.560, 296.115 680.560, 286.115 680.560, 276.115 680.560, 266.115 680.560, 256.115 680.560, 246.115 680.560, 236.115 680.560, 227.556 " />
            <path fill="none" stroke-width="1.5" stroke-linecap="round" stroke-opacity="1.0" stroke="rgb(0, 0, 0)" stroke-linejoin="round" d=" M 305.514, 362.403 305.514, 372.403 305.514, 382.403 305.514, 392.403 305.514, 402.403 305.514, 412.403 305.514, 422.403 305.514, 429.827 305.514, 429.827 315.514, 429.827 325.514, 429.827 335.514, 429.827 339.226, 429.827 339.226, 429.827 339.226, 419.827 339.226, 409.827 339.226, 399.827 339.226, 389.827 339.226, 379.827 339.226, 369.827 339.226, 362.403 339.226, 362.403 329.226, 362.403 319.226, 362.403 309.226, 362.403 305.514, 362.403 " />
            <path fill="none" stroke-width="1.5" stroke-linecap="round" stroke-opacity="1.0" stroke="rgb(0, 0, 0)" stroke-linejoin="round" d=" M 305.514, 429.827 315.514, 429.827 325.514, 429.827 335.514, 429.827 339.226, 429.827 " />
            <path fill="none" stroke-width="1.5" stroke-linecap="round" stroke-opacity="1.0" stroke="rgb(0, 0, 0)" stroke-linejoin="round" d=" M 684.774, 362.403 684.774, 362.403 684.774, 372.403 684.774, 382.403 684.774, 392.403 684.774, 402.403 684.774, 412.403 684.774, 422.403 684.774, 429.827 684.774, 429.827 694.774, 429.827 704.774, 429.827 714.774, 429.827 718.486, 429.827 718.486, 429.827 718.486, 419.827 718.486, 409.827 718.486, 399.827 718.486, 389.827 718.486, 379.827 718.486, 369.827 718.486, 362.403 718.486, 362.403 708.486, 362.403 698.486, 362.403 688.486, 362.403 684.774, 362.403 " />
            <path fill="none" stroke-width="1.5" stroke-linecap="round" stroke-opacity="1.0" stroke="rgb(0, 0, 0)" stroke-linejoin="round" d=" M 684.774, 429.827 694.774, 429.827 704.774, 429.827 714.774, 429.827 718.486, 429.827 " />
            <path fill="none" stroke-width="1.5" stroke-linecap="round" stroke-opacity="1.0" stroke="rgb(0, 0, 0)" stroke-linejoin="round" d=" M 406.650, 585.745 406.245, 585.745 " />
            <path fill="none" stroke-width="1.5" stroke-linecap="round" stroke-opacity="1.0" stroke="rgb(0, 0, 0)" stroke-linejoin="round" d=" M 659.490, 585.745 659.085, 585.745 " />
            <path fill="none" stroke-width="1.5" stroke-linecap="round" stroke-opacity="1.0" stroke="rgb(0, 0, 0)" stroke-linejoin="round" d=" M 680.560, 227.556 670.560, 227.556 660.560, 227.556 650.560, 227.556 640.560, 227.556 630.560, 227.556 620.560, 227.556 610.560, 227.556 600.560, 227.556 590.560, 227.556 580.560, 227.556 570.560, 227.556 560.560, 227.556 550.560, 227.556 540.560, 227.556 530.560, 227.556 520.560, 227.556 510.560, 227.556 500.560, 227.556 490.560, 227.556 480.560, 227.556 470.560, 227.556 460.560, 227.556 450.560, 227.556 440.560, 227.556 430.560, 227.556 420.560, 227.556 410.560, 227.556 400.560, 227.556 390.560, 227.556 380.560, 227.556 370.560, 227.556 360.560, 227.556 350.560, 227.556 343.440, 227.556 " />
        </g>
    </g>
    <g id="ViewLayer_TechnicalLines.004" xmlns:inkscape="http://www.inkscape.org/namespaces/inkscape" inkscape:groupmode="lineset" inkscape:label="ViewLayer_TechnicalLines.004">
        <g xmlns:inkscape="http://www.inkscape.org/namespaces/inkscape" inkscape:groupmode="layer" id="strokes" inkscape:label="strokes">
            <path fill="none" stroke-width="1.5" stroke-linecap="round" stroke-opacity="1.0" stroke="rgb(0, 0, 0)" stroke-linejoin="round" d=" M 406.650, 796.444 406.650, 786.444 406.650, 776.444 406.650, 766.444 406.650, 756.444 406.650, 746.444 406.650, 736.444 406.650, 726.444 406.650, 716.444 406.650, 706.444 406.650, 696.444 406.650, 686.444 406.650, 676.444 406.650, 666.444 406.650, 656.444 406.650, 646.444 406.650, 636.444 406.650, 626.444 406.650, 616.444 406.650, 606.444 406.650, 596.444 406.650, 585.745 " />
            <path fill="none" stroke-width="1.5" stroke-linecap="round" stroke-opacity="1.0" stroke="rgb(0, 0, 0)" stroke-linejoin="round" d=" M 364.510, 796.444 364.915, 796.444 366.114, 796.444 368.061, 796.444 370.682, 796.444 373.874, 796.444 377.517, 796.444 381.470, 796.444 385.580, 796.444 389.691, 796.444 393.643, 796.444 397.286, 796.444 400.479, 796.444 403.099, 796.444 405.046, 796.444 406.245, 796.444 406.650, 796.444 " />
            <path fill="none" stroke-width="1.5" stroke-linecap="round" stroke-opacity="1.0" stroke="rgb(0, 0, 0)" stroke-linejoin="round" d=" M 406.650, 585.745 406.245, 585.745 405.046, 585.745 403.099, 585.745 400.479, 585.745 397.286, 585.745 393.643, 585.745 389.691, 585.745 385.580, 585.745 381.470, 585.745 377.517, 585.745 373.874, 585.745 370.682, 585.745 368.061, 585.745 366.114, 585.745 364.915, 585.745 364.510, 585.745 364.510, 595.745 364.510, 605.745 364.510, 615.745 364.510, 625.745 364.510, 635.745 364.510, 645.745 364.510, 655.745 364.510, 665.745 364.510, 675.745 364.510, 685.745 364.510, 695.745 364.510, 705.745 364.510, 715.745 364.510, 725.745 364.510, 735.745 364.510, 745.745 364.510, 755.745 364.510, 765.745 364.510, 775.745 364.510, 785.745 364.510, 796.444 " />
            <path fill="none" stroke-width="1.5" stroke-linecap="round" stroke-opacity="1.0" stroke="rgb(0, 0, 0)" stroke-linejoin="round" d=" M 659.490, 796.444 659.490, 786.444 659.490, 776.444 659.490, 766.444 659.490, 756.444 659.490, 746.444 659.490, 736.444 659.490, 726.444 659.490, 716.444 659.490, 706.444 659.490, 696.444 659.490, 686.444 659.490, 676.444 659.490, 666.444 659.490, 656.444 659.490, 646.444 659.490, 636.444 659.490, 626.444 659.490, 616.444 659.490, 606.444 659.490, 596.444 659.490, 585.745 " />
            <path fill="none" stroke-width="1.5" stroke-linecap="round" stroke-opacity="1.0" stroke="rgb(0, 0, 0)" stroke-linejoin="round" d=" M 659.490, 585.745 659.085, 585.745 657.886, 585.745 655.939, 585.745 653.318, 585.745 650.126, 585.745 646.483, 585.745 642.530, 585.745 638.420, 585.745 634.309, 585.745 630.357, 585.745 626.714, 585.745 623.521, 585.745 620.901, 585.745 618.954, 585.745 617.755, 585.745 617.350, 585.745 617.350, 595.745 617.350, 605.745 617.350, 615.745 617.350, 625.745 617.350, 635.745 617.350, 645.745 617.350, 655.745 617.350, 665.745 617.350, 675.745 617.350, 685.745 617.350, 695.745 617.350, 705.745 617.350, 715.745 617.350, 725.745 617.350, 735.745 617.350, 745.745 617.350, 755.745 617.350, 765.745 617.350, 775.745 617.350, 785.745 617.350, 796.444 617.755, 796.444 618.954, 796.444 620.901, 796.444 623.521, 796.444 626.714, 796.444 630.357, 796.444 634.309, 796.444 638.420, 796.444 642.530, 796.444 646.483, 796.444 650.126, 796.444 653.318, 796.444 655.939, 796.444 657.886, 796.444 659.085, 796.444 659.490, 796.444 " />
            <path fill="none" stroke-width="1.5" stroke-linecap="round" stroke-opacity="1.0" stroke="rgb(0, 0, 0)" stroke-linejoin="round" d=" M 364.915, 585.745 364.510, 585.745 " />
            <path fill="none" stroke-width="1.5" stroke-linecap="round" stroke-opacity="1.0" stroke="rgb(0, 0, 0)" stroke-linejoin="round" d=" M 617.755, 585.745 617.350, 585.745 " />
            <path fill="none" stroke-width="1.5" stroke-linecap="round" stroke-opacity="1.0" stroke="rgb(0, 0, 0)" stroke-linejoin="round" d=" M 343.440, 463.539 343.440, 473.539 343.440, 483.539 343.440, 493.539 343.440, 497.251 343.440, 497.251 353.440, 497.251 363.440, 497.251 373.440, 497.251 383.440, 497.251 393.440, 497.251 403.440, 497.251 413.440, 497.251 423.440, 497.251 433.440, 497.251 443.440, 497.251 453.440, 497.251 463.440, 497.251 473.440, 497.251 483.440, 497.251 493.440, 497.251 503.440, 497.251 513.440, 497.251 523.440, 497.251 533.440, 497.251 543.440, 497.251 553.440, 497.251 563.440, 497.251 573.440, 497.251 583.440, 497.251 593.440, 497.251 603.440, 497.251 613.440, 497.251 623.440, 497.251 633.440, 497.251 643.440, 497.251 653.440, 497.251 663.440, 497.251 673.440, 497.251 680.560, 497.251 680.560, 497.251 680.560, 487.251 680.560, 477.251 680.560, 467.251 680.560, 463.539 670.560, 463.539 660.560, 463.539 650.560, 463.539 640.560, 463.539 630.560, 463.539 620.560, 463.539 610.560, 463.539 600.560, 463.539 590.560, 463.539 580.560, 463.539 570.560, 463.539 560.560, 463.539 550.560, 463.539 540.560, 463.539 530.560, 463.539 520.560, 463.539 510.560, 463.539 500.560, 463.539 490.560, 463.539 480.560, 463.539 470.560, 463.539 460.560, 463.539 450.560, 463.539 440.560, 463.539 430.560, 463.539 420.560, 463.539 410.560, 463.539 400.560, 463.539 390.560, 463.539 380.560, 463.539 370.560, 463.539 360.560, 463.539 350.560, 463.539 343.440, 463.539 " />
            <path fill="none" stroke-width="1.5" stroke-linecap="round" stroke-opacity="1.0" stroke="rgb(0, 0, 0)" stroke-linejoin="round" d=" M 343.440, 497.251 353.440, 497.251 363.440, 497.251 373.440, 497.251 383.440, 497.251 393.440, 497.251 403.440, 497.251 413.440, 497.251 423.440, 497.251 433.440, 497.251 443.440, 497.251 453.440, 497.251 463.440, 497.251 473.440, 497.251 483.440, 497.251 493.440, 497.251 503.440, 497.251 513.440, 497.251 523.440, 497.251 533.440, 497.251 543.440, 497.251 553.440, 497.251 563.440, 497.251 573.440, 497.251 583.440, 497.251 593.440, 497.251 603.440, 497.251 613.440, 497.251 623.440, 497.251 633.440, 497.251 643.440, 497.251 653.440, 497.251 663.440, 497.251 673.440, 497.251 680.560, 497.251 " />
            <path fill="none" stroke-width="1.5" stroke-linecap="round" stroke-opacity="1.0" stroke="rgb(0, 0, 0)" stroke-linejoin="round" d=" M 343.440, 227.556 343.440, 237.556 343.440, 247.556 343.440, 257.556 343.440, 267.556 343.440, 277.556 343.440, 287.556 343.440, 297.556 343.440, 307.556 343.440, 317.556 343.440, 327.556 343.440, 337.556 343.440, 347.556 343.440, 357.556 343.440, 367.556 343.440, 377.556 343.440, 387.556 343.440, 396.115 353.440, 396.115 363.440, 396.115 373.440, 396.115 383.440, 396.115 393.440, 396.115 403.440, 396.115 413.440, 396.115 423.440, 396.115 433.440, 396.115 443.440, 396.115 453.440, 396.115 463.440, 396.115 473.440, 396.115 483.440, 396.115 493.440, 396.115 503.440, 396.115 513.440, 396.115 523.440, 396.115 533.440, 396.115 543.440, 396.115 553.440, 396.115 563.440, 396.115 573.440, 396.115 583.440, 396.115 593.440, 396.115 603.440, 396.115 613.440, 396.115 623.440, 396.115 633.440, 396.115 643.440, 396.115 653.440, 396.115 663.440, 396.115 673.440, 396.115 680.560, 396.115 680.560, 386.115 680.560, 376.115 680.560, 366.115 680.560, 356.115 680.560, 346.115 680.560, 336.115 680.560, 326.115 680.560, 316.115 680.560, 306.115 680.560, 296.115 680.560, 286.115 680.560, 276.115 680.560, 266.115 680.560, 256.115 680.560, 246.115 680.560, 236.115 680.560, 227.556 " />
            <path fill="none" stroke-width="1.5" stroke-linecap="round" stroke-opacity="1.0" stroke="rgb(0, 0, 0)" stroke-linejoin="round" d=" M 305.514, 362.403 305.514, 372.403 305.514, 382.403 305.514, 392.403 305.514, 402.403 305.514, 412.403 305.514, 422.403 305.514, 429.827 305.514, 429.827 315.514, 429.827 325.514, 429.827 335.514, 429.827 339.226, 429.827 339.226, 429.827 339.226, 419.827 339.226, 409.827 339.226, 399.827 339.226, 389.827 339.226, 379.827 339.226, 369.827 339.226, 362.403 339.226, 362.403 329.226, 362.403 319.226, 362.403 309.226, 362.403 305.514, 362.403 " />
            <path fill="none" stroke-width="1.5" stroke-linecap="round" stroke-opacity="1.0" stroke="rgb(0, 0, 0)" stroke-linejoin="round" d=" M 305.514, 429.827 315.514, 429.827 325.514, 429.827 335.514, 429.827 339.226, 429.827 " />
            <path fill="none" stroke-width="1.5" stroke-linecap="round" stroke-opacity="1.0" stroke="rgb(0, 0, 0)" stroke-linejoin="round" d=" M 684.774, 362.403 684.774, 362.403 684.774, 372.403 684.774, 382.403 684.774, 392.403 684.774, 402.403 684.774, 412.403 684.774, 422.403 684.774, 429.827 684.774, 429.827 694.774, 429.827 704.774, 429.827 714.774, 429.827 718.486, 429.827 718.486, 429.827 718.486, 419.827 718.486, 409.827 718.486, 399.827 718.486, 389.827 718.486, 379.827 718.486, 369.827 718.486, 362.403 718.486, 362.403 708.486, 362.403 698.486, 362.403 688.486, 362.403 684.774, 362.403 " />
            <path fill="none" stroke-width="1.5" stroke-linecap="round" stroke-opacity="1.0" stroke="rgb(0, 0, 0)" stroke-linejoin="round" d=" M 684.774, 429.827 694.774, 429.827 704.774, 429.827 714.774, 429.827 718.486, 429.827 " />
            <path fill="none" stroke-width="1.5" stroke-linecap="round" stroke-opacity="1.0" stroke="rgb(0, 0, 0)" stroke-linejoin="round" d=" M 406.650, 585.745 406.245, 585.745 " />
            <path fill="none" stroke-width="1.5" stroke-linecap="round" stroke-opacity="1.0" stroke="rgb(0, 0, 0)" stroke-linejoin="round" d=" M 659.490, 585.745 659.085, 585.745 " />
            <path fill="none" stroke-width="1.5" stroke-linecap="round" stroke-opacity="1.0" stroke="rgb(0, 0, 0)" stroke-linejoin="round" d=" M 680.560, 227.556 670.560, 227.556 660.560, 227.556 650.560, 227.556 640.560, 227.556 630.560, 227.556 620.560, 227.556 610.560, 227.556 600.560, 227.556 590.560, 227.556 580.560, 227.556 570.560, 227.556 560.560, 227.556 550.560, 227.556 540.560, 227.556 530.560, 227.556 520.560, 227.556 510.560, 227.556 500.560, 227.556 490.560, 227.556 480.560, 227.556 470.560, 227.556 460.560, 227.556 450.560, 227.556 440.560, 227.556 430.560, 227.556 420.560, 227.556 410.560, 227.556 400.560, 227.556 390.560, 227.556 380.560, 227.556 370.560, 227.556 360.560, 227.556 350.560, 227.556 343.440, 227.556 " />
        </g>
    </g>
</svg>
