<?xml version='1.0' encoding='ascii'?>
<svg xmlns="http://www.w3.org/2000/svg" xmlns:inkscape="http://www.inkscape.org/namespaces/inkscape" version="1.1" width="1024" height="1024">
    <g id="ViewLayer_LineSet" inkscape:groupmode="lineset" inkscape:label="ViewLayer_LineSet">
        <g inkscape:groupmode="layer" id="strokes" inkscape:label="strokes">
            <path fill="none" stroke-width="3.0" stroke-linecap="butt" stroke-opacity="1.0" stroke="rgb(0, 0, 0)" stroke-linejoin="round" d=" M 399.760, 796.444 399.760, 796.444 399.760, 786.444 399.760, 776.444 399.760, 766.444 399.760, 756.444 399.760, 746.444 399.760, 736.444 399.760, 726.444 399.760, 716.444 399.760, 706.444 399.760, 696.444 399.760, 686.444 399.760, 676.444 399.760, 666.444 399.760, 656.444 399.760, 646.444 399.760, 636.444 399.760, 626.444 399.760, 616.444 399.760, 611.940 " />
            <path fill="none" stroke-width="3.0" stroke-linecap="butt" stroke-opacity="1.0" stroke="rgb(0, 0, 0)" stroke-linejoin="round" d=" M 397.419, 611.940 394.577, 611.940 " />
            <path fill="none" stroke-width="3.0" stroke-linecap="butt" stroke-opacity="1.0" stroke="rgb(0, 0, 0)" stroke-linejoin="round" d=" M 399.760, 796.444 399.760, 786.444 399.760, 776.444 399.760, 766.444 399.760, 756.444 399.760, 746.444 399.760, 736.444 399.760, 726.444 399.760, 716.444 399.760, 706.444 399.760, 696.444 399.760, 686.444 399.760, 676.444 399.760, 666.444 399.760, 656.444 399.760, 646.444 399.760, 636.444 399.760, 626.444 399.760, 616.444 399.760, 611.940 399.169, 611.940 397.419, 611.940 394.577, 611.940 390.753, 611.940 386.093, 611.940 380.777, 611.940 375.008, 611.940 369.009, 611.940 363.010, 611.940 357.241, 611.940 351.925, 611.940 347.265, 611.940 343.441, 611.940 340.599, 611.940 338.849, 611.940 338.258, 611.940 338.258, 621.940 338.258, 631.940 338.258, 641.940 338.258, 651.940 338.258, 661.940 338.258, 671.940 338.258, 681.940 338.258, 691.940 338.258, 701.940 338.258, 711.940 338.258, 721.940 338.258, 731.940 338.258, 741.940 338.258, 751.940 338.258, 761.940 338.258, 771.940 338.258, 781.940 338.258, 791.940 338.258, 796.444 338.258, 796.444 338.849, 796.444 340.599, 796.444 343.441, 796.444 347.265, 796.444 351.925, 796.444 357.241, 796.444 363.010, 796.444 369.009, 796.444 375.008, 796.444 380.777, 796.444 386.093, 796.444 390.753, 796.444 394.577, 796.444 397.419, 796.444 399.169, 796.444 399.760, 796.444 " />
            <path fill="none" stroke-width="3.0" stroke-linecap="butt" stroke-opacity="1.0" stroke="rgb(0, 0, 0)" stroke-linejoin="round" d=" M 704.927, 611.940 702.085, 611.940 " />
            <path fill="none" stroke-width="3.0" stroke-linecap="butt" stroke-opacity="1.0" stroke="rgb(0, 0, 0)" stroke-linejoin="round" d=" M 648.107, 611.940 650.948, 611.940 " />
            <path fill="none" stroke-width="3.0" stroke-linecap="butt" stroke-opacity="1.0" stroke="rgb(0, 0, 0)" stroke-linejoin="round" d=" M 702.085, 611.940 704.927, 611.940 " />
            <path fill="none" stroke-width="3.0" stroke-linecap="butt" stroke-opacity="1.0" stroke="rgb(0, 0, 0)" stroke-linejoin="round" d=" M 707.267, 796.444 707.267, 786.444 707.267, 776.444 707.267, 766.444 707.267, 756.444 707.267, 746.444 707.267, 736.444 707.267, 726.444 707.267, 716.444 707.267, 706.444 707.267, 696.444 707.267, 686.444 707.267, 676.444 707.267, 666.444 707.267, 656.444 707.267, 646.444 707.267, 636.444 707.267, 626.444 707.267, 616.444 707.267, 611.940 706.676, 611.940 704.927, 611.940 702.085, 611.940 698.261, 611.940 693.601, 611.940 688.284, 611.940 682.516, 611.940 676.517, 611.940 670.517, 611.940 664.749, 611.940 659.432, 611.940 654.773, 611.940 650.948, 611.940 648.107, 611.940 646.357, 611.940 645.766, 611.940 645.766, 621.940 645.766, 631.940 645.766, 641.940 645.766, 651.940 645.766, 661.940 645.766, 671.940 645.766, 681.940 645.766, 691.940 645.766, 701.940 645.766, 711.940 645.766, 721.940 645.766, 731.940 645.766, 741.940 645.766, 751.940 645.766, 761.940 645.766, 771.940 645.766, 781.940 645.766, 791.940 645.766, 796.444 646.357, 796.444 648.107, 796.444 650.948, 796.444 654.773, 796.444 659.432, 796.444 664.749, 796.444 670.517, 796.444 676.517, 796.444 682.516, 796.444 688.284, 796.444 693.601, 796.444 698.261, 796.444 702.085, 796.444 704.927, 796.444 706.676, 796.444 707.267, 796.444 " />
            <path fill="none" stroke-width="3.0" stroke-linecap="butt" stroke-opacity="1.0" stroke="rgb(0, 0, 0)" stroke-linejoin="round" d=" M 738.018, 541.213 738.018, 531.213 738.018, 521.213 738.018, 511.213 738.018, 501.213 738.018, 498.162 738.018, 498.162 728.018, 498.162 718.018, 498.162 708.018, 498.162 698.018, 498.162 688.018, 498.162 678.018, 498.162 668.018, 498.162 658.018, 498.162 648.018, 498.162 638.018, 498.162 628.018, 498.162 618.018, 498.162 608.018, 498.162 598.018, 498.162 588.018, 498.162 578.018, 498.162 568.018, 498.162 558.018, 498.162 548.018, 498.162 538.018, 498.162 528.018, 498.162 518.018, 498.162 508.018, 498.162 498.018, 498.162 488.018, 498.162 478.018, 498.162 468.018, 498.162 458.018, 498.162 448.018, 498.162 438.018, 498.162 428.018, 498.162 418.018, 498.162 408.018, 498.162 398.018, 498.162 388.018, 498.162 378.018, 498.162 368.018, 498.162 358.018, 498.162 348.018, 498.162 338.018, 498.162 328.018, 498.162 318.018, 498.162 307.508, 498.162 307.508, 508.162 307.508, 518.162 307.508, 528.162 307.508, 538.162 307.508, 541.213 307.508, 541.213 317.508, 541.213 327.508, 541.213 337.508, 541.213 347.508, 541.213 357.508, 541.213 367.508, 541.213 377.508, 541.213 387.508, 541.213 397.508, 541.213 407.508, 541.213 417.508, 541.213 427.508, 541.213 437.508, 541.213 447.508, 541.213 457.508, 541.213 467.508, 541.213 477.508, 541.213 487.508, 541.213 497.508, 541.213 507.508, 541.213 517.508, 541.213 527.508, 541.213 537.508, 541.213 547.508, 541.213 557.508, 541.213 567.508, 541.213 577.508, 541.213 587.508, 541.213 597.508, 541.213 607.508, 541.213 617.508, 541.213 627.508, 541.213 637.508, 541.213 647.508, 541.213 657.508, 541.213 667.508, 541.213 677.508, 541.213 687.508, 541.213 697.508, 541.213 707.508, 541.213 717.508, 541.213 727.508, 541.213 738.018, 541.213 " />
            <path fill="none" stroke-width="3.0" stroke-linecap="butt" stroke-opacity="1.0" stroke="rgb(0, 0, 0)" stroke-linejoin="round" d=" M 738.018, 498.162 738.018, 508.162 738.018, 518.162 738.018, 528.162 738.018, 538.162 738.018, 541.213 " />
            <path fill="none" stroke-width="3.0" stroke-linecap="butt" stroke-opacity="1.0" stroke="rgb(0, 0, 0)" stroke-linejoin="round" d=" M 307.508, 541.213 317.508, 541.213 327.508, 541.213 337.508, 541.213 347.508, 541.213 357.508, 541.213 367.508, 541.213 377.508, 541.213 387.508, 541.213 397.508, 541.213 407.508, 541.213 417.508, 541.213 427.508, 541.213 437.508, 541.213 447.508, 541.213 457.508, 541.213 467.508, 541.213 477.508, 541.213 487.508, 541.213 497.508, 541.213 507.508, 541.213 517.508, 541.213 527.508, 541.213 537.508, 541.213 547.508, 541.213 557.508, 541.213 567.508, 541.213 577.508, 541.213 587.508, 541.213 597.508, 541.213 607.508, 541.213 617.508, 541.213 627.508, 541.213 637.508, 541.213 647.508, 541.213 657.508, 541.213 667.508, 541.213 677.508, 541.213 687.508, 541.213 697.508, 541.213 707.508, 541.213 717.508, 541.213 727.508, 541.213 738.018, 541.213 738.018, 541.213 " />
            <path fill="none" stroke-width="3.0" stroke-linecap="butt" stroke-opacity="1.0" stroke="rgb(0, 0, 0)" stroke-linejoin="round" d=" M 329.033, 353.634 329.033, 343.634 329.033, 333.634 329.033, 323.634 329.033, 313.634 329.033, 303.634 329.033, 293.634 329.033, 283.634 329.033, 273.634 329.033, 263.634 329.033, 253.634 329.033, 243.634 329.033, 233.634 329.033, 227.556 329.033, 227.556 319.033, 227.556 309.033, 227.556 299.033, 227.556 289.033, 227.556 285.982, 227.556 285.982, 237.556 285.982, 247.556 285.982, 257.556 285.982, 267.556 285.982, 277.556 285.982, 287.556 285.982, 297.556 285.982, 307.556 285.982, 317.556 285.982, 327.556 285.982, 337.556 285.982, 347.556 285.982, 357.556 285.982, 367.556 285.982, 377.556 285.982, 387.556 285.982, 397.556 285.982, 407.556 285.982, 417.556 285.982, 427.556 285.982, 437.556 285.982, 442.811 285.982, 442.811 295.982, 442.811 305.982, 442.811 315.982, 442.811 325.982, 442.811 329.033, 442.811 329.033, 439.736 " />
            <path fill="none" stroke-width="3.0" stroke-linecap="butt" stroke-opacity="1.0" stroke="rgb(0, 0, 0)" stroke-linejoin="round" d=" M 329.033, 227.556 329.033, 237.556 329.033, 247.556 329.033, 257.556 329.033, 267.556 329.033, 277.556 329.033, 287.556 329.033, 297.556 329.033, 307.556 329.033, 317.556 329.033, 327.556 329.033, 337.556 329.033, 347.556 329.033, 353.634 " />
            <path fill="none" stroke-width="3.0" stroke-linecap="butt" stroke-opacity="1.0" stroke="rgb(0, 0, 0)" stroke-linejoin="round" d=" M 329.033, 442.811 329.033, 442.811 " />
            <path fill="none" stroke-width="3.0" stroke-linecap="butt" stroke-opacity="1.0" stroke="rgb(0, 0, 0)" stroke-linejoin="round" d=" M 285.982, 442.811 295.982, 442.811 305.982, 442.811 315.982, 442.811 325.982, 442.811 329.033, 442.811 329.033, 439.736 329.033, 439.736 " />
            <path fill="none" stroke-width="3.0" stroke-linecap="butt" stroke-opacity="1.0" stroke="rgb(0, 0, 0)" stroke-linejoin="round" d=" M 329.033, 439.736 329.033, 439.736 339.033, 439.736 349.033, 439.736 359.033, 439.736 369.033, 439.736 379.033, 439.736 389.033, 439.736 399.033, 439.736 409.033, 439.736 419.033, 439.736 429.033, 439.736 439.033, 439.736 449.033, 439.736 459.033, 439.736 469.033, 439.736 479.033, 439.736 489.033, 439.736 499.033, 439.736 509.033, 439.736 519.033, 439.736 529.033, 439.736 539.033, 439.736 549.033, 439.736 559.033, 439.736 569.033, 439.736 579.033, 439.736 589.033, 439.736 599.033, 439.736 609.033, 439.736 619.033, 439.736 629.033, 439.736 639.033, 439.736 649.033, 439.736 659.033, 439.736 669.033, 439.736 679.033, 439.736 689.033, 439.736 699.033, 439.736 709.033, 439.736 719.033, 439.736 729.033, 439.736 738.018, 439.736 738.018, 429.736 738.018, 419.736 738.018, 409.736 738.018, 399.736 738.018, 389.736 738.018, 379.736 738.018, 369.736 738.018, 359.736 738.018, 353.634 738.018, 353.634 " />
            <path fill="none" stroke-width="3.0" stroke-linecap="butt" stroke-opacity="1.0" stroke="rgb(0, 0, 0)" stroke-linejoin="round" d=" M 738.018, 439.736 738.018, 429.736 738.018, 419.736 738.018, 409.736 738.018, 399.736 738.018, 389.736 738.018, 379.736 738.018, 369.736 738.018, 359.736 738.018, 353.634 " />
            <path fill="none" stroke-width="3.0" stroke-linecap="butt" stroke-opacity="1.0" stroke="rgb(0, 0, 0)" stroke-linejoin="round" d=" M 738.018, 353.634 728.018, 353.634 718.018, 353.634 708.018, 353.634 698.018, 353.634 688.018, 353.634 678.018, 353.634 668.018, 353.634 658.018, 353.634 648.018, 353.634 638.018, 353.634 628.018, 353.634 618.018, 353.634 608.018, 353.634 598.018, 353.634 588.018, 353.634 578.018, 353.634 568.018, 353.634 558.018, 353.634 548.018, 353.634 538.018, 353.634 528.018, 353.634 518.018, 353.634 508.018, 353.634 498.018, 353.634 488.018, 353.634 478.018, 353.634 468.018, 353.634 458.018, 353.634 448.018, 353.634 438.018, 353.634 428.018, 353.634 418.018, 353.634 408.018, 353.634 398.018, 353.634 388.018, 353.634 378.018, 353.634 368.018, 353.634 358.018, 353.634 348.018, 353.634 338.018, 353.634 329.033, 353.634 329.033, 353.634 319.033, 353.634 309.033, 353.634 307.508, 353.634 307.508, 363.634 307.508, 373.634 307.508, 383.634 307.508, 393.634 307.508, 403.634 307.508, 413.634 307.508, 423.634 307.508, 433.634 307.508, 439.736 307.508, 439.736 " />
            <path fill="none" stroke-width="3.0" stroke-linecap="butt" stroke-opacity="1.0" stroke="rgb(0, 0, 0)" stroke-linejoin="round" d=" M 307.508, 439.736 317.508, 439.736 327.508, 439.736 329.033, 439.736 329.033, 439.736 339.033, 439.736 349.033, 439.736 359.033, 439.736 369.033, 439.736 379.033, 439.736 389.033, 439.736 399.033, 439.736 409.033, 439.736 419.033, 439.736 429.033, 439.736 439.033, 439.736 449.033, 439.736 459.033, 439.736 469.033, 439.736 479.033, 439.736 489.033, 439.736 499.033, 439.736 509.033, 439.736 519.033, 439.736 529.033, 439.736 539.033, 439.736 549.033, 439.736 559.033, 439.736 569.033, 439.736 579.033, 439.736 589.033, 439.736 599.033, 439.736 609.033, 439.736 619.033, 439.736 629.033, 439.736 639.033, 439.736 649.033, 439.736 659.033, 439.736 669.033, 439.736 679.033, 439.736 689.033, 439.736 699.033, 439.736 709.033, 439.736 719.033, 439.736 729.033, 439.736 738.018, 439.736 " />
            <path fill="none" stroke-width="3.0" stroke-linecap="butt" stroke-opacity="1.0" stroke="rgb(0, 0, 0)" stroke-linejoin="round" d=" M 738.018, 353.634 738.018, 353.634 " />
        </g>
    </g>
    <g id="ViewLayer_TechnicalLines" inkscape:groupmode="lineset" inkscape:label="ViewLayer_TechnicalLines">
        <g inkscape:groupmode="layer" id="strokes" inkscape:label="strokes">
            <path fill="none" stroke-width="3.0" stroke-linecap="butt" stroke-opacity="1.0" stroke="rgb(0, 0, 0)" stroke-linejoin="round" d=" M 399.760, 796.444 399.760, 796.444 399.760, 786.444 399.760, 776.444 399.760, 766.444 399.760, 756.444 399.760, 746.444 399.760, 736.444 399.760, 726.444 399.760, 716.444 399.760, 706.444 399.760, 696.444 399.760, 686.444 399.760, 676.444 399.760, 666.444 399.760, 656.444 399.760, 646.444 399.760, 636.444 399.760, 626.444 399.760, 616.444 399.760, 611.940 " />
            <path fill="none" stroke-width="3.0" stroke-linecap="butt" stroke-opacity="1.0" stroke="rgb(0, 0, 0)" stroke-linejoin="round" d=" M 397.419, 611.940 394.577, 611.940 " />
            <path fill="none" stroke-width="3.0" stroke-linecap="butt" stroke-opacity="1.0" stroke="rgb(0, 0, 0)" stroke-linejoin="round" d=" M 399.760, 796.444 399.760, 786.444 399.760, 776.444 399.760, 766.444 399.760, 756.444 399.760, 746.444 399.760, 736.444 399.760, 726.444 399.760, 716.444 399.760, 706.444 399.760, 696.444 399.760, 686.444 399.760, 676.444 399.760, 666.444 399.760, 656.444 399.760, 646.444 399.760, 636.444 399.760, 626.444 399.760, 616.444 399.760, 611.940 399.169, 611.940 397.419, 611.940 394.577, 611.940 390.753, 611.940 386.093, 611.940 380.777, 611.940 375.008, 611.940 369.009, 611.940 363.010, 611.940 357.241, 611.940 351.925, 611.940 347.265, 611.940 343.441, 611.940 340.599, 611.940 338.849, 611.940 338.258, 611.940 338.258, 621.940 338.258, 631.940 338.258, 641.940 338.258, 651.940 338.258, 661.940 338.258, 671.940 338.258, 681.940 338.258, 691.940 338.258, 701.940 338.258, 711.940 338.258, 721.940 338.258, 731.940 338.258, 741.940 338.258, 751.940 338.258, 761.940 338.258, 771.940 338.258, 781.940 338.258, 791.940 338.258, 796.444 338.258, 796.444 338.849, 796.444 340.599, 796.444 343.441, 796.444 347.265, 796.444 351.925, 796.444 357.241, 796.444 363.010, 796.444 369.009, 796.444 375.008, 796.444 380.777, 796.444 386.093, 796.444 390.753, 796.444 394.577, 796.444 397.419, 796.444 399.169, 796.444 399.760, 796.444 " />
            <path fill="none" stroke-width="3.0" stroke-linecap="butt" stroke-opacity="1.0" stroke="rgb(0, 0, 0)" stroke-linejoin="round" d=" M 704.927, 611.940 702.085, 611.940 " />
            <path fill="none" stroke-width="3.0" stroke-linecap="butt" stroke-opacity="1.0" stroke="rgb(0, 0, 0)" stroke-linejoin="round" d=" M 648.107, 611.940 650.948, 611.940 " />
            <path fill="none" stroke-width="3.0" stroke-linecap="butt" stroke-opacity="1.0" stroke="rgb(0, 0, 0)" stroke-linejoin="round" d=" M 702.085, 611.940 704.927, 611.940 " />
            <path fill="none" stroke-width="3.0" stroke-linecap="butt" stroke-opacity="1.0" stroke="rgb(0, 0, 0)" stroke-linejoin="round" d=" M 707.267, 796.444 707.267, 786.444 707.267, 776.444 707.267, 766.444 707.267, 756.444 707.267, 746.444 707.267, 736.444 707.267, 726.444 707.267, 716.444 707.267, 706.444 707.267, 696.444 707.267, 686.444 707.267, 676.444 707.267, 666.444 707.267, 656.444 707.267, 646.444 707.267, 636.444 707.267, 626.444 707.267, 616.444 707.267, 611.940 706.676, 611.940 704.927, 611.940 702.085, 611.940 698.261, 611.940 693.601, 611.940 688.284, 611.940 682.516, 611.940 676.517, 611.940 670.517, 611.940 664.749, 611.940 659.432, 611.940 654.773, 611.940 650.948, 611.940 648.107, 611.940 646.357, 611.940 645.766, 611.940 645.766, 621.940 645.766, 631.940 645.766, 641.940 645.766, 651.940 645.766, 661.940 645.766, 671.940 645.766, 681.940 645.766, 691.940 645.766, 701.940 645.766, 711.940 645.766, 721.940 645.766, 731.940 645.766, 741.940 645.766, 751.940 645.766, 761.940 645.766, 771.940 645.766, 781.940 645.766, 791.940 645.766, 796.444 646.357, 796.444 648.107, 796.444 650.948, 796.444 654.773, 796.444 659.432, 796.444 664.749, 796.444 670.517, 796.444 676.517, 796.444 682.516, 796.444 688.284, 796.444 693.601, 796.444 698.261, 796.444 702.085, 796.444 704.927, 796.444 706.676, 796.444 707.267, 796.444 " />
            <path fill="none" stroke-width="3.0" stroke-linecap="butt" stroke-opacity="1.0" stroke="rgb(0, 0, 0)" stroke-linejoin="round" d=" M 738.018, 541.213 738.018, 531.213 738.018, 521.213 738.018, 511.213 738.018, 501.213 738.018, 498.162 738.018, 498.162 728.018, 498.162 718.018, 498.162 708.018, 498.162 698.018, 498.162 688.018, 498.162 678.018, 498.162 668.018, 498.162 658.018, 498.162 648.018, 498.162 638.018, 498.162 628.018, 498.162 618.018, 498.162 608.018, 498.162 598.018, 498.162 588.018, 498.162 578.018, 498.162 568.018, 498.162 558.018, 498.162 548.018, 498.162 538.018, 498.162 528.018, 498.162 518.018, 498.162 508.018, 498.162 498.018, 498.162 488.018, 498.162 478.018, 498.162 468.018, 498.162 458.018, 498.162 448.018, 498.162 438.018, 498.162 428.018, 498.162 418.018, 498.162 408.018, 498.162 398.018, 498.162 388.018, 498.162 378.018, 498.162 368.018, 498.162 358.018, 498.162 348.018, 498.162 338.018, 498.162 328.018, 498.162 318.018, 498.162 307.508, 498.162 307.508, 508.162 307.508, 518.162 307.508, 528.162 307.508, 538.162 307.508, 541.213 307.508, 541.213 317.508, 541.213 327.508, 541.213 337.508, 541.213 347.508, 541.213 357.508, 541.213 367.508, 541.213 377.508, 541.213 387.508, 541.213 397.508, 541.213 407.508, 541.213 417.508, 541.213 427.508, 541.213 437.508, 541.213 447.508, 541.213 457.508, 541.213 467.508, 541.213 477.508, 541.213 487.508, 541.213 497.508, 541.213 507.508, 541.213 517.508, 541.213 527.508, 541.213 537.508, 541.213 547.508, 541.213 557.508, 541.213 567.508, 541.213 577.508, 541.213 587.508, 541.213 597.508, 541.213 607.508, 541.213 617.508, 541.213 627.508, 541.213 637.508, 541.213 647.508, 541.213 657.508, 541.213 667.508, 541.213 677.508, 541.213 687.508, 541.213 697.508, 541.213 707.508, 541.213 717.508, 541.213 727.508, 541.213 738.018, 541.213 " />
            <path fill="none" stroke-width="3.0" stroke-linecap="butt" stroke-opacity="1.0" stroke="rgb(0, 0, 0)" stroke-linejoin="round" d=" M 738.018, 498.162 738.018, 508.162 738.018, 518.162 738.018, 528.162 738.018, 538.162 738.018, 541.213 " />
            <path fill="none" stroke-width="3.0" stroke-linecap="butt" stroke-opacity="1.0" stroke="rgb(0, 0, 0)" stroke-linejoin="round" d=" M 307.508, 541.213 317.508, 541.213 327.508, 541.213 337.508, 541.213 347.508, 541.213 357.508, 541.213 367.508, 541.213 377.508, 541.213 387.508, 541.213 397.508, 541.213 407.508, 541.213 417.508, 541.213 427.508, 541.213 437.508, 541.213 447.508, 541.213 457.508, 541.213 467.508, 541.213 477.508, 541.213 487.508, 541.213 497.508, 541.213 507.508, 541.213 517.508, 541.213 527.508, 541.213 537.508, 541.213 547.508, 541.213 557.508, 541.213 567.508, 541.213 577.508, 541.213 587.508, 541.213 597.508, 541.213 607.508, 541.213 617.508, 541.213 627.508, 541.213 637.508, 541.213 647.508, 541.213 657.508, 541.213 667.508, 541.213 677.508, 541.213 687.508, 541.213 697.508, 541.213 707.508, 541.213 717.508, 541.213 727.508, 541.213 738.018, 541.213 738.018, 541.213 " />
            <path fill="none" stroke-width="3.0" stroke-linecap="butt" stroke-opacity="1.0" stroke="rgb(0, 0, 0)" stroke-linejoin="round" d=" M 329.033, 353.634 329.033, 343.634 329.033, 333.634 329.033, 323.634 329.033, 313.634 329.033, 303.634 329.033, 293.634 329.033, 283.634 329.033, 273.634 329.033, 263.634 329.033, 253.634 329.033, 243.634 329.033, 233.634 329.033, 227.556 329.033, 227.556 319.033, 227.556 309.033, 227.556 299.033, 227.556 289.033, 227.556 285.982, 227.556 285.982, 237.556 285.982, 247.556 285.982, 257.556 285.982, 267.556 285.982, 277.556 285.982, 287.556 285.982, 297.556 285.982, 307.556 285.982, 317.556 285.982, 327.556 285.982, 337.556 285.982, 347.556 285.982, 357.556 285.982, 367.556 285.982, 377.556 285.982, 387.556 285.982, 397.556 285.982, 407.556 285.982, 417.556 285.982, 427.556 285.982, 437.556 285.982, 442.811 285.982, 442.811 295.982, 442.811 305.982, 442.811 315.982, 442.811 325.982, 442.811 329.033, 442.811 329.033, 439.736 " />
            <path fill="none" stroke-width="3.0" stroke-linecap="butt" stroke-opacity="1.0" stroke="rgb(0, 0, 0)" stroke-linejoin="round" d=" M 329.033, 227.556 329.033, 237.556 329.033, 247.556 329.033, 257.556 329.033, 267.556 329.033, 277.556 329.033, 287.556 329.033, 297.556 329.033, 307.556 329.033, 317.556 329.033, 327.556 329.033, 337.556 329.033, 347.556 329.033, 353.634 " />
            <path fill="none" stroke-width="3.0" stroke-linecap="butt" stroke-opacity="1.0" stroke="rgb(0, 0, 0)" stroke-linejoin="round" d=" M 329.033, 442.811 329.033, 442.811 " />
            <path fill="none" stroke-width="3.0" stroke-linecap="butt" stroke-opacity="1.0" stroke="rgb(0, 0, 0)" stroke-linejoin="round" d=" M 285.982, 442.811 295.982, 442.811 305.982, 442.811 315.982, 442.811 325.982, 442.811 329.033, 442.811 329.033, 439.736 329.033, 439.736 " />
            <path fill="none" stroke-width="3.0" stroke-linecap="butt" stroke-opacity="1.0" stroke="rgb(0, 0, 0)" stroke-linejoin="round" d=" M 329.033, 439.736 329.033, 439.736 339.033, 439.736 349.033, 439.736 359.033, 439.736 369.033, 439.736 379.033, 439.736 389.033, 439.736 399.033, 439.736 409.033, 439.736 419.033, 439.736 429.033, 439.736 439.033, 439.736 449.033, 439.736 459.033, 439.736 469.033, 439.736 479.033, 439.736 489.033, 439.736 499.033, 439.736 509.033, 439.736 519.033, 439.736 529.033, 439.736 539.033, 439.736 549.033, 439.736 559.033, 439.736 569.033, 439.736 579.033, 439.736 589.033, 439.736 599.033, 439.736 609.033, 439.736 619.033, 439.736 629.033, 439.736 639.033, 439.736 649.033, 439.736 659.033, 439.736 669.033, 439.736 679.033, 439.736 689.033, 439.736 699.033, 439.736 709.033, 439.736 719.033, 439.736 729.033, 439.736 738.018, 439.736 738.018, 429.736 738.018, 419.736 738.018, 409.736 738.018, 399.736 738.018, 389.736 738.018, 379.736 738.018, 369.736 738.018, 359.736 738.018, 353.634 738.018, 353.634 " />
            <path fill="none" stroke-width="3.0" stroke-linecap="butt" stroke-opacity="1.0" stroke="rgb(0, 0, 0)" stroke-linejoin="round" d=" M 738.018, 439.736 738.018, 429.736 738.018, 419.736 738.018, 409.736 738.018, 399.736 738.018, 389.736 738.018, 379.736 738.018, 369.736 738.018, 359.736 738.018, 353.634 " />
            <path fill="none" stroke-width="3.0" stroke-linecap="butt" stroke-opacity="1.0" stroke="rgb(0, 0, 0)" stroke-linejoin="round" d=" M 738.018, 353.634 728.018, 353.634 718.018, 353.634 708.018, 353.634 698.018, 353.634 688.018, 353.634 678.018, 353.634 668.018, 353.634 658.018, 353.634 648.018, 353.634 638.018, 353.634 628.018, 353.634 618.018, 353.634 608.018, 353.634 598.018, 353.634 588.018, 353.634 578.018, 353.634 568.018, 353.634 558.018, 353.634 548.018, 353.634 538.018, 353.634 528.018, 353.634 518.018, 353.634 508.018, 353.634 498.018, 353.634 488.018, 353.634 478.018, 353.634 468.018, 353.634 458.018, 353.634 448.018, 353.634 438.018, 353.634 428.018, 353.634 418.018, 353.634 408.018, 353.634 398.018, 353.634 388.018, 353.634 378.018, 353.634 368.018, 353.634 358.018, 353.634 348.018, 353.634 338.018, 353.634 329.033, 353.634 329.033, 353.634 319.033, 353.634 309.033, 353.634 307.508, 353.634 307.508, 363.634 307.508, 373.634 307.508, 383.634 307.508, 393.634 307.508, 403.634 307.508, 413.634 307.508, 423.634 307.508, 433.634 307.508, 439.736 307.508, 439.736 " />
            <path fill="none" stroke-width="3.0" stroke-linecap="butt" stroke-opacity="1.0" stroke="rgb(0, 0, 0)" stroke-linejoin="round" d=" M 307.508, 439.736 317.508, 439.736 327.508, 439.736 329.033, 439.736 329.033, 439.736 339.033, 439.736 349.033, 439.736 359.033, 439.736 369.033, 439.736 379.033, 439.736 389.033, 439.736 399.033, 439.736 409.033, 439.736 419.033, 439.736 429.033, 439.736 439.033, 439.736 449.033, 439.736 459.033, 439.736 469.033, 439.736 479.033, 439.736 489.033, 439.736 499.033, 439.736 509.033, 439.736 519.033, 439.736 529.033, 439.736 539.033, 439.736 549.033, 439.736 559.033, 439.736 569.033, 439.736 579.033, 439.736 589.033, 439.736 599.033, 439.736 609.033, 439.736 619.033, 439.736 629.033, 439.736 639.033, 439.736 649.033, 439.736 659.033, 439.736 669.033, 439.736 679.033, 439.736 689.033, 439.736 699.033, 439.736 709.033, 439.736 719.033, 439.736 729.033, 439.736 738.018, 439.736 " />
            <path fill="none" stroke-width="3.0" stroke-linecap="butt" stroke-opacity="1.0" stroke="rgb(0, 0, 0)" stroke-linejoin="round" d=" M 738.018, 353.634 738.018, 353.634 " />
        </g>
    </g>
    <g id="ViewLayer_TechnicalLines.001" inkscape:groupmode="lineset" inkscape:label="ViewLayer_TechnicalLines.001">
        <g inkscape:groupmode="layer" id="strokes" inkscape:label="strokes">
            <path fill="none" stroke-width="1.5" stroke-linecap="round" stroke-opacity="1.0" stroke="rgb(0, 0, 0)" stroke-linejoin="round" d=" M 399.760, 796.444 399.760, 796.444 399.760, 786.444 399.760, 776.444 399.760, 766.444 399.760, 756.444 399.760, 746.444 399.760, 736.444 399.760, 726.444 399.760, 716.444 399.760, 706.444 399.760, 696.444 399.760, 686.444 399.760, 676.444 399.760, 666.444 399.760, 656.444 399.760, 646.444 399.760, 636.444 399.760, 626.444 399.760, 616.444 399.760, 611.940 " />
            <path fill="none" stroke-width="1.5" stroke-linecap="round" stroke-opacity="1.0" stroke="rgb(0, 0, 0)" stroke-linejoin="round" d=" M 397.419, 611.940 394.577, 611.940 " />
            <path fill="none" stroke-width="1.5" stroke-linecap="round" stroke-opacity="1.0" stroke="rgb(0, 0, 0)" stroke-linejoin="round" d=" M 399.760, 796.444 399.760, 786.444 399.760, 776.444 399.760, 766.444 399.760, 756.444 399.760, 746.444 399.760, 736.444 399.760, 726.444 399.760, 716.444 399.760, 706.444 399.760, 696.444 399.760, 686.444 399.760, 676.444 399.760, 666.444 399.760, 656.444 399.760, 646.444 399.760, 636.444 399.760, 626.444 399.760, 616.444 399.760, 611.940 399.169, 611.940 397.419, 611.940 394.577, 611.940 390.753, 611.940 386.093, 611.940 380.777, 611.940 375.008, 611.940 369.009, 611.940 363.010, 611.940 357.241, 611.940 351.925, 611.940 347.265, 611.940 343.441, 611.940 340.599, 611.940 338.849, 611.940 338.258, 611.940 338.258, 621.940 338.258, 631.940 338.258, 641.940 338.258, 651.940 338.258, 661.940 338.258, 671.940 338.258, 681.940 338.258, 691.940 338.258, 701.940 338.258, 711.940 338.258, 721.940 338.258, 731.940 338.258, 741.940 338.258, 751.940 338.258, 761.940 338.258, 771.940 338.258, 781.940 338.258, 791.940 338.258, 796.444 338.258, 796.444 338.849, 796.444 340.599, 796.444 343.441, 796.444 347.265, 796.444 351.925, 796.444 357.241, 796.444 363.010, 796.444 369.009, 796.444 375.008, 796.444 380.777, 796.444 386.093, 796.444 390.753, 796.444 394.577, 796.444 397.419, 796.444 399.169, 796.444 399.760, 796.444 " />
            <path fill="none" stroke-width="1.5" stroke-linecap="round" stroke-opacity="1.0" stroke="rgb(0, 0, 0)" stroke-linejoin="round" d=" M 704.927, 611.940 702.085, 611.940 " />
            <path fill="none" stroke-width="1.5" stroke-linecap="round" stroke-opacity="1.0" stroke="rgb(0, 0, 0)" stroke-linejoin="round" d=" M 648.107, 611.940 650.948, 611.940 " />
            <path fill="none" stroke-width="1.5" stroke-linecap="round" stroke-opacity="1.0" stroke="rgb(0, 0, 0)" stroke-linejoin="round" d=" M 702.085, 611.940 704.927, 611.940 " />
            <path fill="none" stroke-width="1.5" stroke-linecap="round" stroke-opacity="1.0" stroke="rgb(0, 0, 0)" stroke-linejoin="round" d=" M 707.267, 796.444 707.267, 786.444 707.267, 776.444 707.267, 766.444 707.267, 756.444 707.267, 746.444 707.267, 736.444 707.267, 726.444 707.267, 716.444 707.267, 706.444 707.267, 696.444 707.267, 686.444 707.267, 676.444 707.267, 666.444 707.267, 656.444 707.267, 646.444 707.267, 636.444 707.267, 626.444 707.267, 616.444 707.267, 611.940 706.676, 611.940 704.927, 611.940 702.085, 611.940 698.261, 611.940 693.601, 611.940 688.284, 611.940 682.516, 611.940 676.517, 611.940 670.517, 611.940 664.749, 611.940 659.432, 611.940 654.773, 611.940 650.948, 611.940 648.107, 611.940 646.357, 611.940 645.766, 611.940 645.766, 621.940 645.766, 631.940 645.766, 641.940 645.766, 651.940 645.766, 661.940 645.766, 671.940 645.766, 681.940 645.766, 691.940 645.766, 701.940 645.766, 711.940 645.766, 721.940 645.766, 731.940 645.766, 741.940 645.766, 751.940 645.766, 761.940 645.766, 771.940 645.766, 781.940 645.766, 791.940 645.766, 796.444 646.357, 796.444 648.107, 796.444 650.948, 796.444 654.773, 796.444 659.432, 796.444 664.749, 796.444 670.517, 796.444 676.517, 796.444 682.516, 796.444 688.284, 796.444 693.601, 796.444 698.261, 796.444 702.085, 796.444 704.927, 796.444 706.676, 796.444 707.267, 796.444 " />
            <path fill="none" stroke-width="1.5" stroke-linecap="round" stroke-opacity="1.0" stroke="rgb(0, 0, 0)" stroke-linejoin="round" d=" M 738.018, 541.213 738.018, 531.213 738.018, 521.213 738.018, 511.213 738.018, 501.213 738.018, 498.162 738.018, 498.162 728.018, 498.162 718.018, 498.162 708.018, 498.162 698.018, 498.162 688.018, 498.162 678.018, 498.162 668.018, 498.162 658.018, 498.162 648.018, 498.162 638.018, 498.162 628.018, 498.162 618.018, 498.162 608.018, 498.162 598.018, 498.162 588.018, 498.162 578.018, 498.162 568.018, 498.162 558.018, 498.162 548.018, 498.162 538.018, 498.162 528.018, 498.162 518.018, 498.162 508.018, 498.162 498.018, 498.162 488.018, 498.162 478.018, 498.162 468.018, 498.162 458.018, 498.162 448.018, 498.162 438.018, 498.162 428.018, 498.162 418.018, 498.162 408.018, 498.162 398.018, 498.162 388.018, 498.162 378.018, 498.162 368.018, 498.162 358.018, 498.162 348.018, 498.162 338.018, 498.162 328.018, 498.162 318.018, 498.162 307.508, 498.162 307.508, 508.162 307.508, 518.162 307.508, 528.162 307.508, 538.162 307.508, 541.213 307.508, 541.213 317.508, 541.213 327.508, 541.213 337.508, 541.213 347.508, 541.213 357.508, 541.213 367.508, 541.213 377.508, 541.213 387.508, 541.213 397.508, 541.213 407.508, 541.213 417.508, 541.213 427.508, 541.213 437.508, 541.213 447.508, 541.213 457.508, 541.213 467.508, 541.213 477.508, 541.213 487.508, 541.213 497.508, 541.213 507.508, 541.213 517.508, 541.213 527.508, 541.213 537.508, 541.213 547.508, 541.213 557.508, 541.213 567.508, 541.213 577.508, 541.213 587.508, 541.213 597.508, 541.213 607.508, 541.213 617.508, 541.213 627.508, 541.213 637.508, 541.213 647.508, 541.213 657.508, 541.213 667.508, 541.213 677.508, 541.213 687.508, 541.213 697.508, 541.213 707.508, 541.213 717.508, 541.213 727.508, 541.213 738.018, 541.213 " />
            <path fill="none" stroke-width="1.5" stroke-linecap="round" stroke-opacity="1.0" stroke="rgb(0, 0, 0)" stroke-linejoin="round" d=" M 738.018, 498.162 738.018, 508.162 738.018, 518.162 738.018, 528.162 738.018, 538.162 738.018, 541.213 " />
            <path fill="none" stroke-width="1.5" stroke-linecap="round" stroke-opacity="1.0" stroke="rgb(0, 0, 0)" stroke-linejoin="round" d=" M 307.508, 541.213 317.508, 541.213 327.508, 541.213 337.508, 541.213 347.508, 541.213 357.508, 541.213 367.508, 541.213 377.508, 541.213 387.508, 541.213 397.508, 541.213 407.508, 541.213 417.508, 541.213 427.508, 541.213 437.508, 541.213 447.508, 541.213 457.508, 541.213 467.508, 541.213 477.508, 541.213 487.508, 541.213 497.508, 541.213 507.508, 541.213 517.508, 541.213 527.508, 541.213 537.508, 541.213 547.508, 541.213 557.508, 541.213 567.508, 541.213 577.508, 541.213 587.508, 541.213 597.508, 541.213 607.508, 541.213 617.508, 541.213 627.508, 541.213 637.508, 541.213 647.508, 541.213 657.508, 541.213 667.508, 541.213 677.508, 541.213 687.508, 541.213 697.508, 541.213 707.508, 541.213 717.508, 541.213 727.508, 541.213 738.018, 541.213 738.018, 541.213 " />
            <path fill="none" stroke-width="1.5" stroke-linecap="round" stroke-opacity="1.0" stroke="rgb(0, 0, 0)" stroke-linejoin="round" d=" M 329.033, 353.634 329.033, 343.634 329.033, 333.634 329.033, 323.634 329.033, 313.634 329.033, 303.634 329.033, 293.634 329.033, 283.634 329.033, 273.634 329.033, 263.634 329.033, 253.634 329.033, 243.634 329.033, 233.634 329.033, 227.556 329.033, 227.556 319.033, 227.556 309.033, 227.556 299.033, 227.556 289.033, 227.556 285.982, 227.556 285.982, 237.556 285.982, 247.556 285.982, 257.556 285.982, 267.556 285.982, 277.556 285.982, 287.556 285.982, 297.556 285.982, 307.556 285.982, 317.556 285.982, 327.556 285.982, 337.556 285.982, 347.556 285.982, 357.556 285.982, 367.556 285.982, 377.556 285.982, 387.556 285.982, 397.556 285.982, 407.556 285.982, 417.556 285.982, 427.556 285.982, 437.556 285.982, 442.811 285.982, 442.811 295.982, 442.811 305.982, 442.811 315.982, 442.811 325.982, 442.811 329.033, 442.811 329.033, 439.736 " />
            <path fill="none" stroke-width="1.5" stroke-linecap="round" stroke-opacity="1.0" stroke="rgb(0, 0, 0)" stroke-linejoin="round" d=" M 329.033, 227.556 329.033, 237.556 329.033, 247.556 329.033, 257.556 329.033, 267.556 329.033, 277.556 329.033, 287.556 329.033, 297.556 329.033, 307.556 329.033, 317.556 329.033, 327.556 329.033, 337.556 329.033, 347.556 329.033, 353.634 " />
            <path fill="none" stroke-width="1.5" stroke-linecap="round" stroke-opacity="1.0" stroke="rgb(0, 0, 0)" stroke-linejoin="round" d=" M 329.033, 442.811 329.033, 442.811 " />
            <path fill="none" stroke-width="1.5" stroke-linecap="round" stroke-opacity="1.0" stroke="rgb(0, 0, 0)" stroke-linejoin="round" d=" M 285.982, 442.811 295.982, 442.811 305.982, 442.811 315.982, 442.811 325.982, 442.811 329.033, 442.811 329.033, 439.736 329.033, 439.736 " />
            <path fill="none" stroke-width="1.5" stroke-linecap="round" stroke-opacity="1.0" stroke="rgb(0, 0, 0)" stroke-linejoin="round" d=" M 329.033, 439.736 329.033, 439.736 339.033, 439.736 349.033, 439.736 359.033, 439.736 369.033, 439.736 379.033, 439.736 389.033, 439.736 399.033, 439.736 409.033, 439.736 419.033, 439.736 429.033, 439.736 439.033, 439.736 449.033, 439.736 459.033, 439.736 469.033, 439.736 479.033, 439.736 489.033, 439.736 499.033, 439.736 509.033, 439.736 519.033, 439.736 529.033, 439.736 539.033, 439.736 549.033, 439.736 559.033, 439.736 569.033, 439.736 579.033, 439.736 589.033, 439.736 599.033, 439.736 609.033, 439.736 619.033, 439.736 629.033, 439.736 639.033, 439.736 649.033, 439.736 659.033, 439.736 669.033, 439.736 679.033, 439.736 689.033, 439.736 699.033, 439.736 709.033, 439.736 719.033, 439.736 729.033, 439.736 738.018, 439.736 738.018, 429.736 738.018, 419.736 738.018, 409.736 738.018, 399.736 738.018, 389.736 738.018, 379.736 738.018, 369.736 738.018, 359.736 738.018, 353.634 738.018, 353.634 " />
            <path fill="none" stroke-width="1.5" stroke-linecap="round" stroke-opacity="1.0" stroke="rgb(0, 0, 0)" stroke-linejoin="round" d=" M 738.018, 439.736 738.018, 429.736 738.018, 419.736 738.018, 409.736 738.018, 399.736 738.018, 389.736 738.018, 379.736 738.018, 369.736 738.018, 359.736 738.018, 353.634 " />
            <path fill="none" stroke-width="1.5" stroke-linecap="round" stroke-opacity="1.0" stroke="rgb(0, 0, 0)" stroke-linejoin="round" d=" M 738.018, 353.634 728.018, 353.634 718.018, 353.634 708.018, 353.634 698.018, 353.634 688.018, 353.634 678.018, 353.634 668.018, 353.634 658.018, 353.634 648.018, 353.634 638.018, 353.634 628.018, 353.634 618.018, 353.634 608.018, 353.634 598.018, 353.634 588.018, 353.634 578.018, 353.634 568.018, 353.634 558.018, 353.634 548.018, 353.634 538.018, 353.634 528.018, 353.634 518.018, 353.634 508.018, 353.634 498.018, 353.634 488.018, 353.634 478.018, 353.634 468.018, 353.634 458.018, 353.634 448.018, 353.634 438.018, 353.634 428.018, 353.634 418.018, 353.634 408.018, 353.634 398.018, 353.634 388.018, 353.634 378.018, 353.634 368.018, 353.634 358.018, 353.634 348.018, 353.634 338.018, 353.634 329.033, 353.634 329.033, 353.634 319.033, 353.634 309.033, 353.634 307.508, 353.634 307.508, 363.634 307.508, 373.634 307.508, 383.634 307.508, 393.634 307.508, 403.634 307.508, 413.634 307.508, 423.634 307.508, 433.634 307.508, 439.736 307.508, 439.736 " />
            <path fill="none" stroke-width="1.5" stroke-linecap="round" stroke-opacity="1.0" stroke="rgb(0, 0, 0)" stroke-linejoin="round" d=" M 307.508, 439.736 317.508, 439.736 327.508, 439.736 329.033, 439.736 329.033, 439.736 339.033, 439.736 349.033, 439.736 359.033, 439.736 369.033, 439.736 379.033, 439.736 389.033, 439.736 399.033, 439.736 409.033, 439.736 419.033, 439.736 429.033, 439.736 439.033, 439.736 449.033, 439.736 459.033, 439.736 469.033, 439.736 479.033, 439.736 489.033, 439.736 499.033, 439.736 509.033, 439.736 519.033, 439.736 529.033, 439.736 539.033, 439.736 549.033, 439.736 559.033, 439.736 569.033, 439.736 579.033, 439.736 589.033, 439.736 599.033, 439.736 609.033, 439.736 619.033, 439.736 629.033, 439.736 639.033, 439.736 649.033, 439.736 659.033, 439.736 669.033, 439.736 679.033, 439.736 689.033, 439.736 699.033, 439.736 709.033, 439.736 719.033, 439.736 729.033, 439.736 738.018, 439.736 " />
            <path fill="none" stroke-width="1.5" stroke-linecap="round" stroke-opacity="1.0" stroke="rgb(0, 0, 0)" stroke-linejoin="round" d=" M 738.018, 353.634 738.018, 353.634 " />
        </g>
    </g>
    <g id="ViewLayer_TechnicalLines.002" inkscape:groupmode="lineset" inkscape:label="ViewLayer_TechnicalLines.002">
        <g inkscape:groupmode="layer" id="strokes" inkscape:label="strokes">
            <path fill="none" stroke-width="1.5" stroke-linecap="round" stroke-opacity="1.0" stroke="rgb(0, 0, 0)" stroke-linejoin="round" d=" M 399.760, 796.444 399.760, 796.444 399.760, 786.444 399.760, 776.444 399.760, 766.444 399.760, 756.444 399.760, 746.444 399.760, 736.444 399.760, 726.444 399.760, 716.444 399.760, 706.444 399.760, 696.444 399.760, 686.444 399.760, 676.444 399.760, 666.444 399.760, 656.444 399.760, 646.444 399.760, 636.444 399.760, 626.444 399.760, 616.444 399.760, 611.940 " />
            <path fill="none" stroke-width="1.5" stroke-linecap="round" stroke-opacity="1.0" stroke="rgb(0, 0, 0)" stroke-linejoin="round" d=" M 397.419, 611.940 394.577, 611.940 " />
            <path fill="none" stroke-width="1.5" stroke-linecap="round" stroke-opacity="1.0" stroke="rgb(0, 0, 0)" stroke-linejoin="round" d=" M 399.760, 796.444 399.760, 786.444 399.760, 776.444 399.760, 766.444 399.760, 756.444 399.760, 746.444 399.760, 736.444 399.760, 726.444 399.760, 716.444 399.760, 706.444 399.760, 696.444 399.760, 686.444 399.760, 676.444 399.760, 666.444 399.760, 656.444 399.760, 646.444 399.760, 636.444 399.760, 626.444 399.760, 616.444 399.760, 611.940 399.169, 611.940 397.419, 611.940 394.577, 611.940 390.753, 611.940 386.093, 611.940 380.777, 611.940 375.008, 611.940 369.009, 611.940 363.010, 611.940 357.241, 611.940 351.925, 611.940 347.265, 611.940 343.441, 611.940 340.599, 611.940 338.849, 611.940 338.258, 611.940 338.258, 621.940 338.258, 631.940 338.258, 641.940 338.258, 651.940 338.258, 661.940 338.258, 671.940 338.258, 681.940 338.258, 691.940 338.258, 701.940 338.258, 711.940 338.258, 721.940 338.258, 731.940 338.258, 741.940 338.258, 751.940 338.258, 761.940 338.258, 771.940 338.258, 781.940 338.258, 791.940 338.258, 796.444 338.258, 796.444 338.849, 796.444 340.599, 796.444 343.441, 796.444 347.265, 796.444 351.925, 796.444 357.241, 796.444 363.010, 796.444 369.009, 796.444 375.008, 796.444 380.777, 796.444 386.093, 796.444 390.753, 796.444 394.577, 796.444 397.419, 796.444 399.169, 796.444 399.760, 796.444 " />
            <path fill="none" stroke-width="1.5" stroke-linecap="round" stroke-opacity="1.0" stroke="rgb(0, 0, 0)" stroke-linejoin="round" d=" M 704.927, 611.940 702.085, 611.940 " />
            <path fill="none" stroke-width="1.5" stroke-linecap="round" stroke-opacity="1.0" stroke="rgb(0, 0, 0)" stroke-linejoin="round" d=" M 648.107, 611.940 650.948, 611.940 " />
            <path fill="none" stroke-width="1.5" stroke-linecap="round" stroke-opacity="1.0" stroke="rgb(0, 0, 0)" stroke-linejoin="round" d=" M 702.085, 611.940 704.927, 611.940 " />
            <path fill="none" stroke-width="1.5" stroke-linecap="round" stroke-opacity="1.0" stroke="rgb(0, 0, 0)" stroke-linejoin="round" d=" M 707.267, 796.444 707.267, 786.444 707.267, 776.444 707.267, 766.444 707.267, 756.444 707.267, 746.444 707.267, 736.444 707.267, 726.444 707.267, 716.444 707.267, 706.444 707.267, 696.444 707.267, 686.444 707.267, 676.444 707.267, 666.444 707.267, 656.444 707.267, 646.444 707.267, 636.444 707.267, 626.444 707.267, 616.444 707.267, 611.940 706.676, 611.940 704.927, 611.940 702.085, 611.940 698.261, 611.940 693.601, 611.940 688.284, 611.940 682.516, 611.940 676.517, 611.940 670.517, 611.940 664.749, 611.940 659.432, 611.940 654.773, 611.940 650.948, 611.940 648.107, 611.940 646.357, 611.940 645.766, 611.940 645.766, 621.940 645.766, 631.940 645.766, 641.940 645.766, 651.940 645.766, 661.940 645.766, 671.940 645.766, 681.940 645.766, 691.940 645.766, 701.940 645.766, 711.940 645.766, 721.940 645.766, 731.940 645.766, 741.940 645.766, 751.940 645.766, 761.940 645.766, 771.940 645.766, 781.940 645.766, 791.940 645.766, 796.444 646.357, 796.444 648.107, 796.444 650.948, 796.444 654.773, 796.444 659.432, 796.444 664.749, 796.444 670.517, 796.444 676.517, 796.444 682.516, 796.444 688.284, 796.444 693.601, 796.444 698.261, 796.444 702.085, 796.444 704.927, 796.444 706.676, 796.444 707.267, 796.444 " />
            <path fill="none" stroke-width="1.5" stroke-linecap="round" stroke-opacity="1.0" stroke="rgb(0, 0, 0)" stroke-linejoin="round" d=" M 738.018, 541.213 738.018, 531.213 738.018, 521.213 738.018, 511.213 738.018, 501.213 738.018, 498.162 738.018, 498.162 728.018, 498.162 718.018, 498.162 708.018, 498.162 698.018, 498.162 688.018, 498.162 678.018, 498.162 668.018, 498.162 658.018, 498.162 648.018, 498.162 638.018, 498.162 628.018, 498.162 618.018, 498.162 608.018, 498.162 598.018, 498.162 588.018, 498.162 578.018, 498.162 568.018, 498.162 558.018, 498.162 548.018, 498.162 538.018, 498.162 528.018, 498.162 518.018, 498.162 508.018, 498.162 498.018, 498.162 488.018, 498.162 478.018, 498.162 468.018, 498.162 458.018, 498.162 448.018, 498.162 438.018, 498.162 428.018, 498.162 418.018, 498.162 408.018, 498.162 398.018, 498.162 388.018, 498.162 378.018, 498.162 368.018, 498.162 358.018, 498.162 348.018, 498.162 338.018, 498.162 328.018, 498.162 318.018, 498.162 307.508, 498.162 307.508, 508.162 307.508, 518.162 307.508, 528.162 307.508, 538.162 307.508, 541.213 307.508, 541.213 317.508, 541.213 327.508, 541.213 337.508, 541.213 347.508, 541.213 357.508, 541.213 367.508, 541.213 377.508, 541.213 387.508, 541.213 397.508, 541.213 407.508, 541.213 417.508, 541.213 427.508, 541.213 437.508, 541.213 447.508, 541.213 457.508, 541.213 467.508, 541.213 477.508, 541.213 487.508, 541.213 497.508, 541.213 507.508, 541.213 517.508, 541.213 527.508, 541.213 537.508, 541.213 547.508, 541.213 557.508, 541.213 567.508, 541.213 577.508, 541.213 587.508, 541.213 597.508, 541.213 607.508, 541.213 617.508, 541.213 627.508, 541.213 637.508, 541.213 647.508, 541.213 657.508, 541.213 667.508, 541.213 677.508, 541.213 687.508, 541.213 697.508, 541.213 707.508, 541.213 717.508, 541.213 727.508, 541.213 738.018, 541.213 " />
            <path fill="none" stroke-width="1.5" stroke-linecap="round" stroke-opacity="1.0" stroke="rgb(0, 0, 0)" stroke-linejoin="round" d=" M 738.018, 498.162 738.018, 508.162 738.018, 518.162 738.018, 528.162 738.018, 538.162 738.018, 541.213 " />
            <path fill="none" stroke-width="1.5" stroke-linecap="round" stroke-opacity="1.0" stroke="rgb(0, 0, 0)" stroke-linejoin="round" d=" M 307.508, 541.213 317.508, 541.213 327.508, 541.213 337.508, 541.213 347.508, 541.213 357.508, 541.213 367.508, 541.213 377.508, 541.213 387.508, 541.213 397.508, 541.213 407.508, 541.213 417.508, 541.213 427.508, 541.213 437.508, 541.213 447.508, 541.213 457.508, 541.213 467.508, 541.213 477.508, 541.213 487.508, 541.213 497.508, 541.213 507.508, 541.213 517.508, 541.213 527.508, 541.213 537.508, 541.213 547.508, 541.213 557.508, 541.213 567.508, 541.213 577.508, 541.213 587.508, 541.213 597.508, 541.213 607.508, 541.213 617.508, 541.213 627.508, 541.213 637.508, 541.213 647.508, 541.213 657.508, 541.213 667.508, 541.213 677.508, 541.213 687.508, 541.213 697.508, 541.213 707.508, 541.213 717.508, 541.213 727.508, 541.213 738.018, 541.213 738.018, 541.213 " />
            <path fill="none" stroke-width="1.5" stroke-linecap="round" stroke-opacity="1.0" stroke="rgb(0, 0, 0)" stroke-linejoin="round" d=" M 329.033, 353.634 329.033, 343.634 329.033, 333.634 329.033, 323.634 329.033, 313.634 329.033, 303.634 329.033, 293.634 329.033, 283.634 329.033, 273.634 329.033, 263.634 329.033, 253.634 329.033, 243.634 329.033, 233.634 329.033, 227.556 329.033, 227.556 319.033, 227.556 309.033, 227.556 299.033, 227.556 289.033, 227.556 285.982, 227.556 285.982, 237.556 285.982, 247.556 285.982, 257.556 285.982, 267.556 285.982, 277.556 285.982, 287.556 285.982, 297.556 285.982, 307.556 285.982, 317.556 285.982, 327.556 285.982, 337.556 285.982, 347.556 285.982, 357.556 285.982, 367.556 285.982, 377.556 285.982, 387.556 285.982, 397.556 285.982, 407.556 285.982, 417.556 285.982, 427.556 285.982, 437.556 285.982, 442.811 285.982, 442.811 295.982, 442.811 305.982, 442.811 315.982, 442.811 325.982, 442.811 329.033, 442.811 329.033, 439.736 " />
            <path fill="none" stroke-width="1.5" stroke-linecap="round" stroke-opacity="1.0" stroke="rgb(0, 0, 0)" stroke-linejoin="round" d=" M 329.033, 227.556 329.033, 237.556 329.033, 247.556 329.033, 257.556 329.033, 267.556 329.033, 277.556 329.033, 287.556 329.033, 297.556 329.033, 307.556 329.033, 317.556 329.033, 327.556 329.033, 337.556 329.033, 347.556 329.033, 353.634 " />
            <path fill="none" stroke-width="1.5" stroke-linecap="round" stroke-opacity="1.0" stroke="rgb(0, 0, 0)" stroke-linejoin="round" d=" M 329.033, 442.811 329.033, 442.811 " />
            <path fill="none" stroke-width="1.5" stroke-linecap="round" stroke-opacity="1.0" stroke="rgb(0, 0, 0)" stroke-linejoin="round" d=" M 285.982, 442.811 295.982, 442.811 305.982, 442.811 315.982, 442.811 325.982, 442.811 329.033, 442.811 329.033, 439.736 329.033, 439.736 " />
            <path fill="none" stroke-width="1.5" stroke-linecap="round" stroke-opacity="1.0" stroke="rgb(0, 0, 0)" stroke-linejoin="round" d=" M 329.033, 439.736 329.033, 439.736 339.033, 439.736 349.033, 439.736 359.033, 439.736 369.033, 439.736 379.033, 439.736 389.033, 439.736 399.033, 439.736 409.033, 439.736 419.033, 439.736 429.033, 439.736 439.033, 439.736 449.033, 439.736 459.033, 439.736 469.033, 439.736 479.033, 439.736 489.033, 439.736 499.033, 439.736 509.033, 439.736 519.033, 439.736 529.033, 439.736 539.033, 439.736 549.033, 439.736 559.033, 439.736 569.033, 439.736 579.033, 439.736 589.033, 439.736 599.033, 439.736 609.033, 439.736 619.033, 439.736 629.033, 439.736 639.033, 439.736 649.033, 439.736 659.033, 439.736 669.033, 439.736 679.033, 439.736 689.033, 439.736 699.033, 439.736 709.033, 439.736 719.033, 439.736 729.033, 439.736 738.018, 439.736 738.018, 429.736 738.018, 419.736 738.018, 409.736 738.018, 399.736 738.018, 389.736 738.018, 379.736 738.018, 369.736 738.018, 359.736 738.018, 353.634 738.018, 353.634 " />
            <path fill="none" stroke-width="1.5" stroke-linecap="round" stroke-opacity="1.0" stroke="rgb(0, 0, 0)" stroke-linejoin="round" d=" M 738.018, 439.736 738.018, 429.736 738.018, 419.736 738.018, 409.736 738.018, 399.736 738.018, 389.736 738.018, 379.736 738.018, 369.736 738.018, 359.736 738.018, 353.634 " />
            <path fill="none" stroke-width="1.5" stroke-linecap="round" stroke-opacity="1.0" stroke="rgb(0, 0, 0)" stroke-linejoin="round" d=" M 738.018, 353.634 728.018, 353.634 718.018, 353.634 708.018, 353.634 698.018, 353.634 688.018, 353.634 678.018, 353.634 668.018, 353.634 658.018, 353.634 648.018, 353.634 638.018, 353.634 628.018, 353.634 618.018, 353.634 608.018, 353.634 598.018, 353.634 588.018, 353.634 578.018, 353.634 568.018, 353.634 558.018, 353.634 548.018, 353.634 538.018, 353.634 528.018, 353.634 518.018, 353.634 508.018, 353.634 498.018, 353.634 488.018, 353.634 478.018, 353.634 468.018, 353.634 458.018, 353.634 448.018, 353.634 438.018, 353.634 428.018, 353.634 418.018, 353.634 408.018, 353.634 398.018, 353.634 388.018, 353.634 378.018, 353.634 368.018, 353.634 358.018, 353.634 348.018, 353.634 338.018, 353.634 329.033, 353.634 329.033, 353.634 319.033, 353.634 309.033, 353.634 307.508, 353.634 307.508, 363.634 307.508, 373.634 307.508, 383.634 307.508, 393.634 307.508, 403.634 307.508, 413.634 307.508, 423.634 307.508, 433.634 307.508, 439.736 307.508, 439.736 " />
            <path fill="none" stroke-width="1.5" stroke-linecap="round" stroke-opacity="1.0" stroke="rgb(0, 0, 0)" stroke-linejoin="round" d=" M 307.508, 439.736 317.508, 439.736 327.508, 439.736 329.033, 439.736 329.033, 439.736 339.033, 439.736 349.033, 439.736 359.033, 439.736 369.033, 439.736 379.033, 439.736 389.033, 439.736 399.033, 439.736 409.033, 439.736 419.033, 439.736 429.033, 439.736 439.033, 439.736 449.033, 439.736 459.033, 439.736 469.033, 439.736 479.033, 439.736 489.033, 439.736 499.033, 439.736 509.033, 439.736 519.033, 439.736 529.033, 439.736 539.033, 439.736 549.033, 439.736 559.033, 439.736 569.033, 439.736 579.033, 439.736 589.033, 439.736 599.033, 439.736 609.033, 439.736 619.033, 439.736 629.033, 439.736 639.033, 439.736 649.033, 439.736 659.033, 439.736 669.033, 439.736 679.033, 439.736 689.033, 439.736 699.033, 439.736 709.033, 439.736 719.033, 439.736 729.033, 439.736 738.018, 439.736 " />
            <path fill="none" stroke-width="1.5" stroke-linecap="round" stroke-opacity="1.0" stroke="rgb(0, 0, 0)" stroke-linejoin="round" d=" M 738.018, 353.634 738.018, 353.634 " />
        </g>
    </g>
    <g id="ViewLayer_TechnicalLines.003" inkscape:groupmode="lineset" inkscape:label="ViewLayer_TechnicalLines.003">
        <g inkscape:groupmode="layer" id="strokes" inkscape:label="strokes">
            <path fill="none" stroke-width="1.5" stroke-linecap="round" stroke-opacity="1.0" stroke="rgb(0, 0, 0)" stroke-linejoin="round" d=" M 399.760, 796.444 399.760, 796.444 399.760, 786.444 399.760, 776.444 399.760, 766.444 399.760, 756.444 399.760, 746.444 399.760, 736.444 399.760, 726.444 399.760, 716.444 399.760, 706.444 399.760, 696.444 399.760, 686.444 399.760, 676.444 399.760, 666.444 399.760, 656.444 399.760, 646.444 399.760, 636.444 399.760, 626.444 399.760, 616.444 399.760, 611.940 " />
            <path fill="none" stroke-width="1.5" stroke-linecap="round" stroke-opacity="1.0" stroke="rgb(0, 0, 0)" stroke-linejoin="round" d=" M 397.419, 611.940 394.577, 611.940 " />
            <path fill="none" stroke-width="1.5" stroke-linecap="round" stroke-opacity="1.0" stroke="rgb(0, 0, 0)" stroke-linejoin="round" d=" M 399.760, 796.444 399.760, 786.444 399.760, 776.444 399.760, 766.444 399.760, 756.444 399.760, 746.444 399.760, 736.444 399.760, 726.444 399.760, 716.444 399.760, 706.444 399.760, 696.444 399.760, 686.444 399.760, 676.444 399.760, 666.444 399.760, 656.444 399.760, 646.444 399.760, 636.444 399.760, 626.444 399.760, 616.444 399.760, 611.940 399.169, 611.940 397.419, 611.940 394.577, 611.940 390.753, 611.940 386.093, 611.940 380.777, 611.940 375.008, 611.940 369.009, 611.940 363.010, 611.940 357.241, 611.940 351.925, 611.940 347.265, 611.940 343.441, 611.940 340.599, 611.940 338.849, 611.940 338.258, 611.940 338.258, 621.940 338.258, 631.940 338.258, 641.940 338.258, 651.940 338.258, 661.940 338.258, 671.940 338.258, 681.940 338.258, 691.940 338.258, 701.940 338.258, 711.940 338.258, 721.940 338.258, 731.940 338.258, 741.940 338.258, 751.940 338.258, 761.940 338.258, 771.940 338.258, 781.940 338.258, 791.940 338.258, 796.444 338.258, 796.444 338.849, 796.444 340.599, 796.444 343.441, 796.444 347.265, 796.444 351.925, 796.444 357.241, 796.444 363.010, 796.444 369.009, 796.444 375.008, 796.444 380.777, 796.444 386.093, 796.444 390.753, 796.444 394.577, 796.444 397.419, 796.444 399.169, 796.444 399.760, 796.444 " />
            <path fill="none" stroke-width="1.5" stroke-linecap="round" stroke-opacity="1.0" stroke="rgb(0, 0, 0)" stroke-linejoin="round" d=" M 704.927, 611.940 702.085, 611.940 " />
            <path fill="none" stroke-width="1.5" stroke-linecap="round" stroke-opacity="1.0" stroke="rgb(0, 0, 0)" stroke-linejoin="round" d=" M 648.107, 611.940 650.948, 611.940 " />
            <path fill="none" stroke-width="1.5" stroke-linecap="round" stroke-opacity="1.0" stroke="rgb(0, 0, 0)" stroke-linejoin="round" d=" M 702.085, 611.940 704.927, 611.940 " />
            <path fill="none" stroke-width="1.5" stroke-linecap="round" stroke-opacity="1.0" stroke="rgb(0, 0, 0)" stroke-linejoin="round" d=" M 707.267, 796.444 707.267, 786.444 707.267, 776.444 707.267, 766.444 707.267, 756.444 707.267, 746.444 707.267, 736.444 707.267, 726.444 707.267, 716.444 707.267, 706.444 707.267, 696.444 707.267, 686.444 707.267, 676.444 707.267, 666.444 707.267, 656.444 707.267, 646.444 707.267, 636.444 707.267, 626.444 707.267, 616.444 707.267, 611.940 706.676, 611.940 704.927, 611.940 702.085, 611.940 698.261, 611.940 693.601, 611.940 688.284, 611.940 682.516, 611.940 676.517, 611.940 670.517, 611.940 664.749, 611.940 659.432, 611.940 654.773, 611.940 650.948, 611.940 648.107, 611.940 646.357, 611.940 645.766, 611.940 645.766, 621.940 645.766, 631.940 645.766, 641.940 645.766, 651.940 645.766, 661.940 645.766, 671.940 645.766, 681.940 645.766, 691.940 645.766, 701.940 645.766, 711.940 645.766, 721.940 645.766, 731.940 645.766, 741.940 645.766, 751.940 645.766, 761.940 645.766, 771.940 645.766, 781.940 645.766, 791.940 645.766, 796.444 646.357, 796.444 648.107, 796.444 650.948, 796.444 654.773, 796.444 659.432, 796.444 664.749, 796.444 670.517, 796.444 676.517, 796.444 682.516, 796.444 688.284, 796.444 693.601, 796.444 698.261, 796.444 702.085, 796.444 704.927, 796.444 706.676, 796.444 707.267, 796.444 " />
            <path fill="none" stroke-width="1.5" stroke-linecap="round" stroke-opacity="1.0" stroke="rgb(0, 0, 0)" stroke-linejoin="round" d=" M 738.018, 541.213 738.018, 531.213 738.018, 521.213 738.018, 511.213 738.018, 501.213 738.018, 498.162 738.018, 498.162 728.018, 498.162 718.018, 498.162 708.018, 498.162 698.018, 498.162 688.018, 498.162 678.018, 498.162 668.018, 498.162 658.018, 498.162 648.018, 498.162 638.018, 498.162 628.018, 498.162 618.018, 498.162 608.018, 498.162 598.018, 498.162 588.018, 498.162 578.018, 498.162 568.018, 498.162 558.018, 498.162 548.018, 498.162 538.018, 498.162 528.018, 498.162 518.018, 498.162 508.018, 498.162 498.018, 498.162 488.018, 498.162 478.018, 498.162 468.018, 498.162 458.018, 498.162 448.018, 498.162 438.018, 498.162 428.018, 498.162 418.018, 498.162 408.018, 498.162 398.018, 498.162 388.018, 498.162 378.018, 498.162 368.018, 498.162 358.018, 498.162 348.018, 498.162 338.018, 498.162 328.018, 498.162 318.018, 498.162 307.508, 498.162 307.508, 508.162 307.508, 518.162 307.508, 528.162 307.508, 538.162 307.508, 541.213 307.508, 541.213 317.508, 541.213 327.508, 541.213 337.508, 541.213 347.508, 541.213 357.508, 541.213 367.508, 541.213 377.508, 541.213 387.508, 541.213 397.508, 541.213 407.508, 541.213 417.508, 541.213 427.508, 541.213 437.508, 541.213 447.508, 541.213 457.508, 541.213 467.508, 541.213 477.508, 541.213 487.508, 541.213 497.508, 541.213 507.508, 541.213 517.508, 541.213 527.508, 541.213 537.508, 541.213 547.508, 541.213 557.508, 541.213 567.508, 541.213 577.508, 541.213 587.508, 541.213 597.508, 541.213 607.508, 541.213 617.508, 541.213 627.508, 541.213 637.508, 541.213 647.508, 541.213 657.508, 541.213 667.508, 541.213 677.508, 541.213 687.508, 541.213 697.508, 541.213 707.508, 541.213 717.508, 541.213 727.508, 541.213 738.018, 541.213 " />
            <path fill="none" stroke-width="1.5" stroke-linecap="round" stroke-opacity="1.0" stroke="rgb(0, 0, 0)" stroke-linejoin="round" d=" M 738.018, 498.162 738.018, 508.162 738.018, 518.162 738.018, 528.162 738.018, 538.162 738.018, 541.213 " />
            <path fill="none" stroke-width="1.5" stroke-linecap="round" stroke-opacity="1.0" stroke="rgb(0, 0, 0)" stroke-linejoin="round" d=" M 307.508, 541.213 317.508, 541.213 327.508, 541.213 337.508, 541.213 347.508, 541.213 357.508, 541.213 367.508, 541.213 377.508, 541.213 387.508, 541.213 397.508, 541.213 407.508, 541.213 417.508, 541.213 427.508, 541.213 437.508, 541.213 447.508, 541.213 457.508, 541.213 467.508, 541.213 477.508, 541.213 487.508, 541.213 497.508, 541.213 507.508, 541.213 517.508, 541.213 527.508, 541.213 537.508, 541.213 547.508, 541.213 557.508, 541.213 567.508, 541.213 577.508, 541.213 587.508, 541.213 597.508, 541.213 607.508, 541.213 617.508, 541.213 627.508, 541.213 637.508, 541.213 647.508, 541.213 657.508, 541.213 667.508, 541.213 677.508, 541.213 687.508, 541.213 697.508, 541.213 707.508, 541.213 717.508, 541.213 727.508, 541.213 738.018, 541.213 738.018, 541.213 " />
            <path fill="none" stroke-width="1.5" stroke-linecap="round" stroke-opacity="1.0" stroke="rgb(0, 0, 0)" stroke-linejoin="round" d=" M 329.033, 353.634 329.033, 343.634 329.033, 333.634 329.033, 323.634 329.033, 313.634 329.033, 303.634 329.033, 293.634 329.033, 283.634 329.033, 273.634 329.033, 263.634 329.033, 253.634 329.033, 243.634 329.033, 233.634 329.033, 227.556 329.033, 227.556 319.033, 227.556 309.033, 227.556 299.033, 227.556 289.033, 227.556 285.982, 227.556 285.982, 237.556 285.982, 247.556 285.982, 257.556 285.982, 267.556 285.982, 277.556 285.982, 287.556 285.982, 297.556 285.982, 307.556 285.982, 317.556 285.982, 327.556 285.982, 337.556 285.982, 347.556 285.982, 357.556 285.982, 367.556 285.982, 377.556 285.982, 387.556 285.982, 397.556 285.982, 407.556 285.982, 417.556 285.982, 427.556 285.982, 437.556 285.982, 442.811 285.982, 442.811 295.982, 442.811 305.982, 442.811 315.982, 442.811 325.982, 442.811 329.033, 442.811 329.033, 439.736 " />
            <path fill="none" stroke-width="1.5" stroke-linecap="round" stroke-opacity="1.0" stroke="rgb(0, 0, 0)" stroke-linejoin="round" d=" M 329.033, 227.556 329.033, 237.556 329.033, 247.556 329.033, 257.556 329.033, 267.556 329.033, 277.556 329.033, 287.556 329.033, 297.556 329.033, 307.556 329.033, 317.556 329.033, 327.556 329.033, 337.556 329.033, 347.556 329.033, 353.634 " />
            <path fill="none" stroke-width="1.5" stroke-linecap="round" stroke-opacity="1.0" stroke="rgb(0, 0, 0)" stroke-linejoin="round" d=" M 329.033, 442.811 329.033, 442.811 " />
            <path fill="none" stroke-width="1.5" stroke-linecap="round" stroke-opacity="1.0" stroke="rgb(0, 0, 0)" stroke-linejoin="round" d=" M 285.982, 442.811 295.982, 442.811 305.982, 442.811 315.982, 442.811 325.982, 442.811 329.033, 442.811 329.033, 439.736 329.033, 439.736 " />
            <path fill="none" stroke-width="1.5" stroke-linecap="round" stroke-opacity="1.0" stroke="rgb(0, 0, 0)" stroke-linejoin="round" d=" M 329.033, 439.736 329.033, 439.736 339.033, 439.736 349.033, 439.736 359.033, 439.736 369.033, 439.736 379.033, 439.736 389.033, 439.736 399.033, 439.736 409.033, 439.736 419.033, 439.736 429.033, 439.736 439.033, 439.736 449.033, 439.736 459.033, 439.736 469.033, 439.736 479.033, 439.736 489.033, 439.736 499.033, 439.736 509.033, 439.736 519.033, 439.736 529.033, 439.736 539.033, 439.736 549.033, 439.736 559.033, 439.736 569.033, 439.736 579.033, 439.736 589.033, 439.736 599.033, 439.736 609.033, 439.736 619.033, 439.736 629.033, 439.736 639.033, 439.736 649.033, 439.736 659.033, 439.736 669.033, 439.736 679.033, 439.736 689.033, 439.736 699.033, 439.736 709.033, 439.736 719.033, 439.736 729.033, 439.736 738.018, 439.736 738.018, 429.736 738.018, 419.736 738.018, 409.736 738.018, 399.736 738.018, 389.736 738.018, 379.736 738.018, 369.736 738.018, 359.736 738.018, 353.634 738.018, 353.634 " />
            <path fill="none" stroke-width="1.5" stroke-linecap="round" stroke-opacity="1.0" stroke="rgb(0, 0, 0)" stroke-linejoin="round" d=" M 738.018, 439.736 738.018, 429.736 738.018, 419.736 738.018, 409.736 738.018, 399.736 738.018, 389.736 738.018, 379.736 738.018, 369.736 738.018, 359.736 738.018, 353.634 " />
            <path fill="none" stroke-width="1.5" stroke-linecap="round" stroke-opacity="1.0" stroke="rgb(0, 0, 0)" stroke-linejoin="round" d=" M 738.018, 353.634 728.018, 353.634 718.018, 353.634 708.018, 353.634 698.018, 353.634 688.018, 353.634 678.018, 353.634 668.018, 353.634 658.018, 353.634 648.018, 353.634 638.018, 353.634 628.018, 353.634 618.018, 353.634 608.018, 353.634 598.018, 353.634 588.018, 353.634 578.018, 353.634 568.018, 353.634 558.018, 353.634 548.018, 353.634 538.018, 353.634 528.018, 353.634 518.018, 353.634 508.018, 353.634 498.018, 353.634 488.018, 353.634 478.018, 353.634 468.018, 353.634 458.018, 353.634 448.018, 353.634 438.018, 353.634 428.018, 353.634 418.018, 353.634 408.018, 353.634 398.018, 353.634 388.018, 353.634 378.018, 353.634 368.018, 353.634 358.018, 353.634 348.018, 353.634 338.018, 353.634 329.033, 353.634 329.033, 353.634 319.033, 353.634 309.033, 353.634 307.508, 353.634 307.508, 363.634 307.508, 373.634 307.508, 383.634 307.508, 393.634 307.508, 403.634 307.508, 413.634 307.508, 423.634 307.508, 433.634 307.508, 439.736 307.508, 439.736 " />
            <path fill="none" stroke-width="1.5" stroke-linecap="round" stroke-opacity="1.0" stroke="rgb(0, 0, 0)" stroke-linejoin="round" d=" M 307.508, 439.736 317.508, 439.736 327.508, 439.736 329.033, 439.736 329.033, 439.736 339.033, 439.736 349.033, 439.736 359.033, 439.736 369.033, 439.736 379.033, 439.736 389.033, 439.736 399.033, 439.736 409.033, 439.736 419.033, 439.736 429.033, 439.736 439.033, 439.736 449.033, 439.736 459.033, 439.736 469.033, 439.736 479.033, 439.736 489.033, 439.736 499.033, 439.736 509.033, 439.736 519.033, 439.736 529.033, 439.736 539.033, 439.736 549.033, 439.736 559.033, 439.736 569.033, 439.736 579.033, 439.736 589.033, 439.736 599.033, 439.736 609.033, 439.736 619.033, 439.736 629.033, 439.736 639.033, 439.736 649.033, 439.736 659.033, 439.736 669.033, 439.736 679.033, 439.736 689.033, 439.736 699.033, 439.736 709.033, 439.736 719.033, 439.736 729.033, 439.736 738.018, 439.736 " />
            <path fill="none" stroke-width="1.5" stroke-linecap="round" stroke-opacity="1.0" stroke="rgb(0, 0, 0)" stroke-linejoin="round" d=" M 738.018, 353.634 738.018, 353.634 " />
        </g>
    </g>
    <g id="ViewLayer_TechnicalLines.004" xmlns:inkscape="http://www.inkscape.org/namespaces/inkscape" inkscape:groupmode="lineset" inkscape:label="ViewLayer_TechnicalLines.004">
        <g xmlns:inkscape="http://www.inkscape.org/namespaces/inkscape" inkscape:groupmode="layer" id="strokes" inkscape:label="strokes">
            <path fill="none" stroke-width="1.5" stroke-linecap="round" stroke-opacity="1.0" stroke="rgb(0, 0, 0)" stroke-linejoin="round" d=" M 399.760, 796.444 399.760, 796.444 399.760, 786.444 399.760, 776.444 399.760, 766.444 399.760, 756.444 399.760, 746.444 399.760, 736.444 399.760, 726.444 399.760, 716.444 399.760, 706.444 399.760, 696.444 399.760, 686.444 399.760, 676.444 399.760, 666.444 399.760, 656.444 399.760, 646.444 399.760, 636.444 399.760, 626.444 399.760, 616.444 399.760, 611.940 " />
            <path fill="none" stroke-width="1.5" stroke-linecap="round" stroke-opacity="1.0" stroke="rgb(0, 0, 0)" stroke-linejoin="round" d=" M 397.419, 611.940 394.577, 611.940 " />
            <path fill="none" stroke-width="1.5" stroke-linecap="round" stroke-opacity="1.0" stroke="rgb(0, 0, 0)" stroke-linejoin="round" d=" M 399.760, 796.444 399.760, 786.444 399.760, 776.444 399.760, 766.444 399.760, 756.444 399.760, 746.444 399.760, 736.444 399.760, 726.444 399.760, 716.444 399.760, 706.444 399.760, 696.444 399.760, 686.444 399.760, 676.444 399.760, 666.444 399.760, 656.444 399.760, 646.444 399.760, 636.444 399.760, 626.444 399.760, 616.444 399.760, 611.940 399.169, 611.940 397.419, 611.940 394.577, 611.940 390.753, 611.940 386.093, 611.940 380.777, 611.940 375.008, 611.940 369.009, 611.940 363.010, 611.940 357.241, 611.940 351.925, 611.940 347.265, 611.940 343.441, 611.940 340.599, 611.940 338.849, 611.940 338.258, 611.940 338.258, 621.940 338.258, 631.940 338.258, 641.940 338.258, 651.940 338.258, 661.940 338.258, 671.940 338.258, 681.940 338.258, 691.940 338.258, 701.940 338.258, 711.940 338.258, 721.940 338.258, 731.940 338.258, 741.940 338.258, 751.940 338.258, 761.940 338.258, 771.940 338.258, 781.940 338.258, 791.940 338.258, 796.444 338.258, 796.444 338.849, 796.444 340.599, 796.444 343.441, 796.444 347.265, 796.444 351.925, 796.444 357.241, 796.444 363.010, 796.444 369.009, 796.444 375.008, 796.444 380.777, 796.444 386.093, 796.444 390.753, 796.444 394.577, 796.444 397.419, 796.444 399.169, 796.444 399.760, 796.444 " />
            <path fill="none" stroke-width="1.5" stroke-linecap="round" stroke-opacity="1.0" stroke="rgb(0, 0, 0)" stroke-linejoin="round" d=" M 704.927, 611.940 702.085, 611.940 " />
            <path fill="none" stroke-width="1.5" stroke-linecap="round" stroke-opacity="1.0" stroke="rgb(0, 0, 0)" stroke-linejoin="round" d=" M 648.107, 611.940 650.948, 611.940 " />
            <path fill="none" stroke-width="1.5" stroke-linecap="round" stroke-opacity="1.0" stroke="rgb(0, 0, 0)" stroke-linejoin="round" d=" M 702.085, 611.940 704.927, 611.940 " />
            <path fill="none" stroke-width="1.5" stroke-linecap="round" stroke-opacity="1.0" stroke="rgb(0, 0, 0)" stroke-linejoin="round" d=" M 707.267, 796.444 707.267, 786.444 707.267, 776.444 707.267, 766.444 707.267, 756.444 707.267, 746.444 707.267, 736.444 707.267, 726.444 707.267, 716.444 707.267, 706.444 707.267, 696.444 707.267, 686.444 707.267, 676.444 707.267, 666.444 707.267, 656.444 707.267, 646.444 707.267, 636.444 707.267, 626.444 707.267, 616.444 707.267, 611.940 706.676, 611.940 704.927, 611.940 702.085, 611.940 698.261, 611.940 693.601, 611.940 688.284, 611.940 682.516, 611.940 676.517, 611.940 670.517, 611.940 664.749, 611.940 659.432, 611.940 654.773, 611.940 650.948, 611.940 648.107, 611.940 646.357, 611.940 645.766, 611.940 645.766, 621.940 645.766, 631.940 645.766, 641.940 645.766, 651.940 645.766, 661.940 645.766, 671.940 645.766, 681.940 645.766, 691.940 645.766, 701.940 645.766, 711.940 645.766, 721.940 645.766, 731.940 645.766, 741.940 645.766, 751.940 645.766, 761.940 645.766, 771.940 645.766, 781.940 645.766, 791.940 645.766, 796.444 646.357, 796.444 648.107, 796.444 650.948, 796.444 654.773, 796.444 659.432, 796.444 664.749, 796.444 670.517, 796.444 676.517, 796.444 682.516, 796.444 688.284, 796.444 693.601, 796.444 698.261, 796.444 702.085, 796.444 704.927, 796.444 706.676, 796.444 707.267, 796.444 " />
            <path fill="none" stroke-width="1.5" stroke-linecap="round" stroke-opacity="1.0" stroke="rgb(0, 0, 0)" stroke-linejoin="round" d=" M 738.018, 541.213 738.018, 531.213 738.018, 521.213 738.018, 511.213 738.018, 501.213 738.018, 498.162 738.018, 498.162 728.018, 498.162 718.018, 498.162 708.018, 498.162 698.018, 498.162 688.018, 498.162 678.018, 498.162 668.018, 498.162 658.018, 498.162 648.018, 498.162 638.018, 498.162 628.018, 498.162 618.018, 498.162 608.018, 498.162 598.018, 498.162 588.018, 498.162 578.018, 498.162 568.018, 498.162 558.018, 498.162 548.018, 498.162 538.018, 498.162 528.018, 498.162 518.018, 498.162 508.018, 498.162 498.018, 498.162 488.018, 498.162 478.018, 498.162 468.018, 498.162 458.018, 498.162 448.018, 498.162 438.018, 498.162 428.018, 498.162 418.018, 498.162 408.018, 498.162 398.018, 498.162 388.018, 498.162 378.018, 498.162 368.018, 498.162 358.018, 498.162 348.018, 498.162 338.018, 498.162 328.018, 498.162 318.018, 498.162 307.508, 498.162 307.508, 508.162 307.508, 518.162 307.508, 528.162 307.508, 538.162 307.508, 541.213 307.508, 541.213 317.508, 541.213 327.508, 541.213 337.508, 541.213 347.508, 541.213 357.508, 541.213 367.508, 541.213 377.508, 541.213 387.508, 541.213 397.508, 541.213 407.508, 541.213 417.508, 541.213 427.508, 541.213 437.508, 541.213 447.508, 541.213 457.508, 541.213 467.508, 541.213 477.508, 541.213 487.508, 541.213 497.508, 541.213 507.508, 541.213 517.508, 541.213 527.508, 541.213 537.508, 541.213 547.508, 541.213 557.508, 541.213 567.508, 541.213 577.508, 541.213 587.508, 541.213 597.508, 541.213 607.508, 541.213 617.508, 541.213 627.508, 541.213 637.508, 541.213 647.508, 541.213 657.508, 541.213 667.508, 541.213 677.508, 541.213 687.508, 541.213 697.508, 541.213 707.508, 541.213 717.508, 541.213 727.508, 541.213 738.018, 541.213 " />
            <path fill="none" stroke-width="1.5" stroke-linecap="round" stroke-opacity="1.0" stroke="rgb(0, 0, 0)" stroke-linejoin="round" d=" M 738.018, 498.162 738.018, 508.162 738.018, 518.162 738.018, 528.162 738.018, 538.162 738.018, 541.213 " />
            <path fill="none" stroke-width="1.5" stroke-linecap="round" stroke-opacity="1.0" stroke="rgb(0, 0, 0)" stroke-linejoin="round" d=" M 307.508, 541.213 317.508, 541.213 327.508, 541.213 337.508, 541.213 347.508, 541.213 357.508, 541.213 367.508, 541.213 377.508, 541.213 387.508, 541.213 397.508, 541.213 407.508, 541.213 417.508, 541.213 427.508, 541.213 437.508, 541.213 447.508, 541.213 457.508, 541.213 467.508, 541.213 477.508, 541.213 487.508, 541.213 497.508, 541.213 507.508, 541.213 517.508, 541.213 527.508, 541.213 537.508, 541.213 547.508, 541.213 557.508, 541.213 567.508, 541.213 577.508, 541.213 587.508, 541.213 597.508, 541.213 607.508, 541.213 617.508, 541.213 627.508, 541.213 637.508, 541.213 647.508, 541.213 657.508, 541.213 667.508, 541.213 677.508, 541.213 687.508, 541.213 697.508, 541.213 707.508, 541.213 717.508, 541.213 727.508, 541.213 738.018, 541.213 738.018, 541.213 " />
            <path fill="none" stroke-width="1.5" stroke-linecap="round" stroke-opacity="1.0" stroke="rgb(0, 0, 0)" stroke-linejoin="round" d=" M 329.033, 353.634 329.033, 343.634 329.033, 333.634 329.033, 323.634 329.033, 313.634 329.033, 303.634 329.033, 293.634 329.033, 283.634 329.033, 273.634 329.033, 263.634 329.033, 253.634 329.033, 243.634 329.033, 233.634 329.033, 227.556 329.033, 227.556 319.033, 227.556 309.033, 227.556 299.033, 227.556 289.033, 227.556 285.982, 227.556 285.982, 237.556 285.982, 247.556 285.982, 257.556 285.982, 267.556 285.982, 277.556 285.982, 287.556 285.982, 297.556 285.982, 307.556 285.982, 317.556 285.982, 327.556 285.982, 337.556 285.982, 347.556 285.982, 357.556 285.982, 367.556 285.982, 377.556 285.982, 387.556 285.982, 397.556 285.982, 407.556 285.982, 417.556 285.982, 427.556 285.982, 437.556 285.982, 442.811 285.982, 442.811 295.982, 442.811 305.982, 442.811 315.982, 442.811 325.982, 442.811 329.033, 442.811 329.033, 439.736 " />
            <path fill="none" stroke-width="1.5" stroke-linecap="round" stroke-opacity="1.0" stroke="rgb(0, 0, 0)" stroke-linejoin="round" d=" M 329.033, 227.556 329.033, 237.556 329.033, 247.556 329.033, 257.556 329.033, 267.556 329.033, 277.556 329.033, 287.556 329.033, 297.556 329.033, 307.556 329.033, 317.556 329.033, 327.556 329.033, 337.556 329.033, 347.556 329.033, 353.634 " />
            <path fill="none" stroke-width="1.5" stroke-linecap="round" stroke-opacity="1.0" stroke="rgb(0, 0, 0)" stroke-linejoin="round" d=" M 329.033, 442.811 329.033, 442.811 " />
            <path fill="none" stroke-width="1.5" stroke-linecap="round" stroke-opacity="1.0" stroke="rgb(0, 0, 0)" stroke-linejoin="round" d=" M 285.982, 442.811 295.982, 442.811 305.982, 442.811 315.982, 442.811 325.982, 442.811 329.033, 442.811 329.033, 439.736 329.033, 439.736 " />
            <path fill="none" stroke-width="1.5" stroke-linecap="round" stroke-opacity="1.0" stroke="rgb(0, 0, 0)" stroke-linejoin="round" d=" M 329.033, 439.736 329.033, 439.736 339.033, 439.736 349.033, 439.736 359.033, 439.736 369.033, 439.736 379.033, 439.736 389.033, 439.736 399.033, 439.736 409.033, 439.736 419.033, 439.736 429.033, 439.736 439.033, 439.736 449.033, 439.736 459.033, 439.736 469.033, 439.736 479.033, 439.736 489.033, 439.736 499.033, 439.736 509.033, 439.736 519.033, 439.736 529.033, 439.736 539.033, 439.736 549.033, 439.736 559.033, 439.736 569.033, 439.736 579.033, 439.736 589.033, 439.736 599.033, 439.736 609.033, 439.736 619.033, 439.736 629.033, 439.736 639.033, 439.736 649.033, 439.736 659.033, 439.736 669.033, 439.736 679.033, 439.736 689.033, 439.736 699.033, 439.736 709.033, 439.736 719.033, 439.736 729.033, 439.736 738.018, 439.736 738.018, 429.736 738.018, 419.736 738.018, 409.736 738.018, 399.736 738.018, 389.736 738.018, 379.736 738.018, 369.736 738.018, 359.736 738.018, 353.634 738.018, 353.634 " />
            <path fill="none" stroke-width="1.5" stroke-linecap="round" stroke-opacity="1.0" stroke="rgb(0, 0, 0)" stroke-linejoin="round" d=" M 738.018, 439.736 738.018, 429.736 738.018, 419.736 738.018, 409.736 738.018, 399.736 738.018, 389.736 738.018, 379.736 738.018, 369.736 738.018, 359.736 738.018, 353.634 " />
            <path fill="none" stroke-width="1.5" stroke-linecap="round" stroke-opacity="1.0" stroke="rgb(0, 0, 0)" stroke-linejoin="round" d=" M 738.018, 353.634 728.018, 353.634 718.018, 353.634 708.018, 353.634 698.018, 353.634 688.018, 353.634 678.018, 353.634 668.018, 353.634 658.018, 353.634 648.018, 353.634 638.018, 353.634 628.018, 353.634 618.018, 353.634 608.018, 353.634 598.018, 353.634 588.018, 353.634 578.018, 353.634 568.018, 353.634 558.018, 353.634 548.018, 353.634 538.018, 353.634 528.018, 353.634 518.018, 353.634 508.018, 353.634 498.018, 353.634 488.018, 353.634 478.018, 353.634 468.018, 353.634 458.018, 353.634 448.018, 353.634 438.018, 353.634 428.018, 353.634 418.018, 353.634 408.018, 353.634 398.018, 353.634 388.018, 353.634 378.018, 353.634 368.018, 353.634 358.018, 353.634 348.018, 353.634 338.018, 353.634 329.033, 353.634 329.033, 353.634 319.033, 353.634 309.033, 353.634 307.508, 353.634 307.508, 363.634 307.508, 373.634 307.508, 383.634 307.508, 393.634 307.508, 403.634 307.508, 413.634 307.508, 423.634 307.508, 433.634 307.508, 439.736 307.508, 439.736 " />
            <path fill="none" stroke-width="1.5" stroke-linecap="round" stroke-opacity="1.0" stroke="rgb(0, 0, 0)" stroke-linejoin="round" d=" M 307.508, 439.736 317.508, 439.736 327.508, 439.736 329.033, 439.736 329.033, 439.736 339.033, 439.736 349.033, 439.736 359.033, 439.736 369.033, 439.736 379.033, 439.736 389.033, 439.736 399.033, 439.736 409.033, 439.736 419.033, 439.736 429.033, 439.736 439.033, 439.736 449.033, 439.736 459.033, 439.736 469.033, 439.736 479.033, 439.736 489.033, 439.736 499.033, 439.736 509.033, 439.736 519.033, 439.736 529.033, 439.736 539.033, 439.736 549.033, 439.736 559.033, 439.736 569.033, 439.736 579.033, 439.736 589.033, 439.736 599.033, 439.736 609.033, 439.736 619.033, 439.736 629.033, 439.736 639.033, 439.736 649.033, 439.736 659.033, 439.736 669.033, 439.736 679.033, 439.736 689.033, 439.736 699.033, 439.736 709.033, 439.736 719.033, 439.736 729.033, 439.736 738.018, 439.736 " />
            <path fill="none" stroke-width="1.5" stroke-linecap="round" stroke-opacity="1.0" stroke="rgb(0, 0, 0)" stroke-linejoin="round" d=" M 738.018, 353.634 738.018, 353.634 " />
        </g>
    </g>
</svg>
