<?xml version='1.0' encoding='ascii'?>
<svg xmlns="http://www.w3.org/2000/svg" xmlns:inkscape="http://www.inkscape.org/namespaces/inkscape" version="1.1" width="1024" height="1024">
    <g id="ViewLayer_LineSet" inkscape:groupmode="lineset" inkscape:label="ViewLayer_LineSet">
        <g inkscape:groupmode="layer" id="strokes" inkscape:label="strokes">
            <path fill="none" stroke-width="3.0" stroke-linecap="butt" stroke-opacity="1.0" stroke="rgb(0, 0, 0)" stroke-linejoin="round" d=" M 227.556, 625.778 227.556, 635.778 227.556, 645.778 227.556, 655.778 227.556, 665.778 227.556, 675.778 227.556, 682.667 237.556, 682.667 247.556, 682.667 257.556, 682.667 267.556, 682.667 277.556, 682.667 287.556, 682.667 297.556, 682.667 307.556, 682.667 317.556, 682.667 327.556, 682.667 337.556, 682.667 347.556, 682.667 357.556, 682.667 367.556, 682.667 377.556, 682.667 387.556, 682.667 397.556, 682.667 407.556, 682.667 417.556, 682.667 427.556, 682.667 437.556, 682.667 447.556, 682.667 457.556, 682.667 467.556, 682.667 477.556, 682.667 487.556, 682.667 497.556, 682.667 507.556, 682.667 517.556, 682.667 527.556, 682.667 537.556, 682.667 547.556, 682.667 557.556, 682.667 567.556, 682.667 577.556, 682.667 587.556, 682.667 597.556, 682.667 607.556, 682.667 617.556, 682.667 627.556, 682.667 637.556, 682.667 647.556, 682.667 657.556, 682.667 667.556, 682.667 677.556, 682.667 687.556, 682.667 697.556, 682.667 707.556, 682.667 717.556, 682.667 727.556, 682.667 737.556, 682.667 747.556, 682.667 757.556, 682.667 767.556, 682.667 777.556, 682.667 787.556, 682.667 796.444, 682.667 796.444, 672.667 796.444, 662.667 796.444, 652.667 796.444, 642.667 796.444, 632.667 796.444, 625.778 786.444, 625.778 776.444, 625.778 766.444, 625.778 756.444, 625.778 746.444, 625.778 736.444, 625.778 726.444, 625.778 716.444, 625.778 706.444, 625.778 696.444, 625.778 686.444, 625.778 676.444, 625.778 666.444, 625.778 656.444, 625.778 646.444, 625.778 636.444, 625.778 626.444, 625.778 616.444, 625.778 606.444, 625.778 596.444, 625.778 586.444, 625.778 576.444, 625.778 566.444, 625.778 556.444, 625.778 546.444, 625.778 536.444, 625.778 526.444, 625.778 516.444, 625.778 506.444, 625.778 496.444, 625.778 486.444, 625.778 476.444, 625.778 466.444, 625.778 456.444, 625.778 446.444, 625.778 436.444, 625.778 426.444, 625.778 416.444, 625.778 406.444, 625.778 396.444, 625.778 386.444, 625.778 376.444, 625.778 366.444, 625.778 356.444, 625.778 346.444, 625.778 336.444, 625.778 326.444, 625.778 316.444, 625.778 306.444, 625.778 296.444, 625.778 286.444, 625.778 276.444, 625.778 266.444, 625.778 256.444, 625.778 246.444, 625.778 236.444, 625.778 227.556, 625.778 " />
            <path fill="none" stroke-width="3.0" stroke-linecap="butt" stroke-opacity="1.0" stroke="rgb(0, 0, 0)" stroke-linejoin="round" d=" M 227.556, 625.778 237.556, 625.778 247.556, 625.778 257.556, 625.778 267.556, 625.778 277.556, 625.778 284.444, 625.778 " />
            <path fill="none" stroke-width="3.0" stroke-linecap="butt" stroke-opacity="1.0" stroke="rgb(0, 0, 0)" stroke-linejoin="round" d=" M 796.444, 625.778 796.444, 615.778 796.444, 605.778 796.444, 595.778 796.444, 585.778 796.444, 575.778 796.444, 565.778 796.444, 555.778 796.444, 545.778 796.444, 535.778 796.444, 525.778 796.444, 515.778 796.444, 505.778 796.444, 495.778 796.444, 485.778 796.444, 475.778 796.444, 465.778 796.444, 455.778 796.444, 445.778 796.444, 435.778 796.444, 425.778 796.444, 415.778 796.444, 405.778 796.444, 395.778 796.444, 385.778 796.444, 375.778 796.444, 365.778 796.444, 355.778 796.444, 345.778 796.444, 341.333 " />
            <path fill="none" stroke-width="3.0" stroke-linecap="butt" stroke-opacity="1.0" stroke="rgb(0, 0, 0)" stroke-linejoin="round" d=" M 227.556, 341.333 227.556, 351.333 227.556, 361.333 227.556, 371.333 227.556, 381.333 227.556, 391.333 227.556, 401.333 227.556, 411.333 227.556, 421.333 227.556, 431.333 227.556, 441.333 227.556, 451.333 227.556, 461.333 227.556, 471.333 227.556, 481.333 227.556, 491.333 227.556, 501.333 227.556, 511.333 227.556, 521.333 227.556, 531.333 227.556, 541.333 227.556, 551.333 227.556, 561.333 227.556, 571.333 227.556, 581.333 227.556, 591.333 227.556, 601.333 227.556, 611.333 227.556, 621.333 227.556, 625.778 " />
            <path fill="none" stroke-width="3.0" stroke-linecap="butt" stroke-opacity="1.0" stroke="rgb(0, 0, 0)" stroke-linejoin="round" d=" M 284.444, 341.333 274.444, 341.333 264.444, 341.333 254.444, 341.333 244.444, 341.333 234.444, 341.333 227.556, 341.333 " />
            <path fill="none" stroke-width="3.0" stroke-linecap="butt" stroke-opacity="1.0" stroke="rgb(0, 0, 0)" stroke-linejoin="round" d=" M 284.444, 625.778 284.444, 615.778 284.444, 605.778 284.444, 595.778 284.444, 585.778 284.444, 575.778 284.444, 565.778 284.444, 555.778 284.444, 545.778 284.444, 535.778 284.444, 525.778 284.444, 515.778 284.444, 505.778 284.444, 495.778 284.444, 485.778 284.444, 475.778 284.444, 465.778 284.444, 455.778 284.444, 445.778 284.444, 435.778 284.444, 425.778 284.444, 415.778 284.444, 405.778 284.444, 395.778 284.444, 385.778 284.444, 375.778 284.444, 365.778 284.444, 355.778 284.444, 345.778 284.444, 341.333 " />
            <path fill="none" stroke-width="3.0" stroke-linecap="butt" stroke-opacity="1.0" stroke="rgb(0, 0, 0)" stroke-linejoin="round" d=" M 739.556, 341.333 739.556, 351.333 739.556, 361.333 739.556, 371.333 739.556, 381.333 739.556, 391.333 739.556, 401.333 739.556, 411.333 739.556, 421.333 739.556, 431.333 739.556, 441.333 739.556, 451.333 739.556, 461.333 739.556, 471.333 739.556, 481.333 739.556, 491.333 739.556, 501.333 739.556, 511.333 739.556, 521.333 739.556, 531.333 739.556, 541.333 739.556, 551.333 739.556, 561.333 739.556, 571.333 739.556, 581.333 739.556, 591.333 739.556, 601.333 739.556, 611.333 739.556, 621.333 739.556, 625.778 " />
            <path fill="none" stroke-width="3.0" stroke-linecap="butt" stroke-opacity="1.0" stroke="rgb(0, 0, 0)" stroke-linejoin="round" d=" M 284.444, 625.778 294.444, 625.778 304.444, 625.778 314.444, 625.778 324.444, 625.778 334.444, 625.778 344.444, 625.778 354.444, 625.778 364.444, 625.778 374.444, 625.778 384.444, 625.778 394.444, 625.778 404.444, 625.778 414.444, 625.778 424.444, 625.778 434.444, 625.778 444.444, 625.778 454.444, 625.778 464.444, 625.778 474.444, 625.778 484.444, 625.778 494.444, 625.778 504.444, 625.778 514.444, 625.778 524.444, 625.778 534.444, 625.778 544.444, 625.778 554.444, 625.778 564.444, 625.778 574.444, 625.778 584.444, 625.778 594.444, 625.778 604.444, 625.778 614.444, 625.778 624.444, 625.778 634.444, 625.778 644.444, 625.778 654.444, 625.778 664.444, 625.778 674.444, 625.778 684.444, 625.778 694.444, 625.778 704.444, 625.778 714.444, 625.778 724.444, 625.778 734.444, 625.778 739.556, 625.778 " />
            <path fill="none" stroke-width="3.0" stroke-linecap="butt" stroke-opacity="1.0" stroke="rgb(0, 0, 0)" stroke-linejoin="round" d=" M 739.556, 625.778 749.556, 625.778 759.556, 625.778 769.556, 625.778 779.556, 625.778 789.556, 625.778 796.444, 625.778 " />
            <path fill="none" stroke-width="3.0" stroke-linecap="butt" stroke-opacity="1.0" stroke="rgb(0, 0, 0)" stroke-linejoin="round" d=" M 739.556, 341.333 729.556, 341.333 719.556, 341.333 709.556, 341.333 699.556, 341.333 689.556, 341.333 679.556, 341.333 669.556, 341.333 659.556, 341.333 649.556, 341.333 639.556, 341.333 629.556, 341.333 619.556, 341.333 609.556, 341.333 599.556, 341.333 589.556, 341.333 579.556, 341.333 569.556, 341.333 559.556, 341.333 549.556, 341.333 539.556, 341.333 529.556, 341.333 519.556, 341.333 509.556, 341.333 499.556, 341.333 489.556, 341.333 479.556, 341.333 469.556, 341.333 459.556, 341.333 449.556, 341.333 439.556, 341.333 429.556, 341.333 419.556, 341.333 409.556, 341.333 399.556, 341.333 389.556, 341.333 379.556, 341.333 369.556, 341.333 359.556, 341.333 349.556, 341.333 339.556, 341.333 329.556, 341.333 319.556, 341.333 309.556, 341.333 299.556, 341.333 289.556, 341.333 284.444, 341.333 " />
            <path fill="none" stroke-width="3.0" stroke-linecap="butt" stroke-opacity="1.0" stroke="rgb(0, 0, 0)" stroke-linejoin="round" d=" M 796.444, 341.333 786.444, 341.333 776.444, 341.333 766.444, 341.333 756.444, 341.333 746.444, 341.333 739.556, 341.333 " />
        </g>
    </g>
    <g id="ViewLayer_TechnicalLines" inkscape:groupmode="lineset" inkscape:label="ViewLayer_TechnicalLines">
        <g inkscape:groupmode="layer" id="strokes" inkscape:label="strokes">
            <path fill="none" stroke-width="3.0" stroke-linecap="butt" stroke-opacity="1.0" stroke="rgb(0, 0, 0)" stroke-linejoin="round" d=" M 227.556, 625.778 227.556, 635.778 227.556, 645.778 227.556, 655.778 227.556, 665.778 227.556, 675.778 227.556, 682.667 237.556, 682.667 247.556, 682.667 257.556, 682.667 267.556, 682.667 277.556, 682.667 287.556, 682.667 297.556, 682.667 307.556, 682.667 317.556, 682.667 327.556, 682.667 337.556, 682.667 347.556, 682.667 357.556, 682.667 367.556, 682.667 377.556, 682.667 387.556, 682.667 397.556, 682.667 407.556, 682.667 417.556, 682.667 427.556, 682.667 437.556, 682.667 447.556, 682.667 457.556, 682.667 467.556, 682.667 477.556, 682.667 487.556, 682.667 497.556, 682.667 507.556, 682.667 517.556, 682.667 527.556, 682.667 537.556, 682.667 547.556, 682.667 557.556, 682.667 567.556, 682.667 577.556, 682.667 587.556, 682.667 597.556, 682.667 607.556, 682.667 617.556, 682.667 627.556, 682.667 637.556, 682.667 647.556, 682.667 657.556, 682.667 667.556, 682.667 677.556, 682.667 687.556, 682.667 697.556, 682.667 707.556, 682.667 717.556, 682.667 727.556, 682.667 737.556, 682.667 747.556, 682.667 757.556, 682.667 767.556, 682.667 777.556, 682.667 787.556, 682.667 796.444, 682.667 796.444, 672.667 796.444, 662.667 796.444, 652.667 796.444, 642.667 796.444, 632.667 796.444, 625.778 786.444, 625.778 776.444, 625.778 766.444, 625.778 756.444, 625.778 746.444, 625.778 736.444, 625.778 726.444, 625.778 716.444, 625.778 706.444, 625.778 696.444, 625.778 686.444, 625.778 676.444, 625.778 666.444, 625.778 656.444, 625.778 646.444, 625.778 636.444, 625.778 626.444, 625.778 616.444, 625.778 606.444, 625.778 596.444, 625.778 586.444, 625.778 576.444, 625.778 566.444, 625.778 556.444, 625.778 546.444, 625.778 536.444, 625.778 526.444, 625.778 516.444, 625.778 506.444, 625.778 496.444, 625.778 486.444, 625.778 476.444, 625.778 466.444, 625.778 456.444, 625.778 446.444, 625.778 436.444, 625.778 426.444, 625.778 416.444, 625.778 406.444, 625.778 396.444, 625.778 386.444, 625.778 376.444, 625.778 366.444, 625.778 356.444, 625.778 346.444, 625.778 336.444, 625.778 326.444, 625.778 316.444, 625.778 306.444, 625.778 296.444, 625.778 286.444, 625.778 276.444, 625.778 266.444, 625.778 256.444, 625.778 246.444, 625.778 236.444, 625.778 227.556, 625.778 " />
            <path fill="none" stroke-width="3.0" stroke-linecap="butt" stroke-opacity="1.0" stroke="rgb(0, 0, 0)" stroke-linejoin="round" d=" M 227.556, 625.778 237.556, 625.778 247.556, 625.778 257.556, 625.778 267.556, 625.778 277.556, 625.778 284.444, 625.778 " />
            <path fill="none" stroke-width="3.0" stroke-linecap="butt" stroke-opacity="1.0" stroke="rgb(0, 0, 0)" stroke-linejoin="round" d=" M 796.444, 625.778 796.444, 615.778 796.444, 605.778 796.444, 595.778 796.444, 585.778 796.444, 575.778 796.444, 565.778 796.444, 555.778 796.444, 545.778 796.444, 535.778 796.444, 525.778 796.444, 515.778 796.444, 505.778 796.444, 495.778 796.444, 485.778 796.444, 475.778 796.444, 465.778 796.444, 455.778 796.444, 445.778 796.444, 435.778 796.444, 425.778 796.444, 415.778 796.444, 405.778 796.444, 395.778 796.444, 385.778 796.444, 375.778 796.444, 365.778 796.444, 355.778 796.444, 345.778 796.444, 341.333 " />
            <path fill="none" stroke-width="3.0" stroke-linecap="butt" stroke-opacity="1.0" stroke="rgb(0, 0, 0)" stroke-linejoin="round" d=" M 227.556, 341.333 227.556, 351.333 227.556, 361.333 227.556, 371.333 227.556, 381.333 227.556, 391.333 227.556, 401.333 227.556, 411.333 227.556, 421.333 227.556, 431.333 227.556, 441.333 227.556, 451.333 227.556, 461.333 227.556, 471.333 227.556, 481.333 227.556, 491.333 227.556, 501.333 227.556, 511.333 227.556, 521.333 227.556, 531.333 227.556, 541.333 227.556, 551.333 227.556, 561.333 227.556, 571.333 227.556, 581.333 227.556, 591.333 227.556, 601.333 227.556, 611.333 227.556, 621.333 227.556, 625.778 " />
            <path fill="none" stroke-width="3.0" stroke-linecap="butt" stroke-opacity="1.0" stroke="rgb(0, 0, 0)" stroke-linejoin="round" d=" M 284.444, 341.333 274.444, 341.333 264.444, 341.333 254.444, 341.333 244.444, 341.333 234.444, 341.333 227.556, 341.333 " />
            <path fill="none" stroke-width="3.0" stroke-linecap="butt" stroke-opacity="1.0" stroke="rgb(0, 0, 0)" stroke-linejoin="round" d=" M 284.444, 625.778 284.444, 615.778 284.444, 605.778 284.444, 595.778 284.444, 585.778 284.444, 575.778 284.444, 565.778 284.444, 555.778 284.444, 545.778 284.444, 535.778 284.444, 525.778 284.444, 515.778 284.444, 505.778 284.444, 495.778 284.444, 485.778 284.444, 475.778 284.444, 465.778 284.444, 455.778 284.444, 445.778 284.444, 435.778 284.444, 425.778 284.444, 415.778 284.444, 405.778 284.444, 395.778 284.444, 385.778 284.444, 375.778 284.444, 365.778 284.444, 355.778 284.444, 345.778 284.444, 341.333 " />
            <path fill="none" stroke-width="3.0" stroke-linecap="butt" stroke-opacity="1.0" stroke="rgb(0, 0, 0)" stroke-linejoin="round" d=" M 739.556, 341.333 739.556, 351.333 739.556, 361.333 739.556, 371.333 739.556, 381.333 739.556, 391.333 739.556, 401.333 739.556, 411.333 739.556, 421.333 739.556, 431.333 739.556, 441.333 739.556, 451.333 739.556, 461.333 739.556, 471.333 739.556, 481.333 739.556, 491.333 739.556, 501.333 739.556, 511.333 739.556, 521.333 739.556, 531.333 739.556, 541.333 739.556, 551.333 739.556, 561.333 739.556, 571.333 739.556, 581.333 739.556, 591.333 739.556, 601.333 739.556, 611.333 739.556, 621.333 739.556, 625.778 " />
            <path fill="none" stroke-width="3.0" stroke-linecap="butt" stroke-opacity="1.0" stroke="rgb(0, 0, 0)" stroke-linejoin="round" d=" M 284.444, 625.778 294.444, 625.778 304.444, 625.778 314.444, 625.778 324.444, 625.778 334.444, 625.778 344.444, 625.778 354.444, 625.778 364.444, 625.778 374.444, 625.778 384.444, 625.778 394.444, 625.778 404.444, 625.778 414.444, 625.778 424.444, 625.778 434.444, 625.778 444.444, 625.778 454.444, 625.778 464.444, 625.778 474.444, 625.778 484.444, 625.778 494.444, 625.778 504.444, 625.778 514.444, 625.778 524.444, 625.778 534.444, 625.778 544.444, 625.778 554.444, 625.778 564.444, 625.778 574.444, 625.778 584.444, 625.778 594.444, 625.778 604.444, 625.778 614.444, 625.778 624.444, 625.778 634.444, 625.778 644.444, 625.778 654.444, 625.778 664.444, 625.778 674.444, 625.778 684.444, 625.778 694.444, 625.778 704.444, 625.778 714.444, 625.778 724.444, 625.778 734.444, 625.778 739.556, 625.778 " />
            <path fill="none" stroke-width="3.0" stroke-linecap="butt" stroke-opacity="1.0" stroke="rgb(0, 0, 0)" stroke-linejoin="round" d=" M 739.556, 625.778 749.556, 625.778 759.556, 625.778 769.556, 625.778 779.556, 625.778 789.556, 625.778 796.444, 625.778 " />
            <path fill="none" stroke-width="3.0" stroke-linecap="butt" stroke-opacity="1.0" stroke="rgb(0, 0, 0)" stroke-linejoin="round" d=" M 739.556, 341.333 729.556, 341.333 719.556, 341.333 709.556, 341.333 699.556, 341.333 689.556, 341.333 679.556, 341.333 669.556, 341.333 659.556, 341.333 649.556, 341.333 639.556, 341.333 629.556, 341.333 619.556, 341.333 609.556, 341.333 599.556, 341.333 589.556, 341.333 579.556, 341.333 569.556, 341.333 559.556, 341.333 549.556, 341.333 539.556, 341.333 529.556, 341.333 519.556, 341.333 509.556, 341.333 499.556, 341.333 489.556, 341.333 479.556, 341.333 469.556, 341.333 459.556, 341.333 449.556, 341.333 439.556, 341.333 429.556, 341.333 419.556, 341.333 409.556, 341.333 399.556, 341.333 389.556, 341.333 379.556, 341.333 369.556, 341.333 359.556, 341.333 349.556, 341.333 339.556, 341.333 329.556, 341.333 319.556, 341.333 309.556, 341.333 299.556, 341.333 289.556, 341.333 284.444, 341.333 " />
            <path fill="none" stroke-width="3.0" stroke-linecap="butt" stroke-opacity="1.0" stroke="rgb(0, 0, 0)" stroke-linejoin="round" d=" M 796.444, 341.333 786.444, 341.333 776.444, 341.333 766.444, 341.333 756.444, 341.333 746.444, 341.333 739.556, 341.333 " />
        </g>
    </g>
    <g id="ViewLayer_TechnicalLines.001" inkscape:groupmode="lineset" inkscape:label="ViewLayer_TechnicalLines.001">
        <g inkscape:groupmode="layer" id="strokes" inkscape:label="strokes">
            <path fill="none" stroke-width="1.5" stroke-linecap="round" stroke-opacity="1.0" stroke="rgb(0, 0, 0)" stroke-linejoin="round" d=" M 227.556, 625.778 227.556, 635.778 227.556, 645.778 227.556, 655.778 227.556, 665.778 227.556, 675.778 227.556, 682.667 237.556, 682.667 247.556, 682.667 257.556, 682.667 267.556, 682.667 277.556, 682.667 287.556, 682.667 297.556, 682.667 307.556, 682.667 317.556, 682.667 327.556, 682.667 337.556, 682.667 347.556, 682.667 357.556, 682.667 367.556, 682.667 377.556, 682.667 387.556, 682.667 397.556, 682.667 407.556, 682.667 417.556, 682.667 427.556, 682.667 437.556, 682.667 447.556, 682.667 457.556, 682.667 467.556, 682.667 477.556, 682.667 487.556, 682.667 497.556, 682.667 507.556, 682.667 517.556, 682.667 527.556, 682.667 537.556, 682.667 547.556, 682.667 557.556, 682.667 567.556, 682.667 577.556, 682.667 587.556, 682.667 597.556, 682.667 607.556, 682.667 617.556, 682.667 627.556, 682.667 637.556, 682.667 647.556, 682.667 657.556, 682.667 667.556, 682.667 677.556, 682.667 687.556, 682.667 697.556, 682.667 707.556, 682.667 717.556, 682.667 727.556, 682.667 737.556, 682.667 747.556, 682.667 757.556, 682.667 767.556, 682.667 777.556, 682.667 787.556, 682.667 796.444, 682.667 796.444, 672.667 796.444, 662.667 796.444, 652.667 796.444, 642.667 796.444, 632.667 796.444, 625.778 786.444, 625.778 776.444, 625.778 766.444, 625.778 756.444, 625.778 746.444, 625.778 736.444, 625.778 726.444, 625.778 716.444, 625.778 706.444, 625.778 696.444, 625.778 686.444, 625.778 676.444, 625.778 666.444, 625.778 656.444, 625.778 646.444, 625.778 636.444, 625.778 626.444, 625.778 616.444, 625.778 606.444, 625.778 596.444, 625.778 586.444, 625.778 576.444, 625.778 566.444, 625.778 556.444, 625.778 546.444, 625.778 536.444, 625.778 526.444, 625.778 516.444, 625.778 506.444, 625.778 496.444, 625.778 486.444, 625.778 476.444, 625.778 466.444, 625.778 456.444, 625.778 446.444, 625.778 436.444, 625.778 426.444, 625.778 416.444, 625.778 406.444, 625.778 396.444, 625.778 386.444, 625.778 376.444, 625.778 366.444, 625.778 356.444, 625.778 346.444, 625.778 336.444, 625.778 326.444, 625.778 316.444, 625.778 306.444, 625.778 296.444, 625.778 286.444, 625.778 276.444, 625.778 266.444, 625.778 256.444, 625.778 246.444, 625.778 236.444, 625.778 227.556, 625.778 " />
            <path fill="none" stroke-width="1.5" stroke-linecap="round" stroke-opacity="1.0" stroke="rgb(0, 0, 0)" stroke-linejoin="round" d=" M 227.556, 625.778 237.556, 625.778 247.556, 625.778 257.556, 625.778 267.556, 625.778 277.556, 625.778 284.444, 625.778 " />
            <path fill="none" stroke-width="1.5" stroke-linecap="round" stroke-opacity="1.0" stroke="rgb(0, 0, 0)" stroke-linejoin="round" d=" M 796.444, 625.778 796.444, 615.778 796.444, 605.778 796.444, 595.778 796.444, 585.778 796.444, 575.778 796.444, 565.778 796.444, 555.778 796.444, 545.778 796.444, 535.778 796.444, 525.778 796.444, 515.778 796.444, 505.778 796.444, 495.778 796.444, 485.778 796.444, 475.778 796.444, 465.778 796.444, 455.778 796.444, 445.778 796.444, 435.778 796.444, 425.778 796.444, 415.778 796.444, 405.778 796.444, 395.778 796.444, 385.778 796.444, 375.778 796.444, 365.778 796.444, 355.778 796.444, 345.778 796.444, 341.333 " />
            <path fill="none" stroke-width="1.5" stroke-linecap="round" stroke-opacity="1.0" stroke="rgb(0, 0, 0)" stroke-linejoin="round" d=" M 227.556, 341.333 227.556, 351.333 227.556, 361.333 227.556, 371.333 227.556, 381.333 227.556, 391.333 227.556, 401.333 227.556, 411.333 227.556, 421.333 227.556, 431.333 227.556, 441.333 227.556, 451.333 227.556, 461.333 227.556, 471.333 227.556, 481.333 227.556, 491.333 227.556, 501.333 227.556, 511.333 227.556, 521.333 227.556, 531.333 227.556, 541.333 227.556, 551.333 227.556, 561.333 227.556, 571.333 227.556, 581.333 227.556, 591.333 227.556, 601.333 227.556, 611.333 227.556, 621.333 227.556, 625.778 " />
            <path fill="none" stroke-width="1.5" stroke-linecap="round" stroke-opacity="1.0" stroke="rgb(0, 0, 0)" stroke-linejoin="round" d=" M 284.444, 341.333 274.444, 341.333 264.444, 341.333 254.444, 341.333 244.444, 341.333 234.444, 341.333 227.556, 341.333 " />
            <path fill="none" stroke-width="1.5" stroke-linecap="round" stroke-opacity="1.0" stroke="rgb(0, 0, 0)" stroke-linejoin="round" d=" M 284.444, 625.778 284.444, 615.778 284.444, 605.778 284.444, 595.778 284.444, 585.778 284.444, 575.778 284.444, 565.778 284.444, 555.778 284.444, 545.778 284.444, 535.778 284.444, 525.778 284.444, 515.778 284.444, 505.778 284.444, 495.778 284.444, 485.778 284.444, 475.778 284.444, 465.778 284.444, 455.778 284.444, 445.778 284.444, 435.778 284.444, 425.778 284.444, 415.778 284.444, 405.778 284.444, 395.778 284.444, 385.778 284.444, 375.778 284.444, 365.778 284.444, 355.778 284.444, 345.778 284.444, 341.333 " />
            <path fill="none" stroke-width="1.5" stroke-linecap="round" stroke-opacity="1.0" stroke="rgb(0, 0, 0)" stroke-linejoin="round" d=" M 739.556, 341.333 739.556, 351.333 739.556, 361.333 739.556, 371.333 739.556, 381.333 739.556, 391.333 739.556, 401.333 739.556, 411.333 739.556, 421.333 739.556, 431.333 739.556, 441.333 739.556, 451.333 739.556, 461.333 739.556, 471.333 739.556, 481.333 739.556, 491.333 739.556, 501.333 739.556, 511.333 739.556, 521.333 739.556, 531.333 739.556, 541.333 739.556, 551.333 739.556, 561.333 739.556, 571.333 739.556, 581.333 739.556, 591.333 739.556, 601.333 739.556, 611.333 739.556, 621.333 739.556, 625.778 " />
            <path fill="none" stroke-width="1.5" stroke-linecap="round" stroke-opacity="1.0" stroke="rgb(0, 0, 0)" stroke-linejoin="round" d=" M 284.444, 625.778 294.444, 625.778 304.444, 625.778 314.444, 625.778 324.444, 625.778 334.444, 625.778 344.444, 625.778 354.444, 625.778 364.444, 625.778 374.444, 625.778 384.444, 625.778 394.444, 625.778 404.444, 625.778 414.444, 625.778 424.444, 625.778 434.444, 625.778 444.444, 625.778 454.444, 625.778 464.444, 625.778 474.444, 625.778 484.444, 625.778 494.444, 625.778 504.444, 625.778 514.444, 625.778 524.444, 625.778 534.444, 625.778 544.444, 625.778 554.444, 625.778 564.444, 625.778 574.444, 625.778 584.444, 625.778 594.444, 625.778 604.444, 625.778 614.444, 625.778 624.444, 625.778 634.444, 625.778 644.444, 625.778 654.444, 625.778 664.444, 625.778 674.444, 625.778 684.444, 625.778 694.444, 625.778 704.444, 625.778 714.444, 625.778 724.444, 625.778 734.444, 625.778 739.556, 625.778 " />
            <path fill="none" stroke-width="1.5" stroke-linecap="round" stroke-opacity="1.0" stroke="rgb(0, 0, 0)" stroke-linejoin="round" d=" M 739.556, 625.778 749.556, 625.778 759.556, 625.778 769.556, 625.778 779.556, 625.778 789.556, 625.778 796.444, 625.778 " />
            <path fill="none" stroke-width="1.5" stroke-linecap="round" stroke-opacity="1.0" stroke="rgb(0, 0, 0)" stroke-linejoin="round" d=" M 739.556, 341.333 729.556, 341.333 719.556, 341.333 709.556, 341.333 699.556, 341.333 689.556, 341.333 679.556, 341.333 669.556, 341.333 659.556, 341.333 649.556, 341.333 639.556, 341.333 629.556, 341.333 619.556, 341.333 609.556, 341.333 599.556, 341.333 589.556, 341.333 579.556, 341.333 569.556, 341.333 559.556, 341.333 549.556, 341.333 539.556, 341.333 529.556, 341.333 519.556, 341.333 509.556, 341.333 499.556, 341.333 489.556, 341.333 479.556, 341.333 469.556, 341.333 459.556, 341.333 449.556, 341.333 439.556, 341.333 429.556, 341.333 419.556, 341.333 409.556, 341.333 399.556, 341.333 389.556, 341.333 379.556, 341.333 369.556, 341.333 359.556, 341.333 349.556, 341.333 339.556, 341.333 329.556, 341.333 319.556, 341.333 309.556, 341.333 299.556, 341.333 289.556, 341.333 284.444, 341.333 " />
            <path fill="none" stroke-width="1.5" stroke-linecap="round" stroke-opacity="1.0" stroke="rgb(0, 0, 0)" stroke-linejoin="round" d=" M 796.444, 341.333 786.444, 341.333 776.444, 341.333 766.444, 341.333 756.444, 341.333 746.444, 341.333 739.556, 341.333 " />
        </g>
    </g>
    <g id="ViewLayer_TechnicalLines.002" inkscape:groupmode="lineset" inkscape:label="ViewLayer_TechnicalLines.002">
        <g inkscape:groupmode="layer" id="strokes" inkscape:label="strokes">
            <path fill="none" stroke-width="1.5" stroke-linecap="round" stroke-opacity="1.0" stroke="rgb(0, 0, 0)" stroke-linejoin="round" d=" M 227.556, 625.778 227.556, 635.778 227.556, 645.778 227.556, 655.778 227.556, 665.778 227.556, 675.778 227.556, 682.667 237.556, 682.667 247.556, 682.667 257.556, 682.667 267.556, 682.667 277.556, 682.667 287.556, 682.667 297.556, 682.667 307.556, 682.667 317.556, 682.667 327.556, 682.667 337.556, 682.667 347.556, 682.667 357.556, 682.667 367.556, 682.667 377.556, 682.667 387.556, 682.667 397.556, 682.667 407.556, 682.667 417.556, 682.667 427.556, 682.667 437.556, 682.667 447.556, 682.667 457.556, 682.667 467.556, 682.667 477.556, 682.667 487.556, 682.667 497.556, 682.667 507.556, 682.667 517.556, 682.667 527.556, 682.667 537.556, 682.667 547.556, 682.667 557.556, 682.667 567.556, 682.667 577.556, 682.667 587.556, 682.667 597.556, 682.667 607.556, 682.667 617.556, 682.667 627.556, 682.667 637.556, 682.667 647.556, 682.667 657.556, 682.667 667.556, 682.667 677.556, 682.667 687.556, 682.667 697.556, 682.667 707.556, 682.667 717.556, 682.667 727.556, 682.667 737.556, 682.667 747.556, 682.667 757.556, 682.667 767.556, 682.667 777.556, 682.667 787.556, 682.667 796.444, 682.667 796.444, 672.667 796.444, 662.667 796.444, 652.667 796.444, 642.667 796.444, 632.667 796.444, 625.778 786.444, 625.778 776.444, 625.778 766.444, 625.778 756.444, 625.778 746.444, 625.778 736.444, 625.778 726.444, 625.778 716.444, 625.778 706.444, 625.778 696.444, 625.778 686.444, 625.778 676.444, 625.778 666.444, 625.778 656.444, 625.778 646.444, 625.778 636.444, 625.778 626.444, 625.778 616.444, 625.778 606.444, 625.778 596.444, 625.778 586.444, 625.778 576.444, 625.778 566.444, 625.778 556.444, 625.778 546.444, 625.778 536.444, 625.778 526.444, 625.778 516.444, 625.778 506.444, 625.778 496.444, 625.778 486.444, 625.778 476.444, 625.778 466.444, 625.778 456.444, 625.778 446.444, 625.778 436.444, 625.778 426.444, 625.778 416.444, 625.778 406.444, 625.778 396.444, 625.778 386.444, 625.778 376.444, 625.778 366.444, 625.778 356.444, 625.778 346.444, 625.778 336.444, 625.778 326.444, 625.778 316.444, 625.778 306.444, 625.778 296.444, 625.778 286.444, 625.778 276.444, 625.778 266.444, 625.778 256.444, 625.778 246.444, 625.778 236.444, 625.778 227.556, 625.778 " />
            <path fill="none" stroke-width="1.5" stroke-linecap="round" stroke-opacity="1.0" stroke="rgb(0, 0, 0)" stroke-linejoin="round" d=" M 227.556, 625.778 237.556, 625.778 247.556, 625.778 257.556, 625.778 267.556, 625.778 277.556, 625.778 284.444, 625.778 " />
            <path fill="none" stroke-width="1.5" stroke-linecap="round" stroke-opacity="1.0" stroke="rgb(0, 0, 0)" stroke-linejoin="round" d=" M 796.444, 625.778 796.444, 615.778 796.444, 605.778 796.444, 595.778 796.444, 585.778 796.444, 575.778 796.444, 565.778 796.444, 555.778 796.444, 545.778 796.444, 535.778 796.444, 525.778 796.444, 515.778 796.444, 505.778 796.444, 495.778 796.444, 485.778 796.444, 475.778 796.444, 465.778 796.444, 455.778 796.444, 445.778 796.444, 435.778 796.444, 425.778 796.444, 415.778 796.444, 405.778 796.444, 395.778 796.444, 385.778 796.444, 375.778 796.444, 365.778 796.444, 355.778 796.444, 345.778 796.444, 341.333 " />
            <path fill="none" stroke-width="1.5" stroke-linecap="round" stroke-opacity="1.0" stroke="rgb(0, 0, 0)" stroke-linejoin="round" d=" M 227.556, 341.333 227.556, 351.333 227.556, 361.333 227.556, 371.333 227.556, 381.333 227.556, 391.333 227.556, 401.333 227.556, 411.333 227.556, 421.333 227.556, 431.333 227.556, 441.333 227.556, 451.333 227.556, 461.333 227.556, 471.333 227.556, 481.333 227.556, 491.333 227.556, 501.333 227.556, 511.333 227.556, 521.333 227.556, 531.333 227.556, 541.333 227.556, 551.333 227.556, 561.333 227.556, 571.333 227.556, 581.333 227.556, 591.333 227.556, 601.333 227.556, 611.333 227.556, 621.333 227.556, 625.778 " />
            <path fill="none" stroke-width="1.5" stroke-linecap="round" stroke-opacity="1.0" stroke="rgb(0, 0, 0)" stroke-linejoin="round" d=" M 284.444, 341.333 274.444, 341.333 264.444, 341.333 254.444, 341.333 244.444, 341.333 234.444, 341.333 227.556, 341.333 " />
            <path fill="none" stroke-width="1.5" stroke-linecap="round" stroke-opacity="1.0" stroke="rgb(0, 0, 0)" stroke-linejoin="round" d=" M 284.444, 625.778 284.444, 615.778 284.444, 605.778 284.444, 595.778 284.444, 585.778 284.444, 575.778 284.444, 565.778 284.444, 555.778 284.444, 545.778 284.444, 535.778 284.444, 525.778 284.444, 515.778 284.444, 505.778 284.444, 495.778 284.444, 485.778 284.444, 475.778 284.444, 465.778 284.444, 455.778 284.444, 445.778 284.444, 435.778 284.444, 425.778 284.444, 415.778 284.444, 405.778 284.444, 395.778 284.444, 385.778 284.444, 375.778 284.444, 365.778 284.444, 355.778 284.444, 345.778 284.444, 341.333 " />
            <path fill="none" stroke-width="1.5" stroke-linecap="round" stroke-opacity="1.0" stroke="rgb(0, 0, 0)" stroke-linejoin="round" d=" M 739.556, 341.333 739.556, 351.333 739.556, 361.333 739.556, 371.333 739.556, 381.333 739.556, 391.333 739.556, 401.333 739.556, 411.333 739.556, 421.333 739.556, 431.333 739.556, 441.333 739.556, 451.333 739.556, 461.333 739.556, 471.333 739.556, 481.333 739.556, 491.333 739.556, 501.333 739.556, 511.333 739.556, 521.333 739.556, 531.333 739.556, 541.333 739.556, 551.333 739.556, 561.333 739.556, 571.333 739.556, 581.333 739.556, 591.333 739.556, 601.333 739.556, 611.333 739.556, 621.333 739.556, 625.778 " />
            <path fill="none" stroke-width="1.5" stroke-linecap="round" stroke-opacity="1.0" stroke="rgb(0, 0, 0)" stroke-linejoin="round" d=" M 284.444, 625.778 294.444, 625.778 304.444, 625.778 314.444, 625.778 324.444, 625.778 334.444, 625.778 344.444, 625.778 354.444, 625.778 364.444, 625.778 374.444, 625.778 384.444, 625.778 394.444, 625.778 404.444, 625.778 414.444, 625.778 424.444, 625.778 434.444, 625.778 444.444, 625.778 454.444, 625.778 464.444, 625.778 474.444, 625.778 484.444, 625.778 494.444, 625.778 504.444, 625.778 514.444, 625.778 524.444, 625.778 534.444, 625.778 544.444, 625.778 554.444, 625.778 564.444, 625.778 574.444, 625.778 584.444, 625.778 594.444, 625.778 604.444, 625.778 614.444, 625.778 624.444, 625.778 634.444, 625.778 644.444, 625.778 654.444, 625.778 664.444, 625.778 674.444, 625.778 684.444, 625.778 694.444, 625.778 704.444, 625.778 714.444, 625.778 724.444, 625.778 734.444, 625.778 739.556, 625.778 " />
            <path fill="none" stroke-width="1.5" stroke-linecap="round" stroke-opacity="1.0" stroke="rgb(0, 0, 0)" stroke-linejoin="round" d=" M 739.556, 625.778 749.556, 625.778 759.556, 625.778 769.556, 625.778 779.556, 625.778 789.556, 625.778 796.444, 625.778 " />
            <path fill="none" stroke-width="1.5" stroke-linecap="round" stroke-opacity="1.0" stroke="rgb(0, 0, 0)" stroke-linejoin="round" d=" M 739.556, 341.333 729.556, 341.333 719.556, 341.333 709.556, 341.333 699.556, 341.333 689.556, 341.333 679.556, 341.333 669.556, 341.333 659.556, 341.333 649.556, 341.333 639.556, 341.333 629.556, 341.333 619.556, 341.333 609.556, 341.333 599.556, 341.333 589.556, 341.333 579.556, 341.333 569.556, 341.333 559.556, 341.333 549.556, 341.333 539.556, 341.333 529.556, 341.333 519.556, 341.333 509.556, 341.333 499.556, 341.333 489.556, 341.333 479.556, 341.333 469.556, 341.333 459.556, 341.333 449.556, 341.333 439.556, 341.333 429.556, 341.333 419.556, 341.333 409.556, 341.333 399.556, 341.333 389.556, 341.333 379.556, 341.333 369.556, 341.333 359.556, 341.333 349.556, 341.333 339.556, 341.333 329.556, 341.333 319.556, 341.333 309.556, 341.333 299.556, 341.333 289.556, 341.333 284.444, 341.333 " />
            <path fill="none" stroke-width="1.5" stroke-linecap="round" stroke-opacity="1.0" stroke="rgb(0, 0, 0)" stroke-linejoin="round" d=" M 796.444, 341.333 786.444, 341.333 776.444, 341.333 766.444, 341.333 756.444, 341.333 746.444, 341.333 739.556, 341.333 " />
        </g>
    </g>
    <g id="ViewLayer_TechnicalLines.003" inkscape:groupmode="lineset" inkscape:label="ViewLayer_TechnicalLines.003">
        <g inkscape:groupmode="layer" id="strokes" inkscape:label="strokes">
            <path fill="none" stroke-width="1.5" stroke-linecap="round" stroke-opacity="1.0" stroke="rgb(0, 0, 0)" stroke-linejoin="round" d=" M 227.556, 625.778 227.556, 635.778 227.556, 645.778 227.556, 655.778 227.556, 665.778 227.556, 675.778 227.556, 682.667 237.556, 682.667 247.556, 682.667 257.556, 682.667 267.556, 682.667 277.556, 682.667 287.556, 682.667 297.556, 682.667 307.556, 682.667 317.556, 682.667 327.556, 682.667 337.556, 682.667 347.556, 682.667 357.556, 682.667 367.556, 682.667 377.556, 682.667 387.556, 682.667 397.556, 682.667 407.556, 682.667 417.556, 682.667 427.556, 682.667 437.556, 682.667 447.556, 682.667 457.556, 682.667 467.556, 682.667 477.556, 682.667 487.556, 682.667 497.556, 682.667 507.556, 682.667 517.556, 682.667 527.556, 682.667 537.556, 682.667 547.556, 682.667 557.556, 682.667 567.556, 682.667 577.556, 682.667 587.556, 682.667 597.556, 682.667 607.556, 682.667 617.556, 682.667 627.556, 682.667 637.556, 682.667 647.556, 682.667 657.556, 682.667 667.556, 682.667 677.556, 682.667 687.556, 682.667 697.556, 682.667 707.556, 682.667 717.556, 682.667 727.556, 682.667 737.556, 682.667 747.556, 682.667 757.556, 682.667 767.556, 682.667 777.556, 682.667 787.556, 682.667 796.444, 682.667 796.444, 672.667 796.444, 662.667 796.444, 652.667 796.444, 642.667 796.444, 632.667 796.444, 625.778 786.444, 625.778 776.444, 625.778 766.444, 625.778 756.444, 625.778 746.444, 625.778 736.444, 625.778 726.444, 625.778 716.444, 625.778 706.444, 625.778 696.444, 625.778 686.444, 625.778 676.444, 625.778 666.444, 625.778 656.444, 625.778 646.444, 625.778 636.444, 625.778 626.444, 625.778 616.444, 625.778 606.444, 625.778 596.444, 625.778 586.444, 625.778 576.444, 625.778 566.444, 625.778 556.444, 625.778 546.444, 625.778 536.444, 625.778 526.444, 625.778 516.444, 625.778 506.444, 625.778 496.444, 625.778 486.444, 625.778 476.444, 625.778 466.444, 625.778 456.444, 625.778 446.444, 625.778 436.444, 625.778 426.444, 625.778 416.444, 625.778 406.444, 625.778 396.444, 625.778 386.444, 625.778 376.444, 625.778 366.444, 625.778 356.444, 625.778 346.444, 625.778 336.444, 625.778 326.444, 625.778 316.444, 625.778 306.444, 625.778 296.444, 625.778 286.444, 625.778 276.444, 625.778 266.444, 625.778 256.444, 625.778 246.444, 625.778 236.444, 625.778 227.556, 625.778 " />
            <path fill="none" stroke-width="1.5" stroke-linecap="round" stroke-opacity="1.0" stroke="rgb(0, 0, 0)" stroke-linejoin="round" d=" M 227.556, 625.778 237.556, 625.778 247.556, 625.778 257.556, 625.778 267.556, 625.778 277.556, 625.778 284.444, 625.778 " />
            <path fill="none" stroke-width="1.5" stroke-linecap="round" stroke-opacity="1.0" stroke="rgb(0, 0, 0)" stroke-linejoin="round" d=" M 796.444, 625.778 796.444, 615.778 796.444, 605.778 796.444, 595.778 796.444, 585.778 796.444, 575.778 796.444, 565.778 796.444, 555.778 796.444, 545.778 796.444, 535.778 796.444, 525.778 796.444, 515.778 796.444, 505.778 796.444, 495.778 796.444, 485.778 796.444, 475.778 796.444, 465.778 796.444, 455.778 796.444, 445.778 796.444, 435.778 796.444, 425.778 796.444, 415.778 796.444, 405.778 796.444, 395.778 796.444, 385.778 796.444, 375.778 796.444, 365.778 796.444, 355.778 796.444, 345.778 796.444, 341.333 " />
            <path fill="none" stroke-width="1.5" stroke-linecap="round" stroke-opacity="1.0" stroke="rgb(0, 0, 0)" stroke-linejoin="round" d=" M 227.556, 341.333 227.556, 351.333 227.556, 361.333 227.556, 371.333 227.556, 381.333 227.556, 391.333 227.556, 401.333 227.556, 411.333 227.556, 421.333 227.556, 431.333 227.556, 441.333 227.556, 451.333 227.556, 461.333 227.556, 471.333 227.556, 481.333 227.556, 491.333 227.556, 501.333 227.556, 511.333 227.556, 521.333 227.556, 531.333 227.556, 541.333 227.556, 551.333 227.556, 561.333 227.556, 571.333 227.556, 581.333 227.556, 591.333 227.556, 601.333 227.556, 611.333 227.556, 621.333 227.556, 625.778 " />
            <path fill="none" stroke-width="1.5" stroke-linecap="round" stroke-opacity="1.0" stroke="rgb(0, 0, 0)" stroke-linejoin="round" d=" M 284.444, 341.333 274.444, 341.333 264.444, 341.333 254.444, 341.333 244.444, 341.333 234.444, 341.333 227.556, 341.333 " />
            <path fill="none" stroke-width="1.5" stroke-linecap="round" stroke-opacity="1.0" stroke="rgb(0, 0, 0)" stroke-linejoin="round" d=" M 284.444, 625.778 284.444, 615.778 284.444, 605.778 284.444, 595.778 284.444, 585.778 284.444, 575.778 284.444, 565.778 284.444, 555.778 284.444, 545.778 284.444, 535.778 284.444, 525.778 284.444, 515.778 284.444, 505.778 284.444, 495.778 284.444, 485.778 284.444, 475.778 284.444, 465.778 284.444, 455.778 284.444, 445.778 284.444, 435.778 284.444, 425.778 284.444, 415.778 284.444, 405.778 284.444, 395.778 284.444, 385.778 284.444, 375.778 284.444, 365.778 284.444, 355.778 284.444, 345.778 284.444, 341.333 " />
            <path fill="none" stroke-width="1.5" stroke-linecap="round" stroke-opacity="1.0" stroke="rgb(0, 0, 0)" stroke-linejoin="round" d=" M 739.556, 341.333 739.556, 351.333 739.556, 361.333 739.556, 371.333 739.556, 381.333 739.556, 391.333 739.556, 401.333 739.556, 411.333 739.556, 421.333 739.556, 431.333 739.556, 441.333 739.556, 451.333 739.556, 461.333 739.556, 471.333 739.556, 481.333 739.556, 491.333 739.556, 501.333 739.556, 511.333 739.556, 521.333 739.556, 531.333 739.556, 541.333 739.556, 551.333 739.556, 561.333 739.556, 571.333 739.556, 581.333 739.556, 591.333 739.556, 601.333 739.556, 611.333 739.556, 621.333 739.556, 625.778 " />
            <path fill="none" stroke-width="1.5" stroke-linecap="round" stroke-opacity="1.0" stroke="rgb(0, 0, 0)" stroke-linejoin="round" d=" M 284.444, 625.778 294.444, 625.778 304.444, 625.778 314.444, 625.778 324.444, 625.778 334.444, 625.778 344.444, 625.778 354.444, 625.778 364.444, 625.778 374.444, 625.778 384.444, 625.778 394.444, 625.778 404.444, 625.778 414.444, 625.778 424.444, 625.778 434.444, 625.778 444.444, 625.778 454.444, 625.778 464.444, 625.778 474.444, 625.778 484.444, 625.778 494.444, 625.778 504.444, 625.778 514.444, 625.778 524.444, 625.778 534.444, 625.778 544.444, 625.778 554.444, 625.778 564.444, 625.778 574.444, 625.778 584.444, 625.778 594.444, 625.778 604.444, 625.778 614.444, 625.778 624.444, 625.778 634.444, 625.778 644.444, 625.778 654.444, 625.778 664.444, 625.778 674.444, 625.778 684.444, 625.778 694.444, 625.778 704.444, 625.778 714.444, 625.778 724.444, 625.778 734.444, 625.778 739.556, 625.778 " />
            <path fill="none" stroke-width="1.5" stroke-linecap="round" stroke-opacity="1.0" stroke="rgb(0, 0, 0)" stroke-linejoin="round" d=" M 739.556, 625.778 749.556, 625.778 759.556, 625.778 769.556, 625.778 779.556, 625.778 789.556, 625.778 796.444, 625.778 " />
            <path fill="none" stroke-width="1.5" stroke-linecap="round" stroke-opacity="1.0" stroke="rgb(0, 0, 0)" stroke-linejoin="round" d=" M 739.556, 341.333 729.556, 341.333 719.556, 341.333 709.556, 341.333 699.556, 341.333 689.556, 341.333 679.556, 341.333 669.556, 341.333 659.556, 341.333 649.556, 341.333 639.556, 341.333 629.556, 341.333 619.556, 341.333 609.556, 341.333 599.556, 341.333 589.556, 341.333 579.556, 341.333 569.556, 341.333 559.556, 341.333 549.556, 341.333 539.556, 341.333 529.556, 341.333 519.556, 341.333 509.556, 341.333 499.556, 341.333 489.556, 341.333 479.556, 341.333 469.556, 341.333 459.556, 341.333 449.556, 341.333 439.556, 341.333 429.556, 341.333 419.556, 341.333 409.556, 341.333 399.556, 341.333 389.556, 341.333 379.556, 341.333 369.556, 341.333 359.556, 341.333 349.556, 341.333 339.556, 341.333 329.556, 341.333 319.556, 341.333 309.556, 341.333 299.556, 341.333 289.556, 341.333 284.444, 341.333 " />
            <path fill="none" stroke-width="1.5" stroke-linecap="round" stroke-opacity="1.0" stroke="rgb(0, 0, 0)" stroke-linejoin="round" d=" M 796.444, 341.333 786.444, 341.333 776.444, 341.333 766.444, 341.333 756.444, 341.333 746.444, 341.333 739.556, 341.333 " />
        </g>
    </g>
    <g id="ViewLayer_TechnicalLines.004" xmlns:inkscape="http://www.inkscape.org/namespaces/inkscape" inkscape:groupmode="lineset" inkscape:label="ViewLayer_TechnicalLines.004">
        <g xmlns:inkscape="http://www.inkscape.org/namespaces/inkscape" inkscape:groupmode="layer" id="strokes" inkscape:label="strokes">
            <path fill="none" stroke-width="1.5" stroke-linecap="round" stroke-opacity="1.0" stroke="rgb(0, 0, 0)" stroke-linejoin="round" d=" M 227.556, 625.778 227.556, 635.778 227.556, 645.778 227.556, 655.778 227.556, 665.778 227.556, 675.778 227.556, 682.667 237.556, 682.667 247.556, 682.667 257.556, 682.667 267.556, 682.667 277.556, 682.667 287.556, 682.667 297.556, 682.667 307.556, 682.667 317.556, 682.667 327.556, 682.667 337.556, 682.667 347.556, 682.667 357.556, 682.667 367.556, 682.667 377.556, 682.667 387.556, 682.667 397.556, 682.667 407.556, 682.667 417.556, 682.667 427.556, 682.667 437.556, 682.667 447.556, 682.667 457.556, 682.667 467.556, 682.667 477.556, 682.667 487.556, 682.667 497.556, 682.667 507.556, 682.667 517.556, 682.667 527.556, 682.667 537.556, 682.667 547.556, 682.667 557.556, 682.667 567.556, 682.667 577.556, 682.667 587.556, 682.667 597.556, 682.667 607.556, 682.667 617.556, 682.667 627.556, 682.667 637.556, 682.667 647.556, 682.667 657.556, 682.667 667.556, 682.667 677.556, 682.667 687.556, 682.667 697.556, 682.667 707.556, 682.667 717.556, 682.667 727.556, 682.667 737.556, 682.667 747.556, 682.667 757.556, 682.667 767.556, 682.667 777.556, 682.667 787.556, 682.667 796.444, 682.667 796.444, 672.667 796.444, 662.667 796.444, 652.667 796.444, 642.667 796.444, 632.667 796.444, 625.778 786.444, 625.778 776.444, 625.778 766.444, 625.778 756.444, 625.778 746.444, 625.778 736.444, 625.778 726.444, 625.778 716.444, 625.778 706.444, 625.778 696.444, 625.778 686.444, 625.778 676.444, 625.778 666.444, 625.778 656.444, 625.778 646.444, 625.778 636.444, 625.778 626.444, 625.778 616.444, 625.778 606.444, 625.778 596.444, 625.778 586.444, 625.778 576.444, 625.778 566.444, 625.778 556.444, 625.778 546.444, 625.778 536.444, 625.778 526.444, 625.778 516.444, 625.778 506.444, 625.778 496.444, 625.778 486.444, 625.778 476.444, 625.778 466.444, 625.778 456.444, 625.778 446.444, 625.778 436.444, 625.778 426.444, 625.778 416.444, 625.778 406.444, 625.778 396.444, 625.778 386.444, 625.778 376.444, 625.778 366.444, 625.778 356.444, 625.778 346.444, 625.778 336.444, 625.778 326.444, 625.778 316.444, 625.778 306.444, 625.778 296.444, 625.778 286.444, 625.778 276.444, 625.778 266.444, 625.778 256.444, 625.778 246.444, 625.778 236.444, 625.778 227.556, 625.778 " />
            <path fill="none" stroke-width="1.5" stroke-linecap="round" stroke-opacity="1.0" stroke="rgb(0, 0, 0)" stroke-linejoin="round" d=" M 227.556, 625.778 237.556, 625.778 247.556, 625.778 257.556, 625.778 267.556, 625.778 277.556, 625.778 284.444, 625.778 " />
            <path fill="none" stroke-width="1.5" stroke-linecap="round" stroke-opacity="1.0" stroke="rgb(0, 0, 0)" stroke-linejoin="round" d=" M 796.444, 625.778 796.444, 615.778 796.444, 605.778 796.444, 595.778 796.444, 585.778 796.444, 575.778 796.444, 565.778 796.444, 555.778 796.444, 545.778 796.444, 535.778 796.444, 525.778 796.444, 515.778 796.444, 505.778 796.444, 495.778 796.444, 485.778 796.444, 475.778 796.444, 465.778 796.444, 455.778 796.444, 445.778 796.444, 435.778 796.444, 425.778 796.444, 415.778 796.444, 405.778 796.444, 395.778 796.444, 385.778 796.444, 375.778 796.444, 365.778 796.444, 355.778 796.444, 345.778 796.444, 341.333 " />
            <path fill="none" stroke-width="1.5" stroke-linecap="round" stroke-opacity="1.0" stroke="rgb(0, 0, 0)" stroke-linejoin="round" d=" M 227.556, 341.333 227.556, 351.333 227.556, 361.333 227.556, 371.333 227.556, 381.333 227.556, 391.333 227.556, 401.333 227.556, 411.333 227.556, 421.333 227.556, 431.333 227.556, 441.333 227.556, 451.333 227.556, 461.333 227.556, 471.333 227.556, 481.333 227.556, 491.333 227.556, 501.333 227.556, 511.333 227.556, 521.333 227.556, 531.333 227.556, 541.333 227.556, 551.333 227.556, 561.333 227.556, 571.333 227.556, 581.333 227.556, 591.333 227.556, 601.333 227.556, 611.333 227.556, 621.333 227.556, 625.778 " />
            <path fill="none" stroke-width="1.5" stroke-linecap="round" stroke-opacity="1.0" stroke="rgb(0, 0, 0)" stroke-linejoin="round" d=" M 284.444, 341.333 274.444, 341.333 264.444, 341.333 254.444, 341.333 244.444, 341.333 234.444, 341.333 227.556, 341.333 " />
            <path fill="none" stroke-width="1.5" stroke-linecap="round" stroke-opacity="1.0" stroke="rgb(0, 0, 0)" stroke-linejoin="round" d=" M 284.444, 625.778 284.444, 615.778 284.444, 605.778 284.444, 595.778 284.444, 585.778 284.444, 575.778 284.444, 565.778 284.444, 555.778 284.444, 545.778 284.444, 535.778 284.444, 525.778 284.444, 515.778 284.444, 505.778 284.444, 495.778 284.444, 485.778 284.444, 475.778 284.444, 465.778 284.444, 455.778 284.444, 445.778 284.444, 435.778 284.444, 425.778 284.444, 415.778 284.444, 405.778 284.444, 395.778 284.444, 385.778 284.444, 375.778 284.444, 365.778 284.444, 355.778 284.444, 345.778 284.444, 341.333 " />
            <path fill="none" stroke-width="1.5" stroke-linecap="round" stroke-opacity="1.0" stroke="rgb(0, 0, 0)" stroke-linejoin="round" d=" M 739.556, 341.333 739.556, 351.333 739.556, 361.333 739.556, 371.333 739.556, 381.333 739.556, 391.333 739.556, 401.333 739.556, 411.333 739.556, 421.333 739.556, 431.333 739.556, 441.333 739.556, 451.333 739.556, 461.333 739.556, 471.333 739.556, 481.333 739.556, 491.333 739.556, 501.333 739.556, 511.333 739.556, 521.333 739.556, 531.333 739.556, 541.333 739.556, 551.333 739.556, 561.333 739.556, 571.333 739.556, 581.333 739.556, 591.333 739.556, 601.333 739.556, 611.333 739.556, 621.333 739.556, 625.778 " />
            <path fill="none" stroke-width="1.5" stroke-linecap="round" stroke-opacity="1.0" stroke="rgb(0, 0, 0)" stroke-linejoin="round" d=" M 284.444, 625.778 294.444, 625.778 304.444, 625.778 314.444, 625.778 324.444, 625.778 334.444, 625.778 344.444, 625.778 354.444, 625.778 364.444, 625.778 374.444, 625.778 384.444, 625.778 394.444, 625.778 404.444, 625.778 414.444, 625.778 424.444, 625.778 434.444, 625.778 444.444, 625.778 454.444, 625.778 464.444, 625.778 474.444, 625.778 484.444, 625.778 494.444, 625.778 504.444, 625.778 514.444, 625.778 524.444, 625.778 534.444, 625.778 544.444, 625.778 554.444, 625.778 564.444, 625.778 574.444, 625.778 584.444, 625.778 594.444, 625.778 604.444, 625.778 614.444, 625.778 624.444, 625.778 634.444, 625.778 644.444, 625.778 654.444, 625.778 664.444, 625.778 674.444, 625.778 684.444, 625.778 694.444, 625.778 704.444, 625.778 714.444, 625.778 724.444, 625.778 734.444, 625.778 739.556, 625.778 " />
            <path fill="none" stroke-width="1.5" stroke-linecap="round" stroke-opacity="1.0" stroke="rgb(0, 0, 0)" stroke-linejoin="round" d=" M 739.556, 625.778 749.556, 625.778 759.556, 625.778 769.556, 625.778 779.556, 625.778 789.556, 625.778 796.444, 625.778 " />
            <path fill="none" stroke-width="1.5" stroke-linecap="round" stroke-opacity="1.0" stroke="rgb(0, 0, 0)" stroke-linejoin="round" d=" M 739.556, 341.333 729.556, 341.333 719.556, 341.333 709.556, 341.333 699.556, 341.333 689.556, 341.333 679.556, 341.333 669.556, 341.333 659.556, 341.333 649.556, 341.333 639.556, 341.333 629.556, 341.333 619.556, 341.333 609.556, 341.333 599.556, 341.333 589.556, 341.333 579.556, 341.333 569.556, 341.333 559.556, 341.333 549.556, 341.333 539.556, 341.333 529.556, 341.333 519.556, 341.333 509.556, 341.333 499.556, 341.333 489.556, 341.333 479.556, 341.333 469.556, 341.333 459.556, 341.333 449.556, 341.333 439.556, 341.333 429.556, 341.333 419.556, 341.333 409.556, 341.333 399.556, 341.333 389.556, 341.333 379.556, 341.333 369.556, 341.333 359.556, 341.333 349.556, 341.333 339.556, 341.333 329.556, 341.333 319.556, 341.333 309.556, 341.333 299.556, 341.333 289.556, 341.333 284.444, 341.333 " />
            <path fill="none" stroke-width="1.5" stroke-linecap="round" stroke-opacity="1.0" stroke="rgb(0, 0, 0)" stroke-linejoin="round" d=" M 796.444, 341.333 786.444, 341.333 776.444, 341.333 766.444, 341.333 756.444, 341.333 746.444, 341.333 739.556, 341.333 " />
        </g>
    </g>
</svg>
