<?xml version='1.0' encoding='ascii'?>
<svg xmlns="http://www.w3.org/2000/svg" xmlns:inkscape="http://www.inkscape.org/namespaces/inkscape" version="1.1" width="1024" height="1024">
    <g id="ViewLayer_LineSet" inkscape:groupmode="lineset" inkscape:label="ViewLayer_LineSet">
        <g inkscape:groupmode="layer" id="strokes" inkscape:label="strokes">
            <path fill="none" stroke-width="3.0" stroke-linecap="butt" stroke-opacity="1.0" stroke="rgb(0, 0, 0)" stroke-linejoin="round" d=" M 627.132, 796.445 627.132, 786.445 627.132, 776.445 627.132, 766.444 627.132, 756.444 627.132, 746.444 627.132, 742.265 627.132, 742.265 617.132, 742.265 607.132, 742.265 597.132, 742.265 587.132, 742.265 577.132, 742.265 567.132, 742.265 557.132, 742.265 547.132, 742.265 537.132, 742.265 527.132, 742.265 517.132, 742.265 507.132, 742.265 497.132, 742.265 487.132, 742.265 477.132, 742.265 467.132, 742.265 457.132, 742.265 447.132, 742.265 437.132, 742.265 427.132, 742.265 417.132, 742.265 407.132, 742.265 397.132, 742.265 387.132, 742.265 377.132, 742.265 367.132, 742.265 356.233, 742.265 356.233, 752.265 356.233, 762.265 356.233, 772.265 356.233, 782.265 356.233, 792.265 356.233, 796.445 366.233, 796.445 376.233, 796.445 386.233, 796.445 396.233, 796.445 406.233, 796.445 416.233, 796.445 426.233, 796.445 436.233, 796.445 446.233, 796.445 456.233, 796.445 466.233, 796.445 476.233, 796.445 486.233, 796.445 496.233, 796.445 506.233, 796.445 516.233, 796.445 526.233, 796.445 536.233, 796.445 546.233, 796.445 556.233, 796.445 566.233, 796.445 576.233, 796.445 586.233, 796.445 596.233, 796.445 606.233, 796.445 616.233, 796.445 627.132, 796.445 627.132, 796.445 " />
            <path fill="none" stroke-width="3.0" stroke-linecap="butt" stroke-opacity="1.0" stroke="rgb(0, 0, 0)" stroke-linejoin="round" d=" M 627.132, 742.265 627.132, 752.265 627.132, 762.265 627.132, 772.265 627.132, 782.265 627.132, 792.265 627.132, 796.445 " />
            <path fill="none" stroke-width="3.0" stroke-linecap="butt" stroke-opacity="1.0" stroke="rgb(0, 0, 0)" stroke-linejoin="round" d=" M 356.233, 633.905 356.233, 643.905 356.233, 653.905 356.233, 660.995 356.233, 660.995 366.233, 660.995 376.233, 660.995 386.233, 660.995 396.233, 660.995 406.233, 660.995 416.233, 660.995 426.233, 660.995 436.233, 660.995 446.233, 660.995 456.233, 660.995 466.233, 660.995 476.233, 660.995 486.233, 660.995 496.233, 660.995 506.233, 660.995 516.233, 660.995 526.233, 660.995 536.233, 660.995 546.233, 660.995 556.233, 660.995 566.233, 660.995 576.233, 660.995 586.233, 660.995 596.233, 660.995 606.233, 660.995 616.233, 660.995 627.132, 660.995 627.132, 650.995 627.132, 640.995 627.132, 630.995 627.132, 620.995 627.132, 610.995 627.132, 606.815 627.132, 606.815 617.132, 606.815 607.132, 606.815 597.132, 606.815 587.132, 606.815 577.132, 606.815 567.132, 606.815 557.132, 606.815 547.132, 606.815 537.132, 606.815 527.132, 606.815 517.132, 606.815 507.132, 606.815 497.132, 606.815 487.132, 606.815 477.132, 606.815 467.132, 606.815 457.132, 606.815 447.132, 606.815 437.132, 606.815 427.132, 606.815 417.132, 606.815 407.132, 606.815 397.132, 606.815 387.132, 606.815 377.132, 606.815 367.132, 606.815 356.233, 606.815 " />
            <path fill="none" stroke-width="3.0" stroke-linecap="butt" stroke-opacity="1.0" stroke="rgb(0, 0, 0)" stroke-linejoin="round" d=" M 627.132, 606.815 627.132, 616.815 627.132, 626.815 627.132, 636.815 627.132, 646.815 627.132, 656.815 627.132, 660.995 " />
            <path fill="none" stroke-width="3.0" stroke-linecap="butt" stroke-opacity="1.0" stroke="rgb(0, 0, 0)" stroke-linejoin="round" d=" M 356.233, 660.995 366.233, 660.995 376.233, 660.995 386.233, 660.995 396.233, 660.995 406.233, 660.995 416.233, 660.995 426.233, 660.995 436.233, 660.995 446.233, 660.995 456.233, 660.995 466.233, 660.995 476.233, 660.995 486.233, 660.995 496.233, 660.995 506.233, 660.995 516.233, 660.995 526.233, 660.995 536.233, 660.995 546.233, 660.995 556.233, 660.995 566.233, 660.995 576.233, 660.995 586.233, 660.995 596.233, 660.995 606.233, 660.995 616.233, 660.995 627.132, 660.995 627.132, 660.995 " />
            <path fill="none" stroke-width="3.0" stroke-linecap="butt" stroke-opacity="1.0" stroke="rgb(0, 0, 0)" stroke-linejoin="round" d=" M 356.233, 606.815 356.233, 616.815 356.233, 626.815 356.233, 633.905 " />
            <path fill="none" stroke-width="3.0" stroke-linecap="butt" stroke-opacity="1.0" stroke="rgb(0, 0, 0)" stroke-linejoin="round" d=" M 356.233, 457.820 356.233, 447.820 356.233, 437.820 356.233, 427.820 356.233, 417.820 356.233, 407.820 356.233, 397.820 356.233, 387.820 356.233, 377.820 356.233, 367.820 356.233, 357.820 356.233, 347.820 356.233, 337.820 356.233, 327.820 356.233, 317.820 356.233, 307.820 356.233, 297.820 356.233, 287.820 356.233, 277.820 356.233, 267.820 356.233, 257.820 356.233, 247.820 356.233, 237.820 356.233, 227.556 356.233, 227.556 346.233, 227.556 336.233, 227.556 326.233, 227.556 316.233, 227.556 306.233, 227.556 302.053, 227.556 302.053, 227.556 302.053, 237.556 302.053, 247.556 302.053, 257.556 302.053, 267.556 302.053, 277.556 302.053, 287.556 302.053, 297.556 302.053, 307.556 302.053, 317.556 302.053, 327.556 302.053, 337.556 302.053, 347.556 302.053, 357.556 302.053, 367.556 302.053, 377.556 302.053, 387.556 302.053, 397.556 302.053, 407.556 302.053, 417.556 302.053, 427.556 302.053, 437.556 302.053, 447.556 302.053, 457.556 302.053, 467.556 302.053, 477.556 302.053, 487.556 302.053, 497.556 302.053, 507.556 302.053, 517.556 302.053, 527.556 302.053, 537.556 302.053, 547.556 302.053, 557.556 302.053, 567.556 302.053, 577.556 302.053, 587.556 302.053, 597.556 302.053, 607.556 302.053, 617.556 302.053, 627.556 302.053, 633.905 312.053, 633.905 322.053, 633.905 332.053, 633.905 342.053, 633.905 352.053, 633.905 356.233, 633.905 356.233, 633.905 " />
            <path fill="none" stroke-width="3.0" stroke-linecap="butt" stroke-opacity="1.0" stroke="rgb(0, 0, 0)" stroke-linejoin="round" d=" M 356.233, 227.556 356.233, 237.556 356.233, 247.556 356.233, 257.556 356.233, 267.556 356.233, 277.556 356.233, 287.556 356.233, 297.556 356.233, 307.556 356.233, 317.556 356.233, 327.556 356.233, 337.556 356.233, 347.556 356.233, 357.556 356.233, 367.556 356.233, 377.556 356.233, 387.556 356.233, 397.556 356.233, 407.556 356.233, 417.556 356.233, 427.556 356.233, 437.556 356.233, 447.556 356.233, 457.556 356.233, 467.556 356.233, 477.556 356.233, 487.556 356.233, 497.556 356.233, 507.556 356.233, 517.556 356.233, 527.556 356.233, 537.556 356.233, 547.556 356.233, 557.556 356.233, 567.556 356.233, 577.556 356.233, 587.556 356.233, 597.556 356.233, 607.556 356.233, 617.556 356.233, 627.556 356.233, 633.905 " />
            <path fill="none" stroke-width="3.0" stroke-linecap="butt" stroke-opacity="1.0" stroke="rgb(0, 0, 0)" stroke-linejoin="round" d=" M 627.132, 539.090 627.132, 529.090 627.132, 519.090 627.132, 509.090 627.132, 499.090 627.132, 489.090 627.132, 479.090 627.132, 469.090 627.132, 459.090 627.132, 457.820 627.132, 457.820 " />
            <path fill="none" stroke-width="3.0" stroke-linecap="butt" stroke-opacity="1.0" stroke="rgb(0, 0, 0)" stroke-linejoin="round" d=" M 356.233, 539.090 356.233, 539.090 366.233, 539.090 376.233, 539.090 386.233, 539.090 396.233, 539.090 406.233, 539.090 416.233, 539.090 426.233, 539.090 436.233, 539.090 446.233, 539.090 456.233, 539.090 466.233, 539.090 476.233, 539.090 486.233, 539.090 496.233, 539.090 506.233, 539.090 516.233, 539.090 526.233, 539.090 536.233, 539.090 546.233, 539.090 556.233, 539.090 566.233, 539.090 576.233, 539.090 586.233, 539.090 596.233, 539.090 606.233, 539.090 616.233, 539.090 627.132, 539.090 " />
            <path fill="none" stroke-width="3.0" stroke-linecap="butt" stroke-opacity="1.0" stroke="rgb(0, 0, 0)" stroke-linejoin="round" d=" M 356.233, 539.090 366.233, 539.090 376.233, 539.090 386.233, 539.090 396.233, 539.090 406.233, 539.090 416.233, 539.090 426.233, 539.090 436.233, 539.090 446.233, 539.090 456.233, 539.090 466.233, 539.090 476.233, 539.090 486.233, 539.090 496.233, 539.090 506.233, 539.090 516.233, 539.090 526.233, 539.090 536.233, 539.090 546.233, 539.090 556.233, 539.090 566.233, 539.090 576.233, 539.090 586.233, 539.090 596.233, 539.090 606.233, 539.090 616.233, 539.090 627.132, 539.090 627.132, 529.090 627.132, 519.090 627.132, 509.090 627.132, 499.090 627.132, 489.090 627.132, 479.090 627.132, 469.090 627.132, 459.090 627.132, 457.820 " />
            <path fill="none" stroke-width="3.0" stroke-linecap="butt" stroke-opacity="1.0" stroke="rgb(0, 0, 0)" stroke-linejoin="round" d=" M 627.132, 457.820 627.132, 457.820 617.132, 457.820 607.132, 457.820 597.132, 457.820 587.132, 457.820 577.132, 457.820 567.132, 457.820 557.132, 457.820 547.132, 457.820 537.132, 457.820 527.132, 457.820 517.132, 457.820 507.132, 457.820 497.132, 457.820 487.132, 457.820 477.132, 457.820 467.132, 457.820 457.132, 457.820 447.132, 457.820 437.132, 457.820 427.132, 457.820 417.132, 457.820 407.132, 457.820 397.132, 457.820 387.132, 457.820 377.132, 457.820 367.132, 457.820 356.233, 457.820 " />
            <path fill="none" stroke-width="3.0" stroke-linecap="butt" stroke-opacity="1.0" stroke="rgb(0, 0, 0)" stroke-linejoin="round" d=" M 356.233, 457.820 356.233, 467.820 356.233, 477.820 356.233, 487.820 356.233, 497.820 356.233, 507.820 356.233, 517.820 356.233, 527.820 356.233, 537.820 356.233, 539.090 " />
            <path fill="none" stroke-width="3.0" stroke-linecap="butt" stroke-opacity="1.0" stroke="rgb(0, 0, 0)" stroke-linejoin="round" d=" M 586.497, 701.630 596.497, 701.630 606.497, 701.630 616.497, 701.630 626.497, 701.630 636.497, 701.630 646.497, 701.630 656.497, 701.630 666.497, 701.630 676.497, 701.630 686.497, 701.630 696.497, 701.630 706.497, 701.630 716.497, 701.630 721.947, 701.630 721.947, 701.630 721.947, 691.630 721.947, 681.630 721.947, 674.540 721.947, 674.540 711.947, 674.540 701.947, 674.540 691.947, 674.540 681.947, 674.540 671.947, 674.540 661.947, 674.540 651.947, 674.540 641.947, 674.540 631.947, 674.540 621.947, 674.540 611.947, 674.540 601.947, 674.540 591.947, 674.540 586.497, 674.540 586.497, 684.540 586.497, 694.540 586.497, 701.630 586.497, 701.630 " />
            <path fill="none" stroke-width="3.0" stroke-linecap="butt" stroke-opacity="1.0" stroke="rgb(0, 0, 0)" stroke-linejoin="round" d=" M 586.497, 701.630 596.497, 701.630 606.497, 701.630 616.497, 701.630 626.497, 701.630 636.497, 701.630 646.497, 701.630 656.497, 701.630 666.497, 701.630 676.497, 701.630 686.497, 701.630 696.497, 701.630 706.497, 701.630 716.497, 701.630 721.947, 701.630 " />
            <path fill="none" stroke-width="3.0" stroke-linecap="butt" stroke-opacity="1.0" stroke="rgb(0, 0, 0)" stroke-linejoin="round" d=" M 356.233, 606.815 356.233, 596.815 356.233, 586.815 356.233, 576.815 356.233, 566.815 356.233, 556.815 356.233, 546.815 356.233, 539.090 " />
            <path fill="none" stroke-width="3.0" stroke-linecap="butt" stroke-opacity="1.0" stroke="rgb(0, 0, 0)" stroke-linejoin="round" d=" M 356.233, 539.090 356.233, 539.090 " />
        </g>
    </g>
    <g id="ViewLayer_TechnicalLines" inkscape:groupmode="lineset" inkscape:label="ViewLayer_TechnicalLines">
        <g inkscape:groupmode="layer" id="strokes" inkscape:label="strokes">
            <path fill="none" stroke-width="3.0" stroke-linecap="butt" stroke-opacity="1.0" stroke="rgb(0, 0, 0)" stroke-linejoin="round" d=" M 627.132, 796.445 627.132, 786.445 627.132, 776.445 627.132, 766.444 627.132, 756.444 627.132, 746.444 627.132, 742.265 627.132, 742.265 617.132, 742.265 607.132, 742.265 597.132, 742.265 587.132, 742.265 577.132, 742.265 567.132, 742.265 557.132, 742.265 547.132, 742.265 537.132, 742.265 527.132, 742.265 517.132, 742.265 507.132, 742.265 497.132, 742.265 487.132, 742.265 477.132, 742.265 467.132, 742.265 457.132, 742.265 447.132, 742.265 437.132, 742.265 427.132, 742.265 417.132, 742.265 407.132, 742.265 397.132, 742.265 387.132, 742.265 377.132, 742.265 367.132, 742.265 356.233, 742.265 356.233, 752.265 356.233, 762.265 356.233, 772.265 356.233, 782.265 356.233, 792.265 356.233, 796.445 366.233, 796.445 376.233, 796.445 386.233, 796.445 396.233, 796.445 406.233, 796.445 416.233, 796.445 426.233, 796.445 436.233, 796.445 446.233, 796.445 456.233, 796.445 466.233, 796.445 476.233, 796.445 486.233, 796.445 496.233, 796.445 506.233, 796.445 516.233, 796.445 526.233, 796.445 536.233, 796.445 546.233, 796.445 556.233, 796.445 566.233, 796.445 576.233, 796.445 586.233, 796.445 596.233, 796.445 606.233, 796.445 616.233, 796.445 627.132, 796.445 627.132, 796.445 " />
            <path fill="none" stroke-width="3.0" stroke-linecap="butt" stroke-opacity="1.0" stroke="rgb(0, 0, 0)" stroke-linejoin="round" d=" M 627.132, 742.265 627.132, 752.265 627.132, 762.265 627.132, 772.265 627.132, 782.265 627.132, 792.265 627.132, 796.445 " />
            <path fill="none" stroke-width="3.0" stroke-linecap="butt" stroke-opacity="1.0" stroke="rgb(0, 0, 0)" stroke-linejoin="round" d=" M 356.233, 633.905 356.233, 643.905 356.233, 653.905 356.233, 660.995 356.233, 660.995 366.233, 660.995 376.233, 660.995 386.233, 660.995 396.233, 660.995 406.233, 660.995 416.233, 660.995 426.233, 660.995 436.233, 660.995 446.233, 660.995 456.233, 660.995 466.233, 660.995 476.233, 660.995 486.233, 660.995 496.233, 660.995 506.233, 660.995 516.233, 660.995 526.233, 660.995 536.233, 660.995 546.233, 660.995 556.233, 660.995 566.233, 660.995 576.233, 660.995 586.233, 660.995 596.233, 660.995 606.233, 660.995 616.233, 660.995 627.132, 660.995 627.132, 650.995 627.132, 640.995 627.132, 630.995 627.132, 620.995 627.132, 610.995 627.132, 606.815 627.132, 606.815 617.132, 606.815 607.132, 606.815 597.132, 606.815 587.132, 606.815 577.132, 606.815 567.132, 606.815 557.132, 606.815 547.132, 606.815 537.132, 606.815 527.132, 606.815 517.132, 606.815 507.132, 606.815 497.132, 606.815 487.132, 606.815 477.132, 606.815 467.132, 606.815 457.132, 606.815 447.132, 606.815 437.132, 606.815 427.132, 606.815 417.132, 606.815 407.132, 606.815 397.132, 606.815 387.132, 606.815 377.132, 606.815 367.132, 606.815 356.233, 606.815 " />
            <path fill="none" stroke-width="3.0" stroke-linecap="butt" stroke-opacity="1.0" stroke="rgb(0, 0, 0)" stroke-linejoin="round" d=" M 627.132, 606.815 627.132, 616.815 627.132, 626.815 627.132, 636.815 627.132, 646.815 627.132, 656.815 627.132, 660.995 " />
            <path fill="none" stroke-width="3.0" stroke-linecap="butt" stroke-opacity="1.0" stroke="rgb(0, 0, 0)" stroke-linejoin="round" d=" M 356.233, 660.995 366.233, 660.995 376.233, 660.995 386.233, 660.995 396.233, 660.995 406.233, 660.995 416.233, 660.995 426.233, 660.995 436.233, 660.995 446.233, 660.995 456.233, 660.995 466.233, 660.995 476.233, 660.995 486.233, 660.995 496.233, 660.995 506.233, 660.995 516.233, 660.995 526.233, 660.995 536.233, 660.995 546.233, 660.995 556.233, 660.995 566.233, 660.995 576.233, 660.995 586.233, 660.995 596.233, 660.995 606.233, 660.995 616.233, 660.995 627.132, 660.995 627.132, 660.995 " />
            <path fill="none" stroke-width="3.0" stroke-linecap="butt" stroke-opacity="1.0" stroke="rgb(0, 0, 0)" stroke-linejoin="round" d=" M 356.233, 606.815 356.233, 616.815 356.233, 626.815 356.233, 633.905 " />
            <path fill="none" stroke-width="3.0" stroke-linecap="butt" stroke-opacity="1.0" stroke="rgb(0, 0, 0)" stroke-linejoin="round" d=" M 356.233, 457.820 356.233, 447.820 356.233, 437.820 356.233, 427.820 356.233, 417.820 356.233, 407.820 356.233, 397.820 356.233, 387.820 356.233, 377.820 356.233, 367.820 356.233, 357.820 356.233, 347.820 356.233, 337.820 356.233, 327.820 356.233, 317.820 356.233, 307.820 356.233, 297.820 356.233, 287.820 356.233, 277.820 356.233, 267.820 356.233, 257.820 356.233, 247.820 356.233, 237.820 356.233, 227.556 356.233, 227.556 346.233, 227.556 336.233, 227.556 326.233, 227.556 316.233, 227.556 306.233, 227.556 302.053, 227.556 302.053, 227.556 302.053, 237.556 302.053, 247.556 302.053, 257.556 302.053, 267.556 302.053, 277.556 302.053, 287.556 302.053, 297.556 302.053, 307.556 302.053, 317.556 302.053, 327.556 302.053, 337.556 302.053, 347.556 302.053, 357.556 302.053, 367.556 302.053, 377.556 302.053, 387.556 302.053, 397.556 302.053, 407.556 302.053, 417.556 302.053, 427.556 302.053, 437.556 302.053, 447.556 302.053, 457.556 302.053, 467.556 302.053, 477.556 302.053, 487.556 302.053, 497.556 302.053, 507.556 302.053, 517.556 302.053, 527.556 302.053, 537.556 302.053, 547.556 302.053, 557.556 302.053, 567.556 302.053, 577.556 302.053, 587.556 302.053, 597.556 302.053, 607.556 302.053, 617.556 302.053, 627.556 302.053, 633.905 312.053, 633.905 322.053, 633.905 332.053, 633.905 342.053, 633.905 352.053, 633.905 356.233, 633.905 356.233, 633.905 " />
            <path fill="none" stroke-width="3.0" stroke-linecap="butt" stroke-opacity="1.0" stroke="rgb(0, 0, 0)" stroke-linejoin="round" d=" M 356.233, 227.556 356.233, 237.556 356.233, 247.556 356.233, 257.556 356.233, 267.556 356.233, 277.556 356.233, 287.556 356.233, 297.556 356.233, 307.556 356.233, 317.556 356.233, 327.556 356.233, 337.556 356.233, 347.556 356.233, 357.556 356.233, 367.556 356.233, 377.556 356.233, 387.556 356.233, 397.556 356.233, 407.556 356.233, 417.556 356.233, 427.556 356.233, 437.556 356.233, 447.556 356.233, 457.556 356.233, 467.556 356.233, 477.556 356.233, 487.556 356.233, 497.556 356.233, 507.556 356.233, 517.556 356.233, 527.556 356.233, 537.556 356.233, 547.556 356.233, 557.556 356.233, 567.556 356.233, 577.556 356.233, 587.556 356.233, 597.556 356.233, 607.556 356.233, 617.556 356.233, 627.556 356.233, 633.905 " />
            <path fill="none" stroke-width="3.0" stroke-linecap="butt" stroke-opacity="1.0" stroke="rgb(0, 0, 0)" stroke-linejoin="round" d=" M 627.132, 539.090 627.132, 529.090 627.132, 519.090 627.132, 509.090 627.132, 499.090 627.132, 489.090 627.132, 479.090 627.132, 469.090 627.132, 459.090 627.132, 457.820 627.132, 457.820 " />
            <path fill="none" stroke-width="3.0" stroke-linecap="butt" stroke-opacity="1.0" stroke="rgb(0, 0, 0)" stroke-linejoin="round" d=" M 356.233, 539.090 356.233, 539.090 366.233, 539.090 376.233, 539.090 386.233, 539.090 396.233, 539.090 406.233, 539.090 416.233, 539.090 426.233, 539.090 436.233, 539.090 446.233, 539.090 456.233, 539.090 466.233, 539.090 476.233, 539.090 486.233, 539.090 496.233, 539.090 506.233, 539.090 516.233, 539.090 526.233, 539.090 536.233, 539.090 546.233, 539.090 556.233, 539.090 566.233, 539.090 576.233, 539.090 586.233, 539.090 596.233, 539.090 606.233, 539.090 616.233, 539.090 627.132, 539.090 " />
            <path fill="none" stroke-width="3.0" stroke-linecap="butt" stroke-opacity="1.0" stroke="rgb(0, 0, 0)" stroke-linejoin="round" d=" M 356.233, 539.090 366.233, 539.090 376.233, 539.090 386.233, 539.090 396.233, 539.090 406.233, 539.090 416.233, 539.090 426.233, 539.090 436.233, 539.090 446.233, 539.090 456.233, 539.090 466.233, 539.090 476.233, 539.090 486.233, 539.090 496.233, 539.090 506.233, 539.090 516.233, 539.090 526.233, 539.090 536.233, 539.090 546.233, 539.090 556.233, 539.090 566.233, 539.090 576.233, 539.090 586.233, 539.090 596.233, 539.090 606.233, 539.090 616.233, 539.090 627.132, 539.090 627.132, 529.090 627.132, 519.090 627.132, 509.090 627.132, 499.090 627.132, 489.090 627.132, 479.090 627.132, 469.090 627.132, 459.090 627.132, 457.820 " />
            <path fill="none" stroke-width="3.0" stroke-linecap="butt" stroke-opacity="1.0" stroke="rgb(0, 0, 0)" stroke-linejoin="round" d=" M 627.132, 457.820 627.132, 457.820 617.132, 457.820 607.132, 457.820 597.132, 457.820 587.132, 457.820 577.132, 457.820 567.132, 457.820 557.132, 457.820 547.132, 457.820 537.132, 457.820 527.132, 457.820 517.132, 457.820 507.132, 457.820 497.132, 457.820 487.132, 457.820 477.132, 457.820 467.132, 457.820 457.132, 457.820 447.132, 457.820 437.132, 457.820 427.132, 457.820 417.132, 457.820 407.132, 457.820 397.132, 457.820 387.132, 457.820 377.132, 457.820 367.132, 457.820 356.233, 457.820 " />
            <path fill="none" stroke-width="3.0" stroke-linecap="butt" stroke-opacity="1.0" stroke="rgb(0, 0, 0)" stroke-linejoin="round" d=" M 356.233, 457.820 356.233, 467.820 356.233, 477.820 356.233, 487.820 356.233, 497.820 356.233, 507.820 356.233, 517.820 356.233, 527.820 356.233, 537.820 356.233, 539.090 " />
            <path fill="none" stroke-width="3.0" stroke-linecap="butt" stroke-opacity="1.0" stroke="rgb(0, 0, 0)" stroke-linejoin="round" d=" M 586.497, 701.630 596.497, 701.630 606.497, 701.630 616.497, 701.630 626.497, 701.630 636.497, 701.630 646.497, 701.630 656.497, 701.630 666.497, 701.630 676.497, 701.630 686.497, 701.630 696.497, 701.630 706.497, 701.630 716.497, 701.630 721.947, 701.630 721.947, 701.630 721.947, 691.630 721.947, 681.630 721.947, 674.540 721.947, 674.540 711.947, 674.540 701.947, 674.540 691.947, 674.540 681.947, 674.540 671.947, 674.540 661.947, 674.540 651.947, 674.540 641.947, 674.540 631.947, 674.540 621.947, 674.540 611.947, 674.540 601.947, 674.540 591.947, 674.540 586.497, 674.540 586.497, 684.540 586.497, 694.540 586.497, 701.630 586.497, 701.630 " />
            <path fill="none" stroke-width="3.0" stroke-linecap="butt" stroke-opacity="1.0" stroke="rgb(0, 0, 0)" stroke-linejoin="round" d=" M 586.497, 701.630 596.497, 701.630 606.497, 701.630 616.497, 701.630 626.497, 701.630 636.497, 701.630 646.497, 701.630 656.497, 701.630 666.497, 701.630 676.497, 701.630 686.497, 701.630 696.497, 701.630 706.497, 701.630 716.497, 701.630 721.947, 701.630 " />
            <path fill="none" stroke-width="3.0" stroke-linecap="butt" stroke-opacity="1.0" stroke="rgb(0, 0, 0)" stroke-linejoin="round" d=" M 356.233, 606.815 356.233, 596.815 356.233, 586.815 356.233, 576.815 356.233, 566.815 356.233, 556.815 356.233, 546.815 356.233, 539.090 " />
            <path fill="none" stroke-width="3.0" stroke-linecap="butt" stroke-opacity="1.0" stroke="rgb(0, 0, 0)" stroke-linejoin="round" d=" M 356.233, 539.090 356.233, 539.090 " />
        </g>
    </g>
    <g id="ViewLayer_TechnicalLines.001" inkscape:groupmode="lineset" inkscape:label="ViewLayer_TechnicalLines.001">
        <g inkscape:groupmode="layer" id="strokes" inkscape:label="strokes">
            <path fill="none" stroke-width="1.5" stroke-linecap="round" stroke-opacity="1.0" stroke="rgb(0, 0, 0)" stroke-linejoin="round" d=" M 627.132, 796.445 627.132, 786.445 627.132, 776.445 627.132, 766.444 627.132, 756.444 627.132, 746.444 627.132, 742.265 627.132, 742.265 617.132, 742.265 607.132, 742.265 597.132, 742.265 587.132, 742.265 577.132, 742.265 567.132, 742.265 557.132, 742.265 547.132, 742.265 537.132, 742.265 527.132, 742.265 517.132, 742.265 507.132, 742.265 497.132, 742.265 487.132, 742.265 477.132, 742.265 467.132, 742.265 457.132, 742.265 447.132, 742.265 437.132, 742.265 427.132, 742.265 417.132, 742.265 407.132, 742.265 397.132, 742.265 387.132, 742.265 377.132, 742.265 367.132, 742.265 356.233, 742.265 356.233, 752.265 356.233, 762.265 356.233, 772.265 356.233, 782.265 356.233, 792.265 356.233, 796.445 366.233, 796.445 376.233, 796.445 386.233, 796.445 396.233, 796.445 406.233, 796.445 416.233, 796.445 426.233, 796.445 436.233, 796.445 446.233, 796.445 456.233, 796.445 466.233, 796.445 476.233, 796.445 486.233, 796.445 496.233, 796.445 506.233, 796.445 516.233, 796.445 526.233, 796.445 536.233, 796.445 546.233, 796.445 556.233, 796.445 566.233, 796.445 576.233, 796.445 586.233, 796.445 596.233, 796.445 606.233, 796.445 616.233, 796.445 627.132, 796.445 627.132, 796.445 " />
            <path fill="none" stroke-width="1.5" stroke-linecap="round" stroke-opacity="1.0" stroke="rgb(0, 0, 0)" stroke-linejoin="round" d=" M 627.132, 742.265 627.132, 752.265 627.132, 762.265 627.132, 772.265 627.132, 782.265 627.132, 792.265 627.132, 796.445 " />
            <path fill="none" stroke-width="1.5" stroke-linecap="round" stroke-opacity="1.0" stroke="rgb(0, 0, 0)" stroke-linejoin="round" d=" M 356.233, 633.905 356.233, 643.905 356.233, 653.905 356.233, 660.995 356.233, 660.995 366.233, 660.995 376.233, 660.995 386.233, 660.995 396.233, 660.995 406.233, 660.995 416.233, 660.995 426.233, 660.995 436.233, 660.995 446.233, 660.995 456.233, 660.995 466.233, 660.995 476.233, 660.995 486.233, 660.995 496.233, 660.995 506.233, 660.995 516.233, 660.995 526.233, 660.995 536.233, 660.995 546.233, 660.995 556.233, 660.995 566.233, 660.995 576.233, 660.995 586.233, 660.995 596.233, 660.995 606.233, 660.995 616.233, 660.995 627.132, 660.995 627.132, 650.995 627.132, 640.995 627.132, 630.995 627.132, 620.995 627.132, 610.995 627.132, 606.815 627.132, 606.815 617.132, 606.815 607.132, 606.815 597.132, 606.815 587.132, 606.815 577.132, 606.815 567.132, 606.815 557.132, 606.815 547.132, 606.815 537.132, 606.815 527.132, 606.815 517.132, 606.815 507.132, 606.815 497.132, 606.815 487.132, 606.815 477.132, 606.815 467.132, 606.815 457.132, 606.815 447.132, 606.815 437.132, 606.815 427.132, 606.815 417.132, 606.815 407.132, 606.815 397.132, 606.815 387.132, 606.815 377.132, 606.815 367.132, 606.815 356.233, 606.815 " />
            <path fill="none" stroke-width="1.5" stroke-linecap="round" stroke-opacity="1.0" stroke="rgb(0, 0, 0)" stroke-linejoin="round" d=" M 627.132, 606.815 627.132, 616.815 627.132, 626.815 627.132, 636.815 627.132, 646.815 627.132, 656.815 627.132, 660.995 " />
            <path fill="none" stroke-width="1.5" stroke-linecap="round" stroke-opacity="1.0" stroke="rgb(0, 0, 0)" stroke-linejoin="round" d=" M 356.233, 660.995 366.233, 660.995 376.233, 660.995 386.233, 660.995 396.233, 660.995 406.233, 660.995 416.233, 660.995 426.233, 660.995 436.233, 660.995 446.233, 660.995 456.233, 660.995 466.233, 660.995 476.233, 660.995 486.233, 660.995 496.233, 660.995 506.233, 660.995 516.233, 660.995 526.233, 660.995 536.233, 660.995 546.233, 660.995 556.233, 660.995 566.233, 660.995 576.233, 660.995 586.233, 660.995 596.233, 660.995 606.233, 660.995 616.233, 660.995 627.132, 660.995 627.132, 660.995 " />
            <path fill="none" stroke-width="1.5" stroke-linecap="round" stroke-opacity="1.0" stroke="rgb(0, 0, 0)" stroke-linejoin="round" d=" M 356.233, 606.815 356.233, 616.815 356.233, 626.815 356.233, 633.905 " />
            <path fill="none" stroke-width="1.5" stroke-linecap="round" stroke-opacity="1.0" stroke="rgb(0, 0, 0)" stroke-linejoin="round" d=" M 356.233, 457.820 356.233, 447.820 356.233, 437.820 356.233, 427.820 356.233, 417.820 356.233, 407.820 356.233, 397.820 356.233, 387.820 356.233, 377.820 356.233, 367.820 356.233, 357.820 356.233, 347.820 356.233, 337.820 356.233, 327.820 356.233, 317.820 356.233, 307.820 356.233, 297.820 356.233, 287.820 356.233, 277.820 356.233, 267.820 356.233, 257.820 356.233, 247.820 356.233, 237.820 356.233, 227.556 356.233, 227.556 346.233, 227.556 336.233, 227.556 326.233, 227.556 316.233, 227.556 306.233, 227.556 302.053, 227.556 302.053, 227.556 302.053, 237.556 302.053, 247.556 302.053, 257.556 302.053, 267.556 302.053, 277.556 302.053, 287.556 302.053, 297.556 302.053, 307.556 302.053, 317.556 302.053, 327.556 302.053, 337.556 302.053, 347.556 302.053, 357.556 302.053, 367.556 302.053, 377.556 302.053, 387.556 302.053, 397.556 302.053, 407.556 302.053, 417.556 302.053, 427.556 302.053, 437.556 302.053, 447.556 302.053, 457.556 302.053, 467.556 302.053, 477.556 302.053, 487.556 302.053, 497.556 302.053, 507.556 302.053, 517.556 302.053, 527.556 302.053, 537.556 302.053, 547.556 302.053, 557.556 302.053, 567.556 302.053, 577.556 302.053, 587.556 302.053, 597.556 302.053, 607.556 302.053, 617.556 302.053, 627.556 302.053, 633.905 312.053, 633.905 322.053, 633.905 332.053, 633.905 342.053, 633.905 352.053, 633.905 356.233, 633.905 356.233, 633.905 " />
            <path fill="none" stroke-width="1.5" stroke-linecap="round" stroke-opacity="1.0" stroke="rgb(0, 0, 0)" stroke-linejoin="round" d=" M 356.233, 227.556 356.233, 237.556 356.233, 247.556 356.233, 257.556 356.233, 267.556 356.233, 277.556 356.233, 287.556 356.233, 297.556 356.233, 307.556 356.233, 317.556 356.233, 327.556 356.233, 337.556 356.233, 347.556 356.233, 357.556 356.233, 367.556 356.233, 377.556 356.233, 387.556 356.233, 397.556 356.233, 407.556 356.233, 417.556 356.233, 427.556 356.233, 437.556 356.233, 447.556 356.233, 457.556 356.233, 467.556 356.233, 477.556 356.233, 487.556 356.233, 497.556 356.233, 507.556 356.233, 517.556 356.233, 527.556 356.233, 537.556 356.233, 547.556 356.233, 557.556 356.233, 567.556 356.233, 577.556 356.233, 587.556 356.233, 597.556 356.233, 607.556 356.233, 617.556 356.233, 627.556 356.233, 633.905 " />
            <path fill="none" stroke-width="1.5" stroke-linecap="round" stroke-opacity="1.0" stroke="rgb(0, 0, 0)" stroke-linejoin="round" d=" M 627.132, 539.090 627.132, 529.090 627.132, 519.090 627.132, 509.090 627.132, 499.090 627.132, 489.090 627.132, 479.090 627.132, 469.090 627.132, 459.090 627.132, 457.820 627.132, 457.820 " />
            <path fill="none" stroke-width="1.5" stroke-linecap="round" stroke-opacity="1.0" stroke="rgb(0, 0, 0)" stroke-linejoin="round" d=" M 356.233, 539.090 356.233, 539.090 366.233, 539.090 376.233, 539.090 386.233, 539.090 396.233, 539.090 406.233, 539.090 416.233, 539.090 426.233, 539.090 436.233, 539.090 446.233, 539.090 456.233, 539.090 466.233, 539.090 476.233, 539.090 486.233, 539.090 496.233, 539.090 506.233, 539.090 516.233, 539.090 526.233, 539.090 536.233, 539.090 546.233, 539.090 556.233, 539.090 566.233, 539.090 576.233, 539.090 586.233, 539.090 596.233, 539.090 606.233, 539.090 616.233, 539.090 627.132, 539.090 " />
            <path fill="none" stroke-width="1.5" stroke-linecap="round" stroke-opacity="1.0" stroke="rgb(0, 0, 0)" stroke-linejoin="round" d=" M 356.233, 539.090 366.233, 539.090 376.233, 539.090 386.233, 539.090 396.233, 539.090 406.233, 539.090 416.233, 539.090 426.233, 539.090 436.233, 539.090 446.233, 539.090 456.233, 539.090 466.233, 539.090 476.233, 539.090 486.233, 539.090 496.233, 539.090 506.233, 539.090 516.233, 539.090 526.233, 539.090 536.233, 539.090 546.233, 539.090 556.233, 539.090 566.233, 539.090 576.233, 539.090 586.233, 539.090 596.233, 539.090 606.233, 539.090 616.233, 539.090 627.132, 539.090 627.132, 529.090 627.132, 519.090 627.132, 509.090 627.132, 499.090 627.132, 489.090 627.132, 479.090 627.132, 469.090 627.132, 459.090 627.132, 457.820 " />
            <path fill="none" stroke-width="1.5" stroke-linecap="round" stroke-opacity="1.0" stroke="rgb(0, 0, 0)" stroke-linejoin="round" d=" M 627.132, 457.820 627.132, 457.820 617.132, 457.820 607.132, 457.820 597.132, 457.820 587.132, 457.820 577.132, 457.820 567.132, 457.820 557.132, 457.820 547.132, 457.820 537.132, 457.820 527.132, 457.820 517.132, 457.820 507.132, 457.820 497.132, 457.820 487.132, 457.820 477.132, 457.820 467.132, 457.820 457.132, 457.820 447.132, 457.820 437.132, 457.820 427.132, 457.820 417.132, 457.820 407.132, 457.820 397.132, 457.820 387.132, 457.820 377.132, 457.820 367.132, 457.820 356.233, 457.820 " />
            <path fill="none" stroke-width="1.5" stroke-linecap="round" stroke-opacity="1.0" stroke="rgb(0, 0, 0)" stroke-linejoin="round" d=" M 356.233, 457.820 356.233, 467.820 356.233, 477.820 356.233, 487.820 356.233, 497.820 356.233, 507.820 356.233, 517.820 356.233, 527.820 356.233, 537.820 356.233, 539.090 " />
            <path fill="none" stroke-width="1.5" stroke-linecap="round" stroke-opacity="1.0" stroke="rgb(0, 0, 0)" stroke-linejoin="round" d=" M 586.497, 701.630 596.497, 701.630 606.497, 701.630 616.497, 701.630 626.497, 701.630 636.497, 701.630 646.497, 701.630 656.497, 701.630 666.497, 701.630 676.497, 701.630 686.497, 701.630 696.497, 701.630 706.497, 701.630 716.497, 701.630 721.947, 701.630 721.947, 701.630 721.947, 691.630 721.947, 681.630 721.947, 674.540 721.947, 674.540 711.947, 674.540 701.947, 674.540 691.947, 674.540 681.947, 674.540 671.947, 674.540 661.947, 674.540 651.947, 674.540 641.947, 674.540 631.947, 674.540 621.947, 674.540 611.947, 674.540 601.947, 674.540 591.947, 674.540 586.497, 674.540 586.497, 684.540 586.497, 694.540 586.497, 701.630 586.497, 701.630 " />
            <path fill="none" stroke-width="1.5" stroke-linecap="round" stroke-opacity="1.0" stroke="rgb(0, 0, 0)" stroke-linejoin="round" d=" M 586.497, 701.630 596.497, 701.630 606.497, 701.630 616.497, 701.630 626.497, 701.630 636.497, 701.630 646.497, 701.630 656.497, 701.630 666.497, 701.630 676.497, 701.630 686.497, 701.630 696.497, 701.630 706.497, 701.630 716.497, 701.630 721.947, 701.630 " />
            <path fill="none" stroke-width="1.5" stroke-linecap="round" stroke-opacity="1.0" stroke="rgb(0, 0, 0)" stroke-linejoin="round" d=" M 356.233, 606.815 356.233, 596.815 356.233, 586.815 356.233, 576.815 356.233, 566.815 356.233, 556.815 356.233, 546.815 356.233, 539.090 " />
            <path fill="none" stroke-width="1.5" stroke-linecap="round" stroke-opacity="1.0" stroke="rgb(0, 0, 0)" stroke-linejoin="round" d=" M 356.233, 539.090 356.233, 539.090 " />
        </g>
    </g>
    <g id="ViewLayer_TechnicalLines.002" inkscape:groupmode="lineset" inkscape:label="ViewLayer_TechnicalLines.002">
        <g inkscape:groupmode="layer" id="strokes" inkscape:label="strokes">
            <path fill="none" stroke-width="1.5" stroke-linecap="round" stroke-opacity="1.0" stroke="rgb(0, 0, 0)" stroke-linejoin="round" d=" M 627.132, 796.445 627.132, 786.445 627.132, 776.445 627.132, 766.444 627.132, 756.444 627.132, 746.444 627.132, 742.265 627.132, 742.265 617.132, 742.265 607.132, 742.265 597.132, 742.265 587.132, 742.265 577.132, 742.265 567.132, 742.265 557.132, 742.265 547.132, 742.265 537.132, 742.265 527.132, 742.265 517.132, 742.265 507.132, 742.265 497.132, 742.265 487.132, 742.265 477.132, 742.265 467.132, 742.265 457.132, 742.265 447.132, 742.265 437.132, 742.265 427.132, 742.265 417.132, 742.265 407.132, 742.265 397.132, 742.265 387.132, 742.265 377.132, 742.265 367.132, 742.265 356.233, 742.265 356.233, 752.265 356.233, 762.265 356.233, 772.265 356.233, 782.265 356.233, 792.265 356.233, 796.445 366.233, 796.445 376.233, 796.445 386.233, 796.445 396.233, 796.445 406.233, 796.445 416.233, 796.445 426.233, 796.445 436.233, 796.445 446.233, 796.445 456.233, 796.445 466.233, 796.445 476.233, 796.445 486.233, 796.445 496.233, 796.445 506.233, 796.445 516.233, 796.445 526.233, 796.445 536.233, 796.445 546.233, 796.445 556.233, 796.445 566.233, 796.445 576.233, 796.445 586.233, 796.445 596.233, 796.445 606.233, 796.445 616.233, 796.445 627.132, 796.445 627.132, 796.445 " />
            <path fill="none" stroke-width="1.5" stroke-linecap="round" stroke-opacity="1.0" stroke="rgb(0, 0, 0)" stroke-linejoin="round" d=" M 627.132, 742.265 627.132, 752.265 627.132, 762.265 627.132, 772.265 627.132, 782.265 627.132, 792.265 627.132, 796.445 " />
            <path fill="none" stroke-width="1.5" stroke-linecap="round" stroke-opacity="1.0" stroke="rgb(0, 0, 0)" stroke-linejoin="round" d=" M 356.233, 633.905 356.233, 643.905 356.233, 653.905 356.233, 660.995 356.233, 660.995 366.233, 660.995 376.233, 660.995 386.233, 660.995 396.233, 660.995 406.233, 660.995 416.233, 660.995 426.233, 660.995 436.233, 660.995 446.233, 660.995 456.233, 660.995 466.233, 660.995 476.233, 660.995 486.233, 660.995 496.233, 660.995 506.233, 660.995 516.233, 660.995 526.233, 660.995 536.233, 660.995 546.233, 660.995 556.233, 660.995 566.233, 660.995 576.233, 660.995 586.233, 660.995 596.233, 660.995 606.233, 660.995 616.233, 660.995 627.132, 660.995 627.132, 650.995 627.132, 640.995 627.132, 630.995 627.132, 620.995 627.132, 610.995 627.132, 606.815 627.132, 606.815 617.132, 606.815 607.132, 606.815 597.132, 606.815 587.132, 606.815 577.132, 606.815 567.132, 606.815 557.132, 606.815 547.132, 606.815 537.132, 606.815 527.132, 606.815 517.132, 606.815 507.132, 606.815 497.132, 606.815 487.132, 606.815 477.132, 606.815 467.132, 606.815 457.132, 606.815 447.132, 606.815 437.132, 606.815 427.132, 606.815 417.132, 606.815 407.132, 606.815 397.132, 606.815 387.132, 606.815 377.132, 606.815 367.132, 606.815 356.233, 606.815 " />
            <path fill="none" stroke-width="1.5" stroke-linecap="round" stroke-opacity="1.0" stroke="rgb(0, 0, 0)" stroke-linejoin="round" d=" M 627.132, 606.815 627.132, 616.815 627.132, 626.815 627.132, 636.815 627.132, 646.815 627.132, 656.815 627.132, 660.995 " />
            <path fill="none" stroke-width="1.5" stroke-linecap="round" stroke-opacity="1.0" stroke="rgb(0, 0, 0)" stroke-linejoin="round" d=" M 356.233, 660.995 366.233, 660.995 376.233, 660.995 386.233, 660.995 396.233, 660.995 406.233, 660.995 416.233, 660.995 426.233, 660.995 436.233, 660.995 446.233, 660.995 456.233, 660.995 466.233, 660.995 476.233, 660.995 486.233, 660.995 496.233, 660.995 506.233, 660.995 516.233, 660.995 526.233, 660.995 536.233, 660.995 546.233, 660.995 556.233, 660.995 566.233, 660.995 576.233, 660.995 586.233, 660.995 596.233, 660.995 606.233, 660.995 616.233, 660.995 627.132, 660.995 627.132, 660.995 " />
            <path fill="none" stroke-width="1.5" stroke-linecap="round" stroke-opacity="1.0" stroke="rgb(0, 0, 0)" stroke-linejoin="round" d=" M 356.233, 606.815 356.233, 616.815 356.233, 626.815 356.233, 633.905 " />
            <path fill="none" stroke-width="1.5" stroke-linecap="round" stroke-opacity="1.0" stroke="rgb(0, 0, 0)" stroke-linejoin="round" d=" M 356.233, 457.820 356.233, 447.820 356.233, 437.820 356.233, 427.820 356.233, 417.820 356.233, 407.820 356.233, 397.820 356.233, 387.820 356.233, 377.820 356.233, 367.820 356.233, 357.820 356.233, 347.820 356.233, 337.820 356.233, 327.820 356.233, 317.820 356.233, 307.820 356.233, 297.820 356.233, 287.820 356.233, 277.820 356.233, 267.820 356.233, 257.820 356.233, 247.820 356.233, 237.820 356.233, 227.556 356.233, 227.556 346.233, 227.556 336.233, 227.556 326.233, 227.556 316.233, 227.556 306.233, 227.556 302.053, 227.556 302.053, 227.556 302.053, 237.556 302.053, 247.556 302.053, 257.556 302.053, 267.556 302.053, 277.556 302.053, 287.556 302.053, 297.556 302.053, 307.556 302.053, 317.556 302.053, 327.556 302.053, 337.556 302.053, 347.556 302.053, 357.556 302.053, 367.556 302.053, 377.556 302.053, 387.556 302.053, 397.556 302.053, 407.556 302.053, 417.556 302.053, 427.556 302.053, 437.556 302.053, 447.556 302.053, 457.556 302.053, 467.556 302.053, 477.556 302.053, 487.556 302.053, 497.556 302.053, 507.556 302.053, 517.556 302.053, 527.556 302.053, 537.556 302.053, 547.556 302.053, 557.556 302.053, 567.556 302.053, 577.556 302.053, 587.556 302.053, 597.556 302.053, 607.556 302.053, 617.556 302.053, 627.556 302.053, 633.905 312.053, 633.905 322.053, 633.905 332.053, 633.905 342.053, 633.905 352.053, 633.905 356.233, 633.905 356.233, 633.905 " />
            <path fill="none" stroke-width="1.5" stroke-linecap="round" stroke-opacity="1.0" stroke="rgb(0, 0, 0)" stroke-linejoin="round" d=" M 356.233, 227.556 356.233, 237.556 356.233, 247.556 356.233, 257.556 356.233, 267.556 356.233, 277.556 356.233, 287.556 356.233, 297.556 356.233, 307.556 356.233, 317.556 356.233, 327.556 356.233, 337.556 356.233, 347.556 356.233, 357.556 356.233, 367.556 356.233, 377.556 356.233, 387.556 356.233, 397.556 356.233, 407.556 356.233, 417.556 356.233, 427.556 356.233, 437.556 356.233, 447.556 356.233, 457.556 356.233, 467.556 356.233, 477.556 356.233, 487.556 356.233, 497.556 356.233, 507.556 356.233, 517.556 356.233, 527.556 356.233, 537.556 356.233, 547.556 356.233, 557.556 356.233, 567.556 356.233, 577.556 356.233, 587.556 356.233, 597.556 356.233, 607.556 356.233, 617.556 356.233, 627.556 356.233, 633.905 " />
            <path fill="none" stroke-width="1.5" stroke-linecap="round" stroke-opacity="1.0" stroke="rgb(0, 0, 0)" stroke-linejoin="round" d=" M 627.132, 539.090 627.132, 529.090 627.132, 519.090 627.132, 509.090 627.132, 499.090 627.132, 489.090 627.132, 479.090 627.132, 469.090 627.132, 459.090 627.132, 457.820 627.132, 457.820 " />
            <path fill="none" stroke-width="1.5" stroke-linecap="round" stroke-opacity="1.0" stroke="rgb(0, 0, 0)" stroke-linejoin="round" d=" M 356.233, 539.090 356.233, 539.090 366.233, 539.090 376.233, 539.090 386.233, 539.090 396.233, 539.090 406.233, 539.090 416.233, 539.090 426.233, 539.090 436.233, 539.090 446.233, 539.090 456.233, 539.090 466.233, 539.090 476.233, 539.090 486.233, 539.090 496.233, 539.090 506.233, 539.090 516.233, 539.090 526.233, 539.090 536.233, 539.090 546.233, 539.090 556.233, 539.090 566.233, 539.090 576.233, 539.090 586.233, 539.090 596.233, 539.090 606.233, 539.090 616.233, 539.090 627.132, 539.090 " />
            <path fill="none" stroke-width="1.5" stroke-linecap="round" stroke-opacity="1.0" stroke="rgb(0, 0, 0)" stroke-linejoin="round" d=" M 356.233, 539.090 366.233, 539.090 376.233, 539.090 386.233, 539.090 396.233, 539.090 406.233, 539.090 416.233, 539.090 426.233, 539.090 436.233, 539.090 446.233, 539.090 456.233, 539.090 466.233, 539.090 476.233, 539.090 486.233, 539.090 496.233, 539.090 506.233, 539.090 516.233, 539.090 526.233, 539.090 536.233, 539.090 546.233, 539.090 556.233, 539.090 566.233, 539.090 576.233, 539.090 586.233, 539.090 596.233, 539.090 606.233, 539.090 616.233, 539.090 627.132, 539.090 627.132, 529.090 627.132, 519.090 627.132, 509.090 627.132, 499.090 627.132, 489.090 627.132, 479.090 627.132, 469.090 627.132, 459.090 627.132, 457.820 " />
            <path fill="none" stroke-width="1.5" stroke-linecap="round" stroke-opacity="1.0" stroke="rgb(0, 0, 0)" stroke-linejoin="round" d=" M 627.132, 457.820 627.132, 457.820 617.132, 457.820 607.132, 457.820 597.132, 457.820 587.132, 457.820 577.132, 457.820 567.132, 457.820 557.132, 457.820 547.132, 457.820 537.132, 457.820 527.132, 457.820 517.132, 457.820 507.132, 457.820 497.132, 457.820 487.132, 457.820 477.132, 457.820 467.132, 457.820 457.132, 457.820 447.132, 457.820 437.132, 457.820 427.132, 457.820 417.132, 457.820 407.132, 457.820 397.132, 457.820 387.132, 457.820 377.132, 457.820 367.132, 457.820 356.233, 457.820 " />
            <path fill="none" stroke-width="1.5" stroke-linecap="round" stroke-opacity="1.0" stroke="rgb(0, 0, 0)" stroke-linejoin="round" d=" M 356.233, 457.820 356.233, 467.820 356.233, 477.820 356.233, 487.820 356.233, 497.820 356.233, 507.820 356.233, 517.820 356.233, 527.820 356.233, 537.820 356.233, 539.090 " />
            <path fill="none" stroke-width="1.5" stroke-linecap="round" stroke-opacity="1.0" stroke="rgb(0, 0, 0)" stroke-linejoin="round" d=" M 586.497, 701.630 596.497, 701.630 606.497, 701.630 616.497, 701.630 626.497, 701.630 636.497, 701.630 646.497, 701.630 656.497, 701.630 666.497, 701.630 676.497, 701.630 686.497, 701.630 696.497, 701.630 706.497, 701.630 716.497, 701.630 721.947, 701.630 721.947, 701.630 721.947, 691.630 721.947, 681.630 721.947, 674.540 721.947, 674.540 711.947, 674.540 701.947, 674.540 691.947, 674.540 681.947, 674.540 671.947, 674.540 661.947, 674.540 651.947, 674.540 641.947, 674.540 631.947, 674.540 621.947, 674.540 611.947, 674.540 601.947, 674.540 591.947, 674.540 586.497, 674.540 586.497, 684.540 586.497, 694.540 586.497, 701.630 586.497, 701.630 " />
            <path fill="none" stroke-width="1.5" stroke-linecap="round" stroke-opacity="1.0" stroke="rgb(0, 0, 0)" stroke-linejoin="round" d=" M 586.497, 701.630 596.497, 701.630 606.497, 701.630 616.497, 701.630 626.497, 701.630 636.497, 701.630 646.497, 701.630 656.497, 701.630 666.497, 701.630 676.497, 701.630 686.497, 701.630 696.497, 701.630 706.497, 701.630 716.497, 701.630 721.947, 701.630 " />
            <path fill="none" stroke-width="1.5" stroke-linecap="round" stroke-opacity="1.0" stroke="rgb(0, 0, 0)" stroke-linejoin="round" d=" M 356.233, 606.815 356.233, 596.815 356.233, 586.815 356.233, 576.815 356.233, 566.815 356.233, 556.815 356.233, 546.815 356.233, 539.090 " />
            <path fill="none" stroke-width="1.5" stroke-linecap="round" stroke-opacity="1.0" stroke="rgb(0, 0, 0)" stroke-linejoin="round" d=" M 356.233, 539.090 356.233, 539.090 " />
        </g>
    </g>
    <g id="ViewLayer_TechnicalLines.003" inkscape:groupmode="lineset" inkscape:label="ViewLayer_TechnicalLines.003">
        <g inkscape:groupmode="layer" id="strokes" inkscape:label="strokes">
            <path fill="none" stroke-width="1.5" stroke-linecap="round" stroke-opacity="1.0" stroke="rgb(0, 0, 0)" stroke-linejoin="round" d=" M 627.132, 796.445 627.132, 786.445 627.132, 776.445 627.132, 766.444 627.132, 756.444 627.132, 746.444 627.132, 742.265 627.132, 742.265 617.132, 742.265 607.132, 742.265 597.132, 742.265 587.132, 742.265 577.132, 742.265 567.132, 742.265 557.132, 742.265 547.132, 742.265 537.132, 742.265 527.132, 742.265 517.132, 742.265 507.132, 742.265 497.132, 742.265 487.132, 742.265 477.132, 742.265 467.132, 742.265 457.132, 742.265 447.132, 742.265 437.132, 742.265 427.132, 742.265 417.132, 742.265 407.132, 742.265 397.132, 742.265 387.132, 742.265 377.132, 742.265 367.132, 742.265 356.233, 742.265 356.233, 752.265 356.233, 762.265 356.233, 772.265 356.233, 782.265 356.233, 792.265 356.233, 796.445 366.233, 796.445 376.233, 796.445 386.233, 796.445 396.233, 796.445 406.233, 796.445 416.233, 796.445 426.233, 796.445 436.233, 796.445 446.233, 796.445 456.233, 796.445 466.233, 796.445 476.233, 796.445 486.233, 796.445 496.233, 796.445 506.233, 796.445 516.233, 796.445 526.233, 796.445 536.233, 796.445 546.233, 796.445 556.233, 796.445 566.233, 796.445 576.233, 796.445 586.233, 796.445 596.233, 796.445 606.233, 796.445 616.233, 796.445 627.132, 796.445 627.132, 796.445 " />
            <path fill="none" stroke-width="1.5" stroke-linecap="round" stroke-opacity="1.0" stroke="rgb(0, 0, 0)" stroke-linejoin="round" d=" M 627.132, 742.265 627.132, 752.265 627.132, 762.265 627.132, 772.265 627.132, 782.265 627.132, 792.265 627.132, 796.445 " />
            <path fill="none" stroke-width="1.5" stroke-linecap="round" stroke-opacity="1.0" stroke="rgb(0, 0, 0)" stroke-linejoin="round" d=" M 356.233, 633.905 356.233, 643.905 356.233, 653.905 356.233, 660.995 356.233, 660.995 366.233, 660.995 376.233, 660.995 386.233, 660.995 396.233, 660.995 406.233, 660.995 416.233, 660.995 426.233, 660.995 436.233, 660.995 446.233, 660.995 456.233, 660.995 466.233, 660.995 476.233, 660.995 486.233, 660.995 496.233, 660.995 506.233, 660.995 516.233, 660.995 526.233, 660.995 536.233, 660.995 546.233, 660.995 556.233, 660.995 566.233, 660.995 576.233, 660.995 586.233, 660.995 596.233, 660.995 606.233, 660.995 616.233, 660.995 627.132, 660.995 627.132, 650.995 627.132, 640.995 627.132, 630.995 627.132, 620.995 627.132, 610.995 627.132, 606.815 627.132, 606.815 617.132, 606.815 607.132, 606.815 597.132, 606.815 587.132, 606.815 577.132, 606.815 567.132, 606.815 557.132, 606.815 547.132, 606.815 537.132, 606.815 527.132, 606.815 517.132, 606.815 507.132, 606.815 497.132, 606.815 487.132, 606.815 477.132, 606.815 467.132, 606.815 457.132, 606.815 447.132, 606.815 437.132, 606.815 427.132, 606.815 417.132, 606.815 407.132, 606.815 397.132, 606.815 387.132, 606.815 377.132, 606.815 367.132, 606.815 356.233, 606.815 " />
            <path fill="none" stroke-width="1.5" stroke-linecap="round" stroke-opacity="1.0" stroke="rgb(0, 0, 0)" stroke-linejoin="round" d=" M 627.132, 606.815 627.132, 616.815 627.132, 626.815 627.132, 636.815 627.132, 646.815 627.132, 656.815 627.132, 660.995 " />
            <path fill="none" stroke-width="1.5" stroke-linecap="round" stroke-opacity="1.0" stroke="rgb(0, 0, 0)" stroke-linejoin="round" d=" M 356.233, 660.995 366.233, 660.995 376.233, 660.995 386.233, 660.995 396.233, 660.995 406.233, 660.995 416.233, 660.995 426.233, 660.995 436.233, 660.995 446.233, 660.995 456.233, 660.995 466.233, 660.995 476.233, 660.995 486.233, 660.995 496.233, 660.995 506.233, 660.995 516.233, 660.995 526.233, 660.995 536.233, 660.995 546.233, 660.995 556.233, 660.995 566.233, 660.995 576.233, 660.995 586.233, 660.995 596.233, 660.995 606.233, 660.995 616.233, 660.995 627.132, 660.995 627.132, 660.995 " />
            <path fill="none" stroke-width="1.5" stroke-linecap="round" stroke-opacity="1.0" stroke="rgb(0, 0, 0)" stroke-linejoin="round" d=" M 356.233, 606.815 356.233, 616.815 356.233, 626.815 356.233, 633.905 " />
            <path fill="none" stroke-width="1.5" stroke-linecap="round" stroke-opacity="1.0" stroke="rgb(0, 0, 0)" stroke-linejoin="round" d=" M 356.233, 457.820 356.233, 447.820 356.233, 437.820 356.233, 427.820 356.233, 417.820 356.233, 407.820 356.233, 397.820 356.233, 387.820 356.233, 377.820 356.233, 367.820 356.233, 357.820 356.233, 347.820 356.233, 337.820 356.233, 327.820 356.233, 317.820 356.233, 307.820 356.233, 297.820 356.233, 287.820 356.233, 277.820 356.233, 267.820 356.233, 257.820 356.233, 247.820 356.233, 237.820 356.233, 227.556 356.233, 227.556 346.233, 227.556 336.233, 227.556 326.233, 227.556 316.233, 227.556 306.233, 227.556 302.053, 227.556 302.053, 227.556 302.053, 237.556 302.053, 247.556 302.053, 257.556 302.053, 267.556 302.053, 277.556 302.053, 287.556 302.053, 297.556 302.053, 307.556 302.053, 317.556 302.053, 327.556 302.053, 337.556 302.053, 347.556 302.053, 357.556 302.053, 367.556 302.053, 377.556 302.053, 387.556 302.053, 397.556 302.053, 407.556 302.053, 417.556 302.053, 427.556 302.053, 437.556 302.053, 447.556 302.053, 457.556 302.053, 467.556 302.053, 477.556 302.053, 487.556 302.053, 497.556 302.053, 507.556 302.053, 517.556 302.053, 527.556 302.053, 537.556 302.053, 547.556 302.053, 557.556 302.053, 567.556 302.053, 577.556 302.053, 587.556 302.053, 597.556 302.053, 607.556 302.053, 617.556 302.053, 627.556 302.053, 633.905 312.053, 633.905 322.053, 633.905 332.053, 633.905 342.053, 633.905 352.053, 633.905 356.233, 633.905 356.233, 633.905 " />
            <path fill="none" stroke-width="1.5" stroke-linecap="round" stroke-opacity="1.0" stroke="rgb(0, 0, 0)" stroke-linejoin="round" d=" M 356.233, 227.556 356.233, 237.556 356.233, 247.556 356.233, 257.556 356.233, 267.556 356.233, 277.556 356.233, 287.556 356.233, 297.556 356.233, 307.556 356.233, 317.556 356.233, 327.556 356.233, 337.556 356.233, 347.556 356.233, 357.556 356.233, 367.556 356.233, 377.556 356.233, 387.556 356.233, 397.556 356.233, 407.556 356.233, 417.556 356.233, 427.556 356.233, 437.556 356.233, 447.556 356.233, 457.556 356.233, 467.556 356.233, 477.556 356.233, 487.556 356.233, 497.556 356.233, 507.556 356.233, 517.556 356.233, 527.556 356.233, 537.556 356.233, 547.556 356.233, 557.556 356.233, 567.556 356.233, 577.556 356.233, 587.556 356.233, 597.556 356.233, 607.556 356.233, 617.556 356.233, 627.556 356.233, 633.905 " />
            <path fill="none" stroke-width="1.5" stroke-linecap="round" stroke-opacity="1.0" stroke="rgb(0, 0, 0)" stroke-linejoin="round" d=" M 627.132, 539.090 627.132, 529.090 627.132, 519.090 627.132, 509.090 627.132, 499.090 627.132, 489.090 627.132, 479.090 627.132, 469.090 627.132, 459.090 627.132, 457.820 627.132, 457.820 " />
            <path fill="none" stroke-width="1.5" stroke-linecap="round" stroke-opacity="1.0" stroke="rgb(0, 0, 0)" stroke-linejoin="round" d=" M 356.233, 539.090 356.233, 539.090 366.233, 539.090 376.233, 539.090 386.233, 539.090 396.233, 539.090 406.233, 539.090 416.233, 539.090 426.233, 539.090 436.233, 539.090 446.233, 539.090 456.233, 539.090 466.233, 539.090 476.233, 539.090 486.233, 539.090 496.233, 539.090 506.233, 539.090 516.233, 539.090 526.233, 539.090 536.233, 539.090 546.233, 539.090 556.233, 539.090 566.233, 539.090 576.233, 539.090 586.233, 539.090 596.233, 539.090 606.233, 539.090 616.233, 539.090 627.132, 539.090 " />
            <path fill="none" stroke-width="1.5" stroke-linecap="round" stroke-opacity="1.0" stroke="rgb(0, 0, 0)" stroke-linejoin="round" d=" M 356.233, 539.090 366.233, 539.090 376.233, 539.090 386.233, 539.090 396.233, 539.090 406.233, 539.090 416.233, 539.090 426.233, 539.090 436.233, 539.090 446.233, 539.090 456.233, 539.090 466.233, 539.090 476.233, 539.090 486.233, 539.090 496.233, 539.090 506.233, 539.090 516.233, 539.090 526.233, 539.090 536.233, 539.090 546.233, 539.090 556.233, 539.090 566.233, 539.090 576.233, 539.090 586.233, 539.090 596.233, 539.090 606.233, 539.090 616.233, 539.090 627.132, 539.090 627.132, 529.090 627.132, 519.090 627.132, 509.090 627.132, 499.090 627.132, 489.090 627.132, 479.090 627.132, 469.090 627.132, 459.090 627.132, 457.820 " />
            <path fill="none" stroke-width="1.5" stroke-linecap="round" stroke-opacity="1.0" stroke="rgb(0, 0, 0)" stroke-linejoin="round" d=" M 627.132, 457.820 627.132, 457.820 617.132, 457.820 607.132, 457.820 597.132, 457.820 587.132, 457.820 577.132, 457.820 567.132, 457.820 557.132, 457.820 547.132, 457.820 537.132, 457.820 527.132, 457.820 517.132, 457.820 507.132, 457.820 497.132, 457.820 487.132, 457.820 477.132, 457.820 467.132, 457.820 457.132, 457.820 447.132, 457.820 437.132, 457.820 427.132, 457.820 417.132, 457.820 407.132, 457.820 397.132, 457.820 387.132, 457.820 377.132, 457.820 367.132, 457.820 356.233, 457.820 " />
            <path fill="none" stroke-width="1.5" stroke-linecap="round" stroke-opacity="1.0" stroke="rgb(0, 0, 0)" stroke-linejoin="round" d=" M 356.233, 457.820 356.233, 467.820 356.233, 477.820 356.233, 487.820 356.233, 497.820 356.233, 507.820 356.233, 517.820 356.233, 527.820 356.233, 537.820 356.233, 539.090 " />
            <path fill="none" stroke-width="1.5" stroke-linecap="round" stroke-opacity="1.0" stroke="rgb(0, 0, 0)" stroke-linejoin="round" d=" M 586.497, 701.630 596.497, 701.630 606.497, 701.630 616.497, 701.630 626.497, 701.630 636.497, 701.630 646.497, 701.630 656.497, 701.630 666.497, 701.630 676.497, 701.630 686.497, 701.630 696.497, 701.630 706.497, 701.630 716.497, 701.630 721.947, 701.630 721.947, 701.630 721.947, 691.630 721.947, 681.630 721.947, 674.540 721.947, 674.540 711.947, 674.540 701.947, 674.540 691.947, 674.540 681.947, 674.540 671.947, 674.540 661.947, 674.540 651.947, 674.540 641.947, 674.540 631.947, 674.540 621.947, 674.540 611.947, 674.540 601.947, 674.540 591.947, 674.540 586.497, 674.540 586.497, 684.540 586.497, 694.540 586.497, 701.630 586.497, 701.630 " />
            <path fill="none" stroke-width="1.5" stroke-linecap="round" stroke-opacity="1.0" stroke="rgb(0, 0, 0)" stroke-linejoin="round" d=" M 586.497, 701.630 596.497, 701.630 606.497, 701.630 616.497, 701.630 626.497, 701.630 636.497, 701.630 646.497, 701.630 656.497, 701.630 666.497, 701.630 676.497, 701.630 686.497, 701.630 696.497, 701.630 706.497, 701.630 716.497, 701.630 721.947, 701.630 " />
            <path fill="none" stroke-width="1.5" stroke-linecap="round" stroke-opacity="1.0" stroke="rgb(0, 0, 0)" stroke-linejoin="round" d=" M 356.233, 606.815 356.233, 596.815 356.233, 586.815 356.233, 576.815 356.233, 566.815 356.233, 556.815 356.233, 546.815 356.233, 539.090 " />
            <path fill="none" stroke-width="1.5" stroke-linecap="round" stroke-opacity="1.0" stroke="rgb(0, 0, 0)" stroke-linejoin="round" d=" M 356.233, 539.090 356.233, 539.090 " />
        </g>
    </g>
    <g id="ViewLayer_TechnicalLines.004" xmlns:inkscape="http://www.inkscape.org/namespaces/inkscape" inkscape:groupmode="lineset" inkscape:label="ViewLayer_TechnicalLines.004">
        <g xmlns:inkscape="http://www.inkscape.org/namespaces/inkscape" inkscape:groupmode="layer" id="strokes" inkscape:label="strokes">
            <path fill="none" stroke-width="1.5" stroke-linecap="round" stroke-opacity="1.0" stroke="rgb(0, 0, 0)" stroke-linejoin="round" d=" M 627.132, 796.445 627.132, 786.445 627.132, 776.445 627.132, 766.444 627.132, 756.444 627.132, 746.444 627.132, 742.265 627.132, 742.265 617.132, 742.265 607.132, 742.265 597.132, 742.265 587.132, 742.265 577.132, 742.265 567.132, 742.265 557.132, 742.265 547.132, 742.265 537.132, 742.265 527.132, 742.265 517.132, 742.265 507.132, 742.265 497.132, 742.265 487.132, 742.265 477.132, 742.265 467.132, 742.265 457.132, 742.265 447.132, 742.265 437.132, 742.265 427.132, 742.265 417.132, 742.265 407.132, 742.265 397.132, 742.265 387.132, 742.265 377.132, 742.265 367.132, 742.265 356.233, 742.265 356.233, 752.265 356.233, 762.265 356.233, 772.265 356.233, 782.265 356.233, 792.265 356.233, 796.445 366.233, 796.445 376.233, 796.445 386.233, 796.445 396.233, 796.445 406.233, 796.445 416.233, 796.445 426.233, 796.445 436.233, 796.445 446.233, 796.445 456.233, 796.445 466.233, 796.445 476.233, 796.445 486.233, 796.445 496.233, 796.445 506.233, 796.445 516.233, 796.445 526.233, 796.445 536.233, 796.445 546.233, 796.445 556.233, 796.445 566.233, 796.445 576.233, 796.445 586.233, 796.445 596.233, 796.445 606.233, 796.445 616.233, 796.445 627.132, 796.445 627.132, 796.445 " />
            <path fill="none" stroke-width="1.5" stroke-linecap="round" stroke-opacity="1.0" stroke="rgb(0, 0, 0)" stroke-linejoin="round" d=" M 627.132, 742.265 627.132, 752.265 627.132, 762.265 627.132, 772.265 627.132, 782.265 627.132, 792.265 627.132, 796.445 " />
            <path fill="none" stroke-width="1.5" stroke-linecap="round" stroke-opacity="1.0" stroke="rgb(0, 0, 0)" stroke-linejoin="round" d=" M 356.233, 633.905 356.233, 643.905 356.233, 653.905 356.233, 660.995 356.233, 660.995 366.233, 660.995 376.233, 660.995 386.233, 660.995 396.233, 660.995 406.233, 660.995 416.233, 660.995 426.233, 660.995 436.233, 660.995 446.233, 660.995 456.233, 660.995 466.233, 660.995 476.233, 660.995 486.233, 660.995 496.233, 660.995 506.233, 660.995 516.233, 660.995 526.233, 660.995 536.233, 660.995 546.233, 660.995 556.233, 660.995 566.233, 660.995 576.233, 660.995 586.233, 660.995 596.233, 660.995 606.233, 660.995 616.233, 660.995 627.132, 660.995 627.132, 650.995 627.132, 640.995 627.132, 630.995 627.132, 620.995 627.132, 610.995 627.132, 606.815 627.132, 606.815 617.132, 606.815 607.132, 606.815 597.132, 606.815 587.132, 606.815 577.132, 606.815 567.132, 606.815 557.132, 606.815 547.132, 606.815 537.132, 606.815 527.132, 606.815 517.132, 606.815 507.132, 606.815 497.132, 606.815 487.132, 606.815 477.132, 606.815 467.132, 606.815 457.132, 606.815 447.132, 606.815 437.132, 606.815 427.132, 606.815 417.132, 606.815 407.132, 606.815 397.132, 606.815 387.132, 606.815 377.132, 606.815 367.132, 606.815 356.233, 606.815 " />
            <path fill="none" stroke-width="1.5" stroke-linecap="round" stroke-opacity="1.0" stroke="rgb(0, 0, 0)" stroke-linejoin="round" d=" M 627.132, 606.815 627.132, 616.815 627.132, 626.815 627.132, 636.815 627.132, 646.815 627.132, 656.815 627.132, 660.995 " />
            <path fill="none" stroke-width="1.5" stroke-linecap="round" stroke-opacity="1.0" stroke="rgb(0, 0, 0)" stroke-linejoin="round" d=" M 356.233, 660.995 366.233, 660.995 376.233, 660.995 386.233, 660.995 396.233, 660.995 406.233, 660.995 416.233, 660.995 426.233, 660.995 436.233, 660.995 446.233, 660.995 456.233, 660.995 466.233, 660.995 476.233, 660.995 486.233, 660.995 496.233, 660.995 506.233, 660.995 516.233, 660.995 526.233, 660.995 536.233, 660.995 546.233, 660.995 556.233, 660.995 566.233, 660.995 576.233, 660.995 586.233, 660.995 596.233, 660.995 606.233, 660.995 616.233, 660.995 627.132, 660.995 627.132, 660.995 " />
            <path fill="none" stroke-width="1.5" stroke-linecap="round" stroke-opacity="1.0" stroke="rgb(0, 0, 0)" stroke-linejoin="round" d=" M 356.233, 606.815 356.233, 616.815 356.233, 626.815 356.233, 633.905 " />
            <path fill="none" stroke-width="1.5" stroke-linecap="round" stroke-opacity="1.0" stroke="rgb(0, 0, 0)" stroke-linejoin="round" d=" M 356.233, 457.820 356.233, 447.820 356.233, 437.820 356.233, 427.820 356.233, 417.820 356.233, 407.820 356.233, 397.820 356.233, 387.820 356.233, 377.820 356.233, 367.820 356.233, 357.820 356.233, 347.820 356.233, 337.820 356.233, 327.820 356.233, 317.820 356.233, 307.820 356.233, 297.820 356.233, 287.820 356.233, 277.820 356.233, 267.820 356.233, 257.820 356.233, 247.820 356.233, 237.820 356.233, 227.556 356.233, 227.556 346.233, 227.556 336.233, 227.556 326.233, 227.556 316.233, 227.556 306.233, 227.556 302.053, 227.556 302.053, 227.556 302.053, 237.556 302.053, 247.556 302.053, 257.556 302.053, 267.556 302.053, 277.556 302.053, 287.556 302.053, 297.556 302.053, 307.556 302.053, 317.556 302.053, 327.556 302.053, 337.556 302.053, 347.556 302.053, 357.556 302.053, 367.556 302.053, 377.556 302.053, 387.556 302.053, 397.556 302.053, 407.556 302.053, 417.556 302.053, 427.556 302.053, 437.556 302.053, 447.556 302.053, 457.556 302.053, 467.556 302.053, 477.556 302.053, 487.556 302.053, 497.556 302.053, 507.556 302.053, 517.556 302.053, 527.556 302.053, 537.556 302.053, 547.556 302.053, 557.556 302.053, 567.556 302.053, 577.556 302.053, 587.556 302.053, 597.556 302.053, 607.556 302.053, 617.556 302.053, 627.556 302.053, 633.905 312.053, 633.905 322.053, 633.905 332.053, 633.905 342.053, 633.905 352.053, 633.905 356.233, 633.905 356.233, 633.905 " />
            <path fill="none" stroke-width="1.5" stroke-linecap="round" stroke-opacity="1.0" stroke="rgb(0, 0, 0)" stroke-linejoin="round" d=" M 356.233, 227.556 356.233, 237.556 356.233, 247.556 356.233, 257.556 356.233, 267.556 356.233, 277.556 356.233, 287.556 356.233, 297.556 356.233, 307.556 356.233, 317.556 356.233, 327.556 356.233, 337.556 356.233, 347.556 356.233, 357.556 356.233, 367.556 356.233, 377.556 356.233, 387.556 356.233, 397.556 356.233, 407.556 356.233, 417.556 356.233, 427.556 356.233, 437.556 356.233, 447.556 356.233, 457.556 356.233, 467.556 356.233, 477.556 356.233, 487.556 356.233, 497.556 356.233, 507.556 356.233, 517.556 356.233, 527.556 356.233, 537.556 356.233, 547.556 356.233, 557.556 356.233, 567.556 356.233, 577.556 356.233, 587.556 356.233, 597.556 356.233, 607.556 356.233, 617.556 356.233, 627.556 356.233, 633.905 " />
            <path fill="none" stroke-width="1.5" stroke-linecap="round" stroke-opacity="1.0" stroke="rgb(0, 0, 0)" stroke-linejoin="round" d=" M 627.132, 539.090 627.132, 529.090 627.132, 519.090 627.132, 509.090 627.132, 499.090 627.132, 489.090 627.132, 479.090 627.132, 469.090 627.132, 459.090 627.132, 457.820 627.132, 457.820 " />
            <path fill="none" stroke-width="1.5" stroke-linecap="round" stroke-opacity="1.0" stroke="rgb(0, 0, 0)" stroke-linejoin="round" d=" M 356.233, 539.090 356.233, 539.090 366.233, 539.090 376.233, 539.090 386.233, 539.090 396.233, 539.090 406.233, 539.090 416.233, 539.090 426.233, 539.090 436.233, 539.090 446.233, 539.090 456.233, 539.090 466.233, 539.090 476.233, 539.090 486.233, 539.090 496.233, 539.090 506.233, 539.090 516.233, 539.090 526.233, 539.090 536.233, 539.090 546.233, 539.090 556.233, 539.090 566.233, 539.090 576.233, 539.090 586.233, 539.090 596.233, 539.090 606.233, 539.090 616.233, 539.090 627.132, 539.090 " />
            <path fill="none" stroke-width="1.5" stroke-linecap="round" stroke-opacity="1.0" stroke="rgb(0, 0, 0)" stroke-linejoin="round" d=" M 356.233, 539.090 366.233, 539.090 376.233, 539.090 386.233, 539.090 396.233, 539.090 406.233, 539.090 416.233, 539.090 426.233, 539.090 436.233, 539.090 446.233, 539.090 456.233, 539.090 466.233, 539.090 476.233, 539.090 486.233, 539.090 496.233, 539.090 506.233, 539.090 516.233, 539.090 526.233, 539.090 536.233, 539.090 546.233, 539.090 556.233, 539.090 566.233, 539.090 576.233, 539.090 586.233, 539.090 596.233, 539.090 606.233, 539.090 616.233, 539.090 627.132, 539.090 627.132, 529.090 627.132, 519.090 627.132, 509.090 627.132, 499.090 627.132, 489.090 627.132, 479.090 627.132, 469.090 627.132, 459.090 627.132, 457.820 " />
            <path fill="none" stroke-width="1.5" stroke-linecap="round" stroke-opacity="1.0" stroke="rgb(0, 0, 0)" stroke-linejoin="round" d=" M 627.132, 457.820 627.132, 457.820 617.132, 457.820 607.132, 457.820 597.132, 457.820 587.132, 457.820 577.132, 457.820 567.132, 457.820 557.132, 457.820 547.132, 457.820 537.132, 457.820 527.132, 457.820 517.132, 457.820 507.132, 457.820 497.132, 457.820 487.132, 457.820 477.132, 457.820 467.132, 457.820 457.132, 457.820 447.132, 457.820 437.132, 457.820 427.132, 457.820 417.132, 457.820 407.132, 457.820 397.132, 457.820 387.132, 457.820 377.132, 457.820 367.132, 457.820 356.233, 457.820 " />
            <path fill="none" stroke-width="1.5" stroke-linecap="round" stroke-opacity="1.0" stroke="rgb(0, 0, 0)" stroke-linejoin="round" d=" M 356.233, 457.820 356.233, 467.820 356.233, 477.820 356.233, 487.820 356.233, 497.820 356.233, 507.820 356.233, 517.820 356.233, 527.820 356.233, 537.820 356.233, 539.090 " />
            <path fill="none" stroke-width="1.5" stroke-linecap="round" stroke-opacity="1.0" stroke="rgb(0, 0, 0)" stroke-linejoin="round" d=" M 586.497, 701.630 596.497, 701.630 606.497, 701.630 616.497, 701.630 626.497, 701.630 636.497, 701.630 646.497, 701.630 656.497, 701.630 666.497, 701.630 676.497, 701.630 686.497, 701.630 696.497, 701.630 706.497, 701.630 716.497, 701.630 721.947, 701.630 721.947, 701.630 721.947, 691.630 721.947, 681.630 721.947, 674.540 721.947, 674.540 711.947, 674.540 701.947, 674.540 691.947, 674.540 681.947, 674.540 671.947, 674.540 661.947, 674.540 651.947, 674.540 641.947, 674.540 631.947, 674.540 621.947, 674.540 611.947, 674.540 601.947, 674.540 591.947, 674.540 586.497, 674.540 586.497, 684.540 586.497, 694.540 586.497, 701.630 586.497, 701.630 " />
            <path fill="none" stroke-width="1.5" stroke-linecap="round" stroke-opacity="1.0" stroke="rgb(0, 0, 0)" stroke-linejoin="round" d=" M 586.497, 701.630 596.497, 701.630 606.497, 701.630 616.497, 701.630 626.497, 701.630 636.497, 701.630 646.497, 701.630 656.497, 701.630 666.497, 701.630 676.497, 701.630 686.497, 701.630 696.497, 701.630 706.497, 701.630 716.497, 701.630 721.947, 701.630 " />
            <path fill="none" stroke-width="1.5" stroke-linecap="round" stroke-opacity="1.0" stroke="rgb(0, 0, 0)" stroke-linejoin="round" d=" M 356.233, 606.815 356.233, 596.815 356.233, 586.815 356.233, 576.815 356.233, 566.815 356.233, 556.815 356.233, 546.815 356.233, 539.090 " />
            <path fill="none" stroke-width="1.5" stroke-linecap="round" stroke-opacity="1.0" stroke="rgb(0, 0, 0)" stroke-linejoin="round" d=" M 356.233, 539.090 356.233, 539.090 " />
        </g>
    </g>
</svg>
