<?xml version='1.0' encoding='ascii'?>
<svg xmlns="http://www.w3.org/2000/svg" xmlns:inkscape="http://www.inkscape.org/namespaces/inkscape" version="1.1" width="1024" height="1024">
    <g id="ViewLayer_LineSet" inkscape:groupmode="lineset" inkscape:label="ViewLayer_LineSet">
        <g inkscape:groupmode="layer" id="strokes" inkscape:label="strokes">
            <path fill="none" stroke-width="3.0" stroke-linecap="butt" stroke-opacity="1.0" stroke="rgb(0, 0, 0)" stroke-linejoin="round" d=" M 620.006, 603.805 620.006, 593.805 620.006, 583.805 620.006, 573.805 620.006, 563.805 620.006, 553.805 620.006, 543.805 620.006, 533.805 620.006, 523.805 620.006, 513.805 620.006, 503.805 620.006, 493.805 620.006, 483.805 620.006, 473.805 620.006, 463.805 620.006, 453.805 620.006, 443.805 620.006, 433.805 620.006, 423.805 620.006, 413.805 620.006, 403.805 620.006, 398.594 610.006, 398.594 600.006, 398.594 590.006, 398.594 580.006, 398.594 570.006, 398.594 560.006, 398.594 550.006, 398.594 540.006, 398.594 530.006, 398.594 520.006, 398.594 510.006, 398.594 500.006, 398.594 490.006, 398.594 480.006, 398.594 470.006, 398.594 460.006, 398.594 450.006, 398.594 440.006, 398.594 430.006, 398.594 420.006, 398.594 410.006, 398.594 403.994, 398.594 403.994, 408.594 403.994, 418.594 403.994, 428.594 403.994, 438.594 403.994, 448.594 403.994, 458.594 403.994, 468.594 403.994, 478.594 403.994, 488.594 403.994, 498.594 403.994, 508.594 403.994, 518.594 403.994, 528.594 403.994, 538.594 403.994, 548.594 403.994, 558.594 403.994, 568.594 403.994, 578.594 403.994, 588.594 403.994, 598.594 403.994, 603.805 " />
            <path fill="none" stroke-width="3.0" stroke-linecap="butt" stroke-opacity="1.0" stroke="rgb(0, 0, 0)" stroke-linejoin="round" d=" M 403.994, 603.805 403.994, 613.805 403.994, 623.805 403.994, 625.406 413.994, 625.406 423.994, 625.406 433.994, 625.406 443.994, 625.406 453.994, 625.406 463.994, 625.406 473.994, 625.406 483.994, 625.406 493.994, 625.406 503.994, 625.406 513.994, 625.406 523.994, 625.406 533.994, 625.406 543.994, 625.406 553.994, 625.406 563.994, 625.406 573.994, 625.406 583.994, 625.406 593.994, 625.406 603.994, 625.406 613.994, 625.406 620.006, 625.406 620.006, 615.406 620.006, 605.406 620.006, 603.805 " />
            <path fill="none" stroke-width="3.0" stroke-linecap="butt" stroke-opacity="1.0" stroke="rgb(0, 0, 0)" stroke-linejoin="round" d=" M 620.006, 603.805 610.006, 603.805 600.006, 603.805 590.006, 603.805 580.006, 603.805 570.006, 603.805 560.006, 603.805 550.006, 603.805 540.006, 603.805 530.006, 603.805 520.006, 603.805 510.006, 603.805 500.006, 603.805 490.006, 603.805 480.006, 603.805 470.006, 603.805 460.006, 603.805 450.006, 603.805 440.006, 603.805 430.006, 603.805 420.006, 603.805 410.006, 603.805 403.994, 603.805 " />
        </g>
    </g>
    <g id="ViewLayer_TechnicalLines" inkscape:groupmode="lineset" inkscape:label="ViewLayer_TechnicalLines">
        <g inkscape:groupmode="layer" id="strokes" inkscape:label="strokes">
            <path fill="none" stroke-width="3.0" stroke-linecap="butt" stroke-opacity="1.0" stroke="rgb(0, 0, 0)" stroke-linejoin="round" d=" M 620.006, 603.805 620.006, 593.805 620.006, 583.805 620.006, 573.805 620.006, 563.805 620.006, 553.805 620.006, 543.805 620.006, 533.805 620.006, 523.805 620.006, 513.805 620.006, 503.805 620.006, 493.805 620.006, 483.805 620.006, 473.805 620.006, 463.805 620.006, 453.805 620.006, 443.805 620.006, 433.805 620.006, 423.805 620.006, 413.805 620.006, 403.805 620.006, 398.594 610.006, 398.594 600.006, 398.594 590.006, 398.594 580.006, 398.594 570.006, 398.594 560.006, 398.594 550.006, 398.594 540.006, 398.594 530.006, 398.594 520.006, 398.594 510.006, 398.594 500.006, 398.594 490.006, 398.594 480.006, 398.594 470.006, 398.594 460.006, 398.594 450.006, 398.594 440.006, 398.594 430.006, 398.594 420.006, 398.594 410.006, 398.594 403.994, 398.594 403.994, 408.594 403.994, 418.594 403.994, 428.594 403.994, 438.594 403.994, 448.594 403.994, 458.594 403.994, 468.594 403.994, 478.594 403.994, 488.594 403.994, 498.594 403.994, 508.594 403.994, 518.594 403.994, 528.594 403.994, 538.594 403.994, 548.594 403.994, 558.594 403.994, 568.594 403.994, 578.594 403.994, 588.594 403.994, 598.594 403.994, 603.805 " />
            <path fill="none" stroke-width="3.0" stroke-linecap="butt" stroke-opacity="1.0" stroke="rgb(0, 0, 0)" stroke-linejoin="round" d=" M 403.994, 603.805 403.994, 613.805 403.994, 623.805 403.994, 625.406 413.994, 625.406 423.994, 625.406 433.994, 625.406 443.994, 625.406 453.994, 625.406 463.994, 625.406 473.994, 625.406 483.994, 625.406 493.994, 625.406 503.994, 625.406 513.994, 625.406 523.994, 625.406 533.994, 625.406 543.994, 625.406 553.994, 625.406 563.994, 625.406 573.994, 625.406 583.994, 625.406 593.994, 625.406 603.994, 625.406 613.994, 625.406 620.006, 625.406 620.006, 615.406 620.006, 605.406 620.006, 603.805 " />
            <path fill="none" stroke-width="3.0" stroke-linecap="butt" stroke-opacity="1.0" stroke="rgb(0, 0, 0)" stroke-linejoin="round" d=" M 620.006, 603.805 610.006, 603.805 600.006, 603.805 590.006, 603.805 580.006, 603.805 570.006, 603.805 560.006, 603.805 550.006, 603.805 540.006, 603.805 530.006, 603.805 520.006, 603.805 510.006, 603.805 500.006, 603.805 490.006, 603.805 480.006, 603.805 470.006, 603.805 460.006, 603.805 450.006, 603.805 440.006, 603.805 430.006, 603.805 420.006, 603.805 410.006, 603.805 403.994, 603.805 " />
        </g>
    </g>
    <g id="ViewLayer_TechnicalLines.001" inkscape:groupmode="lineset" inkscape:label="ViewLayer_TechnicalLines.001">
        <g inkscape:groupmode="layer" id="strokes" inkscape:label="strokes">
            <path fill="none" stroke-width="1.5" stroke-linecap="round" stroke-opacity="1.0" stroke="rgb(0, 0, 0)" stroke-linejoin="round" d=" M 620.006, 603.805 620.006, 593.805 620.006, 583.805 620.006, 573.805 620.006, 563.805 620.006, 553.805 620.006, 543.805 620.006, 533.805 620.006, 523.805 620.006, 513.805 620.006, 503.805 620.006, 493.805 620.006, 483.805 620.006, 473.805 620.006, 463.805 620.006, 453.805 620.006, 443.805 620.006, 433.805 620.006, 423.805 620.006, 413.805 620.006, 403.805 620.006, 398.594 610.006, 398.594 600.006, 398.594 590.006, 398.594 580.006, 398.594 570.006, 398.594 560.006, 398.594 550.006, 398.594 540.006, 398.594 530.006, 398.594 520.006, 398.594 510.006, 398.594 500.006, 398.594 490.006, 398.594 480.006, 398.594 470.006, 398.594 460.006, 398.594 450.006, 398.594 440.006, 398.594 430.006, 398.594 420.006, 398.594 410.006, 398.594 403.994, 398.594 403.994, 408.594 403.994, 418.594 403.994, 428.594 403.994, 438.594 403.994, 448.594 403.994, 458.594 403.994, 468.594 403.994, 478.594 403.994, 488.594 403.994, 498.594 403.994, 508.594 403.994, 518.594 403.994, 528.594 403.994, 538.594 403.994, 548.594 403.994, 558.594 403.994, 568.594 403.994, 578.594 403.994, 588.594 403.994, 598.594 403.994, 603.805 " />
            <path fill="none" stroke-width="1.5" stroke-linecap="round" stroke-opacity="1.0" stroke="rgb(0, 0, 0)" stroke-linejoin="round" d=" M 403.994, 603.805 403.994, 613.805 403.994, 623.805 403.994, 625.406 413.994, 625.406 423.994, 625.406 433.994, 625.406 443.994, 625.406 453.994, 625.406 463.994, 625.406 473.994, 625.406 483.994, 625.406 493.994, 625.406 503.994, 625.406 513.994, 625.406 523.994, 625.406 533.994, 625.406 543.994, 625.406 553.994, 625.406 563.994, 625.406 573.994, 625.406 583.994, 625.406 593.994, 625.406 603.994, 625.406 613.994, 625.406 620.006, 625.406 620.006, 615.406 620.006, 605.406 620.006, 603.805 " />
            <path fill="none" stroke-width="1.5" stroke-linecap="round" stroke-opacity="1.0" stroke="rgb(0, 0, 0)" stroke-linejoin="round" d=" M 620.006, 603.805 610.006, 603.805 600.006, 603.805 590.006, 603.805 580.006, 603.805 570.006, 603.805 560.006, 603.805 550.006, 603.805 540.006, 603.805 530.006, 603.805 520.006, 603.805 510.006, 603.805 500.006, 603.805 490.006, 603.805 480.006, 603.805 470.006, 603.805 460.006, 603.805 450.006, 603.805 440.006, 603.805 430.006, 603.805 420.006, 603.805 410.006, 603.805 403.994, 603.805 " />
        </g>
    </g>
    <g id="ViewLayer_TechnicalLines.002" inkscape:groupmode="lineset" inkscape:label="ViewLayer_TechnicalLines.002">
        <g inkscape:groupmode="layer" id="strokes" inkscape:label="strokes">
            <path fill="none" stroke-width="1.5" stroke-linecap="round" stroke-opacity="1.0" stroke="rgb(0, 0, 0)" stroke-linejoin="round" d=" M 620.006, 603.805 620.006, 593.805 620.006, 583.805 620.006, 573.805 620.006, 563.805 620.006, 553.805 620.006, 543.805 620.006, 533.805 620.006, 523.805 620.006, 513.805 620.006, 503.805 620.006, 493.805 620.006, 483.805 620.006, 473.805 620.006, 463.805 620.006, 453.805 620.006, 443.805 620.006, 433.805 620.006, 423.805 620.006, 413.805 620.006, 403.805 620.006, 398.594 610.006, 398.594 600.006, 398.594 590.006, 398.594 580.006, 398.594 570.006, 398.594 560.006, 398.594 550.006, 398.594 540.006, 398.594 530.006, 398.594 520.006, 398.594 510.006, 398.594 500.006, 398.594 490.006, 398.594 480.006, 398.594 470.006, 398.594 460.006, 398.594 450.006, 398.594 440.006, 398.594 430.006, 398.594 420.006, 398.594 410.006, 398.594 403.994, 398.594 403.994, 408.594 403.994, 418.594 403.994, 428.594 403.994, 438.594 403.994, 448.594 403.994, 458.594 403.994, 468.594 403.994, 478.594 403.994, 488.594 403.994, 498.594 403.994, 508.594 403.994, 518.594 403.994, 528.594 403.994, 538.594 403.994, 548.594 403.994, 558.594 403.994, 568.594 403.994, 578.594 403.994, 588.594 403.994, 598.594 403.994, 603.805 " />
            <path fill="none" stroke-width="1.5" stroke-linecap="round" stroke-opacity="1.0" stroke="rgb(0, 0, 0)" stroke-linejoin="round" d=" M 403.994, 603.805 403.994, 613.805 403.994, 623.805 403.994, 625.406 413.994, 625.406 423.994, 625.406 433.994, 625.406 443.994, 625.406 453.994, 625.406 463.994, 625.406 473.994, 625.406 483.994, 625.406 493.994, 625.406 503.994, 625.406 513.994, 625.406 523.994, 625.406 533.994, 625.406 543.994, 625.406 553.994, 625.406 563.994, 625.406 573.994, 625.406 583.994, 625.406 593.994, 625.406 603.994, 625.406 613.994, 625.406 620.006, 625.406 620.006, 615.406 620.006, 605.406 620.006, 603.805 " />
            <path fill="none" stroke-width="1.5" stroke-linecap="round" stroke-opacity="1.0" stroke="rgb(0, 0, 0)" stroke-linejoin="round" d=" M 620.006, 603.805 610.006, 603.805 600.006, 603.805 590.006, 603.805 580.006, 603.805 570.006, 603.805 560.006, 603.805 550.006, 603.805 540.006, 603.805 530.006, 603.805 520.006, 603.805 510.006, 603.805 500.006, 603.805 490.006, 603.805 480.006, 603.805 470.006, 603.805 460.006, 603.805 450.006, 603.805 440.006, 603.805 430.006, 603.805 420.006, 603.805 410.006, 603.805 403.994, 603.805 " />
        </g>
    </g>
    <g id="ViewLayer_TechnicalLines.003" inkscape:groupmode="lineset" inkscape:label="ViewLayer_TechnicalLines.003">
        <g inkscape:groupmode="layer" id="strokes" inkscape:label="strokes">
            <path fill="none" stroke-width="1.5" stroke-linecap="round" stroke-opacity="1.0" stroke="rgb(0, 0, 0)" stroke-linejoin="round" d=" M 620.006, 603.805 620.006, 593.805 620.006, 583.805 620.006, 573.805 620.006, 563.805 620.006, 553.805 620.006, 543.805 620.006, 533.805 620.006, 523.805 620.006, 513.805 620.006, 503.805 620.006, 493.805 620.006, 483.805 620.006, 473.805 620.006, 463.805 620.006, 453.805 620.006, 443.805 620.006, 433.805 620.006, 423.805 620.006, 413.805 620.006, 403.805 620.006, 398.594 610.006, 398.594 600.006, 398.594 590.006, 398.594 580.006, 398.594 570.006, 398.594 560.006, 398.594 550.006, 398.594 540.006, 398.594 530.006, 398.594 520.006, 398.594 510.006, 398.594 500.006, 398.594 490.006, 398.594 480.006, 398.594 470.006, 398.594 460.006, 398.594 450.006, 398.594 440.006, 398.594 430.006, 398.594 420.006, 398.594 410.006, 398.594 403.994, 398.594 403.994, 408.594 403.994, 418.594 403.994, 428.594 403.994, 438.594 403.994, 448.594 403.994, 458.594 403.994, 468.594 403.994, 478.594 403.994, 488.594 403.994, 498.594 403.994, 508.594 403.994, 518.594 403.994, 528.594 403.994, 538.594 403.994, 548.594 403.994, 558.594 403.994, 568.594 403.994, 578.594 403.994, 588.594 403.994, 598.594 403.994, 603.805 " />
            <path fill="none" stroke-width="1.5" stroke-linecap="round" stroke-opacity="1.0" stroke="rgb(0, 0, 0)" stroke-linejoin="round" d=" M 403.994, 603.805 403.994, 613.805 403.994, 623.805 403.994, 625.406 413.994, 625.406 423.994, 625.406 433.994, 625.406 443.994, 625.406 453.994, 625.406 463.994, 625.406 473.994, 625.406 483.994, 625.406 493.994, 625.406 503.994, 625.406 513.994, 625.406 523.994, 625.406 533.994, 625.406 543.994, 625.406 553.994, 625.406 563.994, 625.406 573.994, 625.406 583.994, 625.406 593.994, 625.406 603.994, 625.406 613.994, 625.406 620.006, 625.406 620.006, 615.406 620.006, 605.406 620.006, 603.805 " />
            <path fill="none" stroke-width="1.5" stroke-linecap="round" stroke-opacity="1.0" stroke="rgb(0, 0, 0)" stroke-linejoin="round" d=" M 620.006, 603.805 610.006, 603.805 600.006, 603.805 590.006, 603.805 580.006, 603.805 570.006, 603.805 560.006, 603.805 550.006, 603.805 540.006, 603.805 530.006, 603.805 520.006, 603.805 510.006, 603.805 500.006, 603.805 490.006, 603.805 480.006, 603.805 470.006, 603.805 460.006, 603.805 450.006, 603.805 440.006, 603.805 430.006, 603.805 420.006, 603.805 410.006, 603.805 403.994, 603.805 " />
        </g>
    </g>
    <g id="ViewLayer_TechnicalLines.004" xmlns:inkscape="http://www.inkscape.org/namespaces/inkscape" inkscape:groupmode="lineset" inkscape:label="ViewLayer_TechnicalLines.004">
        <g xmlns:inkscape="http://www.inkscape.org/namespaces/inkscape" inkscape:groupmode="layer" id="strokes" inkscape:label="strokes">
            <path fill="none" stroke-width="1.5" stroke-linecap="round" stroke-opacity="1.0" stroke="rgb(0, 0, 0)" stroke-linejoin="round" d=" M 620.006, 603.805 620.006, 593.805 620.006, 583.805 620.006, 573.805 620.006, 563.805 620.006, 553.805 620.006, 543.805 620.006, 533.805 620.006, 523.805 620.006, 513.805 620.006, 503.805 620.006, 493.805 620.006, 483.805 620.006, 473.805 620.006, 463.805 620.006, 453.805 620.006, 443.805 620.006, 433.805 620.006, 423.805 620.006, 413.805 620.006, 403.805 620.006, 398.594 610.006, 398.594 600.006, 398.594 590.006, 398.594 580.006, 398.594 570.006, 398.594 560.006, 398.594 550.006, 398.594 540.006, 398.594 530.006, 398.594 520.006, 398.594 510.006, 398.594 500.006, 398.594 490.006, 398.594 480.006, 398.594 470.006, 398.594 460.006, 398.594 450.006, 398.594 440.006, 398.594 430.006, 398.594 420.006, 398.594 410.006, 398.594 403.994, 398.594 403.994, 408.594 403.994, 418.594 403.994, 428.594 403.994, 438.594 403.994, 448.594 403.994, 458.594 403.994, 468.594 403.994, 478.594 403.994, 488.594 403.994, 498.594 403.994, 508.594 403.994, 518.594 403.994, 528.594 403.994, 538.594 403.994, 548.594 403.994, 558.594 403.994, 568.594 403.994, 578.594 403.994, 588.594 403.994, 598.594 403.994, 603.805 " />
            <path fill="none" stroke-width="1.5" stroke-linecap="round" stroke-opacity="1.0" stroke="rgb(0, 0, 0)" stroke-linejoin="round" d=" M 403.994, 603.805 403.994, 613.805 403.994, 623.805 403.994, 625.406 413.994, 625.406 423.994, 625.406 433.994, 625.406 443.994, 625.406 453.994, 625.406 463.994, 625.406 473.994, 625.406 483.994, 625.406 493.994, 625.406 503.994, 625.406 513.994, 625.406 523.994, 625.406 533.994, 625.406 543.994, 625.406 553.994, 625.406 563.994, 625.406 573.994, 625.406 583.994, 625.406 593.994, 625.406 603.994, 625.406 613.994, 625.406 620.006, 625.406 620.006, 615.406 620.006, 605.406 620.006, 603.805 " />
            <path fill="none" stroke-width="1.5" stroke-linecap="round" stroke-opacity="1.0" stroke="rgb(0, 0, 0)" stroke-linejoin="round" d=" M 620.006, 603.805 610.006, 603.805 600.006, 603.805 590.006, 603.805 580.006, 603.805 570.006, 603.805 560.006, 603.805 550.006, 603.805 540.006, 603.805 530.006, 603.805 520.006, 603.805 510.006, 603.805 500.006, 603.805 490.006, 603.805 480.006, 603.805 470.006, 603.805 460.006, 603.805 450.006, 603.805 440.006, 603.805 430.006, 603.805 420.006, 603.805 410.006, 603.805 403.994, 603.805 " />
        </g>
    </g>
</svg>
