<?xml version='1.0' encoding='ascii'?>
<svg xmlns="http://www.w3.org/2000/svg" xmlns:inkscape="http://www.inkscape.org/namespaces/inkscape" version="1.1" width="1024" height="1024">
    <g id="ViewLayer_LineSet" inkscape:groupmode="lineset" inkscape:label="ViewLayer_LineSet">
        <g inkscape:groupmode="layer" id="strokes" inkscape:label="strokes">
            <path fill="none" stroke-width="3.0" stroke-linecap="butt" stroke-opacity="1.0" stroke="rgb(0, 0, 0)" stroke-linejoin="round" d=" M 247.517, 656.717 247.517, 666.717 247.517, 676.678 247.517, 676.678 257.517, 676.678 267.517, 676.678 277.517, 676.678 287.517, 676.678 297.517, 676.678 307.517, 676.678 317.517, 676.678 327.517, 676.678 337.517, 676.678 347.517, 676.678 357.517, 676.678 367.517, 676.678 377.517, 676.678 387.517, 676.678 397.517, 676.678 407.517, 676.678 417.517, 676.678 427.517, 676.678 437.517, 676.678 447.517, 676.678 457.517, 676.678 467.517, 676.678 477.517, 676.678 487.517, 676.678 497.517, 676.678 507.517, 676.678 517.517, 676.678 527.517, 676.678 537.517, 676.678 546.932, 676.678 546.932, 676.678 546.932, 666.678 546.932, 656.717 " />
            <path fill="none" stroke-width="3.0" stroke-linecap="butt" stroke-opacity="1.0" stroke="rgb(0, 0, 0)" stroke-linejoin="round" d=" M 546.932, 656.717 546.932, 646.717 546.932, 636.756 546.932, 636.756 " />
            <path fill="none" stroke-width="3.0" stroke-linecap="butt" stroke-opacity="1.0" stroke="rgb(0, 0, 0)" stroke-linejoin="round" d=" M 247.517, 676.678 257.517, 676.678 267.517, 676.678 277.517, 676.678 287.517, 676.678 297.517, 676.678 307.517, 676.678 317.517, 676.678 327.517, 676.678 337.517, 676.678 347.517, 676.678 357.517, 676.678 367.517, 676.678 377.517, 676.678 387.517, 676.678 397.517, 676.678 407.517, 676.678 417.517, 676.678 427.517, 676.678 437.517, 676.678 447.517, 676.678 457.517, 676.678 467.517, 676.678 477.517, 676.678 487.517, 676.678 497.517, 676.678 507.517, 676.678 517.517, 676.678 527.517, 676.678 537.517, 676.678 546.932, 676.678 " />
            <path fill="none" stroke-width="3.0" stroke-linecap="butt" stroke-opacity="1.0" stroke="rgb(0, 0, 0)" stroke-linejoin="round" d=" M 267.478, 556.912 267.478, 546.912 267.478, 536.912 267.478, 526.912 267.478, 516.912 267.478, 506.912 267.478, 496.912 267.478, 486.912 267.478, 476.912 267.478, 466.912 267.478, 456.912 267.478, 446.912 267.478, 436.912 267.478, 426.912 267.478, 416.912 267.478, 406.912 267.478, 396.912 267.478, 386.912 267.478, 376.912 267.478, 366.912 267.478, 356.912 267.478, 346.912 267.478, 336.912 267.478, 326.912 267.478, 316.912 267.478, 307.400 257.478, 307.400 247.478, 307.400 237.478, 307.400 227.556, 307.400 227.556, 317.400 227.556, 327.400 227.556, 337.400 227.556, 347.400 227.556, 357.400 227.556, 367.400 227.556, 377.400 227.556, 387.400 227.556, 397.400 227.556, 407.400 227.556, 417.400 227.556, 427.400 227.556, 437.400 227.556, 447.400 227.556, 457.400 227.556, 467.400 227.556, 477.400 227.556, 487.400 227.556, 497.400 227.556, 507.400 227.556, 517.400 227.556, 527.400 227.556, 537.400 227.556, 547.400 227.556, 557.400 227.556, 567.400 227.556, 577.400 227.556, 587.400 227.556, 597.400 227.556, 606.815 237.536, 606.815 237.540, 606.815 " />
            <path fill="none" stroke-width="3.0" stroke-linecap="butt" stroke-opacity="1.0" stroke="rgb(0, 0, 0)" stroke-linejoin="round" d=" M 596.834, 716.600 606.834, 716.600 616.834, 716.600 626.834, 716.600 636.834, 716.600 646.834, 716.600 656.834, 716.600 666.834, 716.600 676.834, 716.600 686.834, 716.600 696.834, 716.600 706.834, 716.600 716.834, 716.600 726.834, 716.600 736.834, 716.600 746.834, 716.600 756.834, 716.600 766.834, 716.600 776.834, 716.600 786.834, 716.600 796.444, 716.600 796.444, 716.600 796.444, 706.600 796.444, 696.639 786.444, 696.639 776.444, 696.639 766.444, 696.639 756.444, 696.639 746.444, 696.639 736.444, 696.639 726.444, 696.639 716.444, 696.639 706.444, 696.639 696.444, 696.639 686.444, 696.639 676.444, 696.639 666.444, 696.639 656.444, 696.639 646.444, 696.639 636.444, 696.639 626.444, 696.639 616.444, 696.639 606.444, 696.639 596.834, 696.639 596.834, 706.639 596.834, 716.600 596.834, 716.600 " />
            <path fill="none" stroke-width="3.0" stroke-linecap="butt" stroke-opacity="1.0" stroke="rgb(0, 0, 0)" stroke-linejoin="round" d=" M 596.834, 716.600 606.834, 716.600 616.834, 716.600 626.834, 716.600 636.834, 716.600 646.834, 716.600 656.834, 716.600 666.834, 716.600 676.834, 716.600 686.834, 716.600 696.834, 716.600 706.834, 716.600 716.834, 716.600 726.834, 716.600 736.834, 716.600 746.834, 716.600 756.834, 716.600 766.834, 716.600 776.834, 716.600 786.834, 716.600 796.444, 716.600 " />
            <path fill="none" stroke-width="3.0" stroke-linecap="butt" stroke-opacity="1.0" stroke="rgb(0, 0, 0)" stroke-linejoin="round" d=" M 546.932, 656.717 546.932, 656.717 546.932, 646.717 546.932, 636.717 546.932, 626.717 546.932, 616.717 546.932, 606.717 546.932, 596.717 546.932, 586.717 546.932, 576.717 546.932, 566.717 546.932, 556.912 546.932, 556.912 " />
            <path fill="none" stroke-width="3.0" stroke-linecap="butt" stroke-opacity="1.0" stroke="rgb(0, 0, 0)" stroke-linejoin="round" d=" M 247.517, 656.717 257.517, 656.717 267.517, 656.717 277.517, 656.717 287.517, 656.717 297.517, 656.717 307.517, 656.717 317.517, 656.717 327.517, 656.717 337.517, 656.717 347.517, 656.717 357.517, 656.717 367.517, 656.717 377.517, 656.717 387.517, 656.717 397.517, 656.717 407.517, 656.717 417.517, 656.717 427.517, 656.717 437.517, 656.717 447.517, 656.717 457.517, 656.717 467.517, 656.717 477.517, 656.717 487.517, 656.717 497.517, 656.717 507.517, 656.717 517.517, 656.717 527.517, 656.717 537.517, 656.717 546.932, 656.717 546.932, 646.717 546.932, 636.756 546.932, 636.756 546.932, 626.756 546.932, 616.756 546.932, 606.756 546.932, 596.756 546.932, 586.756 546.932, 576.756 546.932, 566.756 546.932, 556.912 " />
            <path fill="none" stroke-width="3.0" stroke-linecap="butt" stroke-opacity="1.0" stroke="rgb(0, 0, 0)" stroke-linejoin="round" d=" M 247.517, 596.795 249.464, 596.986 251.336, 597.554 253.061, 598.477 254.574, 599.718 255.815, 601.230 256.737, 602.956 257.305, 604.828 257.497, 606.775 257.493, 606.815 257.305, 608.722 256.737, 610.594 255.815, 612.320 254.574, 613.832 253.061, 615.074 251.336, 615.996 249.464, 616.564 247.517, 616.756 247.517, 616.756 " />
            <path fill="none" stroke-width="3.0" stroke-linecap="butt" stroke-opacity="1.0" stroke="rgb(0, 0, 0)" stroke-linejoin="round" d=" M 237.536, 606.815 237.536, 606.855 237.728, 608.802 238.296, 610.674 239.218, 612.399 240.459, 613.912 241.972, 615.153 243.697, 616.075 245.570, 616.643 247.517, 616.835 " />
            <path fill="none" stroke-width="3.0" stroke-linecap="butt" stroke-opacity="1.0" stroke="rgb(0, 0, 0)" stroke-linejoin="round" d=" M 247.517, 616.756 245.570, 616.564 243.697, 615.996 241.972, 615.074 240.459, 613.832 239.218, 612.320 238.296, 610.594 237.728, 608.722 237.540, 606.815 237.536, 606.775 237.728, 604.828 238.296, 602.956 239.218, 601.230 240.459, 599.718 241.972, 598.477 243.697, 597.554 245.570, 596.986 247.517, 596.795 " />
            <path fill="none" stroke-width="3.0" stroke-linecap="butt" stroke-opacity="1.0" stroke="rgb(0, 0, 0)" stroke-linejoin="round" d=" M 237.536, 606.775 237.536, 606.815 " />
            <path fill="none" stroke-width="3.0" stroke-linecap="butt" stroke-opacity="1.0" stroke="rgb(0, 0, 0)" stroke-linejoin="round" d=" M 237.540, 606.815 237.536, 606.855 " />
            <path fill="none" stroke-width="3.0" stroke-linecap="butt" stroke-opacity="1.0" stroke="rgb(0, 0, 0)" stroke-linejoin="round" d=" M 247.517, 616.835 247.517, 626.835 247.517, 636.756 247.517, 636.756 247.517, 646.756 247.517, 656.717 " />
            <path fill="none" stroke-width="3.0" stroke-linecap="butt" stroke-opacity="1.0" stroke="rgb(0, 0, 0)" stroke-linejoin="round" d=" M 247.517, 556.912 247.517, 566.912 247.517, 576.912 247.517, 586.912 247.517, 596.795 " />
            <path fill="none" stroke-width="3.0" stroke-linecap="butt" stroke-opacity="1.0" stroke="rgb(0, 0, 0)" stroke-linejoin="round" d=" M 247.517, 596.795 247.517, 596.795 " />
            <path fill="none" stroke-width="3.0" stroke-linecap="butt" stroke-opacity="1.0" stroke="rgb(0, 0, 0)" stroke-linejoin="round" d=" M 257.497, 606.815 257.497, 606.775 " />
            <path fill="none" stroke-width="3.0" stroke-linecap="butt" stroke-opacity="1.0" stroke="rgb(0, 0, 0)" stroke-linejoin="round" d=" M 247.517, 656.717 247.517, 656.717 " />
            <path fill="none" stroke-width="3.0" stroke-linecap="butt" stroke-opacity="1.0" stroke="rgb(0, 0, 0)" stroke-linejoin="round" d=" M 546.932, 556.912 546.932, 556.912 " />
            <path fill="none" stroke-width="3.0" stroke-linecap="butt" stroke-opacity="1.0" stroke="rgb(0, 0, 0)" stroke-linejoin="round" d=" M 267.478, 556.912 257.478, 556.912 247.517, 556.912 " />
            <path fill="none" stroke-width="3.0" stroke-linecap="butt" stroke-opacity="1.0" stroke="rgb(0, 0, 0)" stroke-linejoin="round" d=" M 546.932, 556.912 536.932, 556.912 526.932, 556.912 516.932, 556.912 506.932, 556.912 496.932, 556.912 486.932, 556.912 476.932, 556.912 466.932, 556.912 456.932, 556.912 446.932, 556.912 436.932, 556.912 426.932, 556.912 416.932, 556.912 406.932, 556.912 396.932, 556.912 386.932, 556.912 376.932, 556.912 366.932, 556.912 356.932, 556.912 346.932, 556.912 336.932, 556.912 326.932, 556.912 316.932, 556.912 306.932, 556.912 296.932, 556.912 286.932, 556.912 276.932, 556.912 267.478, 556.912 " />
        </g>
    </g>
    <g id="ViewLayer_TechnicalLines" inkscape:groupmode="lineset" inkscape:label="ViewLayer_TechnicalLines">
        <g inkscape:groupmode="layer" id="strokes" inkscape:label="strokes">
            <path fill="none" stroke-width="3.0" stroke-linecap="butt" stroke-opacity="1.0" stroke="rgb(0, 0, 0)" stroke-linejoin="round" d=" M 247.517, 656.717 247.517, 666.717 247.517, 676.678 247.517, 676.678 257.517, 676.678 267.517, 676.678 277.517, 676.678 287.517, 676.678 297.517, 676.678 307.517, 676.678 317.517, 676.678 327.517, 676.678 337.517, 676.678 347.517, 676.678 357.517, 676.678 367.517, 676.678 377.517, 676.678 387.517, 676.678 397.517, 676.678 407.517, 676.678 417.517, 676.678 427.517, 676.678 437.517, 676.678 447.517, 676.678 457.517, 676.678 467.517, 676.678 477.517, 676.678 487.517, 676.678 497.517, 676.678 507.517, 676.678 517.517, 676.678 527.517, 676.678 537.517, 676.678 546.932, 676.678 546.932, 676.678 546.932, 666.678 546.932, 656.717 " />
            <path fill="none" stroke-width="3.0" stroke-linecap="butt" stroke-opacity="1.0" stroke="rgb(0, 0, 0)" stroke-linejoin="round" d=" M 546.932, 656.717 546.932, 646.717 546.932, 636.756 546.932, 636.756 " />
            <path fill="none" stroke-width="3.0" stroke-linecap="butt" stroke-opacity="1.0" stroke="rgb(0, 0, 0)" stroke-linejoin="round" d=" M 247.517, 676.678 257.517, 676.678 267.517, 676.678 277.517, 676.678 287.517, 676.678 297.517, 676.678 307.517, 676.678 317.517, 676.678 327.517, 676.678 337.517, 676.678 347.517, 676.678 357.517, 676.678 367.517, 676.678 377.517, 676.678 387.517, 676.678 397.517, 676.678 407.517, 676.678 417.517, 676.678 427.517, 676.678 437.517, 676.678 447.517, 676.678 457.517, 676.678 467.517, 676.678 477.517, 676.678 487.517, 676.678 497.517, 676.678 507.517, 676.678 517.517, 676.678 527.517, 676.678 537.517, 676.678 546.932, 676.678 " />
            <path fill="none" stroke-width="3.0" stroke-linecap="butt" stroke-opacity="1.0" stroke="rgb(0, 0, 0)" stroke-linejoin="round" d=" M 267.478, 556.912 267.478, 546.912 267.478, 536.912 267.478, 526.912 267.478, 516.912 267.478, 506.912 267.478, 496.912 267.478, 486.912 267.478, 476.912 267.478, 466.912 267.478, 456.912 267.478, 446.912 267.478, 436.912 267.478, 426.912 267.478, 416.912 267.478, 406.912 267.478, 396.912 267.478, 386.912 267.478, 376.912 267.478, 366.912 267.478, 356.912 267.478, 346.912 267.478, 336.912 267.478, 326.912 267.478, 316.912 267.478, 307.400 257.478, 307.400 247.478, 307.400 237.478, 307.400 227.556, 307.400 227.556, 317.400 227.556, 327.400 227.556, 337.400 227.556, 347.400 227.556, 357.400 227.556, 367.400 227.556, 377.400 227.556, 387.400 227.556, 397.400 227.556, 407.400 227.556, 417.400 227.556, 427.400 227.556, 437.400 227.556, 447.400 227.556, 457.400 227.556, 467.400 227.556, 477.400 227.556, 487.400 227.556, 497.400 227.556, 507.400 227.556, 517.400 227.556, 527.400 227.556, 537.400 227.556, 547.400 227.556, 557.400 227.556, 567.400 227.556, 577.400 227.556, 587.400 227.556, 597.400 227.556, 606.815 237.536, 606.815 237.540, 606.815 " />
            <path fill="none" stroke-width="3.0" stroke-linecap="butt" stroke-opacity="1.0" stroke="rgb(0, 0, 0)" stroke-linejoin="round" d=" M 596.834, 716.600 606.834, 716.600 616.834, 716.600 626.834, 716.600 636.834, 716.600 646.834, 716.600 656.834, 716.600 666.834, 716.600 676.834, 716.600 686.834, 716.600 696.834, 716.600 706.834, 716.600 716.834, 716.600 726.834, 716.600 736.834, 716.600 746.834, 716.600 756.834, 716.600 766.834, 716.600 776.834, 716.600 786.834, 716.600 796.444, 716.600 796.444, 716.600 796.444, 706.600 796.444, 696.639 786.444, 696.639 776.444, 696.639 766.444, 696.639 756.444, 696.639 746.444, 696.639 736.444, 696.639 726.444, 696.639 716.444, 696.639 706.444, 696.639 696.444, 696.639 686.444, 696.639 676.444, 696.639 666.444, 696.639 656.444, 696.639 646.444, 696.639 636.444, 696.639 626.444, 696.639 616.444, 696.639 606.444, 696.639 596.834, 696.639 596.834, 706.639 596.834, 716.600 596.834, 716.600 " />
            <path fill="none" stroke-width="3.0" stroke-linecap="butt" stroke-opacity="1.0" stroke="rgb(0, 0, 0)" stroke-linejoin="round" d=" M 596.834, 716.600 606.834, 716.600 616.834, 716.600 626.834, 716.600 636.834, 716.600 646.834, 716.600 656.834, 716.600 666.834, 716.600 676.834, 716.600 686.834, 716.600 696.834, 716.600 706.834, 716.600 716.834, 716.600 726.834, 716.600 736.834, 716.600 746.834, 716.600 756.834, 716.600 766.834, 716.600 776.834, 716.600 786.834, 716.600 796.444, 716.600 " />
            <path fill="none" stroke-width="3.0" stroke-linecap="butt" stroke-opacity="1.0" stroke="rgb(0, 0, 0)" stroke-linejoin="round" d=" M 546.932, 656.717 546.932, 656.717 546.932, 646.717 546.932, 636.717 546.932, 626.717 546.932, 616.717 546.932, 606.717 546.932, 596.717 546.932, 586.717 546.932, 576.717 546.932, 566.717 546.932, 556.912 546.932, 556.912 " />
            <path fill="none" stroke-width="3.0" stroke-linecap="butt" stroke-opacity="1.0" stroke="rgb(0, 0, 0)" stroke-linejoin="round" d=" M 247.517, 656.717 257.517, 656.717 267.517, 656.717 277.517, 656.717 287.517, 656.717 297.517, 656.717 307.517, 656.717 317.517, 656.717 327.517, 656.717 337.517, 656.717 347.517, 656.717 357.517, 656.717 367.517, 656.717 377.517, 656.717 387.517, 656.717 397.517, 656.717 407.517, 656.717 417.517, 656.717 427.517, 656.717 437.517, 656.717 447.517, 656.717 457.517, 656.717 467.517, 656.717 477.517, 656.717 487.517, 656.717 497.517, 656.717 507.517, 656.717 517.517, 656.717 527.517, 656.717 537.517, 656.717 546.932, 656.717 546.932, 646.717 546.932, 636.756 546.932, 636.756 546.932, 626.756 546.932, 616.756 546.932, 606.756 546.932, 596.756 546.932, 586.756 546.932, 576.756 546.932, 566.756 546.932, 556.912 " />
            <path fill="none" stroke-width="3.0" stroke-linecap="butt" stroke-opacity="1.0" stroke="rgb(0, 0, 0)" stroke-linejoin="round" d=" M 247.517, 596.795 249.464, 596.986 251.336, 597.554 253.061, 598.477 254.574, 599.718 255.815, 601.230 256.737, 602.956 257.305, 604.828 257.497, 606.775 257.493, 606.815 257.305, 608.722 256.737, 610.594 255.815, 612.320 254.574, 613.832 253.061, 615.074 251.336, 615.996 249.464, 616.564 247.517, 616.756 247.517, 616.756 " />
            <path fill="none" stroke-width="3.0" stroke-linecap="butt" stroke-opacity="1.0" stroke="rgb(0, 0, 0)" stroke-linejoin="round" d=" M 237.536, 606.815 237.536, 606.855 237.728, 608.802 238.296, 610.674 239.218, 612.399 240.459, 613.912 241.972, 615.153 243.697, 616.075 245.570, 616.643 247.517, 616.835 " />
            <path fill="none" stroke-width="3.0" stroke-linecap="butt" stroke-opacity="1.0" stroke="rgb(0, 0, 0)" stroke-linejoin="round" d=" M 247.517, 616.756 245.570, 616.564 243.697, 615.996 241.972, 615.074 240.459, 613.832 239.218, 612.320 238.296, 610.594 237.728, 608.722 237.540, 606.815 237.536, 606.775 237.728, 604.828 238.296, 602.956 239.218, 601.230 240.459, 599.718 241.972, 598.477 243.697, 597.554 245.570, 596.986 247.517, 596.795 " />
            <path fill="none" stroke-width="3.0" stroke-linecap="butt" stroke-opacity="1.0" stroke="rgb(0, 0, 0)" stroke-linejoin="round" d=" M 237.536, 606.775 237.536, 606.815 " />
            <path fill="none" stroke-width="3.0" stroke-linecap="butt" stroke-opacity="1.0" stroke="rgb(0, 0, 0)" stroke-linejoin="round" d=" M 237.540, 606.815 237.536, 606.855 " />
            <path fill="none" stroke-width="3.0" stroke-linecap="butt" stroke-opacity="1.0" stroke="rgb(0, 0, 0)" stroke-linejoin="round" d=" M 247.517, 616.835 247.517, 626.835 247.517, 636.756 247.517, 636.756 247.517, 646.756 247.517, 656.717 " />
            <path fill="none" stroke-width="3.0" stroke-linecap="butt" stroke-opacity="1.0" stroke="rgb(0, 0, 0)" stroke-linejoin="round" d=" M 247.517, 556.912 247.517, 566.912 247.517, 576.912 247.517, 586.912 247.517, 596.795 " />
            <path fill="none" stroke-width="3.0" stroke-linecap="butt" stroke-opacity="1.0" stroke="rgb(0, 0, 0)" stroke-linejoin="round" d=" M 247.517, 596.795 247.517, 596.795 " />
            <path fill="none" stroke-width="3.0" stroke-linecap="butt" stroke-opacity="1.0" stroke="rgb(0, 0, 0)" stroke-linejoin="round" d=" M 257.497, 606.815 257.497, 606.775 " />
            <path fill="none" stroke-width="3.0" stroke-linecap="butt" stroke-opacity="1.0" stroke="rgb(0, 0, 0)" stroke-linejoin="round" d=" M 247.517, 656.717 247.517, 656.717 " />
            <path fill="none" stroke-width="3.0" stroke-linecap="butt" stroke-opacity="1.0" stroke="rgb(0, 0, 0)" stroke-linejoin="round" d=" M 546.932, 556.912 546.932, 556.912 " />
            <path fill="none" stroke-width="3.0" stroke-linecap="butt" stroke-opacity="1.0" stroke="rgb(0, 0, 0)" stroke-linejoin="round" d=" M 267.478, 556.912 257.478, 556.912 247.517, 556.912 " />
            <path fill="none" stroke-width="3.0" stroke-linecap="butt" stroke-opacity="1.0" stroke="rgb(0, 0, 0)" stroke-linejoin="round" d=" M 546.932, 556.912 536.932, 556.912 526.932, 556.912 516.932, 556.912 506.932, 556.912 496.932, 556.912 486.932, 556.912 476.932, 556.912 466.932, 556.912 456.932, 556.912 446.932, 556.912 436.932, 556.912 426.932, 556.912 416.932, 556.912 406.932, 556.912 396.932, 556.912 386.932, 556.912 376.932, 556.912 366.932, 556.912 356.932, 556.912 346.932, 556.912 336.932, 556.912 326.932, 556.912 316.932, 556.912 306.932, 556.912 296.932, 556.912 286.932, 556.912 276.932, 556.912 267.478, 556.912 " />
        </g>
    </g>
    <g id="ViewLayer_TechnicalLines.001" inkscape:groupmode="lineset" inkscape:label="ViewLayer_TechnicalLines.001">
        <g inkscape:groupmode="layer" id="strokes" inkscape:label="strokes">
            <path fill="none" stroke-width="1.5" stroke-linecap="round" stroke-opacity="1.0" stroke="rgb(0, 0, 0)" stroke-linejoin="round" d=" M 247.517, 656.717 247.517, 666.717 247.517, 676.678 247.517, 676.678 257.517, 676.678 267.517, 676.678 277.517, 676.678 287.517, 676.678 297.517, 676.678 307.517, 676.678 317.517, 676.678 327.517, 676.678 337.517, 676.678 347.517, 676.678 357.517, 676.678 367.517, 676.678 377.517, 676.678 387.517, 676.678 397.517, 676.678 407.517, 676.678 417.517, 676.678 427.517, 676.678 437.517, 676.678 447.517, 676.678 457.517, 676.678 467.517, 676.678 477.517, 676.678 487.517, 676.678 497.517, 676.678 507.517, 676.678 517.517, 676.678 527.517, 676.678 537.517, 676.678 546.932, 676.678 546.932, 676.678 546.932, 666.678 546.932, 656.717 " />
            <path fill="none" stroke-width="1.5" stroke-linecap="round" stroke-opacity="1.0" stroke="rgb(0, 0, 0)" stroke-linejoin="round" d=" M 546.932, 656.717 546.932, 646.717 546.932, 636.756 546.932, 636.756 " />
            <path fill="none" stroke-width="1.5" stroke-linecap="round" stroke-opacity="1.0" stroke="rgb(0, 0, 0)" stroke-linejoin="round" d=" M 247.517, 676.678 257.517, 676.678 267.517, 676.678 277.517, 676.678 287.517, 676.678 297.517, 676.678 307.517, 676.678 317.517, 676.678 327.517, 676.678 337.517, 676.678 347.517, 676.678 357.517, 676.678 367.517, 676.678 377.517, 676.678 387.517, 676.678 397.517, 676.678 407.517, 676.678 417.517, 676.678 427.517, 676.678 437.517, 676.678 447.517, 676.678 457.517, 676.678 467.517, 676.678 477.517, 676.678 487.517, 676.678 497.517, 676.678 507.517, 676.678 517.517, 676.678 527.517, 676.678 537.517, 676.678 546.932, 676.678 " />
            <path fill="none" stroke-width="1.5" stroke-linecap="round" stroke-opacity="1.0" stroke="rgb(0, 0, 0)" stroke-linejoin="round" d=" M 267.478, 556.912 267.478, 546.912 267.478, 536.912 267.478, 526.912 267.478, 516.912 267.478, 506.912 267.478, 496.912 267.478, 486.912 267.478, 476.912 267.478, 466.912 267.478, 456.912 267.478, 446.912 267.478, 436.912 267.478, 426.912 267.478, 416.912 267.478, 406.912 267.478, 396.912 267.478, 386.912 267.478, 376.912 267.478, 366.912 267.478, 356.912 267.478, 346.912 267.478, 336.912 267.478, 326.912 267.478, 316.912 267.478, 307.400 257.478, 307.400 247.478, 307.400 237.478, 307.400 227.556, 307.400 227.556, 317.400 227.556, 327.400 227.556, 337.400 227.556, 347.400 227.556, 357.400 227.556, 367.400 227.556, 377.400 227.556, 387.400 227.556, 397.400 227.556, 407.400 227.556, 417.400 227.556, 427.400 227.556, 437.400 227.556, 447.400 227.556, 457.400 227.556, 467.400 227.556, 477.400 227.556, 487.400 227.556, 497.400 227.556, 507.400 227.556, 517.400 227.556, 527.400 227.556, 537.400 227.556, 547.400 227.556, 557.400 227.556, 567.400 227.556, 577.400 227.556, 587.400 227.556, 597.400 227.556, 606.815 237.536, 606.815 237.540, 606.815 " />
            <path fill="none" stroke-width="1.5" stroke-linecap="round" stroke-opacity="1.0" stroke="rgb(0, 0, 0)" stroke-linejoin="round" d=" M 596.834, 716.600 606.834, 716.600 616.834, 716.600 626.834, 716.600 636.834, 716.600 646.834, 716.600 656.834, 716.600 666.834, 716.600 676.834, 716.600 686.834, 716.600 696.834, 716.600 706.834, 716.600 716.834, 716.600 726.834, 716.600 736.834, 716.600 746.834, 716.600 756.834, 716.600 766.834, 716.600 776.834, 716.600 786.834, 716.600 796.444, 716.600 796.444, 716.600 796.444, 706.600 796.444, 696.639 786.444, 696.639 776.444, 696.639 766.444, 696.639 756.444, 696.639 746.444, 696.639 736.444, 696.639 726.444, 696.639 716.444, 696.639 706.444, 696.639 696.444, 696.639 686.444, 696.639 676.444, 696.639 666.444, 696.639 656.444, 696.639 646.444, 696.639 636.444, 696.639 626.444, 696.639 616.444, 696.639 606.444, 696.639 596.834, 696.639 596.834, 706.639 596.834, 716.600 596.834, 716.600 " />
            <path fill="none" stroke-width="1.5" stroke-linecap="round" stroke-opacity="1.0" stroke="rgb(0, 0, 0)" stroke-linejoin="round" d=" M 596.834, 716.600 606.834, 716.600 616.834, 716.600 626.834, 716.600 636.834, 716.600 646.834, 716.600 656.834, 716.600 666.834, 716.600 676.834, 716.600 686.834, 716.600 696.834, 716.600 706.834, 716.600 716.834, 716.600 726.834, 716.600 736.834, 716.600 746.834, 716.600 756.834, 716.600 766.834, 716.600 776.834, 716.600 786.834, 716.600 796.444, 716.600 " />
            <path fill="none" stroke-width="1.5" stroke-linecap="round" stroke-opacity="1.0" stroke="rgb(0, 0, 0)" stroke-linejoin="round" d=" M 546.932, 656.717 546.932, 656.717 546.932, 646.717 546.932, 636.717 546.932, 626.717 546.932, 616.717 546.932, 606.717 546.932, 596.717 546.932, 586.717 546.932, 576.717 546.932, 566.717 546.932, 556.912 546.932, 556.912 " />
            <path fill="none" stroke-width="1.5" stroke-linecap="round" stroke-opacity="1.0" stroke="rgb(0, 0, 0)" stroke-linejoin="round" d=" M 247.517, 656.717 257.517, 656.717 267.517, 656.717 277.517, 656.717 287.517, 656.717 297.517, 656.717 307.517, 656.717 317.517, 656.717 327.517, 656.717 337.517, 656.717 347.517, 656.717 357.517, 656.717 367.517, 656.717 377.517, 656.717 387.517, 656.717 397.517, 656.717 407.517, 656.717 417.517, 656.717 427.517, 656.717 437.517, 656.717 447.517, 656.717 457.517, 656.717 467.517, 656.717 477.517, 656.717 487.517, 656.717 497.517, 656.717 507.517, 656.717 517.517, 656.717 527.517, 656.717 537.517, 656.717 546.932, 656.717 546.932, 646.717 546.932, 636.756 546.932, 636.756 546.932, 626.756 546.932, 616.756 546.932, 606.756 546.932, 596.756 546.932, 586.756 546.932, 576.756 546.932, 566.756 546.932, 556.912 " />
            <path fill="none" stroke-width="1.5" stroke-linecap="round" stroke-opacity="1.0" stroke="rgb(0, 0, 0)" stroke-linejoin="round" d=" M 247.517, 596.795 249.464, 596.986 251.336, 597.554 253.061, 598.477 254.574, 599.718 255.815, 601.230 256.737, 602.956 257.305, 604.828 257.497, 606.775 257.493, 606.815 257.305, 608.722 256.737, 610.594 255.815, 612.320 254.574, 613.832 253.061, 615.074 251.336, 615.996 249.464, 616.564 247.517, 616.756 247.517, 616.756 " />
            <path fill="none" stroke-width="1.5" stroke-linecap="round" stroke-opacity="1.0" stroke="rgb(0, 0, 0)" stroke-linejoin="round" d=" M 237.536, 606.815 237.536, 606.855 237.728, 608.802 238.296, 610.674 239.218, 612.399 240.459, 613.912 241.972, 615.153 243.697, 616.075 245.570, 616.643 247.517, 616.835 " />
            <path fill="none" stroke-width="1.5" stroke-linecap="round" stroke-opacity="1.0" stroke="rgb(0, 0, 0)" stroke-linejoin="round" d=" M 247.517, 616.756 245.570, 616.564 243.697, 615.996 241.972, 615.074 240.459, 613.832 239.218, 612.320 238.296, 610.594 237.728, 608.722 237.540, 606.815 237.536, 606.775 237.728, 604.828 238.296, 602.956 239.218, 601.230 240.459, 599.718 241.972, 598.477 243.697, 597.554 245.570, 596.986 247.517, 596.795 " />
            <path fill="none" stroke-width="1.5" stroke-linecap="round" stroke-opacity="1.0" stroke="rgb(0, 0, 0)" stroke-linejoin="round" d=" M 237.536, 606.775 237.536, 606.815 " />
            <path fill="none" stroke-width="1.5" stroke-linecap="round" stroke-opacity="1.0" stroke="rgb(0, 0, 0)" stroke-linejoin="round" d=" M 237.540, 606.815 237.536, 606.855 " />
            <path fill="none" stroke-width="1.5" stroke-linecap="round" stroke-opacity="1.0" stroke="rgb(0, 0, 0)" stroke-linejoin="round" d=" M 247.517, 616.835 247.517, 626.835 247.517, 636.756 247.517, 636.756 247.517, 646.756 247.517, 656.717 " />
            <path fill="none" stroke-width="1.5" stroke-linecap="round" stroke-opacity="1.0" stroke="rgb(0, 0, 0)" stroke-linejoin="round" d=" M 247.517, 556.912 247.517, 566.912 247.517, 576.912 247.517, 586.912 247.517, 596.795 " />
            <path fill="none" stroke-width="1.5" stroke-linecap="round" stroke-opacity="1.0" stroke="rgb(0, 0, 0)" stroke-linejoin="round" d=" M 247.517, 596.795 247.517, 596.795 " />
            <path fill="none" stroke-width="1.5" stroke-linecap="round" stroke-opacity="1.0" stroke="rgb(0, 0, 0)" stroke-linejoin="round" d=" M 257.497, 606.815 257.497, 606.775 " />
            <path fill="none" stroke-width="1.5" stroke-linecap="round" stroke-opacity="1.0" stroke="rgb(0, 0, 0)" stroke-linejoin="round" d=" M 247.517, 656.717 247.517, 656.717 " />
            <path fill="none" stroke-width="1.5" stroke-linecap="round" stroke-opacity="1.0" stroke="rgb(0, 0, 0)" stroke-linejoin="round" d=" M 546.932, 556.912 546.932, 556.912 " />
            <path fill="none" stroke-width="1.5" stroke-linecap="round" stroke-opacity="1.0" stroke="rgb(0, 0, 0)" stroke-linejoin="round" d=" M 267.478, 556.912 257.478, 556.912 247.517, 556.912 " />
            <path fill="none" stroke-width="1.5" stroke-linecap="round" stroke-opacity="1.0" stroke="rgb(0, 0, 0)" stroke-linejoin="round" d=" M 546.932, 556.912 536.932, 556.912 526.932, 556.912 516.932, 556.912 506.932, 556.912 496.932, 556.912 486.932, 556.912 476.932, 556.912 466.932, 556.912 456.932, 556.912 446.932, 556.912 436.932, 556.912 426.932, 556.912 416.932, 556.912 406.932, 556.912 396.932, 556.912 386.932, 556.912 376.932, 556.912 366.932, 556.912 356.932, 556.912 346.932, 556.912 336.932, 556.912 326.932, 556.912 316.932, 556.912 306.932, 556.912 296.932, 556.912 286.932, 556.912 276.932, 556.912 267.478, 556.912 " />
        </g>
    </g>
    <g id="ViewLayer_TechnicalLines.002" inkscape:groupmode="lineset" inkscape:label="ViewLayer_TechnicalLines.002">
        <g inkscape:groupmode="layer" id="strokes" inkscape:label="strokes">
            <path fill="none" stroke-width="1.5" stroke-linecap="round" stroke-opacity="1.0" stroke="rgb(0, 0, 0)" stroke-linejoin="round" d=" M 247.517, 656.717 247.517, 666.717 247.517, 676.678 247.517, 676.678 257.517, 676.678 267.517, 676.678 277.517, 676.678 287.517, 676.678 297.517, 676.678 307.517, 676.678 317.517, 676.678 327.517, 676.678 337.517, 676.678 347.517, 676.678 357.517, 676.678 367.517, 676.678 377.517, 676.678 387.517, 676.678 397.517, 676.678 407.517, 676.678 417.517, 676.678 427.517, 676.678 437.517, 676.678 447.517, 676.678 457.517, 676.678 467.517, 676.678 477.517, 676.678 487.517, 676.678 497.517, 676.678 507.517, 676.678 517.517, 676.678 527.517, 676.678 537.517, 676.678 546.932, 676.678 546.932, 676.678 546.932, 666.678 546.932, 656.717 " />
            <path fill="none" stroke-width="1.5" stroke-linecap="round" stroke-opacity="1.0" stroke="rgb(0, 0, 0)" stroke-linejoin="round" d=" M 546.932, 656.717 546.932, 646.717 546.932, 636.756 546.932, 636.756 " />
            <path fill="none" stroke-width="1.5" stroke-linecap="round" stroke-opacity="1.0" stroke="rgb(0, 0, 0)" stroke-linejoin="round" d=" M 247.517, 676.678 257.517, 676.678 267.517, 676.678 277.517, 676.678 287.517, 676.678 297.517, 676.678 307.517, 676.678 317.517, 676.678 327.517, 676.678 337.517, 676.678 347.517, 676.678 357.517, 676.678 367.517, 676.678 377.517, 676.678 387.517, 676.678 397.517, 676.678 407.517, 676.678 417.517, 676.678 427.517, 676.678 437.517, 676.678 447.517, 676.678 457.517, 676.678 467.517, 676.678 477.517, 676.678 487.517, 676.678 497.517, 676.678 507.517, 676.678 517.517, 676.678 527.517, 676.678 537.517, 676.678 546.932, 676.678 " />
            <path fill="none" stroke-width="1.5" stroke-linecap="round" stroke-opacity="1.0" stroke="rgb(0, 0, 0)" stroke-linejoin="round" d=" M 267.478, 556.912 267.478, 546.912 267.478, 536.912 267.478, 526.912 267.478, 516.912 267.478, 506.912 267.478, 496.912 267.478, 486.912 267.478, 476.912 267.478, 466.912 267.478, 456.912 267.478, 446.912 267.478, 436.912 267.478, 426.912 267.478, 416.912 267.478, 406.912 267.478, 396.912 267.478, 386.912 267.478, 376.912 267.478, 366.912 267.478, 356.912 267.478, 346.912 267.478, 336.912 267.478, 326.912 267.478, 316.912 267.478, 307.400 257.478, 307.400 247.478, 307.400 237.478, 307.400 227.556, 307.400 227.556, 317.400 227.556, 327.400 227.556, 337.400 227.556, 347.400 227.556, 357.400 227.556, 367.400 227.556, 377.400 227.556, 387.400 227.556, 397.400 227.556, 407.400 227.556, 417.400 227.556, 427.400 227.556, 437.400 227.556, 447.400 227.556, 457.400 227.556, 467.400 227.556, 477.400 227.556, 487.400 227.556, 497.400 227.556, 507.400 227.556, 517.400 227.556, 527.400 227.556, 537.400 227.556, 547.400 227.556, 557.400 227.556, 567.400 227.556, 577.400 227.556, 587.400 227.556, 597.400 227.556, 606.815 237.536, 606.815 237.540, 606.815 " />
            <path fill="none" stroke-width="1.5" stroke-linecap="round" stroke-opacity="1.0" stroke="rgb(0, 0, 0)" stroke-linejoin="round" d=" M 596.834, 716.600 606.834, 716.600 616.834, 716.600 626.834, 716.600 636.834, 716.600 646.834, 716.600 656.834, 716.600 666.834, 716.600 676.834, 716.600 686.834, 716.600 696.834, 716.600 706.834, 716.600 716.834, 716.600 726.834, 716.600 736.834, 716.600 746.834, 716.600 756.834, 716.600 766.834, 716.600 776.834, 716.600 786.834, 716.600 796.444, 716.600 796.444, 716.600 796.444, 706.600 796.444, 696.639 786.444, 696.639 776.444, 696.639 766.444, 696.639 756.444, 696.639 746.444, 696.639 736.444, 696.639 726.444, 696.639 716.444, 696.639 706.444, 696.639 696.444, 696.639 686.444, 696.639 676.444, 696.639 666.444, 696.639 656.444, 696.639 646.444, 696.639 636.444, 696.639 626.444, 696.639 616.444, 696.639 606.444, 696.639 596.834, 696.639 596.834, 706.639 596.834, 716.600 596.834, 716.600 " />
            <path fill="none" stroke-width="1.5" stroke-linecap="round" stroke-opacity="1.0" stroke="rgb(0, 0, 0)" stroke-linejoin="round" d=" M 596.834, 716.600 606.834, 716.600 616.834, 716.600 626.834, 716.600 636.834, 716.600 646.834, 716.600 656.834, 716.600 666.834, 716.600 676.834, 716.600 686.834, 716.600 696.834, 716.600 706.834, 716.600 716.834, 716.600 726.834, 716.600 736.834, 716.600 746.834, 716.600 756.834, 716.600 766.834, 716.600 776.834, 716.600 786.834, 716.600 796.444, 716.600 " />
            <path fill="none" stroke-width="1.5" stroke-linecap="round" stroke-opacity="1.0" stroke="rgb(0, 0, 0)" stroke-linejoin="round" d=" M 546.932, 656.717 546.932, 656.717 546.932, 646.717 546.932, 636.717 546.932, 626.717 546.932, 616.717 546.932, 606.717 546.932, 596.717 546.932, 586.717 546.932, 576.717 546.932, 566.717 546.932, 556.912 546.932, 556.912 " />
            <path fill="none" stroke-width="1.5" stroke-linecap="round" stroke-opacity="1.0" stroke="rgb(0, 0, 0)" stroke-linejoin="round" d=" M 247.517, 656.717 257.517, 656.717 267.517, 656.717 277.517, 656.717 287.517, 656.717 297.517, 656.717 307.517, 656.717 317.517, 656.717 327.517, 656.717 337.517, 656.717 347.517, 656.717 357.517, 656.717 367.517, 656.717 377.517, 656.717 387.517, 656.717 397.517, 656.717 407.517, 656.717 417.517, 656.717 427.517, 656.717 437.517, 656.717 447.517, 656.717 457.517, 656.717 467.517, 656.717 477.517, 656.717 487.517, 656.717 497.517, 656.717 507.517, 656.717 517.517, 656.717 527.517, 656.717 537.517, 656.717 546.932, 656.717 546.932, 646.717 546.932, 636.756 546.932, 636.756 546.932, 626.756 546.932, 616.756 546.932, 606.756 546.932, 596.756 546.932, 586.756 546.932, 576.756 546.932, 566.756 546.932, 556.912 " />
            <path fill="none" stroke-width="1.5" stroke-linecap="round" stroke-opacity="1.0" stroke="rgb(0, 0, 0)" stroke-linejoin="round" d=" M 247.517, 596.795 249.464, 596.986 251.336, 597.554 253.061, 598.477 254.574, 599.718 255.815, 601.230 256.737, 602.956 257.305, 604.828 257.497, 606.775 257.493, 606.815 257.305, 608.722 256.737, 610.594 255.815, 612.320 254.574, 613.832 253.061, 615.074 251.336, 615.996 249.464, 616.564 247.517, 616.756 247.517, 616.756 " />
            <path fill="none" stroke-width="1.5" stroke-linecap="round" stroke-opacity="1.0" stroke="rgb(0, 0, 0)" stroke-linejoin="round" d=" M 237.536, 606.815 237.536, 606.855 237.728, 608.802 238.296, 610.674 239.218, 612.399 240.459, 613.912 241.972, 615.153 243.697, 616.075 245.570, 616.643 247.517, 616.835 " />
            <path fill="none" stroke-width="1.5" stroke-linecap="round" stroke-opacity="1.0" stroke="rgb(0, 0, 0)" stroke-linejoin="round" d=" M 247.517, 616.756 245.570, 616.564 243.697, 615.996 241.972, 615.074 240.459, 613.832 239.218, 612.320 238.296, 610.594 237.728, 608.722 237.540, 606.815 237.536, 606.775 237.728, 604.828 238.296, 602.956 239.218, 601.230 240.459, 599.718 241.972, 598.477 243.697, 597.554 245.570, 596.986 247.517, 596.795 " />
            <path fill="none" stroke-width="1.5" stroke-linecap="round" stroke-opacity="1.0" stroke="rgb(0, 0, 0)" stroke-linejoin="round" d=" M 237.536, 606.775 237.536, 606.815 " />
            <path fill="none" stroke-width="1.5" stroke-linecap="round" stroke-opacity="1.0" stroke="rgb(0, 0, 0)" stroke-linejoin="round" d=" M 237.540, 606.815 237.536, 606.855 " />
            <path fill="none" stroke-width="1.5" stroke-linecap="round" stroke-opacity="1.0" stroke="rgb(0, 0, 0)" stroke-linejoin="round" d=" M 247.517, 616.835 247.517, 626.835 247.517, 636.756 247.517, 636.756 247.517, 646.756 247.517, 656.717 " />
            <path fill="none" stroke-width="1.5" stroke-linecap="round" stroke-opacity="1.0" stroke="rgb(0, 0, 0)" stroke-linejoin="round" d=" M 247.517, 556.912 247.517, 566.912 247.517, 576.912 247.517, 586.912 247.517, 596.795 " />
            <path fill="none" stroke-width="1.5" stroke-linecap="round" stroke-opacity="1.0" stroke="rgb(0, 0, 0)" stroke-linejoin="round" d=" M 247.517, 596.795 247.517, 596.795 " />
            <path fill="none" stroke-width="1.5" stroke-linecap="round" stroke-opacity="1.0" stroke="rgb(0, 0, 0)" stroke-linejoin="round" d=" M 257.497, 606.815 257.497, 606.775 " />
            <path fill="none" stroke-width="1.5" stroke-linecap="round" stroke-opacity="1.0" stroke="rgb(0, 0, 0)" stroke-linejoin="round" d=" M 247.517, 656.717 247.517, 656.717 " />
            <path fill="none" stroke-width="1.5" stroke-linecap="round" stroke-opacity="1.0" stroke="rgb(0, 0, 0)" stroke-linejoin="round" d=" M 546.932, 556.912 546.932, 556.912 " />
            <path fill="none" stroke-width="1.5" stroke-linecap="round" stroke-opacity="1.0" stroke="rgb(0, 0, 0)" stroke-linejoin="round" d=" M 267.478, 556.912 257.478, 556.912 247.517, 556.912 " />
            <path fill="none" stroke-width="1.5" stroke-linecap="round" stroke-opacity="1.0" stroke="rgb(0, 0, 0)" stroke-linejoin="round" d=" M 546.932, 556.912 536.932, 556.912 526.932, 556.912 516.932, 556.912 506.932, 556.912 496.932, 556.912 486.932, 556.912 476.932, 556.912 466.932, 556.912 456.932, 556.912 446.932, 556.912 436.932, 556.912 426.932, 556.912 416.932, 556.912 406.932, 556.912 396.932, 556.912 386.932, 556.912 376.932, 556.912 366.932, 556.912 356.932, 556.912 346.932, 556.912 336.932, 556.912 326.932, 556.912 316.932, 556.912 306.932, 556.912 296.932, 556.912 286.932, 556.912 276.932, 556.912 267.478, 556.912 " />
        </g>
    </g>
    <g id="ViewLayer_TechnicalLines.003" inkscape:groupmode="lineset" inkscape:label="ViewLayer_TechnicalLines.003">
        <g inkscape:groupmode="layer" id="strokes" inkscape:label="strokes">
            <path fill="none" stroke-width="1.5" stroke-linecap="round" stroke-opacity="1.0" stroke="rgb(0, 0, 0)" stroke-linejoin="round" d=" M 247.517, 656.717 247.517, 666.717 247.517, 676.678 247.517, 676.678 257.517, 676.678 267.517, 676.678 277.517, 676.678 287.517, 676.678 297.517, 676.678 307.517, 676.678 317.517, 676.678 327.517, 676.678 337.517, 676.678 347.517, 676.678 357.517, 676.678 367.517, 676.678 377.517, 676.678 387.517, 676.678 397.517, 676.678 407.517, 676.678 417.517, 676.678 427.517, 676.678 437.517, 676.678 447.517, 676.678 457.517, 676.678 467.517, 676.678 477.517, 676.678 487.517, 676.678 497.517, 676.678 507.517, 676.678 517.517, 676.678 527.517, 676.678 537.517, 676.678 546.932, 676.678 546.932, 676.678 546.932, 666.678 546.932, 656.717 " />
            <path fill="none" stroke-width="1.5" stroke-linecap="round" stroke-opacity="1.0" stroke="rgb(0, 0, 0)" stroke-linejoin="round" d=" M 546.932, 656.717 546.932, 646.717 546.932, 636.756 546.932, 636.756 " />
            <path fill="none" stroke-width="1.5" stroke-linecap="round" stroke-opacity="1.0" stroke="rgb(0, 0, 0)" stroke-linejoin="round" d=" M 247.517, 676.678 257.517, 676.678 267.517, 676.678 277.517, 676.678 287.517, 676.678 297.517, 676.678 307.517, 676.678 317.517, 676.678 327.517, 676.678 337.517, 676.678 347.517, 676.678 357.517, 676.678 367.517, 676.678 377.517, 676.678 387.517, 676.678 397.517, 676.678 407.517, 676.678 417.517, 676.678 427.517, 676.678 437.517, 676.678 447.517, 676.678 457.517, 676.678 467.517, 676.678 477.517, 676.678 487.517, 676.678 497.517, 676.678 507.517, 676.678 517.517, 676.678 527.517, 676.678 537.517, 676.678 546.932, 676.678 " />
            <path fill="none" stroke-width="1.5" stroke-linecap="round" stroke-opacity="1.0" stroke="rgb(0, 0, 0)" stroke-linejoin="round" d=" M 267.478, 556.912 267.478, 546.912 267.478, 536.912 267.478, 526.912 267.478, 516.912 267.478, 506.912 267.478, 496.912 267.478, 486.912 267.478, 476.912 267.478, 466.912 267.478, 456.912 267.478, 446.912 267.478, 436.912 267.478, 426.912 267.478, 416.912 267.478, 406.912 267.478, 396.912 267.478, 386.912 267.478, 376.912 267.478, 366.912 267.478, 356.912 267.478, 346.912 267.478, 336.912 267.478, 326.912 267.478, 316.912 267.478, 307.400 257.478, 307.400 247.478, 307.400 237.478, 307.400 227.556, 307.400 227.556, 317.400 227.556, 327.400 227.556, 337.400 227.556, 347.400 227.556, 357.400 227.556, 367.400 227.556, 377.400 227.556, 387.400 227.556, 397.400 227.556, 407.400 227.556, 417.400 227.556, 427.400 227.556, 437.400 227.556, 447.400 227.556, 457.400 227.556, 467.400 227.556, 477.400 227.556, 487.400 227.556, 497.400 227.556, 507.400 227.556, 517.400 227.556, 527.400 227.556, 537.400 227.556, 547.400 227.556, 557.400 227.556, 567.400 227.556, 577.400 227.556, 587.400 227.556, 597.400 227.556, 606.815 237.536, 606.815 237.540, 606.815 " />
            <path fill="none" stroke-width="1.5" stroke-linecap="round" stroke-opacity="1.0" stroke="rgb(0, 0, 0)" stroke-linejoin="round" d=" M 596.834, 716.600 606.834, 716.600 616.834, 716.600 626.834, 716.600 636.834, 716.600 646.834, 716.600 656.834, 716.600 666.834, 716.600 676.834, 716.600 686.834, 716.600 696.834, 716.600 706.834, 716.600 716.834, 716.600 726.834, 716.600 736.834, 716.600 746.834, 716.600 756.834, 716.600 766.834, 716.600 776.834, 716.600 786.834, 716.600 796.444, 716.600 796.444, 716.600 796.444, 706.600 796.444, 696.639 786.444, 696.639 776.444, 696.639 766.444, 696.639 756.444, 696.639 746.444, 696.639 736.444, 696.639 726.444, 696.639 716.444, 696.639 706.444, 696.639 696.444, 696.639 686.444, 696.639 676.444, 696.639 666.444, 696.639 656.444, 696.639 646.444, 696.639 636.444, 696.639 626.444, 696.639 616.444, 696.639 606.444, 696.639 596.834, 696.639 596.834, 706.639 596.834, 716.600 596.834, 716.600 " />
            <path fill="none" stroke-width="1.5" stroke-linecap="round" stroke-opacity="1.0" stroke="rgb(0, 0, 0)" stroke-linejoin="round" d=" M 596.834, 716.600 606.834, 716.600 616.834, 716.600 626.834, 716.600 636.834, 716.600 646.834, 716.600 656.834, 716.600 666.834, 716.600 676.834, 716.600 686.834, 716.600 696.834, 716.600 706.834, 716.600 716.834, 716.600 726.834, 716.600 736.834, 716.600 746.834, 716.600 756.834, 716.600 766.834, 716.600 776.834, 716.600 786.834, 716.600 796.444, 716.600 " />
            <path fill="none" stroke-width="1.5" stroke-linecap="round" stroke-opacity="1.0" stroke="rgb(0, 0, 0)" stroke-linejoin="round" d=" M 546.932, 656.717 546.932, 656.717 546.932, 646.717 546.932, 636.717 546.932, 626.717 546.932, 616.717 546.932, 606.717 546.932, 596.717 546.932, 586.717 546.932, 576.717 546.932, 566.717 546.932, 556.912 546.932, 556.912 " />
            <path fill="none" stroke-width="1.5" stroke-linecap="round" stroke-opacity="1.0" stroke="rgb(0, 0, 0)" stroke-linejoin="round" d=" M 247.517, 656.717 257.517, 656.717 267.517, 656.717 277.517, 656.717 287.517, 656.717 297.517, 656.717 307.517, 656.717 317.517, 656.717 327.517, 656.717 337.517, 656.717 347.517, 656.717 357.517, 656.717 367.517, 656.717 377.517, 656.717 387.517, 656.717 397.517, 656.717 407.517, 656.717 417.517, 656.717 427.517, 656.717 437.517, 656.717 447.517, 656.717 457.517, 656.717 467.517, 656.717 477.517, 656.717 487.517, 656.717 497.517, 656.717 507.517, 656.717 517.517, 656.717 527.517, 656.717 537.517, 656.717 546.932, 656.717 546.932, 646.717 546.932, 636.756 546.932, 636.756 546.932, 626.756 546.932, 616.756 546.932, 606.756 546.932, 596.756 546.932, 586.756 546.932, 576.756 546.932, 566.756 546.932, 556.912 " />
            <path fill="none" stroke-width="1.5" stroke-linecap="round" stroke-opacity="1.0" stroke="rgb(0, 0, 0)" stroke-linejoin="round" d=" M 247.517, 596.795 249.464, 596.986 251.336, 597.554 253.061, 598.477 254.574, 599.718 255.815, 601.230 256.737, 602.956 257.305, 604.828 257.497, 606.775 257.493, 606.815 257.305, 608.722 256.737, 610.594 255.815, 612.320 254.574, 613.832 253.061, 615.074 251.336, 615.996 249.464, 616.564 247.517, 616.756 247.517, 616.756 " />
            <path fill="none" stroke-width="1.5" stroke-linecap="round" stroke-opacity="1.0" stroke="rgb(0, 0, 0)" stroke-linejoin="round" d=" M 237.536, 606.815 237.536, 606.855 237.728, 608.802 238.296, 610.674 239.218, 612.399 240.459, 613.912 241.972, 615.153 243.697, 616.075 245.570, 616.643 247.517, 616.835 " />
            <path fill="none" stroke-width="1.5" stroke-linecap="round" stroke-opacity="1.0" stroke="rgb(0, 0, 0)" stroke-linejoin="round" d=" M 247.517, 616.756 245.570, 616.564 243.697, 615.996 241.972, 615.074 240.459, 613.832 239.218, 612.320 238.296, 610.594 237.728, 608.722 237.540, 606.815 237.536, 606.775 237.728, 604.828 238.296, 602.956 239.218, 601.230 240.459, 599.718 241.972, 598.477 243.697, 597.554 245.570, 596.986 247.517, 596.795 " />
            <path fill="none" stroke-width="1.5" stroke-linecap="round" stroke-opacity="1.0" stroke="rgb(0, 0, 0)" stroke-linejoin="round" d=" M 237.536, 606.775 237.536, 606.815 " />
            <path fill="none" stroke-width="1.5" stroke-linecap="round" stroke-opacity="1.0" stroke="rgb(0, 0, 0)" stroke-linejoin="round" d=" M 237.540, 606.815 237.536, 606.855 " />
            <path fill="none" stroke-width="1.5" stroke-linecap="round" stroke-opacity="1.0" stroke="rgb(0, 0, 0)" stroke-linejoin="round" d=" M 247.517, 616.835 247.517, 626.835 247.517, 636.756 247.517, 636.756 247.517, 646.756 247.517, 656.717 " />
            <path fill="none" stroke-width="1.5" stroke-linecap="round" stroke-opacity="1.0" stroke="rgb(0, 0, 0)" stroke-linejoin="round" d=" M 247.517, 556.912 247.517, 566.912 247.517, 576.912 247.517, 586.912 247.517, 596.795 " />
            <path fill="none" stroke-width="1.5" stroke-linecap="round" stroke-opacity="1.0" stroke="rgb(0, 0, 0)" stroke-linejoin="round" d=" M 247.517, 596.795 247.517, 596.795 " />
            <path fill="none" stroke-width="1.5" stroke-linecap="round" stroke-opacity="1.0" stroke="rgb(0, 0, 0)" stroke-linejoin="round" d=" M 257.497, 606.815 257.497, 606.775 " />
            <path fill="none" stroke-width="1.5" stroke-linecap="round" stroke-opacity="1.0" stroke="rgb(0, 0, 0)" stroke-linejoin="round" d=" M 247.517, 656.717 247.517, 656.717 " />
            <path fill="none" stroke-width="1.5" stroke-linecap="round" stroke-opacity="1.0" stroke="rgb(0, 0, 0)" stroke-linejoin="round" d=" M 546.932, 556.912 546.932, 556.912 " />
            <path fill="none" stroke-width="1.5" stroke-linecap="round" stroke-opacity="1.0" stroke="rgb(0, 0, 0)" stroke-linejoin="round" d=" M 267.478, 556.912 257.478, 556.912 247.517, 556.912 " />
            <path fill="none" stroke-width="1.5" stroke-linecap="round" stroke-opacity="1.0" stroke="rgb(0, 0, 0)" stroke-linejoin="round" d=" M 546.932, 556.912 536.932, 556.912 526.932, 556.912 516.932, 556.912 506.932, 556.912 496.932, 556.912 486.932, 556.912 476.932, 556.912 466.932, 556.912 456.932, 556.912 446.932, 556.912 436.932, 556.912 426.932, 556.912 416.932, 556.912 406.932, 556.912 396.932, 556.912 386.932, 556.912 376.932, 556.912 366.932, 556.912 356.932, 556.912 346.932, 556.912 336.932, 556.912 326.932, 556.912 316.932, 556.912 306.932, 556.912 296.932, 556.912 286.932, 556.912 276.932, 556.912 267.478, 556.912 " />
        </g>
    </g>
    <g id="ViewLayer_TechnicalLines.004" xmlns:inkscape="http://www.inkscape.org/namespaces/inkscape" inkscape:groupmode="lineset" inkscape:label="ViewLayer_TechnicalLines.004">
        <g xmlns:inkscape="http://www.inkscape.org/namespaces/inkscape" inkscape:groupmode="layer" id="strokes" inkscape:label="strokes">
            <path fill="none" stroke-width="1.5" stroke-linecap="round" stroke-opacity="1.0" stroke="rgb(0, 0, 0)" stroke-linejoin="round" d=" M 247.517, 656.717 247.517, 666.717 247.517, 676.678 247.517, 676.678 257.517, 676.678 267.517, 676.678 277.517, 676.678 287.517, 676.678 297.517, 676.678 307.517, 676.678 317.517, 676.678 327.517, 676.678 337.517, 676.678 347.517, 676.678 357.517, 676.678 367.517, 676.678 377.517, 676.678 387.517, 676.678 397.517, 676.678 407.517, 676.678 417.517, 676.678 427.517, 676.678 437.517, 676.678 447.517, 676.678 457.517, 676.678 467.517, 676.678 477.517, 676.678 487.517, 676.678 497.517, 676.678 507.517, 676.678 517.517, 676.678 527.517, 676.678 537.517, 676.678 546.932, 676.678 546.932, 676.678 546.932, 666.678 546.932, 656.717 " />
            <path fill="none" stroke-width="1.5" stroke-linecap="round" stroke-opacity="1.0" stroke="rgb(0, 0, 0)" stroke-linejoin="round" d=" M 546.932, 656.717 546.932, 646.717 546.932, 636.756 546.932, 636.756 " />
            <path fill="none" stroke-width="1.5" stroke-linecap="round" stroke-opacity="1.0" stroke="rgb(0, 0, 0)" stroke-linejoin="round" d=" M 247.517, 676.678 257.517, 676.678 267.517, 676.678 277.517, 676.678 287.517, 676.678 297.517, 676.678 307.517, 676.678 317.517, 676.678 327.517, 676.678 337.517, 676.678 347.517, 676.678 357.517, 676.678 367.517, 676.678 377.517, 676.678 387.517, 676.678 397.517, 676.678 407.517, 676.678 417.517, 676.678 427.517, 676.678 437.517, 676.678 447.517, 676.678 457.517, 676.678 467.517, 676.678 477.517, 676.678 487.517, 676.678 497.517, 676.678 507.517, 676.678 517.517, 676.678 527.517, 676.678 537.517, 676.678 546.932, 676.678 " />
            <path fill="none" stroke-width="1.5" stroke-linecap="round" stroke-opacity="1.0" stroke="rgb(0, 0, 0)" stroke-linejoin="round" d=" M 267.478, 556.912 267.478, 546.912 267.478, 536.912 267.478, 526.912 267.478, 516.912 267.478, 506.912 267.478, 496.912 267.478, 486.912 267.478, 476.912 267.478, 466.912 267.478, 456.912 267.478, 446.912 267.478, 436.912 267.478, 426.912 267.478, 416.912 267.478, 406.912 267.478, 396.912 267.478, 386.912 267.478, 376.912 267.478, 366.912 267.478, 356.912 267.478, 346.912 267.478, 336.912 267.478, 326.912 267.478, 316.912 267.478, 307.400 257.478, 307.400 247.478, 307.400 237.478, 307.400 227.556, 307.400 227.556, 317.400 227.556, 327.400 227.556, 337.400 227.556, 347.400 227.556, 357.400 227.556, 367.400 227.556, 377.400 227.556, 387.400 227.556, 397.400 227.556, 407.400 227.556, 417.400 227.556, 427.400 227.556, 437.400 227.556, 447.400 227.556, 457.400 227.556, 467.400 227.556, 477.400 227.556, 487.400 227.556, 497.400 227.556, 507.400 227.556, 517.400 227.556, 527.400 227.556, 537.400 227.556, 547.400 227.556, 557.400 227.556, 567.400 227.556, 577.400 227.556, 587.400 227.556, 597.400 227.556, 606.815 237.536, 606.815 237.540, 606.815 " />
            <path fill="none" stroke-width="1.5" stroke-linecap="round" stroke-opacity="1.0" stroke="rgb(0, 0, 0)" stroke-linejoin="round" d=" M 596.834, 716.600 606.834, 716.600 616.834, 716.600 626.834, 716.600 636.834, 716.600 646.834, 716.600 656.834, 716.600 666.834, 716.600 676.834, 716.600 686.834, 716.600 696.834, 716.600 706.834, 716.600 716.834, 716.600 726.834, 716.600 736.834, 716.600 746.834, 716.600 756.834, 716.600 766.834, 716.600 776.834, 716.600 786.834, 716.600 796.444, 716.600 796.444, 716.600 796.444, 706.600 796.444, 696.639 786.444, 696.639 776.444, 696.639 766.444, 696.639 756.444, 696.639 746.444, 696.639 736.444, 696.639 726.444, 696.639 716.444, 696.639 706.444, 696.639 696.444, 696.639 686.444, 696.639 676.444, 696.639 666.444, 696.639 656.444, 696.639 646.444, 696.639 636.444, 696.639 626.444, 696.639 616.444, 696.639 606.444, 696.639 596.834, 696.639 596.834, 706.639 596.834, 716.600 596.834, 716.600 " />
            <path fill="none" stroke-width="1.5" stroke-linecap="round" stroke-opacity="1.0" stroke="rgb(0, 0, 0)" stroke-linejoin="round" d=" M 596.834, 716.600 606.834, 716.600 616.834, 716.600 626.834, 716.600 636.834, 716.600 646.834, 716.600 656.834, 716.600 666.834, 716.600 676.834, 716.600 686.834, 716.600 696.834, 716.600 706.834, 716.600 716.834, 716.600 726.834, 716.600 736.834, 716.600 746.834, 716.600 756.834, 716.600 766.834, 716.600 776.834, 716.600 786.834, 716.600 796.444, 716.600 " />
            <path fill="none" stroke-width="1.5" stroke-linecap="round" stroke-opacity="1.0" stroke="rgb(0, 0, 0)" stroke-linejoin="round" d=" M 546.932, 656.717 546.932, 656.717 546.932, 646.717 546.932, 636.717 546.932, 626.717 546.932, 616.717 546.932, 606.717 546.932, 596.717 546.932, 586.717 546.932, 576.717 546.932, 566.717 546.932, 556.912 546.932, 556.912 " />
            <path fill="none" stroke-width="1.5" stroke-linecap="round" stroke-opacity="1.0" stroke="rgb(0, 0, 0)" stroke-linejoin="round" d=" M 247.517, 656.717 257.517, 656.717 267.517, 656.717 277.517, 656.717 287.517, 656.717 297.517, 656.717 307.517, 656.717 317.517, 656.717 327.517, 656.717 337.517, 656.717 347.517, 656.717 357.517, 656.717 367.517, 656.717 377.517, 656.717 387.517, 656.717 397.517, 656.717 407.517, 656.717 417.517, 656.717 427.517, 656.717 437.517, 656.717 447.517, 656.717 457.517, 656.717 467.517, 656.717 477.517, 656.717 487.517, 656.717 497.517, 656.717 507.517, 656.717 517.517, 656.717 527.517, 656.717 537.517, 656.717 546.932, 656.717 546.932, 646.717 546.932, 636.756 546.932, 636.756 546.932, 626.756 546.932, 616.756 546.932, 606.756 546.932, 596.756 546.932, 586.756 546.932, 576.756 546.932, 566.756 546.932, 556.912 " />
            <path fill="none" stroke-width="1.5" stroke-linecap="round" stroke-opacity="1.0" stroke="rgb(0, 0, 0)" stroke-linejoin="round" d=" M 247.517, 596.795 249.464, 596.986 251.336, 597.554 253.061, 598.477 254.574, 599.718 255.815, 601.230 256.737, 602.956 257.305, 604.828 257.497, 606.775 257.493, 606.815 257.305, 608.722 256.737, 610.594 255.815, 612.320 254.574, 613.832 253.061, 615.074 251.336, 615.996 249.464, 616.564 247.517, 616.756 247.517, 616.756 " />
            <path fill="none" stroke-width="1.5" stroke-linecap="round" stroke-opacity="1.0" stroke="rgb(0, 0, 0)" stroke-linejoin="round" d=" M 237.536, 606.815 237.536, 606.855 237.728, 608.802 238.296, 610.674 239.218, 612.399 240.459, 613.912 241.972, 615.153 243.697, 616.075 245.570, 616.643 247.517, 616.835 " />
            <path fill="none" stroke-width="1.5" stroke-linecap="round" stroke-opacity="1.0" stroke="rgb(0, 0, 0)" stroke-linejoin="round" d=" M 247.517, 616.756 245.570, 616.564 243.697, 615.996 241.972, 615.074 240.459, 613.832 239.218, 612.320 238.296, 610.594 237.728, 608.722 237.540, 606.815 237.536, 606.775 237.728, 604.828 238.296, 602.956 239.218, 601.230 240.459, 599.718 241.972, 598.477 243.697, 597.554 245.570, 596.986 247.517, 596.795 " />
            <path fill="none" stroke-width="1.5" stroke-linecap="round" stroke-opacity="1.0" stroke="rgb(0, 0, 0)" stroke-linejoin="round" d=" M 237.536, 606.775 237.536, 606.815 " />
            <path fill="none" stroke-width="1.5" stroke-linecap="round" stroke-opacity="1.0" stroke="rgb(0, 0, 0)" stroke-linejoin="round" d=" M 237.540, 606.815 237.536, 606.855 " />
            <path fill="none" stroke-width="1.5" stroke-linecap="round" stroke-opacity="1.0" stroke="rgb(0, 0, 0)" stroke-linejoin="round" d=" M 247.517, 616.835 247.517, 626.835 247.517, 636.756 247.517, 636.756 247.517, 646.756 247.517, 656.717 " />
            <path fill="none" stroke-width="1.5" stroke-linecap="round" stroke-opacity="1.0" stroke="rgb(0, 0, 0)" stroke-linejoin="round" d=" M 247.517, 556.912 247.517, 566.912 247.517, 576.912 247.517, 586.912 247.517, 596.795 " />
            <path fill="none" stroke-width="1.5" stroke-linecap="round" stroke-opacity="1.0" stroke="rgb(0, 0, 0)" stroke-linejoin="round" d=" M 247.517, 596.795 247.517, 596.795 " />
            <path fill="none" stroke-width="1.5" stroke-linecap="round" stroke-opacity="1.0" stroke="rgb(0, 0, 0)" stroke-linejoin="round" d=" M 257.497, 606.815 257.497, 606.775 " />
            <path fill="none" stroke-width="1.5" stroke-linecap="round" stroke-opacity="1.0" stroke="rgb(0, 0, 0)" stroke-linejoin="round" d=" M 247.517, 656.717 247.517, 656.717 " />
            <path fill="none" stroke-width="1.5" stroke-linecap="round" stroke-opacity="1.0" stroke="rgb(0, 0, 0)" stroke-linejoin="round" d=" M 546.932, 556.912 546.932, 556.912 " />
            <path fill="none" stroke-width="1.5" stroke-linecap="round" stroke-opacity="1.0" stroke="rgb(0, 0, 0)" stroke-linejoin="round" d=" M 267.478, 556.912 257.478, 556.912 247.517, 556.912 " />
            <path fill="none" stroke-width="1.5" stroke-linecap="round" stroke-opacity="1.0" stroke="rgb(0, 0, 0)" stroke-linejoin="round" d=" M 546.932, 556.912 536.932, 556.912 526.932, 556.912 516.932, 556.912 506.932, 556.912 496.932, 556.912 486.932, 556.912 476.932, 556.912 466.932, 556.912 456.932, 556.912 446.932, 556.912 436.932, 556.912 426.932, 556.912 416.932, 556.912 406.932, 556.912 396.932, 556.912 386.932, 556.912 376.932, 556.912 366.932, 556.912 356.932, 556.912 346.932, 556.912 336.932, 556.912 326.932, 556.912 316.932, 556.912 306.932, 556.912 296.932, 556.912 286.932, 556.912 276.932, 556.912 267.478, 556.912 " />
        </g>
    </g>
</svg>
