<?xml version='1.0' encoding='ascii'?>
<svg xmlns="http://www.w3.org/2000/svg" xmlns:inkscape="http://www.inkscape.org/namespaces/inkscape" version="1.1" width="1024" height="1024">
    <g id="ViewLayer_LineSet" inkscape:groupmode="lineset" inkscape:label="ViewLayer_LineSet">
        <g inkscape:groupmode="layer" id="strokes" inkscape:label="strokes">
            <path fill="none" stroke-width="3.0" stroke-linecap="butt" stroke-opacity="1.0" stroke="rgb(0, 0, 0)" stroke-linejoin="round" d=" M 296.745, 694.967 296.745, 704.967 296.745, 714.967 296.745, 716.492 " />
            <path fill="none" stroke-width="3.0" stroke-linecap="butt" stroke-opacity="1.0" stroke="rgb(0, 0, 0)" stroke-linejoin="round" d=" M 727.255, 738.018 727.255, 728.018 727.255, 718.018 727.255, 716.492 " />
            <path fill="none" stroke-width="3.0" stroke-linecap="butt" stroke-opacity="1.0" stroke="rgb(0, 0, 0)" stroke-linejoin="round" d=" M 296.745, 716.492 296.745, 726.492 296.745, 736.492 296.745, 738.018 306.745, 738.018 316.745, 738.018 326.745, 738.018 336.745, 738.018 346.745, 738.018 356.745, 738.018 366.745, 738.018 376.745, 738.018 386.745, 738.018 396.745, 738.018 406.745, 738.018 416.745, 738.018 426.745, 738.018 436.745, 738.018 446.745, 738.018 456.745, 738.018 466.745, 738.018 476.745, 738.018 486.745, 738.018 496.745, 738.018 506.745, 738.018 516.745, 738.018 526.745, 738.018 536.745, 738.018 546.745, 738.018 556.745, 738.018 566.745, 738.018 576.745, 738.018 586.745, 738.018 596.745, 738.018 606.745, 738.018 616.745, 738.018 626.745, 738.018 636.745, 738.018 646.745, 738.018 656.745, 738.018 666.745, 738.018 676.745, 738.018 686.745, 738.018 696.745, 738.018 706.745, 738.018 716.745, 738.018 727.255, 738.018 " />
            <path fill="none" stroke-width="3.0" stroke-linecap="butt" stroke-opacity="1.0" stroke="rgb(0, 0, 0)" stroke-linejoin="round" d=" M 318.270, 285.982 308.270, 285.982 298.270, 285.982 288.270, 285.982 278.270, 285.982 275.219, 285.982 275.219, 295.982 275.219, 305.982 275.219, 315.982 275.219, 325.982 275.219, 335.982 275.219, 345.982 275.219, 355.982 275.219, 365.982 275.219, 375.982 275.219, 385.982 275.219, 395.982 275.219, 405.982 275.219, 415.982 275.219, 425.982 275.219, 435.982 275.219, 445.982 275.219, 455.982 275.219, 465.982 275.219, 475.982 275.219, 485.982 275.219, 495.982 275.219, 505.982 275.219, 515.982 275.219, 525.982 275.219, 535.982 275.219, 545.982 275.219, 555.982 275.219, 565.982 275.219, 575.982 275.219, 585.982 275.219, 595.982 275.219, 605.982 275.219, 615.982 275.219, 625.982 275.219, 635.982 275.219, 645.982 275.219, 655.982 275.219, 665.982 275.219, 675.982 275.219, 685.982 275.219, 695.982 275.219, 705.982 275.219, 716.492 " />
            <path fill="none" stroke-width="3.0" stroke-linecap="butt" stroke-opacity="1.0" stroke="rgb(0, 0, 0)" stroke-linejoin="round" d=" M 727.255, 716.492 737.255, 716.492 747.255, 716.492 748.781, 716.492 748.781, 706.492 748.781, 696.492 748.781, 686.492 748.781, 676.492 748.781, 666.492 748.781, 656.492 748.781, 646.492 748.781, 636.492 748.781, 626.492 748.781, 616.492 748.781, 606.492 748.781, 596.492 748.781, 586.492 748.781, 576.492 748.781, 566.492 748.781, 556.492 748.781, 546.492 748.781, 536.492 748.781, 526.492 748.781, 516.492 748.781, 506.492 748.781, 496.492 748.781, 486.492 748.781, 476.492 748.781, 466.492 748.781, 456.492 748.781, 446.492 748.781, 436.492 748.781, 426.492 748.781, 416.492 748.781, 406.492 748.781, 396.492 748.781, 386.492 748.781, 376.492 748.781, 366.492 748.781, 356.492 748.781, 346.492 748.781, 336.492 748.781, 326.492 748.781, 316.492 748.781, 306.492 748.781, 296.492 748.781, 285.982 " />
            <path fill="none" stroke-width="3.0" stroke-linecap="butt" stroke-opacity="1.0" stroke="rgb(0, 0, 0)" stroke-linejoin="round" d=" M 275.219, 716.492 285.219, 716.492 295.219, 716.492 296.745, 716.492 " />
            <path fill="none" stroke-width="3.0" stroke-linecap="butt" stroke-opacity="1.0" stroke="rgb(0, 0, 0)" stroke-linejoin="round" d=" M 318.270, 694.967 318.270, 684.967 318.270, 674.967 318.270, 664.967 318.270, 654.967 318.270, 644.967 318.270, 634.967 318.270, 624.967 318.270, 614.967 318.270, 604.967 318.270, 594.967 318.270, 584.967 318.270, 574.967 318.270, 564.967 318.270, 554.967 318.270, 544.967 318.270, 534.967 318.270, 524.967 318.270, 514.967 318.270, 504.967 318.270, 494.967 318.270, 484.967 318.270, 474.967 318.270, 464.967 318.270, 454.967 318.270, 444.967 318.270, 434.967 318.270, 424.967 318.270, 414.967 318.270, 404.967 318.270, 394.967 318.270, 384.967 318.270, 374.967 318.270, 364.967 318.270, 354.967 318.270, 344.967 318.270, 334.967 318.270, 324.967 318.270, 314.967 318.270, 304.967 318.270, 294.967 318.270, 285.982 " />
            <path fill="none" stroke-width="3.0" stroke-linecap="butt" stroke-opacity="1.0" stroke="rgb(0, 0, 0)" stroke-linejoin="round" d=" M 705.730, 285.982 705.730, 295.982 705.730, 305.982 705.730, 315.982 705.730, 325.982 705.730, 335.982 705.730, 345.982 705.730, 355.982 705.730, 365.982 705.730, 375.982 705.730, 385.982 705.730, 395.982 705.730, 405.982 705.730, 415.982 705.730, 425.982 705.730, 435.982 705.730, 445.982 705.730, 455.982 705.730, 465.982 705.730, 475.982 705.730, 485.982 705.730, 495.982 705.730, 505.982 705.730, 515.982 705.730, 525.982 705.730, 535.982 705.730, 545.982 705.730, 555.982 705.730, 565.982 705.730, 575.982 705.730, 585.982 705.730, 595.982 705.730, 605.982 705.730, 615.982 705.730, 625.982 705.730, 635.982 705.730, 645.982 705.730, 655.982 705.730, 665.982 705.730, 675.982 705.730, 685.982 705.730, 694.967 " />
            <path fill="none" stroke-width="3.0" stroke-linecap="butt" stroke-opacity="1.0" stroke="rgb(0, 0, 0)" stroke-linejoin="round" d=" M 318.270, 694.967 308.270, 694.967 298.270, 694.967 296.745, 694.967 " />
            <path fill="none" stroke-width="3.0" stroke-linecap="butt" stroke-opacity="1.0" stroke="rgb(0, 0, 0)" stroke-linejoin="round" d=" M 705.730, 694.967 695.730, 694.967 685.730, 694.967 675.730, 694.967 665.730, 694.967 655.730, 694.967 645.730, 694.967 635.730, 694.967 625.730, 694.967 615.730, 694.967 605.730, 694.967 595.730, 694.967 585.730, 694.967 575.730, 694.967 565.730, 694.967 555.730, 694.967 545.730, 694.967 535.730, 694.967 525.730, 694.967 515.730, 694.967 505.730, 694.967 495.730, 694.967 485.730, 694.967 475.730, 694.967 465.730, 694.967 455.730, 694.967 445.730, 694.967 435.730, 694.967 425.730, 694.967 415.730, 694.967 405.730, 694.967 395.730, 694.967 385.730, 694.967 375.730, 694.967 365.730, 694.967 355.730, 694.967 345.730, 694.967 335.730, 694.967 325.730, 694.967 318.270, 694.967 " />
            <path fill="none" stroke-width="3.0" stroke-linecap="butt" stroke-opacity="1.0" stroke="rgb(0, 0, 0)" stroke-linejoin="round" d=" M 727.255, 694.967 717.255, 694.967 707.255, 694.967 705.730, 694.967 " />
            <path fill="none" stroke-width="3.0" stroke-linecap="butt" stroke-opacity="1.0" stroke="rgb(0, 0, 0)" stroke-linejoin="round" d=" M 727.255, 716.492 727.255, 706.492 727.255, 696.492 727.255, 694.967 " />
            <path fill="none" stroke-width="3.0" stroke-linecap="butt" stroke-opacity="1.0" stroke="rgb(0, 0, 0)" stroke-linejoin="round" d=" M 705.730, 285.982 695.730, 285.982 685.730, 285.982 675.730, 285.982 665.730, 285.982 655.730, 285.982 645.730, 285.982 635.730, 285.982 625.730, 285.982 615.730, 285.982 605.730, 285.982 595.730, 285.982 585.730, 285.982 575.730, 285.982 565.730, 285.982 555.730, 285.982 545.730, 285.982 535.730, 285.982 525.730, 285.982 515.730, 285.982 505.730, 285.982 495.730, 285.982 485.730, 285.982 475.730, 285.982 465.730, 285.982 455.730, 285.982 445.730, 285.982 435.730, 285.982 425.730, 285.982 415.730, 285.982 405.730, 285.982 395.730, 285.982 385.730, 285.982 375.730, 285.982 365.730, 285.982 355.730, 285.982 345.730, 285.982 335.730, 285.982 325.730, 285.982 318.270, 285.982 " />
            <path fill="none" stroke-width="3.0" stroke-linecap="butt" stroke-opacity="1.0" stroke="rgb(0, 0, 0)" stroke-linejoin="round" d=" M 727.255, 285.982 717.255, 285.982 707.255, 285.982 705.730, 285.982 " />
            <path fill="none" stroke-width="3.0" stroke-linecap="butt" stroke-opacity="1.0" stroke="rgb(0, 0, 0)" stroke-linejoin="round" d=" M 748.781, 285.982 738.781, 285.982 728.781, 285.982 727.255, 285.982 " />
        </g>
    </g>
    <g id="ViewLayer_TechnicalLines" inkscape:groupmode="lineset" inkscape:label="ViewLayer_TechnicalLines">
        <g inkscape:groupmode="layer" id="strokes" inkscape:label="strokes">
            <path fill="none" stroke-width="3.0" stroke-linecap="butt" stroke-opacity="1.0" stroke="rgb(0, 0, 0)" stroke-linejoin="round" d=" M 296.745, 694.967 296.745, 704.967 296.745, 714.967 296.745, 716.492 " />
            <path fill="none" stroke-width="3.0" stroke-linecap="butt" stroke-opacity="1.0" stroke="rgb(0, 0, 0)" stroke-linejoin="round" d=" M 727.255, 738.018 727.255, 728.018 727.255, 718.018 727.255, 716.492 " />
            <path fill="none" stroke-width="3.0" stroke-linecap="butt" stroke-opacity="1.0" stroke="rgb(0, 0, 0)" stroke-linejoin="round" d=" M 296.745, 716.492 296.745, 726.492 296.745, 736.492 296.745, 738.018 306.745, 738.018 316.745, 738.018 326.745, 738.018 336.745, 738.018 346.745, 738.018 356.745, 738.018 366.745, 738.018 376.745, 738.018 386.745, 738.018 396.745, 738.018 406.745, 738.018 416.745, 738.018 426.745, 738.018 436.745, 738.018 446.745, 738.018 456.745, 738.018 466.745, 738.018 476.745, 738.018 486.745, 738.018 496.745, 738.018 506.745, 738.018 516.745, 738.018 526.745, 738.018 536.745, 738.018 546.745, 738.018 556.745, 738.018 566.745, 738.018 576.745, 738.018 586.745, 738.018 596.745, 738.018 606.745, 738.018 616.745, 738.018 626.745, 738.018 636.745, 738.018 646.745, 738.018 656.745, 738.018 666.745, 738.018 676.745, 738.018 686.745, 738.018 696.745, 738.018 706.745, 738.018 716.745, 738.018 727.255, 738.018 " />
            <path fill="none" stroke-width="3.0" stroke-linecap="butt" stroke-opacity="1.0" stroke="rgb(0, 0, 0)" stroke-linejoin="round" d=" M 318.270, 285.982 308.270, 285.982 298.270, 285.982 288.270, 285.982 278.270, 285.982 275.219, 285.982 275.219, 295.982 275.219, 305.982 275.219, 315.982 275.219, 325.982 275.219, 335.982 275.219, 345.982 275.219, 355.982 275.219, 365.982 275.219, 375.982 275.219, 385.982 275.219, 395.982 275.219, 405.982 275.219, 415.982 275.219, 425.982 275.219, 435.982 275.219, 445.982 275.219, 455.982 275.219, 465.982 275.219, 475.982 275.219, 485.982 275.219, 495.982 275.219, 505.982 275.219, 515.982 275.219, 525.982 275.219, 535.982 275.219, 545.982 275.219, 555.982 275.219, 565.982 275.219, 575.982 275.219, 585.982 275.219, 595.982 275.219, 605.982 275.219, 615.982 275.219, 625.982 275.219, 635.982 275.219, 645.982 275.219, 655.982 275.219, 665.982 275.219, 675.982 275.219, 685.982 275.219, 695.982 275.219, 705.982 275.219, 716.492 " />
            <path fill="none" stroke-width="3.0" stroke-linecap="butt" stroke-opacity="1.0" stroke="rgb(0, 0, 0)" stroke-linejoin="round" d=" M 727.255, 716.492 737.255, 716.492 747.255, 716.492 748.781, 716.492 748.781, 706.492 748.781, 696.492 748.781, 686.492 748.781, 676.492 748.781, 666.492 748.781, 656.492 748.781, 646.492 748.781, 636.492 748.781, 626.492 748.781, 616.492 748.781, 606.492 748.781, 596.492 748.781, 586.492 748.781, 576.492 748.781, 566.492 748.781, 556.492 748.781, 546.492 748.781, 536.492 748.781, 526.492 748.781, 516.492 748.781, 506.492 748.781, 496.492 748.781, 486.492 748.781, 476.492 748.781, 466.492 748.781, 456.492 748.781, 446.492 748.781, 436.492 748.781, 426.492 748.781, 416.492 748.781, 406.492 748.781, 396.492 748.781, 386.492 748.781, 376.492 748.781, 366.492 748.781, 356.492 748.781, 346.492 748.781, 336.492 748.781, 326.492 748.781, 316.492 748.781, 306.492 748.781, 296.492 748.781, 285.982 " />
            <path fill="none" stroke-width="3.0" stroke-linecap="butt" stroke-opacity="1.0" stroke="rgb(0, 0, 0)" stroke-linejoin="round" d=" M 275.219, 716.492 285.219, 716.492 295.219, 716.492 296.745, 716.492 " />
            <path fill="none" stroke-width="3.0" stroke-linecap="butt" stroke-opacity="1.0" stroke="rgb(0, 0, 0)" stroke-linejoin="round" d=" M 318.270, 694.967 318.270, 684.967 318.270, 674.967 318.270, 664.967 318.270, 654.967 318.270, 644.967 318.270, 634.967 318.270, 624.967 318.270, 614.967 318.270, 604.967 318.270, 594.967 318.270, 584.967 318.270, 574.967 318.270, 564.967 318.270, 554.967 318.270, 544.967 318.270, 534.967 318.270, 524.967 318.270, 514.967 318.270, 504.967 318.270, 494.967 318.270, 484.967 318.270, 474.967 318.270, 464.967 318.270, 454.967 318.270, 444.967 318.270, 434.967 318.270, 424.967 318.270, 414.967 318.270, 404.967 318.270, 394.967 318.270, 384.967 318.270, 374.967 318.270, 364.967 318.270, 354.967 318.270, 344.967 318.270, 334.967 318.270, 324.967 318.270, 314.967 318.270, 304.967 318.270, 294.967 318.270, 285.982 " />
            <path fill="none" stroke-width="3.0" stroke-linecap="butt" stroke-opacity="1.0" stroke="rgb(0, 0, 0)" stroke-linejoin="round" d=" M 705.730, 285.982 705.730, 295.982 705.730, 305.982 705.730, 315.982 705.730, 325.982 705.730, 335.982 705.730, 345.982 705.730, 355.982 705.730, 365.982 705.730, 375.982 705.730, 385.982 705.730, 395.982 705.730, 405.982 705.730, 415.982 705.730, 425.982 705.730, 435.982 705.730, 445.982 705.730, 455.982 705.730, 465.982 705.730, 475.982 705.730, 485.982 705.730, 495.982 705.730, 505.982 705.730, 515.982 705.730, 525.982 705.730, 535.982 705.730, 545.982 705.730, 555.982 705.730, 565.982 705.730, 575.982 705.730, 585.982 705.730, 595.982 705.730, 605.982 705.730, 615.982 705.730, 625.982 705.730, 635.982 705.730, 645.982 705.730, 655.982 705.730, 665.982 705.730, 675.982 705.730, 685.982 705.730, 694.967 " />
            <path fill="none" stroke-width="3.0" stroke-linecap="butt" stroke-opacity="1.0" stroke="rgb(0, 0, 0)" stroke-linejoin="round" d=" M 318.270, 694.967 308.270, 694.967 298.270, 694.967 296.745, 694.967 " />
            <path fill="none" stroke-width="3.0" stroke-linecap="butt" stroke-opacity="1.0" stroke="rgb(0, 0, 0)" stroke-linejoin="round" d=" M 705.730, 694.967 695.730, 694.967 685.730, 694.967 675.730, 694.967 665.730, 694.967 655.730, 694.967 645.730, 694.967 635.730, 694.967 625.730, 694.967 615.730, 694.967 605.730, 694.967 595.730, 694.967 585.730, 694.967 575.730, 694.967 565.730, 694.967 555.730, 694.967 545.730, 694.967 535.730, 694.967 525.730, 694.967 515.730, 694.967 505.730, 694.967 495.730, 694.967 485.730, 694.967 475.730, 694.967 465.730, 694.967 455.730, 694.967 445.730, 694.967 435.730, 694.967 425.730, 694.967 415.730, 694.967 405.730, 694.967 395.730, 694.967 385.730, 694.967 375.730, 694.967 365.730, 694.967 355.730, 694.967 345.730, 694.967 335.730, 694.967 325.730, 694.967 318.270, 694.967 " />
            <path fill="none" stroke-width="3.0" stroke-linecap="butt" stroke-opacity="1.0" stroke="rgb(0, 0, 0)" stroke-linejoin="round" d=" M 727.255, 694.967 717.255, 694.967 707.255, 694.967 705.730, 694.967 " />
            <path fill="none" stroke-width="3.0" stroke-linecap="butt" stroke-opacity="1.0" stroke="rgb(0, 0, 0)" stroke-linejoin="round" d=" M 727.255, 716.492 727.255, 706.492 727.255, 696.492 727.255, 694.967 " />
            <path fill="none" stroke-width="3.0" stroke-linecap="butt" stroke-opacity="1.0" stroke="rgb(0, 0, 0)" stroke-linejoin="round" d=" M 705.730, 285.982 695.730, 285.982 685.730, 285.982 675.730, 285.982 665.730, 285.982 655.730, 285.982 645.730, 285.982 635.730, 285.982 625.730, 285.982 615.730, 285.982 605.730, 285.982 595.730, 285.982 585.730, 285.982 575.730, 285.982 565.730, 285.982 555.730, 285.982 545.730, 285.982 535.730, 285.982 525.730, 285.982 515.730, 285.982 505.730, 285.982 495.730, 285.982 485.730, 285.982 475.730, 285.982 465.730, 285.982 455.730, 285.982 445.730, 285.982 435.730, 285.982 425.730, 285.982 415.730, 285.982 405.730, 285.982 395.730, 285.982 385.730, 285.982 375.730, 285.982 365.730, 285.982 355.730, 285.982 345.730, 285.982 335.730, 285.982 325.730, 285.982 318.270, 285.982 " />
            <path fill="none" stroke-width="3.0" stroke-linecap="butt" stroke-opacity="1.0" stroke="rgb(0, 0, 0)" stroke-linejoin="round" d=" M 727.255, 285.982 717.255, 285.982 707.255, 285.982 705.730, 285.982 " />
            <path fill="none" stroke-width="3.0" stroke-linecap="butt" stroke-opacity="1.0" stroke="rgb(0, 0, 0)" stroke-linejoin="round" d=" M 748.781, 285.982 738.781, 285.982 728.781, 285.982 727.255, 285.982 " />
        </g>
    </g>
    <g id="ViewLayer_TechnicalLines.001" inkscape:groupmode="lineset" inkscape:label="ViewLayer_TechnicalLines.001">
        <g inkscape:groupmode="layer" id="strokes" inkscape:label="strokes">
            <path fill="none" stroke-width="1.5" stroke-linecap="round" stroke-opacity="1.0" stroke="rgb(0, 0, 0)" stroke-linejoin="round" d=" M 296.745, 694.967 296.745, 704.967 296.745, 714.967 296.745, 716.492 " />
            <path fill="none" stroke-width="1.5" stroke-linecap="round" stroke-opacity="1.0" stroke="rgb(0, 0, 0)" stroke-linejoin="round" d=" M 727.255, 738.018 727.255, 728.018 727.255, 718.018 727.255, 716.492 " />
            <path fill="none" stroke-width="1.5" stroke-linecap="round" stroke-opacity="1.0" stroke="rgb(0, 0, 0)" stroke-linejoin="round" d=" M 296.745, 716.492 296.745, 726.492 296.745, 736.492 296.745, 738.018 306.745, 738.018 316.745, 738.018 326.745, 738.018 336.745, 738.018 346.745, 738.018 356.745, 738.018 366.745, 738.018 376.745, 738.018 386.745, 738.018 396.745, 738.018 406.745, 738.018 416.745, 738.018 426.745, 738.018 436.745, 738.018 446.745, 738.018 456.745, 738.018 466.745, 738.018 476.745, 738.018 486.745, 738.018 496.745, 738.018 506.745, 738.018 516.745, 738.018 526.745, 738.018 536.745, 738.018 546.745, 738.018 556.745, 738.018 566.745, 738.018 576.745, 738.018 586.745, 738.018 596.745, 738.018 606.745, 738.018 616.745, 738.018 626.745, 738.018 636.745, 738.018 646.745, 738.018 656.745, 738.018 666.745, 738.018 676.745, 738.018 686.745, 738.018 696.745, 738.018 706.745, 738.018 716.745, 738.018 727.255, 738.018 " />
            <path fill="none" stroke-width="1.5" stroke-linecap="round" stroke-opacity="1.0" stroke="rgb(0, 0, 0)" stroke-linejoin="round" d=" M 318.270, 285.982 308.270, 285.982 298.270, 285.982 288.270, 285.982 278.270, 285.982 275.219, 285.982 275.219, 295.982 275.219, 305.982 275.219, 315.982 275.219, 325.982 275.219, 335.982 275.219, 345.982 275.219, 355.982 275.219, 365.982 275.219, 375.982 275.219, 385.982 275.219, 395.982 275.219, 405.982 275.219, 415.982 275.219, 425.982 275.219, 435.982 275.219, 445.982 275.219, 455.982 275.219, 465.982 275.219, 475.982 275.219, 485.982 275.219, 495.982 275.219, 505.982 275.219, 515.982 275.219, 525.982 275.219, 535.982 275.219, 545.982 275.219, 555.982 275.219, 565.982 275.219, 575.982 275.219, 585.982 275.219, 595.982 275.219, 605.982 275.219, 615.982 275.219, 625.982 275.219, 635.982 275.219, 645.982 275.219, 655.982 275.219, 665.982 275.219, 675.982 275.219, 685.982 275.219, 695.982 275.219, 705.982 275.219, 716.492 " />
            <path fill="none" stroke-width="1.5" stroke-linecap="round" stroke-opacity="1.0" stroke="rgb(0, 0, 0)" stroke-linejoin="round" d=" M 727.255, 716.492 737.255, 716.492 747.255, 716.492 748.781, 716.492 748.781, 706.492 748.781, 696.492 748.781, 686.492 748.781, 676.492 748.781, 666.492 748.781, 656.492 748.781, 646.492 748.781, 636.492 748.781, 626.492 748.781, 616.492 748.781, 606.492 748.781, 596.492 748.781, 586.492 748.781, 576.492 748.781, 566.492 748.781, 556.492 748.781, 546.492 748.781, 536.492 748.781, 526.492 748.781, 516.492 748.781, 506.492 748.781, 496.492 748.781, 486.492 748.781, 476.492 748.781, 466.492 748.781, 456.492 748.781, 446.492 748.781, 436.492 748.781, 426.492 748.781, 416.492 748.781, 406.492 748.781, 396.492 748.781, 386.492 748.781, 376.492 748.781, 366.492 748.781, 356.492 748.781, 346.492 748.781, 336.492 748.781, 326.492 748.781, 316.492 748.781, 306.492 748.781, 296.492 748.781, 285.982 " />
            <path fill="none" stroke-width="1.5" stroke-linecap="round" stroke-opacity="1.0" stroke="rgb(0, 0, 0)" stroke-linejoin="round" d=" M 275.219, 716.492 285.219, 716.492 295.219, 716.492 296.745, 716.492 " />
            <path fill="none" stroke-width="1.5" stroke-linecap="round" stroke-opacity="1.0" stroke="rgb(0, 0, 0)" stroke-linejoin="round" d=" M 318.270, 694.967 318.270, 684.967 318.270, 674.967 318.270, 664.967 318.270, 654.967 318.270, 644.967 318.270, 634.967 318.270, 624.967 318.270, 614.967 318.270, 604.967 318.270, 594.967 318.270, 584.967 318.270, 574.967 318.270, 564.967 318.270, 554.967 318.270, 544.967 318.270, 534.967 318.270, 524.967 318.270, 514.967 318.270, 504.967 318.270, 494.967 318.270, 484.967 318.270, 474.967 318.270, 464.967 318.270, 454.967 318.270, 444.967 318.270, 434.967 318.270, 424.967 318.270, 414.967 318.270, 404.967 318.270, 394.967 318.270, 384.967 318.270, 374.967 318.270, 364.967 318.270, 354.967 318.270, 344.967 318.270, 334.967 318.270, 324.967 318.270, 314.967 318.270, 304.967 318.270, 294.967 318.270, 285.982 " />
            <path fill="none" stroke-width="1.5" stroke-linecap="round" stroke-opacity="1.0" stroke="rgb(0, 0, 0)" stroke-linejoin="round" d=" M 705.730, 285.982 705.730, 295.982 705.730, 305.982 705.730, 315.982 705.730, 325.982 705.730, 335.982 705.730, 345.982 705.730, 355.982 705.730, 365.982 705.730, 375.982 705.730, 385.982 705.730, 395.982 705.730, 405.982 705.730, 415.982 705.730, 425.982 705.730, 435.982 705.730, 445.982 705.730, 455.982 705.730, 465.982 705.730, 475.982 705.730, 485.982 705.730, 495.982 705.730, 505.982 705.730, 515.982 705.730, 525.982 705.730, 535.982 705.730, 545.982 705.730, 555.982 705.730, 565.982 705.730, 575.982 705.730, 585.982 705.730, 595.982 705.730, 605.982 705.730, 615.982 705.730, 625.982 705.730, 635.982 705.730, 645.982 705.730, 655.982 705.730, 665.982 705.730, 675.982 705.730, 685.982 705.730, 694.967 " />
            <path fill="none" stroke-width="1.5" stroke-linecap="round" stroke-opacity="1.0" stroke="rgb(0, 0, 0)" stroke-linejoin="round" d=" M 318.270, 694.967 308.270, 694.967 298.270, 694.967 296.745, 694.967 " />
            <path fill="none" stroke-width="1.5" stroke-linecap="round" stroke-opacity="1.0" stroke="rgb(0, 0, 0)" stroke-linejoin="round" d=" M 705.730, 694.967 695.730, 694.967 685.730, 694.967 675.730, 694.967 665.730, 694.967 655.730, 694.967 645.730, 694.967 635.730, 694.967 625.730, 694.967 615.730, 694.967 605.730, 694.967 595.730, 694.967 585.730, 694.967 575.730, 694.967 565.730, 694.967 555.730, 694.967 545.730, 694.967 535.730, 694.967 525.730, 694.967 515.730, 694.967 505.730, 694.967 495.730, 694.967 485.730, 694.967 475.730, 694.967 465.730, 694.967 455.730, 694.967 445.730, 694.967 435.730, 694.967 425.730, 694.967 415.730, 694.967 405.730, 694.967 395.730, 694.967 385.730, 694.967 375.730, 694.967 365.730, 694.967 355.730, 694.967 345.730, 694.967 335.730, 694.967 325.730, 694.967 318.270, 694.967 " />
            <path fill="none" stroke-width="1.5" stroke-linecap="round" stroke-opacity="1.0" stroke="rgb(0, 0, 0)" stroke-linejoin="round" d=" M 727.255, 694.967 717.255, 694.967 707.255, 694.967 705.730, 694.967 " />
            <path fill="none" stroke-width="1.5" stroke-linecap="round" stroke-opacity="1.0" stroke="rgb(0, 0, 0)" stroke-linejoin="round" d=" M 727.255, 716.492 727.255, 706.492 727.255, 696.492 727.255, 694.967 " />
            <path fill="none" stroke-width="1.5" stroke-linecap="round" stroke-opacity="1.0" stroke="rgb(0, 0, 0)" stroke-linejoin="round" d=" M 705.730, 285.982 695.730, 285.982 685.730, 285.982 675.730, 285.982 665.730, 285.982 655.730, 285.982 645.730, 285.982 635.730, 285.982 625.730, 285.982 615.730, 285.982 605.730, 285.982 595.730, 285.982 585.730, 285.982 575.730, 285.982 565.730, 285.982 555.730, 285.982 545.730, 285.982 535.730, 285.982 525.730, 285.982 515.730, 285.982 505.730, 285.982 495.730, 285.982 485.730, 285.982 475.730, 285.982 465.730, 285.982 455.730, 285.982 445.730, 285.982 435.730, 285.982 425.730, 285.982 415.730, 285.982 405.730, 285.982 395.730, 285.982 385.730, 285.982 375.730, 285.982 365.730, 285.982 355.730, 285.982 345.730, 285.982 335.730, 285.982 325.730, 285.982 318.270, 285.982 " />
            <path fill="none" stroke-width="1.5" stroke-linecap="round" stroke-opacity="1.0" stroke="rgb(0, 0, 0)" stroke-linejoin="round" d=" M 727.255, 285.982 717.255, 285.982 707.255, 285.982 705.730, 285.982 " />
            <path fill="none" stroke-width="1.5" stroke-linecap="round" stroke-opacity="1.0" stroke="rgb(0, 0, 0)" stroke-linejoin="round" d=" M 748.781, 285.982 738.781, 285.982 728.781, 285.982 727.255, 285.982 " />
        </g>
    </g>
    <g id="ViewLayer_TechnicalLines.002" inkscape:groupmode="lineset" inkscape:label="ViewLayer_TechnicalLines.002">
        <g inkscape:groupmode="layer" id="strokes" inkscape:label="strokes">
            <path fill="none" stroke-width="1.5" stroke-linecap="round" stroke-opacity="1.0" stroke="rgb(0, 0, 0)" stroke-linejoin="round" d=" M 296.745, 694.967 296.745, 704.967 296.745, 714.967 296.745, 716.492 " />
            <path fill="none" stroke-width="1.5" stroke-linecap="round" stroke-opacity="1.0" stroke="rgb(0, 0, 0)" stroke-linejoin="round" d=" M 727.255, 738.018 727.255, 728.018 727.255, 718.018 727.255, 716.492 " />
            <path fill="none" stroke-width="1.5" stroke-linecap="round" stroke-opacity="1.0" stroke="rgb(0, 0, 0)" stroke-linejoin="round" d=" M 296.745, 716.492 296.745, 726.492 296.745, 736.492 296.745, 738.018 306.745, 738.018 316.745, 738.018 326.745, 738.018 336.745, 738.018 346.745, 738.018 356.745, 738.018 366.745, 738.018 376.745, 738.018 386.745, 738.018 396.745, 738.018 406.745, 738.018 416.745, 738.018 426.745, 738.018 436.745, 738.018 446.745, 738.018 456.745, 738.018 466.745, 738.018 476.745, 738.018 486.745, 738.018 496.745, 738.018 506.745, 738.018 516.745, 738.018 526.745, 738.018 536.745, 738.018 546.745, 738.018 556.745, 738.018 566.745, 738.018 576.745, 738.018 586.745, 738.018 596.745, 738.018 606.745, 738.018 616.745, 738.018 626.745, 738.018 636.745, 738.018 646.745, 738.018 656.745, 738.018 666.745, 738.018 676.745, 738.018 686.745, 738.018 696.745, 738.018 706.745, 738.018 716.745, 738.018 727.255, 738.018 " />
            <path fill="none" stroke-width="1.5" stroke-linecap="round" stroke-opacity="1.0" stroke="rgb(0, 0, 0)" stroke-linejoin="round" d=" M 318.270, 285.982 308.270, 285.982 298.270, 285.982 288.270, 285.982 278.270, 285.982 275.219, 285.982 275.219, 295.982 275.219, 305.982 275.219, 315.982 275.219, 325.982 275.219, 335.982 275.219, 345.982 275.219, 355.982 275.219, 365.982 275.219, 375.982 275.219, 385.982 275.219, 395.982 275.219, 405.982 275.219, 415.982 275.219, 425.982 275.219, 435.982 275.219, 445.982 275.219, 455.982 275.219, 465.982 275.219, 475.982 275.219, 485.982 275.219, 495.982 275.219, 505.982 275.219, 515.982 275.219, 525.982 275.219, 535.982 275.219, 545.982 275.219, 555.982 275.219, 565.982 275.219, 575.982 275.219, 585.982 275.219, 595.982 275.219, 605.982 275.219, 615.982 275.219, 625.982 275.219, 635.982 275.219, 645.982 275.219, 655.982 275.219, 665.982 275.219, 675.982 275.219, 685.982 275.219, 695.982 275.219, 705.982 275.219, 716.492 " />
            <path fill="none" stroke-width="1.5" stroke-linecap="round" stroke-opacity="1.0" stroke="rgb(0, 0, 0)" stroke-linejoin="round" d=" M 727.255, 716.492 737.255, 716.492 747.255, 716.492 748.781, 716.492 748.781, 706.492 748.781, 696.492 748.781, 686.492 748.781, 676.492 748.781, 666.492 748.781, 656.492 748.781, 646.492 748.781, 636.492 748.781, 626.492 748.781, 616.492 748.781, 606.492 748.781, 596.492 748.781, 586.492 748.781, 576.492 748.781, 566.492 748.781, 556.492 748.781, 546.492 748.781, 536.492 748.781, 526.492 748.781, 516.492 748.781, 506.492 748.781, 496.492 748.781, 486.492 748.781, 476.492 748.781, 466.492 748.781, 456.492 748.781, 446.492 748.781, 436.492 748.781, 426.492 748.781, 416.492 748.781, 406.492 748.781, 396.492 748.781, 386.492 748.781, 376.492 748.781, 366.492 748.781, 356.492 748.781, 346.492 748.781, 336.492 748.781, 326.492 748.781, 316.492 748.781, 306.492 748.781, 296.492 748.781, 285.982 " />
            <path fill="none" stroke-width="1.5" stroke-linecap="round" stroke-opacity="1.0" stroke="rgb(0, 0, 0)" stroke-linejoin="round" d=" M 275.219, 716.492 285.219, 716.492 295.219, 716.492 296.745, 716.492 " />
            <path fill="none" stroke-width="1.5" stroke-linecap="round" stroke-opacity="1.0" stroke="rgb(0, 0, 0)" stroke-linejoin="round" d=" M 318.270, 694.967 318.270, 684.967 318.270, 674.967 318.270, 664.967 318.270, 654.967 318.270, 644.967 318.270, 634.967 318.270, 624.967 318.270, 614.967 318.270, 604.967 318.270, 594.967 318.270, 584.967 318.270, 574.967 318.270, 564.967 318.270, 554.967 318.270, 544.967 318.270, 534.967 318.270, 524.967 318.270, 514.967 318.270, 504.967 318.270, 494.967 318.270, 484.967 318.270, 474.967 318.270, 464.967 318.270, 454.967 318.270, 444.967 318.270, 434.967 318.270, 424.967 318.270, 414.967 318.270, 404.967 318.270, 394.967 318.270, 384.967 318.270, 374.967 318.270, 364.967 318.270, 354.967 318.270, 344.967 318.270, 334.967 318.270, 324.967 318.270, 314.967 318.270, 304.967 318.270, 294.967 318.270, 285.982 " />
            <path fill="none" stroke-width="1.5" stroke-linecap="round" stroke-opacity="1.0" stroke="rgb(0, 0, 0)" stroke-linejoin="round" d=" M 705.730, 285.982 705.730, 295.982 705.730, 305.982 705.730, 315.982 705.730, 325.982 705.730, 335.982 705.730, 345.982 705.730, 355.982 705.730, 365.982 705.730, 375.982 705.730, 385.982 705.730, 395.982 705.730, 405.982 705.730, 415.982 705.730, 425.982 705.730, 435.982 705.730, 445.982 705.730, 455.982 705.730, 465.982 705.730, 475.982 705.730, 485.982 705.730, 495.982 705.730, 505.982 705.730, 515.982 705.730, 525.982 705.730, 535.982 705.730, 545.982 705.730, 555.982 705.730, 565.982 705.730, 575.982 705.730, 585.982 705.730, 595.982 705.730, 605.982 705.730, 615.982 705.730, 625.982 705.730, 635.982 705.730, 645.982 705.730, 655.982 705.730, 665.982 705.730, 675.982 705.730, 685.982 705.730, 694.967 " />
            <path fill="none" stroke-width="1.5" stroke-linecap="round" stroke-opacity="1.0" stroke="rgb(0, 0, 0)" stroke-linejoin="round" d=" M 318.270, 694.967 308.270, 694.967 298.270, 694.967 296.745, 694.967 " />
            <path fill="none" stroke-width="1.5" stroke-linecap="round" stroke-opacity="1.0" stroke="rgb(0, 0, 0)" stroke-linejoin="round" d=" M 705.730, 694.967 695.730, 694.967 685.730, 694.967 675.730, 694.967 665.730, 694.967 655.730, 694.967 645.730, 694.967 635.730, 694.967 625.730, 694.967 615.730, 694.967 605.730, 694.967 595.730, 694.967 585.730, 694.967 575.730, 694.967 565.730, 694.967 555.730, 694.967 545.730, 694.967 535.730, 694.967 525.730, 694.967 515.730, 694.967 505.730, 694.967 495.730, 694.967 485.730, 694.967 475.730, 694.967 465.730, 694.967 455.730, 694.967 445.730, 694.967 435.730, 694.967 425.730, 694.967 415.730, 694.967 405.730, 694.967 395.730, 694.967 385.730, 694.967 375.730, 694.967 365.730, 694.967 355.730, 694.967 345.730, 694.967 335.730, 694.967 325.730, 694.967 318.270, 694.967 " />
            <path fill="none" stroke-width="1.5" stroke-linecap="round" stroke-opacity="1.0" stroke="rgb(0, 0, 0)" stroke-linejoin="round" d=" M 727.255, 694.967 717.255, 694.967 707.255, 694.967 705.730, 694.967 " />
            <path fill="none" stroke-width="1.5" stroke-linecap="round" stroke-opacity="1.0" stroke="rgb(0, 0, 0)" stroke-linejoin="round" d=" M 727.255, 716.492 727.255, 706.492 727.255, 696.492 727.255, 694.967 " />
            <path fill="none" stroke-width="1.5" stroke-linecap="round" stroke-opacity="1.0" stroke="rgb(0, 0, 0)" stroke-linejoin="round" d=" M 705.730, 285.982 695.730, 285.982 685.730, 285.982 675.730, 285.982 665.730, 285.982 655.730, 285.982 645.730, 285.982 635.730, 285.982 625.730, 285.982 615.730, 285.982 605.730, 285.982 595.730, 285.982 585.730, 285.982 575.730, 285.982 565.730, 285.982 555.730, 285.982 545.730, 285.982 535.730, 285.982 525.730, 285.982 515.730, 285.982 505.730, 285.982 495.730, 285.982 485.730, 285.982 475.730, 285.982 465.730, 285.982 455.730, 285.982 445.730, 285.982 435.730, 285.982 425.730, 285.982 415.730, 285.982 405.730, 285.982 395.730, 285.982 385.730, 285.982 375.730, 285.982 365.730, 285.982 355.730, 285.982 345.730, 285.982 335.730, 285.982 325.730, 285.982 318.270, 285.982 " />
            <path fill="none" stroke-width="1.5" stroke-linecap="round" stroke-opacity="1.0" stroke="rgb(0, 0, 0)" stroke-linejoin="round" d=" M 727.255, 285.982 717.255, 285.982 707.255, 285.982 705.730, 285.982 " />
            <path fill="none" stroke-width="1.5" stroke-linecap="round" stroke-opacity="1.0" stroke="rgb(0, 0, 0)" stroke-linejoin="round" d=" M 748.781, 285.982 738.781, 285.982 728.781, 285.982 727.255, 285.982 " />
        </g>
    </g>
    <g id="ViewLayer_TechnicalLines.003" inkscape:groupmode="lineset" inkscape:label="ViewLayer_TechnicalLines.003">
        <g inkscape:groupmode="layer" id="strokes" inkscape:label="strokes">
            <path fill="none" stroke-width="1.5" stroke-linecap="round" stroke-opacity="1.0" stroke="rgb(0, 0, 0)" stroke-linejoin="round" d=" M 296.745, 694.967 296.745, 704.967 296.745, 714.967 296.745, 716.492 " />
            <path fill="none" stroke-width="1.5" stroke-linecap="round" stroke-opacity="1.0" stroke="rgb(0, 0, 0)" stroke-linejoin="round" d=" M 727.255, 738.018 727.255, 728.018 727.255, 718.018 727.255, 716.492 " />
            <path fill="none" stroke-width="1.5" stroke-linecap="round" stroke-opacity="1.0" stroke="rgb(0, 0, 0)" stroke-linejoin="round" d=" M 296.745, 716.492 296.745, 726.492 296.745, 736.492 296.745, 738.018 306.745, 738.018 316.745, 738.018 326.745, 738.018 336.745, 738.018 346.745, 738.018 356.745, 738.018 366.745, 738.018 376.745, 738.018 386.745, 738.018 396.745, 738.018 406.745, 738.018 416.745, 738.018 426.745, 738.018 436.745, 738.018 446.745, 738.018 456.745, 738.018 466.745, 738.018 476.745, 738.018 486.745, 738.018 496.745, 738.018 506.745, 738.018 516.745, 738.018 526.745, 738.018 536.745, 738.018 546.745, 738.018 556.745, 738.018 566.745, 738.018 576.745, 738.018 586.745, 738.018 596.745, 738.018 606.745, 738.018 616.745, 738.018 626.745, 738.018 636.745, 738.018 646.745, 738.018 656.745, 738.018 666.745, 738.018 676.745, 738.018 686.745, 738.018 696.745, 738.018 706.745, 738.018 716.745, 738.018 727.255, 738.018 " />
            <path fill="none" stroke-width="1.5" stroke-linecap="round" stroke-opacity="1.0" stroke="rgb(0, 0, 0)" stroke-linejoin="round" d=" M 318.270, 285.982 308.270, 285.982 298.270, 285.982 288.270, 285.982 278.270, 285.982 275.219, 285.982 275.219, 295.982 275.219, 305.982 275.219, 315.982 275.219, 325.982 275.219, 335.982 275.219, 345.982 275.219, 355.982 275.219, 365.982 275.219, 375.982 275.219, 385.982 275.219, 395.982 275.219, 405.982 275.219, 415.982 275.219, 425.982 275.219, 435.982 275.219, 445.982 275.219, 455.982 275.219, 465.982 275.219, 475.982 275.219, 485.982 275.219, 495.982 275.219, 505.982 275.219, 515.982 275.219, 525.982 275.219, 535.982 275.219, 545.982 275.219, 555.982 275.219, 565.982 275.219, 575.982 275.219, 585.982 275.219, 595.982 275.219, 605.982 275.219, 615.982 275.219, 625.982 275.219, 635.982 275.219, 645.982 275.219, 655.982 275.219, 665.982 275.219, 675.982 275.219, 685.982 275.219, 695.982 275.219, 705.982 275.219, 716.492 " />
            <path fill="none" stroke-width="1.5" stroke-linecap="round" stroke-opacity="1.0" stroke="rgb(0, 0, 0)" stroke-linejoin="round" d=" M 727.255, 716.492 737.255, 716.492 747.255, 716.492 748.781, 716.492 748.781, 706.492 748.781, 696.492 748.781, 686.492 748.781, 676.492 748.781, 666.492 748.781, 656.492 748.781, 646.492 748.781, 636.492 748.781, 626.492 748.781, 616.492 748.781, 606.492 748.781, 596.492 748.781, 586.492 748.781, 576.492 748.781, 566.492 748.781, 556.492 748.781, 546.492 748.781, 536.492 748.781, 526.492 748.781, 516.492 748.781, 506.492 748.781, 496.492 748.781, 486.492 748.781, 476.492 748.781, 466.492 748.781, 456.492 748.781, 446.492 748.781, 436.492 748.781, 426.492 748.781, 416.492 748.781, 406.492 748.781, 396.492 748.781, 386.492 748.781, 376.492 748.781, 366.492 748.781, 356.492 748.781, 346.492 748.781, 336.492 748.781, 326.492 748.781, 316.492 748.781, 306.492 748.781, 296.492 748.781, 285.982 " />
            <path fill="none" stroke-width="1.5" stroke-linecap="round" stroke-opacity="1.0" stroke="rgb(0, 0, 0)" stroke-linejoin="round" d=" M 275.219, 716.492 285.219, 716.492 295.219, 716.492 296.745, 716.492 " />
            <path fill="none" stroke-width="1.5" stroke-linecap="round" stroke-opacity="1.0" stroke="rgb(0, 0, 0)" stroke-linejoin="round" d=" M 318.270, 694.967 318.270, 684.967 318.270, 674.967 318.270, 664.967 318.270, 654.967 318.270, 644.967 318.270, 634.967 318.270, 624.967 318.270, 614.967 318.270, 604.967 318.270, 594.967 318.270, 584.967 318.270, 574.967 318.270, 564.967 318.270, 554.967 318.270, 544.967 318.270, 534.967 318.270, 524.967 318.270, 514.967 318.270, 504.967 318.270, 494.967 318.270, 484.967 318.270, 474.967 318.270, 464.967 318.270, 454.967 318.270, 444.967 318.270, 434.967 318.270, 424.967 318.270, 414.967 318.270, 404.967 318.270, 394.967 318.270, 384.967 318.270, 374.967 318.270, 364.967 318.270, 354.967 318.270, 344.967 318.270, 334.967 318.270, 324.967 318.270, 314.967 318.270, 304.967 318.270, 294.967 318.270, 285.982 " />
            <path fill="none" stroke-width="1.5" stroke-linecap="round" stroke-opacity="1.0" stroke="rgb(0, 0, 0)" stroke-linejoin="round" d=" M 705.730, 285.982 705.730, 295.982 705.730, 305.982 705.730, 315.982 705.730, 325.982 705.730, 335.982 705.730, 345.982 705.730, 355.982 705.730, 365.982 705.730, 375.982 705.730, 385.982 705.730, 395.982 705.730, 405.982 705.730, 415.982 705.730, 425.982 705.730, 435.982 705.730, 445.982 705.730, 455.982 705.730, 465.982 705.730, 475.982 705.730, 485.982 705.730, 495.982 705.730, 505.982 705.730, 515.982 705.730, 525.982 705.730, 535.982 705.730, 545.982 705.730, 555.982 705.730, 565.982 705.730, 575.982 705.730, 585.982 705.730, 595.982 705.730, 605.982 705.730, 615.982 705.730, 625.982 705.730, 635.982 705.730, 645.982 705.730, 655.982 705.730, 665.982 705.730, 675.982 705.730, 685.982 705.730, 694.967 " />
            <path fill="none" stroke-width="1.5" stroke-linecap="round" stroke-opacity="1.0" stroke="rgb(0, 0, 0)" stroke-linejoin="round" d=" M 318.270, 694.967 308.270, 694.967 298.270, 694.967 296.745, 694.967 " />
            <path fill="none" stroke-width="1.5" stroke-linecap="round" stroke-opacity="1.0" stroke="rgb(0, 0, 0)" stroke-linejoin="round" d=" M 705.730, 694.967 695.730, 694.967 685.730, 694.967 675.730, 694.967 665.730, 694.967 655.730, 694.967 645.730, 694.967 635.730, 694.967 625.730, 694.967 615.730, 694.967 605.730, 694.967 595.730, 694.967 585.730, 694.967 575.730, 694.967 565.730, 694.967 555.730, 694.967 545.730, 694.967 535.730, 694.967 525.730, 694.967 515.730, 694.967 505.730, 694.967 495.730, 694.967 485.730, 694.967 475.730, 694.967 465.730, 694.967 455.730, 694.967 445.730, 694.967 435.730, 694.967 425.730, 694.967 415.730, 694.967 405.730, 694.967 395.730, 694.967 385.730, 694.967 375.730, 694.967 365.730, 694.967 355.730, 694.967 345.730, 694.967 335.730, 694.967 325.730, 694.967 318.270, 694.967 " />
            <path fill="none" stroke-width="1.5" stroke-linecap="round" stroke-opacity="1.0" stroke="rgb(0, 0, 0)" stroke-linejoin="round" d=" M 727.255, 694.967 717.255, 694.967 707.255, 694.967 705.730, 694.967 " />
            <path fill="none" stroke-width="1.5" stroke-linecap="round" stroke-opacity="1.0" stroke="rgb(0, 0, 0)" stroke-linejoin="round" d=" M 727.255, 716.492 727.255, 706.492 727.255, 696.492 727.255, 694.967 " />
            <path fill="none" stroke-width="1.5" stroke-linecap="round" stroke-opacity="1.0" stroke="rgb(0, 0, 0)" stroke-linejoin="round" d=" M 705.730, 285.982 695.730, 285.982 685.730, 285.982 675.730, 285.982 665.730, 285.982 655.730, 285.982 645.730, 285.982 635.730, 285.982 625.730, 285.982 615.730, 285.982 605.730, 285.982 595.730, 285.982 585.730, 285.982 575.730, 285.982 565.730, 285.982 555.730, 285.982 545.730, 285.982 535.730, 285.982 525.730, 285.982 515.730, 285.982 505.730, 285.982 495.730, 285.982 485.730, 285.982 475.730, 285.982 465.730, 285.982 455.730, 285.982 445.730, 285.982 435.730, 285.982 425.730, 285.982 415.730, 285.982 405.730, 285.982 395.730, 285.982 385.730, 285.982 375.730, 285.982 365.730, 285.982 355.730, 285.982 345.730, 285.982 335.730, 285.982 325.730, 285.982 318.270, 285.982 " />
            <path fill="none" stroke-width="1.5" stroke-linecap="round" stroke-opacity="1.0" stroke="rgb(0, 0, 0)" stroke-linejoin="round" d=" M 727.255, 285.982 717.255, 285.982 707.255, 285.982 705.730, 285.982 " />
            <path fill="none" stroke-width="1.5" stroke-linecap="round" stroke-opacity="1.0" stroke="rgb(0, 0, 0)" stroke-linejoin="round" d=" M 748.781, 285.982 738.781, 285.982 728.781, 285.982 727.255, 285.982 " />
        </g>
    </g>
    <g id="ViewLayer_TechnicalLines.004" xmlns:inkscape="http://www.inkscape.org/namespaces/inkscape" inkscape:groupmode="lineset" inkscape:label="ViewLayer_TechnicalLines.004">
        <g xmlns:inkscape="http://www.inkscape.org/namespaces/inkscape" inkscape:groupmode="layer" id="strokes" inkscape:label="strokes">
            <path fill="none" stroke-width="1.5" stroke-linecap="round" stroke-opacity="1.0" stroke="rgb(0, 0, 0)" stroke-linejoin="round" d=" M 296.745, 694.967 296.745, 704.967 296.745, 714.967 296.745, 716.492 " />
            <path fill="none" stroke-width="1.5" stroke-linecap="round" stroke-opacity="1.0" stroke="rgb(0, 0, 0)" stroke-linejoin="round" d=" M 727.255, 738.018 727.255, 728.018 727.255, 718.018 727.255, 716.492 " />
            <path fill="none" stroke-width="1.5" stroke-linecap="round" stroke-opacity="1.0" stroke="rgb(0, 0, 0)" stroke-linejoin="round" d=" M 296.745, 716.492 296.745, 726.492 296.745, 736.492 296.745, 738.018 306.745, 738.018 316.745, 738.018 326.745, 738.018 336.745, 738.018 346.745, 738.018 356.745, 738.018 366.745, 738.018 376.745, 738.018 386.745, 738.018 396.745, 738.018 406.745, 738.018 416.745, 738.018 426.745, 738.018 436.745, 738.018 446.745, 738.018 456.745, 738.018 466.745, 738.018 476.745, 738.018 486.745, 738.018 496.745, 738.018 506.745, 738.018 516.745, 738.018 526.745, 738.018 536.745, 738.018 546.745, 738.018 556.745, 738.018 566.745, 738.018 576.745, 738.018 586.745, 738.018 596.745, 738.018 606.745, 738.018 616.745, 738.018 626.745, 738.018 636.745, 738.018 646.745, 738.018 656.745, 738.018 666.745, 738.018 676.745, 738.018 686.745, 738.018 696.745, 738.018 706.745, 738.018 716.745, 738.018 727.255, 738.018 " />
            <path fill="none" stroke-width="1.5" stroke-linecap="round" stroke-opacity="1.0" stroke="rgb(0, 0, 0)" stroke-linejoin="round" d=" M 318.270, 285.982 308.270, 285.982 298.270, 285.982 288.270, 285.982 278.270, 285.982 275.219, 285.982 275.219, 295.982 275.219, 305.982 275.219, 315.982 275.219, 325.982 275.219, 335.982 275.219, 345.982 275.219, 355.982 275.219, 365.982 275.219, 375.982 275.219, 385.982 275.219, 395.982 275.219, 405.982 275.219, 415.982 275.219, 425.982 275.219, 435.982 275.219, 445.982 275.219, 455.982 275.219, 465.982 275.219, 475.982 275.219, 485.982 275.219, 495.982 275.219, 505.982 275.219, 515.982 275.219, 525.982 275.219, 535.982 275.219, 545.982 275.219, 555.982 275.219, 565.982 275.219, 575.982 275.219, 585.982 275.219, 595.982 275.219, 605.982 275.219, 615.982 275.219, 625.982 275.219, 635.982 275.219, 645.982 275.219, 655.982 275.219, 665.982 275.219, 675.982 275.219, 685.982 275.219, 695.982 275.219, 705.982 275.219, 716.492 " />
            <path fill="none" stroke-width="1.5" stroke-linecap="round" stroke-opacity="1.0" stroke="rgb(0, 0, 0)" stroke-linejoin="round" d=" M 727.255, 716.492 737.255, 716.492 747.255, 716.492 748.781, 716.492 748.781, 706.492 748.781, 696.492 748.781, 686.492 748.781, 676.492 748.781, 666.492 748.781, 656.492 748.781, 646.492 748.781, 636.492 748.781, 626.492 748.781, 616.492 748.781, 606.492 748.781, 596.492 748.781, 586.492 748.781, 576.492 748.781, 566.492 748.781, 556.492 748.781, 546.492 748.781, 536.492 748.781, 526.492 748.781, 516.492 748.781, 506.492 748.781, 496.492 748.781, 486.492 748.781, 476.492 748.781, 466.492 748.781, 456.492 748.781, 446.492 748.781, 436.492 748.781, 426.492 748.781, 416.492 748.781, 406.492 748.781, 396.492 748.781, 386.492 748.781, 376.492 748.781, 366.492 748.781, 356.492 748.781, 346.492 748.781, 336.492 748.781, 326.492 748.781, 316.492 748.781, 306.492 748.781, 296.492 748.781, 285.982 " />
            <path fill="none" stroke-width="1.5" stroke-linecap="round" stroke-opacity="1.0" stroke="rgb(0, 0, 0)" stroke-linejoin="round" d=" M 275.219, 716.492 285.219, 716.492 295.219, 716.492 296.745, 716.492 " />
            <path fill="none" stroke-width="1.5" stroke-linecap="round" stroke-opacity="1.0" stroke="rgb(0, 0, 0)" stroke-linejoin="round" d=" M 318.270, 694.967 318.270, 684.967 318.270, 674.967 318.270, 664.967 318.270, 654.967 318.270, 644.967 318.270, 634.967 318.270, 624.967 318.270, 614.967 318.270, 604.967 318.270, 594.967 318.270, 584.967 318.270, 574.967 318.270, 564.967 318.270, 554.967 318.270, 544.967 318.270, 534.967 318.270, 524.967 318.270, 514.967 318.270, 504.967 318.270, 494.967 318.270, 484.967 318.270, 474.967 318.270, 464.967 318.270, 454.967 318.270, 444.967 318.270, 434.967 318.270, 424.967 318.270, 414.967 318.270, 404.967 318.270, 394.967 318.270, 384.967 318.270, 374.967 318.270, 364.967 318.270, 354.967 318.270, 344.967 318.270, 334.967 318.270, 324.967 318.270, 314.967 318.270, 304.967 318.270, 294.967 318.270, 285.982 " />
            <path fill="none" stroke-width="1.5" stroke-linecap="round" stroke-opacity="1.0" stroke="rgb(0, 0, 0)" stroke-linejoin="round" d=" M 705.730, 285.982 705.730, 295.982 705.730, 305.982 705.730, 315.982 705.730, 325.982 705.730, 335.982 705.730, 345.982 705.730, 355.982 705.730, 365.982 705.730, 375.982 705.730, 385.982 705.730, 395.982 705.730, 405.982 705.730, 415.982 705.730, 425.982 705.730, 435.982 705.730, 445.982 705.730, 455.982 705.730, 465.982 705.730, 475.982 705.730, 485.982 705.730, 495.982 705.730, 505.982 705.730, 515.982 705.730, 525.982 705.730, 535.982 705.730, 545.982 705.730, 555.982 705.730, 565.982 705.730, 575.982 705.730, 585.982 705.730, 595.982 705.730, 605.982 705.730, 615.982 705.730, 625.982 705.730, 635.982 705.730, 645.982 705.730, 655.982 705.730, 665.982 705.730, 675.982 705.730, 685.982 705.730, 694.967 " />
            <path fill="none" stroke-width="1.5" stroke-linecap="round" stroke-opacity="1.0" stroke="rgb(0, 0, 0)" stroke-linejoin="round" d=" M 318.270, 694.967 308.270, 694.967 298.270, 694.967 296.745, 694.967 " />
            <path fill="none" stroke-width="1.5" stroke-linecap="round" stroke-opacity="1.0" stroke="rgb(0, 0, 0)" stroke-linejoin="round" d=" M 705.730, 694.967 695.730, 694.967 685.730, 694.967 675.730, 694.967 665.730, 694.967 655.730, 694.967 645.730, 694.967 635.730, 694.967 625.730, 694.967 615.730, 694.967 605.730, 694.967 595.730, 694.967 585.730, 694.967 575.730, 694.967 565.730, 694.967 555.730, 694.967 545.730, 694.967 535.730, 694.967 525.730, 694.967 515.730, 694.967 505.730, 694.967 495.730, 694.967 485.730, 694.967 475.730, 694.967 465.730, 694.967 455.730, 694.967 445.730, 694.967 435.730, 694.967 425.730, 694.967 415.730, 694.967 405.730, 694.967 395.730, 694.967 385.730, 694.967 375.730, 694.967 365.730, 694.967 355.730, 694.967 345.730, 694.967 335.730, 694.967 325.730, 694.967 318.270, 694.967 " />
            <path fill="none" stroke-width="1.5" stroke-linecap="round" stroke-opacity="1.0" stroke="rgb(0, 0, 0)" stroke-linejoin="round" d=" M 727.255, 694.967 717.255, 694.967 707.255, 694.967 705.730, 694.967 " />
            <path fill="none" stroke-width="1.5" stroke-linecap="round" stroke-opacity="1.0" stroke="rgb(0, 0, 0)" stroke-linejoin="round" d=" M 727.255, 716.492 727.255, 706.492 727.255, 696.492 727.255, 694.967 " />
            <path fill="none" stroke-width="1.5" stroke-linecap="round" stroke-opacity="1.0" stroke="rgb(0, 0, 0)" stroke-linejoin="round" d=" M 705.730, 285.982 695.730, 285.982 685.730, 285.982 675.730, 285.982 665.730, 285.982 655.730, 285.982 645.730, 285.982 635.730, 285.982 625.730, 285.982 615.730, 285.982 605.730, 285.982 595.730, 285.982 585.730, 285.982 575.730, 285.982 565.730, 285.982 555.730, 285.982 545.730, 285.982 535.730, 285.982 525.730, 285.982 515.730, 285.982 505.730, 285.982 495.730, 285.982 485.730, 285.982 475.730, 285.982 465.730, 285.982 455.730, 285.982 445.730, 285.982 435.730, 285.982 425.730, 285.982 415.730, 285.982 405.730, 285.982 395.730, 285.982 385.730, 285.982 375.730, 285.982 365.730, 285.982 355.730, 285.982 345.730, 285.982 335.730, 285.982 325.730, 285.982 318.270, 285.982 " />
            <path fill="none" stroke-width="1.5" stroke-linecap="round" stroke-opacity="1.0" stroke="rgb(0, 0, 0)" stroke-linejoin="round" d=" M 727.255, 285.982 717.255, 285.982 707.255, 285.982 705.730, 285.982 " />
            <path fill="none" stroke-width="1.5" stroke-linecap="round" stroke-opacity="1.0" stroke="rgb(0, 0, 0)" stroke-linejoin="round" d=" M 748.781, 285.982 738.781, 285.982 728.781, 285.982 727.255, 285.982 " />
        </g>
    </g>
</svg>
