<?xml version='1.0' encoding='ascii'?>
<svg xmlns="http://www.w3.org/2000/svg" xmlns:inkscape="http://www.inkscape.org/namespaces/inkscape" version="1.1" width="1024" height="1024">
    <g id="ViewLayer_LineSet" inkscape:groupmode="lineset" inkscape:label="ViewLayer_LineSet">
        <g inkscape:groupmode="layer" id="strokes" inkscape:label="strokes">
            <path fill="none" stroke-width="3.0" stroke-linecap="butt" stroke-opacity="1.0" stroke="rgb(0, 0, 0)" stroke-linejoin="round" d=" M 266.344, 744.727 276.344, 744.727 286.344, 744.727 296.344, 744.727 306.344, 744.727 316.344, 744.727 326.344, 744.727 336.344, 744.727 346.344, 744.727 356.344, 744.727 366.344, 744.727 376.344, 744.727 386.344, 744.727 396.344, 744.727 406.344, 744.727 416.344, 744.727 426.344, 744.727 436.344, 744.727 446.344, 744.727 456.344, 744.727 466.344, 744.727 476.344, 744.727 486.344, 744.727 496.344, 744.727 506.344, 744.727 516.344, 744.727 526.344, 744.727 536.344, 744.727 546.344, 744.727 556.344, 744.727 566.344, 744.727 576.344, 744.727 586.344, 744.727 596.344, 744.727 606.344, 744.727 616.344, 744.727 626.344, 744.727 636.344, 744.727 646.344, 744.727 656.344, 744.727 666.344, 744.727 676.344, 744.727 686.344, 744.727 696.344, 744.727 706.344, 744.727 716.344, 744.727 726.344, 744.727 736.344, 744.727 746.344, 744.727 756.344, 744.727 766.344, 744.727 776.344, 744.727 783.515, 744.727 783.515, 744.727 783.515, 734.727 783.515, 724.727 783.515, 714.727 783.515, 704.727 783.515, 694.727 783.515, 693.010 773.515, 693.010 763.515, 693.010 753.515, 693.010 743.515, 693.010 733.515, 693.010 723.515, 693.010 713.515, 693.010 703.515, 693.010 693.515, 693.010 683.515, 693.010 673.515, 693.010 663.515, 693.010 653.515, 693.010 643.515, 693.010 633.515, 693.010 623.515, 693.010 613.515, 693.010 603.515, 693.010 593.515, 693.010 583.515, 693.010 573.515, 693.010 563.515, 693.010 553.515, 693.010 543.515, 693.010 533.515, 693.010 523.515, 693.010 513.515, 693.010 503.515, 693.010 493.515, 693.010 483.515, 693.010 473.515, 693.010 463.515, 693.010 453.515, 693.010 443.515, 693.010 433.515, 693.010 423.515, 693.010 413.515, 693.010 403.515, 693.010 393.515, 693.010 383.515, 693.010 373.515, 693.010 363.515, 693.010 353.515, 693.010 343.515, 693.010 333.515, 693.010 323.515, 693.010 313.515, 693.010 303.515, 693.010 293.515, 693.010 283.515, 693.010 273.515, 693.010 266.344, 693.010 266.344, 703.010 266.344, 713.010 266.344, 723.010 266.344, 733.010 266.344, 743.010 266.344, 744.727 266.344, 744.727 " />
            <path fill="none" stroke-width="3.0" stroke-linecap="butt" stroke-opacity="1.0" stroke="rgb(0, 0, 0)" stroke-linejoin="round" d=" M 266.344, 744.727 276.344, 744.727 286.344, 744.727 296.344, 744.727 306.344, 744.727 316.344, 744.727 326.344, 744.727 336.344, 744.727 346.344, 744.727 356.344, 744.727 366.344, 744.727 376.344, 744.727 386.344, 744.727 396.344, 744.727 406.344, 744.727 416.343, 744.727 426.344, 744.727 436.343, 744.727 446.344, 744.727 456.344, 744.727 466.344, 744.727 476.344, 744.727 486.343, 744.727 496.344, 744.727 506.343, 744.727 516.344, 744.727 526.344, 744.727 536.344, 744.727 546.344, 744.727 556.344, 744.727 566.344, 744.727 576.344, 744.727 586.344, 744.727 596.344, 744.727 606.344, 744.727 616.344, 744.727 626.344, 744.727 636.344, 744.727 646.344, 744.727 656.344, 744.727 666.344, 744.727 676.344, 744.727 686.344, 744.727 696.344, 744.727 706.344, 744.727 716.344, 744.727 726.344, 744.727 736.344, 744.727 746.344, 744.727 756.344, 744.727 766.344, 744.727 776.344, 744.727 783.515, 744.727 " />
            <path fill="none" stroke-width="3.0" stroke-linecap="butt" stroke-opacity="1.0" stroke="rgb(0, 0, 0)" stroke-linejoin="round" d=" M 292.202, 524.929 292.202, 514.929 292.202, 504.929 292.202, 494.929 292.202, 484.929 292.202, 474.929 292.202, 464.929 292.202, 454.929 292.202, 444.929 292.202, 434.929 292.202, 424.929 292.202, 414.929 292.202, 404.929 292.202, 394.929 292.202, 384.929 292.202, 374.929 292.202, 364.929 292.202, 354.929 292.202, 344.929 292.202, 334.929 292.202, 324.929 292.202, 314.929 292.202, 304.929 292.202, 294.929 292.202, 284.929 292.202, 279.273 292.202, 279.273 282.202, 279.273 272.202, 279.273 262.202, 279.273 252.202, 279.273 242.202, 279.273 240.485, 279.273 240.485, 289.273 240.485, 299.273 240.485, 309.273 240.485, 319.273 240.485, 329.273 240.485, 339.273 240.485, 349.273 240.485, 359.273 240.485, 369.273 240.485, 379.273 240.485, 389.273 240.485, 399.273 240.485, 409.273 240.485, 419.273 240.485, 429.273 240.485, 439.273 240.485, 449.273 240.485, 459.273 240.485, 469.273 240.485, 479.273 240.485, 489.273 240.485, 499.273 240.485, 509.273 240.485, 519.273 240.485, 529.273 240.485, 537.859 240.485, 537.859 250.485, 537.859 260.485, 537.859 266.344, 537.859 " />
            <path fill="none" stroke-width="3.0" stroke-linecap="butt" stroke-opacity="1.0" stroke="rgb(0, 0, 0)" stroke-linejoin="round" d=" M 292.202, 279.273 292.202, 289.273 292.202, 299.273 292.202, 309.273 292.202, 319.273 292.202, 329.273 292.202, 339.273 292.202, 349.273 292.202, 359.273 292.202, 369.273 292.202, 379.273 292.202, 389.273 292.202, 399.273 292.202, 409.273 292.202, 419.273 292.202, 429.273 292.202, 439.273 292.202, 449.273 292.202, 459.273 292.202, 469.273 292.202, 479.273 292.202, 489.273 292.202, 499.273 292.202, 509.273 292.202, 519.273 292.202, 524.929 " />
            <path fill="none" stroke-width="3.0" stroke-linecap="butt" stroke-opacity="1.0" stroke="rgb(0, 0, 0)" stroke-linejoin="round" d=" M 240.485, 537.859 250.485, 537.859 260.485, 537.859 266.344, 537.859 " />
            <path fill="none" stroke-width="3.0" stroke-linecap="butt" stroke-opacity="1.0" stroke="rgb(0, 0, 0)" stroke-linejoin="round" d=" M 783.515, 654.222 783.515, 644.222 783.515, 634.222 783.515, 624.222 783.515, 614.222 783.515, 604.222 783.515, 594.222 783.515, 584.222 783.515, 574.222 783.515, 564.222 783.515, 554.222 783.515, 544.222 783.515, 534.222 783.515, 524.929 " />
            <path fill="none" stroke-width="3.0" stroke-linecap="butt" stroke-opacity="1.0" stroke="rgb(0, 0, 0)" stroke-linejoin="round" d=" M 266.344, 524.929 266.344, 534.929 266.344, 537.859 266.344, 537.859 266.344, 547.859 266.344, 557.859 266.344, 567.859 266.344, 577.859 266.344, 587.859 266.344, 597.859 266.344, 607.859 266.344, 617.859 266.344, 627.859 266.344, 637.859 266.344, 647.859 266.344, 654.222 " />
            <path fill="none" stroke-width="3.0" stroke-linecap="butt" stroke-opacity="1.0" stroke="rgb(0, 0, 0)" stroke-linejoin="round" d=" M 266.344, 654.222 276.344, 654.222 286.344, 654.222 296.344, 654.222 306.344, 654.222 316.344, 654.222 326.344, 654.222 336.344, 654.222 346.344, 654.222 356.344, 654.222 366.344, 654.222 376.344, 654.222 386.344, 654.222 396.344, 654.222 406.344, 654.222 416.344, 654.222 426.344, 654.222 436.344, 654.222 446.344, 654.222 456.344, 654.222 466.344, 654.222 476.344, 654.222 486.344, 654.222 496.344, 654.222 506.344, 654.222 516.344, 654.222 526.344, 654.222 536.344, 654.222 546.344, 654.222 556.344, 654.222 566.344, 654.222 576.344, 654.222 586.344, 654.222 596.344, 654.222 606.344, 654.222 616.344, 654.222 626.344, 654.222 636.344, 654.222 646.344, 654.222 656.344, 654.222 666.344, 654.222 676.344, 654.222 686.344, 654.222 696.344, 654.222 706.344, 654.222 716.344, 654.222 726.344, 654.222 736.344, 654.222 746.344, 654.222 756.344, 654.222 766.344, 654.222 776.344, 654.222 783.515, 654.222 " />
            <path fill="none" stroke-width="3.0" stroke-linecap="butt" stroke-opacity="1.0" stroke="rgb(0, 0, 0)" stroke-linejoin="round" d=" M 266.344, 654.222 266.344, 654.222 " />
            <path fill="none" stroke-width="3.0" stroke-linecap="butt" stroke-opacity="1.0" stroke="rgb(0, 0, 0)" stroke-linejoin="round" d=" M 783.515, 524.929 783.515, 524.929 " />
            <path fill="none" stroke-width="3.0" stroke-linecap="butt" stroke-opacity="1.0" stroke="rgb(0, 0, 0)" stroke-linejoin="round" d=" M 783.515, 524.929 773.515, 524.929 763.515, 524.929 753.515, 524.929 743.515, 524.929 733.515, 524.929 723.515, 524.929 713.515, 524.929 703.515, 524.929 693.515, 524.929 683.515, 524.929 673.515, 524.929 663.515, 524.929 653.515, 524.929 643.515, 524.929 633.515, 524.929 623.515, 524.929 613.515, 524.929 603.515, 524.929 593.515, 524.929 583.515, 524.929 573.515, 524.929 563.515, 524.929 553.515, 524.929 543.515, 524.929 533.515, 524.929 523.515, 524.929 513.515, 524.929 503.515, 524.929 493.515, 524.929 483.515, 524.929 473.515, 524.929 463.515, 524.929 453.515, 524.929 443.515, 524.929 433.515, 524.929 423.515, 524.929 413.515, 524.929 403.515, 524.929 393.515, 524.929 383.515, 524.929 373.515, 524.929 363.515, 524.929 353.515, 524.929 343.515, 524.929 333.515, 524.929 323.515, 524.929 313.515, 524.929 303.515, 524.929 292.202, 524.929 292.202, 524.929 282.202, 524.929 272.202, 524.929 266.344, 524.929 " />
        </g>
    </g>
    <g id="ViewLayer_TechnicalLines" inkscape:groupmode="lineset" inkscape:label="ViewLayer_TechnicalLines">
        <g inkscape:groupmode="layer" id="strokes" inkscape:label="strokes">
            <path fill="none" stroke-width="3.0" stroke-linecap="butt" stroke-opacity="1.0" stroke="rgb(0, 0, 0)" stroke-linejoin="round" d=" M 266.344, 744.727 276.344, 744.727 286.344, 744.727 296.344, 744.727 306.344, 744.727 316.344, 744.727 326.344, 744.727 336.344, 744.727 346.344, 744.727 356.344, 744.727 366.344, 744.727 376.344, 744.727 386.344, 744.727 396.344, 744.727 406.344, 744.727 416.344, 744.727 426.344, 744.727 436.344, 744.727 446.344, 744.727 456.344, 744.727 466.344, 744.727 476.344, 744.727 486.344, 744.727 496.344, 744.727 506.344, 744.727 516.344, 744.727 526.344, 744.727 536.344, 744.727 546.344, 744.727 556.344, 744.727 566.344, 744.727 576.344, 744.727 586.344, 744.727 596.344, 744.727 606.344, 744.727 616.344, 744.727 626.344, 744.727 636.344, 744.727 646.344, 744.727 656.344, 744.727 666.344, 744.727 676.344, 744.727 686.344, 744.727 696.344, 744.727 706.344, 744.727 716.344, 744.727 726.344, 744.727 736.344, 744.727 746.344, 744.727 756.344, 744.727 766.344, 744.727 776.344, 744.727 783.515, 744.727 783.515, 744.727 783.515, 734.727 783.515, 724.727 783.515, 714.727 783.515, 704.727 783.515, 694.727 783.515, 693.010 773.515, 693.010 763.515, 693.010 753.515, 693.010 743.515, 693.010 733.515, 693.010 723.515, 693.010 713.515, 693.010 703.515, 693.010 693.515, 693.010 683.515, 693.010 673.515, 693.010 663.515, 693.010 653.515, 693.010 643.515, 693.010 633.515, 693.010 623.515, 693.010 613.515, 693.010 603.515, 693.010 593.515, 693.010 583.515, 693.010 573.515, 693.010 563.515, 693.010 553.515, 693.010 543.515, 693.010 533.515, 693.010 523.515, 693.010 513.515, 693.010 503.515, 693.010 493.515, 693.010 483.515, 693.010 473.515, 693.010 463.515, 693.010 453.515, 693.010 443.515, 693.010 433.515, 693.010 423.515, 693.010 413.515, 693.010 403.515, 693.010 393.515, 693.010 383.515, 693.010 373.515, 693.010 363.515, 693.010 353.515, 693.010 343.515, 693.010 333.515, 693.010 323.515, 693.010 313.515, 693.010 303.515, 693.010 293.515, 693.010 283.515, 693.010 273.515, 693.010 266.344, 693.010 266.344, 703.010 266.344, 713.010 266.344, 723.010 266.344, 733.010 266.344, 743.010 266.344, 744.727 266.344, 744.727 " />
            <path fill="none" stroke-width="3.0" stroke-linecap="butt" stroke-opacity="1.0" stroke="rgb(0, 0, 0)" stroke-linejoin="round" d=" M 266.344, 744.727 276.344, 744.727 286.344, 744.727 296.344, 744.727 306.344, 744.727 316.344, 744.727 326.344, 744.727 336.344, 744.727 346.344, 744.727 356.344, 744.727 366.344, 744.727 376.344, 744.727 386.344, 744.727 396.344, 744.727 406.344, 744.727 416.343, 744.727 426.344, 744.727 436.343, 744.727 446.344, 744.727 456.344, 744.727 466.344, 744.727 476.344, 744.727 486.343, 744.727 496.344, 744.727 506.343, 744.727 516.344, 744.727 526.344, 744.727 536.344, 744.727 546.344, 744.727 556.344, 744.727 566.344, 744.727 576.344, 744.727 586.344, 744.727 596.344, 744.727 606.344, 744.727 616.344, 744.727 626.344, 744.727 636.344, 744.727 646.344, 744.727 656.344, 744.727 666.344, 744.727 676.344, 744.727 686.344, 744.727 696.344, 744.727 706.344, 744.727 716.344, 744.727 726.344, 744.727 736.344, 744.727 746.344, 744.727 756.344, 744.727 766.344, 744.727 776.344, 744.727 783.515, 744.727 " />
            <path fill="none" stroke-width="3.0" stroke-linecap="butt" stroke-opacity="1.0" stroke="rgb(0, 0, 0)" stroke-linejoin="round" d=" M 292.202, 524.929 292.202, 514.929 292.202, 504.929 292.202, 494.929 292.202, 484.929 292.202, 474.929 292.202, 464.929 292.202, 454.929 292.202, 444.929 292.202, 434.929 292.202, 424.929 292.202, 414.929 292.202, 404.929 292.202, 394.929 292.202, 384.929 292.202, 374.929 292.202, 364.929 292.202, 354.929 292.202, 344.929 292.202, 334.929 292.202, 324.929 292.202, 314.929 292.202, 304.929 292.202, 294.929 292.202, 284.929 292.202, 279.273 292.202, 279.273 282.202, 279.273 272.202, 279.273 262.202, 279.273 252.202, 279.273 242.202, 279.273 240.485, 279.273 240.485, 289.273 240.485, 299.273 240.485, 309.273 240.485, 319.273 240.485, 329.273 240.485, 339.273 240.485, 349.273 240.485, 359.273 240.485, 369.273 240.485, 379.273 240.485, 389.273 240.485, 399.273 240.485, 409.273 240.485, 419.273 240.485, 429.273 240.485, 439.273 240.485, 449.273 240.485, 459.273 240.485, 469.273 240.485, 479.273 240.485, 489.273 240.485, 499.273 240.485, 509.273 240.485, 519.273 240.485, 529.273 240.485, 537.859 240.485, 537.859 250.485, 537.859 260.485, 537.859 266.344, 537.859 " />
            <path fill="none" stroke-width="3.0" stroke-linecap="butt" stroke-opacity="1.0" stroke="rgb(0, 0, 0)" stroke-linejoin="round" d=" M 292.202, 279.273 292.202, 289.273 292.202, 299.273 292.202, 309.273 292.202, 319.273 292.202, 329.273 292.202, 339.273 292.202, 349.273 292.202, 359.273 292.202, 369.273 292.202, 379.273 292.202, 389.273 292.202, 399.273 292.202, 409.273 292.202, 419.273 292.202, 429.273 292.202, 439.273 292.202, 449.273 292.202, 459.273 292.202, 469.273 292.202, 479.273 292.202, 489.273 292.202, 499.273 292.202, 509.273 292.202, 519.273 292.202, 524.929 " />
            <path fill="none" stroke-width="3.0" stroke-linecap="butt" stroke-opacity="1.0" stroke="rgb(0, 0, 0)" stroke-linejoin="round" d=" M 240.485, 537.859 250.485, 537.859 260.485, 537.859 266.344, 537.859 " />
            <path fill="none" stroke-width="3.0" stroke-linecap="butt" stroke-opacity="1.0" stroke="rgb(0, 0, 0)" stroke-linejoin="round" d=" M 783.515, 654.222 783.515, 644.222 783.515, 634.222 783.515, 624.222 783.515, 614.222 783.515, 604.222 783.515, 594.222 783.515, 584.222 783.515, 574.222 783.515, 564.222 783.515, 554.222 783.515, 544.222 783.515, 534.222 783.515, 524.929 " />
            <path fill="none" stroke-width="3.0" stroke-linecap="butt" stroke-opacity="1.0" stroke="rgb(0, 0, 0)" stroke-linejoin="round" d=" M 266.344, 524.929 266.344, 534.929 266.344, 537.859 266.344, 537.859 266.344, 547.859 266.344, 557.859 266.344, 567.859 266.344, 577.859 266.344, 587.859 266.344, 597.859 266.344, 607.859 266.344, 617.859 266.344, 627.859 266.344, 637.859 266.344, 647.859 266.344, 654.222 " />
            <path fill="none" stroke-width="3.0" stroke-linecap="butt" stroke-opacity="1.0" stroke="rgb(0, 0, 0)" stroke-linejoin="round" d=" M 266.344, 654.222 276.344, 654.222 286.344, 654.222 296.344, 654.222 306.344, 654.222 316.344, 654.222 326.344, 654.222 336.344, 654.222 346.344, 654.222 356.344, 654.222 366.344, 654.222 376.344, 654.222 386.344, 654.222 396.344, 654.222 406.344, 654.222 416.344, 654.222 426.344, 654.222 436.344, 654.222 446.344, 654.222 456.344, 654.222 466.344, 654.222 476.344, 654.222 486.344, 654.222 496.344, 654.222 506.344, 654.222 516.344, 654.222 526.344, 654.222 536.344, 654.222 546.344, 654.222 556.344, 654.222 566.344, 654.222 576.344, 654.222 586.344, 654.222 596.344, 654.222 606.344, 654.222 616.344, 654.222 626.344, 654.222 636.344, 654.222 646.344, 654.222 656.344, 654.222 666.344, 654.222 676.344, 654.222 686.344, 654.222 696.344, 654.222 706.344, 654.222 716.344, 654.222 726.344, 654.222 736.344, 654.222 746.344, 654.222 756.344, 654.222 766.344, 654.222 776.344, 654.222 783.515, 654.222 " />
            <path fill="none" stroke-width="3.0" stroke-linecap="butt" stroke-opacity="1.0" stroke="rgb(0, 0, 0)" stroke-linejoin="round" d=" M 266.344, 654.222 266.344, 654.222 " />
            <path fill="none" stroke-width="3.0" stroke-linecap="butt" stroke-opacity="1.0" stroke="rgb(0, 0, 0)" stroke-linejoin="round" d=" M 783.515, 524.929 783.515, 524.929 " />
            <path fill="none" stroke-width="3.0" stroke-linecap="butt" stroke-opacity="1.0" stroke="rgb(0, 0, 0)" stroke-linejoin="round" d=" M 783.515, 524.929 773.515, 524.929 763.515, 524.929 753.515, 524.929 743.515, 524.929 733.515, 524.929 723.515, 524.929 713.515, 524.929 703.515, 524.929 693.515, 524.929 683.515, 524.929 673.515, 524.929 663.515, 524.929 653.515, 524.929 643.515, 524.929 633.515, 524.929 623.515, 524.929 613.515, 524.929 603.515, 524.929 593.515, 524.929 583.515, 524.929 573.515, 524.929 563.515, 524.929 553.515, 524.929 543.515, 524.929 533.515, 524.929 523.515, 524.929 513.515, 524.929 503.515, 524.929 493.515, 524.929 483.515, 524.929 473.515, 524.929 463.515, 524.929 453.515, 524.929 443.515, 524.929 433.515, 524.929 423.515, 524.929 413.515, 524.929 403.515, 524.929 393.515, 524.929 383.515, 524.929 373.515, 524.929 363.515, 524.929 353.515, 524.929 343.515, 524.929 333.515, 524.929 323.515, 524.929 313.515, 524.929 303.515, 524.929 292.202, 524.929 292.202, 524.929 282.202, 524.929 272.202, 524.929 266.344, 524.929 " />
        </g>
    </g>
    <g id="ViewLayer_TechnicalLines.001" inkscape:groupmode="lineset" inkscape:label="ViewLayer_TechnicalLines.001">
        <g inkscape:groupmode="layer" id="strokes" inkscape:label="strokes">
            <path fill="none" stroke-width="1.5" stroke-linecap="round" stroke-opacity="1.0" stroke="rgb(0, 0, 0)" stroke-linejoin="round" d=" M 266.344, 744.727 276.344, 744.727 286.344, 744.727 296.344, 744.727 306.344, 744.727 316.344, 744.727 326.344, 744.727 336.344, 744.727 346.344, 744.727 356.344, 744.727 366.344, 744.727 376.344, 744.727 386.344, 744.727 396.344, 744.727 406.344, 744.727 416.344, 744.727 426.344, 744.727 436.344, 744.727 446.344, 744.727 456.344, 744.727 466.344, 744.727 476.344, 744.727 486.344, 744.727 496.344, 744.727 506.344, 744.727 516.344, 744.727 526.344, 744.727 536.344, 744.727 546.344, 744.727 556.344, 744.727 566.344, 744.727 576.344, 744.727 586.344, 744.727 596.344, 744.727 606.344, 744.727 616.344, 744.727 626.344, 744.727 636.344, 744.727 646.344, 744.727 656.344, 744.727 666.344, 744.727 676.344, 744.727 686.344, 744.727 696.344, 744.727 706.344, 744.727 716.344, 744.727 726.344, 744.727 736.344, 744.727 746.344, 744.727 756.344, 744.727 766.344, 744.727 776.344, 744.727 783.515, 744.727 783.515, 744.727 783.515, 734.727 783.515, 724.727 783.515, 714.727 783.515, 704.727 783.515, 694.727 783.515, 693.010 773.515, 693.010 763.515, 693.010 753.515, 693.010 743.515, 693.010 733.515, 693.010 723.515, 693.010 713.515, 693.010 703.515, 693.010 693.515, 693.010 683.515, 693.010 673.515, 693.010 663.515, 693.010 653.515, 693.010 643.515, 693.010 633.515, 693.010 623.515, 693.010 613.515, 693.010 603.515, 693.010 593.515, 693.010 583.515, 693.010 573.515, 693.010 563.515, 693.010 553.515, 693.010 543.515, 693.010 533.515, 693.010 523.515, 693.010 513.515, 693.010 503.515, 693.010 493.515, 693.010 483.515, 693.010 473.515, 693.010 463.515, 693.010 453.515, 693.010 443.515, 693.010 433.515, 693.010 423.515, 693.010 413.515, 693.010 403.515, 693.010 393.515, 693.010 383.515, 693.010 373.515, 693.010 363.515, 693.010 353.515, 693.010 343.515, 693.010 333.515, 693.010 323.515, 693.010 313.515, 693.010 303.515, 693.010 293.515, 693.010 283.515, 693.010 273.515, 693.010 266.344, 693.010 266.344, 703.010 266.344, 713.010 266.344, 723.010 266.344, 733.010 266.344, 743.010 266.344, 744.727 266.344, 744.727 " />
            <path fill="none" stroke-width="1.5" stroke-linecap="round" stroke-opacity="1.0" stroke="rgb(0, 0, 0)" stroke-linejoin="round" d=" M 266.344, 744.727 276.344, 744.727 286.344, 744.727 296.344, 744.727 306.344, 744.727 316.344, 744.727 326.344, 744.727 336.344, 744.727 346.344, 744.727 356.344, 744.727 366.344, 744.727 376.344, 744.727 386.344, 744.727 396.344, 744.727 406.344, 744.727 416.343, 744.727 426.344, 744.727 436.343, 744.727 446.344, 744.727 456.344, 744.727 466.344, 744.727 476.344, 744.727 486.343, 744.727 496.344, 744.727 506.343, 744.727 516.344, 744.727 526.344, 744.727 536.344, 744.727 546.344, 744.727 556.344, 744.727 566.344, 744.727 576.344, 744.727 586.344, 744.727 596.344, 744.727 606.344, 744.727 616.344, 744.727 626.344, 744.727 636.344, 744.727 646.344, 744.727 656.344, 744.727 666.344, 744.727 676.344, 744.727 686.344, 744.727 696.344, 744.727 706.344, 744.727 716.344, 744.727 726.344, 744.727 736.344, 744.727 746.344, 744.727 756.344, 744.727 766.344, 744.727 776.344, 744.727 783.515, 744.727 " />
            <path fill="none" stroke-width="1.5" stroke-linecap="round" stroke-opacity="1.0" stroke="rgb(0, 0, 0)" stroke-linejoin="round" d=" M 292.202, 524.929 292.202, 514.929 292.202, 504.929 292.202, 494.929 292.202, 484.929 292.202, 474.929 292.202, 464.929 292.202, 454.929 292.202, 444.929 292.202, 434.929 292.202, 424.929 292.202, 414.929 292.202, 404.929 292.202, 394.929 292.202, 384.929 292.202, 374.929 292.202, 364.929 292.202, 354.929 292.202, 344.929 292.202, 334.929 292.202, 324.929 292.202, 314.929 292.202, 304.929 292.202, 294.929 292.202, 284.929 292.202, 279.273 292.202, 279.273 282.202, 279.273 272.202, 279.273 262.202, 279.273 252.202, 279.273 242.202, 279.273 240.485, 279.273 240.485, 289.273 240.485, 299.273 240.485, 309.273 240.485, 319.273 240.485, 329.273 240.485, 339.273 240.485, 349.273 240.485, 359.273 240.485, 369.273 240.485, 379.273 240.485, 389.273 240.485, 399.273 240.485, 409.273 240.485, 419.273 240.485, 429.273 240.485, 439.273 240.485, 449.273 240.485, 459.273 240.485, 469.273 240.485, 479.273 240.485, 489.273 240.485, 499.273 240.485, 509.273 240.485, 519.273 240.485, 529.273 240.485, 537.859 240.485, 537.859 250.485, 537.859 260.485, 537.859 266.344, 537.859 " />
            <path fill="none" stroke-width="1.5" stroke-linecap="round" stroke-opacity="1.0" stroke="rgb(0, 0, 0)" stroke-linejoin="round" d=" M 292.202, 279.273 292.202, 289.273 292.202, 299.273 292.202, 309.273 292.202, 319.273 292.202, 329.273 292.202, 339.273 292.202, 349.273 292.202, 359.273 292.202, 369.273 292.202, 379.273 292.202, 389.273 292.202, 399.273 292.202, 409.273 292.202, 419.273 292.202, 429.273 292.202, 439.273 292.202, 449.273 292.202, 459.273 292.202, 469.273 292.202, 479.273 292.202, 489.273 292.202, 499.273 292.202, 509.273 292.202, 519.273 292.202, 524.929 " />
            <path fill="none" stroke-width="1.5" stroke-linecap="round" stroke-opacity="1.0" stroke="rgb(0, 0, 0)" stroke-linejoin="round" d=" M 240.485, 537.859 250.485, 537.859 260.485, 537.859 266.344, 537.859 " />
            <path fill="none" stroke-width="1.5" stroke-linecap="round" stroke-opacity="1.0" stroke="rgb(0, 0, 0)" stroke-linejoin="round" d=" M 783.515, 654.222 783.515, 644.222 783.515, 634.222 783.515, 624.222 783.515, 614.222 783.515, 604.222 783.515, 594.222 783.515, 584.222 783.515, 574.222 783.515, 564.222 783.515, 554.222 783.515, 544.222 783.515, 534.222 783.515, 524.929 " />
            <path fill="none" stroke-width="1.5" stroke-linecap="round" stroke-opacity="1.0" stroke="rgb(0, 0, 0)" stroke-linejoin="round" d=" M 266.344, 524.929 266.344, 534.929 266.344, 537.859 266.344, 537.859 266.344, 547.859 266.344, 557.859 266.344, 567.859 266.344, 577.859 266.344, 587.859 266.344, 597.859 266.344, 607.859 266.344, 617.859 266.344, 627.859 266.344, 637.859 266.344, 647.859 266.344, 654.222 " />
            <path fill="none" stroke-width="1.5" stroke-linecap="round" stroke-opacity="1.0" stroke="rgb(0, 0, 0)" stroke-linejoin="round" d=" M 266.344, 654.222 276.344, 654.222 286.344, 654.222 296.344, 654.222 306.344, 654.222 316.344, 654.222 326.344, 654.222 336.344, 654.222 346.344, 654.222 356.344, 654.222 366.344, 654.222 376.344, 654.222 386.344, 654.222 396.344, 654.222 406.344, 654.222 416.344, 654.222 426.344, 654.222 436.344, 654.222 446.344, 654.222 456.344, 654.222 466.344, 654.222 476.344, 654.222 486.344, 654.222 496.344, 654.222 506.344, 654.222 516.344, 654.222 526.344, 654.222 536.344, 654.222 546.344, 654.222 556.344, 654.222 566.344, 654.222 576.344, 654.222 586.344, 654.222 596.344, 654.222 606.344, 654.222 616.344, 654.222 626.344, 654.222 636.344, 654.222 646.344, 654.222 656.344, 654.222 666.344, 654.222 676.344, 654.222 686.344, 654.222 696.344, 654.222 706.344, 654.222 716.344, 654.222 726.344, 654.222 736.344, 654.222 746.344, 654.222 756.344, 654.222 766.344, 654.222 776.344, 654.222 783.515, 654.222 " />
            <path fill="none" stroke-width="1.5" stroke-linecap="round" stroke-opacity="1.0" stroke="rgb(0, 0, 0)" stroke-linejoin="round" d=" M 266.344, 654.222 266.344, 654.222 " />
            <path fill="none" stroke-width="1.5" stroke-linecap="round" stroke-opacity="1.0" stroke="rgb(0, 0, 0)" stroke-linejoin="round" d=" M 783.515, 524.929 783.515, 524.929 " />
            <path fill="none" stroke-width="1.5" stroke-linecap="round" stroke-opacity="1.0" stroke="rgb(0, 0, 0)" stroke-linejoin="round" d=" M 783.515, 524.929 773.515, 524.929 763.515, 524.929 753.515, 524.929 743.515, 524.929 733.515, 524.929 723.515, 524.929 713.515, 524.929 703.515, 524.929 693.515, 524.929 683.515, 524.929 673.515, 524.929 663.515, 524.929 653.515, 524.929 643.515, 524.929 633.515, 524.929 623.515, 524.929 613.515, 524.929 603.515, 524.929 593.515, 524.929 583.515, 524.929 573.515, 524.929 563.515, 524.929 553.515, 524.929 543.515, 524.929 533.515, 524.929 523.515, 524.929 513.515, 524.929 503.515, 524.929 493.515, 524.929 483.515, 524.929 473.515, 524.929 463.515, 524.929 453.515, 524.929 443.515, 524.929 433.515, 524.929 423.515, 524.929 413.515, 524.929 403.515, 524.929 393.515, 524.929 383.515, 524.929 373.515, 524.929 363.515, 524.929 353.515, 524.929 343.515, 524.929 333.515, 524.929 323.515, 524.929 313.515, 524.929 303.515, 524.929 292.202, 524.929 292.202, 524.929 282.202, 524.929 272.202, 524.929 266.344, 524.929 " />
        </g>
    </g>
    <g id="ViewLayer_TechnicalLines.002" inkscape:groupmode="lineset" inkscape:label="ViewLayer_TechnicalLines.002">
        <g inkscape:groupmode="layer" id="strokes" inkscape:label="strokes">
            <path fill="none" stroke-width="1.5" stroke-linecap="round" stroke-opacity="1.0" stroke="rgb(0, 0, 0)" stroke-linejoin="round" d=" M 266.344, 744.727 276.344, 744.727 286.344, 744.727 296.344, 744.727 306.344, 744.727 316.344, 744.727 326.344, 744.727 336.344, 744.727 346.344, 744.727 356.344, 744.727 366.344, 744.727 376.344, 744.727 386.344, 744.727 396.344, 744.727 406.344, 744.727 416.344, 744.727 426.344, 744.727 436.344, 744.727 446.344, 744.727 456.344, 744.727 466.344, 744.727 476.344, 744.727 486.344, 744.727 496.344, 744.727 506.344, 744.727 516.344, 744.727 526.344, 744.727 536.344, 744.727 546.344, 744.727 556.344, 744.727 566.344, 744.727 576.344, 744.727 586.344, 744.727 596.344, 744.727 606.344, 744.727 616.344, 744.727 626.344, 744.727 636.344, 744.727 646.344, 744.727 656.344, 744.727 666.344, 744.727 676.344, 744.727 686.344, 744.727 696.344, 744.727 706.344, 744.727 716.344, 744.727 726.344, 744.727 736.344, 744.727 746.344, 744.727 756.344, 744.727 766.344, 744.727 776.344, 744.727 783.515, 744.727 783.515, 744.727 783.515, 734.727 783.515, 724.727 783.515, 714.727 783.515, 704.727 783.515, 694.727 783.515, 693.010 773.515, 693.010 763.515, 693.010 753.515, 693.010 743.515, 693.010 733.515, 693.010 723.515, 693.010 713.515, 693.010 703.515, 693.010 693.515, 693.010 683.515, 693.010 673.515, 693.010 663.515, 693.010 653.515, 693.010 643.515, 693.010 633.515, 693.010 623.515, 693.010 613.515, 693.010 603.515, 693.010 593.515, 693.010 583.515, 693.010 573.515, 693.010 563.515, 693.010 553.515, 693.010 543.515, 693.010 533.515, 693.010 523.515, 693.010 513.515, 693.010 503.515, 693.010 493.515, 693.010 483.515, 693.010 473.515, 693.010 463.515, 693.010 453.515, 693.010 443.515, 693.010 433.515, 693.010 423.515, 693.010 413.515, 693.010 403.515, 693.010 393.515, 693.010 383.515, 693.010 373.515, 693.010 363.515, 693.010 353.515, 693.010 343.515, 693.010 333.515, 693.010 323.515, 693.010 313.515, 693.010 303.515, 693.010 293.515, 693.010 283.515, 693.010 273.515, 693.010 266.344, 693.010 266.344, 703.010 266.344, 713.010 266.344, 723.010 266.344, 733.010 266.344, 743.010 266.344, 744.727 266.344, 744.727 " />
            <path fill="none" stroke-width="1.5" stroke-linecap="round" stroke-opacity="1.0" stroke="rgb(0, 0, 0)" stroke-linejoin="round" d=" M 266.344, 744.727 276.344, 744.727 286.344, 744.727 296.344, 744.727 306.344, 744.727 316.344, 744.727 326.344, 744.727 336.344, 744.727 346.344, 744.727 356.344, 744.727 366.344, 744.727 376.344, 744.727 386.344, 744.727 396.344, 744.727 406.344, 744.727 416.343, 744.727 426.344, 744.727 436.343, 744.727 446.344, 744.727 456.344, 744.727 466.344, 744.727 476.344, 744.727 486.343, 744.727 496.344, 744.727 506.343, 744.727 516.344, 744.727 526.344, 744.727 536.344, 744.727 546.344, 744.727 556.344, 744.727 566.344, 744.727 576.344, 744.727 586.344, 744.727 596.344, 744.727 606.344, 744.727 616.344, 744.727 626.344, 744.727 636.344, 744.727 646.344, 744.727 656.344, 744.727 666.344, 744.727 676.344, 744.727 686.344, 744.727 696.344, 744.727 706.344, 744.727 716.344, 744.727 726.344, 744.727 736.344, 744.727 746.344, 744.727 756.344, 744.727 766.344, 744.727 776.344, 744.727 783.515, 744.727 " />
            <path fill="none" stroke-width="1.5" stroke-linecap="round" stroke-opacity="1.0" stroke="rgb(0, 0, 0)" stroke-linejoin="round" d=" M 292.202, 524.929 292.202, 514.929 292.202, 504.929 292.202, 494.929 292.202, 484.929 292.202, 474.929 292.202, 464.929 292.202, 454.929 292.202, 444.929 292.202, 434.929 292.202, 424.929 292.202, 414.929 292.202, 404.929 292.202, 394.929 292.202, 384.929 292.202, 374.929 292.202, 364.929 292.202, 354.929 292.202, 344.929 292.202, 334.929 292.202, 324.929 292.202, 314.929 292.202, 304.929 292.202, 294.929 292.202, 284.929 292.202, 279.273 292.202, 279.273 282.202, 279.273 272.202, 279.273 262.202, 279.273 252.202, 279.273 242.202, 279.273 240.485, 279.273 240.485, 289.273 240.485, 299.273 240.485, 309.273 240.485, 319.273 240.485, 329.273 240.485, 339.273 240.485, 349.273 240.485, 359.273 240.485, 369.273 240.485, 379.273 240.485, 389.273 240.485, 399.273 240.485, 409.273 240.485, 419.273 240.485, 429.273 240.485, 439.273 240.485, 449.273 240.485, 459.273 240.485, 469.273 240.485, 479.273 240.485, 489.273 240.485, 499.273 240.485, 509.273 240.485, 519.273 240.485, 529.273 240.485, 537.859 240.485, 537.859 250.485, 537.859 260.485, 537.859 266.344, 537.859 " />
            <path fill="none" stroke-width="1.5" stroke-linecap="round" stroke-opacity="1.0" stroke="rgb(0, 0, 0)" stroke-linejoin="round" d=" M 292.202, 279.273 292.202, 289.273 292.202, 299.273 292.202, 309.273 292.202, 319.273 292.202, 329.273 292.202, 339.273 292.202, 349.273 292.202, 359.273 292.202, 369.273 292.202, 379.273 292.202, 389.273 292.202, 399.273 292.202, 409.273 292.202, 419.273 292.202, 429.273 292.202, 439.273 292.202, 449.273 292.202, 459.273 292.202, 469.273 292.202, 479.273 292.202, 489.273 292.202, 499.273 292.202, 509.273 292.202, 519.273 292.202, 524.929 " />
            <path fill="none" stroke-width="1.5" stroke-linecap="round" stroke-opacity="1.0" stroke="rgb(0, 0, 0)" stroke-linejoin="round" d=" M 240.485, 537.859 250.485, 537.859 260.485, 537.859 266.344, 537.859 " />
            <path fill="none" stroke-width="1.5" stroke-linecap="round" stroke-opacity="1.0" stroke="rgb(0, 0, 0)" stroke-linejoin="round" d=" M 783.515, 654.222 783.515, 644.222 783.515, 634.222 783.515, 624.222 783.515, 614.222 783.515, 604.222 783.515, 594.222 783.515, 584.222 783.515, 574.222 783.515, 564.222 783.515, 554.222 783.515, 544.222 783.515, 534.222 783.515, 524.929 " />
            <path fill="none" stroke-width="1.5" stroke-linecap="round" stroke-opacity="1.0" stroke="rgb(0, 0, 0)" stroke-linejoin="round" d=" M 266.344, 524.929 266.344, 534.929 266.344, 537.859 266.344, 537.859 266.344, 547.859 266.344, 557.859 266.344, 567.859 266.344, 577.859 266.344, 587.859 266.344, 597.859 266.344, 607.859 266.344, 617.859 266.344, 627.859 266.344, 637.859 266.344, 647.859 266.344, 654.222 " />
            <path fill="none" stroke-width="1.5" stroke-linecap="round" stroke-opacity="1.0" stroke="rgb(0, 0, 0)" stroke-linejoin="round" d=" M 266.344, 654.222 276.344, 654.222 286.344, 654.222 296.344, 654.222 306.344, 654.222 316.344, 654.222 326.344, 654.222 336.344, 654.222 346.344, 654.222 356.344, 654.222 366.344, 654.222 376.344, 654.222 386.344, 654.222 396.344, 654.222 406.344, 654.222 416.344, 654.222 426.344, 654.222 436.344, 654.222 446.344, 654.222 456.344, 654.222 466.344, 654.222 476.344, 654.222 486.344, 654.222 496.344, 654.222 506.344, 654.222 516.344, 654.222 526.344, 654.222 536.344, 654.222 546.344, 654.222 556.344, 654.222 566.344, 654.222 576.344, 654.222 586.344, 654.222 596.344, 654.222 606.344, 654.222 616.344, 654.222 626.344, 654.222 636.344, 654.222 646.344, 654.222 656.344, 654.222 666.344, 654.222 676.344, 654.222 686.344, 654.222 696.344, 654.222 706.344, 654.222 716.344, 654.222 726.344, 654.222 736.344, 654.222 746.344, 654.222 756.344, 654.222 766.344, 654.222 776.344, 654.222 783.515, 654.222 " />
            <path fill="none" stroke-width="1.5" stroke-linecap="round" stroke-opacity="1.0" stroke="rgb(0, 0, 0)" stroke-linejoin="round" d=" M 266.344, 654.222 266.344, 654.222 " />
            <path fill="none" stroke-width="1.5" stroke-linecap="round" stroke-opacity="1.0" stroke="rgb(0, 0, 0)" stroke-linejoin="round" d=" M 783.515, 524.929 783.515, 524.929 " />
            <path fill="none" stroke-width="1.5" stroke-linecap="round" stroke-opacity="1.0" stroke="rgb(0, 0, 0)" stroke-linejoin="round" d=" M 783.515, 524.929 773.515, 524.929 763.515, 524.929 753.515, 524.929 743.515, 524.929 733.515, 524.929 723.515, 524.929 713.515, 524.929 703.515, 524.929 693.515, 524.929 683.515, 524.929 673.515, 524.929 663.515, 524.929 653.515, 524.929 643.515, 524.929 633.515, 524.929 623.515, 524.929 613.515, 524.929 603.515, 524.929 593.515, 524.929 583.515, 524.929 573.515, 524.929 563.515, 524.929 553.515, 524.929 543.515, 524.929 533.515, 524.929 523.515, 524.929 513.515, 524.929 503.515, 524.929 493.515, 524.929 483.515, 524.929 473.515, 524.929 463.515, 524.929 453.515, 524.929 443.515, 524.929 433.515, 524.929 423.515, 524.929 413.515, 524.929 403.515, 524.929 393.515, 524.929 383.515, 524.929 373.515, 524.929 363.515, 524.929 353.515, 524.929 343.515, 524.929 333.515, 524.929 323.515, 524.929 313.515, 524.929 303.515, 524.929 292.202, 524.929 292.202, 524.929 282.202, 524.929 272.202, 524.929 266.344, 524.929 " />
        </g>
    </g>
    <g id="ViewLayer_TechnicalLines.003" inkscape:groupmode="lineset" inkscape:label="ViewLayer_TechnicalLines.003">
        <g inkscape:groupmode="layer" id="strokes" inkscape:label="strokes">
            <path fill="none" stroke-width="1.5" stroke-linecap="round" stroke-opacity="1.0" stroke="rgb(0, 0, 0)" stroke-linejoin="round" d=" M 266.344, 744.727 276.344, 744.727 286.344, 744.727 296.344, 744.727 306.344, 744.727 316.344, 744.727 326.344, 744.727 336.344, 744.727 346.344, 744.727 356.344, 744.727 366.344, 744.727 376.344, 744.727 386.344, 744.727 396.344, 744.727 406.344, 744.727 416.344, 744.727 426.344, 744.727 436.344, 744.727 446.344, 744.727 456.344, 744.727 466.344, 744.727 476.344, 744.727 486.344, 744.727 496.344, 744.727 506.344, 744.727 516.344, 744.727 526.344, 744.727 536.344, 744.727 546.344, 744.727 556.344, 744.727 566.344, 744.727 576.344, 744.727 586.344, 744.727 596.344, 744.727 606.344, 744.727 616.344, 744.727 626.344, 744.727 636.344, 744.727 646.344, 744.727 656.344, 744.727 666.344, 744.727 676.344, 744.727 686.344, 744.727 696.344, 744.727 706.344, 744.727 716.344, 744.727 726.344, 744.727 736.344, 744.727 746.344, 744.727 756.344, 744.727 766.344, 744.727 776.344, 744.727 783.515, 744.727 783.515, 744.727 783.515, 734.727 783.515, 724.727 783.515, 714.727 783.515, 704.727 783.515, 694.727 783.515, 693.010 773.515, 693.010 763.515, 693.010 753.515, 693.010 743.515, 693.010 733.515, 693.010 723.515, 693.010 713.515, 693.010 703.515, 693.010 693.515, 693.010 683.515, 693.010 673.515, 693.010 663.515, 693.010 653.515, 693.010 643.515, 693.010 633.515, 693.010 623.515, 693.010 613.515, 693.010 603.515, 693.010 593.515, 693.010 583.515, 693.010 573.515, 693.010 563.515, 693.010 553.515, 693.010 543.515, 693.010 533.515, 693.010 523.515, 693.010 513.515, 693.010 503.515, 693.010 493.515, 693.010 483.515, 693.010 473.515, 693.010 463.515, 693.010 453.515, 693.010 443.515, 693.010 433.515, 693.010 423.515, 693.010 413.515, 693.010 403.515, 693.010 393.515, 693.010 383.515, 693.010 373.515, 693.010 363.515, 693.010 353.515, 693.010 343.515, 693.010 333.515, 693.010 323.515, 693.010 313.515, 693.010 303.515, 693.010 293.515, 693.010 283.515, 693.010 273.515, 693.010 266.344, 693.010 266.344, 703.010 266.344, 713.010 266.344, 723.010 266.344, 733.010 266.344, 743.010 266.344, 744.727 266.344, 744.727 " />
            <path fill="none" stroke-width="1.5" stroke-linecap="round" stroke-opacity="1.0" stroke="rgb(0, 0, 0)" stroke-linejoin="round" d=" M 266.344, 744.727 276.344, 744.727 286.344, 744.727 296.344, 744.727 306.344, 744.727 316.344, 744.727 326.344, 744.727 336.344, 744.727 346.344, 744.727 356.344, 744.727 366.344, 744.727 376.344, 744.727 386.344, 744.727 396.344, 744.727 406.344, 744.727 416.343, 744.727 426.344, 744.727 436.343, 744.727 446.344, 744.727 456.344, 744.727 466.344, 744.727 476.344, 744.727 486.343, 744.727 496.344, 744.727 506.343, 744.727 516.344, 744.727 526.344, 744.727 536.344, 744.727 546.344, 744.727 556.344, 744.727 566.344, 744.727 576.344, 744.727 586.344, 744.727 596.344, 744.727 606.344, 744.727 616.344, 744.727 626.344, 744.727 636.344, 744.727 646.344, 744.727 656.344, 744.727 666.344, 744.727 676.344, 744.727 686.344, 744.727 696.344, 744.727 706.344, 744.727 716.344, 744.727 726.344, 744.727 736.344, 744.727 746.344, 744.727 756.344, 744.727 766.344, 744.727 776.344, 744.727 783.515, 744.727 " />
            <path fill="none" stroke-width="1.5" stroke-linecap="round" stroke-opacity="1.0" stroke="rgb(0, 0, 0)" stroke-linejoin="round" d=" M 292.202, 524.929 292.202, 514.929 292.202, 504.929 292.202, 494.929 292.202, 484.929 292.202, 474.929 292.202, 464.929 292.202, 454.929 292.202, 444.929 292.202, 434.929 292.202, 424.929 292.202, 414.929 292.202, 404.929 292.202, 394.929 292.202, 384.929 292.202, 374.929 292.202, 364.929 292.202, 354.929 292.202, 344.929 292.202, 334.929 292.202, 324.929 292.202, 314.929 292.202, 304.929 292.202, 294.929 292.202, 284.929 292.202, 279.273 292.202, 279.273 282.202, 279.273 272.202, 279.273 262.202, 279.273 252.202, 279.273 242.202, 279.273 240.485, 279.273 240.485, 289.273 240.485, 299.273 240.485, 309.273 240.485, 319.273 240.485, 329.273 240.485, 339.273 240.485, 349.273 240.485, 359.273 240.485, 369.273 240.485, 379.273 240.485, 389.273 240.485, 399.273 240.485, 409.273 240.485, 419.273 240.485, 429.273 240.485, 439.273 240.485, 449.273 240.485, 459.273 240.485, 469.273 240.485, 479.273 240.485, 489.273 240.485, 499.273 240.485, 509.273 240.485, 519.273 240.485, 529.273 240.485, 537.859 240.485, 537.859 250.485, 537.859 260.485, 537.859 266.344, 537.859 " />
            <path fill="none" stroke-width="1.5" stroke-linecap="round" stroke-opacity="1.0" stroke="rgb(0, 0, 0)" stroke-linejoin="round" d=" M 292.202, 279.273 292.202, 289.273 292.202, 299.273 292.202, 309.273 292.202, 319.273 292.202, 329.273 292.202, 339.273 292.202, 349.273 292.202, 359.273 292.202, 369.273 292.202, 379.273 292.202, 389.273 292.202, 399.273 292.202, 409.273 292.202, 419.273 292.202, 429.273 292.202, 439.273 292.202, 449.273 292.202, 459.273 292.202, 469.273 292.202, 479.273 292.202, 489.273 292.202, 499.273 292.202, 509.273 292.202, 519.273 292.202, 524.929 " />
            <path fill="none" stroke-width="1.5" stroke-linecap="round" stroke-opacity="1.0" stroke="rgb(0, 0, 0)" stroke-linejoin="round" d=" M 240.485, 537.859 250.485, 537.859 260.485, 537.859 266.344, 537.859 " />
            <path fill="none" stroke-width="1.5" stroke-linecap="round" stroke-opacity="1.0" stroke="rgb(0, 0, 0)" stroke-linejoin="round" d=" M 783.515, 654.222 783.515, 644.222 783.515, 634.222 783.515, 624.222 783.515, 614.222 783.515, 604.222 783.515, 594.222 783.515, 584.222 783.515, 574.222 783.515, 564.222 783.515, 554.222 783.515, 544.222 783.515, 534.222 783.515, 524.929 " />
            <path fill="none" stroke-width="1.5" stroke-linecap="round" stroke-opacity="1.0" stroke="rgb(0, 0, 0)" stroke-linejoin="round" d=" M 266.344, 524.929 266.344, 534.929 266.344, 537.859 266.344, 537.859 266.344, 547.859 266.344, 557.859 266.344, 567.859 266.344, 577.859 266.344, 587.859 266.344, 597.859 266.344, 607.859 266.344, 617.859 266.344, 627.859 266.344, 637.859 266.344, 647.859 266.344, 654.222 " />
            <path fill="none" stroke-width="1.5" stroke-linecap="round" stroke-opacity="1.0" stroke="rgb(0, 0, 0)" stroke-linejoin="round" d=" M 266.344, 654.222 276.344, 654.222 286.344, 654.222 296.344, 654.222 306.344, 654.222 316.344, 654.222 326.344, 654.222 336.344, 654.222 346.344, 654.222 356.344, 654.222 366.344, 654.222 376.344, 654.222 386.344, 654.222 396.344, 654.222 406.344, 654.222 416.344, 654.222 426.344, 654.222 436.344, 654.222 446.344, 654.222 456.344, 654.222 466.344, 654.222 476.344, 654.222 486.344, 654.222 496.344, 654.222 506.344, 654.222 516.344, 654.222 526.344, 654.222 536.344, 654.222 546.344, 654.222 556.344, 654.222 566.344, 654.222 576.344, 654.222 586.344, 654.222 596.344, 654.222 606.344, 654.222 616.344, 654.222 626.344, 654.222 636.344, 654.222 646.344, 654.222 656.344, 654.222 666.344, 654.222 676.344, 654.222 686.344, 654.222 696.344, 654.222 706.344, 654.222 716.344, 654.222 726.344, 654.222 736.344, 654.222 746.344, 654.222 756.344, 654.222 766.344, 654.222 776.344, 654.222 783.515, 654.222 " />
            <path fill="none" stroke-width="1.5" stroke-linecap="round" stroke-opacity="1.0" stroke="rgb(0, 0, 0)" stroke-linejoin="round" d=" M 266.344, 654.222 266.344, 654.222 " />
            <path fill="none" stroke-width="1.5" stroke-linecap="round" stroke-opacity="1.0" stroke="rgb(0, 0, 0)" stroke-linejoin="round" d=" M 783.515, 524.929 783.515, 524.929 " />
            <path fill="none" stroke-width="1.5" stroke-linecap="round" stroke-opacity="1.0" stroke="rgb(0, 0, 0)" stroke-linejoin="round" d=" M 783.515, 524.929 773.515, 524.929 763.515, 524.929 753.515, 524.929 743.515, 524.929 733.515, 524.929 723.515, 524.929 713.515, 524.929 703.515, 524.929 693.515, 524.929 683.515, 524.929 673.515, 524.929 663.515, 524.929 653.515, 524.929 643.515, 524.929 633.515, 524.929 623.515, 524.929 613.515, 524.929 603.515, 524.929 593.515, 524.929 583.515, 524.929 573.515, 524.929 563.515, 524.929 553.515, 524.929 543.515, 524.929 533.515, 524.929 523.515, 524.929 513.515, 524.929 503.515, 524.929 493.515, 524.929 483.515, 524.929 473.515, 524.929 463.515, 524.929 453.515, 524.929 443.515, 524.929 433.515, 524.929 423.515, 524.929 413.515, 524.929 403.515, 524.929 393.515, 524.929 383.515, 524.929 373.515, 524.929 363.515, 524.929 353.515, 524.929 343.515, 524.929 333.515, 524.929 323.515, 524.929 313.515, 524.929 303.515, 524.929 292.202, 524.929 292.202, 524.929 282.202, 524.929 272.202, 524.929 266.344, 524.929 " />
        </g>
    </g>
    <g id="ViewLayer_TechnicalLines.004" xmlns:inkscape="http://www.inkscape.org/namespaces/inkscape" inkscape:groupmode="lineset" inkscape:label="ViewLayer_TechnicalLines.004">
        <g xmlns:inkscape="http://www.inkscape.org/namespaces/inkscape" inkscape:groupmode="layer" id="strokes" inkscape:label="strokes">
            <path fill="none" stroke-width="1.5" stroke-linecap="round" stroke-opacity="1.0" stroke="rgb(0, 0, 0)" stroke-linejoin="round" d=" M 266.344, 744.727 276.344, 744.727 286.344, 744.727 296.344, 744.727 306.344, 744.727 316.344, 744.727 326.344, 744.727 336.344, 744.727 346.344, 744.727 356.344, 744.727 366.344, 744.727 376.344, 744.727 386.344, 744.727 396.344, 744.727 406.344, 744.727 416.344, 744.727 426.344, 744.727 436.344, 744.727 446.344, 744.727 456.344, 744.727 466.344, 744.727 476.344, 744.727 486.344, 744.727 496.344, 744.727 506.344, 744.727 516.344, 744.727 526.344, 744.727 536.344, 744.727 546.344, 744.727 556.344, 744.727 566.344, 744.727 576.344, 744.727 586.344, 744.727 596.344, 744.727 606.344, 744.727 616.344, 744.727 626.344, 744.727 636.344, 744.727 646.344, 744.727 656.344, 744.727 666.344, 744.727 676.344, 744.727 686.344, 744.727 696.344, 744.727 706.344, 744.727 716.344, 744.727 726.344, 744.727 736.344, 744.727 746.344, 744.727 756.344, 744.727 766.344, 744.727 776.344, 744.727 783.515, 744.727 783.515, 744.727 783.515, 734.727 783.515, 724.727 783.515, 714.727 783.515, 704.727 783.515, 694.727 783.515, 693.010 773.515, 693.010 763.515, 693.010 753.515, 693.010 743.515, 693.010 733.515, 693.010 723.515, 693.010 713.515, 693.010 703.515, 693.010 693.515, 693.010 683.515, 693.010 673.515, 693.010 663.515, 693.010 653.515, 693.010 643.515, 693.010 633.515, 693.010 623.515, 693.010 613.515, 693.010 603.515, 693.010 593.515, 693.010 583.515, 693.010 573.515, 693.010 563.515, 693.010 553.515, 693.010 543.515, 693.010 533.515, 693.010 523.515, 693.010 513.515, 693.010 503.515, 693.010 493.515, 693.010 483.515, 693.010 473.515, 693.010 463.515, 693.010 453.515, 693.010 443.515, 693.010 433.515, 693.010 423.515, 693.010 413.515, 693.010 403.515, 693.010 393.515, 693.010 383.515, 693.010 373.515, 693.010 363.515, 693.010 353.515, 693.010 343.515, 693.010 333.515, 693.010 323.515, 693.010 313.515, 693.010 303.515, 693.010 293.515, 693.010 283.515, 693.010 273.515, 693.010 266.344, 693.010 266.344, 703.010 266.344, 713.010 266.344, 723.010 266.344, 733.010 266.344, 743.010 266.344, 744.727 266.344, 744.727 " />
            <path fill="none" stroke-width="1.5" stroke-linecap="round" stroke-opacity="1.0" stroke="rgb(0, 0, 0)" stroke-linejoin="round" d=" M 266.344, 744.727 276.344, 744.727 286.344, 744.727 296.344, 744.727 306.344, 744.727 316.344, 744.727 326.344, 744.727 336.344, 744.727 346.344, 744.727 356.344, 744.727 366.344, 744.727 376.344, 744.727 386.344, 744.727 396.344, 744.727 406.344, 744.727 416.343, 744.727 426.344, 744.727 436.343, 744.727 446.344, 744.727 456.344, 744.727 466.344, 744.727 476.344, 744.727 486.343, 744.727 496.344, 744.727 506.343, 744.727 516.344, 744.727 526.344, 744.727 536.344, 744.727 546.344, 744.727 556.344, 744.727 566.344, 744.727 576.344, 744.727 586.344, 744.727 596.344, 744.727 606.344, 744.727 616.344, 744.727 626.344, 744.727 636.344, 744.727 646.344, 744.727 656.344, 744.727 666.344, 744.727 676.344, 744.727 686.344, 744.727 696.344, 744.727 706.344, 744.727 716.344, 744.727 726.344, 744.727 736.344, 744.727 746.344, 744.727 756.344, 744.727 766.344, 744.727 776.344, 744.727 783.515, 744.727 " />
            <path fill="none" stroke-width="1.5" stroke-linecap="round" stroke-opacity="1.0" stroke="rgb(0, 0, 0)" stroke-linejoin="round" d=" M 292.202, 524.929 292.202, 514.929 292.202, 504.929 292.202, 494.929 292.202, 484.929 292.202, 474.929 292.202, 464.929 292.202, 454.929 292.202, 444.929 292.202, 434.929 292.202, 424.929 292.202, 414.929 292.202, 404.929 292.202, 394.929 292.202, 384.929 292.202, 374.929 292.202, 364.929 292.202, 354.929 292.202, 344.929 292.202, 334.929 292.202, 324.929 292.202, 314.929 292.202, 304.929 292.202, 294.929 292.202, 284.929 292.202, 279.273 292.202, 279.273 282.202, 279.273 272.202, 279.273 262.202, 279.273 252.202, 279.273 242.202, 279.273 240.485, 279.273 240.485, 289.273 240.485, 299.273 240.485, 309.273 240.485, 319.273 240.485, 329.273 240.485, 339.273 240.485, 349.273 240.485, 359.273 240.485, 369.273 240.485, 379.273 240.485, 389.273 240.485, 399.273 240.485, 409.273 240.485, 419.273 240.485, 429.273 240.485, 439.273 240.485, 449.273 240.485, 459.273 240.485, 469.273 240.485, 479.273 240.485, 489.273 240.485, 499.273 240.485, 509.273 240.485, 519.273 240.485, 529.273 240.485, 537.859 240.485, 537.859 250.485, 537.859 260.485, 537.859 266.344, 537.859 " />
            <path fill="none" stroke-width="1.5" stroke-linecap="round" stroke-opacity="1.0" stroke="rgb(0, 0, 0)" stroke-linejoin="round" d=" M 292.202, 279.273 292.202, 289.273 292.202, 299.273 292.202, 309.273 292.202, 319.273 292.202, 329.273 292.202, 339.273 292.202, 349.273 292.202, 359.273 292.202, 369.273 292.202, 379.273 292.202, 389.273 292.202, 399.273 292.202, 409.273 292.202, 419.273 292.202, 429.273 292.202, 439.273 292.202, 449.273 292.202, 459.273 292.202, 469.273 292.202, 479.273 292.202, 489.273 292.202, 499.273 292.202, 509.273 292.202, 519.273 292.202, 524.929 " />
            <path fill="none" stroke-width="1.5" stroke-linecap="round" stroke-opacity="1.0" stroke="rgb(0, 0, 0)" stroke-linejoin="round" d=" M 240.485, 537.859 250.485, 537.859 260.485, 537.859 266.344, 537.859 " />
            <path fill="none" stroke-width="1.5" stroke-linecap="round" stroke-opacity="1.0" stroke="rgb(0, 0, 0)" stroke-linejoin="round" d=" M 783.515, 654.222 783.515, 644.222 783.515, 634.222 783.515, 624.222 783.515, 614.222 783.515, 604.222 783.515, 594.222 783.515, 584.222 783.515, 574.222 783.515, 564.222 783.515, 554.222 783.515, 544.222 783.515, 534.222 783.515, 524.929 " />
            <path fill="none" stroke-width="1.5" stroke-linecap="round" stroke-opacity="1.0" stroke="rgb(0, 0, 0)" stroke-linejoin="round" d=" M 266.344, 524.929 266.344, 534.929 266.344, 537.859 266.344, 537.859 266.344, 547.859 266.344, 557.859 266.344, 567.859 266.344, 577.859 266.344, 587.859 266.344, 597.859 266.344, 607.859 266.344, 617.859 266.344, 627.859 266.344, 637.859 266.344, 647.859 266.344, 654.222 " />
            <path fill="none" stroke-width="1.5" stroke-linecap="round" stroke-opacity="1.0" stroke="rgb(0, 0, 0)" stroke-linejoin="round" d=" M 266.344, 654.222 276.344, 654.222 286.344, 654.222 296.344, 654.222 306.344, 654.222 316.344, 654.222 326.344, 654.222 336.344, 654.222 346.344, 654.222 356.344, 654.222 366.344, 654.222 376.344, 654.222 386.344, 654.222 396.344, 654.222 406.344, 654.222 416.344, 654.222 426.344, 654.222 436.344, 654.222 446.344, 654.222 456.344, 654.222 466.344, 654.222 476.344, 654.222 486.344, 654.222 496.344, 654.222 506.344, 654.222 516.344, 654.222 526.344, 654.222 536.344, 654.222 546.344, 654.222 556.344, 654.222 566.344, 654.222 576.344, 654.222 586.344, 654.222 596.344, 654.222 606.344, 654.222 616.344, 654.222 626.344, 654.222 636.344, 654.222 646.344, 654.222 656.344, 654.222 666.344, 654.222 676.344, 654.222 686.344, 654.222 696.344, 654.222 706.344, 654.222 716.344, 654.222 726.344, 654.222 736.344, 654.222 746.344, 654.222 756.344, 654.222 766.344, 654.222 776.344, 654.222 783.515, 654.222 " />
            <path fill="none" stroke-width="1.5" stroke-linecap="round" stroke-opacity="1.0" stroke="rgb(0, 0, 0)" stroke-linejoin="round" d=" M 266.344, 654.222 266.344, 654.222 " />
            <path fill="none" stroke-width="1.5" stroke-linecap="round" stroke-opacity="1.0" stroke="rgb(0, 0, 0)" stroke-linejoin="round" d=" M 783.515, 524.929 783.515, 524.929 " />
            <path fill="none" stroke-width="1.5" stroke-linecap="round" stroke-opacity="1.0" stroke="rgb(0, 0, 0)" stroke-linejoin="round" d=" M 783.515, 524.929 773.515, 524.929 763.515, 524.929 753.515, 524.929 743.515, 524.929 733.515, 524.929 723.515, 524.929 713.515, 524.929 703.515, 524.929 693.515, 524.929 683.515, 524.929 673.515, 524.929 663.515, 524.929 653.515, 524.929 643.515, 524.929 633.515, 524.929 623.515, 524.929 613.515, 524.929 603.515, 524.929 593.515, 524.929 583.515, 524.929 573.515, 524.929 563.515, 524.929 553.515, 524.929 543.515, 524.929 533.515, 524.929 523.515, 524.929 513.515, 524.929 503.515, 524.929 493.515, 524.929 483.515, 524.929 473.515, 524.929 463.515, 524.929 453.515, 524.929 443.515, 524.929 433.515, 524.929 423.515, 524.929 413.515, 524.929 403.515, 524.929 393.515, 524.929 383.515, 524.929 373.515, 524.929 363.515, 524.929 353.515, 524.929 343.515, 524.929 333.515, 524.929 323.515, 524.929 313.515, 524.929 303.515, 524.929 292.202, 524.929 292.202, 524.929 282.202, 524.929 272.202, 524.929 266.344, 524.929 " />
        </g>
    </g>
</svg>
