<?xml version='1.0' encoding='ascii'?>
<svg xmlns="http://www.w3.org/2000/svg" xmlns:inkscape="http://www.inkscape.org/namespaces/inkscape" version="1.1" width="1024" height="1024">
    <g id="ViewLayer_LineSet" inkscape:groupmode="lineset" inkscape:label="ViewLayer_LineSet">
        <g inkscape:groupmode="layer" id="strokes" inkscape:label="strokes">
            <path fill="none" stroke-width="3.0" stroke-linecap="butt" stroke-opacity="1.0" stroke="rgb(0, 0, 0)" stroke-linejoin="round" d=" M 316.444, 583.111 316.444, 593.111 316.444, 603.111 316.444, 613.111 316.444, 623.111 316.444, 633.111 316.444, 643.111 316.444, 653.111 316.444, 654.222 316.444, 654.222 316.445, 654.222 " />
            <path fill="none" stroke-width="3.0" stroke-linecap="butt" stroke-opacity="1.0" stroke="rgb(0, 0, 0)" stroke-linejoin="round" d=" M 743.111, 654.222 743.111, 644.222 743.111, 634.222 743.111, 624.222 743.111, 614.222 743.111, 604.222 743.111, 594.222 743.111, 584.222 743.111, 583.111 733.111, 583.111 723.111, 583.111 713.111, 583.111 703.111, 583.111 693.111, 583.111 683.111, 583.111 673.111, 583.111 663.111, 583.111 653.111, 583.111 643.111, 583.111 633.111, 583.111 623.111, 583.111 613.111, 583.111 603.111, 583.111 593.111, 583.111 583.111, 583.111 573.111, 583.111 563.111, 583.111 553.111, 583.111 543.111, 583.111 533.111, 583.111 523.111, 583.111 513.111, 583.111 503.111, 583.111 493.111, 583.111 483.111, 583.111 473.111, 583.111 463.111, 583.111 453.111, 583.111 443.111, 583.111 433.111, 583.111 423.111, 583.111 413.111, 583.111 403.111, 583.111 393.111, 583.111 383.111, 583.111 373.111, 583.111 363.111, 583.111 352.000, 583.111 " />
            <path fill="none" stroke-width="3.0" stroke-linecap="butt" stroke-opacity="1.0" stroke="rgb(0, 0, 0)" stroke-linejoin="round" d=" M 316.444, 654.222 316.445, 654.222 " />
            <path fill="none" stroke-width="3.0" stroke-linecap="butt" stroke-opacity="1.0" stroke="rgb(0, 0, 0)" stroke-linejoin="round" d=" M 352.000, 476.444 352.000, 466.444 352.000, 456.444 352.000, 446.444 352.000, 436.444 352.000, 426.444 352.000, 416.444 352.000, 406.444 352.000, 396.444 352.000, 386.444 352.000, 376.444 352.000, 366.444 352.000, 356.444 352.000, 346.444 352.000, 336.444 352.000, 326.444 352.000, 316.444 352.000, 306.444 352.000, 296.444 352.000, 286.444 352.000, 276.444 352.000, 266.444 352.000, 256.444 352.000, 246.444 352.000, 236.444 352.000, 227.556 352.000, 227.556 342.000, 227.556 332.000, 227.556 322.000, 227.556 312.000, 227.556 302.000, 227.556 292.000, 227.556 282.000, 227.556 280.889, 227.556 280.889, 237.556 280.889, 247.556 280.889, 257.556 280.889, 267.556 280.889, 277.556 280.889, 287.556 280.889, 297.556 280.889, 307.556 280.889, 317.556 280.889, 327.556 280.889, 337.556 280.889, 347.556 280.889, 357.556 280.889, 367.556 280.889, 377.556 280.889, 387.556 280.889, 397.556 280.889, 407.556 280.889, 417.556 280.889, 427.556 280.889, 437.556 280.889, 447.556 280.889, 457.556 280.889, 467.556 280.889, 477.556 280.889, 487.556 280.889, 497.556 280.889, 507.556 280.889, 517.556 280.889, 527.556 280.889, 537.556 280.889, 547.556 280.889, 557.556 280.889, 567.556 280.889, 577.556 280.889, 583.111 280.889, 583.111 290.889, 583.111 300.889, 583.111 310.889, 583.111 316.444, 583.111 " />
            <path fill="none" stroke-width="3.0" stroke-linecap="butt" stroke-opacity="1.0" stroke="rgb(0, 0, 0)" stroke-linejoin="round" d=" M 352.000, 227.556 352.000, 237.556 352.000, 247.556 352.000, 257.556 352.000, 267.556 352.000, 277.556 352.000, 287.556 352.000, 297.556 352.000, 307.556 352.000, 317.556 352.000, 327.556 352.000, 337.556 352.000, 347.556 352.000, 357.556 352.000, 367.556 352.000, 377.556 352.000, 387.556 352.000, 397.556 352.000, 407.556 352.000, 417.556 352.000, 427.556 352.000, 437.556 352.000, 447.556 352.000, 457.556 352.000, 467.556 352.000, 476.444 " />
            <path fill="none" stroke-width="3.0" stroke-linecap="butt" stroke-opacity="1.0" stroke="rgb(0, 0, 0)" stroke-linejoin="round" d=" M 352.000, 583.111 352.000, 583.111 " />
            <path fill="none" stroke-width="3.0" stroke-linecap="butt" stroke-opacity="1.0" stroke="rgb(0, 0, 0)" stroke-linejoin="round" d=" M 280.889, 583.111 290.889, 583.111 300.889, 583.111 310.889, 583.111 320.889, 583.111 330.889, 583.111 340.889, 583.111 350.889, 583.111 352.000, 583.111 352.000, 573.111 352.000, 563.111 352.000, 553.111 352.000, 547.556 352.000, 547.556 " />
            <path fill="none" stroke-width="3.0" stroke-linecap="butt" stroke-opacity="1.0" stroke="rgb(0, 0, 0)" stroke-linejoin="round" d=" M 352.000, 547.556 362.000, 547.556 372.000, 547.556 382.000, 547.556 392.000, 547.556 402.000, 547.556 412.000, 547.556 422.000, 547.556 432.000, 547.556 442.000, 547.556 452.000, 547.556 462.000, 547.556 472.000, 547.556 482.000, 547.556 492.000, 547.556 502.000, 547.556 512.000, 547.556 522.000, 547.556 532.000, 547.556 542.000, 547.556 552.000, 547.556 562.000, 547.556 572.000, 547.556 582.000, 547.556 592.000, 547.556 602.000, 547.556 612.000, 547.556 622.000, 547.556 632.000, 547.556 642.000, 547.556 652.000, 547.556 662.000, 547.556 672.000, 547.556 682.000, 547.556 692.000, 547.556 702.000, 547.556 712.000, 547.556 722.000, 547.556 732.000, 547.556 743.111, 547.556 743.111, 547.556 743.111, 537.556 743.111, 527.556 743.111, 517.556 743.111, 507.556 743.111, 497.556 743.111, 487.556 743.111, 477.556 743.111, 476.445 743.111, 476.445 743.111, 476.445 " />
            <path fill="none" stroke-width="3.0" stroke-linecap="butt" stroke-opacity="1.0" stroke="rgb(0, 0, 0)" stroke-linejoin="round" d=" M 352.000, 547.556 352.000, 547.556 362.000, 547.556 372.000, 547.556 382.000, 547.556 392.000, 547.556 402.000, 547.556 412.000, 547.556 422.000, 547.556 432.000, 547.556 442.000, 547.556 452.000, 547.556 462.000, 547.556 472.000, 547.556 482.000, 547.556 492.000, 547.556 502.000, 547.556 512.000, 547.556 522.000, 547.556 532.000, 547.556 542.000, 547.556 552.000, 547.556 562.000, 547.556 572.000, 547.556 582.000, 547.556 592.000, 547.556 602.000, 547.556 612.000, 547.556 622.000, 547.556 632.000, 547.556 642.000, 547.556 652.000, 547.556 662.000, 547.556 672.000, 547.556 682.000, 547.556 692.000, 547.556 702.000, 547.556 712.000, 547.556 722.000, 547.556 732.000, 547.556 743.111, 547.556 743.111, 547.556 743.111, 537.556 743.111, 527.556 743.111, 517.556 743.111, 507.556 743.111, 497.556 743.111, 487.556 743.111, 477.556 743.111, 476.445 743.111, 476.445 743.111, 476.444 733.111, 476.444 723.111, 476.444 713.111, 476.444 703.111, 476.444 693.111, 476.444 683.111, 476.444 673.111, 476.444 663.111, 476.444 653.111, 476.444 643.111, 476.444 633.111, 476.444 623.111, 476.444 613.111, 476.444 603.111, 476.444 593.111, 476.444 583.111, 476.444 573.111, 476.444 563.111, 476.444 553.111, 476.444 543.111, 476.444 533.111, 476.444 523.111, 476.444 513.111, 476.444 503.111, 476.444 493.111, 476.444 483.111, 476.444 473.111, 476.444 463.111, 476.444 453.111, 476.444 443.111, 476.444 433.111, 476.444 423.111, 476.444 413.111, 476.444 403.111, 476.444 393.111, 476.444 383.111, 476.444 373.111, 476.444 363.111, 476.444 352.000, 476.444 352.000, 476.444 342.000, 476.444 332.000, 476.444 322.000, 476.444 316.444, 476.444 316.444, 486.444 316.444, 496.444 316.444, 506.444 316.444, 516.444 316.444, 526.444 316.444, 536.444 316.444, 546.444 316.444, 547.556 316.444, 547.556 " />
            <path fill="none" stroke-width="3.0" stroke-linecap="butt" stroke-opacity="1.0" stroke="rgb(0, 0, 0)" stroke-linejoin="round" d=" M 316.444, 547.556 316.445, 547.556 326.445, 547.556 336.445, 547.556 346.445, 547.556 352.000, 547.556 362.000, 547.556 372.000, 547.556 382.000, 547.556 392.000, 547.556 402.000, 547.556 412.000, 547.556 422.000, 547.556 432.000, 547.556 442.000, 547.556 452.000, 547.556 462.000, 547.556 472.000, 547.556 482.000, 547.556 492.000, 547.556 502.000, 547.556 512.000, 547.556 522.000, 547.556 532.000, 547.556 542.000, 547.556 552.000, 547.556 562.000, 547.556 572.000, 547.556 582.000, 547.556 592.000, 547.556 602.000, 547.556 612.000, 547.556 622.000, 547.556 632.000, 547.556 642.000, 547.556 652.000, 547.556 662.000, 547.556 672.000, 547.556 682.000, 547.556 692.000, 547.556 702.000, 547.556 712.000, 547.556 722.000, 547.556 732.000, 547.556 743.111, 547.556 " />
            <path fill="none" stroke-width="3.0" stroke-linecap="butt" stroke-opacity="1.0" stroke="rgb(0, 0, 0)" stroke-linejoin="round" d=" M 316.445, 796.444 316.786, 796.444 317.798, 796.444 319.441, 796.444 321.651, 796.444 324.345, 796.444 327.419, 796.444 330.754, 796.444 334.222, 796.444 337.691, 796.444 341.026, 796.444 344.099, 796.444 346.793, 796.444 349.004, 796.444 350.647, 796.444 351.658, 796.444 352.000, 796.444 352.000, 786.444 352.000, 776.444 352.000, 766.444 352.000, 756.444 352.000, 746.444 352.000, 736.444 352.000, 726.444 352.000, 716.444 352.000, 706.444 352.000, 696.444 352.000, 686.444 352.000, 676.444 352.000, 666.444 352.000, 656.444 352.000, 654.222 352.000, 654.222 " />
            <path fill="none" stroke-width="3.0" stroke-linecap="butt" stroke-opacity="1.0" stroke="rgb(0, 0, 0)" stroke-linejoin="round" d=" M 707.556, 654.222 707.556, 654.222 707.556, 664.222 707.556, 674.222 707.556, 684.222 707.556, 694.222 707.556, 704.222 707.556, 714.222 707.556, 724.222 707.556, 734.222 707.556, 744.222 707.556, 754.222 707.556, 764.222 707.556, 774.222 707.556, 784.222 707.556, 794.222 707.556, 796.444 707.897, 796.444 708.909, 796.444 710.552, 796.444 712.763, 796.444 715.457, 796.444 718.530, 796.444 721.865, 796.444 725.333, 796.444 728.802, 796.444 732.137, 796.444 735.210, 796.444 737.904, 796.444 740.115, 796.444 741.758, 796.444 742.770, 796.444 743.111, 796.444 743.111, 786.444 743.111, 776.444 743.111, 766.444 743.111, 756.444 743.111, 746.444 743.111, 736.444 743.111, 726.444 743.111, 716.444 743.111, 706.444 743.111, 696.444 743.111, 686.444 743.111, 676.444 743.111, 666.444 743.111, 656.444 743.111, 654.222 743.111, 654.222 " />
            <path fill="none" stroke-width="3.0" stroke-linecap="butt" stroke-opacity="1.0" stroke="rgb(0, 0, 0)" stroke-linejoin="round" d=" M 316.445, 654.222 316.445, 654.222 316.445, 664.222 316.445, 674.222 316.445, 684.222 316.445, 694.222 316.445, 704.222 316.445, 714.222 316.445, 724.222 316.445, 734.222 316.445, 744.222 316.445, 754.222 316.445, 764.222 316.445, 774.222 316.445, 784.222 316.445, 794.222 316.445, 796.444 " />
            <path fill="none" stroke-width="3.0" stroke-linecap="butt" stroke-opacity="1.0" stroke="rgb(0, 0, 0)" stroke-linejoin="round" d=" M 352.000, 583.111 352.000, 573.111 352.000, 563.111 352.000, 553.111 352.000, 547.556 352.000, 547.556 " />
            <path fill="none" stroke-width="3.0" stroke-linecap="butt" stroke-opacity="1.0" stroke="rgb(0, 0, 0)" stroke-linejoin="round" d=" M 352.000, 654.222 362.000, 654.222 372.000, 654.222 382.000, 654.222 392.000, 654.222 402.000, 654.222 412.000, 654.222 422.000, 654.222 432.000, 654.222 442.000, 654.222 452.000, 654.222 462.000, 654.222 472.000, 654.222 482.000, 654.222 492.000, 654.222 502.000, 654.222 512.000, 654.222 522.000, 654.222 532.000, 654.222 542.000, 654.222 552.000, 654.222 562.000, 654.222 572.000, 654.222 582.000, 654.222 592.000, 654.222 602.000, 654.222 612.000, 654.222 622.000, 654.222 632.000, 654.222 642.000, 654.222 652.000, 654.222 662.000, 654.222 672.000, 654.222 682.000, 654.222 692.000, 654.222 702.000, 654.222 707.556, 654.222 " />
            <path fill="none" stroke-width="3.0" stroke-linecap="butt" stroke-opacity="1.0" stroke="rgb(0, 0, 0)" stroke-linejoin="round" d=" M 707.556, 654.222 717.556, 654.222 727.556, 654.222 737.556, 654.222 743.111, 654.222 " />
            <path fill="none" stroke-width="3.0" stroke-linecap="butt" stroke-opacity="1.0" stroke="rgb(0, 0, 0)" stroke-linejoin="round" d=" M 352.000, 654.222 362.000, 654.222 372.000, 654.222 382.000, 654.222 392.000, 654.222 402.000, 654.222 412.000, 654.222 422.000, 654.222 432.000, 654.222 442.000, 654.222 452.000, 654.222 462.000, 654.222 472.000, 654.222 482.000, 654.222 492.000, 654.222 502.000, 654.222 512.000, 654.222 522.000, 654.222 532.000, 654.222 542.000, 654.222 552.000, 654.222 562.000, 654.222 572.000, 654.222 582.000, 654.222 592.000, 654.222 602.000, 654.222 612.000, 654.222 622.000, 654.222 632.000, 654.222 642.000, 654.222 652.000, 654.222 662.000, 654.222 672.000, 654.222 682.000, 654.222 692.000, 654.222 702.000, 654.222 707.556, 654.222 " />
            <path fill="none" stroke-width="3.0" stroke-linecap="butt" stroke-opacity="1.0" stroke="rgb(0, 0, 0)" stroke-linejoin="round" d=" M 316.445, 654.222 326.445, 654.222 336.445, 654.222 346.445, 654.222 352.000, 654.222 " />
            <path fill="none" stroke-width="3.0" stroke-linecap="butt" stroke-opacity="1.0" stroke="rgb(0, 0, 0)" stroke-linejoin="round" d=" M 352.000, 583.111 342.000, 583.111 332.000, 583.111 322.000, 583.111 316.444, 583.111 " />
            <path fill="none" stroke-width="3.0" stroke-linecap="butt" stroke-opacity="1.0" stroke="rgb(0, 0, 0)" stroke-linejoin="round" d=" M 352.000, 547.556 362.000, 547.556 372.000, 547.556 382.000, 547.556 392.000, 547.556 402.000, 547.556 412.000, 547.556 422.000, 547.556 432.000, 547.556 442.000, 547.556 452.000, 547.556 462.000, 547.556 472.000, 547.556 482.000, 547.556 492.000, 547.556 502.000, 547.556 512.000, 547.556 522.000, 547.556 532.000, 547.556 542.000, 547.556 552.000, 547.556 562.000, 547.556 572.000, 547.556 582.000, 547.556 592.000, 547.556 602.000, 547.556 612.000, 547.556 622.000, 547.556 632.000, 547.556 642.000, 547.556 652.000, 547.556 662.000, 547.556 672.000, 547.556 682.000, 547.556 692.000, 547.556 702.000, 547.556 712.000, 547.556 722.000, 547.556 732.000, 547.556 743.111, 547.556 " />
        </g>
    </g>
    <g id="ViewLayer_TechnicalLines" inkscape:groupmode="lineset" inkscape:label="ViewLayer_TechnicalLines">
        <g inkscape:groupmode="layer" id="strokes" inkscape:label="strokes">
            <path fill="none" stroke-width="3.0" stroke-linecap="butt" stroke-opacity="1.0" stroke="rgb(0, 0, 0)" stroke-linejoin="round" d=" M 316.444, 583.111 316.444, 593.111 316.444, 603.111 316.444, 613.111 316.444, 623.111 316.444, 633.111 316.444, 643.111 316.444, 653.111 316.444, 654.222 316.444, 654.222 316.445, 654.222 " />
            <path fill="none" stroke-width="3.0" stroke-linecap="butt" stroke-opacity="1.0" stroke="rgb(0, 0, 0)" stroke-linejoin="round" d=" M 743.111, 654.222 743.111, 644.222 743.111, 634.222 743.111, 624.222 743.111, 614.222 743.111, 604.222 743.111, 594.222 743.111, 584.222 743.111, 583.111 733.111, 583.111 723.111, 583.111 713.111, 583.111 703.111, 583.111 693.111, 583.111 683.111, 583.111 673.111, 583.111 663.111, 583.111 653.111, 583.111 643.111, 583.111 633.111, 583.111 623.111, 583.111 613.111, 583.111 603.111, 583.111 593.111, 583.111 583.111, 583.111 573.111, 583.111 563.111, 583.111 553.111, 583.111 543.111, 583.111 533.111, 583.111 523.111, 583.111 513.111, 583.111 503.111, 583.111 493.111, 583.111 483.111, 583.111 473.111, 583.111 463.111, 583.111 453.111, 583.111 443.111, 583.111 433.111, 583.111 423.111, 583.111 413.111, 583.111 403.111, 583.111 393.111, 583.111 383.111, 583.111 373.111, 583.111 363.111, 583.111 352.000, 583.111 " />
            <path fill="none" stroke-width="3.0" stroke-linecap="butt" stroke-opacity="1.0" stroke="rgb(0, 0, 0)" stroke-linejoin="round" d=" M 316.444, 654.222 316.445, 654.222 " />
            <path fill="none" stroke-width="3.0" stroke-linecap="butt" stroke-opacity="1.0" stroke="rgb(0, 0, 0)" stroke-linejoin="round" d=" M 352.000, 476.444 352.000, 466.444 352.000, 456.444 352.000, 446.444 352.000, 436.444 352.000, 426.444 352.000, 416.444 352.000, 406.444 352.000, 396.444 352.000, 386.444 352.000, 376.444 352.000, 366.444 352.000, 356.444 352.000, 346.444 352.000, 336.444 352.000, 326.444 352.000, 316.444 352.000, 306.444 352.000, 296.444 352.000, 286.444 352.000, 276.444 352.000, 266.444 352.000, 256.444 352.000, 246.444 352.000, 236.444 352.000, 227.556 352.000, 227.556 342.000, 227.556 332.000, 227.556 322.000, 227.556 312.000, 227.556 302.000, 227.556 292.000, 227.556 282.000, 227.556 280.889, 227.556 280.889, 237.556 280.889, 247.556 280.889, 257.556 280.889, 267.556 280.889, 277.556 280.889, 287.556 280.889, 297.556 280.889, 307.556 280.889, 317.556 280.889, 327.556 280.889, 337.556 280.889, 347.556 280.889, 357.556 280.889, 367.556 280.889, 377.556 280.889, 387.556 280.889, 397.556 280.889, 407.556 280.889, 417.556 280.889, 427.556 280.889, 437.556 280.889, 447.556 280.889, 457.556 280.889, 467.556 280.889, 477.556 280.889, 487.556 280.889, 497.556 280.889, 507.556 280.889, 517.556 280.889, 527.556 280.889, 537.556 280.889, 547.556 280.889, 557.556 280.889, 567.556 280.889, 577.556 280.889, 583.111 280.889, 583.111 290.889, 583.111 300.889, 583.111 310.889, 583.111 316.444, 583.111 " />
            <path fill="none" stroke-width="3.0" stroke-linecap="butt" stroke-opacity="1.0" stroke="rgb(0, 0, 0)" stroke-linejoin="round" d=" M 352.000, 227.556 352.000, 237.556 352.000, 247.556 352.000, 257.556 352.000, 267.556 352.000, 277.556 352.000, 287.556 352.000, 297.556 352.000, 307.556 352.000, 317.556 352.000, 327.556 352.000, 337.556 352.000, 347.556 352.000, 357.556 352.000, 367.556 352.000, 377.556 352.000, 387.556 352.000, 397.556 352.000, 407.556 352.000, 417.556 352.000, 427.556 352.000, 437.556 352.000, 447.556 352.000, 457.556 352.000, 467.556 352.000, 476.444 " />
            <path fill="none" stroke-width="3.0" stroke-linecap="butt" stroke-opacity="1.0" stroke="rgb(0, 0, 0)" stroke-linejoin="round" d=" M 352.000, 583.111 352.000, 583.111 " />
            <path fill="none" stroke-width="3.0" stroke-linecap="butt" stroke-opacity="1.0" stroke="rgb(0, 0, 0)" stroke-linejoin="round" d=" M 280.889, 583.111 290.889, 583.111 300.889, 583.111 310.889, 583.111 320.889, 583.111 330.889, 583.111 340.889, 583.111 350.889, 583.111 352.000, 583.111 352.000, 573.111 352.000, 563.111 352.000, 553.111 352.000, 547.556 352.000, 547.556 " />
            <path fill="none" stroke-width="3.0" stroke-linecap="butt" stroke-opacity="1.0" stroke="rgb(0, 0, 0)" stroke-linejoin="round" d=" M 352.000, 547.556 362.000, 547.556 372.000, 547.556 382.000, 547.556 392.000, 547.556 402.000, 547.556 412.000, 547.556 422.000, 547.556 432.000, 547.556 442.000, 547.556 452.000, 547.556 462.000, 547.556 472.000, 547.556 482.000, 547.556 492.000, 547.556 502.000, 547.556 512.000, 547.556 522.000, 547.556 532.000, 547.556 542.000, 547.556 552.000, 547.556 562.000, 547.556 572.000, 547.556 582.000, 547.556 592.000, 547.556 602.000, 547.556 612.000, 547.556 622.000, 547.556 632.000, 547.556 642.000, 547.556 652.000, 547.556 662.000, 547.556 672.000, 547.556 682.000, 547.556 692.000, 547.556 702.000, 547.556 712.000, 547.556 722.000, 547.556 732.000, 547.556 743.111, 547.556 743.111, 547.556 743.111, 537.556 743.111, 527.556 743.111, 517.556 743.111, 507.556 743.111, 497.556 743.111, 487.556 743.111, 477.556 743.111, 476.445 743.111, 476.445 743.111, 476.445 " />
            <path fill="none" stroke-width="3.0" stroke-linecap="butt" stroke-opacity="1.0" stroke="rgb(0, 0, 0)" stroke-linejoin="round" d=" M 352.000, 547.556 352.000, 547.556 362.000, 547.556 372.000, 547.556 382.000, 547.556 392.000, 547.556 402.000, 547.556 412.000, 547.556 422.000, 547.556 432.000, 547.556 442.000, 547.556 452.000, 547.556 462.000, 547.556 472.000, 547.556 482.000, 547.556 492.000, 547.556 502.000, 547.556 512.000, 547.556 522.000, 547.556 532.000, 547.556 542.000, 547.556 552.000, 547.556 562.000, 547.556 572.000, 547.556 582.000, 547.556 592.000, 547.556 602.000, 547.556 612.000, 547.556 622.000, 547.556 632.000, 547.556 642.000, 547.556 652.000, 547.556 662.000, 547.556 672.000, 547.556 682.000, 547.556 692.000, 547.556 702.000, 547.556 712.000, 547.556 722.000, 547.556 732.000, 547.556 743.111, 547.556 743.111, 547.556 743.111, 537.556 743.111, 527.556 743.111, 517.556 743.111, 507.556 743.111, 497.556 743.111, 487.556 743.111, 477.556 743.111, 476.445 743.111, 476.445 743.111, 476.444 733.111, 476.444 723.111, 476.444 713.111, 476.444 703.111, 476.444 693.111, 476.444 683.111, 476.444 673.111, 476.444 663.111, 476.444 653.111, 476.444 643.111, 476.444 633.111, 476.444 623.111, 476.444 613.111, 476.444 603.111, 476.444 593.111, 476.444 583.111, 476.444 573.111, 476.444 563.111, 476.444 553.111, 476.444 543.111, 476.444 533.111, 476.444 523.111, 476.444 513.111, 476.444 503.111, 476.444 493.111, 476.444 483.111, 476.444 473.111, 476.444 463.111, 476.444 453.111, 476.444 443.111, 476.444 433.111, 476.444 423.111, 476.444 413.111, 476.444 403.111, 476.444 393.111, 476.444 383.111, 476.444 373.111, 476.444 363.111, 476.444 352.000, 476.444 352.000, 476.444 342.000, 476.444 332.000, 476.444 322.000, 476.444 316.444, 476.444 316.444, 486.444 316.444, 496.444 316.444, 506.444 316.444, 516.444 316.444, 526.444 316.444, 536.444 316.444, 546.444 316.444, 547.556 316.444, 547.556 " />
            <path fill="none" stroke-width="3.0" stroke-linecap="butt" stroke-opacity="1.0" stroke="rgb(0, 0, 0)" stroke-linejoin="round" d=" M 316.444, 547.556 316.445, 547.556 326.445, 547.556 336.445, 547.556 346.445, 547.556 352.000, 547.556 362.000, 547.556 372.000, 547.556 382.000, 547.556 392.000, 547.556 402.000, 547.556 412.000, 547.556 422.000, 547.556 432.000, 547.556 442.000, 547.556 452.000, 547.556 462.000, 547.556 472.000, 547.556 482.000, 547.556 492.000, 547.556 502.000, 547.556 512.000, 547.556 522.000, 547.556 532.000, 547.556 542.000, 547.556 552.000, 547.556 562.000, 547.556 572.000, 547.556 582.000, 547.556 592.000, 547.556 602.000, 547.556 612.000, 547.556 622.000, 547.556 632.000, 547.556 642.000, 547.556 652.000, 547.556 662.000, 547.556 672.000, 547.556 682.000, 547.556 692.000, 547.556 702.000, 547.556 712.000, 547.556 722.000, 547.556 732.000, 547.556 743.111, 547.556 " />
            <path fill="none" stroke-width="3.0" stroke-linecap="butt" stroke-opacity="1.0" stroke="rgb(0, 0, 0)" stroke-linejoin="round" d=" M 316.445, 796.444 316.786, 796.444 317.798, 796.444 319.441, 796.444 321.651, 796.444 324.345, 796.444 327.419, 796.444 330.754, 796.444 334.222, 796.444 337.691, 796.444 341.026, 796.444 344.099, 796.444 346.793, 796.444 349.004, 796.444 350.647, 796.444 351.658, 796.444 352.000, 796.444 352.000, 786.444 352.000, 776.444 352.000, 766.444 352.000, 756.444 352.000, 746.444 352.000, 736.444 352.000, 726.444 352.000, 716.444 352.000, 706.444 352.000, 696.444 352.000, 686.444 352.000, 676.444 352.000, 666.444 352.000, 656.444 352.000, 654.222 352.000, 654.222 " />
            <path fill="none" stroke-width="3.0" stroke-linecap="butt" stroke-opacity="1.0" stroke="rgb(0, 0, 0)" stroke-linejoin="round" d=" M 707.556, 654.222 707.556, 654.222 707.556, 664.222 707.556, 674.222 707.556, 684.222 707.556, 694.222 707.556, 704.222 707.556, 714.222 707.556, 724.222 707.556, 734.222 707.556, 744.222 707.556, 754.222 707.556, 764.222 707.556, 774.222 707.556, 784.222 707.556, 794.222 707.556, 796.444 707.897, 796.444 708.909, 796.444 710.552, 796.444 712.763, 796.444 715.457, 796.444 718.530, 796.444 721.865, 796.444 725.333, 796.444 728.802, 796.444 732.137, 796.444 735.210, 796.444 737.904, 796.444 740.115, 796.444 741.758, 796.444 742.770, 796.444 743.111, 796.444 743.111, 786.444 743.111, 776.444 743.111, 766.444 743.111, 756.444 743.111, 746.444 743.111, 736.444 743.111, 726.444 743.111, 716.444 743.111, 706.444 743.111, 696.444 743.111, 686.444 743.111, 676.444 743.111, 666.444 743.111, 656.444 743.111, 654.222 743.111, 654.222 " />
            <path fill="none" stroke-width="3.0" stroke-linecap="butt" stroke-opacity="1.0" stroke="rgb(0, 0, 0)" stroke-linejoin="round" d=" M 316.445, 654.222 316.445, 654.222 316.445, 664.222 316.445, 674.222 316.445, 684.222 316.445, 694.222 316.445, 704.222 316.445, 714.222 316.445, 724.222 316.445, 734.222 316.445, 744.222 316.445, 754.222 316.445, 764.222 316.445, 774.222 316.445, 784.222 316.445, 794.222 316.445, 796.444 " />
            <path fill="none" stroke-width="3.0" stroke-linecap="butt" stroke-opacity="1.0" stroke="rgb(0, 0, 0)" stroke-linejoin="round" d=" M 352.000, 583.111 352.000, 573.111 352.000, 563.111 352.000, 553.111 352.000, 547.556 352.000, 547.556 " />
            <path fill="none" stroke-width="3.0" stroke-linecap="butt" stroke-opacity="1.0" stroke="rgb(0, 0, 0)" stroke-linejoin="round" d=" M 352.000, 654.222 362.000, 654.222 372.000, 654.222 382.000, 654.222 392.000, 654.222 402.000, 654.222 412.000, 654.222 422.000, 654.222 432.000, 654.222 442.000, 654.222 452.000, 654.222 462.000, 654.222 472.000, 654.222 482.000, 654.222 492.000, 654.222 502.000, 654.222 512.000, 654.222 522.000, 654.222 532.000, 654.222 542.000, 654.222 552.000, 654.222 562.000, 654.222 572.000, 654.222 582.000, 654.222 592.000, 654.222 602.000, 654.222 612.000, 654.222 622.000, 654.222 632.000, 654.222 642.000, 654.222 652.000, 654.222 662.000, 654.222 672.000, 654.222 682.000, 654.222 692.000, 654.222 702.000, 654.222 707.556, 654.222 " />
            <path fill="none" stroke-width="3.0" stroke-linecap="butt" stroke-opacity="1.0" stroke="rgb(0, 0, 0)" stroke-linejoin="round" d=" M 707.556, 654.222 717.556, 654.222 727.556, 654.222 737.556, 654.222 743.111, 654.222 " />
            <path fill="none" stroke-width="3.0" stroke-linecap="butt" stroke-opacity="1.0" stroke="rgb(0, 0, 0)" stroke-linejoin="round" d=" M 352.000, 654.222 362.000, 654.222 372.000, 654.222 382.000, 654.222 392.000, 654.222 402.000, 654.222 412.000, 654.222 422.000, 654.222 432.000, 654.222 442.000, 654.222 452.000, 654.222 462.000, 654.222 472.000, 654.222 482.000, 654.222 492.000, 654.222 502.000, 654.222 512.000, 654.222 522.000, 654.222 532.000, 654.222 542.000, 654.222 552.000, 654.222 562.000, 654.222 572.000, 654.222 582.000, 654.222 592.000, 654.222 602.000, 654.222 612.000, 654.222 622.000, 654.222 632.000, 654.222 642.000, 654.222 652.000, 654.222 662.000, 654.222 672.000, 654.222 682.000, 654.222 692.000, 654.222 702.000, 654.222 707.556, 654.222 " />
            <path fill="none" stroke-width="3.0" stroke-linecap="butt" stroke-opacity="1.0" stroke="rgb(0, 0, 0)" stroke-linejoin="round" d=" M 316.445, 654.222 326.445, 654.222 336.445, 654.222 346.445, 654.222 352.000, 654.222 " />
            <path fill="none" stroke-width="3.0" stroke-linecap="butt" stroke-opacity="1.0" stroke="rgb(0, 0, 0)" stroke-linejoin="round" d=" M 352.000, 583.111 342.000, 583.111 332.000, 583.111 322.000, 583.111 316.444, 583.111 " />
            <path fill="none" stroke-width="3.0" stroke-linecap="butt" stroke-opacity="1.0" stroke="rgb(0, 0, 0)" stroke-linejoin="round" d=" M 352.000, 547.556 362.000, 547.556 372.000, 547.556 382.000, 547.556 392.000, 547.556 402.000, 547.556 412.000, 547.556 422.000, 547.556 432.000, 547.556 442.000, 547.556 452.000, 547.556 462.000, 547.556 472.000, 547.556 482.000, 547.556 492.000, 547.556 502.000, 547.556 512.000, 547.556 522.000, 547.556 532.000, 547.556 542.000, 547.556 552.000, 547.556 562.000, 547.556 572.000, 547.556 582.000, 547.556 592.000, 547.556 602.000, 547.556 612.000, 547.556 622.000, 547.556 632.000, 547.556 642.000, 547.556 652.000, 547.556 662.000, 547.556 672.000, 547.556 682.000, 547.556 692.000, 547.556 702.000, 547.556 712.000, 547.556 722.000, 547.556 732.000, 547.556 743.111, 547.556 " />
        </g>
    </g>
    <g id="ViewLayer_TechnicalLines.001" inkscape:groupmode="lineset" inkscape:label="ViewLayer_TechnicalLines.001">
        <g inkscape:groupmode="layer" id="strokes" inkscape:label="strokes">
            <path fill="none" stroke-width="1.5" stroke-linecap="round" stroke-opacity="1.0" stroke="rgb(0, 0, 0)" stroke-linejoin="round" d=" M 316.444, 583.111 316.444, 593.111 316.444, 603.111 316.444, 613.111 316.444, 623.111 316.444, 633.111 316.444, 643.111 316.444, 653.111 316.444, 654.222 316.444, 654.222 316.445, 654.222 " />
            <path fill="none" stroke-width="1.5" stroke-linecap="round" stroke-opacity="1.0" stroke="rgb(0, 0, 0)" stroke-linejoin="round" d=" M 743.111, 654.222 743.111, 644.222 743.111, 634.222 743.111, 624.222 743.111, 614.222 743.111, 604.222 743.111, 594.222 743.111, 584.222 743.111, 583.111 733.111, 583.111 723.111, 583.111 713.111, 583.111 703.111, 583.111 693.111, 583.111 683.111, 583.111 673.111, 583.111 663.111, 583.111 653.111, 583.111 643.111, 583.111 633.111, 583.111 623.111, 583.111 613.111, 583.111 603.111, 583.111 593.111, 583.111 583.111, 583.111 573.111, 583.111 563.111, 583.111 553.111, 583.111 543.111, 583.111 533.111, 583.111 523.111, 583.111 513.111, 583.111 503.111, 583.111 493.111, 583.111 483.111, 583.111 473.111, 583.111 463.111, 583.111 453.111, 583.111 443.111, 583.111 433.111, 583.111 423.111, 583.111 413.111, 583.111 403.111, 583.111 393.111, 583.111 383.111, 583.111 373.111, 583.111 363.111, 583.111 352.000, 583.111 " />
            <path fill="none" stroke-width="1.5" stroke-linecap="round" stroke-opacity="1.0" stroke="rgb(0, 0, 0)" stroke-linejoin="round" d=" M 316.444, 654.222 316.445, 654.222 " />
            <path fill="none" stroke-width="1.5" stroke-linecap="round" stroke-opacity="1.0" stroke="rgb(0, 0, 0)" stroke-linejoin="round" d=" M 352.000, 476.444 352.000, 466.444 352.000, 456.444 352.000, 446.444 352.000, 436.444 352.000, 426.444 352.000, 416.444 352.000, 406.444 352.000, 396.444 352.000, 386.444 352.000, 376.444 352.000, 366.444 352.000, 356.444 352.000, 346.444 352.000, 336.444 352.000, 326.444 352.000, 316.444 352.000, 306.444 352.000, 296.444 352.000, 286.444 352.000, 276.444 352.000, 266.444 352.000, 256.444 352.000, 246.444 352.000, 236.444 352.000, 227.556 352.000, 227.556 342.000, 227.556 332.000, 227.556 322.000, 227.556 312.000, 227.556 302.000, 227.556 292.000, 227.556 282.000, 227.556 280.889, 227.556 280.889, 237.556 280.889, 247.556 280.889, 257.556 280.889, 267.556 280.889, 277.556 280.889, 287.556 280.889, 297.556 280.889, 307.556 280.889, 317.556 280.889, 327.556 280.889, 337.556 280.889, 347.556 280.889, 357.556 280.889, 367.556 280.889, 377.556 280.889, 387.556 280.889, 397.556 280.889, 407.556 280.889, 417.556 280.889, 427.556 280.889, 437.556 280.889, 447.556 280.889, 457.556 280.889, 467.556 280.889, 477.556 280.889, 487.556 280.889, 497.556 280.889, 507.556 280.889, 517.556 280.889, 527.556 280.889, 537.556 280.889, 547.556 280.889, 557.556 280.889, 567.556 280.889, 577.556 280.889, 583.111 280.889, 583.111 290.889, 583.111 300.889, 583.111 310.889, 583.111 316.444, 583.111 " />
            <path fill="none" stroke-width="1.5" stroke-linecap="round" stroke-opacity="1.0" stroke="rgb(0, 0, 0)" stroke-linejoin="round" d=" M 352.000, 227.556 352.000, 237.556 352.000, 247.556 352.000, 257.556 352.000, 267.556 352.000, 277.556 352.000, 287.556 352.000, 297.556 352.000, 307.556 352.000, 317.556 352.000, 327.556 352.000, 337.556 352.000, 347.556 352.000, 357.556 352.000, 367.556 352.000, 377.556 352.000, 387.556 352.000, 397.556 352.000, 407.556 352.000, 417.556 352.000, 427.556 352.000, 437.556 352.000, 447.556 352.000, 457.556 352.000, 467.556 352.000, 476.444 " />
            <path fill="none" stroke-width="1.5" stroke-linecap="round" stroke-opacity="1.0" stroke="rgb(0, 0, 0)" stroke-linejoin="round" d=" M 352.000, 583.111 352.000, 583.111 " />
            <path fill="none" stroke-width="1.5" stroke-linecap="round" stroke-opacity="1.0" stroke="rgb(0, 0, 0)" stroke-linejoin="round" d=" M 280.889, 583.111 290.889, 583.111 300.889, 583.111 310.889, 583.111 320.889, 583.111 330.889, 583.111 340.889, 583.111 350.889, 583.111 352.000, 583.111 352.000, 573.111 352.000, 563.111 352.000, 553.111 352.000, 547.556 352.000, 547.556 " />
            <path fill="none" stroke-width="1.5" stroke-linecap="round" stroke-opacity="1.0" stroke="rgb(0, 0, 0)" stroke-linejoin="round" d=" M 352.000, 547.556 362.000, 547.556 372.000, 547.556 382.000, 547.556 392.000, 547.556 402.000, 547.556 412.000, 547.556 422.000, 547.556 432.000, 547.556 442.000, 547.556 452.000, 547.556 462.000, 547.556 472.000, 547.556 482.000, 547.556 492.000, 547.556 502.000, 547.556 512.000, 547.556 522.000, 547.556 532.000, 547.556 542.000, 547.556 552.000, 547.556 562.000, 547.556 572.000, 547.556 582.000, 547.556 592.000, 547.556 602.000, 547.556 612.000, 547.556 622.000, 547.556 632.000, 547.556 642.000, 547.556 652.000, 547.556 662.000, 547.556 672.000, 547.556 682.000, 547.556 692.000, 547.556 702.000, 547.556 712.000, 547.556 722.000, 547.556 732.000, 547.556 743.111, 547.556 743.111, 547.556 743.111, 537.556 743.111, 527.556 743.111, 517.556 743.111, 507.556 743.111, 497.556 743.111, 487.556 743.111, 477.556 743.111, 476.445 743.111, 476.445 743.111, 476.445 " />
            <path fill="none" stroke-width="1.5" stroke-linecap="round" stroke-opacity="1.0" stroke="rgb(0, 0, 0)" stroke-linejoin="round" d=" M 352.000, 547.556 352.000, 547.556 362.000, 547.556 372.000, 547.556 382.000, 547.556 392.000, 547.556 402.000, 547.556 412.000, 547.556 422.000, 547.556 432.000, 547.556 442.000, 547.556 452.000, 547.556 462.000, 547.556 472.000, 547.556 482.000, 547.556 492.000, 547.556 502.000, 547.556 512.000, 547.556 522.000, 547.556 532.000, 547.556 542.000, 547.556 552.000, 547.556 562.000, 547.556 572.000, 547.556 582.000, 547.556 592.000, 547.556 602.000, 547.556 612.000, 547.556 622.000, 547.556 632.000, 547.556 642.000, 547.556 652.000, 547.556 662.000, 547.556 672.000, 547.556 682.000, 547.556 692.000, 547.556 702.000, 547.556 712.000, 547.556 722.000, 547.556 732.000, 547.556 743.111, 547.556 743.111, 547.556 743.111, 537.556 743.111, 527.556 743.111, 517.556 743.111, 507.556 743.111, 497.556 743.111, 487.556 743.111, 477.556 743.111, 476.445 743.111, 476.445 743.111, 476.444 733.111, 476.444 723.111, 476.444 713.111, 476.444 703.111, 476.444 693.111, 476.444 683.111, 476.444 673.111, 476.444 663.111, 476.444 653.111, 476.444 643.111, 476.444 633.111, 476.444 623.111, 476.444 613.111, 476.444 603.111, 476.444 593.111, 476.444 583.111, 476.444 573.111, 476.444 563.111, 476.444 553.111, 476.444 543.111, 476.444 533.111, 476.444 523.111, 476.444 513.111, 476.444 503.111, 476.444 493.111, 476.444 483.111, 476.444 473.111, 476.444 463.111, 476.444 453.111, 476.444 443.111, 476.444 433.111, 476.444 423.111, 476.444 413.111, 476.444 403.111, 476.444 393.111, 476.444 383.111, 476.444 373.111, 476.444 363.111, 476.444 352.000, 476.444 352.000, 476.444 342.000, 476.444 332.000, 476.444 322.000, 476.444 316.444, 476.444 316.444, 486.444 316.444, 496.444 316.444, 506.444 316.444, 516.444 316.444, 526.444 316.444, 536.444 316.444, 546.444 316.444, 547.556 316.444, 547.556 " />
            <path fill="none" stroke-width="1.5" stroke-linecap="round" stroke-opacity="1.0" stroke="rgb(0, 0, 0)" stroke-linejoin="round" d=" M 316.444, 547.556 316.445, 547.556 326.445, 547.556 336.445, 547.556 346.445, 547.556 352.000, 547.556 362.000, 547.556 372.000, 547.556 382.000, 547.556 392.000, 547.556 402.000, 547.556 412.000, 547.556 422.000, 547.556 432.000, 547.556 442.000, 547.556 452.000, 547.556 462.000, 547.556 472.000, 547.556 482.000, 547.556 492.000, 547.556 502.000, 547.556 512.000, 547.556 522.000, 547.556 532.000, 547.556 542.000, 547.556 552.000, 547.556 562.000, 547.556 572.000, 547.556 582.000, 547.556 592.000, 547.556 602.000, 547.556 612.000, 547.556 622.000, 547.556 632.000, 547.556 642.000, 547.556 652.000, 547.556 662.000, 547.556 672.000, 547.556 682.000, 547.556 692.000, 547.556 702.000, 547.556 712.000, 547.556 722.000, 547.556 732.000, 547.556 743.111, 547.556 " />
            <path fill="none" stroke-width="1.5" stroke-linecap="round" stroke-opacity="1.0" stroke="rgb(0, 0, 0)" stroke-linejoin="round" d=" M 316.445, 796.444 316.786, 796.444 317.798, 796.444 319.441, 796.444 321.651, 796.444 324.345, 796.444 327.419, 796.444 330.754, 796.444 334.222, 796.444 337.691, 796.444 341.026, 796.444 344.099, 796.444 346.793, 796.444 349.004, 796.444 350.647, 796.444 351.658, 796.444 352.000, 796.444 352.000, 786.444 352.000, 776.444 352.000, 766.444 352.000, 756.444 352.000, 746.444 352.000, 736.444 352.000, 726.444 352.000, 716.444 352.000, 706.444 352.000, 696.444 352.000, 686.444 352.000, 676.444 352.000, 666.444 352.000, 656.444 352.000, 654.222 352.000, 654.222 " />
            <path fill="none" stroke-width="1.5" stroke-linecap="round" stroke-opacity="1.0" stroke="rgb(0, 0, 0)" stroke-linejoin="round" d=" M 707.556, 654.222 707.556, 654.222 707.556, 664.222 707.556, 674.222 707.556, 684.222 707.556, 694.222 707.556, 704.222 707.556, 714.222 707.556, 724.222 707.556, 734.222 707.556, 744.222 707.556, 754.222 707.556, 764.222 707.556, 774.222 707.556, 784.222 707.556, 794.222 707.556, 796.444 707.897, 796.444 708.909, 796.444 710.552, 796.444 712.763, 796.444 715.457, 796.444 718.530, 796.444 721.865, 796.444 725.333, 796.444 728.802, 796.444 732.137, 796.444 735.210, 796.444 737.904, 796.444 740.115, 796.444 741.758, 796.444 742.770, 796.444 743.111, 796.444 743.111, 786.444 743.111, 776.444 743.111, 766.444 743.111, 756.444 743.111, 746.444 743.111, 736.444 743.111, 726.444 743.111, 716.444 743.111, 706.444 743.111, 696.444 743.111, 686.444 743.111, 676.444 743.111, 666.444 743.111, 656.444 743.111, 654.222 743.111, 654.222 " />
            <path fill="none" stroke-width="1.5" stroke-linecap="round" stroke-opacity="1.0" stroke="rgb(0, 0, 0)" stroke-linejoin="round" d=" M 316.445, 654.222 316.445, 654.222 316.445, 664.222 316.445, 674.222 316.445, 684.222 316.445, 694.222 316.445, 704.222 316.445, 714.222 316.445, 724.222 316.445, 734.222 316.445, 744.222 316.445, 754.222 316.445, 764.222 316.445, 774.222 316.445, 784.222 316.445, 794.222 316.445, 796.444 " />
            <path fill="none" stroke-width="1.5" stroke-linecap="round" stroke-opacity="1.0" stroke="rgb(0, 0, 0)" stroke-linejoin="round" d=" M 352.000, 583.111 352.000, 573.111 352.000, 563.111 352.000, 553.111 352.000, 547.556 352.000, 547.556 " />
            <path fill="none" stroke-width="1.5" stroke-linecap="round" stroke-opacity="1.0" stroke="rgb(0, 0, 0)" stroke-linejoin="round" d=" M 352.000, 654.222 362.000, 654.222 372.000, 654.222 382.000, 654.222 392.000, 654.222 402.000, 654.222 412.000, 654.222 422.000, 654.222 432.000, 654.222 442.000, 654.222 452.000, 654.222 462.000, 654.222 472.000, 654.222 482.000, 654.222 492.000, 654.222 502.000, 654.222 512.000, 654.222 522.000, 654.222 532.000, 654.222 542.000, 654.222 552.000, 654.222 562.000, 654.222 572.000, 654.222 582.000, 654.222 592.000, 654.222 602.000, 654.222 612.000, 654.222 622.000, 654.222 632.000, 654.222 642.000, 654.222 652.000, 654.222 662.000, 654.222 672.000, 654.222 682.000, 654.222 692.000, 654.222 702.000, 654.222 707.556, 654.222 " />
            <path fill="none" stroke-width="1.5" stroke-linecap="round" stroke-opacity="1.0" stroke="rgb(0, 0, 0)" stroke-linejoin="round" d=" M 707.556, 654.222 717.556, 654.222 727.556, 654.222 737.556, 654.222 743.111, 654.222 " />
            <path fill="none" stroke-width="1.5" stroke-linecap="round" stroke-opacity="1.0" stroke="rgb(0, 0, 0)" stroke-linejoin="round" d=" M 352.000, 654.222 362.000, 654.222 372.000, 654.222 382.000, 654.222 392.000, 654.222 402.000, 654.222 412.000, 654.222 422.000, 654.222 432.000, 654.222 442.000, 654.222 452.000, 654.222 462.000, 654.222 472.000, 654.222 482.000, 654.222 492.000, 654.222 502.000, 654.222 512.000, 654.222 522.000, 654.222 532.000, 654.222 542.000, 654.222 552.000, 654.222 562.000, 654.222 572.000, 654.222 582.000, 654.222 592.000, 654.222 602.000, 654.222 612.000, 654.222 622.000, 654.222 632.000, 654.222 642.000, 654.222 652.000, 654.222 662.000, 654.222 672.000, 654.222 682.000, 654.222 692.000, 654.222 702.000, 654.222 707.556, 654.222 " />
            <path fill="none" stroke-width="1.5" stroke-linecap="round" stroke-opacity="1.0" stroke="rgb(0, 0, 0)" stroke-linejoin="round" d=" M 316.445, 654.222 326.445, 654.222 336.445, 654.222 346.445, 654.222 352.000, 654.222 " />
            <path fill="none" stroke-width="1.5" stroke-linecap="round" stroke-opacity="1.0" stroke="rgb(0, 0, 0)" stroke-linejoin="round" d=" M 352.000, 583.111 342.000, 583.111 332.000, 583.111 322.000, 583.111 316.444, 583.111 " />
            <path fill="none" stroke-width="1.5" stroke-linecap="round" stroke-opacity="1.0" stroke="rgb(0, 0, 0)" stroke-linejoin="round" d=" M 352.000, 547.556 362.000, 547.556 372.000, 547.556 382.000, 547.556 392.000, 547.556 402.000, 547.556 412.000, 547.556 422.000, 547.556 432.000, 547.556 442.000, 547.556 452.000, 547.556 462.000, 547.556 472.000, 547.556 482.000, 547.556 492.000, 547.556 502.000, 547.556 512.000, 547.556 522.000, 547.556 532.000, 547.556 542.000, 547.556 552.000, 547.556 562.000, 547.556 572.000, 547.556 582.000, 547.556 592.000, 547.556 602.000, 547.556 612.000, 547.556 622.000, 547.556 632.000, 547.556 642.000, 547.556 652.000, 547.556 662.000, 547.556 672.000, 547.556 682.000, 547.556 692.000, 547.556 702.000, 547.556 712.000, 547.556 722.000, 547.556 732.000, 547.556 743.111, 547.556 " />
        </g>
    </g>
    <g id="ViewLayer_TechnicalLines.002" inkscape:groupmode="lineset" inkscape:label="ViewLayer_TechnicalLines.002">
        <g inkscape:groupmode="layer" id="strokes" inkscape:label="strokes">
            <path fill="none" stroke-width="1.5" stroke-linecap="round" stroke-opacity="1.0" stroke="rgb(0, 0, 0)" stroke-linejoin="round" d=" M 316.444, 583.111 316.444, 593.111 316.444, 603.111 316.444, 613.111 316.444, 623.111 316.444, 633.111 316.444, 643.111 316.444, 653.111 316.444, 654.222 316.444, 654.222 316.445, 654.222 " />
            <path fill="none" stroke-width="1.5" stroke-linecap="round" stroke-opacity="1.0" stroke="rgb(0, 0, 0)" stroke-linejoin="round" d=" M 743.111, 654.222 743.111, 644.222 743.111, 634.222 743.111, 624.222 743.111, 614.222 743.111, 604.222 743.111, 594.222 743.111, 584.222 743.111, 583.111 733.111, 583.111 723.111, 583.111 713.111, 583.111 703.111, 583.111 693.111, 583.111 683.111, 583.111 673.111, 583.111 663.111, 583.111 653.111, 583.111 643.111, 583.111 633.111, 583.111 623.111, 583.111 613.111, 583.111 603.111, 583.111 593.111, 583.111 583.111, 583.111 573.111, 583.111 563.111, 583.111 553.111, 583.111 543.111, 583.111 533.111, 583.111 523.111, 583.111 513.111, 583.111 503.111, 583.111 493.111, 583.111 483.111, 583.111 473.111, 583.111 463.111, 583.111 453.111, 583.111 443.111, 583.111 433.111, 583.111 423.111, 583.111 413.111, 583.111 403.111, 583.111 393.111, 583.111 383.111, 583.111 373.111, 583.111 363.111, 583.111 352.000, 583.111 " />
            <path fill="none" stroke-width="1.5" stroke-linecap="round" stroke-opacity="1.0" stroke="rgb(0, 0, 0)" stroke-linejoin="round" d=" M 316.444, 654.222 316.445, 654.222 " />
            <path fill="none" stroke-width="1.5" stroke-linecap="round" stroke-opacity="1.0" stroke="rgb(0, 0, 0)" stroke-linejoin="round" d=" M 352.000, 476.444 352.000, 466.444 352.000, 456.444 352.000, 446.444 352.000, 436.444 352.000, 426.444 352.000, 416.444 352.000, 406.444 352.000, 396.444 352.000, 386.444 352.000, 376.444 352.000, 366.444 352.000, 356.444 352.000, 346.444 352.000, 336.444 352.000, 326.444 352.000, 316.444 352.000, 306.444 352.000, 296.444 352.000, 286.444 352.000, 276.444 352.000, 266.444 352.000, 256.444 352.000, 246.444 352.000, 236.444 352.000, 227.556 352.000, 227.556 342.000, 227.556 332.000, 227.556 322.000, 227.556 312.000, 227.556 302.000, 227.556 292.000, 227.556 282.000, 227.556 280.889, 227.556 280.889, 237.556 280.889, 247.556 280.889, 257.556 280.889, 267.556 280.889, 277.556 280.889, 287.556 280.889, 297.556 280.889, 307.556 280.889, 317.556 280.889, 327.556 280.889, 337.556 280.889, 347.556 280.889, 357.556 280.889, 367.556 280.889, 377.556 280.889, 387.556 280.889, 397.556 280.889, 407.556 280.889, 417.556 280.889, 427.556 280.889, 437.556 280.889, 447.556 280.889, 457.556 280.889, 467.556 280.889, 477.556 280.889, 487.556 280.889, 497.556 280.889, 507.556 280.889, 517.556 280.889, 527.556 280.889, 537.556 280.889, 547.556 280.889, 557.556 280.889, 567.556 280.889, 577.556 280.889, 583.111 280.889, 583.111 290.889, 583.111 300.889, 583.111 310.889, 583.111 316.444, 583.111 " />
            <path fill="none" stroke-width="1.5" stroke-linecap="round" stroke-opacity="1.0" stroke="rgb(0, 0, 0)" stroke-linejoin="round" d=" M 352.000, 227.556 352.000, 237.556 352.000, 247.556 352.000, 257.556 352.000, 267.556 352.000, 277.556 352.000, 287.556 352.000, 297.556 352.000, 307.556 352.000, 317.556 352.000, 327.556 352.000, 337.556 352.000, 347.556 352.000, 357.556 352.000, 367.556 352.000, 377.556 352.000, 387.556 352.000, 397.556 352.000, 407.556 352.000, 417.556 352.000, 427.556 352.000, 437.556 352.000, 447.556 352.000, 457.556 352.000, 467.556 352.000, 476.444 " />
            <path fill="none" stroke-width="1.5" stroke-linecap="round" stroke-opacity="1.0" stroke="rgb(0, 0, 0)" stroke-linejoin="round" d=" M 352.000, 583.111 352.000, 583.111 " />
            <path fill="none" stroke-width="1.5" stroke-linecap="round" stroke-opacity="1.0" stroke="rgb(0, 0, 0)" stroke-linejoin="round" d=" M 280.889, 583.111 290.889, 583.111 300.889, 583.111 310.889, 583.111 320.889, 583.111 330.889, 583.111 340.889, 583.111 350.889, 583.111 352.000, 583.111 352.000, 573.111 352.000, 563.111 352.000, 553.111 352.000, 547.556 352.000, 547.556 " />
            <path fill="none" stroke-width="1.5" stroke-linecap="round" stroke-opacity="1.0" stroke="rgb(0, 0, 0)" stroke-linejoin="round" d=" M 352.000, 547.556 362.000, 547.556 372.000, 547.556 382.000, 547.556 392.000, 547.556 402.000, 547.556 412.000, 547.556 422.000, 547.556 432.000, 547.556 442.000, 547.556 452.000, 547.556 462.000, 547.556 472.000, 547.556 482.000, 547.556 492.000, 547.556 502.000, 547.556 512.000, 547.556 522.000, 547.556 532.000, 547.556 542.000, 547.556 552.000, 547.556 562.000, 547.556 572.000, 547.556 582.000, 547.556 592.000, 547.556 602.000, 547.556 612.000, 547.556 622.000, 547.556 632.000, 547.556 642.000, 547.556 652.000, 547.556 662.000, 547.556 672.000, 547.556 682.000, 547.556 692.000, 547.556 702.000, 547.556 712.000, 547.556 722.000, 547.556 732.000, 547.556 743.111, 547.556 743.111, 547.556 743.111, 537.556 743.111, 527.556 743.111, 517.556 743.111, 507.556 743.111, 497.556 743.111, 487.556 743.111, 477.556 743.111, 476.445 743.111, 476.445 743.111, 476.445 " />
            <path fill="none" stroke-width="1.5" stroke-linecap="round" stroke-opacity="1.0" stroke="rgb(0, 0, 0)" stroke-linejoin="round" d=" M 352.000, 547.556 352.000, 547.556 362.000, 547.556 372.000, 547.556 382.000, 547.556 392.000, 547.556 402.000, 547.556 412.000, 547.556 422.000, 547.556 432.000, 547.556 442.000, 547.556 452.000, 547.556 462.000, 547.556 472.000, 547.556 482.000, 547.556 492.000, 547.556 502.000, 547.556 512.000, 547.556 522.000, 547.556 532.000, 547.556 542.000, 547.556 552.000, 547.556 562.000, 547.556 572.000, 547.556 582.000, 547.556 592.000, 547.556 602.000, 547.556 612.000, 547.556 622.000, 547.556 632.000, 547.556 642.000, 547.556 652.000, 547.556 662.000, 547.556 672.000, 547.556 682.000, 547.556 692.000, 547.556 702.000, 547.556 712.000, 547.556 722.000, 547.556 732.000, 547.556 743.111, 547.556 743.111, 547.556 743.111, 537.556 743.111, 527.556 743.111, 517.556 743.111, 507.556 743.111, 497.556 743.111, 487.556 743.111, 477.556 743.111, 476.445 743.111, 476.445 743.111, 476.444 733.111, 476.444 723.111, 476.444 713.111, 476.444 703.111, 476.444 693.111, 476.444 683.111, 476.444 673.111, 476.444 663.111, 476.444 653.111, 476.444 643.111, 476.444 633.111, 476.444 623.111, 476.444 613.111, 476.444 603.111, 476.444 593.111, 476.444 583.111, 476.444 573.111, 476.444 563.111, 476.444 553.111, 476.444 543.111, 476.444 533.111, 476.444 523.111, 476.444 513.111, 476.444 503.111, 476.444 493.111, 476.444 483.111, 476.444 473.111, 476.444 463.111, 476.444 453.111, 476.444 443.111, 476.444 433.111, 476.444 423.111, 476.444 413.111, 476.444 403.111, 476.444 393.111, 476.444 383.111, 476.444 373.111, 476.444 363.111, 476.444 352.000, 476.444 352.000, 476.444 342.000, 476.444 332.000, 476.444 322.000, 476.444 316.444, 476.444 316.444, 486.444 316.444, 496.444 316.444, 506.444 316.444, 516.444 316.444, 526.444 316.444, 536.444 316.444, 546.444 316.444, 547.556 316.444, 547.556 " />
            <path fill="none" stroke-width="1.5" stroke-linecap="round" stroke-opacity="1.0" stroke="rgb(0, 0, 0)" stroke-linejoin="round" d=" M 316.444, 547.556 316.445, 547.556 326.445, 547.556 336.445, 547.556 346.445, 547.556 352.000, 547.556 362.000, 547.556 372.000, 547.556 382.000, 547.556 392.000, 547.556 402.000, 547.556 412.000, 547.556 422.000, 547.556 432.000, 547.556 442.000, 547.556 452.000, 547.556 462.000, 547.556 472.000, 547.556 482.000, 547.556 492.000, 547.556 502.000, 547.556 512.000, 547.556 522.000, 547.556 532.000, 547.556 542.000, 547.556 552.000, 547.556 562.000, 547.556 572.000, 547.556 582.000, 547.556 592.000, 547.556 602.000, 547.556 612.000, 547.556 622.000, 547.556 632.000, 547.556 642.000, 547.556 652.000, 547.556 662.000, 547.556 672.000, 547.556 682.000, 547.556 692.000, 547.556 702.000, 547.556 712.000, 547.556 722.000, 547.556 732.000, 547.556 743.111, 547.556 " />
            <path fill="none" stroke-width="1.5" stroke-linecap="round" stroke-opacity="1.0" stroke="rgb(0, 0, 0)" stroke-linejoin="round" d=" M 316.445, 796.444 316.786, 796.444 317.798, 796.444 319.441, 796.444 321.651, 796.444 324.345, 796.444 327.419, 796.444 330.754, 796.444 334.222, 796.444 337.691, 796.444 341.026, 796.444 344.099, 796.444 346.793, 796.444 349.004, 796.444 350.647, 796.444 351.658, 796.444 352.000, 796.444 352.000, 786.444 352.000, 776.444 352.000, 766.444 352.000, 756.444 352.000, 746.444 352.000, 736.444 352.000, 726.444 352.000, 716.444 352.000, 706.444 352.000, 696.444 352.000, 686.444 352.000, 676.444 352.000, 666.444 352.000, 656.444 352.000, 654.222 352.000, 654.222 " />
            <path fill="none" stroke-width="1.5" stroke-linecap="round" stroke-opacity="1.0" stroke="rgb(0, 0, 0)" stroke-linejoin="round" d=" M 707.556, 654.222 707.556, 654.222 707.556, 664.222 707.556, 674.222 707.556, 684.222 707.556, 694.222 707.556, 704.222 707.556, 714.222 707.556, 724.222 707.556, 734.222 707.556, 744.222 707.556, 754.222 707.556, 764.222 707.556, 774.222 707.556, 784.222 707.556, 794.222 707.556, 796.444 707.897, 796.444 708.909, 796.444 710.552, 796.444 712.763, 796.444 715.457, 796.444 718.530, 796.444 721.865, 796.444 725.333, 796.444 728.802, 796.444 732.137, 796.444 735.210, 796.444 737.904, 796.444 740.115, 796.444 741.758, 796.444 742.770, 796.444 743.111, 796.444 743.111, 786.444 743.111, 776.444 743.111, 766.444 743.111, 756.444 743.111, 746.444 743.111, 736.444 743.111, 726.444 743.111, 716.444 743.111, 706.444 743.111, 696.444 743.111, 686.444 743.111, 676.444 743.111, 666.444 743.111, 656.444 743.111, 654.222 743.111, 654.222 " />
            <path fill="none" stroke-width="1.5" stroke-linecap="round" stroke-opacity="1.0" stroke="rgb(0, 0, 0)" stroke-linejoin="round" d=" M 316.445, 654.222 316.445, 654.222 316.445, 664.222 316.445, 674.222 316.445, 684.222 316.445, 694.222 316.445, 704.222 316.445, 714.222 316.445, 724.222 316.445, 734.222 316.445, 744.222 316.445, 754.222 316.445, 764.222 316.445, 774.222 316.445, 784.222 316.445, 794.222 316.445, 796.444 " />
            <path fill="none" stroke-width="1.5" stroke-linecap="round" stroke-opacity="1.0" stroke="rgb(0, 0, 0)" stroke-linejoin="round" d=" M 352.000, 583.111 352.000, 573.111 352.000, 563.111 352.000, 553.111 352.000, 547.556 352.000, 547.556 " />
            <path fill="none" stroke-width="1.5" stroke-linecap="round" stroke-opacity="1.0" stroke="rgb(0, 0, 0)" stroke-linejoin="round" d=" M 352.000, 654.222 362.000, 654.222 372.000, 654.222 382.000, 654.222 392.000, 654.222 402.000, 654.222 412.000, 654.222 422.000, 654.222 432.000, 654.222 442.000, 654.222 452.000, 654.222 462.000, 654.222 472.000, 654.222 482.000, 654.222 492.000, 654.222 502.000, 654.222 512.000, 654.222 522.000, 654.222 532.000, 654.222 542.000, 654.222 552.000, 654.222 562.000, 654.222 572.000, 654.222 582.000, 654.222 592.000, 654.222 602.000, 654.222 612.000, 654.222 622.000, 654.222 632.000, 654.222 642.000, 654.222 652.000, 654.222 662.000, 654.222 672.000, 654.222 682.000, 654.222 692.000, 654.222 702.000, 654.222 707.556, 654.222 " />
            <path fill="none" stroke-width="1.5" stroke-linecap="round" stroke-opacity="1.0" stroke="rgb(0, 0, 0)" stroke-linejoin="round" d=" M 707.556, 654.222 717.556, 654.222 727.556, 654.222 737.556, 654.222 743.111, 654.222 " />
            <path fill="none" stroke-width="1.5" stroke-linecap="round" stroke-opacity="1.0" stroke="rgb(0, 0, 0)" stroke-linejoin="round" d=" M 352.000, 654.222 362.000, 654.222 372.000, 654.222 382.000, 654.222 392.000, 654.222 402.000, 654.222 412.000, 654.222 422.000, 654.222 432.000, 654.222 442.000, 654.222 452.000, 654.222 462.000, 654.222 472.000, 654.222 482.000, 654.222 492.000, 654.222 502.000, 654.222 512.000, 654.222 522.000, 654.222 532.000, 654.222 542.000, 654.222 552.000, 654.222 562.000, 654.222 572.000, 654.222 582.000, 654.222 592.000, 654.222 602.000, 654.222 612.000, 654.222 622.000, 654.222 632.000, 654.222 642.000, 654.222 652.000, 654.222 662.000, 654.222 672.000, 654.222 682.000, 654.222 692.000, 654.222 702.000, 654.222 707.556, 654.222 " />
            <path fill="none" stroke-width="1.5" stroke-linecap="round" stroke-opacity="1.0" stroke="rgb(0, 0, 0)" stroke-linejoin="round" d=" M 316.445, 654.222 326.445, 654.222 336.445, 654.222 346.445, 654.222 352.000, 654.222 " />
            <path fill="none" stroke-width="1.5" stroke-linecap="round" stroke-opacity="1.0" stroke="rgb(0, 0, 0)" stroke-linejoin="round" d=" M 352.000, 583.111 342.000, 583.111 332.000, 583.111 322.000, 583.111 316.444, 583.111 " />
            <path fill="none" stroke-width="1.5" stroke-linecap="round" stroke-opacity="1.0" stroke="rgb(0, 0, 0)" stroke-linejoin="round" d=" M 352.000, 547.556 362.000, 547.556 372.000, 547.556 382.000, 547.556 392.000, 547.556 402.000, 547.556 412.000, 547.556 422.000, 547.556 432.000, 547.556 442.000, 547.556 452.000, 547.556 462.000, 547.556 472.000, 547.556 482.000, 547.556 492.000, 547.556 502.000, 547.556 512.000, 547.556 522.000, 547.556 532.000, 547.556 542.000, 547.556 552.000, 547.556 562.000, 547.556 572.000, 547.556 582.000, 547.556 592.000, 547.556 602.000, 547.556 612.000, 547.556 622.000, 547.556 632.000, 547.556 642.000, 547.556 652.000, 547.556 662.000, 547.556 672.000, 547.556 682.000, 547.556 692.000, 547.556 702.000, 547.556 712.000, 547.556 722.000, 547.556 732.000, 547.556 743.111, 547.556 " />
        </g>
    </g>
    <g id="ViewLayer_TechnicalLines.003" inkscape:groupmode="lineset" inkscape:label="ViewLayer_TechnicalLines.003">
        <g inkscape:groupmode="layer" id="strokes" inkscape:label="strokes">
            <path fill="none" stroke-width="1.5" stroke-linecap="round" stroke-opacity="1.0" stroke="rgb(0, 0, 0)" stroke-linejoin="round" d=" M 316.444, 583.111 316.444, 593.111 316.444, 603.111 316.444, 613.111 316.444, 623.111 316.444, 633.111 316.444, 643.111 316.444, 653.111 316.444, 654.222 316.444, 654.222 316.445, 654.222 " />
            <path fill="none" stroke-width="1.5" stroke-linecap="round" stroke-opacity="1.0" stroke="rgb(0, 0, 0)" stroke-linejoin="round" d=" M 743.111, 654.222 743.111, 644.222 743.111, 634.222 743.111, 624.222 743.111, 614.222 743.111, 604.222 743.111, 594.222 743.111, 584.222 743.111, 583.111 733.111, 583.111 723.111, 583.111 713.111, 583.111 703.111, 583.111 693.111, 583.111 683.111, 583.111 673.111, 583.111 663.111, 583.111 653.111, 583.111 643.111, 583.111 633.111, 583.111 623.111, 583.111 613.111, 583.111 603.111, 583.111 593.111, 583.111 583.111, 583.111 573.111, 583.111 563.111, 583.111 553.111, 583.111 543.111, 583.111 533.111, 583.111 523.111, 583.111 513.111, 583.111 503.111, 583.111 493.111, 583.111 483.111, 583.111 473.111, 583.111 463.111, 583.111 453.111, 583.111 443.111, 583.111 433.111, 583.111 423.111, 583.111 413.111, 583.111 403.111, 583.111 393.111, 583.111 383.111, 583.111 373.111, 583.111 363.111, 583.111 352.000, 583.111 " />
            <path fill="none" stroke-width="1.5" stroke-linecap="round" stroke-opacity="1.0" stroke="rgb(0, 0, 0)" stroke-linejoin="round" d=" M 316.444, 654.222 316.445, 654.222 " />
            <path fill="none" stroke-width="1.5" stroke-linecap="round" stroke-opacity="1.0" stroke="rgb(0, 0, 0)" stroke-linejoin="round" d=" M 352.000, 476.444 352.000, 466.444 352.000, 456.444 352.000, 446.444 352.000, 436.444 352.000, 426.444 352.000, 416.444 352.000, 406.444 352.000, 396.444 352.000, 386.444 352.000, 376.444 352.000, 366.444 352.000, 356.444 352.000, 346.444 352.000, 336.444 352.000, 326.444 352.000, 316.444 352.000, 306.444 352.000, 296.444 352.000, 286.444 352.000, 276.444 352.000, 266.444 352.000, 256.444 352.000, 246.444 352.000, 236.444 352.000, 227.556 352.000, 227.556 342.000, 227.556 332.000, 227.556 322.000, 227.556 312.000, 227.556 302.000, 227.556 292.000, 227.556 282.000, 227.556 280.889, 227.556 280.889, 237.556 280.889, 247.556 280.889, 257.556 280.889, 267.556 280.889, 277.556 280.889, 287.556 280.889, 297.556 280.889, 307.556 280.889, 317.556 280.889, 327.556 280.889, 337.556 280.889, 347.556 280.889, 357.556 280.889, 367.556 280.889, 377.556 280.889, 387.556 280.889, 397.556 280.889, 407.556 280.889, 417.556 280.889, 427.556 280.889, 437.556 280.889, 447.556 280.889, 457.556 280.889, 467.556 280.889, 477.556 280.889, 487.556 280.889, 497.556 280.889, 507.556 280.889, 517.556 280.889, 527.556 280.889, 537.556 280.889, 547.556 280.889, 557.556 280.889, 567.556 280.889, 577.556 280.889, 583.111 280.889, 583.111 290.889, 583.111 300.889, 583.111 310.889, 583.111 316.444, 583.111 " />
            <path fill="none" stroke-width="1.5" stroke-linecap="round" stroke-opacity="1.0" stroke="rgb(0, 0, 0)" stroke-linejoin="round" d=" M 352.000, 227.556 352.000, 237.556 352.000, 247.556 352.000, 257.556 352.000, 267.556 352.000, 277.556 352.000, 287.556 352.000, 297.556 352.000, 307.556 352.000, 317.556 352.000, 327.556 352.000, 337.556 352.000, 347.556 352.000, 357.556 352.000, 367.556 352.000, 377.556 352.000, 387.556 352.000, 397.556 352.000, 407.556 352.000, 417.556 352.000, 427.556 352.000, 437.556 352.000, 447.556 352.000, 457.556 352.000, 467.556 352.000, 476.444 " />
            <path fill="none" stroke-width="1.5" stroke-linecap="round" stroke-opacity="1.0" stroke="rgb(0, 0, 0)" stroke-linejoin="round" d=" M 352.000, 583.111 352.000, 583.111 " />
            <path fill="none" stroke-width="1.5" stroke-linecap="round" stroke-opacity="1.0" stroke="rgb(0, 0, 0)" stroke-linejoin="round" d=" M 280.889, 583.111 290.889, 583.111 300.889, 583.111 310.889, 583.111 320.889, 583.111 330.889, 583.111 340.889, 583.111 350.889, 583.111 352.000, 583.111 352.000, 573.111 352.000, 563.111 352.000, 553.111 352.000, 547.556 352.000, 547.556 " />
            <path fill="none" stroke-width="1.5" stroke-linecap="round" stroke-opacity="1.0" stroke="rgb(0, 0, 0)" stroke-linejoin="round" d=" M 352.000, 547.556 362.000, 547.556 372.000, 547.556 382.000, 547.556 392.000, 547.556 402.000, 547.556 412.000, 547.556 422.000, 547.556 432.000, 547.556 442.000, 547.556 452.000, 547.556 462.000, 547.556 472.000, 547.556 482.000, 547.556 492.000, 547.556 502.000, 547.556 512.000, 547.556 522.000, 547.556 532.000, 547.556 542.000, 547.556 552.000, 547.556 562.000, 547.556 572.000, 547.556 582.000, 547.556 592.000, 547.556 602.000, 547.556 612.000, 547.556 622.000, 547.556 632.000, 547.556 642.000, 547.556 652.000, 547.556 662.000, 547.556 672.000, 547.556 682.000, 547.556 692.000, 547.556 702.000, 547.556 712.000, 547.556 722.000, 547.556 732.000, 547.556 743.111, 547.556 743.111, 547.556 743.111, 537.556 743.111, 527.556 743.111, 517.556 743.111, 507.556 743.111, 497.556 743.111, 487.556 743.111, 477.556 743.111, 476.445 743.111, 476.445 743.111, 476.445 " />
            <path fill="none" stroke-width="1.5" stroke-linecap="round" stroke-opacity="1.0" stroke="rgb(0, 0, 0)" stroke-linejoin="round" d=" M 352.000, 547.556 352.000, 547.556 362.000, 547.556 372.000, 547.556 382.000, 547.556 392.000, 547.556 402.000, 547.556 412.000, 547.556 422.000, 547.556 432.000, 547.556 442.000, 547.556 452.000, 547.556 462.000, 547.556 472.000, 547.556 482.000, 547.556 492.000, 547.556 502.000, 547.556 512.000, 547.556 522.000, 547.556 532.000, 547.556 542.000, 547.556 552.000, 547.556 562.000, 547.556 572.000, 547.556 582.000, 547.556 592.000, 547.556 602.000, 547.556 612.000, 547.556 622.000, 547.556 632.000, 547.556 642.000, 547.556 652.000, 547.556 662.000, 547.556 672.000, 547.556 682.000, 547.556 692.000, 547.556 702.000, 547.556 712.000, 547.556 722.000, 547.556 732.000, 547.556 743.111, 547.556 743.111, 547.556 743.111, 537.556 743.111, 527.556 743.111, 517.556 743.111, 507.556 743.111, 497.556 743.111, 487.556 743.111, 477.556 743.111, 476.445 743.111, 476.445 743.111, 476.444 733.111, 476.444 723.111, 476.444 713.111, 476.444 703.111, 476.444 693.111, 476.444 683.111, 476.444 673.111, 476.444 663.111, 476.444 653.111, 476.444 643.111, 476.444 633.111, 476.444 623.111, 476.444 613.111, 476.444 603.111, 476.444 593.111, 476.444 583.111, 476.444 573.111, 476.444 563.111, 476.444 553.111, 476.444 543.111, 476.444 533.111, 476.444 523.111, 476.444 513.111, 476.444 503.111, 476.444 493.111, 476.444 483.111, 476.444 473.111, 476.444 463.111, 476.444 453.111, 476.444 443.111, 476.444 433.111, 476.444 423.111, 476.444 413.111, 476.444 403.111, 476.444 393.111, 476.444 383.111, 476.444 373.111, 476.444 363.111, 476.444 352.000, 476.444 352.000, 476.444 342.000, 476.444 332.000, 476.444 322.000, 476.444 316.444, 476.444 316.444, 486.444 316.444, 496.444 316.444, 506.444 316.444, 516.444 316.444, 526.444 316.444, 536.444 316.444, 546.444 316.444, 547.556 316.444, 547.556 " />
            <path fill="none" stroke-width="1.5" stroke-linecap="round" stroke-opacity="1.0" stroke="rgb(0, 0, 0)" stroke-linejoin="round" d=" M 316.444, 547.556 316.445, 547.556 326.445, 547.556 336.445, 547.556 346.445, 547.556 352.000, 547.556 362.000, 547.556 372.000, 547.556 382.000, 547.556 392.000, 547.556 402.000, 547.556 412.000, 547.556 422.000, 547.556 432.000, 547.556 442.000, 547.556 452.000, 547.556 462.000, 547.556 472.000, 547.556 482.000, 547.556 492.000, 547.556 502.000, 547.556 512.000, 547.556 522.000, 547.556 532.000, 547.556 542.000, 547.556 552.000, 547.556 562.000, 547.556 572.000, 547.556 582.000, 547.556 592.000, 547.556 602.000, 547.556 612.000, 547.556 622.000, 547.556 632.000, 547.556 642.000, 547.556 652.000, 547.556 662.000, 547.556 672.000, 547.556 682.000, 547.556 692.000, 547.556 702.000, 547.556 712.000, 547.556 722.000, 547.556 732.000, 547.556 743.111, 547.556 " />
            <path fill="none" stroke-width="1.5" stroke-linecap="round" stroke-opacity="1.0" stroke="rgb(0, 0, 0)" stroke-linejoin="round" d=" M 316.445, 796.444 316.786, 796.444 317.798, 796.444 319.441, 796.444 321.651, 796.444 324.345, 796.444 327.419, 796.444 330.754, 796.444 334.222, 796.444 337.691, 796.444 341.026, 796.444 344.099, 796.444 346.793, 796.444 349.004, 796.444 350.647, 796.444 351.658, 796.444 352.000, 796.444 352.000, 786.444 352.000, 776.444 352.000, 766.444 352.000, 756.444 352.000, 746.444 352.000, 736.444 352.000, 726.444 352.000, 716.444 352.000, 706.444 352.000, 696.444 352.000, 686.444 352.000, 676.444 352.000, 666.444 352.000, 656.444 352.000, 654.222 352.000, 654.222 " />
            <path fill="none" stroke-width="1.5" stroke-linecap="round" stroke-opacity="1.0" stroke="rgb(0, 0, 0)" stroke-linejoin="round" d=" M 707.556, 654.222 707.556, 654.222 707.556, 664.222 707.556, 674.222 707.556, 684.222 707.556, 694.222 707.556, 704.222 707.556, 714.222 707.556, 724.222 707.556, 734.222 707.556, 744.222 707.556, 754.222 707.556, 764.222 707.556, 774.222 707.556, 784.222 707.556, 794.222 707.556, 796.444 707.897, 796.444 708.909, 796.444 710.552, 796.444 712.763, 796.444 715.457, 796.444 718.530, 796.444 721.865, 796.444 725.333, 796.444 728.802, 796.444 732.137, 796.444 735.210, 796.444 737.904, 796.444 740.115, 796.444 741.758, 796.444 742.770, 796.444 743.111, 796.444 743.111, 786.444 743.111, 776.444 743.111, 766.444 743.111, 756.444 743.111, 746.444 743.111, 736.444 743.111, 726.444 743.111, 716.444 743.111, 706.444 743.111, 696.444 743.111, 686.444 743.111, 676.444 743.111, 666.444 743.111, 656.444 743.111, 654.222 743.111, 654.222 " />
            <path fill="none" stroke-width="1.5" stroke-linecap="round" stroke-opacity="1.0" stroke="rgb(0, 0, 0)" stroke-linejoin="round" d=" M 316.445, 654.222 316.445, 654.222 316.445, 664.222 316.445, 674.222 316.445, 684.222 316.445, 694.222 316.445, 704.222 316.445, 714.222 316.445, 724.222 316.445, 734.222 316.445, 744.222 316.445, 754.222 316.445, 764.222 316.445, 774.222 316.445, 784.222 316.445, 794.222 316.445, 796.444 " />
            <path fill="none" stroke-width="1.5" stroke-linecap="round" stroke-opacity="1.0" stroke="rgb(0, 0, 0)" stroke-linejoin="round" d=" M 352.000, 583.111 352.000, 573.111 352.000, 563.111 352.000, 553.111 352.000, 547.556 352.000, 547.556 " />
            <path fill="none" stroke-width="1.5" stroke-linecap="round" stroke-opacity="1.0" stroke="rgb(0, 0, 0)" stroke-linejoin="round" d=" M 352.000, 654.222 362.000, 654.222 372.000, 654.222 382.000, 654.222 392.000, 654.222 402.000, 654.222 412.000, 654.222 422.000, 654.222 432.000, 654.222 442.000, 654.222 452.000, 654.222 462.000, 654.222 472.000, 654.222 482.000, 654.222 492.000, 654.222 502.000, 654.222 512.000, 654.222 522.000, 654.222 532.000, 654.222 542.000, 654.222 552.000, 654.222 562.000, 654.222 572.000, 654.222 582.000, 654.222 592.000, 654.222 602.000, 654.222 612.000, 654.222 622.000, 654.222 632.000, 654.222 642.000, 654.222 652.000, 654.222 662.000, 654.222 672.000, 654.222 682.000, 654.222 692.000, 654.222 702.000, 654.222 707.556, 654.222 " />
            <path fill="none" stroke-width="1.5" stroke-linecap="round" stroke-opacity="1.0" stroke="rgb(0, 0, 0)" stroke-linejoin="round" d=" M 707.556, 654.222 717.556, 654.222 727.556, 654.222 737.556, 654.222 743.111, 654.222 " />
            <path fill="none" stroke-width="1.5" stroke-linecap="round" stroke-opacity="1.0" stroke="rgb(0, 0, 0)" stroke-linejoin="round" d=" M 352.000, 654.222 362.000, 654.222 372.000, 654.222 382.000, 654.222 392.000, 654.222 402.000, 654.222 412.000, 654.222 422.000, 654.222 432.000, 654.222 442.000, 654.222 452.000, 654.222 462.000, 654.222 472.000, 654.222 482.000, 654.222 492.000, 654.222 502.000, 654.222 512.000, 654.222 522.000, 654.222 532.000, 654.222 542.000, 654.222 552.000, 654.222 562.000, 654.222 572.000, 654.222 582.000, 654.222 592.000, 654.222 602.000, 654.222 612.000, 654.222 622.000, 654.222 632.000, 654.222 642.000, 654.222 652.000, 654.222 662.000, 654.222 672.000, 654.222 682.000, 654.222 692.000, 654.222 702.000, 654.222 707.556, 654.222 " />
            <path fill="none" stroke-width="1.5" stroke-linecap="round" stroke-opacity="1.0" stroke="rgb(0, 0, 0)" stroke-linejoin="round" d=" M 316.445, 654.222 326.445, 654.222 336.445, 654.222 346.445, 654.222 352.000, 654.222 " />
            <path fill="none" stroke-width="1.5" stroke-linecap="round" stroke-opacity="1.0" stroke="rgb(0, 0, 0)" stroke-linejoin="round" d=" M 352.000, 583.111 342.000, 583.111 332.000, 583.111 322.000, 583.111 316.444, 583.111 " />
            <path fill="none" stroke-width="1.5" stroke-linecap="round" stroke-opacity="1.0" stroke="rgb(0, 0, 0)" stroke-linejoin="round" d=" M 352.000, 547.556 362.000, 547.556 372.000, 547.556 382.000, 547.556 392.000, 547.556 402.000, 547.556 412.000, 547.556 422.000, 547.556 432.000, 547.556 442.000, 547.556 452.000, 547.556 462.000, 547.556 472.000, 547.556 482.000, 547.556 492.000, 547.556 502.000, 547.556 512.000, 547.556 522.000, 547.556 532.000, 547.556 542.000, 547.556 552.000, 547.556 562.000, 547.556 572.000, 547.556 582.000, 547.556 592.000, 547.556 602.000, 547.556 612.000, 547.556 622.000, 547.556 632.000, 547.556 642.000, 547.556 652.000, 547.556 662.000, 547.556 672.000, 547.556 682.000, 547.556 692.000, 547.556 702.000, 547.556 712.000, 547.556 722.000, 547.556 732.000, 547.556 743.111, 547.556 " />
        </g>
    </g>
    <g id="ViewLayer_TechnicalLines.004" xmlns:inkscape="http://www.inkscape.org/namespaces/inkscape" inkscape:groupmode="lineset" inkscape:label="ViewLayer_TechnicalLines.004">
        <g xmlns:inkscape="http://www.inkscape.org/namespaces/inkscape" inkscape:groupmode="layer" id="strokes" inkscape:label="strokes">
            <path fill="none" stroke-width="1.5" stroke-linecap="round" stroke-opacity="1.0" stroke="rgb(0, 0, 0)" stroke-linejoin="round" d=" M 316.444, 583.111 316.444, 593.111 316.444, 603.111 316.444, 613.111 316.444, 623.111 316.444, 633.111 316.444, 643.111 316.444, 653.111 316.444, 654.222 316.444, 654.222 316.445, 654.222 " />
            <path fill="none" stroke-width="1.5" stroke-linecap="round" stroke-opacity="1.0" stroke="rgb(0, 0, 0)" stroke-linejoin="round" d=" M 743.111, 654.222 743.111, 644.222 743.111, 634.222 743.111, 624.222 743.111, 614.222 743.111, 604.222 743.111, 594.222 743.111, 584.222 743.111, 583.111 733.111, 583.111 723.111, 583.111 713.111, 583.111 703.111, 583.111 693.111, 583.111 683.111, 583.111 673.111, 583.111 663.111, 583.111 653.111, 583.111 643.111, 583.111 633.111, 583.111 623.111, 583.111 613.111, 583.111 603.111, 583.111 593.111, 583.111 583.111, 583.111 573.111, 583.111 563.111, 583.111 553.111, 583.111 543.111, 583.111 533.111, 583.111 523.111, 583.111 513.111, 583.111 503.111, 583.111 493.111, 583.111 483.111, 583.111 473.111, 583.111 463.111, 583.111 453.111, 583.111 443.111, 583.111 433.111, 583.111 423.111, 583.111 413.111, 583.111 403.111, 583.111 393.111, 583.111 383.111, 583.111 373.111, 583.111 363.111, 583.111 352.000, 583.111 " />
            <path fill="none" stroke-width="1.5" stroke-linecap="round" stroke-opacity="1.0" stroke="rgb(0, 0, 0)" stroke-linejoin="round" d=" M 316.444, 654.222 316.445, 654.222 " />
            <path fill="none" stroke-width="1.5" stroke-linecap="round" stroke-opacity="1.0" stroke="rgb(0, 0, 0)" stroke-linejoin="round" d=" M 352.000, 476.444 352.000, 466.444 352.000, 456.444 352.000, 446.444 352.000, 436.444 352.000, 426.444 352.000, 416.444 352.000, 406.444 352.000, 396.444 352.000, 386.444 352.000, 376.444 352.000, 366.444 352.000, 356.444 352.000, 346.444 352.000, 336.444 352.000, 326.444 352.000, 316.444 352.000, 306.444 352.000, 296.444 352.000, 286.444 352.000, 276.444 352.000, 266.444 352.000, 256.444 352.000, 246.444 352.000, 236.444 352.000, 227.556 352.000, 227.556 342.000, 227.556 332.000, 227.556 322.000, 227.556 312.000, 227.556 302.000, 227.556 292.000, 227.556 282.000, 227.556 280.889, 227.556 280.889, 237.556 280.889, 247.556 280.889, 257.556 280.889, 267.556 280.889, 277.556 280.889, 287.556 280.889, 297.556 280.889, 307.556 280.889, 317.556 280.889, 327.556 280.889, 337.556 280.889, 347.556 280.889, 357.556 280.889, 367.556 280.889, 377.556 280.889, 387.556 280.889, 397.556 280.889, 407.556 280.889, 417.556 280.889, 427.556 280.889, 437.556 280.889, 447.556 280.889, 457.556 280.889, 467.556 280.889, 477.556 280.889, 487.556 280.889, 497.556 280.889, 507.556 280.889, 517.556 280.889, 527.556 280.889, 537.556 280.889, 547.556 280.889, 557.556 280.889, 567.556 280.889, 577.556 280.889, 583.111 280.889, 583.111 290.889, 583.111 300.889, 583.111 310.889, 583.111 316.444, 583.111 " />
            <path fill="none" stroke-width="1.5" stroke-linecap="round" stroke-opacity="1.0" stroke="rgb(0, 0, 0)" stroke-linejoin="round" d=" M 352.000, 227.556 352.000, 237.556 352.000, 247.556 352.000, 257.556 352.000, 267.556 352.000, 277.556 352.000, 287.556 352.000, 297.556 352.000, 307.556 352.000, 317.556 352.000, 327.556 352.000, 337.556 352.000, 347.556 352.000, 357.556 352.000, 367.556 352.000, 377.556 352.000, 387.556 352.000, 397.556 352.000, 407.556 352.000, 417.556 352.000, 427.556 352.000, 437.556 352.000, 447.556 352.000, 457.556 352.000, 467.556 352.000, 476.444 " />
            <path fill="none" stroke-width="1.5" stroke-linecap="round" stroke-opacity="1.0" stroke="rgb(0, 0, 0)" stroke-linejoin="round" d=" M 352.000, 583.111 352.000, 583.111 " />
            <path fill="none" stroke-width="1.5" stroke-linecap="round" stroke-opacity="1.0" stroke="rgb(0, 0, 0)" stroke-linejoin="round" d=" M 280.889, 583.111 290.889, 583.111 300.889, 583.111 310.889, 583.111 320.889, 583.111 330.889, 583.111 340.889, 583.111 350.889, 583.111 352.000, 583.111 352.000, 573.111 352.000, 563.111 352.000, 553.111 352.000, 547.556 352.000, 547.556 " />
            <path fill="none" stroke-width="1.5" stroke-linecap="round" stroke-opacity="1.0" stroke="rgb(0, 0, 0)" stroke-linejoin="round" d=" M 352.000, 547.556 362.000, 547.556 372.000, 547.556 382.000, 547.556 392.000, 547.556 402.000, 547.556 412.000, 547.556 422.000, 547.556 432.000, 547.556 442.000, 547.556 452.000, 547.556 462.000, 547.556 472.000, 547.556 482.000, 547.556 492.000, 547.556 502.000, 547.556 512.000, 547.556 522.000, 547.556 532.000, 547.556 542.000, 547.556 552.000, 547.556 562.000, 547.556 572.000, 547.556 582.000, 547.556 592.000, 547.556 602.000, 547.556 612.000, 547.556 622.000, 547.556 632.000, 547.556 642.000, 547.556 652.000, 547.556 662.000, 547.556 672.000, 547.556 682.000, 547.556 692.000, 547.556 702.000, 547.556 712.000, 547.556 722.000, 547.556 732.000, 547.556 743.111, 547.556 743.111, 547.556 743.111, 537.556 743.111, 527.556 743.111, 517.556 743.111, 507.556 743.111, 497.556 743.111, 487.556 743.111, 477.556 743.111, 476.445 743.111, 476.445 743.111, 476.445 " />
            <path fill="none" stroke-width="1.5" stroke-linecap="round" stroke-opacity="1.0" stroke="rgb(0, 0, 0)" stroke-linejoin="round" d=" M 352.000, 547.556 352.000, 547.556 362.000, 547.556 372.000, 547.556 382.000, 547.556 392.000, 547.556 402.000, 547.556 412.000, 547.556 422.000, 547.556 432.000, 547.556 442.000, 547.556 452.000, 547.556 462.000, 547.556 472.000, 547.556 482.000, 547.556 492.000, 547.556 502.000, 547.556 512.000, 547.556 522.000, 547.556 532.000, 547.556 542.000, 547.556 552.000, 547.556 562.000, 547.556 572.000, 547.556 582.000, 547.556 592.000, 547.556 602.000, 547.556 612.000, 547.556 622.000, 547.556 632.000, 547.556 642.000, 547.556 652.000, 547.556 662.000, 547.556 672.000, 547.556 682.000, 547.556 692.000, 547.556 702.000, 547.556 712.000, 547.556 722.000, 547.556 732.000, 547.556 743.111, 547.556 743.111, 547.556 743.111, 537.556 743.111, 527.556 743.111, 517.556 743.111, 507.556 743.111, 497.556 743.111, 487.556 743.111, 477.556 743.111, 476.445 743.111, 476.445 743.111, 476.444 733.111, 476.444 723.111, 476.444 713.111, 476.444 703.111, 476.444 693.111, 476.444 683.111, 476.444 673.111, 476.444 663.111, 476.444 653.111, 476.444 643.111, 476.444 633.111, 476.444 623.111, 476.444 613.111, 476.444 603.111, 476.444 593.111, 476.444 583.111, 476.444 573.111, 476.444 563.111, 476.444 553.111, 476.444 543.111, 476.444 533.111, 476.444 523.111, 476.444 513.111, 476.444 503.111, 476.444 493.111, 476.444 483.111, 476.444 473.111, 476.444 463.111, 476.444 453.111, 476.444 443.111, 476.444 433.111, 476.444 423.111, 476.444 413.111, 476.444 403.111, 476.444 393.111, 476.444 383.111, 476.444 373.111, 476.444 363.111, 476.444 352.000, 476.444 352.000, 476.444 342.000, 476.444 332.000, 476.444 322.000, 476.444 316.444, 476.444 316.444, 486.444 316.444, 496.444 316.444, 506.444 316.444, 516.444 316.444, 526.444 316.444, 536.444 316.444, 546.444 316.444, 547.556 316.444, 547.556 " />
            <path fill="none" stroke-width="1.5" stroke-linecap="round" stroke-opacity="1.0" stroke="rgb(0, 0, 0)" stroke-linejoin="round" d=" M 316.444, 547.556 316.445, 547.556 326.445, 547.556 336.445, 547.556 346.445, 547.556 352.000, 547.556 362.000, 547.556 372.000, 547.556 382.000, 547.556 392.000, 547.556 402.000, 547.556 412.000, 547.556 422.000, 547.556 432.000, 547.556 442.000, 547.556 452.000, 547.556 462.000, 547.556 472.000, 547.556 482.000, 547.556 492.000, 547.556 502.000, 547.556 512.000, 547.556 522.000, 547.556 532.000, 547.556 542.000, 547.556 552.000, 547.556 562.000, 547.556 572.000, 547.556 582.000, 547.556 592.000, 547.556 602.000, 547.556 612.000, 547.556 622.000, 547.556 632.000, 547.556 642.000, 547.556 652.000, 547.556 662.000, 547.556 672.000, 547.556 682.000, 547.556 692.000, 547.556 702.000, 547.556 712.000, 547.556 722.000, 547.556 732.000, 547.556 743.111, 547.556 " />
            <path fill="none" stroke-width="1.5" stroke-linecap="round" stroke-opacity="1.0" stroke="rgb(0, 0, 0)" stroke-linejoin="round" d=" M 316.445, 796.444 316.786, 796.444 317.798, 796.444 319.441, 796.444 321.651, 796.444 324.345, 796.444 327.419, 796.444 330.754, 796.444 334.222, 796.444 337.691, 796.444 341.026, 796.444 344.099, 796.444 346.793, 796.444 349.004, 796.444 350.647, 796.444 351.658, 796.444 352.000, 796.444 352.000, 786.444 352.000, 776.444 352.000, 766.444 352.000, 756.444 352.000, 746.444 352.000, 736.444 352.000, 726.444 352.000, 716.444 352.000, 706.444 352.000, 696.444 352.000, 686.444 352.000, 676.444 352.000, 666.444 352.000, 656.444 352.000, 654.222 352.000, 654.222 " />
            <path fill="none" stroke-width="1.5" stroke-linecap="round" stroke-opacity="1.0" stroke="rgb(0, 0, 0)" stroke-linejoin="round" d=" M 707.556, 654.222 707.556, 654.222 707.556, 664.222 707.556, 674.222 707.556, 684.222 707.556, 694.222 707.556, 704.222 707.556, 714.222 707.556, 724.222 707.556, 734.222 707.556, 744.222 707.556, 754.222 707.556, 764.222 707.556, 774.222 707.556, 784.222 707.556, 794.222 707.556, 796.444 707.897, 796.444 708.909, 796.444 710.552, 796.444 712.763, 796.444 715.457, 796.444 718.530, 796.444 721.865, 796.444 725.333, 796.444 728.802, 796.444 732.137, 796.444 735.210, 796.444 737.904, 796.444 740.115, 796.444 741.758, 796.444 742.770, 796.444 743.111, 796.444 743.111, 786.444 743.111, 776.444 743.111, 766.444 743.111, 756.444 743.111, 746.444 743.111, 736.444 743.111, 726.444 743.111, 716.444 743.111, 706.444 743.111, 696.444 743.111, 686.444 743.111, 676.444 743.111, 666.444 743.111, 656.444 743.111, 654.222 743.111, 654.222 " />
            <path fill="none" stroke-width="1.5" stroke-linecap="round" stroke-opacity="1.0" stroke="rgb(0, 0, 0)" stroke-linejoin="round" d=" M 316.445, 654.222 316.445, 654.222 316.445, 664.222 316.445, 674.222 316.445, 684.222 316.445, 694.222 316.445, 704.222 316.445, 714.222 316.445, 724.222 316.445, 734.222 316.445, 744.222 316.445, 754.222 316.445, 764.222 316.445, 774.222 316.445, 784.222 316.445, 794.222 316.445, 796.444 " />
            <path fill="none" stroke-width="1.5" stroke-linecap="round" stroke-opacity="1.0" stroke="rgb(0, 0, 0)" stroke-linejoin="round" d=" M 352.000, 583.111 352.000, 573.111 352.000, 563.111 352.000, 553.111 352.000, 547.556 352.000, 547.556 " />
            <path fill="none" stroke-width="1.5" stroke-linecap="round" stroke-opacity="1.0" stroke="rgb(0, 0, 0)" stroke-linejoin="round" d=" M 352.000, 654.222 362.000, 654.222 372.000, 654.222 382.000, 654.222 392.000, 654.222 402.000, 654.222 412.000, 654.222 422.000, 654.222 432.000, 654.222 442.000, 654.222 452.000, 654.222 462.000, 654.222 472.000, 654.222 482.000, 654.222 492.000, 654.222 502.000, 654.222 512.000, 654.222 522.000, 654.222 532.000, 654.222 542.000, 654.222 552.000, 654.222 562.000, 654.222 572.000, 654.222 582.000, 654.222 592.000, 654.222 602.000, 654.222 612.000, 654.222 622.000, 654.222 632.000, 654.222 642.000, 654.222 652.000, 654.222 662.000, 654.222 672.000, 654.222 682.000, 654.222 692.000, 654.222 702.000, 654.222 707.556, 654.222 " />
            <path fill="none" stroke-width="1.5" stroke-linecap="round" stroke-opacity="1.0" stroke="rgb(0, 0, 0)" stroke-linejoin="round" d=" M 707.556, 654.222 717.556, 654.222 727.556, 654.222 737.556, 654.222 743.111, 654.222 " />
            <path fill="none" stroke-width="1.5" stroke-linecap="round" stroke-opacity="1.0" stroke="rgb(0, 0, 0)" stroke-linejoin="round" d=" M 352.000, 654.222 362.000, 654.222 372.000, 654.222 382.000, 654.222 392.000, 654.222 402.000, 654.222 412.000, 654.222 422.000, 654.222 432.000, 654.222 442.000, 654.222 452.000, 654.222 462.000, 654.222 472.000, 654.222 482.000, 654.222 492.000, 654.222 502.000, 654.222 512.000, 654.222 522.000, 654.222 532.000, 654.222 542.000, 654.222 552.000, 654.222 562.000, 654.222 572.000, 654.222 582.000, 654.222 592.000, 654.222 602.000, 654.222 612.000, 654.222 622.000, 654.222 632.000, 654.222 642.000, 654.222 652.000, 654.222 662.000, 654.222 672.000, 654.222 682.000, 654.222 692.000, 654.222 702.000, 654.222 707.556, 654.222 " />
            <path fill="none" stroke-width="1.5" stroke-linecap="round" stroke-opacity="1.0" stroke="rgb(0, 0, 0)" stroke-linejoin="round" d=" M 316.445, 654.222 326.445, 654.222 336.445, 654.222 346.445, 654.222 352.000, 654.222 " />
            <path fill="none" stroke-width="1.5" stroke-linecap="round" stroke-opacity="1.0" stroke="rgb(0, 0, 0)" stroke-linejoin="round" d=" M 352.000, 583.111 342.000, 583.111 332.000, 583.111 322.000, 583.111 316.444, 583.111 " />
            <path fill="none" stroke-width="1.5" stroke-linecap="round" stroke-opacity="1.0" stroke="rgb(0, 0, 0)" stroke-linejoin="round" d=" M 352.000, 547.556 362.000, 547.556 372.000, 547.556 382.000, 547.556 392.000, 547.556 402.000, 547.556 412.000, 547.556 422.000, 547.556 432.000, 547.556 442.000, 547.556 452.000, 547.556 462.000, 547.556 472.000, 547.556 482.000, 547.556 492.000, 547.556 502.000, 547.556 512.000, 547.556 522.000, 547.556 532.000, 547.556 542.000, 547.556 552.000, 547.556 562.000, 547.556 572.000, 547.556 582.000, 547.556 592.000, 547.556 602.000, 547.556 612.000, 547.556 622.000, 547.556 632.000, 547.556 642.000, 547.556 652.000, 547.556 662.000, 547.556 672.000, 547.556 682.000, 547.556 692.000, 547.556 702.000, 547.556 712.000, 547.556 722.000, 547.556 732.000, 547.556 743.111, 547.556 " />
        </g>
    </g>
</svg>
