<?xml version='1.0' encoding='ascii'?>
<svg xmlns="http://www.w3.org/2000/svg" xmlns:inkscape="http://www.inkscape.org/namespaces/inkscape" version="1.1" width="1024" height="1024">
    <g id="ViewLayer_LineSet" inkscape:groupmode="lineset" inkscape:label="ViewLayer_LineSet">
        <g inkscape:groupmode="layer" id="strokes" inkscape:label="strokes">
            <path fill="none" stroke-width="3.0" stroke-linecap="butt" stroke-opacity="1.0" stroke="rgb(0, 0, 0)" stroke-linejoin="round" d=" M 519.294, 659.676 526.231, 659.676 536.231, 659.676 539.914, 659.676 549.914, 659.676 552.525, 659.676 559.413, 659.676 563.579, 659.676 572.650, 659.676 574.002, 659.676 579.391, 659.676 583.542, 659.676 584.943, 659.676 584.943, 650.558 " />
            <path fill="none" stroke-width="3.0" stroke-linecap="butt" stroke-opacity="1.0" stroke="rgb(0, 0, 0)" stroke-linejoin="round" d=" M 504.706, 659.676 512.000, 659.676 519.294, 659.676 " />
            <path fill="none" stroke-width="3.0" stroke-linecap="butt" stroke-opacity="1.0" stroke="rgb(0, 0, 0)" stroke-linejoin="round" d=" M 439.057, 650.558 439.057, 659.676 440.458, 659.676 444.609, 659.676 449.998, 659.676 451.350, 659.676 460.421, 659.676 464.587, 659.676 471.475, 659.676 481.475, 659.676 484.086, 659.676 494.086, 659.676 497.769, 659.676 504.706, 659.676 " />
            <path fill="none" stroke-width="3.0" stroke-linecap="butt" stroke-opacity="1.0" stroke="rgb(0, 0, 0)" stroke-linejoin="round" d=" M 402.585, 504.671 402.585, 514.671 402.585, 524.671 402.585, 526.484 402.585, 536.484 402.585, 546.484 402.585, 556.483 402.585, 566.483 402.585, 576.483 402.585, 586.483 402.585, 596.483 402.585, 606.483 402.585, 616.484 402.585, 626.483 402.585, 636.483 402.585, 646.483 402.585, 650.558 412.585, 650.558 422.585, 650.558 432.585, 650.558 439.057, 650.558 449.057, 650.558 459.057, 650.558 469.057, 650.558 479.057, 650.558 489.057, 650.558 499.057, 650.558 509.057, 650.558 519.057, 650.558 529.057, 650.558 539.057, 650.558 549.057, 650.558 559.057, 650.558 569.057, 650.558 579.057, 650.558 584.943, 650.558 594.943, 650.558 604.943, 650.558 614.943, 650.558 621.415, 650.558 621.415, 640.558 621.415, 630.558 621.415, 620.558 621.415, 610.558 621.415, 600.558 621.415, 590.558 621.415, 580.558 621.415, 570.558 621.415, 560.558 621.415, 550.558 621.415, 540.558 621.415, 530.558 621.415, 520.558 621.415, 510.558 621.415, 504.671 " />
            <path fill="none" stroke-width="3.0" stroke-linecap="butt" stroke-opacity="1.0" stroke="rgb(0, 0, 0)" stroke-linejoin="round" d=" M 621.415, 431.727 621.415, 421.727 621.415, 417.068 621.415, 407.068 621.415, 397.068 621.415, 387.068 621.415, 377.068 621.415, 367.068 621.415, 357.068 621.415, 347.068 621.415, 337.068 621.415, 327.068 621.415, 317.068 621.415, 307.068 621.415, 297.068 621.415, 287.068 621.415, 277.068 621.415, 267.068 621.415, 257.068 621.415, 247.068 621.415, 237.068 621.415, 227.556 611.415, 227.556 601.415, 227.556 591.415, 227.556 581.415, 227.556 571.415, 227.556 561.415, 227.556 551.415, 227.556 541.415, 227.556 531.415, 227.556 521.415, 227.556 511.415, 227.556 501.415, 227.556 491.415, 227.556 481.415, 227.556 471.415, 227.556 461.415, 227.556 451.415, 227.556 441.415, 227.556 431.415, 227.556 421.415, 227.556 411.415, 227.556 402.585, 227.556 402.585, 237.556 402.585, 247.556 402.585, 257.556 402.585, 267.556 402.585, 277.556 402.585, 287.556 402.585, 297.556 402.585, 307.556 402.585, 317.556 402.585, 327.556 402.585, 337.556 402.585, 347.556 402.585, 357.556 402.585, 367.556 402.585, 377.556 402.585, 387.556 402.585, 397.556 402.585, 407.556 402.585, 417.068 402.585, 427.068 402.585, 431.727 " />
            <path fill="none" stroke-width="3.0" stroke-linecap="butt" stroke-opacity="1.0" stroke="rgb(0, 0, 0)" stroke-linejoin="round" d=" M 402.585, 417.068 412.585, 417.068 422.585, 417.068 432.585, 417.068 442.585, 417.068 452.585, 417.068 462.585, 417.068 472.585, 417.068 482.585, 417.068 492.585, 417.068 502.585, 417.068 512.585, 417.068 522.585, 417.068 532.585, 417.068 542.585, 417.068 552.585, 417.068 562.585, 417.068 572.585, 417.068 582.585, 417.068 592.585, 417.068 602.585, 417.068 612.585, 417.068 621.415, 417.068 " />
            <path fill="none" stroke-width="3.0" stroke-linecap="butt" stroke-opacity="1.0" stroke="rgb(0, 0, 0)" stroke-linejoin="round" d=" M 402.585, 468.199 392.585, 468.199 382.585, 468.199 372.585, 468.199 366.113, 468.199 366.113, 478.199 366.113, 488.199 366.113, 498.199 366.113, 504.671 366.113, 504.671 376.113, 504.671 386.113, 504.671 396.113, 504.671 402.585, 504.671 " />
            <path fill="none" stroke-width="3.0" stroke-linecap="butt" stroke-opacity="1.0" stroke="rgb(0, 0, 0)" stroke-linejoin="round" d=" M 366.113, 504.671 376.113, 504.671 386.113, 504.671 396.113, 504.671 402.585, 504.671 " />
            <path fill="none" stroke-width="3.0" stroke-linecap="butt" stroke-opacity="1.0" stroke="rgb(0, 0, 0)" stroke-linejoin="round" d=" M 621.415, 504.671 631.415, 504.671 641.415, 504.671 651.415, 504.671 657.887, 504.671 657.887, 504.671 657.887, 494.671 657.887, 484.671 657.887, 474.671 657.887, 468.199 657.887, 468.199 647.887, 468.199 637.887, 468.199 627.887, 468.199 621.415, 468.199 " />
            <path fill="none" stroke-width="3.0" stroke-linecap="butt" stroke-opacity="1.0" stroke="rgb(0, 0, 0)" stroke-linejoin="round" d=" M 559.413, 659.676 559.413, 669.676 559.413, 679.676 559.413, 689.676 559.413, 699.676 559.413, 709.676 559.413, 719.676 559.413, 729.676 559.413, 739.676 559.413, 749.676 559.413, 759.676 559.413, 769.675 559.413, 779.675 559.413, 789.676 559.413, 796.445 559.553, 796.445 559.969, 796.445 560.643, 796.445 561.550, 796.445 562.655, 796.445 563.916, 796.445 565.285, 796.445 566.708, 796.445 568.131, 796.445 569.499, 796.445 570.760, 796.445 571.865, 796.445 572.773, 796.445 573.447, 796.445 573.862, 796.445 574.002, 796.445 574.002, 786.445 574.002, 776.445 574.002, 766.444 574.002, 756.444 574.002, 746.444 574.002, 736.444 574.002, 726.444 574.002, 716.444 574.002, 706.444 574.002, 696.444 574.002, 686.444 574.002, 676.444 574.002, 666.444 574.002, 659.676 " />
            <path fill="none" stroke-width="3.0" stroke-linecap="butt" stroke-opacity="1.0" stroke="rgb(0, 0, 0)" stroke-linejoin="round" d=" M 449.998, 659.676 449.998, 669.676 449.998, 679.676 449.998, 689.676 449.998, 699.676 449.998, 709.676 449.998, 719.676 449.998, 729.676 449.998, 739.676 449.998, 749.676 449.998, 759.676 449.998, 769.675 449.998, 779.675 449.998, 789.676 449.998, 796.445 450.138, 796.445 450.553, 796.445 451.227, 796.445 452.135, 796.445 453.240, 796.445 454.501, 796.445 455.869, 796.445 457.292, 796.445 458.715, 796.445 460.084, 796.445 461.345, 796.445 462.450, 796.445 463.357, 796.445 464.031, 796.445 464.447, 796.445 464.587, 796.445 464.587, 786.445 464.587, 776.445 464.587, 766.444 464.587, 756.444 464.587, 746.444 464.587, 736.444 464.587, 726.444 464.587, 716.444 464.587, 706.444 464.587, 696.444 464.587, 686.444 464.587, 676.444 464.587, 666.444 464.587, 659.676 " />
            <path fill="none" stroke-width="3.0" stroke-linecap="butt" stroke-opacity="1.0" stroke="rgb(0, 0, 0)" stroke-linejoin="round" d=" M 504.706, 659.676 504.706, 669.676 504.706, 679.676 504.706, 689.676 504.706, 699.676 504.706, 709.676 504.706, 719.676 504.706, 729.676 504.706, 739.676 504.706, 749.676 504.706, 759.676 504.706, 769.675 504.706, 779.675 504.706, 789.676 504.706, 796.445 504.846, 796.445 505.261, 796.445 505.935, 796.445 506.842, 796.445 507.947, 796.445 509.209, 796.445 510.577, 796.445 512.000, 796.445 513.423, 796.445 514.791, 796.445 516.053, 796.445 517.158, 796.445 518.065, 796.445 518.739, 796.445 519.154, 796.445 519.294, 796.445 519.294, 786.445 519.294, 776.445 519.294, 766.444 519.294, 756.444 519.294, 746.444 519.294, 736.444 519.294, 726.444 519.294, 716.444 519.294, 706.444 519.294, 696.444 519.294, 686.444 519.294, 676.444 519.294, 666.444 519.294, 659.676 " />
            <path fill="none" stroke-width="3.0" stroke-linecap="butt" stroke-opacity="1.0" stroke="rgb(0, 0, 0)" stroke-linejoin="round" d=" M 402.585, 431.727 402.585, 441.727 402.585, 451.727 402.585, 461.727 402.585, 468.199 402.585, 468.199 402.585, 478.199 402.585, 488.199 402.585, 498.199 402.585, 504.671 402.585, 504.671 402.585, 514.671 402.585, 524.671 402.585, 526.484 " />
            <path fill="none" stroke-width="3.0" stroke-linecap="butt" stroke-opacity="1.0" stroke="rgb(0, 0, 0)" stroke-linejoin="round" d=" M 621.415, 504.671 621.415, 504.671 621.415, 494.671 621.415, 484.671 621.415, 474.671 621.415, 468.199 621.415, 468.199 621.415, 458.199 621.415, 448.199 621.415, 438.199 621.415, 431.727 " />
            <path fill="none" stroke-width="3.0" stroke-linecap="butt" stroke-opacity="1.0" stroke="rgb(0, 0, 0)" stroke-linejoin="round" d=" M 621.415, 504.671 631.415, 504.671 641.415, 504.671 651.415, 504.671 657.887, 504.671 " />
        </g>
    </g>
    <g id="ViewLayer_TechnicalLines" inkscape:groupmode="lineset" inkscape:label="ViewLayer_TechnicalLines">
        <g inkscape:groupmode="layer" id="strokes" inkscape:label="strokes">
            <path fill="none" stroke-width="3.0" stroke-linecap="butt" stroke-opacity="1.0" stroke="rgb(0, 0, 0)" stroke-linejoin="round" d=" M 519.294, 659.676 526.231, 659.676 536.231, 659.676 539.914, 659.676 549.914, 659.676 552.525, 659.676 559.413, 659.676 563.579, 659.676 572.650, 659.676 574.002, 659.676 579.391, 659.676 583.542, 659.676 584.943, 659.676 584.943, 650.558 " />
            <path fill="none" stroke-width="3.0" stroke-linecap="butt" stroke-opacity="1.0" stroke="rgb(0, 0, 0)" stroke-linejoin="round" d=" M 504.706, 659.676 512.000, 659.676 519.294, 659.676 " />
            <path fill="none" stroke-width="3.0" stroke-linecap="butt" stroke-opacity="1.0" stroke="rgb(0, 0, 0)" stroke-linejoin="round" d=" M 439.057, 650.558 439.057, 659.676 440.458, 659.676 444.609, 659.676 449.998, 659.676 451.350, 659.676 460.421, 659.676 464.587, 659.676 471.475, 659.676 481.475, 659.676 484.086, 659.676 494.086, 659.676 497.769, 659.676 504.706, 659.676 " />
            <path fill="none" stroke-width="3.0" stroke-linecap="butt" stroke-opacity="1.0" stroke="rgb(0, 0, 0)" stroke-linejoin="round" d=" M 402.585, 504.671 402.585, 514.671 402.585, 524.671 402.585, 526.484 402.585, 536.484 402.585, 546.484 402.585, 556.483 402.585, 566.483 402.585, 576.483 402.585, 586.483 402.585, 596.483 402.585, 606.483 402.585, 616.484 402.585, 626.483 402.585, 636.483 402.585, 646.483 402.585, 650.558 412.585, 650.558 422.585, 650.558 432.585, 650.558 439.057, 650.558 449.057, 650.558 459.057, 650.558 469.057, 650.558 479.057, 650.558 489.057, 650.558 499.057, 650.558 509.057, 650.558 519.057, 650.558 529.057, 650.558 539.057, 650.558 549.057, 650.558 559.057, 650.558 569.057, 650.558 579.057, 650.558 584.943, 650.558 594.943, 650.558 604.943, 650.558 614.943, 650.558 621.415, 650.558 621.415, 640.558 621.415, 630.558 621.415, 620.558 621.415, 610.558 621.415, 600.558 621.415, 590.558 621.415, 580.558 621.415, 570.558 621.415, 560.558 621.415, 550.558 621.415, 540.558 621.415, 530.558 621.415, 520.558 621.415, 510.558 621.415, 504.671 " />
            <path fill="none" stroke-width="3.0" stroke-linecap="butt" stroke-opacity="1.0" stroke="rgb(0, 0, 0)" stroke-linejoin="round" d=" M 621.415, 431.727 621.415, 421.727 621.415, 417.068 621.415, 407.068 621.415, 397.068 621.415, 387.068 621.415, 377.068 621.415, 367.068 621.415, 357.068 621.415, 347.068 621.415, 337.068 621.415, 327.068 621.415, 317.068 621.415, 307.068 621.415, 297.068 621.415, 287.068 621.415, 277.068 621.415, 267.068 621.415, 257.068 621.415, 247.068 621.415, 237.068 621.415, 227.556 611.415, 227.556 601.415, 227.556 591.415, 227.556 581.415, 227.556 571.415, 227.556 561.415, 227.556 551.415, 227.556 541.415, 227.556 531.415, 227.556 521.415, 227.556 511.415, 227.556 501.415, 227.556 491.415, 227.556 481.415, 227.556 471.415, 227.556 461.415, 227.556 451.415, 227.556 441.415, 227.556 431.415, 227.556 421.415, 227.556 411.415, 227.556 402.585, 227.556 402.585, 237.556 402.585, 247.556 402.585, 257.556 402.585, 267.556 402.585, 277.556 402.585, 287.556 402.585, 297.556 402.585, 307.556 402.585, 317.556 402.585, 327.556 402.585, 337.556 402.585, 347.556 402.585, 357.556 402.585, 367.556 402.585, 377.556 402.585, 387.556 402.585, 397.556 402.585, 407.556 402.585, 417.068 402.585, 427.068 402.585, 431.727 " />
            <path fill="none" stroke-width="3.0" stroke-linecap="butt" stroke-opacity="1.0" stroke="rgb(0, 0, 0)" stroke-linejoin="round" d=" M 402.585, 417.068 412.585, 417.068 422.585, 417.068 432.585, 417.068 442.585, 417.068 452.585, 417.068 462.585, 417.068 472.585, 417.068 482.585, 417.068 492.585, 417.068 502.585, 417.068 512.585, 417.068 522.585, 417.068 532.585, 417.068 542.585, 417.068 552.585, 417.068 562.585, 417.068 572.585, 417.068 582.585, 417.068 592.585, 417.068 602.585, 417.068 612.585, 417.068 621.415, 417.068 " />
            <path fill="none" stroke-width="3.0" stroke-linecap="butt" stroke-opacity="1.0" stroke="rgb(0, 0, 0)" stroke-linejoin="round" d=" M 402.585, 468.199 392.585, 468.199 382.585, 468.199 372.585, 468.199 366.113, 468.199 366.113, 478.199 366.113, 488.199 366.113, 498.199 366.113, 504.671 366.113, 504.671 376.113, 504.671 386.113, 504.671 396.113, 504.671 402.585, 504.671 " />
            <path fill="none" stroke-width="3.0" stroke-linecap="butt" stroke-opacity="1.0" stroke="rgb(0, 0, 0)" stroke-linejoin="round" d=" M 366.113, 504.671 376.113, 504.671 386.113, 504.671 396.113, 504.671 402.585, 504.671 " />
            <path fill="none" stroke-width="3.0" stroke-linecap="butt" stroke-opacity="1.0" stroke="rgb(0, 0, 0)" stroke-linejoin="round" d=" M 621.415, 504.671 631.415, 504.671 641.415, 504.671 651.415, 504.671 657.887, 504.671 657.887, 504.671 657.887, 494.671 657.887, 484.671 657.887, 474.671 657.887, 468.199 657.887, 468.199 647.887, 468.199 637.887, 468.199 627.887, 468.199 621.415, 468.199 " />
            <path fill="none" stroke-width="3.0" stroke-linecap="butt" stroke-opacity="1.0" stroke="rgb(0, 0, 0)" stroke-linejoin="round" d=" M 559.413, 659.676 559.413, 669.676 559.413, 679.676 559.413, 689.676 559.413, 699.676 559.413, 709.676 559.413, 719.676 559.413, 729.676 559.413, 739.676 559.413, 749.676 559.413, 759.676 559.413, 769.675 559.413, 779.675 559.413, 789.676 559.413, 796.445 559.553, 796.445 559.969, 796.445 560.643, 796.445 561.550, 796.445 562.655, 796.445 563.916, 796.445 565.285, 796.445 566.708, 796.445 568.131, 796.445 569.499, 796.445 570.760, 796.445 571.865, 796.445 572.773, 796.445 573.447, 796.445 573.862, 796.445 574.002, 796.445 574.002, 786.445 574.002, 776.445 574.002, 766.444 574.002, 756.444 574.002, 746.444 574.002, 736.444 574.002, 726.444 574.002, 716.444 574.002, 706.444 574.002, 696.444 574.002, 686.444 574.002, 676.444 574.002, 666.444 574.002, 659.676 " />
            <path fill="none" stroke-width="3.0" stroke-linecap="butt" stroke-opacity="1.0" stroke="rgb(0, 0, 0)" stroke-linejoin="round" d=" M 449.998, 659.676 449.998, 669.676 449.998, 679.676 449.998, 689.676 449.998, 699.676 449.998, 709.676 449.998, 719.676 449.998, 729.676 449.998, 739.676 449.998, 749.676 449.998, 759.676 449.998, 769.675 449.998, 779.675 449.998, 789.676 449.998, 796.445 450.138, 796.445 450.553, 796.445 451.227, 796.445 452.135, 796.445 453.240, 796.445 454.501, 796.445 455.869, 796.445 457.292, 796.445 458.715, 796.445 460.084, 796.445 461.345, 796.445 462.450, 796.445 463.357, 796.445 464.031, 796.445 464.447, 796.445 464.587, 796.445 464.587, 786.445 464.587, 776.445 464.587, 766.444 464.587, 756.444 464.587, 746.444 464.587, 736.444 464.587, 726.444 464.587, 716.444 464.587, 706.444 464.587, 696.444 464.587, 686.444 464.587, 676.444 464.587, 666.444 464.587, 659.676 " />
            <path fill="none" stroke-width="3.0" stroke-linecap="butt" stroke-opacity="1.0" stroke="rgb(0, 0, 0)" stroke-linejoin="round" d=" M 504.706, 659.676 504.706, 669.676 504.706, 679.676 504.706, 689.676 504.706, 699.676 504.706, 709.676 504.706, 719.676 504.706, 729.676 504.706, 739.676 504.706, 749.676 504.706, 759.676 504.706, 769.675 504.706, 779.675 504.706, 789.676 504.706, 796.445 504.846, 796.445 505.261, 796.445 505.935, 796.445 506.842, 796.445 507.947, 796.445 509.209, 796.445 510.577, 796.445 512.000, 796.445 513.423, 796.445 514.791, 796.445 516.053, 796.445 517.158, 796.445 518.065, 796.445 518.739, 796.445 519.154, 796.445 519.294, 796.445 519.294, 786.445 519.294, 776.445 519.294, 766.444 519.294, 756.444 519.294, 746.444 519.294, 736.444 519.294, 726.444 519.294, 716.444 519.294, 706.444 519.294, 696.444 519.294, 686.444 519.294, 676.444 519.294, 666.444 519.294, 659.676 " />
            <path fill="none" stroke-width="3.0" stroke-linecap="butt" stroke-opacity="1.0" stroke="rgb(0, 0, 0)" stroke-linejoin="round" d=" M 402.585, 431.727 402.585, 441.727 402.585, 451.727 402.585, 461.727 402.585, 468.199 402.585, 468.199 402.585, 478.199 402.585, 488.199 402.585, 498.199 402.585, 504.671 402.585, 504.671 402.585, 514.671 402.585, 524.671 402.585, 526.484 " />
            <path fill="none" stroke-width="3.0" stroke-linecap="butt" stroke-opacity="1.0" stroke="rgb(0, 0, 0)" stroke-linejoin="round" d=" M 621.415, 504.671 621.415, 504.671 621.415, 494.671 621.415, 484.671 621.415, 474.671 621.415, 468.199 621.415, 468.199 621.415, 458.199 621.415, 448.199 621.415, 438.199 621.415, 431.727 " />
            <path fill="none" stroke-width="3.0" stroke-linecap="butt" stroke-opacity="1.0" stroke="rgb(0, 0, 0)" stroke-linejoin="round" d=" M 621.415, 504.671 631.415, 504.671 641.415, 504.671 651.415, 504.671 657.887, 504.671 " />
        </g>
    </g>
    <g id="ViewLayer_TechnicalLines.001" inkscape:groupmode="lineset" inkscape:label="ViewLayer_TechnicalLines.001">
        <g inkscape:groupmode="layer" id="strokes" inkscape:label="strokes">
            <path fill="none" stroke-width="1.5" stroke-linecap="round" stroke-opacity="1.0" stroke="rgb(0, 0, 0)" stroke-linejoin="round" d=" M 519.294, 659.676 526.231, 659.676 536.231, 659.676 539.914, 659.676 549.914, 659.676 552.525, 659.676 559.413, 659.676 563.579, 659.676 572.650, 659.676 574.002, 659.676 579.391, 659.676 583.542, 659.676 584.943, 659.676 584.943, 650.558 " />
            <path fill="none" stroke-width="1.5" stroke-linecap="round" stroke-opacity="1.0" stroke="rgb(0, 0, 0)" stroke-linejoin="round" d=" M 504.706, 659.676 512.000, 659.676 519.294, 659.676 " />
            <path fill="none" stroke-width="1.5" stroke-linecap="round" stroke-opacity="1.0" stroke="rgb(0, 0, 0)" stroke-linejoin="round" d=" M 439.057, 650.558 439.057, 659.676 440.458, 659.676 444.609, 659.676 449.998, 659.676 451.350, 659.676 460.421, 659.676 464.587, 659.676 471.475, 659.676 481.475, 659.676 484.086, 659.676 494.086, 659.676 497.769, 659.676 504.706, 659.676 " />
            <path fill="none" stroke-width="1.5" stroke-linecap="round" stroke-opacity="1.0" stroke="rgb(0, 0, 0)" stroke-linejoin="round" d=" M 402.585, 504.671 402.585, 514.671 402.585, 524.671 402.585, 526.484 402.585, 536.484 402.585, 546.484 402.585, 556.483 402.585, 566.483 402.585, 576.483 402.585, 586.483 402.585, 596.483 402.585, 606.483 402.585, 616.484 402.585, 626.483 402.585, 636.483 402.585, 646.483 402.585, 650.558 412.585, 650.558 422.585, 650.558 432.585, 650.558 439.057, 650.558 449.057, 650.558 459.057, 650.558 469.057, 650.558 479.057, 650.558 489.057, 650.558 499.057, 650.558 509.057, 650.558 519.057, 650.558 529.057, 650.558 539.057, 650.558 549.057, 650.558 559.057, 650.558 569.057, 650.558 579.057, 650.558 584.943, 650.558 594.943, 650.558 604.943, 650.558 614.943, 650.558 621.415, 650.558 621.415, 640.558 621.415, 630.558 621.415, 620.558 621.415, 610.558 621.415, 600.558 621.415, 590.558 621.415, 580.558 621.415, 570.558 621.415, 560.558 621.415, 550.558 621.415, 540.558 621.415, 530.558 621.415, 520.558 621.415, 510.558 621.415, 504.671 " />
            <path fill="none" stroke-width="1.5" stroke-linecap="round" stroke-opacity="1.0" stroke="rgb(0, 0, 0)" stroke-linejoin="round" d=" M 621.415, 431.727 621.415, 421.727 621.415, 417.068 621.415, 407.068 621.415, 397.068 621.415, 387.068 621.415, 377.068 621.415, 367.068 621.415, 357.068 621.415, 347.068 621.415, 337.068 621.415, 327.068 621.415, 317.068 621.415, 307.068 621.415, 297.068 621.415, 287.068 621.415, 277.068 621.415, 267.068 621.415, 257.068 621.415, 247.068 621.415, 237.068 621.415, 227.556 611.415, 227.556 601.415, 227.556 591.415, 227.556 581.415, 227.556 571.415, 227.556 561.415, 227.556 551.415, 227.556 541.415, 227.556 531.415, 227.556 521.415, 227.556 511.415, 227.556 501.415, 227.556 491.415, 227.556 481.415, 227.556 471.415, 227.556 461.415, 227.556 451.415, 227.556 441.415, 227.556 431.415, 227.556 421.415, 227.556 411.415, 227.556 402.585, 227.556 402.585, 237.556 402.585, 247.556 402.585, 257.556 402.585, 267.556 402.585, 277.556 402.585, 287.556 402.585, 297.556 402.585, 307.556 402.585, 317.556 402.585, 327.556 402.585, 337.556 402.585, 347.556 402.585, 357.556 402.585, 367.556 402.585, 377.556 402.585, 387.556 402.585, 397.556 402.585, 407.556 402.585, 417.068 402.585, 427.068 402.585, 431.727 " />
            <path fill="none" stroke-width="1.5" stroke-linecap="round" stroke-opacity="1.0" stroke="rgb(0, 0, 0)" stroke-linejoin="round" d=" M 402.585, 417.068 412.585, 417.068 422.585, 417.068 432.585, 417.068 442.585, 417.068 452.585, 417.068 462.585, 417.068 472.585, 417.068 482.585, 417.068 492.585, 417.068 502.585, 417.068 512.585, 417.068 522.585, 417.068 532.585, 417.068 542.585, 417.068 552.585, 417.068 562.585, 417.068 572.585, 417.068 582.585, 417.068 592.585, 417.068 602.585, 417.068 612.585, 417.068 621.415, 417.068 " />
            <path fill="none" stroke-width="1.5" stroke-linecap="round" stroke-opacity="1.0" stroke="rgb(0, 0, 0)" stroke-linejoin="round" d=" M 402.585, 468.199 392.585, 468.199 382.585, 468.199 372.585, 468.199 366.113, 468.199 366.113, 478.199 366.113, 488.199 366.113, 498.199 366.113, 504.671 366.113, 504.671 376.113, 504.671 386.113, 504.671 396.113, 504.671 402.585, 504.671 " />
            <path fill="none" stroke-width="1.5" stroke-linecap="round" stroke-opacity="1.0" stroke="rgb(0, 0, 0)" stroke-linejoin="round" d=" M 366.113, 504.671 376.113, 504.671 386.113, 504.671 396.113, 504.671 402.585, 504.671 " />
            <path fill="none" stroke-width="1.5" stroke-linecap="round" stroke-opacity="1.0" stroke="rgb(0, 0, 0)" stroke-linejoin="round" d=" M 621.415, 504.671 631.415, 504.671 641.415, 504.671 651.415, 504.671 657.887, 504.671 657.887, 504.671 657.887, 494.671 657.887, 484.671 657.887, 474.671 657.887, 468.199 657.887, 468.199 647.887, 468.199 637.887, 468.199 627.887, 468.199 621.415, 468.199 " />
            <path fill="none" stroke-width="1.5" stroke-linecap="round" stroke-opacity="1.0" stroke="rgb(0, 0, 0)" stroke-linejoin="round" d=" M 559.413, 659.676 559.413, 669.676 559.413, 679.676 559.413, 689.676 559.413, 699.676 559.413, 709.676 559.413, 719.676 559.413, 729.676 559.413, 739.676 559.413, 749.676 559.413, 759.676 559.413, 769.675 559.413, 779.675 559.413, 789.676 559.413, 796.445 559.553, 796.445 559.969, 796.445 560.643, 796.445 561.550, 796.445 562.655, 796.445 563.916, 796.445 565.285, 796.445 566.708, 796.445 568.131, 796.445 569.499, 796.445 570.760, 796.445 571.865, 796.445 572.773, 796.445 573.447, 796.445 573.862, 796.445 574.002, 796.445 574.002, 786.445 574.002, 776.445 574.002, 766.444 574.002, 756.444 574.002, 746.444 574.002, 736.444 574.002, 726.444 574.002, 716.444 574.002, 706.444 574.002, 696.444 574.002, 686.444 574.002, 676.444 574.002, 666.444 574.002, 659.676 " />
            <path fill="none" stroke-width="1.5" stroke-linecap="round" stroke-opacity="1.0" stroke="rgb(0, 0, 0)" stroke-linejoin="round" d=" M 449.998, 659.676 449.998, 669.676 449.998, 679.676 449.998, 689.676 449.998, 699.676 449.998, 709.676 449.998, 719.676 449.998, 729.676 449.998, 739.676 449.998, 749.676 449.998, 759.676 449.998, 769.675 449.998, 779.675 449.998, 789.676 449.998, 796.445 450.138, 796.445 450.553, 796.445 451.227, 796.445 452.135, 796.445 453.240, 796.445 454.501, 796.445 455.869, 796.445 457.292, 796.445 458.715, 796.445 460.084, 796.445 461.345, 796.445 462.450, 796.445 463.357, 796.445 464.031, 796.445 464.447, 796.445 464.587, 796.445 464.587, 786.445 464.587, 776.445 464.587, 766.444 464.587, 756.444 464.587, 746.444 464.587, 736.444 464.587, 726.444 464.587, 716.444 464.587, 706.444 464.587, 696.444 464.587, 686.444 464.587, 676.444 464.587, 666.444 464.587, 659.676 " />
            <path fill="none" stroke-width="1.5" stroke-linecap="round" stroke-opacity="1.0" stroke="rgb(0, 0, 0)" stroke-linejoin="round" d=" M 504.706, 659.676 504.706, 669.676 504.706, 679.676 504.706, 689.676 504.706, 699.676 504.706, 709.676 504.706, 719.676 504.706, 729.676 504.706, 739.676 504.706, 749.676 504.706, 759.676 504.706, 769.675 504.706, 779.675 504.706, 789.676 504.706, 796.445 504.846, 796.445 505.261, 796.445 505.935, 796.445 506.842, 796.445 507.947, 796.445 509.209, 796.445 510.577, 796.445 512.000, 796.445 513.423, 796.445 514.791, 796.445 516.053, 796.445 517.158, 796.445 518.065, 796.445 518.739, 796.445 519.154, 796.445 519.294, 796.445 519.294, 786.445 519.294, 776.445 519.294, 766.444 519.294, 756.444 519.294, 746.444 519.294, 736.444 519.294, 726.444 519.294, 716.444 519.294, 706.444 519.294, 696.444 519.294, 686.444 519.294, 676.444 519.294, 666.444 519.294, 659.676 " />
            <path fill="none" stroke-width="1.5" stroke-linecap="round" stroke-opacity="1.0" stroke="rgb(0, 0, 0)" stroke-linejoin="round" d=" M 402.585, 431.727 402.585, 441.727 402.585, 451.727 402.585, 461.727 402.585, 468.199 402.585, 468.199 402.585, 478.199 402.585, 488.199 402.585, 498.199 402.585, 504.671 402.585, 504.671 402.585, 514.671 402.585, 524.671 402.585, 526.484 " />
            <path fill="none" stroke-width="1.5" stroke-linecap="round" stroke-opacity="1.0" stroke="rgb(0, 0, 0)" stroke-linejoin="round" d=" M 621.415, 504.671 621.415, 504.671 621.415, 494.671 621.415, 484.671 621.415, 474.671 621.415, 468.199 621.415, 468.199 621.415, 458.199 621.415, 448.199 621.415, 438.199 621.415, 431.727 " />
            <path fill="none" stroke-width="1.5" stroke-linecap="round" stroke-opacity="1.0" stroke="rgb(0, 0, 0)" stroke-linejoin="round" d=" M 621.415, 504.671 631.415, 504.671 641.415, 504.671 651.415, 504.671 657.887, 504.671 " />
        </g>
    </g>
    <g id="ViewLayer_TechnicalLines.002" inkscape:groupmode="lineset" inkscape:label="ViewLayer_TechnicalLines.002">
        <g inkscape:groupmode="layer" id="strokes" inkscape:label="strokes">
            <path fill="none" stroke-width="1.5" stroke-linecap="round" stroke-opacity="1.0" stroke="rgb(0, 0, 0)" stroke-linejoin="round" d=" M 519.294, 659.676 526.231, 659.676 536.231, 659.676 539.914, 659.676 549.914, 659.676 552.525, 659.676 559.413, 659.676 563.579, 659.676 572.650, 659.676 574.002, 659.676 579.391, 659.676 583.542, 659.676 584.943, 659.676 584.943, 650.558 " />
            <path fill="none" stroke-width="1.5" stroke-linecap="round" stroke-opacity="1.0" stroke="rgb(0, 0, 0)" stroke-linejoin="round" d=" M 504.706, 659.676 512.000, 659.676 519.294, 659.676 " />
            <path fill="none" stroke-width="1.5" stroke-linecap="round" stroke-opacity="1.0" stroke="rgb(0, 0, 0)" stroke-linejoin="round" d=" M 439.057, 650.558 439.057, 659.676 440.458, 659.676 444.609, 659.676 449.998, 659.676 451.350, 659.676 460.421, 659.676 464.587, 659.676 471.475, 659.676 481.475, 659.676 484.086, 659.676 494.086, 659.676 497.769, 659.676 504.706, 659.676 " />
            <path fill="none" stroke-width="1.5" stroke-linecap="round" stroke-opacity="1.0" stroke="rgb(0, 0, 0)" stroke-linejoin="round" d=" M 402.585, 504.671 402.585, 514.671 402.585, 524.671 402.585, 526.484 402.585, 536.484 402.585, 546.484 402.585, 556.483 402.585, 566.483 402.585, 576.483 402.585, 586.483 402.585, 596.483 402.585, 606.483 402.585, 616.484 402.585, 626.483 402.585, 636.483 402.585, 646.483 402.585, 650.558 412.585, 650.558 422.585, 650.558 432.585, 650.558 439.057, 650.558 449.057, 650.558 459.057, 650.558 469.057, 650.558 479.057, 650.558 489.057, 650.558 499.057, 650.558 509.057, 650.558 519.057, 650.558 529.057, 650.558 539.057, 650.558 549.057, 650.558 559.057, 650.558 569.057, 650.558 579.057, 650.558 584.943, 650.558 594.943, 650.558 604.943, 650.558 614.943, 650.558 621.415, 650.558 621.415, 640.558 621.415, 630.558 621.415, 620.558 621.415, 610.558 621.415, 600.558 621.415, 590.558 621.415, 580.558 621.415, 570.558 621.415, 560.558 621.415, 550.558 621.415, 540.558 621.415, 530.558 621.415, 520.558 621.415, 510.558 621.415, 504.671 " />
            <path fill="none" stroke-width="1.5" stroke-linecap="round" stroke-opacity="1.0" stroke="rgb(0, 0, 0)" stroke-linejoin="round" d=" M 621.415, 431.727 621.415, 421.727 621.415, 417.068 621.415, 407.068 621.415, 397.068 621.415, 387.068 621.415, 377.068 621.415, 367.068 621.415, 357.068 621.415, 347.068 621.415, 337.068 621.415, 327.068 621.415, 317.068 621.415, 307.068 621.415, 297.068 621.415, 287.068 621.415, 277.068 621.415, 267.068 621.415, 257.068 621.415, 247.068 621.415, 237.068 621.415, 227.556 611.415, 227.556 601.415, 227.556 591.415, 227.556 581.415, 227.556 571.415, 227.556 561.415, 227.556 551.415, 227.556 541.415, 227.556 531.415, 227.556 521.415, 227.556 511.415, 227.556 501.415, 227.556 491.415, 227.556 481.415, 227.556 471.415, 227.556 461.415, 227.556 451.415, 227.556 441.415, 227.556 431.415, 227.556 421.415, 227.556 411.415, 227.556 402.585, 227.556 402.585, 237.556 402.585, 247.556 402.585, 257.556 402.585, 267.556 402.585, 277.556 402.585, 287.556 402.585, 297.556 402.585, 307.556 402.585, 317.556 402.585, 327.556 402.585, 337.556 402.585, 347.556 402.585, 357.556 402.585, 367.556 402.585, 377.556 402.585, 387.556 402.585, 397.556 402.585, 407.556 402.585, 417.068 402.585, 427.068 402.585, 431.727 " />
            <path fill="none" stroke-width="1.5" stroke-linecap="round" stroke-opacity="1.0" stroke="rgb(0, 0, 0)" stroke-linejoin="round" d=" M 402.585, 417.068 412.585, 417.068 422.585, 417.068 432.585, 417.068 442.585, 417.068 452.585, 417.068 462.585, 417.068 472.585, 417.068 482.585, 417.068 492.585, 417.068 502.585, 417.068 512.585, 417.068 522.585, 417.068 532.585, 417.068 542.585, 417.068 552.585, 417.068 562.585, 417.068 572.585, 417.068 582.585, 417.068 592.585, 417.068 602.585, 417.068 612.585, 417.068 621.415, 417.068 " />
            <path fill="none" stroke-width="1.5" stroke-linecap="round" stroke-opacity="1.0" stroke="rgb(0, 0, 0)" stroke-linejoin="round" d=" M 402.585, 468.199 392.585, 468.199 382.585, 468.199 372.585, 468.199 366.113, 468.199 366.113, 478.199 366.113, 488.199 366.113, 498.199 366.113, 504.671 366.113, 504.671 376.113, 504.671 386.113, 504.671 396.113, 504.671 402.585, 504.671 " />
            <path fill="none" stroke-width="1.5" stroke-linecap="round" stroke-opacity="1.0" stroke="rgb(0, 0, 0)" stroke-linejoin="round" d=" M 366.113, 504.671 376.113, 504.671 386.113, 504.671 396.113, 504.671 402.585, 504.671 " />
            <path fill="none" stroke-width="1.5" stroke-linecap="round" stroke-opacity="1.0" stroke="rgb(0, 0, 0)" stroke-linejoin="round" d=" M 621.415, 504.671 631.415, 504.671 641.415, 504.671 651.415, 504.671 657.887, 504.671 657.887, 504.671 657.887, 494.671 657.887, 484.671 657.887, 474.671 657.887, 468.199 657.887, 468.199 647.887, 468.199 637.887, 468.199 627.887, 468.199 621.415, 468.199 " />
            <path fill="none" stroke-width="1.5" stroke-linecap="round" stroke-opacity="1.0" stroke="rgb(0, 0, 0)" stroke-linejoin="round" d=" M 559.413, 659.676 559.413, 669.676 559.413, 679.676 559.413, 689.676 559.413, 699.676 559.413, 709.676 559.413, 719.676 559.413, 729.676 559.413, 739.676 559.413, 749.676 559.413, 759.676 559.413, 769.675 559.413, 779.675 559.413, 789.676 559.413, 796.445 559.553, 796.445 559.969, 796.445 560.643, 796.445 561.550, 796.445 562.655, 796.445 563.916, 796.445 565.285, 796.445 566.708, 796.445 568.131, 796.445 569.499, 796.445 570.760, 796.445 571.865, 796.445 572.773, 796.445 573.447, 796.445 573.862, 796.445 574.002, 796.445 574.002, 786.445 574.002, 776.445 574.002, 766.444 574.002, 756.444 574.002, 746.444 574.002, 736.444 574.002, 726.444 574.002, 716.444 574.002, 706.444 574.002, 696.444 574.002, 686.444 574.002, 676.444 574.002, 666.444 574.002, 659.676 " />
            <path fill="none" stroke-width="1.5" stroke-linecap="round" stroke-opacity="1.0" stroke="rgb(0, 0, 0)" stroke-linejoin="round" d=" M 449.998, 659.676 449.998, 669.676 449.998, 679.676 449.998, 689.676 449.998, 699.676 449.998, 709.676 449.998, 719.676 449.998, 729.676 449.998, 739.676 449.998, 749.676 449.998, 759.676 449.998, 769.675 449.998, 779.675 449.998, 789.676 449.998, 796.445 450.138, 796.445 450.553, 796.445 451.227, 796.445 452.135, 796.445 453.240, 796.445 454.501, 796.445 455.869, 796.445 457.292, 796.445 458.715, 796.445 460.084, 796.445 461.345, 796.445 462.450, 796.445 463.357, 796.445 464.031, 796.445 464.447, 796.445 464.587, 796.445 464.587, 786.445 464.587, 776.445 464.587, 766.444 464.587, 756.444 464.587, 746.444 464.587, 736.444 464.587, 726.444 464.587, 716.444 464.587, 706.444 464.587, 696.444 464.587, 686.444 464.587, 676.444 464.587, 666.444 464.587, 659.676 " />
            <path fill="none" stroke-width="1.5" stroke-linecap="round" stroke-opacity="1.0" stroke="rgb(0, 0, 0)" stroke-linejoin="round" d=" M 504.706, 659.676 504.706, 669.676 504.706, 679.676 504.706, 689.676 504.706, 699.676 504.706, 709.676 504.706, 719.676 504.706, 729.676 504.706, 739.676 504.706, 749.676 504.706, 759.676 504.706, 769.675 504.706, 779.675 504.706, 789.676 504.706, 796.445 504.846, 796.445 505.261, 796.445 505.935, 796.445 506.842, 796.445 507.947, 796.445 509.209, 796.445 510.577, 796.445 512.000, 796.445 513.423, 796.445 514.791, 796.445 516.053, 796.445 517.158, 796.445 518.065, 796.445 518.739, 796.445 519.154, 796.445 519.294, 796.445 519.294, 786.445 519.294, 776.445 519.294, 766.444 519.294, 756.444 519.294, 746.444 519.294, 736.444 519.294, 726.444 519.294, 716.444 519.294, 706.444 519.294, 696.444 519.294, 686.444 519.294, 676.444 519.294, 666.444 519.294, 659.676 " />
            <path fill="none" stroke-width="1.5" stroke-linecap="round" stroke-opacity="1.0" stroke="rgb(0, 0, 0)" stroke-linejoin="round" d=" M 402.585, 431.727 402.585, 441.727 402.585, 451.727 402.585, 461.727 402.585, 468.199 402.585, 468.199 402.585, 478.199 402.585, 488.199 402.585, 498.199 402.585, 504.671 402.585, 504.671 402.585, 514.671 402.585, 524.671 402.585, 526.484 " />
            <path fill="none" stroke-width="1.5" stroke-linecap="round" stroke-opacity="1.0" stroke="rgb(0, 0, 0)" stroke-linejoin="round" d=" M 621.415, 504.671 621.415, 504.671 621.415, 494.671 621.415, 484.671 621.415, 474.671 621.415, 468.199 621.415, 468.199 621.415, 458.199 621.415, 448.199 621.415, 438.199 621.415, 431.727 " />
            <path fill="none" stroke-width="1.5" stroke-linecap="round" stroke-opacity="1.0" stroke="rgb(0, 0, 0)" stroke-linejoin="round" d=" M 621.415, 504.671 631.415, 504.671 641.415, 504.671 651.415, 504.671 657.887, 504.671 " />
        </g>
    </g>
    <g id="ViewLayer_TechnicalLines.003" inkscape:groupmode="lineset" inkscape:label="ViewLayer_TechnicalLines.003">
        <g inkscape:groupmode="layer" id="strokes" inkscape:label="strokes">
            <path fill="none" stroke-width="1.5" stroke-linecap="round" stroke-opacity="1.0" stroke="rgb(0, 0, 0)" stroke-linejoin="round" d=" M 519.294, 659.676 526.231, 659.676 536.231, 659.676 539.914, 659.676 549.914, 659.676 552.525, 659.676 559.413, 659.676 563.579, 659.676 572.650, 659.676 574.002, 659.676 579.391, 659.676 583.542, 659.676 584.943, 659.676 584.943, 650.558 " />
            <path fill="none" stroke-width="1.5" stroke-linecap="round" stroke-opacity="1.0" stroke="rgb(0, 0, 0)" stroke-linejoin="round" d=" M 504.706, 659.676 512.000, 659.676 519.294, 659.676 " />
            <path fill="none" stroke-width="1.5" stroke-linecap="round" stroke-opacity="1.0" stroke="rgb(0, 0, 0)" stroke-linejoin="round" d=" M 439.057, 650.558 439.057, 659.676 440.458, 659.676 444.609, 659.676 449.998, 659.676 451.350, 659.676 460.421, 659.676 464.587, 659.676 471.475, 659.676 481.475, 659.676 484.086, 659.676 494.086, 659.676 497.769, 659.676 504.706, 659.676 " />
            <path fill="none" stroke-width="1.5" stroke-linecap="round" stroke-opacity="1.0" stroke="rgb(0, 0, 0)" stroke-linejoin="round" d=" M 402.585, 504.671 402.585, 514.671 402.585, 524.671 402.585, 526.484 402.585, 536.484 402.585, 546.484 402.585, 556.483 402.585, 566.483 402.585, 576.483 402.585, 586.483 402.585, 596.483 402.585, 606.483 402.585, 616.484 402.585, 626.483 402.585, 636.483 402.585, 646.483 402.585, 650.558 412.585, 650.558 422.585, 650.558 432.585, 650.558 439.057, 650.558 449.057, 650.558 459.057, 650.558 469.057, 650.558 479.057, 650.558 489.057, 650.558 499.057, 650.558 509.057, 650.558 519.057, 650.558 529.057, 650.558 539.057, 650.558 549.057, 650.558 559.057, 650.558 569.057, 650.558 579.057, 650.558 584.943, 650.558 594.943, 650.558 604.943, 650.558 614.943, 650.558 621.415, 650.558 621.415, 640.558 621.415, 630.558 621.415, 620.558 621.415, 610.558 621.415, 600.558 621.415, 590.558 621.415, 580.558 621.415, 570.558 621.415, 560.558 621.415, 550.558 621.415, 540.558 621.415, 530.558 621.415, 520.558 621.415, 510.558 621.415, 504.671 " />
            <path fill="none" stroke-width="1.5" stroke-linecap="round" stroke-opacity="1.0" stroke="rgb(0, 0, 0)" stroke-linejoin="round" d=" M 621.415, 431.727 621.415, 421.727 621.415, 417.068 621.415, 407.068 621.415, 397.068 621.415, 387.068 621.415, 377.068 621.415, 367.068 621.415, 357.068 621.415, 347.068 621.415, 337.068 621.415, 327.068 621.415, 317.068 621.415, 307.068 621.415, 297.068 621.415, 287.068 621.415, 277.068 621.415, 267.068 621.415, 257.068 621.415, 247.068 621.415, 237.068 621.415, 227.556 611.415, 227.556 601.415, 227.556 591.415, 227.556 581.415, 227.556 571.415, 227.556 561.415, 227.556 551.415, 227.556 541.415, 227.556 531.415, 227.556 521.415, 227.556 511.415, 227.556 501.415, 227.556 491.415, 227.556 481.415, 227.556 471.415, 227.556 461.415, 227.556 451.415, 227.556 441.415, 227.556 431.415, 227.556 421.415, 227.556 411.415, 227.556 402.585, 227.556 402.585, 237.556 402.585, 247.556 402.585, 257.556 402.585, 267.556 402.585, 277.556 402.585, 287.556 402.585, 297.556 402.585, 307.556 402.585, 317.556 402.585, 327.556 402.585, 337.556 402.585, 347.556 402.585, 357.556 402.585, 367.556 402.585, 377.556 402.585, 387.556 402.585, 397.556 402.585, 407.556 402.585, 417.068 402.585, 427.068 402.585, 431.727 " />
            <path fill="none" stroke-width="1.5" stroke-linecap="round" stroke-opacity="1.0" stroke="rgb(0, 0, 0)" stroke-linejoin="round" d=" M 402.585, 417.068 412.585, 417.068 422.585, 417.068 432.585, 417.068 442.585, 417.068 452.585, 417.068 462.585, 417.068 472.585, 417.068 482.585, 417.068 492.585, 417.068 502.585, 417.068 512.585, 417.068 522.585, 417.068 532.585, 417.068 542.585, 417.068 552.585, 417.068 562.585, 417.068 572.585, 417.068 582.585, 417.068 592.585, 417.068 602.585, 417.068 612.585, 417.068 621.415, 417.068 " />
            <path fill="none" stroke-width="1.5" stroke-linecap="round" stroke-opacity="1.0" stroke="rgb(0, 0, 0)" stroke-linejoin="round" d=" M 402.585, 468.199 392.585, 468.199 382.585, 468.199 372.585, 468.199 366.113, 468.199 366.113, 478.199 366.113, 488.199 366.113, 498.199 366.113, 504.671 366.113, 504.671 376.113, 504.671 386.113, 504.671 396.113, 504.671 402.585, 504.671 " />
            <path fill="none" stroke-width="1.5" stroke-linecap="round" stroke-opacity="1.0" stroke="rgb(0, 0, 0)" stroke-linejoin="round" d=" M 366.113, 504.671 376.113, 504.671 386.113, 504.671 396.113, 504.671 402.585, 504.671 " />
            <path fill="none" stroke-width="1.5" stroke-linecap="round" stroke-opacity="1.0" stroke="rgb(0, 0, 0)" stroke-linejoin="round" d=" M 621.415, 504.671 631.415, 504.671 641.415, 504.671 651.415, 504.671 657.887, 504.671 657.887, 504.671 657.887, 494.671 657.887, 484.671 657.887, 474.671 657.887, 468.199 657.887, 468.199 647.887, 468.199 637.887, 468.199 627.887, 468.199 621.415, 468.199 " />
            <path fill="none" stroke-width="1.5" stroke-linecap="round" stroke-opacity="1.0" stroke="rgb(0, 0, 0)" stroke-linejoin="round" d=" M 559.413, 659.676 559.413, 669.676 559.413, 679.676 559.413, 689.676 559.413, 699.676 559.413, 709.676 559.413, 719.676 559.413, 729.676 559.413, 739.676 559.413, 749.676 559.413, 759.676 559.413, 769.675 559.413, 779.675 559.413, 789.676 559.413, 796.445 559.553, 796.445 559.969, 796.445 560.643, 796.445 561.550, 796.445 562.655, 796.445 563.916, 796.445 565.285, 796.445 566.708, 796.445 568.131, 796.445 569.499, 796.445 570.760, 796.445 571.865, 796.445 572.773, 796.445 573.447, 796.445 573.862, 796.445 574.002, 796.445 574.002, 786.445 574.002, 776.445 574.002, 766.444 574.002, 756.444 574.002, 746.444 574.002, 736.444 574.002, 726.444 574.002, 716.444 574.002, 706.444 574.002, 696.444 574.002, 686.444 574.002, 676.444 574.002, 666.444 574.002, 659.676 " />
            <path fill="none" stroke-width="1.5" stroke-linecap="round" stroke-opacity="1.0" stroke="rgb(0, 0, 0)" stroke-linejoin="round" d=" M 449.998, 659.676 449.998, 669.676 449.998, 679.676 449.998, 689.676 449.998, 699.676 449.998, 709.676 449.998, 719.676 449.998, 729.676 449.998, 739.676 449.998, 749.676 449.998, 759.676 449.998, 769.675 449.998, 779.675 449.998, 789.676 449.998, 796.445 450.138, 796.445 450.553, 796.445 451.227, 796.445 452.135, 796.445 453.240, 796.445 454.501, 796.445 455.869, 796.445 457.292, 796.445 458.715, 796.445 460.084, 796.445 461.345, 796.445 462.450, 796.445 463.357, 796.445 464.031, 796.445 464.447, 796.445 464.587, 796.445 464.587, 786.445 464.587, 776.445 464.587, 766.444 464.587, 756.444 464.587, 746.444 464.587, 736.444 464.587, 726.444 464.587, 716.444 464.587, 706.444 464.587, 696.444 464.587, 686.444 464.587, 676.444 464.587, 666.444 464.587, 659.676 " />
            <path fill="none" stroke-width="1.5" stroke-linecap="round" stroke-opacity="1.0" stroke="rgb(0, 0, 0)" stroke-linejoin="round" d=" M 504.706, 659.676 504.706, 669.676 504.706, 679.676 504.706, 689.676 504.706, 699.676 504.706, 709.676 504.706, 719.676 504.706, 729.676 504.706, 739.676 504.706, 749.676 504.706, 759.676 504.706, 769.675 504.706, 779.675 504.706, 789.676 504.706, 796.445 504.846, 796.445 505.261, 796.445 505.935, 796.445 506.842, 796.445 507.947, 796.445 509.209, 796.445 510.577, 796.445 512.000, 796.445 513.423, 796.445 514.791, 796.445 516.053, 796.445 517.158, 796.445 518.065, 796.445 518.739, 796.445 519.154, 796.445 519.294, 796.445 519.294, 786.445 519.294, 776.445 519.294, 766.444 519.294, 756.444 519.294, 746.444 519.294, 736.444 519.294, 726.444 519.294, 716.444 519.294, 706.444 519.294, 696.444 519.294, 686.444 519.294, 676.444 519.294, 666.444 519.294, 659.676 " />
            <path fill="none" stroke-width="1.5" stroke-linecap="round" stroke-opacity="1.0" stroke="rgb(0, 0, 0)" stroke-linejoin="round" d=" M 402.585, 431.727 402.585, 441.727 402.585, 451.727 402.585, 461.727 402.585, 468.199 402.585, 468.199 402.585, 478.199 402.585, 488.199 402.585, 498.199 402.585, 504.671 402.585, 504.671 402.585, 514.671 402.585, 524.671 402.585, 526.484 " />
            <path fill="none" stroke-width="1.5" stroke-linecap="round" stroke-opacity="1.0" stroke="rgb(0, 0, 0)" stroke-linejoin="round" d=" M 621.415, 504.671 621.415, 504.671 621.415, 494.671 621.415, 484.671 621.415, 474.671 621.415, 468.199 621.415, 468.199 621.415, 458.199 621.415, 448.199 621.415, 438.199 621.415, 431.727 " />
            <path fill="none" stroke-width="1.5" stroke-linecap="round" stroke-opacity="1.0" stroke="rgb(0, 0, 0)" stroke-linejoin="round" d=" M 621.415, 504.671 631.415, 504.671 641.415, 504.671 651.415, 504.671 657.887, 504.671 " />
        </g>
    </g>
    <g id="ViewLayer_TechnicalLines.004" xmlns:inkscape="http://www.inkscape.org/namespaces/inkscape" inkscape:groupmode="lineset" inkscape:label="ViewLayer_TechnicalLines.004">
        <g xmlns:inkscape="http://www.inkscape.org/namespaces/inkscape" inkscape:groupmode="layer" id="strokes" inkscape:label="strokes">
            <path fill="none" stroke-width="1.5" stroke-linecap="round" stroke-opacity="1.0" stroke="rgb(0, 0, 0)" stroke-linejoin="round" d=" M 519.294, 659.676 526.231, 659.676 536.231, 659.676 539.914, 659.676 549.914, 659.676 552.525, 659.676 559.413, 659.676 563.579, 659.676 572.650, 659.676 574.002, 659.676 579.391, 659.676 583.542, 659.676 584.943, 659.676 584.943, 650.558 " />
            <path fill="none" stroke-width="1.5" stroke-linecap="round" stroke-opacity="1.0" stroke="rgb(0, 0, 0)" stroke-linejoin="round" d=" M 504.706, 659.676 512.000, 659.676 519.294, 659.676 " />
            <path fill="none" stroke-width="1.5" stroke-linecap="round" stroke-opacity="1.0" stroke="rgb(0, 0, 0)" stroke-linejoin="round" d=" M 439.057, 650.558 439.057, 659.676 440.458, 659.676 444.609, 659.676 449.998, 659.676 451.350, 659.676 460.421, 659.676 464.587, 659.676 471.475, 659.676 481.475, 659.676 484.086, 659.676 494.086, 659.676 497.769, 659.676 504.706, 659.676 " />
            <path fill="none" stroke-width="1.5" stroke-linecap="round" stroke-opacity="1.0" stroke="rgb(0, 0, 0)" stroke-linejoin="round" d=" M 402.585, 504.671 402.585, 514.671 402.585, 524.671 402.585, 526.484 402.585, 536.484 402.585, 546.484 402.585, 556.483 402.585, 566.483 402.585, 576.483 402.585, 586.483 402.585, 596.483 402.585, 606.483 402.585, 616.484 402.585, 626.483 402.585, 636.483 402.585, 646.483 402.585, 650.558 412.585, 650.558 422.585, 650.558 432.585, 650.558 439.057, 650.558 449.057, 650.558 459.057, 650.558 469.057, 650.558 479.057, 650.558 489.057, 650.558 499.057, 650.558 509.057, 650.558 519.057, 650.558 529.057, 650.558 539.057, 650.558 549.057, 650.558 559.057, 650.558 569.057, 650.558 579.057, 650.558 584.943, 650.558 594.943, 650.558 604.943, 650.558 614.943, 650.558 621.415, 650.558 621.415, 640.558 621.415, 630.558 621.415, 620.558 621.415, 610.558 621.415, 600.558 621.415, 590.558 621.415, 580.558 621.415, 570.558 621.415, 560.558 621.415, 550.558 621.415, 540.558 621.415, 530.558 621.415, 520.558 621.415, 510.558 621.415, 504.671 " />
            <path fill="none" stroke-width="1.5" stroke-linecap="round" stroke-opacity="1.0" stroke="rgb(0, 0, 0)" stroke-linejoin="round" d=" M 621.415, 431.727 621.415, 421.727 621.415, 417.068 621.415, 407.068 621.415, 397.068 621.415, 387.068 621.415, 377.068 621.415, 367.068 621.415, 357.068 621.415, 347.068 621.415, 337.068 621.415, 327.068 621.415, 317.068 621.415, 307.068 621.415, 297.068 621.415, 287.068 621.415, 277.068 621.415, 267.068 621.415, 257.068 621.415, 247.068 621.415, 237.068 621.415, 227.556 611.415, 227.556 601.415, 227.556 591.415, 227.556 581.415, 227.556 571.415, 227.556 561.415, 227.556 551.415, 227.556 541.415, 227.556 531.415, 227.556 521.415, 227.556 511.415, 227.556 501.415, 227.556 491.415, 227.556 481.415, 227.556 471.415, 227.556 461.415, 227.556 451.415, 227.556 441.415, 227.556 431.415, 227.556 421.415, 227.556 411.415, 227.556 402.585, 227.556 402.585, 237.556 402.585, 247.556 402.585, 257.556 402.585, 267.556 402.585, 277.556 402.585, 287.556 402.585, 297.556 402.585, 307.556 402.585, 317.556 402.585, 327.556 402.585, 337.556 402.585, 347.556 402.585, 357.556 402.585, 367.556 402.585, 377.556 402.585, 387.556 402.585, 397.556 402.585, 407.556 402.585, 417.068 402.585, 427.068 402.585, 431.727 " />
            <path fill="none" stroke-width="1.5" stroke-linecap="round" stroke-opacity="1.0" stroke="rgb(0, 0, 0)" stroke-linejoin="round" d=" M 402.585, 417.068 412.585, 417.068 422.585, 417.068 432.585, 417.068 442.585, 417.068 452.585, 417.068 462.585, 417.068 472.585, 417.068 482.585, 417.068 492.585, 417.068 502.585, 417.068 512.585, 417.068 522.585, 417.068 532.585, 417.068 542.585, 417.068 552.585, 417.068 562.585, 417.068 572.585, 417.068 582.585, 417.068 592.585, 417.068 602.585, 417.068 612.585, 417.068 621.415, 417.068 " />
            <path fill="none" stroke-width="1.5" stroke-linecap="round" stroke-opacity="1.0" stroke="rgb(0, 0, 0)" stroke-linejoin="round" d=" M 402.585, 468.199 392.585, 468.199 382.585, 468.199 372.585, 468.199 366.113, 468.199 366.113, 478.199 366.113, 488.199 366.113, 498.199 366.113, 504.671 366.113, 504.671 376.113, 504.671 386.113, 504.671 396.113, 504.671 402.585, 504.671 " />
            <path fill="none" stroke-width="1.5" stroke-linecap="round" stroke-opacity="1.0" stroke="rgb(0, 0, 0)" stroke-linejoin="round" d=" M 366.113, 504.671 376.113, 504.671 386.113, 504.671 396.113, 504.671 402.585, 504.671 " />
            <path fill="none" stroke-width="1.5" stroke-linecap="round" stroke-opacity="1.0" stroke="rgb(0, 0, 0)" stroke-linejoin="round" d=" M 621.415, 504.671 631.415, 504.671 641.415, 504.671 651.415, 504.671 657.887, 504.671 657.887, 504.671 657.887, 494.671 657.887, 484.671 657.887, 474.671 657.887, 468.199 657.887, 468.199 647.887, 468.199 637.887, 468.199 627.887, 468.199 621.415, 468.199 " />
            <path fill="none" stroke-width="1.5" stroke-linecap="round" stroke-opacity="1.0" stroke="rgb(0, 0, 0)" stroke-linejoin="round" d=" M 559.413, 659.676 559.413, 669.676 559.413, 679.676 559.413, 689.676 559.413, 699.676 559.413, 709.676 559.413, 719.676 559.413, 729.676 559.413, 739.676 559.413, 749.676 559.413, 759.676 559.413, 769.675 559.413, 779.675 559.413, 789.676 559.413, 796.445 559.553, 796.445 559.969, 796.445 560.643, 796.445 561.550, 796.445 562.655, 796.445 563.916, 796.445 565.285, 796.445 566.708, 796.445 568.131, 796.445 569.499, 796.445 570.760, 796.445 571.865, 796.445 572.773, 796.445 573.447, 796.445 573.862, 796.445 574.002, 796.445 574.002, 786.445 574.002, 776.445 574.002, 766.444 574.002, 756.444 574.002, 746.444 574.002, 736.444 574.002, 726.444 574.002, 716.444 574.002, 706.444 574.002, 696.444 574.002, 686.444 574.002, 676.444 574.002, 666.444 574.002, 659.676 " />
            <path fill="none" stroke-width="1.5" stroke-linecap="round" stroke-opacity="1.0" stroke="rgb(0, 0, 0)" stroke-linejoin="round" d=" M 449.998, 659.676 449.998, 669.676 449.998, 679.676 449.998, 689.676 449.998, 699.676 449.998, 709.676 449.998, 719.676 449.998, 729.676 449.998, 739.676 449.998, 749.676 449.998, 759.676 449.998, 769.675 449.998, 779.675 449.998, 789.676 449.998, 796.445 450.138, 796.445 450.553, 796.445 451.227, 796.445 452.135, 796.445 453.240, 796.445 454.501, 796.445 455.869, 796.445 457.292, 796.445 458.715, 796.445 460.084, 796.445 461.345, 796.445 462.450, 796.445 463.357, 796.445 464.031, 796.445 464.447, 796.445 464.587, 796.445 464.587, 786.445 464.587, 776.445 464.587, 766.444 464.587, 756.444 464.587, 746.444 464.587, 736.444 464.587, 726.444 464.587, 716.444 464.587, 706.444 464.587, 696.444 464.587, 686.444 464.587, 676.444 464.587, 666.444 464.587, 659.676 " />
            <path fill="none" stroke-width="1.5" stroke-linecap="round" stroke-opacity="1.0" stroke="rgb(0, 0, 0)" stroke-linejoin="round" d=" M 504.706, 659.676 504.706, 669.676 504.706, 679.676 504.706, 689.676 504.706, 699.676 504.706, 709.676 504.706, 719.676 504.706, 729.676 504.706, 739.676 504.706, 749.676 504.706, 759.676 504.706, 769.675 504.706, 779.675 504.706, 789.676 504.706, 796.445 504.846, 796.445 505.261, 796.445 505.935, 796.445 506.842, 796.445 507.947, 796.445 509.209, 796.445 510.577, 796.445 512.000, 796.445 513.423, 796.445 514.791, 796.445 516.053, 796.445 517.158, 796.445 518.065, 796.445 518.739, 796.445 519.154, 796.445 519.294, 796.445 519.294, 786.445 519.294, 776.445 519.294, 766.444 519.294, 756.444 519.294, 746.444 519.294, 736.444 519.294, 726.444 519.294, 716.444 519.294, 706.444 519.294, 696.444 519.294, 686.444 519.294, 676.444 519.294, 666.444 519.294, 659.676 " />
            <path fill="none" stroke-width="1.5" stroke-linecap="round" stroke-opacity="1.0" stroke="rgb(0, 0, 0)" stroke-linejoin="round" d=" M 402.585, 431.727 402.585, 441.727 402.585, 451.727 402.585, 461.727 402.585, 468.199 402.585, 468.199 402.585, 478.199 402.585, 488.199 402.585, 498.199 402.585, 504.671 402.585, 504.671 402.585, 514.671 402.585, 524.671 402.585, 526.484 " />
            <path fill="none" stroke-width="1.5" stroke-linecap="round" stroke-opacity="1.0" stroke="rgb(0, 0, 0)" stroke-linejoin="round" d=" M 621.415, 504.671 621.415, 504.671 621.415, 494.671 621.415, 484.671 621.415, 474.671 621.415, 468.199 621.415, 468.199 621.415, 458.199 621.415, 448.199 621.415, 438.199 621.415, 431.727 " />
            <path fill="none" stroke-width="1.5" stroke-linecap="round" stroke-opacity="1.0" stroke="rgb(0, 0, 0)" stroke-linejoin="round" d=" M 621.415, 504.671 631.415, 504.671 641.415, 504.671 651.415, 504.671 657.887, 504.671 " />
        </g>
    </g>
</svg>
