<?xml version='1.0' encoding='ascii'?>
<svg xmlns="http://www.w3.org/2000/svg" xmlns:inkscape="http://www.inkscape.org/namespaces/inkscape" version="1.1" width="1024" height="1024">
    <g id="ViewLayer_LineSet" inkscape:groupmode="lineset" inkscape:label="ViewLayer_LineSet">
        <g inkscape:groupmode="layer" id="strokes" inkscape:label="strokes">
            <path fill="none" stroke-width="3.0" stroke-linecap="butt" stroke-opacity="1.0" stroke="rgb(0, 0, 0)" stroke-linejoin="round" d=" M 603.144, 659.676 610.081, 659.676 620.081, 659.676 623.764, 659.676 633.764, 659.676 636.375, 659.676 643.263, 659.676 647.429, 659.676 656.500, 659.676 657.852, 659.676 663.241, 659.676 667.392, 659.676 668.793, 659.676 668.793, 650.558 " />
            <path fill="none" stroke-width="3.0" stroke-linecap="butt" stroke-opacity="1.0" stroke="rgb(0, 0, 0)" stroke-linejoin="round" d=" M 588.556, 659.676 595.850, 659.676 603.144, 659.676 " />
            <path fill="none" stroke-width="3.0" stroke-linecap="butt" stroke-opacity="1.0" stroke="rgb(0, 0, 0)" stroke-linejoin="round" d=" M 522.906, 650.558 522.906, 659.676 524.308, 659.676 528.459, 659.676 533.848, 659.676 535.200, 659.676 544.271, 659.676 548.437, 659.676 555.325, 659.676 565.325, 659.676 567.936, 659.676 577.936, 659.676 581.619, 659.676 588.556, 659.676 " />
            <path fill="none" stroke-width="3.0" stroke-linecap="butt" stroke-opacity="1.0" stroke="rgb(0, 0, 0)" stroke-linejoin="round" d=" M 705.265, 650.558 705.265, 640.558 705.265, 630.558 705.265, 620.558 705.265, 610.558 705.265, 600.558 705.265, 590.558 705.265, 580.558 705.265, 570.558 705.265, 560.558 705.265, 550.558 705.265, 540.558 705.265, 530.558 705.265, 520.558 705.265, 510.558 705.265, 500.558 705.265, 490.558 705.265, 480.558 705.265, 470.558 705.265, 460.558 705.265, 450.558 705.265, 440.558 705.265, 431.727 695.265, 431.727 685.265, 431.727 675.265, 431.727 665.265, 431.727 655.265, 431.727 645.265, 431.727 635.265, 431.727 625.265, 431.727 615.265, 431.727 605.265, 431.727 595.265, 431.727 585.265, 431.727 575.265, 431.727 565.265, 431.727 562.955, 431.727 562.955, 431.727 " />
            <path fill="none" stroke-width="3.0" stroke-linecap="butt" stroke-opacity="1.0" stroke="rgb(0, 0, 0)" stroke-linejoin="round" d=" M 562.955, 431.727 552.955, 431.727 542.955, 431.727 532.955, 431.727 522.955, 431.727 512.955, 431.727 502.955, 431.727 492.955, 431.727 486.435, 431.727 486.435, 441.727 486.435, 451.727 486.435, 461.727 486.435, 471.727 486.435, 481.727 486.435, 491.727 486.435, 501.727 486.435, 511.727 486.435, 513.890 " />
            <path fill="none" stroke-width="3.0" stroke-linecap="butt" stroke-opacity="1.0" stroke="rgb(0, 0, 0)" stroke-linejoin="round" d=" M 486.435, 513.890 486.435, 513.890 486.435, 523.890 486.435, 533.890 486.435, 543.890 486.435, 553.890 486.435, 563.890 486.435, 573.890 486.435, 583.890 486.435, 593.890 486.435, 603.890 486.435, 613.890 486.435, 623.890 486.435, 633.890 486.435, 643.890 486.435, 650.558 496.435, 650.558 506.435, 650.558 516.435, 650.558 522.906, 650.558 532.906, 650.558 542.906, 650.558 552.906, 650.558 562.906, 650.558 572.906, 650.558 582.906, 650.558 592.906, 650.558 602.906, 650.558 612.906, 650.558 622.906, 650.558 632.906, 650.558 642.906, 650.558 652.906, 650.558 662.906, 650.558 668.793, 650.558 678.793, 650.558 688.793, 650.558 698.793, 650.558 705.265, 650.558 " />
            <path fill="none" stroke-width="3.0" stroke-linecap="butt" stroke-opacity="1.0" stroke="rgb(0, 0, 0)" stroke-linejoin="round" d=" M 318.735, 417.068 318.735, 417.068 " />
            <path fill="none" stroke-width="3.0" stroke-linecap="butt" stroke-opacity="1.0" stroke="rgb(0, 0, 0)" stroke-linejoin="round" d=" M 318.735, 417.068 318.735, 417.068 327.395, 422.068 336.055, 427.068 344.716, 432.068 353.376, 437.068 362.036, 442.068 370.696, 447.068 379.357, 452.068 388.017, 457.068 396.677, 462.068 405.337, 467.068 413.998, 472.068 422.658, 477.068 431.318, 482.068 439.978, 487.068 448.639, 492.068 457.299, 497.068 465.959, 502.068 474.620, 507.068 483.280, 512.068 486.435, 513.890 " />
            <path fill="none" stroke-width="3.0" stroke-linecap="butt" stroke-opacity="1.0" stroke="rgb(0, 0, 0)" stroke-linejoin="round" d=" M 562.955, 431.727 567.955, 423.067 572.955, 414.407 577.955, 405.746 582.955, 397.086 587.955, 388.426 592.955, 379.766 597.955, 371.105 602.955, 362.445 607.955, 353.785 612.955, 345.125 617.663, 336.971 617.663, 336.971 " />
            <path fill="none" stroke-width="3.0" stroke-linecap="butt" stroke-opacity="1.0" stroke="rgb(0, 0, 0)" stroke-linejoin="round" d=" M 508.248, 526.484 513.248, 517.823 518.248, 509.163 523.248, 500.503 528.248, 491.842 533.248, 483.182 538.248, 474.522 543.248, 465.862 548.248, 457.201 553.248, 448.541 558.248, 439.881 562.955, 431.727 " />
            <path fill="none" stroke-width="3.0" stroke-linecap="butt" stroke-opacity="1.0" stroke="rgb(0, 0, 0)" stroke-linejoin="round" d=" M 562.955, 431.727 567.955, 423.067 572.955, 414.407 577.955, 405.746 582.955, 397.086 587.955, 388.426 592.955, 379.766 597.955, 371.105 602.955, 362.445 607.955, 353.785 612.955, 345.125 617.663, 336.971 617.663, 336.971 609.003, 331.971 600.342, 326.971 591.682, 321.971 583.022, 316.971 574.362, 311.971 565.701, 306.971 557.041, 301.971 548.381, 296.971 539.721, 291.971 531.060, 286.971 522.400, 281.971 513.740, 276.971 505.080, 271.971 496.419, 266.971 487.759, 261.971 479.099, 256.971 470.439, 251.971 461.778, 246.971 453.118, 241.971 444.458, 236.971 435.797, 231.971 428.150, 227.556 " />
            <path fill="none" stroke-width="3.0" stroke-linecap="butt" stroke-opacity="1.0" stroke="rgb(0, 0, 0)" stroke-linejoin="round" d=" M 428.150, 227.556 423.150, 236.216 418.150, 244.876 413.150, 253.536 408.150, 262.197 403.150, 270.857 398.150, 279.517 393.150, 288.177 388.150, 296.838 383.150, 305.498 378.150, 314.158 373.150, 322.818 368.150, 331.479 363.150, 340.139 358.150, 348.799 353.150, 357.459 348.150, 366.120 343.150, 374.780 338.150, 383.440 333.150, 392.100 328.150, 400.761 323.150, 409.421 318.735, 417.068 318.735, 417.068 327.395, 422.068 336.055, 427.068 344.716, 432.068 353.376, 437.068 362.036, 442.068 370.696, 447.068 379.357, 452.068 388.017, 457.068 396.677, 462.068 405.337, 467.068 413.998, 472.068 422.658, 477.068 431.318, 482.068 439.978, 487.068 448.639, 492.068 457.299, 497.068 465.959, 502.068 474.620, 507.068 483.280, 512.068 486.435, 513.890 " />
            <path fill="none" stroke-width="3.0" stroke-linecap="butt" stroke-opacity="1.0" stroke="rgb(0, 0, 0)" stroke-linejoin="round" d=" M 614.086, 504.671 614.086, 494.671 614.086, 484.671 614.086, 474.671 614.086, 468.199 614.086, 468.199 614.086, 468.199 614.086, 468.199 604.086, 468.199 594.086, 468.199 584.086, 468.199 577.614, 468.199 577.614, 478.199 577.614, 488.199 577.614, 498.199 577.614, 504.671 577.614, 504.671 577.614, 504.671 577.614, 504.671 587.614, 504.671 597.614, 504.671 607.614, 504.671 614.086, 504.671 " />
            <path fill="none" stroke-width="3.0" stroke-linecap="butt" stroke-opacity="1.0" stroke="rgb(0, 0, 0)" stroke-linejoin="round" d=" M 614.086, 468.199 614.086, 468.199 614.086, 478.199 614.086, 488.199 614.086, 498.199 614.086, 504.671 " />
            <path fill="none" stroke-width="3.0" stroke-linecap="butt" stroke-opacity="1.0" stroke="rgb(0, 0, 0)" stroke-linejoin="round" d=" M 577.614, 504.671 577.614, 504.671 587.614, 504.671 597.614, 504.671 607.614, 504.671 614.086, 504.671 614.086, 504.671 " />
            <path fill="none" stroke-width="3.0" stroke-linecap="butt" stroke-opacity="1.0" stroke="rgb(0, 0, 0)" stroke-linejoin="round" d=" M 588.556, 659.676 588.556, 669.676 588.556, 679.676 588.556, 689.676 588.556, 699.676 588.556, 709.676 588.556, 719.676 588.556, 729.676 588.556, 739.676 588.556, 749.676 588.556, 759.676 588.556, 769.675 588.556, 779.675 588.556, 789.676 588.556, 796.445 588.696, 796.445 589.111, 796.445 589.785, 796.445 590.692, 796.445 591.797, 796.445 593.059, 796.445 594.427, 796.445 595.850, 796.445 597.273, 796.445 598.641, 796.445 599.902, 796.445 601.008, 796.445 601.915, 796.445 602.589, 796.445 603.004, 796.445 603.144, 796.445 603.144, 786.445 603.144, 776.445 603.144, 766.444 603.144, 756.444 603.144, 746.444 603.144, 736.444 603.144, 726.444 603.144, 716.444 603.144, 706.444 603.144, 696.444 603.144, 686.444 603.144, 676.444 603.144, 666.444 603.144, 659.676 " />
            <path fill="none" stroke-width="3.0" stroke-linecap="butt" stroke-opacity="1.0" stroke="rgb(0, 0, 0)" stroke-linejoin="round" d=" M 643.263, 659.676 643.263, 669.676 643.263, 679.676 643.263, 689.676 643.263, 699.676 643.263, 709.676 643.263, 719.676 643.263, 729.676 643.263, 739.676 643.263, 749.676 643.263, 759.676 643.263, 769.675 643.263, 779.675 643.263, 789.676 643.263, 796.445 643.403, 796.445 643.818, 796.445 644.492, 796.445 645.400, 796.445 646.505, 796.445 647.766, 796.445 649.134, 796.445 650.558, 796.445 651.981, 796.445 653.349, 796.445 654.610, 796.445 655.715, 796.445 656.623, 796.445 657.297, 796.445 657.712, 796.445 657.852, 796.445 657.852, 786.445 657.852, 776.445 657.852, 766.444 657.852, 756.444 657.852, 746.444 657.852, 736.444 657.852, 726.444 657.852, 716.444 657.852, 706.444 657.852, 696.444 657.852, 686.444 657.852, 676.444 657.852, 666.444 657.852, 659.676 " />
            <path fill="none" stroke-width="3.0" stroke-linecap="butt" stroke-opacity="1.0" stroke="rgb(0, 0, 0)" stroke-linejoin="round" d=" M 533.848, 659.676 533.848, 669.676 533.848, 679.676 533.848, 689.676 533.848, 699.676 533.848, 709.676 533.848, 719.676 533.848, 729.676 533.848, 739.676 533.848, 749.676 533.848, 759.676 533.848, 769.675 533.848, 779.675 533.848, 789.676 533.848, 796.445 533.988, 796.445 534.403, 796.445 535.077, 796.445 535.984, 796.445 537.090, 796.445 538.351, 796.445 539.719, 796.445 541.142, 796.445 542.565, 796.445 543.934, 796.445 545.195, 796.445 546.300, 796.445 547.207, 796.445 547.881, 796.445 548.297, 796.445 548.437, 796.445 548.437, 786.445 548.437, 776.445 548.437, 766.444 548.437, 756.444 548.437, 746.444 548.437, 736.444 548.437, 726.444 548.437, 716.444 548.437, 706.444 548.437, 696.444 548.437, 686.444 548.437, 676.444 548.437, 666.444 548.437, 659.676 " />
            <path fill="none" stroke-width="3.0" stroke-linecap="butt" stroke-opacity="1.0" stroke="rgb(0, 0, 0)" stroke-linejoin="round" d=" M 486.435, 513.890 495.095, 518.890 503.755, 523.890 508.248, 526.484 " />
            <path fill="none" stroke-width="3.0" stroke-linecap="butt" stroke-opacity="1.0" stroke="rgb(0, 0, 0)" stroke-linejoin="round" d=" M 617.663, 336.971 617.663, 336.971 " />
        </g>
    </g>
    <g id="ViewLayer_TechnicalLines" inkscape:groupmode="lineset" inkscape:label="ViewLayer_TechnicalLines">
        <g inkscape:groupmode="layer" id="strokes" inkscape:label="strokes">
            <path fill="none" stroke-width="3.0" stroke-linecap="butt" stroke-opacity="1.0" stroke="rgb(0, 0, 0)" stroke-linejoin="round" d=" M 603.144, 659.676 610.081, 659.676 620.081, 659.676 623.764, 659.676 633.764, 659.676 636.375, 659.676 643.263, 659.676 647.429, 659.676 656.500, 659.676 657.852, 659.676 663.241, 659.676 667.392, 659.676 668.793, 659.676 668.793, 650.558 " />
            <path fill="none" stroke-width="3.0" stroke-linecap="butt" stroke-opacity="1.0" stroke="rgb(0, 0, 0)" stroke-linejoin="round" d=" M 588.556, 659.676 595.850, 659.676 603.144, 659.676 " />
            <path fill="none" stroke-width="3.0" stroke-linecap="butt" stroke-opacity="1.0" stroke="rgb(0, 0, 0)" stroke-linejoin="round" d=" M 522.906, 650.558 522.906, 659.676 524.308, 659.676 528.459, 659.676 533.848, 659.676 535.200, 659.676 544.271, 659.676 548.437, 659.676 555.325, 659.676 565.325, 659.676 567.936, 659.676 577.936, 659.676 581.619, 659.676 588.556, 659.676 " />
            <path fill="none" stroke-width="3.0" stroke-linecap="butt" stroke-opacity="1.0" stroke="rgb(0, 0, 0)" stroke-linejoin="round" d=" M 705.265, 650.558 705.265, 640.558 705.265, 630.558 705.265, 620.558 705.265, 610.558 705.265, 600.558 705.265, 590.558 705.265, 580.558 705.265, 570.558 705.265, 560.558 705.265, 550.558 705.265, 540.558 705.265, 530.558 705.265, 520.558 705.265, 510.558 705.265, 500.558 705.265, 490.558 705.265, 480.558 705.265, 470.558 705.265, 460.558 705.265, 450.558 705.265, 440.558 705.265, 431.727 695.265, 431.727 685.265, 431.727 675.265, 431.727 665.265, 431.727 655.265, 431.727 645.265, 431.727 635.265, 431.727 625.265, 431.727 615.265, 431.727 605.265, 431.727 595.265, 431.727 585.265, 431.727 575.265, 431.727 565.265, 431.727 562.955, 431.727 562.955, 431.727 " />
            <path fill="none" stroke-width="3.0" stroke-linecap="butt" stroke-opacity="1.0" stroke="rgb(0, 0, 0)" stroke-linejoin="round" d=" M 562.955, 431.727 552.955, 431.727 542.955, 431.727 532.955, 431.727 522.955, 431.727 512.955, 431.727 502.955, 431.727 492.955, 431.727 486.435, 431.727 486.435, 441.727 486.435, 451.727 486.435, 461.727 486.435, 471.727 486.435, 481.727 486.435, 491.727 486.435, 501.727 486.435, 511.727 486.435, 513.890 " />
            <path fill="none" stroke-width="3.0" stroke-linecap="butt" stroke-opacity="1.0" stroke="rgb(0, 0, 0)" stroke-linejoin="round" d=" M 486.435, 513.890 486.435, 513.890 486.435, 523.890 486.435, 533.890 486.435, 543.890 486.435, 553.890 486.435, 563.890 486.435, 573.890 486.435, 583.890 486.435, 593.890 486.435, 603.890 486.435, 613.890 486.435, 623.890 486.435, 633.890 486.435, 643.890 486.435, 650.558 496.435, 650.558 506.435, 650.558 516.435, 650.558 522.906, 650.558 532.906, 650.558 542.906, 650.558 552.906, 650.558 562.906, 650.558 572.906, 650.558 582.906, 650.558 592.906, 650.558 602.906, 650.558 612.906, 650.558 622.906, 650.558 632.906, 650.558 642.906, 650.558 652.906, 650.558 662.906, 650.558 668.793, 650.558 678.793, 650.558 688.793, 650.558 698.793, 650.558 705.265, 650.558 " />
            <path fill="none" stroke-width="3.0" stroke-linecap="butt" stroke-opacity="1.0" stroke="rgb(0, 0, 0)" stroke-linejoin="round" d=" M 318.735, 417.068 318.735, 417.068 " />
            <path fill="none" stroke-width="3.0" stroke-linecap="butt" stroke-opacity="1.0" stroke="rgb(0, 0, 0)" stroke-linejoin="round" d=" M 318.735, 417.068 318.735, 417.068 327.395, 422.068 336.055, 427.068 344.716, 432.068 353.376, 437.068 362.036, 442.068 370.696, 447.068 379.357, 452.068 388.017, 457.068 396.677, 462.068 405.337, 467.068 413.998, 472.068 422.658, 477.068 431.318, 482.068 439.978, 487.068 448.639, 492.068 457.299, 497.068 465.959, 502.068 474.620, 507.068 483.280, 512.068 486.435, 513.890 " />
            <path fill="none" stroke-width="3.0" stroke-linecap="butt" stroke-opacity="1.0" stroke="rgb(0, 0, 0)" stroke-linejoin="round" d=" M 562.955, 431.727 567.955, 423.067 572.955, 414.407 577.955, 405.746 582.955, 397.086 587.955, 388.426 592.955, 379.766 597.955, 371.105 602.955, 362.445 607.955, 353.785 612.955, 345.125 617.663, 336.971 617.663, 336.971 " />
            <path fill="none" stroke-width="3.0" stroke-linecap="butt" stroke-opacity="1.0" stroke="rgb(0, 0, 0)" stroke-linejoin="round" d=" M 508.248, 526.484 513.248, 517.823 518.248, 509.163 523.248, 500.503 528.248, 491.842 533.248, 483.182 538.248, 474.522 543.248, 465.862 548.248, 457.201 553.248, 448.541 558.248, 439.881 562.955, 431.727 " />
            <path fill="none" stroke-width="3.0" stroke-linecap="butt" stroke-opacity="1.0" stroke="rgb(0, 0, 0)" stroke-linejoin="round" d=" M 562.955, 431.727 567.955, 423.067 572.955, 414.407 577.955, 405.746 582.955, 397.086 587.955, 388.426 592.955, 379.766 597.955, 371.105 602.955, 362.445 607.955, 353.785 612.955, 345.125 617.663, 336.971 617.663, 336.971 609.003, 331.971 600.342, 326.971 591.682, 321.971 583.022, 316.971 574.362, 311.971 565.701, 306.971 557.041, 301.971 548.381, 296.971 539.721, 291.971 531.060, 286.971 522.400, 281.971 513.740, 276.971 505.080, 271.971 496.419, 266.971 487.759, 261.971 479.099, 256.971 470.439, 251.971 461.778, 246.971 453.118, 241.971 444.458, 236.971 435.797, 231.971 428.150, 227.556 " />
            <path fill="none" stroke-width="3.0" stroke-linecap="butt" stroke-opacity="1.0" stroke="rgb(0, 0, 0)" stroke-linejoin="round" d=" M 428.150, 227.556 423.150, 236.216 418.150, 244.876 413.150, 253.536 408.150, 262.197 403.150, 270.857 398.150, 279.517 393.150, 288.177 388.150, 296.838 383.150, 305.498 378.150, 314.158 373.150, 322.818 368.150, 331.479 363.150, 340.139 358.150, 348.799 353.150, 357.459 348.150, 366.120 343.150, 374.780 338.150, 383.440 333.150, 392.100 328.150, 400.761 323.150, 409.421 318.735, 417.068 318.735, 417.068 327.395, 422.068 336.055, 427.068 344.716, 432.068 353.376, 437.068 362.036, 442.068 370.696, 447.068 379.357, 452.068 388.017, 457.068 396.677, 462.068 405.337, 467.068 413.998, 472.068 422.658, 477.068 431.318, 482.068 439.978, 487.068 448.639, 492.068 457.299, 497.068 465.959, 502.068 474.620, 507.068 483.280, 512.068 486.435, 513.890 " />
            <path fill="none" stroke-width="3.0" stroke-linecap="butt" stroke-opacity="1.0" stroke="rgb(0, 0, 0)" stroke-linejoin="round" d=" M 614.086, 504.671 614.086, 494.671 614.086, 484.671 614.086, 474.671 614.086, 468.199 614.086, 468.199 614.086, 468.199 614.086, 468.199 604.086, 468.199 594.086, 468.199 584.086, 468.199 577.614, 468.199 577.614, 478.199 577.614, 488.199 577.614, 498.199 577.614, 504.671 577.614, 504.671 577.614, 504.671 577.614, 504.671 587.614, 504.671 597.614, 504.671 607.614, 504.671 614.086, 504.671 " />
            <path fill="none" stroke-width="3.0" stroke-linecap="butt" stroke-opacity="1.0" stroke="rgb(0, 0, 0)" stroke-linejoin="round" d=" M 614.086, 468.199 614.086, 468.199 614.086, 478.199 614.086, 488.199 614.086, 498.199 614.086, 504.671 " />
            <path fill="none" stroke-width="3.0" stroke-linecap="butt" stroke-opacity="1.0" stroke="rgb(0, 0, 0)" stroke-linejoin="round" d=" M 577.614, 504.671 577.614, 504.671 587.614, 504.671 597.614, 504.671 607.614, 504.671 614.086, 504.671 614.086, 504.671 " />
            <path fill="none" stroke-width="3.0" stroke-linecap="butt" stroke-opacity="1.0" stroke="rgb(0, 0, 0)" stroke-linejoin="round" d=" M 588.556, 659.676 588.556, 669.676 588.556, 679.676 588.556, 689.676 588.556, 699.676 588.556, 709.676 588.556, 719.676 588.556, 729.676 588.556, 739.676 588.556, 749.676 588.556, 759.676 588.556, 769.675 588.556, 779.675 588.556, 789.676 588.556, 796.445 588.696, 796.445 589.111, 796.445 589.785, 796.445 590.692, 796.445 591.797, 796.445 593.059, 796.445 594.427, 796.445 595.850, 796.445 597.273, 796.445 598.641, 796.445 599.902, 796.445 601.008, 796.445 601.915, 796.445 602.589, 796.445 603.004, 796.445 603.144, 796.445 603.144, 786.445 603.144, 776.445 603.144, 766.444 603.144, 756.444 603.144, 746.444 603.144, 736.444 603.144, 726.444 603.144, 716.444 603.144, 706.444 603.144, 696.444 603.144, 686.444 603.144, 676.444 603.144, 666.444 603.144, 659.676 " />
            <path fill="none" stroke-width="3.0" stroke-linecap="butt" stroke-opacity="1.0" stroke="rgb(0, 0, 0)" stroke-linejoin="round" d=" M 643.263, 659.676 643.263, 669.676 643.263, 679.676 643.263, 689.676 643.263, 699.676 643.263, 709.676 643.263, 719.676 643.263, 729.676 643.263, 739.676 643.263, 749.676 643.263, 759.676 643.263, 769.675 643.263, 779.675 643.263, 789.676 643.263, 796.445 643.403, 796.445 643.818, 796.445 644.492, 796.445 645.400, 796.445 646.505, 796.445 647.766, 796.445 649.134, 796.445 650.558, 796.445 651.981, 796.445 653.349, 796.445 654.610, 796.445 655.715, 796.445 656.623, 796.445 657.297, 796.445 657.712, 796.445 657.852, 796.445 657.852, 786.445 657.852, 776.445 657.852, 766.444 657.852, 756.444 657.852, 746.444 657.852, 736.444 657.852, 726.444 657.852, 716.444 657.852, 706.444 657.852, 696.444 657.852, 686.444 657.852, 676.444 657.852, 666.444 657.852, 659.676 " />
            <path fill="none" stroke-width="3.0" stroke-linecap="butt" stroke-opacity="1.0" stroke="rgb(0, 0, 0)" stroke-linejoin="round" d=" M 533.848, 659.676 533.848, 669.676 533.848, 679.676 533.848, 689.676 533.848, 699.676 533.848, 709.676 533.848, 719.676 533.848, 729.676 533.848, 739.676 533.848, 749.676 533.848, 759.676 533.848, 769.675 533.848, 779.675 533.848, 789.676 533.848, 796.445 533.988, 796.445 534.403, 796.445 535.077, 796.445 535.984, 796.445 537.090, 796.445 538.351, 796.445 539.719, 796.445 541.142, 796.445 542.565, 796.445 543.934, 796.445 545.195, 796.445 546.300, 796.445 547.207, 796.445 547.881, 796.445 548.297, 796.445 548.437, 796.445 548.437, 786.445 548.437, 776.445 548.437, 766.444 548.437, 756.444 548.437, 746.444 548.437, 736.444 548.437, 726.444 548.437, 716.444 548.437, 706.444 548.437, 696.444 548.437, 686.444 548.437, 676.444 548.437, 666.444 548.437, 659.676 " />
            <path fill="none" stroke-width="3.0" stroke-linecap="butt" stroke-opacity="1.0" stroke="rgb(0, 0, 0)" stroke-linejoin="round" d=" M 486.435, 513.890 495.095, 518.890 503.755, 523.890 508.248, 526.484 " />
            <path fill="none" stroke-width="3.0" stroke-linecap="butt" stroke-opacity="1.0" stroke="rgb(0, 0, 0)" stroke-linejoin="round" d=" M 617.663, 336.971 617.663, 336.971 " />
        </g>
    </g>
    <g id="ViewLayer_TechnicalLines.001" inkscape:groupmode="lineset" inkscape:label="ViewLayer_TechnicalLines.001">
        <g inkscape:groupmode="layer" id="strokes" inkscape:label="strokes">
            <path fill="none" stroke-width="1.5" stroke-linecap="round" stroke-opacity="1.0" stroke="rgb(0, 0, 0)" stroke-linejoin="round" d=" M 603.144, 659.676 610.081, 659.676 620.081, 659.676 623.764, 659.676 633.764, 659.676 636.375, 659.676 643.263, 659.676 647.429, 659.676 656.500, 659.676 657.852, 659.676 663.241, 659.676 667.392, 659.676 668.793, 659.676 668.793, 650.558 " />
            <path fill="none" stroke-width="1.5" stroke-linecap="round" stroke-opacity="1.0" stroke="rgb(0, 0, 0)" stroke-linejoin="round" d=" M 588.556, 659.676 595.850, 659.676 603.144, 659.676 " />
            <path fill="none" stroke-width="1.5" stroke-linecap="round" stroke-opacity="1.0" stroke="rgb(0, 0, 0)" stroke-linejoin="round" d=" M 522.906, 650.558 522.906, 659.676 524.308, 659.676 528.459, 659.676 533.848, 659.676 535.200, 659.676 544.271, 659.676 548.437, 659.676 555.325, 659.676 565.325, 659.676 567.936, 659.676 577.936, 659.676 581.619, 659.676 588.556, 659.676 " />
            <path fill="none" stroke-width="1.5" stroke-linecap="round" stroke-opacity="1.0" stroke="rgb(0, 0, 0)" stroke-linejoin="round" d=" M 705.265, 650.558 705.265, 640.558 705.265, 630.558 705.265, 620.558 705.265, 610.558 705.265, 600.558 705.265, 590.558 705.265, 580.558 705.265, 570.558 705.265, 560.558 705.265, 550.558 705.265, 540.558 705.265, 530.558 705.265, 520.558 705.265, 510.558 705.265, 500.558 705.265, 490.558 705.265, 480.558 705.265, 470.558 705.265, 460.558 705.265, 450.558 705.265, 440.558 705.265, 431.727 695.265, 431.727 685.265, 431.727 675.265, 431.727 665.265, 431.727 655.265, 431.727 645.265, 431.727 635.265, 431.727 625.265, 431.727 615.265, 431.727 605.265, 431.727 595.265, 431.727 585.265, 431.727 575.265, 431.727 565.265, 431.727 562.955, 431.727 562.955, 431.727 " />
            <path fill="none" stroke-width="1.5" stroke-linecap="round" stroke-opacity="1.0" stroke="rgb(0, 0, 0)" stroke-linejoin="round" d=" M 562.955, 431.727 552.955, 431.727 542.955, 431.727 532.955, 431.727 522.955, 431.727 512.955, 431.727 502.955, 431.727 492.955, 431.727 486.435, 431.727 486.435, 441.727 486.435, 451.727 486.435, 461.727 486.435, 471.727 486.435, 481.727 486.435, 491.727 486.435, 501.727 486.435, 511.727 486.435, 513.890 " />
            <path fill="none" stroke-width="1.5" stroke-linecap="round" stroke-opacity="1.0" stroke="rgb(0, 0, 0)" stroke-linejoin="round" d=" M 486.435, 513.890 486.435, 513.890 486.435, 523.890 486.435, 533.890 486.435, 543.890 486.435, 553.890 486.435, 563.890 486.435, 573.890 486.435, 583.890 486.435, 593.890 486.435, 603.890 486.435, 613.890 486.435, 623.890 486.435, 633.890 486.435, 643.890 486.435, 650.558 496.435, 650.558 506.435, 650.558 516.435, 650.558 522.906, 650.558 532.906, 650.558 542.906, 650.558 552.906, 650.558 562.906, 650.558 572.906, 650.558 582.906, 650.558 592.906, 650.558 602.906, 650.558 612.906, 650.558 622.906, 650.558 632.906, 650.558 642.906, 650.558 652.906, 650.558 662.906, 650.558 668.793, 650.558 678.793, 650.558 688.793, 650.558 698.793, 650.558 705.265, 650.558 " />
            <path fill="none" stroke-width="1.5" stroke-linecap="round" stroke-opacity="1.0" stroke="rgb(0, 0, 0)" stroke-linejoin="round" d=" M 318.735, 417.068 318.735, 417.068 " />
            <path fill="none" stroke-width="1.5" stroke-linecap="round" stroke-opacity="1.0" stroke="rgb(0, 0, 0)" stroke-linejoin="round" d=" M 318.735, 417.068 318.735, 417.068 327.395, 422.068 336.055, 427.068 344.716, 432.068 353.376, 437.068 362.036, 442.068 370.696, 447.068 379.357, 452.068 388.017, 457.068 396.677, 462.068 405.337, 467.068 413.998, 472.068 422.658, 477.068 431.318, 482.068 439.978, 487.068 448.639, 492.068 457.299, 497.068 465.959, 502.068 474.620, 507.068 483.280, 512.068 486.435, 513.890 " />
            <path fill="none" stroke-width="1.5" stroke-linecap="round" stroke-opacity="1.0" stroke="rgb(0, 0, 0)" stroke-linejoin="round" d=" M 562.955, 431.727 567.955, 423.067 572.955, 414.407 577.955, 405.746 582.955, 397.086 587.955, 388.426 592.955, 379.766 597.955, 371.105 602.955, 362.445 607.955, 353.785 612.955, 345.125 617.663, 336.971 617.663, 336.971 " />
            <path fill="none" stroke-width="1.5" stroke-linecap="round" stroke-opacity="1.0" stroke="rgb(0, 0, 0)" stroke-linejoin="round" d=" M 508.248, 526.484 513.248, 517.823 518.248, 509.163 523.248, 500.503 528.248, 491.842 533.248, 483.182 538.248, 474.522 543.248, 465.862 548.248, 457.201 553.248, 448.541 558.248, 439.881 562.955, 431.727 " />
            <path fill="none" stroke-width="1.5" stroke-linecap="round" stroke-opacity="1.0" stroke="rgb(0, 0, 0)" stroke-linejoin="round" d=" M 562.955, 431.727 567.955, 423.067 572.955, 414.407 577.955, 405.746 582.955, 397.086 587.955, 388.426 592.955, 379.766 597.955, 371.105 602.955, 362.445 607.955, 353.785 612.955, 345.125 617.663, 336.971 617.663, 336.971 609.003, 331.971 600.342, 326.971 591.682, 321.971 583.022, 316.971 574.362, 311.971 565.701, 306.971 557.041, 301.971 548.381, 296.971 539.721, 291.971 531.060, 286.971 522.400, 281.971 513.740, 276.971 505.080, 271.971 496.419, 266.971 487.759, 261.971 479.099, 256.971 470.439, 251.971 461.778, 246.971 453.118, 241.971 444.458, 236.971 435.797, 231.971 428.150, 227.556 " />
            <path fill="none" stroke-width="1.5" stroke-linecap="round" stroke-opacity="1.0" stroke="rgb(0, 0, 0)" stroke-linejoin="round" d=" M 428.150, 227.556 423.150, 236.216 418.150, 244.876 413.150, 253.536 408.150, 262.197 403.150, 270.857 398.150, 279.517 393.150, 288.177 388.150, 296.838 383.150, 305.498 378.150, 314.158 373.150, 322.818 368.150, 331.479 363.150, 340.139 358.150, 348.799 353.150, 357.459 348.150, 366.120 343.150, 374.780 338.150, 383.440 333.150, 392.100 328.150, 400.761 323.150, 409.421 318.735, 417.068 318.735, 417.068 327.395, 422.068 336.055, 427.068 344.716, 432.068 353.376, 437.068 362.036, 442.068 370.696, 447.068 379.357, 452.068 388.017, 457.068 396.677, 462.068 405.337, 467.068 413.998, 472.068 422.658, 477.068 431.318, 482.068 439.978, 487.068 448.639, 492.068 457.299, 497.068 465.959, 502.068 474.620, 507.068 483.280, 512.068 486.435, 513.890 " />
            <path fill="none" stroke-width="1.5" stroke-linecap="round" stroke-opacity="1.0" stroke="rgb(0, 0, 0)" stroke-linejoin="round" d=" M 614.086, 504.671 614.086, 494.671 614.086, 484.671 614.086, 474.671 614.086, 468.199 614.086, 468.199 614.086, 468.199 614.086, 468.199 604.086, 468.199 594.086, 468.199 584.086, 468.199 577.614, 468.199 577.614, 478.199 577.614, 488.199 577.614, 498.199 577.614, 504.671 577.614, 504.671 577.614, 504.671 577.614, 504.671 587.614, 504.671 597.614, 504.671 607.614, 504.671 614.086, 504.671 " />
            <path fill="none" stroke-width="1.5" stroke-linecap="round" stroke-opacity="1.0" stroke="rgb(0, 0, 0)" stroke-linejoin="round" d=" M 614.086, 468.199 614.086, 468.199 614.086, 478.199 614.086, 488.199 614.086, 498.199 614.086, 504.671 " />
            <path fill="none" stroke-width="1.5" stroke-linecap="round" stroke-opacity="1.0" stroke="rgb(0, 0, 0)" stroke-linejoin="round" d=" M 577.614, 504.671 577.614, 504.671 587.614, 504.671 597.614, 504.671 607.614, 504.671 614.086, 504.671 614.086, 504.671 " />
            <path fill="none" stroke-width="1.5" stroke-linecap="round" stroke-opacity="1.0" stroke="rgb(0, 0, 0)" stroke-linejoin="round" d=" M 588.556, 659.676 588.556, 669.676 588.556, 679.676 588.556, 689.676 588.556, 699.676 588.556, 709.676 588.556, 719.676 588.556, 729.676 588.556, 739.676 588.556, 749.676 588.556, 759.676 588.556, 769.675 588.556, 779.675 588.556, 789.676 588.556, 796.445 588.696, 796.445 589.111, 796.445 589.785, 796.445 590.692, 796.445 591.797, 796.445 593.059, 796.445 594.427, 796.445 595.850, 796.445 597.273, 796.445 598.641, 796.445 599.902, 796.445 601.008, 796.445 601.915, 796.445 602.589, 796.445 603.004, 796.445 603.144, 796.445 603.144, 786.445 603.144, 776.445 603.144, 766.444 603.144, 756.444 603.144, 746.444 603.144, 736.444 603.144, 726.444 603.144, 716.444 603.144, 706.444 603.144, 696.444 603.144, 686.444 603.144, 676.444 603.144, 666.444 603.144, 659.676 " />
            <path fill="none" stroke-width="1.5" stroke-linecap="round" stroke-opacity="1.0" stroke="rgb(0, 0, 0)" stroke-linejoin="round" d=" M 643.263, 659.676 643.263, 669.676 643.263, 679.676 643.263, 689.676 643.263, 699.676 643.263, 709.676 643.263, 719.676 643.263, 729.676 643.263, 739.676 643.263, 749.676 643.263, 759.676 643.263, 769.675 643.263, 779.675 643.263, 789.676 643.263, 796.445 643.403, 796.445 643.818, 796.445 644.492, 796.445 645.400, 796.445 646.505, 796.445 647.766, 796.445 649.134, 796.445 650.558, 796.445 651.981, 796.445 653.349, 796.445 654.610, 796.445 655.715, 796.445 656.623, 796.445 657.297, 796.445 657.712, 796.445 657.852, 796.445 657.852, 786.445 657.852, 776.445 657.852, 766.444 657.852, 756.444 657.852, 746.444 657.852, 736.444 657.852, 726.444 657.852, 716.444 657.852, 706.444 657.852, 696.444 657.852, 686.444 657.852, 676.444 657.852, 666.444 657.852, 659.676 " />
            <path fill="none" stroke-width="1.5" stroke-linecap="round" stroke-opacity="1.0" stroke="rgb(0, 0, 0)" stroke-linejoin="round" d=" M 533.848, 659.676 533.848, 669.676 533.848, 679.676 533.848, 689.676 533.848, 699.676 533.848, 709.676 533.848, 719.676 533.848, 729.676 533.848, 739.676 533.848, 749.676 533.848, 759.676 533.848, 769.675 533.848, 779.675 533.848, 789.676 533.848, 796.445 533.988, 796.445 534.403, 796.445 535.077, 796.445 535.984, 796.445 537.090, 796.445 538.351, 796.445 539.719, 796.445 541.142, 796.445 542.565, 796.445 543.934, 796.445 545.195, 796.445 546.300, 796.445 547.207, 796.445 547.881, 796.445 548.297, 796.445 548.437, 796.445 548.437, 786.445 548.437, 776.445 548.437, 766.444 548.437, 756.444 548.437, 746.444 548.437, 736.444 548.437, 726.444 548.437, 716.444 548.437, 706.444 548.437, 696.444 548.437, 686.444 548.437, 676.444 548.437, 666.444 548.437, 659.676 " />
            <path fill="none" stroke-width="1.5" stroke-linecap="round" stroke-opacity="1.0" stroke="rgb(0, 0, 0)" stroke-linejoin="round" d=" M 486.435, 513.890 495.095, 518.890 503.755, 523.890 508.248, 526.484 " />
            <path fill="none" stroke-width="1.5" stroke-linecap="round" stroke-opacity="1.0" stroke="rgb(0, 0, 0)" stroke-linejoin="round" d=" M 617.663, 336.971 617.663, 336.971 " />
        </g>
    </g>
    <g id="ViewLayer_TechnicalLines.002" inkscape:groupmode="lineset" inkscape:label="ViewLayer_TechnicalLines.002">
        <g inkscape:groupmode="layer" id="strokes" inkscape:label="strokes">
            <path fill="none" stroke-width="1.5" stroke-linecap="round" stroke-opacity="1.0" stroke="rgb(0, 0, 0)" stroke-linejoin="round" d=" M 603.144, 659.676 610.081, 659.676 620.081, 659.676 623.764, 659.676 633.764, 659.676 636.375, 659.676 643.263, 659.676 647.429, 659.676 656.500, 659.676 657.852, 659.676 663.241, 659.676 667.392, 659.676 668.793, 659.676 668.793, 650.558 " />
            <path fill="none" stroke-width="1.5" stroke-linecap="round" stroke-opacity="1.0" stroke="rgb(0, 0, 0)" stroke-linejoin="round" d=" M 588.556, 659.676 595.850, 659.676 603.144, 659.676 " />
            <path fill="none" stroke-width="1.5" stroke-linecap="round" stroke-opacity="1.0" stroke="rgb(0, 0, 0)" stroke-linejoin="round" d=" M 522.906, 650.558 522.906, 659.676 524.308, 659.676 528.459, 659.676 533.848, 659.676 535.200, 659.676 544.271, 659.676 548.437, 659.676 555.325, 659.676 565.325, 659.676 567.936, 659.676 577.936, 659.676 581.619, 659.676 588.556, 659.676 " />
            <path fill="none" stroke-width="1.5" stroke-linecap="round" stroke-opacity="1.0" stroke="rgb(0, 0, 0)" stroke-linejoin="round" d=" M 705.265, 650.558 705.265, 640.558 705.265, 630.558 705.265, 620.558 705.265, 610.558 705.265, 600.558 705.265, 590.558 705.265, 580.558 705.265, 570.558 705.265, 560.558 705.265, 550.558 705.265, 540.558 705.265, 530.558 705.265, 520.558 705.265, 510.558 705.265, 500.558 705.265, 490.558 705.265, 480.558 705.265, 470.558 705.265, 460.558 705.265, 450.558 705.265, 440.558 705.265, 431.727 695.265, 431.727 685.265, 431.727 675.265, 431.727 665.265, 431.727 655.265, 431.727 645.265, 431.727 635.265, 431.727 625.265, 431.727 615.265, 431.727 605.265, 431.727 595.265, 431.727 585.265, 431.727 575.265, 431.727 565.265, 431.727 562.955, 431.727 562.955, 431.727 " />
            <path fill="none" stroke-width="1.5" stroke-linecap="round" stroke-opacity="1.0" stroke="rgb(0, 0, 0)" stroke-linejoin="round" d=" M 562.955, 431.727 552.955, 431.727 542.955, 431.727 532.955, 431.727 522.955, 431.727 512.955, 431.727 502.955, 431.727 492.955, 431.727 486.435, 431.727 486.435, 441.727 486.435, 451.727 486.435, 461.727 486.435, 471.727 486.435, 481.727 486.435, 491.727 486.435, 501.727 486.435, 511.727 486.435, 513.890 " />
            <path fill="none" stroke-width="1.5" stroke-linecap="round" stroke-opacity="1.0" stroke="rgb(0, 0, 0)" stroke-linejoin="round" d=" M 486.435, 513.890 486.435, 513.890 486.435, 523.890 486.435, 533.890 486.435, 543.890 486.435, 553.890 486.435, 563.890 486.435, 573.890 486.435, 583.890 486.435, 593.890 486.435, 603.890 486.435, 613.890 486.435, 623.890 486.435, 633.890 486.435, 643.890 486.435, 650.558 496.435, 650.558 506.435, 650.558 516.435, 650.558 522.906, 650.558 532.906, 650.558 542.906, 650.558 552.906, 650.558 562.906, 650.558 572.906, 650.558 582.906, 650.558 592.906, 650.558 602.906, 650.558 612.906, 650.558 622.906, 650.558 632.906, 650.558 642.906, 650.558 652.906, 650.558 662.906, 650.558 668.793, 650.558 678.793, 650.558 688.793, 650.558 698.793, 650.558 705.265, 650.558 " />
            <path fill="none" stroke-width="1.5" stroke-linecap="round" stroke-opacity="1.0" stroke="rgb(0, 0, 0)" stroke-linejoin="round" d=" M 318.735, 417.068 318.735, 417.068 " />
            <path fill="none" stroke-width="1.5" stroke-linecap="round" stroke-opacity="1.0" stroke="rgb(0, 0, 0)" stroke-linejoin="round" d=" M 318.735, 417.068 318.735, 417.068 327.395, 422.068 336.055, 427.068 344.716, 432.068 353.376, 437.068 362.036, 442.068 370.696, 447.068 379.357, 452.068 388.017, 457.068 396.677, 462.068 405.337, 467.068 413.998, 472.068 422.658, 477.068 431.318, 482.068 439.978, 487.068 448.639, 492.068 457.299, 497.068 465.959, 502.068 474.620, 507.068 483.280, 512.068 486.435, 513.890 " />
            <path fill="none" stroke-width="1.5" stroke-linecap="round" stroke-opacity="1.0" stroke="rgb(0, 0, 0)" stroke-linejoin="round" d=" M 562.955, 431.727 567.955, 423.067 572.955, 414.407 577.955, 405.746 582.955, 397.086 587.955, 388.426 592.955, 379.766 597.955, 371.105 602.955, 362.445 607.955, 353.785 612.955, 345.125 617.663, 336.971 617.663, 336.971 " />
            <path fill="none" stroke-width="1.5" stroke-linecap="round" stroke-opacity="1.0" stroke="rgb(0, 0, 0)" stroke-linejoin="round" d=" M 508.248, 526.484 513.248, 517.823 518.248, 509.163 523.248, 500.503 528.248, 491.842 533.248, 483.182 538.248, 474.522 543.248, 465.862 548.248, 457.201 553.248, 448.541 558.248, 439.881 562.955, 431.727 " />
            <path fill="none" stroke-width="1.5" stroke-linecap="round" stroke-opacity="1.0" stroke="rgb(0, 0, 0)" stroke-linejoin="round" d=" M 562.955, 431.727 567.955, 423.067 572.955, 414.407 577.955, 405.746 582.955, 397.086 587.955, 388.426 592.955, 379.766 597.955, 371.105 602.955, 362.445 607.955, 353.785 612.955, 345.125 617.663, 336.971 617.663, 336.971 609.003, 331.971 600.342, 326.971 591.682, 321.971 583.022, 316.971 574.362, 311.971 565.701, 306.971 557.041, 301.971 548.381, 296.971 539.721, 291.971 531.060, 286.971 522.400, 281.971 513.740, 276.971 505.080, 271.971 496.419, 266.971 487.759, 261.971 479.099, 256.971 470.439, 251.971 461.778, 246.971 453.118, 241.971 444.458, 236.971 435.797, 231.971 428.150, 227.556 " />
            <path fill="none" stroke-width="1.5" stroke-linecap="round" stroke-opacity="1.0" stroke="rgb(0, 0, 0)" stroke-linejoin="round" d=" M 428.150, 227.556 423.150, 236.216 418.150, 244.876 413.150, 253.536 408.150, 262.197 403.150, 270.857 398.150, 279.517 393.150, 288.177 388.150, 296.838 383.150, 305.498 378.150, 314.158 373.150, 322.818 368.150, 331.479 363.150, 340.139 358.150, 348.799 353.150, 357.459 348.150, 366.120 343.150, 374.780 338.150, 383.440 333.150, 392.100 328.150, 400.761 323.150, 409.421 318.735, 417.068 318.735, 417.068 327.395, 422.068 336.055, 427.068 344.716, 432.068 353.376, 437.068 362.036, 442.068 370.696, 447.068 379.357, 452.068 388.017, 457.068 396.677, 462.068 405.337, 467.068 413.998, 472.068 422.658, 477.068 431.318, 482.068 439.978, 487.068 448.639, 492.068 457.299, 497.068 465.959, 502.068 474.620, 507.068 483.280, 512.068 486.435, 513.890 " />
            <path fill="none" stroke-width="1.5" stroke-linecap="round" stroke-opacity="1.0" stroke="rgb(0, 0, 0)" stroke-linejoin="round" d=" M 614.086, 504.671 614.086, 494.671 614.086, 484.671 614.086, 474.671 614.086, 468.199 614.086, 468.199 614.086, 468.199 614.086, 468.199 604.086, 468.199 594.086, 468.199 584.086, 468.199 577.614, 468.199 577.614, 478.199 577.614, 488.199 577.614, 498.199 577.614, 504.671 577.614, 504.671 577.614, 504.671 577.614, 504.671 587.614, 504.671 597.614, 504.671 607.614, 504.671 614.086, 504.671 " />
            <path fill="none" stroke-width="1.5" stroke-linecap="round" stroke-opacity="1.0" stroke="rgb(0, 0, 0)" stroke-linejoin="round" d=" M 614.086, 468.199 614.086, 468.199 614.086, 478.199 614.086, 488.199 614.086, 498.199 614.086, 504.671 " />
            <path fill="none" stroke-width="1.5" stroke-linecap="round" stroke-opacity="1.0" stroke="rgb(0, 0, 0)" stroke-linejoin="round" d=" M 577.614, 504.671 577.614, 504.671 587.614, 504.671 597.614, 504.671 607.614, 504.671 614.086, 504.671 614.086, 504.671 " />
            <path fill="none" stroke-width="1.5" stroke-linecap="round" stroke-opacity="1.0" stroke="rgb(0, 0, 0)" stroke-linejoin="round" d=" M 588.556, 659.676 588.556, 669.676 588.556, 679.676 588.556, 689.676 588.556, 699.676 588.556, 709.676 588.556, 719.676 588.556, 729.676 588.556, 739.676 588.556, 749.676 588.556, 759.676 588.556, 769.675 588.556, 779.675 588.556, 789.676 588.556, 796.445 588.696, 796.445 589.111, 796.445 589.785, 796.445 590.692, 796.445 591.797, 796.445 593.059, 796.445 594.427, 796.445 595.850, 796.445 597.273, 796.445 598.641, 796.445 599.902, 796.445 601.008, 796.445 601.915, 796.445 602.589, 796.445 603.004, 796.445 603.144, 796.445 603.144, 786.445 603.144, 776.445 603.144, 766.444 603.144, 756.444 603.144, 746.444 603.144, 736.444 603.144, 726.444 603.144, 716.444 603.144, 706.444 603.144, 696.444 603.144, 686.444 603.144, 676.444 603.144, 666.444 603.144, 659.676 " />
            <path fill="none" stroke-width="1.5" stroke-linecap="round" stroke-opacity="1.0" stroke="rgb(0, 0, 0)" stroke-linejoin="round" d=" M 643.263, 659.676 643.263, 669.676 643.263, 679.676 643.263, 689.676 643.263, 699.676 643.263, 709.676 643.263, 719.676 643.263, 729.676 643.263, 739.676 643.263, 749.676 643.263, 759.676 643.263, 769.675 643.263, 779.675 643.263, 789.676 643.263, 796.445 643.403, 796.445 643.818, 796.445 644.492, 796.445 645.400, 796.445 646.505, 796.445 647.766, 796.445 649.134, 796.445 650.558, 796.445 651.981, 796.445 653.349, 796.445 654.610, 796.445 655.715, 796.445 656.623, 796.445 657.297, 796.445 657.712, 796.445 657.852, 796.445 657.852, 786.445 657.852, 776.445 657.852, 766.444 657.852, 756.444 657.852, 746.444 657.852, 736.444 657.852, 726.444 657.852, 716.444 657.852, 706.444 657.852, 696.444 657.852, 686.444 657.852, 676.444 657.852, 666.444 657.852, 659.676 " />
            <path fill="none" stroke-width="1.5" stroke-linecap="round" stroke-opacity="1.0" stroke="rgb(0, 0, 0)" stroke-linejoin="round" d=" M 533.848, 659.676 533.848, 669.676 533.848, 679.676 533.848, 689.676 533.848, 699.676 533.848, 709.676 533.848, 719.676 533.848, 729.676 533.848, 739.676 533.848, 749.676 533.848, 759.676 533.848, 769.675 533.848, 779.675 533.848, 789.676 533.848, 796.445 533.988, 796.445 534.403, 796.445 535.077, 796.445 535.984, 796.445 537.090, 796.445 538.351, 796.445 539.719, 796.445 541.142, 796.445 542.565, 796.445 543.934, 796.445 545.195, 796.445 546.300, 796.445 547.207, 796.445 547.881, 796.445 548.297, 796.445 548.437, 796.445 548.437, 786.445 548.437, 776.445 548.437, 766.444 548.437, 756.444 548.437, 746.444 548.437, 736.444 548.437, 726.444 548.437, 716.444 548.437, 706.444 548.437, 696.444 548.437, 686.444 548.437, 676.444 548.437, 666.444 548.437, 659.676 " />
            <path fill="none" stroke-width="1.5" stroke-linecap="round" stroke-opacity="1.0" stroke="rgb(0, 0, 0)" stroke-linejoin="round" d=" M 486.435, 513.890 495.095, 518.890 503.755, 523.890 508.248, 526.484 " />
            <path fill="none" stroke-width="1.5" stroke-linecap="round" stroke-opacity="1.0" stroke="rgb(0, 0, 0)" stroke-linejoin="round" d=" M 617.663, 336.971 617.663, 336.971 " />
        </g>
    </g>
    <g id="ViewLayer_TechnicalLines.003" inkscape:groupmode="lineset" inkscape:label="ViewLayer_TechnicalLines.003">
        <g inkscape:groupmode="layer" id="strokes" inkscape:label="strokes">
            <path fill="none" stroke-width="1.5" stroke-linecap="round" stroke-opacity="1.0" stroke="rgb(0, 0, 0)" stroke-linejoin="round" d=" M 603.144, 659.676 610.081, 659.676 620.081, 659.676 623.764, 659.676 633.764, 659.676 636.375, 659.676 643.263, 659.676 647.429, 659.676 656.500, 659.676 657.852, 659.676 663.241, 659.676 667.392, 659.676 668.793, 659.676 668.793, 650.558 " />
            <path fill="none" stroke-width="1.5" stroke-linecap="round" stroke-opacity="1.0" stroke="rgb(0, 0, 0)" stroke-linejoin="round" d=" M 588.556, 659.676 595.850, 659.676 603.144, 659.676 " />
            <path fill="none" stroke-width="1.5" stroke-linecap="round" stroke-opacity="1.0" stroke="rgb(0, 0, 0)" stroke-linejoin="round" d=" M 522.906, 650.558 522.906, 659.676 524.308, 659.676 528.459, 659.676 533.848, 659.676 535.200, 659.676 544.271, 659.676 548.437, 659.676 555.325, 659.676 565.325, 659.676 567.936, 659.676 577.936, 659.676 581.619, 659.676 588.556, 659.676 " />
            <path fill="none" stroke-width="1.5" stroke-linecap="round" stroke-opacity="1.0" stroke="rgb(0, 0, 0)" stroke-linejoin="round" d=" M 705.265, 650.558 705.265, 640.558 705.265, 630.558 705.265, 620.558 705.265, 610.558 705.265, 600.558 705.265, 590.558 705.265, 580.558 705.265, 570.558 705.265, 560.558 705.265, 550.558 705.265, 540.558 705.265, 530.558 705.265, 520.558 705.265, 510.558 705.265, 500.558 705.265, 490.558 705.265, 480.558 705.265, 470.558 705.265, 460.558 705.265, 450.558 705.265, 440.558 705.265, 431.727 695.265, 431.727 685.265, 431.727 675.265, 431.727 665.265, 431.727 655.265, 431.727 645.265, 431.727 635.265, 431.727 625.265, 431.727 615.265, 431.727 605.265, 431.727 595.265, 431.727 585.265, 431.727 575.265, 431.727 565.265, 431.727 562.955, 431.727 562.955, 431.727 " />
            <path fill="none" stroke-width="1.5" stroke-linecap="round" stroke-opacity="1.0" stroke="rgb(0, 0, 0)" stroke-linejoin="round" d=" M 562.955, 431.727 552.955, 431.727 542.955, 431.727 532.955, 431.727 522.955, 431.727 512.955, 431.727 502.955, 431.727 492.955, 431.727 486.435, 431.727 486.435, 441.727 486.435, 451.727 486.435, 461.727 486.435, 471.727 486.435, 481.727 486.435, 491.727 486.435, 501.727 486.435, 511.727 486.435, 513.890 " />
            <path fill="none" stroke-width="1.5" stroke-linecap="round" stroke-opacity="1.0" stroke="rgb(0, 0, 0)" stroke-linejoin="round" d=" M 486.435, 513.890 486.435, 513.890 486.435, 523.890 486.435, 533.890 486.435, 543.890 486.435, 553.890 486.435, 563.890 486.435, 573.890 486.435, 583.890 486.435, 593.890 486.435, 603.890 486.435, 613.890 486.435, 623.890 486.435, 633.890 486.435, 643.890 486.435, 650.558 496.435, 650.558 506.435, 650.558 516.435, 650.558 522.906, 650.558 532.906, 650.558 542.906, 650.558 552.906, 650.558 562.906, 650.558 572.906, 650.558 582.906, 650.558 592.906, 650.558 602.906, 650.558 612.906, 650.558 622.906, 650.558 632.906, 650.558 642.906, 650.558 652.906, 650.558 662.906, 650.558 668.793, 650.558 678.793, 650.558 688.793, 650.558 698.793, 650.558 705.265, 650.558 " />
            <path fill="none" stroke-width="1.5" stroke-linecap="round" stroke-opacity="1.0" stroke="rgb(0, 0, 0)" stroke-linejoin="round" d=" M 318.735, 417.068 318.735, 417.068 " />
            <path fill="none" stroke-width="1.5" stroke-linecap="round" stroke-opacity="1.0" stroke="rgb(0, 0, 0)" stroke-linejoin="round" d=" M 318.735, 417.068 318.735, 417.068 327.395, 422.068 336.055, 427.068 344.716, 432.068 353.376, 437.068 362.036, 442.068 370.696, 447.068 379.357, 452.068 388.017, 457.068 396.677, 462.068 405.337, 467.068 413.998, 472.068 422.658, 477.068 431.318, 482.068 439.978, 487.068 448.639, 492.068 457.299, 497.068 465.959, 502.068 474.620, 507.068 483.280, 512.068 486.435, 513.890 " />
            <path fill="none" stroke-width="1.5" stroke-linecap="round" stroke-opacity="1.0" stroke="rgb(0, 0, 0)" stroke-linejoin="round" d=" M 562.955, 431.727 567.955, 423.067 572.955, 414.407 577.955, 405.746 582.955, 397.086 587.955, 388.426 592.955, 379.766 597.955, 371.105 602.955, 362.445 607.955, 353.785 612.955, 345.125 617.663, 336.971 617.663, 336.971 " />
            <path fill="none" stroke-width="1.5" stroke-linecap="round" stroke-opacity="1.0" stroke="rgb(0, 0, 0)" stroke-linejoin="round" d=" M 508.248, 526.484 513.248, 517.823 518.248, 509.163 523.248, 500.503 528.248, 491.842 533.248, 483.182 538.248, 474.522 543.248, 465.862 548.248, 457.201 553.248, 448.541 558.248, 439.881 562.955, 431.727 " />
            <path fill="none" stroke-width="1.5" stroke-linecap="round" stroke-opacity="1.0" stroke="rgb(0, 0, 0)" stroke-linejoin="round" d=" M 562.955, 431.727 567.955, 423.067 572.955, 414.407 577.955, 405.746 582.955, 397.086 587.955, 388.426 592.955, 379.766 597.955, 371.105 602.955, 362.445 607.955, 353.785 612.955, 345.125 617.663, 336.971 617.663, 336.971 609.003, 331.971 600.342, 326.971 591.682, 321.971 583.022, 316.971 574.362, 311.971 565.701, 306.971 557.041, 301.971 548.381, 296.971 539.721, 291.971 531.060, 286.971 522.400, 281.971 513.740, 276.971 505.080, 271.971 496.419, 266.971 487.759, 261.971 479.099, 256.971 470.439, 251.971 461.778, 246.971 453.118, 241.971 444.458, 236.971 435.797, 231.971 428.150, 227.556 " />
            <path fill="none" stroke-width="1.5" stroke-linecap="round" stroke-opacity="1.0" stroke="rgb(0, 0, 0)" stroke-linejoin="round" d=" M 428.150, 227.556 423.150, 236.216 418.150, 244.876 413.150, 253.536 408.150, 262.197 403.150, 270.857 398.150, 279.517 393.150, 288.177 388.150, 296.838 383.150, 305.498 378.150, 314.158 373.150, 322.818 368.150, 331.479 363.150, 340.139 358.150, 348.799 353.150, 357.459 348.150, 366.120 343.150, 374.780 338.150, 383.440 333.150, 392.100 328.150, 400.761 323.150, 409.421 318.735, 417.068 318.735, 417.068 327.395, 422.068 336.055, 427.068 344.716, 432.068 353.376, 437.068 362.036, 442.068 370.696, 447.068 379.357, 452.068 388.017, 457.068 396.677, 462.068 405.337, 467.068 413.998, 472.068 422.658, 477.068 431.318, 482.068 439.978, 487.068 448.639, 492.068 457.299, 497.068 465.959, 502.068 474.620, 507.068 483.280, 512.068 486.435, 513.890 " />
            <path fill="none" stroke-width="1.5" stroke-linecap="round" stroke-opacity="1.0" stroke="rgb(0, 0, 0)" stroke-linejoin="round" d=" M 614.086, 504.671 614.086, 494.671 614.086, 484.671 614.086, 474.671 614.086, 468.199 614.086, 468.199 614.086, 468.199 614.086, 468.199 604.086, 468.199 594.086, 468.199 584.086, 468.199 577.614, 468.199 577.614, 478.199 577.614, 488.199 577.614, 498.199 577.614, 504.671 577.614, 504.671 577.614, 504.671 577.614, 504.671 587.614, 504.671 597.614, 504.671 607.614, 504.671 614.086, 504.671 " />
            <path fill="none" stroke-width="1.5" stroke-linecap="round" stroke-opacity="1.0" stroke="rgb(0, 0, 0)" stroke-linejoin="round" d=" M 614.086, 468.199 614.086, 468.199 614.086, 478.199 614.086, 488.199 614.086, 498.199 614.086, 504.671 " />
            <path fill="none" stroke-width="1.5" stroke-linecap="round" stroke-opacity="1.0" stroke="rgb(0, 0, 0)" stroke-linejoin="round" d=" M 577.614, 504.671 577.614, 504.671 587.614, 504.671 597.614, 504.671 607.614, 504.671 614.086, 504.671 614.086, 504.671 " />
            <path fill="none" stroke-width="1.5" stroke-linecap="round" stroke-opacity="1.0" stroke="rgb(0, 0, 0)" stroke-linejoin="round" d=" M 588.556, 659.676 588.556, 669.676 588.556, 679.676 588.556, 689.676 588.556, 699.676 588.556, 709.676 588.556, 719.676 588.556, 729.676 588.556, 739.676 588.556, 749.676 588.556, 759.676 588.556, 769.675 588.556, 779.675 588.556, 789.676 588.556, 796.445 588.696, 796.445 589.111, 796.445 589.785, 796.445 590.692, 796.445 591.797, 796.445 593.059, 796.445 594.427, 796.445 595.850, 796.445 597.273, 796.445 598.641, 796.445 599.902, 796.445 601.008, 796.445 601.915, 796.445 602.589, 796.445 603.004, 796.445 603.144, 796.445 603.144, 786.445 603.144, 776.445 603.144, 766.444 603.144, 756.444 603.144, 746.444 603.144, 736.444 603.144, 726.444 603.144, 716.444 603.144, 706.444 603.144, 696.444 603.144, 686.444 603.144, 676.444 603.144, 666.444 603.144, 659.676 " />
            <path fill="none" stroke-width="1.5" stroke-linecap="round" stroke-opacity="1.0" stroke="rgb(0, 0, 0)" stroke-linejoin="round" d=" M 643.263, 659.676 643.263, 669.676 643.263, 679.676 643.263, 689.676 643.263, 699.676 643.263, 709.676 643.263, 719.676 643.263, 729.676 643.263, 739.676 643.263, 749.676 643.263, 759.676 643.263, 769.675 643.263, 779.675 643.263, 789.676 643.263, 796.445 643.403, 796.445 643.818, 796.445 644.492, 796.445 645.400, 796.445 646.505, 796.445 647.766, 796.445 649.134, 796.445 650.558, 796.445 651.981, 796.445 653.349, 796.445 654.610, 796.445 655.715, 796.445 656.623, 796.445 657.297, 796.445 657.712, 796.445 657.852, 796.445 657.852, 786.445 657.852, 776.445 657.852, 766.444 657.852, 756.444 657.852, 746.444 657.852, 736.444 657.852, 726.444 657.852, 716.444 657.852, 706.444 657.852, 696.444 657.852, 686.444 657.852, 676.444 657.852, 666.444 657.852, 659.676 " />
            <path fill="none" stroke-width="1.5" stroke-linecap="round" stroke-opacity="1.0" stroke="rgb(0, 0, 0)" stroke-linejoin="round" d=" M 533.848, 659.676 533.848, 669.676 533.848, 679.676 533.848, 689.676 533.848, 699.676 533.848, 709.676 533.848, 719.676 533.848, 729.676 533.848, 739.676 533.848, 749.676 533.848, 759.676 533.848, 769.675 533.848, 779.675 533.848, 789.676 533.848, 796.445 533.988, 796.445 534.403, 796.445 535.077, 796.445 535.984, 796.445 537.090, 796.445 538.351, 796.445 539.719, 796.445 541.142, 796.445 542.565, 796.445 543.934, 796.445 545.195, 796.445 546.300, 796.445 547.207, 796.445 547.881, 796.445 548.297, 796.445 548.437, 796.445 548.437, 786.445 548.437, 776.445 548.437, 766.444 548.437, 756.444 548.437, 746.444 548.437, 736.444 548.437, 726.444 548.437, 716.444 548.437, 706.444 548.437, 696.444 548.437, 686.444 548.437, 676.444 548.437, 666.444 548.437, 659.676 " />
            <path fill="none" stroke-width="1.5" stroke-linecap="round" stroke-opacity="1.0" stroke="rgb(0, 0, 0)" stroke-linejoin="round" d=" M 486.435, 513.890 495.095, 518.890 503.755, 523.890 508.248, 526.484 " />
            <path fill="none" stroke-width="1.5" stroke-linecap="round" stroke-opacity="1.0" stroke="rgb(0, 0, 0)" stroke-linejoin="round" d=" M 617.663, 336.971 617.663, 336.971 " />
        </g>
    </g>
    <g id="ViewLayer_TechnicalLines.004" xmlns:inkscape="http://www.inkscape.org/namespaces/inkscape" inkscape:groupmode="lineset" inkscape:label="ViewLayer_TechnicalLines.004">
        <g xmlns:inkscape="http://www.inkscape.org/namespaces/inkscape" inkscape:groupmode="layer" id="strokes" inkscape:label="strokes">
            <path fill="none" stroke-width="1.5" stroke-linecap="round" stroke-opacity="1.0" stroke="rgb(0, 0, 0)" stroke-linejoin="round" d=" M 603.144, 659.676 610.081, 659.676 620.081, 659.676 623.764, 659.676 633.764, 659.676 636.375, 659.676 643.263, 659.676 647.429, 659.676 656.500, 659.676 657.852, 659.676 663.241, 659.676 667.392, 659.676 668.793, 659.676 668.793, 650.558 " />
            <path fill="none" stroke-width="1.5" stroke-linecap="round" stroke-opacity="1.0" stroke="rgb(0, 0, 0)" stroke-linejoin="round" d=" M 588.556, 659.676 595.850, 659.676 603.144, 659.676 " />
            <path fill="none" stroke-width="1.5" stroke-linecap="round" stroke-opacity="1.0" stroke="rgb(0, 0, 0)" stroke-linejoin="round" d=" M 522.906, 650.558 522.906, 659.676 524.308, 659.676 528.459, 659.676 533.848, 659.676 535.200, 659.676 544.271, 659.676 548.437, 659.676 555.325, 659.676 565.325, 659.676 567.936, 659.676 577.936, 659.676 581.619, 659.676 588.556, 659.676 " />
            <path fill="none" stroke-width="1.5" stroke-linecap="round" stroke-opacity="1.0" stroke="rgb(0, 0, 0)" stroke-linejoin="round" d=" M 705.265, 650.558 705.265, 640.558 705.265, 630.558 705.265, 620.558 705.265, 610.558 705.265, 600.558 705.265, 590.558 705.265, 580.558 705.265, 570.558 705.265, 560.558 705.265, 550.558 705.265, 540.558 705.265, 530.558 705.265, 520.558 705.265, 510.558 705.265, 500.558 705.265, 490.558 705.265, 480.558 705.265, 470.558 705.265, 460.558 705.265, 450.558 705.265, 440.558 705.265, 431.727 695.265, 431.727 685.265, 431.727 675.265, 431.727 665.265, 431.727 655.265, 431.727 645.265, 431.727 635.265, 431.727 625.265, 431.727 615.265, 431.727 605.265, 431.727 595.265, 431.727 585.265, 431.727 575.265, 431.727 565.265, 431.727 562.955, 431.727 562.955, 431.727 " />
            <path fill="none" stroke-width="1.5" stroke-linecap="round" stroke-opacity="1.0" stroke="rgb(0, 0, 0)" stroke-linejoin="round" d=" M 562.955, 431.727 552.955, 431.727 542.955, 431.727 532.955, 431.727 522.955, 431.727 512.955, 431.727 502.955, 431.727 492.955, 431.727 486.435, 431.727 486.435, 441.727 486.435, 451.727 486.435, 461.727 486.435, 471.727 486.435, 481.727 486.435, 491.727 486.435, 501.727 486.435, 511.727 486.435, 513.890 " />
            <path fill="none" stroke-width="1.5" stroke-linecap="round" stroke-opacity="1.0" stroke="rgb(0, 0, 0)" stroke-linejoin="round" d=" M 486.435, 513.890 486.435, 513.890 486.435, 523.890 486.435, 533.890 486.435, 543.890 486.435, 553.890 486.435, 563.890 486.435, 573.890 486.435, 583.890 486.435, 593.890 486.435, 603.890 486.435, 613.890 486.435, 623.890 486.435, 633.890 486.435, 643.890 486.435, 650.558 496.435, 650.558 506.435, 650.558 516.435, 650.558 522.906, 650.558 532.906, 650.558 542.906, 650.558 552.906, 650.558 562.906, 650.558 572.906, 650.558 582.906, 650.558 592.906, 650.558 602.906, 650.558 612.906, 650.558 622.906, 650.558 632.906, 650.558 642.906, 650.558 652.906, 650.558 662.906, 650.558 668.793, 650.558 678.793, 650.558 688.793, 650.558 698.793, 650.558 705.265, 650.558 " />
            <path fill="none" stroke-width="1.5" stroke-linecap="round" stroke-opacity="1.0" stroke="rgb(0, 0, 0)" stroke-linejoin="round" d=" M 318.735, 417.068 318.735, 417.068 " />
            <path fill="none" stroke-width="1.5" stroke-linecap="round" stroke-opacity="1.0" stroke="rgb(0, 0, 0)" stroke-linejoin="round" d=" M 318.735, 417.068 318.735, 417.068 327.395, 422.068 336.055, 427.068 344.716, 432.068 353.376, 437.068 362.036, 442.068 370.696, 447.068 379.357, 452.068 388.017, 457.068 396.677, 462.068 405.337, 467.068 413.998, 472.068 422.658, 477.068 431.318, 482.068 439.978, 487.068 448.639, 492.068 457.299, 497.068 465.959, 502.068 474.620, 507.068 483.280, 512.068 486.435, 513.890 " />
            <path fill="none" stroke-width="1.5" stroke-linecap="round" stroke-opacity="1.0" stroke="rgb(0, 0, 0)" stroke-linejoin="round" d=" M 562.955, 431.727 567.955, 423.067 572.955, 414.407 577.955, 405.746 582.955, 397.086 587.955, 388.426 592.955, 379.766 597.955, 371.105 602.955, 362.445 607.955, 353.785 612.955, 345.125 617.663, 336.971 617.663, 336.971 " />
            <path fill="none" stroke-width="1.5" stroke-linecap="round" stroke-opacity="1.0" stroke="rgb(0, 0, 0)" stroke-linejoin="round" d=" M 508.248, 526.484 513.248, 517.823 518.248, 509.163 523.248, 500.503 528.248, 491.842 533.248, 483.182 538.248, 474.522 543.248, 465.862 548.248, 457.201 553.248, 448.541 558.248, 439.881 562.955, 431.727 " />
            <path fill="none" stroke-width="1.5" stroke-linecap="round" stroke-opacity="1.0" stroke="rgb(0, 0, 0)" stroke-linejoin="round" d=" M 562.955, 431.727 567.955, 423.067 572.955, 414.407 577.955, 405.746 582.955, 397.086 587.955, 388.426 592.955, 379.766 597.955, 371.105 602.955, 362.445 607.955, 353.785 612.955, 345.125 617.663, 336.971 617.663, 336.971 609.003, 331.971 600.342, 326.971 591.682, 321.971 583.022, 316.971 574.362, 311.971 565.701, 306.971 557.041, 301.971 548.381, 296.971 539.721, 291.971 531.060, 286.971 522.400, 281.971 513.740, 276.971 505.080, 271.971 496.419, 266.971 487.759, 261.971 479.099, 256.971 470.439, 251.971 461.778, 246.971 453.118, 241.971 444.458, 236.971 435.797, 231.971 428.150, 227.556 " />
            <path fill="none" stroke-width="1.5" stroke-linecap="round" stroke-opacity="1.0" stroke="rgb(0, 0, 0)" stroke-linejoin="round" d=" M 428.150, 227.556 423.150, 236.216 418.150, 244.876 413.150, 253.536 408.150, 262.197 403.150, 270.857 398.150, 279.517 393.150, 288.177 388.150, 296.838 383.150, 305.498 378.150, 314.158 373.150, 322.818 368.150, 331.479 363.150, 340.139 358.150, 348.799 353.150, 357.459 348.150, 366.120 343.150, 374.780 338.150, 383.440 333.150, 392.100 328.150, 400.761 323.150, 409.421 318.735, 417.068 318.735, 417.068 327.395, 422.068 336.055, 427.068 344.716, 432.068 353.376, 437.068 362.036, 442.068 370.696, 447.068 379.357, 452.068 388.017, 457.068 396.677, 462.068 405.337, 467.068 413.998, 472.068 422.658, 477.068 431.318, 482.068 439.978, 487.068 448.639, 492.068 457.299, 497.068 465.959, 502.068 474.620, 507.068 483.280, 512.068 486.435, 513.890 " />
            <path fill="none" stroke-width="1.5" stroke-linecap="round" stroke-opacity="1.0" stroke="rgb(0, 0, 0)" stroke-linejoin="round" d=" M 614.086, 504.671 614.086, 494.671 614.086, 484.671 614.086, 474.671 614.086, 468.199 614.086, 468.199 614.086, 468.199 614.086, 468.199 604.086, 468.199 594.086, 468.199 584.086, 468.199 577.614, 468.199 577.614, 478.199 577.614, 488.199 577.614, 498.199 577.614, 504.671 577.614, 504.671 577.614, 504.671 577.614, 504.671 587.614, 504.671 597.614, 504.671 607.614, 504.671 614.086, 504.671 " />
            <path fill="none" stroke-width="1.5" stroke-linecap="round" stroke-opacity="1.0" stroke="rgb(0, 0, 0)" stroke-linejoin="round" d=" M 614.086, 468.199 614.086, 468.199 614.086, 478.199 614.086, 488.199 614.086, 498.199 614.086, 504.671 " />
            <path fill="none" stroke-width="1.5" stroke-linecap="round" stroke-opacity="1.0" stroke="rgb(0, 0, 0)" stroke-linejoin="round" d=" M 577.614, 504.671 577.614, 504.671 587.614, 504.671 597.614, 504.671 607.614, 504.671 614.086, 504.671 614.086, 504.671 " />
            <path fill="none" stroke-width="1.5" stroke-linecap="round" stroke-opacity="1.0" stroke="rgb(0, 0, 0)" stroke-linejoin="round" d=" M 588.556, 659.676 588.556, 669.676 588.556, 679.676 588.556, 689.676 588.556, 699.676 588.556, 709.676 588.556, 719.676 588.556, 729.676 588.556, 739.676 588.556, 749.676 588.556, 759.676 588.556, 769.675 588.556, 779.675 588.556, 789.676 588.556, 796.445 588.696, 796.445 589.111, 796.445 589.785, 796.445 590.692, 796.445 591.797, 796.445 593.059, 796.445 594.427, 796.445 595.850, 796.445 597.273, 796.445 598.641, 796.445 599.902, 796.445 601.008, 796.445 601.915, 796.445 602.589, 796.445 603.004, 796.445 603.144, 796.445 603.144, 786.445 603.144, 776.445 603.144, 766.444 603.144, 756.444 603.144, 746.444 603.144, 736.444 603.144, 726.444 603.144, 716.444 603.144, 706.444 603.144, 696.444 603.144, 686.444 603.144, 676.444 603.144, 666.444 603.144, 659.676 " />
            <path fill="none" stroke-width="1.5" stroke-linecap="round" stroke-opacity="1.0" stroke="rgb(0, 0, 0)" stroke-linejoin="round" d=" M 643.263, 659.676 643.263, 669.676 643.263, 679.676 643.263, 689.676 643.263, 699.676 643.263, 709.676 643.263, 719.676 643.263, 729.676 643.263, 739.676 643.263, 749.676 643.263, 759.676 643.263, 769.675 643.263, 779.675 643.263, 789.676 643.263, 796.445 643.403, 796.445 643.818, 796.445 644.492, 796.445 645.400, 796.445 646.505, 796.445 647.766, 796.445 649.134, 796.445 650.558, 796.445 651.981, 796.445 653.349, 796.445 654.610, 796.445 655.715, 796.445 656.623, 796.445 657.297, 796.445 657.712, 796.445 657.852, 796.445 657.852, 786.445 657.852, 776.445 657.852, 766.444 657.852, 756.444 657.852, 746.444 657.852, 736.444 657.852, 726.444 657.852, 716.444 657.852, 706.444 657.852, 696.444 657.852, 686.444 657.852, 676.444 657.852, 666.444 657.852, 659.676 " />
            <path fill="none" stroke-width="1.5" stroke-linecap="round" stroke-opacity="1.0" stroke="rgb(0, 0, 0)" stroke-linejoin="round" d=" M 533.848, 659.676 533.848, 669.676 533.848, 679.676 533.848, 689.676 533.848, 699.676 533.848, 709.676 533.848, 719.676 533.848, 729.676 533.848, 739.676 533.848, 749.676 533.848, 759.676 533.848, 769.675 533.848, 779.675 533.848, 789.676 533.848, 796.445 533.988, 796.445 534.403, 796.445 535.077, 796.445 535.984, 796.445 537.090, 796.445 538.351, 796.445 539.719, 796.445 541.142, 796.445 542.565, 796.445 543.934, 796.445 545.195, 796.445 546.300, 796.445 547.207, 796.445 547.881, 796.445 548.297, 796.445 548.437, 796.445 548.437, 786.445 548.437, 776.445 548.437, 766.444 548.437, 756.444 548.437, 746.444 548.437, 736.444 548.437, 726.444 548.437, 716.444 548.437, 706.444 548.437, 696.444 548.437, 686.444 548.437, 676.444 548.437, 666.444 548.437, 659.676 " />
            <path fill="none" stroke-width="1.5" stroke-linecap="round" stroke-opacity="1.0" stroke="rgb(0, 0, 0)" stroke-linejoin="round" d=" M 486.435, 513.890 495.095, 518.890 503.755, 523.890 508.248, 526.484 " />
            <path fill="none" stroke-width="1.5" stroke-linecap="round" stroke-opacity="1.0" stroke="rgb(0, 0, 0)" stroke-linejoin="round" d=" M 617.663, 336.971 617.663, 336.971 " />
        </g>
    </g>
</svg>
