<?xml version='1.0' encoding='ascii'?>
<svg xmlns="http://www.w3.org/2000/svg" xmlns:inkscape="http://www.inkscape.org/namespaces/inkscape" version="1.1" width="1024" height="1024">
    <g id="ViewLayer_LineSet" inkscape:groupmode="lineset" inkscape:label="ViewLayer_LineSet">
        <g inkscape:groupmode="layer" id="strokes" inkscape:label="strokes">
            <path fill="none" stroke-width="3.0" stroke-linecap="butt" stroke-opacity="1.0" stroke="rgb(0, 0, 0)" stroke-linejoin="round" d=" M 501.363, 483.708 501.363, 482.836 491.363, 482.836 481.363, 482.836 471.363, 482.836 461.363, 482.836 451.363, 482.836 441.363, 482.836 431.363, 482.836 421.363, 482.836 411.363, 482.836 401.363, 482.836 394.996, 482.836 " />
            <path fill="none" stroke-width="3.0" stroke-linecap="butt" stroke-opacity="1.0" stroke="rgb(0, 0, 0)" stroke-linejoin="round" d=" M 394.996, 483.708 394.996, 489.214 394.996, 499.214 394.996, 504.110 " />
            <path fill="none" stroke-width="3.0" stroke-linecap="butt" stroke-opacity="1.0" stroke="rgb(0, 0, 0)" stroke-linejoin="round" d=" M 501.363, 689.193 501.363, 679.193 501.363, 669.193 501.363, 659.193 501.363, 649.193 501.363, 639.193 501.363, 629.193 501.363, 619.193 501.363, 609.193 501.363, 599.193 501.363, 589.193 501.363, 579.193 501.363, 569.193 501.363, 559.193 501.363, 549.193 501.363, 539.193 501.363, 529.193 501.363, 519.193 501.363, 509.193 501.363, 499.193 501.363, 489.214 501.363, 483.708 " />
            <path fill="none" stroke-width="3.0" stroke-linecap="butt" stroke-opacity="1.0" stroke="rgb(0, 0, 0)" stroke-linejoin="round" d=" M 394.996, 690.052 394.996, 700.052 394.996, 710.052 394.996, 710.600 394.996, 720.600 394.996, 730.600 394.996, 740.600 394.996, 743.636 404.996, 743.636 414.996, 743.636 424.996, 743.636 434.996, 743.636 444.996, 743.636 454.996, 743.636 464.996, 743.636 474.996, 743.636 484.996, 743.636 494.996, 743.636 501.363, 743.636 501.363, 733.636 501.363, 723.636 501.363, 713.636 501.363, 710.600 501.363, 700.600 501.363, 695.571 " />
            <path fill="none" stroke-width="3.0" stroke-linecap="butt" stroke-opacity="1.0" stroke="rgb(0, 0, 0)" stroke-linejoin="round" d=" M 501.363, 710.600 491.363, 710.600 481.363, 710.600 471.363, 710.600 461.363, 710.600 451.363, 710.600 441.363, 710.600 431.363, 710.600 421.363, 710.600 411.363, 710.600 401.363, 710.600 394.996, 710.600 " />
            <path fill="none" stroke-width="3.0" stroke-linecap="butt" stroke-opacity="1.0" stroke="rgb(0, 0, 0)" stroke-linejoin="round" d=" M 416.270, 785.432 416.270, 795.432 416.270, 796.444 426.270, 796.444 436.270, 796.444 446.270, 796.444 456.270, 796.444 466.270, 796.444 476.270, 796.444 480.090, 796.444 480.090, 786.444 480.090, 785.432 480.090, 775.896 480.090, 765.896 480.090, 764.884 470.090, 764.884 460.090, 764.884 450.090, 764.884 440.090, 764.884 430.090, 764.884 420.090, 764.884 416.270, 764.884 416.270, 774.884 416.270, 775.896 416.270, 785.432 " />
            <path fill="none" stroke-width="3.0" stroke-linecap="butt" stroke-opacity="1.0" stroke="rgb(0, 0, 0)" stroke-linejoin="round" d=" M 480.090, 785.432 470.090, 785.432 460.090, 785.432 450.090, 785.432 440.090, 785.432 430.090, 785.432 420.090, 785.432 416.270, 785.432 " />
            <path fill="none" stroke-width="3.0" stroke-linecap="butt" stroke-opacity="1.0" stroke="rgb(0, 0, 0)" stroke-linejoin="round" d=" M 501.363, 461.563 501.363, 471.563 501.363, 481.563 501.363, 491.563 501.363, 501.563 501.363, 504.110 511.363, 504.110 521.363, 504.110 522.637, 504.110 522.637, 494.110 522.637, 484.110 522.637, 474.110 522.637, 464.110 522.637, 461.563 512.637, 461.563 502.637, 461.563 501.363, 461.563 " />
            <path fill="none" stroke-width="3.0" stroke-linecap="butt" stroke-opacity="1.0" stroke="rgb(0, 0, 0)" stroke-linejoin="round" d=" M 394.996, 482.836 394.996, 472.836 394.996, 462.836 394.996, 461.563 384.996, 461.563 374.996, 461.563 373.723, 461.563 373.723, 471.563 373.723, 481.563 373.723, 491.563 373.723, 501.563 373.723, 504.110 " />
            <path fill="none" stroke-width="3.0" stroke-linecap="butt" stroke-opacity="1.0" stroke="rgb(0, 0, 0)" stroke-linejoin="round" d=" M 586.457, 557.293 576.457, 557.293 566.457, 557.293 565.184, 557.293 565.184, 567.293 565.184, 577.293 565.184, 587.293 565.184, 597.293 565.184, 607.293 565.184, 617.293 565.184, 621.114 " />
            <path fill="none" stroke-width="3.0" stroke-linecap="butt" stroke-opacity="1.0" stroke="rgb(0, 0, 0)" stroke-linejoin="round" d=" M 442.270, 367.625 440.658, 368.948 439.336, 370.560 438.353, 372.399 437.747, 374.394 437.543, 376.469 437.747, 378.545 438.353, 380.540 439.336, 382.379 " />
            <path fill="none" stroke-width="3.0" stroke-linecap="butt" stroke-opacity="1.0" stroke="rgb(0, 0, 0)" stroke-linejoin="round" d=" M 455.701, 368.948 454.089, 367.625 452.250, 366.642 450.255, 366.037 448.180, 365.833 446.105, 366.037 444.109, 366.642 442.270, 367.625 " />
            <path fill="none" stroke-width="3.0" stroke-linecap="butt" stroke-opacity="1.0" stroke="rgb(0, 0, 0)" stroke-linejoin="round" d=" M 458.816, 376.469 458.612, 374.394 458.007, 372.399 457.024, 370.560 " />
            <path fill="none" stroke-width="3.0" stroke-linecap="butt" stroke-opacity="1.0" stroke="rgb(0, 0, 0)" stroke-linejoin="round" d=" M 458.612, 378.545 458.816, 376.469 " />
            <path fill="none" stroke-width="3.0" stroke-linecap="butt" stroke-opacity="1.0" stroke="rgb(0, 0, 0)" stroke-linejoin="round" d=" M 452.250, 386.296 454.089, 385.314 455.701, 383.991 457.024, 382.379 458.007, 380.540 458.612, 378.545 " />
            <path fill="none" stroke-width="3.0" stroke-linecap="butt" stroke-opacity="1.0" stroke="rgb(0, 0, 0)" stroke-linejoin="round" d=" M 450.255, 386.902 452.250, 386.296 " />
            <path fill="none" stroke-width="3.0" stroke-linecap="butt" stroke-opacity="1.0" stroke="rgb(0, 0, 0)" stroke-linejoin="round" d=" M 444.109, 386.296 446.105, 386.902 448.180, 387.106 450.255, 386.902 " />
            <path fill="none" stroke-width="3.0" stroke-linecap="butt" stroke-opacity="1.0" stroke="rgb(0, 0, 0)" stroke-linejoin="round" d=" M 439.336, 382.379 440.658, 383.991 442.270, 385.314 444.109, 386.296 " />
            <path fill="none" stroke-width="3.0" stroke-linecap="butt" stroke-opacity="1.0" stroke="rgb(0, 0, 0)" stroke-linejoin="round" d=" M 456.480, 228.373 448.180, 227.556 439.879, 228.373 431.898, 230.794 424.542, 234.726 418.095, 240.017 412.803, 246.465 408.872, 253.820 406.451, 261.802 405.633, 270.102 406.451, 278.403 408.872, 286.384 412.803, 293.740 418.095, 300.188 424.542, 305.479 431.898, 309.411 439.879, 311.832 448.180, 312.649 456.480, 311.832 464.462, 309.411 471.818, 305.479 478.265, 300.188 483.556, 293.740 487.488, 286.384 489.909, 278.403 490.727, 270.102 489.909, 261.802 487.488, 253.820 483.556, 246.465 478.265, 240.017 471.818, 234.726 464.462, 230.794 456.480, 228.373 " />
            <path fill="none" stroke-width="3.0" stroke-linecap="butt" stroke-opacity="1.0" stroke="rgb(0, 0, 0)" stroke-linejoin="round" d=" M 650.277, 642.387 650.277, 632.387 650.277, 622.387 650.277, 612.387 650.277, 602.387 650.277, 592.387 650.277, 582.387 650.277, 572.387 650.277, 562.387 650.277, 552.387 650.277, 542.387 650.277, 536.020 " />
            <path fill="none" stroke-width="3.0" stroke-linecap="butt" stroke-opacity="1.0" stroke="rgb(0, 0, 0)" stroke-linejoin="round" d=" M 373.723, 504.110 383.723, 504.110 393.723, 504.110 394.996, 504.110 " />
            <path fill="none" stroke-width="3.0" stroke-linecap="butt" stroke-opacity="1.0" stroke="rgb(0, 0, 0)" stroke-linejoin="round" d=" M 394.996, 504.110 394.996, 514.110 394.996, 524.110 394.996, 534.110 394.996, 544.110 394.996, 554.110 394.996, 564.110 394.996, 574.110 394.996, 584.110 394.996, 594.110 394.996, 604.110 394.996, 614.110 394.996, 624.110 394.996, 634.110 394.996, 644.110 394.996, 654.110 394.996, 664.110 394.996, 674.110 394.996, 684.110 394.996, 689.193 " />
            <path fill="none" stroke-width="3.0" stroke-linecap="butt" stroke-opacity="1.0" stroke="rgb(0, 0, 0)" stroke-linejoin="round" d=" M 457.024, 370.560 455.701, 368.948 " />
            <path fill="none" stroke-width="3.0" stroke-linecap="butt" stroke-opacity="1.0" stroke="rgb(0, 0, 0)" stroke-linejoin="round" d=" M 501.363, 690.052 491.363, 690.052 481.363, 690.052 471.363, 690.052 461.363, 690.052 451.363, 690.052 441.363, 690.052 431.363, 690.052 421.363, 690.052 411.363, 690.052 401.363, 690.052 394.996, 690.052 " />
            <path fill="none" stroke-width="3.0" stroke-linecap="butt" stroke-opacity="1.0" stroke="rgb(0, 0, 0)" stroke-linejoin="round" d=" M 501.363, 695.571 501.363, 694.699 501.363, 690.052 " />
            <path fill="none" stroke-width="3.0" stroke-linecap="butt" stroke-opacity="1.0" stroke="rgb(0, 0, 0)" stroke-linejoin="round" d=" M 501.363, 689.193 491.363, 689.193 481.363, 689.193 471.363, 689.193 461.363, 689.193 451.363, 689.193 441.363, 689.193 431.363, 689.193 421.363, 689.193 411.363, 689.193 401.363, 689.193 394.996, 689.193 " />
            <path fill="none" stroke-width="3.0" stroke-linecap="butt" stroke-opacity="1.0" stroke="rgb(0, 0, 0)" stroke-linejoin="round" d=" M 501.363, 483.708 491.363, 483.708 481.363, 483.708 471.363, 483.708 461.363, 483.708 451.363, 483.708 441.363, 483.708 431.363, 483.708 421.363, 483.708 411.363, 483.708 401.363, 483.708 394.996, 483.708 " />
            <path fill="none" stroke-width="3.0" stroke-linecap="butt" stroke-opacity="1.0" stroke="rgb(0, 0, 0)" stroke-linejoin="round" d=" M 586.457, 621.114 586.457, 631.114 586.457, 641.114 586.457, 642.387 " />
            <path fill="none" stroke-width="3.0" stroke-linecap="butt" stroke-opacity="1.0" stroke="rgb(0, 0, 0)" stroke-linejoin="round" d=" M 586.457, 557.293 586.457, 567.293 586.457, 577.293 586.457, 587.293 586.457, 597.293 586.457, 607.293 586.457, 617.293 586.457, 621.114 " />
            <path fill="none" stroke-width="3.0" stroke-linecap="butt" stroke-opacity="1.0" stroke="rgb(0, 0, 0)" stroke-linejoin="round" d=" M 586.457, 536.020 586.457, 546.020 586.457, 556.020 586.457, 557.293 " />
            <path fill="none" stroke-width="3.0" stroke-linecap="butt" stroke-opacity="1.0" stroke="rgb(0, 0, 0)" stroke-linejoin="round" d=" M 565.184, 621.114 575.184, 621.114 585.184, 621.114 586.457, 621.114 " />
            <path fill="none" stroke-width="3.0" stroke-linecap="butt" stroke-opacity="1.0" stroke="rgb(0, 0, 0)" stroke-linejoin="round" d=" M 586.457, 642.387 596.457, 642.387 606.457, 642.387 616.457, 642.387 626.457, 642.387 636.457, 642.387 646.457, 642.387 650.277, 642.387 " />
            <path fill="none" stroke-width="3.0" stroke-linecap="butt" stroke-opacity="1.0" stroke="rgb(0, 0, 0)" stroke-linejoin="round" d=" M 650.277, 536.020 640.277, 536.020 630.277, 536.020 620.277, 536.020 610.277, 536.020 600.277, 536.020 590.277, 536.020 586.457, 536.020 " />
        </g>
    </g>
    <g id="ViewLayer_TechnicalLines" inkscape:groupmode="lineset" inkscape:label="ViewLayer_TechnicalLines">
        <g inkscape:groupmode="layer" id="strokes" inkscape:label="strokes">
            <path fill="none" stroke-width="3.0" stroke-linecap="butt" stroke-opacity="1.0" stroke="rgb(0, 0, 0)" stroke-linejoin="round" d=" M 501.363, 483.708 501.363, 482.836 491.363, 482.836 481.363, 482.836 471.363, 482.836 461.363, 482.836 451.363, 482.836 441.363, 482.836 431.363, 482.836 421.363, 482.836 411.363, 482.836 401.363, 482.836 394.996, 482.836 " />
            <path fill="none" stroke-width="3.0" stroke-linecap="butt" stroke-opacity="1.0" stroke="rgb(0, 0, 0)" stroke-linejoin="round" d=" M 394.996, 483.708 394.996, 489.214 394.996, 499.214 394.996, 504.110 " />
            <path fill="none" stroke-width="3.0" stroke-linecap="butt" stroke-opacity="1.0" stroke="rgb(0, 0, 0)" stroke-linejoin="round" d=" M 501.363, 689.193 501.363, 679.193 501.363, 669.193 501.363, 659.193 501.363, 649.193 501.363, 639.193 501.363, 629.193 501.363, 619.193 501.363, 609.193 501.363, 599.193 501.363, 589.193 501.363, 579.193 501.363, 569.193 501.363, 559.193 501.363, 549.193 501.363, 539.193 501.363, 529.193 501.363, 519.193 501.363, 509.193 501.363, 499.193 501.363, 489.214 501.363, 483.708 " />
            <path fill="none" stroke-width="3.0" stroke-linecap="butt" stroke-opacity="1.0" stroke="rgb(0, 0, 0)" stroke-linejoin="round" d=" M 394.996, 690.052 394.996, 700.052 394.996, 710.052 394.996, 710.600 394.996, 720.600 394.996, 730.600 394.996, 740.600 394.996, 743.636 404.996, 743.636 414.996, 743.636 424.996, 743.636 434.996, 743.636 444.996, 743.636 454.996, 743.636 464.996, 743.636 474.996, 743.636 484.996, 743.636 494.996, 743.636 501.363, 743.636 501.363, 733.636 501.363, 723.636 501.363, 713.636 501.363, 710.600 501.363, 700.600 501.363, 695.571 " />
            <path fill="none" stroke-width="3.0" stroke-linecap="butt" stroke-opacity="1.0" stroke="rgb(0, 0, 0)" stroke-linejoin="round" d=" M 501.363, 710.600 491.363, 710.600 481.363, 710.600 471.363, 710.600 461.363, 710.600 451.363, 710.600 441.363, 710.600 431.363, 710.600 421.363, 710.600 411.363, 710.600 401.363, 710.600 394.996, 710.600 " />
            <path fill="none" stroke-width="3.0" stroke-linecap="butt" stroke-opacity="1.0" stroke="rgb(0, 0, 0)" stroke-linejoin="round" d=" M 416.270, 785.432 416.270, 795.432 416.270, 796.444 426.270, 796.444 436.270, 796.444 446.270, 796.444 456.270, 796.444 466.270, 796.444 476.270, 796.444 480.090, 796.444 480.090, 786.444 480.090, 785.432 480.090, 775.896 480.090, 765.896 480.090, 764.884 470.090, 764.884 460.090, 764.884 450.090, 764.884 440.090, 764.884 430.090, 764.884 420.090, 764.884 416.270, 764.884 416.270, 774.884 416.270, 775.896 416.270, 785.432 " />
            <path fill="none" stroke-width="3.0" stroke-linecap="butt" stroke-opacity="1.0" stroke="rgb(0, 0, 0)" stroke-linejoin="round" d=" M 480.090, 785.432 470.090, 785.432 460.090, 785.432 450.090, 785.432 440.090, 785.432 430.090, 785.432 420.090, 785.432 416.270, 785.432 " />
            <path fill="none" stroke-width="3.0" stroke-linecap="butt" stroke-opacity="1.0" stroke="rgb(0, 0, 0)" stroke-linejoin="round" d=" M 501.363, 461.563 501.363, 471.563 501.363, 481.563 501.363, 491.563 501.363, 501.563 501.363, 504.110 511.363, 504.110 521.363, 504.110 522.637, 504.110 522.637, 494.110 522.637, 484.110 522.637, 474.110 522.637, 464.110 522.637, 461.563 512.637, 461.563 502.637, 461.563 501.363, 461.563 " />
            <path fill="none" stroke-width="3.0" stroke-linecap="butt" stroke-opacity="1.0" stroke="rgb(0, 0, 0)" stroke-linejoin="round" d=" M 394.996, 482.836 394.996, 472.836 394.996, 462.836 394.996, 461.563 384.996, 461.563 374.996, 461.563 373.723, 461.563 373.723, 471.563 373.723, 481.563 373.723, 491.563 373.723, 501.563 373.723, 504.110 " />
            <path fill="none" stroke-width="3.0" stroke-linecap="butt" stroke-opacity="1.0" stroke="rgb(0, 0, 0)" stroke-linejoin="round" d=" M 586.457, 557.293 576.457, 557.293 566.457, 557.293 565.184, 557.293 565.184, 567.293 565.184, 577.293 565.184, 587.293 565.184, 597.293 565.184, 607.293 565.184, 617.293 565.184, 621.114 " />
            <path fill="none" stroke-width="3.0" stroke-linecap="butt" stroke-opacity="1.0" stroke="rgb(0, 0, 0)" stroke-linejoin="round" d=" M 442.270, 367.625 440.658, 368.948 439.336, 370.560 438.353, 372.399 437.747, 374.394 437.543, 376.469 437.747, 378.545 438.353, 380.540 439.336, 382.379 " />
            <path fill="none" stroke-width="3.0" stroke-linecap="butt" stroke-opacity="1.0" stroke="rgb(0, 0, 0)" stroke-linejoin="round" d=" M 455.701, 368.948 454.089, 367.625 452.250, 366.642 450.255, 366.037 448.180, 365.833 446.105, 366.037 444.109, 366.642 442.270, 367.625 " />
            <path fill="none" stroke-width="3.0" stroke-linecap="butt" stroke-opacity="1.0" stroke="rgb(0, 0, 0)" stroke-linejoin="round" d=" M 458.816, 376.469 458.612, 374.394 458.007, 372.399 457.024, 370.560 " />
            <path fill="none" stroke-width="3.0" stroke-linecap="butt" stroke-opacity="1.0" stroke="rgb(0, 0, 0)" stroke-linejoin="round" d=" M 458.612, 378.545 458.816, 376.469 " />
            <path fill="none" stroke-width="3.0" stroke-linecap="butt" stroke-opacity="1.0" stroke="rgb(0, 0, 0)" stroke-linejoin="round" d=" M 452.250, 386.296 454.089, 385.314 455.701, 383.991 457.024, 382.379 458.007, 380.540 458.612, 378.545 " />
            <path fill="none" stroke-width="3.0" stroke-linecap="butt" stroke-opacity="1.0" stroke="rgb(0, 0, 0)" stroke-linejoin="round" d=" M 450.255, 386.902 452.250, 386.296 " />
            <path fill="none" stroke-width="3.0" stroke-linecap="butt" stroke-opacity="1.0" stroke="rgb(0, 0, 0)" stroke-linejoin="round" d=" M 444.109, 386.296 446.105, 386.902 448.180, 387.106 450.255, 386.902 " />
            <path fill="none" stroke-width="3.0" stroke-linecap="butt" stroke-opacity="1.0" stroke="rgb(0, 0, 0)" stroke-linejoin="round" d=" M 439.336, 382.379 440.658, 383.991 442.270, 385.314 444.109, 386.296 " />
            <path fill="none" stroke-width="3.0" stroke-linecap="butt" stroke-opacity="1.0" stroke="rgb(0, 0, 0)" stroke-linejoin="round" d=" M 456.480, 228.373 448.180, 227.556 439.879, 228.373 431.898, 230.794 424.542, 234.726 418.095, 240.017 412.803, 246.465 408.872, 253.820 406.451, 261.802 405.633, 270.102 406.451, 278.403 408.872, 286.384 412.803, 293.740 418.095, 300.188 424.542, 305.479 431.898, 309.411 439.879, 311.832 448.180, 312.649 456.480, 311.832 464.462, 309.411 471.818, 305.479 478.265, 300.188 483.556, 293.740 487.488, 286.384 489.909, 278.403 490.727, 270.102 489.909, 261.802 487.488, 253.820 483.556, 246.465 478.265, 240.017 471.818, 234.726 464.462, 230.794 456.480, 228.373 " />
            <path fill="none" stroke-width="3.0" stroke-linecap="butt" stroke-opacity="1.0" stroke="rgb(0, 0, 0)" stroke-linejoin="round" d=" M 650.277, 642.387 650.277, 632.387 650.277, 622.387 650.277, 612.387 650.277, 602.387 650.277, 592.387 650.277, 582.387 650.277, 572.387 650.277, 562.387 650.277, 552.387 650.277, 542.387 650.277, 536.020 " />
            <path fill="none" stroke-width="3.0" stroke-linecap="butt" stroke-opacity="1.0" stroke="rgb(0, 0, 0)" stroke-linejoin="round" d=" M 373.723, 504.110 383.723, 504.110 393.723, 504.110 394.996, 504.110 " />
            <path fill="none" stroke-width="3.0" stroke-linecap="butt" stroke-opacity="1.0" stroke="rgb(0, 0, 0)" stroke-linejoin="round" d=" M 394.996, 504.110 394.996, 514.110 394.996, 524.110 394.996, 534.110 394.996, 544.110 394.996, 554.110 394.996, 564.110 394.996, 574.110 394.996, 584.110 394.996, 594.110 394.996, 604.110 394.996, 614.110 394.996, 624.110 394.996, 634.110 394.996, 644.110 394.996, 654.110 394.996, 664.110 394.996, 674.110 394.996, 684.110 394.996, 689.193 " />
            <path fill="none" stroke-width="3.0" stroke-linecap="butt" stroke-opacity="1.0" stroke="rgb(0, 0, 0)" stroke-linejoin="round" d=" M 457.024, 370.560 455.701, 368.948 " />
            <path fill="none" stroke-width="3.0" stroke-linecap="butt" stroke-opacity="1.0" stroke="rgb(0, 0, 0)" stroke-linejoin="round" d=" M 501.363, 690.052 491.363, 690.052 481.363, 690.052 471.363, 690.052 461.363, 690.052 451.363, 690.052 441.363, 690.052 431.363, 690.052 421.363, 690.052 411.363, 690.052 401.363, 690.052 394.996, 690.052 " />
            <path fill="none" stroke-width="3.0" stroke-linecap="butt" stroke-opacity="1.0" stroke="rgb(0, 0, 0)" stroke-linejoin="round" d=" M 501.363, 695.571 501.363, 694.699 501.363, 690.052 " />
            <path fill="none" stroke-width="3.0" stroke-linecap="butt" stroke-opacity="1.0" stroke="rgb(0, 0, 0)" stroke-linejoin="round" d=" M 501.363, 689.193 491.363, 689.193 481.363, 689.193 471.363, 689.193 461.363, 689.193 451.363, 689.193 441.363, 689.193 431.363, 689.193 421.363, 689.193 411.363, 689.193 401.363, 689.193 394.996, 689.193 " />
            <path fill="none" stroke-width="3.0" stroke-linecap="butt" stroke-opacity="1.0" stroke="rgb(0, 0, 0)" stroke-linejoin="round" d=" M 501.363, 483.708 491.363, 483.708 481.363, 483.708 471.363, 483.708 461.363, 483.708 451.363, 483.708 441.363, 483.708 431.363, 483.708 421.363, 483.708 411.363, 483.708 401.363, 483.708 394.996, 483.708 " />
            <path fill="none" stroke-width="3.0" stroke-linecap="butt" stroke-opacity="1.0" stroke="rgb(0, 0, 0)" stroke-linejoin="round" d=" M 586.457, 621.114 586.457, 631.114 586.457, 641.114 586.457, 642.387 " />
            <path fill="none" stroke-width="3.0" stroke-linecap="butt" stroke-opacity="1.0" stroke="rgb(0, 0, 0)" stroke-linejoin="round" d=" M 586.457, 557.293 586.457, 567.293 586.457, 577.293 586.457, 587.293 586.457, 597.293 586.457, 607.293 586.457, 617.293 586.457, 621.114 " />
            <path fill="none" stroke-width="3.0" stroke-linecap="butt" stroke-opacity="1.0" stroke="rgb(0, 0, 0)" stroke-linejoin="round" d=" M 586.457, 536.020 586.457, 546.020 586.457, 556.020 586.457, 557.293 " />
            <path fill="none" stroke-width="3.0" stroke-linecap="butt" stroke-opacity="1.0" stroke="rgb(0, 0, 0)" stroke-linejoin="round" d=" M 565.184, 621.114 575.184, 621.114 585.184, 621.114 586.457, 621.114 " />
            <path fill="none" stroke-width="3.0" stroke-linecap="butt" stroke-opacity="1.0" stroke="rgb(0, 0, 0)" stroke-linejoin="round" d=" M 586.457, 642.387 596.457, 642.387 606.457, 642.387 616.457, 642.387 626.457, 642.387 636.457, 642.387 646.457, 642.387 650.277, 642.387 " />
            <path fill="none" stroke-width="3.0" stroke-linecap="butt" stroke-opacity="1.0" stroke="rgb(0, 0, 0)" stroke-linejoin="round" d=" M 650.277, 536.020 640.277, 536.020 630.277, 536.020 620.277, 536.020 610.277, 536.020 600.277, 536.020 590.277, 536.020 586.457, 536.020 " />
        </g>
    </g>
    <g id="ViewLayer_TechnicalLines.001" inkscape:groupmode="lineset" inkscape:label="ViewLayer_TechnicalLines.001">
        <g inkscape:groupmode="layer" id="strokes" inkscape:label="strokes">
            <path fill="none" stroke-width="1.5" stroke-linecap="round" stroke-opacity="1.0" stroke="rgb(0, 0, 0)" stroke-linejoin="round" d=" M 501.363, 483.708 501.363, 482.836 491.363, 482.836 481.363, 482.836 471.363, 482.836 461.363, 482.836 451.363, 482.836 441.363, 482.836 431.363, 482.836 421.363, 482.836 411.363, 482.836 401.363, 482.836 394.996, 482.836 " />
            <path fill="none" stroke-width="1.5" stroke-linecap="round" stroke-opacity="1.0" stroke="rgb(0, 0, 0)" stroke-linejoin="round" d=" M 394.996, 483.708 394.996, 489.214 394.996, 499.214 394.996, 504.110 " />
            <path fill="none" stroke-width="1.5" stroke-linecap="round" stroke-opacity="1.0" stroke="rgb(0, 0, 0)" stroke-linejoin="round" d=" M 501.363, 689.193 501.363, 679.193 501.363, 669.193 501.363, 659.193 501.363, 649.193 501.363, 639.193 501.363, 629.193 501.363, 619.193 501.363, 609.193 501.363, 599.193 501.363, 589.193 501.363, 579.193 501.363, 569.193 501.363, 559.193 501.363, 549.193 501.363, 539.193 501.363, 529.193 501.363, 519.193 501.363, 509.193 501.363, 499.193 501.363, 489.214 501.363, 483.708 " />
            <path fill="none" stroke-width="1.5" stroke-linecap="round" stroke-opacity="1.0" stroke="rgb(0, 0, 0)" stroke-linejoin="round" d=" M 394.996, 690.052 394.996, 700.052 394.996, 710.052 394.996, 710.600 394.996, 720.600 394.996, 730.600 394.996, 740.600 394.996, 743.636 404.996, 743.636 414.996, 743.636 424.996, 743.636 434.996, 743.636 444.996, 743.636 454.996, 743.636 464.996, 743.636 474.996, 743.636 484.996, 743.636 494.996, 743.636 501.363, 743.636 501.363, 733.636 501.363, 723.636 501.363, 713.636 501.363, 710.600 501.363, 700.600 501.363, 695.571 " />
            <path fill="none" stroke-width="1.5" stroke-linecap="round" stroke-opacity="1.0" stroke="rgb(0, 0, 0)" stroke-linejoin="round" d=" M 501.363, 710.600 491.363, 710.600 481.363, 710.600 471.363, 710.600 461.363, 710.600 451.363, 710.600 441.363, 710.600 431.363, 710.600 421.363, 710.600 411.363, 710.600 401.363, 710.600 394.996, 710.600 " />
            <path fill="none" stroke-width="1.5" stroke-linecap="round" stroke-opacity="1.0" stroke="rgb(0, 0, 0)" stroke-linejoin="round" d=" M 416.270, 785.432 416.270, 795.432 416.270, 796.444 426.270, 796.444 436.270, 796.444 446.270, 796.444 456.270, 796.444 466.270, 796.444 476.270, 796.444 480.090, 796.444 480.090, 786.444 480.090, 785.432 480.090, 775.896 480.090, 765.896 480.090, 764.884 470.090, 764.884 460.090, 764.884 450.090, 764.884 440.090, 764.884 430.090, 764.884 420.090, 764.884 416.270, 764.884 416.270, 774.884 416.270, 775.896 416.270, 785.432 " />
            <path fill="none" stroke-width="1.5" stroke-linecap="round" stroke-opacity="1.0" stroke="rgb(0, 0, 0)" stroke-linejoin="round" d=" M 480.090, 785.432 470.090, 785.432 460.090, 785.432 450.090, 785.432 440.090, 785.432 430.090, 785.432 420.090, 785.432 416.270, 785.432 " />
            <path fill="none" stroke-width="1.5" stroke-linecap="round" stroke-opacity="1.0" stroke="rgb(0, 0, 0)" stroke-linejoin="round" d=" M 501.363, 461.563 501.363, 471.563 501.363, 481.563 501.363, 491.563 501.363, 501.563 501.363, 504.110 511.363, 504.110 521.363, 504.110 522.637, 504.110 522.637, 494.110 522.637, 484.110 522.637, 474.110 522.637, 464.110 522.637, 461.563 512.637, 461.563 502.637, 461.563 501.363, 461.563 " />
            <path fill="none" stroke-width="1.5" stroke-linecap="round" stroke-opacity="1.0" stroke="rgb(0, 0, 0)" stroke-linejoin="round" d=" M 394.996, 482.836 394.996, 472.836 394.996, 462.836 394.996, 461.563 384.996, 461.563 374.996, 461.563 373.723, 461.563 373.723, 471.563 373.723, 481.563 373.723, 491.563 373.723, 501.563 373.723, 504.110 " />
            <path fill="none" stroke-width="1.5" stroke-linecap="round" stroke-opacity="1.0" stroke="rgb(0, 0, 0)" stroke-linejoin="round" d=" M 586.457, 557.293 576.457, 557.293 566.457, 557.293 565.184, 557.293 565.184, 567.293 565.184, 577.293 565.184, 587.293 565.184, 597.293 565.184, 607.293 565.184, 617.293 565.184, 621.114 " />
            <path fill="none" stroke-width="1.5" stroke-linecap="round" stroke-opacity="1.0" stroke="rgb(0, 0, 0)" stroke-linejoin="round" d=" M 442.270, 367.625 440.658, 368.948 439.336, 370.560 438.353, 372.399 437.747, 374.394 437.543, 376.469 437.747, 378.545 438.353, 380.540 439.336, 382.379 " />
            <path fill="none" stroke-width="1.5" stroke-linecap="round" stroke-opacity="1.0" stroke="rgb(0, 0, 0)" stroke-linejoin="round" d=" M 455.701, 368.948 454.089, 367.625 452.250, 366.642 450.255, 366.037 448.180, 365.833 446.105, 366.037 444.109, 366.642 442.270, 367.625 " />
            <path fill="none" stroke-width="1.5" stroke-linecap="round" stroke-opacity="1.0" stroke="rgb(0, 0, 0)" stroke-linejoin="round" d=" M 458.816, 376.469 458.612, 374.394 458.007, 372.399 457.024, 370.560 " />
            <path fill="none" stroke-width="1.5" stroke-linecap="round" stroke-opacity="1.0" stroke="rgb(0, 0, 0)" stroke-linejoin="round" d=" M 458.612, 378.545 458.816, 376.469 " />
            <path fill="none" stroke-width="1.5" stroke-linecap="round" stroke-opacity="1.0" stroke="rgb(0, 0, 0)" stroke-linejoin="round" d=" M 452.250, 386.296 454.089, 385.314 455.701, 383.991 457.024, 382.379 458.007, 380.540 458.612, 378.545 " />
            <path fill="none" stroke-width="1.5" stroke-linecap="round" stroke-opacity="1.0" stroke="rgb(0, 0, 0)" stroke-linejoin="round" d=" M 450.255, 386.902 452.250, 386.296 " />
            <path fill="none" stroke-width="1.5" stroke-linecap="round" stroke-opacity="1.0" stroke="rgb(0, 0, 0)" stroke-linejoin="round" d=" M 444.109, 386.296 446.105, 386.902 448.180, 387.106 450.255, 386.902 " />
            <path fill="none" stroke-width="1.5" stroke-linecap="round" stroke-opacity="1.0" stroke="rgb(0, 0, 0)" stroke-linejoin="round" d=" M 439.336, 382.379 440.658, 383.991 442.270, 385.314 444.109, 386.296 " />
            <path fill="none" stroke-width="1.5" stroke-linecap="round" stroke-opacity="1.0" stroke="rgb(0, 0, 0)" stroke-linejoin="round" d=" M 456.480, 228.373 448.180, 227.556 439.879, 228.373 431.898, 230.794 424.542, 234.726 418.095, 240.017 412.803, 246.465 408.872, 253.820 406.451, 261.802 405.633, 270.102 406.451, 278.403 408.872, 286.384 412.803, 293.740 418.095, 300.188 424.542, 305.479 431.898, 309.411 439.879, 311.832 448.180, 312.649 456.480, 311.832 464.462, 309.411 471.818, 305.479 478.265, 300.188 483.556, 293.740 487.488, 286.384 489.909, 278.403 490.727, 270.102 489.909, 261.802 487.488, 253.820 483.556, 246.465 478.265, 240.017 471.818, 234.726 464.462, 230.794 456.480, 228.373 " />
            <path fill="none" stroke-width="1.5" stroke-linecap="round" stroke-opacity="1.0" stroke="rgb(0, 0, 0)" stroke-linejoin="round" d=" M 650.277, 642.387 650.277, 632.387 650.277, 622.387 650.277, 612.387 650.277, 602.387 650.277, 592.387 650.277, 582.387 650.277, 572.387 650.277, 562.387 650.277, 552.387 650.277, 542.387 650.277, 536.020 " />
            <path fill="none" stroke-width="1.5" stroke-linecap="round" stroke-opacity="1.0" stroke="rgb(0, 0, 0)" stroke-linejoin="round" d=" M 373.723, 504.110 383.723, 504.110 393.723, 504.110 394.996, 504.110 " />
            <path fill="none" stroke-width="1.5" stroke-linecap="round" stroke-opacity="1.0" stroke="rgb(0, 0, 0)" stroke-linejoin="round" d=" M 394.996, 504.110 394.996, 514.110 394.996, 524.110 394.996, 534.110 394.996, 544.110 394.996, 554.110 394.996, 564.110 394.996, 574.110 394.996, 584.110 394.996, 594.110 394.996, 604.110 394.996, 614.110 394.996, 624.110 394.996, 634.110 394.996, 644.110 394.996, 654.110 394.996, 664.110 394.996, 674.110 394.996, 684.110 394.996, 689.193 " />
            <path fill="none" stroke-width="1.5" stroke-linecap="round" stroke-opacity="1.0" stroke="rgb(0, 0, 0)" stroke-linejoin="round" d=" M 457.024, 370.560 455.701, 368.948 " />
            <path fill="none" stroke-width="1.5" stroke-linecap="round" stroke-opacity="1.0" stroke="rgb(0, 0, 0)" stroke-linejoin="round" d=" M 501.363, 690.052 491.363, 690.052 481.363, 690.052 471.363, 690.052 461.363, 690.052 451.363, 690.052 441.363, 690.052 431.363, 690.052 421.363, 690.052 411.363, 690.052 401.363, 690.052 394.996, 690.052 " />
            <path fill="none" stroke-width="1.5" stroke-linecap="round" stroke-opacity="1.0" stroke="rgb(0, 0, 0)" stroke-linejoin="round" d=" M 501.363, 695.571 501.363, 694.699 501.363, 690.052 " />
            <path fill="none" stroke-width="1.5" stroke-linecap="round" stroke-opacity="1.0" stroke="rgb(0, 0, 0)" stroke-linejoin="round" d=" M 501.363, 689.193 491.363, 689.193 481.363, 689.193 471.363, 689.193 461.363, 689.193 451.363, 689.193 441.363, 689.193 431.363, 689.193 421.363, 689.193 411.363, 689.193 401.363, 689.193 394.996, 689.193 " />
            <path fill="none" stroke-width="1.5" stroke-linecap="round" stroke-opacity="1.0" stroke="rgb(0, 0, 0)" stroke-linejoin="round" d=" M 501.363, 483.708 491.363, 483.708 481.363, 483.708 471.363, 483.708 461.363, 483.708 451.363, 483.708 441.363, 483.708 431.363, 483.708 421.363, 483.708 411.363, 483.708 401.363, 483.708 394.996, 483.708 " />
            <path fill="none" stroke-width="1.5" stroke-linecap="round" stroke-opacity="1.0" stroke="rgb(0, 0, 0)" stroke-linejoin="round" d=" M 586.457, 621.114 586.457, 631.114 586.457, 641.114 586.457, 642.387 " />
            <path fill="none" stroke-width="1.5" stroke-linecap="round" stroke-opacity="1.0" stroke="rgb(0, 0, 0)" stroke-linejoin="round" d=" M 586.457, 557.293 586.457, 567.293 586.457, 577.293 586.457, 587.293 586.457, 597.293 586.457, 607.293 586.457, 617.293 586.457, 621.114 " />
            <path fill="none" stroke-width="1.5" stroke-linecap="round" stroke-opacity="1.0" stroke="rgb(0, 0, 0)" stroke-linejoin="round" d=" M 586.457, 536.020 586.457, 546.020 586.457, 556.020 586.457, 557.293 " />
            <path fill="none" stroke-width="1.5" stroke-linecap="round" stroke-opacity="1.0" stroke="rgb(0, 0, 0)" stroke-linejoin="round" d=" M 565.184, 621.114 575.184, 621.114 585.184, 621.114 586.457, 621.114 " />
            <path fill="none" stroke-width="1.5" stroke-linecap="round" stroke-opacity="1.0" stroke="rgb(0, 0, 0)" stroke-linejoin="round" d=" M 586.457, 642.387 596.457, 642.387 606.457, 642.387 616.457, 642.387 626.457, 642.387 636.457, 642.387 646.457, 642.387 650.277, 642.387 " />
            <path fill="none" stroke-width="1.5" stroke-linecap="round" stroke-opacity="1.0" stroke="rgb(0, 0, 0)" stroke-linejoin="round" d=" M 650.277, 536.020 640.277, 536.020 630.277, 536.020 620.277, 536.020 610.277, 536.020 600.277, 536.020 590.277, 536.020 586.457, 536.020 " />
        </g>
    </g>
    <g id="ViewLayer_TechnicalLines.002" inkscape:groupmode="lineset" inkscape:label="ViewLayer_TechnicalLines.002">
        <g inkscape:groupmode="layer" id="strokes" inkscape:label="strokes">
            <path fill="none" stroke-width="1.5" stroke-linecap="round" stroke-opacity="1.0" stroke="rgb(0, 0, 0)" stroke-linejoin="round" d=" M 501.363, 483.708 501.363, 482.836 491.363, 482.836 481.363, 482.836 471.363, 482.836 461.363, 482.836 451.363, 482.836 441.363, 482.836 431.363, 482.836 421.363, 482.836 411.363, 482.836 401.363, 482.836 394.996, 482.836 " />
            <path fill="none" stroke-width="1.5" stroke-linecap="round" stroke-opacity="1.0" stroke="rgb(0, 0, 0)" stroke-linejoin="round" d=" M 394.996, 483.708 394.996, 489.214 394.996, 499.214 394.996, 504.110 " />
            <path fill="none" stroke-width="1.5" stroke-linecap="round" stroke-opacity="1.0" stroke="rgb(0, 0, 0)" stroke-linejoin="round" d=" M 501.363, 689.193 501.363, 679.193 501.363, 669.193 501.363, 659.193 501.363, 649.193 501.363, 639.193 501.363, 629.193 501.363, 619.193 501.363, 609.193 501.363, 599.193 501.363, 589.193 501.363, 579.193 501.363, 569.193 501.363, 559.193 501.363, 549.193 501.363, 539.193 501.363, 529.193 501.363, 519.193 501.363, 509.193 501.363, 499.193 501.363, 489.214 501.363, 483.708 " />
            <path fill="none" stroke-width="1.5" stroke-linecap="round" stroke-opacity="1.0" stroke="rgb(0, 0, 0)" stroke-linejoin="round" d=" M 394.996, 690.052 394.996, 700.052 394.996, 710.052 394.996, 710.600 394.996, 720.600 394.996, 730.600 394.996, 740.600 394.996, 743.636 404.996, 743.636 414.996, 743.636 424.996, 743.636 434.996, 743.636 444.996, 743.636 454.996, 743.636 464.996, 743.636 474.996, 743.636 484.996, 743.636 494.996, 743.636 501.363, 743.636 501.363, 733.636 501.363, 723.636 501.363, 713.636 501.363, 710.600 501.363, 700.600 501.363, 695.571 " />
            <path fill="none" stroke-width="1.5" stroke-linecap="round" stroke-opacity="1.0" stroke="rgb(0, 0, 0)" stroke-linejoin="round" d=" M 501.363, 710.600 491.363, 710.600 481.363, 710.600 471.363, 710.600 461.363, 710.600 451.363, 710.600 441.363, 710.600 431.363, 710.600 421.363, 710.600 411.363, 710.600 401.363, 710.600 394.996, 710.600 " />
            <path fill="none" stroke-width="1.5" stroke-linecap="round" stroke-opacity="1.0" stroke="rgb(0, 0, 0)" stroke-linejoin="round" d=" M 416.270, 785.432 416.270, 795.432 416.270, 796.444 426.270, 796.444 436.270, 796.444 446.270, 796.444 456.270, 796.444 466.270, 796.444 476.270, 796.444 480.090, 796.444 480.090, 786.444 480.090, 785.432 480.090, 775.896 480.090, 765.896 480.090, 764.884 470.090, 764.884 460.090, 764.884 450.090, 764.884 440.090, 764.884 430.090, 764.884 420.090, 764.884 416.270, 764.884 416.270, 774.884 416.270, 775.896 416.270, 785.432 " />
            <path fill="none" stroke-width="1.5" stroke-linecap="round" stroke-opacity="1.0" stroke="rgb(0, 0, 0)" stroke-linejoin="round" d=" M 480.090, 785.432 470.090, 785.432 460.090, 785.432 450.090, 785.432 440.090, 785.432 430.090, 785.432 420.090, 785.432 416.270, 785.432 " />
            <path fill="none" stroke-width="1.5" stroke-linecap="round" stroke-opacity="1.0" stroke="rgb(0, 0, 0)" stroke-linejoin="round" d=" M 501.363, 461.563 501.363, 471.563 501.363, 481.563 501.363, 491.563 501.363, 501.563 501.363, 504.110 511.363, 504.110 521.363, 504.110 522.637, 504.110 522.637, 494.110 522.637, 484.110 522.637, 474.110 522.637, 464.110 522.637, 461.563 512.637, 461.563 502.637, 461.563 501.363, 461.563 " />
            <path fill="none" stroke-width="1.5" stroke-linecap="round" stroke-opacity="1.0" stroke="rgb(0, 0, 0)" stroke-linejoin="round" d=" M 394.996, 482.836 394.996, 472.836 394.996, 462.836 394.996, 461.563 384.996, 461.563 374.996, 461.563 373.723, 461.563 373.723, 471.563 373.723, 481.563 373.723, 491.563 373.723, 501.563 373.723, 504.110 " />
            <path fill="none" stroke-width="1.5" stroke-linecap="round" stroke-opacity="1.0" stroke="rgb(0, 0, 0)" stroke-linejoin="round" d=" M 586.457, 557.293 576.457, 557.293 566.457, 557.293 565.184, 557.293 565.184, 567.293 565.184, 577.293 565.184, 587.293 565.184, 597.293 565.184, 607.293 565.184, 617.293 565.184, 621.114 " />
            <path fill="none" stroke-width="1.5" stroke-linecap="round" stroke-opacity="1.0" stroke="rgb(0, 0, 0)" stroke-linejoin="round" d=" M 442.270, 367.625 440.658, 368.948 439.336, 370.560 438.353, 372.399 437.747, 374.394 437.543, 376.469 437.747, 378.545 438.353, 380.540 439.336, 382.379 " />
            <path fill="none" stroke-width="1.5" stroke-linecap="round" stroke-opacity="1.0" stroke="rgb(0, 0, 0)" stroke-linejoin="round" d=" M 455.701, 368.948 454.089, 367.625 452.250, 366.642 450.255, 366.037 448.180, 365.833 446.105, 366.037 444.109, 366.642 442.270, 367.625 " />
            <path fill="none" stroke-width="1.5" stroke-linecap="round" stroke-opacity="1.0" stroke="rgb(0, 0, 0)" stroke-linejoin="round" d=" M 458.816, 376.469 458.612, 374.394 458.007, 372.399 457.024, 370.560 " />
            <path fill="none" stroke-width="1.5" stroke-linecap="round" stroke-opacity="1.0" stroke="rgb(0, 0, 0)" stroke-linejoin="round" d=" M 458.612, 378.545 458.816, 376.469 " />
            <path fill="none" stroke-width="1.5" stroke-linecap="round" stroke-opacity="1.0" stroke="rgb(0, 0, 0)" stroke-linejoin="round" d=" M 452.250, 386.296 454.089, 385.314 455.701, 383.991 457.024, 382.379 458.007, 380.540 458.612, 378.545 " />
            <path fill="none" stroke-width="1.5" stroke-linecap="round" stroke-opacity="1.0" stroke="rgb(0, 0, 0)" stroke-linejoin="round" d=" M 450.255, 386.902 452.250, 386.296 " />
            <path fill="none" stroke-width="1.5" stroke-linecap="round" stroke-opacity="1.0" stroke="rgb(0, 0, 0)" stroke-linejoin="round" d=" M 444.109, 386.296 446.105, 386.902 448.180, 387.106 450.255, 386.902 " />
            <path fill="none" stroke-width="1.5" stroke-linecap="round" stroke-opacity="1.0" stroke="rgb(0, 0, 0)" stroke-linejoin="round" d=" M 439.336, 382.379 440.658, 383.991 442.270, 385.314 444.109, 386.296 " />
            <path fill="none" stroke-width="1.5" stroke-linecap="round" stroke-opacity="1.0" stroke="rgb(0, 0, 0)" stroke-linejoin="round" d=" M 456.480, 228.373 448.180, 227.556 439.879, 228.373 431.898, 230.794 424.542, 234.726 418.095, 240.017 412.803, 246.465 408.872, 253.820 406.451, 261.802 405.633, 270.102 406.451, 278.403 408.872, 286.384 412.803, 293.740 418.095, 300.188 424.542, 305.479 431.898, 309.411 439.879, 311.832 448.180, 312.649 456.480, 311.832 464.462, 309.411 471.818, 305.479 478.265, 300.188 483.556, 293.740 487.488, 286.384 489.909, 278.403 490.727, 270.102 489.909, 261.802 487.488, 253.820 483.556, 246.465 478.265, 240.017 471.818, 234.726 464.462, 230.794 456.480, 228.373 " />
            <path fill="none" stroke-width="1.5" stroke-linecap="round" stroke-opacity="1.0" stroke="rgb(0, 0, 0)" stroke-linejoin="round" d=" M 650.277, 642.387 650.277, 632.387 650.277, 622.387 650.277, 612.387 650.277, 602.387 650.277, 592.387 650.277, 582.387 650.277, 572.387 650.277, 562.387 650.277, 552.387 650.277, 542.387 650.277, 536.020 " />
            <path fill="none" stroke-width="1.5" stroke-linecap="round" stroke-opacity="1.0" stroke="rgb(0, 0, 0)" stroke-linejoin="round" d=" M 373.723, 504.110 383.723, 504.110 393.723, 504.110 394.996, 504.110 " />
            <path fill="none" stroke-width="1.5" stroke-linecap="round" stroke-opacity="1.0" stroke="rgb(0, 0, 0)" stroke-linejoin="round" d=" M 394.996, 504.110 394.996, 514.110 394.996, 524.110 394.996, 534.110 394.996, 544.110 394.996, 554.110 394.996, 564.110 394.996, 574.110 394.996, 584.110 394.996, 594.110 394.996, 604.110 394.996, 614.110 394.996, 624.110 394.996, 634.110 394.996, 644.110 394.996, 654.110 394.996, 664.110 394.996, 674.110 394.996, 684.110 394.996, 689.193 " />
            <path fill="none" stroke-width="1.5" stroke-linecap="round" stroke-opacity="1.0" stroke="rgb(0, 0, 0)" stroke-linejoin="round" d=" M 457.024, 370.560 455.701, 368.948 " />
            <path fill="none" stroke-width="1.5" stroke-linecap="round" stroke-opacity="1.0" stroke="rgb(0, 0, 0)" stroke-linejoin="round" d=" M 501.363, 690.052 491.363, 690.052 481.363, 690.052 471.363, 690.052 461.363, 690.052 451.363, 690.052 441.363, 690.052 431.363, 690.052 421.363, 690.052 411.363, 690.052 401.363, 690.052 394.996, 690.052 " />
            <path fill="none" stroke-width="1.5" stroke-linecap="round" stroke-opacity="1.0" stroke="rgb(0, 0, 0)" stroke-linejoin="round" d=" M 501.363, 695.571 501.363, 694.699 501.363, 690.052 " />
            <path fill="none" stroke-width="1.5" stroke-linecap="round" stroke-opacity="1.0" stroke="rgb(0, 0, 0)" stroke-linejoin="round" d=" M 501.363, 689.193 491.363, 689.193 481.363, 689.193 471.363, 689.193 461.363, 689.193 451.363, 689.193 441.363, 689.193 431.363, 689.193 421.363, 689.193 411.363, 689.193 401.363, 689.193 394.996, 689.193 " />
            <path fill="none" stroke-width="1.5" stroke-linecap="round" stroke-opacity="1.0" stroke="rgb(0, 0, 0)" stroke-linejoin="round" d=" M 501.363, 483.708 491.363, 483.708 481.363, 483.708 471.363, 483.708 461.363, 483.708 451.363, 483.708 441.363, 483.708 431.363, 483.708 421.363, 483.708 411.363, 483.708 401.363, 483.708 394.996, 483.708 " />
            <path fill="none" stroke-width="1.5" stroke-linecap="round" stroke-opacity="1.0" stroke="rgb(0, 0, 0)" stroke-linejoin="round" d=" M 586.457, 621.114 586.457, 631.114 586.457, 641.114 586.457, 642.387 " />
            <path fill="none" stroke-width="1.5" stroke-linecap="round" stroke-opacity="1.0" stroke="rgb(0, 0, 0)" stroke-linejoin="round" d=" M 586.457, 557.293 586.457, 567.293 586.457, 577.293 586.457, 587.293 586.457, 597.293 586.457, 607.293 586.457, 617.293 586.457, 621.114 " />
            <path fill="none" stroke-width="1.5" stroke-linecap="round" stroke-opacity="1.0" stroke="rgb(0, 0, 0)" stroke-linejoin="round" d=" M 586.457, 536.020 586.457, 546.020 586.457, 556.020 586.457, 557.293 " />
            <path fill="none" stroke-width="1.5" stroke-linecap="round" stroke-opacity="1.0" stroke="rgb(0, 0, 0)" stroke-linejoin="round" d=" M 565.184, 621.114 575.184, 621.114 585.184, 621.114 586.457, 621.114 " />
            <path fill="none" stroke-width="1.5" stroke-linecap="round" stroke-opacity="1.0" stroke="rgb(0, 0, 0)" stroke-linejoin="round" d=" M 586.457, 642.387 596.457, 642.387 606.457, 642.387 616.457, 642.387 626.457, 642.387 636.457, 642.387 646.457, 642.387 650.277, 642.387 " />
            <path fill="none" stroke-width="1.5" stroke-linecap="round" stroke-opacity="1.0" stroke="rgb(0, 0, 0)" stroke-linejoin="round" d=" M 650.277, 536.020 640.277, 536.020 630.277, 536.020 620.277, 536.020 610.277, 536.020 600.277, 536.020 590.277, 536.020 586.457, 536.020 " />
        </g>
    </g>
    <g id="ViewLayer_TechnicalLines.003" inkscape:groupmode="lineset" inkscape:label="ViewLayer_TechnicalLines.003">
        <g inkscape:groupmode="layer" id="strokes" inkscape:label="strokes">
            <path fill="none" stroke-width="1.5" stroke-linecap="round" stroke-opacity="1.0" stroke="rgb(0, 0, 0)" stroke-linejoin="round" d=" M 501.363, 483.708 501.363, 482.836 491.363, 482.836 481.363, 482.836 471.363, 482.836 461.363, 482.836 451.363, 482.836 441.363, 482.836 431.363, 482.836 421.363, 482.836 411.363, 482.836 401.363, 482.836 394.996, 482.836 " />
            <path fill="none" stroke-width="1.5" stroke-linecap="round" stroke-opacity="1.0" stroke="rgb(0, 0, 0)" stroke-linejoin="round" d=" M 394.996, 483.708 394.996, 489.214 394.996, 499.214 394.996, 504.110 " />
            <path fill="none" stroke-width="1.5" stroke-linecap="round" stroke-opacity="1.0" stroke="rgb(0, 0, 0)" stroke-linejoin="round" d=" M 501.363, 689.193 501.363, 679.193 501.363, 669.193 501.363, 659.193 501.363, 649.193 501.363, 639.193 501.363, 629.193 501.363, 619.193 501.363, 609.193 501.363, 599.193 501.363, 589.193 501.363, 579.193 501.363, 569.193 501.363, 559.193 501.363, 549.193 501.363, 539.193 501.363, 529.193 501.363, 519.193 501.363, 509.193 501.363, 499.193 501.363, 489.214 501.363, 483.708 " />
            <path fill="none" stroke-width="1.5" stroke-linecap="round" stroke-opacity="1.0" stroke="rgb(0, 0, 0)" stroke-linejoin="round" d=" M 394.996, 690.052 394.996, 700.052 394.996, 710.052 394.996, 710.600 394.996, 720.600 394.996, 730.600 394.996, 740.600 394.996, 743.636 404.996, 743.636 414.996, 743.636 424.996, 743.636 434.996, 743.636 444.996, 743.636 454.996, 743.636 464.996, 743.636 474.996, 743.636 484.996, 743.636 494.996, 743.636 501.363, 743.636 501.363, 733.636 501.363, 723.636 501.363, 713.636 501.363, 710.600 501.363, 700.600 501.363, 695.571 " />
            <path fill="none" stroke-width="1.5" stroke-linecap="round" stroke-opacity="1.0" stroke="rgb(0, 0, 0)" stroke-linejoin="round" d=" M 501.363, 710.600 491.363, 710.600 481.363, 710.600 471.363, 710.600 461.363, 710.600 451.363, 710.600 441.363, 710.600 431.363, 710.600 421.363, 710.600 411.363, 710.600 401.363, 710.600 394.996, 710.600 " />
            <path fill="none" stroke-width="1.5" stroke-linecap="round" stroke-opacity="1.0" stroke="rgb(0, 0, 0)" stroke-linejoin="round" d=" M 416.270, 785.432 416.270, 795.432 416.270, 796.444 426.270, 796.444 436.270, 796.444 446.270, 796.444 456.270, 796.444 466.270, 796.444 476.270, 796.444 480.090, 796.444 480.090, 786.444 480.090, 785.432 480.090, 775.896 480.090, 765.896 480.090, 764.884 470.090, 764.884 460.090, 764.884 450.090, 764.884 440.090, 764.884 430.090, 764.884 420.090, 764.884 416.270, 764.884 416.270, 774.884 416.270, 775.896 416.270, 785.432 " />
            <path fill="none" stroke-width="1.5" stroke-linecap="round" stroke-opacity="1.0" stroke="rgb(0, 0, 0)" stroke-linejoin="round" d=" M 480.090, 785.432 470.090, 785.432 460.090, 785.432 450.090, 785.432 440.090, 785.432 430.090, 785.432 420.090, 785.432 416.270, 785.432 " />
            <path fill="none" stroke-width="1.5" stroke-linecap="round" stroke-opacity="1.0" stroke="rgb(0, 0, 0)" stroke-linejoin="round" d=" M 501.363, 461.563 501.363, 471.563 501.363, 481.563 501.363, 491.563 501.363, 501.563 501.363, 504.110 511.363, 504.110 521.363, 504.110 522.637, 504.110 522.637, 494.110 522.637, 484.110 522.637, 474.110 522.637, 464.110 522.637, 461.563 512.637, 461.563 502.637, 461.563 501.363, 461.563 " />
            <path fill="none" stroke-width="1.5" stroke-linecap="round" stroke-opacity="1.0" stroke="rgb(0, 0, 0)" stroke-linejoin="round" d=" M 394.996, 482.836 394.996, 472.836 394.996, 462.836 394.996, 461.563 384.996, 461.563 374.996, 461.563 373.723, 461.563 373.723, 471.563 373.723, 481.563 373.723, 491.563 373.723, 501.563 373.723, 504.110 " />
            <path fill="none" stroke-width="1.5" stroke-linecap="round" stroke-opacity="1.0" stroke="rgb(0, 0, 0)" stroke-linejoin="round" d=" M 586.457, 557.293 576.457, 557.293 566.457, 557.293 565.184, 557.293 565.184, 567.293 565.184, 577.293 565.184, 587.293 565.184, 597.293 565.184, 607.293 565.184, 617.293 565.184, 621.114 " />
            <path fill="none" stroke-width="1.5" stroke-linecap="round" stroke-opacity="1.0" stroke="rgb(0, 0, 0)" stroke-linejoin="round" d=" M 442.270, 367.625 440.658, 368.948 439.336, 370.560 438.353, 372.399 437.747, 374.394 437.543, 376.469 437.747, 378.545 438.353, 380.540 439.336, 382.379 " />
            <path fill="none" stroke-width="1.5" stroke-linecap="round" stroke-opacity="1.0" stroke="rgb(0, 0, 0)" stroke-linejoin="round" d=" M 455.701, 368.948 454.089, 367.625 452.250, 366.642 450.255, 366.037 448.180, 365.833 446.105, 366.037 444.109, 366.642 442.270, 367.625 " />
            <path fill="none" stroke-width="1.5" stroke-linecap="round" stroke-opacity="1.0" stroke="rgb(0, 0, 0)" stroke-linejoin="round" d=" M 458.816, 376.469 458.612, 374.394 458.007, 372.399 457.024, 370.560 " />
            <path fill="none" stroke-width="1.5" stroke-linecap="round" stroke-opacity="1.0" stroke="rgb(0, 0, 0)" stroke-linejoin="round" d=" M 458.612, 378.545 458.816, 376.469 " />
            <path fill="none" stroke-width="1.5" stroke-linecap="round" stroke-opacity="1.0" stroke="rgb(0, 0, 0)" stroke-linejoin="round" d=" M 452.250, 386.296 454.089, 385.314 455.701, 383.991 457.024, 382.379 458.007, 380.540 458.612, 378.545 " />
            <path fill="none" stroke-width="1.5" stroke-linecap="round" stroke-opacity="1.0" stroke="rgb(0, 0, 0)" stroke-linejoin="round" d=" M 450.255, 386.902 452.250, 386.296 " />
            <path fill="none" stroke-width="1.5" stroke-linecap="round" stroke-opacity="1.0" stroke="rgb(0, 0, 0)" stroke-linejoin="round" d=" M 444.109, 386.296 446.105, 386.902 448.180, 387.106 450.255, 386.902 " />
            <path fill="none" stroke-width="1.5" stroke-linecap="round" stroke-opacity="1.0" stroke="rgb(0, 0, 0)" stroke-linejoin="round" d=" M 439.336, 382.379 440.658, 383.991 442.270, 385.314 444.109, 386.296 " />
            <path fill="none" stroke-width="1.5" stroke-linecap="round" stroke-opacity="1.0" stroke="rgb(0, 0, 0)" stroke-linejoin="round" d=" M 456.480, 228.373 448.180, 227.556 439.879, 228.373 431.898, 230.794 424.542, 234.726 418.095, 240.017 412.803, 246.465 408.872, 253.820 406.451, 261.802 405.633, 270.102 406.451, 278.403 408.872, 286.384 412.803, 293.740 418.095, 300.188 424.542, 305.479 431.898, 309.411 439.879, 311.832 448.180, 312.649 456.480, 311.832 464.462, 309.411 471.818, 305.479 478.265, 300.188 483.556, 293.740 487.488, 286.384 489.909, 278.403 490.727, 270.102 489.909, 261.802 487.488, 253.820 483.556, 246.465 478.265, 240.017 471.818, 234.726 464.462, 230.794 456.480, 228.373 " />
            <path fill="none" stroke-width="1.5" stroke-linecap="round" stroke-opacity="1.0" stroke="rgb(0, 0, 0)" stroke-linejoin="round" d=" M 650.277, 642.387 650.277, 632.387 650.277, 622.387 650.277, 612.387 650.277, 602.387 650.277, 592.387 650.277, 582.387 650.277, 572.387 650.277, 562.387 650.277, 552.387 650.277, 542.387 650.277, 536.020 " />
            <path fill="none" stroke-width="1.5" stroke-linecap="round" stroke-opacity="1.0" stroke="rgb(0, 0, 0)" stroke-linejoin="round" d=" M 373.723, 504.110 383.723, 504.110 393.723, 504.110 394.996, 504.110 " />
            <path fill="none" stroke-width="1.5" stroke-linecap="round" stroke-opacity="1.0" stroke="rgb(0, 0, 0)" stroke-linejoin="round" d=" M 394.996, 504.110 394.996, 514.110 394.996, 524.110 394.996, 534.110 394.996, 544.110 394.996, 554.110 394.996, 564.110 394.996, 574.110 394.996, 584.110 394.996, 594.110 394.996, 604.110 394.996, 614.110 394.996, 624.110 394.996, 634.110 394.996, 644.110 394.996, 654.110 394.996, 664.110 394.996, 674.110 394.996, 684.110 394.996, 689.193 " />
            <path fill="none" stroke-width="1.5" stroke-linecap="round" stroke-opacity="1.0" stroke="rgb(0, 0, 0)" stroke-linejoin="round" d=" M 457.024, 370.560 455.701, 368.948 " />
            <path fill="none" stroke-width="1.5" stroke-linecap="round" stroke-opacity="1.0" stroke="rgb(0, 0, 0)" stroke-linejoin="round" d=" M 501.363, 690.052 491.363, 690.052 481.363, 690.052 471.363, 690.052 461.363, 690.052 451.363, 690.052 441.363, 690.052 431.363, 690.052 421.363, 690.052 411.363, 690.052 401.363, 690.052 394.996, 690.052 " />
            <path fill="none" stroke-width="1.5" stroke-linecap="round" stroke-opacity="1.0" stroke="rgb(0, 0, 0)" stroke-linejoin="round" d=" M 501.363, 695.571 501.363, 694.699 501.363, 690.052 " />
            <path fill="none" stroke-width="1.5" stroke-linecap="round" stroke-opacity="1.0" stroke="rgb(0, 0, 0)" stroke-linejoin="round" d=" M 501.363, 689.193 491.363, 689.193 481.363, 689.193 471.363, 689.193 461.363, 689.193 451.363, 689.193 441.363, 689.193 431.363, 689.193 421.363, 689.193 411.363, 689.193 401.363, 689.193 394.996, 689.193 " />
            <path fill="none" stroke-width="1.5" stroke-linecap="round" stroke-opacity="1.0" stroke="rgb(0, 0, 0)" stroke-linejoin="round" d=" M 501.363, 483.708 491.363, 483.708 481.363, 483.708 471.363, 483.708 461.363, 483.708 451.363, 483.708 441.363, 483.708 431.363, 483.708 421.363, 483.708 411.363, 483.708 401.363, 483.708 394.996, 483.708 " />
            <path fill="none" stroke-width="1.5" stroke-linecap="round" stroke-opacity="1.0" stroke="rgb(0, 0, 0)" stroke-linejoin="round" d=" M 586.457, 621.114 586.457, 631.114 586.457, 641.114 586.457, 642.387 " />
            <path fill="none" stroke-width="1.5" stroke-linecap="round" stroke-opacity="1.0" stroke="rgb(0, 0, 0)" stroke-linejoin="round" d=" M 586.457, 557.293 586.457, 567.293 586.457, 577.293 586.457, 587.293 586.457, 597.293 586.457, 607.293 586.457, 617.293 586.457, 621.114 " />
            <path fill="none" stroke-width="1.5" stroke-linecap="round" stroke-opacity="1.0" stroke="rgb(0, 0, 0)" stroke-linejoin="round" d=" M 586.457, 536.020 586.457, 546.020 586.457, 556.020 586.457, 557.293 " />
            <path fill="none" stroke-width="1.5" stroke-linecap="round" stroke-opacity="1.0" stroke="rgb(0, 0, 0)" stroke-linejoin="round" d=" M 565.184, 621.114 575.184, 621.114 585.184, 621.114 586.457, 621.114 " />
            <path fill="none" stroke-width="1.5" stroke-linecap="round" stroke-opacity="1.0" stroke="rgb(0, 0, 0)" stroke-linejoin="round" d=" M 586.457, 642.387 596.457, 642.387 606.457, 642.387 616.457, 642.387 626.457, 642.387 636.457, 642.387 646.457, 642.387 650.277, 642.387 " />
            <path fill="none" stroke-width="1.5" stroke-linecap="round" stroke-opacity="1.0" stroke="rgb(0, 0, 0)" stroke-linejoin="round" d=" M 650.277, 536.020 640.277, 536.020 630.277, 536.020 620.277, 536.020 610.277, 536.020 600.277, 536.020 590.277, 536.020 586.457, 536.020 " />
        </g>
    </g>
    <g id="ViewLayer_TechnicalLines.004" xmlns:inkscape="http://www.inkscape.org/namespaces/inkscape" inkscape:groupmode="lineset" inkscape:label="ViewLayer_TechnicalLines.004">
        <g xmlns:inkscape="http://www.inkscape.org/namespaces/inkscape" inkscape:groupmode="layer" id="strokes" inkscape:label="strokes">
            <path fill="none" stroke-width="1.5" stroke-linecap="round" stroke-opacity="1.0" stroke="rgb(0, 0, 0)" stroke-linejoin="round" d=" M 501.363, 483.708 501.363, 482.836 491.363, 482.836 481.363, 482.836 471.363, 482.836 461.363, 482.836 451.363, 482.836 441.363, 482.836 431.363, 482.836 421.363, 482.836 411.363, 482.836 401.363, 482.836 394.996, 482.836 " />
            <path fill="none" stroke-width="1.5" stroke-linecap="round" stroke-opacity="1.0" stroke="rgb(0, 0, 0)" stroke-linejoin="round" d=" M 394.996, 483.708 394.996, 489.214 394.996, 499.214 394.996, 504.110 " />
            <path fill="none" stroke-width="1.5" stroke-linecap="round" stroke-opacity="1.0" stroke="rgb(0, 0, 0)" stroke-linejoin="round" d=" M 501.363, 689.193 501.363, 679.193 501.363, 669.193 501.363, 659.193 501.363, 649.193 501.363, 639.193 501.363, 629.193 501.363, 619.193 501.363, 609.193 501.363, 599.193 501.363, 589.193 501.363, 579.193 501.363, 569.193 501.363, 559.193 501.363, 549.193 501.363, 539.193 501.363, 529.193 501.363, 519.193 501.363, 509.193 501.363, 499.193 501.363, 489.214 501.363, 483.708 " />
            <path fill="none" stroke-width="1.5" stroke-linecap="round" stroke-opacity="1.0" stroke="rgb(0, 0, 0)" stroke-linejoin="round" d=" M 394.996, 690.052 394.996, 700.052 394.996, 710.052 394.996, 710.600 394.996, 720.600 394.996, 730.600 394.996, 740.600 394.996, 743.636 404.996, 743.636 414.996, 743.636 424.996, 743.636 434.996, 743.636 444.996, 743.636 454.996, 743.636 464.996, 743.636 474.996, 743.636 484.996, 743.636 494.996, 743.636 501.363, 743.636 501.363, 733.636 501.363, 723.636 501.363, 713.636 501.363, 710.600 501.363, 700.600 501.363, 695.571 " />
            <path fill="none" stroke-width="1.5" stroke-linecap="round" stroke-opacity="1.0" stroke="rgb(0, 0, 0)" stroke-linejoin="round" d=" M 501.363, 710.600 491.363, 710.600 481.363, 710.600 471.363, 710.600 461.363, 710.600 451.363, 710.600 441.363, 710.600 431.363, 710.600 421.363, 710.600 411.363, 710.600 401.363, 710.600 394.996, 710.600 " />
            <path fill="none" stroke-width="1.5" stroke-linecap="round" stroke-opacity="1.0" stroke="rgb(0, 0, 0)" stroke-linejoin="round" d=" M 416.270, 785.432 416.270, 795.432 416.270, 796.444 426.270, 796.444 436.270, 796.444 446.270, 796.444 456.270, 796.444 466.270, 796.444 476.270, 796.444 480.090, 796.444 480.090, 786.444 480.090, 785.432 480.090, 775.896 480.090, 765.896 480.090, 764.884 470.090, 764.884 460.090, 764.884 450.090, 764.884 440.090, 764.884 430.090, 764.884 420.090, 764.884 416.270, 764.884 416.270, 774.884 416.270, 775.896 416.270, 785.432 " />
            <path fill="none" stroke-width="1.5" stroke-linecap="round" stroke-opacity="1.0" stroke="rgb(0, 0, 0)" stroke-linejoin="round" d=" M 480.090, 785.432 470.090, 785.432 460.090, 785.432 450.090, 785.432 440.090, 785.432 430.090, 785.432 420.090, 785.432 416.270, 785.432 " />
            <path fill="none" stroke-width="1.5" stroke-linecap="round" stroke-opacity="1.0" stroke="rgb(0, 0, 0)" stroke-linejoin="round" d=" M 501.363, 461.563 501.363, 471.563 501.363, 481.563 501.363, 491.563 501.363, 501.563 501.363, 504.110 511.363, 504.110 521.363, 504.110 522.637, 504.110 522.637, 494.110 522.637, 484.110 522.637, 474.110 522.637, 464.110 522.637, 461.563 512.637, 461.563 502.637, 461.563 501.363, 461.563 " />
            <path fill="none" stroke-width="1.5" stroke-linecap="round" stroke-opacity="1.0" stroke="rgb(0, 0, 0)" stroke-linejoin="round" d=" M 394.996, 482.836 394.996, 472.836 394.996, 462.836 394.996, 461.563 384.996, 461.563 374.996, 461.563 373.723, 461.563 373.723, 471.563 373.723, 481.563 373.723, 491.563 373.723, 501.563 373.723, 504.110 " />
            <path fill="none" stroke-width="1.5" stroke-linecap="round" stroke-opacity="1.0" stroke="rgb(0, 0, 0)" stroke-linejoin="round" d=" M 586.457, 557.293 576.457, 557.293 566.457, 557.293 565.184, 557.293 565.184, 567.293 565.184, 577.293 565.184, 587.293 565.184, 597.293 565.184, 607.293 565.184, 617.293 565.184, 621.114 " />
            <path fill="none" stroke-width="1.5" stroke-linecap="round" stroke-opacity="1.0" stroke="rgb(0, 0, 0)" stroke-linejoin="round" d=" M 442.270, 367.625 440.658, 368.948 439.336, 370.560 438.353, 372.399 437.747, 374.394 437.543, 376.469 437.747, 378.545 438.353, 380.540 439.336, 382.379 " />
            <path fill="none" stroke-width="1.5" stroke-linecap="round" stroke-opacity="1.0" stroke="rgb(0, 0, 0)" stroke-linejoin="round" d=" M 455.701, 368.948 454.089, 367.625 452.250, 366.642 450.255, 366.037 448.180, 365.833 446.105, 366.037 444.109, 366.642 442.270, 367.625 " />
            <path fill="none" stroke-width="1.5" stroke-linecap="round" stroke-opacity="1.0" stroke="rgb(0, 0, 0)" stroke-linejoin="round" d=" M 458.816, 376.469 458.612, 374.394 458.007, 372.399 457.024, 370.560 " />
            <path fill="none" stroke-width="1.5" stroke-linecap="round" stroke-opacity="1.0" stroke="rgb(0, 0, 0)" stroke-linejoin="round" d=" M 458.612, 378.545 458.816, 376.469 " />
            <path fill="none" stroke-width="1.5" stroke-linecap="round" stroke-opacity="1.0" stroke="rgb(0, 0, 0)" stroke-linejoin="round" d=" M 452.250, 386.296 454.089, 385.314 455.701, 383.991 457.024, 382.379 458.007, 380.540 458.612, 378.545 " />
            <path fill="none" stroke-width="1.5" stroke-linecap="round" stroke-opacity="1.0" stroke="rgb(0, 0, 0)" stroke-linejoin="round" d=" M 450.255, 386.902 452.250, 386.296 " />
            <path fill="none" stroke-width="1.5" stroke-linecap="round" stroke-opacity="1.0" stroke="rgb(0, 0, 0)" stroke-linejoin="round" d=" M 444.109, 386.296 446.105, 386.902 448.180, 387.106 450.255, 386.902 " />
            <path fill="none" stroke-width="1.5" stroke-linecap="round" stroke-opacity="1.0" stroke="rgb(0, 0, 0)" stroke-linejoin="round" d=" M 439.336, 382.379 440.658, 383.991 442.270, 385.314 444.109, 386.296 " />
            <path fill="none" stroke-width="1.5" stroke-linecap="round" stroke-opacity="1.0" stroke="rgb(0, 0, 0)" stroke-linejoin="round" d=" M 456.480, 228.373 448.180, 227.556 439.879, 228.373 431.898, 230.794 424.542, 234.726 418.095, 240.017 412.803, 246.465 408.872, 253.820 406.451, 261.802 405.633, 270.102 406.451, 278.403 408.872, 286.384 412.803, 293.740 418.095, 300.188 424.542, 305.479 431.898, 309.411 439.879, 311.832 448.180, 312.649 456.480, 311.832 464.462, 309.411 471.818, 305.479 478.265, 300.188 483.556, 293.740 487.488, 286.384 489.909, 278.403 490.727, 270.102 489.909, 261.802 487.488, 253.820 483.556, 246.465 478.265, 240.017 471.818, 234.726 464.462, 230.794 456.480, 228.373 " />
            <path fill="none" stroke-width="1.5" stroke-linecap="round" stroke-opacity="1.0" stroke="rgb(0, 0, 0)" stroke-linejoin="round" d=" M 650.277, 642.387 650.277, 632.387 650.277, 622.387 650.277, 612.387 650.277, 602.387 650.277, 592.387 650.277, 582.387 650.277, 572.387 650.277, 562.387 650.277, 552.387 650.277, 542.387 650.277, 536.020 " />
            <path fill="none" stroke-width="1.5" stroke-linecap="round" stroke-opacity="1.0" stroke="rgb(0, 0, 0)" stroke-linejoin="round" d=" M 373.723, 504.110 383.723, 504.110 393.723, 504.110 394.996, 504.110 " />
            <path fill="none" stroke-width="1.5" stroke-linecap="round" stroke-opacity="1.0" stroke="rgb(0, 0, 0)" stroke-linejoin="round" d=" M 394.996, 504.110 394.996, 514.110 394.996, 524.110 394.996, 534.110 394.996, 544.110 394.996, 554.110 394.996, 564.110 394.996, 574.110 394.996, 584.110 394.996, 594.110 394.996, 604.110 394.996, 614.110 394.996, 624.110 394.996, 634.110 394.996, 644.110 394.996, 654.110 394.996, 664.110 394.996, 674.110 394.996, 684.110 394.996, 689.193 " />
            <path fill="none" stroke-width="1.5" stroke-linecap="round" stroke-opacity="1.0" stroke="rgb(0, 0, 0)" stroke-linejoin="round" d=" M 457.024, 370.560 455.701, 368.948 " />
            <path fill="none" stroke-width="1.5" stroke-linecap="round" stroke-opacity="1.0" stroke="rgb(0, 0, 0)" stroke-linejoin="round" d=" M 501.363, 690.052 491.363, 690.052 481.363, 690.052 471.363, 690.052 461.363, 690.052 451.363, 690.052 441.363, 690.052 431.363, 690.052 421.363, 690.052 411.363, 690.052 401.363, 690.052 394.996, 690.052 " />
            <path fill="none" stroke-width="1.5" stroke-linecap="round" stroke-opacity="1.0" stroke="rgb(0, 0, 0)" stroke-linejoin="round" d=" M 501.363, 695.571 501.363, 694.699 501.363, 690.052 " />
            <path fill="none" stroke-width="1.5" stroke-linecap="round" stroke-opacity="1.0" stroke="rgb(0, 0, 0)" stroke-linejoin="round" d=" M 501.363, 689.193 491.363, 689.193 481.363, 689.193 471.363, 689.193 461.363, 689.193 451.363, 689.193 441.363, 689.193 431.363, 689.193 421.363, 689.193 411.363, 689.193 401.363, 689.193 394.996, 689.193 " />
            <path fill="none" stroke-width="1.5" stroke-linecap="round" stroke-opacity="1.0" stroke="rgb(0, 0, 0)" stroke-linejoin="round" d=" M 501.363, 483.708 491.363, 483.708 481.363, 483.708 471.363, 483.708 461.363, 483.708 451.363, 483.708 441.363, 483.708 431.363, 483.708 421.363, 483.708 411.363, 483.708 401.363, 483.708 394.996, 483.708 " />
            <path fill="none" stroke-width="1.5" stroke-linecap="round" stroke-opacity="1.0" stroke="rgb(0, 0, 0)" stroke-linejoin="round" d=" M 586.457, 621.114 586.457, 631.114 586.457, 641.114 586.457, 642.387 " />
            <path fill="none" stroke-width="1.5" stroke-linecap="round" stroke-opacity="1.0" stroke="rgb(0, 0, 0)" stroke-linejoin="round" d=" M 586.457, 557.293 586.457, 567.293 586.457, 577.293 586.457, 587.293 586.457, 597.293 586.457, 607.293 586.457, 617.293 586.457, 621.114 " />
            <path fill="none" stroke-width="1.5" stroke-linecap="round" stroke-opacity="1.0" stroke="rgb(0, 0, 0)" stroke-linejoin="round" d=" M 586.457, 536.020 586.457, 546.020 586.457, 556.020 586.457, 557.293 " />
            <path fill="none" stroke-width="1.5" stroke-linecap="round" stroke-opacity="1.0" stroke="rgb(0, 0, 0)" stroke-linejoin="round" d=" M 565.184, 621.114 575.184, 621.114 585.184, 621.114 586.457, 621.114 " />
            <path fill="none" stroke-width="1.5" stroke-linecap="round" stroke-opacity="1.0" stroke="rgb(0, 0, 0)" stroke-linejoin="round" d=" M 586.457, 642.387 596.457, 642.387 606.457, 642.387 616.457, 642.387 626.457, 642.387 636.457, 642.387 646.457, 642.387 650.277, 642.387 " />
            <path fill="none" stroke-width="1.5" stroke-linecap="round" stroke-opacity="1.0" stroke="rgb(0, 0, 0)" stroke-linejoin="round" d=" M 650.277, 536.020 640.277, 536.020 630.277, 536.020 620.277, 536.020 610.277, 536.020 600.277, 536.020 590.277, 536.020 586.457, 536.020 " />
        </g>
    </g>
</svg>
