<?xml version='1.0' encoding='ascii'?>
<svg xmlns="http://www.w3.org/2000/svg" xmlns:inkscape="http://www.inkscape.org/namespaces/inkscape" version="1.1" width="1024" height="1024">
    <g id="ViewLayer_LineSet" inkscape:groupmode="lineset" inkscape:label="ViewLayer_LineSet">
        <g inkscape:groupmode="layer" id="strokes" inkscape:label="strokes">
            <path fill="none" stroke-width="3.0" stroke-linecap="butt" stroke-opacity="1.0" stroke="rgb(0, 0, 0)" stroke-linejoin="round" d=" M 436.148, 796.444 436.148, 786.444 436.148, 776.444 436.148, 766.444 436.148, 756.444 436.148, 746.444 436.148, 736.444 436.148, 726.444 436.148, 716.444 436.148, 706.444 436.148, 696.444 436.148, 686.444 436.148, 676.444 436.148, 670.025 436.148, 670.025 " />
            <path fill="none" stroke-width="3.0" stroke-linecap="butt" stroke-opacity="1.0" stroke="rgb(0, 0, 0)" stroke-linejoin="round" d=" M 410.864, 568.889 410.864, 578.889 410.864, 588.889 410.864, 598.889 410.864, 608.889 410.864, 618.889 410.864, 628.889 410.864, 638.889 410.864, 648.889 410.864, 658.889 410.864, 668.889 410.864, 678.889 410.864, 688.889 410.864, 698.889 410.864, 708.889 410.864, 718.889 410.864, 728.889 410.864, 738.889 410.864, 748.889 410.864, 758.889 410.864, 768.889 410.864, 778.889 410.864, 788.889 410.864, 796.444 410.864, 796.444 411.107, 796.444 411.827, 796.444 412.995, 796.444 414.567, 796.444 416.483, 796.444 418.668, 796.444 421.040, 796.444 423.506, 796.444 425.973, 796.444 428.344, 796.444 430.530, 796.444 432.445, 796.444 434.018, 796.444 435.186, 796.444 435.905, 796.444 436.148, 796.444 436.148, 786.444 436.148, 776.444 436.148, 766.444 436.148, 756.444 436.148, 746.444 436.148, 736.444 436.148, 726.444 436.148, 716.444 436.148, 706.444 436.148, 696.444 436.148, 686.444 436.148, 676.444 436.148, 670.025 436.148, 670.025 " />
            <path fill="none" stroke-width="3.0" stroke-linecap="butt" stroke-opacity="1.0" stroke="rgb(0, 0, 0)" stroke-linejoin="round" d=" M 613.136, 796.444 613.136, 786.444 613.136, 776.444 613.136, 766.444 613.136, 756.444 613.136, 746.444 613.136, 736.444 613.136, 726.444 613.136, 716.444 613.136, 706.444 613.136, 696.444 613.136, 686.444 613.136, 676.444 613.136, 670.025 " />
            <path fill="none" stroke-width="3.0" stroke-linecap="butt" stroke-opacity="1.0" stroke="rgb(0, 0, 0)" stroke-linejoin="round" d=" M 587.852, 670.025 587.852, 670.025 587.852, 680.025 587.852, 690.025 587.852, 700.025 587.852, 710.025 587.852, 720.025 587.852, 730.025 587.852, 740.025 587.852, 750.025 587.852, 760.025 587.852, 770.025 587.852, 780.025 587.852, 790.025 587.852, 796.444 587.852, 796.444 588.095, 796.444 588.814, 796.444 589.982, 796.444 591.555, 796.444 593.470, 796.444 595.656, 796.444 598.028, 796.444 600.494, 796.444 602.960, 796.444 605.332, 796.444 607.517, 796.444 609.433, 796.444 611.005, 796.444 612.174, 796.444 612.893, 796.444 613.136, 796.444 613.136, 786.444 613.136, 776.444 613.136, 766.444 613.136, 756.444 613.136, 746.444 613.136, 736.444 613.136, 726.444 613.136, 716.444 613.136, 706.444 613.136, 696.444 613.136, 686.444 613.136, 676.444 613.136, 670.025 613.136, 670.025 " />
            <path fill="none" stroke-width="3.0" stroke-linecap="butt" stroke-opacity="1.0" stroke="rgb(0, 0, 0)" stroke-linejoin="round" d=" M 613.136, 568.889 613.136, 558.889 613.136, 548.889 613.136, 538.889 613.136, 528.889 613.136, 518.889 613.136, 508.889 613.136, 498.889 613.136, 488.889 613.136, 478.889 613.136, 468.889 613.136, 467.753 613.136, 467.753 603.136, 467.753 593.136, 467.753 583.136, 467.753 573.136, 467.753 563.136, 467.753 553.136, 467.753 543.136, 467.753 533.136, 467.753 523.136, 467.753 513.136, 467.753 503.136, 467.753 493.136, 467.753 483.136, 467.753 473.136, 467.753 463.136, 467.753 453.136, 467.753 443.136, 467.753 433.620, 467.753 433.620, 467.753 423.620, 467.753 413.620, 467.753 413.393, 467.753 413.393, 467.753 410.864, 467.753 410.864, 477.753 410.864, 487.753 410.864, 497.753 410.864, 507.753 410.864, 517.753 410.864, 527.753 410.864, 537.753 410.864, 547.753 410.864, 557.753 410.864, 567.753 410.864, 568.889 " />
            <path fill="none" stroke-width="3.0" stroke-linecap="butt" stroke-opacity="1.0" stroke="rgb(0, 0, 0)" stroke-linejoin="round" d=" M 613.136, 467.753 613.136, 477.753 613.136, 487.753 613.136, 497.753 613.136, 507.753 613.136, 517.753 613.136, 527.753 613.136, 537.753 613.136, 547.753 613.136, 557.753 613.136, 567.753 613.136, 568.889 " />
            <path fill="none" stroke-width="3.0" stroke-linecap="butt" stroke-opacity="1.0" stroke="rgb(0, 0, 0)" stroke-linejoin="round" d=" M 410.864, 568.889 410.864, 578.889 410.864, 588.889 410.864, 598.889 410.864, 608.889 410.864, 618.889 410.864, 628.889 410.864, 638.889 410.864, 648.889 410.864, 658.889 410.864, 668.889 410.864, 670.025 410.864, 670.025 420.864, 670.025 430.864, 670.025 436.148, 670.025 436.148, 670.025 446.148, 670.025 456.148, 670.025 466.148, 670.025 476.148, 670.025 486.148, 670.025 496.148, 670.025 506.148, 670.025 516.148, 670.025 526.148, 670.025 536.148, 670.025 546.148, 670.025 556.148, 670.025 566.148, 670.025 576.148, 670.025 586.148, 670.025 587.852, 670.025 587.852, 670.025 597.852, 670.025 607.852, 670.025 613.136, 670.025 " />
            <path fill="none" stroke-width="3.0" stroke-linecap="butt" stroke-opacity="1.0" stroke="rgb(0, 0, 0)" stroke-linejoin="round" d=" M 433.620, 467.753 433.620, 457.753 433.620, 447.753 433.620, 437.753 433.620, 427.753 433.620, 417.753 433.620, 407.753 433.620, 397.753 433.620, 387.753 433.620, 377.753 433.620, 367.753 433.620, 357.753 433.620, 347.753 433.620, 337.753 433.620, 327.753 433.620, 317.753 433.620, 307.753 433.620, 297.753 433.620, 287.753 433.620, 277.753 433.620, 267.753 433.620, 257.753 433.620, 247.753 433.620, 237.753 433.620, 227.556 433.620, 227.556 423.620, 227.556 413.620, 227.556 413.393, 227.556 413.393, 237.556 413.393, 247.556 413.393, 257.556 413.393, 267.556 413.393, 277.556 413.393, 287.556 413.393, 297.556 413.393, 307.556 413.393, 317.556 413.393, 327.556 413.393, 337.556 413.393, 347.556 413.393, 357.556 413.393, 367.556 413.393, 377.556 413.393, 387.556 413.393, 397.556 413.393, 407.556 413.393, 417.556 413.393, 427.556 413.393, 437.556 413.393, 447.556 413.393, 457.556 413.393, 467.753 413.393, 467.753 413.393, 477.753 413.393, 487.753 413.393, 497.753 413.393, 507.753 413.393, 517.753 413.393, 527.753 413.393, 530.963 423.393, 530.963 433.393, 530.963 433.620, 530.963 " />
            <path fill="none" stroke-width="3.0" stroke-linecap="butt" stroke-opacity="1.0" stroke="rgb(0, 0, 0)" stroke-linejoin="round" d=" M 433.620, 227.556 433.620, 237.556 433.620, 247.556 433.620, 257.556 433.620, 267.556 433.620, 277.556 433.620, 287.556 433.620, 297.556 433.620, 307.556 433.620, 317.556 433.620, 327.556 433.620, 337.556 433.620, 347.556 433.620, 357.556 433.620, 367.556 433.620, 377.556 433.620, 387.556 433.620, 397.556 433.620, 407.556 433.620, 417.556 433.620, 427.556 433.620, 437.556 433.620, 447.556 433.620, 457.556 433.620, 467.753 433.620, 477.753 433.620, 487.753 433.620, 497.753 433.620, 507.753 433.620, 517.753 433.620, 527.753 433.620, 530.963 " />
            <path fill="none" stroke-width="3.0" stroke-linecap="butt" stroke-opacity="1.0" stroke="rgb(0, 0, 0)" stroke-linejoin="round" d=" M 613.136, 568.889 613.136, 578.889 613.136, 588.889 613.136, 598.889 613.136, 608.889 613.136, 618.889 613.136, 628.889 613.136, 638.889 613.136, 648.889 613.136, 658.889 613.136, 668.889 613.136, 670.025 " />
            <path fill="none" stroke-width="3.0" stroke-linecap="butt" stroke-opacity="1.0" stroke="rgb(0, 0, 0)" stroke-linejoin="round" d=" M 436.148, 670.025 446.148, 670.025 456.148, 670.025 466.148, 670.025 476.148, 670.025 486.148, 670.025 496.148, 670.025 506.148, 670.025 516.148, 670.025 526.148, 670.025 536.148, 670.025 546.148, 670.025 556.148, 670.025 566.148, 670.025 576.148, 670.025 586.148, 670.025 587.852, 670.025 " />
            <path fill="none" stroke-width="3.0" stroke-linecap="butt" stroke-opacity="1.0" stroke="rgb(0, 0, 0)" stroke-linejoin="round" d=" M 613.136, 670.025 613.136, 670.025 " />
            <path fill="none" stroke-width="3.0" stroke-linecap="butt" stroke-opacity="1.0" stroke="rgb(0, 0, 0)" stroke-linejoin="round" d=" M 613.136, 670.025 613.136, 660.025 613.136, 650.025 613.136, 640.025 613.136, 630.025 613.136, 620.025 613.136, 610.025 613.136, 600.025 613.136, 590.025 613.136, 580.025 613.136, 570.025 613.136, 568.889 " />
            <path fill="none" stroke-width="3.0" stroke-linecap="butt" stroke-opacity="1.0" stroke="rgb(0, 0, 0)" stroke-linejoin="round" d=" M 613.136, 568.889 613.136, 568.889 " />
        </g>
    </g>
    <g id="ViewLayer_TechnicalLines" inkscape:groupmode="lineset" inkscape:label="ViewLayer_TechnicalLines">
        <g inkscape:groupmode="layer" id="strokes" inkscape:label="strokes">
            <path fill="none" stroke-width="3.0" stroke-linecap="butt" stroke-opacity="1.0" stroke="rgb(0, 0, 0)" stroke-linejoin="round" d=" M 436.148, 796.444 436.148, 786.444 436.148, 776.444 436.148, 766.444 436.148, 756.444 436.148, 746.444 436.148, 736.444 436.148, 726.444 436.148, 716.444 436.148, 706.444 436.148, 696.444 436.148, 686.444 436.148, 676.444 436.148, 670.025 436.148, 670.025 " />
            <path fill="none" stroke-width="3.0" stroke-linecap="butt" stroke-opacity="1.0" stroke="rgb(0, 0, 0)" stroke-linejoin="round" d=" M 410.864, 568.889 410.864, 578.889 410.864, 588.889 410.864, 598.889 410.864, 608.889 410.864, 618.889 410.864, 628.889 410.864, 638.889 410.864, 648.889 410.864, 658.889 410.864, 668.889 410.864, 678.889 410.864, 688.889 410.864, 698.889 410.864, 708.889 410.864, 718.889 410.864, 728.889 410.864, 738.889 410.864, 748.889 410.864, 758.889 410.864, 768.889 410.864, 778.889 410.864, 788.889 410.864, 796.444 410.864, 796.444 411.107, 796.444 411.827, 796.444 412.995, 796.444 414.567, 796.444 416.483, 796.444 418.668, 796.444 421.040, 796.444 423.506, 796.444 425.973, 796.444 428.344, 796.444 430.530, 796.444 432.445, 796.444 434.018, 796.444 435.186, 796.444 435.905, 796.444 436.148, 796.444 436.148, 786.444 436.148, 776.444 436.148, 766.444 436.148, 756.444 436.148, 746.444 436.148, 736.444 436.148, 726.444 436.148, 716.444 436.148, 706.444 436.148, 696.444 436.148, 686.444 436.148, 676.444 436.148, 670.025 436.148, 670.025 " />
            <path fill="none" stroke-width="3.0" stroke-linecap="butt" stroke-opacity="1.0" stroke="rgb(0, 0, 0)" stroke-linejoin="round" d=" M 613.136, 796.444 613.136, 786.444 613.136, 776.444 613.136, 766.444 613.136, 756.444 613.136, 746.444 613.136, 736.444 613.136, 726.444 613.136, 716.444 613.136, 706.444 613.136, 696.444 613.136, 686.444 613.136, 676.444 613.136, 670.025 " />
            <path fill="none" stroke-width="3.0" stroke-linecap="butt" stroke-opacity="1.0" stroke="rgb(0, 0, 0)" stroke-linejoin="round" d=" M 587.852, 670.025 587.852, 670.025 587.852, 680.025 587.852, 690.025 587.852, 700.025 587.852, 710.025 587.852, 720.025 587.852, 730.025 587.852, 740.025 587.852, 750.025 587.852, 760.025 587.852, 770.025 587.852, 780.025 587.852, 790.025 587.852, 796.444 587.852, 796.444 588.095, 796.444 588.814, 796.444 589.982, 796.444 591.555, 796.444 593.470, 796.444 595.656, 796.444 598.028, 796.444 600.494, 796.444 602.960, 796.444 605.332, 796.444 607.517, 796.444 609.433, 796.444 611.005, 796.444 612.174, 796.444 612.893, 796.444 613.136, 796.444 613.136, 786.444 613.136, 776.444 613.136, 766.444 613.136, 756.444 613.136, 746.444 613.136, 736.444 613.136, 726.444 613.136, 716.444 613.136, 706.444 613.136, 696.444 613.136, 686.444 613.136, 676.444 613.136, 670.025 613.136, 670.025 " />
            <path fill="none" stroke-width="3.0" stroke-linecap="butt" stroke-opacity="1.0" stroke="rgb(0, 0, 0)" stroke-linejoin="round" d=" M 613.136, 568.889 613.136, 558.889 613.136, 548.889 613.136, 538.889 613.136, 528.889 613.136, 518.889 613.136, 508.889 613.136, 498.889 613.136, 488.889 613.136, 478.889 613.136, 468.889 613.136, 467.753 613.136, 467.753 603.136, 467.753 593.136, 467.753 583.136, 467.753 573.136, 467.753 563.136, 467.753 553.136, 467.753 543.136, 467.753 533.136, 467.753 523.136, 467.753 513.136, 467.753 503.136, 467.753 493.136, 467.753 483.136, 467.753 473.136, 467.753 463.136, 467.753 453.136, 467.753 443.136, 467.753 433.620, 467.753 433.620, 467.753 423.620, 467.753 413.620, 467.753 413.393, 467.753 413.393, 467.753 410.864, 467.753 410.864, 477.753 410.864, 487.753 410.864, 497.753 410.864, 507.753 410.864, 517.753 410.864, 527.753 410.864, 537.753 410.864, 547.753 410.864, 557.753 410.864, 567.753 410.864, 568.889 " />
            <path fill="none" stroke-width="3.0" stroke-linecap="butt" stroke-opacity="1.0" stroke="rgb(0, 0, 0)" stroke-linejoin="round" d=" M 613.136, 467.753 613.136, 477.753 613.136, 487.753 613.136, 497.753 613.136, 507.753 613.136, 517.753 613.136, 527.753 613.136, 537.753 613.136, 547.753 613.136, 557.753 613.136, 567.753 613.136, 568.889 " />
            <path fill="none" stroke-width="3.0" stroke-linecap="butt" stroke-opacity="1.0" stroke="rgb(0, 0, 0)" stroke-linejoin="round" d=" M 410.864, 568.889 410.864, 578.889 410.864, 588.889 410.864, 598.889 410.864, 608.889 410.864, 618.889 410.864, 628.889 410.864, 638.889 410.864, 648.889 410.864, 658.889 410.864, 668.889 410.864, 670.025 410.864, 670.025 420.864, 670.025 430.864, 670.025 436.148, 670.025 436.148, 670.025 446.148, 670.025 456.148, 670.025 466.148, 670.025 476.148, 670.025 486.148, 670.025 496.148, 670.025 506.148, 670.025 516.148, 670.025 526.148, 670.025 536.148, 670.025 546.148, 670.025 556.148, 670.025 566.148, 670.025 576.148, 670.025 586.148, 670.025 587.852, 670.025 587.852, 670.025 597.852, 670.025 607.852, 670.025 613.136, 670.025 " />
            <path fill="none" stroke-width="3.0" stroke-linecap="butt" stroke-opacity="1.0" stroke="rgb(0, 0, 0)" stroke-linejoin="round" d=" M 433.620, 467.753 433.620, 457.753 433.620, 447.753 433.620, 437.753 433.620, 427.753 433.620, 417.753 433.620, 407.753 433.620, 397.753 433.620, 387.753 433.620, 377.753 433.620, 367.753 433.620, 357.753 433.620, 347.753 433.620, 337.753 433.620, 327.753 433.620, 317.753 433.620, 307.753 433.620, 297.753 433.620, 287.753 433.620, 277.753 433.620, 267.753 433.620, 257.753 433.620, 247.753 433.620, 237.753 433.620, 227.556 433.620, 227.556 423.620, 227.556 413.620, 227.556 413.393, 227.556 413.393, 237.556 413.393, 247.556 413.393, 257.556 413.393, 267.556 413.393, 277.556 413.393, 287.556 413.393, 297.556 413.393, 307.556 413.393, 317.556 413.393, 327.556 413.393, 337.556 413.393, 347.556 413.393, 357.556 413.393, 367.556 413.393, 377.556 413.393, 387.556 413.393, 397.556 413.393, 407.556 413.393, 417.556 413.393, 427.556 413.393, 437.556 413.393, 447.556 413.393, 457.556 413.393, 467.753 413.393, 467.753 413.393, 477.753 413.393, 487.753 413.393, 497.753 413.393, 507.753 413.393, 517.753 413.393, 527.753 413.393, 530.963 423.393, 530.963 433.393, 530.963 433.620, 530.963 " />
            <path fill="none" stroke-width="3.0" stroke-linecap="butt" stroke-opacity="1.0" stroke="rgb(0, 0, 0)" stroke-linejoin="round" d=" M 433.620, 227.556 433.620, 237.556 433.620, 247.556 433.620, 257.556 433.620, 267.556 433.620, 277.556 433.620, 287.556 433.620, 297.556 433.620, 307.556 433.620, 317.556 433.620, 327.556 433.620, 337.556 433.620, 347.556 433.620, 357.556 433.620, 367.556 433.620, 377.556 433.620, 387.556 433.620, 397.556 433.620, 407.556 433.620, 417.556 433.620, 427.556 433.620, 437.556 433.620, 447.556 433.620, 457.556 433.620, 467.753 433.620, 477.753 433.620, 487.753 433.620, 497.753 433.620, 507.753 433.620, 517.753 433.620, 527.753 433.620, 530.963 " />
            <path fill="none" stroke-width="3.0" stroke-linecap="butt" stroke-opacity="1.0" stroke="rgb(0, 0, 0)" stroke-linejoin="round" d=" M 613.136, 568.889 613.136, 578.889 613.136, 588.889 613.136, 598.889 613.136, 608.889 613.136, 618.889 613.136, 628.889 613.136, 638.889 613.136, 648.889 613.136, 658.889 613.136, 668.889 613.136, 670.025 " />
            <path fill="none" stroke-width="3.0" stroke-linecap="butt" stroke-opacity="1.0" stroke="rgb(0, 0, 0)" stroke-linejoin="round" d=" M 436.148, 670.025 446.148, 670.025 456.148, 670.025 466.148, 670.025 476.148, 670.025 486.148, 670.025 496.148, 670.025 506.148, 670.025 516.148, 670.025 526.148, 670.025 536.148, 670.025 546.148, 670.025 556.148, 670.025 566.148, 670.025 576.148, 670.025 586.148, 670.025 587.852, 670.025 " />
            <path fill="none" stroke-width="3.0" stroke-linecap="butt" stroke-opacity="1.0" stroke="rgb(0, 0, 0)" stroke-linejoin="round" d=" M 613.136, 670.025 613.136, 670.025 " />
            <path fill="none" stroke-width="3.0" stroke-linecap="butt" stroke-opacity="1.0" stroke="rgb(0, 0, 0)" stroke-linejoin="round" d=" M 613.136, 670.025 613.136, 660.025 613.136, 650.025 613.136, 640.025 613.136, 630.025 613.136, 620.025 613.136, 610.025 613.136, 600.025 613.136, 590.025 613.136, 580.025 613.136, 570.025 613.136, 568.889 " />
            <path fill="none" stroke-width="3.0" stroke-linecap="butt" stroke-opacity="1.0" stroke="rgb(0, 0, 0)" stroke-linejoin="round" d=" M 613.136, 568.889 613.136, 568.889 " />
        </g>
    </g>
    <g id="ViewLayer_TechnicalLines.001" inkscape:groupmode="lineset" inkscape:label="ViewLayer_TechnicalLines.001">
        <g inkscape:groupmode="layer" id="strokes" inkscape:label="strokes">
            <path fill="none" stroke-width="1.5" stroke-linecap="round" stroke-opacity="1.0" stroke="rgb(0, 0, 0)" stroke-linejoin="round" d=" M 436.148, 796.444 436.148, 786.444 436.148, 776.444 436.148, 766.444 436.148, 756.444 436.148, 746.444 436.148, 736.444 436.148, 726.444 436.148, 716.444 436.148, 706.444 436.148, 696.444 436.148, 686.444 436.148, 676.444 436.148, 670.025 436.148, 670.025 " />
            <path fill="none" stroke-width="1.5" stroke-linecap="round" stroke-opacity="1.0" stroke="rgb(0, 0, 0)" stroke-linejoin="round" d=" M 410.864, 568.889 410.864, 578.889 410.864, 588.889 410.864, 598.889 410.864, 608.889 410.864, 618.889 410.864, 628.889 410.864, 638.889 410.864, 648.889 410.864, 658.889 410.864, 668.889 410.864, 678.889 410.864, 688.889 410.864, 698.889 410.864, 708.889 410.864, 718.889 410.864, 728.889 410.864, 738.889 410.864, 748.889 410.864, 758.889 410.864, 768.889 410.864, 778.889 410.864, 788.889 410.864, 796.444 410.864, 796.444 411.107, 796.444 411.827, 796.444 412.995, 796.444 414.567, 796.444 416.483, 796.444 418.668, 796.444 421.040, 796.444 423.506, 796.444 425.973, 796.444 428.344, 796.444 430.530, 796.444 432.445, 796.444 434.018, 796.444 435.186, 796.444 435.905, 796.444 436.148, 796.444 436.148, 786.444 436.148, 776.444 436.148, 766.444 436.148, 756.444 436.148, 746.444 436.148, 736.444 436.148, 726.444 436.148, 716.444 436.148, 706.444 436.148, 696.444 436.148, 686.444 436.148, 676.444 436.148, 670.025 436.148, 670.025 " />
            <path fill="none" stroke-width="1.5" stroke-linecap="round" stroke-opacity="1.0" stroke="rgb(0, 0, 0)" stroke-linejoin="round" d=" M 613.136, 796.444 613.136, 786.444 613.136, 776.444 613.136, 766.444 613.136, 756.444 613.136, 746.444 613.136, 736.444 613.136, 726.444 613.136, 716.444 613.136, 706.444 613.136, 696.444 613.136, 686.444 613.136, 676.444 613.136, 670.025 " />
            <path fill="none" stroke-width="1.5" stroke-linecap="round" stroke-opacity="1.0" stroke="rgb(0, 0, 0)" stroke-linejoin="round" d=" M 587.852, 670.025 587.852, 670.025 587.852, 680.025 587.852, 690.025 587.852, 700.025 587.852, 710.025 587.852, 720.025 587.852, 730.025 587.852, 740.025 587.852, 750.025 587.852, 760.025 587.852, 770.025 587.852, 780.025 587.852, 790.025 587.852, 796.444 587.852, 796.444 588.095, 796.444 588.814, 796.444 589.982, 796.444 591.555, 796.444 593.470, 796.444 595.656, 796.444 598.028, 796.444 600.494, 796.444 602.960, 796.444 605.332, 796.444 607.517, 796.444 609.433, 796.444 611.005, 796.444 612.174, 796.444 612.893, 796.444 613.136, 796.444 613.136, 786.444 613.136, 776.444 613.136, 766.444 613.136, 756.444 613.136, 746.444 613.136, 736.444 613.136, 726.444 613.136, 716.444 613.136, 706.444 613.136, 696.444 613.136, 686.444 613.136, 676.444 613.136, 670.025 613.136, 670.025 " />
            <path fill="none" stroke-width="1.5" stroke-linecap="round" stroke-opacity="1.0" stroke="rgb(0, 0, 0)" stroke-linejoin="round" d=" M 613.136, 568.889 613.136, 558.889 613.136, 548.889 613.136, 538.889 613.136, 528.889 613.136, 518.889 613.136, 508.889 613.136, 498.889 613.136, 488.889 613.136, 478.889 613.136, 468.889 613.136, 467.753 613.136, 467.753 603.136, 467.753 593.136, 467.753 583.136, 467.753 573.136, 467.753 563.136, 467.753 553.136, 467.753 543.136, 467.753 533.136, 467.753 523.136, 467.753 513.136, 467.753 503.136, 467.753 493.136, 467.753 483.136, 467.753 473.136, 467.753 463.136, 467.753 453.136, 467.753 443.136, 467.753 433.620, 467.753 433.620, 467.753 423.620, 467.753 413.620, 467.753 413.393, 467.753 413.393, 467.753 410.864, 467.753 410.864, 477.753 410.864, 487.753 410.864, 497.753 410.864, 507.753 410.864, 517.753 410.864, 527.753 410.864, 537.753 410.864, 547.753 410.864, 557.753 410.864, 567.753 410.864, 568.889 " />
            <path fill="none" stroke-width="1.5" stroke-linecap="round" stroke-opacity="1.0" stroke="rgb(0, 0, 0)" stroke-linejoin="round" d=" M 613.136, 467.753 613.136, 477.753 613.136, 487.753 613.136, 497.753 613.136, 507.753 613.136, 517.753 613.136, 527.753 613.136, 537.753 613.136, 547.753 613.136, 557.753 613.136, 567.753 613.136, 568.889 " />
            <path fill="none" stroke-width="1.5" stroke-linecap="round" stroke-opacity="1.0" stroke="rgb(0, 0, 0)" stroke-linejoin="round" d=" M 410.864, 568.889 410.864, 578.889 410.864, 588.889 410.864, 598.889 410.864, 608.889 410.864, 618.889 410.864, 628.889 410.864, 638.889 410.864, 648.889 410.864, 658.889 410.864, 668.889 410.864, 670.025 410.864, 670.025 420.864, 670.025 430.864, 670.025 436.148, 670.025 436.148, 670.025 446.148, 670.025 456.148, 670.025 466.148, 670.025 476.148, 670.025 486.148, 670.025 496.148, 670.025 506.148, 670.025 516.148, 670.025 526.148, 670.025 536.148, 670.025 546.148, 670.025 556.148, 670.025 566.148, 670.025 576.148, 670.025 586.148, 670.025 587.852, 670.025 587.852, 670.025 597.852, 670.025 607.852, 670.025 613.136, 670.025 " />
            <path fill="none" stroke-width="1.5" stroke-linecap="round" stroke-opacity="1.0" stroke="rgb(0, 0, 0)" stroke-linejoin="round" d=" M 433.620, 467.753 433.620, 457.753 433.620, 447.753 433.620, 437.753 433.620, 427.753 433.620, 417.753 433.620, 407.753 433.620, 397.753 433.620, 387.753 433.620, 377.753 433.620, 367.753 433.620, 357.753 433.620, 347.753 433.620, 337.753 433.620, 327.753 433.620, 317.753 433.620, 307.753 433.620, 297.753 433.620, 287.753 433.620, 277.753 433.620, 267.753 433.620, 257.753 433.620, 247.753 433.620, 237.753 433.620, 227.556 433.620, 227.556 423.620, 227.556 413.620, 227.556 413.393, 227.556 413.393, 237.556 413.393, 247.556 413.393, 257.556 413.393, 267.556 413.393, 277.556 413.393, 287.556 413.393, 297.556 413.393, 307.556 413.393, 317.556 413.393, 327.556 413.393, 337.556 413.393, 347.556 413.393, 357.556 413.393, 367.556 413.393, 377.556 413.393, 387.556 413.393, 397.556 413.393, 407.556 413.393, 417.556 413.393, 427.556 413.393, 437.556 413.393, 447.556 413.393, 457.556 413.393, 467.753 413.393, 467.753 413.393, 477.753 413.393, 487.753 413.393, 497.753 413.393, 507.753 413.393, 517.753 413.393, 527.753 413.393, 530.963 423.393, 530.963 433.393, 530.963 433.620, 530.963 " />
            <path fill="none" stroke-width="1.5" stroke-linecap="round" stroke-opacity="1.0" stroke="rgb(0, 0, 0)" stroke-linejoin="round" d=" M 433.620, 227.556 433.620, 237.556 433.620, 247.556 433.620, 257.556 433.620, 267.556 433.620, 277.556 433.620, 287.556 433.620, 297.556 433.620, 307.556 433.620, 317.556 433.620, 327.556 433.620, 337.556 433.620, 347.556 433.620, 357.556 433.620, 367.556 433.620, 377.556 433.620, 387.556 433.620, 397.556 433.620, 407.556 433.620, 417.556 433.620, 427.556 433.620, 437.556 433.620, 447.556 433.620, 457.556 433.620, 467.753 433.620, 477.753 433.620, 487.753 433.620, 497.753 433.620, 507.753 433.620, 517.753 433.620, 527.753 433.620, 530.963 " />
            <path fill="none" stroke-width="1.5" stroke-linecap="round" stroke-opacity="1.0" stroke="rgb(0, 0, 0)" stroke-linejoin="round" d=" M 613.136, 568.889 613.136, 578.889 613.136, 588.889 613.136, 598.889 613.136, 608.889 613.136, 618.889 613.136, 628.889 613.136, 638.889 613.136, 648.889 613.136, 658.889 613.136, 668.889 613.136, 670.025 " />
            <path fill="none" stroke-width="1.5" stroke-linecap="round" stroke-opacity="1.0" stroke="rgb(0, 0, 0)" stroke-linejoin="round" d=" M 436.148, 670.025 446.148, 670.025 456.148, 670.025 466.148, 670.025 476.148, 670.025 486.148, 670.025 496.148, 670.025 506.148, 670.025 516.148, 670.025 526.148, 670.025 536.148, 670.025 546.148, 670.025 556.148, 670.025 566.148, 670.025 576.148, 670.025 586.148, 670.025 587.852, 670.025 " />
            <path fill="none" stroke-width="1.5" stroke-linecap="round" stroke-opacity="1.0" stroke="rgb(0, 0, 0)" stroke-linejoin="round" d=" M 613.136, 670.025 613.136, 670.025 " />
            <path fill="none" stroke-width="1.5" stroke-linecap="round" stroke-opacity="1.0" stroke="rgb(0, 0, 0)" stroke-linejoin="round" d=" M 613.136, 670.025 613.136, 660.025 613.136, 650.025 613.136, 640.025 613.136, 630.025 613.136, 620.025 613.136, 610.025 613.136, 600.025 613.136, 590.025 613.136, 580.025 613.136, 570.025 613.136, 568.889 " />
            <path fill="none" stroke-width="1.5" stroke-linecap="round" stroke-opacity="1.0" stroke="rgb(0, 0, 0)" stroke-linejoin="round" d=" M 613.136, 568.889 613.136, 568.889 " />
        </g>
    </g>
    <g id="ViewLayer_TechnicalLines.002" inkscape:groupmode="lineset" inkscape:label="ViewLayer_TechnicalLines.002">
        <g inkscape:groupmode="layer" id="strokes" inkscape:label="strokes">
            <path fill="none" stroke-width="1.5" stroke-linecap="round" stroke-opacity="1.0" stroke="rgb(0, 0, 0)" stroke-linejoin="round" d=" M 436.148, 796.444 436.148, 786.444 436.148, 776.444 436.148, 766.444 436.148, 756.444 436.148, 746.444 436.148, 736.444 436.148, 726.444 436.148, 716.444 436.148, 706.444 436.148, 696.444 436.148, 686.444 436.148, 676.444 436.148, 670.025 436.148, 670.025 " />
            <path fill="none" stroke-width="1.5" stroke-linecap="round" stroke-opacity="1.0" stroke="rgb(0, 0, 0)" stroke-linejoin="round" d=" M 410.864, 568.889 410.864, 578.889 410.864, 588.889 410.864, 598.889 410.864, 608.889 410.864, 618.889 410.864, 628.889 410.864, 638.889 410.864, 648.889 410.864, 658.889 410.864, 668.889 410.864, 678.889 410.864, 688.889 410.864, 698.889 410.864, 708.889 410.864, 718.889 410.864, 728.889 410.864, 738.889 410.864, 748.889 410.864, 758.889 410.864, 768.889 410.864, 778.889 410.864, 788.889 410.864, 796.444 410.864, 796.444 411.107, 796.444 411.827, 796.444 412.995, 796.444 414.567, 796.444 416.483, 796.444 418.668, 796.444 421.040, 796.444 423.506, 796.444 425.973, 796.444 428.344, 796.444 430.530, 796.444 432.445, 796.444 434.018, 796.444 435.186, 796.444 435.905, 796.444 436.148, 796.444 436.148, 786.444 436.148, 776.444 436.148, 766.444 436.148, 756.444 436.148, 746.444 436.148, 736.444 436.148, 726.444 436.148, 716.444 436.148, 706.444 436.148, 696.444 436.148, 686.444 436.148, 676.444 436.148, 670.025 436.148, 670.025 " />
            <path fill="none" stroke-width="1.5" stroke-linecap="round" stroke-opacity="1.0" stroke="rgb(0, 0, 0)" stroke-linejoin="round" d=" M 613.136, 796.444 613.136, 786.444 613.136, 776.444 613.136, 766.444 613.136, 756.444 613.136, 746.444 613.136, 736.444 613.136, 726.444 613.136, 716.444 613.136, 706.444 613.136, 696.444 613.136, 686.444 613.136, 676.444 613.136, 670.025 " />
            <path fill="none" stroke-width="1.5" stroke-linecap="round" stroke-opacity="1.0" stroke="rgb(0, 0, 0)" stroke-linejoin="round" d=" M 587.852, 670.025 587.852, 670.025 587.852, 680.025 587.852, 690.025 587.852, 700.025 587.852, 710.025 587.852, 720.025 587.852, 730.025 587.852, 740.025 587.852, 750.025 587.852, 760.025 587.852, 770.025 587.852, 780.025 587.852, 790.025 587.852, 796.444 587.852, 796.444 588.095, 796.444 588.814, 796.444 589.982, 796.444 591.555, 796.444 593.470, 796.444 595.656, 796.444 598.028, 796.444 600.494, 796.444 602.960, 796.444 605.332, 796.444 607.517, 796.444 609.433, 796.444 611.005, 796.444 612.174, 796.444 612.893, 796.444 613.136, 796.444 613.136, 786.444 613.136, 776.444 613.136, 766.444 613.136, 756.444 613.136, 746.444 613.136, 736.444 613.136, 726.444 613.136, 716.444 613.136, 706.444 613.136, 696.444 613.136, 686.444 613.136, 676.444 613.136, 670.025 613.136, 670.025 " />
            <path fill="none" stroke-width="1.5" stroke-linecap="round" stroke-opacity="1.0" stroke="rgb(0, 0, 0)" stroke-linejoin="round" d=" M 613.136, 568.889 613.136, 558.889 613.136, 548.889 613.136, 538.889 613.136, 528.889 613.136, 518.889 613.136, 508.889 613.136, 498.889 613.136, 488.889 613.136, 478.889 613.136, 468.889 613.136, 467.753 613.136, 467.753 603.136, 467.753 593.136, 467.753 583.136, 467.753 573.136, 467.753 563.136, 467.753 553.136, 467.753 543.136, 467.753 533.136, 467.753 523.136, 467.753 513.136, 467.753 503.136, 467.753 493.136, 467.753 483.136, 467.753 473.136, 467.753 463.136, 467.753 453.136, 467.753 443.136, 467.753 433.620, 467.753 433.620, 467.753 423.620, 467.753 413.620, 467.753 413.393, 467.753 413.393, 467.753 410.864, 467.753 410.864, 477.753 410.864, 487.753 410.864, 497.753 410.864, 507.753 410.864, 517.753 410.864, 527.753 410.864, 537.753 410.864, 547.753 410.864, 557.753 410.864, 567.753 410.864, 568.889 " />
            <path fill="none" stroke-width="1.5" stroke-linecap="round" stroke-opacity="1.0" stroke="rgb(0, 0, 0)" stroke-linejoin="round" d=" M 613.136, 467.753 613.136, 477.753 613.136, 487.753 613.136, 497.753 613.136, 507.753 613.136, 517.753 613.136, 527.753 613.136, 537.753 613.136, 547.753 613.136, 557.753 613.136, 567.753 613.136, 568.889 " />
            <path fill="none" stroke-width="1.5" stroke-linecap="round" stroke-opacity="1.0" stroke="rgb(0, 0, 0)" stroke-linejoin="round" d=" M 410.864, 568.889 410.864, 578.889 410.864, 588.889 410.864, 598.889 410.864, 608.889 410.864, 618.889 410.864, 628.889 410.864, 638.889 410.864, 648.889 410.864, 658.889 410.864, 668.889 410.864, 670.025 410.864, 670.025 420.864, 670.025 430.864, 670.025 436.148, 670.025 436.148, 670.025 446.148, 670.025 456.148, 670.025 466.148, 670.025 476.148, 670.025 486.148, 670.025 496.148, 670.025 506.148, 670.025 516.148, 670.025 526.148, 670.025 536.148, 670.025 546.148, 670.025 556.148, 670.025 566.148, 670.025 576.148, 670.025 586.148, 670.025 587.852, 670.025 587.852, 670.025 597.852, 670.025 607.852, 670.025 613.136, 670.025 " />
            <path fill="none" stroke-width="1.5" stroke-linecap="round" stroke-opacity="1.0" stroke="rgb(0, 0, 0)" stroke-linejoin="round" d=" M 433.620, 467.753 433.620, 457.753 433.620, 447.753 433.620, 437.753 433.620, 427.753 433.620, 417.753 433.620, 407.753 433.620, 397.753 433.620, 387.753 433.620, 377.753 433.620, 367.753 433.620, 357.753 433.620, 347.753 433.620, 337.753 433.620, 327.753 433.620, 317.753 433.620, 307.753 433.620, 297.753 433.620, 287.753 433.620, 277.753 433.620, 267.753 433.620, 257.753 433.620, 247.753 433.620, 237.753 433.620, 227.556 433.620, 227.556 423.620, 227.556 413.620, 227.556 413.393, 227.556 413.393, 237.556 413.393, 247.556 413.393, 257.556 413.393, 267.556 413.393, 277.556 413.393, 287.556 413.393, 297.556 413.393, 307.556 413.393, 317.556 413.393, 327.556 413.393, 337.556 413.393, 347.556 413.393, 357.556 413.393, 367.556 413.393, 377.556 413.393, 387.556 413.393, 397.556 413.393, 407.556 413.393, 417.556 413.393, 427.556 413.393, 437.556 413.393, 447.556 413.393, 457.556 413.393, 467.753 413.393, 467.753 413.393, 477.753 413.393, 487.753 413.393, 497.753 413.393, 507.753 413.393, 517.753 413.393, 527.753 413.393, 530.963 423.393, 530.963 433.393, 530.963 433.620, 530.963 " />
            <path fill="none" stroke-width="1.5" stroke-linecap="round" stroke-opacity="1.0" stroke="rgb(0, 0, 0)" stroke-linejoin="round" d=" M 433.620, 227.556 433.620, 237.556 433.620, 247.556 433.620, 257.556 433.620, 267.556 433.620, 277.556 433.620, 287.556 433.620, 297.556 433.620, 307.556 433.620, 317.556 433.620, 327.556 433.620, 337.556 433.620, 347.556 433.620, 357.556 433.620, 367.556 433.620, 377.556 433.620, 387.556 433.620, 397.556 433.620, 407.556 433.620, 417.556 433.620, 427.556 433.620, 437.556 433.620, 447.556 433.620, 457.556 433.620, 467.753 433.620, 477.753 433.620, 487.753 433.620, 497.753 433.620, 507.753 433.620, 517.753 433.620, 527.753 433.620, 530.963 " />
            <path fill="none" stroke-width="1.5" stroke-linecap="round" stroke-opacity="1.0" stroke="rgb(0, 0, 0)" stroke-linejoin="round" d=" M 613.136, 568.889 613.136, 578.889 613.136, 588.889 613.136, 598.889 613.136, 608.889 613.136, 618.889 613.136, 628.889 613.136, 638.889 613.136, 648.889 613.136, 658.889 613.136, 668.889 613.136, 670.025 " />
            <path fill="none" stroke-width="1.5" stroke-linecap="round" stroke-opacity="1.0" stroke="rgb(0, 0, 0)" stroke-linejoin="round" d=" M 436.148, 670.025 446.148, 670.025 456.148, 670.025 466.148, 670.025 476.148, 670.025 486.148, 670.025 496.148, 670.025 506.148, 670.025 516.148, 670.025 526.148, 670.025 536.148, 670.025 546.148, 670.025 556.148, 670.025 566.148, 670.025 576.148, 670.025 586.148, 670.025 587.852, 670.025 " />
            <path fill="none" stroke-width="1.5" stroke-linecap="round" stroke-opacity="1.0" stroke="rgb(0, 0, 0)" stroke-linejoin="round" d=" M 613.136, 670.025 613.136, 670.025 " />
            <path fill="none" stroke-width="1.5" stroke-linecap="round" stroke-opacity="1.0" stroke="rgb(0, 0, 0)" stroke-linejoin="round" d=" M 613.136, 670.025 613.136, 660.025 613.136, 650.025 613.136, 640.025 613.136, 630.025 613.136, 620.025 613.136, 610.025 613.136, 600.025 613.136, 590.025 613.136, 580.025 613.136, 570.025 613.136, 568.889 " />
            <path fill="none" stroke-width="1.5" stroke-linecap="round" stroke-opacity="1.0" stroke="rgb(0, 0, 0)" stroke-linejoin="round" d=" M 613.136, 568.889 613.136, 568.889 " />
        </g>
    </g>
    <g id="ViewLayer_TechnicalLines.003" inkscape:groupmode="lineset" inkscape:label="ViewLayer_TechnicalLines.003">
        <g inkscape:groupmode="layer" id="strokes" inkscape:label="strokes">
            <path fill="none" stroke-width="1.5" stroke-linecap="round" stroke-opacity="1.0" stroke="rgb(0, 0, 0)" stroke-linejoin="round" d=" M 436.148, 796.444 436.148, 786.444 436.148, 776.444 436.148, 766.444 436.148, 756.444 436.148, 746.444 436.148, 736.444 436.148, 726.444 436.148, 716.444 436.148, 706.444 436.148, 696.444 436.148, 686.444 436.148, 676.444 436.148, 670.025 436.148, 670.025 " />
            <path fill="none" stroke-width="1.5" stroke-linecap="round" stroke-opacity="1.0" stroke="rgb(0, 0, 0)" stroke-linejoin="round" d=" M 410.864, 568.889 410.864, 578.889 410.864, 588.889 410.864, 598.889 410.864, 608.889 410.864, 618.889 410.864, 628.889 410.864, 638.889 410.864, 648.889 410.864, 658.889 410.864, 668.889 410.864, 678.889 410.864, 688.889 410.864, 698.889 410.864, 708.889 410.864, 718.889 410.864, 728.889 410.864, 738.889 410.864, 748.889 410.864, 758.889 410.864, 768.889 410.864, 778.889 410.864, 788.889 410.864, 796.444 410.864, 796.444 411.107, 796.444 411.827, 796.444 412.995, 796.444 414.567, 796.444 416.483, 796.444 418.668, 796.444 421.040, 796.444 423.506, 796.444 425.973, 796.444 428.344, 796.444 430.530, 796.444 432.445, 796.444 434.018, 796.444 435.186, 796.444 435.905, 796.444 436.148, 796.444 436.148, 786.444 436.148, 776.444 436.148, 766.444 436.148, 756.444 436.148, 746.444 436.148, 736.444 436.148, 726.444 436.148, 716.444 436.148, 706.444 436.148, 696.444 436.148, 686.444 436.148, 676.444 436.148, 670.025 436.148, 670.025 " />
            <path fill="none" stroke-width="1.5" stroke-linecap="round" stroke-opacity="1.0" stroke="rgb(0, 0, 0)" stroke-linejoin="round" d=" M 613.136, 796.444 613.136, 786.444 613.136, 776.444 613.136, 766.444 613.136, 756.444 613.136, 746.444 613.136, 736.444 613.136, 726.444 613.136, 716.444 613.136, 706.444 613.136, 696.444 613.136, 686.444 613.136, 676.444 613.136, 670.025 " />
            <path fill="none" stroke-width="1.5" stroke-linecap="round" stroke-opacity="1.0" stroke="rgb(0, 0, 0)" stroke-linejoin="round" d=" M 587.852, 670.025 587.852, 670.025 587.852, 680.025 587.852, 690.025 587.852, 700.025 587.852, 710.025 587.852, 720.025 587.852, 730.025 587.852, 740.025 587.852, 750.025 587.852, 760.025 587.852, 770.025 587.852, 780.025 587.852, 790.025 587.852, 796.444 587.852, 796.444 588.095, 796.444 588.814, 796.444 589.982, 796.444 591.555, 796.444 593.470, 796.444 595.656, 796.444 598.028, 796.444 600.494, 796.444 602.960, 796.444 605.332, 796.444 607.517, 796.444 609.433, 796.444 611.005, 796.444 612.174, 796.444 612.893, 796.444 613.136, 796.444 613.136, 786.444 613.136, 776.444 613.136, 766.444 613.136, 756.444 613.136, 746.444 613.136, 736.444 613.136, 726.444 613.136, 716.444 613.136, 706.444 613.136, 696.444 613.136, 686.444 613.136, 676.444 613.136, 670.025 613.136, 670.025 " />
            <path fill="none" stroke-width="1.5" stroke-linecap="round" stroke-opacity="1.0" stroke="rgb(0, 0, 0)" stroke-linejoin="round" d=" M 613.136, 568.889 613.136, 558.889 613.136, 548.889 613.136, 538.889 613.136, 528.889 613.136, 518.889 613.136, 508.889 613.136, 498.889 613.136, 488.889 613.136, 478.889 613.136, 468.889 613.136, 467.753 613.136, 467.753 603.136, 467.753 593.136, 467.753 583.136, 467.753 573.136, 467.753 563.136, 467.753 553.136, 467.753 543.136, 467.753 533.136, 467.753 523.136, 467.753 513.136, 467.753 503.136, 467.753 493.136, 467.753 483.136, 467.753 473.136, 467.753 463.136, 467.753 453.136, 467.753 443.136, 467.753 433.620, 467.753 433.620, 467.753 423.620, 467.753 413.620, 467.753 413.393, 467.753 413.393, 467.753 410.864, 467.753 410.864, 477.753 410.864, 487.753 410.864, 497.753 410.864, 507.753 410.864, 517.753 410.864, 527.753 410.864, 537.753 410.864, 547.753 410.864, 557.753 410.864, 567.753 410.864, 568.889 " />
            <path fill="none" stroke-width="1.5" stroke-linecap="round" stroke-opacity="1.0" stroke="rgb(0, 0, 0)" stroke-linejoin="round" d=" M 613.136, 467.753 613.136, 477.753 613.136, 487.753 613.136, 497.753 613.136, 507.753 613.136, 517.753 613.136, 527.753 613.136, 537.753 613.136, 547.753 613.136, 557.753 613.136, 567.753 613.136, 568.889 " />
            <path fill="none" stroke-width="1.5" stroke-linecap="round" stroke-opacity="1.0" stroke="rgb(0, 0, 0)" stroke-linejoin="round" d=" M 410.864, 568.889 410.864, 578.889 410.864, 588.889 410.864, 598.889 410.864, 608.889 410.864, 618.889 410.864, 628.889 410.864, 638.889 410.864, 648.889 410.864, 658.889 410.864, 668.889 410.864, 670.025 410.864, 670.025 420.864, 670.025 430.864, 670.025 436.148, 670.025 436.148, 670.025 446.148, 670.025 456.148, 670.025 466.148, 670.025 476.148, 670.025 486.148, 670.025 496.148, 670.025 506.148, 670.025 516.148, 670.025 526.148, 670.025 536.148, 670.025 546.148, 670.025 556.148, 670.025 566.148, 670.025 576.148, 670.025 586.148, 670.025 587.852, 670.025 587.852, 670.025 597.852, 670.025 607.852, 670.025 613.136, 670.025 " />
            <path fill="none" stroke-width="1.5" stroke-linecap="round" stroke-opacity="1.0" stroke="rgb(0, 0, 0)" stroke-linejoin="round" d=" M 433.620, 467.753 433.620, 457.753 433.620, 447.753 433.620, 437.753 433.620, 427.753 433.620, 417.753 433.620, 407.753 433.620, 397.753 433.620, 387.753 433.620, 377.753 433.620, 367.753 433.620, 357.753 433.620, 347.753 433.620, 337.753 433.620, 327.753 433.620, 317.753 433.620, 307.753 433.620, 297.753 433.620, 287.753 433.620, 277.753 433.620, 267.753 433.620, 257.753 433.620, 247.753 433.620, 237.753 433.620, 227.556 433.620, 227.556 423.620, 227.556 413.620, 227.556 413.393, 227.556 413.393, 237.556 413.393, 247.556 413.393, 257.556 413.393, 267.556 413.393, 277.556 413.393, 287.556 413.393, 297.556 413.393, 307.556 413.393, 317.556 413.393, 327.556 413.393, 337.556 413.393, 347.556 413.393, 357.556 413.393, 367.556 413.393, 377.556 413.393, 387.556 413.393, 397.556 413.393, 407.556 413.393, 417.556 413.393, 427.556 413.393, 437.556 413.393, 447.556 413.393, 457.556 413.393, 467.753 413.393, 467.753 413.393, 477.753 413.393, 487.753 413.393, 497.753 413.393, 507.753 413.393, 517.753 413.393, 527.753 413.393, 530.963 423.393, 530.963 433.393, 530.963 433.620, 530.963 " />
            <path fill="none" stroke-width="1.5" stroke-linecap="round" stroke-opacity="1.0" stroke="rgb(0, 0, 0)" stroke-linejoin="round" d=" M 433.620, 227.556 433.620, 237.556 433.620, 247.556 433.620, 257.556 433.620, 267.556 433.620, 277.556 433.620, 287.556 433.620, 297.556 433.620, 307.556 433.620, 317.556 433.620, 327.556 433.620, 337.556 433.620, 347.556 433.620, 357.556 433.620, 367.556 433.620, 377.556 433.620, 387.556 433.620, 397.556 433.620, 407.556 433.620, 417.556 433.620, 427.556 433.620, 437.556 433.620, 447.556 433.620, 457.556 433.620, 467.753 433.620, 477.753 433.620, 487.753 433.620, 497.753 433.620, 507.753 433.620, 517.753 433.620, 527.753 433.620, 530.963 " />
            <path fill="none" stroke-width="1.5" stroke-linecap="round" stroke-opacity="1.0" stroke="rgb(0, 0, 0)" stroke-linejoin="round" d=" M 613.136, 568.889 613.136, 578.889 613.136, 588.889 613.136, 598.889 613.136, 608.889 613.136, 618.889 613.136, 628.889 613.136, 638.889 613.136, 648.889 613.136, 658.889 613.136, 668.889 613.136, 670.025 " />
            <path fill="none" stroke-width="1.5" stroke-linecap="round" stroke-opacity="1.0" stroke="rgb(0, 0, 0)" stroke-linejoin="round" d=" M 436.148, 670.025 446.148, 670.025 456.148, 670.025 466.148, 670.025 476.148, 670.025 486.148, 670.025 496.148, 670.025 506.148, 670.025 516.148, 670.025 526.148, 670.025 536.148, 670.025 546.148, 670.025 556.148, 670.025 566.148, 670.025 576.148, 670.025 586.148, 670.025 587.852, 670.025 " />
            <path fill="none" stroke-width="1.5" stroke-linecap="round" stroke-opacity="1.0" stroke="rgb(0, 0, 0)" stroke-linejoin="round" d=" M 613.136, 670.025 613.136, 670.025 " />
            <path fill="none" stroke-width="1.5" stroke-linecap="round" stroke-opacity="1.0" stroke="rgb(0, 0, 0)" stroke-linejoin="round" d=" M 613.136, 670.025 613.136, 660.025 613.136, 650.025 613.136, 640.025 613.136, 630.025 613.136, 620.025 613.136, 610.025 613.136, 600.025 613.136, 590.025 613.136, 580.025 613.136, 570.025 613.136, 568.889 " />
            <path fill="none" stroke-width="1.5" stroke-linecap="round" stroke-opacity="1.0" stroke="rgb(0, 0, 0)" stroke-linejoin="round" d=" M 613.136, 568.889 613.136, 568.889 " />
        </g>
    </g>
    <g id="ViewLayer_TechnicalLines.004" xmlns:inkscape="http://www.inkscape.org/namespaces/inkscape" inkscape:groupmode="lineset" inkscape:label="ViewLayer_TechnicalLines.004">
        <g xmlns:inkscape="http://www.inkscape.org/namespaces/inkscape" inkscape:groupmode="layer" id="strokes" inkscape:label="strokes">
            <path fill="none" stroke-width="1.5" stroke-linecap="round" stroke-opacity="1.0" stroke="rgb(0, 0, 0)" stroke-linejoin="round" d=" M 436.148, 796.444 436.148, 786.444 436.148, 776.444 436.148, 766.444 436.148, 756.444 436.148, 746.444 436.148, 736.444 436.148, 726.444 436.148, 716.444 436.148, 706.444 436.148, 696.444 436.148, 686.444 436.148, 676.444 436.148, 670.025 436.148, 670.025 " />
            <path fill="none" stroke-width="1.5" stroke-linecap="round" stroke-opacity="1.0" stroke="rgb(0, 0, 0)" stroke-linejoin="round" d=" M 410.864, 568.889 410.864, 578.889 410.864, 588.889 410.864, 598.889 410.864, 608.889 410.864, 618.889 410.864, 628.889 410.864, 638.889 410.864, 648.889 410.864, 658.889 410.864, 668.889 410.864, 678.889 410.864, 688.889 410.864, 698.889 410.864, 708.889 410.864, 718.889 410.864, 728.889 410.864, 738.889 410.864, 748.889 410.864, 758.889 410.864, 768.889 410.864, 778.889 410.864, 788.889 410.864, 796.444 410.864, 796.444 411.107, 796.444 411.827, 796.444 412.995, 796.444 414.567, 796.444 416.483, 796.444 418.668, 796.444 421.040, 796.444 423.506, 796.444 425.973, 796.444 428.344, 796.444 430.530, 796.444 432.445, 796.444 434.018, 796.444 435.186, 796.444 435.905, 796.444 436.148, 796.444 436.148, 786.444 436.148, 776.444 436.148, 766.444 436.148, 756.444 436.148, 746.444 436.148, 736.444 436.148, 726.444 436.148, 716.444 436.148, 706.444 436.148, 696.444 436.148, 686.444 436.148, 676.444 436.148, 670.025 436.148, 670.025 " />
            <path fill="none" stroke-width="1.5" stroke-linecap="round" stroke-opacity="1.0" stroke="rgb(0, 0, 0)" stroke-linejoin="round" d=" M 613.136, 796.444 613.136, 786.444 613.136, 776.444 613.136, 766.444 613.136, 756.444 613.136, 746.444 613.136, 736.444 613.136, 726.444 613.136, 716.444 613.136, 706.444 613.136, 696.444 613.136, 686.444 613.136, 676.444 613.136, 670.025 " />
            <path fill="none" stroke-width="1.5" stroke-linecap="round" stroke-opacity="1.0" stroke="rgb(0, 0, 0)" stroke-linejoin="round" d=" M 587.852, 670.025 587.852, 670.025 587.852, 680.025 587.852, 690.025 587.852, 700.025 587.852, 710.025 587.852, 720.025 587.852, 730.025 587.852, 740.025 587.852, 750.025 587.852, 760.025 587.852, 770.025 587.852, 780.025 587.852, 790.025 587.852, 796.444 587.852, 796.444 588.095, 796.444 588.814, 796.444 589.982, 796.444 591.555, 796.444 593.470, 796.444 595.656, 796.444 598.028, 796.444 600.494, 796.444 602.960, 796.444 605.332, 796.444 607.517, 796.444 609.433, 796.444 611.005, 796.444 612.174, 796.444 612.893, 796.444 613.136, 796.444 613.136, 786.444 613.136, 776.444 613.136, 766.444 613.136, 756.444 613.136, 746.444 613.136, 736.444 613.136, 726.444 613.136, 716.444 613.136, 706.444 613.136, 696.444 613.136, 686.444 613.136, 676.444 613.136, 670.025 613.136, 670.025 " />
            <path fill="none" stroke-width="1.5" stroke-linecap="round" stroke-opacity="1.0" stroke="rgb(0, 0, 0)" stroke-linejoin="round" d=" M 613.136, 568.889 613.136, 558.889 613.136, 548.889 613.136, 538.889 613.136, 528.889 613.136, 518.889 613.136, 508.889 613.136, 498.889 613.136, 488.889 613.136, 478.889 613.136, 468.889 613.136, 467.753 613.136, 467.753 603.136, 467.753 593.136, 467.753 583.136, 467.753 573.136, 467.753 563.136, 467.753 553.136, 467.753 543.136, 467.753 533.136, 467.753 523.136, 467.753 513.136, 467.753 503.136, 467.753 493.136, 467.753 483.136, 467.753 473.136, 467.753 463.136, 467.753 453.136, 467.753 443.136, 467.753 433.620, 467.753 433.620, 467.753 423.620, 467.753 413.620, 467.753 413.393, 467.753 413.393, 467.753 410.864, 467.753 410.864, 477.753 410.864, 487.753 410.864, 497.753 410.864, 507.753 410.864, 517.753 410.864, 527.753 410.864, 537.753 410.864, 547.753 410.864, 557.753 410.864, 567.753 410.864, 568.889 " />
            <path fill="none" stroke-width="1.5" stroke-linecap="round" stroke-opacity="1.0" stroke="rgb(0, 0, 0)" stroke-linejoin="round" d=" M 613.136, 467.753 613.136, 477.753 613.136, 487.753 613.136, 497.753 613.136, 507.753 613.136, 517.753 613.136, 527.753 613.136, 537.753 613.136, 547.753 613.136, 557.753 613.136, 567.753 613.136, 568.889 " />
            <path fill="none" stroke-width="1.5" stroke-linecap="round" stroke-opacity="1.0" stroke="rgb(0, 0, 0)" stroke-linejoin="round" d=" M 410.864, 568.889 410.864, 578.889 410.864, 588.889 410.864, 598.889 410.864, 608.889 410.864, 618.889 410.864, 628.889 410.864, 638.889 410.864, 648.889 410.864, 658.889 410.864, 668.889 410.864, 670.025 410.864, 670.025 420.864, 670.025 430.864, 670.025 436.148, 670.025 436.148, 670.025 446.148, 670.025 456.148, 670.025 466.148, 670.025 476.148, 670.025 486.148, 670.025 496.148, 670.025 506.148, 670.025 516.148, 670.025 526.148, 670.025 536.148, 670.025 546.148, 670.025 556.148, 670.025 566.148, 670.025 576.148, 670.025 586.148, 670.025 587.852, 670.025 587.852, 670.025 597.852, 670.025 607.852, 670.025 613.136, 670.025 " />
            <path fill="none" stroke-width="1.5" stroke-linecap="round" stroke-opacity="1.0" stroke="rgb(0, 0, 0)" stroke-linejoin="round" d=" M 433.620, 467.753 433.620, 457.753 433.620, 447.753 433.620, 437.753 433.620, 427.753 433.620, 417.753 433.620, 407.753 433.620, 397.753 433.620, 387.753 433.620, 377.753 433.620, 367.753 433.620, 357.753 433.620, 347.753 433.620, 337.753 433.620, 327.753 433.620, 317.753 433.620, 307.753 433.620, 297.753 433.620, 287.753 433.620, 277.753 433.620, 267.753 433.620, 257.753 433.620, 247.753 433.620, 237.753 433.620, 227.556 433.620, 227.556 423.620, 227.556 413.620, 227.556 413.393, 227.556 413.393, 237.556 413.393, 247.556 413.393, 257.556 413.393, 267.556 413.393, 277.556 413.393, 287.556 413.393, 297.556 413.393, 307.556 413.393, 317.556 413.393, 327.556 413.393, 337.556 413.393, 347.556 413.393, 357.556 413.393, 367.556 413.393, 377.556 413.393, 387.556 413.393, 397.556 413.393, 407.556 413.393, 417.556 413.393, 427.556 413.393, 437.556 413.393, 447.556 413.393, 457.556 413.393, 467.753 413.393, 467.753 413.393, 477.753 413.393, 487.753 413.393, 497.753 413.393, 507.753 413.393, 517.753 413.393, 527.753 413.393, 530.963 423.393, 530.963 433.393, 530.963 433.620, 530.963 " />
            <path fill="none" stroke-width="1.5" stroke-linecap="round" stroke-opacity="1.0" stroke="rgb(0, 0, 0)" stroke-linejoin="round" d=" M 433.620, 227.556 433.620, 237.556 433.620, 247.556 433.620, 257.556 433.620, 267.556 433.620, 277.556 433.620, 287.556 433.620, 297.556 433.620, 307.556 433.620, 317.556 433.620, 327.556 433.620, 337.556 433.620, 347.556 433.620, 357.556 433.620, 367.556 433.620, 377.556 433.620, 387.556 433.620, 397.556 433.620, 407.556 433.620, 417.556 433.620, 427.556 433.620, 437.556 433.620, 447.556 433.620, 457.556 433.620, 467.753 433.620, 477.753 433.620, 487.753 433.620, 497.753 433.620, 507.753 433.620, 517.753 433.620, 527.753 433.620, 530.963 " />
            <path fill="none" stroke-width="1.5" stroke-linecap="round" stroke-opacity="1.0" stroke="rgb(0, 0, 0)" stroke-linejoin="round" d=" M 613.136, 568.889 613.136, 578.889 613.136, 588.889 613.136, 598.889 613.136, 608.889 613.136, 618.889 613.136, 628.889 613.136, 638.889 613.136, 648.889 613.136, 658.889 613.136, 668.889 613.136, 670.025 " />
            <path fill="none" stroke-width="1.5" stroke-linecap="round" stroke-opacity="1.0" stroke="rgb(0, 0, 0)" stroke-linejoin="round" d=" M 436.148, 670.025 446.148, 670.025 456.148, 670.025 466.148, 670.025 476.148, 670.025 486.148, 670.025 496.148, 670.025 506.148, 670.025 516.148, 670.025 526.148, 670.025 536.148, 670.025 546.148, 670.025 556.148, 670.025 566.148, 670.025 576.148, 670.025 586.148, 670.025 587.852, 670.025 " />
            <path fill="none" stroke-width="1.5" stroke-linecap="round" stroke-opacity="1.0" stroke="rgb(0, 0, 0)" stroke-linejoin="round" d=" M 613.136, 670.025 613.136, 670.025 " />
            <path fill="none" stroke-width="1.5" stroke-linecap="round" stroke-opacity="1.0" stroke="rgb(0, 0, 0)" stroke-linejoin="round" d=" M 613.136, 670.025 613.136, 660.025 613.136, 650.025 613.136, 640.025 613.136, 630.025 613.136, 620.025 613.136, 610.025 613.136, 600.025 613.136, 590.025 613.136, 580.025 613.136, 570.025 613.136, 568.889 " />
            <path fill="none" stroke-width="1.5" stroke-linecap="round" stroke-opacity="1.0" stroke="rgb(0, 0, 0)" stroke-linejoin="round" d=" M 613.136, 568.889 613.136, 568.889 " />
        </g>
    </g>
</svg>
