<?xml version='1.0' encoding='ascii'?>
<svg xmlns="http://www.w3.org/2000/svg" xmlns:inkscape="http://www.inkscape.org/namespaces/inkscape" version="1.1" width="1024" height="1024">
    <g id="ViewLayer_LineSet" inkscape:groupmode="lineset" inkscape:label="ViewLayer_LineSet">
        <g inkscape:groupmode="layer" id="strokes" inkscape:label="strokes">
            <path fill="none" stroke-width="3.0" stroke-linecap="butt" stroke-opacity="1.0" stroke="rgb(0, 0, 0)" stroke-linejoin="round" d=" M 600.494, 613.136 610.494, 613.136 613.136, 613.136 613.136, 603.136 613.136, 593.136 613.136, 583.136 613.136, 573.136 613.136, 563.136 613.136, 553.136 613.136, 543.136 613.136, 533.136 613.136, 523.136 613.136, 513.136 613.136, 503.136 613.136, 493.136 613.136, 483.136 613.136, 473.136 613.136, 463.136 613.136, 453.136 613.136, 443.136 613.136, 433.136 613.136, 423.136 613.136, 413.136 613.136, 410.864 603.136, 410.864 593.136, 410.864 583.136, 410.864 573.136, 410.864 563.136, 410.864 553.136, 410.864 543.136, 410.864 533.136, 410.864 523.136, 410.864 513.136, 410.864 503.136, 410.864 493.136, 410.864 483.136, 410.864 473.136, 410.864 463.136, 410.864 453.136, 410.864 443.136, 410.864 433.136, 410.864 423.136, 410.864 413.136, 410.864 410.864, 410.864 410.864, 420.864 410.864, 423.506 " />
            <path fill="none" stroke-width="3.0" stroke-linecap="butt" stroke-opacity="1.0" stroke="rgb(0, 0, 0)" stroke-linejoin="round" d=" M 410.864, 590.380 410.864, 600.380 410.864, 600.494 " />
            <path fill="none" stroke-width="3.0" stroke-linecap="butt" stroke-opacity="1.0" stroke="rgb(0, 0, 0)" stroke-linejoin="round" d=" M 608.002, 610.607 613.136, 610.607 613.136, 600.607 613.136, 590.607 613.136, 590.380 608.002, 590.380 " />
            <path fill="none" stroke-width="3.0" stroke-linecap="butt" stroke-opacity="1.0" stroke="rgb(0, 0, 0)" stroke-linejoin="round" d=" M 410.864, 600.494 410.864, 610.494 410.864, 610.607 " />
            <path fill="none" stroke-width="3.0" stroke-linecap="butt" stroke-opacity="1.0" stroke="rgb(0, 0, 0)" stroke-linejoin="round" d=" M 410.864, 610.607 410.864, 613.136 " />
            <path fill="none" stroke-width="3.0" stroke-linecap="butt" stroke-opacity="1.0" stroke="rgb(0, 0, 0)" stroke-linejoin="round" d=" M 410.864, 423.506 410.864, 433.506 410.864, 443.506 410.864, 453.506 410.864, 463.506 410.864, 473.506 410.864, 483.506 410.864, 493.506 410.864, 503.506 410.864, 513.506 410.864, 523.506 410.864, 533.506 410.864, 543.506 410.864, 553.506 410.864, 563.506 410.864, 573.506 410.864, 583.506 410.864, 590.380 " />
            <path fill="none" stroke-width="3.0" stroke-linecap="butt" stroke-opacity="1.0" stroke="rgb(0, 0, 0)" stroke-linejoin="round" d=" M 423.506, 613.136 433.506, 613.136 443.506, 613.136 453.506, 613.136 463.506, 613.136 473.506, 613.136 483.506, 613.136 493.506, 613.136 503.506, 613.136 513.506, 613.136 523.506, 613.136 533.506, 613.136 543.506, 613.136 553.506, 613.136 563.506, 613.136 573.506, 613.136 583.506, 613.136 593.506, 613.136 600.494, 613.136 " />
            <path fill="none" stroke-width="3.0" stroke-linecap="butt" stroke-opacity="1.0" stroke="rgb(0, 0, 0)" stroke-linejoin="round" d=" M 410.864, 613.136 420.864, 613.136 423.506, 613.136 " />
            <path fill="none" stroke-width="3.0" stroke-linecap="butt" stroke-opacity="1.0" stroke="rgb(0, 0, 0)" stroke-linejoin="round" d=" M 592.986, 610.607 602.986, 610.607 608.002, 610.607 " />
            <path fill="none" stroke-width="3.0" stroke-linecap="butt" stroke-opacity="1.0" stroke="rgb(0, 0, 0)" stroke-linejoin="round" d=" M 431.014, 610.607 441.014, 610.607 451.014, 610.607 461.014, 610.607 471.014, 610.607 481.014, 610.607 491.014, 610.607 501.014, 610.607 511.014, 610.607 521.014, 610.607 531.014, 610.607 541.014, 610.607 551.014, 610.607 561.014, 610.607 571.014, 610.607 581.014, 610.607 591.014, 610.607 592.986, 610.607 " />
            <path fill="none" stroke-width="3.0" stroke-linecap="butt" stroke-opacity="1.0" stroke="rgb(0, 0, 0)" stroke-linejoin="round" d=" M 415.998, 610.607 425.998, 610.607 431.014, 610.607 " />
            <path fill="none" stroke-width="3.0" stroke-linecap="butt" stroke-opacity="1.0" stroke="rgb(0, 0, 0)" stroke-linejoin="round" d=" M 410.864, 610.607 415.998, 610.607 " />
            <path fill="none" stroke-width="3.0" stroke-linecap="butt" stroke-opacity="1.0" stroke="rgb(0, 0, 0)" stroke-linejoin="round" d=" M 415.998, 590.380 410.864, 590.380 " />
            <path fill="none" stroke-width="3.0" stroke-linecap="butt" stroke-opacity="1.0" stroke="rgb(0, 0, 0)" stroke-linejoin="round" d=" M 431.014, 590.380 421.014, 590.380 415.998, 590.380 " />
            <path fill="none" stroke-width="3.0" stroke-linecap="butt" stroke-opacity="1.0" stroke="rgb(0, 0, 0)" stroke-linejoin="round" d=" M 592.986, 590.380 582.986, 590.380 572.986, 590.380 562.986, 590.380 552.986, 590.380 542.986, 590.380 532.986, 590.380 522.986, 590.380 512.986, 590.380 502.986, 590.380 492.986, 590.380 482.986, 590.380 472.986, 590.380 462.986, 590.380 452.986, 590.380 442.986, 590.380 432.986, 590.380 431.014, 590.380 " />
            <path fill="none" stroke-width="3.0" stroke-linecap="butt" stroke-opacity="1.0" stroke="rgb(0, 0, 0)" stroke-linejoin="round" d=" M 608.002, 590.380 598.002, 590.380 592.986, 590.380 " />
        </g>
    </g>
    <g id="ViewLayer_TechnicalLines" inkscape:groupmode="lineset" inkscape:label="ViewLayer_TechnicalLines">
        <g inkscape:groupmode="layer" id="strokes" inkscape:label="strokes">
            <path fill="none" stroke-width="3.0" stroke-linecap="butt" stroke-opacity="1.0" stroke="rgb(0, 0, 0)" stroke-linejoin="round" d=" M 600.494, 613.136 610.494, 613.136 613.136, 613.136 613.136, 603.136 613.136, 593.136 613.136, 583.136 613.136, 573.136 613.136, 563.136 613.136, 553.136 613.136, 543.136 613.136, 533.136 613.136, 523.136 613.136, 513.136 613.136, 503.136 613.136, 493.136 613.136, 483.136 613.136, 473.136 613.136, 463.136 613.136, 453.136 613.136, 443.136 613.136, 433.136 613.136, 423.136 613.136, 413.136 613.136, 410.864 603.136, 410.864 593.136, 410.864 583.136, 410.864 573.136, 410.864 563.136, 410.864 553.136, 410.864 543.136, 410.864 533.136, 410.864 523.136, 410.864 513.136, 410.864 503.136, 410.864 493.136, 410.864 483.136, 410.864 473.136, 410.864 463.136, 410.864 453.136, 410.864 443.136, 410.864 433.136, 410.864 423.136, 410.864 413.136, 410.864 410.864, 410.864 410.864, 420.864 410.864, 423.506 " />
            <path fill="none" stroke-width="3.0" stroke-linecap="butt" stroke-opacity="1.0" stroke="rgb(0, 0, 0)" stroke-linejoin="round" d=" M 410.864, 590.380 410.864, 600.380 410.864, 600.494 " />
            <path fill="none" stroke-width="3.0" stroke-linecap="butt" stroke-opacity="1.0" stroke="rgb(0, 0, 0)" stroke-linejoin="round" d=" M 608.002, 610.607 613.136, 610.607 613.136, 600.607 613.136, 590.607 613.136, 590.380 608.002, 590.380 " />
            <path fill="none" stroke-width="3.0" stroke-linecap="butt" stroke-opacity="1.0" stroke="rgb(0, 0, 0)" stroke-linejoin="round" d=" M 410.864, 600.494 410.864, 610.494 410.864, 610.607 " />
            <path fill="none" stroke-width="3.0" stroke-linecap="butt" stroke-opacity="1.0" stroke="rgb(0, 0, 0)" stroke-linejoin="round" d=" M 410.864, 610.607 410.864, 613.136 " />
            <path fill="none" stroke-width="3.0" stroke-linecap="butt" stroke-opacity="1.0" stroke="rgb(0, 0, 0)" stroke-linejoin="round" d=" M 410.864, 423.506 410.864, 433.506 410.864, 443.506 410.864, 453.506 410.864, 463.506 410.864, 473.506 410.864, 483.506 410.864, 493.506 410.864, 503.506 410.864, 513.506 410.864, 523.506 410.864, 533.506 410.864, 543.506 410.864, 553.506 410.864, 563.506 410.864, 573.506 410.864, 583.506 410.864, 590.380 " />
            <path fill="none" stroke-width="3.0" stroke-linecap="butt" stroke-opacity="1.0" stroke="rgb(0, 0, 0)" stroke-linejoin="round" d=" M 423.506, 613.136 433.506, 613.136 443.506, 613.136 453.506, 613.136 463.506, 613.136 473.506, 613.136 483.506, 613.136 493.506, 613.136 503.506, 613.136 513.506, 613.136 523.506, 613.136 533.506, 613.136 543.506, 613.136 553.506, 613.136 563.506, 613.136 573.506, 613.136 583.506, 613.136 593.506, 613.136 600.494, 613.136 " />
            <path fill="none" stroke-width="3.0" stroke-linecap="butt" stroke-opacity="1.0" stroke="rgb(0, 0, 0)" stroke-linejoin="round" d=" M 410.864, 613.136 420.864, 613.136 423.506, 613.136 " />
            <path fill="none" stroke-width="3.0" stroke-linecap="butt" stroke-opacity="1.0" stroke="rgb(0, 0, 0)" stroke-linejoin="round" d=" M 592.986, 610.607 602.986, 610.607 608.002, 610.607 " />
            <path fill="none" stroke-width="3.0" stroke-linecap="butt" stroke-opacity="1.0" stroke="rgb(0, 0, 0)" stroke-linejoin="round" d=" M 431.014, 610.607 441.014, 610.607 451.014, 610.607 461.014, 610.607 471.014, 610.607 481.014, 610.607 491.014, 610.607 501.014, 610.607 511.014, 610.607 521.014, 610.607 531.014, 610.607 541.014, 610.607 551.014, 610.607 561.014, 610.607 571.014, 610.607 581.014, 610.607 591.014, 610.607 592.986, 610.607 " />
            <path fill="none" stroke-width="3.0" stroke-linecap="butt" stroke-opacity="1.0" stroke="rgb(0, 0, 0)" stroke-linejoin="round" d=" M 415.998, 610.607 425.998, 610.607 431.014, 610.607 " />
            <path fill="none" stroke-width="3.0" stroke-linecap="butt" stroke-opacity="1.0" stroke="rgb(0, 0, 0)" stroke-linejoin="round" d=" M 410.864, 610.607 415.998, 610.607 " />
            <path fill="none" stroke-width="3.0" stroke-linecap="butt" stroke-opacity="1.0" stroke="rgb(0, 0, 0)" stroke-linejoin="round" d=" M 415.998, 590.380 410.864, 590.380 " />
            <path fill="none" stroke-width="3.0" stroke-linecap="butt" stroke-opacity="1.0" stroke="rgb(0, 0, 0)" stroke-linejoin="round" d=" M 431.014, 590.380 421.014, 590.380 415.998, 590.380 " />
            <path fill="none" stroke-width="3.0" stroke-linecap="butt" stroke-opacity="1.0" stroke="rgb(0, 0, 0)" stroke-linejoin="round" d=" M 592.986, 590.380 582.986, 590.380 572.986, 590.380 562.986, 590.380 552.986, 590.380 542.986, 590.380 532.986, 590.380 522.986, 590.380 512.986, 590.380 502.986, 590.380 492.986, 590.380 482.986, 590.380 472.986, 590.380 462.986, 590.380 452.986, 590.380 442.986, 590.380 432.986, 590.380 431.014, 590.380 " />
            <path fill="none" stroke-width="3.0" stroke-linecap="butt" stroke-opacity="1.0" stroke="rgb(0, 0, 0)" stroke-linejoin="round" d=" M 608.002, 590.380 598.002, 590.380 592.986, 590.380 " />
        </g>
    </g>
    <g id="ViewLayer_TechnicalLines.001" inkscape:groupmode="lineset" inkscape:label="ViewLayer_TechnicalLines.001">
        <g inkscape:groupmode="layer" id="strokes" inkscape:label="strokes">
            <path fill="none" stroke-width="1.5" stroke-linecap="round" stroke-opacity="1.0" stroke="rgb(0, 0, 0)" stroke-linejoin="round" d=" M 600.494, 613.136 610.494, 613.136 613.136, 613.136 613.136, 603.136 613.136, 593.136 613.136, 583.136 613.136, 573.136 613.136, 563.136 613.136, 553.136 613.136, 543.136 613.136, 533.136 613.136, 523.136 613.136, 513.136 613.136, 503.136 613.136, 493.136 613.136, 483.136 613.136, 473.136 613.136, 463.136 613.136, 453.136 613.136, 443.136 613.136, 433.136 613.136, 423.136 613.136, 413.136 613.136, 410.864 603.136, 410.864 593.136, 410.864 583.136, 410.864 573.136, 410.864 563.136, 410.864 553.136, 410.864 543.136, 410.864 533.136, 410.864 523.136, 410.864 513.136, 410.864 503.136, 410.864 493.136, 410.864 483.136, 410.864 473.136, 410.864 463.136, 410.864 453.136, 410.864 443.136, 410.864 433.136, 410.864 423.136, 410.864 413.136, 410.864 410.864, 410.864 410.864, 420.864 410.864, 423.506 " />
            <path fill="none" stroke-width="1.5" stroke-linecap="round" stroke-opacity="1.0" stroke="rgb(0, 0, 0)" stroke-linejoin="round" d=" M 410.864, 590.380 410.864, 600.380 410.864, 600.494 " />
            <path fill="none" stroke-width="1.5" stroke-linecap="round" stroke-opacity="1.0" stroke="rgb(0, 0, 0)" stroke-linejoin="round" d=" M 608.002, 610.607 613.136, 610.607 613.136, 600.607 613.136, 590.607 613.136, 590.380 608.002, 590.380 " />
            <path fill="none" stroke-width="1.5" stroke-linecap="round" stroke-opacity="1.0" stroke="rgb(0, 0, 0)" stroke-linejoin="round" d=" M 410.864, 600.494 410.864, 610.494 410.864, 610.607 " />
            <path fill="none" stroke-width="1.5" stroke-linecap="round" stroke-opacity="1.0" stroke="rgb(0, 0, 0)" stroke-linejoin="round" d=" M 410.864, 610.607 410.864, 613.136 " />
            <path fill="none" stroke-width="1.5" stroke-linecap="round" stroke-opacity="1.0" stroke="rgb(0, 0, 0)" stroke-linejoin="round" d=" M 410.864, 423.506 410.864, 433.506 410.864, 443.506 410.864, 453.506 410.864, 463.506 410.864, 473.506 410.864, 483.506 410.864, 493.506 410.864, 503.506 410.864, 513.506 410.864, 523.506 410.864, 533.506 410.864, 543.506 410.864, 553.506 410.864, 563.506 410.864, 573.506 410.864, 583.506 410.864, 590.380 " />
            <path fill="none" stroke-width="1.5" stroke-linecap="round" stroke-opacity="1.0" stroke="rgb(0, 0, 0)" stroke-linejoin="round" d=" M 423.506, 613.136 433.506, 613.136 443.506, 613.136 453.506, 613.136 463.506, 613.136 473.506, 613.136 483.506, 613.136 493.506, 613.136 503.506, 613.136 513.506, 613.136 523.506, 613.136 533.506, 613.136 543.506, 613.136 553.506, 613.136 563.506, 613.136 573.506, 613.136 583.506, 613.136 593.506, 613.136 600.494, 613.136 " />
            <path fill="none" stroke-width="1.5" stroke-linecap="round" stroke-opacity="1.0" stroke="rgb(0, 0, 0)" stroke-linejoin="round" d=" M 410.864, 613.136 420.864, 613.136 423.506, 613.136 " />
            <path fill="none" stroke-width="1.5" stroke-linecap="round" stroke-opacity="1.0" stroke="rgb(0, 0, 0)" stroke-linejoin="round" d=" M 592.986, 610.607 602.986, 610.607 608.002, 610.607 " />
            <path fill="none" stroke-width="1.5" stroke-linecap="round" stroke-opacity="1.0" stroke="rgb(0, 0, 0)" stroke-linejoin="round" d=" M 431.014, 610.607 441.014, 610.607 451.014, 610.607 461.014, 610.607 471.014, 610.607 481.014, 610.607 491.014, 610.607 501.014, 610.607 511.014, 610.607 521.014, 610.607 531.014, 610.607 541.014, 610.607 551.014, 610.607 561.014, 610.607 571.014, 610.607 581.014, 610.607 591.014, 610.607 592.986, 610.607 " />
            <path fill="none" stroke-width="1.5" stroke-linecap="round" stroke-opacity="1.0" stroke="rgb(0, 0, 0)" stroke-linejoin="round" d=" M 415.998, 610.607 425.998, 610.607 431.014, 610.607 " />
            <path fill="none" stroke-width="1.5" stroke-linecap="round" stroke-opacity="1.0" stroke="rgb(0, 0, 0)" stroke-linejoin="round" d=" M 410.864, 610.607 415.998, 610.607 " />
            <path fill="none" stroke-width="1.5" stroke-linecap="round" stroke-opacity="1.0" stroke="rgb(0, 0, 0)" stroke-linejoin="round" d=" M 415.998, 590.380 410.864, 590.380 " />
            <path fill="none" stroke-width="1.5" stroke-linecap="round" stroke-opacity="1.0" stroke="rgb(0, 0, 0)" stroke-linejoin="round" d=" M 431.014, 590.380 421.014, 590.380 415.998, 590.380 " />
            <path fill="none" stroke-width="1.5" stroke-linecap="round" stroke-opacity="1.0" stroke="rgb(0, 0, 0)" stroke-linejoin="round" d=" M 592.986, 590.380 582.986, 590.380 572.986, 590.380 562.986, 590.380 552.986, 590.380 542.986, 590.380 532.986, 590.380 522.986, 590.380 512.986, 590.380 502.986, 590.380 492.986, 590.380 482.986, 590.380 472.986, 590.380 462.986, 590.380 452.986, 590.380 442.986, 590.380 432.986, 590.380 431.014, 590.380 " />
            <path fill="none" stroke-width="1.5" stroke-linecap="round" stroke-opacity="1.0" stroke="rgb(0, 0, 0)" stroke-linejoin="round" d=" M 608.002, 590.380 598.002, 590.380 592.986, 590.380 " />
        </g>
    </g>
    <g id="ViewLayer_TechnicalLines.002" inkscape:groupmode="lineset" inkscape:label="ViewLayer_TechnicalLines.002">
        <g inkscape:groupmode="layer" id="strokes" inkscape:label="strokes">
            <path fill="none" stroke-width="1.5" stroke-linecap="round" stroke-opacity="1.0" stroke="rgb(0, 0, 0)" stroke-linejoin="round" d=" M 600.494, 613.136 610.494, 613.136 613.136, 613.136 613.136, 603.136 613.136, 593.136 613.136, 583.136 613.136, 573.136 613.136, 563.136 613.136, 553.136 613.136, 543.136 613.136, 533.136 613.136, 523.136 613.136, 513.136 613.136, 503.136 613.136, 493.136 613.136, 483.136 613.136, 473.136 613.136, 463.136 613.136, 453.136 613.136, 443.136 613.136, 433.136 613.136, 423.136 613.136, 413.136 613.136, 410.864 603.136, 410.864 593.136, 410.864 583.136, 410.864 573.136, 410.864 563.136, 410.864 553.136, 410.864 543.136, 410.864 533.136, 410.864 523.136, 410.864 513.136, 410.864 503.136, 410.864 493.136, 410.864 483.136, 410.864 473.136, 410.864 463.136, 410.864 453.136, 410.864 443.136, 410.864 433.136, 410.864 423.136, 410.864 413.136, 410.864 410.864, 410.864 410.864, 420.864 410.864, 423.506 " />
            <path fill="none" stroke-width="1.5" stroke-linecap="round" stroke-opacity="1.0" stroke="rgb(0, 0, 0)" stroke-linejoin="round" d=" M 410.864, 590.380 410.864, 600.380 410.864, 600.494 " />
            <path fill="none" stroke-width="1.5" stroke-linecap="round" stroke-opacity="1.0" stroke="rgb(0, 0, 0)" stroke-linejoin="round" d=" M 608.002, 610.607 613.136, 610.607 613.136, 600.607 613.136, 590.607 613.136, 590.380 608.002, 590.380 " />
            <path fill="none" stroke-width="1.5" stroke-linecap="round" stroke-opacity="1.0" stroke="rgb(0, 0, 0)" stroke-linejoin="round" d=" M 410.864, 600.494 410.864, 610.494 410.864, 610.607 " />
            <path fill="none" stroke-width="1.5" stroke-linecap="round" stroke-opacity="1.0" stroke="rgb(0, 0, 0)" stroke-linejoin="round" d=" M 410.864, 610.607 410.864, 613.136 " />
            <path fill="none" stroke-width="1.5" stroke-linecap="round" stroke-opacity="1.0" stroke="rgb(0, 0, 0)" stroke-linejoin="round" d=" M 410.864, 423.506 410.864, 433.506 410.864, 443.506 410.864, 453.506 410.864, 463.506 410.864, 473.506 410.864, 483.506 410.864, 493.506 410.864, 503.506 410.864, 513.506 410.864, 523.506 410.864, 533.506 410.864, 543.506 410.864, 553.506 410.864, 563.506 410.864, 573.506 410.864, 583.506 410.864, 590.380 " />
            <path fill="none" stroke-width="1.5" stroke-linecap="round" stroke-opacity="1.0" stroke="rgb(0, 0, 0)" stroke-linejoin="round" d=" M 423.506, 613.136 433.506, 613.136 443.506, 613.136 453.506, 613.136 463.506, 613.136 473.506, 613.136 483.506, 613.136 493.506, 613.136 503.506, 613.136 513.506, 613.136 523.506, 613.136 533.506, 613.136 543.506, 613.136 553.506, 613.136 563.506, 613.136 573.506, 613.136 583.506, 613.136 593.506, 613.136 600.494, 613.136 " />
            <path fill="none" stroke-width="1.5" stroke-linecap="round" stroke-opacity="1.0" stroke="rgb(0, 0, 0)" stroke-linejoin="round" d=" M 410.864, 613.136 420.864, 613.136 423.506, 613.136 " />
            <path fill="none" stroke-width="1.5" stroke-linecap="round" stroke-opacity="1.0" stroke="rgb(0, 0, 0)" stroke-linejoin="round" d=" M 592.986, 610.607 602.986, 610.607 608.002, 610.607 " />
            <path fill="none" stroke-width="1.5" stroke-linecap="round" stroke-opacity="1.0" stroke="rgb(0, 0, 0)" stroke-linejoin="round" d=" M 431.014, 610.607 441.014, 610.607 451.014, 610.607 461.014, 610.607 471.014, 610.607 481.014, 610.607 491.014, 610.607 501.014, 610.607 511.014, 610.607 521.014, 610.607 531.014, 610.607 541.014, 610.607 551.014, 610.607 561.014, 610.607 571.014, 610.607 581.014, 610.607 591.014, 610.607 592.986, 610.607 " />
            <path fill="none" stroke-width="1.5" stroke-linecap="round" stroke-opacity="1.0" stroke="rgb(0, 0, 0)" stroke-linejoin="round" d=" M 415.998, 610.607 425.998, 610.607 431.014, 610.607 " />
            <path fill="none" stroke-width="1.5" stroke-linecap="round" stroke-opacity="1.0" stroke="rgb(0, 0, 0)" stroke-linejoin="round" d=" M 410.864, 610.607 415.998, 610.607 " />
            <path fill="none" stroke-width="1.5" stroke-linecap="round" stroke-opacity="1.0" stroke="rgb(0, 0, 0)" stroke-linejoin="round" d=" M 415.998, 590.380 410.864, 590.380 " />
            <path fill="none" stroke-width="1.5" stroke-linecap="round" stroke-opacity="1.0" stroke="rgb(0, 0, 0)" stroke-linejoin="round" d=" M 431.014, 590.380 421.014, 590.380 415.998, 590.380 " />
            <path fill="none" stroke-width="1.5" stroke-linecap="round" stroke-opacity="1.0" stroke="rgb(0, 0, 0)" stroke-linejoin="round" d=" M 592.986, 590.380 582.986, 590.380 572.986, 590.380 562.986, 590.380 552.986, 590.380 542.986, 590.380 532.986, 590.380 522.986, 590.380 512.986, 590.380 502.986, 590.380 492.986, 590.380 482.986, 590.380 472.986, 590.380 462.986, 590.380 452.986, 590.380 442.986, 590.380 432.986, 590.380 431.014, 590.380 " />
            <path fill="none" stroke-width="1.5" stroke-linecap="round" stroke-opacity="1.0" stroke="rgb(0, 0, 0)" stroke-linejoin="round" d=" M 608.002, 590.380 598.002, 590.380 592.986, 590.380 " />
        </g>
    </g>
    <g id="ViewLayer_TechnicalLines.003" inkscape:groupmode="lineset" inkscape:label="ViewLayer_TechnicalLines.003">
        <g inkscape:groupmode="layer" id="strokes" inkscape:label="strokes">
            <path fill="none" stroke-width="1.5" stroke-linecap="round" stroke-opacity="1.0" stroke="rgb(0, 0, 0)" stroke-linejoin="round" d=" M 600.494, 613.136 610.494, 613.136 613.136, 613.136 613.136, 603.136 613.136, 593.136 613.136, 583.136 613.136, 573.136 613.136, 563.136 613.136, 553.136 613.136, 543.136 613.136, 533.136 613.136, 523.136 613.136, 513.136 613.136, 503.136 613.136, 493.136 613.136, 483.136 613.136, 473.136 613.136, 463.136 613.136, 453.136 613.136, 443.136 613.136, 433.136 613.136, 423.136 613.136, 413.136 613.136, 410.864 603.136, 410.864 593.136, 410.864 583.136, 410.864 573.136, 410.864 563.136, 410.864 553.136, 410.864 543.136, 410.864 533.136, 410.864 523.136, 410.864 513.136, 410.864 503.136, 410.864 493.136, 410.864 483.136, 410.864 473.136, 410.864 463.136, 410.864 453.136, 410.864 443.136, 410.864 433.136, 410.864 423.136, 410.864 413.136, 410.864 410.864, 410.864 410.864, 420.864 410.864, 423.506 " />
            <path fill="none" stroke-width="1.5" stroke-linecap="round" stroke-opacity="1.0" stroke="rgb(0, 0, 0)" stroke-linejoin="round" d=" M 410.864, 590.380 410.864, 600.380 410.864, 600.494 " />
            <path fill="none" stroke-width="1.5" stroke-linecap="round" stroke-opacity="1.0" stroke="rgb(0, 0, 0)" stroke-linejoin="round" d=" M 608.002, 610.607 613.136, 610.607 613.136, 600.607 613.136, 590.607 613.136, 590.380 608.002, 590.380 " />
            <path fill="none" stroke-width="1.5" stroke-linecap="round" stroke-opacity="1.0" stroke="rgb(0, 0, 0)" stroke-linejoin="round" d=" M 410.864, 600.494 410.864, 610.494 410.864, 610.607 " />
            <path fill="none" stroke-width="1.5" stroke-linecap="round" stroke-opacity="1.0" stroke="rgb(0, 0, 0)" stroke-linejoin="round" d=" M 410.864, 610.607 410.864, 613.136 " />
            <path fill="none" stroke-width="1.5" stroke-linecap="round" stroke-opacity="1.0" stroke="rgb(0, 0, 0)" stroke-linejoin="round" d=" M 410.864, 423.506 410.864, 433.506 410.864, 443.506 410.864, 453.506 410.864, 463.506 410.864, 473.506 410.864, 483.506 410.864, 493.506 410.864, 503.506 410.864, 513.506 410.864, 523.506 410.864, 533.506 410.864, 543.506 410.864, 553.506 410.864, 563.506 410.864, 573.506 410.864, 583.506 410.864, 590.380 " />
            <path fill="none" stroke-width="1.5" stroke-linecap="round" stroke-opacity="1.0" stroke="rgb(0, 0, 0)" stroke-linejoin="round" d=" M 423.506, 613.136 433.506, 613.136 443.506, 613.136 453.506, 613.136 463.506, 613.136 473.506, 613.136 483.506, 613.136 493.506, 613.136 503.506, 613.136 513.506, 613.136 523.506, 613.136 533.506, 613.136 543.506, 613.136 553.506, 613.136 563.506, 613.136 573.506, 613.136 583.506, 613.136 593.506, 613.136 600.494, 613.136 " />
            <path fill="none" stroke-width="1.5" stroke-linecap="round" stroke-opacity="1.0" stroke="rgb(0, 0, 0)" stroke-linejoin="round" d=" M 410.864, 613.136 420.864, 613.136 423.506, 613.136 " />
            <path fill="none" stroke-width="1.5" stroke-linecap="round" stroke-opacity="1.0" stroke="rgb(0, 0, 0)" stroke-linejoin="round" d=" M 592.986, 610.607 602.986, 610.607 608.002, 610.607 " />
            <path fill="none" stroke-width="1.5" stroke-linecap="round" stroke-opacity="1.0" stroke="rgb(0, 0, 0)" stroke-linejoin="round" d=" M 431.014, 610.607 441.014, 610.607 451.014, 610.607 461.014, 610.607 471.014, 610.607 481.014, 610.607 491.014, 610.607 501.014, 610.607 511.014, 610.607 521.014, 610.607 531.014, 610.607 541.014, 610.607 551.014, 610.607 561.014, 610.607 571.014, 610.607 581.014, 610.607 591.014, 610.607 592.986, 610.607 " />
            <path fill="none" stroke-width="1.5" stroke-linecap="round" stroke-opacity="1.0" stroke="rgb(0, 0, 0)" stroke-linejoin="round" d=" M 415.998, 610.607 425.998, 610.607 431.014, 610.607 " />
            <path fill="none" stroke-width="1.5" stroke-linecap="round" stroke-opacity="1.0" stroke="rgb(0, 0, 0)" stroke-linejoin="round" d=" M 410.864, 610.607 415.998, 610.607 " />
            <path fill="none" stroke-width="1.5" stroke-linecap="round" stroke-opacity="1.0" stroke="rgb(0, 0, 0)" stroke-linejoin="round" d=" M 415.998, 590.380 410.864, 590.380 " />
            <path fill="none" stroke-width="1.5" stroke-linecap="round" stroke-opacity="1.0" stroke="rgb(0, 0, 0)" stroke-linejoin="round" d=" M 431.014, 590.380 421.014, 590.380 415.998, 590.380 " />
            <path fill="none" stroke-width="1.5" stroke-linecap="round" stroke-opacity="1.0" stroke="rgb(0, 0, 0)" stroke-linejoin="round" d=" M 592.986, 590.380 582.986, 590.380 572.986, 590.380 562.986, 590.380 552.986, 590.380 542.986, 590.380 532.986, 590.380 522.986, 590.380 512.986, 590.380 502.986, 590.380 492.986, 590.380 482.986, 590.380 472.986, 590.380 462.986, 590.380 452.986, 590.380 442.986, 590.380 432.986, 590.380 431.014, 590.380 " />
            <path fill="none" stroke-width="1.5" stroke-linecap="round" stroke-opacity="1.0" stroke="rgb(0, 0, 0)" stroke-linejoin="round" d=" M 608.002, 590.380 598.002, 590.380 592.986, 590.380 " />
        </g>
    </g>
    <g id="ViewLayer_TechnicalLines.004" xmlns:inkscape="http://www.inkscape.org/namespaces/inkscape" inkscape:groupmode="lineset" inkscape:label="ViewLayer_TechnicalLines.004">
        <g xmlns:inkscape="http://www.inkscape.org/namespaces/inkscape" inkscape:groupmode="layer" id="strokes" inkscape:label="strokes">
            <path fill="none" stroke-width="1.5" stroke-linecap="round" stroke-opacity="1.0" stroke="rgb(0, 0, 0)" stroke-linejoin="round" d=" M 600.494, 613.136 610.494, 613.136 613.136, 613.136 613.136, 603.136 613.136, 593.136 613.136, 583.136 613.136, 573.136 613.136, 563.136 613.136, 553.136 613.136, 543.136 613.136, 533.136 613.136, 523.136 613.136, 513.136 613.136, 503.136 613.136, 493.136 613.136, 483.136 613.136, 473.136 613.136, 463.136 613.136, 453.136 613.136, 443.136 613.136, 433.136 613.136, 423.136 613.136, 413.136 613.136, 410.864 603.136, 410.864 593.136, 410.864 583.136, 410.864 573.136, 410.864 563.136, 410.864 553.136, 410.864 543.136, 410.864 533.136, 410.864 523.136, 410.864 513.136, 410.864 503.136, 410.864 493.136, 410.864 483.136, 410.864 473.136, 410.864 463.136, 410.864 453.136, 410.864 443.136, 410.864 433.136, 410.864 423.136, 410.864 413.136, 410.864 410.864, 410.864 410.864, 420.864 410.864, 423.506 " />
            <path fill="none" stroke-width="1.5" stroke-linecap="round" stroke-opacity="1.0" stroke="rgb(0, 0, 0)" stroke-linejoin="round" d=" M 410.864, 590.380 410.864, 600.380 410.864, 600.494 " />
            <path fill="none" stroke-width="1.5" stroke-linecap="round" stroke-opacity="1.0" stroke="rgb(0, 0, 0)" stroke-linejoin="round" d=" M 608.002, 610.607 613.136, 610.607 613.136, 600.607 613.136, 590.607 613.136, 590.380 608.002, 590.380 " />
            <path fill="none" stroke-width="1.5" stroke-linecap="round" stroke-opacity="1.0" stroke="rgb(0, 0, 0)" stroke-linejoin="round" d=" M 410.864, 600.494 410.864, 610.494 410.864, 610.607 " />
            <path fill="none" stroke-width="1.5" stroke-linecap="round" stroke-opacity="1.0" stroke="rgb(0, 0, 0)" stroke-linejoin="round" d=" M 410.864, 610.607 410.864, 613.136 " />
            <path fill="none" stroke-width="1.5" stroke-linecap="round" stroke-opacity="1.0" stroke="rgb(0, 0, 0)" stroke-linejoin="round" d=" M 410.864, 423.506 410.864, 433.506 410.864, 443.506 410.864, 453.506 410.864, 463.506 410.864, 473.506 410.864, 483.506 410.864, 493.506 410.864, 503.506 410.864, 513.506 410.864, 523.506 410.864, 533.506 410.864, 543.506 410.864, 553.506 410.864, 563.506 410.864, 573.506 410.864, 583.506 410.864, 590.380 " />
            <path fill="none" stroke-width="1.5" stroke-linecap="round" stroke-opacity="1.0" stroke="rgb(0, 0, 0)" stroke-linejoin="round" d=" M 423.506, 613.136 433.506, 613.136 443.506, 613.136 453.506, 613.136 463.506, 613.136 473.506, 613.136 483.506, 613.136 493.506, 613.136 503.506, 613.136 513.506, 613.136 523.506, 613.136 533.506, 613.136 543.506, 613.136 553.506, 613.136 563.506, 613.136 573.506, 613.136 583.506, 613.136 593.506, 613.136 600.494, 613.136 " />
            <path fill="none" stroke-width="1.5" stroke-linecap="round" stroke-opacity="1.0" stroke="rgb(0, 0, 0)" stroke-linejoin="round" d=" M 410.864, 613.136 420.864, 613.136 423.506, 613.136 " />
            <path fill="none" stroke-width="1.5" stroke-linecap="round" stroke-opacity="1.0" stroke="rgb(0, 0, 0)" stroke-linejoin="round" d=" M 592.986, 610.607 602.986, 610.607 608.002, 610.607 " />
            <path fill="none" stroke-width="1.5" stroke-linecap="round" stroke-opacity="1.0" stroke="rgb(0, 0, 0)" stroke-linejoin="round" d=" M 431.014, 610.607 441.014, 610.607 451.014, 610.607 461.014, 610.607 471.014, 610.607 481.014, 610.607 491.014, 610.607 501.014, 610.607 511.014, 610.607 521.014, 610.607 531.014, 610.607 541.014, 610.607 551.014, 610.607 561.014, 610.607 571.014, 610.607 581.014, 610.607 591.014, 610.607 592.986, 610.607 " />
            <path fill="none" stroke-width="1.5" stroke-linecap="round" stroke-opacity="1.0" stroke="rgb(0, 0, 0)" stroke-linejoin="round" d=" M 415.998, 610.607 425.998, 610.607 431.014, 610.607 " />
            <path fill="none" stroke-width="1.5" stroke-linecap="round" stroke-opacity="1.0" stroke="rgb(0, 0, 0)" stroke-linejoin="round" d=" M 410.864, 610.607 415.998, 610.607 " />
            <path fill="none" stroke-width="1.5" stroke-linecap="round" stroke-opacity="1.0" stroke="rgb(0, 0, 0)" stroke-linejoin="round" d=" M 415.998, 590.380 410.864, 590.380 " />
            <path fill="none" stroke-width="1.5" stroke-linecap="round" stroke-opacity="1.0" stroke="rgb(0, 0, 0)" stroke-linejoin="round" d=" M 431.014, 590.380 421.014, 590.380 415.998, 590.380 " />
            <path fill="none" stroke-width="1.5" stroke-linecap="round" stroke-opacity="1.0" stroke="rgb(0, 0, 0)" stroke-linejoin="round" d=" M 592.986, 590.380 582.986, 590.380 572.986, 590.380 562.986, 590.380 552.986, 590.380 542.986, 590.380 532.986, 590.380 522.986, 590.380 512.986, 590.380 502.986, 590.380 492.986, 590.380 482.986, 590.380 472.986, 590.380 462.986, 590.380 452.986, 590.380 442.986, 590.380 432.986, 590.380 431.014, 590.380 " />
            <path fill="none" stroke-width="1.5" stroke-linecap="round" stroke-opacity="1.0" stroke="rgb(0, 0, 0)" stroke-linejoin="round" d=" M 608.002, 590.380 598.002, 590.380 592.986, 590.380 " />
        </g>
    </g>
</svg>
