<?xml version='1.0' encoding='ascii'?>
<svg xmlns="http://www.w3.org/2000/svg" xmlns:inkscape="http://www.inkscape.org/namespaces/inkscape" version="1.1" width="1024" height="1024">
    <g id="ViewLayer_LineSet" inkscape:groupmode="lineset" inkscape:label="ViewLayer_LineSet">
        <g inkscape:groupmode="layer" id="strokes" inkscape:label="strokes">
            <path fill="none" stroke-width="3.0" stroke-linecap="butt" stroke-opacity="1.0" stroke="rgb(0, 0, 0)" stroke-linejoin="round" d=" M 437.109, 684.107 437.109, 694.107 437.109, 704.107 437.109, 714.107 437.109, 724.107 437.109, 734.107 437.109, 744.107 437.109, 754.107 437.109, 764.107 437.109, 774.107 437.109, 784.107 437.109, 794.107 437.109, 796.444 447.109, 796.444 457.109, 796.444 462.072, 796.444 462.072, 786.444 462.072, 776.444 462.072, 766.444 462.072, 756.444 462.072, 746.444 462.072, 736.444 462.072, 726.444 462.072, 716.444 462.072, 706.444 462.072, 696.444 462.072, 686.444 462.072, 684.107 452.072, 684.107 442.072, 684.107 437.109, 684.107 " />
            <path fill="none" stroke-width="3.0" stroke-linecap="butt" stroke-opacity="1.0" stroke="rgb(0, 0, 0)" stroke-linejoin="round" d=" M 561.928, 684.107 561.928, 694.107 561.928, 704.107 561.928, 714.107 561.928, 724.107 561.928, 734.107 561.928, 744.107 561.928, 754.107 561.928, 764.107 561.928, 774.107 561.928, 784.107 561.928, 794.107 561.928, 796.444 571.928, 796.444 581.928, 796.444 586.891, 796.444 586.891, 786.444 586.891, 776.444 586.891, 766.444 586.891, 756.444 586.891, 746.444 586.891, 736.444 586.891, 726.444 586.891, 716.444 586.891, 706.444 586.891, 696.444 586.891, 686.444 586.891, 684.107 576.891, 684.107 566.891, 684.107 561.928, 684.107 " />
            <path fill="none" stroke-width="3.0" stroke-linecap="butt" stroke-opacity="1.0" stroke="rgb(0, 0, 0)" stroke-linejoin="round" d=" M 499.518, 615.457 489.518, 615.457 479.518, 615.457 469.518, 615.457 459.518, 615.457 449.518, 615.457 439.518, 615.457 429.518, 615.457 419.518, 615.457 409.518, 615.457 399.518, 615.457 389.518, 615.457 387.181, 615.457 387.181, 625.457 387.181, 635.457 387.181, 640.421 387.181, 640.421 397.181, 640.421 407.181, 640.421 417.181, 640.421 427.181, 640.421 437.181, 640.421 447.181, 640.421 457.181, 640.421 467.181, 640.421 477.181, 640.421 487.181, 640.421 497.181, 640.421 499.518, 640.421 " />
            <path fill="none" stroke-width="3.0" stroke-linecap="butt" stroke-opacity="1.0" stroke="rgb(0, 0, 0)" stroke-linejoin="round" d=" M 524.482, 640.421 534.482, 640.421 544.482, 640.421 554.482, 640.421 564.482, 640.421 574.482, 640.421 584.482, 640.421 594.482, 640.421 604.482, 640.421 614.482, 640.421 624.482, 640.421 634.482, 640.421 636.819, 640.421 636.819, 640.421 636.819, 630.421 636.819, 620.421 636.819, 615.457 626.819, 615.457 616.819, 615.457 606.819, 615.457 596.819, 615.457 586.819, 615.457 576.819, 615.457 566.819, 615.457 556.819, 615.457 546.819, 615.457 536.819, 615.457 526.819, 615.457 524.482, 615.457 " />
            <path fill="none" stroke-width="3.0" stroke-linecap="butt" stroke-opacity="1.0" stroke="rgb(0, 0, 0)" stroke-linejoin="round" d=" M 387.181, 640.421 397.181, 640.421 407.181, 640.421 417.181, 640.421 427.181, 640.421 437.181, 640.421 447.181, 640.421 457.181, 640.421 467.181, 640.421 477.181, 640.421 487.181, 640.421 497.181, 640.421 499.518, 640.421 " />
            <path fill="none" stroke-width="3.0" stroke-linecap="butt" stroke-opacity="1.0" stroke="rgb(0, 0, 0)" stroke-linejoin="round" d=" M 499.518, 292.167 499.518, 302.167 499.518, 312.167 499.518, 322.167 499.518, 332.167 499.518, 342.167 499.518, 352.167 499.518, 362.167 499.518, 372.167 499.518, 382.167 499.518, 392.167 499.518, 402.167 499.518, 412.167 499.518, 422.167 499.518, 432.167 499.518, 442.167 499.518, 452.167 499.518, 462.167 499.518, 472.167 499.518, 482.167 499.518, 492.167 499.518, 502.167 499.518, 512.167 499.518, 522.167 499.518, 532.167 499.518, 542.167 499.518, 552.167 499.518, 562.167 499.518, 572.167 499.518, 582.167 499.518, 592.167 499.518, 602.167 499.518, 612.167 499.518, 615.457 499.518, 615.457 499.518, 625.457 499.518, 635.457 499.518, 640.421 499.518, 640.421 499.518, 650.421 499.518, 653.865 509.518, 653.865 519.518, 653.865 524.482, 653.865 524.482, 643.865 524.482, 640.421 524.482, 640.421 524.482, 630.421 524.482, 620.421 524.482, 615.457 524.482, 615.457 524.482, 605.457 524.482, 595.457 524.482, 589.254 524.482, 579.254 524.482, 569.254 524.482, 559.254 524.482, 549.254 524.482, 539.254 524.482, 529.254 524.482, 519.254 524.482, 509.254 524.482, 499.254 524.482, 489.254 524.482, 479.254 524.482, 469.254 524.482, 459.254 524.482, 449.254 524.482, 439.254 524.482, 429.254 524.482, 419.254 524.482, 409.254 524.482, 399.254 524.482, 389.254 524.482, 379.254 524.482, 369.254 524.482, 359.254 524.482, 349.254 524.482, 339.254 524.482, 329.254 524.482, 319.254 524.482, 309.254 524.482, 299.254 524.482, 292.167 524.482, 282.167 524.482, 272.167 524.482, 262.167 524.482, 252.167 524.482, 242.167 524.482, 232.167 524.482, 227.556 514.482, 227.556 504.482, 227.556 499.518, 227.556 499.518, 237.556 499.518, 247.556 499.518, 257.556 499.518, 267.556 499.518, 277.556 499.518, 287.556 499.518, 292.167 " />
            <path fill="none" stroke-width="3.0" stroke-linecap="butt" stroke-opacity="1.0" stroke="rgb(0, 0, 0)" stroke-linejoin="round" d=" M 524.482, 292.167 514.482, 292.167 504.482, 292.167 499.518, 292.167 " />
            <path fill="none" stroke-width="3.0" stroke-linecap="butt" stroke-opacity="1.0" stroke="rgb(0, 0, 0)" stroke-linejoin="round" d=" M 524.482, 640.421 534.482, 640.421 544.482, 640.421 554.482, 640.421 564.482, 640.421 574.482, 640.421 584.482, 640.421 594.482, 640.421 604.482, 640.421 614.482, 640.421 624.482, 640.421 634.482, 640.421 636.819, 640.421 " />
        </g>
    </g>
    <g id="ViewLayer_TechnicalLines" inkscape:groupmode="lineset" inkscape:label="ViewLayer_TechnicalLines">
        <g inkscape:groupmode="layer" id="strokes" inkscape:label="strokes">
            <path fill="none" stroke-width="3.0" stroke-linecap="butt" stroke-opacity="1.0" stroke="rgb(0, 0, 0)" stroke-linejoin="round" d=" M 437.109, 684.107 437.109, 694.107 437.109, 704.107 437.109, 714.107 437.109, 724.107 437.109, 734.107 437.109, 744.107 437.109, 754.107 437.109, 764.107 437.109, 774.107 437.109, 784.107 437.109, 794.107 437.109, 796.444 447.109, 796.444 457.109, 796.444 462.072, 796.444 462.072, 786.444 462.072, 776.444 462.072, 766.444 462.072, 756.444 462.072, 746.444 462.072, 736.444 462.072, 726.444 462.072, 716.444 462.072, 706.444 462.072, 696.444 462.072, 686.444 462.072, 684.107 452.072, 684.107 442.072, 684.107 437.109, 684.107 " />
            <path fill="none" stroke-width="3.0" stroke-linecap="butt" stroke-opacity="1.0" stroke="rgb(0, 0, 0)" stroke-linejoin="round" d=" M 561.928, 684.107 561.928, 694.107 561.928, 704.107 561.928, 714.107 561.928, 724.107 561.928, 734.107 561.928, 744.107 561.928, 754.107 561.928, 764.107 561.928, 774.107 561.928, 784.107 561.928, 794.107 561.928, 796.444 571.928, 796.444 581.928, 796.444 586.891, 796.444 586.891, 786.444 586.891, 776.444 586.891, 766.444 586.891, 756.444 586.891, 746.444 586.891, 736.444 586.891, 726.444 586.891, 716.444 586.891, 706.444 586.891, 696.444 586.891, 686.444 586.891, 684.107 576.891, 684.107 566.891, 684.107 561.928, 684.107 " />
            <path fill="none" stroke-width="3.0" stroke-linecap="butt" stroke-opacity="1.0" stroke="rgb(0, 0, 0)" stroke-linejoin="round" d=" M 499.518, 615.457 489.518, 615.457 479.518, 615.457 469.518, 615.457 459.518, 615.457 449.518, 615.457 439.518, 615.457 429.518, 615.457 419.518, 615.457 409.518, 615.457 399.518, 615.457 389.518, 615.457 387.181, 615.457 387.181, 625.457 387.181, 635.457 387.181, 640.421 387.181, 640.421 397.181, 640.421 407.181, 640.421 417.181, 640.421 427.181, 640.421 437.181, 640.421 447.181, 640.421 457.181, 640.421 467.181, 640.421 477.181, 640.421 487.181, 640.421 497.181, 640.421 499.518, 640.421 " />
            <path fill="none" stroke-width="3.0" stroke-linecap="butt" stroke-opacity="1.0" stroke="rgb(0, 0, 0)" stroke-linejoin="round" d=" M 524.482, 640.421 534.482, 640.421 544.482, 640.421 554.482, 640.421 564.482, 640.421 574.482, 640.421 584.482, 640.421 594.482, 640.421 604.482, 640.421 614.482, 640.421 624.482, 640.421 634.482, 640.421 636.819, 640.421 636.819, 640.421 636.819, 630.421 636.819, 620.421 636.819, 615.457 626.819, 615.457 616.819, 615.457 606.819, 615.457 596.819, 615.457 586.819, 615.457 576.819, 615.457 566.819, 615.457 556.819, 615.457 546.819, 615.457 536.819, 615.457 526.819, 615.457 524.482, 615.457 " />
            <path fill="none" stroke-width="3.0" stroke-linecap="butt" stroke-opacity="1.0" stroke="rgb(0, 0, 0)" stroke-linejoin="round" d=" M 387.181, 640.421 397.181, 640.421 407.181, 640.421 417.181, 640.421 427.181, 640.421 437.181, 640.421 447.181, 640.421 457.181, 640.421 467.181, 640.421 477.181, 640.421 487.181, 640.421 497.181, 640.421 499.518, 640.421 " />
            <path fill="none" stroke-width="3.0" stroke-linecap="butt" stroke-opacity="1.0" stroke="rgb(0, 0, 0)" stroke-linejoin="round" d=" M 499.518, 292.167 499.518, 302.167 499.518, 312.167 499.518, 322.167 499.518, 332.167 499.518, 342.167 499.518, 352.167 499.518, 362.167 499.518, 372.167 499.518, 382.167 499.518, 392.167 499.518, 402.167 499.518, 412.167 499.518, 422.167 499.518, 432.167 499.518, 442.167 499.518, 452.167 499.518, 462.167 499.518, 472.167 499.518, 482.167 499.518, 492.167 499.518, 502.167 499.518, 512.167 499.518, 522.167 499.518, 532.167 499.518, 542.167 499.518, 552.167 499.518, 562.167 499.518, 572.167 499.518, 582.167 499.518, 592.167 499.518, 602.167 499.518, 612.167 499.518, 615.457 499.518, 615.457 499.518, 625.457 499.518, 635.457 499.518, 640.421 499.518, 640.421 499.518, 650.421 499.518, 653.865 509.518, 653.865 519.518, 653.865 524.482, 653.865 524.482, 643.865 524.482, 640.421 524.482, 640.421 524.482, 630.421 524.482, 620.421 524.482, 615.457 524.482, 615.457 524.482, 605.457 524.482, 595.457 524.482, 589.254 524.482, 579.254 524.482, 569.254 524.482, 559.254 524.482, 549.254 524.482, 539.254 524.482, 529.254 524.482, 519.254 524.482, 509.254 524.482, 499.254 524.482, 489.254 524.482, 479.254 524.482, 469.254 524.482, 459.254 524.482, 449.254 524.482, 439.254 524.482, 429.254 524.482, 419.254 524.482, 409.254 524.482, 399.254 524.482, 389.254 524.482, 379.254 524.482, 369.254 524.482, 359.254 524.482, 349.254 524.482, 339.254 524.482, 329.254 524.482, 319.254 524.482, 309.254 524.482, 299.254 524.482, 292.167 524.482, 282.167 524.482, 272.167 524.482, 262.167 524.482, 252.167 524.482, 242.167 524.482, 232.167 524.482, 227.556 514.482, 227.556 504.482, 227.556 499.518, 227.556 499.518, 237.556 499.518, 247.556 499.518, 257.556 499.518, 267.556 499.518, 277.556 499.518, 287.556 499.518, 292.167 " />
            <path fill="none" stroke-width="3.0" stroke-linecap="butt" stroke-opacity="1.0" stroke="rgb(0, 0, 0)" stroke-linejoin="round" d=" M 524.482, 292.167 514.482, 292.167 504.482, 292.167 499.518, 292.167 " />
            <path fill="none" stroke-width="3.0" stroke-linecap="butt" stroke-opacity="1.0" stroke="rgb(0, 0, 0)" stroke-linejoin="round" d=" M 524.482, 640.421 534.482, 640.421 544.482, 640.421 554.482, 640.421 564.482, 640.421 574.482, 640.421 584.482, 640.421 594.482, 640.421 604.482, 640.421 614.482, 640.421 624.482, 640.421 634.482, 640.421 636.819, 640.421 " />
        </g>
    </g>
    <g id="ViewLayer_TechnicalLines.001" inkscape:groupmode="lineset" inkscape:label="ViewLayer_TechnicalLines.001">
        <g inkscape:groupmode="layer" id="strokes" inkscape:label="strokes">
            <path fill="none" stroke-width="1.5" stroke-linecap="round" stroke-opacity="1.0" stroke="rgb(0, 0, 0)" stroke-linejoin="round" d=" M 437.109, 684.107 437.109, 694.107 437.109, 704.107 437.109, 714.107 437.109, 724.107 437.109, 734.107 437.109, 744.107 437.109, 754.107 437.109, 764.107 437.109, 774.107 437.109, 784.107 437.109, 794.107 437.109, 796.444 447.109, 796.444 457.109, 796.444 462.072, 796.444 462.072, 786.444 462.072, 776.444 462.072, 766.444 462.072, 756.444 462.072, 746.444 462.072, 736.444 462.072, 726.444 462.072, 716.444 462.072, 706.444 462.072, 696.444 462.072, 686.444 462.072, 684.107 452.072, 684.107 442.072, 684.107 437.109, 684.107 " />
            <path fill="none" stroke-width="1.5" stroke-linecap="round" stroke-opacity="1.0" stroke="rgb(0, 0, 0)" stroke-linejoin="round" d=" M 561.928, 684.107 561.928, 694.107 561.928, 704.107 561.928, 714.107 561.928, 724.107 561.928, 734.107 561.928, 744.107 561.928, 754.107 561.928, 764.107 561.928, 774.107 561.928, 784.107 561.928, 794.107 561.928, 796.444 571.928, 796.444 581.928, 796.444 586.891, 796.444 586.891, 786.444 586.891, 776.444 586.891, 766.444 586.891, 756.444 586.891, 746.444 586.891, 736.444 586.891, 726.444 586.891, 716.444 586.891, 706.444 586.891, 696.444 586.891, 686.444 586.891, 684.107 576.891, 684.107 566.891, 684.107 561.928, 684.107 " />
            <path fill="none" stroke-width="1.5" stroke-linecap="round" stroke-opacity="1.0" stroke="rgb(0, 0, 0)" stroke-linejoin="round" d=" M 499.518, 615.457 489.518, 615.457 479.518, 615.457 469.518, 615.457 459.518, 615.457 449.518, 615.457 439.518, 615.457 429.518, 615.457 419.518, 615.457 409.518, 615.457 399.518, 615.457 389.518, 615.457 387.181, 615.457 387.181, 625.457 387.181, 635.457 387.181, 640.421 387.181, 640.421 397.181, 640.421 407.181, 640.421 417.181, 640.421 427.181, 640.421 437.181, 640.421 447.181, 640.421 457.181, 640.421 467.181, 640.421 477.181, 640.421 487.181, 640.421 497.181, 640.421 499.518, 640.421 " />
            <path fill="none" stroke-width="1.5" stroke-linecap="round" stroke-opacity="1.0" stroke="rgb(0, 0, 0)" stroke-linejoin="round" d=" M 524.482, 640.421 534.482, 640.421 544.482, 640.421 554.482, 640.421 564.482, 640.421 574.482, 640.421 584.482, 640.421 594.482, 640.421 604.482, 640.421 614.482, 640.421 624.482, 640.421 634.482, 640.421 636.819, 640.421 636.819, 640.421 636.819, 630.421 636.819, 620.421 636.819, 615.457 626.819, 615.457 616.819, 615.457 606.819, 615.457 596.819, 615.457 586.819, 615.457 576.819, 615.457 566.819, 615.457 556.819, 615.457 546.819, 615.457 536.819, 615.457 526.819, 615.457 524.482, 615.457 " />
            <path fill="none" stroke-width="1.5" stroke-linecap="round" stroke-opacity="1.0" stroke="rgb(0, 0, 0)" stroke-linejoin="round" d=" M 387.181, 640.421 397.181, 640.421 407.181, 640.421 417.181, 640.421 427.181, 640.421 437.181, 640.421 447.181, 640.421 457.181, 640.421 467.181, 640.421 477.181, 640.421 487.181, 640.421 497.181, 640.421 499.518, 640.421 " />
            <path fill="none" stroke-width="1.5" stroke-linecap="round" stroke-opacity="1.0" stroke="rgb(0, 0, 0)" stroke-linejoin="round" d=" M 499.518, 292.167 499.518, 302.167 499.518, 312.167 499.518, 322.167 499.518, 332.167 499.518, 342.167 499.518, 352.167 499.518, 362.167 499.518, 372.167 499.518, 382.167 499.518, 392.167 499.518, 402.167 499.518, 412.167 499.518, 422.167 499.518, 432.167 499.518, 442.167 499.518, 452.167 499.518, 462.167 499.518, 472.167 499.518, 482.167 499.518, 492.167 499.518, 502.167 499.518, 512.167 499.518, 522.167 499.518, 532.167 499.518, 542.167 499.518, 552.167 499.518, 562.167 499.518, 572.167 499.518, 582.167 499.518, 592.167 499.518, 602.167 499.518, 612.167 499.518, 615.457 499.518, 615.457 499.518, 625.457 499.518, 635.457 499.518, 640.421 499.518, 640.421 499.518, 650.421 499.518, 653.865 509.518, 653.865 519.518, 653.865 524.482, 653.865 524.482, 643.865 524.482, 640.421 524.482, 640.421 524.482, 630.421 524.482, 620.421 524.482, 615.457 524.482, 615.457 524.482, 605.457 524.482, 595.457 524.482, 589.254 524.482, 579.254 524.482, 569.254 524.482, 559.254 524.482, 549.254 524.482, 539.254 524.482, 529.254 524.482, 519.254 524.482, 509.254 524.482, 499.254 524.482, 489.254 524.482, 479.254 524.482, 469.254 524.482, 459.254 524.482, 449.254 524.482, 439.254 524.482, 429.254 524.482, 419.254 524.482, 409.254 524.482, 399.254 524.482, 389.254 524.482, 379.254 524.482, 369.254 524.482, 359.254 524.482, 349.254 524.482, 339.254 524.482, 329.254 524.482, 319.254 524.482, 309.254 524.482, 299.254 524.482, 292.167 524.482, 282.167 524.482, 272.167 524.482, 262.167 524.482, 252.167 524.482, 242.167 524.482, 232.167 524.482, 227.556 514.482, 227.556 504.482, 227.556 499.518, 227.556 499.518, 237.556 499.518, 247.556 499.518, 257.556 499.518, 267.556 499.518, 277.556 499.518, 287.556 499.518, 292.167 " />
            <path fill="none" stroke-width="1.5" stroke-linecap="round" stroke-opacity="1.0" stroke="rgb(0, 0, 0)" stroke-linejoin="round" d=" M 524.482, 292.167 514.482, 292.167 504.482, 292.167 499.518, 292.167 " />
            <path fill="none" stroke-width="1.5" stroke-linecap="round" stroke-opacity="1.0" stroke="rgb(0, 0, 0)" stroke-linejoin="round" d=" M 524.482, 640.421 534.482, 640.421 544.482, 640.421 554.482, 640.421 564.482, 640.421 574.482, 640.421 584.482, 640.421 594.482, 640.421 604.482, 640.421 614.482, 640.421 624.482, 640.421 634.482, 640.421 636.819, 640.421 " />
        </g>
    </g>
    <g id="ViewLayer_TechnicalLines.002" inkscape:groupmode="lineset" inkscape:label="ViewLayer_TechnicalLines.002">
        <g inkscape:groupmode="layer" id="strokes" inkscape:label="strokes">
            <path fill="none" stroke-width="1.5" stroke-linecap="round" stroke-opacity="1.0" stroke="rgb(0, 0, 0)" stroke-linejoin="round" d=" M 437.109, 684.107 437.109, 694.107 437.109, 704.107 437.109, 714.107 437.109, 724.107 437.109, 734.107 437.109, 744.107 437.109, 754.107 437.109, 764.107 437.109, 774.107 437.109, 784.107 437.109, 794.107 437.109, 796.444 447.109, 796.444 457.109, 796.444 462.072, 796.444 462.072, 786.444 462.072, 776.444 462.072, 766.444 462.072, 756.444 462.072, 746.444 462.072, 736.444 462.072, 726.444 462.072, 716.444 462.072, 706.444 462.072, 696.444 462.072, 686.444 462.072, 684.107 452.072, 684.107 442.072, 684.107 437.109, 684.107 " />
            <path fill="none" stroke-width="1.5" stroke-linecap="round" stroke-opacity="1.0" stroke="rgb(0, 0, 0)" stroke-linejoin="round" d=" M 561.928, 684.107 561.928, 694.107 561.928, 704.107 561.928, 714.107 561.928, 724.107 561.928, 734.107 561.928, 744.107 561.928, 754.107 561.928, 764.107 561.928, 774.107 561.928, 784.107 561.928, 794.107 561.928, 796.444 571.928, 796.444 581.928, 796.444 586.891, 796.444 586.891, 786.444 586.891, 776.444 586.891, 766.444 586.891, 756.444 586.891, 746.444 586.891, 736.444 586.891, 726.444 586.891, 716.444 586.891, 706.444 586.891, 696.444 586.891, 686.444 586.891, 684.107 576.891, 684.107 566.891, 684.107 561.928, 684.107 " />
            <path fill="none" stroke-width="1.5" stroke-linecap="round" stroke-opacity="1.0" stroke="rgb(0, 0, 0)" stroke-linejoin="round" d=" M 499.518, 615.457 489.518, 615.457 479.518, 615.457 469.518, 615.457 459.518, 615.457 449.518, 615.457 439.518, 615.457 429.518, 615.457 419.518, 615.457 409.518, 615.457 399.518, 615.457 389.518, 615.457 387.181, 615.457 387.181, 625.457 387.181, 635.457 387.181, 640.421 387.181, 640.421 397.181, 640.421 407.181, 640.421 417.181, 640.421 427.181, 640.421 437.181, 640.421 447.181, 640.421 457.181, 640.421 467.181, 640.421 477.181, 640.421 487.181, 640.421 497.181, 640.421 499.518, 640.421 " />
            <path fill="none" stroke-width="1.5" stroke-linecap="round" stroke-opacity="1.0" stroke="rgb(0, 0, 0)" stroke-linejoin="round" d=" M 524.482, 640.421 534.482, 640.421 544.482, 640.421 554.482, 640.421 564.482, 640.421 574.482, 640.421 584.482, 640.421 594.482, 640.421 604.482, 640.421 614.482, 640.421 624.482, 640.421 634.482, 640.421 636.819, 640.421 636.819, 640.421 636.819, 630.421 636.819, 620.421 636.819, 615.457 626.819, 615.457 616.819, 615.457 606.819, 615.457 596.819, 615.457 586.819, 615.457 576.819, 615.457 566.819, 615.457 556.819, 615.457 546.819, 615.457 536.819, 615.457 526.819, 615.457 524.482, 615.457 " />
            <path fill="none" stroke-width="1.5" stroke-linecap="round" stroke-opacity="1.0" stroke="rgb(0, 0, 0)" stroke-linejoin="round" d=" M 387.181, 640.421 397.181, 640.421 407.181, 640.421 417.181, 640.421 427.181, 640.421 437.181, 640.421 447.181, 640.421 457.181, 640.421 467.181, 640.421 477.181, 640.421 487.181, 640.421 497.181, 640.421 499.518, 640.421 " />
            <path fill="none" stroke-width="1.5" stroke-linecap="round" stroke-opacity="1.0" stroke="rgb(0, 0, 0)" stroke-linejoin="round" d=" M 499.518, 292.167 499.518, 302.167 499.518, 312.167 499.518, 322.167 499.518, 332.167 499.518, 342.167 499.518, 352.167 499.518, 362.167 499.518, 372.167 499.518, 382.167 499.518, 392.167 499.518, 402.167 499.518, 412.167 499.518, 422.167 499.518, 432.167 499.518, 442.167 499.518, 452.167 499.518, 462.167 499.518, 472.167 499.518, 482.167 499.518, 492.167 499.518, 502.167 499.518, 512.167 499.518, 522.167 499.518, 532.167 499.518, 542.167 499.518, 552.167 499.518, 562.167 499.518, 572.167 499.518, 582.167 499.518, 592.167 499.518, 602.167 499.518, 612.167 499.518, 615.457 499.518, 615.457 499.518, 625.457 499.518, 635.457 499.518, 640.421 499.518, 640.421 499.518, 650.421 499.518, 653.865 509.518, 653.865 519.518, 653.865 524.482, 653.865 524.482, 643.865 524.482, 640.421 524.482, 640.421 524.482, 630.421 524.482, 620.421 524.482, 615.457 524.482, 615.457 524.482, 605.457 524.482, 595.457 524.482, 589.254 524.482, 579.254 524.482, 569.254 524.482, 559.254 524.482, 549.254 524.482, 539.254 524.482, 529.254 524.482, 519.254 524.482, 509.254 524.482, 499.254 524.482, 489.254 524.482, 479.254 524.482, 469.254 524.482, 459.254 524.482, 449.254 524.482, 439.254 524.482, 429.254 524.482, 419.254 524.482, 409.254 524.482, 399.254 524.482, 389.254 524.482, 379.254 524.482, 369.254 524.482, 359.254 524.482, 349.254 524.482, 339.254 524.482, 329.254 524.482, 319.254 524.482, 309.254 524.482, 299.254 524.482, 292.167 524.482, 282.167 524.482, 272.167 524.482, 262.167 524.482, 252.167 524.482, 242.167 524.482, 232.167 524.482, 227.556 514.482, 227.556 504.482, 227.556 499.518, 227.556 499.518, 237.556 499.518, 247.556 499.518, 257.556 499.518, 267.556 499.518, 277.556 499.518, 287.556 499.518, 292.167 " />
            <path fill="none" stroke-width="1.5" stroke-linecap="round" stroke-opacity="1.0" stroke="rgb(0, 0, 0)" stroke-linejoin="round" d=" M 524.482, 292.167 514.482, 292.167 504.482, 292.167 499.518, 292.167 " />
            <path fill="none" stroke-width="1.5" stroke-linecap="round" stroke-opacity="1.0" stroke="rgb(0, 0, 0)" stroke-linejoin="round" d=" M 524.482, 640.421 534.482, 640.421 544.482, 640.421 554.482, 640.421 564.482, 640.421 574.482, 640.421 584.482, 640.421 594.482, 640.421 604.482, 640.421 614.482, 640.421 624.482, 640.421 634.482, 640.421 636.819, 640.421 " />
        </g>
    </g>
    <g id="ViewLayer_TechnicalLines.003" inkscape:groupmode="lineset" inkscape:label="ViewLayer_TechnicalLines.003">
        <g inkscape:groupmode="layer" id="strokes" inkscape:label="strokes">
            <path fill="none" stroke-width="1.5" stroke-linecap="round" stroke-opacity="1.0" stroke="rgb(0, 0, 0)" stroke-linejoin="round" d=" M 437.109, 684.107 437.109, 694.107 437.109, 704.107 437.109, 714.107 437.109, 724.107 437.109, 734.107 437.109, 744.107 437.109, 754.107 437.109, 764.107 437.109, 774.107 437.109, 784.107 437.109, 794.107 437.109, 796.444 447.109, 796.444 457.109, 796.444 462.072, 796.444 462.072, 786.444 462.072, 776.444 462.072, 766.444 462.072, 756.444 462.072, 746.444 462.072, 736.444 462.072, 726.444 462.072, 716.444 462.072, 706.444 462.072, 696.444 462.072, 686.444 462.072, 684.107 452.072, 684.107 442.072, 684.107 437.109, 684.107 " />
            <path fill="none" stroke-width="1.5" stroke-linecap="round" stroke-opacity="1.0" stroke="rgb(0, 0, 0)" stroke-linejoin="round" d=" M 561.928, 684.107 561.928, 694.107 561.928, 704.107 561.928, 714.107 561.928, 724.107 561.928, 734.107 561.928, 744.107 561.928, 754.107 561.928, 764.107 561.928, 774.107 561.928, 784.107 561.928, 794.107 561.928, 796.444 571.928, 796.444 581.928, 796.444 586.891, 796.444 586.891, 786.444 586.891, 776.444 586.891, 766.444 586.891, 756.444 586.891, 746.444 586.891, 736.444 586.891, 726.444 586.891, 716.444 586.891, 706.444 586.891, 696.444 586.891, 686.444 586.891, 684.107 576.891, 684.107 566.891, 684.107 561.928, 684.107 " />
            <path fill="none" stroke-width="1.5" stroke-linecap="round" stroke-opacity="1.0" stroke="rgb(0, 0, 0)" stroke-linejoin="round" d=" M 499.518, 615.457 489.518, 615.457 479.518, 615.457 469.518, 615.457 459.518, 615.457 449.518, 615.457 439.518, 615.457 429.518, 615.457 419.518, 615.457 409.518, 615.457 399.518, 615.457 389.518, 615.457 387.181, 615.457 387.181, 625.457 387.181, 635.457 387.181, 640.421 387.181, 640.421 397.181, 640.421 407.181, 640.421 417.181, 640.421 427.181, 640.421 437.181, 640.421 447.181, 640.421 457.181, 640.421 467.181, 640.421 477.181, 640.421 487.181, 640.421 497.181, 640.421 499.518, 640.421 " />
            <path fill="none" stroke-width="1.5" stroke-linecap="round" stroke-opacity="1.0" stroke="rgb(0, 0, 0)" stroke-linejoin="round" d=" M 524.482, 640.421 534.482, 640.421 544.482, 640.421 554.482, 640.421 564.482, 640.421 574.482, 640.421 584.482, 640.421 594.482, 640.421 604.482, 640.421 614.482, 640.421 624.482, 640.421 634.482, 640.421 636.819, 640.421 636.819, 640.421 636.819, 630.421 636.819, 620.421 636.819, 615.457 626.819, 615.457 616.819, 615.457 606.819, 615.457 596.819, 615.457 586.819, 615.457 576.819, 615.457 566.819, 615.457 556.819, 615.457 546.819, 615.457 536.819, 615.457 526.819, 615.457 524.482, 615.457 " />
            <path fill="none" stroke-width="1.5" stroke-linecap="round" stroke-opacity="1.0" stroke="rgb(0, 0, 0)" stroke-linejoin="round" d=" M 387.181, 640.421 397.181, 640.421 407.181, 640.421 417.181, 640.421 427.181, 640.421 437.181, 640.421 447.181, 640.421 457.181, 640.421 467.181, 640.421 477.181, 640.421 487.181, 640.421 497.181, 640.421 499.518, 640.421 " />
            <path fill="none" stroke-width="1.5" stroke-linecap="round" stroke-opacity="1.0" stroke="rgb(0, 0, 0)" stroke-linejoin="round" d=" M 499.518, 292.167 499.518, 302.167 499.518, 312.167 499.518, 322.167 499.518, 332.167 499.518, 342.167 499.518, 352.167 499.518, 362.167 499.518, 372.167 499.518, 382.167 499.518, 392.167 499.518, 402.167 499.518, 412.167 499.518, 422.167 499.518, 432.167 499.518, 442.167 499.518, 452.167 499.518, 462.167 499.518, 472.167 499.518, 482.167 499.518, 492.167 499.518, 502.167 499.518, 512.167 499.518, 522.167 499.518, 532.167 499.518, 542.167 499.518, 552.167 499.518, 562.167 499.518, 572.167 499.518, 582.167 499.518, 592.167 499.518, 602.167 499.518, 612.167 499.518, 615.457 499.518, 615.457 499.518, 625.457 499.518, 635.457 499.518, 640.421 499.518, 640.421 499.518, 650.421 499.518, 653.865 509.518, 653.865 519.518, 653.865 524.482, 653.865 524.482, 643.865 524.482, 640.421 524.482, 640.421 524.482, 630.421 524.482, 620.421 524.482, 615.457 524.482, 615.457 524.482, 605.457 524.482, 595.457 524.482, 589.254 524.482, 579.254 524.482, 569.254 524.482, 559.254 524.482, 549.254 524.482, 539.254 524.482, 529.254 524.482, 519.254 524.482, 509.254 524.482, 499.254 524.482, 489.254 524.482, 479.254 524.482, 469.254 524.482, 459.254 524.482, 449.254 524.482, 439.254 524.482, 429.254 524.482, 419.254 524.482, 409.254 524.482, 399.254 524.482, 389.254 524.482, 379.254 524.482, 369.254 524.482, 359.254 524.482, 349.254 524.482, 339.254 524.482, 329.254 524.482, 319.254 524.482, 309.254 524.482, 299.254 524.482, 292.167 524.482, 282.167 524.482, 272.167 524.482, 262.167 524.482, 252.167 524.482, 242.167 524.482, 232.167 524.482, 227.556 514.482, 227.556 504.482, 227.556 499.518, 227.556 499.518, 237.556 499.518, 247.556 499.518, 257.556 499.518, 267.556 499.518, 277.556 499.518, 287.556 499.518, 292.167 " />
            <path fill="none" stroke-width="1.5" stroke-linecap="round" stroke-opacity="1.0" stroke="rgb(0, 0, 0)" stroke-linejoin="round" d=" M 524.482, 292.167 514.482, 292.167 504.482, 292.167 499.518, 292.167 " />
            <path fill="none" stroke-width="1.5" stroke-linecap="round" stroke-opacity="1.0" stroke="rgb(0, 0, 0)" stroke-linejoin="round" d=" M 524.482, 640.421 534.482, 640.421 544.482, 640.421 554.482, 640.421 564.482, 640.421 574.482, 640.421 584.482, 640.421 594.482, 640.421 604.482, 640.421 614.482, 640.421 624.482, 640.421 634.482, 640.421 636.819, 640.421 " />
        </g>
    </g>
    <g id="ViewLayer_TechnicalLines.004" xmlns:inkscape="http://www.inkscape.org/namespaces/inkscape" inkscape:groupmode="lineset" inkscape:label="ViewLayer_TechnicalLines.004">
        <g xmlns:inkscape="http://www.inkscape.org/namespaces/inkscape" inkscape:groupmode="layer" id="strokes" inkscape:label="strokes">
            <path fill="none" stroke-width="1.5" stroke-linecap="round" stroke-opacity="1.0" stroke="rgb(0, 0, 0)" stroke-linejoin="round" d=" M 437.109, 684.107 437.109, 694.107 437.109, 704.107 437.109, 714.107 437.109, 724.107 437.109, 734.107 437.109, 744.107 437.109, 754.107 437.109, 764.107 437.109, 774.107 437.109, 784.107 437.109, 794.107 437.109, 796.444 447.109, 796.444 457.109, 796.444 462.072, 796.444 462.072, 786.444 462.072, 776.444 462.072, 766.444 462.072, 756.444 462.072, 746.444 462.072, 736.444 462.072, 726.444 462.072, 716.444 462.072, 706.444 462.072, 696.444 462.072, 686.444 462.072, 684.107 452.072, 684.107 442.072, 684.107 437.109, 684.107 " />
            <path fill="none" stroke-width="1.5" stroke-linecap="round" stroke-opacity="1.0" stroke="rgb(0, 0, 0)" stroke-linejoin="round" d=" M 561.928, 684.107 561.928, 694.107 561.928, 704.107 561.928, 714.107 561.928, 724.107 561.928, 734.107 561.928, 744.107 561.928, 754.107 561.928, 764.107 561.928, 774.107 561.928, 784.107 561.928, 794.107 561.928, 796.444 571.928, 796.444 581.928, 796.444 586.891, 796.444 586.891, 786.444 586.891, 776.444 586.891, 766.444 586.891, 756.444 586.891, 746.444 586.891, 736.444 586.891, 726.444 586.891, 716.444 586.891, 706.444 586.891, 696.444 586.891, 686.444 586.891, 684.107 576.891, 684.107 566.891, 684.107 561.928, 684.107 " />
            <path fill="none" stroke-width="1.5" stroke-linecap="round" stroke-opacity="1.0" stroke="rgb(0, 0, 0)" stroke-linejoin="round" d=" M 499.518, 615.457 489.518, 615.457 479.518, 615.457 469.518, 615.457 459.518, 615.457 449.518, 615.457 439.518, 615.457 429.518, 615.457 419.518, 615.457 409.518, 615.457 399.518, 615.457 389.518, 615.457 387.181, 615.457 387.181, 625.457 387.181, 635.457 387.181, 640.421 387.181, 640.421 397.181, 640.421 407.181, 640.421 417.181, 640.421 427.181, 640.421 437.181, 640.421 447.181, 640.421 457.181, 640.421 467.181, 640.421 477.181, 640.421 487.181, 640.421 497.181, 640.421 499.518, 640.421 " />
            <path fill="none" stroke-width="1.5" stroke-linecap="round" stroke-opacity="1.0" stroke="rgb(0, 0, 0)" stroke-linejoin="round" d=" M 524.482, 640.421 534.482, 640.421 544.482, 640.421 554.482, 640.421 564.482, 640.421 574.482, 640.421 584.482, 640.421 594.482, 640.421 604.482, 640.421 614.482, 640.421 624.482, 640.421 634.482, 640.421 636.819, 640.421 636.819, 640.421 636.819, 630.421 636.819, 620.421 636.819, 615.457 626.819, 615.457 616.819, 615.457 606.819, 615.457 596.819, 615.457 586.819, 615.457 576.819, 615.457 566.819, 615.457 556.819, 615.457 546.819, 615.457 536.819, 615.457 526.819, 615.457 524.482, 615.457 " />
            <path fill="none" stroke-width="1.5" stroke-linecap="round" stroke-opacity="1.0" stroke="rgb(0, 0, 0)" stroke-linejoin="round" d=" M 387.181, 640.421 397.181, 640.421 407.181, 640.421 417.181, 640.421 427.181, 640.421 437.181, 640.421 447.181, 640.421 457.181, 640.421 467.181, 640.421 477.181, 640.421 487.181, 640.421 497.181, 640.421 499.518, 640.421 " />
            <path fill="none" stroke-width="1.5" stroke-linecap="round" stroke-opacity="1.0" stroke="rgb(0, 0, 0)" stroke-linejoin="round" d=" M 499.518, 292.167 499.518, 302.167 499.518, 312.167 499.518, 322.167 499.518, 332.167 499.518, 342.167 499.518, 352.167 499.518, 362.167 499.518, 372.167 499.518, 382.167 499.518, 392.167 499.518, 402.167 499.518, 412.167 499.518, 422.167 499.518, 432.167 499.518, 442.167 499.518, 452.167 499.518, 462.167 499.518, 472.167 499.518, 482.167 499.518, 492.167 499.518, 502.167 499.518, 512.167 499.518, 522.167 499.518, 532.167 499.518, 542.167 499.518, 552.167 499.518, 562.167 499.518, 572.167 499.518, 582.167 499.518, 592.167 499.518, 602.167 499.518, 612.167 499.518, 615.457 499.518, 615.457 499.518, 625.457 499.518, 635.457 499.518, 640.421 499.518, 640.421 499.518, 650.421 499.518, 653.865 509.518, 653.865 519.518, 653.865 524.482, 653.865 524.482, 643.865 524.482, 640.421 524.482, 640.421 524.482, 630.421 524.482, 620.421 524.482, 615.457 524.482, 615.457 524.482, 605.457 524.482, 595.457 524.482, 589.254 524.482, 579.254 524.482, 569.254 524.482, 559.254 524.482, 549.254 524.482, 539.254 524.482, 529.254 524.482, 519.254 524.482, 509.254 524.482, 499.254 524.482, 489.254 524.482, 479.254 524.482, 469.254 524.482, 459.254 524.482, 449.254 524.482, 439.254 524.482, 429.254 524.482, 419.254 524.482, 409.254 524.482, 399.254 524.482, 389.254 524.482, 379.254 524.482, 369.254 524.482, 359.254 524.482, 349.254 524.482, 339.254 524.482, 329.254 524.482, 319.254 524.482, 309.254 524.482, 299.254 524.482, 292.167 524.482, 282.167 524.482, 272.167 524.482, 262.167 524.482, 252.167 524.482, 242.167 524.482, 232.167 524.482, 227.556 514.482, 227.556 504.482, 227.556 499.518, 227.556 499.518, 237.556 499.518, 247.556 499.518, 257.556 499.518, 267.556 499.518, 277.556 499.518, 287.556 499.518, 292.167 " />
            <path fill="none" stroke-width="1.5" stroke-linecap="round" stroke-opacity="1.0" stroke="rgb(0, 0, 0)" stroke-linejoin="round" d=" M 524.482, 292.167 514.482, 292.167 504.482, 292.167 499.518, 292.167 " />
            <path fill="none" stroke-width="1.5" stroke-linecap="round" stroke-opacity="1.0" stroke="rgb(0, 0, 0)" stroke-linejoin="round" d=" M 524.482, 640.421 534.482, 640.421 544.482, 640.421 554.482, 640.421 564.482, 640.421 574.482, 640.421 584.482, 640.421 594.482, 640.421 604.482, 640.421 614.482, 640.421 624.482, 640.421 634.482, 640.421 636.819, 640.421 " />
        </g>
    </g>
</svg>
