<?xml version='1.0' encoding='ascii'?>
<svg xmlns="http://www.w3.org/2000/svg" xmlns:inkscape="http://www.inkscape.org/namespaces/inkscape" version="1.1" width="1024" height="1024">
    <g id="ViewLayer_LineSet" inkscape:groupmode="lineset" inkscape:label="ViewLayer_LineSet">
        <g inkscape:groupmode="layer" id="strokes" inkscape:label="strokes">
            <path fill="none" stroke-width="3.0" stroke-linecap="butt" stroke-opacity="1.0" stroke="rgb(0, 0, 0)" stroke-linejoin="round" d=" M 417.185, 796.445 417.185, 786.445 417.185, 776.445 417.185, 766.445 417.185, 756.445 417.185, 746.445 417.185, 736.445 417.185, 726.445 417.185, 716.445 417.185, 706.445 417.185, 696.445 417.185, 686.445 417.185, 676.445 417.185, 666.445 417.185, 656.445 417.185, 646.445 417.185, 636.445 417.185, 626.445 417.185, 616.445 417.185, 606.445 417.185, 596.445 417.185, 594.173 417.185, 594.173 " />
            <path fill="none" stroke-width="3.0" stroke-linecap="butt" stroke-opacity="1.0" stroke="rgb(0, 0, 0)" stroke-linejoin="round" d=" M 385.580, 594.173 385.580, 594.173 385.580, 604.173 385.580, 614.173 385.580, 624.173 385.580, 634.173 385.580, 644.173 385.580, 654.173 385.580, 664.173 385.580, 674.173 385.580, 684.173 385.580, 694.173 385.580, 704.173 385.580, 714.173 385.580, 724.173 385.580, 734.173 385.580, 744.173 385.580, 754.173 385.580, 764.173 385.580, 774.173 385.580, 784.173 385.580, 794.173 385.580, 796.445 385.580, 796.445 385.884, 796.445 386.783, 796.445 388.243, 796.445 390.209, 796.445 392.603, 796.445 395.335, 796.445 398.300, 796.445 401.383, 796.445 404.466, 796.445 407.430, 796.445 410.162, 796.445 412.557, 796.445 414.522, 796.445 415.982, 796.445 416.882, 796.445 417.185, 796.445 417.185, 786.445 417.185, 776.445 417.185, 766.445 417.185, 756.445 417.185, 746.445 417.185, 736.445 417.185, 726.445 417.185, 716.445 417.185, 706.445 417.185, 696.445 417.185, 686.445 417.185, 676.445 417.185, 666.445 417.185, 656.445 417.185, 646.445 417.185, 636.445 417.185, 626.445 417.185, 616.445 417.185, 606.445 417.185, 596.445 417.185, 594.173 417.185, 594.173 " />
            <path fill="none" stroke-width="3.0" stroke-linecap="butt" stroke-opacity="1.0" stroke="rgb(0, 0, 0)" stroke-linejoin="round" d=" M 638.420, 796.445 638.420, 786.445 638.420, 776.445 638.420, 766.445 638.420, 756.445 638.420, 746.445 638.420, 736.445 638.420, 726.445 638.420, 716.445 638.420, 706.445 638.420, 696.445 638.420, 686.445 638.420, 676.445 638.420, 666.445 638.420, 656.445 638.420, 646.445 638.420, 636.445 638.420, 626.445 638.420, 616.445 638.420, 606.445 638.420, 596.445 638.420, 594.173 638.420, 594.173 " />
            <path fill="none" stroke-width="3.0" stroke-linecap="butt" stroke-opacity="1.0" stroke="rgb(0, 0, 0)" stroke-linejoin="round" d=" M 606.815, 594.173 606.815, 594.173 606.815, 604.173 606.815, 614.173 606.815, 624.173 606.815, 634.173 606.815, 644.173 606.815, 654.173 606.815, 664.173 606.815, 674.173 606.815, 684.173 606.815, 694.173 606.815, 704.173 606.815, 714.173 606.815, 724.173 606.815, 734.173 606.815, 744.173 606.815, 754.173 606.815, 764.173 606.815, 774.173 606.815, 784.173 606.815, 794.173 606.815, 796.445 607.118, 796.445 608.018, 796.445 609.478, 796.445 611.443, 796.445 613.838, 796.445 616.570, 796.445 619.534, 796.445 622.617, 796.445 625.700, 796.445 628.665, 796.445 631.397, 796.445 633.791, 796.445 635.757, 796.445 637.217, 796.445 638.116, 796.445 638.420, 796.445 638.420, 786.445 638.420, 776.445 638.420, 766.445 638.420, 756.445 638.420, 746.445 638.420, 736.445 638.420, 726.445 638.420, 716.445 638.420, 706.445 638.420, 696.445 638.420, 686.445 638.420, 676.445 638.420, 666.445 638.420, 656.445 638.420, 646.445 638.420, 636.445 638.420, 626.445 638.420, 616.445 638.420, 606.445 638.420, 596.445 638.420, 594.173 638.420, 594.173 " />
            <path fill="none" stroke-width="3.0" stroke-linecap="butt" stroke-opacity="1.0" stroke="rgb(0, 0, 0)" stroke-linejoin="round" d=" M 638.420, 594.173 648.420, 594.173 658.420, 594.173 668.420, 594.173 678.420, 594.173 688.420, 594.173 698.420, 594.173 701.630, 594.173 701.630, 594.173 701.630, 584.173 701.630, 574.173 701.630, 564.173 701.630, 556.247 701.630, 556.247 691.630, 556.247 681.630, 556.247 671.630, 556.247 661.630, 556.247 651.630, 556.247 641.630, 556.247 631.630, 556.247 621.630, 556.247 611.630, 556.247 601.630, 556.247 591.630, 556.247 581.630, 556.247 571.630, 556.247 561.630, 556.247 551.630, 556.247 541.630, 556.247 531.630, 556.247 521.630, 556.247 511.630, 556.247 501.630, 556.247 491.630, 556.247 481.630, 556.247 471.630, 556.247 461.630, 556.247 451.630, 556.247 441.630, 556.247 431.630, 556.247 421.630, 556.247 411.630, 556.247 401.630, 556.247 391.630, 556.247 381.630, 556.247 372.938, 556.247 372.938, 556.247 362.938, 556.247 352.938, 556.247 342.938, 556.247 335.012, 556.247 335.012, 556.247 325.012, 556.247 322.370, 556.247 322.370, 556.247 322.370, 566.247 322.370, 576.247 322.370, 586.247 322.370, 594.173 322.370, 594.173 332.370, 594.173 335.012, 594.173 " />
            <path fill="none" stroke-width="3.0" stroke-linecap="butt" stroke-opacity="1.0" stroke="rgb(0, 0, 0)" stroke-linejoin="round" d=" M 322.370, 594.173 332.370, 594.173 335.012, 594.173 345.012, 594.173 355.012, 594.173 365.012, 594.173 372.938, 594.173 382.938, 594.173 385.580, 594.173 385.580, 594.173 395.580, 594.173 405.580, 594.173 415.580, 594.173 417.185, 594.173 417.185, 594.173 427.185, 594.173 437.185, 594.173 447.185, 594.173 457.185, 594.173 467.185, 594.173 477.185, 594.173 487.185, 594.173 497.185, 594.173 507.185, 594.173 517.185, 594.173 527.185, 594.173 537.185, 594.173 547.185, 594.173 557.185, 594.173 567.185, 594.173 577.185, 594.173 587.185, 594.173 597.185, 594.173 606.815, 594.173 606.815, 594.173 616.815, 594.173 626.815, 594.173 636.815, 594.173 638.420, 594.173 638.420, 594.173 648.420, 594.173 658.420, 594.173 668.420, 594.173 678.420, 594.173 688.420, 594.173 698.420, 594.173 701.630, 594.173 " />
            <path fill="none" stroke-width="3.0" stroke-linecap="butt" stroke-opacity="1.0" stroke="rgb(0, 0, 0)" stroke-linejoin="round" d=" M 335.012, 518.321 335.012, 528.321 335.012, 538.321 335.012, 548.321 335.012, 556.247 335.012, 556.247 335.012, 566.247 335.012, 576.247 335.012, 586.247 335.012, 594.173 335.012, 594.173 335.012, 604.173 335.012, 606.815 335.012, 606.815 345.012, 606.815 355.012, 606.815 365.012, 606.815 372.938, 606.815 372.938, 606.815 372.938, 596.815 372.938, 594.173 372.938, 594.173 " />
            <path fill="none" stroke-width="3.0" stroke-linecap="butt" stroke-opacity="1.0" stroke="rgb(0, 0, 0)" stroke-linejoin="round" d=" M 372.938, 442.469 372.938, 432.469 372.938, 422.469 372.938, 412.469 372.938, 402.469 372.938, 392.469 372.938, 382.469 372.938, 372.469 372.938, 362.469 372.938, 352.469 372.938, 342.469 372.938, 332.469 372.938, 322.469 372.938, 312.469 372.938, 302.469 372.938, 292.469 372.938, 282.469 372.938, 272.469 372.938, 262.469 372.938, 252.469 372.938, 242.469 372.938, 232.469 372.938, 227.556 372.938, 227.556 362.938, 227.556 352.938, 227.556 342.938, 227.556 335.012, 227.556 335.012, 227.556 335.012, 237.556 335.012, 247.556 335.012, 257.556 335.012, 267.556 335.012, 277.556 335.012, 287.556 335.012, 297.556 335.012, 307.556 335.012, 317.556 335.012, 327.556 335.012, 337.556 335.012, 347.556 335.012, 357.556 335.012, 367.556 335.012, 377.556 335.012, 387.556 335.012, 397.556 335.012, 407.556 335.012, 417.556 335.012, 427.556 335.012, 437.556 335.012, 442.469 " />
            <path fill="none" stroke-width="3.0" stroke-linecap="butt" stroke-opacity="1.0" stroke="rgb(0, 0, 0)" stroke-linejoin="round" d=" M 372.938, 227.556 372.938, 237.556 372.938, 247.556 372.938, 257.556 372.938, 267.556 372.938, 277.556 372.938, 287.556 372.938, 297.556 372.938, 307.556 372.938, 317.556 372.938, 327.556 372.938, 337.556 372.938, 347.556 372.938, 357.556 372.938, 367.556 372.938, 377.556 372.938, 387.556 372.938, 397.556 372.938, 407.556 372.938, 417.556 372.938, 427.556 372.938, 437.556 372.938, 442.469 " />
            <path fill="none" stroke-width="3.0" stroke-linecap="butt" stroke-opacity="1.0" stroke="rgb(0, 0, 0)" stroke-linejoin="round" d=" M 701.630, 518.321 701.630, 508.321 701.630, 498.321 701.630, 488.321 701.630, 478.321 701.630, 468.321 701.630, 458.321 701.630, 448.321 701.630, 442.469 " />
            <path fill="none" stroke-width="3.0" stroke-linecap="butt" stroke-opacity="1.0" stroke="rgb(0, 0, 0)" stroke-linejoin="round" d=" M 322.370, 518.321 332.370, 518.321 335.012, 518.321 335.012, 518.321 345.012, 518.321 355.012, 518.321 365.012, 518.321 372.938, 518.321 372.938, 518.321 382.938, 518.321 392.938, 518.321 402.938, 518.321 412.938, 518.321 422.938, 518.321 432.938, 518.321 442.938, 518.321 452.938, 518.321 462.938, 518.321 472.938, 518.321 482.938, 518.321 492.938, 518.321 502.938, 518.321 512.938, 518.321 522.938, 518.321 532.938, 518.321 542.938, 518.321 552.938, 518.321 562.938, 518.321 572.938, 518.321 582.938, 518.321 592.938, 518.321 602.938, 518.321 612.938, 518.321 622.938, 518.321 632.938, 518.321 642.938, 518.321 652.938, 518.321 662.938, 518.321 672.938, 518.321 682.938, 518.321 692.938, 518.321 701.630, 518.321 701.630, 508.321 701.630, 498.321 701.630, 488.321 701.630, 478.321 701.630, 468.321 701.630, 458.321 701.630, 448.321 701.630, 442.469 " />
            <path fill="none" stroke-width="3.0" stroke-linecap="butt" stroke-opacity="1.0" stroke="rgb(0, 0, 0)" stroke-linejoin="round" d=" M 701.630, 442.469 691.630, 442.469 681.630, 442.469 671.630, 442.469 661.630, 442.469 651.630, 442.469 641.630, 442.469 631.630, 442.469 621.630, 442.469 611.630, 442.469 601.630, 442.469 591.630, 442.469 581.630, 442.469 571.630, 442.469 561.630, 442.469 551.630, 442.469 541.630, 442.469 531.630, 442.469 521.630, 442.469 511.630, 442.469 501.630, 442.469 491.630, 442.469 481.630, 442.469 471.630, 442.469 461.630, 442.469 451.630, 442.469 441.630, 442.469 431.630, 442.469 421.630, 442.469 411.630, 442.469 401.630, 442.469 391.630, 442.469 381.630, 442.469 372.938, 442.469 372.938, 442.469 362.938, 442.469 352.938, 442.469 342.938, 442.469 335.012, 442.469 335.012, 442.469 325.012, 442.469 322.370, 442.469 322.370, 452.469 322.370, 462.469 322.370, 472.469 322.370, 482.469 322.370, 492.469 322.370, 502.469 322.370, 512.469 322.370, 518.321 322.370, 518.321 " />
            <path fill="none" stroke-width="3.0" stroke-linecap="butt" stroke-opacity="1.0" stroke="rgb(0, 0, 0)" stroke-linejoin="round" d=" M 372.938, 552.296 372.938, 552.296 382.938, 552.296 392.938, 552.296 402.938, 552.296 412.938, 552.296 422.938, 552.296 432.938, 552.296 442.938, 552.296 452.938, 552.296 462.938, 552.296 472.938, 552.296 482.938, 552.296 492.938, 552.296 502.938, 552.296 512.938, 552.296 522.938, 552.296 532.938, 552.296 542.938, 552.296 552.938, 552.296 562.938, 552.296 572.938, 552.296 582.938, 552.296 592.938, 552.296 602.938, 552.296 612.938, 552.296 622.938, 552.296 632.938, 552.296 642.938, 552.296 652.938, 552.296 662.938, 552.296 668.445, 552.296 668.445, 542.296 668.445, 534.914 668.444, 534.914 658.444, 534.914 648.444, 534.914 638.444, 534.914 628.444, 534.914 618.444, 534.914 608.444, 534.914 598.444, 534.914 588.444, 534.914 578.444, 534.914 568.444, 534.914 558.444, 534.914 548.444, 534.914 538.444, 534.914 528.444, 534.914 518.444, 534.914 508.444, 534.914 498.444, 534.914 488.444, 534.914 478.444, 534.914 468.444, 534.914 458.444, 534.914 448.444, 534.914 438.444, 534.914 428.444, 534.914 418.444, 534.914 408.444, 534.914 398.444, 534.914 388.444, 534.914 378.444, 534.914 372.938, 534.914 372.938, 534.914 " />
            <path fill="none" stroke-width="3.0" stroke-linecap="butt" stroke-opacity="1.0" stroke="rgb(0, 0, 0)" stroke-linejoin="round" d=" M 668.444, 534.914 668.444, 544.914 668.444, 552.296 " />
            <path fill="none" stroke-width="3.0" stroke-linecap="butt" stroke-opacity="1.0" stroke="rgb(0, 0, 0)" stroke-linejoin="round" d=" M 372.938, 552.296 382.938, 552.296 392.938, 552.296 402.938, 552.296 412.938, 552.296 422.938, 552.296 432.938, 552.296 442.938, 552.296 452.938, 552.296 462.938, 552.296 472.938, 552.296 482.938, 552.296 492.938, 552.296 502.938, 552.296 512.938, 552.296 522.938, 552.296 532.938, 552.296 542.938, 552.296 552.938, 552.296 562.938, 552.296 572.938, 552.296 582.938, 552.296 592.938, 552.296 602.938, 552.296 612.938, 552.296 622.938, 552.296 632.938, 552.296 642.938, 552.296 652.938, 552.296 662.938, 552.296 668.444, 552.296 668.445, 552.296 " />
            <path fill="none" stroke-width="3.0" stroke-linecap="butt" stroke-opacity="1.0" stroke="rgb(0, 0, 0)" stroke-linejoin="round" d=" M 322.370, 518.321 322.370, 518.321 " />
            <path fill="none" stroke-width="3.0" stroke-linecap="butt" stroke-opacity="1.0" stroke="rgb(0, 0, 0)" stroke-linejoin="round" d=" M 335.012, 518.321 335.012, 518.321 " />
            <path fill="none" stroke-width="3.0" stroke-linecap="butt" stroke-opacity="1.0" stroke="rgb(0, 0, 0)" stroke-linejoin="round" d=" M 372.938, 518.321 372.938, 518.321 372.938, 528.321 372.938, 534.914 372.938, 544.914 372.938, 552.296 372.938, 556.247 372.938, 566.247 372.938, 576.247 372.938, 586.247 372.938, 594.173 372.938, 604.173 372.938, 606.815 " />
            <path fill="none" stroke-width="3.0" stroke-linecap="butt" stroke-opacity="1.0" stroke="rgb(0, 0, 0)" stroke-linejoin="round" d=" M 372.938, 534.914 372.938, 524.914 372.938, 518.321 " />
            <path fill="none" stroke-width="3.0" stroke-linecap="butt" stroke-opacity="1.0" stroke="rgb(0, 0, 0)" stroke-linejoin="round" d=" M 372.938, 556.247 372.938, 552.296 " />
            <path fill="none" stroke-width="3.0" stroke-linecap="butt" stroke-opacity="1.0" stroke="rgb(0, 0, 0)" stroke-linejoin="round" d=" M 701.630, 442.469 701.630, 442.469 " />
            <path fill="none" stroke-width="3.0" stroke-linecap="butt" stroke-opacity="1.0" stroke="rgb(0, 0, 0)" stroke-linejoin="round" d=" M 417.185, 594.173 427.185, 594.173 437.185, 594.173 447.185, 594.173 457.185, 594.173 467.185, 594.173 477.185, 594.173 487.185, 594.173 497.185, 594.173 507.185, 594.173 517.185, 594.173 527.185, 594.173 537.185, 594.173 547.185, 594.173 557.185, 594.173 567.185, 594.173 577.185, 594.173 587.185, 594.173 597.185, 594.173 606.815, 594.173 " />
            <path fill="none" stroke-width="3.0" stroke-linecap="butt" stroke-opacity="1.0" stroke="rgb(0, 0, 0)" stroke-linejoin="round" d=" M 372.938, 594.173 372.938, 594.173 382.938, 594.173 385.580, 594.173 " />
            <path fill="none" stroke-width="3.0" stroke-linecap="butt" stroke-opacity="1.0" stroke="rgb(0, 0, 0)" stroke-linejoin="round" d=" M 372.938, 518.321 372.938, 518.321 382.938, 518.321 392.938, 518.321 402.938, 518.321 412.938, 518.321 422.938, 518.321 432.938, 518.321 442.938, 518.321 452.938, 518.321 462.938, 518.321 472.938, 518.321 482.938, 518.321 492.938, 518.321 502.938, 518.321 512.938, 518.321 522.938, 518.321 532.938, 518.321 542.938, 518.321 552.938, 518.321 562.938, 518.321 572.938, 518.321 582.938, 518.321 592.938, 518.321 602.938, 518.321 612.938, 518.321 622.938, 518.321 632.938, 518.321 642.938, 518.321 652.938, 518.321 662.938, 518.321 672.938, 518.321 682.938, 518.321 692.938, 518.321 701.630, 518.321 " />
            <path fill="none" stroke-width="3.0" stroke-linecap="butt" stroke-opacity="1.0" stroke="rgb(0, 0, 0)" stroke-linejoin="round" d=" M 322.370, 518.321 332.370, 518.321 335.012, 518.321 " />
            <path fill="none" stroke-width="3.0" stroke-linecap="butt" stroke-opacity="1.0" stroke="rgb(0, 0, 0)" stroke-linejoin="round" d=" M 701.630, 442.469 701.630, 442.469 " />
        </g>
    </g>
    <g id="ViewLayer_TechnicalLines" inkscape:groupmode="lineset" inkscape:label="ViewLayer_TechnicalLines">
        <g inkscape:groupmode="layer" id="strokes" inkscape:label="strokes">
            <path fill="none" stroke-width="3.0" stroke-linecap="butt" stroke-opacity="1.0" stroke="rgb(0, 0, 0)" stroke-linejoin="round" d=" M 417.185, 796.445 417.185, 786.445 417.185, 776.445 417.185, 766.445 417.185, 756.445 417.185, 746.445 417.185, 736.445 417.185, 726.445 417.185, 716.445 417.185, 706.445 417.185, 696.445 417.185, 686.445 417.185, 676.445 417.185, 666.445 417.185, 656.445 417.185, 646.445 417.185, 636.445 417.185, 626.445 417.185, 616.445 417.185, 606.445 417.185, 596.445 417.185, 594.173 417.185, 594.173 " />
            <path fill="none" stroke-width="3.0" stroke-linecap="butt" stroke-opacity="1.0" stroke="rgb(0, 0, 0)" stroke-linejoin="round" d=" M 385.580, 594.173 385.580, 594.173 385.580, 604.173 385.580, 614.173 385.580, 624.173 385.580, 634.173 385.580, 644.173 385.580, 654.173 385.580, 664.173 385.580, 674.173 385.580, 684.173 385.580, 694.173 385.580, 704.173 385.580, 714.173 385.580, 724.173 385.580, 734.173 385.580, 744.173 385.580, 754.173 385.580, 764.173 385.580, 774.173 385.580, 784.173 385.580, 794.173 385.580, 796.445 385.580, 796.445 385.884, 796.445 386.783, 796.445 388.243, 796.445 390.209, 796.445 392.603, 796.445 395.335, 796.445 398.300, 796.445 401.383, 796.445 404.466, 796.445 407.430, 796.445 410.162, 796.445 412.557, 796.445 414.522, 796.445 415.982, 796.445 416.882, 796.445 417.185, 796.445 417.185, 786.445 417.185, 776.445 417.185, 766.445 417.185, 756.445 417.185, 746.445 417.185, 736.445 417.185, 726.445 417.185, 716.445 417.185, 706.445 417.185, 696.445 417.185, 686.445 417.185, 676.445 417.185, 666.445 417.185, 656.445 417.185, 646.445 417.185, 636.445 417.185, 626.445 417.185, 616.445 417.185, 606.445 417.185, 596.445 417.185, 594.173 417.185, 594.173 " />
            <path fill="none" stroke-width="3.0" stroke-linecap="butt" stroke-opacity="1.0" stroke="rgb(0, 0, 0)" stroke-linejoin="round" d=" M 638.420, 796.445 638.420, 786.445 638.420, 776.445 638.420, 766.445 638.420, 756.445 638.420, 746.445 638.420, 736.445 638.420, 726.445 638.420, 716.445 638.420, 706.445 638.420, 696.445 638.420, 686.445 638.420, 676.445 638.420, 666.445 638.420, 656.445 638.420, 646.445 638.420, 636.445 638.420, 626.445 638.420, 616.445 638.420, 606.445 638.420, 596.445 638.420, 594.173 638.420, 594.173 " />
            <path fill="none" stroke-width="3.0" stroke-linecap="butt" stroke-opacity="1.0" stroke="rgb(0, 0, 0)" stroke-linejoin="round" d=" M 606.815, 594.173 606.815, 594.173 606.815, 604.173 606.815, 614.173 606.815, 624.173 606.815, 634.173 606.815, 644.173 606.815, 654.173 606.815, 664.173 606.815, 674.173 606.815, 684.173 606.815, 694.173 606.815, 704.173 606.815, 714.173 606.815, 724.173 606.815, 734.173 606.815, 744.173 606.815, 754.173 606.815, 764.173 606.815, 774.173 606.815, 784.173 606.815, 794.173 606.815, 796.445 607.118, 796.445 608.018, 796.445 609.478, 796.445 611.443, 796.445 613.838, 796.445 616.570, 796.445 619.534, 796.445 622.617, 796.445 625.700, 796.445 628.665, 796.445 631.397, 796.445 633.791, 796.445 635.757, 796.445 637.217, 796.445 638.116, 796.445 638.420, 796.445 638.420, 786.445 638.420, 776.445 638.420, 766.445 638.420, 756.445 638.420, 746.445 638.420, 736.445 638.420, 726.445 638.420, 716.445 638.420, 706.445 638.420, 696.445 638.420, 686.445 638.420, 676.445 638.420, 666.445 638.420, 656.445 638.420, 646.445 638.420, 636.445 638.420, 626.445 638.420, 616.445 638.420, 606.445 638.420, 596.445 638.420, 594.173 638.420, 594.173 " />
            <path fill="none" stroke-width="3.0" stroke-linecap="butt" stroke-opacity="1.0" stroke="rgb(0, 0, 0)" stroke-linejoin="round" d=" M 638.420, 594.173 648.420, 594.173 658.420, 594.173 668.420, 594.173 678.420, 594.173 688.420, 594.173 698.420, 594.173 701.630, 594.173 701.630, 594.173 701.630, 584.173 701.630, 574.173 701.630, 564.173 701.630, 556.247 701.630, 556.247 691.630, 556.247 681.630, 556.247 671.630, 556.247 661.630, 556.247 651.630, 556.247 641.630, 556.247 631.630, 556.247 621.630, 556.247 611.630, 556.247 601.630, 556.247 591.630, 556.247 581.630, 556.247 571.630, 556.247 561.630, 556.247 551.630, 556.247 541.630, 556.247 531.630, 556.247 521.630, 556.247 511.630, 556.247 501.630, 556.247 491.630, 556.247 481.630, 556.247 471.630, 556.247 461.630, 556.247 451.630, 556.247 441.630, 556.247 431.630, 556.247 421.630, 556.247 411.630, 556.247 401.630, 556.247 391.630, 556.247 381.630, 556.247 372.938, 556.247 372.938, 556.247 362.938, 556.247 352.938, 556.247 342.938, 556.247 335.012, 556.247 335.012, 556.247 325.012, 556.247 322.370, 556.247 322.370, 556.247 322.370, 566.247 322.370, 576.247 322.370, 586.247 322.370, 594.173 322.370, 594.173 332.370, 594.173 335.012, 594.173 " />
            <path fill="none" stroke-width="3.0" stroke-linecap="butt" stroke-opacity="1.0" stroke="rgb(0, 0, 0)" stroke-linejoin="round" d=" M 322.370, 594.173 332.370, 594.173 335.012, 594.173 345.012, 594.173 355.012, 594.173 365.012, 594.173 372.938, 594.173 382.938, 594.173 385.580, 594.173 385.580, 594.173 395.580, 594.173 405.580, 594.173 415.580, 594.173 417.185, 594.173 417.185, 594.173 427.185, 594.173 437.185, 594.173 447.185, 594.173 457.185, 594.173 467.185, 594.173 477.185, 594.173 487.185, 594.173 497.185, 594.173 507.185, 594.173 517.185, 594.173 527.185, 594.173 537.185, 594.173 547.185, 594.173 557.185, 594.173 567.185, 594.173 577.185, 594.173 587.185, 594.173 597.185, 594.173 606.815, 594.173 606.815, 594.173 616.815, 594.173 626.815, 594.173 636.815, 594.173 638.420, 594.173 638.420, 594.173 648.420, 594.173 658.420, 594.173 668.420, 594.173 678.420, 594.173 688.420, 594.173 698.420, 594.173 701.630, 594.173 " />
            <path fill="none" stroke-width="3.0" stroke-linecap="butt" stroke-opacity="1.0" stroke="rgb(0, 0, 0)" stroke-linejoin="round" d=" M 335.012, 518.321 335.012, 528.321 335.012, 538.321 335.012, 548.321 335.012, 556.247 335.012, 556.247 335.012, 566.247 335.012, 576.247 335.012, 586.247 335.012, 594.173 335.012, 594.173 335.012, 604.173 335.012, 606.815 335.012, 606.815 345.012, 606.815 355.012, 606.815 365.012, 606.815 372.938, 606.815 372.938, 606.815 372.938, 596.815 372.938, 594.173 372.938, 594.173 " />
            <path fill="none" stroke-width="3.0" stroke-linecap="butt" stroke-opacity="1.0" stroke="rgb(0, 0, 0)" stroke-linejoin="round" d=" M 372.938, 442.469 372.938, 432.469 372.938, 422.469 372.938, 412.469 372.938, 402.469 372.938, 392.469 372.938, 382.469 372.938, 372.469 372.938, 362.469 372.938, 352.469 372.938, 342.469 372.938, 332.469 372.938, 322.469 372.938, 312.469 372.938, 302.469 372.938, 292.469 372.938, 282.469 372.938, 272.469 372.938, 262.469 372.938, 252.469 372.938, 242.469 372.938, 232.469 372.938, 227.556 372.938, 227.556 362.938, 227.556 352.938, 227.556 342.938, 227.556 335.012, 227.556 335.012, 227.556 335.012, 237.556 335.012, 247.556 335.012, 257.556 335.012, 267.556 335.012, 277.556 335.012, 287.556 335.012, 297.556 335.012, 307.556 335.012, 317.556 335.012, 327.556 335.012, 337.556 335.012, 347.556 335.012, 357.556 335.012, 367.556 335.012, 377.556 335.012, 387.556 335.012, 397.556 335.012, 407.556 335.012, 417.556 335.012, 427.556 335.012, 437.556 335.012, 442.469 " />
            <path fill="none" stroke-width="3.0" stroke-linecap="butt" stroke-opacity="1.0" stroke="rgb(0, 0, 0)" stroke-linejoin="round" d=" M 372.938, 227.556 372.938, 237.556 372.938, 247.556 372.938, 257.556 372.938, 267.556 372.938, 277.556 372.938, 287.556 372.938, 297.556 372.938, 307.556 372.938, 317.556 372.938, 327.556 372.938, 337.556 372.938, 347.556 372.938, 357.556 372.938, 367.556 372.938, 377.556 372.938, 387.556 372.938, 397.556 372.938, 407.556 372.938, 417.556 372.938, 427.556 372.938, 437.556 372.938, 442.469 " />
            <path fill="none" stroke-width="3.0" stroke-linecap="butt" stroke-opacity="1.0" stroke="rgb(0, 0, 0)" stroke-linejoin="round" d=" M 701.630, 518.321 701.630, 508.321 701.630, 498.321 701.630, 488.321 701.630, 478.321 701.630, 468.321 701.630, 458.321 701.630, 448.321 701.630, 442.469 " />
            <path fill="none" stroke-width="3.0" stroke-linecap="butt" stroke-opacity="1.0" stroke="rgb(0, 0, 0)" stroke-linejoin="round" d=" M 322.370, 518.321 332.370, 518.321 335.012, 518.321 335.012, 518.321 345.012, 518.321 355.012, 518.321 365.012, 518.321 372.938, 518.321 372.938, 518.321 382.938, 518.321 392.938, 518.321 402.938, 518.321 412.938, 518.321 422.938, 518.321 432.938, 518.321 442.938, 518.321 452.938, 518.321 462.938, 518.321 472.938, 518.321 482.938, 518.321 492.938, 518.321 502.938, 518.321 512.938, 518.321 522.938, 518.321 532.938, 518.321 542.938, 518.321 552.938, 518.321 562.938, 518.321 572.938, 518.321 582.938, 518.321 592.938, 518.321 602.938, 518.321 612.938, 518.321 622.938, 518.321 632.938, 518.321 642.938, 518.321 652.938, 518.321 662.938, 518.321 672.938, 518.321 682.938, 518.321 692.938, 518.321 701.630, 518.321 701.630, 508.321 701.630, 498.321 701.630, 488.321 701.630, 478.321 701.630, 468.321 701.630, 458.321 701.630, 448.321 701.630, 442.469 " />
            <path fill="none" stroke-width="3.0" stroke-linecap="butt" stroke-opacity="1.0" stroke="rgb(0, 0, 0)" stroke-linejoin="round" d=" M 701.630, 442.469 691.630, 442.469 681.630, 442.469 671.630, 442.469 661.630, 442.469 651.630, 442.469 641.630, 442.469 631.630, 442.469 621.630, 442.469 611.630, 442.469 601.630, 442.469 591.630, 442.469 581.630, 442.469 571.630, 442.469 561.630, 442.469 551.630, 442.469 541.630, 442.469 531.630, 442.469 521.630, 442.469 511.630, 442.469 501.630, 442.469 491.630, 442.469 481.630, 442.469 471.630, 442.469 461.630, 442.469 451.630, 442.469 441.630, 442.469 431.630, 442.469 421.630, 442.469 411.630, 442.469 401.630, 442.469 391.630, 442.469 381.630, 442.469 372.938, 442.469 372.938, 442.469 362.938, 442.469 352.938, 442.469 342.938, 442.469 335.012, 442.469 335.012, 442.469 325.012, 442.469 322.370, 442.469 322.370, 452.469 322.370, 462.469 322.370, 472.469 322.370, 482.469 322.370, 492.469 322.370, 502.469 322.370, 512.469 322.370, 518.321 322.370, 518.321 " />
            <path fill="none" stroke-width="3.0" stroke-linecap="butt" stroke-opacity="1.0" stroke="rgb(0, 0, 0)" stroke-linejoin="round" d=" M 372.938, 552.296 372.938, 552.296 382.938, 552.296 392.938, 552.296 402.938, 552.296 412.938, 552.296 422.938, 552.296 432.938, 552.296 442.938, 552.296 452.938, 552.296 462.938, 552.296 472.938, 552.296 482.938, 552.296 492.938, 552.296 502.938, 552.296 512.938, 552.296 522.938, 552.296 532.938, 552.296 542.938, 552.296 552.938, 552.296 562.938, 552.296 572.938, 552.296 582.938, 552.296 592.938, 552.296 602.938, 552.296 612.938, 552.296 622.938, 552.296 632.938, 552.296 642.938, 552.296 652.938, 552.296 662.938, 552.296 668.445, 552.296 668.445, 542.296 668.445, 534.914 668.444, 534.914 658.444, 534.914 648.444, 534.914 638.444, 534.914 628.444, 534.914 618.444, 534.914 608.444, 534.914 598.444, 534.914 588.444, 534.914 578.444, 534.914 568.444, 534.914 558.444, 534.914 548.444, 534.914 538.444, 534.914 528.444, 534.914 518.444, 534.914 508.444, 534.914 498.444, 534.914 488.444, 534.914 478.444, 534.914 468.444, 534.914 458.444, 534.914 448.444, 534.914 438.444, 534.914 428.444, 534.914 418.444, 534.914 408.444, 534.914 398.444, 534.914 388.444, 534.914 378.444, 534.914 372.938, 534.914 372.938, 534.914 " />
            <path fill="none" stroke-width="3.0" stroke-linecap="butt" stroke-opacity="1.0" stroke="rgb(0, 0, 0)" stroke-linejoin="round" d=" M 668.444, 534.914 668.444, 544.914 668.444, 552.296 " />
            <path fill="none" stroke-width="3.0" stroke-linecap="butt" stroke-opacity="1.0" stroke="rgb(0, 0, 0)" stroke-linejoin="round" d=" M 372.938, 552.296 382.938, 552.296 392.938, 552.296 402.938, 552.296 412.938, 552.296 422.938, 552.296 432.938, 552.296 442.938, 552.296 452.938, 552.296 462.938, 552.296 472.938, 552.296 482.938, 552.296 492.938, 552.296 502.938, 552.296 512.938, 552.296 522.938, 552.296 532.938, 552.296 542.938, 552.296 552.938, 552.296 562.938, 552.296 572.938, 552.296 582.938, 552.296 592.938, 552.296 602.938, 552.296 612.938, 552.296 622.938, 552.296 632.938, 552.296 642.938, 552.296 652.938, 552.296 662.938, 552.296 668.444, 552.296 668.445, 552.296 " />
            <path fill="none" stroke-width="3.0" stroke-linecap="butt" stroke-opacity="1.0" stroke="rgb(0, 0, 0)" stroke-linejoin="round" d=" M 322.370, 518.321 322.370, 518.321 " />
            <path fill="none" stroke-width="3.0" stroke-linecap="butt" stroke-opacity="1.0" stroke="rgb(0, 0, 0)" stroke-linejoin="round" d=" M 335.012, 518.321 335.012, 518.321 " />
            <path fill="none" stroke-width="3.0" stroke-linecap="butt" stroke-opacity="1.0" stroke="rgb(0, 0, 0)" stroke-linejoin="round" d=" M 372.938, 518.321 372.938, 518.321 372.938, 528.321 372.938, 534.914 372.938, 544.914 372.938, 552.296 372.938, 556.247 372.938, 566.247 372.938, 576.247 372.938, 586.247 372.938, 594.173 372.938, 604.173 372.938, 606.815 " />
            <path fill="none" stroke-width="3.0" stroke-linecap="butt" stroke-opacity="1.0" stroke="rgb(0, 0, 0)" stroke-linejoin="round" d=" M 372.938, 534.914 372.938, 524.914 372.938, 518.321 " />
            <path fill="none" stroke-width="3.0" stroke-linecap="butt" stroke-opacity="1.0" stroke="rgb(0, 0, 0)" stroke-linejoin="round" d=" M 372.938, 556.247 372.938, 552.296 " />
            <path fill="none" stroke-width="3.0" stroke-linecap="butt" stroke-opacity="1.0" stroke="rgb(0, 0, 0)" stroke-linejoin="round" d=" M 701.630, 442.469 701.630, 442.469 " />
            <path fill="none" stroke-width="3.0" stroke-linecap="butt" stroke-opacity="1.0" stroke="rgb(0, 0, 0)" stroke-linejoin="round" d=" M 417.185, 594.173 427.185, 594.173 437.185, 594.173 447.185, 594.173 457.185, 594.173 467.185, 594.173 477.185, 594.173 487.185, 594.173 497.185, 594.173 507.185, 594.173 517.185, 594.173 527.185, 594.173 537.185, 594.173 547.185, 594.173 557.185, 594.173 567.185, 594.173 577.185, 594.173 587.185, 594.173 597.185, 594.173 606.815, 594.173 " />
            <path fill="none" stroke-width="3.0" stroke-linecap="butt" stroke-opacity="1.0" stroke="rgb(0, 0, 0)" stroke-linejoin="round" d=" M 372.938, 594.173 372.938, 594.173 382.938, 594.173 385.580, 594.173 " />
            <path fill="none" stroke-width="3.0" stroke-linecap="butt" stroke-opacity="1.0" stroke="rgb(0, 0, 0)" stroke-linejoin="round" d=" M 372.938, 518.321 372.938, 518.321 382.938, 518.321 392.938, 518.321 402.938, 518.321 412.938, 518.321 422.938, 518.321 432.938, 518.321 442.938, 518.321 452.938, 518.321 462.938, 518.321 472.938, 518.321 482.938, 518.321 492.938, 518.321 502.938, 518.321 512.938, 518.321 522.938, 518.321 532.938, 518.321 542.938, 518.321 552.938, 518.321 562.938, 518.321 572.938, 518.321 582.938, 518.321 592.938, 518.321 602.938, 518.321 612.938, 518.321 622.938, 518.321 632.938, 518.321 642.938, 518.321 652.938, 518.321 662.938, 518.321 672.938, 518.321 682.938, 518.321 692.938, 518.321 701.630, 518.321 " />
            <path fill="none" stroke-width="3.0" stroke-linecap="butt" stroke-opacity="1.0" stroke="rgb(0, 0, 0)" stroke-linejoin="round" d=" M 322.370, 518.321 332.370, 518.321 335.012, 518.321 " />
            <path fill="none" stroke-width="3.0" stroke-linecap="butt" stroke-opacity="1.0" stroke="rgb(0, 0, 0)" stroke-linejoin="round" d=" M 701.630, 442.469 701.630, 442.469 " />
        </g>
    </g>
    <g id="ViewLayer_TechnicalLines.001" inkscape:groupmode="lineset" inkscape:label="ViewLayer_TechnicalLines.001">
        <g inkscape:groupmode="layer" id="strokes" inkscape:label="strokes">
            <path fill="none" stroke-width="1.5" stroke-linecap="round" stroke-opacity="1.0" stroke="rgb(0, 0, 0)" stroke-linejoin="round" d=" M 417.185, 796.445 417.185, 786.445 417.185, 776.445 417.185, 766.445 417.185, 756.445 417.185, 746.445 417.185, 736.445 417.185, 726.445 417.185, 716.445 417.185, 706.445 417.185, 696.445 417.185, 686.445 417.185, 676.445 417.185, 666.445 417.185, 656.445 417.185, 646.445 417.185, 636.445 417.185, 626.445 417.185, 616.445 417.185, 606.445 417.185, 596.445 417.185, 594.173 417.185, 594.173 " />
            <path fill="none" stroke-width="1.5" stroke-linecap="round" stroke-opacity="1.0" stroke="rgb(0, 0, 0)" stroke-linejoin="round" d=" M 385.580, 594.173 385.580, 594.173 385.580, 604.173 385.580, 614.173 385.580, 624.173 385.580, 634.173 385.580, 644.173 385.580, 654.173 385.580, 664.173 385.580, 674.173 385.580, 684.173 385.580, 694.173 385.580, 704.173 385.580, 714.173 385.580, 724.173 385.580, 734.173 385.580, 744.173 385.580, 754.173 385.580, 764.173 385.580, 774.173 385.580, 784.173 385.580, 794.173 385.580, 796.445 385.580, 796.445 385.884, 796.445 386.783, 796.445 388.243, 796.445 390.209, 796.445 392.603, 796.445 395.335, 796.445 398.300, 796.445 401.383, 796.445 404.466, 796.445 407.430, 796.445 410.162, 796.445 412.557, 796.445 414.522, 796.445 415.982, 796.445 416.882, 796.445 417.185, 796.445 417.185, 786.445 417.185, 776.445 417.185, 766.445 417.185, 756.445 417.185, 746.445 417.185, 736.445 417.185, 726.445 417.185, 716.445 417.185, 706.445 417.185, 696.445 417.185, 686.445 417.185, 676.445 417.185, 666.445 417.185, 656.445 417.185, 646.445 417.185, 636.445 417.185, 626.445 417.185, 616.445 417.185, 606.445 417.185, 596.445 417.185, 594.173 417.185, 594.173 " />
            <path fill="none" stroke-width="1.5" stroke-linecap="round" stroke-opacity="1.0" stroke="rgb(0, 0, 0)" stroke-linejoin="round" d=" M 638.420, 796.445 638.420, 786.445 638.420, 776.445 638.420, 766.445 638.420, 756.445 638.420, 746.445 638.420, 736.445 638.420, 726.445 638.420, 716.445 638.420, 706.445 638.420, 696.445 638.420, 686.445 638.420, 676.445 638.420, 666.445 638.420, 656.445 638.420, 646.445 638.420, 636.445 638.420, 626.445 638.420, 616.445 638.420, 606.445 638.420, 596.445 638.420, 594.173 638.420, 594.173 " />
            <path fill="none" stroke-width="1.5" stroke-linecap="round" stroke-opacity="1.0" stroke="rgb(0, 0, 0)" stroke-linejoin="round" d=" M 606.815, 594.173 606.815, 594.173 606.815, 604.173 606.815, 614.173 606.815, 624.173 606.815, 634.173 606.815, 644.173 606.815, 654.173 606.815, 664.173 606.815, 674.173 606.815, 684.173 606.815, 694.173 606.815, 704.173 606.815, 714.173 606.815, 724.173 606.815, 734.173 606.815, 744.173 606.815, 754.173 606.815, 764.173 606.815, 774.173 606.815, 784.173 606.815, 794.173 606.815, 796.445 607.118, 796.445 608.018, 796.445 609.478, 796.445 611.443, 796.445 613.838, 796.445 616.570, 796.445 619.534, 796.445 622.617, 796.445 625.700, 796.445 628.665, 796.445 631.397, 796.445 633.791, 796.445 635.757, 796.445 637.217, 796.445 638.116, 796.445 638.420, 796.445 638.420, 786.445 638.420, 776.445 638.420, 766.445 638.420, 756.445 638.420, 746.445 638.420, 736.445 638.420, 726.445 638.420, 716.445 638.420, 706.445 638.420, 696.445 638.420, 686.445 638.420, 676.445 638.420, 666.445 638.420, 656.445 638.420, 646.445 638.420, 636.445 638.420, 626.445 638.420, 616.445 638.420, 606.445 638.420, 596.445 638.420, 594.173 638.420, 594.173 " />
            <path fill="none" stroke-width="1.5" stroke-linecap="round" stroke-opacity="1.0" stroke="rgb(0, 0, 0)" stroke-linejoin="round" d=" M 638.420, 594.173 648.420, 594.173 658.420, 594.173 668.420, 594.173 678.420, 594.173 688.420, 594.173 698.420, 594.173 701.630, 594.173 701.630, 594.173 701.630, 584.173 701.630, 574.173 701.630, 564.173 701.630, 556.247 701.630, 556.247 691.630, 556.247 681.630, 556.247 671.630, 556.247 661.630, 556.247 651.630, 556.247 641.630, 556.247 631.630, 556.247 621.630, 556.247 611.630, 556.247 601.630, 556.247 591.630, 556.247 581.630, 556.247 571.630, 556.247 561.630, 556.247 551.630, 556.247 541.630, 556.247 531.630, 556.247 521.630, 556.247 511.630, 556.247 501.630, 556.247 491.630, 556.247 481.630, 556.247 471.630, 556.247 461.630, 556.247 451.630, 556.247 441.630, 556.247 431.630, 556.247 421.630, 556.247 411.630, 556.247 401.630, 556.247 391.630, 556.247 381.630, 556.247 372.938, 556.247 372.938, 556.247 362.938, 556.247 352.938, 556.247 342.938, 556.247 335.012, 556.247 335.012, 556.247 325.012, 556.247 322.370, 556.247 322.370, 556.247 322.370, 566.247 322.370, 576.247 322.370, 586.247 322.370, 594.173 322.370, 594.173 332.370, 594.173 335.012, 594.173 " />
            <path fill="none" stroke-width="1.5" stroke-linecap="round" stroke-opacity="1.0" stroke="rgb(0, 0, 0)" stroke-linejoin="round" d=" M 322.370, 594.173 332.370, 594.173 335.012, 594.173 345.012, 594.173 355.012, 594.173 365.012, 594.173 372.938, 594.173 382.938, 594.173 385.580, 594.173 385.580, 594.173 395.580, 594.173 405.580, 594.173 415.580, 594.173 417.185, 594.173 417.185, 594.173 427.185, 594.173 437.185, 594.173 447.185, 594.173 457.185, 594.173 467.185, 594.173 477.185, 594.173 487.185, 594.173 497.185, 594.173 507.185, 594.173 517.185, 594.173 527.185, 594.173 537.185, 594.173 547.185, 594.173 557.185, 594.173 567.185, 594.173 577.185, 594.173 587.185, 594.173 597.185, 594.173 606.815, 594.173 606.815, 594.173 616.815, 594.173 626.815, 594.173 636.815, 594.173 638.420, 594.173 638.420, 594.173 648.420, 594.173 658.420, 594.173 668.420, 594.173 678.420, 594.173 688.420, 594.173 698.420, 594.173 701.630, 594.173 " />
            <path fill="none" stroke-width="1.5" stroke-linecap="round" stroke-opacity="1.0" stroke="rgb(0, 0, 0)" stroke-linejoin="round" d=" M 335.012, 518.321 335.012, 528.321 335.012, 538.321 335.012, 548.321 335.012, 556.247 335.012, 556.247 335.012, 566.247 335.012, 576.247 335.012, 586.247 335.012, 594.173 335.012, 594.173 335.012, 604.173 335.012, 606.815 335.012, 606.815 345.012, 606.815 355.012, 606.815 365.012, 606.815 372.938, 606.815 372.938, 606.815 372.938, 596.815 372.938, 594.173 372.938, 594.173 " />
            <path fill="none" stroke-width="1.5" stroke-linecap="round" stroke-opacity="1.0" stroke="rgb(0, 0, 0)" stroke-linejoin="round" d=" M 372.938, 442.469 372.938, 432.469 372.938, 422.469 372.938, 412.469 372.938, 402.469 372.938, 392.469 372.938, 382.469 372.938, 372.469 372.938, 362.469 372.938, 352.469 372.938, 342.469 372.938, 332.469 372.938, 322.469 372.938, 312.469 372.938, 302.469 372.938, 292.469 372.938, 282.469 372.938, 272.469 372.938, 262.469 372.938, 252.469 372.938, 242.469 372.938, 232.469 372.938, 227.556 372.938, 227.556 362.938, 227.556 352.938, 227.556 342.938, 227.556 335.012, 227.556 335.012, 227.556 335.012, 237.556 335.012, 247.556 335.012, 257.556 335.012, 267.556 335.012, 277.556 335.012, 287.556 335.012, 297.556 335.012, 307.556 335.012, 317.556 335.012, 327.556 335.012, 337.556 335.012, 347.556 335.012, 357.556 335.012, 367.556 335.012, 377.556 335.012, 387.556 335.012, 397.556 335.012, 407.556 335.012, 417.556 335.012, 427.556 335.012, 437.556 335.012, 442.469 " />
            <path fill="none" stroke-width="1.5" stroke-linecap="round" stroke-opacity="1.0" stroke="rgb(0, 0, 0)" stroke-linejoin="round" d=" M 372.938, 227.556 372.938, 237.556 372.938, 247.556 372.938, 257.556 372.938, 267.556 372.938, 277.556 372.938, 287.556 372.938, 297.556 372.938, 307.556 372.938, 317.556 372.938, 327.556 372.938, 337.556 372.938, 347.556 372.938, 357.556 372.938, 367.556 372.938, 377.556 372.938, 387.556 372.938, 397.556 372.938, 407.556 372.938, 417.556 372.938, 427.556 372.938, 437.556 372.938, 442.469 " />
            <path fill="none" stroke-width="1.5" stroke-linecap="round" stroke-opacity="1.0" stroke="rgb(0, 0, 0)" stroke-linejoin="round" d=" M 701.630, 518.321 701.630, 508.321 701.630, 498.321 701.630, 488.321 701.630, 478.321 701.630, 468.321 701.630, 458.321 701.630, 448.321 701.630, 442.469 " />
            <path fill="none" stroke-width="1.5" stroke-linecap="round" stroke-opacity="1.0" stroke="rgb(0, 0, 0)" stroke-linejoin="round" d=" M 322.370, 518.321 332.370, 518.321 335.012, 518.321 335.012, 518.321 345.012, 518.321 355.012, 518.321 365.012, 518.321 372.938, 518.321 372.938, 518.321 382.938, 518.321 392.938, 518.321 402.938, 518.321 412.938, 518.321 422.938, 518.321 432.938, 518.321 442.938, 518.321 452.938, 518.321 462.938, 518.321 472.938, 518.321 482.938, 518.321 492.938, 518.321 502.938, 518.321 512.938, 518.321 522.938, 518.321 532.938, 518.321 542.938, 518.321 552.938, 518.321 562.938, 518.321 572.938, 518.321 582.938, 518.321 592.938, 518.321 602.938, 518.321 612.938, 518.321 622.938, 518.321 632.938, 518.321 642.938, 518.321 652.938, 518.321 662.938, 518.321 672.938, 518.321 682.938, 518.321 692.938, 518.321 701.630, 518.321 701.630, 508.321 701.630, 498.321 701.630, 488.321 701.630, 478.321 701.630, 468.321 701.630, 458.321 701.630, 448.321 701.630, 442.469 " />
            <path fill="none" stroke-width="1.5" stroke-linecap="round" stroke-opacity="1.0" stroke="rgb(0, 0, 0)" stroke-linejoin="round" d=" M 701.630, 442.469 691.630, 442.469 681.630, 442.469 671.630, 442.469 661.630, 442.469 651.630, 442.469 641.630, 442.469 631.630, 442.469 621.630, 442.469 611.630, 442.469 601.630, 442.469 591.630, 442.469 581.630, 442.469 571.630, 442.469 561.630, 442.469 551.630, 442.469 541.630, 442.469 531.630, 442.469 521.630, 442.469 511.630, 442.469 501.630, 442.469 491.630, 442.469 481.630, 442.469 471.630, 442.469 461.630, 442.469 451.630, 442.469 441.630, 442.469 431.630, 442.469 421.630, 442.469 411.630, 442.469 401.630, 442.469 391.630, 442.469 381.630, 442.469 372.938, 442.469 372.938, 442.469 362.938, 442.469 352.938, 442.469 342.938, 442.469 335.012, 442.469 335.012, 442.469 325.012, 442.469 322.370, 442.469 322.370, 452.469 322.370, 462.469 322.370, 472.469 322.370, 482.469 322.370, 492.469 322.370, 502.469 322.370, 512.469 322.370, 518.321 322.370, 518.321 " />
            <path fill="none" stroke-width="1.5" stroke-linecap="round" stroke-opacity="1.0" stroke="rgb(0, 0, 0)" stroke-linejoin="round" d=" M 372.938, 552.296 372.938, 552.296 382.938, 552.296 392.938, 552.296 402.938, 552.296 412.938, 552.296 422.938, 552.296 432.938, 552.296 442.938, 552.296 452.938, 552.296 462.938, 552.296 472.938, 552.296 482.938, 552.296 492.938, 552.296 502.938, 552.296 512.938, 552.296 522.938, 552.296 532.938, 552.296 542.938, 552.296 552.938, 552.296 562.938, 552.296 572.938, 552.296 582.938, 552.296 592.938, 552.296 602.938, 552.296 612.938, 552.296 622.938, 552.296 632.938, 552.296 642.938, 552.296 652.938, 552.296 662.938, 552.296 668.445, 552.296 668.445, 542.296 668.445, 534.914 668.444, 534.914 658.444, 534.914 648.444, 534.914 638.444, 534.914 628.444, 534.914 618.444, 534.914 608.444, 534.914 598.444, 534.914 588.444, 534.914 578.444, 534.914 568.444, 534.914 558.444, 534.914 548.444, 534.914 538.444, 534.914 528.444, 534.914 518.444, 534.914 508.444, 534.914 498.444, 534.914 488.444, 534.914 478.444, 534.914 468.444, 534.914 458.444, 534.914 448.444, 534.914 438.444, 534.914 428.444, 534.914 418.444, 534.914 408.444, 534.914 398.444, 534.914 388.444, 534.914 378.444, 534.914 372.938, 534.914 372.938, 534.914 " />
            <path fill="none" stroke-width="1.5" stroke-linecap="round" stroke-opacity="1.0" stroke="rgb(0, 0, 0)" stroke-linejoin="round" d=" M 668.444, 534.914 668.444, 544.914 668.444, 552.296 " />
            <path fill="none" stroke-width="1.5" stroke-linecap="round" stroke-opacity="1.0" stroke="rgb(0, 0, 0)" stroke-linejoin="round" d=" M 372.938, 552.296 382.938, 552.296 392.938, 552.296 402.938, 552.296 412.938, 552.296 422.938, 552.296 432.938, 552.296 442.938, 552.296 452.938, 552.296 462.938, 552.296 472.938, 552.296 482.938, 552.296 492.938, 552.296 502.938, 552.296 512.938, 552.296 522.938, 552.296 532.938, 552.296 542.938, 552.296 552.938, 552.296 562.938, 552.296 572.938, 552.296 582.938, 552.296 592.938, 552.296 602.938, 552.296 612.938, 552.296 622.938, 552.296 632.938, 552.296 642.938, 552.296 652.938, 552.296 662.938, 552.296 668.444, 552.296 668.445, 552.296 " />
            <path fill="none" stroke-width="1.5" stroke-linecap="round" stroke-opacity="1.0" stroke="rgb(0, 0, 0)" stroke-linejoin="round" d=" M 322.370, 518.321 322.370, 518.321 " />
            <path fill="none" stroke-width="1.5" stroke-linecap="round" stroke-opacity="1.0" stroke="rgb(0, 0, 0)" stroke-linejoin="round" d=" M 335.012, 518.321 335.012, 518.321 " />
            <path fill="none" stroke-width="1.5" stroke-linecap="round" stroke-opacity="1.0" stroke="rgb(0, 0, 0)" stroke-linejoin="round" d=" M 372.938, 518.321 372.938, 518.321 372.938, 528.321 372.938, 534.914 372.938, 544.914 372.938, 552.296 372.938, 556.247 372.938, 566.247 372.938, 576.247 372.938, 586.247 372.938, 594.173 372.938, 604.173 372.938, 606.815 " />
            <path fill="none" stroke-width="1.5" stroke-linecap="round" stroke-opacity="1.0" stroke="rgb(0, 0, 0)" stroke-linejoin="round" d=" M 372.938, 534.914 372.938, 524.914 372.938, 518.321 " />
            <path fill="none" stroke-width="1.5" stroke-linecap="round" stroke-opacity="1.0" stroke="rgb(0, 0, 0)" stroke-linejoin="round" d=" M 372.938, 556.247 372.938, 552.296 " />
            <path fill="none" stroke-width="1.5" stroke-linecap="round" stroke-opacity="1.0" stroke="rgb(0, 0, 0)" stroke-linejoin="round" d=" M 701.630, 442.469 701.630, 442.469 " />
            <path fill="none" stroke-width="1.5" stroke-linecap="round" stroke-opacity="1.0" stroke="rgb(0, 0, 0)" stroke-linejoin="round" d=" M 417.185, 594.173 427.185, 594.173 437.185, 594.173 447.185, 594.173 457.185, 594.173 467.185, 594.173 477.185, 594.173 487.185, 594.173 497.185, 594.173 507.185, 594.173 517.185, 594.173 527.185, 594.173 537.185, 594.173 547.185, 594.173 557.185, 594.173 567.185, 594.173 577.185, 594.173 587.185, 594.173 597.185, 594.173 606.815, 594.173 " />
            <path fill="none" stroke-width="1.5" stroke-linecap="round" stroke-opacity="1.0" stroke="rgb(0, 0, 0)" stroke-linejoin="round" d=" M 372.938, 594.173 372.938, 594.173 382.938, 594.173 385.580, 594.173 " />
            <path fill="none" stroke-width="1.5" stroke-linecap="round" stroke-opacity="1.0" stroke="rgb(0, 0, 0)" stroke-linejoin="round" d=" M 372.938, 518.321 372.938, 518.321 382.938, 518.321 392.938, 518.321 402.938, 518.321 412.938, 518.321 422.938, 518.321 432.938, 518.321 442.938, 518.321 452.938, 518.321 462.938, 518.321 472.938, 518.321 482.938, 518.321 492.938, 518.321 502.938, 518.321 512.938, 518.321 522.938, 518.321 532.938, 518.321 542.938, 518.321 552.938, 518.321 562.938, 518.321 572.938, 518.321 582.938, 518.321 592.938, 518.321 602.938, 518.321 612.938, 518.321 622.938, 518.321 632.938, 518.321 642.938, 518.321 652.938, 518.321 662.938, 518.321 672.938, 518.321 682.938, 518.321 692.938, 518.321 701.630, 518.321 " />
            <path fill="none" stroke-width="1.5" stroke-linecap="round" stroke-opacity="1.0" stroke="rgb(0, 0, 0)" stroke-linejoin="round" d=" M 322.370, 518.321 332.370, 518.321 335.012, 518.321 " />
            <path fill="none" stroke-width="1.5" stroke-linecap="round" stroke-opacity="1.0" stroke="rgb(0, 0, 0)" stroke-linejoin="round" d=" M 701.630, 442.469 701.630, 442.469 " />
        </g>
    </g>
    <g id="ViewLayer_TechnicalLines.002" inkscape:groupmode="lineset" inkscape:label="ViewLayer_TechnicalLines.002">
        <g inkscape:groupmode="layer" id="strokes" inkscape:label="strokes">
            <path fill="none" stroke-width="1.5" stroke-linecap="round" stroke-opacity="1.0" stroke="rgb(0, 0, 0)" stroke-linejoin="round" d=" M 417.185, 796.445 417.185, 786.445 417.185, 776.445 417.185, 766.445 417.185, 756.445 417.185, 746.445 417.185, 736.445 417.185, 726.445 417.185, 716.445 417.185, 706.445 417.185, 696.445 417.185, 686.445 417.185, 676.445 417.185, 666.445 417.185, 656.445 417.185, 646.445 417.185, 636.445 417.185, 626.445 417.185, 616.445 417.185, 606.445 417.185, 596.445 417.185, 594.173 417.185, 594.173 " />
            <path fill="none" stroke-width="1.5" stroke-linecap="round" stroke-opacity="1.0" stroke="rgb(0, 0, 0)" stroke-linejoin="round" d=" M 385.580, 594.173 385.580, 594.173 385.580, 604.173 385.580, 614.173 385.580, 624.173 385.580, 634.173 385.580, 644.173 385.580, 654.173 385.580, 664.173 385.580, 674.173 385.580, 684.173 385.580, 694.173 385.580, 704.173 385.580, 714.173 385.580, 724.173 385.580, 734.173 385.580, 744.173 385.580, 754.173 385.580, 764.173 385.580, 774.173 385.580, 784.173 385.580, 794.173 385.580, 796.445 385.580, 796.445 385.884, 796.445 386.783, 796.445 388.243, 796.445 390.209, 796.445 392.603, 796.445 395.335, 796.445 398.300, 796.445 401.383, 796.445 404.466, 796.445 407.430, 796.445 410.162, 796.445 412.557, 796.445 414.522, 796.445 415.982, 796.445 416.882, 796.445 417.185, 796.445 417.185, 786.445 417.185, 776.445 417.185, 766.445 417.185, 756.445 417.185, 746.445 417.185, 736.445 417.185, 726.445 417.185, 716.445 417.185, 706.445 417.185, 696.445 417.185, 686.445 417.185, 676.445 417.185, 666.445 417.185, 656.445 417.185, 646.445 417.185, 636.445 417.185, 626.445 417.185, 616.445 417.185, 606.445 417.185, 596.445 417.185, 594.173 417.185, 594.173 " />
            <path fill="none" stroke-width="1.5" stroke-linecap="round" stroke-opacity="1.0" stroke="rgb(0, 0, 0)" stroke-linejoin="round" d=" M 638.420, 796.445 638.420, 786.445 638.420, 776.445 638.420, 766.445 638.420, 756.445 638.420, 746.445 638.420, 736.445 638.420, 726.445 638.420, 716.445 638.420, 706.445 638.420, 696.445 638.420, 686.445 638.420, 676.445 638.420, 666.445 638.420, 656.445 638.420, 646.445 638.420, 636.445 638.420, 626.445 638.420, 616.445 638.420, 606.445 638.420, 596.445 638.420, 594.173 638.420, 594.173 " />
            <path fill="none" stroke-width="1.5" stroke-linecap="round" stroke-opacity="1.0" stroke="rgb(0, 0, 0)" stroke-linejoin="round" d=" M 606.815, 594.173 606.815, 594.173 606.815, 604.173 606.815, 614.173 606.815, 624.173 606.815, 634.173 606.815, 644.173 606.815, 654.173 606.815, 664.173 606.815, 674.173 606.815, 684.173 606.815, 694.173 606.815, 704.173 606.815, 714.173 606.815, 724.173 606.815, 734.173 606.815, 744.173 606.815, 754.173 606.815, 764.173 606.815, 774.173 606.815, 784.173 606.815, 794.173 606.815, 796.445 607.118, 796.445 608.018, 796.445 609.478, 796.445 611.443, 796.445 613.838, 796.445 616.570, 796.445 619.534, 796.445 622.617, 796.445 625.700, 796.445 628.665, 796.445 631.397, 796.445 633.791, 796.445 635.757, 796.445 637.217, 796.445 638.116, 796.445 638.420, 796.445 638.420, 786.445 638.420, 776.445 638.420, 766.445 638.420, 756.445 638.420, 746.445 638.420, 736.445 638.420, 726.445 638.420, 716.445 638.420, 706.445 638.420, 696.445 638.420, 686.445 638.420, 676.445 638.420, 666.445 638.420, 656.445 638.420, 646.445 638.420, 636.445 638.420, 626.445 638.420, 616.445 638.420, 606.445 638.420, 596.445 638.420, 594.173 638.420, 594.173 " />
            <path fill="none" stroke-width="1.5" stroke-linecap="round" stroke-opacity="1.0" stroke="rgb(0, 0, 0)" stroke-linejoin="round" d=" M 638.420, 594.173 648.420, 594.173 658.420, 594.173 668.420, 594.173 678.420, 594.173 688.420, 594.173 698.420, 594.173 701.630, 594.173 701.630, 594.173 701.630, 584.173 701.630, 574.173 701.630, 564.173 701.630, 556.247 701.630, 556.247 691.630, 556.247 681.630, 556.247 671.630, 556.247 661.630, 556.247 651.630, 556.247 641.630, 556.247 631.630, 556.247 621.630, 556.247 611.630, 556.247 601.630, 556.247 591.630, 556.247 581.630, 556.247 571.630, 556.247 561.630, 556.247 551.630, 556.247 541.630, 556.247 531.630, 556.247 521.630, 556.247 511.630, 556.247 501.630, 556.247 491.630, 556.247 481.630, 556.247 471.630, 556.247 461.630, 556.247 451.630, 556.247 441.630, 556.247 431.630, 556.247 421.630, 556.247 411.630, 556.247 401.630, 556.247 391.630, 556.247 381.630, 556.247 372.938, 556.247 372.938, 556.247 362.938, 556.247 352.938, 556.247 342.938, 556.247 335.012, 556.247 335.012, 556.247 325.012, 556.247 322.370, 556.247 322.370, 556.247 322.370, 566.247 322.370, 576.247 322.370, 586.247 322.370, 594.173 322.370, 594.173 332.370, 594.173 335.012, 594.173 " />
            <path fill="none" stroke-width="1.5" stroke-linecap="round" stroke-opacity="1.0" stroke="rgb(0, 0, 0)" stroke-linejoin="round" d=" M 322.370, 594.173 332.370, 594.173 335.012, 594.173 345.012, 594.173 355.012, 594.173 365.012, 594.173 372.938, 594.173 382.938, 594.173 385.580, 594.173 385.580, 594.173 395.580, 594.173 405.580, 594.173 415.580, 594.173 417.185, 594.173 417.185, 594.173 427.185, 594.173 437.185, 594.173 447.185, 594.173 457.185, 594.173 467.185, 594.173 477.185, 594.173 487.185, 594.173 497.185, 594.173 507.185, 594.173 517.185, 594.173 527.185, 594.173 537.185, 594.173 547.185, 594.173 557.185, 594.173 567.185, 594.173 577.185, 594.173 587.185, 594.173 597.185, 594.173 606.815, 594.173 606.815, 594.173 616.815, 594.173 626.815, 594.173 636.815, 594.173 638.420, 594.173 638.420, 594.173 648.420, 594.173 658.420, 594.173 668.420, 594.173 678.420, 594.173 688.420, 594.173 698.420, 594.173 701.630, 594.173 " />
            <path fill="none" stroke-width="1.5" stroke-linecap="round" stroke-opacity="1.0" stroke="rgb(0, 0, 0)" stroke-linejoin="round" d=" M 335.012, 518.321 335.012, 528.321 335.012, 538.321 335.012, 548.321 335.012, 556.247 335.012, 556.247 335.012, 566.247 335.012, 576.247 335.012, 586.247 335.012, 594.173 335.012, 594.173 335.012, 604.173 335.012, 606.815 335.012, 606.815 345.012, 606.815 355.012, 606.815 365.012, 606.815 372.938, 606.815 372.938, 606.815 372.938, 596.815 372.938, 594.173 372.938, 594.173 " />
            <path fill="none" stroke-width="1.5" stroke-linecap="round" stroke-opacity="1.0" stroke="rgb(0, 0, 0)" stroke-linejoin="round" d=" M 372.938, 442.469 372.938, 432.469 372.938, 422.469 372.938, 412.469 372.938, 402.469 372.938, 392.469 372.938, 382.469 372.938, 372.469 372.938, 362.469 372.938, 352.469 372.938, 342.469 372.938, 332.469 372.938, 322.469 372.938, 312.469 372.938, 302.469 372.938, 292.469 372.938, 282.469 372.938, 272.469 372.938, 262.469 372.938, 252.469 372.938, 242.469 372.938, 232.469 372.938, 227.556 372.938, 227.556 362.938, 227.556 352.938, 227.556 342.938, 227.556 335.012, 227.556 335.012, 227.556 335.012, 237.556 335.012, 247.556 335.012, 257.556 335.012, 267.556 335.012, 277.556 335.012, 287.556 335.012, 297.556 335.012, 307.556 335.012, 317.556 335.012, 327.556 335.012, 337.556 335.012, 347.556 335.012, 357.556 335.012, 367.556 335.012, 377.556 335.012, 387.556 335.012, 397.556 335.012, 407.556 335.012, 417.556 335.012, 427.556 335.012, 437.556 335.012, 442.469 " />
            <path fill="none" stroke-width="1.5" stroke-linecap="round" stroke-opacity="1.0" stroke="rgb(0, 0, 0)" stroke-linejoin="round" d=" M 372.938, 227.556 372.938, 237.556 372.938, 247.556 372.938, 257.556 372.938, 267.556 372.938, 277.556 372.938, 287.556 372.938, 297.556 372.938, 307.556 372.938, 317.556 372.938, 327.556 372.938, 337.556 372.938, 347.556 372.938, 357.556 372.938, 367.556 372.938, 377.556 372.938, 387.556 372.938, 397.556 372.938, 407.556 372.938, 417.556 372.938, 427.556 372.938, 437.556 372.938, 442.469 " />
            <path fill="none" stroke-width="1.5" stroke-linecap="round" stroke-opacity="1.0" stroke="rgb(0, 0, 0)" stroke-linejoin="round" d=" M 701.630, 518.321 701.630, 508.321 701.630, 498.321 701.630, 488.321 701.630, 478.321 701.630, 468.321 701.630, 458.321 701.630, 448.321 701.630, 442.469 " />
            <path fill="none" stroke-width="1.5" stroke-linecap="round" stroke-opacity="1.0" stroke="rgb(0, 0, 0)" stroke-linejoin="round" d=" M 322.370, 518.321 332.370, 518.321 335.012, 518.321 335.012, 518.321 345.012, 518.321 355.012, 518.321 365.012, 518.321 372.938, 518.321 372.938, 518.321 382.938, 518.321 392.938, 518.321 402.938, 518.321 412.938, 518.321 422.938, 518.321 432.938, 518.321 442.938, 518.321 452.938, 518.321 462.938, 518.321 472.938, 518.321 482.938, 518.321 492.938, 518.321 502.938, 518.321 512.938, 518.321 522.938, 518.321 532.938, 518.321 542.938, 518.321 552.938, 518.321 562.938, 518.321 572.938, 518.321 582.938, 518.321 592.938, 518.321 602.938, 518.321 612.938, 518.321 622.938, 518.321 632.938, 518.321 642.938, 518.321 652.938, 518.321 662.938, 518.321 672.938, 518.321 682.938, 518.321 692.938, 518.321 701.630, 518.321 701.630, 508.321 701.630, 498.321 701.630, 488.321 701.630, 478.321 701.630, 468.321 701.630, 458.321 701.630, 448.321 701.630, 442.469 " />
            <path fill="none" stroke-width="1.5" stroke-linecap="round" stroke-opacity="1.0" stroke="rgb(0, 0, 0)" stroke-linejoin="round" d=" M 701.630, 442.469 691.630, 442.469 681.630, 442.469 671.630, 442.469 661.630, 442.469 651.630, 442.469 641.630, 442.469 631.630, 442.469 621.630, 442.469 611.630, 442.469 601.630, 442.469 591.630, 442.469 581.630, 442.469 571.630, 442.469 561.630, 442.469 551.630, 442.469 541.630, 442.469 531.630, 442.469 521.630, 442.469 511.630, 442.469 501.630, 442.469 491.630, 442.469 481.630, 442.469 471.630, 442.469 461.630, 442.469 451.630, 442.469 441.630, 442.469 431.630, 442.469 421.630, 442.469 411.630, 442.469 401.630, 442.469 391.630, 442.469 381.630, 442.469 372.938, 442.469 372.938, 442.469 362.938, 442.469 352.938, 442.469 342.938, 442.469 335.012, 442.469 335.012, 442.469 325.012, 442.469 322.370, 442.469 322.370, 452.469 322.370, 462.469 322.370, 472.469 322.370, 482.469 322.370, 492.469 322.370, 502.469 322.370, 512.469 322.370, 518.321 322.370, 518.321 " />
            <path fill="none" stroke-width="1.5" stroke-linecap="round" stroke-opacity="1.0" stroke="rgb(0, 0, 0)" stroke-linejoin="round" d=" M 372.938, 552.296 372.938, 552.296 382.938, 552.296 392.938, 552.296 402.938, 552.296 412.938, 552.296 422.938, 552.296 432.938, 552.296 442.938, 552.296 452.938, 552.296 462.938, 552.296 472.938, 552.296 482.938, 552.296 492.938, 552.296 502.938, 552.296 512.938, 552.296 522.938, 552.296 532.938, 552.296 542.938, 552.296 552.938, 552.296 562.938, 552.296 572.938, 552.296 582.938, 552.296 592.938, 552.296 602.938, 552.296 612.938, 552.296 622.938, 552.296 632.938, 552.296 642.938, 552.296 652.938, 552.296 662.938, 552.296 668.445, 552.296 668.445, 542.296 668.445, 534.914 668.444, 534.914 658.444, 534.914 648.444, 534.914 638.444, 534.914 628.444, 534.914 618.444, 534.914 608.444, 534.914 598.444, 534.914 588.444, 534.914 578.444, 534.914 568.444, 534.914 558.444, 534.914 548.444, 534.914 538.444, 534.914 528.444, 534.914 518.444, 534.914 508.444, 534.914 498.444, 534.914 488.444, 534.914 478.444, 534.914 468.444, 534.914 458.444, 534.914 448.444, 534.914 438.444, 534.914 428.444, 534.914 418.444, 534.914 408.444, 534.914 398.444, 534.914 388.444, 534.914 378.444, 534.914 372.938, 534.914 372.938, 534.914 " />
            <path fill="none" stroke-width="1.5" stroke-linecap="round" stroke-opacity="1.0" stroke="rgb(0, 0, 0)" stroke-linejoin="round" d=" M 668.444, 534.914 668.444, 544.914 668.444, 552.296 " />
            <path fill="none" stroke-width="1.5" stroke-linecap="round" stroke-opacity="1.0" stroke="rgb(0, 0, 0)" stroke-linejoin="round" d=" M 372.938, 552.296 382.938, 552.296 392.938, 552.296 402.938, 552.296 412.938, 552.296 422.938, 552.296 432.938, 552.296 442.938, 552.296 452.938, 552.296 462.938, 552.296 472.938, 552.296 482.938, 552.296 492.938, 552.296 502.938, 552.296 512.938, 552.296 522.938, 552.296 532.938, 552.296 542.938, 552.296 552.938, 552.296 562.938, 552.296 572.938, 552.296 582.938, 552.296 592.938, 552.296 602.938, 552.296 612.938, 552.296 622.938, 552.296 632.938, 552.296 642.938, 552.296 652.938, 552.296 662.938, 552.296 668.444, 552.296 668.445, 552.296 " />
            <path fill="none" stroke-width="1.5" stroke-linecap="round" stroke-opacity="1.0" stroke="rgb(0, 0, 0)" stroke-linejoin="round" d=" M 322.370, 518.321 322.370, 518.321 " />
            <path fill="none" stroke-width="1.5" stroke-linecap="round" stroke-opacity="1.0" stroke="rgb(0, 0, 0)" stroke-linejoin="round" d=" M 335.012, 518.321 335.012, 518.321 " />
            <path fill="none" stroke-width="1.5" stroke-linecap="round" stroke-opacity="1.0" stroke="rgb(0, 0, 0)" stroke-linejoin="round" d=" M 372.938, 518.321 372.938, 518.321 372.938, 528.321 372.938, 534.914 372.938, 544.914 372.938, 552.296 372.938, 556.247 372.938, 566.247 372.938, 576.247 372.938, 586.247 372.938, 594.173 372.938, 604.173 372.938, 606.815 " />
            <path fill="none" stroke-width="1.5" stroke-linecap="round" stroke-opacity="1.0" stroke="rgb(0, 0, 0)" stroke-linejoin="round" d=" M 372.938, 534.914 372.938, 524.914 372.938, 518.321 " />
            <path fill="none" stroke-width="1.5" stroke-linecap="round" stroke-opacity="1.0" stroke="rgb(0, 0, 0)" stroke-linejoin="round" d=" M 372.938, 556.247 372.938, 552.296 " />
            <path fill="none" stroke-width="1.5" stroke-linecap="round" stroke-opacity="1.0" stroke="rgb(0, 0, 0)" stroke-linejoin="round" d=" M 701.630, 442.469 701.630, 442.469 " />
            <path fill="none" stroke-width="1.5" stroke-linecap="round" stroke-opacity="1.0" stroke="rgb(0, 0, 0)" stroke-linejoin="round" d=" M 417.185, 594.173 427.185, 594.173 437.185, 594.173 447.185, 594.173 457.185, 594.173 467.185, 594.173 477.185, 594.173 487.185, 594.173 497.185, 594.173 507.185, 594.173 517.185, 594.173 527.185, 594.173 537.185, 594.173 547.185, 594.173 557.185, 594.173 567.185, 594.173 577.185, 594.173 587.185, 594.173 597.185, 594.173 606.815, 594.173 " />
            <path fill="none" stroke-width="1.5" stroke-linecap="round" stroke-opacity="1.0" stroke="rgb(0, 0, 0)" stroke-linejoin="round" d=" M 372.938, 594.173 372.938, 594.173 382.938, 594.173 385.580, 594.173 " />
            <path fill="none" stroke-width="1.5" stroke-linecap="round" stroke-opacity="1.0" stroke="rgb(0, 0, 0)" stroke-linejoin="round" d=" M 372.938, 518.321 372.938, 518.321 382.938, 518.321 392.938, 518.321 402.938, 518.321 412.938, 518.321 422.938, 518.321 432.938, 518.321 442.938, 518.321 452.938, 518.321 462.938, 518.321 472.938, 518.321 482.938, 518.321 492.938, 518.321 502.938, 518.321 512.938, 518.321 522.938, 518.321 532.938, 518.321 542.938, 518.321 552.938, 518.321 562.938, 518.321 572.938, 518.321 582.938, 518.321 592.938, 518.321 602.938, 518.321 612.938, 518.321 622.938, 518.321 632.938, 518.321 642.938, 518.321 652.938, 518.321 662.938, 518.321 672.938, 518.321 682.938, 518.321 692.938, 518.321 701.630, 518.321 " />
            <path fill="none" stroke-width="1.5" stroke-linecap="round" stroke-opacity="1.0" stroke="rgb(0, 0, 0)" stroke-linejoin="round" d=" M 322.370, 518.321 332.370, 518.321 335.012, 518.321 " />
            <path fill="none" stroke-width="1.5" stroke-linecap="round" stroke-opacity="1.0" stroke="rgb(0, 0, 0)" stroke-linejoin="round" d=" M 701.630, 442.469 701.630, 442.469 " />
        </g>
    </g>
    <g id="ViewLayer_TechnicalLines.003" inkscape:groupmode="lineset" inkscape:label="ViewLayer_TechnicalLines.003">
        <g inkscape:groupmode="layer" id="strokes" inkscape:label="strokes">
            <path fill="none" stroke-width="1.5" stroke-linecap="round" stroke-opacity="1.0" stroke="rgb(0, 0, 0)" stroke-linejoin="round" d=" M 417.185, 796.445 417.185, 786.445 417.185, 776.445 417.185, 766.445 417.185, 756.445 417.185, 746.445 417.185, 736.445 417.185, 726.445 417.185, 716.445 417.185, 706.445 417.185, 696.445 417.185, 686.445 417.185, 676.445 417.185, 666.445 417.185, 656.445 417.185, 646.445 417.185, 636.445 417.185, 626.445 417.185, 616.445 417.185, 606.445 417.185, 596.445 417.185, 594.173 417.185, 594.173 " />
            <path fill="none" stroke-width="1.5" stroke-linecap="round" stroke-opacity="1.0" stroke="rgb(0, 0, 0)" stroke-linejoin="round" d=" M 385.580, 594.173 385.580, 594.173 385.580, 604.173 385.580, 614.173 385.580, 624.173 385.580, 634.173 385.580, 644.173 385.580, 654.173 385.580, 664.173 385.580, 674.173 385.580, 684.173 385.580, 694.173 385.580, 704.173 385.580, 714.173 385.580, 724.173 385.580, 734.173 385.580, 744.173 385.580, 754.173 385.580, 764.173 385.580, 774.173 385.580, 784.173 385.580, 794.173 385.580, 796.445 385.580, 796.445 385.884, 796.445 386.783, 796.445 388.243, 796.445 390.209, 796.445 392.603, 796.445 395.335, 796.445 398.300, 796.445 401.383, 796.445 404.466, 796.445 407.430, 796.445 410.162, 796.445 412.557, 796.445 414.522, 796.445 415.982, 796.445 416.882, 796.445 417.185, 796.445 417.185, 786.445 417.185, 776.445 417.185, 766.445 417.185, 756.445 417.185, 746.445 417.185, 736.445 417.185, 726.445 417.185, 716.445 417.185, 706.445 417.185, 696.445 417.185, 686.445 417.185, 676.445 417.185, 666.445 417.185, 656.445 417.185, 646.445 417.185, 636.445 417.185, 626.445 417.185, 616.445 417.185, 606.445 417.185, 596.445 417.185, 594.173 417.185, 594.173 " />
            <path fill="none" stroke-width="1.5" stroke-linecap="round" stroke-opacity="1.0" stroke="rgb(0, 0, 0)" stroke-linejoin="round" d=" M 638.420, 796.445 638.420, 786.445 638.420, 776.445 638.420, 766.445 638.420, 756.445 638.420, 746.445 638.420, 736.445 638.420, 726.445 638.420, 716.445 638.420, 706.445 638.420, 696.445 638.420, 686.445 638.420, 676.445 638.420, 666.445 638.420, 656.445 638.420, 646.445 638.420, 636.445 638.420, 626.445 638.420, 616.445 638.420, 606.445 638.420, 596.445 638.420, 594.173 638.420, 594.173 " />
            <path fill="none" stroke-width="1.5" stroke-linecap="round" stroke-opacity="1.0" stroke="rgb(0, 0, 0)" stroke-linejoin="round" d=" M 606.815, 594.173 606.815, 594.173 606.815, 604.173 606.815, 614.173 606.815, 624.173 606.815, 634.173 606.815, 644.173 606.815, 654.173 606.815, 664.173 606.815, 674.173 606.815, 684.173 606.815, 694.173 606.815, 704.173 606.815, 714.173 606.815, 724.173 606.815, 734.173 606.815, 744.173 606.815, 754.173 606.815, 764.173 606.815, 774.173 606.815, 784.173 606.815, 794.173 606.815, 796.445 607.118, 796.445 608.018, 796.445 609.478, 796.445 611.443, 796.445 613.838, 796.445 616.570, 796.445 619.534, 796.445 622.617, 796.445 625.700, 796.445 628.665, 796.445 631.397, 796.445 633.791, 796.445 635.757, 796.445 637.217, 796.445 638.116, 796.445 638.420, 796.445 638.420, 786.445 638.420, 776.445 638.420, 766.445 638.420, 756.445 638.420, 746.445 638.420, 736.445 638.420, 726.445 638.420, 716.445 638.420, 706.445 638.420, 696.445 638.420, 686.445 638.420, 676.445 638.420, 666.445 638.420, 656.445 638.420, 646.445 638.420, 636.445 638.420, 626.445 638.420, 616.445 638.420, 606.445 638.420, 596.445 638.420, 594.173 638.420, 594.173 " />
            <path fill="none" stroke-width="1.5" stroke-linecap="round" stroke-opacity="1.0" stroke="rgb(0, 0, 0)" stroke-linejoin="round" d=" M 638.420, 594.173 648.420, 594.173 658.420, 594.173 668.420, 594.173 678.420, 594.173 688.420, 594.173 698.420, 594.173 701.630, 594.173 701.630, 594.173 701.630, 584.173 701.630, 574.173 701.630, 564.173 701.630, 556.247 701.630, 556.247 691.630, 556.247 681.630, 556.247 671.630, 556.247 661.630, 556.247 651.630, 556.247 641.630, 556.247 631.630, 556.247 621.630, 556.247 611.630, 556.247 601.630, 556.247 591.630, 556.247 581.630, 556.247 571.630, 556.247 561.630, 556.247 551.630, 556.247 541.630, 556.247 531.630, 556.247 521.630, 556.247 511.630, 556.247 501.630, 556.247 491.630, 556.247 481.630, 556.247 471.630, 556.247 461.630, 556.247 451.630, 556.247 441.630, 556.247 431.630, 556.247 421.630, 556.247 411.630, 556.247 401.630, 556.247 391.630, 556.247 381.630, 556.247 372.938, 556.247 372.938, 556.247 362.938, 556.247 352.938, 556.247 342.938, 556.247 335.012, 556.247 335.012, 556.247 325.012, 556.247 322.370, 556.247 322.370, 556.247 322.370, 566.247 322.370, 576.247 322.370, 586.247 322.370, 594.173 322.370, 594.173 332.370, 594.173 335.012, 594.173 " />
            <path fill="none" stroke-width="1.5" stroke-linecap="round" stroke-opacity="1.0" stroke="rgb(0, 0, 0)" stroke-linejoin="round" d=" M 322.370, 594.173 332.370, 594.173 335.012, 594.173 345.012, 594.173 355.012, 594.173 365.012, 594.173 372.938, 594.173 382.938, 594.173 385.580, 594.173 385.580, 594.173 395.580, 594.173 405.580, 594.173 415.580, 594.173 417.185, 594.173 417.185, 594.173 427.185, 594.173 437.185, 594.173 447.185, 594.173 457.185, 594.173 467.185, 594.173 477.185, 594.173 487.185, 594.173 497.185, 594.173 507.185, 594.173 517.185, 594.173 527.185, 594.173 537.185, 594.173 547.185, 594.173 557.185, 594.173 567.185, 594.173 577.185, 594.173 587.185, 594.173 597.185, 594.173 606.815, 594.173 606.815, 594.173 616.815, 594.173 626.815, 594.173 636.815, 594.173 638.420, 594.173 638.420, 594.173 648.420, 594.173 658.420, 594.173 668.420, 594.173 678.420, 594.173 688.420, 594.173 698.420, 594.173 701.630, 594.173 " />
            <path fill="none" stroke-width="1.5" stroke-linecap="round" stroke-opacity="1.0" stroke="rgb(0, 0, 0)" stroke-linejoin="round" d=" M 335.012, 518.321 335.012, 528.321 335.012, 538.321 335.012, 548.321 335.012, 556.247 335.012, 556.247 335.012, 566.247 335.012, 576.247 335.012, 586.247 335.012, 594.173 335.012, 594.173 335.012, 604.173 335.012, 606.815 335.012, 606.815 345.012, 606.815 355.012, 606.815 365.012, 606.815 372.938, 606.815 372.938, 606.815 372.938, 596.815 372.938, 594.173 372.938, 594.173 " />
            <path fill="none" stroke-width="1.5" stroke-linecap="round" stroke-opacity="1.0" stroke="rgb(0, 0, 0)" stroke-linejoin="round" d=" M 372.938, 442.469 372.938, 432.469 372.938, 422.469 372.938, 412.469 372.938, 402.469 372.938, 392.469 372.938, 382.469 372.938, 372.469 372.938, 362.469 372.938, 352.469 372.938, 342.469 372.938, 332.469 372.938, 322.469 372.938, 312.469 372.938, 302.469 372.938, 292.469 372.938, 282.469 372.938, 272.469 372.938, 262.469 372.938, 252.469 372.938, 242.469 372.938, 232.469 372.938, 227.556 372.938, 227.556 362.938, 227.556 352.938, 227.556 342.938, 227.556 335.012, 227.556 335.012, 227.556 335.012, 237.556 335.012, 247.556 335.012, 257.556 335.012, 267.556 335.012, 277.556 335.012, 287.556 335.012, 297.556 335.012, 307.556 335.012, 317.556 335.012, 327.556 335.012, 337.556 335.012, 347.556 335.012, 357.556 335.012, 367.556 335.012, 377.556 335.012, 387.556 335.012, 397.556 335.012, 407.556 335.012, 417.556 335.012, 427.556 335.012, 437.556 335.012, 442.469 " />
            <path fill="none" stroke-width="1.5" stroke-linecap="round" stroke-opacity="1.0" stroke="rgb(0, 0, 0)" stroke-linejoin="round" d=" M 372.938, 227.556 372.938, 237.556 372.938, 247.556 372.938, 257.556 372.938, 267.556 372.938, 277.556 372.938, 287.556 372.938, 297.556 372.938, 307.556 372.938, 317.556 372.938, 327.556 372.938, 337.556 372.938, 347.556 372.938, 357.556 372.938, 367.556 372.938, 377.556 372.938, 387.556 372.938, 397.556 372.938, 407.556 372.938, 417.556 372.938, 427.556 372.938, 437.556 372.938, 442.469 " />
            <path fill="none" stroke-width="1.5" stroke-linecap="round" stroke-opacity="1.0" stroke="rgb(0, 0, 0)" stroke-linejoin="round" d=" M 701.630, 518.321 701.630, 508.321 701.630, 498.321 701.630, 488.321 701.630, 478.321 701.630, 468.321 701.630, 458.321 701.630, 448.321 701.630, 442.469 " />
            <path fill="none" stroke-width="1.5" stroke-linecap="round" stroke-opacity="1.0" stroke="rgb(0, 0, 0)" stroke-linejoin="round" d=" M 322.370, 518.321 332.370, 518.321 335.012, 518.321 335.012, 518.321 345.012, 518.321 355.012, 518.321 365.012, 518.321 372.938, 518.321 372.938, 518.321 382.938, 518.321 392.938, 518.321 402.938, 518.321 412.938, 518.321 422.938, 518.321 432.938, 518.321 442.938, 518.321 452.938, 518.321 462.938, 518.321 472.938, 518.321 482.938, 518.321 492.938, 518.321 502.938, 518.321 512.938, 518.321 522.938, 518.321 532.938, 518.321 542.938, 518.321 552.938, 518.321 562.938, 518.321 572.938, 518.321 582.938, 518.321 592.938, 518.321 602.938, 518.321 612.938, 518.321 622.938, 518.321 632.938, 518.321 642.938, 518.321 652.938, 518.321 662.938, 518.321 672.938, 518.321 682.938, 518.321 692.938, 518.321 701.630, 518.321 701.630, 508.321 701.630, 498.321 701.630, 488.321 701.630, 478.321 701.630, 468.321 701.630, 458.321 701.630, 448.321 701.630, 442.469 " />
            <path fill="none" stroke-width="1.5" stroke-linecap="round" stroke-opacity="1.0" stroke="rgb(0, 0, 0)" stroke-linejoin="round" d=" M 701.630, 442.469 691.630, 442.469 681.630, 442.469 671.630, 442.469 661.630, 442.469 651.630, 442.469 641.630, 442.469 631.630, 442.469 621.630, 442.469 611.630, 442.469 601.630, 442.469 591.630, 442.469 581.630, 442.469 571.630, 442.469 561.630, 442.469 551.630, 442.469 541.630, 442.469 531.630, 442.469 521.630, 442.469 511.630, 442.469 501.630, 442.469 491.630, 442.469 481.630, 442.469 471.630, 442.469 461.630, 442.469 451.630, 442.469 441.630, 442.469 431.630, 442.469 421.630, 442.469 411.630, 442.469 401.630, 442.469 391.630, 442.469 381.630, 442.469 372.938, 442.469 372.938, 442.469 362.938, 442.469 352.938, 442.469 342.938, 442.469 335.012, 442.469 335.012, 442.469 325.012, 442.469 322.370, 442.469 322.370, 452.469 322.370, 462.469 322.370, 472.469 322.370, 482.469 322.370, 492.469 322.370, 502.469 322.370, 512.469 322.370, 518.321 322.370, 518.321 " />
            <path fill="none" stroke-width="1.5" stroke-linecap="round" stroke-opacity="1.0" stroke="rgb(0, 0, 0)" stroke-linejoin="round" d=" M 372.938, 552.296 372.938, 552.296 382.938, 552.296 392.938, 552.296 402.938, 552.296 412.938, 552.296 422.938, 552.296 432.938, 552.296 442.938, 552.296 452.938, 552.296 462.938, 552.296 472.938, 552.296 482.938, 552.296 492.938, 552.296 502.938, 552.296 512.938, 552.296 522.938, 552.296 532.938, 552.296 542.938, 552.296 552.938, 552.296 562.938, 552.296 572.938, 552.296 582.938, 552.296 592.938, 552.296 602.938, 552.296 612.938, 552.296 622.938, 552.296 632.938, 552.296 642.938, 552.296 652.938, 552.296 662.938, 552.296 668.445, 552.296 668.445, 542.296 668.445, 534.914 668.444, 534.914 658.444, 534.914 648.444, 534.914 638.444, 534.914 628.444, 534.914 618.444, 534.914 608.444, 534.914 598.444, 534.914 588.444, 534.914 578.444, 534.914 568.444, 534.914 558.444, 534.914 548.444, 534.914 538.444, 534.914 528.444, 534.914 518.444, 534.914 508.444, 534.914 498.444, 534.914 488.444, 534.914 478.444, 534.914 468.444, 534.914 458.444, 534.914 448.444, 534.914 438.444, 534.914 428.444, 534.914 418.444, 534.914 408.444, 534.914 398.444, 534.914 388.444, 534.914 378.444, 534.914 372.938, 534.914 372.938, 534.914 " />
            <path fill="none" stroke-width="1.5" stroke-linecap="round" stroke-opacity="1.0" stroke="rgb(0, 0, 0)" stroke-linejoin="round" d=" M 668.444, 534.914 668.444, 544.914 668.444, 552.296 " />
            <path fill="none" stroke-width="1.5" stroke-linecap="round" stroke-opacity="1.0" stroke="rgb(0, 0, 0)" stroke-linejoin="round" d=" M 372.938, 552.296 382.938, 552.296 392.938, 552.296 402.938, 552.296 412.938, 552.296 422.938, 552.296 432.938, 552.296 442.938, 552.296 452.938, 552.296 462.938, 552.296 472.938, 552.296 482.938, 552.296 492.938, 552.296 502.938, 552.296 512.938, 552.296 522.938, 552.296 532.938, 552.296 542.938, 552.296 552.938, 552.296 562.938, 552.296 572.938, 552.296 582.938, 552.296 592.938, 552.296 602.938, 552.296 612.938, 552.296 622.938, 552.296 632.938, 552.296 642.938, 552.296 652.938, 552.296 662.938, 552.296 668.444, 552.296 668.445, 552.296 " />
            <path fill="none" stroke-width="1.5" stroke-linecap="round" stroke-opacity="1.0" stroke="rgb(0, 0, 0)" stroke-linejoin="round" d=" M 322.370, 518.321 322.370, 518.321 " />
            <path fill="none" stroke-width="1.5" stroke-linecap="round" stroke-opacity="1.0" stroke="rgb(0, 0, 0)" stroke-linejoin="round" d=" M 335.012, 518.321 335.012, 518.321 " />
            <path fill="none" stroke-width="1.5" stroke-linecap="round" stroke-opacity="1.0" stroke="rgb(0, 0, 0)" stroke-linejoin="round" d=" M 372.938, 518.321 372.938, 518.321 372.938, 528.321 372.938, 534.914 372.938, 544.914 372.938, 552.296 372.938, 556.247 372.938, 566.247 372.938, 576.247 372.938, 586.247 372.938, 594.173 372.938, 604.173 372.938, 606.815 " />
            <path fill="none" stroke-width="1.5" stroke-linecap="round" stroke-opacity="1.0" stroke="rgb(0, 0, 0)" stroke-linejoin="round" d=" M 372.938, 534.914 372.938, 524.914 372.938, 518.321 " />
            <path fill="none" stroke-width="1.5" stroke-linecap="round" stroke-opacity="1.0" stroke="rgb(0, 0, 0)" stroke-linejoin="round" d=" M 372.938, 556.247 372.938, 552.296 " />
            <path fill="none" stroke-width="1.5" stroke-linecap="round" stroke-opacity="1.0" stroke="rgb(0, 0, 0)" stroke-linejoin="round" d=" M 701.630, 442.469 701.630, 442.469 " />
            <path fill="none" stroke-width="1.5" stroke-linecap="round" stroke-opacity="1.0" stroke="rgb(0, 0, 0)" stroke-linejoin="round" d=" M 417.185, 594.173 427.185, 594.173 437.185, 594.173 447.185, 594.173 457.185, 594.173 467.185, 594.173 477.185, 594.173 487.185, 594.173 497.185, 594.173 507.185, 594.173 517.185, 594.173 527.185, 594.173 537.185, 594.173 547.185, 594.173 557.185, 594.173 567.185, 594.173 577.185, 594.173 587.185, 594.173 597.185, 594.173 606.815, 594.173 " />
            <path fill="none" stroke-width="1.5" stroke-linecap="round" stroke-opacity="1.0" stroke="rgb(0, 0, 0)" stroke-linejoin="round" d=" M 372.938, 594.173 372.938, 594.173 382.938, 594.173 385.580, 594.173 " />
            <path fill="none" stroke-width="1.5" stroke-linecap="round" stroke-opacity="1.0" stroke="rgb(0, 0, 0)" stroke-linejoin="round" d=" M 372.938, 518.321 372.938, 518.321 382.938, 518.321 392.938, 518.321 402.938, 518.321 412.938, 518.321 422.938, 518.321 432.938, 518.321 442.938, 518.321 452.938, 518.321 462.938, 518.321 472.938, 518.321 482.938, 518.321 492.938, 518.321 502.938, 518.321 512.938, 518.321 522.938, 518.321 532.938, 518.321 542.938, 518.321 552.938, 518.321 562.938, 518.321 572.938, 518.321 582.938, 518.321 592.938, 518.321 602.938, 518.321 612.938, 518.321 622.938, 518.321 632.938, 518.321 642.938, 518.321 652.938, 518.321 662.938, 518.321 672.938, 518.321 682.938, 518.321 692.938, 518.321 701.630, 518.321 " />
            <path fill="none" stroke-width="1.5" stroke-linecap="round" stroke-opacity="1.0" stroke="rgb(0, 0, 0)" stroke-linejoin="round" d=" M 322.370, 518.321 332.370, 518.321 335.012, 518.321 " />
            <path fill="none" stroke-width="1.5" stroke-linecap="round" stroke-opacity="1.0" stroke="rgb(0, 0, 0)" stroke-linejoin="round" d=" M 701.630, 442.469 701.630, 442.469 " />
        </g>
    </g>
    <g id="ViewLayer_TechnicalLines.004" xmlns:inkscape="http://www.inkscape.org/namespaces/inkscape" inkscape:groupmode="lineset" inkscape:label="ViewLayer_TechnicalLines.004">
        <g xmlns:inkscape="http://www.inkscape.org/namespaces/inkscape" inkscape:groupmode="layer" id="strokes" inkscape:label="strokes">
            <path fill="none" stroke-width="1.5" stroke-linecap="round" stroke-opacity="1.0" stroke="rgb(0, 0, 0)" stroke-linejoin="round" d=" M 417.185, 796.445 417.185, 786.445 417.185, 776.445 417.185, 766.445 417.185, 756.445 417.185, 746.445 417.185, 736.445 417.185, 726.445 417.185, 716.445 417.185, 706.445 417.185, 696.445 417.185, 686.445 417.185, 676.445 417.185, 666.445 417.185, 656.445 417.185, 646.445 417.185, 636.445 417.185, 626.445 417.185, 616.445 417.185, 606.445 417.185, 596.445 417.185, 594.173 417.185, 594.173 " />
            <path fill="none" stroke-width="1.5" stroke-linecap="round" stroke-opacity="1.0" stroke="rgb(0, 0, 0)" stroke-linejoin="round" d=" M 385.580, 594.173 385.580, 594.173 385.580, 604.173 385.580, 614.173 385.580, 624.173 385.580, 634.173 385.580, 644.173 385.580, 654.173 385.580, 664.173 385.580, 674.173 385.580, 684.173 385.580, 694.173 385.580, 704.173 385.580, 714.173 385.580, 724.173 385.580, 734.173 385.580, 744.173 385.580, 754.173 385.580, 764.173 385.580, 774.173 385.580, 784.173 385.580, 794.173 385.580, 796.445 385.580, 796.445 385.884, 796.445 386.783, 796.445 388.243, 796.445 390.209, 796.445 392.603, 796.445 395.335, 796.445 398.300, 796.445 401.383, 796.445 404.466, 796.445 407.430, 796.445 410.162, 796.445 412.557, 796.445 414.522, 796.445 415.982, 796.445 416.882, 796.445 417.185, 796.445 417.185, 786.445 417.185, 776.445 417.185, 766.445 417.185, 756.445 417.185, 746.445 417.185, 736.445 417.185, 726.445 417.185, 716.445 417.185, 706.445 417.185, 696.445 417.185, 686.445 417.185, 676.445 417.185, 666.445 417.185, 656.445 417.185, 646.445 417.185, 636.445 417.185, 626.445 417.185, 616.445 417.185, 606.445 417.185, 596.445 417.185, 594.173 417.185, 594.173 " />
            <path fill="none" stroke-width="1.5" stroke-linecap="round" stroke-opacity="1.0" stroke="rgb(0, 0, 0)" stroke-linejoin="round" d=" M 638.420, 796.445 638.420, 786.445 638.420, 776.445 638.420, 766.445 638.420, 756.445 638.420, 746.445 638.420, 736.445 638.420, 726.445 638.420, 716.445 638.420, 706.445 638.420, 696.445 638.420, 686.445 638.420, 676.445 638.420, 666.445 638.420, 656.445 638.420, 646.445 638.420, 636.445 638.420, 626.445 638.420, 616.445 638.420, 606.445 638.420, 596.445 638.420, 594.173 638.420, 594.173 " />
            <path fill="none" stroke-width="1.5" stroke-linecap="round" stroke-opacity="1.0" stroke="rgb(0, 0, 0)" stroke-linejoin="round" d=" M 606.815, 594.173 606.815, 594.173 606.815, 604.173 606.815, 614.173 606.815, 624.173 606.815, 634.173 606.815, 644.173 606.815, 654.173 606.815, 664.173 606.815, 674.173 606.815, 684.173 606.815, 694.173 606.815, 704.173 606.815, 714.173 606.815, 724.173 606.815, 734.173 606.815, 744.173 606.815, 754.173 606.815, 764.173 606.815, 774.173 606.815, 784.173 606.815, 794.173 606.815, 796.445 607.118, 796.445 608.018, 796.445 609.478, 796.445 611.443, 796.445 613.838, 796.445 616.570, 796.445 619.534, 796.445 622.617, 796.445 625.700, 796.445 628.665, 796.445 631.397, 796.445 633.791, 796.445 635.757, 796.445 637.217, 796.445 638.116, 796.445 638.420, 796.445 638.420, 786.445 638.420, 776.445 638.420, 766.445 638.420, 756.445 638.420, 746.445 638.420, 736.445 638.420, 726.445 638.420, 716.445 638.420, 706.445 638.420, 696.445 638.420, 686.445 638.420, 676.445 638.420, 666.445 638.420, 656.445 638.420, 646.445 638.420, 636.445 638.420, 626.445 638.420, 616.445 638.420, 606.445 638.420, 596.445 638.420, 594.173 638.420, 594.173 " />
            <path fill="none" stroke-width="1.5" stroke-linecap="round" stroke-opacity="1.0" stroke="rgb(0, 0, 0)" stroke-linejoin="round" d=" M 638.420, 594.173 648.420, 594.173 658.420, 594.173 668.420, 594.173 678.420, 594.173 688.420, 594.173 698.420, 594.173 701.630, 594.173 701.630, 594.173 701.630, 584.173 701.630, 574.173 701.630, 564.173 701.630, 556.247 701.630, 556.247 691.630, 556.247 681.630, 556.247 671.630, 556.247 661.630, 556.247 651.630, 556.247 641.630, 556.247 631.630, 556.247 621.630, 556.247 611.630, 556.247 601.630, 556.247 591.630, 556.247 581.630, 556.247 571.630, 556.247 561.630, 556.247 551.630, 556.247 541.630, 556.247 531.630, 556.247 521.630, 556.247 511.630, 556.247 501.630, 556.247 491.630, 556.247 481.630, 556.247 471.630, 556.247 461.630, 556.247 451.630, 556.247 441.630, 556.247 431.630, 556.247 421.630, 556.247 411.630, 556.247 401.630, 556.247 391.630, 556.247 381.630, 556.247 372.938, 556.247 372.938, 556.247 362.938, 556.247 352.938, 556.247 342.938, 556.247 335.012, 556.247 335.012, 556.247 325.012, 556.247 322.370, 556.247 322.370, 556.247 322.370, 566.247 322.370, 576.247 322.370, 586.247 322.370, 594.173 322.370, 594.173 332.370, 594.173 335.012, 594.173 " />
            <path fill="none" stroke-width="1.5" stroke-linecap="round" stroke-opacity="1.0" stroke="rgb(0, 0, 0)" stroke-linejoin="round" d=" M 322.370, 594.173 332.370, 594.173 335.012, 594.173 345.012, 594.173 355.012, 594.173 365.012, 594.173 372.938, 594.173 382.938, 594.173 385.580, 594.173 385.580, 594.173 395.580, 594.173 405.580, 594.173 415.580, 594.173 417.185, 594.173 417.185, 594.173 427.185, 594.173 437.185, 594.173 447.185, 594.173 457.185, 594.173 467.185, 594.173 477.185, 594.173 487.185, 594.173 497.185, 594.173 507.185, 594.173 517.185, 594.173 527.185, 594.173 537.185, 594.173 547.185, 594.173 557.185, 594.173 567.185, 594.173 577.185, 594.173 587.185, 594.173 597.185, 594.173 606.815, 594.173 606.815, 594.173 616.815, 594.173 626.815, 594.173 636.815, 594.173 638.420, 594.173 638.420, 594.173 648.420, 594.173 658.420, 594.173 668.420, 594.173 678.420, 594.173 688.420, 594.173 698.420, 594.173 701.630, 594.173 " />
            <path fill="none" stroke-width="1.5" stroke-linecap="round" stroke-opacity="1.0" stroke="rgb(0, 0, 0)" stroke-linejoin="round" d=" M 335.012, 518.321 335.012, 528.321 335.012, 538.321 335.012, 548.321 335.012, 556.247 335.012, 556.247 335.012, 566.247 335.012, 576.247 335.012, 586.247 335.012, 594.173 335.012, 594.173 335.012, 604.173 335.012, 606.815 335.012, 606.815 345.012, 606.815 355.012, 606.815 365.012, 606.815 372.938, 606.815 372.938, 606.815 372.938, 596.815 372.938, 594.173 372.938, 594.173 " />
            <path fill="none" stroke-width="1.5" stroke-linecap="round" stroke-opacity="1.0" stroke="rgb(0, 0, 0)" stroke-linejoin="round" d=" M 372.938, 442.469 372.938, 432.469 372.938, 422.469 372.938, 412.469 372.938, 402.469 372.938, 392.469 372.938, 382.469 372.938, 372.469 372.938, 362.469 372.938, 352.469 372.938, 342.469 372.938, 332.469 372.938, 322.469 372.938, 312.469 372.938, 302.469 372.938, 292.469 372.938, 282.469 372.938, 272.469 372.938, 262.469 372.938, 252.469 372.938, 242.469 372.938, 232.469 372.938, 227.556 372.938, 227.556 362.938, 227.556 352.938, 227.556 342.938, 227.556 335.012, 227.556 335.012, 227.556 335.012, 237.556 335.012, 247.556 335.012, 257.556 335.012, 267.556 335.012, 277.556 335.012, 287.556 335.012, 297.556 335.012, 307.556 335.012, 317.556 335.012, 327.556 335.012, 337.556 335.012, 347.556 335.012, 357.556 335.012, 367.556 335.012, 377.556 335.012, 387.556 335.012, 397.556 335.012, 407.556 335.012, 417.556 335.012, 427.556 335.012, 437.556 335.012, 442.469 " />
            <path fill="none" stroke-width="1.5" stroke-linecap="round" stroke-opacity="1.0" stroke="rgb(0, 0, 0)" stroke-linejoin="round" d=" M 372.938, 227.556 372.938, 237.556 372.938, 247.556 372.938, 257.556 372.938, 267.556 372.938, 277.556 372.938, 287.556 372.938, 297.556 372.938, 307.556 372.938, 317.556 372.938, 327.556 372.938, 337.556 372.938, 347.556 372.938, 357.556 372.938, 367.556 372.938, 377.556 372.938, 387.556 372.938, 397.556 372.938, 407.556 372.938, 417.556 372.938, 427.556 372.938, 437.556 372.938, 442.469 " />
            <path fill="none" stroke-width="1.5" stroke-linecap="round" stroke-opacity="1.0" stroke="rgb(0, 0, 0)" stroke-linejoin="round" d=" M 701.630, 518.321 701.630, 508.321 701.630, 498.321 701.630, 488.321 701.630, 478.321 701.630, 468.321 701.630, 458.321 701.630, 448.321 701.630, 442.469 " />
            <path fill="none" stroke-width="1.5" stroke-linecap="round" stroke-opacity="1.0" stroke="rgb(0, 0, 0)" stroke-linejoin="round" d=" M 322.370, 518.321 332.370, 518.321 335.012, 518.321 335.012, 518.321 345.012, 518.321 355.012, 518.321 365.012, 518.321 372.938, 518.321 372.938, 518.321 382.938, 518.321 392.938, 518.321 402.938, 518.321 412.938, 518.321 422.938, 518.321 432.938, 518.321 442.938, 518.321 452.938, 518.321 462.938, 518.321 472.938, 518.321 482.938, 518.321 492.938, 518.321 502.938, 518.321 512.938, 518.321 522.938, 518.321 532.938, 518.321 542.938, 518.321 552.938, 518.321 562.938, 518.321 572.938, 518.321 582.938, 518.321 592.938, 518.321 602.938, 518.321 612.938, 518.321 622.938, 518.321 632.938, 518.321 642.938, 518.321 652.938, 518.321 662.938, 518.321 672.938, 518.321 682.938, 518.321 692.938, 518.321 701.630, 518.321 701.630, 508.321 701.630, 498.321 701.630, 488.321 701.630, 478.321 701.630, 468.321 701.630, 458.321 701.630, 448.321 701.630, 442.469 " />
            <path fill="none" stroke-width="1.5" stroke-linecap="round" stroke-opacity="1.0" stroke="rgb(0, 0, 0)" stroke-linejoin="round" d=" M 701.630, 442.469 691.630, 442.469 681.630, 442.469 671.630, 442.469 661.630, 442.469 651.630, 442.469 641.630, 442.469 631.630, 442.469 621.630, 442.469 611.630, 442.469 601.630, 442.469 591.630, 442.469 581.630, 442.469 571.630, 442.469 561.630, 442.469 551.630, 442.469 541.630, 442.469 531.630, 442.469 521.630, 442.469 511.630, 442.469 501.630, 442.469 491.630, 442.469 481.630, 442.469 471.630, 442.469 461.630, 442.469 451.630, 442.469 441.630, 442.469 431.630, 442.469 421.630, 442.469 411.630, 442.469 401.630, 442.469 391.630, 442.469 381.630, 442.469 372.938, 442.469 372.938, 442.469 362.938, 442.469 352.938, 442.469 342.938, 442.469 335.012, 442.469 335.012, 442.469 325.012, 442.469 322.370, 442.469 322.370, 452.469 322.370, 462.469 322.370, 472.469 322.370, 482.469 322.370, 492.469 322.370, 502.469 322.370, 512.469 322.370, 518.321 322.370, 518.321 " />
            <path fill="none" stroke-width="1.5" stroke-linecap="round" stroke-opacity="1.0" stroke="rgb(0, 0, 0)" stroke-linejoin="round" d=" M 372.938, 552.296 372.938, 552.296 382.938, 552.296 392.938, 552.296 402.938, 552.296 412.938, 552.296 422.938, 552.296 432.938, 552.296 442.938, 552.296 452.938, 552.296 462.938, 552.296 472.938, 552.296 482.938, 552.296 492.938, 552.296 502.938, 552.296 512.938, 552.296 522.938, 552.296 532.938, 552.296 542.938, 552.296 552.938, 552.296 562.938, 552.296 572.938, 552.296 582.938, 552.296 592.938, 552.296 602.938, 552.296 612.938, 552.296 622.938, 552.296 632.938, 552.296 642.938, 552.296 652.938, 552.296 662.938, 552.296 668.445, 552.296 668.445, 542.296 668.445, 534.914 668.444, 534.914 658.444, 534.914 648.444, 534.914 638.444, 534.914 628.444, 534.914 618.444, 534.914 608.444, 534.914 598.444, 534.914 588.444, 534.914 578.444, 534.914 568.444, 534.914 558.444, 534.914 548.444, 534.914 538.444, 534.914 528.444, 534.914 518.444, 534.914 508.444, 534.914 498.444, 534.914 488.444, 534.914 478.444, 534.914 468.444, 534.914 458.444, 534.914 448.444, 534.914 438.444, 534.914 428.444, 534.914 418.444, 534.914 408.444, 534.914 398.444, 534.914 388.444, 534.914 378.444, 534.914 372.938, 534.914 372.938, 534.914 " />
            <path fill="none" stroke-width="1.5" stroke-linecap="round" stroke-opacity="1.0" stroke="rgb(0, 0, 0)" stroke-linejoin="round" d=" M 668.444, 534.914 668.444, 544.914 668.444, 552.296 " />
            <path fill="none" stroke-width="1.5" stroke-linecap="round" stroke-opacity="1.0" stroke="rgb(0, 0, 0)" stroke-linejoin="round" d=" M 372.938, 552.296 382.938, 552.296 392.938, 552.296 402.938, 552.296 412.938, 552.296 422.938, 552.296 432.938, 552.296 442.938, 552.296 452.938, 552.296 462.938, 552.296 472.938, 552.296 482.938, 552.296 492.938, 552.296 502.938, 552.296 512.938, 552.296 522.938, 552.296 532.938, 552.296 542.938, 552.296 552.938, 552.296 562.938, 552.296 572.938, 552.296 582.938, 552.296 592.938, 552.296 602.938, 552.296 612.938, 552.296 622.938, 552.296 632.938, 552.296 642.938, 552.296 652.938, 552.296 662.938, 552.296 668.444, 552.296 668.445, 552.296 " />
            <path fill="none" stroke-width="1.5" stroke-linecap="round" stroke-opacity="1.0" stroke="rgb(0, 0, 0)" stroke-linejoin="round" d=" M 322.370, 518.321 322.370, 518.321 " />
            <path fill="none" stroke-width="1.5" stroke-linecap="round" stroke-opacity="1.0" stroke="rgb(0, 0, 0)" stroke-linejoin="round" d=" M 335.012, 518.321 335.012, 518.321 " />
            <path fill="none" stroke-width="1.5" stroke-linecap="round" stroke-opacity="1.0" stroke="rgb(0, 0, 0)" stroke-linejoin="round" d=" M 372.938, 518.321 372.938, 518.321 372.938, 528.321 372.938, 534.914 372.938, 544.914 372.938, 552.296 372.938, 556.247 372.938, 566.247 372.938, 576.247 372.938, 586.247 372.938, 594.173 372.938, 604.173 372.938, 606.815 " />
            <path fill="none" stroke-width="1.5" stroke-linecap="round" stroke-opacity="1.0" stroke="rgb(0, 0, 0)" stroke-linejoin="round" d=" M 372.938, 534.914 372.938, 524.914 372.938, 518.321 " />
            <path fill="none" stroke-width="1.5" stroke-linecap="round" stroke-opacity="1.0" stroke="rgb(0, 0, 0)" stroke-linejoin="round" d=" M 372.938, 556.247 372.938, 552.296 " />
            <path fill="none" stroke-width="1.5" stroke-linecap="round" stroke-opacity="1.0" stroke="rgb(0, 0, 0)" stroke-linejoin="round" d=" M 701.630, 442.469 701.630, 442.469 " />
            <path fill="none" stroke-width="1.5" stroke-linecap="round" stroke-opacity="1.0" stroke="rgb(0, 0, 0)" stroke-linejoin="round" d=" M 417.185, 594.173 427.185, 594.173 437.185, 594.173 447.185, 594.173 457.185, 594.173 467.185, 594.173 477.185, 594.173 487.185, 594.173 497.185, 594.173 507.185, 594.173 517.185, 594.173 527.185, 594.173 537.185, 594.173 547.185, 594.173 557.185, 594.173 567.185, 594.173 577.185, 594.173 587.185, 594.173 597.185, 594.173 606.815, 594.173 " />
            <path fill="none" stroke-width="1.5" stroke-linecap="round" stroke-opacity="1.0" stroke="rgb(0, 0, 0)" stroke-linejoin="round" d=" M 372.938, 594.173 372.938, 594.173 382.938, 594.173 385.580, 594.173 " />
            <path fill="none" stroke-width="1.5" stroke-linecap="round" stroke-opacity="1.0" stroke="rgb(0, 0, 0)" stroke-linejoin="round" d=" M 372.938, 518.321 372.938, 518.321 382.938, 518.321 392.938, 518.321 402.938, 518.321 412.938, 518.321 422.938, 518.321 432.938, 518.321 442.938, 518.321 452.938, 518.321 462.938, 518.321 472.938, 518.321 482.938, 518.321 492.938, 518.321 502.938, 518.321 512.938, 518.321 522.938, 518.321 532.938, 518.321 542.938, 518.321 552.938, 518.321 562.938, 518.321 572.938, 518.321 582.938, 518.321 592.938, 518.321 602.938, 518.321 612.938, 518.321 622.938, 518.321 632.938, 518.321 642.938, 518.321 652.938, 518.321 662.938, 518.321 672.938, 518.321 682.938, 518.321 692.938, 518.321 701.630, 518.321 " />
            <path fill="none" stroke-width="1.5" stroke-linecap="round" stroke-opacity="1.0" stroke="rgb(0, 0, 0)" stroke-linejoin="round" d=" M 322.370, 518.321 332.370, 518.321 335.012, 518.321 " />
            <path fill="none" stroke-width="1.5" stroke-linecap="round" stroke-opacity="1.0" stroke="rgb(0, 0, 0)" stroke-linejoin="round" d=" M 701.630, 442.469 701.630, 442.469 " />
        </g>
    </g>
</svg>
