<?xml version='1.0' encoding='ascii'?>
<svg xmlns="http://www.w3.org/2000/svg" xmlns:inkscape="http://www.inkscape.org/namespaces/inkscape" version="1.1" width="1024" height="1024">
    <g id="ViewLayer_LineSet" inkscape:groupmode="lineset" inkscape:label="ViewLayer_LineSet">
        <g inkscape:groupmode="layer" id="strokes" inkscape:label="strokes">
            <path fill="none" stroke-width="3.0" stroke-linecap="butt" stroke-opacity="1.0" stroke="rgb(0, 0, 0)" stroke-linejoin="round" d=" M 322.370, 701.630 332.370, 701.630 342.370, 701.630 352.370, 701.630 362.370, 701.630 372.370, 701.630 382.370, 701.630 392.370, 701.630 402.370, 701.630 412.370, 701.630 422.370, 701.630 432.370, 701.630 442.370, 701.630 452.370, 701.630 462.370, 701.630 472.370, 701.630 482.370, 701.630 492.370, 701.630 502.370, 701.630 512.370, 701.630 522.370, 701.630 532.370, 701.630 542.370, 701.630 552.370, 701.630 562.370, 701.630 572.370, 701.630 582.370, 701.630 592.370, 701.630 602.370, 701.630 612.370, 701.630 622.370, 701.630 632.370, 701.630 642.370, 701.630 652.370, 701.630 662.370, 701.630 672.370, 701.630 682.370, 701.630 692.370, 701.630 701.630, 701.630 " />
            <path fill="none" stroke-width="3.0" stroke-linecap="butt" stroke-opacity="1.0" stroke="rgb(0, 0, 0)" stroke-linejoin="round" d=" M 341.333, 651.062 331.333, 651.062 322.370, 651.062 322.370, 661.062 322.370, 671.062 322.370, 681.062 322.370, 688.988 " />
            <path fill="none" stroke-width="3.0" stroke-linecap="butt" stroke-opacity="1.0" stroke="rgb(0, 0, 0)" stroke-linejoin="round" d=" M 701.630, 688.988 701.630, 678.988 701.630, 668.988 701.630, 658.988 701.630, 651.062 " />
            <path fill="none" stroke-width="3.0" stroke-linecap="butt" stroke-opacity="1.0" stroke="rgb(0, 0, 0)" stroke-linejoin="round" d=" M 341.333, 701.630 341.333, 691.630 341.333, 688.988 " />
            <path fill="none" stroke-width="3.0" stroke-linecap="butt" stroke-opacity="1.0" stroke="rgb(0, 0, 0)" stroke-linejoin="round" d=" M 720.593, 701.630 720.593, 691.630 720.593, 681.630 720.593, 671.630 720.593, 661.630 720.593, 651.630 720.593, 641.630 720.593, 631.630 720.593, 621.630 720.593, 611.630 720.593, 601.630 720.593, 591.630 720.593, 581.630 720.593, 571.630 720.593, 561.630 720.593, 551.630 720.593, 541.630 720.593, 531.630 720.593, 521.630 720.593, 511.630 720.593, 501.630 720.593, 491.630 720.593, 481.630 720.593, 471.630 720.593, 461.630 720.593, 451.630 720.593, 441.630 720.593, 431.630 720.593, 421.630 720.593, 411.630 720.593, 401.630 720.593, 391.630 720.593, 381.630 720.593, 371.630 720.593, 361.630 720.593, 351.630 720.593, 341.630 720.593, 331.630 720.593, 322.370 " />
            <path fill="none" stroke-width="3.0" stroke-linecap="butt" stroke-opacity="1.0" stroke="rgb(0, 0, 0)" stroke-linejoin="round" d=" M 303.407, 322.370 303.407, 332.370 303.407, 342.370 303.407, 352.370 303.407, 362.370 303.407, 372.370 303.407, 382.370 303.407, 392.370 303.407, 402.370 303.407, 412.370 303.407, 422.370 303.407, 432.370 303.407, 442.370 303.407, 452.370 303.407, 462.370 303.407, 472.370 303.407, 482.370 303.407, 492.370 303.407, 502.370 303.407, 512.370 303.407, 522.370 303.407, 532.370 303.407, 542.370 303.407, 552.370 303.407, 562.370 303.407, 572.370 303.407, 582.370 303.407, 592.370 303.407, 602.370 303.407, 612.370 303.407, 622.370 303.407, 632.370 303.407, 642.370 303.407, 652.370 303.407, 662.370 303.407, 672.370 303.407, 682.370 303.407, 692.370 303.407, 701.630 " />
            <path fill="none" stroke-width="3.0" stroke-linecap="butt" stroke-opacity="1.0" stroke="rgb(0, 0, 0)" stroke-linejoin="round" d=" M 322.370, 701.630 332.370, 701.630 341.333, 701.630 " />
            <path fill="none" stroke-width="3.0" stroke-linecap="butt" stroke-opacity="1.0" stroke="rgb(0, 0, 0)" stroke-linejoin="round" d=" M 303.407, 701.630 313.407, 701.630 322.370, 701.630 " />
            <path fill="none" stroke-width="3.0" stroke-linecap="butt" stroke-opacity="1.0" stroke="rgb(0, 0, 0)" stroke-linejoin="round" d=" M 322.370, 322.370 312.370, 322.370 303.407, 322.370 " />
            <path fill="none" stroke-width="3.0" stroke-linecap="butt" stroke-opacity="1.0" stroke="rgb(0, 0, 0)" stroke-linejoin="round" d=" M 341.333, 322.370 331.333, 322.370 322.370, 322.370 " />
            <path fill="none" stroke-width="3.0" stroke-linecap="butt" stroke-opacity="1.0" stroke="rgb(0, 0, 0)" stroke-linejoin="round" d=" M 341.333, 651.062 341.333, 641.062 341.333, 631.062 341.333, 621.062 341.333, 611.062 341.333, 601.062 341.333, 591.062 341.333, 581.062 341.333, 571.062 341.333, 561.062 341.333, 551.062 341.333, 541.062 341.333, 531.062 341.333, 521.062 341.333, 511.062 341.333, 501.062 341.333, 491.062 341.333, 481.062 341.333, 471.062 341.333, 461.062 341.333, 451.062 341.333, 441.062 341.333, 431.062 341.333, 421.062 341.333, 411.062 341.333, 401.062 341.333, 391.062 341.333, 381.062 341.333, 371.062 341.333, 361.062 341.333, 351.062 341.333, 341.062 341.333, 331.062 341.333, 322.370 " />
            <path fill="none" stroke-width="3.0" stroke-linecap="butt" stroke-opacity="1.0" stroke="rgb(0, 0, 0)" stroke-linejoin="round" d=" M 355.556, 355.556 355.556, 365.556 355.556, 375.556 355.556, 385.556 355.556, 395.556 355.556, 405.556 355.556, 415.556 355.556, 425.556 355.556, 435.556 355.556, 445.556 355.556, 455.556 355.556, 465.556 355.556, 475.556 355.556, 485.556 355.556, 495.556 355.556, 505.556 355.556, 515.556 355.556, 525.556 355.556, 535.556 355.556, 545.556 355.556, 555.556 355.556, 565.556 355.556, 575.556 355.556, 585.556 355.556, 595.556 355.556, 605.556 355.556, 615.556 355.556, 625.556 355.556, 635.556 355.556, 645.556 355.556, 651.062 " />
            <path fill="none" stroke-width="3.0" stroke-linecap="butt" stroke-opacity="1.0" stroke="rgb(0, 0, 0)" stroke-linejoin="round" d=" M 668.444, 355.556 658.444, 355.556 648.444, 355.556 638.444, 355.556 628.444, 355.556 618.444, 355.556 608.444, 355.556 598.444, 355.556 588.444, 355.556 578.444, 355.556 568.444, 355.556 558.444, 355.556 548.444, 355.556 538.444, 355.556 528.444, 355.556 518.444, 355.556 508.444, 355.556 498.444, 355.556 488.444, 355.556 478.444, 355.556 468.444, 355.556 458.444, 355.556 448.444, 355.556 438.444, 355.556 428.444, 355.556 418.444, 355.556 408.444, 355.556 398.444, 355.556 388.444, 355.556 378.444, 355.556 368.444, 355.556 355.556, 355.556 " />
            <path fill="none" stroke-width="3.0" stroke-linecap="butt" stroke-opacity="1.0" stroke="rgb(0, 0, 0)" stroke-linejoin="round" d=" M 668.444, 651.062 668.444, 641.062 668.444, 631.062 668.444, 621.062 668.444, 611.062 668.444, 601.062 668.444, 591.062 668.444, 581.062 668.444, 571.062 668.444, 561.062 668.444, 551.062 668.444, 541.062 668.444, 531.062 668.444, 521.062 668.444, 511.062 668.444, 501.062 668.444, 491.062 668.444, 481.062 668.444, 471.062 668.444, 461.062 668.444, 451.062 668.444, 441.062 668.444, 431.062 668.444, 421.062 668.444, 411.062 668.444, 401.062 668.444, 391.062 668.444, 381.062 668.444, 371.062 668.444, 361.062 668.444, 355.556 " />
            <path fill="none" stroke-width="3.0" stroke-linecap="butt" stroke-opacity="1.0" stroke="rgb(0, 0, 0)" stroke-linejoin="round" d=" M 682.667, 688.988 682.667, 698.988 682.667, 701.630 " />
            <path fill="none" stroke-width="3.0" stroke-linecap="butt" stroke-opacity="1.0" stroke="rgb(0, 0, 0)" stroke-linejoin="round" d=" M 682.667, 322.370 682.667, 332.370 682.667, 342.370 682.667, 352.370 682.667, 362.370 682.667, 372.370 682.667, 382.370 682.667, 392.370 682.667, 402.370 682.667, 412.370 682.667, 422.370 682.667, 432.370 682.667, 442.370 682.667, 452.370 682.667, 462.370 682.667, 472.370 682.667, 482.370 682.667, 492.370 682.667, 502.370 682.667, 512.370 682.667, 522.370 682.667, 532.370 682.667, 542.370 682.667, 552.370 682.667, 562.370 682.667, 572.370 682.667, 582.370 682.667, 592.370 682.667, 602.370 682.667, 612.370 682.667, 622.370 682.667, 632.370 682.667, 642.370 682.667, 651.062 " />
            <path fill="none" stroke-width="3.0" stroke-linecap="butt" stroke-opacity="1.0" stroke="rgb(0, 0, 0)" stroke-linejoin="round" d=" M 682.667, 688.988 692.667, 688.988 701.630, 688.988 " />
            <path fill="none" stroke-width="3.0" stroke-linecap="butt" stroke-opacity="1.0" stroke="rgb(0, 0, 0)" stroke-linejoin="round" d=" M 341.333, 688.988 351.333, 688.988 361.333, 688.988 371.333, 688.988 381.333, 688.988 391.333, 688.988 401.333, 688.988 411.333, 688.988 421.333, 688.988 431.333, 688.988 441.333, 688.988 451.333, 688.988 461.333, 688.988 471.333, 688.988 481.333, 688.988 491.333, 688.988 501.333, 688.988 511.333, 688.988 521.333, 688.988 531.333, 688.988 541.333, 688.988 551.333, 688.988 561.333, 688.988 571.333, 688.988 581.333, 688.988 591.333, 688.988 601.333, 688.988 611.333, 688.988 621.333, 688.988 631.333, 688.988 641.333, 688.988 651.333, 688.988 661.333, 688.988 671.333, 688.988 682.667, 688.988 " />
            <path fill="none" stroke-width="3.0" stroke-linecap="butt" stroke-opacity="1.0" stroke="rgb(0, 0, 0)" stroke-linejoin="round" d=" M 322.370, 688.988 332.370, 688.988 341.333, 688.988 " />
            <path fill="none" stroke-width="3.0" stroke-linecap="butt" stroke-opacity="1.0" stroke="rgb(0, 0, 0)" stroke-linejoin="round" d=" M 355.556, 651.062 345.556, 651.062 341.333, 651.062 " />
            <path fill="none" stroke-width="3.0" stroke-linecap="butt" stroke-opacity="1.0" stroke="rgb(0, 0, 0)" stroke-linejoin="round" d=" M 668.444, 651.062 658.444, 651.062 648.444, 651.062 638.444, 651.062 628.444, 651.062 618.444, 651.062 608.444, 651.062 598.444, 651.062 588.444, 651.062 578.444, 651.062 568.444, 651.062 558.444, 651.062 548.444, 651.062 538.444, 651.062 528.444, 651.062 518.444, 651.062 508.444, 651.062 498.444, 651.062 488.444, 651.062 478.444, 651.062 468.444, 651.062 458.444, 651.062 448.444, 651.062 438.444, 651.062 428.444, 651.062 418.444, 651.062 408.444, 651.062 398.444, 651.062 388.444, 651.062 378.444, 651.062 368.444, 651.062 355.556, 651.062 " />
            <path fill="none" stroke-width="3.0" stroke-linecap="butt" stroke-opacity="1.0" stroke="rgb(0, 0, 0)" stroke-linejoin="round" d=" M 682.667, 651.062 672.667, 651.062 668.444, 651.062 " />
            <path fill="none" stroke-width="3.0" stroke-linecap="butt" stroke-opacity="1.0" stroke="rgb(0, 0, 0)" stroke-linejoin="round" d=" M 701.630, 651.062 691.630, 651.062 682.667, 651.062 " />
            <path fill="none" stroke-width="3.0" stroke-linecap="butt" stroke-opacity="1.0" stroke="rgb(0, 0, 0)" stroke-linejoin="round" d=" M 682.667, 322.370 672.667, 322.370 662.667, 322.370 652.667, 322.370 642.667, 322.370 632.667, 322.370 622.667, 322.370 612.667, 322.370 602.667, 322.370 592.667, 322.370 582.667, 322.370 572.667, 322.370 562.667, 322.370 552.667, 322.370 542.667, 322.370 532.667, 322.370 522.667, 322.370 512.667, 322.370 502.667, 322.370 492.667, 322.370 482.667, 322.370 472.667, 322.370 462.667, 322.370 452.667, 322.370 442.667, 322.370 432.667, 322.370 422.667, 322.370 412.667, 322.370 402.667, 322.370 392.667, 322.370 382.667, 322.370 372.667, 322.370 362.667, 322.370 352.667, 322.370 341.333, 322.370 " />
            <path fill="none" stroke-width="3.0" stroke-linecap="butt" stroke-opacity="1.0" stroke="rgb(0, 0, 0)" stroke-linejoin="round" d=" M 701.630, 701.630 711.630, 701.630 720.593, 701.630 " />
            <path fill="none" stroke-width="3.0" stroke-linecap="butt" stroke-opacity="1.0" stroke="rgb(0, 0, 0)" stroke-linejoin="round" d=" M 682.667, 701.630 692.667, 701.630 701.630, 701.630 " />
            <path fill="none" stroke-width="3.0" stroke-linecap="butt" stroke-opacity="1.0" stroke="rgb(0, 0, 0)" stroke-linejoin="round" d=" M 701.630, 322.370 691.630, 322.370 682.667, 322.370 " />
            <path fill="none" stroke-width="3.0" stroke-linecap="butt" stroke-opacity="1.0" stroke="rgb(0, 0, 0)" stroke-linejoin="round" d=" M 720.593, 322.370 710.593, 322.370 701.630, 322.370 " />
        </g>
    </g>
    <g id="ViewLayer_TechnicalLines" inkscape:groupmode="lineset" inkscape:label="ViewLayer_TechnicalLines">
        <g inkscape:groupmode="layer" id="strokes" inkscape:label="strokes">
            <path fill="none" stroke-width="3.0" stroke-linecap="butt" stroke-opacity="1.0" stroke="rgb(0, 0, 0)" stroke-linejoin="round" d=" M 322.370, 701.630 332.370, 701.630 342.370, 701.630 352.370, 701.630 362.370, 701.630 372.370, 701.630 382.370, 701.630 392.370, 701.630 402.370, 701.630 412.370, 701.630 422.370, 701.630 432.370, 701.630 442.370, 701.630 452.370, 701.630 462.370, 701.630 472.370, 701.630 482.370, 701.630 492.370, 701.630 502.370, 701.630 512.370, 701.630 522.370, 701.630 532.370, 701.630 542.370, 701.630 552.370, 701.630 562.370, 701.630 572.370, 701.630 582.370, 701.630 592.370, 701.630 602.370, 701.630 612.370, 701.630 622.370, 701.630 632.370, 701.630 642.370, 701.630 652.370, 701.630 662.370, 701.630 672.370, 701.630 682.370, 701.630 692.370, 701.630 701.630, 701.630 " />
            <path fill="none" stroke-width="3.0" stroke-linecap="butt" stroke-opacity="1.0" stroke="rgb(0, 0, 0)" stroke-linejoin="round" d=" M 341.333, 651.062 331.333, 651.062 322.370, 651.062 322.370, 661.062 322.370, 671.062 322.370, 681.062 322.370, 688.988 " />
            <path fill="none" stroke-width="3.0" stroke-linecap="butt" stroke-opacity="1.0" stroke="rgb(0, 0, 0)" stroke-linejoin="round" d=" M 701.630, 688.988 701.630, 678.988 701.630, 668.988 701.630, 658.988 701.630, 651.062 " />
            <path fill="none" stroke-width="3.0" stroke-linecap="butt" stroke-opacity="1.0" stroke="rgb(0, 0, 0)" stroke-linejoin="round" d=" M 341.333, 701.630 341.333, 691.630 341.333, 688.988 " />
            <path fill="none" stroke-width="3.0" stroke-linecap="butt" stroke-opacity="1.0" stroke="rgb(0, 0, 0)" stroke-linejoin="round" d=" M 720.593, 701.630 720.593, 691.630 720.593, 681.630 720.593, 671.630 720.593, 661.630 720.593, 651.630 720.593, 641.630 720.593, 631.630 720.593, 621.630 720.593, 611.630 720.593, 601.630 720.593, 591.630 720.593, 581.630 720.593, 571.630 720.593, 561.630 720.593, 551.630 720.593, 541.630 720.593, 531.630 720.593, 521.630 720.593, 511.630 720.593, 501.630 720.593, 491.630 720.593, 481.630 720.593, 471.630 720.593, 461.630 720.593, 451.630 720.593, 441.630 720.593, 431.630 720.593, 421.630 720.593, 411.630 720.593, 401.630 720.593, 391.630 720.593, 381.630 720.593, 371.630 720.593, 361.630 720.593, 351.630 720.593, 341.630 720.593, 331.630 720.593, 322.370 " />
            <path fill="none" stroke-width="3.0" stroke-linecap="butt" stroke-opacity="1.0" stroke="rgb(0, 0, 0)" stroke-linejoin="round" d=" M 303.407, 322.370 303.407, 332.370 303.407, 342.370 303.407, 352.370 303.407, 362.370 303.407, 372.370 303.407, 382.370 303.407, 392.370 303.407, 402.370 303.407, 412.370 303.407, 422.370 303.407, 432.370 303.407, 442.370 303.407, 452.370 303.407, 462.370 303.407, 472.370 303.407, 482.370 303.407, 492.370 303.407, 502.370 303.407, 512.370 303.407, 522.370 303.407, 532.370 303.407, 542.370 303.407, 552.370 303.407, 562.370 303.407, 572.370 303.407, 582.370 303.407, 592.370 303.407, 602.370 303.407, 612.370 303.407, 622.370 303.407, 632.370 303.407, 642.370 303.407, 652.370 303.407, 662.370 303.407, 672.370 303.407, 682.370 303.407, 692.370 303.407, 701.630 " />
            <path fill="none" stroke-width="3.0" stroke-linecap="butt" stroke-opacity="1.0" stroke="rgb(0, 0, 0)" stroke-linejoin="round" d=" M 322.370, 701.630 332.370, 701.630 341.333, 701.630 " />
            <path fill="none" stroke-width="3.0" stroke-linecap="butt" stroke-opacity="1.0" stroke="rgb(0, 0, 0)" stroke-linejoin="round" d=" M 303.407, 701.630 313.407, 701.630 322.370, 701.630 " />
            <path fill="none" stroke-width="3.0" stroke-linecap="butt" stroke-opacity="1.0" stroke="rgb(0, 0, 0)" stroke-linejoin="round" d=" M 322.370, 322.370 312.370, 322.370 303.407, 322.370 " />
            <path fill="none" stroke-width="3.0" stroke-linecap="butt" stroke-opacity="1.0" stroke="rgb(0, 0, 0)" stroke-linejoin="round" d=" M 341.333, 322.370 331.333, 322.370 322.370, 322.370 " />
            <path fill="none" stroke-width="3.0" stroke-linecap="butt" stroke-opacity="1.0" stroke="rgb(0, 0, 0)" stroke-linejoin="round" d=" M 341.333, 651.062 341.333, 641.062 341.333, 631.062 341.333, 621.062 341.333, 611.062 341.333, 601.062 341.333, 591.062 341.333, 581.062 341.333, 571.062 341.333, 561.062 341.333, 551.062 341.333, 541.062 341.333, 531.062 341.333, 521.062 341.333, 511.062 341.333, 501.062 341.333, 491.062 341.333, 481.062 341.333, 471.062 341.333, 461.062 341.333, 451.062 341.333, 441.062 341.333, 431.062 341.333, 421.062 341.333, 411.062 341.333, 401.062 341.333, 391.062 341.333, 381.062 341.333, 371.062 341.333, 361.062 341.333, 351.062 341.333, 341.062 341.333, 331.062 341.333, 322.370 " />
            <path fill="none" stroke-width="3.0" stroke-linecap="butt" stroke-opacity="1.0" stroke="rgb(0, 0, 0)" stroke-linejoin="round" d=" M 355.556, 355.556 355.556, 365.556 355.556, 375.556 355.556, 385.556 355.556, 395.556 355.556, 405.556 355.556, 415.556 355.556, 425.556 355.556, 435.556 355.556, 445.556 355.556, 455.556 355.556, 465.556 355.556, 475.556 355.556, 485.556 355.556, 495.556 355.556, 505.556 355.556, 515.556 355.556, 525.556 355.556, 535.556 355.556, 545.556 355.556, 555.556 355.556, 565.556 355.556, 575.556 355.556, 585.556 355.556, 595.556 355.556, 605.556 355.556, 615.556 355.556, 625.556 355.556, 635.556 355.556, 645.556 355.556, 651.062 " />
            <path fill="none" stroke-width="3.0" stroke-linecap="butt" stroke-opacity="1.0" stroke="rgb(0, 0, 0)" stroke-linejoin="round" d=" M 668.444, 355.556 658.444, 355.556 648.444, 355.556 638.444, 355.556 628.444, 355.556 618.444, 355.556 608.444, 355.556 598.444, 355.556 588.444, 355.556 578.444, 355.556 568.444, 355.556 558.444, 355.556 548.444, 355.556 538.444, 355.556 528.444, 355.556 518.444, 355.556 508.444, 355.556 498.444, 355.556 488.444, 355.556 478.444, 355.556 468.444, 355.556 458.444, 355.556 448.444, 355.556 438.444, 355.556 428.444, 355.556 418.444, 355.556 408.444, 355.556 398.444, 355.556 388.444, 355.556 378.444, 355.556 368.444, 355.556 355.556, 355.556 " />
            <path fill="none" stroke-width="3.0" stroke-linecap="butt" stroke-opacity="1.0" stroke="rgb(0, 0, 0)" stroke-linejoin="round" d=" M 668.444, 651.062 668.444, 641.062 668.444, 631.062 668.444, 621.062 668.444, 611.062 668.444, 601.062 668.444, 591.062 668.444, 581.062 668.444, 571.062 668.444, 561.062 668.444, 551.062 668.444, 541.062 668.444, 531.062 668.444, 521.062 668.444, 511.062 668.444, 501.062 668.444, 491.062 668.444, 481.062 668.444, 471.062 668.444, 461.062 668.444, 451.062 668.444, 441.062 668.444, 431.062 668.444, 421.062 668.444, 411.062 668.444, 401.062 668.444, 391.062 668.444, 381.062 668.444, 371.062 668.444, 361.062 668.444, 355.556 " />
            <path fill="none" stroke-width="3.0" stroke-linecap="butt" stroke-opacity="1.0" stroke="rgb(0, 0, 0)" stroke-linejoin="round" d=" M 682.667, 688.988 682.667, 698.988 682.667, 701.630 " />
            <path fill="none" stroke-width="3.0" stroke-linecap="butt" stroke-opacity="1.0" stroke="rgb(0, 0, 0)" stroke-linejoin="round" d=" M 682.667, 322.370 682.667, 332.370 682.667, 342.370 682.667, 352.370 682.667, 362.370 682.667, 372.370 682.667, 382.370 682.667, 392.370 682.667, 402.370 682.667, 412.370 682.667, 422.370 682.667, 432.370 682.667, 442.370 682.667, 452.370 682.667, 462.370 682.667, 472.370 682.667, 482.370 682.667, 492.370 682.667, 502.370 682.667, 512.370 682.667, 522.370 682.667, 532.370 682.667, 542.370 682.667, 552.370 682.667, 562.370 682.667, 572.370 682.667, 582.370 682.667, 592.370 682.667, 602.370 682.667, 612.370 682.667, 622.370 682.667, 632.370 682.667, 642.370 682.667, 651.062 " />
            <path fill="none" stroke-width="3.0" stroke-linecap="butt" stroke-opacity="1.0" stroke="rgb(0, 0, 0)" stroke-linejoin="round" d=" M 682.667, 688.988 692.667, 688.988 701.630, 688.988 " />
            <path fill="none" stroke-width="3.0" stroke-linecap="butt" stroke-opacity="1.0" stroke="rgb(0, 0, 0)" stroke-linejoin="round" d=" M 341.333, 688.988 351.333, 688.988 361.333, 688.988 371.333, 688.988 381.333, 688.988 391.333, 688.988 401.333, 688.988 411.333, 688.988 421.333, 688.988 431.333, 688.988 441.333, 688.988 451.333, 688.988 461.333, 688.988 471.333, 688.988 481.333, 688.988 491.333, 688.988 501.333, 688.988 511.333, 688.988 521.333, 688.988 531.333, 688.988 541.333, 688.988 551.333, 688.988 561.333, 688.988 571.333, 688.988 581.333, 688.988 591.333, 688.988 601.333, 688.988 611.333, 688.988 621.333, 688.988 631.333, 688.988 641.333, 688.988 651.333, 688.988 661.333, 688.988 671.333, 688.988 682.667, 688.988 " />
            <path fill="none" stroke-width="3.0" stroke-linecap="butt" stroke-opacity="1.0" stroke="rgb(0, 0, 0)" stroke-linejoin="round" d=" M 322.370, 688.988 332.370, 688.988 341.333, 688.988 " />
            <path fill="none" stroke-width="3.0" stroke-linecap="butt" stroke-opacity="1.0" stroke="rgb(0, 0, 0)" stroke-linejoin="round" d=" M 355.556, 651.062 345.556, 651.062 341.333, 651.062 " />
            <path fill="none" stroke-width="3.0" stroke-linecap="butt" stroke-opacity="1.0" stroke="rgb(0, 0, 0)" stroke-linejoin="round" d=" M 668.444, 651.062 658.444, 651.062 648.444, 651.062 638.444, 651.062 628.444, 651.062 618.444, 651.062 608.444, 651.062 598.444, 651.062 588.444, 651.062 578.444, 651.062 568.444, 651.062 558.444, 651.062 548.444, 651.062 538.444, 651.062 528.444, 651.062 518.444, 651.062 508.444, 651.062 498.444, 651.062 488.444, 651.062 478.444, 651.062 468.444, 651.062 458.444, 651.062 448.444, 651.062 438.444, 651.062 428.444, 651.062 418.444, 651.062 408.444, 651.062 398.444, 651.062 388.444, 651.062 378.444, 651.062 368.444, 651.062 355.556, 651.062 " />
            <path fill="none" stroke-width="3.0" stroke-linecap="butt" stroke-opacity="1.0" stroke="rgb(0, 0, 0)" stroke-linejoin="round" d=" M 682.667, 651.062 672.667, 651.062 668.444, 651.062 " />
            <path fill="none" stroke-width="3.0" stroke-linecap="butt" stroke-opacity="1.0" stroke="rgb(0, 0, 0)" stroke-linejoin="round" d=" M 701.630, 651.062 691.630, 651.062 682.667, 651.062 " />
            <path fill="none" stroke-width="3.0" stroke-linecap="butt" stroke-opacity="1.0" stroke="rgb(0, 0, 0)" stroke-linejoin="round" d=" M 682.667, 322.370 672.667, 322.370 662.667, 322.370 652.667, 322.370 642.667, 322.370 632.667, 322.370 622.667, 322.370 612.667, 322.370 602.667, 322.370 592.667, 322.370 582.667, 322.370 572.667, 322.370 562.667, 322.370 552.667, 322.370 542.667, 322.370 532.667, 322.370 522.667, 322.370 512.667, 322.370 502.667, 322.370 492.667, 322.370 482.667, 322.370 472.667, 322.370 462.667, 322.370 452.667, 322.370 442.667, 322.370 432.667, 322.370 422.667, 322.370 412.667, 322.370 402.667, 322.370 392.667, 322.370 382.667, 322.370 372.667, 322.370 362.667, 322.370 352.667, 322.370 341.333, 322.370 " />
            <path fill="none" stroke-width="3.0" stroke-linecap="butt" stroke-opacity="1.0" stroke="rgb(0, 0, 0)" stroke-linejoin="round" d=" M 701.630, 701.630 711.630, 701.630 720.593, 701.630 " />
            <path fill="none" stroke-width="3.0" stroke-linecap="butt" stroke-opacity="1.0" stroke="rgb(0, 0, 0)" stroke-linejoin="round" d=" M 682.667, 701.630 692.667, 701.630 701.630, 701.630 " />
            <path fill="none" stroke-width="3.0" stroke-linecap="butt" stroke-opacity="1.0" stroke="rgb(0, 0, 0)" stroke-linejoin="round" d=" M 701.630, 322.370 691.630, 322.370 682.667, 322.370 " />
            <path fill="none" stroke-width="3.0" stroke-linecap="butt" stroke-opacity="1.0" stroke="rgb(0, 0, 0)" stroke-linejoin="round" d=" M 720.593, 322.370 710.593, 322.370 701.630, 322.370 " />
        </g>
    </g>
    <g id="ViewLayer_TechnicalLines.001" inkscape:groupmode="lineset" inkscape:label="ViewLayer_TechnicalLines.001">
        <g inkscape:groupmode="layer" id="strokes" inkscape:label="strokes">
            <path fill="none" stroke-width="1.5" stroke-linecap="round" stroke-opacity="1.0" stroke="rgb(0, 0, 0)" stroke-linejoin="round" d=" M 322.370, 701.630 332.370, 701.630 342.370, 701.630 352.370, 701.630 362.370, 701.630 372.370, 701.630 382.370, 701.630 392.370, 701.630 402.370, 701.630 412.370, 701.630 422.370, 701.630 432.370, 701.630 442.370, 701.630 452.370, 701.630 462.370, 701.630 472.370, 701.630 482.370, 701.630 492.370, 701.630 502.370, 701.630 512.370, 701.630 522.370, 701.630 532.370, 701.630 542.370, 701.630 552.370, 701.630 562.370, 701.630 572.370, 701.630 582.370, 701.630 592.370, 701.630 602.370, 701.630 612.370, 701.630 622.370, 701.630 632.370, 701.630 642.370, 701.630 652.370, 701.630 662.370, 701.630 672.370, 701.630 682.370, 701.630 692.370, 701.630 701.630, 701.630 " />
            <path fill="none" stroke-width="1.5" stroke-linecap="round" stroke-opacity="1.0" stroke="rgb(0, 0, 0)" stroke-linejoin="round" d=" M 341.333, 651.062 331.333, 651.062 322.370, 651.062 322.370, 661.062 322.370, 671.062 322.370, 681.062 322.370, 688.988 " />
            <path fill="none" stroke-width="1.5" stroke-linecap="round" stroke-opacity="1.0" stroke="rgb(0, 0, 0)" stroke-linejoin="round" d=" M 701.630, 688.988 701.630, 678.988 701.630, 668.988 701.630, 658.988 701.630, 651.062 " />
            <path fill="none" stroke-width="1.5" stroke-linecap="round" stroke-opacity="1.0" stroke="rgb(0, 0, 0)" stroke-linejoin="round" d=" M 341.333, 701.630 341.333, 691.630 341.333, 688.988 " />
            <path fill="none" stroke-width="1.5" stroke-linecap="round" stroke-opacity="1.0" stroke="rgb(0, 0, 0)" stroke-linejoin="round" d=" M 720.593, 701.630 720.593, 691.630 720.593, 681.630 720.593, 671.630 720.593, 661.630 720.593, 651.630 720.593, 641.630 720.593, 631.630 720.593, 621.630 720.593, 611.630 720.593, 601.630 720.593, 591.630 720.593, 581.630 720.593, 571.630 720.593, 561.630 720.593, 551.630 720.593, 541.630 720.593, 531.630 720.593, 521.630 720.593, 511.630 720.593, 501.630 720.593, 491.630 720.593, 481.630 720.593, 471.630 720.593, 461.630 720.593, 451.630 720.593, 441.630 720.593, 431.630 720.593, 421.630 720.593, 411.630 720.593, 401.630 720.593, 391.630 720.593, 381.630 720.593, 371.630 720.593, 361.630 720.593, 351.630 720.593, 341.630 720.593, 331.630 720.593, 322.370 " />
            <path fill="none" stroke-width="1.5" stroke-linecap="round" stroke-opacity="1.0" stroke="rgb(0, 0, 0)" stroke-linejoin="round" d=" M 303.407, 322.370 303.407, 332.370 303.407, 342.370 303.407, 352.370 303.407, 362.370 303.407, 372.370 303.407, 382.370 303.407, 392.370 303.407, 402.370 303.407, 412.370 303.407, 422.370 303.407, 432.370 303.407, 442.370 303.407, 452.370 303.407, 462.370 303.407, 472.370 303.407, 482.370 303.407, 492.370 303.407, 502.370 303.407, 512.370 303.407, 522.370 303.407, 532.370 303.407, 542.370 303.407, 552.370 303.407, 562.370 303.407, 572.370 303.407, 582.370 303.407, 592.370 303.407, 602.370 303.407, 612.370 303.407, 622.370 303.407, 632.370 303.407, 642.370 303.407, 652.370 303.407, 662.370 303.407, 672.370 303.407, 682.370 303.407, 692.370 303.407, 701.630 " />
            <path fill="none" stroke-width="1.5" stroke-linecap="round" stroke-opacity="1.0" stroke="rgb(0, 0, 0)" stroke-linejoin="round" d=" M 322.370, 701.630 332.370, 701.630 341.333, 701.630 " />
            <path fill="none" stroke-width="1.5" stroke-linecap="round" stroke-opacity="1.0" stroke="rgb(0, 0, 0)" stroke-linejoin="round" d=" M 303.407, 701.630 313.407, 701.630 322.370, 701.630 " />
            <path fill="none" stroke-width="1.5" stroke-linecap="round" stroke-opacity="1.0" stroke="rgb(0, 0, 0)" stroke-linejoin="round" d=" M 322.370, 322.370 312.370, 322.370 303.407, 322.370 " />
            <path fill="none" stroke-width="1.5" stroke-linecap="round" stroke-opacity="1.0" stroke="rgb(0, 0, 0)" stroke-linejoin="round" d=" M 341.333, 322.370 331.333, 322.370 322.370, 322.370 " />
            <path fill="none" stroke-width="1.5" stroke-linecap="round" stroke-opacity="1.0" stroke="rgb(0, 0, 0)" stroke-linejoin="round" d=" M 341.333, 651.062 341.333, 641.062 341.333, 631.062 341.333, 621.062 341.333, 611.062 341.333, 601.062 341.333, 591.062 341.333, 581.062 341.333, 571.062 341.333, 561.062 341.333, 551.062 341.333, 541.062 341.333, 531.062 341.333, 521.062 341.333, 511.062 341.333, 501.062 341.333, 491.062 341.333, 481.062 341.333, 471.062 341.333, 461.062 341.333, 451.062 341.333, 441.062 341.333, 431.062 341.333, 421.062 341.333, 411.062 341.333, 401.062 341.333, 391.062 341.333, 381.062 341.333, 371.062 341.333, 361.062 341.333, 351.062 341.333, 341.062 341.333, 331.062 341.333, 322.370 " />
            <path fill="none" stroke-width="1.5" stroke-linecap="round" stroke-opacity="1.0" stroke="rgb(0, 0, 0)" stroke-linejoin="round" d=" M 355.556, 355.556 355.556, 365.556 355.556, 375.556 355.556, 385.556 355.556, 395.556 355.556, 405.556 355.556, 415.556 355.556, 425.556 355.556, 435.556 355.556, 445.556 355.556, 455.556 355.556, 465.556 355.556, 475.556 355.556, 485.556 355.556, 495.556 355.556, 505.556 355.556, 515.556 355.556, 525.556 355.556, 535.556 355.556, 545.556 355.556, 555.556 355.556, 565.556 355.556, 575.556 355.556, 585.556 355.556, 595.556 355.556, 605.556 355.556, 615.556 355.556, 625.556 355.556, 635.556 355.556, 645.556 355.556, 651.062 " />
            <path fill="none" stroke-width="1.5" stroke-linecap="round" stroke-opacity="1.0" stroke="rgb(0, 0, 0)" stroke-linejoin="round" d=" M 668.444, 355.556 658.444, 355.556 648.444, 355.556 638.444, 355.556 628.444, 355.556 618.444, 355.556 608.444, 355.556 598.444, 355.556 588.444, 355.556 578.444, 355.556 568.444, 355.556 558.444, 355.556 548.444, 355.556 538.444, 355.556 528.444, 355.556 518.444, 355.556 508.444, 355.556 498.444, 355.556 488.444, 355.556 478.444, 355.556 468.444, 355.556 458.444, 355.556 448.444, 355.556 438.444, 355.556 428.444, 355.556 418.444, 355.556 408.444, 355.556 398.444, 355.556 388.444, 355.556 378.444, 355.556 368.444, 355.556 355.556, 355.556 " />
            <path fill="none" stroke-width="1.5" stroke-linecap="round" stroke-opacity="1.0" stroke="rgb(0, 0, 0)" stroke-linejoin="round" d=" M 668.444, 651.062 668.444, 641.062 668.444, 631.062 668.444, 621.062 668.444, 611.062 668.444, 601.062 668.444, 591.062 668.444, 581.062 668.444, 571.062 668.444, 561.062 668.444, 551.062 668.444, 541.062 668.444, 531.062 668.444, 521.062 668.444, 511.062 668.444, 501.062 668.444, 491.062 668.444, 481.062 668.444, 471.062 668.444, 461.062 668.444, 451.062 668.444, 441.062 668.444, 431.062 668.444, 421.062 668.444, 411.062 668.444, 401.062 668.444, 391.062 668.444, 381.062 668.444, 371.062 668.444, 361.062 668.444, 355.556 " />
            <path fill="none" stroke-width="1.5" stroke-linecap="round" stroke-opacity="1.0" stroke="rgb(0, 0, 0)" stroke-linejoin="round" d=" M 682.667, 688.988 682.667, 698.988 682.667, 701.630 " />
            <path fill="none" stroke-width="1.5" stroke-linecap="round" stroke-opacity="1.0" stroke="rgb(0, 0, 0)" stroke-linejoin="round" d=" M 682.667, 322.370 682.667, 332.370 682.667, 342.370 682.667, 352.370 682.667, 362.370 682.667, 372.370 682.667, 382.370 682.667, 392.370 682.667, 402.370 682.667, 412.370 682.667, 422.370 682.667, 432.370 682.667, 442.370 682.667, 452.370 682.667, 462.370 682.667, 472.370 682.667, 482.370 682.667, 492.370 682.667, 502.370 682.667, 512.370 682.667, 522.370 682.667, 532.370 682.667, 542.370 682.667, 552.370 682.667, 562.370 682.667, 572.370 682.667, 582.370 682.667, 592.370 682.667, 602.370 682.667, 612.370 682.667, 622.370 682.667, 632.370 682.667, 642.370 682.667, 651.062 " />
            <path fill="none" stroke-width="1.5" stroke-linecap="round" stroke-opacity="1.0" stroke="rgb(0, 0, 0)" stroke-linejoin="round" d=" M 682.667, 688.988 692.667, 688.988 701.630, 688.988 " />
            <path fill="none" stroke-width="1.5" stroke-linecap="round" stroke-opacity="1.0" stroke="rgb(0, 0, 0)" stroke-linejoin="round" d=" M 341.333, 688.988 351.333, 688.988 361.333, 688.988 371.333, 688.988 381.333, 688.988 391.333, 688.988 401.333, 688.988 411.333, 688.988 421.333, 688.988 431.333, 688.988 441.333, 688.988 451.333, 688.988 461.333, 688.988 471.333, 688.988 481.333, 688.988 491.333, 688.988 501.333, 688.988 511.333, 688.988 521.333, 688.988 531.333, 688.988 541.333, 688.988 551.333, 688.988 561.333, 688.988 571.333, 688.988 581.333, 688.988 591.333, 688.988 601.333, 688.988 611.333, 688.988 621.333, 688.988 631.333, 688.988 641.333, 688.988 651.333, 688.988 661.333, 688.988 671.333, 688.988 682.667, 688.988 " />
            <path fill="none" stroke-width="1.5" stroke-linecap="round" stroke-opacity="1.0" stroke="rgb(0, 0, 0)" stroke-linejoin="round" d=" M 322.370, 688.988 332.370, 688.988 341.333, 688.988 " />
            <path fill="none" stroke-width="1.5" stroke-linecap="round" stroke-opacity="1.0" stroke="rgb(0, 0, 0)" stroke-linejoin="round" d=" M 355.556, 651.062 345.556, 651.062 341.333, 651.062 " />
            <path fill="none" stroke-width="1.5" stroke-linecap="round" stroke-opacity="1.0" stroke="rgb(0, 0, 0)" stroke-linejoin="round" d=" M 668.444, 651.062 658.444, 651.062 648.444, 651.062 638.444, 651.062 628.444, 651.062 618.444, 651.062 608.444, 651.062 598.444, 651.062 588.444, 651.062 578.444, 651.062 568.444, 651.062 558.444, 651.062 548.444, 651.062 538.444, 651.062 528.444, 651.062 518.444, 651.062 508.444, 651.062 498.444, 651.062 488.444, 651.062 478.444, 651.062 468.444, 651.062 458.444, 651.062 448.444, 651.062 438.444, 651.062 428.444, 651.062 418.444, 651.062 408.444, 651.062 398.444, 651.062 388.444, 651.062 378.444, 651.062 368.444, 651.062 355.556, 651.062 " />
            <path fill="none" stroke-width="1.5" stroke-linecap="round" stroke-opacity="1.0" stroke="rgb(0, 0, 0)" stroke-linejoin="round" d=" M 682.667, 651.062 672.667, 651.062 668.444, 651.062 " />
            <path fill="none" stroke-width="1.5" stroke-linecap="round" stroke-opacity="1.0" stroke="rgb(0, 0, 0)" stroke-linejoin="round" d=" M 701.630, 651.062 691.630, 651.062 682.667, 651.062 " />
            <path fill="none" stroke-width="1.5" stroke-linecap="round" stroke-opacity="1.0" stroke="rgb(0, 0, 0)" stroke-linejoin="round" d=" M 682.667, 322.370 672.667, 322.370 662.667, 322.370 652.667, 322.370 642.667, 322.370 632.667, 322.370 622.667, 322.370 612.667, 322.370 602.667, 322.370 592.667, 322.370 582.667, 322.370 572.667, 322.370 562.667, 322.370 552.667, 322.370 542.667, 322.370 532.667, 322.370 522.667, 322.370 512.667, 322.370 502.667, 322.370 492.667, 322.370 482.667, 322.370 472.667, 322.370 462.667, 322.370 452.667, 322.370 442.667, 322.370 432.667, 322.370 422.667, 322.370 412.667, 322.370 402.667, 322.370 392.667, 322.370 382.667, 322.370 372.667, 322.370 362.667, 322.370 352.667, 322.370 341.333, 322.370 " />
            <path fill="none" stroke-width="1.5" stroke-linecap="round" stroke-opacity="1.0" stroke="rgb(0, 0, 0)" stroke-linejoin="round" d=" M 701.630, 701.630 711.630, 701.630 720.593, 701.630 " />
            <path fill="none" stroke-width="1.5" stroke-linecap="round" stroke-opacity="1.0" stroke="rgb(0, 0, 0)" stroke-linejoin="round" d=" M 682.667, 701.630 692.667, 701.630 701.630, 701.630 " />
            <path fill="none" stroke-width="1.5" stroke-linecap="round" stroke-opacity="1.0" stroke="rgb(0, 0, 0)" stroke-linejoin="round" d=" M 701.630, 322.370 691.630, 322.370 682.667, 322.370 " />
            <path fill="none" stroke-width="1.5" stroke-linecap="round" stroke-opacity="1.0" stroke="rgb(0, 0, 0)" stroke-linejoin="round" d=" M 720.593, 322.370 710.593, 322.370 701.630, 322.370 " />
        </g>
    </g>
    <g id="ViewLayer_TechnicalLines.002" inkscape:groupmode="lineset" inkscape:label="ViewLayer_TechnicalLines.002">
        <g inkscape:groupmode="layer" id="strokes" inkscape:label="strokes">
            <path fill="none" stroke-width="1.5" stroke-linecap="round" stroke-opacity="1.0" stroke="rgb(0, 0, 0)" stroke-linejoin="round" d=" M 322.370, 701.630 332.370, 701.630 342.370, 701.630 352.370, 701.630 362.370, 701.630 372.370, 701.630 382.370, 701.630 392.370, 701.630 402.370, 701.630 412.370, 701.630 422.370, 701.630 432.370, 701.630 442.370, 701.630 452.370, 701.630 462.370, 701.630 472.370, 701.630 482.370, 701.630 492.370, 701.630 502.370, 701.630 512.370, 701.630 522.370, 701.630 532.370, 701.630 542.370, 701.630 552.370, 701.630 562.370, 701.630 572.370, 701.630 582.370, 701.630 592.370, 701.630 602.370, 701.630 612.370, 701.630 622.370, 701.630 632.370, 701.630 642.370, 701.630 652.370, 701.630 662.370, 701.630 672.370, 701.630 682.370, 701.630 692.370, 701.630 701.630, 701.630 " />
            <path fill="none" stroke-width="1.5" stroke-linecap="round" stroke-opacity="1.0" stroke="rgb(0, 0, 0)" stroke-linejoin="round" d=" M 341.333, 651.062 331.333, 651.062 322.370, 651.062 322.370, 661.062 322.370, 671.062 322.370, 681.062 322.370, 688.988 " />
            <path fill="none" stroke-width="1.5" stroke-linecap="round" stroke-opacity="1.0" stroke="rgb(0, 0, 0)" stroke-linejoin="round" d=" M 701.630, 688.988 701.630, 678.988 701.630, 668.988 701.630, 658.988 701.630, 651.062 " />
            <path fill="none" stroke-width="1.5" stroke-linecap="round" stroke-opacity="1.0" stroke="rgb(0, 0, 0)" stroke-linejoin="round" d=" M 341.333, 701.630 341.333, 691.630 341.333, 688.988 " />
            <path fill="none" stroke-width="1.5" stroke-linecap="round" stroke-opacity="1.0" stroke="rgb(0, 0, 0)" stroke-linejoin="round" d=" M 720.593, 701.630 720.593, 691.630 720.593, 681.630 720.593, 671.630 720.593, 661.630 720.593, 651.630 720.593, 641.630 720.593, 631.630 720.593, 621.630 720.593, 611.630 720.593, 601.630 720.593, 591.630 720.593, 581.630 720.593, 571.630 720.593, 561.630 720.593, 551.630 720.593, 541.630 720.593, 531.630 720.593, 521.630 720.593, 511.630 720.593, 501.630 720.593, 491.630 720.593, 481.630 720.593, 471.630 720.593, 461.630 720.593, 451.630 720.593, 441.630 720.593, 431.630 720.593, 421.630 720.593, 411.630 720.593, 401.630 720.593, 391.630 720.593, 381.630 720.593, 371.630 720.593, 361.630 720.593, 351.630 720.593, 341.630 720.593, 331.630 720.593, 322.370 " />
            <path fill="none" stroke-width="1.5" stroke-linecap="round" stroke-opacity="1.0" stroke="rgb(0, 0, 0)" stroke-linejoin="round" d=" M 303.407, 322.370 303.407, 332.370 303.407, 342.370 303.407, 352.370 303.407, 362.370 303.407, 372.370 303.407, 382.370 303.407, 392.370 303.407, 402.370 303.407, 412.370 303.407, 422.370 303.407, 432.370 303.407, 442.370 303.407, 452.370 303.407, 462.370 303.407, 472.370 303.407, 482.370 303.407, 492.370 303.407, 502.370 303.407, 512.370 303.407, 522.370 303.407, 532.370 303.407, 542.370 303.407, 552.370 303.407, 562.370 303.407, 572.370 303.407, 582.370 303.407, 592.370 303.407, 602.370 303.407, 612.370 303.407, 622.370 303.407, 632.370 303.407, 642.370 303.407, 652.370 303.407, 662.370 303.407, 672.370 303.407, 682.370 303.407, 692.370 303.407, 701.630 " />
            <path fill="none" stroke-width="1.5" stroke-linecap="round" stroke-opacity="1.0" stroke="rgb(0, 0, 0)" stroke-linejoin="round" d=" M 322.370, 701.630 332.370, 701.630 341.333, 701.630 " />
            <path fill="none" stroke-width="1.5" stroke-linecap="round" stroke-opacity="1.0" stroke="rgb(0, 0, 0)" stroke-linejoin="round" d=" M 303.407, 701.630 313.407, 701.630 322.370, 701.630 " />
            <path fill="none" stroke-width="1.5" stroke-linecap="round" stroke-opacity="1.0" stroke="rgb(0, 0, 0)" stroke-linejoin="round" d=" M 322.370, 322.370 312.370, 322.370 303.407, 322.370 " />
            <path fill="none" stroke-width="1.5" stroke-linecap="round" stroke-opacity="1.0" stroke="rgb(0, 0, 0)" stroke-linejoin="round" d=" M 341.333, 322.370 331.333, 322.370 322.370, 322.370 " />
            <path fill="none" stroke-width="1.5" stroke-linecap="round" stroke-opacity="1.0" stroke="rgb(0, 0, 0)" stroke-linejoin="round" d=" M 341.333, 651.062 341.333, 641.062 341.333, 631.062 341.333, 621.062 341.333, 611.062 341.333, 601.062 341.333, 591.062 341.333, 581.062 341.333, 571.062 341.333, 561.062 341.333, 551.062 341.333, 541.062 341.333, 531.062 341.333, 521.062 341.333, 511.062 341.333, 501.062 341.333, 491.062 341.333, 481.062 341.333, 471.062 341.333, 461.062 341.333, 451.062 341.333, 441.062 341.333, 431.062 341.333, 421.062 341.333, 411.062 341.333, 401.062 341.333, 391.062 341.333, 381.062 341.333, 371.062 341.333, 361.062 341.333, 351.062 341.333, 341.062 341.333, 331.062 341.333, 322.370 " />
            <path fill="none" stroke-width="1.5" stroke-linecap="round" stroke-opacity="1.0" stroke="rgb(0, 0, 0)" stroke-linejoin="round" d=" M 355.556, 355.556 355.556, 365.556 355.556, 375.556 355.556, 385.556 355.556, 395.556 355.556, 405.556 355.556, 415.556 355.556, 425.556 355.556, 435.556 355.556, 445.556 355.556, 455.556 355.556, 465.556 355.556, 475.556 355.556, 485.556 355.556, 495.556 355.556, 505.556 355.556, 515.556 355.556, 525.556 355.556, 535.556 355.556, 545.556 355.556, 555.556 355.556, 565.556 355.556, 575.556 355.556, 585.556 355.556, 595.556 355.556, 605.556 355.556, 615.556 355.556, 625.556 355.556, 635.556 355.556, 645.556 355.556, 651.062 " />
            <path fill="none" stroke-width="1.5" stroke-linecap="round" stroke-opacity="1.0" stroke="rgb(0, 0, 0)" stroke-linejoin="round" d=" M 668.444, 355.556 658.444, 355.556 648.444, 355.556 638.444, 355.556 628.444, 355.556 618.444, 355.556 608.444, 355.556 598.444, 355.556 588.444, 355.556 578.444, 355.556 568.444, 355.556 558.444, 355.556 548.444, 355.556 538.444, 355.556 528.444, 355.556 518.444, 355.556 508.444, 355.556 498.444, 355.556 488.444, 355.556 478.444, 355.556 468.444, 355.556 458.444, 355.556 448.444, 355.556 438.444, 355.556 428.444, 355.556 418.444, 355.556 408.444, 355.556 398.444, 355.556 388.444, 355.556 378.444, 355.556 368.444, 355.556 355.556, 355.556 " />
            <path fill="none" stroke-width="1.5" stroke-linecap="round" stroke-opacity="1.0" stroke="rgb(0, 0, 0)" stroke-linejoin="round" d=" M 668.444, 651.062 668.444, 641.062 668.444, 631.062 668.444, 621.062 668.444, 611.062 668.444, 601.062 668.444, 591.062 668.444, 581.062 668.444, 571.062 668.444, 561.062 668.444, 551.062 668.444, 541.062 668.444, 531.062 668.444, 521.062 668.444, 511.062 668.444, 501.062 668.444, 491.062 668.444, 481.062 668.444, 471.062 668.444, 461.062 668.444, 451.062 668.444, 441.062 668.444, 431.062 668.444, 421.062 668.444, 411.062 668.444, 401.062 668.444, 391.062 668.444, 381.062 668.444, 371.062 668.444, 361.062 668.444, 355.556 " />
            <path fill="none" stroke-width="1.5" stroke-linecap="round" stroke-opacity="1.0" stroke="rgb(0, 0, 0)" stroke-linejoin="round" d=" M 682.667, 688.988 682.667, 698.988 682.667, 701.630 " />
            <path fill="none" stroke-width="1.5" stroke-linecap="round" stroke-opacity="1.0" stroke="rgb(0, 0, 0)" stroke-linejoin="round" d=" M 682.667, 322.370 682.667, 332.370 682.667, 342.370 682.667, 352.370 682.667, 362.370 682.667, 372.370 682.667, 382.370 682.667, 392.370 682.667, 402.370 682.667, 412.370 682.667, 422.370 682.667, 432.370 682.667, 442.370 682.667, 452.370 682.667, 462.370 682.667, 472.370 682.667, 482.370 682.667, 492.370 682.667, 502.370 682.667, 512.370 682.667, 522.370 682.667, 532.370 682.667, 542.370 682.667, 552.370 682.667, 562.370 682.667, 572.370 682.667, 582.370 682.667, 592.370 682.667, 602.370 682.667, 612.370 682.667, 622.370 682.667, 632.370 682.667, 642.370 682.667, 651.062 " />
            <path fill="none" stroke-width="1.5" stroke-linecap="round" stroke-opacity="1.0" stroke="rgb(0, 0, 0)" stroke-linejoin="round" d=" M 682.667, 688.988 692.667, 688.988 701.630, 688.988 " />
            <path fill="none" stroke-width="1.5" stroke-linecap="round" stroke-opacity="1.0" stroke="rgb(0, 0, 0)" stroke-linejoin="round" d=" M 341.333, 688.988 351.333, 688.988 361.333, 688.988 371.333, 688.988 381.333, 688.988 391.333, 688.988 401.333, 688.988 411.333, 688.988 421.333, 688.988 431.333, 688.988 441.333, 688.988 451.333, 688.988 461.333, 688.988 471.333, 688.988 481.333, 688.988 491.333, 688.988 501.333, 688.988 511.333, 688.988 521.333, 688.988 531.333, 688.988 541.333, 688.988 551.333, 688.988 561.333, 688.988 571.333, 688.988 581.333, 688.988 591.333, 688.988 601.333, 688.988 611.333, 688.988 621.333, 688.988 631.333, 688.988 641.333, 688.988 651.333, 688.988 661.333, 688.988 671.333, 688.988 682.667, 688.988 " />
            <path fill="none" stroke-width="1.5" stroke-linecap="round" stroke-opacity="1.0" stroke="rgb(0, 0, 0)" stroke-linejoin="round" d=" M 322.370, 688.988 332.370, 688.988 341.333, 688.988 " />
            <path fill="none" stroke-width="1.5" stroke-linecap="round" stroke-opacity="1.0" stroke="rgb(0, 0, 0)" stroke-linejoin="round" d=" M 355.556, 651.062 345.556, 651.062 341.333, 651.062 " />
            <path fill="none" stroke-width="1.5" stroke-linecap="round" stroke-opacity="1.0" stroke="rgb(0, 0, 0)" stroke-linejoin="round" d=" M 668.444, 651.062 658.444, 651.062 648.444, 651.062 638.444, 651.062 628.444, 651.062 618.444, 651.062 608.444, 651.062 598.444, 651.062 588.444, 651.062 578.444, 651.062 568.444, 651.062 558.444, 651.062 548.444, 651.062 538.444, 651.062 528.444, 651.062 518.444, 651.062 508.444, 651.062 498.444, 651.062 488.444, 651.062 478.444, 651.062 468.444, 651.062 458.444, 651.062 448.444, 651.062 438.444, 651.062 428.444, 651.062 418.444, 651.062 408.444, 651.062 398.444, 651.062 388.444, 651.062 378.444, 651.062 368.444, 651.062 355.556, 651.062 " />
            <path fill="none" stroke-width="1.5" stroke-linecap="round" stroke-opacity="1.0" stroke="rgb(0, 0, 0)" stroke-linejoin="round" d=" M 682.667, 651.062 672.667, 651.062 668.444, 651.062 " />
            <path fill="none" stroke-width="1.5" stroke-linecap="round" stroke-opacity="1.0" stroke="rgb(0, 0, 0)" stroke-linejoin="round" d=" M 701.630, 651.062 691.630, 651.062 682.667, 651.062 " />
            <path fill="none" stroke-width="1.5" stroke-linecap="round" stroke-opacity="1.0" stroke="rgb(0, 0, 0)" stroke-linejoin="round" d=" M 682.667, 322.370 672.667, 322.370 662.667, 322.370 652.667, 322.370 642.667, 322.370 632.667, 322.370 622.667, 322.370 612.667, 322.370 602.667, 322.370 592.667, 322.370 582.667, 322.370 572.667, 322.370 562.667, 322.370 552.667, 322.370 542.667, 322.370 532.667, 322.370 522.667, 322.370 512.667, 322.370 502.667, 322.370 492.667, 322.370 482.667, 322.370 472.667, 322.370 462.667, 322.370 452.667, 322.370 442.667, 322.370 432.667, 322.370 422.667, 322.370 412.667, 322.370 402.667, 322.370 392.667, 322.370 382.667, 322.370 372.667, 322.370 362.667, 322.370 352.667, 322.370 341.333, 322.370 " />
            <path fill="none" stroke-width="1.5" stroke-linecap="round" stroke-opacity="1.0" stroke="rgb(0, 0, 0)" stroke-linejoin="round" d=" M 701.630, 701.630 711.630, 701.630 720.593, 701.630 " />
            <path fill="none" stroke-width="1.5" stroke-linecap="round" stroke-opacity="1.0" stroke="rgb(0, 0, 0)" stroke-linejoin="round" d=" M 682.667, 701.630 692.667, 701.630 701.630, 701.630 " />
            <path fill="none" stroke-width="1.5" stroke-linecap="round" stroke-opacity="1.0" stroke="rgb(0, 0, 0)" stroke-linejoin="round" d=" M 701.630, 322.370 691.630, 322.370 682.667, 322.370 " />
            <path fill="none" stroke-width="1.5" stroke-linecap="round" stroke-opacity="1.0" stroke="rgb(0, 0, 0)" stroke-linejoin="round" d=" M 720.593, 322.370 710.593, 322.370 701.630, 322.370 " />
        </g>
    </g>
    <g id="ViewLayer_TechnicalLines.003" inkscape:groupmode="lineset" inkscape:label="ViewLayer_TechnicalLines.003">
        <g inkscape:groupmode="layer" id="strokes" inkscape:label="strokes">
            <path fill="none" stroke-width="1.5" stroke-linecap="round" stroke-opacity="1.0" stroke="rgb(0, 0, 0)" stroke-linejoin="round" d=" M 322.370, 701.630 332.370, 701.630 342.370, 701.630 352.370, 701.630 362.370, 701.630 372.370, 701.630 382.370, 701.630 392.370, 701.630 402.370, 701.630 412.370, 701.630 422.370, 701.630 432.370, 701.630 442.370, 701.630 452.370, 701.630 462.370, 701.630 472.370, 701.630 482.370, 701.630 492.370, 701.630 502.370, 701.630 512.370, 701.630 522.370, 701.630 532.370, 701.630 542.370, 701.630 552.370, 701.630 562.370, 701.630 572.370, 701.630 582.370, 701.630 592.370, 701.630 602.370, 701.630 612.370, 701.630 622.370, 701.630 632.370, 701.630 642.370, 701.630 652.370, 701.630 662.370, 701.630 672.370, 701.630 682.370, 701.630 692.370, 701.630 701.630, 701.630 " />
            <path fill="none" stroke-width="1.5" stroke-linecap="round" stroke-opacity="1.0" stroke="rgb(0, 0, 0)" stroke-linejoin="round" d=" M 341.333, 651.062 331.333, 651.062 322.370, 651.062 322.370, 661.062 322.370, 671.062 322.370, 681.062 322.370, 688.988 " />
            <path fill="none" stroke-width="1.5" stroke-linecap="round" stroke-opacity="1.0" stroke="rgb(0, 0, 0)" stroke-linejoin="round" d=" M 701.630, 688.988 701.630, 678.988 701.630, 668.988 701.630, 658.988 701.630, 651.062 " />
            <path fill="none" stroke-width="1.5" stroke-linecap="round" stroke-opacity="1.0" stroke="rgb(0, 0, 0)" stroke-linejoin="round" d=" M 341.333, 701.630 341.333, 691.630 341.333, 688.988 " />
            <path fill="none" stroke-width="1.5" stroke-linecap="round" stroke-opacity="1.0" stroke="rgb(0, 0, 0)" stroke-linejoin="round" d=" M 720.593, 701.630 720.593, 691.630 720.593, 681.630 720.593, 671.630 720.593, 661.630 720.593, 651.630 720.593, 641.630 720.593, 631.630 720.593, 621.630 720.593, 611.630 720.593, 601.630 720.593, 591.630 720.593, 581.630 720.593, 571.630 720.593, 561.630 720.593, 551.630 720.593, 541.630 720.593, 531.630 720.593, 521.630 720.593, 511.630 720.593, 501.630 720.593, 491.630 720.593, 481.630 720.593, 471.630 720.593, 461.630 720.593, 451.630 720.593, 441.630 720.593, 431.630 720.593, 421.630 720.593, 411.630 720.593, 401.630 720.593, 391.630 720.593, 381.630 720.593, 371.630 720.593, 361.630 720.593, 351.630 720.593, 341.630 720.593, 331.630 720.593, 322.370 " />
            <path fill="none" stroke-width="1.5" stroke-linecap="round" stroke-opacity="1.0" stroke="rgb(0, 0, 0)" stroke-linejoin="round" d=" M 303.407, 322.370 303.407, 332.370 303.407, 342.370 303.407, 352.370 303.407, 362.370 303.407, 372.370 303.407, 382.370 303.407, 392.370 303.407, 402.370 303.407, 412.370 303.407, 422.370 303.407, 432.370 303.407, 442.370 303.407, 452.370 303.407, 462.370 303.407, 472.370 303.407, 482.370 303.407, 492.370 303.407, 502.370 303.407, 512.370 303.407, 522.370 303.407, 532.370 303.407, 542.370 303.407, 552.370 303.407, 562.370 303.407, 572.370 303.407, 582.370 303.407, 592.370 303.407, 602.370 303.407, 612.370 303.407, 622.370 303.407, 632.370 303.407, 642.370 303.407, 652.370 303.407, 662.370 303.407, 672.370 303.407, 682.370 303.407, 692.370 303.407, 701.630 " />
            <path fill="none" stroke-width="1.5" stroke-linecap="round" stroke-opacity="1.0" stroke="rgb(0, 0, 0)" stroke-linejoin="round" d=" M 322.370, 701.630 332.370, 701.630 341.333, 701.630 " />
            <path fill="none" stroke-width="1.5" stroke-linecap="round" stroke-opacity="1.0" stroke="rgb(0, 0, 0)" stroke-linejoin="round" d=" M 303.407, 701.630 313.407, 701.630 322.370, 701.630 " />
            <path fill="none" stroke-width="1.5" stroke-linecap="round" stroke-opacity="1.0" stroke="rgb(0, 0, 0)" stroke-linejoin="round" d=" M 322.370, 322.370 312.370, 322.370 303.407, 322.370 " />
            <path fill="none" stroke-width="1.5" stroke-linecap="round" stroke-opacity="1.0" stroke="rgb(0, 0, 0)" stroke-linejoin="round" d=" M 341.333, 322.370 331.333, 322.370 322.370, 322.370 " />
            <path fill="none" stroke-width="1.5" stroke-linecap="round" stroke-opacity="1.0" stroke="rgb(0, 0, 0)" stroke-linejoin="round" d=" M 341.333, 651.062 341.333, 641.062 341.333, 631.062 341.333, 621.062 341.333, 611.062 341.333, 601.062 341.333, 591.062 341.333, 581.062 341.333, 571.062 341.333, 561.062 341.333, 551.062 341.333, 541.062 341.333, 531.062 341.333, 521.062 341.333, 511.062 341.333, 501.062 341.333, 491.062 341.333, 481.062 341.333, 471.062 341.333, 461.062 341.333, 451.062 341.333, 441.062 341.333, 431.062 341.333, 421.062 341.333, 411.062 341.333, 401.062 341.333, 391.062 341.333, 381.062 341.333, 371.062 341.333, 361.062 341.333, 351.062 341.333, 341.062 341.333, 331.062 341.333, 322.370 " />
            <path fill="none" stroke-width="1.5" stroke-linecap="round" stroke-opacity="1.0" stroke="rgb(0, 0, 0)" stroke-linejoin="round" d=" M 355.556, 355.556 355.556, 365.556 355.556, 375.556 355.556, 385.556 355.556, 395.556 355.556, 405.556 355.556, 415.556 355.556, 425.556 355.556, 435.556 355.556, 445.556 355.556, 455.556 355.556, 465.556 355.556, 475.556 355.556, 485.556 355.556, 495.556 355.556, 505.556 355.556, 515.556 355.556, 525.556 355.556, 535.556 355.556, 545.556 355.556, 555.556 355.556, 565.556 355.556, 575.556 355.556, 585.556 355.556, 595.556 355.556, 605.556 355.556, 615.556 355.556, 625.556 355.556, 635.556 355.556, 645.556 355.556, 651.062 " />
            <path fill="none" stroke-width="1.5" stroke-linecap="round" stroke-opacity="1.0" stroke="rgb(0, 0, 0)" stroke-linejoin="round" d=" M 668.444, 355.556 658.444, 355.556 648.444, 355.556 638.444, 355.556 628.444, 355.556 618.444, 355.556 608.444, 355.556 598.444, 355.556 588.444, 355.556 578.444, 355.556 568.444, 355.556 558.444, 355.556 548.444, 355.556 538.444, 355.556 528.444, 355.556 518.444, 355.556 508.444, 355.556 498.444, 355.556 488.444, 355.556 478.444, 355.556 468.444, 355.556 458.444, 355.556 448.444, 355.556 438.444, 355.556 428.444, 355.556 418.444, 355.556 408.444, 355.556 398.444, 355.556 388.444, 355.556 378.444, 355.556 368.444, 355.556 355.556, 355.556 " />
            <path fill="none" stroke-width="1.5" stroke-linecap="round" stroke-opacity="1.0" stroke="rgb(0, 0, 0)" stroke-linejoin="round" d=" M 668.444, 651.062 668.444, 641.062 668.444, 631.062 668.444, 621.062 668.444, 611.062 668.444, 601.062 668.444, 591.062 668.444, 581.062 668.444, 571.062 668.444, 561.062 668.444, 551.062 668.444, 541.062 668.444, 531.062 668.444, 521.062 668.444, 511.062 668.444, 501.062 668.444, 491.062 668.444, 481.062 668.444, 471.062 668.444, 461.062 668.444, 451.062 668.444, 441.062 668.444, 431.062 668.444, 421.062 668.444, 411.062 668.444, 401.062 668.444, 391.062 668.444, 381.062 668.444, 371.062 668.444, 361.062 668.444, 355.556 " />
            <path fill="none" stroke-width="1.5" stroke-linecap="round" stroke-opacity="1.0" stroke="rgb(0, 0, 0)" stroke-linejoin="round" d=" M 682.667, 688.988 682.667, 698.988 682.667, 701.630 " />
            <path fill="none" stroke-width="1.5" stroke-linecap="round" stroke-opacity="1.0" stroke="rgb(0, 0, 0)" stroke-linejoin="round" d=" M 682.667, 322.370 682.667, 332.370 682.667, 342.370 682.667, 352.370 682.667, 362.370 682.667, 372.370 682.667, 382.370 682.667, 392.370 682.667, 402.370 682.667, 412.370 682.667, 422.370 682.667, 432.370 682.667, 442.370 682.667, 452.370 682.667, 462.370 682.667, 472.370 682.667, 482.370 682.667, 492.370 682.667, 502.370 682.667, 512.370 682.667, 522.370 682.667, 532.370 682.667, 542.370 682.667, 552.370 682.667, 562.370 682.667, 572.370 682.667, 582.370 682.667, 592.370 682.667, 602.370 682.667, 612.370 682.667, 622.370 682.667, 632.370 682.667, 642.370 682.667, 651.062 " />
            <path fill="none" stroke-width="1.5" stroke-linecap="round" stroke-opacity="1.0" stroke="rgb(0, 0, 0)" stroke-linejoin="round" d=" M 682.667, 688.988 692.667, 688.988 701.630, 688.988 " />
            <path fill="none" stroke-width="1.5" stroke-linecap="round" stroke-opacity="1.0" stroke="rgb(0, 0, 0)" stroke-linejoin="round" d=" M 341.333, 688.988 351.333, 688.988 361.333, 688.988 371.333, 688.988 381.333, 688.988 391.333, 688.988 401.333, 688.988 411.333, 688.988 421.333, 688.988 431.333, 688.988 441.333, 688.988 451.333, 688.988 461.333, 688.988 471.333, 688.988 481.333, 688.988 491.333, 688.988 501.333, 688.988 511.333, 688.988 521.333, 688.988 531.333, 688.988 541.333, 688.988 551.333, 688.988 561.333, 688.988 571.333, 688.988 581.333, 688.988 591.333, 688.988 601.333, 688.988 611.333, 688.988 621.333, 688.988 631.333, 688.988 641.333, 688.988 651.333, 688.988 661.333, 688.988 671.333, 688.988 682.667, 688.988 " />
            <path fill="none" stroke-width="1.5" stroke-linecap="round" stroke-opacity="1.0" stroke="rgb(0, 0, 0)" stroke-linejoin="round" d=" M 322.370, 688.988 332.370, 688.988 341.333, 688.988 " />
            <path fill="none" stroke-width="1.5" stroke-linecap="round" stroke-opacity="1.0" stroke="rgb(0, 0, 0)" stroke-linejoin="round" d=" M 355.556, 651.062 345.556, 651.062 341.333, 651.062 " />
            <path fill="none" stroke-width="1.5" stroke-linecap="round" stroke-opacity="1.0" stroke="rgb(0, 0, 0)" stroke-linejoin="round" d=" M 668.444, 651.062 658.444, 651.062 648.444, 651.062 638.444, 651.062 628.444, 651.062 618.444, 651.062 608.444, 651.062 598.444, 651.062 588.444, 651.062 578.444, 651.062 568.444, 651.062 558.444, 651.062 548.444, 651.062 538.444, 651.062 528.444, 651.062 518.444, 651.062 508.444, 651.062 498.444, 651.062 488.444, 651.062 478.444, 651.062 468.444, 651.062 458.444, 651.062 448.444, 651.062 438.444, 651.062 428.444, 651.062 418.444, 651.062 408.444, 651.062 398.444, 651.062 388.444, 651.062 378.444, 651.062 368.444, 651.062 355.556, 651.062 " />
            <path fill="none" stroke-width="1.5" stroke-linecap="round" stroke-opacity="1.0" stroke="rgb(0, 0, 0)" stroke-linejoin="round" d=" M 682.667, 651.062 672.667, 651.062 668.444, 651.062 " />
            <path fill="none" stroke-width="1.5" stroke-linecap="round" stroke-opacity="1.0" stroke="rgb(0, 0, 0)" stroke-linejoin="round" d=" M 701.630, 651.062 691.630, 651.062 682.667, 651.062 " />
            <path fill="none" stroke-width="1.5" stroke-linecap="round" stroke-opacity="1.0" stroke="rgb(0, 0, 0)" stroke-linejoin="round" d=" M 682.667, 322.370 672.667, 322.370 662.667, 322.370 652.667, 322.370 642.667, 322.370 632.667, 322.370 622.667, 322.370 612.667, 322.370 602.667, 322.370 592.667, 322.370 582.667, 322.370 572.667, 322.370 562.667, 322.370 552.667, 322.370 542.667, 322.370 532.667, 322.370 522.667, 322.370 512.667, 322.370 502.667, 322.370 492.667, 322.370 482.667, 322.370 472.667, 322.370 462.667, 322.370 452.667, 322.370 442.667, 322.370 432.667, 322.370 422.667, 322.370 412.667, 322.370 402.667, 322.370 392.667, 322.370 382.667, 322.370 372.667, 322.370 362.667, 322.370 352.667, 322.370 341.333, 322.370 " />
            <path fill="none" stroke-width="1.5" stroke-linecap="round" stroke-opacity="1.0" stroke="rgb(0, 0, 0)" stroke-linejoin="round" d=" M 701.630, 701.630 711.630, 701.630 720.593, 701.630 " />
            <path fill="none" stroke-width="1.5" stroke-linecap="round" stroke-opacity="1.0" stroke="rgb(0, 0, 0)" stroke-linejoin="round" d=" M 682.667, 701.630 692.667, 701.630 701.630, 701.630 " />
            <path fill="none" stroke-width="1.5" stroke-linecap="round" stroke-opacity="1.0" stroke="rgb(0, 0, 0)" stroke-linejoin="round" d=" M 701.630, 322.370 691.630, 322.370 682.667, 322.370 " />
            <path fill="none" stroke-width="1.5" stroke-linecap="round" stroke-opacity="1.0" stroke="rgb(0, 0, 0)" stroke-linejoin="round" d=" M 720.593, 322.370 710.593, 322.370 701.630, 322.370 " />
        </g>
    </g>
    <g id="ViewLayer_TechnicalLines.004" xmlns:inkscape="http://www.inkscape.org/namespaces/inkscape" inkscape:groupmode="lineset" inkscape:label="ViewLayer_TechnicalLines.004">
        <g xmlns:inkscape="http://www.inkscape.org/namespaces/inkscape" inkscape:groupmode="layer" id="strokes" inkscape:label="strokes">
            <path fill="none" stroke-width="1.5" stroke-linecap="round" stroke-opacity="1.0" stroke="rgb(0, 0, 0)" stroke-linejoin="round" d=" M 322.370, 701.630 332.370, 701.630 342.370, 701.630 352.370, 701.630 362.370, 701.630 372.370, 701.630 382.370, 701.630 392.370, 701.630 402.370, 701.630 412.370, 701.630 422.370, 701.630 432.370, 701.630 442.370, 701.630 452.370, 701.630 462.370, 701.630 472.370, 701.630 482.370, 701.630 492.370, 701.630 502.370, 701.630 512.370, 701.630 522.370, 701.630 532.370, 701.630 542.370, 701.630 552.370, 701.630 562.370, 701.630 572.370, 701.630 582.370, 701.630 592.370, 701.630 602.370, 701.630 612.370, 701.630 622.370, 701.630 632.370, 701.630 642.370, 701.630 652.370, 701.630 662.370, 701.630 672.370, 701.630 682.370, 701.630 692.370, 701.630 701.630, 701.630 " />
            <path fill="none" stroke-width="1.5" stroke-linecap="round" stroke-opacity="1.0" stroke="rgb(0, 0, 0)" stroke-linejoin="round" d=" M 341.333, 651.062 331.333, 651.062 322.370, 651.062 322.370, 661.062 322.370, 671.062 322.370, 681.062 322.370, 688.988 " />
            <path fill="none" stroke-width="1.5" stroke-linecap="round" stroke-opacity="1.0" stroke="rgb(0, 0, 0)" stroke-linejoin="round" d=" M 701.630, 688.988 701.630, 678.988 701.630, 668.988 701.630, 658.988 701.630, 651.062 " />
            <path fill="none" stroke-width="1.5" stroke-linecap="round" stroke-opacity="1.0" stroke="rgb(0, 0, 0)" stroke-linejoin="round" d=" M 341.333, 701.630 341.333, 691.630 341.333, 688.988 " />
            <path fill="none" stroke-width="1.5" stroke-linecap="round" stroke-opacity="1.0" stroke="rgb(0, 0, 0)" stroke-linejoin="round" d=" M 720.593, 701.630 720.593, 691.630 720.593, 681.630 720.593, 671.630 720.593, 661.630 720.593, 651.630 720.593, 641.630 720.593, 631.630 720.593, 621.630 720.593, 611.630 720.593, 601.630 720.593, 591.630 720.593, 581.630 720.593, 571.630 720.593, 561.630 720.593, 551.630 720.593, 541.630 720.593, 531.630 720.593, 521.630 720.593, 511.630 720.593, 501.630 720.593, 491.630 720.593, 481.630 720.593, 471.630 720.593, 461.630 720.593, 451.630 720.593, 441.630 720.593, 431.630 720.593, 421.630 720.593, 411.630 720.593, 401.630 720.593, 391.630 720.593, 381.630 720.593, 371.630 720.593, 361.630 720.593, 351.630 720.593, 341.630 720.593, 331.630 720.593, 322.370 " />
            <path fill="none" stroke-width="1.5" stroke-linecap="round" stroke-opacity="1.0" stroke="rgb(0, 0, 0)" stroke-linejoin="round" d=" M 303.407, 322.370 303.407, 332.370 303.407, 342.370 303.407, 352.370 303.407, 362.370 303.407, 372.370 303.407, 382.370 303.407, 392.370 303.407, 402.370 303.407, 412.370 303.407, 422.370 303.407, 432.370 303.407, 442.370 303.407, 452.370 303.407, 462.370 303.407, 472.370 303.407, 482.370 303.407, 492.370 303.407, 502.370 303.407, 512.370 303.407, 522.370 303.407, 532.370 303.407, 542.370 303.407, 552.370 303.407, 562.370 303.407, 572.370 303.407, 582.370 303.407, 592.370 303.407, 602.370 303.407, 612.370 303.407, 622.370 303.407, 632.370 303.407, 642.370 303.407, 652.370 303.407, 662.370 303.407, 672.370 303.407, 682.370 303.407, 692.370 303.407, 701.630 " />
            <path fill="none" stroke-width="1.5" stroke-linecap="round" stroke-opacity="1.0" stroke="rgb(0, 0, 0)" stroke-linejoin="round" d=" M 322.370, 701.630 332.370, 701.630 341.333, 701.630 " />
            <path fill="none" stroke-width="1.5" stroke-linecap="round" stroke-opacity="1.0" stroke="rgb(0, 0, 0)" stroke-linejoin="round" d=" M 303.407, 701.630 313.407, 701.630 322.370, 701.630 " />
            <path fill="none" stroke-width="1.5" stroke-linecap="round" stroke-opacity="1.0" stroke="rgb(0, 0, 0)" stroke-linejoin="round" d=" M 322.370, 322.370 312.370, 322.370 303.407, 322.370 " />
            <path fill="none" stroke-width="1.5" stroke-linecap="round" stroke-opacity="1.0" stroke="rgb(0, 0, 0)" stroke-linejoin="round" d=" M 341.333, 322.370 331.333, 322.370 322.370, 322.370 " />
            <path fill="none" stroke-width="1.5" stroke-linecap="round" stroke-opacity="1.0" stroke="rgb(0, 0, 0)" stroke-linejoin="round" d=" M 341.333, 651.062 341.333, 641.062 341.333, 631.062 341.333, 621.062 341.333, 611.062 341.333, 601.062 341.333, 591.062 341.333, 581.062 341.333, 571.062 341.333, 561.062 341.333, 551.062 341.333, 541.062 341.333, 531.062 341.333, 521.062 341.333, 511.062 341.333, 501.062 341.333, 491.062 341.333, 481.062 341.333, 471.062 341.333, 461.062 341.333, 451.062 341.333, 441.062 341.333, 431.062 341.333, 421.062 341.333, 411.062 341.333, 401.062 341.333, 391.062 341.333, 381.062 341.333, 371.062 341.333, 361.062 341.333, 351.062 341.333, 341.062 341.333, 331.062 341.333, 322.370 " />
            <path fill="none" stroke-width="1.5" stroke-linecap="round" stroke-opacity="1.0" stroke="rgb(0, 0, 0)" stroke-linejoin="round" d=" M 355.556, 355.556 355.556, 365.556 355.556, 375.556 355.556, 385.556 355.556, 395.556 355.556, 405.556 355.556, 415.556 355.556, 425.556 355.556, 435.556 355.556, 445.556 355.556, 455.556 355.556, 465.556 355.556, 475.556 355.556, 485.556 355.556, 495.556 355.556, 505.556 355.556, 515.556 355.556, 525.556 355.556, 535.556 355.556, 545.556 355.556, 555.556 355.556, 565.556 355.556, 575.556 355.556, 585.556 355.556, 595.556 355.556, 605.556 355.556, 615.556 355.556, 625.556 355.556, 635.556 355.556, 645.556 355.556, 651.062 " />
            <path fill="none" stroke-width="1.5" stroke-linecap="round" stroke-opacity="1.0" stroke="rgb(0, 0, 0)" stroke-linejoin="round" d=" M 668.444, 355.556 658.444, 355.556 648.444, 355.556 638.444, 355.556 628.444, 355.556 618.444, 355.556 608.444, 355.556 598.444, 355.556 588.444, 355.556 578.444, 355.556 568.444, 355.556 558.444, 355.556 548.444, 355.556 538.444, 355.556 528.444, 355.556 518.444, 355.556 508.444, 355.556 498.444, 355.556 488.444, 355.556 478.444, 355.556 468.444, 355.556 458.444, 355.556 448.444, 355.556 438.444, 355.556 428.444, 355.556 418.444, 355.556 408.444, 355.556 398.444, 355.556 388.444, 355.556 378.444, 355.556 368.444, 355.556 355.556, 355.556 " />
            <path fill="none" stroke-width="1.5" stroke-linecap="round" stroke-opacity="1.0" stroke="rgb(0, 0, 0)" stroke-linejoin="round" d=" M 668.444, 651.062 668.444, 641.062 668.444, 631.062 668.444, 621.062 668.444, 611.062 668.444, 601.062 668.444, 591.062 668.444, 581.062 668.444, 571.062 668.444, 561.062 668.444, 551.062 668.444, 541.062 668.444, 531.062 668.444, 521.062 668.444, 511.062 668.444, 501.062 668.444, 491.062 668.444, 481.062 668.444, 471.062 668.444, 461.062 668.444, 451.062 668.444, 441.062 668.444, 431.062 668.444, 421.062 668.444, 411.062 668.444, 401.062 668.444, 391.062 668.444, 381.062 668.444, 371.062 668.444, 361.062 668.444, 355.556 " />
            <path fill="none" stroke-width="1.5" stroke-linecap="round" stroke-opacity="1.0" stroke="rgb(0, 0, 0)" stroke-linejoin="round" d=" M 682.667, 688.988 682.667, 698.988 682.667, 701.630 " />
            <path fill="none" stroke-width="1.5" stroke-linecap="round" stroke-opacity="1.0" stroke="rgb(0, 0, 0)" stroke-linejoin="round" d=" M 682.667, 322.370 682.667, 332.370 682.667, 342.370 682.667, 352.370 682.667, 362.370 682.667, 372.370 682.667, 382.370 682.667, 392.370 682.667, 402.370 682.667, 412.370 682.667, 422.370 682.667, 432.370 682.667, 442.370 682.667, 452.370 682.667, 462.370 682.667, 472.370 682.667, 482.370 682.667, 492.370 682.667, 502.370 682.667, 512.370 682.667, 522.370 682.667, 532.370 682.667, 542.370 682.667, 552.370 682.667, 562.370 682.667, 572.370 682.667, 582.370 682.667, 592.370 682.667, 602.370 682.667, 612.370 682.667, 622.370 682.667, 632.370 682.667, 642.370 682.667, 651.062 " />
            <path fill="none" stroke-width="1.5" stroke-linecap="round" stroke-opacity="1.0" stroke="rgb(0, 0, 0)" stroke-linejoin="round" d=" M 682.667, 688.988 692.667, 688.988 701.630, 688.988 " />
            <path fill="none" stroke-width="1.5" stroke-linecap="round" stroke-opacity="1.0" stroke="rgb(0, 0, 0)" stroke-linejoin="round" d=" M 341.333, 688.988 351.333, 688.988 361.333, 688.988 371.333, 688.988 381.333, 688.988 391.333, 688.988 401.333, 688.988 411.333, 688.988 421.333, 688.988 431.333, 688.988 441.333, 688.988 451.333, 688.988 461.333, 688.988 471.333, 688.988 481.333, 688.988 491.333, 688.988 501.333, 688.988 511.333, 688.988 521.333, 688.988 531.333, 688.988 541.333, 688.988 551.333, 688.988 561.333, 688.988 571.333, 688.988 581.333, 688.988 591.333, 688.988 601.333, 688.988 611.333, 688.988 621.333, 688.988 631.333, 688.988 641.333, 688.988 651.333, 688.988 661.333, 688.988 671.333, 688.988 682.667, 688.988 " />
            <path fill="none" stroke-width="1.5" stroke-linecap="round" stroke-opacity="1.0" stroke="rgb(0, 0, 0)" stroke-linejoin="round" d=" M 322.370, 688.988 332.370, 688.988 341.333, 688.988 " />
            <path fill="none" stroke-width="1.5" stroke-linecap="round" stroke-opacity="1.0" stroke="rgb(0, 0, 0)" stroke-linejoin="round" d=" M 355.556, 651.062 345.556, 651.062 341.333, 651.062 " />
            <path fill="none" stroke-width="1.5" stroke-linecap="round" stroke-opacity="1.0" stroke="rgb(0, 0, 0)" stroke-linejoin="round" d=" M 668.444, 651.062 658.444, 651.062 648.444, 651.062 638.444, 651.062 628.444, 651.062 618.444, 651.062 608.444, 651.062 598.444, 651.062 588.444, 651.062 578.444, 651.062 568.444, 651.062 558.444, 651.062 548.444, 651.062 538.444, 651.062 528.444, 651.062 518.444, 651.062 508.444, 651.062 498.444, 651.062 488.444, 651.062 478.444, 651.062 468.444, 651.062 458.444, 651.062 448.444, 651.062 438.444, 651.062 428.444, 651.062 418.444, 651.062 408.444, 651.062 398.444, 651.062 388.444, 651.062 378.444, 651.062 368.444, 651.062 355.556, 651.062 " />
            <path fill="none" stroke-width="1.5" stroke-linecap="round" stroke-opacity="1.0" stroke="rgb(0, 0, 0)" stroke-linejoin="round" d=" M 682.667, 651.062 672.667, 651.062 668.444, 651.062 " />
            <path fill="none" stroke-width="1.5" stroke-linecap="round" stroke-opacity="1.0" stroke="rgb(0, 0, 0)" stroke-linejoin="round" d=" M 701.630, 651.062 691.630, 651.062 682.667, 651.062 " />
            <path fill="none" stroke-width="1.5" stroke-linecap="round" stroke-opacity="1.0" stroke="rgb(0, 0, 0)" stroke-linejoin="round" d=" M 682.667, 322.370 672.667, 322.370 662.667, 322.370 652.667, 322.370 642.667, 322.370 632.667, 322.370 622.667, 322.370 612.667, 322.370 602.667, 322.370 592.667, 322.370 582.667, 322.370 572.667, 322.370 562.667, 322.370 552.667, 322.370 542.667, 322.370 532.667, 322.370 522.667, 322.370 512.667, 322.370 502.667, 322.370 492.667, 322.370 482.667, 322.370 472.667, 322.370 462.667, 322.370 452.667, 322.370 442.667, 322.370 432.667, 322.370 422.667, 322.370 412.667, 322.370 402.667, 322.370 392.667, 322.370 382.667, 322.370 372.667, 322.370 362.667, 322.370 352.667, 322.370 341.333, 322.370 " />
            <path fill="none" stroke-width="1.5" stroke-linecap="round" stroke-opacity="1.0" stroke="rgb(0, 0, 0)" stroke-linejoin="round" d=" M 701.630, 701.630 711.630, 701.630 720.593, 701.630 " />
            <path fill="none" stroke-width="1.5" stroke-linecap="round" stroke-opacity="1.0" stroke="rgb(0, 0, 0)" stroke-linejoin="round" d=" M 682.667, 701.630 692.667, 701.630 701.630, 701.630 " />
            <path fill="none" stroke-width="1.5" stroke-linecap="round" stroke-opacity="1.0" stroke="rgb(0, 0, 0)" stroke-linejoin="round" d=" M 701.630, 322.370 691.630, 322.370 682.667, 322.370 " />
            <path fill="none" stroke-width="1.5" stroke-linecap="round" stroke-opacity="1.0" stroke="rgb(0, 0, 0)" stroke-linejoin="round" d=" M 720.593, 322.370 710.593, 322.370 701.630, 322.370 " />
        </g>
    </g>
</svg>
