<?xml version='1.0' encoding='ascii'?>
<svg xmlns="http://www.w3.org/2000/svg" xmlns:inkscape="http://www.inkscape.org/namespaces/inkscape" version="1.1" width="1024" height="1024">
    <g id="ViewLayer_LineSet" inkscape:groupmode="lineset" inkscape:label="ViewLayer_LineSet">
        <g inkscape:groupmode="layer" id="strokes" inkscape:label="strokes">
            <path fill="none" stroke-width="3.0" stroke-linecap="butt" stroke-opacity="1.0" stroke="rgb(0, 0, 0)" stroke-linejoin="round" d=" M 290.765, 613.136 290.765, 603.136 290.765, 593.136 290.765, 587.852 " />
            <path fill="none" stroke-width="3.0" stroke-linecap="butt" stroke-opacity="1.0" stroke="rgb(0, 0, 0)" stroke-linejoin="round" d=" M 227.556, 461.432 227.556, 471.432 227.556, 481.432 227.556, 491.432 227.556, 501.432 227.556, 511.432 227.556, 521.432 227.556, 531.432 227.556, 541.432 227.556, 551.432 227.556, 561.432 227.556, 562.568 237.556, 562.568 247.556, 562.568 257.556, 562.568 267.556, 562.568 277.556, 562.568 287.556, 562.568 290.765, 562.568 290.765, 552.568 290.765, 542.568 290.765, 532.568 290.765, 522.568 290.765, 512.568 290.765, 502.568 290.765, 492.568 290.765, 482.568 290.765, 472.568 290.765, 462.568 290.765, 461.432 280.765, 461.432 270.765, 461.432 260.765, 461.432 250.765, 461.432 240.765, 461.432 230.765, 461.432 227.556, 461.432 " />
            <path fill="none" stroke-width="3.0" stroke-linecap="butt" stroke-opacity="1.0" stroke="rgb(0, 0, 0)" stroke-linejoin="round" d=" M 227.556, 410.864 227.556, 420.864 227.556, 430.864 227.556, 440.864 227.556, 450.864 227.556, 460.864 227.556, 461.432 237.556, 461.432 247.556, 461.432 257.556, 461.432 267.556, 461.432 277.556, 461.432 287.556, 461.432 290.765, 461.432 290.765, 451.432 290.765, 441.432 290.765, 431.432 290.765, 421.432 290.765, 411.432 290.765, 410.864 280.765, 410.864 270.765, 410.864 260.765, 410.864 250.765, 410.864 240.765, 410.864 230.765, 410.864 227.556, 410.864 " />
            <path fill="none" stroke-width="3.0" stroke-linecap="butt" stroke-opacity="1.0" stroke="rgb(0, 0, 0)" stroke-linejoin="round" d=" M 733.235, 587.852 733.235, 597.852 733.235, 607.852 733.235, 613.136 743.235, 613.136 753.235, 613.136 763.235, 613.136 773.235, 613.136 783.235, 613.136 793.235, 613.136 796.444, 613.136 796.444, 603.136 796.444, 593.136 796.444, 587.852 " />
            <path fill="none" stroke-width="3.0" stroke-linecap="butt" stroke-opacity="1.0" stroke="rgb(0, 0, 0)" stroke-linejoin="round" d=" M 796.444, 537.284 786.444, 537.284 776.444, 537.284 766.444, 537.284 756.444, 537.284 746.444, 537.284 736.444, 537.284 733.235, 537.284 733.235, 547.284 733.235, 557.284 733.235, 567.284 733.235, 577.284 733.235, 587.284 733.235, 587.852 743.235, 587.852 753.235, 587.852 763.235, 587.852 773.235, 587.852 783.235, 587.852 793.235, 587.852 796.444, 587.852 796.444, 577.852 796.444, 567.852 796.444, 557.852 796.444, 547.852 796.444, 537.852 796.444, 537.284 " />
            <path fill="none" stroke-width="3.0" stroke-linecap="butt" stroke-opacity="1.0" stroke="rgb(0, 0, 0)" stroke-linejoin="round" d=" M 227.556, 587.852 227.556, 597.852 227.556, 607.852 227.556, 613.136 " />
            <path fill="none" stroke-width="3.0" stroke-linecap="butt" stroke-opacity="1.0" stroke="rgb(0, 0, 0)" stroke-linejoin="round" d=" M 227.556, 613.136 237.556, 613.136 247.556, 613.136 257.556, 613.136 267.556, 613.136 277.556, 613.136 287.556, 613.136 290.765, 613.136 " />
            <path fill="none" stroke-width="3.0" stroke-linecap="butt" stroke-opacity="1.0" stroke="rgb(0, 0, 0)" stroke-linejoin="round" d=" M 290.765, 587.852 280.765, 587.852 270.765, 587.852 260.765, 587.852 250.765, 587.852 240.765, 587.852 230.765, 587.852 227.556, 587.852 " />
        </g>
    </g>
    <g id="ViewLayer_TechnicalLines" inkscape:groupmode="lineset" inkscape:label="ViewLayer_TechnicalLines">
        <g inkscape:groupmode="layer" id="strokes" inkscape:label="strokes">
            <path fill="none" stroke-width="3.0" stroke-linecap="butt" stroke-opacity="1.0" stroke="rgb(0, 0, 0)" stroke-linejoin="round" d=" M 290.765, 613.136 290.765, 603.136 290.765, 593.136 290.765, 587.852 " />
            <path fill="none" stroke-width="3.0" stroke-linecap="butt" stroke-opacity="1.0" stroke="rgb(0, 0, 0)" stroke-linejoin="round" d=" M 227.556, 461.432 227.556, 471.432 227.556, 481.432 227.556, 491.432 227.556, 501.432 227.556, 511.432 227.556, 521.432 227.556, 531.432 227.556, 541.432 227.556, 551.432 227.556, 561.432 227.556, 562.568 237.556, 562.568 247.556, 562.568 257.556, 562.568 267.556, 562.568 277.556, 562.568 287.556, 562.568 290.765, 562.568 290.765, 552.568 290.765, 542.568 290.765, 532.568 290.765, 522.568 290.765, 512.568 290.765, 502.568 290.765, 492.568 290.765, 482.568 290.765, 472.568 290.765, 462.568 290.765, 461.432 280.765, 461.432 270.765, 461.432 260.765, 461.432 250.765, 461.432 240.765, 461.432 230.765, 461.432 227.556, 461.432 " />
            <path fill="none" stroke-width="3.0" stroke-linecap="butt" stroke-opacity="1.0" stroke="rgb(0, 0, 0)" stroke-linejoin="round" d=" M 227.556, 410.864 227.556, 420.864 227.556, 430.864 227.556, 440.864 227.556, 450.864 227.556, 460.864 227.556, 461.432 237.556, 461.432 247.556, 461.432 257.556, 461.432 267.556, 461.432 277.556, 461.432 287.556, 461.432 290.765, 461.432 290.765, 451.432 290.765, 441.432 290.765, 431.432 290.765, 421.432 290.765, 411.432 290.765, 410.864 280.765, 410.864 270.765, 410.864 260.765, 410.864 250.765, 410.864 240.765, 410.864 230.765, 410.864 227.556, 410.864 " />
            <path fill="none" stroke-width="3.0" stroke-linecap="butt" stroke-opacity="1.0" stroke="rgb(0, 0, 0)" stroke-linejoin="round" d=" M 733.235, 587.852 733.235, 597.852 733.235, 607.852 733.235, 613.136 743.235, 613.136 753.235, 613.136 763.235, 613.136 773.235, 613.136 783.235, 613.136 793.235, 613.136 796.444, 613.136 796.444, 603.136 796.444, 593.136 796.444, 587.852 " />
            <path fill="none" stroke-width="3.0" stroke-linecap="butt" stroke-opacity="1.0" stroke="rgb(0, 0, 0)" stroke-linejoin="round" d=" M 796.444, 537.284 786.444, 537.284 776.444, 537.284 766.444, 537.284 756.444, 537.284 746.444, 537.284 736.444, 537.284 733.235, 537.284 733.235, 547.284 733.235, 557.284 733.235, 567.284 733.235, 577.284 733.235, 587.284 733.235, 587.852 743.235, 587.852 753.235, 587.852 763.235, 587.852 773.235, 587.852 783.235, 587.852 793.235, 587.852 796.444, 587.852 796.444, 577.852 796.444, 567.852 796.444, 557.852 796.444, 547.852 796.444, 537.852 796.444, 537.284 " />
            <path fill="none" stroke-width="3.0" stroke-linecap="butt" stroke-opacity="1.0" stroke="rgb(0, 0, 0)" stroke-linejoin="round" d=" M 227.556, 587.852 227.556, 597.852 227.556, 607.852 227.556, 613.136 " />
            <path fill="none" stroke-width="3.0" stroke-linecap="butt" stroke-opacity="1.0" stroke="rgb(0, 0, 0)" stroke-linejoin="round" d=" M 227.556, 613.136 237.556, 613.136 247.556, 613.136 257.556, 613.136 267.556, 613.136 277.556, 613.136 287.556, 613.136 290.765, 613.136 " />
            <path fill="none" stroke-width="3.0" stroke-linecap="butt" stroke-opacity="1.0" stroke="rgb(0, 0, 0)" stroke-linejoin="round" d=" M 290.765, 587.852 280.765, 587.852 270.765, 587.852 260.765, 587.852 250.765, 587.852 240.765, 587.852 230.765, 587.852 227.556, 587.852 " />
        </g>
    </g>
    <g id="ViewLayer_TechnicalLines.001" inkscape:groupmode="lineset" inkscape:label="ViewLayer_TechnicalLines.001">
        <g inkscape:groupmode="layer" id="strokes" inkscape:label="strokes">
            <path fill="none" stroke-width="1.5" stroke-linecap="round" stroke-opacity="1.0" stroke="rgb(0, 0, 0)" stroke-linejoin="round" d=" M 290.765, 613.136 290.765, 603.136 290.765, 593.136 290.765, 587.852 " />
            <path fill="none" stroke-width="1.5" stroke-linecap="round" stroke-opacity="1.0" stroke="rgb(0, 0, 0)" stroke-linejoin="round" d=" M 227.556, 461.432 227.556, 471.432 227.556, 481.432 227.556, 491.432 227.556, 501.432 227.556, 511.432 227.556, 521.432 227.556, 531.432 227.556, 541.432 227.556, 551.432 227.556, 561.432 227.556, 562.568 237.556, 562.568 247.556, 562.568 257.556, 562.568 267.556, 562.568 277.556, 562.568 287.556, 562.568 290.765, 562.568 290.765, 552.568 290.765, 542.568 290.765, 532.568 290.765, 522.568 290.765, 512.568 290.765, 502.568 290.765, 492.568 290.765, 482.568 290.765, 472.568 290.765, 462.568 290.765, 461.432 280.765, 461.432 270.765, 461.432 260.765, 461.432 250.765, 461.432 240.765, 461.432 230.765, 461.432 227.556, 461.432 " />
            <path fill="none" stroke-width="1.5" stroke-linecap="round" stroke-opacity="1.0" stroke="rgb(0, 0, 0)" stroke-linejoin="round" d=" M 227.556, 410.864 227.556, 420.864 227.556, 430.864 227.556, 440.864 227.556, 450.864 227.556, 460.864 227.556, 461.432 237.556, 461.432 247.556, 461.432 257.556, 461.432 267.556, 461.432 277.556, 461.432 287.556, 461.432 290.765, 461.432 290.765, 451.432 290.765, 441.432 290.765, 431.432 290.765, 421.432 290.765, 411.432 290.765, 410.864 280.765, 410.864 270.765, 410.864 260.765, 410.864 250.765, 410.864 240.765, 410.864 230.765, 410.864 227.556, 410.864 " />
            <path fill="none" stroke-width="1.5" stroke-linecap="round" stroke-opacity="1.0" stroke="rgb(0, 0, 0)" stroke-linejoin="round" d=" M 733.235, 587.852 733.235, 597.852 733.235, 607.852 733.235, 613.136 743.235, 613.136 753.235, 613.136 763.235, 613.136 773.235, 613.136 783.235, 613.136 793.235, 613.136 796.444, 613.136 796.444, 603.136 796.444, 593.136 796.444, 587.852 " />
            <path fill="none" stroke-width="1.5" stroke-linecap="round" stroke-opacity="1.0" stroke="rgb(0, 0, 0)" stroke-linejoin="round" d=" M 796.444, 537.284 786.444, 537.284 776.444, 537.284 766.444, 537.284 756.444, 537.284 746.444, 537.284 736.444, 537.284 733.235, 537.284 733.235, 547.284 733.235, 557.284 733.235, 567.284 733.235, 577.284 733.235, 587.284 733.235, 587.852 743.235, 587.852 753.235, 587.852 763.235, 587.852 773.235, 587.852 783.235, 587.852 793.235, 587.852 796.444, 587.852 796.444, 577.852 796.444, 567.852 796.444, 557.852 796.444, 547.852 796.444, 537.852 796.444, 537.284 " />
            <path fill="none" stroke-width="1.5" stroke-linecap="round" stroke-opacity="1.0" stroke="rgb(0, 0, 0)" stroke-linejoin="round" d=" M 227.556, 587.852 227.556, 597.852 227.556, 607.852 227.556, 613.136 " />
            <path fill="none" stroke-width="1.5" stroke-linecap="round" stroke-opacity="1.0" stroke="rgb(0, 0, 0)" stroke-linejoin="round" d=" M 227.556, 613.136 237.556, 613.136 247.556, 613.136 257.556, 613.136 267.556, 613.136 277.556, 613.136 287.556, 613.136 290.765, 613.136 " />
            <path fill="none" stroke-width="1.5" stroke-linecap="round" stroke-opacity="1.0" stroke="rgb(0, 0, 0)" stroke-linejoin="round" d=" M 290.765, 587.852 280.765, 587.852 270.765, 587.852 260.765, 587.852 250.765, 587.852 240.765, 587.852 230.765, 587.852 227.556, 587.852 " />
        </g>
    </g>
    <g id="ViewLayer_TechnicalLines.002" inkscape:groupmode="lineset" inkscape:label="ViewLayer_TechnicalLines.002">
        <g inkscape:groupmode="layer" id="strokes" inkscape:label="strokes">
            <path fill="none" stroke-width="1.5" stroke-linecap="round" stroke-opacity="1.0" stroke="rgb(0, 0, 0)" stroke-linejoin="round" d=" M 290.765, 613.136 290.765, 603.136 290.765, 593.136 290.765, 587.852 " />
            <path fill="none" stroke-width="1.5" stroke-linecap="round" stroke-opacity="1.0" stroke="rgb(0, 0, 0)" stroke-linejoin="round" d=" M 227.556, 461.432 227.556, 471.432 227.556, 481.432 227.556, 491.432 227.556, 501.432 227.556, 511.432 227.556, 521.432 227.556, 531.432 227.556, 541.432 227.556, 551.432 227.556, 561.432 227.556, 562.568 237.556, 562.568 247.556, 562.568 257.556, 562.568 267.556, 562.568 277.556, 562.568 287.556, 562.568 290.765, 562.568 290.765, 552.568 290.765, 542.568 290.765, 532.568 290.765, 522.568 290.765, 512.568 290.765, 502.568 290.765, 492.568 290.765, 482.568 290.765, 472.568 290.765, 462.568 290.765, 461.432 280.765, 461.432 270.765, 461.432 260.765, 461.432 250.765, 461.432 240.765, 461.432 230.765, 461.432 227.556, 461.432 " />
            <path fill="none" stroke-width="1.5" stroke-linecap="round" stroke-opacity="1.0" stroke="rgb(0, 0, 0)" stroke-linejoin="round" d=" M 227.556, 410.864 227.556, 420.864 227.556, 430.864 227.556, 440.864 227.556, 450.864 227.556, 460.864 227.556, 461.432 237.556, 461.432 247.556, 461.432 257.556, 461.432 267.556, 461.432 277.556, 461.432 287.556, 461.432 290.765, 461.432 290.765, 451.432 290.765, 441.432 290.765, 431.432 290.765, 421.432 290.765, 411.432 290.765, 410.864 280.765, 410.864 270.765, 410.864 260.765, 410.864 250.765, 410.864 240.765, 410.864 230.765, 410.864 227.556, 410.864 " />
            <path fill="none" stroke-width="1.5" stroke-linecap="round" stroke-opacity="1.0" stroke="rgb(0, 0, 0)" stroke-linejoin="round" d=" M 733.235, 587.852 733.235, 597.852 733.235, 607.852 733.235, 613.136 743.235, 613.136 753.235, 613.136 763.235, 613.136 773.235, 613.136 783.235, 613.136 793.235, 613.136 796.444, 613.136 796.444, 603.136 796.444, 593.136 796.444, 587.852 " />
            <path fill="none" stroke-width="1.5" stroke-linecap="round" stroke-opacity="1.0" stroke="rgb(0, 0, 0)" stroke-linejoin="round" d=" M 796.444, 537.284 786.444, 537.284 776.444, 537.284 766.444, 537.284 756.444, 537.284 746.444, 537.284 736.444, 537.284 733.235, 537.284 733.235, 547.284 733.235, 557.284 733.235, 567.284 733.235, 577.284 733.235, 587.284 733.235, 587.852 743.235, 587.852 753.235, 587.852 763.235, 587.852 773.235, 587.852 783.235, 587.852 793.235, 587.852 796.444, 587.852 796.444, 577.852 796.444, 567.852 796.444, 557.852 796.444, 547.852 796.444, 537.852 796.444, 537.284 " />
            <path fill="none" stroke-width="1.5" stroke-linecap="round" stroke-opacity="1.0" stroke="rgb(0, 0, 0)" stroke-linejoin="round" d=" M 227.556, 587.852 227.556, 597.852 227.556, 607.852 227.556, 613.136 " />
            <path fill="none" stroke-width="1.5" stroke-linecap="round" stroke-opacity="1.0" stroke="rgb(0, 0, 0)" stroke-linejoin="round" d=" M 227.556, 613.136 237.556, 613.136 247.556, 613.136 257.556, 613.136 267.556, 613.136 277.556, 613.136 287.556, 613.136 290.765, 613.136 " />
            <path fill="none" stroke-width="1.5" stroke-linecap="round" stroke-opacity="1.0" stroke="rgb(0, 0, 0)" stroke-linejoin="round" d=" M 290.765, 587.852 280.765, 587.852 270.765, 587.852 260.765, 587.852 250.765, 587.852 240.765, 587.852 230.765, 587.852 227.556, 587.852 " />
        </g>
    </g>
    <g id="ViewLayer_TechnicalLines.003" inkscape:groupmode="lineset" inkscape:label="ViewLayer_TechnicalLines.003">
        <g inkscape:groupmode="layer" id="strokes" inkscape:label="strokes">
            <path fill="none" stroke-width="1.5" stroke-linecap="round" stroke-opacity="1.0" stroke="rgb(0, 0, 0)" stroke-linejoin="round" d=" M 290.765, 613.136 290.765, 603.136 290.765, 593.136 290.765, 587.852 " />
            <path fill="none" stroke-width="1.5" stroke-linecap="round" stroke-opacity="1.0" stroke="rgb(0, 0, 0)" stroke-linejoin="round" d=" M 227.556, 461.432 227.556, 471.432 227.556, 481.432 227.556, 491.432 227.556, 501.432 227.556, 511.432 227.556, 521.432 227.556, 531.432 227.556, 541.432 227.556, 551.432 227.556, 561.432 227.556, 562.568 237.556, 562.568 247.556, 562.568 257.556, 562.568 267.556, 562.568 277.556, 562.568 287.556, 562.568 290.765, 562.568 290.765, 552.568 290.765, 542.568 290.765, 532.568 290.765, 522.568 290.765, 512.568 290.765, 502.568 290.765, 492.568 290.765, 482.568 290.765, 472.568 290.765, 462.568 290.765, 461.432 280.765, 461.432 270.765, 461.432 260.765, 461.432 250.765, 461.432 240.765, 461.432 230.765, 461.432 227.556, 461.432 " />
            <path fill="none" stroke-width="1.5" stroke-linecap="round" stroke-opacity="1.0" stroke="rgb(0, 0, 0)" stroke-linejoin="round" d=" M 227.556, 410.864 227.556, 420.864 227.556, 430.864 227.556, 440.864 227.556, 450.864 227.556, 460.864 227.556, 461.432 237.556, 461.432 247.556, 461.432 257.556, 461.432 267.556, 461.432 277.556, 461.432 287.556, 461.432 290.765, 461.432 290.765, 451.432 290.765, 441.432 290.765, 431.432 290.765, 421.432 290.765, 411.432 290.765, 410.864 280.765, 410.864 270.765, 410.864 260.765, 410.864 250.765, 410.864 240.765, 410.864 230.765, 410.864 227.556, 410.864 " />
            <path fill="none" stroke-width="1.5" stroke-linecap="round" stroke-opacity="1.0" stroke="rgb(0, 0, 0)" stroke-linejoin="round" d=" M 733.235, 587.852 733.235, 597.852 733.235, 607.852 733.235, 613.136 743.235, 613.136 753.235, 613.136 763.235, 613.136 773.235, 613.136 783.235, 613.136 793.235, 613.136 796.444, 613.136 796.444, 603.136 796.444, 593.136 796.444, 587.852 " />
            <path fill="none" stroke-width="1.5" stroke-linecap="round" stroke-opacity="1.0" stroke="rgb(0, 0, 0)" stroke-linejoin="round" d=" M 796.444, 537.284 786.444, 537.284 776.444, 537.284 766.444, 537.284 756.444, 537.284 746.444, 537.284 736.444, 537.284 733.235, 537.284 733.235, 547.284 733.235, 557.284 733.235, 567.284 733.235, 577.284 733.235, 587.284 733.235, 587.852 743.235, 587.852 753.235, 587.852 763.235, 587.852 773.235, 587.852 783.235, 587.852 793.235, 587.852 796.444, 587.852 796.444, 577.852 796.444, 567.852 796.444, 557.852 796.444, 547.852 796.444, 537.852 796.444, 537.284 " />
            <path fill="none" stroke-width="1.5" stroke-linecap="round" stroke-opacity="1.0" stroke="rgb(0, 0, 0)" stroke-linejoin="round" d=" M 227.556, 587.852 227.556, 597.852 227.556, 607.852 227.556, 613.136 " />
            <path fill="none" stroke-width="1.5" stroke-linecap="round" stroke-opacity="1.0" stroke="rgb(0, 0, 0)" stroke-linejoin="round" d=" M 227.556, 613.136 237.556, 613.136 247.556, 613.136 257.556, 613.136 267.556, 613.136 277.556, 613.136 287.556, 613.136 290.765, 613.136 " />
            <path fill="none" stroke-width="1.5" stroke-linecap="round" stroke-opacity="1.0" stroke="rgb(0, 0, 0)" stroke-linejoin="round" d=" M 290.765, 587.852 280.765, 587.852 270.765, 587.852 260.765, 587.852 250.765, 587.852 240.765, 587.852 230.765, 587.852 227.556, 587.852 " />
        </g>
    </g>
    <g id="ViewLayer_TechnicalLines.004" xmlns:inkscape="http://www.inkscape.org/namespaces/inkscape" inkscape:groupmode="lineset" inkscape:label="ViewLayer_TechnicalLines.004">
        <g xmlns:inkscape="http://www.inkscape.org/namespaces/inkscape" inkscape:groupmode="layer" id="strokes" inkscape:label="strokes">
            <path fill="none" stroke-width="1.5" stroke-linecap="round" stroke-opacity="1.0" stroke="rgb(0, 0, 0)" stroke-linejoin="round" d=" M 290.765, 613.136 290.765, 603.136 290.765, 593.136 290.765, 587.852 " />
            <path fill="none" stroke-width="1.5" stroke-linecap="round" stroke-opacity="1.0" stroke="rgb(0, 0, 0)" stroke-linejoin="round" d=" M 227.556, 461.432 227.556, 471.432 227.556, 481.432 227.556, 491.432 227.556, 501.432 227.556, 511.432 227.556, 521.432 227.556, 531.432 227.556, 541.432 227.556, 551.432 227.556, 561.432 227.556, 562.568 237.556, 562.568 247.556, 562.568 257.556, 562.568 267.556, 562.568 277.556, 562.568 287.556, 562.568 290.765, 562.568 290.765, 552.568 290.765, 542.568 290.765, 532.568 290.765, 522.568 290.765, 512.568 290.765, 502.568 290.765, 492.568 290.765, 482.568 290.765, 472.568 290.765, 462.568 290.765, 461.432 280.765, 461.432 270.765, 461.432 260.765, 461.432 250.765, 461.432 240.765, 461.432 230.765, 461.432 227.556, 461.432 " />
            <path fill="none" stroke-width="1.5" stroke-linecap="round" stroke-opacity="1.0" stroke="rgb(0, 0, 0)" stroke-linejoin="round" d=" M 227.556, 410.864 227.556, 420.864 227.556, 430.864 227.556, 440.864 227.556, 450.864 227.556, 460.864 227.556, 461.432 237.556, 461.432 247.556, 461.432 257.556, 461.432 267.556, 461.432 277.556, 461.432 287.556, 461.432 290.765, 461.432 290.765, 451.432 290.765, 441.432 290.765, 431.432 290.765, 421.432 290.765, 411.432 290.765, 410.864 280.765, 410.864 270.765, 410.864 260.765, 410.864 250.765, 410.864 240.765, 410.864 230.765, 410.864 227.556, 410.864 " />
            <path fill="none" stroke-width="1.5" stroke-linecap="round" stroke-opacity="1.0" stroke="rgb(0, 0, 0)" stroke-linejoin="round" d=" M 733.235, 587.852 733.235, 597.852 733.235, 607.852 733.235, 613.136 743.235, 613.136 753.235, 613.136 763.235, 613.136 773.235, 613.136 783.235, 613.136 793.235, 613.136 796.444, 613.136 796.444, 603.136 796.444, 593.136 796.444, 587.852 " />
            <path fill="none" stroke-width="1.5" stroke-linecap="round" stroke-opacity="1.0" stroke="rgb(0, 0, 0)" stroke-linejoin="round" d=" M 796.444, 537.284 786.444, 537.284 776.444, 537.284 766.444, 537.284 756.444, 537.284 746.444, 537.284 736.444, 537.284 733.235, 537.284 733.235, 547.284 733.235, 557.284 733.235, 567.284 733.235, 577.284 733.235, 587.284 733.235, 587.852 743.235, 587.852 753.235, 587.852 763.235, 587.852 773.235, 587.852 783.235, 587.852 793.235, 587.852 796.444, 587.852 796.444, 577.852 796.444, 567.852 796.444, 557.852 796.444, 547.852 796.444, 537.852 796.444, 537.284 " />
            <path fill="none" stroke-width="1.5" stroke-linecap="round" stroke-opacity="1.0" stroke="rgb(0, 0, 0)" stroke-linejoin="round" d=" M 227.556, 587.852 227.556, 597.852 227.556, 607.852 227.556, 613.136 " />
            <path fill="none" stroke-width="1.5" stroke-linecap="round" stroke-opacity="1.0" stroke="rgb(0, 0, 0)" stroke-linejoin="round" d=" M 227.556, 613.136 237.556, 613.136 247.556, 613.136 257.556, 613.136 267.556, 613.136 277.556, 613.136 287.556, 613.136 290.765, 613.136 " />
            <path fill="none" stroke-width="1.5" stroke-linecap="round" stroke-opacity="1.0" stroke="rgb(0, 0, 0)" stroke-linejoin="round" d=" M 290.765, 587.852 280.765, 587.852 270.765, 587.852 260.765, 587.852 250.765, 587.852 240.765, 587.852 230.765, 587.852 227.556, 587.852 " />
        </g>
    </g>
</svg>
