<?xml version='1.0' encoding='ascii'?>
<svg xmlns="http://www.w3.org/2000/svg" xmlns:inkscape="http://www.inkscape.org/namespaces/inkscape" version="1.1" width="1024" height="1024">
    <g id="ViewLayer_LineSet" inkscape:groupmode="lineset" inkscape:label="ViewLayer_LineSet">
        <g inkscape:groupmode="layer" id="strokes" inkscape:label="strokes">
            <path fill="none" stroke-width="3.0" stroke-linecap="butt" stroke-opacity="1.0" stroke="rgb(0, 0, 0)" stroke-linejoin="round" d=" M 382.707, 796.444 383.121, 796.444 384.347, 796.444 386.339, 796.444 389.019, 796.444 392.284, 796.444 396.010, 796.444 400.052, 796.444 404.256, 796.444 408.460, 796.444 412.502, 796.444 416.228, 796.444 419.493, 796.444 422.173, 796.444 424.164, 796.444 425.391, 796.444 425.805, 796.444 425.805, 786.444 425.805, 776.444 425.805, 766.444 425.805, 756.444 425.805, 746.444 425.805, 736.444 425.805, 726.444 425.805, 716.444 425.805, 706.444 425.805, 696.444 425.805, 686.444 425.805, 676.444 425.805, 666.444 425.805, 656.444 425.805, 646.444 425.805, 636.444 425.805, 626.444 425.805, 616.444 425.805, 606.444 425.805, 596.444 425.805, 586.444 425.805, 576.444 425.805, 566.444 425.805, 556.444 425.805, 546.444 425.805, 536.444 425.805, 526.444 425.805, 516.444 425.805, 506.445 425.805, 496.445 425.805, 486.445 425.805, 476.445 425.805, 466.445 425.805, 458.128 425.805, 458.128 " />
            <path fill="none" stroke-width="3.0" stroke-linecap="butt" stroke-opacity="1.0" stroke="rgb(0, 0, 0)" stroke-linejoin="round" d=" M 641.293, 796.444 641.293, 786.444 641.293, 776.444 641.293, 766.444 641.293, 756.444 641.293, 746.444 641.293, 736.444 641.293, 726.444 641.293, 716.444 641.293, 706.444 641.293, 696.444 641.293, 686.444 641.293, 676.444 641.293, 666.444 641.293, 656.444 641.293, 646.444 641.293, 636.444 641.293, 626.444 641.293, 616.444 641.293, 606.444 641.293, 596.444 641.293, 586.444 641.293, 576.444 641.293, 566.444 641.293, 556.444 641.293, 546.444 641.293, 536.444 641.293, 526.444 641.293, 516.444 641.293, 506.445 641.293, 496.445 641.293, 486.445 641.293, 476.445 641.293, 466.445 641.293, 458.128 641.293, 458.128 " />
            <path fill="none" stroke-width="3.0" stroke-linecap="butt" stroke-opacity="1.0" stroke="rgb(0, 0, 0)" stroke-linejoin="round" d=" M 598.195, 796.444 598.609, 796.444 599.836, 796.444 601.827, 796.444 604.507, 796.444 607.772, 796.444 611.498, 796.444 615.540, 796.444 619.744, 796.444 623.948, 796.444 627.990, 796.444 631.716, 796.444 634.981, 796.444 637.661, 796.444 639.653, 796.444 640.879, 796.444 641.293, 796.444 " />
            <path fill="none" stroke-width="3.0" stroke-linecap="butt" stroke-opacity="1.0" stroke="rgb(0, 0, 0)" stroke-linejoin="round" d=" M 641.293, 458.128 641.293, 448.128 641.293, 445.199 631.293, 445.199 621.293, 445.199 611.293, 445.199 601.293, 445.199 591.293, 445.199 581.293, 445.199 571.293, 445.199 561.293, 445.199 551.293, 445.199 541.293, 445.199 531.293, 445.199 521.293, 445.199 511.293, 445.199 501.293, 445.199 491.293, 445.199 481.293, 445.199 471.293, 445.199 461.293, 445.199 451.293, 445.199 441.293, 445.199 431.293, 445.199 421.293, 445.199 411.293, 445.199 401.293, 445.199 391.293, 445.199 382.707, 445.199 382.707, 455.199 382.707, 458.128 " />
            <path fill="none" stroke-width="3.0" stroke-linecap="butt" stroke-opacity="1.0" stroke="rgb(0, 0, 0)" stroke-linejoin="round" d=" M 505.535, 227.556 505.535, 237.556 505.535, 247.556 505.535, 257.556 505.535, 267.556 505.535, 277.556 505.535, 287.556 505.535, 297.556 505.535, 307.556 505.535, 317.556 505.535, 327.556 505.535, 330.990 515.535, 330.990 518.465, 330.990 518.465, 320.990 518.465, 310.990 518.465, 300.990 518.465, 290.990 518.465, 280.990 518.465, 270.990 518.465, 260.990 518.465, 250.990 518.465, 240.990 518.465, 230.990 518.465, 227.556 " />
            <path fill="none" stroke-width="3.0" stroke-linecap="butt" stroke-opacity="1.0" stroke="rgb(0, 0, 0)" stroke-linejoin="round" d=" M 382.707, 458.128 382.707, 458.128 382.707, 468.128 382.707, 478.128 382.707, 488.128 382.707, 498.128 382.707, 508.128 382.707, 518.128 382.707, 528.128 382.707, 538.128 382.707, 548.128 382.707, 558.128 382.707, 568.128 382.707, 578.128 382.707, 588.128 382.707, 598.128 382.707, 608.128 382.707, 618.128 382.707, 628.128 382.707, 638.128 382.707, 648.128 382.707, 658.128 382.707, 668.128 382.707, 678.128 382.707, 688.128 382.707, 698.128 382.707, 708.128 382.707, 718.128 382.707, 728.128 382.707, 738.128 382.707, 748.128 382.707, 758.128 382.707, 768.128 382.707, 778.128 382.707, 788.128 382.707, 796.444 " />
            <path fill="none" stroke-width="3.0" stroke-linecap="butt" stroke-opacity="1.0" stroke="rgb(0, 0, 0)" stroke-linejoin="round" d=" M 518.465, 227.556 508.465, 227.556 505.535, 227.556 " />
            <path fill="none" stroke-width="3.0" stroke-linecap="butt" stroke-opacity="1.0" stroke="rgb(0, 0, 0)" stroke-linejoin="round" d=" M 598.195, 458.128 598.195, 458.128 598.195, 468.128 598.195, 478.128 598.195, 488.128 598.195, 498.128 598.195, 508.128 598.195, 518.128 598.195, 528.128 598.195, 538.128 598.195, 548.128 598.195, 558.128 598.195, 568.128 598.195, 578.128 598.195, 588.128 598.195, 598.128 598.195, 608.128 598.195, 618.128 598.195, 628.128 598.195, 638.128 598.195, 648.128 598.195, 658.128 598.195, 668.128 598.195, 678.128 598.195, 688.128 598.195, 698.128 598.195, 708.128 598.195, 718.128 598.195, 728.128 598.195, 738.128 598.195, 748.128 598.195, 758.128 598.195, 768.128 598.195, 778.128 598.195, 788.128 598.195, 796.444 " />
            <path fill="none" stroke-width="3.0" stroke-linecap="butt" stroke-opacity="1.0" stroke="rgb(0, 0, 0)" stroke-linejoin="round" d=" M 425.805, 458.128 435.805, 458.128 445.805, 458.128 455.805, 458.128 465.805, 458.128 475.805, 458.128 485.805, 458.128 495.805, 458.128 505.805, 458.128 515.805, 458.128 525.805, 458.128 535.805, 458.128 545.805, 458.128 555.805, 458.128 565.805, 458.128 575.805, 458.128 585.805, 458.128 595.805, 458.128 598.195, 458.128 " />
            <path fill="none" stroke-width="3.0" stroke-linecap="butt" stroke-opacity="1.0" stroke="rgb(0, 0, 0)" stroke-linejoin="round" d=" M 598.195, 458.128 608.195, 458.128 618.195, 458.128 628.195, 458.128 638.195, 458.128 641.293, 458.128 " />
            <path fill="none" stroke-width="3.0" stroke-linecap="butt" stroke-opacity="1.0" stroke="rgb(0, 0, 0)" stroke-linejoin="round" d=" M 425.805, 458.128 435.805, 458.128 445.805, 458.128 455.805, 458.128 465.805, 458.128 475.805, 458.128 485.805, 458.128 495.805, 458.128 505.805, 458.128 515.805, 458.128 525.805, 458.128 535.805, 458.128 545.805, 458.128 555.805, 458.128 565.805, 458.128 575.805, 458.128 585.805, 458.128 595.805, 458.128 598.195, 458.128 " />
            <path fill="none" stroke-width="3.0" stroke-linecap="butt" stroke-opacity="1.0" stroke="rgb(0, 0, 0)" stroke-linejoin="round" d=" M 382.707, 458.128 392.707, 458.128 402.707, 458.128 412.707, 458.128 422.707, 458.128 425.805, 458.128 " />
        </g>
    </g>
    <g id="ViewLayer_TechnicalLines" inkscape:groupmode="lineset" inkscape:label="ViewLayer_TechnicalLines">
        <g inkscape:groupmode="layer" id="strokes" inkscape:label="strokes">
            <path fill="none" stroke-width="3.0" stroke-linecap="butt" stroke-opacity="1.0" stroke="rgb(0, 0, 0)" stroke-linejoin="round" d=" M 382.707, 796.444 383.121, 796.444 384.347, 796.444 386.339, 796.444 389.019, 796.444 392.284, 796.444 396.010, 796.444 400.052, 796.444 404.256, 796.444 408.460, 796.444 412.502, 796.444 416.228, 796.444 419.493, 796.444 422.173, 796.444 424.164, 796.444 425.391, 796.444 425.805, 796.444 425.805, 786.444 425.805, 776.444 425.805, 766.444 425.805, 756.444 425.805, 746.444 425.805, 736.444 425.805, 726.444 425.805, 716.444 425.805, 706.444 425.805, 696.444 425.805, 686.444 425.805, 676.444 425.805, 666.444 425.805, 656.444 425.805, 646.444 425.805, 636.444 425.805, 626.444 425.805, 616.444 425.805, 606.444 425.805, 596.444 425.805, 586.444 425.805, 576.444 425.805, 566.444 425.805, 556.444 425.805, 546.444 425.805, 536.444 425.805, 526.444 425.805, 516.444 425.805, 506.445 425.805, 496.445 425.805, 486.445 425.805, 476.445 425.805, 466.445 425.805, 458.128 425.805, 458.128 " />
            <path fill="none" stroke-width="3.0" stroke-linecap="butt" stroke-opacity="1.0" stroke="rgb(0, 0, 0)" stroke-linejoin="round" d=" M 641.293, 796.444 641.293, 786.444 641.293, 776.444 641.293, 766.444 641.293, 756.444 641.293, 746.444 641.293, 736.444 641.293, 726.444 641.293, 716.444 641.293, 706.444 641.293, 696.444 641.293, 686.444 641.293, 676.444 641.293, 666.444 641.293, 656.444 641.293, 646.444 641.293, 636.444 641.293, 626.444 641.293, 616.444 641.293, 606.444 641.293, 596.444 641.293, 586.444 641.293, 576.444 641.293, 566.444 641.293, 556.444 641.293, 546.444 641.293, 536.444 641.293, 526.444 641.293, 516.444 641.293, 506.445 641.293, 496.445 641.293, 486.445 641.293, 476.445 641.293, 466.445 641.293, 458.128 641.293, 458.128 " />
            <path fill="none" stroke-width="3.0" stroke-linecap="butt" stroke-opacity="1.0" stroke="rgb(0, 0, 0)" stroke-linejoin="round" d=" M 598.195, 796.444 598.609, 796.444 599.836, 796.444 601.827, 796.444 604.507, 796.444 607.772, 796.444 611.498, 796.444 615.540, 796.444 619.744, 796.444 623.948, 796.444 627.990, 796.444 631.716, 796.444 634.981, 796.444 637.661, 796.444 639.653, 796.444 640.879, 796.444 641.293, 796.444 " />
            <path fill="none" stroke-width="3.0" stroke-linecap="butt" stroke-opacity="1.0" stroke="rgb(0, 0, 0)" stroke-linejoin="round" d=" M 641.293, 458.128 641.293, 448.128 641.293, 445.199 631.293, 445.199 621.293, 445.199 611.293, 445.199 601.293, 445.199 591.293, 445.199 581.293, 445.199 571.293, 445.199 561.293, 445.199 551.293, 445.199 541.293, 445.199 531.293, 445.199 521.293, 445.199 511.293, 445.199 501.293, 445.199 491.293, 445.199 481.293, 445.199 471.293, 445.199 461.293, 445.199 451.293, 445.199 441.293, 445.199 431.293, 445.199 421.293, 445.199 411.293, 445.199 401.293, 445.199 391.293, 445.199 382.707, 445.199 382.707, 455.199 382.707, 458.128 " />
            <path fill="none" stroke-width="3.0" stroke-linecap="butt" stroke-opacity="1.0" stroke="rgb(0, 0, 0)" stroke-linejoin="round" d=" M 505.535, 227.556 505.535, 237.556 505.535, 247.556 505.535, 257.556 505.535, 267.556 505.535, 277.556 505.535, 287.556 505.535, 297.556 505.535, 307.556 505.535, 317.556 505.535, 327.556 505.535, 330.990 515.535, 330.990 518.465, 330.990 518.465, 320.990 518.465, 310.990 518.465, 300.990 518.465, 290.990 518.465, 280.990 518.465, 270.990 518.465, 260.990 518.465, 250.990 518.465, 240.990 518.465, 230.990 518.465, 227.556 " />
            <path fill="none" stroke-width="3.0" stroke-linecap="butt" stroke-opacity="1.0" stroke="rgb(0, 0, 0)" stroke-linejoin="round" d=" M 382.707, 458.128 382.707, 458.128 382.707, 468.128 382.707, 478.128 382.707, 488.128 382.707, 498.128 382.707, 508.128 382.707, 518.128 382.707, 528.128 382.707, 538.128 382.707, 548.128 382.707, 558.128 382.707, 568.128 382.707, 578.128 382.707, 588.128 382.707, 598.128 382.707, 608.128 382.707, 618.128 382.707, 628.128 382.707, 638.128 382.707, 648.128 382.707, 658.128 382.707, 668.128 382.707, 678.128 382.707, 688.128 382.707, 698.128 382.707, 708.128 382.707, 718.128 382.707, 728.128 382.707, 738.128 382.707, 748.128 382.707, 758.128 382.707, 768.128 382.707, 778.128 382.707, 788.128 382.707, 796.444 " />
            <path fill="none" stroke-width="3.0" stroke-linecap="butt" stroke-opacity="1.0" stroke="rgb(0, 0, 0)" stroke-linejoin="round" d=" M 518.465, 227.556 508.465, 227.556 505.535, 227.556 " />
            <path fill="none" stroke-width="3.0" stroke-linecap="butt" stroke-opacity="1.0" stroke="rgb(0, 0, 0)" stroke-linejoin="round" d=" M 598.195, 458.128 598.195, 458.128 598.195, 468.128 598.195, 478.128 598.195, 488.128 598.195, 498.128 598.195, 508.128 598.195, 518.128 598.195, 528.128 598.195, 538.128 598.195, 548.128 598.195, 558.128 598.195, 568.128 598.195, 578.128 598.195, 588.128 598.195, 598.128 598.195, 608.128 598.195, 618.128 598.195, 628.128 598.195, 638.128 598.195, 648.128 598.195, 658.128 598.195, 668.128 598.195, 678.128 598.195, 688.128 598.195, 698.128 598.195, 708.128 598.195, 718.128 598.195, 728.128 598.195, 738.128 598.195, 748.128 598.195, 758.128 598.195, 768.128 598.195, 778.128 598.195, 788.128 598.195, 796.444 " />
            <path fill="none" stroke-width="3.0" stroke-linecap="butt" stroke-opacity="1.0" stroke="rgb(0, 0, 0)" stroke-linejoin="round" d=" M 425.805, 458.128 435.805, 458.128 445.805, 458.128 455.805, 458.128 465.805, 458.128 475.805, 458.128 485.805, 458.128 495.805, 458.128 505.805, 458.128 515.805, 458.128 525.805, 458.128 535.805, 458.128 545.805, 458.128 555.805, 458.128 565.805, 458.128 575.805, 458.128 585.805, 458.128 595.805, 458.128 598.195, 458.128 " />
            <path fill="none" stroke-width="3.0" stroke-linecap="butt" stroke-opacity="1.0" stroke="rgb(0, 0, 0)" stroke-linejoin="round" d=" M 598.195, 458.128 608.195, 458.128 618.195, 458.128 628.195, 458.128 638.195, 458.128 641.293, 458.128 " />
            <path fill="none" stroke-width="3.0" stroke-linecap="butt" stroke-opacity="1.0" stroke="rgb(0, 0, 0)" stroke-linejoin="round" d=" M 425.805, 458.128 435.805, 458.128 445.805, 458.128 455.805, 458.128 465.805, 458.128 475.805, 458.128 485.805, 458.128 495.805, 458.128 505.805, 458.128 515.805, 458.128 525.805, 458.128 535.805, 458.128 545.805, 458.128 555.805, 458.128 565.805, 458.128 575.805, 458.128 585.805, 458.128 595.805, 458.128 598.195, 458.128 " />
            <path fill="none" stroke-width="3.0" stroke-linecap="butt" stroke-opacity="1.0" stroke="rgb(0, 0, 0)" stroke-linejoin="round" d=" M 382.707, 458.128 392.707, 458.128 402.707, 458.128 412.707, 458.128 422.707, 458.128 425.805, 458.128 " />
        </g>
    </g>
    <g id="ViewLayer_TechnicalLines.001" inkscape:groupmode="lineset" inkscape:label="ViewLayer_TechnicalLines.001">
        <g inkscape:groupmode="layer" id="strokes" inkscape:label="strokes">
            <path fill="none" stroke-width="1.5" stroke-linecap="round" stroke-opacity="1.0" stroke="rgb(0, 0, 0)" stroke-linejoin="round" d=" M 382.707, 796.444 383.121, 796.444 384.347, 796.444 386.339, 796.444 389.019, 796.444 392.284, 796.444 396.010, 796.444 400.052, 796.444 404.256, 796.444 408.460, 796.444 412.502, 796.444 416.228, 796.444 419.493, 796.444 422.173, 796.444 424.164, 796.444 425.391, 796.444 425.805, 796.444 425.805, 786.444 425.805, 776.444 425.805, 766.444 425.805, 756.444 425.805, 746.444 425.805, 736.444 425.805, 726.444 425.805, 716.444 425.805, 706.444 425.805, 696.444 425.805, 686.444 425.805, 676.444 425.805, 666.444 425.805, 656.444 425.805, 646.444 425.805, 636.444 425.805, 626.444 425.805, 616.444 425.805, 606.444 425.805, 596.444 425.805, 586.444 425.805, 576.444 425.805, 566.444 425.805, 556.444 425.805, 546.444 425.805, 536.444 425.805, 526.444 425.805, 516.444 425.805, 506.445 425.805, 496.445 425.805, 486.445 425.805, 476.445 425.805, 466.445 425.805, 458.128 425.805, 458.128 " />
            <path fill="none" stroke-width="1.5" stroke-linecap="round" stroke-opacity="1.0" stroke="rgb(0, 0, 0)" stroke-linejoin="round" d=" M 641.293, 796.444 641.293, 786.444 641.293, 776.444 641.293, 766.444 641.293, 756.444 641.293, 746.444 641.293, 736.444 641.293, 726.444 641.293, 716.444 641.293, 706.444 641.293, 696.444 641.293, 686.444 641.293, 676.444 641.293, 666.444 641.293, 656.444 641.293, 646.444 641.293, 636.444 641.293, 626.444 641.293, 616.444 641.293, 606.444 641.293, 596.444 641.293, 586.444 641.293, 576.444 641.293, 566.444 641.293, 556.444 641.293, 546.444 641.293, 536.444 641.293, 526.444 641.293, 516.444 641.293, 506.445 641.293, 496.445 641.293, 486.445 641.293, 476.445 641.293, 466.445 641.293, 458.128 641.293, 458.128 " />
            <path fill="none" stroke-width="1.5" stroke-linecap="round" stroke-opacity="1.0" stroke="rgb(0, 0, 0)" stroke-linejoin="round" d=" M 598.195, 796.444 598.609, 796.444 599.836, 796.444 601.827, 796.444 604.507, 796.444 607.772, 796.444 611.498, 796.444 615.540, 796.444 619.744, 796.444 623.948, 796.444 627.990, 796.444 631.716, 796.444 634.981, 796.444 637.661, 796.444 639.653, 796.444 640.879, 796.444 641.293, 796.444 " />
            <path fill="none" stroke-width="1.5" stroke-linecap="round" stroke-opacity="1.0" stroke="rgb(0, 0, 0)" stroke-linejoin="round" d=" M 641.293, 458.128 641.293, 448.128 641.293, 445.199 631.293, 445.199 621.293, 445.199 611.293, 445.199 601.293, 445.199 591.293, 445.199 581.293, 445.199 571.293, 445.199 561.293, 445.199 551.293, 445.199 541.293, 445.199 531.293, 445.199 521.293, 445.199 511.293, 445.199 501.293, 445.199 491.293, 445.199 481.293, 445.199 471.293, 445.199 461.293, 445.199 451.293, 445.199 441.293, 445.199 431.293, 445.199 421.293, 445.199 411.293, 445.199 401.293, 445.199 391.293, 445.199 382.707, 445.199 382.707, 455.199 382.707, 458.128 " />
            <path fill="none" stroke-width="1.5" stroke-linecap="round" stroke-opacity="1.0" stroke="rgb(0, 0, 0)" stroke-linejoin="round" d=" M 505.535, 227.556 505.535, 237.556 505.535, 247.556 505.535, 257.556 505.535, 267.556 505.535, 277.556 505.535, 287.556 505.535, 297.556 505.535, 307.556 505.535, 317.556 505.535, 327.556 505.535, 330.990 515.535, 330.990 518.465, 330.990 518.465, 320.990 518.465, 310.990 518.465, 300.990 518.465, 290.990 518.465, 280.990 518.465, 270.990 518.465, 260.990 518.465, 250.990 518.465, 240.990 518.465, 230.990 518.465, 227.556 " />
            <path fill="none" stroke-width="1.5" stroke-linecap="round" stroke-opacity="1.0" stroke="rgb(0, 0, 0)" stroke-linejoin="round" d=" M 382.707, 458.128 382.707, 458.128 382.707, 468.128 382.707, 478.128 382.707, 488.128 382.707, 498.128 382.707, 508.128 382.707, 518.128 382.707, 528.128 382.707, 538.128 382.707, 548.128 382.707, 558.128 382.707, 568.128 382.707, 578.128 382.707, 588.128 382.707, 598.128 382.707, 608.128 382.707, 618.128 382.707, 628.128 382.707, 638.128 382.707, 648.128 382.707, 658.128 382.707, 668.128 382.707, 678.128 382.707, 688.128 382.707, 698.128 382.707, 708.128 382.707, 718.128 382.707, 728.128 382.707, 738.128 382.707, 748.128 382.707, 758.128 382.707, 768.128 382.707, 778.128 382.707, 788.128 382.707, 796.444 " />
            <path fill="none" stroke-width="1.5" stroke-linecap="round" stroke-opacity="1.0" stroke="rgb(0, 0, 0)" stroke-linejoin="round" d=" M 518.465, 227.556 508.465, 227.556 505.535, 227.556 " />
            <path fill="none" stroke-width="1.5" stroke-linecap="round" stroke-opacity="1.0" stroke="rgb(0, 0, 0)" stroke-linejoin="round" d=" M 598.195, 458.128 598.195, 458.128 598.195, 468.128 598.195, 478.128 598.195, 488.128 598.195, 498.128 598.195, 508.128 598.195, 518.128 598.195, 528.128 598.195, 538.128 598.195, 548.128 598.195, 558.128 598.195, 568.128 598.195, 578.128 598.195, 588.128 598.195, 598.128 598.195, 608.128 598.195, 618.128 598.195, 628.128 598.195, 638.128 598.195, 648.128 598.195, 658.128 598.195, 668.128 598.195, 678.128 598.195, 688.128 598.195, 698.128 598.195, 708.128 598.195, 718.128 598.195, 728.128 598.195, 738.128 598.195, 748.128 598.195, 758.128 598.195, 768.128 598.195, 778.128 598.195, 788.128 598.195, 796.444 " />
            <path fill="none" stroke-width="1.5" stroke-linecap="round" stroke-opacity="1.0" stroke="rgb(0, 0, 0)" stroke-linejoin="round" d=" M 425.805, 458.128 435.805, 458.128 445.805, 458.128 455.805, 458.128 465.805, 458.128 475.805, 458.128 485.805, 458.128 495.805, 458.128 505.805, 458.128 515.805, 458.128 525.805, 458.128 535.805, 458.128 545.805, 458.128 555.805, 458.128 565.805, 458.128 575.805, 458.128 585.805, 458.128 595.805, 458.128 598.195, 458.128 " />
            <path fill="none" stroke-width="1.5" stroke-linecap="round" stroke-opacity="1.0" stroke="rgb(0, 0, 0)" stroke-linejoin="round" d=" M 598.195, 458.128 608.195, 458.128 618.195, 458.128 628.195, 458.128 638.195, 458.128 641.293, 458.128 " />
            <path fill="none" stroke-width="1.5" stroke-linecap="round" stroke-opacity="1.0" stroke="rgb(0, 0, 0)" stroke-linejoin="round" d=" M 425.805, 458.128 435.805, 458.128 445.805, 458.128 455.805, 458.128 465.805, 458.128 475.805, 458.128 485.805, 458.128 495.805, 458.128 505.805, 458.128 515.805, 458.128 525.805, 458.128 535.805, 458.128 545.805, 458.128 555.805, 458.128 565.805, 458.128 575.805, 458.128 585.805, 458.128 595.805, 458.128 598.195, 458.128 " />
            <path fill="none" stroke-width="1.5" stroke-linecap="round" stroke-opacity="1.0" stroke="rgb(0, 0, 0)" stroke-linejoin="round" d=" M 382.707, 458.128 392.707, 458.128 402.707, 458.128 412.707, 458.128 422.707, 458.128 425.805, 458.128 " />
        </g>
    </g>
    <g id="ViewLayer_TechnicalLines.002" inkscape:groupmode="lineset" inkscape:label="ViewLayer_TechnicalLines.002">
        <g inkscape:groupmode="layer" id="strokes" inkscape:label="strokes">
            <path fill="none" stroke-width="1.5" stroke-linecap="round" stroke-opacity="1.0" stroke="rgb(0, 0, 0)" stroke-linejoin="round" d=" M 382.707, 796.444 383.121, 796.444 384.347, 796.444 386.339, 796.444 389.019, 796.444 392.284, 796.444 396.010, 796.444 400.052, 796.444 404.256, 796.444 408.460, 796.444 412.502, 796.444 416.228, 796.444 419.493, 796.444 422.173, 796.444 424.164, 796.444 425.391, 796.444 425.805, 796.444 425.805, 786.444 425.805, 776.444 425.805, 766.444 425.805, 756.444 425.805, 746.444 425.805, 736.444 425.805, 726.444 425.805, 716.444 425.805, 706.444 425.805, 696.444 425.805, 686.444 425.805, 676.444 425.805, 666.444 425.805, 656.444 425.805, 646.444 425.805, 636.444 425.805, 626.444 425.805, 616.444 425.805, 606.444 425.805, 596.444 425.805, 586.444 425.805, 576.444 425.805, 566.444 425.805, 556.444 425.805, 546.444 425.805, 536.444 425.805, 526.444 425.805, 516.444 425.805, 506.445 425.805, 496.445 425.805, 486.445 425.805, 476.445 425.805, 466.445 425.805, 458.128 425.805, 458.128 " />
            <path fill="none" stroke-width="1.5" stroke-linecap="round" stroke-opacity="1.0" stroke="rgb(0, 0, 0)" stroke-linejoin="round" d=" M 641.293, 796.444 641.293, 786.444 641.293, 776.444 641.293, 766.444 641.293, 756.444 641.293, 746.444 641.293, 736.444 641.293, 726.444 641.293, 716.444 641.293, 706.444 641.293, 696.444 641.293, 686.444 641.293, 676.444 641.293, 666.444 641.293, 656.444 641.293, 646.444 641.293, 636.444 641.293, 626.444 641.293, 616.444 641.293, 606.444 641.293, 596.444 641.293, 586.444 641.293, 576.444 641.293, 566.444 641.293, 556.444 641.293, 546.444 641.293, 536.444 641.293, 526.444 641.293, 516.444 641.293, 506.445 641.293, 496.445 641.293, 486.445 641.293, 476.445 641.293, 466.445 641.293, 458.128 641.293, 458.128 " />
            <path fill="none" stroke-width="1.5" stroke-linecap="round" stroke-opacity="1.0" stroke="rgb(0, 0, 0)" stroke-linejoin="round" d=" M 598.195, 796.444 598.609, 796.444 599.836, 796.444 601.827, 796.444 604.507, 796.444 607.772, 796.444 611.498, 796.444 615.540, 796.444 619.744, 796.444 623.948, 796.444 627.990, 796.444 631.716, 796.444 634.981, 796.444 637.661, 796.444 639.653, 796.444 640.879, 796.444 641.293, 796.444 " />
            <path fill="none" stroke-width="1.5" stroke-linecap="round" stroke-opacity="1.0" stroke="rgb(0, 0, 0)" stroke-linejoin="round" d=" M 641.293, 458.128 641.293, 448.128 641.293, 445.199 631.293, 445.199 621.293, 445.199 611.293, 445.199 601.293, 445.199 591.293, 445.199 581.293, 445.199 571.293, 445.199 561.293, 445.199 551.293, 445.199 541.293, 445.199 531.293, 445.199 521.293, 445.199 511.293, 445.199 501.293, 445.199 491.293, 445.199 481.293, 445.199 471.293, 445.199 461.293, 445.199 451.293, 445.199 441.293, 445.199 431.293, 445.199 421.293, 445.199 411.293, 445.199 401.293, 445.199 391.293, 445.199 382.707, 445.199 382.707, 455.199 382.707, 458.128 " />
            <path fill="none" stroke-width="1.5" stroke-linecap="round" stroke-opacity="1.0" stroke="rgb(0, 0, 0)" stroke-linejoin="round" d=" M 505.535, 227.556 505.535, 237.556 505.535, 247.556 505.535, 257.556 505.535, 267.556 505.535, 277.556 505.535, 287.556 505.535, 297.556 505.535, 307.556 505.535, 317.556 505.535, 327.556 505.535, 330.990 515.535, 330.990 518.465, 330.990 518.465, 320.990 518.465, 310.990 518.465, 300.990 518.465, 290.990 518.465, 280.990 518.465, 270.990 518.465, 260.990 518.465, 250.990 518.465, 240.990 518.465, 230.990 518.465, 227.556 " />
            <path fill="none" stroke-width="1.5" stroke-linecap="round" stroke-opacity="1.0" stroke="rgb(0, 0, 0)" stroke-linejoin="round" d=" M 382.707, 458.128 382.707, 458.128 382.707, 468.128 382.707, 478.128 382.707, 488.128 382.707, 498.128 382.707, 508.128 382.707, 518.128 382.707, 528.128 382.707, 538.128 382.707, 548.128 382.707, 558.128 382.707, 568.128 382.707, 578.128 382.707, 588.128 382.707, 598.128 382.707, 608.128 382.707, 618.128 382.707, 628.128 382.707, 638.128 382.707, 648.128 382.707, 658.128 382.707, 668.128 382.707, 678.128 382.707, 688.128 382.707, 698.128 382.707, 708.128 382.707, 718.128 382.707, 728.128 382.707, 738.128 382.707, 748.128 382.707, 758.128 382.707, 768.128 382.707, 778.128 382.707, 788.128 382.707, 796.444 " />
            <path fill="none" stroke-width="1.5" stroke-linecap="round" stroke-opacity="1.0" stroke="rgb(0, 0, 0)" stroke-linejoin="round" d=" M 518.465, 227.556 508.465, 227.556 505.535, 227.556 " />
            <path fill="none" stroke-width="1.5" stroke-linecap="round" stroke-opacity="1.0" stroke="rgb(0, 0, 0)" stroke-linejoin="round" d=" M 598.195, 458.128 598.195, 458.128 598.195, 468.128 598.195, 478.128 598.195, 488.128 598.195, 498.128 598.195, 508.128 598.195, 518.128 598.195, 528.128 598.195, 538.128 598.195, 548.128 598.195, 558.128 598.195, 568.128 598.195, 578.128 598.195, 588.128 598.195, 598.128 598.195, 608.128 598.195, 618.128 598.195, 628.128 598.195, 638.128 598.195, 648.128 598.195, 658.128 598.195, 668.128 598.195, 678.128 598.195, 688.128 598.195, 698.128 598.195, 708.128 598.195, 718.128 598.195, 728.128 598.195, 738.128 598.195, 748.128 598.195, 758.128 598.195, 768.128 598.195, 778.128 598.195, 788.128 598.195, 796.444 " />
            <path fill="none" stroke-width="1.5" stroke-linecap="round" stroke-opacity="1.0" stroke="rgb(0, 0, 0)" stroke-linejoin="round" d=" M 425.805, 458.128 435.805, 458.128 445.805, 458.128 455.805, 458.128 465.805, 458.128 475.805, 458.128 485.805, 458.128 495.805, 458.128 505.805, 458.128 515.805, 458.128 525.805, 458.128 535.805, 458.128 545.805, 458.128 555.805, 458.128 565.805, 458.128 575.805, 458.128 585.805, 458.128 595.805, 458.128 598.195, 458.128 " />
            <path fill="none" stroke-width="1.5" stroke-linecap="round" stroke-opacity="1.0" stroke="rgb(0, 0, 0)" stroke-linejoin="round" d=" M 598.195, 458.128 608.195, 458.128 618.195, 458.128 628.195, 458.128 638.195, 458.128 641.293, 458.128 " />
            <path fill="none" stroke-width="1.5" stroke-linecap="round" stroke-opacity="1.0" stroke="rgb(0, 0, 0)" stroke-linejoin="round" d=" M 425.805, 458.128 435.805, 458.128 445.805, 458.128 455.805, 458.128 465.805, 458.128 475.805, 458.128 485.805, 458.128 495.805, 458.128 505.805, 458.128 515.805, 458.128 525.805, 458.128 535.805, 458.128 545.805, 458.128 555.805, 458.128 565.805, 458.128 575.805, 458.128 585.805, 458.128 595.805, 458.128 598.195, 458.128 " />
            <path fill="none" stroke-width="1.5" stroke-linecap="round" stroke-opacity="1.0" stroke="rgb(0, 0, 0)" stroke-linejoin="round" d=" M 382.707, 458.128 392.707, 458.128 402.707, 458.128 412.707, 458.128 422.707, 458.128 425.805, 458.128 " />
        </g>
    </g>
    <g id="ViewLayer_TechnicalLines.003" inkscape:groupmode="lineset" inkscape:label="ViewLayer_TechnicalLines.003">
        <g inkscape:groupmode="layer" id="strokes" inkscape:label="strokes">
            <path fill="none" stroke-width="1.5" stroke-linecap="round" stroke-opacity="1.0" stroke="rgb(0, 0, 0)" stroke-linejoin="round" d=" M 382.707, 796.444 383.121, 796.444 384.347, 796.444 386.339, 796.444 389.019, 796.444 392.284, 796.444 396.010, 796.444 400.052, 796.444 404.256, 796.444 408.460, 796.444 412.502, 796.444 416.228, 796.444 419.493, 796.444 422.173, 796.444 424.164, 796.444 425.391, 796.444 425.805, 796.444 425.805, 786.444 425.805, 776.444 425.805, 766.444 425.805, 756.444 425.805, 746.444 425.805, 736.444 425.805, 726.444 425.805, 716.444 425.805, 706.444 425.805, 696.444 425.805, 686.444 425.805, 676.444 425.805, 666.444 425.805, 656.444 425.805, 646.444 425.805, 636.444 425.805, 626.444 425.805, 616.444 425.805, 606.444 425.805, 596.444 425.805, 586.444 425.805, 576.444 425.805, 566.444 425.805, 556.444 425.805, 546.444 425.805, 536.444 425.805, 526.444 425.805, 516.444 425.805, 506.445 425.805, 496.445 425.805, 486.445 425.805, 476.445 425.805, 466.445 425.805, 458.128 425.805, 458.128 " />
            <path fill="none" stroke-width="1.5" stroke-linecap="round" stroke-opacity="1.0" stroke="rgb(0, 0, 0)" stroke-linejoin="round" d=" M 641.293, 796.444 641.293, 786.444 641.293, 776.444 641.293, 766.444 641.293, 756.444 641.293, 746.444 641.293, 736.444 641.293, 726.444 641.293, 716.444 641.293, 706.444 641.293, 696.444 641.293, 686.444 641.293, 676.444 641.293, 666.444 641.293, 656.444 641.293, 646.444 641.293, 636.444 641.293, 626.444 641.293, 616.444 641.293, 606.444 641.293, 596.444 641.293, 586.444 641.293, 576.444 641.293, 566.444 641.293, 556.444 641.293, 546.444 641.293, 536.444 641.293, 526.444 641.293, 516.444 641.293, 506.445 641.293, 496.445 641.293, 486.445 641.293, 476.445 641.293, 466.445 641.293, 458.128 641.293, 458.128 " />
            <path fill="none" stroke-width="1.5" stroke-linecap="round" stroke-opacity="1.0" stroke="rgb(0, 0, 0)" stroke-linejoin="round" d=" M 598.195, 796.444 598.609, 796.444 599.836, 796.444 601.827, 796.444 604.507, 796.444 607.772, 796.444 611.498, 796.444 615.540, 796.444 619.744, 796.444 623.948, 796.444 627.990, 796.444 631.716, 796.444 634.981, 796.444 637.661, 796.444 639.653, 796.444 640.879, 796.444 641.293, 796.444 " />
            <path fill="none" stroke-width="1.5" stroke-linecap="round" stroke-opacity="1.0" stroke="rgb(0, 0, 0)" stroke-linejoin="round" d=" M 641.293, 458.128 641.293, 448.128 641.293, 445.199 631.293, 445.199 621.293, 445.199 611.293, 445.199 601.293, 445.199 591.293, 445.199 581.293, 445.199 571.293, 445.199 561.293, 445.199 551.293, 445.199 541.293, 445.199 531.293, 445.199 521.293, 445.199 511.293, 445.199 501.293, 445.199 491.293, 445.199 481.293, 445.199 471.293, 445.199 461.293, 445.199 451.293, 445.199 441.293, 445.199 431.293, 445.199 421.293, 445.199 411.293, 445.199 401.293, 445.199 391.293, 445.199 382.707, 445.199 382.707, 455.199 382.707, 458.128 " />
            <path fill="none" stroke-width="1.5" stroke-linecap="round" stroke-opacity="1.0" stroke="rgb(0, 0, 0)" stroke-linejoin="round" d=" M 505.535, 227.556 505.535, 237.556 505.535, 247.556 505.535, 257.556 505.535, 267.556 505.535, 277.556 505.535, 287.556 505.535, 297.556 505.535, 307.556 505.535, 317.556 505.535, 327.556 505.535, 330.990 515.535, 330.990 518.465, 330.990 518.465, 320.990 518.465, 310.990 518.465, 300.990 518.465, 290.990 518.465, 280.990 518.465, 270.990 518.465, 260.990 518.465, 250.990 518.465, 240.990 518.465, 230.990 518.465, 227.556 " />
            <path fill="none" stroke-width="1.5" stroke-linecap="round" stroke-opacity="1.0" stroke="rgb(0, 0, 0)" stroke-linejoin="round" d=" M 382.707, 458.128 382.707, 458.128 382.707, 468.128 382.707, 478.128 382.707, 488.128 382.707, 498.128 382.707, 508.128 382.707, 518.128 382.707, 528.128 382.707, 538.128 382.707, 548.128 382.707, 558.128 382.707, 568.128 382.707, 578.128 382.707, 588.128 382.707, 598.128 382.707, 608.128 382.707, 618.128 382.707, 628.128 382.707, 638.128 382.707, 648.128 382.707, 658.128 382.707, 668.128 382.707, 678.128 382.707, 688.128 382.707, 698.128 382.707, 708.128 382.707, 718.128 382.707, 728.128 382.707, 738.128 382.707, 748.128 382.707, 758.128 382.707, 768.128 382.707, 778.128 382.707, 788.128 382.707, 796.444 " />
            <path fill="none" stroke-width="1.5" stroke-linecap="round" stroke-opacity="1.0" stroke="rgb(0, 0, 0)" stroke-linejoin="round" d=" M 518.465, 227.556 508.465, 227.556 505.535, 227.556 " />
            <path fill="none" stroke-width="1.5" stroke-linecap="round" stroke-opacity="1.0" stroke="rgb(0, 0, 0)" stroke-linejoin="round" d=" M 598.195, 458.128 598.195, 458.128 598.195, 468.128 598.195, 478.128 598.195, 488.128 598.195, 498.128 598.195, 508.128 598.195, 518.128 598.195, 528.128 598.195, 538.128 598.195, 548.128 598.195, 558.128 598.195, 568.128 598.195, 578.128 598.195, 588.128 598.195, 598.128 598.195, 608.128 598.195, 618.128 598.195, 628.128 598.195, 638.128 598.195, 648.128 598.195, 658.128 598.195, 668.128 598.195, 678.128 598.195, 688.128 598.195, 698.128 598.195, 708.128 598.195, 718.128 598.195, 728.128 598.195, 738.128 598.195, 748.128 598.195, 758.128 598.195, 768.128 598.195, 778.128 598.195, 788.128 598.195, 796.444 " />
            <path fill="none" stroke-width="1.5" stroke-linecap="round" stroke-opacity="1.0" stroke="rgb(0, 0, 0)" stroke-linejoin="round" d=" M 425.805, 458.128 435.805, 458.128 445.805, 458.128 455.805, 458.128 465.805, 458.128 475.805, 458.128 485.805, 458.128 495.805, 458.128 505.805, 458.128 515.805, 458.128 525.805, 458.128 535.805, 458.128 545.805, 458.128 555.805, 458.128 565.805, 458.128 575.805, 458.128 585.805, 458.128 595.805, 458.128 598.195, 458.128 " />
            <path fill="none" stroke-width="1.5" stroke-linecap="round" stroke-opacity="1.0" stroke="rgb(0, 0, 0)" stroke-linejoin="round" d=" M 598.195, 458.128 608.195, 458.128 618.195, 458.128 628.195, 458.128 638.195, 458.128 641.293, 458.128 " />
            <path fill="none" stroke-width="1.5" stroke-linecap="round" stroke-opacity="1.0" stroke="rgb(0, 0, 0)" stroke-linejoin="round" d=" M 425.805, 458.128 435.805, 458.128 445.805, 458.128 455.805, 458.128 465.805, 458.128 475.805, 458.128 485.805, 458.128 495.805, 458.128 505.805, 458.128 515.805, 458.128 525.805, 458.128 535.805, 458.128 545.805, 458.128 555.805, 458.128 565.805, 458.128 575.805, 458.128 585.805, 458.128 595.805, 458.128 598.195, 458.128 " />
            <path fill="none" stroke-width="1.5" stroke-linecap="round" stroke-opacity="1.0" stroke="rgb(0, 0, 0)" stroke-linejoin="round" d=" M 382.707, 458.128 392.707, 458.128 402.707, 458.128 412.707, 458.128 422.707, 458.128 425.805, 458.128 " />
        </g>
    </g>
    <g id="ViewLayer_TechnicalLines.004" xmlns:inkscape="http://www.inkscape.org/namespaces/inkscape" inkscape:groupmode="lineset" inkscape:label="ViewLayer_TechnicalLines.004">
        <g xmlns:inkscape="http://www.inkscape.org/namespaces/inkscape" inkscape:groupmode="layer" id="strokes" inkscape:label="strokes">
            <path fill="none" stroke-width="1.5" stroke-linecap="round" stroke-opacity="1.0" stroke="rgb(0, 0, 0)" stroke-linejoin="round" d=" M 382.707, 796.444 383.121, 796.444 384.347, 796.444 386.339, 796.444 389.019, 796.444 392.284, 796.444 396.010, 796.444 400.052, 796.444 404.256, 796.444 408.460, 796.444 412.502, 796.444 416.228, 796.444 419.493, 796.444 422.173, 796.444 424.164, 796.444 425.391, 796.444 425.805, 796.444 425.805, 786.444 425.805, 776.444 425.805, 766.444 425.805, 756.444 425.805, 746.444 425.805, 736.444 425.805, 726.444 425.805, 716.444 425.805, 706.444 425.805, 696.444 425.805, 686.444 425.805, 676.444 425.805, 666.444 425.805, 656.444 425.805, 646.444 425.805, 636.444 425.805, 626.444 425.805, 616.444 425.805, 606.444 425.805, 596.444 425.805, 586.444 425.805, 576.444 425.805, 566.444 425.805, 556.444 425.805, 546.444 425.805, 536.444 425.805, 526.444 425.805, 516.444 425.805, 506.445 425.805, 496.445 425.805, 486.445 425.805, 476.445 425.805, 466.445 425.805, 458.128 425.805, 458.128 " />
            <path fill="none" stroke-width="1.5" stroke-linecap="round" stroke-opacity="1.0" stroke="rgb(0, 0, 0)" stroke-linejoin="round" d=" M 641.293, 796.444 641.293, 786.444 641.293, 776.444 641.293, 766.444 641.293, 756.444 641.293, 746.444 641.293, 736.444 641.293, 726.444 641.293, 716.444 641.293, 706.444 641.293, 696.444 641.293, 686.444 641.293, 676.444 641.293, 666.444 641.293, 656.444 641.293, 646.444 641.293, 636.444 641.293, 626.444 641.293, 616.444 641.293, 606.444 641.293, 596.444 641.293, 586.444 641.293, 576.444 641.293, 566.444 641.293, 556.444 641.293, 546.444 641.293, 536.444 641.293, 526.444 641.293, 516.444 641.293, 506.445 641.293, 496.445 641.293, 486.445 641.293, 476.445 641.293, 466.445 641.293, 458.128 641.293, 458.128 " />
            <path fill="none" stroke-width="1.5" stroke-linecap="round" stroke-opacity="1.0" stroke="rgb(0, 0, 0)" stroke-linejoin="round" d=" M 598.195, 796.444 598.609, 796.444 599.836, 796.444 601.827, 796.444 604.507, 796.444 607.772, 796.444 611.498, 796.444 615.540, 796.444 619.744, 796.444 623.948, 796.444 627.990, 796.444 631.716, 796.444 634.981, 796.444 637.661, 796.444 639.653, 796.444 640.879, 796.444 641.293, 796.444 " />
            <path fill="none" stroke-width="1.5" stroke-linecap="round" stroke-opacity="1.0" stroke="rgb(0, 0, 0)" stroke-linejoin="round" d=" M 641.293, 458.128 641.293, 448.128 641.293, 445.199 631.293, 445.199 621.293, 445.199 611.293, 445.199 601.293, 445.199 591.293, 445.199 581.293, 445.199 571.293, 445.199 561.293, 445.199 551.293, 445.199 541.293, 445.199 531.293, 445.199 521.293, 445.199 511.293, 445.199 501.293, 445.199 491.293, 445.199 481.293, 445.199 471.293, 445.199 461.293, 445.199 451.293, 445.199 441.293, 445.199 431.293, 445.199 421.293, 445.199 411.293, 445.199 401.293, 445.199 391.293, 445.199 382.707, 445.199 382.707, 455.199 382.707, 458.128 " />
            <path fill="none" stroke-width="1.5" stroke-linecap="round" stroke-opacity="1.0" stroke="rgb(0, 0, 0)" stroke-linejoin="round" d=" M 505.535, 227.556 505.535, 237.556 505.535, 247.556 505.535, 257.556 505.535, 267.556 505.535, 277.556 505.535, 287.556 505.535, 297.556 505.535, 307.556 505.535, 317.556 505.535, 327.556 505.535, 330.990 515.535, 330.990 518.465, 330.990 518.465, 320.990 518.465, 310.990 518.465, 300.990 518.465, 290.990 518.465, 280.990 518.465, 270.990 518.465, 260.990 518.465, 250.990 518.465, 240.990 518.465, 230.990 518.465, 227.556 " />
            <path fill="none" stroke-width="1.5" stroke-linecap="round" stroke-opacity="1.0" stroke="rgb(0, 0, 0)" stroke-linejoin="round" d=" M 382.707, 458.128 382.707, 458.128 382.707, 468.128 382.707, 478.128 382.707, 488.128 382.707, 498.128 382.707, 508.128 382.707, 518.128 382.707, 528.128 382.707, 538.128 382.707, 548.128 382.707, 558.128 382.707, 568.128 382.707, 578.128 382.707, 588.128 382.707, 598.128 382.707, 608.128 382.707, 618.128 382.707, 628.128 382.707, 638.128 382.707, 648.128 382.707, 658.128 382.707, 668.128 382.707, 678.128 382.707, 688.128 382.707, 698.128 382.707, 708.128 382.707, 718.128 382.707, 728.128 382.707, 738.128 382.707, 748.128 382.707, 758.128 382.707, 768.128 382.707, 778.128 382.707, 788.128 382.707, 796.444 " />
            <path fill="none" stroke-width="1.5" stroke-linecap="round" stroke-opacity="1.0" stroke="rgb(0, 0, 0)" stroke-linejoin="round" d=" M 518.465, 227.556 508.465, 227.556 505.535, 227.556 " />
            <path fill="none" stroke-width="1.5" stroke-linecap="round" stroke-opacity="1.0" stroke="rgb(0, 0, 0)" stroke-linejoin="round" d=" M 598.195, 458.128 598.195, 458.128 598.195, 468.128 598.195, 478.128 598.195, 488.128 598.195, 498.128 598.195, 508.128 598.195, 518.128 598.195, 528.128 598.195, 538.128 598.195, 548.128 598.195, 558.128 598.195, 568.128 598.195, 578.128 598.195, 588.128 598.195, 598.128 598.195, 608.128 598.195, 618.128 598.195, 628.128 598.195, 638.128 598.195, 648.128 598.195, 658.128 598.195, 668.128 598.195, 678.128 598.195, 688.128 598.195, 698.128 598.195, 708.128 598.195, 718.128 598.195, 728.128 598.195, 738.128 598.195, 748.128 598.195, 758.128 598.195, 768.128 598.195, 778.128 598.195, 788.128 598.195, 796.444 " />
            <path fill="none" stroke-width="1.5" stroke-linecap="round" stroke-opacity="1.0" stroke="rgb(0, 0, 0)" stroke-linejoin="round" d=" M 425.805, 458.128 435.805, 458.128 445.805, 458.128 455.805, 458.128 465.805, 458.128 475.805, 458.128 485.805, 458.128 495.805, 458.128 505.805, 458.128 515.805, 458.128 525.805, 458.128 535.805, 458.128 545.805, 458.128 555.805, 458.128 565.805, 458.128 575.805, 458.128 585.805, 458.128 595.805, 458.128 598.195, 458.128 " />
            <path fill="none" stroke-width="1.5" stroke-linecap="round" stroke-opacity="1.0" stroke="rgb(0, 0, 0)" stroke-linejoin="round" d=" M 598.195, 458.128 608.195, 458.128 618.195, 458.128 628.195, 458.128 638.195, 458.128 641.293, 458.128 " />
            <path fill="none" stroke-width="1.5" stroke-linecap="round" stroke-opacity="1.0" stroke="rgb(0, 0, 0)" stroke-linejoin="round" d=" M 425.805, 458.128 435.805, 458.128 445.805, 458.128 455.805, 458.128 465.805, 458.128 475.805, 458.128 485.805, 458.128 495.805, 458.128 505.805, 458.128 515.805, 458.128 525.805, 458.128 535.805, 458.128 545.805, 458.128 555.805, 458.128 565.805, 458.128 575.805, 458.128 585.805, 458.128 595.805, 458.128 598.195, 458.128 " />
            <path fill="none" stroke-width="1.5" stroke-linecap="round" stroke-opacity="1.0" stroke="rgb(0, 0, 0)" stroke-linejoin="round" d=" M 382.707, 458.128 392.707, 458.128 402.707, 458.128 412.707, 458.128 422.707, 458.128 425.805, 458.128 " />
        </g>
    </g>
</svg>
