<?xml version='1.0' encoding='ascii'?>
<svg xmlns="http://www.w3.org/2000/svg" xmlns:inkscape="http://www.inkscape.org/namespaces/inkscape" version="1.1" width="1024" height="1024">
    <g id="ViewLayer_LineSet" inkscape:groupmode="lineset" inkscape:label="ViewLayer_LineSet">
        <g inkscape:groupmode="layer" id="strokes" inkscape:label="strokes">
            <path fill="none" stroke-width="3.0" stroke-linecap="butt" stroke-opacity="1.0" stroke="rgb(0, 0, 0)" stroke-linejoin="round" d=" M 265.481, 642.133 265.481, 632.133 265.481, 622.133 265.481, 612.133 265.481, 602.133 265.481, 592.133 265.481, 582.133 265.481, 572.133 265.481, 562.133 265.481, 552.133 265.481, 542.133 265.481, 532.133 265.481, 522.133 265.481, 512.133 265.481, 502.133 265.481, 492.133 265.481, 480.948 265.481, 480.948 265.481, 480.948 265.481, 480.948 265.481, 480.948 " />
            <path fill="none" stroke-width="3.0" stroke-linecap="butt" stroke-opacity="1.0" stroke="rgb(0, 0, 0)" stroke-linejoin="round" d=" M 246.519, 642.133 246.701, 642.133 247.240, 642.133 248.116, 642.133 249.296, 642.133 250.732, 642.133 252.372, 642.133 254.150, 642.133 256.000, 642.133 257.850, 642.133 259.628, 642.133 261.268, 642.133 262.704, 642.133 263.884, 642.133 264.760, 642.133 265.299, 642.133 265.481, 642.133 " />
            <path fill="none" stroke-width="3.0" stroke-linecap="butt" stroke-opacity="1.0" stroke="rgb(0, 0, 0)" stroke-linejoin="round" d=" M 262.704, 471.467 261.268, 471.467 259.628, 471.467 257.850, 471.467 256.000, 471.467 254.150, 471.467 252.372, 471.467 250.732, 471.467 249.296, 471.467 248.116, 471.467 247.240, 471.467 246.701, 471.467 246.519, 471.467 246.519, 480.948 246.519, 480.948 246.519, 480.948 246.519, 480.949 246.519, 480.950 246.519, 490.950 246.519, 500.950 246.519, 510.950 246.519, 520.950 246.519, 530.950 246.519, 540.950 246.519, 550.950 246.519, 560.950 246.519, 570.950 246.519, 580.950 246.519, 590.950 246.519, 600.950 246.519, 610.950 246.519, 620.950 246.519, 630.950 246.519, 642.133 " />
            <path fill="none" stroke-width="3.0" stroke-linecap="butt" stroke-opacity="1.0" stroke="rgb(0, 0, 0)" stroke-linejoin="round" d=" M 398.222, 642.133 398.222, 632.133 398.222, 622.133 398.222, 612.133 398.222, 602.133 398.222, 592.133 398.222, 582.133 398.222, 572.133 398.222, 562.133 398.222, 552.133 398.222, 542.133 398.222, 532.133 398.222, 522.133 398.222, 512.133 398.222, 502.133 398.222, 492.133 398.222, 480.948 398.222, 480.948 398.222, 480.947 398.222, 480.946 398.222, 480.945 398.222, 471.467 " />
            <path fill="none" stroke-width="3.0" stroke-linecap="butt" stroke-opacity="1.0" stroke="rgb(0, 0, 0)" stroke-linejoin="round" d=" M 398.222, 471.467 398.222, 471.467 398.040, 471.467 397.500, 471.467 396.624, 471.467 395.445, 471.467 394.008, 471.467 392.369, 471.467 390.590, 471.467 388.741, 471.467 386.891, 471.467 385.112, 471.467 383.473, 471.467 382.036, 471.467 " />
            <path fill="none" stroke-width="3.0" stroke-linecap="butt" stroke-opacity="1.0" stroke="rgb(0, 0, 0)" stroke-linejoin="round" d=" M 379.259, 642.133 379.441, 642.133 379.981, 642.133 380.857, 642.133 382.036, 642.133 383.473, 642.133 385.112, 642.133 386.891, 642.133 388.741, 642.133 390.590, 642.133 392.369, 642.133 394.008, 642.133 395.445, 642.133 396.624, 642.133 397.500, 642.133 398.040, 642.133 398.222, 642.133 " />
            <path fill="none" stroke-width="3.0" stroke-linecap="butt" stroke-opacity="1.0" stroke="rgb(0, 0, 0)" stroke-linejoin="round" d=" M 246.519, 642.133 246.519, 642.133 246.701, 642.133 247.240, 642.133 248.116, 642.133 249.296, 642.133 250.732, 642.133 252.372, 642.133 254.150, 642.133 256.000, 642.133 257.850, 642.133 259.628, 642.133 261.268, 642.133 262.704, 642.133 263.884, 642.133 264.760, 642.133 265.299, 642.133 265.481, 642.133 265.481, 642.133 " />
            <path fill="none" stroke-width="3.0" stroke-linecap="butt" stroke-opacity="1.0" stroke="rgb(0, 0, 0)" stroke-linejoin="round" d=" M 379.259, 642.133 379.259, 642.133 379.441, 642.133 379.981, 642.133 380.857, 642.133 382.036, 642.133 383.473, 642.133 385.112, 642.133 386.891, 642.133 388.741, 642.133 390.590, 642.133 392.369, 642.133 394.008, 642.133 395.445, 642.133 396.624, 642.133 397.500, 642.133 398.040, 642.133 398.222, 642.133 398.222, 642.133 " />
            <path fill="none" stroke-width="3.0" stroke-linecap="butt" stroke-opacity="1.0" stroke="rgb(0, 0, 0)" stroke-linejoin="round" d=" M 379.259, 480.948 375.047, 480.948 365.047, 480.948 358.654, 480.948 348.654, 480.948 340.868, 480.948 330.868, 480.948 322.370, 480.948 312.370, 480.948 303.873, 480.948 293.873, 480.948 286.086, 480.948 276.086, 480.948 269.694, 480.948 265.481, 480.948 " />
            <path fill="none" stroke-width="3.0" stroke-linecap="butt" stroke-opacity="1.0" stroke="rgb(0, 0, 0)" stroke-linejoin="round" d=" M 415.363, 480.948 409.968, 480.948 401.206, 480.948 398.222, 480.948 " />
            <path fill="none" stroke-width="3.0" stroke-linecap="butt" stroke-opacity="1.0" stroke="rgb(0, 0, 0)" stroke-linejoin="round" d=" M 415.363, 480.948 417.185, 480.948 417.185, 470.948 417.185, 461.985 415.363, 461.985 409.968, 461.985 399.968, 461.985 389.968, 461.985 389.415, 461.985 379.415, 461.985 375.047, 461.985 365.047, 461.985 358.654, 461.985 348.654, 461.985 340.868, 461.985 330.868, 461.985 322.370, 461.985 312.370, 461.985 303.873, 461.985 293.873, 461.985 286.086, 461.985 276.086, 461.985 269.694, 461.985 259.694, 461.985 255.326, 461.985 245.326, 461.985 235.326, 461.985 234.773, 461.985 " />
            <path fill="none" stroke-width="3.0" stroke-linecap="butt" stroke-opacity="1.0" stroke="rgb(0, 0, 0)" stroke-linejoin="round" d=" M 398.222, 480.948 401.206, 480.948 409.968, 480.948 415.363, 480.948 " />
            <path fill="none" stroke-width="3.0" stroke-linecap="butt" stroke-opacity="1.0" stroke="rgb(0, 0, 0)" stroke-linejoin="round" d=" M 409.968, 461.985 401.206, 461.985 391.206, 461.985 389.415, 461.985 " />
            <path fill="none" stroke-width="3.0" stroke-linecap="butt" stroke-opacity="1.0" stroke="rgb(0, 0, 0)" stroke-linejoin="round" d=" M 340.868, 480.948 350.868, 480.948 358.654, 480.948 368.654, 480.948 375.047, 480.948 379.259, 480.948 " />
            <path fill="none" stroke-width="3.0" stroke-linecap="butt" stroke-opacity="1.0" stroke="rgb(0, 0, 0)" stroke-linejoin="round" d=" M 269.694, 480.948 279.694, 480.948 286.086, 480.948 296.086, 480.948 303.873, 480.948 313.873, 480.948 322.370, 480.948 332.370, 480.948 340.868, 480.948 " />
            <path fill="none" stroke-width="3.0" stroke-linecap="butt" stroke-opacity="1.0" stroke="rgb(0, 0, 0)" stroke-linejoin="round" d=" M 255.326, 461.985 245.326, 461.985 243.535, 461.985 234.773, 461.985 229.377, 461.985 227.556, 461.985 227.556, 471.985 227.556, 480.948 229.377, 480.948 " />
            <path fill="none" stroke-width="3.0" stroke-linecap="butt" stroke-opacity="1.0" stroke="rgb(0, 0, 0)" stroke-linejoin="round" d=" M 229.377, 480.948 234.773, 480.948 243.535, 480.948 246.519, 480.948 " />
            <path fill="none" stroke-width="3.0" stroke-linecap="butt" stroke-opacity="1.0" stroke="rgb(0, 0, 0)" stroke-linejoin="round" d=" M 229.377, 480.948 234.773, 480.948 243.535, 480.948 " />
            <path fill="none" stroke-width="3.0" stroke-linecap="butt" stroke-opacity="1.0" stroke="rgb(0, 0, 0)" stroke-linejoin="round" d=" M 265.481, 480.948 269.694, 480.948 279.694, 480.948 289.694, 480.948 299.694, 480.948 303.873, 480.948 313.873, 480.948 323.873, 480.948 333.873, 480.948 343.873, 480.948 353.873, 480.948 363.873, 480.948 373.873, 480.948 375.047, 480.948 379.259, 480.948 " />
            <path fill="none" stroke-width="3.0" stroke-linecap="butt" stroke-opacity="1.0" stroke="rgb(0, 0, 0)" stroke-linejoin="round" d=" M 243.535, 480.948 246.519, 480.948 " />
            <path fill="none" stroke-width="3.0" stroke-linecap="butt" stroke-opacity="1.0" stroke="rgb(0, 0, 0)" stroke-linejoin="round" d=" M 243.535, 480.948 233.535, 480.948 229.377, 480.948 " />
            <path fill="none" stroke-width="3.0" stroke-linecap="butt" stroke-opacity="1.0" stroke="rgb(0, 0, 0)" stroke-linejoin="round" d=" M 229.377, 480.948 239.377, 480.948 243.535, 480.948 246.519, 480.948 " />
            <path fill="none" stroke-width="3.0" stroke-linecap="butt" stroke-opacity="1.0" stroke="rgb(0, 0, 0)" stroke-linejoin="round" d=" M 379.259, 480.948 369.259, 480.948 359.259, 480.948 349.259, 480.948 340.868, 480.948 350.868, 480.948 360.868, 480.948 370.868, 480.948 379.259, 480.948 " />
            <path fill="none" stroke-width="3.0" stroke-linecap="butt" stroke-opacity="1.0" stroke="rgb(0, 0, 0)" stroke-linejoin="round" d=" M 265.481, 480.948 269.694, 480.948 265.481, 480.948 " />
            <path fill="none" stroke-width="3.0" stroke-linecap="butt" stroke-opacity="1.0" stroke="rgb(0, 0, 0)" stroke-linejoin="round" d=" M 317.630, 381.867 317.630, 390.400 327.111, 390.400 327.111, 381.867 317.630, 381.867 " />
            <path fill="none" stroke-width="3.0" stroke-linecap="butt" stroke-opacity="1.0" stroke="rgb(0, 0, 0)" stroke-linejoin="round" d=" M 758.518, 480.948 758.518, 480.948 758.518, 480.948 758.518, 480.949 758.518, 480.950 758.518, 490.950 758.518, 500.950 758.518, 510.950 758.518, 520.950 758.518, 530.950 758.518, 540.950 758.518, 550.950 758.518, 560.950 758.518, 570.950 758.518, 580.950 758.518, 590.950 758.518, 600.950 758.518, 610.950 758.518, 620.950 758.518, 630.950 758.518, 642.133 758.701, 642.133 759.240, 642.133 760.116, 642.133 761.296, 642.133 762.732, 642.133 764.372, 642.133 766.150, 642.133 768.000, 642.133 769.850, 642.133 771.628, 642.133 773.268, 642.133 774.704, 642.133 775.884, 642.133 776.760, 642.133 777.299, 642.133 777.481, 642.133 777.481, 632.133 777.481, 622.133 777.481, 612.133 777.481, 602.133 777.481, 592.133 777.481, 582.133 777.481, 572.133 777.481, 562.133 777.481, 552.133 777.481, 542.133 777.481, 532.133 777.481, 522.133 777.481, 512.133 777.481, 502.133 777.481, 492.133 777.481, 480.948 777.481, 480.948 777.481, 480.948 777.481, 480.948 777.481, 480.948 " />
            <path fill="none" stroke-width="3.0" stroke-linecap="butt" stroke-opacity="1.0" stroke="rgb(0, 0, 0)" stroke-linejoin="round" d=" M 658.963, 642.133 659.145, 642.133 659.685, 642.133 660.561, 642.133 661.740, 642.133 663.177, 642.133 664.816, 642.133 666.595, 642.133 668.444, 642.133 670.294, 642.133 672.073, 642.133 673.712, 642.133 675.149, 642.133 676.328, 642.133 677.204, 642.133 677.744, 642.133 677.926, 642.133 677.926, 642.133 " />
            <path fill="none" stroke-width="3.0" stroke-linecap="butt" stroke-opacity="1.0" stroke="rgb(0, 0, 0)" stroke-linejoin="round" d=" M 677.926, 642.133 677.926, 632.133 677.926, 622.133 677.926, 612.133 677.926, 602.133 677.926, 592.133 677.926, 582.133 677.926, 572.133 677.926, 562.133 677.926, 552.133 677.926, 542.133 677.926, 532.133 677.926, 522.133 677.926, 512.133 677.926, 502.133 677.926, 492.133 677.926, 480.948 " />
            <path fill="none" stroke-width="3.0" stroke-linecap="butt" stroke-opacity="1.0" stroke="rgb(0, 0, 0)" stroke-linejoin="round" d=" M 658.963, 480.948 658.963, 490.948 658.963, 500.948 658.963, 510.948 658.963, 520.948 658.963, 530.948 658.963, 540.948 658.963, 550.948 658.963, 560.948 658.963, 570.948 658.963, 580.948 658.963, 590.948 658.963, 600.948 658.963, 610.948 658.963, 620.948 658.963, 630.948 658.963, 642.133 659.145, 642.133 659.685, 642.133 660.561, 642.133 661.740, 642.133 663.177, 642.133 664.816, 642.133 666.595, 642.133 668.444, 642.133 670.294, 642.133 672.073, 642.133 673.712, 642.133 675.149, 642.133 676.328, 642.133 677.204, 642.133 677.744, 642.133 677.926, 642.133 " />
            <path fill="none" stroke-width="3.0" stroke-linecap="butt" stroke-opacity="1.0" stroke="rgb(0, 0, 0)" stroke-linejoin="round" d=" M 758.518, 480.948 754.306, 480.948 744.306, 480.948 737.914, 480.948 727.914, 480.948 720.127, 480.948 710.127, 480.948 701.630, 480.948 691.630, 480.948 683.132, 480.948 677.926, 480.948 " />
            <path fill="none" stroke-width="3.0" stroke-linecap="butt" stroke-opacity="1.0" stroke="rgb(0, 0, 0)" stroke-linejoin="round" d=" M 794.623, 480.948 789.227, 480.948 780.465, 480.948 777.481, 480.948 " />
            <path fill="none" stroke-width="3.0" stroke-linecap="butt" stroke-opacity="1.0" stroke="rgb(0, 0, 0)" stroke-linejoin="round" d=" M 720.127, 480.948 730.127, 480.948 740.127, 480.948 750.127, 480.948 758.518, 480.948 768.518, 480.948 777.481, 480.948 780.465, 480.948 789.227, 480.948 794.623, 480.948 796.444, 480.948 796.444, 470.948 796.444, 461.985 794.623, 461.985 789.227, 461.985 " />
            <path fill="none" stroke-width="3.0" stroke-linecap="butt" stroke-opacity="1.0" stroke="rgb(0, 0, 0)" stroke-linejoin="round" d=" M 789.227, 461.985 780.465, 461.985 770.465, 461.985 768.674, 461.985 758.674, 461.985 754.306, 461.985 744.306, 461.985 737.914, 461.985 727.914, 461.985 720.127, 461.985 710.127, 461.985 701.630, 461.985 691.630, 461.985 683.132, 461.985 673.132, 461.985 665.346, 461.985 655.346, 461.985 648.953, 461.985 638.953, 461.985 634.585, 461.985 624.585, 461.985 614.585, 461.985 614.032, 461.985 608.637, 461.985 606.815, 461.985 606.815, 471.985 606.815, 480.948 608.637, 480.948 " />
            <path fill="none" stroke-width="3.0" stroke-linecap="butt" stroke-opacity="1.0" stroke="rgb(0, 0, 0)" stroke-linejoin="round" d=" M 720.127, 480.948 730.127, 480.948 737.914, 480.948 747.914, 480.948 754.306, 480.948 758.518, 480.948 768.518, 480.948 768.674, 480.948 777.481, 480.948 777.803, 480.948 780.465, 480.948 " />
            <path fill="none" stroke-width="3.0" stroke-linecap="butt" stroke-opacity="1.0" stroke="rgb(0, 0, 0)" stroke-linejoin="round" d=" M 677.926, 480.948 683.132, 480.948 693.132, 480.948 701.630, 480.948 711.630, 480.948 720.127, 480.948 730.127, 480.948 740.127, 480.948 750.127, 480.948 758.518, 480.948 768.518, 480.948 777.481, 480.948 777.803, 480.948 " />
            <path fill="none" stroke-width="3.0" stroke-linecap="butt" stroke-opacity="1.0" stroke="rgb(0, 0, 0)" stroke-linejoin="round" d=" M 658.963, 480.948 665.346, 480.948 675.346, 480.948 677.926, 480.948 " />
            <path fill="none" stroke-width="3.0" stroke-linecap="butt" stroke-opacity="1.0" stroke="rgb(0, 0, 0)" stroke-linejoin="round" d=" M 648.953, 480.948 658.963, 480.948 " />
            <path fill="none" stroke-width="3.0" stroke-linecap="butt" stroke-opacity="1.0" stroke="rgb(0, 0, 0)" stroke-linejoin="round" d=" M 608.637, 480.948 614.032, 480.948 622.794, 480.948 628.646, 480.948 634.585, 480.948 644.585, 480.948 648.953, 480.948 " />
            <path fill="none" stroke-width="3.0" stroke-linecap="butt" stroke-opacity="1.0" stroke="rgb(0, 0, 0)" stroke-linejoin="round" d=" M 634.585, 461.985 624.585, 461.985 622.794, 461.985 614.032, 461.985 " />
            <path fill="none" stroke-width="3.0" stroke-linecap="butt" stroke-opacity="1.0" stroke="rgb(0, 0, 0)" stroke-linejoin="round" d=" M 608.637, 480.948 614.032, 480.948 622.794, 480.948 " />
            <path fill="none" stroke-width="3.0" stroke-linecap="butt" stroke-opacity="1.0" stroke="rgb(0, 0, 0)" stroke-linejoin="round" d=" M 658.963, 480.948 648.953, 480.948 638.953, 480.948 634.585, 480.948 624.585, 480.948 622.794, 480.948 " />
            <path fill="none" stroke-width="3.0" stroke-linecap="butt" stroke-opacity="1.0" stroke="rgb(0, 0, 0)" stroke-linejoin="round" d=" M 677.926, 480.948 683.132, 480.948 693.132, 480.948 703.132, 480.948 713.132, 480.948 723.132, 480.948 733.132, 480.948 743.132, 480.948 753.132, 480.948 754.306, 480.948 758.518, 480.948 " />
            <path fill="none" stroke-width="3.0" stroke-linecap="butt" stroke-opacity="1.0" stroke="rgb(0, 0, 0)" stroke-linejoin="round" d=" M 622.794, 480.948 632.794, 480.948 642.794, 480.948 648.953, 480.948 638.953, 480.948 628.953, 480.948 628.646, 480.948 " />
            <path fill="none" stroke-width="3.0" stroke-linecap="butt" stroke-opacity="1.0" stroke="rgb(0, 0, 0)" stroke-linejoin="round" d=" M 622.794, 480.948 612.794, 480.948 608.637, 480.948 " />
            <path fill="none" stroke-width="3.0" stroke-linecap="butt" stroke-opacity="1.0" stroke="rgb(0, 0, 0)" stroke-linejoin="round" d=" M 608.637, 480.948 618.637, 480.948 622.794, 480.948 632.794, 480.948 642.794, 480.948 648.953, 480.948 658.963, 480.948 " />
            <path fill="none" stroke-width="3.0" stroke-linecap="butt" stroke-opacity="1.0" stroke="rgb(0, 0, 0)" stroke-linejoin="round" d=" M 246.519, 480.948 243.535, 480.948 " />
            <path fill="none" stroke-width="3.0" stroke-linecap="butt" stroke-opacity="1.0" stroke="rgb(0, 0, 0)" stroke-linejoin="round" d=" M 265.481, 480.948 269.694, 480.948 " />
            <path fill="none" stroke-width="3.0" stroke-linecap="butt" stroke-opacity="1.0" stroke="rgb(0, 0, 0)" stroke-linejoin="round" d=" M 379.259, 480.948 379.259, 480.948 379.259, 480.948 379.259, 480.949 379.259, 480.950 379.259, 490.950 379.259, 500.950 379.259, 510.950 379.259, 520.950 379.259, 530.950 379.259, 540.950 379.259, 550.950 379.259, 560.950 379.259, 570.950 379.259, 580.950 379.259, 590.950 379.259, 600.950 379.259, 610.950 379.259, 620.950 379.259, 630.950 379.259, 642.133 " />
            <path fill="none" stroke-width="3.0" stroke-linecap="butt" stroke-opacity="1.0" stroke="rgb(0, 0, 0)" stroke-linejoin="round" d=" M 398.222, 480.948 401.206, 480.948 " />
            <path fill="none" stroke-width="3.0" stroke-linecap="butt" stroke-opacity="1.0" stroke="rgb(0, 0, 0)" stroke-linejoin="round" d=" M 398.222, 480.948 398.544, 480.948 401.206, 480.948 " />
            <path fill="none" stroke-width="3.0" stroke-linecap="butt" stroke-opacity="1.0" stroke="rgb(0, 0, 0)" stroke-linejoin="round" d=" M 398.544, 480.948 398.222, 480.948 " />
            <path fill="none" stroke-width="3.0" stroke-linecap="butt" stroke-opacity="1.0" stroke="rgb(0, 0, 0)" stroke-linejoin="round" d=" M 658.963, 480.948 658.963, 480.948 " />
            <path fill="none" stroke-width="3.0" stroke-linecap="butt" stroke-opacity="1.0" stroke="rgb(0, 0, 0)" stroke-linejoin="round" d=" M 677.926, 480.948 677.926, 480.948 " />
            <path fill="none" stroke-width="3.0" stroke-linecap="butt" stroke-opacity="1.0" stroke="rgb(0, 0, 0)" stroke-linejoin="round" d=" M 777.481, 480.948 780.465, 480.948 " />
            <path fill="none" stroke-width="3.0" stroke-linecap="butt" stroke-opacity="1.0" stroke="rgb(0, 0, 0)" stroke-linejoin="round" d=" M 789.227, 461.985 779.227, 461.985 769.227, 461.985 768.674, 461.985 " />
        </g>
    </g>
    <g id="ViewLayer_TechnicalLines" inkscape:groupmode="lineset" inkscape:label="ViewLayer_TechnicalLines">
        <g inkscape:groupmode="layer" id="strokes" inkscape:label="strokes">
            <path fill="none" stroke-width="3.0" stroke-linecap="butt" stroke-opacity="1.0" stroke="rgb(0, 0, 0)" stroke-linejoin="round" d=" M 265.481, 642.133 265.481, 632.133 265.481, 622.133 265.481, 612.133 265.481, 602.133 265.481, 592.133 265.481, 582.133 265.481, 572.133 265.481, 562.133 265.481, 552.133 265.481, 542.133 265.481, 532.133 265.481, 522.133 265.481, 512.133 265.481, 502.133 265.481, 492.133 265.481, 480.948 265.481, 480.948 265.481, 480.948 265.481, 480.948 265.481, 480.948 " />
            <path fill="none" stroke-width="3.0" stroke-linecap="butt" stroke-opacity="1.0" stroke="rgb(0, 0, 0)" stroke-linejoin="round" d=" M 246.519, 642.133 246.701, 642.133 247.240, 642.133 248.116, 642.133 249.296, 642.133 250.732, 642.133 252.372, 642.133 254.150, 642.133 256.000, 642.133 257.850, 642.133 259.628, 642.133 261.268, 642.133 262.704, 642.133 263.884, 642.133 264.760, 642.133 265.299, 642.133 265.481, 642.133 " />
            <path fill="none" stroke-width="3.0" stroke-linecap="butt" stroke-opacity="1.0" stroke="rgb(0, 0, 0)" stroke-linejoin="round" d=" M 262.704, 471.467 261.268, 471.467 259.628, 471.467 257.850, 471.467 256.000, 471.467 254.150, 471.467 252.372, 471.467 250.732, 471.467 249.296, 471.467 248.116, 471.467 247.240, 471.467 246.701, 471.467 246.519, 471.467 246.519, 480.948 246.519, 480.948 246.519, 480.948 246.519, 480.949 246.519, 480.950 246.519, 490.950 246.519, 500.950 246.519, 510.950 246.519, 520.950 246.519, 530.950 246.519, 540.950 246.519, 550.950 246.519, 560.950 246.519, 570.950 246.519, 580.950 246.519, 590.950 246.519, 600.950 246.519, 610.950 246.519, 620.950 246.519, 630.950 246.519, 642.133 " />
            <path fill="none" stroke-width="3.0" stroke-linecap="butt" stroke-opacity="1.0" stroke="rgb(0, 0, 0)" stroke-linejoin="round" d=" M 398.222, 642.133 398.222, 632.133 398.222, 622.133 398.222, 612.133 398.222, 602.133 398.222, 592.133 398.222, 582.133 398.222, 572.133 398.222, 562.133 398.222, 552.133 398.222, 542.133 398.222, 532.133 398.222, 522.133 398.222, 512.133 398.222, 502.133 398.222, 492.133 398.222, 480.948 398.222, 480.948 398.222, 480.947 398.222, 480.946 398.222, 480.945 398.222, 471.467 " />
            <path fill="none" stroke-width="3.0" stroke-linecap="butt" stroke-opacity="1.0" stroke="rgb(0, 0, 0)" stroke-linejoin="round" d=" M 398.222, 471.467 398.222, 471.467 398.040, 471.467 397.500, 471.467 396.624, 471.467 395.445, 471.467 394.008, 471.467 392.369, 471.467 390.590, 471.467 388.741, 471.467 386.891, 471.467 385.112, 471.467 383.473, 471.467 382.036, 471.467 " />
            <path fill="none" stroke-width="3.0" stroke-linecap="butt" stroke-opacity="1.0" stroke="rgb(0, 0, 0)" stroke-linejoin="round" d=" M 379.259, 642.133 379.441, 642.133 379.981, 642.133 380.857, 642.133 382.036, 642.133 383.473, 642.133 385.112, 642.133 386.891, 642.133 388.741, 642.133 390.590, 642.133 392.369, 642.133 394.008, 642.133 395.445, 642.133 396.624, 642.133 397.500, 642.133 398.040, 642.133 398.222, 642.133 " />
            <path fill="none" stroke-width="3.0" stroke-linecap="butt" stroke-opacity="1.0" stroke="rgb(0, 0, 0)" stroke-linejoin="round" d=" M 246.519, 642.133 246.519, 642.133 246.701, 642.133 247.240, 642.133 248.116, 642.133 249.296, 642.133 250.732, 642.133 252.372, 642.133 254.150, 642.133 256.000, 642.133 257.850, 642.133 259.628, 642.133 261.268, 642.133 262.704, 642.133 263.884, 642.133 264.760, 642.133 265.299, 642.133 265.481, 642.133 265.481, 642.133 " />
            <path fill="none" stroke-width="3.0" stroke-linecap="butt" stroke-opacity="1.0" stroke="rgb(0, 0, 0)" stroke-linejoin="round" d=" M 379.259, 642.133 379.259, 642.133 379.441, 642.133 379.981, 642.133 380.857, 642.133 382.036, 642.133 383.473, 642.133 385.112, 642.133 386.891, 642.133 388.741, 642.133 390.590, 642.133 392.369, 642.133 394.008, 642.133 395.445, 642.133 396.624, 642.133 397.500, 642.133 398.040, 642.133 398.222, 642.133 398.222, 642.133 " />
            <path fill="none" stroke-width="3.0" stroke-linecap="butt" stroke-opacity="1.0" stroke="rgb(0, 0, 0)" stroke-linejoin="round" d=" M 379.259, 480.948 375.047, 480.948 365.047, 480.948 358.654, 480.948 348.654, 480.948 340.868, 480.948 330.868, 480.948 322.370, 480.948 312.370, 480.948 303.873, 480.948 293.873, 480.948 286.086, 480.948 276.086, 480.948 269.694, 480.948 265.481, 480.948 " />
            <path fill="none" stroke-width="3.0" stroke-linecap="butt" stroke-opacity="1.0" stroke="rgb(0, 0, 0)" stroke-linejoin="round" d=" M 415.363, 480.948 409.968, 480.948 401.206, 480.948 398.222, 480.948 " />
            <path fill="none" stroke-width="3.0" stroke-linecap="butt" stroke-opacity="1.0" stroke="rgb(0, 0, 0)" stroke-linejoin="round" d=" M 415.363, 480.948 417.185, 480.948 417.185, 470.948 417.185, 461.985 415.363, 461.985 409.968, 461.985 399.968, 461.985 389.968, 461.985 389.415, 461.985 379.415, 461.985 375.047, 461.985 365.047, 461.985 358.654, 461.985 348.654, 461.985 340.868, 461.985 330.868, 461.985 322.370, 461.985 312.370, 461.985 303.873, 461.985 293.873, 461.985 286.086, 461.985 276.086, 461.985 269.694, 461.985 259.694, 461.985 255.326, 461.985 245.326, 461.985 235.326, 461.985 234.773, 461.985 " />
            <path fill="none" stroke-width="3.0" stroke-linecap="butt" stroke-opacity="1.0" stroke="rgb(0, 0, 0)" stroke-linejoin="round" d=" M 401.206, 480.948 409.968, 480.948 415.363, 480.948 " />
            <path fill="none" stroke-width="3.0" stroke-linecap="butt" stroke-opacity="1.0" stroke="rgb(0, 0, 0)" stroke-linejoin="round" d=" M 409.968, 461.985 401.206, 461.985 391.206, 461.985 389.415, 461.985 " />
            <path fill="none" stroke-width="3.0" stroke-linecap="butt" stroke-opacity="1.0" stroke="rgb(0, 0, 0)" stroke-linejoin="round" d=" M 269.694, 480.948 279.694, 480.948 286.086, 480.948 296.086, 480.948 303.873, 480.948 313.873, 480.948 322.370, 480.948 332.370, 480.948 340.868, 480.948 350.868, 480.948 358.654, 480.948 368.654, 480.948 375.047, 480.948 379.259, 480.948 " />
            <path fill="none" stroke-width="3.0" stroke-linecap="butt" stroke-opacity="1.0" stroke="rgb(0, 0, 0)" stroke-linejoin="round" d=" M 255.326, 461.985 245.326, 461.985 243.535, 461.985 234.773, 461.985 229.377, 461.985 227.556, 461.985 227.556, 471.985 227.556, 480.948 229.377, 480.948 " />
            <path fill="none" stroke-width="3.0" stroke-linecap="butt" stroke-opacity="1.0" stroke="rgb(0, 0, 0)" stroke-linejoin="round" d=" M 229.377, 480.948 234.773, 480.948 243.535, 480.948 246.519, 480.948 " />
            <path fill="none" stroke-width="3.0" stroke-linecap="butt" stroke-opacity="1.0" stroke="rgb(0, 0, 0)" stroke-linejoin="round" d=" M 229.377, 480.948 234.773, 480.948 243.535, 480.948 246.519, 480.948 " />
            <path fill="none" stroke-width="3.0" stroke-linecap="butt" stroke-opacity="1.0" stroke="rgb(0, 0, 0)" stroke-linejoin="round" d=" M 375.047, 480.948 379.259, 480.948 " />
            <path fill="none" stroke-width="3.0" stroke-linecap="butt" stroke-opacity="1.0" stroke="rgb(0, 0, 0)" stroke-linejoin="round" d=" M 317.630, 381.867 317.630, 390.400 327.111, 390.400 327.111, 381.867 317.630, 381.867 " />
            <path fill="none" stroke-width="3.0" stroke-linecap="butt" stroke-opacity="1.0" stroke="rgb(0, 0, 0)" stroke-linejoin="round" d=" M 758.518, 480.948 758.518, 480.948 758.518, 480.948 758.518, 480.949 758.518, 480.950 758.518, 490.950 758.518, 500.950 758.518, 510.950 758.518, 520.950 758.518, 530.950 758.518, 540.950 758.518, 550.950 758.518, 560.950 758.518, 570.950 758.518, 580.950 758.518, 590.950 758.518, 600.950 758.518, 610.950 758.518, 620.950 758.518, 630.950 758.518, 642.133 758.701, 642.133 759.240, 642.133 760.116, 642.133 761.296, 642.133 762.732, 642.133 764.372, 642.133 766.150, 642.133 768.000, 642.133 769.850, 642.133 771.628, 642.133 773.268, 642.133 774.704, 642.133 775.884, 642.133 776.760, 642.133 777.299, 642.133 777.481, 642.133 777.481, 632.133 777.481, 622.133 777.481, 612.133 777.481, 602.133 777.481, 592.133 777.481, 582.133 777.481, 572.133 777.481, 562.133 777.481, 552.133 777.481, 542.133 777.481, 532.133 777.481, 522.133 777.481, 512.133 777.481, 502.133 777.481, 492.133 777.481, 480.948 777.481, 480.948 777.481, 480.948 777.481, 480.948 777.481, 480.948 " />
            <path fill="none" stroke-width="3.0" stroke-linecap="butt" stroke-opacity="1.0" stroke="rgb(0, 0, 0)" stroke-linejoin="round" d=" M 658.963, 642.133 659.145, 642.133 659.685, 642.133 660.561, 642.133 661.740, 642.133 663.177, 642.133 664.816, 642.133 666.595, 642.133 668.444, 642.133 670.294, 642.133 672.073, 642.133 673.712, 642.133 675.149, 642.133 676.328, 642.133 677.204, 642.133 677.744, 642.133 677.926, 642.133 677.926, 642.133 " />
            <path fill="none" stroke-width="3.0" stroke-linecap="butt" stroke-opacity="1.0" stroke="rgb(0, 0, 0)" stroke-linejoin="round" d=" M 677.926, 642.133 677.926, 632.133 677.926, 622.133 677.926, 612.133 677.926, 602.133 677.926, 592.133 677.926, 582.133 677.926, 572.133 677.926, 562.133 677.926, 552.133 677.926, 542.133 677.926, 532.133 677.926, 522.133 677.926, 512.133 677.926, 502.133 677.926, 492.133 677.926, 480.948 " />
            <path fill="none" stroke-width="3.0" stroke-linecap="butt" stroke-opacity="1.0" stroke="rgb(0, 0, 0)" stroke-linejoin="round" d=" M 658.963, 480.948 658.963, 490.948 658.963, 500.948 658.963, 510.948 658.963, 520.948 658.963, 530.948 658.963, 540.948 658.963, 550.948 658.963, 560.948 658.963, 570.948 658.963, 580.948 658.963, 590.948 658.963, 600.948 658.963, 610.948 658.963, 620.948 658.963, 630.948 658.963, 642.133 659.145, 642.133 659.685, 642.133 660.561, 642.133 661.740, 642.133 663.177, 642.133 664.816, 642.133 666.595, 642.133 668.444, 642.133 670.294, 642.133 672.073, 642.133 673.712, 642.133 675.149, 642.133 676.328, 642.133 677.204, 642.133 677.744, 642.133 677.926, 642.133 " />
            <path fill="none" stroke-width="3.0" stroke-linecap="butt" stroke-opacity="1.0" stroke="rgb(0, 0, 0)" stroke-linejoin="round" d=" M 758.518, 480.948 754.306, 480.948 744.306, 480.948 737.914, 480.948 727.914, 480.948 720.127, 480.948 710.127, 480.948 701.630, 480.948 691.630, 480.948 683.132, 480.948 677.926, 480.948 " />
            <path fill="none" stroke-width="3.0" stroke-linecap="butt" stroke-opacity="1.0" stroke="rgb(0, 0, 0)" stroke-linejoin="round" d=" M 794.623, 480.948 789.227, 480.948 780.465, 480.948 777.481, 480.948 " />
            <path fill="none" stroke-width="3.0" stroke-linecap="butt" stroke-opacity="1.0" stroke="rgb(0, 0, 0)" stroke-linejoin="round" d=" M 780.465, 480.948 789.227, 480.948 794.623, 480.948 796.444, 480.948 796.444, 470.948 796.444, 461.985 794.623, 461.985 789.227, 461.985 " />
            <path fill="none" stroke-width="3.0" stroke-linecap="butt" stroke-opacity="1.0" stroke="rgb(0, 0, 0)" stroke-linejoin="round" d=" M 789.227, 461.985 780.465, 461.985 770.465, 461.985 768.674, 461.985 758.674, 461.985 754.306, 461.985 744.306, 461.985 737.914, 461.985 727.914, 461.985 720.127, 461.985 710.127, 461.985 701.630, 461.985 691.630, 461.985 683.132, 461.985 673.132, 461.985 665.346, 461.985 655.346, 461.985 648.953, 461.985 638.953, 461.985 634.585, 461.985 624.585, 461.985 614.585, 461.985 614.032, 461.985 608.637, 461.985 606.815, 461.985 606.815, 471.985 606.815, 480.948 608.637, 480.948 " />
            <path fill="none" stroke-width="3.0" stroke-linecap="butt" stroke-opacity="1.0" stroke="rgb(0, 0, 0)" stroke-linejoin="round" d=" M 677.926, 480.948 683.132, 480.948 693.132, 480.948 701.630, 480.948 711.630, 480.948 720.127, 480.948 730.127, 480.948 737.914, 480.948 747.914, 480.948 754.306, 480.948 758.518, 480.948 768.518, 480.948 768.674, 480.948 777.481, 480.948 777.803, 480.948 780.465, 480.948 " />
            <path fill="none" stroke-width="3.0" stroke-linecap="butt" stroke-opacity="1.0" stroke="rgb(0, 0, 0)" stroke-linejoin="round" d=" M 658.963, 480.948 665.346, 480.948 675.346, 480.948 677.926, 480.948 " />
            <path fill="none" stroke-width="3.0" stroke-linecap="butt" stroke-opacity="1.0" stroke="rgb(0, 0, 0)" stroke-linejoin="round" d=" M 648.953, 480.948 658.963, 480.948 " />
            <path fill="none" stroke-width="3.0" stroke-linecap="butt" stroke-opacity="1.0" stroke="rgb(0, 0, 0)" stroke-linejoin="round" d=" M 608.637, 480.948 614.032, 480.948 622.794, 480.948 628.646, 480.948 634.585, 480.948 644.585, 480.948 648.953, 480.948 " />
            <path fill="none" stroke-width="3.0" stroke-linecap="butt" stroke-opacity="1.0" stroke="rgb(0, 0, 0)" stroke-linejoin="round" d=" M 634.585, 461.985 624.585, 461.985 622.794, 461.985 614.032, 461.985 " />
            <path fill="none" stroke-width="3.0" stroke-linecap="butt" stroke-opacity="1.0" stroke="rgb(0, 0, 0)" stroke-linejoin="round" d=" M 608.637, 480.948 614.032, 480.948 622.794, 480.948 632.794, 480.948 642.794, 480.948 648.953, 480.948 " />
            <path fill="none" stroke-width="3.0" stroke-linecap="butt" stroke-opacity="1.0" stroke="rgb(0, 0, 0)" stroke-linejoin="round" d=" M 658.963, 480.948 648.953, 480.948 638.953, 480.948 634.585, 480.948 624.585, 480.948 622.794, 480.948 " />
            <path fill="none" stroke-width="3.0" stroke-linecap="butt" stroke-opacity="1.0" stroke="rgb(0, 0, 0)" stroke-linejoin="round" d=" M 754.306, 480.948 758.518, 480.948 " />
            <path fill="none" stroke-width="3.0" stroke-linecap="butt" stroke-opacity="1.0" stroke="rgb(0, 0, 0)" stroke-linejoin="round" d=" M 246.519, 480.948 243.535, 480.948 " />
            <path fill="none" stroke-width="3.0" stroke-linecap="butt" stroke-opacity="1.0" stroke="rgb(0, 0, 0)" stroke-linejoin="round" d=" M 265.481, 480.948 269.694, 480.948 " />
            <path fill="none" stroke-width="3.0" stroke-linecap="butt" stroke-opacity="1.0" stroke="rgb(0, 0, 0)" stroke-linejoin="round" d=" M 265.481, 480.948 269.694, 480.948 " />
            <path fill="none" stroke-width="3.0" stroke-linecap="butt" stroke-opacity="1.0" stroke="rgb(0, 0, 0)" stroke-linejoin="round" d=" M 379.259, 480.948 379.259, 480.948 379.259, 480.948 379.259, 480.949 379.259, 480.950 379.259, 490.950 379.259, 500.950 379.259, 510.950 379.259, 520.950 379.259, 530.950 379.259, 540.950 379.259, 550.950 379.259, 560.950 379.259, 570.950 379.259, 580.950 379.259, 590.950 379.259, 600.950 379.259, 610.950 379.259, 620.950 379.259, 630.950 379.259, 642.133 " />
            <path fill="none" stroke-width="3.0" stroke-linecap="butt" stroke-opacity="1.0" stroke="rgb(0, 0, 0)" stroke-linejoin="round" d=" M 398.222, 480.948 401.206, 480.948 " />
            <path fill="none" stroke-width="3.0" stroke-linecap="butt" stroke-opacity="1.0" stroke="rgb(0, 0, 0)" stroke-linejoin="round" d=" M 398.222, 480.948 398.544, 480.948 401.206, 480.948 " />
            <path fill="none" stroke-width="3.0" stroke-linecap="butt" stroke-opacity="1.0" stroke="rgb(0, 0, 0)" stroke-linejoin="round" d=" M 658.963, 480.948 658.963, 480.948 " />
            <path fill="none" stroke-width="3.0" stroke-linecap="butt" stroke-opacity="1.0" stroke="rgb(0, 0, 0)" stroke-linejoin="round" d=" M 677.926, 480.948 677.926, 480.948 " />
            <path fill="none" stroke-width="3.0" stroke-linecap="butt" stroke-opacity="1.0" stroke="rgb(0, 0, 0)" stroke-linejoin="round" d=" M 777.481, 480.948 780.465, 480.948 " />
            <path fill="none" stroke-width="3.0" stroke-linecap="butt" stroke-opacity="1.0" stroke="rgb(0, 0, 0)" stroke-linejoin="round" d=" M 758.518, 480.948 768.518, 480.948 777.481, 480.948 " />
            <path fill="none" stroke-width="3.0" stroke-linecap="butt" stroke-opacity="1.0" stroke="rgb(0, 0, 0)" stroke-linejoin="round" d=" M 789.227, 461.985 779.227, 461.985 769.227, 461.985 768.674, 461.985 " />
            <path fill="none" stroke-width="3.0" stroke-linecap="butt" stroke-opacity="1.0" stroke="rgb(0, 0, 0)" stroke-linejoin="round" d=" M 777.481, 480.948 767.481, 480.948 758.518, 480.948 " />
        </g>
    </g>
    <g id="ViewLayer_TechnicalLines.001" inkscape:groupmode="lineset" inkscape:label="ViewLayer_TechnicalLines.001">
        <g inkscape:groupmode="layer" id="strokes" inkscape:label="strokes">
            <path fill="none" stroke-width="1.5" stroke-linecap="round" stroke-opacity="1.0" stroke="rgb(0, 0, 0)" stroke-linejoin="round" d=" M 265.481, 642.133 265.481, 632.133 265.481, 622.133 265.481, 612.133 265.481, 602.133 265.481, 592.133 265.481, 582.133 265.481, 572.133 265.481, 562.133 265.481, 552.133 265.481, 542.133 265.481, 532.133 265.481, 522.133 265.481, 512.133 265.481, 502.133 265.481, 492.133 265.481, 480.948 265.481, 480.948 265.481, 480.948 265.481, 480.948 265.481, 480.948 " />
            <path fill="none" stroke-width="1.5" stroke-linecap="round" stroke-opacity="1.0" stroke="rgb(0, 0, 0)" stroke-linejoin="round" d=" M 246.519, 642.133 246.701, 642.133 247.240, 642.133 248.116, 642.133 249.296, 642.133 250.732, 642.133 252.372, 642.133 254.150, 642.133 256.000, 642.133 257.850, 642.133 259.628, 642.133 261.268, 642.133 262.704, 642.133 263.884, 642.133 264.760, 642.133 265.299, 642.133 265.481, 642.133 " />
            <path fill="none" stroke-width="1.5" stroke-linecap="round" stroke-opacity="1.0" stroke="rgb(0, 0, 0)" stroke-linejoin="round" d=" M 262.704, 471.467 261.268, 471.467 259.628, 471.467 257.850, 471.467 256.000, 471.467 254.150, 471.467 252.372, 471.467 250.732, 471.467 249.296, 471.467 248.116, 471.467 247.240, 471.467 246.701, 471.467 246.519, 471.467 246.519, 480.948 246.519, 480.948 246.519, 480.948 246.519, 480.949 246.519, 480.950 246.519, 490.950 246.519, 500.950 246.519, 510.950 246.519, 520.950 246.519, 530.950 246.519, 540.950 246.519, 550.950 246.519, 560.950 246.519, 570.950 246.519, 580.950 246.519, 590.950 246.519, 600.950 246.519, 610.950 246.519, 620.950 246.519, 630.950 246.519, 642.133 " />
            <path fill="none" stroke-width="1.5" stroke-linecap="round" stroke-opacity="1.0" stroke="rgb(0, 0, 0)" stroke-linejoin="round" d=" M 398.222, 642.133 398.222, 632.133 398.222, 622.133 398.222, 612.133 398.222, 602.133 398.222, 592.133 398.222, 582.133 398.222, 572.133 398.222, 562.133 398.222, 552.133 398.222, 542.133 398.222, 532.133 398.222, 522.133 398.222, 512.133 398.222, 502.133 398.222, 492.133 398.222, 480.948 398.222, 480.948 398.222, 480.947 398.222, 480.946 398.222, 480.945 398.222, 471.467 " />
            <path fill="none" stroke-width="1.5" stroke-linecap="round" stroke-opacity="1.0" stroke="rgb(0, 0, 0)" stroke-linejoin="round" d=" M 398.222, 471.467 398.222, 471.467 398.040, 471.467 397.500, 471.467 396.624, 471.467 395.445, 471.467 394.008, 471.467 392.369, 471.467 390.590, 471.467 388.741, 471.467 386.891, 471.467 385.112, 471.467 383.473, 471.467 382.036, 471.467 " />
            <path fill="none" stroke-width="1.5" stroke-linecap="round" stroke-opacity="1.0" stroke="rgb(0, 0, 0)" stroke-linejoin="round" d=" M 379.259, 642.133 379.441, 642.133 379.981, 642.133 380.857, 642.133 382.036, 642.133 383.473, 642.133 385.112, 642.133 386.891, 642.133 388.741, 642.133 390.590, 642.133 392.369, 642.133 394.008, 642.133 395.445, 642.133 396.624, 642.133 397.500, 642.133 398.040, 642.133 398.222, 642.133 " />
            <path fill="none" stroke-width="1.5" stroke-linecap="round" stroke-opacity="1.0" stroke="rgb(0, 0, 0)" stroke-linejoin="round" d=" M 246.519, 642.133 246.519, 642.133 246.701, 642.133 247.240, 642.133 248.116, 642.133 249.296, 642.133 250.732, 642.133 252.372, 642.133 254.150, 642.133 256.000, 642.133 257.850, 642.133 259.628, 642.133 261.268, 642.133 262.704, 642.133 263.884, 642.133 264.760, 642.133 265.299, 642.133 265.481, 642.133 265.481, 642.133 " />
            <path fill="none" stroke-width="1.5" stroke-linecap="round" stroke-opacity="1.0" stroke="rgb(0, 0, 0)" stroke-linejoin="round" d=" M 379.259, 642.133 379.259, 642.133 379.441, 642.133 379.981, 642.133 380.857, 642.133 382.036, 642.133 383.473, 642.133 385.112, 642.133 386.891, 642.133 388.741, 642.133 390.590, 642.133 392.369, 642.133 394.008, 642.133 395.445, 642.133 396.624, 642.133 397.500, 642.133 398.040, 642.133 398.222, 642.133 398.222, 642.133 " />
            <path fill="none" stroke-width="1.5" stroke-linecap="round" stroke-opacity="1.0" stroke="rgb(0, 0, 0)" stroke-linejoin="round" d=" M 379.259, 480.948 375.047, 480.948 365.047, 480.948 358.654, 480.948 348.654, 480.948 340.868, 480.948 330.868, 480.948 322.370, 480.948 312.370, 480.948 303.873, 480.948 293.873, 480.948 286.086, 480.948 276.086, 480.948 269.694, 480.948 265.481, 480.948 " />
            <path fill="none" stroke-width="1.5" stroke-linecap="round" stroke-opacity="1.0" stroke="rgb(0, 0, 0)" stroke-linejoin="round" d=" M 415.363, 480.948 409.968, 480.948 401.206, 480.948 398.222, 480.948 " />
            <path fill="none" stroke-width="1.5" stroke-linecap="round" stroke-opacity="1.0" stroke="rgb(0, 0, 0)" stroke-linejoin="round" d=" M 415.363, 480.948 417.185, 480.948 417.185, 470.948 417.185, 461.985 415.363, 461.985 409.968, 461.985 399.968, 461.985 389.968, 461.985 389.415, 461.985 379.415, 461.985 375.047, 461.985 365.047, 461.985 358.654, 461.985 348.654, 461.985 340.868, 461.985 330.868, 461.985 322.370, 461.985 312.370, 461.985 303.873, 461.985 293.873, 461.985 286.086, 461.985 276.086, 461.985 269.694, 461.985 259.694, 461.985 255.326, 461.985 245.326, 461.985 235.326, 461.985 234.773, 461.985 " />
            <path fill="none" stroke-width="1.5" stroke-linecap="round" stroke-opacity="1.0" stroke="rgb(0, 0, 0)" stroke-linejoin="round" d=" M 401.206, 480.948 409.968, 480.948 415.363, 480.948 " />
            <path fill="none" stroke-width="1.5" stroke-linecap="round" stroke-opacity="1.0" stroke="rgb(0, 0, 0)" stroke-linejoin="round" d=" M 409.968, 461.985 401.206, 461.985 391.206, 461.985 389.415, 461.985 " />
            <path fill="none" stroke-width="1.5" stroke-linecap="round" stroke-opacity="1.0" stroke="rgb(0, 0, 0)" stroke-linejoin="round" d=" M 269.694, 480.948 279.694, 480.948 286.086, 480.948 296.086, 480.948 303.873, 480.948 313.873, 480.948 322.370, 480.948 332.370, 480.948 340.868, 480.948 350.868, 480.948 358.654, 480.948 368.654, 480.948 375.047, 480.948 379.259, 480.948 " />
            <path fill="none" stroke-width="1.5" stroke-linecap="round" stroke-opacity="1.0" stroke="rgb(0, 0, 0)" stroke-linejoin="round" d=" M 255.326, 461.985 245.326, 461.985 243.535, 461.985 234.773, 461.985 229.377, 461.985 227.556, 461.985 227.556, 471.985 227.556, 480.948 229.377, 480.948 " />
            <path fill="none" stroke-width="1.5" stroke-linecap="round" stroke-opacity="1.0" stroke="rgb(0, 0, 0)" stroke-linejoin="round" d=" M 229.377, 480.948 234.773, 480.948 243.535, 480.948 246.519, 480.948 " />
            <path fill="none" stroke-width="1.5" stroke-linecap="round" stroke-opacity="1.0" stroke="rgb(0, 0, 0)" stroke-linejoin="round" d=" M 229.377, 480.948 234.773, 480.948 243.535, 480.948 246.519, 480.948 " />
            <path fill="none" stroke-width="1.5" stroke-linecap="round" stroke-opacity="1.0" stroke="rgb(0, 0, 0)" stroke-linejoin="round" d=" M 375.047, 480.948 379.259, 480.948 " />
            <path fill="none" stroke-width="1.5" stroke-linecap="round" stroke-opacity="1.0" stroke="rgb(0, 0, 0)" stroke-linejoin="round" d=" M 317.630, 381.867 317.630, 390.400 327.111, 390.400 327.111, 381.867 317.630, 381.867 " />
            <path fill="none" stroke-width="1.5" stroke-linecap="round" stroke-opacity="1.0" stroke="rgb(0, 0, 0)" stroke-linejoin="round" d=" M 758.518, 480.948 758.518, 480.948 758.518, 480.948 758.518, 480.949 758.518, 480.950 758.518, 490.950 758.518, 500.950 758.518, 510.950 758.518, 520.950 758.518, 530.950 758.518, 540.950 758.518, 550.950 758.518, 560.950 758.518, 570.950 758.518, 580.950 758.518, 590.950 758.518, 600.950 758.518, 610.950 758.518, 620.950 758.518, 630.950 758.518, 642.133 758.701, 642.133 759.240, 642.133 760.116, 642.133 761.296, 642.133 762.732, 642.133 764.372, 642.133 766.150, 642.133 768.000, 642.133 769.850, 642.133 771.628, 642.133 773.268, 642.133 774.704, 642.133 775.884, 642.133 776.760, 642.133 777.299, 642.133 777.481, 642.133 777.481, 632.133 777.481, 622.133 777.481, 612.133 777.481, 602.133 777.481, 592.133 777.481, 582.133 777.481, 572.133 777.481, 562.133 777.481, 552.133 777.481, 542.133 777.481, 532.133 777.481, 522.133 777.481, 512.133 777.481, 502.133 777.481, 492.133 777.481, 480.948 777.481, 480.948 777.481, 480.948 777.481, 480.948 777.481, 480.948 " />
            <path fill="none" stroke-width="1.5" stroke-linecap="round" stroke-opacity="1.0" stroke="rgb(0, 0, 0)" stroke-linejoin="round" d=" M 658.963, 642.133 659.145, 642.133 659.685, 642.133 660.561, 642.133 661.740, 642.133 663.177, 642.133 664.816, 642.133 666.595, 642.133 668.444, 642.133 670.294, 642.133 672.073, 642.133 673.712, 642.133 675.149, 642.133 676.328, 642.133 677.204, 642.133 677.744, 642.133 677.926, 642.133 677.926, 642.133 " />
            <path fill="none" stroke-width="1.5" stroke-linecap="round" stroke-opacity="1.0" stroke="rgb(0, 0, 0)" stroke-linejoin="round" d=" M 677.926, 642.133 677.926, 632.133 677.926, 622.133 677.926, 612.133 677.926, 602.133 677.926, 592.133 677.926, 582.133 677.926, 572.133 677.926, 562.133 677.926, 552.133 677.926, 542.133 677.926, 532.133 677.926, 522.133 677.926, 512.133 677.926, 502.133 677.926, 492.133 677.926, 480.948 " />
            <path fill="none" stroke-width="1.5" stroke-linecap="round" stroke-opacity="1.0" stroke="rgb(0, 0, 0)" stroke-linejoin="round" d=" M 658.963, 480.948 658.963, 490.948 658.963, 500.948 658.963, 510.948 658.963, 520.948 658.963, 530.948 658.963, 540.948 658.963, 550.948 658.963, 560.948 658.963, 570.948 658.963, 580.948 658.963, 590.948 658.963, 600.948 658.963, 610.948 658.963, 620.948 658.963, 630.948 658.963, 642.133 659.145, 642.133 659.685, 642.133 660.561, 642.133 661.740, 642.133 663.177, 642.133 664.816, 642.133 666.595, 642.133 668.444, 642.133 670.294, 642.133 672.073, 642.133 673.712, 642.133 675.149, 642.133 676.328, 642.133 677.204, 642.133 677.744, 642.133 677.926, 642.133 " />
            <path fill="none" stroke-width="1.5" stroke-linecap="round" stroke-opacity="1.0" stroke="rgb(0, 0, 0)" stroke-linejoin="round" d=" M 758.518, 480.948 754.306, 480.948 744.306, 480.948 737.914, 480.948 727.914, 480.948 720.127, 480.948 710.127, 480.948 701.630, 480.948 691.630, 480.948 683.132, 480.948 677.926, 480.948 " />
            <path fill="none" stroke-width="1.5" stroke-linecap="round" stroke-opacity="1.0" stroke="rgb(0, 0, 0)" stroke-linejoin="round" d=" M 794.623, 480.948 789.227, 480.948 780.465, 480.948 777.481, 480.948 " />
            <path fill="none" stroke-width="1.5" stroke-linecap="round" stroke-opacity="1.0" stroke="rgb(0, 0, 0)" stroke-linejoin="round" d=" M 780.465, 480.948 789.227, 480.948 794.623, 480.948 796.444, 480.948 796.444, 470.948 796.444, 461.985 794.623, 461.985 789.227, 461.985 " />
            <path fill="none" stroke-width="1.5" stroke-linecap="round" stroke-opacity="1.0" stroke="rgb(0, 0, 0)" stroke-linejoin="round" d=" M 789.227, 461.985 780.465, 461.985 770.465, 461.985 768.674, 461.985 758.674, 461.985 754.306, 461.985 744.306, 461.985 737.914, 461.985 727.914, 461.985 720.127, 461.985 710.127, 461.985 701.630, 461.985 691.630, 461.985 683.132, 461.985 673.132, 461.985 665.346, 461.985 655.346, 461.985 648.953, 461.985 638.953, 461.985 634.585, 461.985 624.585, 461.985 614.585, 461.985 614.032, 461.985 608.637, 461.985 606.815, 461.985 606.815, 471.985 606.815, 480.948 608.637, 480.948 " />
            <path fill="none" stroke-width="1.5" stroke-linecap="round" stroke-opacity="1.0" stroke="rgb(0, 0, 0)" stroke-linejoin="round" d=" M 677.926, 480.948 683.132, 480.948 693.132, 480.948 701.630, 480.948 711.630, 480.948 720.127, 480.948 730.127, 480.948 737.914, 480.948 747.914, 480.948 754.306, 480.948 758.518, 480.948 768.518, 480.948 768.674, 480.948 777.481, 480.948 777.803, 480.948 780.465, 480.948 " />
            <path fill="none" stroke-width="1.5" stroke-linecap="round" stroke-opacity="1.0" stroke="rgb(0, 0, 0)" stroke-linejoin="round" d=" M 658.963, 480.948 665.346, 480.948 675.346, 480.948 677.926, 480.948 " />
            <path fill="none" stroke-width="1.5" stroke-linecap="round" stroke-opacity="1.0" stroke="rgb(0, 0, 0)" stroke-linejoin="round" d=" M 648.953, 480.948 658.963, 480.948 " />
            <path fill="none" stroke-width="1.5" stroke-linecap="round" stroke-opacity="1.0" stroke="rgb(0, 0, 0)" stroke-linejoin="round" d=" M 608.637, 480.948 614.032, 480.948 622.794, 480.948 628.646, 480.948 634.585, 480.948 644.585, 480.948 648.953, 480.948 " />
            <path fill="none" stroke-width="1.5" stroke-linecap="round" stroke-opacity="1.0" stroke="rgb(0, 0, 0)" stroke-linejoin="round" d=" M 634.585, 461.985 624.585, 461.985 622.794, 461.985 614.032, 461.985 " />
            <path fill="none" stroke-width="1.5" stroke-linecap="round" stroke-opacity="1.0" stroke="rgb(0, 0, 0)" stroke-linejoin="round" d=" M 608.637, 480.948 614.032, 480.948 622.794, 480.948 632.794, 480.948 642.794, 480.948 648.953, 480.948 " />
            <path fill="none" stroke-width="1.5" stroke-linecap="round" stroke-opacity="1.0" stroke="rgb(0, 0, 0)" stroke-linejoin="round" d=" M 658.963, 480.948 648.953, 480.948 638.953, 480.948 634.585, 480.948 624.585, 480.948 622.794, 480.948 " />
            <path fill="none" stroke-width="1.5" stroke-linecap="round" stroke-opacity="1.0" stroke="rgb(0, 0, 0)" stroke-linejoin="round" d=" M 754.306, 480.948 758.518, 480.948 " />
            <path fill="none" stroke-width="1.5" stroke-linecap="round" stroke-opacity="1.0" stroke="rgb(0, 0, 0)" stroke-linejoin="round" d=" M 246.519, 480.948 243.535, 480.948 " />
            <path fill="none" stroke-width="1.5" stroke-linecap="round" stroke-opacity="1.0" stroke="rgb(0, 0, 0)" stroke-linejoin="round" d=" M 265.481, 480.948 269.694, 480.948 " />
            <path fill="none" stroke-width="1.5" stroke-linecap="round" stroke-opacity="1.0" stroke="rgb(0, 0, 0)" stroke-linejoin="round" d=" M 265.481, 480.948 269.694, 480.948 " />
            <path fill="none" stroke-width="1.5" stroke-linecap="round" stroke-opacity="1.0" stroke="rgb(0, 0, 0)" stroke-linejoin="round" d=" M 379.259, 480.948 379.259, 480.948 379.259, 480.948 379.259, 480.949 379.259, 480.950 379.259, 490.950 379.259, 500.950 379.259, 510.950 379.259, 520.950 379.259, 530.950 379.259, 540.950 379.259, 550.950 379.259, 560.950 379.259, 570.950 379.259, 580.950 379.259, 590.950 379.259, 600.950 379.259, 610.950 379.259, 620.950 379.259, 630.950 379.259, 642.133 " />
            <path fill="none" stroke-width="1.5" stroke-linecap="round" stroke-opacity="1.0" stroke="rgb(0, 0, 0)" stroke-linejoin="round" d=" M 398.222, 480.948 401.206, 480.948 " />
            <path fill="none" stroke-width="1.5" stroke-linecap="round" stroke-opacity="1.0" stroke="rgb(0, 0, 0)" stroke-linejoin="round" d=" M 398.222, 480.948 398.544, 480.948 401.206, 480.948 " />
            <path fill="none" stroke-width="1.5" stroke-linecap="round" stroke-opacity="1.0" stroke="rgb(0, 0, 0)" stroke-linejoin="round" d=" M 658.963, 480.948 658.963, 480.948 " />
            <path fill="none" stroke-width="1.5" stroke-linecap="round" stroke-opacity="1.0" stroke="rgb(0, 0, 0)" stroke-linejoin="round" d=" M 677.926, 480.948 677.926, 480.948 " />
            <path fill="none" stroke-width="1.5" stroke-linecap="round" stroke-opacity="1.0" stroke="rgb(0, 0, 0)" stroke-linejoin="round" d=" M 777.481, 480.948 780.465, 480.948 " />
            <path fill="none" stroke-width="1.5" stroke-linecap="round" stroke-opacity="1.0" stroke="rgb(0, 0, 0)" stroke-linejoin="round" d=" M 758.518, 480.948 768.518, 480.948 777.481, 480.948 " />
            <path fill="none" stroke-width="1.5" stroke-linecap="round" stroke-opacity="1.0" stroke="rgb(0, 0, 0)" stroke-linejoin="round" d=" M 789.227, 461.985 779.227, 461.985 769.227, 461.985 768.674, 461.985 " />
            <path fill="none" stroke-width="1.5" stroke-linecap="round" stroke-opacity="1.0" stroke="rgb(0, 0, 0)" stroke-linejoin="round" d=" M 777.481, 480.948 767.481, 480.948 758.518, 480.948 " />
        </g>
    </g>
    <g id="ViewLayer_TechnicalLines.002" inkscape:groupmode="lineset" inkscape:label="ViewLayer_TechnicalLines.002">
        <g inkscape:groupmode="layer" id="strokes" inkscape:label="strokes">
            <path fill="none" stroke-width="1.5" stroke-linecap="round" stroke-opacity="1.0" stroke="rgb(0, 0, 0)" stroke-linejoin="round" d=" M 265.481, 642.133 265.481, 632.133 265.481, 622.133 265.481, 612.133 265.481, 602.133 265.481, 592.133 265.481, 582.133 265.481, 572.133 265.481, 562.133 265.481, 552.133 265.481, 542.133 265.481, 532.133 265.481, 522.133 265.481, 512.133 265.481, 502.133 265.481, 492.133 265.481, 480.948 265.481, 480.948 265.481, 480.948 265.481, 480.948 265.481, 480.948 " />
            <path fill="none" stroke-width="1.5" stroke-linecap="round" stroke-opacity="1.0" stroke="rgb(0, 0, 0)" stroke-linejoin="round" d=" M 246.519, 642.133 246.701, 642.133 247.240, 642.133 248.116, 642.133 249.296, 642.133 250.732, 642.133 252.372, 642.133 254.150, 642.133 256.000, 642.133 257.850, 642.133 259.628, 642.133 261.268, 642.133 262.704, 642.133 263.884, 642.133 264.760, 642.133 265.299, 642.133 265.481, 642.133 " />
            <path fill="none" stroke-width="1.5" stroke-linecap="round" stroke-opacity="1.0" stroke="rgb(0, 0, 0)" stroke-linejoin="round" d=" M 262.704, 471.467 261.268, 471.467 259.628, 471.467 257.850, 471.467 256.000, 471.467 254.150, 471.467 252.372, 471.467 250.732, 471.467 249.296, 471.467 248.116, 471.467 247.240, 471.467 246.701, 471.467 246.519, 471.467 246.519, 480.948 246.519, 480.948 246.519, 480.948 246.519, 480.949 246.519, 480.950 246.519, 490.950 246.519, 500.950 246.519, 510.950 246.519, 520.950 246.519, 530.950 246.519, 540.950 246.519, 550.950 246.519, 560.950 246.519, 570.950 246.519, 580.950 246.519, 590.950 246.519, 600.950 246.519, 610.950 246.519, 620.950 246.519, 630.950 246.519, 642.133 " />
            <path fill="none" stroke-width="1.5" stroke-linecap="round" stroke-opacity="1.0" stroke="rgb(0, 0, 0)" stroke-linejoin="round" d=" M 398.222, 642.133 398.222, 632.133 398.222, 622.133 398.222, 612.133 398.222, 602.133 398.222, 592.133 398.222, 582.133 398.222, 572.133 398.222, 562.133 398.222, 552.133 398.222, 542.133 398.222, 532.133 398.222, 522.133 398.222, 512.133 398.222, 502.133 398.222, 492.133 398.222, 480.948 398.222, 480.948 398.222, 480.947 398.222, 480.946 398.222, 480.945 398.222, 471.467 " />
            <path fill="none" stroke-width="1.5" stroke-linecap="round" stroke-opacity="1.0" stroke="rgb(0, 0, 0)" stroke-linejoin="round" d=" M 398.222, 471.467 398.222, 471.467 398.040, 471.467 397.500, 471.467 396.624, 471.467 395.445, 471.467 394.008, 471.467 392.369, 471.467 390.590, 471.467 388.741, 471.467 386.891, 471.467 385.112, 471.467 383.473, 471.467 382.036, 471.467 " />
            <path fill="none" stroke-width="1.5" stroke-linecap="round" stroke-opacity="1.0" stroke="rgb(0, 0, 0)" stroke-linejoin="round" d=" M 379.259, 642.133 379.441, 642.133 379.981, 642.133 380.857, 642.133 382.036, 642.133 383.473, 642.133 385.112, 642.133 386.891, 642.133 388.741, 642.133 390.590, 642.133 392.369, 642.133 394.008, 642.133 395.445, 642.133 396.624, 642.133 397.500, 642.133 398.040, 642.133 398.222, 642.133 " />
            <path fill="none" stroke-width="1.5" stroke-linecap="round" stroke-opacity="1.0" stroke="rgb(0, 0, 0)" stroke-linejoin="round" d=" M 246.519, 642.133 246.519, 642.133 246.701, 642.133 247.240, 642.133 248.116, 642.133 249.296, 642.133 250.732, 642.133 252.372, 642.133 254.150, 642.133 256.000, 642.133 257.850, 642.133 259.628, 642.133 261.268, 642.133 262.704, 642.133 263.884, 642.133 264.760, 642.133 265.299, 642.133 265.481, 642.133 265.481, 642.133 " />
            <path fill="none" stroke-width="1.5" stroke-linecap="round" stroke-opacity="1.0" stroke="rgb(0, 0, 0)" stroke-linejoin="round" d=" M 379.259, 642.133 379.259, 642.133 379.441, 642.133 379.981, 642.133 380.857, 642.133 382.036, 642.133 383.473, 642.133 385.112, 642.133 386.891, 642.133 388.741, 642.133 390.590, 642.133 392.369, 642.133 394.008, 642.133 395.445, 642.133 396.624, 642.133 397.500, 642.133 398.040, 642.133 398.222, 642.133 398.222, 642.133 " />
            <path fill="none" stroke-width="1.5" stroke-linecap="round" stroke-opacity="1.0" stroke="rgb(0, 0, 0)" stroke-linejoin="round" d=" M 379.259, 480.948 375.047, 480.948 365.047, 480.948 358.654, 480.948 348.654, 480.948 340.868, 480.948 330.868, 480.948 322.370, 480.948 312.370, 480.948 303.873, 480.948 293.873, 480.948 286.086, 480.948 276.086, 480.948 269.694, 480.948 265.481, 480.948 " />
            <path fill="none" stroke-width="1.5" stroke-linecap="round" stroke-opacity="1.0" stroke="rgb(0, 0, 0)" stroke-linejoin="round" d=" M 415.363, 480.948 409.968, 480.948 401.206, 480.948 398.222, 480.948 " />
            <path fill="none" stroke-width="1.5" stroke-linecap="round" stroke-opacity="1.0" stroke="rgb(0, 0, 0)" stroke-linejoin="round" d=" M 415.363, 480.948 417.185, 480.948 417.185, 470.948 417.185, 461.985 415.363, 461.985 409.968, 461.985 399.968, 461.985 389.968, 461.985 389.415, 461.985 379.415, 461.985 375.047, 461.985 365.047, 461.985 358.654, 461.985 348.654, 461.985 340.868, 461.985 330.868, 461.985 322.370, 461.985 312.370, 461.985 303.873, 461.985 293.873, 461.985 286.086, 461.985 276.086, 461.985 269.694, 461.985 259.694, 461.985 255.326, 461.985 245.326, 461.985 235.326, 461.985 234.773, 461.985 " />
            <path fill="none" stroke-width="1.5" stroke-linecap="round" stroke-opacity="1.0" stroke="rgb(0, 0, 0)" stroke-linejoin="round" d=" M 401.206, 480.948 409.968, 480.948 415.363, 480.948 " />
            <path fill="none" stroke-width="1.5" stroke-linecap="round" stroke-opacity="1.0" stroke="rgb(0, 0, 0)" stroke-linejoin="round" d=" M 409.968, 461.985 401.206, 461.985 391.206, 461.985 389.415, 461.985 " />
            <path fill="none" stroke-width="1.5" stroke-linecap="round" stroke-opacity="1.0" stroke="rgb(0, 0, 0)" stroke-linejoin="round" d=" M 269.694, 480.948 279.694, 480.948 286.086, 480.948 296.086, 480.948 303.873, 480.948 313.873, 480.948 322.370, 480.948 332.370, 480.948 340.868, 480.948 350.868, 480.948 358.654, 480.948 368.654, 480.948 375.047, 480.948 379.259, 480.948 " />
            <path fill="none" stroke-width="1.5" stroke-linecap="round" stroke-opacity="1.0" stroke="rgb(0, 0, 0)" stroke-linejoin="round" d=" M 255.326, 461.985 245.326, 461.985 243.535, 461.985 234.773, 461.985 229.377, 461.985 227.556, 461.985 227.556, 471.985 227.556, 480.948 229.377, 480.948 " />
            <path fill="none" stroke-width="1.5" stroke-linecap="round" stroke-opacity="1.0" stroke="rgb(0, 0, 0)" stroke-linejoin="round" d=" M 229.377, 480.948 234.773, 480.948 243.535, 480.948 246.519, 480.948 " />
            <path fill="none" stroke-width="1.5" stroke-linecap="round" stroke-opacity="1.0" stroke="rgb(0, 0, 0)" stroke-linejoin="round" d=" M 229.377, 480.948 234.773, 480.948 243.535, 480.948 246.519, 480.948 " />
            <path fill="none" stroke-width="1.5" stroke-linecap="round" stroke-opacity="1.0" stroke="rgb(0, 0, 0)" stroke-linejoin="round" d=" M 375.047, 480.948 379.259, 480.948 " />
            <path fill="none" stroke-width="1.5" stroke-linecap="round" stroke-opacity="1.0" stroke="rgb(0, 0, 0)" stroke-linejoin="round" d=" M 317.630, 381.867 317.630, 390.400 327.111, 390.400 327.111, 381.867 317.630, 381.867 " />
            <path fill="none" stroke-width="1.5" stroke-linecap="round" stroke-opacity="1.0" stroke="rgb(0, 0, 0)" stroke-linejoin="round" d=" M 758.518, 480.948 758.518, 480.948 758.518, 480.948 758.518, 480.949 758.518, 480.950 758.518, 490.950 758.518, 500.950 758.518, 510.950 758.518, 520.950 758.518, 530.950 758.518, 540.950 758.518, 550.950 758.518, 560.950 758.518, 570.950 758.518, 580.950 758.518, 590.950 758.518, 600.950 758.518, 610.950 758.518, 620.950 758.518, 630.950 758.518, 642.133 758.701, 642.133 759.240, 642.133 760.116, 642.133 761.296, 642.133 762.732, 642.133 764.372, 642.133 766.150, 642.133 768.000, 642.133 769.850, 642.133 771.628, 642.133 773.268, 642.133 774.704, 642.133 775.884, 642.133 776.760, 642.133 777.299, 642.133 777.481, 642.133 777.481, 632.133 777.481, 622.133 777.481, 612.133 777.481, 602.133 777.481, 592.133 777.481, 582.133 777.481, 572.133 777.481, 562.133 777.481, 552.133 777.481, 542.133 777.481, 532.133 777.481, 522.133 777.481, 512.133 777.481, 502.133 777.481, 492.133 777.481, 480.948 777.481, 480.948 777.481, 480.948 777.481, 480.948 777.481, 480.948 " />
            <path fill="none" stroke-width="1.5" stroke-linecap="round" stroke-opacity="1.0" stroke="rgb(0, 0, 0)" stroke-linejoin="round" d=" M 658.963, 642.133 659.145, 642.133 659.685, 642.133 660.561, 642.133 661.740, 642.133 663.177, 642.133 664.816, 642.133 666.595, 642.133 668.444, 642.133 670.294, 642.133 672.073, 642.133 673.712, 642.133 675.149, 642.133 676.328, 642.133 677.204, 642.133 677.744, 642.133 677.926, 642.133 677.926, 642.133 " />
            <path fill="none" stroke-width="1.5" stroke-linecap="round" stroke-opacity="1.0" stroke="rgb(0, 0, 0)" stroke-linejoin="round" d=" M 677.926, 642.133 677.926, 632.133 677.926, 622.133 677.926, 612.133 677.926, 602.133 677.926, 592.133 677.926, 582.133 677.926, 572.133 677.926, 562.133 677.926, 552.133 677.926, 542.133 677.926, 532.133 677.926, 522.133 677.926, 512.133 677.926, 502.133 677.926, 492.133 677.926, 480.948 " />
            <path fill="none" stroke-width="1.5" stroke-linecap="round" stroke-opacity="1.0" stroke="rgb(0, 0, 0)" stroke-linejoin="round" d=" M 658.963, 480.948 658.963, 490.948 658.963, 500.948 658.963, 510.948 658.963, 520.948 658.963, 530.948 658.963, 540.948 658.963, 550.948 658.963, 560.948 658.963, 570.948 658.963, 580.948 658.963, 590.948 658.963, 600.948 658.963, 610.948 658.963, 620.948 658.963, 630.948 658.963, 642.133 659.145, 642.133 659.685, 642.133 660.561, 642.133 661.740, 642.133 663.177, 642.133 664.816, 642.133 666.595, 642.133 668.444, 642.133 670.294, 642.133 672.073, 642.133 673.712, 642.133 675.149, 642.133 676.328, 642.133 677.204, 642.133 677.744, 642.133 677.926, 642.133 " />
            <path fill="none" stroke-width="1.5" stroke-linecap="round" stroke-opacity="1.0" stroke="rgb(0, 0, 0)" stroke-linejoin="round" d=" M 758.518, 480.948 754.306, 480.948 744.306, 480.948 737.914, 480.948 727.914, 480.948 720.127, 480.948 710.127, 480.948 701.630, 480.948 691.630, 480.948 683.132, 480.948 677.926, 480.948 " />
            <path fill="none" stroke-width="1.5" stroke-linecap="round" stroke-opacity="1.0" stroke="rgb(0, 0, 0)" stroke-linejoin="round" d=" M 794.623, 480.948 789.227, 480.948 780.465, 480.948 777.481, 480.948 " />
            <path fill="none" stroke-width="1.5" stroke-linecap="round" stroke-opacity="1.0" stroke="rgb(0, 0, 0)" stroke-linejoin="round" d=" M 780.465, 480.948 789.227, 480.948 794.623, 480.948 796.444, 480.948 796.444, 470.948 796.444, 461.985 794.623, 461.985 789.227, 461.985 " />
            <path fill="none" stroke-width="1.5" stroke-linecap="round" stroke-opacity="1.0" stroke="rgb(0, 0, 0)" stroke-linejoin="round" d=" M 789.227, 461.985 780.465, 461.985 770.465, 461.985 768.674, 461.985 758.674, 461.985 754.306, 461.985 744.306, 461.985 737.914, 461.985 727.914, 461.985 720.127, 461.985 710.127, 461.985 701.630, 461.985 691.630, 461.985 683.132, 461.985 673.132, 461.985 665.346, 461.985 655.346, 461.985 648.953, 461.985 638.953, 461.985 634.585, 461.985 624.585, 461.985 614.585, 461.985 614.032, 461.985 608.637, 461.985 606.815, 461.985 606.815, 471.985 606.815, 480.948 608.637, 480.948 " />
            <path fill="none" stroke-width="1.5" stroke-linecap="round" stroke-opacity="1.0" stroke="rgb(0, 0, 0)" stroke-linejoin="round" d=" M 677.926, 480.948 683.132, 480.948 693.132, 480.948 701.630, 480.948 711.630, 480.948 720.127, 480.948 730.127, 480.948 737.914, 480.948 747.914, 480.948 754.306, 480.948 758.518, 480.948 768.518, 480.948 768.674, 480.948 777.481, 480.948 777.803, 480.948 780.465, 480.948 " />
            <path fill="none" stroke-width="1.5" stroke-linecap="round" stroke-opacity="1.0" stroke="rgb(0, 0, 0)" stroke-linejoin="round" d=" M 658.963, 480.948 665.346, 480.948 675.346, 480.948 677.926, 480.948 " />
            <path fill="none" stroke-width="1.5" stroke-linecap="round" stroke-opacity="1.0" stroke="rgb(0, 0, 0)" stroke-linejoin="round" d=" M 648.953, 480.948 658.963, 480.948 " />
            <path fill="none" stroke-width="1.5" stroke-linecap="round" stroke-opacity="1.0" stroke="rgb(0, 0, 0)" stroke-linejoin="round" d=" M 608.637, 480.948 614.032, 480.948 622.794, 480.948 628.646, 480.948 634.585, 480.948 644.585, 480.948 648.953, 480.948 " />
            <path fill="none" stroke-width="1.5" stroke-linecap="round" stroke-opacity="1.0" stroke="rgb(0, 0, 0)" stroke-linejoin="round" d=" M 634.585, 461.985 624.585, 461.985 622.794, 461.985 614.032, 461.985 " />
            <path fill="none" stroke-width="1.5" stroke-linecap="round" stroke-opacity="1.0" stroke="rgb(0, 0, 0)" stroke-linejoin="round" d=" M 608.637, 480.948 614.032, 480.948 622.794, 480.948 632.794, 480.948 642.794, 480.948 648.953, 480.948 " />
            <path fill="none" stroke-width="1.5" stroke-linecap="round" stroke-opacity="1.0" stroke="rgb(0, 0, 0)" stroke-linejoin="round" d=" M 658.963, 480.948 648.953, 480.948 638.953, 480.948 634.585, 480.948 624.585, 480.948 622.794, 480.948 " />
            <path fill="none" stroke-width="1.5" stroke-linecap="round" stroke-opacity="1.0" stroke="rgb(0, 0, 0)" stroke-linejoin="round" d=" M 754.306, 480.948 758.518, 480.948 " />
            <path fill="none" stroke-width="1.5" stroke-linecap="round" stroke-opacity="1.0" stroke="rgb(0, 0, 0)" stroke-linejoin="round" d=" M 246.519, 480.948 243.535, 480.948 " />
            <path fill="none" stroke-width="1.5" stroke-linecap="round" stroke-opacity="1.0" stroke="rgb(0, 0, 0)" stroke-linejoin="round" d=" M 265.481, 480.948 269.694, 480.948 " />
            <path fill="none" stroke-width="1.5" stroke-linecap="round" stroke-opacity="1.0" stroke="rgb(0, 0, 0)" stroke-linejoin="round" d=" M 265.481, 480.948 269.694, 480.948 " />
            <path fill="none" stroke-width="1.5" stroke-linecap="round" stroke-opacity="1.0" stroke="rgb(0, 0, 0)" stroke-linejoin="round" d=" M 379.259, 480.948 379.259, 480.948 379.259, 480.948 379.259, 480.949 379.259, 480.950 379.259, 490.950 379.259, 500.950 379.259, 510.950 379.259, 520.950 379.259, 530.950 379.259, 540.950 379.259, 550.950 379.259, 560.950 379.259, 570.950 379.259, 580.950 379.259, 590.950 379.259, 600.950 379.259, 610.950 379.259, 620.950 379.259, 630.950 379.259, 642.133 " />
            <path fill="none" stroke-width="1.5" stroke-linecap="round" stroke-opacity="1.0" stroke="rgb(0, 0, 0)" stroke-linejoin="round" d=" M 398.222, 480.948 401.206, 480.948 " />
            <path fill="none" stroke-width="1.5" stroke-linecap="round" stroke-opacity="1.0" stroke="rgb(0, 0, 0)" stroke-linejoin="round" d=" M 398.222, 480.948 398.544, 480.948 401.206, 480.948 " />
            <path fill="none" stroke-width="1.5" stroke-linecap="round" stroke-opacity="1.0" stroke="rgb(0, 0, 0)" stroke-linejoin="round" d=" M 658.963, 480.948 658.963, 480.948 " />
            <path fill="none" stroke-width="1.5" stroke-linecap="round" stroke-opacity="1.0" stroke="rgb(0, 0, 0)" stroke-linejoin="round" d=" M 677.926, 480.948 677.926, 480.948 " />
            <path fill="none" stroke-width="1.5" stroke-linecap="round" stroke-opacity="1.0" stroke="rgb(0, 0, 0)" stroke-linejoin="round" d=" M 777.481, 480.948 780.465, 480.948 " />
            <path fill="none" stroke-width="1.5" stroke-linecap="round" stroke-opacity="1.0" stroke="rgb(0, 0, 0)" stroke-linejoin="round" d=" M 758.518, 480.948 768.518, 480.948 777.481, 480.948 " />
            <path fill="none" stroke-width="1.5" stroke-linecap="round" stroke-opacity="1.0" stroke="rgb(0, 0, 0)" stroke-linejoin="round" d=" M 789.227, 461.985 779.227, 461.985 769.227, 461.985 768.674, 461.985 " />
            <path fill="none" stroke-width="1.5" stroke-linecap="round" stroke-opacity="1.0" stroke="rgb(0, 0, 0)" stroke-linejoin="round" d=" M 777.481, 480.948 767.481, 480.948 758.518, 480.948 " />
        </g>
    </g>
    <g id="ViewLayer_TechnicalLines.003" inkscape:groupmode="lineset" inkscape:label="ViewLayer_TechnicalLines.003">
        <g inkscape:groupmode="layer" id="strokes" inkscape:label="strokes">
            <path fill="none" stroke-width="1.5" stroke-linecap="round" stroke-opacity="1.0" stroke="rgb(0, 0, 0)" stroke-linejoin="round" d=" M 265.481, 642.133 265.481, 632.133 265.481, 622.133 265.481, 612.133 265.481, 602.133 265.481, 592.133 265.481, 582.133 265.481, 572.133 265.481, 562.133 265.481, 552.133 265.481, 542.133 265.481, 532.133 265.481, 522.133 265.481, 512.133 265.481, 502.133 265.481, 492.133 265.481, 480.948 265.481, 480.948 265.481, 480.948 265.481, 480.948 265.481, 480.948 " />
            <path fill="none" stroke-width="1.5" stroke-linecap="round" stroke-opacity="1.0" stroke="rgb(0, 0, 0)" stroke-linejoin="round" d=" M 246.519, 642.133 246.701, 642.133 247.240, 642.133 248.116, 642.133 249.296, 642.133 250.732, 642.133 252.372, 642.133 254.150, 642.133 256.000, 642.133 257.850, 642.133 259.628, 642.133 261.268, 642.133 262.704, 642.133 263.884, 642.133 264.760, 642.133 265.299, 642.133 265.481, 642.133 " />
            <path fill="none" stroke-width="1.5" stroke-linecap="round" stroke-opacity="1.0" stroke="rgb(0, 0, 0)" stroke-linejoin="round" d=" M 262.704, 471.467 261.268, 471.467 259.628, 471.467 257.850, 471.467 256.000, 471.467 254.150, 471.467 252.372, 471.467 250.732, 471.467 249.296, 471.467 248.116, 471.467 247.240, 471.467 246.701, 471.467 246.519, 471.467 246.519, 480.948 246.519, 480.948 246.519, 480.948 246.519, 480.949 246.519, 480.950 246.519, 490.950 246.519, 500.950 246.519, 510.950 246.519, 520.950 246.519, 530.950 246.519, 540.950 246.519, 550.950 246.519, 560.950 246.519, 570.950 246.519, 580.950 246.519, 590.950 246.519, 600.950 246.519, 610.950 246.519, 620.950 246.519, 630.950 246.519, 642.133 " />
            <path fill="none" stroke-width="1.5" stroke-linecap="round" stroke-opacity="1.0" stroke="rgb(0, 0, 0)" stroke-linejoin="round" d=" M 398.222, 642.133 398.222, 632.133 398.222, 622.133 398.222, 612.133 398.222, 602.133 398.222, 592.133 398.222, 582.133 398.222, 572.133 398.222, 562.133 398.222, 552.133 398.222, 542.133 398.222, 532.133 398.222, 522.133 398.222, 512.133 398.222, 502.133 398.222, 492.133 398.222, 480.948 398.222, 480.948 398.222, 480.947 398.222, 480.946 398.222, 480.945 398.222, 471.467 " />
            <path fill="none" stroke-width="1.5" stroke-linecap="round" stroke-opacity="1.0" stroke="rgb(0, 0, 0)" stroke-linejoin="round" d=" M 398.222, 471.467 398.222, 471.467 398.040, 471.467 397.500, 471.467 396.624, 471.467 395.445, 471.467 394.008, 471.467 392.369, 471.467 390.590, 471.467 388.741, 471.467 386.891, 471.467 385.112, 471.467 383.473, 471.467 382.036, 471.467 " />
            <path fill="none" stroke-width="1.5" stroke-linecap="round" stroke-opacity="1.0" stroke="rgb(0, 0, 0)" stroke-linejoin="round" d=" M 379.259, 642.133 379.441, 642.133 379.981, 642.133 380.857, 642.133 382.036, 642.133 383.473, 642.133 385.112, 642.133 386.891, 642.133 388.741, 642.133 390.590, 642.133 392.369, 642.133 394.008, 642.133 395.445, 642.133 396.624, 642.133 397.500, 642.133 398.040, 642.133 398.222, 642.133 " />
            <path fill="none" stroke-width="1.5" stroke-linecap="round" stroke-opacity="1.0" stroke="rgb(0, 0, 0)" stroke-linejoin="round" d=" M 246.519, 642.133 246.519, 642.133 246.701, 642.133 247.240, 642.133 248.116, 642.133 249.296, 642.133 250.732, 642.133 252.372, 642.133 254.150, 642.133 256.000, 642.133 257.850, 642.133 259.628, 642.133 261.268, 642.133 262.704, 642.133 263.884, 642.133 264.760, 642.133 265.299, 642.133 265.481, 642.133 265.481, 642.133 " />
            <path fill="none" stroke-width="1.5" stroke-linecap="round" stroke-opacity="1.0" stroke="rgb(0, 0, 0)" stroke-linejoin="round" d=" M 379.259, 642.133 379.259, 642.133 379.441, 642.133 379.981, 642.133 380.857, 642.133 382.036, 642.133 383.473, 642.133 385.112, 642.133 386.891, 642.133 388.741, 642.133 390.590, 642.133 392.369, 642.133 394.008, 642.133 395.445, 642.133 396.624, 642.133 397.500, 642.133 398.040, 642.133 398.222, 642.133 398.222, 642.133 " />
            <path fill="none" stroke-width="1.5" stroke-linecap="round" stroke-opacity="1.0" stroke="rgb(0, 0, 0)" stroke-linejoin="round" d=" M 379.259, 480.948 375.047, 480.948 365.047, 480.948 358.654, 480.948 348.654, 480.948 340.868, 480.948 330.868, 480.948 322.370, 480.948 312.370, 480.948 303.873, 480.948 293.873, 480.948 286.086, 480.948 276.086, 480.948 269.694, 480.948 265.481, 480.948 " />
            <path fill="none" stroke-width="1.5" stroke-linecap="round" stroke-opacity="1.0" stroke="rgb(0, 0, 0)" stroke-linejoin="round" d=" M 415.363, 480.948 409.968, 480.948 401.206, 480.948 398.222, 480.948 " />
            <path fill="none" stroke-width="1.5" stroke-linecap="round" stroke-opacity="1.0" stroke="rgb(0, 0, 0)" stroke-linejoin="round" d=" M 415.363, 480.948 417.185, 480.948 417.185, 470.948 417.185, 461.985 415.363, 461.985 409.968, 461.985 399.968, 461.985 389.968, 461.985 389.415, 461.985 379.415, 461.985 375.047, 461.985 365.047, 461.985 358.654, 461.985 348.654, 461.985 340.868, 461.985 330.868, 461.985 322.370, 461.985 312.370, 461.985 303.873, 461.985 293.873, 461.985 286.086, 461.985 276.086, 461.985 269.694, 461.985 259.694, 461.985 255.326, 461.985 245.326, 461.985 235.326, 461.985 234.773, 461.985 " />
            <path fill="none" stroke-width="1.5" stroke-linecap="round" stroke-opacity="1.0" stroke="rgb(0, 0, 0)" stroke-linejoin="round" d=" M 401.206, 480.948 409.968, 480.948 415.363, 480.948 " />
            <path fill="none" stroke-width="1.5" stroke-linecap="round" stroke-opacity="1.0" stroke="rgb(0, 0, 0)" stroke-linejoin="round" d=" M 409.968, 461.985 401.206, 461.985 391.206, 461.985 389.415, 461.985 " />
            <path fill="none" stroke-width="1.5" stroke-linecap="round" stroke-opacity="1.0" stroke="rgb(0, 0, 0)" stroke-linejoin="round" d=" M 269.694, 480.948 279.694, 480.948 286.086, 480.948 296.086, 480.948 303.873, 480.948 313.873, 480.948 322.370, 480.948 332.370, 480.948 340.868, 480.948 350.868, 480.948 358.654, 480.948 368.654, 480.948 375.047, 480.948 379.259, 480.948 " />
            <path fill="none" stroke-width="1.5" stroke-linecap="round" stroke-opacity="1.0" stroke="rgb(0, 0, 0)" stroke-linejoin="round" d=" M 255.326, 461.985 245.326, 461.985 243.535, 461.985 234.773, 461.985 229.377, 461.985 227.556, 461.985 227.556, 471.985 227.556, 480.948 229.377, 480.948 " />
            <path fill="none" stroke-width="1.5" stroke-linecap="round" stroke-opacity="1.0" stroke="rgb(0, 0, 0)" stroke-linejoin="round" d=" M 229.377, 480.948 234.773, 480.948 243.535, 480.948 246.519, 480.948 " />
            <path fill="none" stroke-width="1.5" stroke-linecap="round" stroke-opacity="1.0" stroke="rgb(0, 0, 0)" stroke-linejoin="round" d=" M 229.377, 480.948 234.773, 480.948 243.535, 480.948 246.519, 480.948 " />
            <path fill="none" stroke-width="1.5" stroke-linecap="round" stroke-opacity="1.0" stroke="rgb(0, 0, 0)" stroke-linejoin="round" d=" M 375.047, 480.948 379.259, 480.948 " />
            <path fill="none" stroke-width="1.5" stroke-linecap="round" stroke-opacity="1.0" stroke="rgb(0, 0, 0)" stroke-linejoin="round" d=" M 317.630, 381.867 317.630, 390.400 327.111, 390.400 327.111, 381.867 317.630, 381.867 " />
            <path fill="none" stroke-width="1.5" stroke-linecap="round" stroke-opacity="1.0" stroke="rgb(0, 0, 0)" stroke-linejoin="round" d=" M 758.518, 480.948 758.518, 480.948 758.518, 480.948 758.518, 480.949 758.518, 480.950 758.518, 490.950 758.518, 500.950 758.518, 510.950 758.518, 520.950 758.518, 530.950 758.518, 540.950 758.518, 550.950 758.518, 560.950 758.518, 570.950 758.518, 580.950 758.518, 590.950 758.518, 600.950 758.518, 610.950 758.518, 620.950 758.518, 630.950 758.518, 642.133 758.701, 642.133 759.240, 642.133 760.116, 642.133 761.296, 642.133 762.732, 642.133 764.372, 642.133 766.150, 642.133 768.000, 642.133 769.850, 642.133 771.628, 642.133 773.268, 642.133 774.704, 642.133 775.884, 642.133 776.760, 642.133 777.299, 642.133 777.481, 642.133 777.481, 632.133 777.481, 622.133 777.481, 612.133 777.481, 602.133 777.481, 592.133 777.481, 582.133 777.481, 572.133 777.481, 562.133 777.481, 552.133 777.481, 542.133 777.481, 532.133 777.481, 522.133 777.481, 512.133 777.481, 502.133 777.481, 492.133 777.481, 480.948 777.481, 480.948 777.481, 480.948 777.481, 480.948 777.481, 480.948 " />
            <path fill="none" stroke-width="1.5" stroke-linecap="round" stroke-opacity="1.0" stroke="rgb(0, 0, 0)" stroke-linejoin="round" d=" M 658.963, 642.133 659.145, 642.133 659.685, 642.133 660.561, 642.133 661.740, 642.133 663.177, 642.133 664.816, 642.133 666.595, 642.133 668.444, 642.133 670.294, 642.133 672.073, 642.133 673.712, 642.133 675.149, 642.133 676.328, 642.133 677.204, 642.133 677.744, 642.133 677.926, 642.133 677.926, 642.133 " />
            <path fill="none" stroke-width="1.5" stroke-linecap="round" stroke-opacity="1.0" stroke="rgb(0, 0, 0)" stroke-linejoin="round" d=" M 677.926, 642.133 677.926, 632.133 677.926, 622.133 677.926, 612.133 677.926, 602.133 677.926, 592.133 677.926, 582.133 677.926, 572.133 677.926, 562.133 677.926, 552.133 677.926, 542.133 677.926, 532.133 677.926, 522.133 677.926, 512.133 677.926, 502.133 677.926, 492.133 677.926, 480.948 " />
            <path fill="none" stroke-width="1.5" stroke-linecap="round" stroke-opacity="1.0" stroke="rgb(0, 0, 0)" stroke-linejoin="round" d=" M 658.963, 480.948 658.963, 490.948 658.963, 500.948 658.963, 510.948 658.963, 520.948 658.963, 530.948 658.963, 540.948 658.963, 550.948 658.963, 560.948 658.963, 570.948 658.963, 580.948 658.963, 590.948 658.963, 600.948 658.963, 610.948 658.963, 620.948 658.963, 630.948 658.963, 642.133 659.145, 642.133 659.685, 642.133 660.561, 642.133 661.740, 642.133 663.177, 642.133 664.816, 642.133 666.595, 642.133 668.444, 642.133 670.294, 642.133 672.073, 642.133 673.712, 642.133 675.149, 642.133 676.328, 642.133 677.204, 642.133 677.744, 642.133 677.926, 642.133 " />
            <path fill="none" stroke-width="1.5" stroke-linecap="round" stroke-opacity="1.0" stroke="rgb(0, 0, 0)" stroke-linejoin="round" d=" M 758.518, 480.948 754.306, 480.948 744.306, 480.948 737.914, 480.948 727.914, 480.948 720.127, 480.948 710.127, 480.948 701.630, 480.948 691.630, 480.948 683.132, 480.948 677.926, 480.948 " />
            <path fill="none" stroke-width="1.5" stroke-linecap="round" stroke-opacity="1.0" stroke="rgb(0, 0, 0)" stroke-linejoin="round" d=" M 794.623, 480.948 789.227, 480.948 780.465, 480.948 777.481, 480.948 " />
            <path fill="none" stroke-width="1.5" stroke-linecap="round" stroke-opacity="1.0" stroke="rgb(0, 0, 0)" stroke-linejoin="round" d=" M 780.465, 480.948 789.227, 480.948 794.623, 480.948 796.444, 480.948 796.444, 470.948 796.444, 461.985 794.623, 461.985 789.227, 461.985 " />
            <path fill="none" stroke-width="1.5" stroke-linecap="round" stroke-opacity="1.0" stroke="rgb(0, 0, 0)" stroke-linejoin="round" d=" M 789.227, 461.985 780.465, 461.985 770.465, 461.985 768.674, 461.985 758.674, 461.985 754.306, 461.985 744.306, 461.985 737.914, 461.985 727.914, 461.985 720.127, 461.985 710.127, 461.985 701.630, 461.985 691.630, 461.985 683.132, 461.985 673.132, 461.985 665.346, 461.985 655.346, 461.985 648.953, 461.985 638.953, 461.985 634.585, 461.985 624.585, 461.985 614.585, 461.985 614.032, 461.985 608.637, 461.985 606.815, 461.985 606.815, 471.985 606.815, 480.948 608.637, 480.948 " />
            <path fill="none" stroke-width="1.5" stroke-linecap="round" stroke-opacity="1.0" stroke="rgb(0, 0, 0)" stroke-linejoin="round" d=" M 677.926, 480.948 683.132, 480.948 693.132, 480.948 701.630, 480.948 711.630, 480.948 720.127, 480.948 730.127, 480.948 737.914, 480.948 747.914, 480.948 754.306, 480.948 758.518, 480.948 768.518, 480.948 768.674, 480.948 777.481, 480.948 777.803, 480.948 780.465, 480.948 " />
            <path fill="none" stroke-width="1.5" stroke-linecap="round" stroke-opacity="1.0" stroke="rgb(0, 0, 0)" stroke-linejoin="round" d=" M 658.963, 480.948 665.346, 480.948 675.346, 480.948 677.926, 480.948 " />
            <path fill="none" stroke-width="1.5" stroke-linecap="round" stroke-opacity="1.0" stroke="rgb(0, 0, 0)" stroke-linejoin="round" d=" M 648.953, 480.948 658.963, 480.948 " />
            <path fill="none" stroke-width="1.5" stroke-linecap="round" stroke-opacity="1.0" stroke="rgb(0, 0, 0)" stroke-linejoin="round" d=" M 608.637, 480.948 614.032, 480.948 622.794, 480.948 628.646, 480.948 634.585, 480.948 644.585, 480.948 648.953, 480.948 " />
            <path fill="none" stroke-width="1.5" stroke-linecap="round" stroke-opacity="1.0" stroke="rgb(0, 0, 0)" stroke-linejoin="round" d=" M 634.585, 461.985 624.585, 461.985 622.794, 461.985 614.032, 461.985 " />
            <path fill="none" stroke-width="1.5" stroke-linecap="round" stroke-opacity="1.0" stroke="rgb(0, 0, 0)" stroke-linejoin="round" d=" M 608.637, 480.948 614.032, 480.948 622.794, 480.948 632.794, 480.948 642.794, 480.948 648.953, 480.948 " />
            <path fill="none" stroke-width="1.5" stroke-linecap="round" stroke-opacity="1.0" stroke="rgb(0, 0, 0)" stroke-linejoin="round" d=" M 658.963, 480.948 648.953, 480.948 638.953, 480.948 634.585, 480.948 624.585, 480.948 622.794, 480.948 " />
            <path fill="none" stroke-width="1.5" stroke-linecap="round" stroke-opacity="1.0" stroke="rgb(0, 0, 0)" stroke-linejoin="round" d=" M 754.306, 480.948 758.518, 480.948 " />
            <path fill="none" stroke-width="1.5" stroke-linecap="round" stroke-opacity="1.0" stroke="rgb(0, 0, 0)" stroke-linejoin="round" d=" M 246.519, 480.948 243.535, 480.948 " />
            <path fill="none" stroke-width="1.5" stroke-linecap="round" stroke-opacity="1.0" stroke="rgb(0, 0, 0)" stroke-linejoin="round" d=" M 265.481, 480.948 269.694, 480.948 " />
            <path fill="none" stroke-width="1.5" stroke-linecap="round" stroke-opacity="1.0" stroke="rgb(0, 0, 0)" stroke-linejoin="round" d=" M 265.481, 480.948 269.694, 480.948 " />
            <path fill="none" stroke-width="1.5" stroke-linecap="round" stroke-opacity="1.0" stroke="rgb(0, 0, 0)" stroke-linejoin="round" d=" M 379.259, 480.948 379.259, 480.948 379.259, 480.948 379.259, 480.949 379.259, 480.950 379.259, 490.950 379.259, 500.950 379.259, 510.950 379.259, 520.950 379.259, 530.950 379.259, 540.950 379.259, 550.950 379.259, 560.950 379.259, 570.950 379.259, 580.950 379.259, 590.950 379.259, 600.950 379.259, 610.950 379.259, 620.950 379.259, 630.950 379.259, 642.133 " />
            <path fill="none" stroke-width="1.5" stroke-linecap="round" stroke-opacity="1.0" stroke="rgb(0, 0, 0)" stroke-linejoin="round" d=" M 398.222, 480.948 401.206, 480.948 " />
            <path fill="none" stroke-width="1.5" stroke-linecap="round" stroke-opacity="1.0" stroke="rgb(0, 0, 0)" stroke-linejoin="round" d=" M 398.222, 480.948 398.544, 480.948 401.206, 480.948 " />
            <path fill="none" stroke-width="1.5" stroke-linecap="round" stroke-opacity="1.0" stroke="rgb(0, 0, 0)" stroke-linejoin="round" d=" M 658.963, 480.948 658.963, 480.948 " />
            <path fill="none" stroke-width="1.5" stroke-linecap="round" stroke-opacity="1.0" stroke="rgb(0, 0, 0)" stroke-linejoin="round" d=" M 677.926, 480.948 677.926, 480.948 " />
            <path fill="none" stroke-width="1.5" stroke-linecap="round" stroke-opacity="1.0" stroke="rgb(0, 0, 0)" stroke-linejoin="round" d=" M 777.481, 480.948 780.465, 480.948 " />
            <path fill="none" stroke-width="1.5" stroke-linecap="round" stroke-opacity="1.0" stroke="rgb(0, 0, 0)" stroke-linejoin="round" d=" M 758.518, 480.948 768.518, 480.948 777.481, 480.948 " />
            <path fill="none" stroke-width="1.5" stroke-linecap="round" stroke-opacity="1.0" stroke="rgb(0, 0, 0)" stroke-linejoin="round" d=" M 789.227, 461.985 779.227, 461.985 769.227, 461.985 768.674, 461.985 " />
            <path fill="none" stroke-width="1.5" stroke-linecap="round" stroke-opacity="1.0" stroke="rgb(0, 0, 0)" stroke-linejoin="round" d=" M 777.481, 480.948 767.481, 480.948 758.518, 480.948 " />
        </g>
    </g>
    <g id="ViewLayer_TechnicalLines.004" xmlns:inkscape="http://www.inkscape.org/namespaces/inkscape" inkscape:groupmode="lineset" inkscape:label="ViewLayer_TechnicalLines.004">
        <g xmlns:inkscape="http://www.inkscape.org/namespaces/inkscape" inkscape:groupmode="layer" id="strokes" inkscape:label="strokes">
            <path fill="none" stroke-width="1.5" stroke-linecap="round" stroke-opacity="1.0" stroke="rgb(0, 0, 0)" stroke-linejoin="round" d=" M 265.481, 642.133 265.481, 632.133 265.481, 622.133 265.481, 612.133 265.481, 602.133 265.481, 592.133 265.481, 582.133 265.481, 572.133 265.481, 562.133 265.481, 552.133 265.481, 542.133 265.481, 532.133 265.481, 522.133 265.481, 512.133 265.481, 502.133 265.481, 492.133 265.481, 480.948 265.481, 480.948 265.481, 480.948 265.481, 480.948 265.481, 480.948 " />
            <path fill="none" stroke-width="1.5" stroke-linecap="round" stroke-opacity="1.0" stroke="rgb(0, 0, 0)" stroke-linejoin="round" d=" M 246.519, 642.133 246.701, 642.133 247.240, 642.133 248.116, 642.133 249.296, 642.133 250.732, 642.133 252.372, 642.133 254.150, 642.133 256.000, 642.133 257.850, 642.133 259.628, 642.133 261.268, 642.133 262.704, 642.133 263.884, 642.133 264.760, 642.133 265.299, 642.133 265.481, 642.133 " />
            <path fill="none" stroke-width="1.5" stroke-linecap="round" stroke-opacity="1.0" stroke="rgb(0, 0, 0)" stroke-linejoin="round" d=" M 262.704, 471.467 261.268, 471.467 259.628, 471.467 257.850, 471.467 256.000, 471.467 254.150, 471.467 252.372, 471.467 250.732, 471.467 249.296, 471.467 248.116, 471.467 247.240, 471.467 246.701, 471.467 246.519, 471.467 246.519, 480.948 246.519, 480.948 246.519, 480.948 246.519, 480.949 246.519, 480.950 246.519, 490.950 246.519, 500.950 246.519, 510.950 246.519, 520.950 246.519, 530.950 246.519, 540.950 246.519, 550.950 246.519, 560.950 246.519, 570.950 246.519, 580.950 246.519, 590.950 246.519, 600.950 246.519, 610.950 246.519, 620.950 246.519, 630.950 246.519, 642.133 " />
            <path fill="none" stroke-width="1.5" stroke-linecap="round" stroke-opacity="1.0" stroke="rgb(0, 0, 0)" stroke-linejoin="round" d=" M 398.222, 642.133 398.222, 632.133 398.222, 622.133 398.222, 612.133 398.222, 602.133 398.222, 592.133 398.222, 582.133 398.222, 572.133 398.222, 562.133 398.222, 552.133 398.222, 542.133 398.222, 532.133 398.222, 522.133 398.222, 512.133 398.222, 502.133 398.222, 492.133 398.222, 480.948 398.222, 480.948 398.222, 480.947 398.222, 480.946 398.222, 480.945 398.222, 471.467 " />
            <path fill="none" stroke-width="1.5" stroke-linecap="round" stroke-opacity="1.0" stroke="rgb(0, 0, 0)" stroke-linejoin="round" d=" M 398.222, 471.467 398.222, 471.467 398.040, 471.467 397.500, 471.467 396.624, 471.467 395.445, 471.467 394.008, 471.467 392.369, 471.467 390.590, 471.467 388.741, 471.467 386.891, 471.467 385.112, 471.467 383.473, 471.467 382.036, 471.467 " />
            <path fill="none" stroke-width="1.5" stroke-linecap="round" stroke-opacity="1.0" stroke="rgb(0, 0, 0)" stroke-linejoin="round" d=" M 379.259, 642.133 379.441, 642.133 379.981, 642.133 380.857, 642.133 382.036, 642.133 383.473, 642.133 385.112, 642.133 386.891, 642.133 388.741, 642.133 390.590, 642.133 392.369, 642.133 394.008, 642.133 395.445, 642.133 396.624, 642.133 397.500, 642.133 398.040, 642.133 398.222, 642.133 " />
            <path fill="none" stroke-width="1.5" stroke-linecap="round" stroke-opacity="1.0" stroke="rgb(0, 0, 0)" stroke-linejoin="round" d=" M 246.519, 642.133 246.519, 642.133 246.701, 642.133 247.240, 642.133 248.116, 642.133 249.296, 642.133 250.732, 642.133 252.372, 642.133 254.150, 642.133 256.000, 642.133 257.850, 642.133 259.628, 642.133 261.268, 642.133 262.704, 642.133 263.884, 642.133 264.760, 642.133 265.299, 642.133 265.481, 642.133 265.481, 642.133 " />
            <path fill="none" stroke-width="1.5" stroke-linecap="round" stroke-opacity="1.0" stroke="rgb(0, 0, 0)" stroke-linejoin="round" d=" M 379.259, 642.133 379.259, 642.133 379.441, 642.133 379.981, 642.133 380.857, 642.133 382.036, 642.133 383.473, 642.133 385.112, 642.133 386.891, 642.133 388.741, 642.133 390.590, 642.133 392.369, 642.133 394.008, 642.133 395.445, 642.133 396.624, 642.133 397.500, 642.133 398.040, 642.133 398.222, 642.133 398.222, 642.133 " />
            <path fill="none" stroke-width="1.5" stroke-linecap="round" stroke-opacity="1.0" stroke="rgb(0, 0, 0)" stroke-linejoin="round" d=" M 379.259, 480.948 375.047, 480.948 365.047, 480.948 358.654, 480.948 348.654, 480.948 340.868, 480.948 330.868, 480.948 322.370, 480.948 312.370, 480.948 303.873, 480.948 293.873, 480.948 286.086, 480.948 276.086, 480.948 269.694, 480.948 265.481, 480.948 " />
            <path fill="none" stroke-width="1.5" stroke-linecap="round" stroke-opacity="1.0" stroke="rgb(0, 0, 0)" stroke-linejoin="round" d=" M 415.363, 480.948 409.968, 480.948 401.206, 480.948 398.222, 480.948 " />
            <path fill="none" stroke-width="1.5" stroke-linecap="round" stroke-opacity="1.0" stroke="rgb(0, 0, 0)" stroke-linejoin="round" d=" M 415.363, 480.948 417.185, 480.948 417.185, 470.948 417.185, 461.985 415.363, 461.985 409.968, 461.985 399.968, 461.985 389.968, 461.985 389.415, 461.985 379.415, 461.985 375.047, 461.985 365.047, 461.985 358.654, 461.985 348.654, 461.985 340.868, 461.985 330.868, 461.985 322.370, 461.985 312.370, 461.985 303.873, 461.985 293.873, 461.985 286.086, 461.985 276.086, 461.985 269.694, 461.985 259.694, 461.985 255.326, 461.985 245.326, 461.985 235.326, 461.985 234.773, 461.985 " />
            <path fill="none" stroke-width="1.5" stroke-linecap="round" stroke-opacity="1.0" stroke="rgb(0, 0, 0)" stroke-linejoin="round" d=" M 401.206, 480.948 409.968, 480.948 415.363, 480.948 " />
            <path fill="none" stroke-width="1.5" stroke-linecap="round" stroke-opacity="1.0" stroke="rgb(0, 0, 0)" stroke-linejoin="round" d=" M 409.968, 461.985 401.206, 461.985 391.206, 461.985 389.415, 461.985 " />
            <path fill="none" stroke-width="1.5" stroke-linecap="round" stroke-opacity="1.0" stroke="rgb(0, 0, 0)" stroke-linejoin="round" d=" M 269.694, 480.948 279.694, 480.948 286.086, 480.948 296.086, 480.948 303.873, 480.948 313.873, 480.948 322.370, 480.948 332.370, 480.948 340.868, 480.948 350.868, 480.948 358.654, 480.948 368.654, 480.948 375.047, 480.948 379.259, 480.948 " />
            <path fill="none" stroke-width="1.5" stroke-linecap="round" stroke-opacity="1.0" stroke="rgb(0, 0, 0)" stroke-linejoin="round" d=" M 255.326, 461.985 245.326, 461.985 243.535, 461.985 234.773, 461.985 229.377, 461.985 227.556, 461.985 227.556, 471.985 227.556, 480.948 229.377, 480.948 " />
            <path fill="none" stroke-width="1.5" stroke-linecap="round" stroke-opacity="1.0" stroke="rgb(0, 0, 0)" stroke-linejoin="round" d=" M 229.377, 480.948 234.773, 480.948 243.535, 480.948 246.519, 480.948 " />
            <path fill="none" stroke-width="1.5" stroke-linecap="round" stroke-opacity="1.0" stroke="rgb(0, 0, 0)" stroke-linejoin="round" d=" M 229.377, 480.948 234.773, 480.948 243.535, 480.948 246.519, 480.948 " />
            <path fill="none" stroke-width="1.5" stroke-linecap="round" stroke-opacity="1.0" stroke="rgb(0, 0, 0)" stroke-linejoin="round" d=" M 375.047, 480.948 379.259, 480.948 " />
            <path fill="none" stroke-width="1.5" stroke-linecap="round" stroke-opacity="1.0" stroke="rgb(0, 0, 0)" stroke-linejoin="round" d=" M 317.630, 381.867 317.630, 390.400 327.111, 390.400 327.111, 381.867 317.630, 381.867 " />
            <path fill="none" stroke-width="1.5" stroke-linecap="round" stroke-opacity="1.0" stroke="rgb(0, 0, 0)" stroke-linejoin="round" d=" M 758.518, 480.948 758.518, 480.948 758.518, 480.948 758.518, 480.949 758.518, 480.950 758.518, 490.950 758.518, 500.950 758.518, 510.950 758.518, 520.950 758.518, 530.950 758.518, 540.950 758.518, 550.950 758.518, 560.950 758.518, 570.950 758.518, 580.950 758.518, 590.950 758.518, 600.950 758.518, 610.950 758.518, 620.950 758.518, 630.950 758.518, 642.133 758.701, 642.133 759.240, 642.133 760.116, 642.133 761.296, 642.133 762.732, 642.133 764.372, 642.133 766.150, 642.133 768.000, 642.133 769.850, 642.133 771.628, 642.133 773.268, 642.133 774.704, 642.133 775.884, 642.133 776.760, 642.133 777.299, 642.133 777.481, 642.133 777.481, 632.133 777.481, 622.133 777.481, 612.133 777.481, 602.133 777.481, 592.133 777.481, 582.133 777.481, 572.133 777.481, 562.133 777.481, 552.133 777.481, 542.133 777.481, 532.133 777.481, 522.133 777.481, 512.133 777.481, 502.133 777.481, 492.133 777.481, 480.948 777.481, 480.948 777.481, 480.948 777.481, 480.948 777.481, 480.948 " />
            <path fill="none" stroke-width="1.5" stroke-linecap="round" stroke-opacity="1.0" stroke="rgb(0, 0, 0)" stroke-linejoin="round" d=" M 658.963, 642.133 659.145, 642.133 659.685, 642.133 660.561, 642.133 661.740, 642.133 663.177, 642.133 664.816, 642.133 666.595, 642.133 668.444, 642.133 670.294, 642.133 672.073, 642.133 673.712, 642.133 675.149, 642.133 676.328, 642.133 677.204, 642.133 677.744, 642.133 677.926, 642.133 677.926, 642.133 " />
            <path fill="none" stroke-width="1.5" stroke-linecap="round" stroke-opacity="1.0" stroke="rgb(0, 0, 0)" stroke-linejoin="round" d=" M 677.926, 642.133 677.926, 632.133 677.926, 622.133 677.926, 612.133 677.926, 602.133 677.926, 592.133 677.926, 582.133 677.926, 572.133 677.926, 562.133 677.926, 552.133 677.926, 542.133 677.926, 532.133 677.926, 522.133 677.926, 512.133 677.926, 502.133 677.926, 492.133 677.926, 480.948 " />
            <path fill="none" stroke-width="1.5" stroke-linecap="round" stroke-opacity="1.0" stroke="rgb(0, 0, 0)" stroke-linejoin="round" d=" M 658.963, 480.948 658.963, 490.948 658.963, 500.948 658.963, 510.948 658.963, 520.948 658.963, 530.948 658.963, 540.948 658.963, 550.948 658.963, 560.948 658.963, 570.948 658.963, 580.948 658.963, 590.948 658.963, 600.948 658.963, 610.948 658.963, 620.948 658.963, 630.948 658.963, 642.133 659.145, 642.133 659.685, 642.133 660.561, 642.133 661.740, 642.133 663.177, 642.133 664.816, 642.133 666.595, 642.133 668.444, 642.133 670.294, 642.133 672.073, 642.133 673.712, 642.133 675.149, 642.133 676.328, 642.133 677.204, 642.133 677.744, 642.133 677.926, 642.133 " />
            <path fill="none" stroke-width="1.5" stroke-linecap="round" stroke-opacity="1.0" stroke="rgb(0, 0, 0)" stroke-linejoin="round" d=" M 758.518, 480.948 754.306, 480.948 744.306, 480.948 737.914, 480.948 727.914, 480.948 720.127, 480.948 710.127, 480.948 701.630, 480.948 691.630, 480.948 683.132, 480.948 677.926, 480.948 " />
            <path fill="none" stroke-width="1.5" stroke-linecap="round" stroke-opacity="1.0" stroke="rgb(0, 0, 0)" stroke-linejoin="round" d=" M 794.623, 480.948 789.227, 480.948 780.465, 480.948 777.481, 480.948 " />
            <path fill="none" stroke-width="1.5" stroke-linecap="round" stroke-opacity="1.0" stroke="rgb(0, 0, 0)" stroke-linejoin="round" d=" M 780.465, 480.948 789.227, 480.948 794.623, 480.948 796.444, 480.948 796.444, 470.948 796.444, 461.985 794.623, 461.985 789.227, 461.985 " />
            <path fill="none" stroke-width="1.5" stroke-linecap="round" stroke-opacity="1.0" stroke="rgb(0, 0, 0)" stroke-linejoin="round" d=" M 789.227, 461.985 780.465, 461.985 770.465, 461.985 768.674, 461.985 758.674, 461.985 754.306, 461.985 744.306, 461.985 737.914, 461.985 727.914, 461.985 720.127, 461.985 710.127, 461.985 701.630, 461.985 691.630, 461.985 683.132, 461.985 673.132, 461.985 665.346, 461.985 655.346, 461.985 648.953, 461.985 638.953, 461.985 634.585, 461.985 624.585, 461.985 614.585, 461.985 614.032, 461.985 608.637, 461.985 606.815, 461.985 606.815, 471.985 606.815, 480.948 608.637, 480.948 " />
            <path fill="none" stroke-width="1.5" stroke-linecap="round" stroke-opacity="1.0" stroke="rgb(0, 0, 0)" stroke-linejoin="round" d=" M 677.926, 480.948 683.132, 480.948 693.132, 480.948 701.630, 480.948 711.630, 480.948 720.127, 480.948 730.127, 480.948 737.914, 480.948 747.914, 480.948 754.306, 480.948 758.518, 480.948 768.518, 480.948 768.674, 480.948 777.481, 480.948 777.803, 480.948 780.465, 480.948 " />
            <path fill="none" stroke-width="1.5" stroke-linecap="round" stroke-opacity="1.0" stroke="rgb(0, 0, 0)" stroke-linejoin="round" d=" M 658.963, 480.948 665.346, 480.948 675.346, 480.948 677.926, 480.948 " />
            <path fill="none" stroke-width="1.5" stroke-linecap="round" stroke-opacity="1.0" stroke="rgb(0, 0, 0)" stroke-linejoin="round" d=" M 648.953, 480.948 658.963, 480.948 " />
            <path fill="none" stroke-width="1.5" stroke-linecap="round" stroke-opacity="1.0" stroke="rgb(0, 0, 0)" stroke-linejoin="round" d=" M 608.637, 480.948 614.032, 480.948 622.794, 480.948 628.646, 480.948 634.585, 480.948 644.585, 480.948 648.953, 480.948 " />
            <path fill="none" stroke-width="1.5" stroke-linecap="round" stroke-opacity="1.0" stroke="rgb(0, 0, 0)" stroke-linejoin="round" d=" M 634.585, 461.985 624.585, 461.985 622.794, 461.985 614.032, 461.985 " />
            <path fill="none" stroke-width="1.5" stroke-linecap="round" stroke-opacity="1.0" stroke="rgb(0, 0, 0)" stroke-linejoin="round" d=" M 608.637, 480.948 614.032, 480.948 622.794, 480.948 632.794, 480.948 642.794, 480.948 648.953, 480.948 " />
            <path fill="none" stroke-width="1.5" stroke-linecap="round" stroke-opacity="1.0" stroke="rgb(0, 0, 0)" stroke-linejoin="round" d=" M 658.963, 480.948 648.953, 480.948 638.953, 480.948 634.585, 480.948 624.585, 480.948 622.794, 480.948 " />
            <path fill="none" stroke-width="1.5" stroke-linecap="round" stroke-opacity="1.0" stroke="rgb(0, 0, 0)" stroke-linejoin="round" d=" M 754.306, 480.948 758.518, 480.948 " />
            <path fill="none" stroke-width="1.5" stroke-linecap="round" stroke-opacity="1.0" stroke="rgb(0, 0, 0)" stroke-linejoin="round" d=" M 246.519, 480.948 243.535, 480.948 " />
            <path fill="none" stroke-width="1.5" stroke-linecap="round" stroke-opacity="1.0" stroke="rgb(0, 0, 0)" stroke-linejoin="round" d=" M 265.481, 480.948 269.694, 480.948 " />
            <path fill="none" stroke-width="1.5" stroke-linecap="round" stroke-opacity="1.0" stroke="rgb(0, 0, 0)" stroke-linejoin="round" d=" M 265.481, 480.948 269.694, 480.948 " />
            <path fill="none" stroke-width="1.5" stroke-linecap="round" stroke-opacity="1.0" stroke="rgb(0, 0, 0)" stroke-linejoin="round" d=" M 379.259, 480.948 379.259, 480.948 379.259, 480.948 379.259, 480.949 379.259, 480.950 379.259, 490.950 379.259, 500.950 379.259, 510.950 379.259, 520.950 379.259, 530.950 379.259, 540.950 379.259, 550.950 379.259, 560.950 379.259, 570.950 379.259, 580.950 379.259, 590.950 379.259, 600.950 379.259, 610.950 379.259, 620.950 379.259, 630.950 379.259, 642.133 " />
            <path fill="none" stroke-width="1.5" stroke-linecap="round" stroke-opacity="1.0" stroke="rgb(0, 0, 0)" stroke-linejoin="round" d=" M 398.222, 480.948 401.206, 480.948 " />
            <path fill="none" stroke-width="1.5" stroke-linecap="round" stroke-opacity="1.0" stroke="rgb(0, 0, 0)" stroke-linejoin="round" d=" M 398.222, 480.948 398.544, 480.948 401.206, 480.948 " />
            <path fill="none" stroke-width="1.5" stroke-linecap="round" stroke-opacity="1.0" stroke="rgb(0, 0, 0)" stroke-linejoin="round" d=" M 658.963, 480.948 658.963, 480.948 " />
            <path fill="none" stroke-width="1.5" stroke-linecap="round" stroke-opacity="1.0" stroke="rgb(0, 0, 0)" stroke-linejoin="round" d=" M 677.926, 480.948 677.926, 480.948 " />
            <path fill="none" stroke-width="1.5" stroke-linecap="round" stroke-opacity="1.0" stroke="rgb(0, 0, 0)" stroke-linejoin="round" d=" M 777.481, 480.948 780.465, 480.948 " />
            <path fill="none" stroke-width="1.5" stroke-linecap="round" stroke-opacity="1.0" stroke="rgb(0, 0, 0)" stroke-linejoin="round" d=" M 758.518, 480.948 768.518, 480.948 777.481, 480.948 " />
            <path fill="none" stroke-width="1.5" stroke-linecap="round" stroke-opacity="1.0" stroke="rgb(0, 0, 0)" stroke-linejoin="round" d=" M 789.227, 461.985 779.227, 461.985 769.227, 461.985 768.674, 461.985 " />
            <path fill="none" stroke-width="1.5" stroke-linecap="round" stroke-opacity="1.0" stroke="rgb(0, 0, 0)" stroke-linejoin="round" d=" M 777.481, 480.948 767.481, 480.948 758.518, 480.948 " />
        </g>
    </g>
</svg>
