<?xml version='1.0' encoding='ascii'?>
<svg xmlns="http://www.w3.org/2000/svg" xmlns:inkscape="http://www.inkscape.org/namespaces/inkscape" version="1.1" width="1024" height="1024">
    <g id="ViewLayer_LineSet" inkscape:groupmode="lineset" inkscape:label="ViewLayer_LineSet">
        <g inkscape:groupmode="layer" id="strokes" inkscape:label="strokes">
            <path fill="none" stroke-width="3.0" stroke-linecap="butt" stroke-opacity="1.0" stroke="rgb(0, 0, 0)" stroke-linejoin="round" d=" M 397.432, 621.663 394.359, 620.020 391.024, 619.008 387.556, 618.667 " />
            <path fill="none" stroke-width="3.0" stroke-linecap="butt" stroke-opacity="1.0" stroke="rgb(0, 0, 0)" stroke-linejoin="round" d=" M 405.333, 636.444 404.992, 632.976 403.980, 629.641 402.337, 626.568 " />
            <path fill="none" stroke-width="3.0" stroke-linecap="butt" stroke-opacity="1.0" stroke="rgb(0, 0, 0)" stroke-linejoin="round" d=" M 400.126, 649.015 402.337, 646.321 403.980, 643.248 404.992, 639.913 405.333, 636.445 " />
            <path fill="none" stroke-width="3.0" stroke-linecap="butt" stroke-opacity="1.0" stroke="rgb(0, 0, 0)" stroke-linejoin="round" d=" M 384.087, 653.881 387.556, 654.222 391.024, 653.881 394.359, 652.869 397.432, 651.226 400.126, 649.015 " />
            <path fill="none" stroke-width="3.0" stroke-linecap="butt" stroke-opacity="1.0" stroke="rgb(0, 0, 0)" stroke-linejoin="round" d=" M 380.752, 652.869 384.087, 653.881 " />
            <path fill="none" stroke-width="3.0" stroke-linecap="butt" stroke-opacity="1.0" stroke="rgb(0, 0, 0)" stroke-linejoin="round" d=" M 371.131, 643.248 372.774, 646.321 374.985, 649.015 377.679, 651.226 380.752, 652.869 " />
            <path fill="none" stroke-width="3.0" stroke-linecap="butt" stroke-opacity="1.0" stroke="rgb(0, 0, 0)" stroke-linejoin="round" d=" M 370.119, 639.913 371.131, 643.248 " />
            <path fill="none" stroke-width="3.0" stroke-linecap="butt" stroke-opacity="1.0" stroke="rgb(0, 0, 0)" stroke-linejoin="round" d=" M 374.985, 623.874 372.774, 626.568 371.131, 629.641 370.119, 632.976 369.778, 636.444 370.119, 639.913 " />
            <path fill="none" stroke-width="3.0" stroke-linecap="butt" stroke-opacity="1.0" stroke="rgb(0, 0, 0)" stroke-linejoin="round" d=" M 387.556, 618.667 384.087, 619.008 380.752, 620.020 377.679, 621.663 374.985, 623.874 " />
            <path fill="none" stroke-width="3.0" stroke-linecap="butt" stroke-opacity="1.0" stroke="rgb(0, 0, 0)" stroke-linejoin="round" d=" M 649.015, 623.874 646.321, 621.663 643.248, 620.020 639.913, 619.008 636.444, 618.667 " />
            <path fill="none" stroke-width="3.0" stroke-linecap="butt" stroke-opacity="1.0" stroke="rgb(0, 0, 0)" stroke-linejoin="round" d=" M 653.881, 639.913 654.222, 636.444 653.881, 632.976 652.869, 629.641 651.226, 626.568 649.015, 623.874 " />
            <path fill="none" stroke-width="3.0" stroke-linecap="butt" stroke-opacity="1.0" stroke="rgb(0, 0, 0)" stroke-linejoin="round" d=" M 652.869, 643.248 653.881, 639.913 " />
            <path fill="none" stroke-width="3.0" stroke-linecap="butt" stroke-opacity="1.0" stroke="rgb(0, 0, 0)" stroke-linejoin="round" d=" M 643.248, 652.869 646.321, 651.226 649.015, 649.015 651.226, 646.321 652.869, 643.248 " />
            <path fill="none" stroke-width="3.0" stroke-linecap="butt" stroke-opacity="1.0" stroke="rgb(0, 0, 0)" stroke-linejoin="round" d=" M 639.913, 653.881 643.248, 652.869 " />
            <path fill="none" stroke-width="3.0" stroke-linecap="butt" stroke-opacity="1.0" stroke="rgb(0, 0, 0)" stroke-linejoin="round" d=" M 623.874, 649.015 626.568, 651.226 629.641, 652.869 632.976, 653.881 636.444, 654.222 639.913, 653.881 " />
            <path fill="none" stroke-width="3.0" stroke-linecap="butt" stroke-opacity="1.0" stroke="rgb(0, 0, 0)" stroke-linejoin="round" d=" M 618.667, 636.445 619.008, 639.913 620.020, 643.248 621.663, 646.321 623.874, 649.015 " />
            <path fill="none" stroke-width="3.0" stroke-linecap="butt" stroke-opacity="1.0" stroke="rgb(0, 0, 0)" stroke-linejoin="round" d=" M 621.663, 626.568 620.020, 629.641 619.008, 632.976 618.667, 636.444 " />
            <path fill="none" stroke-width="3.0" stroke-linecap="butt" stroke-opacity="1.0" stroke="rgb(0, 0, 0)" stroke-linejoin="round" d=" M 636.444, 618.667 632.976, 619.008 629.641, 620.020 626.568, 621.663 " />
            <path fill="none" stroke-width="3.0" stroke-linecap="butt" stroke-opacity="1.0" stroke="rgb(0, 0, 0)" stroke-linejoin="round" d=" M 400.126, 374.985 397.432, 372.774 394.359, 371.131 391.024, 370.119 387.556, 369.778 384.087, 370.119 " />
            <path fill="none" stroke-width="3.0" stroke-linecap="butt" stroke-opacity="1.0" stroke="rgb(0, 0, 0)" stroke-linejoin="round" d=" M 405.333, 387.556 404.992, 384.087 403.980, 380.752 402.337, 377.679 400.126, 374.985 " />
            <path fill="none" stroke-width="3.0" stroke-linecap="butt" stroke-opacity="1.0" stroke="rgb(0, 0, 0)" stroke-linejoin="round" d=" M 402.337, 397.432 403.980, 394.359 404.992, 391.024 405.333, 387.556 " />
            <path fill="none" stroke-width="3.0" stroke-linecap="butt" stroke-opacity="1.0" stroke="rgb(0, 0, 0)" stroke-linejoin="round" d=" M 400.126, 400.126 402.337, 397.432 " />
            <path fill="none" stroke-width="3.0" stroke-linecap="butt" stroke-opacity="1.0" stroke="rgb(0, 0, 0)" stroke-linejoin="round" d=" M 397.432, 402.337 400.126, 400.126 " />
            <path fill="none" stroke-width="3.0" stroke-linecap="butt" stroke-opacity="1.0" stroke="rgb(0, 0, 0)" stroke-linejoin="round" d=" M 387.556, 405.333 391.024, 404.992 394.359, 403.980 397.432, 402.337 " />
            <path fill="none" stroke-width="3.0" stroke-linecap="butt" stroke-opacity="1.0" stroke="rgb(0, 0, 0)" stroke-linejoin="round" d=" M 374.985, 400.126 377.679, 402.337 380.752, 403.980 384.087, 404.992 387.556, 405.333 " />
            <path fill="none" stroke-width="3.0" stroke-linecap="butt" stroke-opacity="1.0" stroke="rgb(0, 0, 0)" stroke-linejoin="round" d=" M 370.119, 384.087 369.778, 387.556 370.119, 391.024 371.131, 394.359 372.774, 397.432 374.985, 400.126 " />
            <path fill="none" stroke-width="3.0" stroke-linecap="butt" stroke-opacity="1.0" stroke="rgb(0, 0, 0)" stroke-linejoin="round" d=" M 380.752, 371.131 377.679, 372.774 374.985, 374.985 372.774, 377.679 371.131, 380.752 " />
            <path fill="none" stroke-width="3.0" stroke-linecap="butt" stroke-opacity="1.0" stroke="rgb(0, 0, 0)" stroke-linejoin="round" d=" M 649.015, 374.985 646.321, 372.774 643.248, 371.131 639.913, 370.119 636.444, 369.778 632.976, 370.119 629.641, 371.131 626.568, 372.774 623.874, 374.985 621.663, 377.679 620.020, 380.752 619.008, 384.087 618.667, 387.556 619.008, 391.024 " />
            <path fill="none" stroke-width="3.0" stroke-linecap="butt" stroke-opacity="1.0" stroke="rgb(0, 0, 0)" stroke-linejoin="round" d=" M 632.976, 404.992 636.444, 405.333 639.913, 404.992 643.248, 403.980 646.321, 402.337 649.015, 400.126 651.226, 397.432 652.869, 394.359 653.881, 391.024 654.222, 387.556 653.881, 384.087 652.869, 380.752 651.226, 377.679 649.015, 374.985 " />
            <path fill="none" stroke-width="3.0" stroke-linecap="butt" stroke-opacity="1.0" stroke="rgb(0, 0, 0)" stroke-linejoin="round" d=" M 623.874, 400.126 626.568, 402.337 629.641, 403.980 632.976, 404.992 " />
            <path fill="none" stroke-width="3.0" stroke-linecap="butt" stroke-opacity="1.0" stroke="rgb(0, 0, 0)" stroke-linejoin="round" d=" M 619.008, 391.024 620.020, 394.359 621.663, 397.432 623.874, 400.126 " />
            <path fill="none" stroke-width="3.0" stroke-linecap="butt" stroke-opacity="1.0" stroke="rgb(0, 0, 0)" stroke-linejoin="round" d=" M 618.667, 654.222 618.667, 644.222 618.667, 636.445 " />
            <path fill="none" stroke-width="3.0" stroke-linecap="butt" stroke-opacity="1.0" stroke="rgb(0, 0, 0)" stroke-linejoin="round" d=" M 371.131, 380.752 370.119, 384.087 " />
            <path fill="none" stroke-width="3.0" stroke-linecap="butt" stroke-opacity="1.0" stroke="rgb(0, 0, 0)" stroke-linejoin="round" d=" M 384.087, 370.119 380.752, 371.131 " />
            <path fill="none" stroke-width="3.0" stroke-linecap="butt" stroke-opacity="1.0" stroke="rgb(0, 0, 0)" stroke-linejoin="round" d=" M 400.126, 623.874 397.432, 621.663 " />
            <path fill="none" stroke-width="3.0" stroke-linecap="butt" stroke-opacity="1.0" stroke="rgb(0, 0, 0)" stroke-linejoin="round" d=" M 402.337, 626.568 400.126, 623.874 " />
            <path fill="none" stroke-width="3.0" stroke-linecap="butt" stroke-opacity="1.0" stroke="rgb(0, 0, 0)" stroke-linejoin="round" d=" M 405.333, 636.445 405.333, 646.445 405.333, 654.222 " />
            <path fill="none" stroke-width="3.0" stroke-linecap="butt" stroke-opacity="1.0" stroke="rgb(0, 0, 0)" stroke-linejoin="round" d=" M 405.333, 636.444 405.333, 636.445 " />
            <path fill="none" stroke-width="3.0" stroke-linecap="butt" stroke-opacity="1.0" stroke="rgb(0, 0, 0)" stroke-linejoin="round" d=" M 405.333, 618.667 405.333, 628.667 405.333, 636.444 " />
            <path fill="none" stroke-width="3.0" stroke-linecap="butt" stroke-opacity="1.0" stroke="rgb(0, 0, 0)" stroke-linejoin="round" d=" M 405.333, 618.667 405.333, 618.667 " />
            <path fill="none" stroke-width="3.0" stroke-linecap="butt" stroke-opacity="1.0" stroke="rgb(0, 0, 0)" stroke-linejoin="round" d=" M 405.333, 405.333 405.333, 415.333 405.333, 425.333 405.333, 435.333 405.333, 445.333 405.333, 455.333 405.333, 465.333 405.333, 475.333 405.333, 485.333 405.333, 495.333 405.333, 505.333 405.333, 515.333 405.333, 525.333 405.333, 535.333 405.333, 545.333 405.333, 555.333 405.333, 565.333 405.333, 575.333 405.333, 585.333 405.333, 595.333 405.333, 605.333 405.333, 615.333 405.333, 618.667 " />
            <path fill="none" stroke-width="3.0" stroke-linecap="butt" stroke-opacity="1.0" stroke="rgb(0, 0, 0)" stroke-linejoin="round" d=" M 405.333, 654.222 415.333, 654.222 425.333, 654.222 435.333, 654.222 445.333, 654.222 455.333, 654.222 465.333, 654.222 475.333, 654.222 485.333, 654.222 495.333, 654.222 505.333, 654.222 515.333, 654.222 525.333, 654.222 535.333, 654.222 545.333, 654.222 555.333, 654.222 565.333, 654.222 575.333, 654.222 585.333, 654.222 595.333, 654.222 605.333, 654.222 615.333, 654.222 618.667, 654.222 " />
            <path fill="none" stroke-width="3.0" stroke-linecap="butt" stroke-opacity="1.0" stroke="rgb(0, 0, 0)" stroke-linejoin="round" d=" M 618.667, 618.667 608.667, 618.667 598.667, 618.667 588.667, 618.667 578.667, 618.667 568.667, 618.667 558.667, 618.667 548.667, 618.667 538.667, 618.667 528.667, 618.667 518.667, 618.667 508.667, 618.667 498.667, 618.667 488.667, 618.667 478.667, 618.667 468.667, 618.667 458.667, 618.667 448.667, 618.667 438.667, 618.667 428.667, 618.667 418.667, 618.667 408.667, 618.667 405.333, 618.667 " />
            <path fill="none" stroke-width="3.0" stroke-linecap="butt" stroke-opacity="1.0" stroke="rgb(0, 0, 0)" stroke-linejoin="round" d=" M 618.667, 618.667 618.667, 618.667 " />
            <path fill="none" stroke-width="3.0" stroke-linecap="butt" stroke-opacity="1.0" stroke="rgb(0, 0, 0)" stroke-linejoin="round" d=" M 618.667, 636.444 618.667, 626.444 618.667, 618.667 " />
            <path fill="none" stroke-width="3.0" stroke-linecap="butt" stroke-opacity="1.0" stroke="rgb(0, 0, 0)" stroke-linejoin="round" d=" M 618.667, 636.445 618.667, 636.444 " />
            <path fill="none" stroke-width="3.0" stroke-linecap="butt" stroke-opacity="1.0" stroke="rgb(0, 0, 0)" stroke-linejoin="round" d=" M 618.667, 405.333 608.667, 405.333 598.667, 405.333 588.667, 405.333 578.667, 405.333 568.667, 405.333 558.667, 405.333 548.667, 405.333 538.667, 405.333 528.667, 405.333 518.667, 405.333 508.667, 405.333 498.667, 405.333 488.667, 405.333 478.667, 405.333 468.667, 405.333 458.667, 405.333 448.667, 405.333 438.667, 405.333 428.667, 405.333 418.667, 405.333 408.667, 405.333 405.333, 405.333 " />
            <path fill="none" stroke-width="3.0" stroke-linecap="butt" stroke-opacity="1.0" stroke="rgb(0, 0, 0)" stroke-linejoin="round" d=" M 618.667, 618.667 618.667, 608.667 618.667, 598.667 618.667, 588.667 618.667, 578.667 618.667, 568.667 618.667, 558.667 618.667, 548.667 618.667, 538.667 618.667, 528.667 618.667, 518.667 618.667, 508.667 618.667, 498.667 618.667, 488.667 618.667, 478.667 618.667, 468.667 618.667, 458.667 618.667, 448.667 618.667, 438.667 618.667, 428.667 618.667, 418.667 618.667, 408.667 618.667, 405.333 " />
            <path fill="none" stroke-width="3.0" stroke-linecap="butt" stroke-opacity="1.0" stroke="rgb(0, 0, 0)" stroke-linejoin="round" d=" M 623.874, 623.874 621.663, 626.568 " />
            <path fill="none" stroke-width="3.0" stroke-linecap="butt" stroke-opacity="1.0" stroke="rgb(0, 0, 0)" stroke-linejoin="round" d=" M 626.568, 621.663 623.874, 623.874 " />
        </g>
    </g>
    <g id="ViewLayer_TechnicalLines" inkscape:groupmode="lineset" inkscape:label="ViewLayer_TechnicalLines">
        <g inkscape:groupmode="layer" id="strokes" inkscape:label="strokes">
            <path fill="none" stroke-width="3.0" stroke-linecap="butt" stroke-opacity="1.0" stroke="rgb(0, 0, 0)" stroke-linejoin="round" d=" M 397.432, 621.663 394.359, 620.020 391.024, 619.008 387.556, 618.667 " />
            <path fill="none" stroke-width="3.0" stroke-linecap="butt" stroke-opacity="1.0" stroke="rgb(0, 0, 0)" stroke-linejoin="round" d=" M 405.333, 636.444 404.992, 632.976 403.980, 629.641 402.337, 626.568 " />
            <path fill="none" stroke-width="3.0" stroke-linecap="butt" stroke-opacity="1.0" stroke="rgb(0, 0, 0)" stroke-linejoin="round" d=" M 400.126, 649.015 402.337, 646.321 403.980, 643.248 404.992, 639.913 405.333, 636.445 " />
            <path fill="none" stroke-width="3.0" stroke-linecap="butt" stroke-opacity="1.0" stroke="rgb(0, 0, 0)" stroke-linejoin="round" d=" M 384.087, 653.881 387.556, 654.222 391.024, 653.881 394.359, 652.869 397.432, 651.226 400.126, 649.015 " />
            <path fill="none" stroke-width="3.0" stroke-linecap="butt" stroke-opacity="1.0" stroke="rgb(0, 0, 0)" stroke-linejoin="round" d=" M 380.752, 652.869 384.087, 653.881 " />
            <path fill="none" stroke-width="3.0" stroke-linecap="butt" stroke-opacity="1.0" stroke="rgb(0, 0, 0)" stroke-linejoin="round" d=" M 371.131, 643.248 372.774, 646.321 374.985, 649.015 377.679, 651.226 380.752, 652.869 " />
            <path fill="none" stroke-width="3.0" stroke-linecap="butt" stroke-opacity="1.0" stroke="rgb(0, 0, 0)" stroke-linejoin="round" d=" M 370.119, 639.913 371.131, 643.248 " />
            <path fill="none" stroke-width="3.0" stroke-linecap="butt" stroke-opacity="1.0" stroke="rgb(0, 0, 0)" stroke-linejoin="round" d=" M 374.985, 623.874 372.774, 626.568 371.131, 629.641 370.119, 632.976 369.778, 636.444 370.119, 639.913 " />
            <path fill="none" stroke-width="3.0" stroke-linecap="butt" stroke-opacity="1.0" stroke="rgb(0, 0, 0)" stroke-linejoin="round" d=" M 387.556, 618.667 384.087, 619.008 380.752, 620.020 377.679, 621.663 374.985, 623.874 " />
            <path fill="none" stroke-width="3.0" stroke-linecap="butt" stroke-opacity="1.0" stroke="rgb(0, 0, 0)" stroke-linejoin="round" d=" M 649.015, 623.874 646.321, 621.663 643.248, 620.020 639.913, 619.008 636.444, 618.667 " />
            <path fill="none" stroke-width="3.0" stroke-linecap="butt" stroke-opacity="1.0" stroke="rgb(0, 0, 0)" stroke-linejoin="round" d=" M 653.881, 639.913 654.222, 636.444 653.881, 632.976 652.869, 629.641 651.226, 626.568 649.015, 623.874 " />
            <path fill="none" stroke-width="3.0" stroke-linecap="butt" stroke-opacity="1.0" stroke="rgb(0, 0, 0)" stroke-linejoin="round" d=" M 652.869, 643.248 653.881, 639.913 " />
            <path fill="none" stroke-width="3.0" stroke-linecap="butt" stroke-opacity="1.0" stroke="rgb(0, 0, 0)" stroke-linejoin="round" d=" M 643.248, 652.869 646.321, 651.226 649.015, 649.015 651.226, 646.321 652.869, 643.248 " />
            <path fill="none" stroke-width="3.0" stroke-linecap="butt" stroke-opacity="1.0" stroke="rgb(0, 0, 0)" stroke-linejoin="round" d=" M 639.913, 653.881 643.248, 652.869 " />
            <path fill="none" stroke-width="3.0" stroke-linecap="butt" stroke-opacity="1.0" stroke="rgb(0, 0, 0)" stroke-linejoin="round" d=" M 623.874, 649.015 626.568, 651.226 629.641, 652.869 632.976, 653.881 636.444, 654.222 639.913, 653.881 " />
            <path fill="none" stroke-width="3.0" stroke-linecap="butt" stroke-opacity="1.0" stroke="rgb(0, 0, 0)" stroke-linejoin="round" d=" M 618.667, 636.445 619.008, 639.913 620.020, 643.248 621.663, 646.321 623.874, 649.015 " />
            <path fill="none" stroke-width="3.0" stroke-linecap="butt" stroke-opacity="1.0" stroke="rgb(0, 0, 0)" stroke-linejoin="round" d=" M 621.663, 626.568 620.020, 629.641 619.008, 632.976 618.667, 636.444 " />
            <path fill="none" stroke-width="3.0" stroke-linecap="butt" stroke-opacity="1.0" stroke="rgb(0, 0, 0)" stroke-linejoin="round" d=" M 636.444, 618.667 632.976, 619.008 629.641, 620.020 626.568, 621.663 " />
            <path fill="none" stroke-width="3.0" stroke-linecap="butt" stroke-opacity="1.0" stroke="rgb(0, 0, 0)" stroke-linejoin="round" d=" M 400.126, 374.985 397.432, 372.774 394.359, 371.131 391.024, 370.119 387.556, 369.778 384.087, 370.119 " />
            <path fill="none" stroke-width="3.0" stroke-linecap="butt" stroke-opacity="1.0" stroke="rgb(0, 0, 0)" stroke-linejoin="round" d=" M 405.333, 387.556 404.992, 384.087 403.980, 380.752 402.337, 377.679 400.126, 374.985 " />
            <path fill="none" stroke-width="3.0" stroke-linecap="butt" stroke-opacity="1.0" stroke="rgb(0, 0, 0)" stroke-linejoin="round" d=" M 402.337, 397.432 403.980, 394.359 404.992, 391.024 405.333, 387.556 " />
            <path fill="none" stroke-width="3.0" stroke-linecap="butt" stroke-opacity="1.0" stroke="rgb(0, 0, 0)" stroke-linejoin="round" d=" M 400.126, 400.126 402.337, 397.432 " />
            <path fill="none" stroke-width="3.0" stroke-linecap="butt" stroke-opacity="1.0" stroke="rgb(0, 0, 0)" stroke-linejoin="round" d=" M 397.432, 402.337 400.126, 400.126 " />
            <path fill="none" stroke-width="3.0" stroke-linecap="butt" stroke-opacity="1.0" stroke="rgb(0, 0, 0)" stroke-linejoin="round" d=" M 387.556, 405.333 391.024, 404.992 394.359, 403.980 397.432, 402.337 " />
            <path fill="none" stroke-width="3.0" stroke-linecap="butt" stroke-opacity="1.0" stroke="rgb(0, 0, 0)" stroke-linejoin="round" d=" M 374.985, 400.126 377.679, 402.337 380.752, 403.980 384.087, 404.992 387.556, 405.333 " />
            <path fill="none" stroke-width="3.0" stroke-linecap="butt" stroke-opacity="1.0" stroke="rgb(0, 0, 0)" stroke-linejoin="round" d=" M 370.119, 384.087 369.778, 387.556 370.119, 391.024 371.131, 394.359 372.774, 397.432 374.985, 400.126 " />
            <path fill="none" stroke-width="3.0" stroke-linecap="butt" stroke-opacity="1.0" stroke="rgb(0, 0, 0)" stroke-linejoin="round" d=" M 380.752, 371.131 377.679, 372.774 374.985, 374.985 372.774, 377.679 371.131, 380.752 " />
            <path fill="none" stroke-width="3.0" stroke-linecap="butt" stroke-opacity="1.0" stroke="rgb(0, 0, 0)" stroke-linejoin="round" d=" M 649.015, 374.985 646.321, 372.774 643.248, 371.131 639.913, 370.119 636.444, 369.778 632.976, 370.119 629.641, 371.131 626.568, 372.774 623.874, 374.985 621.663, 377.679 620.020, 380.752 619.008, 384.087 618.667, 387.556 619.008, 391.024 " />
            <path fill="none" stroke-width="3.0" stroke-linecap="butt" stroke-opacity="1.0" stroke="rgb(0, 0, 0)" stroke-linejoin="round" d=" M 632.976, 404.992 636.444, 405.333 639.913, 404.992 643.248, 403.980 646.321, 402.337 649.015, 400.126 651.226, 397.432 652.869, 394.359 653.881, 391.024 654.222, 387.556 653.881, 384.087 652.869, 380.752 651.226, 377.679 649.015, 374.985 " />
            <path fill="none" stroke-width="3.0" stroke-linecap="butt" stroke-opacity="1.0" stroke="rgb(0, 0, 0)" stroke-linejoin="round" d=" M 623.874, 400.126 626.568, 402.337 629.641, 403.980 632.976, 404.992 " />
            <path fill="none" stroke-width="3.0" stroke-linecap="butt" stroke-opacity="1.0" stroke="rgb(0, 0, 0)" stroke-linejoin="round" d=" M 619.008, 391.024 620.020, 394.359 621.663, 397.432 623.874, 400.126 " />
            <path fill="none" stroke-width="3.0" stroke-linecap="butt" stroke-opacity="1.0" stroke="rgb(0, 0, 0)" stroke-linejoin="round" d=" M 618.667, 654.222 618.667, 644.222 618.667, 636.445 " />
            <path fill="none" stroke-width="3.0" stroke-linecap="butt" stroke-opacity="1.0" stroke="rgb(0, 0, 0)" stroke-linejoin="round" d=" M 371.131, 380.752 370.119, 384.087 " />
            <path fill="none" stroke-width="3.0" stroke-linecap="butt" stroke-opacity="1.0" stroke="rgb(0, 0, 0)" stroke-linejoin="round" d=" M 384.087, 370.119 380.752, 371.131 " />
            <path fill="none" stroke-width="3.0" stroke-linecap="butt" stroke-opacity="1.0" stroke="rgb(0, 0, 0)" stroke-linejoin="round" d=" M 400.126, 623.874 397.432, 621.663 " />
            <path fill="none" stroke-width="3.0" stroke-linecap="butt" stroke-opacity="1.0" stroke="rgb(0, 0, 0)" stroke-linejoin="round" d=" M 402.337, 626.568 400.126, 623.874 " />
            <path fill="none" stroke-width="3.0" stroke-linecap="butt" stroke-opacity="1.0" stroke="rgb(0, 0, 0)" stroke-linejoin="round" d=" M 405.333, 636.445 405.333, 646.445 405.333, 654.222 " />
            <path fill="none" stroke-width="3.0" stroke-linecap="butt" stroke-opacity="1.0" stroke="rgb(0, 0, 0)" stroke-linejoin="round" d=" M 405.333, 636.444 405.333, 636.445 " />
            <path fill="none" stroke-width="3.0" stroke-linecap="butt" stroke-opacity="1.0" stroke="rgb(0, 0, 0)" stroke-linejoin="round" d=" M 405.333, 618.667 405.333, 628.667 405.333, 636.444 " />
            <path fill="none" stroke-width="3.0" stroke-linecap="butt" stroke-opacity="1.0" stroke="rgb(0, 0, 0)" stroke-linejoin="round" d=" M 405.333, 618.667 405.333, 618.667 " />
            <path fill="none" stroke-width="3.0" stroke-linecap="butt" stroke-opacity="1.0" stroke="rgb(0, 0, 0)" stroke-linejoin="round" d=" M 405.333, 405.333 405.333, 415.333 405.333, 425.333 405.333, 435.333 405.333, 445.333 405.333, 455.333 405.333, 465.333 405.333, 475.333 405.333, 485.333 405.333, 495.333 405.333, 505.333 405.333, 515.333 405.333, 525.333 405.333, 535.333 405.333, 545.333 405.333, 555.333 405.333, 565.333 405.333, 575.333 405.333, 585.333 405.333, 595.333 405.333, 605.333 405.333, 615.333 405.333, 618.667 " />
            <path fill="none" stroke-width="3.0" stroke-linecap="butt" stroke-opacity="1.0" stroke="rgb(0, 0, 0)" stroke-linejoin="round" d=" M 405.333, 654.222 415.333, 654.222 425.333, 654.222 435.333, 654.222 445.333, 654.222 455.333, 654.222 465.333, 654.222 475.333, 654.222 485.333, 654.222 495.333, 654.222 505.333, 654.222 515.333, 654.222 525.333, 654.222 535.333, 654.222 545.333, 654.222 555.333, 654.222 565.333, 654.222 575.333, 654.222 585.333, 654.222 595.333, 654.222 605.333, 654.222 615.333, 654.222 618.667, 654.222 " />
            <path fill="none" stroke-width="3.0" stroke-linecap="butt" stroke-opacity="1.0" stroke="rgb(0, 0, 0)" stroke-linejoin="round" d=" M 618.667, 618.667 608.667, 618.667 598.667, 618.667 588.667, 618.667 578.667, 618.667 568.667, 618.667 558.667, 618.667 548.667, 618.667 538.667, 618.667 528.667, 618.667 518.667, 618.667 508.667, 618.667 498.667, 618.667 488.667, 618.667 478.667, 618.667 468.667, 618.667 458.667, 618.667 448.667, 618.667 438.667, 618.667 428.667, 618.667 418.667, 618.667 408.667, 618.667 405.333, 618.667 " />
            <path fill="none" stroke-width="3.0" stroke-linecap="butt" stroke-opacity="1.0" stroke="rgb(0, 0, 0)" stroke-linejoin="round" d=" M 618.667, 618.667 618.667, 618.667 " />
            <path fill="none" stroke-width="3.0" stroke-linecap="butt" stroke-opacity="1.0" stroke="rgb(0, 0, 0)" stroke-linejoin="round" d=" M 618.667, 636.444 618.667, 626.444 618.667, 618.667 " />
            <path fill="none" stroke-width="3.0" stroke-linecap="butt" stroke-opacity="1.0" stroke="rgb(0, 0, 0)" stroke-linejoin="round" d=" M 618.667, 636.445 618.667, 636.444 " />
            <path fill="none" stroke-width="3.0" stroke-linecap="butt" stroke-opacity="1.0" stroke="rgb(0, 0, 0)" stroke-linejoin="round" d=" M 618.667, 405.333 608.667, 405.333 598.667, 405.333 588.667, 405.333 578.667, 405.333 568.667, 405.333 558.667, 405.333 548.667, 405.333 538.667, 405.333 528.667, 405.333 518.667, 405.333 508.667, 405.333 498.667, 405.333 488.667, 405.333 478.667, 405.333 468.667, 405.333 458.667, 405.333 448.667, 405.333 438.667, 405.333 428.667, 405.333 418.667, 405.333 408.667, 405.333 405.333, 405.333 " />
            <path fill="none" stroke-width="3.0" stroke-linecap="butt" stroke-opacity="1.0" stroke="rgb(0, 0, 0)" stroke-linejoin="round" d=" M 618.667, 618.667 618.667, 608.667 618.667, 598.667 618.667, 588.667 618.667, 578.667 618.667, 568.667 618.667, 558.667 618.667, 548.667 618.667, 538.667 618.667, 528.667 618.667, 518.667 618.667, 508.667 618.667, 498.667 618.667, 488.667 618.667, 478.667 618.667, 468.667 618.667, 458.667 618.667, 448.667 618.667, 438.667 618.667, 428.667 618.667, 418.667 618.667, 408.667 618.667, 405.333 " />
            <path fill="none" stroke-width="3.0" stroke-linecap="butt" stroke-opacity="1.0" stroke="rgb(0, 0, 0)" stroke-linejoin="round" d=" M 623.874, 623.874 621.663, 626.568 " />
            <path fill="none" stroke-width="3.0" stroke-linecap="butt" stroke-opacity="1.0" stroke="rgb(0, 0, 0)" stroke-linejoin="round" d=" M 626.568, 621.663 623.874, 623.874 " />
        </g>
    </g>
    <g id="ViewLayer_TechnicalLines.001" inkscape:groupmode="lineset" inkscape:label="ViewLayer_TechnicalLines.001">
        <g inkscape:groupmode="layer" id="strokes" inkscape:label="strokes">
            <path fill="none" stroke-width="1.5" stroke-linecap="round" stroke-opacity="1.0" stroke="rgb(0, 0, 0)" stroke-linejoin="round" d=" M 397.432, 621.663 394.359, 620.020 391.024, 619.008 387.556, 618.667 " />
            <path fill="none" stroke-width="1.5" stroke-linecap="round" stroke-opacity="1.0" stroke="rgb(0, 0, 0)" stroke-linejoin="round" d=" M 405.333, 636.444 404.992, 632.976 403.980, 629.641 402.337, 626.568 " />
            <path fill="none" stroke-width="1.5" stroke-linecap="round" stroke-opacity="1.0" stroke="rgb(0, 0, 0)" stroke-linejoin="round" d=" M 400.126, 649.015 402.337, 646.321 403.980, 643.248 404.992, 639.913 405.333, 636.445 " />
            <path fill="none" stroke-width="1.5" stroke-linecap="round" stroke-opacity="1.0" stroke="rgb(0, 0, 0)" stroke-linejoin="round" d=" M 384.087, 653.881 387.556, 654.222 391.024, 653.881 394.359, 652.869 397.432, 651.226 400.126, 649.015 " />
            <path fill="none" stroke-width="1.5" stroke-linecap="round" stroke-opacity="1.0" stroke="rgb(0, 0, 0)" stroke-linejoin="round" d=" M 380.752, 652.869 384.087, 653.881 " />
            <path fill="none" stroke-width="1.5" stroke-linecap="round" stroke-opacity="1.0" stroke="rgb(0, 0, 0)" stroke-linejoin="round" d=" M 371.131, 643.248 372.774, 646.321 374.985, 649.015 377.679, 651.226 380.752, 652.869 " />
            <path fill="none" stroke-width="1.5" stroke-linecap="round" stroke-opacity="1.0" stroke="rgb(0, 0, 0)" stroke-linejoin="round" d=" M 370.119, 639.913 371.131, 643.248 " />
            <path fill="none" stroke-width="1.5" stroke-linecap="round" stroke-opacity="1.0" stroke="rgb(0, 0, 0)" stroke-linejoin="round" d=" M 374.985, 623.874 372.774, 626.568 371.131, 629.641 370.119, 632.976 369.778, 636.444 370.119, 639.913 " />
            <path fill="none" stroke-width="1.5" stroke-linecap="round" stroke-opacity="1.0" stroke="rgb(0, 0, 0)" stroke-linejoin="round" d=" M 387.556, 618.667 384.087, 619.008 380.752, 620.020 377.679, 621.663 374.985, 623.874 " />
            <path fill="none" stroke-width="1.5" stroke-linecap="round" stroke-opacity="1.0" stroke="rgb(0, 0, 0)" stroke-linejoin="round" d=" M 649.015, 623.874 646.321, 621.663 643.248, 620.020 639.913, 619.008 636.444, 618.667 " />
            <path fill="none" stroke-width="1.5" stroke-linecap="round" stroke-opacity="1.0" stroke="rgb(0, 0, 0)" stroke-linejoin="round" d=" M 653.881, 639.913 654.222, 636.444 653.881, 632.976 652.869, 629.641 651.226, 626.568 649.015, 623.874 " />
            <path fill="none" stroke-width="1.5" stroke-linecap="round" stroke-opacity="1.0" stroke="rgb(0, 0, 0)" stroke-linejoin="round" d=" M 652.869, 643.248 653.881, 639.913 " />
            <path fill="none" stroke-width="1.5" stroke-linecap="round" stroke-opacity="1.0" stroke="rgb(0, 0, 0)" stroke-linejoin="round" d=" M 643.248, 652.869 646.321, 651.226 649.015, 649.015 651.226, 646.321 652.869, 643.248 " />
            <path fill="none" stroke-width="1.5" stroke-linecap="round" stroke-opacity="1.0" stroke="rgb(0, 0, 0)" stroke-linejoin="round" d=" M 639.913, 653.881 643.248, 652.869 " />
            <path fill="none" stroke-width="1.5" stroke-linecap="round" stroke-opacity="1.0" stroke="rgb(0, 0, 0)" stroke-linejoin="round" d=" M 623.874, 649.015 626.568, 651.226 629.641, 652.869 632.976, 653.881 636.444, 654.222 639.913, 653.881 " />
            <path fill="none" stroke-width="1.5" stroke-linecap="round" stroke-opacity="1.0" stroke="rgb(0, 0, 0)" stroke-linejoin="round" d=" M 618.667, 636.445 619.008, 639.913 620.020, 643.248 621.663, 646.321 623.874, 649.015 " />
            <path fill="none" stroke-width="1.5" stroke-linecap="round" stroke-opacity="1.0" stroke="rgb(0, 0, 0)" stroke-linejoin="round" d=" M 621.663, 626.568 620.020, 629.641 619.008, 632.976 618.667, 636.444 " />
            <path fill="none" stroke-width="1.5" stroke-linecap="round" stroke-opacity="1.0" stroke="rgb(0, 0, 0)" stroke-linejoin="round" d=" M 636.444, 618.667 632.976, 619.008 629.641, 620.020 626.568, 621.663 " />
            <path fill="none" stroke-width="1.5" stroke-linecap="round" stroke-opacity="1.0" stroke="rgb(0, 0, 0)" stroke-linejoin="round" d=" M 400.126, 374.985 397.432, 372.774 394.359, 371.131 391.024, 370.119 387.556, 369.778 384.087, 370.119 " />
            <path fill="none" stroke-width="1.5" stroke-linecap="round" stroke-opacity="1.0" stroke="rgb(0, 0, 0)" stroke-linejoin="round" d=" M 405.333, 387.556 404.992, 384.087 403.980, 380.752 402.337, 377.679 400.126, 374.985 " />
            <path fill="none" stroke-width="1.5" stroke-linecap="round" stroke-opacity="1.0" stroke="rgb(0, 0, 0)" stroke-linejoin="round" d=" M 402.337, 397.432 403.980, 394.359 404.992, 391.024 405.333, 387.556 " />
            <path fill="none" stroke-width="1.5" stroke-linecap="round" stroke-opacity="1.0" stroke="rgb(0, 0, 0)" stroke-linejoin="round" d=" M 400.126, 400.126 402.337, 397.432 " />
            <path fill="none" stroke-width="1.5" stroke-linecap="round" stroke-opacity="1.0" stroke="rgb(0, 0, 0)" stroke-linejoin="round" d=" M 397.432, 402.337 400.126, 400.126 " />
            <path fill="none" stroke-width="1.5" stroke-linecap="round" stroke-opacity="1.0" stroke="rgb(0, 0, 0)" stroke-linejoin="round" d=" M 387.556, 405.333 391.024, 404.992 394.359, 403.980 397.432, 402.337 " />
            <path fill="none" stroke-width="1.5" stroke-linecap="round" stroke-opacity="1.0" stroke="rgb(0, 0, 0)" stroke-linejoin="round" d=" M 374.985, 400.126 377.679, 402.337 380.752, 403.980 384.087, 404.992 387.556, 405.333 " />
            <path fill="none" stroke-width="1.5" stroke-linecap="round" stroke-opacity="1.0" stroke="rgb(0, 0, 0)" stroke-linejoin="round" d=" M 370.119, 384.087 369.778, 387.556 370.119, 391.024 371.131, 394.359 372.774, 397.432 374.985, 400.126 " />
            <path fill="none" stroke-width="1.5" stroke-linecap="round" stroke-opacity="1.0" stroke="rgb(0, 0, 0)" stroke-linejoin="round" d=" M 380.752, 371.131 377.679, 372.774 374.985, 374.985 372.774, 377.679 371.131, 380.752 " />
            <path fill="none" stroke-width="1.5" stroke-linecap="round" stroke-opacity="1.0" stroke="rgb(0, 0, 0)" stroke-linejoin="round" d=" M 649.015, 374.985 646.321, 372.774 643.248, 371.131 639.913, 370.119 636.444, 369.778 632.976, 370.119 629.641, 371.131 626.568, 372.774 623.874, 374.985 621.663, 377.679 620.020, 380.752 619.008, 384.087 618.667, 387.556 619.008, 391.024 " />
            <path fill="none" stroke-width="1.5" stroke-linecap="round" stroke-opacity="1.0" stroke="rgb(0, 0, 0)" stroke-linejoin="round" d=" M 632.976, 404.992 636.444, 405.333 639.913, 404.992 643.248, 403.980 646.321, 402.337 649.015, 400.126 651.226, 397.432 652.869, 394.359 653.881, 391.024 654.222, 387.556 653.881, 384.087 652.869, 380.752 651.226, 377.679 649.015, 374.985 " />
            <path fill="none" stroke-width="1.5" stroke-linecap="round" stroke-opacity="1.0" stroke="rgb(0, 0, 0)" stroke-linejoin="round" d=" M 623.874, 400.126 626.568, 402.337 629.641, 403.980 632.976, 404.992 " />
            <path fill="none" stroke-width="1.5" stroke-linecap="round" stroke-opacity="1.0" stroke="rgb(0, 0, 0)" stroke-linejoin="round" d=" M 619.008, 391.024 620.020, 394.359 621.663, 397.432 623.874, 400.126 " />
            <path fill="none" stroke-width="1.5" stroke-linecap="round" stroke-opacity="1.0" stroke="rgb(0, 0, 0)" stroke-linejoin="round" d=" M 618.667, 654.222 618.667, 644.222 618.667, 636.445 " />
            <path fill="none" stroke-width="1.5" stroke-linecap="round" stroke-opacity="1.0" stroke="rgb(0, 0, 0)" stroke-linejoin="round" d=" M 371.131, 380.752 370.119, 384.087 " />
            <path fill="none" stroke-width="1.5" stroke-linecap="round" stroke-opacity="1.0" stroke="rgb(0, 0, 0)" stroke-linejoin="round" d=" M 384.087, 370.119 380.752, 371.131 " />
            <path fill="none" stroke-width="1.5" stroke-linecap="round" stroke-opacity="1.0" stroke="rgb(0, 0, 0)" stroke-linejoin="round" d=" M 400.126, 623.874 397.432, 621.663 " />
            <path fill="none" stroke-width="1.5" stroke-linecap="round" stroke-opacity="1.0" stroke="rgb(0, 0, 0)" stroke-linejoin="round" d=" M 402.337, 626.568 400.126, 623.874 " />
            <path fill="none" stroke-width="1.5" stroke-linecap="round" stroke-opacity="1.0" stroke="rgb(0, 0, 0)" stroke-linejoin="round" d=" M 405.333, 636.445 405.333, 646.445 405.333, 654.222 " />
            <path fill="none" stroke-width="1.5" stroke-linecap="round" stroke-opacity="1.0" stroke="rgb(0, 0, 0)" stroke-linejoin="round" d=" M 405.333, 636.444 405.333, 636.445 " />
            <path fill="none" stroke-width="1.5" stroke-linecap="round" stroke-opacity="1.0" stroke="rgb(0, 0, 0)" stroke-linejoin="round" d=" M 405.333, 618.667 405.333, 628.667 405.333, 636.444 " />
            <path fill="none" stroke-width="1.5" stroke-linecap="round" stroke-opacity="1.0" stroke="rgb(0, 0, 0)" stroke-linejoin="round" d=" M 405.333, 618.667 405.333, 618.667 " />
            <path fill="none" stroke-width="1.5" stroke-linecap="round" stroke-opacity="1.0" stroke="rgb(0, 0, 0)" stroke-linejoin="round" d=" M 405.333, 405.333 405.333, 415.333 405.333, 425.333 405.333, 435.333 405.333, 445.333 405.333, 455.333 405.333, 465.333 405.333, 475.333 405.333, 485.333 405.333, 495.333 405.333, 505.333 405.333, 515.333 405.333, 525.333 405.333, 535.333 405.333, 545.333 405.333, 555.333 405.333, 565.333 405.333, 575.333 405.333, 585.333 405.333, 595.333 405.333, 605.333 405.333, 615.333 405.333, 618.667 " />
            <path fill="none" stroke-width="1.5" stroke-linecap="round" stroke-opacity="1.0" stroke="rgb(0, 0, 0)" stroke-linejoin="round" d=" M 405.333, 654.222 415.333, 654.222 425.333, 654.222 435.333, 654.222 445.333, 654.222 455.333, 654.222 465.333, 654.222 475.333, 654.222 485.333, 654.222 495.333, 654.222 505.333, 654.222 515.333, 654.222 525.333, 654.222 535.333, 654.222 545.333, 654.222 555.333, 654.222 565.333, 654.222 575.333, 654.222 585.333, 654.222 595.333, 654.222 605.333, 654.222 615.333, 654.222 618.667, 654.222 " />
            <path fill="none" stroke-width="1.5" stroke-linecap="round" stroke-opacity="1.0" stroke="rgb(0, 0, 0)" stroke-linejoin="round" d=" M 618.667, 618.667 608.667, 618.667 598.667, 618.667 588.667, 618.667 578.667, 618.667 568.667, 618.667 558.667, 618.667 548.667, 618.667 538.667, 618.667 528.667, 618.667 518.667, 618.667 508.667, 618.667 498.667, 618.667 488.667, 618.667 478.667, 618.667 468.667, 618.667 458.667, 618.667 448.667, 618.667 438.667, 618.667 428.667, 618.667 418.667, 618.667 408.667, 618.667 405.333, 618.667 " />
            <path fill="none" stroke-width="1.5" stroke-linecap="round" stroke-opacity="1.0" stroke="rgb(0, 0, 0)" stroke-linejoin="round" d=" M 618.667, 618.667 618.667, 618.667 " />
            <path fill="none" stroke-width="1.5" stroke-linecap="round" stroke-opacity="1.0" stroke="rgb(0, 0, 0)" stroke-linejoin="round" d=" M 618.667, 636.444 618.667, 626.444 618.667, 618.667 " />
            <path fill="none" stroke-width="1.5" stroke-linecap="round" stroke-opacity="1.0" stroke="rgb(0, 0, 0)" stroke-linejoin="round" d=" M 618.667, 636.445 618.667, 636.444 " />
            <path fill="none" stroke-width="1.5" stroke-linecap="round" stroke-opacity="1.0" stroke="rgb(0, 0, 0)" stroke-linejoin="round" d=" M 618.667, 405.333 608.667, 405.333 598.667, 405.333 588.667, 405.333 578.667, 405.333 568.667, 405.333 558.667, 405.333 548.667, 405.333 538.667, 405.333 528.667, 405.333 518.667, 405.333 508.667, 405.333 498.667, 405.333 488.667, 405.333 478.667, 405.333 468.667, 405.333 458.667, 405.333 448.667, 405.333 438.667, 405.333 428.667, 405.333 418.667, 405.333 408.667, 405.333 405.333, 405.333 " />
            <path fill="none" stroke-width="1.5" stroke-linecap="round" stroke-opacity="1.0" stroke="rgb(0, 0, 0)" stroke-linejoin="round" d=" M 618.667, 618.667 618.667, 608.667 618.667, 598.667 618.667, 588.667 618.667, 578.667 618.667, 568.667 618.667, 558.667 618.667, 548.667 618.667, 538.667 618.667, 528.667 618.667, 518.667 618.667, 508.667 618.667, 498.667 618.667, 488.667 618.667, 478.667 618.667, 468.667 618.667, 458.667 618.667, 448.667 618.667, 438.667 618.667, 428.667 618.667, 418.667 618.667, 408.667 618.667, 405.333 " />
            <path fill="none" stroke-width="1.5" stroke-linecap="round" stroke-opacity="1.0" stroke="rgb(0, 0, 0)" stroke-linejoin="round" d=" M 623.874, 623.874 621.663, 626.568 " />
            <path fill="none" stroke-width="1.5" stroke-linecap="round" stroke-opacity="1.0" stroke="rgb(0, 0, 0)" stroke-linejoin="round" d=" M 626.568, 621.663 623.874, 623.874 " />
        </g>
    </g>
    <g id="ViewLayer_TechnicalLines.002" inkscape:groupmode="lineset" inkscape:label="ViewLayer_TechnicalLines.002">
        <g inkscape:groupmode="layer" id="strokes" inkscape:label="strokes">
            <path fill="none" stroke-width="1.5" stroke-linecap="round" stroke-opacity="1.0" stroke="rgb(0, 0, 0)" stroke-linejoin="round" d=" M 397.432, 621.663 394.359, 620.020 391.024, 619.008 387.556, 618.667 " />
            <path fill="none" stroke-width="1.5" stroke-linecap="round" stroke-opacity="1.0" stroke="rgb(0, 0, 0)" stroke-linejoin="round" d=" M 405.333, 636.444 404.992, 632.976 403.980, 629.641 402.337, 626.568 " />
            <path fill="none" stroke-width="1.5" stroke-linecap="round" stroke-opacity="1.0" stroke="rgb(0, 0, 0)" stroke-linejoin="round" d=" M 400.126, 649.015 402.337, 646.321 403.980, 643.248 404.992, 639.913 405.333, 636.445 " />
            <path fill="none" stroke-width="1.5" stroke-linecap="round" stroke-opacity="1.0" stroke="rgb(0, 0, 0)" stroke-linejoin="round" d=" M 384.087, 653.881 387.556, 654.222 391.024, 653.881 394.359, 652.869 397.432, 651.226 400.126, 649.015 " />
            <path fill="none" stroke-width="1.5" stroke-linecap="round" stroke-opacity="1.0" stroke="rgb(0, 0, 0)" stroke-linejoin="round" d=" M 380.752, 652.869 384.087, 653.881 " />
            <path fill="none" stroke-width="1.5" stroke-linecap="round" stroke-opacity="1.0" stroke="rgb(0, 0, 0)" stroke-linejoin="round" d=" M 371.131, 643.248 372.774, 646.321 374.985, 649.015 377.679, 651.226 380.752, 652.869 " />
            <path fill="none" stroke-width="1.5" stroke-linecap="round" stroke-opacity="1.0" stroke="rgb(0, 0, 0)" stroke-linejoin="round" d=" M 370.119, 639.913 371.131, 643.248 " />
            <path fill="none" stroke-width="1.5" stroke-linecap="round" stroke-opacity="1.0" stroke="rgb(0, 0, 0)" stroke-linejoin="round" d=" M 374.985, 623.874 372.774, 626.568 371.131, 629.641 370.119, 632.976 369.778, 636.444 370.119, 639.913 " />
            <path fill="none" stroke-width="1.5" stroke-linecap="round" stroke-opacity="1.0" stroke="rgb(0, 0, 0)" stroke-linejoin="round" d=" M 387.556, 618.667 384.087, 619.008 380.752, 620.020 377.679, 621.663 374.985, 623.874 " />
            <path fill="none" stroke-width="1.5" stroke-linecap="round" stroke-opacity="1.0" stroke="rgb(0, 0, 0)" stroke-linejoin="round" d=" M 649.015, 623.874 646.321, 621.663 643.248, 620.020 639.913, 619.008 636.444, 618.667 " />
            <path fill="none" stroke-width="1.5" stroke-linecap="round" stroke-opacity="1.0" stroke="rgb(0, 0, 0)" stroke-linejoin="round" d=" M 653.881, 639.913 654.222, 636.444 653.881, 632.976 652.869, 629.641 651.226, 626.568 649.015, 623.874 " />
            <path fill="none" stroke-width="1.5" stroke-linecap="round" stroke-opacity="1.0" stroke="rgb(0, 0, 0)" stroke-linejoin="round" d=" M 652.869, 643.248 653.881, 639.913 " />
            <path fill="none" stroke-width="1.5" stroke-linecap="round" stroke-opacity="1.0" stroke="rgb(0, 0, 0)" stroke-linejoin="round" d=" M 643.248, 652.869 646.321, 651.226 649.015, 649.015 651.226, 646.321 652.869, 643.248 " />
            <path fill="none" stroke-width="1.5" stroke-linecap="round" stroke-opacity="1.0" stroke="rgb(0, 0, 0)" stroke-linejoin="round" d=" M 639.913, 653.881 643.248, 652.869 " />
            <path fill="none" stroke-width="1.5" stroke-linecap="round" stroke-opacity="1.0" stroke="rgb(0, 0, 0)" stroke-linejoin="round" d=" M 623.874, 649.015 626.568, 651.226 629.641, 652.869 632.976, 653.881 636.444, 654.222 639.913, 653.881 " />
            <path fill="none" stroke-width="1.5" stroke-linecap="round" stroke-opacity="1.0" stroke="rgb(0, 0, 0)" stroke-linejoin="round" d=" M 618.667, 636.445 619.008, 639.913 620.020, 643.248 621.663, 646.321 623.874, 649.015 " />
            <path fill="none" stroke-width="1.5" stroke-linecap="round" stroke-opacity="1.0" stroke="rgb(0, 0, 0)" stroke-linejoin="round" d=" M 621.663, 626.568 620.020, 629.641 619.008, 632.976 618.667, 636.444 " />
            <path fill="none" stroke-width="1.5" stroke-linecap="round" stroke-opacity="1.0" stroke="rgb(0, 0, 0)" stroke-linejoin="round" d=" M 636.444, 618.667 632.976, 619.008 629.641, 620.020 626.568, 621.663 " />
            <path fill="none" stroke-width="1.5" stroke-linecap="round" stroke-opacity="1.0" stroke="rgb(0, 0, 0)" stroke-linejoin="round" d=" M 400.126, 374.985 397.432, 372.774 394.359, 371.131 391.024, 370.119 387.556, 369.778 384.087, 370.119 " />
            <path fill="none" stroke-width="1.5" stroke-linecap="round" stroke-opacity="1.0" stroke="rgb(0, 0, 0)" stroke-linejoin="round" d=" M 405.333, 387.556 404.992, 384.087 403.980, 380.752 402.337, 377.679 400.126, 374.985 " />
            <path fill="none" stroke-width="1.5" stroke-linecap="round" stroke-opacity="1.0" stroke="rgb(0, 0, 0)" stroke-linejoin="round" d=" M 402.337, 397.432 403.980, 394.359 404.992, 391.024 405.333, 387.556 " />
            <path fill="none" stroke-width="1.5" stroke-linecap="round" stroke-opacity="1.0" stroke="rgb(0, 0, 0)" stroke-linejoin="round" d=" M 400.126, 400.126 402.337, 397.432 " />
            <path fill="none" stroke-width="1.5" stroke-linecap="round" stroke-opacity="1.0" stroke="rgb(0, 0, 0)" stroke-linejoin="round" d=" M 397.432, 402.337 400.126, 400.126 " />
            <path fill="none" stroke-width="1.5" stroke-linecap="round" stroke-opacity="1.0" stroke="rgb(0, 0, 0)" stroke-linejoin="round" d=" M 387.556, 405.333 391.024, 404.992 394.359, 403.980 397.432, 402.337 " />
            <path fill="none" stroke-width="1.5" stroke-linecap="round" stroke-opacity="1.0" stroke="rgb(0, 0, 0)" stroke-linejoin="round" d=" M 374.985, 400.126 377.679, 402.337 380.752, 403.980 384.087, 404.992 387.556, 405.333 " />
            <path fill="none" stroke-width="1.5" stroke-linecap="round" stroke-opacity="1.0" stroke="rgb(0, 0, 0)" stroke-linejoin="round" d=" M 370.119, 384.087 369.778, 387.556 370.119, 391.024 371.131, 394.359 372.774, 397.432 374.985, 400.126 " />
            <path fill="none" stroke-width="1.5" stroke-linecap="round" stroke-opacity="1.0" stroke="rgb(0, 0, 0)" stroke-linejoin="round" d=" M 380.752, 371.131 377.679, 372.774 374.985, 374.985 372.774, 377.679 371.131, 380.752 " />
            <path fill="none" stroke-width="1.5" stroke-linecap="round" stroke-opacity="1.0" stroke="rgb(0, 0, 0)" stroke-linejoin="round" d=" M 649.015, 374.985 646.321, 372.774 643.248, 371.131 639.913, 370.119 636.444, 369.778 632.976, 370.119 629.641, 371.131 626.568, 372.774 623.874, 374.985 621.663, 377.679 620.020, 380.752 619.008, 384.087 618.667, 387.556 619.008, 391.024 " />
            <path fill="none" stroke-width="1.5" stroke-linecap="round" stroke-opacity="1.0" stroke="rgb(0, 0, 0)" stroke-linejoin="round" d=" M 632.976, 404.992 636.444, 405.333 639.913, 404.992 643.248, 403.980 646.321, 402.337 649.015, 400.126 651.226, 397.432 652.869, 394.359 653.881, 391.024 654.222, 387.556 653.881, 384.087 652.869, 380.752 651.226, 377.679 649.015, 374.985 " />
            <path fill="none" stroke-width="1.5" stroke-linecap="round" stroke-opacity="1.0" stroke="rgb(0, 0, 0)" stroke-linejoin="round" d=" M 623.874, 400.126 626.568, 402.337 629.641, 403.980 632.976, 404.992 " />
            <path fill="none" stroke-width="1.5" stroke-linecap="round" stroke-opacity="1.0" stroke="rgb(0, 0, 0)" stroke-linejoin="round" d=" M 619.008, 391.024 620.020, 394.359 621.663, 397.432 623.874, 400.126 " />
            <path fill="none" stroke-width="1.5" stroke-linecap="round" stroke-opacity="1.0" stroke="rgb(0, 0, 0)" stroke-linejoin="round" d=" M 618.667, 654.222 618.667, 644.222 618.667, 636.445 " />
            <path fill="none" stroke-width="1.5" stroke-linecap="round" stroke-opacity="1.0" stroke="rgb(0, 0, 0)" stroke-linejoin="round" d=" M 371.131, 380.752 370.119, 384.087 " />
            <path fill="none" stroke-width="1.5" stroke-linecap="round" stroke-opacity="1.0" stroke="rgb(0, 0, 0)" stroke-linejoin="round" d=" M 384.087, 370.119 380.752, 371.131 " />
            <path fill="none" stroke-width="1.5" stroke-linecap="round" stroke-opacity="1.0" stroke="rgb(0, 0, 0)" stroke-linejoin="round" d=" M 400.126, 623.874 397.432, 621.663 " />
            <path fill="none" stroke-width="1.5" stroke-linecap="round" stroke-opacity="1.0" stroke="rgb(0, 0, 0)" stroke-linejoin="round" d=" M 402.337, 626.568 400.126, 623.874 " />
            <path fill="none" stroke-width="1.5" stroke-linecap="round" stroke-opacity="1.0" stroke="rgb(0, 0, 0)" stroke-linejoin="round" d=" M 405.333, 636.445 405.333, 646.445 405.333, 654.222 " />
            <path fill="none" stroke-width="1.5" stroke-linecap="round" stroke-opacity="1.0" stroke="rgb(0, 0, 0)" stroke-linejoin="round" d=" M 405.333, 636.444 405.333, 636.445 " />
            <path fill="none" stroke-width="1.5" stroke-linecap="round" stroke-opacity="1.0" stroke="rgb(0, 0, 0)" stroke-linejoin="round" d=" M 405.333, 618.667 405.333, 628.667 405.333, 636.444 " />
            <path fill="none" stroke-width="1.5" stroke-linecap="round" stroke-opacity="1.0" stroke="rgb(0, 0, 0)" stroke-linejoin="round" d=" M 405.333, 618.667 405.333, 618.667 " />
            <path fill="none" stroke-width="1.5" stroke-linecap="round" stroke-opacity="1.0" stroke="rgb(0, 0, 0)" stroke-linejoin="round" d=" M 405.333, 405.333 405.333, 415.333 405.333, 425.333 405.333, 435.333 405.333, 445.333 405.333, 455.333 405.333, 465.333 405.333, 475.333 405.333, 485.333 405.333, 495.333 405.333, 505.333 405.333, 515.333 405.333, 525.333 405.333, 535.333 405.333, 545.333 405.333, 555.333 405.333, 565.333 405.333, 575.333 405.333, 585.333 405.333, 595.333 405.333, 605.333 405.333, 615.333 405.333, 618.667 " />
            <path fill="none" stroke-width="1.5" stroke-linecap="round" stroke-opacity="1.0" stroke="rgb(0, 0, 0)" stroke-linejoin="round" d=" M 405.333, 654.222 415.333, 654.222 425.333, 654.222 435.333, 654.222 445.333, 654.222 455.333, 654.222 465.333, 654.222 475.333, 654.222 485.333, 654.222 495.333, 654.222 505.333, 654.222 515.333, 654.222 525.333, 654.222 535.333, 654.222 545.333, 654.222 555.333, 654.222 565.333, 654.222 575.333, 654.222 585.333, 654.222 595.333, 654.222 605.333, 654.222 615.333, 654.222 618.667, 654.222 " />
            <path fill="none" stroke-width="1.5" stroke-linecap="round" stroke-opacity="1.0" stroke="rgb(0, 0, 0)" stroke-linejoin="round" d=" M 618.667, 618.667 608.667, 618.667 598.667, 618.667 588.667, 618.667 578.667, 618.667 568.667, 618.667 558.667, 618.667 548.667, 618.667 538.667, 618.667 528.667, 618.667 518.667, 618.667 508.667, 618.667 498.667, 618.667 488.667, 618.667 478.667, 618.667 468.667, 618.667 458.667, 618.667 448.667, 618.667 438.667, 618.667 428.667, 618.667 418.667, 618.667 408.667, 618.667 405.333, 618.667 " />
            <path fill="none" stroke-width="1.5" stroke-linecap="round" stroke-opacity="1.0" stroke="rgb(0, 0, 0)" stroke-linejoin="round" d=" M 618.667, 618.667 618.667, 618.667 " />
            <path fill="none" stroke-width="1.5" stroke-linecap="round" stroke-opacity="1.0" stroke="rgb(0, 0, 0)" stroke-linejoin="round" d=" M 618.667, 636.444 618.667, 626.444 618.667, 618.667 " />
            <path fill="none" stroke-width="1.5" stroke-linecap="round" stroke-opacity="1.0" stroke="rgb(0, 0, 0)" stroke-linejoin="round" d=" M 618.667, 636.445 618.667, 636.444 " />
            <path fill="none" stroke-width="1.5" stroke-linecap="round" stroke-opacity="1.0" stroke="rgb(0, 0, 0)" stroke-linejoin="round" d=" M 618.667, 405.333 608.667, 405.333 598.667, 405.333 588.667, 405.333 578.667, 405.333 568.667, 405.333 558.667, 405.333 548.667, 405.333 538.667, 405.333 528.667, 405.333 518.667, 405.333 508.667, 405.333 498.667, 405.333 488.667, 405.333 478.667, 405.333 468.667, 405.333 458.667, 405.333 448.667, 405.333 438.667, 405.333 428.667, 405.333 418.667, 405.333 408.667, 405.333 405.333, 405.333 " />
            <path fill="none" stroke-width="1.5" stroke-linecap="round" stroke-opacity="1.0" stroke="rgb(0, 0, 0)" stroke-linejoin="round" d=" M 618.667, 618.667 618.667, 608.667 618.667, 598.667 618.667, 588.667 618.667, 578.667 618.667, 568.667 618.667, 558.667 618.667, 548.667 618.667, 538.667 618.667, 528.667 618.667, 518.667 618.667, 508.667 618.667, 498.667 618.667, 488.667 618.667, 478.667 618.667, 468.667 618.667, 458.667 618.667, 448.667 618.667, 438.667 618.667, 428.667 618.667, 418.667 618.667, 408.667 618.667, 405.333 " />
            <path fill="none" stroke-width="1.5" stroke-linecap="round" stroke-opacity="1.0" stroke="rgb(0, 0, 0)" stroke-linejoin="round" d=" M 623.874, 623.874 621.663, 626.568 " />
            <path fill="none" stroke-width="1.5" stroke-linecap="round" stroke-opacity="1.0" stroke="rgb(0, 0, 0)" stroke-linejoin="round" d=" M 626.568, 621.663 623.874, 623.874 " />
        </g>
    </g>
    <g id="ViewLayer_TechnicalLines.003" inkscape:groupmode="lineset" inkscape:label="ViewLayer_TechnicalLines.003">
        <g inkscape:groupmode="layer" id="strokes" inkscape:label="strokes">
            <path fill="none" stroke-width="1.5" stroke-linecap="round" stroke-opacity="1.0" stroke="rgb(0, 0, 0)" stroke-linejoin="round" d=" M 397.432, 621.663 394.359, 620.020 391.024, 619.008 387.556, 618.667 " />
            <path fill="none" stroke-width="1.5" stroke-linecap="round" stroke-opacity="1.0" stroke="rgb(0, 0, 0)" stroke-linejoin="round" d=" M 405.333, 636.444 404.992, 632.976 403.980, 629.641 402.337, 626.568 " />
            <path fill="none" stroke-width="1.5" stroke-linecap="round" stroke-opacity="1.0" stroke="rgb(0, 0, 0)" stroke-linejoin="round" d=" M 400.126, 649.015 402.337, 646.321 403.980, 643.248 404.992, 639.913 405.333, 636.445 " />
            <path fill="none" stroke-width="1.5" stroke-linecap="round" stroke-opacity="1.0" stroke="rgb(0, 0, 0)" stroke-linejoin="round" d=" M 384.087, 653.881 387.556, 654.222 391.024, 653.881 394.359, 652.869 397.432, 651.226 400.126, 649.015 " />
            <path fill="none" stroke-width="1.5" stroke-linecap="round" stroke-opacity="1.0" stroke="rgb(0, 0, 0)" stroke-linejoin="round" d=" M 380.752, 652.869 384.087, 653.881 " />
            <path fill="none" stroke-width="1.5" stroke-linecap="round" stroke-opacity="1.0" stroke="rgb(0, 0, 0)" stroke-linejoin="round" d=" M 371.131, 643.248 372.774, 646.321 374.985, 649.015 377.679, 651.226 380.752, 652.869 " />
            <path fill="none" stroke-width="1.5" stroke-linecap="round" stroke-opacity="1.0" stroke="rgb(0, 0, 0)" stroke-linejoin="round" d=" M 370.119, 639.913 371.131, 643.248 " />
            <path fill="none" stroke-width="1.5" stroke-linecap="round" stroke-opacity="1.0" stroke="rgb(0, 0, 0)" stroke-linejoin="round" d=" M 374.985, 623.874 372.774, 626.568 371.131, 629.641 370.119, 632.976 369.778, 636.444 370.119, 639.913 " />
            <path fill="none" stroke-width="1.5" stroke-linecap="round" stroke-opacity="1.0" stroke="rgb(0, 0, 0)" stroke-linejoin="round" d=" M 387.556, 618.667 384.087, 619.008 380.752, 620.020 377.679, 621.663 374.985, 623.874 " />
            <path fill="none" stroke-width="1.5" stroke-linecap="round" stroke-opacity="1.0" stroke="rgb(0, 0, 0)" stroke-linejoin="round" d=" M 649.015, 623.874 646.321, 621.663 643.248, 620.020 639.913, 619.008 636.444, 618.667 " />
            <path fill="none" stroke-width="1.5" stroke-linecap="round" stroke-opacity="1.0" stroke="rgb(0, 0, 0)" stroke-linejoin="round" d=" M 653.881, 639.913 654.222, 636.444 653.881, 632.976 652.869, 629.641 651.226, 626.568 649.015, 623.874 " />
            <path fill="none" stroke-width="1.5" stroke-linecap="round" stroke-opacity="1.0" stroke="rgb(0, 0, 0)" stroke-linejoin="round" d=" M 652.869, 643.248 653.881, 639.913 " />
            <path fill="none" stroke-width="1.5" stroke-linecap="round" stroke-opacity="1.0" stroke="rgb(0, 0, 0)" stroke-linejoin="round" d=" M 643.248, 652.869 646.321, 651.226 649.015, 649.015 651.226, 646.321 652.869, 643.248 " />
            <path fill="none" stroke-width="1.5" stroke-linecap="round" stroke-opacity="1.0" stroke="rgb(0, 0, 0)" stroke-linejoin="round" d=" M 639.913, 653.881 643.248, 652.869 " />
            <path fill="none" stroke-width="1.5" stroke-linecap="round" stroke-opacity="1.0" stroke="rgb(0, 0, 0)" stroke-linejoin="round" d=" M 623.874, 649.015 626.568, 651.226 629.641, 652.869 632.976, 653.881 636.444, 654.222 639.913, 653.881 " />
            <path fill="none" stroke-width="1.5" stroke-linecap="round" stroke-opacity="1.0" stroke="rgb(0, 0, 0)" stroke-linejoin="round" d=" M 618.667, 636.445 619.008, 639.913 620.020, 643.248 621.663, 646.321 623.874, 649.015 " />
            <path fill="none" stroke-width="1.5" stroke-linecap="round" stroke-opacity="1.0" stroke="rgb(0, 0, 0)" stroke-linejoin="round" d=" M 621.663, 626.568 620.020, 629.641 619.008, 632.976 618.667, 636.444 " />
            <path fill="none" stroke-width="1.5" stroke-linecap="round" stroke-opacity="1.0" stroke="rgb(0, 0, 0)" stroke-linejoin="round" d=" M 636.444, 618.667 632.976, 619.008 629.641, 620.020 626.568, 621.663 " />
            <path fill="none" stroke-width="1.5" stroke-linecap="round" stroke-opacity="1.0" stroke="rgb(0, 0, 0)" stroke-linejoin="round" d=" M 400.126, 374.985 397.432, 372.774 394.359, 371.131 391.024, 370.119 387.556, 369.778 384.087, 370.119 " />
            <path fill="none" stroke-width="1.5" stroke-linecap="round" stroke-opacity="1.0" stroke="rgb(0, 0, 0)" stroke-linejoin="round" d=" M 405.333, 387.556 404.992, 384.087 403.980, 380.752 402.337, 377.679 400.126, 374.985 " />
            <path fill="none" stroke-width="1.5" stroke-linecap="round" stroke-opacity="1.0" stroke="rgb(0, 0, 0)" stroke-linejoin="round" d=" M 402.337, 397.432 403.980, 394.359 404.992, 391.024 405.333, 387.556 " />
            <path fill="none" stroke-width="1.5" stroke-linecap="round" stroke-opacity="1.0" stroke="rgb(0, 0, 0)" stroke-linejoin="round" d=" M 400.126, 400.126 402.337, 397.432 " />
            <path fill="none" stroke-width="1.5" stroke-linecap="round" stroke-opacity="1.0" stroke="rgb(0, 0, 0)" stroke-linejoin="round" d=" M 397.432, 402.337 400.126, 400.126 " />
            <path fill="none" stroke-width="1.5" stroke-linecap="round" stroke-opacity="1.0" stroke="rgb(0, 0, 0)" stroke-linejoin="round" d=" M 387.556, 405.333 391.024, 404.992 394.359, 403.980 397.432, 402.337 " />
            <path fill="none" stroke-width="1.5" stroke-linecap="round" stroke-opacity="1.0" stroke="rgb(0, 0, 0)" stroke-linejoin="round" d=" M 374.985, 400.126 377.679, 402.337 380.752, 403.980 384.087, 404.992 387.556, 405.333 " />
            <path fill="none" stroke-width="1.5" stroke-linecap="round" stroke-opacity="1.0" stroke="rgb(0, 0, 0)" stroke-linejoin="round" d=" M 370.119, 384.087 369.778, 387.556 370.119, 391.024 371.131, 394.359 372.774, 397.432 374.985, 400.126 " />
            <path fill="none" stroke-width="1.5" stroke-linecap="round" stroke-opacity="1.0" stroke="rgb(0, 0, 0)" stroke-linejoin="round" d=" M 380.752, 371.131 377.679, 372.774 374.985, 374.985 372.774, 377.679 371.131, 380.752 " />
            <path fill="none" stroke-width="1.5" stroke-linecap="round" stroke-opacity="1.0" stroke="rgb(0, 0, 0)" stroke-linejoin="round" d=" M 649.015, 374.985 646.321, 372.774 643.248, 371.131 639.913, 370.119 636.444, 369.778 632.976, 370.119 629.641, 371.131 626.568, 372.774 623.874, 374.985 621.663, 377.679 620.020, 380.752 619.008, 384.087 618.667, 387.556 619.008, 391.024 " />
            <path fill="none" stroke-width="1.5" stroke-linecap="round" stroke-opacity="1.0" stroke="rgb(0, 0, 0)" stroke-linejoin="round" d=" M 632.976, 404.992 636.444, 405.333 639.913, 404.992 643.248, 403.980 646.321, 402.337 649.015, 400.126 651.226, 397.432 652.869, 394.359 653.881, 391.024 654.222, 387.556 653.881, 384.087 652.869, 380.752 651.226, 377.679 649.015, 374.985 " />
            <path fill="none" stroke-width="1.5" stroke-linecap="round" stroke-opacity="1.0" stroke="rgb(0, 0, 0)" stroke-linejoin="round" d=" M 623.874, 400.126 626.568, 402.337 629.641, 403.980 632.976, 404.992 " />
            <path fill="none" stroke-width="1.5" stroke-linecap="round" stroke-opacity="1.0" stroke="rgb(0, 0, 0)" stroke-linejoin="round" d=" M 619.008, 391.024 620.020, 394.359 621.663, 397.432 623.874, 400.126 " />
            <path fill="none" stroke-width="1.5" stroke-linecap="round" stroke-opacity="1.0" stroke="rgb(0, 0, 0)" stroke-linejoin="round" d=" M 618.667, 654.222 618.667, 644.222 618.667, 636.445 " />
            <path fill="none" stroke-width="1.5" stroke-linecap="round" stroke-opacity="1.0" stroke="rgb(0, 0, 0)" stroke-linejoin="round" d=" M 371.131, 380.752 370.119, 384.087 " />
            <path fill="none" stroke-width="1.5" stroke-linecap="round" stroke-opacity="1.0" stroke="rgb(0, 0, 0)" stroke-linejoin="round" d=" M 384.087, 370.119 380.752, 371.131 " />
            <path fill="none" stroke-width="1.5" stroke-linecap="round" stroke-opacity="1.0" stroke="rgb(0, 0, 0)" stroke-linejoin="round" d=" M 400.126, 623.874 397.432, 621.663 " />
            <path fill="none" stroke-width="1.5" stroke-linecap="round" stroke-opacity="1.0" stroke="rgb(0, 0, 0)" stroke-linejoin="round" d=" M 402.337, 626.568 400.126, 623.874 " />
            <path fill="none" stroke-width="1.5" stroke-linecap="round" stroke-opacity="1.0" stroke="rgb(0, 0, 0)" stroke-linejoin="round" d=" M 405.333, 636.445 405.333, 646.445 405.333, 654.222 " />
            <path fill="none" stroke-width="1.5" stroke-linecap="round" stroke-opacity="1.0" stroke="rgb(0, 0, 0)" stroke-linejoin="round" d=" M 405.333, 636.444 405.333, 636.445 " />
            <path fill="none" stroke-width="1.5" stroke-linecap="round" stroke-opacity="1.0" stroke="rgb(0, 0, 0)" stroke-linejoin="round" d=" M 405.333, 618.667 405.333, 628.667 405.333, 636.444 " />
            <path fill="none" stroke-width="1.5" stroke-linecap="round" stroke-opacity="1.0" stroke="rgb(0, 0, 0)" stroke-linejoin="round" d=" M 405.333, 618.667 405.333, 618.667 " />
            <path fill="none" stroke-width="1.5" stroke-linecap="round" stroke-opacity="1.0" stroke="rgb(0, 0, 0)" stroke-linejoin="round" d=" M 405.333, 405.333 405.333, 415.333 405.333, 425.333 405.333, 435.333 405.333, 445.333 405.333, 455.333 405.333, 465.333 405.333, 475.333 405.333, 485.333 405.333, 495.333 405.333, 505.333 405.333, 515.333 405.333, 525.333 405.333, 535.333 405.333, 545.333 405.333, 555.333 405.333, 565.333 405.333, 575.333 405.333, 585.333 405.333, 595.333 405.333, 605.333 405.333, 615.333 405.333, 618.667 " />
            <path fill="none" stroke-width="1.5" stroke-linecap="round" stroke-opacity="1.0" stroke="rgb(0, 0, 0)" stroke-linejoin="round" d=" M 405.333, 654.222 415.333, 654.222 425.333, 654.222 435.333, 654.222 445.333, 654.222 455.333, 654.222 465.333, 654.222 475.333, 654.222 485.333, 654.222 495.333, 654.222 505.333, 654.222 515.333, 654.222 525.333, 654.222 535.333, 654.222 545.333, 654.222 555.333, 654.222 565.333, 654.222 575.333, 654.222 585.333, 654.222 595.333, 654.222 605.333, 654.222 615.333, 654.222 618.667, 654.222 " />
            <path fill="none" stroke-width="1.5" stroke-linecap="round" stroke-opacity="1.0" stroke="rgb(0, 0, 0)" stroke-linejoin="round" d=" M 618.667, 618.667 608.667, 618.667 598.667, 618.667 588.667, 618.667 578.667, 618.667 568.667, 618.667 558.667, 618.667 548.667, 618.667 538.667, 618.667 528.667, 618.667 518.667, 618.667 508.667, 618.667 498.667, 618.667 488.667, 618.667 478.667, 618.667 468.667, 618.667 458.667, 618.667 448.667, 618.667 438.667, 618.667 428.667, 618.667 418.667, 618.667 408.667, 618.667 405.333, 618.667 " />
            <path fill="none" stroke-width="1.5" stroke-linecap="round" stroke-opacity="1.0" stroke="rgb(0, 0, 0)" stroke-linejoin="round" d=" M 618.667, 618.667 618.667, 618.667 " />
            <path fill="none" stroke-width="1.5" stroke-linecap="round" stroke-opacity="1.0" stroke="rgb(0, 0, 0)" stroke-linejoin="round" d=" M 618.667, 636.444 618.667, 626.444 618.667, 618.667 " />
            <path fill="none" stroke-width="1.5" stroke-linecap="round" stroke-opacity="1.0" stroke="rgb(0, 0, 0)" stroke-linejoin="round" d=" M 618.667, 636.445 618.667, 636.444 " />
            <path fill="none" stroke-width="1.5" stroke-linecap="round" stroke-opacity="1.0" stroke="rgb(0, 0, 0)" stroke-linejoin="round" d=" M 618.667, 405.333 608.667, 405.333 598.667, 405.333 588.667, 405.333 578.667, 405.333 568.667, 405.333 558.667, 405.333 548.667, 405.333 538.667, 405.333 528.667, 405.333 518.667, 405.333 508.667, 405.333 498.667, 405.333 488.667, 405.333 478.667, 405.333 468.667, 405.333 458.667, 405.333 448.667, 405.333 438.667, 405.333 428.667, 405.333 418.667, 405.333 408.667, 405.333 405.333, 405.333 " />
            <path fill="none" stroke-width="1.5" stroke-linecap="round" stroke-opacity="1.0" stroke="rgb(0, 0, 0)" stroke-linejoin="round" d=" M 618.667, 618.667 618.667, 608.667 618.667, 598.667 618.667, 588.667 618.667, 578.667 618.667, 568.667 618.667, 558.667 618.667, 548.667 618.667, 538.667 618.667, 528.667 618.667, 518.667 618.667, 508.667 618.667, 498.667 618.667, 488.667 618.667, 478.667 618.667, 468.667 618.667, 458.667 618.667, 448.667 618.667, 438.667 618.667, 428.667 618.667, 418.667 618.667, 408.667 618.667, 405.333 " />
            <path fill="none" stroke-width="1.5" stroke-linecap="round" stroke-opacity="1.0" stroke="rgb(0, 0, 0)" stroke-linejoin="round" d=" M 623.874, 623.874 621.663, 626.568 " />
            <path fill="none" stroke-width="1.5" stroke-linecap="round" stroke-opacity="1.0" stroke="rgb(0, 0, 0)" stroke-linejoin="round" d=" M 626.568, 621.663 623.874, 623.874 " />
        </g>
    </g>
    <g id="ViewLayer_TechnicalLines.004" xmlns:inkscape="http://www.inkscape.org/namespaces/inkscape" inkscape:groupmode="lineset" inkscape:label="ViewLayer_TechnicalLines.004">
        <g xmlns:inkscape="http://www.inkscape.org/namespaces/inkscape" inkscape:groupmode="layer" id="strokes" inkscape:label="strokes">
            <path fill="none" stroke-width="1.5" stroke-linecap="round" stroke-opacity="1.0" stroke="rgb(0, 0, 0)" stroke-linejoin="round" d=" M 397.432, 621.663 394.359, 620.020 391.024, 619.008 387.556, 618.667 " />
            <path fill="none" stroke-width="1.5" stroke-linecap="round" stroke-opacity="1.0" stroke="rgb(0, 0, 0)" stroke-linejoin="round" d=" M 405.333, 636.444 404.992, 632.976 403.980, 629.641 402.337, 626.568 " />
            <path fill="none" stroke-width="1.5" stroke-linecap="round" stroke-opacity="1.0" stroke="rgb(0, 0, 0)" stroke-linejoin="round" d=" M 400.126, 649.015 402.337, 646.321 403.980, 643.248 404.992, 639.913 405.333, 636.445 " />
            <path fill="none" stroke-width="1.5" stroke-linecap="round" stroke-opacity="1.0" stroke="rgb(0, 0, 0)" stroke-linejoin="round" d=" M 384.087, 653.881 387.556, 654.222 391.024, 653.881 394.359, 652.869 397.432, 651.226 400.126, 649.015 " />
            <path fill="none" stroke-width="1.5" stroke-linecap="round" stroke-opacity="1.0" stroke="rgb(0, 0, 0)" stroke-linejoin="round" d=" M 380.752, 652.869 384.087, 653.881 " />
            <path fill="none" stroke-width="1.5" stroke-linecap="round" stroke-opacity="1.0" stroke="rgb(0, 0, 0)" stroke-linejoin="round" d=" M 371.131, 643.248 372.774, 646.321 374.985, 649.015 377.679, 651.226 380.752, 652.869 " />
            <path fill="none" stroke-width="1.5" stroke-linecap="round" stroke-opacity="1.0" stroke="rgb(0, 0, 0)" stroke-linejoin="round" d=" M 370.119, 639.913 371.131, 643.248 " />
            <path fill="none" stroke-width="1.5" stroke-linecap="round" stroke-opacity="1.0" stroke="rgb(0, 0, 0)" stroke-linejoin="round" d=" M 374.985, 623.874 372.774, 626.568 371.131, 629.641 370.119, 632.976 369.778, 636.444 370.119, 639.913 " />
            <path fill="none" stroke-width="1.5" stroke-linecap="round" stroke-opacity="1.0" stroke="rgb(0, 0, 0)" stroke-linejoin="round" d=" M 387.556, 618.667 384.087, 619.008 380.752, 620.020 377.679, 621.663 374.985, 623.874 " />
            <path fill="none" stroke-width="1.5" stroke-linecap="round" stroke-opacity="1.0" stroke="rgb(0, 0, 0)" stroke-linejoin="round" d=" M 649.015, 623.874 646.321, 621.663 643.248, 620.020 639.913, 619.008 636.444, 618.667 " />
            <path fill="none" stroke-width="1.5" stroke-linecap="round" stroke-opacity="1.0" stroke="rgb(0, 0, 0)" stroke-linejoin="round" d=" M 653.881, 639.913 654.222, 636.444 653.881, 632.976 652.869, 629.641 651.226, 626.568 649.015, 623.874 " />
            <path fill="none" stroke-width="1.5" stroke-linecap="round" stroke-opacity="1.0" stroke="rgb(0, 0, 0)" stroke-linejoin="round" d=" M 652.869, 643.248 653.881, 639.913 " />
            <path fill="none" stroke-width="1.5" stroke-linecap="round" stroke-opacity="1.0" stroke="rgb(0, 0, 0)" stroke-linejoin="round" d=" M 643.248, 652.869 646.321, 651.226 649.015, 649.015 651.226, 646.321 652.869, 643.248 " />
            <path fill="none" stroke-width="1.5" stroke-linecap="round" stroke-opacity="1.0" stroke="rgb(0, 0, 0)" stroke-linejoin="round" d=" M 639.913, 653.881 643.248, 652.869 " />
            <path fill="none" stroke-width="1.5" stroke-linecap="round" stroke-opacity="1.0" stroke="rgb(0, 0, 0)" stroke-linejoin="round" d=" M 623.874, 649.015 626.568, 651.226 629.641, 652.869 632.976, 653.881 636.444, 654.222 639.913, 653.881 " />
            <path fill="none" stroke-width="1.5" stroke-linecap="round" stroke-opacity="1.0" stroke="rgb(0, 0, 0)" stroke-linejoin="round" d=" M 618.667, 636.445 619.008, 639.913 620.020, 643.248 621.663, 646.321 623.874, 649.015 " />
            <path fill="none" stroke-width="1.5" stroke-linecap="round" stroke-opacity="1.0" stroke="rgb(0, 0, 0)" stroke-linejoin="round" d=" M 621.663, 626.568 620.020, 629.641 619.008, 632.976 618.667, 636.444 " />
            <path fill="none" stroke-width="1.5" stroke-linecap="round" stroke-opacity="1.0" stroke="rgb(0, 0, 0)" stroke-linejoin="round" d=" M 636.444, 618.667 632.976, 619.008 629.641, 620.020 626.568, 621.663 " />
            <path fill="none" stroke-width="1.5" stroke-linecap="round" stroke-opacity="1.0" stroke="rgb(0, 0, 0)" stroke-linejoin="round" d=" M 400.126, 374.985 397.432, 372.774 394.359, 371.131 391.024, 370.119 387.556, 369.778 384.087, 370.119 " />
            <path fill="none" stroke-width="1.5" stroke-linecap="round" stroke-opacity="1.0" stroke="rgb(0, 0, 0)" stroke-linejoin="round" d=" M 405.333, 387.556 404.992, 384.087 403.980, 380.752 402.337, 377.679 400.126, 374.985 " />
            <path fill="none" stroke-width="1.5" stroke-linecap="round" stroke-opacity="1.0" stroke="rgb(0, 0, 0)" stroke-linejoin="round" d=" M 402.337, 397.432 403.980, 394.359 404.992, 391.024 405.333, 387.556 " />
            <path fill="none" stroke-width="1.5" stroke-linecap="round" stroke-opacity="1.0" stroke="rgb(0, 0, 0)" stroke-linejoin="round" d=" M 400.126, 400.126 402.337, 397.432 " />
            <path fill="none" stroke-width="1.5" stroke-linecap="round" stroke-opacity="1.0" stroke="rgb(0, 0, 0)" stroke-linejoin="round" d=" M 397.432, 402.337 400.126, 400.126 " />
            <path fill="none" stroke-width="1.5" stroke-linecap="round" stroke-opacity="1.0" stroke="rgb(0, 0, 0)" stroke-linejoin="round" d=" M 387.556, 405.333 391.024, 404.992 394.359, 403.980 397.432, 402.337 " />
            <path fill="none" stroke-width="1.5" stroke-linecap="round" stroke-opacity="1.0" stroke="rgb(0, 0, 0)" stroke-linejoin="round" d=" M 374.985, 400.126 377.679, 402.337 380.752, 403.980 384.087, 404.992 387.556, 405.333 " />
            <path fill="none" stroke-width="1.5" stroke-linecap="round" stroke-opacity="1.0" stroke="rgb(0, 0, 0)" stroke-linejoin="round" d=" M 370.119, 384.087 369.778, 387.556 370.119, 391.024 371.131, 394.359 372.774, 397.432 374.985, 400.126 " />
            <path fill="none" stroke-width="1.5" stroke-linecap="round" stroke-opacity="1.0" stroke="rgb(0, 0, 0)" stroke-linejoin="round" d=" M 380.752, 371.131 377.679, 372.774 374.985, 374.985 372.774, 377.679 371.131, 380.752 " />
            <path fill="none" stroke-width="1.5" stroke-linecap="round" stroke-opacity="1.0" stroke="rgb(0, 0, 0)" stroke-linejoin="round" d=" M 649.015, 374.985 646.321, 372.774 643.248, 371.131 639.913, 370.119 636.444, 369.778 632.976, 370.119 629.641, 371.131 626.568, 372.774 623.874, 374.985 621.663, 377.679 620.020, 380.752 619.008, 384.087 618.667, 387.556 619.008, 391.024 " />
            <path fill="none" stroke-width="1.5" stroke-linecap="round" stroke-opacity="1.0" stroke="rgb(0, 0, 0)" stroke-linejoin="round" d=" M 632.976, 404.992 636.444, 405.333 639.913, 404.992 643.248, 403.980 646.321, 402.337 649.015, 400.126 651.226, 397.432 652.869, 394.359 653.881, 391.024 654.222, 387.556 653.881, 384.087 652.869, 380.752 651.226, 377.679 649.015, 374.985 " />
            <path fill="none" stroke-width="1.5" stroke-linecap="round" stroke-opacity="1.0" stroke="rgb(0, 0, 0)" stroke-linejoin="round" d=" M 623.874, 400.126 626.568, 402.337 629.641, 403.980 632.976, 404.992 " />
            <path fill="none" stroke-width="1.5" stroke-linecap="round" stroke-opacity="1.0" stroke="rgb(0, 0, 0)" stroke-linejoin="round" d=" M 619.008, 391.024 620.020, 394.359 621.663, 397.432 623.874, 400.126 " />
            <path fill="none" stroke-width="1.5" stroke-linecap="round" stroke-opacity="1.0" stroke="rgb(0, 0, 0)" stroke-linejoin="round" d=" M 618.667, 654.222 618.667, 644.222 618.667, 636.445 " />
            <path fill="none" stroke-width="1.5" stroke-linecap="round" stroke-opacity="1.0" stroke="rgb(0, 0, 0)" stroke-linejoin="round" d=" M 371.131, 380.752 370.119, 384.087 " />
            <path fill="none" stroke-width="1.5" stroke-linecap="round" stroke-opacity="1.0" stroke="rgb(0, 0, 0)" stroke-linejoin="round" d=" M 384.087, 370.119 380.752, 371.131 " />
            <path fill="none" stroke-width="1.5" stroke-linecap="round" stroke-opacity="1.0" stroke="rgb(0, 0, 0)" stroke-linejoin="round" d=" M 400.126, 623.874 397.432, 621.663 " />
            <path fill="none" stroke-width="1.5" stroke-linecap="round" stroke-opacity="1.0" stroke="rgb(0, 0, 0)" stroke-linejoin="round" d=" M 402.337, 626.568 400.126, 623.874 " />
            <path fill="none" stroke-width="1.5" stroke-linecap="round" stroke-opacity="1.0" stroke="rgb(0, 0, 0)" stroke-linejoin="round" d=" M 405.333, 636.445 405.333, 646.445 405.333, 654.222 " />
            <path fill="none" stroke-width="1.5" stroke-linecap="round" stroke-opacity="1.0" stroke="rgb(0, 0, 0)" stroke-linejoin="round" d=" M 405.333, 636.444 405.333, 636.445 " />
            <path fill="none" stroke-width="1.5" stroke-linecap="round" stroke-opacity="1.0" stroke="rgb(0, 0, 0)" stroke-linejoin="round" d=" M 405.333, 618.667 405.333, 628.667 405.333, 636.444 " />
            <path fill="none" stroke-width="1.5" stroke-linecap="round" stroke-opacity="1.0" stroke="rgb(0, 0, 0)" stroke-linejoin="round" d=" M 405.333, 618.667 405.333, 618.667 " />
            <path fill="none" stroke-width="1.5" stroke-linecap="round" stroke-opacity="1.0" stroke="rgb(0, 0, 0)" stroke-linejoin="round" d=" M 405.333, 405.333 405.333, 415.333 405.333, 425.333 405.333, 435.333 405.333, 445.333 405.333, 455.333 405.333, 465.333 405.333, 475.333 405.333, 485.333 405.333, 495.333 405.333, 505.333 405.333, 515.333 405.333, 525.333 405.333, 535.333 405.333, 545.333 405.333, 555.333 405.333, 565.333 405.333, 575.333 405.333, 585.333 405.333, 595.333 405.333, 605.333 405.333, 615.333 405.333, 618.667 " />
            <path fill="none" stroke-width="1.5" stroke-linecap="round" stroke-opacity="1.0" stroke="rgb(0, 0, 0)" stroke-linejoin="round" d=" M 405.333, 654.222 415.333, 654.222 425.333, 654.222 435.333, 654.222 445.333, 654.222 455.333, 654.222 465.333, 654.222 475.333, 654.222 485.333, 654.222 495.333, 654.222 505.333, 654.222 515.333, 654.222 525.333, 654.222 535.333, 654.222 545.333, 654.222 555.333, 654.222 565.333, 654.222 575.333, 654.222 585.333, 654.222 595.333, 654.222 605.333, 654.222 615.333, 654.222 618.667, 654.222 " />
            <path fill="none" stroke-width="1.5" stroke-linecap="round" stroke-opacity="1.0" stroke="rgb(0, 0, 0)" stroke-linejoin="round" d=" M 618.667, 618.667 608.667, 618.667 598.667, 618.667 588.667, 618.667 578.667, 618.667 568.667, 618.667 558.667, 618.667 548.667, 618.667 538.667, 618.667 528.667, 618.667 518.667, 618.667 508.667, 618.667 498.667, 618.667 488.667, 618.667 478.667, 618.667 468.667, 618.667 458.667, 618.667 448.667, 618.667 438.667, 618.667 428.667, 618.667 418.667, 618.667 408.667, 618.667 405.333, 618.667 " />
            <path fill="none" stroke-width="1.5" stroke-linecap="round" stroke-opacity="1.0" stroke="rgb(0, 0, 0)" stroke-linejoin="round" d=" M 618.667, 618.667 618.667, 618.667 " />
            <path fill="none" stroke-width="1.5" stroke-linecap="round" stroke-opacity="1.0" stroke="rgb(0, 0, 0)" stroke-linejoin="round" d=" M 618.667, 636.444 618.667, 626.444 618.667, 618.667 " />
            <path fill="none" stroke-width="1.5" stroke-linecap="round" stroke-opacity="1.0" stroke="rgb(0, 0, 0)" stroke-linejoin="round" d=" M 618.667, 636.445 618.667, 636.444 " />
            <path fill="none" stroke-width="1.5" stroke-linecap="round" stroke-opacity="1.0" stroke="rgb(0, 0, 0)" stroke-linejoin="round" d=" M 618.667, 405.333 608.667, 405.333 598.667, 405.333 588.667, 405.333 578.667, 405.333 568.667, 405.333 558.667, 405.333 548.667, 405.333 538.667, 405.333 528.667, 405.333 518.667, 405.333 508.667, 405.333 498.667, 405.333 488.667, 405.333 478.667, 405.333 468.667, 405.333 458.667, 405.333 448.667, 405.333 438.667, 405.333 428.667, 405.333 418.667, 405.333 408.667, 405.333 405.333, 405.333 " />
            <path fill="none" stroke-width="1.5" stroke-linecap="round" stroke-opacity="1.0" stroke="rgb(0, 0, 0)" stroke-linejoin="round" d=" M 618.667, 618.667 618.667, 608.667 618.667, 598.667 618.667, 588.667 618.667, 578.667 618.667, 568.667 618.667, 558.667 618.667, 548.667 618.667, 538.667 618.667, 528.667 618.667, 518.667 618.667, 508.667 618.667, 498.667 618.667, 488.667 618.667, 478.667 618.667, 468.667 618.667, 458.667 618.667, 448.667 618.667, 438.667 618.667, 428.667 618.667, 418.667 618.667, 408.667 618.667, 405.333 " />
            <path fill="none" stroke-width="1.5" stroke-linecap="round" stroke-opacity="1.0" stroke="rgb(0, 0, 0)" stroke-linejoin="round" d=" M 623.874, 623.874 621.663, 626.568 " />
            <path fill="none" stroke-width="1.5" stroke-linecap="round" stroke-opacity="1.0" stroke="rgb(0, 0, 0)" stroke-linejoin="round" d=" M 626.568, 621.663 623.874, 623.874 " />
        </g>
    </g>
</svg>
