<?xml version='1.0' encoding='ascii'?>
<svg xmlns="http://www.w3.org/2000/svg" xmlns:inkscape="http://www.inkscape.org/namespaces/inkscape" version="1.1" width="1024" height="1024">
    <g id="ViewLayer_LineSet" inkscape:groupmode="lineset" inkscape:label="ViewLayer_LineSet">
        <g inkscape:groupmode="layer" id="strokes" inkscape:label="strokes">
            <path fill="none" stroke-width="3.0" stroke-linecap="butt" stroke-opacity="1.0" stroke="rgb(0, 0, 0)" stroke-linejoin="round" d=" M 369.778, 796.444 369.778, 796.445 370.119, 796.445 371.131, 796.445 372.774, 796.445 374.985, 796.445 377.679, 796.445 380.752, 796.445 384.087, 796.445 387.556, 796.445 391.024, 796.445 394.359, 796.445 397.432, 796.445 400.126, 796.445 402.337, 796.445 403.980, 796.445 404.992, 796.445 405.333, 796.445 405.333, 786.445 405.333, 776.445 405.333, 766.445 405.333, 756.445 405.333, 746.445 405.333, 736.445 405.333, 726.445 405.333, 716.445 405.333, 706.445 405.333, 696.445 405.333, 686.445 405.333, 676.445 405.333, 666.445 405.333, 656.445 405.333, 646.445 405.333, 636.445 405.333, 626.445 405.333, 616.445 405.333, 606.445 405.333, 596.445 405.333, 586.445 405.333, 576.445 405.333, 566.445 405.333, 556.445 405.333, 546.445 405.333, 536.445 405.333, 526.445 405.333, 516.445 405.333, 506.445 405.333, 494.222 " />
            <path fill="none" stroke-width="3.0" stroke-linecap="butt" stroke-opacity="1.0" stroke="rgb(0, 0, 0)" stroke-linejoin="round" d=" M 405.333, 476.445 405.333, 476.444 404.992, 476.444 403.980, 476.444 402.337, 476.444 400.126, 476.444 397.432, 476.444 394.359, 476.444 391.024, 476.444 387.556, 476.444 384.087, 476.444 380.752, 476.444 377.679, 476.444 374.985, 476.444 372.774, 476.444 371.131, 476.444 370.119, 476.444 369.778, 476.444 369.778, 486.444 369.778, 496.444 369.778, 506.444 369.778, 516.444 369.778, 526.444 369.778, 536.444 369.778, 546.444 369.778, 556.444 369.778, 566.444 369.778, 576.444 369.778, 586.444 369.778, 596.444 369.778, 606.444 369.778, 616.444 369.778, 626.444 369.778, 636.444 369.778, 646.444 369.778, 656.444 369.778, 666.444 369.778, 676.444 369.778, 686.444 369.778, 696.444 369.778, 706.444 369.778, 716.444 369.778, 726.444 369.778, 736.444 369.778, 746.444 369.778, 756.444 369.778, 766.444 369.778, 776.444 369.778, 786.444 369.778, 796.444 369.778, 796.444 370.119, 796.444 371.131, 796.444 372.774, 796.444 374.985, 796.444 377.679, 796.444 380.752, 796.444 384.087, 796.444 387.556, 796.444 391.024, 796.444 394.359, 796.444 397.432, 796.444 400.126, 796.444 402.337, 796.444 403.980, 796.444 404.992, 796.444 405.333, 796.444 405.333, 786.444 405.333, 776.444 405.333, 766.444 405.333, 756.444 405.333, 746.444 405.333, 736.444 405.333, 726.444 405.333, 716.444 405.333, 706.444 405.333, 696.444 405.333, 686.444 405.333, 676.444 405.333, 666.444 405.333, 656.444 405.333, 646.444 405.333, 636.444 405.333, 626.444 405.333, 616.444 405.333, 606.444 405.333, 596.444 405.333, 586.444 405.333, 576.444 405.333, 566.444 405.333, 556.444 405.333, 546.444 405.333, 536.444 405.333, 526.444 405.333, 516.444 405.333, 506.444 405.333, 496.444 405.333, 486.444 405.333, 476.445 " />
            <path fill="none" stroke-width="3.0" stroke-linecap="butt" stroke-opacity="1.0" stroke="rgb(0, 0, 0)" stroke-linejoin="round" d=" M 618.667, 796.444 618.667, 796.445 619.008, 796.445 620.020, 796.445 621.663, 796.445 623.874, 796.445 626.568, 796.445 629.641, 796.445 632.976, 796.445 636.445, 796.445 639.913, 796.445 643.248, 796.445 646.321, 796.445 649.015, 796.445 651.226, 796.445 652.869, 796.445 653.881, 796.445 654.222, 796.445 654.222, 786.445 654.222, 776.445 654.222, 766.445 654.222, 756.445 654.222, 746.445 654.222, 736.445 654.222, 726.445 654.222, 716.445 654.222, 706.445 654.222, 696.445 654.222, 686.445 654.222, 676.445 654.222, 666.445 654.222, 656.445 654.222, 646.445 654.222, 636.445 654.222, 626.445 654.222, 616.445 654.222, 606.445 654.222, 596.445 654.222, 586.445 654.222, 576.445 654.222, 566.445 654.222, 556.445 654.222, 546.445 654.222, 536.445 654.222, 526.445 654.222, 516.445 654.222, 506.445 654.222, 496.445 654.222, 486.445 654.222, 476.445 654.222, 476.445 " />
            <path fill="none" stroke-width="3.0" stroke-linecap="butt" stroke-opacity="1.0" stroke="rgb(0, 0, 0)" stroke-linejoin="round" d=" M 618.667, 476.444 618.667, 476.444 618.667, 486.444 618.667, 494.222 618.667, 494.222 618.667, 504.222 618.667, 514.222 618.667, 524.222 618.667, 534.222 618.667, 544.222 618.667, 554.222 618.667, 564.222 618.667, 574.222 618.667, 584.222 618.667, 594.222 618.667, 604.222 618.667, 614.222 618.667, 624.222 618.667, 634.222 618.667, 644.222 618.667, 654.222 618.667, 664.222 618.667, 674.222 618.667, 684.222 618.667, 694.222 618.667, 704.222 618.667, 714.222 618.667, 724.222 618.667, 734.222 618.667, 744.222 618.667, 754.222 618.667, 764.222 618.667, 774.222 618.667, 784.222 618.667, 796.444 618.667, 796.444 619.008, 796.444 620.020, 796.444 621.663, 796.444 623.874, 796.444 626.568, 796.444 629.641, 796.444 632.976, 796.444 636.445, 796.444 639.913, 796.444 643.248, 796.444 646.321, 796.444 649.015, 796.444 651.226, 796.444 652.869, 796.444 653.881, 796.444 654.222, 796.444 654.222, 786.444 654.222, 776.444 654.222, 766.444 654.222, 756.444 654.222, 746.444 654.222, 736.444 654.222, 726.444 654.222, 716.444 654.222, 706.444 654.222, 696.444 654.222, 686.444 654.222, 676.444 654.222, 666.444 654.222, 656.444 654.222, 646.444 654.222, 636.444 654.222, 626.444 654.222, 616.444 654.222, 606.444 654.222, 596.444 654.222, 586.444 654.222, 576.444 654.222, 566.444 654.222, 556.444 654.222, 546.444 654.222, 536.444 654.222, 526.444 654.222, 516.444 654.222, 506.444 654.222, 496.444 654.222, 486.444 654.222, 476.445 " />
            <path fill="none" stroke-width="3.0" stroke-linecap="butt" stroke-opacity="1.0" stroke="rgb(0, 0, 0)" stroke-linejoin="round" d=" M 654.222, 476.445 654.222, 476.444 653.881, 476.444 652.869, 476.444 651.226, 476.444 649.015, 476.444 646.321, 476.444 643.248, 476.444 639.913, 476.444 636.445, 476.444 632.976, 476.444 629.641, 476.444 626.568, 476.444 623.874, 476.444 621.663, 476.444 620.020, 476.444 619.008, 476.444 618.667, 476.444 " />
            <path fill="none" stroke-width="3.0" stroke-linecap="butt" stroke-opacity="1.0" stroke="rgb(0, 0, 0)" stroke-linejoin="round" d=" M 405.333, 494.222 405.333, 494.222 415.333, 494.222 425.333, 494.222 435.333, 494.222 445.333, 494.222 455.333, 494.222 465.333, 494.222 475.333, 494.222 485.333, 494.222 495.333, 494.222 505.333, 494.222 515.333, 494.222 525.333, 494.222 535.333, 494.222 545.333, 494.222 555.333, 494.222 565.333, 494.222 575.333, 494.222 585.333, 494.222 595.333, 494.222 605.333, 494.222 615.333, 494.222 618.667, 494.222 " />
            <path fill="none" stroke-width="3.0" stroke-linecap="butt" stroke-opacity="1.0" stroke="rgb(0, 0, 0)" stroke-linejoin="round" d=" M 618.667, 476.444 618.667, 466.444 618.667, 458.667 608.667, 458.667 598.667, 458.667 588.667, 458.667 578.667, 458.667 568.667, 458.667 558.667, 458.667 548.667, 458.667 538.667, 458.667 528.667, 458.667 518.667, 458.667 508.667, 458.667 498.667, 458.667 488.667, 458.667 478.667, 458.667 468.667, 458.667 458.667, 458.667 448.667, 458.667 438.667, 458.667 428.667, 458.667 418.667, 458.667 408.667, 458.667 405.333, 458.667 405.333, 458.667 405.333, 468.667 405.333, 476.445 " />
            <path fill="none" stroke-width="3.0" stroke-linecap="butt" stroke-opacity="1.0" stroke="rgb(0, 0, 0)" stroke-linejoin="round" d=" M 405.333, 494.222 405.333, 494.222 415.333, 494.222 425.333, 494.222 435.333, 494.222 445.333, 494.222 455.333, 494.222 465.333, 494.222 475.333, 494.222 485.333, 494.222 495.333, 494.222 505.333, 494.222 515.333, 494.222 525.333, 494.222 535.333, 494.222 545.333, 494.222 555.333, 494.222 565.333, 494.222 575.333, 494.222 585.333, 494.222 595.333, 494.222 605.333, 494.222 615.333, 494.222 618.667, 494.222 " />
            <path fill="none" stroke-width="3.0" stroke-linecap="butt" stroke-opacity="1.0" stroke="rgb(0, 0, 0)" stroke-linejoin="round" d=" M 405.333, 405.333 405.333, 395.333 405.333, 385.333 405.333, 375.333 405.333, 365.333 405.333, 355.333 405.333, 345.333 405.333, 335.333 405.333, 325.333 405.333, 315.333 405.333, 305.333 405.333, 295.333 405.333, 285.333 405.333, 275.333 405.333, 265.333 405.333, 255.333 405.333, 245.333 405.333, 235.333 405.333, 227.556 405.333, 227.556 395.333, 227.556 385.333, 227.556 375.333, 227.556 369.778, 227.556 369.778, 237.556 369.778, 247.556 369.778, 257.556 369.778, 267.556 369.778, 277.556 369.778, 287.556 369.778, 297.556 369.778, 307.556 369.778, 317.556 369.778, 327.556 369.778, 337.556 369.778, 347.556 369.778, 357.556 369.778, 367.556 369.778, 377.556 369.778, 387.556 369.778, 397.556 369.778, 405.333 369.778, 405.333 379.778, 405.333 389.778, 405.333 399.778, 405.333 405.333, 405.333 405.333, 405.333 " />
            <path fill="none" stroke-width="3.0" stroke-linecap="butt" stroke-opacity="1.0" stroke="rgb(0, 0, 0)" stroke-linejoin="round" d=" M 405.333, 227.556 405.333, 237.556 405.333, 247.556 405.333, 257.556 405.333, 267.556 405.333, 277.556 405.333, 287.556 405.333, 297.556 405.333, 307.556 405.333, 317.556 405.333, 327.556 405.333, 337.556 405.333, 347.556 405.333, 357.556 405.333, 367.556 405.333, 377.556 405.333, 387.556 405.333, 397.556 405.333, 405.333 " />
        </g>
    </g>
    <g id="ViewLayer_TechnicalLines" inkscape:groupmode="lineset" inkscape:label="ViewLayer_TechnicalLines">
        <g inkscape:groupmode="layer" id="strokes" inkscape:label="strokes">
            <path fill="none" stroke-width="3.0" stroke-linecap="butt" stroke-opacity="1.0" stroke="rgb(0, 0, 0)" stroke-linejoin="round" d=" M 369.778, 796.444 369.778, 796.445 370.119, 796.445 371.131, 796.445 372.774, 796.445 374.985, 796.445 377.679, 796.445 380.752, 796.445 384.087, 796.445 387.556, 796.445 391.024, 796.445 394.359, 796.445 397.432, 796.445 400.126, 796.445 402.337, 796.445 403.980, 796.445 404.992, 796.445 405.333, 796.445 405.333, 786.445 405.333, 776.445 405.333, 766.445 405.333, 756.445 405.333, 746.445 405.333, 736.445 405.333, 726.445 405.333, 716.445 405.333, 706.445 405.333, 696.445 405.333, 686.445 405.333, 676.445 405.333, 666.445 405.333, 656.445 405.333, 646.445 405.333, 636.445 405.333, 626.445 405.333, 616.445 405.333, 606.445 405.333, 596.445 405.333, 586.445 405.333, 576.445 405.333, 566.445 405.333, 556.445 405.333, 546.445 405.333, 536.445 405.333, 526.445 405.333, 516.445 405.333, 506.445 405.333, 494.222 " />
            <path fill="none" stroke-width="3.0" stroke-linecap="butt" stroke-opacity="1.0" stroke="rgb(0, 0, 0)" stroke-linejoin="round" d=" M 405.333, 476.445 405.333, 476.444 404.992, 476.444 403.980, 476.444 402.337, 476.444 400.126, 476.444 397.432, 476.444 394.359, 476.444 391.024, 476.444 387.556, 476.444 384.087, 476.444 380.752, 476.444 377.679, 476.444 374.985, 476.444 372.774, 476.444 371.131, 476.444 370.119, 476.444 369.778, 476.444 369.778, 486.444 369.778, 496.444 369.778, 506.444 369.778, 516.444 369.778, 526.444 369.778, 536.444 369.778, 546.444 369.778, 556.444 369.778, 566.444 369.778, 576.444 369.778, 586.444 369.778, 596.444 369.778, 606.444 369.778, 616.444 369.778, 626.444 369.778, 636.444 369.778, 646.444 369.778, 656.444 369.778, 666.444 369.778, 676.444 369.778, 686.444 369.778, 696.444 369.778, 706.444 369.778, 716.444 369.778, 726.444 369.778, 736.444 369.778, 746.444 369.778, 756.444 369.778, 766.444 369.778, 776.444 369.778, 786.444 369.778, 796.444 369.778, 796.444 370.119, 796.444 371.131, 796.444 372.774, 796.444 374.985, 796.444 377.679, 796.444 380.752, 796.444 384.087, 796.444 387.556, 796.444 391.024, 796.444 394.359, 796.444 397.432, 796.444 400.126, 796.444 402.337, 796.444 403.980, 796.444 404.992, 796.444 405.333, 796.444 405.333, 786.444 405.333, 776.444 405.333, 766.444 405.333, 756.444 405.333, 746.444 405.333, 736.444 405.333, 726.444 405.333, 716.444 405.333, 706.444 405.333, 696.444 405.333, 686.444 405.333, 676.444 405.333, 666.444 405.333, 656.444 405.333, 646.444 405.333, 636.444 405.333, 626.444 405.333, 616.444 405.333, 606.444 405.333, 596.444 405.333, 586.444 405.333, 576.444 405.333, 566.444 405.333, 556.444 405.333, 546.444 405.333, 536.444 405.333, 526.444 405.333, 516.444 405.333, 506.444 405.333, 496.444 405.333, 486.444 405.333, 476.445 " />
            <path fill="none" stroke-width="3.0" stroke-linecap="butt" stroke-opacity="1.0" stroke="rgb(0, 0, 0)" stroke-linejoin="round" d=" M 618.667, 796.444 618.667, 796.445 619.008, 796.445 620.020, 796.445 621.663, 796.445 623.874, 796.445 626.568, 796.445 629.641, 796.445 632.976, 796.445 636.445, 796.445 639.913, 796.445 643.248, 796.445 646.321, 796.445 649.015, 796.445 651.226, 796.445 652.869, 796.445 653.881, 796.445 654.222, 796.445 654.222, 786.445 654.222, 776.445 654.222, 766.445 654.222, 756.445 654.222, 746.445 654.222, 736.445 654.222, 726.445 654.222, 716.445 654.222, 706.445 654.222, 696.445 654.222, 686.445 654.222, 676.445 654.222, 666.445 654.222, 656.445 654.222, 646.445 654.222, 636.445 654.222, 626.445 654.222, 616.445 654.222, 606.445 654.222, 596.445 654.222, 586.445 654.222, 576.445 654.222, 566.445 654.222, 556.445 654.222, 546.445 654.222, 536.445 654.222, 526.445 654.222, 516.445 654.222, 506.445 654.222, 496.445 654.222, 486.445 654.222, 476.445 654.222, 476.445 " />
            <path fill="none" stroke-width="3.0" stroke-linecap="butt" stroke-opacity="1.0" stroke="rgb(0, 0, 0)" stroke-linejoin="round" d=" M 618.667, 476.444 618.667, 476.444 618.667, 486.444 618.667, 494.222 618.667, 494.222 618.667, 504.222 618.667, 514.222 618.667, 524.222 618.667, 534.222 618.667, 544.222 618.667, 554.222 618.667, 564.222 618.667, 574.222 618.667, 584.222 618.667, 594.222 618.667, 604.222 618.667, 614.222 618.667, 624.222 618.667, 634.222 618.667, 644.222 618.667, 654.222 618.667, 664.222 618.667, 674.222 618.667, 684.222 618.667, 694.222 618.667, 704.222 618.667, 714.222 618.667, 724.222 618.667, 734.222 618.667, 744.222 618.667, 754.222 618.667, 764.222 618.667, 774.222 618.667, 784.222 618.667, 796.444 618.667, 796.444 619.008, 796.444 620.020, 796.444 621.663, 796.444 623.874, 796.444 626.568, 796.444 629.641, 796.444 632.976, 796.444 636.445, 796.444 639.913, 796.444 643.248, 796.444 646.321, 796.444 649.015, 796.444 651.226, 796.444 652.869, 796.444 653.881, 796.444 654.222, 796.444 654.222, 786.444 654.222, 776.444 654.222, 766.444 654.222, 756.444 654.222, 746.444 654.222, 736.444 654.222, 726.444 654.222, 716.444 654.222, 706.444 654.222, 696.444 654.222, 686.444 654.222, 676.444 654.222, 666.444 654.222, 656.444 654.222, 646.444 654.222, 636.444 654.222, 626.444 654.222, 616.444 654.222, 606.444 654.222, 596.444 654.222, 586.444 654.222, 576.444 654.222, 566.444 654.222, 556.444 654.222, 546.444 654.222, 536.444 654.222, 526.444 654.222, 516.444 654.222, 506.444 654.222, 496.444 654.222, 486.444 654.222, 476.445 " />
            <path fill="none" stroke-width="3.0" stroke-linecap="butt" stroke-opacity="1.0" stroke="rgb(0, 0, 0)" stroke-linejoin="round" d=" M 654.222, 476.445 654.222, 476.444 653.881, 476.444 652.869, 476.444 651.226, 476.444 649.015, 476.444 646.321, 476.444 643.248, 476.444 639.913, 476.444 636.445, 476.444 632.976, 476.444 629.641, 476.444 626.568, 476.444 623.874, 476.444 621.663, 476.444 620.020, 476.444 619.008, 476.444 618.667, 476.444 " />
            <path fill="none" stroke-width="3.0" stroke-linecap="butt" stroke-opacity="1.0" stroke="rgb(0, 0, 0)" stroke-linejoin="round" d=" M 405.333, 494.222 405.333, 494.222 415.333, 494.222 425.333, 494.222 435.333, 494.222 445.333, 494.222 455.333, 494.222 465.333, 494.222 475.333, 494.222 485.333, 494.222 495.333, 494.222 505.333, 494.222 515.333, 494.222 525.333, 494.222 535.333, 494.222 545.333, 494.222 555.333, 494.222 565.333, 494.222 575.333, 494.222 585.333, 494.222 595.333, 494.222 605.333, 494.222 615.333, 494.222 618.667, 494.222 " />
            <path fill="none" stroke-width="3.0" stroke-linecap="butt" stroke-opacity="1.0" stroke="rgb(0, 0, 0)" stroke-linejoin="round" d=" M 618.667, 476.444 618.667, 466.444 618.667, 458.667 608.667, 458.667 598.667, 458.667 588.667, 458.667 578.667, 458.667 568.667, 458.667 558.667, 458.667 548.667, 458.667 538.667, 458.667 528.667, 458.667 518.667, 458.667 508.667, 458.667 498.667, 458.667 488.667, 458.667 478.667, 458.667 468.667, 458.667 458.667, 458.667 448.667, 458.667 438.667, 458.667 428.667, 458.667 418.667, 458.667 408.667, 458.667 405.333, 458.667 405.333, 458.667 405.333, 468.667 405.333, 476.445 " />
            <path fill="none" stroke-width="3.0" stroke-linecap="butt" stroke-opacity="1.0" stroke="rgb(0, 0, 0)" stroke-linejoin="round" d=" M 405.333, 494.222 405.333, 494.222 415.333, 494.222 425.333, 494.222 435.333, 494.222 445.333, 494.222 455.333, 494.222 465.333, 494.222 475.333, 494.222 485.333, 494.222 495.333, 494.222 505.333, 494.222 515.333, 494.222 525.333, 494.222 535.333, 494.222 545.333, 494.222 555.333, 494.222 565.333, 494.222 575.333, 494.222 585.333, 494.222 595.333, 494.222 605.333, 494.222 615.333, 494.222 618.667, 494.222 " />
            <path fill="none" stroke-width="3.0" stroke-linecap="butt" stroke-opacity="1.0" stroke="rgb(0, 0, 0)" stroke-linejoin="round" d=" M 405.333, 405.333 405.333, 395.333 405.333, 385.333 405.333, 375.333 405.333, 365.333 405.333, 355.333 405.333, 345.333 405.333, 335.333 405.333, 325.333 405.333, 315.333 405.333, 305.333 405.333, 295.333 405.333, 285.333 405.333, 275.333 405.333, 265.333 405.333, 255.333 405.333, 245.333 405.333, 235.333 405.333, 227.556 405.333, 227.556 395.333, 227.556 385.333, 227.556 375.333, 227.556 369.778, 227.556 369.778, 237.556 369.778, 247.556 369.778, 257.556 369.778, 267.556 369.778, 277.556 369.778, 287.556 369.778, 297.556 369.778, 307.556 369.778, 317.556 369.778, 327.556 369.778, 337.556 369.778, 347.556 369.778, 357.556 369.778, 367.556 369.778, 377.556 369.778, 387.556 369.778, 397.556 369.778, 405.333 369.778, 405.333 379.778, 405.333 389.778, 405.333 399.778, 405.333 405.333, 405.333 405.333, 405.333 " />
            <path fill="none" stroke-width="3.0" stroke-linecap="butt" stroke-opacity="1.0" stroke="rgb(0, 0, 0)" stroke-linejoin="round" d=" M 405.333, 227.556 405.333, 237.556 405.333, 247.556 405.333, 257.556 405.333, 267.556 405.333, 277.556 405.333, 287.556 405.333, 297.556 405.333, 307.556 405.333, 317.556 405.333, 327.556 405.333, 337.556 405.333, 347.556 405.333, 357.556 405.333, 367.556 405.333, 377.556 405.333, 387.556 405.333, 397.556 405.333, 405.333 " />
        </g>
    </g>
    <g id="ViewLayer_TechnicalLines.001" inkscape:groupmode="lineset" inkscape:label="ViewLayer_TechnicalLines.001">
        <g inkscape:groupmode="layer" id="strokes" inkscape:label="strokes">
            <path fill="none" stroke-width="1.5" stroke-linecap="round" stroke-opacity="1.0" stroke="rgb(0, 0, 0)" stroke-linejoin="round" d=" M 369.778, 796.444 369.778, 796.445 370.119, 796.445 371.131, 796.445 372.774, 796.445 374.985, 796.445 377.679, 796.445 380.752, 796.445 384.087, 796.445 387.556, 796.445 391.024, 796.445 394.359, 796.445 397.432, 796.445 400.126, 796.445 402.337, 796.445 403.980, 796.445 404.992, 796.445 405.333, 796.445 405.333, 786.445 405.333, 776.445 405.333, 766.445 405.333, 756.445 405.333, 746.445 405.333, 736.445 405.333, 726.445 405.333, 716.445 405.333, 706.445 405.333, 696.445 405.333, 686.445 405.333, 676.445 405.333, 666.445 405.333, 656.445 405.333, 646.445 405.333, 636.445 405.333, 626.445 405.333, 616.445 405.333, 606.445 405.333, 596.445 405.333, 586.445 405.333, 576.445 405.333, 566.445 405.333, 556.445 405.333, 546.445 405.333, 536.445 405.333, 526.445 405.333, 516.445 405.333, 506.445 405.333, 494.222 " />
            <path fill="none" stroke-width="1.5" stroke-linecap="round" stroke-opacity="1.0" stroke="rgb(0, 0, 0)" stroke-linejoin="round" d=" M 405.333, 476.445 405.333, 476.444 404.992, 476.444 403.980, 476.444 402.337, 476.444 400.126, 476.444 397.432, 476.444 394.359, 476.444 391.024, 476.444 387.556, 476.444 384.087, 476.444 380.752, 476.444 377.679, 476.444 374.985, 476.444 372.774, 476.444 371.131, 476.444 370.119, 476.444 369.778, 476.444 369.778, 486.444 369.778, 496.444 369.778, 506.444 369.778, 516.444 369.778, 526.444 369.778, 536.444 369.778, 546.444 369.778, 556.444 369.778, 566.444 369.778, 576.444 369.778, 586.444 369.778, 596.444 369.778, 606.444 369.778, 616.444 369.778, 626.444 369.778, 636.444 369.778, 646.444 369.778, 656.444 369.778, 666.444 369.778, 676.444 369.778, 686.444 369.778, 696.444 369.778, 706.444 369.778, 716.444 369.778, 726.444 369.778, 736.444 369.778, 746.444 369.778, 756.444 369.778, 766.444 369.778, 776.444 369.778, 786.444 369.778, 796.444 369.778, 796.444 370.119, 796.444 371.131, 796.444 372.774, 796.444 374.985, 796.444 377.679, 796.444 380.752, 796.444 384.087, 796.444 387.556, 796.444 391.024, 796.444 394.359, 796.444 397.432, 796.444 400.126, 796.444 402.337, 796.444 403.980, 796.444 404.992, 796.444 405.333, 796.444 405.333, 786.444 405.333, 776.444 405.333, 766.444 405.333, 756.444 405.333, 746.444 405.333, 736.444 405.333, 726.444 405.333, 716.444 405.333, 706.444 405.333, 696.444 405.333, 686.444 405.333, 676.444 405.333, 666.444 405.333, 656.444 405.333, 646.444 405.333, 636.444 405.333, 626.444 405.333, 616.444 405.333, 606.444 405.333, 596.444 405.333, 586.444 405.333, 576.444 405.333, 566.444 405.333, 556.444 405.333, 546.444 405.333, 536.444 405.333, 526.444 405.333, 516.444 405.333, 506.444 405.333, 496.444 405.333, 486.444 405.333, 476.445 " />
            <path fill="none" stroke-width="1.5" stroke-linecap="round" stroke-opacity="1.0" stroke="rgb(0, 0, 0)" stroke-linejoin="round" d=" M 618.667, 796.444 618.667, 796.445 619.008, 796.445 620.020, 796.445 621.663, 796.445 623.874, 796.445 626.568, 796.445 629.641, 796.445 632.976, 796.445 636.445, 796.445 639.913, 796.445 643.248, 796.445 646.321, 796.445 649.015, 796.445 651.226, 796.445 652.869, 796.445 653.881, 796.445 654.222, 796.445 654.222, 786.445 654.222, 776.445 654.222, 766.445 654.222, 756.445 654.222, 746.445 654.222, 736.445 654.222, 726.445 654.222, 716.445 654.222, 706.445 654.222, 696.445 654.222, 686.445 654.222, 676.445 654.222, 666.445 654.222, 656.445 654.222, 646.445 654.222, 636.445 654.222, 626.445 654.222, 616.445 654.222, 606.445 654.222, 596.445 654.222, 586.445 654.222, 576.445 654.222, 566.445 654.222, 556.445 654.222, 546.445 654.222, 536.445 654.222, 526.445 654.222, 516.445 654.222, 506.445 654.222, 496.445 654.222, 486.445 654.222, 476.445 654.222, 476.445 " />
            <path fill="none" stroke-width="1.5" stroke-linecap="round" stroke-opacity="1.0" stroke="rgb(0, 0, 0)" stroke-linejoin="round" d=" M 618.667, 476.444 618.667, 476.444 618.667, 486.444 618.667, 494.222 618.667, 494.222 618.667, 504.222 618.667, 514.222 618.667, 524.222 618.667, 534.222 618.667, 544.222 618.667, 554.222 618.667, 564.222 618.667, 574.222 618.667, 584.222 618.667, 594.222 618.667, 604.222 618.667, 614.222 618.667, 624.222 618.667, 634.222 618.667, 644.222 618.667, 654.222 618.667, 664.222 618.667, 674.222 618.667, 684.222 618.667, 694.222 618.667, 704.222 618.667, 714.222 618.667, 724.222 618.667, 734.222 618.667, 744.222 618.667, 754.222 618.667, 764.222 618.667, 774.222 618.667, 784.222 618.667, 796.444 618.667, 796.444 619.008, 796.444 620.020, 796.444 621.663, 796.444 623.874, 796.444 626.568, 796.444 629.641, 796.444 632.976, 796.444 636.445, 796.444 639.913, 796.444 643.248, 796.444 646.321, 796.444 649.015, 796.444 651.226, 796.444 652.869, 796.444 653.881, 796.444 654.222, 796.444 654.222, 786.444 654.222, 776.444 654.222, 766.444 654.222, 756.444 654.222, 746.444 654.222, 736.444 654.222, 726.444 654.222, 716.444 654.222, 706.444 654.222, 696.444 654.222, 686.444 654.222, 676.444 654.222, 666.444 654.222, 656.444 654.222, 646.444 654.222, 636.444 654.222, 626.444 654.222, 616.444 654.222, 606.444 654.222, 596.444 654.222, 586.444 654.222, 576.444 654.222, 566.444 654.222, 556.444 654.222, 546.444 654.222, 536.444 654.222, 526.444 654.222, 516.444 654.222, 506.444 654.222, 496.444 654.222, 486.444 654.222, 476.445 " />
            <path fill="none" stroke-width="1.5" stroke-linecap="round" stroke-opacity="1.0" stroke="rgb(0, 0, 0)" stroke-linejoin="round" d=" M 654.222, 476.445 654.222, 476.444 653.881, 476.444 652.869, 476.444 651.226, 476.444 649.015, 476.444 646.321, 476.444 643.248, 476.444 639.913, 476.444 636.445, 476.444 632.976, 476.444 629.641, 476.444 626.568, 476.444 623.874, 476.444 621.663, 476.444 620.020, 476.444 619.008, 476.444 618.667, 476.444 " />
            <path fill="none" stroke-width="1.5" stroke-linecap="round" stroke-opacity="1.0" stroke="rgb(0, 0, 0)" stroke-linejoin="round" d=" M 405.333, 494.222 405.333, 494.222 415.333, 494.222 425.333, 494.222 435.333, 494.222 445.333, 494.222 455.333, 494.222 465.333, 494.222 475.333, 494.222 485.333, 494.222 495.333, 494.222 505.333, 494.222 515.333, 494.222 525.333, 494.222 535.333, 494.222 545.333, 494.222 555.333, 494.222 565.333, 494.222 575.333, 494.222 585.333, 494.222 595.333, 494.222 605.333, 494.222 615.333, 494.222 618.667, 494.222 " />
            <path fill="none" stroke-width="1.5" stroke-linecap="round" stroke-opacity="1.0" stroke="rgb(0, 0, 0)" stroke-linejoin="round" d=" M 618.667, 476.444 618.667, 466.444 618.667, 458.667 608.667, 458.667 598.667, 458.667 588.667, 458.667 578.667, 458.667 568.667, 458.667 558.667, 458.667 548.667, 458.667 538.667, 458.667 528.667, 458.667 518.667, 458.667 508.667, 458.667 498.667, 458.667 488.667, 458.667 478.667, 458.667 468.667, 458.667 458.667, 458.667 448.667, 458.667 438.667, 458.667 428.667, 458.667 418.667, 458.667 408.667, 458.667 405.333, 458.667 405.333, 458.667 405.333, 468.667 405.333, 476.445 " />
            <path fill="none" stroke-width="1.5" stroke-linecap="round" stroke-opacity="1.0" stroke="rgb(0, 0, 0)" stroke-linejoin="round" d=" M 405.333, 494.222 405.333, 494.222 415.333, 494.222 425.333, 494.222 435.333, 494.222 445.333, 494.222 455.333, 494.222 465.333, 494.222 475.333, 494.222 485.333, 494.222 495.333, 494.222 505.333, 494.222 515.333, 494.222 525.333, 494.222 535.333, 494.222 545.333, 494.222 555.333, 494.222 565.333, 494.222 575.333, 494.222 585.333, 494.222 595.333, 494.222 605.333, 494.222 615.333, 494.222 618.667, 494.222 " />
            <path fill="none" stroke-width="1.5" stroke-linecap="round" stroke-opacity="1.0" stroke="rgb(0, 0, 0)" stroke-linejoin="round" d=" M 405.333, 405.333 405.333, 395.333 405.333, 385.333 405.333, 375.333 405.333, 365.333 405.333, 355.333 405.333, 345.333 405.333, 335.333 405.333, 325.333 405.333, 315.333 405.333, 305.333 405.333, 295.333 405.333, 285.333 405.333, 275.333 405.333, 265.333 405.333, 255.333 405.333, 245.333 405.333, 235.333 405.333, 227.556 405.333, 227.556 395.333, 227.556 385.333, 227.556 375.333, 227.556 369.778, 227.556 369.778, 237.556 369.778, 247.556 369.778, 257.556 369.778, 267.556 369.778, 277.556 369.778, 287.556 369.778, 297.556 369.778, 307.556 369.778, 317.556 369.778, 327.556 369.778, 337.556 369.778, 347.556 369.778, 357.556 369.778, 367.556 369.778, 377.556 369.778, 387.556 369.778, 397.556 369.778, 405.333 369.778, 405.333 379.778, 405.333 389.778, 405.333 399.778, 405.333 405.333, 405.333 405.333, 405.333 " />
            <path fill="none" stroke-width="1.5" stroke-linecap="round" stroke-opacity="1.0" stroke="rgb(0, 0, 0)" stroke-linejoin="round" d=" M 405.333, 227.556 405.333, 237.556 405.333, 247.556 405.333, 257.556 405.333, 267.556 405.333, 277.556 405.333, 287.556 405.333, 297.556 405.333, 307.556 405.333, 317.556 405.333, 327.556 405.333, 337.556 405.333, 347.556 405.333, 357.556 405.333, 367.556 405.333, 377.556 405.333, 387.556 405.333, 397.556 405.333, 405.333 " />
        </g>
    </g>
    <g id="ViewLayer_TechnicalLines.002" inkscape:groupmode="lineset" inkscape:label="ViewLayer_TechnicalLines.002">
        <g inkscape:groupmode="layer" id="strokes" inkscape:label="strokes">
            <path fill="none" stroke-width="1.5" stroke-linecap="round" stroke-opacity="1.0" stroke="rgb(0, 0, 0)" stroke-linejoin="round" d=" M 369.778, 796.444 369.778, 796.445 370.119, 796.445 371.131, 796.445 372.774, 796.445 374.985, 796.445 377.679, 796.445 380.752, 796.445 384.087, 796.445 387.556, 796.445 391.024, 796.445 394.359, 796.445 397.432, 796.445 400.126, 796.445 402.337, 796.445 403.980, 796.445 404.992, 796.445 405.333, 796.445 405.333, 786.445 405.333, 776.445 405.333, 766.445 405.333, 756.445 405.333, 746.445 405.333, 736.445 405.333, 726.445 405.333, 716.445 405.333, 706.445 405.333, 696.445 405.333, 686.445 405.333, 676.445 405.333, 666.445 405.333, 656.445 405.333, 646.445 405.333, 636.445 405.333, 626.445 405.333, 616.445 405.333, 606.445 405.333, 596.445 405.333, 586.445 405.333, 576.445 405.333, 566.445 405.333, 556.445 405.333, 546.445 405.333, 536.445 405.333, 526.445 405.333, 516.445 405.333, 506.445 405.333, 494.222 " />
            <path fill="none" stroke-width="1.5" stroke-linecap="round" stroke-opacity="1.0" stroke="rgb(0, 0, 0)" stroke-linejoin="round" d=" M 405.333, 476.445 405.333, 476.444 404.992, 476.444 403.980, 476.444 402.337, 476.444 400.126, 476.444 397.432, 476.444 394.359, 476.444 391.024, 476.444 387.556, 476.444 384.087, 476.444 380.752, 476.444 377.679, 476.444 374.985, 476.444 372.774, 476.444 371.131, 476.444 370.119, 476.444 369.778, 476.444 369.778, 486.444 369.778, 496.444 369.778, 506.444 369.778, 516.444 369.778, 526.444 369.778, 536.444 369.778, 546.444 369.778, 556.444 369.778, 566.444 369.778, 576.444 369.778, 586.444 369.778, 596.444 369.778, 606.444 369.778, 616.444 369.778, 626.444 369.778, 636.444 369.778, 646.444 369.778, 656.444 369.778, 666.444 369.778, 676.444 369.778, 686.444 369.778, 696.444 369.778, 706.444 369.778, 716.444 369.778, 726.444 369.778, 736.444 369.778, 746.444 369.778, 756.444 369.778, 766.444 369.778, 776.444 369.778, 786.444 369.778, 796.444 369.778, 796.444 370.119, 796.444 371.131, 796.444 372.774, 796.444 374.985, 796.444 377.679, 796.444 380.752, 796.444 384.087, 796.444 387.556, 796.444 391.024, 796.444 394.359, 796.444 397.432, 796.444 400.126, 796.444 402.337, 796.444 403.980, 796.444 404.992, 796.444 405.333, 796.444 405.333, 786.444 405.333, 776.444 405.333, 766.444 405.333, 756.444 405.333, 746.444 405.333, 736.444 405.333, 726.444 405.333, 716.444 405.333, 706.444 405.333, 696.444 405.333, 686.444 405.333, 676.444 405.333, 666.444 405.333, 656.444 405.333, 646.444 405.333, 636.444 405.333, 626.444 405.333, 616.444 405.333, 606.444 405.333, 596.444 405.333, 586.444 405.333, 576.444 405.333, 566.444 405.333, 556.444 405.333, 546.444 405.333, 536.444 405.333, 526.444 405.333, 516.444 405.333, 506.444 405.333, 496.444 405.333, 486.444 405.333, 476.445 " />
            <path fill="none" stroke-width="1.5" stroke-linecap="round" stroke-opacity="1.0" stroke="rgb(0, 0, 0)" stroke-linejoin="round" d=" M 618.667, 796.444 618.667, 796.445 619.008, 796.445 620.020, 796.445 621.663, 796.445 623.874, 796.445 626.568, 796.445 629.641, 796.445 632.976, 796.445 636.445, 796.445 639.913, 796.445 643.248, 796.445 646.321, 796.445 649.015, 796.445 651.226, 796.445 652.869, 796.445 653.881, 796.445 654.222, 796.445 654.222, 786.445 654.222, 776.445 654.222, 766.445 654.222, 756.445 654.222, 746.445 654.222, 736.445 654.222, 726.445 654.222, 716.445 654.222, 706.445 654.222, 696.445 654.222, 686.445 654.222, 676.445 654.222, 666.445 654.222, 656.445 654.222, 646.445 654.222, 636.445 654.222, 626.445 654.222, 616.445 654.222, 606.445 654.222, 596.445 654.222, 586.445 654.222, 576.445 654.222, 566.445 654.222, 556.445 654.222, 546.445 654.222, 536.445 654.222, 526.445 654.222, 516.445 654.222, 506.445 654.222, 496.445 654.222, 486.445 654.222, 476.445 654.222, 476.445 " />
            <path fill="none" stroke-width="1.5" stroke-linecap="round" stroke-opacity="1.0" stroke="rgb(0, 0, 0)" stroke-linejoin="round" d=" M 618.667, 476.444 618.667, 476.444 618.667, 486.444 618.667, 494.222 618.667, 494.222 618.667, 504.222 618.667, 514.222 618.667, 524.222 618.667, 534.222 618.667, 544.222 618.667, 554.222 618.667, 564.222 618.667, 574.222 618.667, 584.222 618.667, 594.222 618.667, 604.222 618.667, 614.222 618.667, 624.222 618.667, 634.222 618.667, 644.222 618.667, 654.222 618.667, 664.222 618.667, 674.222 618.667, 684.222 618.667, 694.222 618.667, 704.222 618.667, 714.222 618.667, 724.222 618.667, 734.222 618.667, 744.222 618.667, 754.222 618.667, 764.222 618.667, 774.222 618.667, 784.222 618.667, 796.444 618.667, 796.444 619.008, 796.444 620.020, 796.444 621.663, 796.444 623.874, 796.444 626.568, 796.444 629.641, 796.444 632.976, 796.444 636.445, 796.444 639.913, 796.444 643.248, 796.444 646.321, 796.444 649.015, 796.444 651.226, 796.444 652.869, 796.444 653.881, 796.444 654.222, 796.444 654.222, 786.444 654.222, 776.444 654.222, 766.444 654.222, 756.444 654.222, 746.444 654.222, 736.444 654.222, 726.444 654.222, 716.444 654.222, 706.444 654.222, 696.444 654.222, 686.444 654.222, 676.444 654.222, 666.444 654.222, 656.444 654.222, 646.444 654.222, 636.444 654.222, 626.444 654.222, 616.444 654.222, 606.444 654.222, 596.444 654.222, 586.444 654.222, 576.444 654.222, 566.444 654.222, 556.444 654.222, 546.444 654.222, 536.444 654.222, 526.444 654.222, 516.444 654.222, 506.444 654.222, 496.444 654.222, 486.444 654.222, 476.445 " />
            <path fill="none" stroke-width="1.5" stroke-linecap="round" stroke-opacity="1.0" stroke="rgb(0, 0, 0)" stroke-linejoin="round" d=" M 654.222, 476.445 654.222, 476.444 653.881, 476.444 652.869, 476.444 651.226, 476.444 649.015, 476.444 646.321, 476.444 643.248, 476.444 639.913, 476.444 636.445, 476.444 632.976, 476.444 629.641, 476.444 626.568, 476.444 623.874, 476.444 621.663, 476.444 620.020, 476.444 619.008, 476.444 618.667, 476.444 " />
            <path fill="none" stroke-width="1.5" stroke-linecap="round" stroke-opacity="1.0" stroke="rgb(0, 0, 0)" stroke-linejoin="round" d=" M 405.333, 494.222 405.333, 494.222 415.333, 494.222 425.333, 494.222 435.333, 494.222 445.333, 494.222 455.333, 494.222 465.333, 494.222 475.333, 494.222 485.333, 494.222 495.333, 494.222 505.333, 494.222 515.333, 494.222 525.333, 494.222 535.333, 494.222 545.333, 494.222 555.333, 494.222 565.333, 494.222 575.333, 494.222 585.333, 494.222 595.333, 494.222 605.333, 494.222 615.333, 494.222 618.667, 494.222 " />
            <path fill="none" stroke-width="1.5" stroke-linecap="round" stroke-opacity="1.0" stroke="rgb(0, 0, 0)" stroke-linejoin="round" d=" M 618.667, 476.444 618.667, 466.444 618.667, 458.667 608.667, 458.667 598.667, 458.667 588.667, 458.667 578.667, 458.667 568.667, 458.667 558.667, 458.667 548.667, 458.667 538.667, 458.667 528.667, 458.667 518.667, 458.667 508.667, 458.667 498.667, 458.667 488.667, 458.667 478.667, 458.667 468.667, 458.667 458.667, 458.667 448.667, 458.667 438.667, 458.667 428.667, 458.667 418.667, 458.667 408.667, 458.667 405.333, 458.667 405.333, 458.667 405.333, 468.667 405.333, 476.445 " />
            <path fill="none" stroke-width="1.5" stroke-linecap="round" stroke-opacity="1.0" stroke="rgb(0, 0, 0)" stroke-linejoin="round" d=" M 405.333, 494.222 405.333, 494.222 415.333, 494.222 425.333, 494.222 435.333, 494.222 445.333, 494.222 455.333, 494.222 465.333, 494.222 475.333, 494.222 485.333, 494.222 495.333, 494.222 505.333, 494.222 515.333, 494.222 525.333, 494.222 535.333, 494.222 545.333, 494.222 555.333, 494.222 565.333, 494.222 575.333, 494.222 585.333, 494.222 595.333, 494.222 605.333, 494.222 615.333, 494.222 618.667, 494.222 " />
            <path fill="none" stroke-width="1.5" stroke-linecap="round" stroke-opacity="1.0" stroke="rgb(0, 0, 0)" stroke-linejoin="round" d=" M 405.333, 405.333 405.333, 395.333 405.333, 385.333 405.333, 375.333 405.333, 365.333 405.333, 355.333 405.333, 345.333 405.333, 335.333 405.333, 325.333 405.333, 315.333 405.333, 305.333 405.333, 295.333 405.333, 285.333 405.333, 275.333 405.333, 265.333 405.333, 255.333 405.333, 245.333 405.333, 235.333 405.333, 227.556 405.333, 227.556 395.333, 227.556 385.333, 227.556 375.333, 227.556 369.778, 227.556 369.778, 237.556 369.778, 247.556 369.778, 257.556 369.778, 267.556 369.778, 277.556 369.778, 287.556 369.778, 297.556 369.778, 307.556 369.778, 317.556 369.778, 327.556 369.778, 337.556 369.778, 347.556 369.778, 357.556 369.778, 367.556 369.778, 377.556 369.778, 387.556 369.778, 397.556 369.778, 405.333 369.778, 405.333 379.778, 405.333 389.778, 405.333 399.778, 405.333 405.333, 405.333 405.333, 405.333 " />
            <path fill="none" stroke-width="1.5" stroke-linecap="round" stroke-opacity="1.0" stroke="rgb(0, 0, 0)" stroke-linejoin="round" d=" M 405.333, 227.556 405.333, 237.556 405.333, 247.556 405.333, 257.556 405.333, 267.556 405.333, 277.556 405.333, 287.556 405.333, 297.556 405.333, 307.556 405.333, 317.556 405.333, 327.556 405.333, 337.556 405.333, 347.556 405.333, 357.556 405.333, 367.556 405.333, 377.556 405.333, 387.556 405.333, 397.556 405.333, 405.333 " />
        </g>
    </g>
    <g id="ViewLayer_TechnicalLines.003" inkscape:groupmode="lineset" inkscape:label="ViewLayer_TechnicalLines.003">
        <g inkscape:groupmode="layer" id="strokes" inkscape:label="strokes">
            <path fill="none" stroke-width="1.5" stroke-linecap="round" stroke-opacity="1.0" stroke="rgb(0, 0, 0)" stroke-linejoin="round" d=" M 369.778, 796.444 369.778, 796.445 370.119, 796.445 371.131, 796.445 372.774, 796.445 374.985, 796.445 377.679, 796.445 380.752, 796.445 384.087, 796.445 387.556, 796.445 391.024, 796.445 394.359, 796.445 397.432, 796.445 400.126, 796.445 402.337, 796.445 403.980, 796.445 404.992, 796.445 405.333, 796.445 405.333, 786.445 405.333, 776.445 405.333, 766.445 405.333, 756.445 405.333, 746.445 405.333, 736.445 405.333, 726.445 405.333, 716.445 405.333, 706.445 405.333, 696.445 405.333, 686.445 405.333, 676.445 405.333, 666.445 405.333, 656.445 405.333, 646.445 405.333, 636.445 405.333, 626.445 405.333, 616.445 405.333, 606.445 405.333, 596.445 405.333, 586.445 405.333, 576.445 405.333, 566.445 405.333, 556.445 405.333, 546.445 405.333, 536.445 405.333, 526.445 405.333, 516.445 405.333, 506.445 405.333, 494.222 " />
            <path fill="none" stroke-width="1.5" stroke-linecap="round" stroke-opacity="1.0" stroke="rgb(0, 0, 0)" stroke-linejoin="round" d=" M 405.333, 476.445 405.333, 476.444 404.992, 476.444 403.980, 476.444 402.337, 476.444 400.126, 476.444 397.432, 476.444 394.359, 476.444 391.024, 476.444 387.556, 476.444 384.087, 476.444 380.752, 476.444 377.679, 476.444 374.985, 476.444 372.774, 476.444 371.131, 476.444 370.119, 476.444 369.778, 476.444 369.778, 486.444 369.778, 496.444 369.778, 506.444 369.778, 516.444 369.778, 526.444 369.778, 536.444 369.778, 546.444 369.778, 556.444 369.778, 566.444 369.778, 576.444 369.778, 586.444 369.778, 596.444 369.778, 606.444 369.778, 616.444 369.778, 626.444 369.778, 636.444 369.778, 646.444 369.778, 656.444 369.778, 666.444 369.778, 676.444 369.778, 686.444 369.778, 696.444 369.778, 706.444 369.778, 716.444 369.778, 726.444 369.778, 736.444 369.778, 746.444 369.778, 756.444 369.778, 766.444 369.778, 776.444 369.778, 786.444 369.778, 796.444 369.778, 796.444 370.119, 796.444 371.131, 796.444 372.774, 796.444 374.985, 796.444 377.679, 796.444 380.752, 796.444 384.087, 796.444 387.556, 796.444 391.024, 796.444 394.359, 796.444 397.432, 796.444 400.126, 796.444 402.337, 796.444 403.980, 796.444 404.992, 796.444 405.333, 796.444 405.333, 786.444 405.333, 776.444 405.333, 766.444 405.333, 756.444 405.333, 746.444 405.333, 736.444 405.333, 726.444 405.333, 716.444 405.333, 706.444 405.333, 696.444 405.333, 686.444 405.333, 676.444 405.333, 666.444 405.333, 656.444 405.333, 646.444 405.333, 636.444 405.333, 626.444 405.333, 616.444 405.333, 606.444 405.333, 596.444 405.333, 586.444 405.333, 576.444 405.333, 566.444 405.333, 556.444 405.333, 546.444 405.333, 536.444 405.333, 526.444 405.333, 516.444 405.333, 506.444 405.333, 496.444 405.333, 486.444 405.333, 476.445 " />
            <path fill="none" stroke-width="1.5" stroke-linecap="round" stroke-opacity="1.0" stroke="rgb(0, 0, 0)" stroke-linejoin="round" d=" M 618.667, 796.444 618.667, 796.445 619.008, 796.445 620.020, 796.445 621.663, 796.445 623.874, 796.445 626.568, 796.445 629.641, 796.445 632.976, 796.445 636.445, 796.445 639.913, 796.445 643.248, 796.445 646.321, 796.445 649.015, 796.445 651.226, 796.445 652.869, 796.445 653.881, 796.445 654.222, 796.445 654.222, 786.445 654.222, 776.445 654.222, 766.445 654.222, 756.445 654.222, 746.445 654.222, 736.445 654.222, 726.445 654.222, 716.445 654.222, 706.445 654.222, 696.445 654.222, 686.445 654.222, 676.445 654.222, 666.445 654.222, 656.445 654.222, 646.445 654.222, 636.445 654.222, 626.445 654.222, 616.445 654.222, 606.445 654.222, 596.445 654.222, 586.445 654.222, 576.445 654.222, 566.445 654.222, 556.445 654.222, 546.445 654.222, 536.445 654.222, 526.445 654.222, 516.445 654.222, 506.445 654.222, 496.445 654.222, 486.445 654.222, 476.445 654.222, 476.445 " />
            <path fill="none" stroke-width="1.5" stroke-linecap="round" stroke-opacity="1.0" stroke="rgb(0, 0, 0)" stroke-linejoin="round" d=" M 618.667, 476.444 618.667, 476.444 618.667, 486.444 618.667, 494.222 618.667, 494.222 618.667, 504.222 618.667, 514.222 618.667, 524.222 618.667, 534.222 618.667, 544.222 618.667, 554.222 618.667, 564.222 618.667, 574.222 618.667, 584.222 618.667, 594.222 618.667, 604.222 618.667, 614.222 618.667, 624.222 618.667, 634.222 618.667, 644.222 618.667, 654.222 618.667, 664.222 618.667, 674.222 618.667, 684.222 618.667, 694.222 618.667, 704.222 618.667, 714.222 618.667, 724.222 618.667, 734.222 618.667, 744.222 618.667, 754.222 618.667, 764.222 618.667, 774.222 618.667, 784.222 618.667, 796.444 618.667, 796.444 619.008, 796.444 620.020, 796.444 621.663, 796.444 623.874, 796.444 626.568, 796.444 629.641, 796.444 632.976, 796.444 636.445, 796.444 639.913, 796.444 643.248, 796.444 646.321, 796.444 649.015, 796.444 651.226, 796.444 652.869, 796.444 653.881, 796.444 654.222, 796.444 654.222, 786.444 654.222, 776.444 654.222, 766.444 654.222, 756.444 654.222, 746.444 654.222, 736.444 654.222, 726.444 654.222, 716.444 654.222, 706.444 654.222, 696.444 654.222, 686.444 654.222, 676.444 654.222, 666.444 654.222, 656.444 654.222, 646.444 654.222, 636.444 654.222, 626.444 654.222, 616.444 654.222, 606.444 654.222, 596.444 654.222, 586.444 654.222, 576.444 654.222, 566.444 654.222, 556.444 654.222, 546.444 654.222, 536.444 654.222, 526.444 654.222, 516.444 654.222, 506.444 654.222, 496.444 654.222, 486.444 654.222, 476.445 " />
            <path fill="none" stroke-width="1.5" stroke-linecap="round" stroke-opacity="1.0" stroke="rgb(0, 0, 0)" stroke-linejoin="round" d=" M 654.222, 476.445 654.222, 476.444 653.881, 476.444 652.869, 476.444 651.226, 476.444 649.015, 476.444 646.321, 476.444 643.248, 476.444 639.913, 476.444 636.445, 476.444 632.976, 476.444 629.641, 476.444 626.568, 476.444 623.874, 476.444 621.663, 476.444 620.020, 476.444 619.008, 476.444 618.667, 476.444 " />
            <path fill="none" stroke-width="1.5" stroke-linecap="round" stroke-opacity="1.0" stroke="rgb(0, 0, 0)" stroke-linejoin="round" d=" M 405.333, 494.222 405.333, 494.222 415.333, 494.222 425.333, 494.222 435.333, 494.222 445.333, 494.222 455.333, 494.222 465.333, 494.222 475.333, 494.222 485.333, 494.222 495.333, 494.222 505.333, 494.222 515.333, 494.222 525.333, 494.222 535.333, 494.222 545.333, 494.222 555.333, 494.222 565.333, 494.222 575.333, 494.222 585.333, 494.222 595.333, 494.222 605.333, 494.222 615.333, 494.222 618.667, 494.222 " />
            <path fill="none" stroke-width="1.5" stroke-linecap="round" stroke-opacity="1.0" stroke="rgb(0, 0, 0)" stroke-linejoin="round" d=" M 618.667, 476.444 618.667, 466.444 618.667, 458.667 608.667, 458.667 598.667, 458.667 588.667, 458.667 578.667, 458.667 568.667, 458.667 558.667, 458.667 548.667, 458.667 538.667, 458.667 528.667, 458.667 518.667, 458.667 508.667, 458.667 498.667, 458.667 488.667, 458.667 478.667, 458.667 468.667, 458.667 458.667, 458.667 448.667, 458.667 438.667, 458.667 428.667, 458.667 418.667, 458.667 408.667, 458.667 405.333, 458.667 405.333, 458.667 405.333, 468.667 405.333, 476.445 " />
            <path fill="none" stroke-width="1.5" stroke-linecap="round" stroke-opacity="1.0" stroke="rgb(0, 0, 0)" stroke-linejoin="round" d=" M 405.333, 494.222 405.333, 494.222 415.333, 494.222 425.333, 494.222 435.333, 494.222 445.333, 494.222 455.333, 494.222 465.333, 494.222 475.333, 494.222 485.333, 494.222 495.333, 494.222 505.333, 494.222 515.333, 494.222 525.333, 494.222 535.333, 494.222 545.333, 494.222 555.333, 494.222 565.333, 494.222 575.333, 494.222 585.333, 494.222 595.333, 494.222 605.333, 494.222 615.333, 494.222 618.667, 494.222 " />
            <path fill="none" stroke-width="1.5" stroke-linecap="round" stroke-opacity="1.0" stroke="rgb(0, 0, 0)" stroke-linejoin="round" d=" M 405.333, 405.333 405.333, 395.333 405.333, 385.333 405.333, 375.333 405.333, 365.333 405.333, 355.333 405.333, 345.333 405.333, 335.333 405.333, 325.333 405.333, 315.333 405.333, 305.333 405.333, 295.333 405.333, 285.333 405.333, 275.333 405.333, 265.333 405.333, 255.333 405.333, 245.333 405.333, 235.333 405.333, 227.556 405.333, 227.556 395.333, 227.556 385.333, 227.556 375.333, 227.556 369.778, 227.556 369.778, 237.556 369.778, 247.556 369.778, 257.556 369.778, 267.556 369.778, 277.556 369.778, 287.556 369.778, 297.556 369.778, 307.556 369.778, 317.556 369.778, 327.556 369.778, 337.556 369.778, 347.556 369.778, 357.556 369.778, 367.556 369.778, 377.556 369.778, 387.556 369.778, 397.556 369.778, 405.333 369.778, 405.333 379.778, 405.333 389.778, 405.333 399.778, 405.333 405.333, 405.333 405.333, 405.333 " />
            <path fill="none" stroke-width="1.5" stroke-linecap="round" stroke-opacity="1.0" stroke="rgb(0, 0, 0)" stroke-linejoin="round" d=" M 405.333, 227.556 405.333, 237.556 405.333, 247.556 405.333, 257.556 405.333, 267.556 405.333, 277.556 405.333, 287.556 405.333, 297.556 405.333, 307.556 405.333, 317.556 405.333, 327.556 405.333, 337.556 405.333, 347.556 405.333, 357.556 405.333, 367.556 405.333, 377.556 405.333, 387.556 405.333, 397.556 405.333, 405.333 " />
        </g>
    </g>
    <g id="ViewLayer_TechnicalLines.004" xmlns:inkscape="http://www.inkscape.org/namespaces/inkscape" inkscape:groupmode="lineset" inkscape:label="ViewLayer_TechnicalLines.004">
        <g xmlns:inkscape="http://www.inkscape.org/namespaces/inkscape" inkscape:groupmode="layer" id="strokes" inkscape:label="strokes">
            <path fill="none" stroke-width="1.5" stroke-linecap="round" stroke-opacity="1.0" stroke="rgb(0, 0, 0)" stroke-linejoin="round" d=" M 369.778, 796.444 369.778, 796.445 370.119, 796.445 371.131, 796.445 372.774, 796.445 374.985, 796.445 377.679, 796.445 380.752, 796.445 384.087, 796.445 387.556, 796.445 391.024, 796.445 394.359, 796.445 397.432, 796.445 400.126, 796.445 402.337, 796.445 403.980, 796.445 404.992, 796.445 405.333, 796.445 405.333, 786.445 405.333, 776.445 405.333, 766.445 405.333, 756.445 405.333, 746.445 405.333, 736.445 405.333, 726.445 405.333, 716.445 405.333, 706.445 405.333, 696.445 405.333, 686.445 405.333, 676.445 405.333, 666.445 405.333, 656.445 405.333, 646.445 405.333, 636.445 405.333, 626.445 405.333, 616.445 405.333, 606.445 405.333, 596.445 405.333, 586.445 405.333, 576.445 405.333, 566.445 405.333, 556.445 405.333, 546.445 405.333, 536.445 405.333, 526.445 405.333, 516.445 405.333, 506.445 405.333, 494.222 " />
            <path fill="none" stroke-width="1.5" stroke-linecap="round" stroke-opacity="1.0" stroke="rgb(0, 0, 0)" stroke-linejoin="round" d=" M 405.333, 476.445 405.333, 476.444 404.992, 476.444 403.980, 476.444 402.337, 476.444 400.126, 476.444 397.432, 476.444 394.359, 476.444 391.024, 476.444 387.556, 476.444 384.087, 476.444 380.752, 476.444 377.679, 476.444 374.985, 476.444 372.774, 476.444 371.131, 476.444 370.119, 476.444 369.778, 476.444 369.778, 486.444 369.778, 496.444 369.778, 506.444 369.778, 516.444 369.778, 526.444 369.778, 536.444 369.778, 546.444 369.778, 556.444 369.778, 566.444 369.778, 576.444 369.778, 586.444 369.778, 596.444 369.778, 606.444 369.778, 616.444 369.778, 626.444 369.778, 636.444 369.778, 646.444 369.778, 656.444 369.778, 666.444 369.778, 676.444 369.778, 686.444 369.778, 696.444 369.778, 706.444 369.778, 716.444 369.778, 726.444 369.778, 736.444 369.778, 746.444 369.778, 756.444 369.778, 766.444 369.778, 776.444 369.778, 786.444 369.778, 796.444 369.778, 796.444 370.119, 796.444 371.131, 796.444 372.774, 796.444 374.985, 796.444 377.679, 796.444 380.752, 796.444 384.087, 796.444 387.556, 796.444 391.024, 796.444 394.359, 796.444 397.432, 796.444 400.126, 796.444 402.337, 796.444 403.980, 796.444 404.992, 796.444 405.333, 796.444 405.333, 786.444 405.333, 776.444 405.333, 766.444 405.333, 756.444 405.333, 746.444 405.333, 736.444 405.333, 726.444 405.333, 716.444 405.333, 706.444 405.333, 696.444 405.333, 686.444 405.333, 676.444 405.333, 666.444 405.333, 656.444 405.333, 646.444 405.333, 636.444 405.333, 626.444 405.333, 616.444 405.333, 606.444 405.333, 596.444 405.333, 586.444 405.333, 576.444 405.333, 566.444 405.333, 556.444 405.333, 546.444 405.333, 536.444 405.333, 526.444 405.333, 516.444 405.333, 506.444 405.333, 496.444 405.333, 486.444 405.333, 476.445 " />
            <path fill="none" stroke-width="1.5" stroke-linecap="round" stroke-opacity="1.0" stroke="rgb(0, 0, 0)" stroke-linejoin="round" d=" M 618.667, 796.444 618.667, 796.445 619.008, 796.445 620.020, 796.445 621.663, 796.445 623.874, 796.445 626.568, 796.445 629.641, 796.445 632.976, 796.445 636.445, 796.445 639.913, 796.445 643.248, 796.445 646.321, 796.445 649.015, 796.445 651.226, 796.445 652.869, 796.445 653.881, 796.445 654.222, 796.445 654.222, 786.445 654.222, 776.445 654.222, 766.445 654.222, 756.445 654.222, 746.445 654.222, 736.445 654.222, 726.445 654.222, 716.445 654.222, 706.445 654.222, 696.445 654.222, 686.445 654.222, 676.445 654.222, 666.445 654.222, 656.445 654.222, 646.445 654.222, 636.445 654.222, 626.445 654.222, 616.445 654.222, 606.445 654.222, 596.445 654.222, 586.445 654.222, 576.445 654.222, 566.445 654.222, 556.445 654.222, 546.445 654.222, 536.445 654.222, 526.445 654.222, 516.445 654.222, 506.445 654.222, 496.445 654.222, 486.445 654.222, 476.445 654.222, 476.445 " />
            <path fill="none" stroke-width="1.5" stroke-linecap="round" stroke-opacity="1.0" stroke="rgb(0, 0, 0)" stroke-linejoin="round" d=" M 618.667, 476.444 618.667, 476.444 618.667, 486.444 618.667, 494.222 618.667, 494.222 618.667, 504.222 618.667, 514.222 618.667, 524.222 618.667, 534.222 618.667, 544.222 618.667, 554.222 618.667, 564.222 618.667, 574.222 618.667, 584.222 618.667, 594.222 618.667, 604.222 618.667, 614.222 618.667, 624.222 618.667, 634.222 618.667, 644.222 618.667, 654.222 618.667, 664.222 618.667, 674.222 618.667, 684.222 618.667, 694.222 618.667, 704.222 618.667, 714.222 618.667, 724.222 618.667, 734.222 618.667, 744.222 618.667, 754.222 618.667, 764.222 618.667, 774.222 618.667, 784.222 618.667, 796.444 618.667, 796.444 619.008, 796.444 620.020, 796.444 621.663, 796.444 623.874, 796.444 626.568, 796.444 629.641, 796.444 632.976, 796.444 636.445, 796.444 639.913, 796.444 643.248, 796.444 646.321, 796.444 649.015, 796.444 651.226, 796.444 652.869, 796.444 653.881, 796.444 654.222, 796.444 654.222, 786.444 654.222, 776.444 654.222, 766.444 654.222, 756.444 654.222, 746.444 654.222, 736.444 654.222, 726.444 654.222, 716.444 654.222, 706.444 654.222, 696.444 654.222, 686.444 654.222, 676.444 654.222, 666.444 654.222, 656.444 654.222, 646.444 654.222, 636.444 654.222, 626.444 654.222, 616.444 654.222, 606.444 654.222, 596.444 654.222, 586.444 654.222, 576.444 654.222, 566.444 654.222, 556.444 654.222, 546.444 654.222, 536.444 654.222, 526.444 654.222, 516.444 654.222, 506.444 654.222, 496.444 654.222, 486.444 654.222, 476.445 " />
            <path fill="none" stroke-width="1.5" stroke-linecap="round" stroke-opacity="1.0" stroke="rgb(0, 0, 0)" stroke-linejoin="round" d=" M 654.222, 476.445 654.222, 476.444 653.881, 476.444 652.869, 476.444 651.226, 476.444 649.015, 476.444 646.321, 476.444 643.248, 476.444 639.913, 476.444 636.445, 476.444 632.976, 476.444 629.641, 476.444 626.568, 476.444 623.874, 476.444 621.663, 476.444 620.020, 476.444 619.008, 476.444 618.667, 476.444 " />
            <path fill="none" stroke-width="1.5" stroke-linecap="round" stroke-opacity="1.0" stroke="rgb(0, 0, 0)" stroke-linejoin="round" d=" M 405.333, 494.222 405.333, 494.222 415.333, 494.222 425.333, 494.222 435.333, 494.222 445.333, 494.222 455.333, 494.222 465.333, 494.222 475.333, 494.222 485.333, 494.222 495.333, 494.222 505.333, 494.222 515.333, 494.222 525.333, 494.222 535.333, 494.222 545.333, 494.222 555.333, 494.222 565.333, 494.222 575.333, 494.222 585.333, 494.222 595.333, 494.222 605.333, 494.222 615.333, 494.222 618.667, 494.222 " />
            <path fill="none" stroke-width="1.5" stroke-linecap="round" stroke-opacity="1.0" stroke="rgb(0, 0, 0)" stroke-linejoin="round" d=" M 618.667, 476.444 618.667, 466.444 618.667, 458.667 608.667, 458.667 598.667, 458.667 588.667, 458.667 578.667, 458.667 568.667, 458.667 558.667, 458.667 548.667, 458.667 538.667, 458.667 528.667, 458.667 518.667, 458.667 508.667, 458.667 498.667, 458.667 488.667, 458.667 478.667, 458.667 468.667, 458.667 458.667, 458.667 448.667, 458.667 438.667, 458.667 428.667, 458.667 418.667, 458.667 408.667, 458.667 405.333, 458.667 405.333, 458.667 405.333, 468.667 405.333, 476.445 " />
            <path fill="none" stroke-width="1.5" stroke-linecap="round" stroke-opacity="1.0" stroke="rgb(0, 0, 0)" stroke-linejoin="round" d=" M 405.333, 494.222 405.333, 494.222 415.333, 494.222 425.333, 494.222 435.333, 494.222 445.333, 494.222 455.333, 494.222 465.333, 494.222 475.333, 494.222 485.333, 494.222 495.333, 494.222 505.333, 494.222 515.333, 494.222 525.333, 494.222 535.333, 494.222 545.333, 494.222 555.333, 494.222 565.333, 494.222 575.333, 494.222 585.333, 494.222 595.333, 494.222 605.333, 494.222 615.333, 494.222 618.667, 494.222 " />
            <path fill="none" stroke-width="1.5" stroke-linecap="round" stroke-opacity="1.0" stroke="rgb(0, 0, 0)" stroke-linejoin="round" d=" M 405.333, 405.333 405.333, 395.333 405.333, 385.333 405.333, 375.333 405.333, 365.333 405.333, 355.333 405.333, 345.333 405.333, 335.333 405.333, 325.333 405.333, 315.333 405.333, 305.333 405.333, 295.333 405.333, 285.333 405.333, 275.333 405.333, 265.333 405.333, 255.333 405.333, 245.333 405.333, 235.333 405.333, 227.556 405.333, 227.556 395.333, 227.556 385.333, 227.556 375.333, 227.556 369.778, 227.556 369.778, 237.556 369.778, 247.556 369.778, 257.556 369.778, 267.556 369.778, 277.556 369.778, 287.556 369.778, 297.556 369.778, 307.556 369.778, 317.556 369.778, 327.556 369.778, 337.556 369.778, 347.556 369.778, 357.556 369.778, 367.556 369.778, 377.556 369.778, 387.556 369.778, 397.556 369.778, 405.333 369.778, 405.333 379.778, 405.333 389.778, 405.333 399.778, 405.333 405.333, 405.333 405.333, 405.333 " />
            <path fill="none" stroke-width="1.5" stroke-linecap="round" stroke-opacity="1.0" stroke="rgb(0, 0, 0)" stroke-linejoin="round" d=" M 405.333, 227.556 405.333, 237.556 405.333, 247.556 405.333, 257.556 405.333, 267.556 405.333, 277.556 405.333, 287.556 405.333, 297.556 405.333, 307.556 405.333, 317.556 405.333, 327.556 405.333, 337.556 405.333, 347.556 405.333, 357.556 405.333, 367.556 405.333, 377.556 405.333, 387.556 405.333, 397.556 405.333, 405.333 " />
        </g>
    </g>
</svg>
