<?xml version='1.0' encoding='ascii'?>
<svg xmlns="http://www.w3.org/2000/svg" xmlns:inkscape="http://www.inkscape.org/namespaces/inkscape" version="1.1" width="1024" height="1024">
    <g id="ViewLayer_LineSet" inkscape:groupmode="lineset" inkscape:label="ViewLayer_LineSet">
        <g inkscape:groupmode="layer" id="strokes" inkscape:label="strokes">
            <path fill="none" stroke-width="3.0" stroke-linecap="butt" stroke-opacity="1.0" stroke="rgb(0, 0, 0)" stroke-linejoin="round" d=" M 680.560, 680.560 680.560, 676.346 " />
            <path fill="none" stroke-width="3.0" stroke-linecap="butt" stroke-opacity="1.0" stroke="rgb(0, 0, 0)" stroke-linejoin="round" d=" M 680.560, 676.346 680.560, 666.346 680.560, 656.346 680.560, 646.346 680.560, 642.634 " />
            <path fill="none" stroke-width="3.0" stroke-linecap="butt" stroke-opacity="1.0" stroke="rgb(0, 0, 0)" stroke-linejoin="round" d=" M 339.226, 680.560 339.226, 670.560 339.226, 660.560 339.226, 650.560 339.226, 640.560 339.226, 630.560 339.226, 620.560 339.226, 610.560 339.226, 600.560 339.226, 590.560 339.226, 580.560 339.226, 570.560 339.226, 560.560 339.226, 550.560 339.226, 540.560 339.226, 530.560 339.226, 520.560 339.226, 510.560 339.226, 500.560 339.226, 490.560 339.226, 480.560 339.226, 470.560 339.226, 460.560 339.226, 450.560 339.226, 440.560 339.226, 430.560 339.226, 420.560 339.226, 410.560 339.226, 400.560 339.226, 390.560 339.226, 380.560 339.226, 370.560 339.226, 360.560 339.226, 350.560 339.226, 343.440 329.226, 343.440 319.226, 343.440 309.226, 343.440 305.514, 343.440 305.514, 353.440 305.514, 363.440 305.514, 373.440 305.514, 383.440 305.514, 393.440 305.514, 403.440 305.514, 413.440 305.514, 423.440 305.514, 433.440 305.514, 443.440 305.514, 453.440 305.514, 463.440 305.514, 473.440 305.514, 483.440 305.514, 493.440 305.514, 503.440 305.514, 513.440 305.514, 523.440 305.514, 533.440 305.514, 543.440 305.514, 553.440 305.514, 563.440 305.514, 573.440 305.514, 583.440 305.514, 593.440 305.514, 603.440 305.514, 613.440 305.514, 623.440 305.514, 633.440 305.514, 643.440 305.514, 653.440 305.514, 663.440 305.514, 673.440 305.514, 680.560 " />
            <path fill="none" stroke-width="3.0" stroke-linecap="butt" stroke-opacity="1.0" stroke="rgb(0, 0, 0)" stroke-linejoin="round" d=" M 684.774, 343.440 684.774, 353.440 684.774, 363.440 684.774, 373.440 684.774, 383.440 684.774, 393.440 684.774, 403.440 684.774, 413.440 684.774, 423.440 684.774, 433.440 684.774, 443.440 684.774, 453.440 684.774, 463.440 684.774, 473.440 684.774, 483.440 684.774, 493.440 684.774, 503.440 684.774, 513.440 684.774, 523.440 684.774, 533.440 684.774, 543.440 684.774, 553.440 684.774, 563.440 684.774, 573.440 684.774, 583.440 684.774, 593.440 684.774, 603.440 684.774, 613.440 684.774, 623.440 684.774, 633.440 684.774, 643.440 684.774, 653.440 684.774, 663.440 684.774, 673.440 684.774, 680.560 694.774, 680.560 704.774, 680.560 714.774, 680.560 718.486, 680.560 718.486, 670.560 718.486, 660.560 718.486, 650.560 718.486, 640.560 718.486, 630.560 718.486, 620.560 718.486, 610.560 718.486, 600.560 718.486, 590.560 718.486, 580.560 718.486, 570.560 718.486, 560.560 718.486, 550.560 718.486, 540.560 718.486, 530.560 718.486, 520.560 718.486, 510.560 718.486, 500.560 718.486, 490.560 718.486, 480.560 718.486, 470.560 718.486, 460.560 718.486, 450.560 718.486, 440.560 718.486, 430.560 718.486, 420.560 718.486, 410.560 718.486, 400.560 718.486, 390.560 718.486, 380.560 718.486, 370.560 718.486, 360.560 718.486, 350.560 718.486, 343.440 708.486, 343.440 698.486, 343.440 688.486, 343.440 684.774, 343.440 " />
            <path fill="none" stroke-width="3.0" stroke-linecap="butt" stroke-opacity="1.0" stroke="rgb(0, 0, 0)" stroke-linejoin="round" d=" M 305.514, 680.560 315.514, 680.560 325.514, 680.560 335.514, 680.560 339.226, 680.560 " />
            <path fill="none" stroke-width="3.0" stroke-linecap="butt" stroke-opacity="1.0" stroke="rgb(0, 0, 0)" stroke-linejoin="round" d=" M 343.440, 642.634 343.440, 652.634 343.440, 662.634 343.440, 672.634 343.440, 676.346 " />
            <path fill="none" stroke-width="3.0" stroke-linecap="butt" stroke-opacity="1.0" stroke="rgb(0, 0, 0)" stroke-linejoin="round" d=" M 343.440, 676.346 343.440, 680.560 " />
            <path fill="none" stroke-width="3.0" stroke-linecap="butt" stroke-opacity="1.0" stroke="rgb(0, 0, 0)" stroke-linejoin="round" d=" M 343.440, 343.440 343.440, 353.440 343.440, 363.440 343.440, 373.440 343.440, 383.440 343.440, 393.440 343.440, 403.440 343.440, 413.440 343.440, 423.440 343.440, 433.440 343.440, 443.440 343.440, 453.440 343.440, 463.440 343.440, 473.440 343.440, 483.440 343.440, 493.440 343.440, 503.440 343.440, 513.440 343.440, 523.440 343.440, 533.440 343.440, 543.440 343.440, 553.440 343.440, 563.440 343.440, 573.440 343.440, 583.440 343.440, 593.440 343.440, 603.440 343.440, 613.440 343.440, 623.440 343.440, 633.440 343.440, 642.634 " />
            <path fill="none" stroke-width="3.0" stroke-linecap="butt" stroke-opacity="1.0" stroke="rgb(0, 0, 0)" stroke-linejoin="round" d=" M 343.440, 680.560 353.440, 680.560 363.440, 680.560 373.440, 680.560 383.440, 680.560 393.440, 680.560 403.440, 680.560 413.440, 680.560 423.440, 680.560 433.440, 680.560 443.440, 680.560 453.440, 680.560 463.440, 680.560 473.440, 680.560 483.440, 680.560 493.440, 680.560 503.440, 680.560 513.440, 680.560 523.440, 680.560 533.440, 680.560 543.440, 680.560 553.440, 680.560 563.440, 680.560 573.440, 680.560 583.440, 680.560 593.440, 680.560 603.440, 680.560 613.440, 680.560 623.440, 680.560 633.440, 680.560 643.440, 680.560 653.440, 680.560 663.440, 680.560 673.440, 680.560 680.560, 680.560 " />
            <path fill="none" stroke-width="3.0" stroke-linecap="butt" stroke-opacity="1.0" stroke="rgb(0, 0, 0)" stroke-linejoin="round" d=" M 343.440, 676.346 353.440, 676.346 363.440, 676.346 373.440, 676.346 383.440, 676.346 393.440, 676.346 403.440, 676.346 413.440, 676.346 423.440, 676.346 433.440, 676.346 443.440, 676.346 453.440, 676.346 463.440, 676.346 473.440, 676.346 483.440, 676.346 493.440, 676.346 503.440, 676.346 513.440, 676.346 523.440, 676.346 533.440, 676.346 543.440, 676.346 553.440, 676.346 563.440, 676.346 573.440, 676.346 583.440, 676.346 593.440, 676.346 603.440, 676.346 613.440, 676.346 623.440, 676.346 633.440, 676.346 643.440, 676.346 653.440, 676.346 663.440, 676.346 673.440, 676.346 680.560, 676.346 " />
            <path fill="none" stroke-width="3.0" stroke-linecap="butt" stroke-opacity="1.0" stroke="rgb(0, 0, 0)" stroke-linejoin="round" d=" M 364.947, 642.634 354.947, 642.634 344.947, 642.634 343.440, 642.634 " />
            <path fill="none" stroke-width="3.0" stroke-linecap="butt" stroke-opacity="1.0" stroke="rgb(0, 0, 0)" stroke-linejoin="round" d=" M 406.214, 642.634 396.214, 642.634 386.214, 642.634 376.214, 642.634 366.214, 642.634 364.947, 642.634 " />
            <path fill="none" stroke-width="3.0" stroke-linecap="butt" stroke-opacity="1.0" stroke="rgb(0, 0, 0)" stroke-linejoin="round" d=" M 617.786, 642.634 607.786, 642.634 597.786, 642.634 587.786, 642.634 577.786, 642.634 567.786, 642.634 557.786, 642.634 547.786, 642.634 537.786, 642.634 527.786, 642.634 517.786, 642.634 507.786, 642.634 497.786, 642.634 487.786, 642.634 477.786, 642.634 467.786, 642.634 457.786, 642.634 447.786, 642.634 437.786, 642.634 427.786, 642.634 417.786, 642.634 406.214, 642.634 " />
            <path fill="none" stroke-width="3.0" stroke-linecap="butt" stroke-opacity="1.0" stroke="rgb(0, 0, 0)" stroke-linejoin="round" d=" M 659.053, 642.634 649.053, 642.634 639.053, 642.634 629.054, 642.634 619.053, 642.634 617.786, 642.634 " />
            <path fill="none" stroke-width="3.0" stroke-linecap="butt" stroke-opacity="1.0" stroke="rgb(0, 0, 0)" stroke-linejoin="round" d=" M 680.560, 642.634 670.560, 642.634 660.560, 642.634 659.053, 642.634 " />
            <path fill="none" stroke-width="3.0" stroke-linecap="butt" stroke-opacity="1.0" stroke="rgb(0, 0, 0)" stroke-linejoin="round" d=" M 680.560, 343.440 670.560, 343.440 660.560, 343.440 650.560, 343.440 640.560, 343.440 630.560, 343.440 620.560, 343.440 610.560, 343.440 600.560, 343.440 590.560, 343.440 580.560, 343.440 570.560, 343.440 560.560, 343.440 550.560, 343.440 540.560, 343.440 530.560, 343.440 520.560, 343.440 510.560, 343.440 500.560, 343.440 490.560, 343.440 480.560, 343.440 470.560, 343.440 460.560, 343.440 450.560, 343.440 440.560, 343.440 430.560, 343.440 420.560, 343.440 410.560, 343.440 400.560, 343.440 390.560, 343.440 380.560, 343.440 370.560, 343.440 360.560, 343.440 350.560, 343.440 343.440, 343.440 " />
            <path fill="none" stroke-width="3.0" stroke-linecap="butt" stroke-opacity="1.0" stroke="rgb(0, 0, 0)" stroke-linejoin="round" d=" M 680.560, 642.634 680.560, 632.634 680.560, 622.634 680.560, 612.634 680.560, 602.634 680.560, 592.634 680.560, 582.634 680.560, 572.634 680.560, 562.634 680.560, 552.634 680.560, 542.634 680.560, 532.634 680.560, 522.634 680.560, 512.634 680.560, 502.634 680.560, 492.634 680.560, 482.634 680.560, 472.634 680.560, 462.634 680.560, 452.634 680.560, 442.634 680.560, 432.634 680.560, 422.634 680.560, 412.634 680.560, 402.634 680.560, 392.634 680.560, 382.634 680.560, 372.634 680.560, 362.634 680.560, 352.634 680.560, 343.440 " />
        </g>
    </g>
    <g id="ViewLayer_TechnicalLines" inkscape:groupmode="lineset" inkscape:label="ViewLayer_TechnicalLines">
        <g inkscape:groupmode="layer" id="strokes" inkscape:label="strokes">
            <path fill="none" stroke-width="3.0" stroke-linecap="butt" stroke-opacity="1.0" stroke="rgb(0, 0, 0)" stroke-linejoin="round" d=" M 680.560, 680.560 680.560, 676.346 " />
            <path fill="none" stroke-width="3.0" stroke-linecap="butt" stroke-opacity="1.0" stroke="rgb(0, 0, 0)" stroke-linejoin="round" d=" M 680.560, 676.346 680.560, 666.346 680.560, 656.346 680.560, 646.346 680.560, 642.634 " />
            <path fill="none" stroke-width="3.0" stroke-linecap="butt" stroke-opacity="1.0" stroke="rgb(0, 0, 0)" stroke-linejoin="round" d=" M 339.226, 680.560 339.226, 670.560 339.226, 660.560 339.226, 650.560 339.226, 640.560 339.226, 630.560 339.226, 620.560 339.226, 610.560 339.226, 600.560 339.226, 590.560 339.226, 580.560 339.226, 570.560 339.226, 560.560 339.226, 550.560 339.226, 540.560 339.226, 530.560 339.226, 520.560 339.226, 510.560 339.226, 500.560 339.226, 490.560 339.226, 480.560 339.226, 470.560 339.226, 460.560 339.226, 450.560 339.226, 440.560 339.226, 430.560 339.226, 420.560 339.226, 410.560 339.226, 400.560 339.226, 390.560 339.226, 380.560 339.226, 370.560 339.226, 360.560 339.226, 350.560 339.226, 343.440 329.226, 343.440 319.226, 343.440 309.226, 343.440 305.514, 343.440 305.514, 353.440 305.514, 363.440 305.514, 373.440 305.514, 383.440 305.514, 393.440 305.514, 403.440 305.514, 413.440 305.514, 423.440 305.514, 433.440 305.514, 443.440 305.514, 453.440 305.514, 463.440 305.514, 473.440 305.514, 483.440 305.514, 493.440 305.514, 503.440 305.514, 513.440 305.514, 523.440 305.514, 533.440 305.514, 543.440 305.514, 553.440 305.514, 563.440 305.514, 573.440 305.514, 583.440 305.514, 593.440 305.514, 603.440 305.514, 613.440 305.514, 623.440 305.514, 633.440 305.514, 643.440 305.514, 653.440 305.514, 663.440 305.514, 673.440 305.514, 680.560 " />
            <path fill="none" stroke-width="3.0" stroke-linecap="butt" stroke-opacity="1.0" stroke="rgb(0, 0, 0)" stroke-linejoin="round" d=" M 684.774, 343.440 684.774, 353.440 684.774, 363.440 684.774, 373.440 684.774, 383.440 684.774, 393.440 684.774, 403.440 684.774, 413.440 684.774, 423.440 684.774, 433.440 684.774, 443.440 684.774, 453.440 684.774, 463.440 684.774, 473.440 684.774, 483.440 684.774, 493.440 684.774, 503.440 684.774, 513.440 684.774, 523.440 684.774, 533.440 684.774, 543.440 684.774, 553.440 684.774, 563.440 684.774, 573.440 684.774, 583.440 684.774, 593.440 684.774, 603.440 684.774, 613.440 684.774, 623.440 684.774, 633.440 684.774, 643.440 684.774, 653.440 684.774, 663.440 684.774, 673.440 684.774, 680.560 694.774, 680.560 704.774, 680.560 714.774, 680.560 718.486, 680.560 718.486, 670.560 718.486, 660.560 718.486, 650.560 718.486, 640.560 718.486, 630.560 718.486, 620.560 718.486, 610.560 718.486, 600.560 718.486, 590.560 718.486, 580.560 718.486, 570.560 718.486, 560.560 718.486, 550.560 718.486, 540.560 718.486, 530.560 718.486, 520.560 718.486, 510.560 718.486, 500.560 718.486, 490.560 718.486, 480.560 718.486, 470.560 718.486, 460.560 718.486, 450.560 718.486, 440.560 718.486, 430.560 718.486, 420.560 718.486, 410.560 718.486, 400.560 718.486, 390.560 718.486, 380.560 718.486, 370.560 718.486, 360.560 718.486, 350.560 718.486, 343.440 708.486, 343.440 698.486, 343.440 688.486, 343.440 684.774, 343.440 " />
            <path fill="none" stroke-width="3.0" stroke-linecap="butt" stroke-opacity="1.0" stroke="rgb(0, 0, 0)" stroke-linejoin="round" d=" M 305.514, 680.560 315.514, 680.560 325.514, 680.560 335.514, 680.560 339.226, 680.560 " />
            <path fill="none" stroke-width="3.0" stroke-linecap="butt" stroke-opacity="1.0" stroke="rgb(0, 0, 0)" stroke-linejoin="round" d=" M 343.440, 642.634 343.440, 652.634 343.440, 662.634 343.440, 672.634 343.440, 676.346 " />
            <path fill="none" stroke-width="3.0" stroke-linecap="butt" stroke-opacity="1.0" stroke="rgb(0, 0, 0)" stroke-linejoin="round" d=" M 343.440, 676.346 343.440, 680.560 " />
            <path fill="none" stroke-width="3.0" stroke-linecap="butt" stroke-opacity="1.0" stroke="rgb(0, 0, 0)" stroke-linejoin="round" d=" M 343.440, 343.440 343.440, 353.440 343.440, 363.440 343.440, 373.440 343.440, 383.440 343.440, 393.440 343.440, 403.440 343.440, 413.440 343.440, 423.440 343.440, 433.440 343.440, 443.440 343.440, 453.440 343.440, 463.440 343.440, 473.440 343.440, 483.440 343.440, 493.440 343.440, 503.440 343.440, 513.440 343.440, 523.440 343.440, 533.440 343.440, 543.440 343.440, 553.440 343.440, 563.440 343.440, 573.440 343.440, 583.440 343.440, 593.440 343.440, 603.440 343.440, 613.440 343.440, 623.440 343.440, 633.440 343.440, 642.634 " />
            <path fill="none" stroke-width="3.0" stroke-linecap="butt" stroke-opacity="1.0" stroke="rgb(0, 0, 0)" stroke-linejoin="round" d=" M 343.440, 680.560 353.440, 680.560 363.440, 680.560 373.440, 680.560 383.440, 680.560 393.440, 680.560 403.440, 680.560 413.440, 680.560 423.440, 680.560 433.440, 680.560 443.440, 680.560 453.440, 680.560 463.440, 680.560 473.440, 680.560 483.440, 680.560 493.440, 680.560 503.440, 680.560 513.440, 680.560 523.440, 680.560 533.440, 680.560 543.440, 680.560 553.440, 680.560 563.440, 680.560 573.440, 680.560 583.440, 680.560 593.440, 680.560 603.440, 680.560 613.440, 680.560 623.440, 680.560 633.440, 680.560 643.440, 680.560 653.440, 680.560 663.440, 680.560 673.440, 680.560 680.560, 680.560 " />
            <path fill="none" stroke-width="3.0" stroke-linecap="butt" stroke-opacity="1.0" stroke="rgb(0, 0, 0)" stroke-linejoin="round" d=" M 343.440, 676.346 353.440, 676.346 363.440, 676.346 373.440, 676.346 383.440, 676.346 393.440, 676.346 403.440, 676.346 413.440, 676.346 423.440, 676.346 433.440, 676.346 443.440, 676.346 453.440, 676.346 463.440, 676.346 473.440, 676.346 483.440, 676.346 493.440, 676.346 503.440, 676.346 513.440, 676.346 523.440, 676.346 533.440, 676.346 543.440, 676.346 553.440, 676.346 563.440, 676.346 573.440, 676.346 583.440, 676.346 593.440, 676.346 603.440, 676.346 613.440, 676.346 623.440, 676.346 633.440, 676.346 643.440, 676.346 653.440, 676.346 663.440, 676.346 673.440, 676.346 680.560, 676.346 " />
            <path fill="none" stroke-width="3.0" stroke-linecap="butt" stroke-opacity="1.0" stroke="rgb(0, 0, 0)" stroke-linejoin="round" d=" M 364.947, 642.634 354.947, 642.634 344.947, 642.634 343.440, 642.634 " />
            <path fill="none" stroke-width="3.0" stroke-linecap="butt" stroke-opacity="1.0" stroke="rgb(0, 0, 0)" stroke-linejoin="round" d=" M 406.214, 642.634 396.214, 642.634 386.214, 642.634 376.214, 642.634 366.214, 642.634 364.947, 642.634 " />
            <path fill="none" stroke-width="3.0" stroke-linecap="butt" stroke-opacity="1.0" stroke="rgb(0, 0, 0)" stroke-linejoin="round" d=" M 617.786, 642.634 607.786, 642.634 597.786, 642.634 587.786, 642.634 577.786, 642.634 567.786, 642.634 557.786, 642.634 547.786, 642.634 537.786, 642.634 527.786, 642.634 517.786, 642.634 507.786, 642.634 497.786, 642.634 487.786, 642.634 477.786, 642.634 467.786, 642.634 457.786, 642.634 447.786, 642.634 437.786, 642.634 427.786, 642.634 417.786, 642.634 406.214, 642.634 " />
            <path fill="none" stroke-width="3.0" stroke-linecap="butt" stroke-opacity="1.0" stroke="rgb(0, 0, 0)" stroke-linejoin="round" d=" M 659.053, 642.634 649.053, 642.634 639.053, 642.634 629.054, 642.634 619.053, 642.634 617.786, 642.634 " />
            <path fill="none" stroke-width="3.0" stroke-linecap="butt" stroke-opacity="1.0" stroke="rgb(0, 0, 0)" stroke-linejoin="round" d=" M 680.560, 642.634 670.560, 642.634 660.560, 642.634 659.053, 642.634 " />
            <path fill="none" stroke-width="3.0" stroke-linecap="butt" stroke-opacity="1.0" stroke="rgb(0, 0, 0)" stroke-linejoin="round" d=" M 680.560, 343.440 670.560, 343.440 660.560, 343.440 650.560, 343.440 640.560, 343.440 630.560, 343.440 620.560, 343.440 610.560, 343.440 600.560, 343.440 590.560, 343.440 580.560, 343.440 570.560, 343.440 560.560, 343.440 550.560, 343.440 540.560, 343.440 530.560, 343.440 520.560, 343.440 510.560, 343.440 500.560, 343.440 490.560, 343.440 480.560, 343.440 470.560, 343.440 460.560, 343.440 450.560, 343.440 440.560, 343.440 430.560, 343.440 420.560, 343.440 410.560, 343.440 400.560, 343.440 390.560, 343.440 380.560, 343.440 370.560, 343.440 360.560, 343.440 350.560, 343.440 343.440, 343.440 " />
            <path fill="none" stroke-width="3.0" stroke-linecap="butt" stroke-opacity="1.0" stroke="rgb(0, 0, 0)" stroke-linejoin="round" d=" M 680.560, 642.634 680.560, 632.634 680.560, 622.634 680.560, 612.634 680.560, 602.634 680.560, 592.634 680.560, 582.634 680.560, 572.634 680.560, 562.634 680.560, 552.634 680.560, 542.634 680.560, 532.634 680.560, 522.634 680.560, 512.634 680.560, 502.634 680.560, 492.634 680.560, 482.634 680.560, 472.634 680.560, 462.634 680.560, 452.634 680.560, 442.634 680.560, 432.634 680.560, 422.634 680.560, 412.634 680.560, 402.634 680.560, 392.634 680.560, 382.634 680.560, 372.634 680.560, 362.634 680.560, 352.634 680.560, 343.440 " />
        </g>
    </g>
    <g id="ViewLayer_TechnicalLines.001" inkscape:groupmode="lineset" inkscape:label="ViewLayer_TechnicalLines.001">
        <g inkscape:groupmode="layer" id="strokes" inkscape:label="strokes">
            <path fill="none" stroke-width="1.5" stroke-linecap="round" stroke-opacity="1.0" stroke="rgb(0, 0, 0)" stroke-linejoin="round" d=" M 680.560, 680.560 680.560, 676.346 " />
            <path fill="none" stroke-width="1.5" stroke-linecap="round" stroke-opacity="1.0" stroke="rgb(0, 0, 0)" stroke-linejoin="round" d=" M 680.560, 676.346 680.560, 666.346 680.560, 656.346 680.560, 646.346 680.560, 642.634 " />
            <path fill="none" stroke-width="1.5" stroke-linecap="round" stroke-opacity="1.0" stroke="rgb(0, 0, 0)" stroke-linejoin="round" d=" M 339.226, 680.560 339.226, 670.560 339.226, 660.560 339.226, 650.560 339.226, 640.560 339.226, 630.560 339.226, 620.560 339.226, 610.560 339.226, 600.560 339.226, 590.560 339.226, 580.560 339.226, 570.560 339.226, 560.560 339.226, 550.560 339.226, 540.560 339.226, 530.560 339.226, 520.560 339.226, 510.560 339.226, 500.560 339.226, 490.560 339.226, 480.560 339.226, 470.560 339.226, 460.560 339.226, 450.560 339.226, 440.560 339.226, 430.560 339.226, 420.560 339.226, 410.560 339.226, 400.560 339.226, 390.560 339.226, 380.560 339.226, 370.560 339.226, 360.560 339.226, 350.560 339.226, 343.440 329.226, 343.440 319.226, 343.440 309.226, 343.440 305.514, 343.440 305.514, 353.440 305.514, 363.440 305.514, 373.440 305.514, 383.440 305.514, 393.440 305.514, 403.440 305.514, 413.440 305.514, 423.440 305.514, 433.440 305.514, 443.440 305.514, 453.440 305.514, 463.440 305.514, 473.440 305.514, 483.440 305.514, 493.440 305.514, 503.440 305.514, 513.440 305.514, 523.440 305.514, 533.440 305.514, 543.440 305.514, 553.440 305.514, 563.440 305.514, 573.440 305.514, 583.440 305.514, 593.440 305.514, 603.440 305.514, 613.440 305.514, 623.440 305.514, 633.440 305.514, 643.440 305.514, 653.440 305.514, 663.440 305.514, 673.440 305.514, 680.560 " />
            <path fill="none" stroke-width="1.5" stroke-linecap="round" stroke-opacity="1.0" stroke="rgb(0, 0, 0)" stroke-linejoin="round" d=" M 684.774, 343.440 684.774, 353.440 684.774, 363.440 684.774, 373.440 684.774, 383.440 684.774, 393.440 684.774, 403.440 684.774, 413.440 684.774, 423.440 684.774, 433.440 684.774, 443.440 684.774, 453.440 684.774, 463.440 684.774, 473.440 684.774, 483.440 684.774, 493.440 684.774, 503.440 684.774, 513.440 684.774, 523.440 684.774, 533.440 684.774, 543.440 684.774, 553.440 684.774, 563.440 684.774, 573.440 684.774, 583.440 684.774, 593.440 684.774, 603.440 684.774, 613.440 684.774, 623.440 684.774, 633.440 684.774, 643.440 684.774, 653.440 684.774, 663.440 684.774, 673.440 684.774, 680.560 694.774, 680.560 704.774, 680.560 714.774, 680.560 718.486, 680.560 718.486, 670.560 718.486, 660.560 718.486, 650.560 718.486, 640.560 718.486, 630.560 718.486, 620.560 718.486, 610.560 718.486, 600.560 718.486, 590.560 718.486, 580.560 718.486, 570.560 718.486, 560.560 718.486, 550.560 718.486, 540.560 718.486, 530.560 718.486, 520.560 718.486, 510.560 718.486, 500.560 718.486, 490.560 718.486, 480.560 718.486, 470.560 718.486, 460.560 718.486, 450.560 718.486, 440.560 718.486, 430.560 718.486, 420.560 718.486, 410.560 718.486, 400.560 718.486, 390.560 718.486, 380.560 718.486, 370.560 718.486, 360.560 718.486, 350.560 718.486, 343.440 708.486, 343.440 698.486, 343.440 688.486, 343.440 684.774, 343.440 " />
            <path fill="none" stroke-width="1.5" stroke-linecap="round" stroke-opacity="1.0" stroke="rgb(0, 0, 0)" stroke-linejoin="round" d=" M 305.514, 680.560 315.514, 680.560 325.514, 680.560 335.514, 680.560 339.226, 680.560 " />
            <path fill="none" stroke-width="1.5" stroke-linecap="round" stroke-opacity="1.0" stroke="rgb(0, 0, 0)" stroke-linejoin="round" d=" M 343.440, 642.634 343.440, 652.634 343.440, 662.634 343.440, 672.634 343.440, 676.346 " />
            <path fill="none" stroke-width="1.5" stroke-linecap="round" stroke-opacity="1.0" stroke="rgb(0, 0, 0)" stroke-linejoin="round" d=" M 343.440, 676.346 343.440, 680.560 " />
            <path fill="none" stroke-width="1.5" stroke-linecap="round" stroke-opacity="1.0" stroke="rgb(0, 0, 0)" stroke-linejoin="round" d=" M 343.440, 343.440 343.440, 353.440 343.440, 363.440 343.440, 373.440 343.440, 383.440 343.440, 393.440 343.440, 403.440 343.440, 413.440 343.440, 423.440 343.440, 433.440 343.440, 443.440 343.440, 453.440 343.440, 463.440 343.440, 473.440 343.440, 483.440 343.440, 493.440 343.440, 503.440 343.440, 513.440 343.440, 523.440 343.440, 533.440 343.440, 543.440 343.440, 553.440 343.440, 563.440 343.440, 573.440 343.440, 583.440 343.440, 593.440 343.440, 603.440 343.440, 613.440 343.440, 623.440 343.440, 633.440 343.440, 642.634 " />
            <path fill="none" stroke-width="1.5" stroke-linecap="round" stroke-opacity="1.0" stroke="rgb(0, 0, 0)" stroke-linejoin="round" d=" M 343.440, 680.560 353.440, 680.560 363.440, 680.560 373.440, 680.560 383.440, 680.560 393.440, 680.560 403.440, 680.560 413.440, 680.560 423.440, 680.560 433.440, 680.560 443.440, 680.560 453.440, 680.560 463.440, 680.560 473.440, 680.560 483.440, 680.560 493.440, 680.560 503.440, 680.560 513.440, 680.560 523.440, 680.560 533.440, 680.560 543.440, 680.560 553.440, 680.560 563.440, 680.560 573.440, 680.560 583.440, 680.560 593.440, 680.560 603.440, 680.560 613.440, 680.560 623.440, 680.560 633.440, 680.560 643.440, 680.560 653.440, 680.560 663.440, 680.560 673.440, 680.560 680.560, 680.560 " />
            <path fill="none" stroke-width="1.5" stroke-linecap="round" stroke-opacity="1.0" stroke="rgb(0, 0, 0)" stroke-linejoin="round" d=" M 343.440, 676.346 353.440, 676.346 363.440, 676.346 373.440, 676.346 383.440, 676.346 393.440, 676.346 403.440, 676.346 413.440, 676.346 423.440, 676.346 433.440, 676.346 443.440, 676.346 453.440, 676.346 463.440, 676.346 473.440, 676.346 483.440, 676.346 493.440, 676.346 503.440, 676.346 513.440, 676.346 523.440, 676.346 533.440, 676.346 543.440, 676.346 553.440, 676.346 563.440, 676.346 573.440, 676.346 583.440, 676.346 593.440, 676.346 603.440, 676.346 613.440, 676.346 623.440, 676.346 633.440, 676.346 643.440, 676.346 653.440, 676.346 663.440, 676.346 673.440, 676.346 680.560, 676.346 " />
            <path fill="none" stroke-width="1.5" stroke-linecap="round" stroke-opacity="1.0" stroke="rgb(0, 0, 0)" stroke-linejoin="round" d=" M 364.947, 642.634 354.947, 642.634 344.947, 642.634 343.440, 642.634 " />
            <path fill="none" stroke-width="1.5" stroke-linecap="round" stroke-opacity="1.0" stroke="rgb(0, 0, 0)" stroke-linejoin="round" d=" M 406.214, 642.634 396.214, 642.634 386.214, 642.634 376.214, 642.634 366.214, 642.634 364.947, 642.634 " />
            <path fill="none" stroke-width="1.5" stroke-linecap="round" stroke-opacity="1.0" stroke="rgb(0, 0, 0)" stroke-linejoin="round" d=" M 617.786, 642.634 607.786, 642.634 597.786, 642.634 587.786, 642.634 577.786, 642.634 567.786, 642.634 557.786, 642.634 547.786, 642.634 537.786, 642.634 527.786, 642.634 517.786, 642.634 507.786, 642.634 497.786, 642.634 487.786, 642.634 477.786, 642.634 467.786, 642.634 457.786, 642.634 447.786, 642.634 437.786, 642.634 427.786, 642.634 417.786, 642.634 406.214, 642.634 " />
            <path fill="none" stroke-width="1.5" stroke-linecap="round" stroke-opacity="1.0" stroke="rgb(0, 0, 0)" stroke-linejoin="round" d=" M 659.053, 642.634 649.053, 642.634 639.053, 642.634 629.054, 642.634 619.053, 642.634 617.786, 642.634 " />
            <path fill="none" stroke-width="1.5" stroke-linecap="round" stroke-opacity="1.0" stroke="rgb(0, 0, 0)" stroke-linejoin="round" d=" M 680.560, 642.634 670.560, 642.634 660.560, 642.634 659.053, 642.634 " />
            <path fill="none" stroke-width="1.5" stroke-linecap="round" stroke-opacity="1.0" stroke="rgb(0, 0, 0)" stroke-linejoin="round" d=" M 680.560, 343.440 670.560, 343.440 660.560, 343.440 650.560, 343.440 640.560, 343.440 630.560, 343.440 620.560, 343.440 610.560, 343.440 600.560, 343.440 590.560, 343.440 580.560, 343.440 570.560, 343.440 560.560, 343.440 550.560, 343.440 540.560, 343.440 530.560, 343.440 520.560, 343.440 510.560, 343.440 500.560, 343.440 490.560, 343.440 480.560, 343.440 470.560, 343.440 460.560, 343.440 450.560, 343.440 440.560, 343.440 430.560, 343.440 420.560, 343.440 410.560, 343.440 400.560, 343.440 390.560, 343.440 380.560, 343.440 370.560, 343.440 360.560, 343.440 350.560, 343.440 343.440, 343.440 " />
            <path fill="none" stroke-width="1.5" stroke-linecap="round" stroke-opacity="1.0" stroke="rgb(0, 0, 0)" stroke-linejoin="round" d=" M 680.560, 642.634 680.560, 632.634 680.560, 622.634 680.560, 612.634 680.560, 602.634 680.560, 592.634 680.560, 582.634 680.560, 572.634 680.560, 562.634 680.560, 552.634 680.560, 542.634 680.560, 532.634 680.560, 522.634 680.560, 512.634 680.560, 502.634 680.560, 492.634 680.560, 482.634 680.560, 472.634 680.560, 462.634 680.560, 452.634 680.560, 442.634 680.560, 432.634 680.560, 422.634 680.560, 412.634 680.560, 402.634 680.560, 392.634 680.560, 382.634 680.560, 372.634 680.560, 362.634 680.560, 352.634 680.560, 343.440 " />
        </g>
    </g>
    <g id="ViewLayer_TechnicalLines.002" inkscape:groupmode="lineset" inkscape:label="ViewLayer_TechnicalLines.002">
        <g inkscape:groupmode="layer" id="strokes" inkscape:label="strokes">
            <path fill="none" stroke-width="1.5" stroke-linecap="round" stroke-opacity="1.0" stroke="rgb(0, 0, 0)" stroke-linejoin="round" d=" M 680.560, 680.560 680.560, 676.346 " />
            <path fill="none" stroke-width="1.5" stroke-linecap="round" stroke-opacity="1.0" stroke="rgb(0, 0, 0)" stroke-linejoin="round" d=" M 680.560, 676.346 680.560, 666.346 680.560, 656.346 680.560, 646.346 680.560, 642.634 " />
            <path fill="none" stroke-width="1.5" stroke-linecap="round" stroke-opacity="1.0" stroke="rgb(0, 0, 0)" stroke-linejoin="round" d=" M 339.226, 680.560 339.226, 670.560 339.226, 660.560 339.226, 650.560 339.226, 640.560 339.226, 630.560 339.226, 620.560 339.226, 610.560 339.226, 600.560 339.226, 590.560 339.226, 580.560 339.226, 570.560 339.226, 560.560 339.226, 550.560 339.226, 540.560 339.226, 530.560 339.226, 520.560 339.226, 510.560 339.226, 500.560 339.226, 490.560 339.226, 480.560 339.226, 470.560 339.226, 460.560 339.226, 450.560 339.226, 440.560 339.226, 430.560 339.226, 420.560 339.226, 410.560 339.226, 400.560 339.226, 390.560 339.226, 380.560 339.226, 370.560 339.226, 360.560 339.226, 350.560 339.226, 343.440 329.226, 343.440 319.226, 343.440 309.226, 343.440 305.514, 343.440 305.514, 353.440 305.514, 363.440 305.514, 373.440 305.514, 383.440 305.514, 393.440 305.514, 403.440 305.514, 413.440 305.514, 423.440 305.514, 433.440 305.514, 443.440 305.514, 453.440 305.514, 463.440 305.514, 473.440 305.514, 483.440 305.514, 493.440 305.514, 503.440 305.514, 513.440 305.514, 523.440 305.514, 533.440 305.514, 543.440 305.514, 553.440 305.514, 563.440 305.514, 573.440 305.514, 583.440 305.514, 593.440 305.514, 603.440 305.514, 613.440 305.514, 623.440 305.514, 633.440 305.514, 643.440 305.514, 653.440 305.514, 663.440 305.514, 673.440 305.514, 680.560 " />
            <path fill="none" stroke-width="1.5" stroke-linecap="round" stroke-opacity="1.0" stroke="rgb(0, 0, 0)" stroke-linejoin="round" d=" M 684.774, 343.440 684.774, 353.440 684.774, 363.440 684.774, 373.440 684.774, 383.440 684.774, 393.440 684.774, 403.440 684.774, 413.440 684.774, 423.440 684.774, 433.440 684.774, 443.440 684.774, 453.440 684.774, 463.440 684.774, 473.440 684.774, 483.440 684.774, 493.440 684.774, 503.440 684.774, 513.440 684.774, 523.440 684.774, 533.440 684.774, 543.440 684.774, 553.440 684.774, 563.440 684.774, 573.440 684.774, 583.440 684.774, 593.440 684.774, 603.440 684.774, 613.440 684.774, 623.440 684.774, 633.440 684.774, 643.440 684.774, 653.440 684.774, 663.440 684.774, 673.440 684.774, 680.560 694.774, 680.560 704.774, 680.560 714.774, 680.560 718.486, 680.560 718.486, 670.560 718.486, 660.560 718.486, 650.560 718.486, 640.560 718.486, 630.560 718.486, 620.560 718.486, 610.560 718.486, 600.560 718.486, 590.560 718.486, 580.560 718.486, 570.560 718.486, 560.560 718.486, 550.560 718.486, 540.560 718.486, 530.560 718.486, 520.560 718.486, 510.560 718.486, 500.560 718.486, 490.560 718.486, 480.560 718.486, 470.560 718.486, 460.560 718.486, 450.560 718.486, 440.560 718.486, 430.560 718.486, 420.560 718.486, 410.560 718.486, 400.560 718.486, 390.560 718.486, 380.560 718.486, 370.560 718.486, 360.560 718.486, 350.560 718.486, 343.440 708.486, 343.440 698.486, 343.440 688.486, 343.440 684.774, 343.440 " />
            <path fill="none" stroke-width="1.5" stroke-linecap="round" stroke-opacity="1.0" stroke="rgb(0, 0, 0)" stroke-linejoin="round" d=" M 305.514, 680.560 315.514, 680.560 325.514, 680.560 335.514, 680.560 339.226, 680.560 " />
            <path fill="none" stroke-width="1.5" stroke-linecap="round" stroke-opacity="1.0" stroke="rgb(0, 0, 0)" stroke-linejoin="round" d=" M 343.440, 642.634 343.440, 652.634 343.440, 662.634 343.440, 672.634 343.440, 676.346 " />
            <path fill="none" stroke-width="1.5" stroke-linecap="round" stroke-opacity="1.0" stroke="rgb(0, 0, 0)" stroke-linejoin="round" d=" M 343.440, 676.346 343.440, 680.560 " />
            <path fill="none" stroke-width="1.5" stroke-linecap="round" stroke-opacity="1.0" stroke="rgb(0, 0, 0)" stroke-linejoin="round" d=" M 343.440, 343.440 343.440, 353.440 343.440, 363.440 343.440, 373.440 343.440, 383.440 343.440, 393.440 343.440, 403.440 343.440, 413.440 343.440, 423.440 343.440, 433.440 343.440, 443.440 343.440, 453.440 343.440, 463.440 343.440, 473.440 343.440, 483.440 343.440, 493.440 343.440, 503.440 343.440, 513.440 343.440, 523.440 343.440, 533.440 343.440, 543.440 343.440, 553.440 343.440, 563.440 343.440, 573.440 343.440, 583.440 343.440, 593.440 343.440, 603.440 343.440, 613.440 343.440, 623.440 343.440, 633.440 343.440, 642.634 " />
            <path fill="none" stroke-width="1.5" stroke-linecap="round" stroke-opacity="1.0" stroke="rgb(0, 0, 0)" stroke-linejoin="round" d=" M 343.440, 680.560 353.440, 680.560 363.440, 680.560 373.440, 680.560 383.440, 680.560 393.440, 680.560 403.440, 680.560 413.440, 680.560 423.440, 680.560 433.440, 680.560 443.440, 680.560 453.440, 680.560 463.440, 680.560 473.440, 680.560 483.440, 680.560 493.440, 680.560 503.440, 680.560 513.440, 680.560 523.440, 680.560 533.440, 680.560 543.440, 680.560 553.440, 680.560 563.440, 680.560 573.440, 680.560 583.440, 680.560 593.440, 680.560 603.440, 680.560 613.440, 680.560 623.440, 680.560 633.440, 680.560 643.440, 680.560 653.440, 680.560 663.440, 680.560 673.440, 680.560 680.560, 680.560 " />
            <path fill="none" stroke-width="1.5" stroke-linecap="round" stroke-opacity="1.0" stroke="rgb(0, 0, 0)" stroke-linejoin="round" d=" M 343.440, 676.346 353.440, 676.346 363.440, 676.346 373.440, 676.346 383.440, 676.346 393.440, 676.346 403.440, 676.346 413.440, 676.346 423.440, 676.346 433.440, 676.346 443.440, 676.346 453.440, 676.346 463.440, 676.346 473.440, 676.346 483.440, 676.346 493.440, 676.346 503.440, 676.346 513.440, 676.346 523.440, 676.346 533.440, 676.346 543.440, 676.346 553.440, 676.346 563.440, 676.346 573.440, 676.346 583.440, 676.346 593.440, 676.346 603.440, 676.346 613.440, 676.346 623.440, 676.346 633.440, 676.346 643.440, 676.346 653.440, 676.346 663.440, 676.346 673.440, 676.346 680.560, 676.346 " />
            <path fill="none" stroke-width="1.5" stroke-linecap="round" stroke-opacity="1.0" stroke="rgb(0, 0, 0)" stroke-linejoin="round" d=" M 364.947, 642.634 354.947, 642.634 344.947, 642.634 343.440, 642.634 " />
            <path fill="none" stroke-width="1.5" stroke-linecap="round" stroke-opacity="1.0" stroke="rgb(0, 0, 0)" stroke-linejoin="round" d=" M 406.214, 642.634 396.214, 642.634 386.214, 642.634 376.214, 642.634 366.214, 642.634 364.947, 642.634 " />
            <path fill="none" stroke-width="1.5" stroke-linecap="round" stroke-opacity="1.0" stroke="rgb(0, 0, 0)" stroke-linejoin="round" d=" M 617.786, 642.634 607.786, 642.634 597.786, 642.634 587.786, 642.634 577.786, 642.634 567.786, 642.634 557.786, 642.634 547.786, 642.634 537.786, 642.634 527.786, 642.634 517.786, 642.634 507.786, 642.634 497.786, 642.634 487.786, 642.634 477.786, 642.634 467.786, 642.634 457.786, 642.634 447.786, 642.634 437.786, 642.634 427.786, 642.634 417.786, 642.634 406.214, 642.634 " />
            <path fill="none" stroke-width="1.5" stroke-linecap="round" stroke-opacity="1.0" stroke="rgb(0, 0, 0)" stroke-linejoin="round" d=" M 659.053, 642.634 649.053, 642.634 639.053, 642.634 629.054, 642.634 619.053, 642.634 617.786, 642.634 " />
            <path fill="none" stroke-width="1.5" stroke-linecap="round" stroke-opacity="1.0" stroke="rgb(0, 0, 0)" stroke-linejoin="round" d=" M 680.560, 642.634 670.560, 642.634 660.560, 642.634 659.053, 642.634 " />
            <path fill="none" stroke-width="1.5" stroke-linecap="round" stroke-opacity="1.0" stroke="rgb(0, 0, 0)" stroke-linejoin="round" d=" M 680.560, 343.440 670.560, 343.440 660.560, 343.440 650.560, 343.440 640.560, 343.440 630.560, 343.440 620.560, 343.440 610.560, 343.440 600.560, 343.440 590.560, 343.440 580.560, 343.440 570.560, 343.440 560.560, 343.440 550.560, 343.440 540.560, 343.440 530.560, 343.440 520.560, 343.440 510.560, 343.440 500.560, 343.440 490.560, 343.440 480.560, 343.440 470.560, 343.440 460.560, 343.440 450.560, 343.440 440.560, 343.440 430.560, 343.440 420.560, 343.440 410.560, 343.440 400.560, 343.440 390.560, 343.440 380.560, 343.440 370.560, 343.440 360.560, 343.440 350.560, 343.440 343.440, 343.440 " />
            <path fill="none" stroke-width="1.5" stroke-linecap="round" stroke-opacity="1.0" stroke="rgb(0, 0, 0)" stroke-linejoin="round" d=" M 680.560, 642.634 680.560, 632.634 680.560, 622.634 680.560, 612.634 680.560, 602.634 680.560, 592.634 680.560, 582.634 680.560, 572.634 680.560, 562.634 680.560, 552.634 680.560, 542.634 680.560, 532.634 680.560, 522.634 680.560, 512.634 680.560, 502.634 680.560, 492.634 680.560, 482.634 680.560, 472.634 680.560, 462.634 680.560, 452.634 680.560, 442.634 680.560, 432.634 680.560, 422.634 680.560, 412.634 680.560, 402.634 680.560, 392.634 680.560, 382.634 680.560, 372.634 680.560, 362.634 680.560, 352.634 680.560, 343.440 " />
        </g>
    </g>
    <g id="ViewLayer_TechnicalLines.003" inkscape:groupmode="lineset" inkscape:label="ViewLayer_TechnicalLines.003">
        <g inkscape:groupmode="layer" id="strokes" inkscape:label="strokes">
            <path fill="none" stroke-width="1.5" stroke-linecap="round" stroke-opacity="1.0" stroke="rgb(0, 0, 0)" stroke-linejoin="round" d=" M 680.560, 680.560 680.560, 676.346 " />
            <path fill="none" stroke-width="1.5" stroke-linecap="round" stroke-opacity="1.0" stroke="rgb(0, 0, 0)" stroke-linejoin="round" d=" M 680.560, 676.346 680.560, 666.346 680.560, 656.346 680.560, 646.346 680.560, 642.634 " />
            <path fill="none" stroke-width="1.5" stroke-linecap="round" stroke-opacity="1.0" stroke="rgb(0, 0, 0)" stroke-linejoin="round" d=" M 339.226, 680.560 339.226, 670.560 339.226, 660.560 339.226, 650.560 339.226, 640.560 339.226, 630.560 339.226, 620.560 339.226, 610.560 339.226, 600.560 339.226, 590.560 339.226, 580.560 339.226, 570.560 339.226, 560.560 339.226, 550.560 339.226, 540.560 339.226, 530.560 339.226, 520.560 339.226, 510.560 339.226, 500.560 339.226, 490.560 339.226, 480.560 339.226, 470.560 339.226, 460.560 339.226, 450.560 339.226, 440.560 339.226, 430.560 339.226, 420.560 339.226, 410.560 339.226, 400.560 339.226, 390.560 339.226, 380.560 339.226, 370.560 339.226, 360.560 339.226, 350.560 339.226, 343.440 329.226, 343.440 319.226, 343.440 309.226, 343.440 305.514, 343.440 305.514, 353.440 305.514, 363.440 305.514, 373.440 305.514, 383.440 305.514, 393.440 305.514, 403.440 305.514, 413.440 305.514, 423.440 305.514, 433.440 305.514, 443.440 305.514, 453.440 305.514, 463.440 305.514, 473.440 305.514, 483.440 305.514, 493.440 305.514, 503.440 305.514, 513.440 305.514, 523.440 305.514, 533.440 305.514, 543.440 305.514, 553.440 305.514, 563.440 305.514, 573.440 305.514, 583.440 305.514, 593.440 305.514, 603.440 305.514, 613.440 305.514, 623.440 305.514, 633.440 305.514, 643.440 305.514, 653.440 305.514, 663.440 305.514, 673.440 305.514, 680.560 " />
            <path fill="none" stroke-width="1.5" stroke-linecap="round" stroke-opacity="1.0" stroke="rgb(0, 0, 0)" stroke-linejoin="round" d=" M 684.774, 343.440 684.774, 353.440 684.774, 363.440 684.774, 373.440 684.774, 383.440 684.774, 393.440 684.774, 403.440 684.774, 413.440 684.774, 423.440 684.774, 433.440 684.774, 443.440 684.774, 453.440 684.774, 463.440 684.774, 473.440 684.774, 483.440 684.774, 493.440 684.774, 503.440 684.774, 513.440 684.774, 523.440 684.774, 533.440 684.774, 543.440 684.774, 553.440 684.774, 563.440 684.774, 573.440 684.774, 583.440 684.774, 593.440 684.774, 603.440 684.774, 613.440 684.774, 623.440 684.774, 633.440 684.774, 643.440 684.774, 653.440 684.774, 663.440 684.774, 673.440 684.774, 680.560 694.774, 680.560 704.774, 680.560 714.774, 680.560 718.486, 680.560 718.486, 670.560 718.486, 660.560 718.486, 650.560 718.486, 640.560 718.486, 630.560 718.486, 620.560 718.486, 610.560 718.486, 600.560 718.486, 590.560 718.486, 580.560 718.486, 570.560 718.486, 560.560 718.486, 550.560 718.486, 540.560 718.486, 530.560 718.486, 520.560 718.486, 510.560 718.486, 500.560 718.486, 490.560 718.486, 480.560 718.486, 470.560 718.486, 460.560 718.486, 450.560 718.486, 440.560 718.486, 430.560 718.486, 420.560 718.486, 410.560 718.486, 400.560 718.486, 390.560 718.486, 380.560 718.486, 370.560 718.486, 360.560 718.486, 350.560 718.486, 343.440 708.486, 343.440 698.486, 343.440 688.486, 343.440 684.774, 343.440 " />
            <path fill="none" stroke-width="1.5" stroke-linecap="round" stroke-opacity="1.0" stroke="rgb(0, 0, 0)" stroke-linejoin="round" d=" M 305.514, 680.560 315.514, 680.560 325.514, 680.560 335.514, 680.560 339.226, 680.560 " />
            <path fill="none" stroke-width="1.5" stroke-linecap="round" stroke-opacity="1.0" stroke="rgb(0, 0, 0)" stroke-linejoin="round" d=" M 343.440, 642.634 343.440, 652.634 343.440, 662.634 343.440, 672.634 343.440, 676.346 " />
            <path fill="none" stroke-width="1.5" stroke-linecap="round" stroke-opacity="1.0" stroke="rgb(0, 0, 0)" stroke-linejoin="round" d=" M 343.440, 676.346 343.440, 680.560 " />
            <path fill="none" stroke-width="1.5" stroke-linecap="round" stroke-opacity="1.0" stroke="rgb(0, 0, 0)" stroke-linejoin="round" d=" M 343.440, 343.440 343.440, 353.440 343.440, 363.440 343.440, 373.440 343.440, 383.440 343.440, 393.440 343.440, 403.440 343.440, 413.440 343.440, 423.440 343.440, 433.440 343.440, 443.440 343.440, 453.440 343.440, 463.440 343.440, 473.440 343.440, 483.440 343.440, 493.440 343.440, 503.440 343.440, 513.440 343.440, 523.440 343.440, 533.440 343.440, 543.440 343.440, 553.440 343.440, 563.440 343.440, 573.440 343.440, 583.440 343.440, 593.440 343.440, 603.440 343.440, 613.440 343.440, 623.440 343.440, 633.440 343.440, 642.634 " />
            <path fill="none" stroke-width="1.5" stroke-linecap="round" stroke-opacity="1.0" stroke="rgb(0, 0, 0)" stroke-linejoin="round" d=" M 343.440, 680.560 353.440, 680.560 363.440, 680.560 373.440, 680.560 383.440, 680.560 393.440, 680.560 403.440, 680.560 413.440, 680.560 423.440, 680.560 433.440, 680.560 443.440, 680.560 453.440, 680.560 463.440, 680.560 473.440, 680.560 483.440, 680.560 493.440, 680.560 503.440, 680.560 513.440, 680.560 523.440, 680.560 533.440, 680.560 543.440, 680.560 553.440, 680.560 563.440, 680.560 573.440, 680.560 583.440, 680.560 593.440, 680.560 603.440, 680.560 613.440, 680.560 623.440, 680.560 633.440, 680.560 643.440, 680.560 653.440, 680.560 663.440, 680.560 673.440, 680.560 680.560, 680.560 " />
            <path fill="none" stroke-width="1.5" stroke-linecap="round" stroke-opacity="1.0" stroke="rgb(0, 0, 0)" stroke-linejoin="round" d=" M 343.440, 676.346 353.440, 676.346 363.440, 676.346 373.440, 676.346 383.440, 676.346 393.440, 676.346 403.440, 676.346 413.440, 676.346 423.440, 676.346 433.440, 676.346 443.440, 676.346 453.440, 676.346 463.440, 676.346 473.440, 676.346 483.440, 676.346 493.440, 676.346 503.440, 676.346 513.440, 676.346 523.440, 676.346 533.440, 676.346 543.440, 676.346 553.440, 676.346 563.440, 676.346 573.440, 676.346 583.440, 676.346 593.440, 676.346 603.440, 676.346 613.440, 676.346 623.440, 676.346 633.440, 676.346 643.440, 676.346 653.440, 676.346 663.440, 676.346 673.440, 676.346 680.560, 676.346 " />
            <path fill="none" stroke-width="1.5" stroke-linecap="round" stroke-opacity="1.0" stroke="rgb(0, 0, 0)" stroke-linejoin="round" d=" M 364.947, 642.634 354.947, 642.634 344.947, 642.634 343.440, 642.634 " />
            <path fill="none" stroke-width="1.5" stroke-linecap="round" stroke-opacity="1.0" stroke="rgb(0, 0, 0)" stroke-linejoin="round" d=" M 406.214, 642.634 396.214, 642.634 386.214, 642.634 376.214, 642.634 366.214, 642.634 364.947, 642.634 " />
            <path fill="none" stroke-width="1.5" stroke-linecap="round" stroke-opacity="1.0" stroke="rgb(0, 0, 0)" stroke-linejoin="round" d=" M 617.786, 642.634 607.786, 642.634 597.786, 642.634 587.786, 642.634 577.786, 642.634 567.786, 642.634 557.786, 642.634 547.786, 642.634 537.786, 642.634 527.786, 642.634 517.786, 642.634 507.786, 642.634 497.786, 642.634 487.786, 642.634 477.786, 642.634 467.786, 642.634 457.786, 642.634 447.786, 642.634 437.786, 642.634 427.786, 642.634 417.786, 642.634 406.214, 642.634 " />
            <path fill="none" stroke-width="1.5" stroke-linecap="round" stroke-opacity="1.0" stroke="rgb(0, 0, 0)" stroke-linejoin="round" d=" M 659.053, 642.634 649.053, 642.634 639.053, 642.634 629.054, 642.634 619.053, 642.634 617.786, 642.634 " />
            <path fill="none" stroke-width="1.5" stroke-linecap="round" stroke-opacity="1.0" stroke="rgb(0, 0, 0)" stroke-linejoin="round" d=" M 680.560, 642.634 670.560, 642.634 660.560, 642.634 659.053, 642.634 " />
            <path fill="none" stroke-width="1.5" stroke-linecap="round" stroke-opacity="1.0" stroke="rgb(0, 0, 0)" stroke-linejoin="round" d=" M 680.560, 343.440 670.560, 343.440 660.560, 343.440 650.560, 343.440 640.560, 343.440 630.560, 343.440 620.560, 343.440 610.560, 343.440 600.560, 343.440 590.560, 343.440 580.560, 343.440 570.560, 343.440 560.560, 343.440 550.560, 343.440 540.560, 343.440 530.560, 343.440 520.560, 343.440 510.560, 343.440 500.560, 343.440 490.560, 343.440 480.560, 343.440 470.560, 343.440 460.560, 343.440 450.560, 343.440 440.560, 343.440 430.560, 343.440 420.560, 343.440 410.560, 343.440 400.560, 343.440 390.560, 343.440 380.560, 343.440 370.560, 343.440 360.560, 343.440 350.560, 343.440 343.440, 343.440 " />
            <path fill="none" stroke-width="1.5" stroke-linecap="round" stroke-opacity="1.0" stroke="rgb(0, 0, 0)" stroke-linejoin="round" d=" M 680.560, 642.634 680.560, 632.634 680.560, 622.634 680.560, 612.634 680.560, 602.634 680.560, 592.634 680.560, 582.634 680.560, 572.634 680.560, 562.634 680.560, 552.634 680.560, 542.634 680.560, 532.634 680.560, 522.634 680.560, 512.634 680.560, 502.634 680.560, 492.634 680.560, 482.634 680.560, 472.634 680.560, 462.634 680.560, 452.634 680.560, 442.634 680.560, 432.634 680.560, 422.634 680.560, 412.634 680.560, 402.634 680.560, 392.634 680.560, 382.634 680.560, 372.634 680.560, 362.634 680.560, 352.634 680.560, 343.440 " />
        </g>
    </g>
    <g id="ViewLayer_TechnicalLines.004" xmlns:inkscape="http://www.inkscape.org/namespaces/inkscape" inkscape:groupmode="lineset" inkscape:label="ViewLayer_TechnicalLines.004">
        <g xmlns:inkscape="http://www.inkscape.org/namespaces/inkscape" inkscape:groupmode="layer" id="strokes" inkscape:label="strokes">
            <path fill="none" stroke-width="1.5" stroke-linecap="round" stroke-opacity="1.0" stroke="rgb(0, 0, 0)" stroke-linejoin="round" d=" M 680.560, 680.560 680.560, 676.346 " />
            <path fill="none" stroke-width="1.5" stroke-linecap="round" stroke-opacity="1.0" stroke="rgb(0, 0, 0)" stroke-linejoin="round" d=" M 680.560, 676.346 680.560, 666.346 680.560, 656.346 680.560, 646.346 680.560, 642.634 " />
            <path fill="none" stroke-width="1.5" stroke-linecap="round" stroke-opacity="1.0" stroke="rgb(0, 0, 0)" stroke-linejoin="round" d=" M 339.226, 680.560 339.226, 670.560 339.226, 660.560 339.226, 650.560 339.226, 640.560 339.226, 630.560 339.226, 620.560 339.226, 610.560 339.226, 600.560 339.226, 590.560 339.226, 580.560 339.226, 570.560 339.226, 560.560 339.226, 550.560 339.226, 540.560 339.226, 530.560 339.226, 520.560 339.226, 510.560 339.226, 500.560 339.226, 490.560 339.226, 480.560 339.226, 470.560 339.226, 460.560 339.226, 450.560 339.226, 440.560 339.226, 430.560 339.226, 420.560 339.226, 410.560 339.226, 400.560 339.226, 390.560 339.226, 380.560 339.226, 370.560 339.226, 360.560 339.226, 350.560 339.226, 343.440 329.226, 343.440 319.226, 343.440 309.226, 343.440 305.514, 343.440 305.514, 353.440 305.514, 363.440 305.514, 373.440 305.514, 383.440 305.514, 393.440 305.514, 403.440 305.514, 413.440 305.514, 423.440 305.514, 433.440 305.514, 443.440 305.514, 453.440 305.514, 463.440 305.514, 473.440 305.514, 483.440 305.514, 493.440 305.514, 503.440 305.514, 513.440 305.514, 523.440 305.514, 533.440 305.514, 543.440 305.514, 553.440 305.514, 563.440 305.514, 573.440 305.514, 583.440 305.514, 593.440 305.514, 603.440 305.514, 613.440 305.514, 623.440 305.514, 633.440 305.514, 643.440 305.514, 653.440 305.514, 663.440 305.514, 673.440 305.514, 680.560 " />
            <path fill="none" stroke-width="1.5" stroke-linecap="round" stroke-opacity="1.0" stroke="rgb(0, 0, 0)" stroke-linejoin="round" d=" M 684.774, 343.440 684.774, 353.440 684.774, 363.440 684.774, 373.440 684.774, 383.440 684.774, 393.440 684.774, 403.440 684.774, 413.440 684.774, 423.440 684.774, 433.440 684.774, 443.440 684.774, 453.440 684.774, 463.440 684.774, 473.440 684.774, 483.440 684.774, 493.440 684.774, 503.440 684.774, 513.440 684.774, 523.440 684.774, 533.440 684.774, 543.440 684.774, 553.440 684.774, 563.440 684.774, 573.440 684.774, 583.440 684.774, 593.440 684.774, 603.440 684.774, 613.440 684.774, 623.440 684.774, 633.440 684.774, 643.440 684.774, 653.440 684.774, 663.440 684.774, 673.440 684.774, 680.560 694.774, 680.560 704.774, 680.560 714.774, 680.560 718.486, 680.560 718.486, 670.560 718.486, 660.560 718.486, 650.560 718.486, 640.560 718.486, 630.560 718.486, 620.560 718.486, 610.560 718.486, 600.560 718.486, 590.560 718.486, 580.560 718.486, 570.560 718.486, 560.560 718.486, 550.560 718.486, 540.560 718.486, 530.560 718.486, 520.560 718.486, 510.560 718.486, 500.560 718.486, 490.560 718.486, 480.560 718.486, 470.560 718.486, 460.560 718.486, 450.560 718.486, 440.560 718.486, 430.560 718.486, 420.560 718.486, 410.560 718.486, 400.560 718.486, 390.560 718.486, 380.560 718.486, 370.560 718.486, 360.560 718.486, 350.560 718.486, 343.440 708.486, 343.440 698.486, 343.440 688.486, 343.440 684.774, 343.440 " />
            <path fill="none" stroke-width="1.5" stroke-linecap="round" stroke-opacity="1.0" stroke="rgb(0, 0, 0)" stroke-linejoin="round" d=" M 305.514, 680.560 315.514, 680.560 325.514, 680.560 335.514, 680.560 339.226, 680.560 " />
            <path fill="none" stroke-width="1.5" stroke-linecap="round" stroke-opacity="1.0" stroke="rgb(0, 0, 0)" stroke-linejoin="round" d=" M 343.440, 642.634 343.440, 652.634 343.440, 662.634 343.440, 672.634 343.440, 676.346 " />
            <path fill="none" stroke-width="1.5" stroke-linecap="round" stroke-opacity="1.0" stroke="rgb(0, 0, 0)" stroke-linejoin="round" d=" M 343.440, 676.346 343.440, 680.560 " />
            <path fill="none" stroke-width="1.5" stroke-linecap="round" stroke-opacity="1.0" stroke="rgb(0, 0, 0)" stroke-linejoin="round" d=" M 343.440, 343.440 343.440, 353.440 343.440, 363.440 343.440, 373.440 343.440, 383.440 343.440, 393.440 343.440, 403.440 343.440, 413.440 343.440, 423.440 343.440, 433.440 343.440, 443.440 343.440, 453.440 343.440, 463.440 343.440, 473.440 343.440, 483.440 343.440, 493.440 343.440, 503.440 343.440, 513.440 343.440, 523.440 343.440, 533.440 343.440, 543.440 343.440, 553.440 343.440, 563.440 343.440, 573.440 343.440, 583.440 343.440, 593.440 343.440, 603.440 343.440, 613.440 343.440, 623.440 343.440, 633.440 343.440, 642.634 " />
            <path fill="none" stroke-width="1.5" stroke-linecap="round" stroke-opacity="1.0" stroke="rgb(0, 0, 0)" stroke-linejoin="round" d=" M 343.440, 680.560 353.440, 680.560 363.440, 680.560 373.440, 680.560 383.440, 680.560 393.440, 680.560 403.440, 680.560 413.440, 680.560 423.440, 680.560 433.440, 680.560 443.440, 680.560 453.440, 680.560 463.440, 680.560 473.440, 680.560 483.440, 680.560 493.440, 680.560 503.440, 680.560 513.440, 680.560 523.440, 680.560 533.440, 680.560 543.440, 680.560 553.440, 680.560 563.440, 680.560 573.440, 680.560 583.440, 680.560 593.440, 680.560 603.440, 680.560 613.440, 680.560 623.440, 680.560 633.440, 680.560 643.440, 680.560 653.440, 680.560 663.440, 680.560 673.440, 680.560 680.560, 680.560 " />
            <path fill="none" stroke-width="1.5" stroke-linecap="round" stroke-opacity="1.0" stroke="rgb(0, 0, 0)" stroke-linejoin="round" d=" M 343.440, 676.346 353.440, 676.346 363.440, 676.346 373.440, 676.346 383.440, 676.346 393.440, 676.346 403.440, 676.346 413.440, 676.346 423.440, 676.346 433.440, 676.346 443.440, 676.346 453.440, 676.346 463.440, 676.346 473.440, 676.346 483.440, 676.346 493.440, 676.346 503.440, 676.346 513.440, 676.346 523.440, 676.346 533.440, 676.346 543.440, 676.346 553.440, 676.346 563.440, 676.346 573.440, 676.346 583.440, 676.346 593.440, 676.346 603.440, 676.346 613.440, 676.346 623.440, 676.346 633.440, 676.346 643.440, 676.346 653.440, 676.346 663.440, 676.346 673.440, 676.346 680.560, 676.346 " />
            <path fill="none" stroke-width="1.5" stroke-linecap="round" stroke-opacity="1.0" stroke="rgb(0, 0, 0)" stroke-linejoin="round" d=" M 364.947, 642.634 354.947, 642.634 344.947, 642.634 343.440, 642.634 " />
            <path fill="none" stroke-width="1.5" stroke-linecap="round" stroke-opacity="1.0" stroke="rgb(0, 0, 0)" stroke-linejoin="round" d=" M 406.214, 642.634 396.214, 642.634 386.214, 642.634 376.214, 642.634 366.214, 642.634 364.947, 642.634 " />
            <path fill="none" stroke-width="1.5" stroke-linecap="round" stroke-opacity="1.0" stroke="rgb(0, 0, 0)" stroke-linejoin="round" d=" M 617.786, 642.634 607.786, 642.634 597.786, 642.634 587.786, 642.634 577.786, 642.634 567.786, 642.634 557.786, 642.634 547.786, 642.634 537.786, 642.634 527.786, 642.634 517.786, 642.634 507.786, 642.634 497.786, 642.634 487.786, 642.634 477.786, 642.634 467.786, 642.634 457.786, 642.634 447.786, 642.634 437.786, 642.634 427.786, 642.634 417.786, 642.634 406.214, 642.634 " />
            <path fill="none" stroke-width="1.5" stroke-linecap="round" stroke-opacity="1.0" stroke="rgb(0, 0, 0)" stroke-linejoin="round" d=" M 659.053, 642.634 649.053, 642.634 639.053, 642.634 629.054, 642.634 619.053, 642.634 617.786, 642.634 " />
            <path fill="none" stroke-width="1.5" stroke-linecap="round" stroke-opacity="1.0" stroke="rgb(0, 0, 0)" stroke-linejoin="round" d=" M 680.560, 642.634 670.560, 642.634 660.560, 642.634 659.053, 642.634 " />
            <path fill="none" stroke-width="1.5" stroke-linecap="round" stroke-opacity="1.0" stroke="rgb(0, 0, 0)" stroke-linejoin="round" d=" M 680.560, 343.440 670.560, 343.440 660.560, 343.440 650.560, 343.440 640.560, 343.440 630.560, 343.440 620.560, 343.440 610.560, 343.440 600.560, 343.440 590.560, 343.440 580.560, 343.440 570.560, 343.440 560.560, 343.440 550.560, 343.440 540.560, 343.440 530.560, 343.440 520.560, 343.440 510.560, 343.440 500.560, 343.440 490.560, 343.440 480.560, 343.440 470.560, 343.440 460.560, 343.440 450.560, 343.440 440.560, 343.440 430.560, 343.440 420.560, 343.440 410.560, 343.440 400.560, 343.440 390.560, 343.440 380.560, 343.440 370.560, 343.440 360.560, 343.440 350.560, 343.440 343.440, 343.440 " />
            <path fill="none" stroke-width="1.5" stroke-linecap="round" stroke-opacity="1.0" stroke="rgb(0, 0, 0)" stroke-linejoin="round" d=" M 680.560, 642.634 680.560, 632.634 680.560, 622.634 680.560, 612.634 680.560, 602.634 680.560, 592.634 680.560, 582.634 680.560, 572.634 680.560, 562.634 680.560, 552.634 680.560, 542.634 680.560, 532.634 680.560, 522.634 680.560, 512.634 680.560, 502.634 680.560, 492.634 680.560, 482.634 680.560, 472.634 680.560, 462.634 680.560, 452.634 680.560, 442.634 680.560, 432.634 680.560, 422.634 680.560, 412.634 680.560, 402.634 680.560, 392.634 680.560, 382.634 680.560, 372.634 680.560, 362.634 680.560, 352.634 680.560, 343.440 " />
        </g>
    </g>
</svg>
