<?xml version='1.0' encoding='ascii'?>
<svg xmlns="http://www.w3.org/2000/svg" xmlns:inkscape="http://www.inkscape.org/namespaces/inkscape" version="1.1" width="1024" height="1024">
    <g id="ViewLayer_LineSet" inkscape:groupmode="lineset" inkscape:label="ViewLayer_LineSet">
        <g inkscape:groupmode="layer" id="strokes" inkscape:label="strokes">
            <path fill="none" stroke-width="3.0" stroke-linecap="butt" stroke-opacity="1.0" stroke="rgb(0, 0, 0)" stroke-linejoin="round" d=" M 458.491, 568.326 458.491, 568.326 458.491, 568.326 468.491, 568.326 478.491, 568.326 488.491, 568.326 498.491, 568.326 508.491, 568.326 518.491, 568.326 528.491, 568.326 538.491, 568.326 548.491, 568.326 558.491, 568.326 568.491, 568.326 571.142, 568.326 571.142, 568.326 571.142, 558.326 571.142, 548.326 571.142, 545.795 " />
            <path fill="none" stroke-width="3.0" stroke-linecap="butt" stroke-opacity="1.0" stroke="rgb(0, 0, 0)" stroke-linejoin="round" d=" M 458.491, 568.326 468.491, 568.326 478.491, 568.326 488.491, 568.326 498.491, 568.326 508.491, 568.326 518.491, 568.326 528.491, 568.326 538.491, 568.326 548.491, 568.326 558.491, 568.326 568.491, 568.326 571.142, 568.326 " />
            <path fill="none" stroke-width="3.0" stroke-linecap="butt" stroke-opacity="1.0" stroke="rgb(0, 0, 0)" stroke-linejoin="round" d=" M 464.123, 512.000 464.123, 502.000 464.123, 492.000 464.123, 482.000 464.123, 472.000 464.123, 462.000 464.123, 455.674 464.123, 455.674 454.123, 455.674 452.858, 455.674 452.858, 465.674 452.858, 475.674 452.858, 485.674 452.858, 495.674 452.858, 505.674 452.858, 506.367 " />
            <path fill="none" stroke-width="3.0" stroke-linecap="butt" stroke-opacity="1.0" stroke="rgb(0, 0, 0)" stroke-linejoin="round" d=" M 464.123, 455.674 464.123, 465.674 464.123, 475.674 464.123, 485.674 464.123, 495.674 464.123, 505.674 464.123, 512.000 " />
            <path fill="none" stroke-width="3.0" stroke-linecap="butt" stroke-opacity="1.0" stroke="rgb(0, 0, 0)" stroke-linejoin="round" d=" M 571.142, 545.795 571.142, 535.795 571.142, 525.795 571.142, 515.795 571.142, 512.000 " />
            <path fill="none" stroke-width="3.0" stroke-linecap="butt" stroke-opacity="1.0" stroke="rgb(0, 0, 0)" stroke-linejoin="round" d=" M 571.142, 545.795 571.142, 535.795 571.142, 525.795 571.142, 515.795 571.142, 512.000 " />
            <path fill="none" stroke-width="3.0" stroke-linecap="butt" stroke-opacity="1.0" stroke="rgb(0, 0, 0)" stroke-linejoin="round" d=" M 571.142, 568.326 571.142, 558.326 571.142, 548.326 571.142, 545.795 " />
            <path fill="none" stroke-width="3.0" stroke-linecap="butt" stroke-opacity="1.0" stroke="rgb(0, 0, 0)" stroke-linejoin="round" d=" M 571.142, 545.795 571.142, 545.795 571.142, 545.795 561.142, 545.795 551.142, 545.795 541.142, 545.795 531.142, 545.795 521.142, 545.795 511.142, 545.795 501.142, 545.795 491.142, 545.795 481.142, 545.795 471.142, 545.795 464.123, 545.795 464.123, 545.795 458.491, 545.795 " />
            <path fill="none" stroke-width="3.0" stroke-linecap="butt" stroke-opacity="1.0" stroke="rgb(0, 0, 0)" stroke-linejoin="round" d=" M 458.491, 545.795 458.491, 545.795 458.491, 551.428 458.491, 551.428 458.491, 561.428 458.491, 568.326 458.491, 568.326 458.491, 568.326 458.491, 568.326 468.491, 568.326 478.491, 568.326 488.491, 568.326 498.491, 568.326 508.491, 568.326 518.491, 568.326 528.491, 568.326 538.491, 568.326 548.491, 568.326 558.491, 568.326 568.491, 568.326 571.142, 568.326 " />
            <path fill="none" stroke-width="3.0" stroke-linecap="butt" stroke-opacity="1.0" stroke="rgb(0, 0, 0)" stroke-linejoin="round" d=" M 464.123, 512.000 464.123, 506.367 464.123, 506.367 454.123, 506.367 452.858, 506.367 452.858, 506.367 452.858, 506.367 452.858, 516.367 452.858, 526.367 452.858, 536.367 452.858, 546.367 452.858, 551.428 452.858, 551.428 458.491, 551.428 " />
            <path fill="none" stroke-width="3.0" stroke-linecap="butt" stroke-opacity="1.0" stroke="rgb(0, 0, 0)" stroke-linejoin="round" d=" M 464.123, 506.367 464.123, 512.000 464.123, 512.000 464.123, 522.000 464.123, 523.265 464.123, 533.265 464.123, 543.265 464.123, 545.795 464.123, 545.795 " />
            <path fill="none" stroke-width="3.0" stroke-linecap="butt" stroke-opacity="1.0" stroke="rgb(0, 0, 0)" stroke-linejoin="round" d=" M 452.858, 551.428 458.491, 551.428 458.491, 551.428 464.123, 551.428 464.123, 545.795 464.123, 545.795 " />
            <path fill="none" stroke-width="3.0" stroke-linecap="butt" stroke-opacity="1.0" stroke="rgb(0, 0, 0)" stroke-linejoin="round" d=" M 464.123, 512.000 464.123, 512.000 " />
            <path fill="none" stroke-width="3.0" stroke-linecap="butt" stroke-opacity="1.0" stroke="rgb(0, 0, 0)" stroke-linejoin="round" d=" M 464.123, 545.795 464.123, 535.795 464.123, 525.795 464.123, 523.265 464.123, 523.265 464.123, 513.265 464.123, 512.000 " />
            <path fill="none" stroke-width="3.0" stroke-linecap="butt" stroke-opacity="1.0" stroke="rgb(0, 0, 0)" stroke-linejoin="round" d=" M 571.142, 545.795 571.142, 545.795 " />
            <path fill="none" stroke-width="3.0" stroke-linecap="butt" stroke-opacity="1.0" stroke="rgb(0, 0, 0)" stroke-linejoin="round" d=" M 458.491, 545.795 458.491, 545.795 " />
            <path fill="none" stroke-width="3.0" stroke-linecap="butt" stroke-opacity="1.0" stroke="rgb(0, 0, 0)" stroke-linejoin="round" d=" M 571.142, 545.795 571.142, 545.795 " />
            <path fill="none" stroke-width="3.0" stroke-linecap="butt" stroke-opacity="1.0" stroke="rgb(0, 0, 0)" stroke-linejoin="round" d=" M 571.142, 545.795 571.142, 545.795 " />
            <path fill="none" stroke-width="3.0" stroke-linecap="butt" stroke-opacity="1.0" stroke="rgb(0, 0, 0)" stroke-linejoin="round" d=" M 571.142, 512.000 571.142, 512.000 " />
            <path fill="none" stroke-width="3.0" stroke-linecap="butt" stroke-opacity="1.0" stroke="rgb(0, 0, 0)" stroke-linejoin="round" d=" M 571.142, 512.000 561.142, 512.000 551.142, 512.000 541.142, 512.000 531.142, 512.000 521.142, 512.000 511.142, 512.000 501.142, 512.000 491.142, 512.000 481.142, 512.000 471.142, 512.000 464.123, 512.000 464.123, 512.000 464.123, 512.000 " />
            <path fill="none" stroke-width="3.0" stroke-linecap="butt" stroke-opacity="1.0" stroke="rgb(0, 0, 0)" stroke-linejoin="round" d=" M 571.142, 545.795 571.142, 545.795 " />
            <path fill="none" stroke-width="3.0" stroke-linecap="butt" stroke-opacity="1.0" stroke="rgb(0, 0, 0)" stroke-linejoin="round" d=" M 571.142, 512.000 571.142, 512.000 " />
        </g>
    </g>
    <g id="ViewLayer_TechnicalLines" inkscape:groupmode="lineset" inkscape:label="ViewLayer_TechnicalLines">
        <g inkscape:groupmode="layer" id="strokes" inkscape:label="strokes">
            <path fill="none" stroke-width="3.0" stroke-linecap="butt" stroke-opacity="1.0" stroke="rgb(0, 0, 0)" stroke-linejoin="round" d=" M 458.491, 568.326 458.491, 568.326 458.491, 568.326 468.491, 568.326 478.491, 568.326 488.491, 568.326 498.491, 568.326 508.491, 568.326 518.491, 568.326 528.491, 568.326 538.491, 568.326 548.491, 568.326 558.491, 568.326 568.491, 568.326 571.142, 568.326 571.142, 568.326 571.142, 558.326 571.142, 548.326 571.142, 545.795 " />
            <path fill="none" stroke-width="3.0" stroke-linecap="butt" stroke-opacity="1.0" stroke="rgb(0, 0, 0)" stroke-linejoin="round" d=" M 458.491, 568.326 468.491, 568.326 478.491, 568.326 488.491, 568.326 498.491, 568.326 508.491, 568.326 518.491, 568.326 528.491, 568.326 538.491, 568.326 548.491, 568.326 558.491, 568.326 568.491, 568.326 571.142, 568.326 " />
            <path fill="none" stroke-width="3.0" stroke-linecap="butt" stroke-opacity="1.0" stroke="rgb(0, 0, 0)" stroke-linejoin="round" d=" M 464.123, 512.000 464.123, 502.000 464.123, 492.000 464.123, 482.000 464.123, 472.000 464.123, 462.000 464.123, 455.674 464.123, 455.674 454.123, 455.674 452.858, 455.674 452.858, 465.674 452.858, 475.674 452.858, 485.674 452.858, 495.674 452.858, 505.674 452.858, 506.367 " />
            <path fill="none" stroke-width="3.0" stroke-linecap="butt" stroke-opacity="1.0" stroke="rgb(0, 0, 0)" stroke-linejoin="round" d=" M 464.123, 455.674 464.123, 465.674 464.123, 475.674 464.123, 485.674 464.123, 495.674 464.123, 505.674 464.123, 512.000 " />
            <path fill="none" stroke-width="3.0" stroke-linecap="butt" stroke-opacity="1.0" stroke="rgb(0, 0, 0)" stroke-linejoin="round" d=" M 571.142, 545.795 571.142, 535.795 571.142, 525.795 571.142, 515.795 571.142, 512.000 " />
            <path fill="none" stroke-width="3.0" stroke-linecap="butt" stroke-opacity="1.0" stroke="rgb(0, 0, 0)" stroke-linejoin="round" d=" M 571.142, 545.795 571.142, 535.795 571.142, 525.795 571.142, 515.795 571.142, 512.000 " />
            <path fill="none" stroke-width="3.0" stroke-linecap="butt" stroke-opacity="1.0" stroke="rgb(0, 0, 0)" stroke-linejoin="round" d=" M 571.142, 568.326 571.142, 558.326 571.142, 548.326 571.142, 545.795 " />
            <path fill="none" stroke-width="3.0" stroke-linecap="butt" stroke-opacity="1.0" stroke="rgb(0, 0, 0)" stroke-linejoin="round" d=" M 571.142, 545.795 571.142, 545.795 571.142, 545.795 561.142, 545.795 551.142, 545.795 541.142, 545.795 531.142, 545.795 521.142, 545.795 511.142, 545.795 501.142, 545.795 491.142, 545.795 481.142, 545.795 471.142, 545.795 464.123, 545.795 464.123, 545.795 458.491, 545.795 " />
            <path fill="none" stroke-width="3.0" stroke-linecap="butt" stroke-opacity="1.0" stroke="rgb(0, 0, 0)" stroke-linejoin="round" d=" M 458.491, 545.795 458.491, 545.795 458.491, 551.428 458.491, 551.428 458.491, 561.428 458.491, 568.326 458.491, 568.326 458.491, 568.326 458.491, 568.326 468.491, 568.326 478.491, 568.326 488.491, 568.326 498.491, 568.326 508.491, 568.326 518.491, 568.326 528.491, 568.326 538.491, 568.326 548.491, 568.326 558.491, 568.326 568.491, 568.326 571.142, 568.326 " />
            <path fill="none" stroke-width="3.0" stroke-linecap="butt" stroke-opacity="1.0" stroke="rgb(0, 0, 0)" stroke-linejoin="round" d=" M 464.123, 512.000 464.123, 506.367 464.123, 506.367 454.123, 506.367 452.858, 506.367 452.858, 506.367 452.858, 506.367 452.858, 516.367 452.858, 526.367 452.858, 536.367 452.858, 546.367 452.858, 551.428 452.858, 551.428 458.491, 551.428 " />
            <path fill="none" stroke-width="3.0" stroke-linecap="butt" stroke-opacity="1.0" stroke="rgb(0, 0, 0)" stroke-linejoin="round" d=" M 464.123, 506.367 464.123, 512.000 464.123, 512.000 464.123, 522.000 464.123, 523.265 464.123, 533.265 464.123, 543.265 464.123, 545.795 464.123, 545.795 " />
            <path fill="none" stroke-width="3.0" stroke-linecap="butt" stroke-opacity="1.0" stroke="rgb(0, 0, 0)" stroke-linejoin="round" d=" M 452.858, 551.428 458.491, 551.428 458.491, 551.428 464.123, 551.428 464.123, 545.795 464.123, 545.795 " />
            <path fill="none" stroke-width="3.0" stroke-linecap="butt" stroke-opacity="1.0" stroke="rgb(0, 0, 0)" stroke-linejoin="round" d=" M 464.123, 512.000 464.123, 512.000 " />
            <path fill="none" stroke-width="3.0" stroke-linecap="butt" stroke-opacity="1.0" stroke="rgb(0, 0, 0)" stroke-linejoin="round" d=" M 464.123, 545.795 464.123, 535.795 464.123, 525.795 464.123, 523.265 464.123, 523.265 464.123, 513.265 464.123, 512.000 " />
            <path fill="none" stroke-width="3.0" stroke-linecap="butt" stroke-opacity="1.0" stroke="rgb(0, 0, 0)" stroke-linejoin="round" d=" M 571.142, 545.795 571.142, 545.795 " />
            <path fill="none" stroke-width="3.0" stroke-linecap="butt" stroke-opacity="1.0" stroke="rgb(0, 0, 0)" stroke-linejoin="round" d=" M 458.491, 545.795 458.491, 545.795 " />
            <path fill="none" stroke-width="3.0" stroke-linecap="butt" stroke-opacity="1.0" stroke="rgb(0, 0, 0)" stroke-linejoin="round" d=" M 571.142, 545.795 571.142, 545.795 " />
            <path fill="none" stroke-width="3.0" stroke-linecap="butt" stroke-opacity="1.0" stroke="rgb(0, 0, 0)" stroke-linejoin="round" d=" M 571.142, 545.795 571.142, 545.795 " />
            <path fill="none" stroke-width="3.0" stroke-linecap="butt" stroke-opacity="1.0" stroke="rgb(0, 0, 0)" stroke-linejoin="round" d=" M 571.142, 512.000 571.142, 512.000 " />
            <path fill="none" stroke-width="3.0" stroke-linecap="butt" stroke-opacity="1.0" stroke="rgb(0, 0, 0)" stroke-linejoin="round" d=" M 571.142, 512.000 561.142, 512.000 551.142, 512.000 541.142, 512.000 531.142, 512.000 521.142, 512.000 511.142, 512.000 501.142, 512.000 491.142, 512.000 481.142, 512.000 471.142, 512.000 464.123, 512.000 464.123, 512.000 464.123, 512.000 " />
            <path fill="none" stroke-width="3.0" stroke-linecap="butt" stroke-opacity="1.0" stroke="rgb(0, 0, 0)" stroke-linejoin="round" d=" M 571.142, 545.795 571.142, 545.795 " />
            <path fill="none" stroke-width="3.0" stroke-linecap="butt" stroke-opacity="1.0" stroke="rgb(0, 0, 0)" stroke-linejoin="round" d=" M 571.142, 512.000 571.142, 512.000 " />
        </g>
    </g>
    <g id="ViewLayer_TechnicalLines.001" inkscape:groupmode="lineset" inkscape:label="ViewLayer_TechnicalLines.001">
        <g inkscape:groupmode="layer" id="strokes" inkscape:label="strokes">
            <path fill="none" stroke-width="1.5" stroke-linecap="round" stroke-opacity="1.0" stroke="rgb(0, 0, 0)" stroke-linejoin="round" d=" M 458.491, 568.326 458.491, 568.326 458.491, 568.326 468.491, 568.326 478.491, 568.326 488.491, 568.326 498.491, 568.326 508.491, 568.326 518.491, 568.326 528.491, 568.326 538.491, 568.326 548.491, 568.326 558.491, 568.326 568.491, 568.326 571.142, 568.326 571.142, 568.326 571.142, 558.326 571.142, 548.326 571.142, 545.795 " />
            <path fill="none" stroke-width="1.5" stroke-linecap="round" stroke-opacity="1.0" stroke="rgb(0, 0, 0)" stroke-linejoin="round" d=" M 458.491, 568.326 468.491, 568.326 478.491, 568.326 488.491, 568.326 498.491, 568.326 508.491, 568.326 518.491, 568.326 528.491, 568.326 538.491, 568.326 548.491, 568.326 558.491, 568.326 568.491, 568.326 571.142, 568.326 " />
            <path fill="none" stroke-width="1.5" stroke-linecap="round" stroke-opacity="1.0" stroke="rgb(0, 0, 0)" stroke-linejoin="round" d=" M 464.123, 512.000 464.123, 502.000 464.123, 492.000 464.123, 482.000 464.123, 472.000 464.123, 462.000 464.123, 455.674 464.123, 455.674 454.123, 455.674 452.858, 455.674 452.858, 465.674 452.858, 475.674 452.858, 485.674 452.858, 495.674 452.858, 505.674 452.858, 506.367 " />
            <path fill="none" stroke-width="1.5" stroke-linecap="round" stroke-opacity="1.0" stroke="rgb(0, 0, 0)" stroke-linejoin="round" d=" M 464.123, 455.674 464.123, 465.674 464.123, 475.674 464.123, 485.674 464.123, 495.674 464.123, 505.674 464.123, 512.000 " />
            <path fill="none" stroke-width="1.5" stroke-linecap="round" stroke-opacity="1.0" stroke="rgb(0, 0, 0)" stroke-linejoin="round" d=" M 571.142, 545.795 571.142, 535.795 571.142, 525.795 571.142, 515.795 571.142, 512.000 " />
            <path fill="none" stroke-width="1.5" stroke-linecap="round" stroke-opacity="1.0" stroke="rgb(0, 0, 0)" stroke-linejoin="round" d=" M 571.142, 545.795 571.142, 535.795 571.142, 525.795 571.142, 515.795 571.142, 512.000 " />
            <path fill="none" stroke-width="1.5" stroke-linecap="round" stroke-opacity="1.0" stroke="rgb(0, 0, 0)" stroke-linejoin="round" d=" M 571.142, 568.326 571.142, 558.326 571.142, 548.326 571.142, 545.795 " />
            <path fill="none" stroke-width="1.5" stroke-linecap="round" stroke-opacity="1.0" stroke="rgb(0, 0, 0)" stroke-linejoin="round" d=" M 571.142, 545.795 571.142, 545.795 571.142, 545.795 561.142, 545.795 551.142, 545.795 541.142, 545.795 531.142, 545.795 521.142, 545.795 511.142, 545.795 501.142, 545.795 491.142, 545.795 481.142, 545.795 471.142, 545.795 464.123, 545.795 464.123, 545.795 458.491, 545.795 " />
            <path fill="none" stroke-width="1.5" stroke-linecap="round" stroke-opacity="1.0" stroke="rgb(0, 0, 0)" stroke-linejoin="round" d=" M 458.491, 545.795 458.491, 545.795 458.491, 551.428 458.491, 551.428 458.491, 561.428 458.491, 568.326 458.491, 568.326 458.491, 568.326 458.491, 568.326 468.491, 568.326 478.491, 568.326 488.491, 568.326 498.491, 568.326 508.491, 568.326 518.491, 568.326 528.491, 568.326 538.491, 568.326 548.491, 568.326 558.491, 568.326 568.491, 568.326 571.142, 568.326 " />
            <path fill="none" stroke-width="1.5" stroke-linecap="round" stroke-opacity="1.0" stroke="rgb(0, 0, 0)" stroke-linejoin="round" d=" M 464.123, 512.000 464.123, 506.367 464.123, 506.367 454.123, 506.367 452.858, 506.367 452.858, 506.367 452.858, 506.367 452.858, 516.367 452.858, 526.367 452.858, 536.367 452.858, 546.367 452.858, 551.428 452.858, 551.428 458.491, 551.428 " />
            <path fill="none" stroke-width="1.5" stroke-linecap="round" stroke-opacity="1.0" stroke="rgb(0, 0, 0)" stroke-linejoin="round" d=" M 464.123, 506.367 464.123, 512.000 464.123, 512.000 464.123, 522.000 464.123, 523.265 464.123, 533.265 464.123, 543.265 464.123, 545.795 464.123, 545.795 " />
            <path fill="none" stroke-width="1.5" stroke-linecap="round" stroke-opacity="1.0" stroke="rgb(0, 0, 0)" stroke-linejoin="round" d=" M 452.858, 551.428 458.491, 551.428 458.491, 551.428 464.123, 551.428 464.123, 545.795 464.123, 545.795 " />
            <path fill="none" stroke-width="1.5" stroke-linecap="round" stroke-opacity="1.0" stroke="rgb(0, 0, 0)" stroke-linejoin="round" d=" M 464.123, 512.000 464.123, 512.000 " />
            <path fill="none" stroke-width="1.5" stroke-linecap="round" stroke-opacity="1.0" stroke="rgb(0, 0, 0)" stroke-linejoin="round" d=" M 464.123, 545.795 464.123, 535.795 464.123, 525.795 464.123, 523.265 464.123, 523.265 464.123, 513.265 464.123, 512.000 " />
            <path fill="none" stroke-width="1.5" stroke-linecap="round" stroke-opacity="1.0" stroke="rgb(0, 0, 0)" stroke-linejoin="round" d=" M 571.142, 545.795 571.142, 545.795 " />
            <path fill="none" stroke-width="1.5" stroke-linecap="round" stroke-opacity="1.0" stroke="rgb(0, 0, 0)" stroke-linejoin="round" d=" M 458.491, 545.795 458.491, 545.795 " />
            <path fill="none" stroke-width="1.5" stroke-linecap="round" stroke-opacity="1.0" stroke="rgb(0, 0, 0)" stroke-linejoin="round" d=" M 571.142, 545.795 571.142, 545.795 " />
            <path fill="none" stroke-width="1.5" stroke-linecap="round" stroke-opacity="1.0" stroke="rgb(0, 0, 0)" stroke-linejoin="round" d=" M 571.142, 545.795 571.142, 545.795 " />
            <path fill="none" stroke-width="1.5" stroke-linecap="round" stroke-opacity="1.0" stroke="rgb(0, 0, 0)" stroke-linejoin="round" d=" M 571.142, 512.000 571.142, 512.000 " />
            <path fill="none" stroke-width="1.5" stroke-linecap="round" stroke-opacity="1.0" stroke="rgb(0, 0, 0)" stroke-linejoin="round" d=" M 571.142, 512.000 561.142, 512.000 551.142, 512.000 541.142, 512.000 531.142, 512.000 521.142, 512.000 511.142, 512.000 501.142, 512.000 491.142, 512.000 481.142, 512.000 471.142, 512.000 464.123, 512.000 464.123, 512.000 464.123, 512.000 " />
            <path fill="none" stroke-width="1.5" stroke-linecap="round" stroke-opacity="1.0" stroke="rgb(0, 0, 0)" stroke-linejoin="round" d=" M 571.142, 545.795 571.142, 545.795 " />
            <path fill="none" stroke-width="1.5" stroke-linecap="round" stroke-opacity="1.0" stroke="rgb(0, 0, 0)" stroke-linejoin="round" d=" M 571.142, 512.000 571.142, 512.000 " />
        </g>
    </g>
    <g id="ViewLayer_TechnicalLines.002" inkscape:groupmode="lineset" inkscape:label="ViewLayer_TechnicalLines.002">
        <g inkscape:groupmode="layer" id="strokes" inkscape:label="strokes">
            <path fill="none" stroke-width="1.5" stroke-linecap="round" stroke-opacity="1.0" stroke="rgb(0, 0, 0)" stroke-linejoin="round" d=" M 458.491, 568.326 458.491, 568.326 458.491, 568.326 468.491, 568.326 478.491, 568.326 488.491, 568.326 498.491, 568.326 508.491, 568.326 518.491, 568.326 528.491, 568.326 538.491, 568.326 548.491, 568.326 558.491, 568.326 568.491, 568.326 571.142, 568.326 571.142, 568.326 571.142, 558.326 571.142, 548.326 571.142, 545.795 " />
            <path fill="none" stroke-width="1.5" stroke-linecap="round" stroke-opacity="1.0" stroke="rgb(0, 0, 0)" stroke-linejoin="round" d=" M 458.491, 568.326 468.491, 568.326 478.491, 568.326 488.491, 568.326 498.491, 568.326 508.491, 568.326 518.491, 568.326 528.491, 568.326 538.491, 568.326 548.491, 568.326 558.491, 568.326 568.491, 568.326 571.142, 568.326 " />
            <path fill="none" stroke-width="1.5" stroke-linecap="round" stroke-opacity="1.0" stroke="rgb(0, 0, 0)" stroke-linejoin="round" d=" M 464.123, 512.000 464.123, 502.000 464.123, 492.000 464.123, 482.000 464.123, 472.000 464.123, 462.000 464.123, 455.674 464.123, 455.674 454.123, 455.674 452.858, 455.674 452.858, 465.674 452.858, 475.674 452.858, 485.674 452.858, 495.674 452.858, 505.674 452.858, 506.367 " />
            <path fill="none" stroke-width="1.5" stroke-linecap="round" stroke-opacity="1.0" stroke="rgb(0, 0, 0)" stroke-linejoin="round" d=" M 464.123, 455.674 464.123, 465.674 464.123, 475.674 464.123, 485.674 464.123, 495.674 464.123, 505.674 464.123, 512.000 " />
            <path fill="none" stroke-width="1.5" stroke-linecap="round" stroke-opacity="1.0" stroke="rgb(0, 0, 0)" stroke-linejoin="round" d=" M 571.142, 545.795 571.142, 535.795 571.142, 525.795 571.142, 515.795 571.142, 512.000 " />
            <path fill="none" stroke-width="1.5" stroke-linecap="round" stroke-opacity="1.0" stroke="rgb(0, 0, 0)" stroke-linejoin="round" d=" M 571.142, 545.795 571.142, 535.795 571.142, 525.795 571.142, 515.795 571.142, 512.000 " />
            <path fill="none" stroke-width="1.5" stroke-linecap="round" stroke-opacity="1.0" stroke="rgb(0, 0, 0)" stroke-linejoin="round" d=" M 571.142, 568.326 571.142, 558.326 571.142, 548.326 571.142, 545.795 " />
            <path fill="none" stroke-width="1.5" stroke-linecap="round" stroke-opacity="1.0" stroke="rgb(0, 0, 0)" stroke-linejoin="round" d=" M 571.142, 545.795 571.142, 545.795 571.142, 545.795 561.142, 545.795 551.142, 545.795 541.142, 545.795 531.142, 545.795 521.142, 545.795 511.142, 545.795 501.142, 545.795 491.142, 545.795 481.142, 545.795 471.142, 545.795 464.123, 545.795 464.123, 545.795 458.491, 545.795 " />
            <path fill="none" stroke-width="1.5" stroke-linecap="round" stroke-opacity="1.0" stroke="rgb(0, 0, 0)" stroke-linejoin="round" d=" M 458.491, 545.795 458.491, 545.795 458.491, 551.428 458.491, 551.428 458.491, 561.428 458.491, 568.326 458.491, 568.326 458.491, 568.326 458.491, 568.326 468.491, 568.326 478.491, 568.326 488.491, 568.326 498.491, 568.326 508.491, 568.326 518.491, 568.326 528.491, 568.326 538.491, 568.326 548.491, 568.326 558.491, 568.326 568.491, 568.326 571.142, 568.326 " />
            <path fill="none" stroke-width="1.5" stroke-linecap="round" stroke-opacity="1.0" stroke="rgb(0, 0, 0)" stroke-linejoin="round" d=" M 464.123, 512.000 464.123, 506.367 464.123, 506.367 454.123, 506.367 452.858, 506.367 452.858, 506.367 452.858, 506.367 452.858, 516.367 452.858, 526.367 452.858, 536.367 452.858, 546.367 452.858, 551.428 452.858, 551.428 458.491, 551.428 " />
            <path fill="none" stroke-width="1.5" stroke-linecap="round" stroke-opacity="1.0" stroke="rgb(0, 0, 0)" stroke-linejoin="round" d=" M 464.123, 506.367 464.123, 512.000 464.123, 512.000 464.123, 522.000 464.123, 523.265 464.123, 533.265 464.123, 543.265 464.123, 545.795 464.123, 545.795 " />
            <path fill="none" stroke-width="1.5" stroke-linecap="round" stroke-opacity="1.0" stroke="rgb(0, 0, 0)" stroke-linejoin="round" d=" M 452.858, 551.428 458.491, 551.428 458.491, 551.428 464.123, 551.428 464.123, 545.795 464.123, 545.795 " />
            <path fill="none" stroke-width="1.5" stroke-linecap="round" stroke-opacity="1.0" stroke="rgb(0, 0, 0)" stroke-linejoin="round" d=" M 464.123, 512.000 464.123, 512.000 " />
            <path fill="none" stroke-width="1.5" stroke-linecap="round" stroke-opacity="1.0" stroke="rgb(0, 0, 0)" stroke-linejoin="round" d=" M 464.123, 545.795 464.123, 535.795 464.123, 525.795 464.123, 523.265 464.123, 523.265 464.123, 513.265 464.123, 512.000 " />
            <path fill="none" stroke-width="1.5" stroke-linecap="round" stroke-opacity="1.0" stroke="rgb(0, 0, 0)" stroke-linejoin="round" d=" M 571.142, 545.795 571.142, 545.795 " />
            <path fill="none" stroke-width="1.5" stroke-linecap="round" stroke-opacity="1.0" stroke="rgb(0, 0, 0)" stroke-linejoin="round" d=" M 458.491, 545.795 458.491, 545.795 " />
            <path fill="none" stroke-width="1.5" stroke-linecap="round" stroke-opacity="1.0" stroke="rgb(0, 0, 0)" stroke-linejoin="round" d=" M 571.142, 545.795 571.142, 545.795 " />
            <path fill="none" stroke-width="1.5" stroke-linecap="round" stroke-opacity="1.0" stroke="rgb(0, 0, 0)" stroke-linejoin="round" d=" M 571.142, 545.795 571.142, 545.795 " />
            <path fill="none" stroke-width="1.5" stroke-linecap="round" stroke-opacity="1.0" stroke="rgb(0, 0, 0)" stroke-linejoin="round" d=" M 571.142, 512.000 571.142, 512.000 " />
            <path fill="none" stroke-width="1.5" stroke-linecap="round" stroke-opacity="1.0" stroke="rgb(0, 0, 0)" stroke-linejoin="round" d=" M 571.142, 512.000 561.142, 512.000 551.142, 512.000 541.142, 512.000 531.142, 512.000 521.142, 512.000 511.142, 512.000 501.142, 512.000 491.142, 512.000 481.142, 512.000 471.142, 512.000 464.123, 512.000 464.123, 512.000 464.123, 512.000 " />
            <path fill="none" stroke-width="1.5" stroke-linecap="round" stroke-opacity="1.0" stroke="rgb(0, 0, 0)" stroke-linejoin="round" d=" M 571.142, 545.795 571.142, 545.795 " />
            <path fill="none" stroke-width="1.5" stroke-linecap="round" stroke-opacity="1.0" stroke="rgb(0, 0, 0)" stroke-linejoin="round" d=" M 571.142, 512.000 571.142, 512.000 " />
        </g>
    </g>
    <g id="ViewLayer_TechnicalLines.003" inkscape:groupmode="lineset" inkscape:label="ViewLayer_TechnicalLines.003">
        <g inkscape:groupmode="layer" id="strokes" inkscape:label="strokes">
            <path fill="none" stroke-width="1.5" stroke-linecap="round" stroke-opacity="1.0" stroke="rgb(0, 0, 0)" stroke-linejoin="round" d=" M 458.491, 568.326 458.491, 568.326 458.491, 568.326 468.491, 568.326 478.491, 568.326 488.491, 568.326 498.491, 568.326 508.491, 568.326 518.491, 568.326 528.491, 568.326 538.491, 568.326 548.491, 568.326 558.491, 568.326 568.491, 568.326 571.142, 568.326 571.142, 568.326 571.142, 558.326 571.142, 548.326 571.142, 545.795 " />
            <path fill="none" stroke-width="1.5" stroke-linecap="round" stroke-opacity="1.0" stroke="rgb(0, 0, 0)" stroke-linejoin="round" d=" M 458.491, 568.326 468.491, 568.326 478.491, 568.326 488.491, 568.326 498.491, 568.326 508.491, 568.326 518.491, 568.326 528.491, 568.326 538.491, 568.326 548.491, 568.326 558.491, 568.326 568.491, 568.326 571.142, 568.326 " />
            <path fill="none" stroke-width="1.5" stroke-linecap="round" stroke-opacity="1.0" stroke="rgb(0, 0, 0)" stroke-linejoin="round" d=" M 464.123, 512.000 464.123, 502.000 464.123, 492.000 464.123, 482.000 464.123, 472.000 464.123, 462.000 464.123, 455.674 464.123, 455.674 454.123, 455.674 452.858, 455.674 452.858, 465.674 452.858, 475.674 452.858, 485.674 452.858, 495.674 452.858, 505.674 452.858, 506.367 " />
            <path fill="none" stroke-width="1.5" stroke-linecap="round" stroke-opacity="1.0" stroke="rgb(0, 0, 0)" stroke-linejoin="round" d=" M 464.123, 455.674 464.123, 465.674 464.123, 475.674 464.123, 485.674 464.123, 495.674 464.123, 505.674 464.123, 512.000 " />
            <path fill="none" stroke-width="1.5" stroke-linecap="round" stroke-opacity="1.0" stroke="rgb(0, 0, 0)" stroke-linejoin="round" d=" M 571.142, 545.795 571.142, 535.795 571.142, 525.795 571.142, 515.795 571.142, 512.000 " />
            <path fill="none" stroke-width="1.5" stroke-linecap="round" stroke-opacity="1.0" stroke="rgb(0, 0, 0)" stroke-linejoin="round" d=" M 571.142, 545.795 571.142, 535.795 571.142, 525.795 571.142, 515.795 571.142, 512.000 " />
            <path fill="none" stroke-width="1.5" stroke-linecap="round" stroke-opacity="1.0" stroke="rgb(0, 0, 0)" stroke-linejoin="round" d=" M 571.142, 568.326 571.142, 558.326 571.142, 548.326 571.142, 545.795 " />
            <path fill="none" stroke-width="1.5" stroke-linecap="round" stroke-opacity="1.0" stroke="rgb(0, 0, 0)" stroke-linejoin="round" d=" M 571.142, 545.795 571.142, 545.795 571.142, 545.795 561.142, 545.795 551.142, 545.795 541.142, 545.795 531.142, 545.795 521.142, 545.795 511.142, 545.795 501.142, 545.795 491.142, 545.795 481.142, 545.795 471.142, 545.795 464.123, 545.795 464.123, 545.795 458.491, 545.795 " />
            <path fill="none" stroke-width="1.5" stroke-linecap="round" stroke-opacity="1.0" stroke="rgb(0, 0, 0)" stroke-linejoin="round" d=" M 458.491, 545.795 458.491, 545.795 458.491, 551.428 458.491, 551.428 458.491, 561.428 458.491, 568.326 458.491, 568.326 458.491, 568.326 458.491, 568.326 468.491, 568.326 478.491, 568.326 488.491, 568.326 498.491, 568.326 508.491, 568.326 518.491, 568.326 528.491, 568.326 538.491, 568.326 548.491, 568.326 558.491, 568.326 568.491, 568.326 571.142, 568.326 " />
            <path fill="none" stroke-width="1.5" stroke-linecap="round" stroke-opacity="1.0" stroke="rgb(0, 0, 0)" stroke-linejoin="round" d=" M 464.123, 512.000 464.123, 506.367 464.123, 506.367 454.123, 506.367 452.858, 506.367 452.858, 506.367 452.858, 506.367 452.858, 516.367 452.858, 526.367 452.858, 536.367 452.858, 546.367 452.858, 551.428 452.858, 551.428 458.491, 551.428 " />
            <path fill="none" stroke-width="1.5" stroke-linecap="round" stroke-opacity="1.0" stroke="rgb(0, 0, 0)" stroke-linejoin="round" d=" M 464.123, 506.367 464.123, 512.000 464.123, 512.000 464.123, 522.000 464.123, 523.265 464.123, 533.265 464.123, 543.265 464.123, 545.795 464.123, 545.795 " />
            <path fill="none" stroke-width="1.5" stroke-linecap="round" stroke-opacity="1.0" stroke="rgb(0, 0, 0)" stroke-linejoin="round" d=" M 452.858, 551.428 458.491, 551.428 458.491, 551.428 464.123, 551.428 464.123, 545.795 464.123, 545.795 " />
            <path fill="none" stroke-width="1.5" stroke-linecap="round" stroke-opacity="1.0" stroke="rgb(0, 0, 0)" stroke-linejoin="round" d=" M 464.123, 512.000 464.123, 512.000 " />
            <path fill="none" stroke-width="1.5" stroke-linecap="round" stroke-opacity="1.0" stroke="rgb(0, 0, 0)" stroke-linejoin="round" d=" M 464.123, 545.795 464.123, 535.795 464.123, 525.795 464.123, 523.265 464.123, 523.265 464.123, 513.265 464.123, 512.000 " />
            <path fill="none" stroke-width="1.5" stroke-linecap="round" stroke-opacity="1.0" stroke="rgb(0, 0, 0)" stroke-linejoin="round" d=" M 571.142, 545.795 571.142, 545.795 " />
            <path fill="none" stroke-width="1.5" stroke-linecap="round" stroke-opacity="1.0" stroke="rgb(0, 0, 0)" stroke-linejoin="round" d=" M 458.491, 545.795 458.491, 545.795 " />
            <path fill="none" stroke-width="1.5" stroke-linecap="round" stroke-opacity="1.0" stroke="rgb(0, 0, 0)" stroke-linejoin="round" d=" M 571.142, 545.795 571.142, 545.795 " />
            <path fill="none" stroke-width="1.5" stroke-linecap="round" stroke-opacity="1.0" stroke="rgb(0, 0, 0)" stroke-linejoin="round" d=" M 571.142, 545.795 571.142, 545.795 " />
            <path fill="none" stroke-width="1.5" stroke-linecap="round" stroke-opacity="1.0" stroke="rgb(0, 0, 0)" stroke-linejoin="round" d=" M 571.142, 512.000 571.142, 512.000 " />
            <path fill="none" stroke-width="1.5" stroke-linecap="round" stroke-opacity="1.0" stroke="rgb(0, 0, 0)" stroke-linejoin="round" d=" M 571.142, 512.000 561.142, 512.000 551.142, 512.000 541.142, 512.000 531.142, 512.000 521.142, 512.000 511.142, 512.000 501.142, 512.000 491.142, 512.000 481.142, 512.000 471.142, 512.000 464.123, 512.000 464.123, 512.000 464.123, 512.000 " />
            <path fill="none" stroke-width="1.5" stroke-linecap="round" stroke-opacity="1.0" stroke="rgb(0, 0, 0)" stroke-linejoin="round" d=" M 571.142, 545.795 571.142, 545.795 " />
            <path fill="none" stroke-width="1.5" stroke-linecap="round" stroke-opacity="1.0" stroke="rgb(0, 0, 0)" stroke-linejoin="round" d=" M 571.142, 512.000 571.142, 512.000 " />
        </g>
    </g>
    <g id="ViewLayer_TechnicalLines.004" xmlns:inkscape="http://www.inkscape.org/namespaces/inkscape" inkscape:groupmode="lineset" inkscape:label="ViewLayer_TechnicalLines.004">
        <g xmlns:inkscape="http://www.inkscape.org/namespaces/inkscape" inkscape:groupmode="layer" id="strokes" inkscape:label="strokes">
            <path fill="none" stroke-width="1.5" stroke-linecap="round" stroke-opacity="1.0" stroke="rgb(0, 0, 0)" stroke-linejoin="round" d=" M 458.491, 568.326 458.491, 568.326 458.491, 568.326 468.491, 568.326 478.491, 568.326 488.491, 568.326 498.491, 568.326 508.491, 568.326 518.491, 568.326 528.491, 568.326 538.491, 568.326 548.491, 568.326 558.491, 568.326 568.491, 568.326 571.142, 568.326 571.142, 568.326 571.142, 558.326 571.142, 548.326 571.142, 545.795 " />
            <path fill="none" stroke-width="1.5" stroke-linecap="round" stroke-opacity="1.0" stroke="rgb(0, 0, 0)" stroke-linejoin="round" d=" M 458.491, 568.326 468.491, 568.326 478.491, 568.326 488.491, 568.326 498.491, 568.326 508.491, 568.326 518.491, 568.326 528.491, 568.326 538.491, 568.326 548.491, 568.326 558.491, 568.326 568.491, 568.326 571.142, 568.326 " />
            <path fill="none" stroke-width="1.5" stroke-linecap="round" stroke-opacity="1.0" stroke="rgb(0, 0, 0)" stroke-linejoin="round" d=" M 464.123, 512.000 464.123, 502.000 464.123, 492.000 464.123, 482.000 464.123, 472.000 464.123, 462.000 464.123, 455.674 464.123, 455.674 454.123, 455.674 452.858, 455.674 452.858, 465.674 452.858, 475.674 452.858, 485.674 452.858, 495.674 452.858, 505.674 452.858, 506.367 " />
            <path fill="none" stroke-width="1.5" stroke-linecap="round" stroke-opacity="1.0" stroke="rgb(0, 0, 0)" stroke-linejoin="round" d=" M 464.123, 455.674 464.123, 465.674 464.123, 475.674 464.123, 485.674 464.123, 495.674 464.123, 505.674 464.123, 512.000 " />
            <path fill="none" stroke-width="1.5" stroke-linecap="round" stroke-opacity="1.0" stroke="rgb(0, 0, 0)" stroke-linejoin="round" d=" M 571.142, 545.795 571.142, 535.795 571.142, 525.795 571.142, 515.795 571.142, 512.000 " />
            <path fill="none" stroke-width="1.5" stroke-linecap="round" stroke-opacity="1.0" stroke="rgb(0, 0, 0)" stroke-linejoin="round" d=" M 571.142, 545.795 571.142, 535.795 571.142, 525.795 571.142, 515.795 571.142, 512.000 " />
            <path fill="none" stroke-width="1.5" stroke-linecap="round" stroke-opacity="1.0" stroke="rgb(0, 0, 0)" stroke-linejoin="round" d=" M 571.142, 568.326 571.142, 558.326 571.142, 548.326 571.142, 545.795 " />
            <path fill="none" stroke-width="1.5" stroke-linecap="round" stroke-opacity="1.0" stroke="rgb(0, 0, 0)" stroke-linejoin="round" d=" M 571.142, 545.795 571.142, 545.795 571.142, 545.795 561.142, 545.795 551.142, 545.795 541.142, 545.795 531.142, 545.795 521.142, 545.795 511.142, 545.795 501.142, 545.795 491.142, 545.795 481.142, 545.795 471.142, 545.795 464.123, 545.795 464.123, 545.795 458.491, 545.795 " />
            <path fill="none" stroke-width="1.5" stroke-linecap="round" stroke-opacity="1.0" stroke="rgb(0, 0, 0)" stroke-linejoin="round" d=" M 458.491, 545.795 458.491, 545.795 458.491, 551.428 458.491, 551.428 458.491, 561.428 458.491, 568.326 458.491, 568.326 458.491, 568.326 458.491, 568.326 468.491, 568.326 478.491, 568.326 488.491, 568.326 498.491, 568.326 508.491, 568.326 518.491, 568.326 528.491, 568.326 538.491, 568.326 548.491, 568.326 558.491, 568.326 568.491, 568.326 571.142, 568.326 " />
            <path fill="none" stroke-width="1.5" stroke-linecap="round" stroke-opacity="1.0" stroke="rgb(0, 0, 0)" stroke-linejoin="round" d=" M 464.123, 512.000 464.123, 506.367 464.123, 506.367 454.123, 506.367 452.858, 506.367 452.858, 506.367 452.858, 506.367 452.858, 516.367 452.858, 526.367 452.858, 536.367 452.858, 546.367 452.858, 551.428 452.858, 551.428 458.491, 551.428 " />
            <path fill="none" stroke-width="1.5" stroke-linecap="round" stroke-opacity="1.0" stroke="rgb(0, 0, 0)" stroke-linejoin="round" d=" M 464.123, 506.367 464.123, 512.000 464.123, 512.000 464.123, 522.000 464.123, 523.265 464.123, 533.265 464.123, 543.265 464.123, 545.795 464.123, 545.795 " />
            <path fill="none" stroke-width="1.5" stroke-linecap="round" stroke-opacity="1.0" stroke="rgb(0, 0, 0)" stroke-linejoin="round" d=" M 452.858, 551.428 458.491, 551.428 458.491, 551.428 464.123, 551.428 464.123, 545.795 464.123, 545.795 " />
            <path fill="none" stroke-width="1.5" stroke-linecap="round" stroke-opacity="1.0" stroke="rgb(0, 0, 0)" stroke-linejoin="round" d=" M 464.123, 512.000 464.123, 512.000 " />
            <path fill="none" stroke-width="1.5" stroke-linecap="round" stroke-opacity="1.0" stroke="rgb(0, 0, 0)" stroke-linejoin="round" d=" M 464.123, 545.795 464.123, 535.795 464.123, 525.795 464.123, 523.265 464.123, 523.265 464.123, 513.265 464.123, 512.000 " />
            <path fill="none" stroke-width="1.5" stroke-linecap="round" stroke-opacity="1.0" stroke="rgb(0, 0, 0)" stroke-linejoin="round" d=" M 571.142, 545.795 571.142, 545.795 " />
            <path fill="none" stroke-width="1.5" stroke-linecap="round" stroke-opacity="1.0" stroke="rgb(0, 0, 0)" stroke-linejoin="round" d=" M 458.491, 545.795 458.491, 545.795 " />
            <path fill="none" stroke-width="1.5" stroke-linecap="round" stroke-opacity="1.0" stroke="rgb(0, 0, 0)" stroke-linejoin="round" d=" M 571.142, 545.795 571.142, 545.795 " />
            <path fill="none" stroke-width="1.5" stroke-linecap="round" stroke-opacity="1.0" stroke="rgb(0, 0, 0)" stroke-linejoin="round" d=" M 571.142, 545.795 571.142, 545.795 " />
            <path fill="none" stroke-width="1.5" stroke-linecap="round" stroke-opacity="1.0" stroke="rgb(0, 0, 0)" stroke-linejoin="round" d=" M 571.142, 512.000 571.142, 512.000 " />
            <path fill="none" stroke-width="1.5" stroke-linecap="round" stroke-opacity="1.0" stroke="rgb(0, 0, 0)" stroke-linejoin="round" d=" M 571.142, 512.000 561.142, 512.000 551.142, 512.000 541.142, 512.000 531.142, 512.000 521.142, 512.000 511.142, 512.000 501.142, 512.000 491.142, 512.000 481.142, 512.000 471.142, 512.000 464.123, 512.000 464.123, 512.000 464.123, 512.000 " />
            <path fill="none" stroke-width="1.5" stroke-linecap="round" stroke-opacity="1.0" stroke="rgb(0, 0, 0)" stroke-linejoin="round" d=" M 571.142, 545.795 571.142, 545.795 " />
            <path fill="none" stroke-width="1.5" stroke-linecap="round" stroke-opacity="1.0" stroke="rgb(0, 0, 0)" stroke-linejoin="round" d=" M 571.142, 512.000 571.142, 512.000 " />
        </g>
    </g>
</svg>
