<?xml version='1.0' encoding='ascii'?>
<svg xmlns="http://www.w3.org/2000/svg" xmlns:inkscape="http://www.inkscape.org/namespaces/inkscape" version="1.1" width="1024" height="1024">
    <g id="ViewLayer_LineSet" inkscape:groupmode="lineset" inkscape:label="ViewLayer_LineSet">
        <g inkscape:groupmode="layer" id="strokes" inkscape:label="strokes">
            <path fill="none" stroke-width="3.0" stroke-linecap="butt" stroke-opacity="1.0" stroke="rgb(0, 0, 0)" stroke-linejoin="round" d=" M 701.630, 701.630 701.630, 691.630 701.630, 681.630 701.630, 671.630 701.630, 661.630 701.630, 651.630 701.630, 641.630 701.630, 631.630 701.630, 621.630 701.630, 611.630 701.630, 601.630 701.630, 591.630 701.630, 581.630 701.630, 571.630 701.630, 561.630 701.630, 551.630 701.630, 541.630 701.630, 531.630 701.630, 521.630 701.630, 511.630 701.630, 501.630 701.630, 491.630 701.630, 481.630 701.630, 471.630 701.630, 461.630 701.630, 451.630 701.630, 441.630 701.630, 431.630 701.630, 421.630 701.630, 411.630 701.630, 401.630 701.630, 391.630 701.630, 381.630 701.630, 371.630 701.630, 361.630 701.630, 351.630 701.630, 341.630 701.630, 331.630 701.630, 322.370 " />
            <path fill="none" stroke-width="3.0" stroke-linecap="butt" stroke-opacity="1.0" stroke="rgb(0, 0, 0)" stroke-linejoin="round" d=" M 322.370, 322.370 322.370, 332.370 322.370, 342.370 322.370, 352.370 322.370, 362.370 322.370, 372.370 322.370, 382.370 322.370, 392.370 322.370, 402.370 322.370, 412.370 322.370, 422.370 322.370, 432.370 322.370, 442.370 322.370, 452.370 322.370, 462.370 322.370, 472.370 322.370, 482.370 322.370, 492.370 322.370, 502.370 322.370, 512.370 322.370, 522.370 322.370, 532.370 322.370, 542.370 322.370, 552.370 322.370, 562.370 322.370, 572.370 322.370, 582.370 322.370, 592.370 322.370, 602.370 322.370, 612.370 322.370, 622.370 322.370, 632.370 322.370, 642.370 322.370, 652.370 322.370, 662.370 322.370, 672.370 322.370, 682.370 322.370, 692.370 322.370, 701.630 " />
            <path fill="none" stroke-width="3.0" stroke-linecap="butt" stroke-opacity="1.0" stroke="rgb(0, 0, 0)" stroke-linejoin="round" d=" M 474.074, 322.370 474.074, 332.370 474.074, 342.370 474.074, 352.370 474.074, 362.370 474.074, 372.370 474.074, 382.370 474.074, 392.370 474.074, 402.370 474.074, 412.370 474.074, 422.370 474.074, 432.370 474.074, 442.370 474.074, 452.370 474.074, 462.370 474.074, 472.370 474.074, 482.370 474.074, 492.370 474.074, 502.370 474.074, 512.370 474.074, 522.370 474.074, 532.370 474.074, 542.370 474.074, 552.370 474.074, 562.370 474.074, 572.370 474.074, 582.370 474.074, 592.370 474.074, 602.370 474.074, 612.370 474.074, 622.370 474.074, 632.370 474.074, 642.370 474.074, 652.370 474.074, 662.370 474.074, 672.370 474.074, 682.370 474.074, 692.370 474.074, 701.630 " />
            <path fill="none" stroke-width="3.0" stroke-linecap="butt" stroke-opacity="1.0" stroke="rgb(0, 0, 0)" stroke-linejoin="round" d=" M 474.074, 701.630 484.074, 701.630 494.074, 701.630 504.074, 701.630 514.074, 701.630 524.074, 701.630 534.074, 701.630 544.074, 701.630 549.926, 701.630 " />
            <path fill="none" stroke-width="3.0" stroke-linecap="butt" stroke-opacity="1.0" stroke="rgb(0, 0, 0)" stroke-linejoin="round" d=" M 549.926, 322.370 539.926, 322.370 529.926, 322.370 519.926, 322.370 509.926, 322.370 499.926, 322.370 489.926, 322.370 479.926, 322.370 474.074, 322.370 " />
            <path fill="none" stroke-width="3.0" stroke-linecap="butt" stroke-opacity="1.0" stroke="rgb(0, 0, 0)" stroke-linejoin="round" d=" M 549.926, 701.630 549.926, 691.630 549.926, 681.630 549.926, 671.630 549.926, 661.630 549.926, 651.630 549.926, 641.630 549.926, 631.630 549.926, 621.630 549.926, 611.630 549.926, 601.630 549.926, 591.630 549.926, 581.630 549.926, 571.630 549.926, 561.630 549.926, 551.630 549.926, 541.630 549.926, 531.630 549.926, 521.630 549.926, 511.630 549.926, 501.630 549.926, 491.630 549.926, 481.630 549.926, 471.630 549.926, 461.630 549.926, 451.630 549.926, 441.630 549.926, 431.630 549.926, 421.630 549.926, 411.630 549.926, 401.630 549.926, 391.630 549.926, 381.630 549.926, 371.630 549.926, 361.630 549.926, 351.630 549.926, 341.630 549.926, 331.630 549.926, 322.370 " />
            <path fill="none" stroke-width="3.0" stroke-linecap="butt" stroke-opacity="1.0" stroke="rgb(0, 0, 0)" stroke-linejoin="round" d=" M 549.926, 701.630 559.926, 701.630 569.926, 701.630 579.926, 701.630 589.926, 701.630 599.926, 701.630 609.926, 701.630 619.926, 701.630 629.926, 701.630 639.926, 701.630 649.926, 701.630 659.926, 701.630 669.926, 701.630 679.926, 701.630 689.926, 701.630 699.926, 701.630 701.630, 701.630 " />
            <path fill="none" stroke-width="3.0" stroke-linecap="butt" stroke-opacity="1.0" stroke="rgb(0, 0, 0)" stroke-linejoin="round" d=" M 322.370, 701.630 332.370, 701.630 342.370, 701.630 352.370, 701.630 362.370, 701.630 372.370, 701.630 382.370, 701.630 392.370, 701.630 402.370, 701.630 412.370, 701.630 422.370, 701.630 432.370, 701.630 442.370, 701.630 452.370, 701.630 462.370, 701.630 472.370, 701.630 474.074, 701.630 " />
            <path fill="none" stroke-width="3.0" stroke-linecap="butt" stroke-opacity="1.0" stroke="rgb(0, 0, 0)" stroke-linejoin="round" d=" M 474.074, 322.370 464.074, 322.370 454.074, 322.370 444.074, 322.370 434.074, 322.370 424.074, 322.370 414.074, 322.370 404.074, 322.370 394.074, 322.370 384.074, 322.370 374.074, 322.370 364.074, 322.370 354.074, 322.370 344.074, 322.370 334.074, 322.370 324.074, 322.370 322.370, 322.370 " />
            <path fill="none" stroke-width="3.0" stroke-linecap="butt" stroke-opacity="1.0" stroke="rgb(0, 0, 0)" stroke-linejoin="round" d=" M 701.630, 322.370 691.630, 322.370 681.630, 322.370 671.630, 322.370 661.630, 322.370 651.630, 322.370 641.630, 322.370 631.630, 322.370 621.630, 322.370 611.630, 322.370 601.630, 322.370 591.630, 322.370 581.630, 322.370 571.630, 322.370 561.630, 322.370 551.630, 322.370 549.926, 322.370 " />
        </g>
    </g>
    <g id="ViewLayer_TechnicalLines" inkscape:groupmode="lineset" inkscape:label="ViewLayer_TechnicalLines">
        <g inkscape:groupmode="layer" id="strokes" inkscape:label="strokes">
            <path fill="none" stroke-width="3.0" stroke-linecap="butt" stroke-opacity="1.0" stroke="rgb(0, 0, 0)" stroke-linejoin="round" d=" M 701.630, 701.630 701.630, 691.630 701.630, 681.630 701.630, 671.630 701.630, 661.630 701.630, 651.630 701.630, 641.630 701.630, 631.630 701.630, 621.630 701.630, 611.630 701.630, 601.630 701.630, 591.630 701.630, 581.630 701.630, 571.630 701.630, 561.630 701.630, 551.630 701.630, 541.630 701.630, 531.630 701.630, 521.630 701.630, 511.630 701.630, 501.630 701.630, 491.630 701.630, 481.630 701.630, 471.630 701.630, 461.630 701.630, 451.630 701.630, 441.630 701.630, 431.630 701.630, 421.630 701.630, 411.630 701.630, 401.630 701.630, 391.630 701.630, 381.630 701.630, 371.630 701.630, 361.630 701.630, 351.630 701.630, 341.630 701.630, 331.630 701.630, 322.370 " />
            <path fill="none" stroke-width="3.0" stroke-linecap="butt" stroke-opacity="1.0" stroke="rgb(0, 0, 0)" stroke-linejoin="round" d=" M 322.370, 322.370 322.370, 332.370 322.370, 342.370 322.370, 352.370 322.370, 362.370 322.370, 372.370 322.370, 382.370 322.370, 392.370 322.370, 402.370 322.370, 412.370 322.370, 422.370 322.370, 432.370 322.370, 442.370 322.370, 452.370 322.370, 462.370 322.370, 472.370 322.370, 482.370 322.370, 492.370 322.370, 502.370 322.370, 512.370 322.370, 522.370 322.370, 532.370 322.370, 542.370 322.370, 552.370 322.370, 562.370 322.370, 572.370 322.370, 582.370 322.370, 592.370 322.370, 602.370 322.370, 612.370 322.370, 622.370 322.370, 632.370 322.370, 642.370 322.370, 652.370 322.370, 662.370 322.370, 672.370 322.370, 682.370 322.370, 692.370 322.370, 701.630 " />
            <path fill="none" stroke-width="3.0" stroke-linecap="butt" stroke-opacity="1.0" stroke="rgb(0, 0, 0)" stroke-linejoin="round" d=" M 474.074, 322.370 474.074, 332.370 474.074, 342.370 474.074, 352.370 474.074, 362.370 474.074, 372.370 474.074, 382.370 474.074, 392.370 474.074, 402.370 474.074, 412.370 474.074, 422.370 474.074, 432.370 474.074, 442.370 474.074, 452.370 474.074, 462.370 474.074, 472.370 474.074, 482.370 474.074, 492.370 474.074, 502.370 474.074, 512.370 474.074, 522.370 474.074, 532.370 474.074, 542.370 474.074, 552.370 474.074, 562.370 474.074, 572.370 474.074, 582.370 474.074, 592.370 474.074, 602.370 474.074, 612.370 474.074, 622.370 474.074, 632.370 474.074, 642.370 474.074, 652.370 474.074, 662.370 474.074, 672.370 474.074, 682.370 474.074, 692.370 474.074, 701.630 " />
            <path fill="none" stroke-width="3.0" stroke-linecap="butt" stroke-opacity="1.0" stroke="rgb(0, 0, 0)" stroke-linejoin="round" d=" M 474.074, 701.630 484.074, 701.630 494.074, 701.630 504.074, 701.630 514.074, 701.630 524.074, 701.630 534.074, 701.630 544.074, 701.630 549.926, 701.630 " />
            <path fill="none" stroke-width="3.0" stroke-linecap="butt" stroke-opacity="1.0" stroke="rgb(0, 0, 0)" stroke-linejoin="round" d=" M 549.926, 322.370 539.926, 322.370 529.926, 322.370 519.926, 322.370 509.926, 322.370 499.926, 322.370 489.926, 322.370 479.926, 322.370 474.074, 322.370 " />
            <path fill="none" stroke-width="3.0" stroke-linecap="butt" stroke-opacity="1.0" stroke="rgb(0, 0, 0)" stroke-linejoin="round" d=" M 549.926, 701.630 549.926, 691.630 549.926, 681.630 549.926, 671.630 549.926, 661.630 549.926, 651.630 549.926, 641.630 549.926, 631.630 549.926, 621.630 549.926, 611.630 549.926, 601.630 549.926, 591.630 549.926, 581.630 549.926, 571.630 549.926, 561.630 549.926, 551.630 549.926, 541.630 549.926, 531.630 549.926, 521.630 549.926, 511.630 549.926, 501.630 549.926, 491.630 549.926, 481.630 549.926, 471.630 549.926, 461.630 549.926, 451.630 549.926, 441.630 549.926, 431.630 549.926, 421.630 549.926, 411.630 549.926, 401.630 549.926, 391.630 549.926, 381.630 549.926, 371.630 549.926, 361.630 549.926, 351.630 549.926, 341.630 549.926, 331.630 549.926, 322.370 " />
            <path fill="none" stroke-width="3.0" stroke-linecap="butt" stroke-opacity="1.0" stroke="rgb(0, 0, 0)" stroke-linejoin="round" d=" M 549.926, 701.630 559.926, 701.630 569.926, 701.630 579.926, 701.630 589.926, 701.630 599.926, 701.630 609.926, 701.630 619.926, 701.630 629.926, 701.630 639.926, 701.630 649.926, 701.630 659.926, 701.630 669.926, 701.630 679.926, 701.630 689.926, 701.630 699.926, 701.630 701.630, 701.630 " />
            <path fill="none" stroke-width="3.0" stroke-linecap="butt" stroke-opacity="1.0" stroke="rgb(0, 0, 0)" stroke-linejoin="round" d=" M 322.370, 701.630 332.370, 701.630 342.370, 701.630 352.370, 701.630 362.370, 701.630 372.370, 701.630 382.370, 701.630 392.370, 701.630 402.370, 701.630 412.370, 701.630 422.370, 701.630 432.370, 701.630 442.370, 701.630 452.370, 701.630 462.370, 701.630 472.370, 701.630 474.074, 701.630 " />
            <path fill="none" stroke-width="3.0" stroke-linecap="butt" stroke-opacity="1.0" stroke="rgb(0, 0, 0)" stroke-linejoin="round" d=" M 474.074, 322.370 464.074, 322.370 454.074, 322.370 444.074, 322.370 434.074, 322.370 424.074, 322.370 414.074, 322.370 404.074, 322.370 394.074, 322.370 384.074, 322.370 374.074, 322.370 364.074, 322.370 354.074, 322.370 344.074, 322.370 334.074, 322.370 324.074, 322.370 322.370, 322.370 " />
            <path fill="none" stroke-width="3.0" stroke-linecap="butt" stroke-opacity="1.0" stroke="rgb(0, 0, 0)" stroke-linejoin="round" d=" M 701.630, 322.370 691.630, 322.370 681.630, 322.370 671.630, 322.370 661.630, 322.370 651.630, 322.370 641.630, 322.370 631.630, 322.370 621.630, 322.370 611.630, 322.370 601.630, 322.370 591.630, 322.370 581.630, 322.370 571.630, 322.370 561.630, 322.370 551.630, 322.370 549.926, 322.370 " />
        </g>
    </g>
    <g id="ViewLayer_TechnicalLines.001" inkscape:groupmode="lineset" inkscape:label="ViewLayer_TechnicalLines.001">
        <g inkscape:groupmode="layer" id="strokes" inkscape:label="strokes">
            <path fill="none" stroke-width="1.5" stroke-linecap="round" stroke-opacity="1.0" stroke="rgb(0, 0, 0)" stroke-linejoin="round" d=" M 701.630, 701.630 701.630, 691.630 701.630, 681.630 701.630, 671.630 701.630, 661.630 701.630, 651.630 701.630, 641.630 701.630, 631.630 701.630, 621.630 701.630, 611.630 701.630, 601.630 701.630, 591.630 701.630, 581.630 701.630, 571.630 701.630, 561.630 701.630, 551.630 701.630, 541.630 701.630, 531.630 701.630, 521.630 701.630, 511.630 701.630, 501.630 701.630, 491.630 701.630, 481.630 701.630, 471.630 701.630, 461.630 701.630, 451.630 701.630, 441.630 701.630, 431.630 701.630, 421.630 701.630, 411.630 701.630, 401.630 701.630, 391.630 701.630, 381.630 701.630, 371.630 701.630, 361.630 701.630, 351.630 701.630, 341.630 701.630, 331.630 701.630, 322.370 " />
            <path fill="none" stroke-width="1.5" stroke-linecap="round" stroke-opacity="1.0" stroke="rgb(0, 0, 0)" stroke-linejoin="round" d=" M 322.370, 322.370 322.370, 332.370 322.370, 342.370 322.370, 352.370 322.370, 362.370 322.370, 372.370 322.370, 382.370 322.370, 392.370 322.370, 402.370 322.370, 412.370 322.370, 422.370 322.370, 432.370 322.370, 442.370 322.370, 452.370 322.370, 462.370 322.370, 472.370 322.370, 482.370 322.370, 492.370 322.370, 502.370 322.370, 512.370 322.370, 522.370 322.370, 532.370 322.370, 542.370 322.370, 552.370 322.370, 562.370 322.370, 572.370 322.370, 582.370 322.370, 592.370 322.370, 602.370 322.370, 612.370 322.370, 622.370 322.370, 632.370 322.370, 642.370 322.370, 652.370 322.370, 662.370 322.370, 672.370 322.370, 682.370 322.370, 692.370 322.370, 701.630 " />
            <path fill="none" stroke-width="1.5" stroke-linecap="round" stroke-opacity="1.0" stroke="rgb(0, 0, 0)" stroke-linejoin="round" d=" M 474.074, 322.370 474.074, 332.370 474.074, 342.370 474.074, 352.370 474.074, 362.370 474.074, 372.370 474.074, 382.370 474.074, 392.370 474.074, 402.370 474.074, 412.370 474.074, 422.370 474.074, 432.370 474.074, 442.370 474.074, 452.370 474.074, 462.370 474.074, 472.370 474.074, 482.370 474.074, 492.370 474.074, 502.370 474.074, 512.370 474.074, 522.370 474.074, 532.370 474.074, 542.370 474.074, 552.370 474.074, 562.370 474.074, 572.370 474.074, 582.370 474.074, 592.370 474.074, 602.370 474.074, 612.370 474.074, 622.370 474.074, 632.370 474.074, 642.370 474.074, 652.370 474.074, 662.370 474.074, 672.370 474.074, 682.370 474.074, 692.370 474.074, 701.630 " />
            <path fill="none" stroke-width="1.5" stroke-linecap="round" stroke-opacity="1.0" stroke="rgb(0, 0, 0)" stroke-linejoin="round" d=" M 474.074, 701.630 484.074, 701.630 494.074, 701.630 504.074, 701.630 514.074, 701.630 524.074, 701.630 534.074, 701.630 544.074, 701.630 549.926, 701.630 " />
            <path fill="none" stroke-width="1.5" stroke-linecap="round" stroke-opacity="1.0" stroke="rgb(0, 0, 0)" stroke-linejoin="round" d=" M 549.926, 322.370 539.926, 322.370 529.926, 322.370 519.926, 322.370 509.926, 322.370 499.926, 322.370 489.926, 322.370 479.926, 322.370 474.074, 322.370 " />
            <path fill="none" stroke-width="1.5" stroke-linecap="round" stroke-opacity="1.0" stroke="rgb(0, 0, 0)" stroke-linejoin="round" d=" M 549.926, 701.630 549.926, 691.630 549.926, 681.630 549.926, 671.630 549.926, 661.630 549.926, 651.630 549.926, 641.630 549.926, 631.630 549.926, 621.630 549.926, 611.630 549.926, 601.630 549.926, 591.630 549.926, 581.630 549.926, 571.630 549.926, 561.630 549.926, 551.630 549.926, 541.630 549.926, 531.630 549.926, 521.630 549.926, 511.630 549.926, 501.630 549.926, 491.630 549.926, 481.630 549.926, 471.630 549.926, 461.630 549.926, 451.630 549.926, 441.630 549.926, 431.630 549.926, 421.630 549.926, 411.630 549.926, 401.630 549.926, 391.630 549.926, 381.630 549.926, 371.630 549.926, 361.630 549.926, 351.630 549.926, 341.630 549.926, 331.630 549.926, 322.370 " />
            <path fill="none" stroke-width="1.5" stroke-linecap="round" stroke-opacity="1.0" stroke="rgb(0, 0, 0)" stroke-linejoin="round" d=" M 549.926, 701.630 559.926, 701.630 569.926, 701.630 579.926, 701.630 589.926, 701.630 599.926, 701.630 609.926, 701.630 619.926, 701.630 629.926, 701.630 639.926, 701.630 649.926, 701.630 659.926, 701.630 669.926, 701.630 679.926, 701.630 689.926, 701.630 699.926, 701.630 701.630, 701.630 " />
            <path fill="none" stroke-width="1.5" stroke-linecap="round" stroke-opacity="1.0" stroke="rgb(0, 0, 0)" stroke-linejoin="round" d=" M 322.370, 701.630 332.370, 701.630 342.370, 701.630 352.370, 701.630 362.370, 701.630 372.370, 701.630 382.370, 701.630 392.370, 701.630 402.370, 701.630 412.370, 701.630 422.370, 701.630 432.370, 701.630 442.370, 701.630 452.370, 701.630 462.370, 701.630 472.370, 701.630 474.074, 701.630 " />
            <path fill="none" stroke-width="1.5" stroke-linecap="round" stroke-opacity="1.0" stroke="rgb(0, 0, 0)" stroke-linejoin="round" d=" M 474.074, 322.370 464.074, 322.370 454.074, 322.370 444.074, 322.370 434.074, 322.370 424.074, 322.370 414.074, 322.370 404.074, 322.370 394.074, 322.370 384.074, 322.370 374.074, 322.370 364.074, 322.370 354.074, 322.370 344.074, 322.370 334.074, 322.370 324.074, 322.370 322.370, 322.370 " />
            <path fill="none" stroke-width="1.5" stroke-linecap="round" stroke-opacity="1.0" stroke="rgb(0, 0, 0)" stroke-linejoin="round" d=" M 701.630, 322.370 691.630, 322.370 681.630, 322.370 671.630, 322.370 661.630, 322.370 651.630, 322.370 641.630, 322.370 631.630, 322.370 621.630, 322.370 611.630, 322.370 601.630, 322.370 591.630, 322.370 581.630, 322.370 571.630, 322.370 561.630, 322.370 551.630, 322.370 549.926, 322.370 " />
        </g>
    </g>
    <g id="ViewLayer_TechnicalLines.002" inkscape:groupmode="lineset" inkscape:label="ViewLayer_TechnicalLines.002">
        <g inkscape:groupmode="layer" id="strokes" inkscape:label="strokes">
            <path fill="none" stroke-width="1.5" stroke-linecap="round" stroke-opacity="1.0" stroke="rgb(0, 0, 0)" stroke-linejoin="round" d=" M 701.630, 701.630 701.630, 691.630 701.630, 681.630 701.630, 671.630 701.630, 661.630 701.630, 651.630 701.630, 641.630 701.630, 631.630 701.630, 621.630 701.630, 611.630 701.630, 601.630 701.630, 591.630 701.630, 581.630 701.630, 571.630 701.630, 561.630 701.630, 551.630 701.630, 541.630 701.630, 531.630 701.630, 521.630 701.630, 511.630 701.630, 501.630 701.630, 491.630 701.630, 481.630 701.630, 471.630 701.630, 461.630 701.630, 451.630 701.630, 441.630 701.630, 431.630 701.630, 421.630 701.630, 411.630 701.630, 401.630 701.630, 391.630 701.630, 381.630 701.630, 371.630 701.630, 361.630 701.630, 351.630 701.630, 341.630 701.630, 331.630 701.630, 322.370 " />
            <path fill="none" stroke-width="1.5" stroke-linecap="round" stroke-opacity="1.0" stroke="rgb(0, 0, 0)" stroke-linejoin="round" d=" M 322.370, 322.370 322.370, 332.370 322.370, 342.370 322.370, 352.370 322.370, 362.370 322.370, 372.370 322.370, 382.370 322.370, 392.370 322.370, 402.370 322.370, 412.370 322.370, 422.370 322.370, 432.370 322.370, 442.370 322.370, 452.370 322.370, 462.370 322.370, 472.370 322.370, 482.370 322.370, 492.370 322.370, 502.370 322.370, 512.370 322.370, 522.370 322.370, 532.370 322.370, 542.370 322.370, 552.370 322.370, 562.370 322.370, 572.370 322.370, 582.370 322.370, 592.370 322.370, 602.370 322.370, 612.370 322.370, 622.370 322.370, 632.370 322.370, 642.370 322.370, 652.370 322.370, 662.370 322.370, 672.370 322.370, 682.370 322.370, 692.370 322.370, 701.630 " />
            <path fill="none" stroke-width="1.5" stroke-linecap="round" stroke-opacity="1.0" stroke="rgb(0, 0, 0)" stroke-linejoin="round" d=" M 474.074, 322.370 474.074, 332.370 474.074, 342.370 474.074, 352.370 474.074, 362.370 474.074, 372.370 474.074, 382.370 474.074, 392.370 474.074, 402.370 474.074, 412.370 474.074, 422.370 474.074, 432.370 474.074, 442.370 474.074, 452.370 474.074, 462.370 474.074, 472.370 474.074, 482.370 474.074, 492.370 474.074, 502.370 474.074, 512.370 474.074, 522.370 474.074, 532.370 474.074, 542.370 474.074, 552.370 474.074, 562.370 474.074, 572.370 474.074, 582.370 474.074, 592.370 474.074, 602.370 474.074, 612.370 474.074, 622.370 474.074, 632.370 474.074, 642.370 474.074, 652.370 474.074, 662.370 474.074, 672.370 474.074, 682.370 474.074, 692.370 474.074, 701.630 " />
            <path fill="none" stroke-width="1.5" stroke-linecap="round" stroke-opacity="1.0" stroke="rgb(0, 0, 0)" stroke-linejoin="round" d=" M 474.074, 701.630 484.074, 701.630 494.074, 701.630 504.074, 701.630 514.074, 701.630 524.074, 701.630 534.074, 701.630 544.074, 701.630 549.926, 701.630 " />
            <path fill="none" stroke-width="1.5" stroke-linecap="round" stroke-opacity="1.0" stroke="rgb(0, 0, 0)" stroke-linejoin="round" d=" M 549.926, 322.370 539.926, 322.370 529.926, 322.370 519.926, 322.370 509.926, 322.370 499.926, 322.370 489.926, 322.370 479.926, 322.370 474.074, 322.370 " />
            <path fill="none" stroke-width="1.5" stroke-linecap="round" stroke-opacity="1.0" stroke="rgb(0, 0, 0)" stroke-linejoin="round" d=" M 549.926, 701.630 549.926, 691.630 549.926, 681.630 549.926, 671.630 549.926, 661.630 549.926, 651.630 549.926, 641.630 549.926, 631.630 549.926, 621.630 549.926, 611.630 549.926, 601.630 549.926, 591.630 549.926, 581.630 549.926, 571.630 549.926, 561.630 549.926, 551.630 549.926, 541.630 549.926, 531.630 549.926, 521.630 549.926, 511.630 549.926, 501.630 549.926, 491.630 549.926, 481.630 549.926, 471.630 549.926, 461.630 549.926, 451.630 549.926, 441.630 549.926, 431.630 549.926, 421.630 549.926, 411.630 549.926, 401.630 549.926, 391.630 549.926, 381.630 549.926, 371.630 549.926, 361.630 549.926, 351.630 549.926, 341.630 549.926, 331.630 549.926, 322.370 " />
            <path fill="none" stroke-width="1.5" stroke-linecap="round" stroke-opacity="1.0" stroke="rgb(0, 0, 0)" stroke-linejoin="round" d=" M 549.926, 701.630 559.926, 701.630 569.926, 701.630 579.926, 701.630 589.926, 701.630 599.926, 701.630 609.926, 701.630 619.926, 701.630 629.926, 701.630 639.926, 701.630 649.926, 701.630 659.926, 701.630 669.926, 701.630 679.926, 701.630 689.926, 701.630 699.926, 701.630 701.630, 701.630 " />
            <path fill="none" stroke-width="1.5" stroke-linecap="round" stroke-opacity="1.0" stroke="rgb(0, 0, 0)" stroke-linejoin="round" d=" M 322.370, 701.630 332.370, 701.630 342.370, 701.630 352.370, 701.630 362.370, 701.630 372.370, 701.630 382.370, 701.630 392.370, 701.630 402.370, 701.630 412.370, 701.630 422.370, 701.630 432.370, 701.630 442.370, 701.630 452.370, 701.630 462.370, 701.630 472.370, 701.630 474.074, 701.630 " />
            <path fill="none" stroke-width="1.5" stroke-linecap="round" stroke-opacity="1.0" stroke="rgb(0, 0, 0)" stroke-linejoin="round" d=" M 474.074, 322.370 464.074, 322.370 454.074, 322.370 444.074, 322.370 434.074, 322.370 424.074, 322.370 414.074, 322.370 404.074, 322.370 394.074, 322.370 384.074, 322.370 374.074, 322.370 364.074, 322.370 354.074, 322.370 344.074, 322.370 334.074, 322.370 324.074, 322.370 322.370, 322.370 " />
            <path fill="none" stroke-width="1.5" stroke-linecap="round" stroke-opacity="1.0" stroke="rgb(0, 0, 0)" stroke-linejoin="round" d=" M 701.630, 322.370 691.630, 322.370 681.630, 322.370 671.630, 322.370 661.630, 322.370 651.630, 322.370 641.630, 322.370 631.630, 322.370 621.630, 322.370 611.630, 322.370 601.630, 322.370 591.630, 322.370 581.630, 322.370 571.630, 322.370 561.630, 322.370 551.630, 322.370 549.926, 322.370 " />
        </g>
    </g>
    <g id="ViewLayer_TechnicalLines.003" inkscape:groupmode="lineset" inkscape:label="ViewLayer_TechnicalLines.003">
        <g inkscape:groupmode="layer" id="strokes" inkscape:label="strokes">
            <path fill="none" stroke-width="1.5" stroke-linecap="round" stroke-opacity="1.0" stroke="rgb(0, 0, 0)" stroke-linejoin="round" d=" M 701.630, 701.630 701.630, 691.630 701.630, 681.630 701.630, 671.630 701.630, 661.630 701.630, 651.630 701.630, 641.630 701.630, 631.630 701.630, 621.630 701.630, 611.630 701.630, 601.630 701.630, 591.630 701.630, 581.630 701.630, 571.630 701.630, 561.630 701.630, 551.630 701.630, 541.630 701.630, 531.630 701.630, 521.630 701.630, 511.630 701.630, 501.630 701.630, 491.630 701.630, 481.630 701.630, 471.630 701.630, 461.630 701.630, 451.630 701.630, 441.630 701.630, 431.630 701.630, 421.630 701.630, 411.630 701.630, 401.630 701.630, 391.630 701.630, 381.630 701.630, 371.630 701.630, 361.630 701.630, 351.630 701.630, 341.630 701.630, 331.630 701.630, 322.370 " />
            <path fill="none" stroke-width="1.5" stroke-linecap="round" stroke-opacity="1.0" stroke="rgb(0, 0, 0)" stroke-linejoin="round" d=" M 322.370, 322.370 322.370, 332.370 322.370, 342.370 322.370, 352.370 322.370, 362.370 322.370, 372.370 322.370, 382.370 322.370, 392.370 322.370, 402.370 322.370, 412.370 322.370, 422.370 322.370, 432.370 322.370, 442.370 322.370, 452.370 322.370, 462.370 322.370, 472.370 322.370, 482.370 322.370, 492.370 322.370, 502.370 322.370, 512.370 322.370, 522.370 322.370, 532.370 322.370, 542.370 322.370, 552.370 322.370, 562.370 322.370, 572.370 322.370, 582.370 322.370, 592.370 322.370, 602.370 322.370, 612.370 322.370, 622.370 322.370, 632.370 322.370, 642.370 322.370, 652.370 322.370, 662.370 322.370, 672.370 322.370, 682.370 322.370, 692.370 322.370, 701.630 " />
            <path fill="none" stroke-width="1.5" stroke-linecap="round" stroke-opacity="1.0" stroke="rgb(0, 0, 0)" stroke-linejoin="round" d=" M 474.074, 322.370 474.074, 332.370 474.074, 342.370 474.074, 352.370 474.074, 362.370 474.074, 372.370 474.074, 382.370 474.074, 392.370 474.074, 402.370 474.074, 412.370 474.074, 422.370 474.074, 432.370 474.074, 442.370 474.074, 452.370 474.074, 462.370 474.074, 472.370 474.074, 482.370 474.074, 492.370 474.074, 502.370 474.074, 512.370 474.074, 522.370 474.074, 532.370 474.074, 542.370 474.074, 552.370 474.074, 562.370 474.074, 572.370 474.074, 582.370 474.074, 592.370 474.074, 602.370 474.074, 612.370 474.074, 622.370 474.074, 632.370 474.074, 642.370 474.074, 652.370 474.074, 662.370 474.074, 672.370 474.074, 682.370 474.074, 692.370 474.074, 701.630 " />
            <path fill="none" stroke-width="1.5" stroke-linecap="round" stroke-opacity="1.0" stroke="rgb(0, 0, 0)" stroke-linejoin="round" d=" M 474.074, 701.630 484.074, 701.630 494.074, 701.630 504.074, 701.630 514.074, 701.630 524.074, 701.630 534.074, 701.630 544.074, 701.630 549.926, 701.630 " />
            <path fill="none" stroke-width="1.5" stroke-linecap="round" stroke-opacity="1.0" stroke="rgb(0, 0, 0)" stroke-linejoin="round" d=" M 549.926, 322.370 539.926, 322.370 529.926, 322.370 519.926, 322.370 509.926, 322.370 499.926, 322.370 489.926, 322.370 479.926, 322.370 474.074, 322.370 " />
            <path fill="none" stroke-width="1.5" stroke-linecap="round" stroke-opacity="1.0" stroke="rgb(0, 0, 0)" stroke-linejoin="round" d=" M 549.926, 701.630 549.926, 691.630 549.926, 681.630 549.926, 671.630 549.926, 661.630 549.926, 651.630 549.926, 641.630 549.926, 631.630 549.926, 621.630 549.926, 611.630 549.926, 601.630 549.926, 591.630 549.926, 581.630 549.926, 571.630 549.926, 561.630 549.926, 551.630 549.926, 541.630 549.926, 531.630 549.926, 521.630 549.926, 511.630 549.926, 501.630 549.926, 491.630 549.926, 481.630 549.926, 471.630 549.926, 461.630 549.926, 451.630 549.926, 441.630 549.926, 431.630 549.926, 421.630 549.926, 411.630 549.926, 401.630 549.926, 391.630 549.926, 381.630 549.926, 371.630 549.926, 361.630 549.926, 351.630 549.926, 341.630 549.926, 331.630 549.926, 322.370 " />
            <path fill="none" stroke-width="1.5" stroke-linecap="round" stroke-opacity="1.0" stroke="rgb(0, 0, 0)" stroke-linejoin="round" d=" M 549.926, 701.630 559.926, 701.630 569.926, 701.630 579.926, 701.630 589.926, 701.630 599.926, 701.630 609.926, 701.630 619.926, 701.630 629.926, 701.630 639.926, 701.630 649.926, 701.630 659.926, 701.630 669.926, 701.630 679.926, 701.630 689.926, 701.630 699.926, 701.630 701.630, 701.630 " />
            <path fill="none" stroke-width="1.5" stroke-linecap="round" stroke-opacity="1.0" stroke="rgb(0, 0, 0)" stroke-linejoin="round" d=" M 322.370, 701.630 332.370, 701.630 342.370, 701.630 352.370, 701.630 362.370, 701.630 372.370, 701.630 382.370, 701.630 392.370, 701.630 402.370, 701.630 412.370, 701.630 422.370, 701.630 432.370, 701.630 442.370, 701.630 452.370, 701.630 462.370, 701.630 472.370, 701.630 474.074, 701.630 " />
            <path fill="none" stroke-width="1.5" stroke-linecap="round" stroke-opacity="1.0" stroke="rgb(0, 0, 0)" stroke-linejoin="round" d=" M 474.074, 322.370 464.074, 322.370 454.074, 322.370 444.074, 322.370 434.074, 322.370 424.074, 322.370 414.074, 322.370 404.074, 322.370 394.074, 322.370 384.074, 322.370 374.074, 322.370 364.074, 322.370 354.074, 322.370 344.074, 322.370 334.074, 322.370 324.074, 322.370 322.370, 322.370 " />
            <path fill="none" stroke-width="1.5" stroke-linecap="round" stroke-opacity="1.0" stroke="rgb(0, 0, 0)" stroke-linejoin="round" d=" M 701.630, 322.370 691.630, 322.370 681.630, 322.370 671.630, 322.370 661.630, 322.370 651.630, 322.370 641.630, 322.370 631.630, 322.370 621.630, 322.370 611.630, 322.370 601.630, 322.370 591.630, 322.370 581.630, 322.370 571.630, 322.370 561.630, 322.370 551.630, 322.370 549.926, 322.370 " />
        </g>
    </g>
    <g id="ViewLayer_TechnicalLines.004" xmlns:inkscape="http://www.inkscape.org/namespaces/inkscape" inkscape:groupmode="lineset" inkscape:label="ViewLayer_TechnicalLines.004">
        <g xmlns:inkscape="http://www.inkscape.org/namespaces/inkscape" inkscape:groupmode="layer" id="strokes" inkscape:label="strokes">
            <path fill="none" stroke-width="1.5" stroke-linecap="round" stroke-opacity="1.0" stroke="rgb(0, 0, 0)" stroke-linejoin="round" d=" M 701.630, 701.630 701.630, 691.630 701.630, 681.630 701.630, 671.630 701.630, 661.630 701.630, 651.630 701.630, 641.630 701.630, 631.630 701.630, 621.630 701.630, 611.630 701.630, 601.630 701.630, 591.630 701.630, 581.630 701.630, 571.630 701.630, 561.630 701.630, 551.630 701.630, 541.630 701.630, 531.630 701.630, 521.630 701.630, 511.630 701.630, 501.630 701.630, 491.630 701.630, 481.630 701.630, 471.630 701.630, 461.630 701.630, 451.630 701.630, 441.630 701.630, 431.630 701.630, 421.630 701.630, 411.630 701.630, 401.630 701.630, 391.630 701.630, 381.630 701.630, 371.630 701.630, 361.630 701.630, 351.630 701.630, 341.630 701.630, 331.630 701.630, 322.370 " />
            <path fill="none" stroke-width="1.5" stroke-linecap="round" stroke-opacity="1.0" stroke="rgb(0, 0, 0)" stroke-linejoin="round" d=" M 322.370, 322.370 322.370, 332.370 322.370, 342.370 322.370, 352.370 322.370, 362.370 322.370, 372.370 322.370, 382.370 322.370, 392.370 322.370, 402.370 322.370, 412.370 322.370, 422.370 322.370, 432.370 322.370, 442.370 322.370, 452.370 322.370, 462.370 322.370, 472.370 322.370, 482.370 322.370, 492.370 322.370, 502.370 322.370, 512.370 322.370, 522.370 322.370, 532.370 322.370, 542.370 322.370, 552.370 322.370, 562.370 322.370, 572.370 322.370, 582.370 322.370, 592.370 322.370, 602.370 322.370, 612.370 322.370, 622.370 322.370, 632.370 322.370, 642.370 322.370, 652.370 322.370, 662.370 322.370, 672.370 322.370, 682.370 322.370, 692.370 322.370, 701.630 " />
            <path fill="none" stroke-width="1.5" stroke-linecap="round" stroke-opacity="1.0" stroke="rgb(0, 0, 0)" stroke-linejoin="round" d=" M 474.074, 322.370 474.074, 332.370 474.074, 342.370 474.074, 352.370 474.074, 362.370 474.074, 372.370 474.074, 382.370 474.074, 392.370 474.074, 402.370 474.074, 412.370 474.074, 422.370 474.074, 432.370 474.074, 442.370 474.074, 452.370 474.074, 462.370 474.074, 472.370 474.074, 482.370 474.074, 492.370 474.074, 502.370 474.074, 512.370 474.074, 522.370 474.074, 532.370 474.074, 542.370 474.074, 552.370 474.074, 562.370 474.074, 572.370 474.074, 582.370 474.074, 592.370 474.074, 602.370 474.074, 612.370 474.074, 622.370 474.074, 632.370 474.074, 642.370 474.074, 652.370 474.074, 662.370 474.074, 672.370 474.074, 682.370 474.074, 692.370 474.074, 701.630 " />
            <path fill="none" stroke-width="1.5" stroke-linecap="round" stroke-opacity="1.0" stroke="rgb(0, 0, 0)" stroke-linejoin="round" d=" M 474.074, 701.630 484.074, 701.630 494.074, 701.630 504.074, 701.630 514.074, 701.630 524.074, 701.630 534.074, 701.630 544.074, 701.630 549.926, 701.630 " />
            <path fill="none" stroke-width="1.5" stroke-linecap="round" stroke-opacity="1.0" stroke="rgb(0, 0, 0)" stroke-linejoin="round" d=" M 549.926, 322.370 539.926, 322.370 529.926, 322.370 519.926, 322.370 509.926, 322.370 499.926, 322.370 489.926, 322.370 479.926, 322.370 474.074, 322.370 " />
            <path fill="none" stroke-width="1.5" stroke-linecap="round" stroke-opacity="1.0" stroke="rgb(0, 0, 0)" stroke-linejoin="round" d=" M 549.926, 701.630 549.926, 691.630 549.926, 681.630 549.926, 671.630 549.926, 661.630 549.926, 651.630 549.926, 641.630 549.926, 631.630 549.926, 621.630 549.926, 611.630 549.926, 601.630 549.926, 591.630 549.926, 581.630 549.926, 571.630 549.926, 561.630 549.926, 551.630 549.926, 541.630 549.926, 531.630 549.926, 521.630 549.926, 511.630 549.926, 501.630 549.926, 491.630 549.926, 481.630 549.926, 471.630 549.926, 461.630 549.926, 451.630 549.926, 441.630 549.926, 431.630 549.926, 421.630 549.926, 411.630 549.926, 401.630 549.926, 391.630 549.926, 381.630 549.926, 371.630 549.926, 361.630 549.926, 351.630 549.926, 341.630 549.926, 331.630 549.926, 322.370 " />
            <path fill="none" stroke-width="1.5" stroke-linecap="round" stroke-opacity="1.0" stroke="rgb(0, 0, 0)" stroke-linejoin="round" d=" M 549.926, 701.630 559.926, 701.630 569.926, 701.630 579.926, 701.630 589.926, 701.630 599.926, 701.630 609.926, 701.630 619.926, 701.630 629.926, 701.630 639.926, 701.630 649.926, 701.630 659.926, 701.630 669.926, 701.630 679.926, 701.630 689.926, 701.630 699.926, 701.630 701.630, 701.630 " />
            <path fill="none" stroke-width="1.5" stroke-linecap="round" stroke-opacity="1.0" stroke="rgb(0, 0, 0)" stroke-linejoin="round" d=" M 322.370, 701.630 332.370, 701.630 342.370, 701.630 352.370, 701.630 362.370, 701.630 372.370, 701.630 382.370, 701.630 392.370, 701.630 402.370, 701.630 412.370, 701.630 422.370, 701.630 432.370, 701.630 442.370, 701.630 452.370, 701.630 462.370, 701.630 472.370, 701.630 474.074, 701.630 " />
            <path fill="none" stroke-width="1.5" stroke-linecap="round" stroke-opacity="1.0" stroke="rgb(0, 0, 0)" stroke-linejoin="round" d=" M 474.074, 322.370 464.074, 322.370 454.074, 322.370 444.074, 322.370 434.074, 322.370 424.074, 322.370 414.074, 322.370 404.074, 322.370 394.074, 322.370 384.074, 322.370 374.074, 322.370 364.074, 322.370 354.074, 322.370 344.074, 322.370 334.074, 322.370 324.074, 322.370 322.370, 322.370 " />
            <path fill="none" stroke-width="1.5" stroke-linecap="round" stroke-opacity="1.0" stroke="rgb(0, 0, 0)" stroke-linejoin="round" d=" M 701.630, 322.370 691.630, 322.370 681.630, 322.370 671.630, 322.370 661.630, 322.370 651.630, 322.370 641.630, 322.370 631.630, 322.370 621.630, 322.370 611.630, 322.370 601.630, 322.370 591.630, 322.370 581.630, 322.370 571.630, 322.370 561.630, 322.370 551.630, 322.370 549.926, 322.370 " />
        </g>
    </g>
</svg>
