<?xml version='1.0' encoding='ascii'?>
<svg xmlns="http://www.w3.org/2000/svg" xmlns:inkscape="http://www.inkscape.org/namespaces/inkscape" version="1.1" width="1024" height="1024">
    <g id="ViewLayer_LineSet" inkscape:groupmode="lineset" inkscape:label="ViewLayer_LineSet">
        <g inkscape:groupmode="layer" id="strokes" inkscape:label="strokes">
            <path fill="none" stroke-width="3.0" stroke-linecap="butt" stroke-opacity="1.0" stroke="rgb(0, 0, 0)" stroke-linejoin="round" d=" M 606.827, 725.931 616.348, 725.931 619.563, 725.931 619.563, 715.931 619.563, 705.931 619.563, 702.028 616.348, 702.028 606.827, 702.028 " />
            <path fill="none" stroke-width="3.0" stroke-linecap="butt" stroke-opacity="1.0" stroke="rgb(0, 0, 0)" stroke-linejoin="round" d=" M 297.659, 725.931 307.659, 725.931 313.121, 725.931 323.121, 725.931 333.121, 725.931 333.930, 725.931 343.930, 725.931 353.930, 725.931 359.285, 725.931 369.285, 725.931 379.285, 725.931 388.212, 725.931 398.212, 725.931 408.212, 725.931 418.212, 725.931 419.600, 725.931 429.600, 725.931 439.600, 725.931 449.600, 725.931 452.243, 725.931 462.243, 725.931 472.243, 725.931 482.243, 725.931 484.885, 725.931 494.885, 725.931 504.885, 725.931 514.885, 725.931 516.273, 725.931 526.273, 725.931 536.273, 725.931 545.201, 725.931 555.201, 725.931 565.201, 725.931 570.556, 725.931 580.556, 725.931 590.556, 725.931 591.365, 725.931 601.365, 725.931 606.827, 725.931 " />
            <path fill="none" stroke-width="3.0" stroke-linecap="butt" stroke-opacity="1.0" stroke="rgb(0, 0, 0)" stroke-linejoin="round" d=" M 606.827, 702.028 596.827, 702.028 591.365, 702.028 581.365, 702.028 571.365, 702.028 570.556, 702.028 560.556, 702.028 550.556, 702.028 545.201, 702.028 535.201, 702.028 525.201, 702.028 516.273, 702.028 506.273, 702.028 496.273, 702.028 486.273, 702.028 484.885, 702.028 474.885, 702.028 464.885, 702.028 454.885, 702.028 452.243, 702.028 442.243, 702.028 432.243, 702.028 422.243, 702.028 419.600, 702.028 409.600, 702.028 399.600, 702.028 389.600, 702.028 388.212, 702.028 378.212, 702.028 368.212, 702.028 359.285, 702.028 349.285, 702.028 339.285, 702.028 333.930, 702.028 323.930, 702.028 313.930, 702.028 313.121, 702.028 303.121, 702.028 297.659, 702.028 288.138, 702.028 284.923, 702.028 284.923, 712.028 284.923, 722.028 284.923, 725.931 288.138, 725.931 297.659, 725.931 " />
            <path fill="none" stroke-width="3.0" stroke-linecap="butt" stroke-opacity="1.0" stroke="rgb(0, 0, 0)" stroke-linejoin="round" d=" M 606.827, 725.931 596.827, 725.931 591.365, 725.931 581.365, 725.931 571.365, 725.931 570.556, 725.931 560.556, 725.931 550.556, 725.931 545.201, 725.931 535.201, 725.931 525.201, 725.931 516.273, 725.931 506.273, 725.931 496.273, 725.931 486.273, 725.931 484.885, 725.931 474.885, 725.931 464.885, 725.931 454.885, 725.931 452.243, 725.931 442.243, 725.931 432.243, 725.931 422.243, 725.931 419.600, 725.931 409.600, 725.931 399.600, 725.931 389.600, 725.931 388.212, 725.931 378.212, 725.931 368.212, 725.931 359.285, 725.931 349.285, 725.931 339.285, 725.931 333.930, 725.931 323.930, 725.931 313.930, 725.931 313.121, 725.931 303.121, 725.931 297.659, 725.931 " />
            <path fill="none" stroke-width="3.0" stroke-linecap="butt" stroke-opacity="1.0" stroke="rgb(0, 0, 0)" stroke-linejoin="round" d=" M 294.484, 675.735 294.484, 675.735 304.484, 675.735 314.484, 675.735 324.484, 675.735 334.484, 675.735 344.484, 675.735 354.484, 675.735 364.484, 675.735 374.484, 675.735 384.484, 675.735 394.484, 675.735 404.484, 675.735 414.484, 675.735 424.484, 675.735 434.484, 675.735 444.484, 675.735 454.484, 675.735 464.484, 675.735 474.484, 675.735 484.484, 675.735 494.484, 675.735 504.484, 675.735 514.484, 675.735 524.484, 675.735 534.484, 675.735 544.484, 675.735 554.484, 675.735 564.484, 675.735 574.484, 675.735 584.484, 675.735 594.484, 675.735 604.484, 675.735 614.484, 675.735 624.484, 675.735 634.484, 675.735 644.484, 675.735 653.027, 675.735 653.027, 665.735 653.027, 655.735 653.027, 645.735 653.027, 635.735 653.027, 625.735 653.027, 615.735 653.027, 608.807 653.027, 608.807 643.027, 608.807 633.027, 608.807 623.027, 608.807 613.027, 608.807 603.027, 608.807 593.027, 608.807 583.027, 608.807 573.027, 608.807 563.027, 608.807 553.027, 608.807 543.027, 608.807 533.027, 608.807 523.027, 608.807 513.027, 608.807 503.027, 608.807 493.027, 608.807 483.027, 608.807 473.027, 608.807 463.027, 608.807 453.027, 608.807 443.027, 608.807 433.027, 608.807 423.027, 608.807 413.027, 608.807 403.027, 608.807 393.027, 608.807 383.027, 608.807 373.027, 608.807 363.027, 608.807 353.027, 608.807 343.027, 608.807 333.027, 608.807 323.027, 608.807 313.027, 608.807 303.027, 608.807 294.484, 608.807 294.484, 608.807 284.484, 608.807 274.484, 608.807 264.484, 608.807 254.484, 608.807 251.458, 608.807 251.458, 618.807 251.458, 628.807 251.458, 638.807 251.458, 648.807 251.458, 658.807 251.458, 668.807 251.458, 675.735 " />
            <path fill="none" stroke-width="3.0" stroke-linecap="butt" stroke-opacity="1.0" stroke="rgb(0, 0, 0)" stroke-linejoin="round" d=" M 653.027, 608.807 653.027, 618.807 653.027, 628.807 653.027, 638.807 653.027, 648.807 653.027, 658.807 653.027, 668.807 653.027, 675.735 " />
            <path fill="none" stroke-width="3.0" stroke-linecap="butt" stroke-opacity="1.0" stroke="rgb(0, 0, 0)" stroke-linejoin="round" d=" M 251.458, 675.735 261.458, 675.735 271.458, 675.735 281.458, 675.735 291.458, 675.735 294.484, 675.735 304.484, 675.735 314.484, 675.735 324.484, 675.735 334.484, 675.735 344.484, 675.735 354.484, 675.735 364.484, 675.735 374.484, 675.735 384.484, 675.735 394.484, 675.735 404.484, 675.735 414.484, 675.735 424.484, 675.735 434.484, 675.735 444.484, 675.735 454.484, 675.735 464.484, 675.735 474.484, 675.735 484.484, 675.735 494.484, 675.735 504.484, 675.735 514.484, 675.735 524.484, 675.735 534.484, 675.735 544.484, 675.735 554.484, 675.735 564.484, 675.735 574.484, 675.735 584.484, 675.735 594.484, 675.735 604.484, 675.735 614.484, 675.735 624.484, 675.735 634.484, 675.735 644.484, 675.735 653.027, 675.735 653.027, 675.735 " />
            <path fill="none" stroke-width="3.0" stroke-linecap="butt" stroke-opacity="1.0" stroke="rgb(0, 0, 0)" stroke-linejoin="round" d=" M 294.484, 608.807 294.484, 598.807 294.484, 588.807 294.484, 578.807 294.484, 568.807 294.484, 558.807 294.484, 548.807 294.484, 538.807 294.484, 528.807 294.484, 518.807 294.484, 508.807 294.484, 498.807 294.484, 488.807 294.484, 478.807 294.484, 468.807 294.484, 458.807 294.484, 448.807 294.484, 438.807 294.484, 428.807 294.484, 418.807 294.484, 408.807 294.484, 398.807 294.484, 388.807 294.484, 378.807 294.484, 368.807 294.484, 358.807 294.484, 348.807 294.484, 338.807 294.484, 328.807 294.484, 318.807 294.484, 308.807 294.484, 298.069 294.484, 298.069 284.484, 298.069 274.484, 298.069 264.484, 298.069 254.484, 298.069 244.484, 298.069 234.484, 298.069 227.556, 298.069 227.556, 298.069 227.556, 308.069 227.556, 318.069 227.556, 328.069 227.556, 338.069 227.556, 348.069 227.556, 358.069 227.556, 368.069 227.556, 378.069 227.556, 388.069 227.556, 398.069 227.556, 408.069 227.556, 418.069 227.556, 428.069 227.556, 438.069 227.556, 448.069 227.556, 458.069 227.556, 468.069 227.556, 478.069 227.556, 488.069 227.556, 498.069 227.556, 508.069 227.556, 518.069 227.556, 528.069 227.556, 538.069 227.556, 548.069 227.556, 558.069 227.556, 568.069 227.556, 578.069 227.556, 588.069 227.556, 598.069 227.556, 608.069 227.556, 618.069 227.556, 628.069 227.556, 638.069 227.556, 648.069 227.556, 658.069 227.556, 668.069 227.556, 678.069 227.556, 688.069 227.556, 699.638 227.556, 699.638 237.556, 699.638 247.556, 699.638 257.556, 699.638 267.556, 699.638 277.556, 699.638 287.556, 699.638 294.484, 699.638 294.484, 689.638 294.484, 679.638 294.484, 675.735 294.484, 675.735 " />
            <path fill="none" stroke-width="3.0" stroke-linecap="butt" stroke-opacity="1.0" stroke="rgb(0, 0, 0)" stroke-linejoin="round" d=" M 294.484, 298.069 294.484, 308.069 294.484, 318.069 294.484, 328.069 294.484, 338.069 294.484, 348.069 294.484, 358.069 294.484, 368.069 294.484, 378.069 294.484, 388.069 294.484, 398.069 294.484, 408.069 294.484, 418.069 294.484, 428.069 294.484, 438.069 294.484, 448.069 294.484, 458.069 294.484, 468.069 294.484, 478.069 294.484, 488.069 294.484, 498.069 294.484, 508.069 294.484, 518.069 294.484, 528.069 294.484, 538.069 294.484, 548.069 294.484, 558.069 294.484, 568.069 294.484, 578.069 294.484, 588.069 294.484, 598.069 294.484, 608.807 294.484, 618.807 294.484, 628.807 294.484, 638.807 294.484, 648.807 294.484, 658.807 294.484, 668.807 294.484, 675.735 294.484, 685.735 294.484, 695.735 294.484, 699.638 " />
            <path fill="none" stroke-width="3.0" stroke-linecap="butt" stroke-opacity="1.0" stroke="rgb(0, 0, 0)" stroke-linejoin="round" d=" M 227.556, 699.638 237.556, 699.638 247.556, 699.638 257.556, 699.638 267.556, 699.638 277.556, 699.638 287.556, 699.638 294.484, 699.638 294.484, 699.638 " />
            <path fill="none" stroke-width="3.0" stroke-linecap="butt" stroke-opacity="1.0" stroke="rgb(0, 0, 0)" stroke-linejoin="round" d=" M 480.926, 594.465 480.926, 584.465 480.926, 574.465 480.926, 570.562 " />
            <path fill="none" stroke-width="3.0" stroke-linecap="butt" stroke-opacity="1.0" stroke="rgb(0, 0, 0)" stroke-linejoin="round" d=" M 480.926, 594.465 480.926, 584.465 480.926, 574.465 480.926, 570.562 " />
            <path fill="none" stroke-width="3.0" stroke-linecap="butt" stroke-opacity="1.0" stroke="rgb(0, 0, 0)" stroke-linejoin="round" d=" M 796.445, 692.467 796.445, 682.467 796.445, 672.467 796.445, 663.783 796.444, 663.783 786.444, 663.783 776.444, 663.783 766.444, 663.783 756.445, 663.783 746.444, 663.783 736.444, 663.783 726.444, 663.783 716.445, 663.783 706.444, 663.783 696.444, 663.783 686.445, 663.783 681.711, 663.783 681.711, 663.783 681.711, 673.783 681.711, 683.783 681.711, 692.467 691.711, 692.467 701.711, 692.467 711.711, 692.467 721.711, 692.467 731.711, 692.467 741.711, 692.467 751.711, 692.467 761.711, 692.467 771.711, 692.467 781.711, 692.467 791.711, 692.467 796.444, 692.467 796.445, 692.467 " />
            <path fill="none" stroke-width="3.0" stroke-linecap="butt" stroke-opacity="1.0" stroke="rgb(0, 0, 0)" stroke-linejoin="round" d=" M 796.444, 663.783 796.444, 673.783 796.444, 683.783 796.444, 692.467 " />
            <path fill="none" stroke-width="3.0" stroke-linecap="butt" stroke-opacity="1.0" stroke="rgb(0, 0, 0)" stroke-linejoin="round" d=" M 452.243, 570.562 454.574, 570.792 456.816, 571.472 458.883, 572.576 460.694, 574.063 462.180, 575.874 463.284, 577.940 463.965, 580.182 464.194, 582.514 463.965, 584.845 463.284, 587.087 462.180, 589.153 460.694, 590.965 458.883, 592.451 456.816, 593.555 454.574, 594.235 452.243, 594.465 " />
            <path fill="none" stroke-width="3.0" stroke-linecap="butt" stroke-opacity="1.0" stroke="rgb(0, 0, 0)" stroke-linejoin="round" d=" M 449.911, 594.235 452.243, 594.465 " />
            <path fill="none" stroke-width="3.0" stroke-linecap="butt" stroke-opacity="1.0" stroke="rgb(0, 0, 0)" stroke-linejoin="round" d=" M 445.603, 592.451 447.669, 593.555 449.911, 594.235 " />
            <path fill="none" stroke-width="3.0" stroke-linecap="butt" stroke-opacity="1.0" stroke="rgb(0, 0, 0)" stroke-linejoin="round" d=" M 452.243, 570.562 449.911, 570.792 447.669, 571.472 445.603, 572.576 443.792, 574.063 442.306, 575.874 441.201, 577.940 440.521, 580.182 440.291, 582.514 440.521, 584.845 441.201, 587.087 442.306, 589.153 443.792, 590.965 445.603, 592.451 " />
            <path fill="none" stroke-width="3.0" stroke-linecap="butt" stroke-opacity="1.0" stroke="rgb(0, 0, 0)" stroke-linejoin="round" d=" M 423.559, 570.562 423.559, 580.562 423.559, 590.562 423.559, 594.465 " />
            <path fill="none" stroke-width="3.0" stroke-linecap="butt" stroke-opacity="1.0" stroke="rgb(0, 0, 0)" stroke-linejoin="round" d=" M 423.559, 594.465 423.559, 594.465 " />
            <path fill="none" stroke-width="3.0" stroke-linecap="butt" stroke-opacity="1.0" stroke="rgb(0, 0, 0)" stroke-linejoin="round" d=" M 452.243, 570.562 452.243, 570.562 " />
            <path fill="none" stroke-width="3.0" stroke-linecap="butt" stroke-opacity="1.0" stroke="rgb(0, 0, 0)" stroke-linejoin="round" d=" M 452.243, 570.562 452.243, 570.562 " />
            <path fill="none" stroke-width="3.0" stroke-linecap="butt" stroke-opacity="1.0" stroke="rgb(0, 0, 0)" stroke-linejoin="round" d=" M 452.243, 594.465 454.574, 594.235 " />
            <path fill="none" stroke-width="3.0" stroke-linecap="butt" stroke-opacity="1.0" stroke="rgb(0, 0, 0)" stroke-linejoin="round" d=" M 452.243, 594.465 462.243, 594.465 472.243, 594.465 480.926, 594.465 " />
            <path fill="none" stroke-width="3.0" stroke-linecap="butt" stroke-opacity="1.0" stroke="rgb(0, 0, 0)" stroke-linejoin="round" d=" M 423.559, 594.465 433.559, 594.465 443.559, 594.465 452.243, 594.465 " />
            <path fill="none" stroke-width="3.0" stroke-linecap="butt" stroke-opacity="1.0" stroke="rgb(0, 0, 0)" stroke-linejoin="round" d=" M 423.559, 594.465 423.559, 594.465 " />
            <path fill="none" stroke-width="3.0" stroke-linecap="butt" stroke-opacity="1.0" stroke="rgb(0, 0, 0)" stroke-linejoin="round" d=" M 480.926, 570.562 480.926, 570.562 " />
            <path fill="none" stroke-width="3.0" stroke-linecap="butt" stroke-opacity="1.0" stroke="rgb(0, 0, 0)" stroke-linejoin="round" d=" M 452.243, 570.562 442.243, 570.562 432.243, 570.562 423.559, 570.562 " />
            <path fill="none" stroke-width="3.0" stroke-linecap="butt" stroke-opacity="1.0" stroke="rgb(0, 0, 0)" stroke-linejoin="round" d=" M 480.926, 570.562 470.926, 570.562 460.926, 570.562 452.243, 570.562 " />
            <path fill="none" stroke-width="3.0" stroke-linecap="butt" stroke-opacity="1.0" stroke="rgb(0, 0, 0)" stroke-linejoin="round" d=" M 423.559, 594.465 433.559, 594.465 443.559, 594.465 453.559, 594.465 463.559, 594.465 473.559, 594.465 480.926, 594.465 " />
            <path fill="none" stroke-width="3.0" stroke-linecap="butt" stroke-opacity="1.0" stroke="rgb(0, 0, 0)" stroke-linejoin="round" d=" M 480.926, 570.562 480.926, 570.562 " />
            <path fill="none" stroke-width="3.0" stroke-linecap="butt" stroke-opacity="1.0" stroke="rgb(0, 0, 0)" stroke-linejoin="round" d=" M 297.659, 725.931 307.659, 725.931 317.659, 725.931 327.659, 725.931 337.659, 725.931 347.659, 725.931 357.659, 725.931 367.659, 725.931 377.659, 725.931 387.659, 725.931 397.659, 725.931 407.659, 725.931 417.659, 725.931 427.659, 725.931 437.659, 725.931 447.659, 725.931 457.659, 725.931 467.659, 725.931 477.659, 725.931 487.659, 725.931 497.659, 725.931 507.659, 725.931 517.659, 725.931 527.659, 725.931 537.659, 725.931 547.659, 725.931 557.659, 725.931 567.659, 725.931 577.659, 725.931 587.659, 725.931 597.659, 725.931 606.827, 725.931 " />
        </g>
    </g>
    <g id="ViewLayer_TechnicalLines" inkscape:groupmode="lineset" inkscape:label="ViewLayer_TechnicalLines">
        <g inkscape:groupmode="layer" id="strokes" inkscape:label="strokes">
            <path fill="none" stroke-width="3.0" stroke-linecap="butt" stroke-opacity="1.0" stroke="rgb(0, 0, 0)" stroke-linejoin="round" d=" M 606.827, 725.931 616.348, 725.931 619.563, 725.931 619.563, 715.931 619.563, 705.931 619.563, 702.028 616.348, 702.028 606.827, 702.028 " />
            <path fill="none" stroke-width="3.0" stroke-linecap="butt" stroke-opacity="1.0" stroke="rgb(0, 0, 0)" stroke-linejoin="round" d=" M 297.659, 725.931 307.659, 725.931 313.121, 725.931 323.121, 725.931 333.121, 725.931 333.930, 725.931 343.930, 725.931 353.930, 725.931 359.285, 725.931 369.285, 725.931 379.285, 725.931 388.212, 725.931 398.212, 725.931 408.212, 725.931 418.212, 725.931 419.600, 725.931 429.600, 725.931 439.600, 725.931 449.600, 725.931 452.243, 725.931 462.243, 725.931 472.243, 725.931 482.243, 725.931 484.885, 725.931 494.885, 725.931 504.885, 725.931 514.885, 725.931 516.273, 725.931 526.273, 725.931 536.273, 725.931 545.201, 725.931 555.201, 725.931 565.201, 725.931 570.556, 725.931 580.556, 725.931 590.556, 725.931 591.365, 725.931 601.365, 725.931 606.827, 725.931 " />
            <path fill="none" stroke-width="3.0" stroke-linecap="butt" stroke-opacity="1.0" stroke="rgb(0, 0, 0)" stroke-linejoin="round" d=" M 606.827, 702.028 596.827, 702.028 591.365, 702.028 581.365, 702.028 571.365, 702.028 570.556, 702.028 560.556, 702.028 550.556, 702.028 545.201, 702.028 535.201, 702.028 525.201, 702.028 516.273, 702.028 506.273, 702.028 496.273, 702.028 486.273, 702.028 484.885, 702.028 474.885, 702.028 464.885, 702.028 454.885, 702.028 452.243, 702.028 442.243, 702.028 432.243, 702.028 422.243, 702.028 419.600, 702.028 409.600, 702.028 399.600, 702.028 389.600, 702.028 388.212, 702.028 378.212, 702.028 368.212, 702.028 359.285, 702.028 349.285, 702.028 339.285, 702.028 333.930, 702.028 323.930, 702.028 313.930, 702.028 313.121, 702.028 303.121, 702.028 297.659, 702.028 288.138, 702.028 284.923, 702.028 284.923, 712.028 284.923, 722.028 284.923, 725.931 288.138, 725.931 297.659, 725.931 " />
            <path fill="none" stroke-width="3.0" stroke-linecap="butt" stroke-opacity="1.0" stroke="rgb(0, 0, 0)" stroke-linejoin="round" d=" M 606.827, 725.931 596.827, 725.931 591.365, 725.931 581.365, 725.931 571.365, 725.931 570.556, 725.931 560.556, 725.931 550.556, 725.931 545.201, 725.931 535.201, 725.931 525.201, 725.931 516.273, 725.931 506.273, 725.931 496.273, 725.931 486.273, 725.931 484.885, 725.931 474.885, 725.931 464.885, 725.931 454.885, 725.931 452.243, 725.931 442.243, 725.931 432.243, 725.931 422.243, 725.931 419.600, 725.931 409.600, 725.931 399.600, 725.931 389.600, 725.931 388.212, 725.931 378.212, 725.931 368.212, 725.931 359.285, 725.931 349.285, 725.931 339.285, 725.931 333.930, 725.931 323.930, 725.931 313.930, 725.931 313.121, 725.931 303.121, 725.931 297.659, 725.931 " />
            <path fill="none" stroke-width="3.0" stroke-linecap="butt" stroke-opacity="1.0" stroke="rgb(0, 0, 0)" stroke-linejoin="round" d=" M 294.484, 675.735 294.484, 675.735 304.484, 675.735 314.484, 675.735 324.484, 675.735 334.484, 675.735 344.484, 675.735 354.484, 675.735 364.484, 675.735 374.484, 675.735 384.484, 675.735 394.484, 675.735 404.484, 675.735 414.484, 675.735 424.484, 675.735 434.484, 675.735 444.484, 675.735 454.484, 675.735 464.484, 675.735 474.484, 675.735 484.484, 675.735 494.484, 675.735 504.484, 675.735 514.484, 675.735 524.484, 675.735 534.484, 675.735 544.484, 675.735 554.484, 675.735 564.484, 675.735 574.484, 675.735 584.484, 675.735 594.484, 675.735 604.484, 675.735 614.484, 675.735 624.484, 675.735 634.484, 675.735 644.484, 675.735 653.027, 675.735 653.027, 665.735 653.027, 655.735 653.027, 645.735 653.027, 635.735 653.027, 625.735 653.027, 615.735 653.027, 608.807 653.027, 608.807 643.027, 608.807 633.027, 608.807 623.027, 608.807 613.027, 608.807 603.027, 608.807 593.027, 608.807 583.027, 608.807 573.027, 608.807 563.027, 608.807 553.027, 608.807 543.027, 608.807 533.027, 608.807 523.027, 608.807 513.027, 608.807 503.027, 608.807 493.027, 608.807 483.027, 608.807 473.027, 608.807 463.027, 608.807 453.027, 608.807 443.027, 608.807 433.027, 608.807 423.027, 608.807 413.027, 608.807 403.027, 608.807 393.027, 608.807 383.027, 608.807 373.027, 608.807 363.027, 608.807 353.027, 608.807 343.027, 608.807 333.027, 608.807 323.027, 608.807 313.027, 608.807 303.027, 608.807 294.484, 608.807 294.484, 608.807 284.484, 608.807 274.484, 608.807 264.484, 608.807 254.484, 608.807 251.458, 608.807 251.458, 618.807 251.458, 628.807 251.458, 638.807 251.458, 648.807 251.458, 658.807 251.458, 668.807 251.458, 675.735 " />
            <path fill="none" stroke-width="3.0" stroke-linecap="butt" stroke-opacity="1.0" stroke="rgb(0, 0, 0)" stroke-linejoin="round" d=" M 653.027, 608.807 653.027, 618.807 653.027, 628.807 653.027, 638.807 653.027, 648.807 653.027, 658.807 653.027, 668.807 653.027, 675.735 " />
            <path fill="none" stroke-width="3.0" stroke-linecap="butt" stroke-opacity="1.0" stroke="rgb(0, 0, 0)" stroke-linejoin="round" d=" M 251.458, 675.735 261.458, 675.735 271.458, 675.735 281.458, 675.735 291.458, 675.735 294.484, 675.735 304.484, 675.735 314.484, 675.735 324.484, 675.735 334.484, 675.735 344.484, 675.735 354.484, 675.735 364.484, 675.735 374.484, 675.735 384.484, 675.735 394.484, 675.735 404.484, 675.735 414.484, 675.735 424.484, 675.735 434.484, 675.735 444.484, 675.735 454.484, 675.735 464.484, 675.735 474.484, 675.735 484.484, 675.735 494.484, 675.735 504.484, 675.735 514.484, 675.735 524.484, 675.735 534.484, 675.735 544.484, 675.735 554.484, 675.735 564.484, 675.735 574.484, 675.735 584.484, 675.735 594.484, 675.735 604.484, 675.735 614.484, 675.735 624.484, 675.735 634.484, 675.735 644.484, 675.735 653.027, 675.735 653.027, 675.735 " />
            <path fill="none" stroke-width="3.0" stroke-linecap="butt" stroke-opacity="1.0" stroke="rgb(0, 0, 0)" stroke-linejoin="round" d=" M 294.484, 608.807 294.484, 598.807 294.484, 588.807 294.484, 578.807 294.484, 568.807 294.484, 558.807 294.484, 548.807 294.484, 538.807 294.484, 528.807 294.484, 518.807 294.484, 508.807 294.484, 498.807 294.484, 488.807 294.484, 478.807 294.484, 468.807 294.484, 458.807 294.484, 448.807 294.484, 438.807 294.484, 428.807 294.484, 418.807 294.484, 408.807 294.484, 398.807 294.484, 388.807 294.484, 378.807 294.484, 368.807 294.484, 358.807 294.484, 348.807 294.484, 338.807 294.484, 328.807 294.484, 318.807 294.484, 308.807 294.484, 298.069 294.484, 298.069 284.484, 298.069 274.484, 298.069 264.484, 298.069 254.484, 298.069 244.484, 298.069 234.484, 298.069 227.556, 298.069 227.556, 298.069 227.556, 308.069 227.556, 318.069 227.556, 328.069 227.556, 338.069 227.556, 348.069 227.556, 358.069 227.556, 368.069 227.556, 378.069 227.556, 388.069 227.556, 398.069 227.556, 408.069 227.556, 418.069 227.556, 428.069 227.556, 438.069 227.556, 448.069 227.556, 458.069 227.556, 468.069 227.556, 478.069 227.556, 488.069 227.556, 498.069 227.556, 508.069 227.556, 518.069 227.556, 528.069 227.556, 538.069 227.556, 548.069 227.556, 558.069 227.556, 568.069 227.556, 578.069 227.556, 588.069 227.556, 598.069 227.556, 608.069 227.556, 618.069 227.556, 628.069 227.556, 638.069 227.556, 648.069 227.556, 658.069 227.556, 668.069 227.556, 678.069 227.556, 688.069 227.556, 699.638 227.556, 699.638 237.556, 699.638 247.556, 699.638 257.556, 699.638 267.556, 699.638 277.556, 699.638 287.556, 699.638 294.484, 699.638 294.484, 689.638 294.484, 679.638 294.484, 675.735 294.484, 675.735 " />
            <path fill="none" stroke-width="3.0" stroke-linecap="butt" stroke-opacity="1.0" stroke="rgb(0, 0, 0)" stroke-linejoin="round" d=" M 294.484, 298.069 294.484, 308.069 294.484, 318.069 294.484, 328.069 294.484, 338.069 294.484, 348.069 294.484, 358.069 294.484, 368.069 294.484, 378.069 294.484, 388.069 294.484, 398.069 294.484, 408.069 294.484, 418.069 294.484, 428.069 294.484, 438.069 294.484, 448.069 294.484, 458.069 294.484, 468.069 294.484, 478.069 294.484, 488.069 294.484, 498.069 294.484, 508.069 294.484, 518.069 294.484, 528.069 294.484, 538.069 294.484, 548.069 294.484, 558.069 294.484, 568.069 294.484, 578.069 294.484, 588.069 294.484, 598.069 294.484, 608.807 294.484, 618.807 294.484, 628.807 294.484, 638.807 294.484, 648.807 294.484, 658.807 294.484, 668.807 294.484, 675.735 294.484, 685.735 294.484, 695.735 294.484, 699.638 " />
            <path fill="none" stroke-width="3.0" stroke-linecap="butt" stroke-opacity="1.0" stroke="rgb(0, 0, 0)" stroke-linejoin="round" d=" M 227.556, 699.638 237.556, 699.638 247.556, 699.638 257.556, 699.638 267.556, 699.638 277.556, 699.638 287.556, 699.638 294.484, 699.638 294.484, 699.638 " />
            <path fill="none" stroke-width="3.0" stroke-linecap="butt" stroke-opacity="1.0" stroke="rgb(0, 0, 0)" stroke-linejoin="round" d=" M 480.926, 594.465 480.926, 584.465 480.926, 574.465 480.926, 570.562 " />
            <path fill="none" stroke-width="3.0" stroke-linecap="butt" stroke-opacity="1.0" stroke="rgb(0, 0, 0)" stroke-linejoin="round" d=" M 480.926, 594.465 480.926, 584.465 480.926, 574.465 480.926, 570.562 " />
            <path fill="none" stroke-width="3.0" stroke-linecap="butt" stroke-opacity="1.0" stroke="rgb(0, 0, 0)" stroke-linejoin="round" d=" M 796.445, 692.467 796.445, 682.467 796.445, 672.467 796.445, 663.783 796.444, 663.783 786.444, 663.783 776.444, 663.783 766.444, 663.783 756.445, 663.783 746.444, 663.783 736.444, 663.783 726.444, 663.783 716.445, 663.783 706.444, 663.783 696.444, 663.783 686.445, 663.783 681.711, 663.783 681.711, 663.783 681.711, 673.783 681.711, 683.783 681.711, 692.467 691.711, 692.467 701.711, 692.467 711.711, 692.467 721.711, 692.467 731.711, 692.467 741.711, 692.467 751.711, 692.467 761.711, 692.467 771.711, 692.467 781.711, 692.467 791.711, 692.467 796.444, 692.467 796.445, 692.467 " />
            <path fill="none" stroke-width="3.0" stroke-linecap="butt" stroke-opacity="1.0" stroke="rgb(0, 0, 0)" stroke-linejoin="round" d=" M 796.444, 663.783 796.444, 673.783 796.444, 683.783 796.444, 692.467 " />
            <path fill="none" stroke-width="3.0" stroke-linecap="butt" stroke-opacity="1.0" stroke="rgb(0, 0, 0)" stroke-linejoin="round" d=" M 452.243, 570.562 454.574, 570.792 456.816, 571.472 458.883, 572.576 460.694, 574.063 462.180, 575.874 463.284, 577.940 463.965, 580.182 464.194, 582.514 463.965, 584.845 463.284, 587.087 462.180, 589.153 460.694, 590.965 458.883, 592.451 456.816, 593.555 454.574, 594.235 452.243, 594.465 " />
            <path fill="none" stroke-width="3.0" stroke-linecap="butt" stroke-opacity="1.0" stroke="rgb(0, 0, 0)" stroke-linejoin="round" d=" M 449.911, 594.235 452.243, 594.465 " />
            <path fill="none" stroke-width="3.0" stroke-linecap="butt" stroke-opacity="1.0" stroke="rgb(0, 0, 0)" stroke-linejoin="round" d=" M 445.603, 592.451 447.669, 593.555 449.911, 594.235 " />
            <path fill="none" stroke-width="3.0" stroke-linecap="butt" stroke-opacity="1.0" stroke="rgb(0, 0, 0)" stroke-linejoin="round" d=" M 452.243, 570.562 449.911, 570.792 447.669, 571.472 445.603, 572.576 443.792, 574.063 442.306, 575.874 441.201, 577.940 440.521, 580.182 440.291, 582.514 440.521, 584.845 441.201, 587.087 442.306, 589.153 443.792, 590.965 445.603, 592.451 " />
            <path fill="none" stroke-width="3.0" stroke-linecap="butt" stroke-opacity="1.0" stroke="rgb(0, 0, 0)" stroke-linejoin="round" d=" M 423.559, 570.562 423.559, 580.562 423.559, 590.562 423.559, 594.465 " />
            <path fill="none" stroke-width="3.0" stroke-linecap="butt" stroke-opacity="1.0" stroke="rgb(0, 0, 0)" stroke-linejoin="round" d=" M 423.559, 594.465 423.559, 594.465 " />
            <path fill="none" stroke-width="3.0" stroke-linecap="butt" stroke-opacity="1.0" stroke="rgb(0, 0, 0)" stroke-linejoin="round" d=" M 452.243, 570.562 452.243, 570.562 " />
            <path fill="none" stroke-width="3.0" stroke-linecap="butt" stroke-opacity="1.0" stroke="rgb(0, 0, 0)" stroke-linejoin="round" d=" M 452.243, 570.562 452.243, 570.562 " />
            <path fill="none" stroke-width="3.0" stroke-linecap="butt" stroke-opacity="1.0" stroke="rgb(0, 0, 0)" stroke-linejoin="round" d=" M 452.243, 594.465 454.574, 594.235 " />
            <path fill="none" stroke-width="3.0" stroke-linecap="butt" stroke-opacity="1.0" stroke="rgb(0, 0, 0)" stroke-linejoin="round" d=" M 452.243, 594.465 462.243, 594.465 472.243, 594.465 480.926, 594.465 " />
            <path fill="none" stroke-width="3.0" stroke-linecap="butt" stroke-opacity="1.0" stroke="rgb(0, 0, 0)" stroke-linejoin="round" d=" M 423.559, 594.465 433.559, 594.465 443.559, 594.465 452.243, 594.465 " />
            <path fill="none" stroke-width="3.0" stroke-linecap="butt" stroke-opacity="1.0" stroke="rgb(0, 0, 0)" stroke-linejoin="round" d=" M 423.559, 594.465 423.559, 594.465 " />
            <path fill="none" stroke-width="3.0" stroke-linecap="butt" stroke-opacity="1.0" stroke="rgb(0, 0, 0)" stroke-linejoin="round" d=" M 480.926, 570.562 480.926, 570.562 " />
            <path fill="none" stroke-width="3.0" stroke-linecap="butt" stroke-opacity="1.0" stroke="rgb(0, 0, 0)" stroke-linejoin="round" d=" M 452.243, 570.562 442.243, 570.562 432.243, 570.562 423.559, 570.562 " />
            <path fill="none" stroke-width="3.0" stroke-linecap="butt" stroke-opacity="1.0" stroke="rgb(0, 0, 0)" stroke-linejoin="round" d=" M 480.926, 570.562 470.926, 570.562 460.926, 570.562 452.243, 570.562 " />
            <path fill="none" stroke-width="3.0" stroke-linecap="butt" stroke-opacity="1.0" stroke="rgb(0, 0, 0)" stroke-linejoin="round" d=" M 423.559, 594.465 433.559, 594.465 443.559, 594.465 453.559, 594.465 463.559, 594.465 473.559, 594.465 480.926, 594.465 " />
            <path fill="none" stroke-width="3.0" stroke-linecap="butt" stroke-opacity="1.0" stroke="rgb(0, 0, 0)" stroke-linejoin="round" d=" M 480.926, 570.562 480.926, 570.562 " />
        </g>
    </g>
    <g id="ViewLayer_TechnicalLines.001" inkscape:groupmode="lineset" inkscape:label="ViewLayer_TechnicalLines.001">
        <g inkscape:groupmode="layer" id="strokes" inkscape:label="strokes">
            <path fill="none" stroke-width="1.5" stroke-linecap="round" stroke-opacity="1.0" stroke="rgb(0, 0, 0)" stroke-linejoin="round" d=" M 606.827, 725.931 616.348, 725.931 619.563, 725.931 619.563, 715.931 619.563, 705.931 619.563, 702.028 616.348, 702.028 606.827, 702.028 " />
            <path fill="none" stroke-width="1.5" stroke-linecap="round" stroke-opacity="1.0" stroke="rgb(0, 0, 0)" stroke-linejoin="round" d=" M 297.659, 725.931 307.659, 725.931 313.121, 725.931 323.121, 725.931 333.121, 725.931 333.930, 725.931 343.930, 725.931 353.930, 725.931 359.285, 725.931 369.285, 725.931 379.285, 725.931 388.212, 725.931 398.212, 725.931 408.212, 725.931 418.212, 725.931 419.600, 725.931 429.600, 725.931 439.600, 725.931 449.600, 725.931 452.243, 725.931 462.243, 725.931 472.243, 725.931 482.243, 725.931 484.885, 725.931 494.885, 725.931 504.885, 725.931 514.885, 725.931 516.273, 725.931 526.273, 725.931 536.273, 725.931 545.201, 725.931 555.201, 725.931 565.201, 725.931 570.556, 725.931 580.556, 725.931 590.556, 725.931 591.365, 725.931 601.365, 725.931 606.827, 725.931 " />
            <path fill="none" stroke-width="1.5" stroke-linecap="round" stroke-opacity="1.0" stroke="rgb(0, 0, 0)" stroke-linejoin="round" d=" M 606.827, 702.028 596.827, 702.028 591.365, 702.028 581.365, 702.028 571.365, 702.028 570.556, 702.028 560.556, 702.028 550.556, 702.028 545.201, 702.028 535.201, 702.028 525.201, 702.028 516.273, 702.028 506.273, 702.028 496.273, 702.028 486.273, 702.028 484.885, 702.028 474.885, 702.028 464.885, 702.028 454.885, 702.028 452.243, 702.028 442.243, 702.028 432.243, 702.028 422.243, 702.028 419.600, 702.028 409.600, 702.028 399.600, 702.028 389.600, 702.028 388.212, 702.028 378.212, 702.028 368.212, 702.028 359.285, 702.028 349.285, 702.028 339.285, 702.028 333.930, 702.028 323.930, 702.028 313.930, 702.028 313.121, 702.028 303.121, 702.028 297.659, 702.028 288.138, 702.028 284.923, 702.028 284.923, 712.028 284.923, 722.028 284.923, 725.931 288.138, 725.931 297.659, 725.931 " />
            <path fill="none" stroke-width="1.5" stroke-linecap="round" stroke-opacity="1.0" stroke="rgb(0, 0, 0)" stroke-linejoin="round" d=" M 606.827, 725.931 596.827, 725.931 591.365, 725.931 581.365, 725.931 571.365, 725.931 570.556, 725.931 560.556, 725.931 550.556, 725.931 545.201, 725.931 535.201, 725.931 525.201, 725.931 516.273, 725.931 506.273, 725.931 496.273, 725.931 486.273, 725.931 484.885, 725.931 474.885, 725.931 464.885, 725.931 454.885, 725.931 452.243, 725.931 442.243, 725.931 432.243, 725.931 422.243, 725.931 419.600, 725.931 409.600, 725.931 399.600, 725.931 389.600, 725.931 388.212, 725.931 378.212, 725.931 368.212, 725.931 359.285, 725.931 349.285, 725.931 339.285, 725.931 333.930, 725.931 323.930, 725.931 313.930, 725.931 313.121, 725.931 303.121, 725.931 297.659, 725.931 " />
            <path fill="none" stroke-width="1.5" stroke-linecap="round" stroke-opacity="1.0" stroke="rgb(0, 0, 0)" stroke-linejoin="round" d=" M 294.484, 675.735 294.484, 675.735 304.484, 675.735 314.484, 675.735 324.484, 675.735 334.484, 675.735 344.484, 675.735 354.484, 675.735 364.484, 675.735 374.484, 675.735 384.484, 675.735 394.484, 675.735 404.484, 675.735 414.484, 675.735 424.484, 675.735 434.484, 675.735 444.484, 675.735 454.484, 675.735 464.484, 675.735 474.484, 675.735 484.484, 675.735 494.484, 675.735 504.484, 675.735 514.484, 675.735 524.484, 675.735 534.484, 675.735 544.484, 675.735 554.484, 675.735 564.484, 675.735 574.484, 675.735 584.484, 675.735 594.484, 675.735 604.484, 675.735 614.484, 675.735 624.484, 675.735 634.484, 675.735 644.484, 675.735 653.027, 675.735 653.027, 665.735 653.027, 655.735 653.027, 645.735 653.027, 635.735 653.027, 625.735 653.027, 615.735 653.027, 608.807 653.027, 608.807 643.027, 608.807 633.027, 608.807 623.027, 608.807 613.027, 608.807 603.027, 608.807 593.027, 608.807 583.027, 608.807 573.027, 608.807 563.027, 608.807 553.027, 608.807 543.027, 608.807 533.027, 608.807 523.027, 608.807 513.027, 608.807 503.027, 608.807 493.027, 608.807 483.027, 608.807 473.027, 608.807 463.027, 608.807 453.027, 608.807 443.027, 608.807 433.027, 608.807 423.027, 608.807 413.027, 608.807 403.027, 608.807 393.027, 608.807 383.027, 608.807 373.027, 608.807 363.027, 608.807 353.027, 608.807 343.027, 608.807 333.027, 608.807 323.027, 608.807 313.027, 608.807 303.027, 608.807 294.484, 608.807 294.484, 608.807 284.484, 608.807 274.484, 608.807 264.484, 608.807 254.484, 608.807 251.458, 608.807 251.458, 618.807 251.458, 628.807 251.458, 638.807 251.458, 648.807 251.458, 658.807 251.458, 668.807 251.458, 675.735 " />
            <path fill="none" stroke-width="1.5" stroke-linecap="round" stroke-opacity="1.0" stroke="rgb(0, 0, 0)" stroke-linejoin="round" d=" M 653.027, 608.807 653.027, 618.807 653.027, 628.807 653.027, 638.807 653.027, 648.807 653.027, 658.807 653.027, 668.807 653.027, 675.735 " />
            <path fill="none" stroke-width="1.5" stroke-linecap="round" stroke-opacity="1.0" stroke="rgb(0, 0, 0)" stroke-linejoin="round" d=" M 251.458, 675.735 261.458, 675.735 271.458, 675.735 281.458, 675.735 291.458, 675.735 294.484, 675.735 304.484, 675.735 314.484, 675.735 324.484, 675.735 334.484, 675.735 344.484, 675.735 354.484, 675.735 364.484, 675.735 374.484, 675.735 384.484, 675.735 394.484, 675.735 404.484, 675.735 414.484, 675.735 424.484, 675.735 434.484, 675.735 444.484, 675.735 454.484, 675.735 464.484, 675.735 474.484, 675.735 484.484, 675.735 494.484, 675.735 504.484, 675.735 514.484, 675.735 524.484, 675.735 534.484, 675.735 544.484, 675.735 554.484, 675.735 564.484, 675.735 574.484, 675.735 584.484, 675.735 594.484, 675.735 604.484, 675.735 614.484, 675.735 624.484, 675.735 634.484, 675.735 644.484, 675.735 653.027, 675.735 653.027, 675.735 " />
            <path fill="none" stroke-width="1.5" stroke-linecap="round" stroke-opacity="1.0" stroke="rgb(0, 0, 0)" stroke-linejoin="round" d=" M 294.484, 608.807 294.484, 598.807 294.484, 588.807 294.484, 578.807 294.484, 568.807 294.484, 558.807 294.484, 548.807 294.484, 538.807 294.484, 528.807 294.484, 518.807 294.484, 508.807 294.484, 498.807 294.484, 488.807 294.484, 478.807 294.484, 468.807 294.484, 458.807 294.484, 448.807 294.484, 438.807 294.484, 428.807 294.484, 418.807 294.484, 408.807 294.484, 398.807 294.484, 388.807 294.484, 378.807 294.484, 368.807 294.484, 358.807 294.484, 348.807 294.484, 338.807 294.484, 328.807 294.484, 318.807 294.484, 308.807 294.484, 298.069 294.484, 298.069 284.484, 298.069 274.484, 298.069 264.484, 298.069 254.484, 298.069 244.484, 298.069 234.484, 298.069 227.556, 298.069 227.556, 298.069 227.556, 308.069 227.556, 318.069 227.556, 328.069 227.556, 338.069 227.556, 348.069 227.556, 358.069 227.556, 368.069 227.556, 378.069 227.556, 388.069 227.556, 398.069 227.556, 408.069 227.556, 418.069 227.556, 428.069 227.556, 438.069 227.556, 448.069 227.556, 458.069 227.556, 468.069 227.556, 478.069 227.556, 488.069 227.556, 498.069 227.556, 508.069 227.556, 518.069 227.556, 528.069 227.556, 538.069 227.556, 548.069 227.556, 558.069 227.556, 568.069 227.556, 578.069 227.556, 588.069 227.556, 598.069 227.556, 608.069 227.556, 618.069 227.556, 628.069 227.556, 638.069 227.556, 648.069 227.556, 658.069 227.556, 668.069 227.556, 678.069 227.556, 688.069 227.556, 699.638 227.556, 699.638 237.556, 699.638 247.556, 699.638 257.556, 699.638 267.556, 699.638 277.556, 699.638 287.556, 699.638 294.484, 699.638 294.484, 689.638 294.484, 679.638 294.484, 675.735 294.484, 675.735 " />
            <path fill="none" stroke-width="1.5" stroke-linecap="round" stroke-opacity="1.0" stroke="rgb(0, 0, 0)" stroke-linejoin="round" d=" M 294.484, 298.069 294.484, 308.069 294.484, 318.069 294.484, 328.069 294.484, 338.069 294.484, 348.069 294.484, 358.069 294.484, 368.069 294.484, 378.069 294.484, 388.069 294.484, 398.069 294.484, 408.069 294.484, 418.069 294.484, 428.069 294.484, 438.069 294.484, 448.069 294.484, 458.069 294.484, 468.069 294.484, 478.069 294.484, 488.069 294.484, 498.069 294.484, 508.069 294.484, 518.069 294.484, 528.069 294.484, 538.069 294.484, 548.069 294.484, 558.069 294.484, 568.069 294.484, 578.069 294.484, 588.069 294.484, 598.069 294.484, 608.807 294.484, 618.807 294.484, 628.807 294.484, 638.807 294.484, 648.807 294.484, 658.807 294.484, 668.807 294.484, 675.735 294.484, 685.735 294.484, 695.735 294.484, 699.638 " />
            <path fill="none" stroke-width="1.5" stroke-linecap="round" stroke-opacity="1.0" stroke="rgb(0, 0, 0)" stroke-linejoin="round" d=" M 227.556, 699.638 237.556, 699.638 247.556, 699.638 257.556, 699.638 267.556, 699.638 277.556, 699.638 287.556, 699.638 294.484, 699.638 294.484, 699.638 " />
            <path fill="none" stroke-width="1.5" stroke-linecap="round" stroke-opacity="1.0" stroke="rgb(0, 0, 0)" stroke-linejoin="round" d=" M 480.926, 594.465 480.926, 584.465 480.926, 574.465 480.926, 570.562 " />
            <path fill="none" stroke-width="1.5" stroke-linecap="round" stroke-opacity="1.0" stroke="rgb(0, 0, 0)" stroke-linejoin="round" d=" M 480.926, 594.465 480.926, 584.465 480.926, 574.465 480.926, 570.562 " />
            <path fill="none" stroke-width="1.5" stroke-linecap="round" stroke-opacity="1.0" stroke="rgb(0, 0, 0)" stroke-linejoin="round" d=" M 796.445, 692.467 796.445, 682.467 796.445, 672.467 796.445, 663.783 796.444, 663.783 786.444, 663.783 776.444, 663.783 766.444, 663.783 756.445, 663.783 746.444, 663.783 736.444, 663.783 726.444, 663.783 716.445, 663.783 706.444, 663.783 696.444, 663.783 686.445, 663.783 681.711, 663.783 681.711, 663.783 681.711, 673.783 681.711, 683.783 681.711, 692.467 691.711, 692.467 701.711, 692.467 711.711, 692.467 721.711, 692.467 731.711, 692.467 741.711, 692.467 751.711, 692.467 761.711, 692.467 771.711, 692.467 781.711, 692.467 791.711, 692.467 796.444, 692.467 796.445, 692.467 " />
            <path fill="none" stroke-width="1.5" stroke-linecap="round" stroke-opacity="1.0" stroke="rgb(0, 0, 0)" stroke-linejoin="round" d=" M 796.444, 663.783 796.444, 673.783 796.444, 683.783 796.444, 692.467 " />
            <path fill="none" stroke-width="1.5" stroke-linecap="round" stroke-opacity="1.0" stroke="rgb(0, 0, 0)" stroke-linejoin="round" d=" M 452.243, 570.562 454.574, 570.792 456.816, 571.472 458.883, 572.576 460.694, 574.063 462.180, 575.874 463.284, 577.940 463.965, 580.182 464.194, 582.514 463.965, 584.845 463.284, 587.087 462.180, 589.153 460.694, 590.965 458.883, 592.451 456.816, 593.555 454.574, 594.235 452.243, 594.465 " />
            <path fill="none" stroke-width="1.5" stroke-linecap="round" stroke-opacity="1.0" stroke="rgb(0, 0, 0)" stroke-linejoin="round" d=" M 449.911, 594.235 452.243, 594.465 " />
            <path fill="none" stroke-width="1.5" stroke-linecap="round" stroke-opacity="1.0" stroke="rgb(0, 0, 0)" stroke-linejoin="round" d=" M 445.603, 592.451 447.669, 593.555 449.911, 594.235 " />
            <path fill="none" stroke-width="1.5" stroke-linecap="round" stroke-opacity="1.0" stroke="rgb(0, 0, 0)" stroke-linejoin="round" d=" M 452.243, 570.562 449.911, 570.792 447.669, 571.472 445.603, 572.576 443.792, 574.063 442.306, 575.874 441.201, 577.940 440.521, 580.182 440.291, 582.514 440.521, 584.845 441.201, 587.087 442.306, 589.153 443.792, 590.965 445.603, 592.451 " />
            <path fill="none" stroke-width="1.5" stroke-linecap="round" stroke-opacity="1.0" stroke="rgb(0, 0, 0)" stroke-linejoin="round" d=" M 423.559, 570.562 423.559, 580.562 423.559, 590.562 423.559, 594.465 " />
            <path fill="none" stroke-width="1.5" stroke-linecap="round" stroke-opacity="1.0" stroke="rgb(0, 0, 0)" stroke-linejoin="round" d=" M 423.559, 594.465 423.559, 594.465 " />
            <path fill="none" stroke-width="1.5" stroke-linecap="round" stroke-opacity="1.0" stroke="rgb(0, 0, 0)" stroke-linejoin="round" d=" M 452.243, 570.562 452.243, 570.562 " />
            <path fill="none" stroke-width="1.5" stroke-linecap="round" stroke-opacity="1.0" stroke="rgb(0, 0, 0)" stroke-linejoin="round" d=" M 452.243, 570.562 452.243, 570.562 " />
            <path fill="none" stroke-width="1.5" stroke-linecap="round" stroke-opacity="1.0" stroke="rgb(0, 0, 0)" stroke-linejoin="round" d=" M 452.243, 594.465 454.574, 594.235 " />
            <path fill="none" stroke-width="1.5" stroke-linecap="round" stroke-opacity="1.0" stroke="rgb(0, 0, 0)" stroke-linejoin="round" d=" M 452.243, 594.465 462.243, 594.465 472.243, 594.465 480.926, 594.465 " />
            <path fill="none" stroke-width="1.5" stroke-linecap="round" stroke-opacity="1.0" stroke="rgb(0, 0, 0)" stroke-linejoin="round" d=" M 423.559, 594.465 433.559, 594.465 443.559, 594.465 452.243, 594.465 " />
            <path fill="none" stroke-width="1.5" stroke-linecap="round" stroke-opacity="1.0" stroke="rgb(0, 0, 0)" stroke-linejoin="round" d=" M 423.559, 594.465 423.559, 594.465 " />
            <path fill="none" stroke-width="1.5" stroke-linecap="round" stroke-opacity="1.0" stroke="rgb(0, 0, 0)" stroke-linejoin="round" d=" M 480.926, 570.562 480.926, 570.562 " />
            <path fill="none" stroke-width="1.5" stroke-linecap="round" stroke-opacity="1.0" stroke="rgb(0, 0, 0)" stroke-linejoin="round" d=" M 452.243, 570.562 442.243, 570.562 432.243, 570.562 423.559, 570.562 " />
            <path fill="none" stroke-width="1.5" stroke-linecap="round" stroke-opacity="1.0" stroke="rgb(0, 0, 0)" stroke-linejoin="round" d=" M 480.926, 570.562 470.926, 570.562 460.926, 570.562 452.243, 570.562 " />
            <path fill="none" stroke-width="1.5" stroke-linecap="round" stroke-opacity="1.0" stroke="rgb(0, 0, 0)" stroke-linejoin="round" d=" M 423.559, 594.465 433.559, 594.465 443.559, 594.465 453.559, 594.465 463.559, 594.465 473.559, 594.465 480.926, 594.465 " />
            <path fill="none" stroke-width="1.5" stroke-linecap="round" stroke-opacity="1.0" stroke="rgb(0, 0, 0)" stroke-linejoin="round" d=" M 480.926, 570.562 480.926, 570.562 " />
        </g>
    </g>
    <g id="ViewLayer_TechnicalLines.002" inkscape:groupmode="lineset" inkscape:label="ViewLayer_TechnicalLines.002">
        <g inkscape:groupmode="layer" id="strokes" inkscape:label="strokes">
            <path fill="none" stroke-width="1.5" stroke-linecap="round" stroke-opacity="1.0" stroke="rgb(0, 0, 0)" stroke-linejoin="round" d=" M 606.827, 725.931 616.348, 725.931 619.563, 725.931 619.563, 715.931 619.563, 705.931 619.563, 702.028 616.348, 702.028 606.827, 702.028 " />
            <path fill="none" stroke-width="1.5" stroke-linecap="round" stroke-opacity="1.0" stroke="rgb(0, 0, 0)" stroke-linejoin="round" d=" M 297.659, 725.931 307.659, 725.931 313.121, 725.931 323.121, 725.931 333.121, 725.931 333.930, 725.931 343.930, 725.931 353.930, 725.931 359.285, 725.931 369.285, 725.931 379.285, 725.931 388.212, 725.931 398.212, 725.931 408.212, 725.931 418.212, 725.931 419.600, 725.931 429.600, 725.931 439.600, 725.931 449.600, 725.931 452.243, 725.931 462.243, 725.931 472.243, 725.931 482.243, 725.931 484.885, 725.931 494.885, 725.931 504.885, 725.931 514.885, 725.931 516.273, 725.931 526.273, 725.931 536.273, 725.931 545.201, 725.931 555.201, 725.931 565.201, 725.931 570.556, 725.931 580.556, 725.931 590.556, 725.931 591.365, 725.931 601.365, 725.931 606.827, 725.931 " />
            <path fill="none" stroke-width="1.5" stroke-linecap="round" stroke-opacity="1.0" stroke="rgb(0, 0, 0)" stroke-linejoin="round" d=" M 606.827, 702.028 596.827, 702.028 591.365, 702.028 581.365, 702.028 571.365, 702.028 570.556, 702.028 560.556, 702.028 550.556, 702.028 545.201, 702.028 535.201, 702.028 525.201, 702.028 516.273, 702.028 506.273, 702.028 496.273, 702.028 486.273, 702.028 484.885, 702.028 474.885, 702.028 464.885, 702.028 454.885, 702.028 452.243, 702.028 442.243, 702.028 432.243, 702.028 422.243, 702.028 419.600, 702.028 409.600, 702.028 399.600, 702.028 389.600, 702.028 388.212, 702.028 378.212, 702.028 368.212, 702.028 359.285, 702.028 349.285, 702.028 339.285, 702.028 333.930, 702.028 323.930, 702.028 313.930, 702.028 313.121, 702.028 303.121, 702.028 297.659, 702.028 288.138, 702.028 284.923, 702.028 284.923, 712.028 284.923, 722.028 284.923, 725.931 288.138, 725.931 297.659, 725.931 " />
            <path fill="none" stroke-width="1.5" stroke-linecap="round" stroke-opacity="1.0" stroke="rgb(0, 0, 0)" stroke-linejoin="round" d=" M 606.827, 725.931 596.827, 725.931 591.365, 725.931 581.365, 725.931 571.365, 725.931 570.556, 725.931 560.556, 725.931 550.556, 725.931 545.201, 725.931 535.201, 725.931 525.201, 725.931 516.273, 725.931 506.273, 725.931 496.273, 725.931 486.273, 725.931 484.885, 725.931 474.885, 725.931 464.885, 725.931 454.885, 725.931 452.243, 725.931 442.243, 725.931 432.243, 725.931 422.243, 725.931 419.600, 725.931 409.600, 725.931 399.600, 725.931 389.600, 725.931 388.212, 725.931 378.212, 725.931 368.212, 725.931 359.285, 725.931 349.285, 725.931 339.285, 725.931 333.930, 725.931 323.930, 725.931 313.930, 725.931 313.121, 725.931 303.121, 725.931 297.659, 725.931 " />
            <path fill="none" stroke-width="1.5" stroke-linecap="round" stroke-opacity="1.0" stroke="rgb(0, 0, 0)" stroke-linejoin="round" d=" M 294.484, 675.735 294.484, 675.735 304.484, 675.735 314.484, 675.735 324.484, 675.735 334.484, 675.735 344.484, 675.735 354.484, 675.735 364.484, 675.735 374.484, 675.735 384.484, 675.735 394.484, 675.735 404.484, 675.735 414.484, 675.735 424.484, 675.735 434.484, 675.735 444.484, 675.735 454.484, 675.735 464.484, 675.735 474.484, 675.735 484.484, 675.735 494.484, 675.735 504.484, 675.735 514.484, 675.735 524.484, 675.735 534.484, 675.735 544.484, 675.735 554.484, 675.735 564.484, 675.735 574.484, 675.735 584.484, 675.735 594.484, 675.735 604.484, 675.735 614.484, 675.735 624.484, 675.735 634.484, 675.735 644.484, 675.735 653.027, 675.735 653.027, 665.735 653.027, 655.735 653.027, 645.735 653.027, 635.735 653.027, 625.735 653.027, 615.735 653.027, 608.807 653.027, 608.807 643.027, 608.807 633.027, 608.807 623.027, 608.807 613.027, 608.807 603.027, 608.807 593.027, 608.807 583.027, 608.807 573.027, 608.807 563.027, 608.807 553.027, 608.807 543.027, 608.807 533.027, 608.807 523.027, 608.807 513.027, 608.807 503.027, 608.807 493.027, 608.807 483.027, 608.807 473.027, 608.807 463.027, 608.807 453.027, 608.807 443.027, 608.807 433.027, 608.807 423.027, 608.807 413.027, 608.807 403.027, 608.807 393.027, 608.807 383.027, 608.807 373.027, 608.807 363.027, 608.807 353.027, 608.807 343.027, 608.807 333.027, 608.807 323.027, 608.807 313.027, 608.807 303.027, 608.807 294.484, 608.807 294.484, 608.807 284.484, 608.807 274.484, 608.807 264.484, 608.807 254.484, 608.807 251.458, 608.807 251.458, 618.807 251.458, 628.807 251.458, 638.807 251.458, 648.807 251.458, 658.807 251.458, 668.807 251.458, 675.735 " />
            <path fill="none" stroke-width="1.5" stroke-linecap="round" stroke-opacity="1.0" stroke="rgb(0, 0, 0)" stroke-linejoin="round" d=" M 653.027, 608.807 653.027, 618.807 653.027, 628.807 653.027, 638.807 653.027, 648.807 653.027, 658.807 653.027, 668.807 653.027, 675.735 " />
            <path fill="none" stroke-width="1.5" stroke-linecap="round" stroke-opacity="1.0" stroke="rgb(0, 0, 0)" stroke-linejoin="round" d=" M 251.458, 675.735 261.458, 675.735 271.458, 675.735 281.458, 675.735 291.458, 675.735 294.484, 675.735 304.484, 675.735 314.484, 675.735 324.484, 675.735 334.484, 675.735 344.484, 675.735 354.484, 675.735 364.484, 675.735 374.484, 675.735 384.484, 675.735 394.484, 675.735 404.484, 675.735 414.484, 675.735 424.484, 675.735 434.484, 675.735 444.484, 675.735 454.484, 675.735 464.484, 675.735 474.484, 675.735 484.484, 675.735 494.484, 675.735 504.484, 675.735 514.484, 675.735 524.484, 675.735 534.484, 675.735 544.484, 675.735 554.484, 675.735 564.484, 675.735 574.484, 675.735 584.484, 675.735 594.484, 675.735 604.484, 675.735 614.484, 675.735 624.484, 675.735 634.484, 675.735 644.484, 675.735 653.027, 675.735 653.027, 675.735 " />
            <path fill="none" stroke-width="1.5" stroke-linecap="round" stroke-opacity="1.0" stroke="rgb(0, 0, 0)" stroke-linejoin="round" d=" M 294.484, 608.807 294.484, 598.807 294.484, 588.807 294.484, 578.807 294.484, 568.807 294.484, 558.807 294.484, 548.807 294.484, 538.807 294.484, 528.807 294.484, 518.807 294.484, 508.807 294.484, 498.807 294.484, 488.807 294.484, 478.807 294.484, 468.807 294.484, 458.807 294.484, 448.807 294.484, 438.807 294.484, 428.807 294.484, 418.807 294.484, 408.807 294.484, 398.807 294.484, 388.807 294.484, 378.807 294.484, 368.807 294.484, 358.807 294.484, 348.807 294.484, 338.807 294.484, 328.807 294.484, 318.807 294.484, 308.807 294.484, 298.069 294.484, 298.069 284.484, 298.069 274.484, 298.069 264.484, 298.069 254.484, 298.069 244.484, 298.069 234.484, 298.069 227.556, 298.069 227.556, 298.069 227.556, 308.069 227.556, 318.069 227.556, 328.069 227.556, 338.069 227.556, 348.069 227.556, 358.069 227.556, 368.069 227.556, 378.069 227.556, 388.069 227.556, 398.069 227.556, 408.069 227.556, 418.069 227.556, 428.069 227.556, 438.069 227.556, 448.069 227.556, 458.069 227.556, 468.069 227.556, 478.069 227.556, 488.069 227.556, 498.069 227.556, 508.069 227.556, 518.069 227.556, 528.069 227.556, 538.069 227.556, 548.069 227.556, 558.069 227.556, 568.069 227.556, 578.069 227.556, 588.069 227.556, 598.069 227.556, 608.069 227.556, 618.069 227.556, 628.069 227.556, 638.069 227.556, 648.069 227.556, 658.069 227.556, 668.069 227.556, 678.069 227.556, 688.069 227.556, 699.638 227.556, 699.638 237.556, 699.638 247.556, 699.638 257.556, 699.638 267.556, 699.638 277.556, 699.638 287.556, 699.638 294.484, 699.638 294.484, 689.638 294.484, 679.638 294.484, 675.735 294.484, 675.735 " />
            <path fill="none" stroke-width="1.5" stroke-linecap="round" stroke-opacity="1.0" stroke="rgb(0, 0, 0)" stroke-linejoin="round" d=" M 294.484, 298.069 294.484, 308.069 294.484, 318.069 294.484, 328.069 294.484, 338.069 294.484, 348.069 294.484, 358.069 294.484, 368.069 294.484, 378.069 294.484, 388.069 294.484, 398.069 294.484, 408.069 294.484, 418.069 294.484, 428.069 294.484, 438.069 294.484, 448.069 294.484, 458.069 294.484, 468.069 294.484, 478.069 294.484, 488.069 294.484, 498.069 294.484, 508.069 294.484, 518.069 294.484, 528.069 294.484, 538.069 294.484, 548.069 294.484, 558.069 294.484, 568.069 294.484, 578.069 294.484, 588.069 294.484, 598.069 294.484, 608.807 294.484, 618.807 294.484, 628.807 294.484, 638.807 294.484, 648.807 294.484, 658.807 294.484, 668.807 294.484, 675.735 294.484, 685.735 294.484, 695.735 294.484, 699.638 " />
            <path fill="none" stroke-width="1.5" stroke-linecap="round" stroke-opacity="1.0" stroke="rgb(0, 0, 0)" stroke-linejoin="round" d=" M 227.556, 699.638 237.556, 699.638 247.556, 699.638 257.556, 699.638 267.556, 699.638 277.556, 699.638 287.556, 699.638 294.484, 699.638 294.484, 699.638 " />
            <path fill="none" stroke-width="1.5" stroke-linecap="round" stroke-opacity="1.0" stroke="rgb(0, 0, 0)" stroke-linejoin="round" d=" M 480.926, 594.465 480.926, 584.465 480.926, 574.465 480.926, 570.562 " />
            <path fill="none" stroke-width="1.5" stroke-linecap="round" stroke-opacity="1.0" stroke="rgb(0, 0, 0)" stroke-linejoin="round" d=" M 480.926, 594.465 480.926, 584.465 480.926, 574.465 480.926, 570.562 " />
            <path fill="none" stroke-width="1.5" stroke-linecap="round" stroke-opacity="1.0" stroke="rgb(0, 0, 0)" stroke-linejoin="round" d=" M 796.445, 692.467 796.445, 682.467 796.445, 672.467 796.445, 663.783 796.444, 663.783 786.444, 663.783 776.444, 663.783 766.444, 663.783 756.445, 663.783 746.444, 663.783 736.444, 663.783 726.444, 663.783 716.445, 663.783 706.444, 663.783 696.444, 663.783 686.445, 663.783 681.711, 663.783 681.711, 663.783 681.711, 673.783 681.711, 683.783 681.711, 692.467 691.711, 692.467 701.711, 692.467 711.711, 692.467 721.711, 692.467 731.711, 692.467 741.711, 692.467 751.711, 692.467 761.711, 692.467 771.711, 692.467 781.711, 692.467 791.711, 692.467 796.444, 692.467 796.445, 692.467 " />
            <path fill="none" stroke-width="1.5" stroke-linecap="round" stroke-opacity="1.0" stroke="rgb(0, 0, 0)" stroke-linejoin="round" d=" M 796.444, 663.783 796.444, 673.783 796.444, 683.783 796.444, 692.467 " />
            <path fill="none" stroke-width="1.5" stroke-linecap="round" stroke-opacity="1.0" stroke="rgb(0, 0, 0)" stroke-linejoin="round" d=" M 452.243, 570.562 454.574, 570.792 456.816, 571.472 458.883, 572.576 460.694, 574.063 462.180, 575.874 463.284, 577.940 463.965, 580.182 464.194, 582.514 463.965, 584.845 463.284, 587.087 462.180, 589.153 460.694, 590.965 458.883, 592.451 456.816, 593.555 454.574, 594.235 452.243, 594.465 " />
            <path fill="none" stroke-width="1.5" stroke-linecap="round" stroke-opacity="1.0" stroke="rgb(0, 0, 0)" stroke-linejoin="round" d=" M 449.911, 594.235 452.243, 594.465 " />
            <path fill="none" stroke-width="1.5" stroke-linecap="round" stroke-opacity="1.0" stroke="rgb(0, 0, 0)" stroke-linejoin="round" d=" M 445.603, 592.451 447.669, 593.555 449.911, 594.235 " />
            <path fill="none" stroke-width="1.5" stroke-linecap="round" stroke-opacity="1.0" stroke="rgb(0, 0, 0)" stroke-linejoin="round" d=" M 452.243, 570.562 449.911, 570.792 447.669, 571.472 445.603, 572.576 443.792, 574.063 442.306, 575.874 441.201, 577.940 440.521, 580.182 440.291, 582.514 440.521, 584.845 441.201, 587.087 442.306, 589.153 443.792, 590.965 445.603, 592.451 " />
            <path fill="none" stroke-width="1.5" stroke-linecap="round" stroke-opacity="1.0" stroke="rgb(0, 0, 0)" stroke-linejoin="round" d=" M 423.559, 570.562 423.559, 580.562 423.559, 590.562 423.559, 594.465 " />
            <path fill="none" stroke-width="1.5" stroke-linecap="round" stroke-opacity="1.0" stroke="rgb(0, 0, 0)" stroke-linejoin="round" d=" M 423.559, 594.465 423.559, 594.465 " />
            <path fill="none" stroke-width="1.5" stroke-linecap="round" stroke-opacity="1.0" stroke="rgb(0, 0, 0)" stroke-linejoin="round" d=" M 452.243, 570.562 452.243, 570.562 " />
            <path fill="none" stroke-width="1.5" stroke-linecap="round" stroke-opacity="1.0" stroke="rgb(0, 0, 0)" stroke-linejoin="round" d=" M 452.243, 570.562 452.243, 570.562 " />
            <path fill="none" stroke-width="1.5" stroke-linecap="round" stroke-opacity="1.0" stroke="rgb(0, 0, 0)" stroke-linejoin="round" d=" M 452.243, 594.465 454.574, 594.235 " />
            <path fill="none" stroke-width="1.5" stroke-linecap="round" stroke-opacity="1.0" stroke="rgb(0, 0, 0)" stroke-linejoin="round" d=" M 452.243, 594.465 462.243, 594.465 472.243, 594.465 480.926, 594.465 " />
            <path fill="none" stroke-width="1.5" stroke-linecap="round" stroke-opacity="1.0" stroke="rgb(0, 0, 0)" stroke-linejoin="round" d=" M 423.559, 594.465 433.559, 594.465 443.559, 594.465 452.243, 594.465 " />
            <path fill="none" stroke-width="1.5" stroke-linecap="round" stroke-opacity="1.0" stroke="rgb(0, 0, 0)" stroke-linejoin="round" d=" M 423.559, 594.465 423.559, 594.465 " />
            <path fill="none" stroke-width="1.5" stroke-linecap="round" stroke-opacity="1.0" stroke="rgb(0, 0, 0)" stroke-linejoin="round" d=" M 480.926, 570.562 480.926, 570.562 " />
            <path fill="none" stroke-width="1.5" stroke-linecap="round" stroke-opacity="1.0" stroke="rgb(0, 0, 0)" stroke-linejoin="round" d=" M 452.243, 570.562 442.243, 570.562 432.243, 570.562 423.559, 570.562 " />
            <path fill="none" stroke-width="1.5" stroke-linecap="round" stroke-opacity="1.0" stroke="rgb(0, 0, 0)" stroke-linejoin="round" d=" M 480.926, 570.562 470.926, 570.562 460.926, 570.562 452.243, 570.562 " />
            <path fill="none" stroke-width="1.5" stroke-linecap="round" stroke-opacity="1.0" stroke="rgb(0, 0, 0)" stroke-linejoin="round" d=" M 423.559, 594.465 433.559, 594.465 443.559, 594.465 453.559, 594.465 463.559, 594.465 473.559, 594.465 480.926, 594.465 " />
            <path fill="none" stroke-width="1.5" stroke-linecap="round" stroke-opacity="1.0" stroke="rgb(0, 0, 0)" stroke-linejoin="round" d=" M 480.926, 570.562 480.926, 570.562 " />
        </g>
    </g>
    <g id="ViewLayer_TechnicalLines.003" inkscape:groupmode="lineset" inkscape:label="ViewLayer_TechnicalLines.003">
        <g inkscape:groupmode="layer" id="strokes" inkscape:label="strokes">
            <path fill="none" stroke-width="1.5" stroke-linecap="round" stroke-opacity="1.0" stroke="rgb(0, 0, 0)" stroke-linejoin="round" d=" M 606.827, 725.931 616.348, 725.931 619.563, 725.931 619.563, 715.931 619.563, 705.931 619.563, 702.028 616.348, 702.028 606.827, 702.028 " />
            <path fill="none" stroke-width="1.5" stroke-linecap="round" stroke-opacity="1.0" stroke="rgb(0, 0, 0)" stroke-linejoin="round" d=" M 297.659, 725.931 307.659, 725.931 313.121, 725.931 323.121, 725.931 333.121, 725.931 333.930, 725.931 343.930, 725.931 353.930, 725.931 359.285, 725.931 369.285, 725.931 379.285, 725.931 388.212, 725.931 398.212, 725.931 408.212, 725.931 418.212, 725.931 419.600, 725.931 429.600, 725.931 439.600, 725.931 449.600, 725.931 452.243, 725.931 462.243, 725.931 472.243, 725.931 482.243, 725.931 484.885, 725.931 494.885, 725.931 504.885, 725.931 514.885, 725.931 516.273, 725.931 526.273, 725.931 536.273, 725.931 545.201, 725.931 555.201, 725.931 565.201, 725.931 570.556, 725.931 580.556, 725.931 590.556, 725.931 591.365, 725.931 601.365, 725.931 606.827, 725.931 " />
            <path fill="none" stroke-width="1.5" stroke-linecap="round" stroke-opacity="1.0" stroke="rgb(0, 0, 0)" stroke-linejoin="round" d=" M 606.827, 702.028 596.827, 702.028 591.365, 702.028 581.365, 702.028 571.365, 702.028 570.556, 702.028 560.556, 702.028 550.556, 702.028 545.201, 702.028 535.201, 702.028 525.201, 702.028 516.273, 702.028 506.273, 702.028 496.273, 702.028 486.273, 702.028 484.885, 702.028 474.885, 702.028 464.885, 702.028 454.885, 702.028 452.243, 702.028 442.243, 702.028 432.243, 702.028 422.243, 702.028 419.600, 702.028 409.600, 702.028 399.600, 702.028 389.600, 702.028 388.212, 702.028 378.212, 702.028 368.212, 702.028 359.285, 702.028 349.285, 702.028 339.285, 702.028 333.930, 702.028 323.930, 702.028 313.930, 702.028 313.121, 702.028 303.121, 702.028 297.659, 702.028 288.138, 702.028 284.923, 702.028 284.923, 712.028 284.923, 722.028 284.923, 725.931 288.138, 725.931 297.659, 725.931 " />
            <path fill="none" stroke-width="1.5" stroke-linecap="round" stroke-opacity="1.0" stroke="rgb(0, 0, 0)" stroke-linejoin="round" d=" M 606.827, 725.931 596.827, 725.931 591.365, 725.931 581.365, 725.931 571.365, 725.931 570.556, 725.931 560.556, 725.931 550.556, 725.931 545.201, 725.931 535.201, 725.931 525.201, 725.931 516.273, 725.931 506.273, 725.931 496.273, 725.931 486.273, 725.931 484.885, 725.931 474.885, 725.931 464.885, 725.931 454.885, 725.931 452.243, 725.931 442.243, 725.931 432.243, 725.931 422.243, 725.931 419.600, 725.931 409.600, 725.931 399.600, 725.931 389.600, 725.931 388.212, 725.931 378.212, 725.931 368.212, 725.931 359.285, 725.931 349.285, 725.931 339.285, 725.931 333.930, 725.931 323.930, 725.931 313.930, 725.931 313.121, 725.931 303.121, 725.931 297.659, 725.931 " />
            <path fill="none" stroke-width="1.5" stroke-linecap="round" stroke-opacity="1.0" stroke="rgb(0, 0, 0)" stroke-linejoin="round" d=" M 294.484, 675.735 294.484, 675.735 304.484, 675.735 314.484, 675.735 324.484, 675.735 334.484, 675.735 344.484, 675.735 354.484, 675.735 364.484, 675.735 374.484, 675.735 384.484, 675.735 394.484, 675.735 404.484, 675.735 414.484, 675.735 424.484, 675.735 434.484, 675.735 444.484, 675.735 454.484, 675.735 464.484, 675.735 474.484, 675.735 484.484, 675.735 494.484, 675.735 504.484, 675.735 514.484, 675.735 524.484, 675.735 534.484, 675.735 544.484, 675.735 554.484, 675.735 564.484, 675.735 574.484, 675.735 584.484, 675.735 594.484, 675.735 604.484, 675.735 614.484, 675.735 624.484, 675.735 634.484, 675.735 644.484, 675.735 653.027, 675.735 653.027, 665.735 653.027, 655.735 653.027, 645.735 653.027, 635.735 653.027, 625.735 653.027, 615.735 653.027, 608.807 653.027, 608.807 643.027, 608.807 633.027, 608.807 623.027, 608.807 613.027, 608.807 603.027, 608.807 593.027, 608.807 583.027, 608.807 573.027, 608.807 563.027, 608.807 553.027, 608.807 543.027, 608.807 533.027, 608.807 523.027, 608.807 513.027, 608.807 503.027, 608.807 493.027, 608.807 483.027, 608.807 473.027, 608.807 463.027, 608.807 453.027, 608.807 443.027, 608.807 433.027, 608.807 423.027, 608.807 413.027, 608.807 403.027, 608.807 393.027, 608.807 383.027, 608.807 373.027, 608.807 363.027, 608.807 353.027, 608.807 343.027, 608.807 333.027, 608.807 323.027, 608.807 313.027, 608.807 303.027, 608.807 294.484, 608.807 294.484, 608.807 284.484, 608.807 274.484, 608.807 264.484, 608.807 254.484, 608.807 251.458, 608.807 251.458, 618.807 251.458, 628.807 251.458, 638.807 251.458, 648.807 251.458, 658.807 251.458, 668.807 251.458, 675.735 " />
            <path fill="none" stroke-width="1.5" stroke-linecap="round" stroke-opacity="1.0" stroke="rgb(0, 0, 0)" stroke-linejoin="round" d=" M 653.027, 608.807 653.027, 618.807 653.027, 628.807 653.027, 638.807 653.027, 648.807 653.027, 658.807 653.027, 668.807 653.027, 675.735 " />
            <path fill="none" stroke-width="1.5" stroke-linecap="round" stroke-opacity="1.0" stroke="rgb(0, 0, 0)" stroke-linejoin="round" d=" M 251.458, 675.735 261.458, 675.735 271.458, 675.735 281.458, 675.735 291.458, 675.735 294.484, 675.735 304.484, 675.735 314.484, 675.735 324.484, 675.735 334.484, 675.735 344.484, 675.735 354.484, 675.735 364.484, 675.735 374.484, 675.735 384.484, 675.735 394.484, 675.735 404.484, 675.735 414.484, 675.735 424.484, 675.735 434.484, 675.735 444.484, 675.735 454.484, 675.735 464.484, 675.735 474.484, 675.735 484.484, 675.735 494.484, 675.735 504.484, 675.735 514.484, 675.735 524.484, 675.735 534.484, 675.735 544.484, 675.735 554.484, 675.735 564.484, 675.735 574.484, 675.735 584.484, 675.735 594.484, 675.735 604.484, 675.735 614.484, 675.735 624.484, 675.735 634.484, 675.735 644.484, 675.735 653.027, 675.735 653.027, 675.735 " />
            <path fill="none" stroke-width="1.5" stroke-linecap="round" stroke-opacity="1.0" stroke="rgb(0, 0, 0)" stroke-linejoin="round" d=" M 294.484, 608.807 294.484, 598.807 294.484, 588.807 294.484, 578.807 294.484, 568.807 294.484, 558.807 294.484, 548.807 294.484, 538.807 294.484, 528.807 294.484, 518.807 294.484, 508.807 294.484, 498.807 294.484, 488.807 294.484, 478.807 294.484, 468.807 294.484, 458.807 294.484, 448.807 294.484, 438.807 294.484, 428.807 294.484, 418.807 294.484, 408.807 294.484, 398.807 294.484, 388.807 294.484, 378.807 294.484, 368.807 294.484, 358.807 294.484, 348.807 294.484, 338.807 294.484, 328.807 294.484, 318.807 294.484, 308.807 294.484, 298.069 294.484, 298.069 284.484, 298.069 274.484, 298.069 264.484, 298.069 254.484, 298.069 244.484, 298.069 234.484, 298.069 227.556, 298.069 227.556, 298.069 227.556, 308.069 227.556, 318.069 227.556, 328.069 227.556, 338.069 227.556, 348.069 227.556, 358.069 227.556, 368.069 227.556, 378.069 227.556, 388.069 227.556, 398.069 227.556, 408.069 227.556, 418.069 227.556, 428.069 227.556, 438.069 227.556, 448.069 227.556, 458.069 227.556, 468.069 227.556, 478.069 227.556, 488.069 227.556, 498.069 227.556, 508.069 227.556, 518.069 227.556, 528.069 227.556, 538.069 227.556, 548.069 227.556, 558.069 227.556, 568.069 227.556, 578.069 227.556, 588.069 227.556, 598.069 227.556, 608.069 227.556, 618.069 227.556, 628.069 227.556, 638.069 227.556, 648.069 227.556, 658.069 227.556, 668.069 227.556, 678.069 227.556, 688.069 227.556, 699.638 227.556, 699.638 237.556, 699.638 247.556, 699.638 257.556, 699.638 267.556, 699.638 277.556, 699.638 287.556, 699.638 294.484, 699.638 294.484, 689.638 294.484, 679.638 294.484, 675.735 294.484, 675.735 " />
            <path fill="none" stroke-width="1.5" stroke-linecap="round" stroke-opacity="1.0" stroke="rgb(0, 0, 0)" stroke-linejoin="round" d=" M 294.484, 298.069 294.484, 308.069 294.484, 318.069 294.484, 328.069 294.484, 338.069 294.484, 348.069 294.484, 358.069 294.484, 368.069 294.484, 378.069 294.484, 388.069 294.484, 398.069 294.484, 408.069 294.484, 418.069 294.484, 428.069 294.484, 438.069 294.484, 448.069 294.484, 458.069 294.484, 468.069 294.484, 478.069 294.484, 488.069 294.484, 498.069 294.484, 508.069 294.484, 518.069 294.484, 528.069 294.484, 538.069 294.484, 548.069 294.484, 558.069 294.484, 568.069 294.484, 578.069 294.484, 588.069 294.484, 598.069 294.484, 608.807 294.484, 618.807 294.484, 628.807 294.484, 638.807 294.484, 648.807 294.484, 658.807 294.484, 668.807 294.484, 675.735 294.484, 685.735 294.484, 695.735 294.484, 699.638 " />
            <path fill="none" stroke-width="1.5" stroke-linecap="round" stroke-opacity="1.0" stroke="rgb(0, 0, 0)" stroke-linejoin="round" d=" M 227.556, 699.638 237.556, 699.638 247.556, 699.638 257.556, 699.638 267.556, 699.638 277.556, 699.638 287.556, 699.638 294.484, 699.638 294.484, 699.638 " />
            <path fill="none" stroke-width="1.5" stroke-linecap="round" stroke-opacity="1.0" stroke="rgb(0, 0, 0)" stroke-linejoin="round" d=" M 480.926, 594.465 480.926, 584.465 480.926, 574.465 480.926, 570.562 " />
            <path fill="none" stroke-width="1.5" stroke-linecap="round" stroke-opacity="1.0" stroke="rgb(0, 0, 0)" stroke-linejoin="round" d=" M 480.926, 594.465 480.926, 584.465 480.926, 574.465 480.926, 570.562 " />
            <path fill="none" stroke-width="1.5" stroke-linecap="round" stroke-opacity="1.0" stroke="rgb(0, 0, 0)" stroke-linejoin="round" d=" M 796.445, 692.467 796.445, 682.467 796.445, 672.467 796.445, 663.783 796.444, 663.783 786.444, 663.783 776.444, 663.783 766.444, 663.783 756.445, 663.783 746.444, 663.783 736.444, 663.783 726.444, 663.783 716.445, 663.783 706.444, 663.783 696.444, 663.783 686.445, 663.783 681.711, 663.783 681.711, 663.783 681.711, 673.783 681.711, 683.783 681.711, 692.467 691.711, 692.467 701.711, 692.467 711.711, 692.467 721.711, 692.467 731.711, 692.467 741.711, 692.467 751.711, 692.467 761.711, 692.467 771.711, 692.467 781.711, 692.467 791.711, 692.467 796.444, 692.467 796.445, 692.467 " />
            <path fill="none" stroke-width="1.5" stroke-linecap="round" stroke-opacity="1.0" stroke="rgb(0, 0, 0)" stroke-linejoin="round" d=" M 796.444, 663.783 796.444, 673.783 796.444, 683.783 796.444, 692.467 " />
            <path fill="none" stroke-width="1.5" stroke-linecap="round" stroke-opacity="1.0" stroke="rgb(0, 0, 0)" stroke-linejoin="round" d=" M 452.243, 570.562 454.574, 570.792 456.816, 571.472 458.883, 572.576 460.694, 574.063 462.180, 575.874 463.284, 577.940 463.965, 580.182 464.194, 582.514 463.965, 584.845 463.284, 587.087 462.180, 589.153 460.694, 590.965 458.883, 592.451 456.816, 593.555 454.574, 594.235 452.243, 594.465 " />
            <path fill="none" stroke-width="1.5" stroke-linecap="round" stroke-opacity="1.0" stroke="rgb(0, 0, 0)" stroke-linejoin="round" d=" M 449.911, 594.235 452.243, 594.465 " />
            <path fill="none" stroke-width="1.5" stroke-linecap="round" stroke-opacity="1.0" stroke="rgb(0, 0, 0)" stroke-linejoin="round" d=" M 445.603, 592.451 447.669, 593.555 449.911, 594.235 " />
            <path fill="none" stroke-width="1.5" stroke-linecap="round" stroke-opacity="1.0" stroke="rgb(0, 0, 0)" stroke-linejoin="round" d=" M 452.243, 570.562 449.911, 570.792 447.669, 571.472 445.603, 572.576 443.792, 574.063 442.306, 575.874 441.201, 577.940 440.521, 580.182 440.291, 582.514 440.521, 584.845 441.201, 587.087 442.306, 589.153 443.792, 590.965 445.603, 592.451 " />
            <path fill="none" stroke-width="1.5" stroke-linecap="round" stroke-opacity="1.0" stroke="rgb(0, 0, 0)" stroke-linejoin="round" d=" M 423.559, 570.562 423.559, 580.562 423.559, 590.562 423.559, 594.465 " />
            <path fill="none" stroke-width="1.5" stroke-linecap="round" stroke-opacity="1.0" stroke="rgb(0, 0, 0)" stroke-linejoin="round" d=" M 423.559, 594.465 423.559, 594.465 " />
            <path fill="none" stroke-width="1.5" stroke-linecap="round" stroke-opacity="1.0" stroke="rgb(0, 0, 0)" stroke-linejoin="round" d=" M 452.243, 570.562 452.243, 570.562 " />
            <path fill="none" stroke-width="1.5" stroke-linecap="round" stroke-opacity="1.0" stroke="rgb(0, 0, 0)" stroke-linejoin="round" d=" M 452.243, 570.562 452.243, 570.562 " />
            <path fill="none" stroke-width="1.5" stroke-linecap="round" stroke-opacity="1.0" stroke="rgb(0, 0, 0)" stroke-linejoin="round" d=" M 452.243, 594.465 454.574, 594.235 " />
            <path fill="none" stroke-width="1.5" stroke-linecap="round" stroke-opacity="1.0" stroke="rgb(0, 0, 0)" stroke-linejoin="round" d=" M 452.243, 594.465 462.243, 594.465 472.243, 594.465 480.926, 594.465 " />
            <path fill="none" stroke-width="1.5" stroke-linecap="round" stroke-opacity="1.0" stroke="rgb(0, 0, 0)" stroke-linejoin="round" d=" M 423.559, 594.465 433.559, 594.465 443.559, 594.465 452.243, 594.465 " />
            <path fill="none" stroke-width="1.5" stroke-linecap="round" stroke-opacity="1.0" stroke="rgb(0, 0, 0)" stroke-linejoin="round" d=" M 423.559, 594.465 423.559, 594.465 " />
            <path fill="none" stroke-width="1.5" stroke-linecap="round" stroke-opacity="1.0" stroke="rgb(0, 0, 0)" stroke-linejoin="round" d=" M 480.926, 570.562 480.926, 570.562 " />
            <path fill="none" stroke-width="1.5" stroke-linecap="round" stroke-opacity="1.0" stroke="rgb(0, 0, 0)" stroke-linejoin="round" d=" M 452.243, 570.562 442.243, 570.562 432.243, 570.562 423.559, 570.562 " />
            <path fill="none" stroke-width="1.5" stroke-linecap="round" stroke-opacity="1.0" stroke="rgb(0, 0, 0)" stroke-linejoin="round" d=" M 480.926, 570.562 470.926, 570.562 460.926, 570.562 452.243, 570.562 " />
            <path fill="none" stroke-width="1.5" stroke-linecap="round" stroke-opacity="1.0" stroke="rgb(0, 0, 0)" stroke-linejoin="round" d=" M 423.559, 594.465 433.559, 594.465 443.559, 594.465 453.559, 594.465 463.559, 594.465 473.559, 594.465 480.926, 594.465 " />
            <path fill="none" stroke-width="1.5" stroke-linecap="round" stroke-opacity="1.0" stroke="rgb(0, 0, 0)" stroke-linejoin="round" d=" M 480.926, 570.562 480.926, 570.562 " />
        </g>
    </g>
    <g id="ViewLayer_TechnicalLines.004" xmlns:inkscape="http://www.inkscape.org/namespaces/inkscape" inkscape:groupmode="lineset" inkscape:label="ViewLayer_TechnicalLines.004">
        <g xmlns:inkscape="http://www.inkscape.org/namespaces/inkscape" inkscape:groupmode="layer" id="strokes" inkscape:label="strokes">
            <path fill="none" stroke-width="1.5" stroke-linecap="round" stroke-opacity="1.0" stroke="rgb(0, 0, 0)" stroke-linejoin="round" d=" M 606.827, 725.931 616.348, 725.931 619.563, 725.931 619.563, 715.931 619.563, 705.931 619.563, 702.028 616.348, 702.028 606.827, 702.028 " />
            <path fill="none" stroke-width="1.5" stroke-linecap="round" stroke-opacity="1.0" stroke="rgb(0, 0, 0)" stroke-linejoin="round" d=" M 297.659, 725.931 307.659, 725.931 313.121, 725.931 323.121, 725.931 333.121, 725.931 333.930, 725.931 343.930, 725.931 353.930, 725.931 359.285, 725.931 369.285, 725.931 379.285, 725.931 388.212, 725.931 398.212, 725.931 408.212, 725.931 418.212, 725.931 419.600, 725.931 429.600, 725.931 439.600, 725.931 449.600, 725.931 452.243, 725.931 462.243, 725.931 472.243, 725.931 482.243, 725.931 484.885, 725.931 494.885, 725.931 504.885, 725.931 514.885, 725.931 516.273, 725.931 526.273, 725.931 536.273, 725.931 545.201, 725.931 555.201, 725.931 565.201, 725.931 570.556, 725.931 580.556, 725.931 590.556, 725.931 591.365, 725.931 601.365, 725.931 606.827, 725.931 " />
            <path fill="none" stroke-width="1.5" stroke-linecap="round" stroke-opacity="1.0" stroke="rgb(0, 0, 0)" stroke-linejoin="round" d=" M 606.827, 702.028 596.827, 702.028 591.365, 702.028 581.365, 702.028 571.365, 702.028 570.556, 702.028 560.556, 702.028 550.556, 702.028 545.201, 702.028 535.201, 702.028 525.201, 702.028 516.273, 702.028 506.273, 702.028 496.273, 702.028 486.273, 702.028 484.885, 702.028 474.885, 702.028 464.885, 702.028 454.885, 702.028 452.243, 702.028 442.243, 702.028 432.243, 702.028 422.243, 702.028 419.600, 702.028 409.600, 702.028 399.600, 702.028 389.600, 702.028 388.212, 702.028 378.212, 702.028 368.212, 702.028 359.285, 702.028 349.285, 702.028 339.285, 702.028 333.930, 702.028 323.930, 702.028 313.930, 702.028 313.121, 702.028 303.121, 702.028 297.659, 702.028 288.138, 702.028 284.923, 702.028 284.923, 712.028 284.923, 722.028 284.923, 725.931 288.138, 725.931 297.659, 725.931 " />
            <path fill="none" stroke-width="1.5" stroke-linecap="round" stroke-opacity="1.0" stroke="rgb(0, 0, 0)" stroke-linejoin="round" d=" M 606.827, 725.931 596.827, 725.931 591.365, 725.931 581.365, 725.931 571.365, 725.931 570.556, 725.931 560.556, 725.931 550.556, 725.931 545.201, 725.931 535.201, 725.931 525.201, 725.931 516.273, 725.931 506.273, 725.931 496.273, 725.931 486.273, 725.931 484.885, 725.931 474.885, 725.931 464.885, 725.931 454.885, 725.931 452.243, 725.931 442.243, 725.931 432.243, 725.931 422.243, 725.931 419.600, 725.931 409.600, 725.931 399.600, 725.931 389.600, 725.931 388.212, 725.931 378.212, 725.931 368.212, 725.931 359.285, 725.931 349.285, 725.931 339.285, 725.931 333.930, 725.931 323.930, 725.931 313.930, 725.931 313.121, 725.931 303.121, 725.931 297.659, 725.931 " />
            <path fill="none" stroke-width="1.5" stroke-linecap="round" stroke-opacity="1.0" stroke="rgb(0, 0, 0)" stroke-linejoin="round" d=" M 294.484, 675.735 294.484, 675.735 304.484, 675.735 314.484, 675.735 324.484, 675.735 334.484, 675.735 344.484, 675.735 354.484, 675.735 364.484, 675.735 374.484, 675.735 384.484, 675.735 394.484, 675.735 404.484, 675.735 414.484, 675.735 424.484, 675.735 434.484, 675.735 444.484, 675.735 454.484, 675.735 464.484, 675.735 474.484, 675.735 484.484, 675.735 494.484, 675.735 504.484, 675.735 514.484, 675.735 524.484, 675.735 534.484, 675.735 544.484, 675.735 554.484, 675.735 564.484, 675.735 574.484, 675.735 584.484, 675.735 594.484, 675.735 604.484, 675.735 614.484, 675.735 624.484, 675.735 634.484, 675.735 644.484, 675.735 653.027, 675.735 653.027, 665.735 653.027, 655.735 653.027, 645.735 653.027, 635.735 653.027, 625.735 653.027, 615.735 653.027, 608.807 653.027, 608.807 643.027, 608.807 633.027, 608.807 623.027, 608.807 613.027, 608.807 603.027, 608.807 593.027, 608.807 583.027, 608.807 573.027, 608.807 563.027, 608.807 553.027, 608.807 543.027, 608.807 533.027, 608.807 523.027, 608.807 513.027, 608.807 503.027, 608.807 493.027, 608.807 483.027, 608.807 473.027, 608.807 463.027, 608.807 453.027, 608.807 443.027, 608.807 433.027, 608.807 423.027, 608.807 413.027, 608.807 403.027, 608.807 393.027, 608.807 383.027, 608.807 373.027, 608.807 363.027, 608.807 353.027, 608.807 343.027, 608.807 333.027, 608.807 323.027, 608.807 313.027, 608.807 303.027, 608.807 294.484, 608.807 294.484, 608.807 284.484, 608.807 274.484, 608.807 264.484, 608.807 254.484, 608.807 251.458, 608.807 251.458, 618.807 251.458, 628.807 251.458, 638.807 251.458, 648.807 251.458, 658.807 251.458, 668.807 251.458, 675.735 " />
            <path fill="none" stroke-width="1.5" stroke-linecap="round" stroke-opacity="1.0" stroke="rgb(0, 0, 0)" stroke-linejoin="round" d=" M 653.027, 608.807 653.027, 618.807 653.027, 628.807 653.027, 638.807 653.027, 648.807 653.027, 658.807 653.027, 668.807 653.027, 675.735 " />
            <path fill="none" stroke-width="1.5" stroke-linecap="round" stroke-opacity="1.0" stroke="rgb(0, 0, 0)" stroke-linejoin="round" d=" M 251.458, 675.735 261.458, 675.735 271.458, 675.735 281.458, 675.735 291.458, 675.735 294.484, 675.735 304.484, 675.735 314.484, 675.735 324.484, 675.735 334.484, 675.735 344.484, 675.735 354.484, 675.735 364.484, 675.735 374.484, 675.735 384.484, 675.735 394.484, 675.735 404.484, 675.735 414.484, 675.735 424.484, 675.735 434.484, 675.735 444.484, 675.735 454.484, 675.735 464.484, 675.735 474.484, 675.735 484.484, 675.735 494.484, 675.735 504.484, 675.735 514.484, 675.735 524.484, 675.735 534.484, 675.735 544.484, 675.735 554.484, 675.735 564.484, 675.735 574.484, 675.735 584.484, 675.735 594.484, 675.735 604.484, 675.735 614.484, 675.735 624.484, 675.735 634.484, 675.735 644.484, 675.735 653.027, 675.735 653.027, 675.735 " />
            <path fill="none" stroke-width="1.5" stroke-linecap="round" stroke-opacity="1.0" stroke="rgb(0, 0, 0)" stroke-linejoin="round" d=" M 294.484, 608.807 294.484, 598.807 294.484, 588.807 294.484, 578.807 294.484, 568.807 294.484, 558.807 294.484, 548.807 294.484, 538.807 294.484, 528.807 294.484, 518.807 294.484, 508.807 294.484, 498.807 294.484, 488.807 294.484, 478.807 294.484, 468.807 294.484, 458.807 294.484, 448.807 294.484, 438.807 294.484, 428.807 294.484, 418.807 294.484, 408.807 294.484, 398.807 294.484, 388.807 294.484, 378.807 294.484, 368.807 294.484, 358.807 294.484, 348.807 294.484, 338.807 294.484, 328.807 294.484, 318.807 294.484, 308.807 294.484, 298.069 294.484, 298.069 284.484, 298.069 274.484, 298.069 264.484, 298.069 254.484, 298.069 244.484, 298.069 234.484, 298.069 227.556, 298.069 227.556, 298.069 227.556, 308.069 227.556, 318.069 227.556, 328.069 227.556, 338.069 227.556, 348.069 227.556, 358.069 227.556, 368.069 227.556, 378.069 227.556, 388.069 227.556, 398.069 227.556, 408.069 227.556, 418.069 227.556, 428.069 227.556, 438.069 227.556, 448.069 227.556, 458.069 227.556, 468.069 227.556, 478.069 227.556, 488.069 227.556, 498.069 227.556, 508.069 227.556, 518.069 227.556, 528.069 227.556, 538.069 227.556, 548.069 227.556, 558.069 227.556, 568.069 227.556, 578.069 227.556, 588.069 227.556, 598.069 227.556, 608.069 227.556, 618.069 227.556, 628.069 227.556, 638.069 227.556, 648.069 227.556, 658.069 227.556, 668.069 227.556, 678.069 227.556, 688.069 227.556, 699.638 227.556, 699.638 237.556, 699.638 247.556, 699.638 257.556, 699.638 267.556, 699.638 277.556, 699.638 287.556, 699.638 294.484, 699.638 294.484, 689.638 294.484, 679.638 294.484, 675.735 294.484, 675.735 " />
            <path fill="none" stroke-width="1.5" stroke-linecap="round" stroke-opacity="1.0" stroke="rgb(0, 0, 0)" stroke-linejoin="round" d=" M 294.484, 298.069 294.484, 308.069 294.484, 318.069 294.484, 328.069 294.484, 338.069 294.484, 348.069 294.484, 358.069 294.484, 368.069 294.484, 378.069 294.484, 388.069 294.484, 398.069 294.484, 408.069 294.484, 418.069 294.484, 428.069 294.484, 438.069 294.484, 448.069 294.484, 458.069 294.484, 468.069 294.484, 478.069 294.484, 488.069 294.484, 498.069 294.484, 508.069 294.484, 518.069 294.484, 528.069 294.484, 538.069 294.484, 548.069 294.484, 558.069 294.484, 568.069 294.484, 578.069 294.484, 588.069 294.484, 598.069 294.484, 608.807 294.484, 618.807 294.484, 628.807 294.484, 638.807 294.484, 648.807 294.484, 658.807 294.484, 668.807 294.484, 675.735 294.484, 685.735 294.484, 695.735 294.484, 699.638 " />
            <path fill="none" stroke-width="1.5" stroke-linecap="round" stroke-opacity="1.0" stroke="rgb(0, 0, 0)" stroke-linejoin="round" d=" M 227.556, 699.638 237.556, 699.638 247.556, 699.638 257.556, 699.638 267.556, 699.638 277.556, 699.638 287.556, 699.638 294.484, 699.638 294.484, 699.638 " />
            <path fill="none" stroke-width="1.5" stroke-linecap="round" stroke-opacity="1.0" stroke="rgb(0, 0, 0)" stroke-linejoin="round" d=" M 480.926, 594.465 480.926, 584.465 480.926, 574.465 480.926, 570.562 " />
            <path fill="none" stroke-width="1.5" stroke-linecap="round" stroke-opacity="1.0" stroke="rgb(0, 0, 0)" stroke-linejoin="round" d=" M 480.926, 594.465 480.926, 584.465 480.926, 574.465 480.926, 570.562 " />
            <path fill="none" stroke-width="1.5" stroke-linecap="round" stroke-opacity="1.0" stroke="rgb(0, 0, 0)" stroke-linejoin="round" d=" M 796.445, 692.467 796.445, 682.467 796.445, 672.467 796.445, 663.783 796.444, 663.783 786.444, 663.783 776.444, 663.783 766.444, 663.783 756.445, 663.783 746.444, 663.783 736.444, 663.783 726.444, 663.783 716.445, 663.783 706.444, 663.783 696.444, 663.783 686.445, 663.783 681.711, 663.783 681.711, 663.783 681.711, 673.783 681.711, 683.783 681.711, 692.467 691.711, 692.467 701.711, 692.467 711.711, 692.467 721.711, 692.467 731.711, 692.467 741.711, 692.467 751.711, 692.467 761.711, 692.467 771.711, 692.467 781.711, 692.467 791.711, 692.467 796.444, 692.467 796.445, 692.467 " />
            <path fill="none" stroke-width="1.5" stroke-linecap="round" stroke-opacity="1.0" stroke="rgb(0, 0, 0)" stroke-linejoin="round" d=" M 796.444, 663.783 796.444, 673.783 796.444, 683.783 796.444, 692.467 " />
            <path fill="none" stroke-width="1.5" stroke-linecap="round" stroke-opacity="1.0" stroke="rgb(0, 0, 0)" stroke-linejoin="round" d=" M 452.243, 570.562 454.574, 570.792 456.816, 571.472 458.883, 572.576 460.694, 574.063 462.180, 575.874 463.284, 577.940 463.965, 580.182 464.194, 582.514 463.965, 584.845 463.284, 587.087 462.180, 589.153 460.694, 590.965 458.883, 592.451 456.816, 593.555 454.574, 594.235 452.243, 594.465 " />
            <path fill="none" stroke-width="1.5" stroke-linecap="round" stroke-opacity="1.0" stroke="rgb(0, 0, 0)" stroke-linejoin="round" d=" M 449.911, 594.235 452.243, 594.465 " />
            <path fill="none" stroke-width="1.5" stroke-linecap="round" stroke-opacity="1.0" stroke="rgb(0, 0, 0)" stroke-linejoin="round" d=" M 445.603, 592.451 447.669, 593.555 449.911, 594.235 " />
            <path fill="none" stroke-width="1.5" stroke-linecap="round" stroke-opacity="1.0" stroke="rgb(0, 0, 0)" stroke-linejoin="round" d=" M 452.243, 570.562 449.911, 570.792 447.669, 571.472 445.603, 572.576 443.792, 574.063 442.306, 575.874 441.201, 577.940 440.521, 580.182 440.291, 582.514 440.521, 584.845 441.201, 587.087 442.306, 589.153 443.792, 590.965 445.603, 592.451 " />
            <path fill="none" stroke-width="1.5" stroke-linecap="round" stroke-opacity="1.0" stroke="rgb(0, 0, 0)" stroke-linejoin="round" d=" M 423.559, 570.562 423.559, 580.562 423.559, 590.562 423.559, 594.465 " />
            <path fill="none" stroke-width="1.5" stroke-linecap="round" stroke-opacity="1.0" stroke="rgb(0, 0, 0)" stroke-linejoin="round" d=" M 423.559, 594.465 423.559, 594.465 " />
            <path fill="none" stroke-width="1.5" stroke-linecap="round" stroke-opacity="1.0" stroke="rgb(0, 0, 0)" stroke-linejoin="round" d=" M 452.243, 570.562 452.243, 570.562 " />
            <path fill="none" stroke-width="1.5" stroke-linecap="round" stroke-opacity="1.0" stroke="rgb(0, 0, 0)" stroke-linejoin="round" d=" M 452.243, 570.562 452.243, 570.562 " />
            <path fill="none" stroke-width="1.5" stroke-linecap="round" stroke-opacity="1.0" stroke="rgb(0, 0, 0)" stroke-linejoin="round" d=" M 452.243, 594.465 454.574, 594.235 " />
            <path fill="none" stroke-width="1.5" stroke-linecap="round" stroke-opacity="1.0" stroke="rgb(0, 0, 0)" stroke-linejoin="round" d=" M 452.243, 594.465 462.243, 594.465 472.243, 594.465 480.926, 594.465 " />
            <path fill="none" stroke-width="1.5" stroke-linecap="round" stroke-opacity="1.0" stroke="rgb(0, 0, 0)" stroke-linejoin="round" d=" M 423.559, 594.465 433.559, 594.465 443.559, 594.465 452.243, 594.465 " />
            <path fill="none" stroke-width="1.5" stroke-linecap="round" stroke-opacity="1.0" stroke="rgb(0, 0, 0)" stroke-linejoin="round" d=" M 423.559, 594.465 423.559, 594.465 " />
            <path fill="none" stroke-width="1.5" stroke-linecap="round" stroke-opacity="1.0" stroke="rgb(0, 0, 0)" stroke-linejoin="round" d=" M 480.926, 570.562 480.926, 570.562 " />
            <path fill="none" stroke-width="1.5" stroke-linecap="round" stroke-opacity="1.0" stroke="rgb(0, 0, 0)" stroke-linejoin="round" d=" M 452.243, 570.562 442.243, 570.562 432.243, 570.562 423.559, 570.562 " />
            <path fill="none" stroke-width="1.5" stroke-linecap="round" stroke-opacity="1.0" stroke="rgb(0, 0, 0)" stroke-linejoin="round" d=" M 480.926, 570.562 470.926, 570.562 460.926, 570.562 452.243, 570.562 " />
            <path fill="none" stroke-width="1.5" stroke-linecap="round" stroke-opacity="1.0" stroke="rgb(0, 0, 0)" stroke-linejoin="round" d=" M 423.559, 594.465 433.559, 594.465 443.559, 594.465 453.559, 594.465 463.559, 594.465 473.559, 594.465 480.926, 594.465 " />
            <path fill="none" stroke-width="1.5" stroke-linecap="round" stroke-opacity="1.0" stroke="rgb(0, 0, 0)" stroke-linejoin="round" d=" M 480.926, 570.562 480.926, 570.562 " />
        </g>
    </g>
</svg>
