<?xml version='1.0' encoding='ascii'?>
<svg xmlns="http://www.w3.org/2000/svg" xmlns:inkscape="http://www.inkscape.org/namespaces/inkscape" version="1.1" width="1024" height="1024">
    <g id="ViewLayer_LineSet" inkscape:groupmode="lineset" inkscape:label="ViewLayer_LineSet">
        <g inkscape:groupmode="layer" id="strokes" inkscape:label="strokes">
            <path fill="none" stroke-width="3.0" stroke-linecap="butt" stroke-opacity="1.0" stroke="rgb(0, 0, 0)" stroke-linejoin="round" d=" M 720.593, 796.444 720.593, 786.444 720.593, 776.444 720.593, 766.444 720.593, 756.444 720.593, 746.444 720.593, 736.444 720.593, 726.444 720.593, 716.444 720.593, 706.444 720.593, 696.444 720.593, 686.444 720.593, 676.444 720.593, 666.444 720.593, 656.444 720.593, 646.444 720.593, 636.444 720.593, 626.444 720.593, 616.444 720.593, 606.815 " />
            <path fill="none" stroke-width="3.0" stroke-linecap="butt" stroke-opacity="1.0" stroke="rgb(0, 0, 0)" stroke-linejoin="round" d=" M 341.333, 606.815 341.333, 606.815 341.333, 616.815 341.333, 626.815 341.333, 636.815 341.333, 646.815 341.333, 656.815 341.333, 666.815 341.333, 676.815 341.333, 686.815 341.333, 696.815 341.333, 706.815 341.333, 716.815 341.333, 726.815 341.333, 736.815 341.333, 746.815 341.333, 756.815 341.333, 766.815 341.333, 776.815 341.333, 786.815 341.333, 796.444 341.333, 796.444 351.333, 796.444 361.333, 796.444 371.333, 796.444 381.333, 796.444 391.333, 796.444 401.333, 796.444 411.333, 796.444 421.333, 796.444 426.667, 796.444 426.667, 796.444 436.667, 796.444 446.667, 796.444 456.667, 796.444 464.593, 796.444 464.593, 796.444 474.593, 796.444 484.593, 796.444 494.593, 796.444 504.593, 796.444 514.593, 796.444 524.593, 796.444 534.593, 796.444 544.593, 796.444 554.593, 796.444 564.593, 796.444 574.593, 796.444 584.593, 796.444 594.593, 796.444 597.333, 796.444 597.333, 796.444 607.333, 796.444 617.333, 796.444 627.333, 796.444 635.259, 796.444 635.259, 796.444 645.259, 796.444 655.259, 796.444 665.259, 796.444 675.259, 796.444 685.259, 796.444 695.259, 796.444 705.259, 796.444 715.259, 796.444 720.593, 796.444 " />
            <path fill="none" stroke-width="3.0" stroke-linecap="butt" stroke-opacity="1.0" stroke="rgb(0, 0, 0)" stroke-linejoin="round" d=" M 379.259, 417.185 379.259, 407.185 379.259, 397.185 379.259, 387.185 379.259, 377.185 379.259, 367.185 379.259, 357.185 379.259, 347.185 379.259, 337.185 379.259, 327.185 379.259, 317.185 379.259, 307.185 379.259, 297.185 379.259, 287.185 379.259, 277.185 379.259, 267.185 379.259, 257.185 379.259, 247.185 379.259, 237.185 379.259, 227.556 379.259, 227.556 369.259, 227.556 359.259, 227.556 349.259, 227.556 339.259, 227.556 329.259, 227.556 319.259, 227.556 309.259, 227.556 303.407, 227.556 303.407, 237.556 303.407, 247.556 303.407, 257.556 303.407, 267.556 303.407, 277.556 303.407, 287.556 303.407, 297.556 303.407, 307.556 303.407, 317.556 303.407, 327.556 303.407, 337.556 303.407, 347.556 303.407, 357.556 303.407, 367.556 303.407, 377.556 303.407, 387.556 303.407, 397.556 303.407, 407.556 303.407, 417.556 303.407, 427.556 303.407, 437.556 303.407, 447.556 303.407, 457.556 303.407, 467.556 303.407, 477.556 303.407, 487.556 303.407, 497.556 303.407, 507.556 303.407, 517.556 303.407, 527.556 303.407, 537.556 303.407, 547.556 303.407, 557.556 303.407, 567.556 303.407, 577.556 303.407, 587.556 303.407, 597.556 303.407, 606.815 303.407, 606.815 313.407, 606.815 323.407, 606.815 333.407, 606.815 341.333, 606.815 " />
            <path fill="none" stroke-width="3.0" stroke-linecap="butt" stroke-opacity="1.0" stroke="rgb(0, 0, 0)" stroke-linejoin="round" d=" M 379.259, 227.556 379.259, 237.556 379.259, 247.556 379.259, 257.556 379.259, 267.556 379.259, 277.556 379.259, 287.556 379.259, 297.556 379.259, 307.556 379.259, 317.556 379.259, 327.556 379.259, 337.556 379.259, 347.556 379.259, 357.556 379.259, 367.556 379.259, 377.556 379.259, 387.556 379.259, 397.556 379.259, 407.556 379.259, 417.185 " />
            <path fill="none" stroke-width="3.0" stroke-linecap="butt" stroke-opacity="1.0" stroke="rgb(0, 0, 0)" stroke-linejoin="round" d=" M 303.407, 606.815 313.407, 606.815 323.407, 606.815 333.407, 606.815 341.333, 606.815 " />
            <path fill="none" stroke-width="3.0" stroke-linecap="butt" stroke-opacity="1.0" stroke="rgb(0, 0, 0)" stroke-linejoin="round" d=" M 720.593, 606.815 720.593, 606.815 720.593, 596.815 720.593, 586.815 720.593, 576.815 720.593, 566.815 720.593, 556.815 720.593, 546.815 720.593, 536.815 720.593, 526.815 720.593, 516.815 720.593, 506.815 720.593, 496.815 720.593, 486.815 720.593, 476.815 720.593, 466.815 720.593, 456.815 720.593, 446.815 720.593, 436.815 720.593, 426.815 720.593, 417.185 720.593, 417.185 " />
            <path fill="none" stroke-width="3.0" stroke-linecap="butt" stroke-opacity="1.0" stroke="rgb(0, 0, 0)" stroke-linejoin="round" d=" M 720.593, 606.815 720.593, 596.815 720.593, 586.815 720.593, 576.815 720.593, 566.815 720.593, 556.815 720.593, 546.815 720.593, 536.815 720.593, 526.815 720.593, 516.815 720.593, 506.815 720.593, 496.815 720.593, 486.815 720.593, 476.815 720.593, 466.815 720.593, 456.815 720.593, 446.815 720.593, 436.815 720.593, 426.815 720.593, 417.185 " />
            <path fill="none" stroke-width="3.0" stroke-linecap="butt" stroke-opacity="1.0" stroke="rgb(0, 0, 0)" stroke-linejoin="round" d=" M 341.333, 417.185 341.333, 427.185 341.333, 437.185 341.333, 447.185 341.333, 457.185 341.333, 467.185 341.333, 477.185 341.333, 487.185 341.333, 497.185 341.333, 507.185 341.333, 517.185 341.333, 527.185 341.333, 537.185 341.333, 547.185 341.333, 557.185 341.333, 567.185 341.333, 577.185 341.333, 587.185 341.333, 597.185 341.333, 606.815 " />
            <path fill="none" stroke-width="3.0" stroke-linecap="butt" stroke-opacity="1.0" stroke="rgb(0, 0, 0)" stroke-linejoin="round" d=" M 341.333, 417.185 341.333, 417.185 " />
            <path fill="none" stroke-width="3.0" stroke-linecap="butt" stroke-opacity="1.0" stroke="rgb(0, 0, 0)" stroke-linejoin="round" d=" M 379.259, 606.815 379.259, 606.815 389.259, 606.815 399.259, 606.815 409.259, 606.815 419.259, 606.815 429.259, 606.815 439.259, 606.815 449.259, 606.815 459.259, 606.815 469.259, 606.815 479.259, 606.815 489.259, 606.815 499.259, 606.815 509.259, 606.815 519.259, 606.815 529.259, 606.815 539.259, 606.815 549.259, 606.815 559.259, 606.815 569.259, 606.815 579.259, 606.815 589.259, 606.815 599.259, 606.815 609.259, 606.815 619.259, 606.815 629.259, 606.815 639.259, 606.815 649.259, 606.815 659.259, 606.815 669.259, 606.815 679.259, 606.815 689.259, 606.815 699.259, 606.815 709.259, 606.815 720.593, 606.815 " />
            <path fill="none" stroke-width="3.0" stroke-linecap="butt" stroke-opacity="1.0" stroke="rgb(0, 0, 0)" stroke-linejoin="round" d=" M 341.333, 606.815 351.333, 606.815 361.333, 606.815 371.333, 606.815 379.259, 606.815 " />
            <path fill="none" stroke-width="3.0" stroke-linecap="butt" stroke-opacity="1.0" stroke="rgb(0, 0, 0)" stroke-linejoin="round" d=" M 341.333, 606.815 341.333, 606.815 " />
            <path fill="none" stroke-width="3.0" stroke-linecap="butt" stroke-opacity="1.0" stroke="rgb(0, 0, 0)" stroke-linejoin="round" d=" M 720.593, 606.815 720.593, 606.815 " />
            <path fill="none" stroke-width="3.0" stroke-linecap="butt" stroke-opacity="1.0" stroke="rgb(0, 0, 0)" stroke-linejoin="round" d=" M 720.593, 417.185 720.593, 417.185 720.593, 417.185 " />
            <path fill="none" stroke-width="3.0" stroke-linecap="butt" stroke-opacity="1.0" stroke="rgb(0, 0, 0)" stroke-linejoin="round" d=" M 720.593, 417.185 710.593, 417.185 700.593, 417.185 690.593, 417.185 680.593, 417.185 670.593, 417.185 660.593, 417.185 650.593, 417.185 640.593, 417.185 630.593, 417.185 620.593, 417.185 610.593, 417.185 600.593, 417.185 590.593, 417.185 580.593, 417.185 570.593, 417.185 560.593, 417.185 550.593, 417.185 540.593, 417.185 530.593, 417.185 520.593, 417.185 510.593, 417.185 500.593, 417.185 490.593, 417.185 480.593, 417.185 470.593, 417.185 460.593, 417.185 450.593, 417.185 440.593, 417.185 430.593, 417.185 420.593, 417.185 410.593, 417.185 400.593, 417.185 390.593, 417.185 379.259, 417.185 379.259, 417.185 369.259, 417.185 359.259, 417.185 349.259, 417.185 341.333, 417.185 " />
        </g>
    </g>
    <g id="ViewLayer_TechnicalLines" inkscape:groupmode="lineset" inkscape:label="ViewLayer_TechnicalLines">
        <g inkscape:groupmode="layer" id="strokes" inkscape:label="strokes">
            <path fill="none" stroke-width="3.0" stroke-linecap="butt" stroke-opacity="1.0" stroke="rgb(0, 0, 0)" stroke-linejoin="round" d=" M 720.593, 796.444 720.593, 786.444 720.593, 776.444 720.593, 766.444 720.593, 756.444 720.593, 746.444 720.593, 736.444 720.593, 726.444 720.593, 716.444 720.593, 706.444 720.593, 696.444 720.593, 686.444 720.593, 676.444 720.593, 666.444 720.593, 656.444 720.593, 646.444 720.593, 636.444 720.593, 626.444 720.593, 616.444 720.593, 606.815 " />
            <path fill="none" stroke-width="3.0" stroke-linecap="butt" stroke-opacity="1.0" stroke="rgb(0, 0, 0)" stroke-linejoin="round" d=" M 341.333, 606.815 341.333, 606.815 341.333, 616.815 341.333, 626.815 341.333, 636.815 341.333, 646.815 341.333, 656.815 341.333, 666.815 341.333, 676.815 341.333, 686.815 341.333, 696.815 341.333, 706.815 341.333, 716.815 341.333, 726.815 341.333, 736.815 341.333, 746.815 341.333, 756.815 341.333, 766.815 341.333, 776.815 341.333, 786.815 341.333, 796.444 341.333, 796.444 351.333, 796.444 361.333, 796.444 371.333, 796.444 381.333, 796.444 391.333, 796.444 401.333, 796.444 411.333, 796.444 421.333, 796.444 426.667, 796.444 426.667, 796.444 436.667, 796.444 446.667, 796.444 456.667, 796.444 464.593, 796.444 464.593, 796.444 474.593, 796.444 484.593, 796.444 494.593, 796.444 504.593, 796.444 514.593, 796.444 524.593, 796.444 534.593, 796.444 544.593, 796.444 554.593, 796.444 564.593, 796.444 574.593, 796.444 584.593, 796.444 594.593, 796.444 597.333, 796.444 597.333, 796.444 607.333, 796.444 617.333, 796.444 627.333, 796.444 635.259, 796.444 635.259, 796.444 645.259, 796.444 655.259, 796.444 665.259, 796.444 675.259, 796.444 685.259, 796.444 695.259, 796.444 705.259, 796.444 715.259, 796.444 720.593, 796.444 " />
            <path fill="none" stroke-width="3.0" stroke-linecap="butt" stroke-opacity="1.0" stroke="rgb(0, 0, 0)" stroke-linejoin="round" d=" M 379.259, 417.185 379.259, 407.185 379.259, 397.185 379.259, 387.185 379.259, 377.185 379.259, 367.185 379.259, 357.185 379.259, 347.185 379.259, 337.185 379.259, 327.185 379.259, 317.185 379.259, 307.185 379.259, 297.185 379.259, 287.185 379.259, 277.185 379.259, 267.185 379.259, 257.185 379.259, 247.185 379.259, 237.185 379.259, 227.556 379.259, 227.556 369.259, 227.556 359.259, 227.556 349.259, 227.556 339.259, 227.556 329.259, 227.556 319.259, 227.556 309.259, 227.556 303.407, 227.556 303.407, 237.556 303.407, 247.556 303.407, 257.556 303.407, 267.556 303.407, 277.556 303.407, 287.556 303.407, 297.556 303.407, 307.556 303.407, 317.556 303.407, 327.556 303.407, 337.556 303.407, 347.556 303.407, 357.556 303.407, 367.556 303.407, 377.556 303.407, 387.556 303.407, 397.556 303.407, 407.556 303.407, 417.556 303.407, 427.556 303.407, 437.556 303.407, 447.556 303.407, 457.556 303.407, 467.556 303.407, 477.556 303.407, 487.556 303.407, 497.556 303.407, 507.556 303.407, 517.556 303.407, 527.556 303.407, 537.556 303.407, 547.556 303.407, 557.556 303.407, 567.556 303.407, 577.556 303.407, 587.556 303.407, 597.556 303.407, 606.815 303.407, 606.815 313.407, 606.815 323.407, 606.815 333.407, 606.815 341.333, 606.815 " />
            <path fill="none" stroke-width="3.0" stroke-linecap="butt" stroke-opacity="1.0" stroke="rgb(0, 0, 0)" stroke-linejoin="round" d=" M 379.259, 227.556 379.259, 237.556 379.259, 247.556 379.259, 257.556 379.259, 267.556 379.259, 277.556 379.259, 287.556 379.259, 297.556 379.259, 307.556 379.259, 317.556 379.259, 327.556 379.259, 337.556 379.259, 347.556 379.259, 357.556 379.259, 367.556 379.259, 377.556 379.259, 387.556 379.259, 397.556 379.259, 407.556 379.259, 417.185 " />
            <path fill="none" stroke-width="3.0" stroke-linecap="butt" stroke-opacity="1.0" stroke="rgb(0, 0, 0)" stroke-linejoin="round" d=" M 303.407, 606.815 313.407, 606.815 323.407, 606.815 333.407, 606.815 341.333, 606.815 " />
            <path fill="none" stroke-width="3.0" stroke-linecap="butt" stroke-opacity="1.0" stroke="rgb(0, 0, 0)" stroke-linejoin="round" d=" M 720.593, 606.815 720.593, 606.815 720.593, 596.815 720.593, 586.815 720.593, 576.815 720.593, 566.815 720.593, 556.815 720.593, 546.815 720.593, 536.815 720.593, 526.815 720.593, 516.815 720.593, 506.815 720.593, 496.815 720.593, 486.815 720.593, 476.815 720.593, 466.815 720.593, 456.815 720.593, 446.815 720.593, 436.815 720.593, 426.815 720.593, 417.185 720.593, 417.185 " />
            <path fill="none" stroke-width="3.0" stroke-linecap="butt" stroke-opacity="1.0" stroke="rgb(0, 0, 0)" stroke-linejoin="round" d=" M 720.593, 606.815 720.593, 596.815 720.593, 586.815 720.593, 576.815 720.593, 566.815 720.593, 556.815 720.593, 546.815 720.593, 536.815 720.593, 526.815 720.593, 516.815 720.593, 506.815 720.593, 496.815 720.593, 486.815 720.593, 476.815 720.593, 466.815 720.593, 456.815 720.593, 446.815 720.593, 436.815 720.593, 426.815 720.593, 417.185 " />
            <path fill="none" stroke-width="3.0" stroke-linecap="butt" stroke-opacity="1.0" stroke="rgb(0, 0, 0)" stroke-linejoin="round" d=" M 341.333, 417.185 341.333, 427.185 341.333, 437.185 341.333, 447.185 341.333, 457.185 341.333, 467.185 341.333, 477.185 341.333, 487.185 341.333, 497.185 341.333, 507.185 341.333, 517.185 341.333, 527.185 341.333, 537.185 341.333, 547.185 341.333, 557.185 341.333, 567.185 341.333, 577.185 341.333, 587.185 341.333, 597.185 341.333, 606.815 " />
            <path fill="none" stroke-width="3.0" stroke-linecap="butt" stroke-opacity="1.0" stroke="rgb(0, 0, 0)" stroke-linejoin="round" d=" M 341.333, 417.185 341.333, 417.185 " />
            <path fill="none" stroke-width="3.0" stroke-linecap="butt" stroke-opacity="1.0" stroke="rgb(0, 0, 0)" stroke-linejoin="round" d=" M 379.259, 606.815 379.259, 606.815 389.259, 606.815 399.259, 606.815 409.259, 606.815 419.259, 606.815 429.259, 606.815 439.259, 606.815 449.259, 606.815 459.259, 606.815 469.259, 606.815 479.259, 606.815 489.259, 606.815 499.259, 606.815 509.259, 606.815 519.259, 606.815 529.259, 606.815 539.259, 606.815 549.259, 606.815 559.259, 606.815 569.259, 606.815 579.259, 606.815 589.259, 606.815 599.259, 606.815 609.259, 606.815 619.259, 606.815 629.259, 606.815 639.259, 606.815 649.259, 606.815 659.259, 606.815 669.259, 606.815 679.259, 606.815 689.259, 606.815 699.259, 606.815 709.259, 606.815 720.593, 606.815 " />
            <path fill="none" stroke-width="3.0" stroke-linecap="butt" stroke-opacity="1.0" stroke="rgb(0, 0, 0)" stroke-linejoin="round" d=" M 341.333, 606.815 351.333, 606.815 361.333, 606.815 371.333, 606.815 379.259, 606.815 " />
            <path fill="none" stroke-width="3.0" stroke-linecap="butt" stroke-opacity="1.0" stroke="rgb(0, 0, 0)" stroke-linejoin="round" d=" M 341.333, 606.815 341.333, 606.815 " />
            <path fill="none" stroke-width="3.0" stroke-linecap="butt" stroke-opacity="1.0" stroke="rgb(0, 0, 0)" stroke-linejoin="round" d=" M 720.593, 606.815 720.593, 606.815 " />
            <path fill="none" stroke-width="3.0" stroke-linecap="butt" stroke-opacity="1.0" stroke="rgb(0, 0, 0)" stroke-linejoin="round" d=" M 720.593, 417.185 720.593, 417.185 720.593, 417.185 " />
            <path fill="none" stroke-width="3.0" stroke-linecap="butt" stroke-opacity="1.0" stroke="rgb(0, 0, 0)" stroke-linejoin="round" d=" M 720.593, 417.185 710.593, 417.185 700.593, 417.185 690.593, 417.185 680.593, 417.185 670.593, 417.185 660.593, 417.185 650.593, 417.185 640.593, 417.185 630.593, 417.185 620.593, 417.185 610.593, 417.185 600.593, 417.185 590.593, 417.185 580.593, 417.185 570.593, 417.185 560.593, 417.185 550.593, 417.185 540.593, 417.185 530.593, 417.185 520.593, 417.185 510.593, 417.185 500.593, 417.185 490.593, 417.185 480.593, 417.185 470.593, 417.185 460.593, 417.185 450.593, 417.185 440.593, 417.185 430.593, 417.185 420.593, 417.185 410.593, 417.185 400.593, 417.185 390.593, 417.185 379.259, 417.185 379.259, 417.185 369.259, 417.185 359.259, 417.185 349.259, 417.185 341.333, 417.185 " />
        </g>
    </g>
    <g id="ViewLayer_TechnicalLines.001" inkscape:groupmode="lineset" inkscape:label="ViewLayer_TechnicalLines.001">
        <g inkscape:groupmode="layer" id="strokes" inkscape:label="strokes">
            <path fill="none" stroke-width="1.5" stroke-linecap="round" stroke-opacity="1.0" stroke="rgb(0, 0, 0)" stroke-linejoin="round" d=" M 720.593, 796.444 720.593, 786.444 720.593, 776.444 720.593, 766.444 720.593, 756.444 720.593, 746.444 720.593, 736.444 720.593, 726.444 720.593, 716.444 720.593, 706.444 720.593, 696.444 720.593, 686.444 720.593, 676.444 720.593, 666.444 720.593, 656.444 720.593, 646.444 720.593, 636.444 720.593, 626.444 720.593, 616.444 720.593, 606.815 " />
            <path fill="none" stroke-width="1.5" stroke-linecap="round" stroke-opacity="1.0" stroke="rgb(0, 0, 0)" stroke-linejoin="round" d=" M 341.333, 606.815 341.333, 606.815 341.333, 616.815 341.333, 626.815 341.333, 636.815 341.333, 646.815 341.333, 656.815 341.333, 666.815 341.333, 676.815 341.333, 686.815 341.333, 696.815 341.333, 706.815 341.333, 716.815 341.333, 726.815 341.333, 736.815 341.333, 746.815 341.333, 756.815 341.333, 766.815 341.333, 776.815 341.333, 786.815 341.333, 796.444 341.333, 796.444 351.333, 796.444 361.333, 796.444 371.333, 796.444 381.333, 796.444 391.333, 796.444 401.333, 796.444 411.333, 796.444 421.333, 796.444 426.667, 796.444 426.667, 796.444 436.667, 796.444 446.667, 796.444 456.667, 796.444 464.593, 796.444 464.593, 796.444 474.593, 796.444 484.593, 796.444 494.593, 796.444 504.593, 796.444 514.593, 796.444 524.593, 796.444 534.593, 796.444 544.593, 796.444 554.593, 796.444 564.593, 796.444 574.593, 796.444 584.593, 796.444 594.593, 796.444 597.333, 796.444 597.333, 796.444 607.333, 796.444 617.333, 796.444 627.333, 796.444 635.259, 796.444 635.259, 796.444 645.259, 796.444 655.259, 796.444 665.259, 796.444 675.259, 796.444 685.259, 796.444 695.259, 796.444 705.259, 796.444 715.259, 796.444 720.593, 796.444 " />
            <path fill="none" stroke-width="1.5" stroke-linecap="round" stroke-opacity="1.0" stroke="rgb(0, 0, 0)" stroke-linejoin="round" d=" M 379.259, 417.185 379.259, 407.185 379.259, 397.185 379.259, 387.185 379.259, 377.185 379.259, 367.185 379.259, 357.185 379.259, 347.185 379.259, 337.185 379.259, 327.185 379.259, 317.185 379.259, 307.185 379.259, 297.185 379.259, 287.185 379.259, 277.185 379.259, 267.185 379.259, 257.185 379.259, 247.185 379.259, 237.185 379.259, 227.556 379.259, 227.556 369.259, 227.556 359.259, 227.556 349.259, 227.556 339.259, 227.556 329.259, 227.556 319.259, 227.556 309.259, 227.556 303.407, 227.556 303.407, 237.556 303.407, 247.556 303.407, 257.556 303.407, 267.556 303.407, 277.556 303.407, 287.556 303.407, 297.556 303.407, 307.556 303.407, 317.556 303.407, 327.556 303.407, 337.556 303.407, 347.556 303.407, 357.556 303.407, 367.556 303.407, 377.556 303.407, 387.556 303.407, 397.556 303.407, 407.556 303.407, 417.556 303.407, 427.556 303.407, 437.556 303.407, 447.556 303.407, 457.556 303.407, 467.556 303.407, 477.556 303.407, 487.556 303.407, 497.556 303.407, 507.556 303.407, 517.556 303.407, 527.556 303.407, 537.556 303.407, 547.556 303.407, 557.556 303.407, 567.556 303.407, 577.556 303.407, 587.556 303.407, 597.556 303.407, 606.815 303.407, 606.815 313.407, 606.815 323.407, 606.815 333.407, 606.815 341.333, 606.815 " />
            <path fill="none" stroke-width="1.5" stroke-linecap="round" stroke-opacity="1.0" stroke="rgb(0, 0, 0)" stroke-linejoin="round" d=" M 379.259, 227.556 379.259, 237.556 379.259, 247.556 379.259, 257.556 379.259, 267.556 379.259, 277.556 379.259, 287.556 379.259, 297.556 379.259, 307.556 379.259, 317.556 379.259, 327.556 379.259, 337.556 379.259, 347.556 379.259, 357.556 379.259, 367.556 379.259, 377.556 379.259, 387.556 379.259, 397.556 379.259, 407.556 379.259, 417.185 " />
            <path fill="none" stroke-width="1.5" stroke-linecap="round" stroke-opacity="1.0" stroke="rgb(0, 0, 0)" stroke-linejoin="round" d=" M 303.407, 606.815 313.407, 606.815 323.407, 606.815 333.407, 606.815 341.333, 606.815 " />
            <path fill="none" stroke-width="1.5" stroke-linecap="round" stroke-opacity="1.0" stroke="rgb(0, 0, 0)" stroke-linejoin="round" d=" M 720.593, 606.815 720.593, 606.815 720.593, 596.815 720.593, 586.815 720.593, 576.815 720.593, 566.815 720.593, 556.815 720.593, 546.815 720.593, 536.815 720.593, 526.815 720.593, 516.815 720.593, 506.815 720.593, 496.815 720.593, 486.815 720.593, 476.815 720.593, 466.815 720.593, 456.815 720.593, 446.815 720.593, 436.815 720.593, 426.815 720.593, 417.185 720.593, 417.185 " />
            <path fill="none" stroke-width="1.5" stroke-linecap="round" stroke-opacity="1.0" stroke="rgb(0, 0, 0)" stroke-linejoin="round" d=" M 720.593, 606.815 720.593, 596.815 720.593, 586.815 720.593, 576.815 720.593, 566.815 720.593, 556.815 720.593, 546.815 720.593, 536.815 720.593, 526.815 720.593, 516.815 720.593, 506.815 720.593, 496.815 720.593, 486.815 720.593, 476.815 720.593, 466.815 720.593, 456.815 720.593, 446.815 720.593, 436.815 720.593, 426.815 720.593, 417.185 " />
            <path fill="none" stroke-width="1.5" stroke-linecap="round" stroke-opacity="1.0" stroke="rgb(0, 0, 0)" stroke-linejoin="round" d=" M 341.333, 417.185 341.333, 427.185 341.333, 437.185 341.333, 447.185 341.333, 457.185 341.333, 467.185 341.333, 477.185 341.333, 487.185 341.333, 497.185 341.333, 507.185 341.333, 517.185 341.333, 527.185 341.333, 537.185 341.333, 547.185 341.333, 557.185 341.333, 567.185 341.333, 577.185 341.333, 587.185 341.333, 597.185 341.333, 606.815 " />
            <path fill="none" stroke-width="1.5" stroke-linecap="round" stroke-opacity="1.0" stroke="rgb(0, 0, 0)" stroke-linejoin="round" d=" M 341.333, 417.185 341.333, 417.185 " />
            <path fill="none" stroke-width="1.5" stroke-linecap="round" stroke-opacity="1.0" stroke="rgb(0, 0, 0)" stroke-linejoin="round" d=" M 379.259, 606.815 379.259, 606.815 389.259, 606.815 399.259, 606.815 409.259, 606.815 419.259, 606.815 429.259, 606.815 439.259, 606.815 449.259, 606.815 459.259, 606.815 469.259, 606.815 479.259, 606.815 489.259, 606.815 499.259, 606.815 509.259, 606.815 519.259, 606.815 529.259, 606.815 539.259, 606.815 549.259, 606.815 559.259, 606.815 569.259, 606.815 579.259, 606.815 589.259, 606.815 599.259, 606.815 609.259, 606.815 619.259, 606.815 629.259, 606.815 639.259, 606.815 649.259, 606.815 659.259, 606.815 669.259, 606.815 679.259, 606.815 689.259, 606.815 699.259, 606.815 709.259, 606.815 720.593, 606.815 " />
            <path fill="none" stroke-width="1.5" stroke-linecap="round" stroke-opacity="1.0" stroke="rgb(0, 0, 0)" stroke-linejoin="round" d=" M 341.333, 606.815 351.333, 606.815 361.333, 606.815 371.333, 606.815 379.259, 606.815 " />
            <path fill="none" stroke-width="1.5" stroke-linecap="round" stroke-opacity="1.0" stroke="rgb(0, 0, 0)" stroke-linejoin="round" d=" M 341.333, 606.815 341.333, 606.815 " />
            <path fill="none" stroke-width="1.5" stroke-linecap="round" stroke-opacity="1.0" stroke="rgb(0, 0, 0)" stroke-linejoin="round" d=" M 720.593, 606.815 720.593, 606.815 " />
            <path fill="none" stroke-width="1.5" stroke-linecap="round" stroke-opacity="1.0" stroke="rgb(0, 0, 0)" stroke-linejoin="round" d=" M 720.593, 417.185 720.593, 417.185 720.593, 417.185 " />
            <path fill="none" stroke-width="1.5" stroke-linecap="round" stroke-opacity="1.0" stroke="rgb(0, 0, 0)" stroke-linejoin="round" d=" M 720.593, 417.185 710.593, 417.185 700.593, 417.185 690.593, 417.185 680.593, 417.185 670.593, 417.185 660.593, 417.185 650.593, 417.185 640.593, 417.185 630.593, 417.185 620.593, 417.185 610.593, 417.185 600.593, 417.185 590.593, 417.185 580.593, 417.185 570.593, 417.185 560.593, 417.185 550.593, 417.185 540.593, 417.185 530.593, 417.185 520.593, 417.185 510.593, 417.185 500.593, 417.185 490.593, 417.185 480.593, 417.185 470.593, 417.185 460.593, 417.185 450.593, 417.185 440.593, 417.185 430.593, 417.185 420.593, 417.185 410.593, 417.185 400.593, 417.185 390.593, 417.185 379.259, 417.185 379.259, 417.185 369.259, 417.185 359.259, 417.185 349.259, 417.185 341.333, 417.185 " />
        </g>
    </g>
    <g id="ViewLayer_TechnicalLines.002" inkscape:groupmode="lineset" inkscape:label="ViewLayer_TechnicalLines.002">
        <g inkscape:groupmode="layer" id="strokes" inkscape:label="strokes">
            <path fill="none" stroke-width="1.5" stroke-linecap="round" stroke-opacity="1.0" stroke="rgb(0, 0, 0)" stroke-linejoin="round" d=" M 720.593, 796.444 720.593, 786.444 720.593, 776.444 720.593, 766.444 720.593, 756.444 720.593, 746.444 720.593, 736.444 720.593, 726.444 720.593, 716.444 720.593, 706.444 720.593, 696.444 720.593, 686.444 720.593, 676.444 720.593, 666.444 720.593, 656.444 720.593, 646.444 720.593, 636.444 720.593, 626.444 720.593, 616.444 720.593, 606.815 " />
            <path fill="none" stroke-width="1.5" stroke-linecap="round" stroke-opacity="1.0" stroke="rgb(0, 0, 0)" stroke-linejoin="round" d=" M 341.333, 606.815 341.333, 606.815 341.333, 616.815 341.333, 626.815 341.333, 636.815 341.333, 646.815 341.333, 656.815 341.333, 666.815 341.333, 676.815 341.333, 686.815 341.333, 696.815 341.333, 706.815 341.333, 716.815 341.333, 726.815 341.333, 736.815 341.333, 746.815 341.333, 756.815 341.333, 766.815 341.333, 776.815 341.333, 786.815 341.333, 796.444 341.333, 796.444 351.333, 796.444 361.333, 796.444 371.333, 796.444 381.333, 796.444 391.333, 796.444 401.333, 796.444 411.333, 796.444 421.333, 796.444 426.667, 796.444 426.667, 796.444 436.667, 796.444 446.667, 796.444 456.667, 796.444 464.593, 796.444 464.593, 796.444 474.593, 796.444 484.593, 796.444 494.593, 796.444 504.593, 796.444 514.593, 796.444 524.593, 796.444 534.593, 796.444 544.593, 796.444 554.593, 796.444 564.593, 796.444 574.593, 796.444 584.593, 796.444 594.593, 796.444 597.333, 796.444 597.333, 796.444 607.333, 796.444 617.333, 796.444 627.333, 796.444 635.259, 796.444 635.259, 796.444 645.259, 796.444 655.259, 796.444 665.259, 796.444 675.259, 796.444 685.259, 796.444 695.259, 796.444 705.259, 796.444 715.259, 796.444 720.593, 796.444 " />
            <path fill="none" stroke-width="1.5" stroke-linecap="round" stroke-opacity="1.0" stroke="rgb(0, 0, 0)" stroke-linejoin="round" d=" M 379.259, 417.185 379.259, 407.185 379.259, 397.185 379.259, 387.185 379.259, 377.185 379.259, 367.185 379.259, 357.185 379.259, 347.185 379.259, 337.185 379.259, 327.185 379.259, 317.185 379.259, 307.185 379.259, 297.185 379.259, 287.185 379.259, 277.185 379.259, 267.185 379.259, 257.185 379.259, 247.185 379.259, 237.185 379.259, 227.556 379.259, 227.556 369.259, 227.556 359.259, 227.556 349.259, 227.556 339.259, 227.556 329.259, 227.556 319.259, 227.556 309.259, 227.556 303.407, 227.556 303.407, 237.556 303.407, 247.556 303.407, 257.556 303.407, 267.556 303.407, 277.556 303.407, 287.556 303.407, 297.556 303.407, 307.556 303.407, 317.556 303.407, 327.556 303.407, 337.556 303.407, 347.556 303.407, 357.556 303.407, 367.556 303.407, 377.556 303.407, 387.556 303.407, 397.556 303.407, 407.556 303.407, 417.556 303.407, 427.556 303.407, 437.556 303.407, 447.556 303.407, 457.556 303.407, 467.556 303.407, 477.556 303.407, 487.556 303.407, 497.556 303.407, 507.556 303.407, 517.556 303.407, 527.556 303.407, 537.556 303.407, 547.556 303.407, 557.556 303.407, 567.556 303.407, 577.556 303.407, 587.556 303.407, 597.556 303.407, 606.815 303.407, 606.815 313.407, 606.815 323.407, 606.815 333.407, 606.815 341.333, 606.815 " />
            <path fill="none" stroke-width="1.5" stroke-linecap="round" stroke-opacity="1.0" stroke="rgb(0, 0, 0)" stroke-linejoin="round" d=" M 379.259, 227.556 379.259, 237.556 379.259, 247.556 379.259, 257.556 379.259, 267.556 379.259, 277.556 379.259, 287.556 379.259, 297.556 379.259, 307.556 379.259, 317.556 379.259, 327.556 379.259, 337.556 379.259, 347.556 379.259, 357.556 379.259, 367.556 379.259, 377.556 379.259, 387.556 379.259, 397.556 379.259, 407.556 379.259, 417.185 " />
            <path fill="none" stroke-width="1.5" stroke-linecap="round" stroke-opacity="1.0" stroke="rgb(0, 0, 0)" stroke-linejoin="round" d=" M 303.407, 606.815 313.407, 606.815 323.407, 606.815 333.407, 606.815 341.333, 606.815 " />
            <path fill="none" stroke-width="1.5" stroke-linecap="round" stroke-opacity="1.0" stroke="rgb(0, 0, 0)" stroke-linejoin="round" d=" M 720.593, 606.815 720.593, 606.815 720.593, 596.815 720.593, 586.815 720.593, 576.815 720.593, 566.815 720.593, 556.815 720.593, 546.815 720.593, 536.815 720.593, 526.815 720.593, 516.815 720.593, 506.815 720.593, 496.815 720.593, 486.815 720.593, 476.815 720.593, 466.815 720.593, 456.815 720.593, 446.815 720.593, 436.815 720.593, 426.815 720.593, 417.185 720.593, 417.185 " />
            <path fill="none" stroke-width="1.5" stroke-linecap="round" stroke-opacity="1.0" stroke="rgb(0, 0, 0)" stroke-linejoin="round" d=" M 720.593, 606.815 720.593, 596.815 720.593, 586.815 720.593, 576.815 720.593, 566.815 720.593, 556.815 720.593, 546.815 720.593, 536.815 720.593, 526.815 720.593, 516.815 720.593, 506.815 720.593, 496.815 720.593, 486.815 720.593, 476.815 720.593, 466.815 720.593, 456.815 720.593, 446.815 720.593, 436.815 720.593, 426.815 720.593, 417.185 " />
            <path fill="none" stroke-width="1.5" stroke-linecap="round" stroke-opacity="1.0" stroke="rgb(0, 0, 0)" stroke-linejoin="round" d=" M 341.333, 417.185 341.333, 427.185 341.333, 437.185 341.333, 447.185 341.333, 457.185 341.333, 467.185 341.333, 477.185 341.333, 487.185 341.333, 497.185 341.333, 507.185 341.333, 517.185 341.333, 527.185 341.333, 537.185 341.333, 547.185 341.333, 557.185 341.333, 567.185 341.333, 577.185 341.333, 587.185 341.333, 597.185 341.333, 606.815 " />
            <path fill="none" stroke-width="1.5" stroke-linecap="round" stroke-opacity="1.0" stroke="rgb(0, 0, 0)" stroke-linejoin="round" d=" M 341.333, 417.185 341.333, 417.185 " />
            <path fill="none" stroke-width="1.5" stroke-linecap="round" stroke-opacity="1.0" stroke="rgb(0, 0, 0)" stroke-linejoin="round" d=" M 379.259, 606.815 379.259, 606.815 389.259, 606.815 399.259, 606.815 409.259, 606.815 419.259, 606.815 429.259, 606.815 439.259, 606.815 449.259, 606.815 459.259, 606.815 469.259, 606.815 479.259, 606.815 489.259, 606.815 499.259, 606.815 509.259, 606.815 519.259, 606.815 529.259, 606.815 539.259, 606.815 549.259, 606.815 559.259, 606.815 569.259, 606.815 579.259, 606.815 589.259, 606.815 599.259, 606.815 609.259, 606.815 619.259, 606.815 629.259, 606.815 639.259, 606.815 649.259, 606.815 659.259, 606.815 669.259, 606.815 679.259, 606.815 689.259, 606.815 699.259, 606.815 709.259, 606.815 720.593, 606.815 " />
            <path fill="none" stroke-width="1.5" stroke-linecap="round" stroke-opacity="1.0" stroke="rgb(0, 0, 0)" stroke-linejoin="round" d=" M 341.333, 606.815 351.333, 606.815 361.333, 606.815 371.333, 606.815 379.259, 606.815 " />
            <path fill="none" stroke-width="1.5" stroke-linecap="round" stroke-opacity="1.0" stroke="rgb(0, 0, 0)" stroke-linejoin="round" d=" M 341.333, 606.815 341.333, 606.815 " />
            <path fill="none" stroke-width="1.5" stroke-linecap="round" stroke-opacity="1.0" stroke="rgb(0, 0, 0)" stroke-linejoin="round" d=" M 720.593, 606.815 720.593, 606.815 " />
            <path fill="none" stroke-width="1.5" stroke-linecap="round" stroke-opacity="1.0" stroke="rgb(0, 0, 0)" stroke-linejoin="round" d=" M 720.593, 417.185 720.593, 417.185 720.593, 417.185 " />
            <path fill="none" stroke-width="1.5" stroke-linecap="round" stroke-opacity="1.0" stroke="rgb(0, 0, 0)" stroke-linejoin="round" d=" M 720.593, 417.185 710.593, 417.185 700.593, 417.185 690.593, 417.185 680.593, 417.185 670.593, 417.185 660.593, 417.185 650.593, 417.185 640.593, 417.185 630.593, 417.185 620.593, 417.185 610.593, 417.185 600.593, 417.185 590.593, 417.185 580.593, 417.185 570.593, 417.185 560.593, 417.185 550.593, 417.185 540.593, 417.185 530.593, 417.185 520.593, 417.185 510.593, 417.185 500.593, 417.185 490.593, 417.185 480.593, 417.185 470.593, 417.185 460.593, 417.185 450.593, 417.185 440.593, 417.185 430.593, 417.185 420.593, 417.185 410.593, 417.185 400.593, 417.185 390.593, 417.185 379.259, 417.185 379.259, 417.185 369.259, 417.185 359.259, 417.185 349.259, 417.185 341.333, 417.185 " />
        </g>
    </g>
    <g id="ViewLayer_TechnicalLines.003" inkscape:groupmode="lineset" inkscape:label="ViewLayer_TechnicalLines.003">
        <g inkscape:groupmode="layer" id="strokes" inkscape:label="strokes">
            <path fill="none" stroke-width="1.5" stroke-linecap="round" stroke-opacity="1.0" stroke="rgb(0, 0, 0)" stroke-linejoin="round" d=" M 720.593, 796.444 720.593, 786.444 720.593, 776.444 720.593, 766.444 720.593, 756.444 720.593, 746.444 720.593, 736.444 720.593, 726.444 720.593, 716.444 720.593, 706.444 720.593, 696.444 720.593, 686.444 720.593, 676.444 720.593, 666.444 720.593, 656.444 720.593, 646.444 720.593, 636.444 720.593, 626.444 720.593, 616.444 720.593, 606.815 " />
            <path fill="none" stroke-width="1.5" stroke-linecap="round" stroke-opacity="1.0" stroke="rgb(0, 0, 0)" stroke-linejoin="round" d=" M 341.333, 606.815 341.333, 606.815 341.333, 616.815 341.333, 626.815 341.333, 636.815 341.333, 646.815 341.333, 656.815 341.333, 666.815 341.333, 676.815 341.333, 686.815 341.333, 696.815 341.333, 706.815 341.333, 716.815 341.333, 726.815 341.333, 736.815 341.333, 746.815 341.333, 756.815 341.333, 766.815 341.333, 776.815 341.333, 786.815 341.333, 796.444 341.333, 796.444 351.333, 796.444 361.333, 796.444 371.333, 796.444 381.333, 796.444 391.333, 796.444 401.333, 796.444 411.333, 796.444 421.333, 796.444 426.667, 796.444 426.667, 796.444 436.667, 796.444 446.667, 796.444 456.667, 796.444 464.593, 796.444 464.593, 796.444 474.593, 796.444 484.593, 796.444 494.593, 796.444 504.593, 796.444 514.593, 796.444 524.593, 796.444 534.593, 796.444 544.593, 796.444 554.593, 796.444 564.593, 796.444 574.593, 796.444 584.593, 796.444 594.593, 796.444 597.333, 796.444 597.333, 796.444 607.333, 796.444 617.333, 796.444 627.333, 796.444 635.259, 796.444 635.259, 796.444 645.259, 796.444 655.259, 796.444 665.259, 796.444 675.259, 796.444 685.259, 796.444 695.259, 796.444 705.259, 796.444 715.259, 796.444 720.593, 796.444 " />
            <path fill="none" stroke-width="1.5" stroke-linecap="round" stroke-opacity="1.0" stroke="rgb(0, 0, 0)" stroke-linejoin="round" d=" M 379.259, 417.185 379.259, 407.185 379.259, 397.185 379.259, 387.185 379.259, 377.185 379.259, 367.185 379.259, 357.185 379.259, 347.185 379.259, 337.185 379.259, 327.185 379.259, 317.185 379.259, 307.185 379.259, 297.185 379.259, 287.185 379.259, 277.185 379.259, 267.185 379.259, 257.185 379.259, 247.185 379.259, 237.185 379.259, 227.556 379.259, 227.556 369.259, 227.556 359.259, 227.556 349.259, 227.556 339.259, 227.556 329.259, 227.556 319.259, 227.556 309.259, 227.556 303.407, 227.556 303.407, 237.556 303.407, 247.556 303.407, 257.556 303.407, 267.556 303.407, 277.556 303.407, 287.556 303.407, 297.556 303.407, 307.556 303.407, 317.556 303.407, 327.556 303.407, 337.556 303.407, 347.556 303.407, 357.556 303.407, 367.556 303.407, 377.556 303.407, 387.556 303.407, 397.556 303.407, 407.556 303.407, 417.556 303.407, 427.556 303.407, 437.556 303.407, 447.556 303.407, 457.556 303.407, 467.556 303.407, 477.556 303.407, 487.556 303.407, 497.556 303.407, 507.556 303.407, 517.556 303.407, 527.556 303.407, 537.556 303.407, 547.556 303.407, 557.556 303.407, 567.556 303.407, 577.556 303.407, 587.556 303.407, 597.556 303.407, 606.815 303.407, 606.815 313.407, 606.815 323.407, 606.815 333.407, 606.815 341.333, 606.815 " />
            <path fill="none" stroke-width="1.5" stroke-linecap="round" stroke-opacity="1.0" stroke="rgb(0, 0, 0)" stroke-linejoin="round" d=" M 379.259, 227.556 379.259, 237.556 379.259, 247.556 379.259, 257.556 379.259, 267.556 379.259, 277.556 379.259, 287.556 379.259, 297.556 379.259, 307.556 379.259, 317.556 379.259, 327.556 379.259, 337.556 379.259, 347.556 379.259, 357.556 379.259, 367.556 379.259, 377.556 379.259, 387.556 379.259, 397.556 379.259, 407.556 379.259, 417.185 " />
            <path fill="none" stroke-width="1.5" stroke-linecap="round" stroke-opacity="1.0" stroke="rgb(0, 0, 0)" stroke-linejoin="round" d=" M 303.407, 606.815 313.407, 606.815 323.407, 606.815 333.407, 606.815 341.333, 606.815 " />
            <path fill="none" stroke-width="1.5" stroke-linecap="round" stroke-opacity="1.0" stroke="rgb(0, 0, 0)" stroke-linejoin="round" d=" M 720.593, 606.815 720.593, 606.815 720.593, 596.815 720.593, 586.815 720.593, 576.815 720.593, 566.815 720.593, 556.815 720.593, 546.815 720.593, 536.815 720.593, 526.815 720.593, 516.815 720.593, 506.815 720.593, 496.815 720.593, 486.815 720.593, 476.815 720.593, 466.815 720.593, 456.815 720.593, 446.815 720.593, 436.815 720.593, 426.815 720.593, 417.185 720.593, 417.185 " />
            <path fill="none" stroke-width="1.5" stroke-linecap="round" stroke-opacity="1.0" stroke="rgb(0, 0, 0)" stroke-linejoin="round" d=" M 720.593, 606.815 720.593, 596.815 720.593, 586.815 720.593, 576.815 720.593, 566.815 720.593, 556.815 720.593, 546.815 720.593, 536.815 720.593, 526.815 720.593, 516.815 720.593, 506.815 720.593, 496.815 720.593, 486.815 720.593, 476.815 720.593, 466.815 720.593, 456.815 720.593, 446.815 720.593, 436.815 720.593, 426.815 720.593, 417.185 " />
            <path fill="none" stroke-width="1.5" stroke-linecap="round" stroke-opacity="1.0" stroke="rgb(0, 0, 0)" stroke-linejoin="round" d=" M 341.333, 417.185 341.333, 427.185 341.333, 437.185 341.333, 447.185 341.333, 457.185 341.333, 467.185 341.333, 477.185 341.333, 487.185 341.333, 497.185 341.333, 507.185 341.333, 517.185 341.333, 527.185 341.333, 537.185 341.333, 547.185 341.333, 557.185 341.333, 567.185 341.333, 577.185 341.333, 587.185 341.333, 597.185 341.333, 606.815 " />
            <path fill="none" stroke-width="1.5" stroke-linecap="round" stroke-opacity="1.0" stroke="rgb(0, 0, 0)" stroke-linejoin="round" d=" M 341.333, 417.185 341.333, 417.185 " />
            <path fill="none" stroke-width="1.5" stroke-linecap="round" stroke-opacity="1.0" stroke="rgb(0, 0, 0)" stroke-linejoin="round" d=" M 379.259, 606.815 379.259, 606.815 389.259, 606.815 399.259, 606.815 409.259, 606.815 419.259, 606.815 429.259, 606.815 439.259, 606.815 449.259, 606.815 459.259, 606.815 469.259, 606.815 479.259, 606.815 489.259, 606.815 499.259, 606.815 509.259, 606.815 519.259, 606.815 529.259, 606.815 539.259, 606.815 549.259, 606.815 559.259, 606.815 569.259, 606.815 579.259, 606.815 589.259, 606.815 599.259, 606.815 609.259, 606.815 619.259, 606.815 629.259, 606.815 639.259, 606.815 649.259, 606.815 659.259, 606.815 669.259, 606.815 679.259, 606.815 689.259, 606.815 699.259, 606.815 709.259, 606.815 720.593, 606.815 " />
            <path fill="none" stroke-width="1.5" stroke-linecap="round" stroke-opacity="1.0" stroke="rgb(0, 0, 0)" stroke-linejoin="round" d=" M 341.333, 606.815 351.333, 606.815 361.333, 606.815 371.333, 606.815 379.259, 606.815 " />
            <path fill="none" stroke-width="1.5" stroke-linecap="round" stroke-opacity="1.0" stroke="rgb(0, 0, 0)" stroke-linejoin="round" d=" M 341.333, 606.815 341.333, 606.815 " />
            <path fill="none" stroke-width="1.5" stroke-linecap="round" stroke-opacity="1.0" stroke="rgb(0, 0, 0)" stroke-linejoin="round" d=" M 720.593, 606.815 720.593, 606.815 " />
            <path fill="none" stroke-width="1.5" stroke-linecap="round" stroke-opacity="1.0" stroke="rgb(0, 0, 0)" stroke-linejoin="round" d=" M 720.593, 417.185 720.593, 417.185 720.593, 417.185 " />
            <path fill="none" stroke-width="1.5" stroke-linecap="round" stroke-opacity="1.0" stroke="rgb(0, 0, 0)" stroke-linejoin="round" d=" M 720.593, 417.185 710.593, 417.185 700.593, 417.185 690.593, 417.185 680.593, 417.185 670.593, 417.185 660.593, 417.185 650.593, 417.185 640.593, 417.185 630.593, 417.185 620.593, 417.185 610.593, 417.185 600.593, 417.185 590.593, 417.185 580.593, 417.185 570.593, 417.185 560.593, 417.185 550.593, 417.185 540.593, 417.185 530.593, 417.185 520.593, 417.185 510.593, 417.185 500.593, 417.185 490.593, 417.185 480.593, 417.185 470.593, 417.185 460.593, 417.185 450.593, 417.185 440.593, 417.185 430.593, 417.185 420.593, 417.185 410.593, 417.185 400.593, 417.185 390.593, 417.185 379.259, 417.185 379.259, 417.185 369.259, 417.185 359.259, 417.185 349.259, 417.185 341.333, 417.185 " />
        </g>
    </g>
    <g id="ViewLayer_TechnicalLines.004" xmlns:inkscape="http://www.inkscape.org/namespaces/inkscape" inkscape:groupmode="lineset" inkscape:label="ViewLayer_TechnicalLines.004">
        <g xmlns:inkscape="http://www.inkscape.org/namespaces/inkscape" inkscape:groupmode="layer" id="strokes" inkscape:label="strokes">
            <path fill="none" stroke-width="1.5" stroke-linecap="round" stroke-opacity="1.0" stroke="rgb(0, 0, 0)" stroke-linejoin="round" d=" M 720.593, 796.444 720.593, 786.444 720.593, 776.444 720.593, 766.444 720.593, 756.444 720.593, 746.444 720.593, 736.444 720.593, 726.444 720.593, 716.444 720.593, 706.444 720.593, 696.444 720.593, 686.444 720.593, 676.444 720.593, 666.444 720.593, 656.444 720.593, 646.444 720.593, 636.444 720.593, 626.444 720.593, 616.444 720.593, 606.815 " />
            <path fill="none" stroke-width="1.5" stroke-linecap="round" stroke-opacity="1.0" stroke="rgb(0, 0, 0)" stroke-linejoin="round" d=" M 341.333, 606.815 341.333, 606.815 341.333, 616.815 341.333, 626.815 341.333, 636.815 341.333, 646.815 341.333, 656.815 341.333, 666.815 341.333, 676.815 341.333, 686.815 341.333, 696.815 341.333, 706.815 341.333, 716.815 341.333, 726.815 341.333, 736.815 341.333, 746.815 341.333, 756.815 341.333, 766.815 341.333, 776.815 341.333, 786.815 341.333, 796.444 341.333, 796.444 351.333, 796.444 361.333, 796.444 371.333, 796.444 381.333, 796.444 391.333, 796.444 401.333, 796.444 411.333, 796.444 421.333, 796.444 426.667, 796.444 426.667, 796.444 436.667, 796.444 446.667, 796.444 456.667, 796.444 464.593, 796.444 464.593, 796.444 474.593, 796.444 484.593, 796.444 494.593, 796.444 504.593, 796.444 514.593, 796.444 524.593, 796.444 534.593, 796.444 544.593, 796.444 554.593, 796.444 564.593, 796.444 574.593, 796.444 584.593, 796.444 594.593, 796.444 597.333, 796.444 597.333, 796.444 607.333, 796.444 617.333, 796.444 627.333, 796.444 635.259, 796.444 635.259, 796.444 645.259, 796.444 655.259, 796.444 665.259, 796.444 675.259, 796.444 685.259, 796.444 695.259, 796.444 705.259, 796.444 715.259, 796.444 720.593, 796.444 " />
            <path fill="none" stroke-width="1.5" stroke-linecap="round" stroke-opacity="1.0" stroke="rgb(0, 0, 0)" stroke-linejoin="round" d=" M 379.259, 417.185 379.259, 407.185 379.259, 397.185 379.259, 387.185 379.259, 377.185 379.259, 367.185 379.259, 357.185 379.259, 347.185 379.259, 337.185 379.259, 327.185 379.259, 317.185 379.259, 307.185 379.259, 297.185 379.259, 287.185 379.259, 277.185 379.259, 267.185 379.259, 257.185 379.259, 247.185 379.259, 237.185 379.259, 227.556 379.259, 227.556 369.259, 227.556 359.259, 227.556 349.259, 227.556 339.259, 227.556 329.259, 227.556 319.259, 227.556 309.259, 227.556 303.407, 227.556 303.407, 237.556 303.407, 247.556 303.407, 257.556 303.407, 267.556 303.407, 277.556 303.407, 287.556 303.407, 297.556 303.407, 307.556 303.407, 317.556 303.407, 327.556 303.407, 337.556 303.407, 347.556 303.407, 357.556 303.407, 367.556 303.407, 377.556 303.407, 387.556 303.407, 397.556 303.407, 407.556 303.407, 417.556 303.407, 427.556 303.407, 437.556 303.407, 447.556 303.407, 457.556 303.407, 467.556 303.407, 477.556 303.407, 487.556 303.407, 497.556 303.407, 507.556 303.407, 517.556 303.407, 527.556 303.407, 537.556 303.407, 547.556 303.407, 557.556 303.407, 567.556 303.407, 577.556 303.407, 587.556 303.407, 597.556 303.407, 606.815 303.407, 606.815 313.407, 606.815 323.407, 606.815 333.407, 606.815 341.333, 606.815 " />
            <path fill="none" stroke-width="1.5" stroke-linecap="round" stroke-opacity="1.0" stroke="rgb(0, 0, 0)" stroke-linejoin="round" d=" M 379.259, 227.556 379.259, 237.556 379.259, 247.556 379.259, 257.556 379.259, 267.556 379.259, 277.556 379.259, 287.556 379.259, 297.556 379.259, 307.556 379.259, 317.556 379.259, 327.556 379.259, 337.556 379.259, 347.556 379.259, 357.556 379.259, 367.556 379.259, 377.556 379.259, 387.556 379.259, 397.556 379.259, 407.556 379.259, 417.185 " />
            <path fill="none" stroke-width="1.5" stroke-linecap="round" stroke-opacity="1.0" stroke="rgb(0, 0, 0)" stroke-linejoin="round" d=" M 303.407, 606.815 313.407, 606.815 323.407, 606.815 333.407, 606.815 341.333, 606.815 " />
            <path fill="none" stroke-width="1.5" stroke-linecap="round" stroke-opacity="1.0" stroke="rgb(0, 0, 0)" stroke-linejoin="round" d=" M 720.593, 606.815 720.593, 606.815 720.593, 596.815 720.593, 586.815 720.593, 576.815 720.593, 566.815 720.593, 556.815 720.593, 546.815 720.593, 536.815 720.593, 526.815 720.593, 516.815 720.593, 506.815 720.593, 496.815 720.593, 486.815 720.593, 476.815 720.593, 466.815 720.593, 456.815 720.593, 446.815 720.593, 436.815 720.593, 426.815 720.593, 417.185 720.593, 417.185 " />
            <path fill="none" stroke-width="1.5" stroke-linecap="round" stroke-opacity="1.0" stroke="rgb(0, 0, 0)" stroke-linejoin="round" d=" M 720.593, 606.815 720.593, 596.815 720.593, 586.815 720.593, 576.815 720.593, 566.815 720.593, 556.815 720.593, 546.815 720.593, 536.815 720.593, 526.815 720.593, 516.815 720.593, 506.815 720.593, 496.815 720.593, 486.815 720.593, 476.815 720.593, 466.815 720.593, 456.815 720.593, 446.815 720.593, 436.815 720.593, 426.815 720.593, 417.185 " />
            <path fill="none" stroke-width="1.5" stroke-linecap="round" stroke-opacity="1.0" stroke="rgb(0, 0, 0)" stroke-linejoin="round" d=" M 341.333, 417.185 341.333, 427.185 341.333, 437.185 341.333, 447.185 341.333, 457.185 341.333, 467.185 341.333, 477.185 341.333, 487.185 341.333, 497.185 341.333, 507.185 341.333, 517.185 341.333, 527.185 341.333, 537.185 341.333, 547.185 341.333, 557.185 341.333, 567.185 341.333, 577.185 341.333, 587.185 341.333, 597.185 341.333, 606.815 " />
            <path fill="none" stroke-width="1.5" stroke-linecap="round" stroke-opacity="1.0" stroke="rgb(0, 0, 0)" stroke-linejoin="round" d=" M 341.333, 417.185 341.333, 417.185 " />
            <path fill="none" stroke-width="1.5" stroke-linecap="round" stroke-opacity="1.0" stroke="rgb(0, 0, 0)" stroke-linejoin="round" d=" M 379.259, 606.815 379.259, 606.815 389.259, 606.815 399.259, 606.815 409.259, 606.815 419.259, 606.815 429.259, 606.815 439.259, 606.815 449.259, 606.815 459.259, 606.815 469.259, 606.815 479.259, 606.815 489.259, 606.815 499.259, 606.815 509.259, 606.815 519.259, 606.815 529.259, 606.815 539.259, 606.815 549.259, 606.815 559.259, 606.815 569.259, 606.815 579.259, 606.815 589.259, 606.815 599.259, 606.815 609.259, 606.815 619.259, 606.815 629.259, 606.815 639.259, 606.815 649.259, 606.815 659.259, 606.815 669.259, 606.815 679.259, 606.815 689.259, 606.815 699.259, 606.815 709.259, 606.815 720.593, 606.815 " />
            <path fill="none" stroke-width="1.5" stroke-linecap="round" stroke-opacity="1.0" stroke="rgb(0, 0, 0)" stroke-linejoin="round" d=" M 341.333, 606.815 351.333, 606.815 361.333, 606.815 371.333, 606.815 379.259, 606.815 " />
            <path fill="none" stroke-width="1.5" stroke-linecap="round" stroke-opacity="1.0" stroke="rgb(0, 0, 0)" stroke-linejoin="round" d=" M 341.333, 606.815 341.333, 606.815 " />
            <path fill="none" stroke-width="1.5" stroke-linecap="round" stroke-opacity="1.0" stroke="rgb(0, 0, 0)" stroke-linejoin="round" d=" M 720.593, 606.815 720.593, 606.815 " />
            <path fill="none" stroke-width="1.5" stroke-linecap="round" stroke-opacity="1.0" stroke="rgb(0, 0, 0)" stroke-linejoin="round" d=" M 720.593, 417.185 720.593, 417.185 720.593, 417.185 " />
            <path fill="none" stroke-width="1.5" stroke-linecap="round" stroke-opacity="1.0" stroke="rgb(0, 0, 0)" stroke-linejoin="round" d=" M 720.593, 417.185 710.593, 417.185 700.593, 417.185 690.593, 417.185 680.593, 417.185 670.593, 417.185 660.593, 417.185 650.593, 417.185 640.593, 417.185 630.593, 417.185 620.593, 417.185 610.593, 417.185 600.593, 417.185 590.593, 417.185 580.593, 417.185 570.593, 417.185 560.593, 417.185 550.593, 417.185 540.593, 417.185 530.593, 417.185 520.593, 417.185 510.593, 417.185 500.593, 417.185 490.593, 417.185 480.593, 417.185 470.593, 417.185 460.593, 417.185 450.593, 417.185 440.593, 417.185 430.593, 417.185 420.593, 417.185 410.593, 417.185 400.593, 417.185 390.593, 417.185 379.259, 417.185 379.259, 417.185 369.259, 417.185 359.259, 417.185 349.259, 417.185 341.333, 417.185 " />
        </g>
    </g>
</svg>
