<?xml version='1.0' encoding='ascii'?>
<svg xmlns="http://www.w3.org/2000/svg" xmlns:inkscape="http://www.inkscape.org/namespaces/inkscape" version="1.1" width="1024" height="1024">
    <g id="ViewLayer_LineSet" inkscape:groupmode="lineset" inkscape:label="ViewLayer_LineSet">
        <g inkscape:groupmode="layer" id="strokes" inkscape:label="strokes">
            <path fill="none" stroke-width="3.0" stroke-linecap="butt" stroke-opacity="1.0" stroke="rgb(0, 0, 0)" stroke-linejoin="round" d=" M 492.606, 796.444 492.606, 786.444 492.606, 776.444 492.606, 766.444 492.606, 756.444 492.606, 746.444 492.606, 736.444 492.606, 726.444 492.606, 716.444 492.606, 706.444 492.606, 696.444 492.606, 686.444 492.606, 676.444 492.606, 666.444 492.606, 656.444 492.606, 646.444 492.606, 636.444 492.606, 626.444 492.606, 615.434 " />
            <path fill="none" stroke-width="3.0" stroke-linecap="butt" stroke-opacity="1.0" stroke="rgb(0, 0, 0)" stroke-linejoin="round" d=" M 466.748, 615.434 466.748, 625.434 466.748, 635.434 466.748, 645.434 466.748, 655.434 466.748, 665.434 466.748, 675.434 466.748, 685.434 466.748, 695.434 466.748, 705.434 466.748, 715.434 466.748, 725.434 466.748, 735.434 466.748, 745.434 466.748, 755.434 466.748, 765.434 466.748, 775.434 466.748, 785.434 466.748, 796.444 466.996, 796.444 467.732, 796.444 468.927, 796.444 470.534, 796.444 472.494, 796.444 474.729, 796.444 477.154, 796.444 479.677, 796.444 482.199, 796.444 484.625, 796.444 486.860, 796.444 488.819, 796.444 490.427, 796.444 491.622, 796.444 492.358, 796.444 492.606, 796.444 492.606, 786.444 492.606, 776.444 492.606, 766.444 492.606, 756.444 492.606, 746.444 492.606, 736.444 492.606, 726.444 492.606, 716.444 492.606, 706.444 492.606, 696.444 492.606, 686.444 492.606, 676.444 492.606, 666.444 492.606, 656.444 492.606, 646.444 492.606, 636.444 492.606, 626.444 492.606, 615.434 " />
            <path fill="none" stroke-width="3.0" stroke-linecap="butt" stroke-opacity="1.0" stroke="rgb(0, 0, 0)" stroke-linejoin="round" d=" M 596.040, 615.434 596.040, 625.434 596.040, 635.434 596.040, 645.434 596.040, 655.434 596.040, 665.434 596.040, 675.434 596.040, 685.434 596.040, 695.434 596.040, 705.434 596.040, 715.434 596.040, 725.434 596.040, 735.434 596.040, 745.434 596.040, 755.434 596.040, 765.434 596.040, 775.434 596.040, 785.434 596.040, 796.444 596.289, 796.444 597.025, 796.444 598.219, 796.444 599.827, 796.444 601.787, 796.444 604.022, 796.444 606.447, 796.444 608.970, 796.444 611.492, 796.444 613.918, 796.444 616.153, 796.444 618.112, 796.444 619.720, 796.444 620.915, 796.444 621.651, 796.444 621.899, 796.444 621.899, 786.444 621.899, 776.444 621.899, 766.444 621.899, 756.444 621.899, 746.444 621.899, 736.444 621.899, 726.444 621.899, 716.444 621.899, 706.444 621.899, 696.444 621.899, 686.444 621.899, 676.444 621.899, 666.444 621.899, 656.444 621.899, 646.444 621.899, 636.444 621.899, 626.444 621.899, 616.444 621.899, 606.444 621.899, 596.444 621.899, 586.444 621.899, 576.444 621.899, 566.444 621.899, 556.444 621.899, 546.444 621.899, 537.859 " />
            <path fill="none" stroke-width="3.0" stroke-linecap="butt" stroke-opacity="1.0" stroke="rgb(0, 0, 0)" stroke-linejoin="round" d=" M 596.040, 615.434 606.040, 615.434 616.040, 615.434 621.899, 615.434 621.899, 605.434 621.899, 595.434 621.899, 585.434 621.899, 575.434 621.899, 565.434 621.899, 555.434 621.899, 545.434 621.899, 535.434 621.899, 525.434 621.899, 515.434 621.899, 505.434 621.899, 495.434 621.899, 485.434 621.899, 475.434 621.899, 465.434 621.899, 460.283 611.899, 460.283 601.899, 460.283 591.899, 460.283 581.899, 460.283 571.899, 460.283 561.899, 460.283 557.253, 460.283 " />
            <path fill="none" stroke-width="3.0" stroke-linecap="butt" stroke-opacity="1.0" stroke="rgb(0, 0, 0)" stroke-linejoin="round" d=" M 557.253, 460.283 547.253, 460.283 537.253, 460.283 527.253, 460.283 517.253, 460.283 507.253, 460.283 497.253, 460.283 487.253, 460.283 477.253, 460.283 466.748, 460.283 466.748, 460.283 " />
            <path fill="none" stroke-width="3.0" stroke-linecap="butt" stroke-opacity="1.0" stroke="rgb(0, 0, 0)" stroke-linejoin="round" d=" M 466.748, 460.283 476.748, 460.283 486.748, 460.283 496.748, 460.283 506.748, 460.283 516.747, 460.283 526.747, 460.283 536.747, 460.283 546.747, 460.283 557.253, 460.283 557.253, 460.283 " />
            <path fill="none" stroke-width="3.0" stroke-linecap="butt" stroke-opacity="1.0" stroke="rgb(0, 0, 0)" stroke-linejoin="round" d=" M 557.253, 227.556 547.253, 227.556 537.253, 227.556 527.253, 227.556 517.253, 227.556 507.253, 227.556 497.253, 227.556 487.253, 227.556 477.253, 227.556 467.253, 227.556 457.253, 227.556 447.253, 227.556 437.253, 227.556 427.253, 227.556 417.253, 227.556 407.253, 227.556 402.101, 227.556 402.101, 237.556 402.101, 247.556 402.101, 257.556 402.101, 267.556 402.101, 277.556 402.101, 287.556 402.101, 297.556 402.101, 307.556 402.101, 317.556 402.101, 327.556 402.101, 337.556 402.101, 347.556 402.101, 357.556 402.101, 367.556 402.101, 377.556 402.101, 387.556 402.101, 397.556 402.101, 407.556 402.101, 417.556 402.101, 427.556 402.101, 437.556 402.101, 447.556 402.101, 457.556 402.101, 460.283 412.101, 460.283 422.101, 460.283 432.101, 460.283 442.101, 460.283 452.101, 460.283 462.101, 460.283 466.748, 460.283 " />
            <path fill="none" stroke-width="3.0" stroke-linecap="butt" stroke-opacity="1.0" stroke="rgb(0, 0, 0)" stroke-linejoin="round" d=" M 466.748, 460.283 466.748, 470.283 466.748, 480.283 466.748, 490.283 466.748, 500.283 466.748, 510.283 466.748, 520.283 466.748, 530.283 466.748, 540.283 466.748, 550.283 466.748, 560.283 466.748, 570.283 466.748, 580.283 466.748, 590.283 466.748, 600.283 466.748, 610.283 466.748, 615.434 " />
            <path fill="none" stroke-width="3.0" stroke-linecap="butt" stroke-opacity="1.0" stroke="rgb(0, 0, 0)" stroke-linejoin="round" d=" M 557.253, 460.283 557.253, 450.283 557.253, 440.283 557.253, 430.283 557.253, 420.283 557.253, 410.283 557.253, 400.283 557.253, 390.283 557.253, 380.283 557.253, 370.283 557.253, 360.283 557.253, 350.283 557.253, 340.283 557.253, 330.283 557.253, 320.283 557.253, 310.283 557.253, 300.283 557.253, 290.283 557.253, 280.283 557.253, 270.283 557.253, 260.283 557.253, 250.283 557.253, 240.283 557.253, 230.283 557.253, 227.556 " />
            <path fill="none" stroke-width="3.0" stroke-linecap="butt" stroke-opacity="1.0" stroke="rgb(0, 0, 0)" stroke-linejoin="round" d=" M 466.748, 615.434 466.748, 615.434 466.748, 615.434 476.748, 615.434 486.748, 615.434 492.606, 615.434 492.606, 615.434 502.606, 615.434 512.606, 615.434 522.606, 615.434 532.606, 615.434 542.606, 615.434 552.606, 615.434 562.606, 615.434 572.606, 615.434 582.606, 615.434 592.606, 615.434 596.040, 615.434 " />
        </g>
    </g>
    <g id="ViewLayer_TechnicalLines" inkscape:groupmode="lineset" inkscape:label="ViewLayer_TechnicalLines">
        <g inkscape:groupmode="layer" id="strokes" inkscape:label="strokes">
            <path fill="none" stroke-width="3.0" stroke-linecap="butt" stroke-opacity="1.0" stroke="rgb(0, 0, 0)" stroke-linejoin="round" d=" M 492.606, 796.444 492.606, 786.444 492.606, 776.444 492.606, 766.444 492.606, 756.444 492.606, 746.444 492.606, 736.444 492.606, 726.444 492.606, 716.444 492.606, 706.444 492.606, 696.444 492.606, 686.444 492.606, 676.444 492.606, 666.444 492.606, 656.444 492.606, 646.444 492.606, 636.444 492.606, 626.444 492.606, 615.434 " />
            <path fill="none" stroke-width="3.0" stroke-linecap="butt" stroke-opacity="1.0" stroke="rgb(0, 0, 0)" stroke-linejoin="round" d=" M 466.748, 615.434 466.748, 625.434 466.748, 635.434 466.748, 645.434 466.748, 655.434 466.748, 665.434 466.748, 675.434 466.748, 685.434 466.748, 695.434 466.748, 705.434 466.748, 715.434 466.748, 725.434 466.748, 735.434 466.748, 745.434 466.748, 755.434 466.748, 765.434 466.748, 775.434 466.748, 785.434 466.748, 796.444 466.996, 796.444 467.732, 796.444 468.927, 796.444 470.534, 796.444 472.494, 796.444 474.729, 796.444 477.154, 796.444 479.677, 796.444 482.199, 796.444 484.625, 796.444 486.860, 796.444 488.819, 796.444 490.427, 796.444 491.622, 796.444 492.358, 796.444 492.606, 796.444 492.606, 786.444 492.606, 776.444 492.606, 766.444 492.606, 756.444 492.606, 746.444 492.606, 736.444 492.606, 726.444 492.606, 716.444 492.606, 706.444 492.606, 696.444 492.606, 686.444 492.606, 676.444 492.606, 666.444 492.606, 656.444 492.606, 646.444 492.606, 636.444 492.606, 626.444 492.606, 615.434 " />
            <path fill="none" stroke-width="3.0" stroke-linecap="butt" stroke-opacity="1.0" stroke="rgb(0, 0, 0)" stroke-linejoin="round" d=" M 596.040, 615.434 596.040, 625.434 596.040, 635.434 596.040, 645.434 596.040, 655.434 596.040, 665.434 596.040, 675.434 596.040, 685.434 596.040, 695.434 596.040, 705.434 596.040, 715.434 596.040, 725.434 596.040, 735.434 596.040, 745.434 596.040, 755.434 596.040, 765.434 596.040, 775.434 596.040, 785.434 596.040, 796.444 596.289, 796.444 597.025, 796.444 598.219, 796.444 599.827, 796.444 601.787, 796.444 604.022, 796.444 606.447, 796.444 608.970, 796.444 611.492, 796.444 613.918, 796.444 616.153, 796.444 618.112, 796.444 619.720, 796.444 620.915, 796.444 621.651, 796.444 621.899, 796.444 621.899, 786.444 621.899, 776.444 621.899, 766.444 621.899, 756.444 621.899, 746.444 621.899, 736.444 621.899, 726.444 621.899, 716.444 621.899, 706.444 621.899, 696.444 621.899, 686.444 621.899, 676.444 621.899, 666.444 621.899, 656.444 621.899, 646.444 621.899, 636.444 621.899, 626.444 621.899, 616.444 621.899, 606.444 621.899, 596.444 621.899, 586.444 621.899, 576.444 621.899, 566.444 621.899, 556.444 621.899, 546.444 621.899, 537.859 " />
            <path fill="none" stroke-width="3.0" stroke-linecap="butt" stroke-opacity="1.0" stroke="rgb(0, 0, 0)" stroke-linejoin="round" d=" M 596.040, 615.434 606.040, 615.434 616.040, 615.434 621.899, 615.434 621.899, 605.434 621.899, 595.434 621.899, 585.434 621.899, 575.434 621.899, 565.434 621.899, 555.434 621.899, 545.434 621.899, 535.434 621.899, 525.434 621.899, 515.434 621.899, 505.434 621.899, 495.434 621.899, 485.434 621.899, 475.434 621.899, 465.434 621.899, 460.283 611.899, 460.283 601.899, 460.283 591.899, 460.283 581.899, 460.283 571.899, 460.283 561.899, 460.283 557.253, 460.283 " />
            <path fill="none" stroke-width="3.0" stroke-linecap="butt" stroke-opacity="1.0" stroke="rgb(0, 0, 0)" stroke-linejoin="round" d=" M 557.253, 460.283 547.253, 460.283 537.253, 460.283 527.253, 460.283 517.253, 460.283 507.253, 460.283 497.253, 460.283 487.253, 460.283 477.253, 460.283 466.748, 460.283 466.748, 460.283 " />
            <path fill="none" stroke-width="3.0" stroke-linecap="butt" stroke-opacity="1.0" stroke="rgb(0, 0, 0)" stroke-linejoin="round" d=" M 466.748, 460.283 476.748, 460.283 486.748, 460.283 496.748, 460.283 506.748, 460.283 516.747, 460.283 526.747, 460.283 536.747, 460.283 546.747, 460.283 557.253, 460.283 557.253, 460.283 " />
            <path fill="none" stroke-width="3.0" stroke-linecap="butt" stroke-opacity="1.0" stroke="rgb(0, 0, 0)" stroke-linejoin="round" d=" M 557.253, 227.556 547.253, 227.556 537.253, 227.556 527.253, 227.556 517.253, 227.556 507.253, 227.556 497.253, 227.556 487.253, 227.556 477.253, 227.556 467.253, 227.556 457.253, 227.556 447.253, 227.556 437.253, 227.556 427.253, 227.556 417.253, 227.556 407.253, 227.556 402.101, 227.556 402.101, 237.556 402.101, 247.556 402.101, 257.556 402.101, 267.556 402.101, 277.556 402.101, 287.556 402.101, 297.556 402.101, 307.556 402.101, 317.556 402.101, 327.556 402.101, 337.556 402.101, 347.556 402.101, 357.556 402.101, 367.556 402.101, 377.556 402.101, 387.556 402.101, 397.556 402.101, 407.556 402.101, 417.556 402.101, 427.556 402.101, 437.556 402.101, 447.556 402.101, 457.556 402.101, 460.283 412.101, 460.283 422.101, 460.283 432.101, 460.283 442.101, 460.283 452.101, 460.283 462.101, 460.283 466.748, 460.283 " />
            <path fill="none" stroke-width="3.0" stroke-linecap="butt" stroke-opacity="1.0" stroke="rgb(0, 0, 0)" stroke-linejoin="round" d=" M 466.748, 460.283 466.748, 470.283 466.748, 480.283 466.748, 490.283 466.748, 500.283 466.748, 510.283 466.748, 520.283 466.748, 530.283 466.748, 540.283 466.748, 550.283 466.748, 560.283 466.748, 570.283 466.748, 580.283 466.748, 590.283 466.748, 600.283 466.748, 610.283 466.748, 615.434 " />
            <path fill="none" stroke-width="3.0" stroke-linecap="butt" stroke-opacity="1.0" stroke="rgb(0, 0, 0)" stroke-linejoin="round" d=" M 557.253, 460.283 557.253, 450.283 557.253, 440.283 557.253, 430.283 557.253, 420.283 557.253, 410.283 557.253, 400.283 557.253, 390.283 557.253, 380.283 557.253, 370.283 557.253, 360.283 557.253, 350.283 557.253, 340.283 557.253, 330.283 557.253, 320.283 557.253, 310.283 557.253, 300.283 557.253, 290.283 557.253, 280.283 557.253, 270.283 557.253, 260.283 557.253, 250.283 557.253, 240.283 557.253, 230.283 557.253, 227.556 " />
            <path fill="none" stroke-width="3.0" stroke-linecap="butt" stroke-opacity="1.0" stroke="rgb(0, 0, 0)" stroke-linejoin="round" d=" M 466.748, 615.434 466.748, 615.434 466.748, 615.434 476.748, 615.434 486.748, 615.434 492.606, 615.434 492.606, 615.434 502.606, 615.434 512.606, 615.434 522.606, 615.434 532.606, 615.434 542.606, 615.434 552.606, 615.434 562.606, 615.434 572.606, 615.434 582.606, 615.434 592.606, 615.434 596.040, 615.434 " />
        </g>
    </g>
    <g id="ViewLayer_TechnicalLines.001" inkscape:groupmode="lineset" inkscape:label="ViewLayer_TechnicalLines.001">
        <g inkscape:groupmode="layer" id="strokes" inkscape:label="strokes">
            <path fill="none" stroke-width="1.5" stroke-linecap="round" stroke-opacity="1.0" stroke="rgb(0, 0, 0)" stroke-linejoin="round" d=" M 492.606, 796.444 492.606, 786.444 492.606, 776.444 492.606, 766.444 492.606, 756.444 492.606, 746.444 492.606, 736.444 492.606, 726.444 492.606, 716.444 492.606, 706.444 492.606, 696.444 492.606, 686.444 492.606, 676.444 492.606, 666.444 492.606, 656.444 492.606, 646.444 492.606, 636.444 492.606, 626.444 492.606, 615.434 " />
            <path fill="none" stroke-width="1.5" stroke-linecap="round" stroke-opacity="1.0" stroke="rgb(0, 0, 0)" stroke-linejoin="round" d=" M 466.748, 615.434 466.748, 625.434 466.748, 635.434 466.748, 645.434 466.748, 655.434 466.748, 665.434 466.748, 675.434 466.748, 685.434 466.748, 695.434 466.748, 705.434 466.748, 715.434 466.748, 725.434 466.748, 735.434 466.748, 745.434 466.748, 755.434 466.748, 765.434 466.748, 775.434 466.748, 785.434 466.748, 796.444 466.996, 796.444 467.732, 796.444 468.927, 796.444 470.534, 796.444 472.494, 796.444 474.729, 796.444 477.154, 796.444 479.677, 796.444 482.199, 796.444 484.625, 796.444 486.860, 796.444 488.819, 796.444 490.427, 796.444 491.622, 796.444 492.358, 796.444 492.606, 796.444 492.606, 786.444 492.606, 776.444 492.606, 766.444 492.606, 756.444 492.606, 746.444 492.606, 736.444 492.606, 726.444 492.606, 716.444 492.606, 706.444 492.606, 696.444 492.606, 686.444 492.606, 676.444 492.606, 666.444 492.606, 656.444 492.606, 646.444 492.606, 636.444 492.606, 626.444 492.606, 615.434 " />
            <path fill="none" stroke-width="1.5" stroke-linecap="round" stroke-opacity="1.0" stroke="rgb(0, 0, 0)" stroke-linejoin="round" d=" M 596.040, 615.434 596.040, 625.434 596.040, 635.434 596.040, 645.434 596.040, 655.434 596.040, 665.434 596.040, 675.434 596.040, 685.434 596.040, 695.434 596.040, 705.434 596.040, 715.434 596.040, 725.434 596.040, 735.434 596.040, 745.434 596.040, 755.434 596.040, 765.434 596.040, 775.434 596.040, 785.434 596.040, 796.444 596.289, 796.444 597.025, 796.444 598.219, 796.444 599.827, 796.444 601.787, 796.444 604.022, 796.444 606.447, 796.444 608.970, 796.444 611.492, 796.444 613.918, 796.444 616.153, 796.444 618.112, 796.444 619.720, 796.444 620.915, 796.444 621.651, 796.444 621.899, 796.444 621.899, 786.444 621.899, 776.444 621.899, 766.444 621.899, 756.444 621.899, 746.444 621.899, 736.444 621.899, 726.444 621.899, 716.444 621.899, 706.444 621.899, 696.444 621.899, 686.444 621.899, 676.444 621.899, 666.444 621.899, 656.444 621.899, 646.444 621.899, 636.444 621.899, 626.444 621.899, 616.444 621.899, 606.444 621.899, 596.444 621.899, 586.444 621.899, 576.444 621.899, 566.444 621.899, 556.444 621.899, 546.444 621.899, 537.859 " />
            <path fill="none" stroke-width="1.5" stroke-linecap="round" stroke-opacity="1.0" stroke="rgb(0, 0, 0)" stroke-linejoin="round" d=" M 596.040, 615.434 606.040, 615.434 616.040, 615.434 621.899, 615.434 621.899, 605.434 621.899, 595.434 621.899, 585.434 621.899, 575.434 621.899, 565.434 621.899, 555.434 621.899, 545.434 621.899, 535.434 621.899, 525.434 621.899, 515.434 621.899, 505.434 621.899, 495.434 621.899, 485.434 621.899, 475.434 621.899, 465.434 621.899, 460.283 611.899, 460.283 601.899, 460.283 591.899, 460.283 581.899, 460.283 571.899, 460.283 561.899, 460.283 557.253, 460.283 " />
            <path fill="none" stroke-width="1.5" stroke-linecap="round" stroke-opacity="1.0" stroke="rgb(0, 0, 0)" stroke-linejoin="round" d=" M 557.253, 460.283 547.253, 460.283 537.253, 460.283 527.253, 460.283 517.253, 460.283 507.253, 460.283 497.253, 460.283 487.253, 460.283 477.253, 460.283 466.748, 460.283 466.748, 460.283 " />
            <path fill="none" stroke-width="1.5" stroke-linecap="round" stroke-opacity="1.0" stroke="rgb(0, 0, 0)" stroke-linejoin="round" d=" M 466.748, 460.283 476.748, 460.283 486.748, 460.283 496.748, 460.283 506.748, 460.283 516.747, 460.283 526.747, 460.283 536.747, 460.283 546.747, 460.283 557.253, 460.283 557.253, 460.283 " />
            <path fill="none" stroke-width="1.5" stroke-linecap="round" stroke-opacity="1.0" stroke="rgb(0, 0, 0)" stroke-linejoin="round" d=" M 557.253, 227.556 547.253, 227.556 537.253, 227.556 527.253, 227.556 517.253, 227.556 507.253, 227.556 497.253, 227.556 487.253, 227.556 477.253, 227.556 467.253, 227.556 457.253, 227.556 447.253, 227.556 437.253, 227.556 427.253, 227.556 417.253, 227.556 407.253, 227.556 402.101, 227.556 402.101, 237.556 402.101, 247.556 402.101, 257.556 402.101, 267.556 402.101, 277.556 402.101, 287.556 402.101, 297.556 402.101, 307.556 402.101, 317.556 402.101, 327.556 402.101, 337.556 402.101, 347.556 402.101, 357.556 402.101, 367.556 402.101, 377.556 402.101, 387.556 402.101, 397.556 402.101, 407.556 402.101, 417.556 402.101, 427.556 402.101, 437.556 402.101, 447.556 402.101, 457.556 402.101, 460.283 412.101, 460.283 422.101, 460.283 432.101, 460.283 442.101, 460.283 452.101, 460.283 462.101, 460.283 466.748, 460.283 " />
            <path fill="none" stroke-width="1.5" stroke-linecap="round" stroke-opacity="1.0" stroke="rgb(0, 0, 0)" stroke-linejoin="round" d=" M 466.748, 460.283 466.748, 470.283 466.748, 480.283 466.748, 490.283 466.748, 500.283 466.748, 510.283 466.748, 520.283 466.748, 530.283 466.748, 540.283 466.748, 550.283 466.748, 560.283 466.748, 570.283 466.748, 580.283 466.748, 590.283 466.748, 600.283 466.748, 610.283 466.748, 615.434 " />
            <path fill="none" stroke-width="1.5" stroke-linecap="round" stroke-opacity="1.0" stroke="rgb(0, 0, 0)" stroke-linejoin="round" d=" M 557.253, 460.283 557.253, 450.283 557.253, 440.283 557.253, 430.283 557.253, 420.283 557.253, 410.283 557.253, 400.283 557.253, 390.283 557.253, 380.283 557.253, 370.283 557.253, 360.283 557.253, 350.283 557.253, 340.283 557.253, 330.283 557.253, 320.283 557.253, 310.283 557.253, 300.283 557.253, 290.283 557.253, 280.283 557.253, 270.283 557.253, 260.283 557.253, 250.283 557.253, 240.283 557.253, 230.283 557.253, 227.556 " />
            <path fill="none" stroke-width="1.5" stroke-linecap="round" stroke-opacity="1.0" stroke="rgb(0, 0, 0)" stroke-linejoin="round" d=" M 466.748, 615.434 466.748, 615.434 466.748, 615.434 476.748, 615.434 486.748, 615.434 492.606, 615.434 492.606, 615.434 502.606, 615.434 512.606, 615.434 522.606, 615.434 532.606, 615.434 542.606, 615.434 552.606, 615.434 562.606, 615.434 572.606, 615.434 582.606, 615.434 592.606, 615.434 596.040, 615.434 " />
        </g>
    </g>
    <g id="ViewLayer_TechnicalLines.002" inkscape:groupmode="lineset" inkscape:label="ViewLayer_TechnicalLines.002">
        <g inkscape:groupmode="layer" id="strokes" inkscape:label="strokes">
            <path fill="none" stroke-width="1.5" stroke-linecap="round" stroke-opacity="1.0" stroke="rgb(0, 0, 0)" stroke-linejoin="round" d=" M 492.606, 796.444 492.606, 786.444 492.606, 776.444 492.606, 766.444 492.606, 756.444 492.606, 746.444 492.606, 736.444 492.606, 726.444 492.606, 716.444 492.606, 706.444 492.606, 696.444 492.606, 686.444 492.606, 676.444 492.606, 666.444 492.606, 656.444 492.606, 646.444 492.606, 636.444 492.606, 626.444 492.606, 615.434 " />
            <path fill="none" stroke-width="1.5" stroke-linecap="round" stroke-opacity="1.0" stroke="rgb(0, 0, 0)" stroke-linejoin="round" d=" M 466.748, 615.434 466.748, 625.434 466.748, 635.434 466.748, 645.434 466.748, 655.434 466.748, 665.434 466.748, 675.434 466.748, 685.434 466.748, 695.434 466.748, 705.434 466.748, 715.434 466.748, 725.434 466.748, 735.434 466.748, 745.434 466.748, 755.434 466.748, 765.434 466.748, 775.434 466.748, 785.434 466.748, 796.444 466.996, 796.444 467.732, 796.444 468.927, 796.444 470.534, 796.444 472.494, 796.444 474.729, 796.444 477.154, 796.444 479.677, 796.444 482.199, 796.444 484.625, 796.444 486.860, 796.444 488.819, 796.444 490.427, 796.444 491.622, 796.444 492.358, 796.444 492.606, 796.444 492.606, 786.444 492.606, 776.444 492.606, 766.444 492.606, 756.444 492.606, 746.444 492.606, 736.444 492.606, 726.444 492.606, 716.444 492.606, 706.444 492.606, 696.444 492.606, 686.444 492.606, 676.444 492.606, 666.444 492.606, 656.444 492.606, 646.444 492.606, 636.444 492.606, 626.444 492.606, 615.434 " />
            <path fill="none" stroke-width="1.5" stroke-linecap="round" stroke-opacity="1.0" stroke="rgb(0, 0, 0)" stroke-linejoin="round" d=" M 596.040, 615.434 596.040, 625.434 596.040, 635.434 596.040, 645.434 596.040, 655.434 596.040, 665.434 596.040, 675.434 596.040, 685.434 596.040, 695.434 596.040, 705.434 596.040, 715.434 596.040, 725.434 596.040, 735.434 596.040, 745.434 596.040, 755.434 596.040, 765.434 596.040, 775.434 596.040, 785.434 596.040, 796.444 596.289, 796.444 597.025, 796.444 598.219, 796.444 599.827, 796.444 601.787, 796.444 604.022, 796.444 606.447, 796.444 608.970, 796.444 611.492, 796.444 613.918, 796.444 616.153, 796.444 618.112, 796.444 619.720, 796.444 620.915, 796.444 621.651, 796.444 621.899, 796.444 621.899, 786.444 621.899, 776.444 621.899, 766.444 621.899, 756.444 621.899, 746.444 621.899, 736.444 621.899, 726.444 621.899, 716.444 621.899, 706.444 621.899, 696.444 621.899, 686.444 621.899, 676.444 621.899, 666.444 621.899, 656.444 621.899, 646.444 621.899, 636.444 621.899, 626.444 621.899, 616.444 621.899, 606.444 621.899, 596.444 621.899, 586.444 621.899, 576.444 621.899, 566.444 621.899, 556.444 621.899, 546.444 621.899, 537.859 " />
            <path fill="none" stroke-width="1.5" stroke-linecap="round" stroke-opacity="1.0" stroke="rgb(0, 0, 0)" stroke-linejoin="round" d=" M 596.040, 615.434 606.040, 615.434 616.040, 615.434 621.899, 615.434 621.899, 605.434 621.899, 595.434 621.899, 585.434 621.899, 575.434 621.899, 565.434 621.899, 555.434 621.899, 545.434 621.899, 535.434 621.899, 525.434 621.899, 515.434 621.899, 505.434 621.899, 495.434 621.899, 485.434 621.899, 475.434 621.899, 465.434 621.899, 460.283 611.899, 460.283 601.899, 460.283 591.899, 460.283 581.899, 460.283 571.899, 460.283 561.899, 460.283 557.253, 460.283 " />
            <path fill="none" stroke-width="1.5" stroke-linecap="round" stroke-opacity="1.0" stroke="rgb(0, 0, 0)" stroke-linejoin="round" d=" M 557.253, 460.283 547.253, 460.283 537.253, 460.283 527.253, 460.283 517.253, 460.283 507.253, 460.283 497.253, 460.283 487.253, 460.283 477.253, 460.283 466.748, 460.283 466.748, 460.283 " />
            <path fill="none" stroke-width="1.5" stroke-linecap="round" stroke-opacity="1.0" stroke="rgb(0, 0, 0)" stroke-linejoin="round" d=" M 466.748, 460.283 476.748, 460.283 486.748, 460.283 496.748, 460.283 506.748, 460.283 516.747, 460.283 526.747, 460.283 536.747, 460.283 546.747, 460.283 557.253, 460.283 557.253, 460.283 " />
            <path fill="none" stroke-width="1.5" stroke-linecap="round" stroke-opacity="1.0" stroke="rgb(0, 0, 0)" stroke-linejoin="round" d=" M 557.253, 227.556 547.253, 227.556 537.253, 227.556 527.253, 227.556 517.253, 227.556 507.253, 227.556 497.253, 227.556 487.253, 227.556 477.253, 227.556 467.253, 227.556 457.253, 227.556 447.253, 227.556 437.253, 227.556 427.253, 227.556 417.253, 227.556 407.253, 227.556 402.101, 227.556 402.101, 237.556 402.101, 247.556 402.101, 257.556 402.101, 267.556 402.101, 277.556 402.101, 287.556 402.101, 297.556 402.101, 307.556 402.101, 317.556 402.101, 327.556 402.101, 337.556 402.101, 347.556 402.101, 357.556 402.101, 367.556 402.101, 377.556 402.101, 387.556 402.101, 397.556 402.101, 407.556 402.101, 417.556 402.101, 427.556 402.101, 437.556 402.101, 447.556 402.101, 457.556 402.101, 460.283 412.101, 460.283 422.101, 460.283 432.101, 460.283 442.101, 460.283 452.101, 460.283 462.101, 460.283 466.748, 460.283 " />
            <path fill="none" stroke-width="1.5" stroke-linecap="round" stroke-opacity="1.0" stroke="rgb(0, 0, 0)" stroke-linejoin="round" d=" M 466.748, 460.283 466.748, 470.283 466.748, 480.283 466.748, 490.283 466.748, 500.283 466.748, 510.283 466.748, 520.283 466.748, 530.283 466.748, 540.283 466.748, 550.283 466.748, 560.283 466.748, 570.283 466.748, 580.283 466.748, 590.283 466.748, 600.283 466.748, 610.283 466.748, 615.434 " />
            <path fill="none" stroke-width="1.5" stroke-linecap="round" stroke-opacity="1.0" stroke="rgb(0, 0, 0)" stroke-linejoin="round" d=" M 557.253, 460.283 557.253, 450.283 557.253, 440.283 557.253, 430.283 557.253, 420.283 557.253, 410.283 557.253, 400.283 557.253, 390.283 557.253, 380.283 557.253, 370.283 557.253, 360.283 557.253, 350.283 557.253, 340.283 557.253, 330.283 557.253, 320.283 557.253, 310.283 557.253, 300.283 557.253, 290.283 557.253, 280.283 557.253, 270.283 557.253, 260.283 557.253, 250.283 557.253, 240.283 557.253, 230.283 557.253, 227.556 " />
            <path fill="none" stroke-width="1.5" stroke-linecap="round" stroke-opacity="1.0" stroke="rgb(0, 0, 0)" stroke-linejoin="round" d=" M 466.748, 615.434 466.748, 615.434 466.748, 615.434 476.748, 615.434 486.748, 615.434 492.606, 615.434 492.606, 615.434 502.606, 615.434 512.606, 615.434 522.606, 615.434 532.606, 615.434 542.606, 615.434 552.606, 615.434 562.606, 615.434 572.606, 615.434 582.606, 615.434 592.606, 615.434 596.040, 615.434 " />
        </g>
    </g>
    <g id="ViewLayer_TechnicalLines.003" inkscape:groupmode="lineset" inkscape:label="ViewLayer_TechnicalLines.003">
        <g inkscape:groupmode="layer" id="strokes" inkscape:label="strokes">
            <path fill="none" stroke-width="1.5" stroke-linecap="round" stroke-opacity="1.0" stroke="rgb(0, 0, 0)" stroke-linejoin="round" d=" M 492.606, 796.444 492.606, 786.444 492.606, 776.444 492.606, 766.444 492.606, 756.444 492.606, 746.444 492.606, 736.444 492.606, 726.444 492.606, 716.444 492.606, 706.444 492.606, 696.444 492.606, 686.444 492.606, 676.444 492.606, 666.444 492.606, 656.444 492.606, 646.444 492.606, 636.444 492.606, 626.444 492.606, 615.434 " />
            <path fill="none" stroke-width="1.5" stroke-linecap="round" stroke-opacity="1.0" stroke="rgb(0, 0, 0)" stroke-linejoin="round" d=" M 466.748, 615.434 466.748, 625.434 466.748, 635.434 466.748, 645.434 466.748, 655.434 466.748, 665.434 466.748, 675.434 466.748, 685.434 466.748, 695.434 466.748, 705.434 466.748, 715.434 466.748, 725.434 466.748, 735.434 466.748, 745.434 466.748, 755.434 466.748, 765.434 466.748, 775.434 466.748, 785.434 466.748, 796.444 466.996, 796.444 467.732, 796.444 468.927, 796.444 470.534, 796.444 472.494, 796.444 474.729, 796.444 477.154, 796.444 479.677, 796.444 482.199, 796.444 484.625, 796.444 486.860, 796.444 488.819, 796.444 490.427, 796.444 491.622, 796.444 492.358, 796.444 492.606, 796.444 492.606, 786.444 492.606, 776.444 492.606, 766.444 492.606, 756.444 492.606, 746.444 492.606, 736.444 492.606, 726.444 492.606, 716.444 492.606, 706.444 492.606, 696.444 492.606, 686.444 492.606, 676.444 492.606, 666.444 492.606, 656.444 492.606, 646.444 492.606, 636.444 492.606, 626.444 492.606, 615.434 " />
            <path fill="none" stroke-width="1.5" stroke-linecap="round" stroke-opacity="1.0" stroke="rgb(0, 0, 0)" stroke-linejoin="round" d=" M 596.040, 615.434 596.040, 625.434 596.040, 635.434 596.040, 645.434 596.040, 655.434 596.040, 665.434 596.040, 675.434 596.040, 685.434 596.040, 695.434 596.040, 705.434 596.040, 715.434 596.040, 725.434 596.040, 735.434 596.040, 745.434 596.040, 755.434 596.040, 765.434 596.040, 775.434 596.040, 785.434 596.040, 796.444 596.289, 796.444 597.025, 796.444 598.219, 796.444 599.827, 796.444 601.787, 796.444 604.022, 796.444 606.447, 796.444 608.970, 796.444 611.492, 796.444 613.918, 796.444 616.153, 796.444 618.112, 796.444 619.720, 796.444 620.915, 796.444 621.651, 796.444 621.899, 796.444 621.899, 786.444 621.899, 776.444 621.899, 766.444 621.899, 756.444 621.899, 746.444 621.899, 736.444 621.899, 726.444 621.899, 716.444 621.899, 706.444 621.899, 696.444 621.899, 686.444 621.899, 676.444 621.899, 666.444 621.899, 656.444 621.899, 646.444 621.899, 636.444 621.899, 626.444 621.899, 616.444 621.899, 606.444 621.899, 596.444 621.899, 586.444 621.899, 576.444 621.899, 566.444 621.899, 556.444 621.899, 546.444 621.899, 537.859 " />
            <path fill="none" stroke-width="1.5" stroke-linecap="round" stroke-opacity="1.0" stroke="rgb(0, 0, 0)" stroke-linejoin="round" d=" M 596.040, 615.434 606.040, 615.434 616.040, 615.434 621.899, 615.434 621.899, 605.434 621.899, 595.434 621.899, 585.434 621.899, 575.434 621.899, 565.434 621.899, 555.434 621.899, 545.434 621.899, 535.434 621.899, 525.434 621.899, 515.434 621.899, 505.434 621.899, 495.434 621.899, 485.434 621.899, 475.434 621.899, 465.434 621.899, 460.283 611.899, 460.283 601.899, 460.283 591.899, 460.283 581.899, 460.283 571.899, 460.283 561.899, 460.283 557.253, 460.283 " />
            <path fill="none" stroke-width="1.5" stroke-linecap="round" stroke-opacity="1.0" stroke="rgb(0, 0, 0)" stroke-linejoin="round" d=" M 557.253, 460.283 547.253, 460.283 537.253, 460.283 527.253, 460.283 517.253, 460.283 507.253, 460.283 497.253, 460.283 487.253, 460.283 477.253, 460.283 466.748, 460.283 466.748, 460.283 " />
            <path fill="none" stroke-width="1.5" stroke-linecap="round" stroke-opacity="1.0" stroke="rgb(0, 0, 0)" stroke-linejoin="round" d=" M 466.748, 460.283 476.748, 460.283 486.748, 460.283 496.748, 460.283 506.748, 460.283 516.747, 460.283 526.747, 460.283 536.747, 460.283 546.747, 460.283 557.253, 460.283 557.253, 460.283 " />
            <path fill="none" stroke-width="1.5" stroke-linecap="round" stroke-opacity="1.0" stroke="rgb(0, 0, 0)" stroke-linejoin="round" d=" M 557.253, 227.556 547.253, 227.556 537.253, 227.556 527.253, 227.556 517.253, 227.556 507.253, 227.556 497.253, 227.556 487.253, 227.556 477.253, 227.556 467.253, 227.556 457.253, 227.556 447.253, 227.556 437.253, 227.556 427.253, 227.556 417.253, 227.556 407.253, 227.556 402.101, 227.556 402.101, 237.556 402.101, 247.556 402.101, 257.556 402.101, 267.556 402.101, 277.556 402.101, 287.556 402.101, 297.556 402.101, 307.556 402.101, 317.556 402.101, 327.556 402.101, 337.556 402.101, 347.556 402.101, 357.556 402.101, 367.556 402.101, 377.556 402.101, 387.556 402.101, 397.556 402.101, 407.556 402.101, 417.556 402.101, 427.556 402.101, 437.556 402.101, 447.556 402.101, 457.556 402.101, 460.283 412.101, 460.283 422.101, 460.283 432.101, 460.283 442.101, 460.283 452.101, 460.283 462.101, 460.283 466.748, 460.283 " />
            <path fill="none" stroke-width="1.5" stroke-linecap="round" stroke-opacity="1.0" stroke="rgb(0, 0, 0)" stroke-linejoin="round" d=" M 466.748, 460.283 466.748, 470.283 466.748, 480.283 466.748, 490.283 466.748, 500.283 466.748, 510.283 466.748, 520.283 466.748, 530.283 466.748, 540.283 466.748, 550.283 466.748, 560.283 466.748, 570.283 466.748, 580.283 466.748, 590.283 466.748, 600.283 466.748, 610.283 466.748, 615.434 " />
            <path fill="none" stroke-width="1.5" stroke-linecap="round" stroke-opacity="1.0" stroke="rgb(0, 0, 0)" stroke-linejoin="round" d=" M 557.253, 460.283 557.253, 450.283 557.253, 440.283 557.253, 430.283 557.253, 420.283 557.253, 410.283 557.253, 400.283 557.253, 390.283 557.253, 380.283 557.253, 370.283 557.253, 360.283 557.253, 350.283 557.253, 340.283 557.253, 330.283 557.253, 320.283 557.253, 310.283 557.253, 300.283 557.253, 290.283 557.253, 280.283 557.253, 270.283 557.253, 260.283 557.253, 250.283 557.253, 240.283 557.253, 230.283 557.253, 227.556 " />
            <path fill="none" stroke-width="1.5" stroke-linecap="round" stroke-opacity="1.0" stroke="rgb(0, 0, 0)" stroke-linejoin="round" d=" M 466.748, 615.434 466.748, 615.434 466.748, 615.434 476.748, 615.434 486.748, 615.434 492.606, 615.434 492.606, 615.434 502.606, 615.434 512.606, 615.434 522.606, 615.434 532.606, 615.434 542.606, 615.434 552.606, 615.434 562.606, 615.434 572.606, 615.434 582.606, 615.434 592.606, 615.434 596.040, 615.434 " />
        </g>
    </g>
    <g id="ViewLayer_TechnicalLines.004" xmlns:inkscape="http://www.inkscape.org/namespaces/inkscape" inkscape:groupmode="lineset" inkscape:label="ViewLayer_TechnicalLines.004">
        <g xmlns:inkscape="http://www.inkscape.org/namespaces/inkscape" inkscape:groupmode="layer" id="strokes" inkscape:label="strokes">
            <path fill="none" stroke-width="1.5" stroke-linecap="round" stroke-opacity="1.0" stroke="rgb(0, 0, 0)" stroke-linejoin="round" d=" M 492.606, 796.444 492.606, 786.444 492.606, 776.444 492.606, 766.444 492.606, 756.444 492.606, 746.444 492.606, 736.444 492.606, 726.444 492.606, 716.444 492.606, 706.444 492.606, 696.444 492.606, 686.444 492.606, 676.444 492.606, 666.444 492.606, 656.444 492.606, 646.444 492.606, 636.444 492.606, 626.444 492.606, 615.434 " />
            <path fill="none" stroke-width="1.5" stroke-linecap="round" stroke-opacity="1.0" stroke="rgb(0, 0, 0)" stroke-linejoin="round" d=" M 466.748, 615.434 466.748, 625.434 466.748, 635.434 466.748, 645.434 466.748, 655.434 466.748, 665.434 466.748, 675.434 466.748, 685.434 466.748, 695.434 466.748, 705.434 466.748, 715.434 466.748, 725.434 466.748, 735.434 466.748, 745.434 466.748, 755.434 466.748, 765.434 466.748, 775.434 466.748, 785.434 466.748, 796.444 466.996, 796.444 467.732, 796.444 468.927, 796.444 470.534, 796.444 472.494, 796.444 474.729, 796.444 477.154, 796.444 479.677, 796.444 482.199, 796.444 484.625, 796.444 486.860, 796.444 488.819, 796.444 490.427, 796.444 491.622, 796.444 492.358, 796.444 492.606, 796.444 492.606, 786.444 492.606, 776.444 492.606, 766.444 492.606, 756.444 492.606, 746.444 492.606, 736.444 492.606, 726.444 492.606, 716.444 492.606, 706.444 492.606, 696.444 492.606, 686.444 492.606, 676.444 492.606, 666.444 492.606, 656.444 492.606, 646.444 492.606, 636.444 492.606, 626.444 492.606, 615.434 " />
            <path fill="none" stroke-width="1.5" stroke-linecap="round" stroke-opacity="1.0" stroke="rgb(0, 0, 0)" stroke-linejoin="round" d=" M 596.040, 615.434 596.040, 625.434 596.040, 635.434 596.040, 645.434 596.040, 655.434 596.040, 665.434 596.040, 675.434 596.040, 685.434 596.040, 695.434 596.040, 705.434 596.040, 715.434 596.040, 725.434 596.040, 735.434 596.040, 745.434 596.040, 755.434 596.040, 765.434 596.040, 775.434 596.040, 785.434 596.040, 796.444 596.289, 796.444 597.025, 796.444 598.219, 796.444 599.827, 796.444 601.787, 796.444 604.022, 796.444 606.447, 796.444 608.970, 796.444 611.492, 796.444 613.918, 796.444 616.153, 796.444 618.112, 796.444 619.720, 796.444 620.915, 796.444 621.651, 796.444 621.899, 796.444 621.899, 786.444 621.899, 776.444 621.899, 766.444 621.899, 756.444 621.899, 746.444 621.899, 736.444 621.899, 726.444 621.899, 716.444 621.899, 706.444 621.899, 696.444 621.899, 686.444 621.899, 676.444 621.899, 666.444 621.899, 656.444 621.899, 646.444 621.899, 636.444 621.899, 626.444 621.899, 616.444 621.899, 606.444 621.899, 596.444 621.899, 586.444 621.899, 576.444 621.899, 566.444 621.899, 556.444 621.899, 546.444 621.899, 537.859 " />
            <path fill="none" stroke-width="1.5" stroke-linecap="round" stroke-opacity="1.0" stroke="rgb(0, 0, 0)" stroke-linejoin="round" d=" M 596.040, 615.434 606.040, 615.434 616.040, 615.434 621.899, 615.434 621.899, 605.434 621.899, 595.434 621.899, 585.434 621.899, 575.434 621.899, 565.434 621.899, 555.434 621.899, 545.434 621.899, 535.434 621.899, 525.434 621.899, 515.434 621.899, 505.434 621.899, 495.434 621.899, 485.434 621.899, 475.434 621.899, 465.434 621.899, 460.283 611.899, 460.283 601.899, 460.283 591.899, 460.283 581.899, 460.283 571.899, 460.283 561.899, 460.283 557.253, 460.283 " />
            <path fill="none" stroke-width="1.5" stroke-linecap="round" stroke-opacity="1.0" stroke="rgb(0, 0, 0)" stroke-linejoin="round" d=" M 557.253, 460.283 547.253, 460.283 537.253, 460.283 527.253, 460.283 517.253, 460.283 507.253, 460.283 497.253, 460.283 487.253, 460.283 477.253, 460.283 466.748, 460.283 466.748, 460.283 " />
            <path fill="none" stroke-width="1.5" stroke-linecap="round" stroke-opacity="1.0" stroke="rgb(0, 0, 0)" stroke-linejoin="round" d=" M 466.748, 460.283 476.748, 460.283 486.748, 460.283 496.748, 460.283 506.748, 460.283 516.747, 460.283 526.747, 460.283 536.747, 460.283 546.747, 460.283 557.253, 460.283 557.253, 460.283 " />
            <path fill="none" stroke-width="1.5" stroke-linecap="round" stroke-opacity="1.0" stroke="rgb(0, 0, 0)" stroke-linejoin="round" d=" M 557.253, 227.556 547.253, 227.556 537.253, 227.556 527.253, 227.556 517.253, 227.556 507.253, 227.556 497.253, 227.556 487.253, 227.556 477.253, 227.556 467.253, 227.556 457.253, 227.556 447.253, 227.556 437.253, 227.556 427.253, 227.556 417.253, 227.556 407.253, 227.556 402.101, 227.556 402.101, 237.556 402.101, 247.556 402.101, 257.556 402.101, 267.556 402.101, 277.556 402.101, 287.556 402.101, 297.556 402.101, 307.556 402.101, 317.556 402.101, 327.556 402.101, 337.556 402.101, 347.556 402.101, 357.556 402.101, 367.556 402.101, 377.556 402.101, 387.556 402.101, 397.556 402.101, 407.556 402.101, 417.556 402.101, 427.556 402.101, 437.556 402.101, 447.556 402.101, 457.556 402.101, 460.283 412.101, 460.283 422.101, 460.283 432.101, 460.283 442.101, 460.283 452.101, 460.283 462.101, 460.283 466.748, 460.283 " />
            <path fill="none" stroke-width="1.5" stroke-linecap="round" stroke-opacity="1.0" stroke="rgb(0, 0, 0)" stroke-linejoin="round" d=" M 466.748, 460.283 466.748, 470.283 466.748, 480.283 466.748, 490.283 466.748, 500.283 466.748, 510.283 466.748, 520.283 466.748, 530.283 466.748, 540.283 466.748, 550.283 466.748, 560.283 466.748, 570.283 466.748, 580.283 466.748, 590.283 466.748, 600.283 466.748, 610.283 466.748, 615.434 " />
            <path fill="none" stroke-width="1.5" stroke-linecap="round" stroke-opacity="1.0" stroke="rgb(0, 0, 0)" stroke-linejoin="round" d=" M 557.253, 460.283 557.253, 450.283 557.253, 440.283 557.253, 430.283 557.253, 420.283 557.253, 410.283 557.253, 400.283 557.253, 390.283 557.253, 380.283 557.253, 370.283 557.253, 360.283 557.253, 350.283 557.253, 340.283 557.253, 330.283 557.253, 320.283 557.253, 310.283 557.253, 300.283 557.253, 290.283 557.253, 280.283 557.253, 270.283 557.253, 260.283 557.253, 250.283 557.253, 240.283 557.253, 230.283 557.253, 227.556 " />
            <path fill="none" stroke-width="1.5" stroke-linecap="round" stroke-opacity="1.0" stroke="rgb(0, 0, 0)" stroke-linejoin="round" d=" M 466.748, 615.434 466.748, 615.434 466.748, 615.434 476.748, 615.434 486.748, 615.434 492.606, 615.434 492.606, 615.434 502.606, 615.434 512.606, 615.434 522.606, 615.434 532.606, 615.434 542.606, 615.434 552.606, 615.434 562.606, 615.434 572.606, 615.434 582.606, 615.434 592.606, 615.434 596.040, 615.434 " />
        </g>
    </g>
</svg>
