<?xml version='1.0' encoding='ascii'?>
<svg xmlns="http://www.w3.org/2000/svg" xmlns:inkscape="http://www.inkscape.org/namespaces/inkscape" version="1.1" width="1024" height="1024">
    <g id="ViewLayer_LineSet" inkscape:groupmode="lineset" inkscape:label="ViewLayer_LineSet">
        <g inkscape:groupmode="layer" id="strokes" inkscape:label="strokes">
            <path fill="none" stroke-width="3.0" stroke-linecap="butt" stroke-opacity="1.0" stroke="rgb(0, 0, 0)" stroke-linejoin="round" d=" M 796.445, 731.798 796.445, 721.798 796.445, 711.798 796.445, 701.798 796.445, 691.798 796.445, 681.798 796.445, 671.798 796.445, 661.798 796.445, 651.798 796.445, 641.798 796.445, 631.798 796.445, 628.364 796.444, 628.364 786.444, 628.364 776.444, 628.364 766.444, 628.364 756.444, 628.364 746.444, 628.364 736.444, 628.364 726.444, 628.364 716.444, 628.364 706.444, 628.364 696.444, 628.364 686.444, 628.364 676.444, 628.364 666.444, 628.364 656.444, 628.364 646.444, 628.364 636.444, 628.364 626.444, 628.364 616.444, 628.364 606.444, 628.364 596.444, 628.364 586.444, 628.364 576.444, 628.364 566.444, 628.364 556.444, 628.364 546.444, 628.364 536.444, 628.364 526.444, 628.364 516.444, 628.364 506.444, 628.364 496.444, 628.364 486.444, 628.364 476.444, 628.364 466.444, 628.364 456.444, 628.364 446.444, 628.364 436.444, 628.364 426.444, 628.364 416.444, 628.364 406.444, 628.364 396.444, 628.364 386.444, 628.364 376.444, 628.364 366.444, 628.364 356.444, 628.364 346.444, 628.364 336.444, 628.364 326.444, 628.364 316.444, 628.364 306.444, 628.364 296.444, 628.364 286.444, 628.364 279.273, 628.364 279.273, 638.364 279.273, 648.364 279.273, 658.364 279.273, 668.364 279.273, 678.364 279.273, 688.364 279.273, 698.364 279.273, 708.364 279.273, 718.364 279.273, 728.364 279.273, 731.798 279.273, 731.798 289.273, 731.798 299.273, 731.798 309.273, 731.798 319.273, 731.798 329.273, 731.798 339.273, 731.798 349.273, 731.798 359.273, 731.798 369.273, 731.798 379.273, 731.798 389.273, 731.798 399.273, 731.798 409.273, 731.798 419.273, 731.798 429.273, 731.798 439.273, 731.798 449.273, 731.798 459.273, 731.798 469.273, 731.798 479.273, 731.798 489.273, 731.798 499.273, 731.798 509.273, 731.798 519.273, 731.798 529.273, 731.798 539.273, 731.798 549.273, 731.798 559.273, 731.798 569.273, 731.798 579.273, 731.798 589.273, 731.798 599.273, 731.798 609.273, 731.798 619.273, 731.798 629.273, 731.798 639.273, 731.798 649.273, 731.798 659.273, 731.798 669.273, 731.798 679.273, 731.798 689.273, 731.798 699.273, 731.798 709.273, 731.798 719.273, 731.798 729.273, 731.798 739.273, 731.798 749.273, 731.798 759.273, 731.798 769.273, 731.798 779.273, 731.798 789.273, 731.798 796.445, 731.798 " />
            <path fill="none" stroke-width="3.0" stroke-linecap="butt" stroke-opacity="1.0" stroke="rgb(0, 0, 0)" stroke-linejoin="round" d=" M 796.444, 628.364 796.444, 638.364 796.444, 648.364 796.444, 658.364 796.444, 668.364 796.444, 678.364 796.444, 688.364 796.444, 698.364 796.444, 708.364 796.444, 718.364 796.444, 728.364 796.444, 731.798 " />
            <path fill="none" stroke-width="3.0" stroke-linecap="butt" stroke-opacity="1.0" stroke="rgb(0, 0, 0)" stroke-linejoin="round" d=" M 279.273, 731.798 289.273, 731.798 299.273, 731.798 309.273, 731.798 319.273, 731.798 329.273, 731.798 339.273, 731.798 349.273, 731.798 359.273, 731.798 369.273, 731.798 379.273, 731.798 389.273, 731.798 399.273, 731.798 409.273, 731.798 419.273, 731.798 429.273, 731.798 439.273, 731.798 449.273, 731.798 459.273, 731.798 469.273, 731.798 479.273, 731.798 489.273, 731.798 499.273, 731.798 509.273, 731.798 519.273, 731.798 529.273, 731.798 539.273, 731.798 549.273, 731.798 559.273, 731.798 569.273, 731.798 579.273, 731.798 589.273, 731.798 599.273, 731.798 609.273, 731.798 619.273, 731.798 629.273, 731.798 639.273, 731.798 649.273, 731.798 659.273, 731.798 669.273, 731.798 679.273, 731.798 689.273, 731.798 699.273, 731.798 709.273, 731.798 719.273, 731.798 729.273, 731.798 739.273, 731.798 749.273, 731.798 759.273, 731.798 769.273, 731.798 779.273, 731.798 789.273, 731.798 796.444, 731.798 796.445, 731.798 " />
            <path fill="none" stroke-width="3.0" stroke-linecap="butt" stroke-opacity="1.0" stroke="rgb(0, 0, 0)" stroke-linejoin="round" d=" M 330.990, 499.071 330.990, 489.071 330.990, 479.071 330.990, 469.071 330.990, 459.071 330.990, 449.071 330.990, 439.071 330.990, 429.071 330.990, 419.071 330.990, 409.071 330.990, 399.071 330.990, 389.071 330.990, 379.071 330.990, 369.071 330.990, 359.071 330.990, 349.071 330.990, 339.071 330.990, 329.071 330.990, 319.071 330.990, 309.071 330.990, 299.071 330.990, 292.202 330.990, 292.202 320.990, 292.202 310.990, 292.202 300.990, 292.202 290.990, 292.202 280.990, 292.202 270.990, 292.202 260.990, 292.202 250.990, 292.202 240.990, 292.202 230.990, 292.202 227.556, 292.202 227.556, 302.202 227.556, 312.202 227.556, 322.202 227.556, 332.202 227.556, 342.202 227.556, 352.202 227.556, 362.202 227.556, 372.202 227.556, 382.202 227.556, 392.202 227.556, 402.202 227.556, 412.202 227.556, 422.202 227.556, 432.202 227.556, 442.202 227.556, 452.202 227.556, 462.202 227.556, 472.202 227.556, 482.202 227.556, 492.202 227.556, 502.202 227.556, 512.202 227.556, 522.202 227.556, 532.202 227.556, 542.202 227.556, 550.788 227.556, 550.788 237.556, 550.788 247.556, 550.788 257.556, 550.788 267.556, 550.788 277.556, 550.788 279.273, 550.788 " />
            <path fill="none" stroke-width="3.0" stroke-linecap="butt" stroke-opacity="1.0" stroke="rgb(0, 0, 0)" stroke-linejoin="round" d=" M 330.990, 292.202 330.990, 302.202 330.990, 312.202 330.990, 322.202 330.990, 332.202 330.990, 342.202 330.990, 352.202 330.990, 362.202 330.990, 372.202 330.990, 382.202 330.990, 392.202 330.990, 402.202 330.990, 412.202 330.990, 422.202 330.990, 432.202 330.990, 442.202 330.990, 452.202 330.990, 462.202 330.990, 472.202 330.990, 482.202 330.990, 492.202 330.990, 499.071 " />
            <path fill="none" stroke-width="3.0" stroke-linecap="butt" stroke-opacity="1.0" stroke="rgb(0, 0, 0)" stroke-linejoin="round" d=" M 227.556, 550.788 237.556, 550.788 247.556, 550.788 257.556, 550.788 267.556, 550.788 277.556, 550.788 279.273, 550.788 " />
            <path fill="none" stroke-width="3.0" stroke-linecap="butt" stroke-opacity="1.0" stroke="rgb(0, 0, 0)" stroke-linejoin="round" d=" M 796.445, 602.505 796.445, 592.505 796.445, 582.505 796.445, 572.505 796.445, 562.505 796.445, 552.505 796.445, 542.505 796.445, 532.505 796.445, 522.505 796.445, 512.505 796.445, 502.505 796.445, 499.071 " />
            <path fill="none" stroke-width="3.0" stroke-linecap="butt" stroke-opacity="1.0" stroke="rgb(0, 0, 0)" stroke-linejoin="round" d=" M 796.444, 602.505 796.444, 592.505 796.444, 582.505 796.444, 572.505 796.444, 562.505 796.444, 552.505 796.444, 542.505 796.444, 532.505 796.444, 522.505 796.444, 512.505 796.444, 502.505 796.444, 499.071 " />
            <path fill="none" stroke-width="3.0" stroke-linecap="butt" stroke-opacity="1.0" stroke="rgb(0, 0, 0)" stroke-linejoin="round" d=" M 305.131, 602.505 315.131, 602.505 325.131, 602.505 335.131, 602.505 345.131, 602.505 355.131, 602.505 365.131, 602.505 375.131, 602.505 385.131, 602.505 395.131, 602.505 405.131, 602.505 415.131, 602.505 425.131, 602.505 435.131, 602.505 445.131, 602.505 455.131, 602.505 465.131, 602.505 475.131, 602.505 485.131, 602.505 495.131, 602.505 505.131, 602.505 515.131, 602.505 525.131, 602.505 535.131, 602.505 545.131, 602.505 555.131, 602.505 565.131, 602.505 575.131, 602.505 585.131, 602.505 595.131, 602.505 605.131, 602.505 615.131, 602.505 625.131, 602.505 635.131, 602.505 645.131, 602.505 655.131, 602.505 665.131, 602.505 675.131, 602.505 685.131, 602.505 695.131, 602.505 705.131, 602.505 715.131, 602.505 725.131, 602.505 735.131, 602.505 745.131, 602.505 755.131, 602.505 765.131, 602.505 770.586, 602.505 " />
            <path fill="none" stroke-width="3.0" stroke-linecap="butt" stroke-opacity="1.0" stroke="rgb(0, 0, 0)" stroke-linejoin="round" d=" M 770.586, 602.505 770.586, 602.505 " />
            <path fill="none" stroke-width="3.0" stroke-linecap="butt" stroke-opacity="1.0" stroke="rgb(0, 0, 0)" stroke-linejoin="round" d=" M 305.131, 602.505 315.131, 602.505 325.131, 602.505 335.131, 602.505 345.131, 602.505 355.131, 602.505 365.131, 602.505 375.131, 602.505 385.131, 602.505 395.131, 602.505 405.131, 602.505 415.131, 602.505 425.131, 602.505 435.131, 602.505 445.131, 602.505 455.131, 602.505 465.131, 602.505 475.131, 602.505 485.131, 602.505 495.131, 602.505 505.131, 602.505 515.131, 602.505 525.131, 602.505 535.131, 602.505 545.131, 602.505 555.131, 602.505 565.131, 602.505 575.131, 602.505 585.131, 602.505 595.131, 602.505 605.131, 602.505 615.131, 602.505 625.131, 602.505 635.131, 602.505 645.131, 602.505 655.131, 602.505 665.131, 602.505 675.131, 602.505 685.131, 602.505 695.131, 602.505 705.131, 602.505 715.131, 602.505 725.131, 602.505 735.131, 602.505 745.131, 602.505 755.131, 602.505 765.131, 602.505 770.586, 602.505 770.586, 602.505 " />
            <path fill="none" stroke-width="3.0" stroke-linecap="butt" stroke-opacity="1.0" stroke="rgb(0, 0, 0)" stroke-linejoin="round" d=" M 305.131, 602.505 305.131, 602.505 305.131, 602.505 " />
            <path fill="none" stroke-width="3.0" stroke-linecap="butt" stroke-opacity="1.0" stroke="rgb(0, 0, 0)" stroke-linejoin="round" d=" M 279.273, 499.071 279.273, 509.071 279.273, 519.071 279.273, 529.071 279.273, 539.071 279.273, 549.071 279.273, 550.788 279.273, 550.788 279.273, 560.788 279.273, 570.788 279.273, 580.788 279.273, 590.788 279.273, 600.788 279.273, 602.505 " />
            <path fill="none" stroke-width="3.0" stroke-linecap="butt" stroke-opacity="1.0" stroke="rgb(0, 0, 0)" stroke-linejoin="round" d=" M 279.273, 602.505 279.273, 602.505 " />
            <path fill="none" stroke-width="3.0" stroke-linecap="butt" stroke-opacity="1.0" stroke="rgb(0, 0, 0)" stroke-linejoin="round" d=" M 305.131, 602.505 305.131, 602.505 " />
            <path fill="none" stroke-width="3.0" stroke-linecap="butt" stroke-opacity="1.0" stroke="rgb(0, 0, 0)" stroke-linejoin="round" d=" M 770.586, 602.505 770.586, 602.505 " />
            <path fill="none" stroke-width="3.0" stroke-linecap="butt" stroke-opacity="1.0" stroke="rgb(0, 0, 0)" stroke-linejoin="round" d=" M 279.273, 602.505 289.273, 602.505 299.273, 602.505 305.131, 602.505 305.131, 602.505 315.131, 602.505 325.131, 602.505 335.131, 602.505 345.131, 602.505 355.131, 602.505 365.131, 602.505 375.131, 602.505 385.131, 602.505 395.131, 602.505 405.131, 602.505 415.131, 602.505 425.131, 602.505 435.131, 602.505 445.131, 602.505 455.131, 602.505 465.131, 602.505 475.131, 602.505 485.131, 602.505 495.131, 602.505 505.131, 602.505 515.131, 602.505 525.131, 602.505 535.131, 602.505 545.131, 602.505 555.131, 602.505 565.131, 602.505 575.131, 602.505 585.131, 602.505 595.131, 602.505 605.131, 602.505 615.131, 602.505 625.131, 602.505 635.131, 602.505 645.131, 602.505 655.131, 602.505 665.131, 602.505 675.131, 602.505 685.131, 602.505 695.131, 602.505 705.131, 602.505 715.131, 602.505 725.131, 602.505 735.131, 602.505 745.131, 602.505 755.131, 602.505 765.131, 602.505 770.586, 602.505 770.586, 602.505 780.586, 602.505 790.586, 602.505 796.444, 602.505 " />
            <path fill="none" stroke-width="3.0" stroke-linecap="butt" stroke-opacity="1.0" stroke="rgb(0, 0, 0)" stroke-linejoin="round" d=" M 279.273, 602.505 279.273, 602.505 " />
            <path fill="none" stroke-width="3.0" stroke-linecap="butt" stroke-opacity="1.0" stroke="rgb(0, 0, 0)" stroke-linejoin="round" d=" M 796.444, 499.071 796.444, 499.071 " />
            <path fill="none" stroke-width="3.0" stroke-linecap="butt" stroke-opacity="1.0" stroke="rgb(0, 0, 0)" stroke-linejoin="round" d=" M 796.444, 499.071 786.444, 499.071 776.444, 499.071 766.444, 499.071 756.444, 499.071 746.444, 499.071 736.444, 499.071 726.444, 499.071 716.444, 499.071 706.444, 499.071 696.444, 499.071 686.444, 499.071 676.444, 499.071 666.444, 499.071 656.444, 499.071 646.444, 499.071 636.444, 499.071 626.444, 499.071 616.444, 499.071 606.444, 499.071 596.444, 499.071 586.444, 499.071 576.444, 499.071 566.444, 499.071 556.444, 499.071 546.444, 499.071 536.444, 499.071 526.444, 499.071 516.444, 499.071 506.444, 499.071 496.444, 499.071 486.444, 499.071 476.444, 499.071 466.444, 499.071 456.444, 499.071 446.444, 499.071 436.444, 499.071 426.444, 499.071 416.444, 499.071 406.444, 499.071 396.444, 499.071 386.444, 499.071 376.444, 499.071 366.444, 499.071 356.444, 499.071 346.444, 499.071 336.444, 499.071 330.990, 499.071 330.990, 499.071 320.990, 499.071 310.990, 499.071 300.990, 499.071 290.990, 499.071 280.990, 499.071 279.273, 499.071 " />
            <path fill="none" stroke-width="3.0" stroke-linecap="butt" stroke-opacity="1.0" stroke="rgb(0, 0, 0)" stroke-linejoin="round" d=" M 770.586, 602.505 780.586, 602.505 790.586, 602.505 796.445, 602.505 " />
            <path fill="none" stroke-width="3.0" stroke-linecap="butt" stroke-opacity="1.0" stroke="rgb(0, 0, 0)" stroke-linejoin="round" d=" M 305.131, 602.505 315.131, 602.505 325.131, 602.505 335.131, 602.505 345.131, 602.505 355.131, 602.505 365.131, 602.505 375.131, 602.505 385.131, 602.505 395.131, 602.505 405.131, 602.505 415.131, 602.505 425.131, 602.505 435.131, 602.505 445.131, 602.505 455.131, 602.505 465.131, 602.505 475.131, 602.505 485.131, 602.505 495.131, 602.505 505.131, 602.505 515.131, 602.505 525.131, 602.505 535.131, 602.505 545.131, 602.505 555.131, 602.505 565.131, 602.505 575.131, 602.505 585.131, 602.505 595.131, 602.505 605.131, 602.505 615.131, 602.505 625.131, 602.505 635.131, 602.505 645.131, 602.505 655.131, 602.505 665.131, 602.505 675.131, 602.505 685.131, 602.505 695.131, 602.505 705.131, 602.505 715.131, 602.505 725.131, 602.505 735.131, 602.505 745.131, 602.505 755.131, 602.505 765.131, 602.505 770.586, 602.505 " />
            <path fill="none" stroke-width="3.0" stroke-linecap="butt" stroke-opacity="1.0" stroke="rgb(0, 0, 0)" stroke-linejoin="round" d=" M 279.273, 602.505 289.273, 602.505 299.273, 602.505 305.131, 602.505 " />
            <path fill="none" stroke-width="3.0" stroke-linecap="butt" stroke-opacity="1.0" stroke="rgb(0, 0, 0)" stroke-linejoin="round" d=" M 796.445, 499.071 796.444, 499.071 " />
        </g>
    </g>
    <g id="ViewLayer_TechnicalLines" inkscape:groupmode="lineset" inkscape:label="ViewLayer_TechnicalLines">
        <g inkscape:groupmode="layer" id="strokes" inkscape:label="strokes">
            <path fill="none" stroke-width="3.0" stroke-linecap="butt" stroke-opacity="1.0" stroke="rgb(0, 0, 0)" stroke-linejoin="round" d=" M 796.445, 731.798 796.445, 721.798 796.445, 711.798 796.445, 701.798 796.445, 691.798 796.445, 681.798 796.445, 671.798 796.445, 661.798 796.445, 651.798 796.445, 641.798 796.445, 631.798 796.445, 628.364 796.444, 628.364 786.444, 628.364 776.444, 628.364 766.444, 628.364 756.444, 628.364 746.444, 628.364 736.444, 628.364 726.444, 628.364 716.444, 628.364 706.444, 628.364 696.444, 628.364 686.444, 628.364 676.444, 628.364 666.444, 628.364 656.444, 628.364 646.444, 628.364 636.444, 628.364 626.444, 628.364 616.444, 628.364 606.444, 628.364 596.444, 628.364 586.444, 628.364 576.444, 628.364 566.444, 628.364 556.444, 628.364 546.444, 628.364 536.444, 628.364 526.444, 628.364 516.444, 628.364 506.444, 628.364 496.444, 628.364 486.444, 628.364 476.444, 628.364 466.444, 628.364 456.444, 628.364 446.444, 628.364 436.444, 628.364 426.444, 628.364 416.444, 628.364 406.444, 628.364 396.444, 628.364 386.444, 628.364 376.444, 628.364 366.444, 628.364 356.444, 628.364 346.444, 628.364 336.444, 628.364 326.444, 628.364 316.444, 628.364 306.444, 628.364 296.444, 628.364 286.444, 628.364 279.273, 628.364 279.273, 638.364 279.273, 648.364 279.273, 658.364 279.273, 668.364 279.273, 678.364 279.273, 688.364 279.273, 698.364 279.273, 708.364 279.273, 718.364 279.273, 728.364 279.273, 731.798 279.273, 731.798 289.273, 731.798 299.273, 731.798 309.273, 731.798 319.273, 731.798 329.273, 731.798 339.273, 731.798 349.273, 731.798 359.273, 731.798 369.273, 731.798 379.273, 731.798 389.273, 731.798 399.273, 731.798 409.273, 731.798 419.273, 731.798 429.273, 731.798 439.273, 731.798 449.273, 731.798 459.273, 731.798 469.273, 731.798 479.273, 731.798 489.273, 731.798 499.273, 731.798 509.273, 731.798 519.273, 731.798 529.273, 731.798 539.273, 731.798 549.273, 731.798 559.273, 731.798 569.273, 731.798 579.273, 731.798 589.273, 731.798 599.273, 731.798 609.273, 731.798 619.273, 731.798 629.273, 731.798 639.273, 731.798 649.273, 731.798 659.273, 731.798 669.273, 731.798 679.273, 731.798 689.273, 731.798 699.273, 731.798 709.273, 731.798 719.273, 731.798 729.273, 731.798 739.273, 731.798 749.273, 731.798 759.273, 731.798 769.273, 731.798 779.273, 731.798 789.273, 731.798 796.445, 731.798 " />
            <path fill="none" stroke-width="3.0" stroke-linecap="butt" stroke-opacity="1.0" stroke="rgb(0, 0, 0)" stroke-linejoin="round" d=" M 796.444, 628.364 796.444, 638.364 796.444, 648.364 796.444, 658.364 796.444, 668.364 796.444, 678.364 796.444, 688.364 796.444, 698.364 796.444, 708.364 796.444, 718.364 796.444, 728.364 796.444, 731.798 " />
            <path fill="none" stroke-width="3.0" stroke-linecap="butt" stroke-opacity="1.0" stroke="rgb(0, 0, 0)" stroke-linejoin="round" d=" M 279.273, 731.798 289.273, 731.798 299.273, 731.798 309.273, 731.798 319.273, 731.798 329.273, 731.798 339.273, 731.798 349.273, 731.798 359.273, 731.798 369.273, 731.798 379.273, 731.798 389.273, 731.798 399.273, 731.798 409.273, 731.798 419.273, 731.798 429.273, 731.798 439.273, 731.798 449.273, 731.798 459.273, 731.798 469.273, 731.798 479.273, 731.798 489.273, 731.798 499.273, 731.798 509.273, 731.798 519.273, 731.798 529.273, 731.798 539.273, 731.798 549.273, 731.798 559.273, 731.798 569.273, 731.798 579.273, 731.798 589.273, 731.798 599.273, 731.798 609.273, 731.798 619.273, 731.798 629.273, 731.798 639.273, 731.798 649.273, 731.798 659.273, 731.798 669.273, 731.798 679.273, 731.798 689.273, 731.798 699.273, 731.798 709.273, 731.798 719.273, 731.798 729.273, 731.798 739.273, 731.798 749.273, 731.798 759.273, 731.798 769.273, 731.798 779.273, 731.798 789.273, 731.798 796.444, 731.798 796.445, 731.798 " />
            <path fill="none" stroke-width="3.0" stroke-linecap="butt" stroke-opacity="1.0" stroke="rgb(0, 0, 0)" stroke-linejoin="round" d=" M 330.990, 499.071 330.990, 489.071 330.990, 479.071 330.990, 469.071 330.990, 459.071 330.990, 449.071 330.990, 439.071 330.990, 429.071 330.990, 419.071 330.990, 409.071 330.990, 399.071 330.990, 389.071 330.990, 379.071 330.990, 369.071 330.990, 359.071 330.990, 349.071 330.990, 339.071 330.990, 329.071 330.990, 319.071 330.990, 309.071 330.990, 299.071 330.990, 292.202 330.990, 292.202 320.990, 292.202 310.990, 292.202 300.990, 292.202 290.990, 292.202 280.990, 292.202 270.990, 292.202 260.990, 292.202 250.990, 292.202 240.990, 292.202 230.990, 292.202 227.556, 292.202 227.556, 302.202 227.556, 312.202 227.556, 322.202 227.556, 332.202 227.556, 342.202 227.556, 352.202 227.556, 362.202 227.556, 372.202 227.556, 382.202 227.556, 392.202 227.556, 402.202 227.556, 412.202 227.556, 422.202 227.556, 432.202 227.556, 442.202 227.556, 452.202 227.556, 462.202 227.556, 472.202 227.556, 482.202 227.556, 492.202 227.556, 502.202 227.556, 512.202 227.556, 522.202 227.556, 532.202 227.556, 542.202 227.556, 550.788 227.556, 550.788 237.556, 550.788 247.556, 550.788 257.556, 550.788 267.556, 550.788 277.556, 550.788 279.273, 550.788 " />
            <path fill="none" stroke-width="3.0" stroke-linecap="butt" stroke-opacity="1.0" stroke="rgb(0, 0, 0)" stroke-linejoin="round" d=" M 330.990, 292.202 330.990, 302.202 330.990, 312.202 330.990, 322.202 330.990, 332.202 330.990, 342.202 330.990, 352.202 330.990, 362.202 330.990, 372.202 330.990, 382.202 330.990, 392.202 330.990, 402.202 330.990, 412.202 330.990, 422.202 330.990, 432.202 330.990, 442.202 330.990, 452.202 330.990, 462.202 330.990, 472.202 330.990, 482.202 330.990, 492.202 330.990, 499.071 " />
            <path fill="none" stroke-width="3.0" stroke-linecap="butt" stroke-opacity="1.0" stroke="rgb(0, 0, 0)" stroke-linejoin="round" d=" M 227.556, 550.788 237.556, 550.788 247.556, 550.788 257.556, 550.788 267.556, 550.788 277.556, 550.788 279.273, 550.788 " />
            <path fill="none" stroke-width="3.0" stroke-linecap="butt" stroke-opacity="1.0" stroke="rgb(0, 0, 0)" stroke-linejoin="round" d=" M 796.445, 602.505 796.445, 592.505 796.445, 582.505 796.445, 572.505 796.445, 562.505 796.445, 552.505 796.445, 542.505 796.445, 532.505 796.445, 522.505 796.445, 512.505 796.445, 502.505 796.445, 499.071 " />
            <path fill="none" stroke-width="3.0" stroke-linecap="butt" stroke-opacity="1.0" stroke="rgb(0, 0, 0)" stroke-linejoin="round" d=" M 796.444, 602.505 796.444, 592.505 796.444, 582.505 796.444, 572.505 796.444, 562.505 796.444, 552.505 796.444, 542.505 796.444, 532.505 796.444, 522.505 796.444, 512.505 796.444, 502.505 796.444, 499.071 " />
            <path fill="none" stroke-width="3.0" stroke-linecap="butt" stroke-opacity="1.0" stroke="rgb(0, 0, 0)" stroke-linejoin="round" d=" M 305.131, 602.505 315.131, 602.505 325.131, 602.505 335.131, 602.505 345.131, 602.505 355.131, 602.505 365.131, 602.505 375.131, 602.505 385.131, 602.505 395.131, 602.505 405.131, 602.505 415.131, 602.505 425.131, 602.505 435.131, 602.505 445.131, 602.505 455.131, 602.505 465.131, 602.505 475.131, 602.505 485.131, 602.505 495.131, 602.505 505.131, 602.505 515.131, 602.505 525.131, 602.505 535.131, 602.505 545.131, 602.505 555.131, 602.505 565.131, 602.505 575.131, 602.505 585.131, 602.505 595.131, 602.505 605.131, 602.505 615.131, 602.505 625.131, 602.505 635.131, 602.505 645.131, 602.505 655.131, 602.505 665.131, 602.505 675.131, 602.505 685.131, 602.505 695.131, 602.505 705.131, 602.505 715.131, 602.505 725.131, 602.505 735.131, 602.505 745.131, 602.505 755.131, 602.505 765.131, 602.505 770.586, 602.505 " />
            <path fill="none" stroke-width="3.0" stroke-linecap="butt" stroke-opacity="1.0" stroke="rgb(0, 0, 0)" stroke-linejoin="round" d=" M 770.586, 602.505 770.586, 602.505 " />
            <path fill="none" stroke-width="3.0" stroke-linecap="butt" stroke-opacity="1.0" stroke="rgb(0, 0, 0)" stroke-linejoin="round" d=" M 305.131, 602.505 315.131, 602.505 325.131, 602.505 335.131, 602.505 345.131, 602.505 355.131, 602.505 365.131, 602.505 375.131, 602.505 385.131, 602.505 395.131, 602.505 405.131, 602.505 415.131, 602.505 425.131, 602.505 435.131, 602.505 445.131, 602.505 455.131, 602.505 465.131, 602.505 475.131, 602.505 485.131, 602.505 495.131, 602.505 505.131, 602.505 515.131, 602.505 525.131, 602.505 535.131, 602.505 545.131, 602.505 555.131, 602.505 565.131, 602.505 575.131, 602.505 585.131, 602.505 595.131, 602.505 605.131, 602.505 615.131, 602.505 625.131, 602.505 635.131, 602.505 645.131, 602.505 655.131, 602.505 665.131, 602.505 675.131, 602.505 685.131, 602.505 695.131, 602.505 705.131, 602.505 715.131, 602.505 725.131, 602.505 735.131, 602.505 745.131, 602.505 755.131, 602.505 765.131, 602.505 770.586, 602.505 770.586, 602.505 " />
            <path fill="none" stroke-width="3.0" stroke-linecap="butt" stroke-opacity="1.0" stroke="rgb(0, 0, 0)" stroke-linejoin="round" d=" M 305.131, 602.505 305.131, 602.505 305.131, 602.505 " />
            <path fill="none" stroke-width="3.0" stroke-linecap="butt" stroke-opacity="1.0" stroke="rgb(0, 0, 0)" stroke-linejoin="round" d=" M 279.273, 499.071 279.273, 509.071 279.273, 519.071 279.273, 529.071 279.273, 539.071 279.273, 549.071 279.273, 550.788 279.273, 550.788 279.273, 560.788 279.273, 570.788 279.273, 580.788 279.273, 590.788 279.273, 600.788 279.273, 602.505 " />
            <path fill="none" stroke-width="3.0" stroke-linecap="butt" stroke-opacity="1.0" stroke="rgb(0, 0, 0)" stroke-linejoin="round" d=" M 279.273, 602.505 279.273, 602.505 " />
            <path fill="none" stroke-width="3.0" stroke-linecap="butt" stroke-opacity="1.0" stroke="rgb(0, 0, 0)" stroke-linejoin="round" d=" M 305.131, 602.505 305.131, 602.505 " />
            <path fill="none" stroke-width="3.0" stroke-linecap="butt" stroke-opacity="1.0" stroke="rgb(0, 0, 0)" stroke-linejoin="round" d=" M 770.586, 602.505 770.586, 602.505 " />
            <path fill="none" stroke-width="3.0" stroke-linecap="butt" stroke-opacity="1.0" stroke="rgb(0, 0, 0)" stroke-linejoin="round" d=" M 279.273, 602.505 289.273, 602.505 299.273, 602.505 305.131, 602.505 305.131, 602.505 315.131, 602.505 325.131, 602.505 335.131, 602.505 345.131, 602.505 355.131, 602.505 365.131, 602.505 375.131, 602.505 385.131, 602.505 395.131, 602.505 405.131, 602.505 415.131, 602.505 425.131, 602.505 435.131, 602.505 445.131, 602.505 455.131, 602.505 465.131, 602.505 475.131, 602.505 485.131, 602.505 495.131, 602.505 505.131, 602.505 515.131, 602.505 525.131, 602.505 535.131, 602.505 545.131, 602.505 555.131, 602.505 565.131, 602.505 575.131, 602.505 585.131, 602.505 595.131, 602.505 605.131, 602.505 615.131, 602.505 625.131, 602.505 635.131, 602.505 645.131, 602.505 655.131, 602.505 665.131, 602.505 675.131, 602.505 685.131, 602.505 695.131, 602.505 705.131, 602.505 715.131, 602.505 725.131, 602.505 735.131, 602.505 745.131, 602.505 755.131, 602.505 765.131, 602.505 770.586, 602.505 770.586, 602.505 780.586, 602.505 790.586, 602.505 796.444, 602.505 " />
            <path fill="none" stroke-width="3.0" stroke-linecap="butt" stroke-opacity="1.0" stroke="rgb(0, 0, 0)" stroke-linejoin="round" d=" M 279.273, 602.505 279.273, 602.505 " />
            <path fill="none" stroke-width="3.0" stroke-linecap="butt" stroke-opacity="1.0" stroke="rgb(0, 0, 0)" stroke-linejoin="round" d=" M 796.444, 499.071 796.444, 499.071 " />
            <path fill="none" stroke-width="3.0" stroke-linecap="butt" stroke-opacity="1.0" stroke="rgb(0, 0, 0)" stroke-linejoin="round" d=" M 796.444, 499.071 786.444, 499.071 776.444, 499.071 766.444, 499.071 756.444, 499.071 746.444, 499.071 736.444, 499.071 726.444, 499.071 716.444, 499.071 706.444, 499.071 696.444, 499.071 686.444, 499.071 676.444, 499.071 666.444, 499.071 656.444, 499.071 646.444, 499.071 636.444, 499.071 626.444, 499.071 616.444, 499.071 606.444, 499.071 596.444, 499.071 586.444, 499.071 576.444, 499.071 566.444, 499.071 556.444, 499.071 546.444, 499.071 536.444, 499.071 526.444, 499.071 516.444, 499.071 506.444, 499.071 496.444, 499.071 486.444, 499.071 476.444, 499.071 466.444, 499.071 456.444, 499.071 446.444, 499.071 436.444, 499.071 426.444, 499.071 416.444, 499.071 406.444, 499.071 396.444, 499.071 386.444, 499.071 376.444, 499.071 366.444, 499.071 356.444, 499.071 346.444, 499.071 336.444, 499.071 330.990, 499.071 330.990, 499.071 320.990, 499.071 310.990, 499.071 300.990, 499.071 290.990, 499.071 280.990, 499.071 279.273, 499.071 " />
            <path fill="none" stroke-width="3.0" stroke-linecap="butt" stroke-opacity="1.0" stroke="rgb(0, 0, 0)" stroke-linejoin="round" d=" M 770.586, 602.505 780.586, 602.505 790.586, 602.505 796.445, 602.505 " />
            <path fill="none" stroke-width="3.0" stroke-linecap="butt" stroke-opacity="1.0" stroke="rgb(0, 0, 0)" stroke-linejoin="round" d=" M 305.131, 602.505 315.131, 602.505 325.131, 602.505 335.131, 602.505 345.131, 602.505 355.131, 602.505 365.131, 602.505 375.131, 602.505 385.131, 602.505 395.131, 602.505 405.131, 602.505 415.131, 602.505 425.131, 602.505 435.131, 602.505 445.131, 602.505 455.131, 602.505 465.131, 602.505 475.131, 602.505 485.131, 602.505 495.131, 602.505 505.131, 602.505 515.131, 602.505 525.131, 602.505 535.131, 602.505 545.131, 602.505 555.131, 602.505 565.131, 602.505 575.131, 602.505 585.131, 602.505 595.131, 602.505 605.131, 602.505 615.131, 602.505 625.131, 602.505 635.131, 602.505 645.131, 602.505 655.131, 602.505 665.131, 602.505 675.131, 602.505 685.131, 602.505 695.131, 602.505 705.131, 602.505 715.131, 602.505 725.131, 602.505 735.131, 602.505 745.131, 602.505 755.131, 602.505 765.131, 602.505 770.586, 602.505 " />
            <path fill="none" stroke-width="3.0" stroke-linecap="butt" stroke-opacity="1.0" stroke="rgb(0, 0, 0)" stroke-linejoin="round" d=" M 279.273, 602.505 289.273, 602.505 299.273, 602.505 305.131, 602.505 " />
            <path fill="none" stroke-width="3.0" stroke-linecap="butt" stroke-opacity="1.0" stroke="rgb(0, 0, 0)" stroke-linejoin="round" d=" M 796.445, 499.071 796.444, 499.071 " />
        </g>
    </g>
    <g id="ViewLayer_TechnicalLines.001" inkscape:groupmode="lineset" inkscape:label="ViewLayer_TechnicalLines.001">
        <g inkscape:groupmode="layer" id="strokes" inkscape:label="strokes">
            <path fill="none" stroke-width="1.5" stroke-linecap="round" stroke-opacity="1.0" stroke="rgb(0, 0, 0)" stroke-linejoin="round" d=" M 796.445, 731.798 796.445, 721.798 796.445, 711.798 796.445, 701.798 796.445, 691.798 796.445, 681.798 796.445, 671.798 796.445, 661.798 796.445, 651.798 796.445, 641.798 796.445, 631.798 796.445, 628.364 796.444, 628.364 786.444, 628.364 776.444, 628.364 766.444, 628.364 756.444, 628.364 746.444, 628.364 736.444, 628.364 726.444, 628.364 716.444, 628.364 706.444, 628.364 696.444, 628.364 686.444, 628.364 676.444, 628.364 666.444, 628.364 656.444, 628.364 646.444, 628.364 636.444, 628.364 626.444, 628.364 616.444, 628.364 606.444, 628.364 596.444, 628.364 586.444, 628.364 576.444, 628.364 566.444, 628.364 556.444, 628.364 546.444, 628.364 536.444, 628.364 526.444, 628.364 516.444, 628.364 506.444, 628.364 496.444, 628.364 486.444, 628.364 476.444, 628.364 466.444, 628.364 456.444, 628.364 446.444, 628.364 436.444, 628.364 426.444, 628.364 416.444, 628.364 406.444, 628.364 396.444, 628.364 386.444, 628.364 376.444, 628.364 366.444, 628.364 356.444, 628.364 346.444, 628.364 336.444, 628.364 326.444, 628.364 316.444, 628.364 306.444, 628.364 296.444, 628.364 286.444, 628.364 279.273, 628.364 279.273, 638.364 279.273, 648.364 279.273, 658.364 279.273, 668.364 279.273, 678.364 279.273, 688.364 279.273, 698.364 279.273, 708.364 279.273, 718.364 279.273, 728.364 279.273, 731.798 279.273, 731.798 289.273, 731.798 299.273, 731.798 309.273, 731.798 319.273, 731.798 329.273, 731.798 339.273, 731.798 349.273, 731.798 359.273, 731.798 369.273, 731.798 379.273, 731.798 389.273, 731.798 399.273, 731.798 409.273, 731.798 419.273, 731.798 429.273, 731.798 439.273, 731.798 449.273, 731.798 459.273, 731.798 469.273, 731.798 479.273, 731.798 489.273, 731.798 499.273, 731.798 509.273, 731.798 519.273, 731.798 529.273, 731.798 539.273, 731.798 549.273, 731.798 559.273, 731.798 569.273, 731.798 579.273, 731.798 589.273, 731.798 599.273, 731.798 609.273, 731.798 619.273, 731.798 629.273, 731.798 639.273, 731.798 649.273, 731.798 659.273, 731.798 669.273, 731.798 679.273, 731.798 689.273, 731.798 699.273, 731.798 709.273, 731.798 719.273, 731.798 729.273, 731.798 739.273, 731.798 749.273, 731.798 759.273, 731.798 769.273, 731.798 779.273, 731.798 789.273, 731.798 796.445, 731.798 " />
            <path fill="none" stroke-width="1.5" stroke-linecap="round" stroke-opacity="1.0" stroke="rgb(0, 0, 0)" stroke-linejoin="round" d=" M 796.444, 628.364 796.444, 638.364 796.444, 648.364 796.444, 658.364 796.444, 668.364 796.444, 678.364 796.444, 688.364 796.444, 698.364 796.444, 708.364 796.444, 718.364 796.444, 728.364 796.444, 731.798 " />
            <path fill="none" stroke-width="1.5" stroke-linecap="round" stroke-opacity="1.0" stroke="rgb(0, 0, 0)" stroke-linejoin="round" d=" M 279.273, 731.798 289.273, 731.798 299.273, 731.798 309.273, 731.798 319.273, 731.798 329.273, 731.798 339.273, 731.798 349.273, 731.798 359.273, 731.798 369.273, 731.798 379.273, 731.798 389.273, 731.798 399.273, 731.798 409.273, 731.798 419.273, 731.798 429.273, 731.798 439.273, 731.798 449.273, 731.798 459.273, 731.798 469.273, 731.798 479.273, 731.798 489.273, 731.798 499.273, 731.798 509.273, 731.798 519.273, 731.798 529.273, 731.798 539.273, 731.798 549.273, 731.798 559.273, 731.798 569.273, 731.798 579.273, 731.798 589.273, 731.798 599.273, 731.798 609.273, 731.798 619.273, 731.798 629.273, 731.798 639.273, 731.798 649.273, 731.798 659.273, 731.798 669.273, 731.798 679.273, 731.798 689.273, 731.798 699.273, 731.798 709.273, 731.798 719.273, 731.798 729.273, 731.798 739.273, 731.798 749.273, 731.798 759.273, 731.798 769.273, 731.798 779.273, 731.798 789.273, 731.798 796.444, 731.798 796.445, 731.798 " />
            <path fill="none" stroke-width="1.5" stroke-linecap="round" stroke-opacity="1.0" stroke="rgb(0, 0, 0)" stroke-linejoin="round" d=" M 330.990, 499.071 330.990, 489.071 330.990, 479.071 330.990, 469.071 330.990, 459.071 330.990, 449.071 330.990, 439.071 330.990, 429.071 330.990, 419.071 330.990, 409.071 330.990, 399.071 330.990, 389.071 330.990, 379.071 330.990, 369.071 330.990, 359.071 330.990, 349.071 330.990, 339.071 330.990, 329.071 330.990, 319.071 330.990, 309.071 330.990, 299.071 330.990, 292.202 330.990, 292.202 320.990, 292.202 310.990, 292.202 300.990, 292.202 290.990, 292.202 280.990, 292.202 270.990, 292.202 260.990, 292.202 250.990, 292.202 240.990, 292.202 230.990, 292.202 227.556, 292.202 227.556, 302.202 227.556, 312.202 227.556, 322.202 227.556, 332.202 227.556, 342.202 227.556, 352.202 227.556, 362.202 227.556, 372.202 227.556, 382.202 227.556, 392.202 227.556, 402.202 227.556, 412.202 227.556, 422.202 227.556, 432.202 227.556, 442.202 227.556, 452.202 227.556, 462.202 227.556, 472.202 227.556, 482.202 227.556, 492.202 227.556, 502.202 227.556, 512.202 227.556, 522.202 227.556, 532.202 227.556, 542.202 227.556, 550.788 227.556, 550.788 237.556, 550.788 247.556, 550.788 257.556, 550.788 267.556, 550.788 277.556, 550.788 279.273, 550.788 " />
            <path fill="none" stroke-width="1.5" stroke-linecap="round" stroke-opacity="1.0" stroke="rgb(0, 0, 0)" stroke-linejoin="round" d=" M 330.990, 292.202 330.990, 302.202 330.990, 312.202 330.990, 322.202 330.990, 332.202 330.990, 342.202 330.990, 352.202 330.990, 362.202 330.990, 372.202 330.990, 382.202 330.990, 392.202 330.990, 402.202 330.990, 412.202 330.990, 422.202 330.990, 432.202 330.990, 442.202 330.990, 452.202 330.990, 462.202 330.990, 472.202 330.990, 482.202 330.990, 492.202 330.990, 499.071 " />
            <path fill="none" stroke-width="1.5" stroke-linecap="round" stroke-opacity="1.0" stroke="rgb(0, 0, 0)" stroke-linejoin="round" d=" M 227.556, 550.788 237.556, 550.788 247.556, 550.788 257.556, 550.788 267.556, 550.788 277.556, 550.788 279.273, 550.788 " />
            <path fill="none" stroke-width="1.5" stroke-linecap="round" stroke-opacity="1.0" stroke="rgb(0, 0, 0)" stroke-linejoin="round" d=" M 796.445, 602.505 796.445, 592.505 796.445, 582.505 796.445, 572.505 796.445, 562.505 796.445, 552.505 796.445, 542.505 796.445, 532.505 796.445, 522.505 796.445, 512.505 796.445, 502.505 796.445, 499.071 " />
            <path fill="none" stroke-width="1.5" stroke-linecap="round" stroke-opacity="1.0" stroke="rgb(0, 0, 0)" stroke-linejoin="round" d=" M 796.444, 602.505 796.444, 592.505 796.444, 582.505 796.444, 572.505 796.444, 562.505 796.444, 552.505 796.444, 542.505 796.444, 532.505 796.444, 522.505 796.444, 512.505 796.444, 502.505 796.444, 499.071 " />
            <path fill="none" stroke-width="1.5" stroke-linecap="round" stroke-opacity="1.0" stroke="rgb(0, 0, 0)" stroke-linejoin="round" d=" M 305.131, 602.505 315.131, 602.505 325.131, 602.505 335.131, 602.505 345.131, 602.505 355.131, 602.505 365.131, 602.505 375.131, 602.505 385.131, 602.505 395.131, 602.505 405.131, 602.505 415.131, 602.505 425.131, 602.505 435.131, 602.505 445.131, 602.505 455.131, 602.505 465.131, 602.505 475.131, 602.505 485.131, 602.505 495.131, 602.505 505.131, 602.505 515.131, 602.505 525.131, 602.505 535.131, 602.505 545.131, 602.505 555.131, 602.505 565.131, 602.505 575.131, 602.505 585.131, 602.505 595.131, 602.505 605.131, 602.505 615.131, 602.505 625.131, 602.505 635.131, 602.505 645.131, 602.505 655.131, 602.505 665.131, 602.505 675.131, 602.505 685.131, 602.505 695.131, 602.505 705.131, 602.505 715.131, 602.505 725.131, 602.505 735.131, 602.505 745.131, 602.505 755.131, 602.505 765.131, 602.505 770.586, 602.505 " />
            <path fill="none" stroke-width="1.5" stroke-linecap="round" stroke-opacity="1.0" stroke="rgb(0, 0, 0)" stroke-linejoin="round" d=" M 770.586, 602.505 770.586, 602.505 " />
            <path fill="none" stroke-width="1.5" stroke-linecap="round" stroke-opacity="1.0" stroke="rgb(0, 0, 0)" stroke-linejoin="round" d=" M 305.131, 602.505 315.131, 602.505 325.131, 602.505 335.131, 602.505 345.131, 602.505 355.131, 602.505 365.131, 602.505 375.131, 602.505 385.131, 602.505 395.131, 602.505 405.131, 602.505 415.131, 602.505 425.131, 602.505 435.131, 602.505 445.131, 602.505 455.131, 602.505 465.131, 602.505 475.131, 602.505 485.131, 602.505 495.131, 602.505 505.131, 602.505 515.131, 602.505 525.131, 602.505 535.131, 602.505 545.131, 602.505 555.131, 602.505 565.131, 602.505 575.131, 602.505 585.131, 602.505 595.131, 602.505 605.131, 602.505 615.131, 602.505 625.131, 602.505 635.131, 602.505 645.131, 602.505 655.131, 602.505 665.131, 602.505 675.131, 602.505 685.131, 602.505 695.131, 602.505 705.131, 602.505 715.131, 602.505 725.131, 602.505 735.131, 602.505 745.131, 602.505 755.131, 602.505 765.131, 602.505 770.586, 602.505 770.586, 602.505 " />
            <path fill="none" stroke-width="1.5" stroke-linecap="round" stroke-opacity="1.0" stroke="rgb(0, 0, 0)" stroke-linejoin="round" d=" M 305.131, 602.505 305.131, 602.505 305.131, 602.505 " />
            <path fill="none" stroke-width="1.5" stroke-linecap="round" stroke-opacity="1.0" stroke="rgb(0, 0, 0)" stroke-linejoin="round" d=" M 279.273, 499.071 279.273, 509.071 279.273, 519.071 279.273, 529.071 279.273, 539.071 279.273, 549.071 279.273, 550.788 279.273, 550.788 279.273, 560.788 279.273, 570.788 279.273, 580.788 279.273, 590.788 279.273, 600.788 279.273, 602.505 " />
            <path fill="none" stroke-width="1.5" stroke-linecap="round" stroke-opacity="1.0" stroke="rgb(0, 0, 0)" stroke-linejoin="round" d=" M 279.273, 602.505 279.273, 602.505 " />
            <path fill="none" stroke-width="1.5" stroke-linecap="round" stroke-opacity="1.0" stroke="rgb(0, 0, 0)" stroke-linejoin="round" d=" M 305.131, 602.505 305.131, 602.505 " />
            <path fill="none" stroke-width="1.5" stroke-linecap="round" stroke-opacity="1.0" stroke="rgb(0, 0, 0)" stroke-linejoin="round" d=" M 770.586, 602.505 770.586, 602.505 " />
            <path fill="none" stroke-width="1.5" stroke-linecap="round" stroke-opacity="1.0" stroke="rgb(0, 0, 0)" stroke-linejoin="round" d=" M 279.273, 602.505 289.273, 602.505 299.273, 602.505 305.131, 602.505 305.131, 602.505 315.131, 602.505 325.131, 602.505 335.131, 602.505 345.131, 602.505 355.131, 602.505 365.131, 602.505 375.131, 602.505 385.131, 602.505 395.131, 602.505 405.131, 602.505 415.131, 602.505 425.131, 602.505 435.131, 602.505 445.131, 602.505 455.131, 602.505 465.131, 602.505 475.131, 602.505 485.131, 602.505 495.131, 602.505 505.131, 602.505 515.131, 602.505 525.131, 602.505 535.131, 602.505 545.131, 602.505 555.131, 602.505 565.131, 602.505 575.131, 602.505 585.131, 602.505 595.131, 602.505 605.131, 602.505 615.131, 602.505 625.131, 602.505 635.131, 602.505 645.131, 602.505 655.131, 602.505 665.131, 602.505 675.131, 602.505 685.131, 602.505 695.131, 602.505 705.131, 602.505 715.131, 602.505 725.131, 602.505 735.131, 602.505 745.131, 602.505 755.131, 602.505 765.131, 602.505 770.586, 602.505 770.586, 602.505 780.586, 602.505 790.586, 602.505 796.444, 602.505 " />
            <path fill="none" stroke-width="1.5" stroke-linecap="round" stroke-opacity="1.0" stroke="rgb(0, 0, 0)" stroke-linejoin="round" d=" M 279.273, 602.505 279.273, 602.505 " />
            <path fill="none" stroke-width="1.5" stroke-linecap="round" stroke-opacity="1.0" stroke="rgb(0, 0, 0)" stroke-linejoin="round" d=" M 796.444, 499.071 796.444, 499.071 " />
            <path fill="none" stroke-width="1.5" stroke-linecap="round" stroke-opacity="1.0" stroke="rgb(0, 0, 0)" stroke-linejoin="round" d=" M 796.444, 499.071 786.444, 499.071 776.444, 499.071 766.444, 499.071 756.444, 499.071 746.444, 499.071 736.444, 499.071 726.444, 499.071 716.444, 499.071 706.444, 499.071 696.444, 499.071 686.444, 499.071 676.444, 499.071 666.444, 499.071 656.444, 499.071 646.444, 499.071 636.444, 499.071 626.444, 499.071 616.444, 499.071 606.444, 499.071 596.444, 499.071 586.444, 499.071 576.444, 499.071 566.444, 499.071 556.444, 499.071 546.444, 499.071 536.444, 499.071 526.444, 499.071 516.444, 499.071 506.444, 499.071 496.444, 499.071 486.444, 499.071 476.444, 499.071 466.444, 499.071 456.444, 499.071 446.444, 499.071 436.444, 499.071 426.444, 499.071 416.444, 499.071 406.444, 499.071 396.444, 499.071 386.444, 499.071 376.444, 499.071 366.444, 499.071 356.444, 499.071 346.444, 499.071 336.444, 499.071 330.990, 499.071 330.990, 499.071 320.990, 499.071 310.990, 499.071 300.990, 499.071 290.990, 499.071 280.990, 499.071 279.273, 499.071 " />
            <path fill="none" stroke-width="1.5" stroke-linecap="round" stroke-opacity="1.0" stroke="rgb(0, 0, 0)" stroke-linejoin="round" d=" M 770.586, 602.505 780.586, 602.505 790.586, 602.505 796.445, 602.505 " />
            <path fill="none" stroke-width="1.5" stroke-linecap="round" stroke-opacity="1.0" stroke="rgb(0, 0, 0)" stroke-linejoin="round" d=" M 305.131, 602.505 315.131, 602.505 325.131, 602.505 335.131, 602.505 345.131, 602.505 355.131, 602.505 365.131, 602.505 375.131, 602.505 385.131, 602.505 395.131, 602.505 405.131, 602.505 415.131, 602.505 425.131, 602.505 435.131, 602.505 445.131, 602.505 455.131, 602.505 465.131, 602.505 475.131, 602.505 485.131, 602.505 495.131, 602.505 505.131, 602.505 515.131, 602.505 525.131, 602.505 535.131, 602.505 545.131, 602.505 555.131, 602.505 565.131, 602.505 575.131, 602.505 585.131, 602.505 595.131, 602.505 605.131, 602.505 615.131, 602.505 625.131, 602.505 635.131, 602.505 645.131, 602.505 655.131, 602.505 665.131, 602.505 675.131, 602.505 685.131, 602.505 695.131, 602.505 705.131, 602.505 715.131, 602.505 725.131, 602.505 735.131, 602.505 745.131, 602.505 755.131, 602.505 765.131, 602.505 770.586, 602.505 " />
            <path fill="none" stroke-width="1.5" stroke-linecap="round" stroke-opacity="1.0" stroke="rgb(0, 0, 0)" stroke-linejoin="round" d=" M 279.273, 602.505 289.273, 602.505 299.273, 602.505 305.131, 602.505 " />
            <path fill="none" stroke-width="1.5" stroke-linecap="round" stroke-opacity="1.0" stroke="rgb(0, 0, 0)" stroke-linejoin="round" d=" M 796.445, 499.071 796.444, 499.071 " />
        </g>
    </g>
    <g id="ViewLayer_TechnicalLines.002" inkscape:groupmode="lineset" inkscape:label="ViewLayer_TechnicalLines.002">
        <g inkscape:groupmode="layer" id="strokes" inkscape:label="strokes">
            <path fill="none" stroke-width="1.5" stroke-linecap="round" stroke-opacity="1.0" stroke="rgb(0, 0, 0)" stroke-linejoin="round" d=" M 796.445, 731.798 796.445, 721.798 796.445, 711.798 796.445, 701.798 796.445, 691.798 796.445, 681.798 796.445, 671.798 796.445, 661.798 796.445, 651.798 796.445, 641.798 796.445, 631.798 796.445, 628.364 796.444, 628.364 786.444, 628.364 776.444, 628.364 766.444, 628.364 756.444, 628.364 746.444, 628.364 736.444, 628.364 726.444, 628.364 716.444, 628.364 706.444, 628.364 696.444, 628.364 686.444, 628.364 676.444, 628.364 666.444, 628.364 656.444, 628.364 646.444, 628.364 636.444, 628.364 626.444, 628.364 616.444, 628.364 606.444, 628.364 596.444, 628.364 586.444, 628.364 576.444, 628.364 566.444, 628.364 556.444, 628.364 546.444, 628.364 536.444, 628.364 526.444, 628.364 516.444, 628.364 506.444, 628.364 496.444, 628.364 486.444, 628.364 476.444, 628.364 466.444, 628.364 456.444, 628.364 446.444, 628.364 436.444, 628.364 426.444, 628.364 416.444, 628.364 406.444, 628.364 396.444, 628.364 386.444, 628.364 376.444, 628.364 366.444, 628.364 356.444, 628.364 346.444, 628.364 336.444, 628.364 326.444, 628.364 316.444, 628.364 306.444, 628.364 296.444, 628.364 286.444, 628.364 279.273, 628.364 279.273, 638.364 279.273, 648.364 279.273, 658.364 279.273, 668.364 279.273, 678.364 279.273, 688.364 279.273, 698.364 279.273, 708.364 279.273, 718.364 279.273, 728.364 279.273, 731.798 279.273, 731.798 289.273, 731.798 299.273, 731.798 309.273, 731.798 319.273, 731.798 329.273, 731.798 339.273, 731.798 349.273, 731.798 359.273, 731.798 369.273, 731.798 379.273, 731.798 389.273, 731.798 399.273, 731.798 409.273, 731.798 419.273, 731.798 429.273, 731.798 439.273, 731.798 449.273, 731.798 459.273, 731.798 469.273, 731.798 479.273, 731.798 489.273, 731.798 499.273, 731.798 509.273, 731.798 519.273, 731.798 529.273, 731.798 539.273, 731.798 549.273, 731.798 559.273, 731.798 569.273, 731.798 579.273, 731.798 589.273, 731.798 599.273, 731.798 609.273, 731.798 619.273, 731.798 629.273, 731.798 639.273, 731.798 649.273, 731.798 659.273, 731.798 669.273, 731.798 679.273, 731.798 689.273, 731.798 699.273, 731.798 709.273, 731.798 719.273, 731.798 729.273, 731.798 739.273, 731.798 749.273, 731.798 759.273, 731.798 769.273, 731.798 779.273, 731.798 789.273, 731.798 796.445, 731.798 " />
            <path fill="none" stroke-width="1.5" stroke-linecap="round" stroke-opacity="1.0" stroke="rgb(0, 0, 0)" stroke-linejoin="round" d=" M 796.444, 628.364 796.444, 638.364 796.444, 648.364 796.444, 658.364 796.444, 668.364 796.444, 678.364 796.444, 688.364 796.444, 698.364 796.444, 708.364 796.444, 718.364 796.444, 728.364 796.444, 731.798 " />
            <path fill="none" stroke-width="1.5" stroke-linecap="round" stroke-opacity="1.0" stroke="rgb(0, 0, 0)" stroke-linejoin="round" d=" M 279.273, 731.798 289.273, 731.798 299.273, 731.798 309.273, 731.798 319.273, 731.798 329.273, 731.798 339.273, 731.798 349.273, 731.798 359.273, 731.798 369.273, 731.798 379.273, 731.798 389.273, 731.798 399.273, 731.798 409.273, 731.798 419.273, 731.798 429.273, 731.798 439.273, 731.798 449.273, 731.798 459.273, 731.798 469.273, 731.798 479.273, 731.798 489.273, 731.798 499.273, 731.798 509.273, 731.798 519.273, 731.798 529.273, 731.798 539.273, 731.798 549.273, 731.798 559.273, 731.798 569.273, 731.798 579.273, 731.798 589.273, 731.798 599.273, 731.798 609.273, 731.798 619.273, 731.798 629.273, 731.798 639.273, 731.798 649.273, 731.798 659.273, 731.798 669.273, 731.798 679.273, 731.798 689.273, 731.798 699.273, 731.798 709.273, 731.798 719.273, 731.798 729.273, 731.798 739.273, 731.798 749.273, 731.798 759.273, 731.798 769.273, 731.798 779.273, 731.798 789.273, 731.798 796.444, 731.798 796.445, 731.798 " />
            <path fill="none" stroke-width="1.5" stroke-linecap="round" stroke-opacity="1.0" stroke="rgb(0, 0, 0)" stroke-linejoin="round" d=" M 330.990, 499.071 330.990, 489.071 330.990, 479.071 330.990, 469.071 330.990, 459.071 330.990, 449.071 330.990, 439.071 330.990, 429.071 330.990, 419.071 330.990, 409.071 330.990, 399.071 330.990, 389.071 330.990, 379.071 330.990, 369.071 330.990, 359.071 330.990, 349.071 330.990, 339.071 330.990, 329.071 330.990, 319.071 330.990, 309.071 330.990, 299.071 330.990, 292.202 330.990, 292.202 320.990, 292.202 310.990, 292.202 300.990, 292.202 290.990, 292.202 280.990, 292.202 270.990, 292.202 260.990, 292.202 250.990, 292.202 240.990, 292.202 230.990, 292.202 227.556, 292.202 227.556, 302.202 227.556, 312.202 227.556, 322.202 227.556, 332.202 227.556, 342.202 227.556, 352.202 227.556, 362.202 227.556, 372.202 227.556, 382.202 227.556, 392.202 227.556, 402.202 227.556, 412.202 227.556, 422.202 227.556, 432.202 227.556, 442.202 227.556, 452.202 227.556, 462.202 227.556, 472.202 227.556, 482.202 227.556, 492.202 227.556, 502.202 227.556, 512.202 227.556, 522.202 227.556, 532.202 227.556, 542.202 227.556, 550.788 227.556, 550.788 237.556, 550.788 247.556, 550.788 257.556, 550.788 267.556, 550.788 277.556, 550.788 279.273, 550.788 " />
            <path fill="none" stroke-width="1.5" stroke-linecap="round" stroke-opacity="1.0" stroke="rgb(0, 0, 0)" stroke-linejoin="round" d=" M 330.990, 292.202 330.990, 302.202 330.990, 312.202 330.990, 322.202 330.990, 332.202 330.990, 342.202 330.990, 352.202 330.990, 362.202 330.990, 372.202 330.990, 382.202 330.990, 392.202 330.990, 402.202 330.990, 412.202 330.990, 422.202 330.990, 432.202 330.990, 442.202 330.990, 452.202 330.990, 462.202 330.990, 472.202 330.990, 482.202 330.990, 492.202 330.990, 499.071 " />
            <path fill="none" stroke-width="1.5" stroke-linecap="round" stroke-opacity="1.0" stroke="rgb(0, 0, 0)" stroke-linejoin="round" d=" M 227.556, 550.788 237.556, 550.788 247.556, 550.788 257.556, 550.788 267.556, 550.788 277.556, 550.788 279.273, 550.788 " />
            <path fill="none" stroke-width="1.5" stroke-linecap="round" stroke-opacity="1.0" stroke="rgb(0, 0, 0)" stroke-linejoin="round" d=" M 796.445, 602.505 796.445, 592.505 796.445, 582.505 796.445, 572.505 796.445, 562.505 796.445, 552.505 796.445, 542.505 796.445, 532.505 796.445, 522.505 796.445, 512.505 796.445, 502.505 796.445, 499.071 " />
            <path fill="none" stroke-width="1.5" stroke-linecap="round" stroke-opacity="1.0" stroke="rgb(0, 0, 0)" stroke-linejoin="round" d=" M 796.444, 602.505 796.444, 592.505 796.444, 582.505 796.444, 572.505 796.444, 562.505 796.444, 552.505 796.444, 542.505 796.444, 532.505 796.444, 522.505 796.444, 512.505 796.444, 502.505 796.444, 499.071 " />
            <path fill="none" stroke-width="1.5" stroke-linecap="round" stroke-opacity="1.0" stroke="rgb(0, 0, 0)" stroke-linejoin="round" d=" M 305.131, 602.505 315.131, 602.505 325.131, 602.505 335.131, 602.505 345.131, 602.505 355.131, 602.505 365.131, 602.505 375.131, 602.505 385.131, 602.505 395.131, 602.505 405.131, 602.505 415.131, 602.505 425.131, 602.505 435.131, 602.505 445.131, 602.505 455.131, 602.505 465.131, 602.505 475.131, 602.505 485.131, 602.505 495.131, 602.505 505.131, 602.505 515.131, 602.505 525.131, 602.505 535.131, 602.505 545.131, 602.505 555.131, 602.505 565.131, 602.505 575.131, 602.505 585.131, 602.505 595.131, 602.505 605.131, 602.505 615.131, 602.505 625.131, 602.505 635.131, 602.505 645.131, 602.505 655.131, 602.505 665.131, 602.505 675.131, 602.505 685.131, 602.505 695.131, 602.505 705.131, 602.505 715.131, 602.505 725.131, 602.505 735.131, 602.505 745.131, 602.505 755.131, 602.505 765.131, 602.505 770.586, 602.505 " />
            <path fill="none" stroke-width="1.5" stroke-linecap="round" stroke-opacity="1.0" stroke="rgb(0, 0, 0)" stroke-linejoin="round" d=" M 770.586, 602.505 770.586, 602.505 " />
            <path fill="none" stroke-width="1.5" stroke-linecap="round" stroke-opacity="1.0" stroke="rgb(0, 0, 0)" stroke-linejoin="round" d=" M 305.131, 602.505 315.131, 602.505 325.131, 602.505 335.131, 602.505 345.131, 602.505 355.131, 602.505 365.131, 602.505 375.131, 602.505 385.131, 602.505 395.131, 602.505 405.131, 602.505 415.131, 602.505 425.131, 602.505 435.131, 602.505 445.131, 602.505 455.131, 602.505 465.131, 602.505 475.131, 602.505 485.131, 602.505 495.131, 602.505 505.131, 602.505 515.131, 602.505 525.131, 602.505 535.131, 602.505 545.131, 602.505 555.131, 602.505 565.131, 602.505 575.131, 602.505 585.131, 602.505 595.131, 602.505 605.131, 602.505 615.131, 602.505 625.131, 602.505 635.131, 602.505 645.131, 602.505 655.131, 602.505 665.131, 602.505 675.131, 602.505 685.131, 602.505 695.131, 602.505 705.131, 602.505 715.131, 602.505 725.131, 602.505 735.131, 602.505 745.131, 602.505 755.131, 602.505 765.131, 602.505 770.586, 602.505 770.586, 602.505 " />
            <path fill="none" stroke-width="1.5" stroke-linecap="round" stroke-opacity="1.0" stroke="rgb(0, 0, 0)" stroke-linejoin="round" d=" M 305.131, 602.505 305.131, 602.505 305.131, 602.505 " />
            <path fill="none" stroke-width="1.5" stroke-linecap="round" stroke-opacity="1.0" stroke="rgb(0, 0, 0)" stroke-linejoin="round" d=" M 279.273, 499.071 279.273, 509.071 279.273, 519.071 279.273, 529.071 279.273, 539.071 279.273, 549.071 279.273, 550.788 279.273, 550.788 279.273, 560.788 279.273, 570.788 279.273, 580.788 279.273, 590.788 279.273, 600.788 279.273, 602.505 " />
            <path fill="none" stroke-width="1.5" stroke-linecap="round" stroke-opacity="1.0" stroke="rgb(0, 0, 0)" stroke-linejoin="round" d=" M 279.273, 602.505 279.273, 602.505 " />
            <path fill="none" stroke-width="1.5" stroke-linecap="round" stroke-opacity="1.0" stroke="rgb(0, 0, 0)" stroke-linejoin="round" d=" M 305.131, 602.505 305.131, 602.505 " />
            <path fill="none" stroke-width="1.5" stroke-linecap="round" stroke-opacity="1.0" stroke="rgb(0, 0, 0)" stroke-linejoin="round" d=" M 770.586, 602.505 770.586, 602.505 " />
            <path fill="none" stroke-width="1.5" stroke-linecap="round" stroke-opacity="1.0" stroke="rgb(0, 0, 0)" stroke-linejoin="round" d=" M 279.273, 602.505 289.273, 602.505 299.273, 602.505 305.131, 602.505 305.131, 602.505 315.131, 602.505 325.131, 602.505 335.131, 602.505 345.131, 602.505 355.131, 602.505 365.131, 602.505 375.131, 602.505 385.131, 602.505 395.131, 602.505 405.131, 602.505 415.131, 602.505 425.131, 602.505 435.131, 602.505 445.131, 602.505 455.131, 602.505 465.131, 602.505 475.131, 602.505 485.131, 602.505 495.131, 602.505 505.131, 602.505 515.131, 602.505 525.131, 602.505 535.131, 602.505 545.131, 602.505 555.131, 602.505 565.131, 602.505 575.131, 602.505 585.131, 602.505 595.131, 602.505 605.131, 602.505 615.131, 602.505 625.131, 602.505 635.131, 602.505 645.131, 602.505 655.131, 602.505 665.131, 602.505 675.131, 602.505 685.131, 602.505 695.131, 602.505 705.131, 602.505 715.131, 602.505 725.131, 602.505 735.131, 602.505 745.131, 602.505 755.131, 602.505 765.131, 602.505 770.586, 602.505 770.586, 602.505 780.586, 602.505 790.586, 602.505 796.444, 602.505 " />
            <path fill="none" stroke-width="1.5" stroke-linecap="round" stroke-opacity="1.0" stroke="rgb(0, 0, 0)" stroke-linejoin="round" d=" M 279.273, 602.505 279.273, 602.505 " />
            <path fill="none" stroke-width="1.5" stroke-linecap="round" stroke-opacity="1.0" stroke="rgb(0, 0, 0)" stroke-linejoin="round" d=" M 796.444, 499.071 796.444, 499.071 " />
            <path fill="none" stroke-width="1.5" stroke-linecap="round" stroke-opacity="1.0" stroke="rgb(0, 0, 0)" stroke-linejoin="round" d=" M 796.444, 499.071 786.444, 499.071 776.444, 499.071 766.444, 499.071 756.444, 499.071 746.444, 499.071 736.444, 499.071 726.444, 499.071 716.444, 499.071 706.444, 499.071 696.444, 499.071 686.444, 499.071 676.444, 499.071 666.444, 499.071 656.444, 499.071 646.444, 499.071 636.444, 499.071 626.444, 499.071 616.444, 499.071 606.444, 499.071 596.444, 499.071 586.444, 499.071 576.444, 499.071 566.444, 499.071 556.444, 499.071 546.444, 499.071 536.444, 499.071 526.444, 499.071 516.444, 499.071 506.444, 499.071 496.444, 499.071 486.444, 499.071 476.444, 499.071 466.444, 499.071 456.444, 499.071 446.444, 499.071 436.444, 499.071 426.444, 499.071 416.444, 499.071 406.444, 499.071 396.444, 499.071 386.444, 499.071 376.444, 499.071 366.444, 499.071 356.444, 499.071 346.444, 499.071 336.444, 499.071 330.990, 499.071 330.990, 499.071 320.990, 499.071 310.990, 499.071 300.990, 499.071 290.990, 499.071 280.990, 499.071 279.273, 499.071 " />
            <path fill="none" stroke-width="1.5" stroke-linecap="round" stroke-opacity="1.0" stroke="rgb(0, 0, 0)" stroke-linejoin="round" d=" M 770.586, 602.505 780.586, 602.505 790.586, 602.505 796.445, 602.505 " />
            <path fill="none" stroke-width="1.5" stroke-linecap="round" stroke-opacity="1.0" stroke="rgb(0, 0, 0)" stroke-linejoin="round" d=" M 305.131, 602.505 315.131, 602.505 325.131, 602.505 335.131, 602.505 345.131, 602.505 355.131, 602.505 365.131, 602.505 375.131, 602.505 385.131, 602.505 395.131, 602.505 405.131, 602.505 415.131, 602.505 425.131, 602.505 435.131, 602.505 445.131, 602.505 455.131, 602.505 465.131, 602.505 475.131, 602.505 485.131, 602.505 495.131, 602.505 505.131, 602.505 515.131, 602.505 525.131, 602.505 535.131, 602.505 545.131, 602.505 555.131, 602.505 565.131, 602.505 575.131, 602.505 585.131, 602.505 595.131, 602.505 605.131, 602.505 615.131, 602.505 625.131, 602.505 635.131, 602.505 645.131, 602.505 655.131, 602.505 665.131, 602.505 675.131, 602.505 685.131, 602.505 695.131, 602.505 705.131, 602.505 715.131, 602.505 725.131, 602.505 735.131, 602.505 745.131, 602.505 755.131, 602.505 765.131, 602.505 770.586, 602.505 " />
            <path fill="none" stroke-width="1.5" stroke-linecap="round" stroke-opacity="1.0" stroke="rgb(0, 0, 0)" stroke-linejoin="round" d=" M 279.273, 602.505 289.273, 602.505 299.273, 602.505 305.131, 602.505 " />
            <path fill="none" stroke-width="1.5" stroke-linecap="round" stroke-opacity="1.0" stroke="rgb(0, 0, 0)" stroke-linejoin="round" d=" M 796.445, 499.071 796.444, 499.071 " />
        </g>
    </g>
    <g id="ViewLayer_TechnicalLines.003" inkscape:groupmode="lineset" inkscape:label="ViewLayer_TechnicalLines.003">
        <g inkscape:groupmode="layer" id="strokes" inkscape:label="strokes">
            <path fill="none" stroke-width="1.5" stroke-linecap="round" stroke-opacity="1.0" stroke="rgb(0, 0, 0)" stroke-linejoin="round" d=" M 796.445, 731.798 796.445, 721.798 796.445, 711.798 796.445, 701.798 796.445, 691.798 796.445, 681.798 796.445, 671.798 796.445, 661.798 796.445, 651.798 796.445, 641.798 796.445, 631.798 796.445, 628.364 796.444, 628.364 786.444, 628.364 776.444, 628.364 766.444, 628.364 756.444, 628.364 746.444, 628.364 736.444, 628.364 726.444, 628.364 716.444, 628.364 706.444, 628.364 696.444, 628.364 686.444, 628.364 676.444, 628.364 666.444, 628.364 656.444, 628.364 646.444, 628.364 636.444, 628.364 626.444, 628.364 616.444, 628.364 606.444, 628.364 596.444, 628.364 586.444, 628.364 576.444, 628.364 566.444, 628.364 556.444, 628.364 546.444, 628.364 536.444, 628.364 526.444, 628.364 516.444, 628.364 506.444, 628.364 496.444, 628.364 486.444, 628.364 476.444, 628.364 466.444, 628.364 456.444, 628.364 446.444, 628.364 436.444, 628.364 426.444, 628.364 416.444, 628.364 406.444, 628.364 396.444, 628.364 386.444, 628.364 376.444, 628.364 366.444, 628.364 356.444, 628.364 346.444, 628.364 336.444, 628.364 326.444, 628.364 316.444, 628.364 306.444, 628.364 296.444, 628.364 286.444, 628.364 279.273, 628.364 279.273, 638.364 279.273, 648.364 279.273, 658.364 279.273, 668.364 279.273, 678.364 279.273, 688.364 279.273, 698.364 279.273, 708.364 279.273, 718.364 279.273, 728.364 279.273, 731.798 279.273, 731.798 289.273, 731.798 299.273, 731.798 309.273, 731.798 319.273, 731.798 329.273, 731.798 339.273, 731.798 349.273, 731.798 359.273, 731.798 369.273, 731.798 379.273, 731.798 389.273, 731.798 399.273, 731.798 409.273, 731.798 419.273, 731.798 429.273, 731.798 439.273, 731.798 449.273, 731.798 459.273, 731.798 469.273, 731.798 479.273, 731.798 489.273, 731.798 499.273, 731.798 509.273, 731.798 519.273, 731.798 529.273, 731.798 539.273, 731.798 549.273, 731.798 559.273, 731.798 569.273, 731.798 579.273, 731.798 589.273, 731.798 599.273, 731.798 609.273, 731.798 619.273, 731.798 629.273, 731.798 639.273, 731.798 649.273, 731.798 659.273, 731.798 669.273, 731.798 679.273, 731.798 689.273, 731.798 699.273, 731.798 709.273, 731.798 719.273, 731.798 729.273, 731.798 739.273, 731.798 749.273, 731.798 759.273, 731.798 769.273, 731.798 779.273, 731.798 789.273, 731.798 796.445, 731.798 " />
            <path fill="none" stroke-width="1.5" stroke-linecap="round" stroke-opacity="1.0" stroke="rgb(0, 0, 0)" stroke-linejoin="round" d=" M 796.444, 628.364 796.444, 638.364 796.444, 648.364 796.444, 658.364 796.444, 668.364 796.444, 678.364 796.444, 688.364 796.444, 698.364 796.444, 708.364 796.444, 718.364 796.444, 728.364 796.444, 731.798 " />
            <path fill="none" stroke-width="1.5" stroke-linecap="round" stroke-opacity="1.0" stroke="rgb(0, 0, 0)" stroke-linejoin="round" d=" M 279.273, 731.798 289.273, 731.798 299.273, 731.798 309.273, 731.798 319.273, 731.798 329.273, 731.798 339.273, 731.798 349.273, 731.798 359.273, 731.798 369.273, 731.798 379.273, 731.798 389.273, 731.798 399.273, 731.798 409.273, 731.798 419.273, 731.798 429.273, 731.798 439.273, 731.798 449.273, 731.798 459.273, 731.798 469.273, 731.798 479.273, 731.798 489.273, 731.798 499.273, 731.798 509.273, 731.798 519.273, 731.798 529.273, 731.798 539.273, 731.798 549.273, 731.798 559.273, 731.798 569.273, 731.798 579.273, 731.798 589.273, 731.798 599.273, 731.798 609.273, 731.798 619.273, 731.798 629.273, 731.798 639.273, 731.798 649.273, 731.798 659.273, 731.798 669.273, 731.798 679.273, 731.798 689.273, 731.798 699.273, 731.798 709.273, 731.798 719.273, 731.798 729.273, 731.798 739.273, 731.798 749.273, 731.798 759.273, 731.798 769.273, 731.798 779.273, 731.798 789.273, 731.798 796.444, 731.798 796.445, 731.798 " />
            <path fill="none" stroke-width="1.5" stroke-linecap="round" stroke-opacity="1.0" stroke="rgb(0, 0, 0)" stroke-linejoin="round" d=" M 330.990, 499.071 330.990, 489.071 330.990, 479.071 330.990, 469.071 330.990, 459.071 330.990, 449.071 330.990, 439.071 330.990, 429.071 330.990, 419.071 330.990, 409.071 330.990, 399.071 330.990, 389.071 330.990, 379.071 330.990, 369.071 330.990, 359.071 330.990, 349.071 330.990, 339.071 330.990, 329.071 330.990, 319.071 330.990, 309.071 330.990, 299.071 330.990, 292.202 330.990, 292.202 320.990, 292.202 310.990, 292.202 300.990, 292.202 290.990, 292.202 280.990, 292.202 270.990, 292.202 260.990, 292.202 250.990, 292.202 240.990, 292.202 230.990, 292.202 227.556, 292.202 227.556, 302.202 227.556, 312.202 227.556, 322.202 227.556, 332.202 227.556, 342.202 227.556, 352.202 227.556, 362.202 227.556, 372.202 227.556, 382.202 227.556, 392.202 227.556, 402.202 227.556, 412.202 227.556, 422.202 227.556, 432.202 227.556, 442.202 227.556, 452.202 227.556, 462.202 227.556, 472.202 227.556, 482.202 227.556, 492.202 227.556, 502.202 227.556, 512.202 227.556, 522.202 227.556, 532.202 227.556, 542.202 227.556, 550.788 227.556, 550.788 237.556, 550.788 247.556, 550.788 257.556, 550.788 267.556, 550.788 277.556, 550.788 279.273, 550.788 " />
            <path fill="none" stroke-width="1.5" stroke-linecap="round" stroke-opacity="1.0" stroke="rgb(0, 0, 0)" stroke-linejoin="round" d=" M 330.990, 292.202 330.990, 302.202 330.990, 312.202 330.990, 322.202 330.990, 332.202 330.990, 342.202 330.990, 352.202 330.990, 362.202 330.990, 372.202 330.990, 382.202 330.990, 392.202 330.990, 402.202 330.990, 412.202 330.990, 422.202 330.990, 432.202 330.990, 442.202 330.990, 452.202 330.990, 462.202 330.990, 472.202 330.990, 482.202 330.990, 492.202 330.990, 499.071 " />
            <path fill="none" stroke-width="1.5" stroke-linecap="round" stroke-opacity="1.0" stroke="rgb(0, 0, 0)" stroke-linejoin="round" d=" M 227.556, 550.788 237.556, 550.788 247.556, 550.788 257.556, 550.788 267.556, 550.788 277.556, 550.788 279.273, 550.788 " />
            <path fill="none" stroke-width="1.5" stroke-linecap="round" stroke-opacity="1.0" stroke="rgb(0, 0, 0)" stroke-linejoin="round" d=" M 796.445, 602.505 796.445, 592.505 796.445, 582.505 796.445, 572.505 796.445, 562.505 796.445, 552.505 796.445, 542.505 796.445, 532.505 796.445, 522.505 796.445, 512.505 796.445, 502.505 796.445, 499.071 " />
            <path fill="none" stroke-width="1.5" stroke-linecap="round" stroke-opacity="1.0" stroke="rgb(0, 0, 0)" stroke-linejoin="round" d=" M 796.444, 602.505 796.444, 592.505 796.444, 582.505 796.444, 572.505 796.444, 562.505 796.444, 552.505 796.444, 542.505 796.444, 532.505 796.444, 522.505 796.444, 512.505 796.444, 502.505 796.444, 499.071 " />
            <path fill="none" stroke-width="1.5" stroke-linecap="round" stroke-opacity="1.0" stroke="rgb(0, 0, 0)" stroke-linejoin="round" d=" M 305.131, 602.505 315.131, 602.505 325.131, 602.505 335.131, 602.505 345.131, 602.505 355.131, 602.505 365.131, 602.505 375.131, 602.505 385.131, 602.505 395.131, 602.505 405.131, 602.505 415.131, 602.505 425.131, 602.505 435.131, 602.505 445.131, 602.505 455.131, 602.505 465.131, 602.505 475.131, 602.505 485.131, 602.505 495.131, 602.505 505.131, 602.505 515.131, 602.505 525.131, 602.505 535.131, 602.505 545.131, 602.505 555.131, 602.505 565.131, 602.505 575.131, 602.505 585.131, 602.505 595.131, 602.505 605.131, 602.505 615.131, 602.505 625.131, 602.505 635.131, 602.505 645.131, 602.505 655.131, 602.505 665.131, 602.505 675.131, 602.505 685.131, 602.505 695.131, 602.505 705.131, 602.505 715.131, 602.505 725.131, 602.505 735.131, 602.505 745.131, 602.505 755.131, 602.505 765.131, 602.505 770.586, 602.505 " />
            <path fill="none" stroke-width="1.5" stroke-linecap="round" stroke-opacity="1.0" stroke="rgb(0, 0, 0)" stroke-linejoin="round" d=" M 770.586, 602.505 770.586, 602.505 " />
            <path fill="none" stroke-width="1.5" stroke-linecap="round" stroke-opacity="1.0" stroke="rgb(0, 0, 0)" stroke-linejoin="round" d=" M 305.131, 602.505 315.131, 602.505 325.131, 602.505 335.131, 602.505 345.131, 602.505 355.131, 602.505 365.131, 602.505 375.131, 602.505 385.131, 602.505 395.131, 602.505 405.131, 602.505 415.131, 602.505 425.131, 602.505 435.131, 602.505 445.131, 602.505 455.131, 602.505 465.131, 602.505 475.131, 602.505 485.131, 602.505 495.131, 602.505 505.131, 602.505 515.131, 602.505 525.131, 602.505 535.131, 602.505 545.131, 602.505 555.131, 602.505 565.131, 602.505 575.131, 602.505 585.131, 602.505 595.131, 602.505 605.131, 602.505 615.131, 602.505 625.131, 602.505 635.131, 602.505 645.131, 602.505 655.131, 602.505 665.131, 602.505 675.131, 602.505 685.131, 602.505 695.131, 602.505 705.131, 602.505 715.131, 602.505 725.131, 602.505 735.131, 602.505 745.131, 602.505 755.131, 602.505 765.131, 602.505 770.586, 602.505 770.586, 602.505 " />
            <path fill="none" stroke-width="1.5" stroke-linecap="round" stroke-opacity="1.0" stroke="rgb(0, 0, 0)" stroke-linejoin="round" d=" M 305.131, 602.505 305.131, 602.505 305.131, 602.505 " />
            <path fill="none" stroke-width="1.5" stroke-linecap="round" stroke-opacity="1.0" stroke="rgb(0, 0, 0)" stroke-linejoin="round" d=" M 279.273, 499.071 279.273, 509.071 279.273, 519.071 279.273, 529.071 279.273, 539.071 279.273, 549.071 279.273, 550.788 279.273, 550.788 279.273, 560.788 279.273, 570.788 279.273, 580.788 279.273, 590.788 279.273, 600.788 279.273, 602.505 " />
            <path fill="none" stroke-width="1.5" stroke-linecap="round" stroke-opacity="1.0" stroke="rgb(0, 0, 0)" stroke-linejoin="round" d=" M 279.273, 602.505 279.273, 602.505 " />
            <path fill="none" stroke-width="1.5" stroke-linecap="round" stroke-opacity="1.0" stroke="rgb(0, 0, 0)" stroke-linejoin="round" d=" M 305.131, 602.505 305.131, 602.505 " />
            <path fill="none" stroke-width="1.5" stroke-linecap="round" stroke-opacity="1.0" stroke="rgb(0, 0, 0)" stroke-linejoin="round" d=" M 770.586, 602.505 770.586, 602.505 " />
            <path fill="none" stroke-width="1.5" stroke-linecap="round" stroke-opacity="1.0" stroke="rgb(0, 0, 0)" stroke-linejoin="round" d=" M 279.273, 602.505 289.273, 602.505 299.273, 602.505 305.131, 602.505 305.131, 602.505 315.131, 602.505 325.131, 602.505 335.131, 602.505 345.131, 602.505 355.131, 602.505 365.131, 602.505 375.131, 602.505 385.131, 602.505 395.131, 602.505 405.131, 602.505 415.131, 602.505 425.131, 602.505 435.131, 602.505 445.131, 602.505 455.131, 602.505 465.131, 602.505 475.131, 602.505 485.131, 602.505 495.131, 602.505 505.131, 602.505 515.131, 602.505 525.131, 602.505 535.131, 602.505 545.131, 602.505 555.131, 602.505 565.131, 602.505 575.131, 602.505 585.131, 602.505 595.131, 602.505 605.131, 602.505 615.131, 602.505 625.131, 602.505 635.131, 602.505 645.131, 602.505 655.131, 602.505 665.131, 602.505 675.131, 602.505 685.131, 602.505 695.131, 602.505 705.131, 602.505 715.131, 602.505 725.131, 602.505 735.131, 602.505 745.131, 602.505 755.131, 602.505 765.131, 602.505 770.586, 602.505 770.586, 602.505 780.586, 602.505 790.586, 602.505 796.444, 602.505 " />
            <path fill="none" stroke-width="1.5" stroke-linecap="round" stroke-opacity="1.0" stroke="rgb(0, 0, 0)" stroke-linejoin="round" d=" M 279.273, 602.505 279.273, 602.505 " />
            <path fill="none" stroke-width="1.5" stroke-linecap="round" stroke-opacity="1.0" stroke="rgb(0, 0, 0)" stroke-linejoin="round" d=" M 796.444, 499.071 796.444, 499.071 " />
            <path fill="none" stroke-width="1.5" stroke-linecap="round" stroke-opacity="1.0" stroke="rgb(0, 0, 0)" stroke-linejoin="round" d=" M 796.444, 499.071 786.444, 499.071 776.444, 499.071 766.444, 499.071 756.444, 499.071 746.444, 499.071 736.444, 499.071 726.444, 499.071 716.444, 499.071 706.444, 499.071 696.444, 499.071 686.444, 499.071 676.444, 499.071 666.444, 499.071 656.444, 499.071 646.444, 499.071 636.444, 499.071 626.444, 499.071 616.444, 499.071 606.444, 499.071 596.444, 499.071 586.444, 499.071 576.444, 499.071 566.444, 499.071 556.444, 499.071 546.444, 499.071 536.444, 499.071 526.444, 499.071 516.444, 499.071 506.444, 499.071 496.444, 499.071 486.444, 499.071 476.444, 499.071 466.444, 499.071 456.444, 499.071 446.444, 499.071 436.444, 499.071 426.444, 499.071 416.444, 499.071 406.444, 499.071 396.444, 499.071 386.444, 499.071 376.444, 499.071 366.444, 499.071 356.444, 499.071 346.444, 499.071 336.444, 499.071 330.990, 499.071 330.990, 499.071 320.990, 499.071 310.990, 499.071 300.990, 499.071 290.990, 499.071 280.990, 499.071 279.273, 499.071 " />
            <path fill="none" stroke-width="1.5" stroke-linecap="round" stroke-opacity="1.0" stroke="rgb(0, 0, 0)" stroke-linejoin="round" d=" M 770.586, 602.505 780.586, 602.505 790.586, 602.505 796.445, 602.505 " />
            <path fill="none" stroke-width="1.5" stroke-linecap="round" stroke-opacity="1.0" stroke="rgb(0, 0, 0)" stroke-linejoin="round" d=" M 305.131, 602.505 315.131, 602.505 325.131, 602.505 335.131, 602.505 345.131, 602.505 355.131, 602.505 365.131, 602.505 375.131, 602.505 385.131, 602.505 395.131, 602.505 405.131, 602.505 415.131, 602.505 425.131, 602.505 435.131, 602.505 445.131, 602.505 455.131, 602.505 465.131, 602.505 475.131, 602.505 485.131, 602.505 495.131, 602.505 505.131, 602.505 515.131, 602.505 525.131, 602.505 535.131, 602.505 545.131, 602.505 555.131, 602.505 565.131, 602.505 575.131, 602.505 585.131, 602.505 595.131, 602.505 605.131, 602.505 615.131, 602.505 625.131, 602.505 635.131, 602.505 645.131, 602.505 655.131, 602.505 665.131, 602.505 675.131, 602.505 685.131, 602.505 695.131, 602.505 705.131, 602.505 715.131, 602.505 725.131, 602.505 735.131, 602.505 745.131, 602.505 755.131, 602.505 765.131, 602.505 770.586, 602.505 " />
            <path fill="none" stroke-width="1.5" stroke-linecap="round" stroke-opacity="1.0" stroke="rgb(0, 0, 0)" stroke-linejoin="round" d=" M 279.273, 602.505 289.273, 602.505 299.273, 602.505 305.131, 602.505 " />
            <path fill="none" stroke-width="1.5" stroke-linecap="round" stroke-opacity="1.0" stroke="rgb(0, 0, 0)" stroke-linejoin="round" d=" M 796.445, 499.071 796.444, 499.071 " />
        </g>
    </g>
    <g id="ViewLayer_TechnicalLines.004" xmlns:inkscape="http://www.inkscape.org/namespaces/inkscape" inkscape:groupmode="lineset" inkscape:label="ViewLayer_TechnicalLines.004">
        <g xmlns:inkscape="http://www.inkscape.org/namespaces/inkscape" inkscape:groupmode="layer" id="strokes" inkscape:label="strokes">
            <path fill="none" stroke-width="1.5" stroke-linecap="round" stroke-opacity="1.0" stroke="rgb(0, 0, 0)" stroke-linejoin="round" d=" M 796.445, 731.798 796.445, 721.798 796.445, 711.798 796.445, 701.798 796.445, 691.798 796.445, 681.798 796.445, 671.798 796.445, 661.798 796.445, 651.798 796.445, 641.798 796.445, 631.798 796.445, 628.364 796.444, 628.364 786.444, 628.364 776.444, 628.364 766.444, 628.364 756.444, 628.364 746.444, 628.364 736.444, 628.364 726.444, 628.364 716.444, 628.364 706.444, 628.364 696.444, 628.364 686.444, 628.364 676.444, 628.364 666.444, 628.364 656.444, 628.364 646.444, 628.364 636.444, 628.364 626.444, 628.364 616.444, 628.364 606.444, 628.364 596.444, 628.364 586.444, 628.364 576.444, 628.364 566.444, 628.364 556.444, 628.364 546.444, 628.364 536.444, 628.364 526.444, 628.364 516.444, 628.364 506.444, 628.364 496.444, 628.364 486.444, 628.364 476.444, 628.364 466.444, 628.364 456.444, 628.364 446.444, 628.364 436.444, 628.364 426.444, 628.364 416.444, 628.364 406.444, 628.364 396.444, 628.364 386.444, 628.364 376.444, 628.364 366.444, 628.364 356.444, 628.364 346.444, 628.364 336.444, 628.364 326.444, 628.364 316.444, 628.364 306.444, 628.364 296.444, 628.364 286.444, 628.364 279.273, 628.364 279.273, 638.364 279.273, 648.364 279.273, 658.364 279.273, 668.364 279.273, 678.364 279.273, 688.364 279.273, 698.364 279.273, 708.364 279.273, 718.364 279.273, 728.364 279.273, 731.798 279.273, 731.798 289.273, 731.798 299.273, 731.798 309.273, 731.798 319.273, 731.798 329.273, 731.798 339.273, 731.798 349.273, 731.798 359.273, 731.798 369.273, 731.798 379.273, 731.798 389.273, 731.798 399.273, 731.798 409.273, 731.798 419.273, 731.798 429.273, 731.798 439.273, 731.798 449.273, 731.798 459.273, 731.798 469.273, 731.798 479.273, 731.798 489.273, 731.798 499.273, 731.798 509.273, 731.798 519.273, 731.798 529.273, 731.798 539.273, 731.798 549.273, 731.798 559.273, 731.798 569.273, 731.798 579.273, 731.798 589.273, 731.798 599.273, 731.798 609.273, 731.798 619.273, 731.798 629.273, 731.798 639.273, 731.798 649.273, 731.798 659.273, 731.798 669.273, 731.798 679.273, 731.798 689.273, 731.798 699.273, 731.798 709.273, 731.798 719.273, 731.798 729.273, 731.798 739.273, 731.798 749.273, 731.798 759.273, 731.798 769.273, 731.798 779.273, 731.798 789.273, 731.798 796.445, 731.798 " />
            <path fill="none" stroke-width="1.5" stroke-linecap="round" stroke-opacity="1.0" stroke="rgb(0, 0, 0)" stroke-linejoin="round" d=" M 796.444, 628.364 796.444, 638.364 796.444, 648.364 796.444, 658.364 796.444, 668.364 796.444, 678.364 796.444, 688.364 796.444, 698.364 796.444, 708.364 796.444, 718.364 796.444, 728.364 796.444, 731.798 " />
            <path fill="none" stroke-width="1.5" stroke-linecap="round" stroke-opacity="1.0" stroke="rgb(0, 0, 0)" stroke-linejoin="round" d=" M 279.273, 731.798 289.273, 731.798 299.273, 731.798 309.273, 731.798 319.273, 731.798 329.273, 731.798 339.273, 731.798 349.273, 731.798 359.273, 731.798 369.273, 731.798 379.273, 731.798 389.273, 731.798 399.273, 731.798 409.273, 731.798 419.273, 731.798 429.273, 731.798 439.273, 731.798 449.273, 731.798 459.273, 731.798 469.273, 731.798 479.273, 731.798 489.273, 731.798 499.273, 731.798 509.273, 731.798 519.273, 731.798 529.273, 731.798 539.273, 731.798 549.273, 731.798 559.273, 731.798 569.273, 731.798 579.273, 731.798 589.273, 731.798 599.273, 731.798 609.273, 731.798 619.273, 731.798 629.273, 731.798 639.273, 731.798 649.273, 731.798 659.273, 731.798 669.273, 731.798 679.273, 731.798 689.273, 731.798 699.273, 731.798 709.273, 731.798 719.273, 731.798 729.273, 731.798 739.273, 731.798 749.273, 731.798 759.273, 731.798 769.273, 731.798 779.273, 731.798 789.273, 731.798 796.444, 731.798 796.445, 731.798 " />
            <path fill="none" stroke-width="1.5" stroke-linecap="round" stroke-opacity="1.0" stroke="rgb(0, 0, 0)" stroke-linejoin="round" d=" M 330.990, 499.071 330.990, 489.071 330.990, 479.071 330.990, 469.071 330.990, 459.071 330.990, 449.071 330.990, 439.071 330.990, 429.071 330.990, 419.071 330.990, 409.071 330.990, 399.071 330.990, 389.071 330.990, 379.071 330.990, 369.071 330.990, 359.071 330.990, 349.071 330.990, 339.071 330.990, 329.071 330.990, 319.071 330.990, 309.071 330.990, 299.071 330.990, 292.202 330.990, 292.202 320.990, 292.202 310.990, 292.202 300.990, 292.202 290.990, 292.202 280.990, 292.202 270.990, 292.202 260.990, 292.202 250.990, 292.202 240.990, 292.202 230.990, 292.202 227.556, 292.202 227.556, 302.202 227.556, 312.202 227.556, 322.202 227.556, 332.202 227.556, 342.202 227.556, 352.202 227.556, 362.202 227.556, 372.202 227.556, 382.202 227.556, 392.202 227.556, 402.202 227.556, 412.202 227.556, 422.202 227.556, 432.202 227.556, 442.202 227.556, 452.202 227.556, 462.202 227.556, 472.202 227.556, 482.202 227.556, 492.202 227.556, 502.202 227.556, 512.202 227.556, 522.202 227.556, 532.202 227.556, 542.202 227.556, 550.788 227.556, 550.788 237.556, 550.788 247.556, 550.788 257.556, 550.788 267.556, 550.788 277.556, 550.788 279.273, 550.788 " />
            <path fill="none" stroke-width="1.5" stroke-linecap="round" stroke-opacity="1.0" stroke="rgb(0, 0, 0)" stroke-linejoin="round" d=" M 330.990, 292.202 330.990, 302.202 330.990, 312.202 330.990, 322.202 330.990, 332.202 330.990, 342.202 330.990, 352.202 330.990, 362.202 330.990, 372.202 330.990, 382.202 330.990, 392.202 330.990, 402.202 330.990, 412.202 330.990, 422.202 330.990, 432.202 330.990, 442.202 330.990, 452.202 330.990, 462.202 330.990, 472.202 330.990, 482.202 330.990, 492.202 330.990, 499.071 " />
            <path fill="none" stroke-width="1.5" stroke-linecap="round" stroke-opacity="1.0" stroke="rgb(0, 0, 0)" stroke-linejoin="round" d=" M 227.556, 550.788 237.556, 550.788 247.556, 550.788 257.556, 550.788 267.556, 550.788 277.556, 550.788 279.273, 550.788 " />
            <path fill="none" stroke-width="1.5" stroke-linecap="round" stroke-opacity="1.0" stroke="rgb(0, 0, 0)" stroke-linejoin="round" d=" M 796.445, 602.505 796.445, 592.505 796.445, 582.505 796.445, 572.505 796.445, 562.505 796.445, 552.505 796.445, 542.505 796.445, 532.505 796.445, 522.505 796.445, 512.505 796.445, 502.505 796.445, 499.071 " />
            <path fill="none" stroke-width="1.5" stroke-linecap="round" stroke-opacity="1.0" stroke="rgb(0, 0, 0)" stroke-linejoin="round" d=" M 796.444, 602.505 796.444, 592.505 796.444, 582.505 796.444, 572.505 796.444, 562.505 796.444, 552.505 796.444, 542.505 796.444, 532.505 796.444, 522.505 796.444, 512.505 796.444, 502.505 796.444, 499.071 " />
            <path fill="none" stroke-width="1.5" stroke-linecap="round" stroke-opacity="1.0" stroke="rgb(0, 0, 0)" stroke-linejoin="round" d=" M 305.131, 602.505 315.131, 602.505 325.131, 602.505 335.131, 602.505 345.131, 602.505 355.131, 602.505 365.131, 602.505 375.131, 602.505 385.131, 602.505 395.131, 602.505 405.131, 602.505 415.131, 602.505 425.131, 602.505 435.131, 602.505 445.131, 602.505 455.131, 602.505 465.131, 602.505 475.131, 602.505 485.131, 602.505 495.131, 602.505 505.131, 602.505 515.131, 602.505 525.131, 602.505 535.131, 602.505 545.131, 602.505 555.131, 602.505 565.131, 602.505 575.131, 602.505 585.131, 602.505 595.131, 602.505 605.131, 602.505 615.131, 602.505 625.131, 602.505 635.131, 602.505 645.131, 602.505 655.131, 602.505 665.131, 602.505 675.131, 602.505 685.131, 602.505 695.131, 602.505 705.131, 602.505 715.131, 602.505 725.131, 602.505 735.131, 602.505 745.131, 602.505 755.131, 602.505 765.131, 602.505 770.586, 602.505 " />
            <path fill="none" stroke-width="1.5" stroke-linecap="round" stroke-opacity="1.0" stroke="rgb(0, 0, 0)" stroke-linejoin="round" d=" M 770.586, 602.505 770.586, 602.505 " />
            <path fill="none" stroke-width="1.5" stroke-linecap="round" stroke-opacity="1.0" stroke="rgb(0, 0, 0)" stroke-linejoin="round" d=" M 305.131, 602.505 315.131, 602.505 325.131, 602.505 335.131, 602.505 345.131, 602.505 355.131, 602.505 365.131, 602.505 375.131, 602.505 385.131, 602.505 395.131, 602.505 405.131, 602.505 415.131, 602.505 425.131, 602.505 435.131, 602.505 445.131, 602.505 455.131, 602.505 465.131, 602.505 475.131, 602.505 485.131, 602.505 495.131, 602.505 505.131, 602.505 515.131, 602.505 525.131, 602.505 535.131, 602.505 545.131, 602.505 555.131, 602.505 565.131, 602.505 575.131, 602.505 585.131, 602.505 595.131, 602.505 605.131, 602.505 615.131, 602.505 625.131, 602.505 635.131, 602.505 645.131, 602.505 655.131, 602.505 665.131, 602.505 675.131, 602.505 685.131, 602.505 695.131, 602.505 705.131, 602.505 715.131, 602.505 725.131, 602.505 735.131, 602.505 745.131, 602.505 755.131, 602.505 765.131, 602.505 770.586, 602.505 770.586, 602.505 " />
            <path fill="none" stroke-width="1.5" stroke-linecap="round" stroke-opacity="1.0" stroke="rgb(0, 0, 0)" stroke-linejoin="round" d=" M 305.131, 602.505 305.131, 602.505 305.131, 602.505 " />
            <path fill="none" stroke-width="1.5" stroke-linecap="round" stroke-opacity="1.0" stroke="rgb(0, 0, 0)" stroke-linejoin="round" d=" M 279.273, 499.071 279.273, 509.071 279.273, 519.071 279.273, 529.071 279.273, 539.071 279.273, 549.071 279.273, 550.788 279.273, 550.788 279.273, 560.788 279.273, 570.788 279.273, 580.788 279.273, 590.788 279.273, 600.788 279.273, 602.505 " />
            <path fill="none" stroke-width="1.5" stroke-linecap="round" stroke-opacity="1.0" stroke="rgb(0, 0, 0)" stroke-linejoin="round" d=" M 279.273, 602.505 279.273, 602.505 " />
            <path fill="none" stroke-width="1.5" stroke-linecap="round" stroke-opacity="1.0" stroke="rgb(0, 0, 0)" stroke-linejoin="round" d=" M 305.131, 602.505 305.131, 602.505 " />
            <path fill="none" stroke-width="1.5" stroke-linecap="round" stroke-opacity="1.0" stroke="rgb(0, 0, 0)" stroke-linejoin="round" d=" M 770.586, 602.505 770.586, 602.505 " />
            <path fill="none" stroke-width="1.5" stroke-linecap="round" stroke-opacity="1.0" stroke="rgb(0, 0, 0)" stroke-linejoin="round" d=" M 279.273, 602.505 289.273, 602.505 299.273, 602.505 305.131, 602.505 305.131, 602.505 315.131, 602.505 325.131, 602.505 335.131, 602.505 345.131, 602.505 355.131, 602.505 365.131, 602.505 375.131, 602.505 385.131, 602.505 395.131, 602.505 405.131, 602.505 415.131, 602.505 425.131, 602.505 435.131, 602.505 445.131, 602.505 455.131, 602.505 465.131, 602.505 475.131, 602.505 485.131, 602.505 495.131, 602.505 505.131, 602.505 515.131, 602.505 525.131, 602.505 535.131, 602.505 545.131, 602.505 555.131, 602.505 565.131, 602.505 575.131, 602.505 585.131, 602.505 595.131, 602.505 605.131, 602.505 615.131, 602.505 625.131, 602.505 635.131, 602.505 645.131, 602.505 655.131, 602.505 665.131, 602.505 675.131, 602.505 685.131, 602.505 695.131, 602.505 705.131, 602.505 715.131, 602.505 725.131, 602.505 735.131, 602.505 745.131, 602.505 755.131, 602.505 765.131, 602.505 770.586, 602.505 770.586, 602.505 780.586, 602.505 790.586, 602.505 796.444, 602.505 " />
            <path fill="none" stroke-width="1.5" stroke-linecap="round" stroke-opacity="1.0" stroke="rgb(0, 0, 0)" stroke-linejoin="round" d=" M 279.273, 602.505 279.273, 602.505 " />
            <path fill="none" stroke-width="1.5" stroke-linecap="round" stroke-opacity="1.0" stroke="rgb(0, 0, 0)" stroke-linejoin="round" d=" M 796.444, 499.071 796.444, 499.071 " />
            <path fill="none" stroke-width="1.5" stroke-linecap="round" stroke-opacity="1.0" stroke="rgb(0, 0, 0)" stroke-linejoin="round" d=" M 796.444, 499.071 786.444, 499.071 776.444, 499.071 766.444, 499.071 756.444, 499.071 746.444, 499.071 736.444, 499.071 726.444, 499.071 716.444, 499.071 706.444, 499.071 696.444, 499.071 686.444, 499.071 676.444, 499.071 666.444, 499.071 656.444, 499.071 646.444, 499.071 636.444, 499.071 626.444, 499.071 616.444, 499.071 606.444, 499.071 596.444, 499.071 586.444, 499.071 576.444, 499.071 566.444, 499.071 556.444, 499.071 546.444, 499.071 536.444, 499.071 526.444, 499.071 516.444, 499.071 506.444, 499.071 496.444, 499.071 486.444, 499.071 476.444, 499.071 466.444, 499.071 456.444, 499.071 446.444, 499.071 436.444, 499.071 426.444, 499.071 416.444, 499.071 406.444, 499.071 396.444, 499.071 386.444, 499.071 376.444, 499.071 366.444, 499.071 356.444, 499.071 346.444, 499.071 336.444, 499.071 330.990, 499.071 330.990, 499.071 320.990, 499.071 310.990, 499.071 300.990, 499.071 290.990, 499.071 280.990, 499.071 279.273, 499.071 " />
            <path fill="none" stroke-width="1.5" stroke-linecap="round" stroke-opacity="1.0" stroke="rgb(0, 0, 0)" stroke-linejoin="round" d=" M 770.586, 602.505 780.586, 602.505 790.586, 602.505 796.445, 602.505 " />
            <path fill="none" stroke-width="1.5" stroke-linecap="round" stroke-opacity="1.0" stroke="rgb(0, 0, 0)" stroke-linejoin="round" d=" M 305.131, 602.505 315.131, 602.505 325.131, 602.505 335.131, 602.505 345.131, 602.505 355.131, 602.505 365.131, 602.505 375.131, 602.505 385.131, 602.505 395.131, 602.505 405.131, 602.505 415.131, 602.505 425.131, 602.505 435.131, 602.505 445.131, 602.505 455.131, 602.505 465.131, 602.505 475.131, 602.505 485.131, 602.505 495.131, 602.505 505.131, 602.505 515.131, 602.505 525.131, 602.505 535.131, 602.505 545.131, 602.505 555.131, 602.505 565.131, 602.505 575.131, 602.505 585.131, 602.505 595.131, 602.505 605.131, 602.505 615.131, 602.505 625.131, 602.505 635.131, 602.505 645.131, 602.505 655.131, 602.505 665.131, 602.505 675.131, 602.505 685.131, 602.505 695.131, 602.505 705.131, 602.505 715.131, 602.505 725.131, 602.505 735.131, 602.505 745.131, 602.505 755.131, 602.505 765.131, 602.505 770.586, 602.505 " />
            <path fill="none" stroke-width="1.5" stroke-linecap="round" stroke-opacity="1.0" stroke="rgb(0, 0, 0)" stroke-linejoin="round" d=" M 279.273, 602.505 289.273, 602.505 299.273, 602.505 305.131, 602.505 " />
            <path fill="none" stroke-width="1.5" stroke-linecap="round" stroke-opacity="1.0" stroke="rgb(0, 0, 0)" stroke-linejoin="round" d=" M 796.445, 499.071 796.444, 499.071 " />
        </g>
    </g>
</svg>
