<?xml version='1.0' encoding='ascii'?>
<svg xmlns="http://www.w3.org/2000/svg" xmlns:inkscape="http://www.inkscape.org/namespaces/inkscape" version="1.1" width="1024" height="1024">
    <g id="ViewLayer_LineSet" inkscape:groupmode="lineset" inkscape:label="ViewLayer_LineSet">
        <g inkscape:groupmode="layer" id="strokes" inkscape:label="strokes">
            <path fill="none" stroke-width="3.0" stroke-linecap="butt" stroke-opacity="1.0" stroke="rgb(0, 0, 0)" stroke-linejoin="round" d=" M 399.825, 796.445 400.133, 796.445 401.045, 796.445 402.525, 796.445 404.518, 796.445 406.947, 796.445 409.717, 796.445 412.723, 796.445 415.850, 796.445 418.976, 796.445 421.982, 796.445 424.753, 796.445 427.181, 796.445 429.174, 796.445 430.655, 796.445 431.567, 796.445 431.875, 796.445 431.875, 786.445 431.875, 776.445 431.875, 766.445 431.875, 756.445 431.875, 746.445 431.875, 736.445 431.875, 726.445 431.875, 716.445 431.875, 706.445 431.875, 696.445 431.875, 686.445 431.875, 676.444 431.875, 666.445 431.875, 656.445 431.875, 646.444 431.875, 638.999 " />
            <path fill="none" stroke-width="3.0" stroke-linecap="butt" stroke-opacity="1.0" stroke="rgb(0, 0, 0)" stroke-linejoin="round" d=" M 431.875, 633.390 431.875, 623.390 431.875, 613.390 431.875, 603.390 431.875, 593.390 431.875, 583.390 431.875, 573.390 431.875, 563.390 431.875, 553.390 431.875, 543.390 431.875, 533.390 431.875, 523.390 431.875, 513.390 431.875, 503.390 431.875, 493.390 431.875, 483.390 431.875, 475.944 431.567, 475.944 430.655, 475.944 429.174, 475.944 427.181, 475.944 424.753, 475.944 421.982, 475.944 418.976, 475.944 415.850, 475.944 412.723, 475.944 409.717, 475.944 406.947, 475.944 404.518, 475.944 402.525, 475.944 401.045, 475.944 400.133, 475.944 399.825, 475.944 399.825, 485.944 399.825, 495.944 399.825, 505.944 399.825, 515.944 399.825, 525.944 399.825, 535.944 399.825, 545.944 399.825, 555.944 399.825, 565.944 399.825, 575.944 399.825, 585.944 399.825, 595.944 399.825, 605.944 399.825, 615.944 399.825, 625.944 399.825, 635.944 399.825, 645.944 399.825, 655.944 399.825, 665.944 399.825, 675.944 399.825, 685.944 399.825, 695.944 399.825, 705.944 399.825, 715.944 399.825, 725.944 399.825, 735.944 399.825, 745.944 399.825, 755.944 399.825, 765.944 399.825, 775.944 399.825, 785.944 399.825, 796.445 " />
            <path fill="none" stroke-width="3.0" stroke-linecap="butt" stroke-opacity="1.0" stroke="rgb(0, 0, 0)" stroke-linejoin="round" d=" M 592.125, 796.445 592.433, 796.445 593.345, 796.445 594.826, 796.445 596.819, 796.445 599.247, 796.445 602.018, 796.445 605.024, 796.445 608.150, 796.445 611.277, 796.445 614.283, 796.445 617.053, 796.445 619.482, 796.445 621.475, 796.445 622.955, 796.445 623.867, 796.445 624.175, 796.445 624.175, 786.445 624.175, 776.445 624.175, 766.445 624.175, 756.445 624.175, 746.445 624.175, 736.445 624.175, 726.445 624.175, 716.445 624.175, 706.445 624.175, 696.445 624.175, 686.445 624.175, 676.445 624.175, 666.445 624.175, 656.445 624.175, 646.445 624.175, 636.445 624.175, 626.445 624.175, 616.445 624.175, 606.445 624.175, 596.444 624.175, 586.445 624.175, 576.445 624.175, 566.445 624.175, 556.444 624.175, 546.444 624.175, 536.445 624.175, 526.445 624.175, 516.445 624.175, 506.445 624.175, 496.445 624.175, 486.445 624.175, 475.944 623.867, 475.944 622.955, 475.944 621.475, 475.944 619.482, 475.944 617.053, 475.944 614.283, 475.944 611.277, 475.944 608.150, 475.944 605.024, 475.944 602.018, 475.944 599.247, 475.944 596.819, 475.944 594.826, 475.944 593.345, 475.944 592.433, 475.944 592.125, 475.944 " />
            <path fill="none" stroke-width="3.0" stroke-linecap="butt" stroke-opacity="1.0" stroke="rgb(0, 0, 0)" stroke-linejoin="round" d=" M 399.825, 454.310 399.825, 454.310 399.825, 464.310 399.825, 465.527 399.825, 465.527 409.825, 465.527 419.825, 465.527 429.825, 465.527 439.825, 465.527 449.825, 465.527 459.825, 465.527 469.825, 465.527 479.825, 465.527 489.825, 465.527 499.825, 465.527 509.825, 465.527 519.825, 465.527 529.825, 465.527 539.825, 465.527 549.825, 465.527 559.825, 465.527 569.825, 465.527 579.825, 465.527 589.825, 465.527 599.825, 465.527 609.825, 465.527 619.825, 465.527 624.175, 465.527 624.175, 465.527 624.175, 455.527 624.175, 454.310 624.175, 454.310 614.175, 454.310 604.175, 454.310 594.175, 454.310 584.175, 454.310 574.175, 454.310 564.175, 454.310 554.175, 454.310 544.175, 454.310 534.175, 454.310 524.175, 454.310 514.175, 454.310 504.175, 454.310 494.175, 454.310 484.175, 454.310 474.175, 454.310 464.175, 454.310 454.175, 454.310 444.175, 454.310 434.175, 454.310 424.175, 454.310 414.175, 454.310 404.175, 454.310 399.825, 454.310 " />
            <path fill="none" stroke-width="3.0" stroke-linecap="butt" stroke-opacity="1.0" stroke="rgb(0, 0, 0)" stroke-linejoin="round" d=" M 399.825, 465.527 409.825, 465.527 419.825, 465.527 429.825, 465.527 439.825, 465.527 449.825, 465.527 459.825, 465.527 469.825, 465.527 479.825, 465.527 489.825, 465.527 499.825, 465.527 509.825, 465.527 519.825, 465.527 529.825, 465.527 539.825, 465.527 549.825, 465.527 559.825, 465.527 569.825, 465.527 579.825, 465.527 589.825, 465.527 599.825, 465.527 609.825, 465.527 619.825, 465.527 624.175, 465.527 " />
            <path fill="none" stroke-width="3.0" stroke-linecap="butt" stroke-opacity="1.0" stroke="rgb(0, 0, 0)" stroke-linejoin="round" d=" M 399.825, 227.556 399.825, 237.556 399.825, 247.556 399.825, 257.556 399.825, 267.556 399.825, 277.556 399.825, 287.556 399.825, 297.556 399.825, 307.556 399.825, 317.556 399.825, 327.556 399.825, 337.556 399.825, 339.731 409.825, 339.731 419.825, 339.731 429.825, 339.731 439.825, 339.731 449.825, 339.731 459.825, 339.731 469.825, 339.731 479.825, 339.731 489.825, 339.731 499.825, 339.731 509.825, 339.731 519.825, 339.731 529.825, 339.731 539.825, 339.731 549.825, 339.731 559.825, 339.731 569.825, 339.731 579.825, 339.731 589.825, 339.731 599.825, 339.731 609.825, 339.731 619.825, 339.731 624.175, 339.731 624.175, 329.731 624.175, 319.731 624.175, 309.731 624.175, 299.731 624.175, 289.731 624.175, 279.731 624.175, 269.731 624.175, 259.731 624.175, 249.731 624.175, 239.731 624.175, 229.731 624.175, 227.556 614.175, 227.556 604.175, 227.556 594.175, 227.556 584.175, 227.556 574.175, 227.556 564.175, 227.556 554.175, 227.556 544.175, 227.556 534.175, 227.556 524.175, 227.556 514.175, 227.556 504.175, 227.556 494.175, 227.556 484.175, 227.556 474.175, 227.556 464.175, 227.556 454.175, 227.556 444.175, 227.556 434.175, 227.556 424.175, 227.556 414.175, 227.556 404.175, 227.556 399.825, 227.556 " />
            <path fill="none" stroke-width="3.0" stroke-linecap="butt" stroke-opacity="1.0" stroke="rgb(0, 0, 0)" stroke-linejoin="round" d=" M 399.825, 633.390 399.825, 638.999 " />
            <path fill="none" stroke-width="3.0" stroke-linecap="butt" stroke-opacity="1.0" stroke="rgb(0, 0, 0)" stroke-linejoin="round" d=" M 624.175, 638.999 624.175, 633.390 " />
            <path fill="none" stroke-width="3.0" stroke-linecap="butt" stroke-opacity="1.0" stroke="rgb(0, 0, 0)" stroke-linejoin="round" d=" M 418.654, 633.390 418.654, 633.390 413.045, 633.390 413.045, 633.390 " />
            <path fill="none" stroke-width="3.0" stroke-linecap="butt" stroke-opacity="1.0" stroke="rgb(0, 0, 0)" stroke-linejoin="round" d=" M 418.654, 638.999 418.654, 633.390 " />
            <path fill="none" stroke-width="3.0" stroke-linecap="butt" stroke-opacity="1.0" stroke="rgb(0, 0, 0)" stroke-linejoin="round" d=" M 413.045, 633.390 413.045, 638.999 418.654, 638.999 " />
            <path fill="none" stroke-width="3.0" stroke-linecap="butt" stroke-opacity="1.0" stroke="rgb(0, 0, 0)" stroke-linejoin="round" d=" M 610.955, 633.390 610.955, 633.390 605.346, 633.390 605.346, 633.390 " />
            <path fill="none" stroke-width="3.0" stroke-linecap="butt" stroke-opacity="1.0" stroke="rgb(0, 0, 0)" stroke-linejoin="round" d=" M 610.955, 638.999 610.955, 633.390 " />
            <path fill="none" stroke-width="3.0" stroke-linecap="butt" stroke-opacity="1.0" stroke="rgb(0, 0, 0)" stroke-linejoin="round" d=" M 605.346, 633.390 605.346, 638.999 610.955, 638.999 " />
            <path fill="none" stroke-width="3.0" stroke-linecap="butt" stroke-opacity="1.0" stroke="rgb(0, 0, 0)" stroke-linejoin="round" d=" M 592.125, 638.999 592.125, 648.999 592.125, 658.999 592.125, 668.999 592.125, 678.998 592.125, 688.999 592.125, 698.999 592.125, 708.999 592.125, 718.998 592.125, 728.999 592.125, 738.999 592.125, 748.998 592.125, 758.999 592.125, 768.998 592.125, 778.998 592.125, 788.998 592.125, 796.445 " />
            <path fill="none" stroke-width="3.0" stroke-linecap="butt" stroke-opacity="1.0" stroke="rgb(0, 0, 0)" stroke-linejoin="round" d=" M 592.125, 475.944 592.125, 485.944 592.125, 495.944 592.125, 505.944 592.125, 515.944 592.125, 525.944 592.125, 535.944 592.125, 545.944 592.125, 555.944 592.125, 565.944 592.125, 575.944 592.125, 585.944 592.125, 595.944 592.125, 605.944 592.125, 615.944 592.125, 625.944 592.125, 633.390 " />
            <path fill="none" stroke-width="3.0" stroke-linecap="butt" stroke-opacity="1.0" stroke="rgb(0, 0, 0)" stroke-linejoin="round" d=" M 431.875, 638.999 441.875, 638.999 451.875, 638.999 461.875, 638.999 471.875, 638.999 481.875, 638.999 491.875, 638.999 501.875, 638.999 511.875, 638.999 521.875, 638.999 531.875, 638.999 541.875, 638.999 551.875, 638.999 561.875, 638.999 571.875, 638.999 581.875, 638.999 592.125, 638.999 " />
            <path fill="none" stroke-width="3.0" stroke-linecap="butt" stroke-opacity="1.0" stroke="rgb(0, 0, 0)" stroke-linejoin="round" d=" M 592.125, 633.390 582.125, 633.390 572.125, 633.390 562.125, 633.390 552.125, 633.390 542.125, 633.390 532.125, 633.390 522.125, 633.390 512.125, 633.390 502.125, 633.390 492.125, 633.390 482.125, 633.390 472.125, 633.390 462.125, 633.390 452.125, 633.390 442.125, 633.390 431.875, 633.390 " />
        </g>
    </g>
    <g id="ViewLayer_TechnicalLines" inkscape:groupmode="lineset" inkscape:label="ViewLayer_TechnicalLines">
        <g inkscape:groupmode="layer" id="strokes" inkscape:label="strokes">
            <path fill="none" stroke-width="3.0" stroke-linecap="butt" stroke-opacity="1.0" stroke="rgb(0, 0, 0)" stroke-linejoin="round" d=" M 399.825, 796.445 400.133, 796.445 401.045, 796.445 402.525, 796.445 404.518, 796.445 406.947, 796.445 409.717, 796.445 412.723, 796.445 415.850, 796.445 418.976, 796.445 421.982, 796.445 424.753, 796.445 427.181, 796.445 429.174, 796.445 430.655, 796.445 431.567, 796.445 431.875, 796.445 431.875, 786.445 431.875, 776.445 431.875, 766.445 431.875, 756.445 431.875, 746.445 431.875, 736.445 431.875, 726.445 431.875, 716.445 431.875, 706.445 431.875, 696.445 431.875, 686.445 431.875, 676.444 431.875, 666.445 431.875, 656.445 431.875, 646.444 431.875, 638.999 " />
            <path fill="none" stroke-width="3.0" stroke-linecap="butt" stroke-opacity="1.0" stroke="rgb(0, 0, 0)" stroke-linejoin="round" d=" M 431.875, 633.390 431.875, 623.390 431.875, 613.390 431.875, 603.390 431.875, 593.390 431.875, 583.390 431.875, 573.390 431.875, 563.390 431.875, 553.390 431.875, 543.390 431.875, 533.390 431.875, 523.390 431.875, 513.390 431.875, 503.390 431.875, 493.390 431.875, 483.390 431.875, 475.944 431.567, 475.944 430.655, 475.944 429.174, 475.944 427.181, 475.944 424.753, 475.944 421.982, 475.944 418.976, 475.944 415.850, 475.944 412.723, 475.944 409.717, 475.944 406.947, 475.944 404.518, 475.944 402.525, 475.944 401.045, 475.944 400.133, 475.944 399.825, 475.944 399.825, 485.944 399.825, 495.944 399.825, 505.944 399.825, 515.944 399.825, 525.944 399.825, 535.944 399.825, 545.944 399.825, 555.944 399.825, 565.944 399.825, 575.944 399.825, 585.944 399.825, 595.944 399.825, 605.944 399.825, 615.944 399.825, 625.944 399.825, 635.944 399.825, 645.944 399.825, 655.944 399.825, 665.944 399.825, 675.944 399.825, 685.944 399.825, 695.944 399.825, 705.944 399.825, 715.944 399.825, 725.944 399.825, 735.944 399.825, 745.944 399.825, 755.944 399.825, 765.944 399.825, 775.944 399.825, 785.944 399.825, 796.445 " />
            <path fill="none" stroke-width="3.0" stroke-linecap="butt" stroke-opacity="1.0" stroke="rgb(0, 0, 0)" stroke-linejoin="round" d=" M 592.125, 796.445 592.433, 796.445 593.345, 796.445 594.826, 796.445 596.819, 796.445 599.247, 796.445 602.018, 796.445 605.024, 796.445 608.150, 796.445 611.277, 796.445 614.283, 796.445 617.053, 796.445 619.482, 796.445 621.475, 796.445 622.955, 796.445 623.867, 796.445 624.175, 796.445 624.175, 786.445 624.175, 776.445 624.175, 766.445 624.175, 756.445 624.175, 746.445 624.175, 736.445 624.175, 726.445 624.175, 716.445 624.175, 706.445 624.175, 696.445 624.175, 686.445 624.175, 676.445 624.175, 666.445 624.175, 656.445 624.175, 646.445 624.175, 636.445 624.175, 626.445 624.175, 616.445 624.175, 606.445 624.175, 596.444 624.175, 586.445 624.175, 576.445 624.175, 566.445 624.175, 556.444 624.175, 546.444 624.175, 536.445 624.175, 526.445 624.175, 516.445 624.175, 506.445 624.175, 496.445 624.175, 486.445 624.175, 475.944 623.867, 475.944 622.955, 475.944 621.475, 475.944 619.482, 475.944 617.053, 475.944 614.283, 475.944 611.277, 475.944 608.150, 475.944 605.024, 475.944 602.018, 475.944 599.247, 475.944 596.819, 475.944 594.826, 475.944 593.345, 475.944 592.433, 475.944 592.125, 475.944 " />
            <path fill="none" stroke-width="3.0" stroke-linecap="butt" stroke-opacity="1.0" stroke="rgb(0, 0, 0)" stroke-linejoin="round" d=" M 399.825, 454.310 399.825, 454.310 399.825, 464.310 399.825, 465.527 399.825, 465.527 409.825, 465.527 419.825, 465.527 429.825, 465.527 439.825, 465.527 449.825, 465.527 459.825, 465.527 469.825, 465.527 479.825, 465.527 489.825, 465.527 499.825, 465.527 509.825, 465.527 519.825, 465.527 529.825, 465.527 539.825, 465.527 549.825, 465.527 559.825, 465.527 569.825, 465.527 579.825, 465.527 589.825, 465.527 599.825, 465.527 609.825, 465.527 619.825, 465.527 624.175, 465.527 624.175, 465.527 624.175, 455.527 624.175, 454.310 624.175, 454.310 614.175, 454.310 604.175, 454.310 594.175, 454.310 584.175, 454.310 574.175, 454.310 564.175, 454.310 554.175, 454.310 544.175, 454.310 534.175, 454.310 524.175, 454.310 514.175, 454.310 504.175, 454.310 494.175, 454.310 484.175, 454.310 474.175, 454.310 464.175, 454.310 454.175, 454.310 444.175, 454.310 434.175, 454.310 424.175, 454.310 414.175, 454.310 404.175, 454.310 399.825, 454.310 " />
            <path fill="none" stroke-width="3.0" stroke-linecap="butt" stroke-opacity="1.0" stroke="rgb(0, 0, 0)" stroke-linejoin="round" d=" M 399.825, 465.527 409.825, 465.527 419.825, 465.527 429.825, 465.527 439.825, 465.527 449.825, 465.527 459.825, 465.527 469.825, 465.527 479.825, 465.527 489.825, 465.527 499.825, 465.527 509.825, 465.527 519.825, 465.527 529.825, 465.527 539.825, 465.527 549.825, 465.527 559.825, 465.527 569.825, 465.527 579.825, 465.527 589.825, 465.527 599.825, 465.527 609.825, 465.527 619.825, 465.527 624.175, 465.527 " />
            <path fill="none" stroke-width="3.0" stroke-linecap="butt" stroke-opacity="1.0" stroke="rgb(0, 0, 0)" stroke-linejoin="round" d=" M 399.825, 227.556 399.825, 237.556 399.825, 247.556 399.825, 257.556 399.825, 267.556 399.825, 277.556 399.825, 287.556 399.825, 297.556 399.825, 307.556 399.825, 317.556 399.825, 327.556 399.825, 337.556 399.825, 339.731 409.825, 339.731 419.825, 339.731 429.825, 339.731 439.825, 339.731 449.825, 339.731 459.825, 339.731 469.825, 339.731 479.825, 339.731 489.825, 339.731 499.825, 339.731 509.825, 339.731 519.825, 339.731 529.825, 339.731 539.825, 339.731 549.825, 339.731 559.825, 339.731 569.825, 339.731 579.825, 339.731 589.825, 339.731 599.825, 339.731 609.825, 339.731 619.825, 339.731 624.175, 339.731 624.175, 329.731 624.175, 319.731 624.175, 309.731 624.175, 299.731 624.175, 289.731 624.175, 279.731 624.175, 269.731 624.175, 259.731 624.175, 249.731 624.175, 239.731 624.175, 229.731 624.175, 227.556 614.175, 227.556 604.175, 227.556 594.175, 227.556 584.175, 227.556 574.175, 227.556 564.175, 227.556 554.175, 227.556 544.175, 227.556 534.175, 227.556 524.175, 227.556 514.175, 227.556 504.175, 227.556 494.175, 227.556 484.175, 227.556 474.175, 227.556 464.175, 227.556 454.175, 227.556 444.175, 227.556 434.175, 227.556 424.175, 227.556 414.175, 227.556 404.175, 227.556 399.825, 227.556 " />
            <path fill="none" stroke-width="3.0" stroke-linecap="butt" stroke-opacity="1.0" stroke="rgb(0, 0, 0)" stroke-linejoin="round" d=" M 399.825, 633.390 399.825, 638.999 " />
            <path fill="none" stroke-width="3.0" stroke-linecap="butt" stroke-opacity="1.0" stroke="rgb(0, 0, 0)" stroke-linejoin="round" d=" M 624.175, 638.999 624.175, 633.390 " />
            <path fill="none" stroke-width="3.0" stroke-linecap="butt" stroke-opacity="1.0" stroke="rgb(0, 0, 0)" stroke-linejoin="round" d=" M 418.654, 633.390 418.654, 633.390 413.045, 633.390 413.045, 633.390 " />
            <path fill="none" stroke-width="3.0" stroke-linecap="butt" stroke-opacity="1.0" stroke="rgb(0, 0, 0)" stroke-linejoin="round" d=" M 418.654, 638.999 418.654, 633.390 " />
            <path fill="none" stroke-width="3.0" stroke-linecap="butt" stroke-opacity="1.0" stroke="rgb(0, 0, 0)" stroke-linejoin="round" d=" M 413.045, 633.390 413.045, 638.999 418.654, 638.999 " />
            <path fill="none" stroke-width="3.0" stroke-linecap="butt" stroke-opacity="1.0" stroke="rgb(0, 0, 0)" stroke-linejoin="round" d=" M 610.955, 633.390 610.955, 633.390 605.346, 633.390 605.346, 633.390 " />
            <path fill="none" stroke-width="3.0" stroke-linecap="butt" stroke-opacity="1.0" stroke="rgb(0, 0, 0)" stroke-linejoin="round" d=" M 610.955, 638.999 610.955, 633.390 " />
            <path fill="none" stroke-width="3.0" stroke-linecap="butt" stroke-opacity="1.0" stroke="rgb(0, 0, 0)" stroke-linejoin="round" d=" M 605.346, 633.390 605.346, 638.999 610.955, 638.999 " />
            <path fill="none" stroke-width="3.0" stroke-linecap="butt" stroke-opacity="1.0" stroke="rgb(0, 0, 0)" stroke-linejoin="round" d=" M 592.125, 638.999 592.125, 648.999 592.125, 658.999 592.125, 668.999 592.125, 678.998 592.125, 688.999 592.125, 698.999 592.125, 708.999 592.125, 718.998 592.125, 728.999 592.125, 738.999 592.125, 748.998 592.125, 758.999 592.125, 768.998 592.125, 778.998 592.125, 788.998 592.125, 796.445 " />
            <path fill="none" stroke-width="3.0" stroke-linecap="butt" stroke-opacity="1.0" stroke="rgb(0, 0, 0)" stroke-linejoin="round" d=" M 592.125, 475.944 592.125, 485.944 592.125, 495.944 592.125, 505.944 592.125, 515.944 592.125, 525.944 592.125, 535.944 592.125, 545.944 592.125, 555.944 592.125, 565.944 592.125, 575.944 592.125, 585.944 592.125, 595.944 592.125, 605.944 592.125, 615.944 592.125, 625.944 592.125, 633.390 " />
            <path fill="none" stroke-width="3.0" stroke-linecap="butt" stroke-opacity="1.0" stroke="rgb(0, 0, 0)" stroke-linejoin="round" d=" M 431.875, 638.999 441.875, 638.999 451.875, 638.999 461.875, 638.999 471.875, 638.999 481.875, 638.999 491.875, 638.999 501.875, 638.999 511.875, 638.999 521.875, 638.999 531.875, 638.999 541.875, 638.999 551.875, 638.999 561.875, 638.999 571.875, 638.999 581.875, 638.999 592.125, 638.999 " />
            <path fill="none" stroke-width="3.0" stroke-linecap="butt" stroke-opacity="1.0" stroke="rgb(0, 0, 0)" stroke-linejoin="round" d=" M 592.125, 633.390 582.125, 633.390 572.125, 633.390 562.125, 633.390 552.125, 633.390 542.125, 633.390 532.125, 633.390 522.125, 633.390 512.125, 633.390 502.125, 633.390 492.125, 633.390 482.125, 633.390 472.125, 633.390 462.125, 633.390 452.125, 633.390 442.125, 633.390 431.875, 633.390 " />
        </g>
    </g>
    <g id="ViewLayer_TechnicalLines.001" inkscape:groupmode="lineset" inkscape:label="ViewLayer_TechnicalLines.001">
        <g inkscape:groupmode="layer" id="strokes" inkscape:label="strokes">
            <path fill="none" stroke-width="1.5" stroke-linecap="round" stroke-opacity="1.0" stroke="rgb(0, 0, 0)" stroke-linejoin="round" d=" M 399.825, 796.445 400.133, 796.445 401.045, 796.445 402.525, 796.445 404.518, 796.445 406.947, 796.445 409.717, 796.445 412.723, 796.445 415.850, 796.445 418.976, 796.445 421.982, 796.445 424.753, 796.445 427.181, 796.445 429.174, 796.445 430.655, 796.445 431.567, 796.445 431.875, 796.445 431.875, 786.445 431.875, 776.445 431.875, 766.445 431.875, 756.445 431.875, 746.445 431.875, 736.445 431.875, 726.445 431.875, 716.445 431.875, 706.445 431.875, 696.445 431.875, 686.445 431.875, 676.444 431.875, 666.445 431.875, 656.445 431.875, 646.444 431.875, 638.999 " />
            <path fill="none" stroke-width="1.5" stroke-linecap="round" stroke-opacity="1.0" stroke="rgb(0, 0, 0)" stroke-linejoin="round" d=" M 431.875, 633.390 431.875, 623.390 431.875, 613.390 431.875, 603.390 431.875, 593.390 431.875, 583.390 431.875, 573.390 431.875, 563.390 431.875, 553.390 431.875, 543.390 431.875, 533.390 431.875, 523.390 431.875, 513.390 431.875, 503.390 431.875, 493.390 431.875, 483.390 431.875, 475.944 431.567, 475.944 430.655, 475.944 429.174, 475.944 427.181, 475.944 424.753, 475.944 421.982, 475.944 418.976, 475.944 415.850, 475.944 412.723, 475.944 409.717, 475.944 406.947, 475.944 404.518, 475.944 402.525, 475.944 401.045, 475.944 400.133, 475.944 399.825, 475.944 399.825, 485.944 399.825, 495.944 399.825, 505.944 399.825, 515.944 399.825, 525.944 399.825, 535.944 399.825, 545.944 399.825, 555.944 399.825, 565.944 399.825, 575.944 399.825, 585.944 399.825, 595.944 399.825, 605.944 399.825, 615.944 399.825, 625.944 399.825, 635.944 399.825, 645.944 399.825, 655.944 399.825, 665.944 399.825, 675.944 399.825, 685.944 399.825, 695.944 399.825, 705.944 399.825, 715.944 399.825, 725.944 399.825, 735.944 399.825, 745.944 399.825, 755.944 399.825, 765.944 399.825, 775.944 399.825, 785.944 399.825, 796.445 " />
            <path fill="none" stroke-width="1.5" stroke-linecap="round" stroke-opacity="1.0" stroke="rgb(0, 0, 0)" stroke-linejoin="round" d=" M 592.125, 796.445 592.433, 796.445 593.345, 796.445 594.826, 796.445 596.819, 796.445 599.247, 796.445 602.018, 796.445 605.024, 796.445 608.150, 796.445 611.277, 796.445 614.283, 796.445 617.053, 796.445 619.482, 796.445 621.475, 796.445 622.955, 796.445 623.867, 796.445 624.175, 796.445 624.175, 786.445 624.175, 776.445 624.175, 766.445 624.175, 756.445 624.175, 746.445 624.175, 736.445 624.175, 726.445 624.175, 716.445 624.175, 706.445 624.175, 696.445 624.175, 686.445 624.175, 676.445 624.175, 666.445 624.175, 656.445 624.175, 646.445 624.175, 636.445 624.175, 626.445 624.175, 616.445 624.175, 606.445 624.175, 596.444 624.175, 586.445 624.175, 576.445 624.175, 566.445 624.175, 556.444 624.175, 546.444 624.175, 536.445 624.175, 526.445 624.175, 516.445 624.175, 506.445 624.175, 496.445 624.175, 486.445 624.175, 475.944 623.867, 475.944 622.955, 475.944 621.475, 475.944 619.482, 475.944 617.053, 475.944 614.283, 475.944 611.277, 475.944 608.150, 475.944 605.024, 475.944 602.018, 475.944 599.247, 475.944 596.819, 475.944 594.826, 475.944 593.345, 475.944 592.433, 475.944 592.125, 475.944 " />
            <path fill="none" stroke-width="1.5" stroke-linecap="round" stroke-opacity="1.0" stroke="rgb(0, 0, 0)" stroke-linejoin="round" d=" M 399.825, 454.310 399.825, 454.310 399.825, 464.310 399.825, 465.527 399.825, 465.527 409.825, 465.527 419.825, 465.527 429.825, 465.527 439.825, 465.527 449.825, 465.527 459.825, 465.527 469.825, 465.527 479.825, 465.527 489.825, 465.527 499.825, 465.527 509.825, 465.527 519.825, 465.527 529.825, 465.527 539.825, 465.527 549.825, 465.527 559.825, 465.527 569.825, 465.527 579.825, 465.527 589.825, 465.527 599.825, 465.527 609.825, 465.527 619.825, 465.527 624.175, 465.527 624.175, 465.527 624.175, 455.527 624.175, 454.310 624.175, 454.310 614.175, 454.310 604.175, 454.310 594.175, 454.310 584.175, 454.310 574.175, 454.310 564.175, 454.310 554.175, 454.310 544.175, 454.310 534.175, 454.310 524.175, 454.310 514.175, 454.310 504.175, 454.310 494.175, 454.310 484.175, 454.310 474.175, 454.310 464.175, 454.310 454.175, 454.310 444.175, 454.310 434.175, 454.310 424.175, 454.310 414.175, 454.310 404.175, 454.310 399.825, 454.310 " />
            <path fill="none" stroke-width="1.5" stroke-linecap="round" stroke-opacity="1.0" stroke="rgb(0, 0, 0)" stroke-linejoin="round" d=" M 399.825, 465.527 409.825, 465.527 419.825, 465.527 429.825, 465.527 439.825, 465.527 449.825, 465.527 459.825, 465.527 469.825, 465.527 479.825, 465.527 489.825, 465.527 499.825, 465.527 509.825, 465.527 519.825, 465.527 529.825, 465.527 539.825, 465.527 549.825, 465.527 559.825, 465.527 569.825, 465.527 579.825, 465.527 589.825, 465.527 599.825, 465.527 609.825, 465.527 619.825, 465.527 624.175, 465.527 " />
            <path fill="none" stroke-width="1.5" stroke-linecap="round" stroke-opacity="1.0" stroke="rgb(0, 0, 0)" stroke-linejoin="round" d=" M 399.825, 227.556 399.825, 237.556 399.825, 247.556 399.825, 257.556 399.825, 267.556 399.825, 277.556 399.825, 287.556 399.825, 297.556 399.825, 307.556 399.825, 317.556 399.825, 327.556 399.825, 337.556 399.825, 339.731 409.825, 339.731 419.825, 339.731 429.825, 339.731 439.825, 339.731 449.825, 339.731 459.825, 339.731 469.825, 339.731 479.825, 339.731 489.825, 339.731 499.825, 339.731 509.825, 339.731 519.825, 339.731 529.825, 339.731 539.825, 339.731 549.825, 339.731 559.825, 339.731 569.825, 339.731 579.825, 339.731 589.825, 339.731 599.825, 339.731 609.825, 339.731 619.825, 339.731 624.175, 339.731 624.175, 329.731 624.175, 319.731 624.175, 309.731 624.175, 299.731 624.175, 289.731 624.175, 279.731 624.175, 269.731 624.175, 259.731 624.175, 249.731 624.175, 239.731 624.175, 229.731 624.175, 227.556 614.175, 227.556 604.175, 227.556 594.175, 227.556 584.175, 227.556 574.175, 227.556 564.175, 227.556 554.175, 227.556 544.175, 227.556 534.175, 227.556 524.175, 227.556 514.175, 227.556 504.175, 227.556 494.175, 227.556 484.175, 227.556 474.175, 227.556 464.175, 227.556 454.175, 227.556 444.175, 227.556 434.175, 227.556 424.175, 227.556 414.175, 227.556 404.175, 227.556 399.825, 227.556 " />
            <path fill="none" stroke-width="1.5" stroke-linecap="round" stroke-opacity="1.0" stroke="rgb(0, 0, 0)" stroke-linejoin="round" d=" M 399.825, 633.390 399.825, 638.999 " />
            <path fill="none" stroke-width="1.5" stroke-linecap="round" stroke-opacity="1.0" stroke="rgb(0, 0, 0)" stroke-linejoin="round" d=" M 624.175, 638.999 624.175, 633.390 " />
            <path fill="none" stroke-width="1.5" stroke-linecap="round" stroke-opacity="1.0" stroke="rgb(0, 0, 0)" stroke-linejoin="round" d=" M 418.654, 633.390 418.654, 633.390 413.045, 633.390 413.045, 633.390 " />
            <path fill="none" stroke-width="1.5" stroke-linecap="round" stroke-opacity="1.0" stroke="rgb(0, 0, 0)" stroke-linejoin="round" d=" M 418.654, 638.999 418.654, 633.390 " />
            <path fill="none" stroke-width="1.5" stroke-linecap="round" stroke-opacity="1.0" stroke="rgb(0, 0, 0)" stroke-linejoin="round" d=" M 413.045, 633.390 413.045, 638.999 418.654, 638.999 " />
            <path fill="none" stroke-width="1.5" stroke-linecap="round" stroke-opacity="1.0" stroke="rgb(0, 0, 0)" stroke-linejoin="round" d=" M 610.955, 633.390 610.955, 633.390 605.346, 633.390 605.346, 633.390 " />
            <path fill="none" stroke-width="1.5" stroke-linecap="round" stroke-opacity="1.0" stroke="rgb(0, 0, 0)" stroke-linejoin="round" d=" M 610.955, 638.999 610.955, 633.390 " />
            <path fill="none" stroke-width="1.5" stroke-linecap="round" stroke-opacity="1.0" stroke="rgb(0, 0, 0)" stroke-linejoin="round" d=" M 605.346, 633.390 605.346, 638.999 610.955, 638.999 " />
            <path fill="none" stroke-width="1.5" stroke-linecap="round" stroke-opacity="1.0" stroke="rgb(0, 0, 0)" stroke-linejoin="round" d=" M 592.125, 638.999 592.125, 648.999 592.125, 658.999 592.125, 668.999 592.125, 678.998 592.125, 688.999 592.125, 698.999 592.125, 708.999 592.125, 718.998 592.125, 728.999 592.125, 738.999 592.125, 748.998 592.125, 758.999 592.125, 768.998 592.125, 778.998 592.125, 788.998 592.125, 796.445 " />
            <path fill="none" stroke-width="1.5" stroke-linecap="round" stroke-opacity="1.0" stroke="rgb(0, 0, 0)" stroke-linejoin="round" d=" M 592.125, 475.944 592.125, 485.944 592.125, 495.944 592.125, 505.944 592.125, 515.944 592.125, 525.944 592.125, 535.944 592.125, 545.944 592.125, 555.944 592.125, 565.944 592.125, 575.944 592.125, 585.944 592.125, 595.944 592.125, 605.944 592.125, 615.944 592.125, 625.944 592.125, 633.390 " />
            <path fill="none" stroke-width="1.5" stroke-linecap="round" stroke-opacity="1.0" stroke="rgb(0, 0, 0)" stroke-linejoin="round" d=" M 431.875, 638.999 441.875, 638.999 451.875, 638.999 461.875, 638.999 471.875, 638.999 481.875, 638.999 491.875, 638.999 501.875, 638.999 511.875, 638.999 521.875, 638.999 531.875, 638.999 541.875, 638.999 551.875, 638.999 561.875, 638.999 571.875, 638.999 581.875, 638.999 592.125, 638.999 " />
            <path fill="none" stroke-width="1.5" stroke-linecap="round" stroke-opacity="1.0" stroke="rgb(0, 0, 0)" stroke-linejoin="round" d=" M 592.125, 633.390 582.125, 633.390 572.125, 633.390 562.125, 633.390 552.125, 633.390 542.125, 633.390 532.125, 633.390 522.125, 633.390 512.125, 633.390 502.125, 633.390 492.125, 633.390 482.125, 633.390 472.125, 633.390 462.125, 633.390 452.125, 633.390 442.125, 633.390 431.875, 633.390 " />
        </g>
    </g>
    <g id="ViewLayer_TechnicalLines.002" inkscape:groupmode="lineset" inkscape:label="ViewLayer_TechnicalLines.002">
        <g inkscape:groupmode="layer" id="strokes" inkscape:label="strokes">
            <path fill="none" stroke-width="1.5" stroke-linecap="round" stroke-opacity="1.0" stroke="rgb(0, 0, 0)" stroke-linejoin="round" d=" M 399.825, 796.445 400.133, 796.445 401.045, 796.445 402.525, 796.445 404.518, 796.445 406.947, 796.445 409.717, 796.445 412.723, 796.445 415.850, 796.445 418.976, 796.445 421.982, 796.445 424.753, 796.445 427.181, 796.445 429.174, 796.445 430.655, 796.445 431.567, 796.445 431.875, 796.445 431.875, 786.445 431.875, 776.445 431.875, 766.445 431.875, 756.445 431.875, 746.445 431.875, 736.445 431.875, 726.445 431.875, 716.445 431.875, 706.445 431.875, 696.445 431.875, 686.445 431.875, 676.444 431.875, 666.445 431.875, 656.445 431.875, 646.444 431.875, 638.999 " />
            <path fill="none" stroke-width="1.5" stroke-linecap="round" stroke-opacity="1.0" stroke="rgb(0, 0, 0)" stroke-linejoin="round" d=" M 431.875, 633.390 431.875, 623.390 431.875, 613.390 431.875, 603.390 431.875, 593.390 431.875, 583.390 431.875, 573.390 431.875, 563.390 431.875, 553.390 431.875, 543.390 431.875, 533.390 431.875, 523.390 431.875, 513.390 431.875, 503.390 431.875, 493.390 431.875, 483.390 431.875, 475.944 431.567, 475.944 430.655, 475.944 429.174, 475.944 427.181, 475.944 424.753, 475.944 421.982, 475.944 418.976, 475.944 415.850, 475.944 412.723, 475.944 409.717, 475.944 406.947, 475.944 404.518, 475.944 402.525, 475.944 401.045, 475.944 400.133, 475.944 399.825, 475.944 399.825, 485.944 399.825, 495.944 399.825, 505.944 399.825, 515.944 399.825, 525.944 399.825, 535.944 399.825, 545.944 399.825, 555.944 399.825, 565.944 399.825, 575.944 399.825, 585.944 399.825, 595.944 399.825, 605.944 399.825, 615.944 399.825, 625.944 399.825, 635.944 399.825, 645.944 399.825, 655.944 399.825, 665.944 399.825, 675.944 399.825, 685.944 399.825, 695.944 399.825, 705.944 399.825, 715.944 399.825, 725.944 399.825, 735.944 399.825, 745.944 399.825, 755.944 399.825, 765.944 399.825, 775.944 399.825, 785.944 399.825, 796.445 " />
            <path fill="none" stroke-width="1.5" stroke-linecap="round" stroke-opacity="1.0" stroke="rgb(0, 0, 0)" stroke-linejoin="round" d=" M 592.125, 796.445 592.433, 796.445 593.345, 796.445 594.826, 796.445 596.819, 796.445 599.247, 796.445 602.018, 796.445 605.024, 796.445 608.150, 796.445 611.277, 796.445 614.283, 796.445 617.053, 796.445 619.482, 796.445 621.475, 796.445 622.955, 796.445 623.867, 796.445 624.175, 796.445 624.175, 786.445 624.175, 776.445 624.175, 766.445 624.175, 756.445 624.175, 746.445 624.175, 736.445 624.175, 726.445 624.175, 716.445 624.175, 706.445 624.175, 696.445 624.175, 686.445 624.175, 676.445 624.175, 666.445 624.175, 656.445 624.175, 646.445 624.175, 636.445 624.175, 626.445 624.175, 616.445 624.175, 606.445 624.175, 596.444 624.175, 586.445 624.175, 576.445 624.175, 566.445 624.175, 556.444 624.175, 546.444 624.175, 536.445 624.175, 526.445 624.175, 516.445 624.175, 506.445 624.175, 496.445 624.175, 486.445 624.175, 475.944 623.867, 475.944 622.955, 475.944 621.475, 475.944 619.482, 475.944 617.053, 475.944 614.283, 475.944 611.277, 475.944 608.150, 475.944 605.024, 475.944 602.018, 475.944 599.247, 475.944 596.819, 475.944 594.826, 475.944 593.345, 475.944 592.433, 475.944 592.125, 475.944 " />
            <path fill="none" stroke-width="1.5" stroke-linecap="round" stroke-opacity="1.0" stroke="rgb(0, 0, 0)" stroke-linejoin="round" d=" M 399.825, 454.310 399.825, 454.310 399.825, 464.310 399.825, 465.527 399.825, 465.527 409.825, 465.527 419.825, 465.527 429.825, 465.527 439.825, 465.527 449.825, 465.527 459.825, 465.527 469.825, 465.527 479.825, 465.527 489.825, 465.527 499.825, 465.527 509.825, 465.527 519.825, 465.527 529.825, 465.527 539.825, 465.527 549.825, 465.527 559.825, 465.527 569.825, 465.527 579.825, 465.527 589.825, 465.527 599.825, 465.527 609.825, 465.527 619.825, 465.527 624.175, 465.527 624.175, 465.527 624.175, 455.527 624.175, 454.310 624.175, 454.310 614.175, 454.310 604.175, 454.310 594.175, 454.310 584.175, 454.310 574.175, 454.310 564.175, 454.310 554.175, 454.310 544.175, 454.310 534.175, 454.310 524.175, 454.310 514.175, 454.310 504.175, 454.310 494.175, 454.310 484.175, 454.310 474.175, 454.310 464.175, 454.310 454.175, 454.310 444.175, 454.310 434.175, 454.310 424.175, 454.310 414.175, 454.310 404.175, 454.310 399.825, 454.310 " />
            <path fill="none" stroke-width="1.5" stroke-linecap="round" stroke-opacity="1.0" stroke="rgb(0, 0, 0)" stroke-linejoin="round" d=" M 399.825, 465.527 409.825, 465.527 419.825, 465.527 429.825, 465.527 439.825, 465.527 449.825, 465.527 459.825, 465.527 469.825, 465.527 479.825, 465.527 489.825, 465.527 499.825, 465.527 509.825, 465.527 519.825, 465.527 529.825, 465.527 539.825, 465.527 549.825, 465.527 559.825, 465.527 569.825, 465.527 579.825, 465.527 589.825, 465.527 599.825, 465.527 609.825, 465.527 619.825, 465.527 624.175, 465.527 " />
            <path fill="none" stroke-width="1.5" stroke-linecap="round" stroke-opacity="1.0" stroke="rgb(0, 0, 0)" stroke-linejoin="round" d=" M 399.825, 227.556 399.825, 237.556 399.825, 247.556 399.825, 257.556 399.825, 267.556 399.825, 277.556 399.825, 287.556 399.825, 297.556 399.825, 307.556 399.825, 317.556 399.825, 327.556 399.825, 337.556 399.825, 339.731 409.825, 339.731 419.825, 339.731 429.825, 339.731 439.825, 339.731 449.825, 339.731 459.825, 339.731 469.825, 339.731 479.825, 339.731 489.825, 339.731 499.825, 339.731 509.825, 339.731 519.825, 339.731 529.825, 339.731 539.825, 339.731 549.825, 339.731 559.825, 339.731 569.825, 339.731 579.825, 339.731 589.825, 339.731 599.825, 339.731 609.825, 339.731 619.825, 339.731 624.175, 339.731 624.175, 329.731 624.175, 319.731 624.175, 309.731 624.175, 299.731 624.175, 289.731 624.175, 279.731 624.175, 269.731 624.175, 259.731 624.175, 249.731 624.175, 239.731 624.175, 229.731 624.175, 227.556 614.175, 227.556 604.175, 227.556 594.175, 227.556 584.175, 227.556 574.175, 227.556 564.175, 227.556 554.175, 227.556 544.175, 227.556 534.175, 227.556 524.175, 227.556 514.175, 227.556 504.175, 227.556 494.175, 227.556 484.175, 227.556 474.175, 227.556 464.175, 227.556 454.175, 227.556 444.175, 227.556 434.175, 227.556 424.175, 227.556 414.175, 227.556 404.175, 227.556 399.825, 227.556 " />
            <path fill="none" stroke-width="1.5" stroke-linecap="round" stroke-opacity="1.0" stroke="rgb(0, 0, 0)" stroke-linejoin="round" d=" M 399.825, 633.390 399.825, 638.999 " />
            <path fill="none" stroke-width="1.5" stroke-linecap="round" stroke-opacity="1.0" stroke="rgb(0, 0, 0)" stroke-linejoin="round" d=" M 624.175, 638.999 624.175, 633.390 " />
            <path fill="none" stroke-width="1.5" stroke-linecap="round" stroke-opacity="1.0" stroke="rgb(0, 0, 0)" stroke-linejoin="round" d=" M 418.654, 633.390 418.654, 633.390 413.045, 633.390 413.045, 633.390 " />
            <path fill="none" stroke-width="1.5" stroke-linecap="round" stroke-opacity="1.0" stroke="rgb(0, 0, 0)" stroke-linejoin="round" d=" M 418.654, 638.999 418.654, 633.390 " />
            <path fill="none" stroke-width="1.5" stroke-linecap="round" stroke-opacity="1.0" stroke="rgb(0, 0, 0)" stroke-linejoin="round" d=" M 413.045, 633.390 413.045, 638.999 418.654, 638.999 " />
            <path fill="none" stroke-width="1.5" stroke-linecap="round" stroke-opacity="1.0" stroke="rgb(0, 0, 0)" stroke-linejoin="round" d=" M 610.955, 633.390 610.955, 633.390 605.346, 633.390 605.346, 633.390 " />
            <path fill="none" stroke-width="1.5" stroke-linecap="round" stroke-opacity="1.0" stroke="rgb(0, 0, 0)" stroke-linejoin="round" d=" M 610.955, 638.999 610.955, 633.390 " />
            <path fill="none" stroke-width="1.5" stroke-linecap="round" stroke-opacity="1.0" stroke="rgb(0, 0, 0)" stroke-linejoin="round" d=" M 605.346, 633.390 605.346, 638.999 610.955, 638.999 " />
            <path fill="none" stroke-width="1.5" stroke-linecap="round" stroke-opacity="1.0" stroke="rgb(0, 0, 0)" stroke-linejoin="round" d=" M 592.125, 638.999 592.125, 648.999 592.125, 658.999 592.125, 668.999 592.125, 678.998 592.125, 688.999 592.125, 698.999 592.125, 708.999 592.125, 718.998 592.125, 728.999 592.125, 738.999 592.125, 748.998 592.125, 758.999 592.125, 768.998 592.125, 778.998 592.125, 788.998 592.125, 796.445 " />
            <path fill="none" stroke-width="1.5" stroke-linecap="round" stroke-opacity="1.0" stroke="rgb(0, 0, 0)" stroke-linejoin="round" d=" M 592.125, 475.944 592.125, 485.944 592.125, 495.944 592.125, 505.944 592.125, 515.944 592.125, 525.944 592.125, 535.944 592.125, 545.944 592.125, 555.944 592.125, 565.944 592.125, 575.944 592.125, 585.944 592.125, 595.944 592.125, 605.944 592.125, 615.944 592.125, 625.944 592.125, 633.390 " />
            <path fill="none" stroke-width="1.5" stroke-linecap="round" stroke-opacity="1.0" stroke="rgb(0, 0, 0)" stroke-linejoin="round" d=" M 431.875, 638.999 441.875, 638.999 451.875, 638.999 461.875, 638.999 471.875, 638.999 481.875, 638.999 491.875, 638.999 501.875, 638.999 511.875, 638.999 521.875, 638.999 531.875, 638.999 541.875, 638.999 551.875, 638.999 561.875, 638.999 571.875, 638.999 581.875, 638.999 592.125, 638.999 " />
            <path fill="none" stroke-width="1.5" stroke-linecap="round" stroke-opacity="1.0" stroke="rgb(0, 0, 0)" stroke-linejoin="round" d=" M 592.125, 633.390 582.125, 633.390 572.125, 633.390 562.125, 633.390 552.125, 633.390 542.125, 633.390 532.125, 633.390 522.125, 633.390 512.125, 633.390 502.125, 633.390 492.125, 633.390 482.125, 633.390 472.125, 633.390 462.125, 633.390 452.125, 633.390 442.125, 633.390 431.875, 633.390 " />
        </g>
    </g>
    <g id="ViewLayer_TechnicalLines.003" inkscape:groupmode="lineset" inkscape:label="ViewLayer_TechnicalLines.003">
        <g inkscape:groupmode="layer" id="strokes" inkscape:label="strokes">
            <path fill="none" stroke-width="1.5" stroke-linecap="round" stroke-opacity="1.0" stroke="rgb(0, 0, 0)" stroke-linejoin="round" d=" M 399.825, 796.445 400.133, 796.445 401.045, 796.445 402.525, 796.445 404.518, 796.445 406.947, 796.445 409.717, 796.445 412.723, 796.445 415.850, 796.445 418.976, 796.445 421.982, 796.445 424.753, 796.445 427.181, 796.445 429.174, 796.445 430.655, 796.445 431.567, 796.445 431.875, 796.445 431.875, 786.445 431.875, 776.445 431.875, 766.445 431.875, 756.445 431.875, 746.445 431.875, 736.445 431.875, 726.445 431.875, 716.445 431.875, 706.445 431.875, 696.445 431.875, 686.445 431.875, 676.444 431.875, 666.445 431.875, 656.445 431.875, 646.444 431.875, 638.999 " />
            <path fill="none" stroke-width="1.5" stroke-linecap="round" stroke-opacity="1.0" stroke="rgb(0, 0, 0)" stroke-linejoin="round" d=" M 431.875, 633.390 431.875, 623.390 431.875, 613.390 431.875, 603.390 431.875, 593.390 431.875, 583.390 431.875, 573.390 431.875, 563.390 431.875, 553.390 431.875, 543.390 431.875, 533.390 431.875, 523.390 431.875, 513.390 431.875, 503.390 431.875, 493.390 431.875, 483.390 431.875, 475.944 431.567, 475.944 430.655, 475.944 429.174, 475.944 427.181, 475.944 424.753, 475.944 421.982, 475.944 418.976, 475.944 415.850, 475.944 412.723, 475.944 409.717, 475.944 406.947, 475.944 404.518, 475.944 402.525, 475.944 401.045, 475.944 400.133, 475.944 399.825, 475.944 399.825, 485.944 399.825, 495.944 399.825, 505.944 399.825, 515.944 399.825, 525.944 399.825, 535.944 399.825, 545.944 399.825, 555.944 399.825, 565.944 399.825, 575.944 399.825, 585.944 399.825, 595.944 399.825, 605.944 399.825, 615.944 399.825, 625.944 399.825, 635.944 399.825, 645.944 399.825, 655.944 399.825, 665.944 399.825, 675.944 399.825, 685.944 399.825, 695.944 399.825, 705.944 399.825, 715.944 399.825, 725.944 399.825, 735.944 399.825, 745.944 399.825, 755.944 399.825, 765.944 399.825, 775.944 399.825, 785.944 399.825, 796.445 " />
            <path fill="none" stroke-width="1.5" stroke-linecap="round" stroke-opacity="1.0" stroke="rgb(0, 0, 0)" stroke-linejoin="round" d=" M 592.125, 796.445 592.433, 796.445 593.345, 796.445 594.826, 796.445 596.819, 796.445 599.247, 796.445 602.018, 796.445 605.024, 796.445 608.150, 796.445 611.277, 796.445 614.283, 796.445 617.053, 796.445 619.482, 796.445 621.475, 796.445 622.955, 796.445 623.867, 796.445 624.175, 796.445 624.175, 786.445 624.175, 776.445 624.175, 766.445 624.175, 756.445 624.175, 746.445 624.175, 736.445 624.175, 726.445 624.175, 716.445 624.175, 706.445 624.175, 696.445 624.175, 686.445 624.175, 676.445 624.175, 666.445 624.175, 656.445 624.175, 646.445 624.175, 636.445 624.175, 626.445 624.175, 616.445 624.175, 606.445 624.175, 596.444 624.175, 586.445 624.175, 576.445 624.175, 566.445 624.175, 556.444 624.175, 546.444 624.175, 536.445 624.175, 526.445 624.175, 516.445 624.175, 506.445 624.175, 496.445 624.175, 486.445 624.175, 475.944 623.867, 475.944 622.955, 475.944 621.475, 475.944 619.482, 475.944 617.053, 475.944 614.283, 475.944 611.277, 475.944 608.150, 475.944 605.024, 475.944 602.018, 475.944 599.247, 475.944 596.819, 475.944 594.826, 475.944 593.345, 475.944 592.433, 475.944 592.125, 475.944 " />
            <path fill="none" stroke-width="1.5" stroke-linecap="round" stroke-opacity="1.0" stroke="rgb(0, 0, 0)" stroke-linejoin="round" d=" M 399.825, 454.310 399.825, 454.310 399.825, 464.310 399.825, 465.527 399.825, 465.527 409.825, 465.527 419.825, 465.527 429.825, 465.527 439.825, 465.527 449.825, 465.527 459.825, 465.527 469.825, 465.527 479.825, 465.527 489.825, 465.527 499.825, 465.527 509.825, 465.527 519.825, 465.527 529.825, 465.527 539.825, 465.527 549.825, 465.527 559.825, 465.527 569.825, 465.527 579.825, 465.527 589.825, 465.527 599.825, 465.527 609.825, 465.527 619.825, 465.527 624.175, 465.527 624.175, 465.527 624.175, 455.527 624.175, 454.310 624.175, 454.310 614.175, 454.310 604.175, 454.310 594.175, 454.310 584.175, 454.310 574.175, 454.310 564.175, 454.310 554.175, 454.310 544.175, 454.310 534.175, 454.310 524.175, 454.310 514.175, 454.310 504.175, 454.310 494.175, 454.310 484.175, 454.310 474.175, 454.310 464.175, 454.310 454.175, 454.310 444.175, 454.310 434.175, 454.310 424.175, 454.310 414.175, 454.310 404.175, 454.310 399.825, 454.310 " />
            <path fill="none" stroke-width="1.5" stroke-linecap="round" stroke-opacity="1.0" stroke="rgb(0, 0, 0)" stroke-linejoin="round" d=" M 399.825, 465.527 409.825, 465.527 419.825, 465.527 429.825, 465.527 439.825, 465.527 449.825, 465.527 459.825, 465.527 469.825, 465.527 479.825, 465.527 489.825, 465.527 499.825, 465.527 509.825, 465.527 519.825, 465.527 529.825, 465.527 539.825, 465.527 549.825, 465.527 559.825, 465.527 569.825, 465.527 579.825, 465.527 589.825, 465.527 599.825, 465.527 609.825, 465.527 619.825, 465.527 624.175, 465.527 " />
            <path fill="none" stroke-width="1.5" stroke-linecap="round" stroke-opacity="1.0" stroke="rgb(0, 0, 0)" stroke-linejoin="round" d=" M 399.825, 227.556 399.825, 237.556 399.825, 247.556 399.825, 257.556 399.825, 267.556 399.825, 277.556 399.825, 287.556 399.825, 297.556 399.825, 307.556 399.825, 317.556 399.825, 327.556 399.825, 337.556 399.825, 339.731 409.825, 339.731 419.825, 339.731 429.825, 339.731 439.825, 339.731 449.825, 339.731 459.825, 339.731 469.825, 339.731 479.825, 339.731 489.825, 339.731 499.825, 339.731 509.825, 339.731 519.825, 339.731 529.825, 339.731 539.825, 339.731 549.825, 339.731 559.825, 339.731 569.825, 339.731 579.825, 339.731 589.825, 339.731 599.825, 339.731 609.825, 339.731 619.825, 339.731 624.175, 339.731 624.175, 329.731 624.175, 319.731 624.175, 309.731 624.175, 299.731 624.175, 289.731 624.175, 279.731 624.175, 269.731 624.175, 259.731 624.175, 249.731 624.175, 239.731 624.175, 229.731 624.175, 227.556 614.175, 227.556 604.175, 227.556 594.175, 227.556 584.175, 227.556 574.175, 227.556 564.175, 227.556 554.175, 227.556 544.175, 227.556 534.175, 227.556 524.175, 227.556 514.175, 227.556 504.175, 227.556 494.175, 227.556 484.175, 227.556 474.175, 227.556 464.175, 227.556 454.175, 227.556 444.175, 227.556 434.175, 227.556 424.175, 227.556 414.175, 227.556 404.175, 227.556 399.825, 227.556 " />
            <path fill="none" stroke-width="1.5" stroke-linecap="round" stroke-opacity="1.0" stroke="rgb(0, 0, 0)" stroke-linejoin="round" d=" M 399.825, 633.390 399.825, 638.999 " />
            <path fill="none" stroke-width="1.5" stroke-linecap="round" stroke-opacity="1.0" stroke="rgb(0, 0, 0)" stroke-linejoin="round" d=" M 624.175, 638.999 624.175, 633.390 " />
            <path fill="none" stroke-width="1.5" stroke-linecap="round" stroke-opacity="1.0" stroke="rgb(0, 0, 0)" stroke-linejoin="round" d=" M 418.654, 633.390 418.654, 633.390 413.045, 633.390 413.045, 633.390 " />
            <path fill="none" stroke-width="1.5" stroke-linecap="round" stroke-opacity="1.0" stroke="rgb(0, 0, 0)" stroke-linejoin="round" d=" M 418.654, 638.999 418.654, 633.390 " />
            <path fill="none" stroke-width="1.5" stroke-linecap="round" stroke-opacity="1.0" stroke="rgb(0, 0, 0)" stroke-linejoin="round" d=" M 413.045, 633.390 413.045, 638.999 418.654, 638.999 " />
            <path fill="none" stroke-width="1.5" stroke-linecap="round" stroke-opacity="1.0" stroke="rgb(0, 0, 0)" stroke-linejoin="round" d=" M 610.955, 633.390 610.955, 633.390 605.346, 633.390 605.346, 633.390 " />
            <path fill="none" stroke-width="1.5" stroke-linecap="round" stroke-opacity="1.0" stroke="rgb(0, 0, 0)" stroke-linejoin="round" d=" M 610.955, 638.999 610.955, 633.390 " />
            <path fill="none" stroke-width="1.5" stroke-linecap="round" stroke-opacity="1.0" stroke="rgb(0, 0, 0)" stroke-linejoin="round" d=" M 605.346, 633.390 605.346, 638.999 610.955, 638.999 " />
            <path fill="none" stroke-width="1.5" stroke-linecap="round" stroke-opacity="1.0" stroke="rgb(0, 0, 0)" stroke-linejoin="round" d=" M 592.125, 638.999 592.125, 648.999 592.125, 658.999 592.125, 668.999 592.125, 678.998 592.125, 688.999 592.125, 698.999 592.125, 708.999 592.125, 718.998 592.125, 728.999 592.125, 738.999 592.125, 748.998 592.125, 758.999 592.125, 768.998 592.125, 778.998 592.125, 788.998 592.125, 796.445 " />
            <path fill="none" stroke-width="1.5" stroke-linecap="round" stroke-opacity="1.0" stroke="rgb(0, 0, 0)" stroke-linejoin="round" d=" M 592.125, 475.944 592.125, 485.944 592.125, 495.944 592.125, 505.944 592.125, 515.944 592.125, 525.944 592.125, 535.944 592.125, 545.944 592.125, 555.944 592.125, 565.944 592.125, 575.944 592.125, 585.944 592.125, 595.944 592.125, 605.944 592.125, 615.944 592.125, 625.944 592.125, 633.390 " />
            <path fill="none" stroke-width="1.5" stroke-linecap="round" stroke-opacity="1.0" stroke="rgb(0, 0, 0)" stroke-linejoin="round" d=" M 431.875, 638.999 441.875, 638.999 451.875, 638.999 461.875, 638.999 471.875, 638.999 481.875, 638.999 491.875, 638.999 501.875, 638.999 511.875, 638.999 521.875, 638.999 531.875, 638.999 541.875, 638.999 551.875, 638.999 561.875, 638.999 571.875, 638.999 581.875, 638.999 592.125, 638.999 " />
            <path fill="none" stroke-width="1.5" stroke-linecap="round" stroke-opacity="1.0" stroke="rgb(0, 0, 0)" stroke-linejoin="round" d=" M 592.125, 633.390 582.125, 633.390 572.125, 633.390 562.125, 633.390 552.125, 633.390 542.125, 633.390 532.125, 633.390 522.125, 633.390 512.125, 633.390 502.125, 633.390 492.125, 633.390 482.125, 633.390 472.125, 633.390 462.125, 633.390 452.125, 633.390 442.125, 633.390 431.875, 633.390 " />
        </g>
    </g>
    <g id="ViewLayer_TechnicalLines.004" xmlns:inkscape="http://www.inkscape.org/namespaces/inkscape" inkscape:groupmode="lineset" inkscape:label="ViewLayer_TechnicalLines.004">
        <g xmlns:inkscape="http://www.inkscape.org/namespaces/inkscape" inkscape:groupmode="layer" id="strokes" inkscape:label="strokes">
            <path fill="none" stroke-width="1.5" stroke-linecap="round" stroke-opacity="1.0" stroke="rgb(0, 0, 0)" stroke-linejoin="round" d=" M 399.825, 796.445 400.133, 796.445 401.045, 796.445 402.525, 796.445 404.518, 796.445 406.947, 796.445 409.717, 796.445 412.723, 796.445 415.850, 796.445 418.976, 796.445 421.982, 796.445 424.753, 796.445 427.181, 796.445 429.174, 796.445 430.655, 796.445 431.567, 796.445 431.875, 796.445 431.875, 786.445 431.875, 776.445 431.875, 766.445 431.875, 756.445 431.875, 746.445 431.875, 736.445 431.875, 726.445 431.875, 716.445 431.875, 706.445 431.875, 696.445 431.875, 686.445 431.875, 676.444 431.875, 666.445 431.875, 656.445 431.875, 646.444 431.875, 638.999 " />
            <path fill="none" stroke-width="1.5" stroke-linecap="round" stroke-opacity="1.0" stroke="rgb(0, 0, 0)" stroke-linejoin="round" d=" M 431.875, 633.390 431.875, 623.390 431.875, 613.390 431.875, 603.390 431.875, 593.390 431.875, 583.390 431.875, 573.390 431.875, 563.390 431.875, 553.390 431.875, 543.390 431.875, 533.390 431.875, 523.390 431.875, 513.390 431.875, 503.390 431.875, 493.390 431.875, 483.390 431.875, 475.944 431.567, 475.944 430.655, 475.944 429.174, 475.944 427.181, 475.944 424.753, 475.944 421.982, 475.944 418.976, 475.944 415.850, 475.944 412.723, 475.944 409.717, 475.944 406.947, 475.944 404.518, 475.944 402.525, 475.944 401.045, 475.944 400.133, 475.944 399.825, 475.944 399.825, 485.944 399.825, 495.944 399.825, 505.944 399.825, 515.944 399.825, 525.944 399.825, 535.944 399.825, 545.944 399.825, 555.944 399.825, 565.944 399.825, 575.944 399.825, 585.944 399.825, 595.944 399.825, 605.944 399.825, 615.944 399.825, 625.944 399.825, 635.944 399.825, 645.944 399.825, 655.944 399.825, 665.944 399.825, 675.944 399.825, 685.944 399.825, 695.944 399.825, 705.944 399.825, 715.944 399.825, 725.944 399.825, 735.944 399.825, 745.944 399.825, 755.944 399.825, 765.944 399.825, 775.944 399.825, 785.944 399.825, 796.445 " />
            <path fill="none" stroke-width="1.5" stroke-linecap="round" stroke-opacity="1.0" stroke="rgb(0, 0, 0)" stroke-linejoin="round" d=" M 592.125, 796.445 592.433, 796.445 593.345, 796.445 594.826, 796.445 596.819, 796.445 599.247, 796.445 602.018, 796.445 605.024, 796.445 608.150, 796.445 611.277, 796.445 614.283, 796.445 617.053, 796.445 619.482, 796.445 621.475, 796.445 622.955, 796.445 623.867, 796.445 624.175, 796.445 624.175, 786.445 624.175, 776.445 624.175, 766.445 624.175, 756.445 624.175, 746.445 624.175, 736.445 624.175, 726.445 624.175, 716.445 624.175, 706.445 624.175, 696.445 624.175, 686.445 624.175, 676.445 624.175, 666.445 624.175, 656.445 624.175, 646.445 624.175, 636.445 624.175, 626.445 624.175, 616.445 624.175, 606.445 624.175, 596.444 624.175, 586.445 624.175, 576.445 624.175, 566.445 624.175, 556.444 624.175, 546.444 624.175, 536.445 624.175, 526.445 624.175, 516.445 624.175, 506.445 624.175, 496.445 624.175, 486.445 624.175, 475.944 623.867, 475.944 622.955, 475.944 621.475, 475.944 619.482, 475.944 617.053, 475.944 614.283, 475.944 611.277, 475.944 608.150, 475.944 605.024, 475.944 602.018, 475.944 599.247, 475.944 596.819, 475.944 594.826, 475.944 593.345, 475.944 592.433, 475.944 592.125, 475.944 " />
            <path fill="none" stroke-width="1.5" stroke-linecap="round" stroke-opacity="1.0" stroke="rgb(0, 0, 0)" stroke-linejoin="round" d=" M 399.825, 454.310 399.825, 454.310 399.825, 464.310 399.825, 465.527 399.825, 465.527 409.825, 465.527 419.825, 465.527 429.825, 465.527 439.825, 465.527 449.825, 465.527 459.825, 465.527 469.825, 465.527 479.825, 465.527 489.825, 465.527 499.825, 465.527 509.825, 465.527 519.825, 465.527 529.825, 465.527 539.825, 465.527 549.825, 465.527 559.825, 465.527 569.825, 465.527 579.825, 465.527 589.825, 465.527 599.825, 465.527 609.825, 465.527 619.825, 465.527 624.175, 465.527 624.175, 465.527 624.175, 455.527 624.175, 454.310 624.175, 454.310 614.175, 454.310 604.175, 454.310 594.175, 454.310 584.175, 454.310 574.175, 454.310 564.175, 454.310 554.175, 454.310 544.175, 454.310 534.175, 454.310 524.175, 454.310 514.175, 454.310 504.175, 454.310 494.175, 454.310 484.175, 454.310 474.175, 454.310 464.175, 454.310 454.175, 454.310 444.175, 454.310 434.175, 454.310 424.175, 454.310 414.175, 454.310 404.175, 454.310 399.825, 454.310 " />
            <path fill="none" stroke-width="1.5" stroke-linecap="round" stroke-opacity="1.0" stroke="rgb(0, 0, 0)" stroke-linejoin="round" d=" M 399.825, 465.527 409.825, 465.527 419.825, 465.527 429.825, 465.527 439.825, 465.527 449.825, 465.527 459.825, 465.527 469.825, 465.527 479.825, 465.527 489.825, 465.527 499.825, 465.527 509.825, 465.527 519.825, 465.527 529.825, 465.527 539.825, 465.527 549.825, 465.527 559.825, 465.527 569.825, 465.527 579.825, 465.527 589.825, 465.527 599.825, 465.527 609.825, 465.527 619.825, 465.527 624.175, 465.527 " />
            <path fill="none" stroke-width="1.5" stroke-linecap="round" stroke-opacity="1.0" stroke="rgb(0, 0, 0)" stroke-linejoin="round" d=" M 399.825, 227.556 399.825, 237.556 399.825, 247.556 399.825, 257.556 399.825, 267.556 399.825, 277.556 399.825, 287.556 399.825, 297.556 399.825, 307.556 399.825, 317.556 399.825, 327.556 399.825, 337.556 399.825, 339.731 409.825, 339.731 419.825, 339.731 429.825, 339.731 439.825, 339.731 449.825, 339.731 459.825, 339.731 469.825, 339.731 479.825, 339.731 489.825, 339.731 499.825, 339.731 509.825, 339.731 519.825, 339.731 529.825, 339.731 539.825, 339.731 549.825, 339.731 559.825, 339.731 569.825, 339.731 579.825, 339.731 589.825, 339.731 599.825, 339.731 609.825, 339.731 619.825, 339.731 624.175, 339.731 624.175, 329.731 624.175, 319.731 624.175, 309.731 624.175, 299.731 624.175, 289.731 624.175, 279.731 624.175, 269.731 624.175, 259.731 624.175, 249.731 624.175, 239.731 624.175, 229.731 624.175, 227.556 614.175, 227.556 604.175, 227.556 594.175, 227.556 584.175, 227.556 574.175, 227.556 564.175, 227.556 554.175, 227.556 544.175, 227.556 534.175, 227.556 524.175, 227.556 514.175, 227.556 504.175, 227.556 494.175, 227.556 484.175, 227.556 474.175, 227.556 464.175, 227.556 454.175, 227.556 444.175, 227.556 434.175, 227.556 424.175, 227.556 414.175, 227.556 404.175, 227.556 399.825, 227.556 " />
            <path fill="none" stroke-width="1.5" stroke-linecap="round" stroke-opacity="1.0" stroke="rgb(0, 0, 0)" stroke-linejoin="round" d=" M 399.825, 633.390 399.825, 638.999 " />
            <path fill="none" stroke-width="1.5" stroke-linecap="round" stroke-opacity="1.0" stroke="rgb(0, 0, 0)" stroke-linejoin="round" d=" M 624.175, 638.999 624.175, 633.390 " />
            <path fill="none" stroke-width="1.5" stroke-linecap="round" stroke-opacity="1.0" stroke="rgb(0, 0, 0)" stroke-linejoin="round" d=" M 418.654, 633.390 418.654, 633.390 413.045, 633.390 413.045, 633.390 " />
            <path fill="none" stroke-width="1.5" stroke-linecap="round" stroke-opacity="1.0" stroke="rgb(0, 0, 0)" stroke-linejoin="round" d=" M 418.654, 638.999 418.654, 633.390 " />
            <path fill="none" stroke-width="1.5" stroke-linecap="round" stroke-opacity="1.0" stroke="rgb(0, 0, 0)" stroke-linejoin="round" d=" M 413.045, 633.390 413.045, 638.999 418.654, 638.999 " />
            <path fill="none" stroke-width="1.5" stroke-linecap="round" stroke-opacity="1.0" stroke="rgb(0, 0, 0)" stroke-linejoin="round" d=" M 610.955, 633.390 610.955, 633.390 605.346, 633.390 605.346, 633.390 " />
            <path fill="none" stroke-width="1.5" stroke-linecap="round" stroke-opacity="1.0" stroke="rgb(0, 0, 0)" stroke-linejoin="round" d=" M 610.955, 638.999 610.955, 633.390 " />
            <path fill="none" stroke-width="1.5" stroke-linecap="round" stroke-opacity="1.0" stroke="rgb(0, 0, 0)" stroke-linejoin="round" d=" M 605.346, 633.390 605.346, 638.999 610.955, 638.999 " />
            <path fill="none" stroke-width="1.5" stroke-linecap="round" stroke-opacity="1.0" stroke="rgb(0, 0, 0)" stroke-linejoin="round" d=" M 592.125, 638.999 592.125, 648.999 592.125, 658.999 592.125, 668.999 592.125, 678.998 592.125, 688.999 592.125, 698.999 592.125, 708.999 592.125, 718.998 592.125, 728.999 592.125, 738.999 592.125, 748.998 592.125, 758.999 592.125, 768.998 592.125, 778.998 592.125, 788.998 592.125, 796.445 " />
            <path fill="none" stroke-width="1.5" stroke-linecap="round" stroke-opacity="1.0" stroke="rgb(0, 0, 0)" stroke-linejoin="round" d=" M 592.125, 475.944 592.125, 485.944 592.125, 495.944 592.125, 505.944 592.125, 515.944 592.125, 525.944 592.125, 535.944 592.125, 545.944 592.125, 555.944 592.125, 565.944 592.125, 575.944 592.125, 585.944 592.125, 595.944 592.125, 605.944 592.125, 615.944 592.125, 625.944 592.125, 633.390 " />
            <path fill="none" stroke-width="1.5" stroke-linecap="round" stroke-opacity="1.0" stroke="rgb(0, 0, 0)" stroke-linejoin="round" d=" M 431.875, 638.999 441.875, 638.999 451.875, 638.999 461.875, 638.999 471.875, 638.999 481.875, 638.999 491.875, 638.999 501.875, 638.999 511.875, 638.999 521.875, 638.999 531.875, 638.999 541.875, 638.999 551.875, 638.999 561.875, 638.999 571.875, 638.999 581.875, 638.999 592.125, 638.999 " />
            <path fill="none" stroke-width="1.5" stroke-linecap="round" stroke-opacity="1.0" stroke="rgb(0, 0, 0)" stroke-linejoin="round" d=" M 592.125, 633.390 582.125, 633.390 572.125, 633.390 562.125, 633.390 552.125, 633.390 542.125, 633.390 532.125, 633.390 522.125, 633.390 512.125, 633.390 502.125, 633.390 492.125, 633.390 482.125, 633.390 472.125, 633.390 462.125, 633.390 452.125, 633.390 442.125, 633.390 431.875, 633.390 " />
        </g>
    </g>
</svg>
