<?xml version='1.0' encoding='ascii'?>
<svg xmlns="http://www.w3.org/2000/svg" xmlns:inkscape="http://www.inkscape.org/namespaces/inkscape" version="1.1" width="1024" height="1024">
    <g id="ViewLayer_LineSet" inkscape:groupmode="lineset" inkscape:label="ViewLayer_LineSet">
        <g inkscape:groupmode="layer" id="strokes" inkscape:label="strokes">
            <path fill="none" stroke-width="3.0" stroke-linecap="butt" stroke-opacity="1.0" stroke="rgb(0, 0, 0)" stroke-linejoin="round" d=" M 434.679, 475.944 434.371, 475.944 433.459, 475.944 431.979, 475.944 429.986, 475.944 427.557, 475.944 424.787, 475.944 421.781, 475.944 418.654, 475.944 415.528, 475.944 412.522, 475.944 409.751, 475.944 407.323, 475.944 405.330, 475.944 403.849, 475.944 402.937, 475.944 402.629, 475.944 402.629, 485.944 402.629, 495.944 402.629, 505.944 402.629, 515.944 402.629, 525.944 402.629, 535.944 402.629, 545.944 402.629, 555.944 402.629, 565.944 402.629, 575.944 402.629, 585.944 402.629, 595.944 402.629, 605.944 402.629, 615.944 402.629, 625.944 402.629, 635.944 402.629, 645.944 402.629, 655.944 402.629, 665.944 402.629, 675.944 402.629, 685.944 402.629, 695.944 402.629, 705.944 402.629, 715.944 402.629, 725.944 402.629, 735.944 402.629, 745.944 402.629, 755.944 402.629, 765.944 402.629, 775.944 402.629, 785.944 402.629, 796.445 402.937, 796.445 403.849, 796.445 405.330, 796.445 407.323, 796.445 409.751, 796.445 412.522, 796.445 415.528, 796.445 418.654, 796.445 421.781, 796.445 424.787, 796.445 427.557, 796.445 429.986, 796.445 431.979, 796.445 433.459, 796.445 434.371, 796.445 434.679, 796.445 434.679, 786.445 434.679, 776.445 434.679, 766.445 434.679, 756.445 434.679, 746.445 434.679, 736.445 434.679, 726.445 434.679, 716.445 434.679, 706.445 434.679, 696.445 434.679, 686.445 434.679, 676.444 434.679, 666.445 434.679, 656.445 434.679, 646.444 434.679, 638.999 " />
            <path fill="none" stroke-width="3.0" stroke-linecap="butt" stroke-opacity="1.0" stroke="rgb(0, 0, 0)" stroke-linejoin="round" d=" M 594.930, 638.999 594.930, 648.999 594.930, 658.999 594.930, 668.999 594.930, 678.998 594.930, 688.999 594.930, 698.999 594.930, 708.999 594.930, 718.998 594.930, 728.999 594.930, 738.999 594.930, 748.998 594.930, 758.999 594.930, 768.998 594.930, 778.998 594.930, 788.998 594.930, 796.445 595.238, 796.445 596.149, 796.445 597.630, 796.445 599.623, 796.445 602.052, 796.445 604.822, 796.445 607.828, 796.445 610.955, 796.445 614.081, 796.445 617.087, 796.445 619.858, 796.445 622.286, 796.445 624.279, 796.445 625.760, 796.445 626.672, 796.445 626.980, 796.445 626.980, 786.445 626.980, 776.445 626.980, 766.445 626.980, 756.445 626.980, 746.445 626.980, 736.445 626.980, 726.445 626.980, 716.445 626.980, 706.445 626.980, 696.445 626.980, 686.445 626.980, 676.444 626.980, 666.445 626.980, 656.445 626.980, 646.444 626.980, 638.999 " />
            <path fill="none" stroke-width="3.0" stroke-linecap="butt" stroke-opacity="1.0" stroke="rgb(0, 0, 0)" stroke-linejoin="round" d=" M 626.980, 475.944 626.672, 475.944 625.760, 475.944 624.279, 475.944 622.286, 475.944 619.858, 475.944 617.087, 475.944 614.081, 475.944 610.955, 475.944 607.828, 475.944 604.822, 475.944 602.052, 475.944 599.623, 475.944 597.630, 475.944 596.149, 475.944 595.238, 475.944 594.930, 475.944 " />
            <path fill="none" stroke-width="3.0" stroke-linecap="butt" stroke-opacity="1.0" stroke="rgb(0, 0, 0)" stroke-linejoin="round" d=" M 626.980, 465.527 626.980, 455.527 626.980, 454.310 626.980, 454.310 616.980, 454.310 606.980, 454.310 596.980, 454.310 586.980, 454.310 576.980, 454.310 566.980, 454.310 556.980, 454.310 546.980, 454.310 536.980, 454.310 526.980, 454.310 516.980, 454.310 506.980, 454.310 496.980, 454.310 486.980, 454.310 476.980, 454.310 466.980, 454.310 456.980, 454.310 446.980, 454.310 436.980, 454.310 426.980, 454.310 416.980, 454.310 406.980, 454.310 402.629, 454.310 402.629, 464.310 402.629, 465.527 402.629, 465.527 412.629, 465.527 422.629, 465.527 432.629, 465.527 442.629, 465.527 452.629, 465.527 462.629, 465.527 472.629, 465.527 482.629, 465.527 492.629, 465.527 502.629, 465.527 512.629, 465.527 522.629, 465.527 532.629, 465.527 542.629, 465.527 552.629, 465.527 562.629, 465.527 572.629, 465.527 582.629, 465.527 592.629, 465.527 602.629, 465.527 612.629, 465.527 622.629, 465.527 626.980, 465.527 " />
            <path fill="none" stroke-width="3.0" stroke-linecap="butt" stroke-opacity="1.0" stroke="rgb(0, 0, 0)" stroke-linejoin="round" d=" M 626.980, 454.310 626.980, 464.310 626.980, 465.527 " />
            <path fill="none" stroke-width="3.0" stroke-linecap="butt" stroke-opacity="1.0" stroke="rgb(0, 0, 0)" stroke-linejoin="round" d=" M 402.629, 465.527 412.629, 465.527 422.629, 465.527 432.629, 465.527 442.629, 465.527 452.629, 465.527 462.629, 465.527 472.629, 465.527 482.629, 465.527 492.629, 465.527 502.629, 465.527 512.629, 465.527 522.629, 465.527 532.629, 465.527 542.629, 465.527 552.629, 465.527 562.629, 465.527 572.629, 465.527 582.629, 465.527 592.629, 465.527 602.629, 465.527 612.629, 465.527 622.629, 465.527 626.980, 465.527 626.980, 465.527 " />
            <path fill="none" stroke-width="3.0" stroke-linecap="butt" stroke-opacity="1.0" stroke="rgb(0, 0, 0)" stroke-linejoin="round" d=" M 408.238, 339.731 408.238, 329.731 408.238, 319.731 408.238, 309.731 408.238, 299.731 408.238, 289.731 408.238, 279.731 408.238, 269.731 408.238, 259.731 408.238, 249.731 408.238, 239.731 408.238, 229.731 408.238, 227.556 408.238, 227.556 398.238, 227.556 397.020, 227.556 397.020, 237.556 397.020, 247.556 397.020, 257.556 397.020, 267.556 397.020, 277.556 397.020, 287.556 397.020, 297.556 397.020, 307.556 397.020, 317.556 397.020, 327.556 397.020, 337.556 397.020, 339.731 397.020, 339.731 407.020, 339.731 408.238, 339.731 " />
            <path fill="none" stroke-width="3.0" stroke-linecap="butt" stroke-opacity="1.0" stroke="rgb(0, 0, 0)" stroke-linejoin="round" d=" M 408.238, 227.556 408.238, 237.556 408.238, 247.556 408.238, 257.556 408.238, 267.556 408.238, 277.556 408.238, 287.556 408.238, 297.556 408.238, 307.556 408.238, 317.556 408.238, 327.556 408.238, 337.556 408.238, 339.731 " />
            <path fill="none" stroke-width="3.0" stroke-linecap="butt" stroke-opacity="1.0" stroke="rgb(0, 0, 0)" stroke-linejoin="round" d=" M 397.020, 339.731 407.020, 339.731 408.238, 339.731 408.238, 339.731 " />
            <path fill="none" stroke-width="3.0" stroke-linecap="butt" stroke-opacity="1.0" stroke="rgb(0, 0, 0)" stroke-linejoin="round" d=" M 415.850, 633.390 415.850, 633.390 421.459, 633.390 421.459, 633.390 " />
            <path fill="none" stroke-width="3.0" stroke-linecap="butt" stroke-opacity="1.0" stroke="rgb(0, 0, 0)" stroke-linejoin="round" d=" M 415.850, 638.999 421.459, 638.999 " />
            <path fill="none" stroke-width="3.0" stroke-linecap="butt" stroke-opacity="1.0" stroke="rgb(0, 0, 0)" stroke-linejoin="round" d=" M 608.150, 633.390 608.150, 633.390 613.759, 633.390 613.759, 633.390 " />
            <path fill="none" stroke-width="3.0" stroke-linecap="butt" stroke-opacity="1.0" stroke="rgb(0, 0, 0)" stroke-linejoin="round" d=" M 608.150, 638.999 613.759, 638.999 " />
            <path fill="none" stroke-width="3.0" stroke-linecap="butt" stroke-opacity="1.0" stroke="rgb(0, 0, 0)" stroke-linejoin="round" d=" M 626.980, 638.999 626.980, 633.390 " />
            <path fill="none" stroke-width="3.0" stroke-linecap="butt" stroke-opacity="1.0" stroke="rgb(0, 0, 0)" stroke-linejoin="round" d=" M 402.629, 633.390 402.629, 638.999 " />
            <path fill="none" stroke-width="3.0" stroke-linecap="butt" stroke-opacity="1.0" stroke="rgb(0, 0, 0)" stroke-linejoin="round" d=" M 415.850, 633.390 415.850, 638.999 " />
            <path fill="none" stroke-width="3.0" stroke-linecap="butt" stroke-opacity="1.0" stroke="rgb(0, 0, 0)" stroke-linejoin="round" d=" M 421.459, 633.390 421.459, 638.999 " />
            <path fill="none" stroke-width="3.0" stroke-linecap="butt" stroke-opacity="1.0" stroke="rgb(0, 0, 0)" stroke-linejoin="round" d=" M 434.679, 633.390 434.679, 623.390 434.679, 613.390 434.679, 603.390 434.679, 593.390 434.679, 583.390 434.679, 573.390 434.679, 563.390 434.679, 553.390 434.679, 543.390 434.679, 533.390 434.679, 523.390 434.679, 513.390 434.679, 503.390 434.679, 493.390 434.679, 483.390 434.679, 475.944 " />
            <path fill="none" stroke-width="3.0" stroke-linecap="butt" stroke-opacity="1.0" stroke="rgb(0, 0, 0)" stroke-linejoin="round" d=" M 594.930, 475.944 594.930, 485.944 594.930, 495.944 594.930, 505.944 594.930, 515.944 594.930, 525.944 594.930, 535.944 594.930, 545.944 594.930, 555.944 594.930, 565.944 594.930, 575.944 594.930, 585.944 594.930, 595.944 594.930, 605.944 594.930, 615.944 594.930, 625.944 594.930, 633.390 " />
            <path fill="none" stroke-width="3.0" stroke-linecap="butt" stroke-opacity="1.0" stroke="rgb(0, 0, 0)" stroke-linejoin="round" d=" M 608.150, 633.390 608.150, 638.999 " />
            <path fill="none" stroke-width="3.0" stroke-linecap="butt" stroke-opacity="1.0" stroke="rgb(0, 0, 0)" stroke-linejoin="round" d=" M 613.759, 633.390 613.759, 638.999 " />
            <path fill="none" stroke-width="3.0" stroke-linecap="butt" stroke-opacity="1.0" stroke="rgb(0, 0, 0)" stroke-linejoin="round" d=" M 434.679, 638.999 444.679, 638.999 454.679, 638.999 464.679, 638.999 474.679, 638.999 484.679, 638.999 494.679, 638.999 504.679, 638.999 514.679, 638.999 524.679, 638.999 534.679, 638.999 544.679, 638.999 554.679, 638.999 564.679, 638.999 574.679, 638.999 584.679, 638.999 594.930, 638.999 " />
            <path fill="none" stroke-width="3.0" stroke-linecap="butt" stroke-opacity="1.0" stroke="rgb(0, 0, 0)" stroke-linejoin="round" d=" M 402.629, 638.999 402.629, 638.999 " />
            <path fill="none" stroke-width="3.0" stroke-linecap="butt" stroke-opacity="1.0" stroke="rgb(0, 0, 0)" stroke-linejoin="round" d=" M 594.930, 633.390 584.930, 633.390 574.930, 633.390 564.930, 633.390 554.930, 633.390 544.930, 633.390 534.930, 633.390 524.930, 633.390 514.930, 633.390 504.930, 633.390 494.930, 633.390 484.930, 633.390 474.930, 633.390 464.930, 633.390 454.930, 633.390 444.930, 633.390 434.679, 633.390 " />
            <path fill="none" stroke-width="3.0" stroke-linecap="butt" stroke-opacity="1.0" stroke="rgb(0, 0, 0)" stroke-linejoin="round" d=" M 626.980, 633.390 626.980, 623.390 626.980, 613.390 626.980, 603.390 626.980, 593.390 626.980, 583.390 626.980, 573.390 626.980, 563.390 626.980, 553.390 626.980, 543.390 626.980, 533.390 626.980, 523.390 626.980, 513.390 626.980, 503.390 626.980, 493.390 626.980, 483.390 626.980, 475.944 " />
            <path fill="none" stroke-width="3.0" stroke-linecap="butt" stroke-opacity="1.0" stroke="rgb(0, 0, 0)" stroke-linejoin="round" d=" M 626.980, 638.999 626.980, 633.390 " />
        </g>
    </g>
    <g id="ViewLayer_TechnicalLines" inkscape:groupmode="lineset" inkscape:label="ViewLayer_TechnicalLines">
        <g inkscape:groupmode="layer" id="strokes" inkscape:label="strokes">
            <path fill="none" stroke-width="3.0" stroke-linecap="butt" stroke-opacity="1.0" stroke="rgb(0, 0, 0)" stroke-linejoin="round" d=" M 434.679, 475.944 434.371, 475.944 433.459, 475.944 431.979, 475.944 429.986, 475.944 427.557, 475.944 424.787, 475.944 421.781, 475.944 418.654, 475.944 415.528, 475.944 412.522, 475.944 409.751, 475.944 407.323, 475.944 405.330, 475.944 403.849, 475.944 402.937, 475.944 402.629, 475.944 402.629, 485.944 402.629, 495.944 402.629, 505.944 402.629, 515.944 402.629, 525.944 402.629, 535.944 402.629, 545.944 402.629, 555.944 402.629, 565.944 402.629, 575.944 402.629, 585.944 402.629, 595.944 402.629, 605.944 402.629, 615.944 402.629, 625.944 402.629, 635.944 402.629, 645.944 402.629, 655.944 402.629, 665.944 402.629, 675.944 402.629, 685.944 402.629, 695.944 402.629, 705.944 402.629, 715.944 402.629, 725.944 402.629, 735.944 402.629, 745.944 402.629, 755.944 402.629, 765.944 402.629, 775.944 402.629, 785.944 402.629, 796.445 402.937, 796.445 403.849, 796.445 405.330, 796.445 407.323, 796.445 409.751, 796.445 412.522, 796.445 415.528, 796.445 418.654, 796.445 421.781, 796.445 424.787, 796.445 427.557, 796.445 429.986, 796.445 431.979, 796.445 433.459, 796.445 434.371, 796.445 434.679, 796.445 434.679, 786.445 434.679, 776.445 434.679, 766.445 434.679, 756.445 434.679, 746.445 434.679, 736.445 434.679, 726.445 434.679, 716.445 434.679, 706.445 434.679, 696.445 434.679, 686.445 434.679, 676.444 434.679, 666.445 434.679, 656.445 434.679, 646.444 434.679, 638.999 " />
            <path fill="none" stroke-width="3.0" stroke-linecap="butt" stroke-opacity="1.0" stroke="rgb(0, 0, 0)" stroke-linejoin="round" d=" M 594.930, 638.999 594.930, 648.999 594.930, 658.999 594.930, 668.999 594.930, 678.998 594.930, 688.999 594.930, 698.999 594.930, 708.999 594.930, 718.998 594.930, 728.999 594.930, 738.999 594.930, 748.998 594.930, 758.999 594.930, 768.998 594.930, 778.998 594.930, 788.998 594.930, 796.445 595.238, 796.445 596.149, 796.445 597.630, 796.445 599.623, 796.445 602.052, 796.445 604.822, 796.445 607.828, 796.445 610.955, 796.445 614.081, 796.445 617.087, 796.445 619.858, 796.445 622.286, 796.445 624.279, 796.445 625.760, 796.445 626.672, 796.445 626.980, 796.445 626.980, 786.445 626.980, 776.445 626.980, 766.445 626.980, 756.445 626.980, 746.445 626.980, 736.445 626.980, 726.445 626.980, 716.445 626.980, 706.445 626.980, 696.445 626.980, 686.445 626.980, 676.444 626.980, 666.445 626.980, 656.445 626.980, 646.444 626.980, 638.999 " />
            <path fill="none" stroke-width="3.0" stroke-linecap="butt" stroke-opacity="1.0" stroke="rgb(0, 0, 0)" stroke-linejoin="round" d=" M 626.980, 475.944 626.672, 475.944 625.760, 475.944 624.279, 475.944 622.286, 475.944 619.858, 475.944 617.087, 475.944 614.081, 475.944 610.955, 475.944 607.828, 475.944 604.822, 475.944 602.052, 475.944 599.623, 475.944 597.630, 475.944 596.149, 475.944 595.238, 475.944 594.930, 475.944 " />
            <path fill="none" stroke-width="3.0" stroke-linecap="butt" stroke-opacity="1.0" stroke="rgb(0, 0, 0)" stroke-linejoin="round" d=" M 626.980, 465.527 626.980, 455.527 626.980, 454.310 626.980, 454.310 616.980, 454.310 606.980, 454.310 596.980, 454.310 586.980, 454.310 576.980, 454.310 566.980, 454.310 556.980, 454.310 546.980, 454.310 536.980, 454.310 526.980, 454.310 516.980, 454.310 506.980, 454.310 496.980, 454.310 486.980, 454.310 476.980, 454.310 466.980, 454.310 456.980, 454.310 446.980, 454.310 436.980, 454.310 426.980, 454.310 416.980, 454.310 406.980, 454.310 402.629, 454.310 402.629, 464.310 402.629, 465.527 402.629, 465.527 412.629, 465.527 422.629, 465.527 432.629, 465.527 442.629, 465.527 452.629, 465.527 462.629, 465.527 472.629, 465.527 482.629, 465.527 492.629, 465.527 502.629, 465.527 512.629, 465.527 522.629, 465.527 532.629, 465.527 542.629, 465.527 552.629, 465.527 562.629, 465.527 572.629, 465.527 582.629, 465.527 592.629, 465.527 602.629, 465.527 612.629, 465.527 622.629, 465.527 626.980, 465.527 " />
            <path fill="none" stroke-width="3.0" stroke-linecap="butt" stroke-opacity="1.0" stroke="rgb(0, 0, 0)" stroke-linejoin="round" d=" M 626.980, 454.310 626.980, 464.310 626.980, 465.527 " />
            <path fill="none" stroke-width="3.0" stroke-linecap="butt" stroke-opacity="1.0" stroke="rgb(0, 0, 0)" stroke-linejoin="round" d=" M 402.629, 465.527 412.629, 465.527 422.629, 465.527 432.629, 465.527 442.629, 465.527 452.629, 465.527 462.629, 465.527 472.629, 465.527 482.629, 465.527 492.629, 465.527 502.629, 465.527 512.629, 465.527 522.629, 465.527 532.629, 465.527 542.629, 465.527 552.629, 465.527 562.629, 465.527 572.629, 465.527 582.629, 465.527 592.629, 465.527 602.629, 465.527 612.629, 465.527 622.629, 465.527 626.980, 465.527 626.980, 465.527 " />
            <path fill="none" stroke-width="3.0" stroke-linecap="butt" stroke-opacity="1.0" stroke="rgb(0, 0, 0)" stroke-linejoin="round" d=" M 408.238, 339.731 408.238, 329.731 408.238, 319.731 408.238, 309.731 408.238, 299.731 408.238, 289.731 408.238, 279.731 408.238, 269.731 408.238, 259.731 408.238, 249.731 408.238, 239.731 408.238, 229.731 408.238, 227.556 408.238, 227.556 398.238, 227.556 397.020, 227.556 397.020, 237.556 397.020, 247.556 397.020, 257.556 397.020, 267.556 397.020, 277.556 397.020, 287.556 397.020, 297.556 397.020, 307.556 397.020, 317.556 397.020, 327.556 397.020, 337.556 397.020, 339.731 397.020, 339.731 407.020, 339.731 408.238, 339.731 " />
            <path fill="none" stroke-width="3.0" stroke-linecap="butt" stroke-opacity="1.0" stroke="rgb(0, 0, 0)" stroke-linejoin="round" d=" M 408.238, 227.556 408.238, 237.556 408.238, 247.556 408.238, 257.556 408.238, 267.556 408.238, 277.556 408.238, 287.556 408.238, 297.556 408.238, 307.556 408.238, 317.556 408.238, 327.556 408.238, 337.556 408.238, 339.731 " />
            <path fill="none" stroke-width="3.0" stroke-linecap="butt" stroke-opacity="1.0" stroke="rgb(0, 0, 0)" stroke-linejoin="round" d=" M 397.020, 339.731 407.020, 339.731 408.238, 339.731 408.238, 339.731 " />
            <path fill="none" stroke-width="3.0" stroke-linecap="butt" stroke-opacity="1.0" stroke="rgb(0, 0, 0)" stroke-linejoin="round" d=" M 415.850, 633.390 415.850, 633.390 421.459, 633.390 421.459, 633.390 " />
            <path fill="none" stroke-width="3.0" stroke-linecap="butt" stroke-opacity="1.0" stroke="rgb(0, 0, 0)" stroke-linejoin="round" d=" M 415.850, 638.999 421.459, 638.999 " />
            <path fill="none" stroke-width="3.0" stroke-linecap="butt" stroke-opacity="1.0" stroke="rgb(0, 0, 0)" stroke-linejoin="round" d=" M 608.150, 633.390 608.150, 633.390 613.759, 633.390 613.759, 633.390 " />
            <path fill="none" stroke-width="3.0" stroke-linecap="butt" stroke-opacity="1.0" stroke="rgb(0, 0, 0)" stroke-linejoin="round" d=" M 608.150, 638.999 613.759, 638.999 " />
            <path fill="none" stroke-width="3.0" stroke-linecap="butt" stroke-opacity="1.0" stroke="rgb(0, 0, 0)" stroke-linejoin="round" d=" M 626.980, 638.999 626.980, 633.390 " />
            <path fill="none" stroke-width="3.0" stroke-linecap="butt" stroke-opacity="1.0" stroke="rgb(0, 0, 0)" stroke-linejoin="round" d=" M 402.629, 633.390 402.629, 638.999 " />
            <path fill="none" stroke-width="3.0" stroke-linecap="butt" stroke-opacity="1.0" stroke="rgb(0, 0, 0)" stroke-linejoin="round" d=" M 415.850, 633.390 415.850, 638.999 " />
            <path fill="none" stroke-width="3.0" stroke-linecap="butt" stroke-opacity="1.0" stroke="rgb(0, 0, 0)" stroke-linejoin="round" d=" M 421.459, 633.390 421.459, 638.999 " />
            <path fill="none" stroke-width="3.0" stroke-linecap="butt" stroke-opacity="1.0" stroke="rgb(0, 0, 0)" stroke-linejoin="round" d=" M 434.679, 633.390 434.679, 623.390 434.679, 613.390 434.679, 603.390 434.679, 593.390 434.679, 583.390 434.679, 573.390 434.679, 563.390 434.679, 553.390 434.679, 543.390 434.679, 533.390 434.679, 523.390 434.679, 513.390 434.679, 503.390 434.679, 493.390 434.679, 483.390 434.679, 475.944 " />
            <path fill="none" stroke-width="3.0" stroke-linecap="butt" stroke-opacity="1.0" stroke="rgb(0, 0, 0)" stroke-linejoin="round" d=" M 594.930, 475.944 594.930, 485.944 594.930, 495.944 594.930, 505.944 594.930, 515.944 594.930, 525.944 594.930, 535.944 594.930, 545.944 594.930, 555.944 594.930, 565.944 594.930, 575.944 594.930, 585.944 594.930, 595.944 594.930, 605.944 594.930, 615.944 594.930, 625.944 594.930, 633.390 " />
            <path fill="none" stroke-width="3.0" stroke-linecap="butt" stroke-opacity="1.0" stroke="rgb(0, 0, 0)" stroke-linejoin="round" d=" M 608.150, 633.390 608.150, 638.999 " />
            <path fill="none" stroke-width="3.0" stroke-linecap="butt" stroke-opacity="1.0" stroke="rgb(0, 0, 0)" stroke-linejoin="round" d=" M 613.759, 633.390 613.759, 638.999 " />
            <path fill="none" stroke-width="3.0" stroke-linecap="butt" stroke-opacity="1.0" stroke="rgb(0, 0, 0)" stroke-linejoin="round" d=" M 434.679, 638.999 444.679, 638.999 454.679, 638.999 464.679, 638.999 474.679, 638.999 484.679, 638.999 494.679, 638.999 504.679, 638.999 514.679, 638.999 524.679, 638.999 534.679, 638.999 544.679, 638.999 554.679, 638.999 564.679, 638.999 574.679, 638.999 584.679, 638.999 594.930, 638.999 " />
            <path fill="none" stroke-width="3.0" stroke-linecap="butt" stroke-opacity="1.0" stroke="rgb(0, 0, 0)" stroke-linejoin="round" d=" M 402.629, 638.999 402.629, 638.999 " />
            <path fill="none" stroke-width="3.0" stroke-linecap="butt" stroke-opacity="1.0" stroke="rgb(0, 0, 0)" stroke-linejoin="round" d=" M 594.930, 633.390 584.930, 633.390 574.930, 633.390 564.930, 633.390 554.930, 633.390 544.930, 633.390 534.930, 633.390 524.930, 633.390 514.930, 633.390 504.930, 633.390 494.930, 633.390 484.930, 633.390 474.930, 633.390 464.930, 633.390 454.930, 633.390 444.930, 633.390 434.679, 633.390 " />
            <path fill="none" stroke-width="3.0" stroke-linecap="butt" stroke-opacity="1.0" stroke="rgb(0, 0, 0)" stroke-linejoin="round" d=" M 626.980, 633.390 626.980, 623.390 626.980, 613.390 626.980, 603.390 626.980, 593.390 626.980, 583.390 626.980, 573.390 626.980, 563.390 626.980, 553.390 626.980, 543.390 626.980, 533.390 626.980, 523.390 626.980, 513.390 626.980, 503.390 626.980, 493.390 626.980, 483.390 626.980, 475.944 " />
            <path fill="none" stroke-width="3.0" stroke-linecap="butt" stroke-opacity="1.0" stroke="rgb(0, 0, 0)" stroke-linejoin="round" d=" M 626.980, 638.999 626.980, 633.390 " />
        </g>
    </g>
    <g id="ViewLayer_TechnicalLines.001" inkscape:groupmode="lineset" inkscape:label="ViewLayer_TechnicalLines.001">
        <g inkscape:groupmode="layer" id="strokes" inkscape:label="strokes">
            <path fill="none" stroke-width="1.5" stroke-linecap="round" stroke-opacity="1.0" stroke="rgb(0, 0, 0)" stroke-linejoin="round" d=" M 434.679, 475.944 434.371, 475.944 433.459, 475.944 431.979, 475.944 429.986, 475.944 427.557, 475.944 424.787, 475.944 421.781, 475.944 418.654, 475.944 415.528, 475.944 412.522, 475.944 409.751, 475.944 407.323, 475.944 405.330, 475.944 403.849, 475.944 402.937, 475.944 402.629, 475.944 402.629, 485.944 402.629, 495.944 402.629, 505.944 402.629, 515.944 402.629, 525.944 402.629, 535.944 402.629, 545.944 402.629, 555.944 402.629, 565.944 402.629, 575.944 402.629, 585.944 402.629, 595.944 402.629, 605.944 402.629, 615.944 402.629, 625.944 402.629, 635.944 402.629, 645.944 402.629, 655.944 402.629, 665.944 402.629, 675.944 402.629, 685.944 402.629, 695.944 402.629, 705.944 402.629, 715.944 402.629, 725.944 402.629, 735.944 402.629, 745.944 402.629, 755.944 402.629, 765.944 402.629, 775.944 402.629, 785.944 402.629, 796.445 402.937, 796.445 403.849, 796.445 405.330, 796.445 407.323, 796.445 409.751, 796.445 412.522, 796.445 415.528, 796.445 418.654, 796.445 421.781, 796.445 424.787, 796.445 427.557, 796.445 429.986, 796.445 431.979, 796.445 433.459, 796.445 434.371, 796.445 434.679, 796.445 434.679, 786.445 434.679, 776.445 434.679, 766.445 434.679, 756.445 434.679, 746.445 434.679, 736.445 434.679, 726.445 434.679, 716.445 434.679, 706.445 434.679, 696.445 434.679, 686.445 434.679, 676.444 434.679, 666.445 434.679, 656.445 434.679, 646.444 434.679, 638.999 " />
            <path fill="none" stroke-width="1.5" stroke-linecap="round" stroke-opacity="1.0" stroke="rgb(0, 0, 0)" stroke-linejoin="round" d=" M 594.930, 638.999 594.930, 648.999 594.930, 658.999 594.930, 668.999 594.930, 678.998 594.930, 688.999 594.930, 698.999 594.930, 708.999 594.930, 718.998 594.930, 728.999 594.930, 738.999 594.930, 748.998 594.930, 758.999 594.930, 768.998 594.930, 778.998 594.930, 788.998 594.930, 796.445 595.238, 796.445 596.149, 796.445 597.630, 796.445 599.623, 796.445 602.052, 796.445 604.822, 796.445 607.828, 796.445 610.955, 796.445 614.081, 796.445 617.087, 796.445 619.858, 796.445 622.286, 796.445 624.279, 796.445 625.760, 796.445 626.672, 796.445 626.980, 796.445 626.980, 786.445 626.980, 776.445 626.980, 766.445 626.980, 756.445 626.980, 746.445 626.980, 736.445 626.980, 726.445 626.980, 716.445 626.980, 706.445 626.980, 696.445 626.980, 686.445 626.980, 676.444 626.980, 666.445 626.980, 656.445 626.980, 646.444 626.980, 638.999 " />
            <path fill="none" stroke-width="1.5" stroke-linecap="round" stroke-opacity="1.0" stroke="rgb(0, 0, 0)" stroke-linejoin="round" d=" M 626.980, 475.944 626.672, 475.944 625.760, 475.944 624.279, 475.944 622.286, 475.944 619.858, 475.944 617.087, 475.944 614.081, 475.944 610.955, 475.944 607.828, 475.944 604.822, 475.944 602.052, 475.944 599.623, 475.944 597.630, 475.944 596.149, 475.944 595.238, 475.944 594.930, 475.944 " />
            <path fill="none" stroke-width="1.5" stroke-linecap="round" stroke-opacity="1.0" stroke="rgb(0, 0, 0)" stroke-linejoin="round" d=" M 626.980, 465.527 626.980, 455.527 626.980, 454.310 626.980, 454.310 616.980, 454.310 606.980, 454.310 596.980, 454.310 586.980, 454.310 576.980, 454.310 566.980, 454.310 556.980, 454.310 546.980, 454.310 536.980, 454.310 526.980, 454.310 516.980, 454.310 506.980, 454.310 496.980, 454.310 486.980, 454.310 476.980, 454.310 466.980, 454.310 456.980, 454.310 446.980, 454.310 436.980, 454.310 426.980, 454.310 416.980, 454.310 406.980, 454.310 402.629, 454.310 402.629, 464.310 402.629, 465.527 402.629, 465.527 412.629, 465.527 422.629, 465.527 432.629, 465.527 442.629, 465.527 452.629, 465.527 462.629, 465.527 472.629, 465.527 482.629, 465.527 492.629, 465.527 502.629, 465.527 512.629, 465.527 522.629, 465.527 532.629, 465.527 542.629, 465.527 552.629, 465.527 562.629, 465.527 572.629, 465.527 582.629, 465.527 592.629, 465.527 602.629, 465.527 612.629, 465.527 622.629, 465.527 626.980, 465.527 " />
            <path fill="none" stroke-width="1.5" stroke-linecap="round" stroke-opacity="1.0" stroke="rgb(0, 0, 0)" stroke-linejoin="round" d=" M 626.980, 454.310 626.980, 464.310 626.980, 465.527 " />
            <path fill="none" stroke-width="1.5" stroke-linecap="round" stroke-opacity="1.0" stroke="rgb(0, 0, 0)" stroke-linejoin="round" d=" M 402.629, 465.527 412.629, 465.527 422.629, 465.527 432.629, 465.527 442.629, 465.527 452.629, 465.527 462.629, 465.527 472.629, 465.527 482.629, 465.527 492.629, 465.527 502.629, 465.527 512.629, 465.527 522.629, 465.527 532.629, 465.527 542.629, 465.527 552.629, 465.527 562.629, 465.527 572.629, 465.527 582.629, 465.527 592.629, 465.527 602.629, 465.527 612.629, 465.527 622.629, 465.527 626.980, 465.527 626.980, 465.527 " />
            <path fill="none" stroke-width="1.5" stroke-linecap="round" stroke-opacity="1.0" stroke="rgb(0, 0, 0)" stroke-linejoin="round" d=" M 408.238, 339.731 408.238, 329.731 408.238, 319.731 408.238, 309.731 408.238, 299.731 408.238, 289.731 408.238, 279.731 408.238, 269.731 408.238, 259.731 408.238, 249.731 408.238, 239.731 408.238, 229.731 408.238, 227.556 408.238, 227.556 398.238, 227.556 397.020, 227.556 397.020, 237.556 397.020, 247.556 397.020, 257.556 397.020, 267.556 397.020, 277.556 397.020, 287.556 397.020, 297.556 397.020, 307.556 397.020, 317.556 397.020, 327.556 397.020, 337.556 397.020, 339.731 397.020, 339.731 407.020, 339.731 408.238, 339.731 " />
            <path fill="none" stroke-width="1.5" stroke-linecap="round" stroke-opacity="1.0" stroke="rgb(0, 0, 0)" stroke-linejoin="round" d=" M 408.238, 227.556 408.238, 237.556 408.238, 247.556 408.238, 257.556 408.238, 267.556 408.238, 277.556 408.238, 287.556 408.238, 297.556 408.238, 307.556 408.238, 317.556 408.238, 327.556 408.238, 337.556 408.238, 339.731 " />
            <path fill="none" stroke-width="1.5" stroke-linecap="round" stroke-opacity="1.0" stroke="rgb(0, 0, 0)" stroke-linejoin="round" d=" M 397.020, 339.731 407.020, 339.731 408.238, 339.731 408.238, 339.731 " />
            <path fill="none" stroke-width="1.5" stroke-linecap="round" stroke-opacity="1.0" stroke="rgb(0, 0, 0)" stroke-linejoin="round" d=" M 415.850, 633.390 415.850, 633.390 421.459, 633.390 421.459, 633.390 " />
            <path fill="none" stroke-width="1.5" stroke-linecap="round" stroke-opacity="1.0" stroke="rgb(0, 0, 0)" stroke-linejoin="round" d=" M 415.850, 638.999 421.459, 638.999 " />
            <path fill="none" stroke-width="1.5" stroke-linecap="round" stroke-opacity="1.0" stroke="rgb(0, 0, 0)" stroke-linejoin="round" d=" M 608.150, 633.390 608.150, 633.390 613.759, 633.390 613.759, 633.390 " />
            <path fill="none" stroke-width="1.5" stroke-linecap="round" stroke-opacity="1.0" stroke="rgb(0, 0, 0)" stroke-linejoin="round" d=" M 608.150, 638.999 613.759, 638.999 " />
            <path fill="none" stroke-width="1.5" stroke-linecap="round" stroke-opacity="1.0" stroke="rgb(0, 0, 0)" stroke-linejoin="round" d=" M 626.980, 638.999 626.980, 633.390 " />
            <path fill="none" stroke-width="1.5" stroke-linecap="round" stroke-opacity="1.0" stroke="rgb(0, 0, 0)" stroke-linejoin="round" d=" M 402.629, 633.390 402.629, 638.999 " />
            <path fill="none" stroke-width="1.5" stroke-linecap="round" stroke-opacity="1.0" stroke="rgb(0, 0, 0)" stroke-linejoin="round" d=" M 415.850, 633.390 415.850, 638.999 " />
            <path fill="none" stroke-width="1.5" stroke-linecap="round" stroke-opacity="1.0" stroke="rgb(0, 0, 0)" stroke-linejoin="round" d=" M 421.459, 633.390 421.459, 638.999 " />
            <path fill="none" stroke-width="1.5" stroke-linecap="round" stroke-opacity="1.0" stroke="rgb(0, 0, 0)" stroke-linejoin="round" d=" M 434.679, 633.390 434.679, 623.390 434.679, 613.390 434.679, 603.390 434.679, 593.390 434.679, 583.390 434.679, 573.390 434.679, 563.390 434.679, 553.390 434.679, 543.390 434.679, 533.390 434.679, 523.390 434.679, 513.390 434.679, 503.390 434.679, 493.390 434.679, 483.390 434.679, 475.944 " />
            <path fill="none" stroke-width="1.5" stroke-linecap="round" stroke-opacity="1.0" stroke="rgb(0, 0, 0)" stroke-linejoin="round" d=" M 594.930, 475.944 594.930, 485.944 594.930, 495.944 594.930, 505.944 594.930, 515.944 594.930, 525.944 594.930, 535.944 594.930, 545.944 594.930, 555.944 594.930, 565.944 594.930, 575.944 594.930, 585.944 594.930, 595.944 594.930, 605.944 594.930, 615.944 594.930, 625.944 594.930, 633.390 " />
            <path fill="none" stroke-width="1.5" stroke-linecap="round" stroke-opacity="1.0" stroke="rgb(0, 0, 0)" stroke-linejoin="round" d=" M 608.150, 633.390 608.150, 638.999 " />
            <path fill="none" stroke-width="1.5" stroke-linecap="round" stroke-opacity="1.0" stroke="rgb(0, 0, 0)" stroke-linejoin="round" d=" M 613.759, 633.390 613.759, 638.999 " />
            <path fill="none" stroke-width="1.5" stroke-linecap="round" stroke-opacity="1.0" stroke="rgb(0, 0, 0)" stroke-linejoin="round" d=" M 434.679, 638.999 444.679, 638.999 454.679, 638.999 464.679, 638.999 474.679, 638.999 484.679, 638.999 494.679, 638.999 504.679, 638.999 514.679, 638.999 524.679, 638.999 534.679, 638.999 544.679, 638.999 554.679, 638.999 564.679, 638.999 574.679, 638.999 584.679, 638.999 594.930, 638.999 " />
            <path fill="none" stroke-width="1.5" stroke-linecap="round" stroke-opacity="1.0" stroke="rgb(0, 0, 0)" stroke-linejoin="round" d=" M 402.629, 638.999 402.629, 638.999 " />
            <path fill="none" stroke-width="1.5" stroke-linecap="round" stroke-opacity="1.0" stroke="rgb(0, 0, 0)" stroke-linejoin="round" d=" M 594.930, 633.390 584.930, 633.390 574.930, 633.390 564.930, 633.390 554.930, 633.390 544.930, 633.390 534.930, 633.390 524.930, 633.390 514.930, 633.390 504.930, 633.390 494.930, 633.390 484.930, 633.390 474.930, 633.390 464.930, 633.390 454.930, 633.390 444.930, 633.390 434.679, 633.390 " />
            <path fill="none" stroke-width="1.5" stroke-linecap="round" stroke-opacity="1.0" stroke="rgb(0, 0, 0)" stroke-linejoin="round" d=" M 626.980, 633.390 626.980, 623.390 626.980, 613.390 626.980, 603.390 626.980, 593.390 626.980, 583.390 626.980, 573.390 626.980, 563.390 626.980, 553.390 626.980, 543.390 626.980, 533.390 626.980, 523.390 626.980, 513.390 626.980, 503.390 626.980, 493.390 626.980, 483.390 626.980, 475.944 " />
            <path fill="none" stroke-width="1.5" stroke-linecap="round" stroke-opacity="1.0" stroke="rgb(0, 0, 0)" stroke-linejoin="round" d=" M 626.980, 638.999 626.980, 633.390 " />
        </g>
    </g>
    <g id="ViewLayer_TechnicalLines.002" inkscape:groupmode="lineset" inkscape:label="ViewLayer_TechnicalLines.002">
        <g inkscape:groupmode="layer" id="strokes" inkscape:label="strokes">
            <path fill="none" stroke-width="1.5" stroke-linecap="round" stroke-opacity="1.0" stroke="rgb(0, 0, 0)" stroke-linejoin="round" d=" M 434.679, 475.944 434.371, 475.944 433.459, 475.944 431.979, 475.944 429.986, 475.944 427.557, 475.944 424.787, 475.944 421.781, 475.944 418.654, 475.944 415.528, 475.944 412.522, 475.944 409.751, 475.944 407.323, 475.944 405.330, 475.944 403.849, 475.944 402.937, 475.944 402.629, 475.944 402.629, 485.944 402.629, 495.944 402.629, 505.944 402.629, 515.944 402.629, 525.944 402.629, 535.944 402.629, 545.944 402.629, 555.944 402.629, 565.944 402.629, 575.944 402.629, 585.944 402.629, 595.944 402.629, 605.944 402.629, 615.944 402.629, 625.944 402.629, 635.944 402.629, 645.944 402.629, 655.944 402.629, 665.944 402.629, 675.944 402.629, 685.944 402.629, 695.944 402.629, 705.944 402.629, 715.944 402.629, 725.944 402.629, 735.944 402.629, 745.944 402.629, 755.944 402.629, 765.944 402.629, 775.944 402.629, 785.944 402.629, 796.445 402.937, 796.445 403.849, 796.445 405.330, 796.445 407.323, 796.445 409.751, 796.445 412.522, 796.445 415.528, 796.445 418.654, 796.445 421.781, 796.445 424.787, 796.445 427.557, 796.445 429.986, 796.445 431.979, 796.445 433.459, 796.445 434.371, 796.445 434.679, 796.445 434.679, 786.445 434.679, 776.445 434.679, 766.445 434.679, 756.445 434.679, 746.445 434.679, 736.445 434.679, 726.445 434.679, 716.445 434.679, 706.445 434.679, 696.445 434.679, 686.445 434.679, 676.444 434.679, 666.445 434.679, 656.445 434.679, 646.444 434.679, 638.999 " />
            <path fill="none" stroke-width="1.5" stroke-linecap="round" stroke-opacity="1.0" stroke="rgb(0, 0, 0)" stroke-linejoin="round" d=" M 594.930, 638.999 594.930, 648.999 594.930, 658.999 594.930, 668.999 594.930, 678.998 594.930, 688.999 594.930, 698.999 594.930, 708.999 594.930, 718.998 594.930, 728.999 594.930, 738.999 594.930, 748.998 594.930, 758.999 594.930, 768.998 594.930, 778.998 594.930, 788.998 594.930, 796.445 595.238, 796.445 596.149, 796.445 597.630, 796.445 599.623, 796.445 602.052, 796.445 604.822, 796.445 607.828, 796.445 610.955, 796.445 614.081, 796.445 617.087, 796.445 619.858, 796.445 622.286, 796.445 624.279, 796.445 625.760, 796.445 626.672, 796.445 626.980, 796.445 626.980, 786.445 626.980, 776.445 626.980, 766.445 626.980, 756.445 626.980, 746.445 626.980, 736.445 626.980, 726.445 626.980, 716.445 626.980, 706.445 626.980, 696.445 626.980, 686.445 626.980, 676.444 626.980, 666.445 626.980, 656.445 626.980, 646.444 626.980, 638.999 " />
            <path fill="none" stroke-width="1.5" stroke-linecap="round" stroke-opacity="1.0" stroke="rgb(0, 0, 0)" stroke-linejoin="round" d=" M 626.980, 475.944 626.672, 475.944 625.760, 475.944 624.279, 475.944 622.286, 475.944 619.858, 475.944 617.087, 475.944 614.081, 475.944 610.955, 475.944 607.828, 475.944 604.822, 475.944 602.052, 475.944 599.623, 475.944 597.630, 475.944 596.149, 475.944 595.238, 475.944 594.930, 475.944 " />
            <path fill="none" stroke-width="1.5" stroke-linecap="round" stroke-opacity="1.0" stroke="rgb(0, 0, 0)" stroke-linejoin="round" d=" M 626.980, 465.527 626.980, 455.527 626.980, 454.310 626.980, 454.310 616.980, 454.310 606.980, 454.310 596.980, 454.310 586.980, 454.310 576.980, 454.310 566.980, 454.310 556.980, 454.310 546.980, 454.310 536.980, 454.310 526.980, 454.310 516.980, 454.310 506.980, 454.310 496.980, 454.310 486.980, 454.310 476.980, 454.310 466.980, 454.310 456.980, 454.310 446.980, 454.310 436.980, 454.310 426.980, 454.310 416.980, 454.310 406.980, 454.310 402.629, 454.310 402.629, 464.310 402.629, 465.527 402.629, 465.527 412.629, 465.527 422.629, 465.527 432.629, 465.527 442.629, 465.527 452.629, 465.527 462.629, 465.527 472.629, 465.527 482.629, 465.527 492.629, 465.527 502.629, 465.527 512.629, 465.527 522.629, 465.527 532.629, 465.527 542.629, 465.527 552.629, 465.527 562.629, 465.527 572.629, 465.527 582.629, 465.527 592.629, 465.527 602.629, 465.527 612.629, 465.527 622.629, 465.527 626.980, 465.527 " />
            <path fill="none" stroke-width="1.5" stroke-linecap="round" stroke-opacity="1.0" stroke="rgb(0, 0, 0)" stroke-linejoin="round" d=" M 626.980, 454.310 626.980, 464.310 626.980, 465.527 " />
            <path fill="none" stroke-width="1.5" stroke-linecap="round" stroke-opacity="1.0" stroke="rgb(0, 0, 0)" stroke-linejoin="round" d=" M 402.629, 465.527 412.629, 465.527 422.629, 465.527 432.629, 465.527 442.629, 465.527 452.629, 465.527 462.629, 465.527 472.629, 465.527 482.629, 465.527 492.629, 465.527 502.629, 465.527 512.629, 465.527 522.629, 465.527 532.629, 465.527 542.629, 465.527 552.629, 465.527 562.629, 465.527 572.629, 465.527 582.629, 465.527 592.629, 465.527 602.629, 465.527 612.629, 465.527 622.629, 465.527 626.980, 465.527 626.980, 465.527 " />
            <path fill="none" stroke-width="1.5" stroke-linecap="round" stroke-opacity="1.0" stroke="rgb(0, 0, 0)" stroke-linejoin="round" d=" M 408.238, 339.731 408.238, 329.731 408.238, 319.731 408.238, 309.731 408.238, 299.731 408.238, 289.731 408.238, 279.731 408.238, 269.731 408.238, 259.731 408.238, 249.731 408.238, 239.731 408.238, 229.731 408.238, 227.556 408.238, 227.556 398.238, 227.556 397.020, 227.556 397.020, 237.556 397.020, 247.556 397.020, 257.556 397.020, 267.556 397.020, 277.556 397.020, 287.556 397.020, 297.556 397.020, 307.556 397.020, 317.556 397.020, 327.556 397.020, 337.556 397.020, 339.731 397.020, 339.731 407.020, 339.731 408.238, 339.731 " />
            <path fill="none" stroke-width="1.5" stroke-linecap="round" stroke-opacity="1.0" stroke="rgb(0, 0, 0)" stroke-linejoin="round" d=" M 408.238, 227.556 408.238, 237.556 408.238, 247.556 408.238, 257.556 408.238, 267.556 408.238, 277.556 408.238, 287.556 408.238, 297.556 408.238, 307.556 408.238, 317.556 408.238, 327.556 408.238, 337.556 408.238, 339.731 " />
            <path fill="none" stroke-width="1.5" stroke-linecap="round" stroke-opacity="1.0" stroke="rgb(0, 0, 0)" stroke-linejoin="round" d=" M 397.020, 339.731 407.020, 339.731 408.238, 339.731 408.238, 339.731 " />
            <path fill="none" stroke-width="1.5" stroke-linecap="round" stroke-opacity="1.0" stroke="rgb(0, 0, 0)" stroke-linejoin="round" d=" M 415.850, 633.390 415.850, 633.390 421.459, 633.390 421.459, 633.390 " />
            <path fill="none" stroke-width="1.5" stroke-linecap="round" stroke-opacity="1.0" stroke="rgb(0, 0, 0)" stroke-linejoin="round" d=" M 415.850, 638.999 421.459, 638.999 " />
            <path fill="none" stroke-width="1.5" stroke-linecap="round" stroke-opacity="1.0" stroke="rgb(0, 0, 0)" stroke-linejoin="round" d=" M 608.150, 633.390 608.150, 633.390 613.759, 633.390 613.759, 633.390 " />
            <path fill="none" stroke-width="1.5" stroke-linecap="round" stroke-opacity="1.0" stroke="rgb(0, 0, 0)" stroke-linejoin="round" d=" M 608.150, 638.999 613.759, 638.999 " />
            <path fill="none" stroke-width="1.5" stroke-linecap="round" stroke-opacity="1.0" stroke="rgb(0, 0, 0)" stroke-linejoin="round" d=" M 626.980, 638.999 626.980, 633.390 " />
            <path fill="none" stroke-width="1.5" stroke-linecap="round" stroke-opacity="1.0" stroke="rgb(0, 0, 0)" stroke-linejoin="round" d=" M 402.629, 633.390 402.629, 638.999 " />
            <path fill="none" stroke-width="1.5" stroke-linecap="round" stroke-opacity="1.0" stroke="rgb(0, 0, 0)" stroke-linejoin="round" d=" M 415.850, 633.390 415.850, 638.999 " />
            <path fill="none" stroke-width="1.5" stroke-linecap="round" stroke-opacity="1.0" stroke="rgb(0, 0, 0)" stroke-linejoin="round" d=" M 421.459, 633.390 421.459, 638.999 " />
            <path fill="none" stroke-width="1.5" stroke-linecap="round" stroke-opacity="1.0" stroke="rgb(0, 0, 0)" stroke-linejoin="round" d=" M 434.679, 633.390 434.679, 623.390 434.679, 613.390 434.679, 603.390 434.679, 593.390 434.679, 583.390 434.679, 573.390 434.679, 563.390 434.679, 553.390 434.679, 543.390 434.679, 533.390 434.679, 523.390 434.679, 513.390 434.679, 503.390 434.679, 493.390 434.679, 483.390 434.679, 475.944 " />
            <path fill="none" stroke-width="1.5" stroke-linecap="round" stroke-opacity="1.0" stroke="rgb(0, 0, 0)" stroke-linejoin="round" d=" M 594.930, 475.944 594.930, 485.944 594.930, 495.944 594.930, 505.944 594.930, 515.944 594.930, 525.944 594.930, 535.944 594.930, 545.944 594.930, 555.944 594.930, 565.944 594.930, 575.944 594.930, 585.944 594.930, 595.944 594.930, 605.944 594.930, 615.944 594.930, 625.944 594.930, 633.390 " />
            <path fill="none" stroke-width="1.5" stroke-linecap="round" stroke-opacity="1.0" stroke="rgb(0, 0, 0)" stroke-linejoin="round" d=" M 608.150, 633.390 608.150, 638.999 " />
            <path fill="none" stroke-width="1.5" stroke-linecap="round" stroke-opacity="1.0" stroke="rgb(0, 0, 0)" stroke-linejoin="round" d=" M 613.759, 633.390 613.759, 638.999 " />
            <path fill="none" stroke-width="1.5" stroke-linecap="round" stroke-opacity="1.0" stroke="rgb(0, 0, 0)" stroke-linejoin="round" d=" M 434.679, 638.999 444.679, 638.999 454.679, 638.999 464.679, 638.999 474.679, 638.999 484.679, 638.999 494.679, 638.999 504.679, 638.999 514.679, 638.999 524.679, 638.999 534.679, 638.999 544.679, 638.999 554.679, 638.999 564.679, 638.999 574.679, 638.999 584.679, 638.999 594.930, 638.999 " />
            <path fill="none" stroke-width="1.5" stroke-linecap="round" stroke-opacity="1.0" stroke="rgb(0, 0, 0)" stroke-linejoin="round" d=" M 402.629, 638.999 402.629, 638.999 " />
            <path fill="none" stroke-width="1.5" stroke-linecap="round" stroke-opacity="1.0" stroke="rgb(0, 0, 0)" stroke-linejoin="round" d=" M 594.930, 633.390 584.930, 633.390 574.930, 633.390 564.930, 633.390 554.930, 633.390 544.930, 633.390 534.930, 633.390 524.930, 633.390 514.930, 633.390 504.930, 633.390 494.930, 633.390 484.930, 633.390 474.930, 633.390 464.930, 633.390 454.930, 633.390 444.930, 633.390 434.679, 633.390 " />
            <path fill="none" stroke-width="1.5" stroke-linecap="round" stroke-opacity="1.0" stroke="rgb(0, 0, 0)" stroke-linejoin="round" d=" M 626.980, 633.390 626.980, 623.390 626.980, 613.390 626.980, 603.390 626.980, 593.390 626.980, 583.390 626.980, 573.390 626.980, 563.390 626.980, 553.390 626.980, 543.390 626.980, 533.390 626.980, 523.390 626.980, 513.390 626.980, 503.390 626.980, 493.390 626.980, 483.390 626.980, 475.944 " />
            <path fill="none" stroke-width="1.5" stroke-linecap="round" stroke-opacity="1.0" stroke="rgb(0, 0, 0)" stroke-linejoin="round" d=" M 626.980, 638.999 626.980, 633.390 " />
        </g>
    </g>
    <g id="ViewLayer_TechnicalLines.003" inkscape:groupmode="lineset" inkscape:label="ViewLayer_TechnicalLines.003">
        <g inkscape:groupmode="layer" id="strokes" inkscape:label="strokes">
            <path fill="none" stroke-width="1.5" stroke-linecap="round" stroke-opacity="1.0" stroke="rgb(0, 0, 0)" stroke-linejoin="round" d=" M 434.679, 475.944 434.371, 475.944 433.459, 475.944 431.979, 475.944 429.986, 475.944 427.557, 475.944 424.787, 475.944 421.781, 475.944 418.654, 475.944 415.528, 475.944 412.522, 475.944 409.751, 475.944 407.323, 475.944 405.330, 475.944 403.849, 475.944 402.937, 475.944 402.629, 475.944 402.629, 485.944 402.629, 495.944 402.629, 505.944 402.629, 515.944 402.629, 525.944 402.629, 535.944 402.629, 545.944 402.629, 555.944 402.629, 565.944 402.629, 575.944 402.629, 585.944 402.629, 595.944 402.629, 605.944 402.629, 615.944 402.629, 625.944 402.629, 635.944 402.629, 645.944 402.629, 655.944 402.629, 665.944 402.629, 675.944 402.629, 685.944 402.629, 695.944 402.629, 705.944 402.629, 715.944 402.629, 725.944 402.629, 735.944 402.629, 745.944 402.629, 755.944 402.629, 765.944 402.629, 775.944 402.629, 785.944 402.629, 796.445 402.937, 796.445 403.849, 796.445 405.330, 796.445 407.323, 796.445 409.751, 796.445 412.522, 796.445 415.528, 796.445 418.654, 796.445 421.781, 796.445 424.787, 796.445 427.557, 796.445 429.986, 796.445 431.979, 796.445 433.459, 796.445 434.371, 796.445 434.679, 796.445 434.679, 786.445 434.679, 776.445 434.679, 766.445 434.679, 756.445 434.679, 746.445 434.679, 736.445 434.679, 726.445 434.679, 716.445 434.679, 706.445 434.679, 696.445 434.679, 686.445 434.679, 676.444 434.679, 666.445 434.679, 656.445 434.679, 646.444 434.679, 638.999 " />
            <path fill="none" stroke-width="1.5" stroke-linecap="round" stroke-opacity="1.0" stroke="rgb(0, 0, 0)" stroke-linejoin="round" d=" M 594.930, 638.999 594.930, 648.999 594.930, 658.999 594.930, 668.999 594.930, 678.998 594.930, 688.999 594.930, 698.999 594.930, 708.999 594.930, 718.998 594.930, 728.999 594.930, 738.999 594.930, 748.998 594.930, 758.999 594.930, 768.998 594.930, 778.998 594.930, 788.998 594.930, 796.445 595.238, 796.445 596.149, 796.445 597.630, 796.445 599.623, 796.445 602.052, 796.445 604.822, 796.445 607.828, 796.445 610.955, 796.445 614.081, 796.445 617.087, 796.445 619.858, 796.445 622.286, 796.445 624.279, 796.445 625.760, 796.445 626.672, 796.445 626.980, 796.445 626.980, 786.445 626.980, 776.445 626.980, 766.445 626.980, 756.445 626.980, 746.445 626.980, 736.445 626.980, 726.445 626.980, 716.445 626.980, 706.445 626.980, 696.445 626.980, 686.445 626.980, 676.444 626.980, 666.445 626.980, 656.445 626.980, 646.444 626.980, 638.999 " />
            <path fill="none" stroke-width="1.5" stroke-linecap="round" stroke-opacity="1.0" stroke="rgb(0, 0, 0)" stroke-linejoin="round" d=" M 626.980, 475.944 626.672, 475.944 625.760, 475.944 624.279, 475.944 622.286, 475.944 619.858, 475.944 617.087, 475.944 614.081, 475.944 610.955, 475.944 607.828, 475.944 604.822, 475.944 602.052, 475.944 599.623, 475.944 597.630, 475.944 596.149, 475.944 595.238, 475.944 594.930, 475.944 " />
            <path fill="none" stroke-width="1.5" stroke-linecap="round" stroke-opacity="1.0" stroke="rgb(0, 0, 0)" stroke-linejoin="round" d=" M 626.980, 465.527 626.980, 455.527 626.980, 454.310 626.980, 454.310 616.980, 454.310 606.980, 454.310 596.980, 454.310 586.980, 454.310 576.980, 454.310 566.980, 454.310 556.980, 454.310 546.980, 454.310 536.980, 454.310 526.980, 454.310 516.980, 454.310 506.980, 454.310 496.980, 454.310 486.980, 454.310 476.980, 454.310 466.980, 454.310 456.980, 454.310 446.980, 454.310 436.980, 454.310 426.980, 454.310 416.980, 454.310 406.980, 454.310 402.629, 454.310 402.629, 464.310 402.629, 465.527 402.629, 465.527 412.629, 465.527 422.629, 465.527 432.629, 465.527 442.629, 465.527 452.629, 465.527 462.629, 465.527 472.629, 465.527 482.629, 465.527 492.629, 465.527 502.629, 465.527 512.629, 465.527 522.629, 465.527 532.629, 465.527 542.629, 465.527 552.629, 465.527 562.629, 465.527 572.629, 465.527 582.629, 465.527 592.629, 465.527 602.629, 465.527 612.629, 465.527 622.629, 465.527 626.980, 465.527 " />
            <path fill="none" stroke-width="1.5" stroke-linecap="round" stroke-opacity="1.0" stroke="rgb(0, 0, 0)" stroke-linejoin="round" d=" M 626.980, 454.310 626.980, 464.310 626.980, 465.527 " />
            <path fill="none" stroke-width="1.5" stroke-linecap="round" stroke-opacity="1.0" stroke="rgb(0, 0, 0)" stroke-linejoin="round" d=" M 402.629, 465.527 412.629, 465.527 422.629, 465.527 432.629, 465.527 442.629, 465.527 452.629, 465.527 462.629, 465.527 472.629, 465.527 482.629, 465.527 492.629, 465.527 502.629, 465.527 512.629, 465.527 522.629, 465.527 532.629, 465.527 542.629, 465.527 552.629, 465.527 562.629, 465.527 572.629, 465.527 582.629, 465.527 592.629, 465.527 602.629, 465.527 612.629, 465.527 622.629, 465.527 626.980, 465.527 626.980, 465.527 " />
            <path fill="none" stroke-width="1.5" stroke-linecap="round" stroke-opacity="1.0" stroke="rgb(0, 0, 0)" stroke-linejoin="round" d=" M 408.238, 339.731 408.238, 329.731 408.238, 319.731 408.238, 309.731 408.238, 299.731 408.238, 289.731 408.238, 279.731 408.238, 269.731 408.238, 259.731 408.238, 249.731 408.238, 239.731 408.238, 229.731 408.238, 227.556 408.238, 227.556 398.238, 227.556 397.020, 227.556 397.020, 237.556 397.020, 247.556 397.020, 257.556 397.020, 267.556 397.020, 277.556 397.020, 287.556 397.020, 297.556 397.020, 307.556 397.020, 317.556 397.020, 327.556 397.020, 337.556 397.020, 339.731 397.020, 339.731 407.020, 339.731 408.238, 339.731 " />
            <path fill="none" stroke-width="1.5" stroke-linecap="round" stroke-opacity="1.0" stroke="rgb(0, 0, 0)" stroke-linejoin="round" d=" M 408.238, 227.556 408.238, 237.556 408.238, 247.556 408.238, 257.556 408.238, 267.556 408.238, 277.556 408.238, 287.556 408.238, 297.556 408.238, 307.556 408.238, 317.556 408.238, 327.556 408.238, 337.556 408.238, 339.731 " />
            <path fill="none" stroke-width="1.5" stroke-linecap="round" stroke-opacity="1.0" stroke="rgb(0, 0, 0)" stroke-linejoin="round" d=" M 397.020, 339.731 407.020, 339.731 408.238, 339.731 408.238, 339.731 " />
            <path fill="none" stroke-width="1.5" stroke-linecap="round" stroke-opacity="1.0" stroke="rgb(0, 0, 0)" stroke-linejoin="round" d=" M 415.850, 633.390 415.850, 633.390 421.459, 633.390 421.459, 633.390 " />
            <path fill="none" stroke-width="1.5" stroke-linecap="round" stroke-opacity="1.0" stroke="rgb(0, 0, 0)" stroke-linejoin="round" d=" M 415.850, 638.999 421.459, 638.999 " />
            <path fill="none" stroke-width="1.5" stroke-linecap="round" stroke-opacity="1.0" stroke="rgb(0, 0, 0)" stroke-linejoin="round" d=" M 608.150, 633.390 608.150, 633.390 613.759, 633.390 613.759, 633.390 " />
            <path fill="none" stroke-width="1.5" stroke-linecap="round" stroke-opacity="1.0" stroke="rgb(0, 0, 0)" stroke-linejoin="round" d=" M 608.150, 638.999 613.759, 638.999 " />
            <path fill="none" stroke-width="1.5" stroke-linecap="round" stroke-opacity="1.0" stroke="rgb(0, 0, 0)" stroke-linejoin="round" d=" M 626.980, 638.999 626.980, 633.390 " />
            <path fill="none" stroke-width="1.5" stroke-linecap="round" stroke-opacity="1.0" stroke="rgb(0, 0, 0)" stroke-linejoin="round" d=" M 402.629, 633.390 402.629, 638.999 " />
            <path fill="none" stroke-width="1.5" stroke-linecap="round" stroke-opacity="1.0" stroke="rgb(0, 0, 0)" stroke-linejoin="round" d=" M 415.850, 633.390 415.850, 638.999 " />
            <path fill="none" stroke-width="1.5" stroke-linecap="round" stroke-opacity="1.0" stroke="rgb(0, 0, 0)" stroke-linejoin="round" d=" M 421.459, 633.390 421.459, 638.999 " />
            <path fill="none" stroke-width="1.5" stroke-linecap="round" stroke-opacity="1.0" stroke="rgb(0, 0, 0)" stroke-linejoin="round" d=" M 434.679, 633.390 434.679, 623.390 434.679, 613.390 434.679, 603.390 434.679, 593.390 434.679, 583.390 434.679, 573.390 434.679, 563.390 434.679, 553.390 434.679, 543.390 434.679, 533.390 434.679, 523.390 434.679, 513.390 434.679, 503.390 434.679, 493.390 434.679, 483.390 434.679, 475.944 " />
            <path fill="none" stroke-width="1.5" stroke-linecap="round" stroke-opacity="1.0" stroke="rgb(0, 0, 0)" stroke-linejoin="round" d=" M 594.930, 475.944 594.930, 485.944 594.930, 495.944 594.930, 505.944 594.930, 515.944 594.930, 525.944 594.930, 535.944 594.930, 545.944 594.930, 555.944 594.930, 565.944 594.930, 575.944 594.930, 585.944 594.930, 595.944 594.930, 605.944 594.930, 615.944 594.930, 625.944 594.930, 633.390 " />
            <path fill="none" stroke-width="1.5" stroke-linecap="round" stroke-opacity="1.0" stroke="rgb(0, 0, 0)" stroke-linejoin="round" d=" M 608.150, 633.390 608.150, 638.999 " />
            <path fill="none" stroke-width="1.5" stroke-linecap="round" stroke-opacity="1.0" stroke="rgb(0, 0, 0)" stroke-linejoin="round" d=" M 613.759, 633.390 613.759, 638.999 " />
            <path fill="none" stroke-width="1.5" stroke-linecap="round" stroke-opacity="1.0" stroke="rgb(0, 0, 0)" stroke-linejoin="round" d=" M 434.679, 638.999 444.679, 638.999 454.679, 638.999 464.679, 638.999 474.679, 638.999 484.679, 638.999 494.679, 638.999 504.679, 638.999 514.679, 638.999 524.679, 638.999 534.679, 638.999 544.679, 638.999 554.679, 638.999 564.679, 638.999 574.679, 638.999 584.679, 638.999 594.930, 638.999 " />
            <path fill="none" stroke-width="1.5" stroke-linecap="round" stroke-opacity="1.0" stroke="rgb(0, 0, 0)" stroke-linejoin="round" d=" M 402.629, 638.999 402.629, 638.999 " />
            <path fill="none" stroke-width="1.5" stroke-linecap="round" stroke-opacity="1.0" stroke="rgb(0, 0, 0)" stroke-linejoin="round" d=" M 594.930, 633.390 584.930, 633.390 574.930, 633.390 564.930, 633.390 554.930, 633.390 544.930, 633.390 534.930, 633.390 524.930, 633.390 514.930, 633.390 504.930, 633.390 494.930, 633.390 484.930, 633.390 474.930, 633.390 464.930, 633.390 454.930, 633.390 444.930, 633.390 434.679, 633.390 " />
            <path fill="none" stroke-width="1.5" stroke-linecap="round" stroke-opacity="1.0" stroke="rgb(0, 0, 0)" stroke-linejoin="round" d=" M 626.980, 633.390 626.980, 623.390 626.980, 613.390 626.980, 603.390 626.980, 593.390 626.980, 583.390 626.980, 573.390 626.980, 563.390 626.980, 553.390 626.980, 543.390 626.980, 533.390 626.980, 523.390 626.980, 513.390 626.980, 503.390 626.980, 493.390 626.980, 483.390 626.980, 475.944 " />
            <path fill="none" stroke-width="1.5" stroke-linecap="round" stroke-opacity="1.0" stroke="rgb(0, 0, 0)" stroke-linejoin="round" d=" M 626.980, 638.999 626.980, 633.390 " />
        </g>
    </g>
    <g id="ViewLayer_TechnicalLines.004" xmlns:inkscape="http://www.inkscape.org/namespaces/inkscape" inkscape:groupmode="lineset" inkscape:label="ViewLayer_TechnicalLines.004">
        <g xmlns:inkscape="http://www.inkscape.org/namespaces/inkscape" inkscape:groupmode="layer" id="strokes" inkscape:label="strokes">
            <path fill="none" stroke-width="1.5" stroke-linecap="round" stroke-opacity="1.0" stroke="rgb(0, 0, 0)" stroke-linejoin="round" d=" M 434.679, 475.944 434.371, 475.944 433.459, 475.944 431.979, 475.944 429.986, 475.944 427.557, 475.944 424.787, 475.944 421.781, 475.944 418.654, 475.944 415.528, 475.944 412.522, 475.944 409.751, 475.944 407.323, 475.944 405.330, 475.944 403.849, 475.944 402.937, 475.944 402.629, 475.944 402.629, 485.944 402.629, 495.944 402.629, 505.944 402.629, 515.944 402.629, 525.944 402.629, 535.944 402.629, 545.944 402.629, 555.944 402.629, 565.944 402.629, 575.944 402.629, 585.944 402.629, 595.944 402.629, 605.944 402.629, 615.944 402.629, 625.944 402.629, 635.944 402.629, 645.944 402.629, 655.944 402.629, 665.944 402.629, 675.944 402.629, 685.944 402.629, 695.944 402.629, 705.944 402.629, 715.944 402.629, 725.944 402.629, 735.944 402.629, 745.944 402.629, 755.944 402.629, 765.944 402.629, 775.944 402.629, 785.944 402.629, 796.445 402.937, 796.445 403.849, 796.445 405.330, 796.445 407.323, 796.445 409.751, 796.445 412.522, 796.445 415.528, 796.445 418.654, 796.445 421.781, 796.445 424.787, 796.445 427.557, 796.445 429.986, 796.445 431.979, 796.445 433.459, 796.445 434.371, 796.445 434.679, 796.445 434.679, 786.445 434.679, 776.445 434.679, 766.445 434.679, 756.445 434.679, 746.445 434.679, 736.445 434.679, 726.445 434.679, 716.445 434.679, 706.445 434.679, 696.445 434.679, 686.445 434.679, 676.444 434.679, 666.445 434.679, 656.445 434.679, 646.444 434.679, 638.999 " />
            <path fill="none" stroke-width="1.5" stroke-linecap="round" stroke-opacity="1.0" stroke="rgb(0, 0, 0)" stroke-linejoin="round" d=" M 594.930, 638.999 594.930, 648.999 594.930, 658.999 594.930, 668.999 594.930, 678.998 594.930, 688.999 594.930, 698.999 594.930, 708.999 594.930, 718.998 594.930, 728.999 594.930, 738.999 594.930, 748.998 594.930, 758.999 594.930, 768.998 594.930, 778.998 594.930, 788.998 594.930, 796.445 595.238, 796.445 596.149, 796.445 597.630, 796.445 599.623, 796.445 602.052, 796.445 604.822, 796.445 607.828, 796.445 610.955, 796.445 614.081, 796.445 617.087, 796.445 619.858, 796.445 622.286, 796.445 624.279, 796.445 625.760, 796.445 626.672, 796.445 626.980, 796.445 626.980, 786.445 626.980, 776.445 626.980, 766.445 626.980, 756.445 626.980, 746.445 626.980, 736.445 626.980, 726.445 626.980, 716.445 626.980, 706.445 626.980, 696.445 626.980, 686.445 626.980, 676.444 626.980, 666.445 626.980, 656.445 626.980, 646.444 626.980, 638.999 " />
            <path fill="none" stroke-width="1.5" stroke-linecap="round" stroke-opacity="1.0" stroke="rgb(0, 0, 0)" stroke-linejoin="round" d=" M 626.980, 475.944 626.672, 475.944 625.760, 475.944 624.279, 475.944 622.286, 475.944 619.858, 475.944 617.087, 475.944 614.081, 475.944 610.955, 475.944 607.828, 475.944 604.822, 475.944 602.052, 475.944 599.623, 475.944 597.630, 475.944 596.149, 475.944 595.238, 475.944 594.930, 475.944 " />
            <path fill="none" stroke-width="1.5" stroke-linecap="round" stroke-opacity="1.0" stroke="rgb(0, 0, 0)" stroke-linejoin="round" d=" M 626.980, 465.527 626.980, 455.527 626.980, 454.310 626.980, 454.310 616.980, 454.310 606.980, 454.310 596.980, 454.310 586.980, 454.310 576.980, 454.310 566.980, 454.310 556.980, 454.310 546.980, 454.310 536.980, 454.310 526.980, 454.310 516.980, 454.310 506.980, 454.310 496.980, 454.310 486.980, 454.310 476.980, 454.310 466.980, 454.310 456.980, 454.310 446.980, 454.310 436.980, 454.310 426.980, 454.310 416.980, 454.310 406.980, 454.310 402.629, 454.310 402.629, 464.310 402.629, 465.527 402.629, 465.527 412.629, 465.527 422.629, 465.527 432.629, 465.527 442.629, 465.527 452.629, 465.527 462.629, 465.527 472.629, 465.527 482.629, 465.527 492.629, 465.527 502.629, 465.527 512.629, 465.527 522.629, 465.527 532.629, 465.527 542.629, 465.527 552.629, 465.527 562.629, 465.527 572.629, 465.527 582.629, 465.527 592.629, 465.527 602.629, 465.527 612.629, 465.527 622.629, 465.527 626.980, 465.527 " />
            <path fill="none" stroke-width="1.5" stroke-linecap="round" stroke-opacity="1.0" stroke="rgb(0, 0, 0)" stroke-linejoin="round" d=" M 626.980, 454.310 626.980, 464.310 626.980, 465.527 " />
            <path fill="none" stroke-width="1.5" stroke-linecap="round" stroke-opacity="1.0" stroke="rgb(0, 0, 0)" stroke-linejoin="round" d=" M 402.629, 465.527 412.629, 465.527 422.629, 465.527 432.629, 465.527 442.629, 465.527 452.629, 465.527 462.629, 465.527 472.629, 465.527 482.629, 465.527 492.629, 465.527 502.629, 465.527 512.629, 465.527 522.629, 465.527 532.629, 465.527 542.629, 465.527 552.629, 465.527 562.629, 465.527 572.629, 465.527 582.629, 465.527 592.629, 465.527 602.629, 465.527 612.629, 465.527 622.629, 465.527 626.980, 465.527 626.980, 465.527 " />
            <path fill="none" stroke-width="1.5" stroke-linecap="round" stroke-opacity="1.0" stroke="rgb(0, 0, 0)" stroke-linejoin="round" d=" M 408.238, 339.731 408.238, 329.731 408.238, 319.731 408.238, 309.731 408.238, 299.731 408.238, 289.731 408.238, 279.731 408.238, 269.731 408.238, 259.731 408.238, 249.731 408.238, 239.731 408.238, 229.731 408.238, 227.556 408.238, 227.556 398.238, 227.556 397.020, 227.556 397.020, 237.556 397.020, 247.556 397.020, 257.556 397.020, 267.556 397.020, 277.556 397.020, 287.556 397.020, 297.556 397.020, 307.556 397.020, 317.556 397.020, 327.556 397.020, 337.556 397.020, 339.731 397.020, 339.731 407.020, 339.731 408.238, 339.731 " />
            <path fill="none" stroke-width="1.5" stroke-linecap="round" stroke-opacity="1.0" stroke="rgb(0, 0, 0)" stroke-linejoin="round" d=" M 408.238, 227.556 408.238, 237.556 408.238, 247.556 408.238, 257.556 408.238, 267.556 408.238, 277.556 408.238, 287.556 408.238, 297.556 408.238, 307.556 408.238, 317.556 408.238, 327.556 408.238, 337.556 408.238, 339.731 " />
            <path fill="none" stroke-width="1.5" stroke-linecap="round" stroke-opacity="1.0" stroke="rgb(0, 0, 0)" stroke-linejoin="round" d=" M 397.020, 339.731 407.020, 339.731 408.238, 339.731 408.238, 339.731 " />
            <path fill="none" stroke-width="1.5" stroke-linecap="round" stroke-opacity="1.0" stroke="rgb(0, 0, 0)" stroke-linejoin="round" d=" M 415.850, 633.390 415.850, 633.390 421.459, 633.390 421.459, 633.390 " />
            <path fill="none" stroke-width="1.5" stroke-linecap="round" stroke-opacity="1.0" stroke="rgb(0, 0, 0)" stroke-linejoin="round" d=" M 415.850, 638.999 421.459, 638.999 " />
            <path fill="none" stroke-width="1.5" stroke-linecap="round" stroke-opacity="1.0" stroke="rgb(0, 0, 0)" stroke-linejoin="round" d=" M 608.150, 633.390 608.150, 633.390 613.759, 633.390 613.759, 633.390 " />
            <path fill="none" stroke-width="1.5" stroke-linecap="round" stroke-opacity="1.0" stroke="rgb(0, 0, 0)" stroke-linejoin="round" d=" M 608.150, 638.999 613.759, 638.999 " />
            <path fill="none" stroke-width="1.5" stroke-linecap="round" stroke-opacity="1.0" stroke="rgb(0, 0, 0)" stroke-linejoin="round" d=" M 626.980, 638.999 626.980, 633.390 " />
            <path fill="none" stroke-width="1.5" stroke-linecap="round" stroke-opacity="1.0" stroke="rgb(0, 0, 0)" stroke-linejoin="round" d=" M 402.629, 633.390 402.629, 638.999 " />
            <path fill="none" stroke-width="1.5" stroke-linecap="round" stroke-opacity="1.0" stroke="rgb(0, 0, 0)" stroke-linejoin="round" d=" M 415.850, 633.390 415.850, 638.999 " />
            <path fill="none" stroke-width="1.5" stroke-linecap="round" stroke-opacity="1.0" stroke="rgb(0, 0, 0)" stroke-linejoin="round" d=" M 421.459, 633.390 421.459, 638.999 " />
            <path fill="none" stroke-width="1.5" stroke-linecap="round" stroke-opacity="1.0" stroke="rgb(0, 0, 0)" stroke-linejoin="round" d=" M 434.679, 633.390 434.679, 623.390 434.679, 613.390 434.679, 603.390 434.679, 593.390 434.679, 583.390 434.679, 573.390 434.679, 563.390 434.679, 553.390 434.679, 543.390 434.679, 533.390 434.679, 523.390 434.679, 513.390 434.679, 503.390 434.679, 493.390 434.679, 483.390 434.679, 475.944 " />
            <path fill="none" stroke-width="1.5" stroke-linecap="round" stroke-opacity="1.0" stroke="rgb(0, 0, 0)" stroke-linejoin="round" d=" M 594.930, 475.944 594.930, 485.944 594.930, 495.944 594.930, 505.944 594.930, 515.944 594.930, 525.944 594.930, 535.944 594.930, 545.944 594.930, 555.944 594.930, 565.944 594.930, 575.944 594.930, 585.944 594.930, 595.944 594.930, 605.944 594.930, 615.944 594.930, 625.944 594.930, 633.390 " />
            <path fill="none" stroke-width="1.5" stroke-linecap="round" stroke-opacity="1.0" stroke="rgb(0, 0, 0)" stroke-linejoin="round" d=" M 608.150, 633.390 608.150, 638.999 " />
            <path fill="none" stroke-width="1.5" stroke-linecap="round" stroke-opacity="1.0" stroke="rgb(0, 0, 0)" stroke-linejoin="round" d=" M 613.759, 633.390 613.759, 638.999 " />
            <path fill="none" stroke-width="1.5" stroke-linecap="round" stroke-opacity="1.0" stroke="rgb(0, 0, 0)" stroke-linejoin="round" d=" M 434.679, 638.999 444.679, 638.999 454.679, 638.999 464.679, 638.999 474.679, 638.999 484.679, 638.999 494.679, 638.999 504.679, 638.999 514.679, 638.999 524.679, 638.999 534.679, 638.999 544.679, 638.999 554.679, 638.999 564.679, 638.999 574.679, 638.999 584.679, 638.999 594.930, 638.999 " />
            <path fill="none" stroke-width="1.5" stroke-linecap="round" stroke-opacity="1.0" stroke="rgb(0, 0, 0)" stroke-linejoin="round" d=" M 402.629, 638.999 402.629, 638.999 " />
            <path fill="none" stroke-width="1.5" stroke-linecap="round" stroke-opacity="1.0" stroke="rgb(0, 0, 0)" stroke-linejoin="round" d=" M 594.930, 633.390 584.930, 633.390 574.930, 633.390 564.930, 633.390 554.930, 633.390 544.930, 633.390 534.930, 633.390 524.930, 633.390 514.930, 633.390 504.930, 633.390 494.930, 633.390 484.930, 633.390 474.930, 633.390 464.930, 633.390 454.930, 633.390 444.930, 633.390 434.679, 633.390 " />
            <path fill="none" stroke-width="1.5" stroke-linecap="round" stroke-opacity="1.0" stroke="rgb(0, 0, 0)" stroke-linejoin="round" d=" M 626.980, 633.390 626.980, 623.390 626.980, 613.390 626.980, 603.390 626.980, 593.390 626.980, 583.390 626.980, 573.390 626.980, 563.390 626.980, 553.390 626.980, 543.390 626.980, 533.390 626.980, 523.390 626.980, 513.390 626.980, 503.390 626.980, 493.390 626.980, 483.390 626.980, 475.944 " />
            <path fill="none" stroke-width="1.5" stroke-linecap="round" stroke-opacity="1.0" stroke="rgb(0, 0, 0)" stroke-linejoin="round" d=" M 626.980, 638.999 626.980, 633.390 " />
        </g>
    </g>
</svg>
