<?xml version='1.0' encoding='ascii'?>
<svg xmlns="http://www.w3.org/2000/svg" xmlns:inkscape="http://www.inkscape.org/namespaces/inkscape" version="1.1" width="1024" height="1024">
    <g id="ViewLayer_LineSet" inkscape:groupmode="lineset" inkscape:label="ViewLayer_LineSet">
        <g inkscape:groupmode="layer" id="strokes" inkscape:label="strokes">
            <path fill="none" stroke-width="3.0" stroke-linecap="butt" stroke-opacity="1.0" stroke="rgb(0, 0, 0)" stroke-linejoin="round" d=" M 653.474, 526.971 653.474, 516.971 653.474, 506.971 653.474, 496.971 653.474, 486.971 653.474, 476.971 653.474, 466.971 653.474, 456.971 653.474, 446.971 653.474, 436.971 653.474, 426.971 653.474, 416.971 653.474, 406.971 653.474, 396.971 653.474, 392.234 653.474, 392.234 643.474, 392.234 633.474, 392.234 623.474, 392.234 613.474, 392.234 603.474, 392.234 593.474, 392.234 583.474, 392.234 573.474, 392.234 563.474, 392.234 553.474, 392.234 543.474, 392.234 533.474, 392.234 523.474, 392.234 513.474, 392.234 503.474, 392.234 493.474, 392.234 483.474, 392.234 473.474, 392.234 463.474, 392.234 453.474, 392.234 443.474, 392.234 433.474, 392.234 423.474, 392.234 413.474, 392.234 403.474, 392.234 397.474, 392.234 397.474, 392.234 387.474, 392.234 384.000, 392.234 384.000, 402.234 384.000, 412.234 384.000, 422.234 384.000, 432.234 384.000, 442.234 384.000, 452.234 384.000, 462.234 384.000, 472.234 384.000, 482.234 384.000, 492.234 384.000, 502.234 384.000, 512.234 384.000, 522.234 384.000, 526.971 " />
            <path fill="none" stroke-width="3.0" stroke-linecap="butt" stroke-opacity="1.0" stroke="rgb(0, 0, 0)" stroke-linejoin="round" d=" M 653.474, 392.234 653.474, 402.234 653.474, 412.234 653.474, 422.234 653.474, 432.234 653.474, 442.234 653.474, 452.234 653.474, 462.234 653.474, 472.234 653.474, 482.234 653.474, 492.234 653.474, 502.234 653.474, 512.234 653.474, 522.234 653.474, 526.971 " />
            <path fill="none" stroke-width="3.0" stroke-linecap="butt" stroke-opacity="1.0" stroke="rgb(0, 0, 0)" stroke-linejoin="round" d=" M 384.000, 526.971 384.000, 536.971 384.000, 546.971 384.000, 556.971 384.000, 566.971 384.000, 576.971 384.000, 586.971 384.000, 596.971 384.000, 606.971 384.000, 616.971 384.000, 626.971 384.000, 636.971 384.000, 646.971 384.000, 656.971 384.000, 661.708 384.000, 661.708 394.000, 661.708 404.000, 661.708 413.470, 661.708 413.470, 661.708 423.470, 661.708 433.470, 661.708 443.470, 661.708 453.470, 661.708 463.470, 661.708 473.470, 661.708 483.470, 661.708 493.470, 661.708 503.470, 661.708 513.470, 661.708 523.470, 661.708 533.470, 661.708 543.470, 661.708 553.470, 661.708 563.470, 661.708 573.470, 661.708 583.470, 661.708 593.470, 661.708 603.470, 661.708 613.470, 661.708 624.004, 661.708 624.004, 661.708 634.004, 661.708 644.004, 661.708 653.474, 661.708 653.474, 651.708 653.474, 641.708 653.474, 631.708 653.474, 621.708 653.474, 611.708 653.474, 601.708 653.474, 591.708 653.474, 581.708 653.474, 571.708 653.474, 561.708 653.474, 551.708 653.474, 541.708 653.474, 531.708 653.474, 526.971 " />
            <path fill="none" stroke-width="3.0" stroke-linecap="butt" stroke-opacity="1.0" stroke="rgb(0, 0, 0)" stroke-linejoin="round" d=" M 653.474, 526.971 653.474, 526.971 " />
            <path fill="none" stroke-width="3.0" stroke-linecap="butt" stroke-opacity="1.0" stroke="rgb(0, 0, 0)" stroke-linejoin="round" d=" M 624.004, 661.708 624.004, 661.708 624.004, 671.708 624.004, 681.708 624.004, 691.708 624.004, 701.708 624.004, 711.708 624.004, 721.708 624.004, 731.708 624.004, 741.708 624.004, 751.708 624.004, 761.708 624.004, 771.708 624.004, 781.708 624.004, 791.708 624.004, 796.445 624.004, 796.445 624.287, 796.445 625.125, 796.445 626.487, 796.445 628.320, 796.445 630.552, 796.445 633.100, 796.445 635.864, 796.445 638.739, 796.445 641.613, 796.445 644.378, 796.445 646.925, 796.445 649.158, 796.445 650.990, 796.445 652.352, 796.445 653.191, 796.445 653.474, 796.445 " />
            <path fill="none" stroke-width="3.0" stroke-linecap="butt" stroke-opacity="1.0" stroke="rgb(0, 0, 0)" stroke-linejoin="round" d=" M 653.474, 796.445 653.474, 796.445 653.474, 786.445 653.474, 776.445 653.474, 766.445 653.474, 756.445 653.474, 746.445 653.474, 736.445 653.474, 726.445 653.474, 716.445 653.474, 706.445 653.474, 696.445 653.474, 686.445 653.474, 676.445 653.474, 666.445 653.474, 656.445 653.474, 646.445 653.474, 636.445 653.474, 626.445 653.474, 616.445 653.474, 606.445 653.474, 596.445 653.474, 586.445 653.474, 576.445 653.474, 566.445 653.474, 556.445 653.474, 546.445 653.474, 536.445 653.474, 526.971 653.474, 526.971 653.474, 526.971 " />
            <path fill="none" stroke-width="3.0" stroke-linecap="butt" stroke-opacity="1.0" stroke="rgb(0, 0, 0)" stroke-linejoin="round" d=" M 384.000, 526.971 384.000, 536.971 384.000, 546.971 384.000, 556.971 384.000, 566.971 384.000, 576.971 384.000, 586.971 384.000, 596.971 384.000, 606.971 384.000, 616.971 384.000, 626.971 384.000, 636.971 384.000, 646.971 384.000, 656.971 384.000, 666.971 384.000, 676.971 384.000, 686.971 384.000, 696.971 384.000, 706.971 384.000, 716.971 384.000, 726.971 384.000, 736.971 384.000, 746.971 384.000, 756.971 384.000, 766.971 384.000, 776.971 384.000, 786.971 384.000, 796.445 384.000, 796.445 384.283, 796.445 385.122, 796.445 386.483, 796.445 388.316, 796.445 390.549, 796.445 393.096, 796.445 395.860, 796.445 398.735, 796.445 401.610, 796.445 404.374, 796.445 406.921, 796.445 409.154, 796.445 410.987, 796.445 412.348, 796.445 413.187, 796.445 413.470, 796.445 " />
            <path fill="none" stroke-width="3.0" stroke-linecap="butt" stroke-opacity="1.0" stroke="rgb(0, 0, 0)" stroke-linejoin="round" d=" M 413.470, 796.445 413.470, 796.445 413.470, 786.445 413.470, 776.445 413.470, 766.445 413.470, 756.444 413.470, 746.445 413.470, 736.444 413.470, 726.444 413.470, 716.444 413.470, 706.444 413.470, 696.444 413.470, 686.444 413.470, 676.444 413.470, 666.444 413.470, 661.708 413.470, 661.708 " />
            <path fill="none" stroke-width="3.0" stroke-linecap="butt" stroke-opacity="1.0" stroke="rgb(0, 0, 0)" stroke-linejoin="round" d=" M 397.474, 392.234 397.474, 382.234 397.474, 372.234 397.474, 362.234 397.474, 352.234 397.474, 342.234 397.474, 332.234 397.474, 322.234 397.474, 312.234 397.474, 302.234 397.474, 292.234 397.474, 282.234 397.474, 272.234 397.474, 262.234 397.474, 252.234 397.474, 242.234 397.474, 232.234 397.474, 227.556 397.474, 227.556 387.474, 227.556 377.474, 227.556 370.526, 227.556 370.526, 227.556 370.526, 237.556 370.526, 247.556 370.526, 257.556 370.526, 267.556 370.526, 277.556 370.526, 287.556 370.526, 297.556 370.526, 307.556 370.526, 317.556 370.526, 327.556 370.526, 337.556 370.526, 347.556 370.526, 357.556 370.526, 367.556 370.526, 377.556 370.526, 387.556 370.526, 397.556 370.526, 407.556 370.526, 417.556 370.526, 427.556 370.526, 437.556 370.526, 447.556 370.526, 457.556 370.526, 467.556 370.526, 477.556 370.526, 487.556 370.526, 497.556 370.526, 507.556 370.526, 517.556 370.526, 526.971 370.526, 526.971 380.526, 526.971 384.000, 526.971 384.000, 526.971 394.000, 526.971 397.474, 526.971 " />
            <path fill="none" stroke-width="3.0" stroke-linecap="butt" stroke-opacity="1.0" stroke="rgb(0, 0, 0)" stroke-linejoin="round" d=" M 397.474, 227.556 397.474, 237.556 397.474, 247.556 397.474, 257.556 397.474, 267.556 397.474, 277.556 397.474, 287.556 397.474, 297.556 397.474, 307.556 397.474, 317.556 397.474, 327.556 397.474, 337.556 397.474, 347.556 397.474, 357.556 397.474, 367.556 397.474, 377.556 397.474, 387.556 397.474, 392.234 397.474, 402.234 397.474, 412.234 397.474, 422.234 397.474, 432.234 397.474, 442.234 397.474, 452.234 397.474, 462.234 397.474, 472.234 397.474, 482.234 397.474, 492.234 397.474, 502.234 397.474, 512.234 397.474, 522.234 397.474, 526.971 " />
            <path fill="none" stroke-width="3.0" stroke-linecap="butt" stroke-opacity="1.0" stroke="rgb(0, 0, 0)" stroke-linejoin="round" d=" M 370.526, 227.556 370.526, 227.556 " />
            <path fill="none" stroke-width="3.0" stroke-linecap="butt" stroke-opacity="1.0" stroke="rgb(0, 0, 0)" stroke-linejoin="round" d=" M 413.470, 796.445 413.470, 786.445 413.470, 776.445 413.470, 766.445 413.470, 756.444 413.470, 746.445 413.470, 736.444 413.470, 726.444 413.470, 716.444 413.470, 706.444 413.470, 696.444 413.470, 686.444 413.470, 676.444 413.470, 666.444 413.470, 661.708 413.470, 661.708 " />
            <path fill="none" stroke-width="3.0" stroke-linecap="butt" stroke-opacity="1.0" stroke="rgb(0, 0, 0)" stroke-linejoin="round" d=" M 653.474, 796.445 653.474, 786.445 653.474, 776.445 653.474, 766.445 653.474, 756.444 653.474, 746.445 653.474, 736.444 653.474, 726.444 653.474, 716.444 653.474, 706.444 653.474, 696.444 653.474, 686.444 653.474, 676.444 653.474, 666.444 653.474, 661.708 653.474, 661.708 653.474, 651.708 653.474, 641.708 653.474, 631.708 653.474, 621.708 653.474, 611.708 653.474, 601.708 653.474, 591.708 653.474, 581.708 653.474, 571.708 653.474, 561.708 653.474, 551.708 653.474, 541.708 653.474, 531.708 653.474, 526.971 " />
            <path fill="none" stroke-width="3.0" stroke-linecap="butt" stroke-opacity="1.0" stroke="rgb(0, 0, 0)" stroke-linejoin="round" d=" M 413.470, 661.708 423.470, 661.708 433.470, 661.708 443.470, 661.708 453.470, 661.708 463.470, 661.708 473.470, 661.708 483.470, 661.708 493.470, 661.708 503.470, 661.708 513.470, 661.708 523.470, 661.708 533.470, 661.708 543.470, 661.708 553.470, 661.708 563.470, 661.708 573.470, 661.708 583.470, 661.708 593.470, 661.708 603.470, 661.708 613.470, 661.708 624.004, 661.708 " />
            <path fill="none" stroke-width="3.0" stroke-linecap="butt" stroke-opacity="1.0" stroke="rgb(0, 0, 0)" stroke-linejoin="round" d=" M 653.474, 661.708 653.474, 661.708 " />
        </g>
    </g>
    <g id="ViewLayer_TechnicalLines" inkscape:groupmode="lineset" inkscape:label="ViewLayer_TechnicalLines">
        <g inkscape:groupmode="layer" id="strokes" inkscape:label="strokes">
            <path fill="none" stroke-width="3.0" stroke-linecap="butt" stroke-opacity="1.0" stroke="rgb(0, 0, 0)" stroke-linejoin="round" d=" M 653.474, 526.971 653.474, 516.971 653.474, 506.971 653.474, 496.971 653.474, 486.971 653.474, 476.971 653.474, 466.971 653.474, 456.971 653.474, 446.971 653.474, 436.971 653.474, 426.971 653.474, 416.971 653.474, 406.971 653.474, 396.971 653.474, 392.234 653.474, 392.234 643.474, 392.234 633.474, 392.234 623.474, 392.234 613.474, 392.234 603.474, 392.234 593.474, 392.234 583.474, 392.234 573.474, 392.234 563.474, 392.234 553.474, 392.234 543.474, 392.234 533.474, 392.234 523.474, 392.234 513.474, 392.234 503.474, 392.234 493.474, 392.234 483.474, 392.234 473.474, 392.234 463.474, 392.234 453.474, 392.234 443.474, 392.234 433.474, 392.234 423.474, 392.234 413.474, 392.234 403.474, 392.234 397.474, 392.234 397.474, 392.234 387.474, 392.234 384.000, 392.234 384.000, 402.234 384.000, 412.234 384.000, 422.234 384.000, 432.234 384.000, 442.234 384.000, 452.234 384.000, 462.234 384.000, 472.234 384.000, 482.234 384.000, 492.234 384.000, 502.234 384.000, 512.234 384.000, 522.234 384.000, 526.971 " />
            <path fill="none" stroke-width="3.0" stroke-linecap="butt" stroke-opacity="1.0" stroke="rgb(0, 0, 0)" stroke-linejoin="round" d=" M 653.474, 392.234 653.474, 402.234 653.474, 412.234 653.474, 422.234 653.474, 432.234 653.474, 442.234 653.474, 452.234 653.474, 462.234 653.474, 472.234 653.474, 482.234 653.474, 492.234 653.474, 502.234 653.474, 512.234 653.474, 522.234 653.474, 526.971 " />
            <path fill="none" stroke-width="3.0" stroke-linecap="butt" stroke-opacity="1.0" stroke="rgb(0, 0, 0)" stroke-linejoin="round" d=" M 384.000, 526.971 384.000, 536.971 384.000, 546.971 384.000, 556.971 384.000, 566.971 384.000, 576.971 384.000, 586.971 384.000, 596.971 384.000, 606.971 384.000, 616.971 384.000, 626.971 384.000, 636.971 384.000, 646.971 384.000, 656.971 384.000, 661.708 384.000, 661.708 394.000, 661.708 404.000, 661.708 413.470, 661.708 413.470, 661.708 423.470, 661.708 433.470, 661.708 443.470, 661.708 453.470, 661.708 463.470, 661.708 473.470, 661.708 483.470, 661.708 493.470, 661.708 503.470, 661.708 513.470, 661.708 523.470, 661.708 533.470, 661.708 543.470, 661.708 553.470, 661.708 563.470, 661.708 573.470, 661.708 583.470, 661.708 593.470, 661.708 603.470, 661.708 613.470, 661.708 624.004, 661.708 624.004, 661.708 634.004, 661.708 644.004, 661.708 653.474, 661.708 653.474, 651.708 653.474, 641.708 653.474, 631.708 653.474, 621.708 653.474, 611.708 653.474, 601.708 653.474, 591.708 653.474, 581.708 653.474, 571.708 653.474, 561.708 653.474, 551.708 653.474, 541.708 653.474, 531.708 653.474, 526.971 " />
            <path fill="none" stroke-width="3.0" stroke-linecap="butt" stroke-opacity="1.0" stroke="rgb(0, 0, 0)" stroke-linejoin="round" d=" M 653.474, 526.971 653.474, 526.971 " />
            <path fill="none" stroke-width="3.0" stroke-linecap="butt" stroke-opacity="1.0" stroke="rgb(0, 0, 0)" stroke-linejoin="round" d=" M 624.004, 661.708 624.004, 661.708 624.004, 671.708 624.004, 681.708 624.004, 691.708 624.004, 701.708 624.004, 711.708 624.004, 721.708 624.004, 731.708 624.004, 741.708 624.004, 751.708 624.004, 761.708 624.004, 771.708 624.004, 781.708 624.004, 791.708 624.004, 796.445 624.004, 796.445 624.287, 796.445 625.125, 796.445 626.487, 796.445 628.320, 796.445 630.552, 796.445 633.100, 796.445 635.864, 796.445 638.739, 796.445 641.613, 796.445 644.378, 796.445 646.925, 796.445 649.158, 796.445 650.990, 796.445 652.352, 796.445 653.191, 796.445 653.474, 796.445 " />
            <path fill="none" stroke-width="3.0" stroke-linecap="butt" stroke-opacity="1.0" stroke="rgb(0, 0, 0)" stroke-linejoin="round" d=" M 653.474, 796.445 653.474, 796.445 653.474, 786.445 653.474, 776.445 653.474, 766.445 653.474, 756.445 653.474, 746.445 653.474, 736.445 653.474, 726.445 653.474, 716.445 653.474, 706.445 653.474, 696.445 653.474, 686.445 653.474, 676.445 653.474, 666.445 653.474, 656.445 653.474, 646.445 653.474, 636.445 653.474, 626.445 653.474, 616.445 653.474, 606.445 653.474, 596.445 653.474, 586.445 653.474, 576.445 653.474, 566.445 653.474, 556.445 653.474, 546.445 653.474, 536.445 653.474, 526.971 653.474, 526.971 653.474, 526.971 " />
            <path fill="none" stroke-width="3.0" stroke-linecap="butt" stroke-opacity="1.0" stroke="rgb(0, 0, 0)" stroke-linejoin="round" d=" M 384.000, 526.971 384.000, 536.971 384.000, 546.971 384.000, 556.971 384.000, 566.971 384.000, 576.971 384.000, 586.971 384.000, 596.971 384.000, 606.971 384.000, 616.971 384.000, 626.971 384.000, 636.971 384.000, 646.971 384.000, 656.971 384.000, 666.971 384.000, 676.971 384.000, 686.971 384.000, 696.971 384.000, 706.971 384.000, 716.971 384.000, 726.971 384.000, 736.971 384.000, 746.971 384.000, 756.971 384.000, 766.971 384.000, 776.971 384.000, 786.971 384.000, 796.445 384.000, 796.445 384.283, 796.445 385.122, 796.445 386.483, 796.445 388.316, 796.445 390.549, 796.445 393.096, 796.445 395.860, 796.445 398.735, 796.445 401.610, 796.445 404.374, 796.445 406.921, 796.445 409.154, 796.445 410.987, 796.445 412.348, 796.445 413.187, 796.445 413.470, 796.445 " />
            <path fill="none" stroke-width="3.0" stroke-linecap="butt" stroke-opacity="1.0" stroke="rgb(0, 0, 0)" stroke-linejoin="round" d=" M 413.470, 796.445 413.470, 796.445 413.470, 786.445 413.470, 776.445 413.470, 766.445 413.470, 756.444 413.470, 746.445 413.470, 736.444 413.470, 726.444 413.470, 716.444 413.470, 706.444 413.470, 696.444 413.470, 686.444 413.470, 676.444 413.470, 666.444 413.470, 661.708 413.470, 661.708 " />
            <path fill="none" stroke-width="3.0" stroke-linecap="butt" stroke-opacity="1.0" stroke="rgb(0, 0, 0)" stroke-linejoin="round" d=" M 397.474, 392.234 397.474, 382.234 397.474, 372.234 397.474, 362.234 397.474, 352.234 397.474, 342.234 397.474, 332.234 397.474, 322.234 397.474, 312.234 397.474, 302.234 397.474, 292.234 397.474, 282.234 397.474, 272.234 397.474, 262.234 397.474, 252.234 397.474, 242.234 397.474, 232.234 397.474, 227.556 397.474, 227.556 387.474, 227.556 377.474, 227.556 370.526, 227.556 370.526, 227.556 370.526, 237.556 370.526, 247.556 370.526, 257.556 370.526, 267.556 370.526, 277.556 370.526, 287.556 370.526, 297.556 370.526, 307.556 370.526, 317.556 370.526, 327.556 370.526, 337.556 370.526, 347.556 370.526, 357.556 370.526, 367.556 370.526, 377.556 370.526, 387.556 370.526, 397.556 370.526, 407.556 370.526, 417.556 370.526, 427.556 370.526, 437.556 370.526, 447.556 370.526, 457.556 370.526, 467.556 370.526, 477.556 370.526, 487.556 370.526, 497.556 370.526, 507.556 370.526, 517.556 370.526, 526.971 370.526, 526.971 380.526, 526.971 384.000, 526.971 384.000, 526.971 394.000, 526.971 397.474, 526.971 " />
            <path fill="none" stroke-width="3.0" stroke-linecap="butt" stroke-opacity="1.0" stroke="rgb(0, 0, 0)" stroke-linejoin="round" d=" M 397.474, 227.556 397.474, 237.556 397.474, 247.556 397.474, 257.556 397.474, 267.556 397.474, 277.556 397.474, 287.556 397.474, 297.556 397.474, 307.556 397.474, 317.556 397.474, 327.556 397.474, 337.556 397.474, 347.556 397.474, 357.556 397.474, 367.556 397.474, 377.556 397.474, 387.556 397.474, 392.234 397.474, 402.234 397.474, 412.234 397.474, 422.234 397.474, 432.234 397.474, 442.234 397.474, 452.234 397.474, 462.234 397.474, 472.234 397.474, 482.234 397.474, 492.234 397.474, 502.234 397.474, 512.234 397.474, 522.234 397.474, 526.971 " />
            <path fill="none" stroke-width="3.0" stroke-linecap="butt" stroke-opacity="1.0" stroke="rgb(0, 0, 0)" stroke-linejoin="round" d=" M 370.526, 227.556 370.526, 227.556 " />
            <path fill="none" stroke-width="3.0" stroke-linecap="butt" stroke-opacity="1.0" stroke="rgb(0, 0, 0)" stroke-linejoin="round" d=" M 413.470, 796.445 413.470, 786.445 413.470, 776.445 413.470, 766.445 413.470, 756.444 413.470, 746.445 413.470, 736.444 413.470, 726.444 413.470, 716.444 413.470, 706.444 413.470, 696.444 413.470, 686.444 413.470, 676.444 413.470, 666.444 413.470, 661.708 413.470, 661.708 " />
            <path fill="none" stroke-width="3.0" stroke-linecap="butt" stroke-opacity="1.0" stroke="rgb(0, 0, 0)" stroke-linejoin="round" d=" M 653.474, 796.445 653.474, 786.445 653.474, 776.445 653.474, 766.445 653.474, 756.444 653.474, 746.445 653.474, 736.444 653.474, 726.444 653.474, 716.444 653.474, 706.444 653.474, 696.444 653.474, 686.444 653.474, 676.444 653.474, 666.444 653.474, 661.708 653.474, 661.708 653.474, 651.708 653.474, 641.708 653.474, 631.708 653.474, 621.708 653.474, 611.708 653.474, 601.708 653.474, 591.708 653.474, 581.708 653.474, 571.708 653.474, 561.708 653.474, 551.708 653.474, 541.708 653.474, 531.708 653.474, 526.971 " />
            <path fill="none" stroke-width="3.0" stroke-linecap="butt" stroke-opacity="1.0" stroke="rgb(0, 0, 0)" stroke-linejoin="round" d=" M 413.470, 661.708 423.470, 661.708 433.470, 661.708 443.470, 661.708 453.470, 661.708 463.470, 661.708 473.470, 661.708 483.470, 661.708 493.470, 661.708 503.470, 661.708 513.470, 661.708 523.470, 661.708 533.470, 661.708 543.470, 661.708 553.470, 661.708 563.470, 661.708 573.470, 661.708 583.470, 661.708 593.470, 661.708 603.470, 661.708 613.470, 661.708 624.004, 661.708 " />
            <path fill="none" stroke-width="3.0" stroke-linecap="butt" stroke-opacity="1.0" stroke="rgb(0, 0, 0)" stroke-linejoin="round" d=" M 653.474, 661.708 653.474, 661.708 " />
        </g>
    </g>
    <g id="ViewLayer_TechnicalLines.001" inkscape:groupmode="lineset" inkscape:label="ViewLayer_TechnicalLines.001">
        <g inkscape:groupmode="layer" id="strokes" inkscape:label="strokes">
            <path fill="none" stroke-width="1.5" stroke-linecap="round" stroke-opacity="1.0" stroke="rgb(0, 0, 0)" stroke-linejoin="round" d=" M 653.474, 526.971 653.474, 516.971 653.474, 506.971 653.474, 496.971 653.474, 486.971 653.474, 476.971 653.474, 466.971 653.474, 456.971 653.474, 446.971 653.474, 436.971 653.474, 426.971 653.474, 416.971 653.474, 406.971 653.474, 396.971 653.474, 392.234 653.474, 392.234 643.474, 392.234 633.474, 392.234 623.474, 392.234 613.474, 392.234 603.474, 392.234 593.474, 392.234 583.474, 392.234 573.474, 392.234 563.474, 392.234 553.474, 392.234 543.474, 392.234 533.474, 392.234 523.474, 392.234 513.474, 392.234 503.474, 392.234 493.474, 392.234 483.474, 392.234 473.474, 392.234 463.474, 392.234 453.474, 392.234 443.474, 392.234 433.474, 392.234 423.474, 392.234 413.474, 392.234 403.474, 392.234 397.474, 392.234 397.474, 392.234 387.474, 392.234 384.000, 392.234 384.000, 402.234 384.000, 412.234 384.000, 422.234 384.000, 432.234 384.000, 442.234 384.000, 452.234 384.000, 462.234 384.000, 472.234 384.000, 482.234 384.000, 492.234 384.000, 502.234 384.000, 512.234 384.000, 522.234 384.000, 526.971 " />
            <path fill="none" stroke-width="1.5" stroke-linecap="round" stroke-opacity="1.0" stroke="rgb(0, 0, 0)" stroke-linejoin="round" d=" M 653.474, 392.234 653.474, 402.234 653.474, 412.234 653.474, 422.234 653.474, 432.234 653.474, 442.234 653.474, 452.234 653.474, 462.234 653.474, 472.234 653.474, 482.234 653.474, 492.234 653.474, 502.234 653.474, 512.234 653.474, 522.234 653.474, 526.971 " />
            <path fill="none" stroke-width="1.5" stroke-linecap="round" stroke-opacity="1.0" stroke="rgb(0, 0, 0)" stroke-linejoin="round" d=" M 384.000, 526.971 384.000, 536.971 384.000, 546.971 384.000, 556.971 384.000, 566.971 384.000, 576.971 384.000, 586.971 384.000, 596.971 384.000, 606.971 384.000, 616.971 384.000, 626.971 384.000, 636.971 384.000, 646.971 384.000, 656.971 384.000, 661.708 384.000, 661.708 394.000, 661.708 404.000, 661.708 413.470, 661.708 413.470, 661.708 423.470, 661.708 433.470, 661.708 443.470, 661.708 453.470, 661.708 463.470, 661.708 473.470, 661.708 483.470, 661.708 493.470, 661.708 503.470, 661.708 513.470, 661.708 523.470, 661.708 533.470, 661.708 543.470, 661.708 553.470, 661.708 563.470, 661.708 573.470, 661.708 583.470, 661.708 593.470, 661.708 603.470, 661.708 613.470, 661.708 624.004, 661.708 624.004, 661.708 634.004, 661.708 644.004, 661.708 653.474, 661.708 653.474, 651.708 653.474, 641.708 653.474, 631.708 653.474, 621.708 653.474, 611.708 653.474, 601.708 653.474, 591.708 653.474, 581.708 653.474, 571.708 653.474, 561.708 653.474, 551.708 653.474, 541.708 653.474, 531.708 653.474, 526.971 " />
            <path fill="none" stroke-width="1.5" stroke-linecap="round" stroke-opacity="1.0" stroke="rgb(0, 0, 0)" stroke-linejoin="round" d=" M 653.474, 526.971 653.474, 526.971 " />
            <path fill="none" stroke-width="1.5" stroke-linecap="round" stroke-opacity="1.0" stroke="rgb(0, 0, 0)" stroke-linejoin="round" d=" M 624.004, 661.708 624.004, 661.708 624.004, 671.708 624.004, 681.708 624.004, 691.708 624.004, 701.708 624.004, 711.708 624.004, 721.708 624.004, 731.708 624.004, 741.708 624.004, 751.708 624.004, 761.708 624.004, 771.708 624.004, 781.708 624.004, 791.708 624.004, 796.445 624.004, 796.445 624.287, 796.445 625.125, 796.445 626.487, 796.445 628.320, 796.445 630.552, 796.445 633.100, 796.445 635.864, 796.445 638.739, 796.445 641.613, 796.445 644.378, 796.445 646.925, 796.445 649.158, 796.445 650.990, 796.445 652.352, 796.445 653.191, 796.445 653.474, 796.445 " />
            <path fill="none" stroke-width="1.5" stroke-linecap="round" stroke-opacity="1.0" stroke="rgb(0, 0, 0)" stroke-linejoin="round" d=" M 653.474, 796.445 653.474, 796.445 653.474, 786.445 653.474, 776.445 653.474, 766.445 653.474, 756.445 653.474, 746.445 653.474, 736.445 653.474, 726.445 653.474, 716.445 653.474, 706.445 653.474, 696.445 653.474, 686.445 653.474, 676.445 653.474, 666.445 653.474, 656.445 653.474, 646.445 653.474, 636.445 653.474, 626.445 653.474, 616.445 653.474, 606.445 653.474, 596.445 653.474, 586.445 653.474, 576.445 653.474, 566.445 653.474, 556.445 653.474, 546.445 653.474, 536.445 653.474, 526.971 653.474, 526.971 653.474, 526.971 " />
            <path fill="none" stroke-width="1.5" stroke-linecap="round" stroke-opacity="1.0" stroke="rgb(0, 0, 0)" stroke-linejoin="round" d=" M 384.000, 526.971 384.000, 536.971 384.000, 546.971 384.000, 556.971 384.000, 566.971 384.000, 576.971 384.000, 586.971 384.000, 596.971 384.000, 606.971 384.000, 616.971 384.000, 626.971 384.000, 636.971 384.000, 646.971 384.000, 656.971 384.000, 666.971 384.000, 676.971 384.000, 686.971 384.000, 696.971 384.000, 706.971 384.000, 716.971 384.000, 726.971 384.000, 736.971 384.000, 746.971 384.000, 756.971 384.000, 766.971 384.000, 776.971 384.000, 786.971 384.000, 796.445 384.000, 796.445 384.283, 796.445 385.122, 796.445 386.483, 796.445 388.316, 796.445 390.549, 796.445 393.096, 796.445 395.860, 796.445 398.735, 796.445 401.610, 796.445 404.374, 796.445 406.921, 796.445 409.154, 796.445 410.987, 796.445 412.348, 796.445 413.187, 796.445 413.470, 796.445 " />
            <path fill="none" stroke-width="1.5" stroke-linecap="round" stroke-opacity="1.0" stroke="rgb(0, 0, 0)" stroke-linejoin="round" d=" M 413.470, 796.445 413.470, 796.445 413.470, 786.445 413.470, 776.445 413.470, 766.445 413.470, 756.444 413.470, 746.445 413.470, 736.444 413.470, 726.444 413.470, 716.444 413.470, 706.444 413.470, 696.444 413.470, 686.444 413.470, 676.444 413.470, 666.444 413.470, 661.708 413.470, 661.708 " />
            <path fill="none" stroke-width="1.5" stroke-linecap="round" stroke-opacity="1.0" stroke="rgb(0, 0, 0)" stroke-linejoin="round" d=" M 397.474, 392.234 397.474, 382.234 397.474, 372.234 397.474, 362.234 397.474, 352.234 397.474, 342.234 397.474, 332.234 397.474, 322.234 397.474, 312.234 397.474, 302.234 397.474, 292.234 397.474, 282.234 397.474, 272.234 397.474, 262.234 397.474, 252.234 397.474, 242.234 397.474, 232.234 397.474, 227.556 397.474, 227.556 387.474, 227.556 377.474, 227.556 370.526, 227.556 370.526, 227.556 370.526, 237.556 370.526, 247.556 370.526, 257.556 370.526, 267.556 370.526, 277.556 370.526, 287.556 370.526, 297.556 370.526, 307.556 370.526, 317.556 370.526, 327.556 370.526, 337.556 370.526, 347.556 370.526, 357.556 370.526, 367.556 370.526, 377.556 370.526, 387.556 370.526, 397.556 370.526, 407.556 370.526, 417.556 370.526, 427.556 370.526, 437.556 370.526, 447.556 370.526, 457.556 370.526, 467.556 370.526, 477.556 370.526, 487.556 370.526, 497.556 370.526, 507.556 370.526, 517.556 370.526, 526.971 370.526, 526.971 380.526, 526.971 384.000, 526.971 384.000, 526.971 394.000, 526.971 397.474, 526.971 " />
            <path fill="none" stroke-width="1.5" stroke-linecap="round" stroke-opacity="1.0" stroke="rgb(0, 0, 0)" stroke-linejoin="round" d=" M 397.474, 227.556 397.474, 237.556 397.474, 247.556 397.474, 257.556 397.474, 267.556 397.474, 277.556 397.474, 287.556 397.474, 297.556 397.474, 307.556 397.474, 317.556 397.474, 327.556 397.474, 337.556 397.474, 347.556 397.474, 357.556 397.474, 367.556 397.474, 377.556 397.474, 387.556 397.474, 392.234 397.474, 402.234 397.474, 412.234 397.474, 422.234 397.474, 432.234 397.474, 442.234 397.474, 452.234 397.474, 462.234 397.474, 472.234 397.474, 482.234 397.474, 492.234 397.474, 502.234 397.474, 512.234 397.474, 522.234 397.474, 526.971 " />
            <path fill="none" stroke-width="1.5" stroke-linecap="round" stroke-opacity="1.0" stroke="rgb(0, 0, 0)" stroke-linejoin="round" d=" M 370.526, 227.556 370.526, 227.556 " />
            <path fill="none" stroke-width="1.5" stroke-linecap="round" stroke-opacity="1.0" stroke="rgb(0, 0, 0)" stroke-linejoin="round" d=" M 413.470, 796.445 413.470, 786.445 413.470, 776.445 413.470, 766.445 413.470, 756.444 413.470, 746.445 413.470, 736.444 413.470, 726.444 413.470, 716.444 413.470, 706.444 413.470, 696.444 413.470, 686.444 413.470, 676.444 413.470, 666.444 413.470, 661.708 413.470, 661.708 " />
            <path fill="none" stroke-width="1.5" stroke-linecap="round" stroke-opacity="1.0" stroke="rgb(0, 0, 0)" stroke-linejoin="round" d=" M 653.474, 796.445 653.474, 786.445 653.474, 776.445 653.474, 766.445 653.474, 756.444 653.474, 746.445 653.474, 736.444 653.474, 726.444 653.474, 716.444 653.474, 706.444 653.474, 696.444 653.474, 686.444 653.474, 676.444 653.474, 666.444 653.474, 661.708 653.474, 661.708 653.474, 651.708 653.474, 641.708 653.474, 631.708 653.474, 621.708 653.474, 611.708 653.474, 601.708 653.474, 591.708 653.474, 581.708 653.474, 571.708 653.474, 561.708 653.474, 551.708 653.474, 541.708 653.474, 531.708 653.474, 526.971 " />
            <path fill="none" stroke-width="1.5" stroke-linecap="round" stroke-opacity="1.0" stroke="rgb(0, 0, 0)" stroke-linejoin="round" d=" M 413.470, 661.708 423.470, 661.708 433.470, 661.708 443.470, 661.708 453.470, 661.708 463.470, 661.708 473.470, 661.708 483.470, 661.708 493.470, 661.708 503.470, 661.708 513.470, 661.708 523.470, 661.708 533.470, 661.708 543.470, 661.708 553.470, 661.708 563.470, 661.708 573.470, 661.708 583.470, 661.708 593.470, 661.708 603.470, 661.708 613.470, 661.708 624.004, 661.708 " />
            <path fill="none" stroke-width="1.5" stroke-linecap="round" stroke-opacity="1.0" stroke="rgb(0, 0, 0)" stroke-linejoin="round" d=" M 653.474, 661.708 653.474, 661.708 " />
        </g>
    </g>
    <g id="ViewLayer_TechnicalLines.002" inkscape:groupmode="lineset" inkscape:label="ViewLayer_TechnicalLines.002">
        <g inkscape:groupmode="layer" id="strokes" inkscape:label="strokes">
            <path fill="none" stroke-width="1.5" stroke-linecap="round" stroke-opacity="1.0" stroke="rgb(0, 0, 0)" stroke-linejoin="round" d=" M 653.474, 526.971 653.474, 516.971 653.474, 506.971 653.474, 496.971 653.474, 486.971 653.474, 476.971 653.474, 466.971 653.474, 456.971 653.474, 446.971 653.474, 436.971 653.474, 426.971 653.474, 416.971 653.474, 406.971 653.474, 396.971 653.474, 392.234 653.474, 392.234 643.474, 392.234 633.474, 392.234 623.474, 392.234 613.474, 392.234 603.474, 392.234 593.474, 392.234 583.474, 392.234 573.474, 392.234 563.474, 392.234 553.474, 392.234 543.474, 392.234 533.474, 392.234 523.474, 392.234 513.474, 392.234 503.474, 392.234 493.474, 392.234 483.474, 392.234 473.474, 392.234 463.474, 392.234 453.474, 392.234 443.474, 392.234 433.474, 392.234 423.474, 392.234 413.474, 392.234 403.474, 392.234 397.474, 392.234 397.474, 392.234 387.474, 392.234 384.000, 392.234 384.000, 402.234 384.000, 412.234 384.000, 422.234 384.000, 432.234 384.000, 442.234 384.000, 452.234 384.000, 462.234 384.000, 472.234 384.000, 482.234 384.000, 492.234 384.000, 502.234 384.000, 512.234 384.000, 522.234 384.000, 526.971 " />
            <path fill="none" stroke-width="1.5" stroke-linecap="round" stroke-opacity="1.0" stroke="rgb(0, 0, 0)" stroke-linejoin="round" d=" M 653.474, 392.234 653.474, 402.234 653.474, 412.234 653.474, 422.234 653.474, 432.234 653.474, 442.234 653.474, 452.234 653.474, 462.234 653.474, 472.234 653.474, 482.234 653.474, 492.234 653.474, 502.234 653.474, 512.234 653.474, 522.234 653.474, 526.971 " />
            <path fill="none" stroke-width="1.5" stroke-linecap="round" stroke-opacity="1.0" stroke="rgb(0, 0, 0)" stroke-linejoin="round" d=" M 384.000, 526.971 384.000, 536.971 384.000, 546.971 384.000, 556.971 384.000, 566.971 384.000, 576.971 384.000, 586.971 384.000, 596.971 384.000, 606.971 384.000, 616.971 384.000, 626.971 384.000, 636.971 384.000, 646.971 384.000, 656.971 384.000, 661.708 384.000, 661.708 394.000, 661.708 404.000, 661.708 413.470, 661.708 413.470, 661.708 423.470, 661.708 433.470, 661.708 443.470, 661.708 453.470, 661.708 463.470, 661.708 473.470, 661.708 483.470, 661.708 493.470, 661.708 503.470, 661.708 513.470, 661.708 523.470, 661.708 533.470, 661.708 543.470, 661.708 553.470, 661.708 563.470, 661.708 573.470, 661.708 583.470, 661.708 593.470, 661.708 603.470, 661.708 613.470, 661.708 624.004, 661.708 624.004, 661.708 634.004, 661.708 644.004, 661.708 653.474, 661.708 653.474, 651.708 653.474, 641.708 653.474, 631.708 653.474, 621.708 653.474, 611.708 653.474, 601.708 653.474, 591.708 653.474, 581.708 653.474, 571.708 653.474, 561.708 653.474, 551.708 653.474, 541.708 653.474, 531.708 653.474, 526.971 " />
            <path fill="none" stroke-width="1.5" stroke-linecap="round" stroke-opacity="1.0" stroke="rgb(0, 0, 0)" stroke-linejoin="round" d=" M 653.474, 526.971 653.474, 526.971 " />
            <path fill="none" stroke-width="1.5" stroke-linecap="round" stroke-opacity="1.0" stroke="rgb(0, 0, 0)" stroke-linejoin="round" d=" M 624.004, 661.708 624.004, 661.708 624.004, 671.708 624.004, 681.708 624.004, 691.708 624.004, 701.708 624.004, 711.708 624.004, 721.708 624.004, 731.708 624.004, 741.708 624.004, 751.708 624.004, 761.708 624.004, 771.708 624.004, 781.708 624.004, 791.708 624.004, 796.445 624.004, 796.445 624.287, 796.445 625.125, 796.445 626.487, 796.445 628.320, 796.445 630.552, 796.445 633.100, 796.445 635.864, 796.445 638.739, 796.445 641.613, 796.445 644.378, 796.445 646.925, 796.445 649.158, 796.445 650.990, 796.445 652.352, 796.445 653.191, 796.445 653.474, 796.445 " />
            <path fill="none" stroke-width="1.5" stroke-linecap="round" stroke-opacity="1.0" stroke="rgb(0, 0, 0)" stroke-linejoin="round" d=" M 653.474, 796.445 653.474, 796.445 653.474, 786.445 653.474, 776.445 653.474, 766.445 653.474, 756.445 653.474, 746.445 653.474, 736.445 653.474, 726.445 653.474, 716.445 653.474, 706.445 653.474, 696.445 653.474, 686.445 653.474, 676.445 653.474, 666.445 653.474, 656.445 653.474, 646.445 653.474, 636.445 653.474, 626.445 653.474, 616.445 653.474, 606.445 653.474, 596.445 653.474, 586.445 653.474, 576.445 653.474, 566.445 653.474, 556.445 653.474, 546.445 653.474, 536.445 653.474, 526.971 653.474, 526.971 653.474, 526.971 " />
            <path fill="none" stroke-width="1.5" stroke-linecap="round" stroke-opacity="1.0" stroke="rgb(0, 0, 0)" stroke-linejoin="round" d=" M 384.000, 526.971 384.000, 536.971 384.000, 546.971 384.000, 556.971 384.000, 566.971 384.000, 576.971 384.000, 586.971 384.000, 596.971 384.000, 606.971 384.000, 616.971 384.000, 626.971 384.000, 636.971 384.000, 646.971 384.000, 656.971 384.000, 666.971 384.000, 676.971 384.000, 686.971 384.000, 696.971 384.000, 706.971 384.000, 716.971 384.000, 726.971 384.000, 736.971 384.000, 746.971 384.000, 756.971 384.000, 766.971 384.000, 776.971 384.000, 786.971 384.000, 796.445 384.000, 796.445 384.283, 796.445 385.122, 796.445 386.483, 796.445 388.316, 796.445 390.549, 796.445 393.096, 796.445 395.860, 796.445 398.735, 796.445 401.610, 796.445 404.374, 796.445 406.921, 796.445 409.154, 796.445 410.987, 796.445 412.348, 796.445 413.187, 796.445 413.470, 796.445 " />
            <path fill="none" stroke-width="1.5" stroke-linecap="round" stroke-opacity="1.0" stroke="rgb(0, 0, 0)" stroke-linejoin="round" d=" M 413.470, 796.445 413.470, 796.445 413.470, 786.445 413.470, 776.445 413.470, 766.445 413.470, 756.444 413.470, 746.445 413.470, 736.444 413.470, 726.444 413.470, 716.444 413.470, 706.444 413.470, 696.444 413.470, 686.444 413.470, 676.444 413.470, 666.444 413.470, 661.708 413.470, 661.708 " />
            <path fill="none" stroke-width="1.5" stroke-linecap="round" stroke-opacity="1.0" stroke="rgb(0, 0, 0)" stroke-linejoin="round" d=" M 397.474, 392.234 397.474, 382.234 397.474, 372.234 397.474, 362.234 397.474, 352.234 397.474, 342.234 397.474, 332.234 397.474, 322.234 397.474, 312.234 397.474, 302.234 397.474, 292.234 397.474, 282.234 397.474, 272.234 397.474, 262.234 397.474, 252.234 397.474, 242.234 397.474, 232.234 397.474, 227.556 397.474, 227.556 387.474, 227.556 377.474, 227.556 370.526, 227.556 370.526, 227.556 370.526, 237.556 370.526, 247.556 370.526, 257.556 370.526, 267.556 370.526, 277.556 370.526, 287.556 370.526, 297.556 370.526, 307.556 370.526, 317.556 370.526, 327.556 370.526, 337.556 370.526, 347.556 370.526, 357.556 370.526, 367.556 370.526, 377.556 370.526, 387.556 370.526, 397.556 370.526, 407.556 370.526, 417.556 370.526, 427.556 370.526, 437.556 370.526, 447.556 370.526, 457.556 370.526, 467.556 370.526, 477.556 370.526, 487.556 370.526, 497.556 370.526, 507.556 370.526, 517.556 370.526, 526.971 370.526, 526.971 380.526, 526.971 384.000, 526.971 384.000, 526.971 394.000, 526.971 397.474, 526.971 " />
            <path fill="none" stroke-width="1.5" stroke-linecap="round" stroke-opacity="1.0" stroke="rgb(0, 0, 0)" stroke-linejoin="round" d=" M 397.474, 227.556 397.474, 237.556 397.474, 247.556 397.474, 257.556 397.474, 267.556 397.474, 277.556 397.474, 287.556 397.474, 297.556 397.474, 307.556 397.474, 317.556 397.474, 327.556 397.474, 337.556 397.474, 347.556 397.474, 357.556 397.474, 367.556 397.474, 377.556 397.474, 387.556 397.474, 392.234 397.474, 402.234 397.474, 412.234 397.474, 422.234 397.474, 432.234 397.474, 442.234 397.474, 452.234 397.474, 462.234 397.474, 472.234 397.474, 482.234 397.474, 492.234 397.474, 502.234 397.474, 512.234 397.474, 522.234 397.474, 526.971 " />
            <path fill="none" stroke-width="1.5" stroke-linecap="round" stroke-opacity="1.0" stroke="rgb(0, 0, 0)" stroke-linejoin="round" d=" M 370.526, 227.556 370.526, 227.556 " />
            <path fill="none" stroke-width="1.5" stroke-linecap="round" stroke-opacity="1.0" stroke="rgb(0, 0, 0)" stroke-linejoin="round" d=" M 413.470, 796.445 413.470, 786.445 413.470, 776.445 413.470, 766.445 413.470, 756.444 413.470, 746.445 413.470, 736.444 413.470, 726.444 413.470, 716.444 413.470, 706.444 413.470, 696.444 413.470, 686.444 413.470, 676.444 413.470, 666.444 413.470, 661.708 413.470, 661.708 " />
            <path fill="none" stroke-width="1.5" stroke-linecap="round" stroke-opacity="1.0" stroke="rgb(0, 0, 0)" stroke-linejoin="round" d=" M 653.474, 796.445 653.474, 786.445 653.474, 776.445 653.474, 766.445 653.474, 756.444 653.474, 746.445 653.474, 736.444 653.474, 726.444 653.474, 716.444 653.474, 706.444 653.474, 696.444 653.474, 686.444 653.474, 676.444 653.474, 666.444 653.474, 661.708 653.474, 661.708 653.474, 651.708 653.474, 641.708 653.474, 631.708 653.474, 621.708 653.474, 611.708 653.474, 601.708 653.474, 591.708 653.474, 581.708 653.474, 571.708 653.474, 561.708 653.474, 551.708 653.474, 541.708 653.474, 531.708 653.474, 526.971 " />
            <path fill="none" stroke-width="1.5" stroke-linecap="round" stroke-opacity="1.0" stroke="rgb(0, 0, 0)" stroke-linejoin="round" d=" M 413.470, 661.708 423.470, 661.708 433.470, 661.708 443.470, 661.708 453.470, 661.708 463.470, 661.708 473.470, 661.708 483.470, 661.708 493.470, 661.708 503.470, 661.708 513.470, 661.708 523.470, 661.708 533.470, 661.708 543.470, 661.708 553.470, 661.708 563.470, 661.708 573.470, 661.708 583.470, 661.708 593.470, 661.708 603.470, 661.708 613.470, 661.708 624.004, 661.708 " />
            <path fill="none" stroke-width="1.5" stroke-linecap="round" stroke-opacity="1.0" stroke="rgb(0, 0, 0)" stroke-linejoin="round" d=" M 653.474, 661.708 653.474, 661.708 " />
        </g>
    </g>
    <g id="ViewLayer_TechnicalLines.003" inkscape:groupmode="lineset" inkscape:label="ViewLayer_TechnicalLines.003">
        <g inkscape:groupmode="layer" id="strokes" inkscape:label="strokes">
            <path fill="none" stroke-width="1.5" stroke-linecap="round" stroke-opacity="1.0" stroke="rgb(0, 0, 0)" stroke-linejoin="round" d=" M 653.474, 526.971 653.474, 516.971 653.474, 506.971 653.474, 496.971 653.474, 486.971 653.474, 476.971 653.474, 466.971 653.474, 456.971 653.474, 446.971 653.474, 436.971 653.474, 426.971 653.474, 416.971 653.474, 406.971 653.474, 396.971 653.474, 392.234 653.474, 392.234 643.474, 392.234 633.474, 392.234 623.474, 392.234 613.474, 392.234 603.474, 392.234 593.474, 392.234 583.474, 392.234 573.474, 392.234 563.474, 392.234 553.474, 392.234 543.474, 392.234 533.474, 392.234 523.474, 392.234 513.474, 392.234 503.474, 392.234 493.474, 392.234 483.474, 392.234 473.474, 392.234 463.474, 392.234 453.474, 392.234 443.474, 392.234 433.474, 392.234 423.474, 392.234 413.474, 392.234 403.474, 392.234 397.474, 392.234 397.474, 392.234 387.474, 392.234 384.000, 392.234 384.000, 402.234 384.000, 412.234 384.000, 422.234 384.000, 432.234 384.000, 442.234 384.000, 452.234 384.000, 462.234 384.000, 472.234 384.000, 482.234 384.000, 492.234 384.000, 502.234 384.000, 512.234 384.000, 522.234 384.000, 526.971 " />
            <path fill="none" stroke-width="1.5" stroke-linecap="round" stroke-opacity="1.0" stroke="rgb(0, 0, 0)" stroke-linejoin="round" d=" M 653.474, 392.234 653.474, 402.234 653.474, 412.234 653.474, 422.234 653.474, 432.234 653.474, 442.234 653.474, 452.234 653.474, 462.234 653.474, 472.234 653.474, 482.234 653.474, 492.234 653.474, 502.234 653.474, 512.234 653.474, 522.234 653.474, 526.971 " />
            <path fill="none" stroke-width="1.5" stroke-linecap="round" stroke-opacity="1.0" stroke="rgb(0, 0, 0)" stroke-linejoin="round" d=" M 384.000, 526.971 384.000, 536.971 384.000, 546.971 384.000, 556.971 384.000, 566.971 384.000, 576.971 384.000, 586.971 384.000, 596.971 384.000, 606.971 384.000, 616.971 384.000, 626.971 384.000, 636.971 384.000, 646.971 384.000, 656.971 384.000, 661.708 384.000, 661.708 394.000, 661.708 404.000, 661.708 413.470, 661.708 413.470, 661.708 423.470, 661.708 433.470, 661.708 443.470, 661.708 453.470, 661.708 463.470, 661.708 473.470, 661.708 483.470, 661.708 493.470, 661.708 503.470, 661.708 513.470, 661.708 523.470, 661.708 533.470, 661.708 543.470, 661.708 553.470, 661.708 563.470, 661.708 573.470, 661.708 583.470, 661.708 593.470, 661.708 603.470, 661.708 613.470, 661.708 624.004, 661.708 624.004, 661.708 634.004, 661.708 644.004, 661.708 653.474, 661.708 653.474, 651.708 653.474, 641.708 653.474, 631.708 653.474, 621.708 653.474, 611.708 653.474, 601.708 653.474, 591.708 653.474, 581.708 653.474, 571.708 653.474, 561.708 653.474, 551.708 653.474, 541.708 653.474, 531.708 653.474, 526.971 " />
            <path fill="none" stroke-width="1.5" stroke-linecap="round" stroke-opacity="1.0" stroke="rgb(0, 0, 0)" stroke-linejoin="round" d=" M 653.474, 526.971 653.474, 526.971 " />
            <path fill="none" stroke-width="1.5" stroke-linecap="round" stroke-opacity="1.0" stroke="rgb(0, 0, 0)" stroke-linejoin="round" d=" M 624.004, 661.708 624.004, 661.708 624.004, 671.708 624.004, 681.708 624.004, 691.708 624.004, 701.708 624.004, 711.708 624.004, 721.708 624.004, 731.708 624.004, 741.708 624.004, 751.708 624.004, 761.708 624.004, 771.708 624.004, 781.708 624.004, 791.708 624.004, 796.445 624.004, 796.445 624.287, 796.445 625.125, 796.445 626.487, 796.445 628.320, 796.445 630.552, 796.445 633.100, 796.445 635.864, 796.445 638.739, 796.445 641.613, 796.445 644.378, 796.445 646.925, 796.445 649.158, 796.445 650.990, 796.445 652.352, 796.445 653.191, 796.445 653.474, 796.445 " />
            <path fill="none" stroke-width="1.5" stroke-linecap="round" stroke-opacity="1.0" stroke="rgb(0, 0, 0)" stroke-linejoin="round" d=" M 653.474, 796.445 653.474, 796.445 653.474, 786.445 653.474, 776.445 653.474, 766.445 653.474, 756.445 653.474, 746.445 653.474, 736.445 653.474, 726.445 653.474, 716.445 653.474, 706.445 653.474, 696.445 653.474, 686.445 653.474, 676.445 653.474, 666.445 653.474, 656.445 653.474, 646.445 653.474, 636.445 653.474, 626.445 653.474, 616.445 653.474, 606.445 653.474, 596.445 653.474, 586.445 653.474, 576.445 653.474, 566.445 653.474, 556.445 653.474, 546.445 653.474, 536.445 653.474, 526.971 653.474, 526.971 653.474, 526.971 " />
            <path fill="none" stroke-width="1.5" stroke-linecap="round" stroke-opacity="1.0" stroke="rgb(0, 0, 0)" stroke-linejoin="round" d=" M 384.000, 526.971 384.000, 536.971 384.000, 546.971 384.000, 556.971 384.000, 566.971 384.000, 576.971 384.000, 586.971 384.000, 596.971 384.000, 606.971 384.000, 616.971 384.000, 626.971 384.000, 636.971 384.000, 646.971 384.000, 656.971 384.000, 666.971 384.000, 676.971 384.000, 686.971 384.000, 696.971 384.000, 706.971 384.000, 716.971 384.000, 726.971 384.000, 736.971 384.000, 746.971 384.000, 756.971 384.000, 766.971 384.000, 776.971 384.000, 786.971 384.000, 796.445 384.000, 796.445 384.283, 796.445 385.122, 796.445 386.483, 796.445 388.316, 796.445 390.549, 796.445 393.096, 796.445 395.860, 796.445 398.735, 796.445 401.610, 796.445 404.374, 796.445 406.921, 796.445 409.154, 796.445 410.987, 796.445 412.348, 796.445 413.187, 796.445 413.470, 796.445 " />
            <path fill="none" stroke-width="1.5" stroke-linecap="round" stroke-opacity="1.0" stroke="rgb(0, 0, 0)" stroke-linejoin="round" d=" M 413.470, 796.445 413.470, 796.445 413.470, 786.445 413.470, 776.445 413.470, 766.445 413.470, 756.444 413.470, 746.445 413.470, 736.444 413.470, 726.444 413.470, 716.444 413.470, 706.444 413.470, 696.444 413.470, 686.444 413.470, 676.444 413.470, 666.444 413.470, 661.708 413.470, 661.708 " />
            <path fill="none" stroke-width="1.5" stroke-linecap="round" stroke-opacity="1.0" stroke="rgb(0, 0, 0)" stroke-linejoin="round" d=" M 397.474, 392.234 397.474, 382.234 397.474, 372.234 397.474, 362.234 397.474, 352.234 397.474, 342.234 397.474, 332.234 397.474, 322.234 397.474, 312.234 397.474, 302.234 397.474, 292.234 397.474, 282.234 397.474, 272.234 397.474, 262.234 397.474, 252.234 397.474, 242.234 397.474, 232.234 397.474, 227.556 397.474, 227.556 387.474, 227.556 377.474, 227.556 370.526, 227.556 370.526, 227.556 370.526, 237.556 370.526, 247.556 370.526, 257.556 370.526, 267.556 370.526, 277.556 370.526, 287.556 370.526, 297.556 370.526, 307.556 370.526, 317.556 370.526, 327.556 370.526, 337.556 370.526, 347.556 370.526, 357.556 370.526, 367.556 370.526, 377.556 370.526, 387.556 370.526, 397.556 370.526, 407.556 370.526, 417.556 370.526, 427.556 370.526, 437.556 370.526, 447.556 370.526, 457.556 370.526, 467.556 370.526, 477.556 370.526, 487.556 370.526, 497.556 370.526, 507.556 370.526, 517.556 370.526, 526.971 370.526, 526.971 380.526, 526.971 384.000, 526.971 384.000, 526.971 394.000, 526.971 397.474, 526.971 " />
            <path fill="none" stroke-width="1.5" stroke-linecap="round" stroke-opacity="1.0" stroke="rgb(0, 0, 0)" stroke-linejoin="round" d=" M 397.474, 227.556 397.474, 237.556 397.474, 247.556 397.474, 257.556 397.474, 267.556 397.474, 277.556 397.474, 287.556 397.474, 297.556 397.474, 307.556 397.474, 317.556 397.474, 327.556 397.474, 337.556 397.474, 347.556 397.474, 357.556 397.474, 367.556 397.474, 377.556 397.474, 387.556 397.474, 392.234 397.474, 402.234 397.474, 412.234 397.474, 422.234 397.474, 432.234 397.474, 442.234 397.474, 452.234 397.474, 462.234 397.474, 472.234 397.474, 482.234 397.474, 492.234 397.474, 502.234 397.474, 512.234 397.474, 522.234 397.474, 526.971 " />
            <path fill="none" stroke-width="1.5" stroke-linecap="round" stroke-opacity="1.0" stroke="rgb(0, 0, 0)" stroke-linejoin="round" d=" M 370.526, 227.556 370.526, 227.556 " />
            <path fill="none" stroke-width="1.5" stroke-linecap="round" stroke-opacity="1.0" stroke="rgb(0, 0, 0)" stroke-linejoin="round" d=" M 413.470, 796.445 413.470, 786.445 413.470, 776.445 413.470, 766.445 413.470, 756.444 413.470, 746.445 413.470, 736.444 413.470, 726.444 413.470, 716.444 413.470, 706.444 413.470, 696.444 413.470, 686.444 413.470, 676.444 413.470, 666.444 413.470, 661.708 413.470, 661.708 " />
            <path fill="none" stroke-width="1.5" stroke-linecap="round" stroke-opacity="1.0" stroke="rgb(0, 0, 0)" stroke-linejoin="round" d=" M 653.474, 796.445 653.474, 786.445 653.474, 776.445 653.474, 766.445 653.474, 756.444 653.474, 746.445 653.474, 736.444 653.474, 726.444 653.474, 716.444 653.474, 706.444 653.474, 696.444 653.474, 686.444 653.474, 676.444 653.474, 666.444 653.474, 661.708 653.474, 661.708 653.474, 651.708 653.474, 641.708 653.474, 631.708 653.474, 621.708 653.474, 611.708 653.474, 601.708 653.474, 591.708 653.474, 581.708 653.474, 571.708 653.474, 561.708 653.474, 551.708 653.474, 541.708 653.474, 531.708 653.474, 526.971 " />
            <path fill="none" stroke-width="1.5" stroke-linecap="round" stroke-opacity="1.0" stroke="rgb(0, 0, 0)" stroke-linejoin="round" d=" M 413.470, 661.708 423.470, 661.708 433.470, 661.708 443.470, 661.708 453.470, 661.708 463.470, 661.708 473.470, 661.708 483.470, 661.708 493.470, 661.708 503.470, 661.708 513.470, 661.708 523.470, 661.708 533.470, 661.708 543.470, 661.708 553.470, 661.708 563.470, 661.708 573.470, 661.708 583.470, 661.708 593.470, 661.708 603.470, 661.708 613.470, 661.708 624.004, 661.708 " />
            <path fill="none" stroke-width="1.5" stroke-linecap="round" stroke-opacity="1.0" stroke="rgb(0, 0, 0)" stroke-linejoin="round" d=" M 653.474, 661.708 653.474, 661.708 " />
        </g>
    </g>
    <g id="ViewLayer_TechnicalLines.004" xmlns:inkscape="http://www.inkscape.org/namespaces/inkscape" inkscape:groupmode="lineset" inkscape:label="ViewLayer_TechnicalLines.004">
        <g xmlns:inkscape="http://www.inkscape.org/namespaces/inkscape" inkscape:groupmode="layer" id="strokes" inkscape:label="strokes">
            <path fill="none" stroke-width="1.5" stroke-linecap="round" stroke-opacity="1.0" stroke="rgb(0, 0, 0)" stroke-linejoin="round" d=" M 653.474, 526.971 653.474, 516.971 653.474, 506.971 653.474, 496.971 653.474, 486.971 653.474, 476.971 653.474, 466.971 653.474, 456.971 653.474, 446.971 653.474, 436.971 653.474, 426.971 653.474, 416.971 653.474, 406.971 653.474, 396.971 653.474, 392.234 653.474, 392.234 643.474, 392.234 633.474, 392.234 623.474, 392.234 613.474, 392.234 603.474, 392.234 593.474, 392.234 583.474, 392.234 573.474, 392.234 563.474, 392.234 553.474, 392.234 543.474, 392.234 533.474, 392.234 523.474, 392.234 513.474, 392.234 503.474, 392.234 493.474, 392.234 483.474, 392.234 473.474, 392.234 463.474, 392.234 453.474, 392.234 443.474, 392.234 433.474, 392.234 423.474, 392.234 413.474, 392.234 403.474, 392.234 397.474, 392.234 397.474, 392.234 387.474, 392.234 384.000, 392.234 384.000, 402.234 384.000, 412.234 384.000, 422.234 384.000, 432.234 384.000, 442.234 384.000, 452.234 384.000, 462.234 384.000, 472.234 384.000, 482.234 384.000, 492.234 384.000, 502.234 384.000, 512.234 384.000, 522.234 384.000, 526.971 " />
            <path fill="none" stroke-width="1.5" stroke-linecap="round" stroke-opacity="1.0" stroke="rgb(0, 0, 0)" stroke-linejoin="round" d=" M 653.474, 392.234 653.474, 402.234 653.474, 412.234 653.474, 422.234 653.474, 432.234 653.474, 442.234 653.474, 452.234 653.474, 462.234 653.474, 472.234 653.474, 482.234 653.474, 492.234 653.474, 502.234 653.474, 512.234 653.474, 522.234 653.474, 526.971 " />
            <path fill="none" stroke-width="1.5" stroke-linecap="round" stroke-opacity="1.0" stroke="rgb(0, 0, 0)" stroke-linejoin="round" d=" M 384.000, 526.971 384.000, 536.971 384.000, 546.971 384.000, 556.971 384.000, 566.971 384.000, 576.971 384.000, 586.971 384.000, 596.971 384.000, 606.971 384.000, 616.971 384.000, 626.971 384.000, 636.971 384.000, 646.971 384.000, 656.971 384.000, 661.708 384.000, 661.708 394.000, 661.708 404.000, 661.708 413.470, 661.708 413.470, 661.708 423.470, 661.708 433.470, 661.708 443.470, 661.708 453.470, 661.708 463.470, 661.708 473.470, 661.708 483.470, 661.708 493.470, 661.708 503.470, 661.708 513.470, 661.708 523.470, 661.708 533.470, 661.708 543.470, 661.708 553.470, 661.708 563.470, 661.708 573.470, 661.708 583.470, 661.708 593.470, 661.708 603.470, 661.708 613.470, 661.708 624.004, 661.708 624.004, 661.708 634.004, 661.708 644.004, 661.708 653.474, 661.708 653.474, 651.708 653.474, 641.708 653.474, 631.708 653.474, 621.708 653.474, 611.708 653.474, 601.708 653.474, 591.708 653.474, 581.708 653.474, 571.708 653.474, 561.708 653.474, 551.708 653.474, 541.708 653.474, 531.708 653.474, 526.971 " />
            <path fill="none" stroke-width="1.5" stroke-linecap="round" stroke-opacity="1.0" stroke="rgb(0, 0, 0)" stroke-linejoin="round" d=" M 653.474, 526.971 653.474, 526.971 " />
            <path fill="none" stroke-width="1.5" stroke-linecap="round" stroke-opacity="1.0" stroke="rgb(0, 0, 0)" stroke-linejoin="round" d=" M 624.004, 661.708 624.004, 661.708 624.004, 671.708 624.004, 681.708 624.004, 691.708 624.004, 701.708 624.004, 711.708 624.004, 721.708 624.004, 731.708 624.004, 741.708 624.004, 751.708 624.004, 761.708 624.004, 771.708 624.004, 781.708 624.004, 791.708 624.004, 796.445 624.004, 796.445 624.287, 796.445 625.125, 796.445 626.487, 796.445 628.320, 796.445 630.552, 796.445 633.100, 796.445 635.864, 796.445 638.739, 796.445 641.613, 796.445 644.378, 796.445 646.925, 796.445 649.158, 796.445 650.990, 796.445 652.352, 796.445 653.191, 796.445 653.474, 796.445 " />
            <path fill="none" stroke-width="1.5" stroke-linecap="round" stroke-opacity="1.0" stroke="rgb(0, 0, 0)" stroke-linejoin="round" d=" M 653.474, 796.445 653.474, 796.445 653.474, 786.445 653.474, 776.445 653.474, 766.445 653.474, 756.445 653.474, 746.445 653.474, 736.445 653.474, 726.445 653.474, 716.445 653.474, 706.445 653.474, 696.445 653.474, 686.445 653.474, 676.445 653.474, 666.445 653.474, 656.445 653.474, 646.445 653.474, 636.445 653.474, 626.445 653.474, 616.445 653.474, 606.445 653.474, 596.445 653.474, 586.445 653.474, 576.445 653.474, 566.445 653.474, 556.445 653.474, 546.445 653.474, 536.445 653.474, 526.971 653.474, 526.971 653.474, 526.971 " />
            <path fill="none" stroke-width="1.5" stroke-linecap="round" stroke-opacity="1.0" stroke="rgb(0, 0, 0)" stroke-linejoin="round" d=" M 384.000, 526.971 384.000, 536.971 384.000, 546.971 384.000, 556.971 384.000, 566.971 384.000, 576.971 384.000, 586.971 384.000, 596.971 384.000, 606.971 384.000, 616.971 384.000, 626.971 384.000, 636.971 384.000, 646.971 384.000, 656.971 384.000, 666.971 384.000, 676.971 384.000, 686.971 384.000, 696.971 384.000, 706.971 384.000, 716.971 384.000, 726.971 384.000, 736.971 384.000, 746.971 384.000, 756.971 384.000, 766.971 384.000, 776.971 384.000, 786.971 384.000, 796.445 384.000, 796.445 384.283, 796.445 385.122, 796.445 386.483, 796.445 388.316, 796.445 390.549, 796.445 393.096, 796.445 395.860, 796.445 398.735, 796.445 401.610, 796.445 404.374, 796.445 406.921, 796.445 409.154, 796.445 410.987, 796.445 412.348, 796.445 413.187, 796.445 413.470, 796.445 " />
            <path fill="none" stroke-width="1.5" stroke-linecap="round" stroke-opacity="1.0" stroke="rgb(0, 0, 0)" stroke-linejoin="round" d=" M 413.470, 796.445 413.470, 796.445 413.470, 786.445 413.470, 776.445 413.470, 766.445 413.470, 756.444 413.470, 746.445 413.470, 736.444 413.470, 726.444 413.470, 716.444 413.470, 706.444 413.470, 696.444 413.470, 686.444 413.470, 676.444 413.470, 666.444 413.470, 661.708 413.470, 661.708 " />
            <path fill="none" stroke-width="1.5" stroke-linecap="round" stroke-opacity="1.0" stroke="rgb(0, 0, 0)" stroke-linejoin="round" d=" M 397.474, 392.234 397.474, 382.234 397.474, 372.234 397.474, 362.234 397.474, 352.234 397.474, 342.234 397.474, 332.234 397.474, 322.234 397.474, 312.234 397.474, 302.234 397.474, 292.234 397.474, 282.234 397.474, 272.234 397.474, 262.234 397.474, 252.234 397.474, 242.234 397.474, 232.234 397.474, 227.556 397.474, 227.556 387.474, 227.556 377.474, 227.556 370.526, 227.556 370.526, 227.556 370.526, 237.556 370.526, 247.556 370.526, 257.556 370.526, 267.556 370.526, 277.556 370.526, 287.556 370.526, 297.556 370.526, 307.556 370.526, 317.556 370.526, 327.556 370.526, 337.556 370.526, 347.556 370.526, 357.556 370.526, 367.556 370.526, 377.556 370.526, 387.556 370.526, 397.556 370.526, 407.556 370.526, 417.556 370.526, 427.556 370.526, 437.556 370.526, 447.556 370.526, 457.556 370.526, 467.556 370.526, 477.556 370.526, 487.556 370.526, 497.556 370.526, 507.556 370.526, 517.556 370.526, 526.971 370.526, 526.971 380.526, 526.971 384.000, 526.971 384.000, 526.971 394.000, 526.971 397.474, 526.971 " />
            <path fill="none" stroke-width="1.5" stroke-linecap="round" stroke-opacity="1.0" stroke="rgb(0, 0, 0)" stroke-linejoin="round" d=" M 397.474, 227.556 397.474, 237.556 397.474, 247.556 397.474, 257.556 397.474, 267.556 397.474, 277.556 397.474, 287.556 397.474, 297.556 397.474, 307.556 397.474, 317.556 397.474, 327.556 397.474, 337.556 397.474, 347.556 397.474, 357.556 397.474, 367.556 397.474, 377.556 397.474, 387.556 397.474, 392.234 397.474, 402.234 397.474, 412.234 397.474, 422.234 397.474, 432.234 397.474, 442.234 397.474, 452.234 397.474, 462.234 397.474, 472.234 397.474, 482.234 397.474, 492.234 397.474, 502.234 397.474, 512.234 397.474, 522.234 397.474, 526.971 " />
            <path fill="none" stroke-width="1.5" stroke-linecap="round" stroke-opacity="1.0" stroke="rgb(0, 0, 0)" stroke-linejoin="round" d=" M 370.526, 227.556 370.526, 227.556 " />
            <path fill="none" stroke-width="1.5" stroke-linecap="round" stroke-opacity="1.0" stroke="rgb(0, 0, 0)" stroke-linejoin="round" d=" M 413.470, 796.445 413.470, 786.445 413.470, 776.445 413.470, 766.445 413.470, 756.444 413.470, 746.445 413.470, 736.444 413.470, 726.444 413.470, 716.444 413.470, 706.444 413.470, 696.444 413.470, 686.444 413.470, 676.444 413.470, 666.444 413.470, 661.708 413.470, 661.708 " />
            <path fill="none" stroke-width="1.5" stroke-linecap="round" stroke-opacity="1.0" stroke="rgb(0, 0, 0)" stroke-linejoin="round" d=" M 653.474, 796.445 653.474, 786.445 653.474, 776.445 653.474, 766.445 653.474, 756.444 653.474, 746.445 653.474, 736.444 653.474, 726.444 653.474, 716.444 653.474, 706.444 653.474, 696.444 653.474, 686.444 653.474, 676.444 653.474, 666.444 653.474, 661.708 653.474, 661.708 653.474, 651.708 653.474, 641.708 653.474, 631.708 653.474, 621.708 653.474, 611.708 653.474, 601.708 653.474, 591.708 653.474, 581.708 653.474, 571.708 653.474, 561.708 653.474, 551.708 653.474, 541.708 653.474, 531.708 653.474, 526.971 " />
            <path fill="none" stroke-width="1.5" stroke-linecap="round" stroke-opacity="1.0" stroke="rgb(0, 0, 0)" stroke-linejoin="round" d=" M 413.470, 661.708 423.470, 661.708 433.470, 661.708 443.470, 661.708 453.470, 661.708 463.470, 661.708 473.470, 661.708 483.470, 661.708 493.470, 661.708 503.470, 661.708 513.470, 661.708 523.470, 661.708 533.470, 661.708 543.470, 661.708 553.470, 661.708 563.470, 661.708 573.470, 661.708 583.470, 661.708 593.470, 661.708 603.470, 661.708 613.470, 661.708 624.004, 661.708 " />
            <path fill="none" stroke-width="1.5" stroke-linecap="round" stroke-opacity="1.0" stroke="rgb(0, 0, 0)" stroke-linejoin="round" d=" M 653.474, 661.708 653.474, 661.708 " />
        </g>
    </g>
</svg>
