<?xml version='1.0' encoding='ascii'?>
<svg xmlns="http://www.w3.org/2000/svg" xmlns:inkscape="http://www.inkscape.org/namespaces/inkscape" version="1.1" width="1024" height="1024">
    <g id="ViewLayer_LineSet" inkscape:groupmode="lineset" inkscape:label="ViewLayer_LineSet">
        <g inkscape:groupmode="layer" id="strokes" inkscape:label="strokes">
            <path fill="none" stroke-width="3.0" stroke-linecap="butt" stroke-opacity="1.0" stroke="rgb(0, 0, 0)" stroke-linejoin="round" d=" M 739.556, 796.444 739.556, 786.444 739.556, 776.444 739.556, 766.444 739.556, 756.444 739.556, 746.444 739.556, 736.444 739.556, 726.444 739.556, 716.444 739.556, 706.444 739.556, 696.444 739.556, 686.444 739.556, 682.667 " />
            <path fill="none" stroke-width="3.0" stroke-linecap="butt" stroke-opacity="1.0" stroke="rgb(0, 0, 0)" stroke-linejoin="round" d=" M 739.556, 303.407 729.556, 303.407 724.385, 303.407 724.385, 313.407 724.385, 323.407 724.385, 333.407 724.385, 343.407 724.385, 353.407 724.385, 363.407 724.385, 373.407 724.385, 383.407 724.385, 393.407 724.385, 403.407 724.385, 413.407 724.385, 423.407 724.385, 433.407 724.385, 443.407 724.385, 453.407 724.385, 463.407 724.385, 473.407 724.385, 483.407 724.385, 493.407 724.385, 503.407 724.385, 513.407 724.385, 523.407 724.385, 533.407 724.385, 543.407 724.385, 553.407 724.385, 563.407 724.385, 568.889 " />
            <path fill="none" stroke-width="3.0" stroke-linecap="butt" stroke-opacity="1.0" stroke="rgb(0, 0, 0)" stroke-linejoin="round" d=" M 739.556, 606.815 749.556, 606.815 754.726, 606.815 754.726, 596.815 754.726, 586.815 754.726, 576.815 754.726, 566.815 754.726, 556.815 754.726, 546.815 754.726, 536.815 754.726, 526.815 754.726, 516.815 754.726, 506.815 754.726, 496.815 754.726, 486.815 754.726, 476.815 754.726, 466.815 754.726, 456.815 754.726, 446.815 754.726, 436.815 754.726, 426.815 754.726, 416.815 754.726, 406.815 754.726, 396.815 754.726, 386.815 754.726, 376.815 754.726, 366.815 754.726, 356.815 754.726, 346.815 754.726, 336.815 754.726, 326.815 754.726, 316.815 754.726, 306.815 754.726, 303.407 744.726, 303.407 739.556, 303.407 " />
            <path fill="none" stroke-width="3.0" stroke-linecap="butt" stroke-opacity="1.0" stroke="rgb(0, 0, 0)" stroke-linejoin="round" d=" M 269.274, 303.407 269.274, 313.407 269.274, 323.407 269.274, 333.407 269.274, 343.407 269.274, 353.407 269.274, 363.407 269.274, 373.407 269.274, 383.407 269.274, 393.407 269.274, 403.407 269.274, 413.407 269.274, 423.407 269.274, 433.407 269.274, 443.407 269.274, 453.407 269.274, 463.407 269.274, 473.407 269.274, 483.407 269.274, 493.407 269.274, 503.407 269.274, 513.407 269.274, 523.407 269.274, 533.407 269.274, 543.407 269.274, 553.407 269.274, 563.407 269.274, 573.407 269.274, 583.407 269.274, 593.407 269.274, 603.407 269.274, 606.815 " />
            <path fill="none" stroke-width="3.0" stroke-linecap="butt" stroke-opacity="1.0" stroke="rgb(0, 0, 0)" stroke-linejoin="round" d=" M 284.444, 682.667 284.444, 692.667 284.444, 702.667 284.444, 712.667 284.444, 722.667 284.444, 732.667 284.444, 742.667 284.444, 752.667 284.444, 762.667 284.444, 772.667 284.444, 782.667 284.444, 792.667 284.444, 796.444 " />
            <path fill="none" stroke-width="3.0" stroke-linecap="butt" stroke-opacity="1.0" stroke="rgb(0, 0, 0)" stroke-linejoin="round" d=" M 284.444, 606.815 284.444, 616.815 284.444, 626.815 284.444, 636.815 284.444, 646.815 284.444, 656.815 284.444, 666.815 284.444, 676.815 284.444, 682.667 " />
            <path fill="none" stroke-width="3.0" stroke-linecap="butt" stroke-opacity="1.0" stroke="rgb(0, 0, 0)" stroke-linejoin="round" d=" M 284.444, 568.889 284.444, 578.889 284.444, 588.889 284.444, 598.889 284.444, 606.815 " />
            <path fill="none" stroke-width="3.0" stroke-linecap="butt" stroke-opacity="1.0" stroke="rgb(0, 0, 0)" stroke-linejoin="round" d=" M 284.444, 227.556 284.444, 237.556 284.444, 247.556 284.444, 257.556 284.444, 267.556 284.444, 277.556 284.444, 287.556 284.444, 297.556 284.444, 303.407 " />
            <path fill="none" stroke-width="3.0" stroke-linecap="butt" stroke-opacity="1.0" stroke="rgb(0, 0, 0)" stroke-linejoin="round" d=" M 269.274, 606.815 279.274, 606.815 284.444, 606.815 " />
            <path fill="none" stroke-width="3.0" stroke-linecap="butt" stroke-opacity="1.0" stroke="rgb(0, 0, 0)" stroke-linejoin="round" d=" M 284.444, 303.407 274.444, 303.407 269.274, 303.407 " />
            <path fill="none" stroke-width="3.0" stroke-linecap="butt" stroke-opacity="1.0" stroke="rgb(0, 0, 0)" stroke-linejoin="round" d=" M 299.615, 303.407 289.615, 303.407 284.444, 303.407 " />
            <path fill="none" stroke-width="3.0" stroke-linecap="butt" stroke-opacity="1.0" stroke="rgb(0, 0, 0)" stroke-linejoin="round" d=" M 299.615, 568.889 299.615, 558.889 299.615, 548.889 299.615, 538.889 299.615, 528.889 299.615, 518.889 299.615, 508.889 299.615, 498.889 299.615, 488.889 299.615, 478.889 299.615, 468.889 299.615, 458.889 299.615, 448.889 299.615, 438.889 299.615, 428.889 299.615, 418.889 299.615, 408.889 299.615, 398.889 299.615, 388.889 299.615, 378.889 299.615, 368.889 299.615, 358.889 299.615, 348.889 299.615, 338.889 299.615, 328.889 299.615, 318.889 299.615, 308.889 299.615, 303.407 " />
            <path fill="none" stroke-width="3.0" stroke-linecap="butt" stroke-opacity="1.0" stroke="rgb(0, 0, 0)" stroke-linejoin="round" d=" M 284.444, 796.444 294.444, 796.444 304.444, 796.444 314.444, 796.444 324.444, 796.444 334.444, 796.444 344.444, 796.444 354.444, 796.444 364.444, 796.444 374.444, 796.444 384.444, 796.444 394.444, 796.444 404.444, 796.444 414.444, 796.444 424.444, 796.444 434.444, 796.444 444.444, 796.444 454.444, 796.444 464.444, 796.444 474.444, 796.444 484.444, 796.444 494.444, 796.444 504.444, 796.444 514.444, 796.444 524.444, 796.444 534.444, 796.444 544.444, 796.444 554.444, 796.444 564.444, 796.444 574.444, 796.444 584.444, 796.444 594.444, 796.444 604.444, 796.444 614.444, 796.444 624.444, 796.444 634.444, 796.444 644.444, 796.444 654.444, 796.444 664.444, 796.444 674.444, 796.444 684.444, 796.444 694.444, 796.444 704.444, 796.444 714.444, 796.444 724.444, 796.444 734.444, 796.444 739.556, 796.444 " />
            <path fill="none" stroke-width="3.0" stroke-linecap="butt" stroke-opacity="1.0" stroke="rgb(0, 0, 0)" stroke-linejoin="round" d=" M 299.615, 568.889 289.615, 568.889 284.444, 568.889 " />
            <path fill="none" stroke-width="3.0" stroke-linecap="butt" stroke-opacity="1.0" stroke="rgb(0, 0, 0)" stroke-linejoin="round" d=" M 724.385, 568.889 714.385, 568.889 704.385, 568.889 694.385, 568.889 684.385, 568.889 674.385, 568.889 664.385, 568.889 654.385, 568.889 644.385, 568.889 634.385, 568.889 624.385, 568.889 614.385, 568.889 604.385, 568.889 594.385, 568.889 584.385, 568.889 574.385, 568.889 564.385, 568.889 554.385, 568.889 544.385, 568.889 534.385, 568.889 524.385, 568.889 514.385, 568.889 504.385, 568.889 494.385, 568.889 484.385, 568.889 474.385, 568.889 464.385, 568.889 454.385, 568.889 444.385, 568.889 434.385, 568.889 424.385, 568.889 414.385, 568.889 404.385, 568.889 394.385, 568.889 384.385, 568.889 374.385, 568.889 364.385, 568.889 354.385, 568.889 344.385, 568.889 334.385, 568.889 324.385, 568.889 314.385, 568.889 304.385, 568.889 299.615, 568.889 " />
            <path fill="none" stroke-width="3.0" stroke-linecap="butt" stroke-opacity="1.0" stroke="rgb(0, 0, 0)" stroke-linejoin="round" d=" M 739.556, 568.889 729.556, 568.889 724.385, 568.889 " />
            <path fill="none" stroke-width="3.0" stroke-linecap="butt" stroke-opacity="1.0" stroke="rgb(0, 0, 0)" stroke-linejoin="round" d=" M 739.556, 606.815 739.556, 596.815 739.556, 586.815 739.556, 576.815 739.556, 568.889 " />
            <path fill="none" stroke-width="3.0" stroke-linecap="butt" stroke-opacity="1.0" stroke="rgb(0, 0, 0)" stroke-linejoin="round" d=" M 739.556, 682.667 739.556, 672.667 739.556, 662.667 739.556, 652.667 739.556, 642.667 739.556, 632.667 739.556, 622.667 739.556, 612.667 739.556, 606.815 " />
            <path fill="none" stroke-width="3.0" stroke-linecap="butt" stroke-opacity="1.0" stroke="rgb(0, 0, 0)" stroke-linejoin="round" d=" M 739.556, 227.556 729.556, 227.556 719.556, 227.556 709.556, 227.556 699.556, 227.556 689.556, 227.556 679.556, 227.556 669.556, 227.556 659.556, 227.556 649.556, 227.556 639.556, 227.556 629.556, 227.556 619.556, 227.556 609.556, 227.556 599.556, 227.556 589.556, 227.556 579.556, 227.556 569.556, 227.556 559.556, 227.556 549.556, 227.556 539.556, 227.556 529.556, 227.556 519.556, 227.556 509.556, 227.556 499.556, 227.556 489.556, 227.556 479.556, 227.556 469.556, 227.556 459.556, 227.556 449.556, 227.556 439.556, 227.556 429.556, 227.556 419.556, 227.556 409.556, 227.556 399.556, 227.556 389.556, 227.556 379.556, 227.556 369.556, 227.556 359.556, 227.556 349.556, 227.556 339.556, 227.556 329.556, 227.556 319.556, 227.556 309.556, 227.556 299.556, 227.556 289.556, 227.556 284.444, 227.556 " />
            <path fill="none" stroke-width="3.0" stroke-linecap="butt" stroke-opacity="1.0" stroke="rgb(0, 0, 0)" stroke-linejoin="round" d=" M 739.556, 303.407 739.556, 293.407 739.556, 283.407 739.556, 273.407 739.556, 263.407 739.556, 253.407 739.556, 243.407 739.556, 233.407 739.556, 227.556 " />
        </g>
    </g>
    <g id="ViewLayer_TechnicalLines" inkscape:groupmode="lineset" inkscape:label="ViewLayer_TechnicalLines">
        <g inkscape:groupmode="layer" id="strokes" inkscape:label="strokes">
            <path fill="none" stroke-width="3.0" stroke-linecap="butt" stroke-opacity="1.0" stroke="rgb(0, 0, 0)" stroke-linejoin="round" d=" M 739.556, 796.444 739.556, 786.444 739.556, 776.444 739.556, 766.444 739.556, 756.444 739.556, 746.444 739.556, 736.444 739.556, 726.444 739.556, 716.444 739.556, 706.444 739.556, 696.444 739.556, 686.444 739.556, 682.667 " />
            <path fill="none" stroke-width="3.0" stroke-linecap="butt" stroke-opacity="1.0" stroke="rgb(0, 0, 0)" stroke-linejoin="round" d=" M 739.556, 303.407 729.556, 303.407 724.385, 303.407 724.385, 313.407 724.385, 323.407 724.385, 333.407 724.385, 343.407 724.385, 353.407 724.385, 363.407 724.385, 373.407 724.385, 383.407 724.385, 393.407 724.385, 403.407 724.385, 413.407 724.385, 423.407 724.385, 433.407 724.385, 443.407 724.385, 453.407 724.385, 463.407 724.385, 473.407 724.385, 483.407 724.385, 493.407 724.385, 503.407 724.385, 513.407 724.385, 523.407 724.385, 533.407 724.385, 543.407 724.385, 553.407 724.385, 563.407 724.385, 568.889 " />
            <path fill="none" stroke-width="3.0" stroke-linecap="butt" stroke-opacity="1.0" stroke="rgb(0, 0, 0)" stroke-linejoin="round" d=" M 739.556, 606.815 749.556, 606.815 754.726, 606.815 754.726, 596.815 754.726, 586.815 754.726, 576.815 754.726, 566.815 754.726, 556.815 754.726, 546.815 754.726, 536.815 754.726, 526.815 754.726, 516.815 754.726, 506.815 754.726, 496.815 754.726, 486.815 754.726, 476.815 754.726, 466.815 754.726, 456.815 754.726, 446.815 754.726, 436.815 754.726, 426.815 754.726, 416.815 754.726, 406.815 754.726, 396.815 754.726, 386.815 754.726, 376.815 754.726, 366.815 754.726, 356.815 754.726, 346.815 754.726, 336.815 754.726, 326.815 754.726, 316.815 754.726, 306.815 754.726, 303.407 744.726, 303.407 739.556, 303.407 " />
            <path fill="none" stroke-width="3.0" stroke-linecap="butt" stroke-opacity="1.0" stroke="rgb(0, 0, 0)" stroke-linejoin="round" d=" M 269.274, 303.407 269.274, 313.407 269.274, 323.407 269.274, 333.407 269.274, 343.407 269.274, 353.407 269.274, 363.407 269.274, 373.407 269.274, 383.407 269.274, 393.407 269.274, 403.407 269.274, 413.407 269.274, 423.407 269.274, 433.407 269.274, 443.407 269.274, 453.407 269.274, 463.407 269.274, 473.407 269.274, 483.407 269.274, 493.407 269.274, 503.407 269.274, 513.407 269.274, 523.407 269.274, 533.407 269.274, 543.407 269.274, 553.407 269.274, 563.407 269.274, 573.407 269.274, 583.407 269.274, 593.407 269.274, 603.407 269.274, 606.815 " />
            <path fill="none" stroke-width="3.0" stroke-linecap="butt" stroke-opacity="1.0" stroke="rgb(0, 0, 0)" stroke-linejoin="round" d=" M 284.444, 682.667 284.444, 692.667 284.444, 702.667 284.444, 712.667 284.444, 722.667 284.444, 732.667 284.444, 742.667 284.444, 752.667 284.444, 762.667 284.444, 772.667 284.444, 782.667 284.444, 792.667 284.444, 796.444 " />
            <path fill="none" stroke-width="3.0" stroke-linecap="butt" stroke-opacity="1.0" stroke="rgb(0, 0, 0)" stroke-linejoin="round" d=" M 284.444, 606.815 284.444, 616.815 284.444, 626.815 284.444, 636.815 284.444, 646.815 284.444, 656.815 284.444, 666.815 284.444, 676.815 284.444, 682.667 " />
            <path fill="none" stroke-width="3.0" stroke-linecap="butt" stroke-opacity="1.0" stroke="rgb(0, 0, 0)" stroke-linejoin="round" d=" M 284.444, 568.889 284.444, 578.889 284.444, 588.889 284.444, 598.889 284.444, 606.815 " />
            <path fill="none" stroke-width="3.0" stroke-linecap="butt" stroke-opacity="1.0" stroke="rgb(0, 0, 0)" stroke-linejoin="round" d=" M 284.444, 227.556 284.444, 237.556 284.444, 247.556 284.444, 257.556 284.444, 267.556 284.444, 277.556 284.444, 287.556 284.444, 297.556 284.444, 303.407 " />
            <path fill="none" stroke-width="3.0" stroke-linecap="butt" stroke-opacity="1.0" stroke="rgb(0, 0, 0)" stroke-linejoin="round" d=" M 269.274, 606.815 279.274, 606.815 284.444, 606.815 " />
            <path fill="none" stroke-width="3.0" stroke-linecap="butt" stroke-opacity="1.0" stroke="rgb(0, 0, 0)" stroke-linejoin="round" d=" M 284.444, 303.407 274.444, 303.407 269.274, 303.407 " />
            <path fill="none" stroke-width="3.0" stroke-linecap="butt" stroke-opacity="1.0" stroke="rgb(0, 0, 0)" stroke-linejoin="round" d=" M 299.615, 303.407 289.615, 303.407 284.444, 303.407 " />
            <path fill="none" stroke-width="3.0" stroke-linecap="butt" stroke-opacity="1.0" stroke="rgb(0, 0, 0)" stroke-linejoin="round" d=" M 299.615, 568.889 299.615, 558.889 299.615, 548.889 299.615, 538.889 299.615, 528.889 299.615, 518.889 299.615, 508.889 299.615, 498.889 299.615, 488.889 299.615, 478.889 299.615, 468.889 299.615, 458.889 299.615, 448.889 299.615, 438.889 299.615, 428.889 299.615, 418.889 299.615, 408.889 299.615, 398.889 299.615, 388.889 299.615, 378.889 299.615, 368.889 299.615, 358.889 299.615, 348.889 299.615, 338.889 299.615, 328.889 299.615, 318.889 299.615, 308.889 299.615, 303.407 " />
            <path fill="none" stroke-width="3.0" stroke-linecap="butt" stroke-opacity="1.0" stroke="rgb(0, 0, 0)" stroke-linejoin="round" d=" M 284.444, 796.444 294.444, 796.444 304.444, 796.444 314.444, 796.444 324.444, 796.444 334.444, 796.444 344.444, 796.444 354.444, 796.444 364.444, 796.444 374.444, 796.444 384.444, 796.444 394.444, 796.444 404.444, 796.444 414.444, 796.444 424.444, 796.444 434.444, 796.444 444.444, 796.444 454.444, 796.444 464.444, 796.444 474.444, 796.444 484.444, 796.444 494.444, 796.444 504.444, 796.444 514.444, 796.444 524.444, 796.444 534.444, 796.444 544.444, 796.444 554.444, 796.444 564.444, 796.444 574.444, 796.444 584.444, 796.444 594.444, 796.444 604.444, 796.444 614.444, 796.444 624.444, 796.444 634.444, 796.444 644.444, 796.444 654.444, 796.444 664.444, 796.444 674.444, 796.444 684.444, 796.444 694.444, 796.444 704.444, 796.444 714.444, 796.444 724.444, 796.444 734.444, 796.444 739.556, 796.444 " />
            <path fill="none" stroke-width="3.0" stroke-linecap="butt" stroke-opacity="1.0" stroke="rgb(0, 0, 0)" stroke-linejoin="round" d=" M 299.615, 568.889 289.615, 568.889 284.444, 568.889 " />
            <path fill="none" stroke-width="3.0" stroke-linecap="butt" stroke-opacity="1.0" stroke="rgb(0, 0, 0)" stroke-linejoin="round" d=" M 724.385, 568.889 714.385, 568.889 704.385, 568.889 694.385, 568.889 684.385, 568.889 674.385, 568.889 664.385, 568.889 654.385, 568.889 644.385, 568.889 634.385, 568.889 624.385, 568.889 614.385, 568.889 604.385, 568.889 594.385, 568.889 584.385, 568.889 574.385, 568.889 564.385, 568.889 554.385, 568.889 544.385, 568.889 534.385, 568.889 524.385, 568.889 514.385, 568.889 504.385, 568.889 494.385, 568.889 484.385, 568.889 474.385, 568.889 464.385, 568.889 454.385, 568.889 444.385, 568.889 434.385, 568.889 424.385, 568.889 414.385, 568.889 404.385, 568.889 394.385, 568.889 384.385, 568.889 374.385, 568.889 364.385, 568.889 354.385, 568.889 344.385, 568.889 334.385, 568.889 324.385, 568.889 314.385, 568.889 304.385, 568.889 299.615, 568.889 " />
            <path fill="none" stroke-width="3.0" stroke-linecap="butt" stroke-opacity="1.0" stroke="rgb(0, 0, 0)" stroke-linejoin="round" d=" M 739.556, 568.889 729.556, 568.889 724.385, 568.889 " />
            <path fill="none" stroke-width="3.0" stroke-linecap="butt" stroke-opacity="1.0" stroke="rgb(0, 0, 0)" stroke-linejoin="round" d=" M 739.556, 606.815 739.556, 596.815 739.556, 586.815 739.556, 576.815 739.556, 568.889 " />
            <path fill="none" stroke-width="3.0" stroke-linecap="butt" stroke-opacity="1.0" stroke="rgb(0, 0, 0)" stroke-linejoin="round" d=" M 739.556, 682.667 739.556, 672.667 739.556, 662.667 739.556, 652.667 739.556, 642.667 739.556, 632.667 739.556, 622.667 739.556, 612.667 739.556, 606.815 " />
            <path fill="none" stroke-width="3.0" stroke-linecap="butt" stroke-opacity="1.0" stroke="rgb(0, 0, 0)" stroke-linejoin="round" d=" M 739.556, 227.556 729.556, 227.556 719.556, 227.556 709.556, 227.556 699.556, 227.556 689.556, 227.556 679.556, 227.556 669.556, 227.556 659.556, 227.556 649.556, 227.556 639.556, 227.556 629.556, 227.556 619.556, 227.556 609.556, 227.556 599.556, 227.556 589.556, 227.556 579.556, 227.556 569.556, 227.556 559.556, 227.556 549.556, 227.556 539.556, 227.556 529.556, 227.556 519.556, 227.556 509.556, 227.556 499.556, 227.556 489.556, 227.556 479.556, 227.556 469.556, 227.556 459.556, 227.556 449.556, 227.556 439.556, 227.556 429.556, 227.556 419.556, 227.556 409.556, 227.556 399.556, 227.556 389.556, 227.556 379.556, 227.556 369.556, 227.556 359.556, 227.556 349.556, 227.556 339.556, 227.556 329.556, 227.556 319.556, 227.556 309.556, 227.556 299.556, 227.556 289.556, 227.556 284.444, 227.556 " />
            <path fill="none" stroke-width="3.0" stroke-linecap="butt" stroke-opacity="1.0" stroke="rgb(0, 0, 0)" stroke-linejoin="round" d=" M 739.556, 303.407 739.556, 293.407 739.556, 283.407 739.556, 273.407 739.556, 263.407 739.556, 253.407 739.556, 243.407 739.556, 233.407 739.556, 227.556 " />
        </g>
    </g>
    <g id="ViewLayer_TechnicalLines.001" inkscape:groupmode="lineset" inkscape:label="ViewLayer_TechnicalLines.001">
        <g inkscape:groupmode="layer" id="strokes" inkscape:label="strokes">
            <path fill="none" stroke-width="1.5" stroke-linecap="round" stroke-opacity="1.0" stroke="rgb(0, 0, 0)" stroke-linejoin="round" d=" M 739.556, 796.444 739.556, 786.444 739.556, 776.444 739.556, 766.444 739.556, 756.444 739.556, 746.444 739.556, 736.444 739.556, 726.444 739.556, 716.444 739.556, 706.444 739.556, 696.444 739.556, 686.444 739.556, 682.667 " />
            <path fill="none" stroke-width="1.5" stroke-linecap="round" stroke-opacity="1.0" stroke="rgb(0, 0, 0)" stroke-linejoin="round" d=" M 739.556, 303.407 729.556, 303.407 724.385, 303.407 724.385, 313.407 724.385, 323.407 724.385, 333.407 724.385, 343.407 724.385, 353.407 724.385, 363.407 724.385, 373.407 724.385, 383.407 724.385, 393.407 724.385, 403.407 724.385, 413.407 724.385, 423.407 724.385, 433.407 724.385, 443.407 724.385, 453.407 724.385, 463.407 724.385, 473.407 724.385, 483.407 724.385, 493.407 724.385, 503.407 724.385, 513.407 724.385, 523.407 724.385, 533.407 724.385, 543.407 724.385, 553.407 724.385, 563.407 724.385, 568.889 " />
            <path fill="none" stroke-width="1.5" stroke-linecap="round" stroke-opacity="1.0" stroke="rgb(0, 0, 0)" stroke-linejoin="round" d=" M 739.556, 606.815 749.556, 606.815 754.726, 606.815 754.726, 596.815 754.726, 586.815 754.726, 576.815 754.726, 566.815 754.726, 556.815 754.726, 546.815 754.726, 536.815 754.726, 526.815 754.726, 516.815 754.726, 506.815 754.726, 496.815 754.726, 486.815 754.726, 476.815 754.726, 466.815 754.726, 456.815 754.726, 446.815 754.726, 436.815 754.726, 426.815 754.726, 416.815 754.726, 406.815 754.726, 396.815 754.726, 386.815 754.726, 376.815 754.726, 366.815 754.726, 356.815 754.726, 346.815 754.726, 336.815 754.726, 326.815 754.726, 316.815 754.726, 306.815 754.726, 303.407 744.726, 303.407 739.556, 303.407 " />
            <path fill="none" stroke-width="1.5" stroke-linecap="round" stroke-opacity="1.0" stroke="rgb(0, 0, 0)" stroke-linejoin="round" d=" M 269.274, 303.407 269.274, 313.407 269.274, 323.407 269.274, 333.407 269.274, 343.407 269.274, 353.407 269.274, 363.407 269.274, 373.407 269.274, 383.407 269.274, 393.407 269.274, 403.407 269.274, 413.407 269.274, 423.407 269.274, 433.407 269.274, 443.407 269.274, 453.407 269.274, 463.407 269.274, 473.407 269.274, 483.407 269.274, 493.407 269.274, 503.407 269.274, 513.407 269.274, 523.407 269.274, 533.407 269.274, 543.407 269.274, 553.407 269.274, 563.407 269.274, 573.407 269.274, 583.407 269.274, 593.407 269.274, 603.407 269.274, 606.815 " />
            <path fill="none" stroke-width="1.5" stroke-linecap="round" stroke-opacity="1.0" stroke="rgb(0, 0, 0)" stroke-linejoin="round" d=" M 284.444, 682.667 284.444, 692.667 284.444, 702.667 284.444, 712.667 284.444, 722.667 284.444, 732.667 284.444, 742.667 284.444, 752.667 284.444, 762.667 284.444, 772.667 284.444, 782.667 284.444, 792.667 284.444, 796.444 " />
            <path fill="none" stroke-width="1.5" stroke-linecap="round" stroke-opacity="1.0" stroke="rgb(0, 0, 0)" stroke-linejoin="round" d=" M 284.444, 606.815 284.444, 616.815 284.444, 626.815 284.444, 636.815 284.444, 646.815 284.444, 656.815 284.444, 666.815 284.444, 676.815 284.444, 682.667 " />
            <path fill="none" stroke-width="1.5" stroke-linecap="round" stroke-opacity="1.0" stroke="rgb(0, 0, 0)" stroke-linejoin="round" d=" M 284.444, 568.889 284.444, 578.889 284.444, 588.889 284.444, 598.889 284.444, 606.815 " />
            <path fill="none" stroke-width="1.5" stroke-linecap="round" stroke-opacity="1.0" stroke="rgb(0, 0, 0)" stroke-linejoin="round" d=" M 284.444, 227.556 284.444, 237.556 284.444, 247.556 284.444, 257.556 284.444, 267.556 284.444, 277.556 284.444, 287.556 284.444, 297.556 284.444, 303.407 " />
            <path fill="none" stroke-width="1.5" stroke-linecap="round" stroke-opacity="1.0" stroke="rgb(0, 0, 0)" stroke-linejoin="round" d=" M 269.274, 606.815 279.274, 606.815 284.444, 606.815 " />
            <path fill="none" stroke-width="1.5" stroke-linecap="round" stroke-opacity="1.0" stroke="rgb(0, 0, 0)" stroke-linejoin="round" d=" M 284.444, 303.407 274.444, 303.407 269.274, 303.407 " />
            <path fill="none" stroke-width="1.5" stroke-linecap="round" stroke-opacity="1.0" stroke="rgb(0, 0, 0)" stroke-linejoin="round" d=" M 299.615, 303.407 289.615, 303.407 284.444, 303.407 " />
            <path fill="none" stroke-width="1.5" stroke-linecap="round" stroke-opacity="1.0" stroke="rgb(0, 0, 0)" stroke-linejoin="round" d=" M 299.615, 568.889 299.615, 558.889 299.615, 548.889 299.615, 538.889 299.615, 528.889 299.615, 518.889 299.615, 508.889 299.615, 498.889 299.615, 488.889 299.615, 478.889 299.615, 468.889 299.615, 458.889 299.615, 448.889 299.615, 438.889 299.615, 428.889 299.615, 418.889 299.615, 408.889 299.615, 398.889 299.615, 388.889 299.615, 378.889 299.615, 368.889 299.615, 358.889 299.615, 348.889 299.615, 338.889 299.615, 328.889 299.615, 318.889 299.615, 308.889 299.615, 303.407 " />
            <path fill="none" stroke-width="1.5" stroke-linecap="round" stroke-opacity="1.0" stroke="rgb(0, 0, 0)" stroke-linejoin="round" d=" M 284.444, 796.444 294.444, 796.444 304.444, 796.444 314.444, 796.444 324.444, 796.444 334.444, 796.444 344.444, 796.444 354.444, 796.444 364.444, 796.444 374.444, 796.444 384.444, 796.444 394.444, 796.444 404.444, 796.444 414.444, 796.444 424.444, 796.444 434.444, 796.444 444.444, 796.444 454.444, 796.444 464.444, 796.444 474.444, 796.444 484.444, 796.444 494.444, 796.444 504.444, 796.444 514.444, 796.444 524.444, 796.444 534.444, 796.444 544.444, 796.444 554.444, 796.444 564.444, 796.444 574.444, 796.444 584.444, 796.444 594.444, 796.444 604.444, 796.444 614.444, 796.444 624.444, 796.444 634.444, 796.444 644.444, 796.444 654.444, 796.444 664.444, 796.444 674.444, 796.444 684.444, 796.444 694.444, 796.444 704.444, 796.444 714.444, 796.444 724.444, 796.444 734.444, 796.444 739.556, 796.444 " />
            <path fill="none" stroke-width="1.5" stroke-linecap="round" stroke-opacity="1.0" stroke="rgb(0, 0, 0)" stroke-linejoin="round" d=" M 299.615, 568.889 289.615, 568.889 284.444, 568.889 " />
            <path fill="none" stroke-width="1.5" stroke-linecap="round" stroke-opacity="1.0" stroke="rgb(0, 0, 0)" stroke-linejoin="round" d=" M 724.385, 568.889 714.385, 568.889 704.385, 568.889 694.385, 568.889 684.385, 568.889 674.385, 568.889 664.385, 568.889 654.385, 568.889 644.385, 568.889 634.385, 568.889 624.385, 568.889 614.385, 568.889 604.385, 568.889 594.385, 568.889 584.385, 568.889 574.385, 568.889 564.385, 568.889 554.385, 568.889 544.385, 568.889 534.385, 568.889 524.385, 568.889 514.385, 568.889 504.385, 568.889 494.385, 568.889 484.385, 568.889 474.385, 568.889 464.385, 568.889 454.385, 568.889 444.385, 568.889 434.385, 568.889 424.385, 568.889 414.385, 568.889 404.385, 568.889 394.385, 568.889 384.385, 568.889 374.385, 568.889 364.385, 568.889 354.385, 568.889 344.385, 568.889 334.385, 568.889 324.385, 568.889 314.385, 568.889 304.385, 568.889 299.615, 568.889 " />
            <path fill="none" stroke-width="1.5" stroke-linecap="round" stroke-opacity="1.0" stroke="rgb(0, 0, 0)" stroke-linejoin="round" d=" M 739.556, 568.889 729.556, 568.889 724.385, 568.889 " />
            <path fill="none" stroke-width="1.5" stroke-linecap="round" stroke-opacity="1.0" stroke="rgb(0, 0, 0)" stroke-linejoin="round" d=" M 739.556, 606.815 739.556, 596.815 739.556, 586.815 739.556, 576.815 739.556, 568.889 " />
            <path fill="none" stroke-width="1.5" stroke-linecap="round" stroke-opacity="1.0" stroke="rgb(0, 0, 0)" stroke-linejoin="round" d=" M 739.556, 682.667 739.556, 672.667 739.556, 662.667 739.556, 652.667 739.556, 642.667 739.556, 632.667 739.556, 622.667 739.556, 612.667 739.556, 606.815 " />
            <path fill="none" stroke-width="1.5" stroke-linecap="round" stroke-opacity="1.0" stroke="rgb(0, 0, 0)" stroke-linejoin="round" d=" M 739.556, 227.556 729.556, 227.556 719.556, 227.556 709.556, 227.556 699.556, 227.556 689.556, 227.556 679.556, 227.556 669.556, 227.556 659.556, 227.556 649.556, 227.556 639.556, 227.556 629.556, 227.556 619.556, 227.556 609.556, 227.556 599.556, 227.556 589.556, 227.556 579.556, 227.556 569.556, 227.556 559.556, 227.556 549.556, 227.556 539.556, 227.556 529.556, 227.556 519.556, 227.556 509.556, 227.556 499.556, 227.556 489.556, 227.556 479.556, 227.556 469.556, 227.556 459.556, 227.556 449.556, 227.556 439.556, 227.556 429.556, 227.556 419.556, 227.556 409.556, 227.556 399.556, 227.556 389.556, 227.556 379.556, 227.556 369.556, 227.556 359.556, 227.556 349.556, 227.556 339.556, 227.556 329.556, 227.556 319.556, 227.556 309.556, 227.556 299.556, 227.556 289.556, 227.556 284.444, 227.556 " />
            <path fill="none" stroke-width="1.5" stroke-linecap="round" stroke-opacity="1.0" stroke="rgb(0, 0, 0)" stroke-linejoin="round" d=" M 739.556, 303.407 739.556, 293.407 739.556, 283.407 739.556, 273.407 739.556, 263.407 739.556, 253.407 739.556, 243.407 739.556, 233.407 739.556, 227.556 " />
        </g>
    </g>
    <g id="ViewLayer_TechnicalLines.002" inkscape:groupmode="lineset" inkscape:label="ViewLayer_TechnicalLines.002">
        <g inkscape:groupmode="layer" id="strokes" inkscape:label="strokes">
            <path fill="none" stroke-width="1.5" stroke-linecap="round" stroke-opacity="1.0" stroke="rgb(0, 0, 0)" stroke-linejoin="round" d=" M 739.556, 796.444 739.556, 786.444 739.556, 776.444 739.556, 766.444 739.556, 756.444 739.556, 746.444 739.556, 736.444 739.556, 726.444 739.556, 716.444 739.556, 706.444 739.556, 696.444 739.556, 686.444 739.556, 682.667 " />
            <path fill="none" stroke-width="1.5" stroke-linecap="round" stroke-opacity="1.0" stroke="rgb(0, 0, 0)" stroke-linejoin="round" d=" M 739.556, 303.407 729.556, 303.407 724.385, 303.407 724.385, 313.407 724.385, 323.407 724.385, 333.407 724.385, 343.407 724.385, 353.407 724.385, 363.407 724.385, 373.407 724.385, 383.407 724.385, 393.407 724.385, 403.407 724.385, 413.407 724.385, 423.407 724.385, 433.407 724.385, 443.407 724.385, 453.407 724.385, 463.407 724.385, 473.407 724.385, 483.407 724.385, 493.407 724.385, 503.407 724.385, 513.407 724.385, 523.407 724.385, 533.407 724.385, 543.407 724.385, 553.407 724.385, 563.407 724.385, 568.889 " />
            <path fill="none" stroke-width="1.5" stroke-linecap="round" stroke-opacity="1.0" stroke="rgb(0, 0, 0)" stroke-linejoin="round" d=" M 739.556, 606.815 749.556, 606.815 754.726, 606.815 754.726, 596.815 754.726, 586.815 754.726, 576.815 754.726, 566.815 754.726, 556.815 754.726, 546.815 754.726, 536.815 754.726, 526.815 754.726, 516.815 754.726, 506.815 754.726, 496.815 754.726, 486.815 754.726, 476.815 754.726, 466.815 754.726, 456.815 754.726, 446.815 754.726, 436.815 754.726, 426.815 754.726, 416.815 754.726, 406.815 754.726, 396.815 754.726, 386.815 754.726, 376.815 754.726, 366.815 754.726, 356.815 754.726, 346.815 754.726, 336.815 754.726, 326.815 754.726, 316.815 754.726, 306.815 754.726, 303.407 744.726, 303.407 739.556, 303.407 " />
            <path fill="none" stroke-width="1.5" stroke-linecap="round" stroke-opacity="1.0" stroke="rgb(0, 0, 0)" stroke-linejoin="round" d=" M 269.274, 303.407 269.274, 313.407 269.274, 323.407 269.274, 333.407 269.274, 343.407 269.274, 353.407 269.274, 363.407 269.274, 373.407 269.274, 383.407 269.274, 393.407 269.274, 403.407 269.274, 413.407 269.274, 423.407 269.274, 433.407 269.274, 443.407 269.274, 453.407 269.274, 463.407 269.274, 473.407 269.274, 483.407 269.274, 493.407 269.274, 503.407 269.274, 513.407 269.274, 523.407 269.274, 533.407 269.274, 543.407 269.274, 553.407 269.274, 563.407 269.274, 573.407 269.274, 583.407 269.274, 593.407 269.274, 603.407 269.274, 606.815 " />
            <path fill="none" stroke-width="1.5" stroke-linecap="round" stroke-opacity="1.0" stroke="rgb(0, 0, 0)" stroke-linejoin="round" d=" M 284.444, 682.667 284.444, 692.667 284.444, 702.667 284.444, 712.667 284.444, 722.667 284.444, 732.667 284.444, 742.667 284.444, 752.667 284.444, 762.667 284.444, 772.667 284.444, 782.667 284.444, 792.667 284.444, 796.444 " />
            <path fill="none" stroke-width="1.5" stroke-linecap="round" stroke-opacity="1.0" stroke="rgb(0, 0, 0)" stroke-linejoin="round" d=" M 284.444, 606.815 284.444, 616.815 284.444, 626.815 284.444, 636.815 284.444, 646.815 284.444, 656.815 284.444, 666.815 284.444, 676.815 284.444, 682.667 " />
            <path fill="none" stroke-width="1.5" stroke-linecap="round" stroke-opacity="1.0" stroke="rgb(0, 0, 0)" stroke-linejoin="round" d=" M 284.444, 568.889 284.444, 578.889 284.444, 588.889 284.444, 598.889 284.444, 606.815 " />
            <path fill="none" stroke-width="1.5" stroke-linecap="round" stroke-opacity="1.0" stroke="rgb(0, 0, 0)" stroke-linejoin="round" d=" M 284.444, 227.556 284.444, 237.556 284.444, 247.556 284.444, 257.556 284.444, 267.556 284.444, 277.556 284.444, 287.556 284.444, 297.556 284.444, 303.407 " />
            <path fill="none" stroke-width="1.5" stroke-linecap="round" stroke-opacity="1.0" stroke="rgb(0, 0, 0)" stroke-linejoin="round" d=" M 269.274, 606.815 279.274, 606.815 284.444, 606.815 " />
            <path fill="none" stroke-width="1.5" stroke-linecap="round" stroke-opacity="1.0" stroke="rgb(0, 0, 0)" stroke-linejoin="round" d=" M 284.444, 303.407 274.444, 303.407 269.274, 303.407 " />
            <path fill="none" stroke-width="1.5" stroke-linecap="round" stroke-opacity="1.0" stroke="rgb(0, 0, 0)" stroke-linejoin="round" d=" M 299.615, 303.407 289.615, 303.407 284.444, 303.407 " />
            <path fill="none" stroke-width="1.5" stroke-linecap="round" stroke-opacity="1.0" stroke="rgb(0, 0, 0)" stroke-linejoin="round" d=" M 299.615, 568.889 299.615, 558.889 299.615, 548.889 299.615, 538.889 299.615, 528.889 299.615, 518.889 299.615, 508.889 299.615, 498.889 299.615, 488.889 299.615, 478.889 299.615, 468.889 299.615, 458.889 299.615, 448.889 299.615, 438.889 299.615, 428.889 299.615, 418.889 299.615, 408.889 299.615, 398.889 299.615, 388.889 299.615, 378.889 299.615, 368.889 299.615, 358.889 299.615, 348.889 299.615, 338.889 299.615, 328.889 299.615, 318.889 299.615, 308.889 299.615, 303.407 " />
            <path fill="none" stroke-width="1.5" stroke-linecap="round" stroke-opacity="1.0" stroke="rgb(0, 0, 0)" stroke-linejoin="round" d=" M 284.444, 796.444 294.444, 796.444 304.444, 796.444 314.444, 796.444 324.444, 796.444 334.444, 796.444 344.444, 796.444 354.444, 796.444 364.444, 796.444 374.444, 796.444 384.444, 796.444 394.444, 796.444 404.444, 796.444 414.444, 796.444 424.444, 796.444 434.444, 796.444 444.444, 796.444 454.444, 796.444 464.444, 796.444 474.444, 796.444 484.444, 796.444 494.444, 796.444 504.444, 796.444 514.444, 796.444 524.444, 796.444 534.444, 796.444 544.444, 796.444 554.444, 796.444 564.444, 796.444 574.444, 796.444 584.444, 796.444 594.444, 796.444 604.444, 796.444 614.444, 796.444 624.444, 796.444 634.444, 796.444 644.444, 796.444 654.444, 796.444 664.444, 796.444 674.444, 796.444 684.444, 796.444 694.444, 796.444 704.444, 796.444 714.444, 796.444 724.444, 796.444 734.444, 796.444 739.556, 796.444 " />
            <path fill="none" stroke-width="1.5" stroke-linecap="round" stroke-opacity="1.0" stroke="rgb(0, 0, 0)" stroke-linejoin="round" d=" M 299.615, 568.889 289.615, 568.889 284.444, 568.889 " />
            <path fill="none" stroke-width="1.5" stroke-linecap="round" stroke-opacity="1.0" stroke="rgb(0, 0, 0)" stroke-linejoin="round" d=" M 724.385, 568.889 714.385, 568.889 704.385, 568.889 694.385, 568.889 684.385, 568.889 674.385, 568.889 664.385, 568.889 654.385, 568.889 644.385, 568.889 634.385, 568.889 624.385, 568.889 614.385, 568.889 604.385, 568.889 594.385, 568.889 584.385, 568.889 574.385, 568.889 564.385, 568.889 554.385, 568.889 544.385, 568.889 534.385, 568.889 524.385, 568.889 514.385, 568.889 504.385, 568.889 494.385, 568.889 484.385, 568.889 474.385, 568.889 464.385, 568.889 454.385, 568.889 444.385, 568.889 434.385, 568.889 424.385, 568.889 414.385, 568.889 404.385, 568.889 394.385, 568.889 384.385, 568.889 374.385, 568.889 364.385, 568.889 354.385, 568.889 344.385, 568.889 334.385, 568.889 324.385, 568.889 314.385, 568.889 304.385, 568.889 299.615, 568.889 " />
            <path fill="none" stroke-width="1.5" stroke-linecap="round" stroke-opacity="1.0" stroke="rgb(0, 0, 0)" stroke-linejoin="round" d=" M 739.556, 568.889 729.556, 568.889 724.385, 568.889 " />
            <path fill="none" stroke-width="1.5" stroke-linecap="round" stroke-opacity="1.0" stroke="rgb(0, 0, 0)" stroke-linejoin="round" d=" M 739.556, 606.815 739.556, 596.815 739.556, 586.815 739.556, 576.815 739.556, 568.889 " />
            <path fill="none" stroke-width="1.5" stroke-linecap="round" stroke-opacity="1.0" stroke="rgb(0, 0, 0)" stroke-linejoin="round" d=" M 739.556, 682.667 739.556, 672.667 739.556, 662.667 739.556, 652.667 739.556, 642.667 739.556, 632.667 739.556, 622.667 739.556, 612.667 739.556, 606.815 " />
            <path fill="none" stroke-width="1.5" stroke-linecap="round" stroke-opacity="1.0" stroke="rgb(0, 0, 0)" stroke-linejoin="round" d=" M 739.556, 227.556 729.556, 227.556 719.556, 227.556 709.556, 227.556 699.556, 227.556 689.556, 227.556 679.556, 227.556 669.556, 227.556 659.556, 227.556 649.556, 227.556 639.556, 227.556 629.556, 227.556 619.556, 227.556 609.556, 227.556 599.556, 227.556 589.556, 227.556 579.556, 227.556 569.556, 227.556 559.556, 227.556 549.556, 227.556 539.556, 227.556 529.556, 227.556 519.556, 227.556 509.556, 227.556 499.556, 227.556 489.556, 227.556 479.556, 227.556 469.556, 227.556 459.556, 227.556 449.556, 227.556 439.556, 227.556 429.556, 227.556 419.556, 227.556 409.556, 227.556 399.556, 227.556 389.556, 227.556 379.556, 227.556 369.556, 227.556 359.556, 227.556 349.556, 227.556 339.556, 227.556 329.556, 227.556 319.556, 227.556 309.556, 227.556 299.556, 227.556 289.556, 227.556 284.444, 227.556 " />
            <path fill="none" stroke-width="1.5" stroke-linecap="round" stroke-opacity="1.0" stroke="rgb(0, 0, 0)" stroke-linejoin="round" d=" M 739.556, 303.407 739.556, 293.407 739.556, 283.407 739.556, 273.407 739.556, 263.407 739.556, 253.407 739.556, 243.407 739.556, 233.407 739.556, 227.556 " />
        </g>
    </g>
    <g id="ViewLayer_TechnicalLines.003" inkscape:groupmode="lineset" inkscape:label="ViewLayer_TechnicalLines.003">
        <g inkscape:groupmode="layer" id="strokes" inkscape:label="strokes">
            <path fill="none" stroke-width="1.5" stroke-linecap="round" stroke-opacity="1.0" stroke="rgb(0, 0, 0)" stroke-linejoin="round" d=" M 739.556, 796.444 739.556, 786.444 739.556, 776.444 739.556, 766.444 739.556, 756.444 739.556, 746.444 739.556, 736.444 739.556, 726.444 739.556, 716.444 739.556, 706.444 739.556, 696.444 739.556, 686.444 739.556, 682.667 " />
            <path fill="none" stroke-width="1.5" stroke-linecap="round" stroke-opacity="1.0" stroke="rgb(0, 0, 0)" stroke-linejoin="round" d=" M 739.556, 303.407 729.556, 303.407 724.385, 303.407 724.385, 313.407 724.385, 323.407 724.385, 333.407 724.385, 343.407 724.385, 353.407 724.385, 363.407 724.385, 373.407 724.385, 383.407 724.385, 393.407 724.385, 403.407 724.385, 413.407 724.385, 423.407 724.385, 433.407 724.385, 443.407 724.385, 453.407 724.385, 463.407 724.385, 473.407 724.385, 483.407 724.385, 493.407 724.385, 503.407 724.385, 513.407 724.385, 523.407 724.385, 533.407 724.385, 543.407 724.385, 553.407 724.385, 563.407 724.385, 568.889 " />
            <path fill="none" stroke-width="1.5" stroke-linecap="round" stroke-opacity="1.0" stroke="rgb(0, 0, 0)" stroke-linejoin="round" d=" M 739.556, 606.815 749.556, 606.815 754.726, 606.815 754.726, 596.815 754.726, 586.815 754.726, 576.815 754.726, 566.815 754.726, 556.815 754.726, 546.815 754.726, 536.815 754.726, 526.815 754.726, 516.815 754.726, 506.815 754.726, 496.815 754.726, 486.815 754.726, 476.815 754.726, 466.815 754.726, 456.815 754.726, 446.815 754.726, 436.815 754.726, 426.815 754.726, 416.815 754.726, 406.815 754.726, 396.815 754.726, 386.815 754.726, 376.815 754.726, 366.815 754.726, 356.815 754.726, 346.815 754.726, 336.815 754.726, 326.815 754.726, 316.815 754.726, 306.815 754.726, 303.407 744.726, 303.407 739.556, 303.407 " />
            <path fill="none" stroke-width="1.5" stroke-linecap="round" stroke-opacity="1.0" stroke="rgb(0, 0, 0)" stroke-linejoin="round" d=" M 269.274, 303.407 269.274, 313.407 269.274, 323.407 269.274, 333.407 269.274, 343.407 269.274, 353.407 269.274, 363.407 269.274, 373.407 269.274, 383.407 269.274, 393.407 269.274, 403.407 269.274, 413.407 269.274, 423.407 269.274, 433.407 269.274, 443.407 269.274, 453.407 269.274, 463.407 269.274, 473.407 269.274, 483.407 269.274, 493.407 269.274, 503.407 269.274, 513.407 269.274, 523.407 269.274, 533.407 269.274, 543.407 269.274, 553.407 269.274, 563.407 269.274, 573.407 269.274, 583.407 269.274, 593.407 269.274, 603.407 269.274, 606.815 " />
            <path fill="none" stroke-width="1.5" stroke-linecap="round" stroke-opacity="1.0" stroke="rgb(0, 0, 0)" stroke-linejoin="round" d=" M 284.444, 682.667 284.444, 692.667 284.444, 702.667 284.444, 712.667 284.444, 722.667 284.444, 732.667 284.444, 742.667 284.444, 752.667 284.444, 762.667 284.444, 772.667 284.444, 782.667 284.444, 792.667 284.444, 796.444 " />
            <path fill="none" stroke-width="1.5" stroke-linecap="round" stroke-opacity="1.0" stroke="rgb(0, 0, 0)" stroke-linejoin="round" d=" M 284.444, 606.815 284.444, 616.815 284.444, 626.815 284.444, 636.815 284.444, 646.815 284.444, 656.815 284.444, 666.815 284.444, 676.815 284.444, 682.667 " />
            <path fill="none" stroke-width="1.5" stroke-linecap="round" stroke-opacity="1.0" stroke="rgb(0, 0, 0)" stroke-linejoin="round" d=" M 284.444, 568.889 284.444, 578.889 284.444, 588.889 284.444, 598.889 284.444, 606.815 " />
            <path fill="none" stroke-width="1.5" stroke-linecap="round" stroke-opacity="1.0" stroke="rgb(0, 0, 0)" stroke-linejoin="round" d=" M 284.444, 227.556 284.444, 237.556 284.444, 247.556 284.444, 257.556 284.444, 267.556 284.444, 277.556 284.444, 287.556 284.444, 297.556 284.444, 303.407 " />
            <path fill="none" stroke-width="1.5" stroke-linecap="round" stroke-opacity="1.0" stroke="rgb(0, 0, 0)" stroke-linejoin="round" d=" M 269.274, 606.815 279.274, 606.815 284.444, 606.815 " />
            <path fill="none" stroke-width="1.5" stroke-linecap="round" stroke-opacity="1.0" stroke="rgb(0, 0, 0)" stroke-linejoin="round" d=" M 284.444, 303.407 274.444, 303.407 269.274, 303.407 " />
            <path fill="none" stroke-width="1.5" stroke-linecap="round" stroke-opacity="1.0" stroke="rgb(0, 0, 0)" stroke-linejoin="round" d=" M 299.615, 303.407 289.615, 303.407 284.444, 303.407 " />
            <path fill="none" stroke-width="1.5" stroke-linecap="round" stroke-opacity="1.0" stroke="rgb(0, 0, 0)" stroke-linejoin="round" d=" M 299.615, 568.889 299.615, 558.889 299.615, 548.889 299.615, 538.889 299.615, 528.889 299.615, 518.889 299.615, 508.889 299.615, 498.889 299.615, 488.889 299.615, 478.889 299.615, 468.889 299.615, 458.889 299.615, 448.889 299.615, 438.889 299.615, 428.889 299.615, 418.889 299.615, 408.889 299.615, 398.889 299.615, 388.889 299.615, 378.889 299.615, 368.889 299.615, 358.889 299.615, 348.889 299.615, 338.889 299.615, 328.889 299.615, 318.889 299.615, 308.889 299.615, 303.407 " />
            <path fill="none" stroke-width="1.5" stroke-linecap="round" stroke-opacity="1.0" stroke="rgb(0, 0, 0)" stroke-linejoin="round" d=" M 284.444, 796.444 294.444, 796.444 304.444, 796.444 314.444, 796.444 324.444, 796.444 334.444, 796.444 344.444, 796.444 354.444, 796.444 364.444, 796.444 374.444, 796.444 384.444, 796.444 394.444, 796.444 404.444, 796.444 414.444, 796.444 424.444, 796.444 434.444, 796.444 444.444, 796.444 454.444, 796.444 464.444, 796.444 474.444, 796.444 484.444, 796.444 494.444, 796.444 504.444, 796.444 514.444, 796.444 524.444, 796.444 534.444, 796.444 544.444, 796.444 554.444, 796.444 564.444, 796.444 574.444, 796.444 584.444, 796.444 594.444, 796.444 604.444, 796.444 614.444, 796.444 624.444, 796.444 634.444, 796.444 644.444, 796.444 654.444, 796.444 664.444, 796.444 674.444, 796.444 684.444, 796.444 694.444, 796.444 704.444, 796.444 714.444, 796.444 724.444, 796.444 734.444, 796.444 739.556, 796.444 " />
            <path fill="none" stroke-width="1.5" stroke-linecap="round" stroke-opacity="1.0" stroke="rgb(0, 0, 0)" stroke-linejoin="round" d=" M 299.615, 568.889 289.615, 568.889 284.444, 568.889 " />
            <path fill="none" stroke-width="1.5" stroke-linecap="round" stroke-opacity="1.0" stroke="rgb(0, 0, 0)" stroke-linejoin="round" d=" M 724.385, 568.889 714.385, 568.889 704.385, 568.889 694.385, 568.889 684.385, 568.889 674.385, 568.889 664.385, 568.889 654.385, 568.889 644.385, 568.889 634.385, 568.889 624.385, 568.889 614.385, 568.889 604.385, 568.889 594.385, 568.889 584.385, 568.889 574.385, 568.889 564.385, 568.889 554.385, 568.889 544.385, 568.889 534.385, 568.889 524.385, 568.889 514.385, 568.889 504.385, 568.889 494.385, 568.889 484.385, 568.889 474.385, 568.889 464.385, 568.889 454.385, 568.889 444.385, 568.889 434.385, 568.889 424.385, 568.889 414.385, 568.889 404.385, 568.889 394.385, 568.889 384.385, 568.889 374.385, 568.889 364.385, 568.889 354.385, 568.889 344.385, 568.889 334.385, 568.889 324.385, 568.889 314.385, 568.889 304.385, 568.889 299.615, 568.889 " />
            <path fill="none" stroke-width="1.5" stroke-linecap="round" stroke-opacity="1.0" stroke="rgb(0, 0, 0)" stroke-linejoin="round" d=" M 739.556, 568.889 729.556, 568.889 724.385, 568.889 " />
            <path fill="none" stroke-width="1.5" stroke-linecap="round" stroke-opacity="1.0" stroke="rgb(0, 0, 0)" stroke-linejoin="round" d=" M 739.556, 606.815 739.556, 596.815 739.556, 586.815 739.556, 576.815 739.556, 568.889 " />
            <path fill="none" stroke-width="1.5" stroke-linecap="round" stroke-opacity="1.0" stroke="rgb(0, 0, 0)" stroke-linejoin="round" d=" M 739.556, 682.667 739.556, 672.667 739.556, 662.667 739.556, 652.667 739.556, 642.667 739.556, 632.667 739.556, 622.667 739.556, 612.667 739.556, 606.815 " />
            <path fill="none" stroke-width="1.5" stroke-linecap="round" stroke-opacity="1.0" stroke="rgb(0, 0, 0)" stroke-linejoin="round" d=" M 739.556, 227.556 729.556, 227.556 719.556, 227.556 709.556, 227.556 699.556, 227.556 689.556, 227.556 679.556, 227.556 669.556, 227.556 659.556, 227.556 649.556, 227.556 639.556, 227.556 629.556, 227.556 619.556, 227.556 609.556, 227.556 599.556, 227.556 589.556, 227.556 579.556, 227.556 569.556, 227.556 559.556, 227.556 549.556, 227.556 539.556, 227.556 529.556, 227.556 519.556, 227.556 509.556, 227.556 499.556, 227.556 489.556, 227.556 479.556, 227.556 469.556, 227.556 459.556, 227.556 449.556, 227.556 439.556, 227.556 429.556, 227.556 419.556, 227.556 409.556, 227.556 399.556, 227.556 389.556, 227.556 379.556, 227.556 369.556, 227.556 359.556, 227.556 349.556, 227.556 339.556, 227.556 329.556, 227.556 319.556, 227.556 309.556, 227.556 299.556, 227.556 289.556, 227.556 284.444, 227.556 " />
            <path fill="none" stroke-width="1.5" stroke-linecap="round" stroke-opacity="1.0" stroke="rgb(0, 0, 0)" stroke-linejoin="round" d=" M 739.556, 303.407 739.556, 293.407 739.556, 283.407 739.556, 273.407 739.556, 263.407 739.556, 253.407 739.556, 243.407 739.556, 233.407 739.556, 227.556 " />
        </g>
    </g>
    <g id="ViewLayer_TechnicalLines.004" xmlns:inkscape="http://www.inkscape.org/namespaces/inkscape" inkscape:groupmode="lineset" inkscape:label="ViewLayer_TechnicalLines.004">
        <g xmlns:inkscape="http://www.inkscape.org/namespaces/inkscape" inkscape:groupmode="layer" id="strokes" inkscape:label="strokes">
            <path fill="none" stroke-width="1.5" stroke-linecap="round" stroke-opacity="1.0" stroke="rgb(0, 0, 0)" stroke-linejoin="round" d=" M 739.556, 796.444 739.556, 786.444 739.556, 776.444 739.556, 766.444 739.556, 756.444 739.556, 746.444 739.556, 736.444 739.556, 726.444 739.556, 716.444 739.556, 706.444 739.556, 696.444 739.556, 686.444 739.556, 682.667 " />
            <path fill="none" stroke-width="1.5" stroke-linecap="round" stroke-opacity="1.0" stroke="rgb(0, 0, 0)" stroke-linejoin="round" d=" M 739.556, 303.407 729.556, 303.407 724.385, 303.407 724.385, 313.407 724.385, 323.407 724.385, 333.407 724.385, 343.407 724.385, 353.407 724.385, 363.407 724.385, 373.407 724.385, 383.407 724.385, 393.407 724.385, 403.407 724.385, 413.407 724.385, 423.407 724.385, 433.407 724.385, 443.407 724.385, 453.407 724.385, 463.407 724.385, 473.407 724.385, 483.407 724.385, 493.407 724.385, 503.407 724.385, 513.407 724.385, 523.407 724.385, 533.407 724.385, 543.407 724.385, 553.407 724.385, 563.407 724.385, 568.889 " />
            <path fill="none" stroke-width="1.5" stroke-linecap="round" stroke-opacity="1.0" stroke="rgb(0, 0, 0)" stroke-linejoin="round" d=" M 739.556, 606.815 749.556, 606.815 754.726, 606.815 754.726, 596.815 754.726, 586.815 754.726, 576.815 754.726, 566.815 754.726, 556.815 754.726, 546.815 754.726, 536.815 754.726, 526.815 754.726, 516.815 754.726, 506.815 754.726, 496.815 754.726, 486.815 754.726, 476.815 754.726, 466.815 754.726, 456.815 754.726, 446.815 754.726, 436.815 754.726, 426.815 754.726, 416.815 754.726, 406.815 754.726, 396.815 754.726, 386.815 754.726, 376.815 754.726, 366.815 754.726, 356.815 754.726, 346.815 754.726, 336.815 754.726, 326.815 754.726, 316.815 754.726, 306.815 754.726, 303.407 744.726, 303.407 739.556, 303.407 " />
            <path fill="none" stroke-width="1.5" stroke-linecap="round" stroke-opacity="1.0" stroke="rgb(0, 0, 0)" stroke-linejoin="round" d=" M 269.274, 303.407 269.274, 313.407 269.274, 323.407 269.274, 333.407 269.274, 343.407 269.274, 353.407 269.274, 363.407 269.274, 373.407 269.274, 383.407 269.274, 393.407 269.274, 403.407 269.274, 413.407 269.274, 423.407 269.274, 433.407 269.274, 443.407 269.274, 453.407 269.274, 463.407 269.274, 473.407 269.274, 483.407 269.274, 493.407 269.274, 503.407 269.274, 513.407 269.274, 523.407 269.274, 533.407 269.274, 543.407 269.274, 553.407 269.274, 563.407 269.274, 573.407 269.274, 583.407 269.274, 593.407 269.274, 603.407 269.274, 606.815 " />
            <path fill="none" stroke-width="1.5" stroke-linecap="round" stroke-opacity="1.0" stroke="rgb(0, 0, 0)" stroke-linejoin="round" d=" M 284.444, 682.667 284.444, 692.667 284.444, 702.667 284.444, 712.667 284.444, 722.667 284.444, 732.667 284.444, 742.667 284.444, 752.667 284.444, 762.667 284.444, 772.667 284.444, 782.667 284.444, 792.667 284.444, 796.444 " />
            <path fill="none" stroke-width="1.5" stroke-linecap="round" stroke-opacity="1.0" stroke="rgb(0, 0, 0)" stroke-linejoin="round" d=" M 284.444, 606.815 284.444, 616.815 284.444, 626.815 284.444, 636.815 284.444, 646.815 284.444, 656.815 284.444, 666.815 284.444, 676.815 284.444, 682.667 " />
            <path fill="none" stroke-width="1.5" stroke-linecap="round" stroke-opacity="1.0" stroke="rgb(0, 0, 0)" stroke-linejoin="round" d=" M 284.444, 568.889 284.444, 578.889 284.444, 588.889 284.444, 598.889 284.444, 606.815 " />
            <path fill="none" stroke-width="1.5" stroke-linecap="round" stroke-opacity="1.0" stroke="rgb(0, 0, 0)" stroke-linejoin="round" d=" M 284.444, 227.556 284.444, 237.556 284.444, 247.556 284.444, 257.556 284.444, 267.556 284.444, 277.556 284.444, 287.556 284.444, 297.556 284.444, 303.407 " />
            <path fill="none" stroke-width="1.5" stroke-linecap="round" stroke-opacity="1.0" stroke="rgb(0, 0, 0)" stroke-linejoin="round" d=" M 269.274, 606.815 279.274, 606.815 284.444, 606.815 " />
            <path fill="none" stroke-width="1.5" stroke-linecap="round" stroke-opacity="1.0" stroke="rgb(0, 0, 0)" stroke-linejoin="round" d=" M 284.444, 303.407 274.444, 303.407 269.274, 303.407 " />
            <path fill="none" stroke-width="1.5" stroke-linecap="round" stroke-opacity="1.0" stroke="rgb(0, 0, 0)" stroke-linejoin="round" d=" M 299.615, 303.407 289.615, 303.407 284.444, 303.407 " />
            <path fill="none" stroke-width="1.5" stroke-linecap="round" stroke-opacity="1.0" stroke="rgb(0, 0, 0)" stroke-linejoin="round" d=" M 299.615, 568.889 299.615, 558.889 299.615, 548.889 299.615, 538.889 299.615, 528.889 299.615, 518.889 299.615, 508.889 299.615, 498.889 299.615, 488.889 299.615, 478.889 299.615, 468.889 299.615, 458.889 299.615, 448.889 299.615, 438.889 299.615, 428.889 299.615, 418.889 299.615, 408.889 299.615, 398.889 299.615, 388.889 299.615, 378.889 299.615, 368.889 299.615, 358.889 299.615, 348.889 299.615, 338.889 299.615, 328.889 299.615, 318.889 299.615, 308.889 299.615, 303.407 " />
            <path fill="none" stroke-width="1.5" stroke-linecap="round" stroke-opacity="1.0" stroke="rgb(0, 0, 0)" stroke-linejoin="round" d=" M 284.444, 796.444 294.444, 796.444 304.444, 796.444 314.444, 796.444 324.444, 796.444 334.444, 796.444 344.444, 796.444 354.444, 796.444 364.444, 796.444 374.444, 796.444 384.444, 796.444 394.444, 796.444 404.444, 796.444 414.444, 796.444 424.444, 796.444 434.444, 796.444 444.444, 796.444 454.444, 796.444 464.444, 796.444 474.444, 796.444 484.444, 796.444 494.444, 796.444 504.444, 796.444 514.444, 796.444 524.444, 796.444 534.444, 796.444 544.444, 796.444 554.444, 796.444 564.444, 796.444 574.444, 796.444 584.444, 796.444 594.444, 796.444 604.444, 796.444 614.444, 796.444 624.444, 796.444 634.444, 796.444 644.444, 796.444 654.444, 796.444 664.444, 796.444 674.444, 796.444 684.444, 796.444 694.444, 796.444 704.444, 796.444 714.444, 796.444 724.444, 796.444 734.444, 796.444 739.556, 796.444 " />
            <path fill="none" stroke-width="1.5" stroke-linecap="round" stroke-opacity="1.0" stroke="rgb(0, 0, 0)" stroke-linejoin="round" d=" M 299.615, 568.889 289.615, 568.889 284.444, 568.889 " />
            <path fill="none" stroke-width="1.5" stroke-linecap="round" stroke-opacity="1.0" stroke="rgb(0, 0, 0)" stroke-linejoin="round" d=" M 724.385, 568.889 714.385, 568.889 704.385, 568.889 694.385, 568.889 684.385, 568.889 674.385, 568.889 664.385, 568.889 654.385, 568.889 644.385, 568.889 634.385, 568.889 624.385, 568.889 614.385, 568.889 604.385, 568.889 594.385, 568.889 584.385, 568.889 574.385, 568.889 564.385, 568.889 554.385, 568.889 544.385, 568.889 534.385, 568.889 524.385, 568.889 514.385, 568.889 504.385, 568.889 494.385, 568.889 484.385, 568.889 474.385, 568.889 464.385, 568.889 454.385, 568.889 444.385, 568.889 434.385, 568.889 424.385, 568.889 414.385, 568.889 404.385, 568.889 394.385, 568.889 384.385, 568.889 374.385, 568.889 364.385, 568.889 354.385, 568.889 344.385, 568.889 334.385, 568.889 324.385, 568.889 314.385, 568.889 304.385, 568.889 299.615, 568.889 " />
            <path fill="none" stroke-width="1.5" stroke-linecap="round" stroke-opacity="1.0" stroke="rgb(0, 0, 0)" stroke-linejoin="round" d=" M 739.556, 568.889 729.556, 568.889 724.385, 568.889 " />
            <path fill="none" stroke-width="1.5" stroke-linecap="round" stroke-opacity="1.0" stroke="rgb(0, 0, 0)" stroke-linejoin="round" d=" M 739.556, 606.815 739.556, 596.815 739.556, 586.815 739.556, 576.815 739.556, 568.889 " />
            <path fill="none" stroke-width="1.5" stroke-linecap="round" stroke-opacity="1.0" stroke="rgb(0, 0, 0)" stroke-linejoin="round" d=" M 739.556, 682.667 739.556, 672.667 739.556, 662.667 739.556, 652.667 739.556, 642.667 739.556, 632.667 739.556, 622.667 739.556, 612.667 739.556, 606.815 " />
            <path fill="none" stroke-width="1.5" stroke-linecap="round" stroke-opacity="1.0" stroke="rgb(0, 0, 0)" stroke-linejoin="round" d=" M 739.556, 227.556 729.556, 227.556 719.556, 227.556 709.556, 227.556 699.556, 227.556 689.556, 227.556 679.556, 227.556 669.556, 227.556 659.556, 227.556 649.556, 227.556 639.556, 227.556 629.556, 227.556 619.556, 227.556 609.556, 227.556 599.556, 227.556 589.556, 227.556 579.556, 227.556 569.556, 227.556 559.556, 227.556 549.556, 227.556 539.556, 227.556 529.556, 227.556 519.556, 227.556 509.556, 227.556 499.556, 227.556 489.556, 227.556 479.556, 227.556 469.556, 227.556 459.556, 227.556 449.556, 227.556 439.556, 227.556 429.556, 227.556 419.556, 227.556 409.556, 227.556 399.556, 227.556 389.556, 227.556 379.556, 227.556 369.556, 227.556 359.556, 227.556 349.556, 227.556 339.556, 227.556 329.556, 227.556 319.556, 227.556 309.556, 227.556 299.556, 227.556 289.556, 227.556 284.444, 227.556 " />
            <path fill="none" stroke-width="1.5" stroke-linecap="round" stroke-opacity="1.0" stroke="rgb(0, 0, 0)" stroke-linejoin="round" d=" M 739.556, 303.407 739.556, 293.407 739.556, 283.407 739.556, 273.407 739.556, 263.407 739.556, 253.407 739.556, 243.407 739.556, 233.407 739.556, 227.556 " />
        </g>
    </g>
</svg>
