<?xml version='1.0' encoding='ascii'?>
<svg xmlns="http://www.w3.org/2000/svg" xmlns:inkscape="http://www.inkscape.org/namespaces/inkscape" version="1.1" width="1024" height="1024">
    <g id="ViewLayer_LineSet" inkscape:groupmode="lineset" inkscape:label="ViewLayer_LineSet">
        <g inkscape:groupmode="layer" id="strokes" inkscape:label="strokes">
            <path fill="none" stroke-width="3.0" stroke-linecap="butt" stroke-opacity="1.0" stroke="rgb(0, 0, 0)" stroke-linejoin="round" d=" M 417.185, 542.341 407.185, 542.341 397.185, 542.341 387.185, 542.341 377.185, 542.341 367.185, 542.341 357.185, 542.341 347.185, 542.341 341.333, 542.341 341.333, 552.341 341.333, 562.341 341.333, 572.341 341.333, 582.341 341.333, 592.341 341.333, 602.341 341.333, 612.341 341.333, 622.341 341.333, 632.341 341.333, 633.363 341.333, 633.363 351.333, 633.363 361.333, 633.363 371.333, 633.363 381.333, 633.363 391.333, 633.363 401.333, 633.363 411.333, 633.363 421.333, 633.363 431.333, 633.363 441.333, 633.363 451.333, 633.363 461.333, 633.363 471.333, 633.363 481.333, 633.363 491.333, 633.363 501.333, 633.363 511.333, 633.363 521.333, 633.363 531.333, 633.363 541.333, 633.363 551.333, 633.363 561.333, 633.363 571.333, 633.363 581.333, 633.363 591.333, 633.363 601.333, 633.363 611.333, 633.363 621.333, 633.363 631.333, 633.363 641.333, 633.363 651.333, 633.363 661.333, 633.363 671.333, 633.363 681.333, 633.363 691.333, 633.363 701.333, 633.363 711.333, 633.363 721.333, 633.363 731.333, 633.363 741.333, 633.363 751.333, 633.363 761.333, 633.363 771.333, 633.363 781.333, 633.363 791.333, 633.363 796.445, 633.363 796.445, 623.363 796.445, 613.363 796.445, 603.363 796.445, 593.363 796.445, 583.363 796.445, 573.363 796.445, 563.363 796.445, 553.363 796.445, 543.363 796.445, 542.341 796.444, 542.341 786.444, 542.341 776.444, 542.341 766.444, 542.341 756.444, 542.341 746.444, 542.341 736.444, 542.341 726.444, 542.341 720.593, 542.341 " />
            <path fill="none" stroke-width="3.0" stroke-linecap="butt" stroke-opacity="1.0" stroke="rgb(0, 0, 0)" stroke-linejoin="round" d=" M 796.444, 542.341 796.444, 552.341 796.444, 562.341 796.444, 572.341 796.444, 582.341 796.444, 592.341 796.444, 602.341 796.444, 612.341 796.444, 622.341 796.444, 632.341 796.444, 633.363 " />
            <path fill="none" stroke-width="3.0" stroke-linecap="butt" stroke-opacity="1.0" stroke="rgb(0, 0, 0)" stroke-linejoin="round" d=" M 341.333, 633.363 351.333, 633.363 361.333, 633.363 371.333, 633.363 381.333, 633.363 391.333, 633.363 401.333, 633.363 411.333, 633.363 421.333, 633.363 431.333, 633.363 441.333, 633.363 451.333, 633.363 461.333, 633.363 471.333, 633.363 481.333, 633.363 491.333, 633.363 501.333, 633.363 511.333, 633.363 521.333, 633.363 531.333, 633.363 541.333, 633.363 551.333, 633.363 561.333, 633.363 571.333, 633.363 581.333, 633.363 591.333, 633.363 601.333, 633.363 611.333, 633.363 621.333, 633.363 631.333, 633.363 641.333, 633.363 651.333, 633.363 661.333, 633.363 671.333, 633.363 681.333, 633.363 691.333, 633.363 701.333, 633.363 711.333, 633.363 721.333, 633.363 731.333, 633.363 741.333, 633.363 751.333, 633.363 761.333, 633.363 771.333, 633.363 781.333, 633.363 791.333, 633.363 796.444, 633.363 796.445, 633.363 " />
            <path fill="none" stroke-width="3.0" stroke-linecap="butt" stroke-opacity="1.0" stroke="rgb(0, 0, 0)" stroke-linejoin="round" d=" M 455.111, 481.659 455.111, 471.659 455.111, 461.659 455.111, 451.659 455.111, 441.659 455.111, 431.659 455.111, 421.659 455.111, 411.659 455.111, 401.659 455.111, 391.659 455.111, 390.637 455.111, 390.637 445.111, 390.637 435.111, 390.637 425.111, 390.637 415.111, 390.637 405.111, 390.637 395.111, 390.637 385.111, 390.637 375.111, 390.637 365.111, 390.637 355.111, 390.637 345.111, 390.637 335.111, 390.637 325.111, 390.637 315.111, 390.637 305.111, 390.637 295.111, 390.637 285.111, 390.637 275.111, 390.637 265.111, 390.637 255.111, 390.637 245.111, 390.637 235.111, 390.637 227.556, 390.637 227.556, 400.637 227.556, 410.637 227.556, 420.637 227.556, 430.637 227.556, 440.637 227.556, 450.637 227.556, 460.637 227.556, 470.637 227.556, 480.637 227.556, 481.659 227.556, 481.659 237.556, 481.659 247.556, 481.659 257.556, 481.659 267.556, 481.659 277.556, 481.659 287.556, 481.659 297.556, 481.659 307.556, 481.659 317.556, 481.659 327.556, 481.659 337.556, 481.659 347.556, 481.659 357.556, 481.659 367.556, 481.659 377.556, 481.659 387.556, 481.659 397.556, 481.659 407.556, 481.659 417.185, 481.659 " />
            <path fill="none" stroke-width="3.0" stroke-linecap="butt" stroke-opacity="1.0" stroke="rgb(0, 0, 0)" stroke-linejoin="round" d=" M 455.111, 390.637 455.111, 400.637 455.111, 410.637 455.111, 420.637 455.111, 430.637 455.111, 440.637 455.111, 450.637 455.111, 460.637 455.111, 470.637 455.111, 480.637 455.111, 481.659 " />
            <path fill="none" stroke-width="3.0" stroke-linecap="butt" stroke-opacity="1.0" stroke="rgb(0, 0, 0)" stroke-linejoin="round" d=" M 227.556, 481.659 237.556, 481.659 247.556, 481.659 257.556, 481.659 267.556, 481.659 277.556, 481.659 287.556, 481.659 297.556, 481.659 307.556, 481.659 317.556, 481.659 327.556, 481.659 337.556, 481.659 347.556, 481.659 357.556, 481.659 367.556, 481.659 377.556, 481.659 387.556, 481.659 397.556, 481.659 407.556, 481.659 417.185, 481.659 " />
            <path fill="none" stroke-width="3.0" stroke-linecap="butt" stroke-opacity="1.0" stroke="rgb(0, 0, 0)" stroke-linejoin="round" d=" M 417.185, 542.341 427.185, 542.341 437.185, 542.341 447.185, 542.341 457.185, 542.341 467.185, 542.341 477.185, 542.341 487.185, 542.341 497.185, 542.341 507.185, 542.341 517.185, 542.341 527.185, 542.341 537.185, 542.341 547.185, 542.341 557.185, 542.341 567.185, 542.341 577.185, 542.341 587.185, 542.341 597.185, 542.341 607.185, 542.341 617.185, 542.341 627.185, 542.341 637.185, 542.341 647.185, 542.341 657.185, 542.341 667.185, 542.341 677.185, 542.341 687.185, 542.341 697.185, 542.341 707.185, 542.341 717.185, 542.341 720.593, 542.341 720.593, 542.341 720.593, 532.341 720.593, 522.341 720.593, 512.341 720.593, 502.341 720.593, 492.341 720.593, 482.341 720.593, 481.659 " />
            <path fill="none" stroke-width="3.0" stroke-linecap="butt" stroke-opacity="1.0" stroke="rgb(0, 0, 0)" stroke-linejoin="round" d=" M 720.593, 481.659 720.593, 481.659 710.593, 481.659 700.593, 481.659 690.593, 481.659 680.593, 481.659 670.593, 481.659 660.593, 481.659 650.593, 481.659 640.593, 481.659 630.593, 481.659 620.593, 481.659 610.593, 481.659 600.593, 481.659 590.593, 481.659 580.593, 481.659 570.593, 481.659 560.593, 481.659 550.593, 481.659 540.593, 481.659 530.593, 481.659 520.593, 481.659 510.593, 481.659 500.593, 481.659 490.593, 481.659 480.593, 481.659 470.593, 481.659 460.593, 481.659 455.111, 481.659 455.111, 481.659 445.111, 481.659 435.111, 481.659 425.111, 481.659 417.185, 481.659 " />
            <path fill="none" stroke-width="3.0" stroke-linecap="butt" stroke-opacity="1.0" stroke="rgb(0, 0, 0)" stroke-linejoin="round" d=" M 417.185, 481.659 417.185, 481.659 417.185, 481.659 417.185, 491.659 417.185, 501.659 417.185, 511.659 417.185, 521.659 417.185, 531.659 417.185, 541.659 417.185, 542.341 417.185, 542.341 " />
            <path fill="none" stroke-width="3.0" stroke-linecap="butt" stroke-opacity="1.0" stroke="rgb(0, 0, 0)" stroke-linejoin="round" d=" M 417.185, 542.341 417.185, 542.341 " />
            <path fill="none" stroke-width="3.0" stroke-linecap="butt" stroke-opacity="1.0" stroke="rgb(0, 0, 0)" stroke-linejoin="round" d=" M 720.593, 542.341 720.593, 532.341 720.593, 522.341 720.593, 512.341 720.593, 502.341 720.593, 492.341 720.593, 482.341 720.593, 481.659 " />
            <path fill="none" stroke-width="3.0" stroke-linecap="butt" stroke-opacity="1.0" stroke="rgb(0, 0, 0)" stroke-linejoin="round" d=" M 720.593, 481.659 720.593, 481.659 " />
            <path fill="none" stroke-width="3.0" stroke-linecap="butt" stroke-opacity="1.0" stroke="rgb(0, 0, 0)" stroke-linejoin="round" d=" M 720.593, 542.341 720.593, 542.341 " />
        </g>
    </g>
    <g id="ViewLayer_TechnicalLines" inkscape:groupmode="lineset" inkscape:label="ViewLayer_TechnicalLines">
        <g inkscape:groupmode="layer" id="strokes" inkscape:label="strokes">
            <path fill="none" stroke-width="3.0" stroke-linecap="butt" stroke-opacity="1.0" stroke="rgb(0, 0, 0)" stroke-linejoin="round" d=" M 417.185, 542.341 407.185, 542.341 397.185, 542.341 387.185, 542.341 377.185, 542.341 367.185, 542.341 357.185, 542.341 347.185, 542.341 341.333, 542.341 341.333, 552.341 341.333, 562.341 341.333, 572.341 341.333, 582.341 341.333, 592.341 341.333, 602.341 341.333, 612.341 341.333, 622.341 341.333, 632.341 341.333, 633.363 341.333, 633.363 351.333, 633.363 361.333, 633.363 371.333, 633.363 381.333, 633.363 391.333, 633.363 401.333, 633.363 411.333, 633.363 421.333, 633.363 431.333, 633.363 441.333, 633.363 451.333, 633.363 461.333, 633.363 471.333, 633.363 481.333, 633.363 491.333, 633.363 501.333, 633.363 511.333, 633.363 521.333, 633.363 531.333, 633.363 541.333, 633.363 551.333, 633.363 561.333, 633.363 571.333, 633.363 581.333, 633.363 591.333, 633.363 601.333, 633.363 611.333, 633.363 621.333, 633.363 631.333, 633.363 641.333, 633.363 651.333, 633.363 661.333, 633.363 671.333, 633.363 681.333, 633.363 691.333, 633.363 701.333, 633.363 711.333, 633.363 721.333, 633.363 731.333, 633.363 741.333, 633.363 751.333, 633.363 761.333, 633.363 771.333, 633.363 781.333, 633.363 791.333, 633.363 796.445, 633.363 796.445, 623.363 796.445, 613.363 796.445, 603.363 796.445, 593.363 796.445, 583.363 796.445, 573.363 796.445, 563.363 796.445, 553.363 796.445, 543.363 796.445, 542.341 796.444, 542.341 786.444, 542.341 776.444, 542.341 766.444, 542.341 756.444, 542.341 746.444, 542.341 736.444, 542.341 726.444, 542.341 720.593, 542.341 " />
            <path fill="none" stroke-width="3.0" stroke-linecap="butt" stroke-opacity="1.0" stroke="rgb(0, 0, 0)" stroke-linejoin="round" d=" M 796.444, 542.341 796.444, 552.341 796.444, 562.341 796.444, 572.341 796.444, 582.341 796.444, 592.341 796.444, 602.341 796.444, 612.341 796.444, 622.341 796.444, 632.341 796.444, 633.363 " />
            <path fill="none" stroke-width="3.0" stroke-linecap="butt" stroke-opacity="1.0" stroke="rgb(0, 0, 0)" stroke-linejoin="round" d=" M 341.333, 633.363 351.333, 633.363 361.333, 633.363 371.333, 633.363 381.333, 633.363 391.333, 633.363 401.333, 633.363 411.333, 633.363 421.333, 633.363 431.333, 633.363 441.333, 633.363 451.333, 633.363 461.333, 633.363 471.333, 633.363 481.333, 633.363 491.333, 633.363 501.333, 633.363 511.333, 633.363 521.333, 633.363 531.333, 633.363 541.333, 633.363 551.333, 633.363 561.333, 633.363 571.333, 633.363 581.333, 633.363 591.333, 633.363 601.333, 633.363 611.333, 633.363 621.333, 633.363 631.333, 633.363 641.333, 633.363 651.333, 633.363 661.333, 633.363 671.333, 633.363 681.333, 633.363 691.333, 633.363 701.333, 633.363 711.333, 633.363 721.333, 633.363 731.333, 633.363 741.333, 633.363 751.333, 633.363 761.333, 633.363 771.333, 633.363 781.333, 633.363 791.333, 633.363 796.444, 633.363 796.445, 633.363 " />
            <path fill="none" stroke-width="3.0" stroke-linecap="butt" stroke-opacity="1.0" stroke="rgb(0, 0, 0)" stroke-linejoin="round" d=" M 455.111, 481.659 455.111, 471.659 455.111, 461.659 455.111, 451.659 455.111, 441.659 455.111, 431.659 455.111, 421.659 455.111, 411.659 455.111, 401.659 455.111, 391.659 455.111, 390.637 455.111, 390.637 445.111, 390.637 435.111, 390.637 425.111, 390.637 415.111, 390.637 405.111, 390.637 395.111, 390.637 385.111, 390.637 375.111, 390.637 365.111, 390.637 355.111, 390.637 345.111, 390.637 335.111, 390.637 325.111, 390.637 315.111, 390.637 305.111, 390.637 295.111, 390.637 285.111, 390.637 275.111, 390.637 265.111, 390.637 255.111, 390.637 245.111, 390.637 235.111, 390.637 227.556, 390.637 227.556, 400.637 227.556, 410.637 227.556, 420.637 227.556, 430.637 227.556, 440.637 227.556, 450.637 227.556, 460.637 227.556, 470.637 227.556, 480.637 227.556, 481.659 227.556, 481.659 237.556, 481.659 247.556, 481.659 257.556, 481.659 267.556, 481.659 277.556, 481.659 287.556, 481.659 297.556, 481.659 307.556, 481.659 317.556, 481.659 327.556, 481.659 337.556, 481.659 347.556, 481.659 357.556, 481.659 367.556, 481.659 377.556, 481.659 387.556, 481.659 397.556, 481.659 407.556, 481.659 417.185, 481.659 " />
            <path fill="none" stroke-width="3.0" stroke-linecap="butt" stroke-opacity="1.0" stroke="rgb(0, 0, 0)" stroke-linejoin="round" d=" M 455.111, 390.637 455.111, 400.637 455.111, 410.637 455.111, 420.637 455.111, 430.637 455.111, 440.637 455.111, 450.637 455.111, 460.637 455.111, 470.637 455.111, 480.637 455.111, 481.659 " />
            <path fill="none" stroke-width="3.0" stroke-linecap="butt" stroke-opacity="1.0" stroke="rgb(0, 0, 0)" stroke-linejoin="round" d=" M 227.556, 481.659 237.556, 481.659 247.556, 481.659 257.556, 481.659 267.556, 481.659 277.556, 481.659 287.556, 481.659 297.556, 481.659 307.556, 481.659 317.556, 481.659 327.556, 481.659 337.556, 481.659 347.556, 481.659 357.556, 481.659 367.556, 481.659 377.556, 481.659 387.556, 481.659 397.556, 481.659 407.556, 481.659 417.185, 481.659 " />
            <path fill="none" stroke-width="3.0" stroke-linecap="butt" stroke-opacity="1.0" stroke="rgb(0, 0, 0)" stroke-linejoin="round" d=" M 417.185, 542.341 427.185, 542.341 437.185, 542.341 447.185, 542.341 457.185, 542.341 467.185, 542.341 477.185, 542.341 487.185, 542.341 497.185, 542.341 507.185, 542.341 517.185, 542.341 527.185, 542.341 537.185, 542.341 547.185, 542.341 557.185, 542.341 567.185, 542.341 577.185, 542.341 587.185, 542.341 597.185, 542.341 607.185, 542.341 617.185, 542.341 627.185, 542.341 637.185, 542.341 647.185, 542.341 657.185, 542.341 667.185, 542.341 677.185, 542.341 687.185, 542.341 697.185, 542.341 707.185, 542.341 717.185, 542.341 720.593, 542.341 720.593, 542.341 720.593, 532.341 720.593, 522.341 720.593, 512.341 720.593, 502.341 720.593, 492.341 720.593, 482.341 720.593, 481.659 " />
            <path fill="none" stroke-width="3.0" stroke-linecap="butt" stroke-opacity="1.0" stroke="rgb(0, 0, 0)" stroke-linejoin="round" d=" M 720.593, 481.659 720.593, 481.659 710.593, 481.659 700.593, 481.659 690.593, 481.659 680.593, 481.659 670.593, 481.659 660.593, 481.659 650.593, 481.659 640.593, 481.659 630.593, 481.659 620.593, 481.659 610.593, 481.659 600.593, 481.659 590.593, 481.659 580.593, 481.659 570.593, 481.659 560.593, 481.659 550.593, 481.659 540.593, 481.659 530.593, 481.659 520.593, 481.659 510.593, 481.659 500.593, 481.659 490.593, 481.659 480.593, 481.659 470.593, 481.659 460.593, 481.659 455.111, 481.659 455.111, 481.659 445.111, 481.659 435.111, 481.659 425.111, 481.659 417.185, 481.659 " />
            <path fill="none" stroke-width="3.0" stroke-linecap="butt" stroke-opacity="1.0" stroke="rgb(0, 0, 0)" stroke-linejoin="round" d=" M 417.185, 481.659 417.185, 481.659 417.185, 481.659 417.185, 491.659 417.185, 501.659 417.185, 511.659 417.185, 521.659 417.185, 531.659 417.185, 541.659 417.185, 542.341 417.185, 542.341 " />
            <path fill="none" stroke-width="3.0" stroke-linecap="butt" stroke-opacity="1.0" stroke="rgb(0, 0, 0)" stroke-linejoin="round" d=" M 417.185, 542.341 417.185, 542.341 " />
            <path fill="none" stroke-width="3.0" stroke-linecap="butt" stroke-opacity="1.0" stroke="rgb(0, 0, 0)" stroke-linejoin="round" d=" M 720.593, 542.341 720.593, 532.341 720.593, 522.341 720.593, 512.341 720.593, 502.341 720.593, 492.341 720.593, 482.341 720.593, 481.659 " />
            <path fill="none" stroke-width="3.0" stroke-linecap="butt" stroke-opacity="1.0" stroke="rgb(0, 0, 0)" stroke-linejoin="round" d=" M 720.593, 481.659 720.593, 481.659 " />
            <path fill="none" stroke-width="3.0" stroke-linecap="butt" stroke-opacity="1.0" stroke="rgb(0, 0, 0)" stroke-linejoin="round" d=" M 720.593, 542.341 720.593, 542.341 " />
        </g>
    </g>
    <g id="ViewLayer_TechnicalLines.001" inkscape:groupmode="lineset" inkscape:label="ViewLayer_TechnicalLines.001">
        <g inkscape:groupmode="layer" id="strokes" inkscape:label="strokes">
            <path fill="none" stroke-width="1.5" stroke-linecap="round" stroke-opacity="1.0" stroke="rgb(0, 0, 0)" stroke-linejoin="round" d=" M 417.185, 542.341 407.185, 542.341 397.185, 542.341 387.185, 542.341 377.185, 542.341 367.185, 542.341 357.185, 542.341 347.185, 542.341 341.333, 542.341 341.333, 552.341 341.333, 562.341 341.333, 572.341 341.333, 582.341 341.333, 592.341 341.333, 602.341 341.333, 612.341 341.333, 622.341 341.333, 632.341 341.333, 633.363 341.333, 633.363 351.333, 633.363 361.333, 633.363 371.333, 633.363 381.333, 633.363 391.333, 633.363 401.333, 633.363 411.333, 633.363 421.333, 633.363 431.333, 633.363 441.333, 633.363 451.333, 633.363 461.333, 633.363 471.333, 633.363 481.333, 633.363 491.333, 633.363 501.333, 633.363 511.333, 633.363 521.333, 633.363 531.333, 633.363 541.333, 633.363 551.333, 633.363 561.333, 633.363 571.333, 633.363 581.333, 633.363 591.333, 633.363 601.333, 633.363 611.333, 633.363 621.333, 633.363 631.333, 633.363 641.333, 633.363 651.333, 633.363 661.333, 633.363 671.333, 633.363 681.333, 633.363 691.333, 633.363 701.333, 633.363 711.333, 633.363 721.333, 633.363 731.333, 633.363 741.333, 633.363 751.333, 633.363 761.333, 633.363 771.333, 633.363 781.333, 633.363 791.333, 633.363 796.445, 633.363 796.445, 623.363 796.445, 613.363 796.445, 603.363 796.445, 593.363 796.445, 583.363 796.445, 573.363 796.445, 563.363 796.445, 553.363 796.445, 543.363 796.445, 542.341 796.444, 542.341 786.444, 542.341 776.444, 542.341 766.444, 542.341 756.444, 542.341 746.444, 542.341 736.444, 542.341 726.444, 542.341 720.593, 542.341 " />
            <path fill="none" stroke-width="1.5" stroke-linecap="round" stroke-opacity="1.0" stroke="rgb(0, 0, 0)" stroke-linejoin="round" d=" M 796.444, 542.341 796.444, 552.341 796.444, 562.341 796.444, 572.341 796.444, 582.341 796.444, 592.341 796.444, 602.341 796.444, 612.341 796.444, 622.341 796.444, 632.341 796.444, 633.363 " />
            <path fill="none" stroke-width="1.5" stroke-linecap="round" stroke-opacity="1.0" stroke="rgb(0, 0, 0)" stroke-linejoin="round" d=" M 341.333, 633.363 351.333, 633.363 361.333, 633.363 371.333, 633.363 381.333, 633.363 391.333, 633.363 401.333, 633.363 411.333, 633.363 421.333, 633.363 431.333, 633.363 441.333, 633.363 451.333, 633.363 461.333, 633.363 471.333, 633.363 481.333, 633.363 491.333, 633.363 501.333, 633.363 511.333, 633.363 521.333, 633.363 531.333, 633.363 541.333, 633.363 551.333, 633.363 561.333, 633.363 571.333, 633.363 581.333, 633.363 591.333, 633.363 601.333, 633.363 611.333, 633.363 621.333, 633.363 631.333, 633.363 641.333, 633.363 651.333, 633.363 661.333, 633.363 671.333, 633.363 681.333, 633.363 691.333, 633.363 701.333, 633.363 711.333, 633.363 721.333, 633.363 731.333, 633.363 741.333, 633.363 751.333, 633.363 761.333, 633.363 771.333, 633.363 781.333, 633.363 791.333, 633.363 796.444, 633.363 796.445, 633.363 " />
            <path fill="none" stroke-width="1.5" stroke-linecap="round" stroke-opacity="1.0" stroke="rgb(0, 0, 0)" stroke-linejoin="round" d=" M 455.111, 481.659 455.111, 471.659 455.111, 461.659 455.111, 451.659 455.111, 441.659 455.111, 431.659 455.111, 421.659 455.111, 411.659 455.111, 401.659 455.111, 391.659 455.111, 390.637 455.111, 390.637 445.111, 390.637 435.111, 390.637 425.111, 390.637 415.111, 390.637 405.111, 390.637 395.111, 390.637 385.111, 390.637 375.111, 390.637 365.111, 390.637 355.111, 390.637 345.111, 390.637 335.111, 390.637 325.111, 390.637 315.111, 390.637 305.111, 390.637 295.111, 390.637 285.111, 390.637 275.111, 390.637 265.111, 390.637 255.111, 390.637 245.111, 390.637 235.111, 390.637 227.556, 390.637 227.556, 400.637 227.556, 410.637 227.556, 420.637 227.556, 430.637 227.556, 440.637 227.556, 450.637 227.556, 460.637 227.556, 470.637 227.556, 480.637 227.556, 481.659 227.556, 481.659 237.556, 481.659 247.556, 481.659 257.556, 481.659 267.556, 481.659 277.556, 481.659 287.556, 481.659 297.556, 481.659 307.556, 481.659 317.556, 481.659 327.556, 481.659 337.556, 481.659 347.556, 481.659 357.556, 481.659 367.556, 481.659 377.556, 481.659 387.556, 481.659 397.556, 481.659 407.556, 481.659 417.185, 481.659 " />
            <path fill="none" stroke-width="1.5" stroke-linecap="round" stroke-opacity="1.0" stroke="rgb(0, 0, 0)" stroke-linejoin="round" d=" M 455.111, 390.637 455.111, 400.637 455.111, 410.637 455.111, 420.637 455.111, 430.637 455.111, 440.637 455.111, 450.637 455.111, 460.637 455.111, 470.637 455.111, 480.637 455.111, 481.659 " />
            <path fill="none" stroke-width="1.5" stroke-linecap="round" stroke-opacity="1.0" stroke="rgb(0, 0, 0)" stroke-linejoin="round" d=" M 227.556, 481.659 237.556, 481.659 247.556, 481.659 257.556, 481.659 267.556, 481.659 277.556, 481.659 287.556, 481.659 297.556, 481.659 307.556, 481.659 317.556, 481.659 327.556, 481.659 337.556, 481.659 347.556, 481.659 357.556, 481.659 367.556, 481.659 377.556, 481.659 387.556, 481.659 397.556, 481.659 407.556, 481.659 417.185, 481.659 " />
            <path fill="none" stroke-width="1.5" stroke-linecap="round" stroke-opacity="1.0" stroke="rgb(0, 0, 0)" stroke-linejoin="round" d=" M 417.185, 542.341 427.185, 542.341 437.185, 542.341 447.185, 542.341 457.185, 542.341 467.185, 542.341 477.185, 542.341 487.185, 542.341 497.185, 542.341 507.185, 542.341 517.185, 542.341 527.185, 542.341 537.185, 542.341 547.185, 542.341 557.185, 542.341 567.185, 542.341 577.185, 542.341 587.185, 542.341 597.185, 542.341 607.185, 542.341 617.185, 542.341 627.185, 542.341 637.185, 542.341 647.185, 542.341 657.185, 542.341 667.185, 542.341 677.185, 542.341 687.185, 542.341 697.185, 542.341 707.185, 542.341 717.185, 542.341 720.593, 542.341 720.593, 542.341 720.593, 532.341 720.593, 522.341 720.593, 512.341 720.593, 502.341 720.593, 492.341 720.593, 482.341 720.593, 481.659 " />
            <path fill="none" stroke-width="1.5" stroke-linecap="round" stroke-opacity="1.0" stroke="rgb(0, 0, 0)" stroke-linejoin="round" d=" M 720.593, 481.659 720.593, 481.659 710.593, 481.659 700.593, 481.659 690.593, 481.659 680.593, 481.659 670.593, 481.659 660.593, 481.659 650.593, 481.659 640.593, 481.659 630.593, 481.659 620.593, 481.659 610.593, 481.659 600.593, 481.659 590.593, 481.659 580.593, 481.659 570.593, 481.659 560.593, 481.659 550.593, 481.659 540.593, 481.659 530.593, 481.659 520.593, 481.659 510.593, 481.659 500.593, 481.659 490.593, 481.659 480.593, 481.659 470.593, 481.659 460.593, 481.659 455.111, 481.659 455.111, 481.659 445.111, 481.659 435.111, 481.659 425.111, 481.659 417.185, 481.659 " />
            <path fill="none" stroke-width="1.5" stroke-linecap="round" stroke-opacity="1.0" stroke="rgb(0, 0, 0)" stroke-linejoin="round" d=" M 417.185, 481.659 417.185, 481.659 417.185, 481.659 417.185, 491.659 417.185, 501.659 417.185, 511.659 417.185, 521.659 417.185, 531.659 417.185, 541.659 417.185, 542.341 417.185, 542.341 " />
            <path fill="none" stroke-width="1.5" stroke-linecap="round" stroke-opacity="1.0" stroke="rgb(0, 0, 0)" stroke-linejoin="round" d=" M 417.185, 542.341 417.185, 542.341 " />
            <path fill="none" stroke-width="1.5" stroke-linecap="round" stroke-opacity="1.0" stroke="rgb(0, 0, 0)" stroke-linejoin="round" d=" M 720.593, 542.341 720.593, 532.341 720.593, 522.341 720.593, 512.341 720.593, 502.341 720.593, 492.341 720.593, 482.341 720.593, 481.659 " />
            <path fill="none" stroke-width="1.5" stroke-linecap="round" stroke-opacity="1.0" stroke="rgb(0, 0, 0)" stroke-linejoin="round" d=" M 720.593, 481.659 720.593, 481.659 " />
            <path fill="none" stroke-width="1.5" stroke-linecap="round" stroke-opacity="1.0" stroke="rgb(0, 0, 0)" stroke-linejoin="round" d=" M 720.593, 542.341 720.593, 542.341 " />
        </g>
    </g>
    <g id="ViewLayer_TechnicalLines.002" inkscape:groupmode="lineset" inkscape:label="ViewLayer_TechnicalLines.002">
        <g inkscape:groupmode="layer" id="strokes" inkscape:label="strokes">
            <path fill="none" stroke-width="1.5" stroke-linecap="round" stroke-opacity="1.0" stroke="rgb(0, 0, 0)" stroke-linejoin="round" d=" M 417.185, 542.341 407.185, 542.341 397.185, 542.341 387.185, 542.341 377.185, 542.341 367.185, 542.341 357.185, 542.341 347.185, 542.341 341.333, 542.341 341.333, 552.341 341.333, 562.341 341.333, 572.341 341.333, 582.341 341.333, 592.341 341.333, 602.341 341.333, 612.341 341.333, 622.341 341.333, 632.341 341.333, 633.363 341.333, 633.363 351.333, 633.363 361.333, 633.363 371.333, 633.363 381.333, 633.363 391.333, 633.363 401.333, 633.363 411.333, 633.363 421.333, 633.363 431.333, 633.363 441.333, 633.363 451.333, 633.363 461.333, 633.363 471.333, 633.363 481.333, 633.363 491.333, 633.363 501.333, 633.363 511.333, 633.363 521.333, 633.363 531.333, 633.363 541.333, 633.363 551.333, 633.363 561.333, 633.363 571.333, 633.363 581.333, 633.363 591.333, 633.363 601.333, 633.363 611.333, 633.363 621.333, 633.363 631.333, 633.363 641.333, 633.363 651.333, 633.363 661.333, 633.363 671.333, 633.363 681.333, 633.363 691.333, 633.363 701.333, 633.363 711.333, 633.363 721.333, 633.363 731.333, 633.363 741.333, 633.363 751.333, 633.363 761.333, 633.363 771.333, 633.363 781.333, 633.363 791.333, 633.363 796.445, 633.363 796.445, 623.363 796.445, 613.363 796.445, 603.363 796.445, 593.363 796.445, 583.363 796.445, 573.363 796.445, 563.363 796.445, 553.363 796.445, 543.363 796.445, 542.341 796.444, 542.341 786.444, 542.341 776.444, 542.341 766.444, 542.341 756.444, 542.341 746.444, 542.341 736.444, 542.341 726.444, 542.341 720.593, 542.341 " />
            <path fill="none" stroke-width="1.5" stroke-linecap="round" stroke-opacity="1.0" stroke="rgb(0, 0, 0)" stroke-linejoin="round" d=" M 796.444, 542.341 796.444, 552.341 796.444, 562.341 796.444, 572.341 796.444, 582.341 796.444, 592.341 796.444, 602.341 796.444, 612.341 796.444, 622.341 796.444, 632.341 796.444, 633.363 " />
            <path fill="none" stroke-width="1.5" stroke-linecap="round" stroke-opacity="1.0" stroke="rgb(0, 0, 0)" stroke-linejoin="round" d=" M 341.333, 633.363 351.333, 633.363 361.333, 633.363 371.333, 633.363 381.333, 633.363 391.333, 633.363 401.333, 633.363 411.333, 633.363 421.333, 633.363 431.333, 633.363 441.333, 633.363 451.333, 633.363 461.333, 633.363 471.333, 633.363 481.333, 633.363 491.333, 633.363 501.333, 633.363 511.333, 633.363 521.333, 633.363 531.333, 633.363 541.333, 633.363 551.333, 633.363 561.333, 633.363 571.333, 633.363 581.333, 633.363 591.333, 633.363 601.333, 633.363 611.333, 633.363 621.333, 633.363 631.333, 633.363 641.333, 633.363 651.333, 633.363 661.333, 633.363 671.333, 633.363 681.333, 633.363 691.333, 633.363 701.333, 633.363 711.333, 633.363 721.333, 633.363 731.333, 633.363 741.333, 633.363 751.333, 633.363 761.333, 633.363 771.333, 633.363 781.333, 633.363 791.333, 633.363 796.444, 633.363 796.445, 633.363 " />
            <path fill="none" stroke-width="1.5" stroke-linecap="round" stroke-opacity="1.0" stroke="rgb(0, 0, 0)" stroke-linejoin="round" d=" M 455.111, 481.659 455.111, 471.659 455.111, 461.659 455.111, 451.659 455.111, 441.659 455.111, 431.659 455.111, 421.659 455.111, 411.659 455.111, 401.659 455.111, 391.659 455.111, 390.637 455.111, 390.637 445.111, 390.637 435.111, 390.637 425.111, 390.637 415.111, 390.637 405.111, 390.637 395.111, 390.637 385.111, 390.637 375.111, 390.637 365.111, 390.637 355.111, 390.637 345.111, 390.637 335.111, 390.637 325.111, 390.637 315.111, 390.637 305.111, 390.637 295.111, 390.637 285.111, 390.637 275.111, 390.637 265.111, 390.637 255.111, 390.637 245.111, 390.637 235.111, 390.637 227.556, 390.637 227.556, 400.637 227.556, 410.637 227.556, 420.637 227.556, 430.637 227.556, 440.637 227.556, 450.637 227.556, 460.637 227.556, 470.637 227.556, 480.637 227.556, 481.659 227.556, 481.659 237.556, 481.659 247.556, 481.659 257.556, 481.659 267.556, 481.659 277.556, 481.659 287.556, 481.659 297.556, 481.659 307.556, 481.659 317.556, 481.659 327.556, 481.659 337.556, 481.659 347.556, 481.659 357.556, 481.659 367.556, 481.659 377.556, 481.659 387.556, 481.659 397.556, 481.659 407.556, 481.659 417.185, 481.659 " />
            <path fill="none" stroke-width="1.5" stroke-linecap="round" stroke-opacity="1.0" stroke="rgb(0, 0, 0)" stroke-linejoin="round" d=" M 455.111, 390.637 455.111, 400.637 455.111, 410.637 455.111, 420.637 455.111, 430.637 455.111, 440.637 455.111, 450.637 455.111, 460.637 455.111, 470.637 455.111, 480.637 455.111, 481.659 " />
            <path fill="none" stroke-width="1.5" stroke-linecap="round" stroke-opacity="1.0" stroke="rgb(0, 0, 0)" stroke-linejoin="round" d=" M 227.556, 481.659 237.556, 481.659 247.556, 481.659 257.556, 481.659 267.556, 481.659 277.556, 481.659 287.556, 481.659 297.556, 481.659 307.556, 481.659 317.556, 481.659 327.556, 481.659 337.556, 481.659 347.556, 481.659 357.556, 481.659 367.556, 481.659 377.556, 481.659 387.556, 481.659 397.556, 481.659 407.556, 481.659 417.185, 481.659 " />
            <path fill="none" stroke-width="1.5" stroke-linecap="round" stroke-opacity="1.0" stroke="rgb(0, 0, 0)" stroke-linejoin="round" d=" M 417.185, 542.341 427.185, 542.341 437.185, 542.341 447.185, 542.341 457.185, 542.341 467.185, 542.341 477.185, 542.341 487.185, 542.341 497.185, 542.341 507.185, 542.341 517.185, 542.341 527.185, 542.341 537.185, 542.341 547.185, 542.341 557.185, 542.341 567.185, 542.341 577.185, 542.341 587.185, 542.341 597.185, 542.341 607.185, 542.341 617.185, 542.341 627.185, 542.341 637.185, 542.341 647.185, 542.341 657.185, 542.341 667.185, 542.341 677.185, 542.341 687.185, 542.341 697.185, 542.341 707.185, 542.341 717.185, 542.341 720.593, 542.341 720.593, 542.341 720.593, 532.341 720.593, 522.341 720.593, 512.341 720.593, 502.341 720.593, 492.341 720.593, 482.341 720.593, 481.659 " />
            <path fill="none" stroke-width="1.5" stroke-linecap="round" stroke-opacity="1.0" stroke="rgb(0, 0, 0)" stroke-linejoin="round" d=" M 720.593, 481.659 720.593, 481.659 710.593, 481.659 700.593, 481.659 690.593, 481.659 680.593, 481.659 670.593, 481.659 660.593, 481.659 650.593, 481.659 640.593, 481.659 630.593, 481.659 620.593, 481.659 610.593, 481.659 600.593, 481.659 590.593, 481.659 580.593, 481.659 570.593, 481.659 560.593, 481.659 550.593, 481.659 540.593, 481.659 530.593, 481.659 520.593, 481.659 510.593, 481.659 500.593, 481.659 490.593, 481.659 480.593, 481.659 470.593, 481.659 460.593, 481.659 455.111, 481.659 455.111, 481.659 445.111, 481.659 435.111, 481.659 425.111, 481.659 417.185, 481.659 " />
            <path fill="none" stroke-width="1.5" stroke-linecap="round" stroke-opacity="1.0" stroke="rgb(0, 0, 0)" stroke-linejoin="round" d=" M 417.185, 481.659 417.185, 481.659 417.185, 481.659 417.185, 491.659 417.185, 501.659 417.185, 511.659 417.185, 521.659 417.185, 531.659 417.185, 541.659 417.185, 542.341 417.185, 542.341 " />
            <path fill="none" stroke-width="1.5" stroke-linecap="round" stroke-opacity="1.0" stroke="rgb(0, 0, 0)" stroke-linejoin="round" d=" M 417.185, 542.341 417.185, 542.341 " />
            <path fill="none" stroke-width="1.5" stroke-linecap="round" stroke-opacity="1.0" stroke="rgb(0, 0, 0)" stroke-linejoin="round" d=" M 720.593, 542.341 720.593, 532.341 720.593, 522.341 720.593, 512.341 720.593, 502.341 720.593, 492.341 720.593, 482.341 720.593, 481.659 " />
            <path fill="none" stroke-width="1.5" stroke-linecap="round" stroke-opacity="1.0" stroke="rgb(0, 0, 0)" stroke-linejoin="round" d=" M 720.593, 481.659 720.593, 481.659 " />
            <path fill="none" stroke-width="1.5" stroke-linecap="round" stroke-opacity="1.0" stroke="rgb(0, 0, 0)" stroke-linejoin="round" d=" M 720.593, 542.341 720.593, 542.341 " />
        </g>
    </g>
    <g id="ViewLayer_TechnicalLines.003" inkscape:groupmode="lineset" inkscape:label="ViewLayer_TechnicalLines.003">
        <g inkscape:groupmode="layer" id="strokes" inkscape:label="strokes">
            <path fill="none" stroke-width="1.5" stroke-linecap="round" stroke-opacity="1.0" stroke="rgb(0, 0, 0)" stroke-linejoin="round" d=" M 417.185, 542.341 407.185, 542.341 397.185, 542.341 387.185, 542.341 377.185, 542.341 367.185, 542.341 357.185, 542.341 347.185, 542.341 341.333, 542.341 341.333, 552.341 341.333, 562.341 341.333, 572.341 341.333, 582.341 341.333, 592.341 341.333, 602.341 341.333, 612.341 341.333, 622.341 341.333, 632.341 341.333, 633.363 341.333, 633.363 351.333, 633.363 361.333, 633.363 371.333, 633.363 381.333, 633.363 391.333, 633.363 401.333, 633.363 411.333, 633.363 421.333, 633.363 431.333, 633.363 441.333, 633.363 451.333, 633.363 461.333, 633.363 471.333, 633.363 481.333, 633.363 491.333, 633.363 501.333, 633.363 511.333, 633.363 521.333, 633.363 531.333, 633.363 541.333, 633.363 551.333, 633.363 561.333, 633.363 571.333, 633.363 581.333, 633.363 591.333, 633.363 601.333, 633.363 611.333, 633.363 621.333, 633.363 631.333, 633.363 641.333, 633.363 651.333, 633.363 661.333, 633.363 671.333, 633.363 681.333, 633.363 691.333, 633.363 701.333, 633.363 711.333, 633.363 721.333, 633.363 731.333, 633.363 741.333, 633.363 751.333, 633.363 761.333, 633.363 771.333, 633.363 781.333, 633.363 791.333, 633.363 796.445, 633.363 796.445, 623.363 796.445, 613.363 796.445, 603.363 796.445, 593.363 796.445, 583.363 796.445, 573.363 796.445, 563.363 796.445, 553.363 796.445, 543.363 796.445, 542.341 796.444, 542.341 786.444, 542.341 776.444, 542.341 766.444, 542.341 756.444, 542.341 746.444, 542.341 736.444, 542.341 726.444, 542.341 720.593, 542.341 " />
            <path fill="none" stroke-width="1.5" stroke-linecap="round" stroke-opacity="1.0" stroke="rgb(0, 0, 0)" stroke-linejoin="round" d=" M 796.444, 542.341 796.444, 552.341 796.444, 562.341 796.444, 572.341 796.444, 582.341 796.444, 592.341 796.444, 602.341 796.444, 612.341 796.444, 622.341 796.444, 632.341 796.444, 633.363 " />
            <path fill="none" stroke-width="1.5" stroke-linecap="round" stroke-opacity="1.0" stroke="rgb(0, 0, 0)" stroke-linejoin="round" d=" M 341.333, 633.363 351.333, 633.363 361.333, 633.363 371.333, 633.363 381.333, 633.363 391.333, 633.363 401.333, 633.363 411.333, 633.363 421.333, 633.363 431.333, 633.363 441.333, 633.363 451.333, 633.363 461.333, 633.363 471.333, 633.363 481.333, 633.363 491.333, 633.363 501.333, 633.363 511.333, 633.363 521.333, 633.363 531.333, 633.363 541.333, 633.363 551.333, 633.363 561.333, 633.363 571.333, 633.363 581.333, 633.363 591.333, 633.363 601.333, 633.363 611.333, 633.363 621.333, 633.363 631.333, 633.363 641.333, 633.363 651.333, 633.363 661.333, 633.363 671.333, 633.363 681.333, 633.363 691.333, 633.363 701.333, 633.363 711.333, 633.363 721.333, 633.363 731.333, 633.363 741.333, 633.363 751.333, 633.363 761.333, 633.363 771.333, 633.363 781.333, 633.363 791.333, 633.363 796.444, 633.363 796.445, 633.363 " />
            <path fill="none" stroke-width="1.5" stroke-linecap="round" stroke-opacity="1.0" stroke="rgb(0, 0, 0)" stroke-linejoin="round" d=" M 455.111, 481.659 455.111, 471.659 455.111, 461.659 455.111, 451.659 455.111, 441.659 455.111, 431.659 455.111, 421.659 455.111, 411.659 455.111, 401.659 455.111, 391.659 455.111, 390.637 455.111, 390.637 445.111, 390.637 435.111, 390.637 425.111, 390.637 415.111, 390.637 405.111, 390.637 395.111, 390.637 385.111, 390.637 375.111, 390.637 365.111, 390.637 355.111, 390.637 345.111, 390.637 335.111, 390.637 325.111, 390.637 315.111, 390.637 305.111, 390.637 295.111, 390.637 285.111, 390.637 275.111, 390.637 265.111, 390.637 255.111, 390.637 245.111, 390.637 235.111, 390.637 227.556, 390.637 227.556, 400.637 227.556, 410.637 227.556, 420.637 227.556, 430.637 227.556, 440.637 227.556, 450.637 227.556, 460.637 227.556, 470.637 227.556, 480.637 227.556, 481.659 227.556, 481.659 237.556, 481.659 247.556, 481.659 257.556, 481.659 267.556, 481.659 277.556, 481.659 287.556, 481.659 297.556, 481.659 307.556, 481.659 317.556, 481.659 327.556, 481.659 337.556, 481.659 347.556, 481.659 357.556, 481.659 367.556, 481.659 377.556, 481.659 387.556, 481.659 397.556, 481.659 407.556, 481.659 417.185, 481.659 " />
            <path fill="none" stroke-width="1.5" stroke-linecap="round" stroke-opacity="1.0" stroke="rgb(0, 0, 0)" stroke-linejoin="round" d=" M 455.111, 390.637 455.111, 400.637 455.111, 410.637 455.111, 420.637 455.111, 430.637 455.111, 440.637 455.111, 450.637 455.111, 460.637 455.111, 470.637 455.111, 480.637 455.111, 481.659 " />
            <path fill="none" stroke-width="1.5" stroke-linecap="round" stroke-opacity="1.0" stroke="rgb(0, 0, 0)" stroke-linejoin="round" d=" M 227.556, 481.659 237.556, 481.659 247.556, 481.659 257.556, 481.659 267.556, 481.659 277.556, 481.659 287.556, 481.659 297.556, 481.659 307.556, 481.659 317.556, 481.659 327.556, 481.659 337.556, 481.659 347.556, 481.659 357.556, 481.659 367.556, 481.659 377.556, 481.659 387.556, 481.659 397.556, 481.659 407.556, 481.659 417.185, 481.659 " />
            <path fill="none" stroke-width="1.5" stroke-linecap="round" stroke-opacity="1.0" stroke="rgb(0, 0, 0)" stroke-linejoin="round" d=" M 417.185, 542.341 427.185, 542.341 437.185, 542.341 447.185, 542.341 457.185, 542.341 467.185, 542.341 477.185, 542.341 487.185, 542.341 497.185, 542.341 507.185, 542.341 517.185, 542.341 527.185, 542.341 537.185, 542.341 547.185, 542.341 557.185, 542.341 567.185, 542.341 577.185, 542.341 587.185, 542.341 597.185, 542.341 607.185, 542.341 617.185, 542.341 627.185, 542.341 637.185, 542.341 647.185, 542.341 657.185, 542.341 667.185, 542.341 677.185, 542.341 687.185, 542.341 697.185, 542.341 707.185, 542.341 717.185, 542.341 720.593, 542.341 720.593, 542.341 720.593, 532.341 720.593, 522.341 720.593, 512.341 720.593, 502.341 720.593, 492.341 720.593, 482.341 720.593, 481.659 " />
            <path fill="none" stroke-width="1.5" stroke-linecap="round" stroke-opacity="1.0" stroke="rgb(0, 0, 0)" stroke-linejoin="round" d=" M 720.593, 481.659 720.593, 481.659 710.593, 481.659 700.593, 481.659 690.593, 481.659 680.593, 481.659 670.593, 481.659 660.593, 481.659 650.593, 481.659 640.593, 481.659 630.593, 481.659 620.593, 481.659 610.593, 481.659 600.593, 481.659 590.593, 481.659 580.593, 481.659 570.593, 481.659 560.593, 481.659 550.593, 481.659 540.593, 481.659 530.593, 481.659 520.593, 481.659 510.593, 481.659 500.593, 481.659 490.593, 481.659 480.593, 481.659 470.593, 481.659 460.593, 481.659 455.111, 481.659 455.111, 481.659 445.111, 481.659 435.111, 481.659 425.111, 481.659 417.185, 481.659 " />
            <path fill="none" stroke-width="1.5" stroke-linecap="round" stroke-opacity="1.0" stroke="rgb(0, 0, 0)" stroke-linejoin="round" d=" M 417.185, 481.659 417.185, 481.659 417.185, 481.659 417.185, 491.659 417.185, 501.659 417.185, 511.659 417.185, 521.659 417.185, 531.659 417.185, 541.659 417.185, 542.341 417.185, 542.341 " />
            <path fill="none" stroke-width="1.5" stroke-linecap="round" stroke-opacity="1.0" stroke="rgb(0, 0, 0)" stroke-linejoin="round" d=" M 417.185, 542.341 417.185, 542.341 " />
            <path fill="none" stroke-width="1.5" stroke-linecap="round" stroke-opacity="1.0" stroke="rgb(0, 0, 0)" stroke-linejoin="round" d=" M 720.593, 542.341 720.593, 532.341 720.593, 522.341 720.593, 512.341 720.593, 502.341 720.593, 492.341 720.593, 482.341 720.593, 481.659 " />
            <path fill="none" stroke-width="1.5" stroke-linecap="round" stroke-opacity="1.0" stroke="rgb(0, 0, 0)" stroke-linejoin="round" d=" M 720.593, 481.659 720.593, 481.659 " />
            <path fill="none" stroke-width="1.5" stroke-linecap="round" stroke-opacity="1.0" stroke="rgb(0, 0, 0)" stroke-linejoin="round" d=" M 720.593, 542.341 720.593, 542.341 " />
        </g>
    </g>
    <g id="ViewLayer_TechnicalLines.004" xmlns:inkscape="http://www.inkscape.org/namespaces/inkscape" inkscape:groupmode="lineset" inkscape:label="ViewLayer_TechnicalLines.004">
        <g xmlns:inkscape="http://www.inkscape.org/namespaces/inkscape" inkscape:groupmode="layer" id="strokes" inkscape:label="strokes">
            <path fill="none" stroke-width="1.5" stroke-linecap="round" stroke-opacity="1.0" stroke="rgb(0, 0, 0)" stroke-linejoin="round" d=" M 417.185, 542.341 407.185, 542.341 397.185, 542.341 387.185, 542.341 377.185, 542.341 367.185, 542.341 357.185, 542.341 347.185, 542.341 341.333, 542.341 341.333, 552.341 341.333, 562.341 341.333, 572.341 341.333, 582.341 341.333, 592.341 341.333, 602.341 341.333, 612.341 341.333, 622.341 341.333, 632.341 341.333, 633.363 341.333, 633.363 351.333, 633.363 361.333, 633.363 371.333, 633.363 381.333, 633.363 391.333, 633.363 401.333, 633.363 411.333, 633.363 421.333, 633.363 431.333, 633.363 441.333, 633.363 451.333, 633.363 461.333, 633.363 471.333, 633.363 481.333, 633.363 491.333, 633.363 501.333, 633.363 511.333, 633.363 521.333, 633.363 531.333, 633.363 541.333, 633.363 551.333, 633.363 561.333, 633.363 571.333, 633.363 581.333, 633.363 591.333, 633.363 601.333, 633.363 611.333, 633.363 621.333, 633.363 631.333, 633.363 641.333, 633.363 651.333, 633.363 661.333, 633.363 671.333, 633.363 681.333, 633.363 691.333, 633.363 701.333, 633.363 711.333, 633.363 721.333, 633.363 731.333, 633.363 741.333, 633.363 751.333, 633.363 761.333, 633.363 771.333, 633.363 781.333, 633.363 791.333, 633.363 796.445, 633.363 796.445, 623.363 796.445, 613.363 796.445, 603.363 796.445, 593.363 796.445, 583.363 796.445, 573.363 796.445, 563.363 796.445, 553.363 796.445, 543.363 796.445, 542.341 796.444, 542.341 786.444, 542.341 776.444, 542.341 766.444, 542.341 756.444, 542.341 746.444, 542.341 736.444, 542.341 726.444, 542.341 720.593, 542.341 " />
            <path fill="none" stroke-width="1.5" stroke-linecap="round" stroke-opacity="1.0" stroke="rgb(0, 0, 0)" stroke-linejoin="round" d=" M 796.444, 542.341 796.444, 552.341 796.444, 562.341 796.444, 572.341 796.444, 582.341 796.444, 592.341 796.444, 602.341 796.444, 612.341 796.444, 622.341 796.444, 632.341 796.444, 633.363 " />
            <path fill="none" stroke-width="1.5" stroke-linecap="round" stroke-opacity="1.0" stroke="rgb(0, 0, 0)" stroke-linejoin="round" d=" M 341.333, 633.363 351.333, 633.363 361.333, 633.363 371.333, 633.363 381.333, 633.363 391.333, 633.363 401.333, 633.363 411.333, 633.363 421.333, 633.363 431.333, 633.363 441.333, 633.363 451.333, 633.363 461.333, 633.363 471.333, 633.363 481.333, 633.363 491.333, 633.363 501.333, 633.363 511.333, 633.363 521.333, 633.363 531.333, 633.363 541.333, 633.363 551.333, 633.363 561.333, 633.363 571.333, 633.363 581.333, 633.363 591.333, 633.363 601.333, 633.363 611.333, 633.363 621.333, 633.363 631.333, 633.363 641.333, 633.363 651.333, 633.363 661.333, 633.363 671.333, 633.363 681.333, 633.363 691.333, 633.363 701.333, 633.363 711.333, 633.363 721.333, 633.363 731.333, 633.363 741.333, 633.363 751.333, 633.363 761.333, 633.363 771.333, 633.363 781.333, 633.363 791.333, 633.363 796.444, 633.363 796.445, 633.363 " />
            <path fill="none" stroke-width="1.5" stroke-linecap="round" stroke-opacity="1.0" stroke="rgb(0, 0, 0)" stroke-linejoin="round" d=" M 455.111, 481.659 455.111, 471.659 455.111, 461.659 455.111, 451.659 455.111, 441.659 455.111, 431.659 455.111, 421.659 455.111, 411.659 455.111, 401.659 455.111, 391.659 455.111, 390.637 455.111, 390.637 445.111, 390.637 435.111, 390.637 425.111, 390.637 415.111, 390.637 405.111, 390.637 395.111, 390.637 385.111, 390.637 375.111, 390.637 365.111, 390.637 355.111, 390.637 345.111, 390.637 335.111, 390.637 325.111, 390.637 315.111, 390.637 305.111, 390.637 295.111, 390.637 285.111, 390.637 275.111, 390.637 265.111, 390.637 255.111, 390.637 245.111, 390.637 235.111, 390.637 227.556, 390.637 227.556, 400.637 227.556, 410.637 227.556, 420.637 227.556, 430.637 227.556, 440.637 227.556, 450.637 227.556, 460.637 227.556, 470.637 227.556, 480.637 227.556, 481.659 227.556, 481.659 237.556, 481.659 247.556, 481.659 257.556, 481.659 267.556, 481.659 277.556, 481.659 287.556, 481.659 297.556, 481.659 307.556, 481.659 317.556, 481.659 327.556, 481.659 337.556, 481.659 347.556, 481.659 357.556, 481.659 367.556, 481.659 377.556, 481.659 387.556, 481.659 397.556, 481.659 407.556, 481.659 417.185, 481.659 " />
            <path fill="none" stroke-width="1.5" stroke-linecap="round" stroke-opacity="1.0" stroke="rgb(0, 0, 0)" stroke-linejoin="round" d=" M 455.111, 390.637 455.111, 400.637 455.111, 410.637 455.111, 420.637 455.111, 430.637 455.111, 440.637 455.111, 450.637 455.111, 460.637 455.111, 470.637 455.111, 480.637 455.111, 481.659 " />
            <path fill="none" stroke-width="1.5" stroke-linecap="round" stroke-opacity="1.0" stroke="rgb(0, 0, 0)" stroke-linejoin="round" d=" M 227.556, 481.659 237.556, 481.659 247.556, 481.659 257.556, 481.659 267.556, 481.659 277.556, 481.659 287.556, 481.659 297.556, 481.659 307.556, 481.659 317.556, 481.659 327.556, 481.659 337.556, 481.659 347.556, 481.659 357.556, 481.659 367.556, 481.659 377.556, 481.659 387.556, 481.659 397.556, 481.659 407.556, 481.659 417.185, 481.659 " />
            <path fill="none" stroke-width="1.5" stroke-linecap="round" stroke-opacity="1.0" stroke="rgb(0, 0, 0)" stroke-linejoin="round" d=" M 417.185, 542.341 427.185, 542.341 437.185, 542.341 447.185, 542.341 457.185, 542.341 467.185, 542.341 477.185, 542.341 487.185, 542.341 497.185, 542.341 507.185, 542.341 517.185, 542.341 527.185, 542.341 537.185, 542.341 547.185, 542.341 557.185, 542.341 567.185, 542.341 577.185, 542.341 587.185, 542.341 597.185, 542.341 607.185, 542.341 617.185, 542.341 627.185, 542.341 637.185, 542.341 647.185, 542.341 657.185, 542.341 667.185, 542.341 677.185, 542.341 687.185, 542.341 697.185, 542.341 707.185, 542.341 717.185, 542.341 720.593, 542.341 720.593, 542.341 720.593, 532.341 720.593, 522.341 720.593, 512.341 720.593, 502.341 720.593, 492.341 720.593, 482.341 720.593, 481.659 " />
            <path fill="none" stroke-width="1.5" stroke-linecap="round" stroke-opacity="1.0" stroke="rgb(0, 0, 0)" stroke-linejoin="round" d=" M 720.593, 481.659 720.593, 481.659 710.593, 481.659 700.593, 481.659 690.593, 481.659 680.593, 481.659 670.593, 481.659 660.593, 481.659 650.593, 481.659 640.593, 481.659 630.593, 481.659 620.593, 481.659 610.593, 481.659 600.593, 481.659 590.593, 481.659 580.593, 481.659 570.593, 481.659 560.593, 481.659 550.593, 481.659 540.593, 481.659 530.593, 481.659 520.593, 481.659 510.593, 481.659 500.593, 481.659 490.593, 481.659 480.593, 481.659 470.593, 481.659 460.593, 481.659 455.111, 481.659 455.111, 481.659 445.111, 481.659 435.111, 481.659 425.111, 481.659 417.185, 481.659 " />
            <path fill="none" stroke-width="1.5" stroke-linecap="round" stroke-opacity="1.0" stroke="rgb(0, 0, 0)" stroke-linejoin="round" d=" M 417.185, 481.659 417.185, 481.659 417.185, 481.659 417.185, 491.659 417.185, 501.659 417.185, 511.659 417.185, 521.659 417.185, 531.659 417.185, 541.659 417.185, 542.341 417.185, 542.341 " />
            <path fill="none" stroke-width="1.5" stroke-linecap="round" stroke-opacity="1.0" stroke="rgb(0, 0, 0)" stroke-linejoin="round" d=" M 417.185, 542.341 417.185, 542.341 " />
            <path fill="none" stroke-width="1.5" stroke-linecap="round" stroke-opacity="1.0" stroke="rgb(0, 0, 0)" stroke-linejoin="round" d=" M 720.593, 542.341 720.593, 532.341 720.593, 522.341 720.593, 512.341 720.593, 502.341 720.593, 492.341 720.593, 482.341 720.593, 481.659 " />
            <path fill="none" stroke-width="1.5" stroke-linecap="round" stroke-opacity="1.0" stroke="rgb(0, 0, 0)" stroke-linejoin="round" d=" M 720.593, 481.659 720.593, 481.659 " />
            <path fill="none" stroke-width="1.5" stroke-linecap="round" stroke-opacity="1.0" stroke="rgb(0, 0, 0)" stroke-linejoin="round" d=" M 720.593, 542.341 720.593, 542.341 " />
        </g>
    </g>
</svg>
