<?xml version='1.0' encoding='ascii'?>
<svg xmlns="http://www.w3.org/2000/svg" xmlns:inkscape="http://www.inkscape.org/namespaces/inkscape" version="1.1" width="1024" height="1024">
    <g id="ViewLayer_LineSet" inkscape:groupmode="lineset" inkscape:label="ViewLayer_LineSet">
        <g inkscape:groupmode="layer" id="strokes" inkscape:label="strokes">
            <path fill="none" stroke-width="3.0" stroke-linecap="butt" stroke-opacity="1.0" stroke="rgb(0, 0, 0)" stroke-linejoin="round" d=" M 334.222, 654.222 334.222, 664.222 334.222, 674.222 334.222, 684.222 334.222, 689.778 " />
            <path fill="none" stroke-width="3.0" stroke-linecap="butt" stroke-opacity="1.0" stroke="rgb(0, 0, 0)" stroke-linejoin="round" d=" M 689.778, 689.778 689.778, 679.778 689.778, 669.778 689.778, 659.778 689.778, 654.222 " />
            <path fill="none" stroke-width="3.0" stroke-linecap="butt" stroke-opacity="1.0" stroke="rgb(0, 0, 0)" stroke-linejoin="round" d=" M 334.222, 334.222 334.222, 344.222 334.222, 354.222 334.222, 364.222 334.222, 374.222 334.222, 384.222 334.222, 394.222 334.222, 404.222 334.222, 414.222 334.222, 424.222 334.222, 434.222 334.222, 444.222 334.222, 454.222 334.222, 464.222 334.222, 474.222 334.222, 484.222 334.222, 494.222 334.222, 504.222 334.222, 514.222 334.222, 524.222 334.222, 534.222 334.222, 544.222 334.222, 554.222 334.222, 564.222 334.222, 574.222 334.222, 584.222 334.222, 594.222 334.222, 604.222 334.222, 614.222 334.222, 624.222 334.222, 634.222 334.222, 644.222 334.222, 654.222 " />
            <path fill="none" stroke-width="3.0" stroke-linecap="butt" stroke-opacity="1.0" stroke="rgb(0, 0, 0)" stroke-linejoin="round" d=" M 334.222, 689.778 344.222, 689.778 354.222, 689.778 364.222, 689.778 374.222, 689.778 384.222, 689.778 394.222, 689.778 404.222, 689.778 414.222, 689.778 424.222, 689.778 434.222, 689.778 444.222, 689.778 454.222, 689.778 464.222, 689.778 474.222, 689.778 484.222, 689.778 494.222, 689.778 504.222, 689.778 514.222, 689.778 524.222, 689.778 534.222, 689.778 544.222, 689.778 554.222, 689.778 564.222, 689.778 574.222, 689.778 584.222, 689.778 594.222, 689.778 604.222, 689.778 614.222, 689.778 624.222, 689.778 634.222, 689.778 644.222, 689.778 654.222, 689.778 664.222, 689.778 674.222, 689.778 684.222, 689.778 689.778, 689.778 " />
            <path fill="none" stroke-width="3.0" stroke-linecap="butt" stroke-opacity="1.0" stroke="rgb(0, 0, 0)" stroke-linejoin="round" d=" M 387.555, 654.222 377.555, 654.222 367.555, 654.222 357.555, 654.222 347.555, 654.222 337.555, 654.222 334.222, 654.222 " />
            <path fill="none" stroke-width="3.0" stroke-linecap="butt" stroke-opacity="1.0" stroke="rgb(0, 0, 0)" stroke-linejoin="round" d=" M 387.556, 654.222 387.555, 654.222 " />
            <path fill="none" stroke-width="3.0" stroke-linecap="butt" stroke-opacity="1.0" stroke="rgb(0, 0, 0)" stroke-linejoin="round" d=" M 636.444, 654.222 626.444, 654.222 616.444, 654.222 606.444, 654.222 596.444, 654.222 586.444, 654.222 576.444, 654.222 566.444, 654.222 556.444, 654.222 546.444, 654.222 536.444, 654.222 526.444, 654.222 516.444, 654.222 506.444, 654.222 496.444, 654.222 486.444, 654.222 476.444, 654.222 466.444, 654.222 456.444, 654.222 446.444, 654.222 436.444, 654.222 426.444, 654.222 416.444, 654.222 406.444, 654.222 396.444, 654.222 387.556, 654.222 " />
            <path fill="none" stroke-width="3.0" stroke-linecap="butt" stroke-opacity="1.0" stroke="rgb(0, 0, 0)" stroke-linejoin="round" d=" M 636.445, 654.222 636.444, 654.222 " />
            <path fill="none" stroke-width="3.0" stroke-linecap="butt" stroke-opacity="1.0" stroke="rgb(0, 0, 0)" stroke-linejoin="round" d=" M 689.778, 654.222 679.778, 654.222 669.778, 654.222 659.778, 654.222 649.778, 654.222 639.778, 654.222 636.445, 654.222 " />
            <path fill="none" stroke-width="3.0" stroke-linecap="butt" stroke-opacity="1.0" stroke="rgb(0, 0, 0)" stroke-linejoin="round" d=" M 689.778, 334.222 679.778, 334.222 669.778, 334.222 659.778, 334.222 649.778, 334.222 639.778, 334.222 629.778, 334.222 619.778, 334.222 609.778, 334.222 599.778, 334.222 589.778, 334.222 579.778, 334.222 569.778, 334.222 559.778, 334.222 549.778, 334.222 539.778, 334.222 529.778, 334.222 519.778, 334.222 509.778, 334.222 499.778, 334.222 489.778, 334.222 479.778, 334.222 469.778, 334.222 459.778, 334.222 449.778, 334.222 439.778, 334.222 429.778, 334.222 419.778, 334.222 409.778, 334.222 399.778, 334.222 389.778, 334.222 379.778, 334.222 369.778, 334.222 359.778, 334.222 349.778, 334.222 339.778, 334.222 334.222, 334.222 " />
            <path fill="none" stroke-width="3.0" stroke-linecap="butt" stroke-opacity="1.0" stroke="rgb(0, 0, 0)" stroke-linejoin="round" d=" M 689.778, 654.222 689.778, 644.222 689.778, 634.222 689.778, 624.222 689.778, 614.222 689.778, 604.222 689.778, 594.222 689.778, 584.222 689.778, 574.222 689.778, 564.222 689.778, 554.222 689.778, 544.222 689.778, 534.222 689.778, 524.222 689.778, 514.222 689.778, 504.222 689.778, 494.222 689.778, 484.222 689.778, 474.222 689.778, 464.222 689.778, 454.222 689.778, 444.222 689.778, 434.222 689.778, 424.222 689.778, 414.222 689.778, 404.222 689.778, 394.222 689.778, 384.222 689.778, 374.222 689.778, 364.222 689.778, 354.222 689.778, 344.222 689.778, 334.222 " />
        </g>
    </g>
    <g id="ViewLayer_TechnicalLines" inkscape:groupmode="lineset" inkscape:label="ViewLayer_TechnicalLines">
        <g inkscape:groupmode="layer" id="strokes" inkscape:label="strokes">
            <path fill="none" stroke-width="3.0" stroke-linecap="butt" stroke-opacity="1.0" stroke="rgb(0, 0, 0)" stroke-linejoin="round" d=" M 334.222, 654.222 334.222, 664.222 334.222, 674.222 334.222, 684.222 334.222, 689.778 " />
            <path fill="none" stroke-width="3.0" stroke-linecap="butt" stroke-opacity="1.0" stroke="rgb(0, 0, 0)" stroke-linejoin="round" d=" M 689.778, 689.778 689.778, 679.778 689.778, 669.778 689.778, 659.778 689.778, 654.222 " />
            <path fill="none" stroke-width="3.0" stroke-linecap="butt" stroke-opacity="1.0" stroke="rgb(0, 0, 0)" stroke-linejoin="round" d=" M 334.222, 334.222 334.222, 344.222 334.222, 354.222 334.222, 364.222 334.222, 374.222 334.222, 384.222 334.222, 394.222 334.222, 404.222 334.222, 414.222 334.222, 424.222 334.222, 434.222 334.222, 444.222 334.222, 454.222 334.222, 464.222 334.222, 474.222 334.222, 484.222 334.222, 494.222 334.222, 504.222 334.222, 514.222 334.222, 524.222 334.222, 534.222 334.222, 544.222 334.222, 554.222 334.222, 564.222 334.222, 574.222 334.222, 584.222 334.222, 594.222 334.222, 604.222 334.222, 614.222 334.222, 624.222 334.222, 634.222 334.222, 644.222 334.222, 654.222 " />
            <path fill="none" stroke-width="3.0" stroke-linecap="butt" stroke-opacity="1.0" stroke="rgb(0, 0, 0)" stroke-linejoin="round" d=" M 334.222, 689.778 344.222, 689.778 354.222, 689.778 364.222, 689.778 374.222, 689.778 384.222, 689.778 394.222, 689.778 404.222, 689.778 414.222, 689.778 424.222, 689.778 434.222, 689.778 444.222, 689.778 454.222, 689.778 464.222, 689.778 474.222, 689.778 484.222, 689.778 494.222, 689.778 504.222, 689.778 514.222, 689.778 524.222, 689.778 534.222, 689.778 544.222, 689.778 554.222, 689.778 564.222, 689.778 574.222, 689.778 584.222, 689.778 594.222, 689.778 604.222, 689.778 614.222, 689.778 624.222, 689.778 634.222, 689.778 644.222, 689.778 654.222, 689.778 664.222, 689.778 674.222, 689.778 684.222, 689.778 689.778, 689.778 " />
            <path fill="none" stroke-width="3.0" stroke-linecap="butt" stroke-opacity="1.0" stroke="rgb(0, 0, 0)" stroke-linejoin="round" d=" M 387.555, 654.222 377.555, 654.222 367.555, 654.222 357.555, 654.222 347.555, 654.222 337.555, 654.222 334.222, 654.222 " />
            <path fill="none" stroke-width="3.0" stroke-linecap="butt" stroke-opacity="1.0" stroke="rgb(0, 0, 0)" stroke-linejoin="round" d=" M 387.556, 654.222 387.555, 654.222 " />
            <path fill="none" stroke-width="3.0" stroke-linecap="butt" stroke-opacity="1.0" stroke="rgb(0, 0, 0)" stroke-linejoin="round" d=" M 636.444, 654.222 626.444, 654.222 616.444, 654.222 606.444, 654.222 596.444, 654.222 586.444, 654.222 576.444, 654.222 566.444, 654.222 556.444, 654.222 546.444, 654.222 536.444, 654.222 526.444, 654.222 516.444, 654.222 506.444, 654.222 496.444, 654.222 486.444, 654.222 476.444, 654.222 466.444, 654.222 456.444, 654.222 446.444, 654.222 436.444, 654.222 426.444, 654.222 416.444, 654.222 406.444, 654.222 396.444, 654.222 387.556, 654.222 " />
            <path fill="none" stroke-width="3.0" stroke-linecap="butt" stroke-opacity="1.0" stroke="rgb(0, 0, 0)" stroke-linejoin="round" d=" M 636.445, 654.222 636.444, 654.222 " />
            <path fill="none" stroke-width="3.0" stroke-linecap="butt" stroke-opacity="1.0" stroke="rgb(0, 0, 0)" stroke-linejoin="round" d=" M 689.778, 654.222 679.778, 654.222 669.778, 654.222 659.778, 654.222 649.778, 654.222 639.778, 654.222 636.445, 654.222 " />
            <path fill="none" stroke-width="3.0" stroke-linecap="butt" stroke-opacity="1.0" stroke="rgb(0, 0, 0)" stroke-linejoin="round" d=" M 689.778, 334.222 679.778, 334.222 669.778, 334.222 659.778, 334.222 649.778, 334.222 639.778, 334.222 629.778, 334.222 619.778, 334.222 609.778, 334.222 599.778, 334.222 589.778, 334.222 579.778, 334.222 569.778, 334.222 559.778, 334.222 549.778, 334.222 539.778, 334.222 529.778, 334.222 519.778, 334.222 509.778, 334.222 499.778, 334.222 489.778, 334.222 479.778, 334.222 469.778, 334.222 459.778, 334.222 449.778, 334.222 439.778, 334.222 429.778, 334.222 419.778, 334.222 409.778, 334.222 399.778, 334.222 389.778, 334.222 379.778, 334.222 369.778, 334.222 359.778, 334.222 349.778, 334.222 339.778, 334.222 334.222, 334.222 " />
            <path fill="none" stroke-width="3.0" stroke-linecap="butt" stroke-opacity="1.0" stroke="rgb(0, 0, 0)" stroke-linejoin="round" d=" M 689.778, 654.222 689.778, 644.222 689.778, 634.222 689.778, 624.222 689.778, 614.222 689.778, 604.222 689.778, 594.222 689.778, 584.222 689.778, 574.222 689.778, 564.222 689.778, 554.222 689.778, 544.222 689.778, 534.222 689.778, 524.222 689.778, 514.222 689.778, 504.222 689.778, 494.222 689.778, 484.222 689.778, 474.222 689.778, 464.222 689.778, 454.222 689.778, 444.222 689.778, 434.222 689.778, 424.222 689.778, 414.222 689.778, 404.222 689.778, 394.222 689.778, 384.222 689.778, 374.222 689.778, 364.222 689.778, 354.222 689.778, 344.222 689.778, 334.222 " />
        </g>
    </g>
    <g id="ViewLayer_TechnicalLines.001" inkscape:groupmode="lineset" inkscape:label="ViewLayer_TechnicalLines.001">
        <g inkscape:groupmode="layer" id="strokes" inkscape:label="strokes">
            <path fill="none" stroke-width="1.5" stroke-linecap="round" stroke-opacity="1.0" stroke="rgb(0, 0, 0)" stroke-linejoin="round" d=" M 334.222, 654.222 334.222, 664.222 334.222, 674.222 334.222, 684.222 334.222, 689.778 " />
            <path fill="none" stroke-width="1.5" stroke-linecap="round" stroke-opacity="1.0" stroke="rgb(0, 0, 0)" stroke-linejoin="round" d=" M 689.778, 689.778 689.778, 679.778 689.778, 669.778 689.778, 659.778 689.778, 654.222 " />
            <path fill="none" stroke-width="1.5" stroke-linecap="round" stroke-opacity="1.0" stroke="rgb(0, 0, 0)" stroke-linejoin="round" d=" M 334.222, 334.222 334.222, 344.222 334.222, 354.222 334.222, 364.222 334.222, 374.222 334.222, 384.222 334.222, 394.222 334.222, 404.222 334.222, 414.222 334.222, 424.222 334.222, 434.222 334.222, 444.222 334.222, 454.222 334.222, 464.222 334.222, 474.222 334.222, 484.222 334.222, 494.222 334.222, 504.222 334.222, 514.222 334.222, 524.222 334.222, 534.222 334.222, 544.222 334.222, 554.222 334.222, 564.222 334.222, 574.222 334.222, 584.222 334.222, 594.222 334.222, 604.222 334.222, 614.222 334.222, 624.222 334.222, 634.222 334.222, 644.222 334.222, 654.222 " />
            <path fill="none" stroke-width="1.5" stroke-linecap="round" stroke-opacity="1.0" stroke="rgb(0, 0, 0)" stroke-linejoin="round" d=" M 334.222, 689.778 344.222, 689.778 354.222, 689.778 364.222, 689.778 374.222, 689.778 384.222, 689.778 394.222, 689.778 404.222, 689.778 414.222, 689.778 424.222, 689.778 434.222, 689.778 444.222, 689.778 454.222, 689.778 464.222, 689.778 474.222, 689.778 484.222, 689.778 494.222, 689.778 504.222, 689.778 514.222, 689.778 524.222, 689.778 534.222, 689.778 544.222, 689.778 554.222, 689.778 564.222, 689.778 574.222, 689.778 584.222, 689.778 594.222, 689.778 604.222, 689.778 614.222, 689.778 624.222, 689.778 634.222, 689.778 644.222, 689.778 654.222, 689.778 664.222, 689.778 674.222, 689.778 684.222, 689.778 689.778, 689.778 " />
            <path fill="none" stroke-width="1.5" stroke-linecap="round" stroke-opacity="1.0" stroke="rgb(0, 0, 0)" stroke-linejoin="round" d=" M 387.555, 654.222 377.555, 654.222 367.555, 654.222 357.555, 654.222 347.555, 654.222 337.555, 654.222 334.222, 654.222 " />
            <path fill="none" stroke-width="1.5" stroke-linecap="round" stroke-opacity="1.0" stroke="rgb(0, 0, 0)" stroke-linejoin="round" d=" M 387.556, 654.222 387.555, 654.222 " />
            <path fill="none" stroke-width="1.5" stroke-linecap="round" stroke-opacity="1.0" stroke="rgb(0, 0, 0)" stroke-linejoin="round" d=" M 636.444, 654.222 626.444, 654.222 616.444, 654.222 606.444, 654.222 596.444, 654.222 586.444, 654.222 576.444, 654.222 566.444, 654.222 556.444, 654.222 546.444, 654.222 536.444, 654.222 526.444, 654.222 516.444, 654.222 506.444, 654.222 496.444, 654.222 486.444, 654.222 476.444, 654.222 466.444, 654.222 456.444, 654.222 446.444, 654.222 436.444, 654.222 426.444, 654.222 416.444, 654.222 406.444, 654.222 396.444, 654.222 387.556, 654.222 " />
            <path fill="none" stroke-width="1.5" stroke-linecap="round" stroke-opacity="1.0" stroke="rgb(0, 0, 0)" stroke-linejoin="round" d=" M 636.445, 654.222 636.444, 654.222 " />
            <path fill="none" stroke-width="1.5" stroke-linecap="round" stroke-opacity="1.0" stroke="rgb(0, 0, 0)" stroke-linejoin="round" d=" M 689.778, 654.222 679.778, 654.222 669.778, 654.222 659.778, 654.222 649.778, 654.222 639.778, 654.222 636.445, 654.222 " />
            <path fill="none" stroke-width="1.5" stroke-linecap="round" stroke-opacity="1.0" stroke="rgb(0, 0, 0)" stroke-linejoin="round" d=" M 689.778, 334.222 679.778, 334.222 669.778, 334.222 659.778, 334.222 649.778, 334.222 639.778, 334.222 629.778, 334.222 619.778, 334.222 609.778, 334.222 599.778, 334.222 589.778, 334.222 579.778, 334.222 569.778, 334.222 559.778, 334.222 549.778, 334.222 539.778, 334.222 529.778, 334.222 519.778, 334.222 509.778, 334.222 499.778, 334.222 489.778, 334.222 479.778, 334.222 469.778, 334.222 459.778, 334.222 449.778, 334.222 439.778, 334.222 429.778, 334.222 419.778, 334.222 409.778, 334.222 399.778, 334.222 389.778, 334.222 379.778, 334.222 369.778, 334.222 359.778, 334.222 349.778, 334.222 339.778, 334.222 334.222, 334.222 " />
            <path fill="none" stroke-width="1.5" stroke-linecap="round" stroke-opacity="1.0" stroke="rgb(0, 0, 0)" stroke-linejoin="round" d=" M 689.778, 654.222 689.778, 644.222 689.778, 634.222 689.778, 624.222 689.778, 614.222 689.778, 604.222 689.778, 594.222 689.778, 584.222 689.778, 574.222 689.778, 564.222 689.778, 554.222 689.778, 544.222 689.778, 534.222 689.778, 524.222 689.778, 514.222 689.778, 504.222 689.778, 494.222 689.778, 484.222 689.778, 474.222 689.778, 464.222 689.778, 454.222 689.778, 444.222 689.778, 434.222 689.778, 424.222 689.778, 414.222 689.778, 404.222 689.778, 394.222 689.778, 384.222 689.778, 374.222 689.778, 364.222 689.778, 354.222 689.778, 344.222 689.778, 334.222 " />
        </g>
    </g>
    <g id="ViewLayer_TechnicalLines.002" inkscape:groupmode="lineset" inkscape:label="ViewLayer_TechnicalLines.002">
        <g inkscape:groupmode="layer" id="strokes" inkscape:label="strokes">
            <path fill="none" stroke-width="1.5" stroke-linecap="round" stroke-opacity="1.0" stroke="rgb(0, 0, 0)" stroke-linejoin="round" d=" M 334.222, 654.222 334.222, 664.222 334.222, 674.222 334.222, 684.222 334.222, 689.778 " />
            <path fill="none" stroke-width="1.5" stroke-linecap="round" stroke-opacity="1.0" stroke="rgb(0, 0, 0)" stroke-linejoin="round" d=" M 689.778, 689.778 689.778, 679.778 689.778, 669.778 689.778, 659.778 689.778, 654.222 " />
            <path fill="none" stroke-width="1.5" stroke-linecap="round" stroke-opacity="1.0" stroke="rgb(0, 0, 0)" stroke-linejoin="round" d=" M 334.222, 334.222 334.222, 344.222 334.222, 354.222 334.222, 364.222 334.222, 374.222 334.222, 384.222 334.222, 394.222 334.222, 404.222 334.222, 414.222 334.222, 424.222 334.222, 434.222 334.222, 444.222 334.222, 454.222 334.222, 464.222 334.222, 474.222 334.222, 484.222 334.222, 494.222 334.222, 504.222 334.222, 514.222 334.222, 524.222 334.222, 534.222 334.222, 544.222 334.222, 554.222 334.222, 564.222 334.222, 574.222 334.222, 584.222 334.222, 594.222 334.222, 604.222 334.222, 614.222 334.222, 624.222 334.222, 634.222 334.222, 644.222 334.222, 654.222 " />
            <path fill="none" stroke-width="1.5" stroke-linecap="round" stroke-opacity="1.0" stroke="rgb(0, 0, 0)" stroke-linejoin="round" d=" M 334.222, 689.778 344.222, 689.778 354.222, 689.778 364.222, 689.778 374.222, 689.778 384.222, 689.778 394.222, 689.778 404.222, 689.778 414.222, 689.778 424.222, 689.778 434.222, 689.778 444.222, 689.778 454.222, 689.778 464.222, 689.778 474.222, 689.778 484.222, 689.778 494.222, 689.778 504.222, 689.778 514.222, 689.778 524.222, 689.778 534.222, 689.778 544.222, 689.778 554.222, 689.778 564.222, 689.778 574.222, 689.778 584.222, 689.778 594.222, 689.778 604.222, 689.778 614.222, 689.778 624.222, 689.778 634.222, 689.778 644.222, 689.778 654.222, 689.778 664.222, 689.778 674.222, 689.778 684.222, 689.778 689.778, 689.778 " />
            <path fill="none" stroke-width="1.5" stroke-linecap="round" stroke-opacity="1.0" stroke="rgb(0, 0, 0)" stroke-linejoin="round" d=" M 387.555, 654.222 377.555, 654.222 367.555, 654.222 357.555, 654.222 347.555, 654.222 337.555, 654.222 334.222, 654.222 " />
            <path fill="none" stroke-width="1.5" stroke-linecap="round" stroke-opacity="1.0" stroke="rgb(0, 0, 0)" stroke-linejoin="round" d=" M 387.556, 654.222 387.555, 654.222 " />
            <path fill="none" stroke-width="1.5" stroke-linecap="round" stroke-opacity="1.0" stroke="rgb(0, 0, 0)" stroke-linejoin="round" d=" M 636.444, 654.222 626.444, 654.222 616.444, 654.222 606.444, 654.222 596.444, 654.222 586.444, 654.222 576.444, 654.222 566.444, 654.222 556.444, 654.222 546.444, 654.222 536.444, 654.222 526.444, 654.222 516.444, 654.222 506.444, 654.222 496.444, 654.222 486.444, 654.222 476.444, 654.222 466.444, 654.222 456.444, 654.222 446.444, 654.222 436.444, 654.222 426.444, 654.222 416.444, 654.222 406.444, 654.222 396.444, 654.222 387.556, 654.222 " />
            <path fill="none" stroke-width="1.5" stroke-linecap="round" stroke-opacity="1.0" stroke="rgb(0, 0, 0)" stroke-linejoin="round" d=" M 636.445, 654.222 636.444, 654.222 " />
            <path fill="none" stroke-width="1.5" stroke-linecap="round" stroke-opacity="1.0" stroke="rgb(0, 0, 0)" stroke-linejoin="round" d=" M 689.778, 654.222 679.778, 654.222 669.778, 654.222 659.778, 654.222 649.778, 654.222 639.778, 654.222 636.445, 654.222 " />
            <path fill="none" stroke-width="1.5" stroke-linecap="round" stroke-opacity="1.0" stroke="rgb(0, 0, 0)" stroke-linejoin="round" d=" M 689.778, 334.222 679.778, 334.222 669.778, 334.222 659.778, 334.222 649.778, 334.222 639.778, 334.222 629.778, 334.222 619.778, 334.222 609.778, 334.222 599.778, 334.222 589.778, 334.222 579.778, 334.222 569.778, 334.222 559.778, 334.222 549.778, 334.222 539.778, 334.222 529.778, 334.222 519.778, 334.222 509.778, 334.222 499.778, 334.222 489.778, 334.222 479.778, 334.222 469.778, 334.222 459.778, 334.222 449.778, 334.222 439.778, 334.222 429.778, 334.222 419.778, 334.222 409.778, 334.222 399.778, 334.222 389.778, 334.222 379.778, 334.222 369.778, 334.222 359.778, 334.222 349.778, 334.222 339.778, 334.222 334.222, 334.222 " />
            <path fill="none" stroke-width="1.5" stroke-linecap="round" stroke-opacity="1.0" stroke="rgb(0, 0, 0)" stroke-linejoin="round" d=" M 689.778, 654.222 689.778, 644.222 689.778, 634.222 689.778, 624.222 689.778, 614.222 689.778, 604.222 689.778, 594.222 689.778, 584.222 689.778, 574.222 689.778, 564.222 689.778, 554.222 689.778, 544.222 689.778, 534.222 689.778, 524.222 689.778, 514.222 689.778, 504.222 689.778, 494.222 689.778, 484.222 689.778, 474.222 689.778, 464.222 689.778, 454.222 689.778, 444.222 689.778, 434.222 689.778, 424.222 689.778, 414.222 689.778, 404.222 689.778, 394.222 689.778, 384.222 689.778, 374.222 689.778, 364.222 689.778, 354.222 689.778, 344.222 689.778, 334.222 " />
        </g>
    </g>
    <g id="ViewLayer_TechnicalLines.003" inkscape:groupmode="lineset" inkscape:label="ViewLayer_TechnicalLines.003">
        <g inkscape:groupmode="layer" id="strokes" inkscape:label="strokes">
            <path fill="none" stroke-width="1.5" stroke-linecap="round" stroke-opacity="1.0" stroke="rgb(0, 0, 0)" stroke-linejoin="round" d=" M 334.222, 654.222 334.222, 664.222 334.222, 674.222 334.222, 684.222 334.222, 689.778 " />
            <path fill="none" stroke-width="1.5" stroke-linecap="round" stroke-opacity="1.0" stroke="rgb(0, 0, 0)" stroke-linejoin="round" d=" M 689.778, 689.778 689.778, 679.778 689.778, 669.778 689.778, 659.778 689.778, 654.222 " />
            <path fill="none" stroke-width="1.5" stroke-linecap="round" stroke-opacity="1.0" stroke="rgb(0, 0, 0)" stroke-linejoin="round" d=" M 334.222, 334.222 334.222, 344.222 334.222, 354.222 334.222, 364.222 334.222, 374.222 334.222, 384.222 334.222, 394.222 334.222, 404.222 334.222, 414.222 334.222, 424.222 334.222, 434.222 334.222, 444.222 334.222, 454.222 334.222, 464.222 334.222, 474.222 334.222, 484.222 334.222, 494.222 334.222, 504.222 334.222, 514.222 334.222, 524.222 334.222, 534.222 334.222, 544.222 334.222, 554.222 334.222, 564.222 334.222, 574.222 334.222, 584.222 334.222, 594.222 334.222, 604.222 334.222, 614.222 334.222, 624.222 334.222, 634.222 334.222, 644.222 334.222, 654.222 " />
            <path fill="none" stroke-width="1.5" stroke-linecap="round" stroke-opacity="1.0" stroke="rgb(0, 0, 0)" stroke-linejoin="round" d=" M 334.222, 689.778 344.222, 689.778 354.222, 689.778 364.222, 689.778 374.222, 689.778 384.222, 689.778 394.222, 689.778 404.222, 689.778 414.222, 689.778 424.222, 689.778 434.222, 689.778 444.222, 689.778 454.222, 689.778 464.222, 689.778 474.222, 689.778 484.222, 689.778 494.222, 689.778 504.222, 689.778 514.222, 689.778 524.222, 689.778 534.222, 689.778 544.222, 689.778 554.222, 689.778 564.222, 689.778 574.222, 689.778 584.222, 689.778 594.222, 689.778 604.222, 689.778 614.222, 689.778 624.222, 689.778 634.222, 689.778 644.222, 689.778 654.222, 689.778 664.222, 689.778 674.222, 689.778 684.222, 689.778 689.778, 689.778 " />
            <path fill="none" stroke-width="1.5" stroke-linecap="round" stroke-opacity="1.0" stroke="rgb(0, 0, 0)" stroke-linejoin="round" d=" M 387.555, 654.222 377.555, 654.222 367.555, 654.222 357.555, 654.222 347.555, 654.222 337.555, 654.222 334.222, 654.222 " />
            <path fill="none" stroke-width="1.5" stroke-linecap="round" stroke-opacity="1.0" stroke="rgb(0, 0, 0)" stroke-linejoin="round" d=" M 387.556, 654.222 387.555, 654.222 " />
            <path fill="none" stroke-width="1.5" stroke-linecap="round" stroke-opacity="1.0" stroke="rgb(0, 0, 0)" stroke-linejoin="round" d=" M 636.444, 654.222 626.444, 654.222 616.444, 654.222 606.444, 654.222 596.444, 654.222 586.444, 654.222 576.444, 654.222 566.444, 654.222 556.444, 654.222 546.444, 654.222 536.444, 654.222 526.444, 654.222 516.444, 654.222 506.444, 654.222 496.444, 654.222 486.444, 654.222 476.444, 654.222 466.444, 654.222 456.444, 654.222 446.444, 654.222 436.444, 654.222 426.444, 654.222 416.444, 654.222 406.444, 654.222 396.444, 654.222 387.556, 654.222 " />
            <path fill="none" stroke-width="1.5" stroke-linecap="round" stroke-opacity="1.0" stroke="rgb(0, 0, 0)" stroke-linejoin="round" d=" M 636.445, 654.222 636.444, 654.222 " />
            <path fill="none" stroke-width="1.5" stroke-linecap="round" stroke-opacity="1.0" stroke="rgb(0, 0, 0)" stroke-linejoin="round" d=" M 689.778, 654.222 679.778, 654.222 669.778, 654.222 659.778, 654.222 649.778, 654.222 639.778, 654.222 636.445, 654.222 " />
            <path fill="none" stroke-width="1.5" stroke-linecap="round" stroke-opacity="1.0" stroke="rgb(0, 0, 0)" stroke-linejoin="round" d=" M 689.778, 334.222 679.778, 334.222 669.778, 334.222 659.778, 334.222 649.778, 334.222 639.778, 334.222 629.778, 334.222 619.778, 334.222 609.778, 334.222 599.778, 334.222 589.778, 334.222 579.778, 334.222 569.778, 334.222 559.778, 334.222 549.778, 334.222 539.778, 334.222 529.778, 334.222 519.778, 334.222 509.778, 334.222 499.778, 334.222 489.778, 334.222 479.778, 334.222 469.778, 334.222 459.778, 334.222 449.778, 334.222 439.778, 334.222 429.778, 334.222 419.778, 334.222 409.778, 334.222 399.778, 334.222 389.778, 334.222 379.778, 334.222 369.778, 334.222 359.778, 334.222 349.778, 334.222 339.778, 334.222 334.222, 334.222 " />
            <path fill="none" stroke-width="1.5" stroke-linecap="round" stroke-opacity="1.0" stroke="rgb(0, 0, 0)" stroke-linejoin="round" d=" M 689.778, 654.222 689.778, 644.222 689.778, 634.222 689.778, 624.222 689.778, 614.222 689.778, 604.222 689.778, 594.222 689.778, 584.222 689.778, 574.222 689.778, 564.222 689.778, 554.222 689.778, 544.222 689.778, 534.222 689.778, 524.222 689.778, 514.222 689.778, 504.222 689.778, 494.222 689.778, 484.222 689.778, 474.222 689.778, 464.222 689.778, 454.222 689.778, 444.222 689.778, 434.222 689.778, 424.222 689.778, 414.222 689.778, 404.222 689.778, 394.222 689.778, 384.222 689.778, 374.222 689.778, 364.222 689.778, 354.222 689.778, 344.222 689.778, 334.222 " />
        </g>
    </g>
    <g id="ViewLayer_TechnicalLines.004" xmlns:inkscape="http://www.inkscape.org/namespaces/inkscape" inkscape:groupmode="lineset" inkscape:label="ViewLayer_TechnicalLines.004">
        <g xmlns:inkscape="http://www.inkscape.org/namespaces/inkscape" inkscape:groupmode="layer" id="strokes" inkscape:label="strokes">
            <path fill="none" stroke-width="1.5" stroke-linecap="round" stroke-opacity="1.0" stroke="rgb(0, 0, 0)" stroke-linejoin="round" d=" M 334.222, 654.222 334.222, 664.222 334.222, 674.222 334.222, 684.222 334.222, 689.778 " />
            <path fill="none" stroke-width="1.5" stroke-linecap="round" stroke-opacity="1.0" stroke="rgb(0, 0, 0)" stroke-linejoin="round" d=" M 689.778, 689.778 689.778, 679.778 689.778, 669.778 689.778, 659.778 689.778, 654.222 " />
            <path fill="none" stroke-width="1.5" stroke-linecap="round" stroke-opacity="1.0" stroke="rgb(0, 0, 0)" stroke-linejoin="round" d=" M 334.222, 334.222 334.222, 344.222 334.222, 354.222 334.222, 364.222 334.222, 374.222 334.222, 384.222 334.222, 394.222 334.222, 404.222 334.222, 414.222 334.222, 424.222 334.222, 434.222 334.222, 444.222 334.222, 454.222 334.222, 464.222 334.222, 474.222 334.222, 484.222 334.222, 494.222 334.222, 504.222 334.222, 514.222 334.222, 524.222 334.222, 534.222 334.222, 544.222 334.222, 554.222 334.222, 564.222 334.222, 574.222 334.222, 584.222 334.222, 594.222 334.222, 604.222 334.222, 614.222 334.222, 624.222 334.222, 634.222 334.222, 644.222 334.222, 654.222 " />
            <path fill="none" stroke-width="1.5" stroke-linecap="round" stroke-opacity="1.0" stroke="rgb(0, 0, 0)" stroke-linejoin="round" d=" M 334.222, 689.778 344.222, 689.778 354.222, 689.778 364.222, 689.778 374.222, 689.778 384.222, 689.778 394.222, 689.778 404.222, 689.778 414.222, 689.778 424.222, 689.778 434.222, 689.778 444.222, 689.778 454.222, 689.778 464.222, 689.778 474.222, 689.778 484.222, 689.778 494.222, 689.778 504.222, 689.778 514.222, 689.778 524.222, 689.778 534.222, 689.778 544.222, 689.778 554.222, 689.778 564.222, 689.778 574.222, 689.778 584.222, 689.778 594.222, 689.778 604.222, 689.778 614.222, 689.778 624.222, 689.778 634.222, 689.778 644.222, 689.778 654.222, 689.778 664.222, 689.778 674.222, 689.778 684.222, 689.778 689.778, 689.778 " />
            <path fill="none" stroke-width="1.5" stroke-linecap="round" stroke-opacity="1.0" stroke="rgb(0, 0, 0)" stroke-linejoin="round" d=" M 387.555, 654.222 377.555, 654.222 367.555, 654.222 357.555, 654.222 347.555, 654.222 337.555, 654.222 334.222, 654.222 " />
            <path fill="none" stroke-width="1.5" stroke-linecap="round" stroke-opacity="1.0" stroke="rgb(0, 0, 0)" stroke-linejoin="round" d=" M 387.556, 654.222 387.555, 654.222 " />
            <path fill="none" stroke-width="1.5" stroke-linecap="round" stroke-opacity="1.0" stroke="rgb(0, 0, 0)" stroke-linejoin="round" d=" M 636.444, 654.222 626.444, 654.222 616.444, 654.222 606.444, 654.222 596.444, 654.222 586.444, 654.222 576.444, 654.222 566.444, 654.222 556.444, 654.222 546.444, 654.222 536.444, 654.222 526.444, 654.222 516.444, 654.222 506.444, 654.222 496.444, 654.222 486.444, 654.222 476.444, 654.222 466.444, 654.222 456.444, 654.222 446.444, 654.222 436.444, 654.222 426.444, 654.222 416.444, 654.222 406.444, 654.222 396.444, 654.222 387.556, 654.222 " />
            <path fill="none" stroke-width="1.5" stroke-linecap="round" stroke-opacity="1.0" stroke="rgb(0, 0, 0)" stroke-linejoin="round" d=" M 636.445, 654.222 636.444, 654.222 " />
            <path fill="none" stroke-width="1.5" stroke-linecap="round" stroke-opacity="1.0" stroke="rgb(0, 0, 0)" stroke-linejoin="round" d=" M 689.778, 654.222 679.778, 654.222 669.778, 654.222 659.778, 654.222 649.778, 654.222 639.778, 654.222 636.445, 654.222 " />
            <path fill="none" stroke-width="1.5" stroke-linecap="round" stroke-opacity="1.0" stroke="rgb(0, 0, 0)" stroke-linejoin="round" d=" M 689.778, 334.222 679.778, 334.222 669.778, 334.222 659.778, 334.222 649.778, 334.222 639.778, 334.222 629.778, 334.222 619.778, 334.222 609.778, 334.222 599.778, 334.222 589.778, 334.222 579.778, 334.222 569.778, 334.222 559.778, 334.222 549.778, 334.222 539.778, 334.222 529.778, 334.222 519.778, 334.222 509.778, 334.222 499.778, 334.222 489.778, 334.222 479.778, 334.222 469.778, 334.222 459.778, 334.222 449.778, 334.222 439.778, 334.222 429.778, 334.222 419.778, 334.222 409.778, 334.222 399.778, 334.222 389.778, 334.222 379.778, 334.222 369.778, 334.222 359.778, 334.222 349.778, 334.222 339.778, 334.222 334.222, 334.222 " />
            <path fill="none" stroke-width="1.5" stroke-linecap="round" stroke-opacity="1.0" stroke="rgb(0, 0, 0)" stroke-linejoin="round" d=" M 689.778, 654.222 689.778, 644.222 689.778, 634.222 689.778, 624.222 689.778, 614.222 689.778, 604.222 689.778, 594.222 689.778, 584.222 689.778, 574.222 689.778, 564.222 689.778, 554.222 689.778, 544.222 689.778, 534.222 689.778, 524.222 689.778, 514.222 689.778, 504.222 689.778, 494.222 689.778, 484.222 689.778, 474.222 689.778, 464.222 689.778, 454.222 689.778, 444.222 689.778, 434.222 689.778, 424.222 689.778, 414.222 689.778, 404.222 689.778, 394.222 689.778, 384.222 689.778, 374.222 689.778, 364.222 689.778, 354.222 689.778, 344.222 689.778, 334.222 " />
        </g>
    </g>
</svg>
