<?xml version='1.0' encoding='ascii'?>
<svg xmlns="http://www.w3.org/2000/svg" xmlns:inkscape="http://www.inkscape.org/namespaces/inkscape" version="1.1" width="1024" height="1024">
    <g id="ViewLayer_LineSet" inkscape:groupmode="lineset" inkscape:label="ViewLayer_LineSet">
        <g inkscape:groupmode="layer" id="strokes" inkscape:label="strokes">
            <path fill="none" stroke-width="3.0" stroke-linecap="butt" stroke-opacity="1.0" stroke="rgb(0, 0, 0)" stroke-linejoin="round" d=" M 397.650, 796.444 397.650, 786.444 397.650, 776.444 397.650, 766.444 397.650, 756.444 397.650, 746.444 397.650, 736.444 397.650, 726.444 397.650, 716.444 397.650, 706.444 397.650, 696.444 397.650, 686.444 397.650, 676.444 397.650, 666.444 397.650, 656.444 397.650, 646.444 397.650, 636.444 397.650, 624.920 397.101, 624.920 395.474, 624.920 392.833, 624.920 389.277, 624.920 384.945, 624.920 380.003, 624.920 374.640, 624.920 369.063, 624.920 363.486, 624.920 358.123, 624.920 353.181, 624.920 348.849, 624.920 345.294, 624.920 342.652, 624.920 341.025, 624.920 340.476, 624.920 340.476, 634.920 340.476, 644.920 340.476, 654.920 340.476, 664.920 340.476, 674.920 340.476, 684.920 340.476, 694.920 340.476, 704.920 340.476, 714.920 340.476, 724.920 340.476, 734.920 340.476, 744.920 340.476, 754.920 340.476, 764.920 340.476, 774.920 340.476, 784.920 340.476, 796.444 341.025, 796.444 342.652, 796.444 345.294, 796.444 348.849, 796.444 353.181, 796.444 358.123, 796.444 363.486, 796.444 369.063, 796.444 374.640, 796.444 380.003, 796.444 384.945, 796.444 389.277, 796.444 392.833, 796.444 395.474, 796.444 397.101, 796.444 397.650, 796.444 " />
            <path fill="none" stroke-width="3.0" stroke-linecap="butt" stroke-opacity="1.0" stroke="rgb(0, 0, 0)" stroke-linejoin="round" d=" M 683.524, 796.444 683.524, 786.444 683.524, 776.444 683.524, 766.444 683.524, 756.444 683.524, 746.444 683.524, 736.444 683.524, 726.444 683.524, 716.444 683.524, 706.444 683.524, 696.444 683.524, 686.444 683.524, 676.444 683.524, 666.444 683.524, 656.444 683.524, 646.444 683.524, 636.444 683.524, 624.920 682.975, 624.920 681.348, 624.920 678.706, 624.920 675.151, 624.920 670.819, 624.920 665.877, 624.920 660.514, 624.920 654.937, 624.920 649.360, 624.920 643.997, 624.920 639.055, 624.920 634.723, 624.920 631.167, 624.920 628.526, 624.920 626.899, 624.920 626.350, 624.920 626.350, 634.920 626.350, 644.920 626.350, 654.920 626.350, 664.920 626.350, 674.920 626.350, 684.920 626.350, 694.920 626.350, 704.920 626.350, 714.920 626.350, 724.920 626.350, 734.920 626.350, 744.920 626.350, 754.920 626.350, 764.920 626.350, 774.920 626.350, 784.920 626.350, 796.444 626.899, 796.444 628.526, 796.444 631.167, 796.444 634.723, 796.444 639.055, 796.444 643.997, 796.444 649.360, 796.444 654.937, 796.444 660.514, 796.444 665.877, 796.444 670.819, 796.444 675.151, 796.444 678.706, 796.444 681.348, 796.444 682.975, 796.444 683.524, 796.444 " />
            <path fill="none" stroke-width="3.0" stroke-linecap="butt" stroke-opacity="1.0" stroke="rgb(0, 0, 0)" stroke-linejoin="round" d=" M 397.101, 624.920 397.650, 624.920 " />
            <path fill="none" stroke-width="3.0" stroke-linecap="butt" stroke-opacity="1.0" stroke="rgb(0, 0, 0)" stroke-linejoin="round" d=" M 353.181, 624.920 348.849, 624.920 " />
            <path fill="none" stroke-width="3.0" stroke-linecap="butt" stroke-opacity="1.0" stroke="rgb(0, 0, 0)" stroke-linejoin="round" d=" M 340.476, 624.920 341.025, 624.920 " />
            <path fill="none" stroke-width="3.0" stroke-linecap="butt" stroke-opacity="1.0" stroke="rgb(0, 0, 0)" stroke-linejoin="round" d=" M 348.849, 624.920 353.181, 624.920 " />
            <path fill="none" stroke-width="3.0" stroke-linecap="butt" stroke-opacity="1.0" stroke="rgb(0, 0, 0)" stroke-linejoin="round" d=" M 670.819, 624.920 675.151, 624.920 " />
            <path fill="none" stroke-width="3.0" stroke-linecap="butt" stroke-opacity="1.0" stroke="rgb(0, 0, 0)" stroke-linejoin="round" d=" M 682.975, 624.920 683.524, 624.920 " />
            <path fill="none" stroke-width="3.0" stroke-linecap="butt" stroke-opacity="1.0" stroke="rgb(0, 0, 0)" stroke-linejoin="round" d=" M 675.151, 624.920 670.819, 624.920 " />
            <path fill="none" stroke-width="3.0" stroke-linecap="butt" stroke-opacity="1.0" stroke="rgb(0, 0, 0)" stroke-linejoin="round" d=" M 626.350, 624.920 626.899, 624.920 " />
            <path fill="none" stroke-width="3.0" stroke-linecap="butt" stroke-opacity="1.0" stroke="rgb(0, 0, 0)" stroke-linejoin="round" d=" M 311.888, 547.734 311.888, 547.734 311.888, 557.734 311.888, 567.734 311.888, 577.734 311.888, 587.757 311.888, 587.757 321.888, 587.757 331.888, 587.757 341.888, 587.757 351.888, 587.757 361.888, 587.757 371.888, 587.757 381.888, 587.757 391.888, 587.757 401.888, 587.757 411.888, 587.757 421.888, 587.757 431.888, 587.757 441.888, 587.757 451.888, 587.757 461.888, 587.757 471.888, 587.757 481.888, 587.757 491.888, 587.757 501.888, 587.757 511.888, 587.757 521.888, 587.757 531.888, 587.757 541.888, 587.757 551.888, 587.757 561.888, 587.757 571.888, 587.757 581.888, 587.757 591.888, 587.757 601.888, 587.757 611.888, 587.757 621.888, 587.757 631.888, 587.757 641.888, 587.757 651.888, 587.757 661.888, 587.757 671.888, 587.757 681.888, 587.757 691.888, 587.757 701.888, 587.757 712.112, 587.757 712.112, 587.757 712.112, 577.757 712.112, 567.757 712.112, 557.757 712.112, 547.734 702.112, 547.734 692.112, 547.734 682.112, 547.734 672.112, 547.734 662.112, 547.734 652.112, 547.734 642.112, 547.734 632.112, 547.734 622.112, 547.734 612.112, 547.734 602.112, 547.734 592.112, 547.734 582.112, 547.734 572.112, 547.734 562.112, 547.734 552.112, 547.734 542.112, 547.734 532.112, 547.734 522.112, 547.734 512.112, 547.734 502.112, 547.734 492.112, 547.734 482.112, 547.734 472.112, 547.734 462.112, 547.734 452.112, 547.734 442.112, 547.734 432.112, 547.734 422.112, 547.734 412.112, 547.734 402.112, 547.734 392.112, 547.734 382.112, 547.734 372.112, 547.734 362.112, 547.734 352.112, 547.734 342.112, 547.734 332.112, 547.734 322.112, 547.734 311.888, 547.734 " />
            <path fill="none" stroke-width="3.0" stroke-linecap="butt" stroke-opacity="1.0" stroke="rgb(0, 0, 0)" stroke-linejoin="round" d=" M 311.888, 587.757 321.888, 587.757 331.888, 587.757 341.888, 587.757 351.888, 587.757 361.888, 587.757 371.888, 587.757 381.888, 587.757 391.888, 587.757 401.888, 587.757 411.888, 587.757 421.888, 587.757 431.888, 587.757 441.888, 587.757 451.888, 587.757 461.888, 587.757 471.888, 587.757 481.888, 587.757 491.888, 587.757 501.888, 587.757 511.888, 587.757 521.888, 587.757 531.888, 587.757 541.888, 587.757 551.888, 587.757 561.888, 587.757 571.888, 587.757 581.888, 587.757 591.888, 587.757 601.888, 587.757 611.888, 587.757 621.888, 587.757 631.888, 587.757 641.888, 587.757 651.888, 587.757 661.888, 587.757 671.888, 587.757 681.888, 587.757 691.888, 587.757 701.888, 587.757 712.112, 587.757 " />
            <path fill="none" stroke-width="3.0" stroke-linecap="butt" stroke-opacity="1.0" stroke="rgb(0, 0, 0)" stroke-linejoin="round" d=" M 311.888, 227.556 311.888, 237.556 311.888, 247.556 311.888, 257.556 311.888, 267.556 311.888, 277.556 311.888, 287.556 311.888, 297.556 311.888, 307.556 311.888, 317.556 311.888, 327.556 311.888, 337.556 311.888, 347.556 311.888, 357.556 311.888, 367.556 311.888, 377.556 311.888, 387.556 311.888, 397.556 311.888, 407.556 311.888, 417.556 311.888, 427.556 311.888, 437.556 311.888, 447.556 311.888, 457.556 311.888, 461.972 311.888, 461.972 311.888, 471.972 311.888, 481.972 311.888, 491.972 311.888, 501.994 311.888, 501.994 311.888, 507.712 321.888, 507.712 331.888, 507.712 341.888, 507.712 351.888, 507.712 361.888, 507.712 371.888, 507.712 381.888, 507.712 391.888, 507.712 401.888, 507.712 411.888, 507.712 421.888, 507.712 431.888, 507.712 441.888, 507.712 451.888, 507.712 461.888, 507.712 471.888, 507.712 481.888, 507.712 491.888, 507.712 501.888, 507.712 511.888, 507.712 521.888, 507.712 531.888, 507.712 541.888, 507.712 551.888, 507.712 561.888, 507.712 571.888, 507.712 581.888, 507.712 591.888, 507.712 601.888, 507.712 611.888, 507.712 621.888, 507.712 631.888, 507.712 641.888, 507.712 651.888, 507.712 661.888, 507.712 671.888, 507.712 681.888, 507.712 691.888, 507.712 701.888, 507.712 712.112, 507.712 712.112, 501.994 712.112, 501.994 712.112, 491.994 712.112, 481.994 712.112, 471.994 712.112, 461.972 712.112, 461.972 712.112, 451.972 712.112, 441.972 712.112, 431.972 712.112, 421.972 712.112, 411.972 712.112, 401.972 712.112, 391.972 712.112, 381.972 712.112, 371.972 712.112, 361.972 712.112, 351.972 712.112, 341.972 712.112, 331.972 712.112, 321.972 712.112, 311.972 712.112, 301.972 712.112, 291.972 712.112, 281.972 712.112, 271.972 712.112, 261.972 712.112, 251.972 712.112, 241.972 712.112, 231.972 712.112, 227.556 " />
            <path fill="none" stroke-width="3.0" stroke-linecap="butt" stroke-opacity="1.0" stroke="rgb(0, 0, 0)" stroke-linejoin="round" d=" M 311.888, 461.972 301.888, 461.972 291.877, 461.972 291.877, 471.972 291.877, 481.972 291.877, 491.972 291.877, 501.994 291.877, 501.994 301.877, 501.994 311.888, 501.994 " />
            <path fill="none" stroke-width="3.0" stroke-linecap="butt" stroke-opacity="1.0" stroke="rgb(0, 0, 0)" stroke-linejoin="round" d=" M 291.877, 501.994 301.877, 501.994 311.888, 501.994 " />
            <path fill="none" stroke-width="3.0" stroke-linecap="butt" stroke-opacity="1.0" stroke="rgb(0, 0, 0)" stroke-linejoin="round" d=" M 712.112, 501.994 722.112, 501.994 732.123, 501.994 732.123, 501.994 732.123, 491.994 732.123, 481.994 732.123, 471.994 732.123, 461.972 722.123, 461.972 712.112, 461.972 " />
            <path fill="none" stroke-width="3.0" stroke-linecap="butt" stroke-opacity="1.0" stroke="rgb(0, 0, 0)" stroke-linejoin="round" d=" M 712.112, 227.556 702.112, 227.556 692.112, 227.556 682.112, 227.556 672.112, 227.556 662.112, 227.556 652.112, 227.556 642.112, 227.556 632.112, 227.556 622.112, 227.556 612.112, 227.556 602.112, 227.556 592.112, 227.556 582.112, 227.556 572.112, 227.556 562.112, 227.556 552.112, 227.556 542.112, 227.556 532.112, 227.556 522.112, 227.556 512.112, 227.556 502.112, 227.556 492.112, 227.556 482.112, 227.556 472.112, 227.556 462.112, 227.556 452.112, 227.556 442.112, 227.556 432.112, 227.556 422.112, 227.556 412.112, 227.556 402.112, 227.556 392.112, 227.556 382.112, 227.556 372.112, 227.556 362.112, 227.556 352.112, 227.556 342.112, 227.556 332.112, 227.556 322.112, 227.556 311.888, 227.556 " />
            <path fill="none" stroke-width="3.0" stroke-linecap="butt" stroke-opacity="1.0" stroke="rgb(0, 0, 0)" stroke-linejoin="round" d=" M 712.112, 501.994 722.112, 501.994 732.123, 501.994 " />
        </g>
    </g>
    <g id="ViewLayer_TechnicalLines" inkscape:groupmode="lineset" inkscape:label="ViewLayer_TechnicalLines">
        <g inkscape:groupmode="layer" id="strokes" inkscape:label="strokes">
            <path fill="none" stroke-width="3.0" stroke-linecap="butt" stroke-opacity="1.0" stroke="rgb(0, 0, 0)" stroke-linejoin="round" d=" M 397.650, 796.444 397.650, 786.444 397.650, 776.444 397.650, 766.444 397.650, 756.444 397.650, 746.444 397.650, 736.444 397.650, 726.444 397.650, 716.444 397.650, 706.444 397.650, 696.444 397.650, 686.444 397.650, 676.444 397.650, 666.444 397.650, 656.444 397.650, 646.444 397.650, 636.444 397.650, 624.920 397.101, 624.920 395.474, 624.920 392.833, 624.920 389.277, 624.920 384.945, 624.920 380.003, 624.920 374.640, 624.920 369.063, 624.920 363.486, 624.920 358.123, 624.920 353.181, 624.920 348.849, 624.920 345.294, 624.920 342.652, 624.920 341.025, 624.920 340.476, 624.920 340.476, 634.920 340.476, 644.920 340.476, 654.920 340.476, 664.920 340.476, 674.920 340.476, 684.920 340.476, 694.920 340.476, 704.920 340.476, 714.920 340.476, 724.920 340.476, 734.920 340.476, 744.920 340.476, 754.920 340.476, 764.920 340.476, 774.920 340.476, 784.920 340.476, 796.444 341.025, 796.444 342.652, 796.444 345.294, 796.444 348.849, 796.444 353.181, 796.444 358.123, 796.444 363.486, 796.444 369.063, 796.444 374.640, 796.444 380.003, 796.444 384.945, 796.444 389.277, 796.444 392.833, 796.444 395.474, 796.444 397.101, 796.444 397.650, 796.444 " />
            <path fill="none" stroke-width="3.0" stroke-linecap="butt" stroke-opacity="1.0" stroke="rgb(0, 0, 0)" stroke-linejoin="round" d=" M 683.524, 796.444 683.524, 786.444 683.524, 776.444 683.524, 766.444 683.524, 756.444 683.524, 746.444 683.524, 736.444 683.524, 726.444 683.524, 716.444 683.524, 706.444 683.524, 696.444 683.524, 686.444 683.524, 676.444 683.524, 666.444 683.524, 656.444 683.524, 646.444 683.524, 636.444 683.524, 624.920 682.975, 624.920 681.348, 624.920 678.706, 624.920 675.151, 624.920 670.819, 624.920 665.877, 624.920 660.514, 624.920 654.937, 624.920 649.360, 624.920 643.997, 624.920 639.055, 624.920 634.723, 624.920 631.167, 624.920 628.526, 624.920 626.899, 624.920 626.350, 624.920 626.350, 634.920 626.350, 644.920 626.350, 654.920 626.350, 664.920 626.350, 674.920 626.350, 684.920 626.350, 694.920 626.350, 704.920 626.350, 714.920 626.350, 724.920 626.350, 734.920 626.350, 744.920 626.350, 754.920 626.350, 764.920 626.350, 774.920 626.350, 784.920 626.350, 796.444 626.899, 796.444 628.526, 796.444 631.167, 796.444 634.723, 796.444 639.055, 796.444 643.997, 796.444 649.360, 796.444 654.937, 796.444 660.514, 796.444 665.877, 796.444 670.819, 796.444 675.151, 796.444 678.706, 796.444 681.348, 796.444 682.975, 796.444 683.524, 796.444 " />
            <path fill="none" stroke-width="3.0" stroke-linecap="butt" stroke-opacity="1.0" stroke="rgb(0, 0, 0)" stroke-linejoin="round" d=" M 397.101, 624.920 397.650, 624.920 " />
            <path fill="none" stroke-width="3.0" stroke-linecap="butt" stroke-opacity="1.0" stroke="rgb(0, 0, 0)" stroke-linejoin="round" d=" M 353.181, 624.920 348.849, 624.920 " />
            <path fill="none" stroke-width="3.0" stroke-linecap="butt" stroke-opacity="1.0" stroke="rgb(0, 0, 0)" stroke-linejoin="round" d=" M 340.476, 624.920 341.025, 624.920 " />
            <path fill="none" stroke-width="3.0" stroke-linecap="butt" stroke-opacity="1.0" stroke="rgb(0, 0, 0)" stroke-linejoin="round" d=" M 348.849, 624.920 353.181, 624.920 " />
            <path fill="none" stroke-width="3.0" stroke-linecap="butt" stroke-opacity="1.0" stroke="rgb(0, 0, 0)" stroke-linejoin="round" d=" M 670.819, 624.920 675.151, 624.920 " />
            <path fill="none" stroke-width="3.0" stroke-linecap="butt" stroke-opacity="1.0" stroke="rgb(0, 0, 0)" stroke-linejoin="round" d=" M 682.975, 624.920 683.524, 624.920 " />
            <path fill="none" stroke-width="3.0" stroke-linecap="butt" stroke-opacity="1.0" stroke="rgb(0, 0, 0)" stroke-linejoin="round" d=" M 675.151, 624.920 670.819, 624.920 " />
            <path fill="none" stroke-width="3.0" stroke-linecap="butt" stroke-opacity="1.0" stroke="rgb(0, 0, 0)" stroke-linejoin="round" d=" M 626.350, 624.920 626.899, 624.920 " />
            <path fill="none" stroke-width="3.0" stroke-linecap="butt" stroke-opacity="1.0" stroke="rgb(0, 0, 0)" stroke-linejoin="round" d=" M 311.888, 547.734 311.888, 547.734 311.888, 557.734 311.888, 567.734 311.888, 577.734 311.888, 587.757 311.888, 587.757 321.888, 587.757 331.888, 587.757 341.888, 587.757 351.888, 587.757 361.888, 587.757 371.888, 587.757 381.888, 587.757 391.888, 587.757 401.888, 587.757 411.888, 587.757 421.888, 587.757 431.888, 587.757 441.888, 587.757 451.888, 587.757 461.888, 587.757 471.888, 587.757 481.888, 587.757 491.888, 587.757 501.888, 587.757 511.888, 587.757 521.888, 587.757 531.888, 587.757 541.888, 587.757 551.888, 587.757 561.888, 587.757 571.888, 587.757 581.888, 587.757 591.888, 587.757 601.888, 587.757 611.888, 587.757 621.888, 587.757 631.888, 587.757 641.888, 587.757 651.888, 587.757 661.888, 587.757 671.888, 587.757 681.888, 587.757 691.888, 587.757 701.888, 587.757 712.112, 587.757 712.112, 587.757 712.112, 577.757 712.112, 567.757 712.112, 557.757 712.112, 547.734 702.112, 547.734 692.112, 547.734 682.112, 547.734 672.112, 547.734 662.112, 547.734 652.112, 547.734 642.112, 547.734 632.112, 547.734 622.112, 547.734 612.112, 547.734 602.112, 547.734 592.112, 547.734 582.112, 547.734 572.112, 547.734 562.112, 547.734 552.112, 547.734 542.112, 547.734 532.112, 547.734 522.112, 547.734 512.112, 547.734 502.112, 547.734 492.112, 547.734 482.112, 547.734 472.112, 547.734 462.112, 547.734 452.112, 547.734 442.112, 547.734 432.112, 547.734 422.112, 547.734 412.112, 547.734 402.112, 547.734 392.112, 547.734 382.112, 547.734 372.112, 547.734 362.112, 547.734 352.112, 547.734 342.112, 547.734 332.112, 547.734 322.112, 547.734 311.888, 547.734 " />
            <path fill="none" stroke-width="3.0" stroke-linecap="butt" stroke-opacity="1.0" stroke="rgb(0, 0, 0)" stroke-linejoin="round" d=" M 311.888, 587.757 321.888, 587.757 331.888, 587.757 341.888, 587.757 351.888, 587.757 361.888, 587.757 371.888, 587.757 381.888, 587.757 391.888, 587.757 401.888, 587.757 411.888, 587.757 421.888, 587.757 431.888, 587.757 441.888, 587.757 451.888, 587.757 461.888, 587.757 471.888, 587.757 481.888, 587.757 491.888, 587.757 501.888, 587.757 511.888, 587.757 521.888, 587.757 531.888, 587.757 541.888, 587.757 551.888, 587.757 561.888, 587.757 571.888, 587.757 581.888, 587.757 591.888, 587.757 601.888, 587.757 611.888, 587.757 621.888, 587.757 631.888, 587.757 641.888, 587.757 651.888, 587.757 661.888, 587.757 671.888, 587.757 681.888, 587.757 691.888, 587.757 701.888, 587.757 712.112, 587.757 " />
            <path fill="none" stroke-width="3.0" stroke-linecap="butt" stroke-opacity="1.0" stroke="rgb(0, 0, 0)" stroke-linejoin="round" d=" M 311.888, 227.556 311.888, 237.556 311.888, 247.556 311.888, 257.556 311.888, 267.556 311.888, 277.556 311.888, 287.556 311.888, 297.556 311.888, 307.556 311.888, 317.556 311.888, 327.556 311.888, 337.556 311.888, 347.556 311.888, 357.556 311.888, 367.556 311.888, 377.556 311.888, 387.556 311.888, 397.556 311.888, 407.556 311.888, 417.556 311.888, 427.556 311.888, 437.556 311.888, 447.556 311.888, 457.556 311.888, 461.972 311.888, 461.972 311.888, 471.972 311.888, 481.972 311.888, 491.972 311.888, 501.994 311.888, 501.994 311.888, 507.712 321.888, 507.712 331.888, 507.712 341.888, 507.712 351.888, 507.712 361.888, 507.712 371.888, 507.712 381.888, 507.712 391.888, 507.712 401.888, 507.712 411.888, 507.712 421.888, 507.712 431.888, 507.712 441.888, 507.712 451.888, 507.712 461.888, 507.712 471.888, 507.712 481.888, 507.712 491.888, 507.712 501.888, 507.712 511.888, 507.712 521.888, 507.712 531.888, 507.712 541.888, 507.712 551.888, 507.712 561.888, 507.712 571.888, 507.712 581.888, 507.712 591.888, 507.712 601.888, 507.712 611.888, 507.712 621.888, 507.712 631.888, 507.712 641.888, 507.712 651.888, 507.712 661.888, 507.712 671.888, 507.712 681.888, 507.712 691.888, 507.712 701.888, 507.712 712.112, 507.712 712.112, 501.994 712.112, 501.994 712.112, 491.994 712.112, 481.994 712.112, 471.994 712.112, 461.972 712.112, 461.972 712.112, 451.972 712.112, 441.972 712.112, 431.972 712.112, 421.972 712.112, 411.972 712.112, 401.972 712.112, 391.972 712.112, 381.972 712.112, 371.972 712.112, 361.972 712.112, 351.972 712.112, 341.972 712.112, 331.972 712.112, 321.972 712.112, 311.972 712.112, 301.972 712.112, 291.972 712.112, 281.972 712.112, 271.972 712.112, 261.972 712.112, 251.972 712.112, 241.972 712.112, 231.972 712.112, 227.556 " />
            <path fill="none" stroke-width="3.0" stroke-linecap="butt" stroke-opacity="1.0" stroke="rgb(0, 0, 0)" stroke-linejoin="round" d=" M 311.888, 461.972 301.888, 461.972 291.877, 461.972 291.877, 471.972 291.877, 481.972 291.877, 491.972 291.877, 501.994 291.877, 501.994 301.877, 501.994 311.888, 501.994 " />
            <path fill="none" stroke-width="3.0" stroke-linecap="butt" stroke-opacity="1.0" stroke="rgb(0, 0, 0)" stroke-linejoin="round" d=" M 291.877, 501.994 301.877, 501.994 311.888, 501.994 " />
            <path fill="none" stroke-width="3.0" stroke-linecap="butt" stroke-opacity="1.0" stroke="rgb(0, 0, 0)" stroke-linejoin="round" d=" M 712.112, 501.994 722.112, 501.994 732.123, 501.994 732.123, 501.994 732.123, 491.994 732.123, 481.994 732.123, 471.994 732.123, 461.972 722.123, 461.972 712.112, 461.972 " />
            <path fill="none" stroke-width="3.0" stroke-linecap="butt" stroke-opacity="1.0" stroke="rgb(0, 0, 0)" stroke-linejoin="round" d=" M 712.112, 227.556 702.112, 227.556 692.112, 227.556 682.112, 227.556 672.112, 227.556 662.112, 227.556 652.112, 227.556 642.112, 227.556 632.112, 227.556 622.112, 227.556 612.112, 227.556 602.112, 227.556 592.112, 227.556 582.112, 227.556 572.112, 227.556 562.112, 227.556 552.112, 227.556 542.112, 227.556 532.112, 227.556 522.112, 227.556 512.112, 227.556 502.112, 227.556 492.112, 227.556 482.112, 227.556 472.112, 227.556 462.112, 227.556 452.112, 227.556 442.112, 227.556 432.112, 227.556 422.112, 227.556 412.112, 227.556 402.112, 227.556 392.112, 227.556 382.112, 227.556 372.112, 227.556 362.112, 227.556 352.112, 227.556 342.112, 227.556 332.112, 227.556 322.112, 227.556 311.888, 227.556 " />
            <path fill="none" stroke-width="3.0" stroke-linecap="butt" stroke-opacity="1.0" stroke="rgb(0, 0, 0)" stroke-linejoin="round" d=" M 712.112, 501.994 722.112, 501.994 732.123, 501.994 " />
        </g>
    </g>
    <g id="ViewLayer_TechnicalLines.001" inkscape:groupmode="lineset" inkscape:label="ViewLayer_TechnicalLines.001">
        <g inkscape:groupmode="layer" id="strokes" inkscape:label="strokes">
            <path fill="none" stroke-width="1.5" stroke-linecap="round" stroke-opacity="1.0" stroke="rgb(0, 0, 0)" stroke-linejoin="round" d=" M 397.650, 796.444 397.650, 786.444 397.650, 776.444 397.650, 766.444 397.650, 756.444 397.650, 746.444 397.650, 736.444 397.650, 726.444 397.650, 716.444 397.650, 706.444 397.650, 696.444 397.650, 686.444 397.650, 676.444 397.650, 666.444 397.650, 656.444 397.650, 646.444 397.650, 636.444 397.650, 624.920 397.101, 624.920 395.474, 624.920 392.833, 624.920 389.277, 624.920 384.945, 624.920 380.003, 624.920 374.640, 624.920 369.063, 624.920 363.486, 624.920 358.123, 624.920 353.181, 624.920 348.849, 624.920 345.294, 624.920 342.652, 624.920 341.025, 624.920 340.476, 624.920 340.476, 634.920 340.476, 644.920 340.476, 654.920 340.476, 664.920 340.476, 674.920 340.476, 684.920 340.476, 694.920 340.476, 704.920 340.476, 714.920 340.476, 724.920 340.476, 734.920 340.476, 744.920 340.476, 754.920 340.476, 764.920 340.476, 774.920 340.476, 784.920 340.476, 796.444 341.025, 796.444 342.652, 796.444 345.294, 796.444 348.849, 796.444 353.181, 796.444 358.123, 796.444 363.486, 796.444 369.063, 796.444 374.640, 796.444 380.003, 796.444 384.945, 796.444 389.277, 796.444 392.833, 796.444 395.474, 796.444 397.101, 796.444 397.650, 796.444 " />
            <path fill="none" stroke-width="1.5" stroke-linecap="round" stroke-opacity="1.0" stroke="rgb(0, 0, 0)" stroke-linejoin="round" d=" M 683.524, 796.444 683.524, 786.444 683.524, 776.444 683.524, 766.444 683.524, 756.444 683.524, 746.444 683.524, 736.444 683.524, 726.444 683.524, 716.444 683.524, 706.444 683.524, 696.444 683.524, 686.444 683.524, 676.444 683.524, 666.444 683.524, 656.444 683.524, 646.444 683.524, 636.444 683.524, 624.920 682.975, 624.920 681.348, 624.920 678.706, 624.920 675.151, 624.920 670.819, 624.920 665.877, 624.920 660.514, 624.920 654.937, 624.920 649.360, 624.920 643.997, 624.920 639.055, 624.920 634.723, 624.920 631.167, 624.920 628.526, 624.920 626.899, 624.920 626.350, 624.920 626.350, 634.920 626.350, 644.920 626.350, 654.920 626.350, 664.920 626.350, 674.920 626.350, 684.920 626.350, 694.920 626.350, 704.920 626.350, 714.920 626.350, 724.920 626.350, 734.920 626.350, 744.920 626.350, 754.920 626.350, 764.920 626.350, 774.920 626.350, 784.920 626.350, 796.444 626.899, 796.444 628.526, 796.444 631.167, 796.444 634.723, 796.444 639.055, 796.444 643.997, 796.444 649.360, 796.444 654.937, 796.444 660.514, 796.444 665.877, 796.444 670.819, 796.444 675.151, 796.444 678.706, 796.444 681.348, 796.444 682.975, 796.444 683.524, 796.444 " />
            <path fill="none" stroke-width="1.5" stroke-linecap="round" stroke-opacity="1.0" stroke="rgb(0, 0, 0)" stroke-linejoin="round" d=" M 397.101, 624.920 397.650, 624.920 " />
            <path fill="none" stroke-width="1.5" stroke-linecap="round" stroke-opacity="1.0" stroke="rgb(0, 0, 0)" stroke-linejoin="round" d=" M 353.181, 624.920 348.849, 624.920 " />
            <path fill="none" stroke-width="1.5" stroke-linecap="round" stroke-opacity="1.0" stroke="rgb(0, 0, 0)" stroke-linejoin="round" d=" M 340.476, 624.920 341.025, 624.920 " />
            <path fill="none" stroke-width="1.5" stroke-linecap="round" stroke-opacity="1.0" stroke="rgb(0, 0, 0)" stroke-linejoin="round" d=" M 348.849, 624.920 353.181, 624.920 " />
            <path fill="none" stroke-width="1.5" stroke-linecap="round" stroke-opacity="1.0" stroke="rgb(0, 0, 0)" stroke-linejoin="round" d=" M 670.819, 624.920 675.151, 624.920 " />
            <path fill="none" stroke-width="1.5" stroke-linecap="round" stroke-opacity="1.0" stroke="rgb(0, 0, 0)" stroke-linejoin="round" d=" M 682.975, 624.920 683.524, 624.920 " />
            <path fill="none" stroke-width="1.5" stroke-linecap="round" stroke-opacity="1.0" stroke="rgb(0, 0, 0)" stroke-linejoin="round" d=" M 675.151, 624.920 670.819, 624.920 " />
            <path fill="none" stroke-width="1.5" stroke-linecap="round" stroke-opacity="1.0" stroke="rgb(0, 0, 0)" stroke-linejoin="round" d=" M 626.350, 624.920 626.899, 624.920 " />
            <path fill="none" stroke-width="1.5" stroke-linecap="round" stroke-opacity="1.0" stroke="rgb(0, 0, 0)" stroke-linejoin="round" d=" M 311.888, 547.734 311.888, 547.734 311.888, 557.734 311.888, 567.734 311.888, 577.734 311.888, 587.757 311.888, 587.757 321.888, 587.757 331.888, 587.757 341.888, 587.757 351.888, 587.757 361.888, 587.757 371.888, 587.757 381.888, 587.757 391.888, 587.757 401.888, 587.757 411.888, 587.757 421.888, 587.757 431.888, 587.757 441.888, 587.757 451.888, 587.757 461.888, 587.757 471.888, 587.757 481.888, 587.757 491.888, 587.757 501.888, 587.757 511.888, 587.757 521.888, 587.757 531.888, 587.757 541.888, 587.757 551.888, 587.757 561.888, 587.757 571.888, 587.757 581.888, 587.757 591.888, 587.757 601.888, 587.757 611.888, 587.757 621.888, 587.757 631.888, 587.757 641.888, 587.757 651.888, 587.757 661.888, 587.757 671.888, 587.757 681.888, 587.757 691.888, 587.757 701.888, 587.757 712.112, 587.757 712.112, 587.757 712.112, 577.757 712.112, 567.757 712.112, 557.757 712.112, 547.734 702.112, 547.734 692.112, 547.734 682.112, 547.734 672.112, 547.734 662.112, 547.734 652.112, 547.734 642.112, 547.734 632.112, 547.734 622.112, 547.734 612.112, 547.734 602.112, 547.734 592.112, 547.734 582.112, 547.734 572.112, 547.734 562.112, 547.734 552.112, 547.734 542.112, 547.734 532.112, 547.734 522.112, 547.734 512.112, 547.734 502.112, 547.734 492.112, 547.734 482.112, 547.734 472.112, 547.734 462.112, 547.734 452.112, 547.734 442.112, 547.734 432.112, 547.734 422.112, 547.734 412.112, 547.734 402.112, 547.734 392.112, 547.734 382.112, 547.734 372.112, 547.734 362.112, 547.734 352.112, 547.734 342.112, 547.734 332.112, 547.734 322.112, 547.734 311.888, 547.734 " />
            <path fill="none" stroke-width="1.5" stroke-linecap="round" stroke-opacity="1.0" stroke="rgb(0, 0, 0)" stroke-linejoin="round" d=" M 311.888, 587.757 321.888, 587.757 331.888, 587.757 341.888, 587.757 351.888, 587.757 361.888, 587.757 371.888, 587.757 381.888, 587.757 391.888, 587.757 401.888, 587.757 411.888, 587.757 421.888, 587.757 431.888, 587.757 441.888, 587.757 451.888, 587.757 461.888, 587.757 471.888, 587.757 481.888, 587.757 491.888, 587.757 501.888, 587.757 511.888, 587.757 521.888, 587.757 531.888, 587.757 541.888, 587.757 551.888, 587.757 561.888, 587.757 571.888, 587.757 581.888, 587.757 591.888, 587.757 601.888, 587.757 611.888, 587.757 621.888, 587.757 631.888, 587.757 641.888, 587.757 651.888, 587.757 661.888, 587.757 671.888, 587.757 681.888, 587.757 691.888, 587.757 701.888, 587.757 712.112, 587.757 " />
            <path fill="none" stroke-width="1.5" stroke-linecap="round" stroke-opacity="1.0" stroke="rgb(0, 0, 0)" stroke-linejoin="round" d=" M 311.888, 227.556 311.888, 237.556 311.888, 247.556 311.888, 257.556 311.888, 267.556 311.888, 277.556 311.888, 287.556 311.888, 297.556 311.888, 307.556 311.888, 317.556 311.888, 327.556 311.888, 337.556 311.888, 347.556 311.888, 357.556 311.888, 367.556 311.888, 377.556 311.888, 387.556 311.888, 397.556 311.888, 407.556 311.888, 417.556 311.888, 427.556 311.888, 437.556 311.888, 447.556 311.888, 457.556 311.888, 461.972 311.888, 461.972 311.888, 471.972 311.888, 481.972 311.888, 491.972 311.888, 501.994 311.888, 501.994 311.888, 507.712 321.888, 507.712 331.888, 507.712 341.888, 507.712 351.888, 507.712 361.888, 507.712 371.888, 507.712 381.888, 507.712 391.888, 507.712 401.888, 507.712 411.888, 507.712 421.888, 507.712 431.888, 507.712 441.888, 507.712 451.888, 507.712 461.888, 507.712 471.888, 507.712 481.888, 507.712 491.888, 507.712 501.888, 507.712 511.888, 507.712 521.888, 507.712 531.888, 507.712 541.888, 507.712 551.888, 507.712 561.888, 507.712 571.888, 507.712 581.888, 507.712 591.888, 507.712 601.888, 507.712 611.888, 507.712 621.888, 507.712 631.888, 507.712 641.888, 507.712 651.888, 507.712 661.888, 507.712 671.888, 507.712 681.888, 507.712 691.888, 507.712 701.888, 507.712 712.112, 507.712 712.112, 501.994 712.112, 501.994 712.112, 491.994 712.112, 481.994 712.112, 471.994 712.112, 461.972 712.112, 461.972 712.112, 451.972 712.112, 441.972 712.112, 431.972 712.112, 421.972 712.112, 411.972 712.112, 401.972 712.112, 391.972 712.112, 381.972 712.112, 371.972 712.112, 361.972 712.112, 351.972 712.112, 341.972 712.112, 331.972 712.112, 321.972 712.112, 311.972 712.112, 301.972 712.112, 291.972 712.112, 281.972 712.112, 271.972 712.112, 261.972 712.112, 251.972 712.112, 241.972 712.112, 231.972 712.112, 227.556 " />
            <path fill="none" stroke-width="1.5" stroke-linecap="round" stroke-opacity="1.0" stroke="rgb(0, 0, 0)" stroke-linejoin="round" d=" M 311.888, 461.972 301.888, 461.972 291.877, 461.972 291.877, 471.972 291.877, 481.972 291.877, 491.972 291.877, 501.994 291.877, 501.994 301.877, 501.994 311.888, 501.994 " />
            <path fill="none" stroke-width="1.5" stroke-linecap="round" stroke-opacity="1.0" stroke="rgb(0, 0, 0)" stroke-linejoin="round" d=" M 291.877, 501.994 301.877, 501.994 311.888, 501.994 " />
            <path fill="none" stroke-width="1.5" stroke-linecap="round" stroke-opacity="1.0" stroke="rgb(0, 0, 0)" stroke-linejoin="round" d=" M 712.112, 501.994 722.112, 501.994 732.123, 501.994 732.123, 501.994 732.123, 491.994 732.123, 481.994 732.123, 471.994 732.123, 461.972 722.123, 461.972 712.112, 461.972 " />
            <path fill="none" stroke-width="1.5" stroke-linecap="round" stroke-opacity="1.0" stroke="rgb(0, 0, 0)" stroke-linejoin="round" d=" M 712.112, 227.556 702.112, 227.556 692.112, 227.556 682.112, 227.556 672.112, 227.556 662.112, 227.556 652.112, 227.556 642.112, 227.556 632.112, 227.556 622.112, 227.556 612.112, 227.556 602.112, 227.556 592.112, 227.556 582.112, 227.556 572.112, 227.556 562.112, 227.556 552.112, 227.556 542.112, 227.556 532.112, 227.556 522.112, 227.556 512.112, 227.556 502.112, 227.556 492.112, 227.556 482.112, 227.556 472.112, 227.556 462.112, 227.556 452.112, 227.556 442.112, 227.556 432.112, 227.556 422.112, 227.556 412.112, 227.556 402.112, 227.556 392.112, 227.556 382.112, 227.556 372.112, 227.556 362.112, 227.556 352.112, 227.556 342.112, 227.556 332.112, 227.556 322.112, 227.556 311.888, 227.556 " />
            <path fill="none" stroke-width="1.5" stroke-linecap="round" stroke-opacity="1.0" stroke="rgb(0, 0, 0)" stroke-linejoin="round" d=" M 712.112, 501.994 722.112, 501.994 732.123, 501.994 " />
        </g>
    </g>
    <g id="ViewLayer_TechnicalLines.002" inkscape:groupmode="lineset" inkscape:label="ViewLayer_TechnicalLines.002">
        <g inkscape:groupmode="layer" id="strokes" inkscape:label="strokes">
            <path fill="none" stroke-width="1.5" stroke-linecap="round" stroke-opacity="1.0" stroke="rgb(0, 0, 0)" stroke-linejoin="round" d=" M 397.650, 796.444 397.650, 786.444 397.650, 776.444 397.650, 766.444 397.650, 756.444 397.650, 746.444 397.650, 736.444 397.650, 726.444 397.650, 716.444 397.650, 706.444 397.650, 696.444 397.650, 686.444 397.650, 676.444 397.650, 666.444 397.650, 656.444 397.650, 646.444 397.650, 636.444 397.650, 624.920 397.101, 624.920 395.474, 624.920 392.833, 624.920 389.277, 624.920 384.945, 624.920 380.003, 624.920 374.640, 624.920 369.063, 624.920 363.486, 624.920 358.123, 624.920 353.181, 624.920 348.849, 624.920 345.294, 624.920 342.652, 624.920 341.025, 624.920 340.476, 624.920 340.476, 634.920 340.476, 644.920 340.476, 654.920 340.476, 664.920 340.476, 674.920 340.476, 684.920 340.476, 694.920 340.476, 704.920 340.476, 714.920 340.476, 724.920 340.476, 734.920 340.476, 744.920 340.476, 754.920 340.476, 764.920 340.476, 774.920 340.476, 784.920 340.476, 796.444 341.025, 796.444 342.652, 796.444 345.294, 796.444 348.849, 796.444 353.181, 796.444 358.123, 796.444 363.486, 796.444 369.063, 796.444 374.640, 796.444 380.003, 796.444 384.945, 796.444 389.277, 796.444 392.833, 796.444 395.474, 796.444 397.101, 796.444 397.650, 796.444 " />
            <path fill="none" stroke-width="1.5" stroke-linecap="round" stroke-opacity="1.0" stroke="rgb(0, 0, 0)" stroke-linejoin="round" d=" M 683.524, 796.444 683.524, 786.444 683.524, 776.444 683.524, 766.444 683.524, 756.444 683.524, 746.444 683.524, 736.444 683.524, 726.444 683.524, 716.444 683.524, 706.444 683.524, 696.444 683.524, 686.444 683.524, 676.444 683.524, 666.444 683.524, 656.444 683.524, 646.444 683.524, 636.444 683.524, 624.920 682.975, 624.920 681.348, 624.920 678.706, 624.920 675.151, 624.920 670.819, 624.920 665.877, 624.920 660.514, 624.920 654.937, 624.920 649.360, 624.920 643.997, 624.920 639.055, 624.920 634.723, 624.920 631.167, 624.920 628.526, 624.920 626.899, 624.920 626.350, 624.920 626.350, 634.920 626.350, 644.920 626.350, 654.920 626.350, 664.920 626.350, 674.920 626.350, 684.920 626.350, 694.920 626.350, 704.920 626.350, 714.920 626.350, 724.920 626.350, 734.920 626.350, 744.920 626.350, 754.920 626.350, 764.920 626.350, 774.920 626.350, 784.920 626.350, 796.444 626.899, 796.444 628.526, 796.444 631.167, 796.444 634.723, 796.444 639.055, 796.444 643.997, 796.444 649.360, 796.444 654.937, 796.444 660.514, 796.444 665.877, 796.444 670.819, 796.444 675.151, 796.444 678.706, 796.444 681.348, 796.444 682.975, 796.444 683.524, 796.444 " />
            <path fill="none" stroke-width="1.5" stroke-linecap="round" stroke-opacity="1.0" stroke="rgb(0, 0, 0)" stroke-linejoin="round" d=" M 397.101, 624.920 397.650, 624.920 " />
            <path fill="none" stroke-width="1.5" stroke-linecap="round" stroke-opacity="1.0" stroke="rgb(0, 0, 0)" stroke-linejoin="round" d=" M 353.181, 624.920 348.849, 624.920 " />
            <path fill="none" stroke-width="1.5" stroke-linecap="round" stroke-opacity="1.0" stroke="rgb(0, 0, 0)" stroke-linejoin="round" d=" M 340.476, 624.920 341.025, 624.920 " />
            <path fill="none" stroke-width="1.5" stroke-linecap="round" stroke-opacity="1.0" stroke="rgb(0, 0, 0)" stroke-linejoin="round" d=" M 348.849, 624.920 353.181, 624.920 " />
            <path fill="none" stroke-width="1.5" stroke-linecap="round" stroke-opacity="1.0" stroke="rgb(0, 0, 0)" stroke-linejoin="round" d=" M 670.819, 624.920 675.151, 624.920 " />
            <path fill="none" stroke-width="1.5" stroke-linecap="round" stroke-opacity="1.0" stroke="rgb(0, 0, 0)" stroke-linejoin="round" d=" M 682.975, 624.920 683.524, 624.920 " />
            <path fill="none" stroke-width="1.5" stroke-linecap="round" stroke-opacity="1.0" stroke="rgb(0, 0, 0)" stroke-linejoin="round" d=" M 675.151, 624.920 670.819, 624.920 " />
            <path fill="none" stroke-width="1.5" stroke-linecap="round" stroke-opacity="1.0" stroke="rgb(0, 0, 0)" stroke-linejoin="round" d=" M 626.350, 624.920 626.899, 624.920 " />
            <path fill="none" stroke-width="1.5" stroke-linecap="round" stroke-opacity="1.0" stroke="rgb(0, 0, 0)" stroke-linejoin="round" d=" M 311.888, 547.734 311.888, 547.734 311.888, 557.734 311.888, 567.734 311.888, 577.734 311.888, 587.757 311.888, 587.757 321.888, 587.757 331.888, 587.757 341.888, 587.757 351.888, 587.757 361.888, 587.757 371.888, 587.757 381.888, 587.757 391.888, 587.757 401.888, 587.757 411.888, 587.757 421.888, 587.757 431.888, 587.757 441.888, 587.757 451.888, 587.757 461.888, 587.757 471.888, 587.757 481.888, 587.757 491.888, 587.757 501.888, 587.757 511.888, 587.757 521.888, 587.757 531.888, 587.757 541.888, 587.757 551.888, 587.757 561.888, 587.757 571.888, 587.757 581.888, 587.757 591.888, 587.757 601.888, 587.757 611.888, 587.757 621.888, 587.757 631.888, 587.757 641.888, 587.757 651.888, 587.757 661.888, 587.757 671.888, 587.757 681.888, 587.757 691.888, 587.757 701.888, 587.757 712.112, 587.757 712.112, 587.757 712.112, 577.757 712.112, 567.757 712.112, 557.757 712.112, 547.734 702.112, 547.734 692.112, 547.734 682.112, 547.734 672.112, 547.734 662.112, 547.734 652.112, 547.734 642.112, 547.734 632.112, 547.734 622.112, 547.734 612.112, 547.734 602.112, 547.734 592.112, 547.734 582.112, 547.734 572.112, 547.734 562.112, 547.734 552.112, 547.734 542.112, 547.734 532.112, 547.734 522.112, 547.734 512.112, 547.734 502.112, 547.734 492.112, 547.734 482.112, 547.734 472.112, 547.734 462.112, 547.734 452.112, 547.734 442.112, 547.734 432.112, 547.734 422.112, 547.734 412.112, 547.734 402.112, 547.734 392.112, 547.734 382.112, 547.734 372.112, 547.734 362.112, 547.734 352.112, 547.734 342.112, 547.734 332.112, 547.734 322.112, 547.734 311.888, 547.734 " />
            <path fill="none" stroke-width="1.5" stroke-linecap="round" stroke-opacity="1.0" stroke="rgb(0, 0, 0)" stroke-linejoin="round" d=" M 311.888, 587.757 321.888, 587.757 331.888, 587.757 341.888, 587.757 351.888, 587.757 361.888, 587.757 371.888, 587.757 381.888, 587.757 391.888, 587.757 401.888, 587.757 411.888, 587.757 421.888, 587.757 431.888, 587.757 441.888, 587.757 451.888, 587.757 461.888, 587.757 471.888, 587.757 481.888, 587.757 491.888, 587.757 501.888, 587.757 511.888, 587.757 521.888, 587.757 531.888, 587.757 541.888, 587.757 551.888, 587.757 561.888, 587.757 571.888, 587.757 581.888, 587.757 591.888, 587.757 601.888, 587.757 611.888, 587.757 621.888, 587.757 631.888, 587.757 641.888, 587.757 651.888, 587.757 661.888, 587.757 671.888, 587.757 681.888, 587.757 691.888, 587.757 701.888, 587.757 712.112, 587.757 " />
            <path fill="none" stroke-width="1.5" stroke-linecap="round" stroke-opacity="1.0" stroke="rgb(0, 0, 0)" stroke-linejoin="round" d=" M 311.888, 227.556 311.888, 237.556 311.888, 247.556 311.888, 257.556 311.888, 267.556 311.888, 277.556 311.888, 287.556 311.888, 297.556 311.888, 307.556 311.888, 317.556 311.888, 327.556 311.888, 337.556 311.888, 347.556 311.888, 357.556 311.888, 367.556 311.888, 377.556 311.888, 387.556 311.888, 397.556 311.888, 407.556 311.888, 417.556 311.888, 427.556 311.888, 437.556 311.888, 447.556 311.888, 457.556 311.888, 461.972 311.888, 461.972 311.888, 471.972 311.888, 481.972 311.888, 491.972 311.888, 501.994 311.888, 501.994 311.888, 507.712 321.888, 507.712 331.888, 507.712 341.888, 507.712 351.888, 507.712 361.888, 507.712 371.888, 507.712 381.888, 507.712 391.888, 507.712 401.888, 507.712 411.888, 507.712 421.888, 507.712 431.888, 507.712 441.888, 507.712 451.888, 507.712 461.888, 507.712 471.888, 507.712 481.888, 507.712 491.888, 507.712 501.888, 507.712 511.888, 507.712 521.888, 507.712 531.888, 507.712 541.888, 507.712 551.888, 507.712 561.888, 507.712 571.888, 507.712 581.888, 507.712 591.888, 507.712 601.888, 507.712 611.888, 507.712 621.888, 507.712 631.888, 507.712 641.888, 507.712 651.888, 507.712 661.888, 507.712 671.888, 507.712 681.888, 507.712 691.888, 507.712 701.888, 507.712 712.112, 507.712 712.112, 501.994 712.112, 501.994 712.112, 491.994 712.112, 481.994 712.112, 471.994 712.112, 461.972 712.112, 461.972 712.112, 451.972 712.112, 441.972 712.112, 431.972 712.112, 421.972 712.112, 411.972 712.112, 401.972 712.112, 391.972 712.112, 381.972 712.112, 371.972 712.112, 361.972 712.112, 351.972 712.112, 341.972 712.112, 331.972 712.112, 321.972 712.112, 311.972 712.112, 301.972 712.112, 291.972 712.112, 281.972 712.112, 271.972 712.112, 261.972 712.112, 251.972 712.112, 241.972 712.112, 231.972 712.112, 227.556 " />
            <path fill="none" stroke-width="1.5" stroke-linecap="round" stroke-opacity="1.0" stroke="rgb(0, 0, 0)" stroke-linejoin="round" d=" M 311.888, 461.972 301.888, 461.972 291.877, 461.972 291.877, 471.972 291.877, 481.972 291.877, 491.972 291.877, 501.994 291.877, 501.994 301.877, 501.994 311.888, 501.994 " />
            <path fill="none" stroke-width="1.5" stroke-linecap="round" stroke-opacity="1.0" stroke="rgb(0, 0, 0)" stroke-linejoin="round" d=" M 291.877, 501.994 301.877, 501.994 311.888, 501.994 " />
            <path fill="none" stroke-width="1.5" stroke-linecap="round" stroke-opacity="1.0" stroke="rgb(0, 0, 0)" stroke-linejoin="round" d=" M 712.112, 501.994 722.112, 501.994 732.123, 501.994 732.123, 501.994 732.123, 491.994 732.123, 481.994 732.123, 471.994 732.123, 461.972 722.123, 461.972 712.112, 461.972 " />
            <path fill="none" stroke-width="1.5" stroke-linecap="round" stroke-opacity="1.0" stroke="rgb(0, 0, 0)" stroke-linejoin="round" d=" M 712.112, 227.556 702.112, 227.556 692.112, 227.556 682.112, 227.556 672.112, 227.556 662.112, 227.556 652.112, 227.556 642.112, 227.556 632.112, 227.556 622.112, 227.556 612.112, 227.556 602.112, 227.556 592.112, 227.556 582.112, 227.556 572.112, 227.556 562.112, 227.556 552.112, 227.556 542.112, 227.556 532.112, 227.556 522.112, 227.556 512.112, 227.556 502.112, 227.556 492.112, 227.556 482.112, 227.556 472.112, 227.556 462.112, 227.556 452.112, 227.556 442.112, 227.556 432.112, 227.556 422.112, 227.556 412.112, 227.556 402.112, 227.556 392.112, 227.556 382.112, 227.556 372.112, 227.556 362.112, 227.556 352.112, 227.556 342.112, 227.556 332.112, 227.556 322.112, 227.556 311.888, 227.556 " />
            <path fill="none" stroke-width="1.5" stroke-linecap="round" stroke-opacity="1.0" stroke="rgb(0, 0, 0)" stroke-linejoin="round" d=" M 712.112, 501.994 722.112, 501.994 732.123, 501.994 " />
        </g>
    </g>
    <g id="ViewLayer_TechnicalLines.003" inkscape:groupmode="lineset" inkscape:label="ViewLayer_TechnicalLines.003">
        <g inkscape:groupmode="layer" id="strokes" inkscape:label="strokes">
            <path fill="none" stroke-width="1.5" stroke-linecap="round" stroke-opacity="1.0" stroke="rgb(0, 0, 0)" stroke-linejoin="round" d=" M 397.650, 796.444 397.650, 786.444 397.650, 776.444 397.650, 766.444 397.650, 756.444 397.650, 746.444 397.650, 736.444 397.650, 726.444 397.650, 716.444 397.650, 706.444 397.650, 696.444 397.650, 686.444 397.650, 676.444 397.650, 666.444 397.650, 656.444 397.650, 646.444 397.650, 636.444 397.650, 624.920 397.101, 624.920 395.474, 624.920 392.833, 624.920 389.277, 624.920 384.945, 624.920 380.003, 624.920 374.640, 624.920 369.063, 624.920 363.486, 624.920 358.123, 624.920 353.181, 624.920 348.849, 624.920 345.294, 624.920 342.652, 624.920 341.025, 624.920 340.476, 624.920 340.476, 634.920 340.476, 644.920 340.476, 654.920 340.476, 664.920 340.476, 674.920 340.476, 684.920 340.476, 694.920 340.476, 704.920 340.476, 714.920 340.476, 724.920 340.476, 734.920 340.476, 744.920 340.476, 754.920 340.476, 764.920 340.476, 774.920 340.476, 784.920 340.476, 796.444 341.025, 796.444 342.652, 796.444 345.294, 796.444 348.849, 796.444 353.181, 796.444 358.123, 796.444 363.486, 796.444 369.063, 796.444 374.640, 796.444 380.003, 796.444 384.945, 796.444 389.277, 796.444 392.833, 796.444 395.474, 796.444 397.101, 796.444 397.650, 796.444 " />
            <path fill="none" stroke-width="1.5" stroke-linecap="round" stroke-opacity="1.0" stroke="rgb(0, 0, 0)" stroke-linejoin="round" d=" M 683.524, 796.444 683.524, 786.444 683.524, 776.444 683.524, 766.444 683.524, 756.444 683.524, 746.444 683.524, 736.444 683.524, 726.444 683.524, 716.444 683.524, 706.444 683.524, 696.444 683.524, 686.444 683.524, 676.444 683.524, 666.444 683.524, 656.444 683.524, 646.444 683.524, 636.444 683.524, 624.920 682.975, 624.920 681.348, 624.920 678.706, 624.920 675.151, 624.920 670.819, 624.920 665.877, 624.920 660.514, 624.920 654.937, 624.920 649.360, 624.920 643.997, 624.920 639.055, 624.920 634.723, 624.920 631.167, 624.920 628.526, 624.920 626.899, 624.920 626.350, 624.920 626.350, 634.920 626.350, 644.920 626.350, 654.920 626.350, 664.920 626.350, 674.920 626.350, 684.920 626.350, 694.920 626.350, 704.920 626.350, 714.920 626.350, 724.920 626.350, 734.920 626.350, 744.920 626.350, 754.920 626.350, 764.920 626.350, 774.920 626.350, 784.920 626.350, 796.444 626.899, 796.444 628.526, 796.444 631.167, 796.444 634.723, 796.444 639.055, 796.444 643.997, 796.444 649.360, 796.444 654.937, 796.444 660.514, 796.444 665.877, 796.444 670.819, 796.444 675.151, 796.444 678.706, 796.444 681.348, 796.444 682.975, 796.444 683.524, 796.444 " />
            <path fill="none" stroke-width="1.5" stroke-linecap="round" stroke-opacity="1.0" stroke="rgb(0, 0, 0)" stroke-linejoin="round" d=" M 397.101, 624.920 397.650, 624.920 " />
            <path fill="none" stroke-width="1.5" stroke-linecap="round" stroke-opacity="1.0" stroke="rgb(0, 0, 0)" stroke-linejoin="round" d=" M 353.181, 624.920 348.849, 624.920 " />
            <path fill="none" stroke-width="1.5" stroke-linecap="round" stroke-opacity="1.0" stroke="rgb(0, 0, 0)" stroke-linejoin="round" d=" M 340.476, 624.920 341.025, 624.920 " />
            <path fill="none" stroke-width="1.5" stroke-linecap="round" stroke-opacity="1.0" stroke="rgb(0, 0, 0)" stroke-linejoin="round" d=" M 348.849, 624.920 353.181, 624.920 " />
            <path fill="none" stroke-width="1.5" stroke-linecap="round" stroke-opacity="1.0" stroke="rgb(0, 0, 0)" stroke-linejoin="round" d=" M 670.819, 624.920 675.151, 624.920 " />
            <path fill="none" stroke-width="1.5" stroke-linecap="round" stroke-opacity="1.0" stroke="rgb(0, 0, 0)" stroke-linejoin="round" d=" M 682.975, 624.920 683.524, 624.920 " />
            <path fill="none" stroke-width="1.5" stroke-linecap="round" stroke-opacity="1.0" stroke="rgb(0, 0, 0)" stroke-linejoin="round" d=" M 675.151, 624.920 670.819, 624.920 " />
            <path fill="none" stroke-width="1.5" stroke-linecap="round" stroke-opacity="1.0" stroke="rgb(0, 0, 0)" stroke-linejoin="round" d=" M 626.350, 624.920 626.899, 624.920 " />
            <path fill="none" stroke-width="1.5" stroke-linecap="round" stroke-opacity="1.0" stroke="rgb(0, 0, 0)" stroke-linejoin="round" d=" M 311.888, 547.734 311.888, 547.734 311.888, 557.734 311.888, 567.734 311.888, 577.734 311.888, 587.757 311.888, 587.757 321.888, 587.757 331.888, 587.757 341.888, 587.757 351.888, 587.757 361.888, 587.757 371.888, 587.757 381.888, 587.757 391.888, 587.757 401.888, 587.757 411.888, 587.757 421.888, 587.757 431.888, 587.757 441.888, 587.757 451.888, 587.757 461.888, 587.757 471.888, 587.757 481.888, 587.757 491.888, 587.757 501.888, 587.757 511.888, 587.757 521.888, 587.757 531.888, 587.757 541.888, 587.757 551.888, 587.757 561.888, 587.757 571.888, 587.757 581.888, 587.757 591.888, 587.757 601.888, 587.757 611.888, 587.757 621.888, 587.757 631.888, 587.757 641.888, 587.757 651.888, 587.757 661.888, 587.757 671.888, 587.757 681.888, 587.757 691.888, 587.757 701.888, 587.757 712.112, 587.757 712.112, 587.757 712.112, 577.757 712.112, 567.757 712.112, 557.757 712.112, 547.734 702.112, 547.734 692.112, 547.734 682.112, 547.734 672.112, 547.734 662.112, 547.734 652.112, 547.734 642.112, 547.734 632.112, 547.734 622.112, 547.734 612.112, 547.734 602.112, 547.734 592.112, 547.734 582.112, 547.734 572.112, 547.734 562.112, 547.734 552.112, 547.734 542.112, 547.734 532.112, 547.734 522.112, 547.734 512.112, 547.734 502.112, 547.734 492.112, 547.734 482.112, 547.734 472.112, 547.734 462.112, 547.734 452.112, 547.734 442.112, 547.734 432.112, 547.734 422.112, 547.734 412.112, 547.734 402.112, 547.734 392.112, 547.734 382.112, 547.734 372.112, 547.734 362.112, 547.734 352.112, 547.734 342.112, 547.734 332.112, 547.734 322.112, 547.734 311.888, 547.734 " />
            <path fill="none" stroke-width="1.5" stroke-linecap="round" stroke-opacity="1.0" stroke="rgb(0, 0, 0)" stroke-linejoin="round" d=" M 311.888, 587.757 321.888, 587.757 331.888, 587.757 341.888, 587.757 351.888, 587.757 361.888, 587.757 371.888, 587.757 381.888, 587.757 391.888, 587.757 401.888, 587.757 411.888, 587.757 421.888, 587.757 431.888, 587.757 441.888, 587.757 451.888, 587.757 461.888, 587.757 471.888, 587.757 481.888, 587.757 491.888, 587.757 501.888, 587.757 511.888, 587.757 521.888, 587.757 531.888, 587.757 541.888, 587.757 551.888, 587.757 561.888, 587.757 571.888, 587.757 581.888, 587.757 591.888, 587.757 601.888, 587.757 611.888, 587.757 621.888, 587.757 631.888, 587.757 641.888, 587.757 651.888, 587.757 661.888, 587.757 671.888, 587.757 681.888, 587.757 691.888, 587.757 701.888, 587.757 712.112, 587.757 " />
            <path fill="none" stroke-width="1.5" stroke-linecap="round" stroke-opacity="1.0" stroke="rgb(0, 0, 0)" stroke-linejoin="round" d=" M 311.888, 227.556 311.888, 237.556 311.888, 247.556 311.888, 257.556 311.888, 267.556 311.888, 277.556 311.888, 287.556 311.888, 297.556 311.888, 307.556 311.888, 317.556 311.888, 327.556 311.888, 337.556 311.888, 347.556 311.888, 357.556 311.888, 367.556 311.888, 377.556 311.888, 387.556 311.888, 397.556 311.888, 407.556 311.888, 417.556 311.888, 427.556 311.888, 437.556 311.888, 447.556 311.888, 457.556 311.888, 461.972 311.888, 461.972 311.888, 471.972 311.888, 481.972 311.888, 491.972 311.888, 501.994 311.888, 501.994 311.888, 507.712 321.888, 507.712 331.888, 507.712 341.888, 507.712 351.888, 507.712 361.888, 507.712 371.888, 507.712 381.888, 507.712 391.888, 507.712 401.888, 507.712 411.888, 507.712 421.888, 507.712 431.888, 507.712 441.888, 507.712 451.888, 507.712 461.888, 507.712 471.888, 507.712 481.888, 507.712 491.888, 507.712 501.888, 507.712 511.888, 507.712 521.888, 507.712 531.888, 507.712 541.888, 507.712 551.888, 507.712 561.888, 507.712 571.888, 507.712 581.888, 507.712 591.888, 507.712 601.888, 507.712 611.888, 507.712 621.888, 507.712 631.888, 507.712 641.888, 507.712 651.888, 507.712 661.888, 507.712 671.888, 507.712 681.888, 507.712 691.888, 507.712 701.888, 507.712 712.112, 507.712 712.112, 501.994 712.112, 501.994 712.112, 491.994 712.112, 481.994 712.112, 471.994 712.112, 461.972 712.112, 461.972 712.112, 451.972 712.112, 441.972 712.112, 431.972 712.112, 421.972 712.112, 411.972 712.112, 401.972 712.112, 391.972 712.112, 381.972 712.112, 371.972 712.112, 361.972 712.112, 351.972 712.112, 341.972 712.112, 331.972 712.112, 321.972 712.112, 311.972 712.112, 301.972 712.112, 291.972 712.112, 281.972 712.112, 271.972 712.112, 261.972 712.112, 251.972 712.112, 241.972 712.112, 231.972 712.112, 227.556 " />
            <path fill="none" stroke-width="1.5" stroke-linecap="round" stroke-opacity="1.0" stroke="rgb(0, 0, 0)" stroke-linejoin="round" d=" M 311.888, 461.972 301.888, 461.972 291.877, 461.972 291.877, 471.972 291.877, 481.972 291.877, 491.972 291.877, 501.994 291.877, 501.994 301.877, 501.994 311.888, 501.994 " />
            <path fill="none" stroke-width="1.5" stroke-linecap="round" stroke-opacity="1.0" stroke="rgb(0, 0, 0)" stroke-linejoin="round" d=" M 291.877, 501.994 301.877, 501.994 311.888, 501.994 " />
            <path fill="none" stroke-width="1.5" stroke-linecap="round" stroke-opacity="1.0" stroke="rgb(0, 0, 0)" stroke-linejoin="round" d=" M 712.112, 501.994 722.112, 501.994 732.123, 501.994 732.123, 501.994 732.123, 491.994 732.123, 481.994 732.123, 471.994 732.123, 461.972 722.123, 461.972 712.112, 461.972 " />
            <path fill="none" stroke-width="1.5" stroke-linecap="round" stroke-opacity="1.0" stroke="rgb(0, 0, 0)" stroke-linejoin="round" d=" M 712.112, 227.556 702.112, 227.556 692.112, 227.556 682.112, 227.556 672.112, 227.556 662.112, 227.556 652.112, 227.556 642.112, 227.556 632.112, 227.556 622.112, 227.556 612.112, 227.556 602.112, 227.556 592.112, 227.556 582.112, 227.556 572.112, 227.556 562.112, 227.556 552.112, 227.556 542.112, 227.556 532.112, 227.556 522.112, 227.556 512.112, 227.556 502.112, 227.556 492.112, 227.556 482.112, 227.556 472.112, 227.556 462.112, 227.556 452.112, 227.556 442.112, 227.556 432.112, 227.556 422.112, 227.556 412.112, 227.556 402.112, 227.556 392.112, 227.556 382.112, 227.556 372.112, 227.556 362.112, 227.556 352.112, 227.556 342.112, 227.556 332.112, 227.556 322.112, 227.556 311.888, 227.556 " />
            <path fill="none" stroke-width="1.5" stroke-linecap="round" stroke-opacity="1.0" stroke="rgb(0, 0, 0)" stroke-linejoin="round" d=" M 712.112, 501.994 722.112, 501.994 732.123, 501.994 " />
        </g>
    </g>
    <g id="ViewLayer_TechnicalLines.004" xmlns:inkscape="http://www.inkscape.org/namespaces/inkscape" inkscape:groupmode="lineset" inkscape:label="ViewLayer_TechnicalLines.004">
        <g xmlns:inkscape="http://www.inkscape.org/namespaces/inkscape" inkscape:groupmode="layer" id="strokes" inkscape:label="strokes">
            <path fill="none" stroke-width="1.5" stroke-linecap="round" stroke-opacity="1.0" stroke="rgb(0, 0, 0)" stroke-linejoin="round" d=" M 397.650, 796.444 397.650, 786.444 397.650, 776.444 397.650, 766.444 397.650, 756.444 397.650, 746.444 397.650, 736.444 397.650, 726.444 397.650, 716.444 397.650, 706.444 397.650, 696.444 397.650, 686.444 397.650, 676.444 397.650, 666.444 397.650, 656.444 397.650, 646.444 397.650, 636.444 397.650, 624.920 397.101, 624.920 395.474, 624.920 392.833, 624.920 389.277, 624.920 384.945, 624.920 380.003, 624.920 374.640, 624.920 369.063, 624.920 363.486, 624.920 358.123, 624.920 353.181, 624.920 348.849, 624.920 345.294, 624.920 342.652, 624.920 341.025, 624.920 340.476, 624.920 340.476, 634.920 340.476, 644.920 340.476, 654.920 340.476, 664.920 340.476, 674.920 340.476, 684.920 340.476, 694.920 340.476, 704.920 340.476, 714.920 340.476, 724.920 340.476, 734.920 340.476, 744.920 340.476, 754.920 340.476, 764.920 340.476, 774.920 340.476, 784.920 340.476, 796.444 341.025, 796.444 342.652, 796.444 345.294, 796.444 348.849, 796.444 353.181, 796.444 358.123, 796.444 363.486, 796.444 369.063, 796.444 374.640, 796.444 380.003, 796.444 384.945, 796.444 389.277, 796.444 392.833, 796.444 395.474, 796.444 397.101, 796.444 397.650, 796.444 " />
            <path fill="none" stroke-width="1.5" stroke-linecap="round" stroke-opacity="1.0" stroke="rgb(0, 0, 0)" stroke-linejoin="round" d=" M 683.524, 796.444 683.524, 786.444 683.524, 776.444 683.524, 766.444 683.524, 756.444 683.524, 746.444 683.524, 736.444 683.524, 726.444 683.524, 716.444 683.524, 706.444 683.524, 696.444 683.524, 686.444 683.524, 676.444 683.524, 666.444 683.524, 656.444 683.524, 646.444 683.524, 636.444 683.524, 624.920 682.975, 624.920 681.348, 624.920 678.706, 624.920 675.151, 624.920 670.819, 624.920 665.877, 624.920 660.514, 624.920 654.937, 624.920 649.360, 624.920 643.997, 624.920 639.055, 624.920 634.723, 624.920 631.167, 624.920 628.526, 624.920 626.899, 624.920 626.350, 624.920 626.350, 634.920 626.350, 644.920 626.350, 654.920 626.350, 664.920 626.350, 674.920 626.350, 684.920 626.350, 694.920 626.350, 704.920 626.350, 714.920 626.350, 724.920 626.350, 734.920 626.350, 744.920 626.350, 754.920 626.350, 764.920 626.350, 774.920 626.350, 784.920 626.350, 796.444 626.899, 796.444 628.526, 796.444 631.167, 796.444 634.723, 796.444 639.055, 796.444 643.997, 796.444 649.360, 796.444 654.937, 796.444 660.514, 796.444 665.877, 796.444 670.819, 796.444 675.151, 796.444 678.706, 796.444 681.348, 796.444 682.975, 796.444 683.524, 796.444 " />
            <path fill="none" stroke-width="1.5" stroke-linecap="round" stroke-opacity="1.0" stroke="rgb(0, 0, 0)" stroke-linejoin="round" d=" M 397.101, 624.920 397.650, 624.920 " />
            <path fill="none" stroke-width="1.5" stroke-linecap="round" stroke-opacity="1.0" stroke="rgb(0, 0, 0)" stroke-linejoin="round" d=" M 353.181, 624.920 348.849, 624.920 " />
            <path fill="none" stroke-width="1.5" stroke-linecap="round" stroke-opacity="1.0" stroke="rgb(0, 0, 0)" stroke-linejoin="round" d=" M 340.476, 624.920 341.025, 624.920 " />
            <path fill="none" stroke-width="1.5" stroke-linecap="round" stroke-opacity="1.0" stroke="rgb(0, 0, 0)" stroke-linejoin="round" d=" M 348.849, 624.920 353.181, 624.920 " />
            <path fill="none" stroke-width="1.5" stroke-linecap="round" stroke-opacity="1.0" stroke="rgb(0, 0, 0)" stroke-linejoin="round" d=" M 670.819, 624.920 675.151, 624.920 " />
            <path fill="none" stroke-width="1.5" stroke-linecap="round" stroke-opacity="1.0" stroke="rgb(0, 0, 0)" stroke-linejoin="round" d=" M 682.975, 624.920 683.524, 624.920 " />
            <path fill="none" stroke-width="1.5" stroke-linecap="round" stroke-opacity="1.0" stroke="rgb(0, 0, 0)" stroke-linejoin="round" d=" M 675.151, 624.920 670.819, 624.920 " />
            <path fill="none" stroke-width="1.5" stroke-linecap="round" stroke-opacity="1.0" stroke="rgb(0, 0, 0)" stroke-linejoin="round" d=" M 626.350, 624.920 626.899, 624.920 " />
            <path fill="none" stroke-width="1.5" stroke-linecap="round" stroke-opacity="1.0" stroke="rgb(0, 0, 0)" stroke-linejoin="round" d=" M 311.888, 547.734 311.888, 547.734 311.888, 557.734 311.888, 567.734 311.888, 577.734 311.888, 587.757 311.888, 587.757 321.888, 587.757 331.888, 587.757 341.888, 587.757 351.888, 587.757 361.888, 587.757 371.888, 587.757 381.888, 587.757 391.888, 587.757 401.888, 587.757 411.888, 587.757 421.888, 587.757 431.888, 587.757 441.888, 587.757 451.888, 587.757 461.888, 587.757 471.888, 587.757 481.888, 587.757 491.888, 587.757 501.888, 587.757 511.888, 587.757 521.888, 587.757 531.888, 587.757 541.888, 587.757 551.888, 587.757 561.888, 587.757 571.888, 587.757 581.888, 587.757 591.888, 587.757 601.888, 587.757 611.888, 587.757 621.888, 587.757 631.888, 587.757 641.888, 587.757 651.888, 587.757 661.888, 587.757 671.888, 587.757 681.888, 587.757 691.888, 587.757 701.888, 587.757 712.112, 587.757 712.112, 587.757 712.112, 577.757 712.112, 567.757 712.112, 557.757 712.112, 547.734 702.112, 547.734 692.112, 547.734 682.112, 547.734 672.112, 547.734 662.112, 547.734 652.112, 547.734 642.112, 547.734 632.112, 547.734 622.112, 547.734 612.112, 547.734 602.112, 547.734 592.112, 547.734 582.112, 547.734 572.112, 547.734 562.112, 547.734 552.112, 547.734 542.112, 547.734 532.112, 547.734 522.112, 547.734 512.112, 547.734 502.112, 547.734 492.112, 547.734 482.112, 547.734 472.112, 547.734 462.112, 547.734 452.112, 547.734 442.112, 547.734 432.112, 547.734 422.112, 547.734 412.112, 547.734 402.112, 547.734 392.112, 547.734 382.112, 547.734 372.112, 547.734 362.112, 547.734 352.112, 547.734 342.112, 547.734 332.112, 547.734 322.112, 547.734 311.888, 547.734 " />
            <path fill="none" stroke-width="1.5" stroke-linecap="round" stroke-opacity="1.0" stroke="rgb(0, 0, 0)" stroke-linejoin="round" d=" M 311.888, 587.757 321.888, 587.757 331.888, 587.757 341.888, 587.757 351.888, 587.757 361.888, 587.757 371.888, 587.757 381.888, 587.757 391.888, 587.757 401.888, 587.757 411.888, 587.757 421.888, 587.757 431.888, 587.757 441.888, 587.757 451.888, 587.757 461.888, 587.757 471.888, 587.757 481.888, 587.757 491.888, 587.757 501.888, 587.757 511.888, 587.757 521.888, 587.757 531.888, 587.757 541.888, 587.757 551.888, 587.757 561.888, 587.757 571.888, 587.757 581.888, 587.757 591.888, 587.757 601.888, 587.757 611.888, 587.757 621.888, 587.757 631.888, 587.757 641.888, 587.757 651.888, 587.757 661.888, 587.757 671.888, 587.757 681.888, 587.757 691.888, 587.757 701.888, 587.757 712.112, 587.757 " />
            <path fill="none" stroke-width="1.5" stroke-linecap="round" stroke-opacity="1.0" stroke="rgb(0, 0, 0)" stroke-linejoin="round" d=" M 311.888, 227.556 311.888, 237.556 311.888, 247.556 311.888, 257.556 311.888, 267.556 311.888, 277.556 311.888, 287.556 311.888, 297.556 311.888, 307.556 311.888, 317.556 311.888, 327.556 311.888, 337.556 311.888, 347.556 311.888, 357.556 311.888, 367.556 311.888, 377.556 311.888, 387.556 311.888, 397.556 311.888, 407.556 311.888, 417.556 311.888, 427.556 311.888, 437.556 311.888, 447.556 311.888, 457.556 311.888, 461.972 311.888, 461.972 311.888, 471.972 311.888, 481.972 311.888, 491.972 311.888, 501.994 311.888, 501.994 311.888, 507.712 321.888, 507.712 331.888, 507.712 341.888, 507.712 351.888, 507.712 361.888, 507.712 371.888, 507.712 381.888, 507.712 391.888, 507.712 401.888, 507.712 411.888, 507.712 421.888, 507.712 431.888, 507.712 441.888, 507.712 451.888, 507.712 461.888, 507.712 471.888, 507.712 481.888, 507.712 491.888, 507.712 501.888, 507.712 511.888, 507.712 521.888, 507.712 531.888, 507.712 541.888, 507.712 551.888, 507.712 561.888, 507.712 571.888, 507.712 581.888, 507.712 591.888, 507.712 601.888, 507.712 611.888, 507.712 621.888, 507.712 631.888, 507.712 641.888, 507.712 651.888, 507.712 661.888, 507.712 671.888, 507.712 681.888, 507.712 691.888, 507.712 701.888, 507.712 712.112, 507.712 712.112, 501.994 712.112, 501.994 712.112, 491.994 712.112, 481.994 712.112, 471.994 712.112, 461.972 712.112, 461.972 712.112, 451.972 712.112, 441.972 712.112, 431.972 712.112, 421.972 712.112, 411.972 712.112, 401.972 712.112, 391.972 712.112, 381.972 712.112, 371.972 712.112, 361.972 712.112, 351.972 712.112, 341.972 712.112, 331.972 712.112, 321.972 712.112, 311.972 712.112, 301.972 712.112, 291.972 712.112, 281.972 712.112, 271.972 712.112, 261.972 712.112, 251.972 712.112, 241.972 712.112, 231.972 712.112, 227.556 " />
            <path fill="none" stroke-width="1.5" stroke-linecap="round" stroke-opacity="1.0" stroke="rgb(0, 0, 0)" stroke-linejoin="round" d=" M 311.888, 461.972 301.888, 461.972 291.877, 461.972 291.877, 471.972 291.877, 481.972 291.877, 491.972 291.877, 501.994 291.877, 501.994 301.877, 501.994 311.888, 501.994 " />
            <path fill="none" stroke-width="1.5" stroke-linecap="round" stroke-opacity="1.0" stroke="rgb(0, 0, 0)" stroke-linejoin="round" d=" M 291.877, 501.994 301.877, 501.994 311.888, 501.994 " />
            <path fill="none" stroke-width="1.5" stroke-linecap="round" stroke-opacity="1.0" stroke="rgb(0, 0, 0)" stroke-linejoin="round" d=" M 712.112, 501.994 722.112, 501.994 732.123, 501.994 732.123, 501.994 732.123, 491.994 732.123, 481.994 732.123, 471.994 732.123, 461.972 722.123, 461.972 712.112, 461.972 " />
            <path fill="none" stroke-width="1.5" stroke-linecap="round" stroke-opacity="1.0" stroke="rgb(0, 0, 0)" stroke-linejoin="round" d=" M 712.112, 227.556 702.112, 227.556 692.112, 227.556 682.112, 227.556 672.112, 227.556 662.112, 227.556 652.112, 227.556 642.112, 227.556 632.112, 227.556 622.112, 227.556 612.112, 227.556 602.112, 227.556 592.112, 227.556 582.112, 227.556 572.112, 227.556 562.112, 227.556 552.112, 227.556 542.112, 227.556 532.112, 227.556 522.112, 227.556 512.112, 227.556 502.112, 227.556 492.112, 227.556 482.112, 227.556 472.112, 227.556 462.112, 227.556 452.112, 227.556 442.112, 227.556 432.112, 227.556 422.112, 227.556 412.112, 227.556 402.112, 227.556 392.112, 227.556 382.112, 227.556 372.112, 227.556 362.112, 227.556 352.112, 227.556 342.112, 227.556 332.112, 227.556 322.112, 227.556 311.888, 227.556 " />
            <path fill="none" stroke-width="1.5" stroke-linecap="round" stroke-opacity="1.0" stroke="rgb(0, 0, 0)" stroke-linejoin="round" d=" M 712.112, 501.994 722.112, 501.994 732.123, 501.994 " />
        </g>
    </g>
</svg>
