<?xml version='1.0' encoding='ascii'?>
<svg xmlns="http://www.w3.org/2000/svg" xmlns:inkscape="http://www.inkscape.org/namespaces/inkscape" version="1.1" width="1024" height="1024">
    <g id="ViewLayer_LineSet" inkscape:groupmode="lineset" inkscape:label="ViewLayer_LineSet">
        <g inkscape:groupmode="layer" id="strokes" inkscape:label="strokes">
            <path fill="none" stroke-width="3.0" stroke-linecap="butt" stroke-opacity="1.0" stroke="rgb(0, 0, 0)" stroke-linejoin="round" d=" M 245.333, 627.556 245.333, 627.556 245.333, 637.556 245.333, 647.556 245.333, 657.556 245.333, 667.556 245.333, 677.556 245.333, 687.556 245.333, 697.556 245.333, 698.667 245.333, 698.667 255.333, 698.667 265.333, 698.667 275.333, 698.667 285.333, 698.667 295.333, 698.667 305.333, 698.667 315.333, 698.667 325.333, 698.667 335.333, 698.667 345.333, 698.667 355.333, 698.667 365.333, 698.667 375.333, 698.667 385.333, 698.667 395.333, 698.667 405.333, 698.667 415.333, 698.667 425.333, 698.667 435.333, 698.667 445.333, 698.667 455.333, 698.667 465.333, 698.667 475.333, 698.667 485.333, 698.667 495.333, 698.667 505.333, 698.667 515.333, 698.667 525.333, 698.667 535.333, 698.667 545.333, 698.667 555.333, 698.667 565.333, 698.667 575.333, 698.667 585.333, 698.667 595.333, 698.667 605.333, 698.667 615.333, 698.667 625.333, 698.667 635.333, 698.667 645.333, 698.667 655.333, 698.667 665.333, 698.667 675.333, 698.667 685.333, 698.667 695.333, 698.667 705.333, 698.667 715.333, 698.667 725.333, 698.667 735.333, 698.667 745.333, 698.667 755.333, 698.667 765.333, 698.667 778.667, 698.667 778.667, 698.667 778.667, 688.667 778.667, 678.667 778.667, 668.667 778.667, 658.667 778.667, 648.667 778.667, 638.667 778.667, 628.667 778.667, 627.556 778.667, 627.556 768.667, 627.556 758.667, 627.556 748.667, 627.556 738.667, 627.556 728.667, 627.556 718.667, 627.556 708.667, 627.556 698.667, 627.556 688.667, 627.556 678.667, 627.556 668.667, 627.556 658.667, 627.556 648.667, 627.556 638.667, 627.556 628.667, 627.556 618.667, 627.556 608.667, 627.556 598.667, 627.556 588.667, 627.556 578.667, 627.556 568.667, 627.556 558.667, 627.556 548.667, 627.556 538.667, 627.556 528.667, 627.556 518.667, 627.556 508.667, 627.556 498.667, 627.556 488.667, 627.556 478.667, 627.556 468.667, 627.556 458.667, 627.556 448.667, 627.556 438.667, 627.556 428.667, 627.556 418.667, 627.556 408.667, 627.556 398.667, 627.556 388.667, 627.556 378.667, 627.556 368.667, 627.556 358.667, 627.556 348.667, 627.556 338.667, 627.556 328.667, 627.556 318.667, 627.556 308.667, 627.556 298.667, 627.556 288.667, 627.556 278.667, 627.556 268.667, 627.556 258.667, 627.556 245.333, 627.556 " />
            <path fill="none" stroke-width="3.0" stroke-linecap="butt" stroke-opacity="1.0" stroke="rgb(0, 0, 0)" stroke-linejoin="round" d=" M 245.333, 698.667 255.333, 698.667 265.333, 698.667 275.333, 698.667 285.333, 698.667 295.333, 698.667 305.333, 698.667 315.333, 698.667 325.333, 698.667 335.333, 698.667 345.333, 698.667 355.333, 698.667 365.333, 698.667 375.333, 698.667 385.333, 698.667 395.333, 698.667 405.333, 698.667 415.333, 698.667 425.333, 698.667 435.333, 698.667 445.333, 698.667 455.333, 698.667 465.333, 698.667 475.333, 698.667 485.333, 698.667 495.333, 698.667 505.333, 698.667 515.333, 698.667 525.333, 698.667 535.333, 698.667 545.333, 698.667 555.333, 698.667 565.333, 698.667 575.333, 698.667 585.333, 698.667 595.333, 698.667 605.333, 698.667 615.333, 698.667 625.333, 698.667 635.333, 698.667 645.333, 698.667 655.333, 698.667 665.333, 698.667 675.333, 698.667 685.333, 698.667 695.333, 698.667 705.333, 698.667 715.333, 698.667 725.333, 698.667 735.333, 698.667 745.333, 698.667 755.333, 698.667 765.333, 698.667 778.667, 698.667 " />
            <path fill="none" stroke-width="3.0" stroke-linecap="butt" stroke-opacity="1.0" stroke="rgb(0, 0, 0)" stroke-linejoin="round" d=" M 760.889, 574.222 760.889, 564.222 760.889, 554.222 760.889, 544.222 760.889, 534.222 760.889, 524.222 760.889, 514.222 760.889, 504.222 760.889, 494.222 760.889, 484.222 760.889, 474.222 760.889, 464.222 760.889, 454.222 760.889, 444.222 760.889, 434.222 760.889, 432.000 760.889, 432.000 760.889, 422.000 760.889, 412.000 760.889, 402.000 760.889, 392.000 760.889, 382.000 760.889, 372.000 760.889, 362.000 760.889, 352.000 760.889, 342.000 760.889, 332.000 760.889, 325.333 750.889, 325.333 740.889, 325.333 730.889, 325.333 720.889, 325.333 710.889, 325.333 700.889, 325.333 690.889, 325.333 680.889, 325.333 670.889, 325.333 660.889, 325.333 650.889, 325.333 640.889, 325.333 630.889, 325.333 620.889, 325.333 610.889, 325.333 600.889, 325.333 590.889, 325.333 580.889, 325.333 570.889, 325.333 560.889, 325.333 550.889, 325.333 540.889, 325.333 530.889, 325.333 520.889, 325.333 510.889, 325.333 500.889, 325.333 490.889, 325.333 480.889, 325.333 470.889, 325.333 460.889, 325.333 450.889, 325.333 440.889, 325.333 430.889, 325.333 420.889, 325.333 410.889, 325.333 400.889, 325.333 390.889, 325.333 380.889, 325.333 370.889, 325.333 360.889, 325.333 350.889, 325.333 340.889, 325.333 330.889, 325.333 320.889, 325.333 310.889, 325.333 300.889, 325.333 290.889, 325.333 280.889, 325.333 270.889, 325.333 263.111, 325.333 263.111, 335.333 263.111, 345.333 263.111, 355.333 263.111, 365.333 263.111, 375.333 263.111, 385.333 263.111, 395.333 263.111, 405.333 263.111, 415.333 263.111, 425.333 263.111, 435.333 263.111, 445.333 263.111, 455.333 263.111, 465.333 263.111, 475.333 263.111, 485.333 263.111, 495.333 263.111, 505.333 263.111, 515.333 263.111, 520.889 263.111, 520.889 263.111, 530.889 263.111, 540.889 263.111, 550.889 263.111, 556.444 263.111, 556.444 263.111, 566.444 263.111, 574.222 " />
            <path fill="none" stroke-width="3.0" stroke-linecap="butt" stroke-opacity="1.0" stroke="rgb(0, 0, 0)" stroke-linejoin="round" d=" M 263.111, 574.222 263.111, 564.222 263.111, 556.444 263.111, 556.444 263.111, 546.444 263.111, 536.444 263.111, 526.444 263.111, 520.889 263.111, 520.889 263.111, 510.889 263.111, 500.889 263.111, 490.889 263.111, 480.889 263.111, 470.889 263.111, 460.889 263.111, 450.889 263.111, 440.889 263.111, 432.000 253.111, 432.000 243.111, 432.000 233.111, 432.000 227.556, 432.000 227.556, 442.000 227.556, 452.000 227.556, 462.000 227.556, 472.000 227.556, 482.000 227.556, 492.000 227.556, 502.000 227.556, 512.000 227.556, 522.000 227.556, 532.000 227.556, 542.000 227.556, 552.000 227.556, 562.000 227.556, 572.000 227.556, 582.000 227.556, 592.000 227.556, 602.000 227.556, 609.778 227.556, 609.778 237.556, 609.778 247.556, 609.778 257.556, 609.778 263.111, 609.778 263.111, 609.778 263.111, 599.778 263.111, 589.778 263.111, 579.778 263.111, 574.222 " />
            <path fill="none" stroke-width="3.0" stroke-linecap="butt" stroke-opacity="1.0" stroke="rgb(0, 0, 0)" stroke-linejoin="round" d=" M 227.556, 609.778 237.556, 609.778 247.556, 609.778 257.556, 609.778 263.111, 609.778 " />
            <path fill="none" stroke-width="3.0" stroke-linecap="butt" stroke-opacity="1.0" stroke="rgb(0, 0, 0)" stroke-linejoin="round" d=" M 760.889, 432.000 760.889, 432.000 760.889, 442.000 760.889, 452.000 760.889, 462.000 760.889, 472.000 760.889, 482.000 760.889, 492.000 760.889, 502.000 760.889, 512.000 760.889, 520.889 760.889, 520.889 760.889, 530.889 760.889, 540.889 760.889, 550.889 760.889, 556.444 760.889, 556.444 760.889, 566.444 760.889, 574.222 " />
            <path fill="none" stroke-width="3.0" stroke-linecap="butt" stroke-opacity="1.0" stroke="rgb(0, 0, 0)" stroke-linejoin="round" d=" M 760.889, 574.222 760.889, 584.222 760.889, 594.222 760.889, 604.222 760.889, 609.778 760.889, 609.778 770.889, 609.778 780.889, 609.778 790.889, 609.778 796.444, 609.778 796.444, 609.778 796.444, 599.778 796.444, 589.778 796.444, 579.778 796.444, 569.778 796.444, 559.778 796.444, 549.778 796.444, 539.778 796.444, 529.778 796.444, 519.778 796.444, 509.778 796.444, 499.778 796.444, 489.778 796.444, 479.778 796.444, 469.778 796.444, 459.778 796.444, 449.778 796.444, 439.778 796.444, 432.000 796.444, 432.000 786.444, 432.000 776.444, 432.000 766.444, 432.000 760.889, 432.000 " />
            <path fill="none" stroke-width="3.0" stroke-linecap="butt" stroke-opacity="1.0" stroke="rgb(0, 0, 0)" stroke-linejoin="round" d=" M 760.889, 609.778 770.889, 609.778 780.889, 609.778 790.889, 609.778 796.444, 609.778 " />
            <path fill="none" stroke-width="3.0" stroke-linecap="butt" stroke-opacity="1.0" stroke="rgb(0, 0, 0)" stroke-linejoin="round" d=" M 263.111, 574.222 273.111, 574.222 283.111, 574.222 293.111, 574.222 303.111, 574.222 313.111, 574.222 323.111, 574.222 333.111, 574.222 343.111, 574.222 353.111, 574.222 363.111, 574.222 373.111, 574.222 383.111, 574.222 393.111, 574.222 403.111, 574.222 413.111, 574.222 423.111, 574.222 433.111, 574.222 443.111, 574.222 453.111, 574.222 463.111, 574.222 473.111, 574.222 483.111, 574.222 493.111, 574.222 503.111, 574.222 513.111, 574.222 523.111, 574.222 533.111, 574.222 543.111, 574.222 553.111, 574.222 563.111, 574.222 573.111, 574.222 583.111, 574.222 593.111, 574.222 603.111, 574.222 613.111, 574.222 623.111, 574.222 633.111, 574.222 643.111, 574.222 653.111, 574.222 663.111, 574.222 673.111, 574.222 683.111, 574.222 693.111, 574.222 703.111, 574.222 713.111, 574.222 723.111, 574.222 733.111, 574.222 743.111, 574.222 753.111, 574.222 760.889, 574.222 " />
        </g>
    </g>
    <g id="ViewLayer_TechnicalLines" inkscape:groupmode="lineset" inkscape:label="ViewLayer_TechnicalLines">
        <g inkscape:groupmode="layer" id="strokes" inkscape:label="strokes">
            <path fill="none" stroke-width="3.0" stroke-linecap="butt" stroke-opacity="1.0" stroke="rgb(0, 0, 0)" stroke-linejoin="round" d=" M 245.333, 627.556 245.333, 627.556 245.333, 637.556 245.333, 647.556 245.333, 657.556 245.333, 667.556 245.333, 677.556 245.333, 687.556 245.333, 697.556 245.333, 698.667 245.333, 698.667 255.333, 698.667 265.333, 698.667 275.333, 698.667 285.333, 698.667 295.333, 698.667 305.333, 698.667 315.333, 698.667 325.333, 698.667 335.333, 698.667 345.333, 698.667 355.333, 698.667 365.333, 698.667 375.333, 698.667 385.333, 698.667 395.333, 698.667 405.333, 698.667 415.333, 698.667 425.333, 698.667 435.333, 698.667 445.333, 698.667 455.333, 698.667 465.333, 698.667 475.333, 698.667 485.333, 698.667 495.333, 698.667 505.333, 698.667 515.333, 698.667 525.333, 698.667 535.333, 698.667 545.333, 698.667 555.333, 698.667 565.333, 698.667 575.333, 698.667 585.333, 698.667 595.333, 698.667 605.333, 698.667 615.333, 698.667 625.333, 698.667 635.333, 698.667 645.333, 698.667 655.333, 698.667 665.333, 698.667 675.333, 698.667 685.333, 698.667 695.333, 698.667 705.333, 698.667 715.333, 698.667 725.333, 698.667 735.333, 698.667 745.333, 698.667 755.333, 698.667 765.333, 698.667 778.667, 698.667 778.667, 698.667 778.667, 688.667 778.667, 678.667 778.667, 668.667 778.667, 658.667 778.667, 648.667 778.667, 638.667 778.667, 628.667 778.667, 627.556 778.667, 627.556 768.667, 627.556 758.667, 627.556 748.667, 627.556 738.667, 627.556 728.667, 627.556 718.667, 627.556 708.667, 627.556 698.667, 627.556 688.667, 627.556 678.667, 627.556 668.667, 627.556 658.667, 627.556 648.667, 627.556 638.667, 627.556 628.667, 627.556 618.667, 627.556 608.667, 627.556 598.667, 627.556 588.667, 627.556 578.667, 627.556 568.667, 627.556 558.667, 627.556 548.667, 627.556 538.667, 627.556 528.667, 627.556 518.667, 627.556 508.667, 627.556 498.667, 627.556 488.667, 627.556 478.667, 627.556 468.667, 627.556 458.667, 627.556 448.667, 627.556 438.667, 627.556 428.667, 627.556 418.667, 627.556 408.667, 627.556 398.667, 627.556 388.667, 627.556 378.667, 627.556 368.667, 627.556 358.667, 627.556 348.667, 627.556 338.667, 627.556 328.667, 627.556 318.667, 627.556 308.667, 627.556 298.667, 627.556 288.667, 627.556 278.667, 627.556 268.667, 627.556 258.667, 627.556 245.333, 627.556 " />
            <path fill="none" stroke-width="3.0" stroke-linecap="butt" stroke-opacity="1.0" stroke="rgb(0, 0, 0)" stroke-linejoin="round" d=" M 245.333, 698.667 255.333, 698.667 265.333, 698.667 275.333, 698.667 285.333, 698.667 295.333, 698.667 305.333, 698.667 315.333, 698.667 325.333, 698.667 335.333, 698.667 345.333, 698.667 355.333, 698.667 365.333, 698.667 375.333, 698.667 385.333, 698.667 395.333, 698.667 405.333, 698.667 415.333, 698.667 425.333, 698.667 435.333, 698.667 445.333, 698.667 455.333, 698.667 465.333, 698.667 475.333, 698.667 485.333, 698.667 495.333, 698.667 505.333, 698.667 515.333, 698.667 525.333, 698.667 535.333, 698.667 545.333, 698.667 555.333, 698.667 565.333, 698.667 575.333, 698.667 585.333, 698.667 595.333, 698.667 605.333, 698.667 615.333, 698.667 625.333, 698.667 635.333, 698.667 645.333, 698.667 655.333, 698.667 665.333, 698.667 675.333, 698.667 685.333, 698.667 695.333, 698.667 705.333, 698.667 715.333, 698.667 725.333, 698.667 735.333, 698.667 745.333, 698.667 755.333, 698.667 765.333, 698.667 778.667, 698.667 " />
            <path fill="none" stroke-width="3.0" stroke-linecap="butt" stroke-opacity="1.0" stroke="rgb(0, 0, 0)" stroke-linejoin="round" d=" M 760.889, 574.222 760.889, 564.222 760.889, 554.222 760.889, 544.222 760.889, 534.222 760.889, 524.222 760.889, 514.222 760.889, 504.222 760.889, 494.222 760.889, 484.222 760.889, 474.222 760.889, 464.222 760.889, 454.222 760.889, 444.222 760.889, 434.222 760.889, 432.000 760.889, 432.000 760.889, 422.000 760.889, 412.000 760.889, 402.000 760.889, 392.000 760.889, 382.000 760.889, 372.000 760.889, 362.000 760.889, 352.000 760.889, 342.000 760.889, 332.000 760.889, 325.333 750.889, 325.333 740.889, 325.333 730.889, 325.333 720.889, 325.333 710.889, 325.333 700.889, 325.333 690.889, 325.333 680.889, 325.333 670.889, 325.333 660.889, 325.333 650.889, 325.333 640.889, 325.333 630.889, 325.333 620.889, 325.333 610.889, 325.333 600.889, 325.333 590.889, 325.333 580.889, 325.333 570.889, 325.333 560.889, 325.333 550.889, 325.333 540.889, 325.333 530.889, 325.333 520.889, 325.333 510.889, 325.333 500.889, 325.333 490.889, 325.333 480.889, 325.333 470.889, 325.333 460.889, 325.333 450.889, 325.333 440.889, 325.333 430.889, 325.333 420.889, 325.333 410.889, 325.333 400.889, 325.333 390.889, 325.333 380.889, 325.333 370.889, 325.333 360.889, 325.333 350.889, 325.333 340.889, 325.333 330.889, 325.333 320.889, 325.333 310.889, 325.333 300.889, 325.333 290.889, 325.333 280.889, 325.333 270.889, 325.333 263.111, 325.333 263.111, 335.333 263.111, 345.333 263.111, 355.333 263.111, 365.333 263.111, 375.333 263.111, 385.333 263.111, 395.333 263.111, 405.333 263.111, 415.333 263.111, 425.333 263.111, 435.333 263.111, 445.333 263.111, 455.333 263.111, 465.333 263.111, 475.333 263.111, 485.333 263.111, 495.333 263.111, 505.333 263.111, 515.333 263.111, 520.889 263.111, 520.889 263.111, 530.889 263.111, 540.889 263.111, 550.889 263.111, 556.444 263.111, 556.444 263.111, 566.444 263.111, 574.222 " />
            <path fill="none" stroke-width="3.0" stroke-linecap="butt" stroke-opacity="1.0" stroke="rgb(0, 0, 0)" stroke-linejoin="round" d=" M 263.111, 574.222 263.111, 564.222 263.111, 556.444 263.111, 556.444 263.111, 546.444 263.111, 536.444 263.111, 526.444 263.111, 520.889 263.111, 520.889 263.111, 510.889 263.111, 500.889 263.111, 490.889 263.111, 480.889 263.111, 470.889 263.111, 460.889 263.111, 450.889 263.111, 440.889 263.111, 432.000 253.111, 432.000 243.111, 432.000 233.111, 432.000 227.556, 432.000 227.556, 442.000 227.556, 452.000 227.556, 462.000 227.556, 472.000 227.556, 482.000 227.556, 492.000 227.556, 502.000 227.556, 512.000 227.556, 522.000 227.556, 532.000 227.556, 542.000 227.556, 552.000 227.556, 562.000 227.556, 572.000 227.556, 582.000 227.556, 592.000 227.556, 602.000 227.556, 609.778 227.556, 609.778 237.556, 609.778 247.556, 609.778 257.556, 609.778 263.111, 609.778 263.111, 609.778 263.111, 599.778 263.111, 589.778 263.111, 579.778 263.111, 574.222 " />
            <path fill="none" stroke-width="3.0" stroke-linecap="butt" stroke-opacity="1.0" stroke="rgb(0, 0, 0)" stroke-linejoin="round" d=" M 227.556, 609.778 237.556, 609.778 247.556, 609.778 257.556, 609.778 263.111, 609.778 " />
            <path fill="none" stroke-width="3.0" stroke-linecap="butt" stroke-opacity="1.0" stroke="rgb(0, 0, 0)" stroke-linejoin="round" d=" M 760.889, 432.000 760.889, 432.000 760.889, 442.000 760.889, 452.000 760.889, 462.000 760.889, 472.000 760.889, 482.000 760.889, 492.000 760.889, 502.000 760.889, 512.000 760.889, 520.889 760.889, 520.889 760.889, 530.889 760.889, 540.889 760.889, 550.889 760.889, 556.444 760.889, 556.444 760.889, 566.444 760.889, 574.222 " />
            <path fill="none" stroke-width="3.0" stroke-linecap="butt" stroke-opacity="1.0" stroke="rgb(0, 0, 0)" stroke-linejoin="round" d=" M 760.889, 574.222 760.889, 584.222 760.889, 594.222 760.889, 604.222 760.889, 609.778 760.889, 609.778 770.889, 609.778 780.889, 609.778 790.889, 609.778 796.444, 609.778 796.444, 609.778 796.444, 599.778 796.444, 589.778 796.444, 579.778 796.444, 569.778 796.444, 559.778 796.444, 549.778 796.444, 539.778 796.444, 529.778 796.444, 519.778 796.444, 509.778 796.444, 499.778 796.444, 489.778 796.444, 479.778 796.444, 469.778 796.444, 459.778 796.444, 449.778 796.444, 439.778 796.444, 432.000 796.444, 432.000 786.444, 432.000 776.444, 432.000 766.444, 432.000 760.889, 432.000 " />
            <path fill="none" stroke-width="3.0" stroke-linecap="butt" stroke-opacity="1.0" stroke="rgb(0, 0, 0)" stroke-linejoin="round" d=" M 760.889, 609.778 770.889, 609.778 780.889, 609.778 790.889, 609.778 796.444, 609.778 " />
            <path fill="none" stroke-width="3.0" stroke-linecap="butt" stroke-opacity="1.0" stroke="rgb(0, 0, 0)" stroke-linejoin="round" d=" M 263.111, 574.222 273.111, 574.222 283.111, 574.222 293.111, 574.222 303.111, 574.222 313.111, 574.222 323.111, 574.222 333.111, 574.222 343.111, 574.222 353.111, 574.222 363.111, 574.222 373.111, 574.222 383.111, 574.222 393.111, 574.222 403.111, 574.222 413.111, 574.222 423.111, 574.222 433.111, 574.222 443.111, 574.222 453.111, 574.222 463.111, 574.222 473.111, 574.222 483.111, 574.222 493.111, 574.222 503.111, 574.222 513.111, 574.222 523.111, 574.222 533.111, 574.222 543.111, 574.222 553.111, 574.222 563.111, 574.222 573.111, 574.222 583.111, 574.222 593.111, 574.222 603.111, 574.222 613.111, 574.222 623.111, 574.222 633.111, 574.222 643.111, 574.222 653.111, 574.222 663.111, 574.222 673.111, 574.222 683.111, 574.222 693.111, 574.222 703.111, 574.222 713.111, 574.222 723.111, 574.222 733.111, 574.222 743.111, 574.222 753.111, 574.222 760.889, 574.222 " />
        </g>
    </g>
    <g id="ViewLayer_TechnicalLines.001" inkscape:groupmode="lineset" inkscape:label="ViewLayer_TechnicalLines.001">
        <g inkscape:groupmode="layer" id="strokes" inkscape:label="strokes">
            <path fill="none" stroke-width="1.5" stroke-linecap="round" stroke-opacity="1.0" stroke="rgb(0, 0, 0)" stroke-linejoin="round" d=" M 245.333, 627.556 245.333, 627.556 245.333, 637.556 245.333, 647.556 245.333, 657.556 245.333, 667.556 245.333, 677.556 245.333, 687.556 245.333, 697.556 245.333, 698.667 245.333, 698.667 255.333, 698.667 265.333, 698.667 275.333, 698.667 285.333, 698.667 295.333, 698.667 305.333, 698.667 315.333, 698.667 325.333, 698.667 335.333, 698.667 345.333, 698.667 355.333, 698.667 365.333, 698.667 375.333, 698.667 385.333, 698.667 395.333, 698.667 405.333, 698.667 415.333, 698.667 425.333, 698.667 435.333, 698.667 445.333, 698.667 455.333, 698.667 465.333, 698.667 475.333, 698.667 485.333, 698.667 495.333, 698.667 505.333, 698.667 515.333, 698.667 525.333, 698.667 535.333, 698.667 545.333, 698.667 555.333, 698.667 565.333, 698.667 575.333, 698.667 585.333, 698.667 595.333, 698.667 605.333, 698.667 615.333, 698.667 625.333, 698.667 635.333, 698.667 645.333, 698.667 655.333, 698.667 665.333, 698.667 675.333, 698.667 685.333, 698.667 695.333, 698.667 705.333, 698.667 715.333, 698.667 725.333, 698.667 735.333, 698.667 745.333, 698.667 755.333, 698.667 765.333, 698.667 778.667, 698.667 778.667, 698.667 778.667, 688.667 778.667, 678.667 778.667, 668.667 778.667, 658.667 778.667, 648.667 778.667, 638.667 778.667, 628.667 778.667, 627.556 778.667, 627.556 768.667, 627.556 758.667, 627.556 748.667, 627.556 738.667, 627.556 728.667, 627.556 718.667, 627.556 708.667, 627.556 698.667, 627.556 688.667, 627.556 678.667, 627.556 668.667, 627.556 658.667, 627.556 648.667, 627.556 638.667, 627.556 628.667, 627.556 618.667, 627.556 608.667, 627.556 598.667, 627.556 588.667, 627.556 578.667, 627.556 568.667, 627.556 558.667, 627.556 548.667, 627.556 538.667, 627.556 528.667, 627.556 518.667, 627.556 508.667, 627.556 498.667, 627.556 488.667, 627.556 478.667, 627.556 468.667, 627.556 458.667, 627.556 448.667, 627.556 438.667, 627.556 428.667, 627.556 418.667, 627.556 408.667, 627.556 398.667, 627.556 388.667, 627.556 378.667, 627.556 368.667, 627.556 358.667, 627.556 348.667, 627.556 338.667, 627.556 328.667, 627.556 318.667, 627.556 308.667, 627.556 298.667, 627.556 288.667, 627.556 278.667, 627.556 268.667, 627.556 258.667, 627.556 245.333, 627.556 " />
            <path fill="none" stroke-width="1.5" stroke-linecap="round" stroke-opacity="1.0" stroke="rgb(0, 0, 0)" stroke-linejoin="round" d=" M 245.333, 698.667 255.333, 698.667 265.333, 698.667 275.333, 698.667 285.333, 698.667 295.333, 698.667 305.333, 698.667 315.333, 698.667 325.333, 698.667 335.333, 698.667 345.333, 698.667 355.333, 698.667 365.333, 698.667 375.333, 698.667 385.333, 698.667 395.333, 698.667 405.333, 698.667 415.333, 698.667 425.333, 698.667 435.333, 698.667 445.333, 698.667 455.333, 698.667 465.333, 698.667 475.333, 698.667 485.333, 698.667 495.333, 698.667 505.333, 698.667 515.333, 698.667 525.333, 698.667 535.333, 698.667 545.333, 698.667 555.333, 698.667 565.333, 698.667 575.333, 698.667 585.333, 698.667 595.333, 698.667 605.333, 698.667 615.333, 698.667 625.333, 698.667 635.333, 698.667 645.333, 698.667 655.333, 698.667 665.333, 698.667 675.333, 698.667 685.333, 698.667 695.333, 698.667 705.333, 698.667 715.333, 698.667 725.333, 698.667 735.333, 698.667 745.333, 698.667 755.333, 698.667 765.333, 698.667 778.667, 698.667 " />
            <path fill="none" stroke-width="1.5" stroke-linecap="round" stroke-opacity="1.0" stroke="rgb(0, 0, 0)" stroke-linejoin="round" d=" M 760.889, 574.222 760.889, 564.222 760.889, 554.222 760.889, 544.222 760.889, 534.222 760.889, 524.222 760.889, 514.222 760.889, 504.222 760.889, 494.222 760.889, 484.222 760.889, 474.222 760.889, 464.222 760.889, 454.222 760.889, 444.222 760.889, 434.222 760.889, 432.000 760.889, 432.000 760.889, 422.000 760.889, 412.000 760.889, 402.000 760.889, 392.000 760.889, 382.000 760.889, 372.000 760.889, 362.000 760.889, 352.000 760.889, 342.000 760.889, 332.000 760.889, 325.333 750.889, 325.333 740.889, 325.333 730.889, 325.333 720.889, 325.333 710.889, 325.333 700.889, 325.333 690.889, 325.333 680.889, 325.333 670.889, 325.333 660.889, 325.333 650.889, 325.333 640.889, 325.333 630.889, 325.333 620.889, 325.333 610.889, 325.333 600.889, 325.333 590.889, 325.333 580.889, 325.333 570.889, 325.333 560.889, 325.333 550.889, 325.333 540.889, 325.333 530.889, 325.333 520.889, 325.333 510.889, 325.333 500.889, 325.333 490.889, 325.333 480.889, 325.333 470.889, 325.333 460.889, 325.333 450.889, 325.333 440.889, 325.333 430.889, 325.333 420.889, 325.333 410.889, 325.333 400.889, 325.333 390.889, 325.333 380.889, 325.333 370.889, 325.333 360.889, 325.333 350.889, 325.333 340.889, 325.333 330.889, 325.333 320.889, 325.333 310.889, 325.333 300.889, 325.333 290.889, 325.333 280.889, 325.333 270.889, 325.333 263.111, 325.333 263.111, 335.333 263.111, 345.333 263.111, 355.333 263.111, 365.333 263.111, 375.333 263.111, 385.333 263.111, 395.333 263.111, 405.333 263.111, 415.333 263.111, 425.333 263.111, 435.333 263.111, 445.333 263.111, 455.333 263.111, 465.333 263.111, 475.333 263.111, 485.333 263.111, 495.333 263.111, 505.333 263.111, 515.333 263.111, 520.889 263.111, 520.889 263.111, 530.889 263.111, 540.889 263.111, 550.889 263.111, 556.444 263.111, 556.444 263.111, 566.444 263.111, 574.222 " />
            <path fill="none" stroke-width="1.5" stroke-linecap="round" stroke-opacity="1.0" stroke="rgb(0, 0, 0)" stroke-linejoin="round" d=" M 263.111, 574.222 263.111, 564.222 263.111, 556.444 263.111, 556.444 263.111, 546.444 263.111, 536.444 263.111, 526.444 263.111, 520.889 263.111, 520.889 263.111, 510.889 263.111, 500.889 263.111, 490.889 263.111, 480.889 263.111, 470.889 263.111, 460.889 263.111, 450.889 263.111, 440.889 263.111, 432.000 253.111, 432.000 243.111, 432.000 233.111, 432.000 227.556, 432.000 227.556, 442.000 227.556, 452.000 227.556, 462.000 227.556, 472.000 227.556, 482.000 227.556, 492.000 227.556, 502.000 227.556, 512.000 227.556, 522.000 227.556, 532.000 227.556, 542.000 227.556, 552.000 227.556, 562.000 227.556, 572.000 227.556, 582.000 227.556, 592.000 227.556, 602.000 227.556, 609.778 227.556, 609.778 237.556, 609.778 247.556, 609.778 257.556, 609.778 263.111, 609.778 263.111, 609.778 263.111, 599.778 263.111, 589.778 263.111, 579.778 263.111, 574.222 " />
            <path fill="none" stroke-width="1.5" stroke-linecap="round" stroke-opacity="1.0" stroke="rgb(0, 0, 0)" stroke-linejoin="round" d=" M 227.556, 609.778 237.556, 609.778 247.556, 609.778 257.556, 609.778 263.111, 609.778 " />
            <path fill="none" stroke-width="1.5" stroke-linecap="round" stroke-opacity="1.0" stroke="rgb(0, 0, 0)" stroke-linejoin="round" d=" M 760.889, 432.000 760.889, 432.000 760.889, 442.000 760.889, 452.000 760.889, 462.000 760.889, 472.000 760.889, 482.000 760.889, 492.000 760.889, 502.000 760.889, 512.000 760.889, 520.889 760.889, 520.889 760.889, 530.889 760.889, 540.889 760.889, 550.889 760.889, 556.444 760.889, 556.444 760.889, 566.444 760.889, 574.222 " />
            <path fill="none" stroke-width="1.5" stroke-linecap="round" stroke-opacity="1.0" stroke="rgb(0, 0, 0)" stroke-linejoin="round" d=" M 760.889, 574.222 760.889, 584.222 760.889, 594.222 760.889, 604.222 760.889, 609.778 760.889, 609.778 770.889, 609.778 780.889, 609.778 790.889, 609.778 796.444, 609.778 796.444, 609.778 796.444, 599.778 796.444, 589.778 796.444, 579.778 796.444, 569.778 796.444, 559.778 796.444, 549.778 796.444, 539.778 796.444, 529.778 796.444, 519.778 796.444, 509.778 796.444, 499.778 796.444, 489.778 796.444, 479.778 796.444, 469.778 796.444, 459.778 796.444, 449.778 796.444, 439.778 796.444, 432.000 796.444, 432.000 786.444, 432.000 776.444, 432.000 766.444, 432.000 760.889, 432.000 " />
            <path fill="none" stroke-width="1.5" stroke-linecap="round" stroke-opacity="1.0" stroke="rgb(0, 0, 0)" stroke-linejoin="round" d=" M 760.889, 609.778 770.889, 609.778 780.889, 609.778 790.889, 609.778 796.444, 609.778 " />
            <path fill="none" stroke-width="1.5" stroke-linecap="round" stroke-opacity="1.0" stroke="rgb(0, 0, 0)" stroke-linejoin="round" d=" M 263.111, 574.222 273.111, 574.222 283.111, 574.222 293.111, 574.222 303.111, 574.222 313.111, 574.222 323.111, 574.222 333.111, 574.222 343.111, 574.222 353.111, 574.222 363.111, 574.222 373.111, 574.222 383.111, 574.222 393.111, 574.222 403.111, 574.222 413.111, 574.222 423.111, 574.222 433.111, 574.222 443.111, 574.222 453.111, 574.222 463.111, 574.222 473.111, 574.222 483.111, 574.222 493.111, 574.222 503.111, 574.222 513.111, 574.222 523.111, 574.222 533.111, 574.222 543.111, 574.222 553.111, 574.222 563.111, 574.222 573.111, 574.222 583.111, 574.222 593.111, 574.222 603.111, 574.222 613.111, 574.222 623.111, 574.222 633.111, 574.222 643.111, 574.222 653.111, 574.222 663.111, 574.222 673.111, 574.222 683.111, 574.222 693.111, 574.222 703.111, 574.222 713.111, 574.222 723.111, 574.222 733.111, 574.222 743.111, 574.222 753.111, 574.222 760.889, 574.222 " />
        </g>
    </g>
    <g id="ViewLayer_TechnicalLines.002" inkscape:groupmode="lineset" inkscape:label="ViewLayer_TechnicalLines.002">
        <g inkscape:groupmode="layer" id="strokes" inkscape:label="strokes">
            <path fill="none" stroke-width="1.5" stroke-linecap="round" stroke-opacity="1.0" stroke="rgb(0, 0, 0)" stroke-linejoin="round" d=" M 245.333, 627.556 245.333, 627.556 245.333, 637.556 245.333, 647.556 245.333, 657.556 245.333, 667.556 245.333, 677.556 245.333, 687.556 245.333, 697.556 245.333, 698.667 245.333, 698.667 255.333, 698.667 265.333, 698.667 275.333, 698.667 285.333, 698.667 295.333, 698.667 305.333, 698.667 315.333, 698.667 325.333, 698.667 335.333, 698.667 345.333, 698.667 355.333, 698.667 365.333, 698.667 375.333, 698.667 385.333, 698.667 395.333, 698.667 405.333, 698.667 415.333, 698.667 425.333, 698.667 435.333, 698.667 445.333, 698.667 455.333, 698.667 465.333, 698.667 475.333, 698.667 485.333, 698.667 495.333, 698.667 505.333, 698.667 515.333, 698.667 525.333, 698.667 535.333, 698.667 545.333, 698.667 555.333, 698.667 565.333, 698.667 575.333, 698.667 585.333, 698.667 595.333, 698.667 605.333, 698.667 615.333, 698.667 625.333, 698.667 635.333, 698.667 645.333, 698.667 655.333, 698.667 665.333, 698.667 675.333, 698.667 685.333, 698.667 695.333, 698.667 705.333, 698.667 715.333, 698.667 725.333, 698.667 735.333, 698.667 745.333, 698.667 755.333, 698.667 765.333, 698.667 778.667, 698.667 778.667, 698.667 778.667, 688.667 778.667, 678.667 778.667, 668.667 778.667, 658.667 778.667, 648.667 778.667, 638.667 778.667, 628.667 778.667, 627.556 778.667, 627.556 768.667, 627.556 758.667, 627.556 748.667, 627.556 738.667, 627.556 728.667, 627.556 718.667, 627.556 708.667, 627.556 698.667, 627.556 688.667, 627.556 678.667, 627.556 668.667, 627.556 658.667, 627.556 648.667, 627.556 638.667, 627.556 628.667, 627.556 618.667, 627.556 608.667, 627.556 598.667, 627.556 588.667, 627.556 578.667, 627.556 568.667, 627.556 558.667, 627.556 548.667, 627.556 538.667, 627.556 528.667, 627.556 518.667, 627.556 508.667, 627.556 498.667, 627.556 488.667, 627.556 478.667, 627.556 468.667, 627.556 458.667, 627.556 448.667, 627.556 438.667, 627.556 428.667, 627.556 418.667, 627.556 408.667, 627.556 398.667, 627.556 388.667, 627.556 378.667, 627.556 368.667, 627.556 358.667, 627.556 348.667, 627.556 338.667, 627.556 328.667, 627.556 318.667, 627.556 308.667, 627.556 298.667, 627.556 288.667, 627.556 278.667, 627.556 268.667, 627.556 258.667, 627.556 245.333, 627.556 " />
            <path fill="none" stroke-width="1.5" stroke-linecap="round" stroke-opacity="1.0" stroke="rgb(0, 0, 0)" stroke-linejoin="round" d=" M 245.333, 698.667 255.333, 698.667 265.333, 698.667 275.333, 698.667 285.333, 698.667 295.333, 698.667 305.333, 698.667 315.333, 698.667 325.333, 698.667 335.333, 698.667 345.333, 698.667 355.333, 698.667 365.333, 698.667 375.333, 698.667 385.333, 698.667 395.333, 698.667 405.333, 698.667 415.333, 698.667 425.333, 698.667 435.333, 698.667 445.333, 698.667 455.333, 698.667 465.333, 698.667 475.333, 698.667 485.333, 698.667 495.333, 698.667 505.333, 698.667 515.333, 698.667 525.333, 698.667 535.333, 698.667 545.333, 698.667 555.333, 698.667 565.333, 698.667 575.333, 698.667 585.333, 698.667 595.333, 698.667 605.333, 698.667 615.333, 698.667 625.333, 698.667 635.333, 698.667 645.333, 698.667 655.333, 698.667 665.333, 698.667 675.333, 698.667 685.333, 698.667 695.333, 698.667 705.333, 698.667 715.333, 698.667 725.333, 698.667 735.333, 698.667 745.333, 698.667 755.333, 698.667 765.333, 698.667 778.667, 698.667 " />
            <path fill="none" stroke-width="1.5" stroke-linecap="round" stroke-opacity="1.0" stroke="rgb(0, 0, 0)" stroke-linejoin="round" d=" M 760.889, 574.222 760.889, 564.222 760.889, 554.222 760.889, 544.222 760.889, 534.222 760.889, 524.222 760.889, 514.222 760.889, 504.222 760.889, 494.222 760.889, 484.222 760.889, 474.222 760.889, 464.222 760.889, 454.222 760.889, 444.222 760.889, 434.222 760.889, 432.000 760.889, 432.000 760.889, 422.000 760.889, 412.000 760.889, 402.000 760.889, 392.000 760.889, 382.000 760.889, 372.000 760.889, 362.000 760.889, 352.000 760.889, 342.000 760.889, 332.000 760.889, 325.333 750.889, 325.333 740.889, 325.333 730.889, 325.333 720.889, 325.333 710.889, 325.333 700.889, 325.333 690.889, 325.333 680.889, 325.333 670.889, 325.333 660.889, 325.333 650.889, 325.333 640.889, 325.333 630.889, 325.333 620.889, 325.333 610.889, 325.333 600.889, 325.333 590.889, 325.333 580.889, 325.333 570.889, 325.333 560.889, 325.333 550.889, 325.333 540.889, 325.333 530.889, 325.333 520.889, 325.333 510.889, 325.333 500.889, 325.333 490.889, 325.333 480.889, 325.333 470.889, 325.333 460.889, 325.333 450.889, 325.333 440.889, 325.333 430.889, 325.333 420.889, 325.333 410.889, 325.333 400.889, 325.333 390.889, 325.333 380.889, 325.333 370.889, 325.333 360.889, 325.333 350.889, 325.333 340.889, 325.333 330.889, 325.333 320.889, 325.333 310.889, 325.333 300.889, 325.333 290.889, 325.333 280.889, 325.333 270.889, 325.333 263.111, 325.333 263.111, 335.333 263.111, 345.333 263.111, 355.333 263.111, 365.333 263.111, 375.333 263.111, 385.333 263.111, 395.333 263.111, 405.333 263.111, 415.333 263.111, 425.333 263.111, 435.333 263.111, 445.333 263.111, 455.333 263.111, 465.333 263.111, 475.333 263.111, 485.333 263.111, 495.333 263.111, 505.333 263.111, 515.333 263.111, 520.889 263.111, 520.889 263.111, 530.889 263.111, 540.889 263.111, 550.889 263.111, 556.444 263.111, 556.444 263.111, 566.444 263.111, 574.222 " />
            <path fill="none" stroke-width="1.5" stroke-linecap="round" stroke-opacity="1.0" stroke="rgb(0, 0, 0)" stroke-linejoin="round" d=" M 263.111, 574.222 263.111, 564.222 263.111, 556.444 263.111, 556.444 263.111, 546.444 263.111, 536.444 263.111, 526.444 263.111, 520.889 263.111, 520.889 263.111, 510.889 263.111, 500.889 263.111, 490.889 263.111, 480.889 263.111, 470.889 263.111, 460.889 263.111, 450.889 263.111, 440.889 263.111, 432.000 253.111, 432.000 243.111, 432.000 233.111, 432.000 227.556, 432.000 227.556, 442.000 227.556, 452.000 227.556, 462.000 227.556, 472.000 227.556, 482.000 227.556, 492.000 227.556, 502.000 227.556, 512.000 227.556, 522.000 227.556, 532.000 227.556, 542.000 227.556, 552.000 227.556, 562.000 227.556, 572.000 227.556, 582.000 227.556, 592.000 227.556, 602.000 227.556, 609.778 227.556, 609.778 237.556, 609.778 247.556, 609.778 257.556, 609.778 263.111, 609.778 263.111, 609.778 263.111, 599.778 263.111, 589.778 263.111, 579.778 263.111, 574.222 " />
            <path fill="none" stroke-width="1.5" stroke-linecap="round" stroke-opacity="1.0" stroke="rgb(0, 0, 0)" stroke-linejoin="round" d=" M 227.556, 609.778 237.556, 609.778 247.556, 609.778 257.556, 609.778 263.111, 609.778 " />
            <path fill="none" stroke-width="1.5" stroke-linecap="round" stroke-opacity="1.0" stroke="rgb(0, 0, 0)" stroke-linejoin="round" d=" M 760.889, 432.000 760.889, 432.000 760.889, 442.000 760.889, 452.000 760.889, 462.000 760.889, 472.000 760.889, 482.000 760.889, 492.000 760.889, 502.000 760.889, 512.000 760.889, 520.889 760.889, 520.889 760.889, 530.889 760.889, 540.889 760.889, 550.889 760.889, 556.444 760.889, 556.444 760.889, 566.444 760.889, 574.222 " />
            <path fill="none" stroke-width="1.5" stroke-linecap="round" stroke-opacity="1.0" stroke="rgb(0, 0, 0)" stroke-linejoin="round" d=" M 760.889, 574.222 760.889, 584.222 760.889, 594.222 760.889, 604.222 760.889, 609.778 760.889, 609.778 770.889, 609.778 780.889, 609.778 790.889, 609.778 796.444, 609.778 796.444, 609.778 796.444, 599.778 796.444, 589.778 796.444, 579.778 796.444, 569.778 796.444, 559.778 796.444, 549.778 796.444, 539.778 796.444, 529.778 796.444, 519.778 796.444, 509.778 796.444, 499.778 796.444, 489.778 796.444, 479.778 796.444, 469.778 796.444, 459.778 796.444, 449.778 796.444, 439.778 796.444, 432.000 796.444, 432.000 786.444, 432.000 776.444, 432.000 766.444, 432.000 760.889, 432.000 " />
            <path fill="none" stroke-width="1.5" stroke-linecap="round" stroke-opacity="1.0" stroke="rgb(0, 0, 0)" stroke-linejoin="round" d=" M 760.889, 609.778 770.889, 609.778 780.889, 609.778 790.889, 609.778 796.444, 609.778 " />
            <path fill="none" stroke-width="1.5" stroke-linecap="round" stroke-opacity="1.0" stroke="rgb(0, 0, 0)" stroke-linejoin="round" d=" M 263.111, 574.222 273.111, 574.222 283.111, 574.222 293.111, 574.222 303.111, 574.222 313.111, 574.222 323.111, 574.222 333.111, 574.222 343.111, 574.222 353.111, 574.222 363.111, 574.222 373.111, 574.222 383.111, 574.222 393.111, 574.222 403.111, 574.222 413.111, 574.222 423.111, 574.222 433.111, 574.222 443.111, 574.222 453.111, 574.222 463.111, 574.222 473.111, 574.222 483.111, 574.222 493.111, 574.222 503.111, 574.222 513.111, 574.222 523.111, 574.222 533.111, 574.222 543.111, 574.222 553.111, 574.222 563.111, 574.222 573.111, 574.222 583.111, 574.222 593.111, 574.222 603.111, 574.222 613.111, 574.222 623.111, 574.222 633.111, 574.222 643.111, 574.222 653.111, 574.222 663.111, 574.222 673.111, 574.222 683.111, 574.222 693.111, 574.222 703.111, 574.222 713.111, 574.222 723.111, 574.222 733.111, 574.222 743.111, 574.222 753.111, 574.222 760.889, 574.222 " />
        </g>
    </g>
    <g id="ViewLayer_TechnicalLines.003" inkscape:groupmode="lineset" inkscape:label="ViewLayer_TechnicalLines.003">
        <g inkscape:groupmode="layer" id="strokes" inkscape:label="strokes">
            <path fill="none" stroke-width="1.5" stroke-linecap="round" stroke-opacity="1.0" stroke="rgb(0, 0, 0)" stroke-linejoin="round" d=" M 245.333, 627.556 245.333, 627.556 245.333, 637.556 245.333, 647.556 245.333, 657.556 245.333, 667.556 245.333, 677.556 245.333, 687.556 245.333, 697.556 245.333, 698.667 245.333, 698.667 255.333, 698.667 265.333, 698.667 275.333, 698.667 285.333, 698.667 295.333, 698.667 305.333, 698.667 315.333, 698.667 325.333, 698.667 335.333, 698.667 345.333, 698.667 355.333, 698.667 365.333, 698.667 375.333, 698.667 385.333, 698.667 395.333, 698.667 405.333, 698.667 415.333, 698.667 425.333, 698.667 435.333, 698.667 445.333, 698.667 455.333, 698.667 465.333, 698.667 475.333, 698.667 485.333, 698.667 495.333, 698.667 505.333, 698.667 515.333, 698.667 525.333, 698.667 535.333, 698.667 545.333, 698.667 555.333, 698.667 565.333, 698.667 575.333, 698.667 585.333, 698.667 595.333, 698.667 605.333, 698.667 615.333, 698.667 625.333, 698.667 635.333, 698.667 645.333, 698.667 655.333, 698.667 665.333, 698.667 675.333, 698.667 685.333, 698.667 695.333, 698.667 705.333, 698.667 715.333, 698.667 725.333, 698.667 735.333, 698.667 745.333, 698.667 755.333, 698.667 765.333, 698.667 778.667, 698.667 778.667, 698.667 778.667, 688.667 778.667, 678.667 778.667, 668.667 778.667, 658.667 778.667, 648.667 778.667, 638.667 778.667, 628.667 778.667, 627.556 778.667, 627.556 768.667, 627.556 758.667, 627.556 748.667, 627.556 738.667, 627.556 728.667, 627.556 718.667, 627.556 708.667, 627.556 698.667, 627.556 688.667, 627.556 678.667, 627.556 668.667, 627.556 658.667, 627.556 648.667, 627.556 638.667, 627.556 628.667, 627.556 618.667, 627.556 608.667, 627.556 598.667, 627.556 588.667, 627.556 578.667, 627.556 568.667, 627.556 558.667, 627.556 548.667, 627.556 538.667, 627.556 528.667, 627.556 518.667, 627.556 508.667, 627.556 498.667, 627.556 488.667, 627.556 478.667, 627.556 468.667, 627.556 458.667, 627.556 448.667, 627.556 438.667, 627.556 428.667, 627.556 418.667, 627.556 408.667, 627.556 398.667, 627.556 388.667, 627.556 378.667, 627.556 368.667, 627.556 358.667, 627.556 348.667, 627.556 338.667, 627.556 328.667, 627.556 318.667, 627.556 308.667, 627.556 298.667, 627.556 288.667, 627.556 278.667, 627.556 268.667, 627.556 258.667, 627.556 245.333, 627.556 " />
            <path fill="none" stroke-width="1.5" stroke-linecap="round" stroke-opacity="1.0" stroke="rgb(0, 0, 0)" stroke-linejoin="round" d=" M 245.333, 698.667 255.333, 698.667 265.333, 698.667 275.333, 698.667 285.333, 698.667 295.333, 698.667 305.333, 698.667 315.333, 698.667 325.333, 698.667 335.333, 698.667 345.333, 698.667 355.333, 698.667 365.333, 698.667 375.333, 698.667 385.333, 698.667 395.333, 698.667 405.333, 698.667 415.333, 698.667 425.333, 698.667 435.333, 698.667 445.333, 698.667 455.333, 698.667 465.333, 698.667 475.333, 698.667 485.333, 698.667 495.333, 698.667 505.333, 698.667 515.333, 698.667 525.333, 698.667 535.333, 698.667 545.333, 698.667 555.333, 698.667 565.333, 698.667 575.333, 698.667 585.333, 698.667 595.333, 698.667 605.333, 698.667 615.333, 698.667 625.333, 698.667 635.333, 698.667 645.333, 698.667 655.333, 698.667 665.333, 698.667 675.333, 698.667 685.333, 698.667 695.333, 698.667 705.333, 698.667 715.333, 698.667 725.333, 698.667 735.333, 698.667 745.333, 698.667 755.333, 698.667 765.333, 698.667 778.667, 698.667 " />
            <path fill="none" stroke-width="1.5" stroke-linecap="round" stroke-opacity="1.0" stroke="rgb(0, 0, 0)" stroke-linejoin="round" d=" M 760.889, 574.222 760.889, 564.222 760.889, 554.222 760.889, 544.222 760.889, 534.222 760.889, 524.222 760.889, 514.222 760.889, 504.222 760.889, 494.222 760.889, 484.222 760.889, 474.222 760.889, 464.222 760.889, 454.222 760.889, 444.222 760.889, 434.222 760.889, 432.000 760.889, 432.000 760.889, 422.000 760.889, 412.000 760.889, 402.000 760.889, 392.000 760.889, 382.000 760.889, 372.000 760.889, 362.000 760.889, 352.000 760.889, 342.000 760.889, 332.000 760.889, 325.333 750.889, 325.333 740.889, 325.333 730.889, 325.333 720.889, 325.333 710.889, 325.333 700.889, 325.333 690.889, 325.333 680.889, 325.333 670.889, 325.333 660.889, 325.333 650.889, 325.333 640.889, 325.333 630.889, 325.333 620.889, 325.333 610.889, 325.333 600.889, 325.333 590.889, 325.333 580.889, 325.333 570.889, 325.333 560.889, 325.333 550.889, 325.333 540.889, 325.333 530.889, 325.333 520.889, 325.333 510.889, 325.333 500.889, 325.333 490.889, 325.333 480.889, 325.333 470.889, 325.333 460.889, 325.333 450.889, 325.333 440.889, 325.333 430.889, 325.333 420.889, 325.333 410.889, 325.333 400.889, 325.333 390.889, 325.333 380.889, 325.333 370.889, 325.333 360.889, 325.333 350.889, 325.333 340.889, 325.333 330.889, 325.333 320.889, 325.333 310.889, 325.333 300.889, 325.333 290.889, 325.333 280.889, 325.333 270.889, 325.333 263.111, 325.333 263.111, 335.333 263.111, 345.333 263.111, 355.333 263.111, 365.333 263.111, 375.333 263.111, 385.333 263.111, 395.333 263.111, 405.333 263.111, 415.333 263.111, 425.333 263.111, 435.333 263.111, 445.333 263.111, 455.333 263.111, 465.333 263.111, 475.333 263.111, 485.333 263.111, 495.333 263.111, 505.333 263.111, 515.333 263.111, 520.889 263.111, 520.889 263.111, 530.889 263.111, 540.889 263.111, 550.889 263.111, 556.444 263.111, 556.444 263.111, 566.444 263.111, 574.222 " />
            <path fill="none" stroke-width="1.5" stroke-linecap="round" stroke-opacity="1.0" stroke="rgb(0, 0, 0)" stroke-linejoin="round" d=" M 263.111, 574.222 263.111, 564.222 263.111, 556.444 263.111, 556.444 263.111, 546.444 263.111, 536.444 263.111, 526.444 263.111, 520.889 263.111, 520.889 263.111, 510.889 263.111, 500.889 263.111, 490.889 263.111, 480.889 263.111, 470.889 263.111, 460.889 263.111, 450.889 263.111, 440.889 263.111, 432.000 253.111, 432.000 243.111, 432.000 233.111, 432.000 227.556, 432.000 227.556, 442.000 227.556, 452.000 227.556, 462.000 227.556, 472.000 227.556, 482.000 227.556, 492.000 227.556, 502.000 227.556, 512.000 227.556, 522.000 227.556, 532.000 227.556, 542.000 227.556, 552.000 227.556, 562.000 227.556, 572.000 227.556, 582.000 227.556, 592.000 227.556, 602.000 227.556, 609.778 227.556, 609.778 237.556, 609.778 247.556, 609.778 257.556, 609.778 263.111, 609.778 263.111, 609.778 263.111, 599.778 263.111, 589.778 263.111, 579.778 263.111, 574.222 " />
            <path fill="none" stroke-width="1.5" stroke-linecap="round" stroke-opacity="1.0" stroke="rgb(0, 0, 0)" stroke-linejoin="round" d=" M 227.556, 609.778 237.556, 609.778 247.556, 609.778 257.556, 609.778 263.111, 609.778 " />
            <path fill="none" stroke-width="1.5" stroke-linecap="round" stroke-opacity="1.0" stroke="rgb(0, 0, 0)" stroke-linejoin="round" d=" M 760.889, 432.000 760.889, 432.000 760.889, 442.000 760.889, 452.000 760.889, 462.000 760.889, 472.000 760.889, 482.000 760.889, 492.000 760.889, 502.000 760.889, 512.000 760.889, 520.889 760.889, 520.889 760.889, 530.889 760.889, 540.889 760.889, 550.889 760.889, 556.444 760.889, 556.444 760.889, 566.444 760.889, 574.222 " />
            <path fill="none" stroke-width="1.5" stroke-linecap="round" stroke-opacity="1.0" stroke="rgb(0, 0, 0)" stroke-linejoin="round" d=" M 760.889, 574.222 760.889, 584.222 760.889, 594.222 760.889, 604.222 760.889, 609.778 760.889, 609.778 770.889, 609.778 780.889, 609.778 790.889, 609.778 796.444, 609.778 796.444, 609.778 796.444, 599.778 796.444, 589.778 796.444, 579.778 796.444, 569.778 796.444, 559.778 796.444, 549.778 796.444, 539.778 796.444, 529.778 796.444, 519.778 796.444, 509.778 796.444, 499.778 796.444, 489.778 796.444, 479.778 796.444, 469.778 796.444, 459.778 796.444, 449.778 796.444, 439.778 796.444, 432.000 796.444, 432.000 786.444, 432.000 776.444, 432.000 766.444, 432.000 760.889, 432.000 " />
            <path fill="none" stroke-width="1.5" stroke-linecap="round" stroke-opacity="1.0" stroke="rgb(0, 0, 0)" stroke-linejoin="round" d=" M 760.889, 609.778 770.889, 609.778 780.889, 609.778 790.889, 609.778 796.444, 609.778 " />
            <path fill="none" stroke-width="1.5" stroke-linecap="round" stroke-opacity="1.0" stroke="rgb(0, 0, 0)" stroke-linejoin="round" d=" M 263.111, 574.222 273.111, 574.222 283.111, 574.222 293.111, 574.222 303.111, 574.222 313.111, 574.222 323.111, 574.222 333.111, 574.222 343.111, 574.222 353.111, 574.222 363.111, 574.222 373.111, 574.222 383.111, 574.222 393.111, 574.222 403.111, 574.222 413.111, 574.222 423.111, 574.222 433.111, 574.222 443.111, 574.222 453.111, 574.222 463.111, 574.222 473.111, 574.222 483.111, 574.222 493.111, 574.222 503.111, 574.222 513.111, 574.222 523.111, 574.222 533.111, 574.222 543.111, 574.222 553.111, 574.222 563.111, 574.222 573.111, 574.222 583.111, 574.222 593.111, 574.222 603.111, 574.222 613.111, 574.222 623.111, 574.222 633.111, 574.222 643.111, 574.222 653.111, 574.222 663.111, 574.222 673.111, 574.222 683.111, 574.222 693.111, 574.222 703.111, 574.222 713.111, 574.222 723.111, 574.222 733.111, 574.222 743.111, 574.222 753.111, 574.222 760.889, 574.222 " />
        </g>
    </g>
    <g id="ViewLayer_TechnicalLines.004" xmlns:inkscape="http://www.inkscape.org/namespaces/inkscape" inkscape:groupmode="lineset" inkscape:label="ViewLayer_TechnicalLines.004">
        <g xmlns:inkscape="http://www.inkscape.org/namespaces/inkscape" inkscape:groupmode="layer" id="strokes" inkscape:label="strokes">
            <path fill="none" stroke-width="1.5" stroke-linecap="round" stroke-opacity="1.0" stroke="rgb(0, 0, 0)" stroke-linejoin="round" d=" M 245.333, 627.556 245.333, 627.556 245.333, 637.556 245.333, 647.556 245.333, 657.556 245.333, 667.556 245.333, 677.556 245.333, 687.556 245.333, 697.556 245.333, 698.667 245.333, 698.667 255.333, 698.667 265.333, 698.667 275.333, 698.667 285.333, 698.667 295.333, 698.667 305.333, 698.667 315.333, 698.667 325.333, 698.667 335.333, 698.667 345.333, 698.667 355.333, 698.667 365.333, 698.667 375.333, 698.667 385.333, 698.667 395.333, 698.667 405.333, 698.667 415.333, 698.667 425.333, 698.667 435.333, 698.667 445.333, 698.667 455.333, 698.667 465.333, 698.667 475.333, 698.667 485.333, 698.667 495.333, 698.667 505.333, 698.667 515.333, 698.667 525.333, 698.667 535.333, 698.667 545.333, 698.667 555.333, 698.667 565.333, 698.667 575.333, 698.667 585.333, 698.667 595.333, 698.667 605.333, 698.667 615.333, 698.667 625.333, 698.667 635.333, 698.667 645.333, 698.667 655.333, 698.667 665.333, 698.667 675.333, 698.667 685.333, 698.667 695.333, 698.667 705.333, 698.667 715.333, 698.667 725.333, 698.667 735.333, 698.667 745.333, 698.667 755.333, 698.667 765.333, 698.667 778.667, 698.667 778.667, 698.667 778.667, 688.667 778.667, 678.667 778.667, 668.667 778.667, 658.667 778.667, 648.667 778.667, 638.667 778.667, 628.667 778.667, 627.556 778.667, 627.556 768.667, 627.556 758.667, 627.556 748.667, 627.556 738.667, 627.556 728.667, 627.556 718.667, 627.556 708.667, 627.556 698.667, 627.556 688.667, 627.556 678.667, 627.556 668.667, 627.556 658.667, 627.556 648.667, 627.556 638.667, 627.556 628.667, 627.556 618.667, 627.556 608.667, 627.556 598.667, 627.556 588.667, 627.556 578.667, 627.556 568.667, 627.556 558.667, 627.556 548.667, 627.556 538.667, 627.556 528.667, 627.556 518.667, 627.556 508.667, 627.556 498.667, 627.556 488.667, 627.556 478.667, 627.556 468.667, 627.556 458.667, 627.556 448.667, 627.556 438.667, 627.556 428.667, 627.556 418.667, 627.556 408.667, 627.556 398.667, 627.556 388.667, 627.556 378.667, 627.556 368.667, 627.556 358.667, 627.556 348.667, 627.556 338.667, 627.556 328.667, 627.556 318.667, 627.556 308.667, 627.556 298.667, 627.556 288.667, 627.556 278.667, 627.556 268.667, 627.556 258.667, 627.556 245.333, 627.556 " />
            <path fill="none" stroke-width="1.5" stroke-linecap="round" stroke-opacity="1.0" stroke="rgb(0, 0, 0)" stroke-linejoin="round" d=" M 245.333, 698.667 255.333, 698.667 265.333, 698.667 275.333, 698.667 285.333, 698.667 295.333, 698.667 305.333, 698.667 315.333, 698.667 325.333, 698.667 335.333, 698.667 345.333, 698.667 355.333, 698.667 365.333, 698.667 375.333, 698.667 385.333, 698.667 395.333, 698.667 405.333, 698.667 415.333, 698.667 425.333, 698.667 435.333, 698.667 445.333, 698.667 455.333, 698.667 465.333, 698.667 475.333, 698.667 485.333, 698.667 495.333, 698.667 505.333, 698.667 515.333, 698.667 525.333, 698.667 535.333, 698.667 545.333, 698.667 555.333, 698.667 565.333, 698.667 575.333, 698.667 585.333, 698.667 595.333, 698.667 605.333, 698.667 615.333, 698.667 625.333, 698.667 635.333, 698.667 645.333, 698.667 655.333, 698.667 665.333, 698.667 675.333, 698.667 685.333, 698.667 695.333, 698.667 705.333, 698.667 715.333, 698.667 725.333, 698.667 735.333, 698.667 745.333, 698.667 755.333, 698.667 765.333, 698.667 778.667, 698.667 " />
            <path fill="none" stroke-width="1.5" stroke-linecap="round" stroke-opacity="1.0" stroke="rgb(0, 0, 0)" stroke-linejoin="round" d=" M 760.889, 574.222 760.889, 564.222 760.889, 554.222 760.889, 544.222 760.889, 534.222 760.889, 524.222 760.889, 514.222 760.889, 504.222 760.889, 494.222 760.889, 484.222 760.889, 474.222 760.889, 464.222 760.889, 454.222 760.889, 444.222 760.889, 434.222 760.889, 432.000 760.889, 432.000 760.889, 422.000 760.889, 412.000 760.889, 402.000 760.889, 392.000 760.889, 382.000 760.889, 372.000 760.889, 362.000 760.889, 352.000 760.889, 342.000 760.889, 332.000 760.889, 325.333 750.889, 325.333 740.889, 325.333 730.889, 325.333 720.889, 325.333 710.889, 325.333 700.889, 325.333 690.889, 325.333 680.889, 325.333 670.889, 325.333 660.889, 325.333 650.889, 325.333 640.889, 325.333 630.889, 325.333 620.889, 325.333 610.889, 325.333 600.889, 325.333 590.889, 325.333 580.889, 325.333 570.889, 325.333 560.889, 325.333 550.889, 325.333 540.889, 325.333 530.889, 325.333 520.889, 325.333 510.889, 325.333 500.889, 325.333 490.889, 325.333 480.889, 325.333 470.889, 325.333 460.889, 325.333 450.889, 325.333 440.889, 325.333 430.889, 325.333 420.889, 325.333 410.889, 325.333 400.889, 325.333 390.889, 325.333 380.889, 325.333 370.889, 325.333 360.889, 325.333 350.889, 325.333 340.889, 325.333 330.889, 325.333 320.889, 325.333 310.889, 325.333 300.889, 325.333 290.889, 325.333 280.889, 325.333 270.889, 325.333 263.111, 325.333 263.111, 335.333 263.111, 345.333 263.111, 355.333 263.111, 365.333 263.111, 375.333 263.111, 385.333 263.111, 395.333 263.111, 405.333 263.111, 415.333 263.111, 425.333 263.111, 435.333 263.111, 445.333 263.111, 455.333 263.111, 465.333 263.111, 475.333 263.111, 485.333 263.111, 495.333 263.111, 505.333 263.111, 515.333 263.111, 520.889 263.111, 520.889 263.111, 530.889 263.111, 540.889 263.111, 550.889 263.111, 556.444 263.111, 556.444 263.111, 566.444 263.111, 574.222 " />
            <path fill="none" stroke-width="1.5" stroke-linecap="round" stroke-opacity="1.0" stroke="rgb(0, 0, 0)" stroke-linejoin="round" d=" M 263.111, 574.222 263.111, 564.222 263.111, 556.444 263.111, 556.444 263.111, 546.444 263.111, 536.444 263.111, 526.444 263.111, 520.889 263.111, 520.889 263.111, 510.889 263.111, 500.889 263.111, 490.889 263.111, 480.889 263.111, 470.889 263.111, 460.889 263.111, 450.889 263.111, 440.889 263.111, 432.000 253.111, 432.000 243.111, 432.000 233.111, 432.000 227.556, 432.000 227.556, 442.000 227.556, 452.000 227.556, 462.000 227.556, 472.000 227.556, 482.000 227.556, 492.000 227.556, 502.000 227.556, 512.000 227.556, 522.000 227.556, 532.000 227.556, 542.000 227.556, 552.000 227.556, 562.000 227.556, 572.000 227.556, 582.000 227.556, 592.000 227.556, 602.000 227.556, 609.778 227.556, 609.778 237.556, 609.778 247.556, 609.778 257.556, 609.778 263.111, 609.778 263.111, 609.778 263.111, 599.778 263.111, 589.778 263.111, 579.778 263.111, 574.222 " />
            <path fill="none" stroke-width="1.5" stroke-linecap="round" stroke-opacity="1.0" stroke="rgb(0, 0, 0)" stroke-linejoin="round" d=" M 227.556, 609.778 237.556, 609.778 247.556, 609.778 257.556, 609.778 263.111, 609.778 " />
            <path fill="none" stroke-width="1.5" stroke-linecap="round" stroke-opacity="1.0" stroke="rgb(0, 0, 0)" stroke-linejoin="round" d=" M 760.889, 432.000 760.889, 432.000 760.889, 442.000 760.889, 452.000 760.889, 462.000 760.889, 472.000 760.889, 482.000 760.889, 492.000 760.889, 502.000 760.889, 512.000 760.889, 520.889 760.889, 520.889 760.889, 530.889 760.889, 540.889 760.889, 550.889 760.889, 556.444 760.889, 556.444 760.889, 566.444 760.889, 574.222 " />
            <path fill="none" stroke-width="1.5" stroke-linecap="round" stroke-opacity="1.0" stroke="rgb(0, 0, 0)" stroke-linejoin="round" d=" M 760.889, 574.222 760.889, 584.222 760.889, 594.222 760.889, 604.222 760.889, 609.778 760.889, 609.778 770.889, 609.778 780.889, 609.778 790.889, 609.778 796.444, 609.778 796.444, 609.778 796.444, 599.778 796.444, 589.778 796.444, 579.778 796.444, 569.778 796.444, 559.778 796.444, 549.778 796.444, 539.778 796.444, 529.778 796.444, 519.778 796.444, 509.778 796.444, 499.778 796.444, 489.778 796.444, 479.778 796.444, 469.778 796.444, 459.778 796.444, 449.778 796.444, 439.778 796.444, 432.000 796.444, 432.000 786.444, 432.000 776.444, 432.000 766.444, 432.000 760.889, 432.000 " />
            <path fill="none" stroke-width="1.5" stroke-linecap="round" stroke-opacity="1.0" stroke="rgb(0, 0, 0)" stroke-linejoin="round" d=" M 760.889, 609.778 770.889, 609.778 780.889, 609.778 790.889, 609.778 796.444, 609.778 " />
            <path fill="none" stroke-width="1.5" stroke-linecap="round" stroke-opacity="1.0" stroke="rgb(0, 0, 0)" stroke-linejoin="round" d=" M 263.111, 574.222 273.111, 574.222 283.111, 574.222 293.111, 574.222 303.111, 574.222 313.111, 574.222 323.111, 574.222 333.111, 574.222 343.111, 574.222 353.111, 574.222 363.111, 574.222 373.111, 574.222 383.111, 574.222 393.111, 574.222 403.111, 574.222 413.111, 574.222 423.111, 574.222 433.111, 574.222 443.111, 574.222 453.111, 574.222 463.111, 574.222 473.111, 574.222 483.111, 574.222 493.111, 574.222 503.111, 574.222 513.111, 574.222 523.111, 574.222 533.111, 574.222 543.111, 574.222 553.111, 574.222 563.111, 574.222 573.111, 574.222 583.111, 574.222 593.111, 574.222 603.111, 574.222 613.111, 574.222 623.111, 574.222 633.111, 574.222 643.111, 574.222 653.111, 574.222 663.111, 574.222 673.111, 574.222 683.111, 574.222 693.111, 574.222 703.111, 574.222 713.111, 574.222 723.111, 574.222 733.111, 574.222 743.111, 574.222 753.111, 574.222 760.889, 574.222 " />
        </g>
    </g>
</svg>
