<?xml version='1.0' encoding='ascii'?>
<svg xmlns="http://www.w3.org/2000/svg" xmlns:inkscape="http://www.inkscape.org/namespaces/inkscape" version="1.1" width="1024" height="1024">
    <g id="ViewLayer_LineSet" inkscape:groupmode="lineset" inkscape:label="ViewLayer_LineSet">
        <g inkscape:groupmode="layer" id="strokes" inkscape:label="strokes">
            <path fill="none" stroke-width="3.0" stroke-linecap="butt" stroke-opacity="1.0" stroke="rgb(0, 0, 0)" stroke-linejoin="round" d=" M 315.831, 659.126 305.831, 659.126 295.831, 659.126 285.831, 659.126 276.598, 659.126 276.598, 669.126 276.598, 679.126 276.598, 689.126 276.598, 699.126 276.598, 709.126 276.598, 717.977 " />
            <path fill="none" stroke-width="3.0" stroke-linecap="butt" stroke-opacity="1.0" stroke="rgb(0, 0, 0)" stroke-linejoin="round" d=" M 276.598, 717.977 276.598, 727.977 276.598, 737.977 276.598, 747.977 276.598, 757.977 276.598, 767.977 276.598, 776.828 286.598, 776.828 296.598, 776.828 306.598, 776.828 316.598, 776.828 326.598, 776.828 336.598, 776.828 346.598, 776.828 356.598, 776.828 366.598, 776.828 376.598, 776.828 386.598, 776.828 396.598, 776.828 406.598, 776.828 416.598, 776.828 426.598, 776.828 436.598, 776.828 446.598, 776.828 456.598, 776.828 466.598, 776.828 476.598, 776.828 486.598, 776.828 496.598, 776.828 506.598, 776.828 516.598, 776.828 526.598, 776.828 536.598, 776.828 546.598, 776.828 556.598, 776.828 566.598, 776.828 576.598, 776.828 586.598, 776.828 596.598, 776.828 606.598, 776.828 616.598, 776.828 626.598, 776.828 636.598, 776.828 646.598, 776.828 656.598, 776.828 666.598, 776.828 676.598, 776.828 686.598, 776.828 696.598, 776.828 706.598, 776.828 716.598, 776.828 726.598, 776.828 736.598, 776.828 747.402, 776.828 747.402, 766.828 747.402, 756.828 747.402, 746.828 747.402, 736.828 747.402, 726.828 747.402, 717.977 " />
            <path fill="none" stroke-width="3.0" stroke-linecap="butt" stroke-opacity="1.0" stroke="rgb(0, 0, 0)" stroke-linejoin="round" d=" M 786.636, 717.977 786.636, 707.977 786.636, 697.977 786.636, 687.977 786.636, 677.977 786.636, 667.977 786.636, 657.977 786.636, 647.977 786.636, 637.977 786.636, 627.977 786.636, 617.977 786.636, 607.977 786.636, 597.977 786.636, 587.977 786.636, 577.977 786.636, 567.977 786.636, 557.977 786.636, 547.977 786.636, 537.977 786.636, 527.977 786.636, 517.977 786.636, 507.977 786.636, 497.977 786.636, 487.977 786.636, 477.977 786.636, 467.977 786.636, 457.977 786.636, 447.977 786.636, 437.977 786.636, 427.977 786.636, 417.977 786.636, 407.977 786.636, 397.977 786.636, 387.977 786.636, 377.977 786.636, 367.977 786.636, 357.977 786.636, 347.977 786.636, 337.977 786.636, 327.977 786.636, 317.977 786.636, 307.977 786.636, 297.977 786.636, 287.977 786.636, 277.977 786.636, 267.977 786.636, 257.977 786.636, 247.172 " />
            <path fill="none" stroke-width="3.0" stroke-linecap="butt" stroke-opacity="1.0" stroke="rgb(0, 0, 0)" stroke-linejoin="round" d=" M 237.364, 247.172 237.364, 257.172 237.364, 267.172 237.364, 277.172 237.364, 287.172 237.364, 297.172 237.364, 307.172 237.364, 317.172 237.364, 327.172 237.364, 337.172 237.364, 347.172 237.364, 357.172 237.364, 367.172 237.364, 377.172 237.364, 387.172 237.364, 397.172 237.364, 407.172 237.364, 417.172 237.364, 427.172 237.364, 437.172 237.364, 447.172 237.364, 457.172 237.364, 467.172 237.364, 477.172 237.364, 487.172 237.364, 497.172 237.364, 507.172 237.364, 517.172 237.364, 527.172 237.364, 537.172 237.364, 547.172 237.364, 557.172 237.364, 567.172 237.364, 577.172 237.364, 587.172 237.364, 597.172 237.364, 607.172 237.364, 617.172 237.364, 627.172 237.364, 637.172 237.364, 647.172 237.364, 657.172 237.364, 667.172 237.364, 677.172 237.364, 687.172 237.364, 697.172 237.364, 707.172 237.364, 717.977 " />
            <path fill="none" stroke-width="3.0" stroke-linecap="butt" stroke-opacity="1.0" stroke="rgb(0, 0, 0)" stroke-linejoin="round" d=" M 237.364, 717.977 247.364, 717.977 257.364, 717.977 267.364, 717.977 276.598, 717.977 " />
            <path fill="none" stroke-width="3.0" stroke-linecap="butt" stroke-opacity="1.0" stroke="rgb(0, 0, 0)" stroke-linejoin="round" d=" M 276.598, 247.172 266.598, 247.172 256.598, 247.172 246.598, 247.172 237.364, 247.172 " />
            <path fill="none" stroke-width="3.0" stroke-linecap="butt" stroke-opacity="1.0" stroke="rgb(0, 0, 0)" stroke-linejoin="round" d=" M 315.831, 247.172 305.831, 247.172 295.831, 247.172 285.831, 247.172 276.598, 247.172 " />
            <path fill="none" stroke-width="3.0" stroke-linecap="butt" stroke-opacity="1.0" stroke="rgb(0, 0, 0)" stroke-linejoin="round" d=" M 315.831, 659.126 315.831, 649.126 315.831, 639.126 315.831, 629.126 315.831, 619.126 315.831, 609.126 315.831, 599.126 315.831, 589.126 315.831, 579.126 315.831, 569.126 315.831, 559.126 315.831, 549.126 315.831, 539.126 315.831, 529.126 315.831, 519.126 315.831, 509.126 315.831, 499.126 315.831, 489.126 315.831, 479.126 315.831, 469.126 315.831, 459.126 315.831, 449.126 315.831, 439.126 315.831, 429.126 315.831, 419.126 315.831, 409.126 315.831, 399.126 315.831, 389.126 315.831, 379.126 315.831, 369.126 315.831, 359.126 315.831, 349.126 315.831, 339.126 315.831, 329.126 315.831, 319.126 315.831, 309.126 315.831, 299.126 315.831, 289.126 315.831, 279.126 315.831, 269.126 315.831, 259.126 315.831, 247.172 " />
            <path fill="none" stroke-width="3.0" stroke-linecap="butt" stroke-opacity="1.0" stroke="rgb(0, 0, 0)" stroke-linejoin="round" d=" M 708.169, 247.172 708.169, 257.172 708.169, 267.172 708.169, 277.172 708.169, 287.172 708.169, 297.172 708.169, 307.172 708.169, 317.172 708.169, 327.172 708.169, 337.172 708.169, 347.172 708.169, 357.172 708.169, 367.172 708.169, 377.172 708.169, 387.172 708.169, 397.172 708.169, 407.172 708.169, 417.172 708.169, 427.172 708.169, 437.172 708.169, 447.172 708.169, 457.172 708.169, 467.172 708.169, 477.172 708.169, 487.172 708.169, 497.172 708.169, 507.172 708.169, 517.172 708.169, 527.172 708.169, 537.172 708.169, 547.172 708.169, 557.172 708.169, 567.172 708.169, 577.172 708.169, 587.172 708.169, 597.172 708.169, 607.172 708.169, 617.172 708.169, 627.172 708.169, 637.172 708.169, 647.172 708.169, 659.126 " />
            <path fill="none" stroke-width="3.0" stroke-linecap="butt" stroke-opacity="1.0" stroke="rgb(0, 0, 0)" stroke-linejoin="round" d=" M 708.169, 659.126 698.169, 659.126 688.169, 659.126 678.169, 659.126 668.169, 659.126 658.169, 659.126 648.169, 659.126 638.169, 659.126 628.169, 659.126 618.169, 659.126 608.169, 659.126 598.169, 659.126 588.169, 659.126 578.169, 659.126 568.169, 659.126 558.169, 659.126 548.169, 659.126 538.169, 659.126 528.169, 659.126 518.169, 659.126 508.169, 659.126 498.169, 659.126 488.169, 659.126 478.169, 659.126 468.169, 659.126 458.169, 659.126 448.169, 659.126 438.169, 659.126 428.169, 659.126 418.169, 659.126 408.169, 659.126 398.169, 659.126 388.169, 659.126 378.169, 659.126 368.169, 659.126 358.169, 659.126 348.169, 659.126 338.169, 659.126 328.169, 659.126 315.831, 659.126 " />
            <path fill="none" stroke-width="3.0" stroke-linecap="butt" stroke-opacity="1.0" stroke="rgb(0, 0, 0)" stroke-linejoin="round" d=" M 747.402, 659.126 737.402, 659.126 727.402, 659.126 717.402, 659.126 708.169, 659.126 " />
            <path fill="none" stroke-width="3.0" stroke-linecap="butt" stroke-opacity="1.0" stroke="rgb(0, 0, 0)" stroke-linejoin="round" d=" M 747.402, 717.977 747.402, 707.977 747.402, 697.977 747.402, 687.977 747.402, 677.977 747.402, 667.977 747.402, 659.126 " />
            <path fill="none" stroke-width="3.0" stroke-linecap="butt" stroke-opacity="1.0" stroke="rgb(0, 0, 0)" stroke-linejoin="round" d=" M 708.169, 247.172 698.169, 247.172 688.169, 247.172 678.169, 247.172 668.169, 247.172 658.169, 247.172 648.169, 247.172 638.169, 247.172 628.169, 247.172 618.169, 247.172 608.169, 247.172 598.169, 247.172 588.169, 247.172 578.169, 247.172 568.169, 247.172 558.169, 247.172 548.169, 247.172 538.169, 247.172 528.169, 247.172 518.169, 247.172 508.169, 247.172 498.169, 247.172 488.169, 247.172 478.169, 247.172 468.169, 247.172 458.169, 247.172 448.169, 247.172 438.169, 247.172 428.169, 247.172 418.169, 247.172 408.169, 247.172 398.169, 247.172 388.169, 247.172 378.169, 247.172 368.169, 247.172 358.169, 247.172 348.169, 247.172 338.169, 247.172 328.169, 247.172 315.831, 247.172 " />
            <path fill="none" stroke-width="3.0" stroke-linecap="butt" stroke-opacity="1.0" stroke="rgb(0, 0, 0)" stroke-linejoin="round" d=" M 747.402, 717.977 757.402, 717.977 767.402, 717.977 777.402, 717.977 786.636, 717.977 " />
            <path fill="none" stroke-width="3.0" stroke-linecap="butt" stroke-opacity="1.0" stroke="rgb(0, 0, 0)" stroke-linejoin="round" d=" M 747.402, 247.172 737.402, 247.172 727.402, 247.172 717.402, 247.172 708.169, 247.172 " />
            <path fill="none" stroke-width="3.0" stroke-linecap="butt" stroke-opacity="1.0" stroke="rgb(0, 0, 0)" stroke-linejoin="round" d=" M 786.636, 247.172 776.636, 247.172 766.636, 247.172 756.636, 247.172 747.402, 247.172 " />
        </g>
    </g>
    <g id="ViewLayer_TechnicalLines" inkscape:groupmode="lineset" inkscape:label="ViewLayer_TechnicalLines">
        <g inkscape:groupmode="layer" id="strokes" inkscape:label="strokes">
            <path fill="none" stroke-width="3.0" stroke-linecap="butt" stroke-opacity="1.0" stroke="rgb(0, 0, 0)" stroke-linejoin="round" d=" M 315.831, 659.126 305.831, 659.126 295.831, 659.126 285.831, 659.126 276.598, 659.126 276.598, 669.126 276.598, 679.126 276.598, 689.126 276.598, 699.126 276.598, 709.126 276.598, 717.977 " />
            <path fill="none" stroke-width="3.0" stroke-linecap="butt" stroke-opacity="1.0" stroke="rgb(0, 0, 0)" stroke-linejoin="round" d=" M 276.598, 717.977 276.598, 727.977 276.598, 737.977 276.598, 747.977 276.598, 757.977 276.598, 767.977 276.598, 776.828 286.598, 776.828 296.598, 776.828 306.598, 776.828 316.598, 776.828 326.598, 776.828 336.598, 776.828 346.598, 776.828 356.598, 776.828 366.598, 776.828 376.598, 776.828 386.598, 776.828 396.598, 776.828 406.598, 776.828 416.598, 776.828 426.598, 776.828 436.598, 776.828 446.598, 776.828 456.598, 776.828 466.598, 776.828 476.598, 776.828 486.598, 776.828 496.598, 776.828 506.598, 776.828 516.598, 776.828 526.598, 776.828 536.598, 776.828 546.598, 776.828 556.598, 776.828 566.598, 776.828 576.598, 776.828 586.598, 776.828 596.598, 776.828 606.598, 776.828 616.598, 776.828 626.598, 776.828 636.598, 776.828 646.598, 776.828 656.598, 776.828 666.598, 776.828 676.598, 776.828 686.598, 776.828 696.598, 776.828 706.598, 776.828 716.598, 776.828 726.598, 776.828 736.598, 776.828 747.402, 776.828 747.402, 766.828 747.402, 756.828 747.402, 746.828 747.402, 736.828 747.402, 726.828 747.402, 717.977 " />
            <path fill="none" stroke-width="3.0" stroke-linecap="butt" stroke-opacity="1.0" stroke="rgb(0, 0, 0)" stroke-linejoin="round" d=" M 786.636, 717.977 786.636, 707.977 786.636, 697.977 786.636, 687.977 786.636, 677.977 786.636, 667.977 786.636, 657.977 786.636, 647.977 786.636, 637.977 786.636, 627.977 786.636, 617.977 786.636, 607.977 786.636, 597.977 786.636, 587.977 786.636, 577.977 786.636, 567.977 786.636, 557.977 786.636, 547.977 786.636, 537.977 786.636, 527.977 786.636, 517.977 786.636, 507.977 786.636, 497.977 786.636, 487.977 786.636, 477.977 786.636, 467.977 786.636, 457.977 786.636, 447.977 786.636, 437.977 786.636, 427.977 786.636, 417.977 786.636, 407.977 786.636, 397.977 786.636, 387.977 786.636, 377.977 786.636, 367.977 786.636, 357.977 786.636, 347.977 786.636, 337.977 786.636, 327.977 786.636, 317.977 786.636, 307.977 786.636, 297.977 786.636, 287.977 786.636, 277.977 786.636, 267.977 786.636, 257.977 786.636, 247.172 " />
            <path fill="none" stroke-width="3.0" stroke-linecap="butt" stroke-opacity="1.0" stroke="rgb(0, 0, 0)" stroke-linejoin="round" d=" M 237.364, 247.172 237.364, 257.172 237.364, 267.172 237.364, 277.172 237.364, 287.172 237.364, 297.172 237.364, 307.172 237.364, 317.172 237.364, 327.172 237.364, 337.172 237.364, 347.172 237.364, 357.172 237.364, 367.172 237.364, 377.172 237.364, 387.172 237.364, 397.172 237.364, 407.172 237.364, 417.172 237.364, 427.172 237.364, 437.172 237.364, 447.172 237.364, 457.172 237.364, 467.172 237.364, 477.172 237.364, 487.172 237.364, 497.172 237.364, 507.172 237.364, 517.172 237.364, 527.172 237.364, 537.172 237.364, 547.172 237.364, 557.172 237.364, 567.172 237.364, 577.172 237.364, 587.172 237.364, 597.172 237.364, 607.172 237.364, 617.172 237.364, 627.172 237.364, 637.172 237.364, 647.172 237.364, 657.172 237.364, 667.172 237.364, 677.172 237.364, 687.172 237.364, 697.172 237.364, 707.172 237.364, 717.977 " />
            <path fill="none" stroke-width="3.0" stroke-linecap="butt" stroke-opacity="1.0" stroke="rgb(0, 0, 0)" stroke-linejoin="round" d=" M 237.364, 717.977 247.364, 717.977 257.364, 717.977 267.364, 717.977 276.598, 717.977 " />
            <path fill="none" stroke-width="3.0" stroke-linecap="butt" stroke-opacity="1.0" stroke="rgb(0, 0, 0)" stroke-linejoin="round" d=" M 276.598, 247.172 266.598, 247.172 256.598, 247.172 246.598, 247.172 237.364, 247.172 " />
            <path fill="none" stroke-width="3.0" stroke-linecap="butt" stroke-opacity="1.0" stroke="rgb(0, 0, 0)" stroke-linejoin="round" d=" M 315.831, 247.172 305.831, 247.172 295.831, 247.172 285.831, 247.172 276.598, 247.172 " />
            <path fill="none" stroke-width="3.0" stroke-linecap="butt" stroke-opacity="1.0" stroke="rgb(0, 0, 0)" stroke-linejoin="round" d=" M 315.831, 659.126 315.831, 649.126 315.831, 639.126 315.831, 629.126 315.831, 619.126 315.831, 609.126 315.831, 599.126 315.831, 589.126 315.831, 579.126 315.831, 569.126 315.831, 559.126 315.831, 549.126 315.831, 539.126 315.831, 529.126 315.831, 519.126 315.831, 509.126 315.831, 499.126 315.831, 489.126 315.831, 479.126 315.831, 469.126 315.831, 459.126 315.831, 449.126 315.831, 439.126 315.831, 429.126 315.831, 419.126 315.831, 409.126 315.831, 399.126 315.831, 389.126 315.831, 379.126 315.831, 369.126 315.831, 359.126 315.831, 349.126 315.831, 339.126 315.831, 329.126 315.831, 319.126 315.831, 309.126 315.831, 299.126 315.831, 289.126 315.831, 279.126 315.831, 269.126 315.831, 259.126 315.831, 247.172 " />
            <path fill="none" stroke-width="3.0" stroke-linecap="butt" stroke-opacity="1.0" stroke="rgb(0, 0, 0)" stroke-linejoin="round" d=" M 708.169, 247.172 708.169, 257.172 708.169, 267.172 708.169, 277.172 708.169, 287.172 708.169, 297.172 708.169, 307.172 708.169, 317.172 708.169, 327.172 708.169, 337.172 708.169, 347.172 708.169, 357.172 708.169, 367.172 708.169, 377.172 708.169, 387.172 708.169, 397.172 708.169, 407.172 708.169, 417.172 708.169, 427.172 708.169, 437.172 708.169, 447.172 708.169, 457.172 708.169, 467.172 708.169, 477.172 708.169, 487.172 708.169, 497.172 708.169, 507.172 708.169, 517.172 708.169, 527.172 708.169, 537.172 708.169, 547.172 708.169, 557.172 708.169, 567.172 708.169, 577.172 708.169, 587.172 708.169, 597.172 708.169, 607.172 708.169, 617.172 708.169, 627.172 708.169, 637.172 708.169, 647.172 708.169, 659.126 " />
            <path fill="none" stroke-width="3.0" stroke-linecap="butt" stroke-opacity="1.0" stroke="rgb(0, 0, 0)" stroke-linejoin="round" d=" M 708.169, 659.126 698.169, 659.126 688.169, 659.126 678.169, 659.126 668.169, 659.126 658.169, 659.126 648.169, 659.126 638.169, 659.126 628.169, 659.126 618.169, 659.126 608.169, 659.126 598.169, 659.126 588.169, 659.126 578.169, 659.126 568.169, 659.126 558.169, 659.126 548.169, 659.126 538.169, 659.126 528.169, 659.126 518.169, 659.126 508.169, 659.126 498.169, 659.126 488.169, 659.126 478.169, 659.126 468.169, 659.126 458.169, 659.126 448.169, 659.126 438.169, 659.126 428.169, 659.126 418.169, 659.126 408.169, 659.126 398.169, 659.126 388.169, 659.126 378.169, 659.126 368.169, 659.126 358.169, 659.126 348.169, 659.126 338.169, 659.126 328.169, 659.126 315.831, 659.126 " />
            <path fill="none" stroke-width="3.0" stroke-linecap="butt" stroke-opacity="1.0" stroke="rgb(0, 0, 0)" stroke-linejoin="round" d=" M 747.402, 659.126 737.402, 659.126 727.402, 659.126 717.402, 659.126 708.169, 659.126 " />
            <path fill="none" stroke-width="3.0" stroke-linecap="butt" stroke-opacity="1.0" stroke="rgb(0, 0, 0)" stroke-linejoin="round" d=" M 747.402, 717.977 747.402, 707.977 747.402, 697.977 747.402, 687.977 747.402, 677.977 747.402, 667.977 747.402, 659.126 " />
            <path fill="none" stroke-width="3.0" stroke-linecap="butt" stroke-opacity="1.0" stroke="rgb(0, 0, 0)" stroke-linejoin="round" d=" M 708.169, 247.172 698.169, 247.172 688.169, 247.172 678.169, 247.172 668.169, 247.172 658.169, 247.172 648.169, 247.172 638.169, 247.172 628.169, 247.172 618.169, 247.172 608.169, 247.172 598.169, 247.172 588.169, 247.172 578.169, 247.172 568.169, 247.172 558.169, 247.172 548.169, 247.172 538.169, 247.172 528.169, 247.172 518.169, 247.172 508.169, 247.172 498.169, 247.172 488.169, 247.172 478.169, 247.172 468.169, 247.172 458.169, 247.172 448.169, 247.172 438.169, 247.172 428.169, 247.172 418.169, 247.172 408.169, 247.172 398.169, 247.172 388.169, 247.172 378.169, 247.172 368.169, 247.172 358.169, 247.172 348.169, 247.172 338.169, 247.172 328.169, 247.172 315.831, 247.172 " />
            <path fill="none" stroke-width="3.0" stroke-linecap="butt" stroke-opacity="1.0" stroke="rgb(0, 0, 0)" stroke-linejoin="round" d=" M 747.402, 717.977 757.402, 717.977 767.402, 717.977 777.402, 717.977 786.636, 717.977 " />
            <path fill="none" stroke-width="3.0" stroke-linecap="butt" stroke-opacity="1.0" stroke="rgb(0, 0, 0)" stroke-linejoin="round" d=" M 747.402, 247.172 737.402, 247.172 727.402, 247.172 717.402, 247.172 708.169, 247.172 " />
            <path fill="none" stroke-width="3.0" stroke-linecap="butt" stroke-opacity="1.0" stroke="rgb(0, 0, 0)" stroke-linejoin="round" d=" M 786.636, 247.172 776.636, 247.172 766.636, 247.172 756.636, 247.172 747.402, 247.172 " />
        </g>
    </g>
    <g id="ViewLayer_TechnicalLines.001" inkscape:groupmode="lineset" inkscape:label="ViewLayer_TechnicalLines.001">
        <g inkscape:groupmode="layer" id="strokes" inkscape:label="strokes">
            <path fill="none" stroke-width="1.5" stroke-linecap="round" stroke-opacity="1.0" stroke="rgb(0, 0, 0)" stroke-linejoin="round" d=" M 315.831, 659.126 305.831, 659.126 295.831, 659.126 285.831, 659.126 276.598, 659.126 276.598, 669.126 276.598, 679.126 276.598, 689.126 276.598, 699.126 276.598, 709.126 276.598, 717.977 " />
            <path fill="none" stroke-width="1.5" stroke-linecap="round" stroke-opacity="1.0" stroke="rgb(0, 0, 0)" stroke-linejoin="round" d=" M 276.598, 717.977 276.598, 727.977 276.598, 737.977 276.598, 747.977 276.598, 757.977 276.598, 767.977 276.598, 776.828 286.598, 776.828 296.598, 776.828 306.598, 776.828 316.598, 776.828 326.598, 776.828 336.598, 776.828 346.598, 776.828 356.598, 776.828 366.598, 776.828 376.598, 776.828 386.598, 776.828 396.598, 776.828 406.598, 776.828 416.598, 776.828 426.598, 776.828 436.598, 776.828 446.598, 776.828 456.598, 776.828 466.598, 776.828 476.598, 776.828 486.598, 776.828 496.598, 776.828 506.598, 776.828 516.598, 776.828 526.598, 776.828 536.598, 776.828 546.598, 776.828 556.598, 776.828 566.598, 776.828 576.598, 776.828 586.598, 776.828 596.598, 776.828 606.598, 776.828 616.598, 776.828 626.598, 776.828 636.598, 776.828 646.598, 776.828 656.598, 776.828 666.598, 776.828 676.598, 776.828 686.598, 776.828 696.598, 776.828 706.598, 776.828 716.598, 776.828 726.598, 776.828 736.598, 776.828 747.402, 776.828 747.402, 766.828 747.402, 756.828 747.402, 746.828 747.402, 736.828 747.402, 726.828 747.402, 717.977 " />
            <path fill="none" stroke-width="1.5" stroke-linecap="round" stroke-opacity="1.0" stroke="rgb(0, 0, 0)" stroke-linejoin="round" d=" M 786.636, 717.977 786.636, 707.977 786.636, 697.977 786.636, 687.977 786.636, 677.977 786.636, 667.977 786.636, 657.977 786.636, 647.977 786.636, 637.977 786.636, 627.977 786.636, 617.977 786.636, 607.977 786.636, 597.977 786.636, 587.977 786.636, 577.977 786.636, 567.977 786.636, 557.977 786.636, 547.977 786.636, 537.977 786.636, 527.977 786.636, 517.977 786.636, 507.977 786.636, 497.977 786.636, 487.977 786.636, 477.977 786.636, 467.977 786.636, 457.977 786.636, 447.977 786.636, 437.977 786.636, 427.977 786.636, 417.977 786.636, 407.977 786.636, 397.977 786.636, 387.977 786.636, 377.977 786.636, 367.977 786.636, 357.977 786.636, 347.977 786.636, 337.977 786.636, 327.977 786.636, 317.977 786.636, 307.977 786.636, 297.977 786.636, 287.977 786.636, 277.977 786.636, 267.977 786.636, 257.977 786.636, 247.172 " />
            <path fill="none" stroke-width="1.5" stroke-linecap="round" stroke-opacity="1.0" stroke="rgb(0, 0, 0)" stroke-linejoin="round" d=" M 237.364, 247.172 237.364, 257.172 237.364, 267.172 237.364, 277.172 237.364, 287.172 237.364, 297.172 237.364, 307.172 237.364, 317.172 237.364, 327.172 237.364, 337.172 237.364, 347.172 237.364, 357.172 237.364, 367.172 237.364, 377.172 237.364, 387.172 237.364, 397.172 237.364, 407.172 237.364, 417.172 237.364, 427.172 237.364, 437.172 237.364, 447.172 237.364, 457.172 237.364, 467.172 237.364, 477.172 237.364, 487.172 237.364, 497.172 237.364, 507.172 237.364, 517.172 237.364, 527.172 237.364, 537.172 237.364, 547.172 237.364, 557.172 237.364, 567.172 237.364, 577.172 237.364, 587.172 237.364, 597.172 237.364, 607.172 237.364, 617.172 237.364, 627.172 237.364, 637.172 237.364, 647.172 237.364, 657.172 237.364, 667.172 237.364, 677.172 237.364, 687.172 237.364, 697.172 237.364, 707.172 237.364, 717.977 " />
            <path fill="none" stroke-width="1.5" stroke-linecap="round" stroke-opacity="1.0" stroke="rgb(0, 0, 0)" stroke-linejoin="round" d=" M 237.364, 717.977 247.364, 717.977 257.364, 717.977 267.364, 717.977 276.598, 717.977 " />
            <path fill="none" stroke-width="1.5" stroke-linecap="round" stroke-opacity="1.0" stroke="rgb(0, 0, 0)" stroke-linejoin="round" d=" M 276.598, 247.172 266.598, 247.172 256.598, 247.172 246.598, 247.172 237.364, 247.172 " />
            <path fill="none" stroke-width="1.5" stroke-linecap="round" stroke-opacity="1.0" stroke="rgb(0, 0, 0)" stroke-linejoin="round" d=" M 315.831, 247.172 305.831, 247.172 295.831, 247.172 285.831, 247.172 276.598, 247.172 " />
            <path fill="none" stroke-width="1.5" stroke-linecap="round" stroke-opacity="1.0" stroke="rgb(0, 0, 0)" stroke-linejoin="round" d=" M 315.831, 659.126 315.831, 649.126 315.831, 639.126 315.831, 629.126 315.831, 619.126 315.831, 609.126 315.831, 599.126 315.831, 589.126 315.831, 579.126 315.831, 569.126 315.831, 559.126 315.831, 549.126 315.831, 539.126 315.831, 529.126 315.831, 519.126 315.831, 509.126 315.831, 499.126 315.831, 489.126 315.831, 479.126 315.831, 469.126 315.831, 459.126 315.831, 449.126 315.831, 439.126 315.831, 429.126 315.831, 419.126 315.831, 409.126 315.831, 399.126 315.831, 389.126 315.831, 379.126 315.831, 369.126 315.831, 359.126 315.831, 349.126 315.831, 339.126 315.831, 329.126 315.831, 319.126 315.831, 309.126 315.831, 299.126 315.831, 289.126 315.831, 279.126 315.831, 269.126 315.831, 259.126 315.831, 247.172 " />
            <path fill="none" stroke-width="1.5" stroke-linecap="round" stroke-opacity="1.0" stroke="rgb(0, 0, 0)" stroke-linejoin="round" d=" M 708.169, 247.172 708.169, 257.172 708.169, 267.172 708.169, 277.172 708.169, 287.172 708.169, 297.172 708.169, 307.172 708.169, 317.172 708.169, 327.172 708.169, 337.172 708.169, 347.172 708.169, 357.172 708.169, 367.172 708.169, 377.172 708.169, 387.172 708.169, 397.172 708.169, 407.172 708.169, 417.172 708.169, 427.172 708.169, 437.172 708.169, 447.172 708.169, 457.172 708.169, 467.172 708.169, 477.172 708.169, 487.172 708.169, 497.172 708.169, 507.172 708.169, 517.172 708.169, 527.172 708.169, 537.172 708.169, 547.172 708.169, 557.172 708.169, 567.172 708.169, 577.172 708.169, 587.172 708.169, 597.172 708.169, 607.172 708.169, 617.172 708.169, 627.172 708.169, 637.172 708.169, 647.172 708.169, 659.126 " />
            <path fill="none" stroke-width="1.5" stroke-linecap="round" stroke-opacity="1.0" stroke="rgb(0, 0, 0)" stroke-linejoin="round" d=" M 708.169, 659.126 698.169, 659.126 688.169, 659.126 678.169, 659.126 668.169, 659.126 658.169, 659.126 648.169, 659.126 638.169, 659.126 628.169, 659.126 618.169, 659.126 608.169, 659.126 598.169, 659.126 588.169, 659.126 578.169, 659.126 568.169, 659.126 558.169, 659.126 548.169, 659.126 538.169, 659.126 528.169, 659.126 518.169, 659.126 508.169, 659.126 498.169, 659.126 488.169, 659.126 478.169, 659.126 468.169, 659.126 458.169, 659.126 448.169, 659.126 438.169, 659.126 428.169, 659.126 418.169, 659.126 408.169, 659.126 398.169, 659.126 388.169, 659.126 378.169, 659.126 368.169, 659.126 358.169, 659.126 348.169, 659.126 338.169, 659.126 328.169, 659.126 315.831, 659.126 " />
            <path fill="none" stroke-width="1.5" stroke-linecap="round" stroke-opacity="1.0" stroke="rgb(0, 0, 0)" stroke-linejoin="round" d=" M 747.402, 659.126 737.402, 659.126 727.402, 659.126 717.402, 659.126 708.169, 659.126 " />
            <path fill="none" stroke-width="1.5" stroke-linecap="round" stroke-opacity="1.0" stroke="rgb(0, 0, 0)" stroke-linejoin="round" d=" M 747.402, 717.977 747.402, 707.977 747.402, 697.977 747.402, 687.977 747.402, 677.977 747.402, 667.977 747.402, 659.126 " />
            <path fill="none" stroke-width="1.5" stroke-linecap="round" stroke-opacity="1.0" stroke="rgb(0, 0, 0)" stroke-linejoin="round" d=" M 708.169, 247.172 698.169, 247.172 688.169, 247.172 678.169, 247.172 668.169, 247.172 658.169, 247.172 648.169, 247.172 638.169, 247.172 628.169, 247.172 618.169, 247.172 608.169, 247.172 598.169, 247.172 588.169, 247.172 578.169, 247.172 568.169, 247.172 558.169, 247.172 548.169, 247.172 538.169, 247.172 528.169, 247.172 518.169, 247.172 508.169, 247.172 498.169, 247.172 488.169, 247.172 478.169, 247.172 468.169, 247.172 458.169, 247.172 448.169, 247.172 438.169, 247.172 428.169, 247.172 418.169, 247.172 408.169, 247.172 398.169, 247.172 388.169, 247.172 378.169, 247.172 368.169, 247.172 358.169, 247.172 348.169, 247.172 338.169, 247.172 328.169, 247.172 315.831, 247.172 " />
            <path fill="none" stroke-width="1.5" stroke-linecap="round" stroke-opacity="1.0" stroke="rgb(0, 0, 0)" stroke-linejoin="round" d=" M 747.402, 717.977 757.402, 717.977 767.402, 717.977 777.402, 717.977 786.636, 717.977 " />
            <path fill="none" stroke-width="1.5" stroke-linecap="round" stroke-opacity="1.0" stroke="rgb(0, 0, 0)" stroke-linejoin="round" d=" M 747.402, 247.172 737.402, 247.172 727.402, 247.172 717.402, 247.172 708.169, 247.172 " />
            <path fill="none" stroke-width="1.5" stroke-linecap="round" stroke-opacity="1.0" stroke="rgb(0, 0, 0)" stroke-linejoin="round" d=" M 786.636, 247.172 776.636, 247.172 766.636, 247.172 756.636, 247.172 747.402, 247.172 " />
        </g>
    </g>
    <g id="ViewLayer_TechnicalLines.002" inkscape:groupmode="lineset" inkscape:label="ViewLayer_TechnicalLines.002">
        <g inkscape:groupmode="layer" id="strokes" inkscape:label="strokes">
            <path fill="none" stroke-width="1.5" stroke-linecap="round" stroke-opacity="1.0" stroke="rgb(0, 0, 0)" stroke-linejoin="round" d=" M 315.831, 659.126 305.831, 659.126 295.831, 659.126 285.831, 659.126 276.598, 659.126 276.598, 669.126 276.598, 679.126 276.598, 689.126 276.598, 699.126 276.598, 709.126 276.598, 717.977 " />
            <path fill="none" stroke-width="1.5" stroke-linecap="round" stroke-opacity="1.0" stroke="rgb(0, 0, 0)" stroke-linejoin="round" d=" M 276.598, 717.977 276.598, 727.977 276.598, 737.977 276.598, 747.977 276.598, 757.977 276.598, 767.977 276.598, 776.828 286.598, 776.828 296.598, 776.828 306.598, 776.828 316.598, 776.828 326.598, 776.828 336.598, 776.828 346.598, 776.828 356.598, 776.828 366.598, 776.828 376.598, 776.828 386.598, 776.828 396.598, 776.828 406.598, 776.828 416.598, 776.828 426.598, 776.828 436.598, 776.828 446.598, 776.828 456.598, 776.828 466.598, 776.828 476.598, 776.828 486.598, 776.828 496.598, 776.828 506.598, 776.828 516.598, 776.828 526.598, 776.828 536.598, 776.828 546.598, 776.828 556.598, 776.828 566.598, 776.828 576.598, 776.828 586.598, 776.828 596.598, 776.828 606.598, 776.828 616.598, 776.828 626.598, 776.828 636.598, 776.828 646.598, 776.828 656.598, 776.828 666.598, 776.828 676.598, 776.828 686.598, 776.828 696.598, 776.828 706.598, 776.828 716.598, 776.828 726.598, 776.828 736.598, 776.828 747.402, 776.828 747.402, 766.828 747.402, 756.828 747.402, 746.828 747.402, 736.828 747.402, 726.828 747.402, 717.977 " />
            <path fill="none" stroke-width="1.5" stroke-linecap="round" stroke-opacity="1.0" stroke="rgb(0, 0, 0)" stroke-linejoin="round" d=" M 786.636, 717.977 786.636, 707.977 786.636, 697.977 786.636, 687.977 786.636, 677.977 786.636, 667.977 786.636, 657.977 786.636, 647.977 786.636, 637.977 786.636, 627.977 786.636, 617.977 786.636, 607.977 786.636, 597.977 786.636, 587.977 786.636, 577.977 786.636, 567.977 786.636, 557.977 786.636, 547.977 786.636, 537.977 786.636, 527.977 786.636, 517.977 786.636, 507.977 786.636, 497.977 786.636, 487.977 786.636, 477.977 786.636, 467.977 786.636, 457.977 786.636, 447.977 786.636, 437.977 786.636, 427.977 786.636, 417.977 786.636, 407.977 786.636, 397.977 786.636, 387.977 786.636, 377.977 786.636, 367.977 786.636, 357.977 786.636, 347.977 786.636, 337.977 786.636, 327.977 786.636, 317.977 786.636, 307.977 786.636, 297.977 786.636, 287.977 786.636, 277.977 786.636, 267.977 786.636, 257.977 786.636, 247.172 " />
            <path fill="none" stroke-width="1.5" stroke-linecap="round" stroke-opacity="1.0" stroke="rgb(0, 0, 0)" stroke-linejoin="round" d=" M 237.364, 247.172 237.364, 257.172 237.364, 267.172 237.364, 277.172 237.364, 287.172 237.364, 297.172 237.364, 307.172 237.364, 317.172 237.364, 327.172 237.364, 337.172 237.364, 347.172 237.364, 357.172 237.364, 367.172 237.364, 377.172 237.364, 387.172 237.364, 397.172 237.364, 407.172 237.364, 417.172 237.364, 427.172 237.364, 437.172 237.364, 447.172 237.364, 457.172 237.364, 467.172 237.364, 477.172 237.364, 487.172 237.364, 497.172 237.364, 507.172 237.364, 517.172 237.364, 527.172 237.364, 537.172 237.364, 547.172 237.364, 557.172 237.364, 567.172 237.364, 577.172 237.364, 587.172 237.364, 597.172 237.364, 607.172 237.364, 617.172 237.364, 627.172 237.364, 637.172 237.364, 647.172 237.364, 657.172 237.364, 667.172 237.364, 677.172 237.364, 687.172 237.364, 697.172 237.364, 707.172 237.364, 717.977 " />
            <path fill="none" stroke-width="1.5" stroke-linecap="round" stroke-opacity="1.0" stroke="rgb(0, 0, 0)" stroke-linejoin="round" d=" M 237.364, 717.977 247.364, 717.977 257.364, 717.977 267.364, 717.977 276.598, 717.977 " />
            <path fill="none" stroke-width="1.5" stroke-linecap="round" stroke-opacity="1.0" stroke="rgb(0, 0, 0)" stroke-linejoin="round" d=" M 276.598, 247.172 266.598, 247.172 256.598, 247.172 246.598, 247.172 237.364, 247.172 " />
            <path fill="none" stroke-width="1.5" stroke-linecap="round" stroke-opacity="1.0" stroke="rgb(0, 0, 0)" stroke-linejoin="round" d=" M 315.831, 247.172 305.831, 247.172 295.831, 247.172 285.831, 247.172 276.598, 247.172 " />
            <path fill="none" stroke-width="1.5" stroke-linecap="round" stroke-opacity="1.0" stroke="rgb(0, 0, 0)" stroke-linejoin="round" d=" M 315.831, 659.126 315.831, 649.126 315.831, 639.126 315.831, 629.126 315.831, 619.126 315.831, 609.126 315.831, 599.126 315.831, 589.126 315.831, 579.126 315.831, 569.126 315.831, 559.126 315.831, 549.126 315.831, 539.126 315.831, 529.126 315.831, 519.126 315.831, 509.126 315.831, 499.126 315.831, 489.126 315.831, 479.126 315.831, 469.126 315.831, 459.126 315.831, 449.126 315.831, 439.126 315.831, 429.126 315.831, 419.126 315.831, 409.126 315.831, 399.126 315.831, 389.126 315.831, 379.126 315.831, 369.126 315.831, 359.126 315.831, 349.126 315.831, 339.126 315.831, 329.126 315.831, 319.126 315.831, 309.126 315.831, 299.126 315.831, 289.126 315.831, 279.126 315.831, 269.126 315.831, 259.126 315.831, 247.172 " />
            <path fill="none" stroke-width="1.5" stroke-linecap="round" stroke-opacity="1.0" stroke="rgb(0, 0, 0)" stroke-linejoin="round" d=" M 708.169, 247.172 708.169, 257.172 708.169, 267.172 708.169, 277.172 708.169, 287.172 708.169, 297.172 708.169, 307.172 708.169, 317.172 708.169, 327.172 708.169, 337.172 708.169, 347.172 708.169, 357.172 708.169, 367.172 708.169, 377.172 708.169, 387.172 708.169, 397.172 708.169, 407.172 708.169, 417.172 708.169, 427.172 708.169, 437.172 708.169, 447.172 708.169, 457.172 708.169, 467.172 708.169, 477.172 708.169, 487.172 708.169, 497.172 708.169, 507.172 708.169, 517.172 708.169, 527.172 708.169, 537.172 708.169, 547.172 708.169, 557.172 708.169, 567.172 708.169, 577.172 708.169, 587.172 708.169, 597.172 708.169, 607.172 708.169, 617.172 708.169, 627.172 708.169, 637.172 708.169, 647.172 708.169, 659.126 " />
            <path fill="none" stroke-width="1.5" stroke-linecap="round" stroke-opacity="1.0" stroke="rgb(0, 0, 0)" stroke-linejoin="round" d=" M 708.169, 659.126 698.169, 659.126 688.169, 659.126 678.169, 659.126 668.169, 659.126 658.169, 659.126 648.169, 659.126 638.169, 659.126 628.169, 659.126 618.169, 659.126 608.169, 659.126 598.169, 659.126 588.169, 659.126 578.169, 659.126 568.169, 659.126 558.169, 659.126 548.169, 659.126 538.169, 659.126 528.169, 659.126 518.169, 659.126 508.169, 659.126 498.169, 659.126 488.169, 659.126 478.169, 659.126 468.169, 659.126 458.169, 659.126 448.169, 659.126 438.169, 659.126 428.169, 659.126 418.169, 659.126 408.169, 659.126 398.169, 659.126 388.169, 659.126 378.169, 659.126 368.169, 659.126 358.169, 659.126 348.169, 659.126 338.169, 659.126 328.169, 659.126 315.831, 659.126 " />
            <path fill="none" stroke-width="1.5" stroke-linecap="round" stroke-opacity="1.0" stroke="rgb(0, 0, 0)" stroke-linejoin="round" d=" M 747.402, 659.126 737.402, 659.126 727.402, 659.126 717.402, 659.126 708.169, 659.126 " />
            <path fill="none" stroke-width="1.5" stroke-linecap="round" stroke-opacity="1.0" stroke="rgb(0, 0, 0)" stroke-linejoin="round" d=" M 747.402, 717.977 747.402, 707.977 747.402, 697.977 747.402, 687.977 747.402, 677.977 747.402, 667.977 747.402, 659.126 " />
            <path fill="none" stroke-width="1.5" stroke-linecap="round" stroke-opacity="1.0" stroke="rgb(0, 0, 0)" stroke-linejoin="round" d=" M 708.169, 247.172 698.169, 247.172 688.169, 247.172 678.169, 247.172 668.169, 247.172 658.169, 247.172 648.169, 247.172 638.169, 247.172 628.169, 247.172 618.169, 247.172 608.169, 247.172 598.169, 247.172 588.169, 247.172 578.169, 247.172 568.169, 247.172 558.169, 247.172 548.169, 247.172 538.169, 247.172 528.169, 247.172 518.169, 247.172 508.169, 247.172 498.169, 247.172 488.169, 247.172 478.169, 247.172 468.169, 247.172 458.169, 247.172 448.169, 247.172 438.169, 247.172 428.169, 247.172 418.169, 247.172 408.169, 247.172 398.169, 247.172 388.169, 247.172 378.169, 247.172 368.169, 247.172 358.169, 247.172 348.169, 247.172 338.169, 247.172 328.169, 247.172 315.831, 247.172 " />
            <path fill="none" stroke-width="1.5" stroke-linecap="round" stroke-opacity="1.0" stroke="rgb(0, 0, 0)" stroke-linejoin="round" d=" M 747.402, 717.977 757.402, 717.977 767.402, 717.977 777.402, 717.977 786.636, 717.977 " />
            <path fill="none" stroke-width="1.5" stroke-linecap="round" stroke-opacity="1.0" stroke="rgb(0, 0, 0)" stroke-linejoin="round" d=" M 747.402, 247.172 737.402, 247.172 727.402, 247.172 717.402, 247.172 708.169, 247.172 " />
            <path fill="none" stroke-width="1.5" stroke-linecap="round" stroke-opacity="1.0" stroke="rgb(0, 0, 0)" stroke-linejoin="round" d=" M 786.636, 247.172 776.636, 247.172 766.636, 247.172 756.636, 247.172 747.402, 247.172 " />
        </g>
    </g>
    <g id="ViewLayer_TechnicalLines.003" inkscape:groupmode="lineset" inkscape:label="ViewLayer_TechnicalLines.003">
        <g inkscape:groupmode="layer" id="strokes" inkscape:label="strokes">
            <path fill="none" stroke-width="1.5" stroke-linecap="round" stroke-opacity="1.0" stroke="rgb(0, 0, 0)" stroke-linejoin="round" d=" M 315.831, 659.126 305.831, 659.126 295.831, 659.126 285.831, 659.126 276.598, 659.126 276.598, 669.126 276.598, 679.126 276.598, 689.126 276.598, 699.126 276.598, 709.126 276.598, 717.977 " />
            <path fill="none" stroke-width="1.5" stroke-linecap="round" stroke-opacity="1.0" stroke="rgb(0, 0, 0)" stroke-linejoin="round" d=" M 276.598, 717.977 276.598, 727.977 276.598, 737.977 276.598, 747.977 276.598, 757.977 276.598, 767.977 276.598, 776.828 286.598, 776.828 296.598, 776.828 306.598, 776.828 316.598, 776.828 326.598, 776.828 336.598, 776.828 346.598, 776.828 356.598, 776.828 366.598, 776.828 376.598, 776.828 386.598, 776.828 396.598, 776.828 406.598, 776.828 416.598, 776.828 426.598, 776.828 436.598, 776.828 446.598, 776.828 456.598, 776.828 466.598, 776.828 476.598, 776.828 486.598, 776.828 496.598, 776.828 506.598, 776.828 516.598, 776.828 526.598, 776.828 536.598, 776.828 546.598, 776.828 556.598, 776.828 566.598, 776.828 576.598, 776.828 586.598, 776.828 596.598, 776.828 606.598, 776.828 616.598, 776.828 626.598, 776.828 636.598, 776.828 646.598, 776.828 656.598, 776.828 666.598, 776.828 676.598, 776.828 686.598, 776.828 696.598, 776.828 706.598, 776.828 716.598, 776.828 726.598, 776.828 736.598, 776.828 747.402, 776.828 747.402, 766.828 747.402, 756.828 747.402, 746.828 747.402, 736.828 747.402, 726.828 747.402, 717.977 " />
            <path fill="none" stroke-width="1.5" stroke-linecap="round" stroke-opacity="1.0" stroke="rgb(0, 0, 0)" stroke-linejoin="round" d=" M 786.636, 717.977 786.636, 707.977 786.636, 697.977 786.636, 687.977 786.636, 677.977 786.636, 667.977 786.636, 657.977 786.636, 647.977 786.636, 637.977 786.636, 627.977 786.636, 617.977 786.636, 607.977 786.636, 597.977 786.636, 587.977 786.636, 577.977 786.636, 567.977 786.636, 557.977 786.636, 547.977 786.636, 537.977 786.636, 527.977 786.636, 517.977 786.636, 507.977 786.636, 497.977 786.636, 487.977 786.636, 477.977 786.636, 467.977 786.636, 457.977 786.636, 447.977 786.636, 437.977 786.636, 427.977 786.636, 417.977 786.636, 407.977 786.636, 397.977 786.636, 387.977 786.636, 377.977 786.636, 367.977 786.636, 357.977 786.636, 347.977 786.636, 337.977 786.636, 327.977 786.636, 317.977 786.636, 307.977 786.636, 297.977 786.636, 287.977 786.636, 277.977 786.636, 267.977 786.636, 257.977 786.636, 247.172 " />
            <path fill="none" stroke-width="1.5" stroke-linecap="round" stroke-opacity="1.0" stroke="rgb(0, 0, 0)" stroke-linejoin="round" d=" M 237.364, 247.172 237.364, 257.172 237.364, 267.172 237.364, 277.172 237.364, 287.172 237.364, 297.172 237.364, 307.172 237.364, 317.172 237.364, 327.172 237.364, 337.172 237.364, 347.172 237.364, 357.172 237.364, 367.172 237.364, 377.172 237.364, 387.172 237.364, 397.172 237.364, 407.172 237.364, 417.172 237.364, 427.172 237.364, 437.172 237.364, 447.172 237.364, 457.172 237.364, 467.172 237.364, 477.172 237.364, 487.172 237.364, 497.172 237.364, 507.172 237.364, 517.172 237.364, 527.172 237.364, 537.172 237.364, 547.172 237.364, 557.172 237.364, 567.172 237.364, 577.172 237.364, 587.172 237.364, 597.172 237.364, 607.172 237.364, 617.172 237.364, 627.172 237.364, 637.172 237.364, 647.172 237.364, 657.172 237.364, 667.172 237.364, 677.172 237.364, 687.172 237.364, 697.172 237.364, 707.172 237.364, 717.977 " />
            <path fill="none" stroke-width="1.5" stroke-linecap="round" stroke-opacity="1.0" stroke="rgb(0, 0, 0)" stroke-linejoin="round" d=" M 237.364, 717.977 247.364, 717.977 257.364, 717.977 267.364, 717.977 276.598, 717.977 " />
            <path fill="none" stroke-width="1.5" stroke-linecap="round" stroke-opacity="1.0" stroke="rgb(0, 0, 0)" stroke-linejoin="round" d=" M 276.598, 247.172 266.598, 247.172 256.598, 247.172 246.598, 247.172 237.364, 247.172 " />
            <path fill="none" stroke-width="1.5" stroke-linecap="round" stroke-opacity="1.0" stroke="rgb(0, 0, 0)" stroke-linejoin="round" d=" M 315.831, 247.172 305.831, 247.172 295.831, 247.172 285.831, 247.172 276.598, 247.172 " />
            <path fill="none" stroke-width="1.5" stroke-linecap="round" stroke-opacity="1.0" stroke="rgb(0, 0, 0)" stroke-linejoin="round" d=" M 315.831, 659.126 315.831, 649.126 315.831, 639.126 315.831, 629.126 315.831, 619.126 315.831, 609.126 315.831, 599.126 315.831, 589.126 315.831, 579.126 315.831, 569.126 315.831, 559.126 315.831, 549.126 315.831, 539.126 315.831, 529.126 315.831, 519.126 315.831, 509.126 315.831, 499.126 315.831, 489.126 315.831, 479.126 315.831, 469.126 315.831, 459.126 315.831, 449.126 315.831, 439.126 315.831, 429.126 315.831, 419.126 315.831, 409.126 315.831, 399.126 315.831, 389.126 315.831, 379.126 315.831, 369.126 315.831, 359.126 315.831, 349.126 315.831, 339.126 315.831, 329.126 315.831, 319.126 315.831, 309.126 315.831, 299.126 315.831, 289.126 315.831, 279.126 315.831, 269.126 315.831, 259.126 315.831, 247.172 " />
            <path fill="none" stroke-width="1.5" stroke-linecap="round" stroke-opacity="1.0" stroke="rgb(0, 0, 0)" stroke-linejoin="round" d=" M 708.169, 247.172 708.169, 257.172 708.169, 267.172 708.169, 277.172 708.169, 287.172 708.169, 297.172 708.169, 307.172 708.169, 317.172 708.169, 327.172 708.169, 337.172 708.169, 347.172 708.169, 357.172 708.169, 367.172 708.169, 377.172 708.169, 387.172 708.169, 397.172 708.169, 407.172 708.169, 417.172 708.169, 427.172 708.169, 437.172 708.169, 447.172 708.169, 457.172 708.169, 467.172 708.169, 477.172 708.169, 487.172 708.169, 497.172 708.169, 507.172 708.169, 517.172 708.169, 527.172 708.169, 537.172 708.169, 547.172 708.169, 557.172 708.169, 567.172 708.169, 577.172 708.169, 587.172 708.169, 597.172 708.169, 607.172 708.169, 617.172 708.169, 627.172 708.169, 637.172 708.169, 647.172 708.169, 659.126 " />
            <path fill="none" stroke-width="1.5" stroke-linecap="round" stroke-opacity="1.0" stroke="rgb(0, 0, 0)" stroke-linejoin="round" d=" M 708.169, 659.126 698.169, 659.126 688.169, 659.126 678.169, 659.126 668.169, 659.126 658.169, 659.126 648.169, 659.126 638.169, 659.126 628.169, 659.126 618.169, 659.126 608.169, 659.126 598.169, 659.126 588.169, 659.126 578.169, 659.126 568.169, 659.126 558.169, 659.126 548.169, 659.126 538.169, 659.126 528.169, 659.126 518.169, 659.126 508.169, 659.126 498.169, 659.126 488.169, 659.126 478.169, 659.126 468.169, 659.126 458.169, 659.126 448.169, 659.126 438.169, 659.126 428.169, 659.126 418.169, 659.126 408.169, 659.126 398.169, 659.126 388.169, 659.126 378.169, 659.126 368.169, 659.126 358.169, 659.126 348.169, 659.126 338.169, 659.126 328.169, 659.126 315.831, 659.126 " />
            <path fill="none" stroke-width="1.5" stroke-linecap="round" stroke-opacity="1.0" stroke="rgb(0, 0, 0)" stroke-linejoin="round" d=" M 747.402, 659.126 737.402, 659.126 727.402, 659.126 717.402, 659.126 708.169, 659.126 " />
            <path fill="none" stroke-width="1.5" stroke-linecap="round" stroke-opacity="1.0" stroke="rgb(0, 0, 0)" stroke-linejoin="round" d=" M 747.402, 717.977 747.402, 707.977 747.402, 697.977 747.402, 687.977 747.402, 677.977 747.402, 667.977 747.402, 659.126 " />
            <path fill="none" stroke-width="1.5" stroke-linecap="round" stroke-opacity="1.0" stroke="rgb(0, 0, 0)" stroke-linejoin="round" d=" M 708.169, 247.172 698.169, 247.172 688.169, 247.172 678.169, 247.172 668.169, 247.172 658.169, 247.172 648.169, 247.172 638.169, 247.172 628.169, 247.172 618.169, 247.172 608.169, 247.172 598.169, 247.172 588.169, 247.172 578.169, 247.172 568.169, 247.172 558.169, 247.172 548.169, 247.172 538.169, 247.172 528.169, 247.172 518.169, 247.172 508.169, 247.172 498.169, 247.172 488.169, 247.172 478.169, 247.172 468.169, 247.172 458.169, 247.172 448.169, 247.172 438.169, 247.172 428.169, 247.172 418.169, 247.172 408.169, 247.172 398.169, 247.172 388.169, 247.172 378.169, 247.172 368.169, 247.172 358.169, 247.172 348.169, 247.172 338.169, 247.172 328.169, 247.172 315.831, 247.172 " />
            <path fill="none" stroke-width="1.5" stroke-linecap="round" stroke-opacity="1.0" stroke="rgb(0, 0, 0)" stroke-linejoin="round" d=" M 747.402, 717.977 757.402, 717.977 767.402, 717.977 777.402, 717.977 786.636, 717.977 " />
            <path fill="none" stroke-width="1.5" stroke-linecap="round" stroke-opacity="1.0" stroke="rgb(0, 0, 0)" stroke-linejoin="round" d=" M 747.402, 247.172 737.402, 247.172 727.402, 247.172 717.402, 247.172 708.169, 247.172 " />
            <path fill="none" stroke-width="1.5" stroke-linecap="round" stroke-opacity="1.0" stroke="rgb(0, 0, 0)" stroke-linejoin="round" d=" M 786.636, 247.172 776.636, 247.172 766.636, 247.172 756.636, 247.172 747.402, 247.172 " />
        </g>
    </g>
    <g id="ViewLayer_TechnicalLines.004" xmlns:inkscape="http://www.inkscape.org/namespaces/inkscape" inkscape:groupmode="lineset" inkscape:label="ViewLayer_TechnicalLines.004">
        <g xmlns:inkscape="http://www.inkscape.org/namespaces/inkscape" inkscape:groupmode="layer" id="strokes" inkscape:label="strokes">
            <path fill="none" stroke-width="1.5" stroke-linecap="round" stroke-opacity="1.0" stroke="rgb(0, 0, 0)" stroke-linejoin="round" d=" M 315.831, 659.126 305.831, 659.126 295.831, 659.126 285.831, 659.126 276.598, 659.126 276.598, 669.126 276.598, 679.126 276.598, 689.126 276.598, 699.126 276.598, 709.126 276.598, 717.977 " />
            <path fill="none" stroke-width="1.5" stroke-linecap="round" stroke-opacity="1.0" stroke="rgb(0, 0, 0)" stroke-linejoin="round" d=" M 276.598, 717.977 276.598, 727.977 276.598, 737.977 276.598, 747.977 276.598, 757.977 276.598, 767.977 276.598, 776.828 286.598, 776.828 296.598, 776.828 306.598, 776.828 316.598, 776.828 326.598, 776.828 336.598, 776.828 346.598, 776.828 356.598, 776.828 366.598, 776.828 376.598, 776.828 386.598, 776.828 396.598, 776.828 406.598, 776.828 416.598, 776.828 426.598, 776.828 436.598, 776.828 446.598, 776.828 456.598, 776.828 466.598, 776.828 476.598, 776.828 486.598, 776.828 496.598, 776.828 506.598, 776.828 516.598, 776.828 526.598, 776.828 536.598, 776.828 546.598, 776.828 556.598, 776.828 566.598, 776.828 576.598, 776.828 586.598, 776.828 596.598, 776.828 606.598, 776.828 616.598, 776.828 626.598, 776.828 636.598, 776.828 646.598, 776.828 656.598, 776.828 666.598, 776.828 676.598, 776.828 686.598, 776.828 696.598, 776.828 706.598, 776.828 716.598, 776.828 726.598, 776.828 736.598, 776.828 747.402, 776.828 747.402, 766.828 747.402, 756.828 747.402, 746.828 747.402, 736.828 747.402, 726.828 747.402, 717.977 " />
            <path fill="none" stroke-width="1.5" stroke-linecap="round" stroke-opacity="1.0" stroke="rgb(0, 0, 0)" stroke-linejoin="round" d=" M 786.636, 717.977 786.636, 707.977 786.636, 697.977 786.636, 687.977 786.636, 677.977 786.636, 667.977 786.636, 657.977 786.636, 647.977 786.636, 637.977 786.636, 627.977 786.636, 617.977 786.636, 607.977 786.636, 597.977 786.636, 587.977 786.636, 577.977 786.636, 567.977 786.636, 557.977 786.636, 547.977 786.636, 537.977 786.636, 527.977 786.636, 517.977 786.636, 507.977 786.636, 497.977 786.636, 487.977 786.636, 477.977 786.636, 467.977 786.636, 457.977 786.636, 447.977 786.636, 437.977 786.636, 427.977 786.636, 417.977 786.636, 407.977 786.636, 397.977 786.636, 387.977 786.636, 377.977 786.636, 367.977 786.636, 357.977 786.636, 347.977 786.636, 337.977 786.636, 327.977 786.636, 317.977 786.636, 307.977 786.636, 297.977 786.636, 287.977 786.636, 277.977 786.636, 267.977 786.636, 257.977 786.636, 247.172 " />
            <path fill="none" stroke-width="1.5" stroke-linecap="round" stroke-opacity="1.0" stroke="rgb(0, 0, 0)" stroke-linejoin="round" d=" M 237.364, 247.172 237.364, 257.172 237.364, 267.172 237.364, 277.172 237.364, 287.172 237.364, 297.172 237.364, 307.172 237.364, 317.172 237.364, 327.172 237.364, 337.172 237.364, 347.172 237.364, 357.172 237.364, 367.172 237.364, 377.172 237.364, 387.172 237.364, 397.172 237.364, 407.172 237.364, 417.172 237.364, 427.172 237.364, 437.172 237.364, 447.172 237.364, 457.172 237.364, 467.172 237.364, 477.172 237.364, 487.172 237.364, 497.172 237.364, 507.172 237.364, 517.172 237.364, 527.172 237.364, 537.172 237.364, 547.172 237.364, 557.172 237.364, 567.172 237.364, 577.172 237.364, 587.172 237.364, 597.172 237.364, 607.172 237.364, 617.172 237.364, 627.172 237.364, 637.172 237.364, 647.172 237.364, 657.172 237.364, 667.172 237.364, 677.172 237.364, 687.172 237.364, 697.172 237.364, 707.172 237.364, 717.977 " />
            <path fill="none" stroke-width="1.5" stroke-linecap="round" stroke-opacity="1.0" stroke="rgb(0, 0, 0)" stroke-linejoin="round" d=" M 237.364, 717.977 247.364, 717.977 257.364, 717.977 267.364, 717.977 276.598, 717.977 " />
            <path fill="none" stroke-width="1.5" stroke-linecap="round" stroke-opacity="1.0" stroke="rgb(0, 0, 0)" stroke-linejoin="round" d=" M 276.598, 247.172 266.598, 247.172 256.598, 247.172 246.598, 247.172 237.364, 247.172 " />
            <path fill="none" stroke-width="1.5" stroke-linecap="round" stroke-opacity="1.0" stroke="rgb(0, 0, 0)" stroke-linejoin="round" d=" M 315.831, 247.172 305.831, 247.172 295.831, 247.172 285.831, 247.172 276.598, 247.172 " />
            <path fill="none" stroke-width="1.5" stroke-linecap="round" stroke-opacity="1.0" stroke="rgb(0, 0, 0)" stroke-linejoin="round" d=" M 315.831, 659.126 315.831, 649.126 315.831, 639.126 315.831, 629.126 315.831, 619.126 315.831, 609.126 315.831, 599.126 315.831, 589.126 315.831, 579.126 315.831, 569.126 315.831, 559.126 315.831, 549.126 315.831, 539.126 315.831, 529.126 315.831, 519.126 315.831, 509.126 315.831, 499.126 315.831, 489.126 315.831, 479.126 315.831, 469.126 315.831, 459.126 315.831, 449.126 315.831, 439.126 315.831, 429.126 315.831, 419.126 315.831, 409.126 315.831, 399.126 315.831, 389.126 315.831, 379.126 315.831, 369.126 315.831, 359.126 315.831, 349.126 315.831, 339.126 315.831, 329.126 315.831, 319.126 315.831, 309.126 315.831, 299.126 315.831, 289.126 315.831, 279.126 315.831, 269.126 315.831, 259.126 315.831, 247.172 " />
            <path fill="none" stroke-width="1.5" stroke-linecap="round" stroke-opacity="1.0" stroke="rgb(0, 0, 0)" stroke-linejoin="round" d=" M 708.169, 247.172 708.169, 257.172 708.169, 267.172 708.169, 277.172 708.169, 287.172 708.169, 297.172 708.169, 307.172 708.169, 317.172 708.169, 327.172 708.169, 337.172 708.169, 347.172 708.169, 357.172 708.169, 367.172 708.169, 377.172 708.169, 387.172 708.169, 397.172 708.169, 407.172 708.169, 417.172 708.169, 427.172 708.169, 437.172 708.169, 447.172 708.169, 457.172 708.169, 467.172 708.169, 477.172 708.169, 487.172 708.169, 497.172 708.169, 507.172 708.169, 517.172 708.169, 527.172 708.169, 537.172 708.169, 547.172 708.169, 557.172 708.169, 567.172 708.169, 577.172 708.169, 587.172 708.169, 597.172 708.169, 607.172 708.169, 617.172 708.169, 627.172 708.169, 637.172 708.169, 647.172 708.169, 659.126 " />
            <path fill="none" stroke-width="1.5" stroke-linecap="round" stroke-opacity="1.0" stroke="rgb(0, 0, 0)" stroke-linejoin="round" d=" M 708.169, 659.126 698.169, 659.126 688.169, 659.126 678.169, 659.126 668.169, 659.126 658.169, 659.126 648.169, 659.126 638.169, 659.126 628.169, 659.126 618.169, 659.126 608.169, 659.126 598.169, 659.126 588.169, 659.126 578.169, 659.126 568.169, 659.126 558.169, 659.126 548.169, 659.126 538.169, 659.126 528.169, 659.126 518.169, 659.126 508.169, 659.126 498.169, 659.126 488.169, 659.126 478.169, 659.126 468.169, 659.126 458.169, 659.126 448.169, 659.126 438.169, 659.126 428.169, 659.126 418.169, 659.126 408.169, 659.126 398.169, 659.126 388.169, 659.126 378.169, 659.126 368.169, 659.126 358.169, 659.126 348.169, 659.126 338.169, 659.126 328.169, 659.126 315.831, 659.126 " />
            <path fill="none" stroke-width="1.5" stroke-linecap="round" stroke-opacity="1.0" stroke="rgb(0, 0, 0)" stroke-linejoin="round" d=" M 747.402, 659.126 737.402, 659.126 727.402, 659.126 717.402, 659.126 708.169, 659.126 " />
            <path fill="none" stroke-width="1.5" stroke-linecap="round" stroke-opacity="1.0" stroke="rgb(0, 0, 0)" stroke-linejoin="round" d=" M 747.402, 717.977 747.402, 707.977 747.402, 697.977 747.402, 687.977 747.402, 677.977 747.402, 667.977 747.402, 659.126 " />
            <path fill="none" stroke-width="1.5" stroke-linecap="round" stroke-opacity="1.0" stroke="rgb(0, 0, 0)" stroke-linejoin="round" d=" M 708.169, 247.172 698.169, 247.172 688.169, 247.172 678.169, 247.172 668.169, 247.172 658.169, 247.172 648.169, 247.172 638.169, 247.172 628.169, 247.172 618.169, 247.172 608.169, 247.172 598.169, 247.172 588.169, 247.172 578.169, 247.172 568.169, 247.172 558.169, 247.172 548.169, 247.172 538.169, 247.172 528.169, 247.172 518.169, 247.172 508.169, 247.172 498.169, 247.172 488.169, 247.172 478.169, 247.172 468.169, 247.172 458.169, 247.172 448.169, 247.172 438.169, 247.172 428.169, 247.172 418.169, 247.172 408.169, 247.172 398.169, 247.172 388.169, 247.172 378.169, 247.172 368.169, 247.172 358.169, 247.172 348.169, 247.172 338.169, 247.172 328.169, 247.172 315.831, 247.172 " />
            <path fill="none" stroke-width="1.5" stroke-linecap="round" stroke-opacity="1.0" stroke="rgb(0, 0, 0)" stroke-linejoin="round" d=" M 747.402, 717.977 757.402, 717.977 767.402, 717.977 777.402, 717.977 786.636, 717.977 " />
            <path fill="none" stroke-width="1.5" stroke-linecap="round" stroke-opacity="1.0" stroke="rgb(0, 0, 0)" stroke-linejoin="round" d=" M 747.402, 247.172 737.402, 247.172 727.402, 247.172 717.402, 247.172 708.169, 247.172 " />
            <path fill="none" stroke-width="1.5" stroke-linecap="round" stroke-opacity="1.0" stroke="rgb(0, 0, 0)" stroke-linejoin="round" d=" M 786.636, 247.172 776.636, 247.172 766.636, 247.172 756.636, 247.172 747.402, 247.172 " />
        </g>
    </g>
</svg>
