<?xml version='1.0' encoding='ascii'?>
<svg xmlns="http://www.w3.org/2000/svg" xmlns:inkscape="http://www.inkscape.org/namespaces/inkscape" version="1.1" width="1024" height="1024">
    <g id="ViewLayer_LineSet" inkscape:groupmode="lineset" inkscape:label="ViewLayer_LineSet">
        <g inkscape:groupmode="layer" id="strokes" inkscape:label="strokes">
            <path fill="none" stroke-width="3.0" stroke-linecap="butt" stroke-opacity="1.0" stroke="rgb(0, 0, 0)" stroke-linejoin="round" d=" M 482.370, 796.445 482.370, 796.445 482.370, 786.445 482.370, 776.445 482.370, 766.445 482.370, 756.445 482.370, 746.445 482.370, 736.445 482.370, 726.445 482.370, 716.445 482.370, 706.445 482.370, 696.445 482.370, 686.445 482.370, 676.445 482.370, 666.445 482.370, 656.445 482.370, 646.445 482.370, 636.444 482.370, 626.445 482.370, 616.445 482.370, 606.444 482.370, 596.445 482.370, 586.445 482.370, 576.445 482.370, 566.444 482.370, 556.445 482.370, 546.445 482.370, 536.444 482.370, 526.444 482.370, 516.445 482.370, 506.445 482.370, 496.445 482.370, 492.247 482.370, 492.247 " />
            <path fill="none" stroke-width="3.0" stroke-linecap="butt" stroke-opacity="1.0" stroke="rgb(0, 0, 0)" stroke-linejoin="round" d=" M 442.864, 492.247 442.864, 492.247 442.864, 502.247 442.864, 512.247 442.864, 522.247 442.864, 532.247 442.864, 542.247 442.864, 552.247 442.864, 562.247 442.864, 572.247 442.864, 582.247 442.864, 592.247 442.864, 602.247 442.864, 612.247 442.864, 622.247 442.864, 632.247 442.864, 642.247 442.864, 652.247 442.864, 662.247 442.864, 672.247 442.864, 682.247 442.864, 692.247 442.864, 702.247 442.864, 712.247 442.864, 722.247 442.864, 732.247 442.864, 742.247 442.864, 752.247 442.864, 762.247 442.864, 772.247 442.864, 782.247 442.864, 792.247 442.864, 796.445 443.244, 796.445 444.368, 796.445 446.193, 796.445 448.650, 796.445 451.643, 796.445 455.058, 796.445 458.764, 796.445 462.617, 796.445 466.471, 796.445 470.177, 796.445 473.592, 796.445 476.585, 796.445 479.041, 796.445 480.867, 796.445 481.991, 796.445 482.370, 796.445 " />
            <path fill="none" stroke-width="3.0" stroke-linecap="butt" stroke-opacity="1.0" stroke="rgb(0, 0, 0)" stroke-linejoin="round" d=" M 640.395, 796.445 640.775, 796.445 641.899, 796.445 643.724, 796.445 646.181, 796.445 649.174, 796.445 652.589, 796.445 656.295, 796.445 660.148, 796.445 664.002, 796.445 667.707, 796.445 671.122, 796.445 674.116, 796.445 676.572, 796.445 678.398, 796.445 679.522, 796.445 679.901, 796.445 679.901, 786.445 679.901, 776.445 679.901, 766.445 679.901, 756.445 679.901, 746.445 679.901, 736.445 679.901, 726.445 679.901, 716.445 679.901, 706.445 679.901, 696.445 679.901, 686.445 679.901, 676.445 679.901, 666.445 679.901, 656.445 679.901, 646.445 679.901, 636.445 679.901, 626.445 679.901, 616.445 679.901, 606.444 679.901, 596.445 679.901, 586.445 679.901, 576.445 679.901, 566.445 679.901, 556.445 679.901, 546.445 679.901, 536.445 679.901, 526.445 679.901, 516.444 679.901, 506.445 679.901, 496.445 679.901, 486.445 679.901, 480.395 " />
            <path fill="none" stroke-width="3.0" stroke-linecap="butt" stroke-opacity="1.0" stroke="rgb(0, 0, 0)" stroke-linejoin="round" d=" M 679.901, 492.247 679.901, 482.247 679.901, 472.247 679.901, 468.543 669.901, 468.543 659.901, 468.543 649.901, 468.543 639.901, 468.543 629.901, 468.543 619.901, 468.543 609.901, 468.543 599.901, 468.543 589.901, 468.543 579.901, 468.543 569.901, 468.543 559.901, 468.543 549.901, 468.543 539.901, 468.543 529.901, 468.543 519.901, 468.543 509.901, 468.543 499.901, 468.543 489.901, 468.543 479.901, 468.543 469.901, 468.543 459.901, 468.543 449.901, 468.543 442.864, 468.543 442.864, 468.543 442.864, 478.543 442.864, 488.543 442.864, 492.247 442.864, 492.247 442.864, 492.247 " />
            <path fill="none" stroke-width="3.0" stroke-linecap="butt" stroke-opacity="1.0" stroke="rgb(0, 0, 0)" stroke-linejoin="round" d=" M 442.864, 492.247 442.864, 492.247 442.864, 492.247 452.864, 492.247 462.864, 492.247 472.864, 492.247 482.370, 492.247 482.370, 492.247 492.370, 492.247 502.370, 492.247 512.370, 492.247 522.370, 492.247 532.370, 492.247 542.370, 492.247 552.370, 492.247 562.370, 492.247 572.370, 492.247 582.370, 492.247 592.370, 492.247 602.370, 492.247 612.370, 492.247 622.370, 492.247 632.370, 492.247 640.395, 492.247 " />
            <path fill="none" stroke-width="3.0" stroke-linecap="butt" stroke-opacity="1.0" stroke="rgb(0, 0, 0)" stroke-linejoin="round" d=" M 581.136, 417.185 581.136, 407.185 581.136, 397.185 581.136, 387.185 581.136, 377.185 581.136, 367.185 581.136, 357.185 581.136, 347.185 581.136, 337.185 581.136, 327.185 581.136, 317.185 581.136, 307.185 581.136, 297.185 581.136, 287.185 581.136, 277.185 581.136, 267.185 581.136, 257.185 581.136, 247.185 581.136, 237.185 581.136, 227.556 571.136, 227.556 561.136, 227.556 551.136, 227.556 541.136, 227.556 531.136, 227.556 521.136, 227.556 511.136, 227.556 501.136, 227.556 491.136, 227.556 481.136, 227.556 471.136, 227.556 461.136, 227.556 451.136, 227.556 441.136, 227.556 431.136, 227.556 421.136, 227.556 411.136, 227.556 401.136, 227.556 391.136, 227.556 381.136, 227.556 371.136, 227.556 361.136, 227.556 351.136, 227.556 344.099, 227.556 344.099, 237.556 344.099, 247.556 344.099, 257.556 344.099, 267.556 344.099, 277.556 344.099, 287.556 344.099, 297.556 344.099, 307.556 344.099, 317.556 344.099, 327.556 344.099, 337.556 344.099, 347.556 344.099, 357.556 344.099, 367.556 344.099, 377.556 344.099, 387.556 344.099, 397.556 344.099, 407.556 344.099, 417.185 354.099, 417.185 364.099, 417.185 374.099, 417.185 384.099, 417.185 394.099, 417.185 404.099, 417.185 414.099, 417.185 424.099, 417.185 434.099, 417.185 444.099, 417.185 454.099, 417.185 464.099, 417.185 474.099, 417.185 484.099, 417.185 494.099, 417.185 504.099, 417.185 514.099, 417.185 524.099, 417.185 534.099, 417.185 544.099, 417.185 554.099, 417.185 564.099, 417.185 574.099, 417.185 581.136, 417.185 " />
            <path fill="none" stroke-width="3.0" stroke-linecap="butt" stroke-opacity="1.0" stroke="rgb(0, 0, 0)" stroke-linejoin="round" d=" M 482.370, 796.445 482.370, 786.445 482.370, 776.445 482.370, 766.445 482.370, 756.445 482.370, 746.445 482.370, 736.445 482.370, 726.445 482.370, 716.445 482.370, 706.445 482.370, 696.445 482.370, 686.445 482.370, 676.445 482.370, 666.445 482.370, 656.445 482.370, 646.445 482.370, 636.444 482.370, 626.445 482.370, 616.445 482.370, 606.444 482.370, 596.445 482.370, 586.445 482.370, 576.445 482.370, 566.444 482.370, 556.445 482.370, 546.445 482.370, 536.444 482.370, 526.444 482.370, 516.445 482.370, 506.445 482.370, 496.445 482.370, 492.247 482.370, 492.247 " />
            <path fill="none" stroke-width="3.0" stroke-linecap="butt" stroke-opacity="1.0" stroke="rgb(0, 0, 0)" stroke-linejoin="round" d=" M 640.395, 492.247 640.395, 492.247 640.395, 502.247 640.395, 512.247 640.395, 522.247 640.395, 532.247 640.395, 542.247 640.395, 552.247 640.395, 562.247 640.395, 572.247 640.395, 582.247 640.395, 592.247 640.395, 602.247 640.395, 612.247 640.395, 622.247 640.395, 632.247 640.395, 642.247 640.395, 652.247 640.395, 662.247 640.395, 672.247 640.395, 682.247 640.395, 692.247 640.395, 702.247 640.395, 712.247 640.395, 722.247 640.395, 732.247 640.395, 742.247 640.395, 752.247 640.395, 762.247 640.395, 772.247 640.395, 782.247 640.395, 792.247 640.395, 796.445 " />
            <path fill="none" stroke-width="3.0" stroke-linecap="butt" stroke-opacity="1.0" stroke="rgb(0, 0, 0)" stroke-linejoin="round" d=" M 482.370, 492.247 492.370, 492.247 502.370, 492.247 512.370, 492.247 522.370, 492.247 532.370, 492.247 542.370, 492.247 552.370, 492.247 562.370, 492.247 572.370, 492.247 582.370, 492.247 592.370, 492.247 602.370, 492.247 612.370, 492.247 622.370, 492.247 632.370, 492.247 640.395, 492.247 " />
            <path fill="none" stroke-width="3.0" stroke-linecap="butt" stroke-opacity="1.0" stroke="rgb(0, 0, 0)" stroke-linejoin="round" d=" M 640.395, 492.247 650.395, 492.247 660.395, 492.247 670.395, 492.247 679.901, 492.247 " />
        </g>
    </g>
    <g id="ViewLayer_TechnicalLines" inkscape:groupmode="lineset" inkscape:label="ViewLayer_TechnicalLines">
        <g inkscape:groupmode="layer" id="strokes" inkscape:label="strokes">
            <path fill="none" stroke-width="3.0" stroke-linecap="butt" stroke-opacity="1.0" stroke="rgb(0, 0, 0)" stroke-linejoin="round" d=" M 482.370, 796.445 482.370, 796.445 482.370, 786.445 482.370, 776.445 482.370, 766.445 482.370, 756.445 482.370, 746.445 482.370, 736.445 482.370, 726.445 482.370, 716.445 482.370, 706.445 482.370, 696.445 482.370, 686.445 482.370, 676.445 482.370, 666.445 482.370, 656.445 482.370, 646.445 482.370, 636.444 482.370, 626.445 482.370, 616.445 482.370, 606.444 482.370, 596.445 482.370, 586.445 482.370, 576.445 482.370, 566.444 482.370, 556.445 482.370, 546.445 482.370, 536.444 482.370, 526.444 482.370, 516.445 482.370, 506.445 482.370, 496.445 482.370, 492.247 482.370, 492.247 " />
            <path fill="none" stroke-width="3.0" stroke-linecap="butt" stroke-opacity="1.0" stroke="rgb(0, 0, 0)" stroke-linejoin="round" d=" M 442.864, 492.247 442.864, 492.247 442.864, 502.247 442.864, 512.247 442.864, 522.247 442.864, 532.247 442.864, 542.247 442.864, 552.247 442.864, 562.247 442.864, 572.247 442.864, 582.247 442.864, 592.247 442.864, 602.247 442.864, 612.247 442.864, 622.247 442.864, 632.247 442.864, 642.247 442.864, 652.247 442.864, 662.247 442.864, 672.247 442.864, 682.247 442.864, 692.247 442.864, 702.247 442.864, 712.247 442.864, 722.247 442.864, 732.247 442.864, 742.247 442.864, 752.247 442.864, 762.247 442.864, 772.247 442.864, 782.247 442.864, 792.247 442.864, 796.445 443.244, 796.445 444.368, 796.445 446.193, 796.445 448.650, 796.445 451.643, 796.445 455.058, 796.445 458.764, 796.445 462.617, 796.445 466.471, 796.445 470.177, 796.445 473.592, 796.445 476.585, 796.445 479.041, 796.445 480.867, 796.445 481.991, 796.445 482.370, 796.445 " />
            <path fill="none" stroke-width="3.0" stroke-linecap="butt" stroke-opacity="1.0" stroke="rgb(0, 0, 0)" stroke-linejoin="round" d=" M 640.395, 796.445 640.775, 796.445 641.899, 796.445 643.724, 796.445 646.181, 796.445 649.174, 796.445 652.589, 796.445 656.295, 796.445 660.148, 796.445 664.002, 796.445 667.707, 796.445 671.122, 796.445 674.116, 796.445 676.572, 796.445 678.398, 796.445 679.522, 796.445 679.901, 796.445 679.901, 786.445 679.901, 776.445 679.901, 766.445 679.901, 756.445 679.901, 746.445 679.901, 736.445 679.901, 726.445 679.901, 716.445 679.901, 706.445 679.901, 696.445 679.901, 686.445 679.901, 676.445 679.901, 666.445 679.901, 656.445 679.901, 646.445 679.901, 636.445 679.901, 626.445 679.901, 616.445 679.901, 606.444 679.901, 596.445 679.901, 586.445 679.901, 576.445 679.901, 566.445 679.901, 556.445 679.901, 546.445 679.901, 536.445 679.901, 526.445 679.901, 516.444 679.901, 506.445 679.901, 496.445 679.901, 486.445 679.901, 480.395 " />
            <path fill="none" stroke-width="3.0" stroke-linecap="butt" stroke-opacity="1.0" stroke="rgb(0, 0, 0)" stroke-linejoin="round" d=" M 679.901, 492.247 679.901, 482.247 679.901, 472.247 679.901, 468.543 669.901, 468.543 659.901, 468.543 649.901, 468.543 639.901, 468.543 629.901, 468.543 619.901, 468.543 609.901, 468.543 599.901, 468.543 589.901, 468.543 579.901, 468.543 569.901, 468.543 559.901, 468.543 549.901, 468.543 539.901, 468.543 529.901, 468.543 519.901, 468.543 509.901, 468.543 499.901, 468.543 489.901, 468.543 479.901, 468.543 469.901, 468.543 459.901, 468.543 449.901, 468.543 442.864, 468.543 442.864, 468.543 442.864, 478.543 442.864, 488.543 442.864, 492.247 442.864, 492.247 442.864, 492.247 " />
            <path fill="none" stroke-width="3.0" stroke-linecap="butt" stroke-opacity="1.0" stroke="rgb(0, 0, 0)" stroke-linejoin="round" d=" M 442.864, 492.247 442.864, 492.247 442.864, 492.247 452.864, 492.247 462.864, 492.247 472.864, 492.247 482.370, 492.247 482.370, 492.247 492.370, 492.247 502.370, 492.247 512.370, 492.247 522.370, 492.247 532.370, 492.247 542.370, 492.247 552.370, 492.247 562.370, 492.247 572.370, 492.247 582.370, 492.247 592.370, 492.247 602.370, 492.247 612.370, 492.247 622.370, 492.247 632.370, 492.247 640.395, 492.247 " />
            <path fill="none" stroke-width="3.0" stroke-linecap="butt" stroke-opacity="1.0" stroke="rgb(0, 0, 0)" stroke-linejoin="round" d=" M 581.136, 417.185 581.136, 407.185 581.136, 397.185 581.136, 387.185 581.136, 377.185 581.136, 367.185 581.136, 357.185 581.136, 347.185 581.136, 337.185 581.136, 327.185 581.136, 317.185 581.136, 307.185 581.136, 297.185 581.136, 287.185 581.136, 277.185 581.136, 267.185 581.136, 257.185 581.136, 247.185 581.136, 237.185 581.136, 227.556 571.136, 227.556 561.136, 227.556 551.136, 227.556 541.136, 227.556 531.136, 227.556 521.136, 227.556 511.136, 227.556 501.136, 227.556 491.136, 227.556 481.136, 227.556 471.136, 227.556 461.136, 227.556 451.136, 227.556 441.136, 227.556 431.136, 227.556 421.136, 227.556 411.136, 227.556 401.136, 227.556 391.136, 227.556 381.136, 227.556 371.136, 227.556 361.136, 227.556 351.136, 227.556 344.099, 227.556 344.099, 237.556 344.099, 247.556 344.099, 257.556 344.099, 267.556 344.099, 277.556 344.099, 287.556 344.099, 297.556 344.099, 307.556 344.099, 317.556 344.099, 327.556 344.099, 337.556 344.099, 347.556 344.099, 357.556 344.099, 367.556 344.099, 377.556 344.099, 387.556 344.099, 397.556 344.099, 407.556 344.099, 417.185 354.099, 417.185 364.099, 417.185 374.099, 417.185 384.099, 417.185 394.099, 417.185 404.099, 417.185 414.099, 417.185 424.099, 417.185 434.099, 417.185 444.099, 417.185 454.099, 417.185 464.099, 417.185 474.099, 417.185 484.099, 417.185 494.099, 417.185 504.099, 417.185 514.099, 417.185 524.099, 417.185 534.099, 417.185 544.099, 417.185 554.099, 417.185 564.099, 417.185 574.099, 417.185 581.136, 417.185 " />
            <path fill="none" stroke-width="3.0" stroke-linecap="butt" stroke-opacity="1.0" stroke="rgb(0, 0, 0)" stroke-linejoin="round" d=" M 482.370, 796.445 482.370, 786.445 482.370, 776.445 482.370, 766.445 482.370, 756.445 482.370, 746.445 482.370, 736.445 482.370, 726.445 482.370, 716.445 482.370, 706.445 482.370, 696.445 482.370, 686.445 482.370, 676.445 482.370, 666.445 482.370, 656.445 482.370, 646.445 482.370, 636.444 482.370, 626.445 482.370, 616.445 482.370, 606.444 482.370, 596.445 482.370, 586.445 482.370, 576.445 482.370, 566.444 482.370, 556.445 482.370, 546.445 482.370, 536.444 482.370, 526.444 482.370, 516.445 482.370, 506.445 482.370, 496.445 482.370, 492.247 482.370, 492.247 " />
            <path fill="none" stroke-width="3.0" stroke-linecap="butt" stroke-opacity="1.0" stroke="rgb(0, 0, 0)" stroke-linejoin="round" d=" M 640.395, 492.247 640.395, 492.247 640.395, 502.247 640.395, 512.247 640.395, 522.247 640.395, 532.247 640.395, 542.247 640.395, 552.247 640.395, 562.247 640.395, 572.247 640.395, 582.247 640.395, 592.247 640.395, 602.247 640.395, 612.247 640.395, 622.247 640.395, 632.247 640.395, 642.247 640.395, 652.247 640.395, 662.247 640.395, 672.247 640.395, 682.247 640.395, 692.247 640.395, 702.247 640.395, 712.247 640.395, 722.247 640.395, 732.247 640.395, 742.247 640.395, 752.247 640.395, 762.247 640.395, 772.247 640.395, 782.247 640.395, 792.247 640.395, 796.445 " />
            <path fill="none" stroke-width="3.0" stroke-linecap="butt" stroke-opacity="1.0" stroke="rgb(0, 0, 0)" stroke-linejoin="round" d=" M 482.370, 492.247 492.370, 492.247 502.370, 492.247 512.370, 492.247 522.370, 492.247 532.370, 492.247 542.370, 492.247 552.370, 492.247 562.370, 492.247 572.370, 492.247 582.370, 492.247 592.370, 492.247 602.370, 492.247 612.370, 492.247 622.370, 492.247 632.370, 492.247 640.395, 492.247 " />
            <path fill="none" stroke-width="3.0" stroke-linecap="butt" stroke-opacity="1.0" stroke="rgb(0, 0, 0)" stroke-linejoin="round" d=" M 640.395, 492.247 650.395, 492.247 660.395, 492.247 670.395, 492.247 679.901, 492.247 " />
        </g>
    </g>
    <g id="ViewLayer_TechnicalLines.001" inkscape:groupmode="lineset" inkscape:label="ViewLayer_TechnicalLines.001">
        <g inkscape:groupmode="layer" id="strokes" inkscape:label="strokes">
            <path fill="none" stroke-width="1.5" stroke-linecap="round" stroke-opacity="1.0" stroke="rgb(0, 0, 0)" stroke-linejoin="round" d=" M 482.370, 796.445 482.370, 796.445 482.370, 786.445 482.370, 776.445 482.370, 766.445 482.370, 756.445 482.370, 746.445 482.370, 736.445 482.370, 726.445 482.370, 716.445 482.370, 706.445 482.370, 696.445 482.370, 686.445 482.370, 676.445 482.370, 666.445 482.370, 656.445 482.370, 646.445 482.370, 636.444 482.370, 626.445 482.370, 616.445 482.370, 606.444 482.370, 596.445 482.370, 586.445 482.370, 576.445 482.370, 566.444 482.370, 556.445 482.370, 546.445 482.370, 536.444 482.370, 526.444 482.370, 516.445 482.370, 506.445 482.370, 496.445 482.370, 492.247 482.370, 492.247 " />
            <path fill="none" stroke-width="1.5" stroke-linecap="round" stroke-opacity="1.0" stroke="rgb(0, 0, 0)" stroke-linejoin="round" d=" M 442.864, 492.247 442.864, 492.247 442.864, 502.247 442.864, 512.247 442.864, 522.247 442.864, 532.247 442.864, 542.247 442.864, 552.247 442.864, 562.247 442.864, 572.247 442.864, 582.247 442.864, 592.247 442.864, 602.247 442.864, 612.247 442.864, 622.247 442.864, 632.247 442.864, 642.247 442.864, 652.247 442.864, 662.247 442.864, 672.247 442.864, 682.247 442.864, 692.247 442.864, 702.247 442.864, 712.247 442.864, 722.247 442.864, 732.247 442.864, 742.247 442.864, 752.247 442.864, 762.247 442.864, 772.247 442.864, 782.247 442.864, 792.247 442.864, 796.445 443.244, 796.445 444.368, 796.445 446.193, 796.445 448.650, 796.445 451.643, 796.445 455.058, 796.445 458.764, 796.445 462.617, 796.445 466.471, 796.445 470.177, 796.445 473.592, 796.445 476.585, 796.445 479.041, 796.445 480.867, 796.445 481.991, 796.445 482.370, 796.445 " />
            <path fill="none" stroke-width="1.5" stroke-linecap="round" stroke-opacity="1.0" stroke="rgb(0, 0, 0)" stroke-linejoin="round" d=" M 640.395, 796.445 640.775, 796.445 641.899, 796.445 643.724, 796.445 646.181, 796.445 649.174, 796.445 652.589, 796.445 656.295, 796.445 660.148, 796.445 664.002, 796.445 667.707, 796.445 671.122, 796.445 674.116, 796.445 676.572, 796.445 678.398, 796.445 679.522, 796.445 679.901, 796.445 679.901, 786.445 679.901, 776.445 679.901, 766.445 679.901, 756.445 679.901, 746.445 679.901, 736.445 679.901, 726.445 679.901, 716.445 679.901, 706.445 679.901, 696.445 679.901, 686.445 679.901, 676.445 679.901, 666.445 679.901, 656.445 679.901, 646.445 679.901, 636.445 679.901, 626.445 679.901, 616.445 679.901, 606.444 679.901, 596.445 679.901, 586.445 679.901, 576.445 679.901, 566.445 679.901, 556.445 679.901, 546.445 679.901, 536.445 679.901, 526.445 679.901, 516.444 679.901, 506.445 679.901, 496.445 679.901, 486.445 679.901, 480.395 " />
            <path fill="none" stroke-width="1.5" stroke-linecap="round" stroke-opacity="1.0" stroke="rgb(0, 0, 0)" stroke-linejoin="round" d=" M 679.901, 492.247 679.901, 482.247 679.901, 472.247 679.901, 468.543 669.901, 468.543 659.901, 468.543 649.901, 468.543 639.901, 468.543 629.901, 468.543 619.901, 468.543 609.901, 468.543 599.901, 468.543 589.901, 468.543 579.901, 468.543 569.901, 468.543 559.901, 468.543 549.901, 468.543 539.901, 468.543 529.901, 468.543 519.901, 468.543 509.901, 468.543 499.901, 468.543 489.901, 468.543 479.901, 468.543 469.901, 468.543 459.901, 468.543 449.901, 468.543 442.864, 468.543 442.864, 468.543 442.864, 478.543 442.864, 488.543 442.864, 492.247 442.864, 492.247 442.864, 492.247 " />
            <path fill="none" stroke-width="1.5" stroke-linecap="round" stroke-opacity="1.0" stroke="rgb(0, 0, 0)" stroke-linejoin="round" d=" M 442.864, 492.247 442.864, 492.247 442.864, 492.247 452.864, 492.247 462.864, 492.247 472.864, 492.247 482.370, 492.247 482.370, 492.247 492.370, 492.247 502.370, 492.247 512.370, 492.247 522.370, 492.247 532.370, 492.247 542.370, 492.247 552.370, 492.247 562.370, 492.247 572.370, 492.247 582.370, 492.247 592.370, 492.247 602.370, 492.247 612.370, 492.247 622.370, 492.247 632.370, 492.247 640.395, 492.247 " />
            <path fill="none" stroke-width="1.5" stroke-linecap="round" stroke-opacity="1.0" stroke="rgb(0, 0, 0)" stroke-linejoin="round" d=" M 581.136, 417.185 581.136, 407.185 581.136, 397.185 581.136, 387.185 581.136, 377.185 581.136, 367.185 581.136, 357.185 581.136, 347.185 581.136, 337.185 581.136, 327.185 581.136, 317.185 581.136, 307.185 581.136, 297.185 581.136, 287.185 581.136, 277.185 581.136, 267.185 581.136, 257.185 581.136, 247.185 581.136, 237.185 581.136, 227.556 571.136, 227.556 561.136, 227.556 551.136, 227.556 541.136, 227.556 531.136, 227.556 521.136, 227.556 511.136, 227.556 501.136, 227.556 491.136, 227.556 481.136, 227.556 471.136, 227.556 461.136, 227.556 451.136, 227.556 441.136, 227.556 431.136, 227.556 421.136, 227.556 411.136, 227.556 401.136, 227.556 391.136, 227.556 381.136, 227.556 371.136, 227.556 361.136, 227.556 351.136, 227.556 344.099, 227.556 344.099, 237.556 344.099, 247.556 344.099, 257.556 344.099, 267.556 344.099, 277.556 344.099, 287.556 344.099, 297.556 344.099, 307.556 344.099, 317.556 344.099, 327.556 344.099, 337.556 344.099, 347.556 344.099, 357.556 344.099, 367.556 344.099, 377.556 344.099, 387.556 344.099, 397.556 344.099, 407.556 344.099, 417.185 354.099, 417.185 364.099, 417.185 374.099, 417.185 384.099, 417.185 394.099, 417.185 404.099, 417.185 414.099, 417.185 424.099, 417.185 434.099, 417.185 444.099, 417.185 454.099, 417.185 464.099, 417.185 474.099, 417.185 484.099, 417.185 494.099, 417.185 504.099, 417.185 514.099, 417.185 524.099, 417.185 534.099, 417.185 544.099, 417.185 554.099, 417.185 564.099, 417.185 574.099, 417.185 581.136, 417.185 " />
            <path fill="none" stroke-width="1.5" stroke-linecap="round" stroke-opacity="1.0" stroke="rgb(0, 0, 0)" stroke-linejoin="round" d=" M 482.370, 796.445 482.370, 786.445 482.370, 776.445 482.370, 766.445 482.370, 756.445 482.370, 746.445 482.370, 736.445 482.370, 726.445 482.370, 716.445 482.370, 706.445 482.370, 696.445 482.370, 686.445 482.370, 676.445 482.370, 666.445 482.370, 656.445 482.370, 646.445 482.370, 636.444 482.370, 626.445 482.370, 616.445 482.370, 606.444 482.370, 596.445 482.370, 586.445 482.370, 576.445 482.370, 566.444 482.370, 556.445 482.370, 546.445 482.370, 536.444 482.370, 526.444 482.370, 516.445 482.370, 506.445 482.370, 496.445 482.370, 492.247 482.370, 492.247 " />
            <path fill="none" stroke-width="1.5" stroke-linecap="round" stroke-opacity="1.0" stroke="rgb(0, 0, 0)" stroke-linejoin="round" d=" M 640.395, 492.247 640.395, 492.247 640.395, 502.247 640.395, 512.247 640.395, 522.247 640.395, 532.247 640.395, 542.247 640.395, 552.247 640.395, 562.247 640.395, 572.247 640.395, 582.247 640.395, 592.247 640.395, 602.247 640.395, 612.247 640.395, 622.247 640.395, 632.247 640.395, 642.247 640.395, 652.247 640.395, 662.247 640.395, 672.247 640.395, 682.247 640.395, 692.247 640.395, 702.247 640.395, 712.247 640.395, 722.247 640.395, 732.247 640.395, 742.247 640.395, 752.247 640.395, 762.247 640.395, 772.247 640.395, 782.247 640.395, 792.247 640.395, 796.445 " />
            <path fill="none" stroke-width="1.5" stroke-linecap="round" stroke-opacity="1.0" stroke="rgb(0, 0, 0)" stroke-linejoin="round" d=" M 482.370, 492.247 492.370, 492.247 502.370, 492.247 512.370, 492.247 522.370, 492.247 532.370, 492.247 542.370, 492.247 552.370, 492.247 562.370, 492.247 572.370, 492.247 582.370, 492.247 592.370, 492.247 602.370, 492.247 612.370, 492.247 622.370, 492.247 632.370, 492.247 640.395, 492.247 " />
            <path fill="none" stroke-width="1.5" stroke-linecap="round" stroke-opacity="1.0" stroke="rgb(0, 0, 0)" stroke-linejoin="round" d=" M 640.395, 492.247 650.395, 492.247 660.395, 492.247 670.395, 492.247 679.901, 492.247 " />
        </g>
    </g>
    <g id="ViewLayer_TechnicalLines.002" inkscape:groupmode="lineset" inkscape:label="ViewLayer_TechnicalLines.002">
        <g inkscape:groupmode="layer" id="strokes" inkscape:label="strokes">
            <path fill="none" stroke-width="1.5" stroke-linecap="round" stroke-opacity="1.0" stroke="rgb(0, 0, 0)" stroke-linejoin="round" d=" M 482.370, 796.445 482.370, 796.445 482.370, 786.445 482.370, 776.445 482.370, 766.445 482.370, 756.445 482.370, 746.445 482.370, 736.445 482.370, 726.445 482.370, 716.445 482.370, 706.445 482.370, 696.445 482.370, 686.445 482.370, 676.445 482.370, 666.445 482.370, 656.445 482.370, 646.445 482.370, 636.444 482.370, 626.445 482.370, 616.445 482.370, 606.444 482.370, 596.445 482.370, 586.445 482.370, 576.445 482.370, 566.444 482.370, 556.445 482.370, 546.445 482.370, 536.444 482.370, 526.444 482.370, 516.445 482.370, 506.445 482.370, 496.445 482.370, 492.247 482.370, 492.247 " />
            <path fill="none" stroke-width="1.5" stroke-linecap="round" stroke-opacity="1.0" stroke="rgb(0, 0, 0)" stroke-linejoin="round" d=" M 442.864, 492.247 442.864, 492.247 442.864, 502.247 442.864, 512.247 442.864, 522.247 442.864, 532.247 442.864, 542.247 442.864, 552.247 442.864, 562.247 442.864, 572.247 442.864, 582.247 442.864, 592.247 442.864, 602.247 442.864, 612.247 442.864, 622.247 442.864, 632.247 442.864, 642.247 442.864, 652.247 442.864, 662.247 442.864, 672.247 442.864, 682.247 442.864, 692.247 442.864, 702.247 442.864, 712.247 442.864, 722.247 442.864, 732.247 442.864, 742.247 442.864, 752.247 442.864, 762.247 442.864, 772.247 442.864, 782.247 442.864, 792.247 442.864, 796.445 443.244, 796.445 444.368, 796.445 446.193, 796.445 448.650, 796.445 451.643, 796.445 455.058, 796.445 458.764, 796.445 462.617, 796.445 466.471, 796.445 470.177, 796.445 473.592, 796.445 476.585, 796.445 479.041, 796.445 480.867, 796.445 481.991, 796.445 482.370, 796.445 " />
            <path fill="none" stroke-width="1.5" stroke-linecap="round" stroke-opacity="1.0" stroke="rgb(0, 0, 0)" stroke-linejoin="round" d=" M 640.395, 796.445 640.775, 796.445 641.899, 796.445 643.724, 796.445 646.181, 796.445 649.174, 796.445 652.589, 796.445 656.295, 796.445 660.148, 796.445 664.002, 796.445 667.707, 796.445 671.122, 796.445 674.116, 796.445 676.572, 796.445 678.398, 796.445 679.522, 796.445 679.901, 796.445 679.901, 786.445 679.901, 776.445 679.901, 766.445 679.901, 756.445 679.901, 746.445 679.901, 736.445 679.901, 726.445 679.901, 716.445 679.901, 706.445 679.901, 696.445 679.901, 686.445 679.901, 676.445 679.901, 666.445 679.901, 656.445 679.901, 646.445 679.901, 636.445 679.901, 626.445 679.901, 616.445 679.901, 606.444 679.901, 596.445 679.901, 586.445 679.901, 576.445 679.901, 566.445 679.901, 556.445 679.901, 546.445 679.901, 536.445 679.901, 526.445 679.901, 516.444 679.901, 506.445 679.901, 496.445 679.901, 486.445 679.901, 480.395 " />
            <path fill="none" stroke-width="1.5" stroke-linecap="round" stroke-opacity="1.0" stroke="rgb(0, 0, 0)" stroke-linejoin="round" d=" M 679.901, 492.247 679.901, 482.247 679.901, 472.247 679.901, 468.543 669.901, 468.543 659.901, 468.543 649.901, 468.543 639.901, 468.543 629.901, 468.543 619.901, 468.543 609.901, 468.543 599.901, 468.543 589.901, 468.543 579.901, 468.543 569.901, 468.543 559.901, 468.543 549.901, 468.543 539.901, 468.543 529.901, 468.543 519.901, 468.543 509.901, 468.543 499.901, 468.543 489.901, 468.543 479.901, 468.543 469.901, 468.543 459.901, 468.543 449.901, 468.543 442.864, 468.543 442.864, 468.543 442.864, 478.543 442.864, 488.543 442.864, 492.247 442.864, 492.247 442.864, 492.247 " />
            <path fill="none" stroke-width="1.5" stroke-linecap="round" stroke-opacity="1.0" stroke="rgb(0, 0, 0)" stroke-linejoin="round" d=" M 442.864, 492.247 442.864, 492.247 442.864, 492.247 452.864, 492.247 462.864, 492.247 472.864, 492.247 482.370, 492.247 482.370, 492.247 492.370, 492.247 502.370, 492.247 512.370, 492.247 522.370, 492.247 532.370, 492.247 542.370, 492.247 552.370, 492.247 562.370, 492.247 572.370, 492.247 582.370, 492.247 592.370, 492.247 602.370, 492.247 612.370, 492.247 622.370, 492.247 632.370, 492.247 640.395, 492.247 " />
            <path fill="none" stroke-width="1.5" stroke-linecap="round" stroke-opacity="1.0" stroke="rgb(0, 0, 0)" stroke-linejoin="round" d=" M 581.136, 417.185 581.136, 407.185 581.136, 397.185 581.136, 387.185 581.136, 377.185 581.136, 367.185 581.136, 357.185 581.136, 347.185 581.136, 337.185 581.136, 327.185 581.136, 317.185 581.136, 307.185 581.136, 297.185 581.136, 287.185 581.136, 277.185 581.136, 267.185 581.136, 257.185 581.136, 247.185 581.136, 237.185 581.136, 227.556 571.136, 227.556 561.136, 227.556 551.136, 227.556 541.136, 227.556 531.136, 227.556 521.136, 227.556 511.136, 227.556 501.136, 227.556 491.136, 227.556 481.136, 227.556 471.136, 227.556 461.136, 227.556 451.136, 227.556 441.136, 227.556 431.136, 227.556 421.136, 227.556 411.136, 227.556 401.136, 227.556 391.136, 227.556 381.136, 227.556 371.136, 227.556 361.136, 227.556 351.136, 227.556 344.099, 227.556 344.099, 237.556 344.099, 247.556 344.099, 257.556 344.099, 267.556 344.099, 277.556 344.099, 287.556 344.099, 297.556 344.099, 307.556 344.099, 317.556 344.099, 327.556 344.099, 337.556 344.099, 347.556 344.099, 357.556 344.099, 367.556 344.099, 377.556 344.099, 387.556 344.099, 397.556 344.099, 407.556 344.099, 417.185 354.099, 417.185 364.099, 417.185 374.099, 417.185 384.099, 417.185 394.099, 417.185 404.099, 417.185 414.099, 417.185 424.099, 417.185 434.099, 417.185 444.099, 417.185 454.099, 417.185 464.099, 417.185 474.099, 417.185 484.099, 417.185 494.099, 417.185 504.099, 417.185 514.099, 417.185 524.099, 417.185 534.099, 417.185 544.099, 417.185 554.099, 417.185 564.099, 417.185 574.099, 417.185 581.136, 417.185 " />
            <path fill="none" stroke-width="1.5" stroke-linecap="round" stroke-opacity="1.0" stroke="rgb(0, 0, 0)" stroke-linejoin="round" d=" M 482.370, 796.445 482.370, 786.445 482.370, 776.445 482.370, 766.445 482.370, 756.445 482.370, 746.445 482.370, 736.445 482.370, 726.445 482.370, 716.445 482.370, 706.445 482.370, 696.445 482.370, 686.445 482.370, 676.445 482.370, 666.445 482.370, 656.445 482.370, 646.445 482.370, 636.444 482.370, 626.445 482.370, 616.445 482.370, 606.444 482.370, 596.445 482.370, 586.445 482.370, 576.445 482.370, 566.444 482.370, 556.445 482.370, 546.445 482.370, 536.444 482.370, 526.444 482.370, 516.445 482.370, 506.445 482.370, 496.445 482.370, 492.247 482.370, 492.247 " />
            <path fill="none" stroke-width="1.5" stroke-linecap="round" stroke-opacity="1.0" stroke="rgb(0, 0, 0)" stroke-linejoin="round" d=" M 640.395, 492.247 640.395, 492.247 640.395, 502.247 640.395, 512.247 640.395, 522.247 640.395, 532.247 640.395, 542.247 640.395, 552.247 640.395, 562.247 640.395, 572.247 640.395, 582.247 640.395, 592.247 640.395, 602.247 640.395, 612.247 640.395, 622.247 640.395, 632.247 640.395, 642.247 640.395, 652.247 640.395, 662.247 640.395, 672.247 640.395, 682.247 640.395, 692.247 640.395, 702.247 640.395, 712.247 640.395, 722.247 640.395, 732.247 640.395, 742.247 640.395, 752.247 640.395, 762.247 640.395, 772.247 640.395, 782.247 640.395, 792.247 640.395, 796.445 " />
            <path fill="none" stroke-width="1.5" stroke-linecap="round" stroke-opacity="1.0" stroke="rgb(0, 0, 0)" stroke-linejoin="round" d=" M 482.370, 492.247 492.370, 492.247 502.370, 492.247 512.370, 492.247 522.370, 492.247 532.370, 492.247 542.370, 492.247 552.370, 492.247 562.370, 492.247 572.370, 492.247 582.370, 492.247 592.370, 492.247 602.370, 492.247 612.370, 492.247 622.370, 492.247 632.370, 492.247 640.395, 492.247 " />
            <path fill="none" stroke-width="1.5" stroke-linecap="round" stroke-opacity="1.0" stroke="rgb(0, 0, 0)" stroke-linejoin="round" d=" M 640.395, 492.247 650.395, 492.247 660.395, 492.247 670.395, 492.247 679.901, 492.247 " />
        </g>
    </g>
    <g id="ViewLayer_TechnicalLines.003" inkscape:groupmode="lineset" inkscape:label="ViewLayer_TechnicalLines.003">
        <g inkscape:groupmode="layer" id="strokes" inkscape:label="strokes">
            <path fill="none" stroke-width="1.5" stroke-linecap="round" stroke-opacity="1.0" stroke="rgb(0, 0, 0)" stroke-linejoin="round" d=" M 482.370, 796.445 482.370, 796.445 482.370, 786.445 482.370, 776.445 482.370, 766.445 482.370, 756.445 482.370, 746.445 482.370, 736.445 482.370, 726.445 482.370, 716.445 482.370, 706.445 482.370, 696.445 482.370, 686.445 482.370, 676.445 482.370, 666.445 482.370, 656.445 482.370, 646.445 482.370, 636.444 482.370, 626.445 482.370, 616.445 482.370, 606.444 482.370, 596.445 482.370, 586.445 482.370, 576.445 482.370, 566.444 482.370, 556.445 482.370, 546.445 482.370, 536.444 482.370, 526.444 482.370, 516.445 482.370, 506.445 482.370, 496.445 482.370, 492.247 482.370, 492.247 " />
            <path fill="none" stroke-width="1.5" stroke-linecap="round" stroke-opacity="1.0" stroke="rgb(0, 0, 0)" stroke-linejoin="round" d=" M 442.864, 492.247 442.864, 492.247 442.864, 502.247 442.864, 512.247 442.864, 522.247 442.864, 532.247 442.864, 542.247 442.864, 552.247 442.864, 562.247 442.864, 572.247 442.864, 582.247 442.864, 592.247 442.864, 602.247 442.864, 612.247 442.864, 622.247 442.864, 632.247 442.864, 642.247 442.864, 652.247 442.864, 662.247 442.864, 672.247 442.864, 682.247 442.864, 692.247 442.864, 702.247 442.864, 712.247 442.864, 722.247 442.864, 732.247 442.864, 742.247 442.864, 752.247 442.864, 762.247 442.864, 772.247 442.864, 782.247 442.864, 792.247 442.864, 796.445 443.244, 796.445 444.368, 796.445 446.193, 796.445 448.650, 796.445 451.643, 796.445 455.058, 796.445 458.764, 796.445 462.617, 796.445 466.471, 796.445 470.177, 796.445 473.592, 796.445 476.585, 796.445 479.041, 796.445 480.867, 796.445 481.991, 796.445 482.370, 796.445 " />
            <path fill="none" stroke-width="1.5" stroke-linecap="round" stroke-opacity="1.0" stroke="rgb(0, 0, 0)" stroke-linejoin="round" d=" M 640.395, 796.445 640.775, 796.445 641.899, 796.445 643.724, 796.445 646.181, 796.445 649.174, 796.445 652.589, 796.445 656.295, 796.445 660.148, 796.445 664.002, 796.445 667.707, 796.445 671.122, 796.445 674.116, 796.445 676.572, 796.445 678.398, 796.445 679.522, 796.445 679.901, 796.445 679.901, 786.445 679.901, 776.445 679.901, 766.445 679.901, 756.445 679.901, 746.445 679.901, 736.445 679.901, 726.445 679.901, 716.445 679.901, 706.445 679.901, 696.445 679.901, 686.445 679.901, 676.445 679.901, 666.445 679.901, 656.445 679.901, 646.445 679.901, 636.445 679.901, 626.445 679.901, 616.445 679.901, 606.444 679.901, 596.445 679.901, 586.445 679.901, 576.445 679.901, 566.445 679.901, 556.445 679.901, 546.445 679.901, 536.445 679.901, 526.445 679.901, 516.444 679.901, 506.445 679.901, 496.445 679.901, 486.445 679.901, 480.395 " />
            <path fill="none" stroke-width="1.5" stroke-linecap="round" stroke-opacity="1.0" stroke="rgb(0, 0, 0)" stroke-linejoin="round" d=" M 679.901, 492.247 679.901, 482.247 679.901, 472.247 679.901, 468.543 669.901, 468.543 659.901, 468.543 649.901, 468.543 639.901, 468.543 629.901, 468.543 619.901, 468.543 609.901, 468.543 599.901, 468.543 589.901, 468.543 579.901, 468.543 569.901, 468.543 559.901, 468.543 549.901, 468.543 539.901, 468.543 529.901, 468.543 519.901, 468.543 509.901, 468.543 499.901, 468.543 489.901, 468.543 479.901, 468.543 469.901, 468.543 459.901, 468.543 449.901, 468.543 442.864, 468.543 442.864, 468.543 442.864, 478.543 442.864, 488.543 442.864, 492.247 442.864, 492.247 442.864, 492.247 " />
            <path fill="none" stroke-width="1.5" stroke-linecap="round" stroke-opacity="1.0" stroke="rgb(0, 0, 0)" stroke-linejoin="round" d=" M 442.864, 492.247 442.864, 492.247 442.864, 492.247 452.864, 492.247 462.864, 492.247 472.864, 492.247 482.370, 492.247 482.370, 492.247 492.370, 492.247 502.370, 492.247 512.370, 492.247 522.370, 492.247 532.370, 492.247 542.370, 492.247 552.370, 492.247 562.370, 492.247 572.370, 492.247 582.370, 492.247 592.370, 492.247 602.370, 492.247 612.370, 492.247 622.370, 492.247 632.370, 492.247 640.395, 492.247 " />
            <path fill="none" stroke-width="1.5" stroke-linecap="round" stroke-opacity="1.0" stroke="rgb(0, 0, 0)" stroke-linejoin="round" d=" M 581.136, 417.185 581.136, 407.185 581.136, 397.185 581.136, 387.185 581.136, 377.185 581.136, 367.185 581.136, 357.185 581.136, 347.185 581.136, 337.185 581.136, 327.185 581.136, 317.185 581.136, 307.185 581.136, 297.185 581.136, 287.185 581.136, 277.185 581.136, 267.185 581.136, 257.185 581.136, 247.185 581.136, 237.185 581.136, 227.556 571.136, 227.556 561.136, 227.556 551.136, 227.556 541.136, 227.556 531.136, 227.556 521.136, 227.556 511.136, 227.556 501.136, 227.556 491.136, 227.556 481.136, 227.556 471.136, 227.556 461.136, 227.556 451.136, 227.556 441.136, 227.556 431.136, 227.556 421.136, 227.556 411.136, 227.556 401.136, 227.556 391.136, 227.556 381.136, 227.556 371.136, 227.556 361.136, 227.556 351.136, 227.556 344.099, 227.556 344.099, 237.556 344.099, 247.556 344.099, 257.556 344.099, 267.556 344.099, 277.556 344.099, 287.556 344.099, 297.556 344.099, 307.556 344.099, 317.556 344.099, 327.556 344.099, 337.556 344.099, 347.556 344.099, 357.556 344.099, 367.556 344.099, 377.556 344.099, 387.556 344.099, 397.556 344.099, 407.556 344.099, 417.185 354.099, 417.185 364.099, 417.185 374.099, 417.185 384.099, 417.185 394.099, 417.185 404.099, 417.185 414.099, 417.185 424.099, 417.185 434.099, 417.185 444.099, 417.185 454.099, 417.185 464.099, 417.185 474.099, 417.185 484.099, 417.185 494.099, 417.185 504.099, 417.185 514.099, 417.185 524.099, 417.185 534.099, 417.185 544.099, 417.185 554.099, 417.185 564.099, 417.185 574.099, 417.185 581.136, 417.185 " />
            <path fill="none" stroke-width="1.5" stroke-linecap="round" stroke-opacity="1.0" stroke="rgb(0, 0, 0)" stroke-linejoin="round" d=" M 482.370, 796.445 482.370, 786.445 482.370, 776.445 482.370, 766.445 482.370, 756.445 482.370, 746.445 482.370, 736.445 482.370, 726.445 482.370, 716.445 482.370, 706.445 482.370, 696.445 482.370, 686.445 482.370, 676.445 482.370, 666.445 482.370, 656.445 482.370, 646.445 482.370, 636.444 482.370, 626.445 482.370, 616.445 482.370, 606.444 482.370, 596.445 482.370, 586.445 482.370, 576.445 482.370, 566.444 482.370, 556.445 482.370, 546.445 482.370, 536.444 482.370, 526.444 482.370, 516.445 482.370, 506.445 482.370, 496.445 482.370, 492.247 482.370, 492.247 " />
            <path fill="none" stroke-width="1.5" stroke-linecap="round" stroke-opacity="1.0" stroke="rgb(0, 0, 0)" stroke-linejoin="round" d=" M 640.395, 492.247 640.395, 492.247 640.395, 502.247 640.395, 512.247 640.395, 522.247 640.395, 532.247 640.395, 542.247 640.395, 552.247 640.395, 562.247 640.395, 572.247 640.395, 582.247 640.395, 592.247 640.395, 602.247 640.395, 612.247 640.395, 622.247 640.395, 632.247 640.395, 642.247 640.395, 652.247 640.395, 662.247 640.395, 672.247 640.395, 682.247 640.395, 692.247 640.395, 702.247 640.395, 712.247 640.395, 722.247 640.395, 732.247 640.395, 742.247 640.395, 752.247 640.395, 762.247 640.395, 772.247 640.395, 782.247 640.395, 792.247 640.395, 796.445 " />
            <path fill="none" stroke-width="1.5" stroke-linecap="round" stroke-opacity="1.0" stroke="rgb(0, 0, 0)" stroke-linejoin="round" d=" M 482.370, 492.247 492.370, 492.247 502.370, 492.247 512.370, 492.247 522.370, 492.247 532.370, 492.247 542.370, 492.247 552.370, 492.247 562.370, 492.247 572.370, 492.247 582.370, 492.247 592.370, 492.247 602.370, 492.247 612.370, 492.247 622.370, 492.247 632.370, 492.247 640.395, 492.247 " />
            <path fill="none" stroke-width="1.5" stroke-linecap="round" stroke-opacity="1.0" stroke="rgb(0, 0, 0)" stroke-linejoin="round" d=" M 640.395, 492.247 650.395, 492.247 660.395, 492.247 670.395, 492.247 679.901, 492.247 " />
        </g>
    </g>
    <g id="ViewLayer_TechnicalLines.004" xmlns:inkscape="http://www.inkscape.org/namespaces/inkscape" inkscape:groupmode="lineset" inkscape:label="ViewLayer_TechnicalLines.004">
        <g xmlns:inkscape="http://www.inkscape.org/namespaces/inkscape" inkscape:groupmode="layer" id="strokes" inkscape:label="strokes">
            <path fill="none" stroke-width="1.5" stroke-linecap="round" stroke-opacity="1.0" stroke="rgb(0, 0, 0)" stroke-linejoin="round" d=" M 482.370, 796.445 482.370, 796.445 482.370, 786.445 482.370, 776.445 482.370, 766.445 482.370, 756.445 482.370, 746.445 482.370, 736.445 482.370, 726.445 482.370, 716.445 482.370, 706.445 482.370, 696.445 482.370, 686.445 482.370, 676.445 482.370, 666.445 482.370, 656.445 482.370, 646.445 482.370, 636.444 482.370, 626.445 482.370, 616.445 482.370, 606.444 482.370, 596.445 482.370, 586.445 482.370, 576.445 482.370, 566.444 482.370, 556.445 482.370, 546.445 482.370, 536.444 482.370, 526.444 482.370, 516.445 482.370, 506.445 482.370, 496.445 482.370, 492.247 482.370, 492.247 " />
            <path fill="none" stroke-width="1.5" stroke-linecap="round" stroke-opacity="1.0" stroke="rgb(0, 0, 0)" stroke-linejoin="round" d=" M 442.864, 492.247 442.864, 492.247 442.864, 502.247 442.864, 512.247 442.864, 522.247 442.864, 532.247 442.864, 542.247 442.864, 552.247 442.864, 562.247 442.864, 572.247 442.864, 582.247 442.864, 592.247 442.864, 602.247 442.864, 612.247 442.864, 622.247 442.864, 632.247 442.864, 642.247 442.864, 652.247 442.864, 662.247 442.864, 672.247 442.864, 682.247 442.864, 692.247 442.864, 702.247 442.864, 712.247 442.864, 722.247 442.864, 732.247 442.864, 742.247 442.864, 752.247 442.864, 762.247 442.864, 772.247 442.864, 782.247 442.864, 792.247 442.864, 796.445 443.244, 796.445 444.368, 796.445 446.193, 796.445 448.650, 796.445 451.643, 796.445 455.058, 796.445 458.764, 796.445 462.617, 796.445 466.471, 796.445 470.177, 796.445 473.592, 796.445 476.585, 796.445 479.041, 796.445 480.867, 796.445 481.991, 796.445 482.370, 796.445 " />
            <path fill="none" stroke-width="1.5" stroke-linecap="round" stroke-opacity="1.0" stroke="rgb(0, 0, 0)" stroke-linejoin="round" d=" M 640.395, 796.445 640.775, 796.445 641.899, 796.445 643.724, 796.445 646.181, 796.445 649.174, 796.445 652.589, 796.445 656.295, 796.445 660.148, 796.445 664.002, 796.445 667.707, 796.445 671.122, 796.445 674.116, 796.445 676.572, 796.445 678.398, 796.445 679.522, 796.445 679.901, 796.445 679.901, 786.445 679.901, 776.445 679.901, 766.445 679.901, 756.445 679.901, 746.445 679.901, 736.445 679.901, 726.445 679.901, 716.445 679.901, 706.445 679.901, 696.445 679.901, 686.445 679.901, 676.445 679.901, 666.445 679.901, 656.445 679.901, 646.445 679.901, 636.445 679.901, 626.445 679.901, 616.445 679.901, 606.444 679.901, 596.445 679.901, 586.445 679.901, 576.445 679.901, 566.445 679.901, 556.445 679.901, 546.445 679.901, 536.445 679.901, 526.445 679.901, 516.444 679.901, 506.445 679.901, 496.445 679.901, 486.445 679.901, 480.395 " />
            <path fill="none" stroke-width="1.5" stroke-linecap="round" stroke-opacity="1.0" stroke="rgb(0, 0, 0)" stroke-linejoin="round" d=" M 679.901, 492.247 679.901, 482.247 679.901, 472.247 679.901, 468.543 669.901, 468.543 659.901, 468.543 649.901, 468.543 639.901, 468.543 629.901, 468.543 619.901, 468.543 609.901, 468.543 599.901, 468.543 589.901, 468.543 579.901, 468.543 569.901, 468.543 559.901, 468.543 549.901, 468.543 539.901, 468.543 529.901, 468.543 519.901, 468.543 509.901, 468.543 499.901, 468.543 489.901, 468.543 479.901, 468.543 469.901, 468.543 459.901, 468.543 449.901, 468.543 442.864, 468.543 442.864, 468.543 442.864, 478.543 442.864, 488.543 442.864, 492.247 442.864, 492.247 442.864, 492.247 " />
            <path fill="none" stroke-width="1.5" stroke-linecap="round" stroke-opacity="1.0" stroke="rgb(0, 0, 0)" stroke-linejoin="round" d=" M 442.864, 492.247 442.864, 492.247 442.864, 492.247 452.864, 492.247 462.864, 492.247 472.864, 492.247 482.370, 492.247 482.370, 492.247 492.370, 492.247 502.370, 492.247 512.370, 492.247 522.370, 492.247 532.370, 492.247 542.370, 492.247 552.370, 492.247 562.370, 492.247 572.370, 492.247 582.370, 492.247 592.370, 492.247 602.370, 492.247 612.370, 492.247 622.370, 492.247 632.370, 492.247 640.395, 492.247 " />
            <path fill="none" stroke-width="1.5" stroke-linecap="round" stroke-opacity="1.0" stroke="rgb(0, 0, 0)" stroke-linejoin="round" d=" M 581.136, 417.185 581.136, 407.185 581.136, 397.185 581.136, 387.185 581.136, 377.185 581.136, 367.185 581.136, 357.185 581.136, 347.185 581.136, 337.185 581.136, 327.185 581.136, 317.185 581.136, 307.185 581.136, 297.185 581.136, 287.185 581.136, 277.185 581.136, 267.185 581.136, 257.185 581.136, 247.185 581.136, 237.185 581.136, 227.556 571.136, 227.556 561.136, 227.556 551.136, 227.556 541.136, 227.556 531.136, 227.556 521.136, 227.556 511.136, 227.556 501.136, 227.556 491.136, 227.556 481.136, 227.556 471.136, 227.556 461.136, 227.556 451.136, 227.556 441.136, 227.556 431.136, 227.556 421.136, 227.556 411.136, 227.556 401.136, 227.556 391.136, 227.556 381.136, 227.556 371.136, 227.556 361.136, 227.556 351.136, 227.556 344.099, 227.556 344.099, 237.556 344.099, 247.556 344.099, 257.556 344.099, 267.556 344.099, 277.556 344.099, 287.556 344.099, 297.556 344.099, 307.556 344.099, 317.556 344.099, 327.556 344.099, 337.556 344.099, 347.556 344.099, 357.556 344.099, 367.556 344.099, 377.556 344.099, 387.556 344.099, 397.556 344.099, 407.556 344.099, 417.185 354.099, 417.185 364.099, 417.185 374.099, 417.185 384.099, 417.185 394.099, 417.185 404.099, 417.185 414.099, 417.185 424.099, 417.185 434.099, 417.185 444.099, 417.185 454.099, 417.185 464.099, 417.185 474.099, 417.185 484.099, 417.185 494.099, 417.185 504.099, 417.185 514.099, 417.185 524.099, 417.185 534.099, 417.185 544.099, 417.185 554.099, 417.185 564.099, 417.185 574.099, 417.185 581.136, 417.185 " />
            <path fill="none" stroke-width="1.5" stroke-linecap="round" stroke-opacity="1.0" stroke="rgb(0, 0, 0)" stroke-linejoin="round" d=" M 482.370, 796.445 482.370, 786.445 482.370, 776.445 482.370, 766.445 482.370, 756.445 482.370, 746.445 482.370, 736.445 482.370, 726.445 482.370, 716.445 482.370, 706.445 482.370, 696.445 482.370, 686.445 482.370, 676.445 482.370, 666.445 482.370, 656.445 482.370, 646.445 482.370, 636.444 482.370, 626.445 482.370, 616.445 482.370, 606.444 482.370, 596.445 482.370, 586.445 482.370, 576.445 482.370, 566.444 482.370, 556.445 482.370, 546.445 482.370, 536.444 482.370, 526.444 482.370, 516.445 482.370, 506.445 482.370, 496.445 482.370, 492.247 482.370, 492.247 " />
            <path fill="none" stroke-width="1.5" stroke-linecap="round" stroke-opacity="1.0" stroke="rgb(0, 0, 0)" stroke-linejoin="round" d=" M 640.395, 492.247 640.395, 492.247 640.395, 502.247 640.395, 512.247 640.395, 522.247 640.395, 532.247 640.395, 542.247 640.395, 552.247 640.395, 562.247 640.395, 572.247 640.395, 582.247 640.395, 592.247 640.395, 602.247 640.395, 612.247 640.395, 622.247 640.395, 632.247 640.395, 642.247 640.395, 652.247 640.395, 662.247 640.395, 672.247 640.395, 682.247 640.395, 692.247 640.395, 702.247 640.395, 712.247 640.395, 722.247 640.395, 732.247 640.395, 742.247 640.395, 752.247 640.395, 762.247 640.395, 772.247 640.395, 782.247 640.395, 792.247 640.395, 796.445 " />
            <path fill="none" stroke-width="1.5" stroke-linecap="round" stroke-opacity="1.0" stroke="rgb(0, 0, 0)" stroke-linejoin="round" d=" M 482.370, 492.247 492.370, 492.247 502.370, 492.247 512.370, 492.247 522.370, 492.247 532.370, 492.247 542.370, 492.247 552.370, 492.247 562.370, 492.247 572.370, 492.247 582.370, 492.247 592.370, 492.247 602.370, 492.247 612.370, 492.247 622.370, 492.247 632.370, 492.247 640.395, 492.247 " />
            <path fill="none" stroke-width="1.5" stroke-linecap="round" stroke-opacity="1.0" stroke="rgb(0, 0, 0)" stroke-linejoin="round" d=" M 640.395, 492.247 650.395, 492.247 660.395, 492.247 670.395, 492.247 679.901, 492.247 " />
        </g>
    </g>
</svg>
