<?xml version='1.0' encoding='ascii'?>
<svg xmlns="http://www.w3.org/2000/svg" xmlns:inkscape="http://www.inkscape.org/namespaces/inkscape" version="1.1" width="1024" height="1024">
    <g id="ViewLayer_LineSet" inkscape:groupmode="lineset" inkscape:label="ViewLayer_LineSet">
        <g inkscape:groupmode="layer" id="strokes" inkscape:label="strokes">
            <path fill="none" stroke-width="3.0" stroke-linecap="butt" stroke-opacity="1.0" stroke="rgb(0, 0, 0)" stroke-linejoin="round" d=" M 451.480, 608.832 451.480, 608.832 451.480, 608.832 461.480, 608.832 471.480, 608.832 481.480, 608.832 491.480, 608.832 501.480, 608.832 511.480, 608.832 521.480, 608.832 531.480, 608.832 541.480, 608.832 551.480, 608.832 561.480, 608.832 572.520, 608.832 572.520, 598.832 572.520, 588.832 572.520, 584.624 " />
            <path fill="none" stroke-width="3.0" stroke-linecap="butt" stroke-opacity="1.0" stroke="rgb(0, 0, 0)" stroke-linejoin="round" d=" M 572.520, 584.624 572.520, 594.624 572.520, 604.624 572.520, 608.832 " />
            <path fill="none" stroke-width="3.0" stroke-linecap="butt" stroke-opacity="1.0" stroke="rgb(0, 0, 0)" stroke-linejoin="round" d=" M 451.480, 608.832 461.480, 608.832 471.480, 608.832 481.480, 608.832 491.480, 608.832 501.480, 608.832 511.480, 608.832 521.480, 608.832 531.480, 608.832 541.480, 608.832 551.480, 608.832 561.480, 608.832 572.520, 608.832 572.520, 608.832 " />
            <path fill="none" stroke-width="3.0" stroke-linecap="butt" stroke-opacity="1.0" stroke="rgb(0, 0, 0)" stroke-linejoin="round" d=" M 572.520, 584.624 572.520, 584.624 572.520, 584.624 " />
            <path fill="none" stroke-width="3.0" stroke-linecap="butt" stroke-opacity="1.0" stroke="rgb(0, 0, 0)" stroke-linejoin="round" d=" M 524.104, 584.624 524.104, 574.624 524.104, 564.624 524.104, 554.624 524.104, 544.624 524.104, 534.624 524.104, 524.624 524.104, 514.624 524.104, 504.624 524.104, 494.624 524.104, 484.624 524.104, 474.624 524.104, 464.624 524.104, 454.624 524.104, 444.624 524.104, 434.624 524.104, 424.624 524.104, 415.168 524.104, 415.168 518.052, 415.168 " />
            <path fill="none" stroke-width="3.0" stroke-linecap="butt" stroke-opacity="1.0" stroke="rgb(0, 0, 0)" stroke-linejoin="round" d=" M 524.104, 415.168 524.104, 425.168 524.104, 435.168 524.104, 445.168 524.104, 455.168 524.104, 465.168 524.104, 475.168 524.104, 485.168 524.104, 495.168 524.104, 505.168 524.104, 515.168 524.104, 525.168 524.104, 535.168 524.104, 545.168 524.104, 555.168 524.104, 565.168 524.104, 575.168 524.104, 584.624 " />
            <path fill="none" stroke-width="3.0" stroke-linecap="butt" stroke-opacity="1.0" stroke="rgb(0, 0, 0)" stroke-linejoin="round" d=" M 505.948, 415.168 499.896, 415.168 499.896, 425.168 499.896, 435.168 499.896, 445.168 499.896, 455.168 499.896, 465.168 499.896, 475.168 499.896, 485.168 499.896, 495.168 499.896, 505.168 499.896, 515.168 499.896, 525.168 499.896, 535.168 499.896, 545.168 499.896, 555.168 499.896, 565.168 499.896, 575.168 499.896, 584.624 " />
            <path fill="none" stroke-width="3.0" stroke-linecap="butt" stroke-opacity="1.0" stroke="rgb(0, 0, 0)" stroke-linejoin="round" d=" M 451.480, 584.624 451.480, 574.624 451.480, 564.624 451.480, 554.624 451.480, 544.624 451.480, 536.208 451.480, 536.208 441.480, 536.208 431.480, 536.208 427.272, 536.208 427.272, 546.208 427.272, 556.208 427.272, 566.208 427.272, 576.208 427.272, 586.208 427.272, 596.728 437.272, 596.728 447.272, 596.728 451.480, 596.728 " />
            <path fill="none" stroke-width="3.0" stroke-linecap="butt" stroke-opacity="1.0" stroke="rgb(0, 0, 0)" stroke-linejoin="round" d=" M 451.480, 536.208 451.480, 546.208 451.480, 556.208 451.480, 566.208 451.480, 576.208 451.480, 584.624 " />
            <path fill="none" stroke-width="3.0" stroke-linecap="butt" stroke-opacity="1.0" stroke="rgb(0, 0, 0)" stroke-linejoin="round" d=" M 572.520, 584.624 572.520, 594.624 572.520, 596.728 582.520, 596.728 592.520, 596.728 596.728, 596.728 596.728, 586.728 596.728, 576.728 596.728, 566.728 596.728, 556.728 596.728, 546.728 596.728, 536.208 " />
            <path fill="none" stroke-width="3.0" stroke-linecap="butt" stroke-opacity="1.0" stroke="rgb(0, 0, 0)" stroke-linejoin="round" d=" M 596.728, 536.208 586.728, 536.208 576.728, 536.208 572.520, 536.208 572.520, 546.208 572.520, 556.208 572.520, 566.208 572.520, 576.208 572.520, 584.624 " />
            <path fill="none" stroke-width="3.0" stroke-linecap="butt" stroke-opacity="1.0" stroke="rgb(0, 0, 0)" stroke-linejoin="round" d=" M 451.480, 596.728 451.480, 606.728 451.480, 608.832 451.480, 608.832 451.480, 608.832 451.480, 608.832 461.480, 608.832 471.480, 608.832 481.480, 608.832 491.480, 608.832 501.480, 608.832 511.480, 608.832 521.480, 608.832 531.480, 608.832 541.480, 608.832 551.480, 608.832 561.480, 608.832 572.520, 608.832 572.520, 598.832 572.520, 588.832 572.520, 584.624 572.520, 584.624 572.520, 584.624 572.520, 584.624 562.520, 584.624 552.520, 584.624 542.520, 584.624 532.520, 584.624 524.104, 584.624 524.104, 584.624 518.052, 584.624 518.052, 584.624 508.052, 584.624 505.948, 584.624 505.948, 584.624 499.896, 584.624 499.896, 584.624 489.896, 584.624 479.896, 584.624 469.896, 584.624 459.896, 584.624 451.480, 584.624 451.480, 584.624 451.480, 584.624 451.480, 594.624 451.480, 596.728 " />
            <path fill="none" stroke-width="3.0" stroke-linecap="butt" stroke-opacity="1.0" stroke="rgb(0, 0, 0)" stroke-linejoin="round" d=" M 572.520, 584.624 572.520, 584.624 572.520, 594.624 572.520, 604.624 572.520, 608.832 " />
            <path fill="none" stroke-width="3.0" stroke-linecap="butt" stroke-opacity="1.0" stroke="rgb(0, 0, 0)" stroke-linejoin="round" d=" M 451.480, 608.832 451.480, 608.832 461.480, 608.832 471.480, 608.832 481.480, 608.832 491.480, 608.832 501.480, 608.832 511.480, 608.832 521.480, 608.832 531.480, 608.832 541.480, 608.832 551.480, 608.832 561.480, 608.832 572.520, 608.832 572.520, 608.832 " />
            <path fill="none" stroke-width="3.0" stroke-linecap="butt" stroke-opacity="1.0" stroke="rgb(0, 0, 0)" stroke-linejoin="round" d=" M 518.052, 415.168 518.052, 415.168 518.052, 415.168 508.052, 415.168 505.948, 415.168 505.948, 415.168 " />
            <path fill="none" stroke-width="3.0" stroke-linecap="butt" stroke-opacity="1.0" stroke="rgb(0, 0, 0)" stroke-linejoin="round" d=" M 518.052, 415.168 518.052, 415.168 518.052, 425.168 518.052, 435.168 518.052, 445.168 518.052, 455.168 518.052, 465.168 518.052, 475.168 518.052, 485.168 518.052, 495.168 518.052, 505.168 518.052, 515.168 518.052, 525.168 518.052, 535.168 518.052, 545.168 518.052, 555.168 518.052, 565.168 518.052, 575.168 518.052, 584.624 518.052, 584.624 518.052, 594.624 518.052, 596.728 518.052, 596.728 518.052, 596.728 " />
            <path fill="none" stroke-width="3.0" stroke-linecap="butt" stroke-opacity="1.0" stroke="rgb(0, 0, 0)" stroke-linejoin="round" d=" M 505.948, 596.728 505.948, 602.780 506.064, 602.780 506.409, 602.780 506.968, 602.780 507.721, 602.780 508.638, 602.780 509.684, 602.780 510.819, 602.780 512.000, 602.780 512.000, 602.780 512.000, 602.780 512.000, 602.780 512.000, 602.780 513.181, 602.780 514.316, 602.780 515.362, 602.780 516.279, 602.780 517.032, 602.780 517.591, 602.780 517.936, 602.780 518.052, 602.780 518.052, 596.728 518.052, 596.728 518.052, 596.728 " />
            <path fill="none" stroke-width="3.0" stroke-linecap="butt" stroke-opacity="1.0" stroke="rgb(0, 0, 0)" stroke-linejoin="round" d=" M 518.052, 596.728 518.052, 596.728 518.052, 596.728 518.052, 590.676 517.936, 590.676 517.591, 590.676 517.032, 590.676 516.279, 590.676 515.362, 590.676 514.316, 590.676 513.181, 590.676 512.000, 590.676 510.819, 590.676 509.684, 590.676 508.638, 590.676 507.721, 590.676 506.968, 590.676 506.409, 590.676 506.064, 590.676 505.948, 590.676 505.948, 590.676 505.948, 590.676 505.948, 596.728 " />
            <path fill="none" stroke-width="3.0" stroke-linecap="butt" stroke-opacity="1.0" stroke="rgb(0, 0, 0)" stroke-linejoin="round" d=" M 505.948, 415.168 505.948, 425.168 505.948, 435.168 505.948, 445.168 505.948, 455.168 505.948, 465.168 505.948, 475.168 505.948, 485.168 505.948, 495.168 505.948, 505.168 505.948, 515.168 505.948, 525.168 505.948, 535.168 505.948, 545.168 505.948, 555.168 505.948, 565.168 505.948, 575.168 505.948, 584.624 505.948, 584.624 505.948, 584.624 505.948, 584.624 505.948, 590.676 " />
            <path fill="none" stroke-width="3.0" stroke-linecap="butt" stroke-opacity="1.0" stroke="rgb(0, 0, 0)" stroke-linejoin="round" d=" M 518.052, 596.728 518.052, 596.728 " />
            <path fill="none" stroke-width="3.0" stroke-linecap="butt" stroke-opacity="1.0" stroke="rgb(0, 0, 0)" stroke-linejoin="round" d=" M 518.052, 584.624 518.052, 574.624 518.052, 564.624 518.052, 554.624 518.052, 544.624 518.052, 534.624 518.052, 524.624 518.052, 514.624 518.052, 504.624 518.052, 494.624 518.052, 484.624 518.052, 474.624 518.052, 464.624 518.052, 454.624 518.052, 444.624 518.052, 434.624 518.052, 424.624 518.052, 415.168 " />
        </g>
    </g>
    <g id="ViewLayer_TechnicalLines" inkscape:groupmode="lineset" inkscape:label="ViewLayer_TechnicalLines">
        <g inkscape:groupmode="layer" id="strokes" inkscape:label="strokes">
            <path fill="none" stroke-width="3.0" stroke-linecap="butt" stroke-opacity="1.0" stroke="rgb(0, 0, 0)" stroke-linejoin="round" d=" M 451.480, 608.832 451.480, 608.832 451.480, 608.832 461.480, 608.832 471.480, 608.832 481.480, 608.832 491.480, 608.832 501.480, 608.832 511.480, 608.832 521.480, 608.832 531.480, 608.832 541.480, 608.832 551.480, 608.832 561.480, 608.832 572.520, 608.832 572.520, 598.832 572.520, 588.832 572.520, 584.624 " />
            <path fill="none" stroke-width="3.0" stroke-linecap="butt" stroke-opacity="1.0" stroke="rgb(0, 0, 0)" stroke-linejoin="round" d=" M 572.520, 584.624 572.520, 594.624 572.520, 604.624 572.520, 608.832 " />
            <path fill="none" stroke-width="3.0" stroke-linecap="butt" stroke-opacity="1.0" stroke="rgb(0, 0, 0)" stroke-linejoin="round" d=" M 451.480, 608.832 461.480, 608.832 471.480, 608.832 481.480, 608.832 491.480, 608.832 501.480, 608.832 511.480, 608.832 521.480, 608.832 531.480, 608.832 541.480, 608.832 551.480, 608.832 561.480, 608.832 572.520, 608.832 572.520, 608.832 " />
            <path fill="none" stroke-width="3.0" stroke-linecap="butt" stroke-opacity="1.0" stroke="rgb(0, 0, 0)" stroke-linejoin="round" d=" M 572.520, 584.624 572.520, 584.624 572.520, 584.624 " />
            <path fill="none" stroke-width="3.0" stroke-linecap="butt" stroke-opacity="1.0" stroke="rgb(0, 0, 0)" stroke-linejoin="round" d=" M 524.104, 584.624 524.104, 574.624 524.104, 564.624 524.104, 554.624 524.104, 544.624 524.104, 534.624 524.104, 524.624 524.104, 514.624 524.104, 504.624 524.104, 494.624 524.104, 484.624 524.104, 474.624 524.104, 464.624 524.104, 454.624 524.104, 444.624 524.104, 434.624 524.104, 424.624 524.104, 415.168 524.104, 415.168 518.052, 415.168 " />
            <path fill="none" stroke-width="3.0" stroke-linecap="butt" stroke-opacity="1.0" stroke="rgb(0, 0, 0)" stroke-linejoin="round" d=" M 524.104, 415.168 524.104, 425.168 524.104, 435.168 524.104, 445.168 524.104, 455.168 524.104, 465.168 524.104, 475.168 524.104, 485.168 524.104, 495.168 524.104, 505.168 524.104, 515.168 524.104, 525.168 524.104, 535.168 524.104, 545.168 524.104, 555.168 524.104, 565.168 524.104, 575.168 524.104, 584.624 " />
            <path fill="none" stroke-width="3.0" stroke-linecap="butt" stroke-opacity="1.0" stroke="rgb(0, 0, 0)" stroke-linejoin="round" d=" M 505.948, 415.168 499.896, 415.168 499.896, 425.168 499.896, 435.168 499.896, 445.168 499.896, 455.168 499.896, 465.168 499.896, 475.168 499.896, 485.168 499.896, 495.168 499.896, 505.168 499.896, 515.168 499.896, 525.168 499.896, 535.168 499.896, 545.168 499.896, 555.168 499.896, 565.168 499.896, 575.168 499.896, 584.624 " />
            <path fill="none" stroke-width="3.0" stroke-linecap="butt" stroke-opacity="1.0" stroke="rgb(0, 0, 0)" stroke-linejoin="round" d=" M 451.480, 584.624 451.480, 574.624 451.480, 564.624 451.480, 554.624 451.480, 544.624 451.480, 536.208 451.480, 536.208 441.480, 536.208 431.480, 536.208 427.272, 536.208 427.272, 546.208 427.272, 556.208 427.272, 566.208 427.272, 576.208 427.272, 586.208 427.272, 596.728 437.272, 596.728 447.272, 596.728 451.480, 596.728 " />
            <path fill="none" stroke-width="3.0" stroke-linecap="butt" stroke-opacity="1.0" stroke="rgb(0, 0, 0)" stroke-linejoin="round" d=" M 451.480, 536.208 451.480, 546.208 451.480, 556.208 451.480, 566.208 451.480, 576.208 451.480, 584.624 " />
            <path fill="none" stroke-width="3.0" stroke-linecap="butt" stroke-opacity="1.0" stroke="rgb(0, 0, 0)" stroke-linejoin="round" d=" M 572.520, 584.624 572.520, 594.624 572.520, 596.728 582.520, 596.728 592.520, 596.728 596.728, 596.728 596.728, 586.728 596.728, 576.728 596.728, 566.728 596.728, 556.728 596.728, 546.728 596.728, 536.208 " />
            <path fill="none" stroke-width="3.0" stroke-linecap="butt" stroke-opacity="1.0" stroke="rgb(0, 0, 0)" stroke-linejoin="round" d=" M 596.728, 536.208 586.728, 536.208 576.728, 536.208 572.520, 536.208 572.520, 546.208 572.520, 556.208 572.520, 566.208 572.520, 576.208 572.520, 584.624 " />
            <path fill="none" stroke-width="3.0" stroke-linecap="butt" stroke-opacity="1.0" stroke="rgb(0, 0, 0)" stroke-linejoin="round" d=" M 451.480, 596.728 451.480, 606.728 451.480, 608.832 451.480, 608.832 451.480, 608.832 451.480, 608.832 461.480, 608.832 471.480, 608.832 481.480, 608.832 491.480, 608.832 501.480, 608.832 511.480, 608.832 521.480, 608.832 531.480, 608.832 541.480, 608.832 551.480, 608.832 561.480, 608.832 572.520, 608.832 572.520, 598.832 572.520, 588.832 572.520, 584.624 572.520, 584.624 572.520, 584.624 572.520, 584.624 562.520, 584.624 552.520, 584.624 542.520, 584.624 532.520, 584.624 524.104, 584.624 524.104, 584.624 518.052, 584.624 518.052, 584.624 508.052, 584.624 505.948, 584.624 505.948, 584.624 499.896, 584.624 499.896, 584.624 489.896, 584.624 479.896, 584.624 469.896, 584.624 459.896, 584.624 451.480, 584.624 451.480, 584.624 451.480, 584.624 451.480, 594.624 451.480, 596.728 " />
            <path fill="none" stroke-width="3.0" stroke-linecap="butt" stroke-opacity="1.0" stroke="rgb(0, 0, 0)" stroke-linejoin="round" d=" M 572.520, 584.624 572.520, 584.624 572.520, 594.624 572.520, 604.624 572.520, 608.832 " />
            <path fill="none" stroke-width="3.0" stroke-linecap="butt" stroke-opacity="1.0" stroke="rgb(0, 0, 0)" stroke-linejoin="round" d=" M 451.480, 608.832 451.480, 608.832 461.480, 608.832 471.480, 608.832 481.480, 608.832 491.480, 608.832 501.480, 608.832 511.480, 608.832 521.480, 608.832 531.480, 608.832 541.480, 608.832 551.480, 608.832 561.480, 608.832 572.520, 608.832 572.520, 608.832 " />
            <path fill="none" stroke-width="3.0" stroke-linecap="butt" stroke-opacity="1.0" stroke="rgb(0, 0, 0)" stroke-linejoin="round" d=" M 518.052, 415.168 518.052, 415.168 518.052, 415.168 508.052, 415.168 505.948, 415.168 505.948, 415.168 " />
            <path fill="none" stroke-width="3.0" stroke-linecap="butt" stroke-opacity="1.0" stroke="rgb(0, 0, 0)" stroke-linejoin="round" d=" M 518.052, 415.168 518.052, 415.168 518.052, 425.168 518.052, 435.168 518.052, 445.168 518.052, 455.168 518.052, 465.168 518.052, 475.168 518.052, 485.168 518.052, 495.168 518.052, 505.168 518.052, 515.168 518.052, 525.168 518.052, 535.168 518.052, 545.168 518.052, 555.168 518.052, 565.168 518.052, 575.168 518.052, 584.624 518.052, 584.624 518.052, 594.624 518.052, 596.728 518.052, 596.728 518.052, 596.728 " />
            <path fill="none" stroke-width="3.0" stroke-linecap="butt" stroke-opacity="1.0" stroke="rgb(0, 0, 0)" stroke-linejoin="round" d=" M 505.948, 596.728 505.948, 602.780 506.064, 602.780 506.409, 602.780 506.968, 602.780 507.721, 602.780 508.638, 602.780 509.684, 602.780 510.819, 602.780 512.000, 602.780 512.000, 602.780 512.000, 602.780 512.000, 602.780 512.000, 602.780 513.181, 602.780 514.316, 602.780 515.362, 602.780 516.279, 602.780 517.032, 602.780 517.591, 602.780 517.936, 602.780 518.052, 602.780 518.052, 596.728 518.052, 596.728 518.052, 596.728 " />
            <path fill="none" stroke-width="3.0" stroke-linecap="butt" stroke-opacity="1.0" stroke="rgb(0, 0, 0)" stroke-linejoin="round" d=" M 518.052, 596.728 518.052, 596.728 518.052, 596.728 518.052, 590.676 517.936, 590.676 517.591, 590.676 517.032, 590.676 516.279, 590.676 515.362, 590.676 514.316, 590.676 513.181, 590.676 512.000, 590.676 510.819, 590.676 509.684, 590.676 508.638, 590.676 507.721, 590.676 506.968, 590.676 506.409, 590.676 506.064, 590.676 505.948, 590.676 505.948, 590.676 505.948, 590.676 505.948, 596.728 " />
            <path fill="none" stroke-width="3.0" stroke-linecap="butt" stroke-opacity="1.0" stroke="rgb(0, 0, 0)" stroke-linejoin="round" d=" M 505.948, 415.168 505.948, 425.168 505.948, 435.168 505.948, 445.168 505.948, 455.168 505.948, 465.168 505.948, 475.168 505.948, 485.168 505.948, 495.168 505.948, 505.168 505.948, 515.168 505.948, 525.168 505.948, 535.168 505.948, 545.168 505.948, 555.168 505.948, 565.168 505.948, 575.168 505.948, 584.624 505.948, 584.624 505.948, 584.624 505.948, 584.624 505.948, 590.676 " />
            <path fill="none" stroke-width="3.0" stroke-linecap="butt" stroke-opacity="1.0" stroke="rgb(0, 0, 0)" stroke-linejoin="round" d=" M 518.052, 596.728 518.052, 596.728 " />
            <path fill="none" stroke-width="3.0" stroke-linecap="butt" stroke-opacity="1.0" stroke="rgb(0, 0, 0)" stroke-linejoin="round" d=" M 518.052, 584.624 518.052, 574.624 518.052, 564.624 518.052, 554.624 518.052, 544.624 518.052, 534.624 518.052, 524.624 518.052, 514.624 518.052, 504.624 518.052, 494.624 518.052, 484.624 518.052, 474.624 518.052, 464.624 518.052, 454.624 518.052, 444.624 518.052, 434.624 518.052, 424.624 518.052, 415.168 " />
        </g>
    </g>
    <g id="ViewLayer_TechnicalLines.001" inkscape:groupmode="lineset" inkscape:label="ViewLayer_TechnicalLines.001">
        <g inkscape:groupmode="layer" id="strokes" inkscape:label="strokes">
            <path fill="none" stroke-width="1.5" stroke-linecap="round" stroke-opacity="1.0" stroke="rgb(0, 0, 0)" stroke-linejoin="round" d=" M 451.480, 608.832 451.480, 608.832 451.480, 608.832 461.480, 608.832 471.480, 608.832 481.480, 608.832 491.480, 608.832 501.480, 608.832 511.480, 608.832 521.480, 608.832 531.480, 608.832 541.480, 608.832 551.480, 608.832 561.480, 608.832 572.520, 608.832 572.520, 598.832 572.520, 588.832 572.520, 584.624 " />
            <path fill="none" stroke-width="1.5" stroke-linecap="round" stroke-opacity="1.0" stroke="rgb(0, 0, 0)" stroke-linejoin="round" d=" M 572.520, 584.624 572.520, 594.624 572.520, 604.624 572.520, 608.832 " />
            <path fill="none" stroke-width="1.5" stroke-linecap="round" stroke-opacity="1.0" stroke="rgb(0, 0, 0)" stroke-linejoin="round" d=" M 451.480, 608.832 461.480, 608.832 471.480, 608.832 481.480, 608.832 491.480, 608.832 501.480, 608.832 511.480, 608.832 521.480, 608.832 531.480, 608.832 541.480, 608.832 551.480, 608.832 561.480, 608.832 572.520, 608.832 572.520, 608.832 " />
            <path fill="none" stroke-width="1.5" stroke-linecap="round" stroke-opacity="1.0" stroke="rgb(0, 0, 0)" stroke-linejoin="round" d=" M 572.520, 584.624 572.520, 584.624 572.520, 584.624 " />
            <path fill="none" stroke-width="1.5" stroke-linecap="round" stroke-opacity="1.0" stroke="rgb(0, 0, 0)" stroke-linejoin="round" d=" M 524.104, 584.624 524.104, 574.624 524.104, 564.624 524.104, 554.624 524.104, 544.624 524.104, 534.624 524.104, 524.624 524.104, 514.624 524.104, 504.624 524.104, 494.624 524.104, 484.624 524.104, 474.624 524.104, 464.624 524.104, 454.624 524.104, 444.624 524.104, 434.624 524.104, 424.624 524.104, 415.168 524.104, 415.168 518.052, 415.168 " />
            <path fill="none" stroke-width="1.5" stroke-linecap="round" stroke-opacity="1.0" stroke="rgb(0, 0, 0)" stroke-linejoin="round" d=" M 524.104, 415.168 524.104, 425.168 524.104, 435.168 524.104, 445.168 524.104, 455.168 524.104, 465.168 524.104, 475.168 524.104, 485.168 524.104, 495.168 524.104, 505.168 524.104, 515.168 524.104, 525.168 524.104, 535.168 524.104, 545.168 524.104, 555.168 524.104, 565.168 524.104, 575.168 524.104, 584.624 " />
            <path fill="none" stroke-width="1.5" stroke-linecap="round" stroke-opacity="1.0" stroke="rgb(0, 0, 0)" stroke-linejoin="round" d=" M 505.948, 415.168 499.896, 415.168 499.896, 425.168 499.896, 435.168 499.896, 445.168 499.896, 455.168 499.896, 465.168 499.896, 475.168 499.896, 485.168 499.896, 495.168 499.896, 505.168 499.896, 515.168 499.896, 525.168 499.896, 535.168 499.896, 545.168 499.896, 555.168 499.896, 565.168 499.896, 575.168 499.896, 584.624 " />
            <path fill="none" stroke-width="1.5" stroke-linecap="round" stroke-opacity="1.0" stroke="rgb(0, 0, 0)" stroke-linejoin="round" d=" M 451.480, 584.624 451.480, 574.624 451.480, 564.624 451.480, 554.624 451.480, 544.624 451.480, 536.208 451.480, 536.208 441.480, 536.208 431.480, 536.208 427.272, 536.208 427.272, 546.208 427.272, 556.208 427.272, 566.208 427.272, 576.208 427.272, 586.208 427.272, 596.728 437.272, 596.728 447.272, 596.728 451.480, 596.728 " />
            <path fill="none" stroke-width="1.5" stroke-linecap="round" stroke-opacity="1.0" stroke="rgb(0, 0, 0)" stroke-linejoin="round" d=" M 451.480, 536.208 451.480, 546.208 451.480, 556.208 451.480, 566.208 451.480, 576.208 451.480, 584.624 " />
            <path fill="none" stroke-width="1.5" stroke-linecap="round" stroke-opacity="1.0" stroke="rgb(0, 0, 0)" stroke-linejoin="round" d=" M 572.520, 584.624 572.520, 594.624 572.520, 596.728 582.520, 596.728 592.520, 596.728 596.728, 596.728 596.728, 586.728 596.728, 576.728 596.728, 566.728 596.728, 556.728 596.728, 546.728 596.728, 536.208 " />
            <path fill="none" stroke-width="1.5" stroke-linecap="round" stroke-opacity="1.0" stroke="rgb(0, 0, 0)" stroke-linejoin="round" d=" M 596.728, 536.208 586.728, 536.208 576.728, 536.208 572.520, 536.208 572.520, 546.208 572.520, 556.208 572.520, 566.208 572.520, 576.208 572.520, 584.624 " />
            <path fill="none" stroke-width="1.5" stroke-linecap="round" stroke-opacity="1.0" stroke="rgb(0, 0, 0)" stroke-linejoin="round" d=" M 451.480, 596.728 451.480, 606.728 451.480, 608.832 451.480, 608.832 451.480, 608.832 451.480, 608.832 461.480, 608.832 471.480, 608.832 481.480, 608.832 491.480, 608.832 501.480, 608.832 511.480, 608.832 521.480, 608.832 531.480, 608.832 541.480, 608.832 551.480, 608.832 561.480, 608.832 572.520, 608.832 572.520, 598.832 572.520, 588.832 572.520, 584.624 572.520, 584.624 572.520, 584.624 572.520, 584.624 562.520, 584.624 552.520, 584.624 542.520, 584.624 532.520, 584.624 524.104, 584.624 524.104, 584.624 518.052, 584.624 518.052, 584.624 508.052, 584.624 505.948, 584.624 505.948, 584.624 499.896, 584.624 499.896, 584.624 489.896, 584.624 479.896, 584.624 469.896, 584.624 459.896, 584.624 451.480, 584.624 451.480, 584.624 451.480, 584.624 451.480, 594.624 451.480, 596.728 " />
            <path fill="none" stroke-width="1.5" stroke-linecap="round" stroke-opacity="1.0" stroke="rgb(0, 0, 0)" stroke-linejoin="round" d=" M 572.520, 584.624 572.520, 584.624 572.520, 594.624 572.520, 604.624 572.520, 608.832 " />
            <path fill="none" stroke-width="1.5" stroke-linecap="round" stroke-opacity="1.0" stroke="rgb(0, 0, 0)" stroke-linejoin="round" d=" M 451.480, 608.832 451.480, 608.832 461.480, 608.832 471.480, 608.832 481.480, 608.832 491.480, 608.832 501.480, 608.832 511.480, 608.832 521.480, 608.832 531.480, 608.832 541.480, 608.832 551.480, 608.832 561.480, 608.832 572.520, 608.832 572.520, 608.832 " />
            <path fill="none" stroke-width="1.5" stroke-linecap="round" stroke-opacity="1.0" stroke="rgb(0, 0, 0)" stroke-linejoin="round" d=" M 518.052, 415.168 518.052, 415.168 518.052, 415.168 508.052, 415.168 505.948, 415.168 505.948, 415.168 " />
            <path fill="none" stroke-width="1.5" stroke-linecap="round" stroke-opacity="1.0" stroke="rgb(0, 0, 0)" stroke-linejoin="round" d=" M 518.052, 415.168 518.052, 415.168 518.052, 425.168 518.052, 435.168 518.052, 445.168 518.052, 455.168 518.052, 465.168 518.052, 475.168 518.052, 485.168 518.052, 495.168 518.052, 505.168 518.052, 515.168 518.052, 525.168 518.052, 535.168 518.052, 545.168 518.052, 555.168 518.052, 565.168 518.052, 575.168 518.052, 584.624 518.052, 584.624 518.052, 594.624 518.052, 596.728 518.052, 596.728 518.052, 596.728 " />
            <path fill="none" stroke-width="1.5" stroke-linecap="round" stroke-opacity="1.0" stroke="rgb(0, 0, 0)" stroke-linejoin="round" d=" M 505.948, 596.728 505.948, 602.780 506.064, 602.780 506.409, 602.780 506.968, 602.780 507.721, 602.780 508.638, 602.780 509.684, 602.780 510.819, 602.780 512.000, 602.780 512.000, 602.780 512.000, 602.780 512.000, 602.780 512.000, 602.780 513.181, 602.780 514.316, 602.780 515.362, 602.780 516.279, 602.780 517.032, 602.780 517.591, 602.780 517.936, 602.780 518.052, 602.780 518.052, 596.728 518.052, 596.728 518.052, 596.728 " />
            <path fill="none" stroke-width="1.5" stroke-linecap="round" stroke-opacity="1.0" stroke="rgb(0, 0, 0)" stroke-linejoin="round" d=" M 518.052, 596.728 518.052, 596.728 518.052, 596.728 518.052, 590.676 517.936, 590.676 517.591, 590.676 517.032, 590.676 516.279, 590.676 515.362, 590.676 514.316, 590.676 513.181, 590.676 512.000, 590.676 510.819, 590.676 509.684, 590.676 508.638, 590.676 507.721, 590.676 506.968, 590.676 506.409, 590.676 506.064, 590.676 505.948, 590.676 505.948, 590.676 505.948, 590.676 505.948, 596.728 " />
            <path fill="none" stroke-width="1.5" stroke-linecap="round" stroke-opacity="1.0" stroke="rgb(0, 0, 0)" stroke-linejoin="round" d=" M 505.948, 415.168 505.948, 425.168 505.948, 435.168 505.948, 445.168 505.948, 455.168 505.948, 465.168 505.948, 475.168 505.948, 485.168 505.948, 495.168 505.948, 505.168 505.948, 515.168 505.948, 525.168 505.948, 535.168 505.948, 545.168 505.948, 555.168 505.948, 565.168 505.948, 575.168 505.948, 584.624 505.948, 584.624 505.948, 584.624 505.948, 584.624 505.948, 590.676 " />
            <path fill="none" stroke-width="1.5" stroke-linecap="round" stroke-opacity="1.0" stroke="rgb(0, 0, 0)" stroke-linejoin="round" d=" M 518.052, 596.728 518.052, 596.728 " />
            <path fill="none" stroke-width="1.5" stroke-linecap="round" stroke-opacity="1.0" stroke="rgb(0, 0, 0)" stroke-linejoin="round" d=" M 518.052, 584.624 518.052, 574.624 518.052, 564.624 518.052, 554.624 518.052, 544.624 518.052, 534.624 518.052, 524.624 518.052, 514.624 518.052, 504.624 518.052, 494.624 518.052, 484.624 518.052, 474.624 518.052, 464.624 518.052, 454.624 518.052, 444.624 518.052, 434.624 518.052, 424.624 518.052, 415.168 " />
        </g>
    </g>
    <g id="ViewLayer_TechnicalLines.002" inkscape:groupmode="lineset" inkscape:label="ViewLayer_TechnicalLines.002">
        <g inkscape:groupmode="layer" id="strokes" inkscape:label="strokes">
            <path fill="none" stroke-width="1.5" stroke-linecap="round" stroke-opacity="1.0" stroke="rgb(0, 0, 0)" stroke-linejoin="round" d=" M 451.480, 608.832 451.480, 608.832 451.480, 608.832 461.480, 608.832 471.480, 608.832 481.480, 608.832 491.480, 608.832 501.480, 608.832 511.480, 608.832 521.480, 608.832 531.480, 608.832 541.480, 608.832 551.480, 608.832 561.480, 608.832 572.520, 608.832 572.520, 598.832 572.520, 588.832 572.520, 584.624 " />
            <path fill="none" stroke-width="1.5" stroke-linecap="round" stroke-opacity="1.0" stroke="rgb(0, 0, 0)" stroke-linejoin="round" d=" M 572.520, 584.624 572.520, 594.624 572.520, 604.624 572.520, 608.832 " />
            <path fill="none" stroke-width="1.5" stroke-linecap="round" stroke-opacity="1.0" stroke="rgb(0, 0, 0)" stroke-linejoin="round" d=" M 451.480, 608.832 461.480, 608.832 471.480, 608.832 481.480, 608.832 491.480, 608.832 501.480, 608.832 511.480, 608.832 521.480, 608.832 531.480, 608.832 541.480, 608.832 551.480, 608.832 561.480, 608.832 572.520, 608.832 572.520, 608.832 " />
            <path fill="none" stroke-width="1.5" stroke-linecap="round" stroke-opacity="1.0" stroke="rgb(0, 0, 0)" stroke-linejoin="round" d=" M 572.520, 584.624 572.520, 584.624 572.520, 584.624 " />
            <path fill="none" stroke-width="1.5" stroke-linecap="round" stroke-opacity="1.0" stroke="rgb(0, 0, 0)" stroke-linejoin="round" d=" M 524.104, 584.624 524.104, 574.624 524.104, 564.624 524.104, 554.624 524.104, 544.624 524.104, 534.624 524.104, 524.624 524.104, 514.624 524.104, 504.624 524.104, 494.624 524.104, 484.624 524.104, 474.624 524.104, 464.624 524.104, 454.624 524.104, 444.624 524.104, 434.624 524.104, 424.624 524.104, 415.168 524.104, 415.168 518.052, 415.168 " />
            <path fill="none" stroke-width="1.5" stroke-linecap="round" stroke-opacity="1.0" stroke="rgb(0, 0, 0)" stroke-linejoin="round" d=" M 524.104, 415.168 524.104, 425.168 524.104, 435.168 524.104, 445.168 524.104, 455.168 524.104, 465.168 524.104, 475.168 524.104, 485.168 524.104, 495.168 524.104, 505.168 524.104, 515.168 524.104, 525.168 524.104, 535.168 524.104, 545.168 524.104, 555.168 524.104, 565.168 524.104, 575.168 524.104, 584.624 " />
            <path fill="none" stroke-width="1.5" stroke-linecap="round" stroke-opacity="1.0" stroke="rgb(0, 0, 0)" stroke-linejoin="round" d=" M 505.948, 415.168 499.896, 415.168 499.896, 425.168 499.896, 435.168 499.896, 445.168 499.896, 455.168 499.896, 465.168 499.896, 475.168 499.896, 485.168 499.896, 495.168 499.896, 505.168 499.896, 515.168 499.896, 525.168 499.896, 535.168 499.896, 545.168 499.896, 555.168 499.896, 565.168 499.896, 575.168 499.896, 584.624 " />
            <path fill="none" stroke-width="1.5" stroke-linecap="round" stroke-opacity="1.0" stroke="rgb(0, 0, 0)" stroke-linejoin="round" d=" M 451.480, 584.624 451.480, 574.624 451.480, 564.624 451.480, 554.624 451.480, 544.624 451.480, 536.208 451.480, 536.208 441.480, 536.208 431.480, 536.208 427.272, 536.208 427.272, 546.208 427.272, 556.208 427.272, 566.208 427.272, 576.208 427.272, 586.208 427.272, 596.728 437.272, 596.728 447.272, 596.728 451.480, 596.728 " />
            <path fill="none" stroke-width="1.5" stroke-linecap="round" stroke-opacity="1.0" stroke="rgb(0, 0, 0)" stroke-linejoin="round" d=" M 451.480, 536.208 451.480, 546.208 451.480, 556.208 451.480, 566.208 451.480, 576.208 451.480, 584.624 " />
            <path fill="none" stroke-width="1.5" stroke-linecap="round" stroke-opacity="1.0" stroke="rgb(0, 0, 0)" stroke-linejoin="round" d=" M 572.520, 584.624 572.520, 594.624 572.520, 596.728 582.520, 596.728 592.520, 596.728 596.728, 596.728 596.728, 586.728 596.728, 576.728 596.728, 566.728 596.728, 556.728 596.728, 546.728 596.728, 536.208 " />
            <path fill="none" stroke-width="1.5" stroke-linecap="round" stroke-opacity="1.0" stroke="rgb(0, 0, 0)" stroke-linejoin="round" d=" M 596.728, 536.208 586.728, 536.208 576.728, 536.208 572.520, 536.208 572.520, 546.208 572.520, 556.208 572.520, 566.208 572.520, 576.208 572.520, 584.624 " />
            <path fill="none" stroke-width="1.5" stroke-linecap="round" stroke-opacity="1.0" stroke="rgb(0, 0, 0)" stroke-linejoin="round" d=" M 451.480, 596.728 451.480, 606.728 451.480, 608.832 451.480, 608.832 451.480, 608.832 451.480, 608.832 461.480, 608.832 471.480, 608.832 481.480, 608.832 491.480, 608.832 501.480, 608.832 511.480, 608.832 521.480, 608.832 531.480, 608.832 541.480, 608.832 551.480, 608.832 561.480, 608.832 572.520, 608.832 572.520, 598.832 572.520, 588.832 572.520, 584.624 572.520, 584.624 572.520, 584.624 572.520, 584.624 562.520, 584.624 552.520, 584.624 542.520, 584.624 532.520, 584.624 524.104, 584.624 524.104, 584.624 518.052, 584.624 518.052, 584.624 508.052, 584.624 505.948, 584.624 505.948, 584.624 499.896, 584.624 499.896, 584.624 489.896, 584.624 479.896, 584.624 469.896, 584.624 459.896, 584.624 451.480, 584.624 451.480, 584.624 451.480, 584.624 451.480, 594.624 451.480, 596.728 " />
            <path fill="none" stroke-width="1.5" stroke-linecap="round" stroke-opacity="1.0" stroke="rgb(0, 0, 0)" stroke-linejoin="round" d=" M 572.520, 584.624 572.520, 584.624 572.520, 594.624 572.520, 604.624 572.520, 608.832 " />
            <path fill="none" stroke-width="1.5" stroke-linecap="round" stroke-opacity="1.0" stroke="rgb(0, 0, 0)" stroke-linejoin="round" d=" M 451.480, 608.832 451.480, 608.832 461.480, 608.832 471.480, 608.832 481.480, 608.832 491.480, 608.832 501.480, 608.832 511.480, 608.832 521.480, 608.832 531.480, 608.832 541.480, 608.832 551.480, 608.832 561.480, 608.832 572.520, 608.832 572.520, 608.832 " />
            <path fill="none" stroke-width="1.5" stroke-linecap="round" stroke-opacity="1.0" stroke="rgb(0, 0, 0)" stroke-linejoin="round" d=" M 518.052, 415.168 518.052, 415.168 518.052, 415.168 508.052, 415.168 505.948, 415.168 505.948, 415.168 " />
            <path fill="none" stroke-width="1.5" stroke-linecap="round" stroke-opacity="1.0" stroke="rgb(0, 0, 0)" stroke-linejoin="round" d=" M 518.052, 415.168 518.052, 415.168 518.052, 425.168 518.052, 435.168 518.052, 445.168 518.052, 455.168 518.052, 465.168 518.052, 475.168 518.052, 485.168 518.052, 495.168 518.052, 505.168 518.052, 515.168 518.052, 525.168 518.052, 535.168 518.052, 545.168 518.052, 555.168 518.052, 565.168 518.052, 575.168 518.052, 584.624 518.052, 584.624 518.052, 594.624 518.052, 596.728 518.052, 596.728 518.052, 596.728 " />
            <path fill="none" stroke-width="1.5" stroke-linecap="round" stroke-opacity="1.0" stroke="rgb(0, 0, 0)" stroke-linejoin="round" d=" M 505.948, 596.728 505.948, 602.780 506.064, 602.780 506.409, 602.780 506.968, 602.780 507.721, 602.780 508.638, 602.780 509.684, 602.780 510.819, 602.780 512.000, 602.780 512.000, 602.780 512.000, 602.780 512.000, 602.780 512.000, 602.780 513.181, 602.780 514.316, 602.780 515.362, 602.780 516.279, 602.780 517.032, 602.780 517.591, 602.780 517.936, 602.780 518.052, 602.780 518.052, 596.728 518.052, 596.728 518.052, 596.728 " />
            <path fill="none" stroke-width="1.5" stroke-linecap="round" stroke-opacity="1.0" stroke="rgb(0, 0, 0)" stroke-linejoin="round" d=" M 518.052, 596.728 518.052, 596.728 518.052, 596.728 518.052, 590.676 517.936, 590.676 517.591, 590.676 517.032, 590.676 516.279, 590.676 515.362, 590.676 514.316, 590.676 513.181, 590.676 512.000, 590.676 510.819, 590.676 509.684, 590.676 508.638, 590.676 507.721, 590.676 506.968, 590.676 506.409, 590.676 506.064, 590.676 505.948, 590.676 505.948, 590.676 505.948, 590.676 505.948, 596.728 " />
            <path fill="none" stroke-width="1.5" stroke-linecap="round" stroke-opacity="1.0" stroke="rgb(0, 0, 0)" stroke-linejoin="round" d=" M 505.948, 415.168 505.948, 425.168 505.948, 435.168 505.948, 445.168 505.948, 455.168 505.948, 465.168 505.948, 475.168 505.948, 485.168 505.948, 495.168 505.948, 505.168 505.948, 515.168 505.948, 525.168 505.948, 535.168 505.948, 545.168 505.948, 555.168 505.948, 565.168 505.948, 575.168 505.948, 584.624 505.948, 584.624 505.948, 584.624 505.948, 584.624 505.948, 590.676 " />
            <path fill="none" stroke-width="1.5" stroke-linecap="round" stroke-opacity="1.0" stroke="rgb(0, 0, 0)" stroke-linejoin="round" d=" M 518.052, 596.728 518.052, 596.728 " />
            <path fill="none" stroke-width="1.5" stroke-linecap="round" stroke-opacity="1.0" stroke="rgb(0, 0, 0)" stroke-linejoin="round" d=" M 518.052, 584.624 518.052, 574.624 518.052, 564.624 518.052, 554.624 518.052, 544.624 518.052, 534.624 518.052, 524.624 518.052, 514.624 518.052, 504.624 518.052, 494.624 518.052, 484.624 518.052, 474.624 518.052, 464.624 518.052, 454.624 518.052, 444.624 518.052, 434.624 518.052, 424.624 518.052, 415.168 " />
        </g>
    </g>
    <g id="ViewLayer_TechnicalLines.003" inkscape:groupmode="lineset" inkscape:label="ViewLayer_TechnicalLines.003">
        <g inkscape:groupmode="layer" id="strokes" inkscape:label="strokes">
            <path fill="none" stroke-width="1.5" stroke-linecap="round" stroke-opacity="1.0" stroke="rgb(0, 0, 0)" stroke-linejoin="round" d=" M 451.480, 608.832 451.480, 608.832 451.480, 608.832 461.480, 608.832 471.480, 608.832 481.480, 608.832 491.480, 608.832 501.480, 608.832 511.480, 608.832 521.480, 608.832 531.480, 608.832 541.480, 608.832 551.480, 608.832 561.480, 608.832 572.520, 608.832 572.520, 598.832 572.520, 588.832 572.520, 584.624 " />
            <path fill="none" stroke-width="1.5" stroke-linecap="round" stroke-opacity="1.0" stroke="rgb(0, 0, 0)" stroke-linejoin="round" d=" M 572.520, 584.624 572.520, 594.624 572.520, 604.624 572.520, 608.832 " />
            <path fill="none" stroke-width="1.5" stroke-linecap="round" stroke-opacity="1.0" stroke="rgb(0, 0, 0)" stroke-linejoin="round" d=" M 451.480, 608.832 461.480, 608.832 471.480, 608.832 481.480, 608.832 491.480, 608.832 501.480, 608.832 511.480, 608.832 521.480, 608.832 531.480, 608.832 541.480, 608.832 551.480, 608.832 561.480, 608.832 572.520, 608.832 572.520, 608.832 " />
            <path fill="none" stroke-width="1.5" stroke-linecap="round" stroke-opacity="1.0" stroke="rgb(0, 0, 0)" stroke-linejoin="round" d=" M 572.520, 584.624 572.520, 584.624 572.520, 584.624 " />
            <path fill="none" stroke-width="1.5" stroke-linecap="round" stroke-opacity="1.0" stroke="rgb(0, 0, 0)" stroke-linejoin="round" d=" M 524.104, 584.624 524.104, 574.624 524.104, 564.624 524.104, 554.624 524.104, 544.624 524.104, 534.624 524.104, 524.624 524.104, 514.624 524.104, 504.624 524.104, 494.624 524.104, 484.624 524.104, 474.624 524.104, 464.624 524.104, 454.624 524.104, 444.624 524.104, 434.624 524.104, 424.624 524.104, 415.168 524.104, 415.168 518.052, 415.168 " />
            <path fill="none" stroke-width="1.5" stroke-linecap="round" stroke-opacity="1.0" stroke="rgb(0, 0, 0)" stroke-linejoin="round" d=" M 524.104, 415.168 524.104, 425.168 524.104, 435.168 524.104, 445.168 524.104, 455.168 524.104, 465.168 524.104, 475.168 524.104, 485.168 524.104, 495.168 524.104, 505.168 524.104, 515.168 524.104, 525.168 524.104, 535.168 524.104, 545.168 524.104, 555.168 524.104, 565.168 524.104, 575.168 524.104, 584.624 " />
            <path fill="none" stroke-width="1.5" stroke-linecap="round" stroke-opacity="1.0" stroke="rgb(0, 0, 0)" stroke-linejoin="round" d=" M 505.948, 415.168 499.896, 415.168 499.896, 425.168 499.896, 435.168 499.896, 445.168 499.896, 455.168 499.896, 465.168 499.896, 475.168 499.896, 485.168 499.896, 495.168 499.896, 505.168 499.896, 515.168 499.896, 525.168 499.896, 535.168 499.896, 545.168 499.896, 555.168 499.896, 565.168 499.896, 575.168 499.896, 584.624 " />
            <path fill="none" stroke-width="1.5" stroke-linecap="round" stroke-opacity="1.0" stroke="rgb(0, 0, 0)" stroke-linejoin="round" d=" M 451.480, 584.624 451.480, 574.624 451.480, 564.624 451.480, 554.624 451.480, 544.624 451.480, 536.208 451.480, 536.208 441.480, 536.208 431.480, 536.208 427.272, 536.208 427.272, 546.208 427.272, 556.208 427.272, 566.208 427.272, 576.208 427.272, 586.208 427.272, 596.728 437.272, 596.728 447.272, 596.728 451.480, 596.728 " />
            <path fill="none" stroke-width="1.5" stroke-linecap="round" stroke-opacity="1.0" stroke="rgb(0, 0, 0)" stroke-linejoin="round" d=" M 451.480, 536.208 451.480, 546.208 451.480, 556.208 451.480, 566.208 451.480, 576.208 451.480, 584.624 " />
            <path fill="none" stroke-width="1.5" stroke-linecap="round" stroke-opacity="1.0" stroke="rgb(0, 0, 0)" stroke-linejoin="round" d=" M 572.520, 584.624 572.520, 594.624 572.520, 596.728 582.520, 596.728 592.520, 596.728 596.728, 596.728 596.728, 586.728 596.728, 576.728 596.728, 566.728 596.728, 556.728 596.728, 546.728 596.728, 536.208 " />
            <path fill="none" stroke-width="1.5" stroke-linecap="round" stroke-opacity="1.0" stroke="rgb(0, 0, 0)" stroke-linejoin="round" d=" M 596.728, 536.208 586.728, 536.208 576.728, 536.208 572.520, 536.208 572.520, 546.208 572.520, 556.208 572.520, 566.208 572.520, 576.208 572.520, 584.624 " />
            <path fill="none" stroke-width="1.5" stroke-linecap="round" stroke-opacity="1.0" stroke="rgb(0, 0, 0)" stroke-linejoin="round" d=" M 451.480, 596.728 451.480, 606.728 451.480, 608.832 451.480, 608.832 451.480, 608.832 451.480, 608.832 461.480, 608.832 471.480, 608.832 481.480, 608.832 491.480, 608.832 501.480, 608.832 511.480, 608.832 521.480, 608.832 531.480, 608.832 541.480, 608.832 551.480, 608.832 561.480, 608.832 572.520, 608.832 572.520, 598.832 572.520, 588.832 572.520, 584.624 572.520, 584.624 572.520, 584.624 572.520, 584.624 562.520, 584.624 552.520, 584.624 542.520, 584.624 532.520, 584.624 524.104, 584.624 524.104, 584.624 518.052, 584.624 518.052, 584.624 508.052, 584.624 505.948, 584.624 505.948, 584.624 499.896, 584.624 499.896, 584.624 489.896, 584.624 479.896, 584.624 469.896, 584.624 459.896, 584.624 451.480, 584.624 451.480, 584.624 451.480, 584.624 451.480, 594.624 451.480, 596.728 " />
            <path fill="none" stroke-width="1.5" stroke-linecap="round" stroke-opacity="1.0" stroke="rgb(0, 0, 0)" stroke-linejoin="round" d=" M 572.520, 584.624 572.520, 584.624 572.520, 594.624 572.520, 604.624 572.520, 608.832 " />
            <path fill="none" stroke-width="1.5" stroke-linecap="round" stroke-opacity="1.0" stroke="rgb(0, 0, 0)" stroke-linejoin="round" d=" M 451.480, 608.832 451.480, 608.832 461.480, 608.832 471.480, 608.832 481.480, 608.832 491.480, 608.832 501.480, 608.832 511.480, 608.832 521.480, 608.832 531.480, 608.832 541.480, 608.832 551.480, 608.832 561.480, 608.832 572.520, 608.832 572.520, 608.832 " />
            <path fill="none" stroke-width="1.5" stroke-linecap="round" stroke-opacity="1.0" stroke="rgb(0, 0, 0)" stroke-linejoin="round" d=" M 518.052, 415.168 518.052, 415.168 518.052, 415.168 508.052, 415.168 505.948, 415.168 505.948, 415.168 " />
            <path fill="none" stroke-width="1.5" stroke-linecap="round" stroke-opacity="1.0" stroke="rgb(0, 0, 0)" stroke-linejoin="round" d=" M 518.052, 415.168 518.052, 415.168 518.052, 425.168 518.052, 435.168 518.052, 445.168 518.052, 455.168 518.052, 465.168 518.052, 475.168 518.052, 485.168 518.052, 495.168 518.052, 505.168 518.052, 515.168 518.052, 525.168 518.052, 535.168 518.052, 545.168 518.052, 555.168 518.052, 565.168 518.052, 575.168 518.052, 584.624 518.052, 584.624 518.052, 594.624 518.052, 596.728 518.052, 596.728 518.052, 596.728 " />
            <path fill="none" stroke-width="1.5" stroke-linecap="round" stroke-opacity="1.0" stroke="rgb(0, 0, 0)" stroke-linejoin="round" d=" M 505.948, 596.728 505.948, 602.780 506.064, 602.780 506.409, 602.780 506.968, 602.780 507.721, 602.780 508.638, 602.780 509.684, 602.780 510.819, 602.780 512.000, 602.780 512.000, 602.780 512.000, 602.780 512.000, 602.780 512.000, 602.780 513.181, 602.780 514.316, 602.780 515.362, 602.780 516.279, 602.780 517.032, 602.780 517.591, 602.780 517.936, 602.780 518.052, 602.780 518.052, 596.728 518.052, 596.728 518.052, 596.728 " />
            <path fill="none" stroke-width="1.5" stroke-linecap="round" stroke-opacity="1.0" stroke="rgb(0, 0, 0)" stroke-linejoin="round" d=" M 518.052, 596.728 518.052, 596.728 518.052, 596.728 518.052, 590.676 517.936, 590.676 517.591, 590.676 517.032, 590.676 516.279, 590.676 515.362, 590.676 514.316, 590.676 513.181, 590.676 512.000, 590.676 510.819, 590.676 509.684, 590.676 508.638, 590.676 507.721, 590.676 506.968, 590.676 506.409, 590.676 506.064, 590.676 505.948, 590.676 505.948, 590.676 505.948, 590.676 505.948, 596.728 " />
            <path fill="none" stroke-width="1.5" stroke-linecap="round" stroke-opacity="1.0" stroke="rgb(0, 0, 0)" stroke-linejoin="round" d=" M 505.948, 415.168 505.948, 425.168 505.948, 435.168 505.948, 445.168 505.948, 455.168 505.948, 465.168 505.948, 475.168 505.948, 485.168 505.948, 495.168 505.948, 505.168 505.948, 515.168 505.948, 525.168 505.948, 535.168 505.948, 545.168 505.948, 555.168 505.948, 565.168 505.948, 575.168 505.948, 584.624 505.948, 584.624 505.948, 584.624 505.948, 584.624 505.948, 590.676 " />
            <path fill="none" stroke-width="1.5" stroke-linecap="round" stroke-opacity="1.0" stroke="rgb(0, 0, 0)" stroke-linejoin="round" d=" M 518.052, 596.728 518.052, 596.728 " />
            <path fill="none" stroke-width="1.5" stroke-linecap="round" stroke-opacity="1.0" stroke="rgb(0, 0, 0)" stroke-linejoin="round" d=" M 518.052, 584.624 518.052, 574.624 518.052, 564.624 518.052, 554.624 518.052, 544.624 518.052, 534.624 518.052, 524.624 518.052, 514.624 518.052, 504.624 518.052, 494.624 518.052, 484.624 518.052, 474.624 518.052, 464.624 518.052, 454.624 518.052, 444.624 518.052, 434.624 518.052, 424.624 518.052, 415.168 " />
        </g>
    </g>
    <g id="ViewLayer_TechnicalLines.004" xmlns:inkscape="http://www.inkscape.org/namespaces/inkscape" inkscape:groupmode="lineset" inkscape:label="ViewLayer_TechnicalLines.004">
        <g xmlns:inkscape="http://www.inkscape.org/namespaces/inkscape" inkscape:groupmode="layer" id="strokes" inkscape:label="strokes">
            <path fill="none" stroke-width="1.5" stroke-linecap="round" stroke-opacity="1.0" stroke="rgb(0, 0, 0)" stroke-linejoin="round" d=" M 451.480, 608.832 451.480, 608.832 451.480, 608.832 461.480, 608.832 471.480, 608.832 481.480, 608.832 491.480, 608.832 501.480, 608.832 511.480, 608.832 521.480, 608.832 531.480, 608.832 541.480, 608.832 551.480, 608.832 561.480, 608.832 572.520, 608.832 572.520, 598.832 572.520, 588.832 572.520, 584.624 " />
            <path fill="none" stroke-width="1.5" stroke-linecap="round" stroke-opacity="1.0" stroke="rgb(0, 0, 0)" stroke-linejoin="round" d=" M 572.520, 584.624 572.520, 594.624 572.520, 604.624 572.520, 608.832 " />
            <path fill="none" stroke-width="1.5" stroke-linecap="round" stroke-opacity="1.0" stroke="rgb(0, 0, 0)" stroke-linejoin="round" d=" M 451.480, 608.832 461.480, 608.832 471.480, 608.832 481.480, 608.832 491.480, 608.832 501.480, 608.832 511.480, 608.832 521.480, 608.832 531.480, 608.832 541.480, 608.832 551.480, 608.832 561.480, 608.832 572.520, 608.832 572.520, 608.832 " />
            <path fill="none" stroke-width="1.5" stroke-linecap="round" stroke-opacity="1.0" stroke="rgb(0, 0, 0)" stroke-linejoin="round" d=" M 572.520, 584.624 572.520, 584.624 572.520, 584.624 " />
            <path fill="none" stroke-width="1.5" stroke-linecap="round" stroke-opacity="1.0" stroke="rgb(0, 0, 0)" stroke-linejoin="round" d=" M 524.104, 584.624 524.104, 574.624 524.104, 564.624 524.104, 554.624 524.104, 544.624 524.104, 534.624 524.104, 524.624 524.104, 514.624 524.104, 504.624 524.104, 494.624 524.104, 484.624 524.104, 474.624 524.104, 464.624 524.104, 454.624 524.104, 444.624 524.104, 434.624 524.104, 424.624 524.104, 415.168 524.104, 415.168 518.052, 415.168 " />
            <path fill="none" stroke-width="1.5" stroke-linecap="round" stroke-opacity="1.0" stroke="rgb(0, 0, 0)" stroke-linejoin="round" d=" M 524.104, 415.168 524.104, 425.168 524.104, 435.168 524.104, 445.168 524.104, 455.168 524.104, 465.168 524.104, 475.168 524.104, 485.168 524.104, 495.168 524.104, 505.168 524.104, 515.168 524.104, 525.168 524.104, 535.168 524.104, 545.168 524.104, 555.168 524.104, 565.168 524.104, 575.168 524.104, 584.624 " />
            <path fill="none" stroke-width="1.5" stroke-linecap="round" stroke-opacity="1.0" stroke="rgb(0, 0, 0)" stroke-linejoin="round" d=" M 505.948, 415.168 499.896, 415.168 499.896, 425.168 499.896, 435.168 499.896, 445.168 499.896, 455.168 499.896, 465.168 499.896, 475.168 499.896, 485.168 499.896, 495.168 499.896, 505.168 499.896, 515.168 499.896, 525.168 499.896, 535.168 499.896, 545.168 499.896, 555.168 499.896, 565.168 499.896, 575.168 499.896, 584.624 " />
            <path fill="none" stroke-width="1.5" stroke-linecap="round" stroke-opacity="1.0" stroke="rgb(0, 0, 0)" stroke-linejoin="round" d=" M 451.480, 584.624 451.480, 574.624 451.480, 564.624 451.480, 554.624 451.480, 544.624 451.480, 536.208 451.480, 536.208 441.480, 536.208 431.480, 536.208 427.272, 536.208 427.272, 546.208 427.272, 556.208 427.272, 566.208 427.272, 576.208 427.272, 586.208 427.272, 596.728 437.272, 596.728 447.272, 596.728 451.480, 596.728 " />
            <path fill="none" stroke-width="1.5" stroke-linecap="round" stroke-opacity="1.0" stroke="rgb(0, 0, 0)" stroke-linejoin="round" d=" M 451.480, 536.208 451.480, 546.208 451.480, 556.208 451.480, 566.208 451.480, 576.208 451.480, 584.624 " />
            <path fill="none" stroke-width="1.5" stroke-linecap="round" stroke-opacity="1.0" stroke="rgb(0, 0, 0)" stroke-linejoin="round" d=" M 572.520, 584.624 572.520, 594.624 572.520, 596.728 582.520, 596.728 592.520, 596.728 596.728, 596.728 596.728, 586.728 596.728, 576.728 596.728, 566.728 596.728, 556.728 596.728, 546.728 596.728, 536.208 " />
            <path fill="none" stroke-width="1.5" stroke-linecap="round" stroke-opacity="1.0" stroke="rgb(0, 0, 0)" stroke-linejoin="round" d=" M 596.728, 536.208 586.728, 536.208 576.728, 536.208 572.520, 536.208 572.520, 546.208 572.520, 556.208 572.520, 566.208 572.520, 576.208 572.520, 584.624 " />
            <path fill="none" stroke-width="1.5" stroke-linecap="round" stroke-opacity="1.0" stroke="rgb(0, 0, 0)" stroke-linejoin="round" d=" M 451.480, 596.728 451.480, 606.728 451.480, 608.832 451.480, 608.832 451.480, 608.832 451.480, 608.832 461.480, 608.832 471.480, 608.832 481.480, 608.832 491.480, 608.832 501.480, 608.832 511.480, 608.832 521.480, 608.832 531.480, 608.832 541.480, 608.832 551.480, 608.832 561.480, 608.832 572.520, 608.832 572.520, 598.832 572.520, 588.832 572.520, 584.624 572.520, 584.624 572.520, 584.624 572.520, 584.624 562.520, 584.624 552.520, 584.624 542.520, 584.624 532.520, 584.624 524.104, 584.624 524.104, 584.624 518.052, 584.624 518.052, 584.624 508.052, 584.624 505.948, 584.624 505.948, 584.624 499.896, 584.624 499.896, 584.624 489.896, 584.624 479.896, 584.624 469.896, 584.624 459.896, 584.624 451.480, 584.624 451.480, 584.624 451.480, 584.624 451.480, 594.624 451.480, 596.728 " />
            <path fill="none" stroke-width="1.5" stroke-linecap="round" stroke-opacity="1.0" stroke="rgb(0, 0, 0)" stroke-linejoin="round" d=" M 572.520, 584.624 572.520, 584.624 572.520, 594.624 572.520, 604.624 572.520, 608.832 " />
            <path fill="none" stroke-width="1.5" stroke-linecap="round" stroke-opacity="1.0" stroke="rgb(0, 0, 0)" stroke-linejoin="round" d=" M 451.480, 608.832 451.480, 608.832 461.480, 608.832 471.480, 608.832 481.480, 608.832 491.480, 608.832 501.480, 608.832 511.480, 608.832 521.480, 608.832 531.480, 608.832 541.480, 608.832 551.480, 608.832 561.480, 608.832 572.520, 608.832 572.520, 608.832 " />
            <path fill="none" stroke-width="1.5" stroke-linecap="round" stroke-opacity="1.0" stroke="rgb(0, 0, 0)" stroke-linejoin="round" d=" M 518.052, 415.168 518.052, 415.168 518.052, 415.168 508.052, 415.168 505.948, 415.168 505.948, 415.168 " />
            <path fill="none" stroke-width="1.5" stroke-linecap="round" stroke-opacity="1.0" stroke="rgb(0, 0, 0)" stroke-linejoin="round" d=" M 518.052, 415.168 518.052, 415.168 518.052, 425.168 518.052, 435.168 518.052, 445.168 518.052, 455.168 518.052, 465.168 518.052, 475.168 518.052, 485.168 518.052, 495.168 518.052, 505.168 518.052, 515.168 518.052, 525.168 518.052, 535.168 518.052, 545.168 518.052, 555.168 518.052, 565.168 518.052, 575.168 518.052, 584.624 518.052, 584.624 518.052, 594.624 518.052, 596.728 518.052, 596.728 518.052, 596.728 " />
            <path fill="none" stroke-width="1.5" stroke-linecap="round" stroke-opacity="1.0" stroke="rgb(0, 0, 0)" stroke-linejoin="round" d=" M 505.948, 596.728 505.948, 602.780 506.064, 602.780 506.409, 602.780 506.968, 602.780 507.721, 602.780 508.638, 602.780 509.684, 602.780 510.819, 602.780 512.000, 602.780 512.000, 602.780 512.000, 602.780 512.000, 602.780 512.000, 602.780 513.181, 602.780 514.316, 602.780 515.362, 602.780 516.279, 602.780 517.032, 602.780 517.591, 602.780 517.936, 602.780 518.052, 602.780 518.052, 596.728 518.052, 596.728 518.052, 596.728 " />
            <path fill="none" stroke-width="1.5" stroke-linecap="round" stroke-opacity="1.0" stroke="rgb(0, 0, 0)" stroke-linejoin="round" d=" M 518.052, 596.728 518.052, 596.728 518.052, 596.728 518.052, 590.676 517.936, 590.676 517.591, 590.676 517.032, 590.676 516.279, 590.676 515.362, 590.676 514.316, 590.676 513.181, 590.676 512.000, 590.676 510.819, 590.676 509.684, 590.676 508.638, 590.676 507.721, 590.676 506.968, 590.676 506.409, 590.676 506.064, 590.676 505.948, 590.676 505.948, 590.676 505.948, 590.676 505.948, 596.728 " />
            <path fill="none" stroke-width="1.5" stroke-linecap="round" stroke-opacity="1.0" stroke="rgb(0, 0, 0)" stroke-linejoin="round" d=" M 505.948, 415.168 505.948, 425.168 505.948, 435.168 505.948, 445.168 505.948, 455.168 505.948, 465.168 505.948, 475.168 505.948, 485.168 505.948, 495.168 505.948, 505.168 505.948, 515.168 505.948, 525.168 505.948, 535.168 505.948, 545.168 505.948, 555.168 505.948, 565.168 505.948, 575.168 505.948, 584.624 505.948, 584.624 505.948, 584.624 505.948, 584.624 505.948, 590.676 " />
            <path fill="none" stroke-width="1.5" stroke-linecap="round" stroke-opacity="1.0" stroke="rgb(0, 0, 0)" stroke-linejoin="round" d=" M 518.052, 596.728 518.052, 596.728 " />
            <path fill="none" stroke-width="1.5" stroke-linecap="round" stroke-opacity="1.0" stroke="rgb(0, 0, 0)" stroke-linejoin="round" d=" M 518.052, 584.624 518.052, 574.624 518.052, 564.624 518.052, 554.624 518.052, 544.624 518.052, 534.624 518.052, 524.624 518.052, 514.624 518.052, 504.624 518.052, 494.624 518.052, 484.624 518.052, 474.624 518.052, 464.624 518.052, 454.624 518.052, 444.624 518.052, 434.624 518.052, 424.624 518.052, 415.168 " />
        </g>
    </g>
</svg>
