<?xml version='1.0' encoding='ascii'?>
<svg xmlns="http://www.w3.org/2000/svg" xmlns:inkscape="http://www.inkscape.org/namespaces/inkscape" version="1.1" width="1024" height="1024">
    <g id="ViewLayer_LineSet" inkscape:groupmode="lineset" inkscape:label="ViewLayer_LineSet">
        <g inkscape:groupmode="layer" id="strokes" inkscape:label="strokes">
            <path fill="none" stroke-width="3.0" stroke-linecap="butt" stroke-opacity="1.0" stroke="rgb(0, 0, 0)" stroke-linejoin="round" d=" M 233.133, 559.407 233.133, 569.407 233.133, 570.562 233.133, 570.562 243.133, 570.562 253.133, 570.562 263.133, 570.562 273.133, 570.562 283.133, 570.562 293.133, 570.562 303.133, 570.562 313.133, 570.562 323.133, 570.562 333.133, 570.562 343.133, 570.562 344.680, 570.562 344.680, 570.562 344.680, 560.562 344.680, 559.407 344.680, 559.407 334.680, 559.407 324.680, 559.407 314.680, 559.407 304.680, 559.407 294.680, 559.407 284.680, 559.407 274.680, 559.407 264.680, 559.407 254.680, 559.407 244.680, 559.407 234.680, 559.407 233.133, 559.407 " />
            <path fill="none" stroke-width="3.0" stroke-linecap="butt" stroke-opacity="1.0" stroke="rgb(0, 0, 0)" stroke-linejoin="round" d=" M 233.133, 570.562 243.133, 570.562 253.133, 570.562 263.133, 570.562 273.133, 570.562 283.133, 570.562 293.133, 570.562 303.133, 570.562 313.133, 570.562 323.133, 570.562 333.133, 570.562 343.133, 570.562 344.680, 570.562 " />
            <path fill="none" stroke-width="3.0" stroke-linecap="butt" stroke-opacity="1.0" stroke="rgb(0, 0, 0)" stroke-linejoin="round" d=" M 233.133, 453.438 233.133, 463.438 233.133, 473.438 233.133, 483.438 233.133, 493.438 233.133, 503.438 233.133, 509.211 243.133, 509.211 253.133, 509.211 263.133, 509.211 273.133, 509.211 283.133, 509.211 293.133, 509.211 303.133, 509.211 313.133, 509.211 323.133, 509.211 333.133, 509.211 343.133, 509.211 344.680, 509.211 344.680, 499.211 344.680, 489.211 344.680, 479.211 344.680, 469.211 344.680, 459.211 344.680, 453.438 " />
            <path fill="none" stroke-width="3.0" stroke-linecap="butt" stroke-opacity="1.0" stroke="rgb(0, 0, 0)" stroke-linejoin="round" d=" M 227.556, 523.155 227.556, 533.155 227.556, 543.155 227.556, 551.041 227.556, 551.041 237.556, 551.041 238.710, 551.041 238.710, 551.041 238.710, 541.041 238.710, 531.041 238.710, 523.155 238.710, 523.155 228.710, 523.155 227.556, 523.155 " />
            <path fill="none" stroke-width="3.0" stroke-linecap="butt" stroke-opacity="1.0" stroke="rgb(0, 0, 0)" stroke-linejoin="round" d=" M 227.556, 551.041 237.556, 551.041 238.710, 551.041 " />
            <path fill="none" stroke-width="3.0" stroke-linecap="butt" stroke-opacity="1.0" stroke="rgb(0, 0, 0)" stroke-linejoin="round" d=" M 339.102, 523.155 339.102, 533.155 339.102, 543.155 339.102, 551.041 339.102, 551.041 349.102, 551.041 350.257, 551.041 350.257, 551.041 350.257, 541.041 350.257, 531.041 350.257, 523.155 350.257, 523.155 340.257, 523.155 339.102, 523.155 " />
            <path fill="none" stroke-width="3.0" stroke-linecap="butt" stroke-opacity="1.0" stroke="rgb(0, 0, 0)" stroke-linejoin="round" d=" M 339.102, 551.041 349.102, 551.041 350.257, 551.041 " />
            <path fill="none" stroke-width="3.0" stroke-linecap="butt" stroke-opacity="1.0" stroke="rgb(0, 0, 0)" stroke-linejoin="round" d=" M 679.320, 559.407 679.320, 559.407 679.320, 569.407 679.320, 570.562 679.320, 570.562 689.320, 570.562 699.320, 570.562 709.320, 570.562 719.320, 570.562 729.320, 570.562 739.320, 570.562 749.320, 570.562 759.320, 570.562 769.320, 570.562 779.320, 570.562 789.320, 570.562 790.867, 570.562 790.867, 570.562 790.867, 560.562 790.867, 559.407 780.867, 559.407 770.867, 559.407 760.867, 559.407 750.867, 559.407 740.867, 559.407 730.867, 559.407 720.867, 559.407 710.867, 559.407 700.867, 559.407 690.867, 559.407 680.867, 559.407 679.320, 559.407 " />
            <path fill="none" stroke-width="3.0" stroke-linecap="butt" stroke-opacity="1.0" stroke="rgb(0, 0, 0)" stroke-linejoin="round" d=" M 679.320, 570.562 689.320, 570.562 699.320, 570.562 709.320, 570.562 719.320, 570.562 729.320, 570.562 739.320, 570.562 749.320, 570.562 759.320, 570.562 769.320, 570.562 779.320, 570.562 789.320, 570.562 790.867, 570.562 " />
            <path fill="none" stroke-width="3.0" stroke-linecap="butt" stroke-opacity="1.0" stroke="rgb(0, 0, 0)" stroke-linejoin="round" d=" M 679.320, 523.155 673.743, 523.155 673.743, 533.155 673.743, 543.155 673.743, 551.041 673.743, 551.041 679.320, 551.041 " />
            <path fill="none" stroke-width="3.0" stroke-linecap="butt" stroke-opacity="1.0" stroke="rgb(0, 0, 0)" stroke-linejoin="round" d=" M 673.743, 551.041 679.320, 551.041 " />
            <path fill="none" stroke-width="3.0" stroke-linecap="butt" stroke-opacity="1.0" stroke="rgb(0, 0, 0)" stroke-linejoin="round" d=" M 790.867, 551.041 796.444, 551.041 796.444, 551.041 796.444, 541.041 796.444, 531.041 796.444, 523.155 796.444, 523.155 790.867, 523.155 " />
            <path fill="none" stroke-width="3.0" stroke-linecap="butt" stroke-opacity="1.0" stroke="rgb(0, 0, 0)" stroke-linejoin="round" d=" M 344.680, 453.438 334.680, 453.438 324.680, 453.438 314.680, 453.438 304.680, 453.438 294.680, 453.438 284.680, 453.438 274.680, 453.438 264.680, 453.438 254.680, 453.438 244.680, 453.438 234.680, 453.438 233.133, 453.438 " />
            <path fill="none" stroke-width="3.0" stroke-linecap="butt" stroke-opacity="1.0" stroke="rgb(0, 0, 0)" stroke-linejoin="round" d=" M 679.320, 523.155 679.320, 523.155 679.320, 533.155 679.320, 543.155 679.320, 551.041 679.320, 551.041 " />
            <path fill="none" stroke-width="3.0" stroke-linecap="butt" stroke-opacity="1.0" stroke="rgb(0, 0, 0)" stroke-linejoin="round" d=" M 785.290, 551.041 790.867, 551.041 " />
            <path fill="none" stroke-width="3.0" stroke-linecap="butt" stroke-opacity="1.0" stroke="rgb(0, 0, 0)" stroke-linejoin="round" d=" M 684.898, 551.041 694.898, 551.041 704.898, 551.041 714.898, 551.041 724.898, 551.041 734.898, 551.041 744.898, 551.041 754.898, 551.041 764.898, 551.041 774.898, 551.041 785.290, 551.041 " />
            <path fill="none" stroke-width="3.0" stroke-linecap="butt" stroke-opacity="1.0" stroke="rgb(0, 0, 0)" stroke-linejoin="round" d=" M 679.320, 551.041 684.898, 551.041 " />
            <path fill="none" stroke-width="3.0" stroke-linecap="butt" stroke-opacity="1.0" stroke="rgb(0, 0, 0)" stroke-linejoin="round" d=" M 790.867, 551.041 790.867, 551.041 790.867, 541.041 790.867, 531.041 790.867, 523.155 790.867, 523.155 " />
            <path fill="none" stroke-width="3.0" stroke-linecap="butt" stroke-opacity="1.0" stroke="rgb(0, 0, 0)" stroke-linejoin="round" d=" M 684.898, 523.155 679.320, 523.155 " />
            <path fill="none" stroke-width="3.0" stroke-linecap="butt" stroke-opacity="1.0" stroke="rgb(0, 0, 0)" stroke-linejoin="round" d=" M 785.290, 523.155 775.290, 523.155 765.290, 523.155 755.290, 523.155 745.290, 523.155 735.290, 523.155 725.290, 523.155 715.290, 523.155 705.290, 523.155 695.290, 523.155 684.898, 523.155 " />
            <path fill="none" stroke-width="3.0" stroke-linecap="butt" stroke-opacity="1.0" stroke="rgb(0, 0, 0)" stroke-linejoin="round" d=" M 790.867, 523.155 785.290, 523.155 " />
            <path fill="none" stroke-width="3.0" stroke-linecap="butt" stroke-opacity="1.0" stroke="rgb(0, 0, 0)" stroke-linejoin="round" d=" M 790.867, 551.041 796.444, 551.041 " />
        </g>
    </g>
    <g id="ViewLayer_TechnicalLines" inkscape:groupmode="lineset" inkscape:label="ViewLayer_TechnicalLines">
        <g inkscape:groupmode="layer" id="strokes" inkscape:label="strokes">
            <path fill="none" stroke-width="3.0" stroke-linecap="butt" stroke-opacity="1.0" stroke="rgb(0, 0, 0)" stroke-linejoin="round" d=" M 233.133, 559.407 233.133, 569.407 233.133, 570.562 233.133, 570.562 243.133, 570.562 253.133, 570.562 263.133, 570.562 273.133, 570.562 283.133, 570.562 293.133, 570.562 303.133, 570.562 313.133, 570.562 323.133, 570.562 333.133, 570.562 343.133, 570.562 344.680, 570.562 344.680, 570.562 344.680, 560.562 344.680, 559.407 344.680, 559.407 334.680, 559.407 324.680, 559.407 314.680, 559.407 304.680, 559.407 294.680, 559.407 284.680, 559.407 274.680, 559.407 264.680, 559.407 254.680, 559.407 244.680, 559.407 234.680, 559.407 233.133, 559.407 " />
            <path fill="none" stroke-width="3.0" stroke-linecap="butt" stroke-opacity="1.0" stroke="rgb(0, 0, 0)" stroke-linejoin="round" d=" M 233.133, 570.562 243.133, 570.562 253.133, 570.562 263.133, 570.562 273.133, 570.562 283.133, 570.562 293.133, 570.562 303.133, 570.562 313.133, 570.562 323.133, 570.562 333.133, 570.562 343.133, 570.562 344.680, 570.562 " />
            <path fill="none" stroke-width="3.0" stroke-linecap="butt" stroke-opacity="1.0" stroke="rgb(0, 0, 0)" stroke-linejoin="round" d=" M 233.133, 453.438 233.133, 463.438 233.133, 473.438 233.133, 483.438 233.133, 493.438 233.133, 503.438 233.133, 509.211 243.133, 509.211 253.133, 509.211 263.133, 509.211 273.133, 509.211 283.133, 509.211 293.133, 509.211 303.133, 509.211 313.133, 509.211 323.133, 509.211 333.133, 509.211 343.133, 509.211 344.680, 509.211 344.680, 499.211 344.680, 489.211 344.680, 479.211 344.680, 469.211 344.680, 459.211 344.680, 453.438 " />
            <path fill="none" stroke-width="3.0" stroke-linecap="butt" stroke-opacity="1.0" stroke="rgb(0, 0, 0)" stroke-linejoin="round" d=" M 227.556, 523.155 227.556, 533.155 227.556, 543.155 227.556, 551.041 227.556, 551.041 237.556, 551.041 238.710, 551.041 238.710, 551.041 238.710, 541.041 238.710, 531.041 238.710, 523.155 238.710, 523.155 228.710, 523.155 227.556, 523.155 " />
            <path fill="none" stroke-width="3.0" stroke-linecap="butt" stroke-opacity="1.0" stroke="rgb(0, 0, 0)" stroke-linejoin="round" d=" M 227.556, 551.041 237.556, 551.041 238.710, 551.041 " />
            <path fill="none" stroke-width="3.0" stroke-linecap="butt" stroke-opacity="1.0" stroke="rgb(0, 0, 0)" stroke-linejoin="round" d=" M 339.102, 523.155 339.102, 533.155 339.102, 543.155 339.102, 551.041 339.102, 551.041 349.102, 551.041 350.257, 551.041 350.257, 551.041 350.257, 541.041 350.257, 531.041 350.257, 523.155 350.257, 523.155 340.257, 523.155 339.102, 523.155 " />
            <path fill="none" stroke-width="3.0" stroke-linecap="butt" stroke-opacity="1.0" stroke="rgb(0, 0, 0)" stroke-linejoin="round" d=" M 339.102, 551.041 349.102, 551.041 350.257, 551.041 " />
            <path fill="none" stroke-width="3.0" stroke-linecap="butt" stroke-opacity="1.0" stroke="rgb(0, 0, 0)" stroke-linejoin="round" d=" M 679.320, 559.407 679.320, 559.407 679.320, 569.407 679.320, 570.562 679.320, 570.562 689.320, 570.562 699.320, 570.562 709.320, 570.562 719.320, 570.562 729.320, 570.562 739.320, 570.562 749.320, 570.562 759.320, 570.562 769.320, 570.562 779.320, 570.562 789.320, 570.562 790.867, 570.562 790.867, 570.562 790.867, 560.562 790.867, 559.407 780.867, 559.407 770.867, 559.407 760.867, 559.407 750.867, 559.407 740.867, 559.407 730.867, 559.407 720.867, 559.407 710.867, 559.407 700.867, 559.407 690.867, 559.407 680.867, 559.407 679.320, 559.407 " />
            <path fill="none" stroke-width="3.0" stroke-linecap="butt" stroke-opacity="1.0" stroke="rgb(0, 0, 0)" stroke-linejoin="round" d=" M 679.320, 570.562 689.320, 570.562 699.320, 570.562 709.320, 570.562 719.320, 570.562 729.320, 570.562 739.320, 570.562 749.320, 570.562 759.320, 570.562 769.320, 570.562 779.320, 570.562 789.320, 570.562 790.867, 570.562 " />
            <path fill="none" stroke-width="3.0" stroke-linecap="butt" stroke-opacity="1.0" stroke="rgb(0, 0, 0)" stroke-linejoin="round" d=" M 679.320, 523.155 673.743, 523.155 673.743, 533.155 673.743, 543.155 673.743, 551.041 673.743, 551.041 679.320, 551.041 " />
            <path fill="none" stroke-width="3.0" stroke-linecap="butt" stroke-opacity="1.0" stroke="rgb(0, 0, 0)" stroke-linejoin="round" d=" M 673.743, 551.041 679.320, 551.041 " />
            <path fill="none" stroke-width="3.0" stroke-linecap="butt" stroke-opacity="1.0" stroke="rgb(0, 0, 0)" stroke-linejoin="round" d=" M 790.867, 551.041 796.444, 551.041 796.444, 551.041 796.444, 541.041 796.444, 531.041 796.444, 523.155 796.444, 523.155 790.867, 523.155 " />
            <path fill="none" stroke-width="3.0" stroke-linecap="butt" stroke-opacity="1.0" stroke="rgb(0, 0, 0)" stroke-linejoin="round" d=" M 344.680, 453.438 334.680, 453.438 324.680, 453.438 314.680, 453.438 304.680, 453.438 294.680, 453.438 284.680, 453.438 274.680, 453.438 264.680, 453.438 254.680, 453.438 244.680, 453.438 234.680, 453.438 233.133, 453.438 " />
            <path fill="none" stroke-width="3.0" stroke-linecap="butt" stroke-opacity="1.0" stroke="rgb(0, 0, 0)" stroke-linejoin="round" d=" M 679.320, 523.155 679.320, 523.155 679.320, 533.155 679.320, 543.155 679.320, 551.041 679.320, 551.041 " />
            <path fill="none" stroke-width="3.0" stroke-linecap="butt" stroke-opacity="1.0" stroke="rgb(0, 0, 0)" stroke-linejoin="round" d=" M 785.290, 551.041 790.867, 551.041 " />
            <path fill="none" stroke-width="3.0" stroke-linecap="butt" stroke-opacity="1.0" stroke="rgb(0, 0, 0)" stroke-linejoin="round" d=" M 684.898, 551.041 694.898, 551.041 704.898, 551.041 714.898, 551.041 724.898, 551.041 734.898, 551.041 744.898, 551.041 754.898, 551.041 764.898, 551.041 774.898, 551.041 785.290, 551.041 " />
            <path fill="none" stroke-width="3.0" stroke-linecap="butt" stroke-opacity="1.0" stroke="rgb(0, 0, 0)" stroke-linejoin="round" d=" M 679.320, 551.041 684.898, 551.041 " />
            <path fill="none" stroke-width="3.0" stroke-linecap="butt" stroke-opacity="1.0" stroke="rgb(0, 0, 0)" stroke-linejoin="round" d=" M 790.867, 551.041 790.867, 551.041 790.867, 541.041 790.867, 531.041 790.867, 523.155 790.867, 523.155 " />
            <path fill="none" stroke-width="3.0" stroke-linecap="butt" stroke-opacity="1.0" stroke="rgb(0, 0, 0)" stroke-linejoin="round" d=" M 684.898, 523.155 679.320, 523.155 " />
            <path fill="none" stroke-width="3.0" stroke-linecap="butt" stroke-opacity="1.0" stroke="rgb(0, 0, 0)" stroke-linejoin="round" d=" M 785.290, 523.155 775.290, 523.155 765.290, 523.155 755.290, 523.155 745.290, 523.155 735.290, 523.155 725.290, 523.155 715.290, 523.155 705.290, 523.155 695.290, 523.155 684.898, 523.155 " />
            <path fill="none" stroke-width="3.0" stroke-linecap="butt" stroke-opacity="1.0" stroke="rgb(0, 0, 0)" stroke-linejoin="round" d=" M 790.867, 523.155 785.290, 523.155 " />
            <path fill="none" stroke-width="3.0" stroke-linecap="butt" stroke-opacity="1.0" stroke="rgb(0, 0, 0)" stroke-linejoin="round" d=" M 790.867, 551.041 796.444, 551.041 " />
        </g>
    </g>
    <g id="ViewLayer_TechnicalLines.001" inkscape:groupmode="lineset" inkscape:label="ViewLayer_TechnicalLines.001">
        <g inkscape:groupmode="layer" id="strokes" inkscape:label="strokes">
            <path fill="none" stroke-width="1.5" stroke-linecap="round" stroke-opacity="1.0" stroke="rgb(0, 0, 0)" stroke-linejoin="round" d=" M 233.133, 559.407 233.133, 569.407 233.133, 570.562 233.133, 570.562 243.133, 570.562 253.133, 570.562 263.133, 570.562 273.133, 570.562 283.133, 570.562 293.133, 570.562 303.133, 570.562 313.133, 570.562 323.133, 570.562 333.133, 570.562 343.133, 570.562 344.680, 570.562 344.680, 570.562 344.680, 560.562 344.680, 559.407 344.680, 559.407 334.680, 559.407 324.680, 559.407 314.680, 559.407 304.680, 559.407 294.680, 559.407 284.680, 559.407 274.680, 559.407 264.680, 559.407 254.680, 559.407 244.680, 559.407 234.680, 559.407 233.133, 559.407 " />
            <path fill="none" stroke-width="1.5" stroke-linecap="round" stroke-opacity="1.0" stroke="rgb(0, 0, 0)" stroke-linejoin="round" d=" M 233.133, 570.562 243.133, 570.562 253.133, 570.562 263.133, 570.562 273.133, 570.562 283.133, 570.562 293.133, 570.562 303.133, 570.562 313.133, 570.562 323.133, 570.562 333.133, 570.562 343.133, 570.562 344.680, 570.562 " />
            <path fill="none" stroke-width="1.5" stroke-linecap="round" stroke-opacity="1.0" stroke="rgb(0, 0, 0)" stroke-linejoin="round" d=" M 233.133, 453.438 233.133, 463.438 233.133, 473.438 233.133, 483.438 233.133, 493.438 233.133, 503.438 233.133, 509.211 243.133, 509.211 253.133, 509.211 263.133, 509.211 273.133, 509.211 283.133, 509.211 293.133, 509.211 303.133, 509.211 313.133, 509.211 323.133, 509.211 333.133, 509.211 343.133, 509.211 344.680, 509.211 344.680, 499.211 344.680, 489.211 344.680, 479.211 344.680, 469.211 344.680, 459.211 344.680, 453.438 " />
            <path fill="none" stroke-width="1.5" stroke-linecap="round" stroke-opacity="1.0" stroke="rgb(0, 0, 0)" stroke-linejoin="round" d=" M 227.556, 523.155 227.556, 533.155 227.556, 543.155 227.556, 551.041 227.556, 551.041 237.556, 551.041 238.710, 551.041 238.710, 551.041 238.710, 541.041 238.710, 531.041 238.710, 523.155 238.710, 523.155 228.710, 523.155 227.556, 523.155 " />
            <path fill="none" stroke-width="1.5" stroke-linecap="round" stroke-opacity="1.0" stroke="rgb(0, 0, 0)" stroke-linejoin="round" d=" M 227.556, 551.041 237.556, 551.041 238.710, 551.041 " />
            <path fill="none" stroke-width="1.5" stroke-linecap="round" stroke-opacity="1.0" stroke="rgb(0, 0, 0)" stroke-linejoin="round" d=" M 339.102, 523.155 339.102, 533.155 339.102, 543.155 339.102, 551.041 339.102, 551.041 349.102, 551.041 350.257, 551.041 350.257, 551.041 350.257, 541.041 350.257, 531.041 350.257, 523.155 350.257, 523.155 340.257, 523.155 339.102, 523.155 " />
            <path fill="none" stroke-width="1.5" stroke-linecap="round" stroke-opacity="1.0" stroke="rgb(0, 0, 0)" stroke-linejoin="round" d=" M 339.102, 551.041 349.102, 551.041 350.257, 551.041 " />
            <path fill="none" stroke-width="1.5" stroke-linecap="round" stroke-opacity="1.0" stroke="rgb(0, 0, 0)" stroke-linejoin="round" d=" M 679.320, 559.407 679.320, 559.407 679.320, 569.407 679.320, 570.562 679.320, 570.562 689.320, 570.562 699.320, 570.562 709.320, 570.562 719.320, 570.562 729.320, 570.562 739.320, 570.562 749.320, 570.562 759.320, 570.562 769.320, 570.562 779.320, 570.562 789.320, 570.562 790.867, 570.562 790.867, 570.562 790.867, 560.562 790.867, 559.407 780.867, 559.407 770.867, 559.407 760.867, 559.407 750.867, 559.407 740.867, 559.407 730.867, 559.407 720.867, 559.407 710.867, 559.407 700.867, 559.407 690.867, 559.407 680.867, 559.407 679.320, 559.407 " />
            <path fill="none" stroke-width="1.5" stroke-linecap="round" stroke-opacity="1.0" stroke="rgb(0, 0, 0)" stroke-linejoin="round" d=" M 679.320, 570.562 689.320, 570.562 699.320, 570.562 709.320, 570.562 719.320, 570.562 729.320, 570.562 739.320, 570.562 749.320, 570.562 759.320, 570.562 769.320, 570.562 779.320, 570.562 789.320, 570.562 790.867, 570.562 " />
            <path fill="none" stroke-width="1.5" stroke-linecap="round" stroke-opacity="1.0" stroke="rgb(0, 0, 0)" stroke-linejoin="round" d=" M 679.320, 523.155 673.743, 523.155 673.743, 533.155 673.743, 543.155 673.743, 551.041 673.743, 551.041 679.320, 551.041 " />
            <path fill="none" stroke-width="1.5" stroke-linecap="round" stroke-opacity="1.0" stroke="rgb(0, 0, 0)" stroke-linejoin="round" d=" M 673.743, 551.041 679.320, 551.041 " />
            <path fill="none" stroke-width="1.5" stroke-linecap="round" stroke-opacity="1.0" stroke="rgb(0, 0, 0)" stroke-linejoin="round" d=" M 790.867, 551.041 796.444, 551.041 796.444, 551.041 796.444, 541.041 796.444, 531.041 796.444, 523.155 796.444, 523.155 790.867, 523.155 " />
            <path fill="none" stroke-width="1.5" stroke-linecap="round" stroke-opacity="1.0" stroke="rgb(0, 0, 0)" stroke-linejoin="round" d=" M 344.680, 453.438 334.680, 453.438 324.680, 453.438 314.680, 453.438 304.680, 453.438 294.680, 453.438 284.680, 453.438 274.680, 453.438 264.680, 453.438 254.680, 453.438 244.680, 453.438 234.680, 453.438 233.133, 453.438 " />
            <path fill="none" stroke-width="1.5" stroke-linecap="round" stroke-opacity="1.0" stroke="rgb(0, 0, 0)" stroke-linejoin="round" d=" M 679.320, 523.155 679.320, 523.155 679.320, 533.155 679.320, 543.155 679.320, 551.041 679.320, 551.041 " />
            <path fill="none" stroke-width="1.5" stroke-linecap="round" stroke-opacity="1.0" stroke="rgb(0, 0, 0)" stroke-linejoin="round" d=" M 785.290, 551.041 790.867, 551.041 " />
            <path fill="none" stroke-width="1.5" stroke-linecap="round" stroke-opacity="1.0" stroke="rgb(0, 0, 0)" stroke-linejoin="round" d=" M 684.898, 551.041 694.898, 551.041 704.898, 551.041 714.898, 551.041 724.898, 551.041 734.898, 551.041 744.898, 551.041 754.898, 551.041 764.898, 551.041 774.898, 551.041 785.290, 551.041 " />
            <path fill="none" stroke-width="1.5" stroke-linecap="round" stroke-opacity="1.0" stroke="rgb(0, 0, 0)" stroke-linejoin="round" d=" M 679.320, 551.041 684.898, 551.041 " />
            <path fill="none" stroke-width="1.5" stroke-linecap="round" stroke-opacity="1.0" stroke="rgb(0, 0, 0)" stroke-linejoin="round" d=" M 790.867, 551.041 790.867, 551.041 790.867, 541.041 790.867, 531.041 790.867, 523.155 790.867, 523.155 " />
            <path fill="none" stroke-width="1.5" stroke-linecap="round" stroke-opacity="1.0" stroke="rgb(0, 0, 0)" stroke-linejoin="round" d=" M 684.898, 523.155 679.320, 523.155 " />
            <path fill="none" stroke-width="1.5" stroke-linecap="round" stroke-opacity="1.0" stroke="rgb(0, 0, 0)" stroke-linejoin="round" d=" M 785.290, 523.155 775.290, 523.155 765.290, 523.155 755.290, 523.155 745.290, 523.155 735.290, 523.155 725.290, 523.155 715.290, 523.155 705.290, 523.155 695.290, 523.155 684.898, 523.155 " />
            <path fill="none" stroke-width="1.5" stroke-linecap="round" stroke-opacity="1.0" stroke="rgb(0, 0, 0)" stroke-linejoin="round" d=" M 790.867, 523.155 785.290, 523.155 " />
            <path fill="none" stroke-width="1.5" stroke-linecap="round" stroke-opacity="1.0" stroke="rgb(0, 0, 0)" stroke-linejoin="round" d=" M 790.867, 551.041 796.444, 551.041 " />
        </g>
    </g>
    <g id="ViewLayer_TechnicalLines.002" inkscape:groupmode="lineset" inkscape:label="ViewLayer_TechnicalLines.002">
        <g inkscape:groupmode="layer" id="strokes" inkscape:label="strokes">
            <path fill="none" stroke-width="1.5" stroke-linecap="round" stroke-opacity="1.0" stroke="rgb(0, 0, 0)" stroke-linejoin="round" d=" M 233.133, 559.407 233.133, 569.407 233.133, 570.562 233.133, 570.562 243.133, 570.562 253.133, 570.562 263.133, 570.562 273.133, 570.562 283.133, 570.562 293.133, 570.562 303.133, 570.562 313.133, 570.562 323.133, 570.562 333.133, 570.562 343.133, 570.562 344.680, 570.562 344.680, 570.562 344.680, 560.562 344.680, 559.407 344.680, 559.407 334.680, 559.407 324.680, 559.407 314.680, 559.407 304.680, 559.407 294.680, 559.407 284.680, 559.407 274.680, 559.407 264.680, 559.407 254.680, 559.407 244.680, 559.407 234.680, 559.407 233.133, 559.407 " />
            <path fill="none" stroke-width="1.5" stroke-linecap="round" stroke-opacity="1.0" stroke="rgb(0, 0, 0)" stroke-linejoin="round" d=" M 233.133, 570.562 243.133, 570.562 253.133, 570.562 263.133, 570.562 273.133, 570.562 283.133, 570.562 293.133, 570.562 303.133, 570.562 313.133, 570.562 323.133, 570.562 333.133, 570.562 343.133, 570.562 344.680, 570.562 " />
            <path fill="none" stroke-width="1.5" stroke-linecap="round" stroke-opacity="1.0" stroke="rgb(0, 0, 0)" stroke-linejoin="round" d=" M 233.133, 453.438 233.133, 463.438 233.133, 473.438 233.133, 483.438 233.133, 493.438 233.133, 503.438 233.133, 509.211 243.133, 509.211 253.133, 509.211 263.133, 509.211 273.133, 509.211 283.133, 509.211 293.133, 509.211 303.133, 509.211 313.133, 509.211 323.133, 509.211 333.133, 509.211 343.133, 509.211 344.680, 509.211 344.680, 499.211 344.680, 489.211 344.680, 479.211 344.680, 469.211 344.680, 459.211 344.680, 453.438 " />
            <path fill="none" stroke-width="1.5" stroke-linecap="round" stroke-opacity="1.0" stroke="rgb(0, 0, 0)" stroke-linejoin="round" d=" M 227.556, 523.155 227.556, 533.155 227.556, 543.155 227.556, 551.041 227.556, 551.041 237.556, 551.041 238.710, 551.041 238.710, 551.041 238.710, 541.041 238.710, 531.041 238.710, 523.155 238.710, 523.155 228.710, 523.155 227.556, 523.155 " />
            <path fill="none" stroke-width="1.5" stroke-linecap="round" stroke-opacity="1.0" stroke="rgb(0, 0, 0)" stroke-linejoin="round" d=" M 227.556, 551.041 237.556, 551.041 238.710, 551.041 " />
            <path fill="none" stroke-width="1.5" stroke-linecap="round" stroke-opacity="1.0" stroke="rgb(0, 0, 0)" stroke-linejoin="round" d=" M 339.102, 523.155 339.102, 533.155 339.102, 543.155 339.102, 551.041 339.102, 551.041 349.102, 551.041 350.257, 551.041 350.257, 551.041 350.257, 541.041 350.257, 531.041 350.257, 523.155 350.257, 523.155 340.257, 523.155 339.102, 523.155 " />
            <path fill="none" stroke-width="1.5" stroke-linecap="round" stroke-opacity="1.0" stroke="rgb(0, 0, 0)" stroke-linejoin="round" d=" M 339.102, 551.041 349.102, 551.041 350.257, 551.041 " />
            <path fill="none" stroke-width="1.5" stroke-linecap="round" stroke-opacity="1.0" stroke="rgb(0, 0, 0)" stroke-linejoin="round" d=" M 679.320, 559.407 679.320, 559.407 679.320, 569.407 679.320, 570.562 679.320, 570.562 689.320, 570.562 699.320, 570.562 709.320, 570.562 719.320, 570.562 729.320, 570.562 739.320, 570.562 749.320, 570.562 759.320, 570.562 769.320, 570.562 779.320, 570.562 789.320, 570.562 790.867, 570.562 790.867, 570.562 790.867, 560.562 790.867, 559.407 780.867, 559.407 770.867, 559.407 760.867, 559.407 750.867, 559.407 740.867, 559.407 730.867, 559.407 720.867, 559.407 710.867, 559.407 700.867, 559.407 690.867, 559.407 680.867, 559.407 679.320, 559.407 " />
            <path fill="none" stroke-width="1.5" stroke-linecap="round" stroke-opacity="1.0" stroke="rgb(0, 0, 0)" stroke-linejoin="round" d=" M 679.320, 570.562 689.320, 570.562 699.320, 570.562 709.320, 570.562 719.320, 570.562 729.320, 570.562 739.320, 570.562 749.320, 570.562 759.320, 570.562 769.320, 570.562 779.320, 570.562 789.320, 570.562 790.867, 570.562 " />
            <path fill="none" stroke-width="1.5" stroke-linecap="round" stroke-opacity="1.0" stroke="rgb(0, 0, 0)" stroke-linejoin="round" d=" M 679.320, 523.155 673.743, 523.155 673.743, 533.155 673.743, 543.155 673.743, 551.041 673.743, 551.041 679.320, 551.041 " />
            <path fill="none" stroke-width="1.5" stroke-linecap="round" stroke-opacity="1.0" stroke="rgb(0, 0, 0)" stroke-linejoin="round" d=" M 673.743, 551.041 679.320, 551.041 " />
            <path fill="none" stroke-width="1.5" stroke-linecap="round" stroke-opacity="1.0" stroke="rgb(0, 0, 0)" stroke-linejoin="round" d=" M 790.867, 551.041 796.444, 551.041 796.444, 551.041 796.444, 541.041 796.444, 531.041 796.444, 523.155 796.444, 523.155 790.867, 523.155 " />
            <path fill="none" stroke-width="1.5" stroke-linecap="round" stroke-opacity="1.0" stroke="rgb(0, 0, 0)" stroke-linejoin="round" d=" M 344.680, 453.438 334.680, 453.438 324.680, 453.438 314.680, 453.438 304.680, 453.438 294.680, 453.438 284.680, 453.438 274.680, 453.438 264.680, 453.438 254.680, 453.438 244.680, 453.438 234.680, 453.438 233.133, 453.438 " />
            <path fill="none" stroke-width="1.5" stroke-linecap="round" stroke-opacity="1.0" stroke="rgb(0, 0, 0)" stroke-linejoin="round" d=" M 679.320, 523.155 679.320, 523.155 679.320, 533.155 679.320, 543.155 679.320, 551.041 679.320, 551.041 " />
            <path fill="none" stroke-width="1.5" stroke-linecap="round" stroke-opacity="1.0" stroke="rgb(0, 0, 0)" stroke-linejoin="round" d=" M 785.290, 551.041 790.867, 551.041 " />
            <path fill="none" stroke-width="1.5" stroke-linecap="round" stroke-opacity="1.0" stroke="rgb(0, 0, 0)" stroke-linejoin="round" d=" M 684.898, 551.041 694.898, 551.041 704.898, 551.041 714.898, 551.041 724.898, 551.041 734.898, 551.041 744.898, 551.041 754.898, 551.041 764.898, 551.041 774.898, 551.041 785.290, 551.041 " />
            <path fill="none" stroke-width="1.5" stroke-linecap="round" stroke-opacity="1.0" stroke="rgb(0, 0, 0)" stroke-linejoin="round" d=" M 679.320, 551.041 684.898, 551.041 " />
            <path fill="none" stroke-width="1.5" stroke-linecap="round" stroke-opacity="1.0" stroke="rgb(0, 0, 0)" stroke-linejoin="round" d=" M 790.867, 551.041 790.867, 551.041 790.867, 541.041 790.867, 531.041 790.867, 523.155 790.867, 523.155 " />
            <path fill="none" stroke-width="1.5" stroke-linecap="round" stroke-opacity="1.0" stroke="rgb(0, 0, 0)" stroke-linejoin="round" d=" M 684.898, 523.155 679.320, 523.155 " />
            <path fill="none" stroke-width="1.5" stroke-linecap="round" stroke-opacity="1.0" stroke="rgb(0, 0, 0)" stroke-linejoin="round" d=" M 785.290, 523.155 775.290, 523.155 765.290, 523.155 755.290, 523.155 745.290, 523.155 735.290, 523.155 725.290, 523.155 715.290, 523.155 705.290, 523.155 695.290, 523.155 684.898, 523.155 " />
            <path fill="none" stroke-width="1.5" stroke-linecap="round" stroke-opacity="1.0" stroke="rgb(0, 0, 0)" stroke-linejoin="round" d=" M 790.867, 523.155 785.290, 523.155 " />
            <path fill="none" stroke-width="1.5" stroke-linecap="round" stroke-opacity="1.0" stroke="rgb(0, 0, 0)" stroke-linejoin="round" d=" M 790.867, 551.041 796.444, 551.041 " />
        </g>
    </g>
    <g id="ViewLayer_TechnicalLines.003" inkscape:groupmode="lineset" inkscape:label="ViewLayer_TechnicalLines.003">
        <g inkscape:groupmode="layer" id="strokes" inkscape:label="strokes">
            <path fill="none" stroke-width="1.5" stroke-linecap="round" stroke-opacity="1.0" stroke="rgb(0, 0, 0)" stroke-linejoin="round" d=" M 233.133, 559.407 233.133, 569.407 233.133, 570.562 233.133, 570.562 243.133, 570.562 253.133, 570.562 263.133, 570.562 273.133, 570.562 283.133, 570.562 293.133, 570.562 303.133, 570.562 313.133, 570.562 323.133, 570.562 333.133, 570.562 343.133, 570.562 344.680, 570.562 344.680, 570.562 344.680, 560.562 344.680, 559.407 344.680, 559.407 334.680, 559.407 324.680, 559.407 314.680, 559.407 304.680, 559.407 294.680, 559.407 284.680, 559.407 274.680, 559.407 264.680, 559.407 254.680, 559.407 244.680, 559.407 234.680, 559.407 233.133, 559.407 " />
            <path fill="none" stroke-width="1.5" stroke-linecap="round" stroke-opacity="1.0" stroke="rgb(0, 0, 0)" stroke-linejoin="round" d=" M 233.133, 570.562 243.133, 570.562 253.133, 570.562 263.133, 570.562 273.133, 570.562 283.133, 570.562 293.133, 570.562 303.133, 570.562 313.133, 570.562 323.133, 570.562 333.133, 570.562 343.133, 570.562 344.680, 570.562 " />
            <path fill="none" stroke-width="1.5" stroke-linecap="round" stroke-opacity="1.0" stroke="rgb(0, 0, 0)" stroke-linejoin="round" d=" M 233.133, 453.438 233.133, 463.438 233.133, 473.438 233.133, 483.438 233.133, 493.438 233.133, 503.438 233.133, 509.211 243.133, 509.211 253.133, 509.211 263.133, 509.211 273.133, 509.211 283.133, 509.211 293.133, 509.211 303.133, 509.211 313.133, 509.211 323.133, 509.211 333.133, 509.211 343.133, 509.211 344.680, 509.211 344.680, 499.211 344.680, 489.211 344.680, 479.211 344.680, 469.211 344.680, 459.211 344.680, 453.438 " />
            <path fill="none" stroke-width="1.5" stroke-linecap="round" stroke-opacity="1.0" stroke="rgb(0, 0, 0)" stroke-linejoin="round" d=" M 227.556, 523.155 227.556, 533.155 227.556, 543.155 227.556, 551.041 227.556, 551.041 237.556, 551.041 238.710, 551.041 238.710, 551.041 238.710, 541.041 238.710, 531.041 238.710, 523.155 238.710, 523.155 228.710, 523.155 227.556, 523.155 " />
            <path fill="none" stroke-width="1.5" stroke-linecap="round" stroke-opacity="1.0" stroke="rgb(0, 0, 0)" stroke-linejoin="round" d=" M 227.556, 551.041 237.556, 551.041 238.710, 551.041 " />
            <path fill="none" stroke-width="1.5" stroke-linecap="round" stroke-opacity="1.0" stroke="rgb(0, 0, 0)" stroke-linejoin="round" d=" M 339.102, 523.155 339.102, 533.155 339.102, 543.155 339.102, 551.041 339.102, 551.041 349.102, 551.041 350.257, 551.041 350.257, 551.041 350.257, 541.041 350.257, 531.041 350.257, 523.155 350.257, 523.155 340.257, 523.155 339.102, 523.155 " />
            <path fill="none" stroke-width="1.5" stroke-linecap="round" stroke-opacity="1.0" stroke="rgb(0, 0, 0)" stroke-linejoin="round" d=" M 339.102, 551.041 349.102, 551.041 350.257, 551.041 " />
            <path fill="none" stroke-width="1.5" stroke-linecap="round" stroke-opacity="1.0" stroke="rgb(0, 0, 0)" stroke-linejoin="round" d=" M 679.320, 559.407 679.320, 559.407 679.320, 569.407 679.320, 570.562 679.320, 570.562 689.320, 570.562 699.320, 570.562 709.320, 570.562 719.320, 570.562 729.320, 570.562 739.320, 570.562 749.320, 570.562 759.320, 570.562 769.320, 570.562 779.320, 570.562 789.320, 570.562 790.867, 570.562 790.867, 570.562 790.867, 560.562 790.867, 559.407 780.867, 559.407 770.867, 559.407 760.867, 559.407 750.867, 559.407 740.867, 559.407 730.867, 559.407 720.867, 559.407 710.867, 559.407 700.867, 559.407 690.867, 559.407 680.867, 559.407 679.320, 559.407 " />
            <path fill="none" stroke-width="1.5" stroke-linecap="round" stroke-opacity="1.0" stroke="rgb(0, 0, 0)" stroke-linejoin="round" d=" M 679.320, 570.562 689.320, 570.562 699.320, 570.562 709.320, 570.562 719.320, 570.562 729.320, 570.562 739.320, 570.562 749.320, 570.562 759.320, 570.562 769.320, 570.562 779.320, 570.562 789.320, 570.562 790.867, 570.562 " />
            <path fill="none" stroke-width="1.5" stroke-linecap="round" stroke-opacity="1.0" stroke="rgb(0, 0, 0)" stroke-linejoin="round" d=" M 679.320, 523.155 673.743, 523.155 673.743, 533.155 673.743, 543.155 673.743, 551.041 673.743, 551.041 679.320, 551.041 " />
            <path fill="none" stroke-width="1.5" stroke-linecap="round" stroke-opacity="1.0" stroke="rgb(0, 0, 0)" stroke-linejoin="round" d=" M 673.743, 551.041 679.320, 551.041 " />
            <path fill="none" stroke-width="1.5" stroke-linecap="round" stroke-opacity="1.0" stroke="rgb(0, 0, 0)" stroke-linejoin="round" d=" M 790.867, 551.041 796.444, 551.041 796.444, 551.041 796.444, 541.041 796.444, 531.041 796.444, 523.155 796.444, 523.155 790.867, 523.155 " />
            <path fill="none" stroke-width="1.5" stroke-linecap="round" stroke-opacity="1.0" stroke="rgb(0, 0, 0)" stroke-linejoin="round" d=" M 344.680, 453.438 334.680, 453.438 324.680, 453.438 314.680, 453.438 304.680, 453.438 294.680, 453.438 284.680, 453.438 274.680, 453.438 264.680, 453.438 254.680, 453.438 244.680, 453.438 234.680, 453.438 233.133, 453.438 " />
            <path fill="none" stroke-width="1.5" stroke-linecap="round" stroke-opacity="1.0" stroke="rgb(0, 0, 0)" stroke-linejoin="round" d=" M 679.320, 523.155 679.320, 523.155 679.320, 533.155 679.320, 543.155 679.320, 551.041 679.320, 551.041 " />
            <path fill="none" stroke-width="1.5" stroke-linecap="round" stroke-opacity="1.0" stroke="rgb(0, 0, 0)" stroke-linejoin="round" d=" M 785.290, 551.041 790.867, 551.041 " />
            <path fill="none" stroke-width="1.5" stroke-linecap="round" stroke-opacity="1.0" stroke="rgb(0, 0, 0)" stroke-linejoin="round" d=" M 684.898, 551.041 694.898, 551.041 704.898, 551.041 714.898, 551.041 724.898, 551.041 734.898, 551.041 744.898, 551.041 754.898, 551.041 764.898, 551.041 774.898, 551.041 785.290, 551.041 " />
            <path fill="none" stroke-width="1.5" stroke-linecap="round" stroke-opacity="1.0" stroke="rgb(0, 0, 0)" stroke-linejoin="round" d=" M 679.320, 551.041 684.898, 551.041 " />
            <path fill="none" stroke-width="1.5" stroke-linecap="round" stroke-opacity="1.0" stroke="rgb(0, 0, 0)" stroke-linejoin="round" d=" M 790.867, 551.041 790.867, 551.041 790.867, 541.041 790.867, 531.041 790.867, 523.155 790.867, 523.155 " />
            <path fill="none" stroke-width="1.5" stroke-linecap="round" stroke-opacity="1.0" stroke="rgb(0, 0, 0)" stroke-linejoin="round" d=" M 684.898, 523.155 679.320, 523.155 " />
            <path fill="none" stroke-width="1.5" stroke-linecap="round" stroke-opacity="1.0" stroke="rgb(0, 0, 0)" stroke-linejoin="round" d=" M 785.290, 523.155 775.290, 523.155 765.290, 523.155 755.290, 523.155 745.290, 523.155 735.290, 523.155 725.290, 523.155 715.290, 523.155 705.290, 523.155 695.290, 523.155 684.898, 523.155 " />
            <path fill="none" stroke-width="1.5" stroke-linecap="round" stroke-opacity="1.0" stroke="rgb(0, 0, 0)" stroke-linejoin="round" d=" M 790.867, 523.155 785.290, 523.155 " />
            <path fill="none" stroke-width="1.5" stroke-linecap="round" stroke-opacity="1.0" stroke="rgb(0, 0, 0)" stroke-linejoin="round" d=" M 790.867, 551.041 796.444, 551.041 " />
        </g>
    </g>
    <g id="ViewLayer_TechnicalLines.004" xmlns:inkscape="http://www.inkscape.org/namespaces/inkscape" inkscape:groupmode="lineset" inkscape:label="ViewLayer_TechnicalLines.004">
        <g xmlns:inkscape="http://www.inkscape.org/namespaces/inkscape" inkscape:groupmode="layer" id="strokes" inkscape:label="strokes">
            <path fill="none" stroke-width="1.5" stroke-linecap="round" stroke-opacity="1.0" stroke="rgb(0, 0, 0)" stroke-linejoin="round" d=" M 233.133, 559.407 233.133, 569.407 233.133, 570.562 233.133, 570.562 243.133, 570.562 253.133, 570.562 263.133, 570.562 273.133, 570.562 283.133, 570.562 293.133, 570.562 303.133, 570.562 313.133, 570.562 323.133, 570.562 333.133, 570.562 343.133, 570.562 344.680, 570.562 344.680, 570.562 344.680, 560.562 344.680, 559.407 344.680, 559.407 334.680, 559.407 324.680, 559.407 314.680, 559.407 304.680, 559.407 294.680, 559.407 284.680, 559.407 274.680, 559.407 264.680, 559.407 254.680, 559.407 244.680, 559.407 234.680, 559.407 233.133, 559.407 " />
            <path fill="none" stroke-width="1.5" stroke-linecap="round" stroke-opacity="1.0" stroke="rgb(0, 0, 0)" stroke-linejoin="round" d=" M 233.133, 570.562 243.133, 570.562 253.133, 570.562 263.133, 570.562 273.133, 570.562 283.133, 570.562 293.133, 570.562 303.133, 570.562 313.133, 570.562 323.133, 570.562 333.133, 570.562 343.133, 570.562 344.680, 570.562 " />
            <path fill="none" stroke-width="1.5" stroke-linecap="round" stroke-opacity="1.0" stroke="rgb(0, 0, 0)" stroke-linejoin="round" d=" M 233.133, 453.438 233.133, 463.438 233.133, 473.438 233.133, 483.438 233.133, 493.438 233.133, 503.438 233.133, 509.211 243.133, 509.211 253.133, 509.211 263.133, 509.211 273.133, 509.211 283.133, 509.211 293.133, 509.211 303.133, 509.211 313.133, 509.211 323.133, 509.211 333.133, 509.211 343.133, 509.211 344.680, 509.211 344.680, 499.211 344.680, 489.211 344.680, 479.211 344.680, 469.211 344.680, 459.211 344.680, 453.438 " />
            <path fill="none" stroke-width="1.5" stroke-linecap="round" stroke-opacity="1.0" stroke="rgb(0, 0, 0)" stroke-linejoin="round" d=" M 227.556, 523.155 227.556, 533.155 227.556, 543.155 227.556, 551.041 227.556, 551.041 237.556, 551.041 238.710, 551.041 238.710, 551.041 238.710, 541.041 238.710, 531.041 238.710, 523.155 238.710, 523.155 228.710, 523.155 227.556, 523.155 " />
            <path fill="none" stroke-width="1.5" stroke-linecap="round" stroke-opacity="1.0" stroke="rgb(0, 0, 0)" stroke-linejoin="round" d=" M 227.556, 551.041 237.556, 551.041 238.710, 551.041 " />
            <path fill="none" stroke-width="1.5" stroke-linecap="round" stroke-opacity="1.0" stroke="rgb(0, 0, 0)" stroke-linejoin="round" d=" M 339.102, 523.155 339.102, 533.155 339.102, 543.155 339.102, 551.041 339.102, 551.041 349.102, 551.041 350.257, 551.041 350.257, 551.041 350.257, 541.041 350.257, 531.041 350.257, 523.155 350.257, 523.155 340.257, 523.155 339.102, 523.155 " />
            <path fill="none" stroke-width="1.5" stroke-linecap="round" stroke-opacity="1.0" stroke="rgb(0, 0, 0)" stroke-linejoin="round" d=" M 339.102, 551.041 349.102, 551.041 350.257, 551.041 " />
            <path fill="none" stroke-width="1.5" stroke-linecap="round" stroke-opacity="1.0" stroke="rgb(0, 0, 0)" stroke-linejoin="round" d=" M 679.320, 559.407 679.320, 559.407 679.320, 569.407 679.320, 570.562 679.320, 570.562 689.320, 570.562 699.320, 570.562 709.320, 570.562 719.320, 570.562 729.320, 570.562 739.320, 570.562 749.320, 570.562 759.320, 570.562 769.320, 570.562 779.320, 570.562 789.320, 570.562 790.867, 570.562 790.867, 570.562 790.867, 560.562 790.867, 559.407 780.867, 559.407 770.867, 559.407 760.867, 559.407 750.867, 559.407 740.867, 559.407 730.867, 559.407 720.867, 559.407 710.867, 559.407 700.867, 559.407 690.867, 559.407 680.867, 559.407 679.320, 559.407 " />
            <path fill="none" stroke-width="1.5" stroke-linecap="round" stroke-opacity="1.0" stroke="rgb(0, 0, 0)" stroke-linejoin="round" d=" M 679.320, 570.562 689.320, 570.562 699.320, 570.562 709.320, 570.562 719.320, 570.562 729.320, 570.562 739.320, 570.562 749.320, 570.562 759.320, 570.562 769.320, 570.562 779.320, 570.562 789.320, 570.562 790.867, 570.562 " />
            <path fill="none" stroke-width="1.5" stroke-linecap="round" stroke-opacity="1.0" stroke="rgb(0, 0, 0)" stroke-linejoin="round" d=" M 679.320, 523.155 673.743, 523.155 673.743, 533.155 673.743, 543.155 673.743, 551.041 673.743, 551.041 679.320, 551.041 " />
            <path fill="none" stroke-width="1.5" stroke-linecap="round" stroke-opacity="1.0" stroke="rgb(0, 0, 0)" stroke-linejoin="round" d=" M 673.743, 551.041 679.320, 551.041 " />
            <path fill="none" stroke-width="1.5" stroke-linecap="round" stroke-opacity="1.0" stroke="rgb(0, 0, 0)" stroke-linejoin="round" d=" M 790.867, 551.041 796.444, 551.041 796.444, 551.041 796.444, 541.041 796.444, 531.041 796.444, 523.155 796.444, 523.155 790.867, 523.155 " />
            <path fill="none" stroke-width="1.5" stroke-linecap="round" stroke-opacity="1.0" stroke="rgb(0, 0, 0)" stroke-linejoin="round" d=" M 344.680, 453.438 334.680, 453.438 324.680, 453.438 314.680, 453.438 304.680, 453.438 294.680, 453.438 284.680, 453.438 274.680, 453.438 264.680, 453.438 254.680, 453.438 244.680, 453.438 234.680, 453.438 233.133, 453.438 " />
            <path fill="none" stroke-width="1.5" stroke-linecap="round" stroke-opacity="1.0" stroke="rgb(0, 0, 0)" stroke-linejoin="round" d=" M 679.320, 523.155 679.320, 523.155 679.320, 533.155 679.320, 543.155 679.320, 551.041 679.320, 551.041 " />
            <path fill="none" stroke-width="1.5" stroke-linecap="round" stroke-opacity="1.0" stroke="rgb(0, 0, 0)" stroke-linejoin="round" d=" M 785.290, 551.041 790.867, 551.041 " />
            <path fill="none" stroke-width="1.5" stroke-linecap="round" stroke-opacity="1.0" stroke="rgb(0, 0, 0)" stroke-linejoin="round" d=" M 684.898, 551.041 694.898, 551.041 704.898, 551.041 714.898, 551.041 724.898, 551.041 734.898, 551.041 744.898, 551.041 754.898, 551.041 764.898, 551.041 774.898, 551.041 785.290, 551.041 " />
            <path fill="none" stroke-width="1.5" stroke-linecap="round" stroke-opacity="1.0" stroke="rgb(0, 0, 0)" stroke-linejoin="round" d=" M 679.320, 551.041 684.898, 551.041 " />
            <path fill="none" stroke-width="1.5" stroke-linecap="round" stroke-opacity="1.0" stroke="rgb(0, 0, 0)" stroke-linejoin="round" d=" M 790.867, 551.041 790.867, 551.041 790.867, 541.041 790.867, 531.041 790.867, 523.155 790.867, 523.155 " />
            <path fill="none" stroke-width="1.5" stroke-linecap="round" stroke-opacity="1.0" stroke="rgb(0, 0, 0)" stroke-linejoin="round" d=" M 684.898, 523.155 679.320, 523.155 " />
            <path fill="none" stroke-width="1.5" stroke-linecap="round" stroke-opacity="1.0" stroke="rgb(0, 0, 0)" stroke-linejoin="round" d=" M 785.290, 523.155 775.290, 523.155 765.290, 523.155 755.290, 523.155 745.290, 523.155 735.290, 523.155 725.290, 523.155 715.290, 523.155 705.290, 523.155 695.290, 523.155 684.898, 523.155 " />
            <path fill="none" stroke-width="1.5" stroke-linecap="round" stroke-opacity="1.0" stroke="rgb(0, 0, 0)" stroke-linejoin="round" d=" M 790.867, 523.155 785.290, 523.155 " />
            <path fill="none" stroke-width="1.5" stroke-linecap="round" stroke-opacity="1.0" stroke="rgb(0, 0, 0)" stroke-linejoin="round" d=" M 790.867, 551.041 796.444, 551.041 " />
        </g>
    </g>
</svg>
