<?xml version='1.0' encoding='ascii'?>
<svg xmlns="http://www.w3.org/2000/svg" xmlns:inkscape="http://www.inkscape.org/namespaces/inkscape" version="1.1" width="1024" height="1024">
    <g id="ViewLayer_LineSet" inkscape:groupmode="lineset" inkscape:label="ViewLayer_LineSet">
        <g inkscape:groupmode="layer" id="strokes" inkscape:label="strokes">
            <path fill="none" stroke-width="3.0" stroke-linecap="butt" stroke-opacity="1.0" stroke="rgb(0, 0, 0)" stroke-linejoin="round" d=" M 434.424, 466.747 434.424, 476.747 434.424, 486.747 434.424, 496.747 434.424, 506.747 434.424, 516.747 434.424, 526.747 434.424, 536.747 434.424, 544.323 " />
            <path fill="none" stroke-width="3.0" stroke-linecap="butt" stroke-opacity="1.0" stroke="rgb(0, 0, 0)" stroke-linejoin="round" d=" M 589.576, 621.899 589.576, 611.899 589.576, 601.899 589.576, 591.899 589.576, 581.899 589.576, 571.899 589.576, 561.899 589.576, 557.253 " />
            <path fill="none" stroke-width="3.0" stroke-linecap="butt" stroke-opacity="1.0" stroke="rgb(0, 0, 0)" stroke-linejoin="round" d=" M 434.424, 557.253 434.424, 567.253 434.424, 577.253 434.424, 587.253 434.424, 597.253 434.424, 607.253 434.424, 617.253 434.424, 621.899 " />
            <path fill="none" stroke-width="3.0" stroke-linecap="butt" stroke-opacity="1.0" stroke="rgb(0, 0, 0)" stroke-linejoin="round" d=" M 434.424, 544.323 434.424, 554.323 434.424, 557.253 " />
            <path fill="none" stroke-width="3.0" stroke-linecap="butt" stroke-opacity="1.0" stroke="rgb(0, 0, 0)" stroke-linejoin="round" d=" M 434.424, 415.030 434.424, 425.030 434.424, 435.030 434.424, 445.030 434.424, 455.030 434.424, 465.030 434.424, 466.747 " />
            <path fill="none" stroke-width="3.0" stroke-linecap="butt" stroke-opacity="1.0" stroke="rgb(0, 0, 0)" stroke-linejoin="round" d=" M 434.424, 402.101 434.424, 412.101 434.424, 415.030 " />
            <path fill="none" stroke-width="3.0" stroke-linecap="butt" stroke-opacity="1.0" stroke="rgb(0, 0, 0)" stroke-linejoin="round" d=" M 434.424, 621.899 444.424, 621.899 454.424, 621.899 464.424, 621.899 474.424, 621.899 484.424, 621.899 494.424, 621.899 504.424, 621.899 514.424, 621.899 524.424, 621.899 534.424, 621.899 544.424, 621.899 554.424, 621.899 564.424, 621.899 574.424, 621.899 584.424, 621.899 589.576, 621.899 " />
            <path fill="none" stroke-width="3.0" stroke-linecap="butt" stroke-opacity="1.0" stroke="rgb(0, 0, 0)" stroke-linejoin="round" d=" M 589.576, 466.747 579.576, 466.747 569.576, 466.747 559.576, 466.747 549.576, 466.747 539.576, 466.747 529.576, 466.747 519.576, 466.747 509.576, 466.747 499.576, 466.747 489.576, 466.747 479.576, 466.747 469.576, 466.747 459.576, 466.747 449.576, 466.747 439.576, 466.747 434.424, 466.747 " />
            <path fill="none" stroke-width="3.0" stroke-linecap="butt" stroke-opacity="1.0" stroke="rgb(0, 0, 0)" stroke-linejoin="round" d=" M 589.576, 544.323 589.576, 534.323 589.576, 524.323 589.576, 514.323 589.576, 504.323 589.576, 494.323 589.576, 484.323 589.576, 474.323 589.576, 466.747 " />
            <path fill="none" stroke-width="3.0" stroke-linecap="butt" stroke-opacity="1.0" stroke="rgb(0, 0, 0)" stroke-linejoin="round" d=" M 589.576, 557.253 589.576, 547.253 589.576, 544.323 " />
            <path fill="none" stroke-width="3.0" stroke-linecap="butt" stroke-opacity="1.0" stroke="rgb(0, 0, 0)" stroke-linejoin="round" d=" M 447.354, 402.101 437.354, 402.101 434.424, 402.101 " />
            <path fill="none" stroke-width="3.0" stroke-linecap="butt" stroke-opacity="1.0" stroke="rgb(0, 0, 0)" stroke-linejoin="round" d=" M 576.646, 402.101 566.646, 402.101 556.646, 402.101 546.646, 402.101 536.646, 402.101 526.646, 402.101 516.646, 402.101 506.646, 402.101 496.646, 402.101 486.646, 402.101 476.646, 402.101 466.646, 402.101 456.646, 402.101 447.354, 402.101 " />
            <path fill="none" stroke-width="3.0" stroke-linecap="butt" stroke-opacity="1.0" stroke="rgb(0, 0, 0)" stroke-linejoin="round" d=" M 589.576, 402.101 579.576, 402.101 576.646, 402.101 " />
            <path fill="none" stroke-width="3.0" stroke-linecap="butt" stroke-opacity="1.0" stroke="rgb(0, 0, 0)" stroke-linejoin="round" d=" M 589.576, 415.030 589.576, 405.030 589.576, 402.101 " />
            <path fill="none" stroke-width="3.0" stroke-linecap="butt" stroke-opacity="1.0" stroke="rgb(0, 0, 0)" stroke-linejoin="round" d=" M 589.576, 466.747 589.576, 456.747 589.576, 446.747 589.576, 436.747 589.576, 426.747 589.576, 416.747 589.576, 415.030 " />
        </g>
    </g>
    <g id="ViewLayer_TechnicalLines" inkscape:groupmode="lineset" inkscape:label="ViewLayer_TechnicalLines">
        <g inkscape:groupmode="layer" id="strokes" inkscape:label="strokes">
            <path fill="none" stroke-width="3.0" stroke-linecap="butt" stroke-opacity="1.0" stroke="rgb(0, 0, 0)" stroke-linejoin="round" d=" M 434.424, 466.747 434.424, 476.747 434.424, 486.747 434.424, 496.747 434.424, 506.747 434.424, 516.747 434.424, 526.747 434.424, 536.747 434.424, 544.323 " />
            <path fill="none" stroke-width="3.0" stroke-linecap="butt" stroke-opacity="1.0" stroke="rgb(0, 0, 0)" stroke-linejoin="round" d=" M 589.576, 621.899 589.576, 611.899 589.576, 601.899 589.576, 591.899 589.576, 581.899 589.576, 571.899 589.576, 561.899 589.576, 557.253 " />
            <path fill="none" stroke-width="3.0" stroke-linecap="butt" stroke-opacity="1.0" stroke="rgb(0, 0, 0)" stroke-linejoin="round" d=" M 434.424, 557.253 434.424, 567.253 434.424, 577.253 434.424, 587.253 434.424, 597.253 434.424, 607.253 434.424, 617.253 434.424, 621.899 " />
            <path fill="none" stroke-width="3.0" stroke-linecap="butt" stroke-opacity="1.0" stroke="rgb(0, 0, 0)" stroke-linejoin="round" d=" M 434.424, 544.323 434.424, 554.323 434.424, 557.253 " />
            <path fill="none" stroke-width="3.0" stroke-linecap="butt" stroke-opacity="1.0" stroke="rgb(0, 0, 0)" stroke-linejoin="round" d=" M 434.424, 415.030 434.424, 425.030 434.424, 435.030 434.424, 445.030 434.424, 455.030 434.424, 465.030 434.424, 466.747 " />
            <path fill="none" stroke-width="3.0" stroke-linecap="butt" stroke-opacity="1.0" stroke="rgb(0, 0, 0)" stroke-linejoin="round" d=" M 434.424, 402.101 434.424, 412.101 434.424, 415.030 " />
            <path fill="none" stroke-width="3.0" stroke-linecap="butt" stroke-opacity="1.0" stroke="rgb(0, 0, 0)" stroke-linejoin="round" d=" M 434.424, 621.899 444.424, 621.899 454.424, 621.899 464.424, 621.899 474.424, 621.899 484.424, 621.899 494.424, 621.899 504.424, 621.899 514.424, 621.899 524.424, 621.899 534.424, 621.899 544.424, 621.899 554.424, 621.899 564.424, 621.899 574.424, 621.899 584.424, 621.899 589.576, 621.899 " />
            <path fill="none" stroke-width="3.0" stroke-linecap="butt" stroke-opacity="1.0" stroke="rgb(0, 0, 0)" stroke-linejoin="round" d=" M 589.576, 466.747 579.576, 466.747 569.576, 466.747 559.576, 466.747 549.576, 466.747 539.576, 466.747 529.576, 466.747 519.576, 466.747 509.576, 466.747 499.576, 466.747 489.576, 466.747 479.576, 466.747 469.576, 466.747 459.576, 466.747 449.576, 466.747 439.576, 466.747 434.424, 466.747 " />
            <path fill="none" stroke-width="3.0" stroke-linecap="butt" stroke-opacity="1.0" stroke="rgb(0, 0, 0)" stroke-linejoin="round" d=" M 589.576, 544.323 589.576, 534.323 589.576, 524.323 589.576, 514.323 589.576, 504.323 589.576, 494.323 589.576, 484.323 589.576, 474.323 589.576, 466.747 " />
            <path fill="none" stroke-width="3.0" stroke-linecap="butt" stroke-opacity="1.0" stroke="rgb(0, 0, 0)" stroke-linejoin="round" d=" M 589.576, 557.253 589.576, 547.253 589.576, 544.323 " />
            <path fill="none" stroke-width="3.0" stroke-linecap="butt" stroke-opacity="1.0" stroke="rgb(0, 0, 0)" stroke-linejoin="round" d=" M 447.354, 402.101 437.354, 402.101 434.424, 402.101 " />
            <path fill="none" stroke-width="3.0" stroke-linecap="butt" stroke-opacity="1.0" stroke="rgb(0, 0, 0)" stroke-linejoin="round" d=" M 576.646, 402.101 566.646, 402.101 556.646, 402.101 546.646, 402.101 536.646, 402.101 526.646, 402.101 516.646, 402.101 506.646, 402.101 496.646, 402.101 486.646, 402.101 476.646, 402.101 466.646, 402.101 456.646, 402.101 447.354, 402.101 " />
            <path fill="none" stroke-width="3.0" stroke-linecap="butt" stroke-opacity="1.0" stroke="rgb(0, 0, 0)" stroke-linejoin="round" d=" M 589.576, 402.101 579.576, 402.101 576.646, 402.101 " />
            <path fill="none" stroke-width="3.0" stroke-linecap="butt" stroke-opacity="1.0" stroke="rgb(0, 0, 0)" stroke-linejoin="round" d=" M 589.576, 415.030 589.576, 405.030 589.576, 402.101 " />
            <path fill="none" stroke-width="3.0" stroke-linecap="butt" stroke-opacity="1.0" stroke="rgb(0, 0, 0)" stroke-linejoin="round" d=" M 589.576, 466.747 589.576, 456.747 589.576, 446.747 589.576, 436.747 589.576, 426.747 589.576, 416.747 589.576, 415.030 " />
        </g>
    </g>
    <g id="ViewLayer_TechnicalLines.001" inkscape:groupmode="lineset" inkscape:label="ViewLayer_TechnicalLines.001">
        <g inkscape:groupmode="layer" id="strokes" inkscape:label="strokes">
            <path fill="none" stroke-width="1.5" stroke-linecap="round" stroke-opacity="1.0" stroke="rgb(0, 0, 0)" stroke-linejoin="round" d=" M 434.424, 466.747 434.424, 476.747 434.424, 486.747 434.424, 496.747 434.424, 506.747 434.424, 516.747 434.424, 526.747 434.424, 536.747 434.424, 544.323 " />
            <path fill="none" stroke-width="1.5" stroke-linecap="round" stroke-opacity="1.0" stroke="rgb(0, 0, 0)" stroke-linejoin="round" d=" M 589.576, 621.899 589.576, 611.899 589.576, 601.899 589.576, 591.899 589.576, 581.899 589.576, 571.899 589.576, 561.899 589.576, 557.253 " />
            <path fill="none" stroke-width="1.5" stroke-linecap="round" stroke-opacity="1.0" stroke="rgb(0, 0, 0)" stroke-linejoin="round" d=" M 434.424, 557.253 434.424, 567.253 434.424, 577.253 434.424, 587.253 434.424, 597.253 434.424, 607.253 434.424, 617.253 434.424, 621.899 " />
            <path fill="none" stroke-width="1.5" stroke-linecap="round" stroke-opacity="1.0" stroke="rgb(0, 0, 0)" stroke-linejoin="round" d=" M 434.424, 544.323 434.424, 554.323 434.424, 557.253 " />
            <path fill="none" stroke-width="1.5" stroke-linecap="round" stroke-opacity="1.0" stroke="rgb(0, 0, 0)" stroke-linejoin="round" d=" M 434.424, 415.030 434.424, 425.030 434.424, 435.030 434.424, 445.030 434.424, 455.030 434.424, 465.030 434.424, 466.747 " />
            <path fill="none" stroke-width="1.5" stroke-linecap="round" stroke-opacity="1.0" stroke="rgb(0, 0, 0)" stroke-linejoin="round" d=" M 434.424, 402.101 434.424, 412.101 434.424, 415.030 " />
            <path fill="none" stroke-width="1.5" stroke-linecap="round" stroke-opacity="1.0" stroke="rgb(0, 0, 0)" stroke-linejoin="round" d=" M 434.424, 621.899 444.424, 621.899 454.424, 621.899 464.424, 621.899 474.424, 621.899 484.424, 621.899 494.424, 621.899 504.424, 621.899 514.424, 621.899 524.424, 621.899 534.424, 621.899 544.424, 621.899 554.424, 621.899 564.424, 621.899 574.424, 621.899 584.424, 621.899 589.576, 621.899 " />
            <path fill="none" stroke-width="1.5" stroke-linecap="round" stroke-opacity="1.0" stroke="rgb(0, 0, 0)" stroke-linejoin="round" d=" M 589.576, 466.747 579.576, 466.747 569.576, 466.747 559.576, 466.747 549.576, 466.747 539.576, 466.747 529.576, 466.747 519.576, 466.747 509.576, 466.747 499.576, 466.747 489.576, 466.747 479.576, 466.747 469.576, 466.747 459.576, 466.747 449.576, 466.747 439.576, 466.747 434.424, 466.747 " />
            <path fill="none" stroke-width="1.5" stroke-linecap="round" stroke-opacity="1.0" stroke="rgb(0, 0, 0)" stroke-linejoin="round" d=" M 589.576, 544.323 589.576, 534.323 589.576, 524.323 589.576, 514.323 589.576, 504.323 589.576, 494.323 589.576, 484.323 589.576, 474.323 589.576, 466.747 " />
            <path fill="none" stroke-width="1.5" stroke-linecap="round" stroke-opacity="1.0" stroke="rgb(0, 0, 0)" stroke-linejoin="round" d=" M 589.576, 557.253 589.576, 547.253 589.576, 544.323 " />
            <path fill="none" stroke-width="1.5" stroke-linecap="round" stroke-opacity="1.0" stroke="rgb(0, 0, 0)" stroke-linejoin="round" d=" M 447.354, 402.101 437.354, 402.101 434.424, 402.101 " />
            <path fill="none" stroke-width="1.5" stroke-linecap="round" stroke-opacity="1.0" stroke="rgb(0, 0, 0)" stroke-linejoin="round" d=" M 576.646, 402.101 566.646, 402.101 556.646, 402.101 546.646, 402.101 536.646, 402.101 526.646, 402.101 516.646, 402.101 506.646, 402.101 496.646, 402.101 486.646, 402.101 476.646, 402.101 466.646, 402.101 456.646, 402.101 447.354, 402.101 " />
            <path fill="none" stroke-width="1.5" stroke-linecap="round" stroke-opacity="1.0" stroke="rgb(0, 0, 0)" stroke-linejoin="round" d=" M 589.576, 402.101 579.576, 402.101 576.646, 402.101 " />
            <path fill="none" stroke-width="1.5" stroke-linecap="round" stroke-opacity="1.0" stroke="rgb(0, 0, 0)" stroke-linejoin="round" d=" M 589.576, 415.030 589.576, 405.030 589.576, 402.101 " />
            <path fill="none" stroke-width="1.5" stroke-linecap="round" stroke-opacity="1.0" stroke="rgb(0, 0, 0)" stroke-linejoin="round" d=" M 589.576, 466.747 589.576, 456.747 589.576, 446.747 589.576, 436.747 589.576, 426.747 589.576, 416.747 589.576, 415.030 " />
        </g>
    </g>
    <g id="ViewLayer_TechnicalLines.002" inkscape:groupmode="lineset" inkscape:label="ViewLayer_TechnicalLines.002">
        <g inkscape:groupmode="layer" id="strokes" inkscape:label="strokes">
            <path fill="none" stroke-width="1.5" stroke-linecap="round" stroke-opacity="1.0" stroke="rgb(0, 0, 0)" stroke-linejoin="round" d=" M 434.424, 466.747 434.424, 476.747 434.424, 486.747 434.424, 496.747 434.424, 506.747 434.424, 516.747 434.424, 526.747 434.424, 536.747 434.424, 544.323 " />
            <path fill="none" stroke-width="1.5" stroke-linecap="round" stroke-opacity="1.0" stroke="rgb(0, 0, 0)" stroke-linejoin="round" d=" M 589.576, 621.899 589.576, 611.899 589.576, 601.899 589.576, 591.899 589.576, 581.899 589.576, 571.899 589.576, 561.899 589.576, 557.253 " />
            <path fill="none" stroke-width="1.5" stroke-linecap="round" stroke-opacity="1.0" stroke="rgb(0, 0, 0)" stroke-linejoin="round" d=" M 434.424, 557.253 434.424, 567.253 434.424, 577.253 434.424, 587.253 434.424, 597.253 434.424, 607.253 434.424, 617.253 434.424, 621.899 " />
            <path fill="none" stroke-width="1.5" stroke-linecap="round" stroke-opacity="1.0" stroke="rgb(0, 0, 0)" stroke-linejoin="round" d=" M 434.424, 544.323 434.424, 554.323 434.424, 557.253 " />
            <path fill="none" stroke-width="1.5" stroke-linecap="round" stroke-opacity="1.0" stroke="rgb(0, 0, 0)" stroke-linejoin="round" d=" M 434.424, 415.030 434.424, 425.030 434.424, 435.030 434.424, 445.030 434.424, 455.030 434.424, 465.030 434.424, 466.747 " />
            <path fill="none" stroke-width="1.5" stroke-linecap="round" stroke-opacity="1.0" stroke="rgb(0, 0, 0)" stroke-linejoin="round" d=" M 434.424, 402.101 434.424, 412.101 434.424, 415.030 " />
            <path fill="none" stroke-width="1.5" stroke-linecap="round" stroke-opacity="1.0" stroke="rgb(0, 0, 0)" stroke-linejoin="round" d=" M 434.424, 621.899 444.424, 621.899 454.424, 621.899 464.424, 621.899 474.424, 621.899 484.424, 621.899 494.424, 621.899 504.424, 621.899 514.424, 621.899 524.424, 621.899 534.424, 621.899 544.424, 621.899 554.424, 621.899 564.424, 621.899 574.424, 621.899 584.424, 621.899 589.576, 621.899 " />
            <path fill="none" stroke-width="1.5" stroke-linecap="round" stroke-opacity="1.0" stroke="rgb(0, 0, 0)" stroke-linejoin="round" d=" M 589.576, 466.747 579.576, 466.747 569.576, 466.747 559.576, 466.747 549.576, 466.747 539.576, 466.747 529.576, 466.747 519.576, 466.747 509.576, 466.747 499.576, 466.747 489.576, 466.747 479.576, 466.747 469.576, 466.747 459.576, 466.747 449.576, 466.747 439.576, 466.747 434.424, 466.747 " />
            <path fill="none" stroke-width="1.5" stroke-linecap="round" stroke-opacity="1.0" stroke="rgb(0, 0, 0)" stroke-linejoin="round" d=" M 589.576, 544.323 589.576, 534.323 589.576, 524.323 589.576, 514.323 589.576, 504.323 589.576, 494.323 589.576, 484.323 589.576, 474.323 589.576, 466.747 " />
            <path fill="none" stroke-width="1.5" stroke-linecap="round" stroke-opacity="1.0" stroke="rgb(0, 0, 0)" stroke-linejoin="round" d=" M 589.576, 557.253 589.576, 547.253 589.576, 544.323 " />
            <path fill="none" stroke-width="1.5" stroke-linecap="round" stroke-opacity="1.0" stroke="rgb(0, 0, 0)" stroke-linejoin="round" d=" M 447.354, 402.101 437.354, 402.101 434.424, 402.101 " />
            <path fill="none" stroke-width="1.5" stroke-linecap="round" stroke-opacity="1.0" stroke="rgb(0, 0, 0)" stroke-linejoin="round" d=" M 576.646, 402.101 566.646, 402.101 556.646, 402.101 546.646, 402.101 536.646, 402.101 526.646, 402.101 516.646, 402.101 506.646, 402.101 496.646, 402.101 486.646, 402.101 476.646, 402.101 466.646, 402.101 456.646, 402.101 447.354, 402.101 " />
            <path fill="none" stroke-width="1.5" stroke-linecap="round" stroke-opacity="1.0" stroke="rgb(0, 0, 0)" stroke-linejoin="round" d=" M 589.576, 402.101 579.576, 402.101 576.646, 402.101 " />
            <path fill="none" stroke-width="1.5" stroke-linecap="round" stroke-opacity="1.0" stroke="rgb(0, 0, 0)" stroke-linejoin="round" d=" M 589.576, 415.030 589.576, 405.030 589.576, 402.101 " />
            <path fill="none" stroke-width="1.5" stroke-linecap="round" stroke-opacity="1.0" stroke="rgb(0, 0, 0)" stroke-linejoin="round" d=" M 589.576, 466.747 589.576, 456.747 589.576, 446.747 589.576, 436.747 589.576, 426.747 589.576, 416.747 589.576, 415.030 " />
        </g>
    </g>
    <g id="ViewLayer_TechnicalLines.003" inkscape:groupmode="lineset" inkscape:label="ViewLayer_TechnicalLines.003">
        <g inkscape:groupmode="layer" id="strokes" inkscape:label="strokes">
            <path fill="none" stroke-width="1.5" stroke-linecap="round" stroke-opacity="1.0" stroke="rgb(0, 0, 0)" stroke-linejoin="round" d=" M 434.424, 466.747 434.424, 476.747 434.424, 486.747 434.424, 496.747 434.424, 506.747 434.424, 516.747 434.424, 526.747 434.424, 536.747 434.424, 544.323 " />
            <path fill="none" stroke-width="1.5" stroke-linecap="round" stroke-opacity="1.0" stroke="rgb(0, 0, 0)" stroke-linejoin="round" d=" M 589.576, 621.899 589.576, 611.899 589.576, 601.899 589.576, 591.899 589.576, 581.899 589.576, 571.899 589.576, 561.899 589.576, 557.253 " />
            <path fill="none" stroke-width="1.5" stroke-linecap="round" stroke-opacity="1.0" stroke="rgb(0, 0, 0)" stroke-linejoin="round" d=" M 434.424, 557.253 434.424, 567.253 434.424, 577.253 434.424, 587.253 434.424, 597.253 434.424, 607.253 434.424, 617.253 434.424, 621.899 " />
            <path fill="none" stroke-width="1.5" stroke-linecap="round" stroke-opacity="1.0" stroke="rgb(0, 0, 0)" stroke-linejoin="round" d=" M 434.424, 544.323 434.424, 554.323 434.424, 557.253 " />
            <path fill="none" stroke-width="1.5" stroke-linecap="round" stroke-opacity="1.0" stroke="rgb(0, 0, 0)" stroke-linejoin="round" d=" M 434.424, 415.030 434.424, 425.030 434.424, 435.030 434.424, 445.030 434.424, 455.030 434.424, 465.030 434.424, 466.747 " />
            <path fill="none" stroke-width="1.5" stroke-linecap="round" stroke-opacity="1.0" stroke="rgb(0, 0, 0)" stroke-linejoin="round" d=" M 434.424, 402.101 434.424, 412.101 434.424, 415.030 " />
            <path fill="none" stroke-width="1.5" stroke-linecap="round" stroke-opacity="1.0" stroke="rgb(0, 0, 0)" stroke-linejoin="round" d=" M 434.424, 621.899 444.424, 621.899 454.424, 621.899 464.424, 621.899 474.424, 621.899 484.424, 621.899 494.424, 621.899 504.424, 621.899 514.424, 621.899 524.424, 621.899 534.424, 621.899 544.424, 621.899 554.424, 621.899 564.424, 621.899 574.424, 621.899 584.424, 621.899 589.576, 621.899 " />
            <path fill="none" stroke-width="1.5" stroke-linecap="round" stroke-opacity="1.0" stroke="rgb(0, 0, 0)" stroke-linejoin="round" d=" M 589.576, 466.747 579.576, 466.747 569.576, 466.747 559.576, 466.747 549.576, 466.747 539.576, 466.747 529.576, 466.747 519.576, 466.747 509.576, 466.747 499.576, 466.747 489.576, 466.747 479.576, 466.747 469.576, 466.747 459.576, 466.747 449.576, 466.747 439.576, 466.747 434.424, 466.747 " />
            <path fill="none" stroke-width="1.5" stroke-linecap="round" stroke-opacity="1.0" stroke="rgb(0, 0, 0)" stroke-linejoin="round" d=" M 589.576, 544.323 589.576, 534.323 589.576, 524.323 589.576, 514.323 589.576, 504.323 589.576, 494.323 589.576, 484.323 589.576, 474.323 589.576, 466.747 " />
            <path fill="none" stroke-width="1.5" stroke-linecap="round" stroke-opacity="1.0" stroke="rgb(0, 0, 0)" stroke-linejoin="round" d=" M 589.576, 557.253 589.576, 547.253 589.576, 544.323 " />
            <path fill="none" stroke-width="1.5" stroke-linecap="round" stroke-opacity="1.0" stroke="rgb(0, 0, 0)" stroke-linejoin="round" d=" M 447.354, 402.101 437.354, 402.101 434.424, 402.101 " />
            <path fill="none" stroke-width="1.5" stroke-linecap="round" stroke-opacity="1.0" stroke="rgb(0, 0, 0)" stroke-linejoin="round" d=" M 576.646, 402.101 566.646, 402.101 556.646, 402.101 546.646, 402.101 536.646, 402.101 526.646, 402.101 516.646, 402.101 506.646, 402.101 496.646, 402.101 486.646, 402.101 476.646, 402.101 466.646, 402.101 456.646, 402.101 447.354, 402.101 " />
            <path fill="none" stroke-width="1.5" stroke-linecap="round" stroke-opacity="1.0" stroke="rgb(0, 0, 0)" stroke-linejoin="round" d=" M 589.576, 402.101 579.576, 402.101 576.646, 402.101 " />
            <path fill="none" stroke-width="1.5" stroke-linecap="round" stroke-opacity="1.0" stroke="rgb(0, 0, 0)" stroke-linejoin="round" d=" M 589.576, 415.030 589.576, 405.030 589.576, 402.101 " />
            <path fill="none" stroke-width="1.5" stroke-linecap="round" stroke-opacity="1.0" stroke="rgb(0, 0, 0)" stroke-linejoin="round" d=" M 589.576, 466.747 589.576, 456.747 589.576, 446.747 589.576, 436.747 589.576, 426.747 589.576, 416.747 589.576, 415.030 " />
        </g>
    </g>
    <g id="ViewLayer_TechnicalLines.004" xmlns:inkscape="http://www.inkscape.org/namespaces/inkscape" inkscape:groupmode="lineset" inkscape:label="ViewLayer_TechnicalLines.004">
        <g xmlns:inkscape="http://www.inkscape.org/namespaces/inkscape" inkscape:groupmode="layer" id="strokes" inkscape:label="strokes">
            <path fill="none" stroke-width="1.5" stroke-linecap="round" stroke-opacity="1.0" stroke="rgb(0, 0, 0)" stroke-linejoin="round" d=" M 434.424, 466.747 434.424, 476.747 434.424, 486.747 434.424, 496.747 434.424, 506.747 434.424, 516.747 434.424, 526.747 434.424, 536.747 434.424, 544.323 " />
            <path fill="none" stroke-width="1.5" stroke-linecap="round" stroke-opacity="1.0" stroke="rgb(0, 0, 0)" stroke-linejoin="round" d=" M 589.576, 621.899 589.576, 611.899 589.576, 601.899 589.576, 591.899 589.576, 581.899 589.576, 571.899 589.576, 561.899 589.576, 557.253 " />
            <path fill="none" stroke-width="1.5" stroke-linecap="round" stroke-opacity="1.0" stroke="rgb(0, 0, 0)" stroke-linejoin="round" d=" M 434.424, 557.253 434.424, 567.253 434.424, 577.253 434.424, 587.253 434.424, 597.253 434.424, 607.253 434.424, 617.253 434.424, 621.899 " />
            <path fill="none" stroke-width="1.5" stroke-linecap="round" stroke-opacity="1.0" stroke="rgb(0, 0, 0)" stroke-linejoin="round" d=" M 434.424, 544.323 434.424, 554.323 434.424, 557.253 " />
            <path fill="none" stroke-width="1.5" stroke-linecap="round" stroke-opacity="1.0" stroke="rgb(0, 0, 0)" stroke-linejoin="round" d=" M 434.424, 415.030 434.424, 425.030 434.424, 435.030 434.424, 445.030 434.424, 455.030 434.424, 465.030 434.424, 466.747 " />
            <path fill="none" stroke-width="1.5" stroke-linecap="round" stroke-opacity="1.0" stroke="rgb(0, 0, 0)" stroke-linejoin="round" d=" M 434.424, 402.101 434.424, 412.101 434.424, 415.030 " />
            <path fill="none" stroke-width="1.5" stroke-linecap="round" stroke-opacity="1.0" stroke="rgb(0, 0, 0)" stroke-linejoin="round" d=" M 434.424, 621.899 444.424, 621.899 454.424, 621.899 464.424, 621.899 474.424, 621.899 484.424, 621.899 494.424, 621.899 504.424, 621.899 514.424, 621.899 524.424, 621.899 534.424, 621.899 544.424, 621.899 554.424, 621.899 564.424, 621.899 574.424, 621.899 584.424, 621.899 589.576, 621.899 " />
            <path fill="none" stroke-width="1.5" stroke-linecap="round" stroke-opacity="1.0" stroke="rgb(0, 0, 0)" stroke-linejoin="round" d=" M 589.576, 466.747 579.576, 466.747 569.576, 466.747 559.576, 466.747 549.576, 466.747 539.576, 466.747 529.576, 466.747 519.576, 466.747 509.576, 466.747 499.576, 466.747 489.576, 466.747 479.576, 466.747 469.576, 466.747 459.576, 466.747 449.576, 466.747 439.576, 466.747 434.424, 466.747 " />
            <path fill="none" stroke-width="1.5" stroke-linecap="round" stroke-opacity="1.0" stroke="rgb(0, 0, 0)" stroke-linejoin="round" d=" M 589.576, 544.323 589.576, 534.323 589.576, 524.323 589.576, 514.323 589.576, 504.323 589.576, 494.323 589.576, 484.323 589.576, 474.323 589.576, 466.747 " />
            <path fill="none" stroke-width="1.5" stroke-linecap="round" stroke-opacity="1.0" stroke="rgb(0, 0, 0)" stroke-linejoin="round" d=" M 589.576, 557.253 589.576, 547.253 589.576, 544.323 " />
            <path fill="none" stroke-width="1.5" stroke-linecap="round" stroke-opacity="1.0" stroke="rgb(0, 0, 0)" stroke-linejoin="round" d=" M 447.354, 402.101 437.354, 402.101 434.424, 402.101 " />
            <path fill="none" stroke-width="1.5" stroke-linecap="round" stroke-opacity="1.0" stroke="rgb(0, 0, 0)" stroke-linejoin="round" d=" M 576.646, 402.101 566.646, 402.101 556.646, 402.101 546.646, 402.101 536.646, 402.101 526.646, 402.101 516.646, 402.101 506.646, 402.101 496.646, 402.101 486.646, 402.101 476.646, 402.101 466.646, 402.101 456.646, 402.101 447.354, 402.101 " />
            <path fill="none" stroke-width="1.5" stroke-linecap="round" stroke-opacity="1.0" stroke="rgb(0, 0, 0)" stroke-linejoin="round" d=" M 589.576, 402.101 579.576, 402.101 576.646, 402.101 " />
            <path fill="none" stroke-width="1.5" stroke-linecap="round" stroke-opacity="1.0" stroke="rgb(0, 0, 0)" stroke-linejoin="round" d=" M 589.576, 415.030 589.576, 405.030 589.576, 402.101 " />
            <path fill="none" stroke-width="1.5" stroke-linecap="round" stroke-opacity="1.0" stroke="rgb(0, 0, 0)" stroke-linejoin="round" d=" M 589.576, 466.747 589.576, 456.747 589.576, 446.747 589.576, 436.747 589.576, 426.747 589.576, 416.747 589.576, 415.030 " />
        </g>
    </g>
</svg>
