<?xml version='1.0' encoding='ascii'?>
<svg xmlns="http://www.w3.org/2000/svg" xmlns:inkscape="http://www.inkscape.org/namespaces/inkscape" version="1.1" width="1024" height="1024">
    <g id="ViewLayer_LineSet" inkscape:groupmode="lineset" inkscape:label="ViewLayer_LineSet">
        <g inkscape:groupmode="layer" id="strokes" inkscape:label="strokes">
            <path fill="none" stroke-width="3.0" stroke-linecap="butt" stroke-opacity="1.0" stroke="rgb(0, 0, 0)" stroke-linejoin="round" d=" M 263.111, 689.778 273.111, 689.778 283.111, 689.778 293.111, 689.778 303.111, 689.778 313.111, 689.778 323.111, 689.778 333.111, 689.778 343.111, 689.778 353.111, 689.778 363.111, 689.778 373.111, 689.778 383.111, 689.778 393.111, 689.778 403.111, 689.778 413.111, 689.778 423.111, 689.778 433.111, 689.778 443.111, 689.778 453.111, 689.778 463.111, 689.778 473.111, 689.778 483.111, 689.778 493.111, 689.778 503.111, 689.778 513.111, 689.778 523.111, 689.778 533.111, 689.778 543.111, 689.778 553.111, 689.778 563.111, 689.778 573.111, 689.778 583.111, 689.778 593.111, 689.778 603.111, 689.778 613.111, 689.778 623.111, 689.778 633.111, 689.778 643.111, 689.778 653.111, 689.778 663.111, 689.778 673.111, 689.778 683.111, 689.778 693.111, 689.778 703.111, 689.778 713.111, 689.778 723.111, 689.778 733.111, 689.778 743.111, 689.778 753.111, 689.778 760.889, 689.778 " />
            <path fill="none" stroke-width="3.0" stroke-linecap="butt" stroke-opacity="1.0" stroke="rgb(0, 0, 0)" stroke-linejoin="round" d=" M 227.556, 334.222 227.556, 344.222 227.556, 354.222 227.556, 364.222 227.556, 374.222 227.556, 384.222 227.556, 394.222 227.556, 404.222 227.556, 414.222 227.556, 424.222 227.556, 434.222 227.556, 444.222 227.556, 454.222 227.556, 464.222 227.556, 474.222 227.556, 484.222 227.556, 494.222 227.556, 504.222 227.556, 514.222 227.556, 524.222 227.556, 534.222 227.556, 544.222 227.556, 554.222 227.556, 564.222 227.556, 574.222 227.556, 584.222 227.556, 594.222 227.556, 604.222 227.556, 614.222 227.556, 624.222 227.556, 634.222 227.556, 644.222 227.556, 654.222 227.556, 664.222 227.556, 674.222 227.556, 684.222 227.556, 689.778 237.556, 689.778 247.556, 689.778 257.556, 689.778 263.111, 689.778 " />
            <path fill="none" stroke-width="3.0" stroke-linecap="butt" stroke-opacity="1.0" stroke="rgb(0, 0, 0)" stroke-linejoin="round" d=" M 796.444, 689.778 796.444, 679.778 796.444, 669.778 796.444, 659.778 796.444, 649.778 796.444, 639.778 796.444, 629.778 796.444, 619.778 796.444, 609.778 796.444, 599.778 796.444, 589.778 796.444, 579.778 796.444, 569.778 796.444, 559.778 796.444, 549.778 796.444, 539.778 796.444, 529.778 796.444, 519.778 796.444, 509.778 796.444, 499.778 796.444, 489.778 796.444, 479.778 796.444, 469.778 796.444, 459.778 796.444, 449.778 796.444, 439.778 796.444, 429.778 796.444, 419.778 796.444, 409.778 796.444, 399.778 796.444, 389.778 796.444, 379.778 796.444, 369.778 796.444, 359.778 796.444, 349.778 796.444, 339.778 796.444, 334.222 " />
            <path fill="none" stroke-width="3.0" stroke-linecap="butt" stroke-opacity="1.0" stroke="rgb(0, 0, 0)" stroke-linejoin="round" d=" M 263.111, 672.000 263.111, 682.000 263.111, 689.778 " />
            <path fill="none" stroke-width="3.0" stroke-linecap="butt" stroke-opacity="1.0" stroke="rgb(0, 0, 0)" stroke-linejoin="round" d=" M 263.111, 654.222 263.111, 664.222 263.111, 672.000 " />
            <path fill="none" stroke-width="3.0" stroke-linecap="butt" stroke-opacity="1.0" stroke="rgb(0, 0, 0)" stroke-linejoin="round" d=" M 245.333, 334.222 235.333, 334.222 227.556, 334.222 " />
            <path fill="none" stroke-width="3.0" stroke-linecap="butt" stroke-opacity="1.0" stroke="rgb(0, 0, 0)" stroke-linejoin="round" d=" M 263.111, 334.222 253.111, 334.222 245.333, 334.222 " />
            <path fill="none" stroke-width="3.0" stroke-linecap="butt" stroke-opacity="1.0" stroke="rgb(0, 0, 0)" stroke-linejoin="round" d=" M 263.111, 352.000 263.111, 342.000 263.111, 334.222 " />
            <path fill="none" stroke-width="3.0" stroke-linecap="butt" stroke-opacity="1.0" stroke="rgb(0, 0, 0)" stroke-linejoin="round" d=" M 263.111, 654.222 263.111, 644.222 263.111, 634.222 263.111, 624.222 263.111, 614.222 263.111, 604.222 263.111, 594.222 263.111, 584.222 263.111, 574.222 263.111, 564.222 263.111, 554.222 263.111, 544.222 263.111, 534.222 263.111, 524.222 263.111, 514.222 263.111, 504.222 263.111, 494.222 263.111, 484.222 263.111, 474.222 263.111, 464.222 263.111, 454.222 263.111, 444.222 263.111, 434.222 263.111, 424.222 263.111, 414.222 263.111, 404.222 263.111, 394.222 263.111, 384.222 263.111, 374.222 263.111, 364.222 263.111, 352.000 " />
            <path fill="none" stroke-width="3.0" stroke-linecap="butt" stroke-opacity="1.0" stroke="rgb(0, 0, 0)" stroke-linejoin="round" d=" M 760.889, 654.222 750.889, 654.222 740.889, 654.222 730.889, 654.222 720.889, 654.222 710.889, 654.222 700.889, 654.222 690.889, 654.222 680.889, 654.222 670.889, 654.222 660.889, 654.222 650.889, 654.222 640.889, 654.222 630.889, 654.222 620.889, 654.222 610.889, 654.222 600.889, 654.222 590.889, 654.222 580.889, 654.222 570.889, 654.222 560.889, 654.222 550.889, 654.222 540.889, 654.222 530.889, 654.222 520.889, 654.222 510.889, 654.222 500.889, 654.222 490.889, 654.222 480.889, 654.222 470.889, 654.222 460.889, 654.222 450.889, 654.222 440.889, 654.222 430.889, 654.222 420.889, 654.222 410.889, 654.222 400.889, 654.222 390.889, 654.222 380.889, 654.222 370.889, 654.222 360.889, 654.222 350.889, 654.222 340.889, 654.222 330.889, 654.222 320.889, 654.222 310.889, 654.222 300.889, 654.222 290.889, 654.222 280.889, 654.222 270.889, 654.222 263.111, 654.222 " />
            <path fill="none" stroke-width="3.0" stroke-linecap="butt" stroke-opacity="1.0" stroke="rgb(0, 0, 0)" stroke-linejoin="round" d=" M 760.889, 672.000 760.889, 662.000 760.889, 654.222 " />
            <path fill="none" stroke-width="3.0" stroke-linecap="butt" stroke-opacity="1.0" stroke="rgb(0, 0, 0)" stroke-linejoin="round" d=" M 760.889, 689.778 760.889, 679.778 760.889, 672.000 " />
            <path fill="none" stroke-width="3.0" stroke-linecap="butt" stroke-opacity="1.0" stroke="rgb(0, 0, 0)" stroke-linejoin="round" d=" M 760.889, 352.000 750.889, 352.000 740.889, 352.000 730.889, 352.000 720.889, 352.000 710.889, 352.000 700.889, 352.000 690.889, 352.000 680.889, 352.000 670.889, 352.000 660.889, 352.000 650.889, 352.000 640.889, 352.000 630.889, 352.000 620.889, 352.000 610.889, 352.000 600.889, 352.000 590.889, 352.000 580.889, 352.000 570.889, 352.000 560.889, 352.000 550.889, 352.000 540.889, 352.000 530.889, 352.000 520.889, 352.000 510.889, 352.000 500.889, 352.000 490.889, 352.000 480.889, 352.000 470.889, 352.000 460.889, 352.000 450.889, 352.000 440.889, 352.000 430.889, 352.000 420.889, 352.000 410.889, 352.000 400.889, 352.000 390.889, 352.000 380.889, 352.000 370.889, 352.000 360.889, 352.000 350.889, 352.000 340.889, 352.000 330.889, 352.000 320.889, 352.000 310.889, 352.000 300.889, 352.000 290.889, 352.000 280.889, 352.000 270.889, 352.000 263.111, 352.000 " />
            <path fill="none" stroke-width="3.0" stroke-linecap="butt" stroke-opacity="1.0" stroke="rgb(0, 0, 0)" stroke-linejoin="round" d=" M 760.889, 352.000 760.889, 362.000 760.889, 372.000 760.889, 382.000 760.889, 392.000 760.889, 402.000 760.889, 412.000 760.889, 422.000 760.889, 432.000 760.889, 442.000 760.889, 452.000 760.889, 462.000 760.889, 472.000 760.889, 482.000 760.889, 492.000 760.889, 502.000 760.889, 512.000 760.889, 522.000 760.889, 532.000 760.889, 542.000 760.889, 552.000 760.889, 562.000 760.889, 572.000 760.889, 582.000 760.889, 592.000 760.889, 602.000 760.889, 612.000 760.889, 622.000 760.889, 632.000 760.889, 642.000 760.889, 654.222 " />
            <path fill="none" stroke-width="3.0" stroke-linecap="butt" stroke-opacity="1.0" stroke="rgb(0, 0, 0)" stroke-linejoin="round" d=" M 760.889, 334.222 760.889, 344.222 760.889, 352.000 " />
            <path fill="none" stroke-width="3.0" stroke-linecap="butt" stroke-opacity="1.0" stroke="rgb(0, 0, 0)" stroke-linejoin="round" d=" M 760.889, 334.222 750.889, 334.222 740.889, 334.222 730.889, 334.222 720.889, 334.222 710.889, 334.222 700.889, 334.222 690.889, 334.222 680.889, 334.222 670.889, 334.222 660.889, 334.222 650.889, 334.222 640.889, 334.222 630.889, 334.222 620.889, 334.222 610.889, 334.222 600.889, 334.222 590.889, 334.222 580.889, 334.222 570.889, 334.222 560.889, 334.222 550.889, 334.222 540.889, 334.222 530.889, 334.222 520.889, 334.222 510.889, 334.222 500.889, 334.222 490.889, 334.222 480.889, 334.222 470.889, 334.222 460.889, 334.222 450.889, 334.222 440.889, 334.222 430.889, 334.222 420.889, 334.222 410.889, 334.222 400.889, 334.222 390.889, 334.222 380.889, 334.222 370.889, 334.222 360.889, 334.222 350.889, 334.222 340.889, 334.222 330.889, 334.222 320.889, 334.222 310.889, 334.222 300.889, 334.222 290.889, 334.222 280.889, 334.222 270.889, 334.222 263.111, 334.222 " />
            <path fill="none" stroke-width="3.0" stroke-linecap="butt" stroke-opacity="1.0" stroke="rgb(0, 0, 0)" stroke-linejoin="round" d=" M 778.667, 689.778 788.667, 689.778 796.444, 689.778 " />
            <path fill="none" stroke-width="3.0" stroke-linecap="butt" stroke-opacity="1.0" stroke="rgb(0, 0, 0)" stroke-linejoin="round" d=" M 760.889, 689.778 770.889, 689.778 778.667, 689.778 " />
            <path fill="none" stroke-width="3.0" stroke-linecap="butt" stroke-opacity="1.0" stroke="rgb(0, 0, 0)" stroke-linejoin="round" d=" M 778.667, 334.222 768.667, 334.222 760.889, 334.222 " />
            <path fill="none" stroke-width="3.0" stroke-linecap="butt" stroke-opacity="1.0" stroke="rgb(0, 0, 0)" stroke-linejoin="round" d=" M 796.444, 334.222 786.444, 334.222 778.667, 334.222 " />
        </g>
    </g>
    <g id="ViewLayer_TechnicalLines" inkscape:groupmode="lineset" inkscape:label="ViewLayer_TechnicalLines">
        <g inkscape:groupmode="layer" id="strokes" inkscape:label="strokes">
            <path fill="none" stroke-width="3.0" stroke-linecap="butt" stroke-opacity="1.0" stroke="rgb(0, 0, 0)" stroke-linejoin="round" d=" M 263.111, 689.778 273.111, 689.778 283.111, 689.778 293.111, 689.778 303.111, 689.778 313.111, 689.778 323.111, 689.778 333.111, 689.778 343.111, 689.778 353.111, 689.778 363.111, 689.778 373.111, 689.778 383.111, 689.778 393.111, 689.778 403.111, 689.778 413.111, 689.778 423.111, 689.778 433.111, 689.778 443.111, 689.778 453.111, 689.778 463.111, 689.778 473.111, 689.778 483.111, 689.778 493.111, 689.778 503.111, 689.778 513.111, 689.778 523.111, 689.778 533.111, 689.778 543.111, 689.778 553.111, 689.778 563.111, 689.778 573.111, 689.778 583.111, 689.778 593.111, 689.778 603.111, 689.778 613.111, 689.778 623.111, 689.778 633.111, 689.778 643.111, 689.778 653.111, 689.778 663.111, 689.778 673.111, 689.778 683.111, 689.778 693.111, 689.778 703.111, 689.778 713.111, 689.778 723.111, 689.778 733.111, 689.778 743.111, 689.778 753.111, 689.778 760.889, 689.778 " />
            <path fill="none" stroke-width="3.0" stroke-linecap="butt" stroke-opacity="1.0" stroke="rgb(0, 0, 0)" stroke-linejoin="round" d=" M 227.556, 334.222 227.556, 344.222 227.556, 354.222 227.556, 364.222 227.556, 374.222 227.556, 384.222 227.556, 394.222 227.556, 404.222 227.556, 414.222 227.556, 424.222 227.556, 434.222 227.556, 444.222 227.556, 454.222 227.556, 464.222 227.556, 474.222 227.556, 484.222 227.556, 494.222 227.556, 504.222 227.556, 514.222 227.556, 524.222 227.556, 534.222 227.556, 544.222 227.556, 554.222 227.556, 564.222 227.556, 574.222 227.556, 584.222 227.556, 594.222 227.556, 604.222 227.556, 614.222 227.556, 624.222 227.556, 634.222 227.556, 644.222 227.556, 654.222 227.556, 664.222 227.556, 674.222 227.556, 684.222 227.556, 689.778 237.556, 689.778 247.556, 689.778 257.556, 689.778 263.111, 689.778 " />
            <path fill="none" stroke-width="3.0" stroke-linecap="butt" stroke-opacity="1.0" stroke="rgb(0, 0, 0)" stroke-linejoin="round" d=" M 796.444, 689.778 796.444, 679.778 796.444, 669.778 796.444, 659.778 796.444, 649.778 796.444, 639.778 796.444, 629.778 796.444, 619.778 796.444, 609.778 796.444, 599.778 796.444, 589.778 796.444, 579.778 796.444, 569.778 796.444, 559.778 796.444, 549.778 796.444, 539.778 796.444, 529.778 796.444, 519.778 796.444, 509.778 796.444, 499.778 796.444, 489.778 796.444, 479.778 796.444, 469.778 796.444, 459.778 796.444, 449.778 796.444, 439.778 796.444, 429.778 796.444, 419.778 796.444, 409.778 796.444, 399.778 796.444, 389.778 796.444, 379.778 796.444, 369.778 796.444, 359.778 796.444, 349.778 796.444, 339.778 796.444, 334.222 " />
            <path fill="none" stroke-width="3.0" stroke-linecap="butt" stroke-opacity="1.0" stroke="rgb(0, 0, 0)" stroke-linejoin="round" d=" M 263.111, 672.000 263.111, 682.000 263.111, 689.778 " />
            <path fill="none" stroke-width="3.0" stroke-linecap="butt" stroke-opacity="1.0" stroke="rgb(0, 0, 0)" stroke-linejoin="round" d=" M 263.111, 654.222 263.111, 664.222 263.111, 672.000 " />
            <path fill="none" stroke-width="3.0" stroke-linecap="butt" stroke-opacity="1.0" stroke="rgb(0, 0, 0)" stroke-linejoin="round" d=" M 245.333, 334.222 235.333, 334.222 227.556, 334.222 " />
            <path fill="none" stroke-width="3.0" stroke-linecap="butt" stroke-opacity="1.0" stroke="rgb(0, 0, 0)" stroke-linejoin="round" d=" M 263.111, 334.222 253.111, 334.222 245.333, 334.222 " />
            <path fill="none" stroke-width="3.0" stroke-linecap="butt" stroke-opacity="1.0" stroke="rgb(0, 0, 0)" stroke-linejoin="round" d=" M 263.111, 352.000 263.111, 342.000 263.111, 334.222 " />
            <path fill="none" stroke-width="3.0" stroke-linecap="butt" stroke-opacity="1.0" stroke="rgb(0, 0, 0)" stroke-linejoin="round" d=" M 263.111, 654.222 263.111, 644.222 263.111, 634.222 263.111, 624.222 263.111, 614.222 263.111, 604.222 263.111, 594.222 263.111, 584.222 263.111, 574.222 263.111, 564.222 263.111, 554.222 263.111, 544.222 263.111, 534.222 263.111, 524.222 263.111, 514.222 263.111, 504.222 263.111, 494.222 263.111, 484.222 263.111, 474.222 263.111, 464.222 263.111, 454.222 263.111, 444.222 263.111, 434.222 263.111, 424.222 263.111, 414.222 263.111, 404.222 263.111, 394.222 263.111, 384.222 263.111, 374.222 263.111, 364.222 263.111, 352.000 " />
            <path fill="none" stroke-width="3.0" stroke-linecap="butt" stroke-opacity="1.0" stroke="rgb(0, 0, 0)" stroke-linejoin="round" d=" M 760.889, 654.222 750.889, 654.222 740.889, 654.222 730.889, 654.222 720.889, 654.222 710.889, 654.222 700.889, 654.222 690.889, 654.222 680.889, 654.222 670.889, 654.222 660.889, 654.222 650.889, 654.222 640.889, 654.222 630.889, 654.222 620.889, 654.222 610.889, 654.222 600.889, 654.222 590.889, 654.222 580.889, 654.222 570.889, 654.222 560.889, 654.222 550.889, 654.222 540.889, 654.222 530.889, 654.222 520.889, 654.222 510.889, 654.222 500.889, 654.222 490.889, 654.222 480.889, 654.222 470.889, 654.222 460.889, 654.222 450.889, 654.222 440.889, 654.222 430.889, 654.222 420.889, 654.222 410.889, 654.222 400.889, 654.222 390.889, 654.222 380.889, 654.222 370.889, 654.222 360.889, 654.222 350.889, 654.222 340.889, 654.222 330.889, 654.222 320.889, 654.222 310.889, 654.222 300.889, 654.222 290.889, 654.222 280.889, 654.222 270.889, 654.222 263.111, 654.222 " />
            <path fill="none" stroke-width="3.0" stroke-linecap="butt" stroke-opacity="1.0" stroke="rgb(0, 0, 0)" stroke-linejoin="round" d=" M 760.889, 672.000 760.889, 662.000 760.889, 654.222 " />
            <path fill="none" stroke-width="3.0" stroke-linecap="butt" stroke-opacity="1.0" stroke="rgb(0, 0, 0)" stroke-linejoin="round" d=" M 760.889, 689.778 760.889, 679.778 760.889, 672.000 " />
            <path fill="none" stroke-width="3.0" stroke-linecap="butt" stroke-opacity="1.0" stroke="rgb(0, 0, 0)" stroke-linejoin="round" d=" M 760.889, 352.000 750.889, 352.000 740.889, 352.000 730.889, 352.000 720.889, 352.000 710.889, 352.000 700.889, 352.000 690.889, 352.000 680.889, 352.000 670.889, 352.000 660.889, 352.000 650.889, 352.000 640.889, 352.000 630.889, 352.000 620.889, 352.000 610.889, 352.000 600.889, 352.000 590.889, 352.000 580.889, 352.000 570.889, 352.000 560.889, 352.000 550.889, 352.000 540.889, 352.000 530.889, 352.000 520.889, 352.000 510.889, 352.000 500.889, 352.000 490.889, 352.000 480.889, 352.000 470.889, 352.000 460.889, 352.000 450.889, 352.000 440.889, 352.000 430.889, 352.000 420.889, 352.000 410.889, 352.000 400.889, 352.000 390.889, 352.000 380.889, 352.000 370.889, 352.000 360.889, 352.000 350.889, 352.000 340.889, 352.000 330.889, 352.000 320.889, 352.000 310.889, 352.000 300.889, 352.000 290.889, 352.000 280.889, 352.000 270.889, 352.000 263.111, 352.000 " />
            <path fill="none" stroke-width="3.0" stroke-linecap="butt" stroke-opacity="1.0" stroke="rgb(0, 0, 0)" stroke-linejoin="round" d=" M 760.889, 352.000 760.889, 362.000 760.889, 372.000 760.889, 382.000 760.889, 392.000 760.889, 402.000 760.889, 412.000 760.889, 422.000 760.889, 432.000 760.889, 442.000 760.889, 452.000 760.889, 462.000 760.889, 472.000 760.889, 482.000 760.889, 492.000 760.889, 502.000 760.889, 512.000 760.889, 522.000 760.889, 532.000 760.889, 542.000 760.889, 552.000 760.889, 562.000 760.889, 572.000 760.889, 582.000 760.889, 592.000 760.889, 602.000 760.889, 612.000 760.889, 622.000 760.889, 632.000 760.889, 642.000 760.889, 654.222 " />
            <path fill="none" stroke-width="3.0" stroke-linecap="butt" stroke-opacity="1.0" stroke="rgb(0, 0, 0)" stroke-linejoin="round" d=" M 760.889, 334.222 760.889, 344.222 760.889, 352.000 " />
            <path fill="none" stroke-width="3.0" stroke-linecap="butt" stroke-opacity="1.0" stroke="rgb(0, 0, 0)" stroke-linejoin="round" d=" M 760.889, 334.222 750.889, 334.222 740.889, 334.222 730.889, 334.222 720.889, 334.222 710.889, 334.222 700.889, 334.222 690.889, 334.222 680.889, 334.222 670.889, 334.222 660.889, 334.222 650.889, 334.222 640.889, 334.222 630.889, 334.222 620.889, 334.222 610.889, 334.222 600.889, 334.222 590.889, 334.222 580.889, 334.222 570.889, 334.222 560.889, 334.222 550.889, 334.222 540.889, 334.222 530.889, 334.222 520.889, 334.222 510.889, 334.222 500.889, 334.222 490.889, 334.222 480.889, 334.222 470.889, 334.222 460.889, 334.222 450.889, 334.222 440.889, 334.222 430.889, 334.222 420.889, 334.222 410.889, 334.222 400.889, 334.222 390.889, 334.222 380.889, 334.222 370.889, 334.222 360.889, 334.222 350.889, 334.222 340.889, 334.222 330.889, 334.222 320.889, 334.222 310.889, 334.222 300.889, 334.222 290.889, 334.222 280.889, 334.222 270.889, 334.222 263.111, 334.222 " />
            <path fill="none" stroke-width="3.0" stroke-linecap="butt" stroke-opacity="1.0" stroke="rgb(0, 0, 0)" stroke-linejoin="round" d=" M 778.667, 689.778 788.667, 689.778 796.444, 689.778 " />
            <path fill="none" stroke-width="3.0" stroke-linecap="butt" stroke-opacity="1.0" stroke="rgb(0, 0, 0)" stroke-linejoin="round" d=" M 760.889, 689.778 770.889, 689.778 778.667, 689.778 " />
            <path fill="none" stroke-width="3.0" stroke-linecap="butt" stroke-opacity="1.0" stroke="rgb(0, 0, 0)" stroke-linejoin="round" d=" M 778.667, 334.222 768.667, 334.222 760.889, 334.222 " />
            <path fill="none" stroke-width="3.0" stroke-linecap="butt" stroke-opacity="1.0" stroke="rgb(0, 0, 0)" stroke-linejoin="round" d=" M 796.444, 334.222 786.444, 334.222 778.667, 334.222 " />
        </g>
    </g>
    <g id="ViewLayer_TechnicalLines.001" inkscape:groupmode="lineset" inkscape:label="ViewLayer_TechnicalLines.001">
        <g inkscape:groupmode="layer" id="strokes" inkscape:label="strokes">
            <path fill="none" stroke-width="1.5" stroke-linecap="round" stroke-opacity="1.0" stroke="rgb(0, 0, 0)" stroke-linejoin="round" d=" M 263.111, 689.778 273.111, 689.778 283.111, 689.778 293.111, 689.778 303.111, 689.778 313.111, 689.778 323.111, 689.778 333.111, 689.778 343.111, 689.778 353.111, 689.778 363.111, 689.778 373.111, 689.778 383.111, 689.778 393.111, 689.778 403.111, 689.778 413.111, 689.778 423.111, 689.778 433.111, 689.778 443.111, 689.778 453.111, 689.778 463.111, 689.778 473.111, 689.778 483.111, 689.778 493.111, 689.778 503.111, 689.778 513.111, 689.778 523.111, 689.778 533.111, 689.778 543.111, 689.778 553.111, 689.778 563.111, 689.778 573.111, 689.778 583.111, 689.778 593.111, 689.778 603.111, 689.778 613.111, 689.778 623.111, 689.778 633.111, 689.778 643.111, 689.778 653.111, 689.778 663.111, 689.778 673.111, 689.778 683.111, 689.778 693.111, 689.778 703.111, 689.778 713.111, 689.778 723.111, 689.778 733.111, 689.778 743.111, 689.778 753.111, 689.778 760.889, 689.778 " />
            <path fill="none" stroke-width="1.5" stroke-linecap="round" stroke-opacity="1.0" stroke="rgb(0, 0, 0)" stroke-linejoin="round" d=" M 227.556, 334.222 227.556, 344.222 227.556, 354.222 227.556, 364.222 227.556, 374.222 227.556, 384.222 227.556, 394.222 227.556, 404.222 227.556, 414.222 227.556, 424.222 227.556, 434.222 227.556, 444.222 227.556, 454.222 227.556, 464.222 227.556, 474.222 227.556, 484.222 227.556, 494.222 227.556, 504.222 227.556, 514.222 227.556, 524.222 227.556, 534.222 227.556, 544.222 227.556, 554.222 227.556, 564.222 227.556, 574.222 227.556, 584.222 227.556, 594.222 227.556, 604.222 227.556, 614.222 227.556, 624.222 227.556, 634.222 227.556, 644.222 227.556, 654.222 227.556, 664.222 227.556, 674.222 227.556, 684.222 227.556, 689.778 237.556, 689.778 247.556, 689.778 257.556, 689.778 263.111, 689.778 " />
            <path fill="none" stroke-width="1.5" stroke-linecap="round" stroke-opacity="1.0" stroke="rgb(0, 0, 0)" stroke-linejoin="round" d=" M 796.444, 689.778 796.444, 679.778 796.444, 669.778 796.444, 659.778 796.444, 649.778 796.444, 639.778 796.444, 629.778 796.444, 619.778 796.444, 609.778 796.444, 599.778 796.444, 589.778 796.444, 579.778 796.444, 569.778 796.444, 559.778 796.444, 549.778 796.444, 539.778 796.444, 529.778 796.444, 519.778 796.444, 509.778 796.444, 499.778 796.444, 489.778 796.444, 479.778 796.444, 469.778 796.444, 459.778 796.444, 449.778 796.444, 439.778 796.444, 429.778 796.444, 419.778 796.444, 409.778 796.444, 399.778 796.444, 389.778 796.444, 379.778 796.444, 369.778 796.444, 359.778 796.444, 349.778 796.444, 339.778 796.444, 334.222 " />
            <path fill="none" stroke-width="1.5" stroke-linecap="round" stroke-opacity="1.0" stroke="rgb(0, 0, 0)" stroke-linejoin="round" d=" M 263.111, 672.000 263.111, 682.000 263.111, 689.778 " />
            <path fill="none" stroke-width="1.5" stroke-linecap="round" stroke-opacity="1.0" stroke="rgb(0, 0, 0)" stroke-linejoin="round" d=" M 263.111, 654.222 263.111, 664.222 263.111, 672.000 " />
            <path fill="none" stroke-width="1.5" stroke-linecap="round" stroke-opacity="1.0" stroke="rgb(0, 0, 0)" stroke-linejoin="round" d=" M 245.333, 334.222 235.333, 334.222 227.556, 334.222 " />
            <path fill="none" stroke-width="1.5" stroke-linecap="round" stroke-opacity="1.0" stroke="rgb(0, 0, 0)" stroke-linejoin="round" d=" M 263.111, 334.222 253.111, 334.222 245.333, 334.222 " />
            <path fill="none" stroke-width="1.5" stroke-linecap="round" stroke-opacity="1.0" stroke="rgb(0, 0, 0)" stroke-linejoin="round" d=" M 263.111, 352.000 263.111, 342.000 263.111, 334.222 " />
            <path fill="none" stroke-width="1.5" stroke-linecap="round" stroke-opacity="1.0" stroke="rgb(0, 0, 0)" stroke-linejoin="round" d=" M 263.111, 654.222 263.111, 644.222 263.111, 634.222 263.111, 624.222 263.111, 614.222 263.111, 604.222 263.111, 594.222 263.111, 584.222 263.111, 574.222 263.111, 564.222 263.111, 554.222 263.111, 544.222 263.111, 534.222 263.111, 524.222 263.111, 514.222 263.111, 504.222 263.111, 494.222 263.111, 484.222 263.111, 474.222 263.111, 464.222 263.111, 454.222 263.111, 444.222 263.111, 434.222 263.111, 424.222 263.111, 414.222 263.111, 404.222 263.111, 394.222 263.111, 384.222 263.111, 374.222 263.111, 364.222 263.111, 352.000 " />
            <path fill="none" stroke-width="1.5" stroke-linecap="round" stroke-opacity="1.0" stroke="rgb(0, 0, 0)" stroke-linejoin="round" d=" M 760.889, 654.222 750.889, 654.222 740.889, 654.222 730.889, 654.222 720.889, 654.222 710.889, 654.222 700.889, 654.222 690.889, 654.222 680.889, 654.222 670.889, 654.222 660.889, 654.222 650.889, 654.222 640.889, 654.222 630.889, 654.222 620.889, 654.222 610.889, 654.222 600.889, 654.222 590.889, 654.222 580.889, 654.222 570.889, 654.222 560.889, 654.222 550.889, 654.222 540.889, 654.222 530.889, 654.222 520.889, 654.222 510.889, 654.222 500.889, 654.222 490.889, 654.222 480.889, 654.222 470.889, 654.222 460.889, 654.222 450.889, 654.222 440.889, 654.222 430.889, 654.222 420.889, 654.222 410.889, 654.222 400.889, 654.222 390.889, 654.222 380.889, 654.222 370.889, 654.222 360.889, 654.222 350.889, 654.222 340.889, 654.222 330.889, 654.222 320.889, 654.222 310.889, 654.222 300.889, 654.222 290.889, 654.222 280.889, 654.222 270.889, 654.222 263.111, 654.222 " />
            <path fill="none" stroke-width="1.5" stroke-linecap="round" stroke-opacity="1.0" stroke="rgb(0, 0, 0)" stroke-linejoin="round" d=" M 760.889, 672.000 760.889, 662.000 760.889, 654.222 " />
            <path fill="none" stroke-width="1.5" stroke-linecap="round" stroke-opacity="1.0" stroke="rgb(0, 0, 0)" stroke-linejoin="round" d=" M 760.889, 689.778 760.889, 679.778 760.889, 672.000 " />
            <path fill="none" stroke-width="1.5" stroke-linecap="round" stroke-opacity="1.0" stroke="rgb(0, 0, 0)" stroke-linejoin="round" d=" M 760.889, 352.000 750.889, 352.000 740.889, 352.000 730.889, 352.000 720.889, 352.000 710.889, 352.000 700.889, 352.000 690.889, 352.000 680.889, 352.000 670.889, 352.000 660.889, 352.000 650.889, 352.000 640.889, 352.000 630.889, 352.000 620.889, 352.000 610.889, 352.000 600.889, 352.000 590.889, 352.000 580.889, 352.000 570.889, 352.000 560.889, 352.000 550.889, 352.000 540.889, 352.000 530.889, 352.000 520.889, 352.000 510.889, 352.000 500.889, 352.000 490.889, 352.000 480.889, 352.000 470.889, 352.000 460.889, 352.000 450.889, 352.000 440.889, 352.000 430.889, 352.000 420.889, 352.000 410.889, 352.000 400.889, 352.000 390.889, 352.000 380.889, 352.000 370.889, 352.000 360.889, 352.000 350.889, 352.000 340.889, 352.000 330.889, 352.000 320.889, 352.000 310.889, 352.000 300.889, 352.000 290.889, 352.000 280.889, 352.000 270.889, 352.000 263.111, 352.000 " />
            <path fill="none" stroke-width="1.5" stroke-linecap="round" stroke-opacity="1.0" stroke="rgb(0, 0, 0)" stroke-linejoin="round" d=" M 760.889, 352.000 760.889, 362.000 760.889, 372.000 760.889, 382.000 760.889, 392.000 760.889, 402.000 760.889, 412.000 760.889, 422.000 760.889, 432.000 760.889, 442.000 760.889, 452.000 760.889, 462.000 760.889, 472.000 760.889, 482.000 760.889, 492.000 760.889, 502.000 760.889, 512.000 760.889, 522.000 760.889, 532.000 760.889, 542.000 760.889, 552.000 760.889, 562.000 760.889, 572.000 760.889, 582.000 760.889, 592.000 760.889, 602.000 760.889, 612.000 760.889, 622.000 760.889, 632.000 760.889, 642.000 760.889, 654.222 " />
            <path fill="none" stroke-width="1.5" stroke-linecap="round" stroke-opacity="1.0" stroke="rgb(0, 0, 0)" stroke-linejoin="round" d=" M 760.889, 334.222 760.889, 344.222 760.889, 352.000 " />
            <path fill="none" stroke-width="1.5" stroke-linecap="round" stroke-opacity="1.0" stroke="rgb(0, 0, 0)" stroke-linejoin="round" d=" M 760.889, 334.222 750.889, 334.222 740.889, 334.222 730.889, 334.222 720.889, 334.222 710.889, 334.222 700.889, 334.222 690.889, 334.222 680.889, 334.222 670.889, 334.222 660.889, 334.222 650.889, 334.222 640.889, 334.222 630.889, 334.222 620.889, 334.222 610.889, 334.222 600.889, 334.222 590.889, 334.222 580.889, 334.222 570.889, 334.222 560.889, 334.222 550.889, 334.222 540.889, 334.222 530.889, 334.222 520.889, 334.222 510.889, 334.222 500.889, 334.222 490.889, 334.222 480.889, 334.222 470.889, 334.222 460.889, 334.222 450.889, 334.222 440.889, 334.222 430.889, 334.222 420.889, 334.222 410.889, 334.222 400.889, 334.222 390.889, 334.222 380.889, 334.222 370.889, 334.222 360.889, 334.222 350.889, 334.222 340.889, 334.222 330.889, 334.222 320.889, 334.222 310.889, 334.222 300.889, 334.222 290.889, 334.222 280.889, 334.222 270.889, 334.222 263.111, 334.222 " />
            <path fill="none" stroke-width="1.5" stroke-linecap="round" stroke-opacity="1.0" stroke="rgb(0, 0, 0)" stroke-linejoin="round" d=" M 778.667, 689.778 788.667, 689.778 796.444, 689.778 " />
            <path fill="none" stroke-width="1.5" stroke-linecap="round" stroke-opacity="1.0" stroke="rgb(0, 0, 0)" stroke-linejoin="round" d=" M 760.889, 689.778 770.889, 689.778 778.667, 689.778 " />
            <path fill="none" stroke-width="1.5" stroke-linecap="round" stroke-opacity="1.0" stroke="rgb(0, 0, 0)" stroke-linejoin="round" d=" M 778.667, 334.222 768.667, 334.222 760.889, 334.222 " />
            <path fill="none" stroke-width="1.5" stroke-linecap="round" stroke-opacity="1.0" stroke="rgb(0, 0, 0)" stroke-linejoin="round" d=" M 796.444, 334.222 786.444, 334.222 778.667, 334.222 " />
        </g>
    </g>
    <g id="ViewLayer_TechnicalLines.002" inkscape:groupmode="lineset" inkscape:label="ViewLayer_TechnicalLines.002">
        <g inkscape:groupmode="layer" id="strokes" inkscape:label="strokes">
            <path fill="none" stroke-width="1.5" stroke-linecap="round" stroke-opacity="1.0" stroke="rgb(0, 0, 0)" stroke-linejoin="round" d=" M 263.111, 689.778 273.111, 689.778 283.111, 689.778 293.111, 689.778 303.111, 689.778 313.111, 689.778 323.111, 689.778 333.111, 689.778 343.111, 689.778 353.111, 689.778 363.111, 689.778 373.111, 689.778 383.111, 689.778 393.111, 689.778 403.111, 689.778 413.111, 689.778 423.111, 689.778 433.111, 689.778 443.111, 689.778 453.111, 689.778 463.111, 689.778 473.111, 689.778 483.111, 689.778 493.111, 689.778 503.111, 689.778 513.111, 689.778 523.111, 689.778 533.111, 689.778 543.111, 689.778 553.111, 689.778 563.111, 689.778 573.111, 689.778 583.111, 689.778 593.111, 689.778 603.111, 689.778 613.111, 689.778 623.111, 689.778 633.111, 689.778 643.111, 689.778 653.111, 689.778 663.111, 689.778 673.111, 689.778 683.111, 689.778 693.111, 689.778 703.111, 689.778 713.111, 689.778 723.111, 689.778 733.111, 689.778 743.111, 689.778 753.111, 689.778 760.889, 689.778 " />
            <path fill="none" stroke-width="1.5" stroke-linecap="round" stroke-opacity="1.0" stroke="rgb(0, 0, 0)" stroke-linejoin="round" d=" M 227.556, 334.222 227.556, 344.222 227.556, 354.222 227.556, 364.222 227.556, 374.222 227.556, 384.222 227.556, 394.222 227.556, 404.222 227.556, 414.222 227.556, 424.222 227.556, 434.222 227.556, 444.222 227.556, 454.222 227.556, 464.222 227.556, 474.222 227.556, 484.222 227.556, 494.222 227.556, 504.222 227.556, 514.222 227.556, 524.222 227.556, 534.222 227.556, 544.222 227.556, 554.222 227.556, 564.222 227.556, 574.222 227.556, 584.222 227.556, 594.222 227.556, 604.222 227.556, 614.222 227.556, 624.222 227.556, 634.222 227.556, 644.222 227.556, 654.222 227.556, 664.222 227.556, 674.222 227.556, 684.222 227.556, 689.778 237.556, 689.778 247.556, 689.778 257.556, 689.778 263.111, 689.778 " />
            <path fill="none" stroke-width="1.5" stroke-linecap="round" stroke-opacity="1.0" stroke="rgb(0, 0, 0)" stroke-linejoin="round" d=" M 796.444, 689.778 796.444, 679.778 796.444, 669.778 796.444, 659.778 796.444, 649.778 796.444, 639.778 796.444, 629.778 796.444, 619.778 796.444, 609.778 796.444, 599.778 796.444, 589.778 796.444, 579.778 796.444, 569.778 796.444, 559.778 796.444, 549.778 796.444, 539.778 796.444, 529.778 796.444, 519.778 796.444, 509.778 796.444, 499.778 796.444, 489.778 796.444, 479.778 796.444, 469.778 796.444, 459.778 796.444, 449.778 796.444, 439.778 796.444, 429.778 796.444, 419.778 796.444, 409.778 796.444, 399.778 796.444, 389.778 796.444, 379.778 796.444, 369.778 796.444, 359.778 796.444, 349.778 796.444, 339.778 796.444, 334.222 " />
            <path fill="none" stroke-width="1.5" stroke-linecap="round" stroke-opacity="1.0" stroke="rgb(0, 0, 0)" stroke-linejoin="round" d=" M 263.111, 672.000 263.111, 682.000 263.111, 689.778 " />
            <path fill="none" stroke-width="1.5" stroke-linecap="round" stroke-opacity="1.0" stroke="rgb(0, 0, 0)" stroke-linejoin="round" d=" M 263.111, 654.222 263.111, 664.222 263.111, 672.000 " />
            <path fill="none" stroke-width="1.5" stroke-linecap="round" stroke-opacity="1.0" stroke="rgb(0, 0, 0)" stroke-linejoin="round" d=" M 245.333, 334.222 235.333, 334.222 227.556, 334.222 " />
            <path fill="none" stroke-width="1.5" stroke-linecap="round" stroke-opacity="1.0" stroke="rgb(0, 0, 0)" stroke-linejoin="round" d=" M 263.111, 334.222 253.111, 334.222 245.333, 334.222 " />
            <path fill="none" stroke-width="1.5" stroke-linecap="round" stroke-opacity="1.0" stroke="rgb(0, 0, 0)" stroke-linejoin="round" d=" M 263.111, 352.000 263.111, 342.000 263.111, 334.222 " />
            <path fill="none" stroke-width="1.5" stroke-linecap="round" stroke-opacity="1.0" stroke="rgb(0, 0, 0)" stroke-linejoin="round" d=" M 263.111, 654.222 263.111, 644.222 263.111, 634.222 263.111, 624.222 263.111, 614.222 263.111, 604.222 263.111, 594.222 263.111, 584.222 263.111, 574.222 263.111, 564.222 263.111, 554.222 263.111, 544.222 263.111, 534.222 263.111, 524.222 263.111, 514.222 263.111, 504.222 263.111, 494.222 263.111, 484.222 263.111, 474.222 263.111, 464.222 263.111, 454.222 263.111, 444.222 263.111, 434.222 263.111, 424.222 263.111, 414.222 263.111, 404.222 263.111, 394.222 263.111, 384.222 263.111, 374.222 263.111, 364.222 263.111, 352.000 " />
            <path fill="none" stroke-width="1.5" stroke-linecap="round" stroke-opacity="1.0" stroke="rgb(0, 0, 0)" stroke-linejoin="round" d=" M 760.889, 654.222 750.889, 654.222 740.889, 654.222 730.889, 654.222 720.889, 654.222 710.889, 654.222 700.889, 654.222 690.889, 654.222 680.889, 654.222 670.889, 654.222 660.889, 654.222 650.889, 654.222 640.889, 654.222 630.889, 654.222 620.889, 654.222 610.889, 654.222 600.889, 654.222 590.889, 654.222 580.889, 654.222 570.889, 654.222 560.889, 654.222 550.889, 654.222 540.889, 654.222 530.889, 654.222 520.889, 654.222 510.889, 654.222 500.889, 654.222 490.889, 654.222 480.889, 654.222 470.889, 654.222 460.889, 654.222 450.889, 654.222 440.889, 654.222 430.889, 654.222 420.889, 654.222 410.889, 654.222 400.889, 654.222 390.889, 654.222 380.889, 654.222 370.889, 654.222 360.889, 654.222 350.889, 654.222 340.889, 654.222 330.889, 654.222 320.889, 654.222 310.889, 654.222 300.889, 654.222 290.889, 654.222 280.889, 654.222 270.889, 654.222 263.111, 654.222 " />
            <path fill="none" stroke-width="1.5" stroke-linecap="round" stroke-opacity="1.0" stroke="rgb(0, 0, 0)" stroke-linejoin="round" d=" M 760.889, 672.000 760.889, 662.000 760.889, 654.222 " />
            <path fill="none" stroke-width="1.5" stroke-linecap="round" stroke-opacity="1.0" stroke="rgb(0, 0, 0)" stroke-linejoin="round" d=" M 760.889, 689.778 760.889, 679.778 760.889, 672.000 " />
            <path fill="none" stroke-width="1.5" stroke-linecap="round" stroke-opacity="1.0" stroke="rgb(0, 0, 0)" stroke-linejoin="round" d=" M 760.889, 352.000 750.889, 352.000 740.889, 352.000 730.889, 352.000 720.889, 352.000 710.889, 352.000 700.889, 352.000 690.889, 352.000 680.889, 352.000 670.889, 352.000 660.889, 352.000 650.889, 352.000 640.889, 352.000 630.889, 352.000 620.889, 352.000 610.889, 352.000 600.889, 352.000 590.889, 352.000 580.889, 352.000 570.889, 352.000 560.889, 352.000 550.889, 352.000 540.889, 352.000 530.889, 352.000 520.889, 352.000 510.889, 352.000 500.889, 352.000 490.889, 352.000 480.889, 352.000 470.889, 352.000 460.889, 352.000 450.889, 352.000 440.889, 352.000 430.889, 352.000 420.889, 352.000 410.889, 352.000 400.889, 352.000 390.889, 352.000 380.889, 352.000 370.889, 352.000 360.889, 352.000 350.889, 352.000 340.889, 352.000 330.889, 352.000 320.889, 352.000 310.889, 352.000 300.889, 352.000 290.889, 352.000 280.889, 352.000 270.889, 352.000 263.111, 352.000 " />
            <path fill="none" stroke-width="1.5" stroke-linecap="round" stroke-opacity="1.0" stroke="rgb(0, 0, 0)" stroke-linejoin="round" d=" M 760.889, 352.000 760.889, 362.000 760.889, 372.000 760.889, 382.000 760.889, 392.000 760.889, 402.000 760.889, 412.000 760.889, 422.000 760.889, 432.000 760.889, 442.000 760.889, 452.000 760.889, 462.000 760.889, 472.000 760.889, 482.000 760.889, 492.000 760.889, 502.000 760.889, 512.000 760.889, 522.000 760.889, 532.000 760.889, 542.000 760.889, 552.000 760.889, 562.000 760.889, 572.000 760.889, 582.000 760.889, 592.000 760.889, 602.000 760.889, 612.000 760.889, 622.000 760.889, 632.000 760.889, 642.000 760.889, 654.222 " />
            <path fill="none" stroke-width="1.5" stroke-linecap="round" stroke-opacity="1.0" stroke="rgb(0, 0, 0)" stroke-linejoin="round" d=" M 760.889, 334.222 760.889, 344.222 760.889, 352.000 " />
            <path fill="none" stroke-width="1.5" stroke-linecap="round" stroke-opacity="1.0" stroke="rgb(0, 0, 0)" stroke-linejoin="round" d=" M 760.889, 334.222 750.889, 334.222 740.889, 334.222 730.889, 334.222 720.889, 334.222 710.889, 334.222 700.889, 334.222 690.889, 334.222 680.889, 334.222 670.889, 334.222 660.889, 334.222 650.889, 334.222 640.889, 334.222 630.889, 334.222 620.889, 334.222 610.889, 334.222 600.889, 334.222 590.889, 334.222 580.889, 334.222 570.889, 334.222 560.889, 334.222 550.889, 334.222 540.889, 334.222 530.889, 334.222 520.889, 334.222 510.889, 334.222 500.889, 334.222 490.889, 334.222 480.889, 334.222 470.889, 334.222 460.889, 334.222 450.889, 334.222 440.889, 334.222 430.889, 334.222 420.889, 334.222 410.889, 334.222 400.889, 334.222 390.889, 334.222 380.889, 334.222 370.889, 334.222 360.889, 334.222 350.889, 334.222 340.889, 334.222 330.889, 334.222 320.889, 334.222 310.889, 334.222 300.889, 334.222 290.889, 334.222 280.889, 334.222 270.889, 334.222 263.111, 334.222 " />
            <path fill="none" stroke-width="1.5" stroke-linecap="round" stroke-opacity="1.0" stroke="rgb(0, 0, 0)" stroke-linejoin="round" d=" M 778.667, 689.778 788.667, 689.778 796.444, 689.778 " />
            <path fill="none" stroke-width="1.5" stroke-linecap="round" stroke-opacity="1.0" stroke="rgb(0, 0, 0)" stroke-linejoin="round" d=" M 760.889, 689.778 770.889, 689.778 778.667, 689.778 " />
            <path fill="none" stroke-width="1.5" stroke-linecap="round" stroke-opacity="1.0" stroke="rgb(0, 0, 0)" stroke-linejoin="round" d=" M 778.667, 334.222 768.667, 334.222 760.889, 334.222 " />
            <path fill="none" stroke-width="1.5" stroke-linecap="round" stroke-opacity="1.0" stroke="rgb(0, 0, 0)" stroke-linejoin="round" d=" M 796.444, 334.222 786.444, 334.222 778.667, 334.222 " />
        </g>
    </g>
    <g id="ViewLayer_TechnicalLines.003" inkscape:groupmode="lineset" inkscape:label="ViewLayer_TechnicalLines.003">
        <g inkscape:groupmode="layer" id="strokes" inkscape:label="strokes">
            <path fill="none" stroke-width="1.5" stroke-linecap="round" stroke-opacity="1.0" stroke="rgb(0, 0, 0)" stroke-linejoin="round" d=" M 263.111, 689.778 273.111, 689.778 283.111, 689.778 293.111, 689.778 303.111, 689.778 313.111, 689.778 323.111, 689.778 333.111, 689.778 343.111, 689.778 353.111, 689.778 363.111, 689.778 373.111, 689.778 383.111, 689.778 393.111, 689.778 403.111, 689.778 413.111, 689.778 423.111, 689.778 433.111, 689.778 443.111, 689.778 453.111, 689.778 463.111, 689.778 473.111, 689.778 483.111, 689.778 493.111, 689.778 503.111, 689.778 513.111, 689.778 523.111, 689.778 533.111, 689.778 543.111, 689.778 553.111, 689.778 563.111, 689.778 573.111, 689.778 583.111, 689.778 593.111, 689.778 603.111, 689.778 613.111, 689.778 623.111, 689.778 633.111, 689.778 643.111, 689.778 653.111, 689.778 663.111, 689.778 673.111, 689.778 683.111, 689.778 693.111, 689.778 703.111, 689.778 713.111, 689.778 723.111, 689.778 733.111, 689.778 743.111, 689.778 753.111, 689.778 760.889, 689.778 " />
            <path fill="none" stroke-width="1.5" stroke-linecap="round" stroke-opacity="1.0" stroke="rgb(0, 0, 0)" stroke-linejoin="round" d=" M 227.556, 334.222 227.556, 344.222 227.556, 354.222 227.556, 364.222 227.556, 374.222 227.556, 384.222 227.556, 394.222 227.556, 404.222 227.556, 414.222 227.556, 424.222 227.556, 434.222 227.556, 444.222 227.556, 454.222 227.556, 464.222 227.556, 474.222 227.556, 484.222 227.556, 494.222 227.556, 504.222 227.556, 514.222 227.556, 524.222 227.556, 534.222 227.556, 544.222 227.556, 554.222 227.556, 564.222 227.556, 574.222 227.556, 584.222 227.556, 594.222 227.556, 604.222 227.556, 614.222 227.556, 624.222 227.556, 634.222 227.556, 644.222 227.556, 654.222 227.556, 664.222 227.556, 674.222 227.556, 684.222 227.556, 689.778 237.556, 689.778 247.556, 689.778 257.556, 689.778 263.111, 689.778 " />
            <path fill="none" stroke-width="1.5" stroke-linecap="round" stroke-opacity="1.0" stroke="rgb(0, 0, 0)" stroke-linejoin="round" d=" M 796.444, 689.778 796.444, 679.778 796.444, 669.778 796.444, 659.778 796.444, 649.778 796.444, 639.778 796.444, 629.778 796.444, 619.778 796.444, 609.778 796.444, 599.778 796.444, 589.778 796.444, 579.778 796.444, 569.778 796.444, 559.778 796.444, 549.778 796.444, 539.778 796.444, 529.778 796.444, 519.778 796.444, 509.778 796.444, 499.778 796.444, 489.778 796.444, 479.778 796.444, 469.778 796.444, 459.778 796.444, 449.778 796.444, 439.778 796.444, 429.778 796.444, 419.778 796.444, 409.778 796.444, 399.778 796.444, 389.778 796.444, 379.778 796.444, 369.778 796.444, 359.778 796.444, 349.778 796.444, 339.778 796.444, 334.222 " />
            <path fill="none" stroke-width="1.5" stroke-linecap="round" stroke-opacity="1.0" stroke="rgb(0, 0, 0)" stroke-linejoin="round" d=" M 263.111, 672.000 263.111, 682.000 263.111, 689.778 " />
            <path fill="none" stroke-width="1.5" stroke-linecap="round" stroke-opacity="1.0" stroke="rgb(0, 0, 0)" stroke-linejoin="round" d=" M 263.111, 654.222 263.111, 664.222 263.111, 672.000 " />
            <path fill="none" stroke-width="1.5" stroke-linecap="round" stroke-opacity="1.0" stroke="rgb(0, 0, 0)" stroke-linejoin="round" d=" M 245.333, 334.222 235.333, 334.222 227.556, 334.222 " />
            <path fill="none" stroke-width="1.5" stroke-linecap="round" stroke-opacity="1.0" stroke="rgb(0, 0, 0)" stroke-linejoin="round" d=" M 263.111, 334.222 253.111, 334.222 245.333, 334.222 " />
            <path fill="none" stroke-width="1.5" stroke-linecap="round" stroke-opacity="1.0" stroke="rgb(0, 0, 0)" stroke-linejoin="round" d=" M 263.111, 352.000 263.111, 342.000 263.111, 334.222 " />
            <path fill="none" stroke-width="1.5" stroke-linecap="round" stroke-opacity="1.0" stroke="rgb(0, 0, 0)" stroke-linejoin="round" d=" M 263.111, 654.222 263.111, 644.222 263.111, 634.222 263.111, 624.222 263.111, 614.222 263.111, 604.222 263.111, 594.222 263.111, 584.222 263.111, 574.222 263.111, 564.222 263.111, 554.222 263.111, 544.222 263.111, 534.222 263.111, 524.222 263.111, 514.222 263.111, 504.222 263.111, 494.222 263.111, 484.222 263.111, 474.222 263.111, 464.222 263.111, 454.222 263.111, 444.222 263.111, 434.222 263.111, 424.222 263.111, 414.222 263.111, 404.222 263.111, 394.222 263.111, 384.222 263.111, 374.222 263.111, 364.222 263.111, 352.000 " />
            <path fill="none" stroke-width="1.5" stroke-linecap="round" stroke-opacity="1.0" stroke="rgb(0, 0, 0)" stroke-linejoin="round" d=" M 760.889, 654.222 750.889, 654.222 740.889, 654.222 730.889, 654.222 720.889, 654.222 710.889, 654.222 700.889, 654.222 690.889, 654.222 680.889, 654.222 670.889, 654.222 660.889, 654.222 650.889, 654.222 640.889, 654.222 630.889, 654.222 620.889, 654.222 610.889, 654.222 600.889, 654.222 590.889, 654.222 580.889, 654.222 570.889, 654.222 560.889, 654.222 550.889, 654.222 540.889, 654.222 530.889, 654.222 520.889, 654.222 510.889, 654.222 500.889, 654.222 490.889, 654.222 480.889, 654.222 470.889, 654.222 460.889, 654.222 450.889, 654.222 440.889, 654.222 430.889, 654.222 420.889, 654.222 410.889, 654.222 400.889, 654.222 390.889, 654.222 380.889, 654.222 370.889, 654.222 360.889, 654.222 350.889, 654.222 340.889, 654.222 330.889, 654.222 320.889, 654.222 310.889, 654.222 300.889, 654.222 290.889, 654.222 280.889, 654.222 270.889, 654.222 263.111, 654.222 " />
            <path fill="none" stroke-width="1.5" stroke-linecap="round" stroke-opacity="1.0" stroke="rgb(0, 0, 0)" stroke-linejoin="round" d=" M 760.889, 672.000 760.889, 662.000 760.889, 654.222 " />
            <path fill="none" stroke-width="1.5" stroke-linecap="round" stroke-opacity="1.0" stroke="rgb(0, 0, 0)" stroke-linejoin="round" d=" M 760.889, 689.778 760.889, 679.778 760.889, 672.000 " />
            <path fill="none" stroke-width="1.5" stroke-linecap="round" stroke-opacity="1.0" stroke="rgb(0, 0, 0)" stroke-linejoin="round" d=" M 760.889, 352.000 750.889, 352.000 740.889, 352.000 730.889, 352.000 720.889, 352.000 710.889, 352.000 700.889, 352.000 690.889, 352.000 680.889, 352.000 670.889, 352.000 660.889, 352.000 650.889, 352.000 640.889, 352.000 630.889, 352.000 620.889, 352.000 610.889, 352.000 600.889, 352.000 590.889, 352.000 580.889, 352.000 570.889, 352.000 560.889, 352.000 550.889, 352.000 540.889, 352.000 530.889, 352.000 520.889, 352.000 510.889, 352.000 500.889, 352.000 490.889, 352.000 480.889, 352.000 470.889, 352.000 460.889, 352.000 450.889, 352.000 440.889, 352.000 430.889, 352.000 420.889, 352.000 410.889, 352.000 400.889, 352.000 390.889, 352.000 380.889, 352.000 370.889, 352.000 360.889, 352.000 350.889, 352.000 340.889, 352.000 330.889, 352.000 320.889, 352.000 310.889, 352.000 300.889, 352.000 290.889, 352.000 280.889, 352.000 270.889, 352.000 263.111, 352.000 " />
            <path fill="none" stroke-width="1.5" stroke-linecap="round" stroke-opacity="1.0" stroke="rgb(0, 0, 0)" stroke-linejoin="round" d=" M 760.889, 352.000 760.889, 362.000 760.889, 372.000 760.889, 382.000 760.889, 392.000 760.889, 402.000 760.889, 412.000 760.889, 422.000 760.889, 432.000 760.889, 442.000 760.889, 452.000 760.889, 462.000 760.889, 472.000 760.889, 482.000 760.889, 492.000 760.889, 502.000 760.889, 512.000 760.889, 522.000 760.889, 532.000 760.889, 542.000 760.889, 552.000 760.889, 562.000 760.889, 572.000 760.889, 582.000 760.889, 592.000 760.889, 602.000 760.889, 612.000 760.889, 622.000 760.889, 632.000 760.889, 642.000 760.889, 654.222 " />
            <path fill="none" stroke-width="1.5" stroke-linecap="round" stroke-opacity="1.0" stroke="rgb(0, 0, 0)" stroke-linejoin="round" d=" M 760.889, 334.222 760.889, 344.222 760.889, 352.000 " />
            <path fill="none" stroke-width="1.5" stroke-linecap="round" stroke-opacity="1.0" stroke="rgb(0, 0, 0)" stroke-linejoin="round" d=" M 760.889, 334.222 750.889, 334.222 740.889, 334.222 730.889, 334.222 720.889, 334.222 710.889, 334.222 700.889, 334.222 690.889, 334.222 680.889, 334.222 670.889, 334.222 660.889, 334.222 650.889, 334.222 640.889, 334.222 630.889, 334.222 620.889, 334.222 610.889, 334.222 600.889, 334.222 590.889, 334.222 580.889, 334.222 570.889, 334.222 560.889, 334.222 550.889, 334.222 540.889, 334.222 530.889, 334.222 520.889, 334.222 510.889, 334.222 500.889, 334.222 490.889, 334.222 480.889, 334.222 470.889, 334.222 460.889, 334.222 450.889, 334.222 440.889, 334.222 430.889, 334.222 420.889, 334.222 410.889, 334.222 400.889, 334.222 390.889, 334.222 380.889, 334.222 370.889, 334.222 360.889, 334.222 350.889, 334.222 340.889, 334.222 330.889, 334.222 320.889, 334.222 310.889, 334.222 300.889, 334.222 290.889, 334.222 280.889, 334.222 270.889, 334.222 263.111, 334.222 " />
            <path fill="none" stroke-width="1.5" stroke-linecap="round" stroke-opacity="1.0" stroke="rgb(0, 0, 0)" stroke-linejoin="round" d=" M 778.667, 689.778 788.667, 689.778 796.444, 689.778 " />
            <path fill="none" stroke-width="1.5" stroke-linecap="round" stroke-opacity="1.0" stroke="rgb(0, 0, 0)" stroke-linejoin="round" d=" M 760.889, 689.778 770.889, 689.778 778.667, 689.778 " />
            <path fill="none" stroke-width="1.5" stroke-linecap="round" stroke-opacity="1.0" stroke="rgb(0, 0, 0)" stroke-linejoin="round" d=" M 778.667, 334.222 768.667, 334.222 760.889, 334.222 " />
            <path fill="none" stroke-width="1.5" stroke-linecap="round" stroke-opacity="1.0" stroke="rgb(0, 0, 0)" stroke-linejoin="round" d=" M 796.444, 334.222 786.444, 334.222 778.667, 334.222 " />
        </g>
    </g>
    <g id="ViewLayer_TechnicalLines.004" xmlns:inkscape="http://www.inkscape.org/namespaces/inkscape" inkscape:groupmode="lineset" inkscape:label="ViewLayer_TechnicalLines.004">
        <g xmlns:inkscape="http://www.inkscape.org/namespaces/inkscape" inkscape:groupmode="layer" id="strokes" inkscape:label="strokes">
            <path fill="none" stroke-width="1.5" stroke-linecap="round" stroke-opacity="1.0" stroke="rgb(0, 0, 0)" stroke-linejoin="round" d=" M 263.111, 689.778 273.111, 689.778 283.111, 689.778 293.111, 689.778 303.111, 689.778 313.111, 689.778 323.111, 689.778 333.111, 689.778 343.111, 689.778 353.111, 689.778 363.111, 689.778 373.111, 689.778 383.111, 689.778 393.111, 689.778 403.111, 689.778 413.111, 689.778 423.111, 689.778 433.111, 689.778 443.111, 689.778 453.111, 689.778 463.111, 689.778 473.111, 689.778 483.111, 689.778 493.111, 689.778 503.111, 689.778 513.111, 689.778 523.111, 689.778 533.111, 689.778 543.111, 689.778 553.111, 689.778 563.111, 689.778 573.111, 689.778 583.111, 689.778 593.111, 689.778 603.111, 689.778 613.111, 689.778 623.111, 689.778 633.111, 689.778 643.111, 689.778 653.111, 689.778 663.111, 689.778 673.111, 689.778 683.111, 689.778 693.111, 689.778 703.111, 689.778 713.111, 689.778 723.111, 689.778 733.111, 689.778 743.111, 689.778 753.111, 689.778 760.889, 689.778 " />
            <path fill="none" stroke-width="1.5" stroke-linecap="round" stroke-opacity="1.0" stroke="rgb(0, 0, 0)" stroke-linejoin="round" d=" M 227.556, 334.222 227.556, 344.222 227.556, 354.222 227.556, 364.222 227.556, 374.222 227.556, 384.222 227.556, 394.222 227.556, 404.222 227.556, 414.222 227.556, 424.222 227.556, 434.222 227.556, 444.222 227.556, 454.222 227.556, 464.222 227.556, 474.222 227.556, 484.222 227.556, 494.222 227.556, 504.222 227.556, 514.222 227.556, 524.222 227.556, 534.222 227.556, 544.222 227.556, 554.222 227.556, 564.222 227.556, 574.222 227.556, 584.222 227.556, 594.222 227.556, 604.222 227.556, 614.222 227.556, 624.222 227.556, 634.222 227.556, 644.222 227.556, 654.222 227.556, 664.222 227.556, 674.222 227.556, 684.222 227.556, 689.778 237.556, 689.778 247.556, 689.778 257.556, 689.778 263.111, 689.778 " />
            <path fill="none" stroke-width="1.5" stroke-linecap="round" stroke-opacity="1.0" stroke="rgb(0, 0, 0)" stroke-linejoin="round" d=" M 796.444, 689.778 796.444, 679.778 796.444, 669.778 796.444, 659.778 796.444, 649.778 796.444, 639.778 796.444, 629.778 796.444, 619.778 796.444, 609.778 796.444, 599.778 796.444, 589.778 796.444, 579.778 796.444, 569.778 796.444, 559.778 796.444, 549.778 796.444, 539.778 796.444, 529.778 796.444, 519.778 796.444, 509.778 796.444, 499.778 796.444, 489.778 796.444, 479.778 796.444, 469.778 796.444, 459.778 796.444, 449.778 796.444, 439.778 796.444, 429.778 796.444, 419.778 796.444, 409.778 796.444, 399.778 796.444, 389.778 796.444, 379.778 796.444, 369.778 796.444, 359.778 796.444, 349.778 796.444, 339.778 796.444, 334.222 " />
            <path fill="none" stroke-width="1.5" stroke-linecap="round" stroke-opacity="1.0" stroke="rgb(0, 0, 0)" stroke-linejoin="round" d=" M 263.111, 672.000 263.111, 682.000 263.111, 689.778 " />
            <path fill="none" stroke-width="1.5" stroke-linecap="round" stroke-opacity="1.0" stroke="rgb(0, 0, 0)" stroke-linejoin="round" d=" M 263.111, 654.222 263.111, 664.222 263.111, 672.000 " />
            <path fill="none" stroke-width="1.5" stroke-linecap="round" stroke-opacity="1.0" stroke="rgb(0, 0, 0)" stroke-linejoin="round" d=" M 245.333, 334.222 235.333, 334.222 227.556, 334.222 " />
            <path fill="none" stroke-width="1.5" stroke-linecap="round" stroke-opacity="1.0" stroke="rgb(0, 0, 0)" stroke-linejoin="round" d=" M 263.111, 334.222 253.111, 334.222 245.333, 334.222 " />
            <path fill="none" stroke-width="1.5" stroke-linecap="round" stroke-opacity="1.0" stroke="rgb(0, 0, 0)" stroke-linejoin="round" d=" M 263.111, 352.000 263.111, 342.000 263.111, 334.222 " />
            <path fill="none" stroke-width="1.5" stroke-linecap="round" stroke-opacity="1.0" stroke="rgb(0, 0, 0)" stroke-linejoin="round" d=" M 263.111, 654.222 263.111, 644.222 263.111, 634.222 263.111, 624.222 263.111, 614.222 263.111, 604.222 263.111, 594.222 263.111, 584.222 263.111, 574.222 263.111, 564.222 263.111, 554.222 263.111, 544.222 263.111, 534.222 263.111, 524.222 263.111, 514.222 263.111, 504.222 263.111, 494.222 263.111, 484.222 263.111, 474.222 263.111, 464.222 263.111, 454.222 263.111, 444.222 263.111, 434.222 263.111, 424.222 263.111, 414.222 263.111, 404.222 263.111, 394.222 263.111, 384.222 263.111, 374.222 263.111, 364.222 263.111, 352.000 " />
            <path fill="none" stroke-width="1.5" stroke-linecap="round" stroke-opacity="1.0" stroke="rgb(0, 0, 0)" stroke-linejoin="round" d=" M 760.889, 654.222 750.889, 654.222 740.889, 654.222 730.889, 654.222 720.889, 654.222 710.889, 654.222 700.889, 654.222 690.889, 654.222 680.889, 654.222 670.889, 654.222 660.889, 654.222 650.889, 654.222 640.889, 654.222 630.889, 654.222 620.889, 654.222 610.889, 654.222 600.889, 654.222 590.889, 654.222 580.889, 654.222 570.889, 654.222 560.889, 654.222 550.889, 654.222 540.889, 654.222 530.889, 654.222 520.889, 654.222 510.889, 654.222 500.889, 654.222 490.889, 654.222 480.889, 654.222 470.889, 654.222 460.889, 654.222 450.889, 654.222 440.889, 654.222 430.889, 654.222 420.889, 654.222 410.889, 654.222 400.889, 654.222 390.889, 654.222 380.889, 654.222 370.889, 654.222 360.889, 654.222 350.889, 654.222 340.889, 654.222 330.889, 654.222 320.889, 654.222 310.889, 654.222 300.889, 654.222 290.889, 654.222 280.889, 654.222 270.889, 654.222 263.111, 654.222 " />
            <path fill="none" stroke-width="1.5" stroke-linecap="round" stroke-opacity="1.0" stroke="rgb(0, 0, 0)" stroke-linejoin="round" d=" M 760.889, 672.000 760.889, 662.000 760.889, 654.222 " />
            <path fill="none" stroke-width="1.5" stroke-linecap="round" stroke-opacity="1.0" stroke="rgb(0, 0, 0)" stroke-linejoin="round" d=" M 760.889, 689.778 760.889, 679.778 760.889, 672.000 " />
            <path fill="none" stroke-width="1.5" stroke-linecap="round" stroke-opacity="1.0" stroke="rgb(0, 0, 0)" stroke-linejoin="round" d=" M 760.889, 352.000 750.889, 352.000 740.889, 352.000 730.889, 352.000 720.889, 352.000 710.889, 352.000 700.889, 352.000 690.889, 352.000 680.889, 352.000 670.889, 352.000 660.889, 352.000 650.889, 352.000 640.889, 352.000 630.889, 352.000 620.889, 352.000 610.889, 352.000 600.889, 352.000 590.889, 352.000 580.889, 352.000 570.889, 352.000 560.889, 352.000 550.889, 352.000 540.889, 352.000 530.889, 352.000 520.889, 352.000 510.889, 352.000 500.889, 352.000 490.889, 352.000 480.889, 352.000 470.889, 352.000 460.889, 352.000 450.889, 352.000 440.889, 352.000 430.889, 352.000 420.889, 352.000 410.889, 352.000 400.889, 352.000 390.889, 352.000 380.889, 352.000 370.889, 352.000 360.889, 352.000 350.889, 352.000 340.889, 352.000 330.889, 352.000 320.889, 352.000 310.889, 352.000 300.889, 352.000 290.889, 352.000 280.889, 352.000 270.889, 352.000 263.111, 352.000 " />
            <path fill="none" stroke-width="1.5" stroke-linecap="round" stroke-opacity="1.0" stroke="rgb(0, 0, 0)" stroke-linejoin="round" d=" M 760.889, 352.000 760.889, 362.000 760.889, 372.000 760.889, 382.000 760.889, 392.000 760.889, 402.000 760.889, 412.000 760.889, 422.000 760.889, 432.000 760.889, 442.000 760.889, 452.000 760.889, 462.000 760.889, 472.000 760.889, 482.000 760.889, 492.000 760.889, 502.000 760.889, 512.000 760.889, 522.000 760.889, 532.000 760.889, 542.000 760.889, 552.000 760.889, 562.000 760.889, 572.000 760.889, 582.000 760.889, 592.000 760.889, 602.000 760.889, 612.000 760.889, 622.000 760.889, 632.000 760.889, 642.000 760.889, 654.222 " />
            <path fill="none" stroke-width="1.5" stroke-linecap="round" stroke-opacity="1.0" stroke="rgb(0, 0, 0)" stroke-linejoin="round" d=" M 760.889, 334.222 760.889, 344.222 760.889, 352.000 " />
            <path fill="none" stroke-width="1.5" stroke-linecap="round" stroke-opacity="1.0" stroke="rgb(0, 0, 0)" stroke-linejoin="round" d=" M 760.889, 334.222 750.889, 334.222 740.889, 334.222 730.889, 334.222 720.889, 334.222 710.889, 334.222 700.889, 334.222 690.889, 334.222 680.889, 334.222 670.889, 334.222 660.889, 334.222 650.889, 334.222 640.889, 334.222 630.889, 334.222 620.889, 334.222 610.889, 334.222 600.889, 334.222 590.889, 334.222 580.889, 334.222 570.889, 334.222 560.889, 334.222 550.889, 334.222 540.889, 334.222 530.889, 334.222 520.889, 334.222 510.889, 334.222 500.889, 334.222 490.889, 334.222 480.889, 334.222 470.889, 334.222 460.889, 334.222 450.889, 334.222 440.889, 334.222 430.889, 334.222 420.889, 334.222 410.889, 334.222 400.889, 334.222 390.889, 334.222 380.889, 334.222 370.889, 334.222 360.889, 334.222 350.889, 334.222 340.889, 334.222 330.889, 334.222 320.889, 334.222 310.889, 334.222 300.889, 334.222 290.889, 334.222 280.889, 334.222 270.889, 334.222 263.111, 334.222 " />
            <path fill="none" stroke-width="1.5" stroke-linecap="round" stroke-opacity="1.0" stroke="rgb(0, 0, 0)" stroke-linejoin="round" d=" M 778.667, 689.778 788.667, 689.778 796.444, 689.778 " />
            <path fill="none" stroke-width="1.5" stroke-linecap="round" stroke-opacity="1.0" stroke="rgb(0, 0, 0)" stroke-linejoin="round" d=" M 760.889, 689.778 770.889, 689.778 778.667, 689.778 " />
            <path fill="none" stroke-width="1.5" stroke-linecap="round" stroke-opacity="1.0" stroke="rgb(0, 0, 0)" stroke-linejoin="round" d=" M 778.667, 334.222 768.667, 334.222 760.889, 334.222 " />
            <path fill="none" stroke-width="1.5" stroke-linecap="round" stroke-opacity="1.0" stroke="rgb(0, 0, 0)" stroke-linejoin="round" d=" M 796.444, 334.222 786.444, 334.222 778.667, 334.222 " />
        </g>
    </g>
</svg>
