<?xml version='1.0' encoding='ascii'?>
<svg xmlns="http://www.w3.org/2000/svg" xmlns:inkscape="http://www.inkscape.org/namespaces/inkscape" version="1.1" width="1024" height="1024">
    <g id="ViewLayer_LineSet" inkscape:groupmode="lineset" inkscape:label="ViewLayer_LineSet">
        <g inkscape:groupmode="layer" id="strokes" inkscape:label="strokes">
            <path fill="none" stroke-width="3.0" stroke-linecap="butt" stroke-opacity="1.0" stroke="rgb(0, 0, 0)" stroke-linejoin="round" d=" M 388.328, 590.286 388.328, 600.286 388.328, 610.286 388.328, 620.286 388.328, 630.286 388.328, 639.754 388.328, 639.754 398.328, 639.754 408.328, 639.754 418.328, 639.754 428.328, 639.754 438.328, 639.754 448.328, 639.754 458.328, 639.754 468.328, 639.754 478.328, 639.754 488.328, 639.754 498.328, 639.754 508.328, 639.754 518.328, 639.754 528.328, 639.754 538.328, 639.754 548.328, 639.754 558.328, 639.754 568.328, 639.754 578.328, 639.754 588.328, 639.754 598.328, 639.754 608.328, 639.754 618.328, 639.754 628.328, 639.754 635.672, 639.754 635.672, 639.754 635.672, 629.754 635.672, 619.754 635.672, 609.754 635.672, 599.754 635.672, 590.286 625.672, 590.286 615.672, 590.286 605.672, 590.286 595.672, 590.286 585.672, 590.286 575.672, 590.286 565.672, 590.286 555.672, 590.286 545.672, 590.286 535.672, 590.286 525.672, 590.286 515.672, 590.286 505.672, 590.286 495.672, 590.286 485.672, 590.286 475.672, 590.286 465.672, 590.286 455.672, 590.286 445.672, 590.286 435.672, 590.286 425.672, 590.286 415.672, 590.286 405.672, 590.286 395.672, 590.286 388.328, 590.286 " />
            <path fill="none" stroke-width="3.0" stroke-linecap="butt" stroke-opacity="1.0" stroke="rgb(0, 0, 0)" stroke-linejoin="round" d=" M 388.328, 639.754 398.328, 639.754 408.328, 639.754 418.328, 639.754 428.328, 639.754 438.328, 639.754 448.328, 639.754 458.328, 639.754 468.328, 639.754 478.328, 639.754 488.328, 639.754 498.328, 639.754 508.328, 639.754 518.328, 639.754 528.328, 639.754 538.328, 639.754 548.328, 639.754 558.328, 639.754 568.328, 639.754 578.328, 639.754 588.328, 639.754 598.328, 639.754 608.328, 639.754 618.328, 639.754 628.328, 639.754 635.672, 639.754 " />
            <path fill="none" stroke-width="3.0" stroke-linecap="butt" stroke-opacity="1.0" stroke="rgb(0, 0, 0)" stroke-linejoin="round" d=" M 388.328, 371.879 388.328, 381.879 388.328, 391.879 388.328, 401.879 388.328, 411.879 388.328, 421.879 388.328, 431.879 388.328, 441.879 388.328, 451.879 388.328, 461.879 388.328, 471.879 388.328, 481.879 388.328, 491.879 388.328, 501.879 388.328, 511.879 388.328, 521.879 388.328, 531.879 388.328, 541.879 388.328, 551.879 388.328, 561.350 388.328, 571.350 388.328, 581.350 388.328, 586.084 398.328, 586.084 408.328, 586.084 418.328, 586.084 428.328, 586.084 438.328, 586.084 448.328, 586.084 458.328, 586.084 468.328, 586.084 478.328, 586.084 488.328, 586.084 498.328, 586.084 508.328, 586.084 518.328, 586.084 528.328, 586.084 538.328, 586.084 548.328, 586.084 558.328, 586.084 568.328, 586.084 578.328, 586.084 588.328, 586.084 598.328, 586.084 608.328, 586.084 618.328, 586.084 628.328, 586.084 635.672, 586.084 635.672, 576.084 635.672, 566.084 635.672, 561.350 635.672, 551.350 635.672, 541.350 635.672, 531.350 635.672, 521.350 635.672, 511.350 635.672, 501.350 635.672, 491.350 635.672, 481.350 635.672, 471.350 635.672, 461.350 635.672, 451.350 635.672, 441.350 635.672, 431.350 635.672, 421.350 635.672, 411.350 635.672, 401.350 635.672, 391.350 635.672, 381.350 635.672, 371.879 635.672, 361.879 635.672, 351.879 635.672, 347.144 625.672, 347.144 615.672, 347.144 605.672, 347.144 595.672, 347.144 585.672, 347.144 575.672, 347.144 565.672, 347.144 555.672, 347.144 545.672, 347.144 535.672, 347.144 525.672, 347.144 515.672, 347.144 505.672, 347.144 495.672, 347.144 485.672, 347.144 475.672, 347.144 465.672, 347.144 455.672, 347.144 445.672, 347.144 435.672, 347.144 425.672, 347.144 415.672, 347.144 405.672, 347.144 395.672, 347.144 388.328, 347.144 388.328, 357.144 388.328, 367.144 388.328, 371.879 " />
            <path fill="none" stroke-width="3.0" stroke-linecap="butt" stroke-opacity="1.0" stroke="rgb(0, 0, 0)" stroke-linejoin="round" d=" M 388.328, 347.144 388.328, 357.144 388.328, 367.144 388.328, 377.144 388.328, 387.144 388.328, 397.144 388.328, 407.144 388.328, 417.144 388.328, 427.144 388.328, 437.144 388.328, 447.144 388.328, 457.144 388.328, 467.144 388.328, 477.144 388.328, 487.144 388.328, 497.144 388.328, 507.144 388.328, 517.144 388.328, 527.144 388.328, 537.144 388.328, 547.144 388.328, 557.144 388.328, 561.350 " />
            <path fill="none" stroke-width="3.0" stroke-linecap="butt" stroke-opacity="1.0" stroke="rgb(0, 0, 0)" stroke-linejoin="round" d=" M 635.672, 371.879 625.672, 371.879 615.672, 371.879 605.672, 371.879 595.672, 371.879 585.672, 371.879 575.672, 371.879 565.672, 371.879 555.672, 371.879 545.672, 371.879 535.672, 371.879 525.672, 371.879 515.672, 371.879 505.672, 371.879 495.672, 371.879 485.672, 371.879 475.672, 371.879 465.672, 371.879 455.672, 371.879 445.672, 371.879 435.672, 371.879 425.672, 371.879 415.672, 371.879 405.672, 371.879 395.672, 371.879 388.328, 371.879 " />
            <path fill="none" stroke-width="3.0" stroke-linecap="butt" stroke-opacity="1.0" stroke="rgb(0, 0, 0)" stroke-linejoin="round" d=" M 388.328, 652.121 388.328, 662.121 388.328, 672.121 388.328, 676.856 398.328, 676.856 408.328, 676.856 418.328, 676.856 428.328, 676.856 438.328, 676.856 448.328, 676.856 458.328, 676.856 468.328, 676.856 478.328, 676.856 488.328, 676.856 498.328, 676.856 508.328, 676.856 518.328, 676.856 528.328, 676.856 538.328, 676.856 548.328, 676.856 558.328, 676.856 568.328, 676.856 578.328, 676.856 588.328, 676.856 598.328, 676.856 608.328, 676.856 618.328, 676.856 628.328, 676.856 635.672, 676.856 635.672, 666.856 635.672, 656.856 635.672, 652.121 625.672, 652.121 615.672, 652.121 605.672, 652.121 595.672, 652.121 585.672, 652.121 575.672, 652.121 565.672, 652.121 555.672, 652.121 545.672, 652.121 535.672, 652.121 525.672, 652.121 515.672, 652.121 505.672, 652.121 495.672, 652.121 485.672, 652.121 475.672, 652.121 465.672, 652.121 455.672, 652.121 445.672, 652.121 435.672, 652.121 425.672, 652.121 415.672, 652.121 405.672, 652.121 395.672, 652.121 388.328, 652.121 " />
            <path fill="none" stroke-width="3.0" stroke-linecap="butt" stroke-opacity="1.0" stroke="rgb(0, 0, 0)" stroke-linejoin="round" d=" M 227.556, 516.083 227.556, 516.083 227.556, 526.083 227.556, 536.083 227.556, 546.083 227.556, 556.083 227.556, 565.551 227.556, 565.551 237.556, 565.551 247.556, 565.551 252.290, 565.551 252.290, 565.551 252.290, 555.551 252.290, 545.551 252.290, 535.551 252.290, 525.551 252.290, 516.083 252.290, 516.083 242.290, 516.083 232.290, 516.083 227.556, 516.083 " />
            <path fill="none" stroke-width="3.0" stroke-linecap="butt" stroke-opacity="1.0" stroke="rgb(0, 0, 0)" stroke-linejoin="round" d=" M 227.556, 565.551 237.556, 565.551 247.556, 565.551 252.290, 565.551 " />
            <path fill="none" stroke-width="3.0" stroke-linecap="butt" stroke-opacity="1.0" stroke="rgb(0, 0, 0)" stroke-linejoin="round" d=" M 771.710, 516.083 771.710, 526.083 771.710, 536.083 771.710, 546.083 771.710, 556.083 771.710, 565.551 771.710, 565.551 781.710, 565.551 791.710, 565.551 796.444, 565.551 796.444, 565.551 796.444, 555.551 796.444, 545.551 796.444, 535.551 796.444, 525.551 796.444, 516.083 786.444, 516.083 776.444, 516.083 771.710, 516.083 " />
            <path fill="none" stroke-width="3.0" stroke-linecap="butt" stroke-opacity="1.0" stroke="rgb(0, 0, 0)" stroke-linejoin="round" d=" M 771.710, 565.551 781.710, 565.551 791.710, 565.551 796.444, 565.551 " />
        </g>
    </g>
    <g id="ViewLayer_TechnicalLines" inkscape:groupmode="lineset" inkscape:label="ViewLayer_TechnicalLines">
        <g inkscape:groupmode="layer" id="strokes" inkscape:label="strokes">
            <path fill="none" stroke-width="3.0" stroke-linecap="butt" stroke-opacity="1.0" stroke="rgb(0, 0, 0)" stroke-linejoin="round" d=" M 388.328, 590.286 388.328, 600.286 388.328, 610.286 388.328, 620.286 388.328, 630.286 388.328, 639.754 388.328, 639.754 398.328, 639.754 408.328, 639.754 418.328, 639.754 428.328, 639.754 438.328, 639.754 448.328, 639.754 458.328, 639.754 468.328, 639.754 478.328, 639.754 488.328, 639.754 498.328, 639.754 508.328, 639.754 518.328, 639.754 528.328, 639.754 538.328, 639.754 548.328, 639.754 558.328, 639.754 568.328, 639.754 578.328, 639.754 588.328, 639.754 598.328, 639.754 608.328, 639.754 618.328, 639.754 628.328, 639.754 635.672, 639.754 635.672, 639.754 635.672, 629.754 635.672, 619.754 635.672, 609.754 635.672, 599.754 635.672, 590.286 625.672, 590.286 615.672, 590.286 605.672, 590.286 595.672, 590.286 585.672, 590.286 575.672, 590.286 565.672, 590.286 555.672, 590.286 545.672, 590.286 535.672, 590.286 525.672, 590.286 515.672, 590.286 505.672, 590.286 495.672, 590.286 485.672, 590.286 475.672, 590.286 465.672, 590.286 455.672, 590.286 445.672, 590.286 435.672, 590.286 425.672, 590.286 415.672, 590.286 405.672, 590.286 395.672, 590.286 388.328, 590.286 " />
            <path fill="none" stroke-width="3.0" stroke-linecap="butt" stroke-opacity="1.0" stroke="rgb(0, 0, 0)" stroke-linejoin="round" d=" M 388.328, 639.754 398.328, 639.754 408.328, 639.754 418.328, 639.754 428.328, 639.754 438.328, 639.754 448.328, 639.754 458.328, 639.754 468.328, 639.754 478.328, 639.754 488.328, 639.754 498.328, 639.754 508.328, 639.754 518.328, 639.754 528.328, 639.754 538.328, 639.754 548.328, 639.754 558.328, 639.754 568.328, 639.754 578.328, 639.754 588.328, 639.754 598.328, 639.754 608.328, 639.754 618.328, 639.754 628.328, 639.754 635.672, 639.754 " />
            <path fill="none" stroke-width="3.0" stroke-linecap="butt" stroke-opacity="1.0" stroke="rgb(0, 0, 0)" stroke-linejoin="round" d=" M 388.328, 371.879 388.328, 381.879 388.328, 391.879 388.328, 401.879 388.328, 411.879 388.328, 421.879 388.328, 431.879 388.328, 441.879 388.328, 451.879 388.328, 461.879 388.328, 471.879 388.328, 481.879 388.328, 491.879 388.328, 501.879 388.328, 511.879 388.328, 521.879 388.328, 531.879 388.328, 541.879 388.328, 551.879 388.328, 561.350 388.328, 571.350 388.328, 581.350 388.328, 586.084 398.328, 586.084 408.328, 586.084 418.328, 586.084 428.328, 586.084 438.328, 586.084 448.328, 586.084 458.328, 586.084 468.328, 586.084 478.328, 586.084 488.328, 586.084 498.328, 586.084 508.328, 586.084 518.328, 586.084 528.328, 586.084 538.328, 586.084 548.328, 586.084 558.328, 586.084 568.328, 586.084 578.328, 586.084 588.328, 586.084 598.328, 586.084 608.328, 586.084 618.328, 586.084 628.328, 586.084 635.672, 586.084 635.672, 576.084 635.672, 566.084 635.672, 561.350 635.672, 551.350 635.672, 541.350 635.672, 531.350 635.672, 521.350 635.672, 511.350 635.672, 501.350 635.672, 491.350 635.672, 481.350 635.672, 471.350 635.672, 461.350 635.672, 451.350 635.672, 441.350 635.672, 431.350 635.672, 421.350 635.672, 411.350 635.672, 401.350 635.672, 391.350 635.672, 381.350 635.672, 371.879 635.672, 361.879 635.672, 351.879 635.672, 347.144 625.672, 347.144 615.672, 347.144 605.672, 347.144 595.672, 347.144 585.672, 347.144 575.672, 347.144 565.672, 347.144 555.672, 347.144 545.672, 347.144 535.672, 347.144 525.672, 347.144 515.672, 347.144 505.672, 347.144 495.672, 347.144 485.672, 347.144 475.672, 347.144 465.672, 347.144 455.672, 347.144 445.672, 347.144 435.672, 347.144 425.672, 347.144 415.672, 347.144 405.672, 347.144 395.672, 347.144 388.328, 347.144 388.328, 357.144 388.328, 367.144 388.328, 371.879 " />
            <path fill="none" stroke-width="3.0" stroke-linecap="butt" stroke-opacity="1.0" stroke="rgb(0, 0, 0)" stroke-linejoin="round" d=" M 388.328, 347.144 388.328, 357.144 388.328, 367.144 388.328, 377.144 388.328, 387.144 388.328, 397.144 388.328, 407.144 388.328, 417.144 388.328, 427.144 388.328, 437.144 388.328, 447.144 388.328, 457.144 388.328, 467.144 388.328, 477.144 388.328, 487.144 388.328, 497.144 388.328, 507.144 388.328, 517.144 388.328, 527.144 388.328, 537.144 388.328, 547.144 388.328, 557.144 388.328, 561.350 " />
            <path fill="none" stroke-width="3.0" stroke-linecap="butt" stroke-opacity="1.0" stroke="rgb(0, 0, 0)" stroke-linejoin="round" d=" M 635.672, 371.879 625.672, 371.879 615.672, 371.879 605.672, 371.879 595.672, 371.879 585.672, 371.879 575.672, 371.879 565.672, 371.879 555.672, 371.879 545.672, 371.879 535.672, 371.879 525.672, 371.879 515.672, 371.879 505.672, 371.879 495.672, 371.879 485.672, 371.879 475.672, 371.879 465.672, 371.879 455.672, 371.879 445.672, 371.879 435.672, 371.879 425.672, 371.879 415.672, 371.879 405.672, 371.879 395.672, 371.879 388.328, 371.879 " />
            <path fill="none" stroke-width="3.0" stroke-linecap="butt" stroke-opacity="1.0" stroke="rgb(0, 0, 0)" stroke-linejoin="round" d=" M 388.328, 652.121 388.328, 662.121 388.328, 672.121 388.328, 676.856 398.328, 676.856 408.328, 676.856 418.328, 676.856 428.328, 676.856 438.328, 676.856 448.328, 676.856 458.328, 676.856 468.328, 676.856 478.328, 676.856 488.328, 676.856 498.328, 676.856 508.328, 676.856 518.328, 676.856 528.328, 676.856 538.328, 676.856 548.328, 676.856 558.328, 676.856 568.328, 676.856 578.328, 676.856 588.328, 676.856 598.328, 676.856 608.328, 676.856 618.328, 676.856 628.328, 676.856 635.672, 676.856 635.672, 666.856 635.672, 656.856 635.672, 652.121 625.672, 652.121 615.672, 652.121 605.672, 652.121 595.672, 652.121 585.672, 652.121 575.672, 652.121 565.672, 652.121 555.672, 652.121 545.672, 652.121 535.672, 652.121 525.672, 652.121 515.672, 652.121 505.672, 652.121 495.672, 652.121 485.672, 652.121 475.672, 652.121 465.672, 652.121 455.672, 652.121 445.672, 652.121 435.672, 652.121 425.672, 652.121 415.672, 652.121 405.672, 652.121 395.672, 652.121 388.328, 652.121 " />
            <path fill="none" stroke-width="3.0" stroke-linecap="butt" stroke-opacity="1.0" stroke="rgb(0, 0, 0)" stroke-linejoin="round" d=" M 227.556, 516.083 227.556, 516.083 227.556, 526.083 227.556, 536.083 227.556, 546.083 227.556, 556.083 227.556, 565.551 227.556, 565.551 237.556, 565.551 247.556, 565.551 252.290, 565.551 252.290, 565.551 252.290, 555.551 252.290, 545.551 252.290, 535.551 252.290, 525.551 252.290, 516.083 252.290, 516.083 242.290, 516.083 232.290, 516.083 227.556, 516.083 " />
            <path fill="none" stroke-width="3.0" stroke-linecap="butt" stroke-opacity="1.0" stroke="rgb(0, 0, 0)" stroke-linejoin="round" d=" M 227.556, 565.551 237.556, 565.551 247.556, 565.551 252.290, 565.551 " />
            <path fill="none" stroke-width="3.0" stroke-linecap="butt" stroke-opacity="1.0" stroke="rgb(0, 0, 0)" stroke-linejoin="round" d=" M 771.710, 516.083 771.710, 526.083 771.710, 536.083 771.710, 546.083 771.710, 556.083 771.710, 565.551 771.710, 565.551 781.710, 565.551 791.710, 565.551 796.444, 565.551 796.444, 565.551 796.444, 555.551 796.444, 545.551 796.444, 535.551 796.444, 525.551 796.444, 516.083 786.444, 516.083 776.444, 516.083 771.710, 516.083 " />
            <path fill="none" stroke-width="3.0" stroke-linecap="butt" stroke-opacity="1.0" stroke="rgb(0, 0, 0)" stroke-linejoin="round" d=" M 771.710, 565.551 781.710, 565.551 791.710, 565.551 796.444, 565.551 " />
        </g>
    </g>
    <g id="ViewLayer_TechnicalLines.001" inkscape:groupmode="lineset" inkscape:label="ViewLayer_TechnicalLines.001">
        <g inkscape:groupmode="layer" id="strokes" inkscape:label="strokes">
            <path fill="none" stroke-width="1.5" stroke-linecap="round" stroke-opacity="1.0" stroke="rgb(0, 0, 0)" stroke-linejoin="round" d=" M 388.328, 590.286 388.328, 600.286 388.328, 610.286 388.328, 620.286 388.328, 630.286 388.328, 639.754 388.328, 639.754 398.328, 639.754 408.328, 639.754 418.328, 639.754 428.328, 639.754 438.328, 639.754 448.328, 639.754 458.328, 639.754 468.328, 639.754 478.328, 639.754 488.328, 639.754 498.328, 639.754 508.328, 639.754 518.328, 639.754 528.328, 639.754 538.328, 639.754 548.328, 639.754 558.328, 639.754 568.328, 639.754 578.328, 639.754 588.328, 639.754 598.328, 639.754 608.328, 639.754 618.328, 639.754 628.328, 639.754 635.672, 639.754 635.672, 639.754 635.672, 629.754 635.672, 619.754 635.672, 609.754 635.672, 599.754 635.672, 590.286 625.672, 590.286 615.672, 590.286 605.672, 590.286 595.672, 590.286 585.672, 590.286 575.672, 590.286 565.672, 590.286 555.672, 590.286 545.672, 590.286 535.672, 590.286 525.672, 590.286 515.672, 590.286 505.672, 590.286 495.672, 590.286 485.672, 590.286 475.672, 590.286 465.672, 590.286 455.672, 590.286 445.672, 590.286 435.672, 590.286 425.672, 590.286 415.672, 590.286 405.672, 590.286 395.672, 590.286 388.328, 590.286 " />
            <path fill="none" stroke-width="1.5" stroke-linecap="round" stroke-opacity="1.0" stroke="rgb(0, 0, 0)" stroke-linejoin="round" d=" M 388.328, 639.754 398.328, 639.754 408.328, 639.754 418.328, 639.754 428.328, 639.754 438.328, 639.754 448.328, 639.754 458.328, 639.754 468.328, 639.754 478.328, 639.754 488.328, 639.754 498.328, 639.754 508.328, 639.754 518.328, 639.754 528.328, 639.754 538.328, 639.754 548.328, 639.754 558.328, 639.754 568.328, 639.754 578.328, 639.754 588.328, 639.754 598.328, 639.754 608.328, 639.754 618.328, 639.754 628.328, 639.754 635.672, 639.754 " />
            <path fill="none" stroke-width="1.5" stroke-linecap="round" stroke-opacity="1.0" stroke="rgb(0, 0, 0)" stroke-linejoin="round" d=" M 388.328, 371.879 388.328, 381.879 388.328, 391.879 388.328, 401.879 388.328, 411.879 388.328, 421.879 388.328, 431.879 388.328, 441.879 388.328, 451.879 388.328, 461.879 388.328, 471.879 388.328, 481.879 388.328, 491.879 388.328, 501.879 388.328, 511.879 388.328, 521.879 388.328, 531.879 388.328, 541.879 388.328, 551.879 388.328, 561.350 388.328, 571.350 388.328, 581.350 388.328, 586.084 398.328, 586.084 408.328, 586.084 418.328, 586.084 428.328, 586.084 438.328, 586.084 448.328, 586.084 458.328, 586.084 468.328, 586.084 478.328, 586.084 488.328, 586.084 498.328, 586.084 508.328, 586.084 518.328, 586.084 528.328, 586.084 538.328, 586.084 548.328, 586.084 558.328, 586.084 568.328, 586.084 578.328, 586.084 588.328, 586.084 598.328, 586.084 608.328, 586.084 618.328, 586.084 628.328, 586.084 635.672, 586.084 635.672, 576.084 635.672, 566.084 635.672, 561.350 635.672, 551.350 635.672, 541.350 635.672, 531.350 635.672, 521.350 635.672, 511.350 635.672, 501.350 635.672, 491.350 635.672, 481.350 635.672, 471.350 635.672, 461.350 635.672, 451.350 635.672, 441.350 635.672, 431.350 635.672, 421.350 635.672, 411.350 635.672, 401.350 635.672, 391.350 635.672, 381.350 635.672, 371.879 635.672, 361.879 635.672, 351.879 635.672, 347.144 625.672, 347.144 615.672, 347.144 605.672, 347.144 595.672, 347.144 585.672, 347.144 575.672, 347.144 565.672, 347.144 555.672, 347.144 545.672, 347.144 535.672, 347.144 525.672, 347.144 515.672, 347.144 505.672, 347.144 495.672, 347.144 485.672, 347.144 475.672, 347.144 465.672, 347.144 455.672, 347.144 445.672, 347.144 435.672, 347.144 425.672, 347.144 415.672, 347.144 405.672, 347.144 395.672, 347.144 388.328, 347.144 388.328, 357.144 388.328, 367.144 388.328, 371.879 " />
            <path fill="none" stroke-width="1.5" stroke-linecap="round" stroke-opacity="1.0" stroke="rgb(0, 0, 0)" stroke-linejoin="round" d=" M 388.328, 347.144 388.328, 357.144 388.328, 367.144 388.328, 377.144 388.328, 387.144 388.328, 397.144 388.328, 407.144 388.328, 417.144 388.328, 427.144 388.328, 437.144 388.328, 447.144 388.328, 457.144 388.328, 467.144 388.328, 477.144 388.328, 487.144 388.328, 497.144 388.328, 507.144 388.328, 517.144 388.328, 527.144 388.328, 537.144 388.328, 547.144 388.328, 557.144 388.328, 561.350 " />
            <path fill="none" stroke-width="1.5" stroke-linecap="round" stroke-opacity="1.0" stroke="rgb(0, 0, 0)" stroke-linejoin="round" d=" M 635.672, 371.879 625.672, 371.879 615.672, 371.879 605.672, 371.879 595.672, 371.879 585.672, 371.879 575.672, 371.879 565.672, 371.879 555.672, 371.879 545.672, 371.879 535.672, 371.879 525.672, 371.879 515.672, 371.879 505.672, 371.879 495.672, 371.879 485.672, 371.879 475.672, 371.879 465.672, 371.879 455.672, 371.879 445.672, 371.879 435.672, 371.879 425.672, 371.879 415.672, 371.879 405.672, 371.879 395.672, 371.879 388.328, 371.879 " />
            <path fill="none" stroke-width="1.5" stroke-linecap="round" stroke-opacity="1.0" stroke="rgb(0, 0, 0)" stroke-linejoin="round" d=" M 388.328, 652.121 388.328, 662.121 388.328, 672.121 388.328, 676.856 398.328, 676.856 408.328, 676.856 418.328, 676.856 428.328, 676.856 438.328, 676.856 448.328, 676.856 458.328, 676.856 468.328, 676.856 478.328, 676.856 488.328, 676.856 498.328, 676.856 508.328, 676.856 518.328, 676.856 528.328, 676.856 538.328, 676.856 548.328, 676.856 558.328, 676.856 568.328, 676.856 578.328, 676.856 588.328, 676.856 598.328, 676.856 608.328, 676.856 618.328, 676.856 628.328, 676.856 635.672, 676.856 635.672, 666.856 635.672, 656.856 635.672, 652.121 625.672, 652.121 615.672, 652.121 605.672, 652.121 595.672, 652.121 585.672, 652.121 575.672, 652.121 565.672, 652.121 555.672, 652.121 545.672, 652.121 535.672, 652.121 525.672, 652.121 515.672, 652.121 505.672, 652.121 495.672, 652.121 485.672, 652.121 475.672, 652.121 465.672, 652.121 455.672, 652.121 445.672, 652.121 435.672, 652.121 425.672, 652.121 415.672, 652.121 405.672, 652.121 395.672, 652.121 388.328, 652.121 " />
            <path fill="none" stroke-width="1.5" stroke-linecap="round" stroke-opacity="1.0" stroke="rgb(0, 0, 0)" stroke-linejoin="round" d=" M 227.556, 516.083 227.556, 516.083 227.556, 526.083 227.556, 536.083 227.556, 546.083 227.556, 556.083 227.556, 565.551 227.556, 565.551 237.556, 565.551 247.556, 565.551 252.290, 565.551 252.290, 565.551 252.290, 555.551 252.290, 545.551 252.290, 535.551 252.290, 525.551 252.290, 516.083 252.290, 516.083 242.290, 516.083 232.290, 516.083 227.556, 516.083 " />
            <path fill="none" stroke-width="1.5" stroke-linecap="round" stroke-opacity="1.0" stroke="rgb(0, 0, 0)" stroke-linejoin="round" d=" M 227.556, 565.551 237.556, 565.551 247.556, 565.551 252.290, 565.551 " />
            <path fill="none" stroke-width="1.5" stroke-linecap="round" stroke-opacity="1.0" stroke="rgb(0, 0, 0)" stroke-linejoin="round" d=" M 771.710, 516.083 771.710, 526.083 771.710, 536.083 771.710, 546.083 771.710, 556.083 771.710, 565.551 771.710, 565.551 781.710, 565.551 791.710, 565.551 796.444, 565.551 796.444, 565.551 796.444, 555.551 796.444, 545.551 796.444, 535.551 796.444, 525.551 796.444, 516.083 786.444, 516.083 776.444, 516.083 771.710, 516.083 " />
            <path fill="none" stroke-width="1.5" stroke-linecap="round" stroke-opacity="1.0" stroke="rgb(0, 0, 0)" stroke-linejoin="round" d=" M 771.710, 565.551 781.710, 565.551 791.710, 565.551 796.444, 565.551 " />
        </g>
    </g>
    <g id="ViewLayer_TechnicalLines.002" inkscape:groupmode="lineset" inkscape:label="ViewLayer_TechnicalLines.002">
        <g inkscape:groupmode="layer" id="strokes" inkscape:label="strokes">
            <path fill="none" stroke-width="1.5" stroke-linecap="round" stroke-opacity="1.0" stroke="rgb(0, 0, 0)" stroke-linejoin="round" d=" M 388.328, 590.286 388.328, 600.286 388.328, 610.286 388.328, 620.286 388.328, 630.286 388.328, 639.754 388.328, 639.754 398.328, 639.754 408.328, 639.754 418.328, 639.754 428.328, 639.754 438.328, 639.754 448.328, 639.754 458.328, 639.754 468.328, 639.754 478.328, 639.754 488.328, 639.754 498.328, 639.754 508.328, 639.754 518.328, 639.754 528.328, 639.754 538.328, 639.754 548.328, 639.754 558.328, 639.754 568.328, 639.754 578.328, 639.754 588.328, 639.754 598.328, 639.754 608.328, 639.754 618.328, 639.754 628.328, 639.754 635.672, 639.754 635.672, 639.754 635.672, 629.754 635.672, 619.754 635.672, 609.754 635.672, 599.754 635.672, 590.286 625.672, 590.286 615.672, 590.286 605.672, 590.286 595.672, 590.286 585.672, 590.286 575.672, 590.286 565.672, 590.286 555.672, 590.286 545.672, 590.286 535.672, 590.286 525.672, 590.286 515.672, 590.286 505.672, 590.286 495.672, 590.286 485.672, 590.286 475.672, 590.286 465.672, 590.286 455.672, 590.286 445.672, 590.286 435.672, 590.286 425.672, 590.286 415.672, 590.286 405.672, 590.286 395.672, 590.286 388.328, 590.286 " />
            <path fill="none" stroke-width="1.5" stroke-linecap="round" stroke-opacity="1.0" stroke="rgb(0, 0, 0)" stroke-linejoin="round" d=" M 388.328, 639.754 398.328, 639.754 408.328, 639.754 418.328, 639.754 428.328, 639.754 438.328, 639.754 448.328, 639.754 458.328, 639.754 468.328, 639.754 478.328, 639.754 488.328, 639.754 498.328, 639.754 508.328, 639.754 518.328, 639.754 528.328, 639.754 538.328, 639.754 548.328, 639.754 558.328, 639.754 568.328, 639.754 578.328, 639.754 588.328, 639.754 598.328, 639.754 608.328, 639.754 618.328, 639.754 628.328, 639.754 635.672, 639.754 " />
            <path fill="none" stroke-width="1.5" stroke-linecap="round" stroke-opacity="1.0" stroke="rgb(0, 0, 0)" stroke-linejoin="round" d=" M 388.328, 371.879 388.328, 381.879 388.328, 391.879 388.328, 401.879 388.328, 411.879 388.328, 421.879 388.328, 431.879 388.328, 441.879 388.328, 451.879 388.328, 461.879 388.328, 471.879 388.328, 481.879 388.328, 491.879 388.328, 501.879 388.328, 511.879 388.328, 521.879 388.328, 531.879 388.328, 541.879 388.328, 551.879 388.328, 561.350 388.328, 571.350 388.328, 581.350 388.328, 586.084 398.328, 586.084 408.328, 586.084 418.328, 586.084 428.328, 586.084 438.328, 586.084 448.328, 586.084 458.328, 586.084 468.328, 586.084 478.328, 586.084 488.328, 586.084 498.328, 586.084 508.328, 586.084 518.328, 586.084 528.328, 586.084 538.328, 586.084 548.328, 586.084 558.328, 586.084 568.328, 586.084 578.328, 586.084 588.328, 586.084 598.328, 586.084 608.328, 586.084 618.328, 586.084 628.328, 586.084 635.672, 586.084 635.672, 576.084 635.672, 566.084 635.672, 561.350 635.672, 551.350 635.672, 541.350 635.672, 531.350 635.672, 521.350 635.672, 511.350 635.672, 501.350 635.672, 491.350 635.672, 481.350 635.672, 471.350 635.672, 461.350 635.672, 451.350 635.672, 441.350 635.672, 431.350 635.672, 421.350 635.672, 411.350 635.672, 401.350 635.672, 391.350 635.672, 381.350 635.672, 371.879 635.672, 361.879 635.672, 351.879 635.672, 347.144 625.672, 347.144 615.672, 347.144 605.672, 347.144 595.672, 347.144 585.672, 347.144 575.672, 347.144 565.672, 347.144 555.672, 347.144 545.672, 347.144 535.672, 347.144 525.672, 347.144 515.672, 347.144 505.672, 347.144 495.672, 347.144 485.672, 347.144 475.672, 347.144 465.672, 347.144 455.672, 347.144 445.672, 347.144 435.672, 347.144 425.672, 347.144 415.672, 347.144 405.672, 347.144 395.672, 347.144 388.328, 347.144 388.328, 357.144 388.328, 367.144 388.328, 371.879 " />
            <path fill="none" stroke-width="1.5" stroke-linecap="round" stroke-opacity="1.0" stroke="rgb(0, 0, 0)" stroke-linejoin="round" d=" M 388.328, 347.144 388.328, 357.144 388.328, 367.144 388.328, 377.144 388.328, 387.144 388.328, 397.144 388.328, 407.144 388.328, 417.144 388.328, 427.144 388.328, 437.144 388.328, 447.144 388.328, 457.144 388.328, 467.144 388.328, 477.144 388.328, 487.144 388.328, 497.144 388.328, 507.144 388.328, 517.144 388.328, 527.144 388.328, 537.144 388.328, 547.144 388.328, 557.144 388.328, 561.350 " />
            <path fill="none" stroke-width="1.5" stroke-linecap="round" stroke-opacity="1.0" stroke="rgb(0, 0, 0)" stroke-linejoin="round" d=" M 635.672, 371.879 625.672, 371.879 615.672, 371.879 605.672, 371.879 595.672, 371.879 585.672, 371.879 575.672, 371.879 565.672, 371.879 555.672, 371.879 545.672, 371.879 535.672, 371.879 525.672, 371.879 515.672, 371.879 505.672, 371.879 495.672, 371.879 485.672, 371.879 475.672, 371.879 465.672, 371.879 455.672, 371.879 445.672, 371.879 435.672, 371.879 425.672, 371.879 415.672, 371.879 405.672, 371.879 395.672, 371.879 388.328, 371.879 " />
            <path fill="none" stroke-width="1.5" stroke-linecap="round" stroke-opacity="1.0" stroke="rgb(0, 0, 0)" stroke-linejoin="round" d=" M 388.328, 652.121 388.328, 662.121 388.328, 672.121 388.328, 676.856 398.328, 676.856 408.328, 676.856 418.328, 676.856 428.328, 676.856 438.328, 676.856 448.328, 676.856 458.328, 676.856 468.328, 676.856 478.328, 676.856 488.328, 676.856 498.328, 676.856 508.328, 676.856 518.328, 676.856 528.328, 676.856 538.328, 676.856 548.328, 676.856 558.328, 676.856 568.328, 676.856 578.328, 676.856 588.328, 676.856 598.328, 676.856 608.328, 676.856 618.328, 676.856 628.328, 676.856 635.672, 676.856 635.672, 666.856 635.672, 656.856 635.672, 652.121 625.672, 652.121 615.672, 652.121 605.672, 652.121 595.672, 652.121 585.672, 652.121 575.672, 652.121 565.672, 652.121 555.672, 652.121 545.672, 652.121 535.672, 652.121 525.672, 652.121 515.672, 652.121 505.672, 652.121 495.672, 652.121 485.672, 652.121 475.672, 652.121 465.672, 652.121 455.672, 652.121 445.672, 652.121 435.672, 652.121 425.672, 652.121 415.672, 652.121 405.672, 652.121 395.672, 652.121 388.328, 652.121 " />
            <path fill="none" stroke-width="1.5" stroke-linecap="round" stroke-opacity="1.0" stroke="rgb(0, 0, 0)" stroke-linejoin="round" d=" M 227.556, 516.083 227.556, 516.083 227.556, 526.083 227.556, 536.083 227.556, 546.083 227.556, 556.083 227.556, 565.551 227.556, 565.551 237.556, 565.551 247.556, 565.551 252.290, 565.551 252.290, 565.551 252.290, 555.551 252.290, 545.551 252.290, 535.551 252.290, 525.551 252.290, 516.083 252.290, 516.083 242.290, 516.083 232.290, 516.083 227.556, 516.083 " />
            <path fill="none" stroke-width="1.5" stroke-linecap="round" stroke-opacity="1.0" stroke="rgb(0, 0, 0)" stroke-linejoin="round" d=" M 227.556, 565.551 237.556, 565.551 247.556, 565.551 252.290, 565.551 " />
            <path fill="none" stroke-width="1.5" stroke-linecap="round" stroke-opacity="1.0" stroke="rgb(0, 0, 0)" stroke-linejoin="round" d=" M 771.710, 516.083 771.710, 526.083 771.710, 536.083 771.710, 546.083 771.710, 556.083 771.710, 565.551 771.710, 565.551 781.710, 565.551 791.710, 565.551 796.444, 565.551 796.444, 565.551 796.444, 555.551 796.444, 545.551 796.444, 535.551 796.444, 525.551 796.444, 516.083 786.444, 516.083 776.444, 516.083 771.710, 516.083 " />
            <path fill="none" stroke-width="1.5" stroke-linecap="round" stroke-opacity="1.0" stroke="rgb(0, 0, 0)" stroke-linejoin="round" d=" M 771.710, 565.551 781.710, 565.551 791.710, 565.551 796.444, 565.551 " />
        </g>
    </g>
    <g id="ViewLayer_TechnicalLines.003" inkscape:groupmode="lineset" inkscape:label="ViewLayer_TechnicalLines.003">
        <g inkscape:groupmode="layer" id="strokes" inkscape:label="strokes">
            <path fill="none" stroke-width="1.5" stroke-linecap="round" stroke-opacity="1.0" stroke="rgb(0, 0, 0)" stroke-linejoin="round" d=" M 388.328, 590.286 388.328, 600.286 388.328, 610.286 388.328, 620.286 388.328, 630.286 388.328, 639.754 388.328, 639.754 398.328, 639.754 408.328, 639.754 418.328, 639.754 428.328, 639.754 438.328, 639.754 448.328, 639.754 458.328, 639.754 468.328, 639.754 478.328, 639.754 488.328, 639.754 498.328, 639.754 508.328, 639.754 518.328, 639.754 528.328, 639.754 538.328, 639.754 548.328, 639.754 558.328, 639.754 568.328, 639.754 578.328, 639.754 588.328, 639.754 598.328, 639.754 608.328, 639.754 618.328, 639.754 628.328, 639.754 635.672, 639.754 635.672, 639.754 635.672, 629.754 635.672, 619.754 635.672, 609.754 635.672, 599.754 635.672, 590.286 625.672, 590.286 615.672, 590.286 605.672, 590.286 595.672, 590.286 585.672, 590.286 575.672, 590.286 565.672, 590.286 555.672, 590.286 545.672, 590.286 535.672, 590.286 525.672, 590.286 515.672, 590.286 505.672, 590.286 495.672, 590.286 485.672, 590.286 475.672, 590.286 465.672, 590.286 455.672, 590.286 445.672, 590.286 435.672, 590.286 425.672, 590.286 415.672, 590.286 405.672, 590.286 395.672, 590.286 388.328, 590.286 " />
            <path fill="none" stroke-width="1.5" stroke-linecap="round" stroke-opacity="1.0" stroke="rgb(0, 0, 0)" stroke-linejoin="round" d=" M 388.328, 639.754 398.328, 639.754 408.328, 639.754 418.328, 639.754 428.328, 639.754 438.328, 639.754 448.328, 639.754 458.328, 639.754 468.328, 639.754 478.328, 639.754 488.328, 639.754 498.328, 639.754 508.328, 639.754 518.328, 639.754 528.328, 639.754 538.328, 639.754 548.328, 639.754 558.328, 639.754 568.328, 639.754 578.328, 639.754 588.328, 639.754 598.328, 639.754 608.328, 639.754 618.328, 639.754 628.328, 639.754 635.672, 639.754 " />
            <path fill="none" stroke-width="1.5" stroke-linecap="round" stroke-opacity="1.0" stroke="rgb(0, 0, 0)" stroke-linejoin="round" d=" M 388.328, 371.879 388.328, 381.879 388.328, 391.879 388.328, 401.879 388.328, 411.879 388.328, 421.879 388.328, 431.879 388.328, 441.879 388.328, 451.879 388.328, 461.879 388.328, 471.879 388.328, 481.879 388.328, 491.879 388.328, 501.879 388.328, 511.879 388.328, 521.879 388.328, 531.879 388.328, 541.879 388.328, 551.879 388.328, 561.350 388.328, 571.350 388.328, 581.350 388.328, 586.084 398.328, 586.084 408.328, 586.084 418.328, 586.084 428.328, 586.084 438.328, 586.084 448.328, 586.084 458.328, 586.084 468.328, 586.084 478.328, 586.084 488.328, 586.084 498.328, 586.084 508.328, 586.084 518.328, 586.084 528.328, 586.084 538.328, 586.084 548.328, 586.084 558.328, 586.084 568.328, 586.084 578.328, 586.084 588.328, 586.084 598.328, 586.084 608.328, 586.084 618.328, 586.084 628.328, 586.084 635.672, 586.084 635.672, 576.084 635.672, 566.084 635.672, 561.350 635.672, 551.350 635.672, 541.350 635.672, 531.350 635.672, 521.350 635.672, 511.350 635.672, 501.350 635.672, 491.350 635.672, 481.350 635.672, 471.350 635.672, 461.350 635.672, 451.350 635.672, 441.350 635.672, 431.350 635.672, 421.350 635.672, 411.350 635.672, 401.350 635.672, 391.350 635.672, 381.350 635.672, 371.879 635.672, 361.879 635.672, 351.879 635.672, 347.144 625.672, 347.144 615.672, 347.144 605.672, 347.144 595.672, 347.144 585.672, 347.144 575.672, 347.144 565.672, 347.144 555.672, 347.144 545.672, 347.144 535.672, 347.144 525.672, 347.144 515.672, 347.144 505.672, 347.144 495.672, 347.144 485.672, 347.144 475.672, 347.144 465.672, 347.144 455.672, 347.144 445.672, 347.144 435.672, 347.144 425.672, 347.144 415.672, 347.144 405.672, 347.144 395.672, 347.144 388.328, 347.144 388.328, 357.144 388.328, 367.144 388.328, 371.879 " />
            <path fill="none" stroke-width="1.5" stroke-linecap="round" stroke-opacity="1.0" stroke="rgb(0, 0, 0)" stroke-linejoin="round" d=" M 388.328, 347.144 388.328, 357.144 388.328, 367.144 388.328, 377.144 388.328, 387.144 388.328, 397.144 388.328, 407.144 388.328, 417.144 388.328, 427.144 388.328, 437.144 388.328, 447.144 388.328, 457.144 388.328, 467.144 388.328, 477.144 388.328, 487.144 388.328, 497.144 388.328, 507.144 388.328, 517.144 388.328, 527.144 388.328, 537.144 388.328, 547.144 388.328, 557.144 388.328, 561.350 " />
            <path fill="none" stroke-width="1.5" stroke-linecap="round" stroke-opacity="1.0" stroke="rgb(0, 0, 0)" stroke-linejoin="round" d=" M 635.672, 371.879 625.672, 371.879 615.672, 371.879 605.672, 371.879 595.672, 371.879 585.672, 371.879 575.672, 371.879 565.672, 371.879 555.672, 371.879 545.672, 371.879 535.672, 371.879 525.672, 371.879 515.672, 371.879 505.672, 371.879 495.672, 371.879 485.672, 371.879 475.672, 371.879 465.672, 371.879 455.672, 371.879 445.672, 371.879 435.672, 371.879 425.672, 371.879 415.672, 371.879 405.672, 371.879 395.672, 371.879 388.328, 371.879 " />
            <path fill="none" stroke-width="1.5" stroke-linecap="round" stroke-opacity="1.0" stroke="rgb(0, 0, 0)" stroke-linejoin="round" d=" M 388.328, 652.121 388.328, 662.121 388.328, 672.121 388.328, 676.856 398.328, 676.856 408.328, 676.856 418.328, 676.856 428.328, 676.856 438.328, 676.856 448.328, 676.856 458.328, 676.856 468.328, 676.856 478.328, 676.856 488.328, 676.856 498.328, 676.856 508.328, 676.856 518.328, 676.856 528.328, 676.856 538.328, 676.856 548.328, 676.856 558.328, 676.856 568.328, 676.856 578.328, 676.856 588.328, 676.856 598.328, 676.856 608.328, 676.856 618.328, 676.856 628.328, 676.856 635.672, 676.856 635.672, 666.856 635.672, 656.856 635.672, 652.121 625.672, 652.121 615.672, 652.121 605.672, 652.121 595.672, 652.121 585.672, 652.121 575.672, 652.121 565.672, 652.121 555.672, 652.121 545.672, 652.121 535.672, 652.121 525.672, 652.121 515.672, 652.121 505.672, 652.121 495.672, 652.121 485.672, 652.121 475.672, 652.121 465.672, 652.121 455.672, 652.121 445.672, 652.121 435.672, 652.121 425.672, 652.121 415.672, 652.121 405.672, 652.121 395.672, 652.121 388.328, 652.121 " />
            <path fill="none" stroke-width="1.5" stroke-linecap="round" stroke-opacity="1.0" stroke="rgb(0, 0, 0)" stroke-linejoin="round" d=" M 227.556, 516.083 227.556, 516.083 227.556, 526.083 227.556, 536.083 227.556, 546.083 227.556, 556.083 227.556, 565.551 227.556, 565.551 237.556, 565.551 247.556, 565.551 252.290, 565.551 252.290, 565.551 252.290, 555.551 252.290, 545.551 252.290, 535.551 252.290, 525.551 252.290, 516.083 252.290, 516.083 242.290, 516.083 232.290, 516.083 227.556, 516.083 " />
            <path fill="none" stroke-width="1.5" stroke-linecap="round" stroke-opacity="1.0" stroke="rgb(0, 0, 0)" stroke-linejoin="round" d=" M 227.556, 565.551 237.556, 565.551 247.556, 565.551 252.290, 565.551 " />
            <path fill="none" stroke-width="1.5" stroke-linecap="round" stroke-opacity="1.0" stroke="rgb(0, 0, 0)" stroke-linejoin="round" d=" M 771.710, 516.083 771.710, 526.083 771.710, 536.083 771.710, 546.083 771.710, 556.083 771.710, 565.551 771.710, 565.551 781.710, 565.551 791.710, 565.551 796.444, 565.551 796.444, 565.551 796.444, 555.551 796.444, 545.551 796.444, 535.551 796.444, 525.551 796.444, 516.083 786.444, 516.083 776.444, 516.083 771.710, 516.083 " />
            <path fill="none" stroke-width="1.5" stroke-linecap="round" stroke-opacity="1.0" stroke="rgb(0, 0, 0)" stroke-linejoin="round" d=" M 771.710, 565.551 781.710, 565.551 791.710, 565.551 796.444, 565.551 " />
        </g>
    </g>
    <g id="ViewLayer_TechnicalLines.004" xmlns:inkscape="http://www.inkscape.org/namespaces/inkscape" inkscape:groupmode="lineset" inkscape:label="ViewLayer_TechnicalLines.004">
        <g xmlns:inkscape="http://www.inkscape.org/namespaces/inkscape" inkscape:groupmode="layer" id="strokes" inkscape:label="strokes">
            <path fill="none" stroke-width="1.5" stroke-linecap="round" stroke-opacity="1.0" stroke="rgb(0, 0, 0)" stroke-linejoin="round" d=" M 388.328, 590.286 388.328, 600.286 388.328, 610.286 388.328, 620.286 388.328, 630.286 388.328, 639.754 388.328, 639.754 398.328, 639.754 408.328, 639.754 418.328, 639.754 428.328, 639.754 438.328, 639.754 448.328, 639.754 458.328, 639.754 468.328, 639.754 478.328, 639.754 488.328, 639.754 498.328, 639.754 508.328, 639.754 518.328, 639.754 528.328, 639.754 538.328, 639.754 548.328, 639.754 558.328, 639.754 568.328, 639.754 578.328, 639.754 588.328, 639.754 598.328, 639.754 608.328, 639.754 618.328, 639.754 628.328, 639.754 635.672, 639.754 635.672, 639.754 635.672, 629.754 635.672, 619.754 635.672, 609.754 635.672, 599.754 635.672, 590.286 625.672, 590.286 615.672, 590.286 605.672, 590.286 595.672, 590.286 585.672, 590.286 575.672, 590.286 565.672, 590.286 555.672, 590.286 545.672, 590.286 535.672, 590.286 525.672, 590.286 515.672, 590.286 505.672, 590.286 495.672, 590.286 485.672, 590.286 475.672, 590.286 465.672, 590.286 455.672, 590.286 445.672, 590.286 435.672, 590.286 425.672, 590.286 415.672, 590.286 405.672, 590.286 395.672, 590.286 388.328, 590.286 " />
            <path fill="none" stroke-width="1.5" stroke-linecap="round" stroke-opacity="1.0" stroke="rgb(0, 0, 0)" stroke-linejoin="round" d=" M 388.328, 639.754 398.328, 639.754 408.328, 639.754 418.328, 639.754 428.328, 639.754 438.328, 639.754 448.328, 639.754 458.328, 639.754 468.328, 639.754 478.328, 639.754 488.328, 639.754 498.328, 639.754 508.328, 639.754 518.328, 639.754 528.328, 639.754 538.328, 639.754 548.328, 639.754 558.328, 639.754 568.328, 639.754 578.328, 639.754 588.328, 639.754 598.328, 639.754 608.328, 639.754 618.328, 639.754 628.328, 639.754 635.672, 639.754 " />
            <path fill="none" stroke-width="1.5" stroke-linecap="round" stroke-opacity="1.0" stroke="rgb(0, 0, 0)" stroke-linejoin="round" d=" M 388.328, 371.879 388.328, 381.879 388.328, 391.879 388.328, 401.879 388.328, 411.879 388.328, 421.879 388.328, 431.879 388.328, 441.879 388.328, 451.879 388.328, 461.879 388.328, 471.879 388.328, 481.879 388.328, 491.879 388.328, 501.879 388.328, 511.879 388.328, 521.879 388.328, 531.879 388.328, 541.879 388.328, 551.879 388.328, 561.350 388.328, 571.350 388.328, 581.350 388.328, 586.084 398.328, 586.084 408.328, 586.084 418.328, 586.084 428.328, 586.084 438.328, 586.084 448.328, 586.084 458.328, 586.084 468.328, 586.084 478.328, 586.084 488.328, 586.084 498.328, 586.084 508.328, 586.084 518.328, 586.084 528.328, 586.084 538.328, 586.084 548.328, 586.084 558.328, 586.084 568.328, 586.084 578.328, 586.084 588.328, 586.084 598.328, 586.084 608.328, 586.084 618.328, 586.084 628.328, 586.084 635.672, 586.084 635.672, 576.084 635.672, 566.084 635.672, 561.350 635.672, 551.350 635.672, 541.350 635.672, 531.350 635.672, 521.350 635.672, 511.350 635.672, 501.350 635.672, 491.350 635.672, 481.350 635.672, 471.350 635.672, 461.350 635.672, 451.350 635.672, 441.350 635.672, 431.350 635.672, 421.350 635.672, 411.350 635.672, 401.350 635.672, 391.350 635.672, 381.350 635.672, 371.879 635.672, 361.879 635.672, 351.879 635.672, 347.144 625.672, 347.144 615.672, 347.144 605.672, 347.144 595.672, 347.144 585.672, 347.144 575.672, 347.144 565.672, 347.144 555.672, 347.144 545.672, 347.144 535.672, 347.144 525.672, 347.144 515.672, 347.144 505.672, 347.144 495.672, 347.144 485.672, 347.144 475.672, 347.144 465.672, 347.144 455.672, 347.144 445.672, 347.144 435.672, 347.144 425.672, 347.144 415.672, 347.144 405.672, 347.144 395.672, 347.144 388.328, 347.144 388.328, 357.144 388.328, 367.144 388.328, 371.879 " />
            <path fill="none" stroke-width="1.5" stroke-linecap="round" stroke-opacity="1.0" stroke="rgb(0, 0, 0)" stroke-linejoin="round" d=" M 388.328, 347.144 388.328, 357.144 388.328, 367.144 388.328, 377.144 388.328, 387.144 388.328, 397.144 388.328, 407.144 388.328, 417.144 388.328, 427.144 388.328, 437.144 388.328, 447.144 388.328, 457.144 388.328, 467.144 388.328, 477.144 388.328, 487.144 388.328, 497.144 388.328, 507.144 388.328, 517.144 388.328, 527.144 388.328, 537.144 388.328, 547.144 388.328, 557.144 388.328, 561.350 " />
            <path fill="none" stroke-width="1.5" stroke-linecap="round" stroke-opacity="1.0" stroke="rgb(0, 0, 0)" stroke-linejoin="round" d=" M 635.672, 371.879 625.672, 371.879 615.672, 371.879 605.672, 371.879 595.672, 371.879 585.672, 371.879 575.672, 371.879 565.672, 371.879 555.672, 371.879 545.672, 371.879 535.672, 371.879 525.672, 371.879 515.672, 371.879 505.672, 371.879 495.672, 371.879 485.672, 371.879 475.672, 371.879 465.672, 371.879 455.672, 371.879 445.672, 371.879 435.672, 371.879 425.672, 371.879 415.672, 371.879 405.672, 371.879 395.672, 371.879 388.328, 371.879 " />
            <path fill="none" stroke-width="1.5" stroke-linecap="round" stroke-opacity="1.0" stroke="rgb(0, 0, 0)" stroke-linejoin="round" d=" M 388.328, 652.121 388.328, 662.121 388.328, 672.121 388.328, 676.856 398.328, 676.856 408.328, 676.856 418.328, 676.856 428.328, 676.856 438.328, 676.856 448.328, 676.856 458.328, 676.856 468.328, 676.856 478.328, 676.856 488.328, 676.856 498.328, 676.856 508.328, 676.856 518.328, 676.856 528.328, 676.856 538.328, 676.856 548.328, 676.856 558.328, 676.856 568.328, 676.856 578.328, 676.856 588.328, 676.856 598.328, 676.856 608.328, 676.856 618.328, 676.856 628.328, 676.856 635.672, 676.856 635.672, 666.856 635.672, 656.856 635.672, 652.121 625.672, 652.121 615.672, 652.121 605.672, 652.121 595.672, 652.121 585.672, 652.121 575.672, 652.121 565.672, 652.121 555.672, 652.121 545.672, 652.121 535.672, 652.121 525.672, 652.121 515.672, 652.121 505.672, 652.121 495.672, 652.121 485.672, 652.121 475.672, 652.121 465.672, 652.121 455.672, 652.121 445.672, 652.121 435.672, 652.121 425.672, 652.121 415.672, 652.121 405.672, 652.121 395.672, 652.121 388.328, 652.121 " />
            <path fill="none" stroke-width="1.5" stroke-linecap="round" stroke-opacity="1.0" stroke="rgb(0, 0, 0)" stroke-linejoin="round" d=" M 227.556, 516.083 227.556, 516.083 227.556, 526.083 227.556, 536.083 227.556, 546.083 227.556, 556.083 227.556, 565.551 227.556, 565.551 237.556, 565.551 247.556, 565.551 252.290, 565.551 252.290, 565.551 252.290, 555.551 252.290, 545.551 252.290, 535.551 252.290, 525.551 252.290, 516.083 252.290, 516.083 242.290, 516.083 232.290, 516.083 227.556, 516.083 " />
            <path fill="none" stroke-width="1.5" stroke-linecap="round" stroke-opacity="1.0" stroke="rgb(0, 0, 0)" stroke-linejoin="round" d=" M 227.556, 565.551 237.556, 565.551 247.556, 565.551 252.290, 565.551 " />
            <path fill="none" stroke-width="1.5" stroke-linecap="round" stroke-opacity="1.0" stroke="rgb(0, 0, 0)" stroke-linejoin="round" d=" M 771.710, 516.083 771.710, 526.083 771.710, 536.083 771.710, 546.083 771.710, 556.083 771.710, 565.551 771.710, 565.551 781.710, 565.551 791.710, 565.551 796.444, 565.551 796.444, 565.551 796.444, 555.551 796.444, 545.551 796.444, 535.551 796.444, 525.551 796.444, 516.083 786.444, 516.083 776.444, 516.083 771.710, 516.083 " />
            <path fill="none" stroke-width="1.5" stroke-linecap="round" stroke-opacity="1.0" stroke="rgb(0, 0, 0)" stroke-linejoin="round" d=" M 771.710, 565.551 781.710, 565.551 791.710, 565.551 796.444, 565.551 " />
        </g>
    </g>
</svg>
