<?xml version='1.0' encoding='ascii'?>
<svg xmlns="http://www.w3.org/2000/svg" xmlns:inkscape="http://www.inkscape.org/namespaces/inkscape" version="1.1" width="1024" height="1024">
    <g id="ViewLayer_LineSet" inkscape:groupmode="lineset" inkscape:label="ViewLayer_LineSet">
        <g inkscape:groupmode="layer" id="strokes" inkscape:label="strokes">
            <path fill="none" stroke-width="3.0" stroke-linecap="butt" stroke-opacity="1.0" stroke="rgb(0, 0, 0)" stroke-linejoin="round" d=" M 330.440, 451.480 320.440, 451.480 310.440, 451.480 300.440, 451.480 290.440, 451.480 282.024, 451.480 282.024, 461.480 282.024, 471.480 282.024, 481.480 282.024, 491.480 282.024, 501.480 282.024, 505.948 " />
            <path fill="none" stroke-width="3.0" stroke-linecap="butt" stroke-opacity="1.0" stroke="rgb(0, 0, 0)" stroke-linejoin="round" d=" M 403.064, 572.520 403.064, 562.520 403.064, 552.520 403.064, 542.520 403.064, 532.520 403.064, 524.104 " />
            <path fill="none" stroke-width="3.0" stroke-linecap="butt" stroke-opacity="1.0" stroke="rgb(0, 0, 0)" stroke-linejoin="round" d=" M 282.024, 518.052 282.024, 528.052 282.024, 538.052 282.024, 548.052 282.024, 558.052 282.024, 568.052 282.024, 572.520 292.024, 572.520 302.024, 572.520 312.024, 572.520 322.024, 572.520 330.440, 572.520 " />
            <path fill="none" stroke-width="3.0" stroke-linecap="butt" stroke-opacity="1.0" stroke="rgb(0, 0, 0)" stroke-linejoin="round" d=" M 403.064, 524.104 403.064, 514.104 403.064, 504.104 403.064, 499.896 " />
            <path fill="none" stroke-width="3.0" stroke-linecap="butt" stroke-opacity="1.0" stroke="rgb(0, 0, 0)" stroke-linejoin="round" d=" M 354.648, 572.520 344.648, 572.520 334.648, 572.520 330.440, 572.520 " />
            <path fill="none" stroke-width="3.0" stroke-linecap="butt" stroke-opacity="1.0" stroke="rgb(0, 0, 0)" stroke-linejoin="round" d=" M 354.648, 596.728 354.648, 586.728 354.648, 576.728 354.648, 572.520 " />
            <path fill="none" stroke-width="3.0" stroke-linecap="butt" stroke-opacity="1.0" stroke="rgb(0, 0, 0)" stroke-linejoin="round" d=" M 330.440, 451.480 340.440, 451.480 350.440, 451.480 354.648, 451.480 " />
            <path fill="none" stroke-width="3.0" stroke-linecap="butt" stroke-opacity="1.0" stroke="rgb(0, 0, 0)" stroke-linejoin="round" d=" M 282.024, 505.948 272.024, 505.948 262.024, 505.948 252.024, 505.948 242.024, 505.948 232.024, 505.948 227.556, 505.948 227.556, 506.064 227.556, 506.409 227.556, 506.968 227.556, 507.721 227.556, 508.638 227.556, 509.684 227.556, 510.819 227.556, 512.000 227.556, 513.181 227.556, 514.316 227.556, 515.362 227.556, 516.279 227.556, 517.032 227.556, 517.591 227.556, 517.936 227.556, 518.052 237.556, 518.052 247.556, 518.052 257.556, 518.052 267.556, 518.052 277.556, 518.052 282.024, 518.052 " />
            <path fill="none" stroke-width="3.0" stroke-linecap="butt" stroke-opacity="1.0" stroke="rgb(0, 0, 0)" stroke-linejoin="round" d=" M 766.184, 451.480 756.184, 451.480 746.184, 451.480 736.184, 451.480 726.184, 451.480 716.184, 451.480 706.184, 451.480 696.184, 451.480 686.184, 451.480 676.184, 451.480 666.184, 451.480 656.184, 451.480 645.144, 451.480 " />
            <path fill="none" stroke-width="3.0" stroke-linecap="butt" stroke-opacity="1.0" stroke="rgb(0, 0, 0)" stroke-linejoin="round" d=" M 645.144, 572.520 655.144, 572.520 665.144, 572.520 675.144, 572.520 685.144, 572.520 695.144, 572.520 705.144, 572.520 715.144, 572.520 725.144, 572.520 735.144, 572.520 745.144, 572.520 755.144, 572.520 766.184, 572.520 " />
            <path fill="none" stroke-width="3.0" stroke-linecap="butt" stroke-opacity="1.0" stroke="rgb(0, 0, 0)" stroke-linejoin="round" d=" M 645.144, 505.948 645.144, 515.948 645.144, 518.052 655.144, 518.052 665.144, 518.052 675.144, 518.052 685.144, 518.052 695.144, 518.052 705.144, 518.052 715.144, 518.052 725.144, 518.052 735.144, 518.052 745.144, 518.052 755.144, 518.052 766.184, 518.052 766.184, 508.052 766.184, 505.948 756.184, 505.948 746.184, 505.948 736.184, 505.948 726.184, 505.948 716.184, 505.948 706.184, 505.948 696.184, 505.948 686.184, 505.948 676.184, 505.948 666.184, 505.948 656.184, 505.948 645.144, 505.948 " />
            <path fill="none" stroke-width="3.0" stroke-linecap="butt" stroke-opacity="1.0" stroke="rgb(0, 0, 0)" stroke-linejoin="round" d=" M 794.672, 507.721 793.755, 506.968 792.708, 506.409 791.573, 506.064 " />
            <path fill="none" stroke-width="3.0" stroke-linecap="butt" stroke-opacity="1.0" stroke="rgb(0, 0, 0)" stroke-linejoin="round" d=" M 795.984, 514.316 796.328, 513.181 796.444, 512.000 796.328, 510.819 795.984, 509.684 " />
            <path fill="none" stroke-width="3.0" stroke-linecap="butt" stroke-opacity="1.0" stroke="rgb(0, 0, 0)" stroke-linejoin="round" d=" M 795.425, 515.362 795.984, 514.316 " />
            <path fill="none" stroke-width="3.0" stroke-linecap="butt" stroke-opacity="1.0" stroke="rgb(0, 0, 0)" stroke-linejoin="round" d=" M 794.672, 516.279 795.425, 515.362 " />
            <path fill="none" stroke-width="3.0" stroke-linecap="butt" stroke-opacity="1.0" stroke="rgb(0, 0, 0)" stroke-linejoin="round" d=" M 791.573, 517.936 792.708, 517.591 793.755, 517.032 794.672, 516.279 " />
            <path fill="none" stroke-width="3.0" stroke-linecap="butt" stroke-opacity="1.0" stroke="rgb(0, 0, 0)" stroke-linejoin="round" d=" M 788.076, 517.591 789.212, 517.936 790.392, 518.052 791.573, 517.936 " />
            <path fill="none" stroke-width="3.0" stroke-linecap="butt" stroke-opacity="1.0" stroke="rgb(0, 0, 0)" stroke-linejoin="round" d=" M 784.340, 512.000 784.457, 513.181 784.801, 514.316 785.360, 515.362 786.113, 516.279 787.030, 517.032 788.076, 517.591 " />
            <path fill="none" stroke-width="3.0" stroke-linecap="butt" stroke-opacity="1.0" stroke="rgb(0, 0, 0)" stroke-linejoin="round" d=" M 788.076, 506.409 787.030, 506.968 786.113, 507.721 785.360, 508.638 784.801, 509.684 784.457, 510.819 784.340, 512.000 " />
            <path fill="none" stroke-width="3.0" stroke-linecap="butt" stroke-opacity="1.0" stroke="rgb(0, 0, 0)" stroke-linejoin="round" d=" M 791.573, 506.064 790.392, 505.948 789.212, 506.064 788.076, 506.409 " />
            <path fill="none" stroke-width="3.0" stroke-linecap="butt" stroke-opacity="1.0" stroke="rgb(0, 0, 0)" stroke-linejoin="round" d=" M 282.024, 499.896 282.024, 505.948 282.024, 515.948 282.024, 518.052 282.024, 524.104 " />
            <path fill="none" stroke-width="3.0" stroke-linecap="butt" stroke-opacity="1.0" stroke="rgb(0, 0, 0)" stroke-linejoin="round" d=" M 330.440, 572.520 330.440, 582.520 330.440, 592.520 330.440, 596.728 " />
            <path fill="none" stroke-width="3.0" stroke-linecap="butt" stroke-opacity="1.0" stroke="rgb(0, 0, 0)" stroke-linejoin="round" d=" M 330.440, 427.272 330.440, 437.272 330.440, 447.272 330.440, 451.480 " />
            <path fill="none" stroke-width="3.0" stroke-linecap="butt" stroke-opacity="1.0" stroke="rgb(0, 0, 0)" stroke-linejoin="round" d=" M 330.440, 596.728 340.440, 596.728 350.440, 596.728 354.648, 596.728 " />
            <path fill="none" stroke-width="3.0" stroke-linecap="butt" stroke-opacity="1.0" stroke="rgb(0, 0, 0)" stroke-linejoin="round" d=" M 354.648, 427.272 344.648, 427.272 334.648, 427.272 330.440, 427.272 " />
            <path fill="none" stroke-width="3.0" stroke-linecap="butt" stroke-opacity="1.0" stroke="rgb(0, 0, 0)" stroke-linejoin="round" d=" M 354.648, 451.480 354.648, 441.480 354.648, 431.480 354.648, 427.272 " />
            <path fill="none" stroke-width="3.0" stroke-linecap="butt" stroke-opacity="1.0" stroke="rgb(0, 0, 0)" stroke-linejoin="round" d=" M 354.648, 572.520 364.648, 572.520 374.648, 572.520 384.648, 572.520 394.648, 572.520 403.064, 572.520 " />
            <path fill="none" stroke-width="3.0" stroke-linecap="butt" stroke-opacity="1.0" stroke="rgb(0, 0, 0)" stroke-linejoin="round" d=" M 282.024, 524.104 292.024, 524.104 302.024, 524.104 312.024, 524.104 322.024, 524.104 332.024, 524.104 342.024, 524.104 352.024, 524.104 362.024, 524.104 372.024, 524.104 382.024, 524.104 392.024, 524.104 403.064, 524.104 " />
            <path fill="none" stroke-width="3.0" stroke-linecap="butt" stroke-opacity="1.0" stroke="rgb(0, 0, 0)" stroke-linejoin="round" d=" M 403.064, 499.896 393.064, 499.896 383.064, 499.896 373.064, 499.896 363.064, 499.896 353.064, 499.896 343.064, 499.896 333.064, 499.896 323.064, 499.896 313.064, 499.896 303.064, 499.896 293.064, 499.896 282.024, 499.896 " />
            <path fill="none" stroke-width="3.0" stroke-linecap="butt" stroke-opacity="1.0" stroke="rgb(0, 0, 0)" stroke-linejoin="round" d=" M 403.064, 451.480 393.064, 451.480 383.064, 451.480 373.064, 451.480 363.064, 451.480 354.648, 451.480 " />
            <path fill="none" stroke-width="3.0" stroke-linecap="butt" stroke-opacity="1.0" stroke="rgb(0, 0, 0)" stroke-linejoin="round" d=" M 403.064, 499.896 403.064, 489.896 403.064, 479.896 403.064, 469.896 403.064, 459.896 403.064, 451.480 " />
            <path fill="none" stroke-width="3.0" stroke-linecap="butt" stroke-opacity="1.0" stroke="rgb(0, 0, 0)" stroke-linejoin="round" d=" M 795.425, 508.638 794.672, 507.721 " />
            <path fill="none" stroke-width="3.0" stroke-linecap="butt" stroke-opacity="1.0" stroke="rgb(0, 0, 0)" stroke-linejoin="round" d=" M 795.984, 509.684 795.425, 508.638 " />
        </g>
    </g>
    <g id="ViewLayer_TechnicalLines" inkscape:groupmode="lineset" inkscape:label="ViewLayer_TechnicalLines">
        <g inkscape:groupmode="layer" id="strokes" inkscape:label="strokes">
            <path fill="none" stroke-width="3.0" stroke-linecap="butt" stroke-opacity="1.0" stroke="rgb(0, 0, 0)" stroke-linejoin="round" d=" M 330.440, 451.480 320.440, 451.480 310.440, 451.480 300.440, 451.480 290.440, 451.480 282.024, 451.480 282.024, 461.480 282.024, 471.480 282.024, 481.480 282.024, 491.480 282.024, 501.480 282.024, 505.948 " />
            <path fill="none" stroke-width="3.0" stroke-linecap="butt" stroke-opacity="1.0" stroke="rgb(0, 0, 0)" stroke-linejoin="round" d=" M 403.064, 572.520 403.064, 562.520 403.064, 552.520 403.064, 542.520 403.064, 532.520 403.064, 524.104 " />
            <path fill="none" stroke-width="3.0" stroke-linecap="butt" stroke-opacity="1.0" stroke="rgb(0, 0, 0)" stroke-linejoin="round" d=" M 282.024, 518.052 282.024, 528.052 282.024, 538.052 282.024, 548.052 282.024, 558.052 282.024, 568.052 282.024, 572.520 292.024, 572.520 302.024, 572.520 312.024, 572.520 322.024, 572.520 330.440, 572.520 " />
            <path fill="none" stroke-width="3.0" stroke-linecap="butt" stroke-opacity="1.0" stroke="rgb(0, 0, 0)" stroke-linejoin="round" d=" M 403.064, 524.104 403.064, 514.104 403.064, 504.104 403.064, 499.896 " />
            <path fill="none" stroke-width="3.0" stroke-linecap="butt" stroke-opacity="1.0" stroke="rgb(0, 0, 0)" stroke-linejoin="round" d=" M 354.648, 572.520 344.648, 572.520 334.648, 572.520 330.440, 572.520 " />
            <path fill="none" stroke-width="3.0" stroke-linecap="butt" stroke-opacity="1.0" stroke="rgb(0, 0, 0)" stroke-linejoin="round" d=" M 354.648, 596.728 354.648, 586.728 354.648, 576.728 354.648, 572.520 " />
            <path fill="none" stroke-width="3.0" stroke-linecap="butt" stroke-opacity="1.0" stroke="rgb(0, 0, 0)" stroke-linejoin="round" d=" M 330.440, 451.480 340.440, 451.480 350.440, 451.480 354.648, 451.480 " />
            <path fill="none" stroke-width="3.0" stroke-linecap="butt" stroke-opacity="1.0" stroke="rgb(0, 0, 0)" stroke-linejoin="round" d=" M 282.024, 505.948 272.024, 505.948 262.024, 505.948 252.024, 505.948 242.024, 505.948 232.024, 505.948 227.556, 505.948 227.556, 506.064 227.556, 506.409 227.556, 506.968 227.556, 507.721 227.556, 508.638 227.556, 509.684 227.556, 510.819 227.556, 512.000 227.556, 513.181 227.556, 514.316 227.556, 515.362 227.556, 516.279 227.556, 517.032 227.556, 517.591 227.556, 517.936 227.556, 518.052 237.556, 518.052 247.556, 518.052 257.556, 518.052 267.556, 518.052 277.556, 518.052 282.024, 518.052 " />
            <path fill="none" stroke-width="3.0" stroke-linecap="butt" stroke-opacity="1.0" stroke="rgb(0, 0, 0)" stroke-linejoin="round" d=" M 766.184, 451.480 756.184, 451.480 746.184, 451.480 736.184, 451.480 726.184, 451.480 716.184, 451.480 706.184, 451.480 696.184, 451.480 686.184, 451.480 676.184, 451.480 666.184, 451.480 656.184, 451.480 645.144, 451.480 " />
            <path fill="none" stroke-width="3.0" stroke-linecap="butt" stroke-opacity="1.0" stroke="rgb(0, 0, 0)" stroke-linejoin="round" d=" M 645.144, 572.520 655.144, 572.520 665.144, 572.520 675.144, 572.520 685.144, 572.520 695.144, 572.520 705.144, 572.520 715.144, 572.520 725.144, 572.520 735.144, 572.520 745.144, 572.520 755.144, 572.520 766.184, 572.520 " />
            <path fill="none" stroke-width="3.0" stroke-linecap="butt" stroke-opacity="1.0" stroke="rgb(0, 0, 0)" stroke-linejoin="round" d=" M 645.144, 505.948 645.144, 515.948 645.144, 518.052 655.144, 518.052 665.144, 518.052 675.144, 518.052 685.144, 518.052 695.144, 518.052 705.144, 518.052 715.144, 518.052 725.144, 518.052 735.144, 518.052 745.144, 518.052 755.144, 518.052 766.184, 518.052 766.184, 508.052 766.184, 505.948 756.184, 505.948 746.184, 505.948 736.184, 505.948 726.184, 505.948 716.184, 505.948 706.184, 505.948 696.184, 505.948 686.184, 505.948 676.184, 505.948 666.184, 505.948 656.184, 505.948 645.144, 505.948 " />
            <path fill="none" stroke-width="3.0" stroke-linecap="butt" stroke-opacity="1.0" stroke="rgb(0, 0, 0)" stroke-linejoin="round" d=" M 794.672, 507.721 793.755, 506.968 792.708, 506.409 791.573, 506.064 " />
            <path fill="none" stroke-width="3.0" stroke-linecap="butt" stroke-opacity="1.0" stroke="rgb(0, 0, 0)" stroke-linejoin="round" d=" M 795.984, 514.316 796.328, 513.181 796.444, 512.000 796.328, 510.819 795.984, 509.684 " />
            <path fill="none" stroke-width="3.0" stroke-linecap="butt" stroke-opacity="1.0" stroke="rgb(0, 0, 0)" stroke-linejoin="round" d=" M 795.425, 515.362 795.984, 514.316 " />
            <path fill="none" stroke-width="3.0" stroke-linecap="butt" stroke-opacity="1.0" stroke="rgb(0, 0, 0)" stroke-linejoin="round" d=" M 794.672, 516.279 795.425, 515.362 " />
            <path fill="none" stroke-width="3.0" stroke-linecap="butt" stroke-opacity="1.0" stroke="rgb(0, 0, 0)" stroke-linejoin="round" d=" M 791.573, 517.936 792.708, 517.591 793.755, 517.032 794.672, 516.279 " />
            <path fill="none" stroke-width="3.0" stroke-linecap="butt" stroke-opacity="1.0" stroke="rgb(0, 0, 0)" stroke-linejoin="round" d=" M 788.076, 517.591 789.212, 517.936 790.392, 518.052 791.573, 517.936 " />
            <path fill="none" stroke-width="3.0" stroke-linecap="butt" stroke-opacity="1.0" stroke="rgb(0, 0, 0)" stroke-linejoin="round" d=" M 784.340, 512.000 784.457, 513.181 784.801, 514.316 785.360, 515.362 786.113, 516.279 787.030, 517.032 788.076, 517.591 " />
            <path fill="none" stroke-width="3.0" stroke-linecap="butt" stroke-opacity="1.0" stroke="rgb(0, 0, 0)" stroke-linejoin="round" d=" M 788.076, 506.409 787.030, 506.968 786.113, 507.721 785.360, 508.638 784.801, 509.684 784.457, 510.819 784.340, 512.000 " />
            <path fill="none" stroke-width="3.0" stroke-linecap="butt" stroke-opacity="1.0" stroke="rgb(0, 0, 0)" stroke-linejoin="round" d=" M 791.573, 506.064 790.392, 505.948 789.212, 506.064 788.076, 506.409 " />
            <path fill="none" stroke-width="3.0" stroke-linecap="butt" stroke-opacity="1.0" stroke="rgb(0, 0, 0)" stroke-linejoin="round" d=" M 282.024, 499.896 282.024, 505.948 282.024, 515.948 282.024, 518.052 282.024, 524.104 " />
            <path fill="none" stroke-width="3.0" stroke-linecap="butt" stroke-opacity="1.0" stroke="rgb(0, 0, 0)" stroke-linejoin="round" d=" M 330.440, 572.520 330.440, 582.520 330.440, 592.520 330.440, 596.728 " />
            <path fill="none" stroke-width="3.0" stroke-linecap="butt" stroke-opacity="1.0" stroke="rgb(0, 0, 0)" stroke-linejoin="round" d=" M 330.440, 427.272 330.440, 437.272 330.440, 447.272 330.440, 451.480 " />
            <path fill="none" stroke-width="3.0" stroke-linecap="butt" stroke-opacity="1.0" stroke="rgb(0, 0, 0)" stroke-linejoin="round" d=" M 330.440, 596.728 340.440, 596.728 350.440, 596.728 354.648, 596.728 " />
            <path fill="none" stroke-width="3.0" stroke-linecap="butt" stroke-opacity="1.0" stroke="rgb(0, 0, 0)" stroke-linejoin="round" d=" M 354.648, 427.272 344.648, 427.272 334.648, 427.272 330.440, 427.272 " />
            <path fill="none" stroke-width="3.0" stroke-linecap="butt" stroke-opacity="1.0" stroke="rgb(0, 0, 0)" stroke-linejoin="round" d=" M 354.648, 451.480 354.648, 441.480 354.648, 431.480 354.648, 427.272 " />
            <path fill="none" stroke-width="3.0" stroke-linecap="butt" stroke-opacity="1.0" stroke="rgb(0, 0, 0)" stroke-linejoin="round" d=" M 354.648, 572.520 364.648, 572.520 374.648, 572.520 384.648, 572.520 394.648, 572.520 403.064, 572.520 " />
            <path fill="none" stroke-width="3.0" stroke-linecap="butt" stroke-opacity="1.0" stroke="rgb(0, 0, 0)" stroke-linejoin="round" d=" M 282.024, 524.104 292.024, 524.104 302.024, 524.104 312.024, 524.104 322.024, 524.104 332.024, 524.104 342.024, 524.104 352.024, 524.104 362.024, 524.104 372.024, 524.104 382.024, 524.104 392.024, 524.104 403.064, 524.104 " />
            <path fill="none" stroke-width="3.0" stroke-linecap="butt" stroke-opacity="1.0" stroke="rgb(0, 0, 0)" stroke-linejoin="round" d=" M 403.064, 499.896 393.064, 499.896 383.064, 499.896 373.064, 499.896 363.064, 499.896 353.064, 499.896 343.064, 499.896 333.064, 499.896 323.064, 499.896 313.064, 499.896 303.064, 499.896 293.064, 499.896 282.024, 499.896 " />
            <path fill="none" stroke-width="3.0" stroke-linecap="butt" stroke-opacity="1.0" stroke="rgb(0, 0, 0)" stroke-linejoin="round" d=" M 403.064, 451.480 393.064, 451.480 383.064, 451.480 373.064, 451.480 363.064, 451.480 354.648, 451.480 " />
            <path fill="none" stroke-width="3.0" stroke-linecap="butt" stroke-opacity="1.0" stroke="rgb(0, 0, 0)" stroke-linejoin="round" d=" M 403.064, 499.896 403.064, 489.896 403.064, 479.896 403.064, 469.896 403.064, 459.896 403.064, 451.480 " />
            <path fill="none" stroke-width="3.0" stroke-linecap="butt" stroke-opacity="1.0" stroke="rgb(0, 0, 0)" stroke-linejoin="round" d=" M 795.425, 508.638 794.672, 507.721 " />
            <path fill="none" stroke-width="3.0" stroke-linecap="butt" stroke-opacity="1.0" stroke="rgb(0, 0, 0)" stroke-linejoin="round" d=" M 795.984, 509.684 795.425, 508.638 " />
        </g>
    </g>
    <g id="ViewLayer_TechnicalLines.001" inkscape:groupmode="lineset" inkscape:label="ViewLayer_TechnicalLines.001">
        <g inkscape:groupmode="layer" id="strokes" inkscape:label="strokes">
            <path fill="none" stroke-width="1.5" stroke-linecap="round" stroke-opacity="1.0" stroke="rgb(0, 0, 0)" stroke-linejoin="round" d=" M 330.440, 451.480 320.440, 451.480 310.440, 451.480 300.440, 451.480 290.440, 451.480 282.024, 451.480 282.024, 461.480 282.024, 471.480 282.024, 481.480 282.024, 491.480 282.024, 501.480 282.024, 505.948 " />
            <path fill="none" stroke-width="1.5" stroke-linecap="round" stroke-opacity="1.0" stroke="rgb(0, 0, 0)" stroke-linejoin="round" d=" M 403.064, 572.520 403.064, 562.520 403.064, 552.520 403.064, 542.520 403.064, 532.520 403.064, 524.104 " />
            <path fill="none" stroke-width="1.5" stroke-linecap="round" stroke-opacity="1.0" stroke="rgb(0, 0, 0)" stroke-linejoin="round" d=" M 282.024, 518.052 282.024, 528.052 282.024, 538.052 282.024, 548.052 282.024, 558.052 282.024, 568.052 282.024, 572.520 292.024, 572.520 302.024, 572.520 312.024, 572.520 322.024, 572.520 330.440, 572.520 " />
            <path fill="none" stroke-width="1.5" stroke-linecap="round" stroke-opacity="1.0" stroke="rgb(0, 0, 0)" stroke-linejoin="round" d=" M 403.064, 524.104 403.064, 514.104 403.064, 504.104 403.064, 499.896 " />
            <path fill="none" stroke-width="1.5" stroke-linecap="round" stroke-opacity="1.0" stroke="rgb(0, 0, 0)" stroke-linejoin="round" d=" M 354.648, 572.520 344.648, 572.520 334.648, 572.520 330.440, 572.520 " />
            <path fill="none" stroke-width="1.5" stroke-linecap="round" stroke-opacity="1.0" stroke="rgb(0, 0, 0)" stroke-linejoin="round" d=" M 354.648, 596.728 354.648, 586.728 354.648, 576.728 354.648, 572.520 " />
            <path fill="none" stroke-width="1.5" stroke-linecap="round" stroke-opacity="1.0" stroke="rgb(0, 0, 0)" stroke-linejoin="round" d=" M 330.440, 451.480 340.440, 451.480 350.440, 451.480 354.648, 451.480 " />
            <path fill="none" stroke-width="1.5" stroke-linecap="round" stroke-opacity="1.0" stroke="rgb(0, 0, 0)" stroke-linejoin="round" d=" M 282.024, 505.948 272.024, 505.948 262.024, 505.948 252.024, 505.948 242.024, 505.948 232.024, 505.948 227.556, 505.948 227.556, 506.064 227.556, 506.409 227.556, 506.968 227.556, 507.721 227.556, 508.638 227.556, 509.684 227.556, 510.819 227.556, 512.000 227.556, 513.181 227.556, 514.316 227.556, 515.362 227.556, 516.279 227.556, 517.032 227.556, 517.591 227.556, 517.936 227.556, 518.052 237.556, 518.052 247.556, 518.052 257.556, 518.052 267.556, 518.052 277.556, 518.052 282.024, 518.052 " />
            <path fill="none" stroke-width="1.5" stroke-linecap="round" stroke-opacity="1.0" stroke="rgb(0, 0, 0)" stroke-linejoin="round" d=" M 766.184, 451.480 756.184, 451.480 746.184, 451.480 736.184, 451.480 726.184, 451.480 716.184, 451.480 706.184, 451.480 696.184, 451.480 686.184, 451.480 676.184, 451.480 666.184, 451.480 656.184, 451.480 645.144, 451.480 " />
            <path fill="none" stroke-width="1.5" stroke-linecap="round" stroke-opacity="1.0" stroke="rgb(0, 0, 0)" stroke-linejoin="round" d=" M 645.144, 572.520 655.144, 572.520 665.144, 572.520 675.144, 572.520 685.144, 572.520 695.144, 572.520 705.144, 572.520 715.144, 572.520 725.144, 572.520 735.144, 572.520 745.144, 572.520 755.144, 572.520 766.184, 572.520 " />
            <path fill="none" stroke-width="1.5" stroke-linecap="round" stroke-opacity="1.0" stroke="rgb(0, 0, 0)" stroke-linejoin="round" d=" M 645.144, 505.948 645.144, 515.948 645.144, 518.052 655.144, 518.052 665.144, 518.052 675.144, 518.052 685.144, 518.052 695.144, 518.052 705.144, 518.052 715.144, 518.052 725.144, 518.052 735.144, 518.052 745.144, 518.052 755.144, 518.052 766.184, 518.052 766.184, 508.052 766.184, 505.948 756.184, 505.948 746.184, 505.948 736.184, 505.948 726.184, 505.948 716.184, 505.948 706.184, 505.948 696.184, 505.948 686.184, 505.948 676.184, 505.948 666.184, 505.948 656.184, 505.948 645.144, 505.948 " />
            <path fill="none" stroke-width="1.5" stroke-linecap="round" stroke-opacity="1.0" stroke="rgb(0, 0, 0)" stroke-linejoin="round" d=" M 794.672, 507.721 793.755, 506.968 792.708, 506.409 791.573, 506.064 " />
            <path fill="none" stroke-width="1.5" stroke-linecap="round" stroke-opacity="1.0" stroke="rgb(0, 0, 0)" stroke-linejoin="round" d=" M 795.984, 514.316 796.328, 513.181 796.444, 512.000 796.328, 510.819 795.984, 509.684 " />
            <path fill="none" stroke-width="1.5" stroke-linecap="round" stroke-opacity="1.0" stroke="rgb(0, 0, 0)" stroke-linejoin="round" d=" M 795.425, 515.362 795.984, 514.316 " />
            <path fill="none" stroke-width="1.5" stroke-linecap="round" stroke-opacity="1.0" stroke="rgb(0, 0, 0)" stroke-linejoin="round" d=" M 794.672, 516.279 795.425, 515.362 " />
            <path fill="none" stroke-width="1.5" stroke-linecap="round" stroke-opacity="1.0" stroke="rgb(0, 0, 0)" stroke-linejoin="round" d=" M 791.573, 517.936 792.708, 517.591 793.755, 517.032 794.672, 516.279 " />
            <path fill="none" stroke-width="1.5" stroke-linecap="round" stroke-opacity="1.0" stroke="rgb(0, 0, 0)" stroke-linejoin="round" d=" M 788.076, 517.591 789.212, 517.936 790.392, 518.052 791.573, 517.936 " />
            <path fill="none" stroke-width="1.5" stroke-linecap="round" stroke-opacity="1.0" stroke="rgb(0, 0, 0)" stroke-linejoin="round" d=" M 784.340, 512.000 784.457, 513.181 784.801, 514.316 785.360, 515.362 786.113, 516.279 787.030, 517.032 788.076, 517.591 " />
            <path fill="none" stroke-width="1.5" stroke-linecap="round" stroke-opacity="1.0" stroke="rgb(0, 0, 0)" stroke-linejoin="round" d=" M 788.076, 506.409 787.030, 506.968 786.113, 507.721 785.360, 508.638 784.801, 509.684 784.457, 510.819 784.340, 512.000 " />
            <path fill="none" stroke-width="1.5" stroke-linecap="round" stroke-opacity="1.0" stroke="rgb(0, 0, 0)" stroke-linejoin="round" d=" M 791.573, 506.064 790.392, 505.948 789.212, 506.064 788.076, 506.409 " />
            <path fill="none" stroke-width="1.5" stroke-linecap="round" stroke-opacity="1.0" stroke="rgb(0, 0, 0)" stroke-linejoin="round" d=" M 282.024, 499.896 282.024, 505.948 282.024, 515.948 282.024, 518.052 282.024, 524.104 " />
            <path fill="none" stroke-width="1.5" stroke-linecap="round" stroke-opacity="1.0" stroke="rgb(0, 0, 0)" stroke-linejoin="round" d=" M 330.440, 572.520 330.440, 582.520 330.440, 592.520 330.440, 596.728 " />
            <path fill="none" stroke-width="1.5" stroke-linecap="round" stroke-opacity="1.0" stroke="rgb(0, 0, 0)" stroke-linejoin="round" d=" M 330.440, 427.272 330.440, 437.272 330.440, 447.272 330.440, 451.480 " />
            <path fill="none" stroke-width="1.5" stroke-linecap="round" stroke-opacity="1.0" stroke="rgb(0, 0, 0)" stroke-linejoin="round" d=" M 330.440, 596.728 340.440, 596.728 350.440, 596.728 354.648, 596.728 " />
            <path fill="none" stroke-width="1.5" stroke-linecap="round" stroke-opacity="1.0" stroke="rgb(0, 0, 0)" stroke-linejoin="round" d=" M 354.648, 427.272 344.648, 427.272 334.648, 427.272 330.440, 427.272 " />
            <path fill="none" stroke-width="1.5" stroke-linecap="round" stroke-opacity="1.0" stroke="rgb(0, 0, 0)" stroke-linejoin="round" d=" M 354.648, 451.480 354.648, 441.480 354.648, 431.480 354.648, 427.272 " />
            <path fill="none" stroke-width="1.5" stroke-linecap="round" stroke-opacity="1.0" stroke="rgb(0, 0, 0)" stroke-linejoin="round" d=" M 354.648, 572.520 364.648, 572.520 374.648, 572.520 384.648, 572.520 394.648, 572.520 403.064, 572.520 " />
            <path fill="none" stroke-width="1.5" stroke-linecap="round" stroke-opacity="1.0" stroke="rgb(0, 0, 0)" stroke-linejoin="round" d=" M 282.024, 524.104 292.024, 524.104 302.024, 524.104 312.024, 524.104 322.024, 524.104 332.024, 524.104 342.024, 524.104 352.024, 524.104 362.024, 524.104 372.024, 524.104 382.024, 524.104 392.024, 524.104 403.064, 524.104 " />
            <path fill="none" stroke-width="1.5" stroke-linecap="round" stroke-opacity="1.0" stroke="rgb(0, 0, 0)" stroke-linejoin="round" d=" M 403.064, 499.896 393.064, 499.896 383.064, 499.896 373.064, 499.896 363.064, 499.896 353.064, 499.896 343.064, 499.896 333.064, 499.896 323.064, 499.896 313.064, 499.896 303.064, 499.896 293.064, 499.896 282.024, 499.896 " />
            <path fill="none" stroke-width="1.5" stroke-linecap="round" stroke-opacity="1.0" stroke="rgb(0, 0, 0)" stroke-linejoin="round" d=" M 403.064, 451.480 393.064, 451.480 383.064, 451.480 373.064, 451.480 363.064, 451.480 354.648, 451.480 " />
            <path fill="none" stroke-width="1.5" stroke-linecap="round" stroke-opacity="1.0" stroke="rgb(0, 0, 0)" stroke-linejoin="round" d=" M 403.064, 499.896 403.064, 489.896 403.064, 479.896 403.064, 469.896 403.064, 459.896 403.064, 451.480 " />
            <path fill="none" stroke-width="1.5" stroke-linecap="round" stroke-opacity="1.0" stroke="rgb(0, 0, 0)" stroke-linejoin="round" d=" M 795.425, 508.638 794.672, 507.721 " />
            <path fill="none" stroke-width="1.5" stroke-linecap="round" stroke-opacity="1.0" stroke="rgb(0, 0, 0)" stroke-linejoin="round" d=" M 795.984, 509.684 795.425, 508.638 " />
        </g>
    </g>
    <g id="ViewLayer_TechnicalLines.002" inkscape:groupmode="lineset" inkscape:label="ViewLayer_TechnicalLines.002">
        <g inkscape:groupmode="layer" id="strokes" inkscape:label="strokes">
            <path fill="none" stroke-width="1.5" stroke-linecap="round" stroke-opacity="1.0" stroke="rgb(0, 0, 0)" stroke-linejoin="round" d=" M 330.440, 451.480 320.440, 451.480 310.440, 451.480 300.440, 451.480 290.440, 451.480 282.024, 451.480 282.024, 461.480 282.024, 471.480 282.024, 481.480 282.024, 491.480 282.024, 501.480 282.024, 505.948 " />
            <path fill="none" stroke-width="1.5" stroke-linecap="round" stroke-opacity="1.0" stroke="rgb(0, 0, 0)" stroke-linejoin="round" d=" M 403.064, 572.520 403.064, 562.520 403.064, 552.520 403.064, 542.520 403.064, 532.520 403.064, 524.104 " />
            <path fill="none" stroke-width="1.5" stroke-linecap="round" stroke-opacity="1.0" stroke="rgb(0, 0, 0)" stroke-linejoin="round" d=" M 282.024, 518.052 282.024, 528.052 282.024, 538.052 282.024, 548.052 282.024, 558.052 282.024, 568.052 282.024, 572.520 292.024, 572.520 302.024, 572.520 312.024, 572.520 322.024, 572.520 330.440, 572.520 " />
            <path fill="none" stroke-width="1.5" stroke-linecap="round" stroke-opacity="1.0" stroke="rgb(0, 0, 0)" stroke-linejoin="round" d=" M 403.064, 524.104 403.064, 514.104 403.064, 504.104 403.064, 499.896 " />
            <path fill="none" stroke-width="1.5" stroke-linecap="round" stroke-opacity="1.0" stroke="rgb(0, 0, 0)" stroke-linejoin="round" d=" M 354.648, 572.520 344.648, 572.520 334.648, 572.520 330.440, 572.520 " />
            <path fill="none" stroke-width="1.5" stroke-linecap="round" stroke-opacity="1.0" stroke="rgb(0, 0, 0)" stroke-linejoin="round" d=" M 354.648, 596.728 354.648, 586.728 354.648, 576.728 354.648, 572.520 " />
            <path fill="none" stroke-width="1.5" stroke-linecap="round" stroke-opacity="1.0" stroke="rgb(0, 0, 0)" stroke-linejoin="round" d=" M 330.440, 451.480 340.440, 451.480 350.440, 451.480 354.648, 451.480 " />
            <path fill="none" stroke-width="1.5" stroke-linecap="round" stroke-opacity="1.0" stroke="rgb(0, 0, 0)" stroke-linejoin="round" d=" M 282.024, 505.948 272.024, 505.948 262.024, 505.948 252.024, 505.948 242.024, 505.948 232.024, 505.948 227.556, 505.948 227.556, 506.064 227.556, 506.409 227.556, 506.968 227.556, 507.721 227.556, 508.638 227.556, 509.684 227.556, 510.819 227.556, 512.000 227.556, 513.181 227.556, 514.316 227.556, 515.362 227.556, 516.279 227.556, 517.032 227.556, 517.591 227.556, 517.936 227.556, 518.052 237.556, 518.052 247.556, 518.052 257.556, 518.052 267.556, 518.052 277.556, 518.052 282.024, 518.052 " />
            <path fill="none" stroke-width="1.5" stroke-linecap="round" stroke-opacity="1.0" stroke="rgb(0, 0, 0)" stroke-linejoin="round" d=" M 766.184, 451.480 756.184, 451.480 746.184, 451.480 736.184, 451.480 726.184, 451.480 716.184, 451.480 706.184, 451.480 696.184, 451.480 686.184, 451.480 676.184, 451.480 666.184, 451.480 656.184, 451.480 645.144, 451.480 " />
            <path fill="none" stroke-width="1.5" stroke-linecap="round" stroke-opacity="1.0" stroke="rgb(0, 0, 0)" stroke-linejoin="round" d=" M 645.144, 572.520 655.144, 572.520 665.144, 572.520 675.144, 572.520 685.144, 572.520 695.144, 572.520 705.144, 572.520 715.144, 572.520 725.144, 572.520 735.144, 572.520 745.144, 572.520 755.144, 572.520 766.184, 572.520 " />
            <path fill="none" stroke-width="1.5" stroke-linecap="round" stroke-opacity="1.0" stroke="rgb(0, 0, 0)" stroke-linejoin="round" d=" M 645.144, 505.948 645.144, 515.948 645.144, 518.052 655.144, 518.052 665.144, 518.052 675.144, 518.052 685.144, 518.052 695.144, 518.052 705.144, 518.052 715.144, 518.052 725.144, 518.052 735.144, 518.052 745.144, 518.052 755.144, 518.052 766.184, 518.052 766.184, 508.052 766.184, 505.948 756.184, 505.948 746.184, 505.948 736.184, 505.948 726.184, 505.948 716.184, 505.948 706.184, 505.948 696.184, 505.948 686.184, 505.948 676.184, 505.948 666.184, 505.948 656.184, 505.948 645.144, 505.948 " />
            <path fill="none" stroke-width="1.5" stroke-linecap="round" stroke-opacity="1.0" stroke="rgb(0, 0, 0)" stroke-linejoin="round" d=" M 794.672, 507.721 793.755, 506.968 792.708, 506.409 791.573, 506.064 " />
            <path fill="none" stroke-width="1.5" stroke-linecap="round" stroke-opacity="1.0" stroke="rgb(0, 0, 0)" stroke-linejoin="round" d=" M 795.984, 514.316 796.328, 513.181 796.444, 512.000 796.328, 510.819 795.984, 509.684 " />
            <path fill="none" stroke-width="1.5" stroke-linecap="round" stroke-opacity="1.0" stroke="rgb(0, 0, 0)" stroke-linejoin="round" d=" M 795.425, 515.362 795.984, 514.316 " />
            <path fill="none" stroke-width="1.5" stroke-linecap="round" stroke-opacity="1.0" stroke="rgb(0, 0, 0)" stroke-linejoin="round" d=" M 794.672, 516.279 795.425, 515.362 " />
            <path fill="none" stroke-width="1.5" stroke-linecap="round" stroke-opacity="1.0" stroke="rgb(0, 0, 0)" stroke-linejoin="round" d=" M 791.573, 517.936 792.708, 517.591 793.755, 517.032 794.672, 516.279 " />
            <path fill="none" stroke-width="1.5" stroke-linecap="round" stroke-opacity="1.0" stroke="rgb(0, 0, 0)" stroke-linejoin="round" d=" M 788.076, 517.591 789.212, 517.936 790.392, 518.052 791.573, 517.936 " />
            <path fill="none" stroke-width="1.5" stroke-linecap="round" stroke-opacity="1.0" stroke="rgb(0, 0, 0)" stroke-linejoin="round" d=" M 784.340, 512.000 784.457, 513.181 784.801, 514.316 785.360, 515.362 786.113, 516.279 787.030, 517.032 788.076, 517.591 " />
            <path fill="none" stroke-width="1.5" stroke-linecap="round" stroke-opacity="1.0" stroke="rgb(0, 0, 0)" stroke-linejoin="round" d=" M 788.076, 506.409 787.030, 506.968 786.113, 507.721 785.360, 508.638 784.801, 509.684 784.457, 510.819 784.340, 512.000 " />
            <path fill="none" stroke-width="1.5" stroke-linecap="round" stroke-opacity="1.0" stroke="rgb(0, 0, 0)" stroke-linejoin="round" d=" M 791.573, 506.064 790.392, 505.948 789.212, 506.064 788.076, 506.409 " />
            <path fill="none" stroke-width="1.5" stroke-linecap="round" stroke-opacity="1.0" stroke="rgb(0, 0, 0)" stroke-linejoin="round" d=" M 282.024, 499.896 282.024, 505.948 282.024, 515.948 282.024, 518.052 282.024, 524.104 " />
            <path fill="none" stroke-width="1.5" stroke-linecap="round" stroke-opacity="1.0" stroke="rgb(0, 0, 0)" stroke-linejoin="round" d=" M 330.440, 572.520 330.440, 582.520 330.440, 592.520 330.440, 596.728 " />
            <path fill="none" stroke-width="1.5" stroke-linecap="round" stroke-opacity="1.0" stroke="rgb(0, 0, 0)" stroke-linejoin="round" d=" M 330.440, 427.272 330.440, 437.272 330.440, 447.272 330.440, 451.480 " />
            <path fill="none" stroke-width="1.5" stroke-linecap="round" stroke-opacity="1.0" stroke="rgb(0, 0, 0)" stroke-linejoin="round" d=" M 330.440, 596.728 340.440, 596.728 350.440, 596.728 354.648, 596.728 " />
            <path fill="none" stroke-width="1.5" stroke-linecap="round" stroke-opacity="1.0" stroke="rgb(0, 0, 0)" stroke-linejoin="round" d=" M 354.648, 427.272 344.648, 427.272 334.648, 427.272 330.440, 427.272 " />
            <path fill="none" stroke-width="1.5" stroke-linecap="round" stroke-opacity="1.0" stroke="rgb(0, 0, 0)" stroke-linejoin="round" d=" M 354.648, 451.480 354.648, 441.480 354.648, 431.480 354.648, 427.272 " />
            <path fill="none" stroke-width="1.5" stroke-linecap="round" stroke-opacity="1.0" stroke="rgb(0, 0, 0)" stroke-linejoin="round" d=" M 354.648, 572.520 364.648, 572.520 374.648, 572.520 384.648, 572.520 394.648, 572.520 403.064, 572.520 " />
            <path fill="none" stroke-width="1.5" stroke-linecap="round" stroke-opacity="1.0" stroke="rgb(0, 0, 0)" stroke-linejoin="round" d=" M 282.024, 524.104 292.024, 524.104 302.024, 524.104 312.024, 524.104 322.024, 524.104 332.024, 524.104 342.024, 524.104 352.024, 524.104 362.024, 524.104 372.024, 524.104 382.024, 524.104 392.024, 524.104 403.064, 524.104 " />
            <path fill="none" stroke-width="1.5" stroke-linecap="round" stroke-opacity="1.0" stroke="rgb(0, 0, 0)" stroke-linejoin="round" d=" M 403.064, 499.896 393.064, 499.896 383.064, 499.896 373.064, 499.896 363.064, 499.896 353.064, 499.896 343.064, 499.896 333.064, 499.896 323.064, 499.896 313.064, 499.896 303.064, 499.896 293.064, 499.896 282.024, 499.896 " />
            <path fill="none" stroke-width="1.5" stroke-linecap="round" stroke-opacity="1.0" stroke="rgb(0, 0, 0)" stroke-linejoin="round" d=" M 403.064, 451.480 393.064, 451.480 383.064, 451.480 373.064, 451.480 363.064, 451.480 354.648, 451.480 " />
            <path fill="none" stroke-width="1.5" stroke-linecap="round" stroke-opacity="1.0" stroke="rgb(0, 0, 0)" stroke-linejoin="round" d=" M 403.064, 499.896 403.064, 489.896 403.064, 479.896 403.064, 469.896 403.064, 459.896 403.064, 451.480 " />
            <path fill="none" stroke-width="1.5" stroke-linecap="round" stroke-opacity="1.0" stroke="rgb(0, 0, 0)" stroke-linejoin="round" d=" M 795.425, 508.638 794.672, 507.721 " />
            <path fill="none" stroke-width="1.5" stroke-linecap="round" stroke-opacity="1.0" stroke="rgb(0, 0, 0)" stroke-linejoin="round" d=" M 795.984, 509.684 795.425, 508.638 " />
        </g>
    </g>
    <g id="ViewLayer_TechnicalLines.003" inkscape:groupmode="lineset" inkscape:label="ViewLayer_TechnicalLines.003">
        <g inkscape:groupmode="layer" id="strokes" inkscape:label="strokes">
            <path fill="none" stroke-width="1.5" stroke-linecap="round" stroke-opacity="1.0" stroke="rgb(0, 0, 0)" stroke-linejoin="round" d=" M 330.440, 451.480 320.440, 451.480 310.440, 451.480 300.440, 451.480 290.440, 451.480 282.024, 451.480 282.024, 461.480 282.024, 471.480 282.024, 481.480 282.024, 491.480 282.024, 501.480 282.024, 505.948 " />
            <path fill="none" stroke-width="1.5" stroke-linecap="round" stroke-opacity="1.0" stroke="rgb(0, 0, 0)" stroke-linejoin="round" d=" M 403.064, 572.520 403.064, 562.520 403.064, 552.520 403.064, 542.520 403.064, 532.520 403.064, 524.104 " />
            <path fill="none" stroke-width="1.5" stroke-linecap="round" stroke-opacity="1.0" stroke="rgb(0, 0, 0)" stroke-linejoin="round" d=" M 282.024, 518.052 282.024, 528.052 282.024, 538.052 282.024, 548.052 282.024, 558.052 282.024, 568.052 282.024, 572.520 292.024, 572.520 302.024, 572.520 312.024, 572.520 322.024, 572.520 330.440, 572.520 " />
            <path fill="none" stroke-width="1.5" stroke-linecap="round" stroke-opacity="1.0" stroke="rgb(0, 0, 0)" stroke-linejoin="round" d=" M 403.064, 524.104 403.064, 514.104 403.064, 504.104 403.064, 499.896 " />
            <path fill="none" stroke-width="1.5" stroke-linecap="round" stroke-opacity="1.0" stroke="rgb(0, 0, 0)" stroke-linejoin="round" d=" M 354.648, 572.520 344.648, 572.520 334.648, 572.520 330.440, 572.520 " />
            <path fill="none" stroke-width="1.5" stroke-linecap="round" stroke-opacity="1.0" stroke="rgb(0, 0, 0)" stroke-linejoin="round" d=" M 354.648, 596.728 354.648, 586.728 354.648, 576.728 354.648, 572.520 " />
            <path fill="none" stroke-width="1.5" stroke-linecap="round" stroke-opacity="1.0" stroke="rgb(0, 0, 0)" stroke-linejoin="round" d=" M 330.440, 451.480 340.440, 451.480 350.440, 451.480 354.648, 451.480 " />
            <path fill="none" stroke-width="1.5" stroke-linecap="round" stroke-opacity="1.0" stroke="rgb(0, 0, 0)" stroke-linejoin="round" d=" M 282.024, 505.948 272.024, 505.948 262.024, 505.948 252.024, 505.948 242.024, 505.948 232.024, 505.948 227.556, 505.948 227.556, 506.064 227.556, 506.409 227.556, 506.968 227.556, 507.721 227.556, 508.638 227.556, 509.684 227.556, 510.819 227.556, 512.000 227.556, 513.181 227.556, 514.316 227.556, 515.362 227.556, 516.279 227.556, 517.032 227.556, 517.591 227.556, 517.936 227.556, 518.052 237.556, 518.052 247.556, 518.052 257.556, 518.052 267.556, 518.052 277.556, 518.052 282.024, 518.052 " />
            <path fill="none" stroke-width="1.5" stroke-linecap="round" stroke-opacity="1.0" stroke="rgb(0, 0, 0)" stroke-linejoin="round" d=" M 766.184, 451.480 756.184, 451.480 746.184, 451.480 736.184, 451.480 726.184, 451.480 716.184, 451.480 706.184, 451.480 696.184, 451.480 686.184, 451.480 676.184, 451.480 666.184, 451.480 656.184, 451.480 645.144, 451.480 " />
            <path fill="none" stroke-width="1.5" stroke-linecap="round" stroke-opacity="1.0" stroke="rgb(0, 0, 0)" stroke-linejoin="round" d=" M 645.144, 572.520 655.144, 572.520 665.144, 572.520 675.144, 572.520 685.144, 572.520 695.144, 572.520 705.144, 572.520 715.144, 572.520 725.144, 572.520 735.144, 572.520 745.144, 572.520 755.144, 572.520 766.184, 572.520 " />
            <path fill="none" stroke-width="1.5" stroke-linecap="round" stroke-opacity="1.0" stroke="rgb(0, 0, 0)" stroke-linejoin="round" d=" M 645.144, 505.948 645.144, 515.948 645.144, 518.052 655.144, 518.052 665.144, 518.052 675.144, 518.052 685.144, 518.052 695.144, 518.052 705.144, 518.052 715.144, 518.052 725.144, 518.052 735.144, 518.052 745.144, 518.052 755.144, 518.052 766.184, 518.052 766.184, 508.052 766.184, 505.948 756.184, 505.948 746.184, 505.948 736.184, 505.948 726.184, 505.948 716.184, 505.948 706.184, 505.948 696.184, 505.948 686.184, 505.948 676.184, 505.948 666.184, 505.948 656.184, 505.948 645.144, 505.948 " />
            <path fill="none" stroke-width="1.5" stroke-linecap="round" stroke-opacity="1.0" stroke="rgb(0, 0, 0)" stroke-linejoin="round" d=" M 794.672, 507.721 793.755, 506.968 792.708, 506.409 791.573, 506.064 " />
            <path fill="none" stroke-width="1.5" stroke-linecap="round" stroke-opacity="1.0" stroke="rgb(0, 0, 0)" stroke-linejoin="round" d=" M 795.984, 514.316 796.328, 513.181 796.444, 512.000 796.328, 510.819 795.984, 509.684 " />
            <path fill="none" stroke-width="1.5" stroke-linecap="round" stroke-opacity="1.0" stroke="rgb(0, 0, 0)" stroke-linejoin="round" d=" M 795.425, 515.362 795.984, 514.316 " />
            <path fill="none" stroke-width="1.5" stroke-linecap="round" stroke-opacity="1.0" stroke="rgb(0, 0, 0)" stroke-linejoin="round" d=" M 794.672, 516.279 795.425, 515.362 " />
            <path fill="none" stroke-width="1.5" stroke-linecap="round" stroke-opacity="1.0" stroke="rgb(0, 0, 0)" stroke-linejoin="round" d=" M 791.573, 517.936 792.708, 517.591 793.755, 517.032 794.672, 516.279 " />
            <path fill="none" stroke-width="1.5" stroke-linecap="round" stroke-opacity="1.0" stroke="rgb(0, 0, 0)" stroke-linejoin="round" d=" M 788.076, 517.591 789.212, 517.936 790.392, 518.052 791.573, 517.936 " />
            <path fill="none" stroke-width="1.5" stroke-linecap="round" stroke-opacity="1.0" stroke="rgb(0, 0, 0)" stroke-linejoin="round" d=" M 784.340, 512.000 784.457, 513.181 784.801, 514.316 785.360, 515.362 786.113, 516.279 787.030, 517.032 788.076, 517.591 " />
            <path fill="none" stroke-width="1.5" stroke-linecap="round" stroke-opacity="1.0" stroke="rgb(0, 0, 0)" stroke-linejoin="round" d=" M 788.076, 506.409 787.030, 506.968 786.113, 507.721 785.360, 508.638 784.801, 509.684 784.457, 510.819 784.340, 512.000 " />
            <path fill="none" stroke-width="1.5" stroke-linecap="round" stroke-opacity="1.0" stroke="rgb(0, 0, 0)" stroke-linejoin="round" d=" M 791.573, 506.064 790.392, 505.948 789.212, 506.064 788.076, 506.409 " />
            <path fill="none" stroke-width="1.5" stroke-linecap="round" stroke-opacity="1.0" stroke="rgb(0, 0, 0)" stroke-linejoin="round" d=" M 282.024, 499.896 282.024, 505.948 282.024, 515.948 282.024, 518.052 282.024, 524.104 " />
            <path fill="none" stroke-width="1.5" stroke-linecap="round" stroke-opacity="1.0" stroke="rgb(0, 0, 0)" stroke-linejoin="round" d=" M 330.440, 572.520 330.440, 582.520 330.440, 592.520 330.440, 596.728 " />
            <path fill="none" stroke-width="1.5" stroke-linecap="round" stroke-opacity="1.0" stroke="rgb(0, 0, 0)" stroke-linejoin="round" d=" M 330.440, 427.272 330.440, 437.272 330.440, 447.272 330.440, 451.480 " />
            <path fill="none" stroke-width="1.5" stroke-linecap="round" stroke-opacity="1.0" stroke="rgb(0, 0, 0)" stroke-linejoin="round" d=" M 330.440, 596.728 340.440, 596.728 350.440, 596.728 354.648, 596.728 " />
            <path fill="none" stroke-width="1.5" stroke-linecap="round" stroke-opacity="1.0" stroke="rgb(0, 0, 0)" stroke-linejoin="round" d=" M 354.648, 427.272 344.648, 427.272 334.648, 427.272 330.440, 427.272 " />
            <path fill="none" stroke-width="1.5" stroke-linecap="round" stroke-opacity="1.0" stroke="rgb(0, 0, 0)" stroke-linejoin="round" d=" M 354.648, 451.480 354.648, 441.480 354.648, 431.480 354.648, 427.272 " />
            <path fill="none" stroke-width="1.5" stroke-linecap="round" stroke-opacity="1.0" stroke="rgb(0, 0, 0)" stroke-linejoin="round" d=" M 354.648, 572.520 364.648, 572.520 374.648, 572.520 384.648, 572.520 394.648, 572.520 403.064, 572.520 " />
            <path fill="none" stroke-width="1.5" stroke-linecap="round" stroke-opacity="1.0" stroke="rgb(0, 0, 0)" stroke-linejoin="round" d=" M 282.024, 524.104 292.024, 524.104 302.024, 524.104 312.024, 524.104 322.024, 524.104 332.024, 524.104 342.024, 524.104 352.024, 524.104 362.024, 524.104 372.024, 524.104 382.024, 524.104 392.024, 524.104 403.064, 524.104 " />
            <path fill="none" stroke-width="1.5" stroke-linecap="round" stroke-opacity="1.0" stroke="rgb(0, 0, 0)" stroke-linejoin="round" d=" M 403.064, 499.896 393.064, 499.896 383.064, 499.896 373.064, 499.896 363.064, 499.896 353.064, 499.896 343.064, 499.896 333.064, 499.896 323.064, 499.896 313.064, 499.896 303.064, 499.896 293.064, 499.896 282.024, 499.896 " />
            <path fill="none" stroke-width="1.5" stroke-linecap="round" stroke-opacity="1.0" stroke="rgb(0, 0, 0)" stroke-linejoin="round" d=" M 403.064, 451.480 393.064, 451.480 383.064, 451.480 373.064, 451.480 363.064, 451.480 354.648, 451.480 " />
            <path fill="none" stroke-width="1.5" stroke-linecap="round" stroke-opacity="1.0" stroke="rgb(0, 0, 0)" stroke-linejoin="round" d=" M 403.064, 499.896 403.064, 489.896 403.064, 479.896 403.064, 469.896 403.064, 459.896 403.064, 451.480 " />
            <path fill="none" stroke-width="1.5" stroke-linecap="round" stroke-opacity="1.0" stroke="rgb(0, 0, 0)" stroke-linejoin="round" d=" M 795.425, 508.638 794.672, 507.721 " />
            <path fill="none" stroke-width="1.5" stroke-linecap="round" stroke-opacity="1.0" stroke="rgb(0, 0, 0)" stroke-linejoin="round" d=" M 795.984, 509.684 795.425, 508.638 " />
        </g>
    </g>
    <g id="ViewLayer_TechnicalLines.004" xmlns:inkscape="http://www.inkscape.org/namespaces/inkscape" inkscape:groupmode="lineset" inkscape:label="ViewLayer_TechnicalLines.004">
        <g xmlns:inkscape="http://www.inkscape.org/namespaces/inkscape" inkscape:groupmode="layer" id="strokes" inkscape:label="strokes">
            <path fill="none" stroke-width="1.5" stroke-linecap="round" stroke-opacity="1.0" stroke="rgb(0, 0, 0)" stroke-linejoin="round" d=" M 330.440, 451.480 320.440, 451.480 310.440, 451.480 300.440, 451.480 290.440, 451.480 282.024, 451.480 282.024, 461.480 282.024, 471.480 282.024, 481.480 282.024, 491.480 282.024, 501.480 282.024, 505.948 " />
            <path fill="none" stroke-width="1.5" stroke-linecap="round" stroke-opacity="1.0" stroke="rgb(0, 0, 0)" stroke-linejoin="round" d=" M 403.064, 572.520 403.064, 562.520 403.064, 552.520 403.064, 542.520 403.064, 532.520 403.064, 524.104 " />
            <path fill="none" stroke-width="1.5" stroke-linecap="round" stroke-opacity="1.0" stroke="rgb(0, 0, 0)" stroke-linejoin="round" d=" M 282.024, 518.052 282.024, 528.052 282.024, 538.052 282.024, 548.052 282.024, 558.052 282.024, 568.052 282.024, 572.520 292.024, 572.520 302.024, 572.520 312.024, 572.520 322.024, 572.520 330.440, 572.520 " />
            <path fill="none" stroke-width="1.5" stroke-linecap="round" stroke-opacity="1.0" stroke="rgb(0, 0, 0)" stroke-linejoin="round" d=" M 403.064, 524.104 403.064, 514.104 403.064, 504.104 403.064, 499.896 " />
            <path fill="none" stroke-width="1.5" stroke-linecap="round" stroke-opacity="1.0" stroke="rgb(0, 0, 0)" stroke-linejoin="round" d=" M 354.648, 572.520 344.648, 572.520 334.648, 572.520 330.440, 572.520 " />
            <path fill="none" stroke-width="1.5" stroke-linecap="round" stroke-opacity="1.0" stroke="rgb(0, 0, 0)" stroke-linejoin="round" d=" M 354.648, 596.728 354.648, 586.728 354.648, 576.728 354.648, 572.520 " />
            <path fill="none" stroke-width="1.5" stroke-linecap="round" stroke-opacity="1.0" stroke="rgb(0, 0, 0)" stroke-linejoin="round" d=" M 330.440, 451.480 340.440, 451.480 350.440, 451.480 354.648, 451.480 " />
            <path fill="none" stroke-width="1.5" stroke-linecap="round" stroke-opacity="1.0" stroke="rgb(0, 0, 0)" stroke-linejoin="round" d=" M 282.024, 505.948 272.024, 505.948 262.024, 505.948 252.024, 505.948 242.024, 505.948 232.024, 505.948 227.556, 505.948 227.556, 506.064 227.556, 506.409 227.556, 506.968 227.556, 507.721 227.556, 508.638 227.556, 509.684 227.556, 510.819 227.556, 512.000 227.556, 513.181 227.556, 514.316 227.556, 515.362 227.556, 516.279 227.556, 517.032 227.556, 517.591 227.556, 517.936 227.556, 518.052 237.556, 518.052 247.556, 518.052 257.556, 518.052 267.556, 518.052 277.556, 518.052 282.024, 518.052 " />
            <path fill="none" stroke-width="1.5" stroke-linecap="round" stroke-opacity="1.0" stroke="rgb(0, 0, 0)" stroke-linejoin="round" d=" M 766.184, 451.480 756.184, 451.480 746.184, 451.480 736.184, 451.480 726.184, 451.480 716.184, 451.480 706.184, 451.480 696.184, 451.480 686.184, 451.480 676.184, 451.480 666.184, 451.480 656.184, 451.480 645.144, 451.480 " />
            <path fill="none" stroke-width="1.5" stroke-linecap="round" stroke-opacity="1.0" stroke="rgb(0, 0, 0)" stroke-linejoin="round" d=" M 645.144, 572.520 655.144, 572.520 665.144, 572.520 675.144, 572.520 685.144, 572.520 695.144, 572.520 705.144, 572.520 715.144, 572.520 725.144, 572.520 735.144, 572.520 745.144, 572.520 755.144, 572.520 766.184, 572.520 " />
            <path fill="none" stroke-width="1.5" stroke-linecap="round" stroke-opacity="1.0" stroke="rgb(0, 0, 0)" stroke-linejoin="round" d=" M 645.144, 505.948 645.144, 515.948 645.144, 518.052 655.144, 518.052 665.144, 518.052 675.144, 518.052 685.144, 518.052 695.144, 518.052 705.144, 518.052 715.144, 518.052 725.144, 518.052 735.144, 518.052 745.144, 518.052 755.144, 518.052 766.184, 518.052 766.184, 508.052 766.184, 505.948 756.184, 505.948 746.184, 505.948 736.184, 505.948 726.184, 505.948 716.184, 505.948 706.184, 505.948 696.184, 505.948 686.184, 505.948 676.184, 505.948 666.184, 505.948 656.184, 505.948 645.144, 505.948 " />
            <path fill="none" stroke-width="1.5" stroke-linecap="round" stroke-opacity="1.0" stroke="rgb(0, 0, 0)" stroke-linejoin="round" d=" M 794.672, 507.721 793.755, 506.968 792.708, 506.409 791.573, 506.064 " />
            <path fill="none" stroke-width="1.5" stroke-linecap="round" stroke-opacity="1.0" stroke="rgb(0, 0, 0)" stroke-linejoin="round" d=" M 795.984, 514.316 796.328, 513.181 796.444, 512.000 796.328, 510.819 795.984, 509.684 " />
            <path fill="none" stroke-width="1.5" stroke-linecap="round" stroke-opacity="1.0" stroke="rgb(0, 0, 0)" stroke-linejoin="round" d=" M 795.425, 515.362 795.984, 514.316 " />
            <path fill="none" stroke-width="1.5" stroke-linecap="round" stroke-opacity="1.0" stroke="rgb(0, 0, 0)" stroke-linejoin="round" d=" M 794.672, 516.279 795.425, 515.362 " />
            <path fill="none" stroke-width="1.5" stroke-linecap="round" stroke-opacity="1.0" stroke="rgb(0, 0, 0)" stroke-linejoin="round" d=" M 791.573, 517.936 792.708, 517.591 793.755, 517.032 794.672, 516.279 " />
            <path fill="none" stroke-width="1.5" stroke-linecap="round" stroke-opacity="1.0" stroke="rgb(0, 0, 0)" stroke-linejoin="round" d=" M 788.076, 517.591 789.212, 517.936 790.392, 518.052 791.573, 517.936 " />
            <path fill="none" stroke-width="1.5" stroke-linecap="round" stroke-opacity="1.0" stroke="rgb(0, 0, 0)" stroke-linejoin="round" d=" M 784.340, 512.000 784.457, 513.181 784.801, 514.316 785.360, 515.362 786.113, 516.279 787.030, 517.032 788.076, 517.591 " />
            <path fill="none" stroke-width="1.5" stroke-linecap="round" stroke-opacity="1.0" stroke="rgb(0, 0, 0)" stroke-linejoin="round" d=" M 788.076, 506.409 787.030, 506.968 786.113, 507.721 785.360, 508.638 784.801, 509.684 784.457, 510.819 784.340, 512.000 " />
            <path fill="none" stroke-width="1.5" stroke-linecap="round" stroke-opacity="1.0" stroke="rgb(0, 0, 0)" stroke-linejoin="round" d=" M 791.573, 506.064 790.392, 505.948 789.212, 506.064 788.076, 506.409 " />
            <path fill="none" stroke-width="1.5" stroke-linecap="round" stroke-opacity="1.0" stroke="rgb(0, 0, 0)" stroke-linejoin="round" d=" M 282.024, 499.896 282.024, 505.948 282.024, 515.948 282.024, 518.052 282.024, 524.104 " />
            <path fill="none" stroke-width="1.5" stroke-linecap="round" stroke-opacity="1.0" stroke="rgb(0, 0, 0)" stroke-linejoin="round" d=" M 330.440, 572.520 330.440, 582.520 330.440, 592.520 330.440, 596.728 " />
            <path fill="none" stroke-width="1.5" stroke-linecap="round" stroke-opacity="1.0" stroke="rgb(0, 0, 0)" stroke-linejoin="round" d=" M 330.440, 427.272 330.440, 437.272 330.440, 447.272 330.440, 451.480 " />
            <path fill="none" stroke-width="1.5" stroke-linecap="round" stroke-opacity="1.0" stroke="rgb(0, 0, 0)" stroke-linejoin="round" d=" M 330.440, 596.728 340.440, 596.728 350.440, 596.728 354.648, 596.728 " />
            <path fill="none" stroke-width="1.5" stroke-linecap="round" stroke-opacity="1.0" stroke="rgb(0, 0, 0)" stroke-linejoin="round" d=" M 354.648, 427.272 344.648, 427.272 334.648, 427.272 330.440, 427.272 " />
            <path fill="none" stroke-width="1.5" stroke-linecap="round" stroke-opacity="1.0" stroke="rgb(0, 0, 0)" stroke-linejoin="round" d=" M 354.648, 451.480 354.648, 441.480 354.648, 431.480 354.648, 427.272 " />
            <path fill="none" stroke-width="1.5" stroke-linecap="round" stroke-opacity="1.0" stroke="rgb(0, 0, 0)" stroke-linejoin="round" d=" M 354.648, 572.520 364.648, 572.520 374.648, 572.520 384.648, 572.520 394.648, 572.520 403.064, 572.520 " />
            <path fill="none" stroke-width="1.5" stroke-linecap="round" stroke-opacity="1.0" stroke="rgb(0, 0, 0)" stroke-linejoin="round" d=" M 282.024, 524.104 292.024, 524.104 302.024, 524.104 312.024, 524.104 322.024, 524.104 332.024, 524.104 342.024, 524.104 352.024, 524.104 362.024, 524.104 372.024, 524.104 382.024, 524.104 392.024, 524.104 403.064, 524.104 " />
            <path fill="none" stroke-width="1.5" stroke-linecap="round" stroke-opacity="1.0" stroke="rgb(0, 0, 0)" stroke-linejoin="round" d=" M 403.064, 499.896 393.064, 499.896 383.064, 499.896 373.064, 499.896 363.064, 499.896 353.064, 499.896 343.064, 499.896 333.064, 499.896 323.064, 499.896 313.064, 499.896 303.064, 499.896 293.064, 499.896 282.024, 499.896 " />
            <path fill="none" stroke-width="1.5" stroke-linecap="round" stroke-opacity="1.0" stroke="rgb(0, 0, 0)" stroke-linejoin="round" d=" M 403.064, 451.480 393.064, 451.480 383.064, 451.480 373.064, 451.480 363.064, 451.480 354.648, 451.480 " />
            <path fill="none" stroke-width="1.5" stroke-linecap="round" stroke-opacity="1.0" stroke="rgb(0, 0, 0)" stroke-linejoin="round" d=" M 403.064, 499.896 403.064, 489.896 403.064, 479.896 403.064, 469.896 403.064, 459.896 403.064, 451.480 " />
            <path fill="none" stroke-width="1.5" stroke-linecap="round" stroke-opacity="1.0" stroke="rgb(0, 0, 0)" stroke-linejoin="round" d=" M 795.425, 508.638 794.672, 507.721 " />
            <path fill="none" stroke-width="1.5" stroke-linecap="round" stroke-opacity="1.0" stroke="rgb(0, 0, 0)" stroke-linejoin="round" d=" M 795.984, 509.684 795.425, 508.638 " />
        </g>
    </g>
</svg>
