<?xml version='1.0' encoding='ascii'?>
<svg xmlns="http://www.w3.org/2000/svg" xmlns:inkscape="http://www.inkscape.org/namespaces/inkscape" version="1.1" width="1024" height="1024">
    <g id="ViewLayer_LineSet" inkscape:groupmode="lineset" inkscape:label="ViewLayer_LineSet">
        <g inkscape:groupmode="layer" id="strokes" inkscape:label="strokes">
            <path fill="none" stroke-width="3.0" stroke-linecap="butt" stroke-opacity="1.0" stroke="rgb(0, 0, 0)" stroke-linejoin="round" d=" M 518.539, 423.724 518.539, 413.724 518.539, 403.724 518.539, 393.724 518.539, 383.724 518.539, 373.724 518.539, 363.724 518.539, 353.724 518.539, 343.724 518.539, 333.724 518.539, 323.724 518.539, 313.724 518.539, 303.724 518.539, 293.724 518.539, 283.724 518.539, 273.724 518.539, 263.724 518.539, 253.724 518.539, 243.724 518.539, 233.724 518.539, 227.556 518.539, 227.556 508.539, 227.556 505.461, 227.556 505.461, 237.556 505.461, 247.556 505.461, 257.556 505.461, 267.556 505.461, 277.556 505.461, 287.556 505.461, 297.556 505.461, 307.556 505.461, 317.556 505.461, 327.556 505.461, 337.556 505.461, 347.556 505.461, 357.556 505.461, 367.556 505.461, 377.556 505.461, 387.556 505.461, 397.556 505.461, 407.556 505.461, 417.556 505.461, 423.724 515.461, 423.724 518.539, 423.724 518.539, 423.724 " />
            <path fill="none" stroke-width="3.0" stroke-linecap="butt" stroke-opacity="1.0" stroke="rgb(0, 0, 0)" stroke-linejoin="round" d=" M 518.539, 227.556 518.539, 237.556 518.539, 247.556 518.539, 257.556 518.539, 267.556 518.539, 277.556 518.539, 287.556 518.539, 297.556 518.539, 307.556 518.539, 317.556 518.539, 327.556 518.539, 337.556 518.539, 347.556 518.539, 357.556 518.539, 367.556 518.539, 377.556 518.539, 387.556 518.539, 397.556 518.539, 407.556 518.539, 417.556 518.539, 423.724 " />
            <path fill="none" stroke-width="3.0" stroke-linecap="butt" stroke-opacity="1.0" stroke="rgb(0, 0, 0)" stroke-linejoin="round" d=" M 525.078, 528.347 535.078, 528.347 545.078, 528.347 555.078, 528.347 565.078, 528.347 575.078, 528.347 577.390, 528.347 577.390, 528.347 577.390, 518.347 577.390, 515.270 567.390, 515.270 557.390, 515.270 547.390, 515.270 537.390, 515.270 527.390, 515.270 517.390, 515.270 507.390, 515.270 497.390, 515.270 487.390, 515.270 477.390, 515.270 467.390, 515.270 457.390, 515.270 446.611, 515.270 446.611, 525.270 446.611, 528.347 446.611, 528.347 456.611, 528.347 466.611, 528.347 476.611, 528.347 486.611, 528.347 496.611, 528.347 498.922, 528.347 " />
            <path fill="none" stroke-width="3.0" stroke-linecap="butt" stroke-opacity="1.0" stroke="rgb(0, 0, 0)" stroke-linejoin="round" d=" M 446.611, 528.347 456.611, 528.347 466.611, 528.347 476.611, 528.347 486.611, 528.347 496.611, 528.347 498.922, 528.347 508.922, 528.347 518.922, 528.347 525.078, 528.347 535.078, 528.347 545.078, 528.347 555.078, 528.347 565.078, 528.347 575.078, 528.347 577.390, 528.347 " />
            <path fill="none" stroke-width="3.0" stroke-linecap="butt" stroke-opacity="1.0" stroke="rgb(0, 0, 0)" stroke-linejoin="round" d=" M 525.078, 783.367 525.078, 783.367 525.078, 773.367 525.078, 763.367 525.078, 753.367 525.078, 743.367 525.078, 733.367 525.078, 723.367 525.078, 713.367 525.078, 703.367 525.078, 693.367 525.078, 683.367 525.078, 673.367 525.078, 663.367 525.078, 653.367 525.078, 643.367 525.078, 633.367 525.078, 623.367 525.078, 613.367 525.078, 603.367 525.078, 593.367 525.078, 583.367 525.078, 573.367 525.078, 563.367 525.078, 553.367 525.078, 543.367 525.078, 533.367 525.078, 528.347 525.078, 528.347 " />
            <path fill="none" stroke-width="3.0" stroke-linecap="butt" stroke-opacity="1.0" stroke="rgb(0, 0, 0)" stroke-linejoin="round" d=" M 498.922, 717.977 498.922, 727.977 498.922, 737.977 498.922, 747.977 498.922, 757.977 498.922, 767.977 498.922, 777.977 498.922, 783.367 498.922, 783.367 " />
            <path fill="none" stroke-width="3.0" stroke-linecap="butt" stroke-opacity="1.0" stroke="rgb(0, 0, 0)" stroke-linejoin="round" d=" M 512.000, 704.899 514.551, 705.150 517.005, 705.895 519.266, 707.103 521.247, 708.730 522.874, 710.711 524.082, 712.972 524.827, 715.426 525.078, 717.977 524.827, 720.528 524.082, 722.982 522.874, 725.243 521.247, 727.225 519.266, 728.851 517.005, 730.059 514.551, 730.804 512.000, 731.055 509.449, 730.804 506.995, 730.059 504.734, 728.851 502.753, 727.225 501.126, 725.243 499.918, 722.982 499.173, 720.528 498.922, 717.977 498.922, 717.977 498.922, 717.977 499.173, 715.426 499.918, 712.972 501.126, 710.711 502.753, 708.730 504.734, 707.103 506.995, 705.895 509.449, 705.150 512.000, 704.899 512.000, 704.899 514.551, 705.150 517.005, 705.895 519.266, 707.103 521.247, 708.730 522.874, 710.711 524.082, 712.972 524.827, 715.426 525.078, 717.977 524.827, 720.528 524.082, 722.982 522.874, 725.243 521.247, 727.225 519.266, 728.851 517.005, 730.059 514.551, 730.804 512.000, 731.055 512.000, 731.055 " />
            <path fill="none" stroke-width="3.0" stroke-linecap="butt" stroke-opacity="1.0" stroke="rgb(0, 0, 0)" stroke-linejoin="round" d=" M 627.305, 731.055 637.305, 731.055 647.305, 731.055 657.305, 731.055 667.305, 731.055 677.305, 731.055 687.305, 731.055 697.305, 731.055 698.567, 731.055 699.356, 730.804 700.114, 730.059 700.813, 728.851 701.425, 727.225 701.928, 725.243 702.301, 722.982 702.531, 720.528 702.609, 717.977 702.531, 715.426 702.301, 712.972 701.928, 710.711 701.425, 708.730 700.813, 707.103 700.114, 705.895 699.356, 705.150 698.567, 704.899 688.567, 704.899 678.567, 704.899 668.567, 704.899 658.567, 704.899 648.567, 704.899 638.567, 704.899 628.567, 704.899 627.305, 704.899 " />
            <path fill="none" stroke-width="3.0" stroke-linecap="butt" stroke-opacity="1.0" stroke="rgb(0, 0, 0)" stroke-linejoin="round" d=" M 574.189, 731.055 584.189, 731.055 594.189, 731.055 604.189, 731.055 614.189, 731.055 624.189, 731.055 627.305, 731.055 " />
            <path fill="none" stroke-width="3.0" stroke-linecap="butt" stroke-opacity="1.0" stroke="rgb(0, 0, 0)" stroke-linejoin="round" d=" M 698.567, 731.055 697.779, 730.804 697.021, 730.059 696.322, 728.851 695.710, 727.225 695.207, 725.243 694.834, 722.982 694.604, 720.528 694.526, 717.977 694.604, 715.426 694.834, 712.972 695.207, 710.711 695.710, 708.730 696.322, 707.103 697.021, 705.895 697.779, 705.150 698.567, 704.899 " />
            <path fill="none" stroke-width="3.0" stroke-linecap="butt" stroke-opacity="1.0" stroke="rgb(0, 0, 0)" stroke-linejoin="round" d=" M 574.189, 704.899 573.401, 705.150 572.643, 705.895 571.944, 707.103 571.332, 708.730 570.829, 710.711 570.456, 712.972 570.226, 715.426 570.148, 717.977 570.226, 720.528 570.456, 722.982 570.829, 725.243 571.332, 727.225 571.944, 728.851 572.643, 730.059 573.401, 730.804 574.189, 731.055 " />
            <path fill="none" stroke-width="3.0" stroke-linecap="butt" stroke-opacity="1.0" stroke="rgb(0, 0, 0)" stroke-linejoin="round" d=" M 574.189, 704.899 564.189, 704.899 554.189, 704.899 550.435, 704.899 548.371, 705.150 546.386, 705.895 544.557, 707.103 542.954, 708.730 541.638, 710.711 540.660, 712.972 540.058, 715.426 539.855, 717.977 540.058, 720.528 540.660, 722.982 541.638, 725.243 542.954, 727.225 544.557, 728.851 546.386, 730.059 548.371, 730.804 550.435, 731.055 560.435, 731.055 570.435, 731.055 574.189, 731.055 " />
            <path fill="none" stroke-width="3.0" stroke-linecap="butt" stroke-opacity="1.0" stroke="rgb(0, 0, 0)" stroke-linejoin="round" d=" M 550.435, 704.899 552.499, 705.150 554.484, 705.895 556.313, 707.103 557.916, 708.730 559.232, 710.711 560.210, 712.972 560.812, 715.426 561.015, 717.977 560.812, 720.528 560.210, 722.982 559.232, 725.243 557.916, 727.225 556.313, 728.851 554.484, 730.059 552.499, 730.804 550.435, 731.055 " />
            <path fill="none" stroke-width="3.0" stroke-linecap="butt" stroke-opacity="1.0" stroke="rgb(0, 0, 0)" stroke-linejoin="round" d=" M 473.565, 731.055 471.501, 730.804 469.516, 730.059 467.687, 728.851 466.084, 727.225 464.768, 725.243 463.790, 722.982 463.188, 720.528 462.985, 717.977 463.188, 715.426 463.790, 712.972 464.768, 710.711 466.084, 708.730 467.687, 707.103 469.516, 705.895 471.501, 705.150 473.565, 704.899 475.629, 705.150 477.614, 705.895 479.443, 707.103 481.046, 708.730 482.362, 710.711 483.340, 712.972 483.942, 715.426 484.145, 717.977 483.942, 720.528 483.340, 722.982 482.362, 725.243 481.046, 727.225 479.443, 728.851 477.614, 730.059 475.629, 730.804 473.565, 731.055 " />
            <path fill="none" stroke-width="3.0" stroke-linecap="butt" stroke-opacity="1.0" stroke="rgb(0, 0, 0)" stroke-linejoin="round" d=" M 473.565, 704.899 463.565, 704.899 453.565, 704.899 449.811, 704.899 " />
            <path fill="none" stroke-width="3.0" stroke-linecap="butt" stroke-opacity="1.0" stroke="rgb(0, 0, 0)" stroke-linejoin="round" d=" M 325.433, 704.899 326.221, 705.150 326.979, 705.895 327.678, 707.103 328.290, 708.730 328.793, 710.711 329.166, 712.972 329.396, 715.426 329.474, 717.977 329.396, 720.528 329.166, 722.982 328.793, 725.243 328.290, 727.225 327.678, 728.851 326.979, 730.059 326.221, 730.804 325.433, 731.055 324.644, 730.804 323.886, 730.059 323.187, 728.851 322.575, 727.225 322.072, 725.243 321.699, 722.982 321.469, 720.528 321.391, 717.977 321.469, 715.426 321.699, 712.972 322.072, 710.711 322.575, 708.730 323.187, 707.103 323.886, 705.895 324.644, 705.150 325.433, 704.899 335.433, 704.899 345.433, 704.899 355.433, 704.899 365.433, 704.899 375.433, 704.899 385.433, 704.899 395.433, 704.899 405.433, 704.899 415.433, 704.899 425.433, 704.899 435.433, 704.899 445.433, 704.899 449.811, 704.899 " />
            <path fill="none" stroke-width="3.0" stroke-linecap="butt" stroke-opacity="1.0" stroke="rgb(0, 0, 0)" stroke-linejoin="round" d=" M 325.433, 731.055 335.433, 731.055 345.433, 731.055 355.433, 731.055 365.433, 731.055 375.433, 731.055 385.433, 731.055 395.433, 731.055 405.433, 731.055 415.433, 731.055 425.433, 731.055 435.433, 731.055 445.433, 731.055 449.811, 731.055 450.599, 730.804 451.357, 730.059 452.056, 728.851 452.669, 727.225 453.171, 725.243 453.545, 722.982 453.775, 720.528 453.852, 717.977 453.775, 715.426 453.545, 712.972 453.171, 710.711 452.669, 708.730 452.056, 707.103 451.357, 705.895 450.599, 705.150 449.811, 704.899 " />
            <path fill="none" stroke-width="3.0" stroke-linecap="butt" stroke-opacity="1.0" stroke="rgb(0, 0, 0)" stroke-linejoin="round" d=" M 525.078, 783.367 524.827, 780.815 524.082, 778.362 522.874, 776.101 521.247, 774.119 519.266, 772.493 517.005, 771.284 514.551, 770.540 512.000, 770.289 509.449, 770.540 506.995, 771.284 504.734, 772.493 502.753, 774.119 501.126, 776.101 499.918, 778.362 499.173, 780.815 498.922, 783.367 " />
            <path fill="none" stroke-width="3.0" stroke-linecap="butt" stroke-opacity="1.0" stroke="rgb(0, 0, 0)" stroke-linejoin="round" d=" M 498.922, 783.367 499.173, 785.918 499.918, 788.371 501.126, 790.632 502.753, 792.614 504.734, 794.240 506.995, 795.449 509.449, 796.193 512.000, 796.444 514.551, 796.193 517.005, 795.449 519.266, 794.240 521.247, 792.614 522.874, 790.632 524.082, 788.371 524.827, 785.918 525.078, 783.367 " />
            <path fill="none" stroke-width="3.0" stroke-linecap="butt" stroke-opacity="1.0" stroke="rgb(0, 0, 0)" stroke-linejoin="round" d=" M 645.626, 792.614 647.252, 790.632 648.461, 788.371 649.205, 785.918 649.456, 783.367 649.205, 780.815 648.461, 778.362 647.252, 776.101 645.626, 774.119 643.644, 772.493 641.383, 771.284 638.930, 770.540 636.378, 770.289 633.827, 770.540 631.374, 771.284 629.113, 772.493 627.131, 774.119 625.504, 776.101 624.296, 778.362 623.552, 780.815 623.300, 783.367 623.552, 785.918 624.296, 788.371 625.504, 790.632 627.131, 792.614 629.113, 794.240 631.374, 795.449 633.827, 796.193 636.378, 796.444 638.930, 796.193 641.383, 795.449 643.644, 794.240 645.626, 792.614 " />
            <path fill="none" stroke-width="3.0" stroke-linecap="butt" stroke-opacity="1.0" stroke="rgb(0, 0, 0)" stroke-linejoin="round" d=" M 601.948, 783.367 601.697, 780.815 600.952, 778.362 599.744, 776.101 598.118, 774.119 596.136, 772.493 593.875, 771.284 591.421, 770.540 588.870, 770.289 586.319, 770.540 583.865, 771.284 581.604, 772.493 579.623, 774.119 577.996, 776.101 576.788, 778.362 576.043, 780.815 575.792, 783.367 576.043, 785.918 576.788, 788.371 577.996, 790.632 579.623, 792.614 581.604, 794.240 583.865, 795.449 586.319, 796.193 588.870, 796.444 591.421, 796.193 593.875, 795.449 596.136, 794.240 598.117, 792.614 599.744, 790.632 600.952, 788.371 601.697, 785.918 601.948, 783.367 " />
            <path fill="none" stroke-width="3.0" stroke-linecap="butt" stroke-opacity="1.0" stroke="rgb(0, 0, 0)" stroke-linejoin="round" d=" M 444.378, 792.614 446.004, 790.632 447.212, 788.371 447.957, 785.918 448.208, 783.367 447.957, 780.815 447.212, 778.362 446.004, 776.101 444.378, 774.119 442.396, 772.493 440.135, 771.284 437.681, 770.540 435.130, 770.289 432.579, 770.540 430.125, 771.284 427.864, 772.493 425.883, 774.119 424.256, 776.101 423.048, 778.362 422.303, 780.815 422.052, 783.367 422.303, 785.918 423.048, 788.371 424.256, 790.632 425.883, 792.614 427.864, 794.240 430.125, 795.449 432.579, 796.193 435.130, 796.444 437.681, 796.193 440.135, 795.449 442.396, 794.240 444.378, 792.614 " />
            <path fill="none" stroke-width="3.0" stroke-linecap="butt" stroke-opacity="1.0" stroke="rgb(0, 0, 0)" stroke-linejoin="round" d=" M 398.496, 790.632 399.704, 788.371 400.448, 785.918 400.700, 783.367 400.448, 780.815 399.704, 778.362 398.496, 776.101 396.869, 774.119 394.887, 772.493 392.626, 771.284 390.173, 770.540 387.622, 770.289 385.070, 770.540 382.617, 771.284 380.356, 772.493 378.374, 774.119 376.748, 776.101 375.539, 778.362 374.795, 780.815 374.544, 783.367 374.795, 785.918 375.539, 788.371 376.748, 790.632 378.374, 792.614 380.356, 794.240 382.617, 795.449 385.070, 796.193 387.622, 796.444 390.173, 796.193 392.626, 795.449 394.887, 794.240 396.869, 792.614 398.496, 790.632 " />
            <path fill="none" stroke-width="3.0" stroke-linecap="butt" stroke-opacity="1.0" stroke="rgb(0, 0, 0)" stroke-linejoin="round" d=" M 498.922, 528.347 498.922, 528.347 498.922, 538.347 498.922, 548.347 498.922, 558.347 498.922, 568.347 498.922, 578.347 498.922, 588.347 498.922, 598.347 498.922, 608.347 498.922, 618.347 498.922, 628.347 498.922, 638.347 498.922, 648.347 498.922, 658.347 498.922, 668.347 498.922, 678.347 498.922, 688.347 498.922, 698.347 498.922, 708.347 498.922, 717.977 " />
            <path fill="none" stroke-width="3.0" stroke-linecap="butt" stroke-opacity="1.0" stroke="rgb(0, 0, 0)" stroke-linejoin="round" d=" M 627.305, 704.899 617.305, 704.899 607.305, 704.899 597.305, 704.899 587.305, 704.899 577.305, 704.899 574.189, 704.899 " />
        </g>
    </g>
    <g id="ViewLayer_TechnicalLines" inkscape:groupmode="lineset" inkscape:label="ViewLayer_TechnicalLines">
        <g inkscape:groupmode="layer" id="strokes" inkscape:label="strokes">
            <path fill="none" stroke-width="3.0" stroke-linecap="butt" stroke-opacity="1.0" stroke="rgb(0, 0, 0)" stroke-linejoin="round" d=" M 518.539, 423.724 518.539, 413.724 518.539, 403.724 518.539, 393.724 518.539, 383.724 518.539, 373.724 518.539, 363.724 518.539, 353.724 518.539, 343.724 518.539, 333.724 518.539, 323.724 518.539, 313.724 518.539, 303.724 518.539, 293.724 518.539, 283.724 518.539, 273.724 518.539, 263.724 518.539, 253.724 518.539, 243.724 518.539, 233.724 518.539, 227.556 518.539, 227.556 508.539, 227.556 505.461, 227.556 505.461, 237.556 505.461, 247.556 505.461, 257.556 505.461, 267.556 505.461, 277.556 505.461, 287.556 505.461, 297.556 505.461, 307.556 505.461, 317.556 505.461, 327.556 505.461, 337.556 505.461, 347.556 505.461, 357.556 505.461, 367.556 505.461, 377.556 505.461, 387.556 505.461, 397.556 505.461, 407.556 505.461, 417.556 505.461, 423.724 515.461, 423.724 518.539, 423.724 518.539, 423.724 " />
            <path fill="none" stroke-width="3.0" stroke-linecap="butt" stroke-opacity="1.0" stroke="rgb(0, 0, 0)" stroke-linejoin="round" d=" M 518.539, 227.556 518.539, 237.556 518.539, 247.556 518.539, 257.556 518.539, 267.556 518.539, 277.556 518.539, 287.556 518.539, 297.556 518.539, 307.556 518.539, 317.556 518.539, 327.556 518.539, 337.556 518.539, 347.556 518.539, 357.556 518.539, 367.556 518.539, 377.556 518.539, 387.556 518.539, 397.556 518.539, 407.556 518.539, 417.556 518.539, 423.724 " />
            <path fill="none" stroke-width="3.0" stroke-linecap="butt" stroke-opacity="1.0" stroke="rgb(0, 0, 0)" stroke-linejoin="round" d=" M 525.078, 528.347 535.078, 528.347 545.078, 528.347 555.078, 528.347 565.078, 528.347 575.078, 528.347 577.390, 528.347 577.390, 528.347 577.390, 518.347 577.390, 515.270 567.390, 515.270 557.390, 515.270 547.390, 515.270 537.390, 515.270 527.390, 515.270 517.390, 515.270 507.390, 515.270 497.390, 515.270 487.390, 515.270 477.390, 515.270 467.390, 515.270 457.390, 515.270 446.611, 515.270 446.611, 525.270 446.611, 528.347 446.611, 528.347 456.611, 528.347 466.611, 528.347 476.611, 528.347 486.611, 528.347 496.611, 528.347 498.922, 528.347 " />
            <path fill="none" stroke-width="3.0" stroke-linecap="butt" stroke-opacity="1.0" stroke="rgb(0, 0, 0)" stroke-linejoin="round" d=" M 446.611, 528.347 456.611, 528.347 466.611, 528.347 476.611, 528.347 486.611, 528.347 496.611, 528.347 498.922, 528.347 508.922, 528.347 518.922, 528.347 525.078, 528.347 535.078, 528.347 545.078, 528.347 555.078, 528.347 565.078, 528.347 575.078, 528.347 577.390, 528.347 " />
            <path fill="none" stroke-width="3.0" stroke-linecap="butt" stroke-opacity="1.0" stroke="rgb(0, 0, 0)" stroke-linejoin="round" d=" M 525.078, 783.367 525.078, 783.367 525.078, 773.367 525.078, 763.367 525.078, 753.367 525.078, 743.367 525.078, 733.367 525.078, 723.367 525.078, 713.367 525.078, 703.367 525.078, 693.367 525.078, 683.367 525.078, 673.367 525.078, 663.367 525.078, 653.367 525.078, 643.367 525.078, 633.367 525.078, 623.367 525.078, 613.367 525.078, 603.367 525.078, 593.367 525.078, 583.367 525.078, 573.367 525.078, 563.367 525.078, 553.367 525.078, 543.367 525.078, 533.367 525.078, 528.347 525.078, 528.347 " />
            <path fill="none" stroke-width="3.0" stroke-linecap="butt" stroke-opacity="1.0" stroke="rgb(0, 0, 0)" stroke-linejoin="round" d=" M 498.922, 717.977 498.922, 727.977 498.922, 737.977 498.922, 747.977 498.922, 757.977 498.922, 767.977 498.922, 777.977 498.922, 783.367 498.922, 783.367 " />
            <path fill="none" stroke-width="3.0" stroke-linecap="butt" stroke-opacity="1.0" stroke="rgb(0, 0, 0)" stroke-linejoin="round" d=" M 512.000, 704.899 514.551, 705.150 517.005, 705.895 519.266, 707.103 521.247, 708.730 522.874, 710.711 524.082, 712.972 524.827, 715.426 525.078, 717.977 524.827, 720.528 524.082, 722.982 522.874, 725.243 521.247, 727.225 519.266, 728.851 517.005, 730.059 514.551, 730.804 512.000, 731.055 509.449, 730.804 506.995, 730.059 504.734, 728.851 502.753, 727.225 501.126, 725.243 499.918, 722.982 499.173, 720.528 498.922, 717.977 498.922, 717.977 498.922, 717.977 499.173, 715.426 499.918, 712.972 501.126, 710.711 502.753, 708.730 504.734, 707.103 506.995, 705.895 509.449, 705.150 512.000, 704.899 512.000, 704.899 514.551, 705.150 517.005, 705.895 519.266, 707.103 521.247, 708.730 522.874, 710.711 524.082, 712.972 524.827, 715.426 525.078, 717.977 524.827, 720.528 524.082, 722.982 522.874, 725.243 521.247, 727.225 519.266, 728.851 517.005, 730.059 514.551, 730.804 512.000, 731.055 512.000, 731.055 " />
            <path fill="none" stroke-width="3.0" stroke-linecap="butt" stroke-opacity="1.0" stroke="rgb(0, 0, 0)" stroke-linejoin="round" d=" M 627.305, 731.055 637.305, 731.055 647.305, 731.055 657.305, 731.055 667.305, 731.055 677.305, 731.055 687.305, 731.055 697.305, 731.055 698.567, 731.055 699.356, 730.804 700.114, 730.059 700.813, 728.851 701.425, 727.225 701.928, 725.243 702.301, 722.982 702.531, 720.528 702.609, 717.977 702.531, 715.426 702.301, 712.972 701.928, 710.711 701.425, 708.730 700.813, 707.103 700.114, 705.895 699.356, 705.150 698.567, 704.899 688.567, 704.899 678.567, 704.899 668.567, 704.899 658.567, 704.899 648.567, 704.899 638.567, 704.899 628.567, 704.899 627.305, 704.899 " />
            <path fill="none" stroke-width="3.0" stroke-linecap="butt" stroke-opacity="1.0" stroke="rgb(0, 0, 0)" stroke-linejoin="round" d=" M 574.189, 731.055 584.189, 731.055 594.189, 731.055 604.189, 731.055 614.189, 731.055 624.189, 731.055 627.305, 731.055 " />
            <path fill="none" stroke-width="3.0" stroke-linecap="butt" stroke-opacity="1.0" stroke="rgb(0, 0, 0)" stroke-linejoin="round" d=" M 698.567, 731.055 697.779, 730.804 697.021, 730.059 696.322, 728.851 695.710, 727.225 695.207, 725.243 694.834, 722.982 694.604, 720.528 694.526, 717.977 694.604, 715.426 694.834, 712.972 695.207, 710.711 695.710, 708.730 696.322, 707.103 697.021, 705.895 697.779, 705.150 698.567, 704.899 " />
            <path fill="none" stroke-width="3.0" stroke-linecap="butt" stroke-opacity="1.0" stroke="rgb(0, 0, 0)" stroke-linejoin="round" d=" M 574.189, 704.899 573.401, 705.150 572.643, 705.895 571.944, 707.103 571.332, 708.730 570.829, 710.711 570.456, 712.972 570.226, 715.426 570.148, 717.977 570.226, 720.528 570.456, 722.982 570.829, 725.243 571.332, 727.225 571.944, 728.851 572.643, 730.059 573.401, 730.804 574.189, 731.055 " />
            <path fill="none" stroke-width="3.0" stroke-linecap="butt" stroke-opacity="1.0" stroke="rgb(0, 0, 0)" stroke-linejoin="round" d=" M 574.189, 704.899 564.189, 704.899 554.189, 704.899 550.435, 704.899 548.371, 705.150 546.386, 705.895 544.557, 707.103 542.954, 708.730 541.638, 710.711 540.660, 712.972 540.058, 715.426 539.855, 717.977 540.058, 720.528 540.660, 722.982 541.638, 725.243 542.954, 727.225 544.557, 728.851 546.386, 730.059 548.371, 730.804 550.435, 731.055 560.435, 731.055 570.435, 731.055 574.189, 731.055 " />
            <path fill="none" stroke-width="3.0" stroke-linecap="butt" stroke-opacity="1.0" stroke="rgb(0, 0, 0)" stroke-linejoin="round" d=" M 550.435, 704.899 552.499, 705.150 554.484, 705.895 556.313, 707.103 557.916, 708.730 559.232, 710.711 560.210, 712.972 560.812, 715.426 561.015, 717.977 560.812, 720.528 560.210, 722.982 559.232, 725.243 557.916, 727.225 556.313, 728.851 554.484, 730.059 552.499, 730.804 550.435, 731.055 " />
            <path fill="none" stroke-width="3.0" stroke-linecap="butt" stroke-opacity="1.0" stroke="rgb(0, 0, 0)" stroke-linejoin="round" d=" M 473.565, 731.055 471.501, 730.804 469.516, 730.059 467.687, 728.851 466.084, 727.225 464.768, 725.243 463.790, 722.982 463.188, 720.528 462.985, 717.977 463.188, 715.426 463.790, 712.972 464.768, 710.711 466.084, 708.730 467.687, 707.103 469.516, 705.895 471.501, 705.150 473.565, 704.899 475.629, 705.150 477.614, 705.895 479.443, 707.103 481.046, 708.730 482.362, 710.711 483.340, 712.972 483.942, 715.426 484.145, 717.977 483.942, 720.528 483.340, 722.982 482.362, 725.243 481.046, 727.225 479.443, 728.851 477.614, 730.059 475.629, 730.804 473.565, 731.055 " />
            <path fill="none" stroke-width="3.0" stroke-linecap="butt" stroke-opacity="1.0" stroke="rgb(0, 0, 0)" stroke-linejoin="round" d=" M 473.565, 704.899 463.565, 704.899 453.565, 704.899 449.811, 704.899 " />
            <path fill="none" stroke-width="3.0" stroke-linecap="butt" stroke-opacity="1.0" stroke="rgb(0, 0, 0)" stroke-linejoin="round" d=" M 325.433, 704.899 326.221, 705.150 326.979, 705.895 327.678, 707.103 328.290, 708.730 328.793, 710.711 329.166, 712.972 329.396, 715.426 329.474, 717.977 329.396, 720.528 329.166, 722.982 328.793, 725.243 328.290, 727.225 327.678, 728.851 326.979, 730.059 326.221, 730.804 325.433, 731.055 324.644, 730.804 323.886, 730.059 323.187, 728.851 322.575, 727.225 322.072, 725.243 321.699, 722.982 321.469, 720.528 321.391, 717.977 321.469, 715.426 321.699, 712.972 322.072, 710.711 322.575, 708.730 323.187, 707.103 323.886, 705.895 324.644, 705.150 325.433, 704.899 335.433, 704.899 345.433, 704.899 355.433, 704.899 365.433, 704.899 375.433, 704.899 385.433, 704.899 395.433, 704.899 405.433, 704.899 415.433, 704.899 425.433, 704.899 435.433, 704.899 445.433, 704.899 449.811, 704.899 " />
            <path fill="none" stroke-width="3.0" stroke-linecap="butt" stroke-opacity="1.0" stroke="rgb(0, 0, 0)" stroke-linejoin="round" d=" M 325.433, 731.055 335.433, 731.055 345.433, 731.055 355.433, 731.055 365.433, 731.055 375.433, 731.055 385.433, 731.055 395.433, 731.055 405.433, 731.055 415.433, 731.055 425.433, 731.055 435.433, 731.055 445.433, 731.055 449.811, 731.055 450.599, 730.804 451.357, 730.059 452.056, 728.851 452.669, 727.225 453.171, 725.243 453.545, 722.982 453.775, 720.528 453.852, 717.977 453.775, 715.426 453.545, 712.972 453.171, 710.711 452.669, 708.730 452.056, 707.103 451.357, 705.895 450.599, 705.150 449.811, 704.899 " />
            <path fill="none" stroke-width="3.0" stroke-linecap="butt" stroke-opacity="1.0" stroke="rgb(0, 0, 0)" stroke-linejoin="round" d=" M 525.078, 783.367 524.827, 780.815 524.082, 778.362 522.874, 776.101 521.247, 774.119 519.266, 772.493 517.005, 771.284 514.551, 770.540 512.000, 770.289 509.449, 770.540 506.995, 771.284 504.734, 772.493 502.753, 774.119 501.126, 776.101 499.918, 778.362 499.173, 780.815 498.922, 783.367 " />
            <path fill="none" stroke-width="3.0" stroke-linecap="butt" stroke-opacity="1.0" stroke="rgb(0, 0, 0)" stroke-linejoin="round" d=" M 498.922, 783.367 499.173, 785.918 499.918, 788.371 501.126, 790.632 502.753, 792.614 504.734, 794.240 506.995, 795.449 509.449, 796.193 512.000, 796.444 514.551, 796.193 517.005, 795.449 519.266, 794.240 521.247, 792.614 522.874, 790.632 524.082, 788.371 524.827, 785.918 525.078, 783.367 " />
            <path fill="none" stroke-width="3.0" stroke-linecap="butt" stroke-opacity="1.0" stroke="rgb(0, 0, 0)" stroke-linejoin="round" d=" M 645.626, 792.614 647.252, 790.632 648.461, 788.371 649.205, 785.918 649.456, 783.367 649.205, 780.815 648.461, 778.362 647.252, 776.101 645.626, 774.119 643.644, 772.493 641.383, 771.284 638.930, 770.540 636.378, 770.289 633.827, 770.540 631.374, 771.284 629.113, 772.493 627.131, 774.119 625.504, 776.101 624.296, 778.362 623.552, 780.815 623.300, 783.367 623.552, 785.918 624.296, 788.371 625.504, 790.632 627.131, 792.614 629.113, 794.240 631.374, 795.449 633.827, 796.193 636.378, 796.444 638.930, 796.193 641.383, 795.449 643.644, 794.240 645.626, 792.614 " />
            <path fill="none" stroke-width="3.0" stroke-linecap="butt" stroke-opacity="1.0" stroke="rgb(0, 0, 0)" stroke-linejoin="round" d=" M 601.948, 783.367 601.697, 780.815 600.952, 778.362 599.744, 776.101 598.118, 774.119 596.136, 772.493 593.875, 771.284 591.421, 770.540 588.870, 770.289 586.319, 770.540 583.865, 771.284 581.604, 772.493 579.623, 774.119 577.996, 776.101 576.788, 778.362 576.043, 780.815 575.792, 783.367 576.043, 785.918 576.788, 788.371 577.996, 790.632 579.623, 792.614 581.604, 794.240 583.865, 795.449 586.319, 796.193 588.870, 796.444 591.421, 796.193 593.875, 795.449 596.136, 794.240 598.117, 792.614 599.744, 790.632 600.952, 788.371 601.697, 785.918 601.948, 783.367 " />
            <path fill="none" stroke-width="3.0" stroke-linecap="butt" stroke-opacity="1.0" stroke="rgb(0, 0, 0)" stroke-linejoin="round" d=" M 444.378, 792.614 446.004, 790.632 447.212, 788.371 447.957, 785.918 448.208, 783.367 447.957, 780.815 447.212, 778.362 446.004, 776.101 444.378, 774.119 442.396, 772.493 440.135, 771.284 437.681, 770.540 435.130, 770.289 432.579, 770.540 430.125, 771.284 427.864, 772.493 425.883, 774.119 424.256, 776.101 423.048, 778.362 422.303, 780.815 422.052, 783.367 422.303, 785.918 423.048, 788.371 424.256, 790.632 425.883, 792.614 427.864, 794.240 430.125, 795.449 432.579, 796.193 435.130, 796.444 437.681, 796.193 440.135, 795.449 442.396, 794.240 444.378, 792.614 " />
            <path fill="none" stroke-width="3.0" stroke-linecap="butt" stroke-opacity="1.0" stroke="rgb(0, 0, 0)" stroke-linejoin="round" d=" M 398.496, 790.632 399.704, 788.371 400.448, 785.918 400.700, 783.367 400.448, 780.815 399.704, 778.362 398.496, 776.101 396.869, 774.119 394.887, 772.493 392.626, 771.284 390.173, 770.540 387.622, 770.289 385.070, 770.540 382.617, 771.284 380.356, 772.493 378.374, 774.119 376.748, 776.101 375.539, 778.362 374.795, 780.815 374.544, 783.367 374.795, 785.918 375.539, 788.371 376.748, 790.632 378.374, 792.614 380.356, 794.240 382.617, 795.449 385.070, 796.193 387.622, 796.444 390.173, 796.193 392.626, 795.449 394.887, 794.240 396.869, 792.614 398.496, 790.632 " />
            <path fill="none" stroke-width="3.0" stroke-linecap="butt" stroke-opacity="1.0" stroke="rgb(0, 0, 0)" stroke-linejoin="round" d=" M 498.922, 528.347 498.922, 528.347 498.922, 538.347 498.922, 548.347 498.922, 558.347 498.922, 568.347 498.922, 578.347 498.922, 588.347 498.922, 598.347 498.922, 608.347 498.922, 618.347 498.922, 628.347 498.922, 638.347 498.922, 648.347 498.922, 658.347 498.922, 668.347 498.922, 678.347 498.922, 688.347 498.922, 698.347 498.922, 708.347 498.922, 717.977 " />
            <path fill="none" stroke-width="3.0" stroke-linecap="butt" stroke-opacity="1.0" stroke="rgb(0, 0, 0)" stroke-linejoin="round" d=" M 627.305, 704.899 617.305, 704.899 607.305, 704.899 597.305, 704.899 587.305, 704.899 577.305, 704.899 574.189, 704.899 " />
        </g>
    </g>
    <g id="ViewLayer_TechnicalLines.001" inkscape:groupmode="lineset" inkscape:label="ViewLayer_TechnicalLines.001">
        <g inkscape:groupmode="layer" id="strokes" inkscape:label="strokes">
            <path fill="none" stroke-width="1.5" stroke-linecap="round" stroke-opacity="1.0" stroke="rgb(0, 0, 0)" stroke-linejoin="round" d=" M 518.539, 423.724 518.539, 413.724 518.539, 403.724 518.539, 393.724 518.539, 383.724 518.539, 373.724 518.539, 363.724 518.539, 353.724 518.539, 343.724 518.539, 333.724 518.539, 323.724 518.539, 313.724 518.539, 303.724 518.539, 293.724 518.539, 283.724 518.539, 273.724 518.539, 263.724 518.539, 253.724 518.539, 243.724 518.539, 233.724 518.539, 227.556 518.539, 227.556 508.539, 227.556 505.461, 227.556 505.461, 237.556 505.461, 247.556 505.461, 257.556 505.461, 267.556 505.461, 277.556 505.461, 287.556 505.461, 297.556 505.461, 307.556 505.461, 317.556 505.461, 327.556 505.461, 337.556 505.461, 347.556 505.461, 357.556 505.461, 367.556 505.461, 377.556 505.461, 387.556 505.461, 397.556 505.461, 407.556 505.461, 417.556 505.461, 423.724 515.461, 423.724 518.539, 423.724 518.539, 423.724 " />
            <path fill="none" stroke-width="1.5" stroke-linecap="round" stroke-opacity="1.0" stroke="rgb(0, 0, 0)" stroke-linejoin="round" d=" M 518.539, 227.556 518.539, 237.556 518.539, 247.556 518.539, 257.556 518.539, 267.556 518.539, 277.556 518.539, 287.556 518.539, 297.556 518.539, 307.556 518.539, 317.556 518.539, 327.556 518.539, 337.556 518.539, 347.556 518.539, 357.556 518.539, 367.556 518.539, 377.556 518.539, 387.556 518.539, 397.556 518.539, 407.556 518.539, 417.556 518.539, 423.724 " />
            <path fill="none" stroke-width="1.5" stroke-linecap="round" stroke-opacity="1.0" stroke="rgb(0, 0, 0)" stroke-linejoin="round" d=" M 525.078, 528.347 535.078, 528.347 545.078, 528.347 555.078, 528.347 565.078, 528.347 575.078, 528.347 577.390, 528.347 577.390, 528.347 577.390, 518.347 577.390, 515.270 567.390, 515.270 557.390, 515.270 547.390, 515.270 537.390, 515.270 527.390, 515.270 517.390, 515.270 507.390, 515.270 497.390, 515.270 487.390, 515.270 477.390, 515.270 467.390, 515.270 457.390, 515.270 446.611, 515.270 446.611, 525.270 446.611, 528.347 446.611, 528.347 456.611, 528.347 466.611, 528.347 476.611, 528.347 486.611, 528.347 496.611, 528.347 498.922, 528.347 " />
            <path fill="none" stroke-width="1.5" stroke-linecap="round" stroke-opacity="1.0" stroke="rgb(0, 0, 0)" stroke-linejoin="round" d=" M 446.611, 528.347 456.611, 528.347 466.611, 528.347 476.611, 528.347 486.611, 528.347 496.611, 528.347 498.922, 528.347 508.922, 528.347 518.922, 528.347 525.078, 528.347 535.078, 528.347 545.078, 528.347 555.078, 528.347 565.078, 528.347 575.078, 528.347 577.390, 528.347 " />
            <path fill="none" stroke-width="1.5" stroke-linecap="round" stroke-opacity="1.0" stroke="rgb(0, 0, 0)" stroke-linejoin="round" d=" M 525.078, 783.367 525.078, 783.367 525.078, 773.367 525.078, 763.367 525.078, 753.367 525.078, 743.367 525.078, 733.367 525.078, 723.367 525.078, 713.367 525.078, 703.367 525.078, 693.367 525.078, 683.367 525.078, 673.367 525.078, 663.367 525.078, 653.367 525.078, 643.367 525.078, 633.367 525.078, 623.367 525.078, 613.367 525.078, 603.367 525.078, 593.367 525.078, 583.367 525.078, 573.367 525.078, 563.367 525.078, 553.367 525.078, 543.367 525.078, 533.367 525.078, 528.347 525.078, 528.347 " />
            <path fill="none" stroke-width="1.5" stroke-linecap="round" stroke-opacity="1.0" stroke="rgb(0, 0, 0)" stroke-linejoin="round" d=" M 498.922, 717.977 498.922, 727.977 498.922, 737.977 498.922, 747.977 498.922, 757.977 498.922, 767.977 498.922, 777.977 498.922, 783.367 498.922, 783.367 " />
            <path fill="none" stroke-width="1.5" stroke-linecap="round" stroke-opacity="1.0" stroke="rgb(0, 0, 0)" stroke-linejoin="round" d=" M 512.000, 704.899 514.551, 705.150 517.005, 705.895 519.266, 707.103 521.247, 708.730 522.874, 710.711 524.082, 712.972 524.827, 715.426 525.078, 717.977 524.827, 720.528 524.082, 722.982 522.874, 725.243 521.247, 727.225 519.266, 728.851 517.005, 730.059 514.551, 730.804 512.000, 731.055 509.449, 730.804 506.995, 730.059 504.734, 728.851 502.753, 727.225 501.126, 725.243 499.918, 722.982 499.173, 720.528 498.922, 717.977 498.922, 717.977 498.922, 717.977 499.173, 715.426 499.918, 712.972 501.126, 710.711 502.753, 708.730 504.734, 707.103 506.995, 705.895 509.449, 705.150 512.000, 704.899 512.000, 704.899 514.551, 705.150 517.005, 705.895 519.266, 707.103 521.247, 708.730 522.874, 710.711 524.082, 712.972 524.827, 715.426 525.078, 717.977 524.827, 720.528 524.082, 722.982 522.874, 725.243 521.247, 727.225 519.266, 728.851 517.005, 730.059 514.551, 730.804 512.000, 731.055 512.000, 731.055 " />
            <path fill="none" stroke-width="1.5" stroke-linecap="round" stroke-opacity="1.0" stroke="rgb(0, 0, 0)" stroke-linejoin="round" d=" M 627.305, 731.055 637.305, 731.055 647.305, 731.055 657.305, 731.055 667.305, 731.055 677.305, 731.055 687.305, 731.055 697.305, 731.055 698.567, 731.055 699.356, 730.804 700.114, 730.059 700.813, 728.851 701.425, 727.225 701.928, 725.243 702.301, 722.982 702.531, 720.528 702.609, 717.977 702.531, 715.426 702.301, 712.972 701.928, 710.711 701.425, 708.730 700.813, 707.103 700.114, 705.895 699.356, 705.150 698.567, 704.899 688.567, 704.899 678.567, 704.899 668.567, 704.899 658.567, 704.899 648.567, 704.899 638.567, 704.899 628.567, 704.899 627.305, 704.899 " />
            <path fill="none" stroke-width="1.5" stroke-linecap="round" stroke-opacity="1.0" stroke="rgb(0, 0, 0)" stroke-linejoin="round" d=" M 574.189, 731.055 584.189, 731.055 594.189, 731.055 604.189, 731.055 614.189, 731.055 624.189, 731.055 627.305, 731.055 " />
            <path fill="none" stroke-width="1.5" stroke-linecap="round" stroke-opacity="1.0" stroke="rgb(0, 0, 0)" stroke-linejoin="round" d=" M 698.567, 731.055 697.779, 730.804 697.021, 730.059 696.322, 728.851 695.710, 727.225 695.207, 725.243 694.834, 722.982 694.604, 720.528 694.526, 717.977 694.604, 715.426 694.834, 712.972 695.207, 710.711 695.710, 708.730 696.322, 707.103 697.021, 705.895 697.779, 705.150 698.567, 704.899 " />
            <path fill="none" stroke-width="1.5" stroke-linecap="round" stroke-opacity="1.0" stroke="rgb(0, 0, 0)" stroke-linejoin="round" d=" M 574.189, 704.899 573.401, 705.150 572.643, 705.895 571.944, 707.103 571.332, 708.730 570.829, 710.711 570.456, 712.972 570.226, 715.426 570.148, 717.977 570.226, 720.528 570.456, 722.982 570.829, 725.243 571.332, 727.225 571.944, 728.851 572.643, 730.059 573.401, 730.804 574.189, 731.055 " />
            <path fill="none" stroke-width="1.5" stroke-linecap="round" stroke-opacity="1.0" stroke="rgb(0, 0, 0)" stroke-linejoin="round" d=" M 574.189, 704.899 564.189, 704.899 554.189, 704.899 550.435, 704.899 548.371, 705.150 546.386, 705.895 544.557, 707.103 542.954, 708.730 541.638, 710.711 540.660, 712.972 540.058, 715.426 539.855, 717.977 540.058, 720.528 540.660, 722.982 541.638, 725.243 542.954, 727.225 544.557, 728.851 546.386, 730.059 548.371, 730.804 550.435, 731.055 560.435, 731.055 570.435, 731.055 574.189, 731.055 " />
            <path fill="none" stroke-width="1.5" stroke-linecap="round" stroke-opacity="1.0" stroke="rgb(0, 0, 0)" stroke-linejoin="round" d=" M 550.435, 704.899 552.499, 705.150 554.484, 705.895 556.313, 707.103 557.916, 708.730 559.232, 710.711 560.210, 712.972 560.812, 715.426 561.015, 717.977 560.812, 720.528 560.210, 722.982 559.232, 725.243 557.916, 727.225 556.313, 728.851 554.484, 730.059 552.499, 730.804 550.435, 731.055 " />
            <path fill="none" stroke-width="1.5" stroke-linecap="round" stroke-opacity="1.0" stroke="rgb(0, 0, 0)" stroke-linejoin="round" d=" M 473.565, 731.055 471.501, 730.804 469.516, 730.059 467.687, 728.851 466.084, 727.225 464.768, 725.243 463.790, 722.982 463.188, 720.528 462.985, 717.977 463.188, 715.426 463.790, 712.972 464.768, 710.711 466.084, 708.730 467.687, 707.103 469.516, 705.895 471.501, 705.150 473.565, 704.899 475.629, 705.150 477.614, 705.895 479.443, 707.103 481.046, 708.730 482.362, 710.711 483.340, 712.972 483.942, 715.426 484.145, 717.977 483.942, 720.528 483.340, 722.982 482.362, 725.243 481.046, 727.225 479.443, 728.851 477.614, 730.059 475.629, 730.804 473.565, 731.055 " />
            <path fill="none" stroke-width="1.5" stroke-linecap="round" stroke-opacity="1.0" stroke="rgb(0, 0, 0)" stroke-linejoin="round" d=" M 473.565, 704.899 463.565, 704.899 453.565, 704.899 449.811, 704.899 " />
            <path fill="none" stroke-width="1.5" stroke-linecap="round" stroke-opacity="1.0" stroke="rgb(0, 0, 0)" stroke-linejoin="round" d=" M 325.433, 704.899 326.221, 705.150 326.979, 705.895 327.678, 707.103 328.290, 708.730 328.793, 710.711 329.166, 712.972 329.396, 715.426 329.474, 717.977 329.396, 720.528 329.166, 722.982 328.793, 725.243 328.290, 727.225 327.678, 728.851 326.979, 730.059 326.221, 730.804 325.433, 731.055 324.644, 730.804 323.886, 730.059 323.187, 728.851 322.575, 727.225 322.072, 725.243 321.699, 722.982 321.469, 720.528 321.391, 717.977 321.469, 715.426 321.699, 712.972 322.072, 710.711 322.575, 708.730 323.187, 707.103 323.886, 705.895 324.644, 705.150 325.433, 704.899 335.433, 704.899 345.433, 704.899 355.433, 704.899 365.433, 704.899 375.433, 704.899 385.433, 704.899 395.433, 704.899 405.433, 704.899 415.433, 704.899 425.433, 704.899 435.433, 704.899 445.433, 704.899 449.811, 704.899 " />
            <path fill="none" stroke-width="1.5" stroke-linecap="round" stroke-opacity="1.0" stroke="rgb(0, 0, 0)" stroke-linejoin="round" d=" M 325.433, 731.055 335.433, 731.055 345.433, 731.055 355.433, 731.055 365.433, 731.055 375.433, 731.055 385.433, 731.055 395.433, 731.055 405.433, 731.055 415.433, 731.055 425.433, 731.055 435.433, 731.055 445.433, 731.055 449.811, 731.055 450.599, 730.804 451.357, 730.059 452.056, 728.851 452.669, 727.225 453.171, 725.243 453.545, 722.982 453.775, 720.528 453.852, 717.977 453.775, 715.426 453.545, 712.972 453.171, 710.711 452.669, 708.730 452.056, 707.103 451.357, 705.895 450.599, 705.150 449.811, 704.899 " />
            <path fill="none" stroke-width="1.5" stroke-linecap="round" stroke-opacity="1.0" stroke="rgb(0, 0, 0)" stroke-linejoin="round" d=" M 525.078, 783.367 524.827, 780.815 524.082, 778.362 522.874, 776.101 521.247, 774.119 519.266, 772.493 517.005, 771.284 514.551, 770.540 512.000, 770.289 509.449, 770.540 506.995, 771.284 504.734, 772.493 502.753, 774.119 501.126, 776.101 499.918, 778.362 499.173, 780.815 498.922, 783.367 " />
            <path fill="none" stroke-width="1.5" stroke-linecap="round" stroke-opacity="1.0" stroke="rgb(0, 0, 0)" stroke-linejoin="round" d=" M 498.922, 783.367 499.173, 785.918 499.918, 788.371 501.126, 790.632 502.753, 792.614 504.734, 794.240 506.995, 795.449 509.449, 796.193 512.000, 796.444 514.551, 796.193 517.005, 795.449 519.266, 794.240 521.247, 792.614 522.874, 790.632 524.082, 788.371 524.827, 785.918 525.078, 783.367 " />
            <path fill="none" stroke-width="1.5" stroke-linecap="round" stroke-opacity="1.0" stroke="rgb(0, 0, 0)" stroke-linejoin="round" d=" M 645.626, 792.614 647.252, 790.632 648.461, 788.371 649.205, 785.918 649.456, 783.367 649.205, 780.815 648.461, 778.362 647.252, 776.101 645.626, 774.119 643.644, 772.493 641.383, 771.284 638.930, 770.540 636.378, 770.289 633.827, 770.540 631.374, 771.284 629.113, 772.493 627.131, 774.119 625.504, 776.101 624.296, 778.362 623.552, 780.815 623.300, 783.367 623.552, 785.918 624.296, 788.371 625.504, 790.632 627.131, 792.614 629.113, 794.240 631.374, 795.449 633.827, 796.193 636.378, 796.444 638.930, 796.193 641.383, 795.449 643.644, 794.240 645.626, 792.614 " />
            <path fill="none" stroke-width="1.5" stroke-linecap="round" stroke-opacity="1.0" stroke="rgb(0, 0, 0)" stroke-linejoin="round" d=" M 601.948, 783.367 601.697, 780.815 600.952, 778.362 599.744, 776.101 598.118, 774.119 596.136, 772.493 593.875, 771.284 591.421, 770.540 588.870, 770.289 586.319, 770.540 583.865, 771.284 581.604, 772.493 579.623, 774.119 577.996, 776.101 576.788, 778.362 576.043, 780.815 575.792, 783.367 576.043, 785.918 576.788, 788.371 577.996, 790.632 579.623, 792.614 581.604, 794.240 583.865, 795.449 586.319, 796.193 588.870, 796.444 591.421, 796.193 593.875, 795.449 596.136, 794.240 598.117, 792.614 599.744, 790.632 600.952, 788.371 601.697, 785.918 601.948, 783.367 " />
            <path fill="none" stroke-width="1.5" stroke-linecap="round" stroke-opacity="1.0" stroke="rgb(0, 0, 0)" stroke-linejoin="round" d=" M 444.378, 792.614 446.004, 790.632 447.212, 788.371 447.957, 785.918 448.208, 783.367 447.957, 780.815 447.212, 778.362 446.004, 776.101 444.378, 774.119 442.396, 772.493 440.135, 771.284 437.681, 770.540 435.130, 770.289 432.579, 770.540 430.125, 771.284 427.864, 772.493 425.883, 774.119 424.256, 776.101 423.048, 778.362 422.303, 780.815 422.052, 783.367 422.303, 785.918 423.048, 788.371 424.256, 790.632 425.883, 792.614 427.864, 794.240 430.125, 795.449 432.579, 796.193 435.130, 796.444 437.681, 796.193 440.135, 795.449 442.396, 794.240 444.378, 792.614 " />
            <path fill="none" stroke-width="1.5" stroke-linecap="round" stroke-opacity="1.0" stroke="rgb(0, 0, 0)" stroke-linejoin="round" d=" M 398.496, 790.632 399.704, 788.371 400.448, 785.918 400.700, 783.367 400.448, 780.815 399.704, 778.362 398.496, 776.101 396.869, 774.119 394.887, 772.493 392.626, 771.284 390.173, 770.540 387.622, 770.289 385.070, 770.540 382.617, 771.284 380.356, 772.493 378.374, 774.119 376.748, 776.101 375.539, 778.362 374.795, 780.815 374.544, 783.367 374.795, 785.918 375.539, 788.371 376.748, 790.632 378.374, 792.614 380.356, 794.240 382.617, 795.449 385.070, 796.193 387.622, 796.444 390.173, 796.193 392.626, 795.449 394.887, 794.240 396.869, 792.614 398.496, 790.632 " />
            <path fill="none" stroke-width="1.5" stroke-linecap="round" stroke-opacity="1.0" stroke="rgb(0, 0, 0)" stroke-linejoin="round" d=" M 498.922, 528.347 498.922, 528.347 498.922, 538.347 498.922, 548.347 498.922, 558.347 498.922, 568.347 498.922, 578.347 498.922, 588.347 498.922, 598.347 498.922, 608.347 498.922, 618.347 498.922, 628.347 498.922, 638.347 498.922, 648.347 498.922, 658.347 498.922, 668.347 498.922, 678.347 498.922, 688.347 498.922, 698.347 498.922, 708.347 498.922, 717.977 " />
            <path fill="none" stroke-width="1.5" stroke-linecap="round" stroke-opacity="1.0" stroke="rgb(0, 0, 0)" stroke-linejoin="round" d=" M 627.305, 704.899 617.305, 704.899 607.305, 704.899 597.305, 704.899 587.305, 704.899 577.305, 704.899 574.189, 704.899 " />
        </g>
    </g>
    <g id="ViewLayer_TechnicalLines.002" inkscape:groupmode="lineset" inkscape:label="ViewLayer_TechnicalLines.002">
        <g inkscape:groupmode="layer" id="strokes" inkscape:label="strokes">
            <path fill="none" stroke-width="1.5" stroke-linecap="round" stroke-opacity="1.0" stroke="rgb(0, 0, 0)" stroke-linejoin="round" d=" M 518.539, 423.724 518.539, 413.724 518.539, 403.724 518.539, 393.724 518.539, 383.724 518.539, 373.724 518.539, 363.724 518.539, 353.724 518.539, 343.724 518.539, 333.724 518.539, 323.724 518.539, 313.724 518.539, 303.724 518.539, 293.724 518.539, 283.724 518.539, 273.724 518.539, 263.724 518.539, 253.724 518.539, 243.724 518.539, 233.724 518.539, 227.556 518.539, 227.556 508.539, 227.556 505.461, 227.556 505.461, 237.556 505.461, 247.556 505.461, 257.556 505.461, 267.556 505.461, 277.556 505.461, 287.556 505.461, 297.556 505.461, 307.556 505.461, 317.556 505.461, 327.556 505.461, 337.556 505.461, 347.556 505.461, 357.556 505.461, 367.556 505.461, 377.556 505.461, 387.556 505.461, 397.556 505.461, 407.556 505.461, 417.556 505.461, 423.724 515.461, 423.724 518.539, 423.724 518.539, 423.724 " />
            <path fill="none" stroke-width="1.5" stroke-linecap="round" stroke-opacity="1.0" stroke="rgb(0, 0, 0)" stroke-linejoin="round" d=" M 518.539, 227.556 518.539, 237.556 518.539, 247.556 518.539, 257.556 518.539, 267.556 518.539, 277.556 518.539, 287.556 518.539, 297.556 518.539, 307.556 518.539, 317.556 518.539, 327.556 518.539, 337.556 518.539, 347.556 518.539, 357.556 518.539, 367.556 518.539, 377.556 518.539, 387.556 518.539, 397.556 518.539, 407.556 518.539, 417.556 518.539, 423.724 " />
            <path fill="none" stroke-width="1.5" stroke-linecap="round" stroke-opacity="1.0" stroke="rgb(0, 0, 0)" stroke-linejoin="round" d=" M 525.078, 528.347 535.078, 528.347 545.078, 528.347 555.078, 528.347 565.078, 528.347 575.078, 528.347 577.390, 528.347 577.390, 528.347 577.390, 518.347 577.390, 515.270 567.390, 515.270 557.390, 515.270 547.390, 515.270 537.390, 515.270 527.390, 515.270 517.390, 515.270 507.390, 515.270 497.390, 515.270 487.390, 515.270 477.390, 515.270 467.390, 515.270 457.390, 515.270 446.611, 515.270 446.611, 525.270 446.611, 528.347 446.611, 528.347 456.611, 528.347 466.611, 528.347 476.611, 528.347 486.611, 528.347 496.611, 528.347 498.922, 528.347 " />
            <path fill="none" stroke-width="1.5" stroke-linecap="round" stroke-opacity="1.0" stroke="rgb(0, 0, 0)" stroke-linejoin="round" d=" M 446.611, 528.347 456.611, 528.347 466.611, 528.347 476.611, 528.347 486.611, 528.347 496.611, 528.347 498.922, 528.347 508.922, 528.347 518.922, 528.347 525.078, 528.347 535.078, 528.347 545.078, 528.347 555.078, 528.347 565.078, 528.347 575.078, 528.347 577.390, 528.347 " />
            <path fill="none" stroke-width="1.5" stroke-linecap="round" stroke-opacity="1.0" stroke="rgb(0, 0, 0)" stroke-linejoin="round" d=" M 525.078, 783.367 525.078, 783.367 525.078, 773.367 525.078, 763.367 525.078, 753.367 525.078, 743.367 525.078, 733.367 525.078, 723.367 525.078, 713.367 525.078, 703.367 525.078, 693.367 525.078, 683.367 525.078, 673.367 525.078, 663.367 525.078, 653.367 525.078, 643.367 525.078, 633.367 525.078, 623.367 525.078, 613.367 525.078, 603.367 525.078, 593.367 525.078, 583.367 525.078, 573.367 525.078, 563.367 525.078, 553.367 525.078, 543.367 525.078, 533.367 525.078, 528.347 525.078, 528.347 " />
            <path fill="none" stroke-width="1.5" stroke-linecap="round" stroke-opacity="1.0" stroke="rgb(0, 0, 0)" stroke-linejoin="round" d=" M 498.922, 717.977 498.922, 727.977 498.922, 737.977 498.922, 747.977 498.922, 757.977 498.922, 767.977 498.922, 777.977 498.922, 783.367 498.922, 783.367 " />
            <path fill="none" stroke-width="1.5" stroke-linecap="round" stroke-opacity="1.0" stroke="rgb(0, 0, 0)" stroke-linejoin="round" d=" M 512.000, 704.899 514.551, 705.150 517.005, 705.895 519.266, 707.103 521.247, 708.730 522.874, 710.711 524.082, 712.972 524.827, 715.426 525.078, 717.977 524.827, 720.528 524.082, 722.982 522.874, 725.243 521.247, 727.225 519.266, 728.851 517.005, 730.059 514.551, 730.804 512.000, 731.055 509.449, 730.804 506.995, 730.059 504.734, 728.851 502.753, 727.225 501.126, 725.243 499.918, 722.982 499.173, 720.528 498.922, 717.977 498.922, 717.977 498.922, 717.977 499.173, 715.426 499.918, 712.972 501.126, 710.711 502.753, 708.730 504.734, 707.103 506.995, 705.895 509.449, 705.150 512.000, 704.899 512.000, 704.899 514.551, 705.150 517.005, 705.895 519.266, 707.103 521.247, 708.730 522.874, 710.711 524.082, 712.972 524.827, 715.426 525.078, 717.977 524.827, 720.528 524.082, 722.982 522.874, 725.243 521.247, 727.225 519.266, 728.851 517.005, 730.059 514.551, 730.804 512.000, 731.055 512.000, 731.055 " />
            <path fill="none" stroke-width="1.5" stroke-linecap="round" stroke-opacity="1.0" stroke="rgb(0, 0, 0)" stroke-linejoin="round" d=" M 627.305, 731.055 637.305, 731.055 647.305, 731.055 657.305, 731.055 667.305, 731.055 677.305, 731.055 687.305, 731.055 697.305, 731.055 698.567, 731.055 699.356, 730.804 700.114, 730.059 700.813, 728.851 701.425, 727.225 701.928, 725.243 702.301, 722.982 702.531, 720.528 702.609, 717.977 702.531, 715.426 702.301, 712.972 701.928, 710.711 701.425, 708.730 700.813, 707.103 700.114, 705.895 699.356, 705.150 698.567, 704.899 688.567, 704.899 678.567, 704.899 668.567, 704.899 658.567, 704.899 648.567, 704.899 638.567, 704.899 628.567, 704.899 627.305, 704.899 " />
            <path fill="none" stroke-width="1.5" stroke-linecap="round" stroke-opacity="1.0" stroke="rgb(0, 0, 0)" stroke-linejoin="round" d=" M 574.189, 731.055 584.189, 731.055 594.189, 731.055 604.189, 731.055 614.189, 731.055 624.189, 731.055 627.305, 731.055 " />
            <path fill="none" stroke-width="1.5" stroke-linecap="round" stroke-opacity="1.0" stroke="rgb(0, 0, 0)" stroke-linejoin="round" d=" M 698.567, 731.055 697.779, 730.804 697.021, 730.059 696.322, 728.851 695.710, 727.225 695.207, 725.243 694.834, 722.982 694.604, 720.528 694.526, 717.977 694.604, 715.426 694.834, 712.972 695.207, 710.711 695.710, 708.730 696.322, 707.103 697.021, 705.895 697.779, 705.150 698.567, 704.899 " />
            <path fill="none" stroke-width="1.5" stroke-linecap="round" stroke-opacity="1.0" stroke="rgb(0, 0, 0)" stroke-linejoin="round" d=" M 574.189, 704.899 573.401, 705.150 572.643, 705.895 571.944, 707.103 571.332, 708.730 570.829, 710.711 570.456, 712.972 570.226, 715.426 570.148, 717.977 570.226, 720.528 570.456, 722.982 570.829, 725.243 571.332, 727.225 571.944, 728.851 572.643, 730.059 573.401, 730.804 574.189, 731.055 " />
            <path fill="none" stroke-width="1.5" stroke-linecap="round" stroke-opacity="1.0" stroke="rgb(0, 0, 0)" stroke-linejoin="round" d=" M 574.189, 704.899 564.189, 704.899 554.189, 704.899 550.435, 704.899 548.371, 705.150 546.386, 705.895 544.557, 707.103 542.954, 708.730 541.638, 710.711 540.660, 712.972 540.058, 715.426 539.855, 717.977 540.058, 720.528 540.660, 722.982 541.638, 725.243 542.954, 727.225 544.557, 728.851 546.386, 730.059 548.371, 730.804 550.435, 731.055 560.435, 731.055 570.435, 731.055 574.189, 731.055 " />
            <path fill="none" stroke-width="1.5" stroke-linecap="round" stroke-opacity="1.0" stroke="rgb(0, 0, 0)" stroke-linejoin="round" d=" M 550.435, 704.899 552.499, 705.150 554.484, 705.895 556.313, 707.103 557.916, 708.730 559.232, 710.711 560.210, 712.972 560.812, 715.426 561.015, 717.977 560.812, 720.528 560.210, 722.982 559.232, 725.243 557.916, 727.225 556.313, 728.851 554.484, 730.059 552.499, 730.804 550.435, 731.055 " />
            <path fill="none" stroke-width="1.5" stroke-linecap="round" stroke-opacity="1.0" stroke="rgb(0, 0, 0)" stroke-linejoin="round" d=" M 473.565, 731.055 471.501, 730.804 469.516, 730.059 467.687, 728.851 466.084, 727.225 464.768, 725.243 463.790, 722.982 463.188, 720.528 462.985, 717.977 463.188, 715.426 463.790, 712.972 464.768, 710.711 466.084, 708.730 467.687, 707.103 469.516, 705.895 471.501, 705.150 473.565, 704.899 475.629, 705.150 477.614, 705.895 479.443, 707.103 481.046, 708.730 482.362, 710.711 483.340, 712.972 483.942, 715.426 484.145, 717.977 483.942, 720.528 483.340, 722.982 482.362, 725.243 481.046, 727.225 479.443, 728.851 477.614, 730.059 475.629, 730.804 473.565, 731.055 " />
            <path fill="none" stroke-width="1.5" stroke-linecap="round" stroke-opacity="1.0" stroke="rgb(0, 0, 0)" stroke-linejoin="round" d=" M 473.565, 704.899 463.565, 704.899 453.565, 704.899 449.811, 704.899 " />
            <path fill="none" stroke-width="1.5" stroke-linecap="round" stroke-opacity="1.0" stroke="rgb(0, 0, 0)" stroke-linejoin="round" d=" M 325.433, 704.899 326.221, 705.150 326.979, 705.895 327.678, 707.103 328.290, 708.730 328.793, 710.711 329.166, 712.972 329.396, 715.426 329.474, 717.977 329.396, 720.528 329.166, 722.982 328.793, 725.243 328.290, 727.225 327.678, 728.851 326.979, 730.059 326.221, 730.804 325.433, 731.055 324.644, 730.804 323.886, 730.059 323.187, 728.851 322.575, 727.225 322.072, 725.243 321.699, 722.982 321.469, 720.528 321.391, 717.977 321.469, 715.426 321.699, 712.972 322.072, 710.711 322.575, 708.730 323.187, 707.103 323.886, 705.895 324.644, 705.150 325.433, 704.899 335.433, 704.899 345.433, 704.899 355.433, 704.899 365.433, 704.899 375.433, 704.899 385.433, 704.899 395.433, 704.899 405.433, 704.899 415.433, 704.899 425.433, 704.899 435.433, 704.899 445.433, 704.899 449.811, 704.899 " />
            <path fill="none" stroke-width="1.5" stroke-linecap="round" stroke-opacity="1.0" stroke="rgb(0, 0, 0)" stroke-linejoin="round" d=" M 325.433, 731.055 335.433, 731.055 345.433, 731.055 355.433, 731.055 365.433, 731.055 375.433, 731.055 385.433, 731.055 395.433, 731.055 405.433, 731.055 415.433, 731.055 425.433, 731.055 435.433, 731.055 445.433, 731.055 449.811, 731.055 450.599, 730.804 451.357, 730.059 452.056, 728.851 452.669, 727.225 453.171, 725.243 453.545, 722.982 453.775, 720.528 453.852, 717.977 453.775, 715.426 453.545, 712.972 453.171, 710.711 452.669, 708.730 452.056, 707.103 451.357, 705.895 450.599, 705.150 449.811, 704.899 " />
            <path fill="none" stroke-width="1.5" stroke-linecap="round" stroke-opacity="1.0" stroke="rgb(0, 0, 0)" stroke-linejoin="round" d=" M 525.078, 783.367 524.827, 780.815 524.082, 778.362 522.874, 776.101 521.247, 774.119 519.266, 772.493 517.005, 771.284 514.551, 770.540 512.000, 770.289 509.449, 770.540 506.995, 771.284 504.734, 772.493 502.753, 774.119 501.126, 776.101 499.918, 778.362 499.173, 780.815 498.922, 783.367 " />
            <path fill="none" stroke-width="1.5" stroke-linecap="round" stroke-opacity="1.0" stroke="rgb(0, 0, 0)" stroke-linejoin="round" d=" M 498.922, 783.367 499.173, 785.918 499.918, 788.371 501.126, 790.632 502.753, 792.614 504.734, 794.240 506.995, 795.449 509.449, 796.193 512.000, 796.444 514.551, 796.193 517.005, 795.449 519.266, 794.240 521.247, 792.614 522.874, 790.632 524.082, 788.371 524.827, 785.918 525.078, 783.367 " />
            <path fill="none" stroke-width="1.5" stroke-linecap="round" stroke-opacity="1.0" stroke="rgb(0, 0, 0)" stroke-linejoin="round" d=" M 645.626, 792.614 647.252, 790.632 648.461, 788.371 649.205, 785.918 649.456, 783.367 649.205, 780.815 648.461, 778.362 647.252, 776.101 645.626, 774.119 643.644, 772.493 641.383, 771.284 638.930, 770.540 636.378, 770.289 633.827, 770.540 631.374, 771.284 629.113, 772.493 627.131, 774.119 625.504, 776.101 624.296, 778.362 623.552, 780.815 623.300, 783.367 623.552, 785.918 624.296, 788.371 625.504, 790.632 627.131, 792.614 629.113, 794.240 631.374, 795.449 633.827, 796.193 636.378, 796.444 638.930, 796.193 641.383, 795.449 643.644, 794.240 645.626, 792.614 " />
            <path fill="none" stroke-width="1.5" stroke-linecap="round" stroke-opacity="1.0" stroke="rgb(0, 0, 0)" stroke-linejoin="round" d=" M 601.948, 783.367 601.697, 780.815 600.952, 778.362 599.744, 776.101 598.118, 774.119 596.136, 772.493 593.875, 771.284 591.421, 770.540 588.870, 770.289 586.319, 770.540 583.865, 771.284 581.604, 772.493 579.623, 774.119 577.996, 776.101 576.788, 778.362 576.043, 780.815 575.792, 783.367 576.043, 785.918 576.788, 788.371 577.996, 790.632 579.623, 792.614 581.604, 794.240 583.865, 795.449 586.319, 796.193 588.870, 796.444 591.421, 796.193 593.875, 795.449 596.136, 794.240 598.117, 792.614 599.744, 790.632 600.952, 788.371 601.697, 785.918 601.948, 783.367 " />
            <path fill="none" stroke-width="1.5" stroke-linecap="round" stroke-opacity="1.0" stroke="rgb(0, 0, 0)" stroke-linejoin="round" d=" M 444.378, 792.614 446.004, 790.632 447.212, 788.371 447.957, 785.918 448.208, 783.367 447.957, 780.815 447.212, 778.362 446.004, 776.101 444.378, 774.119 442.396, 772.493 440.135, 771.284 437.681, 770.540 435.130, 770.289 432.579, 770.540 430.125, 771.284 427.864, 772.493 425.883, 774.119 424.256, 776.101 423.048, 778.362 422.303, 780.815 422.052, 783.367 422.303, 785.918 423.048, 788.371 424.256, 790.632 425.883, 792.614 427.864, 794.240 430.125, 795.449 432.579, 796.193 435.130, 796.444 437.681, 796.193 440.135, 795.449 442.396, 794.240 444.378, 792.614 " />
            <path fill="none" stroke-width="1.5" stroke-linecap="round" stroke-opacity="1.0" stroke="rgb(0, 0, 0)" stroke-linejoin="round" d=" M 398.496, 790.632 399.704, 788.371 400.448, 785.918 400.700, 783.367 400.448, 780.815 399.704, 778.362 398.496, 776.101 396.869, 774.119 394.887, 772.493 392.626, 771.284 390.173, 770.540 387.622, 770.289 385.070, 770.540 382.617, 771.284 380.356, 772.493 378.374, 774.119 376.748, 776.101 375.539, 778.362 374.795, 780.815 374.544, 783.367 374.795, 785.918 375.539, 788.371 376.748, 790.632 378.374, 792.614 380.356, 794.240 382.617, 795.449 385.070, 796.193 387.622, 796.444 390.173, 796.193 392.626, 795.449 394.887, 794.240 396.869, 792.614 398.496, 790.632 " />
            <path fill="none" stroke-width="1.5" stroke-linecap="round" stroke-opacity="1.0" stroke="rgb(0, 0, 0)" stroke-linejoin="round" d=" M 498.922, 528.347 498.922, 528.347 498.922, 538.347 498.922, 548.347 498.922, 558.347 498.922, 568.347 498.922, 578.347 498.922, 588.347 498.922, 598.347 498.922, 608.347 498.922, 618.347 498.922, 628.347 498.922, 638.347 498.922, 648.347 498.922, 658.347 498.922, 668.347 498.922, 678.347 498.922, 688.347 498.922, 698.347 498.922, 708.347 498.922, 717.977 " />
            <path fill="none" stroke-width="1.5" stroke-linecap="round" stroke-opacity="1.0" stroke="rgb(0, 0, 0)" stroke-linejoin="round" d=" M 627.305, 704.899 617.305, 704.899 607.305, 704.899 597.305, 704.899 587.305, 704.899 577.305, 704.899 574.189, 704.899 " />
        </g>
    </g>
    <g id="ViewLayer_TechnicalLines.003" inkscape:groupmode="lineset" inkscape:label="ViewLayer_TechnicalLines.003">
        <g inkscape:groupmode="layer" id="strokes" inkscape:label="strokes">
            <path fill="none" stroke-width="1.5" stroke-linecap="round" stroke-opacity="1.0" stroke="rgb(0, 0, 0)" stroke-linejoin="round" d=" M 518.539, 423.724 518.539, 413.724 518.539, 403.724 518.539, 393.724 518.539, 383.724 518.539, 373.724 518.539, 363.724 518.539, 353.724 518.539, 343.724 518.539, 333.724 518.539, 323.724 518.539, 313.724 518.539, 303.724 518.539, 293.724 518.539, 283.724 518.539, 273.724 518.539, 263.724 518.539, 253.724 518.539, 243.724 518.539, 233.724 518.539, 227.556 518.539, 227.556 508.539, 227.556 505.461, 227.556 505.461, 237.556 505.461, 247.556 505.461, 257.556 505.461, 267.556 505.461, 277.556 505.461, 287.556 505.461, 297.556 505.461, 307.556 505.461, 317.556 505.461, 327.556 505.461, 337.556 505.461, 347.556 505.461, 357.556 505.461, 367.556 505.461, 377.556 505.461, 387.556 505.461, 397.556 505.461, 407.556 505.461, 417.556 505.461, 423.724 515.461, 423.724 518.539, 423.724 518.539, 423.724 " />
            <path fill="none" stroke-width="1.5" stroke-linecap="round" stroke-opacity="1.0" stroke="rgb(0, 0, 0)" stroke-linejoin="round" d=" M 518.539, 227.556 518.539, 237.556 518.539, 247.556 518.539, 257.556 518.539, 267.556 518.539, 277.556 518.539, 287.556 518.539, 297.556 518.539, 307.556 518.539, 317.556 518.539, 327.556 518.539, 337.556 518.539, 347.556 518.539, 357.556 518.539, 367.556 518.539, 377.556 518.539, 387.556 518.539, 397.556 518.539, 407.556 518.539, 417.556 518.539, 423.724 " />
            <path fill="none" stroke-width="1.5" stroke-linecap="round" stroke-opacity="1.0" stroke="rgb(0, 0, 0)" stroke-linejoin="round" d=" M 525.078, 528.347 535.078, 528.347 545.078, 528.347 555.078, 528.347 565.078, 528.347 575.078, 528.347 577.390, 528.347 577.390, 528.347 577.390, 518.347 577.390, 515.270 567.390, 515.270 557.390, 515.270 547.390, 515.270 537.390, 515.270 527.390, 515.270 517.390, 515.270 507.390, 515.270 497.390, 515.270 487.390, 515.270 477.390, 515.270 467.390, 515.270 457.390, 515.270 446.611, 515.270 446.611, 525.270 446.611, 528.347 446.611, 528.347 456.611, 528.347 466.611, 528.347 476.611, 528.347 486.611, 528.347 496.611, 528.347 498.922, 528.347 " />
            <path fill="none" stroke-width="1.5" stroke-linecap="round" stroke-opacity="1.0" stroke="rgb(0, 0, 0)" stroke-linejoin="round" d=" M 446.611, 528.347 456.611, 528.347 466.611, 528.347 476.611, 528.347 486.611, 528.347 496.611, 528.347 498.922, 528.347 508.922, 528.347 518.922, 528.347 525.078, 528.347 535.078, 528.347 545.078, 528.347 555.078, 528.347 565.078, 528.347 575.078, 528.347 577.390, 528.347 " />
            <path fill="none" stroke-width="1.5" stroke-linecap="round" stroke-opacity="1.0" stroke="rgb(0, 0, 0)" stroke-linejoin="round" d=" M 525.078, 783.367 525.078, 783.367 525.078, 773.367 525.078, 763.367 525.078, 753.367 525.078, 743.367 525.078, 733.367 525.078, 723.367 525.078, 713.367 525.078, 703.367 525.078, 693.367 525.078, 683.367 525.078, 673.367 525.078, 663.367 525.078, 653.367 525.078, 643.367 525.078, 633.367 525.078, 623.367 525.078, 613.367 525.078, 603.367 525.078, 593.367 525.078, 583.367 525.078, 573.367 525.078, 563.367 525.078, 553.367 525.078, 543.367 525.078, 533.367 525.078, 528.347 525.078, 528.347 " />
            <path fill="none" stroke-width="1.5" stroke-linecap="round" stroke-opacity="1.0" stroke="rgb(0, 0, 0)" stroke-linejoin="round" d=" M 498.922, 717.977 498.922, 727.977 498.922, 737.977 498.922, 747.977 498.922, 757.977 498.922, 767.977 498.922, 777.977 498.922, 783.367 498.922, 783.367 " />
            <path fill="none" stroke-width="1.5" stroke-linecap="round" stroke-opacity="1.0" stroke="rgb(0, 0, 0)" stroke-linejoin="round" d=" M 512.000, 704.899 514.551, 705.150 517.005, 705.895 519.266, 707.103 521.247, 708.730 522.874, 710.711 524.082, 712.972 524.827, 715.426 525.078, 717.977 524.827, 720.528 524.082, 722.982 522.874, 725.243 521.247, 727.225 519.266, 728.851 517.005, 730.059 514.551, 730.804 512.000, 731.055 509.449, 730.804 506.995, 730.059 504.734, 728.851 502.753, 727.225 501.126, 725.243 499.918, 722.982 499.173, 720.528 498.922, 717.977 498.922, 717.977 498.922, 717.977 499.173, 715.426 499.918, 712.972 501.126, 710.711 502.753, 708.730 504.734, 707.103 506.995, 705.895 509.449, 705.150 512.000, 704.899 512.000, 704.899 514.551, 705.150 517.005, 705.895 519.266, 707.103 521.247, 708.730 522.874, 710.711 524.082, 712.972 524.827, 715.426 525.078, 717.977 524.827, 720.528 524.082, 722.982 522.874, 725.243 521.247, 727.225 519.266, 728.851 517.005, 730.059 514.551, 730.804 512.000, 731.055 512.000, 731.055 " />
            <path fill="none" stroke-width="1.5" stroke-linecap="round" stroke-opacity="1.0" stroke="rgb(0, 0, 0)" stroke-linejoin="round" d=" M 627.305, 731.055 637.305, 731.055 647.305, 731.055 657.305, 731.055 667.305, 731.055 677.305, 731.055 687.305, 731.055 697.305, 731.055 698.567, 731.055 699.356, 730.804 700.114, 730.059 700.813, 728.851 701.425, 727.225 701.928, 725.243 702.301, 722.982 702.531, 720.528 702.609, 717.977 702.531, 715.426 702.301, 712.972 701.928, 710.711 701.425, 708.730 700.813, 707.103 700.114, 705.895 699.356, 705.150 698.567, 704.899 688.567, 704.899 678.567, 704.899 668.567, 704.899 658.567, 704.899 648.567, 704.899 638.567, 704.899 628.567, 704.899 627.305, 704.899 " />
            <path fill="none" stroke-width="1.5" stroke-linecap="round" stroke-opacity="1.0" stroke="rgb(0, 0, 0)" stroke-linejoin="round" d=" M 574.189, 731.055 584.189, 731.055 594.189, 731.055 604.189, 731.055 614.189, 731.055 624.189, 731.055 627.305, 731.055 " />
            <path fill="none" stroke-width="1.5" stroke-linecap="round" stroke-opacity="1.0" stroke="rgb(0, 0, 0)" stroke-linejoin="round" d=" M 698.567, 731.055 697.779, 730.804 697.021, 730.059 696.322, 728.851 695.710, 727.225 695.207, 725.243 694.834, 722.982 694.604, 720.528 694.526, 717.977 694.604, 715.426 694.834, 712.972 695.207, 710.711 695.710, 708.730 696.322, 707.103 697.021, 705.895 697.779, 705.150 698.567, 704.899 " />
            <path fill="none" stroke-width="1.5" stroke-linecap="round" stroke-opacity="1.0" stroke="rgb(0, 0, 0)" stroke-linejoin="round" d=" M 574.189, 704.899 573.401, 705.150 572.643, 705.895 571.944, 707.103 571.332, 708.730 570.829, 710.711 570.456, 712.972 570.226, 715.426 570.148, 717.977 570.226, 720.528 570.456, 722.982 570.829, 725.243 571.332, 727.225 571.944, 728.851 572.643, 730.059 573.401, 730.804 574.189, 731.055 " />
            <path fill="none" stroke-width="1.5" stroke-linecap="round" stroke-opacity="1.0" stroke="rgb(0, 0, 0)" stroke-linejoin="round" d=" M 574.189, 704.899 564.189, 704.899 554.189, 704.899 550.435, 704.899 548.371, 705.150 546.386, 705.895 544.557, 707.103 542.954, 708.730 541.638, 710.711 540.660, 712.972 540.058, 715.426 539.855, 717.977 540.058, 720.528 540.660, 722.982 541.638, 725.243 542.954, 727.225 544.557, 728.851 546.386, 730.059 548.371, 730.804 550.435, 731.055 560.435, 731.055 570.435, 731.055 574.189, 731.055 " />
            <path fill="none" stroke-width="1.5" stroke-linecap="round" stroke-opacity="1.0" stroke="rgb(0, 0, 0)" stroke-linejoin="round" d=" M 550.435, 704.899 552.499, 705.150 554.484, 705.895 556.313, 707.103 557.916, 708.730 559.232, 710.711 560.210, 712.972 560.812, 715.426 561.015, 717.977 560.812, 720.528 560.210, 722.982 559.232, 725.243 557.916, 727.225 556.313, 728.851 554.484, 730.059 552.499, 730.804 550.435, 731.055 " />
            <path fill="none" stroke-width="1.5" stroke-linecap="round" stroke-opacity="1.0" stroke="rgb(0, 0, 0)" stroke-linejoin="round" d=" M 473.565, 731.055 471.501, 730.804 469.516, 730.059 467.687, 728.851 466.084, 727.225 464.768, 725.243 463.790, 722.982 463.188, 720.528 462.985, 717.977 463.188, 715.426 463.790, 712.972 464.768, 710.711 466.084, 708.730 467.687, 707.103 469.516, 705.895 471.501, 705.150 473.565, 704.899 475.629, 705.150 477.614, 705.895 479.443, 707.103 481.046, 708.730 482.362, 710.711 483.340, 712.972 483.942, 715.426 484.145, 717.977 483.942, 720.528 483.340, 722.982 482.362, 725.243 481.046, 727.225 479.443, 728.851 477.614, 730.059 475.629, 730.804 473.565, 731.055 " />
            <path fill="none" stroke-width="1.5" stroke-linecap="round" stroke-opacity="1.0" stroke="rgb(0, 0, 0)" stroke-linejoin="round" d=" M 473.565, 704.899 463.565, 704.899 453.565, 704.899 449.811, 704.899 " />
            <path fill="none" stroke-width="1.5" stroke-linecap="round" stroke-opacity="1.0" stroke="rgb(0, 0, 0)" stroke-linejoin="round" d=" M 325.433, 704.899 326.221, 705.150 326.979, 705.895 327.678, 707.103 328.290, 708.730 328.793, 710.711 329.166, 712.972 329.396, 715.426 329.474, 717.977 329.396, 720.528 329.166, 722.982 328.793, 725.243 328.290, 727.225 327.678, 728.851 326.979, 730.059 326.221, 730.804 325.433, 731.055 324.644, 730.804 323.886, 730.059 323.187, 728.851 322.575, 727.225 322.072, 725.243 321.699, 722.982 321.469, 720.528 321.391, 717.977 321.469, 715.426 321.699, 712.972 322.072, 710.711 322.575, 708.730 323.187, 707.103 323.886, 705.895 324.644, 705.150 325.433, 704.899 335.433, 704.899 345.433, 704.899 355.433, 704.899 365.433, 704.899 375.433, 704.899 385.433, 704.899 395.433, 704.899 405.433, 704.899 415.433, 704.899 425.433, 704.899 435.433, 704.899 445.433, 704.899 449.811, 704.899 " />
            <path fill="none" stroke-width="1.5" stroke-linecap="round" stroke-opacity="1.0" stroke="rgb(0, 0, 0)" stroke-linejoin="round" d=" M 325.433, 731.055 335.433, 731.055 345.433, 731.055 355.433, 731.055 365.433, 731.055 375.433, 731.055 385.433, 731.055 395.433, 731.055 405.433, 731.055 415.433, 731.055 425.433, 731.055 435.433, 731.055 445.433, 731.055 449.811, 731.055 450.599, 730.804 451.357, 730.059 452.056, 728.851 452.669, 727.225 453.171, 725.243 453.545, 722.982 453.775, 720.528 453.852, 717.977 453.775, 715.426 453.545, 712.972 453.171, 710.711 452.669, 708.730 452.056, 707.103 451.357, 705.895 450.599, 705.150 449.811, 704.899 " />
            <path fill="none" stroke-width="1.5" stroke-linecap="round" stroke-opacity="1.0" stroke="rgb(0, 0, 0)" stroke-linejoin="round" d=" M 525.078, 783.367 524.827, 780.815 524.082, 778.362 522.874, 776.101 521.247, 774.119 519.266, 772.493 517.005, 771.284 514.551, 770.540 512.000, 770.289 509.449, 770.540 506.995, 771.284 504.734, 772.493 502.753, 774.119 501.126, 776.101 499.918, 778.362 499.173, 780.815 498.922, 783.367 " />
            <path fill="none" stroke-width="1.5" stroke-linecap="round" stroke-opacity="1.0" stroke="rgb(0, 0, 0)" stroke-linejoin="round" d=" M 498.922, 783.367 499.173, 785.918 499.918, 788.371 501.126, 790.632 502.753, 792.614 504.734, 794.240 506.995, 795.449 509.449, 796.193 512.000, 796.444 514.551, 796.193 517.005, 795.449 519.266, 794.240 521.247, 792.614 522.874, 790.632 524.082, 788.371 524.827, 785.918 525.078, 783.367 " />
            <path fill="none" stroke-width="1.5" stroke-linecap="round" stroke-opacity="1.0" stroke="rgb(0, 0, 0)" stroke-linejoin="round" d=" M 645.626, 792.614 647.252, 790.632 648.461, 788.371 649.205, 785.918 649.456, 783.367 649.205, 780.815 648.461, 778.362 647.252, 776.101 645.626, 774.119 643.644, 772.493 641.383, 771.284 638.930, 770.540 636.378, 770.289 633.827, 770.540 631.374, 771.284 629.113, 772.493 627.131, 774.119 625.504, 776.101 624.296, 778.362 623.552, 780.815 623.300, 783.367 623.552, 785.918 624.296, 788.371 625.504, 790.632 627.131, 792.614 629.113, 794.240 631.374, 795.449 633.827, 796.193 636.378, 796.444 638.930, 796.193 641.383, 795.449 643.644, 794.240 645.626, 792.614 " />
            <path fill="none" stroke-width="1.5" stroke-linecap="round" stroke-opacity="1.0" stroke="rgb(0, 0, 0)" stroke-linejoin="round" d=" M 601.948, 783.367 601.697, 780.815 600.952, 778.362 599.744, 776.101 598.118, 774.119 596.136, 772.493 593.875, 771.284 591.421, 770.540 588.870, 770.289 586.319, 770.540 583.865, 771.284 581.604, 772.493 579.623, 774.119 577.996, 776.101 576.788, 778.362 576.043, 780.815 575.792, 783.367 576.043, 785.918 576.788, 788.371 577.996, 790.632 579.623, 792.614 581.604, 794.240 583.865, 795.449 586.319, 796.193 588.870, 796.444 591.421, 796.193 593.875, 795.449 596.136, 794.240 598.117, 792.614 599.744, 790.632 600.952, 788.371 601.697, 785.918 601.948, 783.367 " />
            <path fill="none" stroke-width="1.5" stroke-linecap="round" stroke-opacity="1.0" stroke="rgb(0, 0, 0)" stroke-linejoin="round" d=" M 444.378, 792.614 446.004, 790.632 447.212, 788.371 447.957, 785.918 448.208, 783.367 447.957, 780.815 447.212, 778.362 446.004, 776.101 444.378, 774.119 442.396, 772.493 440.135, 771.284 437.681, 770.540 435.130, 770.289 432.579, 770.540 430.125, 771.284 427.864, 772.493 425.883, 774.119 424.256, 776.101 423.048, 778.362 422.303, 780.815 422.052, 783.367 422.303, 785.918 423.048, 788.371 424.256, 790.632 425.883, 792.614 427.864, 794.240 430.125, 795.449 432.579, 796.193 435.130, 796.444 437.681, 796.193 440.135, 795.449 442.396, 794.240 444.378, 792.614 " />
            <path fill="none" stroke-width="1.5" stroke-linecap="round" stroke-opacity="1.0" stroke="rgb(0, 0, 0)" stroke-linejoin="round" d=" M 398.496, 790.632 399.704, 788.371 400.448, 785.918 400.700, 783.367 400.448, 780.815 399.704, 778.362 398.496, 776.101 396.869, 774.119 394.887, 772.493 392.626, 771.284 390.173, 770.540 387.622, 770.289 385.070, 770.540 382.617, 771.284 380.356, 772.493 378.374, 774.119 376.748, 776.101 375.539, 778.362 374.795, 780.815 374.544, 783.367 374.795, 785.918 375.539, 788.371 376.748, 790.632 378.374, 792.614 380.356, 794.240 382.617, 795.449 385.070, 796.193 387.622, 796.444 390.173, 796.193 392.626, 795.449 394.887, 794.240 396.869, 792.614 398.496, 790.632 " />
            <path fill="none" stroke-width="1.5" stroke-linecap="round" stroke-opacity="1.0" stroke="rgb(0, 0, 0)" stroke-linejoin="round" d=" M 498.922, 528.347 498.922, 528.347 498.922, 538.347 498.922, 548.347 498.922, 558.347 498.922, 568.347 498.922, 578.347 498.922, 588.347 498.922, 598.347 498.922, 608.347 498.922, 618.347 498.922, 628.347 498.922, 638.347 498.922, 648.347 498.922, 658.347 498.922, 668.347 498.922, 678.347 498.922, 688.347 498.922, 698.347 498.922, 708.347 498.922, 717.977 " />
            <path fill="none" stroke-width="1.5" stroke-linecap="round" stroke-opacity="1.0" stroke="rgb(0, 0, 0)" stroke-linejoin="round" d=" M 627.305, 704.899 617.305, 704.899 607.305, 704.899 597.305, 704.899 587.305, 704.899 577.305, 704.899 574.189, 704.899 " />
        </g>
    </g>
    <g id="ViewLayer_TechnicalLines.004" xmlns:inkscape="http://www.inkscape.org/namespaces/inkscape" inkscape:groupmode="lineset" inkscape:label="ViewLayer_TechnicalLines.004">
        <g xmlns:inkscape="http://www.inkscape.org/namespaces/inkscape" inkscape:groupmode="layer" id="strokes" inkscape:label="strokes">
            <path fill="none" stroke-width="1.5" stroke-linecap="round" stroke-opacity="1.0" stroke="rgb(0, 0, 0)" stroke-linejoin="round" d=" M 518.539, 423.724 518.539, 413.724 518.539, 403.724 518.539, 393.724 518.539, 383.724 518.539, 373.724 518.539, 363.724 518.539, 353.724 518.539, 343.724 518.539, 333.724 518.539, 323.724 518.539, 313.724 518.539, 303.724 518.539, 293.724 518.539, 283.724 518.539, 273.724 518.539, 263.724 518.539, 253.724 518.539, 243.724 518.539, 233.724 518.539, 227.556 518.539, 227.556 508.539, 227.556 505.461, 227.556 505.461, 237.556 505.461, 247.556 505.461, 257.556 505.461, 267.556 505.461, 277.556 505.461, 287.556 505.461, 297.556 505.461, 307.556 505.461, 317.556 505.461, 327.556 505.461, 337.556 505.461, 347.556 505.461, 357.556 505.461, 367.556 505.461, 377.556 505.461, 387.556 505.461, 397.556 505.461, 407.556 505.461, 417.556 505.461, 423.724 515.461, 423.724 518.539, 423.724 518.539, 423.724 " />
            <path fill="none" stroke-width="1.5" stroke-linecap="round" stroke-opacity="1.0" stroke="rgb(0, 0, 0)" stroke-linejoin="round" d=" M 518.539, 227.556 518.539, 237.556 518.539, 247.556 518.539, 257.556 518.539, 267.556 518.539, 277.556 518.539, 287.556 518.539, 297.556 518.539, 307.556 518.539, 317.556 518.539, 327.556 518.539, 337.556 518.539, 347.556 518.539, 357.556 518.539, 367.556 518.539, 377.556 518.539, 387.556 518.539, 397.556 518.539, 407.556 518.539, 417.556 518.539, 423.724 " />
            <path fill="none" stroke-width="1.5" stroke-linecap="round" stroke-opacity="1.0" stroke="rgb(0, 0, 0)" stroke-linejoin="round" d=" M 525.078, 528.347 535.078, 528.347 545.078, 528.347 555.078, 528.347 565.078, 528.347 575.078, 528.347 577.390, 528.347 577.390, 528.347 577.390, 518.347 577.390, 515.270 567.390, 515.270 557.390, 515.270 547.390, 515.270 537.390, 515.270 527.390, 515.270 517.390, 515.270 507.390, 515.270 497.390, 515.270 487.390, 515.270 477.390, 515.270 467.390, 515.270 457.390, 515.270 446.611, 515.270 446.611, 525.270 446.611, 528.347 446.611, 528.347 456.611, 528.347 466.611, 528.347 476.611, 528.347 486.611, 528.347 496.611, 528.347 498.922, 528.347 " />
            <path fill="none" stroke-width="1.5" stroke-linecap="round" stroke-opacity="1.0" stroke="rgb(0, 0, 0)" stroke-linejoin="round" d=" M 446.611, 528.347 456.611, 528.347 466.611, 528.347 476.611, 528.347 486.611, 528.347 496.611, 528.347 498.922, 528.347 508.922, 528.347 518.922, 528.347 525.078, 528.347 535.078, 528.347 545.078, 528.347 555.078, 528.347 565.078, 528.347 575.078, 528.347 577.390, 528.347 " />
            <path fill="none" stroke-width="1.5" stroke-linecap="round" stroke-opacity="1.0" stroke="rgb(0, 0, 0)" stroke-linejoin="round" d=" M 525.078, 783.367 525.078, 783.367 525.078, 773.367 525.078, 763.367 525.078, 753.367 525.078, 743.367 525.078, 733.367 525.078, 723.367 525.078, 713.367 525.078, 703.367 525.078, 693.367 525.078, 683.367 525.078, 673.367 525.078, 663.367 525.078, 653.367 525.078, 643.367 525.078, 633.367 525.078, 623.367 525.078, 613.367 525.078, 603.367 525.078, 593.367 525.078, 583.367 525.078, 573.367 525.078, 563.367 525.078, 553.367 525.078, 543.367 525.078, 533.367 525.078, 528.347 525.078, 528.347 " />
            <path fill="none" stroke-width="1.5" stroke-linecap="round" stroke-opacity="1.0" stroke="rgb(0, 0, 0)" stroke-linejoin="round" d=" M 498.922, 717.977 498.922, 727.977 498.922, 737.977 498.922, 747.977 498.922, 757.977 498.922, 767.977 498.922, 777.977 498.922, 783.367 498.922, 783.367 " />
            <path fill="none" stroke-width="1.5" stroke-linecap="round" stroke-opacity="1.0" stroke="rgb(0, 0, 0)" stroke-linejoin="round" d=" M 512.000, 704.899 514.551, 705.150 517.005, 705.895 519.266, 707.103 521.247, 708.730 522.874, 710.711 524.082, 712.972 524.827, 715.426 525.078, 717.977 524.827, 720.528 524.082, 722.982 522.874, 725.243 521.247, 727.225 519.266, 728.851 517.005, 730.059 514.551, 730.804 512.000, 731.055 509.449, 730.804 506.995, 730.059 504.734, 728.851 502.753, 727.225 501.126, 725.243 499.918, 722.982 499.173, 720.528 498.922, 717.977 498.922, 717.977 498.922, 717.977 499.173, 715.426 499.918, 712.972 501.126, 710.711 502.753, 708.730 504.734, 707.103 506.995, 705.895 509.449, 705.150 512.000, 704.899 512.000, 704.899 514.551, 705.150 517.005, 705.895 519.266, 707.103 521.247, 708.730 522.874, 710.711 524.082, 712.972 524.827, 715.426 525.078, 717.977 524.827, 720.528 524.082, 722.982 522.874, 725.243 521.247, 727.225 519.266, 728.851 517.005, 730.059 514.551, 730.804 512.000, 731.055 512.000, 731.055 " />
            <path fill="none" stroke-width="1.5" stroke-linecap="round" stroke-opacity="1.0" stroke="rgb(0, 0, 0)" stroke-linejoin="round" d=" M 627.305, 731.055 637.305, 731.055 647.305, 731.055 657.305, 731.055 667.305, 731.055 677.305, 731.055 687.305, 731.055 697.305, 731.055 698.567, 731.055 699.356, 730.804 700.114, 730.059 700.813, 728.851 701.425, 727.225 701.928, 725.243 702.301, 722.982 702.531, 720.528 702.609, 717.977 702.531, 715.426 702.301, 712.972 701.928, 710.711 701.425, 708.730 700.813, 707.103 700.114, 705.895 699.356, 705.150 698.567, 704.899 688.567, 704.899 678.567, 704.899 668.567, 704.899 658.567, 704.899 648.567, 704.899 638.567, 704.899 628.567, 704.899 627.305, 704.899 " />
            <path fill="none" stroke-width="1.5" stroke-linecap="round" stroke-opacity="1.0" stroke="rgb(0, 0, 0)" stroke-linejoin="round" d=" M 574.189, 731.055 584.189, 731.055 594.189, 731.055 604.189, 731.055 614.189, 731.055 624.189, 731.055 627.305, 731.055 " />
            <path fill="none" stroke-width="1.5" stroke-linecap="round" stroke-opacity="1.0" stroke="rgb(0, 0, 0)" stroke-linejoin="round" d=" M 698.567, 731.055 697.779, 730.804 697.021, 730.059 696.322, 728.851 695.710, 727.225 695.207, 725.243 694.834, 722.982 694.604, 720.528 694.526, 717.977 694.604, 715.426 694.834, 712.972 695.207, 710.711 695.710, 708.730 696.322, 707.103 697.021, 705.895 697.779, 705.150 698.567, 704.899 " />
            <path fill="none" stroke-width="1.5" stroke-linecap="round" stroke-opacity="1.0" stroke="rgb(0, 0, 0)" stroke-linejoin="round" d=" M 574.189, 704.899 573.401, 705.150 572.643, 705.895 571.944, 707.103 571.332, 708.730 570.829, 710.711 570.456, 712.972 570.226, 715.426 570.148, 717.977 570.226, 720.528 570.456, 722.982 570.829, 725.243 571.332, 727.225 571.944, 728.851 572.643, 730.059 573.401, 730.804 574.189, 731.055 " />
            <path fill="none" stroke-width="1.5" stroke-linecap="round" stroke-opacity="1.0" stroke="rgb(0, 0, 0)" stroke-linejoin="round" d=" M 574.189, 704.899 564.189, 704.899 554.189, 704.899 550.435, 704.899 548.371, 705.150 546.386, 705.895 544.557, 707.103 542.954, 708.730 541.638, 710.711 540.660, 712.972 540.058, 715.426 539.855, 717.977 540.058, 720.528 540.660, 722.982 541.638, 725.243 542.954, 727.225 544.557, 728.851 546.386, 730.059 548.371, 730.804 550.435, 731.055 560.435, 731.055 570.435, 731.055 574.189, 731.055 " />
            <path fill="none" stroke-width="1.5" stroke-linecap="round" stroke-opacity="1.0" stroke="rgb(0, 0, 0)" stroke-linejoin="round" d=" M 550.435, 704.899 552.499, 705.150 554.484, 705.895 556.313, 707.103 557.916, 708.730 559.232, 710.711 560.210, 712.972 560.812, 715.426 561.015, 717.977 560.812, 720.528 560.210, 722.982 559.232, 725.243 557.916, 727.225 556.313, 728.851 554.484, 730.059 552.499, 730.804 550.435, 731.055 " />
            <path fill="none" stroke-width="1.5" stroke-linecap="round" stroke-opacity="1.0" stroke="rgb(0, 0, 0)" stroke-linejoin="round" d=" M 473.565, 731.055 471.501, 730.804 469.516, 730.059 467.687, 728.851 466.084, 727.225 464.768, 725.243 463.790, 722.982 463.188, 720.528 462.985, 717.977 463.188, 715.426 463.790, 712.972 464.768, 710.711 466.084, 708.730 467.687, 707.103 469.516, 705.895 471.501, 705.150 473.565, 704.899 475.629, 705.150 477.614, 705.895 479.443, 707.103 481.046, 708.730 482.362, 710.711 483.340, 712.972 483.942, 715.426 484.145, 717.977 483.942, 720.528 483.340, 722.982 482.362, 725.243 481.046, 727.225 479.443, 728.851 477.614, 730.059 475.629, 730.804 473.565, 731.055 " />
            <path fill="none" stroke-width="1.5" stroke-linecap="round" stroke-opacity="1.0" stroke="rgb(0, 0, 0)" stroke-linejoin="round" d=" M 473.565, 704.899 463.565, 704.899 453.565, 704.899 449.811, 704.899 " />
            <path fill="none" stroke-width="1.5" stroke-linecap="round" stroke-opacity="1.0" stroke="rgb(0, 0, 0)" stroke-linejoin="round" d=" M 325.433, 704.899 326.221, 705.150 326.979, 705.895 327.678, 707.103 328.290, 708.730 328.793, 710.711 329.166, 712.972 329.396, 715.426 329.474, 717.977 329.396, 720.528 329.166, 722.982 328.793, 725.243 328.290, 727.225 327.678, 728.851 326.979, 730.059 326.221, 730.804 325.433, 731.055 324.644, 730.804 323.886, 730.059 323.187, 728.851 322.575, 727.225 322.072, 725.243 321.699, 722.982 321.469, 720.528 321.391, 717.977 321.469, 715.426 321.699, 712.972 322.072, 710.711 322.575, 708.730 323.187, 707.103 323.886, 705.895 324.644, 705.150 325.433, 704.899 335.433, 704.899 345.433, 704.899 355.433, 704.899 365.433, 704.899 375.433, 704.899 385.433, 704.899 395.433, 704.899 405.433, 704.899 415.433, 704.899 425.433, 704.899 435.433, 704.899 445.433, 704.899 449.811, 704.899 " />
            <path fill="none" stroke-width="1.5" stroke-linecap="round" stroke-opacity="1.0" stroke="rgb(0, 0, 0)" stroke-linejoin="round" d=" M 325.433, 731.055 335.433, 731.055 345.433, 731.055 355.433, 731.055 365.433, 731.055 375.433, 731.055 385.433, 731.055 395.433, 731.055 405.433, 731.055 415.433, 731.055 425.433, 731.055 435.433, 731.055 445.433, 731.055 449.811, 731.055 450.599, 730.804 451.357, 730.059 452.056, 728.851 452.669, 727.225 453.171, 725.243 453.545, 722.982 453.775, 720.528 453.852, 717.977 453.775, 715.426 453.545, 712.972 453.171, 710.711 452.669, 708.730 452.056, 707.103 451.357, 705.895 450.599, 705.150 449.811, 704.899 " />
            <path fill="none" stroke-width="1.5" stroke-linecap="round" stroke-opacity="1.0" stroke="rgb(0, 0, 0)" stroke-linejoin="round" d=" M 525.078, 783.367 524.827, 780.815 524.082, 778.362 522.874, 776.101 521.247, 774.119 519.266, 772.493 517.005, 771.284 514.551, 770.540 512.000, 770.289 509.449, 770.540 506.995, 771.284 504.734, 772.493 502.753, 774.119 501.126, 776.101 499.918, 778.362 499.173, 780.815 498.922, 783.367 " />
            <path fill="none" stroke-width="1.5" stroke-linecap="round" stroke-opacity="1.0" stroke="rgb(0, 0, 0)" stroke-linejoin="round" d=" M 498.922, 783.367 499.173, 785.918 499.918, 788.371 501.126, 790.632 502.753, 792.614 504.734, 794.240 506.995, 795.449 509.449, 796.193 512.000, 796.444 514.551, 796.193 517.005, 795.449 519.266, 794.240 521.247, 792.614 522.874, 790.632 524.082, 788.371 524.827, 785.918 525.078, 783.367 " />
            <path fill="none" stroke-width="1.5" stroke-linecap="round" stroke-opacity="1.0" stroke="rgb(0, 0, 0)" stroke-linejoin="round" d=" M 645.626, 792.614 647.252, 790.632 648.461, 788.371 649.205, 785.918 649.456, 783.367 649.205, 780.815 648.461, 778.362 647.252, 776.101 645.626, 774.119 643.644, 772.493 641.383, 771.284 638.930, 770.540 636.378, 770.289 633.827, 770.540 631.374, 771.284 629.113, 772.493 627.131, 774.119 625.504, 776.101 624.296, 778.362 623.552, 780.815 623.300, 783.367 623.552, 785.918 624.296, 788.371 625.504, 790.632 627.131, 792.614 629.113, 794.240 631.374, 795.449 633.827, 796.193 636.378, 796.444 638.930, 796.193 641.383, 795.449 643.644, 794.240 645.626, 792.614 " />
            <path fill="none" stroke-width="1.5" stroke-linecap="round" stroke-opacity="1.0" stroke="rgb(0, 0, 0)" stroke-linejoin="round" d=" M 601.948, 783.367 601.697, 780.815 600.952, 778.362 599.744, 776.101 598.118, 774.119 596.136, 772.493 593.875, 771.284 591.421, 770.540 588.870, 770.289 586.319, 770.540 583.865, 771.284 581.604, 772.493 579.623, 774.119 577.996, 776.101 576.788, 778.362 576.043, 780.815 575.792, 783.367 576.043, 785.918 576.788, 788.371 577.996, 790.632 579.623, 792.614 581.604, 794.240 583.865, 795.449 586.319, 796.193 588.870, 796.444 591.421, 796.193 593.875, 795.449 596.136, 794.240 598.117, 792.614 599.744, 790.632 600.952, 788.371 601.697, 785.918 601.948, 783.367 " />
            <path fill="none" stroke-width="1.5" stroke-linecap="round" stroke-opacity="1.0" stroke="rgb(0, 0, 0)" stroke-linejoin="round" d=" M 444.378, 792.614 446.004, 790.632 447.212, 788.371 447.957, 785.918 448.208, 783.367 447.957, 780.815 447.212, 778.362 446.004, 776.101 444.378, 774.119 442.396, 772.493 440.135, 771.284 437.681, 770.540 435.130, 770.289 432.579, 770.540 430.125, 771.284 427.864, 772.493 425.883, 774.119 424.256, 776.101 423.048, 778.362 422.303, 780.815 422.052, 783.367 422.303, 785.918 423.048, 788.371 424.256, 790.632 425.883, 792.614 427.864, 794.240 430.125, 795.449 432.579, 796.193 435.130, 796.444 437.681, 796.193 440.135, 795.449 442.396, 794.240 444.378, 792.614 " />
            <path fill="none" stroke-width="1.5" stroke-linecap="round" stroke-opacity="1.0" stroke="rgb(0, 0, 0)" stroke-linejoin="round" d=" M 398.496, 790.632 399.704, 788.371 400.448, 785.918 400.700, 783.367 400.448, 780.815 399.704, 778.362 398.496, 776.101 396.869, 774.119 394.887, 772.493 392.626, 771.284 390.173, 770.540 387.622, 770.289 385.070, 770.540 382.617, 771.284 380.356, 772.493 378.374, 774.119 376.748, 776.101 375.539, 778.362 374.795, 780.815 374.544, 783.367 374.795, 785.918 375.539, 788.371 376.748, 790.632 378.374, 792.614 380.356, 794.240 382.617, 795.449 385.070, 796.193 387.622, 796.444 390.173, 796.193 392.626, 795.449 394.887, 794.240 396.869, 792.614 398.496, 790.632 " />
            <path fill="none" stroke-width="1.5" stroke-linecap="round" stroke-opacity="1.0" stroke="rgb(0, 0, 0)" stroke-linejoin="round" d=" M 498.922, 528.347 498.922, 528.347 498.922, 538.347 498.922, 548.347 498.922, 558.347 498.922, 568.347 498.922, 578.347 498.922, 588.347 498.922, 598.347 498.922, 608.347 498.922, 618.347 498.922, 628.347 498.922, 638.347 498.922, 648.347 498.922, 658.347 498.922, 668.347 498.922, 678.347 498.922, 688.347 498.922, 698.347 498.922, 708.347 498.922, 717.977 " />
            <path fill="none" stroke-width="1.5" stroke-linecap="round" stroke-opacity="1.0" stroke="rgb(0, 0, 0)" stroke-linejoin="round" d=" M 627.305, 704.899 617.305, 704.899 607.305, 704.899 597.305, 704.899 587.305, 704.899 577.305, 704.899 574.189, 704.899 " />
        </g>
    </g>
</svg>
