<?xml version='1.0' encoding='ascii'?>
<svg xmlns="http://www.w3.org/2000/svg" xmlns:inkscape="http://www.inkscape.org/namespaces/inkscape" version="1.1" width="1024" height="1024">
    <g id="ViewLayer_LineSet" inkscape:groupmode="lineset" inkscape:label="ViewLayer_LineSet">
        <g inkscape:groupmode="layer" id="strokes" inkscape:label="strokes">
            <path fill="none" stroke-width="3.0" stroke-linecap="butt" stroke-opacity="1.0" stroke="rgb(0, 0, 0)" stroke-linejoin="round" d=" M 459.015, 570.562 459.015, 570.562 459.015, 570.562 469.015, 570.562 479.015, 570.562 489.015, 570.562 499.015, 570.562 509.015, 570.562 519.015, 570.562 529.015, 570.562 539.015, 570.562 549.015, 570.562 559.015, 570.562 569.015, 570.562 570.562, 570.562 570.562, 570.562 570.562, 560.562 570.562, 559.407 570.562, 559.407 570.562, 559.407 " />
            <path fill="none" stroke-width="3.0" stroke-linecap="butt" stroke-opacity="1.0" stroke="rgb(0, 0, 0)" stroke-linejoin="round" d=" M 459.015, 570.562 469.015, 570.562 479.015, 570.562 489.015, 570.562 499.015, 570.562 509.015, 570.562 519.015, 570.562 529.015, 570.562 539.015, 570.562 549.015, 570.562 559.015, 570.562 569.015, 570.562 570.562, 570.562 " />
            <path fill="none" stroke-width="3.0" stroke-linecap="butt" stroke-opacity="1.0" stroke="rgb(0, 0, 0)" stroke-linejoin="round" d=" M 464.593, 509.211 464.593, 499.211 464.593, 489.211 464.593, 479.211 464.593, 469.211 464.593, 459.211 464.593, 453.438 464.593, 453.438 454.593, 453.438 453.438, 453.438 453.438, 463.438 453.438, 473.438 453.438, 483.438 453.438, 493.438 453.438, 503.438 453.438, 509.211 453.438, 509.211 463.438, 509.211 464.593, 509.211 " />
            <path fill="none" stroke-width="3.0" stroke-linecap="butt" stroke-opacity="1.0" stroke="rgb(0, 0, 0)" stroke-linejoin="round" d=" M 464.593, 453.438 464.593, 463.438 464.593, 473.438 464.593, 483.438 464.593, 493.438 464.593, 503.438 464.593, 509.211 " />
            <path fill="none" stroke-width="3.0" stroke-linecap="butt" stroke-opacity="1.0" stroke="rgb(0, 0, 0)" stroke-linejoin="round" d=" M 453.438, 509.211 463.438, 509.211 464.593, 509.211 464.593, 509.211 " />
            <path fill="none" stroke-width="3.0" stroke-linecap="butt" stroke-opacity="1.0" stroke="rgb(0, 0, 0)" stroke-linejoin="round" d=" M 459.015, 551.041 469.015, 551.041 479.015, 551.041 489.015, 551.041 499.015, 551.041 509.015, 551.041 519.015, 551.041 529.015, 551.041 539.015, 551.041 549.015, 551.041 559.015, 551.041 569.015, 551.041 570.562, 551.041 570.562, 541.041 570.562, 531.041 570.562, 523.155 570.562, 523.155 " />
            <path fill="none" stroke-width="3.0" stroke-linecap="butt" stroke-opacity="1.0" stroke="rgb(0, 0, 0)" stroke-linejoin="round" d=" M 459.015, 551.041 469.015, 551.041 479.015, 551.041 489.015, 551.041 499.015, 551.041 509.015, 551.041 519.015, 551.041 529.015, 551.041 539.015, 551.041 549.015, 551.041 559.015, 551.041 569.015, 551.041 570.562, 551.041 570.562, 541.041 570.562, 531.041 570.562, 523.155 " />
            <path fill="none" stroke-width="3.0" stroke-linecap="butt" stroke-opacity="1.0" stroke="rgb(0, 0, 0)" stroke-linejoin="round" d=" M 570.562, 523.155 570.562, 523.155 570.562, 523.155 " />
            <path fill="none" stroke-width="3.0" stroke-linecap="butt" stroke-opacity="1.0" stroke="rgb(0, 0, 0)" stroke-linejoin="round" d=" M 459.015, 570.562 459.015, 570.562 459.015, 570.562 469.015, 570.562 479.015, 570.562 489.015, 570.562 499.015, 570.562 509.015, 570.562 519.015, 570.562 529.015, 570.562 539.015, 570.562 549.015, 570.562 559.015, 570.562 569.015, 570.562 570.562, 570.562 570.562, 570.562 570.562, 560.562 570.562, 559.407 570.562, 559.407 570.562, 559.407 560.562, 559.407 550.562, 559.407 540.562, 559.407 530.562, 559.407 520.562, 559.407 510.562, 559.407 500.562, 559.407 490.562, 559.407 480.562, 559.407 470.562, 559.407 460.562, 559.407 459.015, 559.407 459.015, 569.407 459.015, 570.562 459.015, 570.562 " />
            <path fill="none" stroke-width="3.0" stroke-linecap="butt" stroke-opacity="1.0" stroke="rgb(0, 0, 0)" stroke-linejoin="round" d=" M 459.015, 570.562 459.015, 570.562 469.015, 570.562 479.015, 570.562 489.015, 570.562 499.015, 570.562 509.015, 570.562 519.015, 570.562 529.015, 570.562 539.015, 570.562 549.015, 570.562 559.015, 570.562 569.015, 570.562 570.562, 570.562 " />
            <path fill="none" stroke-width="3.0" stroke-linecap="butt" stroke-opacity="1.0" stroke="rgb(0, 0, 0)" stroke-linejoin="round" d=" M 459.015, 523.155 453.438, 523.155 453.438, 533.155 453.438, 543.155 453.438, 551.041 453.438, 551.041 459.015, 551.041 " />
            <path fill="none" stroke-width="3.0" stroke-linecap="butt" stroke-opacity="1.0" stroke="rgb(0, 0, 0)" stroke-linejoin="round" d=" M 453.438, 551.041 459.015, 551.041 " />
            <path fill="none" stroke-width="3.0" stroke-linecap="butt" stroke-opacity="1.0" stroke="rgb(0, 0, 0)" stroke-linejoin="round" d=" M 459.015, 551.041 469.015, 551.041 479.015, 551.041 489.015, 551.041 499.015, 551.041 509.015, 551.041 519.015, 551.041 529.015, 551.041 539.015, 551.041 549.015, 551.041 559.015, 551.041 569.015, 551.041 570.562, 551.041 570.562, 541.041 570.562, 531.041 570.562, 523.155 " />
            <path fill="none" stroke-width="3.0" stroke-linecap="butt" stroke-opacity="1.0" stroke="rgb(0, 0, 0)" stroke-linejoin="round" d=" M 570.562, 523.155 570.562, 523.155 570.562, 523.155 " />
            <path fill="none" stroke-width="3.0" stroke-linecap="butt" stroke-opacity="1.0" stroke="rgb(0, 0, 0)" stroke-linejoin="round" d=" M 459.015, 551.041 459.015, 551.041 459.015, 551.041 " />
            <path fill="none" stroke-width="3.0" stroke-linecap="butt" stroke-opacity="1.0" stroke="rgb(0, 0, 0)" stroke-linejoin="round" d=" M 570.562, 551.041 570.562, 541.041 570.562, 531.041 570.562, 523.155 " />
            <path fill="none" stroke-width="3.0" stroke-linecap="butt" stroke-opacity="1.0" stroke="rgb(0, 0, 0)" stroke-linejoin="round" d=" M 459.015, 523.155 459.015, 523.155 459.015, 533.155 459.015, 543.155 459.015, 551.041 " />
            <path fill="none" stroke-width="3.0" stroke-linecap="butt" stroke-opacity="1.0" stroke="rgb(0, 0, 0)" stroke-linejoin="round" d=" M 459.015, 551.041 459.015, 551.041 " />
            <path fill="none" stroke-width="3.0" stroke-linecap="butt" stroke-opacity="1.0" stroke="rgb(0, 0, 0)" stroke-linejoin="round" d=" M 459.015, 551.041 459.015, 551.041 " />
            <path fill="none" stroke-width="3.0" stroke-linecap="butt" stroke-opacity="1.0" stroke="rgb(0, 0, 0)" stroke-linejoin="round" d=" M 464.593, 551.041 464.593, 551.041 " />
            <path fill="none" stroke-width="3.0" stroke-linecap="butt" stroke-opacity="1.0" stroke="rgb(0, 0, 0)" stroke-linejoin="round" d=" M 464.593, 551.041 464.593, 551.041 474.593, 551.041 484.593, 551.041 494.593, 551.041 504.593, 551.041 514.593, 551.041 524.593, 551.041 534.593, 551.041 544.593, 551.041 554.593, 551.041 564.593, 551.041 570.562, 551.041 " />
            <path fill="none" stroke-width="3.0" stroke-linecap="butt" stroke-opacity="1.0" stroke="rgb(0, 0, 0)" stroke-linejoin="round" d=" M 459.015, 551.041 464.593, 551.041 " />
            <path fill="none" stroke-width="3.0" stroke-linecap="butt" stroke-opacity="1.0" stroke="rgb(0, 0, 0)" stroke-linejoin="round" d=" M 459.015, 551.041 459.015, 551.041 " />
            <path fill="none" stroke-width="3.0" stroke-linecap="butt" stroke-opacity="1.0" stroke="rgb(0, 0, 0)" stroke-linejoin="round" d=" M 459.015, 551.041 459.015, 551.041 " />
            <path fill="none" stroke-width="3.0" stroke-linecap="butt" stroke-opacity="1.0" stroke="rgb(0, 0, 0)" stroke-linejoin="round" d=" M 459.015, 551.041 459.015, 551.041 " />
            <path fill="none" stroke-width="3.0" stroke-linecap="butt" stroke-opacity="1.0" stroke="rgb(0, 0, 0)" stroke-linejoin="round" d=" M 570.562, 523.155 570.562, 523.155 " />
            <path fill="none" stroke-width="3.0" stroke-linecap="butt" stroke-opacity="1.0" stroke="rgb(0, 0, 0)" stroke-linejoin="round" d=" M 570.562, 523.155 570.562, 523.155 " />
            <path fill="none" stroke-width="3.0" stroke-linecap="butt" stroke-opacity="1.0" stroke="rgb(0, 0, 0)" stroke-linejoin="round" d=" M 570.562, 523.155 570.562, 523.155 " />
            <path fill="none" stroke-width="3.0" stroke-linecap="butt" stroke-opacity="1.0" stroke="rgb(0, 0, 0)" stroke-linejoin="round" d=" M 464.593, 523.155 459.015, 523.155 " />
            <path fill="none" stroke-width="3.0" stroke-linecap="butt" stroke-opacity="1.0" stroke="rgb(0, 0, 0)" stroke-linejoin="round" d=" M 570.562, 523.155 560.562, 523.155 550.562, 523.155 540.562, 523.155 530.562, 523.155 520.562, 523.155 510.562, 523.155 500.562, 523.155 490.562, 523.155 480.562, 523.155 470.562, 523.155 464.593, 523.155 " />
            <path fill="none" stroke-width="3.0" stroke-linecap="butt" stroke-opacity="1.0" stroke="rgb(0, 0, 0)" stroke-linejoin="round" d=" M 459.015, 551.041 459.015, 551.041 " />
            <path fill="none" stroke-width="3.0" stroke-linecap="butt" stroke-opacity="1.0" stroke="rgb(0, 0, 0)" stroke-linejoin="round" d=" M 570.562, 523.155 570.562, 523.155 " />
            <path fill="none" stroke-width="3.0" stroke-linecap="butt" stroke-opacity="1.0" stroke="rgb(0, 0, 0)" stroke-linejoin="round" d=" M 459.015, 551.041 459.015, 551.041 " />
        </g>
    </g>
    <g id="ViewLayer_TechnicalLines" inkscape:groupmode="lineset" inkscape:label="ViewLayer_TechnicalLines">
        <g inkscape:groupmode="layer" id="strokes" inkscape:label="strokes">
            <path fill="none" stroke-width="3.0" stroke-linecap="butt" stroke-opacity="1.0" stroke="rgb(0, 0, 0)" stroke-linejoin="round" d=" M 459.015, 570.562 459.015, 570.562 459.015, 570.562 469.015, 570.562 479.015, 570.562 489.015, 570.562 499.015, 570.562 509.015, 570.562 519.015, 570.562 529.015, 570.562 539.015, 570.562 549.015, 570.562 559.015, 570.562 569.015, 570.562 570.562, 570.562 570.562, 570.562 570.562, 560.562 570.562, 559.407 570.562, 559.407 570.562, 559.407 " />
            <path fill="none" stroke-width="3.0" stroke-linecap="butt" stroke-opacity="1.0" stroke="rgb(0, 0, 0)" stroke-linejoin="round" d=" M 459.015, 570.562 469.015, 570.562 479.015, 570.562 489.015, 570.562 499.015, 570.562 509.015, 570.562 519.015, 570.562 529.015, 570.562 539.015, 570.562 549.015, 570.562 559.015, 570.562 569.015, 570.562 570.562, 570.562 " />
            <path fill="none" stroke-width="3.0" stroke-linecap="butt" stroke-opacity="1.0" stroke="rgb(0, 0, 0)" stroke-linejoin="round" d=" M 464.593, 509.211 464.593, 499.211 464.593, 489.211 464.593, 479.211 464.593, 469.211 464.593, 459.211 464.593, 453.438 464.593, 453.438 454.593, 453.438 453.438, 453.438 453.438, 463.438 453.438, 473.438 453.438, 483.438 453.438, 493.438 453.438, 503.438 453.438, 509.211 453.438, 509.211 463.438, 509.211 464.593, 509.211 " />
            <path fill="none" stroke-width="3.0" stroke-linecap="butt" stroke-opacity="1.0" stroke="rgb(0, 0, 0)" stroke-linejoin="round" d=" M 464.593, 453.438 464.593, 463.438 464.593, 473.438 464.593, 483.438 464.593, 493.438 464.593, 503.438 464.593, 509.211 " />
            <path fill="none" stroke-width="3.0" stroke-linecap="butt" stroke-opacity="1.0" stroke="rgb(0, 0, 0)" stroke-linejoin="round" d=" M 453.438, 509.211 463.438, 509.211 464.593, 509.211 464.593, 509.211 " />
            <path fill="none" stroke-width="3.0" stroke-linecap="butt" stroke-opacity="1.0" stroke="rgb(0, 0, 0)" stroke-linejoin="round" d=" M 459.015, 551.041 469.015, 551.041 479.015, 551.041 489.015, 551.041 499.015, 551.041 509.015, 551.041 519.015, 551.041 529.015, 551.041 539.015, 551.041 549.015, 551.041 559.015, 551.041 569.015, 551.041 570.562, 551.041 570.562, 541.041 570.562, 531.041 570.562, 523.155 570.562, 523.155 " />
            <path fill="none" stroke-width="3.0" stroke-linecap="butt" stroke-opacity="1.0" stroke="rgb(0, 0, 0)" stroke-linejoin="round" d=" M 459.015, 551.041 469.015, 551.041 479.015, 551.041 489.015, 551.041 499.015, 551.041 509.015, 551.041 519.015, 551.041 529.015, 551.041 539.015, 551.041 549.015, 551.041 559.015, 551.041 569.015, 551.041 570.562, 551.041 570.562, 541.041 570.562, 531.041 570.562, 523.155 " />
            <path fill="none" stroke-width="3.0" stroke-linecap="butt" stroke-opacity="1.0" stroke="rgb(0, 0, 0)" stroke-linejoin="round" d=" M 570.562, 523.155 570.562, 523.155 570.562, 523.155 " />
            <path fill="none" stroke-width="3.0" stroke-linecap="butt" stroke-opacity="1.0" stroke="rgb(0, 0, 0)" stroke-linejoin="round" d=" M 459.015, 570.562 459.015, 570.562 459.015, 570.562 469.015, 570.562 479.015, 570.562 489.015, 570.562 499.015, 570.562 509.015, 570.562 519.015, 570.562 529.015, 570.562 539.015, 570.562 549.015, 570.562 559.015, 570.562 569.015, 570.562 570.562, 570.562 570.562, 570.562 570.562, 560.562 570.562, 559.407 570.562, 559.407 570.562, 559.407 560.562, 559.407 550.562, 559.407 540.562, 559.407 530.562, 559.407 520.562, 559.407 510.562, 559.407 500.562, 559.407 490.562, 559.407 480.562, 559.407 470.562, 559.407 460.562, 559.407 459.015, 559.407 459.015, 569.407 459.015, 570.562 459.015, 570.562 " />
            <path fill="none" stroke-width="3.0" stroke-linecap="butt" stroke-opacity="1.0" stroke="rgb(0, 0, 0)" stroke-linejoin="round" d=" M 459.015, 570.562 459.015, 570.562 469.015, 570.562 479.015, 570.562 489.015, 570.562 499.015, 570.562 509.015, 570.562 519.015, 570.562 529.015, 570.562 539.015, 570.562 549.015, 570.562 559.015, 570.562 569.015, 570.562 570.562, 570.562 " />
            <path fill="none" stroke-width="3.0" stroke-linecap="butt" stroke-opacity="1.0" stroke="rgb(0, 0, 0)" stroke-linejoin="round" d=" M 459.015, 523.155 453.438, 523.155 453.438, 533.155 453.438, 543.155 453.438, 551.041 453.438, 551.041 459.015, 551.041 " />
            <path fill="none" stroke-width="3.0" stroke-linecap="butt" stroke-opacity="1.0" stroke="rgb(0, 0, 0)" stroke-linejoin="round" d=" M 453.438, 551.041 459.015, 551.041 " />
            <path fill="none" stroke-width="3.0" stroke-linecap="butt" stroke-opacity="1.0" stroke="rgb(0, 0, 0)" stroke-linejoin="round" d=" M 459.015, 551.041 469.015, 551.041 479.015, 551.041 489.015, 551.041 499.015, 551.041 509.015, 551.041 519.015, 551.041 529.015, 551.041 539.015, 551.041 549.015, 551.041 559.015, 551.041 569.015, 551.041 570.562, 551.041 570.562, 541.041 570.562, 531.041 570.562, 523.155 " />
            <path fill="none" stroke-width="3.0" stroke-linecap="butt" stroke-opacity="1.0" stroke="rgb(0, 0, 0)" stroke-linejoin="round" d=" M 570.562, 523.155 570.562, 523.155 570.562, 523.155 " />
            <path fill="none" stroke-width="3.0" stroke-linecap="butt" stroke-opacity="1.0" stroke="rgb(0, 0, 0)" stroke-linejoin="round" d=" M 459.015, 551.041 459.015, 551.041 459.015, 551.041 " />
            <path fill="none" stroke-width="3.0" stroke-linecap="butt" stroke-opacity="1.0" stroke="rgb(0, 0, 0)" stroke-linejoin="round" d=" M 570.562, 551.041 570.562, 541.041 570.562, 531.041 570.562, 523.155 " />
            <path fill="none" stroke-width="3.0" stroke-linecap="butt" stroke-opacity="1.0" stroke="rgb(0, 0, 0)" stroke-linejoin="round" d=" M 459.015, 523.155 459.015, 523.155 459.015, 533.155 459.015, 543.155 459.015, 551.041 " />
            <path fill="none" stroke-width="3.0" stroke-linecap="butt" stroke-opacity="1.0" stroke="rgb(0, 0, 0)" stroke-linejoin="round" d=" M 459.015, 551.041 459.015, 551.041 " />
            <path fill="none" stroke-width="3.0" stroke-linecap="butt" stroke-opacity="1.0" stroke="rgb(0, 0, 0)" stroke-linejoin="round" d=" M 459.015, 551.041 459.015, 551.041 " />
            <path fill="none" stroke-width="3.0" stroke-linecap="butt" stroke-opacity="1.0" stroke="rgb(0, 0, 0)" stroke-linejoin="round" d=" M 464.593, 551.041 464.593, 551.041 " />
            <path fill="none" stroke-width="3.0" stroke-linecap="butt" stroke-opacity="1.0" stroke="rgb(0, 0, 0)" stroke-linejoin="round" d=" M 464.593, 551.041 464.593, 551.041 474.593, 551.041 484.593, 551.041 494.593, 551.041 504.593, 551.041 514.593, 551.041 524.593, 551.041 534.593, 551.041 544.593, 551.041 554.593, 551.041 564.593, 551.041 570.562, 551.041 " />
            <path fill="none" stroke-width="3.0" stroke-linecap="butt" stroke-opacity="1.0" stroke="rgb(0, 0, 0)" stroke-linejoin="round" d=" M 459.015, 551.041 464.593, 551.041 " />
            <path fill="none" stroke-width="3.0" stroke-linecap="butt" stroke-opacity="1.0" stroke="rgb(0, 0, 0)" stroke-linejoin="round" d=" M 459.015, 551.041 459.015, 551.041 " />
            <path fill="none" stroke-width="3.0" stroke-linecap="butt" stroke-opacity="1.0" stroke="rgb(0, 0, 0)" stroke-linejoin="round" d=" M 459.015, 551.041 459.015, 551.041 " />
            <path fill="none" stroke-width="3.0" stroke-linecap="butt" stroke-opacity="1.0" stroke="rgb(0, 0, 0)" stroke-linejoin="round" d=" M 459.015, 551.041 459.015, 551.041 " />
            <path fill="none" stroke-width="3.0" stroke-linecap="butt" stroke-opacity="1.0" stroke="rgb(0, 0, 0)" stroke-linejoin="round" d=" M 570.562, 523.155 570.562, 523.155 " />
            <path fill="none" stroke-width="3.0" stroke-linecap="butt" stroke-opacity="1.0" stroke="rgb(0, 0, 0)" stroke-linejoin="round" d=" M 570.562, 523.155 570.562, 523.155 " />
            <path fill="none" stroke-width="3.0" stroke-linecap="butt" stroke-opacity="1.0" stroke="rgb(0, 0, 0)" stroke-linejoin="round" d=" M 570.562, 523.155 570.562, 523.155 " />
            <path fill="none" stroke-width="3.0" stroke-linecap="butt" stroke-opacity="1.0" stroke="rgb(0, 0, 0)" stroke-linejoin="round" d=" M 464.593, 523.155 459.015, 523.155 " />
            <path fill="none" stroke-width="3.0" stroke-linecap="butt" stroke-opacity="1.0" stroke="rgb(0, 0, 0)" stroke-linejoin="round" d=" M 570.562, 523.155 560.562, 523.155 550.562, 523.155 540.562, 523.155 530.562, 523.155 520.562, 523.155 510.562, 523.155 500.562, 523.155 490.562, 523.155 480.562, 523.155 470.562, 523.155 464.593, 523.155 " />
            <path fill="none" stroke-width="3.0" stroke-linecap="butt" stroke-opacity="1.0" stroke="rgb(0, 0, 0)" stroke-linejoin="round" d=" M 459.015, 551.041 459.015, 551.041 " />
            <path fill="none" stroke-width="3.0" stroke-linecap="butt" stroke-opacity="1.0" stroke="rgb(0, 0, 0)" stroke-linejoin="round" d=" M 570.562, 523.155 570.562, 523.155 " />
            <path fill="none" stroke-width="3.0" stroke-linecap="butt" stroke-opacity="1.0" stroke="rgb(0, 0, 0)" stroke-linejoin="round" d=" M 459.015, 551.041 459.015, 551.041 " />
        </g>
    </g>
    <g id="ViewLayer_TechnicalLines.001" inkscape:groupmode="lineset" inkscape:label="ViewLayer_TechnicalLines.001">
        <g inkscape:groupmode="layer" id="strokes" inkscape:label="strokes">
            <path fill="none" stroke-width="1.5" stroke-linecap="round" stroke-opacity="1.0" stroke="rgb(0, 0, 0)" stroke-linejoin="round" d=" M 459.015, 570.562 459.015, 570.562 459.015, 570.562 469.015, 570.562 479.015, 570.562 489.015, 570.562 499.015, 570.562 509.015, 570.562 519.015, 570.562 529.015, 570.562 539.015, 570.562 549.015, 570.562 559.015, 570.562 569.015, 570.562 570.562, 570.562 570.562, 570.562 570.562, 560.562 570.562, 559.407 570.562, 559.407 570.562, 559.407 " />
            <path fill="none" stroke-width="1.5" stroke-linecap="round" stroke-opacity="1.0" stroke="rgb(0, 0, 0)" stroke-linejoin="round" d=" M 459.015, 570.562 469.015, 570.562 479.015, 570.562 489.015, 570.562 499.015, 570.562 509.015, 570.562 519.015, 570.562 529.015, 570.562 539.015, 570.562 549.015, 570.562 559.015, 570.562 569.015, 570.562 570.562, 570.562 " />
            <path fill="none" stroke-width="1.5" stroke-linecap="round" stroke-opacity="1.0" stroke="rgb(0, 0, 0)" stroke-linejoin="round" d=" M 464.593, 509.211 464.593, 499.211 464.593, 489.211 464.593, 479.211 464.593, 469.211 464.593, 459.211 464.593, 453.438 464.593, 453.438 454.593, 453.438 453.438, 453.438 453.438, 463.438 453.438, 473.438 453.438, 483.438 453.438, 493.438 453.438, 503.438 453.438, 509.211 453.438, 509.211 463.438, 509.211 464.593, 509.211 " />
            <path fill="none" stroke-width="1.5" stroke-linecap="round" stroke-opacity="1.0" stroke="rgb(0, 0, 0)" stroke-linejoin="round" d=" M 464.593, 453.438 464.593, 463.438 464.593, 473.438 464.593, 483.438 464.593, 493.438 464.593, 503.438 464.593, 509.211 " />
            <path fill="none" stroke-width="1.5" stroke-linecap="round" stroke-opacity="1.0" stroke="rgb(0, 0, 0)" stroke-linejoin="round" d=" M 453.438, 509.211 463.438, 509.211 464.593, 509.211 464.593, 509.211 " />
            <path fill="none" stroke-width="1.5" stroke-linecap="round" stroke-opacity="1.0" stroke="rgb(0, 0, 0)" stroke-linejoin="round" d=" M 459.015, 551.041 469.015, 551.041 479.015, 551.041 489.015, 551.041 499.015, 551.041 509.015, 551.041 519.015, 551.041 529.015, 551.041 539.015, 551.041 549.015, 551.041 559.015, 551.041 569.015, 551.041 570.562, 551.041 570.562, 541.041 570.562, 531.041 570.562, 523.155 570.562, 523.155 " />
            <path fill="none" stroke-width="1.5" stroke-linecap="round" stroke-opacity="1.0" stroke="rgb(0, 0, 0)" stroke-linejoin="round" d=" M 459.015, 551.041 469.015, 551.041 479.015, 551.041 489.015, 551.041 499.015, 551.041 509.015, 551.041 519.015, 551.041 529.015, 551.041 539.015, 551.041 549.015, 551.041 559.015, 551.041 569.015, 551.041 570.562, 551.041 570.562, 541.041 570.562, 531.041 570.562, 523.155 " />
            <path fill="none" stroke-width="1.5" stroke-linecap="round" stroke-opacity="1.0" stroke="rgb(0, 0, 0)" stroke-linejoin="round" d=" M 570.562, 523.155 570.562, 523.155 570.562, 523.155 " />
            <path fill="none" stroke-width="1.5" stroke-linecap="round" stroke-opacity="1.0" stroke="rgb(0, 0, 0)" stroke-linejoin="round" d=" M 459.015, 570.562 459.015, 570.562 459.015, 570.562 469.015, 570.562 479.015, 570.562 489.015, 570.562 499.015, 570.562 509.015, 570.562 519.015, 570.562 529.015, 570.562 539.015, 570.562 549.015, 570.562 559.015, 570.562 569.015, 570.562 570.562, 570.562 570.562, 570.562 570.562, 560.562 570.562, 559.407 570.562, 559.407 570.562, 559.407 560.562, 559.407 550.562, 559.407 540.562, 559.407 530.562, 559.407 520.562, 559.407 510.562, 559.407 500.562, 559.407 490.562, 559.407 480.562, 559.407 470.562, 559.407 460.562, 559.407 459.015, 559.407 459.015, 569.407 459.015, 570.562 459.015, 570.562 " />
            <path fill="none" stroke-width="1.5" stroke-linecap="round" stroke-opacity="1.0" stroke="rgb(0, 0, 0)" stroke-linejoin="round" d=" M 459.015, 570.562 459.015, 570.562 469.015, 570.562 479.015, 570.562 489.015, 570.562 499.015, 570.562 509.015, 570.562 519.015, 570.562 529.015, 570.562 539.015, 570.562 549.015, 570.562 559.015, 570.562 569.015, 570.562 570.562, 570.562 " />
            <path fill="none" stroke-width="1.5" stroke-linecap="round" stroke-opacity="1.0" stroke="rgb(0, 0, 0)" stroke-linejoin="round" d=" M 459.015, 523.155 453.438, 523.155 453.438, 533.155 453.438, 543.155 453.438, 551.041 453.438, 551.041 459.015, 551.041 " />
            <path fill="none" stroke-width="1.5" stroke-linecap="round" stroke-opacity="1.0" stroke="rgb(0, 0, 0)" stroke-linejoin="round" d=" M 453.438, 551.041 459.015, 551.041 " />
            <path fill="none" stroke-width="1.5" stroke-linecap="round" stroke-opacity="1.0" stroke="rgb(0, 0, 0)" stroke-linejoin="round" d=" M 459.015, 551.041 469.015, 551.041 479.015, 551.041 489.015, 551.041 499.015, 551.041 509.015, 551.041 519.015, 551.041 529.015, 551.041 539.015, 551.041 549.015, 551.041 559.015, 551.041 569.015, 551.041 570.562, 551.041 570.562, 541.041 570.562, 531.041 570.562, 523.155 " />
            <path fill="none" stroke-width="1.5" stroke-linecap="round" stroke-opacity="1.0" stroke="rgb(0, 0, 0)" stroke-linejoin="round" d=" M 570.562, 523.155 570.562, 523.155 570.562, 523.155 " />
            <path fill="none" stroke-width="1.5" stroke-linecap="round" stroke-opacity="1.0" stroke="rgb(0, 0, 0)" stroke-linejoin="round" d=" M 459.015, 551.041 459.015, 551.041 459.015, 551.041 " />
            <path fill="none" stroke-width="1.5" stroke-linecap="round" stroke-opacity="1.0" stroke="rgb(0, 0, 0)" stroke-linejoin="round" d=" M 570.562, 551.041 570.562, 541.041 570.562, 531.041 570.562, 523.155 " />
            <path fill="none" stroke-width="1.5" stroke-linecap="round" stroke-opacity="1.0" stroke="rgb(0, 0, 0)" stroke-linejoin="round" d=" M 459.015, 523.155 459.015, 523.155 459.015, 533.155 459.015, 543.155 459.015, 551.041 " />
            <path fill="none" stroke-width="1.5" stroke-linecap="round" stroke-opacity="1.0" stroke="rgb(0, 0, 0)" stroke-linejoin="round" d=" M 459.015, 551.041 459.015, 551.041 " />
            <path fill="none" stroke-width="1.5" stroke-linecap="round" stroke-opacity="1.0" stroke="rgb(0, 0, 0)" stroke-linejoin="round" d=" M 459.015, 551.041 459.015, 551.041 " />
            <path fill="none" stroke-width="1.5" stroke-linecap="round" stroke-opacity="1.0" stroke="rgb(0, 0, 0)" stroke-linejoin="round" d=" M 464.593, 551.041 464.593, 551.041 " />
            <path fill="none" stroke-width="1.5" stroke-linecap="round" stroke-opacity="1.0" stroke="rgb(0, 0, 0)" stroke-linejoin="round" d=" M 464.593, 551.041 464.593, 551.041 474.593, 551.041 484.593, 551.041 494.593, 551.041 504.593, 551.041 514.593, 551.041 524.593, 551.041 534.593, 551.041 544.593, 551.041 554.593, 551.041 564.593, 551.041 570.562, 551.041 " />
            <path fill="none" stroke-width="1.5" stroke-linecap="round" stroke-opacity="1.0" stroke="rgb(0, 0, 0)" stroke-linejoin="round" d=" M 459.015, 551.041 464.593, 551.041 " />
            <path fill="none" stroke-width="1.5" stroke-linecap="round" stroke-opacity="1.0" stroke="rgb(0, 0, 0)" stroke-linejoin="round" d=" M 459.015, 551.041 459.015, 551.041 " />
            <path fill="none" stroke-width="1.5" stroke-linecap="round" stroke-opacity="1.0" stroke="rgb(0, 0, 0)" stroke-linejoin="round" d=" M 459.015, 551.041 459.015, 551.041 " />
            <path fill="none" stroke-width="1.5" stroke-linecap="round" stroke-opacity="1.0" stroke="rgb(0, 0, 0)" stroke-linejoin="round" d=" M 459.015, 551.041 459.015, 551.041 " />
            <path fill="none" stroke-width="1.5" stroke-linecap="round" stroke-opacity="1.0" stroke="rgb(0, 0, 0)" stroke-linejoin="round" d=" M 570.562, 523.155 570.562, 523.155 " />
            <path fill="none" stroke-width="1.5" stroke-linecap="round" stroke-opacity="1.0" stroke="rgb(0, 0, 0)" stroke-linejoin="round" d=" M 570.562, 523.155 570.562, 523.155 " />
            <path fill="none" stroke-width="1.5" stroke-linecap="round" stroke-opacity="1.0" stroke="rgb(0, 0, 0)" stroke-linejoin="round" d=" M 570.562, 523.155 570.562, 523.155 " />
            <path fill="none" stroke-width="1.5" stroke-linecap="round" stroke-opacity="1.0" stroke="rgb(0, 0, 0)" stroke-linejoin="round" d=" M 464.593, 523.155 459.015, 523.155 " />
            <path fill="none" stroke-width="1.5" stroke-linecap="round" stroke-opacity="1.0" stroke="rgb(0, 0, 0)" stroke-linejoin="round" d=" M 570.562, 523.155 560.562, 523.155 550.562, 523.155 540.562, 523.155 530.562, 523.155 520.562, 523.155 510.562, 523.155 500.562, 523.155 490.562, 523.155 480.562, 523.155 470.562, 523.155 464.593, 523.155 " />
            <path fill="none" stroke-width="1.5" stroke-linecap="round" stroke-opacity="1.0" stroke="rgb(0, 0, 0)" stroke-linejoin="round" d=" M 459.015, 551.041 459.015, 551.041 " />
            <path fill="none" stroke-width="1.5" stroke-linecap="round" stroke-opacity="1.0" stroke="rgb(0, 0, 0)" stroke-linejoin="round" d=" M 570.562, 523.155 570.562, 523.155 " />
            <path fill="none" stroke-width="1.5" stroke-linecap="round" stroke-opacity="1.0" stroke="rgb(0, 0, 0)" stroke-linejoin="round" d=" M 459.015, 551.041 459.015, 551.041 " />
        </g>
    </g>
    <g id="ViewLayer_TechnicalLines.002" inkscape:groupmode="lineset" inkscape:label="ViewLayer_TechnicalLines.002">
        <g inkscape:groupmode="layer" id="strokes" inkscape:label="strokes">
            <path fill="none" stroke-width="1.5" stroke-linecap="round" stroke-opacity="1.0" stroke="rgb(0, 0, 0)" stroke-linejoin="round" d=" M 459.015, 570.562 459.015, 570.562 459.015, 570.562 469.015, 570.562 479.015, 570.562 489.015, 570.562 499.015, 570.562 509.015, 570.562 519.015, 570.562 529.015, 570.562 539.015, 570.562 549.015, 570.562 559.015, 570.562 569.015, 570.562 570.562, 570.562 570.562, 570.562 570.562, 560.562 570.562, 559.407 570.562, 559.407 570.562, 559.407 " />
            <path fill="none" stroke-width="1.5" stroke-linecap="round" stroke-opacity="1.0" stroke="rgb(0, 0, 0)" stroke-linejoin="round" d=" M 459.015, 570.562 469.015, 570.562 479.015, 570.562 489.015, 570.562 499.015, 570.562 509.015, 570.562 519.015, 570.562 529.015, 570.562 539.015, 570.562 549.015, 570.562 559.015, 570.562 569.015, 570.562 570.562, 570.562 " />
            <path fill="none" stroke-width="1.5" stroke-linecap="round" stroke-opacity="1.0" stroke="rgb(0, 0, 0)" stroke-linejoin="round" d=" M 464.593, 509.211 464.593, 499.211 464.593, 489.211 464.593, 479.211 464.593, 469.211 464.593, 459.211 464.593, 453.438 464.593, 453.438 454.593, 453.438 453.438, 453.438 453.438, 463.438 453.438, 473.438 453.438, 483.438 453.438, 493.438 453.438, 503.438 453.438, 509.211 453.438, 509.211 463.438, 509.211 464.593, 509.211 " />
            <path fill="none" stroke-width="1.5" stroke-linecap="round" stroke-opacity="1.0" stroke="rgb(0, 0, 0)" stroke-linejoin="round" d=" M 464.593, 453.438 464.593, 463.438 464.593, 473.438 464.593, 483.438 464.593, 493.438 464.593, 503.438 464.593, 509.211 " />
            <path fill="none" stroke-width="1.5" stroke-linecap="round" stroke-opacity="1.0" stroke="rgb(0, 0, 0)" stroke-linejoin="round" d=" M 453.438, 509.211 463.438, 509.211 464.593, 509.211 464.593, 509.211 " />
            <path fill="none" stroke-width="1.5" stroke-linecap="round" stroke-opacity="1.0" stroke="rgb(0, 0, 0)" stroke-linejoin="round" d=" M 459.015, 551.041 469.015, 551.041 479.015, 551.041 489.015, 551.041 499.015, 551.041 509.015, 551.041 519.015, 551.041 529.015, 551.041 539.015, 551.041 549.015, 551.041 559.015, 551.041 569.015, 551.041 570.562, 551.041 570.562, 541.041 570.562, 531.041 570.562, 523.155 570.562, 523.155 " />
            <path fill="none" stroke-width="1.5" stroke-linecap="round" stroke-opacity="1.0" stroke="rgb(0, 0, 0)" stroke-linejoin="round" d=" M 459.015, 551.041 469.015, 551.041 479.015, 551.041 489.015, 551.041 499.015, 551.041 509.015, 551.041 519.015, 551.041 529.015, 551.041 539.015, 551.041 549.015, 551.041 559.015, 551.041 569.015, 551.041 570.562, 551.041 570.562, 541.041 570.562, 531.041 570.562, 523.155 " />
            <path fill="none" stroke-width="1.5" stroke-linecap="round" stroke-opacity="1.0" stroke="rgb(0, 0, 0)" stroke-linejoin="round" d=" M 570.562, 523.155 570.562, 523.155 570.562, 523.155 " />
            <path fill="none" stroke-width="1.5" stroke-linecap="round" stroke-opacity="1.0" stroke="rgb(0, 0, 0)" stroke-linejoin="round" d=" M 459.015, 570.562 459.015, 570.562 459.015, 570.562 469.015, 570.562 479.015, 570.562 489.015, 570.562 499.015, 570.562 509.015, 570.562 519.015, 570.562 529.015, 570.562 539.015, 570.562 549.015, 570.562 559.015, 570.562 569.015, 570.562 570.562, 570.562 570.562, 570.562 570.562, 560.562 570.562, 559.407 570.562, 559.407 570.562, 559.407 560.562, 559.407 550.562, 559.407 540.562, 559.407 530.562, 559.407 520.562, 559.407 510.562, 559.407 500.562, 559.407 490.562, 559.407 480.562, 559.407 470.562, 559.407 460.562, 559.407 459.015, 559.407 459.015, 569.407 459.015, 570.562 459.015, 570.562 " />
            <path fill="none" stroke-width="1.5" stroke-linecap="round" stroke-opacity="1.0" stroke="rgb(0, 0, 0)" stroke-linejoin="round" d=" M 459.015, 570.562 459.015, 570.562 469.015, 570.562 479.015, 570.562 489.015, 570.562 499.015, 570.562 509.015, 570.562 519.015, 570.562 529.015, 570.562 539.015, 570.562 549.015, 570.562 559.015, 570.562 569.015, 570.562 570.562, 570.562 " />
            <path fill="none" stroke-width="1.5" stroke-linecap="round" stroke-opacity="1.0" stroke="rgb(0, 0, 0)" stroke-linejoin="round" d=" M 459.015, 523.155 453.438, 523.155 453.438, 533.155 453.438, 543.155 453.438, 551.041 453.438, 551.041 459.015, 551.041 " />
            <path fill="none" stroke-width="1.5" stroke-linecap="round" stroke-opacity="1.0" stroke="rgb(0, 0, 0)" stroke-linejoin="round" d=" M 453.438, 551.041 459.015, 551.041 " />
            <path fill="none" stroke-width="1.5" stroke-linecap="round" stroke-opacity="1.0" stroke="rgb(0, 0, 0)" stroke-linejoin="round" d=" M 459.015, 551.041 469.015, 551.041 479.015, 551.041 489.015, 551.041 499.015, 551.041 509.015, 551.041 519.015, 551.041 529.015, 551.041 539.015, 551.041 549.015, 551.041 559.015, 551.041 569.015, 551.041 570.562, 551.041 570.562, 541.041 570.562, 531.041 570.562, 523.155 " />
            <path fill="none" stroke-width="1.5" stroke-linecap="round" stroke-opacity="1.0" stroke="rgb(0, 0, 0)" stroke-linejoin="round" d=" M 570.562, 523.155 570.562, 523.155 570.562, 523.155 " />
            <path fill="none" stroke-width="1.5" stroke-linecap="round" stroke-opacity="1.0" stroke="rgb(0, 0, 0)" stroke-linejoin="round" d=" M 459.015, 551.041 459.015, 551.041 459.015, 551.041 " />
            <path fill="none" stroke-width="1.5" stroke-linecap="round" stroke-opacity="1.0" stroke="rgb(0, 0, 0)" stroke-linejoin="round" d=" M 570.562, 551.041 570.562, 541.041 570.562, 531.041 570.562, 523.155 " />
            <path fill="none" stroke-width="1.5" stroke-linecap="round" stroke-opacity="1.0" stroke="rgb(0, 0, 0)" stroke-linejoin="round" d=" M 459.015, 523.155 459.015, 523.155 459.015, 533.155 459.015, 543.155 459.015, 551.041 " />
            <path fill="none" stroke-width="1.5" stroke-linecap="round" stroke-opacity="1.0" stroke="rgb(0, 0, 0)" stroke-linejoin="round" d=" M 459.015, 551.041 459.015, 551.041 " />
            <path fill="none" stroke-width="1.5" stroke-linecap="round" stroke-opacity="1.0" stroke="rgb(0, 0, 0)" stroke-linejoin="round" d=" M 459.015, 551.041 459.015, 551.041 " />
            <path fill="none" stroke-width="1.5" stroke-linecap="round" stroke-opacity="1.0" stroke="rgb(0, 0, 0)" stroke-linejoin="round" d=" M 464.593, 551.041 464.593, 551.041 " />
            <path fill="none" stroke-width="1.5" stroke-linecap="round" stroke-opacity="1.0" stroke="rgb(0, 0, 0)" stroke-linejoin="round" d=" M 464.593, 551.041 464.593, 551.041 474.593, 551.041 484.593, 551.041 494.593, 551.041 504.593, 551.041 514.593, 551.041 524.593, 551.041 534.593, 551.041 544.593, 551.041 554.593, 551.041 564.593, 551.041 570.562, 551.041 " />
            <path fill="none" stroke-width="1.5" stroke-linecap="round" stroke-opacity="1.0" stroke="rgb(0, 0, 0)" stroke-linejoin="round" d=" M 459.015, 551.041 464.593, 551.041 " />
            <path fill="none" stroke-width="1.5" stroke-linecap="round" stroke-opacity="1.0" stroke="rgb(0, 0, 0)" stroke-linejoin="round" d=" M 459.015, 551.041 459.015, 551.041 " />
            <path fill="none" stroke-width="1.5" stroke-linecap="round" stroke-opacity="1.0" stroke="rgb(0, 0, 0)" stroke-linejoin="round" d=" M 459.015, 551.041 459.015, 551.041 " />
            <path fill="none" stroke-width="1.5" stroke-linecap="round" stroke-opacity="1.0" stroke="rgb(0, 0, 0)" stroke-linejoin="round" d=" M 459.015, 551.041 459.015, 551.041 " />
            <path fill="none" stroke-width="1.5" stroke-linecap="round" stroke-opacity="1.0" stroke="rgb(0, 0, 0)" stroke-linejoin="round" d=" M 570.562, 523.155 570.562, 523.155 " />
            <path fill="none" stroke-width="1.5" stroke-linecap="round" stroke-opacity="1.0" stroke="rgb(0, 0, 0)" stroke-linejoin="round" d=" M 570.562, 523.155 570.562, 523.155 " />
            <path fill="none" stroke-width="1.5" stroke-linecap="round" stroke-opacity="1.0" stroke="rgb(0, 0, 0)" stroke-linejoin="round" d=" M 570.562, 523.155 570.562, 523.155 " />
            <path fill="none" stroke-width="1.5" stroke-linecap="round" stroke-opacity="1.0" stroke="rgb(0, 0, 0)" stroke-linejoin="round" d=" M 464.593, 523.155 459.015, 523.155 " />
            <path fill="none" stroke-width="1.5" stroke-linecap="round" stroke-opacity="1.0" stroke="rgb(0, 0, 0)" stroke-linejoin="round" d=" M 570.562, 523.155 560.562, 523.155 550.562, 523.155 540.562, 523.155 530.562, 523.155 520.562, 523.155 510.562, 523.155 500.562, 523.155 490.562, 523.155 480.562, 523.155 470.562, 523.155 464.593, 523.155 " />
            <path fill="none" stroke-width="1.5" stroke-linecap="round" stroke-opacity="1.0" stroke="rgb(0, 0, 0)" stroke-linejoin="round" d=" M 459.015, 551.041 459.015, 551.041 " />
            <path fill="none" stroke-width="1.5" stroke-linecap="round" stroke-opacity="1.0" stroke="rgb(0, 0, 0)" stroke-linejoin="round" d=" M 570.562, 523.155 570.562, 523.155 " />
            <path fill="none" stroke-width="1.5" stroke-linecap="round" stroke-opacity="1.0" stroke="rgb(0, 0, 0)" stroke-linejoin="round" d=" M 459.015, 551.041 459.015, 551.041 " />
        </g>
    </g>
    <g id="ViewLayer_TechnicalLines.003" inkscape:groupmode="lineset" inkscape:label="ViewLayer_TechnicalLines.003">
        <g inkscape:groupmode="layer" id="strokes" inkscape:label="strokes">
            <path fill="none" stroke-width="1.5" stroke-linecap="round" stroke-opacity="1.0" stroke="rgb(0, 0, 0)" stroke-linejoin="round" d=" M 459.015, 570.562 459.015, 570.562 459.015, 570.562 469.015, 570.562 479.015, 570.562 489.015, 570.562 499.015, 570.562 509.015, 570.562 519.015, 570.562 529.015, 570.562 539.015, 570.562 549.015, 570.562 559.015, 570.562 569.015, 570.562 570.562, 570.562 570.562, 570.562 570.562, 560.562 570.562, 559.407 570.562, 559.407 570.562, 559.407 " />
            <path fill="none" stroke-width="1.5" stroke-linecap="round" stroke-opacity="1.0" stroke="rgb(0, 0, 0)" stroke-linejoin="round" d=" M 459.015, 570.562 469.015, 570.562 479.015, 570.562 489.015, 570.562 499.015, 570.562 509.015, 570.562 519.015, 570.562 529.015, 570.562 539.015, 570.562 549.015, 570.562 559.015, 570.562 569.015, 570.562 570.562, 570.562 " />
            <path fill="none" stroke-width="1.5" stroke-linecap="round" stroke-opacity="1.0" stroke="rgb(0, 0, 0)" stroke-linejoin="round" d=" M 464.593, 509.211 464.593, 499.211 464.593, 489.211 464.593, 479.211 464.593, 469.211 464.593, 459.211 464.593, 453.438 464.593, 453.438 454.593, 453.438 453.438, 453.438 453.438, 463.438 453.438, 473.438 453.438, 483.438 453.438, 493.438 453.438, 503.438 453.438, 509.211 453.438, 509.211 463.438, 509.211 464.593, 509.211 " />
            <path fill="none" stroke-width="1.5" stroke-linecap="round" stroke-opacity="1.0" stroke="rgb(0, 0, 0)" stroke-linejoin="round" d=" M 464.593, 453.438 464.593, 463.438 464.593, 473.438 464.593, 483.438 464.593, 493.438 464.593, 503.438 464.593, 509.211 " />
            <path fill="none" stroke-width="1.5" stroke-linecap="round" stroke-opacity="1.0" stroke="rgb(0, 0, 0)" stroke-linejoin="round" d=" M 453.438, 509.211 463.438, 509.211 464.593, 509.211 464.593, 509.211 " />
            <path fill="none" stroke-width="1.5" stroke-linecap="round" stroke-opacity="1.0" stroke="rgb(0, 0, 0)" stroke-linejoin="round" d=" M 459.015, 551.041 469.015, 551.041 479.015, 551.041 489.015, 551.041 499.015, 551.041 509.015, 551.041 519.015, 551.041 529.015, 551.041 539.015, 551.041 549.015, 551.041 559.015, 551.041 569.015, 551.041 570.562, 551.041 570.562, 541.041 570.562, 531.041 570.562, 523.155 570.562, 523.155 " />
            <path fill="none" stroke-width="1.5" stroke-linecap="round" stroke-opacity="1.0" stroke="rgb(0, 0, 0)" stroke-linejoin="round" d=" M 459.015, 551.041 469.015, 551.041 479.015, 551.041 489.015, 551.041 499.015, 551.041 509.015, 551.041 519.015, 551.041 529.015, 551.041 539.015, 551.041 549.015, 551.041 559.015, 551.041 569.015, 551.041 570.562, 551.041 570.562, 541.041 570.562, 531.041 570.562, 523.155 " />
            <path fill="none" stroke-width="1.5" stroke-linecap="round" stroke-opacity="1.0" stroke="rgb(0, 0, 0)" stroke-linejoin="round" d=" M 570.562, 523.155 570.562, 523.155 570.562, 523.155 " />
            <path fill="none" stroke-width="1.5" stroke-linecap="round" stroke-opacity="1.0" stroke="rgb(0, 0, 0)" stroke-linejoin="round" d=" M 459.015, 570.562 459.015, 570.562 459.015, 570.562 469.015, 570.562 479.015, 570.562 489.015, 570.562 499.015, 570.562 509.015, 570.562 519.015, 570.562 529.015, 570.562 539.015, 570.562 549.015, 570.562 559.015, 570.562 569.015, 570.562 570.562, 570.562 570.562, 570.562 570.562, 560.562 570.562, 559.407 570.562, 559.407 570.562, 559.407 560.562, 559.407 550.562, 559.407 540.562, 559.407 530.562, 559.407 520.562, 559.407 510.562, 559.407 500.562, 559.407 490.562, 559.407 480.562, 559.407 470.562, 559.407 460.562, 559.407 459.015, 559.407 459.015, 569.407 459.015, 570.562 459.015, 570.562 " />
            <path fill="none" stroke-width="1.5" stroke-linecap="round" stroke-opacity="1.0" stroke="rgb(0, 0, 0)" stroke-linejoin="round" d=" M 459.015, 570.562 459.015, 570.562 469.015, 570.562 479.015, 570.562 489.015, 570.562 499.015, 570.562 509.015, 570.562 519.015, 570.562 529.015, 570.562 539.015, 570.562 549.015, 570.562 559.015, 570.562 569.015, 570.562 570.562, 570.562 " />
            <path fill="none" stroke-width="1.5" stroke-linecap="round" stroke-opacity="1.0" stroke="rgb(0, 0, 0)" stroke-linejoin="round" d=" M 459.015, 523.155 453.438, 523.155 453.438, 533.155 453.438, 543.155 453.438, 551.041 453.438, 551.041 459.015, 551.041 " />
            <path fill="none" stroke-width="1.5" stroke-linecap="round" stroke-opacity="1.0" stroke="rgb(0, 0, 0)" stroke-linejoin="round" d=" M 453.438, 551.041 459.015, 551.041 " />
            <path fill="none" stroke-width="1.5" stroke-linecap="round" stroke-opacity="1.0" stroke="rgb(0, 0, 0)" stroke-linejoin="round" d=" M 459.015, 551.041 469.015, 551.041 479.015, 551.041 489.015, 551.041 499.015, 551.041 509.015, 551.041 519.015, 551.041 529.015, 551.041 539.015, 551.041 549.015, 551.041 559.015, 551.041 569.015, 551.041 570.562, 551.041 570.562, 541.041 570.562, 531.041 570.562, 523.155 " />
            <path fill="none" stroke-width="1.5" stroke-linecap="round" stroke-opacity="1.0" stroke="rgb(0, 0, 0)" stroke-linejoin="round" d=" M 570.562, 523.155 570.562, 523.155 570.562, 523.155 " />
            <path fill="none" stroke-width="1.5" stroke-linecap="round" stroke-opacity="1.0" stroke="rgb(0, 0, 0)" stroke-linejoin="round" d=" M 459.015, 551.041 459.015, 551.041 459.015, 551.041 " />
            <path fill="none" stroke-width="1.5" stroke-linecap="round" stroke-opacity="1.0" stroke="rgb(0, 0, 0)" stroke-linejoin="round" d=" M 570.562, 551.041 570.562, 541.041 570.562, 531.041 570.562, 523.155 " />
            <path fill="none" stroke-width="1.5" stroke-linecap="round" stroke-opacity="1.0" stroke="rgb(0, 0, 0)" stroke-linejoin="round" d=" M 459.015, 523.155 459.015, 523.155 459.015, 533.155 459.015, 543.155 459.015, 551.041 " />
            <path fill="none" stroke-width="1.5" stroke-linecap="round" stroke-opacity="1.0" stroke="rgb(0, 0, 0)" stroke-linejoin="round" d=" M 459.015, 551.041 459.015, 551.041 " />
            <path fill="none" stroke-width="1.5" stroke-linecap="round" stroke-opacity="1.0" stroke="rgb(0, 0, 0)" stroke-linejoin="round" d=" M 459.015, 551.041 459.015, 551.041 " />
            <path fill="none" stroke-width="1.5" stroke-linecap="round" stroke-opacity="1.0" stroke="rgb(0, 0, 0)" stroke-linejoin="round" d=" M 464.593, 551.041 464.593, 551.041 " />
            <path fill="none" stroke-width="1.5" stroke-linecap="round" stroke-opacity="1.0" stroke="rgb(0, 0, 0)" stroke-linejoin="round" d=" M 464.593, 551.041 464.593, 551.041 474.593, 551.041 484.593, 551.041 494.593, 551.041 504.593, 551.041 514.593, 551.041 524.593, 551.041 534.593, 551.041 544.593, 551.041 554.593, 551.041 564.593, 551.041 570.562, 551.041 " />
            <path fill="none" stroke-width="1.5" stroke-linecap="round" stroke-opacity="1.0" stroke="rgb(0, 0, 0)" stroke-linejoin="round" d=" M 459.015, 551.041 464.593, 551.041 " />
            <path fill="none" stroke-width="1.5" stroke-linecap="round" stroke-opacity="1.0" stroke="rgb(0, 0, 0)" stroke-linejoin="round" d=" M 459.015, 551.041 459.015, 551.041 " />
            <path fill="none" stroke-width="1.5" stroke-linecap="round" stroke-opacity="1.0" stroke="rgb(0, 0, 0)" stroke-linejoin="round" d=" M 459.015, 551.041 459.015, 551.041 " />
            <path fill="none" stroke-width="1.5" stroke-linecap="round" stroke-opacity="1.0" stroke="rgb(0, 0, 0)" stroke-linejoin="round" d=" M 459.015, 551.041 459.015, 551.041 " />
            <path fill="none" stroke-width="1.5" stroke-linecap="round" stroke-opacity="1.0" stroke="rgb(0, 0, 0)" stroke-linejoin="round" d=" M 570.562, 523.155 570.562, 523.155 " />
            <path fill="none" stroke-width="1.5" stroke-linecap="round" stroke-opacity="1.0" stroke="rgb(0, 0, 0)" stroke-linejoin="round" d=" M 570.562, 523.155 570.562, 523.155 " />
            <path fill="none" stroke-width="1.5" stroke-linecap="round" stroke-opacity="1.0" stroke="rgb(0, 0, 0)" stroke-linejoin="round" d=" M 570.562, 523.155 570.562, 523.155 " />
            <path fill="none" stroke-width="1.5" stroke-linecap="round" stroke-opacity="1.0" stroke="rgb(0, 0, 0)" stroke-linejoin="round" d=" M 464.593, 523.155 459.015, 523.155 " />
            <path fill="none" stroke-width="1.5" stroke-linecap="round" stroke-opacity="1.0" stroke="rgb(0, 0, 0)" stroke-linejoin="round" d=" M 570.562, 523.155 560.562, 523.155 550.562, 523.155 540.562, 523.155 530.562, 523.155 520.562, 523.155 510.562, 523.155 500.562, 523.155 490.562, 523.155 480.562, 523.155 470.562, 523.155 464.593, 523.155 " />
            <path fill="none" stroke-width="1.5" stroke-linecap="round" stroke-opacity="1.0" stroke="rgb(0, 0, 0)" stroke-linejoin="round" d=" M 459.015, 551.041 459.015, 551.041 " />
            <path fill="none" stroke-width="1.5" stroke-linecap="round" stroke-opacity="1.0" stroke="rgb(0, 0, 0)" stroke-linejoin="round" d=" M 570.562, 523.155 570.562, 523.155 " />
            <path fill="none" stroke-width="1.5" stroke-linecap="round" stroke-opacity="1.0" stroke="rgb(0, 0, 0)" stroke-linejoin="round" d=" M 459.015, 551.041 459.015, 551.041 " />
        </g>
    </g>
    <g id="ViewLayer_TechnicalLines.004" xmlns:inkscape="http://www.inkscape.org/namespaces/inkscape" inkscape:groupmode="lineset" inkscape:label="ViewLayer_TechnicalLines.004">
        <g xmlns:inkscape="http://www.inkscape.org/namespaces/inkscape" inkscape:groupmode="layer" id="strokes" inkscape:label="strokes">
            <path fill="none" stroke-width="1.5" stroke-linecap="round" stroke-opacity="1.0" stroke="rgb(0, 0, 0)" stroke-linejoin="round" d=" M 459.015, 570.562 459.015, 570.562 459.015, 570.562 469.015, 570.562 479.015, 570.562 489.015, 570.562 499.015, 570.562 509.015, 570.562 519.015, 570.562 529.015, 570.562 539.015, 570.562 549.015, 570.562 559.015, 570.562 569.015, 570.562 570.562, 570.562 570.562, 570.562 570.562, 560.562 570.562, 559.407 570.562, 559.407 570.562, 559.407 " />
            <path fill="none" stroke-width="1.5" stroke-linecap="round" stroke-opacity="1.0" stroke="rgb(0, 0, 0)" stroke-linejoin="round" d=" M 459.015, 570.562 469.015, 570.562 479.015, 570.562 489.015, 570.562 499.015, 570.562 509.015, 570.562 519.015, 570.562 529.015, 570.562 539.015, 570.562 549.015, 570.562 559.015, 570.562 569.015, 570.562 570.562, 570.562 " />
            <path fill="none" stroke-width="1.5" stroke-linecap="round" stroke-opacity="1.0" stroke="rgb(0, 0, 0)" stroke-linejoin="round" d=" M 464.593, 509.211 464.593, 499.211 464.593, 489.211 464.593, 479.211 464.593, 469.211 464.593, 459.211 464.593, 453.438 464.593, 453.438 454.593, 453.438 453.438, 453.438 453.438, 463.438 453.438, 473.438 453.438, 483.438 453.438, 493.438 453.438, 503.438 453.438, 509.211 453.438, 509.211 463.438, 509.211 464.593, 509.211 " />
            <path fill="none" stroke-width="1.5" stroke-linecap="round" stroke-opacity="1.0" stroke="rgb(0, 0, 0)" stroke-linejoin="round" d=" M 464.593, 453.438 464.593, 463.438 464.593, 473.438 464.593, 483.438 464.593, 493.438 464.593, 503.438 464.593, 509.211 " />
            <path fill="none" stroke-width="1.5" stroke-linecap="round" stroke-opacity="1.0" stroke="rgb(0, 0, 0)" stroke-linejoin="round" d=" M 453.438, 509.211 463.438, 509.211 464.593, 509.211 464.593, 509.211 " />
            <path fill="none" stroke-width="1.5" stroke-linecap="round" stroke-opacity="1.0" stroke="rgb(0, 0, 0)" stroke-linejoin="round" d=" M 459.015, 551.041 469.015, 551.041 479.015, 551.041 489.015, 551.041 499.015, 551.041 509.015, 551.041 519.015, 551.041 529.015, 551.041 539.015, 551.041 549.015, 551.041 559.015, 551.041 569.015, 551.041 570.562, 551.041 570.562, 541.041 570.562, 531.041 570.562, 523.155 570.562, 523.155 " />
            <path fill="none" stroke-width="1.5" stroke-linecap="round" stroke-opacity="1.0" stroke="rgb(0, 0, 0)" stroke-linejoin="round" d=" M 459.015, 551.041 469.015, 551.041 479.015, 551.041 489.015, 551.041 499.015, 551.041 509.015, 551.041 519.015, 551.041 529.015, 551.041 539.015, 551.041 549.015, 551.041 559.015, 551.041 569.015, 551.041 570.562, 551.041 570.562, 541.041 570.562, 531.041 570.562, 523.155 " />
            <path fill="none" stroke-width="1.5" stroke-linecap="round" stroke-opacity="1.0" stroke="rgb(0, 0, 0)" stroke-linejoin="round" d=" M 570.562, 523.155 570.562, 523.155 570.562, 523.155 " />
            <path fill="none" stroke-width="1.5" stroke-linecap="round" stroke-opacity="1.0" stroke="rgb(0, 0, 0)" stroke-linejoin="round" d=" M 459.015, 570.562 459.015, 570.562 459.015, 570.562 469.015, 570.562 479.015, 570.562 489.015, 570.562 499.015, 570.562 509.015, 570.562 519.015, 570.562 529.015, 570.562 539.015, 570.562 549.015, 570.562 559.015, 570.562 569.015, 570.562 570.562, 570.562 570.562, 570.562 570.562, 560.562 570.562, 559.407 570.562, 559.407 570.562, 559.407 560.562, 559.407 550.562, 559.407 540.562, 559.407 530.562, 559.407 520.562, 559.407 510.562, 559.407 500.562, 559.407 490.562, 559.407 480.562, 559.407 470.562, 559.407 460.562, 559.407 459.015, 559.407 459.015, 569.407 459.015, 570.562 459.015, 570.562 " />
            <path fill="none" stroke-width="1.5" stroke-linecap="round" stroke-opacity="1.0" stroke="rgb(0, 0, 0)" stroke-linejoin="round" d=" M 459.015, 570.562 459.015, 570.562 469.015, 570.562 479.015, 570.562 489.015, 570.562 499.015, 570.562 509.015, 570.562 519.015, 570.562 529.015, 570.562 539.015, 570.562 549.015, 570.562 559.015, 570.562 569.015, 570.562 570.562, 570.562 " />
            <path fill="none" stroke-width="1.5" stroke-linecap="round" stroke-opacity="1.0" stroke="rgb(0, 0, 0)" stroke-linejoin="round" d=" M 459.015, 523.155 453.438, 523.155 453.438, 533.155 453.438, 543.155 453.438, 551.041 453.438, 551.041 459.015, 551.041 " />
            <path fill="none" stroke-width="1.5" stroke-linecap="round" stroke-opacity="1.0" stroke="rgb(0, 0, 0)" stroke-linejoin="round" d=" M 453.438, 551.041 459.015, 551.041 " />
            <path fill="none" stroke-width="1.5" stroke-linecap="round" stroke-opacity="1.0" stroke="rgb(0, 0, 0)" stroke-linejoin="round" d=" M 459.015, 551.041 469.015, 551.041 479.015, 551.041 489.015, 551.041 499.015, 551.041 509.015, 551.041 519.015, 551.041 529.015, 551.041 539.015, 551.041 549.015, 551.041 559.015, 551.041 569.015, 551.041 570.562, 551.041 570.562, 541.041 570.562, 531.041 570.562, 523.155 " />
            <path fill="none" stroke-width="1.5" stroke-linecap="round" stroke-opacity="1.0" stroke="rgb(0, 0, 0)" stroke-linejoin="round" d=" M 570.562, 523.155 570.562, 523.155 570.562, 523.155 " />
            <path fill="none" stroke-width="1.5" stroke-linecap="round" stroke-opacity="1.0" stroke="rgb(0, 0, 0)" stroke-linejoin="round" d=" M 459.015, 551.041 459.015, 551.041 459.015, 551.041 " />
            <path fill="none" stroke-width="1.5" stroke-linecap="round" stroke-opacity="1.0" stroke="rgb(0, 0, 0)" stroke-linejoin="round" d=" M 570.562, 551.041 570.562, 541.041 570.562, 531.041 570.562, 523.155 " />
            <path fill="none" stroke-width="1.5" stroke-linecap="round" stroke-opacity="1.0" stroke="rgb(0, 0, 0)" stroke-linejoin="round" d=" M 459.015, 523.155 459.015, 523.155 459.015, 533.155 459.015, 543.155 459.015, 551.041 " />
            <path fill="none" stroke-width="1.5" stroke-linecap="round" stroke-opacity="1.0" stroke="rgb(0, 0, 0)" stroke-linejoin="round" d=" M 459.015, 551.041 459.015, 551.041 " />
            <path fill="none" stroke-width="1.5" stroke-linecap="round" stroke-opacity="1.0" stroke="rgb(0, 0, 0)" stroke-linejoin="round" d=" M 459.015, 551.041 459.015, 551.041 " />
            <path fill="none" stroke-width="1.5" stroke-linecap="round" stroke-opacity="1.0" stroke="rgb(0, 0, 0)" stroke-linejoin="round" d=" M 464.593, 551.041 464.593, 551.041 " />
            <path fill="none" stroke-width="1.5" stroke-linecap="round" stroke-opacity="1.0" stroke="rgb(0, 0, 0)" stroke-linejoin="round" d=" M 464.593, 551.041 464.593, 551.041 474.593, 551.041 484.593, 551.041 494.593, 551.041 504.593, 551.041 514.593, 551.041 524.593, 551.041 534.593, 551.041 544.593, 551.041 554.593, 551.041 564.593, 551.041 570.562, 551.041 " />
            <path fill="none" stroke-width="1.5" stroke-linecap="round" stroke-opacity="1.0" stroke="rgb(0, 0, 0)" stroke-linejoin="round" d=" M 459.015, 551.041 464.593, 551.041 " />
            <path fill="none" stroke-width="1.5" stroke-linecap="round" stroke-opacity="1.0" stroke="rgb(0, 0, 0)" stroke-linejoin="round" d=" M 459.015, 551.041 459.015, 551.041 " />
            <path fill="none" stroke-width="1.5" stroke-linecap="round" stroke-opacity="1.0" stroke="rgb(0, 0, 0)" stroke-linejoin="round" d=" M 459.015, 551.041 459.015, 551.041 " />
            <path fill="none" stroke-width="1.5" stroke-linecap="round" stroke-opacity="1.0" stroke="rgb(0, 0, 0)" stroke-linejoin="round" d=" M 459.015, 551.041 459.015, 551.041 " />
            <path fill="none" stroke-width="1.5" stroke-linecap="round" stroke-opacity="1.0" stroke="rgb(0, 0, 0)" stroke-linejoin="round" d=" M 570.562, 523.155 570.562, 523.155 " />
            <path fill="none" stroke-width="1.5" stroke-linecap="round" stroke-opacity="1.0" stroke="rgb(0, 0, 0)" stroke-linejoin="round" d=" M 570.562, 523.155 570.562, 523.155 " />
            <path fill="none" stroke-width="1.5" stroke-linecap="round" stroke-opacity="1.0" stroke="rgb(0, 0, 0)" stroke-linejoin="round" d=" M 570.562, 523.155 570.562, 523.155 " />
            <path fill="none" stroke-width="1.5" stroke-linecap="round" stroke-opacity="1.0" stroke="rgb(0, 0, 0)" stroke-linejoin="round" d=" M 464.593, 523.155 459.015, 523.155 " />
            <path fill="none" stroke-width="1.5" stroke-linecap="round" stroke-opacity="1.0" stroke="rgb(0, 0, 0)" stroke-linejoin="round" d=" M 570.562, 523.155 560.562, 523.155 550.562, 523.155 540.562, 523.155 530.562, 523.155 520.562, 523.155 510.562, 523.155 500.562, 523.155 490.562, 523.155 480.562, 523.155 470.562, 523.155 464.593, 523.155 " />
            <path fill="none" stroke-width="1.5" stroke-linecap="round" stroke-opacity="1.0" stroke="rgb(0, 0, 0)" stroke-linejoin="round" d=" M 459.015, 551.041 459.015, 551.041 " />
            <path fill="none" stroke-width="1.5" stroke-linecap="round" stroke-opacity="1.0" stroke="rgb(0, 0, 0)" stroke-linejoin="round" d=" M 570.562, 523.155 570.562, 523.155 " />
            <path fill="none" stroke-width="1.5" stroke-linecap="round" stroke-opacity="1.0" stroke="rgb(0, 0, 0)" stroke-linejoin="round" d=" M 459.015, 551.041 459.015, 551.041 " />
        </g>
    </g>
</svg>
