<?xml version='1.0' encoding='ascii'?>
<svg xmlns="http://www.w3.org/2000/svg" xmlns:inkscape="http://www.inkscape.org/namespaces/inkscape" version="1.1" width="1024" height="1024">
    <g id="ViewLayer_LineSet" inkscape:groupmode="lineset" inkscape:label="ViewLayer_LineSet">
        <g inkscape:groupmode="layer" id="strokes" inkscape:label="strokes">
            <path fill="none" stroke-width="3.0" stroke-linecap="butt" stroke-opacity="1.0" stroke="rgb(0, 0, 0)" stroke-linejoin="round" d=" M 429.037, 796.444 429.037, 796.444 429.037, 786.444 429.037, 776.444 429.037, 766.444 429.037, 756.444 429.037, 746.444 429.037, 736.444 429.037, 726.444 429.037, 716.444 429.037, 706.444 429.037, 696.444 429.037, 686.444 429.037, 676.444 429.037, 666.444 429.037, 656.444 429.037, 646.444 429.037, 636.444 429.037, 626.444 429.037, 616.444 429.037, 606.815 " />
            <path fill="none" stroke-width="3.0" stroke-linecap="butt" stroke-opacity="1.0" stroke="rgb(0, 0, 0)" stroke-linejoin="round" d=" M 418.502, 606.815 422.094, 606.815 " />
            <path fill="none" stroke-width="3.0" stroke-linecap="butt" stroke-opacity="1.0" stroke="rgb(0, 0, 0)" stroke-linejoin="round" d=" M 429.037, 796.444 429.037, 786.444 429.037, 776.444 429.037, 766.444 429.037, 756.444 429.037, 746.444 429.037, 736.444 429.037, 726.444 429.037, 716.444 429.037, 706.444 429.037, 696.444 429.037, 686.444 429.037, 676.444 429.037, 666.444 429.037, 656.444 429.037, 646.444 429.037, 636.444 429.037, 626.444 429.037, 616.444 429.037, 606.815 428.582, 606.815 427.233, 606.815 425.042, 606.815 422.094, 606.815 418.502, 606.815 414.404, 606.815 409.958, 606.815 405.333, 606.815 400.709, 606.815 396.262, 606.815 392.164, 606.815 388.572, 606.815 385.624, 606.815 383.434, 606.815 382.085, 606.815 381.630, 606.815 " />
            <path fill="none" stroke-width="3.0" stroke-linecap="butt" stroke-opacity="1.0" stroke="rgb(0, 0, 0)" stroke-linejoin="round" d=" M 381.630, 796.444 382.085, 796.444 383.434, 796.444 385.624, 796.444 388.572, 796.444 392.164, 796.444 396.262, 796.444 400.709, 796.444 405.333, 796.444 409.958, 796.444 414.404, 796.444 418.502, 796.444 422.094, 796.444 425.042, 796.444 427.233, 796.444 428.582, 796.444 429.037, 796.444 " />
            <path fill="none" stroke-width="3.0" stroke-linecap="butt" stroke-opacity="1.0" stroke="rgb(0, 0, 0)" stroke-linejoin="round" d=" M 625.609, 606.815 629.201, 606.815 " />
            <path fill="none" stroke-width="3.0" stroke-linecap="butt" stroke-opacity="1.0" stroke="rgb(0, 0, 0)" stroke-linejoin="round" d=" M 666.074, 796.444 666.074, 786.444 666.074, 776.444 666.074, 766.444 666.074, 756.444 666.074, 746.444 666.074, 736.444 666.074, 726.444 666.074, 716.444 666.074, 706.444 666.074, 696.444 666.074, 686.444 666.074, 676.444 666.074, 666.444 666.074, 656.444 666.074, 646.444 666.074, 636.444 666.074, 626.444 666.074, 616.444 666.074, 606.815 665.619, 606.815 664.270, 606.815 662.079, 606.815 659.131, 606.815 655.539, 606.815 651.441, 606.815 646.995, 606.815 642.370, 606.815 637.746, 606.815 633.299, 606.815 629.201, 606.815 625.609, 606.815 622.661, 606.815 620.471, 606.815 619.122, 606.815 618.667, 606.815 618.667, 616.815 618.667, 626.815 618.667, 636.815 618.667, 646.815 618.667, 656.815 618.667, 666.815 618.667, 676.815 618.667, 686.815 618.667, 696.815 618.667, 706.815 618.667, 716.815 618.667, 726.815 618.667, 736.815 618.667, 746.815 618.667, 756.815 618.667, 766.815 618.667, 776.815 618.667, 786.815 618.667, 796.444 619.122, 796.444 620.471, 796.444 622.661, 796.444 625.609, 796.444 629.201, 796.444 633.299, 796.444 637.746, 796.444 642.370, 796.444 646.995, 796.444 651.441, 796.444 655.539, 796.444 659.131, 796.444 662.079, 796.444 664.270, 796.444 665.619, 796.444 666.074, 796.444 " />
            <path fill="none" stroke-width="3.0" stroke-linecap="butt" stroke-opacity="1.0" stroke="rgb(0, 0, 0)" stroke-linejoin="round" d=" M 381.630, 535.704 391.630, 535.704 401.630, 535.704 411.630, 535.704 421.630, 535.704 431.630, 535.704 441.630, 535.704 451.630, 535.704 461.630, 535.704 471.630, 535.704 481.630, 535.704 491.630, 535.704 501.630, 535.704 511.630, 535.704 521.630, 535.704 531.630, 535.704 541.630, 535.704 551.630, 535.704 561.630, 535.704 571.630, 535.704 581.630, 535.704 591.630, 535.704 601.630, 535.704 611.630, 535.704 621.630, 535.704 631.630, 535.704 641.630, 535.704 651.630, 535.704 661.630, 535.704 666.074, 535.704 666.074, 535.704 666.074, 525.704 666.074, 515.704 666.074, 505.704 666.074, 495.704 666.074, 488.296 666.074, 488.296 656.074, 488.296 646.074, 488.296 636.074, 488.296 626.074, 488.296 616.074, 488.296 606.074, 488.296 596.074, 488.296 586.074, 488.296 576.074, 488.296 566.074, 488.296 556.074, 488.296 546.074, 488.296 536.074, 488.296 526.074, 488.296 516.074, 488.296 506.074, 488.296 496.074, 488.296 486.074, 488.296 476.074, 488.296 466.074, 488.296 456.074, 488.296 446.074, 488.296 436.074, 488.296 426.074, 488.296 416.074, 488.296 406.074, 488.296 396.074, 488.296 386.074, 488.296 381.630, 488.296 381.630, 498.296 381.630, 508.296 381.630, 518.296 381.630, 528.296 381.630, 535.704 381.630, 535.704 " />
            <path fill="none" stroke-width="3.0" stroke-linecap="butt" stroke-opacity="1.0" stroke="rgb(0, 0, 0)" stroke-linejoin="round" d=" M 381.630, 535.704 391.630, 535.704 401.630, 535.704 411.630, 535.704 421.630, 535.704 431.630, 535.704 441.630, 535.704 451.630, 535.704 461.630, 535.704 471.630, 535.704 481.630, 535.704 491.630, 535.704 501.630, 535.704 511.630, 535.704 521.630, 535.704 531.630, 535.704 541.630, 535.704 551.630, 535.704 561.630, 535.704 571.630, 535.704 581.630, 535.704 591.630, 535.704 601.630, 535.704 611.630, 535.704 621.630, 535.704 631.630, 535.704 641.630, 535.704 651.630, 535.704 661.630, 535.704 666.074, 535.704 " />
            <path fill="none" stroke-width="3.0" stroke-linecap="butt" stroke-opacity="1.0" stroke="rgb(0, 0, 0)" stroke-linejoin="round" d=" M 405.333, 403.455 405.333, 393.455 405.333, 383.455 405.333, 373.455 405.333, 363.455 405.333, 353.455 405.333, 343.455 405.333, 333.455 405.333, 323.455 405.333, 313.455 405.333, 303.455 405.333, 293.455 405.333, 283.455 405.333, 273.455 405.333, 263.455 405.333, 253.455 405.333, 243.455 405.333, 233.455 405.333, 227.556 405.333, 227.556 395.333, 227.556 385.333, 227.556 375.333, 227.556 365.333, 227.556 357.926, 227.556 357.926, 227.556 357.926, 237.556 357.926, 247.556 357.926, 257.556 357.926, 267.556 357.926, 277.556 357.926, 287.556 357.926, 297.556 357.926, 307.556 357.926, 317.556 357.926, 327.556 357.926, 337.556 357.926, 347.556 357.926, 357.556 357.926, 367.556 357.926, 377.556 357.926, 387.556 357.926, 397.556 357.926, 407.556 357.926, 417.556 357.926, 427.556 357.926, 437.556 357.926, 447.556 357.926, 457.556 357.926, 464.593 357.926, 464.593 367.926, 464.593 377.926, 464.593 387.926, 464.593 397.926, 464.593 405.333, 464.593 405.333, 454.593 405.333, 444.593 405.333, 434.593 405.333, 430.915 405.333, 430.915 " />
            <path fill="none" stroke-width="3.0" stroke-linecap="butt" stroke-opacity="1.0" stroke="rgb(0, 0, 0)" stroke-linejoin="round" d=" M 405.333, 227.556 405.333, 237.556 405.333, 247.556 405.333, 257.556 405.333, 267.556 405.333, 277.556 405.333, 287.556 405.333, 297.556 405.333, 307.556 405.333, 317.556 405.333, 327.556 405.333, 337.556 405.333, 347.556 405.333, 357.556 405.333, 367.556 405.333, 377.556 405.333, 387.556 405.333, 397.556 405.333, 403.455 " />
            <path fill="none" stroke-width="3.0" stroke-linecap="butt" stroke-opacity="1.0" stroke="rgb(0, 0, 0)" stroke-linejoin="round" d=" M 405.333, 464.593 405.333, 464.593 " />
            <path fill="none" stroke-width="3.0" stroke-linecap="butt" stroke-opacity="1.0" stroke="rgb(0, 0, 0)" stroke-linejoin="round" d=" M 357.926, 464.593 367.926, 464.593 377.926, 464.593 387.926, 464.593 397.926, 464.593 405.333, 464.593 405.333, 454.593 405.333, 444.593 405.333, 434.593 405.333, 430.915 405.333, 430.915 " />
            <path fill="none" stroke-width="3.0" stroke-linecap="butt" stroke-opacity="1.0" stroke="rgb(0, 0, 0)" stroke-linejoin="round" d=" M 405.333, 430.915 415.333, 430.915 425.333, 430.915 435.333, 430.915 445.333, 430.915 455.333, 430.915 465.333, 430.915 475.333, 430.915 485.333, 430.915 495.333, 430.915 505.333, 430.915 515.333, 430.915 525.333, 430.915 535.333, 430.915 545.333, 430.915 555.333, 430.915 565.333, 430.915 575.333, 430.915 585.333, 430.915 595.333, 430.915 605.333, 430.915 615.333, 430.915 625.333, 430.915 635.333, 430.915 645.333, 430.915 655.333, 430.915 666.074, 430.915 666.074, 426.799 666.074, 416.799 666.074, 407.571 666.074, 403.455 666.074, 403.455 " />
            <path fill="none" stroke-width="3.0" stroke-linecap="butt" stroke-opacity="1.0" stroke="rgb(0, 0, 0)" stroke-linejoin="round" d=" M 666.074, 407.571 666.074, 407.571 " />
            <path fill="none" stroke-width="3.0" stroke-linecap="butt" stroke-opacity="1.0" stroke="rgb(0, 0, 0)" stroke-linejoin="round" d=" M 381.630, 430.915 391.630, 430.915 401.630, 430.915 405.333, 430.915 405.333, 430.915 415.333, 430.915 425.333, 430.915 435.333, 430.915 445.333, 430.915 455.333, 430.915 465.333, 430.915 475.333, 430.915 485.333, 430.915 495.333, 430.915 505.333, 430.915 515.333, 430.915 525.333, 430.915 535.333, 430.915 545.333, 430.915 555.333, 430.915 565.333, 430.915 575.333, 430.915 585.333, 430.915 595.333, 430.915 605.333, 430.915 615.333, 430.915 625.333, 430.915 635.333, 430.915 645.333, 430.915 655.333, 430.915 666.074, 430.915 666.074, 426.799 666.074, 416.799 666.074, 407.571 666.074, 407.571 666.074, 403.455 666.074, 403.455 656.074, 403.455 646.074, 403.455 636.074, 403.455 626.074, 403.455 616.074, 403.455 606.074, 403.455 596.074, 403.455 586.074, 403.455 576.074, 403.455 566.074, 403.455 556.074, 403.455 546.074, 403.455 536.074, 403.455 526.074, 403.455 516.074, 403.455 506.074, 403.455 496.074, 403.455 486.074, 403.455 476.074, 403.455 466.074, 403.455 456.074, 403.455 446.074, 403.455 436.074, 403.455 426.074, 403.455 416.074, 403.455 405.333, 403.455 405.333, 403.455 395.333, 403.455 385.333, 403.455 381.630, 403.455 381.630, 407.571 381.630, 417.571 381.630, 427.571 381.630, 430.915 381.630, 430.915 " />
            <path fill="none" stroke-width="3.0" stroke-linecap="butt" stroke-opacity="1.0" stroke="rgb(0, 0, 0)" stroke-linejoin="round" d=" M 666.074, 407.571 656.074, 407.571 646.074, 407.571 636.074, 407.571 626.074, 407.571 616.074, 407.571 606.074, 407.571 596.074, 407.571 586.074, 407.571 576.074, 407.571 566.074, 407.571 556.074, 407.571 546.074, 407.571 536.074, 407.571 526.074, 407.571 516.074, 407.571 506.074, 407.571 496.074, 407.571 486.074, 407.571 476.074, 407.571 466.074, 407.571 456.074, 407.571 446.074, 407.571 436.074, 407.571 426.074, 407.571 416.074, 407.571 405.333, 407.571 395.333, 407.571 385.333, 407.571 381.630, 407.571 381.630, 407.571 " />
            <path fill="none" stroke-width="3.0" stroke-linecap="butt" stroke-opacity="1.0" stroke="rgb(0, 0, 0)" stroke-linejoin="round" d=" M 381.630, 606.815 381.630, 616.815 381.630, 626.815 381.630, 636.815 381.630, 646.815 381.630, 656.815 381.630, 666.815 381.630, 676.815 381.630, 686.815 381.630, 696.815 381.630, 706.815 381.630, 716.815 381.630, 726.815 381.630, 736.815 381.630, 746.815 381.630, 756.815 381.630, 766.815 381.630, 776.815 381.630, 786.815 381.630, 796.444 " />
        </g>
    </g>
    <g id="ViewLayer_TechnicalLines" inkscape:groupmode="lineset" inkscape:label="ViewLayer_TechnicalLines">
        <g inkscape:groupmode="layer" id="strokes" inkscape:label="strokes">
            <path fill="none" stroke-width="3.0" stroke-linecap="butt" stroke-opacity="1.0" stroke="rgb(0, 0, 0)" stroke-linejoin="round" d=" M 429.037, 796.444 429.037, 796.444 429.037, 786.444 429.037, 776.444 429.037, 766.444 429.037, 756.444 429.037, 746.444 429.037, 736.444 429.037, 726.444 429.037, 716.444 429.037, 706.444 429.037, 696.444 429.037, 686.444 429.037, 676.444 429.037, 666.444 429.037, 656.444 429.037, 646.444 429.037, 636.444 429.037, 626.444 429.037, 616.444 429.037, 606.815 " />
            <path fill="none" stroke-width="3.0" stroke-linecap="butt" stroke-opacity="1.0" stroke="rgb(0, 0, 0)" stroke-linejoin="round" d=" M 418.502, 606.815 422.094, 606.815 " />
            <path fill="none" stroke-width="3.0" stroke-linecap="butt" stroke-opacity="1.0" stroke="rgb(0, 0, 0)" stroke-linejoin="round" d=" M 429.037, 796.444 429.037, 786.444 429.037, 776.444 429.037, 766.444 429.037, 756.444 429.037, 746.444 429.037, 736.444 429.037, 726.444 429.037, 716.444 429.037, 706.444 429.037, 696.444 429.037, 686.444 429.037, 676.444 429.037, 666.444 429.037, 656.444 429.037, 646.444 429.037, 636.444 429.037, 626.444 429.037, 616.444 429.037, 606.815 428.582, 606.815 427.233, 606.815 425.042, 606.815 422.094, 606.815 418.502, 606.815 414.404, 606.815 409.958, 606.815 405.333, 606.815 400.709, 606.815 396.262, 606.815 392.164, 606.815 388.572, 606.815 385.624, 606.815 383.434, 606.815 382.085, 606.815 381.630, 606.815 " />
            <path fill="none" stroke-width="3.0" stroke-linecap="butt" stroke-opacity="1.0" stroke="rgb(0, 0, 0)" stroke-linejoin="round" d=" M 381.630, 796.444 382.085, 796.444 383.434, 796.444 385.624, 796.444 388.572, 796.444 392.164, 796.444 396.262, 796.444 400.709, 796.444 405.333, 796.444 409.958, 796.444 414.404, 796.444 418.502, 796.444 422.094, 796.444 425.042, 796.444 427.233, 796.444 428.582, 796.444 429.037, 796.444 " />
            <path fill="none" stroke-width="3.0" stroke-linecap="butt" stroke-opacity="1.0" stroke="rgb(0, 0, 0)" stroke-linejoin="round" d=" M 625.609, 606.815 629.201, 606.815 " />
            <path fill="none" stroke-width="3.0" stroke-linecap="butt" stroke-opacity="1.0" stroke="rgb(0, 0, 0)" stroke-linejoin="round" d=" M 666.074, 796.444 666.074, 786.444 666.074, 776.444 666.074, 766.444 666.074, 756.444 666.074, 746.444 666.074, 736.444 666.074, 726.444 666.074, 716.444 666.074, 706.444 666.074, 696.444 666.074, 686.444 666.074, 676.444 666.074, 666.444 666.074, 656.444 666.074, 646.444 666.074, 636.444 666.074, 626.444 666.074, 616.444 666.074, 606.815 665.619, 606.815 664.270, 606.815 662.079, 606.815 659.131, 606.815 655.539, 606.815 651.441, 606.815 646.995, 606.815 642.370, 606.815 637.746, 606.815 633.299, 606.815 629.201, 606.815 625.609, 606.815 622.661, 606.815 620.471, 606.815 619.122, 606.815 618.667, 606.815 618.667, 616.815 618.667, 626.815 618.667, 636.815 618.667, 646.815 618.667, 656.815 618.667, 666.815 618.667, 676.815 618.667, 686.815 618.667, 696.815 618.667, 706.815 618.667, 716.815 618.667, 726.815 618.667, 736.815 618.667, 746.815 618.667, 756.815 618.667, 766.815 618.667, 776.815 618.667, 786.815 618.667, 796.444 619.122, 796.444 620.471, 796.444 622.661, 796.444 625.609, 796.444 629.201, 796.444 633.299, 796.444 637.746, 796.444 642.370, 796.444 646.995, 796.444 651.441, 796.444 655.539, 796.444 659.131, 796.444 662.079, 796.444 664.270, 796.444 665.619, 796.444 666.074, 796.444 " />
            <path fill="none" stroke-width="3.0" stroke-linecap="butt" stroke-opacity="1.0" stroke="rgb(0, 0, 0)" stroke-linejoin="round" d=" M 381.630, 535.704 391.630, 535.704 401.630, 535.704 411.630, 535.704 421.630, 535.704 431.630, 535.704 441.630, 535.704 451.630, 535.704 461.630, 535.704 471.630, 535.704 481.630, 535.704 491.630, 535.704 501.630, 535.704 511.630, 535.704 521.630, 535.704 531.630, 535.704 541.630, 535.704 551.630, 535.704 561.630, 535.704 571.630, 535.704 581.630, 535.704 591.630, 535.704 601.630, 535.704 611.630, 535.704 621.630, 535.704 631.630, 535.704 641.630, 535.704 651.630, 535.704 661.630, 535.704 666.074, 535.704 666.074, 535.704 666.074, 525.704 666.074, 515.704 666.074, 505.704 666.074, 495.704 666.074, 488.296 666.074, 488.296 656.074, 488.296 646.074, 488.296 636.074, 488.296 626.074, 488.296 616.074, 488.296 606.074, 488.296 596.074, 488.296 586.074, 488.296 576.074, 488.296 566.074, 488.296 556.074, 488.296 546.074, 488.296 536.074, 488.296 526.074, 488.296 516.074, 488.296 506.074, 488.296 496.074, 488.296 486.074, 488.296 476.074, 488.296 466.074, 488.296 456.074, 488.296 446.074, 488.296 436.074, 488.296 426.074, 488.296 416.074, 488.296 406.074, 488.296 396.074, 488.296 386.074, 488.296 381.630, 488.296 381.630, 498.296 381.630, 508.296 381.630, 518.296 381.630, 528.296 381.630, 535.704 381.630, 535.704 " />
            <path fill="none" stroke-width="3.0" stroke-linecap="butt" stroke-opacity="1.0" stroke="rgb(0, 0, 0)" stroke-linejoin="round" d=" M 381.630, 535.704 391.630, 535.704 401.630, 535.704 411.630, 535.704 421.630, 535.704 431.630, 535.704 441.630, 535.704 451.630, 535.704 461.630, 535.704 471.630, 535.704 481.630, 535.704 491.630, 535.704 501.630, 535.704 511.630, 535.704 521.630, 535.704 531.630, 535.704 541.630, 535.704 551.630, 535.704 561.630, 535.704 571.630, 535.704 581.630, 535.704 591.630, 535.704 601.630, 535.704 611.630, 535.704 621.630, 535.704 631.630, 535.704 641.630, 535.704 651.630, 535.704 661.630, 535.704 666.074, 535.704 " />
            <path fill="none" stroke-width="3.0" stroke-linecap="butt" stroke-opacity="1.0" stroke="rgb(0, 0, 0)" stroke-linejoin="round" d=" M 405.333, 403.455 405.333, 393.455 405.333, 383.455 405.333, 373.455 405.333, 363.455 405.333, 353.455 405.333, 343.455 405.333, 333.455 405.333, 323.455 405.333, 313.455 405.333, 303.455 405.333, 293.455 405.333, 283.455 405.333, 273.455 405.333, 263.455 405.333, 253.455 405.333, 243.455 405.333, 233.455 405.333, 227.556 405.333, 227.556 395.333, 227.556 385.333, 227.556 375.333, 227.556 365.333, 227.556 357.926, 227.556 357.926, 227.556 357.926, 237.556 357.926, 247.556 357.926, 257.556 357.926, 267.556 357.926, 277.556 357.926, 287.556 357.926, 297.556 357.926, 307.556 357.926, 317.556 357.926, 327.556 357.926, 337.556 357.926, 347.556 357.926, 357.556 357.926, 367.556 357.926, 377.556 357.926, 387.556 357.926, 397.556 357.926, 407.556 357.926, 417.556 357.926, 427.556 357.926, 437.556 357.926, 447.556 357.926, 457.556 357.926, 464.593 357.926, 464.593 367.926, 464.593 377.926, 464.593 387.926, 464.593 397.926, 464.593 405.333, 464.593 405.333, 454.593 405.333, 444.593 405.333, 434.593 405.333, 430.915 405.333, 430.915 " />
            <path fill="none" stroke-width="3.0" stroke-linecap="butt" stroke-opacity="1.0" stroke="rgb(0, 0, 0)" stroke-linejoin="round" d=" M 405.333, 227.556 405.333, 237.556 405.333, 247.556 405.333, 257.556 405.333, 267.556 405.333, 277.556 405.333, 287.556 405.333, 297.556 405.333, 307.556 405.333, 317.556 405.333, 327.556 405.333, 337.556 405.333, 347.556 405.333, 357.556 405.333, 367.556 405.333, 377.556 405.333, 387.556 405.333, 397.556 405.333, 403.455 " />
            <path fill="none" stroke-width="3.0" stroke-linecap="butt" stroke-opacity="1.0" stroke="rgb(0, 0, 0)" stroke-linejoin="round" d=" M 405.333, 464.593 405.333, 464.593 " />
            <path fill="none" stroke-width="3.0" stroke-linecap="butt" stroke-opacity="1.0" stroke="rgb(0, 0, 0)" stroke-linejoin="round" d=" M 357.926, 464.593 367.926, 464.593 377.926, 464.593 387.926, 464.593 397.926, 464.593 405.333, 464.593 405.333, 454.593 405.333, 444.593 405.333, 434.593 405.333, 430.915 405.333, 430.915 " />
            <path fill="none" stroke-width="3.0" stroke-linecap="butt" stroke-opacity="1.0" stroke="rgb(0, 0, 0)" stroke-linejoin="round" d=" M 405.333, 430.915 415.333, 430.915 425.333, 430.915 435.333, 430.915 445.333, 430.915 455.333, 430.915 465.333, 430.915 475.333, 430.915 485.333, 430.915 495.333, 430.915 505.333, 430.915 515.333, 430.915 525.333, 430.915 535.333, 430.915 545.333, 430.915 555.333, 430.915 565.333, 430.915 575.333, 430.915 585.333, 430.915 595.333, 430.915 605.333, 430.915 615.333, 430.915 625.333, 430.915 635.333, 430.915 645.333, 430.915 655.333, 430.915 666.074, 430.915 666.074, 426.799 666.074, 416.799 666.074, 407.571 666.074, 403.455 666.074, 403.455 " />
            <path fill="none" stroke-width="3.0" stroke-linecap="butt" stroke-opacity="1.0" stroke="rgb(0, 0, 0)" stroke-linejoin="round" d=" M 666.074, 407.571 666.074, 407.571 " />
            <path fill="none" stroke-width="3.0" stroke-linecap="butt" stroke-opacity="1.0" stroke="rgb(0, 0, 0)" stroke-linejoin="round" d=" M 381.630, 430.915 391.630, 430.915 401.630, 430.915 405.333, 430.915 405.333, 430.915 415.333, 430.915 425.333, 430.915 435.333, 430.915 445.333, 430.915 455.333, 430.915 465.333, 430.915 475.333, 430.915 485.333, 430.915 495.333, 430.915 505.333, 430.915 515.333, 430.915 525.333, 430.915 535.333, 430.915 545.333, 430.915 555.333, 430.915 565.333, 430.915 575.333, 430.915 585.333, 430.915 595.333, 430.915 605.333, 430.915 615.333, 430.915 625.333, 430.915 635.333, 430.915 645.333, 430.915 655.333, 430.915 666.074, 430.915 666.074, 426.799 666.074, 416.799 666.074, 407.571 666.074, 407.571 666.074, 403.455 666.074, 403.455 656.074, 403.455 646.074, 403.455 636.074, 403.455 626.074, 403.455 616.074, 403.455 606.074, 403.455 596.074, 403.455 586.074, 403.455 576.074, 403.455 566.074, 403.455 556.074, 403.455 546.074, 403.455 536.074, 403.455 526.074, 403.455 516.074, 403.455 506.074, 403.455 496.074, 403.455 486.074, 403.455 476.074, 403.455 466.074, 403.455 456.074, 403.455 446.074, 403.455 436.074, 403.455 426.074, 403.455 416.074, 403.455 405.333, 403.455 405.333, 403.455 395.333, 403.455 385.333, 403.455 381.630, 403.455 381.630, 407.571 381.630, 417.571 381.630, 427.571 381.630, 430.915 381.630, 430.915 " />
            <path fill="none" stroke-width="3.0" stroke-linecap="butt" stroke-opacity="1.0" stroke="rgb(0, 0, 0)" stroke-linejoin="round" d=" M 666.074, 407.571 656.074, 407.571 646.074, 407.571 636.074, 407.571 626.074, 407.571 616.074, 407.571 606.074, 407.571 596.074, 407.571 586.074, 407.571 576.074, 407.571 566.074, 407.571 556.074, 407.571 546.074, 407.571 536.074, 407.571 526.074, 407.571 516.074, 407.571 506.074, 407.571 496.074, 407.571 486.074, 407.571 476.074, 407.571 466.074, 407.571 456.074, 407.571 446.074, 407.571 436.074, 407.571 426.074, 407.571 416.074, 407.571 405.333, 407.571 395.333, 407.571 385.333, 407.571 381.630, 407.571 381.630, 407.571 " />
            <path fill="none" stroke-width="3.0" stroke-linecap="butt" stroke-opacity="1.0" stroke="rgb(0, 0, 0)" stroke-linejoin="round" d=" M 381.630, 606.815 381.630, 616.815 381.630, 626.815 381.630, 636.815 381.630, 646.815 381.630, 656.815 381.630, 666.815 381.630, 676.815 381.630, 686.815 381.630, 696.815 381.630, 706.815 381.630, 716.815 381.630, 726.815 381.630, 736.815 381.630, 746.815 381.630, 756.815 381.630, 766.815 381.630, 776.815 381.630, 786.815 381.630, 796.444 " />
        </g>
    </g>
    <g id="ViewLayer_TechnicalLines.001" inkscape:groupmode="lineset" inkscape:label="ViewLayer_TechnicalLines.001">
        <g inkscape:groupmode="layer" id="strokes" inkscape:label="strokes">
            <path fill="none" stroke-width="1.5" stroke-linecap="round" stroke-opacity="1.0" stroke="rgb(0, 0, 0)" stroke-linejoin="round" d=" M 429.037, 796.444 429.037, 796.444 429.037, 786.444 429.037, 776.444 429.037, 766.444 429.037, 756.444 429.037, 746.444 429.037, 736.444 429.037, 726.444 429.037, 716.444 429.037, 706.444 429.037, 696.444 429.037, 686.444 429.037, 676.444 429.037, 666.444 429.037, 656.444 429.037, 646.444 429.037, 636.444 429.037, 626.444 429.037, 616.444 429.037, 606.815 " />
            <path fill="none" stroke-width="1.5" stroke-linecap="round" stroke-opacity="1.0" stroke="rgb(0, 0, 0)" stroke-linejoin="round" d=" M 418.502, 606.815 422.094, 606.815 " />
            <path fill="none" stroke-width="1.5" stroke-linecap="round" stroke-opacity="1.0" stroke="rgb(0, 0, 0)" stroke-linejoin="round" d=" M 429.037, 796.444 429.037, 786.444 429.037, 776.444 429.037, 766.444 429.037, 756.444 429.037, 746.444 429.037, 736.444 429.037, 726.444 429.037, 716.444 429.037, 706.444 429.037, 696.444 429.037, 686.444 429.037, 676.444 429.037, 666.444 429.037, 656.444 429.037, 646.444 429.037, 636.444 429.037, 626.444 429.037, 616.444 429.037, 606.815 428.582, 606.815 427.233, 606.815 425.042, 606.815 422.094, 606.815 418.502, 606.815 414.404, 606.815 409.958, 606.815 405.333, 606.815 400.709, 606.815 396.262, 606.815 392.164, 606.815 388.572, 606.815 385.624, 606.815 383.434, 606.815 382.085, 606.815 381.630, 606.815 " />
            <path fill="none" stroke-width="1.5" stroke-linecap="round" stroke-opacity="1.0" stroke="rgb(0, 0, 0)" stroke-linejoin="round" d=" M 381.630, 796.444 382.085, 796.444 383.434, 796.444 385.624, 796.444 388.572, 796.444 392.164, 796.444 396.262, 796.444 400.709, 796.444 405.333, 796.444 409.958, 796.444 414.404, 796.444 418.502, 796.444 422.094, 796.444 425.042, 796.444 427.233, 796.444 428.582, 796.444 429.037, 796.444 " />
            <path fill="none" stroke-width="1.5" stroke-linecap="round" stroke-opacity="1.0" stroke="rgb(0, 0, 0)" stroke-linejoin="round" d=" M 625.609, 606.815 629.201, 606.815 " />
            <path fill="none" stroke-width="1.5" stroke-linecap="round" stroke-opacity="1.0" stroke="rgb(0, 0, 0)" stroke-linejoin="round" d=" M 666.074, 796.444 666.074, 786.444 666.074, 776.444 666.074, 766.444 666.074, 756.444 666.074, 746.444 666.074, 736.444 666.074, 726.444 666.074, 716.444 666.074, 706.444 666.074, 696.444 666.074, 686.444 666.074, 676.444 666.074, 666.444 666.074, 656.444 666.074, 646.444 666.074, 636.444 666.074, 626.444 666.074, 616.444 666.074, 606.815 665.619, 606.815 664.270, 606.815 662.079, 606.815 659.131, 606.815 655.539, 606.815 651.441, 606.815 646.995, 606.815 642.370, 606.815 637.746, 606.815 633.299, 606.815 629.201, 606.815 625.609, 606.815 622.661, 606.815 620.471, 606.815 619.122, 606.815 618.667, 606.815 618.667, 616.815 618.667, 626.815 618.667, 636.815 618.667, 646.815 618.667, 656.815 618.667, 666.815 618.667, 676.815 618.667, 686.815 618.667, 696.815 618.667, 706.815 618.667, 716.815 618.667, 726.815 618.667, 736.815 618.667, 746.815 618.667, 756.815 618.667, 766.815 618.667, 776.815 618.667, 786.815 618.667, 796.444 619.122, 796.444 620.471, 796.444 622.661, 796.444 625.609, 796.444 629.201, 796.444 633.299, 796.444 637.746, 796.444 642.370, 796.444 646.995, 796.444 651.441, 796.444 655.539, 796.444 659.131, 796.444 662.079, 796.444 664.270, 796.444 665.619, 796.444 666.074, 796.444 " />
            <path fill="none" stroke-width="1.5" stroke-linecap="round" stroke-opacity="1.0" stroke="rgb(0, 0, 0)" stroke-linejoin="round" d=" M 381.630, 535.704 391.630, 535.704 401.630, 535.704 411.630, 535.704 421.630, 535.704 431.630, 535.704 441.630, 535.704 451.630, 535.704 461.630, 535.704 471.630, 535.704 481.630, 535.704 491.630, 535.704 501.630, 535.704 511.630, 535.704 521.630, 535.704 531.630, 535.704 541.630, 535.704 551.630, 535.704 561.630, 535.704 571.630, 535.704 581.630, 535.704 591.630, 535.704 601.630, 535.704 611.630, 535.704 621.630, 535.704 631.630, 535.704 641.630, 535.704 651.630, 535.704 661.630, 535.704 666.074, 535.704 666.074, 535.704 666.074, 525.704 666.074, 515.704 666.074, 505.704 666.074, 495.704 666.074, 488.296 666.074, 488.296 656.074, 488.296 646.074, 488.296 636.074, 488.296 626.074, 488.296 616.074, 488.296 606.074, 488.296 596.074, 488.296 586.074, 488.296 576.074, 488.296 566.074, 488.296 556.074, 488.296 546.074, 488.296 536.074, 488.296 526.074, 488.296 516.074, 488.296 506.074, 488.296 496.074, 488.296 486.074, 488.296 476.074, 488.296 466.074, 488.296 456.074, 488.296 446.074, 488.296 436.074, 488.296 426.074, 488.296 416.074, 488.296 406.074, 488.296 396.074, 488.296 386.074, 488.296 381.630, 488.296 381.630, 498.296 381.630, 508.296 381.630, 518.296 381.630, 528.296 381.630, 535.704 381.630, 535.704 " />
            <path fill="none" stroke-width="1.5" stroke-linecap="round" stroke-opacity="1.0" stroke="rgb(0, 0, 0)" stroke-linejoin="round" d=" M 381.630, 535.704 391.630, 535.704 401.630, 535.704 411.630, 535.704 421.630, 535.704 431.630, 535.704 441.630, 535.704 451.630, 535.704 461.630, 535.704 471.630, 535.704 481.630, 535.704 491.630, 535.704 501.630, 535.704 511.630, 535.704 521.630, 535.704 531.630, 535.704 541.630, 535.704 551.630, 535.704 561.630, 535.704 571.630, 535.704 581.630, 535.704 591.630, 535.704 601.630, 535.704 611.630, 535.704 621.630, 535.704 631.630, 535.704 641.630, 535.704 651.630, 535.704 661.630, 535.704 666.074, 535.704 " />
            <path fill="none" stroke-width="1.5" stroke-linecap="round" stroke-opacity="1.0" stroke="rgb(0, 0, 0)" stroke-linejoin="round" d=" M 405.333, 403.455 405.333, 393.455 405.333, 383.455 405.333, 373.455 405.333, 363.455 405.333, 353.455 405.333, 343.455 405.333, 333.455 405.333, 323.455 405.333, 313.455 405.333, 303.455 405.333, 293.455 405.333, 283.455 405.333, 273.455 405.333, 263.455 405.333, 253.455 405.333, 243.455 405.333, 233.455 405.333, 227.556 405.333, 227.556 395.333, 227.556 385.333, 227.556 375.333, 227.556 365.333, 227.556 357.926, 227.556 357.926, 227.556 357.926, 237.556 357.926, 247.556 357.926, 257.556 357.926, 267.556 357.926, 277.556 357.926, 287.556 357.926, 297.556 357.926, 307.556 357.926, 317.556 357.926, 327.556 357.926, 337.556 357.926, 347.556 357.926, 357.556 357.926, 367.556 357.926, 377.556 357.926, 387.556 357.926, 397.556 357.926, 407.556 357.926, 417.556 357.926, 427.556 357.926, 437.556 357.926, 447.556 357.926, 457.556 357.926, 464.593 357.926, 464.593 367.926, 464.593 377.926, 464.593 387.926, 464.593 397.926, 464.593 405.333, 464.593 405.333, 454.593 405.333, 444.593 405.333, 434.593 405.333, 430.915 405.333, 430.915 " />
            <path fill="none" stroke-width="1.5" stroke-linecap="round" stroke-opacity="1.0" stroke="rgb(0, 0, 0)" stroke-linejoin="round" d=" M 405.333, 227.556 405.333, 237.556 405.333, 247.556 405.333, 257.556 405.333, 267.556 405.333, 277.556 405.333, 287.556 405.333, 297.556 405.333, 307.556 405.333, 317.556 405.333, 327.556 405.333, 337.556 405.333, 347.556 405.333, 357.556 405.333, 367.556 405.333, 377.556 405.333, 387.556 405.333, 397.556 405.333, 403.455 " />
            <path fill="none" stroke-width="1.5" stroke-linecap="round" stroke-opacity="1.0" stroke="rgb(0, 0, 0)" stroke-linejoin="round" d=" M 405.333, 464.593 405.333, 464.593 " />
            <path fill="none" stroke-width="1.5" stroke-linecap="round" stroke-opacity="1.0" stroke="rgb(0, 0, 0)" stroke-linejoin="round" d=" M 357.926, 464.593 367.926, 464.593 377.926, 464.593 387.926, 464.593 397.926, 464.593 405.333, 464.593 405.333, 454.593 405.333, 444.593 405.333, 434.593 405.333, 430.915 405.333, 430.915 " />
            <path fill="none" stroke-width="1.5" stroke-linecap="round" stroke-opacity="1.0" stroke="rgb(0, 0, 0)" stroke-linejoin="round" d=" M 405.333, 430.915 415.333, 430.915 425.333, 430.915 435.333, 430.915 445.333, 430.915 455.333, 430.915 465.333, 430.915 475.333, 430.915 485.333, 430.915 495.333, 430.915 505.333, 430.915 515.333, 430.915 525.333, 430.915 535.333, 430.915 545.333, 430.915 555.333, 430.915 565.333, 430.915 575.333, 430.915 585.333, 430.915 595.333, 430.915 605.333, 430.915 615.333, 430.915 625.333, 430.915 635.333, 430.915 645.333, 430.915 655.333, 430.915 666.074, 430.915 666.074, 426.799 666.074, 416.799 666.074, 407.571 666.074, 403.455 666.074, 403.455 " />
            <path fill="none" stroke-width="1.5" stroke-linecap="round" stroke-opacity="1.0" stroke="rgb(0, 0, 0)" stroke-linejoin="round" d=" M 666.074, 407.571 666.074, 407.571 " />
            <path fill="none" stroke-width="1.5" stroke-linecap="round" stroke-opacity="1.0" stroke="rgb(0, 0, 0)" stroke-linejoin="round" d=" M 381.630, 430.915 391.630, 430.915 401.630, 430.915 405.333, 430.915 405.333, 430.915 415.333, 430.915 425.333, 430.915 435.333, 430.915 445.333, 430.915 455.333, 430.915 465.333, 430.915 475.333, 430.915 485.333, 430.915 495.333, 430.915 505.333, 430.915 515.333, 430.915 525.333, 430.915 535.333, 430.915 545.333, 430.915 555.333, 430.915 565.333, 430.915 575.333, 430.915 585.333, 430.915 595.333, 430.915 605.333, 430.915 615.333, 430.915 625.333, 430.915 635.333, 430.915 645.333, 430.915 655.333, 430.915 666.074, 430.915 666.074, 426.799 666.074, 416.799 666.074, 407.571 666.074, 407.571 666.074, 403.455 666.074, 403.455 656.074, 403.455 646.074, 403.455 636.074, 403.455 626.074, 403.455 616.074, 403.455 606.074, 403.455 596.074, 403.455 586.074, 403.455 576.074, 403.455 566.074, 403.455 556.074, 403.455 546.074, 403.455 536.074, 403.455 526.074, 403.455 516.074, 403.455 506.074, 403.455 496.074, 403.455 486.074, 403.455 476.074, 403.455 466.074, 403.455 456.074, 403.455 446.074, 403.455 436.074, 403.455 426.074, 403.455 416.074, 403.455 405.333, 403.455 405.333, 403.455 395.333, 403.455 385.333, 403.455 381.630, 403.455 381.630, 407.571 381.630, 417.571 381.630, 427.571 381.630, 430.915 381.630, 430.915 " />
            <path fill="none" stroke-width="1.5" stroke-linecap="round" stroke-opacity="1.0" stroke="rgb(0, 0, 0)" stroke-linejoin="round" d=" M 666.074, 407.571 656.074, 407.571 646.074, 407.571 636.074, 407.571 626.074, 407.571 616.074, 407.571 606.074, 407.571 596.074, 407.571 586.074, 407.571 576.074, 407.571 566.074, 407.571 556.074, 407.571 546.074, 407.571 536.074, 407.571 526.074, 407.571 516.074, 407.571 506.074, 407.571 496.074, 407.571 486.074, 407.571 476.074, 407.571 466.074, 407.571 456.074, 407.571 446.074, 407.571 436.074, 407.571 426.074, 407.571 416.074, 407.571 405.333, 407.571 395.333, 407.571 385.333, 407.571 381.630, 407.571 381.630, 407.571 " />
            <path fill="none" stroke-width="1.5" stroke-linecap="round" stroke-opacity="1.0" stroke="rgb(0, 0, 0)" stroke-linejoin="round" d=" M 381.630, 606.815 381.630, 616.815 381.630, 626.815 381.630, 636.815 381.630, 646.815 381.630, 656.815 381.630, 666.815 381.630, 676.815 381.630, 686.815 381.630, 696.815 381.630, 706.815 381.630, 716.815 381.630, 726.815 381.630, 736.815 381.630, 746.815 381.630, 756.815 381.630, 766.815 381.630, 776.815 381.630, 786.815 381.630, 796.444 " />
        </g>
    </g>
    <g id="ViewLayer_TechnicalLines.002" inkscape:groupmode="lineset" inkscape:label="ViewLayer_TechnicalLines.002">
        <g inkscape:groupmode="layer" id="strokes" inkscape:label="strokes">
            <path fill="none" stroke-width="1.5" stroke-linecap="round" stroke-opacity="1.0" stroke="rgb(0, 0, 0)" stroke-linejoin="round" d=" M 429.037, 796.444 429.037, 796.444 429.037, 786.444 429.037, 776.444 429.037, 766.444 429.037, 756.444 429.037, 746.444 429.037, 736.444 429.037, 726.444 429.037, 716.444 429.037, 706.444 429.037, 696.444 429.037, 686.444 429.037, 676.444 429.037, 666.444 429.037, 656.444 429.037, 646.444 429.037, 636.444 429.037, 626.444 429.037, 616.444 429.037, 606.815 " />
            <path fill="none" stroke-width="1.5" stroke-linecap="round" stroke-opacity="1.0" stroke="rgb(0, 0, 0)" stroke-linejoin="round" d=" M 418.502, 606.815 422.094, 606.815 " />
            <path fill="none" stroke-width="1.5" stroke-linecap="round" stroke-opacity="1.0" stroke="rgb(0, 0, 0)" stroke-linejoin="round" d=" M 429.037, 796.444 429.037, 786.444 429.037, 776.444 429.037, 766.444 429.037, 756.444 429.037, 746.444 429.037, 736.444 429.037, 726.444 429.037, 716.444 429.037, 706.444 429.037, 696.444 429.037, 686.444 429.037, 676.444 429.037, 666.444 429.037, 656.444 429.037, 646.444 429.037, 636.444 429.037, 626.444 429.037, 616.444 429.037, 606.815 428.582, 606.815 427.233, 606.815 425.042, 606.815 422.094, 606.815 418.502, 606.815 414.404, 606.815 409.958, 606.815 405.333, 606.815 400.709, 606.815 396.262, 606.815 392.164, 606.815 388.572, 606.815 385.624, 606.815 383.434, 606.815 382.085, 606.815 381.630, 606.815 " />
            <path fill="none" stroke-width="1.5" stroke-linecap="round" stroke-opacity="1.0" stroke="rgb(0, 0, 0)" stroke-linejoin="round" d=" M 381.630, 796.444 382.085, 796.444 383.434, 796.444 385.624, 796.444 388.572, 796.444 392.164, 796.444 396.262, 796.444 400.709, 796.444 405.333, 796.444 409.958, 796.444 414.404, 796.444 418.502, 796.444 422.094, 796.444 425.042, 796.444 427.233, 796.444 428.582, 796.444 429.037, 796.444 " />
            <path fill="none" stroke-width="1.5" stroke-linecap="round" stroke-opacity="1.0" stroke="rgb(0, 0, 0)" stroke-linejoin="round" d=" M 625.609, 606.815 629.201, 606.815 " />
            <path fill="none" stroke-width="1.5" stroke-linecap="round" stroke-opacity="1.0" stroke="rgb(0, 0, 0)" stroke-linejoin="round" d=" M 666.074, 796.444 666.074, 786.444 666.074, 776.444 666.074, 766.444 666.074, 756.444 666.074, 746.444 666.074, 736.444 666.074, 726.444 666.074, 716.444 666.074, 706.444 666.074, 696.444 666.074, 686.444 666.074, 676.444 666.074, 666.444 666.074, 656.444 666.074, 646.444 666.074, 636.444 666.074, 626.444 666.074, 616.444 666.074, 606.815 665.619, 606.815 664.270, 606.815 662.079, 606.815 659.131, 606.815 655.539, 606.815 651.441, 606.815 646.995, 606.815 642.370, 606.815 637.746, 606.815 633.299, 606.815 629.201, 606.815 625.609, 606.815 622.661, 606.815 620.471, 606.815 619.122, 606.815 618.667, 606.815 618.667, 616.815 618.667, 626.815 618.667, 636.815 618.667, 646.815 618.667, 656.815 618.667, 666.815 618.667, 676.815 618.667, 686.815 618.667, 696.815 618.667, 706.815 618.667, 716.815 618.667, 726.815 618.667, 736.815 618.667, 746.815 618.667, 756.815 618.667, 766.815 618.667, 776.815 618.667, 786.815 618.667, 796.444 619.122, 796.444 620.471, 796.444 622.661, 796.444 625.609, 796.444 629.201, 796.444 633.299, 796.444 637.746, 796.444 642.370, 796.444 646.995, 796.444 651.441, 796.444 655.539, 796.444 659.131, 796.444 662.079, 796.444 664.270, 796.444 665.619, 796.444 666.074, 796.444 " />
            <path fill="none" stroke-width="1.5" stroke-linecap="round" stroke-opacity="1.0" stroke="rgb(0, 0, 0)" stroke-linejoin="round" d=" M 381.630, 535.704 391.630, 535.704 401.630, 535.704 411.630, 535.704 421.630, 535.704 431.630, 535.704 441.630, 535.704 451.630, 535.704 461.630, 535.704 471.630, 535.704 481.630, 535.704 491.630, 535.704 501.630, 535.704 511.630, 535.704 521.630, 535.704 531.630, 535.704 541.630, 535.704 551.630, 535.704 561.630, 535.704 571.630, 535.704 581.630, 535.704 591.630, 535.704 601.630, 535.704 611.630, 535.704 621.630, 535.704 631.630, 535.704 641.630, 535.704 651.630, 535.704 661.630, 535.704 666.074, 535.704 666.074, 535.704 666.074, 525.704 666.074, 515.704 666.074, 505.704 666.074, 495.704 666.074, 488.296 666.074, 488.296 656.074, 488.296 646.074, 488.296 636.074, 488.296 626.074, 488.296 616.074, 488.296 606.074, 488.296 596.074, 488.296 586.074, 488.296 576.074, 488.296 566.074, 488.296 556.074, 488.296 546.074, 488.296 536.074, 488.296 526.074, 488.296 516.074, 488.296 506.074, 488.296 496.074, 488.296 486.074, 488.296 476.074, 488.296 466.074, 488.296 456.074, 488.296 446.074, 488.296 436.074, 488.296 426.074, 488.296 416.074, 488.296 406.074, 488.296 396.074, 488.296 386.074, 488.296 381.630, 488.296 381.630, 498.296 381.630, 508.296 381.630, 518.296 381.630, 528.296 381.630, 535.704 381.630, 535.704 " />
            <path fill="none" stroke-width="1.5" stroke-linecap="round" stroke-opacity="1.0" stroke="rgb(0, 0, 0)" stroke-linejoin="round" d=" M 381.630, 535.704 391.630, 535.704 401.630, 535.704 411.630, 535.704 421.630, 535.704 431.630, 535.704 441.630, 535.704 451.630, 535.704 461.630, 535.704 471.630, 535.704 481.630, 535.704 491.630, 535.704 501.630, 535.704 511.630, 535.704 521.630, 535.704 531.630, 535.704 541.630, 535.704 551.630, 535.704 561.630, 535.704 571.630, 535.704 581.630, 535.704 591.630, 535.704 601.630, 535.704 611.630, 535.704 621.630, 535.704 631.630, 535.704 641.630, 535.704 651.630, 535.704 661.630, 535.704 666.074, 535.704 " />
            <path fill="none" stroke-width="1.5" stroke-linecap="round" stroke-opacity="1.0" stroke="rgb(0, 0, 0)" stroke-linejoin="round" d=" M 405.333, 403.455 405.333, 393.455 405.333, 383.455 405.333, 373.455 405.333, 363.455 405.333, 353.455 405.333, 343.455 405.333, 333.455 405.333, 323.455 405.333, 313.455 405.333, 303.455 405.333, 293.455 405.333, 283.455 405.333, 273.455 405.333, 263.455 405.333, 253.455 405.333, 243.455 405.333, 233.455 405.333, 227.556 405.333, 227.556 395.333, 227.556 385.333, 227.556 375.333, 227.556 365.333, 227.556 357.926, 227.556 357.926, 227.556 357.926, 237.556 357.926, 247.556 357.926, 257.556 357.926, 267.556 357.926, 277.556 357.926, 287.556 357.926, 297.556 357.926, 307.556 357.926, 317.556 357.926, 327.556 357.926, 337.556 357.926, 347.556 357.926, 357.556 357.926, 367.556 357.926, 377.556 357.926, 387.556 357.926, 397.556 357.926, 407.556 357.926, 417.556 357.926, 427.556 357.926, 437.556 357.926, 447.556 357.926, 457.556 357.926, 464.593 357.926, 464.593 367.926, 464.593 377.926, 464.593 387.926, 464.593 397.926, 464.593 405.333, 464.593 405.333, 454.593 405.333, 444.593 405.333, 434.593 405.333, 430.915 405.333, 430.915 " />
            <path fill="none" stroke-width="1.5" stroke-linecap="round" stroke-opacity="1.0" stroke="rgb(0, 0, 0)" stroke-linejoin="round" d=" M 405.333, 227.556 405.333, 237.556 405.333, 247.556 405.333, 257.556 405.333, 267.556 405.333, 277.556 405.333, 287.556 405.333, 297.556 405.333, 307.556 405.333, 317.556 405.333, 327.556 405.333, 337.556 405.333, 347.556 405.333, 357.556 405.333, 367.556 405.333, 377.556 405.333, 387.556 405.333, 397.556 405.333, 403.455 " />
            <path fill="none" stroke-width="1.5" stroke-linecap="round" stroke-opacity="1.0" stroke="rgb(0, 0, 0)" stroke-linejoin="round" d=" M 405.333, 464.593 405.333, 464.593 " />
            <path fill="none" stroke-width="1.5" stroke-linecap="round" stroke-opacity="1.0" stroke="rgb(0, 0, 0)" stroke-linejoin="round" d=" M 357.926, 464.593 367.926, 464.593 377.926, 464.593 387.926, 464.593 397.926, 464.593 405.333, 464.593 405.333, 454.593 405.333, 444.593 405.333, 434.593 405.333, 430.915 405.333, 430.915 " />
            <path fill="none" stroke-width="1.5" stroke-linecap="round" stroke-opacity="1.0" stroke="rgb(0, 0, 0)" stroke-linejoin="round" d=" M 405.333, 430.915 415.333, 430.915 425.333, 430.915 435.333, 430.915 445.333, 430.915 455.333, 430.915 465.333, 430.915 475.333, 430.915 485.333, 430.915 495.333, 430.915 505.333, 430.915 515.333, 430.915 525.333, 430.915 535.333, 430.915 545.333, 430.915 555.333, 430.915 565.333, 430.915 575.333, 430.915 585.333, 430.915 595.333, 430.915 605.333, 430.915 615.333, 430.915 625.333, 430.915 635.333, 430.915 645.333, 430.915 655.333, 430.915 666.074, 430.915 666.074, 426.799 666.074, 416.799 666.074, 407.571 666.074, 403.455 666.074, 403.455 " />
            <path fill="none" stroke-width="1.5" stroke-linecap="round" stroke-opacity="1.0" stroke="rgb(0, 0, 0)" stroke-linejoin="round" d=" M 666.074, 407.571 666.074, 407.571 " />
            <path fill="none" stroke-width="1.5" stroke-linecap="round" stroke-opacity="1.0" stroke="rgb(0, 0, 0)" stroke-linejoin="round" d=" M 381.630, 430.915 391.630, 430.915 401.630, 430.915 405.333, 430.915 405.333, 430.915 415.333, 430.915 425.333, 430.915 435.333, 430.915 445.333, 430.915 455.333, 430.915 465.333, 430.915 475.333, 430.915 485.333, 430.915 495.333, 430.915 505.333, 430.915 515.333, 430.915 525.333, 430.915 535.333, 430.915 545.333, 430.915 555.333, 430.915 565.333, 430.915 575.333, 430.915 585.333, 430.915 595.333, 430.915 605.333, 430.915 615.333, 430.915 625.333, 430.915 635.333, 430.915 645.333, 430.915 655.333, 430.915 666.074, 430.915 666.074, 426.799 666.074, 416.799 666.074, 407.571 666.074, 407.571 666.074, 403.455 666.074, 403.455 656.074, 403.455 646.074, 403.455 636.074, 403.455 626.074, 403.455 616.074, 403.455 606.074, 403.455 596.074, 403.455 586.074, 403.455 576.074, 403.455 566.074, 403.455 556.074, 403.455 546.074, 403.455 536.074, 403.455 526.074, 403.455 516.074, 403.455 506.074, 403.455 496.074, 403.455 486.074, 403.455 476.074, 403.455 466.074, 403.455 456.074, 403.455 446.074, 403.455 436.074, 403.455 426.074, 403.455 416.074, 403.455 405.333, 403.455 405.333, 403.455 395.333, 403.455 385.333, 403.455 381.630, 403.455 381.630, 407.571 381.630, 417.571 381.630, 427.571 381.630, 430.915 381.630, 430.915 " />
            <path fill="none" stroke-width="1.5" stroke-linecap="round" stroke-opacity="1.0" stroke="rgb(0, 0, 0)" stroke-linejoin="round" d=" M 666.074, 407.571 656.074, 407.571 646.074, 407.571 636.074, 407.571 626.074, 407.571 616.074, 407.571 606.074, 407.571 596.074, 407.571 586.074, 407.571 576.074, 407.571 566.074, 407.571 556.074, 407.571 546.074, 407.571 536.074, 407.571 526.074, 407.571 516.074, 407.571 506.074, 407.571 496.074, 407.571 486.074, 407.571 476.074, 407.571 466.074, 407.571 456.074, 407.571 446.074, 407.571 436.074, 407.571 426.074, 407.571 416.074, 407.571 405.333, 407.571 395.333, 407.571 385.333, 407.571 381.630, 407.571 381.630, 407.571 " />
            <path fill="none" stroke-width="1.5" stroke-linecap="round" stroke-opacity="1.0" stroke="rgb(0, 0, 0)" stroke-linejoin="round" d=" M 381.630, 606.815 381.630, 616.815 381.630, 626.815 381.630, 636.815 381.630, 646.815 381.630, 656.815 381.630, 666.815 381.630, 676.815 381.630, 686.815 381.630, 696.815 381.630, 706.815 381.630, 716.815 381.630, 726.815 381.630, 736.815 381.630, 746.815 381.630, 756.815 381.630, 766.815 381.630, 776.815 381.630, 786.815 381.630, 796.444 " />
        </g>
    </g>
    <g id="ViewLayer_TechnicalLines.003" inkscape:groupmode="lineset" inkscape:label="ViewLayer_TechnicalLines.003">
        <g inkscape:groupmode="layer" id="strokes" inkscape:label="strokes">
            <path fill="none" stroke-width="1.5" stroke-linecap="round" stroke-opacity="1.0" stroke="rgb(0, 0, 0)" stroke-linejoin="round" d=" M 429.037, 796.444 429.037, 796.444 429.037, 786.444 429.037, 776.444 429.037, 766.444 429.037, 756.444 429.037, 746.444 429.037, 736.444 429.037, 726.444 429.037, 716.444 429.037, 706.444 429.037, 696.444 429.037, 686.444 429.037, 676.444 429.037, 666.444 429.037, 656.444 429.037, 646.444 429.037, 636.444 429.037, 626.444 429.037, 616.444 429.037, 606.815 " />
            <path fill="none" stroke-width="1.5" stroke-linecap="round" stroke-opacity="1.0" stroke="rgb(0, 0, 0)" stroke-linejoin="round" d=" M 418.502, 606.815 422.094, 606.815 " />
            <path fill="none" stroke-width="1.5" stroke-linecap="round" stroke-opacity="1.0" stroke="rgb(0, 0, 0)" stroke-linejoin="round" d=" M 429.037, 796.444 429.037, 786.444 429.037, 776.444 429.037, 766.444 429.037, 756.444 429.037, 746.444 429.037, 736.444 429.037, 726.444 429.037, 716.444 429.037, 706.444 429.037, 696.444 429.037, 686.444 429.037, 676.444 429.037, 666.444 429.037, 656.444 429.037, 646.444 429.037, 636.444 429.037, 626.444 429.037, 616.444 429.037, 606.815 428.582, 606.815 427.233, 606.815 425.042, 606.815 422.094, 606.815 418.502, 606.815 414.404, 606.815 409.958, 606.815 405.333, 606.815 400.709, 606.815 396.262, 606.815 392.164, 606.815 388.572, 606.815 385.624, 606.815 383.434, 606.815 382.085, 606.815 381.630, 606.815 " />
            <path fill="none" stroke-width="1.5" stroke-linecap="round" stroke-opacity="1.0" stroke="rgb(0, 0, 0)" stroke-linejoin="round" d=" M 381.630, 796.444 382.085, 796.444 383.434, 796.444 385.624, 796.444 388.572, 796.444 392.164, 796.444 396.262, 796.444 400.709, 796.444 405.333, 796.444 409.958, 796.444 414.404, 796.444 418.502, 796.444 422.094, 796.444 425.042, 796.444 427.233, 796.444 428.582, 796.444 429.037, 796.444 " />
            <path fill="none" stroke-width="1.5" stroke-linecap="round" stroke-opacity="1.0" stroke="rgb(0, 0, 0)" stroke-linejoin="round" d=" M 625.609, 606.815 629.201, 606.815 " />
            <path fill="none" stroke-width="1.5" stroke-linecap="round" stroke-opacity="1.0" stroke="rgb(0, 0, 0)" stroke-linejoin="round" d=" M 666.074, 796.444 666.074, 786.444 666.074, 776.444 666.074, 766.444 666.074, 756.444 666.074, 746.444 666.074, 736.444 666.074, 726.444 666.074, 716.444 666.074, 706.444 666.074, 696.444 666.074, 686.444 666.074, 676.444 666.074, 666.444 666.074, 656.444 666.074, 646.444 666.074, 636.444 666.074, 626.444 666.074, 616.444 666.074, 606.815 665.619, 606.815 664.270, 606.815 662.079, 606.815 659.131, 606.815 655.539, 606.815 651.441, 606.815 646.995, 606.815 642.370, 606.815 637.746, 606.815 633.299, 606.815 629.201, 606.815 625.609, 606.815 622.661, 606.815 620.471, 606.815 619.122, 606.815 618.667, 606.815 618.667, 616.815 618.667, 626.815 618.667, 636.815 618.667, 646.815 618.667, 656.815 618.667, 666.815 618.667, 676.815 618.667, 686.815 618.667, 696.815 618.667, 706.815 618.667, 716.815 618.667, 726.815 618.667, 736.815 618.667, 746.815 618.667, 756.815 618.667, 766.815 618.667, 776.815 618.667, 786.815 618.667, 796.444 619.122, 796.444 620.471, 796.444 622.661, 796.444 625.609, 796.444 629.201, 796.444 633.299, 796.444 637.746, 796.444 642.370, 796.444 646.995, 796.444 651.441, 796.444 655.539, 796.444 659.131, 796.444 662.079, 796.444 664.270, 796.444 665.619, 796.444 666.074, 796.444 " />
            <path fill="none" stroke-width="1.5" stroke-linecap="round" stroke-opacity="1.0" stroke="rgb(0, 0, 0)" stroke-linejoin="round" d=" M 381.630, 535.704 391.630, 535.704 401.630, 535.704 411.630, 535.704 421.630, 535.704 431.630, 535.704 441.630, 535.704 451.630, 535.704 461.630, 535.704 471.630, 535.704 481.630, 535.704 491.630, 535.704 501.630, 535.704 511.630, 535.704 521.630, 535.704 531.630, 535.704 541.630, 535.704 551.630, 535.704 561.630, 535.704 571.630, 535.704 581.630, 535.704 591.630, 535.704 601.630, 535.704 611.630, 535.704 621.630, 535.704 631.630, 535.704 641.630, 535.704 651.630, 535.704 661.630, 535.704 666.074, 535.704 666.074, 535.704 666.074, 525.704 666.074, 515.704 666.074, 505.704 666.074, 495.704 666.074, 488.296 666.074, 488.296 656.074, 488.296 646.074, 488.296 636.074, 488.296 626.074, 488.296 616.074, 488.296 606.074, 488.296 596.074, 488.296 586.074, 488.296 576.074, 488.296 566.074, 488.296 556.074, 488.296 546.074, 488.296 536.074, 488.296 526.074, 488.296 516.074, 488.296 506.074, 488.296 496.074, 488.296 486.074, 488.296 476.074, 488.296 466.074, 488.296 456.074, 488.296 446.074, 488.296 436.074, 488.296 426.074, 488.296 416.074, 488.296 406.074, 488.296 396.074, 488.296 386.074, 488.296 381.630, 488.296 381.630, 498.296 381.630, 508.296 381.630, 518.296 381.630, 528.296 381.630, 535.704 381.630, 535.704 " />
            <path fill="none" stroke-width="1.5" stroke-linecap="round" stroke-opacity="1.0" stroke="rgb(0, 0, 0)" stroke-linejoin="round" d=" M 381.630, 535.704 391.630, 535.704 401.630, 535.704 411.630, 535.704 421.630, 535.704 431.630, 535.704 441.630, 535.704 451.630, 535.704 461.630, 535.704 471.630, 535.704 481.630, 535.704 491.630, 535.704 501.630, 535.704 511.630, 535.704 521.630, 535.704 531.630, 535.704 541.630, 535.704 551.630, 535.704 561.630, 535.704 571.630, 535.704 581.630, 535.704 591.630, 535.704 601.630, 535.704 611.630, 535.704 621.630, 535.704 631.630, 535.704 641.630, 535.704 651.630, 535.704 661.630, 535.704 666.074, 535.704 " />
            <path fill="none" stroke-width="1.5" stroke-linecap="round" stroke-opacity="1.0" stroke="rgb(0, 0, 0)" stroke-linejoin="round" d=" M 405.333, 403.455 405.333, 393.455 405.333, 383.455 405.333, 373.455 405.333, 363.455 405.333, 353.455 405.333, 343.455 405.333, 333.455 405.333, 323.455 405.333, 313.455 405.333, 303.455 405.333, 293.455 405.333, 283.455 405.333, 273.455 405.333, 263.455 405.333, 253.455 405.333, 243.455 405.333, 233.455 405.333, 227.556 405.333, 227.556 395.333, 227.556 385.333, 227.556 375.333, 227.556 365.333, 227.556 357.926, 227.556 357.926, 227.556 357.926, 237.556 357.926, 247.556 357.926, 257.556 357.926, 267.556 357.926, 277.556 357.926, 287.556 357.926, 297.556 357.926, 307.556 357.926, 317.556 357.926, 327.556 357.926, 337.556 357.926, 347.556 357.926, 357.556 357.926, 367.556 357.926, 377.556 357.926, 387.556 357.926, 397.556 357.926, 407.556 357.926, 417.556 357.926, 427.556 357.926, 437.556 357.926, 447.556 357.926, 457.556 357.926, 464.593 357.926, 464.593 367.926, 464.593 377.926, 464.593 387.926, 464.593 397.926, 464.593 405.333, 464.593 405.333, 454.593 405.333, 444.593 405.333, 434.593 405.333, 430.915 405.333, 430.915 " />
            <path fill="none" stroke-width="1.5" stroke-linecap="round" stroke-opacity="1.0" stroke="rgb(0, 0, 0)" stroke-linejoin="round" d=" M 405.333, 227.556 405.333, 237.556 405.333, 247.556 405.333, 257.556 405.333, 267.556 405.333, 277.556 405.333, 287.556 405.333, 297.556 405.333, 307.556 405.333, 317.556 405.333, 327.556 405.333, 337.556 405.333, 347.556 405.333, 357.556 405.333, 367.556 405.333, 377.556 405.333, 387.556 405.333, 397.556 405.333, 403.455 " />
            <path fill="none" stroke-width="1.5" stroke-linecap="round" stroke-opacity="1.0" stroke="rgb(0, 0, 0)" stroke-linejoin="round" d=" M 405.333, 464.593 405.333, 464.593 " />
            <path fill="none" stroke-width="1.5" stroke-linecap="round" stroke-opacity="1.0" stroke="rgb(0, 0, 0)" stroke-linejoin="round" d=" M 357.926, 464.593 367.926, 464.593 377.926, 464.593 387.926, 464.593 397.926, 464.593 405.333, 464.593 405.333, 454.593 405.333, 444.593 405.333, 434.593 405.333, 430.915 405.333, 430.915 " />
            <path fill="none" stroke-width="1.5" stroke-linecap="round" stroke-opacity="1.0" stroke="rgb(0, 0, 0)" stroke-linejoin="round" d=" M 405.333, 430.915 415.333, 430.915 425.333, 430.915 435.333, 430.915 445.333, 430.915 455.333, 430.915 465.333, 430.915 475.333, 430.915 485.333, 430.915 495.333, 430.915 505.333, 430.915 515.333, 430.915 525.333, 430.915 535.333, 430.915 545.333, 430.915 555.333, 430.915 565.333, 430.915 575.333, 430.915 585.333, 430.915 595.333, 430.915 605.333, 430.915 615.333, 430.915 625.333, 430.915 635.333, 430.915 645.333, 430.915 655.333, 430.915 666.074, 430.915 666.074, 426.799 666.074, 416.799 666.074, 407.571 666.074, 403.455 666.074, 403.455 " />
            <path fill="none" stroke-width="1.5" stroke-linecap="round" stroke-opacity="1.0" stroke="rgb(0, 0, 0)" stroke-linejoin="round" d=" M 666.074, 407.571 666.074, 407.571 " />
            <path fill="none" stroke-width="1.5" stroke-linecap="round" stroke-opacity="1.0" stroke="rgb(0, 0, 0)" stroke-linejoin="round" d=" M 381.630, 430.915 391.630, 430.915 401.630, 430.915 405.333, 430.915 405.333, 430.915 415.333, 430.915 425.333, 430.915 435.333, 430.915 445.333, 430.915 455.333, 430.915 465.333, 430.915 475.333, 430.915 485.333, 430.915 495.333, 430.915 505.333, 430.915 515.333, 430.915 525.333, 430.915 535.333, 430.915 545.333, 430.915 555.333, 430.915 565.333, 430.915 575.333, 430.915 585.333, 430.915 595.333, 430.915 605.333, 430.915 615.333, 430.915 625.333, 430.915 635.333, 430.915 645.333, 430.915 655.333, 430.915 666.074, 430.915 666.074, 426.799 666.074, 416.799 666.074, 407.571 666.074, 407.571 666.074, 403.455 666.074, 403.455 656.074, 403.455 646.074, 403.455 636.074, 403.455 626.074, 403.455 616.074, 403.455 606.074, 403.455 596.074, 403.455 586.074, 403.455 576.074, 403.455 566.074, 403.455 556.074, 403.455 546.074, 403.455 536.074, 403.455 526.074, 403.455 516.074, 403.455 506.074, 403.455 496.074, 403.455 486.074, 403.455 476.074, 403.455 466.074, 403.455 456.074, 403.455 446.074, 403.455 436.074, 403.455 426.074, 403.455 416.074, 403.455 405.333, 403.455 405.333, 403.455 395.333, 403.455 385.333, 403.455 381.630, 403.455 381.630, 407.571 381.630, 417.571 381.630, 427.571 381.630, 430.915 381.630, 430.915 " />
            <path fill="none" stroke-width="1.5" stroke-linecap="round" stroke-opacity="1.0" stroke="rgb(0, 0, 0)" stroke-linejoin="round" d=" M 666.074, 407.571 656.074, 407.571 646.074, 407.571 636.074, 407.571 626.074, 407.571 616.074, 407.571 606.074, 407.571 596.074, 407.571 586.074, 407.571 576.074, 407.571 566.074, 407.571 556.074, 407.571 546.074, 407.571 536.074, 407.571 526.074, 407.571 516.074, 407.571 506.074, 407.571 496.074, 407.571 486.074, 407.571 476.074, 407.571 466.074, 407.571 456.074, 407.571 446.074, 407.571 436.074, 407.571 426.074, 407.571 416.074, 407.571 405.333, 407.571 395.333, 407.571 385.333, 407.571 381.630, 407.571 381.630, 407.571 " />
            <path fill="none" stroke-width="1.5" stroke-linecap="round" stroke-opacity="1.0" stroke="rgb(0, 0, 0)" stroke-linejoin="round" d=" M 381.630, 606.815 381.630, 616.815 381.630, 626.815 381.630, 636.815 381.630, 646.815 381.630, 656.815 381.630, 666.815 381.630, 676.815 381.630, 686.815 381.630, 696.815 381.630, 706.815 381.630, 716.815 381.630, 726.815 381.630, 736.815 381.630, 746.815 381.630, 756.815 381.630, 766.815 381.630, 776.815 381.630, 786.815 381.630, 796.444 " />
        </g>
    </g>
    <g id="ViewLayer_TechnicalLines.004" xmlns:inkscape="http://www.inkscape.org/namespaces/inkscape" inkscape:groupmode="lineset" inkscape:label="ViewLayer_TechnicalLines.004">
        <g xmlns:inkscape="http://www.inkscape.org/namespaces/inkscape" inkscape:groupmode="layer" id="strokes" inkscape:label="strokes">
            <path fill="none" stroke-width="1.5" stroke-linecap="round" stroke-opacity="1.0" stroke="rgb(0, 0, 0)" stroke-linejoin="round" d=" M 429.037, 796.444 429.037, 796.444 429.037, 786.444 429.037, 776.444 429.037, 766.444 429.037, 756.444 429.037, 746.444 429.037, 736.444 429.037, 726.444 429.037, 716.444 429.037, 706.444 429.037, 696.444 429.037, 686.444 429.037, 676.444 429.037, 666.444 429.037, 656.444 429.037, 646.444 429.037, 636.444 429.037, 626.444 429.037, 616.444 429.037, 606.815 " />
            <path fill="none" stroke-width="1.5" stroke-linecap="round" stroke-opacity="1.0" stroke="rgb(0, 0, 0)" stroke-linejoin="round" d=" M 418.502, 606.815 422.094, 606.815 " />
            <path fill="none" stroke-width="1.5" stroke-linecap="round" stroke-opacity="1.0" stroke="rgb(0, 0, 0)" stroke-linejoin="round" d=" M 429.037, 796.444 429.037, 786.444 429.037, 776.444 429.037, 766.444 429.037, 756.444 429.037, 746.444 429.037, 736.444 429.037, 726.444 429.037, 716.444 429.037, 706.444 429.037, 696.444 429.037, 686.444 429.037, 676.444 429.037, 666.444 429.037, 656.444 429.037, 646.444 429.037, 636.444 429.037, 626.444 429.037, 616.444 429.037, 606.815 428.582, 606.815 427.233, 606.815 425.042, 606.815 422.094, 606.815 418.502, 606.815 414.404, 606.815 409.958, 606.815 405.333, 606.815 400.709, 606.815 396.262, 606.815 392.164, 606.815 388.572, 606.815 385.624, 606.815 383.434, 606.815 382.085, 606.815 381.630, 606.815 " />
            <path fill="none" stroke-width="1.5" stroke-linecap="round" stroke-opacity="1.0" stroke="rgb(0, 0, 0)" stroke-linejoin="round" d=" M 381.630, 796.444 382.085, 796.444 383.434, 796.444 385.624, 796.444 388.572, 796.444 392.164, 796.444 396.262, 796.444 400.709, 796.444 405.333, 796.444 409.958, 796.444 414.404, 796.444 418.502, 796.444 422.094, 796.444 425.042, 796.444 427.233, 796.444 428.582, 796.444 429.037, 796.444 " />
            <path fill="none" stroke-width="1.5" stroke-linecap="round" stroke-opacity="1.0" stroke="rgb(0, 0, 0)" stroke-linejoin="round" d=" M 625.609, 606.815 629.201, 606.815 " />
            <path fill="none" stroke-width="1.5" stroke-linecap="round" stroke-opacity="1.0" stroke="rgb(0, 0, 0)" stroke-linejoin="round" d=" M 666.074, 796.444 666.074, 786.444 666.074, 776.444 666.074, 766.444 666.074, 756.444 666.074, 746.444 666.074, 736.444 666.074, 726.444 666.074, 716.444 666.074, 706.444 666.074, 696.444 666.074, 686.444 666.074, 676.444 666.074, 666.444 666.074, 656.444 666.074, 646.444 666.074, 636.444 666.074, 626.444 666.074, 616.444 666.074, 606.815 665.619, 606.815 664.270, 606.815 662.079, 606.815 659.131, 606.815 655.539, 606.815 651.441, 606.815 646.995, 606.815 642.370, 606.815 637.746, 606.815 633.299, 606.815 629.201, 606.815 625.609, 606.815 622.661, 606.815 620.471, 606.815 619.122, 606.815 618.667, 606.815 618.667, 616.815 618.667, 626.815 618.667, 636.815 618.667, 646.815 618.667, 656.815 618.667, 666.815 618.667, 676.815 618.667, 686.815 618.667, 696.815 618.667, 706.815 618.667, 716.815 618.667, 726.815 618.667, 736.815 618.667, 746.815 618.667, 756.815 618.667, 766.815 618.667, 776.815 618.667, 786.815 618.667, 796.444 619.122, 796.444 620.471, 796.444 622.661, 796.444 625.609, 796.444 629.201, 796.444 633.299, 796.444 637.746, 796.444 642.370, 796.444 646.995, 796.444 651.441, 796.444 655.539, 796.444 659.131, 796.444 662.079, 796.444 664.270, 796.444 665.619, 796.444 666.074, 796.444 " />
            <path fill="none" stroke-width="1.5" stroke-linecap="round" stroke-opacity="1.0" stroke="rgb(0, 0, 0)" stroke-linejoin="round" d=" M 381.630, 535.704 391.630, 535.704 401.630, 535.704 411.630, 535.704 421.630, 535.704 431.630, 535.704 441.630, 535.704 451.630, 535.704 461.630, 535.704 471.630, 535.704 481.630, 535.704 491.630, 535.704 501.630, 535.704 511.630, 535.704 521.630, 535.704 531.630, 535.704 541.630, 535.704 551.630, 535.704 561.630, 535.704 571.630, 535.704 581.630, 535.704 591.630, 535.704 601.630, 535.704 611.630, 535.704 621.630, 535.704 631.630, 535.704 641.630, 535.704 651.630, 535.704 661.630, 535.704 666.074, 535.704 666.074, 535.704 666.074, 525.704 666.074, 515.704 666.074, 505.704 666.074, 495.704 666.074, 488.296 666.074, 488.296 656.074, 488.296 646.074, 488.296 636.074, 488.296 626.074, 488.296 616.074, 488.296 606.074, 488.296 596.074, 488.296 586.074, 488.296 576.074, 488.296 566.074, 488.296 556.074, 488.296 546.074, 488.296 536.074, 488.296 526.074, 488.296 516.074, 488.296 506.074, 488.296 496.074, 488.296 486.074, 488.296 476.074, 488.296 466.074, 488.296 456.074, 488.296 446.074, 488.296 436.074, 488.296 426.074, 488.296 416.074, 488.296 406.074, 488.296 396.074, 488.296 386.074, 488.296 381.630, 488.296 381.630, 498.296 381.630, 508.296 381.630, 518.296 381.630, 528.296 381.630, 535.704 381.630, 535.704 " />
            <path fill="none" stroke-width="1.5" stroke-linecap="round" stroke-opacity="1.0" stroke="rgb(0, 0, 0)" stroke-linejoin="round" d=" M 381.630, 535.704 391.630, 535.704 401.630, 535.704 411.630, 535.704 421.630, 535.704 431.630, 535.704 441.630, 535.704 451.630, 535.704 461.630, 535.704 471.630, 535.704 481.630, 535.704 491.630, 535.704 501.630, 535.704 511.630, 535.704 521.630, 535.704 531.630, 535.704 541.630, 535.704 551.630, 535.704 561.630, 535.704 571.630, 535.704 581.630, 535.704 591.630, 535.704 601.630, 535.704 611.630, 535.704 621.630, 535.704 631.630, 535.704 641.630, 535.704 651.630, 535.704 661.630, 535.704 666.074, 535.704 " />
            <path fill="none" stroke-width="1.5" stroke-linecap="round" stroke-opacity="1.0" stroke="rgb(0, 0, 0)" stroke-linejoin="round" d=" M 405.333, 403.455 405.333, 393.455 405.333, 383.455 405.333, 373.455 405.333, 363.455 405.333, 353.455 405.333, 343.455 405.333, 333.455 405.333, 323.455 405.333, 313.455 405.333, 303.455 405.333, 293.455 405.333, 283.455 405.333, 273.455 405.333, 263.455 405.333, 253.455 405.333, 243.455 405.333, 233.455 405.333, 227.556 405.333, 227.556 395.333, 227.556 385.333, 227.556 375.333, 227.556 365.333, 227.556 357.926, 227.556 357.926, 227.556 357.926, 237.556 357.926, 247.556 357.926, 257.556 357.926, 267.556 357.926, 277.556 357.926, 287.556 357.926, 297.556 357.926, 307.556 357.926, 317.556 357.926, 327.556 357.926, 337.556 357.926, 347.556 357.926, 357.556 357.926, 367.556 357.926, 377.556 357.926, 387.556 357.926, 397.556 357.926, 407.556 357.926, 417.556 357.926, 427.556 357.926, 437.556 357.926, 447.556 357.926, 457.556 357.926, 464.593 357.926, 464.593 367.926, 464.593 377.926, 464.593 387.926, 464.593 397.926, 464.593 405.333, 464.593 405.333, 454.593 405.333, 444.593 405.333, 434.593 405.333, 430.915 405.333, 430.915 " />
            <path fill="none" stroke-width="1.5" stroke-linecap="round" stroke-opacity="1.0" stroke="rgb(0, 0, 0)" stroke-linejoin="round" d=" M 405.333, 227.556 405.333, 237.556 405.333, 247.556 405.333, 257.556 405.333, 267.556 405.333, 277.556 405.333, 287.556 405.333, 297.556 405.333, 307.556 405.333, 317.556 405.333, 327.556 405.333, 337.556 405.333, 347.556 405.333, 357.556 405.333, 367.556 405.333, 377.556 405.333, 387.556 405.333, 397.556 405.333, 403.455 " />
            <path fill="none" stroke-width="1.5" stroke-linecap="round" stroke-opacity="1.0" stroke="rgb(0, 0, 0)" stroke-linejoin="round" d=" M 405.333, 464.593 405.333, 464.593 " />
            <path fill="none" stroke-width="1.5" stroke-linecap="round" stroke-opacity="1.0" stroke="rgb(0, 0, 0)" stroke-linejoin="round" d=" M 357.926, 464.593 367.926, 464.593 377.926, 464.593 387.926, 464.593 397.926, 464.593 405.333, 464.593 405.333, 454.593 405.333, 444.593 405.333, 434.593 405.333, 430.915 405.333, 430.915 " />
            <path fill="none" stroke-width="1.5" stroke-linecap="round" stroke-opacity="1.0" stroke="rgb(0, 0, 0)" stroke-linejoin="round" d=" M 405.333, 430.915 415.333, 430.915 425.333, 430.915 435.333, 430.915 445.333, 430.915 455.333, 430.915 465.333, 430.915 475.333, 430.915 485.333, 430.915 495.333, 430.915 505.333, 430.915 515.333, 430.915 525.333, 430.915 535.333, 430.915 545.333, 430.915 555.333, 430.915 565.333, 430.915 575.333, 430.915 585.333, 430.915 595.333, 430.915 605.333, 430.915 615.333, 430.915 625.333, 430.915 635.333, 430.915 645.333, 430.915 655.333, 430.915 666.074, 430.915 666.074, 426.799 666.074, 416.799 666.074, 407.571 666.074, 403.455 666.074, 403.455 " />
            <path fill="none" stroke-width="1.5" stroke-linecap="round" stroke-opacity="1.0" stroke="rgb(0, 0, 0)" stroke-linejoin="round" d=" M 666.074, 407.571 666.074, 407.571 " />
            <path fill="none" stroke-width="1.5" stroke-linecap="round" stroke-opacity="1.0" stroke="rgb(0, 0, 0)" stroke-linejoin="round" d=" M 381.630, 430.915 391.630, 430.915 401.630, 430.915 405.333, 430.915 405.333, 430.915 415.333, 430.915 425.333, 430.915 435.333, 430.915 445.333, 430.915 455.333, 430.915 465.333, 430.915 475.333, 430.915 485.333, 430.915 495.333, 430.915 505.333, 430.915 515.333, 430.915 525.333, 430.915 535.333, 430.915 545.333, 430.915 555.333, 430.915 565.333, 430.915 575.333, 430.915 585.333, 430.915 595.333, 430.915 605.333, 430.915 615.333, 430.915 625.333, 430.915 635.333, 430.915 645.333, 430.915 655.333, 430.915 666.074, 430.915 666.074, 426.799 666.074, 416.799 666.074, 407.571 666.074, 407.571 666.074, 403.455 666.074, 403.455 656.074, 403.455 646.074, 403.455 636.074, 403.455 626.074, 403.455 616.074, 403.455 606.074, 403.455 596.074, 403.455 586.074, 403.455 576.074, 403.455 566.074, 403.455 556.074, 403.455 546.074, 403.455 536.074, 403.455 526.074, 403.455 516.074, 403.455 506.074, 403.455 496.074, 403.455 486.074, 403.455 476.074, 403.455 466.074, 403.455 456.074, 403.455 446.074, 403.455 436.074, 403.455 426.074, 403.455 416.074, 403.455 405.333, 403.455 405.333, 403.455 395.333, 403.455 385.333, 403.455 381.630, 403.455 381.630, 407.571 381.630, 417.571 381.630, 427.571 381.630, 430.915 381.630, 430.915 " />
            <path fill="none" stroke-width="1.5" stroke-linecap="round" stroke-opacity="1.0" stroke="rgb(0, 0, 0)" stroke-linejoin="round" d=" M 666.074, 407.571 656.074, 407.571 646.074, 407.571 636.074, 407.571 626.074, 407.571 616.074, 407.571 606.074, 407.571 596.074, 407.571 586.074, 407.571 576.074, 407.571 566.074, 407.571 556.074, 407.571 546.074, 407.571 536.074, 407.571 526.074, 407.571 516.074, 407.571 506.074, 407.571 496.074, 407.571 486.074, 407.571 476.074, 407.571 466.074, 407.571 456.074, 407.571 446.074, 407.571 436.074, 407.571 426.074, 407.571 416.074, 407.571 405.333, 407.571 395.333, 407.571 385.333, 407.571 381.630, 407.571 381.630, 407.571 " />
            <path fill="none" stroke-width="1.5" stroke-linecap="round" stroke-opacity="1.0" stroke="rgb(0, 0, 0)" stroke-linejoin="round" d=" M 381.630, 606.815 381.630, 616.815 381.630, 626.815 381.630, 636.815 381.630, 646.815 381.630, 656.815 381.630, 666.815 381.630, 676.815 381.630, 686.815 381.630, 696.815 381.630, 706.815 381.630, 716.815 381.630, 726.815 381.630, 736.815 381.630, 746.815 381.630, 756.815 381.630, 766.815 381.630, 776.815 381.630, 786.815 381.630, 796.444 " />
        </g>
    </g>
</svg>
