<?xml version='1.0' encoding='ascii'?>
<svg xmlns="http://www.w3.org/2000/svg" xmlns:inkscape="http://www.inkscape.org/namespaces/inkscape" version="1.1" width="1024" height="1024">
    <g id="ViewLayer_LineSet" inkscape:groupmode="lineset" inkscape:label="ViewLayer_LineSet">
        <g inkscape:groupmode="layer" id="strokes" inkscape:label="strokes">
            <path fill="none" stroke-width="3.0" stroke-linecap="butt" stroke-opacity="1.0" stroke="rgb(0, 0, 0)" stroke-linejoin="round" d=" M 416.730, 606.815 417.185, 606.815 416.730, 606.815 415.381, 606.815 413.190, 606.815 410.243, 606.815 406.651, 606.815 402.552, 606.815 398.106, 606.815 393.481, 606.815 388.857, 606.815 384.410, 606.815 380.312, 606.815 376.720, 606.815 373.773, 606.815 371.582, 606.815 370.233, 606.815 369.778, 606.815 " />
            <path fill="none" stroke-width="3.0" stroke-linecap="butt" stroke-opacity="1.0" stroke="rgb(0, 0, 0)" stroke-linejoin="round" d=" M 369.778, 606.815 369.778, 616.815 369.778, 626.815 369.778, 636.815 369.778, 646.815 369.778, 656.815 369.778, 666.815 369.778, 676.815 369.778, 686.815 369.778, 696.815 369.778, 706.815 369.778, 716.815 369.778, 726.815 369.778, 736.815 369.778, 746.815 369.778, 756.815 369.778, 766.815 369.778, 776.815 369.778, 786.815 369.778, 796.444 370.233, 796.444 371.582, 796.444 373.773, 796.444 376.720, 796.444 380.312, 796.444 384.410, 796.444 388.857, 796.444 393.481, 796.444 398.106, 796.444 402.552, 796.444 406.651, 796.444 410.243, 796.444 413.190, 796.444 415.381, 796.444 416.730, 796.444 417.185, 796.444 417.185, 786.444 417.185, 776.444 417.185, 766.444 417.185, 756.444 417.185, 746.444 417.185, 736.444 417.185, 726.444 417.185, 716.444 417.185, 706.444 417.185, 696.444 417.185, 686.444 417.185, 676.444 417.185, 666.444 417.185, 656.444 417.185, 646.444 417.185, 636.444 417.185, 626.444 417.185, 616.444 417.185, 606.815 " />
            <path fill="none" stroke-width="3.0" stroke-linecap="butt" stroke-opacity="1.0" stroke="rgb(0, 0, 0)" stroke-linejoin="round" d=" M 369.778, 606.815 370.233, 606.815 " />
            <path fill="none" stroke-width="3.0" stroke-linecap="butt" stroke-opacity="1.0" stroke="rgb(0, 0, 0)" stroke-linejoin="round" d=" M 653.767, 606.815 654.222, 606.815 653.767, 606.815 652.418, 606.815 650.227, 606.815 647.280, 606.815 643.688, 606.815 639.590, 606.815 635.143, 606.815 630.518, 606.815 625.894, 606.815 621.448, 606.815 617.349, 606.815 613.757, 606.815 610.810, 606.815 608.619, 606.815 607.270, 606.815 606.815, 606.815 606.815, 616.815 606.815, 626.815 606.815, 636.815 606.815, 646.815 606.815, 656.815 606.815, 666.815 606.815, 676.815 606.815, 686.815 606.815, 696.815 606.815, 706.815 606.815, 716.815 606.815, 726.815 606.815, 736.815 606.815, 746.815 606.815, 756.815 606.815, 766.815 606.815, 776.815 606.815, 786.815 606.815, 796.444 607.270, 796.444 608.619, 796.444 610.810, 796.444 613.757, 796.444 617.349, 796.444 621.448, 796.444 625.894, 796.444 630.518, 796.444 635.143, 796.444 639.590, 796.444 643.688, 796.444 647.280, 796.444 650.227, 796.444 652.418, 796.444 653.767, 796.444 654.222, 796.444 654.222, 786.444 654.222, 776.444 654.222, 766.444 654.222, 756.444 654.222, 746.444 654.222, 736.444 654.222, 726.444 654.222, 716.444 654.222, 706.444 654.222, 696.444 654.222, 686.444 654.222, 676.444 654.222, 666.444 654.222, 656.444 654.222, 646.444 654.222, 636.444 654.222, 626.444 654.222, 616.444 654.222, 606.815 " />
            <path fill="none" stroke-width="3.0" stroke-linecap="butt" stroke-opacity="1.0" stroke="rgb(0, 0, 0)" stroke-linejoin="round" d=" M 606.815, 606.815 607.270, 606.815 " />
            <path fill="none" stroke-width="3.0" stroke-linecap="butt" stroke-opacity="1.0" stroke="rgb(0, 0, 0)" stroke-linejoin="round" d=" M 416.730, 606.815 417.185, 606.815 " />
            <path fill="none" stroke-width="3.0" stroke-linecap="butt" stroke-opacity="1.0" stroke="rgb(0, 0, 0)" stroke-linejoin="round" d=" M 653.767, 606.815 654.222, 606.815 " />
            <path fill="none" stroke-width="3.0" stroke-linecap="butt" stroke-opacity="1.0" stroke="rgb(0, 0, 0)" stroke-linejoin="round" d=" M 606.815, 606.815 607.270, 606.815 " />
            <path fill="none" stroke-width="3.0" stroke-linecap="butt" stroke-opacity="1.0" stroke="rgb(0, 0, 0)" stroke-linejoin="round" d=" M 369.778, 488.296 369.778, 488.296 369.778, 498.296 369.778, 508.296 369.778, 518.296 369.778, 528.296 369.778, 535.704 369.778, 535.704 379.778, 535.704 389.778, 535.704 399.778, 535.704 409.778, 535.704 419.778, 535.704 429.778, 535.704 439.778, 535.704 449.778, 535.704 459.778, 535.704 469.778, 535.704 479.778, 535.704 489.778, 535.704 499.778, 535.704 509.778, 535.704 519.778, 535.704 529.778, 535.704 539.778, 535.704 549.778, 535.704 559.778, 535.704 569.778, 535.704 579.778, 535.704 589.778, 535.704 599.778, 535.704 609.778, 535.704 619.778, 535.704 629.778, 535.704 639.778, 535.704 649.778, 535.704 654.222, 535.704 654.222, 535.704 654.222, 525.704 654.222, 515.704 654.222, 505.704 654.222, 495.704 654.222, 488.296 644.222, 488.296 634.222, 488.296 624.222, 488.296 614.222, 488.296 604.222, 488.296 594.222, 488.296 584.222, 488.296 574.222, 488.296 564.222, 488.296 554.222, 488.296 544.222, 488.296 534.222, 488.296 524.222, 488.296 514.222, 488.296 504.222, 488.296 494.222, 488.296 484.222, 488.296 474.222, 488.296 464.222, 488.296 454.222, 488.296 444.222, 488.296 434.222, 488.296 424.222, 488.296 414.222, 488.296 404.222, 488.296 394.222, 488.296 384.222, 488.296 374.222, 488.296 369.778, 488.296 " />
            <path fill="none" stroke-width="3.0" stroke-linecap="butt" stroke-opacity="1.0" stroke="rgb(0, 0, 0)" stroke-linejoin="round" d=" M 369.778, 535.704 379.778, 535.704 389.778, 535.704 399.778, 535.704 409.778, 535.704 419.778, 535.704 429.778, 535.704 439.778, 535.704 449.778, 535.704 459.778, 535.704 469.778, 535.704 479.778, 535.704 489.778, 535.704 499.778, 535.704 509.778, 535.704 519.778, 535.704 529.778, 535.704 539.778, 535.704 549.778, 535.704 559.778, 535.704 569.778, 535.704 579.778, 535.704 589.778, 535.704 599.778, 535.704 609.778, 535.704 619.778, 535.704 629.778, 535.704 639.778, 535.704 649.778, 535.704 654.222, 535.704 " />
            <path fill="none" stroke-width="3.0" stroke-linecap="butt" stroke-opacity="1.0" stroke="rgb(0, 0, 0)" stroke-linejoin="round" d=" M 654.222, 464.593 654.222, 454.593 654.222, 444.593 654.222, 434.593 654.222, 424.593 654.222, 414.593 654.222, 404.593 654.222, 394.593 654.222, 384.593 654.222, 374.593 654.222, 364.593 654.222, 354.593 654.222, 344.593 654.222, 334.593 654.222, 324.593 654.222, 314.593 654.222, 304.593 654.222, 294.593 654.222, 284.593 654.222, 274.593 654.222, 264.593 654.222, 254.593 654.222, 244.593 654.222, 234.593 654.222, 227.556 " />
            <path fill="none" stroke-width="3.0" stroke-linecap="butt" stroke-opacity="1.0" stroke="rgb(0, 0, 0)" stroke-linejoin="round" d=" M 336.460, 403.455 334.724, 413.303 332.987, 423.152 332.344, 426.799 332.344, 426.799 342.192, 428.535 352.040, 430.272 355.688, 430.915 357.424, 421.067 359.161, 411.219 359.804, 407.571 359.804, 407.571 349.956, 405.835 340.108, 404.099 336.460, 403.455 " />
            <path fill="none" stroke-width="3.0" stroke-linecap="butt" stroke-opacity="1.0" stroke="rgb(0, 0, 0)" stroke-linejoin="round" d=" M 359.804, 407.571 358.067, 417.420 356.331, 427.268 355.688, 430.915 " />
            <path fill="none" stroke-width="3.0" stroke-linecap="butt" stroke-opacity="1.0" stroke="rgb(0, 0, 0)" stroke-linejoin="round" d=" M 332.344, 426.799 342.192, 428.535 352.040, 430.272 355.688, 430.915 355.688, 430.915 " />
            <path fill="none" stroke-width="3.0" stroke-linecap="butt" stroke-opacity="1.0" stroke="rgb(0, 0, 0)" stroke-linejoin="round" d=" M 668.312, 403.455 666.576, 413.303 664.839, 423.152 664.196, 426.799 664.196, 426.799 674.044, 428.535 683.892, 430.272 687.540, 430.915 689.276, 421.067 691.013, 411.219 691.656, 407.571 691.656, 407.571 681.808, 405.835 671.960, 404.099 668.312, 403.455 " />
            <path fill="none" stroke-width="3.0" stroke-linecap="butt" stroke-opacity="1.0" stroke="rgb(0, 0, 0)" stroke-linejoin="round" d=" M 691.656, 407.571 689.919, 417.420 688.183, 427.268 687.540, 430.915 " />
            <path fill="none" stroke-width="3.0" stroke-linecap="butt" stroke-opacity="1.0" stroke="rgb(0, 0, 0)" stroke-linejoin="round" d=" M 664.196, 426.799 674.044, 428.535 683.892, 430.272 687.540, 430.915 687.540, 430.915 " />
            <path fill="none" stroke-width="3.0" stroke-linecap="butt" stroke-opacity="1.0" stroke="rgb(0, 0, 0)" stroke-linejoin="round" d=" M 369.778, 227.556 369.778, 237.556 369.778, 247.556 369.778, 257.556 369.778, 267.556 369.778, 277.556 369.778, 287.556 369.778, 297.556 369.778, 307.556 369.778, 317.556 369.778, 327.556 369.778, 337.556 369.778, 347.556 369.778, 357.556 369.778, 367.556 369.778, 377.556 369.778, 387.556 369.778, 397.556 369.778, 407.556 369.778, 417.556 369.778, 427.556 369.778, 437.556 369.778, 447.556 369.778, 457.556 369.778, 464.593 " />
            <path fill="none" stroke-width="3.0" stroke-linecap="butt" stroke-opacity="1.0" stroke="rgb(0, 0, 0)" stroke-linejoin="round" d=" M 369.778, 606.815 370.233, 606.815 " />
            <path fill="none" stroke-width="3.0" stroke-linecap="butt" stroke-opacity="1.0" stroke="rgb(0, 0, 0)" stroke-linejoin="round" d=" M 369.778, 464.593 379.778, 464.593 389.778, 464.593 399.778, 464.593 409.778, 464.593 419.778, 464.593 429.778, 464.593 439.778, 464.593 449.778, 464.593 459.778, 464.593 469.778, 464.593 479.778, 464.593 489.778, 464.593 499.778, 464.593 509.778, 464.593 519.778, 464.593 529.778, 464.593 539.778, 464.593 549.778, 464.593 559.778, 464.593 569.778, 464.593 579.778, 464.593 589.778, 464.593 599.778, 464.593 609.778, 464.593 619.778, 464.593 629.778, 464.593 639.778, 464.593 649.778, 464.593 654.222, 464.593 " />
            <path fill="none" stroke-width="3.0" stroke-linecap="butt" stroke-opacity="1.0" stroke="rgb(0, 0, 0)" stroke-linejoin="round" d=" M 654.222, 227.556 644.222, 227.556 634.222, 227.556 624.222, 227.556 614.222, 227.556 604.222, 227.556 594.222, 227.556 584.222, 227.556 574.222, 227.556 564.222, 227.556 554.222, 227.556 544.222, 227.556 534.222, 227.556 524.222, 227.556 514.222, 227.556 504.222, 227.556 494.222, 227.556 484.222, 227.556 474.222, 227.556 464.222, 227.556 454.222, 227.556 444.222, 227.556 434.222, 227.556 424.222, 227.556 414.222, 227.556 404.222, 227.556 394.222, 227.556 384.222, 227.556 374.222, 227.556 369.778, 227.556 " />
        </g>
    </g>
    <g id="ViewLayer_TechnicalLines" inkscape:groupmode="lineset" inkscape:label="ViewLayer_TechnicalLines">
        <g inkscape:groupmode="layer" id="strokes" inkscape:label="strokes">
            <path fill="none" stroke-width="3.0" stroke-linecap="butt" stroke-opacity="1.0" stroke="rgb(0, 0, 0)" stroke-linejoin="round" d=" M 416.730, 606.815 417.185, 606.815 416.730, 606.815 415.381, 606.815 413.190, 606.815 410.243, 606.815 406.651, 606.815 402.552, 606.815 398.106, 606.815 393.481, 606.815 388.857, 606.815 384.410, 606.815 380.312, 606.815 376.720, 606.815 373.773, 606.815 371.582, 606.815 370.233, 606.815 369.778, 606.815 " />
            <path fill="none" stroke-width="3.0" stroke-linecap="butt" stroke-opacity="1.0" stroke="rgb(0, 0, 0)" stroke-linejoin="round" d=" M 369.778, 606.815 369.778, 616.815 369.778, 626.815 369.778, 636.815 369.778, 646.815 369.778, 656.815 369.778, 666.815 369.778, 676.815 369.778, 686.815 369.778, 696.815 369.778, 706.815 369.778, 716.815 369.778, 726.815 369.778, 736.815 369.778, 746.815 369.778, 756.815 369.778, 766.815 369.778, 776.815 369.778, 786.815 369.778, 796.444 370.233, 796.444 371.582, 796.444 373.773, 796.444 376.720, 796.444 380.312, 796.444 384.410, 796.444 388.857, 796.444 393.481, 796.444 398.106, 796.444 402.552, 796.444 406.651, 796.444 410.243, 796.444 413.190, 796.444 415.381, 796.444 416.730, 796.444 417.185, 796.444 417.185, 786.444 417.185, 776.444 417.185, 766.444 417.185, 756.444 417.185, 746.444 417.185, 736.444 417.185, 726.444 417.185, 716.444 417.185, 706.444 417.185, 696.444 417.185, 686.444 417.185, 676.444 417.185, 666.444 417.185, 656.444 417.185, 646.444 417.185, 636.444 417.185, 626.444 417.185, 616.444 417.185, 606.815 " />
            <path fill="none" stroke-width="3.0" stroke-linecap="butt" stroke-opacity="1.0" stroke="rgb(0, 0, 0)" stroke-linejoin="round" d=" M 369.778, 606.815 370.233, 606.815 " />
            <path fill="none" stroke-width="3.0" stroke-linecap="butt" stroke-opacity="1.0" stroke="rgb(0, 0, 0)" stroke-linejoin="round" d=" M 653.767, 606.815 654.222, 606.815 653.767, 606.815 652.418, 606.815 650.227, 606.815 647.280, 606.815 643.688, 606.815 639.590, 606.815 635.143, 606.815 630.518, 606.815 625.894, 606.815 621.448, 606.815 617.349, 606.815 613.757, 606.815 610.810, 606.815 608.619, 606.815 607.270, 606.815 606.815, 606.815 606.815, 616.815 606.815, 626.815 606.815, 636.815 606.815, 646.815 606.815, 656.815 606.815, 666.815 606.815, 676.815 606.815, 686.815 606.815, 696.815 606.815, 706.815 606.815, 716.815 606.815, 726.815 606.815, 736.815 606.815, 746.815 606.815, 756.815 606.815, 766.815 606.815, 776.815 606.815, 786.815 606.815, 796.444 607.270, 796.444 608.619, 796.444 610.810, 796.444 613.757, 796.444 617.349, 796.444 621.448, 796.444 625.894, 796.444 630.518, 796.444 635.143, 796.444 639.590, 796.444 643.688, 796.444 647.280, 796.444 650.227, 796.444 652.418, 796.444 653.767, 796.444 654.222, 796.444 654.222, 786.444 654.222, 776.444 654.222, 766.444 654.222, 756.444 654.222, 746.444 654.222, 736.444 654.222, 726.444 654.222, 716.444 654.222, 706.444 654.222, 696.444 654.222, 686.444 654.222, 676.444 654.222, 666.444 654.222, 656.444 654.222, 646.444 654.222, 636.444 654.222, 626.444 654.222, 616.444 654.222, 606.815 " />
            <path fill="none" stroke-width="3.0" stroke-linecap="butt" stroke-opacity="1.0" stroke="rgb(0, 0, 0)" stroke-linejoin="round" d=" M 606.815, 606.815 607.270, 606.815 " />
            <path fill="none" stroke-width="3.0" stroke-linecap="butt" stroke-opacity="1.0" stroke="rgb(0, 0, 0)" stroke-linejoin="round" d=" M 416.730, 606.815 417.185, 606.815 " />
            <path fill="none" stroke-width="3.0" stroke-linecap="butt" stroke-opacity="1.0" stroke="rgb(0, 0, 0)" stroke-linejoin="round" d=" M 653.767, 606.815 654.222, 606.815 " />
            <path fill="none" stroke-width="3.0" stroke-linecap="butt" stroke-opacity="1.0" stroke="rgb(0, 0, 0)" stroke-linejoin="round" d=" M 606.815, 606.815 607.270, 606.815 " />
            <path fill="none" stroke-width="3.0" stroke-linecap="butt" stroke-opacity="1.0" stroke="rgb(0, 0, 0)" stroke-linejoin="round" d=" M 369.778, 488.296 369.778, 488.296 369.778, 498.296 369.778, 508.296 369.778, 518.296 369.778, 528.296 369.778, 535.704 369.778, 535.704 379.778, 535.704 389.778, 535.704 399.778, 535.704 409.778, 535.704 419.778, 535.704 429.778, 535.704 439.778, 535.704 449.778, 535.704 459.778, 535.704 469.778, 535.704 479.778, 535.704 489.778, 535.704 499.778, 535.704 509.778, 535.704 519.778, 535.704 529.778, 535.704 539.778, 535.704 549.778, 535.704 559.778, 535.704 569.778, 535.704 579.778, 535.704 589.778, 535.704 599.778, 535.704 609.778, 535.704 619.778, 535.704 629.778, 535.704 639.778, 535.704 649.778, 535.704 654.222, 535.704 654.222, 535.704 654.222, 525.704 654.222, 515.704 654.222, 505.704 654.222, 495.704 654.222, 488.296 644.222, 488.296 634.222, 488.296 624.222, 488.296 614.222, 488.296 604.222, 488.296 594.222, 488.296 584.222, 488.296 574.222, 488.296 564.222, 488.296 554.222, 488.296 544.222, 488.296 534.222, 488.296 524.222, 488.296 514.222, 488.296 504.222, 488.296 494.222, 488.296 484.222, 488.296 474.222, 488.296 464.222, 488.296 454.222, 488.296 444.222, 488.296 434.222, 488.296 424.222, 488.296 414.222, 488.296 404.222, 488.296 394.222, 488.296 384.222, 488.296 374.222, 488.296 369.778, 488.296 " />
            <path fill="none" stroke-width="3.0" stroke-linecap="butt" stroke-opacity="1.0" stroke="rgb(0, 0, 0)" stroke-linejoin="round" d=" M 369.778, 535.704 379.778, 535.704 389.778, 535.704 399.778, 535.704 409.778, 535.704 419.778, 535.704 429.778, 535.704 439.778, 535.704 449.778, 535.704 459.778, 535.704 469.778, 535.704 479.778, 535.704 489.778, 535.704 499.778, 535.704 509.778, 535.704 519.778, 535.704 529.778, 535.704 539.778, 535.704 549.778, 535.704 559.778, 535.704 569.778, 535.704 579.778, 535.704 589.778, 535.704 599.778, 535.704 609.778, 535.704 619.778, 535.704 629.778, 535.704 639.778, 535.704 649.778, 535.704 654.222, 535.704 " />
            <path fill="none" stroke-width="3.0" stroke-linecap="butt" stroke-opacity="1.0" stroke="rgb(0, 0, 0)" stroke-linejoin="round" d=" M 654.222, 464.593 654.222, 454.593 654.222, 444.593 654.222, 434.593 654.222, 424.593 654.222, 414.593 654.222, 404.593 654.222, 394.593 654.222, 384.593 654.222, 374.593 654.222, 364.593 654.222, 354.593 654.222, 344.593 654.222, 334.593 654.222, 324.593 654.222, 314.593 654.222, 304.593 654.222, 294.593 654.222, 284.593 654.222, 274.593 654.222, 264.593 654.222, 254.593 654.222, 244.593 654.222, 234.593 654.222, 227.556 " />
            <path fill="none" stroke-width="3.0" stroke-linecap="butt" stroke-opacity="1.0" stroke="rgb(0, 0, 0)" stroke-linejoin="round" d=" M 336.460, 403.455 334.724, 413.303 332.987, 423.152 332.344, 426.799 332.344, 426.799 342.192, 428.535 352.040, 430.272 355.688, 430.915 357.424, 421.067 359.161, 411.219 359.804, 407.571 359.804, 407.571 349.956, 405.835 340.108, 404.099 336.460, 403.455 " />
            <path fill="none" stroke-width="3.0" stroke-linecap="butt" stroke-opacity="1.0" stroke="rgb(0, 0, 0)" stroke-linejoin="round" d=" M 359.804, 407.571 358.067, 417.420 356.331, 427.268 355.688, 430.915 " />
            <path fill="none" stroke-width="3.0" stroke-linecap="butt" stroke-opacity="1.0" stroke="rgb(0, 0, 0)" stroke-linejoin="round" d=" M 332.344, 426.799 342.192, 428.535 352.040, 430.272 355.688, 430.915 355.688, 430.915 " />
            <path fill="none" stroke-width="3.0" stroke-linecap="butt" stroke-opacity="1.0" stroke="rgb(0, 0, 0)" stroke-linejoin="round" d=" M 668.312, 403.455 666.576, 413.303 664.839, 423.152 664.196, 426.799 664.196, 426.799 674.044, 428.535 683.892, 430.272 687.540, 430.915 689.276, 421.067 691.013, 411.219 691.656, 407.571 691.656, 407.571 681.808, 405.835 671.960, 404.099 668.312, 403.455 " />
            <path fill="none" stroke-width="3.0" stroke-linecap="butt" stroke-opacity="1.0" stroke="rgb(0, 0, 0)" stroke-linejoin="round" d=" M 691.656, 407.571 689.919, 417.420 688.183, 427.268 687.540, 430.915 " />
            <path fill="none" stroke-width="3.0" stroke-linecap="butt" stroke-opacity="1.0" stroke="rgb(0, 0, 0)" stroke-linejoin="round" d=" M 664.196, 426.799 674.044, 428.535 683.892, 430.272 687.540, 430.915 687.540, 430.915 " />
            <path fill="none" stroke-width="3.0" stroke-linecap="butt" stroke-opacity="1.0" stroke="rgb(0, 0, 0)" stroke-linejoin="round" d=" M 369.778, 227.556 369.778, 237.556 369.778, 247.556 369.778, 257.556 369.778, 267.556 369.778, 277.556 369.778, 287.556 369.778, 297.556 369.778, 307.556 369.778, 317.556 369.778, 327.556 369.778, 337.556 369.778, 347.556 369.778, 357.556 369.778, 367.556 369.778, 377.556 369.778, 387.556 369.778, 397.556 369.778, 407.556 369.778, 417.556 369.778, 427.556 369.778, 437.556 369.778, 447.556 369.778, 457.556 369.778, 464.593 " />
            <path fill="none" stroke-width="3.0" stroke-linecap="butt" stroke-opacity="1.0" stroke="rgb(0, 0, 0)" stroke-linejoin="round" d=" M 369.778, 606.815 370.233, 606.815 " />
            <path fill="none" stroke-width="3.0" stroke-linecap="butt" stroke-opacity="1.0" stroke="rgb(0, 0, 0)" stroke-linejoin="round" d=" M 369.778, 464.593 379.778, 464.593 389.778, 464.593 399.778, 464.593 409.778, 464.593 419.778, 464.593 429.778, 464.593 439.778, 464.593 449.778, 464.593 459.778, 464.593 469.778, 464.593 479.778, 464.593 489.778, 464.593 499.778, 464.593 509.778, 464.593 519.778, 464.593 529.778, 464.593 539.778, 464.593 549.778, 464.593 559.778, 464.593 569.778, 464.593 579.778, 464.593 589.778, 464.593 599.778, 464.593 609.778, 464.593 619.778, 464.593 629.778, 464.593 639.778, 464.593 649.778, 464.593 654.222, 464.593 " />
            <path fill="none" stroke-width="3.0" stroke-linecap="butt" stroke-opacity="1.0" stroke="rgb(0, 0, 0)" stroke-linejoin="round" d=" M 654.222, 227.556 644.222, 227.556 634.222, 227.556 624.222, 227.556 614.222, 227.556 604.222, 227.556 594.222, 227.556 584.222, 227.556 574.222, 227.556 564.222, 227.556 554.222, 227.556 544.222, 227.556 534.222, 227.556 524.222, 227.556 514.222, 227.556 504.222, 227.556 494.222, 227.556 484.222, 227.556 474.222, 227.556 464.222, 227.556 454.222, 227.556 444.222, 227.556 434.222, 227.556 424.222, 227.556 414.222, 227.556 404.222, 227.556 394.222, 227.556 384.222, 227.556 374.222, 227.556 369.778, 227.556 " />
        </g>
    </g>
    <g id="ViewLayer_TechnicalLines.001" inkscape:groupmode="lineset" inkscape:label="ViewLayer_TechnicalLines.001">
        <g inkscape:groupmode="layer" id="strokes" inkscape:label="strokes">
            <path fill="none" stroke-width="1.5" stroke-linecap="round" stroke-opacity="1.0" stroke="rgb(0, 0, 0)" stroke-linejoin="round" d=" M 416.730, 606.815 417.185, 606.815 416.730, 606.815 415.381, 606.815 413.190, 606.815 410.243, 606.815 406.651, 606.815 402.552, 606.815 398.106, 606.815 393.481, 606.815 388.857, 606.815 384.410, 606.815 380.312, 606.815 376.720, 606.815 373.773, 606.815 371.582, 606.815 370.233, 606.815 369.778, 606.815 " />
            <path fill="none" stroke-width="1.5" stroke-linecap="round" stroke-opacity="1.0" stroke="rgb(0, 0, 0)" stroke-linejoin="round" d=" M 369.778, 606.815 369.778, 616.815 369.778, 626.815 369.778, 636.815 369.778, 646.815 369.778, 656.815 369.778, 666.815 369.778, 676.815 369.778, 686.815 369.778, 696.815 369.778, 706.815 369.778, 716.815 369.778, 726.815 369.778, 736.815 369.778, 746.815 369.778, 756.815 369.778, 766.815 369.778, 776.815 369.778, 786.815 369.778, 796.444 370.233, 796.444 371.582, 796.444 373.773, 796.444 376.720, 796.444 380.312, 796.444 384.410, 796.444 388.857, 796.444 393.481, 796.444 398.106, 796.444 402.552, 796.444 406.651, 796.444 410.243, 796.444 413.190, 796.444 415.381, 796.444 416.730, 796.444 417.185, 796.444 417.185, 786.444 417.185, 776.444 417.185, 766.444 417.185, 756.444 417.185, 746.444 417.185, 736.444 417.185, 726.444 417.185, 716.444 417.185, 706.444 417.185, 696.444 417.185, 686.444 417.185, 676.444 417.185, 666.444 417.185, 656.444 417.185, 646.444 417.185, 636.444 417.185, 626.444 417.185, 616.444 417.185, 606.815 " />
            <path fill="none" stroke-width="1.5" stroke-linecap="round" stroke-opacity="1.0" stroke="rgb(0, 0, 0)" stroke-linejoin="round" d=" M 369.778, 606.815 370.233, 606.815 " />
            <path fill="none" stroke-width="1.5" stroke-linecap="round" stroke-opacity="1.0" stroke="rgb(0, 0, 0)" stroke-linejoin="round" d=" M 653.767, 606.815 654.222, 606.815 653.767, 606.815 652.418, 606.815 650.227, 606.815 647.280, 606.815 643.688, 606.815 639.590, 606.815 635.143, 606.815 630.518, 606.815 625.894, 606.815 621.448, 606.815 617.349, 606.815 613.757, 606.815 610.810, 606.815 608.619, 606.815 607.270, 606.815 606.815, 606.815 606.815, 616.815 606.815, 626.815 606.815, 636.815 606.815, 646.815 606.815, 656.815 606.815, 666.815 606.815, 676.815 606.815, 686.815 606.815, 696.815 606.815, 706.815 606.815, 716.815 606.815, 726.815 606.815, 736.815 606.815, 746.815 606.815, 756.815 606.815, 766.815 606.815, 776.815 606.815, 786.815 606.815, 796.444 607.270, 796.444 608.619, 796.444 610.810, 796.444 613.757, 796.444 617.349, 796.444 621.448, 796.444 625.894, 796.444 630.518, 796.444 635.143, 796.444 639.590, 796.444 643.688, 796.444 647.280, 796.444 650.227, 796.444 652.418, 796.444 653.767, 796.444 654.222, 796.444 654.222, 786.444 654.222, 776.444 654.222, 766.444 654.222, 756.444 654.222, 746.444 654.222, 736.444 654.222, 726.444 654.222, 716.444 654.222, 706.444 654.222, 696.444 654.222, 686.444 654.222, 676.444 654.222, 666.444 654.222, 656.444 654.222, 646.444 654.222, 636.444 654.222, 626.444 654.222, 616.444 654.222, 606.815 " />
            <path fill="none" stroke-width="1.5" stroke-linecap="round" stroke-opacity="1.0" stroke="rgb(0, 0, 0)" stroke-linejoin="round" d=" M 606.815, 606.815 607.270, 606.815 " />
            <path fill="none" stroke-width="1.5" stroke-linecap="round" stroke-opacity="1.0" stroke="rgb(0, 0, 0)" stroke-linejoin="round" d=" M 416.730, 606.815 417.185, 606.815 " />
            <path fill="none" stroke-width="1.5" stroke-linecap="round" stroke-opacity="1.0" stroke="rgb(0, 0, 0)" stroke-linejoin="round" d=" M 653.767, 606.815 654.222, 606.815 " />
            <path fill="none" stroke-width="1.5" stroke-linecap="round" stroke-opacity="1.0" stroke="rgb(0, 0, 0)" stroke-linejoin="round" d=" M 606.815, 606.815 607.270, 606.815 " />
            <path fill="none" stroke-width="1.5" stroke-linecap="round" stroke-opacity="1.0" stroke="rgb(0, 0, 0)" stroke-linejoin="round" d=" M 369.778, 488.296 369.778, 488.296 369.778, 498.296 369.778, 508.296 369.778, 518.296 369.778, 528.296 369.778, 535.704 369.778, 535.704 379.778, 535.704 389.778, 535.704 399.778, 535.704 409.778, 535.704 419.778, 535.704 429.778, 535.704 439.778, 535.704 449.778, 535.704 459.778, 535.704 469.778, 535.704 479.778, 535.704 489.778, 535.704 499.778, 535.704 509.778, 535.704 519.778, 535.704 529.778, 535.704 539.778, 535.704 549.778, 535.704 559.778, 535.704 569.778, 535.704 579.778, 535.704 589.778, 535.704 599.778, 535.704 609.778, 535.704 619.778, 535.704 629.778, 535.704 639.778, 535.704 649.778, 535.704 654.222, 535.704 654.222, 535.704 654.222, 525.704 654.222, 515.704 654.222, 505.704 654.222, 495.704 654.222, 488.296 644.222, 488.296 634.222, 488.296 624.222, 488.296 614.222, 488.296 604.222, 488.296 594.222, 488.296 584.222, 488.296 574.222, 488.296 564.222, 488.296 554.222, 488.296 544.222, 488.296 534.222, 488.296 524.222, 488.296 514.222, 488.296 504.222, 488.296 494.222, 488.296 484.222, 488.296 474.222, 488.296 464.222, 488.296 454.222, 488.296 444.222, 488.296 434.222, 488.296 424.222, 488.296 414.222, 488.296 404.222, 488.296 394.222, 488.296 384.222, 488.296 374.222, 488.296 369.778, 488.296 " />
            <path fill="none" stroke-width="1.5" stroke-linecap="round" stroke-opacity="1.0" stroke="rgb(0, 0, 0)" stroke-linejoin="round" d=" M 369.778, 535.704 379.778, 535.704 389.778, 535.704 399.778, 535.704 409.778, 535.704 419.778, 535.704 429.778, 535.704 439.778, 535.704 449.778, 535.704 459.778, 535.704 469.778, 535.704 479.778, 535.704 489.778, 535.704 499.778, 535.704 509.778, 535.704 519.778, 535.704 529.778, 535.704 539.778, 535.704 549.778, 535.704 559.778, 535.704 569.778, 535.704 579.778, 535.704 589.778, 535.704 599.778, 535.704 609.778, 535.704 619.778, 535.704 629.778, 535.704 639.778, 535.704 649.778, 535.704 654.222, 535.704 " />
            <path fill="none" stroke-width="1.5" stroke-linecap="round" stroke-opacity="1.0" stroke="rgb(0, 0, 0)" stroke-linejoin="round" d=" M 654.222, 464.593 654.222, 454.593 654.222, 444.593 654.222, 434.593 654.222, 424.593 654.222, 414.593 654.222, 404.593 654.222, 394.593 654.222, 384.593 654.222, 374.593 654.222, 364.593 654.222, 354.593 654.222, 344.593 654.222, 334.593 654.222, 324.593 654.222, 314.593 654.222, 304.593 654.222, 294.593 654.222, 284.593 654.222, 274.593 654.222, 264.593 654.222, 254.593 654.222, 244.593 654.222, 234.593 654.222, 227.556 " />
            <path fill="none" stroke-width="1.5" stroke-linecap="round" stroke-opacity="1.0" stroke="rgb(0, 0, 0)" stroke-linejoin="round" d=" M 336.460, 403.455 334.724, 413.303 332.987, 423.152 332.344, 426.799 332.344, 426.799 342.192, 428.535 352.040, 430.272 355.688, 430.915 357.424, 421.067 359.161, 411.219 359.804, 407.571 359.804, 407.571 349.956, 405.835 340.108, 404.099 336.460, 403.455 " />
            <path fill="none" stroke-width="1.5" stroke-linecap="round" stroke-opacity="1.0" stroke="rgb(0, 0, 0)" stroke-linejoin="round" d=" M 359.804, 407.571 358.067, 417.420 356.331, 427.268 355.688, 430.915 " />
            <path fill="none" stroke-width="1.5" stroke-linecap="round" stroke-opacity="1.0" stroke="rgb(0, 0, 0)" stroke-linejoin="round" d=" M 332.344, 426.799 342.192, 428.535 352.040, 430.272 355.688, 430.915 355.688, 430.915 " />
            <path fill="none" stroke-width="1.5" stroke-linecap="round" stroke-opacity="1.0" stroke="rgb(0, 0, 0)" stroke-linejoin="round" d=" M 668.312, 403.455 666.576, 413.303 664.839, 423.152 664.196, 426.799 664.196, 426.799 674.044, 428.535 683.892, 430.272 687.540, 430.915 689.276, 421.067 691.013, 411.219 691.656, 407.571 691.656, 407.571 681.808, 405.835 671.960, 404.099 668.312, 403.455 " />
            <path fill="none" stroke-width="1.5" stroke-linecap="round" stroke-opacity="1.0" stroke="rgb(0, 0, 0)" stroke-linejoin="round" d=" M 691.656, 407.571 689.919, 417.420 688.183, 427.268 687.540, 430.915 " />
            <path fill="none" stroke-width="1.5" stroke-linecap="round" stroke-opacity="1.0" stroke="rgb(0, 0, 0)" stroke-linejoin="round" d=" M 664.196, 426.799 674.044, 428.535 683.892, 430.272 687.540, 430.915 687.540, 430.915 " />
            <path fill="none" stroke-width="1.5" stroke-linecap="round" stroke-opacity="1.0" stroke="rgb(0, 0, 0)" stroke-linejoin="round" d=" M 369.778, 227.556 369.778, 237.556 369.778, 247.556 369.778, 257.556 369.778, 267.556 369.778, 277.556 369.778, 287.556 369.778, 297.556 369.778, 307.556 369.778, 317.556 369.778, 327.556 369.778, 337.556 369.778, 347.556 369.778, 357.556 369.778, 367.556 369.778, 377.556 369.778, 387.556 369.778, 397.556 369.778, 407.556 369.778, 417.556 369.778, 427.556 369.778, 437.556 369.778, 447.556 369.778, 457.556 369.778, 464.593 " />
            <path fill="none" stroke-width="1.5" stroke-linecap="round" stroke-opacity="1.0" stroke="rgb(0, 0, 0)" stroke-linejoin="round" d=" M 369.778, 606.815 370.233, 606.815 " />
            <path fill="none" stroke-width="1.5" stroke-linecap="round" stroke-opacity="1.0" stroke="rgb(0, 0, 0)" stroke-linejoin="round" d=" M 369.778, 464.593 379.778, 464.593 389.778, 464.593 399.778, 464.593 409.778, 464.593 419.778, 464.593 429.778, 464.593 439.778, 464.593 449.778, 464.593 459.778, 464.593 469.778, 464.593 479.778, 464.593 489.778, 464.593 499.778, 464.593 509.778, 464.593 519.778, 464.593 529.778, 464.593 539.778, 464.593 549.778, 464.593 559.778, 464.593 569.778, 464.593 579.778, 464.593 589.778, 464.593 599.778, 464.593 609.778, 464.593 619.778, 464.593 629.778, 464.593 639.778, 464.593 649.778, 464.593 654.222, 464.593 " />
            <path fill="none" stroke-width="1.5" stroke-linecap="round" stroke-opacity="1.0" stroke="rgb(0, 0, 0)" stroke-linejoin="round" d=" M 654.222, 227.556 644.222, 227.556 634.222, 227.556 624.222, 227.556 614.222, 227.556 604.222, 227.556 594.222, 227.556 584.222, 227.556 574.222, 227.556 564.222, 227.556 554.222, 227.556 544.222, 227.556 534.222, 227.556 524.222, 227.556 514.222, 227.556 504.222, 227.556 494.222, 227.556 484.222, 227.556 474.222, 227.556 464.222, 227.556 454.222, 227.556 444.222, 227.556 434.222, 227.556 424.222, 227.556 414.222, 227.556 404.222, 227.556 394.222, 227.556 384.222, 227.556 374.222, 227.556 369.778, 227.556 " />
        </g>
    </g>
    <g id="ViewLayer_TechnicalLines.002" inkscape:groupmode="lineset" inkscape:label="ViewLayer_TechnicalLines.002">
        <g inkscape:groupmode="layer" id="strokes" inkscape:label="strokes">
            <path fill="none" stroke-width="1.5" stroke-linecap="round" stroke-opacity="1.0" stroke="rgb(0, 0, 0)" stroke-linejoin="round" d=" M 416.730, 606.815 417.185, 606.815 416.730, 606.815 415.381, 606.815 413.190, 606.815 410.243, 606.815 406.651, 606.815 402.552, 606.815 398.106, 606.815 393.481, 606.815 388.857, 606.815 384.410, 606.815 380.312, 606.815 376.720, 606.815 373.773, 606.815 371.582, 606.815 370.233, 606.815 369.778, 606.815 " />
            <path fill="none" stroke-width="1.5" stroke-linecap="round" stroke-opacity="1.0" stroke="rgb(0, 0, 0)" stroke-linejoin="round" d=" M 369.778, 606.815 369.778, 616.815 369.778, 626.815 369.778, 636.815 369.778, 646.815 369.778, 656.815 369.778, 666.815 369.778, 676.815 369.778, 686.815 369.778, 696.815 369.778, 706.815 369.778, 716.815 369.778, 726.815 369.778, 736.815 369.778, 746.815 369.778, 756.815 369.778, 766.815 369.778, 776.815 369.778, 786.815 369.778, 796.444 370.233, 796.444 371.582, 796.444 373.773, 796.444 376.720, 796.444 380.312, 796.444 384.410, 796.444 388.857, 796.444 393.481, 796.444 398.106, 796.444 402.552, 796.444 406.651, 796.444 410.243, 796.444 413.190, 796.444 415.381, 796.444 416.730, 796.444 417.185, 796.444 417.185, 786.444 417.185, 776.444 417.185, 766.444 417.185, 756.444 417.185, 746.444 417.185, 736.444 417.185, 726.444 417.185, 716.444 417.185, 706.444 417.185, 696.444 417.185, 686.444 417.185, 676.444 417.185, 666.444 417.185, 656.444 417.185, 646.444 417.185, 636.444 417.185, 626.444 417.185, 616.444 417.185, 606.815 " />
            <path fill="none" stroke-width="1.5" stroke-linecap="round" stroke-opacity="1.0" stroke="rgb(0, 0, 0)" stroke-linejoin="round" d=" M 369.778, 606.815 370.233, 606.815 " />
            <path fill="none" stroke-width="1.5" stroke-linecap="round" stroke-opacity="1.0" stroke="rgb(0, 0, 0)" stroke-linejoin="round" d=" M 653.767, 606.815 654.222, 606.815 653.767, 606.815 652.418, 606.815 650.227, 606.815 647.280, 606.815 643.688, 606.815 639.590, 606.815 635.143, 606.815 630.518, 606.815 625.894, 606.815 621.448, 606.815 617.349, 606.815 613.757, 606.815 610.810, 606.815 608.619, 606.815 607.270, 606.815 606.815, 606.815 606.815, 616.815 606.815, 626.815 606.815, 636.815 606.815, 646.815 606.815, 656.815 606.815, 666.815 606.815, 676.815 606.815, 686.815 606.815, 696.815 606.815, 706.815 606.815, 716.815 606.815, 726.815 606.815, 736.815 606.815, 746.815 606.815, 756.815 606.815, 766.815 606.815, 776.815 606.815, 786.815 606.815, 796.444 607.270, 796.444 608.619, 796.444 610.810, 796.444 613.757, 796.444 617.349, 796.444 621.448, 796.444 625.894, 796.444 630.518, 796.444 635.143, 796.444 639.590, 796.444 643.688, 796.444 647.280, 796.444 650.227, 796.444 652.418, 796.444 653.767, 796.444 654.222, 796.444 654.222, 786.444 654.222, 776.444 654.222, 766.444 654.222, 756.444 654.222, 746.444 654.222, 736.444 654.222, 726.444 654.222, 716.444 654.222, 706.444 654.222, 696.444 654.222, 686.444 654.222, 676.444 654.222, 666.444 654.222, 656.444 654.222, 646.444 654.222, 636.444 654.222, 626.444 654.222, 616.444 654.222, 606.815 " />
            <path fill="none" stroke-width="1.5" stroke-linecap="round" stroke-opacity="1.0" stroke="rgb(0, 0, 0)" stroke-linejoin="round" d=" M 606.815, 606.815 607.270, 606.815 " />
            <path fill="none" stroke-width="1.5" stroke-linecap="round" stroke-opacity="1.0" stroke="rgb(0, 0, 0)" stroke-linejoin="round" d=" M 416.730, 606.815 417.185, 606.815 " />
            <path fill="none" stroke-width="1.5" stroke-linecap="round" stroke-opacity="1.0" stroke="rgb(0, 0, 0)" stroke-linejoin="round" d=" M 653.767, 606.815 654.222, 606.815 " />
            <path fill="none" stroke-width="1.5" stroke-linecap="round" stroke-opacity="1.0" stroke="rgb(0, 0, 0)" stroke-linejoin="round" d=" M 606.815, 606.815 607.270, 606.815 " />
            <path fill="none" stroke-width="1.5" stroke-linecap="round" stroke-opacity="1.0" stroke="rgb(0, 0, 0)" stroke-linejoin="round" d=" M 369.778, 488.296 369.778, 488.296 369.778, 498.296 369.778, 508.296 369.778, 518.296 369.778, 528.296 369.778, 535.704 369.778, 535.704 379.778, 535.704 389.778, 535.704 399.778, 535.704 409.778, 535.704 419.778, 535.704 429.778, 535.704 439.778, 535.704 449.778, 535.704 459.778, 535.704 469.778, 535.704 479.778, 535.704 489.778, 535.704 499.778, 535.704 509.778, 535.704 519.778, 535.704 529.778, 535.704 539.778, 535.704 549.778, 535.704 559.778, 535.704 569.778, 535.704 579.778, 535.704 589.778, 535.704 599.778, 535.704 609.778, 535.704 619.778, 535.704 629.778, 535.704 639.778, 535.704 649.778, 535.704 654.222, 535.704 654.222, 535.704 654.222, 525.704 654.222, 515.704 654.222, 505.704 654.222, 495.704 654.222, 488.296 644.222, 488.296 634.222, 488.296 624.222, 488.296 614.222, 488.296 604.222, 488.296 594.222, 488.296 584.222, 488.296 574.222, 488.296 564.222, 488.296 554.222, 488.296 544.222, 488.296 534.222, 488.296 524.222, 488.296 514.222, 488.296 504.222, 488.296 494.222, 488.296 484.222, 488.296 474.222, 488.296 464.222, 488.296 454.222, 488.296 444.222, 488.296 434.222, 488.296 424.222, 488.296 414.222, 488.296 404.222, 488.296 394.222, 488.296 384.222, 488.296 374.222, 488.296 369.778, 488.296 " />
            <path fill="none" stroke-width="1.5" stroke-linecap="round" stroke-opacity="1.0" stroke="rgb(0, 0, 0)" stroke-linejoin="round" d=" M 369.778, 535.704 379.778, 535.704 389.778, 535.704 399.778, 535.704 409.778, 535.704 419.778, 535.704 429.778, 535.704 439.778, 535.704 449.778, 535.704 459.778, 535.704 469.778, 535.704 479.778, 535.704 489.778, 535.704 499.778, 535.704 509.778, 535.704 519.778, 535.704 529.778, 535.704 539.778, 535.704 549.778, 535.704 559.778, 535.704 569.778, 535.704 579.778, 535.704 589.778, 535.704 599.778, 535.704 609.778, 535.704 619.778, 535.704 629.778, 535.704 639.778, 535.704 649.778, 535.704 654.222, 535.704 " />
            <path fill="none" stroke-width="1.5" stroke-linecap="round" stroke-opacity="1.0" stroke="rgb(0, 0, 0)" stroke-linejoin="round" d=" M 654.222, 464.593 654.222, 454.593 654.222, 444.593 654.222, 434.593 654.222, 424.593 654.222, 414.593 654.222, 404.593 654.222, 394.593 654.222, 384.593 654.222, 374.593 654.222, 364.593 654.222, 354.593 654.222, 344.593 654.222, 334.593 654.222, 324.593 654.222, 314.593 654.222, 304.593 654.222, 294.593 654.222, 284.593 654.222, 274.593 654.222, 264.593 654.222, 254.593 654.222, 244.593 654.222, 234.593 654.222, 227.556 " />
            <path fill="none" stroke-width="1.5" stroke-linecap="round" stroke-opacity="1.0" stroke="rgb(0, 0, 0)" stroke-linejoin="round" d=" M 336.460, 403.455 334.724, 413.303 332.987, 423.152 332.344, 426.799 332.344, 426.799 342.192, 428.535 352.040, 430.272 355.688, 430.915 357.424, 421.067 359.161, 411.219 359.804, 407.571 359.804, 407.571 349.956, 405.835 340.108, 404.099 336.460, 403.455 " />
            <path fill="none" stroke-width="1.5" stroke-linecap="round" stroke-opacity="1.0" stroke="rgb(0, 0, 0)" stroke-linejoin="round" d=" M 359.804, 407.571 358.067, 417.420 356.331, 427.268 355.688, 430.915 " />
            <path fill="none" stroke-width="1.5" stroke-linecap="round" stroke-opacity="1.0" stroke="rgb(0, 0, 0)" stroke-linejoin="round" d=" M 332.344, 426.799 342.192, 428.535 352.040, 430.272 355.688, 430.915 355.688, 430.915 " />
            <path fill="none" stroke-width="1.5" stroke-linecap="round" stroke-opacity="1.0" stroke="rgb(0, 0, 0)" stroke-linejoin="round" d=" M 668.312, 403.455 666.576, 413.303 664.839, 423.152 664.196, 426.799 664.196, 426.799 674.044, 428.535 683.892, 430.272 687.540, 430.915 689.276, 421.067 691.013, 411.219 691.656, 407.571 691.656, 407.571 681.808, 405.835 671.960, 404.099 668.312, 403.455 " />
            <path fill="none" stroke-width="1.5" stroke-linecap="round" stroke-opacity="1.0" stroke="rgb(0, 0, 0)" stroke-linejoin="round" d=" M 691.656, 407.571 689.919, 417.420 688.183, 427.268 687.540, 430.915 " />
            <path fill="none" stroke-width="1.5" stroke-linecap="round" stroke-opacity="1.0" stroke="rgb(0, 0, 0)" stroke-linejoin="round" d=" M 664.196, 426.799 674.044, 428.535 683.892, 430.272 687.540, 430.915 687.540, 430.915 " />
            <path fill="none" stroke-width="1.5" stroke-linecap="round" stroke-opacity="1.0" stroke="rgb(0, 0, 0)" stroke-linejoin="round" d=" M 369.778, 227.556 369.778, 237.556 369.778, 247.556 369.778, 257.556 369.778, 267.556 369.778, 277.556 369.778, 287.556 369.778, 297.556 369.778, 307.556 369.778, 317.556 369.778, 327.556 369.778, 337.556 369.778, 347.556 369.778, 357.556 369.778, 367.556 369.778, 377.556 369.778, 387.556 369.778, 397.556 369.778, 407.556 369.778, 417.556 369.778, 427.556 369.778, 437.556 369.778, 447.556 369.778, 457.556 369.778, 464.593 " />
            <path fill="none" stroke-width="1.5" stroke-linecap="round" stroke-opacity="1.0" stroke="rgb(0, 0, 0)" stroke-linejoin="round" d=" M 369.778, 606.815 370.233, 606.815 " />
            <path fill="none" stroke-width="1.5" stroke-linecap="round" stroke-opacity="1.0" stroke="rgb(0, 0, 0)" stroke-linejoin="round" d=" M 369.778, 464.593 379.778, 464.593 389.778, 464.593 399.778, 464.593 409.778, 464.593 419.778, 464.593 429.778, 464.593 439.778, 464.593 449.778, 464.593 459.778, 464.593 469.778, 464.593 479.778, 464.593 489.778, 464.593 499.778, 464.593 509.778, 464.593 519.778, 464.593 529.778, 464.593 539.778, 464.593 549.778, 464.593 559.778, 464.593 569.778, 464.593 579.778, 464.593 589.778, 464.593 599.778, 464.593 609.778, 464.593 619.778, 464.593 629.778, 464.593 639.778, 464.593 649.778, 464.593 654.222, 464.593 " />
            <path fill="none" stroke-width="1.5" stroke-linecap="round" stroke-opacity="1.0" stroke="rgb(0, 0, 0)" stroke-linejoin="round" d=" M 654.222, 227.556 644.222, 227.556 634.222, 227.556 624.222, 227.556 614.222, 227.556 604.222, 227.556 594.222, 227.556 584.222, 227.556 574.222, 227.556 564.222, 227.556 554.222, 227.556 544.222, 227.556 534.222, 227.556 524.222, 227.556 514.222, 227.556 504.222, 227.556 494.222, 227.556 484.222, 227.556 474.222, 227.556 464.222, 227.556 454.222, 227.556 444.222, 227.556 434.222, 227.556 424.222, 227.556 414.222, 227.556 404.222, 227.556 394.222, 227.556 384.222, 227.556 374.222, 227.556 369.778, 227.556 " />
        </g>
    </g>
    <g id="ViewLayer_TechnicalLines.003" inkscape:groupmode="lineset" inkscape:label="ViewLayer_TechnicalLines.003">
        <g inkscape:groupmode="layer" id="strokes" inkscape:label="strokes">
            <path fill="none" stroke-width="1.5" stroke-linecap="round" stroke-opacity="1.0" stroke="rgb(0, 0, 0)" stroke-linejoin="round" d=" M 416.730, 606.815 417.185, 606.815 416.730, 606.815 415.381, 606.815 413.190, 606.815 410.243, 606.815 406.651, 606.815 402.552, 606.815 398.106, 606.815 393.481, 606.815 388.857, 606.815 384.410, 606.815 380.312, 606.815 376.720, 606.815 373.773, 606.815 371.582, 606.815 370.233, 606.815 369.778, 606.815 " />
            <path fill="none" stroke-width="1.5" stroke-linecap="round" stroke-opacity="1.0" stroke="rgb(0, 0, 0)" stroke-linejoin="round" d=" M 369.778, 606.815 369.778, 616.815 369.778, 626.815 369.778, 636.815 369.778, 646.815 369.778, 656.815 369.778, 666.815 369.778, 676.815 369.778, 686.815 369.778, 696.815 369.778, 706.815 369.778, 716.815 369.778, 726.815 369.778, 736.815 369.778, 746.815 369.778, 756.815 369.778, 766.815 369.778, 776.815 369.778, 786.815 369.778, 796.444 370.233, 796.444 371.582, 796.444 373.773, 796.444 376.720, 796.444 380.312, 796.444 384.410, 796.444 388.857, 796.444 393.481, 796.444 398.106, 796.444 402.552, 796.444 406.651, 796.444 410.243, 796.444 413.190, 796.444 415.381, 796.444 416.730, 796.444 417.185, 796.444 417.185, 786.444 417.185, 776.444 417.185, 766.444 417.185, 756.444 417.185, 746.444 417.185, 736.444 417.185, 726.444 417.185, 716.444 417.185, 706.444 417.185, 696.444 417.185, 686.444 417.185, 676.444 417.185, 666.444 417.185, 656.444 417.185, 646.444 417.185, 636.444 417.185, 626.444 417.185, 616.444 417.185, 606.815 " />
            <path fill="none" stroke-width="1.5" stroke-linecap="round" stroke-opacity="1.0" stroke="rgb(0, 0, 0)" stroke-linejoin="round" d=" M 369.778, 606.815 370.233, 606.815 " />
            <path fill="none" stroke-width="1.5" stroke-linecap="round" stroke-opacity="1.0" stroke="rgb(0, 0, 0)" stroke-linejoin="round" d=" M 653.767, 606.815 654.222, 606.815 653.767, 606.815 652.418, 606.815 650.227, 606.815 647.280, 606.815 643.688, 606.815 639.590, 606.815 635.143, 606.815 630.518, 606.815 625.894, 606.815 621.448, 606.815 617.349, 606.815 613.757, 606.815 610.810, 606.815 608.619, 606.815 607.270, 606.815 606.815, 606.815 606.815, 616.815 606.815, 626.815 606.815, 636.815 606.815, 646.815 606.815, 656.815 606.815, 666.815 606.815, 676.815 606.815, 686.815 606.815, 696.815 606.815, 706.815 606.815, 716.815 606.815, 726.815 606.815, 736.815 606.815, 746.815 606.815, 756.815 606.815, 766.815 606.815, 776.815 606.815, 786.815 606.815, 796.444 607.270, 796.444 608.619, 796.444 610.810, 796.444 613.757, 796.444 617.349, 796.444 621.448, 796.444 625.894, 796.444 630.518, 796.444 635.143, 796.444 639.590, 796.444 643.688, 796.444 647.280, 796.444 650.227, 796.444 652.418, 796.444 653.767, 796.444 654.222, 796.444 654.222, 786.444 654.222, 776.444 654.222, 766.444 654.222, 756.444 654.222, 746.444 654.222, 736.444 654.222, 726.444 654.222, 716.444 654.222, 706.444 654.222, 696.444 654.222, 686.444 654.222, 676.444 654.222, 666.444 654.222, 656.444 654.222, 646.444 654.222, 636.444 654.222, 626.444 654.222, 616.444 654.222, 606.815 " />
            <path fill="none" stroke-width="1.5" stroke-linecap="round" stroke-opacity="1.0" stroke="rgb(0, 0, 0)" stroke-linejoin="round" d=" M 606.815, 606.815 607.270, 606.815 " />
            <path fill="none" stroke-width="1.5" stroke-linecap="round" stroke-opacity="1.0" stroke="rgb(0, 0, 0)" stroke-linejoin="round" d=" M 416.730, 606.815 417.185, 606.815 " />
            <path fill="none" stroke-width="1.5" stroke-linecap="round" stroke-opacity="1.0" stroke="rgb(0, 0, 0)" stroke-linejoin="round" d=" M 653.767, 606.815 654.222, 606.815 " />
            <path fill="none" stroke-width="1.5" stroke-linecap="round" stroke-opacity="1.0" stroke="rgb(0, 0, 0)" stroke-linejoin="round" d=" M 606.815, 606.815 607.270, 606.815 " />
            <path fill="none" stroke-width="1.5" stroke-linecap="round" stroke-opacity="1.0" stroke="rgb(0, 0, 0)" stroke-linejoin="round" d=" M 369.778, 488.296 369.778, 488.296 369.778, 498.296 369.778, 508.296 369.778, 518.296 369.778, 528.296 369.778, 535.704 369.778, 535.704 379.778, 535.704 389.778, 535.704 399.778, 535.704 409.778, 535.704 419.778, 535.704 429.778, 535.704 439.778, 535.704 449.778, 535.704 459.778, 535.704 469.778, 535.704 479.778, 535.704 489.778, 535.704 499.778, 535.704 509.778, 535.704 519.778, 535.704 529.778, 535.704 539.778, 535.704 549.778, 535.704 559.778, 535.704 569.778, 535.704 579.778, 535.704 589.778, 535.704 599.778, 535.704 609.778, 535.704 619.778, 535.704 629.778, 535.704 639.778, 535.704 649.778, 535.704 654.222, 535.704 654.222, 535.704 654.222, 525.704 654.222, 515.704 654.222, 505.704 654.222, 495.704 654.222, 488.296 644.222, 488.296 634.222, 488.296 624.222, 488.296 614.222, 488.296 604.222, 488.296 594.222, 488.296 584.222, 488.296 574.222, 488.296 564.222, 488.296 554.222, 488.296 544.222, 488.296 534.222, 488.296 524.222, 488.296 514.222, 488.296 504.222, 488.296 494.222, 488.296 484.222, 488.296 474.222, 488.296 464.222, 488.296 454.222, 488.296 444.222, 488.296 434.222, 488.296 424.222, 488.296 414.222, 488.296 404.222, 488.296 394.222, 488.296 384.222, 488.296 374.222, 488.296 369.778, 488.296 " />
            <path fill="none" stroke-width="1.5" stroke-linecap="round" stroke-opacity="1.0" stroke="rgb(0, 0, 0)" stroke-linejoin="round" d=" M 369.778, 535.704 379.778, 535.704 389.778, 535.704 399.778, 535.704 409.778, 535.704 419.778, 535.704 429.778, 535.704 439.778, 535.704 449.778, 535.704 459.778, 535.704 469.778, 535.704 479.778, 535.704 489.778, 535.704 499.778, 535.704 509.778, 535.704 519.778, 535.704 529.778, 535.704 539.778, 535.704 549.778, 535.704 559.778, 535.704 569.778, 535.704 579.778, 535.704 589.778, 535.704 599.778, 535.704 609.778, 535.704 619.778, 535.704 629.778, 535.704 639.778, 535.704 649.778, 535.704 654.222, 535.704 " />
            <path fill="none" stroke-width="1.5" stroke-linecap="round" stroke-opacity="1.0" stroke="rgb(0, 0, 0)" stroke-linejoin="round" d=" M 654.222, 464.593 654.222, 454.593 654.222, 444.593 654.222, 434.593 654.222, 424.593 654.222, 414.593 654.222, 404.593 654.222, 394.593 654.222, 384.593 654.222, 374.593 654.222, 364.593 654.222, 354.593 654.222, 344.593 654.222, 334.593 654.222, 324.593 654.222, 314.593 654.222, 304.593 654.222, 294.593 654.222, 284.593 654.222, 274.593 654.222, 264.593 654.222, 254.593 654.222, 244.593 654.222, 234.593 654.222, 227.556 " />
            <path fill="none" stroke-width="1.5" stroke-linecap="round" stroke-opacity="1.0" stroke="rgb(0, 0, 0)" stroke-linejoin="round" d=" M 336.460, 403.455 334.724, 413.303 332.987, 423.152 332.344, 426.799 332.344, 426.799 342.192, 428.535 352.040, 430.272 355.688, 430.915 357.424, 421.067 359.161, 411.219 359.804, 407.571 359.804, 407.571 349.956, 405.835 340.108, 404.099 336.460, 403.455 " />
            <path fill="none" stroke-width="1.5" stroke-linecap="round" stroke-opacity="1.0" stroke="rgb(0, 0, 0)" stroke-linejoin="round" d=" M 359.804, 407.571 358.067, 417.420 356.331, 427.268 355.688, 430.915 " />
            <path fill="none" stroke-width="1.5" stroke-linecap="round" stroke-opacity="1.0" stroke="rgb(0, 0, 0)" stroke-linejoin="round" d=" M 332.344, 426.799 342.192, 428.535 352.040, 430.272 355.688, 430.915 355.688, 430.915 " />
            <path fill="none" stroke-width="1.5" stroke-linecap="round" stroke-opacity="1.0" stroke="rgb(0, 0, 0)" stroke-linejoin="round" d=" M 668.312, 403.455 666.576, 413.303 664.839, 423.152 664.196, 426.799 664.196, 426.799 674.044, 428.535 683.892, 430.272 687.540, 430.915 689.276, 421.067 691.013, 411.219 691.656, 407.571 691.656, 407.571 681.808, 405.835 671.960, 404.099 668.312, 403.455 " />
            <path fill="none" stroke-width="1.5" stroke-linecap="round" stroke-opacity="1.0" stroke="rgb(0, 0, 0)" stroke-linejoin="round" d=" M 691.656, 407.571 689.919, 417.420 688.183, 427.268 687.540, 430.915 " />
            <path fill="none" stroke-width="1.5" stroke-linecap="round" stroke-opacity="1.0" stroke="rgb(0, 0, 0)" stroke-linejoin="round" d=" M 664.196, 426.799 674.044, 428.535 683.892, 430.272 687.540, 430.915 687.540, 430.915 " />
            <path fill="none" stroke-width="1.5" stroke-linecap="round" stroke-opacity="1.0" stroke="rgb(0, 0, 0)" stroke-linejoin="round" d=" M 369.778, 227.556 369.778, 237.556 369.778, 247.556 369.778, 257.556 369.778, 267.556 369.778, 277.556 369.778, 287.556 369.778, 297.556 369.778, 307.556 369.778, 317.556 369.778, 327.556 369.778, 337.556 369.778, 347.556 369.778, 357.556 369.778, 367.556 369.778, 377.556 369.778, 387.556 369.778, 397.556 369.778, 407.556 369.778, 417.556 369.778, 427.556 369.778, 437.556 369.778, 447.556 369.778, 457.556 369.778, 464.593 " />
            <path fill="none" stroke-width="1.5" stroke-linecap="round" stroke-opacity="1.0" stroke="rgb(0, 0, 0)" stroke-linejoin="round" d=" M 369.778, 606.815 370.233, 606.815 " />
            <path fill="none" stroke-width="1.5" stroke-linecap="round" stroke-opacity="1.0" stroke="rgb(0, 0, 0)" stroke-linejoin="round" d=" M 369.778, 464.593 379.778, 464.593 389.778, 464.593 399.778, 464.593 409.778, 464.593 419.778, 464.593 429.778, 464.593 439.778, 464.593 449.778, 464.593 459.778, 464.593 469.778, 464.593 479.778, 464.593 489.778, 464.593 499.778, 464.593 509.778, 464.593 519.778, 464.593 529.778, 464.593 539.778, 464.593 549.778, 464.593 559.778, 464.593 569.778, 464.593 579.778, 464.593 589.778, 464.593 599.778, 464.593 609.778, 464.593 619.778, 464.593 629.778, 464.593 639.778, 464.593 649.778, 464.593 654.222, 464.593 " />
            <path fill="none" stroke-width="1.5" stroke-linecap="round" stroke-opacity="1.0" stroke="rgb(0, 0, 0)" stroke-linejoin="round" d=" M 654.222, 227.556 644.222, 227.556 634.222, 227.556 624.222, 227.556 614.222, 227.556 604.222, 227.556 594.222, 227.556 584.222, 227.556 574.222, 227.556 564.222, 227.556 554.222, 227.556 544.222, 227.556 534.222, 227.556 524.222, 227.556 514.222, 227.556 504.222, 227.556 494.222, 227.556 484.222, 227.556 474.222, 227.556 464.222, 227.556 454.222, 227.556 444.222, 227.556 434.222, 227.556 424.222, 227.556 414.222, 227.556 404.222, 227.556 394.222, 227.556 384.222, 227.556 374.222, 227.556 369.778, 227.556 " />
        </g>
    </g>
    <g id="ViewLayer_TechnicalLines.004" xmlns:inkscape="http://www.inkscape.org/namespaces/inkscape" inkscape:groupmode="lineset" inkscape:label="ViewLayer_TechnicalLines.004">
        <g xmlns:inkscape="http://www.inkscape.org/namespaces/inkscape" inkscape:groupmode="layer" id="strokes" inkscape:label="strokes">
            <path fill="none" stroke-width="1.5" stroke-linecap="round" stroke-opacity="1.0" stroke="rgb(0, 0, 0)" stroke-linejoin="round" d=" M 416.730, 606.815 417.185, 606.815 416.730, 606.815 415.381, 606.815 413.190, 606.815 410.243, 606.815 406.651, 606.815 402.552, 606.815 398.106, 606.815 393.481, 606.815 388.857, 606.815 384.410, 606.815 380.312, 606.815 376.720, 606.815 373.773, 606.815 371.582, 606.815 370.233, 606.815 369.778, 606.815 " />
            <path fill="none" stroke-width="1.5" stroke-linecap="round" stroke-opacity="1.0" stroke="rgb(0, 0, 0)" stroke-linejoin="round" d=" M 369.778, 606.815 369.778, 616.815 369.778, 626.815 369.778, 636.815 369.778, 646.815 369.778, 656.815 369.778, 666.815 369.778, 676.815 369.778, 686.815 369.778, 696.815 369.778, 706.815 369.778, 716.815 369.778, 726.815 369.778, 736.815 369.778, 746.815 369.778, 756.815 369.778, 766.815 369.778, 776.815 369.778, 786.815 369.778, 796.444 370.233, 796.444 371.582, 796.444 373.773, 796.444 376.720, 796.444 380.312, 796.444 384.410, 796.444 388.857, 796.444 393.481, 796.444 398.106, 796.444 402.552, 796.444 406.651, 796.444 410.243, 796.444 413.190, 796.444 415.381, 796.444 416.730, 796.444 417.185, 796.444 417.185, 786.444 417.185, 776.444 417.185, 766.444 417.185, 756.444 417.185, 746.444 417.185, 736.444 417.185, 726.444 417.185, 716.444 417.185, 706.444 417.185, 696.444 417.185, 686.444 417.185, 676.444 417.185, 666.444 417.185, 656.444 417.185, 646.444 417.185, 636.444 417.185, 626.444 417.185, 616.444 417.185, 606.815 " />
            <path fill="none" stroke-width="1.5" stroke-linecap="round" stroke-opacity="1.0" stroke="rgb(0, 0, 0)" stroke-linejoin="round" d=" M 369.778, 606.815 370.233, 606.815 " />
            <path fill="none" stroke-width="1.5" stroke-linecap="round" stroke-opacity="1.0" stroke="rgb(0, 0, 0)" stroke-linejoin="round" d=" M 653.767, 606.815 654.222, 606.815 653.767, 606.815 652.418, 606.815 650.227, 606.815 647.280, 606.815 643.688, 606.815 639.590, 606.815 635.143, 606.815 630.518, 606.815 625.894, 606.815 621.448, 606.815 617.349, 606.815 613.757, 606.815 610.810, 606.815 608.619, 606.815 607.270, 606.815 606.815, 606.815 606.815, 616.815 606.815, 626.815 606.815, 636.815 606.815, 646.815 606.815, 656.815 606.815, 666.815 606.815, 676.815 606.815, 686.815 606.815, 696.815 606.815, 706.815 606.815, 716.815 606.815, 726.815 606.815, 736.815 606.815, 746.815 606.815, 756.815 606.815, 766.815 606.815, 776.815 606.815, 786.815 606.815, 796.444 607.270, 796.444 608.619, 796.444 610.810, 796.444 613.757, 796.444 617.349, 796.444 621.448, 796.444 625.894, 796.444 630.518, 796.444 635.143, 796.444 639.590, 796.444 643.688, 796.444 647.280, 796.444 650.227, 796.444 652.418, 796.444 653.767, 796.444 654.222, 796.444 654.222, 786.444 654.222, 776.444 654.222, 766.444 654.222, 756.444 654.222, 746.444 654.222, 736.444 654.222, 726.444 654.222, 716.444 654.222, 706.444 654.222, 696.444 654.222, 686.444 654.222, 676.444 654.222, 666.444 654.222, 656.444 654.222, 646.444 654.222, 636.444 654.222, 626.444 654.222, 616.444 654.222, 606.815 " />
            <path fill="none" stroke-width="1.5" stroke-linecap="round" stroke-opacity="1.0" stroke="rgb(0, 0, 0)" stroke-linejoin="round" d=" M 606.815, 606.815 607.270, 606.815 " />
            <path fill="none" stroke-width="1.5" stroke-linecap="round" stroke-opacity="1.0" stroke="rgb(0, 0, 0)" stroke-linejoin="round" d=" M 416.730, 606.815 417.185, 606.815 " />
            <path fill="none" stroke-width="1.5" stroke-linecap="round" stroke-opacity="1.0" stroke="rgb(0, 0, 0)" stroke-linejoin="round" d=" M 653.767, 606.815 654.222, 606.815 " />
            <path fill="none" stroke-width="1.5" stroke-linecap="round" stroke-opacity="1.0" stroke="rgb(0, 0, 0)" stroke-linejoin="round" d=" M 606.815, 606.815 607.270, 606.815 " />
            <path fill="none" stroke-width="1.5" stroke-linecap="round" stroke-opacity="1.0" stroke="rgb(0, 0, 0)" stroke-linejoin="round" d=" M 369.778, 488.296 369.778, 488.296 369.778, 498.296 369.778, 508.296 369.778, 518.296 369.778, 528.296 369.778, 535.704 369.778, 535.704 379.778, 535.704 389.778, 535.704 399.778, 535.704 409.778, 535.704 419.778, 535.704 429.778, 535.704 439.778, 535.704 449.778, 535.704 459.778, 535.704 469.778, 535.704 479.778, 535.704 489.778, 535.704 499.778, 535.704 509.778, 535.704 519.778, 535.704 529.778, 535.704 539.778, 535.704 549.778, 535.704 559.778, 535.704 569.778, 535.704 579.778, 535.704 589.778, 535.704 599.778, 535.704 609.778, 535.704 619.778, 535.704 629.778, 535.704 639.778, 535.704 649.778, 535.704 654.222, 535.704 654.222, 535.704 654.222, 525.704 654.222, 515.704 654.222, 505.704 654.222, 495.704 654.222, 488.296 644.222, 488.296 634.222, 488.296 624.222, 488.296 614.222, 488.296 604.222, 488.296 594.222, 488.296 584.222, 488.296 574.222, 488.296 564.222, 488.296 554.222, 488.296 544.222, 488.296 534.222, 488.296 524.222, 488.296 514.222, 488.296 504.222, 488.296 494.222, 488.296 484.222, 488.296 474.222, 488.296 464.222, 488.296 454.222, 488.296 444.222, 488.296 434.222, 488.296 424.222, 488.296 414.222, 488.296 404.222, 488.296 394.222, 488.296 384.222, 488.296 374.222, 488.296 369.778, 488.296 " />
            <path fill="none" stroke-width="1.5" stroke-linecap="round" stroke-opacity="1.0" stroke="rgb(0, 0, 0)" stroke-linejoin="round" d=" M 369.778, 535.704 379.778, 535.704 389.778, 535.704 399.778, 535.704 409.778, 535.704 419.778, 535.704 429.778, 535.704 439.778, 535.704 449.778, 535.704 459.778, 535.704 469.778, 535.704 479.778, 535.704 489.778, 535.704 499.778, 535.704 509.778, 535.704 519.778, 535.704 529.778, 535.704 539.778, 535.704 549.778, 535.704 559.778, 535.704 569.778, 535.704 579.778, 535.704 589.778, 535.704 599.778, 535.704 609.778, 535.704 619.778, 535.704 629.778, 535.704 639.778, 535.704 649.778, 535.704 654.222, 535.704 " />
            <path fill="none" stroke-width="1.5" stroke-linecap="round" stroke-opacity="1.0" stroke="rgb(0, 0, 0)" stroke-linejoin="round" d=" M 654.222, 464.593 654.222, 454.593 654.222, 444.593 654.222, 434.593 654.222, 424.593 654.222, 414.593 654.222, 404.593 654.222, 394.593 654.222, 384.593 654.222, 374.593 654.222, 364.593 654.222, 354.593 654.222, 344.593 654.222, 334.593 654.222, 324.593 654.222, 314.593 654.222, 304.593 654.222, 294.593 654.222, 284.593 654.222, 274.593 654.222, 264.593 654.222, 254.593 654.222, 244.593 654.222, 234.593 654.222, 227.556 " />
            <path fill="none" stroke-width="1.5" stroke-linecap="round" stroke-opacity="1.0" stroke="rgb(0, 0, 0)" stroke-linejoin="round" d=" M 336.460, 403.455 334.724, 413.303 332.987, 423.152 332.344, 426.799 332.344, 426.799 342.192, 428.535 352.040, 430.272 355.688, 430.915 357.424, 421.067 359.161, 411.219 359.804, 407.571 359.804, 407.571 349.956, 405.835 340.108, 404.099 336.460, 403.455 " />
            <path fill="none" stroke-width="1.5" stroke-linecap="round" stroke-opacity="1.0" stroke="rgb(0, 0, 0)" stroke-linejoin="round" d=" M 359.804, 407.571 358.067, 417.420 356.331, 427.268 355.688, 430.915 " />
            <path fill="none" stroke-width="1.5" stroke-linecap="round" stroke-opacity="1.0" stroke="rgb(0, 0, 0)" stroke-linejoin="round" d=" M 332.344, 426.799 342.192, 428.535 352.040, 430.272 355.688, 430.915 355.688, 430.915 " />
            <path fill="none" stroke-width="1.5" stroke-linecap="round" stroke-opacity="1.0" stroke="rgb(0, 0, 0)" stroke-linejoin="round" d=" M 668.312, 403.455 666.576, 413.303 664.839, 423.152 664.196, 426.799 664.196, 426.799 674.044, 428.535 683.892, 430.272 687.540, 430.915 689.276, 421.067 691.013, 411.219 691.656, 407.571 691.656, 407.571 681.808, 405.835 671.960, 404.099 668.312, 403.455 " />
            <path fill="none" stroke-width="1.5" stroke-linecap="round" stroke-opacity="1.0" stroke="rgb(0, 0, 0)" stroke-linejoin="round" d=" M 691.656, 407.571 689.919, 417.420 688.183, 427.268 687.540, 430.915 " />
            <path fill="none" stroke-width="1.5" stroke-linecap="round" stroke-opacity="1.0" stroke="rgb(0, 0, 0)" stroke-linejoin="round" d=" M 664.196, 426.799 674.044, 428.535 683.892, 430.272 687.540, 430.915 687.540, 430.915 " />
            <path fill="none" stroke-width="1.5" stroke-linecap="round" stroke-opacity="1.0" stroke="rgb(0, 0, 0)" stroke-linejoin="round" d=" M 369.778, 227.556 369.778, 237.556 369.778, 247.556 369.778, 257.556 369.778, 267.556 369.778, 277.556 369.778, 287.556 369.778, 297.556 369.778, 307.556 369.778, 317.556 369.778, 327.556 369.778, 337.556 369.778, 347.556 369.778, 357.556 369.778, 367.556 369.778, 377.556 369.778, 387.556 369.778, 397.556 369.778, 407.556 369.778, 417.556 369.778, 427.556 369.778, 437.556 369.778, 447.556 369.778, 457.556 369.778, 464.593 " />
            <path fill="none" stroke-width="1.5" stroke-linecap="round" stroke-opacity="1.0" stroke="rgb(0, 0, 0)" stroke-linejoin="round" d=" M 369.778, 606.815 370.233, 606.815 " />
            <path fill="none" stroke-width="1.5" stroke-linecap="round" stroke-opacity="1.0" stroke="rgb(0, 0, 0)" stroke-linejoin="round" d=" M 369.778, 464.593 379.778, 464.593 389.778, 464.593 399.778, 464.593 409.778, 464.593 419.778, 464.593 429.778, 464.593 439.778, 464.593 449.778, 464.593 459.778, 464.593 469.778, 464.593 479.778, 464.593 489.778, 464.593 499.778, 464.593 509.778, 464.593 519.778, 464.593 529.778, 464.593 539.778, 464.593 549.778, 464.593 559.778, 464.593 569.778, 464.593 579.778, 464.593 589.778, 464.593 599.778, 464.593 609.778, 464.593 619.778, 464.593 629.778, 464.593 639.778, 464.593 649.778, 464.593 654.222, 464.593 " />
            <path fill="none" stroke-width="1.5" stroke-linecap="round" stroke-opacity="1.0" stroke="rgb(0, 0, 0)" stroke-linejoin="round" d=" M 654.222, 227.556 644.222, 227.556 634.222, 227.556 624.222, 227.556 614.222, 227.556 604.222, 227.556 594.222, 227.556 584.222, 227.556 574.222, 227.556 564.222, 227.556 554.222, 227.556 544.222, 227.556 534.222, 227.556 524.222, 227.556 514.222, 227.556 504.222, 227.556 494.222, 227.556 484.222, 227.556 474.222, 227.556 464.222, 227.556 454.222, 227.556 444.222, 227.556 434.222, 227.556 424.222, 227.556 414.222, 227.556 404.222, 227.556 394.222, 227.556 384.222, 227.556 374.222, 227.556 369.778, 227.556 " />
        </g>
    </g>
</svg>
