<?xml version='1.0' encoding='ascii'?>
<svg xmlns="http://www.w3.org/2000/svg" xmlns:inkscape="http://www.inkscape.org/namespaces/inkscape" version="1.1" width="1024" height="1024">
    <g id="ViewLayer_LineSet" inkscape:groupmode="lineset" inkscape:label="ViewLayer_LineSet">
        <g inkscape:groupmode="layer" id="strokes" inkscape:label="strokes">
            <path fill="none" stroke-width="3.0" stroke-linecap="butt" stroke-opacity="1.0" stroke="rgb(0, 0, 0)" stroke-linejoin="round" d=" M 306.023, 678.743 306.023, 678.743 306.023, 688.743 306.023, 698.743 306.023, 708.743 306.023, 718.743 306.023, 728.743 306.023, 738.743 306.023, 748.743 306.023, 758.743 306.023, 768.743 306.023, 778.743 306.023, 788.743 306.023, 796.444 306.023, 796.444 316.023, 796.444 326.023, 796.444 336.023, 796.444 346.023, 796.444 356.023, 796.444 366.023, 796.444 376.023, 796.444 386.023, 796.444 396.023, 796.444 406.023, 796.444 416.023, 796.444 426.023, 796.444 436.023, 796.444 446.023, 796.444 456.023, 796.444 466.023, 796.444 476.023, 796.444 486.023, 796.444 496.023, 796.444 506.023, 796.444 516.023, 796.444 526.023, 796.444 536.023, 796.444 546.023, 796.444 556.023, 796.444 566.023, 796.444 576.023, 796.444 586.023, 796.444 596.023, 796.444 606.023, 796.444 616.023, 796.444 626.023, 796.444 636.023, 796.444 646.023, 796.444 656.023, 796.444 666.023, 796.444 676.023, 796.444 686.023, 796.444 696.023, 796.444 706.023, 796.444 716.023, 796.444 726.023, 796.444 736.023, 796.444 746.023, 796.444 756.023, 796.444 766.023, 796.444 776.828, 796.444 776.828, 796.444 776.828, 786.444 776.828, 776.444 776.828, 766.444 776.828, 756.444 776.828, 746.444 776.828, 736.444 776.828, 726.444 776.828, 716.444 776.828, 706.444 776.828, 696.444 776.828, 686.444 776.828, 678.743 " />
            <path fill="none" stroke-width="3.0" stroke-linecap="butt" stroke-opacity="1.0" stroke="rgb(0, 0, 0)" stroke-linejoin="round" d=" M 306.023, 796.444 316.023, 796.444 326.023, 796.444 336.023, 796.444 346.023, 796.444 356.023, 796.444 366.023, 796.444 376.023, 796.444 386.023, 796.444 396.023, 796.444 406.023, 796.444 416.023, 796.444 426.023, 796.444 436.023, 796.444 446.023, 796.444 456.023, 796.444 466.023, 796.444 476.023, 796.444 486.023, 796.444 496.023, 796.444 506.023, 796.444 516.023, 796.444 526.023, 796.444 536.023, 796.444 546.023, 796.444 556.023, 796.444 566.023, 796.444 576.023, 796.444 586.023, 796.444 596.023, 796.444 606.023, 796.444 616.023, 796.444 626.023, 796.444 636.023, 796.444 646.023, 796.444 656.023, 796.444 666.023, 796.444 676.023, 796.444 686.023, 796.444 696.023, 796.444 706.023, 796.444 716.023, 796.444 726.023, 796.444 736.023, 796.444 746.023, 796.444 756.023, 796.444 766.023, 796.444 776.828, 796.444 " />
            <path fill="none" stroke-width="3.0" stroke-linecap="butt" stroke-opacity="1.0" stroke="rgb(0, 0, 0)" stroke-linejoin="round" d=" M 364.874, 482.575 364.874, 472.575 364.874, 462.575 364.874, 452.575 364.874, 442.575 364.874, 432.575 364.874, 422.575 364.874, 412.575 364.874, 402.575 364.874, 392.575 364.874, 382.575 364.874, 372.575 364.874, 362.575 364.874, 352.575 364.874, 342.575 364.874, 332.575 364.874, 322.575 364.874, 312.575 364.874, 302.575 364.874, 292.575 364.874, 282.575 364.874, 272.575 364.874, 262.575 364.874, 252.575 364.874, 242.575 364.874, 232.575 364.874, 227.556 364.874, 227.556 354.874, 227.556 344.874, 227.556 334.874, 227.556 324.874, 227.556 314.874, 227.556 304.874, 227.556 294.874, 227.556 284.874, 227.556 274.874, 227.556 264.874, 227.556 254.874, 227.556 247.172, 227.556 247.172, 237.556 247.172, 247.556 247.172, 257.556 247.172, 267.556 247.172, 277.556 247.172, 287.556 247.172, 297.556 247.172, 307.556 247.172, 317.556 247.172, 327.556 247.172, 337.556 247.172, 347.556 247.172, 357.556 247.172, 367.556 247.172, 377.556 247.172, 387.556 247.172, 397.556 247.172, 407.556 247.172, 417.556 247.172, 427.556 247.172, 437.556 247.172, 447.556 247.172, 457.556 247.172, 467.556 247.172, 477.556 247.172, 487.556 247.172, 497.556 247.172, 507.556 247.172, 517.556 247.172, 527.556 247.172, 537.556 247.172, 547.556 247.172, 557.556 247.172, 567.556 247.172, 577.556 247.172, 587.556 247.172, 597.556 247.172, 607.556 247.172, 619.893 247.172, 619.893 257.172, 619.893 267.172, 619.893 277.172, 619.893 287.172, 619.893 297.172, 619.893 306.023, 619.893 " />
            <path fill="none" stroke-width="3.0" stroke-linecap="butt" stroke-opacity="1.0" stroke="rgb(0, 0, 0)" stroke-linejoin="round" d=" M 364.874, 227.556 364.874, 237.556 364.874, 247.556 364.874, 257.556 364.874, 267.556 364.874, 277.556 364.874, 287.556 364.874, 297.556 364.874, 307.556 364.874, 317.556 364.874, 327.556 364.874, 337.556 364.874, 347.556 364.874, 357.556 364.874, 367.556 364.874, 377.556 364.874, 387.556 364.874, 397.556 364.874, 407.556 364.874, 417.556 364.874, 427.556 364.874, 437.556 364.874, 447.556 364.874, 457.556 364.874, 467.556 364.874, 477.556 364.874, 482.575 " />
            <path fill="none" stroke-width="3.0" stroke-linecap="butt" stroke-opacity="1.0" stroke="rgb(0, 0, 0)" stroke-linejoin="round" d=" M 247.172, 619.893 257.172, 619.893 267.172, 619.893 277.172, 619.893 287.172, 619.893 297.172, 619.893 306.023, 619.893 " />
            <path fill="none" stroke-width="3.0" stroke-linecap="butt" stroke-opacity="1.0" stroke="rgb(0, 0, 0)" stroke-linejoin="round" d=" M 776.828, 678.743 776.828, 678.743 776.828, 668.743 776.828, 658.743 776.828, 648.743 776.828, 638.743 776.828, 628.743 776.828, 618.743 776.828, 608.743 776.828, 598.743 776.828, 588.743 776.828, 578.743 776.828, 568.743 776.828, 558.743 776.828, 548.743 776.828, 538.743 776.828, 528.743 776.828, 518.743 776.828, 508.743 776.828, 498.743 776.828, 488.743 776.828, 482.575 776.828, 482.575 " />
            <path fill="none" stroke-width="3.0" stroke-linecap="butt" stroke-opacity="1.0" stroke="rgb(0, 0, 0)" stroke-linejoin="round" d=" M 776.828, 678.743 776.828, 678.743 776.828, 668.743 776.828, 658.743 776.828, 648.743 776.828, 638.743 776.828, 628.743 776.828, 618.743 776.828, 608.743 776.828, 598.743 776.828, 588.743 776.828, 578.743 776.828, 568.743 776.828, 558.743 776.828, 548.743 776.828, 538.743 776.828, 528.743 776.828, 518.743 776.828, 508.743 776.828, 498.743 776.828, 488.743 776.828, 482.575 " />
            <path fill="none" stroke-width="3.0" stroke-linecap="butt" stroke-opacity="1.0" stroke="rgb(0, 0, 0)" stroke-linejoin="round" d=" M 306.023, 482.575 306.023, 492.575 306.023, 502.575 306.023, 512.575 306.023, 522.575 306.023, 532.575 306.023, 542.575 306.023, 552.575 306.023, 562.575 306.023, 572.575 306.023, 582.575 306.023, 592.575 306.023, 602.575 306.023, 612.575 306.023, 619.893 306.023, 619.893 306.023, 629.893 306.023, 639.893 306.023, 649.893 306.023, 659.893 306.023, 669.893 306.023, 678.743 306.023, 678.743 " />
            <path fill="none" stroke-width="3.0" stroke-linecap="butt" stroke-opacity="1.0" stroke="rgb(0, 0, 0)" stroke-linejoin="round" d=" M 306.023, 678.743 316.023, 678.743 326.023, 678.743 336.023, 678.743 346.023, 678.743 356.023, 678.743 366.023, 678.743 376.023, 678.743 386.023, 678.743 396.023, 678.743 406.023, 678.743 416.023, 678.743 426.023, 678.743 436.023, 678.743 446.023, 678.743 456.023, 678.743 466.023, 678.743 476.023, 678.743 486.023, 678.743 496.023, 678.743 506.023, 678.743 516.023, 678.743 526.023, 678.743 536.023, 678.743 546.023, 678.743 556.023, 678.743 566.023, 678.743 576.023, 678.743 586.023, 678.743 596.023, 678.743 606.023, 678.743 616.023, 678.743 626.023, 678.743 636.023, 678.743 646.023, 678.743 656.023, 678.743 666.023, 678.743 676.023, 678.743 686.023, 678.743 696.023, 678.743 706.023, 678.743 716.023, 678.743 726.023, 678.743 736.023, 678.743 746.023, 678.743 756.023, 678.743 766.023, 678.743 776.828, 678.743 " />
            <path fill="none" stroke-width="3.0" stroke-linecap="butt" stroke-opacity="1.0" stroke="rgb(0, 0, 0)" stroke-linejoin="round" d=" M 306.023, 678.743 306.023, 678.743 " />
            <path fill="none" stroke-width="3.0" stroke-linecap="butt" stroke-opacity="1.0" stroke="rgb(0, 0, 0)" stroke-linejoin="round" d=" M 776.828, 678.743 776.828, 678.743 776.828, 678.743 " />
            <path fill="none" stroke-width="3.0" stroke-linecap="butt" stroke-opacity="1.0" stroke="rgb(0, 0, 0)" stroke-linejoin="round" d=" M 776.828, 482.575 776.828, 482.575 " />
            <path fill="none" stroke-width="3.0" stroke-linecap="butt" stroke-opacity="1.0" stroke="rgb(0, 0, 0)" stroke-linejoin="round" d=" M 776.828, 482.575 766.828, 482.575 756.828, 482.575 746.828, 482.575 736.828, 482.575 726.828, 482.575 716.828, 482.575 706.828, 482.575 696.828, 482.575 686.828, 482.575 676.828, 482.575 666.828, 482.575 656.828, 482.575 646.828, 482.575 636.828, 482.575 626.828, 482.575 616.828, 482.575 606.828, 482.575 596.828, 482.575 586.828, 482.575 576.828, 482.575 566.828, 482.575 556.828, 482.575 546.828, 482.575 536.828, 482.575 526.828, 482.575 516.828, 482.575 506.828, 482.575 496.828, 482.575 486.828, 482.575 476.828, 482.575 466.828, 482.575 456.828, 482.575 446.828, 482.575 436.828, 482.575 426.828, 482.575 416.828, 482.575 406.828, 482.575 396.828, 482.575 386.828, 482.575 376.828, 482.575 364.874, 482.575 364.874, 482.575 354.874, 482.575 344.874, 482.575 334.874, 482.575 324.874, 482.575 314.874, 482.575 306.023, 482.575 " />
        </g>
    </g>
    <g id="ViewLayer_TechnicalLines" inkscape:groupmode="lineset" inkscape:label="ViewLayer_TechnicalLines">
        <g inkscape:groupmode="layer" id="strokes" inkscape:label="strokes">
            <path fill="none" stroke-width="3.0" stroke-linecap="butt" stroke-opacity="1.0" stroke="rgb(0, 0, 0)" stroke-linejoin="round" d=" M 306.023, 678.743 306.023, 678.743 306.023, 688.743 306.023, 698.743 306.023, 708.743 306.023, 718.743 306.023, 728.743 306.023, 738.743 306.023, 748.743 306.023, 758.743 306.023, 768.743 306.023, 778.743 306.023, 788.743 306.023, 796.444 306.023, 796.444 316.023, 796.444 326.023, 796.444 336.023, 796.444 346.023, 796.444 356.023, 796.444 366.023, 796.444 376.023, 796.444 386.023, 796.444 396.023, 796.444 406.023, 796.444 416.023, 796.444 426.023, 796.444 436.023, 796.444 446.023, 796.444 456.023, 796.444 466.023, 796.444 476.023, 796.444 486.023, 796.444 496.023, 796.444 506.023, 796.444 516.023, 796.444 526.023, 796.444 536.023, 796.444 546.023, 796.444 556.023, 796.444 566.023, 796.444 576.023, 796.444 586.023, 796.444 596.023, 796.444 606.023, 796.444 616.023, 796.444 626.023, 796.444 636.023, 796.444 646.023, 796.444 656.023, 796.444 666.023, 796.444 676.023, 796.444 686.023, 796.444 696.023, 796.444 706.023, 796.444 716.023, 796.444 726.023, 796.444 736.023, 796.444 746.023, 796.444 756.023, 796.444 766.023, 796.444 776.828, 796.444 776.828, 796.444 776.828, 786.444 776.828, 776.444 776.828, 766.444 776.828, 756.444 776.828, 746.444 776.828, 736.444 776.828, 726.444 776.828, 716.444 776.828, 706.444 776.828, 696.444 776.828, 686.444 776.828, 678.743 " />
            <path fill="none" stroke-width="3.0" stroke-linecap="butt" stroke-opacity="1.0" stroke="rgb(0, 0, 0)" stroke-linejoin="round" d=" M 306.023, 796.444 316.023, 796.444 326.023, 796.444 336.023, 796.444 346.023, 796.444 356.023, 796.444 366.023, 796.444 376.023, 796.444 386.023, 796.444 396.023, 796.444 406.023, 796.444 416.023, 796.444 426.023, 796.444 436.023, 796.444 446.023, 796.444 456.023, 796.444 466.023, 796.444 476.023, 796.444 486.023, 796.444 496.023, 796.444 506.023, 796.444 516.023, 796.444 526.023, 796.444 536.023, 796.444 546.023, 796.444 556.023, 796.444 566.023, 796.444 576.023, 796.444 586.023, 796.444 596.023, 796.444 606.023, 796.444 616.023, 796.444 626.023, 796.444 636.023, 796.444 646.023, 796.444 656.023, 796.444 666.023, 796.444 676.023, 796.444 686.023, 796.444 696.023, 796.444 706.023, 796.444 716.023, 796.444 726.023, 796.444 736.023, 796.444 746.023, 796.444 756.023, 796.444 766.023, 796.444 776.828, 796.444 " />
            <path fill="none" stroke-width="3.0" stroke-linecap="butt" stroke-opacity="1.0" stroke="rgb(0, 0, 0)" stroke-linejoin="round" d=" M 364.874, 482.575 364.874, 472.575 364.874, 462.575 364.874, 452.575 364.874, 442.575 364.874, 432.575 364.874, 422.575 364.874, 412.575 364.874, 402.575 364.874, 392.575 364.874, 382.575 364.874, 372.575 364.874, 362.575 364.874, 352.575 364.874, 342.575 364.874, 332.575 364.874, 322.575 364.874, 312.575 364.874, 302.575 364.874, 292.575 364.874, 282.575 364.874, 272.575 364.874, 262.575 364.874, 252.575 364.874, 242.575 364.874, 232.575 364.874, 227.556 364.874, 227.556 354.874, 227.556 344.874, 227.556 334.874, 227.556 324.874, 227.556 314.874, 227.556 304.874, 227.556 294.874, 227.556 284.874, 227.556 274.874, 227.556 264.874, 227.556 254.874, 227.556 247.172, 227.556 247.172, 237.556 247.172, 247.556 247.172, 257.556 247.172, 267.556 247.172, 277.556 247.172, 287.556 247.172, 297.556 247.172, 307.556 247.172, 317.556 247.172, 327.556 247.172, 337.556 247.172, 347.556 247.172, 357.556 247.172, 367.556 247.172, 377.556 247.172, 387.556 247.172, 397.556 247.172, 407.556 247.172, 417.556 247.172, 427.556 247.172, 437.556 247.172, 447.556 247.172, 457.556 247.172, 467.556 247.172, 477.556 247.172, 487.556 247.172, 497.556 247.172, 507.556 247.172, 517.556 247.172, 527.556 247.172, 537.556 247.172, 547.556 247.172, 557.556 247.172, 567.556 247.172, 577.556 247.172, 587.556 247.172, 597.556 247.172, 607.556 247.172, 619.893 247.172, 619.893 257.172, 619.893 267.172, 619.893 277.172, 619.893 287.172, 619.893 297.172, 619.893 306.023, 619.893 " />
            <path fill="none" stroke-width="3.0" stroke-linecap="butt" stroke-opacity="1.0" stroke="rgb(0, 0, 0)" stroke-linejoin="round" d=" M 364.874, 227.556 364.874, 237.556 364.874, 247.556 364.874, 257.556 364.874, 267.556 364.874, 277.556 364.874, 287.556 364.874, 297.556 364.874, 307.556 364.874, 317.556 364.874, 327.556 364.874, 337.556 364.874, 347.556 364.874, 357.556 364.874, 367.556 364.874, 377.556 364.874, 387.556 364.874, 397.556 364.874, 407.556 364.874, 417.556 364.874, 427.556 364.874, 437.556 364.874, 447.556 364.874, 457.556 364.874, 467.556 364.874, 477.556 364.874, 482.575 " />
            <path fill="none" stroke-width="3.0" stroke-linecap="butt" stroke-opacity="1.0" stroke="rgb(0, 0, 0)" stroke-linejoin="round" d=" M 247.172, 619.893 257.172, 619.893 267.172, 619.893 277.172, 619.893 287.172, 619.893 297.172, 619.893 306.023, 619.893 " />
            <path fill="none" stroke-width="3.0" stroke-linecap="butt" stroke-opacity="1.0" stroke="rgb(0, 0, 0)" stroke-linejoin="round" d=" M 776.828, 678.743 776.828, 678.743 776.828, 668.743 776.828, 658.743 776.828, 648.743 776.828, 638.743 776.828, 628.743 776.828, 618.743 776.828, 608.743 776.828, 598.743 776.828, 588.743 776.828, 578.743 776.828, 568.743 776.828, 558.743 776.828, 548.743 776.828, 538.743 776.828, 528.743 776.828, 518.743 776.828, 508.743 776.828, 498.743 776.828, 488.743 776.828, 482.575 776.828, 482.575 " />
            <path fill="none" stroke-width="3.0" stroke-linecap="butt" stroke-opacity="1.0" stroke="rgb(0, 0, 0)" stroke-linejoin="round" d=" M 776.828, 678.743 776.828, 678.743 776.828, 668.743 776.828, 658.743 776.828, 648.743 776.828, 638.743 776.828, 628.743 776.828, 618.743 776.828, 608.743 776.828, 598.743 776.828, 588.743 776.828, 578.743 776.828, 568.743 776.828, 558.743 776.828, 548.743 776.828, 538.743 776.828, 528.743 776.828, 518.743 776.828, 508.743 776.828, 498.743 776.828, 488.743 776.828, 482.575 " />
            <path fill="none" stroke-width="3.0" stroke-linecap="butt" stroke-opacity="1.0" stroke="rgb(0, 0, 0)" stroke-linejoin="round" d=" M 306.023, 482.575 306.023, 492.575 306.023, 502.575 306.023, 512.575 306.023, 522.575 306.023, 532.575 306.023, 542.575 306.023, 552.575 306.023, 562.575 306.023, 572.575 306.023, 582.575 306.023, 592.575 306.023, 602.575 306.023, 612.575 306.023, 619.893 306.023, 619.893 306.023, 629.893 306.023, 639.893 306.023, 649.893 306.023, 659.893 306.023, 669.893 306.023, 678.743 306.023, 678.743 " />
            <path fill="none" stroke-width="3.0" stroke-linecap="butt" stroke-opacity="1.0" stroke="rgb(0, 0, 0)" stroke-linejoin="round" d=" M 306.023, 678.743 316.023, 678.743 326.023, 678.743 336.023, 678.743 346.023, 678.743 356.023, 678.743 366.023, 678.743 376.023, 678.743 386.023, 678.743 396.023, 678.743 406.023, 678.743 416.023, 678.743 426.023, 678.743 436.023, 678.743 446.023, 678.743 456.023, 678.743 466.023, 678.743 476.023, 678.743 486.023, 678.743 496.023, 678.743 506.023, 678.743 516.023, 678.743 526.023, 678.743 536.023, 678.743 546.023, 678.743 556.023, 678.743 566.023, 678.743 576.023, 678.743 586.023, 678.743 596.023, 678.743 606.023, 678.743 616.023, 678.743 626.023, 678.743 636.023, 678.743 646.023, 678.743 656.023, 678.743 666.023, 678.743 676.023, 678.743 686.023, 678.743 696.023, 678.743 706.023, 678.743 716.023, 678.743 726.023, 678.743 736.023, 678.743 746.023, 678.743 756.023, 678.743 766.023, 678.743 776.828, 678.743 " />
            <path fill="none" stroke-width="3.0" stroke-linecap="butt" stroke-opacity="1.0" stroke="rgb(0, 0, 0)" stroke-linejoin="round" d=" M 306.023, 678.743 306.023, 678.743 " />
            <path fill="none" stroke-width="3.0" stroke-linecap="butt" stroke-opacity="1.0" stroke="rgb(0, 0, 0)" stroke-linejoin="round" d=" M 776.828, 678.743 776.828, 678.743 776.828, 678.743 " />
            <path fill="none" stroke-width="3.0" stroke-linecap="butt" stroke-opacity="1.0" stroke="rgb(0, 0, 0)" stroke-linejoin="round" d=" M 776.828, 482.575 776.828, 482.575 " />
            <path fill="none" stroke-width="3.0" stroke-linecap="butt" stroke-opacity="1.0" stroke="rgb(0, 0, 0)" stroke-linejoin="round" d=" M 776.828, 482.575 766.828, 482.575 756.828, 482.575 746.828, 482.575 736.828, 482.575 726.828, 482.575 716.828, 482.575 706.828, 482.575 696.828, 482.575 686.828, 482.575 676.828, 482.575 666.828, 482.575 656.828, 482.575 646.828, 482.575 636.828, 482.575 626.828, 482.575 616.828, 482.575 606.828, 482.575 596.828, 482.575 586.828, 482.575 576.828, 482.575 566.828, 482.575 556.828, 482.575 546.828, 482.575 536.828, 482.575 526.828, 482.575 516.828, 482.575 506.828, 482.575 496.828, 482.575 486.828, 482.575 476.828, 482.575 466.828, 482.575 456.828, 482.575 446.828, 482.575 436.828, 482.575 426.828, 482.575 416.828, 482.575 406.828, 482.575 396.828, 482.575 386.828, 482.575 376.828, 482.575 364.874, 482.575 364.874, 482.575 354.874, 482.575 344.874, 482.575 334.874, 482.575 324.874, 482.575 314.874, 482.575 306.023, 482.575 " />
        </g>
    </g>
    <g id="ViewLayer_TechnicalLines.001" inkscape:groupmode="lineset" inkscape:label="ViewLayer_TechnicalLines.001">
        <g inkscape:groupmode="layer" id="strokes" inkscape:label="strokes">
            <path fill="none" stroke-width="1.5" stroke-linecap="round" stroke-opacity="1.0" stroke="rgb(0, 0, 0)" stroke-linejoin="round" d=" M 306.023, 678.743 306.023, 678.743 306.023, 688.743 306.023, 698.743 306.023, 708.743 306.023, 718.743 306.023, 728.743 306.023, 738.743 306.023, 748.743 306.023, 758.743 306.023, 768.743 306.023, 778.743 306.023, 788.743 306.023, 796.444 306.023, 796.444 316.023, 796.444 326.023, 796.444 336.023, 796.444 346.023, 796.444 356.023, 796.444 366.023, 796.444 376.023, 796.444 386.023, 796.444 396.023, 796.444 406.023, 796.444 416.023, 796.444 426.023, 796.444 436.023, 796.444 446.023, 796.444 456.023, 796.444 466.023, 796.444 476.023, 796.444 486.023, 796.444 496.023, 796.444 506.023, 796.444 516.023, 796.444 526.023, 796.444 536.023, 796.444 546.023, 796.444 556.023, 796.444 566.023, 796.444 576.023, 796.444 586.023, 796.444 596.023, 796.444 606.023, 796.444 616.023, 796.444 626.023, 796.444 636.023, 796.444 646.023, 796.444 656.023, 796.444 666.023, 796.444 676.023, 796.444 686.023, 796.444 696.023, 796.444 706.023, 796.444 716.023, 796.444 726.023, 796.444 736.023, 796.444 746.023, 796.444 756.023, 796.444 766.023, 796.444 776.828, 796.444 776.828, 796.444 776.828, 786.444 776.828, 776.444 776.828, 766.444 776.828, 756.444 776.828, 746.444 776.828, 736.444 776.828, 726.444 776.828, 716.444 776.828, 706.444 776.828, 696.444 776.828, 686.444 776.828, 678.743 " />
            <path fill="none" stroke-width="1.5" stroke-linecap="round" stroke-opacity="1.0" stroke="rgb(0, 0, 0)" stroke-linejoin="round" d=" M 306.023, 796.444 316.023, 796.444 326.023, 796.444 336.023, 796.444 346.023, 796.444 356.023, 796.444 366.023, 796.444 376.023, 796.444 386.023, 796.444 396.023, 796.444 406.023, 796.444 416.023, 796.444 426.023, 796.444 436.023, 796.444 446.023, 796.444 456.023, 796.444 466.023, 796.444 476.023, 796.444 486.023, 796.444 496.023, 796.444 506.023, 796.444 516.023, 796.444 526.023, 796.444 536.023, 796.444 546.023, 796.444 556.023, 796.444 566.023, 796.444 576.023, 796.444 586.023, 796.444 596.023, 796.444 606.023, 796.444 616.023, 796.444 626.023, 796.444 636.023, 796.444 646.023, 796.444 656.023, 796.444 666.023, 796.444 676.023, 796.444 686.023, 796.444 696.023, 796.444 706.023, 796.444 716.023, 796.444 726.023, 796.444 736.023, 796.444 746.023, 796.444 756.023, 796.444 766.023, 796.444 776.828, 796.444 " />
            <path fill="none" stroke-width="1.5" stroke-linecap="round" stroke-opacity="1.0" stroke="rgb(0, 0, 0)" stroke-linejoin="round" d=" M 364.874, 482.575 364.874, 472.575 364.874, 462.575 364.874, 452.575 364.874, 442.575 364.874, 432.575 364.874, 422.575 364.874, 412.575 364.874, 402.575 364.874, 392.575 364.874, 382.575 364.874, 372.575 364.874, 362.575 364.874, 352.575 364.874, 342.575 364.874, 332.575 364.874, 322.575 364.874, 312.575 364.874, 302.575 364.874, 292.575 364.874, 282.575 364.874, 272.575 364.874, 262.575 364.874, 252.575 364.874, 242.575 364.874, 232.575 364.874, 227.556 364.874, 227.556 354.874, 227.556 344.874, 227.556 334.874, 227.556 324.874, 227.556 314.874, 227.556 304.874, 227.556 294.874, 227.556 284.874, 227.556 274.874, 227.556 264.874, 227.556 254.874, 227.556 247.172, 227.556 247.172, 237.556 247.172, 247.556 247.172, 257.556 247.172, 267.556 247.172, 277.556 247.172, 287.556 247.172, 297.556 247.172, 307.556 247.172, 317.556 247.172, 327.556 247.172, 337.556 247.172, 347.556 247.172, 357.556 247.172, 367.556 247.172, 377.556 247.172, 387.556 247.172, 397.556 247.172, 407.556 247.172, 417.556 247.172, 427.556 247.172, 437.556 247.172, 447.556 247.172, 457.556 247.172, 467.556 247.172, 477.556 247.172, 487.556 247.172, 497.556 247.172, 507.556 247.172, 517.556 247.172, 527.556 247.172, 537.556 247.172, 547.556 247.172, 557.556 247.172, 567.556 247.172, 577.556 247.172, 587.556 247.172, 597.556 247.172, 607.556 247.172, 619.893 247.172, 619.893 257.172, 619.893 267.172, 619.893 277.172, 619.893 287.172, 619.893 297.172, 619.893 306.023, 619.893 " />
            <path fill="none" stroke-width="1.5" stroke-linecap="round" stroke-opacity="1.0" stroke="rgb(0, 0, 0)" stroke-linejoin="round" d=" M 364.874, 227.556 364.874, 237.556 364.874, 247.556 364.874, 257.556 364.874, 267.556 364.874, 277.556 364.874, 287.556 364.874, 297.556 364.874, 307.556 364.874, 317.556 364.874, 327.556 364.874, 337.556 364.874, 347.556 364.874, 357.556 364.874, 367.556 364.874, 377.556 364.874, 387.556 364.874, 397.556 364.874, 407.556 364.874, 417.556 364.874, 427.556 364.874, 437.556 364.874, 447.556 364.874, 457.556 364.874, 467.556 364.874, 477.556 364.874, 482.575 " />
            <path fill="none" stroke-width="1.5" stroke-linecap="round" stroke-opacity="1.0" stroke="rgb(0, 0, 0)" stroke-linejoin="round" d=" M 247.172, 619.893 257.172, 619.893 267.172, 619.893 277.172, 619.893 287.172, 619.893 297.172, 619.893 306.023, 619.893 " />
            <path fill="none" stroke-width="1.5" stroke-linecap="round" stroke-opacity="1.0" stroke="rgb(0, 0, 0)" stroke-linejoin="round" d=" M 776.828, 678.743 776.828, 678.743 776.828, 668.743 776.828, 658.743 776.828, 648.743 776.828, 638.743 776.828, 628.743 776.828, 618.743 776.828, 608.743 776.828, 598.743 776.828, 588.743 776.828, 578.743 776.828, 568.743 776.828, 558.743 776.828, 548.743 776.828, 538.743 776.828, 528.743 776.828, 518.743 776.828, 508.743 776.828, 498.743 776.828, 488.743 776.828, 482.575 776.828, 482.575 " />
            <path fill="none" stroke-width="1.5" stroke-linecap="round" stroke-opacity="1.0" stroke="rgb(0, 0, 0)" stroke-linejoin="round" d=" M 776.828, 678.743 776.828, 678.743 776.828, 668.743 776.828, 658.743 776.828, 648.743 776.828, 638.743 776.828, 628.743 776.828, 618.743 776.828, 608.743 776.828, 598.743 776.828, 588.743 776.828, 578.743 776.828, 568.743 776.828, 558.743 776.828, 548.743 776.828, 538.743 776.828, 528.743 776.828, 518.743 776.828, 508.743 776.828, 498.743 776.828, 488.743 776.828, 482.575 " />
            <path fill="none" stroke-width="1.5" stroke-linecap="round" stroke-opacity="1.0" stroke="rgb(0, 0, 0)" stroke-linejoin="round" d=" M 306.023, 482.575 306.023, 492.575 306.023, 502.575 306.023, 512.575 306.023, 522.575 306.023, 532.575 306.023, 542.575 306.023, 552.575 306.023, 562.575 306.023, 572.575 306.023, 582.575 306.023, 592.575 306.023, 602.575 306.023, 612.575 306.023, 619.893 306.023, 619.893 306.023, 629.893 306.023, 639.893 306.023, 649.893 306.023, 659.893 306.023, 669.893 306.023, 678.743 306.023, 678.743 " />
            <path fill="none" stroke-width="1.5" stroke-linecap="round" stroke-opacity="1.0" stroke="rgb(0, 0, 0)" stroke-linejoin="round" d=" M 306.023, 678.743 316.023, 678.743 326.023, 678.743 336.023, 678.743 346.023, 678.743 356.023, 678.743 366.023, 678.743 376.023, 678.743 386.023, 678.743 396.023, 678.743 406.023, 678.743 416.023, 678.743 426.023, 678.743 436.023, 678.743 446.023, 678.743 456.023, 678.743 466.023, 678.743 476.023, 678.743 486.023, 678.743 496.023, 678.743 506.023, 678.743 516.023, 678.743 526.023, 678.743 536.023, 678.743 546.023, 678.743 556.023, 678.743 566.023, 678.743 576.023, 678.743 586.023, 678.743 596.023, 678.743 606.023, 678.743 616.023, 678.743 626.023, 678.743 636.023, 678.743 646.023, 678.743 656.023, 678.743 666.023, 678.743 676.023, 678.743 686.023, 678.743 696.023, 678.743 706.023, 678.743 716.023, 678.743 726.023, 678.743 736.023, 678.743 746.023, 678.743 756.023, 678.743 766.023, 678.743 776.828, 678.743 " />
            <path fill="none" stroke-width="1.5" stroke-linecap="round" stroke-opacity="1.0" stroke="rgb(0, 0, 0)" stroke-linejoin="round" d=" M 306.023, 678.743 306.023, 678.743 " />
            <path fill="none" stroke-width="1.5" stroke-linecap="round" stroke-opacity="1.0" stroke="rgb(0, 0, 0)" stroke-linejoin="round" d=" M 776.828, 678.743 776.828, 678.743 776.828, 678.743 " />
            <path fill="none" stroke-width="1.5" stroke-linecap="round" stroke-opacity="1.0" stroke="rgb(0, 0, 0)" stroke-linejoin="round" d=" M 776.828, 482.575 776.828, 482.575 " />
            <path fill="none" stroke-width="1.5" stroke-linecap="round" stroke-opacity="1.0" stroke="rgb(0, 0, 0)" stroke-linejoin="round" d=" M 776.828, 482.575 766.828, 482.575 756.828, 482.575 746.828, 482.575 736.828, 482.575 726.828, 482.575 716.828, 482.575 706.828, 482.575 696.828, 482.575 686.828, 482.575 676.828, 482.575 666.828, 482.575 656.828, 482.575 646.828, 482.575 636.828, 482.575 626.828, 482.575 616.828, 482.575 606.828, 482.575 596.828, 482.575 586.828, 482.575 576.828, 482.575 566.828, 482.575 556.828, 482.575 546.828, 482.575 536.828, 482.575 526.828, 482.575 516.828, 482.575 506.828, 482.575 496.828, 482.575 486.828, 482.575 476.828, 482.575 466.828, 482.575 456.828, 482.575 446.828, 482.575 436.828, 482.575 426.828, 482.575 416.828, 482.575 406.828, 482.575 396.828, 482.575 386.828, 482.575 376.828, 482.575 364.874, 482.575 364.874, 482.575 354.874, 482.575 344.874, 482.575 334.874, 482.575 324.874, 482.575 314.874, 482.575 306.023, 482.575 " />
        </g>
    </g>
    <g id="ViewLayer_TechnicalLines.002" inkscape:groupmode="lineset" inkscape:label="ViewLayer_TechnicalLines.002">
        <g inkscape:groupmode="layer" id="strokes" inkscape:label="strokes">
            <path fill="none" stroke-width="1.5" stroke-linecap="round" stroke-opacity="1.0" stroke="rgb(0, 0, 0)" stroke-linejoin="round" d=" M 306.023, 678.743 306.023, 678.743 306.023, 688.743 306.023, 698.743 306.023, 708.743 306.023, 718.743 306.023, 728.743 306.023, 738.743 306.023, 748.743 306.023, 758.743 306.023, 768.743 306.023, 778.743 306.023, 788.743 306.023, 796.444 306.023, 796.444 316.023, 796.444 326.023, 796.444 336.023, 796.444 346.023, 796.444 356.023, 796.444 366.023, 796.444 376.023, 796.444 386.023, 796.444 396.023, 796.444 406.023, 796.444 416.023, 796.444 426.023, 796.444 436.023, 796.444 446.023, 796.444 456.023, 796.444 466.023, 796.444 476.023, 796.444 486.023, 796.444 496.023, 796.444 506.023, 796.444 516.023, 796.444 526.023, 796.444 536.023, 796.444 546.023, 796.444 556.023, 796.444 566.023, 796.444 576.023, 796.444 586.023, 796.444 596.023, 796.444 606.023, 796.444 616.023, 796.444 626.023, 796.444 636.023, 796.444 646.023, 796.444 656.023, 796.444 666.023, 796.444 676.023, 796.444 686.023, 796.444 696.023, 796.444 706.023, 796.444 716.023, 796.444 726.023, 796.444 736.023, 796.444 746.023, 796.444 756.023, 796.444 766.023, 796.444 776.828, 796.444 776.828, 796.444 776.828, 786.444 776.828, 776.444 776.828, 766.444 776.828, 756.444 776.828, 746.444 776.828, 736.444 776.828, 726.444 776.828, 716.444 776.828, 706.444 776.828, 696.444 776.828, 686.444 776.828, 678.743 " />
            <path fill="none" stroke-width="1.5" stroke-linecap="round" stroke-opacity="1.0" stroke="rgb(0, 0, 0)" stroke-linejoin="round" d=" M 306.023, 796.444 316.023, 796.444 326.023, 796.444 336.023, 796.444 346.023, 796.444 356.023, 796.444 366.023, 796.444 376.023, 796.444 386.023, 796.444 396.023, 796.444 406.023, 796.444 416.023, 796.444 426.023, 796.444 436.023, 796.444 446.023, 796.444 456.023, 796.444 466.023, 796.444 476.023, 796.444 486.023, 796.444 496.023, 796.444 506.023, 796.444 516.023, 796.444 526.023, 796.444 536.023, 796.444 546.023, 796.444 556.023, 796.444 566.023, 796.444 576.023, 796.444 586.023, 796.444 596.023, 796.444 606.023, 796.444 616.023, 796.444 626.023, 796.444 636.023, 796.444 646.023, 796.444 656.023, 796.444 666.023, 796.444 676.023, 796.444 686.023, 796.444 696.023, 796.444 706.023, 796.444 716.023, 796.444 726.023, 796.444 736.023, 796.444 746.023, 796.444 756.023, 796.444 766.023, 796.444 776.828, 796.444 " />
            <path fill="none" stroke-width="1.5" stroke-linecap="round" stroke-opacity="1.0" stroke="rgb(0, 0, 0)" stroke-linejoin="round" d=" M 364.874, 482.575 364.874, 472.575 364.874, 462.575 364.874, 452.575 364.874, 442.575 364.874, 432.575 364.874, 422.575 364.874, 412.575 364.874, 402.575 364.874, 392.575 364.874, 382.575 364.874, 372.575 364.874, 362.575 364.874, 352.575 364.874, 342.575 364.874, 332.575 364.874, 322.575 364.874, 312.575 364.874, 302.575 364.874, 292.575 364.874, 282.575 364.874, 272.575 364.874, 262.575 364.874, 252.575 364.874, 242.575 364.874, 232.575 364.874, 227.556 364.874, 227.556 354.874, 227.556 344.874, 227.556 334.874, 227.556 324.874, 227.556 314.874, 227.556 304.874, 227.556 294.874, 227.556 284.874, 227.556 274.874, 227.556 264.874, 227.556 254.874, 227.556 247.172, 227.556 247.172, 237.556 247.172, 247.556 247.172, 257.556 247.172, 267.556 247.172, 277.556 247.172, 287.556 247.172, 297.556 247.172, 307.556 247.172, 317.556 247.172, 327.556 247.172, 337.556 247.172, 347.556 247.172, 357.556 247.172, 367.556 247.172, 377.556 247.172, 387.556 247.172, 397.556 247.172, 407.556 247.172, 417.556 247.172, 427.556 247.172, 437.556 247.172, 447.556 247.172, 457.556 247.172, 467.556 247.172, 477.556 247.172, 487.556 247.172, 497.556 247.172, 507.556 247.172, 517.556 247.172, 527.556 247.172, 537.556 247.172, 547.556 247.172, 557.556 247.172, 567.556 247.172, 577.556 247.172, 587.556 247.172, 597.556 247.172, 607.556 247.172, 619.893 247.172, 619.893 257.172, 619.893 267.172, 619.893 277.172, 619.893 287.172, 619.893 297.172, 619.893 306.023, 619.893 " />
            <path fill="none" stroke-width="1.5" stroke-linecap="round" stroke-opacity="1.0" stroke="rgb(0, 0, 0)" stroke-linejoin="round" d=" M 364.874, 227.556 364.874, 237.556 364.874, 247.556 364.874, 257.556 364.874, 267.556 364.874, 277.556 364.874, 287.556 364.874, 297.556 364.874, 307.556 364.874, 317.556 364.874, 327.556 364.874, 337.556 364.874, 347.556 364.874, 357.556 364.874, 367.556 364.874, 377.556 364.874, 387.556 364.874, 397.556 364.874, 407.556 364.874, 417.556 364.874, 427.556 364.874, 437.556 364.874, 447.556 364.874, 457.556 364.874, 467.556 364.874, 477.556 364.874, 482.575 " />
            <path fill="none" stroke-width="1.5" stroke-linecap="round" stroke-opacity="1.0" stroke="rgb(0, 0, 0)" stroke-linejoin="round" d=" M 247.172, 619.893 257.172, 619.893 267.172, 619.893 277.172, 619.893 287.172, 619.893 297.172, 619.893 306.023, 619.893 " />
            <path fill="none" stroke-width="1.5" stroke-linecap="round" stroke-opacity="1.0" stroke="rgb(0, 0, 0)" stroke-linejoin="round" d=" M 776.828, 678.743 776.828, 678.743 776.828, 668.743 776.828, 658.743 776.828, 648.743 776.828, 638.743 776.828, 628.743 776.828, 618.743 776.828, 608.743 776.828, 598.743 776.828, 588.743 776.828, 578.743 776.828, 568.743 776.828, 558.743 776.828, 548.743 776.828, 538.743 776.828, 528.743 776.828, 518.743 776.828, 508.743 776.828, 498.743 776.828, 488.743 776.828, 482.575 776.828, 482.575 " />
            <path fill="none" stroke-width="1.5" stroke-linecap="round" stroke-opacity="1.0" stroke="rgb(0, 0, 0)" stroke-linejoin="round" d=" M 776.828, 678.743 776.828, 678.743 776.828, 668.743 776.828, 658.743 776.828, 648.743 776.828, 638.743 776.828, 628.743 776.828, 618.743 776.828, 608.743 776.828, 598.743 776.828, 588.743 776.828, 578.743 776.828, 568.743 776.828, 558.743 776.828, 548.743 776.828, 538.743 776.828, 528.743 776.828, 518.743 776.828, 508.743 776.828, 498.743 776.828, 488.743 776.828, 482.575 " />
            <path fill="none" stroke-width="1.5" stroke-linecap="round" stroke-opacity="1.0" stroke="rgb(0, 0, 0)" stroke-linejoin="round" d=" M 306.023, 482.575 306.023, 492.575 306.023, 502.575 306.023, 512.575 306.023, 522.575 306.023, 532.575 306.023, 542.575 306.023, 552.575 306.023, 562.575 306.023, 572.575 306.023, 582.575 306.023, 592.575 306.023, 602.575 306.023, 612.575 306.023, 619.893 306.023, 619.893 306.023, 629.893 306.023, 639.893 306.023, 649.893 306.023, 659.893 306.023, 669.893 306.023, 678.743 306.023, 678.743 " />
            <path fill="none" stroke-width="1.5" stroke-linecap="round" stroke-opacity="1.0" stroke="rgb(0, 0, 0)" stroke-linejoin="round" d=" M 306.023, 678.743 316.023, 678.743 326.023, 678.743 336.023, 678.743 346.023, 678.743 356.023, 678.743 366.023, 678.743 376.023, 678.743 386.023, 678.743 396.023, 678.743 406.023, 678.743 416.023, 678.743 426.023, 678.743 436.023, 678.743 446.023, 678.743 456.023, 678.743 466.023, 678.743 476.023, 678.743 486.023, 678.743 496.023, 678.743 506.023, 678.743 516.023, 678.743 526.023, 678.743 536.023, 678.743 546.023, 678.743 556.023, 678.743 566.023, 678.743 576.023, 678.743 586.023, 678.743 596.023, 678.743 606.023, 678.743 616.023, 678.743 626.023, 678.743 636.023, 678.743 646.023, 678.743 656.023, 678.743 666.023, 678.743 676.023, 678.743 686.023, 678.743 696.023, 678.743 706.023, 678.743 716.023, 678.743 726.023, 678.743 736.023, 678.743 746.023, 678.743 756.023, 678.743 766.023, 678.743 776.828, 678.743 " />
            <path fill="none" stroke-width="1.5" stroke-linecap="round" stroke-opacity="1.0" stroke="rgb(0, 0, 0)" stroke-linejoin="round" d=" M 306.023, 678.743 306.023, 678.743 " />
            <path fill="none" stroke-width="1.5" stroke-linecap="round" stroke-opacity="1.0" stroke="rgb(0, 0, 0)" stroke-linejoin="round" d=" M 776.828, 678.743 776.828, 678.743 776.828, 678.743 " />
            <path fill="none" stroke-width="1.5" stroke-linecap="round" stroke-opacity="1.0" stroke="rgb(0, 0, 0)" stroke-linejoin="round" d=" M 776.828, 482.575 776.828, 482.575 " />
            <path fill="none" stroke-width="1.5" stroke-linecap="round" stroke-opacity="1.0" stroke="rgb(0, 0, 0)" stroke-linejoin="round" d=" M 776.828, 482.575 766.828, 482.575 756.828, 482.575 746.828, 482.575 736.828, 482.575 726.828, 482.575 716.828, 482.575 706.828, 482.575 696.828, 482.575 686.828, 482.575 676.828, 482.575 666.828, 482.575 656.828, 482.575 646.828, 482.575 636.828, 482.575 626.828, 482.575 616.828, 482.575 606.828, 482.575 596.828, 482.575 586.828, 482.575 576.828, 482.575 566.828, 482.575 556.828, 482.575 546.828, 482.575 536.828, 482.575 526.828, 482.575 516.828, 482.575 506.828, 482.575 496.828, 482.575 486.828, 482.575 476.828, 482.575 466.828, 482.575 456.828, 482.575 446.828, 482.575 436.828, 482.575 426.828, 482.575 416.828, 482.575 406.828, 482.575 396.828, 482.575 386.828, 482.575 376.828, 482.575 364.874, 482.575 364.874, 482.575 354.874, 482.575 344.874, 482.575 334.874, 482.575 324.874, 482.575 314.874, 482.575 306.023, 482.575 " />
        </g>
    </g>
    <g id="ViewLayer_TechnicalLines.003" inkscape:groupmode="lineset" inkscape:label="ViewLayer_TechnicalLines.003">
        <g inkscape:groupmode="layer" id="strokes" inkscape:label="strokes">
            <path fill="none" stroke-width="1.5" stroke-linecap="round" stroke-opacity="1.0" stroke="rgb(0, 0, 0)" stroke-linejoin="round" d=" M 306.023, 678.743 306.023, 678.743 306.023, 688.743 306.023, 698.743 306.023, 708.743 306.023, 718.743 306.023, 728.743 306.023, 738.743 306.023, 748.743 306.023, 758.743 306.023, 768.743 306.023, 778.743 306.023, 788.743 306.023, 796.444 306.023, 796.444 316.023, 796.444 326.023, 796.444 336.023, 796.444 346.023, 796.444 356.023, 796.444 366.023, 796.444 376.023, 796.444 386.023, 796.444 396.023, 796.444 406.023, 796.444 416.023, 796.444 426.023, 796.444 436.023, 796.444 446.023, 796.444 456.023, 796.444 466.023, 796.444 476.023, 796.444 486.023, 796.444 496.023, 796.444 506.023, 796.444 516.023, 796.444 526.023, 796.444 536.023, 796.444 546.023, 796.444 556.023, 796.444 566.023, 796.444 576.023, 796.444 586.023, 796.444 596.023, 796.444 606.023, 796.444 616.023, 796.444 626.023, 796.444 636.023, 796.444 646.023, 796.444 656.023, 796.444 666.023, 796.444 676.023, 796.444 686.023, 796.444 696.023, 796.444 706.023, 796.444 716.023, 796.444 726.023, 796.444 736.023, 796.444 746.023, 796.444 756.023, 796.444 766.023, 796.444 776.828, 796.444 776.828, 796.444 776.828, 786.444 776.828, 776.444 776.828, 766.444 776.828, 756.444 776.828, 746.444 776.828, 736.444 776.828, 726.444 776.828, 716.444 776.828, 706.444 776.828, 696.444 776.828, 686.444 776.828, 678.743 " />
            <path fill="none" stroke-width="1.5" stroke-linecap="round" stroke-opacity="1.0" stroke="rgb(0, 0, 0)" stroke-linejoin="round" d=" M 306.023, 796.444 316.023, 796.444 326.023, 796.444 336.023, 796.444 346.023, 796.444 356.023, 796.444 366.023, 796.444 376.023, 796.444 386.023, 796.444 396.023, 796.444 406.023, 796.444 416.023, 796.444 426.023, 796.444 436.023, 796.444 446.023, 796.444 456.023, 796.444 466.023, 796.444 476.023, 796.444 486.023, 796.444 496.023, 796.444 506.023, 796.444 516.023, 796.444 526.023, 796.444 536.023, 796.444 546.023, 796.444 556.023, 796.444 566.023, 796.444 576.023, 796.444 586.023, 796.444 596.023, 796.444 606.023, 796.444 616.023, 796.444 626.023, 796.444 636.023, 796.444 646.023, 796.444 656.023, 796.444 666.023, 796.444 676.023, 796.444 686.023, 796.444 696.023, 796.444 706.023, 796.444 716.023, 796.444 726.023, 796.444 736.023, 796.444 746.023, 796.444 756.023, 796.444 766.023, 796.444 776.828, 796.444 " />
            <path fill="none" stroke-width="1.5" stroke-linecap="round" stroke-opacity="1.0" stroke="rgb(0, 0, 0)" stroke-linejoin="round" d=" M 364.874, 482.575 364.874, 472.575 364.874, 462.575 364.874, 452.575 364.874, 442.575 364.874, 432.575 364.874, 422.575 364.874, 412.575 364.874, 402.575 364.874, 392.575 364.874, 382.575 364.874, 372.575 364.874, 362.575 364.874, 352.575 364.874, 342.575 364.874, 332.575 364.874, 322.575 364.874, 312.575 364.874, 302.575 364.874, 292.575 364.874, 282.575 364.874, 272.575 364.874, 262.575 364.874, 252.575 364.874, 242.575 364.874, 232.575 364.874, 227.556 364.874, 227.556 354.874, 227.556 344.874, 227.556 334.874, 227.556 324.874, 227.556 314.874, 227.556 304.874, 227.556 294.874, 227.556 284.874, 227.556 274.874, 227.556 264.874, 227.556 254.874, 227.556 247.172, 227.556 247.172, 237.556 247.172, 247.556 247.172, 257.556 247.172, 267.556 247.172, 277.556 247.172, 287.556 247.172, 297.556 247.172, 307.556 247.172, 317.556 247.172, 327.556 247.172, 337.556 247.172, 347.556 247.172, 357.556 247.172, 367.556 247.172, 377.556 247.172, 387.556 247.172, 397.556 247.172, 407.556 247.172, 417.556 247.172, 427.556 247.172, 437.556 247.172, 447.556 247.172, 457.556 247.172, 467.556 247.172, 477.556 247.172, 487.556 247.172, 497.556 247.172, 507.556 247.172, 517.556 247.172, 527.556 247.172, 537.556 247.172, 547.556 247.172, 557.556 247.172, 567.556 247.172, 577.556 247.172, 587.556 247.172, 597.556 247.172, 607.556 247.172, 619.893 247.172, 619.893 257.172, 619.893 267.172, 619.893 277.172, 619.893 287.172, 619.893 297.172, 619.893 306.023, 619.893 " />
            <path fill="none" stroke-width="1.5" stroke-linecap="round" stroke-opacity="1.0" stroke="rgb(0, 0, 0)" stroke-linejoin="round" d=" M 364.874, 227.556 364.874, 237.556 364.874, 247.556 364.874, 257.556 364.874, 267.556 364.874, 277.556 364.874, 287.556 364.874, 297.556 364.874, 307.556 364.874, 317.556 364.874, 327.556 364.874, 337.556 364.874, 347.556 364.874, 357.556 364.874, 367.556 364.874, 377.556 364.874, 387.556 364.874, 397.556 364.874, 407.556 364.874, 417.556 364.874, 427.556 364.874, 437.556 364.874, 447.556 364.874, 457.556 364.874, 467.556 364.874, 477.556 364.874, 482.575 " />
            <path fill="none" stroke-width="1.5" stroke-linecap="round" stroke-opacity="1.0" stroke="rgb(0, 0, 0)" stroke-linejoin="round" d=" M 247.172, 619.893 257.172, 619.893 267.172, 619.893 277.172, 619.893 287.172, 619.893 297.172, 619.893 306.023, 619.893 " />
            <path fill="none" stroke-width="1.5" stroke-linecap="round" stroke-opacity="1.0" stroke="rgb(0, 0, 0)" stroke-linejoin="round" d=" M 776.828, 678.743 776.828, 678.743 776.828, 668.743 776.828, 658.743 776.828, 648.743 776.828, 638.743 776.828, 628.743 776.828, 618.743 776.828, 608.743 776.828, 598.743 776.828, 588.743 776.828, 578.743 776.828, 568.743 776.828, 558.743 776.828, 548.743 776.828, 538.743 776.828, 528.743 776.828, 518.743 776.828, 508.743 776.828, 498.743 776.828, 488.743 776.828, 482.575 776.828, 482.575 " />
            <path fill="none" stroke-width="1.5" stroke-linecap="round" stroke-opacity="1.0" stroke="rgb(0, 0, 0)" stroke-linejoin="round" d=" M 776.828, 678.743 776.828, 678.743 776.828, 668.743 776.828, 658.743 776.828, 648.743 776.828, 638.743 776.828, 628.743 776.828, 618.743 776.828, 608.743 776.828, 598.743 776.828, 588.743 776.828, 578.743 776.828, 568.743 776.828, 558.743 776.828, 548.743 776.828, 538.743 776.828, 528.743 776.828, 518.743 776.828, 508.743 776.828, 498.743 776.828, 488.743 776.828, 482.575 " />
            <path fill="none" stroke-width="1.5" stroke-linecap="round" stroke-opacity="1.0" stroke="rgb(0, 0, 0)" stroke-linejoin="round" d=" M 306.023, 482.575 306.023, 492.575 306.023, 502.575 306.023, 512.575 306.023, 522.575 306.023, 532.575 306.023, 542.575 306.023, 552.575 306.023, 562.575 306.023, 572.575 306.023, 582.575 306.023, 592.575 306.023, 602.575 306.023, 612.575 306.023, 619.893 306.023, 619.893 306.023, 629.893 306.023, 639.893 306.023, 649.893 306.023, 659.893 306.023, 669.893 306.023, 678.743 306.023, 678.743 " />
            <path fill="none" stroke-width="1.5" stroke-linecap="round" stroke-opacity="1.0" stroke="rgb(0, 0, 0)" stroke-linejoin="round" d=" M 306.023, 678.743 316.023, 678.743 326.023, 678.743 336.023, 678.743 346.023, 678.743 356.023, 678.743 366.023, 678.743 376.023, 678.743 386.023, 678.743 396.023, 678.743 406.023, 678.743 416.023, 678.743 426.023, 678.743 436.023, 678.743 446.023, 678.743 456.023, 678.743 466.023, 678.743 476.023, 678.743 486.023, 678.743 496.023, 678.743 506.023, 678.743 516.023, 678.743 526.023, 678.743 536.023, 678.743 546.023, 678.743 556.023, 678.743 566.023, 678.743 576.023, 678.743 586.023, 678.743 596.023, 678.743 606.023, 678.743 616.023, 678.743 626.023, 678.743 636.023, 678.743 646.023, 678.743 656.023, 678.743 666.023, 678.743 676.023, 678.743 686.023, 678.743 696.023, 678.743 706.023, 678.743 716.023, 678.743 726.023, 678.743 736.023, 678.743 746.023, 678.743 756.023, 678.743 766.023, 678.743 776.828, 678.743 " />
            <path fill="none" stroke-width="1.5" stroke-linecap="round" stroke-opacity="1.0" stroke="rgb(0, 0, 0)" stroke-linejoin="round" d=" M 306.023, 678.743 306.023, 678.743 " />
            <path fill="none" stroke-width="1.5" stroke-linecap="round" stroke-opacity="1.0" stroke="rgb(0, 0, 0)" stroke-linejoin="round" d=" M 776.828, 678.743 776.828, 678.743 776.828, 678.743 " />
            <path fill="none" stroke-width="1.5" stroke-linecap="round" stroke-opacity="1.0" stroke="rgb(0, 0, 0)" stroke-linejoin="round" d=" M 776.828, 482.575 776.828, 482.575 " />
            <path fill="none" stroke-width="1.5" stroke-linecap="round" stroke-opacity="1.0" stroke="rgb(0, 0, 0)" stroke-linejoin="round" d=" M 776.828, 482.575 766.828, 482.575 756.828, 482.575 746.828, 482.575 736.828, 482.575 726.828, 482.575 716.828, 482.575 706.828, 482.575 696.828, 482.575 686.828, 482.575 676.828, 482.575 666.828, 482.575 656.828, 482.575 646.828, 482.575 636.828, 482.575 626.828, 482.575 616.828, 482.575 606.828, 482.575 596.828, 482.575 586.828, 482.575 576.828, 482.575 566.828, 482.575 556.828, 482.575 546.828, 482.575 536.828, 482.575 526.828, 482.575 516.828, 482.575 506.828, 482.575 496.828, 482.575 486.828, 482.575 476.828, 482.575 466.828, 482.575 456.828, 482.575 446.828, 482.575 436.828, 482.575 426.828, 482.575 416.828, 482.575 406.828, 482.575 396.828, 482.575 386.828, 482.575 376.828, 482.575 364.874, 482.575 364.874, 482.575 354.874, 482.575 344.874, 482.575 334.874, 482.575 324.874, 482.575 314.874, 482.575 306.023, 482.575 " />
        </g>
    </g>
    <g id="ViewLayer_TechnicalLines.004" xmlns:inkscape="http://www.inkscape.org/namespaces/inkscape" inkscape:groupmode="lineset" inkscape:label="ViewLayer_TechnicalLines.004">
        <g xmlns:inkscape="http://www.inkscape.org/namespaces/inkscape" inkscape:groupmode="layer" id="strokes" inkscape:label="strokes">
            <path fill="none" stroke-width="1.5" stroke-linecap="round" stroke-opacity="1.0" stroke="rgb(0, 0, 0)" stroke-linejoin="round" d=" M 306.023, 678.743 306.023, 678.743 306.023, 688.743 306.023, 698.743 306.023, 708.743 306.023, 718.743 306.023, 728.743 306.023, 738.743 306.023, 748.743 306.023, 758.743 306.023, 768.743 306.023, 778.743 306.023, 788.743 306.023, 796.444 306.023, 796.444 316.023, 796.444 326.023, 796.444 336.023, 796.444 346.023, 796.444 356.023, 796.444 366.023, 796.444 376.023, 796.444 386.023, 796.444 396.023, 796.444 406.023, 796.444 416.023, 796.444 426.023, 796.444 436.023, 796.444 446.023, 796.444 456.023, 796.444 466.023, 796.444 476.023, 796.444 486.023, 796.444 496.023, 796.444 506.023, 796.444 516.023, 796.444 526.023, 796.444 536.023, 796.444 546.023, 796.444 556.023, 796.444 566.023, 796.444 576.023, 796.444 586.023, 796.444 596.023, 796.444 606.023, 796.444 616.023, 796.444 626.023, 796.444 636.023, 796.444 646.023, 796.444 656.023, 796.444 666.023, 796.444 676.023, 796.444 686.023, 796.444 696.023, 796.444 706.023, 796.444 716.023, 796.444 726.023, 796.444 736.023, 796.444 746.023, 796.444 756.023, 796.444 766.023, 796.444 776.828, 796.444 776.828, 796.444 776.828, 786.444 776.828, 776.444 776.828, 766.444 776.828, 756.444 776.828, 746.444 776.828, 736.444 776.828, 726.444 776.828, 716.444 776.828, 706.444 776.828, 696.444 776.828, 686.444 776.828, 678.743 " />
            <path fill="none" stroke-width="1.5" stroke-linecap="round" stroke-opacity="1.0" stroke="rgb(0, 0, 0)" stroke-linejoin="round" d=" M 306.023, 796.444 316.023, 796.444 326.023, 796.444 336.023, 796.444 346.023, 796.444 356.023, 796.444 366.023, 796.444 376.023, 796.444 386.023, 796.444 396.023, 796.444 406.023, 796.444 416.023, 796.444 426.023, 796.444 436.023, 796.444 446.023, 796.444 456.023, 796.444 466.023, 796.444 476.023, 796.444 486.023, 796.444 496.023, 796.444 506.023, 796.444 516.023, 796.444 526.023, 796.444 536.023, 796.444 546.023, 796.444 556.023, 796.444 566.023, 796.444 576.023, 796.444 586.023, 796.444 596.023, 796.444 606.023, 796.444 616.023, 796.444 626.023, 796.444 636.023, 796.444 646.023, 796.444 656.023, 796.444 666.023, 796.444 676.023, 796.444 686.023, 796.444 696.023, 796.444 706.023, 796.444 716.023, 796.444 726.023, 796.444 736.023, 796.444 746.023, 796.444 756.023, 796.444 766.023, 796.444 776.828, 796.444 " />
            <path fill="none" stroke-width="1.5" stroke-linecap="round" stroke-opacity="1.0" stroke="rgb(0, 0, 0)" stroke-linejoin="round" d=" M 364.874, 482.575 364.874, 472.575 364.874, 462.575 364.874, 452.575 364.874, 442.575 364.874, 432.575 364.874, 422.575 364.874, 412.575 364.874, 402.575 364.874, 392.575 364.874, 382.575 364.874, 372.575 364.874, 362.575 364.874, 352.575 364.874, 342.575 364.874, 332.575 364.874, 322.575 364.874, 312.575 364.874, 302.575 364.874, 292.575 364.874, 282.575 364.874, 272.575 364.874, 262.575 364.874, 252.575 364.874, 242.575 364.874, 232.575 364.874, 227.556 364.874, 227.556 354.874, 227.556 344.874, 227.556 334.874, 227.556 324.874, 227.556 314.874, 227.556 304.874, 227.556 294.874, 227.556 284.874, 227.556 274.874, 227.556 264.874, 227.556 254.874, 227.556 247.172, 227.556 247.172, 237.556 247.172, 247.556 247.172, 257.556 247.172, 267.556 247.172, 277.556 247.172, 287.556 247.172, 297.556 247.172, 307.556 247.172, 317.556 247.172, 327.556 247.172, 337.556 247.172, 347.556 247.172, 357.556 247.172, 367.556 247.172, 377.556 247.172, 387.556 247.172, 397.556 247.172, 407.556 247.172, 417.556 247.172, 427.556 247.172, 437.556 247.172, 447.556 247.172, 457.556 247.172, 467.556 247.172, 477.556 247.172, 487.556 247.172, 497.556 247.172, 507.556 247.172, 517.556 247.172, 527.556 247.172, 537.556 247.172, 547.556 247.172, 557.556 247.172, 567.556 247.172, 577.556 247.172, 587.556 247.172, 597.556 247.172, 607.556 247.172, 619.893 247.172, 619.893 257.172, 619.893 267.172, 619.893 277.172, 619.893 287.172, 619.893 297.172, 619.893 306.023, 619.893 " />
            <path fill="none" stroke-width="1.5" stroke-linecap="round" stroke-opacity="1.0" stroke="rgb(0, 0, 0)" stroke-linejoin="round" d=" M 364.874, 227.556 364.874, 237.556 364.874, 247.556 364.874, 257.556 364.874, 267.556 364.874, 277.556 364.874, 287.556 364.874, 297.556 364.874, 307.556 364.874, 317.556 364.874, 327.556 364.874, 337.556 364.874, 347.556 364.874, 357.556 364.874, 367.556 364.874, 377.556 364.874, 387.556 364.874, 397.556 364.874, 407.556 364.874, 417.556 364.874, 427.556 364.874, 437.556 364.874, 447.556 364.874, 457.556 364.874, 467.556 364.874, 477.556 364.874, 482.575 " />
            <path fill="none" stroke-width="1.5" stroke-linecap="round" stroke-opacity="1.0" stroke="rgb(0, 0, 0)" stroke-linejoin="round" d=" M 247.172, 619.893 257.172, 619.893 267.172, 619.893 277.172, 619.893 287.172, 619.893 297.172, 619.893 306.023, 619.893 " />
            <path fill="none" stroke-width="1.5" stroke-linecap="round" stroke-opacity="1.0" stroke="rgb(0, 0, 0)" stroke-linejoin="round" d=" M 776.828, 678.743 776.828, 678.743 776.828, 668.743 776.828, 658.743 776.828, 648.743 776.828, 638.743 776.828, 628.743 776.828, 618.743 776.828, 608.743 776.828, 598.743 776.828, 588.743 776.828, 578.743 776.828, 568.743 776.828, 558.743 776.828, 548.743 776.828, 538.743 776.828, 528.743 776.828, 518.743 776.828, 508.743 776.828, 498.743 776.828, 488.743 776.828, 482.575 776.828, 482.575 " />
            <path fill="none" stroke-width="1.5" stroke-linecap="round" stroke-opacity="1.0" stroke="rgb(0, 0, 0)" stroke-linejoin="round" d=" M 776.828, 678.743 776.828, 678.743 776.828, 668.743 776.828, 658.743 776.828, 648.743 776.828, 638.743 776.828, 628.743 776.828, 618.743 776.828, 608.743 776.828, 598.743 776.828, 588.743 776.828, 578.743 776.828, 568.743 776.828, 558.743 776.828, 548.743 776.828, 538.743 776.828, 528.743 776.828, 518.743 776.828, 508.743 776.828, 498.743 776.828, 488.743 776.828, 482.575 " />
            <path fill="none" stroke-width="1.5" stroke-linecap="round" stroke-opacity="1.0" stroke="rgb(0, 0, 0)" stroke-linejoin="round" d=" M 306.023, 482.575 306.023, 492.575 306.023, 502.575 306.023, 512.575 306.023, 522.575 306.023, 532.575 306.023, 542.575 306.023, 552.575 306.023, 562.575 306.023, 572.575 306.023, 582.575 306.023, 592.575 306.023, 602.575 306.023, 612.575 306.023, 619.893 306.023, 619.893 306.023, 629.893 306.023, 639.893 306.023, 649.893 306.023, 659.893 306.023, 669.893 306.023, 678.743 306.023, 678.743 " />
            <path fill="none" stroke-width="1.5" stroke-linecap="round" stroke-opacity="1.0" stroke="rgb(0, 0, 0)" stroke-linejoin="round" d=" M 306.023, 678.743 316.023, 678.743 326.023, 678.743 336.023, 678.743 346.023, 678.743 356.023, 678.743 366.023, 678.743 376.023, 678.743 386.023, 678.743 396.023, 678.743 406.023, 678.743 416.023, 678.743 426.023, 678.743 436.023, 678.743 446.023, 678.743 456.023, 678.743 466.023, 678.743 476.023, 678.743 486.023, 678.743 496.023, 678.743 506.023, 678.743 516.023, 678.743 526.023, 678.743 536.023, 678.743 546.023, 678.743 556.023, 678.743 566.023, 678.743 576.023, 678.743 586.023, 678.743 596.023, 678.743 606.023, 678.743 616.023, 678.743 626.023, 678.743 636.023, 678.743 646.023, 678.743 656.023, 678.743 666.023, 678.743 676.023, 678.743 686.023, 678.743 696.023, 678.743 706.023, 678.743 716.023, 678.743 726.023, 678.743 736.023, 678.743 746.023, 678.743 756.023, 678.743 766.023, 678.743 776.828, 678.743 " />
            <path fill="none" stroke-width="1.5" stroke-linecap="round" stroke-opacity="1.0" stroke="rgb(0, 0, 0)" stroke-linejoin="round" d=" M 306.023, 678.743 306.023, 678.743 " />
            <path fill="none" stroke-width="1.5" stroke-linecap="round" stroke-opacity="1.0" stroke="rgb(0, 0, 0)" stroke-linejoin="round" d=" M 776.828, 678.743 776.828, 678.743 776.828, 678.743 " />
            <path fill="none" stroke-width="1.5" stroke-linecap="round" stroke-opacity="1.0" stroke="rgb(0, 0, 0)" stroke-linejoin="round" d=" M 776.828, 482.575 776.828, 482.575 " />
            <path fill="none" stroke-width="1.5" stroke-linecap="round" stroke-opacity="1.0" stroke="rgb(0, 0, 0)" stroke-linejoin="round" d=" M 776.828, 482.575 766.828, 482.575 756.828, 482.575 746.828, 482.575 736.828, 482.575 726.828, 482.575 716.828, 482.575 706.828, 482.575 696.828, 482.575 686.828, 482.575 676.828, 482.575 666.828, 482.575 656.828, 482.575 646.828, 482.575 636.828, 482.575 626.828, 482.575 616.828, 482.575 606.828, 482.575 596.828, 482.575 586.828, 482.575 576.828, 482.575 566.828, 482.575 556.828, 482.575 546.828, 482.575 536.828, 482.575 526.828, 482.575 516.828, 482.575 506.828, 482.575 496.828, 482.575 486.828, 482.575 476.828, 482.575 466.828, 482.575 456.828, 482.575 446.828, 482.575 436.828, 482.575 426.828, 482.575 416.828, 482.575 406.828, 482.575 396.828, 482.575 386.828, 482.575 376.828, 482.575 364.874, 482.575 364.874, 482.575 354.874, 482.575 344.874, 482.575 334.874, 482.575 324.874, 482.575 314.874, 482.575 306.023, 482.575 " />
        </g>
    </g>
</svg>
