<?xml version='1.0' encoding='ascii'?>
<svg xmlns="http://www.w3.org/2000/svg" xmlns:inkscape="http://www.inkscape.org/namespaces/inkscape" version="1.1" width="1024" height="1024">
    <g id="ViewLayer_LineSet" inkscape:groupmode="lineset" inkscape:label="ViewLayer_LineSet">
        <g inkscape:groupmode="layer" id="strokes" inkscape:label="strokes">
            <path fill="none" stroke-width="3.0" stroke-linecap="butt" stroke-opacity="1.0" stroke="rgb(0, 0, 0)" stroke-linejoin="round" d=" M 606.815, 611.556 606.815, 602.074 " />
            <path fill="none" stroke-width="3.0" stroke-linecap="butt" stroke-opacity="1.0" stroke="rgb(0, 0, 0)" stroke-linejoin="round" d=" M 417.185, 602.074 417.185, 611.556 " />
            <path fill="none" stroke-width="3.0" stroke-linecap="butt" stroke-opacity="1.0" stroke="rgb(0, 0, 0)" stroke-linejoin="round" d=" M 417.185, 592.593 417.185, 602.074 " />
            <path fill="none" stroke-width="3.0" stroke-linecap="butt" stroke-opacity="1.0" stroke="rgb(0, 0, 0)" stroke-linejoin="round" d=" M 417.185, 586.272 417.185, 592.593 " />
            <path fill="none" stroke-width="3.0" stroke-linecap="butt" stroke-opacity="1.0" stroke="rgb(0, 0, 0)" stroke-linejoin="round" d=" M 417.185, 428.247 417.185, 438.247 417.185, 448.247 417.185, 458.247 417.185, 468.247 417.185, 478.247 417.185, 488.247 417.185, 498.247 417.185, 508.247 417.185, 518.247 417.185, 528.247 417.185, 538.247 417.185, 548.247 417.185, 558.247 417.185, 568.247 417.185, 578.247 417.185, 586.272 " />
            <path fill="none" stroke-width="3.0" stroke-linecap="butt" stroke-opacity="1.0" stroke="rgb(0, 0, 0)" stroke-linejoin="round" d=" M 417.185, 412.444 417.185, 422.444 417.185, 428.247 " />
            <path fill="none" stroke-width="3.0" stroke-linecap="butt" stroke-opacity="1.0" stroke="rgb(0, 0, 0)" stroke-linejoin="round" d=" M 417.185, 611.556 427.185, 611.556 437.185, 611.556 447.185, 611.556 457.185, 611.556 467.185, 611.556 477.185, 611.556 487.185, 611.556 497.185, 611.556 507.185, 611.556 517.185, 611.556 527.185, 611.556 537.185, 611.556 547.185, 611.556 557.185, 611.556 567.185, 611.556 577.185, 611.556 587.185, 611.556 597.185, 611.556 606.815, 611.556 " />
            <path fill="none" stroke-width="3.0" stroke-linecap="butt" stroke-opacity="1.0" stroke="rgb(0, 0, 0)" stroke-linejoin="round" d=" M 418.534, 592.593 417.185, 592.593 " />
            <path fill="none" stroke-width="3.0" stroke-linecap="butt" stroke-opacity="1.0" stroke="rgb(0, 0, 0)" stroke-linejoin="round" d=" M 447.441, 592.593 437.441, 592.593 427.441, 592.593 418.534, 592.593 " />
            <path fill="none" stroke-width="3.0" stroke-linecap="butt" stroke-opacity="1.0" stroke="rgb(0, 0, 0)" stroke-linejoin="round" d=" M 576.559, 592.593 566.559, 592.593 556.559, 592.593 546.559, 592.593 536.559, 592.593 526.559, 592.593 516.559, 592.593 506.559, 592.593 496.559, 592.593 486.559, 592.593 476.559, 592.593 466.559, 592.593 456.559, 592.593 447.441, 592.593 " />
            <path fill="none" stroke-width="3.0" stroke-linecap="butt" stroke-opacity="1.0" stroke="rgb(0, 0, 0)" stroke-linejoin="round" d=" M 605.466, 592.593 595.466, 592.593 585.466, 592.593 576.559, 592.593 " />
            <path fill="none" stroke-width="3.0" stroke-linecap="butt" stroke-opacity="1.0" stroke="rgb(0, 0, 0)" stroke-linejoin="round" d=" M 606.815, 592.593 605.466, 592.593 " />
            <path fill="none" stroke-width="3.0" stroke-linecap="butt" stroke-opacity="1.0" stroke="rgb(0, 0, 0)" stroke-linejoin="round" d=" M 606.815, 602.074 606.815, 592.593 " />
            <path fill="none" stroke-width="3.0" stroke-linecap="butt" stroke-opacity="1.0" stroke="rgb(0, 0, 0)" stroke-linejoin="round" d=" M 432.988, 412.444 422.988, 412.444 417.185, 412.444 " />
            <path fill="none" stroke-width="3.0" stroke-linecap="butt" stroke-opacity="1.0" stroke="rgb(0, 0, 0)" stroke-linejoin="round" d=" M 591.012, 412.444 581.012, 412.444 571.012, 412.444 561.012, 412.444 551.012, 412.444 541.012, 412.444 531.012, 412.444 521.012, 412.444 511.012, 412.444 501.012, 412.444 491.012, 412.444 481.012, 412.444 471.012, 412.444 461.012, 412.444 451.012, 412.444 441.012, 412.444 432.988, 412.444 " />
            <path fill="none" stroke-width="3.0" stroke-linecap="butt" stroke-opacity="1.0" stroke="rgb(0, 0, 0)" stroke-linejoin="round" d=" M 606.815, 412.444 596.815, 412.444 591.012, 412.444 " />
            <path fill="none" stroke-width="3.0" stroke-linecap="butt" stroke-opacity="1.0" stroke="rgb(0, 0, 0)" stroke-linejoin="round" d=" M 606.815, 428.247 606.815, 418.247 606.815, 412.444 " />
            <path fill="none" stroke-width="3.0" stroke-linecap="butt" stroke-opacity="1.0" stroke="rgb(0, 0, 0)" stroke-linejoin="round" d=" M 606.815, 586.272 606.815, 576.272 606.815, 566.272 606.815, 556.272 606.815, 546.272 606.815, 536.272 606.815, 526.272 606.815, 516.272 606.815, 506.272 606.815, 496.272 606.815, 486.272 606.815, 476.272 606.815, 466.272 606.815, 456.272 606.815, 446.272 606.815, 436.272 606.815, 428.247 " />
            <path fill="none" stroke-width="3.0" stroke-linecap="butt" stroke-opacity="1.0" stroke="rgb(0, 0, 0)" stroke-linejoin="round" d=" M 606.815, 592.593 606.815, 586.272 " />
        </g>
    </g>
    <g id="ViewLayer_TechnicalLines" inkscape:groupmode="lineset" inkscape:label="ViewLayer_TechnicalLines">
        <g inkscape:groupmode="layer" id="strokes" inkscape:label="strokes">
            <path fill="none" stroke-width="3.0" stroke-linecap="butt" stroke-opacity="1.0" stroke="rgb(0, 0, 0)" stroke-linejoin="round" d=" M 606.815, 611.556 606.815, 602.074 " />
            <path fill="none" stroke-width="3.0" stroke-linecap="butt" stroke-opacity="1.0" stroke="rgb(0, 0, 0)" stroke-linejoin="round" d=" M 417.185, 602.074 417.185, 611.556 " />
            <path fill="none" stroke-width="3.0" stroke-linecap="butt" stroke-opacity="1.0" stroke="rgb(0, 0, 0)" stroke-linejoin="round" d=" M 417.185, 592.593 417.185, 602.074 " />
            <path fill="none" stroke-width="3.0" stroke-linecap="butt" stroke-opacity="1.0" stroke="rgb(0, 0, 0)" stroke-linejoin="round" d=" M 417.185, 586.272 417.185, 592.593 " />
            <path fill="none" stroke-width="3.0" stroke-linecap="butt" stroke-opacity="1.0" stroke="rgb(0, 0, 0)" stroke-linejoin="round" d=" M 417.185, 428.247 417.185, 438.247 417.185, 448.247 417.185, 458.247 417.185, 468.247 417.185, 478.247 417.185, 488.247 417.185, 498.247 417.185, 508.247 417.185, 518.247 417.185, 528.247 417.185, 538.247 417.185, 548.247 417.185, 558.247 417.185, 568.247 417.185, 578.247 417.185, 586.272 " />
            <path fill="none" stroke-width="3.0" stroke-linecap="butt" stroke-opacity="1.0" stroke="rgb(0, 0, 0)" stroke-linejoin="round" d=" M 417.185, 412.444 417.185, 422.444 417.185, 428.247 " />
            <path fill="none" stroke-width="3.0" stroke-linecap="butt" stroke-opacity="1.0" stroke="rgb(0, 0, 0)" stroke-linejoin="round" d=" M 417.185, 611.556 427.185, 611.556 437.185, 611.556 447.185, 611.556 457.185, 611.556 467.185, 611.556 477.185, 611.556 487.185, 611.556 497.185, 611.556 507.185, 611.556 517.185, 611.556 527.185, 611.556 537.185, 611.556 547.185, 611.556 557.185, 611.556 567.185, 611.556 577.185, 611.556 587.185, 611.556 597.185, 611.556 606.815, 611.556 " />
            <path fill="none" stroke-width="3.0" stroke-linecap="butt" stroke-opacity="1.0" stroke="rgb(0, 0, 0)" stroke-linejoin="round" d=" M 418.534, 592.593 417.185, 592.593 " />
            <path fill="none" stroke-width="3.0" stroke-linecap="butt" stroke-opacity="1.0" stroke="rgb(0, 0, 0)" stroke-linejoin="round" d=" M 447.441, 592.593 437.441, 592.593 427.441, 592.593 418.534, 592.593 " />
            <path fill="none" stroke-width="3.0" stroke-linecap="butt" stroke-opacity="1.0" stroke="rgb(0, 0, 0)" stroke-linejoin="round" d=" M 576.559, 592.593 566.559, 592.593 556.559, 592.593 546.559, 592.593 536.559, 592.593 526.559, 592.593 516.559, 592.593 506.559, 592.593 496.559, 592.593 486.559, 592.593 476.559, 592.593 466.559, 592.593 456.559, 592.593 447.441, 592.593 " />
            <path fill="none" stroke-width="3.0" stroke-linecap="butt" stroke-opacity="1.0" stroke="rgb(0, 0, 0)" stroke-linejoin="round" d=" M 605.466, 592.593 595.466, 592.593 585.466, 592.593 576.559, 592.593 " />
            <path fill="none" stroke-width="3.0" stroke-linecap="butt" stroke-opacity="1.0" stroke="rgb(0, 0, 0)" stroke-linejoin="round" d=" M 606.815, 592.593 605.466, 592.593 " />
            <path fill="none" stroke-width="3.0" stroke-linecap="butt" stroke-opacity="1.0" stroke="rgb(0, 0, 0)" stroke-linejoin="round" d=" M 606.815, 602.074 606.815, 592.593 " />
            <path fill="none" stroke-width="3.0" stroke-linecap="butt" stroke-opacity="1.0" stroke="rgb(0, 0, 0)" stroke-linejoin="round" d=" M 432.988, 412.444 422.988, 412.444 417.185, 412.444 " />
            <path fill="none" stroke-width="3.0" stroke-linecap="butt" stroke-opacity="1.0" stroke="rgb(0, 0, 0)" stroke-linejoin="round" d=" M 591.012, 412.444 581.012, 412.444 571.012, 412.444 561.012, 412.444 551.012, 412.444 541.012, 412.444 531.012, 412.444 521.012, 412.444 511.012, 412.444 501.012, 412.444 491.012, 412.444 481.012, 412.444 471.012, 412.444 461.012, 412.444 451.012, 412.444 441.012, 412.444 432.988, 412.444 " />
            <path fill="none" stroke-width="3.0" stroke-linecap="butt" stroke-opacity="1.0" stroke="rgb(0, 0, 0)" stroke-linejoin="round" d=" M 606.815, 412.444 596.815, 412.444 591.012, 412.444 " />
            <path fill="none" stroke-width="3.0" stroke-linecap="butt" stroke-opacity="1.0" stroke="rgb(0, 0, 0)" stroke-linejoin="round" d=" M 606.815, 428.247 606.815, 418.247 606.815, 412.444 " />
            <path fill="none" stroke-width="3.0" stroke-linecap="butt" stroke-opacity="1.0" stroke="rgb(0, 0, 0)" stroke-linejoin="round" d=" M 606.815, 586.272 606.815, 576.272 606.815, 566.272 606.815, 556.272 606.815, 546.272 606.815, 536.272 606.815, 526.272 606.815, 516.272 606.815, 506.272 606.815, 496.272 606.815, 486.272 606.815, 476.272 606.815, 466.272 606.815, 456.272 606.815, 446.272 606.815, 436.272 606.815, 428.247 " />
            <path fill="none" stroke-width="3.0" stroke-linecap="butt" stroke-opacity="1.0" stroke="rgb(0, 0, 0)" stroke-linejoin="round" d=" M 606.815, 592.593 606.815, 586.272 " />
        </g>
    </g>
    <g id="ViewLayer_TechnicalLines.001" inkscape:groupmode="lineset" inkscape:label="ViewLayer_TechnicalLines.001">
        <g inkscape:groupmode="layer" id="strokes" inkscape:label="strokes">
            <path fill="none" stroke-width="1.5" stroke-linecap="round" stroke-opacity="1.0" stroke="rgb(0, 0, 0)" stroke-linejoin="round" d=" M 606.815, 611.556 606.815, 602.074 " />
            <path fill="none" stroke-width="1.5" stroke-linecap="round" stroke-opacity="1.0" stroke="rgb(0, 0, 0)" stroke-linejoin="round" d=" M 417.185, 602.074 417.185, 611.556 " />
            <path fill="none" stroke-width="1.5" stroke-linecap="round" stroke-opacity="1.0" stroke="rgb(0, 0, 0)" stroke-linejoin="round" d=" M 417.185, 592.593 417.185, 602.074 " />
            <path fill="none" stroke-width="1.5" stroke-linecap="round" stroke-opacity="1.0" stroke="rgb(0, 0, 0)" stroke-linejoin="round" d=" M 417.185, 586.272 417.185, 592.593 " />
            <path fill="none" stroke-width="1.5" stroke-linecap="round" stroke-opacity="1.0" stroke="rgb(0, 0, 0)" stroke-linejoin="round" d=" M 417.185, 428.247 417.185, 438.247 417.185, 448.247 417.185, 458.247 417.185, 468.247 417.185, 478.247 417.185, 488.247 417.185, 498.247 417.185, 508.247 417.185, 518.247 417.185, 528.247 417.185, 538.247 417.185, 548.247 417.185, 558.247 417.185, 568.247 417.185, 578.247 417.185, 586.272 " />
            <path fill="none" stroke-width="1.5" stroke-linecap="round" stroke-opacity="1.0" stroke="rgb(0, 0, 0)" stroke-linejoin="round" d=" M 417.185, 412.444 417.185, 422.444 417.185, 428.247 " />
            <path fill="none" stroke-width="1.5" stroke-linecap="round" stroke-opacity="1.0" stroke="rgb(0, 0, 0)" stroke-linejoin="round" d=" M 417.185, 611.556 427.185, 611.556 437.185, 611.556 447.185, 611.556 457.185, 611.556 467.185, 611.556 477.185, 611.556 487.185, 611.556 497.185, 611.556 507.185, 611.556 517.185, 611.556 527.185, 611.556 537.185, 611.556 547.185, 611.556 557.185, 611.556 567.185, 611.556 577.185, 611.556 587.185, 611.556 597.185, 611.556 606.815, 611.556 " />
            <path fill="none" stroke-width="1.5" stroke-linecap="round" stroke-opacity="1.0" stroke="rgb(0, 0, 0)" stroke-linejoin="round" d=" M 418.534, 592.593 417.185, 592.593 " />
            <path fill="none" stroke-width="1.5" stroke-linecap="round" stroke-opacity="1.0" stroke="rgb(0, 0, 0)" stroke-linejoin="round" d=" M 447.441, 592.593 437.441, 592.593 427.441, 592.593 418.534, 592.593 " />
            <path fill="none" stroke-width="1.5" stroke-linecap="round" stroke-opacity="1.0" stroke="rgb(0, 0, 0)" stroke-linejoin="round" d=" M 576.559, 592.593 566.559, 592.593 556.559, 592.593 546.559, 592.593 536.559, 592.593 526.559, 592.593 516.559, 592.593 506.559, 592.593 496.559, 592.593 486.559, 592.593 476.559, 592.593 466.559, 592.593 456.559, 592.593 447.441, 592.593 " />
            <path fill="none" stroke-width="1.5" stroke-linecap="round" stroke-opacity="1.0" stroke="rgb(0, 0, 0)" stroke-linejoin="round" d=" M 605.466, 592.593 595.466, 592.593 585.466, 592.593 576.559, 592.593 " />
            <path fill="none" stroke-width="1.5" stroke-linecap="round" stroke-opacity="1.0" stroke="rgb(0, 0, 0)" stroke-linejoin="round" d=" M 606.815, 592.593 605.466, 592.593 " />
            <path fill="none" stroke-width="1.5" stroke-linecap="round" stroke-opacity="1.0" stroke="rgb(0, 0, 0)" stroke-linejoin="round" d=" M 606.815, 602.074 606.815, 592.593 " />
            <path fill="none" stroke-width="1.5" stroke-linecap="round" stroke-opacity="1.0" stroke="rgb(0, 0, 0)" stroke-linejoin="round" d=" M 432.988, 412.444 422.988, 412.444 417.185, 412.444 " />
            <path fill="none" stroke-width="1.5" stroke-linecap="round" stroke-opacity="1.0" stroke="rgb(0, 0, 0)" stroke-linejoin="round" d=" M 591.012, 412.444 581.012, 412.444 571.012, 412.444 561.012, 412.444 551.012, 412.444 541.012, 412.444 531.012, 412.444 521.012, 412.444 511.012, 412.444 501.012, 412.444 491.012, 412.444 481.012, 412.444 471.012, 412.444 461.012, 412.444 451.012, 412.444 441.012, 412.444 432.988, 412.444 " />
            <path fill="none" stroke-width="1.5" stroke-linecap="round" stroke-opacity="1.0" stroke="rgb(0, 0, 0)" stroke-linejoin="round" d=" M 606.815, 412.444 596.815, 412.444 591.012, 412.444 " />
            <path fill="none" stroke-width="1.5" stroke-linecap="round" stroke-opacity="1.0" stroke="rgb(0, 0, 0)" stroke-linejoin="round" d=" M 606.815, 428.247 606.815, 418.247 606.815, 412.444 " />
            <path fill="none" stroke-width="1.5" stroke-linecap="round" stroke-opacity="1.0" stroke="rgb(0, 0, 0)" stroke-linejoin="round" d=" M 606.815, 586.272 606.815, 576.272 606.815, 566.272 606.815, 556.272 606.815, 546.272 606.815, 536.272 606.815, 526.272 606.815, 516.272 606.815, 506.272 606.815, 496.272 606.815, 486.272 606.815, 476.272 606.815, 466.272 606.815, 456.272 606.815, 446.272 606.815, 436.272 606.815, 428.247 " />
            <path fill="none" stroke-width="1.5" stroke-linecap="round" stroke-opacity="1.0" stroke="rgb(0, 0, 0)" stroke-linejoin="round" d=" M 606.815, 592.593 606.815, 586.272 " />
        </g>
    </g>
    <g id="ViewLayer_TechnicalLines.002" inkscape:groupmode="lineset" inkscape:label="ViewLayer_TechnicalLines.002">
        <g inkscape:groupmode="layer" id="strokes" inkscape:label="strokes">
            <path fill="none" stroke-width="1.5" stroke-linecap="round" stroke-opacity="1.0" stroke="rgb(0, 0, 0)" stroke-linejoin="round" d=" M 606.815, 611.556 606.815, 602.074 " />
            <path fill="none" stroke-width="1.5" stroke-linecap="round" stroke-opacity="1.0" stroke="rgb(0, 0, 0)" stroke-linejoin="round" d=" M 417.185, 602.074 417.185, 611.556 " />
            <path fill="none" stroke-width="1.5" stroke-linecap="round" stroke-opacity="1.0" stroke="rgb(0, 0, 0)" stroke-linejoin="round" d=" M 417.185, 592.593 417.185, 602.074 " />
            <path fill="none" stroke-width="1.5" stroke-linecap="round" stroke-opacity="1.0" stroke="rgb(0, 0, 0)" stroke-linejoin="round" d=" M 417.185, 586.272 417.185, 592.593 " />
            <path fill="none" stroke-width="1.5" stroke-linecap="round" stroke-opacity="1.0" stroke="rgb(0, 0, 0)" stroke-linejoin="round" d=" M 417.185, 428.247 417.185, 438.247 417.185, 448.247 417.185, 458.247 417.185, 468.247 417.185, 478.247 417.185, 488.247 417.185, 498.247 417.185, 508.247 417.185, 518.247 417.185, 528.247 417.185, 538.247 417.185, 548.247 417.185, 558.247 417.185, 568.247 417.185, 578.247 417.185, 586.272 " />
            <path fill="none" stroke-width="1.5" stroke-linecap="round" stroke-opacity="1.0" stroke="rgb(0, 0, 0)" stroke-linejoin="round" d=" M 417.185, 412.444 417.185, 422.444 417.185, 428.247 " />
            <path fill="none" stroke-width="1.5" stroke-linecap="round" stroke-opacity="1.0" stroke="rgb(0, 0, 0)" stroke-linejoin="round" d=" M 417.185, 611.556 427.185, 611.556 437.185, 611.556 447.185, 611.556 457.185, 611.556 467.185, 611.556 477.185, 611.556 487.185, 611.556 497.185, 611.556 507.185, 611.556 517.185, 611.556 527.185, 611.556 537.185, 611.556 547.185, 611.556 557.185, 611.556 567.185, 611.556 577.185, 611.556 587.185, 611.556 597.185, 611.556 606.815, 611.556 " />
            <path fill="none" stroke-width="1.5" stroke-linecap="round" stroke-opacity="1.0" stroke="rgb(0, 0, 0)" stroke-linejoin="round" d=" M 418.534, 592.593 417.185, 592.593 " />
            <path fill="none" stroke-width="1.5" stroke-linecap="round" stroke-opacity="1.0" stroke="rgb(0, 0, 0)" stroke-linejoin="round" d=" M 447.441, 592.593 437.441, 592.593 427.441, 592.593 418.534, 592.593 " />
            <path fill="none" stroke-width="1.5" stroke-linecap="round" stroke-opacity="1.0" stroke="rgb(0, 0, 0)" stroke-linejoin="round" d=" M 576.559, 592.593 566.559, 592.593 556.559, 592.593 546.559, 592.593 536.559, 592.593 526.559, 592.593 516.559, 592.593 506.559, 592.593 496.559, 592.593 486.559, 592.593 476.559, 592.593 466.559, 592.593 456.559, 592.593 447.441, 592.593 " />
            <path fill="none" stroke-width="1.5" stroke-linecap="round" stroke-opacity="1.0" stroke="rgb(0, 0, 0)" stroke-linejoin="round" d=" M 605.466, 592.593 595.466, 592.593 585.466, 592.593 576.559, 592.593 " />
            <path fill="none" stroke-width="1.5" stroke-linecap="round" stroke-opacity="1.0" stroke="rgb(0, 0, 0)" stroke-linejoin="round" d=" M 606.815, 592.593 605.466, 592.593 " />
            <path fill="none" stroke-width="1.5" stroke-linecap="round" stroke-opacity="1.0" stroke="rgb(0, 0, 0)" stroke-linejoin="round" d=" M 606.815, 602.074 606.815, 592.593 " />
            <path fill="none" stroke-width="1.5" stroke-linecap="round" stroke-opacity="1.0" stroke="rgb(0, 0, 0)" stroke-linejoin="round" d=" M 432.988, 412.444 422.988, 412.444 417.185, 412.444 " />
            <path fill="none" stroke-width="1.5" stroke-linecap="round" stroke-opacity="1.0" stroke="rgb(0, 0, 0)" stroke-linejoin="round" d=" M 591.012, 412.444 581.012, 412.444 571.012, 412.444 561.012, 412.444 551.012, 412.444 541.012, 412.444 531.012, 412.444 521.012, 412.444 511.012, 412.444 501.012, 412.444 491.012, 412.444 481.012, 412.444 471.012, 412.444 461.012, 412.444 451.012, 412.444 441.012, 412.444 432.988, 412.444 " />
            <path fill="none" stroke-width="1.5" stroke-linecap="round" stroke-opacity="1.0" stroke="rgb(0, 0, 0)" stroke-linejoin="round" d=" M 606.815, 412.444 596.815, 412.444 591.012, 412.444 " />
            <path fill="none" stroke-width="1.5" stroke-linecap="round" stroke-opacity="1.0" stroke="rgb(0, 0, 0)" stroke-linejoin="round" d=" M 606.815, 428.247 606.815, 418.247 606.815, 412.444 " />
            <path fill="none" stroke-width="1.5" stroke-linecap="round" stroke-opacity="1.0" stroke="rgb(0, 0, 0)" stroke-linejoin="round" d=" M 606.815, 586.272 606.815, 576.272 606.815, 566.272 606.815, 556.272 606.815, 546.272 606.815, 536.272 606.815, 526.272 606.815, 516.272 606.815, 506.272 606.815, 496.272 606.815, 486.272 606.815, 476.272 606.815, 466.272 606.815, 456.272 606.815, 446.272 606.815, 436.272 606.815, 428.247 " />
            <path fill="none" stroke-width="1.5" stroke-linecap="round" stroke-opacity="1.0" stroke="rgb(0, 0, 0)" stroke-linejoin="round" d=" M 606.815, 592.593 606.815, 586.272 " />
        </g>
    </g>
    <g id="ViewLayer_TechnicalLines.003" inkscape:groupmode="lineset" inkscape:label="ViewLayer_TechnicalLines.003">
        <g inkscape:groupmode="layer" id="strokes" inkscape:label="strokes">
            <path fill="none" stroke-width="1.5" stroke-linecap="round" stroke-opacity="1.0" stroke="rgb(0, 0, 0)" stroke-linejoin="round" d=" M 606.815, 611.556 606.815, 602.074 " />
            <path fill="none" stroke-width="1.5" stroke-linecap="round" stroke-opacity="1.0" stroke="rgb(0, 0, 0)" stroke-linejoin="round" d=" M 417.185, 602.074 417.185, 611.556 " />
            <path fill="none" stroke-width="1.5" stroke-linecap="round" stroke-opacity="1.0" stroke="rgb(0, 0, 0)" stroke-linejoin="round" d=" M 417.185, 592.593 417.185, 602.074 " />
            <path fill="none" stroke-width="1.5" stroke-linecap="round" stroke-opacity="1.0" stroke="rgb(0, 0, 0)" stroke-linejoin="round" d=" M 417.185, 586.272 417.185, 592.593 " />
            <path fill="none" stroke-width="1.5" stroke-linecap="round" stroke-opacity="1.0" stroke="rgb(0, 0, 0)" stroke-linejoin="round" d=" M 417.185, 428.247 417.185, 438.247 417.185, 448.247 417.185, 458.247 417.185, 468.247 417.185, 478.247 417.185, 488.247 417.185, 498.247 417.185, 508.247 417.185, 518.247 417.185, 528.247 417.185, 538.247 417.185, 548.247 417.185, 558.247 417.185, 568.247 417.185, 578.247 417.185, 586.272 " />
            <path fill="none" stroke-width="1.5" stroke-linecap="round" stroke-opacity="1.0" stroke="rgb(0, 0, 0)" stroke-linejoin="round" d=" M 417.185, 412.444 417.185, 422.444 417.185, 428.247 " />
            <path fill="none" stroke-width="1.5" stroke-linecap="round" stroke-opacity="1.0" stroke="rgb(0, 0, 0)" stroke-linejoin="round" d=" M 417.185, 611.556 427.185, 611.556 437.185, 611.556 447.185, 611.556 457.185, 611.556 467.185, 611.556 477.185, 611.556 487.185, 611.556 497.185, 611.556 507.185, 611.556 517.185, 611.556 527.185, 611.556 537.185, 611.556 547.185, 611.556 557.185, 611.556 567.185, 611.556 577.185, 611.556 587.185, 611.556 597.185, 611.556 606.815, 611.556 " />
            <path fill="none" stroke-width="1.5" stroke-linecap="round" stroke-opacity="1.0" stroke="rgb(0, 0, 0)" stroke-linejoin="round" d=" M 418.534, 592.593 417.185, 592.593 " />
            <path fill="none" stroke-width="1.5" stroke-linecap="round" stroke-opacity="1.0" stroke="rgb(0, 0, 0)" stroke-linejoin="round" d=" M 447.441, 592.593 437.441, 592.593 427.441, 592.593 418.534, 592.593 " />
            <path fill="none" stroke-width="1.5" stroke-linecap="round" stroke-opacity="1.0" stroke="rgb(0, 0, 0)" stroke-linejoin="round" d=" M 576.559, 592.593 566.559, 592.593 556.559, 592.593 546.559, 592.593 536.559, 592.593 526.559, 592.593 516.559, 592.593 506.559, 592.593 496.559, 592.593 486.559, 592.593 476.559, 592.593 466.559, 592.593 456.559, 592.593 447.441, 592.593 " />
            <path fill="none" stroke-width="1.5" stroke-linecap="round" stroke-opacity="1.0" stroke="rgb(0, 0, 0)" stroke-linejoin="round" d=" M 605.466, 592.593 595.466, 592.593 585.466, 592.593 576.559, 592.593 " />
            <path fill="none" stroke-width="1.5" stroke-linecap="round" stroke-opacity="1.0" stroke="rgb(0, 0, 0)" stroke-linejoin="round" d=" M 606.815, 592.593 605.466, 592.593 " />
            <path fill="none" stroke-width="1.5" stroke-linecap="round" stroke-opacity="1.0" stroke="rgb(0, 0, 0)" stroke-linejoin="round" d=" M 606.815, 602.074 606.815, 592.593 " />
            <path fill="none" stroke-width="1.5" stroke-linecap="round" stroke-opacity="1.0" stroke="rgb(0, 0, 0)" stroke-linejoin="round" d=" M 432.988, 412.444 422.988, 412.444 417.185, 412.444 " />
            <path fill="none" stroke-width="1.5" stroke-linecap="round" stroke-opacity="1.0" stroke="rgb(0, 0, 0)" stroke-linejoin="round" d=" M 591.012, 412.444 581.012, 412.444 571.012, 412.444 561.012, 412.444 551.012, 412.444 541.012, 412.444 531.012, 412.444 521.012, 412.444 511.012, 412.444 501.012, 412.444 491.012, 412.444 481.012, 412.444 471.012, 412.444 461.012, 412.444 451.012, 412.444 441.012, 412.444 432.988, 412.444 " />
            <path fill="none" stroke-width="1.5" stroke-linecap="round" stroke-opacity="1.0" stroke="rgb(0, 0, 0)" stroke-linejoin="round" d=" M 606.815, 412.444 596.815, 412.444 591.012, 412.444 " />
            <path fill="none" stroke-width="1.5" stroke-linecap="round" stroke-opacity="1.0" stroke="rgb(0, 0, 0)" stroke-linejoin="round" d=" M 606.815, 428.247 606.815, 418.247 606.815, 412.444 " />
            <path fill="none" stroke-width="1.5" stroke-linecap="round" stroke-opacity="1.0" stroke="rgb(0, 0, 0)" stroke-linejoin="round" d=" M 606.815, 586.272 606.815, 576.272 606.815, 566.272 606.815, 556.272 606.815, 546.272 606.815, 536.272 606.815, 526.272 606.815, 516.272 606.815, 506.272 606.815, 496.272 606.815, 486.272 606.815, 476.272 606.815, 466.272 606.815, 456.272 606.815, 446.272 606.815, 436.272 606.815, 428.247 " />
            <path fill="none" stroke-width="1.5" stroke-linecap="round" stroke-opacity="1.0" stroke="rgb(0, 0, 0)" stroke-linejoin="round" d=" M 606.815, 592.593 606.815, 586.272 " />
        </g>
    </g>
    <g id="ViewLayer_TechnicalLines.004" xmlns:inkscape="http://www.inkscape.org/namespaces/inkscape" inkscape:groupmode="lineset" inkscape:label="ViewLayer_TechnicalLines.004">
        <g xmlns:inkscape="http://www.inkscape.org/namespaces/inkscape" inkscape:groupmode="layer" id="strokes" inkscape:label="strokes">
            <path fill="none" stroke-width="1.5" stroke-linecap="round" stroke-opacity="1.0" stroke="rgb(0, 0, 0)" stroke-linejoin="round" d=" M 606.815, 611.556 606.815, 602.074 " />
            <path fill="none" stroke-width="1.5" stroke-linecap="round" stroke-opacity="1.0" stroke="rgb(0, 0, 0)" stroke-linejoin="round" d=" M 417.185, 602.074 417.185, 611.556 " />
            <path fill="none" stroke-width="1.5" stroke-linecap="round" stroke-opacity="1.0" stroke="rgb(0, 0, 0)" stroke-linejoin="round" d=" M 417.185, 592.593 417.185, 602.074 " />
            <path fill="none" stroke-width="1.5" stroke-linecap="round" stroke-opacity="1.0" stroke="rgb(0, 0, 0)" stroke-linejoin="round" d=" M 417.185, 586.272 417.185, 592.593 " />
            <path fill="none" stroke-width="1.5" stroke-linecap="round" stroke-opacity="1.0" stroke="rgb(0, 0, 0)" stroke-linejoin="round" d=" M 417.185, 428.247 417.185, 438.247 417.185, 448.247 417.185, 458.247 417.185, 468.247 417.185, 478.247 417.185, 488.247 417.185, 498.247 417.185, 508.247 417.185, 518.247 417.185, 528.247 417.185, 538.247 417.185, 548.247 417.185, 558.247 417.185, 568.247 417.185, 578.247 417.185, 586.272 " />
            <path fill="none" stroke-width="1.5" stroke-linecap="round" stroke-opacity="1.0" stroke="rgb(0, 0, 0)" stroke-linejoin="round" d=" M 417.185, 412.444 417.185, 422.444 417.185, 428.247 " />
            <path fill="none" stroke-width="1.5" stroke-linecap="round" stroke-opacity="1.0" stroke="rgb(0, 0, 0)" stroke-linejoin="round" d=" M 417.185, 611.556 427.185, 611.556 437.185, 611.556 447.185, 611.556 457.185, 611.556 467.185, 611.556 477.185, 611.556 487.185, 611.556 497.185, 611.556 507.185, 611.556 517.185, 611.556 527.185, 611.556 537.185, 611.556 547.185, 611.556 557.185, 611.556 567.185, 611.556 577.185, 611.556 587.185, 611.556 597.185, 611.556 606.815, 611.556 " />
            <path fill="none" stroke-width="1.5" stroke-linecap="round" stroke-opacity="1.0" stroke="rgb(0, 0, 0)" stroke-linejoin="round" d=" M 418.534, 592.593 417.185, 592.593 " />
            <path fill="none" stroke-width="1.5" stroke-linecap="round" stroke-opacity="1.0" stroke="rgb(0, 0, 0)" stroke-linejoin="round" d=" M 447.441, 592.593 437.441, 592.593 427.441, 592.593 418.534, 592.593 " />
            <path fill="none" stroke-width="1.5" stroke-linecap="round" stroke-opacity="1.0" stroke="rgb(0, 0, 0)" stroke-linejoin="round" d=" M 576.559, 592.593 566.559, 592.593 556.559, 592.593 546.559, 592.593 536.559, 592.593 526.559, 592.593 516.559, 592.593 506.559, 592.593 496.559, 592.593 486.559, 592.593 476.559, 592.593 466.559, 592.593 456.559, 592.593 447.441, 592.593 " />
            <path fill="none" stroke-width="1.5" stroke-linecap="round" stroke-opacity="1.0" stroke="rgb(0, 0, 0)" stroke-linejoin="round" d=" M 605.466, 592.593 595.466, 592.593 585.466, 592.593 576.559, 592.593 " />
            <path fill="none" stroke-width="1.5" stroke-linecap="round" stroke-opacity="1.0" stroke="rgb(0, 0, 0)" stroke-linejoin="round" d=" M 606.815, 592.593 605.466, 592.593 " />
            <path fill="none" stroke-width="1.5" stroke-linecap="round" stroke-opacity="1.0" stroke="rgb(0, 0, 0)" stroke-linejoin="round" d=" M 606.815, 602.074 606.815, 592.593 " />
            <path fill="none" stroke-width="1.5" stroke-linecap="round" stroke-opacity="1.0" stroke="rgb(0, 0, 0)" stroke-linejoin="round" d=" M 432.988, 412.444 422.988, 412.444 417.185, 412.444 " />
            <path fill="none" stroke-width="1.5" stroke-linecap="round" stroke-opacity="1.0" stroke="rgb(0, 0, 0)" stroke-linejoin="round" d=" M 591.012, 412.444 581.012, 412.444 571.012, 412.444 561.012, 412.444 551.012, 412.444 541.012, 412.444 531.012, 412.444 521.012, 412.444 511.012, 412.444 501.012, 412.444 491.012, 412.444 481.012, 412.444 471.012, 412.444 461.012, 412.444 451.012, 412.444 441.012, 412.444 432.988, 412.444 " />
            <path fill="none" stroke-width="1.5" stroke-linecap="round" stroke-opacity="1.0" stroke="rgb(0, 0, 0)" stroke-linejoin="round" d=" M 606.815, 412.444 596.815, 412.444 591.012, 412.444 " />
            <path fill="none" stroke-width="1.5" stroke-linecap="round" stroke-opacity="1.0" stroke="rgb(0, 0, 0)" stroke-linejoin="round" d=" M 606.815, 428.247 606.815, 418.247 606.815, 412.444 " />
            <path fill="none" stroke-width="1.5" stroke-linecap="round" stroke-opacity="1.0" stroke="rgb(0, 0, 0)" stroke-linejoin="round" d=" M 606.815, 586.272 606.815, 576.272 606.815, 566.272 606.815, 556.272 606.815, 546.272 606.815, 536.272 606.815, 526.272 606.815, 516.272 606.815, 506.272 606.815, 496.272 606.815, 486.272 606.815, 476.272 606.815, 466.272 606.815, 456.272 606.815, 446.272 606.815, 436.272 606.815, 428.247 " />
            <path fill="none" stroke-width="1.5" stroke-linecap="round" stroke-opacity="1.0" stroke="rgb(0, 0, 0)" stroke-linejoin="round" d=" M 606.815, 592.593 606.815, 586.272 " />
        </g>
    </g>
</svg>
