<?xml version='1.0' encoding='ascii'?>
<svg xmlns="http://www.w3.org/2000/svg" xmlns:inkscape="http://www.inkscape.org/namespaces/inkscape" version="1.1" width="1024" height="1024">
    <g id="ViewLayer_LineSet" inkscape:groupmode="lineset" inkscape:label="ViewLayer_LineSet">
        <g inkscape:groupmode="layer" id="strokes" inkscape:label="strokes">
            <path fill="none" stroke-width="3.0" stroke-linecap="butt" stroke-opacity="1.0" stroke="rgb(0, 0, 0)" stroke-linejoin="round" d=" M 365.783, 606.815 367.973, 606.815 " />
            <path fill="none" stroke-width="3.0" stroke-linecap="butt" stroke-opacity="1.0" stroke="rgb(0, 0, 0)" stroke-linejoin="round" d=" M 369.778, 796.444 369.778, 786.444 369.778, 776.444 369.778, 766.444 369.778, 756.444 369.778, 746.444 369.778, 736.444 369.778, 726.444 369.778, 716.444 369.778, 706.444 369.778, 696.444 369.778, 686.444 369.778, 676.444 369.778, 666.444 369.778, 656.444 369.778, 646.444 369.778, 636.444 369.778, 626.444 369.778, 616.444 369.778, 606.815 369.322, 606.815 367.973, 606.815 365.783, 606.815 362.835, 606.815 359.243, 606.815 355.145, 606.815 350.698, 606.815 346.074, 606.815 341.450, 606.815 337.003, 606.815 332.905, 606.815 329.313, 606.815 326.365, 606.815 324.175, 606.815 322.826, 606.815 322.370, 606.815 322.370, 616.815 322.370, 626.815 322.370, 636.815 322.370, 646.815 322.370, 656.815 322.370, 666.815 322.370, 676.815 322.370, 686.815 322.370, 696.815 322.370, 706.815 322.370, 716.815 322.370, 726.815 322.370, 736.815 322.370, 746.815 322.370, 756.815 322.370, 766.815 322.370, 776.815 322.370, 786.815 322.370, 796.444 " />
            <path fill="none" stroke-width="3.0" stroke-linecap="butt" stroke-opacity="1.0" stroke="rgb(0, 0, 0)" stroke-linejoin="round" d=" M 322.370, 796.444 322.826, 796.444 324.175, 796.444 326.365, 796.444 329.313, 796.444 332.905, 796.444 337.003, 796.444 341.450, 796.444 346.074, 796.444 350.698, 796.444 355.145, 796.444 359.243, 796.444 362.835, 796.444 365.783, 796.444 367.973, 796.444 369.322, 796.444 369.778, 796.444 " />
            <path fill="none" stroke-width="3.0" stroke-linecap="butt" stroke-opacity="1.0" stroke="rgb(0, 0, 0)" stroke-linejoin="round" d=" M 324.175, 606.815 326.365, 606.815 " />
            <path fill="none" stroke-width="3.0" stroke-linecap="butt" stroke-opacity="1.0" stroke="rgb(0, 0, 0)" stroke-linejoin="round" d=" M 697.635, 606.815 699.825, 606.815 " />
            <path fill="none" stroke-width="3.0" stroke-linecap="butt" stroke-opacity="1.0" stroke="rgb(0, 0, 0)" stroke-linejoin="round" d=" M 654.222, 796.444 654.678, 796.444 656.027, 796.444 658.217, 796.444 661.165, 796.444 664.757, 796.444 668.855, 796.444 673.302, 796.444 677.926, 796.444 682.550, 796.444 686.997, 796.444 691.095, 796.444 694.687, 796.444 697.635, 796.444 699.825, 796.444 701.174, 796.444 701.630, 796.444 701.630, 786.444 701.630, 776.444 701.630, 766.444 701.630, 756.444 701.630, 746.444 701.630, 736.444 701.630, 726.444 701.630, 716.444 701.630, 706.444 701.630, 696.444 701.630, 686.444 701.630, 676.444 701.630, 666.444 701.630, 656.444 701.630, 646.444 701.630, 636.444 701.630, 626.444 701.630, 616.444 701.630, 606.815 " />
            <path fill="none" stroke-width="3.0" stroke-linecap="butt" stroke-opacity="1.0" stroke="rgb(0, 0, 0)" stroke-linejoin="round" d=" M 701.630, 606.815 701.630, 606.815 701.174, 606.815 699.825, 606.815 697.635, 606.815 694.687, 606.815 691.095, 606.815 686.997, 606.815 682.550, 606.815 677.926, 606.815 673.302, 606.815 668.855, 606.815 664.757, 606.815 661.165, 606.815 658.217, 606.815 656.027, 606.815 654.678, 606.815 654.222, 606.815 654.222, 606.815 " />
            <path fill="none" stroke-width="3.0" stroke-linecap="butt" stroke-opacity="1.0" stroke="rgb(0, 0, 0)" stroke-linejoin="round" d=" M 656.027, 606.815 658.217, 606.815 " />
            <path fill="none" stroke-width="3.0" stroke-linecap="butt" stroke-opacity="1.0" stroke="rgb(0, 0, 0)" stroke-linejoin="round" d=" M 322.370, 796.444 322.370, 796.445 322.826, 796.445 324.175, 796.445 326.365, 796.445 329.313, 796.445 332.905, 796.445 337.003, 796.445 341.450, 796.445 346.074, 796.445 350.698, 796.445 355.145, 796.445 359.243, 796.445 362.835, 796.445 365.783, 796.445 367.973, 796.445 369.322, 796.445 369.778, 796.445 369.778, 796.444 " />
            <path fill="none" stroke-width="3.0" stroke-linecap="butt" stroke-opacity="1.0" stroke="rgb(0, 0, 0)" stroke-linejoin="round" d=" M 654.222, 796.444 654.222, 796.445 654.678, 796.445 656.027, 796.445 658.217, 796.445 661.165, 796.445 664.757, 796.445 668.855, 796.445 673.302, 796.445 677.926, 796.445 682.550, 796.445 686.997, 796.445 691.095, 796.445 694.687, 796.445 697.635, 796.445 699.825, 796.445 701.174, 796.445 701.630, 796.445 " />
            <path fill="none" stroke-width="3.0" stroke-linecap="butt" stroke-opacity="1.0" stroke="rgb(0, 0, 0)" stroke-linejoin="round" d=" M 346.074, 488.296 346.074, 488.296 346.074, 498.296 346.074, 508.296 346.074, 518.296 346.074, 528.296 346.074, 535.704 346.074, 535.704 356.074, 535.704 366.074, 535.704 376.074, 535.704 386.074, 535.704 396.074, 535.704 406.074, 535.704 416.074, 535.704 426.074, 535.704 436.074, 535.704 446.074, 535.704 456.074, 535.704 466.074, 535.704 476.074, 535.704 486.074, 535.704 496.074, 535.704 506.074, 535.704 516.074, 535.704 526.074, 535.704 536.074, 535.704 546.074, 535.704 556.074, 535.704 566.074, 535.704 576.074, 535.704 586.074, 535.704 596.074, 535.704 606.074, 535.704 616.074, 535.704 626.074, 535.704 636.074, 535.704 646.074, 535.704 656.074, 535.704 666.074, 535.704 677.926, 535.704 677.926, 535.704 677.926, 525.704 677.926, 515.704 677.926, 505.704 677.926, 495.704 677.926, 488.296 677.926, 488.296 667.926, 488.296 657.926, 488.296 647.926, 488.296 637.926, 488.296 627.926, 488.296 617.926, 488.296 607.926, 488.296 597.926, 488.296 587.926, 488.296 577.926, 488.296 567.926, 488.296 557.926, 488.296 547.926, 488.296 537.926, 488.296 527.926, 488.296 517.926, 488.296 507.926, 488.296 497.926, 488.296 487.926, 488.296 477.926, 488.296 467.926, 488.296 457.926, 488.296 447.926, 488.296 437.926, 488.296 427.926, 488.296 417.926, 488.296 407.926, 488.296 397.926, 488.296 387.926, 488.296 377.926, 488.296 367.926, 488.296 357.926, 488.296 346.074, 488.296 " />
            <path fill="none" stroke-width="3.0" stroke-linecap="butt" stroke-opacity="1.0" stroke="rgb(0, 0, 0)" stroke-linejoin="round" d=" M 346.074, 535.704 356.074, 535.704 366.074, 535.704 376.074, 535.704 386.074, 535.704 396.074, 535.704 406.074, 535.704 416.074, 535.704 426.074, 535.704 436.074, 535.704 446.074, 535.704 456.074, 535.704 466.074, 535.704 476.074, 535.704 486.074, 535.704 496.074, 535.704 506.074, 535.704 516.074, 535.704 526.074, 535.704 536.074, 535.704 546.074, 535.704 556.074, 535.704 566.074, 535.704 576.074, 535.704 586.074, 535.704 596.074, 535.704 606.074, 535.704 616.074, 535.704 626.074, 535.704 636.074, 535.704 646.074, 535.704 656.074, 535.704 666.074, 535.704 677.926, 535.704 " />
            <path fill="none" stroke-width="3.0" stroke-linecap="butt" stroke-opacity="1.0" stroke="rgb(0, 0, 0)" stroke-linejoin="round" d=" M 677.926, 227.556 667.926, 227.556 657.926, 227.556 647.926, 227.556 637.926, 227.556 627.926, 227.556 617.926, 227.556 607.926, 227.556 597.926, 227.556 587.926, 227.556 577.926, 227.556 567.926, 227.556 557.926, 227.556 547.926, 227.556 537.926, 227.556 527.926, 227.556 517.926, 227.556 507.926, 227.556 497.926, 227.556 487.926, 227.556 477.926, 227.556 467.926, 227.556 457.926, 227.556 447.926, 227.556 437.926, 227.556 427.926, 227.556 417.926, 227.556 407.926, 227.556 397.926, 227.556 387.926, 227.556 377.926, 227.556 367.926, 227.556 357.926, 227.556 346.074, 227.556 346.074, 237.556 346.074, 247.556 346.074, 257.556 346.074, 267.556 346.074, 277.556 346.074, 287.556 346.074, 297.556 346.074, 307.556 346.074, 317.556 346.074, 327.556 346.074, 337.556 346.074, 347.556 346.074, 357.556 346.074, 367.556 346.074, 377.556 346.074, 387.556 346.074, 397.556 346.074, 407.556 346.074, 417.556 346.074, 427.556 346.074, 437.556 346.074, 447.556 346.074, 457.556 346.074, 464.593 356.074, 464.593 366.074, 464.593 376.074, 464.593 386.074, 464.593 396.074, 464.593 406.074, 464.593 416.074, 464.593 426.074, 464.593 436.074, 464.593 446.074, 464.593 456.074, 464.593 466.074, 464.593 476.074, 464.593 486.074, 464.593 496.074, 464.593 506.074, 464.593 516.074, 464.593 526.074, 464.593 536.074, 464.593 546.074, 464.593 556.074, 464.593 566.074, 464.593 576.074, 464.593 586.074, 464.593 596.074, 464.593 606.074, 464.593 616.074, 464.593 626.074, 464.593 636.074, 464.593 646.074, 464.593 656.074, 464.593 666.074, 464.593 677.926, 464.593 " />
            <path fill="none" stroke-width="3.0" stroke-linecap="butt" stroke-opacity="1.0" stroke="rgb(0, 0, 0)" stroke-linejoin="round" d=" M 677.926, 464.593 677.926, 454.593 677.926, 444.593 677.926, 434.593 677.926, 424.593 677.926, 414.593 677.926, 404.593 677.926, 394.593 677.926, 384.593 677.926, 374.593 677.926, 364.593 677.926, 354.593 677.926, 344.593 677.926, 334.593 677.926, 324.593 677.926, 314.593 677.926, 304.593 677.926, 294.593 677.926, 284.593 677.926, 274.593 677.926, 264.593 677.926, 254.593 677.926, 244.593 677.926, 234.593 677.926, 227.556 " />
            <path fill="none" stroke-width="3.0" stroke-linecap="butt" stroke-opacity="1.0" stroke="rgb(0, 0, 0)" stroke-linejoin="round" d=" M 274.963, 369.778 274.963, 379.778 274.963, 389.778 274.963, 399.778 274.963, 409.778 274.963, 417.185 274.963, 417.185 284.963, 417.185 294.963, 417.185 304.963, 417.185 314.963, 417.185 322.370, 417.185 322.370, 417.185 322.370, 407.185 322.370, 397.185 322.370, 387.185 322.370, 377.185 322.370, 369.778 312.370, 369.778 302.370, 369.778 292.370, 369.778 282.370, 369.778 274.963, 369.778 " />
            <path fill="none" stroke-width="3.0" stroke-linecap="butt" stroke-opacity="1.0" stroke="rgb(0, 0, 0)" stroke-linejoin="round" d=" M 274.963, 417.185 284.963, 417.185 294.963, 417.185 304.963, 417.185 314.963, 417.185 322.370, 417.185 " />
            <path fill="none" stroke-width="3.0" stroke-linecap="butt" stroke-opacity="1.0" stroke="rgb(0, 0, 0)" stroke-linejoin="round" d=" M 701.630, 369.778 701.630, 369.778 701.630, 379.778 701.630, 389.778 701.630, 399.778 701.630, 409.778 701.630, 417.185 701.630, 417.185 711.630, 417.185 721.630, 417.185 731.630, 417.185 741.630, 417.185 749.037, 417.185 749.037, 417.185 749.037, 407.185 749.037, 397.185 749.037, 387.185 749.037, 377.185 749.037, 369.778 749.037, 369.778 739.037, 369.778 729.037, 369.778 719.037, 369.778 709.037, 369.778 701.630, 369.778 " />
            <path fill="none" stroke-width="3.0" stroke-linecap="butt" stroke-opacity="1.0" stroke="rgb(0, 0, 0)" stroke-linejoin="round" d=" M 701.630, 417.185 711.630, 417.185 721.630, 417.185 731.630, 417.185 741.630, 417.185 749.037, 417.185 " />
            <path fill="none" stroke-width="3.0" stroke-linecap="butt" stroke-opacity="1.0" stroke="rgb(0, 0, 0)" stroke-linejoin="round" d=" M 654.222, 606.815 654.222, 616.815 654.222, 626.815 654.222, 636.815 654.222, 646.815 654.222, 656.815 654.222, 666.815 654.222, 676.815 654.222, 686.815 654.222, 696.815 654.222, 706.815 654.222, 716.815 654.222, 726.815 654.222, 736.815 654.222, 746.815 654.222, 756.815 654.222, 766.815 654.222, 776.815 654.222, 786.815 654.222, 796.444 " />
        </g>
    </g>
    <g id="ViewLayer_TechnicalLines" inkscape:groupmode="lineset" inkscape:label="ViewLayer_TechnicalLines">
        <g inkscape:groupmode="layer" id="strokes" inkscape:label="strokes">
            <path fill="none" stroke-width="3.0" stroke-linecap="butt" stroke-opacity="1.0" stroke="rgb(0, 0, 0)" stroke-linejoin="round" d=" M 365.783, 606.815 367.973, 606.815 " />
            <path fill="none" stroke-width="3.0" stroke-linecap="butt" stroke-opacity="1.0" stroke="rgb(0, 0, 0)" stroke-linejoin="round" d=" M 369.778, 796.444 369.778, 786.444 369.778, 776.444 369.778, 766.444 369.778, 756.444 369.778, 746.444 369.778, 736.444 369.778, 726.444 369.778, 716.444 369.778, 706.444 369.778, 696.444 369.778, 686.444 369.778, 676.444 369.778, 666.444 369.778, 656.444 369.778, 646.444 369.778, 636.444 369.778, 626.444 369.778, 616.444 369.778, 606.815 369.322, 606.815 367.973, 606.815 365.783, 606.815 362.835, 606.815 359.243, 606.815 355.145, 606.815 350.698, 606.815 346.074, 606.815 341.450, 606.815 337.003, 606.815 332.905, 606.815 329.313, 606.815 326.365, 606.815 324.175, 606.815 322.826, 606.815 322.370, 606.815 322.370, 616.815 322.370, 626.815 322.370, 636.815 322.370, 646.815 322.370, 656.815 322.370, 666.815 322.370, 676.815 322.370, 686.815 322.370, 696.815 322.370, 706.815 322.370, 716.815 322.370, 726.815 322.370, 736.815 322.370, 746.815 322.370, 756.815 322.370, 766.815 322.370, 776.815 322.370, 786.815 322.370, 796.444 " />
            <path fill="none" stroke-width="3.0" stroke-linecap="butt" stroke-opacity="1.0" stroke="rgb(0, 0, 0)" stroke-linejoin="round" d=" M 322.370, 796.444 322.826, 796.444 324.175, 796.444 326.365, 796.444 329.313, 796.444 332.905, 796.444 337.003, 796.444 341.450, 796.444 346.074, 796.444 350.698, 796.444 355.145, 796.444 359.243, 796.444 362.835, 796.444 365.783, 796.444 367.973, 796.444 369.322, 796.444 369.778, 796.444 " />
            <path fill="none" stroke-width="3.0" stroke-linecap="butt" stroke-opacity="1.0" stroke="rgb(0, 0, 0)" stroke-linejoin="round" d=" M 324.175, 606.815 326.365, 606.815 " />
            <path fill="none" stroke-width="3.0" stroke-linecap="butt" stroke-opacity="1.0" stroke="rgb(0, 0, 0)" stroke-linejoin="round" d=" M 697.635, 606.815 699.825, 606.815 " />
            <path fill="none" stroke-width="3.0" stroke-linecap="butt" stroke-opacity="1.0" stroke="rgb(0, 0, 0)" stroke-linejoin="round" d=" M 654.222, 796.444 654.678, 796.444 656.027, 796.444 658.217, 796.444 661.165, 796.444 664.757, 796.444 668.855, 796.444 673.302, 796.444 677.926, 796.444 682.550, 796.444 686.997, 796.444 691.095, 796.444 694.687, 796.444 697.635, 796.444 699.825, 796.444 701.174, 796.444 701.630, 796.444 701.630, 786.444 701.630, 776.444 701.630, 766.444 701.630, 756.444 701.630, 746.444 701.630, 736.444 701.630, 726.444 701.630, 716.444 701.630, 706.444 701.630, 696.444 701.630, 686.444 701.630, 676.444 701.630, 666.444 701.630, 656.444 701.630, 646.444 701.630, 636.444 701.630, 626.444 701.630, 616.444 701.630, 606.815 " />
            <path fill="none" stroke-width="3.0" stroke-linecap="butt" stroke-opacity="1.0" stroke="rgb(0, 0, 0)" stroke-linejoin="round" d=" M 701.630, 606.815 701.630, 606.815 701.174, 606.815 699.825, 606.815 697.635, 606.815 694.687, 606.815 691.095, 606.815 686.997, 606.815 682.550, 606.815 677.926, 606.815 673.302, 606.815 668.855, 606.815 664.757, 606.815 661.165, 606.815 658.217, 606.815 656.027, 606.815 654.678, 606.815 654.222, 606.815 654.222, 606.815 " />
            <path fill="none" stroke-width="3.0" stroke-linecap="butt" stroke-opacity="1.0" stroke="rgb(0, 0, 0)" stroke-linejoin="round" d=" M 656.027, 606.815 658.217, 606.815 " />
            <path fill="none" stroke-width="3.0" stroke-linecap="butt" stroke-opacity="1.0" stroke="rgb(0, 0, 0)" stroke-linejoin="round" d=" M 322.370, 796.444 322.370, 796.445 322.826, 796.445 324.175, 796.445 326.365, 796.445 329.313, 796.445 332.905, 796.445 337.003, 796.445 341.450, 796.445 346.074, 796.445 350.698, 796.445 355.145, 796.445 359.243, 796.445 362.835, 796.445 365.783, 796.445 367.973, 796.445 369.322, 796.445 369.778, 796.445 369.778, 796.444 " />
            <path fill="none" stroke-width="3.0" stroke-linecap="butt" stroke-opacity="1.0" stroke="rgb(0, 0, 0)" stroke-linejoin="round" d=" M 654.222, 796.444 654.222, 796.445 654.678, 796.445 656.027, 796.445 658.217, 796.445 661.165, 796.445 664.757, 796.445 668.855, 796.445 673.302, 796.445 677.926, 796.445 682.550, 796.445 686.997, 796.445 691.095, 796.445 694.687, 796.445 697.635, 796.445 699.825, 796.445 701.174, 796.445 701.630, 796.445 " />
            <path fill="none" stroke-width="3.0" stroke-linecap="butt" stroke-opacity="1.0" stroke="rgb(0, 0, 0)" stroke-linejoin="round" d=" M 346.074, 488.296 346.074, 488.296 346.074, 498.296 346.074, 508.296 346.074, 518.296 346.074, 528.296 346.074, 535.704 346.074, 535.704 356.074, 535.704 366.074, 535.704 376.074, 535.704 386.074, 535.704 396.074, 535.704 406.074, 535.704 416.074, 535.704 426.074, 535.704 436.074, 535.704 446.074, 535.704 456.074, 535.704 466.074, 535.704 476.074, 535.704 486.074, 535.704 496.074, 535.704 506.074, 535.704 516.074, 535.704 526.074, 535.704 536.074, 535.704 546.074, 535.704 556.074, 535.704 566.074, 535.704 576.074, 535.704 586.074, 535.704 596.074, 535.704 606.074, 535.704 616.074, 535.704 626.074, 535.704 636.074, 535.704 646.074, 535.704 656.074, 535.704 666.074, 535.704 677.926, 535.704 677.926, 535.704 677.926, 525.704 677.926, 515.704 677.926, 505.704 677.926, 495.704 677.926, 488.296 677.926, 488.296 667.926, 488.296 657.926, 488.296 647.926, 488.296 637.926, 488.296 627.926, 488.296 617.926, 488.296 607.926, 488.296 597.926, 488.296 587.926, 488.296 577.926, 488.296 567.926, 488.296 557.926, 488.296 547.926, 488.296 537.926, 488.296 527.926, 488.296 517.926, 488.296 507.926, 488.296 497.926, 488.296 487.926, 488.296 477.926, 488.296 467.926, 488.296 457.926, 488.296 447.926, 488.296 437.926, 488.296 427.926, 488.296 417.926, 488.296 407.926, 488.296 397.926, 488.296 387.926, 488.296 377.926, 488.296 367.926, 488.296 357.926, 488.296 346.074, 488.296 " />
            <path fill="none" stroke-width="3.0" stroke-linecap="butt" stroke-opacity="1.0" stroke="rgb(0, 0, 0)" stroke-linejoin="round" d=" M 346.074, 535.704 356.074, 535.704 366.074, 535.704 376.074, 535.704 386.074, 535.704 396.074, 535.704 406.074, 535.704 416.074, 535.704 426.074, 535.704 436.074, 535.704 446.074, 535.704 456.074, 535.704 466.074, 535.704 476.074, 535.704 486.074, 535.704 496.074, 535.704 506.074, 535.704 516.074, 535.704 526.074, 535.704 536.074, 535.704 546.074, 535.704 556.074, 535.704 566.074, 535.704 576.074, 535.704 586.074, 535.704 596.074, 535.704 606.074, 535.704 616.074, 535.704 626.074, 535.704 636.074, 535.704 646.074, 535.704 656.074, 535.704 666.074, 535.704 677.926, 535.704 " />
            <path fill="none" stroke-width="3.0" stroke-linecap="butt" stroke-opacity="1.0" stroke="rgb(0, 0, 0)" stroke-linejoin="round" d=" M 677.926, 227.556 667.926, 227.556 657.926, 227.556 647.926, 227.556 637.926, 227.556 627.926, 227.556 617.926, 227.556 607.926, 227.556 597.926, 227.556 587.926, 227.556 577.926, 227.556 567.926, 227.556 557.926, 227.556 547.926, 227.556 537.926, 227.556 527.926, 227.556 517.926, 227.556 507.926, 227.556 497.926, 227.556 487.926, 227.556 477.926, 227.556 467.926, 227.556 457.926, 227.556 447.926, 227.556 437.926, 227.556 427.926, 227.556 417.926, 227.556 407.926, 227.556 397.926, 227.556 387.926, 227.556 377.926, 227.556 367.926, 227.556 357.926, 227.556 346.074, 227.556 346.074, 237.556 346.074, 247.556 346.074, 257.556 346.074, 267.556 346.074, 277.556 346.074, 287.556 346.074, 297.556 346.074, 307.556 346.074, 317.556 346.074, 327.556 346.074, 337.556 346.074, 347.556 346.074, 357.556 346.074, 367.556 346.074, 377.556 346.074, 387.556 346.074, 397.556 346.074, 407.556 346.074, 417.556 346.074, 427.556 346.074, 437.556 346.074, 447.556 346.074, 457.556 346.074, 464.593 356.074, 464.593 366.074, 464.593 376.074, 464.593 386.074, 464.593 396.074, 464.593 406.074, 464.593 416.074, 464.593 426.074, 464.593 436.074, 464.593 446.074, 464.593 456.074, 464.593 466.074, 464.593 476.074, 464.593 486.074, 464.593 496.074, 464.593 506.074, 464.593 516.074, 464.593 526.074, 464.593 536.074, 464.593 546.074, 464.593 556.074, 464.593 566.074, 464.593 576.074, 464.593 586.074, 464.593 596.074, 464.593 606.074, 464.593 616.074, 464.593 626.074, 464.593 636.074, 464.593 646.074, 464.593 656.074, 464.593 666.074, 464.593 677.926, 464.593 " />
            <path fill="none" stroke-width="3.0" stroke-linecap="butt" stroke-opacity="1.0" stroke="rgb(0, 0, 0)" stroke-linejoin="round" d=" M 677.926, 464.593 677.926, 454.593 677.926, 444.593 677.926, 434.593 677.926, 424.593 677.926, 414.593 677.926, 404.593 677.926, 394.593 677.926, 384.593 677.926, 374.593 677.926, 364.593 677.926, 354.593 677.926, 344.593 677.926, 334.593 677.926, 324.593 677.926, 314.593 677.926, 304.593 677.926, 294.593 677.926, 284.593 677.926, 274.593 677.926, 264.593 677.926, 254.593 677.926, 244.593 677.926, 234.593 677.926, 227.556 " />
            <path fill="none" stroke-width="3.0" stroke-linecap="butt" stroke-opacity="1.0" stroke="rgb(0, 0, 0)" stroke-linejoin="round" d=" M 274.963, 369.778 274.963, 379.778 274.963, 389.778 274.963, 399.778 274.963, 409.778 274.963, 417.185 274.963, 417.185 284.963, 417.185 294.963, 417.185 304.963, 417.185 314.963, 417.185 322.370, 417.185 322.370, 417.185 322.370, 407.185 322.370, 397.185 322.370, 387.185 322.370, 377.185 322.370, 369.778 312.370, 369.778 302.370, 369.778 292.370, 369.778 282.370, 369.778 274.963, 369.778 " />
            <path fill="none" stroke-width="3.0" stroke-linecap="butt" stroke-opacity="1.0" stroke="rgb(0, 0, 0)" stroke-linejoin="round" d=" M 274.963, 417.185 284.963, 417.185 294.963, 417.185 304.963, 417.185 314.963, 417.185 322.370, 417.185 " />
            <path fill="none" stroke-width="3.0" stroke-linecap="butt" stroke-opacity="1.0" stroke="rgb(0, 0, 0)" stroke-linejoin="round" d=" M 701.630, 369.778 701.630, 369.778 701.630, 379.778 701.630, 389.778 701.630, 399.778 701.630, 409.778 701.630, 417.185 701.630, 417.185 711.630, 417.185 721.630, 417.185 731.630, 417.185 741.630, 417.185 749.037, 417.185 749.037, 417.185 749.037, 407.185 749.037, 397.185 749.037, 387.185 749.037, 377.185 749.037, 369.778 749.037, 369.778 739.037, 369.778 729.037, 369.778 719.037, 369.778 709.037, 369.778 701.630, 369.778 " />
            <path fill="none" stroke-width="3.0" stroke-linecap="butt" stroke-opacity="1.0" stroke="rgb(0, 0, 0)" stroke-linejoin="round" d=" M 701.630, 417.185 711.630, 417.185 721.630, 417.185 731.630, 417.185 741.630, 417.185 749.037, 417.185 " />
            <path fill="none" stroke-width="3.0" stroke-linecap="butt" stroke-opacity="1.0" stroke="rgb(0, 0, 0)" stroke-linejoin="round" d=" M 654.222, 606.815 654.222, 616.815 654.222, 626.815 654.222, 636.815 654.222, 646.815 654.222, 656.815 654.222, 666.815 654.222, 676.815 654.222, 686.815 654.222, 696.815 654.222, 706.815 654.222, 716.815 654.222, 726.815 654.222, 736.815 654.222, 746.815 654.222, 756.815 654.222, 766.815 654.222, 776.815 654.222, 786.815 654.222, 796.444 " />
        </g>
    </g>
    <g id="ViewLayer_TechnicalLines.001" inkscape:groupmode="lineset" inkscape:label="ViewLayer_TechnicalLines.001">
        <g inkscape:groupmode="layer" id="strokes" inkscape:label="strokes">
            <path fill="none" stroke-width="1.5" stroke-linecap="round" stroke-opacity="1.0" stroke="rgb(0, 0, 0)" stroke-linejoin="round" d=" M 365.783, 606.815 367.973, 606.815 " />
            <path fill="none" stroke-width="1.5" stroke-linecap="round" stroke-opacity="1.0" stroke="rgb(0, 0, 0)" stroke-linejoin="round" d=" M 369.778, 796.444 369.778, 786.444 369.778, 776.444 369.778, 766.444 369.778, 756.444 369.778, 746.444 369.778, 736.444 369.778, 726.444 369.778, 716.444 369.778, 706.444 369.778, 696.444 369.778, 686.444 369.778, 676.444 369.778, 666.444 369.778, 656.444 369.778, 646.444 369.778, 636.444 369.778, 626.444 369.778, 616.444 369.778, 606.815 369.322, 606.815 367.973, 606.815 365.783, 606.815 362.835, 606.815 359.243, 606.815 355.145, 606.815 350.698, 606.815 346.074, 606.815 341.450, 606.815 337.003, 606.815 332.905, 606.815 329.313, 606.815 326.365, 606.815 324.175, 606.815 322.826, 606.815 322.370, 606.815 322.370, 616.815 322.370, 626.815 322.370, 636.815 322.370, 646.815 322.370, 656.815 322.370, 666.815 322.370, 676.815 322.370, 686.815 322.370, 696.815 322.370, 706.815 322.370, 716.815 322.370, 726.815 322.370, 736.815 322.370, 746.815 322.370, 756.815 322.370, 766.815 322.370, 776.815 322.370, 786.815 322.370, 796.444 " />
            <path fill="none" stroke-width="1.5" stroke-linecap="round" stroke-opacity="1.0" stroke="rgb(0, 0, 0)" stroke-linejoin="round" d=" M 322.370, 796.444 322.826, 796.444 324.175, 796.444 326.365, 796.444 329.313, 796.444 332.905, 796.444 337.003, 796.444 341.450, 796.444 346.074, 796.444 350.698, 796.444 355.145, 796.444 359.243, 796.444 362.835, 796.444 365.783, 796.444 367.973, 796.444 369.322, 796.444 369.778, 796.444 " />
            <path fill="none" stroke-width="1.5" stroke-linecap="round" stroke-opacity="1.0" stroke="rgb(0, 0, 0)" stroke-linejoin="round" d=" M 324.175, 606.815 326.365, 606.815 " />
            <path fill="none" stroke-width="1.5" stroke-linecap="round" stroke-opacity="1.0" stroke="rgb(0, 0, 0)" stroke-linejoin="round" d=" M 697.635, 606.815 699.825, 606.815 " />
            <path fill="none" stroke-width="1.5" stroke-linecap="round" stroke-opacity="1.0" stroke="rgb(0, 0, 0)" stroke-linejoin="round" d=" M 654.222, 796.444 654.678, 796.444 656.027, 796.444 658.217, 796.444 661.165, 796.444 664.757, 796.444 668.855, 796.444 673.302, 796.444 677.926, 796.444 682.550, 796.444 686.997, 796.444 691.095, 796.444 694.687, 796.444 697.635, 796.444 699.825, 796.444 701.174, 796.444 701.630, 796.444 701.630, 786.444 701.630, 776.444 701.630, 766.444 701.630, 756.444 701.630, 746.444 701.630, 736.444 701.630, 726.444 701.630, 716.444 701.630, 706.444 701.630, 696.444 701.630, 686.444 701.630, 676.444 701.630, 666.444 701.630, 656.444 701.630, 646.444 701.630, 636.444 701.630, 626.444 701.630, 616.444 701.630, 606.815 " />
            <path fill="none" stroke-width="1.5" stroke-linecap="round" stroke-opacity="1.0" stroke="rgb(0, 0, 0)" stroke-linejoin="round" d=" M 701.630, 606.815 701.630, 606.815 701.174, 606.815 699.825, 606.815 697.635, 606.815 694.687, 606.815 691.095, 606.815 686.997, 606.815 682.550, 606.815 677.926, 606.815 673.302, 606.815 668.855, 606.815 664.757, 606.815 661.165, 606.815 658.217, 606.815 656.027, 606.815 654.678, 606.815 654.222, 606.815 654.222, 606.815 " />
            <path fill="none" stroke-width="1.5" stroke-linecap="round" stroke-opacity="1.0" stroke="rgb(0, 0, 0)" stroke-linejoin="round" d=" M 656.027, 606.815 658.217, 606.815 " />
            <path fill="none" stroke-width="1.5" stroke-linecap="round" stroke-opacity="1.0" stroke="rgb(0, 0, 0)" stroke-linejoin="round" d=" M 322.370, 796.444 322.370, 796.445 322.826, 796.445 324.175, 796.445 326.365, 796.445 329.313, 796.445 332.905, 796.445 337.003, 796.445 341.450, 796.445 346.074, 796.445 350.698, 796.445 355.145, 796.445 359.243, 796.445 362.835, 796.445 365.783, 796.445 367.973, 796.445 369.322, 796.445 369.778, 796.445 369.778, 796.444 " />
            <path fill="none" stroke-width="1.5" stroke-linecap="round" stroke-opacity="1.0" stroke="rgb(0, 0, 0)" stroke-linejoin="round" d=" M 654.222, 796.444 654.222, 796.445 654.678, 796.445 656.027, 796.445 658.217, 796.445 661.165, 796.445 664.757, 796.445 668.855, 796.445 673.302, 796.445 677.926, 796.445 682.550, 796.445 686.997, 796.445 691.095, 796.445 694.687, 796.445 697.635, 796.445 699.825, 796.445 701.174, 796.445 701.630, 796.445 " />
            <path fill="none" stroke-width="1.5" stroke-linecap="round" stroke-opacity="1.0" stroke="rgb(0, 0, 0)" stroke-linejoin="round" d=" M 346.074, 488.296 346.074, 488.296 346.074, 498.296 346.074, 508.296 346.074, 518.296 346.074, 528.296 346.074, 535.704 346.074, 535.704 356.074, 535.704 366.074, 535.704 376.074, 535.704 386.074, 535.704 396.074, 535.704 406.074, 535.704 416.074, 535.704 426.074, 535.704 436.074, 535.704 446.074, 535.704 456.074, 535.704 466.074, 535.704 476.074, 535.704 486.074, 535.704 496.074, 535.704 506.074, 535.704 516.074, 535.704 526.074, 535.704 536.074, 535.704 546.074, 535.704 556.074, 535.704 566.074, 535.704 576.074, 535.704 586.074, 535.704 596.074, 535.704 606.074, 535.704 616.074, 535.704 626.074, 535.704 636.074, 535.704 646.074, 535.704 656.074, 535.704 666.074, 535.704 677.926, 535.704 677.926, 535.704 677.926, 525.704 677.926, 515.704 677.926, 505.704 677.926, 495.704 677.926, 488.296 677.926, 488.296 667.926, 488.296 657.926, 488.296 647.926, 488.296 637.926, 488.296 627.926, 488.296 617.926, 488.296 607.926, 488.296 597.926, 488.296 587.926, 488.296 577.926, 488.296 567.926, 488.296 557.926, 488.296 547.926, 488.296 537.926, 488.296 527.926, 488.296 517.926, 488.296 507.926, 488.296 497.926, 488.296 487.926, 488.296 477.926, 488.296 467.926, 488.296 457.926, 488.296 447.926, 488.296 437.926, 488.296 427.926, 488.296 417.926, 488.296 407.926, 488.296 397.926, 488.296 387.926, 488.296 377.926, 488.296 367.926, 488.296 357.926, 488.296 346.074, 488.296 " />
            <path fill="none" stroke-width="1.5" stroke-linecap="round" stroke-opacity="1.0" stroke="rgb(0, 0, 0)" stroke-linejoin="round" d=" M 346.074, 535.704 356.074, 535.704 366.074, 535.704 376.074, 535.704 386.074, 535.704 396.074, 535.704 406.074, 535.704 416.074, 535.704 426.074, 535.704 436.074, 535.704 446.074, 535.704 456.074, 535.704 466.074, 535.704 476.074, 535.704 486.074, 535.704 496.074, 535.704 506.074, 535.704 516.074, 535.704 526.074, 535.704 536.074, 535.704 546.074, 535.704 556.074, 535.704 566.074, 535.704 576.074, 535.704 586.074, 535.704 596.074, 535.704 606.074, 535.704 616.074, 535.704 626.074, 535.704 636.074, 535.704 646.074, 535.704 656.074, 535.704 666.074, 535.704 677.926, 535.704 " />
            <path fill="none" stroke-width="1.5" stroke-linecap="round" stroke-opacity="1.0" stroke="rgb(0, 0, 0)" stroke-linejoin="round" d=" M 677.926, 227.556 667.926, 227.556 657.926, 227.556 647.926, 227.556 637.926, 227.556 627.926, 227.556 617.926, 227.556 607.926, 227.556 597.926, 227.556 587.926, 227.556 577.926, 227.556 567.926, 227.556 557.926, 227.556 547.926, 227.556 537.926, 227.556 527.926, 227.556 517.926, 227.556 507.926, 227.556 497.926, 227.556 487.926, 227.556 477.926, 227.556 467.926, 227.556 457.926, 227.556 447.926, 227.556 437.926, 227.556 427.926, 227.556 417.926, 227.556 407.926, 227.556 397.926, 227.556 387.926, 227.556 377.926, 227.556 367.926, 227.556 357.926, 227.556 346.074, 227.556 346.074, 237.556 346.074, 247.556 346.074, 257.556 346.074, 267.556 346.074, 277.556 346.074, 287.556 346.074, 297.556 346.074, 307.556 346.074, 317.556 346.074, 327.556 346.074, 337.556 346.074, 347.556 346.074, 357.556 346.074, 367.556 346.074, 377.556 346.074, 387.556 346.074, 397.556 346.074, 407.556 346.074, 417.556 346.074, 427.556 346.074, 437.556 346.074, 447.556 346.074, 457.556 346.074, 464.593 356.074, 464.593 366.074, 464.593 376.074, 464.593 386.074, 464.593 396.074, 464.593 406.074, 464.593 416.074, 464.593 426.074, 464.593 436.074, 464.593 446.074, 464.593 456.074, 464.593 466.074, 464.593 476.074, 464.593 486.074, 464.593 496.074, 464.593 506.074, 464.593 516.074, 464.593 526.074, 464.593 536.074, 464.593 546.074, 464.593 556.074, 464.593 566.074, 464.593 576.074, 464.593 586.074, 464.593 596.074, 464.593 606.074, 464.593 616.074, 464.593 626.074, 464.593 636.074, 464.593 646.074, 464.593 656.074, 464.593 666.074, 464.593 677.926, 464.593 " />
            <path fill="none" stroke-width="1.5" stroke-linecap="round" stroke-opacity="1.0" stroke="rgb(0, 0, 0)" stroke-linejoin="round" d=" M 677.926, 464.593 677.926, 454.593 677.926, 444.593 677.926, 434.593 677.926, 424.593 677.926, 414.593 677.926, 404.593 677.926, 394.593 677.926, 384.593 677.926, 374.593 677.926, 364.593 677.926, 354.593 677.926, 344.593 677.926, 334.593 677.926, 324.593 677.926, 314.593 677.926, 304.593 677.926, 294.593 677.926, 284.593 677.926, 274.593 677.926, 264.593 677.926, 254.593 677.926, 244.593 677.926, 234.593 677.926, 227.556 " />
            <path fill="none" stroke-width="1.5" stroke-linecap="round" stroke-opacity="1.0" stroke="rgb(0, 0, 0)" stroke-linejoin="round" d=" M 274.963, 369.778 274.963, 379.778 274.963, 389.778 274.963, 399.778 274.963, 409.778 274.963, 417.185 274.963, 417.185 284.963, 417.185 294.963, 417.185 304.963, 417.185 314.963, 417.185 322.370, 417.185 322.370, 417.185 322.370, 407.185 322.370, 397.185 322.370, 387.185 322.370, 377.185 322.370, 369.778 312.370, 369.778 302.370, 369.778 292.370, 369.778 282.370, 369.778 274.963, 369.778 " />
            <path fill="none" stroke-width="1.5" stroke-linecap="round" stroke-opacity="1.0" stroke="rgb(0, 0, 0)" stroke-linejoin="round" d=" M 274.963, 417.185 284.963, 417.185 294.963, 417.185 304.963, 417.185 314.963, 417.185 322.370, 417.185 " />
            <path fill="none" stroke-width="1.5" stroke-linecap="round" stroke-opacity="1.0" stroke="rgb(0, 0, 0)" stroke-linejoin="round" d=" M 701.630, 369.778 701.630, 369.778 701.630, 379.778 701.630, 389.778 701.630, 399.778 701.630, 409.778 701.630, 417.185 701.630, 417.185 711.630, 417.185 721.630, 417.185 731.630, 417.185 741.630, 417.185 749.037, 417.185 749.037, 417.185 749.037, 407.185 749.037, 397.185 749.037, 387.185 749.037, 377.185 749.037, 369.778 749.037, 369.778 739.037, 369.778 729.037, 369.778 719.037, 369.778 709.037, 369.778 701.630, 369.778 " />
            <path fill="none" stroke-width="1.5" stroke-linecap="round" stroke-opacity="1.0" stroke="rgb(0, 0, 0)" stroke-linejoin="round" d=" M 701.630, 417.185 711.630, 417.185 721.630, 417.185 731.630, 417.185 741.630, 417.185 749.037, 417.185 " />
            <path fill="none" stroke-width="1.5" stroke-linecap="round" stroke-opacity="1.0" stroke="rgb(0, 0, 0)" stroke-linejoin="round" d=" M 654.222, 606.815 654.222, 616.815 654.222, 626.815 654.222, 636.815 654.222, 646.815 654.222, 656.815 654.222, 666.815 654.222, 676.815 654.222, 686.815 654.222, 696.815 654.222, 706.815 654.222, 716.815 654.222, 726.815 654.222, 736.815 654.222, 746.815 654.222, 756.815 654.222, 766.815 654.222, 776.815 654.222, 786.815 654.222, 796.444 " />
        </g>
    </g>
    <g id="ViewLayer_TechnicalLines.002" inkscape:groupmode="lineset" inkscape:label="ViewLayer_TechnicalLines.002">
        <g inkscape:groupmode="layer" id="strokes" inkscape:label="strokes">
            <path fill="none" stroke-width="1.5" stroke-linecap="round" stroke-opacity="1.0" stroke="rgb(0, 0, 0)" stroke-linejoin="round" d=" M 365.783, 606.815 367.973, 606.815 " />
            <path fill="none" stroke-width="1.5" stroke-linecap="round" stroke-opacity="1.0" stroke="rgb(0, 0, 0)" stroke-linejoin="round" d=" M 369.778, 796.444 369.778, 786.444 369.778, 776.444 369.778, 766.444 369.778, 756.444 369.778, 746.444 369.778, 736.444 369.778, 726.444 369.778, 716.444 369.778, 706.444 369.778, 696.444 369.778, 686.444 369.778, 676.444 369.778, 666.444 369.778, 656.444 369.778, 646.444 369.778, 636.444 369.778, 626.444 369.778, 616.444 369.778, 606.815 369.322, 606.815 367.973, 606.815 365.783, 606.815 362.835, 606.815 359.243, 606.815 355.145, 606.815 350.698, 606.815 346.074, 606.815 341.450, 606.815 337.003, 606.815 332.905, 606.815 329.313, 606.815 326.365, 606.815 324.175, 606.815 322.826, 606.815 322.370, 606.815 322.370, 616.815 322.370, 626.815 322.370, 636.815 322.370, 646.815 322.370, 656.815 322.370, 666.815 322.370, 676.815 322.370, 686.815 322.370, 696.815 322.370, 706.815 322.370, 716.815 322.370, 726.815 322.370, 736.815 322.370, 746.815 322.370, 756.815 322.370, 766.815 322.370, 776.815 322.370, 786.815 322.370, 796.444 " />
            <path fill="none" stroke-width="1.5" stroke-linecap="round" stroke-opacity="1.0" stroke="rgb(0, 0, 0)" stroke-linejoin="round" d=" M 322.370, 796.444 322.826, 796.444 324.175, 796.444 326.365, 796.444 329.313, 796.444 332.905, 796.444 337.003, 796.444 341.450, 796.444 346.074, 796.444 350.698, 796.444 355.145, 796.444 359.243, 796.444 362.835, 796.444 365.783, 796.444 367.973, 796.444 369.322, 796.444 369.778, 796.444 " />
            <path fill="none" stroke-width="1.5" stroke-linecap="round" stroke-opacity="1.0" stroke="rgb(0, 0, 0)" stroke-linejoin="round" d=" M 324.175, 606.815 326.365, 606.815 " />
            <path fill="none" stroke-width="1.5" stroke-linecap="round" stroke-opacity="1.0" stroke="rgb(0, 0, 0)" stroke-linejoin="round" d=" M 697.635, 606.815 699.825, 606.815 " />
            <path fill="none" stroke-width="1.5" stroke-linecap="round" stroke-opacity="1.0" stroke="rgb(0, 0, 0)" stroke-linejoin="round" d=" M 654.222, 796.444 654.678, 796.444 656.027, 796.444 658.217, 796.444 661.165, 796.444 664.757, 796.444 668.855, 796.444 673.302, 796.444 677.926, 796.444 682.550, 796.444 686.997, 796.444 691.095, 796.444 694.687, 796.444 697.635, 796.444 699.825, 796.444 701.174, 796.444 701.630, 796.444 701.630, 786.444 701.630, 776.444 701.630, 766.444 701.630, 756.444 701.630, 746.444 701.630, 736.444 701.630, 726.444 701.630, 716.444 701.630, 706.444 701.630, 696.444 701.630, 686.444 701.630, 676.444 701.630, 666.444 701.630, 656.444 701.630, 646.444 701.630, 636.444 701.630, 626.444 701.630, 616.444 701.630, 606.815 " />
            <path fill="none" stroke-width="1.5" stroke-linecap="round" stroke-opacity="1.0" stroke="rgb(0, 0, 0)" stroke-linejoin="round" d=" M 701.630, 606.815 701.630, 606.815 701.174, 606.815 699.825, 606.815 697.635, 606.815 694.687, 606.815 691.095, 606.815 686.997, 606.815 682.550, 606.815 677.926, 606.815 673.302, 606.815 668.855, 606.815 664.757, 606.815 661.165, 606.815 658.217, 606.815 656.027, 606.815 654.678, 606.815 654.222, 606.815 654.222, 606.815 " />
            <path fill="none" stroke-width="1.5" stroke-linecap="round" stroke-opacity="1.0" stroke="rgb(0, 0, 0)" stroke-linejoin="round" d=" M 656.027, 606.815 658.217, 606.815 " />
            <path fill="none" stroke-width="1.5" stroke-linecap="round" stroke-opacity="1.0" stroke="rgb(0, 0, 0)" stroke-linejoin="round" d=" M 322.370, 796.444 322.370, 796.445 322.826, 796.445 324.175, 796.445 326.365, 796.445 329.313, 796.445 332.905, 796.445 337.003, 796.445 341.450, 796.445 346.074, 796.445 350.698, 796.445 355.145, 796.445 359.243, 796.445 362.835, 796.445 365.783, 796.445 367.973, 796.445 369.322, 796.445 369.778, 796.445 369.778, 796.444 " />
            <path fill="none" stroke-width="1.5" stroke-linecap="round" stroke-opacity="1.0" stroke="rgb(0, 0, 0)" stroke-linejoin="round" d=" M 654.222, 796.444 654.222, 796.445 654.678, 796.445 656.027, 796.445 658.217, 796.445 661.165, 796.445 664.757, 796.445 668.855, 796.445 673.302, 796.445 677.926, 796.445 682.550, 796.445 686.997, 796.445 691.095, 796.445 694.687, 796.445 697.635, 796.445 699.825, 796.445 701.174, 796.445 701.630, 796.445 " />
            <path fill="none" stroke-width="1.5" stroke-linecap="round" stroke-opacity="1.0" stroke="rgb(0, 0, 0)" stroke-linejoin="round" d=" M 346.074, 488.296 346.074, 488.296 346.074, 498.296 346.074, 508.296 346.074, 518.296 346.074, 528.296 346.074, 535.704 346.074, 535.704 356.074, 535.704 366.074, 535.704 376.074, 535.704 386.074, 535.704 396.074, 535.704 406.074, 535.704 416.074, 535.704 426.074, 535.704 436.074, 535.704 446.074, 535.704 456.074, 535.704 466.074, 535.704 476.074, 535.704 486.074, 535.704 496.074, 535.704 506.074, 535.704 516.074, 535.704 526.074, 535.704 536.074, 535.704 546.074, 535.704 556.074, 535.704 566.074, 535.704 576.074, 535.704 586.074, 535.704 596.074, 535.704 606.074, 535.704 616.074, 535.704 626.074, 535.704 636.074, 535.704 646.074, 535.704 656.074, 535.704 666.074, 535.704 677.926, 535.704 677.926, 535.704 677.926, 525.704 677.926, 515.704 677.926, 505.704 677.926, 495.704 677.926, 488.296 677.926, 488.296 667.926, 488.296 657.926, 488.296 647.926, 488.296 637.926, 488.296 627.926, 488.296 617.926, 488.296 607.926, 488.296 597.926, 488.296 587.926, 488.296 577.926, 488.296 567.926, 488.296 557.926, 488.296 547.926, 488.296 537.926, 488.296 527.926, 488.296 517.926, 488.296 507.926, 488.296 497.926, 488.296 487.926, 488.296 477.926, 488.296 467.926, 488.296 457.926, 488.296 447.926, 488.296 437.926, 488.296 427.926, 488.296 417.926, 488.296 407.926, 488.296 397.926, 488.296 387.926, 488.296 377.926, 488.296 367.926, 488.296 357.926, 488.296 346.074, 488.296 " />
            <path fill="none" stroke-width="1.5" stroke-linecap="round" stroke-opacity="1.0" stroke="rgb(0, 0, 0)" stroke-linejoin="round" d=" M 346.074, 535.704 356.074, 535.704 366.074, 535.704 376.074, 535.704 386.074, 535.704 396.074, 535.704 406.074, 535.704 416.074, 535.704 426.074, 535.704 436.074, 535.704 446.074, 535.704 456.074, 535.704 466.074, 535.704 476.074, 535.704 486.074, 535.704 496.074, 535.704 506.074, 535.704 516.074, 535.704 526.074, 535.704 536.074, 535.704 546.074, 535.704 556.074, 535.704 566.074, 535.704 576.074, 535.704 586.074, 535.704 596.074, 535.704 606.074, 535.704 616.074, 535.704 626.074, 535.704 636.074, 535.704 646.074, 535.704 656.074, 535.704 666.074, 535.704 677.926, 535.704 " />
            <path fill="none" stroke-width="1.5" stroke-linecap="round" stroke-opacity="1.0" stroke="rgb(0, 0, 0)" stroke-linejoin="round" d=" M 677.926, 227.556 667.926, 227.556 657.926, 227.556 647.926, 227.556 637.926, 227.556 627.926, 227.556 617.926, 227.556 607.926, 227.556 597.926, 227.556 587.926, 227.556 577.926, 227.556 567.926, 227.556 557.926, 227.556 547.926, 227.556 537.926, 227.556 527.926, 227.556 517.926, 227.556 507.926, 227.556 497.926, 227.556 487.926, 227.556 477.926, 227.556 467.926, 227.556 457.926, 227.556 447.926, 227.556 437.926, 227.556 427.926, 227.556 417.926, 227.556 407.926, 227.556 397.926, 227.556 387.926, 227.556 377.926, 227.556 367.926, 227.556 357.926, 227.556 346.074, 227.556 346.074, 237.556 346.074, 247.556 346.074, 257.556 346.074, 267.556 346.074, 277.556 346.074, 287.556 346.074, 297.556 346.074, 307.556 346.074, 317.556 346.074, 327.556 346.074, 337.556 346.074, 347.556 346.074, 357.556 346.074, 367.556 346.074, 377.556 346.074, 387.556 346.074, 397.556 346.074, 407.556 346.074, 417.556 346.074, 427.556 346.074, 437.556 346.074, 447.556 346.074, 457.556 346.074, 464.593 356.074, 464.593 366.074, 464.593 376.074, 464.593 386.074, 464.593 396.074, 464.593 406.074, 464.593 416.074, 464.593 426.074, 464.593 436.074, 464.593 446.074, 464.593 456.074, 464.593 466.074, 464.593 476.074, 464.593 486.074, 464.593 496.074, 464.593 506.074, 464.593 516.074, 464.593 526.074, 464.593 536.074, 464.593 546.074, 464.593 556.074, 464.593 566.074, 464.593 576.074, 464.593 586.074, 464.593 596.074, 464.593 606.074, 464.593 616.074, 464.593 626.074, 464.593 636.074, 464.593 646.074, 464.593 656.074, 464.593 666.074, 464.593 677.926, 464.593 " />
            <path fill="none" stroke-width="1.5" stroke-linecap="round" stroke-opacity="1.0" stroke="rgb(0, 0, 0)" stroke-linejoin="round" d=" M 677.926, 464.593 677.926, 454.593 677.926, 444.593 677.926, 434.593 677.926, 424.593 677.926, 414.593 677.926, 404.593 677.926, 394.593 677.926, 384.593 677.926, 374.593 677.926, 364.593 677.926, 354.593 677.926, 344.593 677.926, 334.593 677.926, 324.593 677.926, 314.593 677.926, 304.593 677.926, 294.593 677.926, 284.593 677.926, 274.593 677.926, 264.593 677.926, 254.593 677.926, 244.593 677.926, 234.593 677.926, 227.556 " />
            <path fill="none" stroke-width="1.5" stroke-linecap="round" stroke-opacity="1.0" stroke="rgb(0, 0, 0)" stroke-linejoin="round" d=" M 274.963, 369.778 274.963, 379.778 274.963, 389.778 274.963, 399.778 274.963, 409.778 274.963, 417.185 274.963, 417.185 284.963, 417.185 294.963, 417.185 304.963, 417.185 314.963, 417.185 322.370, 417.185 322.370, 417.185 322.370, 407.185 322.370, 397.185 322.370, 387.185 322.370, 377.185 322.370, 369.778 312.370, 369.778 302.370, 369.778 292.370, 369.778 282.370, 369.778 274.963, 369.778 " />
            <path fill="none" stroke-width="1.5" stroke-linecap="round" stroke-opacity="1.0" stroke="rgb(0, 0, 0)" stroke-linejoin="round" d=" M 274.963, 417.185 284.963, 417.185 294.963, 417.185 304.963, 417.185 314.963, 417.185 322.370, 417.185 " />
            <path fill="none" stroke-width="1.5" stroke-linecap="round" stroke-opacity="1.0" stroke="rgb(0, 0, 0)" stroke-linejoin="round" d=" M 701.630, 369.778 701.630, 369.778 701.630, 379.778 701.630, 389.778 701.630, 399.778 701.630, 409.778 701.630, 417.185 701.630, 417.185 711.630, 417.185 721.630, 417.185 731.630, 417.185 741.630, 417.185 749.037, 417.185 749.037, 417.185 749.037, 407.185 749.037, 397.185 749.037, 387.185 749.037, 377.185 749.037, 369.778 749.037, 369.778 739.037, 369.778 729.037, 369.778 719.037, 369.778 709.037, 369.778 701.630, 369.778 " />
            <path fill="none" stroke-width="1.5" stroke-linecap="round" stroke-opacity="1.0" stroke="rgb(0, 0, 0)" stroke-linejoin="round" d=" M 701.630, 417.185 711.630, 417.185 721.630, 417.185 731.630, 417.185 741.630, 417.185 749.037, 417.185 " />
            <path fill="none" stroke-width="1.5" stroke-linecap="round" stroke-opacity="1.0" stroke="rgb(0, 0, 0)" stroke-linejoin="round" d=" M 654.222, 606.815 654.222, 616.815 654.222, 626.815 654.222, 636.815 654.222, 646.815 654.222, 656.815 654.222, 666.815 654.222, 676.815 654.222, 686.815 654.222, 696.815 654.222, 706.815 654.222, 716.815 654.222, 726.815 654.222, 736.815 654.222, 746.815 654.222, 756.815 654.222, 766.815 654.222, 776.815 654.222, 786.815 654.222, 796.444 " />
        </g>
    </g>
    <g id="ViewLayer_TechnicalLines.003" inkscape:groupmode="lineset" inkscape:label="ViewLayer_TechnicalLines.003">
        <g inkscape:groupmode="layer" id="strokes" inkscape:label="strokes">
            <path fill="none" stroke-width="1.5" stroke-linecap="round" stroke-opacity="1.0" stroke="rgb(0, 0, 0)" stroke-linejoin="round" d=" M 365.783, 606.815 367.973, 606.815 " />
            <path fill="none" stroke-width="1.5" stroke-linecap="round" stroke-opacity="1.0" stroke="rgb(0, 0, 0)" stroke-linejoin="round" d=" M 369.778, 796.444 369.778, 786.444 369.778, 776.444 369.778, 766.444 369.778, 756.444 369.778, 746.444 369.778, 736.444 369.778, 726.444 369.778, 716.444 369.778, 706.444 369.778, 696.444 369.778, 686.444 369.778, 676.444 369.778, 666.444 369.778, 656.444 369.778, 646.444 369.778, 636.444 369.778, 626.444 369.778, 616.444 369.778, 606.815 369.322, 606.815 367.973, 606.815 365.783, 606.815 362.835, 606.815 359.243, 606.815 355.145, 606.815 350.698, 606.815 346.074, 606.815 341.450, 606.815 337.003, 606.815 332.905, 606.815 329.313, 606.815 326.365, 606.815 324.175, 606.815 322.826, 606.815 322.370, 606.815 322.370, 616.815 322.370, 626.815 322.370, 636.815 322.370, 646.815 322.370, 656.815 322.370, 666.815 322.370, 676.815 322.370, 686.815 322.370, 696.815 322.370, 706.815 322.370, 716.815 322.370, 726.815 322.370, 736.815 322.370, 746.815 322.370, 756.815 322.370, 766.815 322.370, 776.815 322.370, 786.815 322.370, 796.444 " />
            <path fill="none" stroke-width="1.5" stroke-linecap="round" stroke-opacity="1.0" stroke="rgb(0, 0, 0)" stroke-linejoin="round" d=" M 322.370, 796.444 322.826, 796.444 324.175, 796.444 326.365, 796.444 329.313, 796.444 332.905, 796.444 337.003, 796.444 341.450, 796.444 346.074, 796.444 350.698, 796.444 355.145, 796.444 359.243, 796.444 362.835, 796.444 365.783, 796.444 367.973, 796.444 369.322, 796.444 369.778, 796.444 " />
            <path fill="none" stroke-width="1.5" stroke-linecap="round" stroke-opacity="1.0" stroke="rgb(0, 0, 0)" stroke-linejoin="round" d=" M 324.175, 606.815 326.365, 606.815 " />
            <path fill="none" stroke-width="1.5" stroke-linecap="round" stroke-opacity="1.0" stroke="rgb(0, 0, 0)" stroke-linejoin="round" d=" M 697.635, 606.815 699.825, 606.815 " />
            <path fill="none" stroke-width="1.5" stroke-linecap="round" stroke-opacity="1.0" stroke="rgb(0, 0, 0)" stroke-linejoin="round" d=" M 654.222, 796.444 654.678, 796.444 656.027, 796.444 658.217, 796.444 661.165, 796.444 664.757, 796.444 668.855, 796.444 673.302, 796.444 677.926, 796.444 682.550, 796.444 686.997, 796.444 691.095, 796.444 694.687, 796.444 697.635, 796.444 699.825, 796.444 701.174, 796.444 701.630, 796.444 701.630, 786.444 701.630, 776.444 701.630, 766.444 701.630, 756.444 701.630, 746.444 701.630, 736.444 701.630, 726.444 701.630, 716.444 701.630, 706.444 701.630, 696.444 701.630, 686.444 701.630, 676.444 701.630, 666.444 701.630, 656.444 701.630, 646.444 701.630, 636.444 701.630, 626.444 701.630, 616.444 701.630, 606.815 " />
            <path fill="none" stroke-width="1.5" stroke-linecap="round" stroke-opacity="1.0" stroke="rgb(0, 0, 0)" stroke-linejoin="round" d=" M 701.630, 606.815 701.630, 606.815 701.174, 606.815 699.825, 606.815 697.635, 606.815 694.687, 606.815 691.095, 606.815 686.997, 606.815 682.550, 606.815 677.926, 606.815 673.302, 606.815 668.855, 606.815 664.757, 606.815 661.165, 606.815 658.217, 606.815 656.027, 606.815 654.678, 606.815 654.222, 606.815 654.222, 606.815 " />
            <path fill="none" stroke-width="1.5" stroke-linecap="round" stroke-opacity="1.0" stroke="rgb(0, 0, 0)" stroke-linejoin="round" d=" M 656.027, 606.815 658.217, 606.815 " />
            <path fill="none" stroke-width="1.5" stroke-linecap="round" stroke-opacity="1.0" stroke="rgb(0, 0, 0)" stroke-linejoin="round" d=" M 322.370, 796.444 322.370, 796.445 322.826, 796.445 324.175, 796.445 326.365, 796.445 329.313, 796.445 332.905, 796.445 337.003, 796.445 341.450, 796.445 346.074, 796.445 350.698, 796.445 355.145, 796.445 359.243, 796.445 362.835, 796.445 365.783, 796.445 367.973, 796.445 369.322, 796.445 369.778, 796.445 369.778, 796.444 " />
            <path fill="none" stroke-width="1.5" stroke-linecap="round" stroke-opacity="1.0" stroke="rgb(0, 0, 0)" stroke-linejoin="round" d=" M 654.222, 796.444 654.222, 796.445 654.678, 796.445 656.027, 796.445 658.217, 796.445 661.165, 796.445 664.757, 796.445 668.855, 796.445 673.302, 796.445 677.926, 796.445 682.550, 796.445 686.997, 796.445 691.095, 796.445 694.687, 796.445 697.635, 796.445 699.825, 796.445 701.174, 796.445 701.630, 796.445 " />
            <path fill="none" stroke-width="1.5" stroke-linecap="round" stroke-opacity="1.0" stroke="rgb(0, 0, 0)" stroke-linejoin="round" d=" M 346.074, 488.296 346.074, 488.296 346.074, 498.296 346.074, 508.296 346.074, 518.296 346.074, 528.296 346.074, 535.704 346.074, 535.704 356.074, 535.704 366.074, 535.704 376.074, 535.704 386.074, 535.704 396.074, 535.704 406.074, 535.704 416.074, 535.704 426.074, 535.704 436.074, 535.704 446.074, 535.704 456.074, 535.704 466.074, 535.704 476.074, 535.704 486.074, 535.704 496.074, 535.704 506.074, 535.704 516.074, 535.704 526.074, 535.704 536.074, 535.704 546.074, 535.704 556.074, 535.704 566.074, 535.704 576.074, 535.704 586.074, 535.704 596.074, 535.704 606.074, 535.704 616.074, 535.704 626.074, 535.704 636.074, 535.704 646.074, 535.704 656.074, 535.704 666.074, 535.704 677.926, 535.704 677.926, 535.704 677.926, 525.704 677.926, 515.704 677.926, 505.704 677.926, 495.704 677.926, 488.296 677.926, 488.296 667.926, 488.296 657.926, 488.296 647.926, 488.296 637.926, 488.296 627.926, 488.296 617.926, 488.296 607.926, 488.296 597.926, 488.296 587.926, 488.296 577.926, 488.296 567.926, 488.296 557.926, 488.296 547.926, 488.296 537.926, 488.296 527.926, 488.296 517.926, 488.296 507.926, 488.296 497.926, 488.296 487.926, 488.296 477.926, 488.296 467.926, 488.296 457.926, 488.296 447.926, 488.296 437.926, 488.296 427.926, 488.296 417.926, 488.296 407.926, 488.296 397.926, 488.296 387.926, 488.296 377.926, 488.296 367.926, 488.296 357.926, 488.296 346.074, 488.296 " />
            <path fill="none" stroke-width="1.5" stroke-linecap="round" stroke-opacity="1.0" stroke="rgb(0, 0, 0)" stroke-linejoin="round" d=" M 346.074, 535.704 356.074, 535.704 366.074, 535.704 376.074, 535.704 386.074, 535.704 396.074, 535.704 406.074, 535.704 416.074, 535.704 426.074, 535.704 436.074, 535.704 446.074, 535.704 456.074, 535.704 466.074, 535.704 476.074, 535.704 486.074, 535.704 496.074, 535.704 506.074, 535.704 516.074, 535.704 526.074, 535.704 536.074, 535.704 546.074, 535.704 556.074, 535.704 566.074, 535.704 576.074, 535.704 586.074, 535.704 596.074, 535.704 606.074, 535.704 616.074, 535.704 626.074, 535.704 636.074, 535.704 646.074, 535.704 656.074, 535.704 666.074, 535.704 677.926, 535.704 " />
            <path fill="none" stroke-width="1.5" stroke-linecap="round" stroke-opacity="1.0" stroke="rgb(0, 0, 0)" stroke-linejoin="round" d=" M 677.926, 227.556 667.926, 227.556 657.926, 227.556 647.926, 227.556 637.926, 227.556 627.926, 227.556 617.926, 227.556 607.926, 227.556 597.926, 227.556 587.926, 227.556 577.926, 227.556 567.926, 227.556 557.926, 227.556 547.926, 227.556 537.926, 227.556 527.926, 227.556 517.926, 227.556 507.926, 227.556 497.926, 227.556 487.926, 227.556 477.926, 227.556 467.926, 227.556 457.926, 227.556 447.926, 227.556 437.926, 227.556 427.926, 227.556 417.926, 227.556 407.926, 227.556 397.926, 227.556 387.926, 227.556 377.926, 227.556 367.926, 227.556 357.926, 227.556 346.074, 227.556 346.074, 237.556 346.074, 247.556 346.074, 257.556 346.074, 267.556 346.074, 277.556 346.074, 287.556 346.074, 297.556 346.074, 307.556 346.074, 317.556 346.074, 327.556 346.074, 337.556 346.074, 347.556 346.074, 357.556 346.074, 367.556 346.074, 377.556 346.074, 387.556 346.074, 397.556 346.074, 407.556 346.074, 417.556 346.074, 427.556 346.074, 437.556 346.074, 447.556 346.074, 457.556 346.074, 464.593 356.074, 464.593 366.074, 464.593 376.074, 464.593 386.074, 464.593 396.074, 464.593 406.074, 464.593 416.074, 464.593 426.074, 464.593 436.074, 464.593 446.074, 464.593 456.074, 464.593 466.074, 464.593 476.074, 464.593 486.074, 464.593 496.074, 464.593 506.074, 464.593 516.074, 464.593 526.074, 464.593 536.074, 464.593 546.074, 464.593 556.074, 464.593 566.074, 464.593 576.074, 464.593 586.074, 464.593 596.074, 464.593 606.074, 464.593 616.074, 464.593 626.074, 464.593 636.074, 464.593 646.074, 464.593 656.074, 464.593 666.074, 464.593 677.926, 464.593 " />
            <path fill="none" stroke-width="1.5" stroke-linecap="round" stroke-opacity="1.0" stroke="rgb(0, 0, 0)" stroke-linejoin="round" d=" M 677.926, 464.593 677.926, 454.593 677.926, 444.593 677.926, 434.593 677.926, 424.593 677.926, 414.593 677.926, 404.593 677.926, 394.593 677.926, 384.593 677.926, 374.593 677.926, 364.593 677.926, 354.593 677.926, 344.593 677.926, 334.593 677.926, 324.593 677.926, 314.593 677.926, 304.593 677.926, 294.593 677.926, 284.593 677.926, 274.593 677.926, 264.593 677.926, 254.593 677.926, 244.593 677.926, 234.593 677.926, 227.556 " />
            <path fill="none" stroke-width="1.5" stroke-linecap="round" stroke-opacity="1.0" stroke="rgb(0, 0, 0)" stroke-linejoin="round" d=" M 274.963, 369.778 274.963, 379.778 274.963, 389.778 274.963, 399.778 274.963, 409.778 274.963, 417.185 274.963, 417.185 284.963, 417.185 294.963, 417.185 304.963, 417.185 314.963, 417.185 322.370, 417.185 322.370, 417.185 322.370, 407.185 322.370, 397.185 322.370, 387.185 322.370, 377.185 322.370, 369.778 312.370, 369.778 302.370, 369.778 292.370, 369.778 282.370, 369.778 274.963, 369.778 " />
            <path fill="none" stroke-width="1.5" stroke-linecap="round" stroke-opacity="1.0" stroke="rgb(0, 0, 0)" stroke-linejoin="round" d=" M 274.963, 417.185 284.963, 417.185 294.963, 417.185 304.963, 417.185 314.963, 417.185 322.370, 417.185 " />
            <path fill="none" stroke-width="1.5" stroke-linecap="round" stroke-opacity="1.0" stroke="rgb(0, 0, 0)" stroke-linejoin="round" d=" M 701.630, 369.778 701.630, 369.778 701.630, 379.778 701.630, 389.778 701.630, 399.778 701.630, 409.778 701.630, 417.185 701.630, 417.185 711.630, 417.185 721.630, 417.185 731.630, 417.185 741.630, 417.185 749.037, 417.185 749.037, 417.185 749.037, 407.185 749.037, 397.185 749.037, 387.185 749.037, 377.185 749.037, 369.778 749.037, 369.778 739.037, 369.778 729.037, 369.778 719.037, 369.778 709.037, 369.778 701.630, 369.778 " />
            <path fill="none" stroke-width="1.5" stroke-linecap="round" stroke-opacity="1.0" stroke="rgb(0, 0, 0)" stroke-linejoin="round" d=" M 701.630, 417.185 711.630, 417.185 721.630, 417.185 731.630, 417.185 741.630, 417.185 749.037, 417.185 " />
            <path fill="none" stroke-width="1.5" stroke-linecap="round" stroke-opacity="1.0" stroke="rgb(0, 0, 0)" stroke-linejoin="round" d=" M 654.222, 606.815 654.222, 616.815 654.222, 626.815 654.222, 636.815 654.222, 646.815 654.222, 656.815 654.222, 666.815 654.222, 676.815 654.222, 686.815 654.222, 696.815 654.222, 706.815 654.222, 716.815 654.222, 726.815 654.222, 736.815 654.222, 746.815 654.222, 756.815 654.222, 766.815 654.222, 776.815 654.222, 786.815 654.222, 796.444 " />
        </g>
    </g>
    <g id="ViewLayer_TechnicalLines.004" xmlns:inkscape="http://www.inkscape.org/namespaces/inkscape" inkscape:groupmode="lineset" inkscape:label="ViewLayer_TechnicalLines.004">
        <g xmlns:inkscape="http://www.inkscape.org/namespaces/inkscape" inkscape:groupmode="layer" id="strokes" inkscape:label="strokes">
            <path fill="none" stroke-width="1.5" stroke-linecap="round" stroke-opacity="1.0" stroke="rgb(0, 0, 0)" stroke-linejoin="round" d=" M 365.783, 606.815 367.973, 606.815 " />
            <path fill="none" stroke-width="1.5" stroke-linecap="round" stroke-opacity="1.0" stroke="rgb(0, 0, 0)" stroke-linejoin="round" d=" M 369.778, 796.444 369.778, 786.444 369.778, 776.444 369.778, 766.444 369.778, 756.444 369.778, 746.444 369.778, 736.444 369.778, 726.444 369.778, 716.444 369.778, 706.444 369.778, 696.444 369.778, 686.444 369.778, 676.444 369.778, 666.444 369.778, 656.444 369.778, 646.444 369.778, 636.444 369.778, 626.444 369.778, 616.444 369.778, 606.815 369.322, 606.815 367.973, 606.815 365.783, 606.815 362.835, 606.815 359.243, 606.815 355.145, 606.815 350.698, 606.815 346.074, 606.815 341.450, 606.815 337.003, 606.815 332.905, 606.815 329.313, 606.815 326.365, 606.815 324.175, 606.815 322.826, 606.815 322.370, 606.815 322.370, 616.815 322.370, 626.815 322.370, 636.815 322.370, 646.815 322.370, 656.815 322.370, 666.815 322.370, 676.815 322.370, 686.815 322.370, 696.815 322.370, 706.815 322.370, 716.815 322.370, 726.815 322.370, 736.815 322.370, 746.815 322.370, 756.815 322.370, 766.815 322.370, 776.815 322.370, 786.815 322.370, 796.444 " />
            <path fill="none" stroke-width="1.5" stroke-linecap="round" stroke-opacity="1.0" stroke="rgb(0, 0, 0)" stroke-linejoin="round" d=" M 322.370, 796.444 322.826, 796.444 324.175, 796.444 326.365, 796.444 329.313, 796.444 332.905, 796.444 337.003, 796.444 341.450, 796.444 346.074, 796.444 350.698, 796.444 355.145, 796.444 359.243, 796.444 362.835, 796.444 365.783, 796.444 367.973, 796.444 369.322, 796.444 369.778, 796.444 " />
            <path fill="none" stroke-width="1.5" stroke-linecap="round" stroke-opacity="1.0" stroke="rgb(0, 0, 0)" stroke-linejoin="round" d=" M 324.175, 606.815 326.365, 606.815 " />
            <path fill="none" stroke-width="1.5" stroke-linecap="round" stroke-opacity="1.0" stroke="rgb(0, 0, 0)" stroke-linejoin="round" d=" M 697.635, 606.815 699.825, 606.815 " />
            <path fill="none" stroke-width="1.5" stroke-linecap="round" stroke-opacity="1.0" stroke="rgb(0, 0, 0)" stroke-linejoin="round" d=" M 654.222, 796.444 654.678, 796.444 656.027, 796.444 658.217, 796.444 661.165, 796.444 664.757, 796.444 668.855, 796.444 673.302, 796.444 677.926, 796.444 682.550, 796.444 686.997, 796.444 691.095, 796.444 694.687, 796.444 697.635, 796.444 699.825, 796.444 701.174, 796.444 701.630, 796.444 701.630, 786.444 701.630, 776.444 701.630, 766.444 701.630, 756.444 701.630, 746.444 701.630, 736.444 701.630, 726.444 701.630, 716.444 701.630, 706.444 701.630, 696.444 701.630, 686.444 701.630, 676.444 701.630, 666.444 701.630, 656.444 701.630, 646.444 701.630, 636.444 701.630, 626.444 701.630, 616.444 701.630, 606.815 " />
            <path fill="none" stroke-width="1.5" stroke-linecap="round" stroke-opacity="1.0" stroke="rgb(0, 0, 0)" stroke-linejoin="round" d=" M 701.630, 606.815 701.630, 606.815 701.174, 606.815 699.825, 606.815 697.635, 606.815 694.687, 606.815 691.095, 606.815 686.997, 606.815 682.550, 606.815 677.926, 606.815 673.302, 606.815 668.855, 606.815 664.757, 606.815 661.165, 606.815 658.217, 606.815 656.027, 606.815 654.678, 606.815 654.222, 606.815 654.222, 606.815 " />
            <path fill="none" stroke-width="1.5" stroke-linecap="round" stroke-opacity="1.0" stroke="rgb(0, 0, 0)" stroke-linejoin="round" d=" M 656.027, 606.815 658.217, 606.815 " />
            <path fill="none" stroke-width="1.5" stroke-linecap="round" stroke-opacity="1.0" stroke="rgb(0, 0, 0)" stroke-linejoin="round" d=" M 322.370, 796.444 322.370, 796.445 322.826, 796.445 324.175, 796.445 326.365, 796.445 329.313, 796.445 332.905, 796.445 337.003, 796.445 341.450, 796.445 346.074, 796.445 350.698, 796.445 355.145, 796.445 359.243, 796.445 362.835, 796.445 365.783, 796.445 367.973, 796.445 369.322, 796.445 369.778, 796.445 369.778, 796.444 " />
            <path fill="none" stroke-width="1.5" stroke-linecap="round" stroke-opacity="1.0" stroke="rgb(0, 0, 0)" stroke-linejoin="round" d=" M 654.222, 796.444 654.222, 796.445 654.678, 796.445 656.027, 796.445 658.217, 796.445 661.165, 796.445 664.757, 796.445 668.855, 796.445 673.302, 796.445 677.926, 796.445 682.550, 796.445 686.997, 796.445 691.095, 796.445 694.687, 796.445 697.635, 796.445 699.825, 796.445 701.174, 796.445 701.630, 796.445 " />
            <path fill="none" stroke-width="1.5" stroke-linecap="round" stroke-opacity="1.0" stroke="rgb(0, 0, 0)" stroke-linejoin="round" d=" M 346.074, 488.296 346.074, 488.296 346.074, 498.296 346.074, 508.296 346.074, 518.296 346.074, 528.296 346.074, 535.704 346.074, 535.704 356.074, 535.704 366.074, 535.704 376.074, 535.704 386.074, 535.704 396.074, 535.704 406.074, 535.704 416.074, 535.704 426.074, 535.704 436.074, 535.704 446.074, 535.704 456.074, 535.704 466.074, 535.704 476.074, 535.704 486.074, 535.704 496.074, 535.704 506.074, 535.704 516.074, 535.704 526.074, 535.704 536.074, 535.704 546.074, 535.704 556.074, 535.704 566.074, 535.704 576.074, 535.704 586.074, 535.704 596.074, 535.704 606.074, 535.704 616.074, 535.704 626.074, 535.704 636.074, 535.704 646.074, 535.704 656.074, 535.704 666.074, 535.704 677.926, 535.704 677.926, 535.704 677.926, 525.704 677.926, 515.704 677.926, 505.704 677.926, 495.704 677.926, 488.296 677.926, 488.296 667.926, 488.296 657.926, 488.296 647.926, 488.296 637.926, 488.296 627.926, 488.296 617.926, 488.296 607.926, 488.296 597.926, 488.296 587.926, 488.296 577.926, 488.296 567.926, 488.296 557.926, 488.296 547.926, 488.296 537.926, 488.296 527.926, 488.296 517.926, 488.296 507.926, 488.296 497.926, 488.296 487.926, 488.296 477.926, 488.296 467.926, 488.296 457.926, 488.296 447.926, 488.296 437.926, 488.296 427.926, 488.296 417.926, 488.296 407.926, 488.296 397.926, 488.296 387.926, 488.296 377.926, 488.296 367.926, 488.296 357.926, 488.296 346.074, 488.296 " />
            <path fill="none" stroke-width="1.5" stroke-linecap="round" stroke-opacity="1.0" stroke="rgb(0, 0, 0)" stroke-linejoin="round" d=" M 346.074, 535.704 356.074, 535.704 366.074, 535.704 376.074, 535.704 386.074, 535.704 396.074, 535.704 406.074, 535.704 416.074, 535.704 426.074, 535.704 436.074, 535.704 446.074, 535.704 456.074, 535.704 466.074, 535.704 476.074, 535.704 486.074, 535.704 496.074, 535.704 506.074, 535.704 516.074, 535.704 526.074, 535.704 536.074, 535.704 546.074, 535.704 556.074, 535.704 566.074, 535.704 576.074, 535.704 586.074, 535.704 596.074, 535.704 606.074, 535.704 616.074, 535.704 626.074, 535.704 636.074, 535.704 646.074, 535.704 656.074, 535.704 666.074, 535.704 677.926, 535.704 " />
            <path fill="none" stroke-width="1.5" stroke-linecap="round" stroke-opacity="1.0" stroke="rgb(0, 0, 0)" stroke-linejoin="round" d=" M 677.926, 227.556 667.926, 227.556 657.926, 227.556 647.926, 227.556 637.926, 227.556 627.926, 227.556 617.926, 227.556 607.926, 227.556 597.926, 227.556 587.926, 227.556 577.926, 227.556 567.926, 227.556 557.926, 227.556 547.926, 227.556 537.926, 227.556 527.926, 227.556 517.926, 227.556 507.926, 227.556 497.926, 227.556 487.926, 227.556 477.926, 227.556 467.926, 227.556 457.926, 227.556 447.926, 227.556 437.926, 227.556 427.926, 227.556 417.926, 227.556 407.926, 227.556 397.926, 227.556 387.926, 227.556 377.926, 227.556 367.926, 227.556 357.926, 227.556 346.074, 227.556 346.074, 237.556 346.074, 247.556 346.074, 257.556 346.074, 267.556 346.074, 277.556 346.074, 287.556 346.074, 297.556 346.074, 307.556 346.074, 317.556 346.074, 327.556 346.074, 337.556 346.074, 347.556 346.074, 357.556 346.074, 367.556 346.074, 377.556 346.074, 387.556 346.074, 397.556 346.074, 407.556 346.074, 417.556 346.074, 427.556 346.074, 437.556 346.074, 447.556 346.074, 457.556 346.074, 464.593 356.074, 464.593 366.074, 464.593 376.074, 464.593 386.074, 464.593 396.074, 464.593 406.074, 464.593 416.074, 464.593 426.074, 464.593 436.074, 464.593 446.074, 464.593 456.074, 464.593 466.074, 464.593 476.074, 464.593 486.074, 464.593 496.074, 464.593 506.074, 464.593 516.074, 464.593 526.074, 464.593 536.074, 464.593 546.074, 464.593 556.074, 464.593 566.074, 464.593 576.074, 464.593 586.074, 464.593 596.074, 464.593 606.074, 464.593 616.074, 464.593 626.074, 464.593 636.074, 464.593 646.074, 464.593 656.074, 464.593 666.074, 464.593 677.926, 464.593 " />
            <path fill="none" stroke-width="1.5" stroke-linecap="round" stroke-opacity="1.0" stroke="rgb(0, 0, 0)" stroke-linejoin="round" d=" M 677.926, 464.593 677.926, 454.593 677.926, 444.593 677.926, 434.593 677.926, 424.593 677.926, 414.593 677.926, 404.593 677.926, 394.593 677.926, 384.593 677.926, 374.593 677.926, 364.593 677.926, 354.593 677.926, 344.593 677.926, 334.593 677.926, 324.593 677.926, 314.593 677.926, 304.593 677.926, 294.593 677.926, 284.593 677.926, 274.593 677.926, 264.593 677.926, 254.593 677.926, 244.593 677.926, 234.593 677.926, 227.556 " />
            <path fill="none" stroke-width="1.5" stroke-linecap="round" stroke-opacity="1.0" stroke="rgb(0, 0, 0)" stroke-linejoin="round" d=" M 274.963, 369.778 274.963, 379.778 274.963, 389.778 274.963, 399.778 274.963, 409.778 274.963, 417.185 274.963, 417.185 284.963, 417.185 294.963, 417.185 304.963, 417.185 314.963, 417.185 322.370, 417.185 322.370, 417.185 322.370, 407.185 322.370, 397.185 322.370, 387.185 322.370, 377.185 322.370, 369.778 312.370, 369.778 302.370, 369.778 292.370, 369.778 282.370, 369.778 274.963, 369.778 " />
            <path fill="none" stroke-width="1.5" stroke-linecap="round" stroke-opacity="1.0" stroke="rgb(0, 0, 0)" stroke-linejoin="round" d=" M 274.963, 417.185 284.963, 417.185 294.963, 417.185 304.963, 417.185 314.963, 417.185 322.370, 417.185 " />
            <path fill="none" stroke-width="1.5" stroke-linecap="round" stroke-opacity="1.0" stroke="rgb(0, 0, 0)" stroke-linejoin="round" d=" M 701.630, 369.778 701.630, 369.778 701.630, 379.778 701.630, 389.778 701.630, 399.778 701.630, 409.778 701.630, 417.185 701.630, 417.185 711.630, 417.185 721.630, 417.185 731.630, 417.185 741.630, 417.185 749.037, 417.185 749.037, 417.185 749.037, 407.185 749.037, 397.185 749.037, 387.185 749.037, 377.185 749.037, 369.778 749.037, 369.778 739.037, 369.778 729.037, 369.778 719.037, 369.778 709.037, 369.778 701.630, 369.778 " />
            <path fill="none" stroke-width="1.5" stroke-linecap="round" stroke-opacity="1.0" stroke="rgb(0, 0, 0)" stroke-linejoin="round" d=" M 701.630, 417.185 711.630, 417.185 721.630, 417.185 731.630, 417.185 741.630, 417.185 749.037, 417.185 " />
            <path fill="none" stroke-width="1.5" stroke-linecap="round" stroke-opacity="1.0" stroke="rgb(0, 0, 0)" stroke-linejoin="round" d=" M 654.222, 606.815 654.222, 616.815 654.222, 626.815 654.222, 636.815 654.222, 646.815 654.222, 656.815 654.222, 666.815 654.222, 676.815 654.222, 686.815 654.222, 696.815 654.222, 706.815 654.222, 716.815 654.222, 726.815 654.222, 736.815 654.222, 746.815 654.222, 756.815 654.222, 766.815 654.222, 776.815 654.222, 786.815 654.222, 796.444 " />
        </g>
    </g>
</svg>
