<?xml version='1.0' encoding='ascii'?>
<svg xmlns="http://www.w3.org/2000/svg" xmlns:inkscape="http://www.inkscape.org/namespaces/inkscape" version="1.1" width="1024" height="1024">
    <g id="ViewLayer_LineSet" inkscape:groupmode="lineset" inkscape:label="ViewLayer_LineSet">
        <g inkscape:groupmode="layer" id="strokes" inkscape:label="strokes">
            <path fill="none" stroke-width="3.0" stroke-linecap="butt" stroke-opacity="1.0" stroke="rgb(0, 0, 0)" stroke-linejoin="round" d=" M 383.044, 640.956 385.580, 643.036 388.473, 644.583 391.612, 645.535 394.876, 645.856 398.140, 645.535 401.279, 644.583 404.172, 643.036 406.681, 640.977 " />
            <path fill="none" stroke-width="3.0" stroke-linecap="butt" stroke-opacity="1.0" stroke="rgb(0, 0, 0)" stroke-linejoin="round" d=" M 378.144, 629.124 378.465, 632.388 379.417, 635.527 380.964, 638.420 383.044, 640.956 " />
            <path fill="none" stroke-width="3.0" stroke-linecap="butt" stroke-opacity="1.0" stroke="rgb(0, 0, 0)" stroke-linejoin="round" d=" M 640.956, 640.956 643.036, 638.420 644.583, 635.527 645.535, 632.388 645.856, 629.124 " />
            <path fill="none" stroke-width="3.0" stroke-linecap="butt" stroke-opacity="1.0" stroke="rgb(0, 0, 0)" stroke-linejoin="round" d=" M 617.319, 640.977 619.828, 643.036 622.721, 644.583 625.860, 645.535 629.124, 645.856 632.388, 645.535 635.527, 644.583 638.420, 643.036 640.956, 640.956 " />
            <path fill="none" stroke-width="3.0" stroke-linecap="butt" stroke-opacity="1.0" stroke="rgb(0, 0, 0)" stroke-linejoin="round" d=" M 406.681, 383.023 404.172, 380.964 401.279, 379.417 398.140, 378.465 394.876, 378.144 391.612, 378.465 388.473, 379.417 385.580, 380.964 383.044, 383.044 " />
            <path fill="none" stroke-width="3.0" stroke-linecap="butt" stroke-opacity="1.0" stroke="rgb(0, 0, 0)" stroke-linejoin="round" d=" M 383.044, 383.044 380.964, 385.580 379.417, 388.473 378.465, 391.612 378.144, 394.876 378.465, 398.140 379.417, 401.279 380.964, 404.172 383.023, 406.681 " />
            <path fill="none" stroke-width="3.0" stroke-linecap="butt" stroke-opacity="1.0" stroke="rgb(0, 0, 0)" stroke-linejoin="round" d=" M 640.956, 383.044 638.420, 380.964 635.527, 379.417 632.388, 378.465 629.124, 378.144 625.860, 378.465 622.721, 379.417 619.828, 380.964 617.319, 383.023 " />
            <path fill="none" stroke-width="3.0" stroke-linecap="butt" stroke-opacity="1.0" stroke="rgb(0, 0, 0)" stroke-linejoin="round" d=" M 640.977, 406.681 643.036, 404.172 644.583, 401.279 645.535, 398.140 645.856, 394.876 645.535, 391.612 644.583, 388.473 643.036, 385.580 640.956, 383.044 " />
            <path fill="none" stroke-width="3.0" stroke-linecap="butt" stroke-opacity="1.0" stroke="rgb(0, 0, 0)" stroke-linejoin="round" d=" M 617.319, 383.023 609.589, 376.679 604.958, 372.878 596.139, 368.164 587.320, 363.450 578.501, 358.736 576.031, 357.416 566.461, 354.513 556.892, 351.611 547.323, 348.708 544.643, 347.895 534.691, 346.915 524.739, 345.934 514.787, 344.954 512.000, 344.680 " />
            <path fill="none" stroke-width="3.0" stroke-linecap="butt" stroke-opacity="1.0" stroke="rgb(0, 0, 0)" stroke-linejoin="round" d=" M 679.320, 512.000 678.340, 502.048 677.360, 492.096 676.380, 482.144 676.105, 479.357 673.202, 469.788 670.300, 460.219 667.397, 450.649 666.584, 447.969 661.870, 439.150 657.156, 430.331 652.442, 421.512 651.122, 419.042 644.778, 411.312 640.977, 406.681 " />
            <path fill="none" stroke-width="3.0" stroke-linecap="butt" stroke-opacity="1.0" stroke="rgb(0, 0, 0)" stroke-linejoin="round" d=" M 656.092, 595.659 656.093, 595.658 660.807, 586.839 665.521, 578.020 666.584, 576.031 669.487, 566.461 672.389, 556.892 675.292, 547.322 676.105, 544.643 677.085, 534.691 678.066, 524.739 679.046, 514.787 679.320, 512.000 " />
            <path fill="none" stroke-width="3.0" stroke-linecap="butt" stroke-opacity="1.0" stroke="rgb(0, 0, 0)" stroke-linejoin="round" d=" M 617.319, 640.977 625.049, 634.633 630.313, 630.313 631.289, 629.124 " />
            <path fill="none" stroke-width="3.0" stroke-linecap="butt" stroke-opacity="1.0" stroke="rgb(0, 0, 0)" stroke-linejoin="round" d=" M 544.643, 676.105 554.212, 673.202 563.781, 670.300 573.351, 667.397 576.031, 666.584 584.850, 661.870 593.669, 657.156 602.488, 652.442 604.958, 651.122 612.688, 644.778 617.319, 640.977 " />
            <path fill="none" stroke-width="3.0" stroke-linecap="butt" stroke-opacity="1.0" stroke="rgb(0, 0, 0)" stroke-linejoin="round" d=" M 512.000, 679.320 521.952, 678.340 531.904, 677.360 541.856, 676.380 544.643, 676.105 " />
            <path fill="none" stroke-width="3.0" stroke-linecap="butt" stroke-opacity="1.0" stroke="rgb(0, 0, 0)" stroke-linejoin="round" d=" M 479.357, 676.105 489.309, 677.085 499.261, 678.066 509.213, 679.046 512.000, 679.320 " />
            <path fill="none" stroke-width="3.0" stroke-linecap="butt" stroke-opacity="1.0" stroke="rgb(0, 0, 0)" stroke-linejoin="round" d=" M 447.969, 666.584 457.539, 669.487 467.108, 672.389 476.678, 675.292 479.357, 676.105 " />
            <path fill="none" stroke-width="3.0" stroke-linecap="butt" stroke-opacity="1.0" stroke="rgb(0, 0, 0)" stroke-linejoin="round" d=" M 406.681, 640.977 414.411, 647.321 419.042, 651.122 427.861, 655.836 436.680, 660.550 445.499, 665.264 447.969, 666.584 " />
            <path fill="none" stroke-width="3.0" stroke-linecap="butt" stroke-opacity="1.0" stroke="rgb(0, 0, 0)" stroke-linejoin="round" d=" M 393.687, 630.313 401.417, 636.657 406.681, 640.977 " />
            <path fill="none" stroke-width="3.0" stroke-linecap="butt" stroke-opacity="1.0" stroke="rgb(0, 0, 0)" stroke-linejoin="round" d=" M 347.895, 544.643 350.798, 554.212 353.700, 563.781 356.603, 573.351 357.416, 576.031 " />
            <path fill="none" stroke-width="3.0" stroke-linecap="butt" stroke-opacity="1.0" stroke="rgb(0, 0, 0)" stroke-linejoin="round" d=" M 383.023, 406.681 376.679, 414.411 372.878, 419.042 368.164, 427.861 363.450, 436.680 358.736, 445.499 357.416, 447.969 354.513, 457.539 351.611, 467.108 348.708, 476.677 347.895, 479.357 " />
            <path fill="none" stroke-width="3.0" stroke-linecap="butt" stroke-opacity="1.0" stroke="rgb(0, 0, 0)" stroke-linejoin="round" d=" M 406.681, 383.023 398.951, 389.367 393.687, 393.687 387.343, 401.417 383.023, 406.681 " />
            <path fill="none" stroke-width="3.0" stroke-linecap="butt" stroke-opacity="1.0" stroke="rgb(0, 0, 0)" stroke-linejoin="round" d=" M 512.000, 344.680 502.048, 345.660 492.096, 346.640 482.144, 347.620 479.357, 347.895 469.788, 350.798 460.219, 353.700 450.649, 356.603 447.969, 357.416 439.150, 362.130 430.331, 366.844 421.512, 371.558 419.042, 372.878 411.312, 379.222 406.681, 383.023 " />
            <path fill="none" stroke-width="3.0" stroke-linecap="butt" stroke-opacity="1.0" stroke="rgb(0, 0, 0)" stroke-linejoin="round" d=" M 411.608, 629.124 419.042, 629.124 429.042, 629.124 439.042, 629.124 447.969, 629.124 457.969, 629.124 467.969, 629.124 477.969, 629.124 479.357, 629.124 489.357, 629.124 499.357, 629.124 509.357, 629.124 512.000, 629.124 522.000, 629.124 532.000, 629.124 542.000, 629.124 544.643, 629.124 554.643, 629.124 564.643, 629.124 574.643, 629.124 576.031, 629.124 586.031, 629.124 596.031, 629.124 604.958, 629.124 612.392, 629.124 " />
            <path fill="none" stroke-width="3.0" stroke-linecap="butt" stroke-opacity="1.0" stroke="rgb(0, 0, 0)" stroke-linejoin="round" d=" M 651.122, 595.660 641.122, 595.660 631.122, 595.660 630.313, 595.660 620.313, 595.660 610.313, 595.660 604.958, 595.660 594.958, 595.660 584.958, 595.660 576.031, 595.660 566.031, 595.660 556.031, 595.660 546.031, 595.660 544.643, 595.660 534.643, 595.660 524.643, 595.660 514.643, 595.660 512.000, 595.660 502.000, 595.660 492.000, 595.660 482.000, 595.660 479.357, 595.660 469.357, 595.660 459.357, 595.660 449.357, 595.660 447.969, 595.660 437.969, 595.660 427.969, 595.660 419.042, 595.660 409.042, 595.660 399.042, 595.660 393.687, 595.660 383.687, 595.660 373.687, 595.660 372.878, 595.660 " />
            <path fill="none" stroke-width="3.0" stroke-linecap="butt" stroke-opacity="1.0" stroke="rgb(0, 0, 0)" stroke-linejoin="round" d=" M 612.392, 629.124 622.392, 629.124 630.313, 629.124 631.289, 629.124 " />
            <path fill="none" stroke-width="3.0" stroke-linecap="butt" stroke-opacity="1.0" stroke="rgb(0, 0, 0)" stroke-linejoin="round" d=" M 645.856, 629.124 651.122, 629.124 661.122, 629.124 666.584, 629.124 676.105, 629.124 " />
            <path fill="none" stroke-width="3.0" stroke-linecap="butt" stroke-opacity="1.0" stroke="rgb(0, 0, 0)" stroke-linejoin="round" d=" M 676.105, 629.124 679.320, 629.124 679.320, 619.124 679.320, 609.124 679.320, 599.124 679.320, 595.660 676.105, 595.660 666.584, 595.660 656.584, 595.660 656.092, 595.660 651.122, 595.660 " />
            <path fill="none" stroke-width="3.0" stroke-linecap="butt" stroke-opacity="1.0" stroke="rgb(0, 0, 0)" stroke-linejoin="round" d=" M 656.092, 595.660 666.092, 595.660 666.584, 595.660 676.105, 595.660 " />
            <path fill="none" stroke-width="3.0" stroke-linecap="butt" stroke-opacity="1.0" stroke="rgb(0, 0, 0)" stroke-linejoin="round" d=" M 347.895, 595.660 357.416, 595.660 367.416, 595.660 367.908, 595.660 " />
            <path fill="none" stroke-width="3.0" stroke-linecap="butt" stroke-opacity="1.0" stroke="rgb(0, 0, 0)" stroke-linejoin="round" d=" M 347.895, 595.660 344.680, 595.660 344.680, 605.660 344.680, 615.660 344.680, 625.660 344.680, 629.124 347.895, 629.124 " />
            <path fill="none" stroke-width="3.0" stroke-linecap="butt" stroke-opacity="1.0" stroke="rgb(0, 0, 0)" stroke-linejoin="round" d=" M 372.878, 595.660 367.908, 595.660 357.908, 595.660 357.416, 595.660 347.895, 595.660 " />
            <path fill="none" stroke-width="3.0" stroke-linecap="butt" stroke-opacity="1.0" stroke="rgb(0, 0, 0)" stroke-linejoin="round" d=" M 347.895, 629.124 357.416, 629.124 367.416, 629.124 372.878, 629.124 378.144, 629.124 " />
            <path fill="none" stroke-width="3.0" stroke-linecap="butt" stroke-opacity="1.0" stroke="rgb(0, 0, 0)" stroke-linejoin="round" d=" M 392.711, 629.124 393.687, 629.124 403.687, 629.124 411.608, 629.124 " />
            <path fill="none" stroke-width="3.0" stroke-linecap="butt" stroke-opacity="1.0" stroke="rgb(0, 0, 0)" stroke-linejoin="round" d=" M 367.908, 595.660 372.878, 595.660 367.908, 595.660 " />
            <path fill="none" stroke-width="3.0" stroke-linecap="butt" stroke-opacity="1.0" stroke="rgb(0, 0, 0)" stroke-linejoin="round" d=" M 676.105, 595.660 666.105, 595.660 656.092, 595.660 " />
            <path fill="none" stroke-width="3.0" stroke-linecap="butt" stroke-opacity="1.0" stroke="rgb(0, 0, 0)" stroke-linejoin="round" d=" M 344.680, 512.000 345.660, 521.952 346.640, 531.904 347.620, 541.856 347.895, 544.643 " />
            <path fill="none" stroke-width="3.0" stroke-linecap="butt" stroke-opacity="1.0" stroke="rgb(0, 0, 0)" stroke-linejoin="round" d=" M 347.895, 479.357 346.915, 489.309 345.934, 499.261 344.954, 509.213 344.680, 512.000 " />
            <path fill="none" stroke-width="3.0" stroke-linecap="butt" stroke-opacity="1.0" stroke="rgb(0, 0, 0)" stroke-linejoin="round" d=" M 367.908, 595.660 357.908, 595.660 347.895, 595.660 " />
            <path fill="none" stroke-width="3.0" stroke-linecap="butt" stroke-opacity="1.0" stroke="rgb(0, 0, 0)" stroke-linejoin="round" d=" M 347.895, 595.660 357.895, 595.660 367.908, 595.660 " />
            <path fill="none" stroke-width="3.0" stroke-linecap="butt" stroke-opacity="1.0" stroke="rgb(0, 0, 0)" stroke-linejoin="round" d=" M 392.711, 629.124 393.687, 630.313 " />
            <path fill="none" stroke-width="3.0" stroke-linecap="butt" stroke-opacity="1.0" stroke="rgb(0, 0, 0)" stroke-linejoin="round" d=" M 378.144, 629.124 388.144, 629.124 392.711, 629.124 " />
            <path fill="none" stroke-width="3.0" stroke-linecap="butt" stroke-opacity="1.0" stroke="rgb(0, 0, 0)" stroke-linejoin="round" d=" M 367.908, 595.660 357.908, 595.660 347.895, 595.660 " />
            <path fill="none" stroke-width="3.0" stroke-linecap="butt" stroke-opacity="1.0" stroke="rgb(0, 0, 0)" stroke-linejoin="round" d=" M 450.495, 595.660 440.495, 595.660 430.495, 595.660 420.495, 595.660 410.495, 595.660 400.495, 595.660 390.495, 595.660 380.495, 595.660 370.495, 595.660 367.908, 595.660 " />
            <path fill="none" stroke-width="3.0" stroke-linecap="butt" stroke-opacity="1.0" stroke="rgb(0, 0, 0)" stroke-linejoin="round" d=" M 630.313, 393.687 622.583, 387.343 617.319, 383.023 " />
            <path fill="none" stroke-width="3.0" stroke-linecap="butt" stroke-opacity="1.0" stroke="rgb(0, 0, 0)" stroke-linejoin="round" d=" M 631.289, 629.124 641.289, 629.124 645.856, 629.124 " />
            <path fill="none" stroke-width="3.0" stroke-linecap="butt" stroke-opacity="1.0" stroke="rgb(0, 0, 0)" stroke-linejoin="round" d=" M 640.977, 406.681 634.633, 398.951 630.313, 393.687 " />
            <path fill="none" stroke-width="3.0" stroke-linecap="butt" stroke-opacity="1.0" stroke="rgb(0, 0, 0)" stroke-linejoin="round" d=" M 656.092, 595.660 646.092, 595.660 636.092, 595.660 626.092, 595.660 616.092, 595.660 606.092, 595.660 596.092, 595.660 586.092, 595.660 576.092, 595.660 566.092, 595.660 556.092, 595.660 546.092, 595.660 544.643, 595.660 " />
        </g>
    </g>
    <g id="ViewLayer_TechnicalLines" inkscape:groupmode="lineset" inkscape:label="ViewLayer_TechnicalLines">
        <g inkscape:groupmode="layer" id="strokes" inkscape:label="strokes">
            <path fill="none" stroke-width="3.0" stroke-linecap="butt" stroke-opacity="1.0" stroke="rgb(0, 0, 0)" stroke-linejoin="round" d=" M 383.044, 640.956 385.580, 643.036 388.473, 644.583 391.612, 645.535 394.876, 645.856 398.140, 645.535 401.279, 644.583 404.172, 643.036 406.681, 640.977 " />
            <path fill="none" stroke-width="3.0" stroke-linecap="butt" stroke-opacity="1.0" stroke="rgb(0, 0, 0)" stroke-linejoin="round" d=" M 378.144, 629.124 378.465, 632.388 379.417, 635.527 380.964, 638.420 383.044, 640.956 " />
            <path fill="none" stroke-width="3.0" stroke-linecap="butt" stroke-opacity="1.0" stroke="rgb(0, 0, 0)" stroke-linejoin="round" d=" M 640.956, 640.956 643.036, 638.420 644.583, 635.527 645.535, 632.388 645.856, 629.124 " />
            <path fill="none" stroke-width="3.0" stroke-linecap="butt" stroke-opacity="1.0" stroke="rgb(0, 0, 0)" stroke-linejoin="round" d=" M 617.319, 640.977 619.828, 643.036 622.721, 644.583 625.860, 645.535 629.124, 645.856 632.388, 645.535 635.527, 644.583 638.420, 643.036 640.956, 640.956 " />
            <path fill="none" stroke-width="3.0" stroke-linecap="butt" stroke-opacity="1.0" stroke="rgb(0, 0, 0)" stroke-linejoin="round" d=" M 406.681, 383.023 404.172, 380.964 401.279, 379.417 398.140, 378.465 394.876, 378.144 391.612, 378.465 388.473, 379.417 385.580, 380.964 383.044, 383.044 " />
            <path fill="none" stroke-width="3.0" stroke-linecap="butt" stroke-opacity="1.0" stroke="rgb(0, 0, 0)" stroke-linejoin="round" d=" M 383.044, 383.044 380.964, 385.580 379.417, 388.473 378.465, 391.612 378.144, 394.876 378.465, 398.140 379.417, 401.279 380.964, 404.172 383.023, 406.681 " />
            <path fill="none" stroke-width="3.0" stroke-linecap="butt" stroke-opacity="1.0" stroke="rgb(0, 0, 0)" stroke-linejoin="round" d=" M 640.956, 383.044 638.420, 380.964 635.527, 379.417 632.388, 378.465 629.124, 378.144 625.860, 378.465 622.721, 379.417 619.828, 380.964 617.319, 383.023 " />
            <path fill="none" stroke-width="3.0" stroke-linecap="butt" stroke-opacity="1.0" stroke="rgb(0, 0, 0)" stroke-linejoin="round" d=" M 640.977, 406.681 643.036, 404.172 644.583, 401.279 645.535, 398.140 645.856, 394.876 645.535, 391.612 644.583, 388.473 643.036, 385.580 640.956, 383.044 " />
            <path fill="none" stroke-width="3.0" stroke-linecap="butt" stroke-opacity="1.0" stroke="rgb(0, 0, 0)" stroke-linejoin="round" d=" M 617.319, 383.023 609.589, 376.679 604.958, 372.878 596.139, 368.164 587.320, 363.450 578.501, 358.736 576.031, 357.416 566.461, 354.513 556.892, 351.611 547.323, 348.708 544.643, 347.895 534.691, 346.915 524.739, 345.934 514.787, 344.954 512.000, 344.680 " />
            <path fill="none" stroke-width="3.0" stroke-linecap="butt" stroke-opacity="1.0" stroke="rgb(0, 0, 0)" stroke-linejoin="round" d=" M 679.320, 512.000 678.340, 502.048 677.360, 492.096 676.380, 482.144 676.105, 479.357 673.202, 469.788 670.300, 460.219 667.397, 450.649 666.584, 447.969 661.870, 439.150 657.156, 430.331 652.442, 421.512 651.122, 419.042 644.778, 411.312 640.977, 406.681 " />
            <path fill="none" stroke-width="3.0" stroke-linecap="butt" stroke-opacity="1.0" stroke="rgb(0, 0, 0)" stroke-linejoin="round" d=" M 656.092, 595.659 656.093, 595.658 660.807, 586.839 665.521, 578.020 666.584, 576.031 669.487, 566.461 672.389, 556.892 675.292, 547.322 676.105, 544.643 677.085, 534.691 678.066, 524.739 679.046, 514.787 679.320, 512.000 " />
            <path fill="none" stroke-width="3.0" stroke-linecap="butt" stroke-opacity="1.0" stroke="rgb(0, 0, 0)" stroke-linejoin="round" d=" M 617.319, 640.977 625.049, 634.633 630.313, 630.313 631.289, 629.124 " />
            <path fill="none" stroke-width="3.0" stroke-linecap="butt" stroke-opacity="1.0" stroke="rgb(0, 0, 0)" stroke-linejoin="round" d=" M 544.643, 676.105 554.212, 673.202 563.781, 670.300 573.351, 667.397 576.031, 666.584 584.850, 661.870 593.669, 657.156 602.488, 652.442 604.958, 651.122 612.688, 644.778 617.319, 640.977 " />
            <path fill="none" stroke-width="3.0" stroke-linecap="butt" stroke-opacity="1.0" stroke="rgb(0, 0, 0)" stroke-linejoin="round" d=" M 512.000, 679.320 521.952, 678.340 531.904, 677.360 541.856, 676.380 544.643, 676.105 " />
            <path fill="none" stroke-width="3.0" stroke-linecap="butt" stroke-opacity="1.0" stroke="rgb(0, 0, 0)" stroke-linejoin="round" d=" M 479.357, 676.105 489.309, 677.085 499.261, 678.066 509.213, 679.046 512.000, 679.320 " />
            <path fill="none" stroke-width="3.0" stroke-linecap="butt" stroke-opacity="1.0" stroke="rgb(0, 0, 0)" stroke-linejoin="round" d=" M 447.969, 666.584 457.539, 669.487 467.108, 672.389 476.678, 675.292 479.357, 676.105 " />
            <path fill="none" stroke-width="3.0" stroke-linecap="butt" stroke-opacity="1.0" stroke="rgb(0, 0, 0)" stroke-linejoin="round" d=" M 406.681, 640.977 414.411, 647.321 419.042, 651.122 427.861, 655.836 436.680, 660.550 445.499, 665.264 447.969, 666.584 " />
            <path fill="none" stroke-width="3.0" stroke-linecap="butt" stroke-opacity="1.0" stroke="rgb(0, 0, 0)" stroke-linejoin="round" d=" M 393.687, 630.313 401.417, 636.657 406.681, 640.977 " />
            <path fill="none" stroke-width="3.0" stroke-linecap="butt" stroke-opacity="1.0" stroke="rgb(0, 0, 0)" stroke-linejoin="round" d=" M 347.895, 544.643 350.798, 554.212 353.700, 563.781 356.603, 573.351 357.416, 576.031 " />
            <path fill="none" stroke-width="3.0" stroke-linecap="butt" stroke-opacity="1.0" stroke="rgb(0, 0, 0)" stroke-linejoin="round" d=" M 383.023, 406.681 376.679, 414.411 372.878, 419.042 368.164, 427.861 363.450, 436.680 358.736, 445.499 357.416, 447.969 354.513, 457.539 351.611, 467.108 348.708, 476.677 347.895, 479.357 " />
            <path fill="none" stroke-width="3.0" stroke-linecap="butt" stroke-opacity="1.0" stroke="rgb(0, 0, 0)" stroke-linejoin="round" d=" M 406.681, 383.023 398.951, 389.367 393.687, 393.687 387.343, 401.417 383.023, 406.681 " />
            <path fill="none" stroke-width="3.0" stroke-linecap="butt" stroke-opacity="1.0" stroke="rgb(0, 0, 0)" stroke-linejoin="round" d=" M 512.000, 344.680 502.048, 345.660 492.096, 346.640 482.144, 347.620 479.357, 347.895 469.788, 350.798 460.219, 353.700 450.649, 356.603 447.969, 357.416 439.150, 362.130 430.331, 366.844 421.512, 371.558 419.042, 372.878 411.312, 379.222 406.681, 383.023 " />
            <path fill="none" stroke-width="3.0" stroke-linecap="butt" stroke-opacity="1.0" stroke="rgb(0, 0, 0)" stroke-linejoin="round" d=" M 411.608, 629.124 419.042, 629.124 429.042, 629.124 439.042, 629.124 447.969, 629.124 457.969, 629.124 467.969, 629.124 477.969, 629.124 479.357, 629.124 489.357, 629.124 499.357, 629.124 509.357, 629.124 512.000, 629.124 522.000, 629.124 532.000, 629.124 542.000, 629.124 544.643, 629.124 554.643, 629.124 564.643, 629.124 574.643, 629.124 576.031, 629.124 586.031, 629.124 596.031, 629.124 604.958, 629.124 612.392, 629.124 " />
            <path fill="none" stroke-width="3.0" stroke-linecap="butt" stroke-opacity="1.0" stroke="rgb(0, 0, 0)" stroke-linejoin="round" d=" M 651.122, 595.660 641.122, 595.660 631.122, 595.660 630.313, 595.660 620.313, 595.660 610.313, 595.660 604.958, 595.660 594.958, 595.660 584.958, 595.660 576.031, 595.660 566.031, 595.660 556.031, 595.660 546.031, 595.660 544.643, 595.660 534.643, 595.660 524.643, 595.660 514.643, 595.660 512.000, 595.660 502.000, 595.660 492.000, 595.660 482.000, 595.660 479.357, 595.660 469.357, 595.660 459.357, 595.660 449.357, 595.660 447.969, 595.660 437.969, 595.660 427.969, 595.660 419.042, 595.660 409.042, 595.660 399.042, 595.660 393.687, 595.660 383.687, 595.660 373.687, 595.660 372.878, 595.660 " />
            <path fill="none" stroke-width="3.0" stroke-linecap="butt" stroke-opacity="1.0" stroke="rgb(0, 0, 0)" stroke-linejoin="round" d=" M 612.392, 629.124 622.392, 629.124 630.313, 629.124 631.289, 629.124 " />
            <path fill="none" stroke-width="3.0" stroke-linecap="butt" stroke-opacity="1.0" stroke="rgb(0, 0, 0)" stroke-linejoin="round" d=" M 645.856, 629.124 651.122, 629.124 661.122, 629.124 666.584, 629.124 676.105, 629.124 " />
            <path fill="none" stroke-width="3.0" stroke-linecap="butt" stroke-opacity="1.0" stroke="rgb(0, 0, 0)" stroke-linejoin="round" d=" M 676.105, 629.124 679.320, 629.124 679.320, 619.124 679.320, 609.124 679.320, 599.124 679.320, 595.660 676.105, 595.660 666.584, 595.660 656.584, 595.660 656.092, 595.660 651.122, 595.660 " />
            <path fill="none" stroke-width="3.0" stroke-linecap="butt" stroke-opacity="1.0" stroke="rgb(0, 0, 0)" stroke-linejoin="round" d=" M 656.092, 595.660 666.092, 595.660 666.584, 595.660 676.105, 595.660 " />
            <path fill="none" stroke-width="3.0" stroke-linecap="butt" stroke-opacity="1.0" stroke="rgb(0, 0, 0)" stroke-linejoin="round" d=" M 347.895, 595.660 357.416, 595.660 367.416, 595.660 367.908, 595.660 " />
            <path fill="none" stroke-width="3.0" stroke-linecap="butt" stroke-opacity="1.0" stroke="rgb(0, 0, 0)" stroke-linejoin="round" d=" M 347.895, 595.660 344.680, 595.660 344.680, 605.660 344.680, 615.660 344.680, 625.660 344.680, 629.124 347.895, 629.124 " />
            <path fill="none" stroke-width="3.0" stroke-linecap="butt" stroke-opacity="1.0" stroke="rgb(0, 0, 0)" stroke-linejoin="round" d=" M 372.878, 595.660 367.908, 595.660 357.908, 595.660 357.416, 595.660 347.895, 595.660 " />
            <path fill="none" stroke-width="3.0" stroke-linecap="butt" stroke-opacity="1.0" stroke="rgb(0, 0, 0)" stroke-linejoin="round" d=" M 347.895, 629.124 357.416, 629.124 367.416, 629.124 372.878, 629.124 378.144, 629.124 " />
            <path fill="none" stroke-width="3.0" stroke-linecap="butt" stroke-opacity="1.0" stroke="rgb(0, 0, 0)" stroke-linejoin="round" d=" M 392.711, 629.124 393.687, 629.124 403.687, 629.124 411.608, 629.124 " />
            <path fill="none" stroke-width="3.0" stroke-linecap="butt" stroke-opacity="1.0" stroke="rgb(0, 0, 0)" stroke-linejoin="round" d=" M 367.908, 595.660 372.878, 595.660 367.908, 595.660 " />
            <path fill="none" stroke-width="3.0" stroke-linecap="butt" stroke-opacity="1.0" stroke="rgb(0, 0, 0)" stroke-linejoin="round" d=" M 676.105, 595.660 666.105, 595.660 656.092, 595.660 " />
            <path fill="none" stroke-width="3.0" stroke-linecap="butt" stroke-opacity="1.0" stroke="rgb(0, 0, 0)" stroke-linejoin="round" d=" M 344.680, 512.000 345.660, 521.952 346.640, 531.904 347.620, 541.856 347.895, 544.643 " />
            <path fill="none" stroke-width="3.0" stroke-linecap="butt" stroke-opacity="1.0" stroke="rgb(0, 0, 0)" stroke-linejoin="round" d=" M 347.895, 479.357 346.915, 489.309 345.934, 499.261 344.954, 509.213 344.680, 512.000 " />
            <path fill="none" stroke-width="3.0" stroke-linecap="butt" stroke-opacity="1.0" stroke="rgb(0, 0, 0)" stroke-linejoin="round" d=" M 392.711, 629.124 393.687, 630.313 " />
            <path fill="none" stroke-width="3.0" stroke-linecap="butt" stroke-opacity="1.0" stroke="rgb(0, 0, 0)" stroke-linejoin="round" d=" M 378.144, 629.124 388.144, 629.124 392.711, 629.124 " />
            <path fill="none" stroke-width="3.0" stroke-linecap="butt" stroke-opacity="1.0" stroke="rgb(0, 0, 0)" stroke-linejoin="round" d=" M 367.908, 595.660 357.908, 595.660 347.895, 595.660 " />
            <path fill="none" stroke-width="3.0" stroke-linecap="butt" stroke-opacity="1.0" stroke="rgb(0, 0, 0)" stroke-linejoin="round" d=" M 450.495, 595.660 440.495, 595.660 430.495, 595.660 420.495, 595.660 410.495, 595.660 400.495, 595.660 390.495, 595.660 380.495, 595.660 370.495, 595.660 367.908, 595.660 " />
            <path fill="none" stroke-width="3.0" stroke-linecap="butt" stroke-opacity="1.0" stroke="rgb(0, 0, 0)" stroke-linejoin="round" d=" M 630.313, 393.687 622.583, 387.343 617.319, 383.023 " />
            <path fill="none" stroke-width="3.0" stroke-linecap="butt" stroke-opacity="1.0" stroke="rgb(0, 0, 0)" stroke-linejoin="round" d=" M 631.289, 629.124 641.289, 629.124 645.856, 629.124 " />
            <path fill="none" stroke-width="3.0" stroke-linecap="butt" stroke-opacity="1.0" stroke="rgb(0, 0, 0)" stroke-linejoin="round" d=" M 640.977, 406.681 634.633, 398.951 630.313, 393.687 " />
            <path fill="none" stroke-width="3.0" stroke-linecap="butt" stroke-opacity="1.0" stroke="rgb(0, 0, 0)" stroke-linejoin="round" d=" M 656.092, 595.660 646.092, 595.660 636.092, 595.660 626.092, 595.660 616.092, 595.660 606.092, 595.660 596.092, 595.660 586.092, 595.660 576.092, 595.660 566.092, 595.660 556.092, 595.660 546.092, 595.660 544.643, 595.660 " />
        </g>
    </g>
    <g id="ViewLayer_TechnicalLines.001" inkscape:groupmode="lineset" inkscape:label="ViewLayer_TechnicalLines.001">
        <g inkscape:groupmode="layer" id="strokes" inkscape:label="strokes">
            <path fill="none" stroke-width="1.5" stroke-linecap="round" stroke-opacity="1.0" stroke="rgb(0, 0, 0)" stroke-linejoin="round" d=" M 383.044, 640.956 385.580, 643.036 388.473, 644.583 391.612, 645.535 394.876, 645.856 398.140, 645.535 401.279, 644.583 404.172, 643.036 406.681, 640.977 " />
            <path fill="none" stroke-width="1.5" stroke-linecap="round" stroke-opacity="1.0" stroke="rgb(0, 0, 0)" stroke-linejoin="round" d=" M 378.144, 629.124 378.465, 632.388 379.417, 635.527 380.964, 638.420 383.044, 640.956 " />
            <path fill="none" stroke-width="1.5" stroke-linecap="round" stroke-opacity="1.0" stroke="rgb(0, 0, 0)" stroke-linejoin="round" d=" M 640.956, 640.956 643.036, 638.420 644.583, 635.527 645.535, 632.388 645.856, 629.124 " />
            <path fill="none" stroke-width="1.5" stroke-linecap="round" stroke-opacity="1.0" stroke="rgb(0, 0, 0)" stroke-linejoin="round" d=" M 617.319, 640.977 619.828, 643.036 622.721, 644.583 625.860, 645.535 629.124, 645.856 632.388, 645.535 635.527, 644.583 638.420, 643.036 640.956, 640.956 " />
            <path fill="none" stroke-width="1.5" stroke-linecap="round" stroke-opacity="1.0" stroke="rgb(0, 0, 0)" stroke-linejoin="round" d=" M 406.681, 383.023 404.172, 380.964 401.279, 379.417 398.140, 378.465 394.876, 378.144 391.612, 378.465 388.473, 379.417 385.580, 380.964 383.044, 383.044 " />
            <path fill="none" stroke-width="1.5" stroke-linecap="round" stroke-opacity="1.0" stroke="rgb(0, 0, 0)" stroke-linejoin="round" d=" M 383.044, 383.044 380.964, 385.580 379.417, 388.473 378.465, 391.612 378.144, 394.876 378.465, 398.140 379.417, 401.279 380.964, 404.172 383.023, 406.681 " />
            <path fill="none" stroke-width="1.5" stroke-linecap="round" stroke-opacity="1.0" stroke="rgb(0, 0, 0)" stroke-linejoin="round" d=" M 640.956, 383.044 638.420, 380.964 635.527, 379.417 632.388, 378.465 629.124, 378.144 625.860, 378.465 622.721, 379.417 619.828, 380.964 617.319, 383.023 " />
            <path fill="none" stroke-width="1.5" stroke-linecap="round" stroke-opacity="1.0" stroke="rgb(0, 0, 0)" stroke-linejoin="round" d=" M 640.977, 406.681 643.036, 404.172 644.583, 401.279 645.535, 398.140 645.856, 394.876 645.535, 391.612 644.583, 388.473 643.036, 385.580 640.956, 383.044 " />
            <path fill="none" stroke-width="1.5" stroke-linecap="round" stroke-opacity="1.0" stroke="rgb(0, 0, 0)" stroke-linejoin="round" d=" M 617.319, 383.023 609.589, 376.679 604.958, 372.878 596.139, 368.164 587.320, 363.450 578.501, 358.736 576.031, 357.416 566.461, 354.513 556.892, 351.611 547.323, 348.708 544.643, 347.895 534.691, 346.915 524.739, 345.934 514.787, 344.954 512.000, 344.680 " />
            <path fill="none" stroke-width="1.5" stroke-linecap="round" stroke-opacity="1.0" stroke="rgb(0, 0, 0)" stroke-linejoin="round" d=" M 679.320, 512.000 678.340, 502.048 677.360, 492.096 676.380, 482.144 676.105, 479.357 673.202, 469.788 670.300, 460.219 667.397, 450.649 666.584, 447.969 661.870, 439.150 657.156, 430.331 652.442, 421.512 651.122, 419.042 644.778, 411.312 640.977, 406.681 " />
            <path fill="none" stroke-width="1.5" stroke-linecap="round" stroke-opacity="1.0" stroke="rgb(0, 0, 0)" stroke-linejoin="round" d=" M 656.092, 595.659 656.093, 595.658 660.807, 586.839 665.521, 578.020 666.584, 576.031 669.487, 566.461 672.389, 556.892 675.292, 547.322 676.105, 544.643 677.085, 534.691 678.066, 524.739 679.046, 514.787 679.320, 512.000 " />
            <path fill="none" stroke-width="1.5" stroke-linecap="round" stroke-opacity="1.0" stroke="rgb(0, 0, 0)" stroke-linejoin="round" d=" M 617.319, 640.977 625.049, 634.633 630.313, 630.313 631.289, 629.124 " />
            <path fill="none" stroke-width="1.5" stroke-linecap="round" stroke-opacity="1.0" stroke="rgb(0, 0, 0)" stroke-linejoin="round" d=" M 544.643, 676.105 554.212, 673.202 563.781, 670.300 573.351, 667.397 576.031, 666.584 584.850, 661.870 593.669, 657.156 602.488, 652.442 604.958, 651.122 612.688, 644.778 617.319, 640.977 " />
            <path fill="none" stroke-width="1.5" stroke-linecap="round" stroke-opacity="1.0" stroke="rgb(0, 0, 0)" stroke-linejoin="round" d=" M 512.000, 679.320 521.952, 678.340 531.904, 677.360 541.856, 676.380 544.643, 676.105 " />
            <path fill="none" stroke-width="1.5" stroke-linecap="round" stroke-opacity="1.0" stroke="rgb(0, 0, 0)" stroke-linejoin="round" d=" M 479.357, 676.105 489.309, 677.085 499.261, 678.066 509.213, 679.046 512.000, 679.320 " />
            <path fill="none" stroke-width="1.5" stroke-linecap="round" stroke-opacity="1.0" stroke="rgb(0, 0, 0)" stroke-linejoin="round" d=" M 447.969, 666.584 457.539, 669.487 467.108, 672.389 476.678, 675.292 479.357, 676.105 " />
            <path fill="none" stroke-width="1.5" stroke-linecap="round" stroke-opacity="1.0" stroke="rgb(0, 0, 0)" stroke-linejoin="round" d=" M 406.681, 640.977 414.411, 647.321 419.042, 651.122 427.861, 655.836 436.680, 660.550 445.499, 665.264 447.969, 666.584 " />
            <path fill="none" stroke-width="1.5" stroke-linecap="round" stroke-opacity="1.0" stroke="rgb(0, 0, 0)" stroke-linejoin="round" d=" M 393.687, 630.313 401.417, 636.657 406.681, 640.977 " />
            <path fill="none" stroke-width="1.5" stroke-linecap="round" stroke-opacity="1.0" stroke="rgb(0, 0, 0)" stroke-linejoin="round" d=" M 347.895, 544.643 350.798, 554.212 353.700, 563.781 356.603, 573.351 357.416, 576.031 " />
            <path fill="none" stroke-width="1.5" stroke-linecap="round" stroke-opacity="1.0" stroke="rgb(0, 0, 0)" stroke-linejoin="round" d=" M 383.023, 406.681 376.679, 414.411 372.878, 419.042 368.164, 427.861 363.450, 436.680 358.736, 445.499 357.416, 447.969 354.513, 457.539 351.611, 467.108 348.708, 476.677 347.895, 479.357 " />
            <path fill="none" stroke-width="1.5" stroke-linecap="round" stroke-opacity="1.0" stroke="rgb(0, 0, 0)" stroke-linejoin="round" d=" M 406.681, 383.023 398.951, 389.367 393.687, 393.687 387.343, 401.417 383.023, 406.681 " />
            <path fill="none" stroke-width="1.5" stroke-linecap="round" stroke-opacity="1.0" stroke="rgb(0, 0, 0)" stroke-linejoin="round" d=" M 512.000, 344.680 502.048, 345.660 492.096, 346.640 482.144, 347.620 479.357, 347.895 469.788, 350.798 460.219, 353.700 450.649, 356.603 447.969, 357.416 439.150, 362.130 430.331, 366.844 421.512, 371.558 419.042, 372.878 411.312, 379.222 406.681, 383.023 " />
            <path fill="none" stroke-width="1.5" stroke-linecap="round" stroke-opacity="1.0" stroke="rgb(0, 0, 0)" stroke-linejoin="round" d=" M 411.608, 629.124 419.042, 629.124 429.042, 629.124 439.042, 629.124 447.969, 629.124 457.969, 629.124 467.969, 629.124 477.969, 629.124 479.357, 629.124 489.357, 629.124 499.357, 629.124 509.357, 629.124 512.000, 629.124 522.000, 629.124 532.000, 629.124 542.000, 629.124 544.643, 629.124 554.643, 629.124 564.643, 629.124 574.643, 629.124 576.031, 629.124 586.031, 629.124 596.031, 629.124 604.958, 629.124 612.392, 629.124 " />
            <path fill="none" stroke-width="1.5" stroke-linecap="round" stroke-opacity="1.0" stroke="rgb(0, 0, 0)" stroke-linejoin="round" d=" M 651.122, 595.660 641.122, 595.660 631.122, 595.660 630.313, 595.660 620.313, 595.660 610.313, 595.660 604.958, 595.660 594.958, 595.660 584.958, 595.660 576.031, 595.660 566.031, 595.660 556.031, 595.660 546.031, 595.660 544.643, 595.660 534.643, 595.660 524.643, 595.660 514.643, 595.660 512.000, 595.660 502.000, 595.660 492.000, 595.660 482.000, 595.660 479.357, 595.660 469.357, 595.660 459.357, 595.660 449.357, 595.660 447.969, 595.660 437.969, 595.660 427.969, 595.660 419.042, 595.660 409.042, 595.660 399.042, 595.660 393.687, 595.660 383.687, 595.660 373.687, 595.660 372.878, 595.660 " />
            <path fill="none" stroke-width="1.5" stroke-linecap="round" stroke-opacity="1.0" stroke="rgb(0, 0, 0)" stroke-linejoin="round" d=" M 612.392, 629.124 622.392, 629.124 630.313, 629.124 631.289, 629.124 " />
            <path fill="none" stroke-width="1.5" stroke-linecap="round" stroke-opacity="1.0" stroke="rgb(0, 0, 0)" stroke-linejoin="round" d=" M 645.856, 629.124 651.122, 629.124 661.122, 629.124 666.584, 629.124 676.105, 629.124 " />
            <path fill="none" stroke-width="1.5" stroke-linecap="round" stroke-opacity="1.0" stroke="rgb(0, 0, 0)" stroke-linejoin="round" d=" M 676.105, 629.124 679.320, 629.124 679.320, 619.124 679.320, 609.124 679.320, 599.124 679.320, 595.660 676.105, 595.660 666.584, 595.660 656.584, 595.660 656.092, 595.660 651.122, 595.660 " />
            <path fill="none" stroke-width="1.5" stroke-linecap="round" stroke-opacity="1.0" stroke="rgb(0, 0, 0)" stroke-linejoin="round" d=" M 656.092, 595.660 666.092, 595.660 666.584, 595.660 676.105, 595.660 " />
            <path fill="none" stroke-width="1.5" stroke-linecap="round" stroke-opacity="1.0" stroke="rgb(0, 0, 0)" stroke-linejoin="round" d=" M 347.895, 595.660 357.416, 595.660 367.416, 595.660 367.908, 595.660 " />
            <path fill="none" stroke-width="1.5" stroke-linecap="round" stroke-opacity="1.0" stroke="rgb(0, 0, 0)" stroke-linejoin="round" d=" M 347.895, 595.660 344.680, 595.660 344.680, 605.660 344.680, 615.660 344.680, 625.660 344.680, 629.124 347.895, 629.124 " />
            <path fill="none" stroke-width="1.5" stroke-linecap="round" stroke-opacity="1.0" stroke="rgb(0, 0, 0)" stroke-linejoin="round" d=" M 372.878, 595.660 367.908, 595.660 357.908, 595.660 357.416, 595.660 347.895, 595.660 " />
            <path fill="none" stroke-width="1.5" stroke-linecap="round" stroke-opacity="1.0" stroke="rgb(0, 0, 0)" stroke-linejoin="round" d=" M 347.895, 629.124 357.416, 629.124 367.416, 629.124 372.878, 629.124 378.144, 629.124 " />
            <path fill="none" stroke-width="1.5" stroke-linecap="round" stroke-opacity="1.0" stroke="rgb(0, 0, 0)" stroke-linejoin="round" d=" M 392.711, 629.124 393.687, 629.124 403.687, 629.124 411.608, 629.124 " />
            <path fill="none" stroke-width="1.5" stroke-linecap="round" stroke-opacity="1.0" stroke="rgb(0, 0, 0)" stroke-linejoin="round" d=" M 367.908, 595.660 372.878, 595.660 367.908, 595.660 " />
            <path fill="none" stroke-width="1.5" stroke-linecap="round" stroke-opacity="1.0" stroke="rgb(0, 0, 0)" stroke-linejoin="round" d=" M 676.105, 595.660 666.105, 595.660 656.092, 595.660 " />
            <path fill="none" stroke-width="1.5" stroke-linecap="round" stroke-opacity="1.0" stroke="rgb(0, 0, 0)" stroke-linejoin="round" d=" M 344.680, 512.000 345.660, 521.952 346.640, 531.904 347.620, 541.856 347.895, 544.643 " />
            <path fill="none" stroke-width="1.5" stroke-linecap="round" stroke-opacity="1.0" stroke="rgb(0, 0, 0)" stroke-linejoin="round" d=" M 347.895, 479.357 346.915, 489.309 345.934, 499.261 344.954, 509.213 344.680, 512.000 " />
            <path fill="none" stroke-width="1.5" stroke-linecap="round" stroke-opacity="1.0" stroke="rgb(0, 0, 0)" stroke-linejoin="round" d=" M 392.711, 629.124 393.687, 630.313 " />
            <path fill="none" stroke-width="1.5" stroke-linecap="round" stroke-opacity="1.0" stroke="rgb(0, 0, 0)" stroke-linejoin="round" d=" M 378.144, 629.124 388.144, 629.124 392.711, 629.124 " />
            <path fill="none" stroke-width="1.5" stroke-linecap="round" stroke-opacity="1.0" stroke="rgb(0, 0, 0)" stroke-linejoin="round" d=" M 367.908, 595.660 357.908, 595.660 347.895, 595.660 " />
            <path fill="none" stroke-width="1.5" stroke-linecap="round" stroke-opacity="1.0" stroke="rgb(0, 0, 0)" stroke-linejoin="round" d=" M 450.495, 595.660 440.495, 595.660 430.495, 595.660 420.495, 595.660 410.495, 595.660 400.495, 595.660 390.495, 595.660 380.495, 595.660 370.495, 595.660 367.908, 595.660 " />
            <path fill="none" stroke-width="1.5" stroke-linecap="round" stroke-opacity="1.0" stroke="rgb(0, 0, 0)" stroke-linejoin="round" d=" M 630.313, 393.687 622.583, 387.343 617.319, 383.023 " />
            <path fill="none" stroke-width="1.5" stroke-linecap="round" stroke-opacity="1.0" stroke="rgb(0, 0, 0)" stroke-linejoin="round" d=" M 631.289, 629.124 641.289, 629.124 645.856, 629.124 " />
            <path fill="none" stroke-width="1.5" stroke-linecap="round" stroke-opacity="1.0" stroke="rgb(0, 0, 0)" stroke-linejoin="round" d=" M 640.977, 406.681 634.633, 398.951 630.313, 393.687 " />
            <path fill="none" stroke-width="1.5" stroke-linecap="round" stroke-opacity="1.0" stroke="rgb(0, 0, 0)" stroke-linejoin="round" d=" M 656.092, 595.660 646.092, 595.660 636.092, 595.660 626.092, 595.660 616.092, 595.660 606.092, 595.660 596.092, 595.660 586.092, 595.660 576.092, 595.660 566.092, 595.660 556.092, 595.660 546.092, 595.660 544.643, 595.660 " />
        </g>
    </g>
    <g id="ViewLayer_TechnicalLines.002" inkscape:groupmode="lineset" inkscape:label="ViewLayer_TechnicalLines.002">
        <g inkscape:groupmode="layer" id="strokes" inkscape:label="strokes">
            <path fill="none" stroke-width="1.5" stroke-linecap="round" stroke-opacity="1.0" stroke="rgb(0, 0, 0)" stroke-linejoin="round" d=" M 383.044, 640.956 385.580, 643.036 388.473, 644.583 391.612, 645.535 394.876, 645.856 398.140, 645.535 401.279, 644.583 404.172, 643.036 406.681, 640.977 " />
            <path fill="none" stroke-width="1.5" stroke-linecap="round" stroke-opacity="1.0" stroke="rgb(0, 0, 0)" stroke-linejoin="round" d=" M 378.144, 629.124 378.465, 632.388 379.417, 635.527 380.964, 638.420 383.044, 640.956 " />
            <path fill="none" stroke-width="1.5" stroke-linecap="round" stroke-opacity="1.0" stroke="rgb(0, 0, 0)" stroke-linejoin="round" d=" M 640.956, 640.956 643.036, 638.420 644.583, 635.527 645.535, 632.388 645.856, 629.124 " />
            <path fill="none" stroke-width="1.5" stroke-linecap="round" stroke-opacity="1.0" stroke="rgb(0, 0, 0)" stroke-linejoin="round" d=" M 617.319, 640.977 619.828, 643.036 622.721, 644.583 625.860, 645.535 629.124, 645.856 632.388, 645.535 635.527, 644.583 638.420, 643.036 640.956, 640.956 " />
            <path fill="none" stroke-width="1.5" stroke-linecap="round" stroke-opacity="1.0" stroke="rgb(0, 0, 0)" stroke-linejoin="round" d=" M 406.681, 383.023 404.172, 380.964 401.279, 379.417 398.140, 378.465 394.876, 378.144 391.612, 378.465 388.473, 379.417 385.580, 380.964 383.044, 383.044 " />
            <path fill="none" stroke-width="1.5" stroke-linecap="round" stroke-opacity="1.0" stroke="rgb(0, 0, 0)" stroke-linejoin="round" d=" M 383.044, 383.044 380.964, 385.580 379.417, 388.473 378.465, 391.612 378.144, 394.876 378.465, 398.140 379.417, 401.279 380.964, 404.172 383.023, 406.681 " />
            <path fill="none" stroke-width="1.5" stroke-linecap="round" stroke-opacity="1.0" stroke="rgb(0, 0, 0)" stroke-linejoin="round" d=" M 640.956, 383.044 638.420, 380.964 635.527, 379.417 632.388, 378.465 629.124, 378.144 625.860, 378.465 622.721, 379.417 619.828, 380.964 617.319, 383.023 " />
            <path fill="none" stroke-width="1.5" stroke-linecap="round" stroke-opacity="1.0" stroke="rgb(0, 0, 0)" stroke-linejoin="round" d=" M 640.977, 406.681 643.036, 404.172 644.583, 401.279 645.535, 398.140 645.856, 394.876 645.535, 391.612 644.583, 388.473 643.036, 385.580 640.956, 383.044 " />
            <path fill="none" stroke-width="1.5" stroke-linecap="round" stroke-opacity="1.0" stroke="rgb(0, 0, 0)" stroke-linejoin="round" d=" M 617.319, 383.023 609.589, 376.679 604.958, 372.878 596.139, 368.164 587.320, 363.450 578.501, 358.736 576.031, 357.416 566.461, 354.513 556.892, 351.611 547.323, 348.708 544.643, 347.895 534.691, 346.915 524.739, 345.934 514.787, 344.954 512.000, 344.680 " />
            <path fill="none" stroke-width="1.5" stroke-linecap="round" stroke-opacity="1.0" stroke="rgb(0, 0, 0)" stroke-linejoin="round" d=" M 679.320, 512.000 678.340, 502.048 677.360, 492.096 676.380, 482.144 676.105, 479.357 673.202, 469.788 670.300, 460.219 667.397, 450.649 666.584, 447.969 661.870, 439.150 657.156, 430.331 652.442, 421.512 651.122, 419.042 644.778, 411.312 640.977, 406.681 " />
            <path fill="none" stroke-width="1.5" stroke-linecap="round" stroke-opacity="1.0" stroke="rgb(0, 0, 0)" stroke-linejoin="round" d=" M 656.092, 595.659 656.093, 595.658 660.807, 586.839 665.521, 578.020 666.584, 576.031 669.487, 566.461 672.389, 556.892 675.292, 547.322 676.105, 544.643 677.085, 534.691 678.066, 524.739 679.046, 514.787 679.320, 512.000 " />
            <path fill="none" stroke-width="1.5" stroke-linecap="round" stroke-opacity="1.0" stroke="rgb(0, 0, 0)" stroke-linejoin="round" d=" M 617.319, 640.977 625.049, 634.633 630.313, 630.313 631.289, 629.124 " />
            <path fill="none" stroke-width="1.5" stroke-linecap="round" stroke-opacity="1.0" stroke="rgb(0, 0, 0)" stroke-linejoin="round" d=" M 544.643, 676.105 554.212, 673.202 563.781, 670.300 573.351, 667.397 576.031, 666.584 584.850, 661.870 593.669, 657.156 602.488, 652.442 604.958, 651.122 612.688, 644.778 617.319, 640.977 " />
            <path fill="none" stroke-width="1.5" stroke-linecap="round" stroke-opacity="1.0" stroke="rgb(0, 0, 0)" stroke-linejoin="round" d=" M 512.000, 679.320 521.952, 678.340 531.904, 677.360 541.856, 676.380 544.643, 676.105 " />
            <path fill="none" stroke-width="1.5" stroke-linecap="round" stroke-opacity="1.0" stroke="rgb(0, 0, 0)" stroke-linejoin="round" d=" M 479.357, 676.105 489.309, 677.085 499.261, 678.066 509.213, 679.046 512.000, 679.320 " />
            <path fill="none" stroke-width="1.5" stroke-linecap="round" stroke-opacity="1.0" stroke="rgb(0, 0, 0)" stroke-linejoin="round" d=" M 447.969, 666.584 457.539, 669.487 467.108, 672.389 476.678, 675.292 479.357, 676.105 " />
            <path fill="none" stroke-width="1.5" stroke-linecap="round" stroke-opacity="1.0" stroke="rgb(0, 0, 0)" stroke-linejoin="round" d=" M 406.681, 640.977 414.411, 647.321 419.042, 651.122 427.861, 655.836 436.680, 660.550 445.499, 665.264 447.969, 666.584 " />
            <path fill="none" stroke-width="1.5" stroke-linecap="round" stroke-opacity="1.0" stroke="rgb(0, 0, 0)" stroke-linejoin="round" d=" M 393.687, 630.313 401.417, 636.657 406.681, 640.977 " />
            <path fill="none" stroke-width="1.5" stroke-linecap="round" stroke-opacity="1.0" stroke="rgb(0, 0, 0)" stroke-linejoin="round" d=" M 347.895, 544.643 350.798, 554.212 353.700, 563.781 356.603, 573.351 357.416, 576.031 " />
            <path fill="none" stroke-width="1.5" stroke-linecap="round" stroke-opacity="1.0" stroke="rgb(0, 0, 0)" stroke-linejoin="round" d=" M 383.023, 406.681 376.679, 414.411 372.878, 419.042 368.164, 427.861 363.450, 436.680 358.736, 445.499 357.416, 447.969 354.513, 457.539 351.611, 467.108 348.708, 476.677 347.895, 479.357 " />
            <path fill="none" stroke-width="1.5" stroke-linecap="round" stroke-opacity="1.0" stroke="rgb(0, 0, 0)" stroke-linejoin="round" d=" M 406.681, 383.023 398.951, 389.367 393.687, 393.687 387.343, 401.417 383.023, 406.681 " />
            <path fill="none" stroke-width="1.5" stroke-linecap="round" stroke-opacity="1.0" stroke="rgb(0, 0, 0)" stroke-linejoin="round" d=" M 512.000, 344.680 502.048, 345.660 492.096, 346.640 482.144, 347.620 479.357, 347.895 469.788, 350.798 460.219, 353.700 450.649, 356.603 447.969, 357.416 439.150, 362.130 430.331, 366.844 421.512, 371.558 419.042, 372.878 411.312, 379.222 406.681, 383.023 " />
            <path fill="none" stroke-width="1.5" stroke-linecap="round" stroke-opacity="1.0" stroke="rgb(0, 0, 0)" stroke-linejoin="round" d=" M 411.608, 629.124 419.042, 629.124 429.042, 629.124 439.042, 629.124 447.969, 629.124 457.969, 629.124 467.969, 629.124 477.969, 629.124 479.357, 629.124 489.357, 629.124 499.357, 629.124 509.357, 629.124 512.000, 629.124 522.000, 629.124 532.000, 629.124 542.000, 629.124 544.643, 629.124 554.643, 629.124 564.643, 629.124 574.643, 629.124 576.031, 629.124 586.031, 629.124 596.031, 629.124 604.958, 629.124 612.392, 629.124 " />
            <path fill="none" stroke-width="1.5" stroke-linecap="round" stroke-opacity="1.0" stroke="rgb(0, 0, 0)" stroke-linejoin="round" d=" M 651.122, 595.660 641.122, 595.660 631.122, 595.660 630.313, 595.660 620.313, 595.660 610.313, 595.660 604.958, 595.660 594.958, 595.660 584.958, 595.660 576.031, 595.660 566.031, 595.660 556.031, 595.660 546.031, 595.660 544.643, 595.660 534.643, 595.660 524.643, 595.660 514.643, 595.660 512.000, 595.660 502.000, 595.660 492.000, 595.660 482.000, 595.660 479.357, 595.660 469.357, 595.660 459.357, 595.660 449.357, 595.660 447.969, 595.660 437.969, 595.660 427.969, 595.660 419.042, 595.660 409.042, 595.660 399.042, 595.660 393.687, 595.660 383.687, 595.660 373.687, 595.660 372.878, 595.660 " />
            <path fill="none" stroke-width="1.5" stroke-linecap="round" stroke-opacity="1.0" stroke="rgb(0, 0, 0)" stroke-linejoin="round" d=" M 612.392, 629.124 622.392, 629.124 630.313, 629.124 631.289, 629.124 " />
            <path fill="none" stroke-width="1.5" stroke-linecap="round" stroke-opacity="1.0" stroke="rgb(0, 0, 0)" stroke-linejoin="round" d=" M 645.856, 629.124 651.122, 629.124 661.122, 629.124 666.584, 629.124 676.105, 629.124 " />
            <path fill="none" stroke-width="1.5" stroke-linecap="round" stroke-opacity="1.0" stroke="rgb(0, 0, 0)" stroke-linejoin="round" d=" M 676.105, 629.124 679.320, 629.124 679.320, 619.124 679.320, 609.124 679.320, 599.124 679.320, 595.660 676.105, 595.660 666.584, 595.660 656.584, 595.660 656.092, 595.660 651.122, 595.660 " />
            <path fill="none" stroke-width="1.5" stroke-linecap="round" stroke-opacity="1.0" stroke="rgb(0, 0, 0)" stroke-linejoin="round" d=" M 656.092, 595.660 666.092, 595.660 666.584, 595.660 676.105, 595.660 " />
            <path fill="none" stroke-width="1.5" stroke-linecap="round" stroke-opacity="1.0" stroke="rgb(0, 0, 0)" stroke-linejoin="round" d=" M 347.895, 595.660 357.416, 595.660 367.416, 595.660 367.908, 595.660 " />
            <path fill="none" stroke-width="1.5" stroke-linecap="round" stroke-opacity="1.0" stroke="rgb(0, 0, 0)" stroke-linejoin="round" d=" M 347.895, 595.660 344.680, 595.660 344.680, 605.660 344.680, 615.660 344.680, 625.660 344.680, 629.124 347.895, 629.124 " />
            <path fill="none" stroke-width="1.5" stroke-linecap="round" stroke-opacity="1.0" stroke="rgb(0, 0, 0)" stroke-linejoin="round" d=" M 372.878, 595.660 367.908, 595.660 357.908, 595.660 357.416, 595.660 347.895, 595.660 " />
            <path fill="none" stroke-width="1.5" stroke-linecap="round" stroke-opacity="1.0" stroke="rgb(0, 0, 0)" stroke-linejoin="round" d=" M 347.895, 629.124 357.416, 629.124 367.416, 629.124 372.878, 629.124 378.144, 629.124 " />
            <path fill="none" stroke-width="1.5" stroke-linecap="round" stroke-opacity="1.0" stroke="rgb(0, 0, 0)" stroke-linejoin="round" d=" M 392.711, 629.124 393.687, 629.124 403.687, 629.124 411.608, 629.124 " />
            <path fill="none" stroke-width="1.5" stroke-linecap="round" stroke-opacity="1.0" stroke="rgb(0, 0, 0)" stroke-linejoin="round" d=" M 367.908, 595.660 372.878, 595.660 367.908, 595.660 " />
            <path fill="none" stroke-width="1.5" stroke-linecap="round" stroke-opacity="1.0" stroke="rgb(0, 0, 0)" stroke-linejoin="round" d=" M 676.105, 595.660 666.105, 595.660 656.092, 595.660 " />
            <path fill="none" stroke-width="1.5" stroke-linecap="round" stroke-opacity="1.0" stroke="rgb(0, 0, 0)" stroke-linejoin="round" d=" M 344.680, 512.000 345.660, 521.952 346.640, 531.904 347.620, 541.856 347.895, 544.643 " />
            <path fill="none" stroke-width="1.5" stroke-linecap="round" stroke-opacity="1.0" stroke="rgb(0, 0, 0)" stroke-linejoin="round" d=" M 347.895, 479.357 346.915, 489.309 345.934, 499.261 344.954, 509.213 344.680, 512.000 " />
            <path fill="none" stroke-width="1.5" stroke-linecap="round" stroke-opacity="1.0" stroke="rgb(0, 0, 0)" stroke-linejoin="round" d=" M 392.711, 629.124 393.687, 630.313 " />
            <path fill="none" stroke-width="1.5" stroke-linecap="round" stroke-opacity="1.0" stroke="rgb(0, 0, 0)" stroke-linejoin="round" d=" M 378.144, 629.124 388.144, 629.124 392.711, 629.124 " />
            <path fill="none" stroke-width="1.5" stroke-linecap="round" stroke-opacity="1.0" stroke="rgb(0, 0, 0)" stroke-linejoin="round" d=" M 367.908, 595.660 357.908, 595.660 347.895, 595.660 " />
            <path fill="none" stroke-width="1.5" stroke-linecap="round" stroke-opacity="1.0" stroke="rgb(0, 0, 0)" stroke-linejoin="round" d=" M 450.495, 595.660 440.495, 595.660 430.495, 595.660 420.495, 595.660 410.495, 595.660 400.495, 595.660 390.495, 595.660 380.495, 595.660 370.495, 595.660 367.908, 595.660 " />
            <path fill="none" stroke-width="1.5" stroke-linecap="round" stroke-opacity="1.0" stroke="rgb(0, 0, 0)" stroke-linejoin="round" d=" M 630.313, 393.687 622.583, 387.343 617.319, 383.023 " />
            <path fill="none" stroke-width="1.5" stroke-linecap="round" stroke-opacity="1.0" stroke="rgb(0, 0, 0)" stroke-linejoin="round" d=" M 631.289, 629.124 641.289, 629.124 645.856, 629.124 " />
            <path fill="none" stroke-width="1.5" stroke-linecap="round" stroke-opacity="1.0" stroke="rgb(0, 0, 0)" stroke-linejoin="round" d=" M 640.977, 406.681 634.633, 398.951 630.313, 393.687 " />
            <path fill="none" stroke-width="1.5" stroke-linecap="round" stroke-opacity="1.0" stroke="rgb(0, 0, 0)" stroke-linejoin="round" d=" M 656.092, 595.660 646.092, 595.660 636.092, 595.660 626.092, 595.660 616.092, 595.660 606.092, 595.660 596.092, 595.660 586.092, 595.660 576.092, 595.660 566.092, 595.660 556.092, 595.660 546.092, 595.660 544.643, 595.660 " />
        </g>
    </g>
    <g id="ViewLayer_TechnicalLines.003" inkscape:groupmode="lineset" inkscape:label="ViewLayer_TechnicalLines.003">
        <g inkscape:groupmode="layer" id="strokes" inkscape:label="strokes">
            <path fill="none" stroke-width="1.5" stroke-linecap="round" stroke-opacity="1.0" stroke="rgb(0, 0, 0)" stroke-linejoin="round" d=" M 383.044, 640.956 385.580, 643.036 388.473, 644.583 391.612, 645.535 394.876, 645.856 398.140, 645.535 401.279, 644.583 404.172, 643.036 406.681, 640.977 " />
            <path fill="none" stroke-width="1.5" stroke-linecap="round" stroke-opacity="1.0" stroke="rgb(0, 0, 0)" stroke-linejoin="round" d=" M 378.144, 629.124 378.465, 632.388 379.417, 635.527 380.964, 638.420 383.044, 640.956 " />
            <path fill="none" stroke-width="1.5" stroke-linecap="round" stroke-opacity="1.0" stroke="rgb(0, 0, 0)" stroke-linejoin="round" d=" M 640.956, 640.956 643.036, 638.420 644.583, 635.527 645.535, 632.388 645.856, 629.124 " />
            <path fill="none" stroke-width="1.5" stroke-linecap="round" stroke-opacity="1.0" stroke="rgb(0, 0, 0)" stroke-linejoin="round" d=" M 617.319, 640.977 619.828, 643.036 622.721, 644.583 625.860, 645.535 629.124, 645.856 632.388, 645.535 635.527, 644.583 638.420, 643.036 640.956, 640.956 " />
            <path fill="none" stroke-width="1.5" stroke-linecap="round" stroke-opacity="1.0" stroke="rgb(0, 0, 0)" stroke-linejoin="round" d=" M 406.681, 383.023 404.172, 380.964 401.279, 379.417 398.140, 378.465 394.876, 378.144 391.612, 378.465 388.473, 379.417 385.580, 380.964 383.044, 383.044 " />
            <path fill="none" stroke-width="1.5" stroke-linecap="round" stroke-opacity="1.0" stroke="rgb(0, 0, 0)" stroke-linejoin="round" d=" M 383.044, 383.044 380.964, 385.580 379.417, 388.473 378.465, 391.612 378.144, 394.876 378.465, 398.140 379.417, 401.279 380.964, 404.172 383.023, 406.681 " />
            <path fill="none" stroke-width="1.5" stroke-linecap="round" stroke-opacity="1.0" stroke="rgb(0, 0, 0)" stroke-linejoin="round" d=" M 640.956, 383.044 638.420, 380.964 635.527, 379.417 632.388, 378.465 629.124, 378.144 625.860, 378.465 622.721, 379.417 619.828, 380.964 617.319, 383.023 " />
            <path fill="none" stroke-width="1.5" stroke-linecap="round" stroke-opacity="1.0" stroke="rgb(0, 0, 0)" stroke-linejoin="round" d=" M 640.977, 406.681 643.036, 404.172 644.583, 401.279 645.535, 398.140 645.856, 394.876 645.535, 391.612 644.583, 388.473 643.036, 385.580 640.956, 383.044 " />
            <path fill="none" stroke-width="1.5" stroke-linecap="round" stroke-opacity="1.0" stroke="rgb(0, 0, 0)" stroke-linejoin="round" d=" M 617.319, 383.023 609.589, 376.679 604.958, 372.878 596.139, 368.164 587.320, 363.450 578.501, 358.736 576.031, 357.416 566.461, 354.513 556.892, 351.611 547.323, 348.708 544.643, 347.895 534.691, 346.915 524.739, 345.934 514.787, 344.954 512.000, 344.680 " />
            <path fill="none" stroke-width="1.5" stroke-linecap="round" stroke-opacity="1.0" stroke="rgb(0, 0, 0)" stroke-linejoin="round" d=" M 679.320, 512.000 678.340, 502.048 677.360, 492.096 676.380, 482.144 676.105, 479.357 673.202, 469.788 670.300, 460.219 667.397, 450.649 666.584, 447.969 661.870, 439.150 657.156, 430.331 652.442, 421.512 651.122, 419.042 644.778, 411.312 640.977, 406.681 " />
            <path fill="none" stroke-width="1.5" stroke-linecap="round" stroke-opacity="1.0" stroke="rgb(0, 0, 0)" stroke-linejoin="round" d=" M 656.092, 595.659 656.093, 595.658 660.807, 586.839 665.521, 578.020 666.584, 576.031 669.487, 566.461 672.389, 556.892 675.292, 547.322 676.105, 544.643 677.085, 534.691 678.066, 524.739 679.046, 514.787 679.320, 512.000 " />
            <path fill="none" stroke-width="1.5" stroke-linecap="round" stroke-opacity="1.0" stroke="rgb(0, 0, 0)" stroke-linejoin="round" d=" M 617.319, 640.977 625.049, 634.633 630.313, 630.313 631.289, 629.124 " />
            <path fill="none" stroke-width="1.5" stroke-linecap="round" stroke-opacity="1.0" stroke="rgb(0, 0, 0)" stroke-linejoin="round" d=" M 544.643, 676.105 554.212, 673.202 563.781, 670.300 573.351, 667.397 576.031, 666.584 584.850, 661.870 593.669, 657.156 602.488, 652.442 604.958, 651.122 612.688, 644.778 617.319, 640.977 " />
            <path fill="none" stroke-width="1.5" stroke-linecap="round" stroke-opacity="1.0" stroke="rgb(0, 0, 0)" stroke-linejoin="round" d=" M 512.000, 679.320 521.952, 678.340 531.904, 677.360 541.856, 676.380 544.643, 676.105 " />
            <path fill="none" stroke-width="1.5" stroke-linecap="round" stroke-opacity="1.0" stroke="rgb(0, 0, 0)" stroke-linejoin="round" d=" M 479.357, 676.105 489.309, 677.085 499.261, 678.066 509.213, 679.046 512.000, 679.320 " />
            <path fill="none" stroke-width="1.5" stroke-linecap="round" stroke-opacity="1.0" stroke="rgb(0, 0, 0)" stroke-linejoin="round" d=" M 447.969, 666.584 457.539, 669.487 467.108, 672.389 476.678, 675.292 479.357, 676.105 " />
            <path fill="none" stroke-width="1.5" stroke-linecap="round" stroke-opacity="1.0" stroke="rgb(0, 0, 0)" stroke-linejoin="round" d=" M 406.681, 640.977 414.411, 647.321 419.042, 651.122 427.861, 655.836 436.680, 660.550 445.499, 665.264 447.969, 666.584 " />
            <path fill="none" stroke-width="1.5" stroke-linecap="round" stroke-opacity="1.0" stroke="rgb(0, 0, 0)" stroke-linejoin="round" d=" M 393.687, 630.313 401.417, 636.657 406.681, 640.977 " />
            <path fill="none" stroke-width="1.5" stroke-linecap="round" stroke-opacity="1.0" stroke="rgb(0, 0, 0)" stroke-linejoin="round" d=" M 347.895, 544.643 350.798, 554.212 353.700, 563.781 356.603, 573.351 357.416, 576.031 " />
            <path fill="none" stroke-width="1.5" stroke-linecap="round" stroke-opacity="1.0" stroke="rgb(0, 0, 0)" stroke-linejoin="round" d=" M 383.023, 406.681 376.679, 414.411 372.878, 419.042 368.164, 427.861 363.450, 436.680 358.736, 445.499 357.416, 447.969 354.513, 457.539 351.611, 467.108 348.708, 476.677 347.895, 479.357 " />
            <path fill="none" stroke-width="1.5" stroke-linecap="round" stroke-opacity="1.0" stroke="rgb(0, 0, 0)" stroke-linejoin="round" d=" M 406.681, 383.023 398.951, 389.367 393.687, 393.687 387.343, 401.417 383.023, 406.681 " />
            <path fill="none" stroke-width="1.5" stroke-linecap="round" stroke-opacity="1.0" stroke="rgb(0, 0, 0)" stroke-linejoin="round" d=" M 512.000, 344.680 502.048, 345.660 492.096, 346.640 482.144, 347.620 479.357, 347.895 469.788, 350.798 460.219, 353.700 450.649, 356.603 447.969, 357.416 439.150, 362.130 430.331, 366.844 421.512, 371.558 419.042, 372.878 411.312, 379.222 406.681, 383.023 " />
            <path fill="none" stroke-width="1.5" stroke-linecap="round" stroke-opacity="1.0" stroke="rgb(0, 0, 0)" stroke-linejoin="round" d=" M 411.608, 629.124 419.042, 629.124 429.042, 629.124 439.042, 629.124 447.969, 629.124 457.969, 629.124 467.969, 629.124 477.969, 629.124 479.357, 629.124 489.357, 629.124 499.357, 629.124 509.357, 629.124 512.000, 629.124 522.000, 629.124 532.000, 629.124 542.000, 629.124 544.643, 629.124 554.643, 629.124 564.643, 629.124 574.643, 629.124 576.031, 629.124 586.031, 629.124 596.031, 629.124 604.958, 629.124 612.392, 629.124 " />
            <path fill="none" stroke-width="1.5" stroke-linecap="round" stroke-opacity="1.0" stroke="rgb(0, 0, 0)" stroke-linejoin="round" d=" M 651.122, 595.660 641.122, 595.660 631.122, 595.660 630.313, 595.660 620.313, 595.660 610.313, 595.660 604.958, 595.660 594.958, 595.660 584.958, 595.660 576.031, 595.660 566.031, 595.660 556.031, 595.660 546.031, 595.660 544.643, 595.660 534.643, 595.660 524.643, 595.660 514.643, 595.660 512.000, 595.660 502.000, 595.660 492.000, 595.660 482.000, 595.660 479.357, 595.660 469.357, 595.660 459.357, 595.660 449.357, 595.660 447.969, 595.660 437.969, 595.660 427.969, 595.660 419.042, 595.660 409.042, 595.660 399.042, 595.660 393.687, 595.660 383.687, 595.660 373.687, 595.660 372.878, 595.660 " />
            <path fill="none" stroke-width="1.5" stroke-linecap="round" stroke-opacity="1.0" stroke="rgb(0, 0, 0)" stroke-linejoin="round" d=" M 612.392, 629.124 622.392, 629.124 630.313, 629.124 631.289, 629.124 " />
            <path fill="none" stroke-width="1.5" stroke-linecap="round" stroke-opacity="1.0" stroke="rgb(0, 0, 0)" stroke-linejoin="round" d=" M 645.856, 629.124 651.122, 629.124 661.122, 629.124 666.584, 629.124 676.105, 629.124 " />
            <path fill="none" stroke-width="1.5" stroke-linecap="round" stroke-opacity="1.0" stroke="rgb(0, 0, 0)" stroke-linejoin="round" d=" M 676.105, 629.124 679.320, 629.124 679.320, 619.124 679.320, 609.124 679.320, 599.124 679.320, 595.660 676.105, 595.660 666.584, 595.660 656.584, 595.660 656.092, 595.660 651.122, 595.660 " />
            <path fill="none" stroke-width="1.5" stroke-linecap="round" stroke-opacity="1.0" stroke="rgb(0, 0, 0)" stroke-linejoin="round" d=" M 656.092, 595.660 666.092, 595.660 666.584, 595.660 676.105, 595.660 " />
            <path fill="none" stroke-width="1.5" stroke-linecap="round" stroke-opacity="1.0" stroke="rgb(0, 0, 0)" stroke-linejoin="round" d=" M 347.895, 595.660 357.416, 595.660 367.416, 595.660 367.908, 595.660 " />
            <path fill="none" stroke-width="1.5" stroke-linecap="round" stroke-opacity="1.0" stroke="rgb(0, 0, 0)" stroke-linejoin="round" d=" M 347.895, 595.660 344.680, 595.660 344.680, 605.660 344.680, 615.660 344.680, 625.660 344.680, 629.124 347.895, 629.124 " />
            <path fill="none" stroke-width="1.5" stroke-linecap="round" stroke-opacity="1.0" stroke="rgb(0, 0, 0)" stroke-linejoin="round" d=" M 372.878, 595.660 367.908, 595.660 357.908, 595.660 357.416, 595.660 347.895, 595.660 " />
            <path fill="none" stroke-width="1.5" stroke-linecap="round" stroke-opacity="1.0" stroke="rgb(0, 0, 0)" stroke-linejoin="round" d=" M 347.895, 629.124 357.416, 629.124 367.416, 629.124 372.878, 629.124 378.144, 629.124 " />
            <path fill="none" stroke-width="1.5" stroke-linecap="round" stroke-opacity="1.0" stroke="rgb(0, 0, 0)" stroke-linejoin="round" d=" M 392.711, 629.124 393.687, 629.124 403.687, 629.124 411.608, 629.124 " />
            <path fill="none" stroke-width="1.5" stroke-linecap="round" stroke-opacity="1.0" stroke="rgb(0, 0, 0)" stroke-linejoin="round" d=" M 367.908, 595.660 372.878, 595.660 367.908, 595.660 " />
            <path fill="none" stroke-width="1.5" stroke-linecap="round" stroke-opacity="1.0" stroke="rgb(0, 0, 0)" stroke-linejoin="round" d=" M 676.105, 595.660 666.105, 595.660 656.092, 595.660 " />
            <path fill="none" stroke-width="1.5" stroke-linecap="round" stroke-opacity="1.0" stroke="rgb(0, 0, 0)" stroke-linejoin="round" d=" M 344.680, 512.000 345.660, 521.952 346.640, 531.904 347.620, 541.856 347.895, 544.643 " />
            <path fill="none" stroke-width="1.5" stroke-linecap="round" stroke-opacity="1.0" stroke="rgb(0, 0, 0)" stroke-linejoin="round" d=" M 347.895, 479.357 346.915, 489.309 345.934, 499.261 344.954, 509.213 344.680, 512.000 " />
            <path fill="none" stroke-width="1.5" stroke-linecap="round" stroke-opacity="1.0" stroke="rgb(0, 0, 0)" stroke-linejoin="round" d=" M 392.711, 629.124 393.687, 630.313 " />
            <path fill="none" stroke-width="1.5" stroke-linecap="round" stroke-opacity="1.0" stroke="rgb(0, 0, 0)" stroke-linejoin="round" d=" M 378.144, 629.124 388.144, 629.124 392.711, 629.124 " />
            <path fill="none" stroke-width="1.5" stroke-linecap="round" stroke-opacity="1.0" stroke="rgb(0, 0, 0)" stroke-linejoin="round" d=" M 367.908, 595.660 357.908, 595.660 347.895, 595.660 " />
            <path fill="none" stroke-width="1.5" stroke-linecap="round" stroke-opacity="1.0" stroke="rgb(0, 0, 0)" stroke-linejoin="round" d=" M 450.495, 595.660 440.495, 595.660 430.495, 595.660 420.495, 595.660 410.495, 595.660 400.495, 595.660 390.495, 595.660 380.495, 595.660 370.495, 595.660 367.908, 595.660 " />
            <path fill="none" stroke-width="1.5" stroke-linecap="round" stroke-opacity="1.0" stroke="rgb(0, 0, 0)" stroke-linejoin="round" d=" M 630.313, 393.687 622.583, 387.343 617.319, 383.023 " />
            <path fill="none" stroke-width="1.5" stroke-linecap="round" stroke-opacity="1.0" stroke="rgb(0, 0, 0)" stroke-linejoin="round" d=" M 631.289, 629.124 641.289, 629.124 645.856, 629.124 " />
            <path fill="none" stroke-width="1.5" stroke-linecap="round" stroke-opacity="1.0" stroke="rgb(0, 0, 0)" stroke-linejoin="round" d=" M 640.977, 406.681 634.633, 398.951 630.313, 393.687 " />
            <path fill="none" stroke-width="1.5" stroke-linecap="round" stroke-opacity="1.0" stroke="rgb(0, 0, 0)" stroke-linejoin="round" d=" M 656.092, 595.660 646.092, 595.660 636.092, 595.660 626.092, 595.660 616.092, 595.660 606.092, 595.660 596.092, 595.660 586.092, 595.660 576.092, 595.660 566.092, 595.660 556.092, 595.660 546.092, 595.660 544.643, 595.660 " />
        </g>
    </g>
    <g id="ViewLayer_TechnicalLines.004" xmlns:inkscape="http://www.inkscape.org/namespaces/inkscape" inkscape:groupmode="lineset" inkscape:label="ViewLayer_TechnicalLines.004">
        <g xmlns:inkscape="http://www.inkscape.org/namespaces/inkscape" inkscape:groupmode="layer" id="strokes" inkscape:label="strokes">
            <path fill="none" stroke-width="1.5" stroke-linecap="round" stroke-opacity="1.0" stroke="rgb(0, 0, 0)" stroke-linejoin="round" d=" M 383.044, 640.956 385.580, 643.036 388.473, 644.583 391.612, 645.535 394.876, 645.856 398.140, 645.535 401.279, 644.583 404.172, 643.036 406.681, 640.977 " />
            <path fill="none" stroke-width="1.5" stroke-linecap="round" stroke-opacity="1.0" stroke="rgb(0, 0, 0)" stroke-linejoin="round" d=" M 378.144, 629.124 378.465, 632.388 379.417, 635.527 380.964, 638.420 383.044, 640.956 " />
            <path fill="none" stroke-width="1.5" stroke-linecap="round" stroke-opacity="1.0" stroke="rgb(0, 0, 0)" stroke-linejoin="round" d=" M 640.956, 640.956 643.036, 638.420 644.583, 635.527 645.535, 632.388 645.856, 629.124 " />
            <path fill="none" stroke-width="1.5" stroke-linecap="round" stroke-opacity="1.0" stroke="rgb(0, 0, 0)" stroke-linejoin="round" d=" M 617.319, 640.977 619.828, 643.036 622.721, 644.583 625.860, 645.535 629.124, 645.856 632.388, 645.535 635.527, 644.583 638.420, 643.036 640.956, 640.956 " />
            <path fill="none" stroke-width="1.5" stroke-linecap="round" stroke-opacity="1.0" stroke="rgb(0, 0, 0)" stroke-linejoin="round" d=" M 406.681, 383.023 404.172, 380.964 401.279, 379.417 398.140, 378.465 394.876, 378.144 391.612, 378.465 388.473, 379.417 385.580, 380.964 383.044, 383.044 " />
            <path fill="none" stroke-width="1.5" stroke-linecap="round" stroke-opacity="1.0" stroke="rgb(0, 0, 0)" stroke-linejoin="round" d=" M 383.044, 383.044 380.964, 385.580 379.417, 388.473 378.465, 391.612 378.144, 394.876 378.465, 398.140 379.417, 401.279 380.964, 404.172 383.023, 406.681 " />
            <path fill="none" stroke-width="1.5" stroke-linecap="round" stroke-opacity="1.0" stroke="rgb(0, 0, 0)" stroke-linejoin="round" d=" M 640.956, 383.044 638.420, 380.964 635.527, 379.417 632.388, 378.465 629.124, 378.144 625.860, 378.465 622.721, 379.417 619.828, 380.964 617.319, 383.023 " />
            <path fill="none" stroke-width="1.5" stroke-linecap="round" stroke-opacity="1.0" stroke="rgb(0, 0, 0)" stroke-linejoin="round" d=" M 640.977, 406.681 643.036, 404.172 644.583, 401.279 645.535, 398.140 645.856, 394.876 645.535, 391.612 644.583, 388.473 643.036, 385.580 640.956, 383.044 " />
            <path fill="none" stroke-width="1.5" stroke-linecap="round" stroke-opacity="1.0" stroke="rgb(0, 0, 0)" stroke-linejoin="round" d=" M 617.319, 383.023 609.589, 376.679 604.958, 372.878 596.139, 368.164 587.320, 363.450 578.501, 358.736 576.031, 357.416 566.461, 354.513 556.892, 351.611 547.323, 348.708 544.643, 347.895 534.691, 346.915 524.739, 345.934 514.787, 344.954 512.000, 344.680 " />
            <path fill="none" stroke-width="1.5" stroke-linecap="round" stroke-opacity="1.0" stroke="rgb(0, 0, 0)" stroke-linejoin="round" d=" M 679.320, 512.000 678.340, 502.048 677.360, 492.096 676.380, 482.144 676.105, 479.357 673.202, 469.788 670.300, 460.219 667.397, 450.649 666.584, 447.969 661.870, 439.150 657.156, 430.331 652.442, 421.512 651.122, 419.042 644.778, 411.312 640.977, 406.681 " />
            <path fill="none" stroke-width="1.5" stroke-linecap="round" stroke-opacity="1.0" stroke="rgb(0, 0, 0)" stroke-linejoin="round" d=" M 656.092, 595.659 656.093, 595.658 660.807, 586.839 665.521, 578.020 666.584, 576.031 669.487, 566.461 672.389, 556.892 675.292, 547.322 676.105, 544.643 677.085, 534.691 678.066, 524.739 679.046, 514.787 679.320, 512.000 " />
            <path fill="none" stroke-width="1.5" stroke-linecap="round" stroke-opacity="1.0" stroke="rgb(0, 0, 0)" stroke-linejoin="round" d=" M 617.319, 640.977 625.049, 634.633 630.313, 630.313 631.289, 629.124 " />
            <path fill="none" stroke-width="1.5" stroke-linecap="round" stroke-opacity="1.0" stroke="rgb(0, 0, 0)" stroke-linejoin="round" d=" M 544.643, 676.105 554.212, 673.202 563.781, 670.300 573.351, 667.397 576.031, 666.584 584.850, 661.870 593.669, 657.156 602.488, 652.442 604.958, 651.122 612.688, 644.778 617.319, 640.977 " />
            <path fill="none" stroke-width="1.5" stroke-linecap="round" stroke-opacity="1.0" stroke="rgb(0, 0, 0)" stroke-linejoin="round" d=" M 512.000, 679.320 521.952, 678.340 531.904, 677.360 541.856, 676.380 544.643, 676.105 " />
            <path fill="none" stroke-width="1.5" stroke-linecap="round" stroke-opacity="1.0" stroke="rgb(0, 0, 0)" stroke-linejoin="round" d=" M 479.357, 676.105 489.309, 677.085 499.261, 678.066 509.213, 679.046 512.000, 679.320 " />
            <path fill="none" stroke-width="1.5" stroke-linecap="round" stroke-opacity="1.0" stroke="rgb(0, 0, 0)" stroke-linejoin="round" d=" M 447.969, 666.584 457.539, 669.487 467.108, 672.389 476.678, 675.292 479.357, 676.105 " />
            <path fill="none" stroke-width="1.5" stroke-linecap="round" stroke-opacity="1.0" stroke="rgb(0, 0, 0)" stroke-linejoin="round" d=" M 406.681, 640.977 414.411, 647.321 419.042, 651.122 427.861, 655.836 436.680, 660.550 445.499, 665.264 447.969, 666.584 " />
            <path fill="none" stroke-width="1.5" stroke-linecap="round" stroke-opacity="1.0" stroke="rgb(0, 0, 0)" stroke-linejoin="round" d=" M 393.687, 630.313 401.417, 636.657 406.681, 640.977 " />
            <path fill="none" stroke-width="1.5" stroke-linecap="round" stroke-opacity="1.0" stroke="rgb(0, 0, 0)" stroke-linejoin="round" d=" M 347.895, 544.643 350.798, 554.212 353.700, 563.781 356.603, 573.351 357.416, 576.031 " />
            <path fill="none" stroke-width="1.5" stroke-linecap="round" stroke-opacity="1.0" stroke="rgb(0, 0, 0)" stroke-linejoin="round" d=" M 383.023, 406.681 376.679, 414.411 372.878, 419.042 368.164, 427.861 363.450, 436.680 358.736, 445.499 357.416, 447.969 354.513, 457.539 351.611, 467.108 348.708, 476.677 347.895, 479.357 " />
            <path fill="none" stroke-width="1.5" stroke-linecap="round" stroke-opacity="1.0" stroke="rgb(0, 0, 0)" stroke-linejoin="round" d=" M 406.681, 383.023 398.951, 389.367 393.687, 393.687 387.343, 401.417 383.023, 406.681 " />
            <path fill="none" stroke-width="1.5" stroke-linecap="round" stroke-opacity="1.0" stroke="rgb(0, 0, 0)" stroke-linejoin="round" d=" M 512.000, 344.680 502.048, 345.660 492.096, 346.640 482.144, 347.620 479.357, 347.895 469.788, 350.798 460.219, 353.700 450.649, 356.603 447.969, 357.416 439.150, 362.130 430.331, 366.844 421.512, 371.558 419.042, 372.878 411.312, 379.222 406.681, 383.023 " />
            <path fill="none" stroke-width="1.5" stroke-linecap="round" stroke-opacity="1.0" stroke="rgb(0, 0, 0)" stroke-linejoin="round" d=" M 411.608, 629.124 419.042, 629.124 429.042, 629.124 439.042, 629.124 447.969, 629.124 457.969, 629.124 467.969, 629.124 477.969, 629.124 479.357, 629.124 489.357, 629.124 499.357, 629.124 509.357, 629.124 512.000, 629.124 522.000, 629.124 532.000, 629.124 542.000, 629.124 544.643, 629.124 554.643, 629.124 564.643, 629.124 574.643, 629.124 576.031, 629.124 586.031, 629.124 596.031, 629.124 604.958, 629.124 612.392, 629.124 " />
            <path fill="none" stroke-width="1.5" stroke-linecap="round" stroke-opacity="1.0" stroke="rgb(0, 0, 0)" stroke-linejoin="round" d=" M 651.122, 595.660 641.122, 595.660 631.122, 595.660 630.313, 595.660 620.313, 595.660 610.313, 595.660 604.958, 595.660 594.958, 595.660 584.958, 595.660 576.031, 595.660 566.031, 595.660 556.031, 595.660 546.031, 595.660 544.643, 595.660 534.643, 595.660 524.643, 595.660 514.643, 595.660 512.000, 595.660 502.000, 595.660 492.000, 595.660 482.000, 595.660 479.357, 595.660 469.357, 595.660 459.357, 595.660 449.357, 595.660 447.969, 595.660 437.969, 595.660 427.969, 595.660 419.042, 595.660 409.042, 595.660 399.042, 595.660 393.687, 595.660 383.687, 595.660 373.687, 595.660 372.878, 595.660 " />
            <path fill="none" stroke-width="1.5" stroke-linecap="round" stroke-opacity="1.0" stroke="rgb(0, 0, 0)" stroke-linejoin="round" d=" M 612.392, 629.124 622.392, 629.124 630.313, 629.124 631.289, 629.124 " />
            <path fill="none" stroke-width="1.5" stroke-linecap="round" stroke-opacity="1.0" stroke="rgb(0, 0, 0)" stroke-linejoin="round" d=" M 645.856, 629.124 651.122, 629.124 661.122, 629.124 666.584, 629.124 676.105, 629.124 " />
            <path fill="none" stroke-width="1.5" stroke-linecap="round" stroke-opacity="1.0" stroke="rgb(0, 0, 0)" stroke-linejoin="round" d=" M 676.105, 629.124 679.320, 629.124 679.320, 619.124 679.320, 609.124 679.320, 599.124 679.320, 595.660 676.105, 595.660 666.584, 595.660 656.584, 595.660 656.092, 595.660 651.122, 595.660 " />
            <path fill="none" stroke-width="1.5" stroke-linecap="round" stroke-opacity="1.0" stroke="rgb(0, 0, 0)" stroke-linejoin="round" d=" M 656.092, 595.660 666.092, 595.660 666.584, 595.660 676.105, 595.660 " />
            <path fill="none" stroke-width="1.5" stroke-linecap="round" stroke-opacity="1.0" stroke="rgb(0, 0, 0)" stroke-linejoin="round" d=" M 347.895, 595.660 357.416, 595.660 367.416, 595.660 367.908, 595.660 " />
            <path fill="none" stroke-width="1.5" stroke-linecap="round" stroke-opacity="1.0" stroke="rgb(0, 0, 0)" stroke-linejoin="round" d=" M 347.895, 595.660 344.680, 595.660 344.680, 605.660 344.680, 615.660 344.680, 625.660 344.680, 629.124 347.895, 629.124 " />
            <path fill="none" stroke-width="1.5" stroke-linecap="round" stroke-opacity="1.0" stroke="rgb(0, 0, 0)" stroke-linejoin="round" d=" M 372.878, 595.660 367.908, 595.660 357.908, 595.660 357.416, 595.660 347.895, 595.660 " />
            <path fill="none" stroke-width="1.5" stroke-linecap="round" stroke-opacity="1.0" stroke="rgb(0, 0, 0)" stroke-linejoin="round" d=" M 347.895, 629.124 357.416, 629.124 367.416, 629.124 372.878, 629.124 378.144, 629.124 " />
            <path fill="none" stroke-width="1.5" stroke-linecap="round" stroke-opacity="1.0" stroke="rgb(0, 0, 0)" stroke-linejoin="round" d=" M 392.711, 629.124 393.687, 629.124 403.687, 629.124 411.608, 629.124 " />
            <path fill="none" stroke-width="1.5" stroke-linecap="round" stroke-opacity="1.0" stroke="rgb(0, 0, 0)" stroke-linejoin="round" d=" M 367.908, 595.660 372.878, 595.660 367.908, 595.660 " />
            <path fill="none" stroke-width="1.5" stroke-linecap="round" stroke-opacity="1.0" stroke="rgb(0, 0, 0)" stroke-linejoin="round" d=" M 676.105, 595.660 666.105, 595.660 656.092, 595.660 " />
            <path fill="none" stroke-width="1.5" stroke-linecap="round" stroke-opacity="1.0" stroke="rgb(0, 0, 0)" stroke-linejoin="round" d=" M 344.680, 512.000 345.660, 521.952 346.640, 531.904 347.620, 541.856 347.895, 544.643 " />
            <path fill="none" stroke-width="1.5" stroke-linecap="round" stroke-opacity="1.0" stroke="rgb(0, 0, 0)" stroke-linejoin="round" d=" M 347.895, 479.357 346.915, 489.309 345.934, 499.261 344.954, 509.213 344.680, 512.000 " />
            <path fill="none" stroke-width="1.5" stroke-linecap="round" stroke-opacity="1.0" stroke="rgb(0, 0, 0)" stroke-linejoin="round" d=" M 392.711, 629.124 393.687, 630.313 " />
            <path fill="none" stroke-width="1.5" stroke-linecap="round" stroke-opacity="1.0" stroke="rgb(0, 0, 0)" stroke-linejoin="round" d=" M 378.144, 629.124 388.144, 629.124 392.711, 629.124 " />
            <path fill="none" stroke-width="1.5" stroke-linecap="round" stroke-opacity="1.0" stroke="rgb(0, 0, 0)" stroke-linejoin="round" d=" M 367.908, 595.660 357.908, 595.660 347.895, 595.660 " />
            <path fill="none" stroke-width="1.5" stroke-linecap="round" stroke-opacity="1.0" stroke="rgb(0, 0, 0)" stroke-linejoin="round" d=" M 450.495, 595.660 440.495, 595.660 430.495, 595.660 420.495, 595.660 410.495, 595.660 400.495, 595.660 390.495, 595.660 380.495, 595.660 370.495, 595.660 367.908, 595.660 " />
            <path fill="none" stroke-width="1.5" stroke-linecap="round" stroke-opacity="1.0" stroke="rgb(0, 0, 0)" stroke-linejoin="round" d=" M 630.313, 393.687 622.583, 387.343 617.319, 383.023 " />
            <path fill="none" stroke-width="1.5" stroke-linecap="round" stroke-opacity="1.0" stroke="rgb(0, 0, 0)" stroke-linejoin="round" d=" M 631.289, 629.124 641.289, 629.124 645.856, 629.124 " />
            <path fill="none" stroke-width="1.5" stroke-linecap="round" stroke-opacity="1.0" stroke="rgb(0, 0, 0)" stroke-linejoin="round" d=" M 640.977, 406.681 634.633, 398.951 630.313, 393.687 " />
            <path fill="none" stroke-width="1.5" stroke-linecap="round" stroke-opacity="1.0" stroke="rgb(0, 0, 0)" stroke-linejoin="round" d=" M 656.092, 595.660 646.092, 595.660 636.092, 595.660 626.092, 595.660 616.092, 595.660 606.092, 595.660 596.092, 595.660 586.092, 595.660 576.092, 595.660 566.092, 595.660 556.092, 595.660 546.092, 595.660 544.643, 595.660 " />
        </g>
    </g>
</svg>
