<?xml version='1.0' encoding='ascii'?>
<svg xmlns="http://www.w3.org/2000/svg" xmlns:inkscape="http://www.inkscape.org/namespaces/inkscape" version="1.1" width="1024" height="1024">
    <g id="ViewLayer_LineSet" inkscape:groupmode="lineset" inkscape:label="ViewLayer_LineSet">
        <g inkscape:groupmode="layer" id="strokes" inkscape:label="strokes">
            <path fill="none" stroke-width="3.0" stroke-linecap="butt" stroke-opacity="1.0" stroke="rgb(0, 0, 0)" stroke-linejoin="round" d=" M 661.333, 696.889 661.333, 696.889 " />
            <path fill="none" stroke-width="3.0" stroke-linecap="butt" stroke-opacity="1.0" stroke="rgb(0, 0, 0)" stroke-linejoin="round" d=" M 376.889, 640.000 376.889, 640.000 376.889, 650.000 376.889, 660.000 376.889, 670.000 376.889, 680.000 376.889, 690.000 376.889, 696.889 " />
            <path fill="none" stroke-width="3.0" stroke-linecap="butt" stroke-opacity="1.0" stroke="rgb(0, 0, 0)" stroke-linejoin="round" d=" M 376.889, 696.889 376.889, 696.889 " />
            <path fill="none" stroke-width="3.0" stroke-linecap="butt" stroke-opacity="1.0" stroke="rgb(0, 0, 0)" stroke-linejoin="round" d=" M 419.556, 597.333 419.556, 587.333 419.556, 577.333 419.556, 567.333 419.556, 557.333 419.556, 547.333 419.556, 537.333 419.556, 527.333 419.556, 517.333 419.556, 507.333 419.556, 497.333 419.556, 487.333 419.556, 477.333 419.556, 467.333 419.556, 457.333 419.556, 447.333 419.556, 437.333 419.556, 427.333 419.556, 417.333 419.556, 407.333 419.556, 397.333 419.556, 387.333 419.556, 377.333 419.556, 367.333 419.556, 357.333 419.556, 347.333 419.556, 337.333 419.556, 327.333 419.556, 317.333 419.556, 307.333 419.556, 297.333 419.556, 287.333 419.556, 277.333 419.556, 267.333 419.556, 257.333 419.556, 247.333 419.556, 237.333 419.556, 227.556 419.556, 227.556 409.556, 227.556 399.556, 227.556 389.556, 227.556 379.556, 227.556 369.556, 227.556 362.667, 227.556 362.667, 237.556 362.667, 247.556 362.667, 257.556 362.667, 267.556 362.667, 277.556 362.667, 287.556 362.667, 297.556 362.667, 307.556 362.667, 317.556 362.667, 327.556 362.667, 337.556 362.667, 347.556 362.667, 357.556 362.667, 367.556 362.667, 377.556 362.667, 387.556 362.667, 397.556 362.667, 407.556 362.667, 417.556 362.667, 427.556 362.667, 437.556 362.667, 447.556 362.667, 457.556 362.667, 467.556 362.667, 477.556 362.667, 487.556 362.667, 497.556 362.667, 507.556 362.667, 517.556 362.667, 527.556 362.667, 537.556 362.667, 547.556 362.667, 557.556 362.667, 567.556 362.667, 577.556 362.667, 587.556 362.667, 597.556 362.667, 607.556 362.667, 617.556 362.667, 627.556 362.667, 637.556 362.667, 647.556 362.667, 657.556 362.667, 667.556 362.667, 677.556 362.667, 687.556 362.667, 697.556 362.667, 707.556 362.667, 717.556 362.667, 727.556 362.667, 737.556 362.667, 747.556 362.667, 757.556 362.667, 767.556 362.667, 777.556 362.667, 787.556 362.667, 796.444 362.667, 796.444 372.667, 796.444 382.667, 796.444 392.667, 796.444 402.667, 796.444 412.667, 796.444 419.556, 796.444 419.556, 786.444 419.556, 776.444 419.556, 766.444 419.556, 756.444 419.556, 746.444 419.556, 736.444 419.556, 726.444 419.556, 716.444 419.556, 711.111 " />
            <path fill="none" stroke-width="3.0" stroke-linecap="butt" stroke-opacity="1.0" stroke="rgb(0, 0, 0)" stroke-linejoin="round" d=" M 419.556, 227.556 419.556, 237.556 419.556, 247.556 419.556, 257.556 419.556, 267.556 419.556, 277.556 419.556, 287.556 419.556, 297.556 419.556, 307.556 419.556, 317.556 419.556, 327.556 419.556, 337.556 419.556, 347.556 419.556, 357.556 419.556, 367.556 419.556, 377.556 419.556, 387.556 419.556, 397.556 419.556, 407.556 419.556, 417.556 419.556, 427.556 419.556, 437.556 419.556, 447.556 419.556, 457.556 419.556, 467.556 419.556, 477.556 419.556, 487.556 419.556, 497.556 419.556, 507.556 419.556, 517.556 419.556, 527.556 419.556, 537.556 419.556, 547.556 419.556, 557.556 419.556, 567.556 419.556, 577.556 419.556, 587.556 419.556, 597.333 " />
            <path fill="none" stroke-width="3.0" stroke-linecap="butt" stroke-opacity="1.0" stroke="rgb(0, 0, 0)" stroke-linejoin="round" d=" M 419.556, 796.444 419.556, 796.444 " />
            <path fill="none" stroke-width="3.0" stroke-linecap="butt" stroke-opacity="1.0" stroke="rgb(0, 0, 0)" stroke-linejoin="round" d=" M 362.667, 796.444 372.667, 796.444 382.667, 796.444 392.667, 796.444 402.667, 796.444 412.667, 796.444 419.556, 796.444 419.556, 786.444 419.556, 776.444 419.556, 766.444 419.556, 756.444 419.556, 746.444 419.556, 736.444 419.556, 726.444 419.556, 716.444 419.556, 711.111 419.556, 711.111 " />
            <path fill="none" stroke-width="3.0" stroke-linecap="butt" stroke-opacity="1.0" stroke="rgb(0, 0, 0)" stroke-linejoin="round" d=" M 419.556, 711.111 419.556, 711.111 429.556, 711.111 439.556, 711.111 449.556, 711.111 459.556, 711.111 469.556, 711.111 479.556, 711.111 489.556, 711.111 499.556, 711.111 509.556, 711.111 519.556, 711.111 529.556, 711.111 539.556, 711.111 549.556, 711.111 559.556, 711.111 569.556, 711.111 579.556, 711.111 589.556, 711.111 599.556, 711.111 609.556, 711.111 619.556, 711.111 629.556, 711.111 639.556, 711.111 649.556, 711.111 661.333, 711.111 661.333, 701.111 661.333, 696.889 " />
            <path fill="none" stroke-width="3.0" stroke-linecap="butt" stroke-opacity="1.0" stroke="rgb(0, 0, 0)" stroke-linejoin="round" d=" M 661.333, 711.111 661.333, 701.111 661.333, 696.889 661.333, 696.889 661.333, 686.889 661.333, 676.889 661.333, 666.889 661.333, 656.889 661.333, 646.889 661.333, 640.000 661.333, 640.000 661.333, 630.000 661.333, 620.000 661.333, 610.000 661.333, 600.000 661.333, 597.333 " />
            <path fill="none" stroke-width="3.0" stroke-linecap="butt" stroke-opacity="1.0" stroke="rgb(0, 0, 0)" stroke-linejoin="round" d=" M 376.889, 597.333 376.889, 607.333 376.889, 617.333 376.889, 627.333 376.889, 637.333 376.889, 640.000 376.889, 640.000 376.889, 650.000 376.889, 660.000 376.889, 670.000 376.889, 680.000 376.889, 690.000 376.889, 696.889 376.889, 696.889 376.889, 706.889 376.889, 711.111 " />
            <path fill="none" stroke-width="3.0" stroke-linecap="butt" stroke-opacity="1.0" stroke="rgb(0, 0, 0)" stroke-linejoin="round" d=" M 376.889, 711.111 386.889, 711.111 396.889, 711.111 406.889, 711.111 416.889, 711.111 419.556, 711.111 419.556, 711.111 429.556, 711.111 439.556, 711.111 449.556, 711.111 459.556, 711.111 469.556, 711.111 479.556, 711.111 489.556, 711.111 499.556, 711.111 509.556, 711.111 519.556, 711.111 529.556, 711.111 539.556, 711.111 549.556, 711.111 559.556, 711.111 569.556, 711.111 579.556, 711.111 589.556, 711.111 599.556, 711.111 609.556, 711.111 619.556, 711.111 629.556, 711.111 639.556, 711.111 649.556, 711.111 661.333, 711.111 " />
            <path fill="none" stroke-width="3.0" stroke-linecap="butt" stroke-opacity="1.0" stroke="rgb(0, 0, 0)" stroke-linejoin="round" d=" M 376.889, 711.111 376.889, 711.111 " />
            <path fill="none" stroke-width="3.0" stroke-linecap="butt" stroke-opacity="1.0" stroke="rgb(0, 0, 0)" stroke-linejoin="round" d=" M 661.333, 597.333 661.333, 597.333 " />
            <path fill="none" stroke-width="3.0" stroke-linecap="butt" stroke-opacity="1.0" stroke="rgb(0, 0, 0)" stroke-linejoin="round" d=" M 661.333, 597.333 651.333, 597.333 641.333, 597.333 631.333, 597.333 621.333, 597.333 611.333, 597.333 601.333, 597.333 591.333, 597.333 581.333, 597.333 571.333, 597.333 561.333, 597.333 551.333, 597.333 541.333, 597.333 531.333, 597.333 521.333, 597.333 511.333, 597.333 501.333, 597.333 491.333, 597.333 481.333, 597.333 471.333, 597.333 461.333, 597.333 451.333, 597.333 441.333, 597.333 431.333, 597.333 419.556, 597.333 419.556, 597.333 409.556, 597.333 399.556, 597.333 389.556, 597.333 379.556, 597.333 376.889, 597.333 " />
            <path fill="none" stroke-width="3.0" stroke-linecap="butt" stroke-opacity="1.0" stroke="rgb(0, 0, 0)" stroke-linejoin="round" d=" M 661.333, 640.000 661.333, 640.000 " />
            <path fill="none" stroke-width="3.0" stroke-linecap="butt" stroke-opacity="1.0" stroke="rgb(0, 0, 0)" stroke-linejoin="round" d=" M 661.333, 640.000 661.333, 630.000 661.333, 620.000 661.333, 610.000 661.333, 600.000 661.333, 597.333 " />
            <path fill="none" stroke-width="3.0" stroke-linecap="butt" stroke-opacity="1.0" stroke="rgb(0, 0, 0)" stroke-linejoin="round" d=" M 661.333, 696.889 661.333, 686.889 661.333, 676.889 661.333, 666.889 661.333, 656.889 661.333, 646.889 661.333, 640.000 " />
            <path fill="none" stroke-width="3.0" stroke-linecap="butt" stroke-opacity="1.0" stroke="rgb(0, 0, 0)" stroke-linejoin="round" d=" M 661.333, 597.333 661.333, 597.333 " />
        </g>
    </g>
    <g id="ViewLayer_TechnicalLines" inkscape:groupmode="lineset" inkscape:label="ViewLayer_TechnicalLines">
        <g inkscape:groupmode="layer" id="strokes" inkscape:label="strokes">
            <path fill="none" stroke-width="3.0" stroke-linecap="butt" stroke-opacity="1.0" stroke="rgb(0, 0, 0)" stroke-linejoin="round" d=" M 661.333, 696.889 661.333, 696.889 " />
            <path fill="none" stroke-width="3.0" stroke-linecap="butt" stroke-opacity="1.0" stroke="rgb(0, 0, 0)" stroke-linejoin="round" d=" M 376.889, 640.000 376.889, 640.000 376.889, 650.000 376.889, 660.000 376.889, 670.000 376.889, 680.000 376.889, 690.000 376.889, 696.889 " />
            <path fill="none" stroke-width="3.0" stroke-linecap="butt" stroke-opacity="1.0" stroke="rgb(0, 0, 0)" stroke-linejoin="round" d=" M 376.889, 696.889 376.889, 696.889 " />
            <path fill="none" stroke-width="3.0" stroke-linecap="butt" stroke-opacity="1.0" stroke="rgb(0, 0, 0)" stroke-linejoin="round" d=" M 419.556, 597.333 419.556, 587.333 419.556, 577.333 419.556, 567.333 419.556, 557.333 419.556, 547.333 419.556, 537.333 419.556, 527.333 419.556, 517.333 419.556, 507.333 419.556, 497.333 419.556, 487.333 419.556, 477.333 419.556, 467.333 419.556, 457.333 419.556, 447.333 419.556, 437.333 419.556, 427.333 419.556, 417.333 419.556, 407.333 419.556, 397.333 419.556, 387.333 419.556, 377.333 419.556, 367.333 419.556, 357.333 419.556, 347.333 419.556, 337.333 419.556, 327.333 419.556, 317.333 419.556, 307.333 419.556, 297.333 419.556, 287.333 419.556, 277.333 419.556, 267.333 419.556, 257.333 419.556, 247.333 419.556, 237.333 419.556, 227.556 419.556, 227.556 409.556, 227.556 399.556, 227.556 389.556, 227.556 379.556, 227.556 369.556, 227.556 362.667, 227.556 362.667, 237.556 362.667, 247.556 362.667, 257.556 362.667, 267.556 362.667, 277.556 362.667, 287.556 362.667, 297.556 362.667, 307.556 362.667, 317.556 362.667, 327.556 362.667, 337.556 362.667, 347.556 362.667, 357.556 362.667, 367.556 362.667, 377.556 362.667, 387.556 362.667, 397.556 362.667, 407.556 362.667, 417.556 362.667, 427.556 362.667, 437.556 362.667, 447.556 362.667, 457.556 362.667, 467.556 362.667, 477.556 362.667, 487.556 362.667, 497.556 362.667, 507.556 362.667, 517.556 362.667, 527.556 362.667, 537.556 362.667, 547.556 362.667, 557.556 362.667, 567.556 362.667, 577.556 362.667, 587.556 362.667, 597.556 362.667, 607.556 362.667, 617.556 362.667, 627.556 362.667, 637.556 362.667, 647.556 362.667, 657.556 362.667, 667.556 362.667, 677.556 362.667, 687.556 362.667, 697.556 362.667, 707.556 362.667, 717.556 362.667, 727.556 362.667, 737.556 362.667, 747.556 362.667, 757.556 362.667, 767.556 362.667, 777.556 362.667, 787.556 362.667, 796.444 362.667, 796.444 372.667, 796.444 382.667, 796.444 392.667, 796.444 402.667, 796.444 412.667, 796.444 419.556, 796.444 419.556, 786.444 419.556, 776.444 419.556, 766.444 419.556, 756.444 419.556, 746.444 419.556, 736.444 419.556, 726.444 419.556, 716.444 419.556, 711.111 " />
            <path fill="none" stroke-width="3.0" stroke-linecap="butt" stroke-opacity="1.0" stroke="rgb(0, 0, 0)" stroke-linejoin="round" d=" M 419.556, 227.556 419.556, 237.556 419.556, 247.556 419.556, 257.556 419.556, 267.556 419.556, 277.556 419.556, 287.556 419.556, 297.556 419.556, 307.556 419.556, 317.556 419.556, 327.556 419.556, 337.556 419.556, 347.556 419.556, 357.556 419.556, 367.556 419.556, 377.556 419.556, 387.556 419.556, 397.556 419.556, 407.556 419.556, 417.556 419.556, 427.556 419.556, 437.556 419.556, 447.556 419.556, 457.556 419.556, 467.556 419.556, 477.556 419.556, 487.556 419.556, 497.556 419.556, 507.556 419.556, 517.556 419.556, 527.556 419.556, 537.556 419.556, 547.556 419.556, 557.556 419.556, 567.556 419.556, 577.556 419.556, 587.556 419.556, 597.333 " />
            <path fill="none" stroke-width="3.0" stroke-linecap="butt" stroke-opacity="1.0" stroke="rgb(0, 0, 0)" stroke-linejoin="round" d=" M 419.556, 796.444 419.556, 796.444 " />
            <path fill="none" stroke-width="3.0" stroke-linecap="butt" stroke-opacity="1.0" stroke="rgb(0, 0, 0)" stroke-linejoin="round" d=" M 362.667, 796.444 372.667, 796.444 382.667, 796.444 392.667, 796.444 402.667, 796.444 412.667, 796.444 419.556, 796.444 419.556, 786.444 419.556, 776.444 419.556, 766.444 419.556, 756.444 419.556, 746.444 419.556, 736.444 419.556, 726.444 419.556, 716.444 419.556, 711.111 419.556, 711.111 " />
            <path fill="none" stroke-width="3.0" stroke-linecap="butt" stroke-opacity="1.0" stroke="rgb(0, 0, 0)" stroke-linejoin="round" d=" M 419.556, 711.111 419.556, 711.111 429.556, 711.111 439.556, 711.111 449.556, 711.111 459.556, 711.111 469.556, 711.111 479.556, 711.111 489.556, 711.111 499.556, 711.111 509.556, 711.111 519.556, 711.111 529.556, 711.111 539.556, 711.111 549.556, 711.111 559.556, 711.111 569.556, 711.111 579.556, 711.111 589.556, 711.111 599.556, 711.111 609.556, 711.111 619.556, 711.111 629.556, 711.111 639.556, 711.111 649.556, 711.111 661.333, 711.111 661.333, 701.111 661.333, 696.889 " />
            <path fill="none" stroke-width="3.0" stroke-linecap="butt" stroke-opacity="1.0" stroke="rgb(0, 0, 0)" stroke-linejoin="round" d=" M 661.333, 711.111 661.333, 701.111 661.333, 696.889 661.333, 696.889 661.333, 686.889 661.333, 676.889 661.333, 666.889 661.333, 656.889 661.333, 646.889 661.333, 640.000 661.333, 640.000 661.333, 630.000 661.333, 620.000 661.333, 610.000 661.333, 600.000 661.333, 597.333 " />
            <path fill="none" stroke-width="3.0" stroke-linecap="butt" stroke-opacity="1.0" stroke="rgb(0, 0, 0)" stroke-linejoin="round" d=" M 376.889, 597.333 376.889, 607.333 376.889, 617.333 376.889, 627.333 376.889, 637.333 376.889, 640.000 376.889, 640.000 376.889, 650.000 376.889, 660.000 376.889, 670.000 376.889, 680.000 376.889, 690.000 376.889, 696.889 376.889, 696.889 376.889, 706.889 376.889, 711.111 " />
            <path fill="none" stroke-width="3.0" stroke-linecap="butt" stroke-opacity="1.0" stroke="rgb(0, 0, 0)" stroke-linejoin="round" d=" M 376.889, 711.111 386.889, 711.111 396.889, 711.111 406.889, 711.111 416.889, 711.111 419.556, 711.111 419.556, 711.111 429.556, 711.111 439.556, 711.111 449.556, 711.111 459.556, 711.111 469.556, 711.111 479.556, 711.111 489.556, 711.111 499.556, 711.111 509.556, 711.111 519.556, 711.111 529.556, 711.111 539.556, 711.111 549.556, 711.111 559.556, 711.111 569.556, 711.111 579.556, 711.111 589.556, 711.111 599.556, 711.111 609.556, 711.111 619.556, 711.111 629.556, 711.111 639.556, 711.111 649.556, 711.111 661.333, 711.111 " />
            <path fill="none" stroke-width="3.0" stroke-linecap="butt" stroke-opacity="1.0" stroke="rgb(0, 0, 0)" stroke-linejoin="round" d=" M 376.889, 711.111 376.889, 711.111 " />
            <path fill="none" stroke-width="3.0" stroke-linecap="butt" stroke-opacity="1.0" stroke="rgb(0, 0, 0)" stroke-linejoin="round" d=" M 661.333, 597.333 661.333, 597.333 " />
            <path fill="none" stroke-width="3.0" stroke-linecap="butt" stroke-opacity="1.0" stroke="rgb(0, 0, 0)" stroke-linejoin="round" d=" M 661.333, 597.333 651.333, 597.333 641.333, 597.333 631.333, 597.333 621.333, 597.333 611.333, 597.333 601.333, 597.333 591.333, 597.333 581.333, 597.333 571.333, 597.333 561.333, 597.333 551.333, 597.333 541.333, 597.333 531.333, 597.333 521.333, 597.333 511.333, 597.333 501.333, 597.333 491.333, 597.333 481.333, 597.333 471.333, 597.333 461.333, 597.333 451.333, 597.333 441.333, 597.333 431.333, 597.333 419.556, 597.333 419.556, 597.333 409.556, 597.333 399.556, 597.333 389.556, 597.333 379.556, 597.333 376.889, 597.333 " />
            <path fill="none" stroke-width="3.0" stroke-linecap="butt" stroke-opacity="1.0" stroke="rgb(0, 0, 0)" stroke-linejoin="round" d=" M 661.333, 640.000 661.333, 640.000 " />
            <path fill="none" stroke-width="3.0" stroke-linecap="butt" stroke-opacity="1.0" stroke="rgb(0, 0, 0)" stroke-linejoin="round" d=" M 661.333, 640.000 661.333, 630.000 661.333, 620.000 661.333, 610.000 661.333, 600.000 661.333, 597.333 " />
            <path fill="none" stroke-width="3.0" stroke-linecap="butt" stroke-opacity="1.0" stroke="rgb(0, 0, 0)" stroke-linejoin="round" d=" M 661.333, 696.889 661.333, 686.889 661.333, 676.889 661.333, 666.889 661.333, 656.889 661.333, 646.889 661.333, 640.000 " />
            <path fill="none" stroke-width="3.0" stroke-linecap="butt" stroke-opacity="1.0" stroke="rgb(0, 0, 0)" stroke-linejoin="round" d=" M 661.333, 597.333 661.333, 597.333 " />
        </g>
    </g>
    <g id="ViewLayer_TechnicalLines.001" inkscape:groupmode="lineset" inkscape:label="ViewLayer_TechnicalLines.001">
        <g inkscape:groupmode="layer" id="strokes" inkscape:label="strokes">
            <path fill="none" stroke-width="1.5" stroke-linecap="round" stroke-opacity="1.0" stroke="rgb(0, 0, 0)" stroke-linejoin="round" d=" M 661.333, 696.889 661.333, 696.889 " />
            <path fill="none" stroke-width="1.5" stroke-linecap="round" stroke-opacity="1.0" stroke="rgb(0, 0, 0)" stroke-linejoin="round" d=" M 376.889, 640.000 376.889, 640.000 376.889, 650.000 376.889, 660.000 376.889, 670.000 376.889, 680.000 376.889, 690.000 376.889, 696.889 " />
            <path fill="none" stroke-width="1.5" stroke-linecap="round" stroke-opacity="1.0" stroke="rgb(0, 0, 0)" stroke-linejoin="round" d=" M 376.889, 696.889 376.889, 696.889 " />
            <path fill="none" stroke-width="1.5" stroke-linecap="round" stroke-opacity="1.0" stroke="rgb(0, 0, 0)" stroke-linejoin="round" d=" M 419.556, 597.333 419.556, 587.333 419.556, 577.333 419.556, 567.333 419.556, 557.333 419.556, 547.333 419.556, 537.333 419.556, 527.333 419.556, 517.333 419.556, 507.333 419.556, 497.333 419.556, 487.333 419.556, 477.333 419.556, 467.333 419.556, 457.333 419.556, 447.333 419.556, 437.333 419.556, 427.333 419.556, 417.333 419.556, 407.333 419.556, 397.333 419.556, 387.333 419.556, 377.333 419.556, 367.333 419.556, 357.333 419.556, 347.333 419.556, 337.333 419.556, 327.333 419.556, 317.333 419.556, 307.333 419.556, 297.333 419.556, 287.333 419.556, 277.333 419.556, 267.333 419.556, 257.333 419.556, 247.333 419.556, 237.333 419.556, 227.556 419.556, 227.556 409.556, 227.556 399.556, 227.556 389.556, 227.556 379.556, 227.556 369.556, 227.556 362.667, 227.556 362.667, 237.556 362.667, 247.556 362.667, 257.556 362.667, 267.556 362.667, 277.556 362.667, 287.556 362.667, 297.556 362.667, 307.556 362.667, 317.556 362.667, 327.556 362.667, 337.556 362.667, 347.556 362.667, 357.556 362.667, 367.556 362.667, 377.556 362.667, 387.556 362.667, 397.556 362.667, 407.556 362.667, 417.556 362.667, 427.556 362.667, 437.556 362.667, 447.556 362.667, 457.556 362.667, 467.556 362.667, 477.556 362.667, 487.556 362.667, 497.556 362.667, 507.556 362.667, 517.556 362.667, 527.556 362.667, 537.556 362.667, 547.556 362.667, 557.556 362.667, 567.556 362.667, 577.556 362.667, 587.556 362.667, 597.556 362.667, 607.556 362.667, 617.556 362.667, 627.556 362.667, 637.556 362.667, 647.556 362.667, 657.556 362.667, 667.556 362.667, 677.556 362.667, 687.556 362.667, 697.556 362.667, 707.556 362.667, 717.556 362.667, 727.556 362.667, 737.556 362.667, 747.556 362.667, 757.556 362.667, 767.556 362.667, 777.556 362.667, 787.556 362.667, 796.444 362.667, 796.444 372.667, 796.444 382.667, 796.444 392.667, 796.444 402.667, 796.444 412.667, 796.444 419.556, 796.444 419.556, 786.444 419.556, 776.444 419.556, 766.444 419.556, 756.444 419.556, 746.444 419.556, 736.444 419.556, 726.444 419.556, 716.444 419.556, 711.111 " />
            <path fill="none" stroke-width="1.5" stroke-linecap="round" stroke-opacity="1.0" stroke="rgb(0, 0, 0)" stroke-linejoin="round" d=" M 419.556, 227.556 419.556, 237.556 419.556, 247.556 419.556, 257.556 419.556, 267.556 419.556, 277.556 419.556, 287.556 419.556, 297.556 419.556, 307.556 419.556, 317.556 419.556, 327.556 419.556, 337.556 419.556, 347.556 419.556, 357.556 419.556, 367.556 419.556, 377.556 419.556, 387.556 419.556, 397.556 419.556, 407.556 419.556, 417.556 419.556, 427.556 419.556, 437.556 419.556, 447.556 419.556, 457.556 419.556, 467.556 419.556, 477.556 419.556, 487.556 419.556, 497.556 419.556, 507.556 419.556, 517.556 419.556, 527.556 419.556, 537.556 419.556, 547.556 419.556, 557.556 419.556, 567.556 419.556, 577.556 419.556, 587.556 419.556, 597.333 " />
            <path fill="none" stroke-width="1.5" stroke-linecap="round" stroke-opacity="1.0" stroke="rgb(0, 0, 0)" stroke-linejoin="round" d=" M 419.556, 796.444 419.556, 796.444 " />
            <path fill="none" stroke-width="1.5" stroke-linecap="round" stroke-opacity="1.0" stroke="rgb(0, 0, 0)" stroke-linejoin="round" d=" M 362.667, 796.444 372.667, 796.444 382.667, 796.444 392.667, 796.444 402.667, 796.444 412.667, 796.444 419.556, 796.444 419.556, 786.444 419.556, 776.444 419.556, 766.444 419.556, 756.444 419.556, 746.444 419.556, 736.444 419.556, 726.444 419.556, 716.444 419.556, 711.111 419.556, 711.111 " />
            <path fill="none" stroke-width="1.5" stroke-linecap="round" stroke-opacity="1.0" stroke="rgb(0, 0, 0)" stroke-linejoin="round" d=" M 419.556, 711.111 419.556, 711.111 429.556, 711.111 439.556, 711.111 449.556, 711.111 459.556, 711.111 469.556, 711.111 479.556, 711.111 489.556, 711.111 499.556, 711.111 509.556, 711.111 519.556, 711.111 529.556, 711.111 539.556, 711.111 549.556, 711.111 559.556, 711.111 569.556, 711.111 579.556, 711.111 589.556, 711.111 599.556, 711.111 609.556, 711.111 619.556, 711.111 629.556, 711.111 639.556, 711.111 649.556, 711.111 661.333, 711.111 661.333, 701.111 661.333, 696.889 " />
            <path fill="none" stroke-width="1.5" stroke-linecap="round" stroke-opacity="1.0" stroke="rgb(0, 0, 0)" stroke-linejoin="round" d=" M 661.333, 711.111 661.333, 701.111 661.333, 696.889 661.333, 696.889 661.333, 686.889 661.333, 676.889 661.333, 666.889 661.333, 656.889 661.333, 646.889 661.333, 640.000 661.333, 640.000 661.333, 630.000 661.333, 620.000 661.333, 610.000 661.333, 600.000 661.333, 597.333 " />
            <path fill="none" stroke-width="1.5" stroke-linecap="round" stroke-opacity="1.0" stroke="rgb(0, 0, 0)" stroke-linejoin="round" d=" M 376.889, 597.333 376.889, 607.333 376.889, 617.333 376.889, 627.333 376.889, 637.333 376.889, 640.000 376.889, 640.000 376.889, 650.000 376.889, 660.000 376.889, 670.000 376.889, 680.000 376.889, 690.000 376.889, 696.889 376.889, 696.889 376.889, 706.889 376.889, 711.111 " />
            <path fill="none" stroke-width="1.5" stroke-linecap="round" stroke-opacity="1.0" stroke="rgb(0, 0, 0)" stroke-linejoin="round" d=" M 376.889, 711.111 386.889, 711.111 396.889, 711.111 406.889, 711.111 416.889, 711.111 419.556, 711.111 419.556, 711.111 429.556, 711.111 439.556, 711.111 449.556, 711.111 459.556, 711.111 469.556, 711.111 479.556, 711.111 489.556, 711.111 499.556, 711.111 509.556, 711.111 519.556, 711.111 529.556, 711.111 539.556, 711.111 549.556, 711.111 559.556, 711.111 569.556, 711.111 579.556, 711.111 589.556, 711.111 599.556, 711.111 609.556, 711.111 619.556, 711.111 629.556, 711.111 639.556, 711.111 649.556, 711.111 661.333, 711.111 " />
            <path fill="none" stroke-width="1.5" stroke-linecap="round" stroke-opacity="1.0" stroke="rgb(0, 0, 0)" stroke-linejoin="round" d=" M 376.889, 711.111 376.889, 711.111 " />
            <path fill="none" stroke-width="1.5" stroke-linecap="round" stroke-opacity="1.0" stroke="rgb(0, 0, 0)" stroke-linejoin="round" d=" M 661.333, 597.333 661.333, 597.333 " />
            <path fill="none" stroke-width="1.5" stroke-linecap="round" stroke-opacity="1.0" stroke="rgb(0, 0, 0)" stroke-linejoin="round" d=" M 661.333, 597.333 651.333, 597.333 641.333, 597.333 631.333, 597.333 621.333, 597.333 611.333, 597.333 601.333, 597.333 591.333, 597.333 581.333, 597.333 571.333, 597.333 561.333, 597.333 551.333, 597.333 541.333, 597.333 531.333, 597.333 521.333, 597.333 511.333, 597.333 501.333, 597.333 491.333, 597.333 481.333, 597.333 471.333, 597.333 461.333, 597.333 451.333, 597.333 441.333, 597.333 431.333, 597.333 419.556, 597.333 419.556, 597.333 409.556, 597.333 399.556, 597.333 389.556, 597.333 379.556, 597.333 376.889, 597.333 " />
            <path fill="none" stroke-width="1.5" stroke-linecap="round" stroke-opacity="1.0" stroke="rgb(0, 0, 0)" stroke-linejoin="round" d=" M 661.333, 640.000 661.333, 640.000 " />
            <path fill="none" stroke-width="1.5" stroke-linecap="round" stroke-opacity="1.0" stroke="rgb(0, 0, 0)" stroke-linejoin="round" d=" M 661.333, 640.000 661.333, 630.000 661.333, 620.000 661.333, 610.000 661.333, 600.000 661.333, 597.333 " />
            <path fill="none" stroke-width="1.5" stroke-linecap="round" stroke-opacity="1.0" stroke="rgb(0, 0, 0)" stroke-linejoin="round" d=" M 661.333, 696.889 661.333, 686.889 661.333, 676.889 661.333, 666.889 661.333, 656.889 661.333, 646.889 661.333, 640.000 " />
            <path fill="none" stroke-width="1.5" stroke-linecap="round" stroke-opacity="1.0" stroke="rgb(0, 0, 0)" stroke-linejoin="round" d=" M 661.333, 597.333 661.333, 597.333 " />
        </g>
    </g>
    <g id="ViewLayer_TechnicalLines.002" inkscape:groupmode="lineset" inkscape:label="ViewLayer_TechnicalLines.002">
        <g inkscape:groupmode="layer" id="strokes" inkscape:label="strokes">
            <path fill="none" stroke-width="1.5" stroke-linecap="round" stroke-opacity="1.0" stroke="rgb(0, 0, 0)" stroke-linejoin="round" d=" M 661.333, 696.889 661.333, 696.889 " />
            <path fill="none" stroke-width="1.5" stroke-linecap="round" stroke-opacity="1.0" stroke="rgb(0, 0, 0)" stroke-linejoin="round" d=" M 376.889, 640.000 376.889, 640.000 376.889, 650.000 376.889, 660.000 376.889, 670.000 376.889, 680.000 376.889, 690.000 376.889, 696.889 " />
            <path fill="none" stroke-width="1.5" stroke-linecap="round" stroke-opacity="1.0" stroke="rgb(0, 0, 0)" stroke-linejoin="round" d=" M 376.889, 696.889 376.889, 696.889 " />
            <path fill="none" stroke-width="1.5" stroke-linecap="round" stroke-opacity="1.0" stroke="rgb(0, 0, 0)" stroke-linejoin="round" d=" M 419.556, 597.333 419.556, 587.333 419.556, 577.333 419.556, 567.333 419.556, 557.333 419.556, 547.333 419.556, 537.333 419.556, 527.333 419.556, 517.333 419.556, 507.333 419.556, 497.333 419.556, 487.333 419.556, 477.333 419.556, 467.333 419.556, 457.333 419.556, 447.333 419.556, 437.333 419.556, 427.333 419.556, 417.333 419.556, 407.333 419.556, 397.333 419.556, 387.333 419.556, 377.333 419.556, 367.333 419.556, 357.333 419.556, 347.333 419.556, 337.333 419.556, 327.333 419.556, 317.333 419.556, 307.333 419.556, 297.333 419.556, 287.333 419.556, 277.333 419.556, 267.333 419.556, 257.333 419.556, 247.333 419.556, 237.333 419.556, 227.556 419.556, 227.556 409.556, 227.556 399.556, 227.556 389.556, 227.556 379.556, 227.556 369.556, 227.556 362.667, 227.556 362.667, 237.556 362.667, 247.556 362.667, 257.556 362.667, 267.556 362.667, 277.556 362.667, 287.556 362.667, 297.556 362.667, 307.556 362.667, 317.556 362.667, 327.556 362.667, 337.556 362.667, 347.556 362.667, 357.556 362.667, 367.556 362.667, 377.556 362.667, 387.556 362.667, 397.556 362.667, 407.556 362.667, 417.556 362.667, 427.556 362.667, 437.556 362.667, 447.556 362.667, 457.556 362.667, 467.556 362.667, 477.556 362.667, 487.556 362.667, 497.556 362.667, 507.556 362.667, 517.556 362.667, 527.556 362.667, 537.556 362.667, 547.556 362.667, 557.556 362.667, 567.556 362.667, 577.556 362.667, 587.556 362.667, 597.556 362.667, 607.556 362.667, 617.556 362.667, 627.556 362.667, 637.556 362.667, 647.556 362.667, 657.556 362.667, 667.556 362.667, 677.556 362.667, 687.556 362.667, 697.556 362.667, 707.556 362.667, 717.556 362.667, 727.556 362.667, 737.556 362.667, 747.556 362.667, 757.556 362.667, 767.556 362.667, 777.556 362.667, 787.556 362.667, 796.444 362.667, 796.444 372.667, 796.444 382.667, 796.444 392.667, 796.444 402.667, 796.444 412.667, 796.444 419.556, 796.444 419.556, 786.444 419.556, 776.444 419.556, 766.444 419.556, 756.444 419.556, 746.444 419.556, 736.444 419.556, 726.444 419.556, 716.444 419.556, 711.111 " />
            <path fill="none" stroke-width="1.5" stroke-linecap="round" stroke-opacity="1.0" stroke="rgb(0, 0, 0)" stroke-linejoin="round" d=" M 419.556, 227.556 419.556, 237.556 419.556, 247.556 419.556, 257.556 419.556, 267.556 419.556, 277.556 419.556, 287.556 419.556, 297.556 419.556, 307.556 419.556, 317.556 419.556, 327.556 419.556, 337.556 419.556, 347.556 419.556, 357.556 419.556, 367.556 419.556, 377.556 419.556, 387.556 419.556, 397.556 419.556, 407.556 419.556, 417.556 419.556, 427.556 419.556, 437.556 419.556, 447.556 419.556, 457.556 419.556, 467.556 419.556, 477.556 419.556, 487.556 419.556, 497.556 419.556, 507.556 419.556, 517.556 419.556, 527.556 419.556, 537.556 419.556, 547.556 419.556, 557.556 419.556, 567.556 419.556, 577.556 419.556, 587.556 419.556, 597.333 " />
            <path fill="none" stroke-width="1.5" stroke-linecap="round" stroke-opacity="1.0" stroke="rgb(0, 0, 0)" stroke-linejoin="round" d=" M 419.556, 796.444 419.556, 796.444 " />
            <path fill="none" stroke-width="1.5" stroke-linecap="round" stroke-opacity="1.0" stroke="rgb(0, 0, 0)" stroke-linejoin="round" d=" M 362.667, 796.444 372.667, 796.444 382.667, 796.444 392.667, 796.444 402.667, 796.444 412.667, 796.444 419.556, 796.444 419.556, 786.444 419.556, 776.444 419.556, 766.444 419.556, 756.444 419.556, 746.444 419.556, 736.444 419.556, 726.444 419.556, 716.444 419.556, 711.111 419.556, 711.111 " />
            <path fill="none" stroke-width="1.5" stroke-linecap="round" stroke-opacity="1.0" stroke="rgb(0, 0, 0)" stroke-linejoin="round" d=" M 419.556, 711.111 419.556, 711.111 429.556, 711.111 439.556, 711.111 449.556, 711.111 459.556, 711.111 469.556, 711.111 479.556, 711.111 489.556, 711.111 499.556, 711.111 509.556, 711.111 519.556, 711.111 529.556, 711.111 539.556, 711.111 549.556, 711.111 559.556, 711.111 569.556, 711.111 579.556, 711.111 589.556, 711.111 599.556, 711.111 609.556, 711.111 619.556, 711.111 629.556, 711.111 639.556, 711.111 649.556, 711.111 661.333, 711.111 661.333, 701.111 661.333, 696.889 " />
            <path fill="none" stroke-width="1.5" stroke-linecap="round" stroke-opacity="1.0" stroke="rgb(0, 0, 0)" stroke-linejoin="round" d=" M 661.333, 711.111 661.333, 701.111 661.333, 696.889 661.333, 696.889 661.333, 686.889 661.333, 676.889 661.333, 666.889 661.333, 656.889 661.333, 646.889 661.333, 640.000 661.333, 640.000 661.333, 630.000 661.333, 620.000 661.333, 610.000 661.333, 600.000 661.333, 597.333 " />
            <path fill="none" stroke-width="1.5" stroke-linecap="round" stroke-opacity="1.0" stroke="rgb(0, 0, 0)" stroke-linejoin="round" d=" M 376.889, 597.333 376.889, 607.333 376.889, 617.333 376.889, 627.333 376.889, 637.333 376.889, 640.000 376.889, 640.000 376.889, 650.000 376.889, 660.000 376.889, 670.000 376.889, 680.000 376.889, 690.000 376.889, 696.889 376.889, 696.889 376.889, 706.889 376.889, 711.111 " />
            <path fill="none" stroke-width="1.5" stroke-linecap="round" stroke-opacity="1.0" stroke="rgb(0, 0, 0)" stroke-linejoin="round" d=" M 376.889, 711.111 386.889, 711.111 396.889, 711.111 406.889, 711.111 416.889, 711.111 419.556, 711.111 419.556, 711.111 429.556, 711.111 439.556, 711.111 449.556, 711.111 459.556, 711.111 469.556, 711.111 479.556, 711.111 489.556, 711.111 499.556, 711.111 509.556, 711.111 519.556, 711.111 529.556, 711.111 539.556, 711.111 549.556, 711.111 559.556, 711.111 569.556, 711.111 579.556, 711.111 589.556, 711.111 599.556, 711.111 609.556, 711.111 619.556, 711.111 629.556, 711.111 639.556, 711.111 649.556, 711.111 661.333, 711.111 " />
            <path fill="none" stroke-width="1.5" stroke-linecap="round" stroke-opacity="1.0" stroke="rgb(0, 0, 0)" stroke-linejoin="round" d=" M 376.889, 711.111 376.889, 711.111 " />
            <path fill="none" stroke-width="1.5" stroke-linecap="round" stroke-opacity="1.0" stroke="rgb(0, 0, 0)" stroke-linejoin="round" d=" M 661.333, 597.333 661.333, 597.333 " />
            <path fill="none" stroke-width="1.5" stroke-linecap="round" stroke-opacity="1.0" stroke="rgb(0, 0, 0)" stroke-linejoin="round" d=" M 661.333, 597.333 651.333, 597.333 641.333, 597.333 631.333, 597.333 621.333, 597.333 611.333, 597.333 601.333, 597.333 591.333, 597.333 581.333, 597.333 571.333, 597.333 561.333, 597.333 551.333, 597.333 541.333, 597.333 531.333, 597.333 521.333, 597.333 511.333, 597.333 501.333, 597.333 491.333, 597.333 481.333, 597.333 471.333, 597.333 461.333, 597.333 451.333, 597.333 441.333, 597.333 431.333, 597.333 419.556, 597.333 419.556, 597.333 409.556, 597.333 399.556, 597.333 389.556, 597.333 379.556, 597.333 376.889, 597.333 " />
            <path fill="none" stroke-width="1.5" stroke-linecap="round" stroke-opacity="1.0" stroke="rgb(0, 0, 0)" stroke-linejoin="round" d=" M 661.333, 640.000 661.333, 640.000 " />
            <path fill="none" stroke-width="1.5" stroke-linecap="round" stroke-opacity="1.0" stroke="rgb(0, 0, 0)" stroke-linejoin="round" d=" M 661.333, 640.000 661.333, 630.000 661.333, 620.000 661.333, 610.000 661.333, 600.000 661.333, 597.333 " />
            <path fill="none" stroke-width="1.5" stroke-linecap="round" stroke-opacity="1.0" stroke="rgb(0, 0, 0)" stroke-linejoin="round" d=" M 661.333, 696.889 661.333, 686.889 661.333, 676.889 661.333, 666.889 661.333, 656.889 661.333, 646.889 661.333, 640.000 " />
            <path fill="none" stroke-width="1.5" stroke-linecap="round" stroke-opacity="1.0" stroke="rgb(0, 0, 0)" stroke-linejoin="round" d=" M 661.333, 597.333 661.333, 597.333 " />
        </g>
    </g>
    <g id="ViewLayer_TechnicalLines.003" inkscape:groupmode="lineset" inkscape:label="ViewLayer_TechnicalLines.003">
        <g inkscape:groupmode="layer" id="strokes" inkscape:label="strokes">
            <path fill="none" stroke-width="1.5" stroke-linecap="round" stroke-opacity="1.0" stroke="rgb(0, 0, 0)" stroke-linejoin="round" d=" M 661.333, 696.889 661.333, 696.889 " />
            <path fill="none" stroke-width="1.5" stroke-linecap="round" stroke-opacity="1.0" stroke="rgb(0, 0, 0)" stroke-linejoin="round" d=" M 376.889, 640.000 376.889, 640.000 376.889, 650.000 376.889, 660.000 376.889, 670.000 376.889, 680.000 376.889, 690.000 376.889, 696.889 " />
            <path fill="none" stroke-width="1.5" stroke-linecap="round" stroke-opacity="1.0" stroke="rgb(0, 0, 0)" stroke-linejoin="round" d=" M 376.889, 696.889 376.889, 696.889 " />
            <path fill="none" stroke-width="1.5" stroke-linecap="round" stroke-opacity="1.0" stroke="rgb(0, 0, 0)" stroke-linejoin="round" d=" M 419.556, 597.333 419.556, 587.333 419.556, 577.333 419.556, 567.333 419.556, 557.333 419.556, 547.333 419.556, 537.333 419.556, 527.333 419.556, 517.333 419.556, 507.333 419.556, 497.333 419.556, 487.333 419.556, 477.333 419.556, 467.333 419.556, 457.333 419.556, 447.333 419.556, 437.333 419.556, 427.333 419.556, 417.333 419.556, 407.333 419.556, 397.333 419.556, 387.333 419.556, 377.333 419.556, 367.333 419.556, 357.333 419.556, 347.333 419.556, 337.333 419.556, 327.333 419.556, 317.333 419.556, 307.333 419.556, 297.333 419.556, 287.333 419.556, 277.333 419.556, 267.333 419.556, 257.333 419.556, 247.333 419.556, 237.333 419.556, 227.556 419.556, 227.556 409.556, 227.556 399.556, 227.556 389.556, 227.556 379.556, 227.556 369.556, 227.556 362.667, 227.556 362.667, 237.556 362.667, 247.556 362.667, 257.556 362.667, 267.556 362.667, 277.556 362.667, 287.556 362.667, 297.556 362.667, 307.556 362.667, 317.556 362.667, 327.556 362.667, 337.556 362.667, 347.556 362.667, 357.556 362.667, 367.556 362.667, 377.556 362.667, 387.556 362.667, 397.556 362.667, 407.556 362.667, 417.556 362.667, 427.556 362.667, 437.556 362.667, 447.556 362.667, 457.556 362.667, 467.556 362.667, 477.556 362.667, 487.556 362.667, 497.556 362.667, 507.556 362.667, 517.556 362.667, 527.556 362.667, 537.556 362.667, 547.556 362.667, 557.556 362.667, 567.556 362.667, 577.556 362.667, 587.556 362.667, 597.556 362.667, 607.556 362.667, 617.556 362.667, 627.556 362.667, 637.556 362.667, 647.556 362.667, 657.556 362.667, 667.556 362.667, 677.556 362.667, 687.556 362.667, 697.556 362.667, 707.556 362.667, 717.556 362.667, 727.556 362.667, 737.556 362.667, 747.556 362.667, 757.556 362.667, 767.556 362.667, 777.556 362.667, 787.556 362.667, 796.444 362.667, 796.444 372.667, 796.444 382.667, 796.444 392.667, 796.444 402.667, 796.444 412.667, 796.444 419.556, 796.444 419.556, 786.444 419.556, 776.444 419.556, 766.444 419.556, 756.444 419.556, 746.444 419.556, 736.444 419.556, 726.444 419.556, 716.444 419.556, 711.111 " />
            <path fill="none" stroke-width="1.5" stroke-linecap="round" stroke-opacity="1.0" stroke="rgb(0, 0, 0)" stroke-linejoin="round" d=" M 419.556, 227.556 419.556, 237.556 419.556, 247.556 419.556, 257.556 419.556, 267.556 419.556, 277.556 419.556, 287.556 419.556, 297.556 419.556, 307.556 419.556, 317.556 419.556, 327.556 419.556, 337.556 419.556, 347.556 419.556, 357.556 419.556, 367.556 419.556, 377.556 419.556, 387.556 419.556, 397.556 419.556, 407.556 419.556, 417.556 419.556, 427.556 419.556, 437.556 419.556, 447.556 419.556, 457.556 419.556, 467.556 419.556, 477.556 419.556, 487.556 419.556, 497.556 419.556, 507.556 419.556, 517.556 419.556, 527.556 419.556, 537.556 419.556, 547.556 419.556, 557.556 419.556, 567.556 419.556, 577.556 419.556, 587.556 419.556, 597.333 " />
            <path fill="none" stroke-width="1.5" stroke-linecap="round" stroke-opacity="1.0" stroke="rgb(0, 0, 0)" stroke-linejoin="round" d=" M 419.556, 796.444 419.556, 796.444 " />
            <path fill="none" stroke-width="1.5" stroke-linecap="round" stroke-opacity="1.0" stroke="rgb(0, 0, 0)" stroke-linejoin="round" d=" M 362.667, 796.444 372.667, 796.444 382.667, 796.444 392.667, 796.444 402.667, 796.444 412.667, 796.444 419.556, 796.444 419.556, 786.444 419.556, 776.444 419.556, 766.444 419.556, 756.444 419.556, 746.444 419.556, 736.444 419.556, 726.444 419.556, 716.444 419.556, 711.111 419.556, 711.111 " />
            <path fill="none" stroke-width="1.5" stroke-linecap="round" stroke-opacity="1.0" stroke="rgb(0, 0, 0)" stroke-linejoin="round" d=" M 419.556, 711.111 419.556, 711.111 429.556, 711.111 439.556, 711.111 449.556, 711.111 459.556, 711.111 469.556, 711.111 479.556, 711.111 489.556, 711.111 499.556, 711.111 509.556, 711.111 519.556, 711.111 529.556, 711.111 539.556, 711.111 549.556, 711.111 559.556, 711.111 569.556, 711.111 579.556, 711.111 589.556, 711.111 599.556, 711.111 609.556, 711.111 619.556, 711.111 629.556, 711.111 639.556, 711.111 649.556, 711.111 661.333, 711.111 661.333, 701.111 661.333, 696.889 " />
            <path fill="none" stroke-width="1.5" stroke-linecap="round" stroke-opacity="1.0" stroke="rgb(0, 0, 0)" stroke-linejoin="round" d=" M 661.333, 711.111 661.333, 701.111 661.333, 696.889 661.333, 696.889 661.333, 686.889 661.333, 676.889 661.333, 666.889 661.333, 656.889 661.333, 646.889 661.333, 640.000 661.333, 640.000 661.333, 630.000 661.333, 620.000 661.333, 610.000 661.333, 600.000 661.333, 597.333 " />
            <path fill="none" stroke-width="1.5" stroke-linecap="round" stroke-opacity="1.0" stroke="rgb(0, 0, 0)" stroke-linejoin="round" d=" M 376.889, 597.333 376.889, 607.333 376.889, 617.333 376.889, 627.333 376.889, 637.333 376.889, 640.000 376.889, 640.000 376.889, 650.000 376.889, 660.000 376.889, 670.000 376.889, 680.000 376.889, 690.000 376.889, 696.889 376.889, 696.889 376.889, 706.889 376.889, 711.111 " />
            <path fill="none" stroke-width="1.5" stroke-linecap="round" stroke-opacity="1.0" stroke="rgb(0, 0, 0)" stroke-linejoin="round" d=" M 376.889, 711.111 386.889, 711.111 396.889, 711.111 406.889, 711.111 416.889, 711.111 419.556, 711.111 419.556, 711.111 429.556, 711.111 439.556, 711.111 449.556, 711.111 459.556, 711.111 469.556, 711.111 479.556, 711.111 489.556, 711.111 499.556, 711.111 509.556, 711.111 519.556, 711.111 529.556, 711.111 539.556, 711.111 549.556, 711.111 559.556, 711.111 569.556, 711.111 579.556, 711.111 589.556, 711.111 599.556, 711.111 609.556, 711.111 619.556, 711.111 629.556, 711.111 639.556, 711.111 649.556, 711.111 661.333, 711.111 " />
            <path fill="none" stroke-width="1.5" stroke-linecap="round" stroke-opacity="1.0" stroke="rgb(0, 0, 0)" stroke-linejoin="round" d=" M 376.889, 711.111 376.889, 711.111 " />
            <path fill="none" stroke-width="1.5" stroke-linecap="round" stroke-opacity="1.0" stroke="rgb(0, 0, 0)" stroke-linejoin="round" d=" M 661.333, 597.333 661.333, 597.333 " />
            <path fill="none" stroke-width="1.5" stroke-linecap="round" stroke-opacity="1.0" stroke="rgb(0, 0, 0)" stroke-linejoin="round" d=" M 661.333, 597.333 651.333, 597.333 641.333, 597.333 631.333, 597.333 621.333, 597.333 611.333, 597.333 601.333, 597.333 591.333, 597.333 581.333, 597.333 571.333, 597.333 561.333, 597.333 551.333, 597.333 541.333, 597.333 531.333, 597.333 521.333, 597.333 511.333, 597.333 501.333, 597.333 491.333, 597.333 481.333, 597.333 471.333, 597.333 461.333, 597.333 451.333, 597.333 441.333, 597.333 431.333, 597.333 419.556, 597.333 419.556, 597.333 409.556, 597.333 399.556, 597.333 389.556, 597.333 379.556, 597.333 376.889, 597.333 " />
            <path fill="none" stroke-width="1.5" stroke-linecap="round" stroke-opacity="1.0" stroke="rgb(0, 0, 0)" stroke-linejoin="round" d=" M 661.333, 640.000 661.333, 640.000 " />
            <path fill="none" stroke-width="1.5" stroke-linecap="round" stroke-opacity="1.0" stroke="rgb(0, 0, 0)" stroke-linejoin="round" d=" M 661.333, 640.000 661.333, 630.000 661.333, 620.000 661.333, 610.000 661.333, 600.000 661.333, 597.333 " />
            <path fill="none" stroke-width="1.5" stroke-linecap="round" stroke-opacity="1.0" stroke="rgb(0, 0, 0)" stroke-linejoin="round" d=" M 661.333, 696.889 661.333, 686.889 661.333, 676.889 661.333, 666.889 661.333, 656.889 661.333, 646.889 661.333, 640.000 " />
            <path fill="none" stroke-width="1.5" stroke-linecap="round" stroke-opacity="1.0" stroke="rgb(0, 0, 0)" stroke-linejoin="round" d=" M 661.333, 597.333 661.333, 597.333 " />
        </g>
    </g>
    <g id="ViewLayer_TechnicalLines.004" xmlns:inkscape="http://www.inkscape.org/namespaces/inkscape" inkscape:groupmode="lineset" inkscape:label="ViewLayer_TechnicalLines.004">
        <g xmlns:inkscape="http://www.inkscape.org/namespaces/inkscape" inkscape:groupmode="layer" id="strokes" inkscape:label="strokes">
            <path fill="none" stroke-width="1.5" stroke-linecap="round" stroke-opacity="1.0" stroke="rgb(0, 0, 0)" stroke-linejoin="round" d=" M 661.333, 696.889 661.333, 696.889 " />
            <path fill="none" stroke-width="1.5" stroke-linecap="round" stroke-opacity="1.0" stroke="rgb(0, 0, 0)" stroke-linejoin="round" d=" M 376.889, 640.000 376.889, 640.000 376.889, 650.000 376.889, 660.000 376.889, 670.000 376.889, 680.000 376.889, 690.000 376.889, 696.889 " />
            <path fill="none" stroke-width="1.5" stroke-linecap="round" stroke-opacity="1.0" stroke="rgb(0, 0, 0)" stroke-linejoin="round" d=" M 376.889, 696.889 376.889, 696.889 " />
            <path fill="none" stroke-width="1.5" stroke-linecap="round" stroke-opacity="1.0" stroke="rgb(0, 0, 0)" stroke-linejoin="round" d=" M 419.556, 597.333 419.556, 587.333 419.556, 577.333 419.556, 567.333 419.556, 557.333 419.556, 547.333 419.556, 537.333 419.556, 527.333 419.556, 517.333 419.556, 507.333 419.556, 497.333 419.556, 487.333 419.556, 477.333 419.556, 467.333 419.556, 457.333 419.556, 447.333 419.556, 437.333 419.556, 427.333 419.556, 417.333 419.556, 407.333 419.556, 397.333 419.556, 387.333 419.556, 377.333 419.556, 367.333 419.556, 357.333 419.556, 347.333 419.556, 337.333 419.556, 327.333 419.556, 317.333 419.556, 307.333 419.556, 297.333 419.556, 287.333 419.556, 277.333 419.556, 267.333 419.556, 257.333 419.556, 247.333 419.556, 237.333 419.556, 227.556 419.556, 227.556 409.556, 227.556 399.556, 227.556 389.556, 227.556 379.556, 227.556 369.556, 227.556 362.667, 227.556 362.667, 237.556 362.667, 247.556 362.667, 257.556 362.667, 267.556 362.667, 277.556 362.667, 287.556 362.667, 297.556 362.667, 307.556 362.667, 317.556 362.667, 327.556 362.667, 337.556 362.667, 347.556 362.667, 357.556 362.667, 367.556 362.667, 377.556 362.667, 387.556 362.667, 397.556 362.667, 407.556 362.667, 417.556 362.667, 427.556 362.667, 437.556 362.667, 447.556 362.667, 457.556 362.667, 467.556 362.667, 477.556 362.667, 487.556 362.667, 497.556 362.667, 507.556 362.667, 517.556 362.667, 527.556 362.667, 537.556 362.667, 547.556 362.667, 557.556 362.667, 567.556 362.667, 577.556 362.667, 587.556 362.667, 597.556 362.667, 607.556 362.667, 617.556 362.667, 627.556 362.667, 637.556 362.667, 647.556 362.667, 657.556 362.667, 667.556 362.667, 677.556 362.667, 687.556 362.667, 697.556 362.667, 707.556 362.667, 717.556 362.667, 727.556 362.667, 737.556 362.667, 747.556 362.667, 757.556 362.667, 767.556 362.667, 777.556 362.667, 787.556 362.667, 796.444 362.667, 796.444 372.667, 796.444 382.667, 796.444 392.667, 796.444 402.667, 796.444 412.667, 796.444 419.556, 796.444 419.556, 786.444 419.556, 776.444 419.556, 766.444 419.556, 756.444 419.556, 746.444 419.556, 736.444 419.556, 726.444 419.556, 716.444 419.556, 711.111 " />
            <path fill="none" stroke-width="1.5" stroke-linecap="round" stroke-opacity="1.0" stroke="rgb(0, 0, 0)" stroke-linejoin="round" d=" M 419.556, 227.556 419.556, 237.556 419.556, 247.556 419.556, 257.556 419.556, 267.556 419.556, 277.556 419.556, 287.556 419.556, 297.556 419.556, 307.556 419.556, 317.556 419.556, 327.556 419.556, 337.556 419.556, 347.556 419.556, 357.556 419.556, 367.556 419.556, 377.556 419.556, 387.556 419.556, 397.556 419.556, 407.556 419.556, 417.556 419.556, 427.556 419.556, 437.556 419.556, 447.556 419.556, 457.556 419.556, 467.556 419.556, 477.556 419.556, 487.556 419.556, 497.556 419.556, 507.556 419.556, 517.556 419.556, 527.556 419.556, 537.556 419.556, 547.556 419.556, 557.556 419.556, 567.556 419.556, 577.556 419.556, 587.556 419.556, 597.333 " />
            <path fill="none" stroke-width="1.5" stroke-linecap="round" stroke-opacity="1.0" stroke="rgb(0, 0, 0)" stroke-linejoin="round" d=" M 419.556, 796.444 419.556, 796.444 " />
            <path fill="none" stroke-width="1.5" stroke-linecap="round" stroke-opacity="1.0" stroke="rgb(0, 0, 0)" stroke-linejoin="round" d=" M 362.667, 796.444 372.667, 796.444 382.667, 796.444 392.667, 796.444 402.667, 796.444 412.667, 796.444 419.556, 796.444 419.556, 786.444 419.556, 776.444 419.556, 766.444 419.556, 756.444 419.556, 746.444 419.556, 736.444 419.556, 726.444 419.556, 716.444 419.556, 711.111 419.556, 711.111 " />
            <path fill="none" stroke-width="1.5" stroke-linecap="round" stroke-opacity="1.0" stroke="rgb(0, 0, 0)" stroke-linejoin="round" d=" M 419.556, 711.111 419.556, 711.111 429.556, 711.111 439.556, 711.111 449.556, 711.111 459.556, 711.111 469.556, 711.111 479.556, 711.111 489.556, 711.111 499.556, 711.111 509.556, 711.111 519.556, 711.111 529.556, 711.111 539.556, 711.111 549.556, 711.111 559.556, 711.111 569.556, 711.111 579.556, 711.111 589.556, 711.111 599.556, 711.111 609.556, 711.111 619.556, 711.111 629.556, 711.111 639.556, 711.111 649.556, 711.111 661.333, 711.111 661.333, 701.111 661.333, 696.889 " />
            <path fill="none" stroke-width="1.5" stroke-linecap="round" stroke-opacity="1.0" stroke="rgb(0, 0, 0)" stroke-linejoin="round" d=" M 661.333, 711.111 661.333, 701.111 661.333, 696.889 661.333, 696.889 661.333, 686.889 661.333, 676.889 661.333, 666.889 661.333, 656.889 661.333, 646.889 661.333, 640.000 661.333, 640.000 661.333, 630.000 661.333, 620.000 661.333, 610.000 661.333, 600.000 661.333, 597.333 " />
            <path fill="none" stroke-width="1.5" stroke-linecap="round" stroke-opacity="1.0" stroke="rgb(0, 0, 0)" stroke-linejoin="round" d=" M 376.889, 597.333 376.889, 607.333 376.889, 617.333 376.889, 627.333 376.889, 637.333 376.889, 640.000 376.889, 640.000 376.889, 650.000 376.889, 660.000 376.889, 670.000 376.889, 680.000 376.889, 690.000 376.889, 696.889 376.889, 696.889 376.889, 706.889 376.889, 711.111 " />
            <path fill="none" stroke-width="1.5" stroke-linecap="round" stroke-opacity="1.0" stroke="rgb(0, 0, 0)" stroke-linejoin="round" d=" M 376.889, 711.111 386.889, 711.111 396.889, 711.111 406.889, 711.111 416.889, 711.111 419.556, 711.111 419.556, 711.111 429.556, 711.111 439.556, 711.111 449.556, 711.111 459.556, 711.111 469.556, 711.111 479.556, 711.111 489.556, 711.111 499.556, 711.111 509.556, 711.111 519.556, 711.111 529.556, 711.111 539.556, 711.111 549.556, 711.111 559.556, 711.111 569.556, 711.111 579.556, 711.111 589.556, 711.111 599.556, 711.111 609.556, 711.111 619.556, 711.111 629.556, 711.111 639.556, 711.111 649.556, 711.111 661.333, 711.111 " />
            <path fill="none" stroke-width="1.5" stroke-linecap="round" stroke-opacity="1.0" stroke="rgb(0, 0, 0)" stroke-linejoin="round" d=" M 376.889, 711.111 376.889, 711.111 " />
            <path fill="none" stroke-width="1.5" stroke-linecap="round" stroke-opacity="1.0" stroke="rgb(0, 0, 0)" stroke-linejoin="round" d=" M 661.333, 597.333 661.333, 597.333 " />
            <path fill="none" stroke-width="1.5" stroke-linecap="round" stroke-opacity="1.0" stroke="rgb(0, 0, 0)" stroke-linejoin="round" d=" M 661.333, 597.333 651.333, 597.333 641.333, 597.333 631.333, 597.333 621.333, 597.333 611.333, 597.333 601.333, 597.333 591.333, 597.333 581.333, 597.333 571.333, 597.333 561.333, 597.333 551.333, 597.333 541.333, 597.333 531.333, 597.333 521.333, 597.333 511.333, 597.333 501.333, 597.333 491.333, 597.333 481.333, 597.333 471.333, 597.333 461.333, 597.333 451.333, 597.333 441.333, 597.333 431.333, 597.333 419.556, 597.333 419.556, 597.333 409.556, 597.333 399.556, 597.333 389.556, 597.333 379.556, 597.333 376.889, 597.333 " />
            <path fill="none" stroke-width="1.5" stroke-linecap="round" stroke-opacity="1.0" stroke="rgb(0, 0, 0)" stroke-linejoin="round" d=" M 661.333, 640.000 661.333, 640.000 " />
            <path fill="none" stroke-width="1.5" stroke-linecap="round" stroke-opacity="1.0" stroke="rgb(0, 0, 0)" stroke-linejoin="round" d=" M 661.333, 640.000 661.333, 630.000 661.333, 620.000 661.333, 610.000 661.333, 600.000 661.333, 597.333 " />
            <path fill="none" stroke-width="1.5" stroke-linecap="round" stroke-opacity="1.0" stroke="rgb(0, 0, 0)" stroke-linejoin="round" d=" M 661.333, 696.889 661.333, 686.889 661.333, 676.889 661.333, 666.889 661.333, 656.889 661.333, 646.889 661.333, 640.000 " />
            <path fill="none" stroke-width="1.5" stroke-linecap="round" stroke-opacity="1.0" stroke="rgb(0, 0, 0)" stroke-linejoin="round" d=" M 661.333, 597.333 661.333, 597.333 " />
        </g>
    </g>
</svg>
