<?xml version='1.0' encoding='ascii'?>
<svg xmlns="http://www.w3.org/2000/svg" xmlns:inkscape="http://www.inkscape.org/namespaces/inkscape" version="1.1" width="1024" height="1024">
    <g id="ViewLayer_LineSet" inkscape:groupmode="lineset" inkscape:label="ViewLayer_LineSet">
        <g inkscape:groupmode="layer" id="strokes" inkscape:label="strokes">
            <path fill="none" stroke-width="3.0" stroke-linecap="butt" stroke-opacity="1.0" stroke="rgb(0, 0, 0)" stroke-linejoin="round" d=" M 421.700, 796.445 421.700, 786.445 421.700, 776.445 421.700, 766.445 421.700, 756.445 421.700, 746.445 421.700, 736.445 421.700, 726.445 421.700, 716.445 421.700, 706.445 421.700, 696.445 421.700, 686.445 421.700, 676.445 421.700, 666.445 421.700, 656.445 421.700, 646.445 421.700, 636.445 421.700, 626.445 421.700, 616.445 421.700, 606.445 421.700, 596.445 421.700, 586.445 421.700, 576.445 421.700, 566.445 421.700, 556.445 421.700, 546.445 421.700, 536.445 421.700, 526.445 421.700, 516.445 421.700, 506.445 421.700, 496.445 421.700, 487.168 421.700, 487.168 " />
            <path fill="none" stroke-width="3.0" stroke-linecap="butt" stroke-opacity="1.0" stroke="rgb(0, 0, 0)" stroke-linejoin="round" d=" M 376.550, 796.445 376.984, 796.445 378.269, 796.445 380.355, 796.445 383.162, 796.445 386.583, 796.445 390.486, 796.445 394.721, 796.445 399.125, 796.445 403.529, 796.445 407.764, 796.445 411.667, 796.445 415.088, 796.445 417.896, 796.445 419.982, 796.445 421.266, 796.445 421.700, 796.445 " />
            <path fill="none" stroke-width="3.0" stroke-linecap="butt" stroke-opacity="1.0" stroke="rgb(0, 0, 0)" stroke-linejoin="round" d=" M 647.450, 796.445 647.450, 786.445 647.450, 776.445 647.450, 766.445 647.450, 756.445 647.450, 746.445 647.450, 736.445 647.450, 726.445 647.450, 716.445 647.450, 706.445 647.450, 696.445 647.450, 686.445 647.450, 676.445 647.450, 666.445 647.450, 656.445 647.450, 646.445 647.450, 636.445 647.450, 626.445 647.450, 616.445 647.450, 606.445 647.450, 596.445 647.450, 586.445 647.450, 576.445 647.450, 566.445 647.450, 556.445 647.450, 546.445 647.450, 536.445 647.450, 526.445 647.450, 516.445 647.450, 506.445 647.450, 496.445 647.450, 487.168 647.450, 487.168 " />
            <path fill="none" stroke-width="3.0" stroke-linecap="butt" stroke-opacity="1.0" stroke="rgb(0, 0, 0)" stroke-linejoin="round" d=" M 602.300, 487.168 602.300, 487.168 602.300, 497.168 602.300, 507.168 602.300, 517.168 602.300, 527.168 602.300, 537.168 602.300, 547.168 602.300, 557.168 602.300, 567.168 602.300, 577.168 602.300, 587.168 602.300, 597.168 602.300, 607.168 602.300, 617.168 602.300, 627.168 602.300, 637.168 602.300, 647.168 602.300, 657.168 602.300, 667.168 602.300, 677.168 602.300, 687.168 602.300, 697.168 602.300, 707.168 602.300, 717.168 602.300, 727.168 602.300, 737.168 602.300, 747.168 602.300, 757.168 602.300, 767.168 602.300, 777.168 602.300, 787.168 602.300, 796.445 602.734, 796.445 604.018, 796.445 606.104, 796.445 608.912, 796.445 612.333, 796.445 616.236, 796.445 620.471, 796.445 624.875, 796.445 629.279, 796.445 633.514, 796.445 637.417, 796.445 640.838, 796.445 643.645, 796.445 645.731, 796.445 647.016, 796.445 647.450, 796.445 " />
            <path fill="none" stroke-width="3.0" stroke-linecap="butt" stroke-opacity="1.0" stroke="rgb(0, 0, 0)" stroke-linejoin="round" d=" M 647.450, 487.168 647.450, 477.168 647.450, 473.623 637.450, 473.623 627.450, 473.623 617.450, 473.623 607.450, 473.623 597.450, 473.623 587.450, 473.623 577.450, 473.623 567.450, 473.623 557.450, 473.623 547.450, 473.623 537.450, 473.623 527.450, 473.623 517.450, 473.623 507.450, 473.623 497.450, 473.623 487.450, 473.623 477.450, 473.623 467.450, 473.623 457.450, 473.623 447.450, 473.623 437.450, 473.623 427.450, 473.623 417.450, 473.623 407.450, 473.623 397.450, 473.623 387.450, 473.623 376.550, 473.623 376.550, 483.623 376.550, 487.168 " />
            <path fill="none" stroke-width="3.0" stroke-linecap="butt" stroke-opacity="1.0" stroke="rgb(0, 0, 0)" stroke-linejoin="round" d=" M 518.772, 227.556 508.772, 227.556 505.228, 227.556 505.228, 237.556 505.228, 247.556 505.228, 257.556 505.228, 267.556 505.228, 277.556 505.228, 287.556 505.228, 297.556 505.228, 307.556 505.228, 317.556 505.228, 327.556 505.228, 337.556 505.228, 347.556 505.228, 357.556 505.228, 367.556 505.228, 377.556 505.228, 387.556 505.228, 397.556 505.228, 407.556 505.228, 417.185 505.228, 417.185 515.228, 417.185 518.772, 417.185 518.772, 417.185 518.772, 407.185 518.772, 397.185 518.772, 387.185 518.772, 377.185 518.772, 367.185 518.772, 357.185 518.772, 347.185 518.772, 337.185 518.772, 327.185 518.772, 317.185 518.772, 307.185 518.772, 297.185 518.772, 287.185 518.772, 277.185 518.772, 267.185 518.772, 257.185 518.772, 247.185 518.772, 237.185 518.772, 227.556 " />
            <path fill="none" stroke-width="3.0" stroke-linecap="butt" stroke-opacity="1.0" stroke="rgb(0, 0, 0)" stroke-linejoin="round" d=" M 505.228, 417.185 515.228, 417.185 518.772, 417.185 " />
            <path fill="none" stroke-width="3.0" stroke-linecap="butt" stroke-opacity="1.0" stroke="rgb(0, 0, 0)" stroke-linejoin="round" d=" M 376.550, 487.168 376.550, 487.168 376.550, 497.168 376.550, 507.168 376.550, 517.168 376.550, 527.168 376.550, 537.168 376.550, 547.168 376.550, 557.168 376.550, 567.168 376.550, 577.168 376.550, 587.168 376.550, 597.168 376.550, 607.168 376.550, 617.168 376.550, 627.168 376.550, 637.168 376.550, 647.168 376.550, 657.168 376.550, 667.168 376.550, 677.168 376.550, 687.168 376.550, 697.168 376.550, 707.168 376.550, 717.168 376.550, 727.168 376.550, 737.168 376.550, 747.168 376.550, 757.168 376.550, 767.168 376.550, 777.168 376.550, 787.168 376.550, 796.445 " />
            <path fill="none" stroke-width="3.0" stroke-linecap="butt" stroke-opacity="1.0" stroke="rgb(0, 0, 0)" stroke-linejoin="round" d=" M 421.700, 487.168 431.700, 487.168 441.700, 487.168 451.700, 487.168 461.700, 487.168 471.700, 487.168 481.700, 487.168 491.700, 487.168 501.700, 487.168 511.700, 487.168 521.700, 487.168 531.700, 487.168 541.700, 487.168 551.700, 487.168 561.700, 487.168 571.700, 487.168 581.700, 487.168 591.700, 487.168 602.300, 487.168 " />
            <path fill="none" stroke-width="3.0" stroke-linecap="butt" stroke-opacity="1.0" stroke="rgb(0, 0, 0)" stroke-linejoin="round" d=" M 602.300, 487.168 612.300, 487.168 622.300, 487.168 632.300, 487.168 642.300, 487.168 647.450, 487.168 " />
            <path fill="none" stroke-width="3.0" stroke-linecap="butt" stroke-opacity="1.0" stroke="rgb(0, 0, 0)" stroke-linejoin="round" d=" M 421.700, 487.168 431.700, 487.168 441.700, 487.168 451.700, 487.168 461.700, 487.168 471.700, 487.168 481.700, 487.168 491.700, 487.168 501.700, 487.168 511.700, 487.168 521.700, 487.168 531.700, 487.168 541.700, 487.168 551.700, 487.168 561.700, 487.168 571.700, 487.168 581.700, 487.168 591.700, 487.168 602.300, 487.168 " />
            <path fill="none" stroke-width="3.0" stroke-linecap="butt" stroke-opacity="1.0" stroke="rgb(0, 0, 0)" stroke-linejoin="round" d=" M 376.550, 487.168 386.550, 487.168 396.550, 487.168 406.550, 487.168 416.550, 487.168 421.700, 487.168 " />
        </g>
    </g>
    <g id="ViewLayer_TechnicalLines" inkscape:groupmode="lineset" inkscape:label="ViewLayer_TechnicalLines">
        <g inkscape:groupmode="layer" id="strokes" inkscape:label="strokes">
            <path fill="none" stroke-width="3.0" stroke-linecap="butt" stroke-opacity="1.0" stroke="rgb(0, 0, 0)" stroke-linejoin="round" d=" M 421.700, 796.445 421.700, 786.445 421.700, 776.445 421.700, 766.445 421.700, 756.445 421.700, 746.445 421.700, 736.445 421.700, 726.445 421.700, 716.445 421.700, 706.445 421.700, 696.445 421.700, 686.445 421.700, 676.445 421.700, 666.445 421.700, 656.445 421.700, 646.445 421.700, 636.445 421.700, 626.445 421.700, 616.445 421.700, 606.445 421.700, 596.445 421.700, 586.445 421.700, 576.445 421.700, 566.445 421.700, 556.445 421.700, 546.445 421.700, 536.445 421.700, 526.445 421.700, 516.445 421.700, 506.445 421.700, 496.445 421.700, 487.168 421.700, 487.168 " />
            <path fill="none" stroke-width="3.0" stroke-linecap="butt" stroke-opacity="1.0" stroke="rgb(0, 0, 0)" stroke-linejoin="round" d=" M 376.550, 796.445 376.984, 796.445 378.269, 796.445 380.355, 796.445 383.162, 796.445 386.583, 796.445 390.486, 796.445 394.721, 796.445 399.125, 796.445 403.529, 796.445 407.764, 796.445 411.667, 796.445 415.088, 796.445 417.896, 796.445 419.982, 796.445 421.266, 796.445 421.700, 796.445 " />
            <path fill="none" stroke-width="3.0" stroke-linecap="butt" stroke-opacity="1.0" stroke="rgb(0, 0, 0)" stroke-linejoin="round" d=" M 647.450, 796.445 647.450, 786.445 647.450, 776.445 647.450, 766.445 647.450, 756.445 647.450, 746.445 647.450, 736.445 647.450, 726.445 647.450, 716.445 647.450, 706.445 647.450, 696.445 647.450, 686.445 647.450, 676.445 647.450, 666.445 647.450, 656.445 647.450, 646.445 647.450, 636.445 647.450, 626.445 647.450, 616.445 647.450, 606.445 647.450, 596.445 647.450, 586.445 647.450, 576.445 647.450, 566.445 647.450, 556.445 647.450, 546.445 647.450, 536.445 647.450, 526.445 647.450, 516.445 647.450, 506.445 647.450, 496.445 647.450, 487.168 647.450, 487.168 " />
            <path fill="none" stroke-width="3.0" stroke-linecap="butt" stroke-opacity="1.0" stroke="rgb(0, 0, 0)" stroke-linejoin="round" d=" M 602.300, 487.168 602.300, 487.168 602.300, 497.168 602.300, 507.168 602.300, 517.168 602.300, 527.168 602.300, 537.168 602.300, 547.168 602.300, 557.168 602.300, 567.168 602.300, 577.168 602.300, 587.168 602.300, 597.168 602.300, 607.168 602.300, 617.168 602.300, 627.168 602.300, 637.168 602.300, 647.168 602.300, 657.168 602.300, 667.168 602.300, 677.168 602.300, 687.168 602.300, 697.168 602.300, 707.168 602.300, 717.168 602.300, 727.168 602.300, 737.168 602.300, 747.168 602.300, 757.168 602.300, 767.168 602.300, 777.168 602.300, 787.168 602.300, 796.445 602.734, 796.445 604.018, 796.445 606.104, 796.445 608.912, 796.445 612.333, 796.445 616.236, 796.445 620.471, 796.445 624.875, 796.445 629.279, 796.445 633.514, 796.445 637.417, 796.445 640.838, 796.445 643.645, 796.445 645.731, 796.445 647.016, 796.445 647.450, 796.445 " />
            <path fill="none" stroke-width="3.0" stroke-linecap="butt" stroke-opacity="1.0" stroke="rgb(0, 0, 0)" stroke-linejoin="round" d=" M 647.450, 487.168 647.450, 477.168 647.450, 473.623 637.450, 473.623 627.450, 473.623 617.450, 473.623 607.450, 473.623 597.450, 473.623 587.450, 473.623 577.450, 473.623 567.450, 473.623 557.450, 473.623 547.450, 473.623 537.450, 473.623 527.450, 473.623 517.450, 473.623 507.450, 473.623 497.450, 473.623 487.450, 473.623 477.450, 473.623 467.450, 473.623 457.450, 473.623 447.450, 473.623 437.450, 473.623 427.450, 473.623 417.450, 473.623 407.450, 473.623 397.450, 473.623 387.450, 473.623 376.550, 473.623 376.550, 483.623 376.550, 487.168 " />
            <path fill="none" stroke-width="3.0" stroke-linecap="butt" stroke-opacity="1.0" stroke="rgb(0, 0, 0)" stroke-linejoin="round" d=" M 518.772, 227.556 508.772, 227.556 505.228, 227.556 505.228, 237.556 505.228, 247.556 505.228, 257.556 505.228, 267.556 505.228, 277.556 505.228, 287.556 505.228, 297.556 505.228, 307.556 505.228, 317.556 505.228, 327.556 505.228, 337.556 505.228, 347.556 505.228, 357.556 505.228, 367.556 505.228, 377.556 505.228, 387.556 505.228, 397.556 505.228, 407.556 505.228, 417.185 505.228, 417.185 515.228, 417.185 518.772, 417.185 518.772, 417.185 518.772, 407.185 518.772, 397.185 518.772, 387.185 518.772, 377.185 518.772, 367.185 518.772, 357.185 518.772, 347.185 518.772, 337.185 518.772, 327.185 518.772, 317.185 518.772, 307.185 518.772, 297.185 518.772, 287.185 518.772, 277.185 518.772, 267.185 518.772, 257.185 518.772, 247.185 518.772, 237.185 518.772, 227.556 " />
            <path fill="none" stroke-width="3.0" stroke-linecap="butt" stroke-opacity="1.0" stroke="rgb(0, 0, 0)" stroke-linejoin="round" d=" M 505.228, 417.185 515.228, 417.185 518.772, 417.185 " />
            <path fill="none" stroke-width="3.0" stroke-linecap="butt" stroke-opacity="1.0" stroke="rgb(0, 0, 0)" stroke-linejoin="round" d=" M 376.550, 487.168 376.550, 487.168 376.550, 497.168 376.550, 507.168 376.550, 517.168 376.550, 527.168 376.550, 537.168 376.550, 547.168 376.550, 557.168 376.550, 567.168 376.550, 577.168 376.550, 587.168 376.550, 597.168 376.550, 607.168 376.550, 617.168 376.550, 627.168 376.550, 637.168 376.550, 647.168 376.550, 657.168 376.550, 667.168 376.550, 677.168 376.550, 687.168 376.550, 697.168 376.550, 707.168 376.550, 717.168 376.550, 727.168 376.550, 737.168 376.550, 747.168 376.550, 757.168 376.550, 767.168 376.550, 777.168 376.550, 787.168 376.550, 796.445 " />
            <path fill="none" stroke-width="3.0" stroke-linecap="butt" stroke-opacity="1.0" stroke="rgb(0, 0, 0)" stroke-linejoin="round" d=" M 421.700, 487.168 431.700, 487.168 441.700, 487.168 451.700, 487.168 461.700, 487.168 471.700, 487.168 481.700, 487.168 491.700, 487.168 501.700, 487.168 511.700, 487.168 521.700, 487.168 531.700, 487.168 541.700, 487.168 551.700, 487.168 561.700, 487.168 571.700, 487.168 581.700, 487.168 591.700, 487.168 602.300, 487.168 " />
            <path fill="none" stroke-width="3.0" stroke-linecap="butt" stroke-opacity="1.0" stroke="rgb(0, 0, 0)" stroke-linejoin="round" d=" M 602.300, 487.168 612.300, 487.168 622.300, 487.168 632.300, 487.168 642.300, 487.168 647.450, 487.168 " />
            <path fill="none" stroke-width="3.0" stroke-linecap="butt" stroke-opacity="1.0" stroke="rgb(0, 0, 0)" stroke-linejoin="round" d=" M 421.700, 487.168 431.700, 487.168 441.700, 487.168 451.700, 487.168 461.700, 487.168 471.700, 487.168 481.700, 487.168 491.700, 487.168 501.700, 487.168 511.700, 487.168 521.700, 487.168 531.700, 487.168 541.700, 487.168 551.700, 487.168 561.700, 487.168 571.700, 487.168 581.700, 487.168 591.700, 487.168 602.300, 487.168 " />
            <path fill="none" stroke-width="3.0" stroke-linecap="butt" stroke-opacity="1.0" stroke="rgb(0, 0, 0)" stroke-linejoin="round" d=" M 376.550, 487.168 386.550, 487.168 396.550, 487.168 406.550, 487.168 416.550, 487.168 421.700, 487.168 " />
        </g>
    </g>
    <g id="ViewLayer_TechnicalLines.001" inkscape:groupmode="lineset" inkscape:label="ViewLayer_TechnicalLines.001">
        <g inkscape:groupmode="layer" id="strokes" inkscape:label="strokes">
            <path fill="none" stroke-width="1.5" stroke-linecap="round" stroke-opacity="1.0" stroke="rgb(0, 0, 0)" stroke-linejoin="round" d=" M 421.700, 796.445 421.700, 786.445 421.700, 776.445 421.700, 766.445 421.700, 756.445 421.700, 746.445 421.700, 736.445 421.700, 726.445 421.700, 716.445 421.700, 706.445 421.700, 696.445 421.700, 686.445 421.700, 676.445 421.700, 666.445 421.700, 656.445 421.700, 646.445 421.700, 636.445 421.700, 626.445 421.700, 616.445 421.700, 606.445 421.700, 596.445 421.700, 586.445 421.700, 576.445 421.700, 566.445 421.700, 556.445 421.700, 546.445 421.700, 536.445 421.700, 526.445 421.700, 516.445 421.700, 506.445 421.700, 496.445 421.700, 487.168 421.700, 487.168 " />
            <path fill="none" stroke-width="1.5" stroke-linecap="round" stroke-opacity="1.0" stroke="rgb(0, 0, 0)" stroke-linejoin="round" d=" M 376.550, 796.445 376.984, 796.445 378.269, 796.445 380.355, 796.445 383.162, 796.445 386.583, 796.445 390.486, 796.445 394.721, 796.445 399.125, 796.445 403.529, 796.445 407.764, 796.445 411.667, 796.445 415.088, 796.445 417.896, 796.445 419.982, 796.445 421.266, 796.445 421.700, 796.445 " />
            <path fill="none" stroke-width="1.5" stroke-linecap="round" stroke-opacity="1.0" stroke="rgb(0, 0, 0)" stroke-linejoin="round" d=" M 647.450, 796.445 647.450, 786.445 647.450, 776.445 647.450, 766.445 647.450, 756.445 647.450, 746.445 647.450, 736.445 647.450, 726.445 647.450, 716.445 647.450, 706.445 647.450, 696.445 647.450, 686.445 647.450, 676.445 647.450, 666.445 647.450, 656.445 647.450, 646.445 647.450, 636.445 647.450, 626.445 647.450, 616.445 647.450, 606.445 647.450, 596.445 647.450, 586.445 647.450, 576.445 647.450, 566.445 647.450, 556.445 647.450, 546.445 647.450, 536.445 647.450, 526.445 647.450, 516.445 647.450, 506.445 647.450, 496.445 647.450, 487.168 647.450, 487.168 " />
            <path fill="none" stroke-width="1.5" stroke-linecap="round" stroke-opacity="1.0" stroke="rgb(0, 0, 0)" stroke-linejoin="round" d=" M 602.300, 487.168 602.300, 487.168 602.300, 497.168 602.300, 507.168 602.300, 517.168 602.300, 527.168 602.300, 537.168 602.300, 547.168 602.300, 557.168 602.300, 567.168 602.300, 577.168 602.300, 587.168 602.300, 597.168 602.300, 607.168 602.300, 617.168 602.300, 627.168 602.300, 637.168 602.300, 647.168 602.300, 657.168 602.300, 667.168 602.300, 677.168 602.300, 687.168 602.300, 697.168 602.300, 707.168 602.300, 717.168 602.300, 727.168 602.300, 737.168 602.300, 747.168 602.300, 757.168 602.300, 767.168 602.300, 777.168 602.300, 787.168 602.300, 796.445 602.734, 796.445 604.018, 796.445 606.104, 796.445 608.912, 796.445 612.333, 796.445 616.236, 796.445 620.471, 796.445 624.875, 796.445 629.279, 796.445 633.514, 796.445 637.417, 796.445 640.838, 796.445 643.645, 796.445 645.731, 796.445 647.016, 796.445 647.450, 796.445 " />
            <path fill="none" stroke-width="1.5" stroke-linecap="round" stroke-opacity="1.0" stroke="rgb(0, 0, 0)" stroke-linejoin="round" d=" M 647.450, 487.168 647.450, 477.168 647.450, 473.623 637.450, 473.623 627.450, 473.623 617.450, 473.623 607.450, 473.623 597.450, 473.623 587.450, 473.623 577.450, 473.623 567.450, 473.623 557.450, 473.623 547.450, 473.623 537.450, 473.623 527.450, 473.623 517.450, 473.623 507.450, 473.623 497.450, 473.623 487.450, 473.623 477.450, 473.623 467.450, 473.623 457.450, 473.623 447.450, 473.623 437.450, 473.623 427.450, 473.623 417.450, 473.623 407.450, 473.623 397.450, 473.623 387.450, 473.623 376.550, 473.623 376.550, 483.623 376.550, 487.168 " />
            <path fill="none" stroke-width="1.5" stroke-linecap="round" stroke-opacity="1.0" stroke="rgb(0, 0, 0)" stroke-linejoin="round" d=" M 518.772, 227.556 508.772, 227.556 505.228, 227.556 505.228, 237.556 505.228, 247.556 505.228, 257.556 505.228, 267.556 505.228, 277.556 505.228, 287.556 505.228, 297.556 505.228, 307.556 505.228, 317.556 505.228, 327.556 505.228, 337.556 505.228, 347.556 505.228, 357.556 505.228, 367.556 505.228, 377.556 505.228, 387.556 505.228, 397.556 505.228, 407.556 505.228, 417.185 505.228, 417.185 515.228, 417.185 518.772, 417.185 518.772, 417.185 518.772, 407.185 518.772, 397.185 518.772, 387.185 518.772, 377.185 518.772, 367.185 518.772, 357.185 518.772, 347.185 518.772, 337.185 518.772, 327.185 518.772, 317.185 518.772, 307.185 518.772, 297.185 518.772, 287.185 518.772, 277.185 518.772, 267.185 518.772, 257.185 518.772, 247.185 518.772, 237.185 518.772, 227.556 " />
            <path fill="none" stroke-width="1.5" stroke-linecap="round" stroke-opacity="1.0" stroke="rgb(0, 0, 0)" stroke-linejoin="round" d=" M 505.228, 417.185 515.228, 417.185 518.772, 417.185 " />
            <path fill="none" stroke-width="1.5" stroke-linecap="round" stroke-opacity="1.0" stroke="rgb(0, 0, 0)" stroke-linejoin="round" d=" M 376.550, 487.168 376.550, 487.168 376.550, 497.168 376.550, 507.168 376.550, 517.168 376.550, 527.168 376.550, 537.168 376.550, 547.168 376.550, 557.168 376.550, 567.168 376.550, 577.168 376.550, 587.168 376.550, 597.168 376.550, 607.168 376.550, 617.168 376.550, 627.168 376.550, 637.168 376.550, 647.168 376.550, 657.168 376.550, 667.168 376.550, 677.168 376.550, 687.168 376.550, 697.168 376.550, 707.168 376.550, 717.168 376.550, 727.168 376.550, 737.168 376.550, 747.168 376.550, 757.168 376.550, 767.168 376.550, 777.168 376.550, 787.168 376.550, 796.445 " />
            <path fill="none" stroke-width="1.5" stroke-linecap="round" stroke-opacity="1.0" stroke="rgb(0, 0, 0)" stroke-linejoin="round" d=" M 421.700, 487.168 431.700, 487.168 441.700, 487.168 451.700, 487.168 461.700, 487.168 471.700, 487.168 481.700, 487.168 491.700, 487.168 501.700, 487.168 511.700, 487.168 521.700, 487.168 531.700, 487.168 541.700, 487.168 551.700, 487.168 561.700, 487.168 571.700, 487.168 581.700, 487.168 591.700, 487.168 602.300, 487.168 " />
            <path fill="none" stroke-width="1.5" stroke-linecap="round" stroke-opacity="1.0" stroke="rgb(0, 0, 0)" stroke-linejoin="round" d=" M 602.300, 487.168 612.300, 487.168 622.300, 487.168 632.300, 487.168 642.300, 487.168 647.450, 487.168 " />
            <path fill="none" stroke-width="1.5" stroke-linecap="round" stroke-opacity="1.0" stroke="rgb(0, 0, 0)" stroke-linejoin="round" d=" M 421.700, 487.168 431.700, 487.168 441.700, 487.168 451.700, 487.168 461.700, 487.168 471.700, 487.168 481.700, 487.168 491.700, 487.168 501.700, 487.168 511.700, 487.168 521.700, 487.168 531.700, 487.168 541.700, 487.168 551.700, 487.168 561.700, 487.168 571.700, 487.168 581.700, 487.168 591.700, 487.168 602.300, 487.168 " />
            <path fill="none" stroke-width="1.5" stroke-linecap="round" stroke-opacity="1.0" stroke="rgb(0, 0, 0)" stroke-linejoin="round" d=" M 376.550, 487.168 386.550, 487.168 396.550, 487.168 406.550, 487.168 416.550, 487.168 421.700, 487.168 " />
        </g>
    </g>
    <g id="ViewLayer_TechnicalLines.002" inkscape:groupmode="lineset" inkscape:label="ViewLayer_TechnicalLines.002">
        <g inkscape:groupmode="layer" id="strokes" inkscape:label="strokes">
            <path fill="none" stroke-width="1.5" stroke-linecap="round" stroke-opacity="1.0" stroke="rgb(0, 0, 0)" stroke-linejoin="round" d=" M 421.700, 796.445 421.700, 786.445 421.700, 776.445 421.700, 766.445 421.700, 756.445 421.700, 746.445 421.700, 736.445 421.700, 726.445 421.700, 716.445 421.700, 706.445 421.700, 696.445 421.700, 686.445 421.700, 676.445 421.700, 666.445 421.700, 656.445 421.700, 646.445 421.700, 636.445 421.700, 626.445 421.700, 616.445 421.700, 606.445 421.700, 596.445 421.700, 586.445 421.700, 576.445 421.700, 566.445 421.700, 556.445 421.700, 546.445 421.700, 536.445 421.700, 526.445 421.700, 516.445 421.700, 506.445 421.700, 496.445 421.700, 487.168 421.700, 487.168 " />
            <path fill="none" stroke-width="1.5" stroke-linecap="round" stroke-opacity="1.0" stroke="rgb(0, 0, 0)" stroke-linejoin="round" d=" M 376.550, 796.445 376.984, 796.445 378.269, 796.445 380.355, 796.445 383.162, 796.445 386.583, 796.445 390.486, 796.445 394.721, 796.445 399.125, 796.445 403.529, 796.445 407.764, 796.445 411.667, 796.445 415.088, 796.445 417.896, 796.445 419.982, 796.445 421.266, 796.445 421.700, 796.445 " />
            <path fill="none" stroke-width="1.5" stroke-linecap="round" stroke-opacity="1.0" stroke="rgb(0, 0, 0)" stroke-linejoin="round" d=" M 647.450, 796.445 647.450, 786.445 647.450, 776.445 647.450, 766.445 647.450, 756.445 647.450, 746.445 647.450, 736.445 647.450, 726.445 647.450, 716.445 647.450, 706.445 647.450, 696.445 647.450, 686.445 647.450, 676.445 647.450, 666.445 647.450, 656.445 647.450, 646.445 647.450, 636.445 647.450, 626.445 647.450, 616.445 647.450, 606.445 647.450, 596.445 647.450, 586.445 647.450, 576.445 647.450, 566.445 647.450, 556.445 647.450, 546.445 647.450, 536.445 647.450, 526.445 647.450, 516.445 647.450, 506.445 647.450, 496.445 647.450, 487.168 647.450, 487.168 " />
            <path fill="none" stroke-width="1.5" stroke-linecap="round" stroke-opacity="1.0" stroke="rgb(0, 0, 0)" stroke-linejoin="round" d=" M 602.300, 487.168 602.300, 487.168 602.300, 497.168 602.300, 507.168 602.300, 517.168 602.300, 527.168 602.300, 537.168 602.300, 547.168 602.300, 557.168 602.300, 567.168 602.300, 577.168 602.300, 587.168 602.300, 597.168 602.300, 607.168 602.300, 617.168 602.300, 627.168 602.300, 637.168 602.300, 647.168 602.300, 657.168 602.300, 667.168 602.300, 677.168 602.300, 687.168 602.300, 697.168 602.300, 707.168 602.300, 717.168 602.300, 727.168 602.300, 737.168 602.300, 747.168 602.300, 757.168 602.300, 767.168 602.300, 777.168 602.300, 787.168 602.300, 796.445 602.734, 796.445 604.018, 796.445 606.104, 796.445 608.912, 796.445 612.333, 796.445 616.236, 796.445 620.471, 796.445 624.875, 796.445 629.279, 796.445 633.514, 796.445 637.417, 796.445 640.838, 796.445 643.645, 796.445 645.731, 796.445 647.016, 796.445 647.450, 796.445 " />
            <path fill="none" stroke-width="1.5" stroke-linecap="round" stroke-opacity="1.0" stroke="rgb(0, 0, 0)" stroke-linejoin="round" d=" M 647.450, 487.168 647.450, 477.168 647.450, 473.623 637.450, 473.623 627.450, 473.623 617.450, 473.623 607.450, 473.623 597.450, 473.623 587.450, 473.623 577.450, 473.623 567.450, 473.623 557.450, 473.623 547.450, 473.623 537.450, 473.623 527.450, 473.623 517.450, 473.623 507.450, 473.623 497.450, 473.623 487.450, 473.623 477.450, 473.623 467.450, 473.623 457.450, 473.623 447.450, 473.623 437.450, 473.623 427.450, 473.623 417.450, 473.623 407.450, 473.623 397.450, 473.623 387.450, 473.623 376.550, 473.623 376.550, 483.623 376.550, 487.168 " />
            <path fill="none" stroke-width="1.5" stroke-linecap="round" stroke-opacity="1.0" stroke="rgb(0, 0, 0)" stroke-linejoin="round" d=" M 518.772, 227.556 508.772, 227.556 505.228, 227.556 505.228, 237.556 505.228, 247.556 505.228, 257.556 505.228, 267.556 505.228, 277.556 505.228, 287.556 505.228, 297.556 505.228, 307.556 505.228, 317.556 505.228, 327.556 505.228, 337.556 505.228, 347.556 505.228, 357.556 505.228, 367.556 505.228, 377.556 505.228, 387.556 505.228, 397.556 505.228, 407.556 505.228, 417.185 505.228, 417.185 515.228, 417.185 518.772, 417.185 518.772, 417.185 518.772, 407.185 518.772, 397.185 518.772, 387.185 518.772, 377.185 518.772, 367.185 518.772, 357.185 518.772, 347.185 518.772, 337.185 518.772, 327.185 518.772, 317.185 518.772, 307.185 518.772, 297.185 518.772, 287.185 518.772, 277.185 518.772, 267.185 518.772, 257.185 518.772, 247.185 518.772, 237.185 518.772, 227.556 " />
            <path fill="none" stroke-width="1.5" stroke-linecap="round" stroke-opacity="1.0" stroke="rgb(0, 0, 0)" stroke-linejoin="round" d=" M 505.228, 417.185 515.228, 417.185 518.772, 417.185 " />
            <path fill="none" stroke-width="1.5" stroke-linecap="round" stroke-opacity="1.0" stroke="rgb(0, 0, 0)" stroke-linejoin="round" d=" M 376.550, 487.168 376.550, 487.168 376.550, 497.168 376.550, 507.168 376.550, 517.168 376.550, 527.168 376.550, 537.168 376.550, 547.168 376.550, 557.168 376.550, 567.168 376.550, 577.168 376.550, 587.168 376.550, 597.168 376.550, 607.168 376.550, 617.168 376.550, 627.168 376.550, 637.168 376.550, 647.168 376.550, 657.168 376.550, 667.168 376.550, 677.168 376.550, 687.168 376.550, 697.168 376.550, 707.168 376.550, 717.168 376.550, 727.168 376.550, 737.168 376.550, 747.168 376.550, 757.168 376.550, 767.168 376.550, 777.168 376.550, 787.168 376.550, 796.445 " />
            <path fill="none" stroke-width="1.5" stroke-linecap="round" stroke-opacity="1.0" stroke="rgb(0, 0, 0)" stroke-linejoin="round" d=" M 421.700, 487.168 431.700, 487.168 441.700, 487.168 451.700, 487.168 461.700, 487.168 471.700, 487.168 481.700, 487.168 491.700, 487.168 501.700, 487.168 511.700, 487.168 521.700, 487.168 531.700, 487.168 541.700, 487.168 551.700, 487.168 561.700, 487.168 571.700, 487.168 581.700, 487.168 591.700, 487.168 602.300, 487.168 " />
            <path fill="none" stroke-width="1.5" stroke-linecap="round" stroke-opacity="1.0" stroke="rgb(0, 0, 0)" stroke-linejoin="round" d=" M 602.300, 487.168 612.300, 487.168 622.300, 487.168 632.300, 487.168 642.300, 487.168 647.450, 487.168 " />
            <path fill="none" stroke-width="1.5" stroke-linecap="round" stroke-opacity="1.0" stroke="rgb(0, 0, 0)" stroke-linejoin="round" d=" M 421.700, 487.168 431.700, 487.168 441.700, 487.168 451.700, 487.168 461.700, 487.168 471.700, 487.168 481.700, 487.168 491.700, 487.168 501.700, 487.168 511.700, 487.168 521.700, 487.168 531.700, 487.168 541.700, 487.168 551.700, 487.168 561.700, 487.168 571.700, 487.168 581.700, 487.168 591.700, 487.168 602.300, 487.168 " />
            <path fill="none" stroke-width="1.5" stroke-linecap="round" stroke-opacity="1.0" stroke="rgb(0, 0, 0)" stroke-linejoin="round" d=" M 376.550, 487.168 386.550, 487.168 396.550, 487.168 406.550, 487.168 416.550, 487.168 421.700, 487.168 " />
        </g>
    </g>
    <g id="ViewLayer_TechnicalLines.003" inkscape:groupmode="lineset" inkscape:label="ViewLayer_TechnicalLines.003">
        <g inkscape:groupmode="layer" id="strokes" inkscape:label="strokes">
            <path fill="none" stroke-width="1.5" stroke-linecap="round" stroke-opacity="1.0" stroke="rgb(0, 0, 0)" stroke-linejoin="round" d=" M 421.700, 796.445 421.700, 786.445 421.700, 776.445 421.700, 766.445 421.700, 756.445 421.700, 746.445 421.700, 736.445 421.700, 726.445 421.700, 716.445 421.700, 706.445 421.700, 696.445 421.700, 686.445 421.700, 676.445 421.700, 666.445 421.700, 656.445 421.700, 646.445 421.700, 636.445 421.700, 626.445 421.700, 616.445 421.700, 606.445 421.700, 596.445 421.700, 586.445 421.700, 576.445 421.700, 566.445 421.700, 556.445 421.700, 546.445 421.700, 536.445 421.700, 526.445 421.700, 516.445 421.700, 506.445 421.700, 496.445 421.700, 487.168 421.700, 487.168 " />
            <path fill="none" stroke-width="1.5" stroke-linecap="round" stroke-opacity="1.0" stroke="rgb(0, 0, 0)" stroke-linejoin="round" d=" M 376.550, 796.445 376.984, 796.445 378.269, 796.445 380.355, 796.445 383.162, 796.445 386.583, 796.445 390.486, 796.445 394.721, 796.445 399.125, 796.445 403.529, 796.445 407.764, 796.445 411.667, 796.445 415.088, 796.445 417.896, 796.445 419.982, 796.445 421.266, 796.445 421.700, 796.445 " />
            <path fill="none" stroke-width="1.5" stroke-linecap="round" stroke-opacity="1.0" stroke="rgb(0, 0, 0)" stroke-linejoin="round" d=" M 647.450, 796.445 647.450, 786.445 647.450, 776.445 647.450, 766.445 647.450, 756.445 647.450, 746.445 647.450, 736.445 647.450, 726.445 647.450, 716.445 647.450, 706.445 647.450, 696.445 647.450, 686.445 647.450, 676.445 647.450, 666.445 647.450, 656.445 647.450, 646.445 647.450, 636.445 647.450, 626.445 647.450, 616.445 647.450, 606.445 647.450, 596.445 647.450, 586.445 647.450, 576.445 647.450, 566.445 647.450, 556.445 647.450, 546.445 647.450, 536.445 647.450, 526.445 647.450, 516.445 647.450, 506.445 647.450, 496.445 647.450, 487.168 647.450, 487.168 " />
            <path fill="none" stroke-width="1.5" stroke-linecap="round" stroke-opacity="1.0" stroke="rgb(0, 0, 0)" stroke-linejoin="round" d=" M 602.300, 487.168 602.300, 487.168 602.300, 497.168 602.300, 507.168 602.300, 517.168 602.300, 527.168 602.300, 537.168 602.300, 547.168 602.300, 557.168 602.300, 567.168 602.300, 577.168 602.300, 587.168 602.300, 597.168 602.300, 607.168 602.300, 617.168 602.300, 627.168 602.300, 637.168 602.300, 647.168 602.300, 657.168 602.300, 667.168 602.300, 677.168 602.300, 687.168 602.300, 697.168 602.300, 707.168 602.300, 717.168 602.300, 727.168 602.300, 737.168 602.300, 747.168 602.300, 757.168 602.300, 767.168 602.300, 777.168 602.300, 787.168 602.300, 796.445 602.734, 796.445 604.018, 796.445 606.104, 796.445 608.912, 796.445 612.333, 796.445 616.236, 796.445 620.471, 796.445 624.875, 796.445 629.279, 796.445 633.514, 796.445 637.417, 796.445 640.838, 796.445 643.645, 796.445 645.731, 796.445 647.016, 796.445 647.450, 796.445 " />
            <path fill="none" stroke-width="1.5" stroke-linecap="round" stroke-opacity="1.0" stroke="rgb(0, 0, 0)" stroke-linejoin="round" d=" M 647.450, 487.168 647.450, 477.168 647.450, 473.623 637.450, 473.623 627.450, 473.623 617.450, 473.623 607.450, 473.623 597.450, 473.623 587.450, 473.623 577.450, 473.623 567.450, 473.623 557.450, 473.623 547.450, 473.623 537.450, 473.623 527.450, 473.623 517.450, 473.623 507.450, 473.623 497.450, 473.623 487.450, 473.623 477.450, 473.623 467.450, 473.623 457.450, 473.623 447.450, 473.623 437.450, 473.623 427.450, 473.623 417.450, 473.623 407.450, 473.623 397.450, 473.623 387.450, 473.623 376.550, 473.623 376.550, 483.623 376.550, 487.168 " />
            <path fill="none" stroke-width="1.5" stroke-linecap="round" stroke-opacity="1.0" stroke="rgb(0, 0, 0)" stroke-linejoin="round" d=" M 518.772, 227.556 508.772, 227.556 505.228, 227.556 505.228, 237.556 505.228, 247.556 505.228, 257.556 505.228, 267.556 505.228, 277.556 505.228, 287.556 505.228, 297.556 505.228, 307.556 505.228, 317.556 505.228, 327.556 505.228, 337.556 505.228, 347.556 505.228, 357.556 505.228, 367.556 505.228, 377.556 505.228, 387.556 505.228, 397.556 505.228, 407.556 505.228, 417.185 505.228, 417.185 515.228, 417.185 518.772, 417.185 518.772, 417.185 518.772, 407.185 518.772, 397.185 518.772, 387.185 518.772, 377.185 518.772, 367.185 518.772, 357.185 518.772, 347.185 518.772, 337.185 518.772, 327.185 518.772, 317.185 518.772, 307.185 518.772, 297.185 518.772, 287.185 518.772, 277.185 518.772, 267.185 518.772, 257.185 518.772, 247.185 518.772, 237.185 518.772, 227.556 " />
            <path fill="none" stroke-width="1.5" stroke-linecap="round" stroke-opacity="1.0" stroke="rgb(0, 0, 0)" stroke-linejoin="round" d=" M 505.228, 417.185 515.228, 417.185 518.772, 417.185 " />
            <path fill="none" stroke-width="1.5" stroke-linecap="round" stroke-opacity="1.0" stroke="rgb(0, 0, 0)" stroke-linejoin="round" d=" M 376.550, 487.168 376.550, 487.168 376.550, 497.168 376.550, 507.168 376.550, 517.168 376.550, 527.168 376.550, 537.168 376.550, 547.168 376.550, 557.168 376.550, 567.168 376.550, 577.168 376.550, 587.168 376.550, 597.168 376.550, 607.168 376.550, 617.168 376.550, 627.168 376.550, 637.168 376.550, 647.168 376.550, 657.168 376.550, 667.168 376.550, 677.168 376.550, 687.168 376.550, 697.168 376.550, 707.168 376.550, 717.168 376.550, 727.168 376.550, 737.168 376.550, 747.168 376.550, 757.168 376.550, 767.168 376.550, 777.168 376.550, 787.168 376.550, 796.445 " />
            <path fill="none" stroke-width="1.5" stroke-linecap="round" stroke-opacity="1.0" stroke="rgb(0, 0, 0)" stroke-linejoin="round" d=" M 421.700, 487.168 431.700, 487.168 441.700, 487.168 451.700, 487.168 461.700, 487.168 471.700, 487.168 481.700, 487.168 491.700, 487.168 501.700, 487.168 511.700, 487.168 521.700, 487.168 531.700, 487.168 541.700, 487.168 551.700, 487.168 561.700, 487.168 571.700, 487.168 581.700, 487.168 591.700, 487.168 602.300, 487.168 " />
            <path fill="none" stroke-width="1.5" stroke-linecap="round" stroke-opacity="1.0" stroke="rgb(0, 0, 0)" stroke-linejoin="round" d=" M 602.300, 487.168 612.300, 487.168 622.300, 487.168 632.300, 487.168 642.300, 487.168 647.450, 487.168 " />
            <path fill="none" stroke-width="1.5" stroke-linecap="round" stroke-opacity="1.0" stroke="rgb(0, 0, 0)" stroke-linejoin="round" d=" M 421.700, 487.168 431.700, 487.168 441.700, 487.168 451.700, 487.168 461.700, 487.168 471.700, 487.168 481.700, 487.168 491.700, 487.168 501.700, 487.168 511.700, 487.168 521.700, 487.168 531.700, 487.168 541.700, 487.168 551.700, 487.168 561.700, 487.168 571.700, 487.168 581.700, 487.168 591.700, 487.168 602.300, 487.168 " />
            <path fill="none" stroke-width="1.5" stroke-linecap="round" stroke-opacity="1.0" stroke="rgb(0, 0, 0)" stroke-linejoin="round" d=" M 376.550, 487.168 386.550, 487.168 396.550, 487.168 406.550, 487.168 416.550, 487.168 421.700, 487.168 " />
        </g>
    </g>
    <g id="ViewLayer_TechnicalLines.004" xmlns:inkscape="http://www.inkscape.org/namespaces/inkscape" inkscape:groupmode="lineset" inkscape:label="ViewLayer_TechnicalLines.004">
        <g xmlns:inkscape="http://www.inkscape.org/namespaces/inkscape" inkscape:groupmode="layer" id="strokes" inkscape:label="strokes">
            <path fill="none" stroke-width="1.5" stroke-linecap="round" stroke-opacity="1.0" stroke="rgb(0, 0, 0)" stroke-linejoin="round" d=" M 421.700, 796.445 421.700, 786.445 421.700, 776.445 421.700, 766.445 421.700, 756.445 421.700, 746.445 421.700, 736.445 421.700, 726.445 421.700, 716.445 421.700, 706.445 421.700, 696.445 421.700, 686.445 421.700, 676.445 421.700, 666.445 421.700, 656.445 421.700, 646.445 421.700, 636.445 421.700, 626.445 421.700, 616.445 421.700, 606.445 421.700, 596.445 421.700, 586.445 421.700, 576.445 421.700, 566.445 421.700, 556.445 421.700, 546.445 421.700, 536.445 421.700, 526.445 421.700, 516.445 421.700, 506.445 421.700, 496.445 421.700, 487.168 421.700, 487.168 " />
            <path fill="none" stroke-width="1.5" stroke-linecap="round" stroke-opacity="1.0" stroke="rgb(0, 0, 0)" stroke-linejoin="round" d=" M 376.550, 796.445 376.984, 796.445 378.269, 796.445 380.355, 796.445 383.162, 796.445 386.583, 796.445 390.486, 796.445 394.721, 796.445 399.125, 796.445 403.529, 796.445 407.764, 796.445 411.667, 796.445 415.088, 796.445 417.896, 796.445 419.982, 796.445 421.266, 796.445 421.700, 796.445 " />
            <path fill="none" stroke-width="1.5" stroke-linecap="round" stroke-opacity="1.0" stroke="rgb(0, 0, 0)" stroke-linejoin="round" d=" M 647.450, 796.445 647.450, 786.445 647.450, 776.445 647.450, 766.445 647.450, 756.445 647.450, 746.445 647.450, 736.445 647.450, 726.445 647.450, 716.445 647.450, 706.445 647.450, 696.445 647.450, 686.445 647.450, 676.445 647.450, 666.445 647.450, 656.445 647.450, 646.445 647.450, 636.445 647.450, 626.445 647.450, 616.445 647.450, 606.445 647.450, 596.445 647.450, 586.445 647.450, 576.445 647.450, 566.445 647.450, 556.445 647.450, 546.445 647.450, 536.445 647.450, 526.445 647.450, 516.445 647.450, 506.445 647.450, 496.445 647.450, 487.168 647.450, 487.168 " />
            <path fill="none" stroke-width="1.5" stroke-linecap="round" stroke-opacity="1.0" stroke="rgb(0, 0, 0)" stroke-linejoin="round" d=" M 602.300, 487.168 602.300, 487.168 602.300, 497.168 602.300, 507.168 602.300, 517.168 602.300, 527.168 602.300, 537.168 602.300, 547.168 602.300, 557.168 602.300, 567.168 602.300, 577.168 602.300, 587.168 602.300, 597.168 602.300, 607.168 602.300, 617.168 602.300, 627.168 602.300, 637.168 602.300, 647.168 602.300, 657.168 602.300, 667.168 602.300, 677.168 602.300, 687.168 602.300, 697.168 602.300, 707.168 602.300, 717.168 602.300, 727.168 602.300, 737.168 602.300, 747.168 602.300, 757.168 602.300, 767.168 602.300, 777.168 602.300, 787.168 602.300, 796.445 602.734, 796.445 604.018, 796.445 606.104, 796.445 608.912, 796.445 612.333, 796.445 616.236, 796.445 620.471, 796.445 624.875, 796.445 629.279, 796.445 633.514, 796.445 637.417, 796.445 640.838, 796.445 643.645, 796.445 645.731, 796.445 647.016, 796.445 647.450, 796.445 " />
            <path fill="none" stroke-width="1.5" stroke-linecap="round" stroke-opacity="1.0" stroke="rgb(0, 0, 0)" stroke-linejoin="round" d=" M 647.450, 487.168 647.450, 477.168 647.450, 473.623 637.450, 473.623 627.450, 473.623 617.450, 473.623 607.450, 473.623 597.450, 473.623 587.450, 473.623 577.450, 473.623 567.450, 473.623 557.450, 473.623 547.450, 473.623 537.450, 473.623 527.450, 473.623 517.450, 473.623 507.450, 473.623 497.450, 473.623 487.450, 473.623 477.450, 473.623 467.450, 473.623 457.450, 473.623 447.450, 473.623 437.450, 473.623 427.450, 473.623 417.450, 473.623 407.450, 473.623 397.450, 473.623 387.450, 473.623 376.550, 473.623 376.550, 483.623 376.550, 487.168 " />
            <path fill="none" stroke-width="1.5" stroke-linecap="round" stroke-opacity="1.0" stroke="rgb(0, 0, 0)" stroke-linejoin="round" d=" M 518.772, 227.556 508.772, 227.556 505.228, 227.556 505.228, 237.556 505.228, 247.556 505.228, 257.556 505.228, 267.556 505.228, 277.556 505.228, 287.556 505.228, 297.556 505.228, 307.556 505.228, 317.556 505.228, 327.556 505.228, 337.556 505.228, 347.556 505.228, 357.556 505.228, 367.556 505.228, 377.556 505.228, 387.556 505.228, 397.556 505.228, 407.556 505.228, 417.185 505.228, 417.185 515.228, 417.185 518.772, 417.185 518.772, 417.185 518.772, 407.185 518.772, 397.185 518.772, 387.185 518.772, 377.185 518.772, 367.185 518.772, 357.185 518.772, 347.185 518.772, 337.185 518.772, 327.185 518.772, 317.185 518.772, 307.185 518.772, 297.185 518.772, 287.185 518.772, 277.185 518.772, 267.185 518.772, 257.185 518.772, 247.185 518.772, 237.185 518.772, 227.556 " />
            <path fill="none" stroke-width="1.5" stroke-linecap="round" stroke-opacity="1.0" stroke="rgb(0, 0, 0)" stroke-linejoin="round" d=" M 505.228, 417.185 515.228, 417.185 518.772, 417.185 " />
            <path fill="none" stroke-width="1.5" stroke-linecap="round" stroke-opacity="1.0" stroke="rgb(0, 0, 0)" stroke-linejoin="round" d=" M 376.550, 487.168 376.550, 487.168 376.550, 497.168 376.550, 507.168 376.550, 517.168 376.550, 527.168 376.550, 537.168 376.550, 547.168 376.550, 557.168 376.550, 567.168 376.550, 577.168 376.550, 587.168 376.550, 597.168 376.550, 607.168 376.550, 617.168 376.550, 627.168 376.550, 637.168 376.550, 647.168 376.550, 657.168 376.550, 667.168 376.550, 677.168 376.550, 687.168 376.550, 697.168 376.550, 707.168 376.550, 717.168 376.550, 727.168 376.550, 737.168 376.550, 747.168 376.550, 757.168 376.550, 767.168 376.550, 777.168 376.550, 787.168 376.550, 796.445 " />
            <path fill="none" stroke-width="1.5" stroke-linecap="round" stroke-opacity="1.0" stroke="rgb(0, 0, 0)" stroke-linejoin="round" d=" M 421.700, 487.168 431.700, 487.168 441.700, 487.168 451.700, 487.168 461.700, 487.168 471.700, 487.168 481.700, 487.168 491.700, 487.168 501.700, 487.168 511.700, 487.168 521.700, 487.168 531.700, 487.168 541.700, 487.168 551.700, 487.168 561.700, 487.168 571.700, 487.168 581.700, 487.168 591.700, 487.168 602.300, 487.168 " />
            <path fill="none" stroke-width="1.5" stroke-linecap="round" stroke-opacity="1.0" stroke="rgb(0, 0, 0)" stroke-linejoin="round" d=" M 602.300, 487.168 612.300, 487.168 622.300, 487.168 632.300, 487.168 642.300, 487.168 647.450, 487.168 " />
            <path fill="none" stroke-width="1.5" stroke-linecap="round" stroke-opacity="1.0" stroke="rgb(0, 0, 0)" stroke-linejoin="round" d=" M 421.700, 487.168 431.700, 487.168 441.700, 487.168 451.700, 487.168 461.700, 487.168 471.700, 487.168 481.700, 487.168 491.700, 487.168 501.700, 487.168 511.700, 487.168 521.700, 487.168 531.700, 487.168 541.700, 487.168 551.700, 487.168 561.700, 487.168 571.700, 487.168 581.700, 487.168 591.700, 487.168 602.300, 487.168 " />
            <path fill="none" stroke-width="1.5" stroke-linecap="round" stroke-opacity="1.0" stroke="rgb(0, 0, 0)" stroke-linejoin="round" d=" M 376.550, 487.168 386.550, 487.168 396.550, 487.168 406.550, 487.168 416.550, 487.168 421.700, 487.168 " />
        </g>
    </g>
</svg>
