<?xml version='1.0' encoding='ascii'?>
<svg xmlns="http://www.w3.org/2000/svg" xmlns:inkscape="http://www.inkscape.org/namespaces/inkscape" version="1.1" width="1024" height="1024">
    <g id="ViewLayer_LineSet" inkscape:groupmode="lineset" inkscape:label="ViewLayer_LineSet">
        <g inkscape:groupmode="layer" id="strokes" inkscape:label="strokes">
            <path fill="none" stroke-width="3.0" stroke-linecap="butt" stroke-opacity="1.0" stroke="rgb(0, 0, 0)" stroke-linejoin="round" d=" M 356.233, 512.000 366.233, 512.000 376.233, 512.000 386.233, 512.000 396.233, 512.000 406.233, 512.000 416.233, 512.000 426.233, 512.000 436.233, 512.000 446.233, 512.000 456.233, 512.000 466.233, 512.000 476.233, 512.000 486.233, 512.000 496.233, 512.000 506.233, 512.000 516.233, 512.000 526.233, 512.000 536.233, 512.000 546.233, 512.000 556.233, 512.000 566.233, 512.000 576.233, 512.000 586.233, 512.000 596.233, 512.000 606.233, 512.000 616.233, 512.000 626.233, 512.000 636.233, 512.000 646.233, 512.000 656.233, 512.000 666.233, 512.000 676.233, 512.000 681.312, 512.000 681.312, 512.000 681.312, 502.000 681.312, 492.000 681.312, 484.910 681.312, 484.910 671.312, 484.910 661.312, 484.910 651.312, 484.910 641.312, 484.910 631.312, 484.910 621.312, 484.910 611.312, 484.910 601.312, 484.910 591.312, 484.910 581.312, 484.910 571.312, 484.910 561.312, 484.910 551.312, 484.910 541.312, 484.910 531.312, 484.910 521.312, 484.910 511.312, 484.910 501.312, 484.910 491.312, 484.910 481.312, 484.910 471.312, 484.910 461.312, 484.910 451.312, 484.910 441.312, 484.910 431.312, 484.910 421.312, 484.910 411.312, 484.910 401.312, 484.910 391.312, 484.910 381.312, 484.910 369.778, 484.910 369.778, 484.910 359.778, 484.910 356.233, 484.910 356.233, 484.910 356.233, 494.910 356.233, 498.455 356.233, 498.455 356.233, 508.455 356.233, 512.000 356.233, 512.000 " />
            <path fill="none" stroke-width="3.0" stroke-linecap="butt" stroke-opacity="1.0" stroke="rgb(0, 0, 0)" stroke-linejoin="round" d=" M 356.233, 512.000 366.233, 512.000 376.233, 512.000 386.233, 512.000 396.233, 512.000 406.233, 512.000 416.233, 512.000 426.233, 512.000 436.233, 512.000 446.233, 512.000 456.233, 512.000 466.233, 512.000 476.233, 512.000 486.233, 512.000 496.233, 512.000 506.233, 512.000 516.233, 512.000 526.233, 512.000 536.233, 512.000 546.233, 512.000 556.233, 512.000 566.233, 512.000 576.233, 512.000 586.233, 512.000 596.233, 512.000 606.233, 512.000 616.233, 512.000 626.233, 512.000 636.233, 512.000 646.233, 512.000 656.233, 512.000 666.233, 512.000 676.233, 512.000 681.312, 512.000 " />
            <path fill="none" stroke-width="3.0" stroke-linecap="butt" stroke-opacity="1.0" stroke="rgb(0, 0, 0)" stroke-linejoin="round" d=" M 369.778, 484.910 369.778, 474.910 369.778, 464.910 369.778, 454.910 369.778, 444.910 369.778, 434.910 369.778, 424.910 369.778, 414.910 369.778, 404.910 369.778, 394.910 369.778, 384.910 369.778, 374.910 369.778, 364.910 369.778, 354.910 369.778, 344.910 369.778, 334.910 369.778, 324.910 369.778, 314.910 369.778, 304.910 369.778, 294.910 369.778, 284.910 369.778, 274.910 369.778, 264.910 369.778, 254.910 369.778, 244.910 369.778, 234.910 369.778, 227.556 369.778, 227.556 359.778, 227.556 349.778, 227.556 342.688, 227.556 342.688, 237.556 342.688, 247.556 342.688, 257.556 342.688, 267.556 342.688, 277.556 342.688, 287.556 342.688, 297.556 342.688, 307.556 342.688, 317.556 342.688, 327.556 342.688, 337.556 342.688, 347.556 342.688, 357.556 342.688, 367.556 342.688, 377.556 342.688, 387.556 342.688, 397.556 342.688, 407.556 342.688, 417.556 342.688, 427.556 342.688, 437.556 342.688, 447.556 342.688, 457.556 342.688, 467.556 342.688, 477.556 342.688, 487.556 342.688, 498.455 342.688, 498.455 352.688, 498.455 356.233, 498.455 " />
            <path fill="none" stroke-width="3.0" stroke-linecap="butt" stroke-opacity="1.0" stroke="rgb(0, 0, 0)" stroke-linejoin="round" d=" M 369.778, 227.556 369.778, 237.556 369.778, 247.556 369.778, 257.556 369.778, 267.556 369.778, 277.556 369.778, 287.556 369.778, 297.556 369.778, 307.556 369.778, 317.556 369.778, 327.556 369.778, 337.556 369.778, 347.556 369.778, 357.556 369.778, 367.556 369.778, 377.556 369.778, 387.556 369.778, 397.556 369.778, 407.556 369.778, 417.556 369.778, 427.556 369.778, 437.556 369.778, 447.556 369.778, 457.556 369.778, 467.556 369.778, 477.556 369.778, 484.910 369.778, 494.910 369.778, 498.455 359.778, 498.455 356.233, 498.455 346.233, 498.455 342.688, 498.455 " />
            <path fill="none" stroke-width="3.0" stroke-linecap="butt" stroke-opacity="1.0" stroke="rgb(0, 0, 0)" stroke-linejoin="round" d=" M 532.318, 769.355 533.823, 769.355 537.928, 769.355 541.297, 769.355 543.800, 769.355 545.342, 769.355 545.862, 769.355 545.862, 759.355 545.862, 749.355 545.862, 739.355 545.862, 729.355 545.862, 719.355 545.862, 709.355 545.862, 699.355 545.862, 689.355 545.862, 679.355 545.862, 669.355 545.862, 659.355 545.862, 649.355 545.862, 639.355 545.862, 633.905 545.342, 633.905 543.800, 633.905 541.297, 633.905 537.928, 633.905 533.823, 633.905 529.139, 633.905 524.057, 633.905 518.773, 633.905 513.488, 633.905 508.406, 633.905 503.722, 633.905 499.617, 633.905 496.248, 633.905 493.745, 633.905 492.203, 633.905 491.683, 633.905 491.683, 643.905 491.683, 653.905 491.683, 663.905 491.683, 673.905 491.683, 683.905 491.683, 693.905 491.683, 703.905 491.683, 713.905 491.683, 723.905 491.683, 733.905 491.683, 743.905 491.683, 753.905 491.683, 763.905 491.683, 769.355 492.203, 769.355 493.745, 769.355 496.248, 769.355 499.617, 769.355 503.722, 769.355 505.226, 769.355 505.227, 769.355 " />
            <path fill="none" stroke-width="3.0" stroke-linecap="butt" stroke-opacity="1.0" stroke="rgb(0, 0, 0)" stroke-linejoin="round" d=" M 532.318, 742.785 532.318, 742.265 522.318, 742.265 512.318, 742.265 505.228, 742.265 505.228, 744.327 505.228, 746.830 505.228, 750.199 505.228, 754.304 505.228, 758.988 505.228, 768.988 505.228, 769.355 " />
            <path fill="none" stroke-width="3.0" stroke-linecap="butt" stroke-opacity="1.0" stroke="rgb(0, 0, 0)" stroke-linejoin="round" d=" M 505.228, 742.265 505.228, 742.785 505.228, 744.327 " />
            <path fill="none" stroke-width="3.0" stroke-linecap="butt" stroke-opacity="1.0" stroke="rgb(0, 0, 0)" stroke-linejoin="round" d=" M 532.318, 754.304 532.318, 750.199 532.318, 746.830 532.318, 744.327 532.318, 742.785 " />
            <path fill="none" stroke-width="3.0" stroke-linecap="butt" stroke-opacity="1.0" stroke="rgb(0, 0, 0)" stroke-linejoin="round" d=" M 532.318, 769.355 532.318, 764.070 532.318, 758.988 532.318, 754.304 " />
            <path fill="none" stroke-width="3.0" stroke-linecap="butt" stroke-opacity="1.0" stroke="rgb(0, 0, 0)" stroke-linejoin="round" d=" M 505.228, 758.988 505.228, 764.070 505.228, 769.355 " />
            <path fill="none" stroke-width="3.0" stroke-linecap="butt" stroke-opacity="1.0" stroke="rgb(0, 0, 0)" stroke-linejoin="round" d=" M 532.318, 795.924 532.318, 794.382 532.318, 791.879 532.318, 788.510 532.318, 784.405 532.318, 779.721 532.318, 774.640 532.318, 769.355 " />
            <path fill="none" stroke-width="3.0" stroke-linecap="butt" stroke-opacity="1.0" stroke="rgb(0, 0, 0)" stroke-linejoin="round" d=" M 505.228, 769.355 505.228, 774.640 505.228, 779.721 " />
            <path fill="none" stroke-width="3.0" stroke-linecap="butt" stroke-opacity="1.0" stroke="rgb(0, 0, 0)" stroke-linejoin="round" d=" M 505.228, 779.721 505.228, 784.405 505.228, 788.510 505.228, 791.879 505.228, 794.382 505.228, 795.924 505.228, 796.445 515.228, 796.445 525.228, 796.445 532.318, 796.445 532.318, 795.924 532.318, 785.924 532.318, 775.924 532.318, 774.640 " />
            <path fill="none" stroke-width="3.0" stroke-linecap="butt" stroke-opacity="1.0" stroke="rgb(0, 0, 0)" stroke-linejoin="round" d=" M 532.318, 769.355 532.318, 774.640 532.318, 779.721 532.318, 784.405 532.318, 788.510 532.318, 791.879 532.318, 794.382 " />
            <path fill="none" stroke-width="3.0" stroke-linecap="butt" stroke-opacity="1.0" stroke="rgb(0, 0, 0)" stroke-linejoin="round" d=" M 532.318, 769.355 532.318, 759.355 532.318, 754.304 532.318, 756.290 532.318, 758.988 532.318, 764.070 532.318, 769.355 " />
            <path fill="none" stroke-width="3.0" stroke-linecap="butt" stroke-opacity="1.0" stroke="rgb(0, 0, 0)" stroke-linejoin="round" d=" M 532.318, 742.785 532.318, 744.327 532.318, 746.830 532.318, 750.199 532.318, 754.304 " />
            <path fill="none" stroke-width="3.0" stroke-linecap="butt" stroke-opacity="1.0" stroke="rgb(0, 0, 0)" stroke-linejoin="round" d=" M 505.228, 769.355 505.228, 779.355 505.228, 779.721 505.228, 788.510 " />
            <path fill="none" stroke-width="3.0" stroke-linecap="butt" stroke-opacity="1.0" stroke="rgb(0, 0, 0)" stroke-linejoin="round" d=" M 532.318, 769.355 532.318, 759.355 532.318, 756.290 532.318, 746.290 532.318, 742.785 532.318, 746.830 532.318, 742.785 " />
            <path fill="none" stroke-width="3.0" stroke-linecap="butt" stroke-opacity="1.0" stroke="rgb(0, 0, 0)" stroke-linejoin="round" d=" M 532.318, 774.640 532.318, 769.355 " />
            <path fill="none" stroke-width="3.0" stroke-linecap="butt" stroke-opacity="1.0" stroke="rgb(0, 0, 0)" stroke-linejoin="round" d=" M 532.318, 769.355 532.318, 774.640 532.318, 769.355 " />
            <path fill="none" stroke-width="3.0" stroke-linecap="butt" stroke-opacity="1.0" stroke="rgb(0, 0, 0)" stroke-linejoin="round" d=" M 634.048, 795.924 634.048, 796.445 644.048, 796.445 654.048, 796.445 661.138, 796.445 661.138, 795.924 661.138, 794.382 661.138, 791.879 661.138, 788.510 661.138, 784.405 661.138, 779.721 661.138, 774.640 661.138, 769.355 661.138, 764.070 661.138, 758.988 661.138, 754.304 661.138, 750.199 661.138, 746.830 661.138, 744.327 661.138, 742.785 661.138, 742.265 651.138, 742.265 641.138, 742.265 634.048, 742.265 634.048, 742.785 634.048, 744.327 634.048, 746.830 634.048, 750.199 634.048, 754.304 634.048, 758.988 634.048, 764.070 634.048, 769.355 634.048, 774.640 634.048, 779.721 634.048, 784.405 634.048, 788.510 634.048, 791.879 634.048, 794.382 634.048, 795.924 " />
            <path fill="none" stroke-width="3.0" stroke-linecap="butt" stroke-opacity="1.0" stroke="rgb(0, 0, 0)" stroke-linejoin="round" d=" M 611.933, 742.785 611.933, 742.265 601.933, 742.265 591.933, 742.265 584.843, 742.265 584.843, 742.785 584.843, 744.327 584.843, 746.830 584.843, 750.199 584.843, 754.304 584.843, 758.988 " />
            <path fill="none" stroke-width="3.0" stroke-linecap="butt" stroke-opacity="1.0" stroke="rgb(0, 0, 0)" stroke-linejoin="round" d=" M 611.933, 754.304 611.933, 750.199 611.933, 746.830 611.933, 744.327 611.933, 742.785 " />
            <path fill="none" stroke-width="3.0" stroke-linecap="butt" stroke-opacity="1.0" stroke="rgb(0, 0, 0)" stroke-linejoin="round" d=" M 584.843, 795.924 584.843, 796.445 594.843, 796.445 604.843, 796.445 611.933, 796.445 611.933, 795.924 611.933, 794.382 611.933, 791.879 611.933, 788.510 611.933, 784.405 611.933, 779.721 611.933, 774.640 611.933, 769.355 611.933, 764.070 611.933, 758.988 611.933, 754.304 " />
            <path fill="none" stroke-width="3.0" stroke-linecap="butt" stroke-opacity="1.0" stroke="rgb(0, 0, 0)" stroke-linejoin="round" d=" M 584.843, 758.988 584.843, 764.070 584.843, 769.355 584.843, 774.640 " />
            <path fill="none" stroke-width="3.0" stroke-linecap="butt" stroke-opacity="1.0" stroke="rgb(0, 0, 0)" stroke-linejoin="round" d=" M 584.843, 774.640 584.843, 779.721 584.843, 784.405 584.843, 788.510 584.843, 791.879 584.843, 794.382 584.843, 795.924 " />
            <path fill="none" stroke-width="3.0" stroke-linecap="butt" stroke-opacity="1.0" stroke="rgb(0, 0, 0)" stroke-linejoin="round" d=" M 611.933, 742.785 611.933, 744.327 611.933, 746.830 611.933, 750.199 611.933, 754.304 611.933, 758.988 611.933, 764.070 " />
            <path fill="none" stroke-width="3.0" stroke-linecap="butt" stroke-opacity="1.0" stroke="rgb(0, 0, 0)" stroke-linejoin="round" d=" M 584.843, 746.830 584.843, 744.327 " />
            <path fill="none" stroke-width="3.0" stroke-linecap="butt" stroke-opacity="1.0" stroke="rgb(0, 0, 0)" stroke-linejoin="round" d=" M 611.933, 742.785 611.933, 746.830 611.933, 742.785 " />
            <path fill="none" stroke-width="3.0" stroke-linecap="butt" stroke-opacity="1.0" stroke="rgb(0, 0, 0)" stroke-linejoin="round" d=" M 611.933, 764.070 611.933, 754.070 611.933, 744.070 611.933, 742.785 " />
            <path fill="none" stroke-width="3.0" stroke-linecap="butt" stroke-opacity="1.0" stroke="rgb(0, 0, 0)" stroke-linejoin="round" d=" M 452.702, 754.304 452.702, 750.199 452.702, 746.830 452.702, 744.327 452.702, 742.785 452.702, 742.265 442.702, 742.265 432.702, 742.265 425.612, 742.265 425.612, 742.785 425.612, 744.327 425.612, 746.830 425.612, 750.199 425.612, 754.304 425.612, 758.988 " />
            <path fill="none" stroke-width="3.0" stroke-linecap="butt" stroke-opacity="1.0" stroke="rgb(0, 0, 0)" stroke-linejoin="round" d=" M 452.702, 795.924 452.702, 794.382 452.702, 791.879 452.702, 788.510 452.702, 784.405 452.702, 779.721 452.702, 774.640 452.702, 769.355 452.702, 764.070 452.702, 758.988 452.702, 754.304 " />
            <path fill="none" stroke-width="3.0" stroke-linecap="butt" stroke-opacity="1.0" stroke="rgb(0, 0, 0)" stroke-linejoin="round" d=" M 425.612, 758.988 425.612, 764.070 425.612, 769.355 425.612, 774.640 425.612, 779.721 425.612, 784.405 425.612, 788.510 425.612, 791.879 425.612, 794.382 425.612, 795.924 425.612, 796.445 435.612, 796.445 445.612, 796.445 452.702, 796.445 452.702, 795.924 452.702, 785.924 452.702, 775.924 452.702, 774.640 " />
            <path fill="none" stroke-width="3.0" stroke-linecap="butt" stroke-opacity="1.0" stroke="rgb(0, 0, 0)" stroke-linejoin="round" d=" M 452.702, 754.304 452.702, 756.290 452.702, 758.988 452.702, 764.070 452.702, 769.355 452.702, 774.640 452.702, 779.721 452.702, 784.405 452.702, 788.510 452.702, 791.879 452.702, 794.382 " />
            <path fill="none" stroke-width="3.0" stroke-linecap="butt" stroke-opacity="1.0" stroke="rgb(0, 0, 0)" stroke-linejoin="round" d=" M 425.612, 758.988 425.612, 768.988 425.612, 769.355 425.612, 774.640 " />
            <path fill="none" stroke-width="3.0" stroke-linecap="butt" stroke-opacity="1.0" stroke="rgb(0, 0, 0)" stroke-linejoin="round" d=" M 425.612, 769.355 425.612, 764.070 " />
            <path fill="none" stroke-width="3.0" stroke-linecap="butt" stroke-opacity="1.0" stroke="rgb(0, 0, 0)" stroke-linejoin="round" d=" M 452.702, 774.640 452.702, 764.640 452.702, 764.070 " />
            <path fill="none" stroke-width="3.0" stroke-linecap="butt" stroke-opacity="1.0" stroke="rgb(0, 0, 0)" stroke-linejoin="round" d=" M 452.702, 754.304 452.702, 764.304 452.702, 774.304 452.702, 774.640 452.702, 764.640 452.702, 756.290 452.702, 746.290 452.702, 742.785 " />
            <path fill="none" stroke-width="3.0" stroke-linecap="butt" stroke-opacity="1.0" stroke="rgb(0, 0, 0)" stroke-linejoin="round" d=" M 403.497, 742.785 403.497, 742.265 393.497, 742.265 383.497, 742.265 376.407, 742.265 376.407, 742.785 376.407, 744.327 376.407, 746.830 376.407, 750.199 376.407, 754.304 376.407, 758.988 376.407, 764.070 376.407, 769.355 376.407, 774.640 376.407, 779.721 376.407, 784.405 376.407, 788.510 376.407, 791.879 376.407, 794.382 376.407, 795.924 376.407, 796.445 386.407, 796.445 396.407, 796.445 403.497, 796.445 403.497, 795.924 403.497, 794.382 403.497, 791.879 403.497, 788.510 403.497, 784.405 403.497, 779.721 403.497, 774.640 403.497, 769.355 403.497, 764.070 403.497, 754.070 403.497, 744.070 403.497, 742.785 " />
            <path fill="none" stroke-width="3.0" stroke-linecap="butt" stroke-opacity="1.0" stroke="rgb(0, 0, 0)" stroke-linejoin="round" d=" M 403.497, 754.304 403.497, 750.199 403.497, 746.830 403.497, 744.327 403.497, 742.785 " />
            <path fill="none" stroke-width="3.0" stroke-linecap="butt" stroke-opacity="1.0" stroke="rgb(0, 0, 0)" stroke-linejoin="round" d=" M 403.497, 764.070 403.497, 758.988 403.497, 754.304 " />
            <path fill="none" stroke-width="3.0" stroke-linecap="butt" stroke-opacity="1.0" stroke="rgb(0, 0, 0)" stroke-linejoin="round" d=" M 403.497, 742.785 403.497, 744.327 403.497, 746.830 403.497, 750.199 403.497, 754.304 403.497, 758.988 403.497, 764.070 " />
            <path fill="none" stroke-width="3.0" stroke-linecap="butt" stroke-opacity="1.0" stroke="rgb(0, 0, 0)" stroke-linejoin="round" d=" M 376.407, 754.304 376.407, 750.199 " />
            <path fill="none" stroke-width="3.0" stroke-linecap="butt" stroke-opacity="1.0" stroke="rgb(0, 0, 0)" stroke-linejoin="round" d=" M 403.497, 742.785 403.497, 746.830 403.497, 742.785 " />
            <path fill="none" stroke-width="3.0" stroke-linecap="butt" stroke-opacity="1.0" stroke="rgb(0, 0, 0)" stroke-linejoin="round" d=" M 532.318, 769.355 532.318, 764.070 " />
        </g>
    </g>
    <g id="ViewLayer_TechnicalLines" inkscape:groupmode="lineset" inkscape:label="ViewLayer_TechnicalLines">
        <g inkscape:groupmode="layer" id="strokes" inkscape:label="strokes">
            <path fill="none" stroke-width="3.0" stroke-linecap="butt" stroke-opacity="1.0" stroke="rgb(0, 0, 0)" stroke-linejoin="round" d=" M 356.233, 512.000 366.233, 512.000 376.233, 512.000 386.233, 512.000 396.233, 512.000 406.233, 512.000 416.233, 512.000 426.233, 512.000 436.233, 512.000 446.233, 512.000 456.233, 512.000 466.233, 512.000 476.233, 512.000 486.233, 512.000 496.233, 512.000 506.233, 512.000 516.233, 512.000 526.233, 512.000 536.233, 512.000 546.233, 512.000 556.233, 512.000 566.233, 512.000 576.233, 512.000 586.233, 512.000 596.233, 512.000 606.233, 512.000 616.233, 512.000 626.233, 512.000 636.233, 512.000 646.233, 512.000 656.233, 512.000 666.233, 512.000 676.233, 512.000 681.312, 512.000 681.312, 512.000 681.312, 502.000 681.312, 492.000 681.312, 484.910 681.312, 484.910 671.312, 484.910 661.312, 484.910 651.312, 484.910 641.312, 484.910 631.312, 484.910 621.312, 484.910 611.312, 484.910 601.312, 484.910 591.312, 484.910 581.312, 484.910 571.312, 484.910 561.312, 484.910 551.312, 484.910 541.312, 484.910 531.312, 484.910 521.312, 484.910 511.312, 484.910 501.312, 484.910 491.312, 484.910 481.312, 484.910 471.312, 484.910 461.312, 484.910 451.312, 484.910 441.312, 484.910 431.312, 484.910 421.312, 484.910 411.312, 484.910 401.312, 484.910 391.312, 484.910 381.312, 484.910 369.778, 484.910 369.778, 484.910 359.778, 484.910 356.233, 484.910 356.233, 484.910 356.233, 494.910 356.233, 498.455 356.233, 498.455 356.233, 508.455 356.233, 512.000 356.233, 512.000 " />
            <path fill="none" stroke-width="3.0" stroke-linecap="butt" stroke-opacity="1.0" stroke="rgb(0, 0, 0)" stroke-linejoin="round" d=" M 356.233, 512.000 366.233, 512.000 376.233, 512.000 386.233, 512.000 396.233, 512.000 406.233, 512.000 416.233, 512.000 426.233, 512.000 436.233, 512.000 446.233, 512.000 456.233, 512.000 466.233, 512.000 476.233, 512.000 486.233, 512.000 496.233, 512.000 506.233, 512.000 516.233, 512.000 526.233, 512.000 536.233, 512.000 546.233, 512.000 556.233, 512.000 566.233, 512.000 576.233, 512.000 586.233, 512.000 596.233, 512.000 606.233, 512.000 616.233, 512.000 626.233, 512.000 636.233, 512.000 646.233, 512.000 656.233, 512.000 666.233, 512.000 676.233, 512.000 681.312, 512.000 " />
            <path fill="none" stroke-width="3.0" stroke-linecap="butt" stroke-opacity="1.0" stroke="rgb(0, 0, 0)" stroke-linejoin="round" d=" M 369.778, 484.910 369.778, 474.910 369.778, 464.910 369.778, 454.910 369.778, 444.910 369.778, 434.910 369.778, 424.910 369.778, 414.910 369.778, 404.910 369.778, 394.910 369.778, 384.910 369.778, 374.910 369.778, 364.910 369.778, 354.910 369.778, 344.910 369.778, 334.910 369.778, 324.910 369.778, 314.910 369.778, 304.910 369.778, 294.910 369.778, 284.910 369.778, 274.910 369.778, 264.910 369.778, 254.910 369.778, 244.910 369.778, 234.910 369.778, 227.556 369.778, 227.556 359.778, 227.556 349.778, 227.556 342.688, 227.556 342.688, 237.556 342.688, 247.556 342.688, 257.556 342.688, 267.556 342.688, 277.556 342.688, 287.556 342.688, 297.556 342.688, 307.556 342.688, 317.556 342.688, 327.556 342.688, 337.556 342.688, 347.556 342.688, 357.556 342.688, 367.556 342.688, 377.556 342.688, 387.556 342.688, 397.556 342.688, 407.556 342.688, 417.556 342.688, 427.556 342.688, 437.556 342.688, 447.556 342.688, 457.556 342.688, 467.556 342.688, 477.556 342.688, 487.556 342.688, 498.455 342.688, 498.455 352.688, 498.455 356.233, 498.455 " />
            <path fill="none" stroke-width="3.0" stroke-linecap="butt" stroke-opacity="1.0" stroke="rgb(0, 0, 0)" stroke-linejoin="round" d=" M 369.778, 227.556 369.778, 237.556 369.778, 247.556 369.778, 257.556 369.778, 267.556 369.778, 277.556 369.778, 287.556 369.778, 297.556 369.778, 307.556 369.778, 317.556 369.778, 327.556 369.778, 337.556 369.778, 347.556 369.778, 357.556 369.778, 367.556 369.778, 377.556 369.778, 387.556 369.778, 397.556 369.778, 407.556 369.778, 417.556 369.778, 427.556 369.778, 437.556 369.778, 447.556 369.778, 457.556 369.778, 467.556 369.778, 477.556 369.778, 484.910 369.778, 494.910 369.778, 498.455 359.778, 498.455 356.233, 498.455 346.233, 498.455 342.688, 498.455 " />
            <path fill="none" stroke-width="3.0" stroke-linecap="butt" stroke-opacity="1.0" stroke="rgb(0, 0, 0)" stroke-linejoin="round" d=" M 532.318, 769.355 533.823, 769.355 537.928, 769.355 541.297, 769.355 543.800, 769.355 545.342, 769.355 545.862, 769.355 545.862, 759.355 545.862, 749.355 545.862, 739.355 545.862, 729.355 545.862, 719.355 545.862, 709.355 545.862, 699.355 545.862, 689.355 545.862, 679.355 545.862, 669.355 545.862, 659.355 545.862, 649.355 545.862, 639.355 545.862, 633.905 545.342, 633.905 543.800, 633.905 541.297, 633.905 537.928, 633.905 533.823, 633.905 529.139, 633.905 524.057, 633.905 518.773, 633.905 513.488, 633.905 508.406, 633.905 503.722, 633.905 499.617, 633.905 496.248, 633.905 493.745, 633.905 492.203, 633.905 491.683, 633.905 491.683, 643.905 491.683, 653.905 491.683, 663.905 491.683, 673.905 491.683, 683.905 491.683, 693.905 491.683, 703.905 491.683, 713.905 491.683, 723.905 491.683, 733.905 491.683, 743.905 491.683, 753.905 491.683, 763.905 491.683, 769.355 492.203, 769.355 493.745, 769.355 496.248, 769.355 499.617, 769.355 503.722, 769.355 505.226, 769.355 505.227, 769.355 " />
            <path fill="none" stroke-width="3.0" stroke-linecap="butt" stroke-opacity="1.0" stroke="rgb(0, 0, 0)" stroke-linejoin="round" d=" M 532.318, 742.785 532.318, 742.265 522.318, 742.265 512.318, 742.265 505.228, 742.265 505.228, 744.327 505.228, 746.830 505.228, 750.199 505.228, 754.304 505.228, 758.988 505.228, 768.988 505.228, 769.355 " />
            <path fill="none" stroke-width="3.0" stroke-linecap="butt" stroke-opacity="1.0" stroke="rgb(0, 0, 0)" stroke-linejoin="round" d=" M 505.228, 742.265 505.228, 742.785 505.228, 744.327 " />
            <path fill="none" stroke-width="3.0" stroke-linecap="butt" stroke-opacity="1.0" stroke="rgb(0, 0, 0)" stroke-linejoin="round" d=" M 532.318, 754.304 532.318, 750.199 532.318, 746.830 532.318, 744.327 532.318, 742.785 " />
            <path fill="none" stroke-width="3.0" stroke-linecap="butt" stroke-opacity="1.0" stroke="rgb(0, 0, 0)" stroke-linejoin="round" d=" M 532.318, 769.355 532.318, 764.070 532.318, 758.988 532.318, 754.304 " />
            <path fill="none" stroke-width="3.0" stroke-linecap="butt" stroke-opacity="1.0" stroke="rgb(0, 0, 0)" stroke-linejoin="round" d=" M 505.228, 758.988 505.228, 764.070 505.228, 769.355 " />
            <path fill="none" stroke-width="3.0" stroke-linecap="butt" stroke-opacity="1.0" stroke="rgb(0, 0, 0)" stroke-linejoin="round" d=" M 505.228, 779.721 505.228, 788.510 505.228, 791.879 505.228, 794.382 505.228, 795.924 505.228, 796.445 515.228, 796.445 525.228, 796.445 532.318, 796.445 532.318, 795.924 532.318, 794.382 532.318, 791.879 532.318, 788.510 532.318, 784.405 532.318, 779.721 532.318, 774.640 532.318, 769.355 " />
            <path fill="none" stroke-width="3.0" stroke-linecap="butt" stroke-opacity="1.0" stroke="rgb(0, 0, 0)" stroke-linejoin="round" d=" M 505.228, 769.355 505.228, 774.640 505.228, 779.721 505.228, 769.721 505.228, 769.355 " />
            <path fill="none" stroke-width="3.0" stroke-linecap="butt" stroke-opacity="1.0" stroke="rgb(0, 0, 0)" stroke-linejoin="round" d=" M 505.228, 779.721 505.228, 784.405 505.228, 788.510 " />
            <path fill="none" stroke-width="3.0" stroke-linecap="butt" stroke-opacity="1.0" stroke="rgb(0, 0, 0)" stroke-linejoin="round" d=" M 532.318, 769.355 532.318, 774.640 532.318, 779.721 532.318, 784.405 532.318, 788.510 532.318, 791.879 532.318, 794.382 " />
            <path fill="none" stroke-width="3.0" stroke-linecap="butt" stroke-opacity="1.0" stroke="rgb(0, 0, 0)" stroke-linejoin="round" d=" M 532.318, 754.304 532.318, 756.290 532.318, 758.988 532.318, 764.070 532.318, 769.355 " />
            <path fill="none" stroke-width="3.0" stroke-linecap="butt" stroke-opacity="1.0" stroke="rgb(0, 0, 0)" stroke-linejoin="round" d=" M 532.318, 742.785 532.318, 744.327 532.318, 746.830 532.318, 750.199 532.318, 754.304 " />
            <path fill="none" stroke-width="3.0" stroke-linecap="butt" stroke-opacity="1.0" stroke="rgb(0, 0, 0)" stroke-linejoin="round" d=" M 634.048, 795.924 634.048, 796.445 644.048, 796.445 654.048, 796.445 661.138, 796.445 661.138, 795.924 661.138, 794.382 661.138, 791.879 661.138, 788.510 661.138, 784.405 661.138, 779.721 661.138, 774.640 661.138, 769.355 661.138, 764.070 661.138, 758.988 661.138, 754.304 661.138, 750.199 661.138, 746.830 661.138, 744.327 661.138, 742.785 661.138, 742.265 651.138, 742.265 641.138, 742.265 634.048, 742.265 634.048, 742.785 634.048, 744.327 634.048, 746.830 634.048, 750.199 634.048, 754.304 634.048, 758.988 634.048, 764.070 634.048, 769.355 634.048, 774.640 634.048, 779.721 634.048, 784.405 634.048, 788.510 634.048, 791.879 634.048, 794.382 634.048, 795.924 " />
            <path fill="none" stroke-width="3.0" stroke-linecap="butt" stroke-opacity="1.0" stroke="rgb(0, 0, 0)" stroke-linejoin="round" d=" M 611.933, 742.785 611.933, 742.265 601.933, 742.265 591.933, 742.265 584.843, 742.265 584.843, 742.785 584.843, 744.327 584.843, 746.830 584.843, 750.199 584.843, 754.304 584.843, 758.988 " />
            <path fill="none" stroke-width="3.0" stroke-linecap="butt" stroke-opacity="1.0" stroke="rgb(0, 0, 0)" stroke-linejoin="round" d=" M 611.933, 754.304 611.933, 750.199 611.933, 746.830 611.933, 744.327 611.933, 742.785 " />
            <path fill="none" stroke-width="3.0" stroke-linecap="butt" stroke-opacity="1.0" stroke="rgb(0, 0, 0)" stroke-linejoin="round" d=" M 584.843, 795.924 584.843, 796.445 594.843, 796.445 604.843, 796.445 611.933, 796.445 611.933, 795.924 611.933, 794.382 611.933, 791.879 611.933, 788.510 611.933, 784.405 611.933, 779.721 611.933, 774.640 611.933, 769.355 611.933, 764.070 611.933, 758.988 611.933, 754.304 " />
            <path fill="none" stroke-width="3.0" stroke-linecap="butt" stroke-opacity="1.0" stroke="rgb(0, 0, 0)" stroke-linejoin="round" d=" M 584.843, 758.988 584.843, 764.070 584.843, 769.355 584.843, 774.640 " />
            <path fill="none" stroke-width="3.0" stroke-linecap="butt" stroke-opacity="1.0" stroke="rgb(0, 0, 0)" stroke-linejoin="round" d=" M 584.843, 774.640 584.843, 779.721 584.843, 784.405 584.843, 788.510 584.843, 791.879 584.843, 794.382 584.843, 795.924 " />
            <path fill="none" stroke-width="3.0" stroke-linecap="butt" stroke-opacity="1.0" stroke="rgb(0, 0, 0)" stroke-linejoin="round" d=" M 611.933, 742.785 611.933, 744.327 611.933, 746.830 611.933, 750.199 611.933, 754.304 611.933, 758.988 611.933, 764.070 " />
            <path fill="none" stroke-width="3.0" stroke-linecap="butt" stroke-opacity="1.0" stroke="rgb(0, 0, 0)" stroke-linejoin="round" d=" M 584.843, 746.830 584.843, 744.327 " />
            <path fill="none" stroke-width="3.0" stroke-linecap="butt" stroke-opacity="1.0" stroke="rgb(0, 0, 0)" stroke-linejoin="round" d=" M 452.702, 754.304 452.702, 750.199 452.702, 746.830 452.702, 744.327 452.702, 742.785 452.702, 742.265 442.702, 742.265 432.702, 742.265 425.612, 742.265 425.612, 742.785 425.612, 744.327 425.612, 746.830 425.612, 750.199 425.612, 754.304 425.612, 758.988 " />
            <path fill="none" stroke-width="3.0" stroke-linecap="butt" stroke-opacity="1.0" stroke="rgb(0, 0, 0)" stroke-linejoin="round" d=" M 425.612, 758.988 425.612, 764.070 425.612, 769.355 425.612, 774.640 425.612, 779.721 425.612, 784.405 425.612, 788.510 425.612, 791.879 425.612, 794.382 425.612, 795.924 425.612, 796.445 435.612, 796.445 445.612, 796.445 452.702, 796.445 452.702, 795.924 452.702, 794.382 452.702, 791.879 452.702, 788.510 452.702, 784.405 452.702, 779.721 452.702, 774.640 452.702, 769.355 452.702, 764.070 452.702, 758.988 452.702, 754.304 " />
            <path fill="none" stroke-width="3.0" stroke-linecap="butt" stroke-opacity="1.0" stroke="rgb(0, 0, 0)" stroke-linejoin="round" d=" M 452.702, 754.304 452.702, 756.290 452.702, 758.988 452.702, 764.070 452.702, 769.355 452.702, 774.640 452.702, 779.721 452.702, 784.405 452.702, 788.510 452.702, 791.879 452.702, 794.382 " />
            <path fill="none" stroke-width="3.0" stroke-linecap="butt" stroke-opacity="1.0" stroke="rgb(0, 0, 0)" stroke-linejoin="round" d=" M 425.612, 769.355 425.612, 774.640 " />
            <path fill="none" stroke-width="3.0" stroke-linecap="butt" stroke-opacity="1.0" stroke="rgb(0, 0, 0)" stroke-linejoin="round" d=" M 425.612, 769.355 425.612, 764.070 " />
            <path fill="none" stroke-width="3.0" stroke-linecap="butt" stroke-opacity="1.0" stroke="rgb(0, 0, 0)" stroke-linejoin="round" d=" M 403.497, 742.785 403.497, 742.265 393.497, 742.265 383.497, 742.265 376.407, 742.265 376.407, 742.785 376.407, 744.327 376.407, 746.830 376.407, 750.199 376.407, 754.304 376.407, 758.988 376.407, 764.070 376.407, 769.355 376.407, 774.640 376.407, 779.721 376.407, 784.405 376.407, 788.510 376.407, 791.879 376.407, 794.382 376.407, 795.924 376.407, 796.445 386.407, 796.445 396.407, 796.445 403.497, 796.445 403.497, 795.924 403.497, 794.382 403.497, 791.879 403.497, 788.510 403.497, 784.405 403.497, 779.721 403.497, 774.640 403.497, 769.355 403.497, 764.070 " />
            <path fill="none" stroke-width="3.0" stroke-linecap="butt" stroke-opacity="1.0" stroke="rgb(0, 0, 0)" stroke-linejoin="round" d=" M 403.497, 754.304 403.497, 750.199 403.497, 746.830 403.497, 744.327 403.497, 742.785 " />
            <path fill="none" stroke-width="3.0" stroke-linecap="butt" stroke-opacity="1.0" stroke="rgb(0, 0, 0)" stroke-linejoin="round" d=" M 403.497, 764.070 403.497, 758.988 403.497, 754.304 " />
            <path fill="none" stroke-width="3.0" stroke-linecap="butt" stroke-opacity="1.0" stroke="rgb(0, 0, 0)" stroke-linejoin="round" d=" M 403.497, 742.785 403.497, 744.327 403.497, 746.830 403.497, 750.199 403.497, 754.304 403.497, 758.988 403.497, 764.070 " />
            <path fill="none" stroke-width="3.0" stroke-linecap="butt" stroke-opacity="1.0" stroke="rgb(0, 0, 0)" stroke-linejoin="round" d=" M 376.407, 754.304 376.407, 750.199 " />
            <path fill="none" stroke-width="3.0" stroke-linecap="butt" stroke-opacity="1.0" stroke="rgb(0, 0, 0)" stroke-linejoin="round" d=" M 452.702, 756.290 452.702, 746.290 452.702, 742.785 " />
            <path fill="none" stroke-width="3.0" stroke-linecap="butt" stroke-opacity="1.0" stroke="rgb(0, 0, 0)" stroke-linejoin="round" d=" M 532.318, 756.290 532.318, 746.290 532.318, 742.785 " />
        </g>
    </g>
    <g id="ViewLayer_TechnicalLines.001" inkscape:groupmode="lineset" inkscape:label="ViewLayer_TechnicalLines.001">
        <g inkscape:groupmode="layer" id="strokes" inkscape:label="strokes">
            <path fill="none" stroke-width="1.5" stroke-linecap="round" stroke-opacity="1.0" stroke="rgb(0, 0, 0)" stroke-linejoin="round" d=" M 356.233, 512.000 366.233, 512.000 376.233, 512.000 386.233, 512.000 396.233, 512.000 406.233, 512.000 416.233, 512.000 426.233, 512.000 436.233, 512.000 446.233, 512.000 456.233, 512.000 466.233, 512.000 476.233, 512.000 486.233, 512.000 496.233, 512.000 506.233, 512.000 516.233, 512.000 526.233, 512.000 536.233, 512.000 546.233, 512.000 556.233, 512.000 566.233, 512.000 576.233, 512.000 586.233, 512.000 596.233, 512.000 606.233, 512.000 616.233, 512.000 626.233, 512.000 636.233, 512.000 646.233, 512.000 656.233, 512.000 666.233, 512.000 676.233, 512.000 681.312, 512.000 681.312, 512.000 681.312, 502.000 681.312, 492.000 681.312, 484.910 681.312, 484.910 671.312, 484.910 661.312, 484.910 651.312, 484.910 641.312, 484.910 631.312, 484.910 621.312, 484.910 611.312, 484.910 601.312, 484.910 591.312, 484.910 581.312, 484.910 571.312, 484.910 561.312, 484.910 551.312, 484.910 541.312, 484.910 531.312, 484.910 521.312, 484.910 511.312, 484.910 501.312, 484.910 491.312, 484.910 481.312, 484.910 471.312, 484.910 461.312, 484.910 451.312, 484.910 441.312, 484.910 431.312, 484.910 421.312, 484.910 411.312, 484.910 401.312, 484.910 391.312, 484.910 381.312, 484.910 369.778, 484.910 369.778, 484.910 359.778, 484.910 356.233, 484.910 356.233, 484.910 356.233, 494.910 356.233, 498.455 356.233, 498.455 356.233, 508.455 356.233, 512.000 356.233, 512.000 " />
            <path fill="none" stroke-width="1.5" stroke-linecap="round" stroke-opacity="1.0" stroke="rgb(0, 0, 0)" stroke-linejoin="round" d=" M 356.233, 512.000 366.233, 512.000 376.233, 512.000 386.233, 512.000 396.233, 512.000 406.233, 512.000 416.233, 512.000 426.233, 512.000 436.233, 512.000 446.233, 512.000 456.233, 512.000 466.233, 512.000 476.233, 512.000 486.233, 512.000 496.233, 512.000 506.233, 512.000 516.233, 512.000 526.233, 512.000 536.233, 512.000 546.233, 512.000 556.233, 512.000 566.233, 512.000 576.233, 512.000 586.233, 512.000 596.233, 512.000 606.233, 512.000 616.233, 512.000 626.233, 512.000 636.233, 512.000 646.233, 512.000 656.233, 512.000 666.233, 512.000 676.233, 512.000 681.312, 512.000 " />
            <path fill="none" stroke-width="1.5" stroke-linecap="round" stroke-opacity="1.0" stroke="rgb(0, 0, 0)" stroke-linejoin="round" d=" M 369.778, 484.910 369.778, 474.910 369.778, 464.910 369.778, 454.910 369.778, 444.910 369.778, 434.910 369.778, 424.910 369.778, 414.910 369.778, 404.910 369.778, 394.910 369.778, 384.910 369.778, 374.910 369.778, 364.910 369.778, 354.910 369.778, 344.910 369.778, 334.910 369.778, 324.910 369.778, 314.910 369.778, 304.910 369.778, 294.910 369.778, 284.910 369.778, 274.910 369.778, 264.910 369.778, 254.910 369.778, 244.910 369.778, 234.910 369.778, 227.556 369.778, 227.556 359.778, 227.556 349.778, 227.556 342.688, 227.556 342.688, 237.556 342.688, 247.556 342.688, 257.556 342.688, 267.556 342.688, 277.556 342.688, 287.556 342.688, 297.556 342.688, 307.556 342.688, 317.556 342.688, 327.556 342.688, 337.556 342.688, 347.556 342.688, 357.556 342.688, 367.556 342.688, 377.556 342.688, 387.556 342.688, 397.556 342.688, 407.556 342.688, 417.556 342.688, 427.556 342.688, 437.556 342.688, 447.556 342.688, 457.556 342.688, 467.556 342.688, 477.556 342.688, 487.556 342.688, 498.455 342.688, 498.455 352.688, 498.455 356.233, 498.455 " />
            <path fill="none" stroke-width="1.5" stroke-linecap="round" stroke-opacity="1.0" stroke="rgb(0, 0, 0)" stroke-linejoin="round" d=" M 369.778, 227.556 369.778, 237.556 369.778, 247.556 369.778, 257.556 369.778, 267.556 369.778, 277.556 369.778, 287.556 369.778, 297.556 369.778, 307.556 369.778, 317.556 369.778, 327.556 369.778, 337.556 369.778, 347.556 369.778, 357.556 369.778, 367.556 369.778, 377.556 369.778, 387.556 369.778, 397.556 369.778, 407.556 369.778, 417.556 369.778, 427.556 369.778, 437.556 369.778, 447.556 369.778, 457.556 369.778, 467.556 369.778, 477.556 369.778, 484.910 369.778, 494.910 369.778, 498.455 359.778, 498.455 356.233, 498.455 346.233, 498.455 342.688, 498.455 " />
            <path fill="none" stroke-width="1.5" stroke-linecap="round" stroke-opacity="1.0" stroke="rgb(0, 0, 0)" stroke-linejoin="round" d=" M 532.318, 769.355 533.823, 769.355 537.928, 769.355 541.297, 769.355 543.800, 769.355 545.342, 769.355 545.862, 769.355 545.862, 759.355 545.862, 749.355 545.862, 739.355 545.862, 729.355 545.862, 719.355 545.862, 709.355 545.862, 699.355 545.862, 689.355 545.862, 679.355 545.862, 669.355 545.862, 659.355 545.862, 649.355 545.862, 639.355 545.862, 633.905 545.342, 633.905 543.800, 633.905 541.297, 633.905 537.928, 633.905 533.823, 633.905 529.139, 633.905 524.057, 633.905 518.773, 633.905 513.488, 633.905 508.406, 633.905 503.722, 633.905 499.617, 633.905 496.248, 633.905 493.745, 633.905 492.203, 633.905 491.683, 633.905 491.683, 643.905 491.683, 653.905 491.683, 663.905 491.683, 673.905 491.683, 683.905 491.683, 693.905 491.683, 703.905 491.683, 713.905 491.683, 723.905 491.683, 733.905 491.683, 743.905 491.683, 753.905 491.683, 763.905 491.683, 769.355 492.203, 769.355 493.745, 769.355 496.248, 769.355 499.617, 769.355 503.722, 769.355 505.226, 769.355 505.227, 769.355 " />
            <path fill="none" stroke-width="1.5" stroke-linecap="round" stroke-opacity="1.0" stroke="rgb(0, 0, 0)" stroke-linejoin="round" d=" M 532.318, 742.785 532.318, 742.265 522.318, 742.265 512.318, 742.265 505.228, 742.265 505.228, 744.327 505.228, 746.830 505.228, 750.199 505.228, 754.304 505.228, 758.988 505.228, 768.988 505.228, 769.355 " />
            <path fill="none" stroke-width="1.5" stroke-linecap="round" stroke-opacity="1.0" stroke="rgb(0, 0, 0)" stroke-linejoin="round" d=" M 505.228, 742.265 505.228, 742.785 505.228, 744.327 " />
            <path fill="none" stroke-width="1.5" stroke-linecap="round" stroke-opacity="1.0" stroke="rgb(0, 0, 0)" stroke-linejoin="round" d=" M 532.318, 754.304 532.318, 750.199 532.318, 746.830 532.318, 744.327 532.318, 742.785 " />
            <path fill="none" stroke-width="1.5" stroke-linecap="round" stroke-opacity="1.0" stroke="rgb(0, 0, 0)" stroke-linejoin="round" d=" M 532.318, 769.355 532.318, 764.070 532.318, 758.988 532.318, 754.304 " />
            <path fill="none" stroke-width="1.5" stroke-linecap="round" stroke-opacity="1.0" stroke="rgb(0, 0, 0)" stroke-linejoin="round" d=" M 505.228, 758.988 505.228, 764.070 505.228, 769.355 " />
            <path fill="none" stroke-width="1.5" stroke-linecap="round" stroke-opacity="1.0" stroke="rgb(0, 0, 0)" stroke-linejoin="round" d=" M 505.228, 779.721 505.228, 788.510 505.228, 791.879 505.228, 794.382 505.228, 795.924 505.228, 796.445 515.228, 796.445 525.228, 796.445 532.318, 796.445 532.318, 795.924 532.318, 794.382 532.318, 791.879 532.318, 788.510 532.318, 784.405 532.318, 779.721 532.318, 774.640 532.318, 769.355 " />
            <path fill="none" stroke-width="1.5" stroke-linecap="round" stroke-opacity="1.0" stroke="rgb(0, 0, 0)" stroke-linejoin="round" d=" M 505.228, 769.355 505.228, 774.640 505.228, 779.721 505.228, 769.721 505.228, 769.355 " />
            <path fill="none" stroke-width="1.5" stroke-linecap="round" stroke-opacity="1.0" stroke="rgb(0, 0, 0)" stroke-linejoin="round" d=" M 505.228, 779.721 505.228, 784.405 505.228, 788.510 " />
            <path fill="none" stroke-width="1.5" stroke-linecap="round" stroke-opacity="1.0" stroke="rgb(0, 0, 0)" stroke-linejoin="round" d=" M 532.318, 769.355 532.318, 774.640 532.318, 779.721 532.318, 784.405 532.318, 788.510 532.318, 791.879 532.318, 794.382 " />
            <path fill="none" stroke-width="1.5" stroke-linecap="round" stroke-opacity="1.0" stroke="rgb(0, 0, 0)" stroke-linejoin="round" d=" M 532.318, 754.304 532.318, 756.290 532.318, 758.988 532.318, 764.070 532.318, 769.355 " />
            <path fill="none" stroke-width="1.5" stroke-linecap="round" stroke-opacity="1.0" stroke="rgb(0, 0, 0)" stroke-linejoin="round" d=" M 532.318, 742.785 532.318, 744.327 532.318, 746.830 532.318, 750.199 532.318, 754.304 " />
            <path fill="none" stroke-width="1.5" stroke-linecap="round" stroke-opacity="1.0" stroke="rgb(0, 0, 0)" stroke-linejoin="round" d=" M 634.048, 795.924 634.048, 796.445 644.048, 796.445 654.048, 796.445 661.138, 796.445 661.138, 795.924 661.138, 794.382 661.138, 791.879 661.138, 788.510 661.138, 784.405 661.138, 779.721 661.138, 774.640 661.138, 769.355 661.138, 764.070 661.138, 758.988 661.138, 754.304 661.138, 750.199 661.138, 746.830 661.138, 744.327 661.138, 742.785 661.138, 742.265 651.138, 742.265 641.138, 742.265 634.048, 742.265 634.048, 742.785 634.048, 744.327 634.048, 746.830 634.048, 750.199 634.048, 754.304 634.048, 758.988 634.048, 764.070 634.048, 769.355 634.048, 774.640 634.048, 779.721 634.048, 784.405 634.048, 788.510 634.048, 791.879 634.048, 794.382 634.048, 795.924 " />
            <path fill="none" stroke-width="1.5" stroke-linecap="round" stroke-opacity="1.0" stroke="rgb(0, 0, 0)" stroke-linejoin="round" d=" M 611.933, 742.785 611.933, 742.265 601.933, 742.265 591.933, 742.265 584.843, 742.265 584.843, 742.785 584.843, 744.327 584.843, 746.830 584.843, 750.199 584.843, 754.304 584.843, 758.988 " />
            <path fill="none" stroke-width="1.5" stroke-linecap="round" stroke-opacity="1.0" stroke="rgb(0, 0, 0)" stroke-linejoin="round" d=" M 611.933, 754.304 611.933, 750.199 611.933, 746.830 611.933, 744.327 611.933, 742.785 " />
            <path fill="none" stroke-width="1.5" stroke-linecap="round" stroke-opacity="1.0" stroke="rgb(0, 0, 0)" stroke-linejoin="round" d=" M 584.843, 795.924 584.843, 796.445 594.843, 796.445 604.843, 796.445 611.933, 796.445 611.933, 795.924 611.933, 794.382 611.933, 791.879 611.933, 788.510 611.933, 784.405 611.933, 779.721 611.933, 774.640 611.933, 769.355 611.933, 764.070 611.933, 758.988 611.933, 754.304 " />
            <path fill="none" stroke-width="1.5" stroke-linecap="round" stroke-opacity="1.0" stroke="rgb(0, 0, 0)" stroke-linejoin="round" d=" M 584.843, 758.988 584.843, 764.070 584.843, 769.355 584.843, 774.640 " />
            <path fill="none" stroke-width="1.5" stroke-linecap="round" stroke-opacity="1.0" stroke="rgb(0, 0, 0)" stroke-linejoin="round" d=" M 584.843, 774.640 584.843, 779.721 584.843, 784.405 584.843, 788.510 584.843, 791.879 584.843, 794.382 584.843, 795.924 " />
            <path fill="none" stroke-width="1.5" stroke-linecap="round" stroke-opacity="1.0" stroke="rgb(0, 0, 0)" stroke-linejoin="round" d=" M 611.933, 742.785 611.933, 744.327 611.933, 746.830 611.933, 750.199 611.933, 754.304 611.933, 758.988 611.933, 764.070 " />
            <path fill="none" stroke-width="1.5" stroke-linecap="round" stroke-opacity="1.0" stroke="rgb(0, 0, 0)" stroke-linejoin="round" d=" M 584.843, 746.830 584.843, 744.327 " />
            <path fill="none" stroke-width="1.5" stroke-linecap="round" stroke-opacity="1.0" stroke="rgb(0, 0, 0)" stroke-linejoin="round" d=" M 452.702, 754.304 452.702, 750.199 452.702, 746.830 452.702, 744.327 452.702, 742.785 452.702, 742.265 442.702, 742.265 432.702, 742.265 425.612, 742.265 425.612, 742.785 425.612, 744.327 425.612, 746.830 425.612, 750.199 425.612, 754.304 425.612, 758.988 " />
            <path fill="none" stroke-width="1.5" stroke-linecap="round" stroke-opacity="1.0" stroke="rgb(0, 0, 0)" stroke-linejoin="round" d=" M 425.612, 758.988 425.612, 764.070 425.612, 769.355 425.612, 774.640 425.612, 779.721 425.612, 784.405 425.612, 788.510 425.612, 791.879 425.612, 794.382 425.612, 795.924 425.612, 796.445 435.612, 796.445 445.612, 796.445 452.702, 796.445 452.702, 795.924 452.702, 794.382 452.702, 791.879 452.702, 788.510 452.702, 784.405 452.702, 779.721 452.702, 774.640 452.702, 769.355 452.702, 764.070 452.702, 758.988 452.702, 754.304 " />
            <path fill="none" stroke-width="1.5" stroke-linecap="round" stroke-opacity="1.0" stroke="rgb(0, 0, 0)" stroke-linejoin="round" d=" M 452.702, 754.304 452.702, 756.290 452.702, 758.988 452.702, 764.070 452.702, 769.355 452.702, 774.640 452.702, 779.721 452.702, 784.405 452.702, 788.510 452.702, 791.879 452.702, 794.382 " />
            <path fill="none" stroke-width="1.5" stroke-linecap="round" stroke-opacity="1.0" stroke="rgb(0, 0, 0)" stroke-linejoin="round" d=" M 425.612, 769.355 425.612, 774.640 " />
            <path fill="none" stroke-width="1.5" stroke-linecap="round" stroke-opacity="1.0" stroke="rgb(0, 0, 0)" stroke-linejoin="round" d=" M 425.612, 769.355 425.612, 764.070 " />
            <path fill="none" stroke-width="1.5" stroke-linecap="round" stroke-opacity="1.0" stroke="rgb(0, 0, 0)" stroke-linejoin="round" d=" M 403.497, 742.785 403.497, 742.265 393.497, 742.265 383.497, 742.265 376.407, 742.265 376.407, 742.785 376.407, 744.327 376.407, 746.830 376.407, 750.199 376.407, 754.304 376.407, 758.988 376.407, 764.070 376.407, 769.355 376.407, 774.640 376.407, 779.721 376.407, 784.405 376.407, 788.510 376.407, 791.879 376.407, 794.382 376.407, 795.924 376.407, 796.445 386.407, 796.445 396.407, 796.445 403.497, 796.445 403.497, 795.924 403.497, 794.382 403.497, 791.879 403.497, 788.510 403.497, 784.405 403.497, 779.721 403.497, 774.640 403.497, 769.355 403.497, 764.070 " />
            <path fill="none" stroke-width="1.5" stroke-linecap="round" stroke-opacity="1.0" stroke="rgb(0, 0, 0)" stroke-linejoin="round" d=" M 403.497, 754.304 403.497, 750.199 403.497, 746.830 403.497, 744.327 403.497, 742.785 " />
            <path fill="none" stroke-width="1.5" stroke-linecap="round" stroke-opacity="1.0" stroke="rgb(0, 0, 0)" stroke-linejoin="round" d=" M 403.497, 764.070 403.497, 758.988 403.497, 754.304 " />
            <path fill="none" stroke-width="1.5" stroke-linecap="round" stroke-opacity="1.0" stroke="rgb(0, 0, 0)" stroke-linejoin="round" d=" M 403.497, 742.785 403.497, 744.327 403.497, 746.830 403.497, 750.199 403.497, 754.304 403.497, 758.988 403.497, 764.070 " />
            <path fill="none" stroke-width="1.5" stroke-linecap="round" stroke-opacity="1.0" stroke="rgb(0, 0, 0)" stroke-linejoin="round" d=" M 376.407, 754.304 376.407, 750.199 " />
            <path fill="none" stroke-width="1.5" stroke-linecap="round" stroke-opacity="1.0" stroke="rgb(0, 0, 0)" stroke-linejoin="round" d=" M 452.702, 756.290 452.702, 746.290 452.702, 742.785 " />
            <path fill="none" stroke-width="1.5" stroke-linecap="round" stroke-opacity="1.0" stroke="rgb(0, 0, 0)" stroke-linejoin="round" d=" M 532.318, 756.290 532.318, 746.290 532.318, 742.785 " />
        </g>
    </g>
    <g id="ViewLayer_TechnicalLines.002" inkscape:groupmode="lineset" inkscape:label="ViewLayer_TechnicalLines.002">
        <g inkscape:groupmode="layer" id="strokes" inkscape:label="strokes">
            <path fill="none" stroke-width="1.5" stroke-linecap="round" stroke-opacity="1.0" stroke="rgb(0, 0, 0)" stroke-linejoin="round" d=" M 356.233, 512.000 366.233, 512.000 376.233, 512.000 386.233, 512.000 396.233, 512.000 406.233, 512.000 416.233, 512.000 426.233, 512.000 436.233, 512.000 446.233, 512.000 456.233, 512.000 466.233, 512.000 476.233, 512.000 486.233, 512.000 496.233, 512.000 506.233, 512.000 516.233, 512.000 526.233, 512.000 536.233, 512.000 546.233, 512.000 556.233, 512.000 566.233, 512.000 576.233, 512.000 586.233, 512.000 596.233, 512.000 606.233, 512.000 616.233, 512.000 626.233, 512.000 636.233, 512.000 646.233, 512.000 656.233, 512.000 666.233, 512.000 676.233, 512.000 681.312, 512.000 681.312, 512.000 681.312, 502.000 681.312, 492.000 681.312, 484.910 681.312, 484.910 671.312, 484.910 661.312, 484.910 651.312, 484.910 641.312, 484.910 631.312, 484.910 621.312, 484.910 611.312, 484.910 601.312, 484.910 591.312, 484.910 581.312, 484.910 571.312, 484.910 561.312, 484.910 551.312, 484.910 541.312, 484.910 531.312, 484.910 521.312, 484.910 511.312, 484.910 501.312, 484.910 491.312, 484.910 481.312, 484.910 471.312, 484.910 461.312, 484.910 451.312, 484.910 441.312, 484.910 431.312, 484.910 421.312, 484.910 411.312, 484.910 401.312, 484.910 391.312, 484.910 381.312, 484.910 369.778, 484.910 369.778, 484.910 359.778, 484.910 356.233, 484.910 356.233, 484.910 356.233, 494.910 356.233, 498.455 356.233, 498.455 356.233, 508.455 356.233, 512.000 356.233, 512.000 " />
            <path fill="none" stroke-width="1.5" stroke-linecap="round" stroke-opacity="1.0" stroke="rgb(0, 0, 0)" stroke-linejoin="round" d=" M 356.233, 512.000 366.233, 512.000 376.233, 512.000 386.233, 512.000 396.233, 512.000 406.233, 512.000 416.233, 512.000 426.233, 512.000 436.233, 512.000 446.233, 512.000 456.233, 512.000 466.233, 512.000 476.233, 512.000 486.233, 512.000 496.233, 512.000 506.233, 512.000 516.233, 512.000 526.233, 512.000 536.233, 512.000 546.233, 512.000 556.233, 512.000 566.233, 512.000 576.233, 512.000 586.233, 512.000 596.233, 512.000 606.233, 512.000 616.233, 512.000 626.233, 512.000 636.233, 512.000 646.233, 512.000 656.233, 512.000 666.233, 512.000 676.233, 512.000 681.312, 512.000 " />
            <path fill="none" stroke-width="1.5" stroke-linecap="round" stroke-opacity="1.0" stroke="rgb(0, 0, 0)" stroke-linejoin="round" d=" M 369.778, 484.910 369.778, 474.910 369.778, 464.910 369.778, 454.910 369.778, 444.910 369.778, 434.910 369.778, 424.910 369.778, 414.910 369.778, 404.910 369.778, 394.910 369.778, 384.910 369.778, 374.910 369.778, 364.910 369.778, 354.910 369.778, 344.910 369.778, 334.910 369.778, 324.910 369.778, 314.910 369.778, 304.910 369.778, 294.910 369.778, 284.910 369.778, 274.910 369.778, 264.910 369.778, 254.910 369.778, 244.910 369.778, 234.910 369.778, 227.556 369.778, 227.556 359.778, 227.556 349.778, 227.556 342.688, 227.556 342.688, 237.556 342.688, 247.556 342.688, 257.556 342.688, 267.556 342.688, 277.556 342.688, 287.556 342.688, 297.556 342.688, 307.556 342.688, 317.556 342.688, 327.556 342.688, 337.556 342.688, 347.556 342.688, 357.556 342.688, 367.556 342.688, 377.556 342.688, 387.556 342.688, 397.556 342.688, 407.556 342.688, 417.556 342.688, 427.556 342.688, 437.556 342.688, 447.556 342.688, 457.556 342.688, 467.556 342.688, 477.556 342.688, 487.556 342.688, 498.455 342.688, 498.455 352.688, 498.455 356.233, 498.455 " />
            <path fill="none" stroke-width="1.5" stroke-linecap="round" stroke-opacity="1.0" stroke="rgb(0, 0, 0)" stroke-linejoin="round" d=" M 369.778, 227.556 369.778, 237.556 369.778, 247.556 369.778, 257.556 369.778, 267.556 369.778, 277.556 369.778, 287.556 369.778, 297.556 369.778, 307.556 369.778, 317.556 369.778, 327.556 369.778, 337.556 369.778, 347.556 369.778, 357.556 369.778, 367.556 369.778, 377.556 369.778, 387.556 369.778, 397.556 369.778, 407.556 369.778, 417.556 369.778, 427.556 369.778, 437.556 369.778, 447.556 369.778, 457.556 369.778, 467.556 369.778, 477.556 369.778, 484.910 369.778, 494.910 369.778, 498.455 359.778, 498.455 356.233, 498.455 346.233, 498.455 342.688, 498.455 " />
            <path fill="none" stroke-width="1.5" stroke-linecap="round" stroke-opacity="1.0" stroke="rgb(0, 0, 0)" stroke-linejoin="round" d=" M 532.318, 769.355 533.823, 769.355 537.928, 769.355 541.297, 769.355 543.800, 769.355 545.342, 769.355 545.862, 769.355 545.862, 759.355 545.862, 749.355 545.862, 739.355 545.862, 729.355 545.862, 719.355 545.862, 709.355 545.862, 699.355 545.862, 689.355 545.862, 679.355 545.862, 669.355 545.862, 659.355 545.862, 649.355 545.862, 639.355 545.862, 633.905 545.342, 633.905 543.800, 633.905 541.297, 633.905 537.928, 633.905 533.823, 633.905 529.139, 633.905 524.057, 633.905 518.773, 633.905 513.488, 633.905 508.406, 633.905 503.722, 633.905 499.617, 633.905 496.248, 633.905 493.745, 633.905 492.203, 633.905 491.683, 633.905 491.683, 643.905 491.683, 653.905 491.683, 663.905 491.683, 673.905 491.683, 683.905 491.683, 693.905 491.683, 703.905 491.683, 713.905 491.683, 723.905 491.683, 733.905 491.683, 743.905 491.683, 753.905 491.683, 763.905 491.683, 769.355 492.203, 769.355 493.745, 769.355 496.248, 769.355 499.617, 769.355 503.722, 769.355 505.226, 769.355 505.227, 769.355 " />
            <path fill="none" stroke-width="1.5" stroke-linecap="round" stroke-opacity="1.0" stroke="rgb(0, 0, 0)" stroke-linejoin="round" d=" M 532.318, 742.785 532.318, 742.265 522.318, 742.265 512.318, 742.265 505.228, 742.265 505.228, 744.327 505.228, 746.830 505.228, 750.199 505.228, 754.304 505.228, 758.988 505.228, 768.988 505.228, 769.355 " />
            <path fill="none" stroke-width="1.5" stroke-linecap="round" stroke-opacity="1.0" stroke="rgb(0, 0, 0)" stroke-linejoin="round" d=" M 505.228, 742.265 505.228, 742.785 505.228, 744.327 " />
            <path fill="none" stroke-width="1.5" stroke-linecap="round" stroke-opacity="1.0" stroke="rgb(0, 0, 0)" stroke-linejoin="round" d=" M 532.318, 754.304 532.318, 750.199 532.318, 746.830 532.318, 744.327 532.318, 742.785 " />
            <path fill="none" stroke-width="1.5" stroke-linecap="round" stroke-opacity="1.0" stroke="rgb(0, 0, 0)" stroke-linejoin="round" d=" M 532.318, 769.355 532.318, 764.070 532.318, 758.988 532.318, 754.304 " />
            <path fill="none" stroke-width="1.5" stroke-linecap="round" stroke-opacity="1.0" stroke="rgb(0, 0, 0)" stroke-linejoin="round" d=" M 505.228, 758.988 505.228, 764.070 505.228, 769.355 " />
            <path fill="none" stroke-width="1.5" stroke-linecap="round" stroke-opacity="1.0" stroke="rgb(0, 0, 0)" stroke-linejoin="round" d=" M 505.228, 779.721 505.228, 788.510 505.228, 791.879 505.228, 794.382 505.228, 795.924 505.228, 796.445 515.228, 796.445 525.228, 796.445 532.318, 796.445 532.318, 795.924 532.318, 794.382 532.318, 791.879 532.318, 788.510 532.318, 784.405 532.318, 779.721 532.318, 774.640 532.318, 769.355 " />
            <path fill="none" stroke-width="1.5" stroke-linecap="round" stroke-opacity="1.0" stroke="rgb(0, 0, 0)" stroke-linejoin="round" d=" M 505.228, 769.355 505.228, 774.640 505.228, 779.721 505.228, 769.721 505.228, 769.355 " />
            <path fill="none" stroke-width="1.5" stroke-linecap="round" stroke-opacity="1.0" stroke="rgb(0, 0, 0)" stroke-linejoin="round" d=" M 505.228, 779.721 505.228, 784.405 505.228, 788.510 " />
            <path fill="none" stroke-width="1.5" stroke-linecap="round" stroke-opacity="1.0" stroke="rgb(0, 0, 0)" stroke-linejoin="round" d=" M 532.318, 769.355 532.318, 774.640 532.318, 779.721 532.318, 784.405 532.318, 788.510 532.318, 791.879 532.318, 794.382 " />
            <path fill="none" stroke-width="1.5" stroke-linecap="round" stroke-opacity="1.0" stroke="rgb(0, 0, 0)" stroke-linejoin="round" d=" M 532.318, 754.304 532.318, 756.290 532.318, 758.988 532.318, 764.070 532.318, 769.355 " />
            <path fill="none" stroke-width="1.5" stroke-linecap="round" stroke-opacity="1.0" stroke="rgb(0, 0, 0)" stroke-linejoin="round" d=" M 532.318, 742.785 532.318, 744.327 532.318, 746.830 532.318, 750.199 532.318, 754.304 " />
            <path fill="none" stroke-width="1.5" stroke-linecap="round" stroke-opacity="1.0" stroke="rgb(0, 0, 0)" stroke-linejoin="round" d=" M 634.048, 795.924 634.048, 796.445 644.048, 796.445 654.048, 796.445 661.138, 796.445 661.138, 795.924 661.138, 794.382 661.138, 791.879 661.138, 788.510 661.138, 784.405 661.138, 779.721 661.138, 774.640 661.138, 769.355 661.138, 764.070 661.138, 758.988 661.138, 754.304 661.138, 750.199 661.138, 746.830 661.138, 744.327 661.138, 742.785 661.138, 742.265 651.138, 742.265 641.138, 742.265 634.048, 742.265 634.048, 742.785 634.048, 744.327 634.048, 746.830 634.048, 750.199 634.048, 754.304 634.048, 758.988 634.048, 764.070 634.048, 769.355 634.048, 774.640 634.048, 779.721 634.048, 784.405 634.048, 788.510 634.048, 791.879 634.048, 794.382 634.048, 795.924 " />
            <path fill="none" stroke-width="1.5" stroke-linecap="round" stroke-opacity="1.0" stroke="rgb(0, 0, 0)" stroke-linejoin="round" d=" M 611.933, 742.785 611.933, 742.265 601.933, 742.265 591.933, 742.265 584.843, 742.265 584.843, 742.785 584.843, 744.327 584.843, 746.830 584.843, 750.199 584.843, 754.304 584.843, 758.988 " />
            <path fill="none" stroke-width="1.5" stroke-linecap="round" stroke-opacity="1.0" stroke="rgb(0, 0, 0)" stroke-linejoin="round" d=" M 611.933, 754.304 611.933, 750.199 611.933, 746.830 611.933, 744.327 611.933, 742.785 " />
            <path fill="none" stroke-width="1.5" stroke-linecap="round" stroke-opacity="1.0" stroke="rgb(0, 0, 0)" stroke-linejoin="round" d=" M 584.843, 795.924 584.843, 796.445 594.843, 796.445 604.843, 796.445 611.933, 796.445 611.933, 795.924 611.933, 794.382 611.933, 791.879 611.933, 788.510 611.933, 784.405 611.933, 779.721 611.933, 774.640 611.933, 769.355 611.933, 764.070 611.933, 758.988 611.933, 754.304 " />
            <path fill="none" stroke-width="1.5" stroke-linecap="round" stroke-opacity="1.0" stroke="rgb(0, 0, 0)" stroke-linejoin="round" d=" M 584.843, 758.988 584.843, 764.070 584.843, 769.355 584.843, 774.640 " />
            <path fill="none" stroke-width="1.5" stroke-linecap="round" stroke-opacity="1.0" stroke="rgb(0, 0, 0)" stroke-linejoin="round" d=" M 584.843, 774.640 584.843, 779.721 584.843, 784.405 584.843, 788.510 584.843, 791.879 584.843, 794.382 584.843, 795.924 " />
            <path fill="none" stroke-width="1.5" stroke-linecap="round" stroke-opacity="1.0" stroke="rgb(0, 0, 0)" stroke-linejoin="round" d=" M 611.933, 742.785 611.933, 744.327 611.933, 746.830 611.933, 750.199 611.933, 754.304 611.933, 758.988 611.933, 764.070 " />
            <path fill="none" stroke-width="1.5" stroke-linecap="round" stroke-opacity="1.0" stroke="rgb(0, 0, 0)" stroke-linejoin="round" d=" M 584.843, 746.830 584.843, 744.327 " />
            <path fill="none" stroke-width="1.5" stroke-linecap="round" stroke-opacity="1.0" stroke="rgb(0, 0, 0)" stroke-linejoin="round" d=" M 452.702, 754.304 452.702, 750.199 452.702, 746.830 452.702, 744.327 452.702, 742.785 452.702, 742.265 442.702, 742.265 432.702, 742.265 425.612, 742.265 425.612, 742.785 425.612, 744.327 425.612, 746.830 425.612, 750.199 425.612, 754.304 425.612, 758.988 " />
            <path fill="none" stroke-width="1.5" stroke-linecap="round" stroke-opacity="1.0" stroke="rgb(0, 0, 0)" stroke-linejoin="round" d=" M 425.612, 758.988 425.612, 764.070 425.612, 769.355 425.612, 774.640 425.612, 779.721 425.612, 784.405 425.612, 788.510 425.612, 791.879 425.612, 794.382 425.612, 795.924 425.612, 796.445 435.612, 796.445 445.612, 796.445 452.702, 796.445 452.702, 795.924 452.702, 794.382 452.702, 791.879 452.702, 788.510 452.702, 784.405 452.702, 779.721 452.702, 774.640 452.702, 769.355 452.702, 764.070 452.702, 758.988 452.702, 754.304 " />
            <path fill="none" stroke-width="1.5" stroke-linecap="round" stroke-opacity="1.0" stroke="rgb(0, 0, 0)" stroke-linejoin="round" d=" M 452.702, 754.304 452.702, 756.290 452.702, 758.988 452.702, 764.070 452.702, 769.355 452.702, 774.640 452.702, 779.721 452.702, 784.405 452.702, 788.510 452.702, 791.879 452.702, 794.382 " />
            <path fill="none" stroke-width="1.5" stroke-linecap="round" stroke-opacity="1.0" stroke="rgb(0, 0, 0)" stroke-linejoin="round" d=" M 425.612, 769.355 425.612, 774.640 " />
            <path fill="none" stroke-width="1.5" stroke-linecap="round" stroke-opacity="1.0" stroke="rgb(0, 0, 0)" stroke-linejoin="round" d=" M 425.612, 769.355 425.612, 764.070 " />
            <path fill="none" stroke-width="1.5" stroke-linecap="round" stroke-opacity="1.0" stroke="rgb(0, 0, 0)" stroke-linejoin="round" d=" M 403.497, 742.785 403.497, 742.265 393.497, 742.265 383.497, 742.265 376.407, 742.265 376.407, 742.785 376.407, 744.327 376.407, 746.830 376.407, 750.199 376.407, 754.304 376.407, 758.988 376.407, 764.070 376.407, 769.355 376.407, 774.640 376.407, 779.721 376.407, 784.405 376.407, 788.510 376.407, 791.879 376.407, 794.382 376.407, 795.924 376.407, 796.445 386.407, 796.445 396.407, 796.445 403.497, 796.445 403.497, 795.924 403.497, 794.382 403.497, 791.879 403.497, 788.510 403.497, 784.405 403.497, 779.721 403.497, 774.640 403.497, 769.355 403.497, 764.070 " />
            <path fill="none" stroke-width="1.5" stroke-linecap="round" stroke-opacity="1.0" stroke="rgb(0, 0, 0)" stroke-linejoin="round" d=" M 403.497, 754.304 403.497, 750.199 403.497, 746.830 403.497, 744.327 403.497, 742.785 " />
            <path fill="none" stroke-width="1.5" stroke-linecap="round" stroke-opacity="1.0" stroke="rgb(0, 0, 0)" stroke-linejoin="round" d=" M 403.497, 764.070 403.497, 758.988 403.497, 754.304 " />
            <path fill="none" stroke-width="1.5" stroke-linecap="round" stroke-opacity="1.0" stroke="rgb(0, 0, 0)" stroke-linejoin="round" d=" M 403.497, 742.785 403.497, 744.327 403.497, 746.830 403.497, 750.199 403.497, 754.304 403.497, 758.988 403.497, 764.070 " />
            <path fill="none" stroke-width="1.5" stroke-linecap="round" stroke-opacity="1.0" stroke="rgb(0, 0, 0)" stroke-linejoin="round" d=" M 376.407, 754.304 376.407, 750.199 " />
            <path fill="none" stroke-width="1.5" stroke-linecap="round" stroke-opacity="1.0" stroke="rgb(0, 0, 0)" stroke-linejoin="round" d=" M 452.702, 756.290 452.702, 746.290 452.702, 742.785 " />
            <path fill="none" stroke-width="1.5" stroke-linecap="round" stroke-opacity="1.0" stroke="rgb(0, 0, 0)" stroke-linejoin="round" d=" M 532.318, 756.290 532.318, 746.290 532.318, 742.785 " />
        </g>
    </g>
    <g id="ViewLayer_TechnicalLines.003" inkscape:groupmode="lineset" inkscape:label="ViewLayer_TechnicalLines.003">
        <g inkscape:groupmode="layer" id="strokes" inkscape:label="strokes">
            <path fill="none" stroke-width="1.5" stroke-linecap="round" stroke-opacity="1.0" stroke="rgb(0, 0, 0)" stroke-linejoin="round" d=" M 356.233, 512.000 366.233, 512.000 376.233, 512.000 386.233, 512.000 396.233, 512.000 406.233, 512.000 416.233, 512.000 426.233, 512.000 436.233, 512.000 446.233, 512.000 456.233, 512.000 466.233, 512.000 476.233, 512.000 486.233, 512.000 496.233, 512.000 506.233, 512.000 516.233, 512.000 526.233, 512.000 536.233, 512.000 546.233, 512.000 556.233, 512.000 566.233, 512.000 576.233, 512.000 586.233, 512.000 596.233, 512.000 606.233, 512.000 616.233, 512.000 626.233, 512.000 636.233, 512.000 646.233, 512.000 656.233, 512.000 666.233, 512.000 676.233, 512.000 681.312, 512.000 681.312, 512.000 681.312, 502.000 681.312, 492.000 681.312, 484.910 681.312, 484.910 671.312, 484.910 661.312, 484.910 651.312, 484.910 641.312, 484.910 631.312, 484.910 621.312, 484.910 611.312, 484.910 601.312, 484.910 591.312, 484.910 581.312, 484.910 571.312, 484.910 561.312, 484.910 551.312, 484.910 541.312, 484.910 531.312, 484.910 521.312, 484.910 511.312, 484.910 501.312, 484.910 491.312, 484.910 481.312, 484.910 471.312, 484.910 461.312, 484.910 451.312, 484.910 441.312, 484.910 431.312, 484.910 421.312, 484.910 411.312, 484.910 401.312, 484.910 391.312, 484.910 381.312, 484.910 369.778, 484.910 369.778, 484.910 359.778, 484.910 356.233, 484.910 356.233, 484.910 356.233, 494.910 356.233, 498.455 356.233, 498.455 356.233, 508.455 356.233, 512.000 356.233, 512.000 " />
            <path fill="none" stroke-width="1.5" stroke-linecap="round" stroke-opacity="1.0" stroke="rgb(0, 0, 0)" stroke-linejoin="round" d=" M 356.233, 512.000 366.233, 512.000 376.233, 512.000 386.233, 512.000 396.233, 512.000 406.233, 512.000 416.233, 512.000 426.233, 512.000 436.233, 512.000 446.233, 512.000 456.233, 512.000 466.233, 512.000 476.233, 512.000 486.233, 512.000 496.233, 512.000 506.233, 512.000 516.233, 512.000 526.233, 512.000 536.233, 512.000 546.233, 512.000 556.233, 512.000 566.233, 512.000 576.233, 512.000 586.233, 512.000 596.233, 512.000 606.233, 512.000 616.233, 512.000 626.233, 512.000 636.233, 512.000 646.233, 512.000 656.233, 512.000 666.233, 512.000 676.233, 512.000 681.312, 512.000 " />
            <path fill="none" stroke-width="1.5" stroke-linecap="round" stroke-opacity="1.0" stroke="rgb(0, 0, 0)" stroke-linejoin="round" d=" M 369.778, 484.910 369.778, 474.910 369.778, 464.910 369.778, 454.910 369.778, 444.910 369.778, 434.910 369.778, 424.910 369.778, 414.910 369.778, 404.910 369.778, 394.910 369.778, 384.910 369.778, 374.910 369.778, 364.910 369.778, 354.910 369.778, 344.910 369.778, 334.910 369.778, 324.910 369.778, 314.910 369.778, 304.910 369.778, 294.910 369.778, 284.910 369.778, 274.910 369.778, 264.910 369.778, 254.910 369.778, 244.910 369.778, 234.910 369.778, 227.556 369.778, 227.556 359.778, 227.556 349.778, 227.556 342.688, 227.556 342.688, 237.556 342.688, 247.556 342.688, 257.556 342.688, 267.556 342.688, 277.556 342.688, 287.556 342.688, 297.556 342.688, 307.556 342.688, 317.556 342.688, 327.556 342.688, 337.556 342.688, 347.556 342.688, 357.556 342.688, 367.556 342.688, 377.556 342.688, 387.556 342.688, 397.556 342.688, 407.556 342.688, 417.556 342.688, 427.556 342.688, 437.556 342.688, 447.556 342.688, 457.556 342.688, 467.556 342.688, 477.556 342.688, 487.556 342.688, 498.455 342.688, 498.455 352.688, 498.455 356.233, 498.455 " />
            <path fill="none" stroke-width="1.5" stroke-linecap="round" stroke-opacity="1.0" stroke="rgb(0, 0, 0)" stroke-linejoin="round" d=" M 369.778, 227.556 369.778, 237.556 369.778, 247.556 369.778, 257.556 369.778, 267.556 369.778, 277.556 369.778, 287.556 369.778, 297.556 369.778, 307.556 369.778, 317.556 369.778, 327.556 369.778, 337.556 369.778, 347.556 369.778, 357.556 369.778, 367.556 369.778, 377.556 369.778, 387.556 369.778, 397.556 369.778, 407.556 369.778, 417.556 369.778, 427.556 369.778, 437.556 369.778, 447.556 369.778, 457.556 369.778, 467.556 369.778, 477.556 369.778, 484.910 369.778, 494.910 369.778, 498.455 359.778, 498.455 356.233, 498.455 346.233, 498.455 342.688, 498.455 " />
            <path fill="none" stroke-width="1.5" stroke-linecap="round" stroke-opacity="1.0" stroke="rgb(0, 0, 0)" stroke-linejoin="round" d=" M 532.318, 769.355 533.823, 769.355 537.928, 769.355 541.297, 769.355 543.800, 769.355 545.342, 769.355 545.862, 769.355 545.862, 759.355 545.862, 749.355 545.862, 739.355 545.862, 729.355 545.862, 719.355 545.862, 709.355 545.862, 699.355 545.862, 689.355 545.862, 679.355 545.862, 669.355 545.862, 659.355 545.862, 649.355 545.862, 639.355 545.862, 633.905 545.342, 633.905 543.800, 633.905 541.297, 633.905 537.928, 633.905 533.823, 633.905 529.139, 633.905 524.057, 633.905 518.773, 633.905 513.488, 633.905 508.406, 633.905 503.722, 633.905 499.617, 633.905 496.248, 633.905 493.745, 633.905 492.203, 633.905 491.683, 633.905 491.683, 643.905 491.683, 653.905 491.683, 663.905 491.683, 673.905 491.683, 683.905 491.683, 693.905 491.683, 703.905 491.683, 713.905 491.683, 723.905 491.683, 733.905 491.683, 743.905 491.683, 753.905 491.683, 763.905 491.683, 769.355 492.203, 769.355 493.745, 769.355 496.248, 769.355 499.617, 769.355 503.722, 769.355 505.226, 769.355 505.227, 769.355 " />
            <path fill="none" stroke-width="1.5" stroke-linecap="round" stroke-opacity="1.0" stroke="rgb(0, 0, 0)" stroke-linejoin="round" d=" M 532.318, 742.785 532.318, 742.265 522.318, 742.265 512.318, 742.265 505.228, 742.265 505.228, 744.327 505.228, 746.830 505.228, 750.199 505.228, 754.304 505.228, 758.988 505.228, 768.988 505.228, 769.355 " />
            <path fill="none" stroke-width="1.5" stroke-linecap="round" stroke-opacity="1.0" stroke="rgb(0, 0, 0)" stroke-linejoin="round" d=" M 505.228, 742.265 505.228, 742.785 505.228, 744.327 " />
            <path fill="none" stroke-width="1.5" stroke-linecap="round" stroke-opacity="1.0" stroke="rgb(0, 0, 0)" stroke-linejoin="round" d=" M 532.318, 754.304 532.318, 750.199 532.318, 746.830 532.318, 744.327 532.318, 742.785 " />
            <path fill="none" stroke-width="1.5" stroke-linecap="round" stroke-opacity="1.0" stroke="rgb(0, 0, 0)" stroke-linejoin="round" d=" M 532.318, 769.355 532.318, 764.070 532.318, 758.988 532.318, 754.304 " />
            <path fill="none" stroke-width="1.5" stroke-linecap="round" stroke-opacity="1.0" stroke="rgb(0, 0, 0)" stroke-linejoin="round" d=" M 505.228, 758.988 505.228, 764.070 505.228, 769.355 " />
            <path fill="none" stroke-width="1.5" stroke-linecap="round" stroke-opacity="1.0" stroke="rgb(0, 0, 0)" stroke-linejoin="round" d=" M 505.228, 779.721 505.228, 788.510 505.228, 791.879 505.228, 794.382 505.228, 795.924 505.228, 796.445 515.228, 796.445 525.228, 796.445 532.318, 796.445 532.318, 795.924 532.318, 794.382 532.318, 791.879 532.318, 788.510 532.318, 784.405 532.318, 779.721 532.318, 774.640 532.318, 769.355 " />
            <path fill="none" stroke-width="1.5" stroke-linecap="round" stroke-opacity="1.0" stroke="rgb(0, 0, 0)" stroke-linejoin="round" d=" M 505.228, 769.355 505.228, 774.640 505.228, 779.721 505.228, 769.721 505.228, 769.355 " />
            <path fill="none" stroke-width="1.5" stroke-linecap="round" stroke-opacity="1.0" stroke="rgb(0, 0, 0)" stroke-linejoin="round" d=" M 505.228, 779.721 505.228, 784.405 505.228, 788.510 " />
            <path fill="none" stroke-width="1.5" stroke-linecap="round" stroke-opacity="1.0" stroke="rgb(0, 0, 0)" stroke-linejoin="round" d=" M 532.318, 769.355 532.318, 774.640 532.318, 779.721 532.318, 784.405 532.318, 788.510 532.318, 791.879 532.318, 794.382 " />
            <path fill="none" stroke-width="1.5" stroke-linecap="round" stroke-opacity="1.0" stroke="rgb(0, 0, 0)" stroke-linejoin="round" d=" M 532.318, 754.304 532.318, 756.290 532.318, 758.988 532.318, 764.070 532.318, 769.355 " />
            <path fill="none" stroke-width="1.5" stroke-linecap="round" stroke-opacity="1.0" stroke="rgb(0, 0, 0)" stroke-linejoin="round" d=" M 532.318, 742.785 532.318, 744.327 532.318, 746.830 532.318, 750.199 532.318, 754.304 " />
            <path fill="none" stroke-width="1.5" stroke-linecap="round" stroke-opacity="1.0" stroke="rgb(0, 0, 0)" stroke-linejoin="round" d=" M 634.048, 795.924 634.048, 796.445 644.048, 796.445 654.048, 796.445 661.138, 796.445 661.138, 795.924 661.138, 794.382 661.138, 791.879 661.138, 788.510 661.138, 784.405 661.138, 779.721 661.138, 774.640 661.138, 769.355 661.138, 764.070 661.138, 758.988 661.138, 754.304 661.138, 750.199 661.138, 746.830 661.138, 744.327 661.138, 742.785 661.138, 742.265 651.138, 742.265 641.138, 742.265 634.048, 742.265 634.048, 742.785 634.048, 744.327 634.048, 746.830 634.048, 750.199 634.048, 754.304 634.048, 758.988 634.048, 764.070 634.048, 769.355 634.048, 774.640 634.048, 779.721 634.048, 784.405 634.048, 788.510 634.048, 791.879 634.048, 794.382 634.048, 795.924 " />
            <path fill="none" stroke-width="1.5" stroke-linecap="round" stroke-opacity="1.0" stroke="rgb(0, 0, 0)" stroke-linejoin="round" d=" M 611.933, 742.785 611.933, 742.265 601.933, 742.265 591.933, 742.265 584.843, 742.265 584.843, 742.785 584.843, 744.327 584.843, 746.830 584.843, 750.199 584.843, 754.304 584.843, 758.988 " />
            <path fill="none" stroke-width="1.5" stroke-linecap="round" stroke-opacity="1.0" stroke="rgb(0, 0, 0)" stroke-linejoin="round" d=" M 611.933, 754.304 611.933, 750.199 611.933, 746.830 611.933, 744.327 611.933, 742.785 " />
            <path fill="none" stroke-width="1.5" stroke-linecap="round" stroke-opacity="1.0" stroke="rgb(0, 0, 0)" stroke-linejoin="round" d=" M 584.843, 795.924 584.843, 796.445 594.843, 796.445 604.843, 796.445 611.933, 796.445 611.933, 795.924 611.933, 794.382 611.933, 791.879 611.933, 788.510 611.933, 784.405 611.933, 779.721 611.933, 774.640 611.933, 769.355 611.933, 764.070 611.933, 758.988 611.933, 754.304 " />
            <path fill="none" stroke-width="1.5" stroke-linecap="round" stroke-opacity="1.0" stroke="rgb(0, 0, 0)" stroke-linejoin="round" d=" M 584.843, 758.988 584.843, 764.070 584.843, 769.355 584.843, 774.640 " />
            <path fill="none" stroke-width="1.5" stroke-linecap="round" stroke-opacity="1.0" stroke="rgb(0, 0, 0)" stroke-linejoin="round" d=" M 584.843, 774.640 584.843, 779.721 584.843, 784.405 584.843, 788.510 584.843, 791.879 584.843, 794.382 584.843, 795.924 " />
            <path fill="none" stroke-width="1.5" stroke-linecap="round" stroke-opacity="1.0" stroke="rgb(0, 0, 0)" stroke-linejoin="round" d=" M 611.933, 742.785 611.933, 744.327 611.933, 746.830 611.933, 750.199 611.933, 754.304 611.933, 758.988 611.933, 764.070 " />
            <path fill="none" stroke-width="1.5" stroke-linecap="round" stroke-opacity="1.0" stroke="rgb(0, 0, 0)" stroke-linejoin="round" d=" M 584.843, 746.830 584.843, 744.327 " />
            <path fill="none" stroke-width="1.5" stroke-linecap="round" stroke-opacity="1.0" stroke="rgb(0, 0, 0)" stroke-linejoin="round" d=" M 452.702, 754.304 452.702, 750.199 452.702, 746.830 452.702, 744.327 452.702, 742.785 452.702, 742.265 442.702, 742.265 432.702, 742.265 425.612, 742.265 425.612, 742.785 425.612, 744.327 425.612, 746.830 425.612, 750.199 425.612, 754.304 425.612, 758.988 " />
            <path fill="none" stroke-width="1.5" stroke-linecap="round" stroke-opacity="1.0" stroke="rgb(0, 0, 0)" stroke-linejoin="round" d=" M 425.612, 758.988 425.612, 764.070 425.612, 769.355 425.612, 774.640 425.612, 779.721 425.612, 784.405 425.612, 788.510 425.612, 791.879 425.612, 794.382 425.612, 795.924 425.612, 796.445 435.612, 796.445 445.612, 796.445 452.702, 796.445 452.702, 795.924 452.702, 794.382 452.702, 791.879 452.702, 788.510 452.702, 784.405 452.702, 779.721 452.702, 774.640 452.702, 769.355 452.702, 764.070 452.702, 758.988 452.702, 754.304 " />
            <path fill="none" stroke-width="1.5" stroke-linecap="round" stroke-opacity="1.0" stroke="rgb(0, 0, 0)" stroke-linejoin="round" d=" M 452.702, 754.304 452.702, 756.290 452.702, 758.988 452.702, 764.070 452.702, 769.355 452.702, 774.640 452.702, 779.721 452.702, 784.405 452.702, 788.510 452.702, 791.879 452.702, 794.382 " />
            <path fill="none" stroke-width="1.5" stroke-linecap="round" stroke-opacity="1.0" stroke="rgb(0, 0, 0)" stroke-linejoin="round" d=" M 425.612, 769.355 425.612, 774.640 " />
            <path fill="none" stroke-width="1.5" stroke-linecap="round" stroke-opacity="1.0" stroke="rgb(0, 0, 0)" stroke-linejoin="round" d=" M 425.612, 769.355 425.612, 764.070 " />
            <path fill="none" stroke-width="1.5" stroke-linecap="round" stroke-opacity="1.0" stroke="rgb(0, 0, 0)" stroke-linejoin="round" d=" M 403.497, 742.785 403.497, 742.265 393.497, 742.265 383.497, 742.265 376.407, 742.265 376.407, 742.785 376.407, 744.327 376.407, 746.830 376.407, 750.199 376.407, 754.304 376.407, 758.988 376.407, 764.070 376.407, 769.355 376.407, 774.640 376.407, 779.721 376.407, 784.405 376.407, 788.510 376.407, 791.879 376.407, 794.382 376.407, 795.924 376.407, 796.445 386.407, 796.445 396.407, 796.445 403.497, 796.445 403.497, 795.924 403.497, 794.382 403.497, 791.879 403.497, 788.510 403.497, 784.405 403.497, 779.721 403.497, 774.640 403.497, 769.355 403.497, 764.070 " />
            <path fill="none" stroke-width="1.5" stroke-linecap="round" stroke-opacity="1.0" stroke="rgb(0, 0, 0)" stroke-linejoin="round" d=" M 403.497, 754.304 403.497, 750.199 403.497, 746.830 403.497, 744.327 403.497, 742.785 " />
            <path fill="none" stroke-width="1.5" stroke-linecap="round" stroke-opacity="1.0" stroke="rgb(0, 0, 0)" stroke-linejoin="round" d=" M 403.497, 764.070 403.497, 758.988 403.497, 754.304 " />
            <path fill="none" stroke-width="1.5" stroke-linecap="round" stroke-opacity="1.0" stroke="rgb(0, 0, 0)" stroke-linejoin="round" d=" M 403.497, 742.785 403.497, 744.327 403.497, 746.830 403.497, 750.199 403.497, 754.304 403.497, 758.988 403.497, 764.070 " />
            <path fill="none" stroke-width="1.5" stroke-linecap="round" stroke-opacity="1.0" stroke="rgb(0, 0, 0)" stroke-linejoin="round" d=" M 376.407, 754.304 376.407, 750.199 " />
            <path fill="none" stroke-width="1.5" stroke-linecap="round" stroke-opacity="1.0" stroke="rgb(0, 0, 0)" stroke-linejoin="round" d=" M 452.702, 756.290 452.702, 746.290 452.702, 742.785 " />
            <path fill="none" stroke-width="1.5" stroke-linecap="round" stroke-opacity="1.0" stroke="rgb(0, 0, 0)" stroke-linejoin="round" d=" M 532.318, 756.290 532.318, 746.290 532.318, 742.785 " />
        </g>
    </g>
    <g id="ViewLayer_TechnicalLines.004" xmlns:inkscape="http://www.inkscape.org/namespaces/inkscape" inkscape:groupmode="lineset" inkscape:label="ViewLayer_TechnicalLines.004">
        <g xmlns:inkscape="http://www.inkscape.org/namespaces/inkscape" inkscape:groupmode="layer" id="strokes" inkscape:label="strokes">
            <path fill="none" stroke-width="1.5" stroke-linecap="round" stroke-opacity="1.0" stroke="rgb(0, 0, 0)" stroke-linejoin="round" d=" M 356.233, 512.000 366.233, 512.000 376.233, 512.000 386.233, 512.000 396.233, 512.000 406.233, 512.000 416.233, 512.000 426.233, 512.000 436.233, 512.000 446.233, 512.000 456.233, 512.000 466.233, 512.000 476.233, 512.000 486.233, 512.000 496.233, 512.000 506.233, 512.000 516.233, 512.000 526.233, 512.000 536.233, 512.000 546.233, 512.000 556.233, 512.000 566.233, 512.000 576.233, 512.000 586.233, 512.000 596.233, 512.000 606.233, 512.000 616.233, 512.000 626.233, 512.000 636.233, 512.000 646.233, 512.000 656.233, 512.000 666.233, 512.000 676.233, 512.000 681.312, 512.000 681.312, 512.000 681.312, 502.000 681.312, 492.000 681.312, 484.910 681.312, 484.910 671.312, 484.910 661.312, 484.910 651.312, 484.910 641.312, 484.910 631.312, 484.910 621.312, 484.910 611.312, 484.910 601.312, 484.910 591.312, 484.910 581.312, 484.910 571.312, 484.910 561.312, 484.910 551.312, 484.910 541.312, 484.910 531.312, 484.910 521.312, 484.910 511.312, 484.910 501.312, 484.910 491.312, 484.910 481.312, 484.910 471.312, 484.910 461.312, 484.910 451.312, 484.910 441.312, 484.910 431.312, 484.910 421.312, 484.910 411.312, 484.910 401.312, 484.910 391.312, 484.910 381.312, 484.910 369.778, 484.910 369.778, 484.910 359.778, 484.910 356.233, 484.910 356.233, 484.910 356.233, 494.910 356.233, 498.455 356.233, 498.455 356.233, 508.455 356.233, 512.000 356.233, 512.000 " />
            <path fill="none" stroke-width="1.5" stroke-linecap="round" stroke-opacity="1.0" stroke="rgb(0, 0, 0)" stroke-linejoin="round" d=" M 356.233, 512.000 366.233, 512.000 376.233, 512.000 386.233, 512.000 396.233, 512.000 406.233, 512.000 416.233, 512.000 426.233, 512.000 436.233, 512.000 446.233, 512.000 456.233, 512.000 466.233, 512.000 476.233, 512.000 486.233, 512.000 496.233, 512.000 506.233, 512.000 516.233, 512.000 526.233, 512.000 536.233, 512.000 546.233, 512.000 556.233, 512.000 566.233, 512.000 576.233, 512.000 586.233, 512.000 596.233, 512.000 606.233, 512.000 616.233, 512.000 626.233, 512.000 636.233, 512.000 646.233, 512.000 656.233, 512.000 666.233, 512.000 676.233, 512.000 681.312, 512.000 " />
            <path fill="none" stroke-width="1.5" stroke-linecap="round" stroke-opacity="1.0" stroke="rgb(0, 0, 0)" stroke-linejoin="round" d=" M 369.778, 484.910 369.778, 474.910 369.778, 464.910 369.778, 454.910 369.778, 444.910 369.778, 434.910 369.778, 424.910 369.778, 414.910 369.778, 404.910 369.778, 394.910 369.778, 384.910 369.778, 374.910 369.778, 364.910 369.778, 354.910 369.778, 344.910 369.778, 334.910 369.778, 324.910 369.778, 314.910 369.778, 304.910 369.778, 294.910 369.778, 284.910 369.778, 274.910 369.778, 264.910 369.778, 254.910 369.778, 244.910 369.778, 234.910 369.778, 227.556 369.778, 227.556 359.778, 227.556 349.778, 227.556 342.688, 227.556 342.688, 237.556 342.688, 247.556 342.688, 257.556 342.688, 267.556 342.688, 277.556 342.688, 287.556 342.688, 297.556 342.688, 307.556 342.688, 317.556 342.688, 327.556 342.688, 337.556 342.688, 347.556 342.688, 357.556 342.688, 367.556 342.688, 377.556 342.688, 387.556 342.688, 397.556 342.688, 407.556 342.688, 417.556 342.688, 427.556 342.688, 437.556 342.688, 447.556 342.688, 457.556 342.688, 467.556 342.688, 477.556 342.688, 487.556 342.688, 498.455 342.688, 498.455 352.688, 498.455 356.233, 498.455 " />
            <path fill="none" stroke-width="1.5" stroke-linecap="round" stroke-opacity="1.0" stroke="rgb(0, 0, 0)" stroke-linejoin="round" d=" M 369.778, 227.556 369.778, 237.556 369.778, 247.556 369.778, 257.556 369.778, 267.556 369.778, 277.556 369.778, 287.556 369.778, 297.556 369.778, 307.556 369.778, 317.556 369.778, 327.556 369.778, 337.556 369.778, 347.556 369.778, 357.556 369.778, 367.556 369.778, 377.556 369.778, 387.556 369.778, 397.556 369.778, 407.556 369.778, 417.556 369.778, 427.556 369.778, 437.556 369.778, 447.556 369.778, 457.556 369.778, 467.556 369.778, 477.556 369.778, 484.910 369.778, 494.910 369.778, 498.455 359.778, 498.455 356.233, 498.455 346.233, 498.455 342.688, 498.455 " />
            <path fill="none" stroke-width="1.5" stroke-linecap="round" stroke-opacity="1.0" stroke="rgb(0, 0, 0)" stroke-linejoin="round" d=" M 532.318, 769.355 533.823, 769.355 537.928, 769.355 541.297, 769.355 543.800, 769.355 545.342, 769.355 545.862, 769.355 545.862, 759.355 545.862, 749.355 545.862, 739.355 545.862, 729.355 545.862, 719.355 545.862, 709.355 545.862, 699.355 545.862, 689.355 545.862, 679.355 545.862, 669.355 545.862, 659.355 545.862, 649.355 545.862, 639.355 545.862, 633.905 545.342, 633.905 543.800, 633.905 541.297, 633.905 537.928, 633.905 533.823, 633.905 529.139, 633.905 524.057, 633.905 518.773, 633.905 513.488, 633.905 508.406, 633.905 503.722, 633.905 499.617, 633.905 496.248, 633.905 493.745, 633.905 492.203, 633.905 491.683, 633.905 491.683, 643.905 491.683, 653.905 491.683, 663.905 491.683, 673.905 491.683, 683.905 491.683, 693.905 491.683, 703.905 491.683, 713.905 491.683, 723.905 491.683, 733.905 491.683, 743.905 491.683, 753.905 491.683, 763.905 491.683, 769.355 492.203, 769.355 493.745, 769.355 496.248, 769.355 499.617, 769.355 503.722, 769.355 505.226, 769.355 505.227, 769.355 " />
            <path fill="none" stroke-width="1.5" stroke-linecap="round" stroke-opacity="1.0" stroke="rgb(0, 0, 0)" stroke-linejoin="round" d=" M 532.318, 742.785 532.318, 742.265 522.318, 742.265 512.318, 742.265 505.228, 742.265 505.228, 744.327 505.228, 746.830 505.228, 750.199 505.228, 754.304 505.228, 758.988 505.228, 768.988 505.228, 769.355 " />
            <path fill="none" stroke-width="1.5" stroke-linecap="round" stroke-opacity="1.0" stroke="rgb(0, 0, 0)" stroke-linejoin="round" d=" M 505.228, 742.265 505.228, 742.785 505.228, 744.327 " />
            <path fill="none" stroke-width="1.5" stroke-linecap="round" stroke-opacity="1.0" stroke="rgb(0, 0, 0)" stroke-linejoin="round" d=" M 532.318, 754.304 532.318, 750.199 532.318, 746.830 532.318, 744.327 532.318, 742.785 " />
            <path fill="none" stroke-width="1.5" stroke-linecap="round" stroke-opacity="1.0" stroke="rgb(0, 0, 0)" stroke-linejoin="round" d=" M 532.318, 769.355 532.318, 764.070 532.318, 758.988 532.318, 754.304 " />
            <path fill="none" stroke-width="1.5" stroke-linecap="round" stroke-opacity="1.0" stroke="rgb(0, 0, 0)" stroke-linejoin="round" d=" M 505.228, 758.988 505.228, 764.070 505.228, 769.355 " />
            <path fill="none" stroke-width="1.5" stroke-linecap="round" stroke-opacity="1.0" stroke="rgb(0, 0, 0)" stroke-linejoin="round" d=" M 505.228, 779.721 505.228, 788.510 505.228, 791.879 505.228, 794.382 505.228, 795.924 505.228, 796.445 515.228, 796.445 525.228, 796.445 532.318, 796.445 532.318, 795.924 532.318, 794.382 532.318, 791.879 532.318, 788.510 532.318, 784.405 532.318, 779.721 532.318, 774.640 532.318, 769.355 " />
            <path fill="none" stroke-width="1.5" stroke-linecap="round" stroke-opacity="1.0" stroke="rgb(0, 0, 0)" stroke-linejoin="round" d=" M 505.228, 769.355 505.228, 774.640 505.228, 779.721 505.228, 769.721 505.228, 769.355 " />
            <path fill="none" stroke-width="1.5" stroke-linecap="round" stroke-opacity="1.0" stroke="rgb(0, 0, 0)" stroke-linejoin="round" d=" M 505.228, 779.721 505.228, 784.405 505.228, 788.510 " />
            <path fill="none" stroke-width="1.5" stroke-linecap="round" stroke-opacity="1.0" stroke="rgb(0, 0, 0)" stroke-linejoin="round" d=" M 532.318, 769.355 532.318, 774.640 532.318, 779.721 532.318, 784.405 532.318, 788.510 532.318, 791.879 532.318, 794.382 " />
            <path fill="none" stroke-width="1.5" stroke-linecap="round" stroke-opacity="1.0" stroke="rgb(0, 0, 0)" stroke-linejoin="round" d=" M 532.318, 754.304 532.318, 756.290 532.318, 758.988 532.318, 764.070 532.318, 769.355 " />
            <path fill="none" stroke-width="1.5" stroke-linecap="round" stroke-opacity="1.0" stroke="rgb(0, 0, 0)" stroke-linejoin="round" d=" M 532.318, 742.785 532.318, 744.327 532.318, 746.830 532.318, 750.199 532.318, 754.304 " />
            <path fill="none" stroke-width="1.5" stroke-linecap="round" stroke-opacity="1.0" stroke="rgb(0, 0, 0)" stroke-linejoin="round" d=" M 634.048, 795.924 634.048, 796.445 644.048, 796.445 654.048, 796.445 661.138, 796.445 661.138, 795.924 661.138, 794.382 661.138, 791.879 661.138, 788.510 661.138, 784.405 661.138, 779.721 661.138, 774.640 661.138, 769.355 661.138, 764.070 661.138, 758.988 661.138, 754.304 661.138, 750.199 661.138, 746.830 661.138, 744.327 661.138, 742.785 661.138, 742.265 651.138, 742.265 641.138, 742.265 634.048, 742.265 634.048, 742.785 634.048, 744.327 634.048, 746.830 634.048, 750.199 634.048, 754.304 634.048, 758.988 634.048, 764.070 634.048, 769.355 634.048, 774.640 634.048, 779.721 634.048, 784.405 634.048, 788.510 634.048, 791.879 634.048, 794.382 634.048, 795.924 " />
            <path fill="none" stroke-width="1.5" stroke-linecap="round" stroke-opacity="1.0" stroke="rgb(0, 0, 0)" stroke-linejoin="round" d=" M 611.933, 742.785 611.933, 742.265 601.933, 742.265 591.933, 742.265 584.843, 742.265 584.843, 742.785 584.843, 744.327 584.843, 746.830 584.843, 750.199 584.843, 754.304 584.843, 758.988 " />
            <path fill="none" stroke-width="1.5" stroke-linecap="round" stroke-opacity="1.0" stroke="rgb(0, 0, 0)" stroke-linejoin="round" d=" M 611.933, 754.304 611.933, 750.199 611.933, 746.830 611.933, 744.327 611.933, 742.785 " />
            <path fill="none" stroke-width="1.5" stroke-linecap="round" stroke-opacity="1.0" stroke="rgb(0, 0, 0)" stroke-linejoin="round" d=" M 584.843, 795.924 584.843, 796.445 594.843, 796.445 604.843, 796.445 611.933, 796.445 611.933, 795.924 611.933, 794.382 611.933, 791.879 611.933, 788.510 611.933, 784.405 611.933, 779.721 611.933, 774.640 611.933, 769.355 611.933, 764.070 611.933, 758.988 611.933, 754.304 " />
            <path fill="none" stroke-width="1.5" stroke-linecap="round" stroke-opacity="1.0" stroke="rgb(0, 0, 0)" stroke-linejoin="round" d=" M 584.843, 758.988 584.843, 764.070 584.843, 769.355 584.843, 774.640 " />
            <path fill="none" stroke-width="1.5" stroke-linecap="round" stroke-opacity="1.0" stroke="rgb(0, 0, 0)" stroke-linejoin="round" d=" M 584.843, 774.640 584.843, 779.721 584.843, 784.405 584.843, 788.510 584.843, 791.879 584.843, 794.382 584.843, 795.924 " />
            <path fill="none" stroke-width="1.5" stroke-linecap="round" stroke-opacity="1.0" stroke="rgb(0, 0, 0)" stroke-linejoin="round" d=" M 611.933, 742.785 611.933, 744.327 611.933, 746.830 611.933, 750.199 611.933, 754.304 611.933, 758.988 611.933, 764.070 " />
            <path fill="none" stroke-width="1.5" stroke-linecap="round" stroke-opacity="1.0" stroke="rgb(0, 0, 0)" stroke-linejoin="round" d=" M 584.843, 746.830 584.843, 744.327 " />
            <path fill="none" stroke-width="1.5" stroke-linecap="round" stroke-opacity="1.0" stroke="rgb(0, 0, 0)" stroke-linejoin="round" d=" M 452.702, 754.304 452.702, 750.199 452.702, 746.830 452.702, 744.327 452.702, 742.785 452.702, 742.265 442.702, 742.265 432.702, 742.265 425.612, 742.265 425.612, 742.785 425.612, 744.327 425.612, 746.830 425.612, 750.199 425.612, 754.304 425.612, 758.988 " />
            <path fill="none" stroke-width="1.5" stroke-linecap="round" stroke-opacity="1.0" stroke="rgb(0, 0, 0)" stroke-linejoin="round" d=" M 425.612, 758.988 425.612, 764.070 425.612, 769.355 425.612, 774.640 425.612, 779.721 425.612, 784.405 425.612, 788.510 425.612, 791.879 425.612, 794.382 425.612, 795.924 425.612, 796.445 435.612, 796.445 445.612, 796.445 452.702, 796.445 452.702, 795.924 452.702, 794.382 452.702, 791.879 452.702, 788.510 452.702, 784.405 452.702, 779.721 452.702, 774.640 452.702, 769.355 452.702, 764.070 452.702, 758.988 452.702, 754.304 " />
            <path fill="none" stroke-width="1.5" stroke-linecap="round" stroke-opacity="1.0" stroke="rgb(0, 0, 0)" stroke-linejoin="round" d=" M 452.702, 754.304 452.702, 756.290 452.702, 758.988 452.702, 764.070 452.702, 769.355 452.702, 774.640 452.702, 779.721 452.702, 784.405 452.702, 788.510 452.702, 791.879 452.702, 794.382 " />
            <path fill="none" stroke-width="1.5" stroke-linecap="round" stroke-opacity="1.0" stroke="rgb(0, 0, 0)" stroke-linejoin="round" d=" M 425.612, 769.355 425.612, 774.640 " />
            <path fill="none" stroke-width="1.5" stroke-linecap="round" stroke-opacity="1.0" stroke="rgb(0, 0, 0)" stroke-linejoin="round" d=" M 425.612, 769.355 425.612, 764.070 " />
            <path fill="none" stroke-width="1.5" stroke-linecap="round" stroke-opacity="1.0" stroke="rgb(0, 0, 0)" stroke-linejoin="round" d=" M 403.497, 742.785 403.497, 742.265 393.497, 742.265 383.497, 742.265 376.407, 742.265 376.407, 742.785 376.407, 744.327 376.407, 746.830 376.407, 750.199 376.407, 754.304 376.407, 758.988 376.407, 764.070 376.407, 769.355 376.407, 774.640 376.407, 779.721 376.407, 784.405 376.407, 788.510 376.407, 791.879 376.407, 794.382 376.407, 795.924 376.407, 796.445 386.407, 796.445 396.407, 796.445 403.497, 796.445 403.497, 795.924 403.497, 794.382 403.497, 791.879 403.497, 788.510 403.497, 784.405 403.497, 779.721 403.497, 774.640 403.497, 769.355 403.497, 764.070 " />
            <path fill="none" stroke-width="1.5" stroke-linecap="round" stroke-opacity="1.0" stroke="rgb(0, 0, 0)" stroke-linejoin="round" d=" M 403.497, 754.304 403.497, 750.199 403.497, 746.830 403.497, 744.327 403.497, 742.785 " />
            <path fill="none" stroke-width="1.5" stroke-linecap="round" stroke-opacity="1.0" stroke="rgb(0, 0, 0)" stroke-linejoin="round" d=" M 403.497, 764.070 403.497, 758.988 403.497, 754.304 " />
            <path fill="none" stroke-width="1.5" stroke-linecap="round" stroke-opacity="1.0" stroke="rgb(0, 0, 0)" stroke-linejoin="round" d=" M 403.497, 742.785 403.497, 744.327 403.497, 746.830 403.497, 750.199 403.497, 754.304 403.497, 758.988 403.497, 764.070 " />
            <path fill="none" stroke-width="1.5" stroke-linecap="round" stroke-opacity="1.0" stroke="rgb(0, 0, 0)" stroke-linejoin="round" d=" M 376.407, 754.304 376.407, 750.199 " />
            <path fill="none" stroke-width="1.5" stroke-linecap="round" stroke-opacity="1.0" stroke="rgb(0, 0, 0)" stroke-linejoin="round" d=" M 452.702, 756.290 452.702, 746.290 452.702, 742.785 " />
            <path fill="none" stroke-width="1.5" stroke-linecap="round" stroke-opacity="1.0" stroke="rgb(0, 0, 0)" stroke-linejoin="round" d=" M 532.318, 756.290 532.318, 746.290 532.318, 742.785 " />
        </g>
    </g>
</svg>
