<?xml version='1.0' encoding='ascii'?>
<svg xmlns="http://www.w3.org/2000/svg" xmlns:inkscape="http://www.inkscape.org/namespaces/inkscape" version="1.1" width="1024" height="1024">
    <g id="ViewLayer_LineSet" inkscape:groupmode="lineset" inkscape:label="ViewLayer_LineSet">
        <g inkscape:groupmode="layer" id="strokes" inkscape:label="strokes">
            <path fill="none" stroke-width="3.0" stroke-linecap="butt" stroke-opacity="1.0" stroke="rgb(0, 0, 0)" stroke-linejoin="round" d=" M 349.460, 512.000 349.460, 512.000 359.460, 512.000 369.460, 512.000 379.460, 512.000 389.460, 512.000 399.460, 512.000 409.460, 512.000 419.460, 512.000 429.460, 512.000 439.460, 512.000 449.460, 512.000 459.460, 512.000 469.460, 512.000 479.460, 512.000 489.460, 512.000 499.460, 512.000 509.460, 512.000 519.460, 512.000 529.460, 512.000 539.460, 512.000 549.460, 512.000 559.460, 512.000 569.460, 512.000 579.460, 512.000 589.460, 512.000 599.460, 512.000 609.460, 512.000 619.460, 512.000 629.460, 512.000 639.460, 512.000 649.460, 512.000 659.460, 512.000 669.460, 512.000 674.540, 512.000 674.540, 512.000 " />
            <path fill="none" stroke-width="3.0" stroke-linecap="butt" stroke-opacity="1.0" stroke="rgb(0, 0, 0)" stroke-linejoin="round" d=" M 349.460, 512.000 359.460, 512.000 369.460, 512.000 379.460, 512.000 389.460, 512.000 399.460, 512.000 409.460, 512.000 419.460, 512.000 429.460, 512.000 439.460, 512.000 449.460, 512.000 459.460, 512.000 469.460, 512.000 479.460, 512.000 489.460, 512.000 499.460, 512.000 509.460, 512.000 519.460, 512.000 529.460, 512.000 539.460, 512.000 549.460, 512.000 559.460, 512.000 569.460, 512.000 579.460, 512.000 589.460, 512.000 599.460, 512.000 609.460, 512.000 619.460, 512.000 629.460, 512.000 639.460, 512.000 649.460, 512.000 659.460, 512.000 669.460, 512.000 674.540, 512.000 " />
            <path fill="none" stroke-width="3.0" stroke-linecap="butt" stroke-opacity="1.0" stroke="rgb(0, 0, 0)" stroke-linejoin="round" d=" M 674.540, 227.556 664.540, 227.556 654.540, 227.556 644.540, 227.556 634.540, 227.556 624.540, 227.556 614.540, 227.556 604.540, 227.556 594.540, 227.556 584.540, 227.556 574.540, 227.556 564.540, 227.556 554.540, 227.556 544.540, 227.556 534.540, 227.556 524.540, 227.556 514.540, 227.556 504.540, 227.556 494.540, 227.556 484.540, 227.556 474.540, 227.556 464.540, 227.556 454.540, 227.556 444.540, 227.556 434.540, 227.556 424.540, 227.556 414.540, 227.556 404.540, 227.556 394.540, 227.556 384.540, 227.556 374.540, 227.556 364.540, 227.556 354.540, 227.556 349.460, 227.556 349.460, 237.556 349.460, 247.556 349.460, 257.556 349.460, 267.556 349.460, 277.556 349.460, 287.556 349.460, 297.556 349.460, 307.556 349.460, 317.556 349.460, 327.556 349.460, 337.556 349.460, 347.556 349.460, 357.556 349.460, 367.556 349.460, 377.556 349.460, 387.556 349.460, 397.556 349.460, 407.556 349.460, 417.556 349.460, 427.556 349.460, 437.556 349.460, 447.556 349.460, 457.556 349.460, 467.556 349.460, 477.556 349.460, 487.556 349.460, 498.455 359.460, 498.455 369.460, 498.455 379.460, 498.455 389.460, 498.455 399.460, 498.455 409.460, 498.455 419.460, 498.455 429.460, 498.455 439.460, 498.455 449.460, 498.455 459.460, 498.455 469.460, 498.455 479.460, 498.455 489.460, 498.455 499.460, 498.455 509.460, 498.455 519.460, 498.455 529.460, 498.455 539.460, 498.455 549.460, 498.455 559.460, 498.455 569.460, 498.455 579.460, 498.455 589.460, 498.455 599.460, 498.455 609.460, 498.455 619.460, 498.455 629.460, 498.455 639.460, 498.455 649.460, 498.455 659.460, 498.455 669.460, 498.455 674.540, 498.455 674.540, 488.455 674.540, 484.910 674.540, 484.910 674.540, 474.910 674.540, 464.910 674.540, 454.910 674.540, 444.910 674.540, 434.910 674.540, 424.910 674.540, 414.910 674.540, 404.910 674.540, 394.910 674.540, 384.910 674.540, 374.910 674.540, 364.910 674.540, 354.910 674.540, 344.910 674.540, 334.910 674.540, 324.910 674.540, 314.910 674.540, 304.910 674.540, 294.910 674.540, 284.910 674.540, 274.910 674.540, 264.910 674.540, 254.910 674.540, 244.910 674.540, 234.910 674.540, 227.556 " />
            <path fill="none" stroke-width="3.0" stroke-linecap="butt" stroke-opacity="1.0" stroke="rgb(0, 0, 0)" stroke-linejoin="round" d=" M 539.090, 746.678 539.090, 736.678 539.090, 726.678 539.090, 716.678 539.090, 706.678 539.090, 696.678 539.090, 686.678 539.090, 676.678 539.090, 666.678 539.090, 656.678 539.090, 646.678 539.090, 636.678 539.090, 633.905 538.569, 633.905 537.028, 633.905 534.524, 633.905 531.155, 633.905 527.050, 633.905 522.367, 633.905 517.285, 633.905 512.000, 633.905 506.715, 633.905 501.633, 633.905 496.950, 633.905 492.845, 633.905 489.476, 633.905 486.972, 633.905 485.431, 633.905 484.910, 633.905 484.910, 643.905 484.910, 653.905 484.910, 663.905 484.910, 673.905 484.910, 683.905 484.910, 693.905 484.910, 703.905 484.910, 713.905 484.910, 723.905 484.910, 733.905 484.910, 743.905 484.910, 753.905 484.910, 763.905 484.910, 769.355 485.431, 769.355 486.972, 769.355 489.476, 769.355 492.845, 769.355 496.950, 769.355 501.633, 769.355 506.715, 769.355 512.000, 769.355 517.285, 769.355 522.367, 769.355 526.766, 769.355 " />
            <path fill="none" stroke-width="3.0" stroke-linecap="butt" stroke-opacity="1.0" stroke="rgb(0, 0, 0)" stroke-linejoin="round" d=" M 669.974, 754.304 666.605, 750.199 662.500, 746.830 657.817, 744.327 652.735, 742.785 647.450, 742.265 " />
            <path fill="none" stroke-width="3.0" stroke-linecap="butt" stroke-opacity="1.0" stroke="rgb(0, 0, 0)" stroke-linejoin="round" d=" M 662.500, 791.879 666.605, 788.510 669.974, 784.405 672.478, 779.721 674.019, 774.640 674.540, 769.355 674.019, 764.070 672.478, 758.988 " />
            <path fill="none" stroke-width="3.0" stroke-linecap="butt" stroke-opacity="1.0" stroke="rgb(0, 0, 0)" stroke-linejoin="round" d=" M 647.450, 796.445 652.735, 795.924 657.817, 794.382 662.500, 791.879 " />
            <path fill="none" stroke-width="3.0" stroke-linecap="butt" stroke-opacity="1.0" stroke="rgb(0, 0, 0)" stroke-linejoin="round" d=" M 642.165, 795.924 647.450, 796.445 " />
            <path fill="none" stroke-width="3.0" stroke-linecap="butt" stroke-opacity="1.0" stroke="rgb(0, 0, 0)" stroke-linejoin="round" d=" M 637.083, 794.382 642.165, 795.924 " />
            <path fill="none" stroke-width="3.0" stroke-linecap="butt" stroke-opacity="1.0" stroke="rgb(0, 0, 0)" stroke-linejoin="round" d=" M 622.422, 779.721 624.925, 784.405 628.294, 788.510 632.399, 791.879 637.083, 794.382 " />
            <path fill="none" stroke-width="3.0" stroke-linecap="butt" stroke-opacity="1.0" stroke="rgb(0, 0, 0)" stroke-linejoin="round" d=" M 620.880, 774.640 622.422, 779.721 " />
            <path fill="none" stroke-width="3.0" stroke-linecap="butt" stroke-opacity="1.0" stroke="rgb(0, 0, 0)" stroke-linejoin="round" d=" M 637.083, 744.327 632.399, 746.830 628.294, 750.199 624.925, 754.304 622.422, 758.988 620.880, 764.070 " />
            <path fill="none" stroke-width="3.0" stroke-linecap="butt" stroke-opacity="1.0" stroke="rgb(0, 0, 0)" stroke-linejoin="round" d=" M 424.943, 754.304 421.574, 750.199 417.469, 746.830 412.786, 744.327 407.704, 742.785 " />
            <path fill="none" stroke-width="3.0" stroke-linecap="butt" stroke-opacity="1.0" stroke="rgb(0, 0, 0)" stroke-linejoin="round" d=" M 424.943, 784.405 427.447, 779.721 428.988, 774.640 429.509, 769.355 428.988, 764.070 " />
            <path fill="none" stroke-width="3.0" stroke-linecap="butt" stroke-opacity="1.0" stroke="rgb(0, 0, 0)" stroke-linejoin="round" d=" M 421.574, 788.510 424.943, 784.405 " />
            <path fill="none" stroke-width="3.0" stroke-linecap="butt" stroke-opacity="1.0" stroke="rgb(0, 0, 0)" stroke-linejoin="round" d=" M 417.469, 791.879 421.574, 788.510 " />
            <path fill="none" stroke-width="3.0" stroke-linecap="butt" stroke-opacity="1.0" stroke="rgb(0, 0, 0)" stroke-linejoin="round" d=" M 397.134, 795.924 402.419, 796.445 407.704, 795.924 412.786, 794.382 417.469, 791.879 " />
            <path fill="none" stroke-width="3.0" stroke-linecap="butt" stroke-opacity="1.0" stroke="rgb(0, 0, 0)" stroke-linejoin="round" d=" M 392.052, 794.382 397.134, 795.924 " />
            <path fill="none" stroke-width="3.0" stroke-linecap="butt" stroke-opacity="1.0" stroke="rgb(0, 0, 0)" stroke-linejoin="round" d=" M 379.894, 784.405 383.263, 788.510 387.368, 791.879 392.052, 794.382 " />
            <path fill="none" stroke-width="3.0" stroke-linecap="butt" stroke-opacity="1.0" stroke="rgb(0, 0, 0)" stroke-linejoin="round" d=" M 377.391, 779.721 379.894, 784.405 " />
            <path fill="none" stroke-width="3.0" stroke-linecap="butt" stroke-opacity="1.0" stroke="rgb(0, 0, 0)" stroke-linejoin="round" d=" M 375.849, 774.640 377.391, 779.721 " />
            <path fill="none" stroke-width="3.0" stroke-linecap="butt" stroke-opacity="1.0" stroke="rgb(0, 0, 0)" stroke-linejoin="round" d=" M 377.391, 758.988 375.849, 764.070 375.329, 769.355 375.849, 774.640 " />
            <path fill="none" stroke-width="3.0" stroke-linecap="butt" stroke-opacity="1.0" stroke="rgb(0, 0, 0)" stroke-linejoin="round" d=" M 407.704, 742.785 402.419, 742.265 397.134, 742.785 392.052, 744.327 387.368, 746.830 " />
            <path fill="none" stroke-width="3.0" stroke-linecap="butt" stroke-opacity="1.0" stroke="rgb(0, 0, 0)" stroke-linejoin="round" d=" M 580.426, 774.640 580.946, 769.355 580.426, 764.070 578.884, 758.988 576.381, 754.304 573.012, 750.199 568.907, 746.830 " />
            <path fill="none" stroke-width="3.0" stroke-linecap="butt" stroke-opacity="1.0" stroke="rgb(0, 0, 0)" stroke-linejoin="round" d=" M 573.012, 788.510 576.381, 784.405 578.884, 779.721 580.426, 774.640 " />
            <path fill="none" stroke-width="3.0" stroke-linecap="butt" stroke-opacity="1.0" stroke="rgb(0, 0, 0)" stroke-linejoin="round" d=" M 568.907, 791.879 573.012, 788.510 " />
            <path fill="none" stroke-width="3.0" stroke-linecap="butt" stroke-opacity="1.0" stroke="rgb(0, 0, 0)" stroke-linejoin="round" d=" M 548.571, 795.924 553.856, 796.445 559.141, 795.924 564.223, 794.382 568.907, 791.879 " />
            <path fill="none" stroke-width="3.0" stroke-linecap="butt" stroke-opacity="1.0" stroke="rgb(0, 0, 0)" stroke-linejoin="round" d=" M 543.489, 794.382 548.571, 795.924 " />
            <path fill="none" stroke-width="3.0" stroke-linecap="butt" stroke-opacity="1.0" stroke="rgb(0, 0, 0)" stroke-linejoin="round" d=" M 526.766, 769.355 527.287, 774.640 528.828, 779.721 531.332, 784.405 534.701, 788.510 538.806, 791.879 543.489, 794.382 " />
            <path fill="none" stroke-width="3.0" stroke-linecap="butt" stroke-opacity="1.0" stroke="rgb(0, 0, 0)" stroke-linejoin="round" d=" M 559.141, 742.785 553.856, 742.265 548.571, 742.785 543.489, 744.327 539.090, 746.678 538.806, 746.830 534.701, 750.199 531.332, 754.304 528.828, 758.988 527.287, 764.070 526.766, 769.355 " />
            <path fill="none" stroke-width="3.0" stroke-linecap="butt" stroke-opacity="1.0" stroke="rgb(0, 0, 0)" stroke-linejoin="round" d=" M 379.894, 754.304 377.391, 758.988 " />
            <path fill="none" stroke-width="3.0" stroke-linecap="butt" stroke-opacity="1.0" stroke="rgb(0, 0, 0)" stroke-linejoin="round" d=" M 383.263, 750.199 379.894, 754.304 " />
            <path fill="none" stroke-width="3.0" stroke-linecap="butt" stroke-opacity="1.0" stroke="rgb(0, 0, 0)" stroke-linejoin="round" d=" M 387.368, 746.830 383.263, 750.199 " />
            <path fill="none" stroke-width="3.0" stroke-linecap="butt" stroke-opacity="1.0" stroke="rgb(0, 0, 0)" stroke-linejoin="round" d=" M 427.447, 758.988 424.943, 754.304 " />
            <path fill="none" stroke-width="3.0" stroke-linecap="butt" stroke-opacity="1.0" stroke="rgb(0, 0, 0)" stroke-linejoin="round" d=" M 428.988, 764.070 427.447, 758.988 " />
            <path fill="none" stroke-width="3.0" stroke-linecap="butt" stroke-opacity="1.0" stroke="rgb(0, 0, 0)" stroke-linejoin="round" d=" M 564.223, 744.327 559.141, 742.785 " />
            <path fill="none" stroke-width="3.0" stroke-linecap="butt" stroke-opacity="1.0" stroke="rgb(0, 0, 0)" stroke-linejoin="round" d=" M 568.907, 746.830 564.223, 744.327 " />
            <path fill="none" stroke-width="3.0" stroke-linecap="butt" stroke-opacity="1.0" stroke="rgb(0, 0, 0)" stroke-linejoin="round" d=" M 620.360, 769.355 620.880, 774.640 " />
            <path fill="none" stroke-width="3.0" stroke-linecap="butt" stroke-opacity="1.0" stroke="rgb(0, 0, 0)" stroke-linejoin="round" d=" M 620.880, 764.070 620.360, 769.355 " />
            <path fill="none" stroke-width="3.0" stroke-linecap="butt" stroke-opacity="1.0" stroke="rgb(0, 0, 0)" stroke-linejoin="round" d=" M 642.165, 742.785 637.083, 744.327 " />
            <path fill="none" stroke-width="3.0" stroke-linecap="butt" stroke-opacity="1.0" stroke="rgb(0, 0, 0)" stroke-linejoin="round" d=" M 647.450, 742.265 642.165, 742.785 " />
            <path fill="none" stroke-width="3.0" stroke-linecap="butt" stroke-opacity="1.0" stroke="rgb(0, 0, 0)" stroke-linejoin="round" d=" M 672.478, 758.988 669.974, 754.304 " />
        </g>
    </g>
    <g id="ViewLayer_TechnicalLines" inkscape:groupmode="lineset" inkscape:label="ViewLayer_TechnicalLines">
        <g inkscape:groupmode="layer" id="strokes" inkscape:label="strokes">
            <path fill="none" stroke-width="3.0" stroke-linecap="butt" stroke-opacity="1.0" stroke="rgb(0, 0, 0)" stroke-linejoin="round" d=" M 349.460, 512.000 349.460, 512.000 359.460, 512.000 369.460, 512.000 379.460, 512.000 389.460, 512.000 399.460, 512.000 409.460, 512.000 419.460, 512.000 429.460, 512.000 439.460, 512.000 449.460, 512.000 459.460, 512.000 469.460, 512.000 479.460, 512.000 489.460, 512.000 499.460, 512.000 509.460, 512.000 519.460, 512.000 529.460, 512.000 539.460, 512.000 549.460, 512.000 559.460, 512.000 569.460, 512.000 579.460, 512.000 589.460, 512.000 599.460, 512.000 609.460, 512.000 619.460, 512.000 629.460, 512.000 639.460, 512.000 649.460, 512.000 659.460, 512.000 669.460, 512.000 674.540, 512.000 674.540, 512.000 " />
            <path fill="none" stroke-width="3.0" stroke-linecap="butt" stroke-opacity="1.0" stroke="rgb(0, 0, 0)" stroke-linejoin="round" d=" M 349.460, 512.000 359.460, 512.000 369.460, 512.000 379.460, 512.000 389.460, 512.000 399.460, 512.000 409.460, 512.000 419.460, 512.000 429.460, 512.000 439.460, 512.000 449.460, 512.000 459.460, 512.000 469.460, 512.000 479.460, 512.000 489.460, 512.000 499.460, 512.000 509.460, 512.000 519.460, 512.000 529.460, 512.000 539.460, 512.000 549.460, 512.000 559.460, 512.000 569.460, 512.000 579.460, 512.000 589.460, 512.000 599.460, 512.000 609.460, 512.000 619.460, 512.000 629.460, 512.000 639.460, 512.000 649.460, 512.000 659.460, 512.000 669.460, 512.000 674.540, 512.000 " />
            <path fill="none" stroke-width="3.0" stroke-linecap="butt" stroke-opacity="1.0" stroke="rgb(0, 0, 0)" stroke-linejoin="round" d=" M 674.540, 227.556 664.540, 227.556 654.540, 227.556 644.540, 227.556 634.540, 227.556 624.540, 227.556 614.540, 227.556 604.540, 227.556 594.540, 227.556 584.540, 227.556 574.540, 227.556 564.540, 227.556 554.540, 227.556 544.540, 227.556 534.540, 227.556 524.540, 227.556 514.540, 227.556 504.540, 227.556 494.540, 227.556 484.540, 227.556 474.540, 227.556 464.540, 227.556 454.540, 227.556 444.540, 227.556 434.540, 227.556 424.540, 227.556 414.540, 227.556 404.540, 227.556 394.540, 227.556 384.540, 227.556 374.540, 227.556 364.540, 227.556 354.540, 227.556 349.460, 227.556 349.460, 237.556 349.460, 247.556 349.460, 257.556 349.460, 267.556 349.460, 277.556 349.460, 287.556 349.460, 297.556 349.460, 307.556 349.460, 317.556 349.460, 327.556 349.460, 337.556 349.460, 347.556 349.460, 357.556 349.460, 367.556 349.460, 377.556 349.460, 387.556 349.460, 397.556 349.460, 407.556 349.460, 417.556 349.460, 427.556 349.460, 437.556 349.460, 447.556 349.460, 457.556 349.460, 467.556 349.460, 477.556 349.460, 487.556 349.460, 498.455 359.460, 498.455 369.460, 498.455 379.460, 498.455 389.460, 498.455 399.460, 498.455 409.460, 498.455 419.460, 498.455 429.460, 498.455 439.460, 498.455 449.460, 498.455 459.460, 498.455 469.460, 498.455 479.460, 498.455 489.460, 498.455 499.460, 498.455 509.460, 498.455 519.460, 498.455 529.460, 498.455 539.460, 498.455 549.460, 498.455 559.460, 498.455 569.460, 498.455 579.460, 498.455 589.460, 498.455 599.460, 498.455 609.460, 498.455 619.460, 498.455 629.460, 498.455 639.460, 498.455 649.460, 498.455 659.460, 498.455 669.460, 498.455 674.540, 498.455 674.540, 488.455 674.540, 484.910 674.540, 484.910 674.540, 474.910 674.540, 464.910 674.540, 454.910 674.540, 444.910 674.540, 434.910 674.540, 424.910 674.540, 414.910 674.540, 404.910 674.540, 394.910 674.540, 384.910 674.540, 374.910 674.540, 364.910 674.540, 354.910 674.540, 344.910 674.540, 334.910 674.540, 324.910 674.540, 314.910 674.540, 304.910 674.540, 294.910 674.540, 284.910 674.540, 274.910 674.540, 264.910 674.540, 254.910 674.540, 244.910 674.540, 234.910 674.540, 227.556 " />
            <path fill="none" stroke-width="3.0" stroke-linecap="butt" stroke-opacity="1.0" stroke="rgb(0, 0, 0)" stroke-linejoin="round" d=" M 539.090, 746.678 539.090, 736.678 539.090, 726.678 539.090, 716.678 539.090, 706.678 539.090, 696.678 539.090, 686.678 539.090, 676.678 539.090, 666.678 539.090, 656.678 539.090, 646.678 539.090, 636.678 539.090, 633.905 538.569, 633.905 537.028, 633.905 534.524, 633.905 531.155, 633.905 527.050, 633.905 522.367, 633.905 517.285, 633.905 512.000, 633.905 506.715, 633.905 501.633, 633.905 496.950, 633.905 492.845, 633.905 489.476, 633.905 486.972, 633.905 485.431, 633.905 484.910, 633.905 484.910, 643.905 484.910, 653.905 484.910, 663.905 484.910, 673.905 484.910, 683.905 484.910, 693.905 484.910, 703.905 484.910, 713.905 484.910, 723.905 484.910, 733.905 484.910, 743.905 484.910, 753.905 484.910, 763.905 484.910, 769.355 485.431, 769.355 486.972, 769.355 489.476, 769.355 492.845, 769.355 496.950, 769.355 501.633, 769.355 506.715, 769.355 512.000, 769.355 517.285, 769.355 522.367, 769.355 526.766, 769.355 " />
            <path fill="none" stroke-width="3.0" stroke-linecap="butt" stroke-opacity="1.0" stroke="rgb(0, 0, 0)" stroke-linejoin="round" d=" M 669.974, 754.304 666.605, 750.199 662.500, 746.830 657.817, 744.327 652.735, 742.785 647.450, 742.265 " />
            <path fill="none" stroke-width="3.0" stroke-linecap="butt" stroke-opacity="1.0" stroke="rgb(0, 0, 0)" stroke-linejoin="round" d=" M 662.500, 791.879 666.605, 788.510 669.974, 784.405 672.478, 779.721 674.019, 774.640 674.540, 769.355 674.019, 764.070 672.478, 758.988 " />
            <path fill="none" stroke-width="3.0" stroke-linecap="butt" stroke-opacity="1.0" stroke="rgb(0, 0, 0)" stroke-linejoin="round" d=" M 647.450, 796.445 652.735, 795.924 657.817, 794.382 662.500, 791.879 " />
            <path fill="none" stroke-width="3.0" stroke-linecap="butt" stroke-opacity="1.0" stroke="rgb(0, 0, 0)" stroke-linejoin="round" d=" M 642.165, 795.924 647.450, 796.445 " />
            <path fill="none" stroke-width="3.0" stroke-linecap="butt" stroke-opacity="1.0" stroke="rgb(0, 0, 0)" stroke-linejoin="round" d=" M 637.083, 794.382 642.165, 795.924 " />
            <path fill="none" stroke-width="3.0" stroke-linecap="butt" stroke-opacity="1.0" stroke="rgb(0, 0, 0)" stroke-linejoin="round" d=" M 622.422, 779.721 624.925, 784.405 628.294, 788.510 632.399, 791.879 637.083, 794.382 " />
            <path fill="none" stroke-width="3.0" stroke-linecap="butt" stroke-opacity="1.0" stroke="rgb(0, 0, 0)" stroke-linejoin="round" d=" M 620.880, 774.640 622.422, 779.721 " />
            <path fill="none" stroke-width="3.0" stroke-linecap="butt" stroke-opacity="1.0" stroke="rgb(0, 0, 0)" stroke-linejoin="round" d=" M 637.083, 744.327 632.399, 746.830 628.294, 750.199 624.925, 754.304 622.422, 758.988 620.880, 764.070 " />
            <path fill="none" stroke-width="3.0" stroke-linecap="butt" stroke-opacity="1.0" stroke="rgb(0, 0, 0)" stroke-linejoin="round" d=" M 424.943, 754.304 421.574, 750.199 417.469, 746.830 412.786, 744.327 407.704, 742.785 " />
            <path fill="none" stroke-width="3.0" stroke-linecap="butt" stroke-opacity="1.0" stroke="rgb(0, 0, 0)" stroke-linejoin="round" d=" M 424.943, 784.405 427.447, 779.721 428.988, 774.640 429.509, 769.355 428.988, 764.070 " />
            <path fill="none" stroke-width="3.0" stroke-linecap="butt" stroke-opacity="1.0" stroke="rgb(0, 0, 0)" stroke-linejoin="round" d=" M 421.574, 788.510 424.943, 784.405 " />
            <path fill="none" stroke-width="3.0" stroke-linecap="butt" stroke-opacity="1.0" stroke="rgb(0, 0, 0)" stroke-linejoin="round" d=" M 417.469, 791.879 421.574, 788.510 " />
            <path fill="none" stroke-width="3.0" stroke-linecap="butt" stroke-opacity="1.0" stroke="rgb(0, 0, 0)" stroke-linejoin="round" d=" M 397.134, 795.924 402.419, 796.445 407.704, 795.924 412.786, 794.382 417.469, 791.879 " />
            <path fill="none" stroke-width="3.0" stroke-linecap="butt" stroke-opacity="1.0" stroke="rgb(0, 0, 0)" stroke-linejoin="round" d=" M 392.052, 794.382 397.134, 795.924 " />
            <path fill="none" stroke-width="3.0" stroke-linecap="butt" stroke-opacity="1.0" stroke="rgb(0, 0, 0)" stroke-linejoin="round" d=" M 379.894, 784.405 383.263, 788.510 387.368, 791.879 392.052, 794.382 " />
            <path fill="none" stroke-width="3.0" stroke-linecap="butt" stroke-opacity="1.0" stroke="rgb(0, 0, 0)" stroke-linejoin="round" d=" M 377.391, 779.721 379.894, 784.405 " />
            <path fill="none" stroke-width="3.0" stroke-linecap="butt" stroke-opacity="1.0" stroke="rgb(0, 0, 0)" stroke-linejoin="round" d=" M 375.849, 774.640 377.391, 779.721 " />
            <path fill="none" stroke-width="3.0" stroke-linecap="butt" stroke-opacity="1.0" stroke="rgb(0, 0, 0)" stroke-linejoin="round" d=" M 377.391, 758.988 375.849, 764.070 375.329, 769.355 375.849, 774.640 " />
            <path fill="none" stroke-width="3.0" stroke-linecap="butt" stroke-opacity="1.0" stroke="rgb(0, 0, 0)" stroke-linejoin="round" d=" M 407.704, 742.785 402.419, 742.265 397.134, 742.785 392.052, 744.327 387.368, 746.830 " />
            <path fill="none" stroke-width="3.0" stroke-linecap="butt" stroke-opacity="1.0" stroke="rgb(0, 0, 0)" stroke-linejoin="round" d=" M 580.426, 774.640 580.946, 769.355 580.426, 764.070 578.884, 758.988 576.381, 754.304 573.012, 750.199 568.907, 746.830 " />
            <path fill="none" stroke-width="3.0" stroke-linecap="butt" stroke-opacity="1.0" stroke="rgb(0, 0, 0)" stroke-linejoin="round" d=" M 573.012, 788.510 576.381, 784.405 578.884, 779.721 580.426, 774.640 " />
            <path fill="none" stroke-width="3.0" stroke-linecap="butt" stroke-opacity="1.0" stroke="rgb(0, 0, 0)" stroke-linejoin="round" d=" M 568.907, 791.879 573.012, 788.510 " />
            <path fill="none" stroke-width="3.0" stroke-linecap="butt" stroke-opacity="1.0" stroke="rgb(0, 0, 0)" stroke-linejoin="round" d=" M 548.571, 795.924 553.856, 796.445 559.141, 795.924 564.223, 794.382 568.907, 791.879 " />
            <path fill="none" stroke-width="3.0" stroke-linecap="butt" stroke-opacity="1.0" stroke="rgb(0, 0, 0)" stroke-linejoin="round" d=" M 543.489, 794.382 548.571, 795.924 " />
            <path fill="none" stroke-width="3.0" stroke-linecap="butt" stroke-opacity="1.0" stroke="rgb(0, 0, 0)" stroke-linejoin="round" d=" M 526.766, 769.355 527.287, 774.640 528.828, 779.721 531.332, 784.405 534.701, 788.510 538.806, 791.879 543.489, 794.382 " />
            <path fill="none" stroke-width="3.0" stroke-linecap="butt" stroke-opacity="1.0" stroke="rgb(0, 0, 0)" stroke-linejoin="round" d=" M 559.141, 742.785 553.856, 742.265 548.571, 742.785 543.489, 744.327 539.090, 746.678 538.806, 746.830 534.701, 750.199 531.332, 754.304 528.828, 758.988 527.287, 764.070 526.766, 769.355 " />
            <path fill="none" stroke-width="3.0" stroke-linecap="butt" stroke-opacity="1.0" stroke="rgb(0, 0, 0)" stroke-linejoin="round" d=" M 379.894, 754.304 377.391, 758.988 " />
            <path fill="none" stroke-width="3.0" stroke-linecap="butt" stroke-opacity="1.0" stroke="rgb(0, 0, 0)" stroke-linejoin="round" d=" M 383.263, 750.199 379.894, 754.304 " />
            <path fill="none" stroke-width="3.0" stroke-linecap="butt" stroke-opacity="1.0" stroke="rgb(0, 0, 0)" stroke-linejoin="round" d=" M 387.368, 746.830 383.263, 750.199 " />
            <path fill="none" stroke-width="3.0" stroke-linecap="butt" stroke-opacity="1.0" stroke="rgb(0, 0, 0)" stroke-linejoin="round" d=" M 427.447, 758.988 424.943, 754.304 " />
            <path fill="none" stroke-width="3.0" stroke-linecap="butt" stroke-opacity="1.0" stroke="rgb(0, 0, 0)" stroke-linejoin="round" d=" M 428.988, 764.070 427.447, 758.988 " />
            <path fill="none" stroke-width="3.0" stroke-linecap="butt" stroke-opacity="1.0" stroke="rgb(0, 0, 0)" stroke-linejoin="round" d=" M 564.223, 744.327 559.141, 742.785 " />
            <path fill="none" stroke-width="3.0" stroke-linecap="butt" stroke-opacity="1.0" stroke="rgb(0, 0, 0)" stroke-linejoin="round" d=" M 568.907, 746.830 564.223, 744.327 " />
            <path fill="none" stroke-width="3.0" stroke-linecap="butt" stroke-opacity="1.0" stroke="rgb(0, 0, 0)" stroke-linejoin="round" d=" M 620.360, 769.355 620.880, 774.640 " />
            <path fill="none" stroke-width="3.0" stroke-linecap="butt" stroke-opacity="1.0" stroke="rgb(0, 0, 0)" stroke-linejoin="round" d=" M 620.880, 764.070 620.360, 769.355 " />
            <path fill="none" stroke-width="3.0" stroke-linecap="butt" stroke-opacity="1.0" stroke="rgb(0, 0, 0)" stroke-linejoin="round" d=" M 642.165, 742.785 637.083, 744.327 " />
            <path fill="none" stroke-width="3.0" stroke-linecap="butt" stroke-opacity="1.0" stroke="rgb(0, 0, 0)" stroke-linejoin="round" d=" M 647.450, 742.265 642.165, 742.785 " />
            <path fill="none" stroke-width="3.0" stroke-linecap="butt" stroke-opacity="1.0" stroke="rgb(0, 0, 0)" stroke-linejoin="round" d=" M 672.478, 758.988 669.974, 754.304 " />
        </g>
    </g>
    <g id="ViewLayer_TechnicalLines.001" inkscape:groupmode="lineset" inkscape:label="ViewLayer_TechnicalLines.001">
        <g inkscape:groupmode="layer" id="strokes" inkscape:label="strokes">
            <path fill="none" stroke-width="1.5" stroke-linecap="round" stroke-opacity="1.0" stroke="rgb(0, 0, 0)" stroke-linejoin="round" d=" M 349.460, 512.000 349.460, 512.000 359.460, 512.000 369.460, 512.000 379.460, 512.000 389.460, 512.000 399.460, 512.000 409.460, 512.000 419.460, 512.000 429.460, 512.000 439.460, 512.000 449.460, 512.000 459.460, 512.000 469.460, 512.000 479.460, 512.000 489.460, 512.000 499.460, 512.000 509.460, 512.000 519.460, 512.000 529.460, 512.000 539.460, 512.000 549.460, 512.000 559.460, 512.000 569.460, 512.000 579.460, 512.000 589.460, 512.000 599.460, 512.000 609.460, 512.000 619.460, 512.000 629.460, 512.000 639.460, 512.000 649.460, 512.000 659.460, 512.000 669.460, 512.000 674.540, 512.000 674.540, 512.000 " />
            <path fill="none" stroke-width="1.5" stroke-linecap="round" stroke-opacity="1.0" stroke="rgb(0, 0, 0)" stroke-linejoin="round" d=" M 349.460, 512.000 359.460, 512.000 369.460, 512.000 379.460, 512.000 389.460, 512.000 399.460, 512.000 409.460, 512.000 419.460, 512.000 429.460, 512.000 439.460, 512.000 449.460, 512.000 459.460, 512.000 469.460, 512.000 479.460, 512.000 489.460, 512.000 499.460, 512.000 509.460, 512.000 519.460, 512.000 529.460, 512.000 539.460, 512.000 549.460, 512.000 559.460, 512.000 569.460, 512.000 579.460, 512.000 589.460, 512.000 599.460, 512.000 609.460, 512.000 619.460, 512.000 629.460, 512.000 639.460, 512.000 649.460, 512.000 659.460, 512.000 669.460, 512.000 674.540, 512.000 " />
            <path fill="none" stroke-width="1.5" stroke-linecap="round" stroke-opacity="1.0" stroke="rgb(0, 0, 0)" stroke-linejoin="round" d=" M 674.540, 227.556 664.540, 227.556 654.540, 227.556 644.540, 227.556 634.540, 227.556 624.540, 227.556 614.540, 227.556 604.540, 227.556 594.540, 227.556 584.540, 227.556 574.540, 227.556 564.540, 227.556 554.540, 227.556 544.540, 227.556 534.540, 227.556 524.540, 227.556 514.540, 227.556 504.540, 227.556 494.540, 227.556 484.540, 227.556 474.540, 227.556 464.540, 227.556 454.540, 227.556 444.540, 227.556 434.540, 227.556 424.540, 227.556 414.540, 227.556 404.540, 227.556 394.540, 227.556 384.540, 227.556 374.540, 227.556 364.540, 227.556 354.540, 227.556 349.460, 227.556 349.460, 237.556 349.460, 247.556 349.460, 257.556 349.460, 267.556 349.460, 277.556 349.460, 287.556 349.460, 297.556 349.460, 307.556 349.460, 317.556 349.460, 327.556 349.460, 337.556 349.460, 347.556 349.460, 357.556 349.460, 367.556 349.460, 377.556 349.460, 387.556 349.460, 397.556 349.460, 407.556 349.460, 417.556 349.460, 427.556 349.460, 437.556 349.460, 447.556 349.460, 457.556 349.460, 467.556 349.460, 477.556 349.460, 487.556 349.460, 498.455 359.460, 498.455 369.460, 498.455 379.460, 498.455 389.460, 498.455 399.460, 498.455 409.460, 498.455 419.460, 498.455 429.460, 498.455 439.460, 498.455 449.460, 498.455 459.460, 498.455 469.460, 498.455 479.460, 498.455 489.460, 498.455 499.460, 498.455 509.460, 498.455 519.460, 498.455 529.460, 498.455 539.460, 498.455 549.460, 498.455 559.460, 498.455 569.460, 498.455 579.460, 498.455 589.460, 498.455 599.460, 498.455 609.460, 498.455 619.460, 498.455 629.460, 498.455 639.460, 498.455 649.460, 498.455 659.460, 498.455 669.460, 498.455 674.540, 498.455 674.540, 488.455 674.540, 484.910 674.540, 484.910 674.540, 474.910 674.540, 464.910 674.540, 454.910 674.540, 444.910 674.540, 434.910 674.540, 424.910 674.540, 414.910 674.540, 404.910 674.540, 394.910 674.540, 384.910 674.540, 374.910 674.540, 364.910 674.540, 354.910 674.540, 344.910 674.540, 334.910 674.540, 324.910 674.540, 314.910 674.540, 304.910 674.540, 294.910 674.540, 284.910 674.540, 274.910 674.540, 264.910 674.540, 254.910 674.540, 244.910 674.540, 234.910 674.540, 227.556 " />
            <path fill="none" stroke-width="1.5" stroke-linecap="round" stroke-opacity="1.0" stroke="rgb(0, 0, 0)" stroke-linejoin="round" d=" M 539.090, 746.678 539.090, 736.678 539.090, 726.678 539.090, 716.678 539.090, 706.678 539.090, 696.678 539.090, 686.678 539.090, 676.678 539.090, 666.678 539.090, 656.678 539.090, 646.678 539.090, 636.678 539.090, 633.905 538.569, 633.905 537.028, 633.905 534.524, 633.905 531.155, 633.905 527.050, 633.905 522.367, 633.905 517.285, 633.905 512.000, 633.905 506.715, 633.905 501.633, 633.905 496.950, 633.905 492.845, 633.905 489.476, 633.905 486.972, 633.905 485.431, 633.905 484.910, 633.905 484.910, 643.905 484.910, 653.905 484.910, 663.905 484.910, 673.905 484.910, 683.905 484.910, 693.905 484.910, 703.905 484.910, 713.905 484.910, 723.905 484.910, 733.905 484.910, 743.905 484.910, 753.905 484.910, 763.905 484.910, 769.355 485.431, 769.355 486.972, 769.355 489.476, 769.355 492.845, 769.355 496.950, 769.355 501.633, 769.355 506.715, 769.355 512.000, 769.355 517.285, 769.355 522.367, 769.355 526.766, 769.355 " />
            <path fill="none" stroke-width="1.5" stroke-linecap="round" stroke-opacity="1.0" stroke="rgb(0, 0, 0)" stroke-linejoin="round" d=" M 669.974, 754.304 666.605, 750.199 662.500, 746.830 657.817, 744.327 652.735, 742.785 647.450, 742.265 " />
            <path fill="none" stroke-width="1.5" stroke-linecap="round" stroke-opacity="1.0" stroke="rgb(0, 0, 0)" stroke-linejoin="round" d=" M 662.500, 791.879 666.605, 788.510 669.974, 784.405 672.478, 779.721 674.019, 774.640 674.540, 769.355 674.019, 764.070 672.478, 758.988 " />
            <path fill="none" stroke-width="1.5" stroke-linecap="round" stroke-opacity="1.0" stroke="rgb(0, 0, 0)" stroke-linejoin="round" d=" M 647.450, 796.445 652.735, 795.924 657.817, 794.382 662.500, 791.879 " />
            <path fill="none" stroke-width="1.5" stroke-linecap="round" stroke-opacity="1.0" stroke="rgb(0, 0, 0)" stroke-linejoin="round" d=" M 642.165, 795.924 647.450, 796.445 " />
            <path fill="none" stroke-width="1.5" stroke-linecap="round" stroke-opacity="1.0" stroke="rgb(0, 0, 0)" stroke-linejoin="round" d=" M 637.083, 794.382 642.165, 795.924 " />
            <path fill="none" stroke-width="1.5" stroke-linecap="round" stroke-opacity="1.0" stroke="rgb(0, 0, 0)" stroke-linejoin="round" d=" M 622.422, 779.721 624.925, 784.405 628.294, 788.510 632.399, 791.879 637.083, 794.382 " />
            <path fill="none" stroke-width="1.5" stroke-linecap="round" stroke-opacity="1.0" stroke="rgb(0, 0, 0)" stroke-linejoin="round" d=" M 620.880, 774.640 622.422, 779.721 " />
            <path fill="none" stroke-width="1.5" stroke-linecap="round" stroke-opacity="1.0" stroke="rgb(0, 0, 0)" stroke-linejoin="round" d=" M 637.083, 744.327 632.399, 746.830 628.294, 750.199 624.925, 754.304 622.422, 758.988 620.880, 764.070 " />
            <path fill="none" stroke-width="1.5" stroke-linecap="round" stroke-opacity="1.0" stroke="rgb(0, 0, 0)" stroke-linejoin="round" d=" M 424.943, 754.304 421.574, 750.199 417.469, 746.830 412.786, 744.327 407.704, 742.785 " />
            <path fill="none" stroke-width="1.5" stroke-linecap="round" stroke-opacity="1.0" stroke="rgb(0, 0, 0)" stroke-linejoin="round" d=" M 424.943, 784.405 427.447, 779.721 428.988, 774.640 429.509, 769.355 428.988, 764.070 " />
            <path fill="none" stroke-width="1.5" stroke-linecap="round" stroke-opacity="1.0" stroke="rgb(0, 0, 0)" stroke-linejoin="round" d=" M 421.574, 788.510 424.943, 784.405 " />
            <path fill="none" stroke-width="1.5" stroke-linecap="round" stroke-opacity="1.0" stroke="rgb(0, 0, 0)" stroke-linejoin="round" d=" M 417.469, 791.879 421.574, 788.510 " />
            <path fill="none" stroke-width="1.5" stroke-linecap="round" stroke-opacity="1.0" stroke="rgb(0, 0, 0)" stroke-linejoin="round" d=" M 397.134, 795.924 402.419, 796.445 407.704, 795.924 412.786, 794.382 417.469, 791.879 " />
            <path fill="none" stroke-width="1.5" stroke-linecap="round" stroke-opacity="1.0" stroke="rgb(0, 0, 0)" stroke-linejoin="round" d=" M 392.052, 794.382 397.134, 795.924 " />
            <path fill="none" stroke-width="1.5" stroke-linecap="round" stroke-opacity="1.0" stroke="rgb(0, 0, 0)" stroke-linejoin="round" d=" M 379.894, 784.405 383.263, 788.510 387.368, 791.879 392.052, 794.382 " />
            <path fill="none" stroke-width="1.5" stroke-linecap="round" stroke-opacity="1.0" stroke="rgb(0, 0, 0)" stroke-linejoin="round" d=" M 377.391, 779.721 379.894, 784.405 " />
            <path fill="none" stroke-width="1.5" stroke-linecap="round" stroke-opacity="1.0" stroke="rgb(0, 0, 0)" stroke-linejoin="round" d=" M 375.849, 774.640 377.391, 779.721 " />
            <path fill="none" stroke-width="1.5" stroke-linecap="round" stroke-opacity="1.0" stroke="rgb(0, 0, 0)" stroke-linejoin="round" d=" M 377.391, 758.988 375.849, 764.070 375.329, 769.355 375.849, 774.640 " />
            <path fill="none" stroke-width="1.5" stroke-linecap="round" stroke-opacity="1.0" stroke="rgb(0, 0, 0)" stroke-linejoin="round" d=" M 407.704, 742.785 402.419, 742.265 397.134, 742.785 392.052, 744.327 387.368, 746.830 " />
            <path fill="none" stroke-width="1.5" stroke-linecap="round" stroke-opacity="1.0" stroke="rgb(0, 0, 0)" stroke-linejoin="round" d=" M 580.426, 774.640 580.946, 769.355 580.426, 764.070 578.884, 758.988 576.381, 754.304 573.012, 750.199 568.907, 746.830 " />
            <path fill="none" stroke-width="1.5" stroke-linecap="round" stroke-opacity="1.0" stroke="rgb(0, 0, 0)" stroke-linejoin="round" d=" M 573.012, 788.510 576.381, 784.405 578.884, 779.721 580.426, 774.640 " />
            <path fill="none" stroke-width="1.5" stroke-linecap="round" stroke-opacity="1.0" stroke="rgb(0, 0, 0)" stroke-linejoin="round" d=" M 568.907, 791.879 573.012, 788.510 " />
            <path fill="none" stroke-width="1.5" stroke-linecap="round" stroke-opacity="1.0" stroke="rgb(0, 0, 0)" stroke-linejoin="round" d=" M 548.571, 795.924 553.856, 796.445 559.141, 795.924 564.223, 794.382 568.907, 791.879 " />
            <path fill="none" stroke-width="1.5" stroke-linecap="round" stroke-opacity="1.0" stroke="rgb(0, 0, 0)" stroke-linejoin="round" d=" M 543.489, 794.382 548.571, 795.924 " />
            <path fill="none" stroke-width="1.5" stroke-linecap="round" stroke-opacity="1.0" stroke="rgb(0, 0, 0)" stroke-linejoin="round" d=" M 526.766, 769.355 527.287, 774.640 528.828, 779.721 531.332, 784.405 534.701, 788.510 538.806, 791.879 543.489, 794.382 " />
            <path fill="none" stroke-width="1.5" stroke-linecap="round" stroke-opacity="1.0" stroke="rgb(0, 0, 0)" stroke-linejoin="round" d=" M 559.141, 742.785 553.856, 742.265 548.571, 742.785 543.489, 744.327 539.090, 746.678 538.806, 746.830 534.701, 750.199 531.332, 754.304 528.828, 758.988 527.287, 764.070 526.766, 769.355 " />
            <path fill="none" stroke-width="1.5" stroke-linecap="round" stroke-opacity="1.0" stroke="rgb(0, 0, 0)" stroke-linejoin="round" d=" M 379.894, 754.304 377.391, 758.988 " />
            <path fill="none" stroke-width="1.5" stroke-linecap="round" stroke-opacity="1.0" stroke="rgb(0, 0, 0)" stroke-linejoin="round" d=" M 383.263, 750.199 379.894, 754.304 " />
            <path fill="none" stroke-width="1.5" stroke-linecap="round" stroke-opacity="1.0" stroke="rgb(0, 0, 0)" stroke-linejoin="round" d=" M 387.368, 746.830 383.263, 750.199 " />
            <path fill="none" stroke-width="1.5" stroke-linecap="round" stroke-opacity="1.0" stroke="rgb(0, 0, 0)" stroke-linejoin="round" d=" M 427.447, 758.988 424.943, 754.304 " />
            <path fill="none" stroke-width="1.5" stroke-linecap="round" stroke-opacity="1.0" stroke="rgb(0, 0, 0)" stroke-linejoin="round" d=" M 428.988, 764.070 427.447, 758.988 " />
            <path fill="none" stroke-width="1.5" stroke-linecap="round" stroke-opacity="1.0" stroke="rgb(0, 0, 0)" stroke-linejoin="round" d=" M 564.223, 744.327 559.141, 742.785 " />
            <path fill="none" stroke-width="1.5" stroke-linecap="round" stroke-opacity="1.0" stroke="rgb(0, 0, 0)" stroke-linejoin="round" d=" M 568.907, 746.830 564.223, 744.327 " />
            <path fill="none" stroke-width="1.5" stroke-linecap="round" stroke-opacity="1.0" stroke="rgb(0, 0, 0)" stroke-linejoin="round" d=" M 620.360, 769.355 620.880, 774.640 " />
            <path fill="none" stroke-width="1.5" stroke-linecap="round" stroke-opacity="1.0" stroke="rgb(0, 0, 0)" stroke-linejoin="round" d=" M 620.880, 764.070 620.360, 769.355 " />
            <path fill="none" stroke-width="1.5" stroke-linecap="round" stroke-opacity="1.0" stroke="rgb(0, 0, 0)" stroke-linejoin="round" d=" M 642.165, 742.785 637.083, 744.327 " />
            <path fill="none" stroke-width="1.5" stroke-linecap="round" stroke-opacity="1.0" stroke="rgb(0, 0, 0)" stroke-linejoin="round" d=" M 647.450, 742.265 642.165, 742.785 " />
            <path fill="none" stroke-width="1.5" stroke-linecap="round" stroke-opacity="1.0" stroke="rgb(0, 0, 0)" stroke-linejoin="round" d=" M 672.478, 758.988 669.974, 754.304 " />
        </g>
    </g>
    <g id="ViewLayer_TechnicalLines.002" inkscape:groupmode="lineset" inkscape:label="ViewLayer_TechnicalLines.002">
        <g inkscape:groupmode="layer" id="strokes" inkscape:label="strokes">
            <path fill="none" stroke-width="1.5" stroke-linecap="round" stroke-opacity="1.0" stroke="rgb(0, 0, 0)" stroke-linejoin="round" d=" M 349.460, 512.000 349.460, 512.000 359.460, 512.000 369.460, 512.000 379.460, 512.000 389.460, 512.000 399.460, 512.000 409.460, 512.000 419.460, 512.000 429.460, 512.000 439.460, 512.000 449.460, 512.000 459.460, 512.000 469.460, 512.000 479.460, 512.000 489.460, 512.000 499.460, 512.000 509.460, 512.000 519.460, 512.000 529.460, 512.000 539.460, 512.000 549.460, 512.000 559.460, 512.000 569.460, 512.000 579.460, 512.000 589.460, 512.000 599.460, 512.000 609.460, 512.000 619.460, 512.000 629.460, 512.000 639.460, 512.000 649.460, 512.000 659.460, 512.000 669.460, 512.000 674.540, 512.000 674.540, 512.000 " />
            <path fill="none" stroke-width="1.5" stroke-linecap="round" stroke-opacity="1.0" stroke="rgb(0, 0, 0)" stroke-linejoin="round" d=" M 349.460, 512.000 359.460, 512.000 369.460, 512.000 379.460, 512.000 389.460, 512.000 399.460, 512.000 409.460, 512.000 419.460, 512.000 429.460, 512.000 439.460, 512.000 449.460, 512.000 459.460, 512.000 469.460, 512.000 479.460, 512.000 489.460, 512.000 499.460, 512.000 509.460, 512.000 519.460, 512.000 529.460, 512.000 539.460, 512.000 549.460, 512.000 559.460, 512.000 569.460, 512.000 579.460, 512.000 589.460, 512.000 599.460, 512.000 609.460, 512.000 619.460, 512.000 629.460, 512.000 639.460, 512.000 649.460, 512.000 659.460, 512.000 669.460, 512.000 674.540, 512.000 " />
            <path fill="none" stroke-width="1.5" stroke-linecap="round" stroke-opacity="1.0" stroke="rgb(0, 0, 0)" stroke-linejoin="round" d=" M 674.540, 227.556 664.540, 227.556 654.540, 227.556 644.540, 227.556 634.540, 227.556 624.540, 227.556 614.540, 227.556 604.540, 227.556 594.540, 227.556 584.540, 227.556 574.540, 227.556 564.540, 227.556 554.540, 227.556 544.540, 227.556 534.540, 227.556 524.540, 227.556 514.540, 227.556 504.540, 227.556 494.540, 227.556 484.540, 227.556 474.540, 227.556 464.540, 227.556 454.540, 227.556 444.540, 227.556 434.540, 227.556 424.540, 227.556 414.540, 227.556 404.540, 227.556 394.540, 227.556 384.540, 227.556 374.540, 227.556 364.540, 227.556 354.540, 227.556 349.460, 227.556 349.460, 237.556 349.460, 247.556 349.460, 257.556 349.460, 267.556 349.460, 277.556 349.460, 287.556 349.460, 297.556 349.460, 307.556 349.460, 317.556 349.460, 327.556 349.460, 337.556 349.460, 347.556 349.460, 357.556 349.460, 367.556 349.460, 377.556 349.460, 387.556 349.460, 397.556 349.460, 407.556 349.460, 417.556 349.460, 427.556 349.460, 437.556 349.460, 447.556 349.460, 457.556 349.460, 467.556 349.460, 477.556 349.460, 487.556 349.460, 498.455 359.460, 498.455 369.460, 498.455 379.460, 498.455 389.460, 498.455 399.460, 498.455 409.460, 498.455 419.460, 498.455 429.460, 498.455 439.460, 498.455 449.460, 498.455 459.460, 498.455 469.460, 498.455 479.460, 498.455 489.460, 498.455 499.460, 498.455 509.460, 498.455 519.460, 498.455 529.460, 498.455 539.460, 498.455 549.460, 498.455 559.460, 498.455 569.460, 498.455 579.460, 498.455 589.460, 498.455 599.460, 498.455 609.460, 498.455 619.460, 498.455 629.460, 498.455 639.460, 498.455 649.460, 498.455 659.460, 498.455 669.460, 498.455 674.540, 498.455 674.540, 488.455 674.540, 484.910 674.540, 484.910 674.540, 474.910 674.540, 464.910 674.540, 454.910 674.540, 444.910 674.540, 434.910 674.540, 424.910 674.540, 414.910 674.540, 404.910 674.540, 394.910 674.540, 384.910 674.540, 374.910 674.540, 364.910 674.540, 354.910 674.540, 344.910 674.540, 334.910 674.540, 324.910 674.540, 314.910 674.540, 304.910 674.540, 294.910 674.540, 284.910 674.540, 274.910 674.540, 264.910 674.540, 254.910 674.540, 244.910 674.540, 234.910 674.540, 227.556 " />
            <path fill="none" stroke-width="1.5" stroke-linecap="round" stroke-opacity="1.0" stroke="rgb(0, 0, 0)" stroke-linejoin="round" d=" M 539.090, 746.678 539.090, 736.678 539.090, 726.678 539.090, 716.678 539.090, 706.678 539.090, 696.678 539.090, 686.678 539.090, 676.678 539.090, 666.678 539.090, 656.678 539.090, 646.678 539.090, 636.678 539.090, 633.905 538.569, 633.905 537.028, 633.905 534.524, 633.905 531.155, 633.905 527.050, 633.905 522.367, 633.905 517.285, 633.905 512.000, 633.905 506.715, 633.905 501.633, 633.905 496.950, 633.905 492.845, 633.905 489.476, 633.905 486.972, 633.905 485.431, 633.905 484.910, 633.905 484.910, 643.905 484.910, 653.905 484.910, 663.905 484.910, 673.905 484.910, 683.905 484.910, 693.905 484.910, 703.905 484.910, 713.905 484.910, 723.905 484.910, 733.905 484.910, 743.905 484.910, 753.905 484.910, 763.905 484.910, 769.355 485.431, 769.355 486.972, 769.355 489.476, 769.355 492.845, 769.355 496.950, 769.355 501.633, 769.355 506.715, 769.355 512.000, 769.355 517.285, 769.355 522.367, 769.355 526.766, 769.355 " />
            <path fill="none" stroke-width="1.5" stroke-linecap="round" stroke-opacity="1.0" stroke="rgb(0, 0, 0)" stroke-linejoin="round" d=" M 669.974, 754.304 666.605, 750.199 662.500, 746.830 657.817, 744.327 652.735, 742.785 647.450, 742.265 " />
            <path fill="none" stroke-width="1.5" stroke-linecap="round" stroke-opacity="1.0" stroke="rgb(0, 0, 0)" stroke-linejoin="round" d=" M 662.500, 791.879 666.605, 788.510 669.974, 784.405 672.478, 779.721 674.019, 774.640 674.540, 769.355 674.019, 764.070 672.478, 758.988 " />
            <path fill="none" stroke-width="1.5" stroke-linecap="round" stroke-opacity="1.0" stroke="rgb(0, 0, 0)" stroke-linejoin="round" d=" M 647.450, 796.445 652.735, 795.924 657.817, 794.382 662.500, 791.879 " />
            <path fill="none" stroke-width="1.5" stroke-linecap="round" stroke-opacity="1.0" stroke="rgb(0, 0, 0)" stroke-linejoin="round" d=" M 642.165, 795.924 647.450, 796.445 " />
            <path fill="none" stroke-width="1.5" stroke-linecap="round" stroke-opacity="1.0" stroke="rgb(0, 0, 0)" stroke-linejoin="round" d=" M 637.083, 794.382 642.165, 795.924 " />
            <path fill="none" stroke-width="1.5" stroke-linecap="round" stroke-opacity="1.0" stroke="rgb(0, 0, 0)" stroke-linejoin="round" d=" M 622.422, 779.721 624.925, 784.405 628.294, 788.510 632.399, 791.879 637.083, 794.382 " />
            <path fill="none" stroke-width="1.5" stroke-linecap="round" stroke-opacity="1.0" stroke="rgb(0, 0, 0)" stroke-linejoin="round" d=" M 620.880, 774.640 622.422, 779.721 " />
            <path fill="none" stroke-width="1.5" stroke-linecap="round" stroke-opacity="1.0" stroke="rgb(0, 0, 0)" stroke-linejoin="round" d=" M 637.083, 744.327 632.399, 746.830 628.294, 750.199 624.925, 754.304 622.422, 758.988 620.880, 764.070 " />
            <path fill="none" stroke-width="1.5" stroke-linecap="round" stroke-opacity="1.0" stroke="rgb(0, 0, 0)" stroke-linejoin="round" d=" M 424.943, 754.304 421.574, 750.199 417.469, 746.830 412.786, 744.327 407.704, 742.785 " />
            <path fill="none" stroke-width="1.5" stroke-linecap="round" stroke-opacity="1.0" stroke="rgb(0, 0, 0)" stroke-linejoin="round" d=" M 424.943, 784.405 427.447, 779.721 428.988, 774.640 429.509, 769.355 428.988, 764.070 " />
            <path fill="none" stroke-width="1.5" stroke-linecap="round" stroke-opacity="1.0" stroke="rgb(0, 0, 0)" stroke-linejoin="round" d=" M 421.574, 788.510 424.943, 784.405 " />
            <path fill="none" stroke-width="1.5" stroke-linecap="round" stroke-opacity="1.0" stroke="rgb(0, 0, 0)" stroke-linejoin="round" d=" M 417.469, 791.879 421.574, 788.510 " />
            <path fill="none" stroke-width="1.5" stroke-linecap="round" stroke-opacity="1.0" stroke="rgb(0, 0, 0)" stroke-linejoin="round" d=" M 397.134, 795.924 402.419, 796.445 407.704, 795.924 412.786, 794.382 417.469, 791.879 " />
            <path fill="none" stroke-width="1.5" stroke-linecap="round" stroke-opacity="1.0" stroke="rgb(0, 0, 0)" stroke-linejoin="round" d=" M 392.052, 794.382 397.134, 795.924 " />
            <path fill="none" stroke-width="1.5" stroke-linecap="round" stroke-opacity="1.0" stroke="rgb(0, 0, 0)" stroke-linejoin="round" d=" M 379.894, 784.405 383.263, 788.510 387.368, 791.879 392.052, 794.382 " />
            <path fill="none" stroke-width="1.5" stroke-linecap="round" stroke-opacity="1.0" stroke="rgb(0, 0, 0)" stroke-linejoin="round" d=" M 377.391, 779.721 379.894, 784.405 " />
            <path fill="none" stroke-width="1.5" stroke-linecap="round" stroke-opacity="1.0" stroke="rgb(0, 0, 0)" stroke-linejoin="round" d=" M 375.849, 774.640 377.391, 779.721 " />
            <path fill="none" stroke-width="1.5" stroke-linecap="round" stroke-opacity="1.0" stroke="rgb(0, 0, 0)" stroke-linejoin="round" d=" M 377.391, 758.988 375.849, 764.070 375.329, 769.355 375.849, 774.640 " />
            <path fill="none" stroke-width="1.5" stroke-linecap="round" stroke-opacity="1.0" stroke="rgb(0, 0, 0)" stroke-linejoin="round" d=" M 407.704, 742.785 402.419, 742.265 397.134, 742.785 392.052, 744.327 387.368, 746.830 " />
            <path fill="none" stroke-width="1.5" stroke-linecap="round" stroke-opacity="1.0" stroke="rgb(0, 0, 0)" stroke-linejoin="round" d=" M 580.426, 774.640 580.946, 769.355 580.426, 764.070 578.884, 758.988 576.381, 754.304 573.012, 750.199 568.907, 746.830 " />
            <path fill="none" stroke-width="1.5" stroke-linecap="round" stroke-opacity="1.0" stroke="rgb(0, 0, 0)" stroke-linejoin="round" d=" M 573.012, 788.510 576.381, 784.405 578.884, 779.721 580.426, 774.640 " />
            <path fill="none" stroke-width="1.5" stroke-linecap="round" stroke-opacity="1.0" stroke="rgb(0, 0, 0)" stroke-linejoin="round" d=" M 568.907, 791.879 573.012, 788.510 " />
            <path fill="none" stroke-width="1.5" stroke-linecap="round" stroke-opacity="1.0" stroke="rgb(0, 0, 0)" stroke-linejoin="round" d=" M 548.571, 795.924 553.856, 796.445 559.141, 795.924 564.223, 794.382 568.907, 791.879 " />
            <path fill="none" stroke-width="1.5" stroke-linecap="round" stroke-opacity="1.0" stroke="rgb(0, 0, 0)" stroke-linejoin="round" d=" M 543.489, 794.382 548.571, 795.924 " />
            <path fill="none" stroke-width="1.5" stroke-linecap="round" stroke-opacity="1.0" stroke="rgb(0, 0, 0)" stroke-linejoin="round" d=" M 526.766, 769.355 527.287, 774.640 528.828, 779.721 531.332, 784.405 534.701, 788.510 538.806, 791.879 543.489, 794.382 " />
            <path fill="none" stroke-width="1.5" stroke-linecap="round" stroke-opacity="1.0" stroke="rgb(0, 0, 0)" stroke-linejoin="round" d=" M 559.141, 742.785 553.856, 742.265 548.571, 742.785 543.489, 744.327 539.090, 746.678 538.806, 746.830 534.701, 750.199 531.332, 754.304 528.828, 758.988 527.287, 764.070 526.766, 769.355 " />
            <path fill="none" stroke-width="1.5" stroke-linecap="round" stroke-opacity="1.0" stroke="rgb(0, 0, 0)" stroke-linejoin="round" d=" M 379.894, 754.304 377.391, 758.988 " />
            <path fill="none" stroke-width="1.5" stroke-linecap="round" stroke-opacity="1.0" stroke="rgb(0, 0, 0)" stroke-linejoin="round" d=" M 383.263, 750.199 379.894, 754.304 " />
            <path fill="none" stroke-width="1.5" stroke-linecap="round" stroke-opacity="1.0" stroke="rgb(0, 0, 0)" stroke-linejoin="round" d=" M 387.368, 746.830 383.263, 750.199 " />
            <path fill="none" stroke-width="1.5" stroke-linecap="round" stroke-opacity="1.0" stroke="rgb(0, 0, 0)" stroke-linejoin="round" d=" M 427.447, 758.988 424.943, 754.304 " />
            <path fill="none" stroke-width="1.5" stroke-linecap="round" stroke-opacity="1.0" stroke="rgb(0, 0, 0)" stroke-linejoin="round" d=" M 428.988, 764.070 427.447, 758.988 " />
            <path fill="none" stroke-width="1.5" stroke-linecap="round" stroke-opacity="1.0" stroke="rgb(0, 0, 0)" stroke-linejoin="round" d=" M 564.223, 744.327 559.141, 742.785 " />
            <path fill="none" stroke-width="1.5" stroke-linecap="round" stroke-opacity="1.0" stroke="rgb(0, 0, 0)" stroke-linejoin="round" d=" M 568.907, 746.830 564.223, 744.327 " />
            <path fill="none" stroke-width="1.5" stroke-linecap="round" stroke-opacity="1.0" stroke="rgb(0, 0, 0)" stroke-linejoin="round" d=" M 620.360, 769.355 620.880, 774.640 " />
            <path fill="none" stroke-width="1.5" stroke-linecap="round" stroke-opacity="1.0" stroke="rgb(0, 0, 0)" stroke-linejoin="round" d=" M 620.880, 764.070 620.360, 769.355 " />
            <path fill="none" stroke-width="1.5" stroke-linecap="round" stroke-opacity="1.0" stroke="rgb(0, 0, 0)" stroke-linejoin="round" d=" M 642.165, 742.785 637.083, 744.327 " />
            <path fill="none" stroke-width="1.5" stroke-linecap="round" stroke-opacity="1.0" stroke="rgb(0, 0, 0)" stroke-linejoin="round" d=" M 647.450, 742.265 642.165, 742.785 " />
            <path fill="none" stroke-width="1.5" stroke-linecap="round" stroke-opacity="1.0" stroke="rgb(0, 0, 0)" stroke-linejoin="round" d=" M 672.478, 758.988 669.974, 754.304 " />
        </g>
    </g>
    <g id="ViewLayer_TechnicalLines.003" inkscape:groupmode="lineset" inkscape:label="ViewLayer_TechnicalLines.003">
        <g inkscape:groupmode="layer" id="strokes" inkscape:label="strokes">
            <path fill="none" stroke-width="1.5" stroke-linecap="round" stroke-opacity="1.0" stroke="rgb(0, 0, 0)" stroke-linejoin="round" d=" M 349.460, 512.000 349.460, 512.000 359.460, 512.000 369.460, 512.000 379.460, 512.000 389.460, 512.000 399.460, 512.000 409.460, 512.000 419.460, 512.000 429.460, 512.000 439.460, 512.000 449.460, 512.000 459.460, 512.000 469.460, 512.000 479.460, 512.000 489.460, 512.000 499.460, 512.000 509.460, 512.000 519.460, 512.000 529.460, 512.000 539.460, 512.000 549.460, 512.000 559.460, 512.000 569.460, 512.000 579.460, 512.000 589.460, 512.000 599.460, 512.000 609.460, 512.000 619.460, 512.000 629.460, 512.000 639.460, 512.000 649.460, 512.000 659.460, 512.000 669.460, 512.000 674.540, 512.000 674.540, 512.000 " />
            <path fill="none" stroke-width="1.5" stroke-linecap="round" stroke-opacity="1.0" stroke="rgb(0, 0, 0)" stroke-linejoin="round" d=" M 349.460, 512.000 359.460, 512.000 369.460, 512.000 379.460, 512.000 389.460, 512.000 399.460, 512.000 409.460, 512.000 419.460, 512.000 429.460, 512.000 439.460, 512.000 449.460, 512.000 459.460, 512.000 469.460, 512.000 479.460, 512.000 489.460, 512.000 499.460, 512.000 509.460, 512.000 519.460, 512.000 529.460, 512.000 539.460, 512.000 549.460, 512.000 559.460, 512.000 569.460, 512.000 579.460, 512.000 589.460, 512.000 599.460, 512.000 609.460, 512.000 619.460, 512.000 629.460, 512.000 639.460, 512.000 649.460, 512.000 659.460, 512.000 669.460, 512.000 674.540, 512.000 " />
            <path fill="none" stroke-width="1.5" stroke-linecap="round" stroke-opacity="1.0" stroke="rgb(0, 0, 0)" stroke-linejoin="round" d=" M 674.540, 227.556 664.540, 227.556 654.540, 227.556 644.540, 227.556 634.540, 227.556 624.540, 227.556 614.540, 227.556 604.540, 227.556 594.540, 227.556 584.540, 227.556 574.540, 227.556 564.540, 227.556 554.540, 227.556 544.540, 227.556 534.540, 227.556 524.540, 227.556 514.540, 227.556 504.540, 227.556 494.540, 227.556 484.540, 227.556 474.540, 227.556 464.540, 227.556 454.540, 227.556 444.540, 227.556 434.540, 227.556 424.540, 227.556 414.540, 227.556 404.540, 227.556 394.540, 227.556 384.540, 227.556 374.540, 227.556 364.540, 227.556 354.540, 227.556 349.460, 227.556 349.460, 237.556 349.460, 247.556 349.460, 257.556 349.460, 267.556 349.460, 277.556 349.460, 287.556 349.460, 297.556 349.460, 307.556 349.460, 317.556 349.460, 327.556 349.460, 337.556 349.460, 347.556 349.460, 357.556 349.460, 367.556 349.460, 377.556 349.460, 387.556 349.460, 397.556 349.460, 407.556 349.460, 417.556 349.460, 427.556 349.460, 437.556 349.460, 447.556 349.460, 457.556 349.460, 467.556 349.460, 477.556 349.460, 487.556 349.460, 498.455 359.460, 498.455 369.460, 498.455 379.460, 498.455 389.460, 498.455 399.460, 498.455 409.460, 498.455 419.460, 498.455 429.460, 498.455 439.460, 498.455 449.460, 498.455 459.460, 498.455 469.460, 498.455 479.460, 498.455 489.460, 498.455 499.460, 498.455 509.460, 498.455 519.460, 498.455 529.460, 498.455 539.460, 498.455 549.460, 498.455 559.460, 498.455 569.460, 498.455 579.460, 498.455 589.460, 498.455 599.460, 498.455 609.460, 498.455 619.460, 498.455 629.460, 498.455 639.460, 498.455 649.460, 498.455 659.460, 498.455 669.460, 498.455 674.540, 498.455 674.540, 488.455 674.540, 484.910 674.540, 484.910 674.540, 474.910 674.540, 464.910 674.540, 454.910 674.540, 444.910 674.540, 434.910 674.540, 424.910 674.540, 414.910 674.540, 404.910 674.540, 394.910 674.540, 384.910 674.540, 374.910 674.540, 364.910 674.540, 354.910 674.540, 344.910 674.540, 334.910 674.540, 324.910 674.540, 314.910 674.540, 304.910 674.540, 294.910 674.540, 284.910 674.540, 274.910 674.540, 264.910 674.540, 254.910 674.540, 244.910 674.540, 234.910 674.540, 227.556 " />
            <path fill="none" stroke-width="1.5" stroke-linecap="round" stroke-opacity="1.0" stroke="rgb(0, 0, 0)" stroke-linejoin="round" d=" M 539.090, 746.678 539.090, 736.678 539.090, 726.678 539.090, 716.678 539.090, 706.678 539.090, 696.678 539.090, 686.678 539.090, 676.678 539.090, 666.678 539.090, 656.678 539.090, 646.678 539.090, 636.678 539.090, 633.905 538.569, 633.905 537.028, 633.905 534.524, 633.905 531.155, 633.905 527.050, 633.905 522.367, 633.905 517.285, 633.905 512.000, 633.905 506.715, 633.905 501.633, 633.905 496.950, 633.905 492.845, 633.905 489.476, 633.905 486.972, 633.905 485.431, 633.905 484.910, 633.905 484.910, 643.905 484.910, 653.905 484.910, 663.905 484.910, 673.905 484.910, 683.905 484.910, 693.905 484.910, 703.905 484.910, 713.905 484.910, 723.905 484.910, 733.905 484.910, 743.905 484.910, 753.905 484.910, 763.905 484.910, 769.355 485.431, 769.355 486.972, 769.355 489.476, 769.355 492.845, 769.355 496.950, 769.355 501.633, 769.355 506.715, 769.355 512.000, 769.355 517.285, 769.355 522.367, 769.355 526.766, 769.355 " />
            <path fill="none" stroke-width="1.5" stroke-linecap="round" stroke-opacity="1.0" stroke="rgb(0, 0, 0)" stroke-linejoin="round" d=" M 669.974, 754.304 666.605, 750.199 662.500, 746.830 657.817, 744.327 652.735, 742.785 647.450, 742.265 " />
            <path fill="none" stroke-width="1.5" stroke-linecap="round" stroke-opacity="1.0" stroke="rgb(0, 0, 0)" stroke-linejoin="round" d=" M 662.500, 791.879 666.605, 788.510 669.974, 784.405 672.478, 779.721 674.019, 774.640 674.540, 769.355 674.019, 764.070 672.478, 758.988 " />
            <path fill="none" stroke-width="1.5" stroke-linecap="round" stroke-opacity="1.0" stroke="rgb(0, 0, 0)" stroke-linejoin="round" d=" M 647.450, 796.445 652.735, 795.924 657.817, 794.382 662.500, 791.879 " />
            <path fill="none" stroke-width="1.5" stroke-linecap="round" stroke-opacity="1.0" stroke="rgb(0, 0, 0)" stroke-linejoin="round" d=" M 642.165, 795.924 647.450, 796.445 " />
            <path fill="none" stroke-width="1.5" stroke-linecap="round" stroke-opacity="1.0" stroke="rgb(0, 0, 0)" stroke-linejoin="round" d=" M 637.083, 794.382 642.165, 795.924 " />
            <path fill="none" stroke-width="1.5" stroke-linecap="round" stroke-opacity="1.0" stroke="rgb(0, 0, 0)" stroke-linejoin="round" d=" M 622.422, 779.721 624.925, 784.405 628.294, 788.510 632.399, 791.879 637.083, 794.382 " />
            <path fill="none" stroke-width="1.5" stroke-linecap="round" stroke-opacity="1.0" stroke="rgb(0, 0, 0)" stroke-linejoin="round" d=" M 620.880, 774.640 622.422, 779.721 " />
            <path fill="none" stroke-width="1.5" stroke-linecap="round" stroke-opacity="1.0" stroke="rgb(0, 0, 0)" stroke-linejoin="round" d=" M 637.083, 744.327 632.399, 746.830 628.294, 750.199 624.925, 754.304 622.422, 758.988 620.880, 764.070 " />
            <path fill="none" stroke-width="1.5" stroke-linecap="round" stroke-opacity="1.0" stroke="rgb(0, 0, 0)" stroke-linejoin="round" d=" M 424.943, 754.304 421.574, 750.199 417.469, 746.830 412.786, 744.327 407.704, 742.785 " />
            <path fill="none" stroke-width="1.5" stroke-linecap="round" stroke-opacity="1.0" stroke="rgb(0, 0, 0)" stroke-linejoin="round" d=" M 424.943, 784.405 427.447, 779.721 428.988, 774.640 429.509, 769.355 428.988, 764.070 " />
            <path fill="none" stroke-width="1.5" stroke-linecap="round" stroke-opacity="1.0" stroke="rgb(0, 0, 0)" stroke-linejoin="round" d=" M 421.574, 788.510 424.943, 784.405 " />
            <path fill="none" stroke-width="1.5" stroke-linecap="round" stroke-opacity="1.0" stroke="rgb(0, 0, 0)" stroke-linejoin="round" d=" M 417.469, 791.879 421.574, 788.510 " />
            <path fill="none" stroke-width="1.5" stroke-linecap="round" stroke-opacity="1.0" stroke="rgb(0, 0, 0)" stroke-linejoin="round" d=" M 397.134, 795.924 402.419, 796.445 407.704, 795.924 412.786, 794.382 417.469, 791.879 " />
            <path fill="none" stroke-width="1.5" stroke-linecap="round" stroke-opacity="1.0" stroke="rgb(0, 0, 0)" stroke-linejoin="round" d=" M 392.052, 794.382 397.134, 795.924 " />
            <path fill="none" stroke-width="1.5" stroke-linecap="round" stroke-opacity="1.0" stroke="rgb(0, 0, 0)" stroke-linejoin="round" d=" M 379.894, 784.405 383.263, 788.510 387.368, 791.879 392.052, 794.382 " />
            <path fill="none" stroke-width="1.5" stroke-linecap="round" stroke-opacity="1.0" stroke="rgb(0, 0, 0)" stroke-linejoin="round" d=" M 377.391, 779.721 379.894, 784.405 " />
            <path fill="none" stroke-width="1.5" stroke-linecap="round" stroke-opacity="1.0" stroke="rgb(0, 0, 0)" stroke-linejoin="round" d=" M 375.849, 774.640 377.391, 779.721 " />
            <path fill="none" stroke-width="1.5" stroke-linecap="round" stroke-opacity="1.0" stroke="rgb(0, 0, 0)" stroke-linejoin="round" d=" M 377.391, 758.988 375.849, 764.070 375.329, 769.355 375.849, 774.640 " />
            <path fill="none" stroke-width="1.5" stroke-linecap="round" stroke-opacity="1.0" stroke="rgb(0, 0, 0)" stroke-linejoin="round" d=" M 407.704, 742.785 402.419, 742.265 397.134, 742.785 392.052, 744.327 387.368, 746.830 " />
            <path fill="none" stroke-width="1.5" stroke-linecap="round" stroke-opacity="1.0" stroke="rgb(0, 0, 0)" stroke-linejoin="round" d=" M 580.426, 774.640 580.946, 769.355 580.426, 764.070 578.884, 758.988 576.381, 754.304 573.012, 750.199 568.907, 746.830 " />
            <path fill="none" stroke-width="1.5" stroke-linecap="round" stroke-opacity="1.0" stroke="rgb(0, 0, 0)" stroke-linejoin="round" d=" M 573.012, 788.510 576.381, 784.405 578.884, 779.721 580.426, 774.640 " />
            <path fill="none" stroke-width="1.5" stroke-linecap="round" stroke-opacity="1.0" stroke="rgb(0, 0, 0)" stroke-linejoin="round" d=" M 568.907, 791.879 573.012, 788.510 " />
            <path fill="none" stroke-width="1.5" stroke-linecap="round" stroke-opacity="1.0" stroke="rgb(0, 0, 0)" stroke-linejoin="round" d=" M 548.571, 795.924 553.856, 796.445 559.141, 795.924 564.223, 794.382 568.907, 791.879 " />
            <path fill="none" stroke-width="1.5" stroke-linecap="round" stroke-opacity="1.0" stroke="rgb(0, 0, 0)" stroke-linejoin="round" d=" M 543.489, 794.382 548.571, 795.924 " />
            <path fill="none" stroke-width="1.5" stroke-linecap="round" stroke-opacity="1.0" stroke="rgb(0, 0, 0)" stroke-linejoin="round" d=" M 526.766, 769.355 527.287, 774.640 528.828, 779.721 531.332, 784.405 534.701, 788.510 538.806, 791.879 543.489, 794.382 " />
            <path fill="none" stroke-width="1.5" stroke-linecap="round" stroke-opacity="1.0" stroke="rgb(0, 0, 0)" stroke-linejoin="round" d=" M 559.141, 742.785 553.856, 742.265 548.571, 742.785 543.489, 744.327 539.090, 746.678 538.806, 746.830 534.701, 750.199 531.332, 754.304 528.828, 758.988 527.287, 764.070 526.766, 769.355 " />
            <path fill="none" stroke-width="1.5" stroke-linecap="round" stroke-opacity="1.0" stroke="rgb(0, 0, 0)" stroke-linejoin="round" d=" M 379.894, 754.304 377.391, 758.988 " />
            <path fill="none" stroke-width="1.5" stroke-linecap="round" stroke-opacity="1.0" stroke="rgb(0, 0, 0)" stroke-linejoin="round" d=" M 383.263, 750.199 379.894, 754.304 " />
            <path fill="none" stroke-width="1.5" stroke-linecap="round" stroke-opacity="1.0" stroke="rgb(0, 0, 0)" stroke-linejoin="round" d=" M 387.368, 746.830 383.263, 750.199 " />
            <path fill="none" stroke-width="1.5" stroke-linecap="round" stroke-opacity="1.0" stroke="rgb(0, 0, 0)" stroke-linejoin="round" d=" M 427.447, 758.988 424.943, 754.304 " />
            <path fill="none" stroke-width="1.5" stroke-linecap="round" stroke-opacity="1.0" stroke="rgb(0, 0, 0)" stroke-linejoin="round" d=" M 428.988, 764.070 427.447, 758.988 " />
            <path fill="none" stroke-width="1.5" stroke-linecap="round" stroke-opacity="1.0" stroke="rgb(0, 0, 0)" stroke-linejoin="round" d=" M 564.223, 744.327 559.141, 742.785 " />
            <path fill="none" stroke-width="1.5" stroke-linecap="round" stroke-opacity="1.0" stroke="rgb(0, 0, 0)" stroke-linejoin="round" d=" M 568.907, 746.830 564.223, 744.327 " />
            <path fill="none" stroke-width="1.5" stroke-linecap="round" stroke-opacity="1.0" stroke="rgb(0, 0, 0)" stroke-linejoin="round" d=" M 620.360, 769.355 620.880, 774.640 " />
            <path fill="none" stroke-width="1.5" stroke-linecap="round" stroke-opacity="1.0" stroke="rgb(0, 0, 0)" stroke-linejoin="round" d=" M 620.880, 764.070 620.360, 769.355 " />
            <path fill="none" stroke-width="1.5" stroke-linecap="round" stroke-opacity="1.0" stroke="rgb(0, 0, 0)" stroke-linejoin="round" d=" M 642.165, 742.785 637.083, 744.327 " />
            <path fill="none" stroke-width="1.5" stroke-linecap="round" stroke-opacity="1.0" stroke="rgb(0, 0, 0)" stroke-linejoin="round" d=" M 647.450, 742.265 642.165, 742.785 " />
            <path fill="none" stroke-width="1.5" stroke-linecap="round" stroke-opacity="1.0" stroke="rgb(0, 0, 0)" stroke-linejoin="round" d=" M 672.478, 758.988 669.974, 754.304 " />
        </g>
    </g>
    <g id="ViewLayer_TechnicalLines.004" xmlns:inkscape="http://www.inkscape.org/namespaces/inkscape" inkscape:groupmode="lineset" inkscape:label="ViewLayer_TechnicalLines.004">
        <g xmlns:inkscape="http://www.inkscape.org/namespaces/inkscape" inkscape:groupmode="layer" id="strokes" inkscape:label="strokes">
            <path fill="none" stroke-width="1.5" stroke-linecap="round" stroke-opacity="1.0" stroke="rgb(0, 0, 0)" stroke-linejoin="round" d=" M 349.460, 512.000 349.460, 512.000 359.460, 512.000 369.460, 512.000 379.460, 512.000 389.460, 512.000 399.460, 512.000 409.460, 512.000 419.460, 512.000 429.460, 512.000 439.460, 512.000 449.460, 512.000 459.460, 512.000 469.460, 512.000 479.460, 512.000 489.460, 512.000 499.460, 512.000 509.460, 512.000 519.460, 512.000 529.460, 512.000 539.460, 512.000 549.460, 512.000 559.460, 512.000 569.460, 512.000 579.460, 512.000 589.460, 512.000 599.460, 512.000 609.460, 512.000 619.460, 512.000 629.460, 512.000 639.460, 512.000 649.460, 512.000 659.460, 512.000 669.460, 512.000 674.540, 512.000 674.540, 512.000 " />
            <path fill="none" stroke-width="1.5" stroke-linecap="round" stroke-opacity="1.0" stroke="rgb(0, 0, 0)" stroke-linejoin="round" d=" M 349.460, 512.000 359.460, 512.000 369.460, 512.000 379.460, 512.000 389.460, 512.000 399.460, 512.000 409.460, 512.000 419.460, 512.000 429.460, 512.000 439.460, 512.000 449.460, 512.000 459.460, 512.000 469.460, 512.000 479.460, 512.000 489.460, 512.000 499.460, 512.000 509.460, 512.000 519.460, 512.000 529.460, 512.000 539.460, 512.000 549.460, 512.000 559.460, 512.000 569.460, 512.000 579.460, 512.000 589.460, 512.000 599.460, 512.000 609.460, 512.000 619.460, 512.000 629.460, 512.000 639.460, 512.000 649.460, 512.000 659.460, 512.000 669.460, 512.000 674.540, 512.000 " />
            <path fill="none" stroke-width="1.5" stroke-linecap="round" stroke-opacity="1.0" stroke="rgb(0, 0, 0)" stroke-linejoin="round" d=" M 674.540, 227.556 664.540, 227.556 654.540, 227.556 644.540, 227.556 634.540, 227.556 624.540, 227.556 614.540, 227.556 604.540, 227.556 594.540, 227.556 584.540, 227.556 574.540, 227.556 564.540, 227.556 554.540, 227.556 544.540, 227.556 534.540, 227.556 524.540, 227.556 514.540, 227.556 504.540, 227.556 494.540, 227.556 484.540, 227.556 474.540, 227.556 464.540, 227.556 454.540, 227.556 444.540, 227.556 434.540, 227.556 424.540, 227.556 414.540, 227.556 404.540, 227.556 394.540, 227.556 384.540, 227.556 374.540, 227.556 364.540, 227.556 354.540, 227.556 349.460, 227.556 349.460, 237.556 349.460, 247.556 349.460, 257.556 349.460, 267.556 349.460, 277.556 349.460, 287.556 349.460, 297.556 349.460, 307.556 349.460, 317.556 349.460, 327.556 349.460, 337.556 349.460, 347.556 349.460, 357.556 349.460, 367.556 349.460, 377.556 349.460, 387.556 349.460, 397.556 349.460, 407.556 349.460, 417.556 349.460, 427.556 349.460, 437.556 349.460, 447.556 349.460, 457.556 349.460, 467.556 349.460, 477.556 349.460, 487.556 349.460, 498.455 359.460, 498.455 369.460, 498.455 379.460, 498.455 389.460, 498.455 399.460, 498.455 409.460, 498.455 419.460, 498.455 429.460, 498.455 439.460, 498.455 449.460, 498.455 459.460, 498.455 469.460, 498.455 479.460, 498.455 489.460, 498.455 499.460, 498.455 509.460, 498.455 519.460, 498.455 529.460, 498.455 539.460, 498.455 549.460, 498.455 559.460, 498.455 569.460, 498.455 579.460, 498.455 589.460, 498.455 599.460, 498.455 609.460, 498.455 619.460, 498.455 629.460, 498.455 639.460, 498.455 649.460, 498.455 659.460, 498.455 669.460, 498.455 674.540, 498.455 674.540, 488.455 674.540, 484.910 674.540, 484.910 674.540, 474.910 674.540, 464.910 674.540, 454.910 674.540, 444.910 674.540, 434.910 674.540, 424.910 674.540, 414.910 674.540, 404.910 674.540, 394.910 674.540, 384.910 674.540, 374.910 674.540, 364.910 674.540, 354.910 674.540, 344.910 674.540, 334.910 674.540, 324.910 674.540, 314.910 674.540, 304.910 674.540, 294.910 674.540, 284.910 674.540, 274.910 674.540, 264.910 674.540, 254.910 674.540, 244.910 674.540, 234.910 674.540, 227.556 " />
            <path fill="none" stroke-width="1.5" stroke-linecap="round" stroke-opacity="1.0" stroke="rgb(0, 0, 0)" stroke-linejoin="round" d=" M 539.090, 746.678 539.090, 736.678 539.090, 726.678 539.090, 716.678 539.090, 706.678 539.090, 696.678 539.090, 686.678 539.090, 676.678 539.090, 666.678 539.090, 656.678 539.090, 646.678 539.090, 636.678 539.090, 633.905 538.569, 633.905 537.028, 633.905 534.524, 633.905 531.155, 633.905 527.050, 633.905 522.367, 633.905 517.285, 633.905 512.000, 633.905 506.715, 633.905 501.633, 633.905 496.950, 633.905 492.845, 633.905 489.476, 633.905 486.972, 633.905 485.431, 633.905 484.910, 633.905 484.910, 643.905 484.910, 653.905 484.910, 663.905 484.910, 673.905 484.910, 683.905 484.910, 693.905 484.910, 703.905 484.910, 713.905 484.910, 723.905 484.910, 733.905 484.910, 743.905 484.910, 753.905 484.910, 763.905 484.910, 769.355 485.431, 769.355 486.972, 769.355 489.476, 769.355 492.845, 769.355 496.950, 769.355 501.633, 769.355 506.715, 769.355 512.000, 769.355 517.285, 769.355 522.367, 769.355 526.766, 769.355 " />
            <path fill="none" stroke-width="1.5" stroke-linecap="round" stroke-opacity="1.0" stroke="rgb(0, 0, 0)" stroke-linejoin="round" d=" M 669.974, 754.304 666.605, 750.199 662.500, 746.830 657.817, 744.327 652.735, 742.785 647.450, 742.265 " />
            <path fill="none" stroke-width="1.5" stroke-linecap="round" stroke-opacity="1.0" stroke="rgb(0, 0, 0)" stroke-linejoin="round" d=" M 662.500, 791.879 666.605, 788.510 669.974, 784.405 672.478, 779.721 674.019, 774.640 674.540, 769.355 674.019, 764.070 672.478, 758.988 " />
            <path fill="none" stroke-width="1.5" stroke-linecap="round" stroke-opacity="1.0" stroke="rgb(0, 0, 0)" stroke-linejoin="round" d=" M 647.450, 796.445 652.735, 795.924 657.817, 794.382 662.500, 791.879 " />
            <path fill="none" stroke-width="1.5" stroke-linecap="round" stroke-opacity="1.0" stroke="rgb(0, 0, 0)" stroke-linejoin="round" d=" M 642.165, 795.924 647.450, 796.445 " />
            <path fill="none" stroke-width="1.5" stroke-linecap="round" stroke-opacity="1.0" stroke="rgb(0, 0, 0)" stroke-linejoin="round" d=" M 637.083, 794.382 642.165, 795.924 " />
            <path fill="none" stroke-width="1.5" stroke-linecap="round" stroke-opacity="1.0" stroke="rgb(0, 0, 0)" stroke-linejoin="round" d=" M 622.422, 779.721 624.925, 784.405 628.294, 788.510 632.399, 791.879 637.083, 794.382 " />
            <path fill="none" stroke-width="1.5" stroke-linecap="round" stroke-opacity="1.0" stroke="rgb(0, 0, 0)" stroke-linejoin="round" d=" M 620.880, 774.640 622.422, 779.721 " />
            <path fill="none" stroke-width="1.5" stroke-linecap="round" stroke-opacity="1.0" stroke="rgb(0, 0, 0)" stroke-linejoin="round" d=" M 637.083, 744.327 632.399, 746.830 628.294, 750.199 624.925, 754.304 622.422, 758.988 620.880, 764.070 " />
            <path fill="none" stroke-width="1.5" stroke-linecap="round" stroke-opacity="1.0" stroke="rgb(0, 0, 0)" stroke-linejoin="round" d=" M 424.943, 754.304 421.574, 750.199 417.469, 746.830 412.786, 744.327 407.704, 742.785 " />
            <path fill="none" stroke-width="1.5" stroke-linecap="round" stroke-opacity="1.0" stroke="rgb(0, 0, 0)" stroke-linejoin="round" d=" M 424.943, 784.405 427.447, 779.721 428.988, 774.640 429.509, 769.355 428.988, 764.070 " />
            <path fill="none" stroke-width="1.5" stroke-linecap="round" stroke-opacity="1.0" stroke="rgb(0, 0, 0)" stroke-linejoin="round" d=" M 421.574, 788.510 424.943, 784.405 " />
            <path fill="none" stroke-width="1.5" stroke-linecap="round" stroke-opacity="1.0" stroke="rgb(0, 0, 0)" stroke-linejoin="round" d=" M 417.469, 791.879 421.574, 788.510 " />
            <path fill="none" stroke-width="1.5" stroke-linecap="round" stroke-opacity="1.0" stroke="rgb(0, 0, 0)" stroke-linejoin="round" d=" M 397.134, 795.924 402.419, 796.445 407.704, 795.924 412.786, 794.382 417.469, 791.879 " />
            <path fill="none" stroke-width="1.5" stroke-linecap="round" stroke-opacity="1.0" stroke="rgb(0, 0, 0)" stroke-linejoin="round" d=" M 392.052, 794.382 397.134, 795.924 " />
            <path fill="none" stroke-width="1.5" stroke-linecap="round" stroke-opacity="1.0" stroke="rgb(0, 0, 0)" stroke-linejoin="round" d=" M 379.894, 784.405 383.263, 788.510 387.368, 791.879 392.052, 794.382 " />
            <path fill="none" stroke-width="1.5" stroke-linecap="round" stroke-opacity="1.0" stroke="rgb(0, 0, 0)" stroke-linejoin="round" d=" M 377.391, 779.721 379.894, 784.405 " />
            <path fill="none" stroke-width="1.5" stroke-linecap="round" stroke-opacity="1.0" stroke="rgb(0, 0, 0)" stroke-linejoin="round" d=" M 375.849, 774.640 377.391, 779.721 " />
            <path fill="none" stroke-width="1.5" stroke-linecap="round" stroke-opacity="1.0" stroke="rgb(0, 0, 0)" stroke-linejoin="round" d=" M 377.391, 758.988 375.849, 764.070 375.329, 769.355 375.849, 774.640 " />
            <path fill="none" stroke-width="1.5" stroke-linecap="round" stroke-opacity="1.0" stroke="rgb(0, 0, 0)" stroke-linejoin="round" d=" M 407.704, 742.785 402.419, 742.265 397.134, 742.785 392.052, 744.327 387.368, 746.830 " />
            <path fill="none" stroke-width="1.5" stroke-linecap="round" stroke-opacity="1.0" stroke="rgb(0, 0, 0)" stroke-linejoin="round" d=" M 580.426, 774.640 580.946, 769.355 580.426, 764.070 578.884, 758.988 576.381, 754.304 573.012, 750.199 568.907, 746.830 " />
            <path fill="none" stroke-width="1.5" stroke-linecap="round" stroke-opacity="1.0" stroke="rgb(0, 0, 0)" stroke-linejoin="round" d=" M 573.012, 788.510 576.381, 784.405 578.884, 779.721 580.426, 774.640 " />
            <path fill="none" stroke-width="1.5" stroke-linecap="round" stroke-opacity="1.0" stroke="rgb(0, 0, 0)" stroke-linejoin="round" d=" M 568.907, 791.879 573.012, 788.510 " />
            <path fill="none" stroke-width="1.5" stroke-linecap="round" stroke-opacity="1.0" stroke="rgb(0, 0, 0)" stroke-linejoin="round" d=" M 548.571, 795.924 553.856, 796.445 559.141, 795.924 564.223, 794.382 568.907, 791.879 " />
            <path fill="none" stroke-width="1.5" stroke-linecap="round" stroke-opacity="1.0" stroke="rgb(0, 0, 0)" stroke-linejoin="round" d=" M 543.489, 794.382 548.571, 795.924 " />
            <path fill="none" stroke-width="1.5" stroke-linecap="round" stroke-opacity="1.0" stroke="rgb(0, 0, 0)" stroke-linejoin="round" d=" M 526.766, 769.355 527.287, 774.640 528.828, 779.721 531.332, 784.405 534.701, 788.510 538.806, 791.879 543.489, 794.382 " />
            <path fill="none" stroke-width="1.5" stroke-linecap="round" stroke-opacity="1.0" stroke="rgb(0, 0, 0)" stroke-linejoin="round" d=" M 559.141, 742.785 553.856, 742.265 548.571, 742.785 543.489, 744.327 539.090, 746.678 538.806, 746.830 534.701, 750.199 531.332, 754.304 528.828, 758.988 527.287, 764.070 526.766, 769.355 " />
            <path fill="none" stroke-width="1.5" stroke-linecap="round" stroke-opacity="1.0" stroke="rgb(0, 0, 0)" stroke-linejoin="round" d=" M 379.894, 754.304 377.391, 758.988 " />
            <path fill="none" stroke-width="1.5" stroke-linecap="round" stroke-opacity="1.0" stroke="rgb(0, 0, 0)" stroke-linejoin="round" d=" M 383.263, 750.199 379.894, 754.304 " />
            <path fill="none" stroke-width="1.5" stroke-linecap="round" stroke-opacity="1.0" stroke="rgb(0, 0, 0)" stroke-linejoin="round" d=" M 387.368, 746.830 383.263, 750.199 " />
            <path fill="none" stroke-width="1.5" stroke-linecap="round" stroke-opacity="1.0" stroke="rgb(0, 0, 0)" stroke-linejoin="round" d=" M 427.447, 758.988 424.943, 754.304 " />
            <path fill="none" stroke-width="1.5" stroke-linecap="round" stroke-opacity="1.0" stroke="rgb(0, 0, 0)" stroke-linejoin="round" d=" M 428.988, 764.070 427.447, 758.988 " />
            <path fill="none" stroke-width="1.5" stroke-linecap="round" stroke-opacity="1.0" stroke="rgb(0, 0, 0)" stroke-linejoin="round" d=" M 564.223, 744.327 559.141, 742.785 " />
            <path fill="none" stroke-width="1.5" stroke-linecap="round" stroke-opacity="1.0" stroke="rgb(0, 0, 0)" stroke-linejoin="round" d=" M 568.907, 746.830 564.223, 744.327 " />
            <path fill="none" stroke-width="1.5" stroke-linecap="round" stroke-opacity="1.0" stroke="rgb(0, 0, 0)" stroke-linejoin="round" d=" M 620.360, 769.355 620.880, 774.640 " />
            <path fill="none" stroke-width="1.5" stroke-linecap="round" stroke-opacity="1.0" stroke="rgb(0, 0, 0)" stroke-linejoin="round" d=" M 620.880, 764.070 620.360, 769.355 " />
            <path fill="none" stroke-width="1.5" stroke-linecap="round" stroke-opacity="1.0" stroke="rgb(0, 0, 0)" stroke-linejoin="round" d=" M 642.165, 742.785 637.083, 744.327 " />
            <path fill="none" stroke-width="1.5" stroke-linecap="round" stroke-opacity="1.0" stroke="rgb(0, 0, 0)" stroke-linejoin="round" d=" M 647.450, 742.265 642.165, 742.785 " />
            <path fill="none" stroke-width="1.5" stroke-linecap="round" stroke-opacity="1.0" stroke="rgb(0, 0, 0)" stroke-linejoin="round" d=" M 672.478, 758.988 669.974, 754.304 " />
        </g>
    </g>
</svg>
