<?xml version='1.0' encoding='ascii'?>
<svg xmlns="http://www.w3.org/2000/svg" xmlns:inkscape="http://www.inkscape.org/namespaces/inkscape" version="1.1" width="1024" height="1024">
    <g id="ViewLayer_LineSet" inkscape:groupmode="lineset" inkscape:label="ViewLayer_LineSet">
        <g inkscape:groupmode="layer" id="strokes" inkscape:label="strokes">
            <path fill="none" stroke-width="3.0" stroke-linecap="butt" stroke-opacity="1.0" stroke="rgb(0, 0, 0)" stroke-linejoin="round" d=" M 485.064, 796.444 485.064, 796.444 485.064, 786.444 485.064, 776.444 485.064, 766.444 485.064, 756.444 485.064, 746.444 485.064, 736.444 485.064, 726.444 485.064, 716.444 485.064, 706.444 485.064, 696.444 485.064, 686.444 485.064, 676.444 485.064, 666.444 485.064, 656.444 485.064, 646.444 485.064, 636.444 485.064, 626.444 485.064, 616.444 485.064, 606.444 485.064, 596.444 485.064, 586.444 485.064, 576.444 485.064, 566.444 485.064, 556.444 485.064, 546.444 485.064, 536.444 485.064, 526.444 485.064, 516.444 485.064, 506.445 485.064, 496.445 485.064, 486.445 485.064, 476.445 485.064, 466.445 485.064, 458.128 485.064, 458.128 " />
            <path fill="none" stroke-width="3.0" stroke-linecap="butt" stroke-opacity="1.0" stroke="rgb(0, 0, 0)" stroke-linejoin="round" d=" M 441.966, 458.128 441.966, 458.128 441.966, 468.128 441.966, 478.128 441.966, 488.128 441.966, 498.128 441.966, 508.128 441.966, 518.128 441.966, 528.128 441.966, 538.128 441.966, 548.128 441.966, 558.128 441.966, 568.128 441.966, 578.128 441.966, 588.128 441.966, 598.128 441.966, 608.128 441.966, 618.128 441.966, 628.128 441.966, 638.128 441.966, 648.128 441.966, 658.128 441.966, 668.128 441.966, 678.128 441.966, 688.128 441.966, 698.128 441.966, 708.128 441.966, 718.128 441.966, 728.128 441.966, 738.128 441.966, 748.128 441.966, 758.128 441.966, 768.128 441.966, 778.128 441.966, 788.128 441.966, 796.444 442.380, 796.444 443.607, 796.444 445.598, 796.444 448.278, 796.444 451.543, 796.444 455.269, 796.444 459.311, 796.444 463.515, 796.444 467.719, 796.444 471.762, 796.444 475.487, 796.444 478.753, 796.444 481.432, 796.444 483.424, 796.444 484.650, 796.444 485.064, 796.444 " />
            <path fill="none" stroke-width="3.0" stroke-linecap="butt" stroke-opacity="1.0" stroke="rgb(0, 0, 0)" stroke-linejoin="round" d=" M 700.552, 796.444 700.552, 796.444 700.552, 786.444 700.552, 776.444 700.552, 766.444 700.552, 756.444 700.552, 746.444 700.552, 736.444 700.552, 726.444 700.552, 716.444 700.552, 706.444 700.552, 696.444 700.552, 686.444 700.552, 676.444 700.552, 666.444 700.552, 656.444 700.552, 646.444 700.552, 636.444 700.552, 626.444 700.552, 616.444 700.552, 606.444 700.552, 596.444 700.552, 586.444 700.552, 576.444 700.552, 566.444 700.552, 556.444 700.552, 546.444 700.552, 536.444 700.552, 526.444 700.552, 516.444 700.552, 506.445 700.552, 496.445 700.552, 486.445 700.552, 476.445 700.552, 466.445 700.552, 458.128 700.552, 458.128 " />
            <path fill="none" stroke-width="3.0" stroke-linecap="butt" stroke-opacity="1.0" stroke="rgb(0, 0, 0)" stroke-linejoin="round" d=" M 657.455, 458.128 657.455, 458.128 657.455, 468.128 657.455, 478.128 657.455, 488.128 657.455, 498.128 657.455, 508.128 657.455, 518.128 657.455, 528.128 657.455, 538.128 657.455, 548.128 657.455, 558.128 657.455, 568.128 657.455, 578.128 657.455, 588.128 657.455, 598.128 657.455, 608.128 657.455, 618.128 657.455, 628.128 657.455, 638.128 657.455, 648.128 657.455, 658.128 657.455, 668.128 657.455, 678.128 657.455, 688.128 657.455, 698.128 657.455, 708.128 657.455, 718.128 657.455, 728.128 657.455, 738.128 657.455, 748.128 657.455, 758.128 657.455, 768.128 657.455, 778.128 657.455, 788.128 657.455, 796.444 657.455, 796.444 657.869, 796.444 659.095, 796.444 661.086, 796.444 663.766, 796.444 667.032, 796.444 670.757, 796.444 674.799, 796.444 679.003, 796.444 683.207, 796.444 687.250, 796.444 690.975, 796.444 694.241, 796.444 696.921, 796.444 698.912, 796.444 700.138, 796.444 700.552, 796.444 " />
            <path fill="none" stroke-width="3.0" stroke-linecap="butt" stroke-opacity="1.0" stroke="rgb(0, 0, 0)" stroke-linejoin="round" d=" M 700.552, 451.663 700.552, 445.199 700.552, 445.199 690.552, 445.199 680.552, 445.199 670.552, 445.199 660.552, 445.199 650.552, 445.199 640.552, 445.199 630.552, 445.199 620.552, 445.199 610.552, 445.199 600.552, 445.199 590.552, 445.199 580.552, 445.199 570.552, 445.199 560.552, 445.199 550.552, 445.199 540.552, 445.199 530.552, 445.199 520.552, 445.199 510.552, 445.199 500.552, 445.199 490.552, 445.199 480.552, 445.199 470.552, 445.199 460.552, 445.199 450.552, 445.199 441.966, 445.199 441.966, 455.199 441.966, 458.128 441.966, 458.128 441.966, 458.128 " />
            <path fill="none" stroke-width="3.0" stroke-linecap="butt" stroke-opacity="1.0" stroke="rgb(0, 0, 0)" stroke-linejoin="round" d=" M 700.552, 458.128 700.552, 458.128 700.552, 451.663 " />
            <path fill="none" stroke-width="3.0" stroke-linecap="butt" stroke-opacity="1.0" stroke="rgb(0, 0, 0)" stroke-linejoin="round" d=" M 441.966, 458.128 441.966, 458.128 441.966, 458.128 451.966, 458.128 461.966, 458.128 471.966, 458.128 481.966, 458.128 485.064, 458.128 485.064, 458.128 495.064, 458.128 505.064, 458.128 515.064, 458.128 525.064, 458.128 535.064, 458.128 545.064, 458.128 555.064, 458.128 565.064, 458.128 575.064, 458.128 585.064, 458.128 595.064, 458.128 605.064, 458.128 615.064, 458.128 625.064, 458.128 635.064, 458.128 645.064, 458.128 655.064, 458.128 657.455, 458.128 657.455, 458.128 667.455, 458.128 677.455, 458.128 687.455, 458.128 697.455, 458.128 700.552, 458.128 700.552, 458.128 " />
            <path fill="none" stroke-width="3.0" stroke-linecap="butt" stroke-opacity="1.0" stroke="rgb(0, 0, 0)" stroke-linejoin="round" d=" M 582.034, 330.990 582.034, 320.990 582.034, 310.990 582.034, 300.990 582.034, 290.990 582.034, 280.990 582.034, 270.990 582.034, 260.990 582.034, 250.990 582.034, 240.990 582.034, 230.990 582.034, 227.556 572.034, 227.556 562.034, 227.556 552.034, 227.556 542.034, 227.556 532.034, 227.556 522.034, 227.556 512.034, 227.556 502.034, 227.556 492.034, 227.556 482.034, 227.556 472.034, 227.556 462.034, 227.556 452.034, 227.556 442.034, 227.556 432.034, 227.556 422.034, 227.556 412.034, 227.556 402.034, 227.556 392.034, 227.556 382.034, 227.556 372.034, 227.556 362.034, 227.556 352.034, 227.556 342.034, 227.556 332.034, 227.556 323.448, 227.556 323.448, 237.556 323.448, 247.556 323.448, 257.556 323.448, 267.556 323.448, 277.556 323.448, 287.556 323.448, 297.556 323.448, 307.556 323.448, 317.556 323.448, 327.556 323.448, 330.990 333.448, 330.990 343.448, 330.990 353.448, 330.990 363.448, 330.990 373.448, 330.990 383.448, 330.990 393.448, 330.990 403.448, 330.990 413.448, 330.990 423.448, 330.990 433.448, 330.990 443.448, 330.990 453.448, 330.990 463.448, 330.990 473.448, 330.990 483.448, 330.990 493.448, 330.990 503.448, 330.990 513.448, 330.990 523.448, 330.990 533.448, 330.990 543.448, 330.990 553.448, 330.990 563.448, 330.990 573.448, 330.990 582.034, 330.990 " />
            <path fill="none" stroke-width="3.0" stroke-linecap="butt" stroke-opacity="1.0" stroke="rgb(0, 0, 0)" stroke-linejoin="round" d=" M 485.064, 796.444 485.064, 786.444 485.064, 776.444 485.064, 766.444 485.064, 756.444 485.064, 746.444 485.064, 736.444 485.064, 726.444 485.064, 716.444 485.064, 706.444 485.064, 696.444 485.064, 686.444 485.064, 676.444 485.064, 666.444 485.064, 656.444 485.064, 646.444 485.064, 636.444 485.064, 626.444 485.064, 616.444 485.064, 606.444 485.064, 596.444 485.064, 586.444 485.064, 576.444 485.064, 566.444 485.064, 556.444 485.064, 546.444 485.064, 536.444 485.064, 526.444 485.064, 516.444 485.064, 506.445 485.064, 496.445 485.064, 486.445 485.064, 476.445 485.064, 466.445 485.064, 458.128 485.064, 458.128 " />
            <path fill="none" stroke-width="3.0" stroke-linecap="butt" stroke-opacity="1.0" stroke="rgb(0, 0, 0)" stroke-linejoin="round" d=" M 700.552, 796.444 700.552, 786.444 700.552, 776.444 700.552, 766.444 700.552, 756.444 700.552, 746.444 700.552, 736.444 700.552, 726.444 700.552, 716.444 700.552, 706.444 700.552, 696.444 700.552, 686.444 700.552, 676.444 700.552, 666.444 700.552, 656.444 700.552, 646.444 700.552, 636.444 700.552, 626.444 700.552, 616.444 700.552, 606.444 700.552, 596.444 700.552, 586.444 700.552, 576.444 700.552, 566.444 700.552, 556.444 700.552, 546.444 700.552, 536.444 700.552, 526.444 700.552, 516.444 700.552, 506.445 700.552, 496.445 700.552, 486.445 700.552, 476.445 700.552, 466.445 700.552, 458.128 700.552, 458.128 " />
            <path fill="none" stroke-width="3.0" stroke-linecap="butt" stroke-opacity="1.0" stroke="rgb(0, 0, 0)" stroke-linejoin="round" d=" M 485.064, 458.128 495.064, 458.128 505.064, 458.128 515.064, 458.128 525.064, 458.128 535.064, 458.128 545.064, 458.128 555.064, 458.128 565.064, 458.128 575.064, 458.128 585.064, 458.128 595.064, 458.128 605.064, 458.128 615.064, 458.128 625.064, 458.128 635.064, 458.128 645.064, 458.128 655.064, 458.128 657.455, 458.128 " />
        </g>
    </g>
    <g id="ViewLayer_TechnicalLines" inkscape:groupmode="lineset" inkscape:label="ViewLayer_TechnicalLines">
        <g inkscape:groupmode="layer" id="strokes" inkscape:label="strokes">
            <path fill="none" stroke-width="3.0" stroke-linecap="butt" stroke-opacity="1.0" stroke="rgb(0, 0, 0)" stroke-linejoin="round" d=" M 485.064, 796.444 485.064, 796.444 485.064, 786.444 485.064, 776.444 485.064, 766.444 485.064, 756.444 485.064, 746.444 485.064, 736.444 485.064, 726.444 485.064, 716.444 485.064, 706.444 485.064, 696.444 485.064, 686.444 485.064, 676.444 485.064, 666.444 485.064, 656.444 485.064, 646.444 485.064, 636.444 485.064, 626.444 485.064, 616.444 485.064, 606.444 485.064, 596.444 485.064, 586.444 485.064, 576.444 485.064, 566.444 485.064, 556.444 485.064, 546.444 485.064, 536.444 485.064, 526.444 485.064, 516.444 485.064, 506.445 485.064, 496.445 485.064, 486.445 485.064, 476.445 485.064, 466.445 485.064, 458.128 485.064, 458.128 " />
            <path fill="none" stroke-width="3.0" stroke-linecap="butt" stroke-opacity="1.0" stroke="rgb(0, 0, 0)" stroke-linejoin="round" d=" M 441.966, 458.128 441.966, 458.128 441.966, 468.128 441.966, 478.128 441.966, 488.128 441.966, 498.128 441.966, 508.128 441.966, 518.128 441.966, 528.128 441.966, 538.128 441.966, 548.128 441.966, 558.128 441.966, 568.128 441.966, 578.128 441.966, 588.128 441.966, 598.128 441.966, 608.128 441.966, 618.128 441.966, 628.128 441.966, 638.128 441.966, 648.128 441.966, 658.128 441.966, 668.128 441.966, 678.128 441.966, 688.128 441.966, 698.128 441.966, 708.128 441.966, 718.128 441.966, 728.128 441.966, 738.128 441.966, 748.128 441.966, 758.128 441.966, 768.128 441.966, 778.128 441.966, 788.128 441.966, 796.444 442.380, 796.444 443.607, 796.444 445.598, 796.444 448.278, 796.444 451.543, 796.444 455.269, 796.444 459.311, 796.444 463.515, 796.444 467.719, 796.444 471.762, 796.444 475.487, 796.444 478.753, 796.444 481.432, 796.444 483.424, 796.444 484.650, 796.444 485.064, 796.444 " />
            <path fill="none" stroke-width="3.0" stroke-linecap="butt" stroke-opacity="1.0" stroke="rgb(0, 0, 0)" stroke-linejoin="round" d=" M 700.552, 796.444 700.552, 796.444 700.552, 786.444 700.552, 776.444 700.552, 766.444 700.552, 756.444 700.552, 746.444 700.552, 736.444 700.552, 726.444 700.552, 716.444 700.552, 706.444 700.552, 696.444 700.552, 686.444 700.552, 676.444 700.552, 666.444 700.552, 656.444 700.552, 646.444 700.552, 636.444 700.552, 626.444 700.552, 616.444 700.552, 606.444 700.552, 596.444 700.552, 586.444 700.552, 576.444 700.552, 566.444 700.552, 556.444 700.552, 546.444 700.552, 536.444 700.552, 526.444 700.552, 516.444 700.552, 506.445 700.552, 496.445 700.552, 486.445 700.552, 476.445 700.552, 466.445 700.552, 458.128 700.552, 458.128 " />
            <path fill="none" stroke-width="3.0" stroke-linecap="butt" stroke-opacity="1.0" stroke="rgb(0, 0, 0)" stroke-linejoin="round" d=" M 657.455, 458.128 657.455, 458.128 657.455, 468.128 657.455, 478.128 657.455, 488.128 657.455, 498.128 657.455, 508.128 657.455, 518.128 657.455, 528.128 657.455, 538.128 657.455, 548.128 657.455, 558.128 657.455, 568.128 657.455, 578.128 657.455, 588.128 657.455, 598.128 657.455, 608.128 657.455, 618.128 657.455, 628.128 657.455, 638.128 657.455, 648.128 657.455, 658.128 657.455, 668.128 657.455, 678.128 657.455, 688.128 657.455, 698.128 657.455, 708.128 657.455, 718.128 657.455, 728.128 657.455, 738.128 657.455, 748.128 657.455, 758.128 657.455, 768.128 657.455, 778.128 657.455, 788.128 657.455, 796.444 657.455, 796.444 657.869, 796.444 659.095, 796.444 661.086, 796.444 663.766, 796.444 667.032, 796.444 670.757, 796.444 674.799, 796.444 679.003, 796.444 683.207, 796.444 687.250, 796.444 690.975, 796.444 694.241, 796.444 696.921, 796.444 698.912, 796.444 700.138, 796.444 700.552, 796.444 " />
            <path fill="none" stroke-width="3.0" stroke-linecap="butt" stroke-opacity="1.0" stroke="rgb(0, 0, 0)" stroke-linejoin="round" d=" M 700.552, 451.663 700.552, 445.199 700.552, 445.199 690.552, 445.199 680.552, 445.199 670.552, 445.199 660.552, 445.199 650.552, 445.199 640.552, 445.199 630.552, 445.199 620.552, 445.199 610.552, 445.199 600.552, 445.199 590.552, 445.199 580.552, 445.199 570.552, 445.199 560.552, 445.199 550.552, 445.199 540.552, 445.199 530.552, 445.199 520.552, 445.199 510.552, 445.199 500.552, 445.199 490.552, 445.199 480.552, 445.199 470.552, 445.199 460.552, 445.199 450.552, 445.199 441.966, 445.199 441.966, 455.199 441.966, 458.128 441.966, 458.128 441.966, 458.128 " />
            <path fill="none" stroke-width="3.0" stroke-linecap="butt" stroke-opacity="1.0" stroke="rgb(0, 0, 0)" stroke-linejoin="round" d=" M 700.552, 458.128 700.552, 458.128 700.552, 451.663 " />
            <path fill="none" stroke-width="3.0" stroke-linecap="butt" stroke-opacity="1.0" stroke="rgb(0, 0, 0)" stroke-linejoin="round" d=" M 441.966, 458.128 441.966, 458.128 441.966, 458.128 451.966, 458.128 461.966, 458.128 471.966, 458.128 481.966, 458.128 485.064, 458.128 485.064, 458.128 495.064, 458.128 505.064, 458.128 515.064, 458.128 525.064, 458.128 535.064, 458.128 545.064, 458.128 555.064, 458.128 565.064, 458.128 575.064, 458.128 585.064, 458.128 595.064, 458.128 605.064, 458.128 615.064, 458.128 625.064, 458.128 635.064, 458.128 645.064, 458.128 655.064, 458.128 657.455, 458.128 657.455, 458.128 667.455, 458.128 677.455, 458.128 687.455, 458.128 697.455, 458.128 700.552, 458.128 700.552, 458.128 " />
            <path fill="none" stroke-width="3.0" stroke-linecap="butt" stroke-opacity="1.0" stroke="rgb(0, 0, 0)" stroke-linejoin="round" d=" M 582.034, 330.990 582.034, 320.990 582.034, 310.990 582.034, 300.990 582.034, 290.990 582.034, 280.990 582.034, 270.990 582.034, 260.990 582.034, 250.990 582.034, 240.990 582.034, 230.990 582.034, 227.556 572.034, 227.556 562.034, 227.556 552.034, 227.556 542.034, 227.556 532.034, 227.556 522.034, 227.556 512.034, 227.556 502.034, 227.556 492.034, 227.556 482.034, 227.556 472.034, 227.556 462.034, 227.556 452.034, 227.556 442.034, 227.556 432.034, 227.556 422.034, 227.556 412.034, 227.556 402.034, 227.556 392.034, 227.556 382.034, 227.556 372.034, 227.556 362.034, 227.556 352.034, 227.556 342.034, 227.556 332.034, 227.556 323.448, 227.556 323.448, 237.556 323.448, 247.556 323.448, 257.556 323.448, 267.556 323.448, 277.556 323.448, 287.556 323.448, 297.556 323.448, 307.556 323.448, 317.556 323.448, 327.556 323.448, 330.990 333.448, 330.990 343.448, 330.990 353.448, 330.990 363.448, 330.990 373.448, 330.990 383.448, 330.990 393.448, 330.990 403.448, 330.990 413.448, 330.990 423.448, 330.990 433.448, 330.990 443.448, 330.990 453.448, 330.990 463.448, 330.990 473.448, 330.990 483.448, 330.990 493.448, 330.990 503.448, 330.990 513.448, 330.990 523.448, 330.990 533.448, 330.990 543.448, 330.990 553.448, 330.990 563.448, 330.990 573.448, 330.990 582.034, 330.990 " />
            <path fill="none" stroke-width="3.0" stroke-linecap="butt" stroke-opacity="1.0" stroke="rgb(0, 0, 0)" stroke-linejoin="round" d=" M 485.064, 796.444 485.064, 786.444 485.064, 776.444 485.064, 766.444 485.064, 756.444 485.064, 746.444 485.064, 736.444 485.064, 726.444 485.064, 716.444 485.064, 706.444 485.064, 696.444 485.064, 686.444 485.064, 676.444 485.064, 666.444 485.064, 656.444 485.064, 646.444 485.064, 636.444 485.064, 626.444 485.064, 616.444 485.064, 606.444 485.064, 596.444 485.064, 586.444 485.064, 576.444 485.064, 566.444 485.064, 556.444 485.064, 546.444 485.064, 536.444 485.064, 526.444 485.064, 516.444 485.064, 506.445 485.064, 496.445 485.064, 486.445 485.064, 476.445 485.064, 466.445 485.064, 458.128 485.064, 458.128 " />
            <path fill="none" stroke-width="3.0" stroke-linecap="butt" stroke-opacity="1.0" stroke="rgb(0, 0, 0)" stroke-linejoin="round" d=" M 700.552, 796.444 700.552, 786.444 700.552, 776.444 700.552, 766.444 700.552, 756.444 700.552, 746.444 700.552, 736.444 700.552, 726.444 700.552, 716.444 700.552, 706.444 700.552, 696.444 700.552, 686.444 700.552, 676.444 700.552, 666.444 700.552, 656.444 700.552, 646.444 700.552, 636.444 700.552, 626.444 700.552, 616.444 700.552, 606.444 700.552, 596.444 700.552, 586.444 700.552, 576.444 700.552, 566.444 700.552, 556.444 700.552, 546.444 700.552, 536.444 700.552, 526.444 700.552, 516.444 700.552, 506.445 700.552, 496.445 700.552, 486.445 700.552, 476.445 700.552, 466.445 700.552, 458.128 700.552, 458.128 " />
            <path fill="none" stroke-width="3.0" stroke-linecap="butt" stroke-opacity="1.0" stroke="rgb(0, 0, 0)" stroke-linejoin="round" d=" M 485.064, 458.128 495.064, 458.128 505.064, 458.128 515.064, 458.128 525.064, 458.128 535.064, 458.128 545.064, 458.128 555.064, 458.128 565.064, 458.128 575.064, 458.128 585.064, 458.128 595.064, 458.128 605.064, 458.128 615.064, 458.128 625.064, 458.128 635.064, 458.128 645.064, 458.128 655.064, 458.128 657.455, 458.128 " />
        </g>
    </g>
    <g id="ViewLayer_TechnicalLines.001" inkscape:groupmode="lineset" inkscape:label="ViewLayer_TechnicalLines.001">
        <g inkscape:groupmode="layer" id="strokes" inkscape:label="strokes">
            <path fill="none" stroke-width="1.5" stroke-linecap="round" stroke-opacity="1.0" stroke="rgb(0, 0, 0)" stroke-linejoin="round" d=" M 485.064, 796.444 485.064, 796.444 485.064, 786.444 485.064, 776.444 485.064, 766.444 485.064, 756.444 485.064, 746.444 485.064, 736.444 485.064, 726.444 485.064, 716.444 485.064, 706.444 485.064, 696.444 485.064, 686.444 485.064, 676.444 485.064, 666.444 485.064, 656.444 485.064, 646.444 485.064, 636.444 485.064, 626.444 485.064, 616.444 485.064, 606.444 485.064, 596.444 485.064, 586.444 485.064, 576.444 485.064, 566.444 485.064, 556.444 485.064, 546.444 485.064, 536.444 485.064, 526.444 485.064, 516.444 485.064, 506.445 485.064, 496.445 485.064, 486.445 485.064, 476.445 485.064, 466.445 485.064, 458.128 485.064, 458.128 " />
            <path fill="none" stroke-width="1.5" stroke-linecap="round" stroke-opacity="1.0" stroke="rgb(0, 0, 0)" stroke-linejoin="round" d=" M 441.966, 458.128 441.966, 458.128 441.966, 468.128 441.966, 478.128 441.966, 488.128 441.966, 498.128 441.966, 508.128 441.966, 518.128 441.966, 528.128 441.966, 538.128 441.966, 548.128 441.966, 558.128 441.966, 568.128 441.966, 578.128 441.966, 588.128 441.966, 598.128 441.966, 608.128 441.966, 618.128 441.966, 628.128 441.966, 638.128 441.966, 648.128 441.966, 658.128 441.966, 668.128 441.966, 678.128 441.966, 688.128 441.966, 698.128 441.966, 708.128 441.966, 718.128 441.966, 728.128 441.966, 738.128 441.966, 748.128 441.966, 758.128 441.966, 768.128 441.966, 778.128 441.966, 788.128 441.966, 796.444 442.380, 796.444 443.607, 796.444 445.598, 796.444 448.278, 796.444 451.543, 796.444 455.269, 796.444 459.311, 796.444 463.515, 796.444 467.719, 796.444 471.762, 796.444 475.487, 796.444 478.753, 796.444 481.432, 796.444 483.424, 796.444 484.650, 796.444 485.064, 796.444 " />
            <path fill="none" stroke-width="1.5" stroke-linecap="round" stroke-opacity="1.0" stroke="rgb(0, 0, 0)" stroke-linejoin="round" d=" M 700.552, 796.444 700.552, 796.444 700.552, 786.444 700.552, 776.444 700.552, 766.444 700.552, 756.444 700.552, 746.444 700.552, 736.444 700.552, 726.444 700.552, 716.444 700.552, 706.444 700.552, 696.444 700.552, 686.444 700.552, 676.444 700.552, 666.444 700.552, 656.444 700.552, 646.444 700.552, 636.444 700.552, 626.444 700.552, 616.444 700.552, 606.444 700.552, 596.444 700.552, 586.444 700.552, 576.444 700.552, 566.444 700.552, 556.444 700.552, 546.444 700.552, 536.444 700.552, 526.444 700.552, 516.444 700.552, 506.445 700.552, 496.445 700.552, 486.445 700.552, 476.445 700.552, 466.445 700.552, 458.128 700.552, 458.128 " />
            <path fill="none" stroke-width="1.5" stroke-linecap="round" stroke-opacity="1.0" stroke="rgb(0, 0, 0)" stroke-linejoin="round" d=" M 657.455, 458.128 657.455, 458.128 657.455, 468.128 657.455, 478.128 657.455, 488.128 657.455, 498.128 657.455, 508.128 657.455, 518.128 657.455, 528.128 657.455, 538.128 657.455, 548.128 657.455, 558.128 657.455, 568.128 657.455, 578.128 657.455, 588.128 657.455, 598.128 657.455, 608.128 657.455, 618.128 657.455, 628.128 657.455, 638.128 657.455, 648.128 657.455, 658.128 657.455, 668.128 657.455, 678.128 657.455, 688.128 657.455, 698.128 657.455, 708.128 657.455, 718.128 657.455, 728.128 657.455, 738.128 657.455, 748.128 657.455, 758.128 657.455, 768.128 657.455, 778.128 657.455, 788.128 657.455, 796.444 657.455, 796.444 657.869, 796.444 659.095, 796.444 661.086, 796.444 663.766, 796.444 667.032, 796.444 670.757, 796.444 674.799, 796.444 679.003, 796.444 683.207, 796.444 687.250, 796.444 690.975, 796.444 694.241, 796.444 696.921, 796.444 698.912, 796.444 700.138, 796.444 700.552, 796.444 " />
            <path fill="none" stroke-width="1.5" stroke-linecap="round" stroke-opacity="1.0" stroke="rgb(0, 0, 0)" stroke-linejoin="round" d=" M 700.552, 451.663 700.552, 445.199 700.552, 445.199 690.552, 445.199 680.552, 445.199 670.552, 445.199 660.552, 445.199 650.552, 445.199 640.552, 445.199 630.552, 445.199 620.552, 445.199 610.552, 445.199 600.552, 445.199 590.552, 445.199 580.552, 445.199 570.552, 445.199 560.552, 445.199 550.552, 445.199 540.552, 445.199 530.552, 445.199 520.552, 445.199 510.552, 445.199 500.552, 445.199 490.552, 445.199 480.552, 445.199 470.552, 445.199 460.552, 445.199 450.552, 445.199 441.966, 445.199 441.966, 455.199 441.966, 458.128 441.966, 458.128 441.966, 458.128 " />
            <path fill="none" stroke-width="1.5" stroke-linecap="round" stroke-opacity="1.0" stroke="rgb(0, 0, 0)" stroke-linejoin="round" d=" M 700.552, 458.128 700.552, 458.128 700.552, 451.663 " />
            <path fill="none" stroke-width="1.5" stroke-linecap="round" stroke-opacity="1.0" stroke="rgb(0, 0, 0)" stroke-linejoin="round" d=" M 441.966, 458.128 441.966, 458.128 441.966, 458.128 451.966, 458.128 461.966, 458.128 471.966, 458.128 481.966, 458.128 485.064, 458.128 485.064, 458.128 495.064, 458.128 505.064, 458.128 515.064, 458.128 525.064, 458.128 535.064, 458.128 545.064, 458.128 555.064, 458.128 565.064, 458.128 575.064, 458.128 585.064, 458.128 595.064, 458.128 605.064, 458.128 615.064, 458.128 625.064, 458.128 635.064, 458.128 645.064, 458.128 655.064, 458.128 657.455, 458.128 657.455, 458.128 667.455, 458.128 677.455, 458.128 687.455, 458.128 697.455, 458.128 700.552, 458.128 700.552, 458.128 " />
            <path fill="none" stroke-width="1.5" stroke-linecap="round" stroke-opacity="1.0" stroke="rgb(0, 0, 0)" stroke-linejoin="round" d=" M 582.034, 330.990 582.034, 320.990 582.034, 310.990 582.034, 300.990 582.034, 290.990 582.034, 280.990 582.034, 270.990 582.034, 260.990 582.034, 250.990 582.034, 240.990 582.034, 230.990 582.034, 227.556 572.034, 227.556 562.034, 227.556 552.034, 227.556 542.034, 227.556 532.034, 227.556 522.034, 227.556 512.034, 227.556 502.034, 227.556 492.034, 227.556 482.034, 227.556 472.034, 227.556 462.034, 227.556 452.034, 227.556 442.034, 227.556 432.034, 227.556 422.034, 227.556 412.034, 227.556 402.034, 227.556 392.034, 227.556 382.034, 227.556 372.034, 227.556 362.034, 227.556 352.034, 227.556 342.034, 227.556 332.034, 227.556 323.448, 227.556 323.448, 237.556 323.448, 247.556 323.448, 257.556 323.448, 267.556 323.448, 277.556 323.448, 287.556 323.448, 297.556 323.448, 307.556 323.448, 317.556 323.448, 327.556 323.448, 330.990 333.448, 330.990 343.448, 330.990 353.448, 330.990 363.448, 330.990 373.448, 330.990 383.448, 330.990 393.448, 330.990 403.448, 330.990 413.448, 330.990 423.448, 330.990 433.448, 330.990 443.448, 330.990 453.448, 330.990 463.448, 330.990 473.448, 330.990 483.448, 330.990 493.448, 330.990 503.448, 330.990 513.448, 330.990 523.448, 330.990 533.448, 330.990 543.448, 330.990 553.448, 330.990 563.448, 330.990 573.448, 330.990 582.034, 330.990 " />
            <path fill="none" stroke-width="1.5" stroke-linecap="round" stroke-opacity="1.0" stroke="rgb(0, 0, 0)" stroke-linejoin="round" d=" M 485.064, 796.444 485.064, 786.444 485.064, 776.444 485.064, 766.444 485.064, 756.444 485.064, 746.444 485.064, 736.444 485.064, 726.444 485.064, 716.444 485.064, 706.444 485.064, 696.444 485.064, 686.444 485.064, 676.444 485.064, 666.444 485.064, 656.444 485.064, 646.444 485.064, 636.444 485.064, 626.444 485.064, 616.444 485.064, 606.444 485.064, 596.444 485.064, 586.444 485.064, 576.444 485.064, 566.444 485.064, 556.444 485.064, 546.444 485.064, 536.444 485.064, 526.444 485.064, 516.444 485.064, 506.445 485.064, 496.445 485.064, 486.445 485.064, 476.445 485.064, 466.445 485.064, 458.128 485.064, 458.128 " />
            <path fill="none" stroke-width="1.5" stroke-linecap="round" stroke-opacity="1.0" stroke="rgb(0, 0, 0)" stroke-linejoin="round" d=" M 700.552, 796.444 700.552, 786.444 700.552, 776.444 700.552, 766.444 700.552, 756.444 700.552, 746.444 700.552, 736.444 700.552, 726.444 700.552, 716.444 700.552, 706.444 700.552, 696.444 700.552, 686.444 700.552, 676.444 700.552, 666.444 700.552, 656.444 700.552, 646.444 700.552, 636.444 700.552, 626.444 700.552, 616.444 700.552, 606.444 700.552, 596.444 700.552, 586.444 700.552, 576.444 700.552, 566.444 700.552, 556.444 700.552, 546.444 700.552, 536.444 700.552, 526.444 700.552, 516.444 700.552, 506.445 700.552, 496.445 700.552, 486.445 700.552, 476.445 700.552, 466.445 700.552, 458.128 700.552, 458.128 " />
            <path fill="none" stroke-width="1.5" stroke-linecap="round" stroke-opacity="1.0" stroke="rgb(0, 0, 0)" stroke-linejoin="round" d=" M 485.064, 458.128 495.064, 458.128 505.064, 458.128 515.064, 458.128 525.064, 458.128 535.064, 458.128 545.064, 458.128 555.064, 458.128 565.064, 458.128 575.064, 458.128 585.064, 458.128 595.064, 458.128 605.064, 458.128 615.064, 458.128 625.064, 458.128 635.064, 458.128 645.064, 458.128 655.064, 458.128 657.455, 458.128 " />
        </g>
    </g>
    <g id="ViewLayer_TechnicalLines.002" inkscape:groupmode="lineset" inkscape:label="ViewLayer_TechnicalLines.002">
        <g inkscape:groupmode="layer" id="strokes" inkscape:label="strokes">
            <path fill="none" stroke-width="1.5" stroke-linecap="round" stroke-opacity="1.0" stroke="rgb(0, 0, 0)" stroke-linejoin="round" d=" M 485.064, 796.444 485.064, 796.444 485.064, 786.444 485.064, 776.444 485.064, 766.444 485.064, 756.444 485.064, 746.444 485.064, 736.444 485.064, 726.444 485.064, 716.444 485.064, 706.444 485.064, 696.444 485.064, 686.444 485.064, 676.444 485.064, 666.444 485.064, 656.444 485.064, 646.444 485.064, 636.444 485.064, 626.444 485.064, 616.444 485.064, 606.444 485.064, 596.444 485.064, 586.444 485.064, 576.444 485.064, 566.444 485.064, 556.444 485.064, 546.444 485.064, 536.444 485.064, 526.444 485.064, 516.444 485.064, 506.445 485.064, 496.445 485.064, 486.445 485.064, 476.445 485.064, 466.445 485.064, 458.128 485.064, 458.128 " />
            <path fill="none" stroke-width="1.5" stroke-linecap="round" stroke-opacity="1.0" stroke="rgb(0, 0, 0)" stroke-linejoin="round" d=" M 441.966, 458.128 441.966, 458.128 441.966, 468.128 441.966, 478.128 441.966, 488.128 441.966, 498.128 441.966, 508.128 441.966, 518.128 441.966, 528.128 441.966, 538.128 441.966, 548.128 441.966, 558.128 441.966, 568.128 441.966, 578.128 441.966, 588.128 441.966, 598.128 441.966, 608.128 441.966, 618.128 441.966, 628.128 441.966, 638.128 441.966, 648.128 441.966, 658.128 441.966, 668.128 441.966, 678.128 441.966, 688.128 441.966, 698.128 441.966, 708.128 441.966, 718.128 441.966, 728.128 441.966, 738.128 441.966, 748.128 441.966, 758.128 441.966, 768.128 441.966, 778.128 441.966, 788.128 441.966, 796.444 442.380, 796.444 443.607, 796.444 445.598, 796.444 448.278, 796.444 451.543, 796.444 455.269, 796.444 459.311, 796.444 463.515, 796.444 467.719, 796.444 471.762, 796.444 475.487, 796.444 478.753, 796.444 481.432, 796.444 483.424, 796.444 484.650, 796.444 485.064, 796.444 " />
            <path fill="none" stroke-width="1.5" stroke-linecap="round" stroke-opacity="1.0" stroke="rgb(0, 0, 0)" stroke-linejoin="round" d=" M 700.552, 796.444 700.552, 796.444 700.552, 786.444 700.552, 776.444 700.552, 766.444 700.552, 756.444 700.552, 746.444 700.552, 736.444 700.552, 726.444 700.552, 716.444 700.552, 706.444 700.552, 696.444 700.552, 686.444 700.552, 676.444 700.552, 666.444 700.552, 656.444 700.552, 646.444 700.552, 636.444 700.552, 626.444 700.552, 616.444 700.552, 606.444 700.552, 596.444 700.552, 586.444 700.552, 576.444 700.552, 566.444 700.552, 556.444 700.552, 546.444 700.552, 536.444 700.552, 526.444 700.552, 516.444 700.552, 506.445 700.552, 496.445 700.552, 486.445 700.552, 476.445 700.552, 466.445 700.552, 458.128 700.552, 458.128 " />
            <path fill="none" stroke-width="1.5" stroke-linecap="round" stroke-opacity="1.0" stroke="rgb(0, 0, 0)" stroke-linejoin="round" d=" M 657.455, 458.128 657.455, 458.128 657.455, 468.128 657.455, 478.128 657.455, 488.128 657.455, 498.128 657.455, 508.128 657.455, 518.128 657.455, 528.128 657.455, 538.128 657.455, 548.128 657.455, 558.128 657.455, 568.128 657.455, 578.128 657.455, 588.128 657.455, 598.128 657.455, 608.128 657.455, 618.128 657.455, 628.128 657.455, 638.128 657.455, 648.128 657.455, 658.128 657.455, 668.128 657.455, 678.128 657.455, 688.128 657.455, 698.128 657.455, 708.128 657.455, 718.128 657.455, 728.128 657.455, 738.128 657.455, 748.128 657.455, 758.128 657.455, 768.128 657.455, 778.128 657.455, 788.128 657.455, 796.444 657.455, 796.444 657.869, 796.444 659.095, 796.444 661.086, 796.444 663.766, 796.444 667.032, 796.444 670.757, 796.444 674.799, 796.444 679.003, 796.444 683.207, 796.444 687.250, 796.444 690.975, 796.444 694.241, 796.444 696.921, 796.444 698.912, 796.444 700.138, 796.444 700.552, 796.444 " />
            <path fill="none" stroke-width="1.5" stroke-linecap="round" stroke-opacity="1.0" stroke="rgb(0, 0, 0)" stroke-linejoin="round" d=" M 700.552, 451.663 700.552, 445.199 700.552, 445.199 690.552, 445.199 680.552, 445.199 670.552, 445.199 660.552, 445.199 650.552, 445.199 640.552, 445.199 630.552, 445.199 620.552, 445.199 610.552, 445.199 600.552, 445.199 590.552, 445.199 580.552, 445.199 570.552, 445.199 560.552, 445.199 550.552, 445.199 540.552, 445.199 530.552, 445.199 520.552, 445.199 510.552, 445.199 500.552, 445.199 490.552, 445.199 480.552, 445.199 470.552, 445.199 460.552, 445.199 450.552, 445.199 441.966, 445.199 441.966, 455.199 441.966, 458.128 441.966, 458.128 441.966, 458.128 " />
            <path fill="none" stroke-width="1.5" stroke-linecap="round" stroke-opacity="1.0" stroke="rgb(0, 0, 0)" stroke-linejoin="round" d=" M 700.552, 458.128 700.552, 458.128 700.552, 451.663 " />
            <path fill="none" stroke-width="1.5" stroke-linecap="round" stroke-opacity="1.0" stroke="rgb(0, 0, 0)" stroke-linejoin="round" d=" M 441.966, 458.128 441.966, 458.128 441.966, 458.128 451.966, 458.128 461.966, 458.128 471.966, 458.128 481.966, 458.128 485.064, 458.128 485.064, 458.128 495.064, 458.128 505.064, 458.128 515.064, 458.128 525.064, 458.128 535.064, 458.128 545.064, 458.128 555.064, 458.128 565.064, 458.128 575.064, 458.128 585.064, 458.128 595.064, 458.128 605.064, 458.128 615.064, 458.128 625.064, 458.128 635.064, 458.128 645.064, 458.128 655.064, 458.128 657.455, 458.128 657.455, 458.128 667.455, 458.128 677.455, 458.128 687.455, 458.128 697.455, 458.128 700.552, 458.128 700.552, 458.128 " />
            <path fill="none" stroke-width="1.5" stroke-linecap="round" stroke-opacity="1.0" stroke="rgb(0, 0, 0)" stroke-linejoin="round" d=" M 582.034, 330.990 582.034, 320.990 582.034, 310.990 582.034, 300.990 582.034, 290.990 582.034, 280.990 582.034, 270.990 582.034, 260.990 582.034, 250.990 582.034, 240.990 582.034, 230.990 582.034, 227.556 572.034, 227.556 562.034, 227.556 552.034, 227.556 542.034, 227.556 532.034, 227.556 522.034, 227.556 512.034, 227.556 502.034, 227.556 492.034, 227.556 482.034, 227.556 472.034, 227.556 462.034, 227.556 452.034, 227.556 442.034, 227.556 432.034, 227.556 422.034, 227.556 412.034, 227.556 402.034, 227.556 392.034, 227.556 382.034, 227.556 372.034, 227.556 362.034, 227.556 352.034, 227.556 342.034, 227.556 332.034, 227.556 323.448, 227.556 323.448, 237.556 323.448, 247.556 323.448, 257.556 323.448, 267.556 323.448, 277.556 323.448, 287.556 323.448, 297.556 323.448, 307.556 323.448, 317.556 323.448, 327.556 323.448, 330.990 333.448, 330.990 343.448, 330.990 353.448, 330.990 363.448, 330.990 373.448, 330.990 383.448, 330.990 393.448, 330.990 403.448, 330.990 413.448, 330.990 423.448, 330.990 433.448, 330.990 443.448, 330.990 453.448, 330.990 463.448, 330.990 473.448, 330.990 483.448, 330.990 493.448, 330.990 503.448, 330.990 513.448, 330.990 523.448, 330.990 533.448, 330.990 543.448, 330.990 553.448, 330.990 563.448, 330.990 573.448, 330.990 582.034, 330.990 " />
            <path fill="none" stroke-width="1.5" stroke-linecap="round" stroke-opacity="1.0" stroke="rgb(0, 0, 0)" stroke-linejoin="round" d=" M 485.064, 796.444 485.064, 786.444 485.064, 776.444 485.064, 766.444 485.064, 756.444 485.064, 746.444 485.064, 736.444 485.064, 726.444 485.064, 716.444 485.064, 706.444 485.064, 696.444 485.064, 686.444 485.064, 676.444 485.064, 666.444 485.064, 656.444 485.064, 646.444 485.064, 636.444 485.064, 626.444 485.064, 616.444 485.064, 606.444 485.064, 596.444 485.064, 586.444 485.064, 576.444 485.064, 566.444 485.064, 556.444 485.064, 546.444 485.064, 536.444 485.064, 526.444 485.064, 516.444 485.064, 506.445 485.064, 496.445 485.064, 486.445 485.064, 476.445 485.064, 466.445 485.064, 458.128 485.064, 458.128 " />
            <path fill="none" stroke-width="1.5" stroke-linecap="round" stroke-opacity="1.0" stroke="rgb(0, 0, 0)" stroke-linejoin="round" d=" M 700.552, 796.444 700.552, 786.444 700.552, 776.444 700.552, 766.444 700.552, 756.444 700.552, 746.444 700.552, 736.444 700.552, 726.444 700.552, 716.444 700.552, 706.444 700.552, 696.444 700.552, 686.444 700.552, 676.444 700.552, 666.444 700.552, 656.444 700.552, 646.444 700.552, 636.444 700.552, 626.444 700.552, 616.444 700.552, 606.444 700.552, 596.444 700.552, 586.444 700.552, 576.444 700.552, 566.444 700.552, 556.444 700.552, 546.444 700.552, 536.444 700.552, 526.444 700.552, 516.444 700.552, 506.445 700.552, 496.445 700.552, 486.445 700.552, 476.445 700.552, 466.445 700.552, 458.128 700.552, 458.128 " />
            <path fill="none" stroke-width="1.5" stroke-linecap="round" stroke-opacity="1.0" stroke="rgb(0, 0, 0)" stroke-linejoin="round" d=" M 485.064, 458.128 495.064, 458.128 505.064, 458.128 515.064, 458.128 525.064, 458.128 535.064, 458.128 545.064, 458.128 555.064, 458.128 565.064, 458.128 575.064, 458.128 585.064, 458.128 595.064, 458.128 605.064, 458.128 615.064, 458.128 625.064, 458.128 635.064, 458.128 645.064, 458.128 655.064, 458.128 657.455, 458.128 " />
        </g>
    </g>
    <g id="ViewLayer_TechnicalLines.003" inkscape:groupmode="lineset" inkscape:label="ViewLayer_TechnicalLines.003">
        <g inkscape:groupmode="layer" id="strokes" inkscape:label="strokes">
            <path fill="none" stroke-width="1.5" stroke-linecap="round" stroke-opacity="1.0" stroke="rgb(0, 0, 0)" stroke-linejoin="round" d=" M 485.064, 796.444 485.064, 796.444 485.064, 786.444 485.064, 776.444 485.064, 766.444 485.064, 756.444 485.064, 746.444 485.064, 736.444 485.064, 726.444 485.064, 716.444 485.064, 706.444 485.064, 696.444 485.064, 686.444 485.064, 676.444 485.064, 666.444 485.064, 656.444 485.064, 646.444 485.064, 636.444 485.064, 626.444 485.064, 616.444 485.064, 606.444 485.064, 596.444 485.064, 586.444 485.064, 576.444 485.064, 566.444 485.064, 556.444 485.064, 546.444 485.064, 536.444 485.064, 526.444 485.064, 516.444 485.064, 506.445 485.064, 496.445 485.064, 486.445 485.064, 476.445 485.064, 466.445 485.064, 458.128 485.064, 458.128 " />
            <path fill="none" stroke-width="1.5" stroke-linecap="round" stroke-opacity="1.0" stroke="rgb(0, 0, 0)" stroke-linejoin="round" d=" M 441.966, 458.128 441.966, 458.128 441.966, 468.128 441.966, 478.128 441.966, 488.128 441.966, 498.128 441.966, 508.128 441.966, 518.128 441.966, 528.128 441.966, 538.128 441.966, 548.128 441.966, 558.128 441.966, 568.128 441.966, 578.128 441.966, 588.128 441.966, 598.128 441.966, 608.128 441.966, 618.128 441.966, 628.128 441.966, 638.128 441.966, 648.128 441.966, 658.128 441.966, 668.128 441.966, 678.128 441.966, 688.128 441.966, 698.128 441.966, 708.128 441.966, 718.128 441.966, 728.128 441.966, 738.128 441.966, 748.128 441.966, 758.128 441.966, 768.128 441.966, 778.128 441.966, 788.128 441.966, 796.444 442.380, 796.444 443.607, 796.444 445.598, 796.444 448.278, 796.444 451.543, 796.444 455.269, 796.444 459.311, 796.444 463.515, 796.444 467.719, 796.444 471.762, 796.444 475.487, 796.444 478.753, 796.444 481.432, 796.444 483.424, 796.444 484.650, 796.444 485.064, 796.444 " />
            <path fill="none" stroke-width="1.5" stroke-linecap="round" stroke-opacity="1.0" stroke="rgb(0, 0, 0)" stroke-linejoin="round" d=" M 700.552, 796.444 700.552, 796.444 700.552, 786.444 700.552, 776.444 700.552, 766.444 700.552, 756.444 700.552, 746.444 700.552, 736.444 700.552, 726.444 700.552, 716.444 700.552, 706.444 700.552, 696.444 700.552, 686.444 700.552, 676.444 700.552, 666.444 700.552, 656.444 700.552, 646.444 700.552, 636.444 700.552, 626.444 700.552, 616.444 700.552, 606.444 700.552, 596.444 700.552, 586.444 700.552, 576.444 700.552, 566.444 700.552, 556.444 700.552, 546.444 700.552, 536.444 700.552, 526.444 700.552, 516.444 700.552, 506.445 700.552, 496.445 700.552, 486.445 700.552, 476.445 700.552, 466.445 700.552, 458.128 700.552, 458.128 " />
            <path fill="none" stroke-width="1.5" stroke-linecap="round" stroke-opacity="1.0" stroke="rgb(0, 0, 0)" stroke-linejoin="round" d=" M 657.455, 458.128 657.455, 458.128 657.455, 468.128 657.455, 478.128 657.455, 488.128 657.455, 498.128 657.455, 508.128 657.455, 518.128 657.455, 528.128 657.455, 538.128 657.455, 548.128 657.455, 558.128 657.455, 568.128 657.455, 578.128 657.455, 588.128 657.455, 598.128 657.455, 608.128 657.455, 618.128 657.455, 628.128 657.455, 638.128 657.455, 648.128 657.455, 658.128 657.455, 668.128 657.455, 678.128 657.455, 688.128 657.455, 698.128 657.455, 708.128 657.455, 718.128 657.455, 728.128 657.455, 738.128 657.455, 748.128 657.455, 758.128 657.455, 768.128 657.455, 778.128 657.455, 788.128 657.455, 796.444 657.455, 796.444 657.869, 796.444 659.095, 796.444 661.086, 796.444 663.766, 796.444 667.032, 796.444 670.757, 796.444 674.799, 796.444 679.003, 796.444 683.207, 796.444 687.250, 796.444 690.975, 796.444 694.241, 796.444 696.921, 796.444 698.912, 796.444 700.138, 796.444 700.552, 796.444 " />
            <path fill="none" stroke-width="1.5" stroke-linecap="round" stroke-opacity="1.0" stroke="rgb(0, 0, 0)" stroke-linejoin="round" d=" M 700.552, 451.663 700.552, 445.199 700.552, 445.199 690.552, 445.199 680.552, 445.199 670.552, 445.199 660.552, 445.199 650.552, 445.199 640.552, 445.199 630.552, 445.199 620.552, 445.199 610.552, 445.199 600.552, 445.199 590.552, 445.199 580.552, 445.199 570.552, 445.199 560.552, 445.199 550.552, 445.199 540.552, 445.199 530.552, 445.199 520.552, 445.199 510.552, 445.199 500.552, 445.199 490.552, 445.199 480.552, 445.199 470.552, 445.199 460.552, 445.199 450.552, 445.199 441.966, 445.199 441.966, 455.199 441.966, 458.128 441.966, 458.128 441.966, 458.128 " />
            <path fill="none" stroke-width="1.5" stroke-linecap="round" stroke-opacity="1.0" stroke="rgb(0, 0, 0)" stroke-linejoin="round" d=" M 700.552, 458.128 700.552, 458.128 700.552, 451.663 " />
            <path fill="none" stroke-width="1.5" stroke-linecap="round" stroke-opacity="1.0" stroke="rgb(0, 0, 0)" stroke-linejoin="round" d=" M 441.966, 458.128 441.966, 458.128 441.966, 458.128 451.966, 458.128 461.966, 458.128 471.966, 458.128 481.966, 458.128 485.064, 458.128 485.064, 458.128 495.064, 458.128 505.064, 458.128 515.064, 458.128 525.064, 458.128 535.064, 458.128 545.064, 458.128 555.064, 458.128 565.064, 458.128 575.064, 458.128 585.064, 458.128 595.064, 458.128 605.064, 458.128 615.064, 458.128 625.064, 458.128 635.064, 458.128 645.064, 458.128 655.064, 458.128 657.455, 458.128 657.455, 458.128 667.455, 458.128 677.455, 458.128 687.455, 458.128 697.455, 458.128 700.552, 458.128 700.552, 458.128 " />
            <path fill="none" stroke-width="1.5" stroke-linecap="round" stroke-opacity="1.0" stroke="rgb(0, 0, 0)" stroke-linejoin="round" d=" M 582.034, 330.990 582.034, 320.990 582.034, 310.990 582.034, 300.990 582.034, 290.990 582.034, 280.990 582.034, 270.990 582.034, 260.990 582.034, 250.990 582.034, 240.990 582.034, 230.990 582.034, 227.556 572.034, 227.556 562.034, 227.556 552.034, 227.556 542.034, 227.556 532.034, 227.556 522.034, 227.556 512.034, 227.556 502.034, 227.556 492.034, 227.556 482.034, 227.556 472.034, 227.556 462.034, 227.556 452.034, 227.556 442.034, 227.556 432.034, 227.556 422.034, 227.556 412.034, 227.556 402.034, 227.556 392.034, 227.556 382.034, 227.556 372.034, 227.556 362.034, 227.556 352.034, 227.556 342.034, 227.556 332.034, 227.556 323.448, 227.556 323.448, 237.556 323.448, 247.556 323.448, 257.556 323.448, 267.556 323.448, 277.556 323.448, 287.556 323.448, 297.556 323.448, 307.556 323.448, 317.556 323.448, 327.556 323.448, 330.990 333.448, 330.990 343.448, 330.990 353.448, 330.990 363.448, 330.990 373.448, 330.990 383.448, 330.990 393.448, 330.990 403.448, 330.990 413.448, 330.990 423.448, 330.990 433.448, 330.990 443.448, 330.990 453.448, 330.990 463.448, 330.990 473.448, 330.990 483.448, 330.990 493.448, 330.990 503.448, 330.990 513.448, 330.990 523.448, 330.990 533.448, 330.990 543.448, 330.990 553.448, 330.990 563.448, 330.990 573.448, 330.990 582.034, 330.990 " />
            <path fill="none" stroke-width="1.5" stroke-linecap="round" stroke-opacity="1.0" stroke="rgb(0, 0, 0)" stroke-linejoin="round" d=" M 485.064, 796.444 485.064, 786.444 485.064, 776.444 485.064, 766.444 485.064, 756.444 485.064, 746.444 485.064, 736.444 485.064, 726.444 485.064, 716.444 485.064, 706.444 485.064, 696.444 485.064, 686.444 485.064, 676.444 485.064, 666.444 485.064, 656.444 485.064, 646.444 485.064, 636.444 485.064, 626.444 485.064, 616.444 485.064, 606.444 485.064, 596.444 485.064, 586.444 485.064, 576.444 485.064, 566.444 485.064, 556.444 485.064, 546.444 485.064, 536.444 485.064, 526.444 485.064, 516.444 485.064, 506.445 485.064, 496.445 485.064, 486.445 485.064, 476.445 485.064, 466.445 485.064, 458.128 485.064, 458.128 " />
            <path fill="none" stroke-width="1.5" stroke-linecap="round" stroke-opacity="1.0" stroke="rgb(0, 0, 0)" stroke-linejoin="round" d=" M 700.552, 796.444 700.552, 786.444 700.552, 776.444 700.552, 766.444 700.552, 756.444 700.552, 746.444 700.552, 736.444 700.552, 726.444 700.552, 716.444 700.552, 706.444 700.552, 696.444 700.552, 686.444 700.552, 676.444 700.552, 666.444 700.552, 656.444 700.552, 646.444 700.552, 636.444 700.552, 626.444 700.552, 616.444 700.552, 606.444 700.552, 596.444 700.552, 586.444 700.552, 576.444 700.552, 566.444 700.552, 556.444 700.552, 546.444 700.552, 536.444 700.552, 526.444 700.552, 516.444 700.552, 506.445 700.552, 496.445 700.552, 486.445 700.552, 476.445 700.552, 466.445 700.552, 458.128 700.552, 458.128 " />
            <path fill="none" stroke-width="1.5" stroke-linecap="round" stroke-opacity="1.0" stroke="rgb(0, 0, 0)" stroke-linejoin="round" d=" M 485.064, 458.128 495.064, 458.128 505.064, 458.128 515.064, 458.128 525.064, 458.128 535.064, 458.128 545.064, 458.128 555.064, 458.128 565.064, 458.128 575.064, 458.128 585.064, 458.128 595.064, 458.128 605.064, 458.128 615.064, 458.128 625.064, 458.128 635.064, 458.128 645.064, 458.128 655.064, 458.128 657.455, 458.128 " />
        </g>
    </g>
    <g id="ViewLayer_TechnicalLines.004" xmlns:inkscape="http://www.inkscape.org/namespaces/inkscape" inkscape:groupmode="lineset" inkscape:label="ViewLayer_TechnicalLines.004">
        <g xmlns:inkscape="http://www.inkscape.org/namespaces/inkscape" inkscape:groupmode="layer" id="strokes" inkscape:label="strokes">
            <path fill="none" stroke-width="1.5" stroke-linecap="round" stroke-opacity="1.0" stroke="rgb(0, 0, 0)" stroke-linejoin="round" d=" M 485.064, 796.444 485.064, 796.444 485.064, 786.444 485.064, 776.444 485.064, 766.444 485.064, 756.444 485.064, 746.444 485.064, 736.444 485.064, 726.444 485.064, 716.444 485.064, 706.444 485.064, 696.444 485.064, 686.444 485.064, 676.444 485.064, 666.444 485.064, 656.444 485.064, 646.444 485.064, 636.444 485.064, 626.444 485.064, 616.444 485.064, 606.444 485.064, 596.444 485.064, 586.444 485.064, 576.444 485.064, 566.444 485.064, 556.444 485.064, 546.444 485.064, 536.444 485.064, 526.444 485.064, 516.444 485.064, 506.445 485.064, 496.445 485.064, 486.445 485.064, 476.445 485.064, 466.445 485.064, 458.128 485.064, 458.128 " />
            <path fill="none" stroke-width="1.5" stroke-linecap="round" stroke-opacity="1.0" stroke="rgb(0, 0, 0)" stroke-linejoin="round" d=" M 441.966, 458.128 441.966, 458.128 441.966, 468.128 441.966, 478.128 441.966, 488.128 441.966, 498.128 441.966, 508.128 441.966, 518.128 441.966, 528.128 441.966, 538.128 441.966, 548.128 441.966, 558.128 441.966, 568.128 441.966, 578.128 441.966, 588.128 441.966, 598.128 441.966, 608.128 441.966, 618.128 441.966, 628.128 441.966, 638.128 441.966, 648.128 441.966, 658.128 441.966, 668.128 441.966, 678.128 441.966, 688.128 441.966, 698.128 441.966, 708.128 441.966, 718.128 441.966, 728.128 441.966, 738.128 441.966, 748.128 441.966, 758.128 441.966, 768.128 441.966, 778.128 441.966, 788.128 441.966, 796.444 442.380, 796.444 443.607, 796.444 445.598, 796.444 448.278, 796.444 451.543, 796.444 455.269, 796.444 459.311, 796.444 463.515, 796.444 467.719, 796.444 471.762, 796.444 475.487, 796.444 478.753, 796.444 481.432, 796.444 483.424, 796.444 484.650, 796.444 485.064, 796.444 " />
            <path fill="none" stroke-width="1.5" stroke-linecap="round" stroke-opacity="1.0" stroke="rgb(0, 0, 0)" stroke-linejoin="round" d=" M 700.552, 796.444 700.552, 796.444 700.552, 786.444 700.552, 776.444 700.552, 766.444 700.552, 756.444 700.552, 746.444 700.552, 736.444 700.552, 726.444 700.552, 716.444 700.552, 706.444 700.552, 696.444 700.552, 686.444 700.552, 676.444 700.552, 666.444 700.552, 656.444 700.552, 646.444 700.552, 636.444 700.552, 626.444 700.552, 616.444 700.552, 606.444 700.552, 596.444 700.552, 586.444 700.552, 576.444 700.552, 566.444 700.552, 556.444 700.552, 546.444 700.552, 536.444 700.552, 526.444 700.552, 516.444 700.552, 506.445 700.552, 496.445 700.552, 486.445 700.552, 476.445 700.552, 466.445 700.552, 458.128 700.552, 458.128 " />
            <path fill="none" stroke-width="1.5" stroke-linecap="round" stroke-opacity="1.0" stroke="rgb(0, 0, 0)" stroke-linejoin="round" d=" M 657.455, 458.128 657.455, 458.128 657.455, 468.128 657.455, 478.128 657.455, 488.128 657.455, 498.128 657.455, 508.128 657.455, 518.128 657.455, 528.128 657.455, 538.128 657.455, 548.128 657.455, 558.128 657.455, 568.128 657.455, 578.128 657.455, 588.128 657.455, 598.128 657.455, 608.128 657.455, 618.128 657.455, 628.128 657.455, 638.128 657.455, 648.128 657.455, 658.128 657.455, 668.128 657.455, 678.128 657.455, 688.128 657.455, 698.128 657.455, 708.128 657.455, 718.128 657.455, 728.128 657.455, 738.128 657.455, 748.128 657.455, 758.128 657.455, 768.128 657.455, 778.128 657.455, 788.128 657.455, 796.444 657.455, 796.444 657.869, 796.444 659.095, 796.444 661.086, 796.444 663.766, 796.444 667.032, 796.444 670.757, 796.444 674.799, 796.444 679.003, 796.444 683.207, 796.444 687.250, 796.444 690.975, 796.444 694.241, 796.444 696.921, 796.444 698.912, 796.444 700.138, 796.444 700.552, 796.444 " />
            <path fill="none" stroke-width="1.5" stroke-linecap="round" stroke-opacity="1.0" stroke="rgb(0, 0, 0)" stroke-linejoin="round" d=" M 700.552, 451.663 700.552, 445.199 700.552, 445.199 690.552, 445.199 680.552, 445.199 670.552, 445.199 660.552, 445.199 650.552, 445.199 640.552, 445.199 630.552, 445.199 620.552, 445.199 610.552, 445.199 600.552, 445.199 590.552, 445.199 580.552, 445.199 570.552, 445.199 560.552, 445.199 550.552, 445.199 540.552, 445.199 530.552, 445.199 520.552, 445.199 510.552, 445.199 500.552, 445.199 490.552, 445.199 480.552, 445.199 470.552, 445.199 460.552, 445.199 450.552, 445.199 441.966, 445.199 441.966, 455.199 441.966, 458.128 441.966, 458.128 441.966, 458.128 " />
            <path fill="none" stroke-width="1.5" stroke-linecap="round" stroke-opacity="1.0" stroke="rgb(0, 0, 0)" stroke-linejoin="round" d=" M 700.552, 458.128 700.552, 458.128 700.552, 451.663 " />
            <path fill="none" stroke-width="1.5" stroke-linecap="round" stroke-opacity="1.0" stroke="rgb(0, 0, 0)" stroke-linejoin="round" d=" M 441.966, 458.128 441.966, 458.128 441.966, 458.128 451.966, 458.128 461.966, 458.128 471.966, 458.128 481.966, 458.128 485.064, 458.128 485.064, 458.128 495.064, 458.128 505.064, 458.128 515.064, 458.128 525.064, 458.128 535.064, 458.128 545.064, 458.128 555.064, 458.128 565.064, 458.128 575.064, 458.128 585.064, 458.128 595.064, 458.128 605.064, 458.128 615.064, 458.128 625.064, 458.128 635.064, 458.128 645.064, 458.128 655.064, 458.128 657.455, 458.128 657.455, 458.128 667.455, 458.128 677.455, 458.128 687.455, 458.128 697.455, 458.128 700.552, 458.128 700.552, 458.128 " />
            <path fill="none" stroke-width="1.5" stroke-linecap="round" stroke-opacity="1.0" stroke="rgb(0, 0, 0)" stroke-linejoin="round" d=" M 582.034, 330.990 582.034, 320.990 582.034, 310.990 582.034, 300.990 582.034, 290.990 582.034, 280.990 582.034, 270.990 582.034, 260.990 582.034, 250.990 582.034, 240.990 582.034, 230.990 582.034, 227.556 572.034, 227.556 562.034, 227.556 552.034, 227.556 542.034, 227.556 532.034, 227.556 522.034, 227.556 512.034, 227.556 502.034, 227.556 492.034, 227.556 482.034, 227.556 472.034, 227.556 462.034, 227.556 452.034, 227.556 442.034, 227.556 432.034, 227.556 422.034, 227.556 412.034, 227.556 402.034, 227.556 392.034, 227.556 382.034, 227.556 372.034, 227.556 362.034, 227.556 352.034, 227.556 342.034, 227.556 332.034, 227.556 323.448, 227.556 323.448, 237.556 323.448, 247.556 323.448, 257.556 323.448, 267.556 323.448, 277.556 323.448, 287.556 323.448, 297.556 323.448, 307.556 323.448, 317.556 323.448, 327.556 323.448, 330.990 333.448, 330.990 343.448, 330.990 353.448, 330.990 363.448, 330.990 373.448, 330.990 383.448, 330.990 393.448, 330.990 403.448, 330.990 413.448, 330.990 423.448, 330.990 433.448, 330.990 443.448, 330.990 453.448, 330.990 463.448, 330.990 473.448, 330.990 483.448, 330.990 493.448, 330.990 503.448, 330.990 513.448, 330.990 523.448, 330.990 533.448, 330.990 543.448, 330.990 553.448, 330.990 563.448, 330.990 573.448, 330.990 582.034, 330.990 " />
            <path fill="none" stroke-width="1.5" stroke-linecap="round" stroke-opacity="1.0" stroke="rgb(0, 0, 0)" stroke-linejoin="round" d=" M 485.064, 796.444 485.064, 786.444 485.064, 776.444 485.064, 766.444 485.064, 756.444 485.064, 746.444 485.064, 736.444 485.064, 726.444 485.064, 716.444 485.064, 706.444 485.064, 696.444 485.064, 686.444 485.064, 676.444 485.064, 666.444 485.064, 656.444 485.064, 646.444 485.064, 636.444 485.064, 626.444 485.064, 616.444 485.064, 606.444 485.064, 596.444 485.064, 586.444 485.064, 576.444 485.064, 566.444 485.064, 556.444 485.064, 546.444 485.064, 536.444 485.064, 526.444 485.064, 516.444 485.064, 506.445 485.064, 496.445 485.064, 486.445 485.064, 476.445 485.064, 466.445 485.064, 458.128 485.064, 458.128 " />
            <path fill="none" stroke-width="1.5" stroke-linecap="round" stroke-opacity="1.0" stroke="rgb(0, 0, 0)" stroke-linejoin="round" d=" M 700.552, 796.444 700.552, 786.444 700.552, 776.444 700.552, 766.444 700.552, 756.444 700.552, 746.444 700.552, 736.444 700.552, 726.444 700.552, 716.444 700.552, 706.444 700.552, 696.444 700.552, 686.444 700.552, 676.444 700.552, 666.444 700.552, 656.444 700.552, 646.444 700.552, 636.444 700.552, 626.444 700.552, 616.444 700.552, 606.444 700.552, 596.444 700.552, 586.444 700.552, 576.444 700.552, 566.444 700.552, 556.444 700.552, 546.444 700.552, 536.444 700.552, 526.444 700.552, 516.444 700.552, 506.445 700.552, 496.445 700.552, 486.445 700.552, 476.445 700.552, 466.445 700.552, 458.128 700.552, 458.128 " />
            <path fill="none" stroke-width="1.5" stroke-linecap="round" stroke-opacity="1.0" stroke="rgb(0, 0, 0)" stroke-linejoin="round" d=" M 485.064, 458.128 495.064, 458.128 505.064, 458.128 515.064, 458.128 525.064, 458.128 535.064, 458.128 545.064, 458.128 555.064, 458.128 565.064, 458.128 575.064, 458.128 585.064, 458.128 595.064, 458.128 605.064, 458.128 615.064, 458.128 625.064, 458.128 635.064, 458.128 645.064, 458.128 655.064, 458.128 657.455, 458.128 " />
        </g>
    </g>
</svg>
