<?xml version='1.0' encoding='ascii'?>
<svg xmlns="http://www.w3.org/2000/svg" xmlns:inkscape="http://www.inkscape.org/namespaces/inkscape" version="1.1" width="1024" height="1024">
    <g id="ViewLayer_LineSet" inkscape:groupmode="lineset" inkscape:label="ViewLayer_LineSet">
        <g inkscape:groupmode="layer" id="strokes" inkscape:label="strokes">
            <path fill="none" stroke-width="3.0" stroke-linecap="butt" stroke-opacity="1.0" stroke="rgb(0, 0, 0)" stroke-linejoin="round" d=" M 253.414, 693.010 253.414, 703.010 253.414, 713.010 253.414, 723.010 253.414, 733.010 253.414, 743.010 253.414, 744.727 253.414, 744.727 263.414, 744.727 273.414, 744.727 283.414, 744.727 293.414, 744.727 303.414, 744.727 313.414, 744.727 323.414, 744.727 333.414, 744.727 343.414, 744.727 353.414, 744.727 363.414, 744.727 373.414, 744.727 383.414, 744.727 393.414, 744.727 403.414, 744.727 413.414, 744.727 423.414, 744.727 433.414, 744.727 443.414, 744.727 453.414, 744.727 463.414, 744.727 473.414, 744.727 483.414, 744.727 493.414, 744.727 503.414, 744.727 513.414, 744.727 523.414, 744.727 533.414, 744.727 543.414, 744.727 553.414, 744.727 563.414, 744.727 573.414, 744.727 583.414, 744.727 593.414, 744.727 603.414, 744.727 613.414, 744.727 623.414, 744.727 633.414, 744.727 643.414, 744.727 653.414, 744.727 663.414, 744.727 673.414, 744.727 683.414, 744.727 693.414, 744.727 703.414, 744.727 713.414, 744.727 723.414, 744.727 733.414, 744.727 743.414, 744.727 753.414, 744.727 763.414, 744.727 770.586, 744.727 770.586, 744.727 770.586, 734.727 770.586, 724.727 770.586, 714.727 770.586, 704.727 770.586, 694.727 770.586, 693.010 760.586, 693.010 750.586, 693.010 740.586, 693.010 730.586, 693.010 720.586, 693.010 710.586, 693.010 700.586, 693.010 690.586, 693.010 680.586, 693.010 670.586, 693.010 660.586, 693.010 650.586, 693.010 640.586, 693.010 630.586, 693.010 620.586, 693.010 610.586, 693.010 600.586, 693.010 590.586, 693.010 580.586, 693.010 570.586, 693.010 560.586, 693.010 550.586, 693.010 540.586, 693.010 530.586, 693.010 520.586, 693.010 510.586, 693.010 500.586, 693.010 490.586, 693.010 480.586, 693.010 470.586, 693.010 460.586, 693.010 450.586, 693.010 440.586, 693.010 430.586, 693.010 420.586, 693.010 410.586, 693.010 400.586, 693.010 390.586, 693.010 380.586, 693.010 370.586, 693.010 360.586, 693.010 350.586, 693.010 340.586, 693.010 330.586, 693.010 320.586, 693.010 310.586, 693.010 300.586, 693.010 290.586, 693.010 280.586, 693.010 270.586, 693.010 260.586, 693.010 253.414, 693.010 " />
            <path fill="none" stroke-width="3.0" stroke-linecap="butt" stroke-opacity="1.0" stroke="rgb(0, 0, 0)" stroke-linejoin="round" d=" M 253.414, 744.727 263.414, 744.727 273.414, 744.727 283.414, 744.727 293.414, 744.727 303.414, 744.727 313.414, 744.727 323.414, 744.727 333.414, 744.727 343.414, 744.727 353.414, 744.727 363.414, 744.727 373.414, 744.727 383.414, 744.727 393.414, 744.727 403.414, 744.727 413.414, 744.727 423.414, 744.727 433.414, 744.727 443.414, 744.727 453.414, 744.727 463.414, 744.727 473.414, 744.727 483.414, 744.727 493.414, 744.727 503.414, 744.727 513.414, 744.727 523.414, 744.727 533.414, 744.727 543.414, 744.727 553.414, 744.727 563.414, 744.727 573.414, 744.727 583.414, 744.727 593.414, 744.727 603.414, 744.727 613.414, 744.727 623.414, 744.727 633.414, 744.727 643.414, 744.727 653.414, 744.727 663.414, 744.727 673.414, 744.727 683.414, 744.727 693.414, 744.727 703.414, 744.727 713.414, 744.727 723.414, 744.727 733.414, 744.727 743.414, 744.727 753.414, 744.727 763.414, 744.727 770.586, 744.727 " />
            <path fill="none" stroke-width="3.0" stroke-linecap="butt" stroke-opacity="1.0" stroke="rgb(0, 0, 0)" stroke-linejoin="round" d=" M 744.727, 537.859 754.727, 537.859 764.727, 537.859 770.586, 537.859 770.586, 527.859 770.586, 524.929 770.586, 524.929 770.586, 514.929 770.586, 504.929 770.586, 494.929 770.586, 484.929 770.586, 474.929 770.586, 464.929 770.586, 454.929 770.586, 444.929 770.586, 434.929 770.586, 424.929 770.586, 414.929 770.586, 404.929 770.586, 394.929 770.586, 384.929 770.586, 374.929 770.586, 364.929 770.586, 354.929 770.586, 344.929 770.586, 334.929 770.586, 324.929 770.586, 314.929 770.586, 304.929 770.586, 294.929 770.586, 284.929 770.586, 279.273 " />
            <path fill="none" stroke-width="3.0" stroke-linecap="butt" stroke-opacity="1.0" stroke="rgb(0, 0, 0)" stroke-linejoin="round" d=" M 253.414, 279.273 253.414, 289.273 253.414, 299.273 253.414, 309.273 253.414, 319.273 253.414, 329.273 253.414, 339.273 253.414, 349.273 253.414, 359.273 253.414, 369.273 253.414, 379.273 253.414, 389.273 253.414, 399.273 253.414, 409.273 253.414, 419.273 253.414, 429.273 253.414, 439.273 253.414, 449.273 253.414, 459.273 253.414, 469.273 253.414, 479.273 253.414, 489.273 253.414, 499.273 253.414, 509.273 253.414, 519.273 253.414, 524.929 253.414, 524.929 253.414, 534.929 253.414, 537.859 263.414, 537.859 273.414, 537.859 279.273, 537.859 " />
            <path fill="none" stroke-width="3.0" stroke-linecap="butt" stroke-opacity="1.0" stroke="rgb(0, 0, 0)" stroke-linejoin="round" d=" M 253.414, 524.929 243.414, 524.929 233.414, 524.929 227.556, 524.929 227.556, 524.929 227.556, 534.929 227.556, 544.929 227.556, 554.929 227.556, 564.929 227.556, 574.929 227.556, 584.929 227.556, 594.929 227.556, 604.929 227.556, 614.929 227.556, 624.929 227.556, 634.929 227.556, 644.929 227.556, 654.222 227.556, 654.222 237.556, 654.222 247.556, 654.222 257.556, 654.222 267.556, 654.222 277.556, 654.222 279.273, 654.222 279.273, 654.222 279.273, 644.222 279.273, 634.222 279.273, 624.222 279.273, 614.222 279.273, 604.222 279.273, 594.222 279.273, 584.222 279.273, 574.222 279.273, 564.222 279.273, 554.222 279.273, 544.222 279.273, 537.859 " />
            <path fill="none" stroke-width="3.0" stroke-linecap="butt" stroke-opacity="1.0" stroke="rgb(0, 0, 0)" stroke-linejoin="round" d=" M 227.556, 654.222 237.556, 654.222 247.556, 654.222 257.556, 654.222 267.556, 654.222 277.556, 654.222 279.273, 654.222 " />
            <path fill="none" stroke-width="3.0" stroke-linecap="butt" stroke-opacity="1.0" stroke="rgb(0, 0, 0)" stroke-linejoin="round" d=" M 744.727, 537.859 744.727, 547.859 744.727, 557.859 744.727, 567.859 744.727, 577.859 744.727, 587.859 744.727, 597.859 744.727, 607.859 744.727, 617.859 744.727, 627.859 744.727, 637.859 744.727, 647.859 744.727, 654.222 744.727, 654.222 754.727, 654.222 764.727, 654.222 774.727, 654.222 784.727, 654.222 794.727, 654.222 796.444, 654.222 796.444, 654.222 796.444, 644.222 796.444, 634.222 796.444, 624.222 796.444, 614.222 796.444, 604.222 796.444, 594.222 796.444, 584.222 796.444, 574.222 796.444, 564.222 796.444, 554.222 796.444, 544.222 796.444, 534.222 796.444, 524.929 796.444, 524.929 786.444, 524.929 776.444, 524.929 770.586, 524.929 " />
            <path fill="none" stroke-width="3.0" stroke-linecap="butt" stroke-opacity="1.0" stroke="rgb(0, 0, 0)" stroke-linejoin="round" d=" M 744.727, 654.222 754.727, 654.222 764.727, 654.222 774.727, 654.222 784.727, 654.222 794.727, 654.222 796.444, 654.222 " />
            <path fill="none" stroke-width="3.0" stroke-linecap="butt" stroke-opacity="1.0" stroke="rgb(0, 0, 0)" stroke-linejoin="round" d=" M 279.273, 537.859 289.273, 537.859 299.273, 537.859 309.273, 537.859 319.273, 537.859 329.273, 537.859 339.273, 537.859 349.273, 537.859 359.273, 537.859 369.273, 537.859 379.273, 537.859 389.273, 537.859 399.273, 537.859 409.273, 537.859 419.273, 537.859 429.273, 537.859 439.273, 537.859 449.273, 537.859 459.273, 537.859 469.273, 537.859 479.273, 537.859 489.273, 537.859 499.273, 537.859 509.273, 537.859 519.273, 537.859 529.273, 537.859 539.273, 537.859 549.273, 537.859 559.273, 537.859 569.273, 537.859 579.273, 537.859 589.273, 537.859 599.273, 537.859 609.273, 537.859 619.273, 537.859 629.273, 537.859 639.273, 537.859 649.273, 537.859 659.273, 537.859 669.273, 537.859 679.273, 537.859 689.273, 537.859 699.273, 537.859 709.273, 537.859 719.273, 537.859 729.273, 537.859 739.273, 537.859 744.727, 537.859 " />
            <path fill="none" stroke-width="3.0" stroke-linecap="butt" stroke-opacity="1.0" stroke="rgb(0, 0, 0)" stroke-linejoin="round" d=" M 770.586, 279.273 760.586, 279.273 750.586, 279.273 740.586, 279.273 730.586, 279.273 720.586, 279.273 710.586, 279.273 700.586, 279.273 690.586, 279.273 680.586, 279.273 670.586, 279.273 660.586, 279.273 650.586, 279.273 640.586, 279.273 630.586, 279.273 620.586, 279.273 610.586, 279.273 600.586, 279.273 590.586, 279.273 580.586, 279.273 570.586, 279.273 560.586, 279.273 550.586, 279.273 540.586, 279.273 530.586, 279.273 520.586, 279.273 510.586, 279.273 500.586, 279.273 490.586, 279.273 480.586, 279.273 470.586, 279.273 460.586, 279.273 450.586, 279.273 440.586, 279.273 430.586, 279.273 420.586, 279.273 410.586, 279.273 400.586, 279.273 390.586, 279.273 380.586, 279.273 370.586, 279.273 360.586, 279.273 350.586, 279.273 340.586, 279.273 330.586, 279.273 320.586, 279.273 310.586, 279.273 300.586, 279.273 290.586, 279.273 280.586, 279.273 270.586, 279.273 260.586, 279.273 253.414, 279.273 " />
        </g>
    </g>
    <g id="ViewLayer_TechnicalLines" inkscape:groupmode="lineset" inkscape:label="ViewLayer_TechnicalLines">
        <g inkscape:groupmode="layer" id="strokes" inkscape:label="strokes">
            <path fill="none" stroke-width="3.0" stroke-linecap="butt" stroke-opacity="1.0" stroke="rgb(0, 0, 0)" stroke-linejoin="round" d=" M 253.414, 693.010 253.414, 703.010 253.414, 713.010 253.414, 723.010 253.414, 733.010 253.414, 743.010 253.414, 744.727 253.414, 744.727 263.414, 744.727 273.414, 744.727 283.414, 744.727 293.414, 744.727 303.414, 744.727 313.414, 744.727 323.414, 744.727 333.414, 744.727 343.414, 744.727 353.414, 744.727 363.414, 744.727 373.414, 744.727 383.414, 744.727 393.414, 744.727 403.414, 744.727 413.414, 744.727 423.414, 744.727 433.414, 744.727 443.414, 744.727 453.414, 744.727 463.414, 744.727 473.414, 744.727 483.414, 744.727 493.414, 744.727 503.414, 744.727 513.414, 744.727 523.414, 744.727 533.414, 744.727 543.414, 744.727 553.414, 744.727 563.414, 744.727 573.414, 744.727 583.414, 744.727 593.414, 744.727 603.414, 744.727 613.414, 744.727 623.414, 744.727 633.414, 744.727 643.414, 744.727 653.414, 744.727 663.414, 744.727 673.414, 744.727 683.414, 744.727 693.414, 744.727 703.414, 744.727 713.414, 744.727 723.414, 744.727 733.414, 744.727 743.414, 744.727 753.414, 744.727 763.414, 744.727 770.586, 744.727 770.586, 744.727 770.586, 734.727 770.586, 724.727 770.586, 714.727 770.586, 704.727 770.586, 694.727 770.586, 693.010 760.586, 693.010 750.586, 693.010 740.586, 693.010 730.586, 693.010 720.586, 693.010 710.586, 693.010 700.586, 693.010 690.586, 693.010 680.586, 693.010 670.586, 693.010 660.586, 693.010 650.586, 693.010 640.586, 693.010 630.586, 693.010 620.586, 693.010 610.586, 693.010 600.586, 693.010 590.586, 693.010 580.586, 693.010 570.586, 693.010 560.586, 693.010 550.586, 693.010 540.586, 693.010 530.586, 693.010 520.586, 693.010 510.586, 693.010 500.586, 693.010 490.586, 693.010 480.586, 693.010 470.586, 693.010 460.586, 693.010 450.586, 693.010 440.586, 693.010 430.586, 693.010 420.586, 693.010 410.586, 693.010 400.586, 693.010 390.586, 693.010 380.586, 693.010 370.586, 693.010 360.586, 693.010 350.586, 693.010 340.586, 693.010 330.586, 693.010 320.586, 693.010 310.586, 693.010 300.586, 693.010 290.586, 693.010 280.586, 693.010 270.586, 693.010 260.586, 693.010 253.414, 693.010 " />
            <path fill="none" stroke-width="3.0" stroke-linecap="butt" stroke-opacity="1.0" stroke="rgb(0, 0, 0)" stroke-linejoin="round" d=" M 253.414, 744.727 263.414, 744.727 273.414, 744.727 283.414, 744.727 293.414, 744.727 303.414, 744.727 313.414, 744.727 323.414, 744.727 333.414, 744.727 343.414, 744.727 353.414, 744.727 363.414, 744.727 373.414, 744.727 383.414, 744.727 393.414, 744.727 403.414, 744.727 413.414, 744.727 423.414, 744.727 433.414, 744.727 443.414, 744.727 453.414, 744.727 463.414, 744.727 473.414, 744.727 483.414, 744.727 493.414, 744.727 503.414, 744.727 513.414, 744.727 523.414, 744.727 533.414, 744.727 543.414, 744.727 553.414, 744.727 563.414, 744.727 573.414, 744.727 583.414, 744.727 593.414, 744.727 603.414, 744.727 613.414, 744.727 623.414, 744.727 633.414, 744.727 643.414, 744.727 653.414, 744.727 663.414, 744.727 673.414, 744.727 683.414, 744.727 693.414, 744.727 703.414, 744.727 713.414, 744.727 723.414, 744.727 733.414, 744.727 743.414, 744.727 753.414, 744.727 763.414, 744.727 770.586, 744.727 " />
            <path fill="none" stroke-width="3.0" stroke-linecap="butt" stroke-opacity="1.0" stroke="rgb(0, 0, 0)" stroke-linejoin="round" d=" M 744.727, 537.859 754.727, 537.859 764.727, 537.859 770.586, 537.859 770.586, 527.859 770.586, 524.929 770.586, 524.929 770.586, 514.929 770.586, 504.929 770.586, 494.929 770.586, 484.929 770.586, 474.929 770.586, 464.929 770.586, 454.929 770.586, 444.929 770.586, 434.929 770.586, 424.929 770.586, 414.929 770.586, 404.929 770.586, 394.929 770.586, 384.929 770.586, 374.929 770.586, 364.929 770.586, 354.929 770.586, 344.929 770.586, 334.929 770.586, 324.929 770.586, 314.929 770.586, 304.929 770.586, 294.929 770.586, 284.929 770.586, 279.273 " />
            <path fill="none" stroke-width="3.0" stroke-linecap="butt" stroke-opacity="1.0" stroke="rgb(0, 0, 0)" stroke-linejoin="round" d=" M 253.414, 279.273 253.414, 289.273 253.414, 299.273 253.414, 309.273 253.414, 319.273 253.414, 329.273 253.414, 339.273 253.414, 349.273 253.414, 359.273 253.414, 369.273 253.414, 379.273 253.414, 389.273 253.414, 399.273 253.414, 409.273 253.414, 419.273 253.414, 429.273 253.414, 439.273 253.414, 449.273 253.414, 459.273 253.414, 469.273 253.414, 479.273 253.414, 489.273 253.414, 499.273 253.414, 509.273 253.414, 519.273 253.414, 524.929 253.414, 524.929 253.414, 534.929 253.414, 537.859 263.414, 537.859 273.414, 537.859 279.273, 537.859 " />
            <path fill="none" stroke-width="3.0" stroke-linecap="butt" stroke-opacity="1.0" stroke="rgb(0, 0, 0)" stroke-linejoin="round" d=" M 253.414, 524.929 243.414, 524.929 233.414, 524.929 227.556, 524.929 227.556, 524.929 227.556, 534.929 227.556, 544.929 227.556, 554.929 227.556, 564.929 227.556, 574.929 227.556, 584.929 227.556, 594.929 227.556, 604.929 227.556, 614.929 227.556, 624.929 227.556, 634.929 227.556, 644.929 227.556, 654.222 227.556, 654.222 237.556, 654.222 247.556, 654.222 257.556, 654.222 267.556, 654.222 277.556, 654.222 279.273, 654.222 279.273, 654.222 279.273, 644.222 279.273, 634.222 279.273, 624.222 279.273, 614.222 279.273, 604.222 279.273, 594.222 279.273, 584.222 279.273, 574.222 279.273, 564.222 279.273, 554.222 279.273, 544.222 279.273, 537.859 " />
            <path fill="none" stroke-width="3.0" stroke-linecap="butt" stroke-opacity="1.0" stroke="rgb(0, 0, 0)" stroke-linejoin="round" d=" M 227.556, 654.222 237.556, 654.222 247.556, 654.222 257.556, 654.222 267.556, 654.222 277.556, 654.222 279.273, 654.222 " />
            <path fill="none" stroke-width="3.0" stroke-linecap="butt" stroke-opacity="1.0" stroke="rgb(0, 0, 0)" stroke-linejoin="round" d=" M 744.727, 537.859 744.727, 547.859 744.727, 557.859 744.727, 567.859 744.727, 577.859 744.727, 587.859 744.727, 597.859 744.727, 607.859 744.727, 617.859 744.727, 627.859 744.727, 637.859 744.727, 647.859 744.727, 654.222 744.727, 654.222 754.727, 654.222 764.727, 654.222 774.727, 654.222 784.727, 654.222 794.727, 654.222 796.444, 654.222 796.444, 654.222 796.444, 644.222 796.444, 634.222 796.444, 624.222 796.444, 614.222 796.444, 604.222 796.444, 594.222 796.444, 584.222 796.444, 574.222 796.444, 564.222 796.444, 554.222 796.444, 544.222 796.444, 534.222 796.444, 524.929 796.444, 524.929 786.444, 524.929 776.444, 524.929 770.586, 524.929 " />
            <path fill="none" stroke-width="3.0" stroke-linecap="butt" stroke-opacity="1.0" stroke="rgb(0, 0, 0)" stroke-linejoin="round" d=" M 744.727, 654.222 754.727, 654.222 764.727, 654.222 774.727, 654.222 784.727, 654.222 794.727, 654.222 796.444, 654.222 " />
            <path fill="none" stroke-width="3.0" stroke-linecap="butt" stroke-opacity="1.0" stroke="rgb(0, 0, 0)" stroke-linejoin="round" d=" M 279.273, 537.859 289.273, 537.859 299.273, 537.859 309.273, 537.859 319.273, 537.859 329.273, 537.859 339.273, 537.859 349.273, 537.859 359.273, 537.859 369.273, 537.859 379.273, 537.859 389.273, 537.859 399.273, 537.859 409.273, 537.859 419.273, 537.859 429.273, 537.859 439.273, 537.859 449.273, 537.859 459.273, 537.859 469.273, 537.859 479.273, 537.859 489.273, 537.859 499.273, 537.859 509.273, 537.859 519.273, 537.859 529.273, 537.859 539.273, 537.859 549.273, 537.859 559.273, 537.859 569.273, 537.859 579.273, 537.859 589.273, 537.859 599.273, 537.859 609.273, 537.859 619.273, 537.859 629.273, 537.859 639.273, 537.859 649.273, 537.859 659.273, 537.859 669.273, 537.859 679.273, 537.859 689.273, 537.859 699.273, 537.859 709.273, 537.859 719.273, 537.859 729.273, 537.859 739.273, 537.859 744.727, 537.859 " />
            <path fill="none" stroke-width="3.0" stroke-linecap="butt" stroke-opacity="1.0" stroke="rgb(0, 0, 0)" stroke-linejoin="round" d=" M 770.586, 279.273 760.586, 279.273 750.586, 279.273 740.586, 279.273 730.586, 279.273 720.586, 279.273 710.586, 279.273 700.586, 279.273 690.586, 279.273 680.586, 279.273 670.586, 279.273 660.586, 279.273 650.586, 279.273 640.586, 279.273 630.586, 279.273 620.586, 279.273 610.586, 279.273 600.586, 279.273 590.586, 279.273 580.586, 279.273 570.586, 279.273 560.586, 279.273 550.586, 279.273 540.586, 279.273 530.586, 279.273 520.586, 279.273 510.586, 279.273 500.586, 279.273 490.586, 279.273 480.586, 279.273 470.586, 279.273 460.586, 279.273 450.586, 279.273 440.586, 279.273 430.586, 279.273 420.586, 279.273 410.586, 279.273 400.586, 279.273 390.586, 279.273 380.586, 279.273 370.586, 279.273 360.586, 279.273 350.586, 279.273 340.586, 279.273 330.586, 279.273 320.586, 279.273 310.586, 279.273 300.586, 279.273 290.586, 279.273 280.586, 279.273 270.586, 279.273 260.586, 279.273 253.414, 279.273 " />
        </g>
    </g>
    <g id="ViewLayer_TechnicalLines.001" inkscape:groupmode="lineset" inkscape:label="ViewLayer_TechnicalLines.001">
        <g inkscape:groupmode="layer" id="strokes" inkscape:label="strokes">
            <path fill="none" stroke-width="1.5" stroke-linecap="round" stroke-opacity="1.0" stroke="rgb(0, 0, 0)" stroke-linejoin="round" d=" M 253.414, 693.010 253.414, 703.010 253.414, 713.010 253.414, 723.010 253.414, 733.010 253.414, 743.010 253.414, 744.727 253.414, 744.727 263.414, 744.727 273.414, 744.727 283.414, 744.727 293.414, 744.727 303.414, 744.727 313.414, 744.727 323.414, 744.727 333.414, 744.727 343.414, 744.727 353.414, 744.727 363.414, 744.727 373.414, 744.727 383.414, 744.727 393.414, 744.727 403.414, 744.727 413.414, 744.727 423.414, 744.727 433.414, 744.727 443.414, 744.727 453.414, 744.727 463.414, 744.727 473.414, 744.727 483.414, 744.727 493.414, 744.727 503.414, 744.727 513.414, 744.727 523.414, 744.727 533.414, 744.727 543.414, 744.727 553.414, 744.727 563.414, 744.727 573.414, 744.727 583.414, 744.727 593.414, 744.727 603.414, 744.727 613.414, 744.727 623.414, 744.727 633.414, 744.727 643.414, 744.727 653.414, 744.727 663.414, 744.727 673.414, 744.727 683.414, 744.727 693.414, 744.727 703.414, 744.727 713.414, 744.727 723.414, 744.727 733.414, 744.727 743.414, 744.727 753.414, 744.727 763.414, 744.727 770.586, 744.727 770.586, 744.727 770.586, 734.727 770.586, 724.727 770.586, 714.727 770.586, 704.727 770.586, 694.727 770.586, 693.010 760.586, 693.010 750.586, 693.010 740.586, 693.010 730.586, 693.010 720.586, 693.010 710.586, 693.010 700.586, 693.010 690.586, 693.010 680.586, 693.010 670.586, 693.010 660.586, 693.010 650.586, 693.010 640.586, 693.010 630.586, 693.010 620.586, 693.010 610.586, 693.010 600.586, 693.010 590.586, 693.010 580.586, 693.010 570.586, 693.010 560.586, 693.010 550.586, 693.010 540.586, 693.010 530.586, 693.010 520.586, 693.010 510.586, 693.010 500.586, 693.010 490.586, 693.010 480.586, 693.010 470.586, 693.010 460.586, 693.010 450.586, 693.010 440.586, 693.010 430.586, 693.010 420.586, 693.010 410.586, 693.010 400.586, 693.010 390.586, 693.010 380.586, 693.010 370.586, 693.010 360.586, 693.010 350.586, 693.010 340.586, 693.010 330.586, 693.010 320.586, 693.010 310.586, 693.010 300.586, 693.010 290.586, 693.010 280.586, 693.010 270.586, 693.010 260.586, 693.010 253.414, 693.010 " />
            <path fill="none" stroke-width="1.5" stroke-linecap="round" stroke-opacity="1.0" stroke="rgb(0, 0, 0)" stroke-linejoin="round" d=" M 253.414, 744.727 263.414, 744.727 273.414, 744.727 283.414, 744.727 293.414, 744.727 303.414, 744.727 313.414, 744.727 323.414, 744.727 333.414, 744.727 343.414, 744.727 353.414, 744.727 363.414, 744.727 373.414, 744.727 383.414, 744.727 393.414, 744.727 403.414, 744.727 413.414, 744.727 423.414, 744.727 433.414, 744.727 443.414, 744.727 453.414, 744.727 463.414, 744.727 473.414, 744.727 483.414, 744.727 493.414, 744.727 503.414, 744.727 513.414, 744.727 523.414, 744.727 533.414, 744.727 543.414, 744.727 553.414, 744.727 563.414, 744.727 573.414, 744.727 583.414, 744.727 593.414, 744.727 603.414, 744.727 613.414, 744.727 623.414, 744.727 633.414, 744.727 643.414, 744.727 653.414, 744.727 663.414, 744.727 673.414, 744.727 683.414, 744.727 693.414, 744.727 703.414, 744.727 713.414, 744.727 723.414, 744.727 733.414, 744.727 743.414, 744.727 753.414, 744.727 763.414, 744.727 770.586, 744.727 " />
            <path fill="none" stroke-width="1.5" stroke-linecap="round" stroke-opacity="1.0" stroke="rgb(0, 0, 0)" stroke-linejoin="round" d=" M 744.727, 537.859 754.727, 537.859 764.727, 537.859 770.586, 537.859 770.586, 527.859 770.586, 524.929 770.586, 524.929 770.586, 514.929 770.586, 504.929 770.586, 494.929 770.586, 484.929 770.586, 474.929 770.586, 464.929 770.586, 454.929 770.586, 444.929 770.586, 434.929 770.586, 424.929 770.586, 414.929 770.586, 404.929 770.586, 394.929 770.586, 384.929 770.586, 374.929 770.586, 364.929 770.586, 354.929 770.586, 344.929 770.586, 334.929 770.586, 324.929 770.586, 314.929 770.586, 304.929 770.586, 294.929 770.586, 284.929 770.586, 279.273 " />
            <path fill="none" stroke-width="1.5" stroke-linecap="round" stroke-opacity="1.0" stroke="rgb(0, 0, 0)" stroke-linejoin="round" d=" M 253.414, 279.273 253.414, 289.273 253.414, 299.273 253.414, 309.273 253.414, 319.273 253.414, 329.273 253.414, 339.273 253.414, 349.273 253.414, 359.273 253.414, 369.273 253.414, 379.273 253.414, 389.273 253.414, 399.273 253.414, 409.273 253.414, 419.273 253.414, 429.273 253.414, 439.273 253.414, 449.273 253.414, 459.273 253.414, 469.273 253.414, 479.273 253.414, 489.273 253.414, 499.273 253.414, 509.273 253.414, 519.273 253.414, 524.929 253.414, 524.929 253.414, 534.929 253.414, 537.859 263.414, 537.859 273.414, 537.859 279.273, 537.859 " />
            <path fill="none" stroke-width="1.5" stroke-linecap="round" stroke-opacity="1.0" stroke="rgb(0, 0, 0)" stroke-linejoin="round" d=" M 253.414, 524.929 243.414, 524.929 233.414, 524.929 227.556, 524.929 227.556, 524.929 227.556, 534.929 227.556, 544.929 227.556, 554.929 227.556, 564.929 227.556, 574.929 227.556, 584.929 227.556, 594.929 227.556, 604.929 227.556, 614.929 227.556, 624.929 227.556, 634.929 227.556, 644.929 227.556, 654.222 227.556, 654.222 237.556, 654.222 247.556, 654.222 257.556, 654.222 267.556, 654.222 277.556, 654.222 279.273, 654.222 279.273, 654.222 279.273, 644.222 279.273, 634.222 279.273, 624.222 279.273, 614.222 279.273, 604.222 279.273, 594.222 279.273, 584.222 279.273, 574.222 279.273, 564.222 279.273, 554.222 279.273, 544.222 279.273, 537.859 " />
            <path fill="none" stroke-width="1.5" stroke-linecap="round" stroke-opacity="1.0" stroke="rgb(0, 0, 0)" stroke-linejoin="round" d=" M 227.556, 654.222 237.556, 654.222 247.556, 654.222 257.556, 654.222 267.556, 654.222 277.556, 654.222 279.273, 654.222 " />
            <path fill="none" stroke-width="1.5" stroke-linecap="round" stroke-opacity="1.0" stroke="rgb(0, 0, 0)" stroke-linejoin="round" d=" M 744.727, 537.859 744.727, 547.859 744.727, 557.859 744.727, 567.859 744.727, 577.859 744.727, 587.859 744.727, 597.859 744.727, 607.859 744.727, 617.859 744.727, 627.859 744.727, 637.859 744.727, 647.859 744.727, 654.222 744.727, 654.222 754.727, 654.222 764.727, 654.222 774.727, 654.222 784.727, 654.222 794.727, 654.222 796.444, 654.222 796.444, 654.222 796.444, 644.222 796.444, 634.222 796.444, 624.222 796.444, 614.222 796.444, 604.222 796.444, 594.222 796.444, 584.222 796.444, 574.222 796.444, 564.222 796.444, 554.222 796.444, 544.222 796.444, 534.222 796.444, 524.929 796.444, 524.929 786.444, 524.929 776.444, 524.929 770.586, 524.929 " />
            <path fill="none" stroke-width="1.5" stroke-linecap="round" stroke-opacity="1.0" stroke="rgb(0, 0, 0)" stroke-linejoin="round" d=" M 744.727, 654.222 754.727, 654.222 764.727, 654.222 774.727, 654.222 784.727, 654.222 794.727, 654.222 796.444, 654.222 " />
            <path fill="none" stroke-width="1.5" stroke-linecap="round" stroke-opacity="1.0" stroke="rgb(0, 0, 0)" stroke-linejoin="round" d=" M 279.273, 537.859 289.273, 537.859 299.273, 537.859 309.273, 537.859 319.273, 537.859 329.273, 537.859 339.273, 537.859 349.273, 537.859 359.273, 537.859 369.273, 537.859 379.273, 537.859 389.273, 537.859 399.273, 537.859 409.273, 537.859 419.273, 537.859 429.273, 537.859 439.273, 537.859 449.273, 537.859 459.273, 537.859 469.273, 537.859 479.273, 537.859 489.273, 537.859 499.273, 537.859 509.273, 537.859 519.273, 537.859 529.273, 537.859 539.273, 537.859 549.273, 537.859 559.273, 537.859 569.273, 537.859 579.273, 537.859 589.273, 537.859 599.273, 537.859 609.273, 537.859 619.273, 537.859 629.273, 537.859 639.273, 537.859 649.273, 537.859 659.273, 537.859 669.273, 537.859 679.273, 537.859 689.273, 537.859 699.273, 537.859 709.273, 537.859 719.273, 537.859 729.273, 537.859 739.273, 537.859 744.727, 537.859 " />
            <path fill="none" stroke-width="1.5" stroke-linecap="round" stroke-opacity="1.0" stroke="rgb(0, 0, 0)" stroke-linejoin="round" d=" M 770.586, 279.273 760.586, 279.273 750.586, 279.273 740.586, 279.273 730.586, 279.273 720.586, 279.273 710.586, 279.273 700.586, 279.273 690.586, 279.273 680.586, 279.273 670.586, 279.273 660.586, 279.273 650.586, 279.273 640.586, 279.273 630.586, 279.273 620.586, 279.273 610.586, 279.273 600.586, 279.273 590.586, 279.273 580.586, 279.273 570.586, 279.273 560.586, 279.273 550.586, 279.273 540.586, 279.273 530.586, 279.273 520.586, 279.273 510.586, 279.273 500.586, 279.273 490.586, 279.273 480.586, 279.273 470.586, 279.273 460.586, 279.273 450.586, 279.273 440.586, 279.273 430.586, 279.273 420.586, 279.273 410.586, 279.273 400.586, 279.273 390.586, 279.273 380.586, 279.273 370.586, 279.273 360.586, 279.273 350.586, 279.273 340.586, 279.273 330.586, 279.273 320.586, 279.273 310.586, 279.273 300.586, 279.273 290.586, 279.273 280.586, 279.273 270.586, 279.273 260.586, 279.273 253.414, 279.273 " />
        </g>
    </g>
    <g id="ViewLayer_TechnicalLines.002" inkscape:groupmode="lineset" inkscape:label="ViewLayer_TechnicalLines.002">
        <g inkscape:groupmode="layer" id="strokes" inkscape:label="strokes">
            <path fill="none" stroke-width="1.5" stroke-linecap="round" stroke-opacity="1.0" stroke="rgb(0, 0, 0)" stroke-linejoin="round" d=" M 253.414, 693.010 253.414, 703.010 253.414, 713.010 253.414, 723.010 253.414, 733.010 253.414, 743.010 253.414, 744.727 253.414, 744.727 263.414, 744.727 273.414, 744.727 283.414, 744.727 293.414, 744.727 303.414, 744.727 313.414, 744.727 323.414, 744.727 333.414, 744.727 343.414, 744.727 353.414, 744.727 363.414, 744.727 373.414, 744.727 383.414, 744.727 393.414, 744.727 403.414, 744.727 413.414, 744.727 423.414, 744.727 433.414, 744.727 443.414, 744.727 453.414, 744.727 463.414, 744.727 473.414, 744.727 483.414, 744.727 493.414, 744.727 503.414, 744.727 513.414, 744.727 523.414, 744.727 533.414, 744.727 543.414, 744.727 553.414, 744.727 563.414, 744.727 573.414, 744.727 583.414, 744.727 593.414, 744.727 603.414, 744.727 613.414, 744.727 623.414, 744.727 633.414, 744.727 643.414, 744.727 653.414, 744.727 663.414, 744.727 673.414, 744.727 683.414, 744.727 693.414, 744.727 703.414, 744.727 713.414, 744.727 723.414, 744.727 733.414, 744.727 743.414, 744.727 753.414, 744.727 763.414, 744.727 770.586, 744.727 770.586, 744.727 770.586, 734.727 770.586, 724.727 770.586, 714.727 770.586, 704.727 770.586, 694.727 770.586, 693.010 760.586, 693.010 750.586, 693.010 740.586, 693.010 730.586, 693.010 720.586, 693.010 710.586, 693.010 700.586, 693.010 690.586, 693.010 680.586, 693.010 670.586, 693.010 660.586, 693.010 650.586, 693.010 640.586, 693.010 630.586, 693.010 620.586, 693.010 610.586, 693.010 600.586, 693.010 590.586, 693.010 580.586, 693.010 570.586, 693.010 560.586, 693.010 550.586, 693.010 540.586, 693.010 530.586, 693.010 520.586, 693.010 510.586, 693.010 500.586, 693.010 490.586, 693.010 480.586, 693.010 470.586, 693.010 460.586, 693.010 450.586, 693.010 440.586, 693.010 430.586, 693.010 420.586, 693.010 410.586, 693.010 400.586, 693.010 390.586, 693.010 380.586, 693.010 370.586, 693.010 360.586, 693.010 350.586, 693.010 340.586, 693.010 330.586, 693.010 320.586, 693.010 310.586, 693.010 300.586, 693.010 290.586, 693.010 280.586, 693.010 270.586, 693.010 260.586, 693.010 253.414, 693.010 " />
            <path fill="none" stroke-width="1.5" stroke-linecap="round" stroke-opacity="1.0" stroke="rgb(0, 0, 0)" stroke-linejoin="round" d=" M 253.414, 744.727 263.414, 744.727 273.414, 744.727 283.414, 744.727 293.414, 744.727 303.414, 744.727 313.414, 744.727 323.414, 744.727 333.414, 744.727 343.414, 744.727 353.414, 744.727 363.414, 744.727 373.414, 744.727 383.414, 744.727 393.414, 744.727 403.414, 744.727 413.414, 744.727 423.414, 744.727 433.414, 744.727 443.414, 744.727 453.414, 744.727 463.414, 744.727 473.414, 744.727 483.414, 744.727 493.414, 744.727 503.414, 744.727 513.414, 744.727 523.414, 744.727 533.414, 744.727 543.414, 744.727 553.414, 744.727 563.414, 744.727 573.414, 744.727 583.414, 744.727 593.414, 744.727 603.414, 744.727 613.414, 744.727 623.414, 744.727 633.414, 744.727 643.414, 744.727 653.414, 744.727 663.414, 744.727 673.414, 744.727 683.414, 744.727 693.414, 744.727 703.414, 744.727 713.414, 744.727 723.414, 744.727 733.414, 744.727 743.414, 744.727 753.414, 744.727 763.414, 744.727 770.586, 744.727 " />
            <path fill="none" stroke-width="1.5" stroke-linecap="round" stroke-opacity="1.0" stroke="rgb(0, 0, 0)" stroke-linejoin="round" d=" M 744.727, 537.859 754.727, 537.859 764.727, 537.859 770.586, 537.859 770.586, 527.859 770.586, 524.929 770.586, 524.929 770.586, 514.929 770.586, 504.929 770.586, 494.929 770.586, 484.929 770.586, 474.929 770.586, 464.929 770.586, 454.929 770.586, 444.929 770.586, 434.929 770.586, 424.929 770.586, 414.929 770.586, 404.929 770.586, 394.929 770.586, 384.929 770.586, 374.929 770.586, 364.929 770.586, 354.929 770.586, 344.929 770.586, 334.929 770.586, 324.929 770.586, 314.929 770.586, 304.929 770.586, 294.929 770.586, 284.929 770.586, 279.273 " />
            <path fill="none" stroke-width="1.5" stroke-linecap="round" stroke-opacity="1.0" stroke="rgb(0, 0, 0)" stroke-linejoin="round" d=" M 253.414, 279.273 253.414, 289.273 253.414, 299.273 253.414, 309.273 253.414, 319.273 253.414, 329.273 253.414, 339.273 253.414, 349.273 253.414, 359.273 253.414, 369.273 253.414, 379.273 253.414, 389.273 253.414, 399.273 253.414, 409.273 253.414, 419.273 253.414, 429.273 253.414, 439.273 253.414, 449.273 253.414, 459.273 253.414, 469.273 253.414, 479.273 253.414, 489.273 253.414, 499.273 253.414, 509.273 253.414, 519.273 253.414, 524.929 253.414, 524.929 253.414, 534.929 253.414, 537.859 263.414, 537.859 273.414, 537.859 279.273, 537.859 " />
            <path fill="none" stroke-width="1.5" stroke-linecap="round" stroke-opacity="1.0" stroke="rgb(0, 0, 0)" stroke-linejoin="round" d=" M 253.414, 524.929 243.414, 524.929 233.414, 524.929 227.556, 524.929 227.556, 524.929 227.556, 534.929 227.556, 544.929 227.556, 554.929 227.556, 564.929 227.556, 574.929 227.556, 584.929 227.556, 594.929 227.556, 604.929 227.556, 614.929 227.556, 624.929 227.556, 634.929 227.556, 644.929 227.556, 654.222 227.556, 654.222 237.556, 654.222 247.556, 654.222 257.556, 654.222 267.556, 654.222 277.556, 654.222 279.273, 654.222 279.273, 654.222 279.273, 644.222 279.273, 634.222 279.273, 624.222 279.273, 614.222 279.273, 604.222 279.273, 594.222 279.273, 584.222 279.273, 574.222 279.273, 564.222 279.273, 554.222 279.273, 544.222 279.273, 537.859 " />
            <path fill="none" stroke-width="1.5" stroke-linecap="round" stroke-opacity="1.0" stroke="rgb(0, 0, 0)" stroke-linejoin="round" d=" M 227.556, 654.222 237.556, 654.222 247.556, 654.222 257.556, 654.222 267.556, 654.222 277.556, 654.222 279.273, 654.222 " />
            <path fill="none" stroke-width="1.5" stroke-linecap="round" stroke-opacity="1.0" stroke="rgb(0, 0, 0)" stroke-linejoin="round" d=" M 744.727, 537.859 744.727, 547.859 744.727, 557.859 744.727, 567.859 744.727, 577.859 744.727, 587.859 744.727, 597.859 744.727, 607.859 744.727, 617.859 744.727, 627.859 744.727, 637.859 744.727, 647.859 744.727, 654.222 744.727, 654.222 754.727, 654.222 764.727, 654.222 774.727, 654.222 784.727, 654.222 794.727, 654.222 796.444, 654.222 796.444, 654.222 796.444, 644.222 796.444, 634.222 796.444, 624.222 796.444, 614.222 796.444, 604.222 796.444, 594.222 796.444, 584.222 796.444, 574.222 796.444, 564.222 796.444, 554.222 796.444, 544.222 796.444, 534.222 796.444, 524.929 796.444, 524.929 786.444, 524.929 776.444, 524.929 770.586, 524.929 " />
            <path fill="none" stroke-width="1.5" stroke-linecap="round" stroke-opacity="1.0" stroke="rgb(0, 0, 0)" stroke-linejoin="round" d=" M 744.727, 654.222 754.727, 654.222 764.727, 654.222 774.727, 654.222 784.727, 654.222 794.727, 654.222 796.444, 654.222 " />
            <path fill="none" stroke-width="1.5" stroke-linecap="round" stroke-opacity="1.0" stroke="rgb(0, 0, 0)" stroke-linejoin="round" d=" M 279.273, 537.859 289.273, 537.859 299.273, 537.859 309.273, 537.859 319.273, 537.859 329.273, 537.859 339.273, 537.859 349.273, 537.859 359.273, 537.859 369.273, 537.859 379.273, 537.859 389.273, 537.859 399.273, 537.859 409.273, 537.859 419.273, 537.859 429.273, 537.859 439.273, 537.859 449.273, 537.859 459.273, 537.859 469.273, 537.859 479.273, 537.859 489.273, 537.859 499.273, 537.859 509.273, 537.859 519.273, 537.859 529.273, 537.859 539.273, 537.859 549.273, 537.859 559.273, 537.859 569.273, 537.859 579.273, 537.859 589.273, 537.859 599.273, 537.859 609.273, 537.859 619.273, 537.859 629.273, 537.859 639.273, 537.859 649.273, 537.859 659.273, 537.859 669.273, 537.859 679.273, 537.859 689.273, 537.859 699.273, 537.859 709.273, 537.859 719.273, 537.859 729.273, 537.859 739.273, 537.859 744.727, 537.859 " />
            <path fill="none" stroke-width="1.5" stroke-linecap="round" stroke-opacity="1.0" stroke="rgb(0, 0, 0)" stroke-linejoin="round" d=" M 770.586, 279.273 760.586, 279.273 750.586, 279.273 740.586, 279.273 730.586, 279.273 720.586, 279.273 710.586, 279.273 700.586, 279.273 690.586, 279.273 680.586, 279.273 670.586, 279.273 660.586, 279.273 650.586, 279.273 640.586, 279.273 630.586, 279.273 620.586, 279.273 610.586, 279.273 600.586, 279.273 590.586, 279.273 580.586, 279.273 570.586, 279.273 560.586, 279.273 550.586, 279.273 540.586, 279.273 530.586, 279.273 520.586, 279.273 510.586, 279.273 500.586, 279.273 490.586, 279.273 480.586, 279.273 470.586, 279.273 460.586, 279.273 450.586, 279.273 440.586, 279.273 430.586, 279.273 420.586, 279.273 410.586, 279.273 400.586, 279.273 390.586, 279.273 380.586, 279.273 370.586, 279.273 360.586, 279.273 350.586, 279.273 340.586, 279.273 330.586, 279.273 320.586, 279.273 310.586, 279.273 300.586, 279.273 290.586, 279.273 280.586, 279.273 270.586, 279.273 260.586, 279.273 253.414, 279.273 " />
        </g>
    </g>
    <g id="ViewLayer_TechnicalLines.003" inkscape:groupmode="lineset" inkscape:label="ViewLayer_TechnicalLines.003">
        <g inkscape:groupmode="layer" id="strokes" inkscape:label="strokes">
            <path fill="none" stroke-width="1.5" stroke-linecap="round" stroke-opacity="1.0" stroke="rgb(0, 0, 0)" stroke-linejoin="round" d=" M 253.414, 693.010 253.414, 703.010 253.414, 713.010 253.414, 723.010 253.414, 733.010 253.414, 743.010 253.414, 744.727 253.414, 744.727 263.414, 744.727 273.414, 744.727 283.414, 744.727 293.414, 744.727 303.414, 744.727 313.414, 744.727 323.414, 744.727 333.414, 744.727 343.414, 744.727 353.414, 744.727 363.414, 744.727 373.414, 744.727 383.414, 744.727 393.414, 744.727 403.414, 744.727 413.414, 744.727 423.414, 744.727 433.414, 744.727 443.414, 744.727 453.414, 744.727 463.414, 744.727 473.414, 744.727 483.414, 744.727 493.414, 744.727 503.414, 744.727 513.414, 744.727 523.414, 744.727 533.414, 744.727 543.414, 744.727 553.414, 744.727 563.414, 744.727 573.414, 744.727 583.414, 744.727 593.414, 744.727 603.414, 744.727 613.414, 744.727 623.414, 744.727 633.414, 744.727 643.414, 744.727 653.414, 744.727 663.414, 744.727 673.414, 744.727 683.414, 744.727 693.414, 744.727 703.414, 744.727 713.414, 744.727 723.414, 744.727 733.414, 744.727 743.414, 744.727 753.414, 744.727 763.414, 744.727 770.586, 744.727 770.586, 744.727 770.586, 734.727 770.586, 724.727 770.586, 714.727 770.586, 704.727 770.586, 694.727 770.586, 693.010 760.586, 693.010 750.586, 693.010 740.586, 693.010 730.586, 693.010 720.586, 693.010 710.586, 693.010 700.586, 693.010 690.586, 693.010 680.586, 693.010 670.586, 693.010 660.586, 693.010 650.586, 693.010 640.586, 693.010 630.586, 693.010 620.586, 693.010 610.586, 693.010 600.586, 693.010 590.586, 693.010 580.586, 693.010 570.586, 693.010 560.586, 693.010 550.586, 693.010 540.586, 693.010 530.586, 693.010 520.586, 693.010 510.586, 693.010 500.586, 693.010 490.586, 693.010 480.586, 693.010 470.586, 693.010 460.586, 693.010 450.586, 693.010 440.586, 693.010 430.586, 693.010 420.586, 693.010 410.586, 693.010 400.586, 693.010 390.586, 693.010 380.586, 693.010 370.586, 693.010 360.586, 693.010 350.586, 693.010 340.586, 693.010 330.586, 693.010 320.586, 693.010 310.586, 693.010 300.586, 693.010 290.586, 693.010 280.586, 693.010 270.586, 693.010 260.586, 693.010 253.414, 693.010 " />
            <path fill="none" stroke-width="1.5" stroke-linecap="round" stroke-opacity="1.0" stroke="rgb(0, 0, 0)" stroke-linejoin="round" d=" M 253.414, 744.727 263.414, 744.727 273.414, 744.727 283.414, 744.727 293.414, 744.727 303.414, 744.727 313.414, 744.727 323.414, 744.727 333.414, 744.727 343.414, 744.727 353.414, 744.727 363.414, 744.727 373.414, 744.727 383.414, 744.727 393.414, 744.727 403.414, 744.727 413.414, 744.727 423.414, 744.727 433.414, 744.727 443.414, 744.727 453.414, 744.727 463.414, 744.727 473.414, 744.727 483.414, 744.727 493.414, 744.727 503.414, 744.727 513.414, 744.727 523.414, 744.727 533.414, 744.727 543.414, 744.727 553.414, 744.727 563.414, 744.727 573.414, 744.727 583.414, 744.727 593.414, 744.727 603.414, 744.727 613.414, 744.727 623.414, 744.727 633.414, 744.727 643.414, 744.727 653.414, 744.727 663.414, 744.727 673.414, 744.727 683.414, 744.727 693.414, 744.727 703.414, 744.727 713.414, 744.727 723.414, 744.727 733.414, 744.727 743.414, 744.727 753.414, 744.727 763.414, 744.727 770.586, 744.727 " />
            <path fill="none" stroke-width="1.5" stroke-linecap="round" stroke-opacity="1.0" stroke="rgb(0, 0, 0)" stroke-linejoin="round" d=" M 744.727, 537.859 754.727, 537.859 764.727, 537.859 770.586, 537.859 770.586, 527.859 770.586, 524.929 770.586, 524.929 770.586, 514.929 770.586, 504.929 770.586, 494.929 770.586, 484.929 770.586, 474.929 770.586, 464.929 770.586, 454.929 770.586, 444.929 770.586, 434.929 770.586, 424.929 770.586, 414.929 770.586, 404.929 770.586, 394.929 770.586, 384.929 770.586, 374.929 770.586, 364.929 770.586, 354.929 770.586, 344.929 770.586, 334.929 770.586, 324.929 770.586, 314.929 770.586, 304.929 770.586, 294.929 770.586, 284.929 770.586, 279.273 " />
            <path fill="none" stroke-width="1.5" stroke-linecap="round" stroke-opacity="1.0" stroke="rgb(0, 0, 0)" stroke-linejoin="round" d=" M 253.414, 279.273 253.414, 289.273 253.414, 299.273 253.414, 309.273 253.414, 319.273 253.414, 329.273 253.414, 339.273 253.414, 349.273 253.414, 359.273 253.414, 369.273 253.414, 379.273 253.414, 389.273 253.414, 399.273 253.414, 409.273 253.414, 419.273 253.414, 429.273 253.414, 439.273 253.414, 449.273 253.414, 459.273 253.414, 469.273 253.414, 479.273 253.414, 489.273 253.414, 499.273 253.414, 509.273 253.414, 519.273 253.414, 524.929 253.414, 524.929 253.414, 534.929 253.414, 537.859 263.414, 537.859 273.414, 537.859 279.273, 537.859 " />
            <path fill="none" stroke-width="1.5" stroke-linecap="round" stroke-opacity="1.0" stroke="rgb(0, 0, 0)" stroke-linejoin="round" d=" M 253.414, 524.929 243.414, 524.929 233.414, 524.929 227.556, 524.929 227.556, 524.929 227.556, 534.929 227.556, 544.929 227.556, 554.929 227.556, 564.929 227.556, 574.929 227.556, 584.929 227.556, 594.929 227.556, 604.929 227.556, 614.929 227.556, 624.929 227.556, 634.929 227.556, 644.929 227.556, 654.222 227.556, 654.222 237.556, 654.222 247.556, 654.222 257.556, 654.222 267.556, 654.222 277.556, 654.222 279.273, 654.222 279.273, 654.222 279.273, 644.222 279.273, 634.222 279.273, 624.222 279.273, 614.222 279.273, 604.222 279.273, 594.222 279.273, 584.222 279.273, 574.222 279.273, 564.222 279.273, 554.222 279.273, 544.222 279.273, 537.859 " />
            <path fill="none" stroke-width="1.5" stroke-linecap="round" stroke-opacity="1.0" stroke="rgb(0, 0, 0)" stroke-linejoin="round" d=" M 227.556, 654.222 237.556, 654.222 247.556, 654.222 257.556, 654.222 267.556, 654.222 277.556, 654.222 279.273, 654.222 " />
            <path fill="none" stroke-width="1.5" stroke-linecap="round" stroke-opacity="1.0" stroke="rgb(0, 0, 0)" stroke-linejoin="round" d=" M 744.727, 537.859 744.727, 547.859 744.727, 557.859 744.727, 567.859 744.727, 577.859 744.727, 587.859 744.727, 597.859 744.727, 607.859 744.727, 617.859 744.727, 627.859 744.727, 637.859 744.727, 647.859 744.727, 654.222 744.727, 654.222 754.727, 654.222 764.727, 654.222 774.727, 654.222 784.727, 654.222 794.727, 654.222 796.444, 654.222 796.444, 654.222 796.444, 644.222 796.444, 634.222 796.444, 624.222 796.444, 614.222 796.444, 604.222 796.444, 594.222 796.444, 584.222 796.444, 574.222 796.444, 564.222 796.444, 554.222 796.444, 544.222 796.444, 534.222 796.444, 524.929 796.444, 524.929 786.444, 524.929 776.444, 524.929 770.586, 524.929 " />
            <path fill="none" stroke-width="1.5" stroke-linecap="round" stroke-opacity="1.0" stroke="rgb(0, 0, 0)" stroke-linejoin="round" d=" M 744.727, 654.222 754.727, 654.222 764.727, 654.222 774.727, 654.222 784.727, 654.222 794.727, 654.222 796.444, 654.222 " />
            <path fill="none" stroke-width="1.5" stroke-linecap="round" stroke-opacity="1.0" stroke="rgb(0, 0, 0)" stroke-linejoin="round" d=" M 279.273, 537.859 289.273, 537.859 299.273, 537.859 309.273, 537.859 319.273, 537.859 329.273, 537.859 339.273, 537.859 349.273, 537.859 359.273, 537.859 369.273, 537.859 379.273, 537.859 389.273, 537.859 399.273, 537.859 409.273, 537.859 419.273, 537.859 429.273, 537.859 439.273, 537.859 449.273, 537.859 459.273, 537.859 469.273, 537.859 479.273, 537.859 489.273, 537.859 499.273, 537.859 509.273, 537.859 519.273, 537.859 529.273, 537.859 539.273, 537.859 549.273, 537.859 559.273, 537.859 569.273, 537.859 579.273, 537.859 589.273, 537.859 599.273, 537.859 609.273, 537.859 619.273, 537.859 629.273, 537.859 639.273, 537.859 649.273, 537.859 659.273, 537.859 669.273, 537.859 679.273, 537.859 689.273, 537.859 699.273, 537.859 709.273, 537.859 719.273, 537.859 729.273, 537.859 739.273, 537.859 744.727, 537.859 " />
            <path fill="none" stroke-width="1.5" stroke-linecap="round" stroke-opacity="1.0" stroke="rgb(0, 0, 0)" stroke-linejoin="round" d=" M 770.586, 279.273 760.586, 279.273 750.586, 279.273 740.586, 279.273 730.586, 279.273 720.586, 279.273 710.586, 279.273 700.586, 279.273 690.586, 279.273 680.586, 279.273 670.586, 279.273 660.586, 279.273 650.586, 279.273 640.586, 279.273 630.586, 279.273 620.586, 279.273 610.586, 279.273 600.586, 279.273 590.586, 279.273 580.586, 279.273 570.586, 279.273 560.586, 279.273 550.586, 279.273 540.586, 279.273 530.586, 279.273 520.586, 279.273 510.586, 279.273 500.586, 279.273 490.586, 279.273 480.586, 279.273 470.586, 279.273 460.586, 279.273 450.586, 279.273 440.586, 279.273 430.586, 279.273 420.586, 279.273 410.586, 279.273 400.586, 279.273 390.586, 279.273 380.586, 279.273 370.586, 279.273 360.586, 279.273 350.586, 279.273 340.586, 279.273 330.586, 279.273 320.586, 279.273 310.586, 279.273 300.586, 279.273 290.586, 279.273 280.586, 279.273 270.586, 279.273 260.586, 279.273 253.414, 279.273 " />
        </g>
    </g>
    <g id="ViewLayer_TechnicalLines.004" xmlns:inkscape="http://www.inkscape.org/namespaces/inkscape" inkscape:groupmode="lineset" inkscape:label="ViewLayer_TechnicalLines.004">
        <g xmlns:inkscape="http://www.inkscape.org/namespaces/inkscape" inkscape:groupmode="layer" id="strokes" inkscape:label="strokes">
            <path fill="none" stroke-width="1.5" stroke-linecap="round" stroke-opacity="1.0" stroke="rgb(0, 0, 0)" stroke-linejoin="round" d=" M 253.414, 693.010 253.414, 703.010 253.414, 713.010 253.414, 723.010 253.414, 733.010 253.414, 743.010 253.414, 744.727 253.414, 744.727 263.414, 744.727 273.414, 744.727 283.414, 744.727 293.414, 744.727 303.414, 744.727 313.414, 744.727 323.414, 744.727 333.414, 744.727 343.414, 744.727 353.414, 744.727 363.414, 744.727 373.414, 744.727 383.414, 744.727 393.414, 744.727 403.414, 744.727 413.414, 744.727 423.414, 744.727 433.414, 744.727 443.414, 744.727 453.414, 744.727 463.414, 744.727 473.414, 744.727 483.414, 744.727 493.414, 744.727 503.414, 744.727 513.414, 744.727 523.414, 744.727 533.414, 744.727 543.414, 744.727 553.414, 744.727 563.414, 744.727 573.414, 744.727 583.414, 744.727 593.414, 744.727 603.414, 744.727 613.414, 744.727 623.414, 744.727 633.414, 744.727 643.414, 744.727 653.414, 744.727 663.414, 744.727 673.414, 744.727 683.414, 744.727 693.414, 744.727 703.414, 744.727 713.414, 744.727 723.414, 744.727 733.414, 744.727 743.414, 744.727 753.414, 744.727 763.414, 744.727 770.586, 744.727 770.586, 744.727 770.586, 734.727 770.586, 724.727 770.586, 714.727 770.586, 704.727 770.586, 694.727 770.586, 693.010 760.586, 693.010 750.586, 693.010 740.586, 693.010 730.586, 693.010 720.586, 693.010 710.586, 693.010 700.586, 693.010 690.586, 693.010 680.586, 693.010 670.586, 693.010 660.586, 693.010 650.586, 693.010 640.586, 693.010 630.586, 693.010 620.586, 693.010 610.586, 693.010 600.586, 693.010 590.586, 693.010 580.586, 693.010 570.586, 693.010 560.586, 693.010 550.586, 693.010 540.586, 693.010 530.586, 693.010 520.586, 693.010 510.586, 693.010 500.586, 693.010 490.586, 693.010 480.586, 693.010 470.586, 693.010 460.586, 693.010 450.586, 693.010 440.586, 693.010 430.586, 693.010 420.586, 693.010 410.586, 693.010 400.586, 693.010 390.586, 693.010 380.586, 693.010 370.586, 693.010 360.586, 693.010 350.586, 693.010 340.586, 693.010 330.586, 693.010 320.586, 693.010 310.586, 693.010 300.586, 693.010 290.586, 693.010 280.586, 693.010 270.586, 693.010 260.586, 693.010 253.414, 693.010 " />
            <path fill="none" stroke-width="1.5" stroke-linecap="round" stroke-opacity="1.0" stroke="rgb(0, 0, 0)" stroke-linejoin="round" d=" M 253.414, 744.727 263.414, 744.727 273.414, 744.727 283.414, 744.727 293.414, 744.727 303.414, 744.727 313.414, 744.727 323.414, 744.727 333.414, 744.727 343.414, 744.727 353.414, 744.727 363.414, 744.727 373.414, 744.727 383.414, 744.727 393.414, 744.727 403.414, 744.727 413.414, 744.727 423.414, 744.727 433.414, 744.727 443.414, 744.727 453.414, 744.727 463.414, 744.727 473.414, 744.727 483.414, 744.727 493.414, 744.727 503.414, 744.727 513.414, 744.727 523.414, 744.727 533.414, 744.727 543.414, 744.727 553.414, 744.727 563.414, 744.727 573.414, 744.727 583.414, 744.727 593.414, 744.727 603.414, 744.727 613.414, 744.727 623.414, 744.727 633.414, 744.727 643.414, 744.727 653.414, 744.727 663.414, 744.727 673.414, 744.727 683.414, 744.727 693.414, 744.727 703.414, 744.727 713.414, 744.727 723.414, 744.727 733.414, 744.727 743.414, 744.727 753.414, 744.727 763.414, 744.727 770.586, 744.727 " />
            <path fill="none" stroke-width="1.5" stroke-linecap="round" stroke-opacity="1.0" stroke="rgb(0, 0, 0)" stroke-linejoin="round" d=" M 744.727, 537.859 754.727, 537.859 764.727, 537.859 770.586, 537.859 770.586, 527.859 770.586, 524.929 770.586, 524.929 770.586, 514.929 770.586, 504.929 770.586, 494.929 770.586, 484.929 770.586, 474.929 770.586, 464.929 770.586, 454.929 770.586, 444.929 770.586, 434.929 770.586, 424.929 770.586, 414.929 770.586, 404.929 770.586, 394.929 770.586, 384.929 770.586, 374.929 770.586, 364.929 770.586, 354.929 770.586, 344.929 770.586, 334.929 770.586, 324.929 770.586, 314.929 770.586, 304.929 770.586, 294.929 770.586, 284.929 770.586, 279.273 " />
            <path fill="none" stroke-width="1.5" stroke-linecap="round" stroke-opacity="1.0" stroke="rgb(0, 0, 0)" stroke-linejoin="round" d=" M 253.414, 279.273 253.414, 289.273 253.414, 299.273 253.414, 309.273 253.414, 319.273 253.414, 329.273 253.414, 339.273 253.414, 349.273 253.414, 359.273 253.414, 369.273 253.414, 379.273 253.414, 389.273 253.414, 399.273 253.414, 409.273 253.414, 419.273 253.414, 429.273 253.414, 439.273 253.414, 449.273 253.414, 459.273 253.414, 469.273 253.414, 479.273 253.414, 489.273 253.414, 499.273 253.414, 509.273 253.414, 519.273 253.414, 524.929 253.414, 524.929 253.414, 534.929 253.414, 537.859 263.414, 537.859 273.414, 537.859 279.273, 537.859 " />
            <path fill="none" stroke-width="1.5" stroke-linecap="round" stroke-opacity="1.0" stroke="rgb(0, 0, 0)" stroke-linejoin="round" d=" M 253.414, 524.929 243.414, 524.929 233.414, 524.929 227.556, 524.929 227.556, 524.929 227.556, 534.929 227.556, 544.929 227.556, 554.929 227.556, 564.929 227.556, 574.929 227.556, 584.929 227.556, 594.929 227.556, 604.929 227.556, 614.929 227.556, 624.929 227.556, 634.929 227.556, 644.929 227.556, 654.222 227.556, 654.222 237.556, 654.222 247.556, 654.222 257.556, 654.222 267.556, 654.222 277.556, 654.222 279.273, 654.222 279.273, 654.222 279.273, 644.222 279.273, 634.222 279.273, 624.222 279.273, 614.222 279.273, 604.222 279.273, 594.222 279.273, 584.222 279.273, 574.222 279.273, 564.222 279.273, 554.222 279.273, 544.222 279.273, 537.859 " />
            <path fill="none" stroke-width="1.5" stroke-linecap="round" stroke-opacity="1.0" stroke="rgb(0, 0, 0)" stroke-linejoin="round" d=" M 227.556, 654.222 237.556, 654.222 247.556, 654.222 257.556, 654.222 267.556, 654.222 277.556, 654.222 279.273, 654.222 " />
            <path fill="none" stroke-width="1.5" stroke-linecap="round" stroke-opacity="1.0" stroke="rgb(0, 0, 0)" stroke-linejoin="round" d=" M 744.727, 537.859 744.727, 547.859 744.727, 557.859 744.727, 567.859 744.727, 577.859 744.727, 587.859 744.727, 597.859 744.727, 607.859 744.727, 617.859 744.727, 627.859 744.727, 637.859 744.727, 647.859 744.727, 654.222 744.727, 654.222 754.727, 654.222 764.727, 654.222 774.727, 654.222 784.727, 654.222 794.727, 654.222 796.444, 654.222 796.444, 654.222 796.444, 644.222 796.444, 634.222 796.444, 624.222 796.444, 614.222 796.444, 604.222 796.444, 594.222 796.444, 584.222 796.444, 574.222 796.444, 564.222 796.444, 554.222 796.444, 544.222 796.444, 534.222 796.444, 524.929 796.444, 524.929 786.444, 524.929 776.444, 524.929 770.586, 524.929 " />
            <path fill="none" stroke-width="1.5" stroke-linecap="round" stroke-opacity="1.0" stroke="rgb(0, 0, 0)" stroke-linejoin="round" d=" M 744.727, 654.222 754.727, 654.222 764.727, 654.222 774.727, 654.222 784.727, 654.222 794.727, 654.222 796.444, 654.222 " />
            <path fill="none" stroke-width="1.5" stroke-linecap="round" stroke-opacity="1.0" stroke="rgb(0, 0, 0)" stroke-linejoin="round" d=" M 279.273, 537.859 289.273, 537.859 299.273, 537.859 309.273, 537.859 319.273, 537.859 329.273, 537.859 339.273, 537.859 349.273, 537.859 359.273, 537.859 369.273, 537.859 379.273, 537.859 389.273, 537.859 399.273, 537.859 409.273, 537.859 419.273, 537.859 429.273, 537.859 439.273, 537.859 449.273, 537.859 459.273, 537.859 469.273, 537.859 479.273, 537.859 489.273, 537.859 499.273, 537.859 509.273, 537.859 519.273, 537.859 529.273, 537.859 539.273, 537.859 549.273, 537.859 559.273, 537.859 569.273, 537.859 579.273, 537.859 589.273, 537.859 599.273, 537.859 609.273, 537.859 619.273, 537.859 629.273, 537.859 639.273, 537.859 649.273, 537.859 659.273, 537.859 669.273, 537.859 679.273, 537.859 689.273, 537.859 699.273, 537.859 709.273, 537.859 719.273, 537.859 729.273, 537.859 739.273, 537.859 744.727, 537.859 " />
            <path fill="none" stroke-width="1.5" stroke-linecap="round" stroke-opacity="1.0" stroke="rgb(0, 0, 0)" stroke-linejoin="round" d=" M 770.586, 279.273 760.586, 279.273 750.586, 279.273 740.586, 279.273 730.586, 279.273 720.586, 279.273 710.586, 279.273 700.586, 279.273 690.586, 279.273 680.586, 279.273 670.586, 279.273 660.586, 279.273 650.586, 279.273 640.586, 279.273 630.586, 279.273 620.586, 279.273 610.586, 279.273 600.586, 279.273 590.586, 279.273 580.586, 279.273 570.586, 279.273 560.586, 279.273 550.586, 279.273 540.586, 279.273 530.586, 279.273 520.586, 279.273 510.586, 279.273 500.586, 279.273 490.586, 279.273 480.586, 279.273 470.586, 279.273 460.586, 279.273 450.586, 279.273 440.586, 279.273 430.586, 279.273 420.586, 279.273 410.586, 279.273 400.586, 279.273 390.586, 279.273 380.586, 279.273 370.586, 279.273 360.586, 279.273 350.586, 279.273 340.586, 279.273 330.586, 279.273 320.586, 279.273 310.586, 279.273 300.586, 279.273 290.586, 279.273 280.586, 279.273 270.586, 279.273 260.586, 279.273 253.414, 279.273 " />
        </g>
    </g>
</svg>
